<svg baseProfile="basic" xmlns="http://www.w3.org/2000/svg" width="44" height="44" viewBox="0 0 44 44"><circle fill="#FF5046" cx="22" cy="22" r="22"/><path fill="#FBFBFB" d="M22 4.5c9.6 0 17.5 7.8 17.5 17.5 0 9.6-7.8 17.5-17.5 17.5-9.6 0-17.5-7.8-17.5-17.5.1-9.7 7.9-17.5 17.5-17.5z"/><circle fill="#FF5046" cx="22" cy="22" r="13"/><circle fill="#FBFBFB" cx="22" cy="22" r="7.7"/><circle fill="#FF5046" cx="22" cy="22" r="4.2"/><path opacity=".3" d="M35.1 9.9L21.6 22.4l14.6 16.4C41 34.8 44 28.7 44 22c0-3.4-.8-6.6-2.1-9.5l-1.8-1.7-5-.9z"/><circle fill="#FFD700" cx="22.1" cy="22.1" r=".5"/><path fill="#FFD700" d="M36.2 8.8l.2.5.5.2-14.6 13-.7-.7z"/><path fill="#00D579" d="M35.3 5.5l1.1 3.8-5.2 4.6-1.1-3.8z"/><path fill="#009B54" d="M40.1 10.8l-3.7-1.5-5.2 4.7 3.7 1.4z"/></svg>