<svg baseProfile="basic" xmlns="http://www.w3.org/2000/svg" width="44" height="44" viewBox="0 0 44 44"><circle fill="#7E7E7E" cx="22" cy="22" r="22"/><path opacity=".1" d="M43.5 26.5l-17-17L9 34l9.8 9.8c1.1.2 2.1.2 3.2.2 10.6 0 19.4-7.5 21.5-17.5z"/><path fill="#F3F3F3" d="M9 17h25v17H9zM14 13h15v4H14zM17 9h9v4h-9z"/><path fill="#515151" d="M9 31h25v3H9z"/><path fill="#FFCC03" d="M14 26.4h1V32h-1z"/><path opacity=".5" fill="#CECECE" d="M15 14h13v10H15zM18 10h7v4h-7z"/><path fill="#FFCC03" d="M16 26.4h1V32h-1zM18 26.4h1V32h-1zM20 26.4h1V32h-1zM22 26.4h1V32h-1zM24 26.4h1V32h-1zM26 26.4h1V32h-1zM28 26.4h1V32h-1z"/><path fill="#BD9602" d="M14 30h1v2h-1zM16 30h1v2h-1zM18 30h1v2h-1zM20 30h1v2h-1zM22 30h1v2h-1zM24 30h1v2h-1zM26 30h1v2h-1zM28 30h1v2h-1z"/></svg>