<svg baseProfile="basic" xmlns="http://www.w3.org/2000/svg" width="44" height="49" viewBox="0 0 44 49"><path fill="#06B57E" d="M44 17.5c0-4.8-.8-8.7-2.3-11.9-.8.1-1.7.1-2.6.1C31.9 5.7 25.5 3.4 22 0c-3.5 3.4-9.9 5.7-17.1 5.7-.9 0-1.7 0-2.6-.1C.8 8.8 0 12.7 0 17.5c0 16.3 13.4 30.7 22 30.7 9.2 0 22-14.4 22-30.7z"/><g fill="#FFF"><path d="M30.8 35.5c0 .8-.6 1.4-1.4 1.4H14.6c-.8 0-1.4-.6-1.4-1.4V22.9c0-.8.6-1.4 1.4-1.4h14.8c.8 0 1.4.6 1.4 1.4v12.6z"/><path d="M22 36.1c-3.7 0-6.7-3-6.7-6.7V16.7a6.7 6.7 0 0 1 13.4 0v12.7c0 3.7-3 6.7-6.7 6.7zm0-23.2c-2.1 0-3.8 1.7-3.8 3.8v12.7c0 2.1 1.7 3.8 3.8 3.8 2.1 0 3.8-1.7 3.8-3.8V16.7c0-2.1-1.7-3.8-3.8-3.8z"/></g><g fill="#06B57E"><path d="M24.2 27.4c0 1.2-1 2.2-2.2 2.2-1.2 0-2.2-1-2.2-2.2 0-1.2 1-2.2 2.2-2.2 1.2-.1 2.2.9 2.2 2.2z"/><path d="M23.1 33c0 .6-.5 1.1-1.1 1.1-.6 0-1.1-.5-1.1-1.1v-6.2c0-.6.5-1.1 1.1-1.1.6 0 1.1.5 1.1 1.1V33z"/></g><path opacity=".1" fill="#010000" d="M41.7 5.6c-.8.1-1.7.1-2.6.1-7.2 0-13.5-2.3-17-5.7v48.1c9.4 0 21.9-14.5 21.9-30.7 0-4.7-.9-8.6-2.3-11.8z"/></svg>