<svg baseProfile="basic" xmlns="http://www.w3.org/2000/svg" width="44" height="44" viewBox="0 0 44 44"><circle fill="#FF8200" cx="22" cy="22" r="22"/><path opacity=".3" fill="#100030" d="M7.9 23.6c3.4 5.7 2.2 11.2 14.1 11.2 11.3 0 10.3-8 14.1-11.2V5.1C32.3 1.9 27.4 0 22 0S11.7 1.9 7.9 5.1v18.5z"/><path fill="#FFF" d="M22 7.9C14.2 7.9 7.9 14.2 7.9 22S14.2 36.1 22 36.1 36.1 29.8 36.1 22 29.8 7.9 22 7.9zm-12.1 15h4.9c0 1.5.2 2.9.5 4.2h-4.4c-.5-1.3-.9-2.8-1-4.2zM23 14.8v-4.6c1.3.6 2.5 2.2 3.2 4.6H23zm3.7 2c.3 1.3.4 2.6.5 4.1H23v-4.1h3.7zM21 10.2v4.6h-3.2c.8-2.3 1.9-4 3.2-4.6zm0 6.6v4.1h-4.3c.1-1.5.2-2.8.5-4.1H21zm-6.2 4.1H9.9c.1-1.5.5-2.8 1.1-4.1h4.3c-.2 1.3-.4 2.7-.5 4.1zm1.9 2H21V27h-3.8c-.2-1.2-.4-2.6-.5-4.1zM21 29v4.7c-1.3-.6-2.5-2.3-3.3-4.7H21zm2 4.8V29h3.3c-.8 2.4-2 4.2-3.3 4.8zm0-6.8v-4.2h4.3c0 1.5-.2 2.9-.5 4.2H23zm6.2-4.1h4.9c-.1 1.5-.5 2.9-1.1 4.2h-4.4c.4-1.4.5-2.8.6-4.2zm0-2c-.1-1.4-.2-2.8-.5-4.1H33c.6 1.3 1 2.6 1.1 4.1h-4.9zm2.6-6.1h-3.6c-.5-1.7-1.2-3.2-2.1-4.3 2.3.9 4.3 2.4 5.7 4.3zm-13.9-4.3c-.8 1.1-1.6 2.6-2.1 4.3h-3.6c1.4-1.9 3.4-3.4 5.7-4.3zM12.1 29h3.7c.5 1.8 1.3 3.3 2.1 4.4-2.3-.8-4.4-2.4-5.8-4.4zm14 4.5c.9-1.2 1.6-2.7 2.1-4.4h3.7c-1.4 1.9-3.4 3.5-5.8 4.4z"/></svg>