<svg baseProfile="basic" xmlns="http://www.w3.org/2000/svg" width="44" height="44" viewBox="0 0 44 44"><path fill="#2D8CD3" d="M22 0C9.9 0 0 9.9 0 22s9.9 22 22 22 22-9.9 22-22S34.1 0 22 0zM7.8 20.5c-1.2 0-2.2-1-2.2-2.2s1-2.2 2.2-2.2C9 16 10 17 10 18.3s-1 2.2-2.2 2.2zm1.9 3.8c0-1.9 1.5-3.4 3.4-3.4s3.4 1.5 3.4 3.4-1.5 3.4-3.4 3.4-3.4-1.5-3.4-3.4zm9.4 12c-2.3 0-4.2-1.9-4.2-4.2s1.9-4.2 4.2-4.2c2.3 0 4.2 1.9 4.2 4.2s-1.8 4.2-4.2 4.2zm6.2-8.6c-1.9 0-3.5-1.6-3.5-3.5s1.6-3.5 3.5-3.5 3.5 1.6 3.5 3.5-1.5 3.5-3.5 3.5zm5.3-7.4c-1.4 0-2.5-1.1-2.5-2.5s1.1-2.5 2.5-2.5 2.5 1.1 2.5 2.5c0 1.3-1.1 2.5-2.5 2.5zm4.2-6.3c-1 0-1.8-.8-1.8-1.8s.8-1.8 1.8-1.8 1.8.8 1.8 1.8-.8 1.8-1.8 1.8z"/></svg>