<svg xmlns="http://www.w3.org/2000/svg" width="25" height="25" viewBox="155.5 -1.5 25 25"><path fill="#0098E1" d="M175.75-.5h-16.5a3.75 3.75 0 0 0-3.75 3.75v16.5a3.75 3.75 0 0 0 3.75 3.75h16.5a3.75 3.75 0 0 0 3.75-3.75V3.25a3.75 3.75 0 0 0-3.75-3.75z"/><path fill="#FFF" d="M162.5 15.27a6.967 6.967 0 0 0 3.774 1.107c4.528 0 7.006-3.752 7.006-7.006 0-.106-.002-.212-.008-.317.48-.348.9-.78 1.228-1.273-.44.196-.916.328-1.414.387.51-.304.897-.787 1.083-1.362a4.945 4.945 0 0 1-1.565.597 2.46 2.46 0 0 0-1.797-.776 2.46 2.46 0 0 0-2.4 3.022 6.99 6.99 0 0 1-5.074-2.573c-.21.364-.333.787-.333 1.238 0 .855.435 1.61 1.097 2.05a2.46 2.46 0 0 1-1.117-.308v.03c0 1.193.85 2.19 1.976 2.415a2.464 2.464 0 0 1-1.11.042 2.463 2.463 0 0 0 2.3 1.71 4.943 4.943 0 0 1-3.647 1.02z"/></svg>