<svg baseProfile="tiny" xmlns="http://www.w3.org/2000/svg" width="25" height="25" viewBox="0 0 25 25" overflow="scroll"><path fill="#37AEE2" d="M21.1 0H3.9C1.7 0 0 1.7 0 3.9v17.3C0 23.3 1.7 25 3.9 25h17.3c2.1 0 3.9-1.7 3.9-3.9V3.9C25 1.7 23.3 0 21.1 0z"/><path fill="#FFF" d="M18.8 6.5l-14 5.4c-.5.2-.4.8 0 1l3.6 1 1.3 4.2c.1.4.7.6 1 .2l1.8-1.9 3.6 2.6c.4.3 1.1.1 1.2-.5l2.4-11.4c.2-.4-.4-.8-.9-.6zM17.1 9l-6.5 5.7c-.1.1-.1.1-.1.2l-.2 2.2c0 .1-.1.1-.1 0l-1-3.3c0-.2 0-.3.1-.4L17 8.6s.2.3.1.4zm0 0"/></svg>
