<svg baseProfile="tiny" xmlns="http://www.w3.org/2000/svg" width="25" height="25" viewBox="0 0 25 25" overflow="scroll"><path fill="#DC3171" d="M3.9 0h17.3C23.3 0 25 1.7 25 3.9v17.3c0 2.1-1.7 3.9-3.9 3.9H3.9C1.7 25 0 23.3 0 21.1V3.9C0 1.7 1.7 0 3.9 0z"/><g fill="#FFF"><path d="M12.5 5.1c2.4 0 2.7 0 3.6.1.9.1 1.4.2 1.7.3.4.2.7.4 1 .7.3.3.5.6.7 1 .1.3.3.8.3 1.7.1 1 .1 1.2.1 3.6s0 2.7-.1 3.6c-.1.9-.2 1.4-.3 1.7-.2.4-.4.7-.7 1-.3.3-.6.5-1 .7-.3.1-.8.3-1.7.3-1 .1-1.2.1-3.6.1s-2.7 0-3.6-.1c-.9-.1-1.4-.2-1.7-.3-.4-.2-.7-.4-1-.7-.3-.3-.5-.6-.7-1-.1-.3-.3-.8-.3-1.7-.1-.9-.1-1.2-.1-3.6s0-2.7.1-3.6c0-.9.1-1.4.3-1.7.2-.4.4-.7.7-1 .3-.3.6-.5 1-.7.3-.1.8-.3 1.6-.3 1-.1 1.3-.1 3.7-.1m0-1.6c-2.5 0-2.8 0-3.7.1-1 .1-1.6.2-2.2.4-.6.2-1.1.5-1.6 1s-.8 1-1.1 1.6c-.2.6-.4 1.2-.4 2.2v3.7s0 2.8.1 3.7c.1 1 .2 1.6.4 2.2.2.6.5 1.1 1 1.6s1 .8 1.6 1.1c.6.2 1.2.4 2.2.4h3.7s2.8 0 3.7-.1 1.6-.2 2.2-.4c.6-.2 1.1-.5 1.6-1s.8-1 1.1-1.6c.2-.6.4-1.2.4-2.2v-3.7s0-2.8-.1-3.7c-.1-1-.2-1.6-.4-2.2-.2-.6-.5-1.1-1-1.6s-1-.8-1.6-1.1c-.6-.2-1.2-.4-2.2-.4h-3.7z"/><path d="M12.5 7.9c-2.6 0-4.6 2.1-4.6 4.6s2.1 4.6 4.6 4.6 4.6-2.1 4.6-4.6-2-4.6-4.6-4.6zm0 7.6c-1.7 0-3-1.4-3-3s1.4-3 3-3 3 1.4 3 3-1.3 3-3 3z"/><circle cx="17.3" cy="7.7" r="1.1"/></g></svg>
