<svg xmlns="http://www.w3.org/2000/svg" width="25" height="25" viewBox="103.5 -1.494 25 25"><path fill="#E20000" d="M123.75-.494h-16.5a3.75 3.75 0 0 0-3.75 3.75v16.5a3.75 3.75 0 0 0 3.75 3.75h16.5a3.75 3.75 0 0 0 3.75-3.75v-16.5a3.75 3.75 0 0 0-3.75-3.75z"/><path fill="#FFF" d="M113.855 16.55c-.722-.54-2.284-1.645-2.284-2.387 0-.868.25-1.295 1.56-2.318 1.338-1.048 2.288-2.428 2.288-4.142 0-1.868-.765-3.56-2.194-4.383h2.034l1.733-1.82h-7.752c-2.322 0-4.41 1.017-5.736 2.502v7.667c1.003 1.1 2.486 1.782 4.378 1.782.257 0 .51-.018.752-.032-.24.46-.412.975-.412 1.51 0 .906.497 1.426 1.114 2.02-.468 0-.916.02-1.408.02-1.7 0-3.205.44-4.424 1.15v1.607c0 .304.044.594.112.877.86-1.584 2.955-2.746 5.332-2.72a6.808 6.808 0 0 1 2.018.325c1.69 1.175 3.052 1.906 3.396 3.248.063.27.1.546.1.834 0 .426-.052.833-.157 1.217h2.267c.192-.506.3-1.027.3-1.55-.005-2.354-.515-3.537-3.015-5.41zm-4.48-4.282c-2.09-.065-4.076-1.98-4.436-4.725-.365-2.743 1.038-4.843 3.126-4.78 2.09.063 3.877 2.313 4.24 5.057.36 2.744-.842 4.51-2.93 4.448zM123.428 1.552h-2.035v4.07h-4.07v2.035h4.07v4.07h2.035v-4.07h4.072V5.622h-4.072z"/></svg>