<svg xmlns="http://www.w3.org/2000/svg" width="25" height="25" viewBox="0.5 -70.5 25 25"><path fill="#0079AD" d="M25.5-49.5a4 4 0 0 1-4 4h-17a4 4 0 0 1-4-4v-17a4 4 0 0 1 4-4h17a4 4 0 0 1 4 4v17z"/><path fill="#FFF" d="M10.58-49.623h3.86v-6.562c0-.352.02-.703.125-.953.278-.703.916-1.43 1.98-1.43 1.398 0 1.957 1.08 1.957 2.657v6.285h3.86v-6.737c0-3.608-1.905-5.29-4.444-5.29-2.083 0-2.997 1.18-3.504 1.98h.024v-1.702h-3.86c.05 1.103 0 11.75 0 11.75z"/><g fill="#FFF"><path d="M4.505-61.376H8.37v11.628H4.504z"/><ellipse cx="6.473" cy="-64.743" rx="2.328" ry="2.007"/></g></svg>