<svg baseProfile="tiny" xmlns="http://www.w3.org/2000/svg" width="25" height="25" viewBox="0 0 25 25" overflow="scroll"><path fill="#4D75A3" d="M3.9 0h17.3C23.3 0 25 1.7 25 3.9v17.3c0 2.1-1.7 3.9-3.9 3.9H3.9C1.7 25 0 23.3 0 21.1V3.9C0 1.7 1.7 0 3.9 0z"/><path fill="#FFF" d="M18.2 12.7s2.2-3.1 2.4-4.1c.1-.3-.1-.6-.5-.6h-1.9c-.4 0-.6.2-.7.5 0 0-1 2.2-2.3 3.5-.4.5-.6.6-.8.6-.2 0-.2-.1-.2-.6V8.6c0-.5-.1-.6-.5-.6h-3c-.2 0-.4.1-.4.3 0 .5.7.6.7 1.8v2.6c0 .5 0 .7-.3.7-.7 0-2.2-2.2-3-4.7-.2-.6-.3-.7-.8-.7H5c-.3 0-.5.2-.5.4 0 .5.6 2.8 2.9 5.9 1.5 2.1 3.6 3.2 5.4 3.2 1.1 0 1.4-.2 1.4-.7v-1.6c0-.4.2-.6.4-.6s.7.1 1.8 1.1c1.3 1.2 1.4 1.7 2 1.7h2.1c.2 0 .4-.1.4-.5 0-.5-.6-1.3-1.6-2.3-.4-.5-1-1.1-1.2-1.3-.2-.1-.1-.3.1-.6z"/></svg>
