<svg xmlns="http://www.w3.org/2000/svg" width="121.286" height="59.261" viewBox="0 0 121.286 59.261"><path fill="#C6C5C5" d="M33.525 56.988L4.358 59.26 0 15.23l2.318-.182c1.276-.1 2.214-1.28 2.08-2.62l-.225-2.27a2.396 2.396 0 0 1 2.204-2.632l16.09-1.25a2.52 2.52 0 0 1 2.687 2.248l.224 2.27.242 2.44 8.246-.642 30.497.466L67.405 49.9l-5.55 4.882-28.33 2.206z"/><path fill="#066BC6" d="M44.78 0L8.414 18.92 4.51 59.26l36.218-2.843 20.365-1.6 13.02-1.022 3.902-40.337z"/><path fill="#FFF" d="M27.78 42.876l-4.143-6.757H20.26v6.756h-4.048V23.86h8.896c3.963 0 6.388 2.593 6.388 6.127 0 3.366-1.7 5.162-3.754 5.646l4.686 7.242H27.78zm-.42-12.888c0-1.595-1.226-2.564-2.85-2.564h-4.25v5.132h4.25c1.625 0 2.85-.97 2.85-2.568zM34.96 42.876V23.86h13.457v3.563h-9.41v4.02h8.39v3.563h-8.39v4.306h9.41v3.564H34.96zM50.672 33.382c0-6.017 4.562-9.836 10.123-9.836 3.964 0 6.44 1.996 7.867 4.248l-3.364 1.825c-.854-1.34-2.48-2.482-4.503-2.482-3.453 0-5.96 2.652-5.96 6.245 0 3.592 2.507 6.244 5.96 6.244 1.682 0 3.28-.74 4.047-1.455V36.14h-5.017v-3.584h9.067v7.1c-1.938 2.166-4.647 3.592-8.098 3.592-5.56 0-10.122-3.878-10.122-9.866z"/><g><path d="M78.757 40.88c0-1.254 1.057-2.31 2.31-2.31 1.256 0 2.31 1.055 2.31 2.31s-1.054 2.31-2.31 2.31c-1.254 0-2.31-1.055-2.31-2.31zM98.17 42.876l-4.555-6.757h-2.967v6.756H86.6V23.86h8.897c3.964 0 6.387 2.593 6.387 6.127 0 3.366-2.11 5.162-4.162 5.646l5.097 7.242h-4.65zm-.42-12.888c0-1.595-1.227-2.564-2.853-2.564h-4.25v5.132h4.25c1.626 0 2.853-.97 2.853-2.568zM104.938 35.293V23.86h4.105v11.29c0 2.652 1.132 4.476 4.068 4.476 2.94 0 4.04-1.824 4.04-4.476V23.86h4.136v11.403c0 4.733-2.39 7.956-8.175 7.956-5.79 0-8.172-3.25-8.172-7.927z"/></g></svg>