<?xml version="1.0" encoding="utf-8"?>
<!-- Generator: Adobe Illustrator 20.1.0, SVG Export Plug-In . SVG Version: 6.00 Build 0)  -->
<svg version="1.1" baseProfile="basic" id="Layer_1"
	 xmlns="http://www.w3.org/2000/svg" xmlns:xlink="http://www.w3.org/1999/xlink" x="0px" y="0px" width="195px" height="30px"
	 viewBox="0 0 195 30" xml:space="preserve">
<g>
	<path id="path2998_1_" fill="#4285F4" d="M20.3,10.9h-9.6v2.9h6.8c-0.3,4-3.7,5.7-6.8,5.7c-4,0-7.5-3.2-7.5-7.6
		c0-4.3,3.3-7.7,7.5-7.7c3.2,0,5.1,2.1,5.1,2.1l2-2.1c0,0-2.6-2.9-7.2-2.9C4.6,1.3,0,6.4,0,11.8c0,5.3,4.3,10.5,10.7,10.5
		c5.6,0,9.7-3.8,9.7-9.5C20.5,11.6,20.3,10.9,20.3,10.9L20.3,10.9z"/>
	<path id="path3000_1_" fill="#EA4335" d="M28.2,8.8c-3.9,0-6.8,3.1-6.8,6.7c0,3.7,2.7,6.8,6.8,6.8c3.7,0,6.7-2.8,6.7-6.7
		C34.9,11.1,31.4,8.8,28.2,8.8L28.2,8.8z M28.2,11.5c1.9,0,3.8,1.6,3.8,4.1c0,2.5-1.8,4.1-3.8,4.1c-2.2,0-3.9-1.7-3.9-4.1
		C24.3,13.2,26,11.5,28.2,11.5L28.2,11.5z"/>
	<path id="path3005_1_" fill="#FBBC05" d="M42.9,8.8c-3.9,0-6.8,3.1-6.8,6.7c0,3.7,2.7,6.8,6.8,6.8c3.7,0,6.7-2.8,6.7-6.7
		C49.7,11.1,46.2,8.8,42.9,8.8L42.9,8.8z M42.9,11.5c1.9,0,3.8,1.6,3.8,4.1c0,2.5-1.8,4.1-3.8,4.1c-2.2,0-3.9-1.7-3.9-4.1
		C39.1,13.2,40.8,11.5,42.9,11.5L42.9,11.5z"/>
	<path id="path3007_1_" fill="#4285F4" d="M57.4,8.8c-3.6,0-6.5,3.2-6.5,6.7c0,4.1,3.3,6.8,6.4,6.8c1.9,0,2.9-0.8,3.7-1.6V22
		c0,2.3-1.4,3.7-3.5,3.7c-2.1,0-3.1-1.5-3.5-2.4l-2.6,1.1c0.9,1.9,2.8,4,6.1,4c3.6,0,6.4-2.3,6.4-7V9.2H61v1.1
		C60.1,9.4,58.9,8.8,57.4,8.8L57.4,8.8z M57.6,11.5c1.8,0,3.6,1.5,3.6,4.1c0,2.6-1.8,4.1-3.6,4.1c-1.9,0-3.7-1.6-3.7-4.1
		C53.9,13,55.7,11.5,57.6,11.5L57.6,11.5z"/>
	<path id="path3011_1_" fill="#EA4335" d="M76.4,8.8c-3.4,0-6.3,2.7-6.3,6.7c0,4.2,3.2,6.8,6.6,6.8c2.9,0,4.6-1.6,5.6-3l-2.3-1.6
		c-0.6,0.9-1.6,1.9-3.3,1.9c-1.9,0-2.8-1-3.3-2l9-3.8L82,12.8C81.1,10.6,79.1,8.8,76.4,8.8L76.4,8.8z M76.5,11.4
		c1.2,0,2.1,0.7,2.5,1.4l-6,2.5C72.7,13.4,74.6,11.4,76.5,11.4L76.5,11.4z"/>
	<path id="path3015_1_" fill="#34A853" d="M65.8,21.9h3V2h-3V21.9z"/>
</g>
<g>
	<path fill="#63666A" d="M90.8,22.3h-2.6l6.9-18.4h2.7l6.9,18.4h-2.6l-1.8-5h-7.7L90.8,22.3z M96.4,6.8l-3,8.3h6.1l-3-8.3H96.4z"/>
	<path fill="#63666A" d="M111.4,22.7c-1.6,0-3.1-0.7-4.2-2c-1.2-1.3-1.7-2.9-1.7-4.8c0-1.9,0.6-3.4,1.7-4.8c1.2-1.3,2.6-2,4.2-2
		c0.9,0,1.8,0.2,2.5,0.6c0.8,0.4,1.4,0.9,1.8,1.6h0.1l-0.1-1.8V3.9h2.4v18.4h-2.3v-1.7h-0.1c-0.4,0.7-1,1.2-1.8,1.6
		C113.1,22.5,112.3,22.7,111.4,22.7z M111.8,20.6c1.2,0,2.1-0.4,2.9-1.3c0.8-0.8,1.2-1.9,1.2-3.3c0-1.3-0.4-2.4-1.2-3.3
		c-0.8-0.9-1.7-1.3-2.9-1.3c-1.1,0-2.1,0.4-2.9,1.3c-0.8,0.9-1.2,1.9-1.2,3.3c0,1.3,0.4,2.4,1.2,3.3
		C109.7,20.2,110.6,20.6,111.8,20.6z"/>
	<path fill="#63666A" d="M140.4,3.9h2.5L138,22.3h-2.4l-4-12.1h-0.1l-4,12.1h-2.4L120,3.9h2.5l3.9,14.5h0.1l4-12h2.2l4,12h0.1
		L140.4,3.9z"/>
	<path fill="#63666A" d="M142.6,16c0-1.9,0.6-3.5,1.8-4.8c1.2-1.3,2.8-1.9,4.7-1.9s3.4,0.6,4.6,1.9c1.2,1.3,1.9,2.9,1.9,4.8
		c0,2-0.6,3.6-1.9,4.8c-1.2,1.3-2.8,1.9-4.6,1.9s-3.4-0.6-4.7-1.9C143.2,19.6,142.6,18,142.6,16z M145,16c0,1.4,0.4,2.5,1.2,3.3
		c0.8,0.8,1.8,1.3,2.9,1.3c1.2,0,2.1-0.4,2.9-1.3c0.8-0.8,1.2-1.9,1.2-3.3c0-1.3-0.4-2.4-1.2-3.3c-0.8-0.9-1.8-1.3-2.9-1.3
		s-2.1,0.4-2.9,1.3C145.4,13.6,145,14.7,145,16z"/>
	<path fill="#63666A" d="M159.9,22.3h-2.4V9.7h2.3v2.1h0.1c0.2-0.7,0.7-1.2,1.5-1.7c0.7-0.5,1.5-0.7,2.2-0.7c0.7,0,1.3,0.1,1.7,0.3
		l-0.7,2.3c-0.3-0.1-0.8-0.2-1.4-0.2c-0.9,0-1.7,0.4-2.3,1.1c-0.7,0.7-1,1.6-1,2.5V22.3z"/>
	<path fill="#63666A" d="M171.3,22.7c-1.6,0-3.1-0.7-4.2-2c-1.2-1.3-1.7-2.9-1.7-4.8c0-1.9,0.6-3.4,1.7-4.8c1.2-1.3,2.6-2,4.2-2
		c0.9,0,1.8,0.2,2.5,0.6c0.8,0.4,1.4,0.9,1.8,1.6h0.1l-0.1-1.8V3.9h2.4v18.4h-2.3v-1.7h-0.1c-0.4,0.7-1,1.2-1.8,1.6
		C173.1,22.5,172.3,22.7,171.3,22.7z M171.7,20.6c1.2,0,2.1-0.4,2.9-1.3c0.8-0.8,1.2-1.9,1.2-3.3c0-1.3-0.4-2.4-1.2-3.3
		c-0.8-0.9-1.7-1.3-2.9-1.3c-1.1,0-2.1,0.4-2.9,1.3c-0.8,0.9-1.2,1.9-1.2,3.3c0,1.3,0.4,2.4,1.2,3.3
		C169.6,20.2,170.6,20.6,171.7,20.6z"/>
	<path fill="#63666A" d="M190.4,18.8c0,1.1-0.5,2-1.4,2.8c-1,0.8-2.2,1.1-3.6,1.1c-1.3,0-2.4-0.3-3.3-1c-1-0.7-1.6-1.5-2.1-2.6
		l2.1-0.9c0.3,0.8,0.8,1.3,1.4,1.8s1.2,0.6,1.9,0.6c0.8,0,1.4-0.2,1.9-0.5c0.5-0.3,0.8-0.7,0.8-1.2c0-0.8-0.6-1.4-1.9-1.8l-2.2-0.5
		c-2.5-0.6-3.7-1.8-3.7-3.6c0-1.1,0.5-2.1,1.4-2.8c0.9-0.7,2.1-1,3.6-1c1.1,0,2.1,0.3,3,0.8c0.9,0.5,1.5,1.2,1.9,2.1l-2.1,0.9
		c-0.2-0.5-0.6-0.9-1.2-1.2c-0.5-0.3-1.1-0.5-1.8-0.5c-0.6,0-1.2,0.2-1.7,0.5c-0.5,0.3-0.7,0.7-0.7,1.1c0,0.7,0.7,1.2,2,1.5l1.9,0.5
		C189.2,15.7,190.4,16.9,190.4,18.8z"/>
</g>
</svg>
