<?xml version="1.0" encoding="utf-8"?>
<!-- Generator: Adobe Illustrator 20.1.0, SVG Export Plug-In . SVG Version: 6.00 Build 0)  -->
<svg version="1.1" baseProfile="basic" id="Layer_1"
     xmlns="http://www.w3.org/2000/svg" xmlns:xlink="http://www.w3.org/1999/xlink" x="0px" y="0px" width="111px" height="42px"
     viewBox="0 0 111 42" xml:space="preserve">
<g>
    <path id="path2998_1_" fill="#4285F4" d="M27.3,12.9h-13v3.8h9.2c-0.5,5.4-4.9,7.7-9.2,7.7c-5.4,0-10.1-4.3-10.1-10.2
        c0-5.8,4.5-10.3,10.2-10.3c4.4,0,6.9,2.8,6.9,2.8L24,3.8c0,0-3.5-3.8-9.8-3.8C6.2,0,0,6.8,0,14.1c0,7.2,5.8,14.2,14.4,14.2
        c7.6,0,13.1-5.2,13.1-12.8C27.5,13.8,27.3,12.9,27.3,12.9L27.3,12.9z"/>
    <path id="path3000_1_" fill="#EA4335" d="M37.9,10.1c-5.3,0-9.1,4.2-9.1,9c0,4.9,3.7,9.1,9.2,9.1c5,0,9-3.8,9-9
        C47,13.2,42.3,10.1,37.9,10.1L37.9,10.1z M38,13.6c2.6,0,5.1,2.1,5.1,5.5c0,3.3-2.5,5.5-5.1,5.5c-2.9,0-5.2-2.3-5.2-5.5
        C32.8,16,35,13.6,38,13.6L38,13.6z"/>
    <path id="path3005_1_" fill="#FBBC05" d="M57.7,10.1c-5.3,0-9.1,4.2-9.1,9c0,4.9,3.7,9.1,9.2,9.1c5,0,9-3.8,9-9
        C66.8,13.2,62.1,10.1,57.7,10.1L57.7,10.1z M57.8,13.6c2.6,0,5.1,2.1,5.1,5.5c0,3.3-2.5,5.5-5.1,5.5c-2.9,0-5.2-2.3-5.2-5.5
        C52.6,16,54.9,13.6,57.8,13.6L57.8,13.6z"/>
    <path id="path3007_1_" fill="#4285F4" d="M77.2,10.1c-4.9,0-8.7,4.3-8.7,9.1c0,5.5,4.4,9.1,8.6,9.1c2.6,0,4-1,5-2.2v1.8
        c0,3.1-1.9,5-4.8,5c-2.8,0-4.2-2.1-4.6-3.2L69.2,31c1.2,2.6,3.7,5.3,8.2,5.3c4.9,0,8.5-3.1,8.5-9.5V10.6h-3.8v1.5
        C80.9,10.9,79.3,10.1,77.2,10.1L77.2,10.1z M77.6,13.6c2.4,0,4.8,2,4.8,5.5c0,3.5-2.5,5.5-4.9,5.5c-2.6,0-5-2.1-5-5.5
        C72.5,15.7,75,13.6,77.6,13.6L77.6,13.6z"/>
    <path id="path3011_1_" fill="#EA4335" d="M102.8,10.1c-4.6,0-8.5,3.7-8.5,9.1c0,5.7,4.3,9.1,8.9,9.1c3.8,0,6.2-2.1,7.6-4l-3.1-2.1
        c-0.8,1.3-2.2,2.5-4.4,2.5c-2.6,0-3.7-1.4-4.5-2.8l12.2-5l-0.6-1.5C109.2,12.5,106.5,10.1,102.8,10.1L102.8,10.1z M103,13.5
        c1.7,0,2.9,0.9,3.4,1.9l-8.1,3.4C97.9,16.3,100.4,13.5,103,13.5L103,13.5z"/>
    <path id="path3015_1_" fill="#34A853" d="M88.6,27.7h4V0.9h-4V27.7z"/>
</g>
<g>
    <path fill="#63666A" d="M1.5,41.1H0l3.9-10.5h1.5l3.9,10.5H7.9l-1-2.8H2.5L1.5,41.1z M4.7,32.3L3,37.1h3.5L4.7,32.3L4.7,32.3z"/>
    <path fill="#63666A" d="M13.2,41.4c-0.9,0-1.7-0.4-2.4-1.1c-0.7-0.7-1-1.6-1-2.7c0-1.1,0.3-2,1-2.7c0.7-0.7,1.5-1.1,2.4-1.1
        c0.5,0,1,0.1,1.4,0.3c0.4,0.2,0.8,0.5,1,0.9h0.1l-0.1-1v-3.3H17v10.5h-1.3v-1h-0.1c-0.2,0.4-0.6,0.7-1,0.9
        C14.2,41.3,13.7,41.4,13.2,41.4z M13.4,40.2c0.7,0,1.2-0.2,1.6-0.7c0.4-0.5,0.7-1.1,0.7-1.9c0-0.7-0.2-1.4-0.7-1.9
        c-0.4-0.5-1-0.7-1.6-0.7c-0.6,0-1.2,0.2-1.6,0.7c-0.4,0.5-0.7,1.1-0.7,1.9c0,0.8,0.2,1.4,0.7,1.9C12.2,39.9,12.7,40.2,13.4,40.2z"
        />
    <path fill="#63666A" d="M29.9,30.7h1.4l-2.8,10.5h-1.4l-2.2-6.9h-0.1l-2.2,6.9h-1.4l-2.9-10.5h1.4l2.2,8.2H22l2.3-6.8h1.3l2.3,6.8
        h0.1L29.9,30.7z"/>
    <path fill="#63666A" d="M31.2,37.6c0-1.1,0.3-2,1-2.7c0.7-0.7,1.6-1.1,2.6-1.1s1.9,0.4,2.6,1.1c0.7,0.7,1.1,1.6,1.1,2.7
        c0,1.1-0.4,2-1.1,2.7c-0.7,0.7-1.6,1.1-2.6,1.1s-1.9-0.4-2.6-1.1C31.5,39.6,31.2,38.7,31.2,37.6z M32.5,37.6c0,0.8,0.2,1.4,0.7,1.9
        c0.4,0.5,1,0.7,1.7,0.7c0.7,0,1.2-0.2,1.7-0.7c0.4-0.5,0.7-1.1,0.7-1.9c0-0.8-0.2-1.4-0.7-1.9c-0.5-0.5-1-0.7-1.7-0.7
        s-1.2,0.2-1.7,0.7C32.7,36.2,32.5,36.8,32.5,37.6z"/>
    <path fill="#63666A" d="M41,41.1h-1.3V34h1.3v1.2H41c0.1-0.4,0.4-0.7,0.8-1c0.4-0.3,0.8-0.4,1.2-0.4c0.4,0,0.7,0.1,1,0.2l-0.4,1.3
        c-0.2-0.1-0.4-0.1-0.8-0.1c-0.5,0-0.9,0.2-1.3,0.6c-0.4,0.4-0.6,0.9-0.6,1.4V41.1z"/>
    <path fill="#63666A" d="M47.5,41.4c-0.9,0-1.7-0.4-2.4-1.1c-0.7-0.7-1-1.6-1-2.7c0-1.1,0.3-2,1-2.7c0.7-0.7,1.5-1.1,2.4-1.1
        c0.5,0,1,0.1,1.4,0.3c0.4,0.2,0.8,0.5,1,0.9H50l-0.1-1v-3.3h1.3v10.5H50v-1h-0.1c-0.2,0.4-0.6,0.7-1,0.9
        C48.5,41.3,48,41.4,47.5,41.4z M47.7,40.2c0.7,0,1.2-0.2,1.6-0.7c0.4-0.5,0.7-1.1,0.7-1.9c0-0.7-0.2-1.4-0.7-1.9
        c-0.4-0.5-1-0.7-1.6-0.7c-0.6,0-1.2,0.2-1.6,0.7c-0.4,0.5-0.7,1.1-0.7,1.9c0,0.8,0.2,1.4,0.7,1.9C46.5,39.9,47,40.2,47.7,40.2z"/>
    <path fill="#63666A" d="M58.3,39.2c0,0.6-0.3,1.1-0.8,1.6c-0.5,0.4-1.2,0.6-2.1,0.6c-0.7,0-1.4-0.2-1.9-0.6
        c-0.5-0.4-0.9-0.9-1.2-1.5l1.2-0.5c0.2,0.4,0.4,0.8,0.8,1c0.3,0.2,0.7,0.4,1.1,0.4c0.4,0,0.8-0.1,1.1-0.3c0.3-0.2,0.4-0.4,0.4-0.7
        c0-0.5-0.4-0.8-1.1-1l-1.2-0.3c-1.4-0.4-2.1-1-2.1-2c0-0.7,0.3-1.2,0.8-1.6s1.2-0.6,2-0.6c0.6,0,1.2,0.2,1.7,0.5
        c0.5,0.3,0.9,0.7,1.1,1.2L57,35.9c-0.1-0.3-0.4-0.5-0.7-0.7C56,35,55.7,35,55.3,35c-0.4,0-0.7,0.1-0.9,0.3
        c-0.3,0.2-0.4,0.4-0.4,0.6c0,0.4,0.4,0.7,1.2,0.9l1.1,0.3C57.6,37.4,58.3,38.1,58.3,39.2z"/>
</g>
</svg>
