<svg xmlns="http://www.w3.org/2000/svg" width="166.655" height="53.763" viewBox="0 0 166.655 53.763"><path fill="#0087CA" d="M82.42 27.662v2.975c0 7.118-3.148 11.003-12.496 11.003H58.766a.276.276 0 0 1-.273-.274V16.734c0-.15.125-.274.273-.274h11.162c9.195 0 12.493 4.003 12.493 11.202zm80.485-11.64l-5.17.838a.272.272 0 0 0-.228.272v19.844c0 4.25 3.833 5.563 8.382 4.468.18-.042.362-.086.544-.123a.274.274 0 0 0 .217-.317l-.505-2.73c-.018-.095-.102-.12-.173-.12-2.18 0-2.746.03-2.746-1.178v-20.68a.26.26 0 0 0-.096-.208.28.28 0 0 0-.225-.064zm-27.303 18.062V29.71c0-4.25-2.868-6.565-9.062-6.367-6.19.195-8.61.687-8.61 5.748v19.395c0 .086.03.156.094.21.062.054.14.075.222.063l5.17-.835a.273.273 0 0 0 .228-.273v-3.846c0-.755-.526-1.352-.483-2.455 1.648.52 3.558.7 5.784.646 2.567-.06 6.658-1.39 6.658-7.912zm-11.958 4.232V29.09c0-1.805.105-2.312 2.978-2.312s3.263 1.695 3.263 2.93v5.213c0 2.77-.928 3.796-3.368 3.786-1.234-.006-1.876-.2-2.873-.39zm-20.587-14.964l-5.174.835a.272.272 0 0 0-.227.27v11.858c0 4.25 3.872 5.682 8.378 5.76 4.508.077 8.93-1.21 8.93-5.76V23.622c0-.084-.032-.154-.097-.21s-.142-.075-.22-.063l-5.17.837a.273.273 0 0 0-.233.27v11.858c0 1.257-.672 2.313-2.974 2.313-2.306 0-2.898-1.077-2.898-2.313V23.622a.262.262 0 0 0-.097-.21.26.26 0 0 0-.218-.06zm39.75 12.024v1.732c0 1.7 3.114 1.678 4.814 1.676.923 0 1.293-.35 1.293-1.292v-3.924c0-.08-.03-.147-.087-.2a.27.27 0 0 0-.21-.075c-2.018.15-5.81.22-5.81 2.083zm-5.6 1.732v-1.732c0-4.202 6.98-4.842 11.46-5.246a.27.27 0 0 0 .25-.27v-.985c0-1.025-.376-1.848-1.842-1.997-2.58-.262-4.134.104-7.655.88a.272.272 0 0 1-.322-.197l-.652-2.44a.27.27 0 0 1 .172-.327c2.164-.805 5.035-1.536 8.225-1.362 3.11.168 7.596-.05 7.596 5.445v8.614c0 3.756-2.69 4.42-8.562 4.49-4.448.05-8.67-1.538-8.67-4.872zm-46.35 4.458h-5.174a.278.278 0 0 1-.277-.276V25.733a.25.25 0 0 1 .04-.138c.794-1.35 5.612-2.04 10.25-1.97.152 0 .272.125.272.276v3.083c0 .08-.03.146-.086.198a.273.273 0 0 1-.203.077c-2.748-.147-4.36.154-4.54.748a.222.222 0 0 0-.012.08V41.29a.27.27 0 0 1-.27.276zM76.194 30.64v-2.977c0-5.502-1.782-7.086-6.267-7.086h-5.21v17.15h5.206c5.27-.003 6.27-2.68 6.27-7.088z"/><path fill="#006AA6" d="M21.334 2.43c-.166 1.553-.332 3.1-1.344 4.244-1.998 2.252-4.707 3.636-6.914 4.724C7.456 14.163.99 20.608.99 30.904c0 4.987 1.924 10.353 5.553 14.487 3.863 4.4 9.643 7.414 16.506 7.38 6.132-.03 11.17-2.033 14.96-5.303 4.426-3.825 7.096-9.443 7.096-16.563 0-5.246-1.56-9.792-4.41-13.272-5.617-6.86-10.147-7.464-13.014-9.1-2.05-1.168-3.946-3.23-6.348-6.103z"/><path fill="#0087CA" d="M19.654 41.326c11.207-4.02 19.19-12.673 21.937-22.342-.313-.466-.65-.917-1.005-1.35-5.615-6.86-10.146-7.465-13.013-9.1-2.05-1.17-3.945-3.23-6.35-6.104-.164 1.554-.33 3.1-1.342 4.244-1.997 2.253-4.707 3.636-6.916 4.724C7.344 14.164.882 20.608.882 30.905c0 4.257 1.412 8.785 4.08 12.593 4.77.272 9.775-.408 14.692-2.172z"/><path fill="#B0D6EA" d="M22.014 2.704c1.19 2.008 1.36 4.795 0 5.822-.646.488-.505.745-.258.952.49.41.135 1.234-.404 2.016-3.02 4.375-8.945 7.862-12.5 9.436-.95.42-2.762.982-3.307.403-1.377-1.465 1.108-3.785 2.5-5.872l11.032-7.983 2.937-4.773z"/><path fill="#FFF" d="M21.982 2.123c1.542 3.493 1.43 5.55-2.09 7.16-.113.052-.375.288.078.377 1.336.266-.445 2.327-1.217 3.044-.887.825-2.08 2.058-5.055 4.05-2.974 1.994-6.18 3.365-7.017 2.804-1.47-.99-1.404-3.25 1.224-4.54 12.12-5.95 14.078-12.895 14.078-12.895z"/><path fill="#05598E" d="M22.937 53.763c-6.682 0-12.77-2.742-17.138-7.718C2.114 41.848 0 36.33 0 30.905c0-10.453 6.53-17.39 12.638-20.396 1.857-.916 4.665-2.3 6.61-4.494.807-.91.95-2.26 1.1-3.69L20.594 0l1.5 1.793c2.443 2.922 4.22 4.82 6.078 5.88.615.35 1.328.657 2.15 1.01 2.816 1.21 6.67 2.864 11.14 8.322 3.033 3.705 4.636 8.51 4.636 13.9 0 7.12-2.572 13.106-7.443 17.312-4.166 3.598-9.56 5.515-15.6 5.543l-.118.003zm-.945-49.036c-.215.927-.578 1.832-1.262 2.603-2.202 2.487-5.22 3.972-7.217 4.956-5.575 2.743-11.53 9.075-11.53 18.618 0 4.95 1.933 9.992 5.305 13.834 3.986 4.54 9.544 7.042 15.648 7.042h.106c5.562-.027 10.514-1.777 14.316-5.062 4.422-3.82 6.758-9.287 6.758-15.814 0-4.926-1.448-9.298-4.188-12.645-4.164-5.084-7.613-6.566-10.387-7.756-.843-.363-1.64-.705-2.353-1.11-1.708-.976-3.287-2.488-5.195-4.667z"/><path fill="#FFF" d="M31.054 36.784c-3.1-.02-6.153-5.44-12.346-5.584-4.66-.11-8.327 3.795-8.247 7.553.1 4.51 3.286 5.588 6.245 5.632 5.805.086 10.97-5.847 14.494-5.906 2.677-.047 5.392 5.556 7.824 5.743 2.806.217 4.897-5.214 4.714-8.505-.123-2.192-1.382-3.768-3.02-3.728-3.064.074-6.632 4.814-9.664 4.794zm-5.37 7.234c1.34-1.332 2.76-2.12 4.355-2.08 2.548.063 2.657.66 3.395 2.153a.715.715 0 0 1-.033.717c-.052.084-.344.364-.443.364-.245 0-.335-.087-.435-.34-.607-1.516-1.51-1.522-2.646-1.523-1.752 0-2.517.855-3.548 1.71-.258.212-.5.372-.695.21-.156-.132-.284-.315-.28-.453.005-.324.098-.526.328-.756zm-3.538 3.62c1.375 1.27 7.87 2.335 11.774-.29.142-.097.327-.16.487-.092.118.05.19.115.205.25.026.22.04.552-.13.694-2.71 2.262-10.04 3.55-13.526.673-.344-.284-.356-.712-.13-.96.17-.183.317-.27.522-.386.254-.147.58-.09.798.112z"/></svg>