<svg xmlns="http://www.w3.org/2000/svg" width="158.001" height="38.293" viewBox="0 0 158.001 38.293"><g fill="#004687"><circle cx="10.991" cy="19.216" r="4.326"/><path d="M41.486 9.75H35.46a5.675 5.675 0 0 0-5.675 5.673v8.084a5.673 5.673 0 0 0 5.674 5.672h6.026c3.13 0 5.673-2.54 5.673-5.673v-8.084a5.675 5.675 0 0 0-5.674-5.674zm2.2 15.105c0 .47-.382.85-.852.85H34.11a.85.85 0 0 1-.85-.85v-10.78c0-.47.38-.85.85-.85h8.724c.47 0 .852.38.852.85v10.78zM94.482 13.012h-4.11a5.673 5.673 0 0 0-5.675 5.673v8.935h.027l-.002.005a1.738 1.738 0 0 0 3.476 0V17.018c0-.47.38-.852.852-.852h6.73c.468 0 .85.38.85.852v10.398a1.737 1.737 0 1 0 3.464.203h.067v-8.936a5.68 5.68 0 0 0-5.678-5.672zM71.81 16.072h6.977c.04 0 .08.01.118.01h1.892a1.75 1.75 0 0 0 0-3.498H72.62c-.065 0-.128.004-.19.01a5.666 5.666 0 0 0-5.46 5.664v5.248a5.67 5.67 0 0 0 5.675 5.672h4.113v-.094h4.04a1.75 1.75 0 0 0 0-3.497h-8.16a.587.587 0 0 1-.086-.043h-.74a1.49 1.49 0 0 1 0-2.983H80.8a1.748 1.748 0 0 0 0-3.497h-8.69v-.008h-.297a1.492 1.492 0 1 1-.002-2.983zM59.512 12.792h-8.2a1.744 1.744 0 1 0-.233 3.47h.015v.005h9.764c.47 0 .852.38.852.85v7.66c0 .47-.38.85-.853.85h-9.765v.01h-.038c-.95 0-1.722.77-1.722 1.72 0 .037.004.074.006.11 0 .04-.005.075-.005.112v4.933a1.75 1.75 0 0 0 3.496 0v-3.41h6.68a5.672 5.672 0 0 0 5.673-5.673v-4.965a5.672 5.672 0 0 0-5.67-5.673z"/></g><g fill="#C1002B"><path d="M135.283 13.06c-.237 0-.56-.048-.863-.048h-9.158a5.672 5.672 0 0 0-5.672 5.673v8.935h.024v.005a1.736 1.736 0 0 0 3.473 0V17.018c0-.47.384-.852.853-.852h3.61c.473 0 .854.38.854.852 0 0 .006 10.825.016 10.882a1.737 1.737 0 0 0 3.465-.17V17.125c0-.47.382-.85.854-.85h3.61c.47 0 .85.38.85.85v10.4a1.74 1.74 0 1 0 3.465.203l.065-8.935c-.007-3.056-2.423-5.61-5.447-5.732zM106.353 13.224h9.76v-.008h.042a1.722 1.722 0 0 0 0-3.443h-.04V9.75h-8.416a5.674 5.674 0 0 0-5.673 5.673v8.084a5.67 5.67 0 0 0 5.672 5.672h8.197a1.744 1.744 0 1 0 .235-3.47h-.02v-.003h-9.76a.852.852 0 0 1-.854-.85V14.074c0-.47.383-.85.855-.85zM153.367 19.493v-.03h-5.908a1.512 1.512 0 0 1 0-3.024h7.067c.04 0 .082.007.12.01h1.38v-.007l.037.002a1.688 1.688 0 0 0 0-3.376h-.036v-.026H147.315a4.73 4.73 0 0 0 0 9.457h5.767a1.508 1.508 0 0 1-.063 3.017h-4.193v.02h-4.243v.01h-.035a1.688 1.688 0 0 0 0 3.374h.034v.026h8.69a4.73 4.73 0 0 0 4.728-4.73 4.726 4.726 0 0 0-4.635-4.723zM39.102 30.446c-.445 0-.853.166-1.162.438l-.005-.005a15.537 15.537 0 0 1-10.28 3.868c-4.8 0-9.096-2.177-11.96-5.593 3.718-1.764 6.29-5.55 6.29-9.937 0-4.42-2.61-8.23-6.375-9.975 2.86-3.477 7.193-5.698 12.046-5.698A15.52 15.52 0 0 1 37.95 7.43l.018-.02a1.77 1.77 0 1 0 2.02-2.9A19.07 19.07 0 0 0 27.654 0c-6.53 0-12.3 3.272-15.753 8.268-.3-.025-.604-.04-.91-.04C4.92 8.227 0 13.147 0 19.217S4.92 30.21 10.99 30.21c.342 0 .678-.018 1.008-.05 3.465 4.92 9.187 8.133 15.657 8.133a19.07 19.07 0 0 0 12.47-4.625 1.774 1.774 0 0 0-1.023-3.222zm-28.11-3.783a7.447 7.447 0 0 1 0-14.893 7.446 7.446 0 0 1 7.445 7.447 7.445 7.445 0 0 1-7.446 7.446z"/></g></svg>