<svg xmlns="http://www.w3.org/2000/svg" width="156.414" height="39.479" viewBox="0 0 156.414 39.479"><g fill="#690"><path d="M127.114 6.723h4.337V24.65h-4.336zM127.114.048h4.337v3.625h-4.336zM18.846 6.484c-2.053 0-3.883.85-5.098 2.186-1.172-1.335-2.938-2.186-4.916-2.186a6.54 6.54 0 0 0-4.492 1.75v-1.51H0V24.65h2.445c0 .03.004.064.004.095h2.043V13.53a2.996 2.996 0 0 1 5.99 0v11.215h4.502V13.53a2.995 2.995 0 0 1 5.99 0v11.215h4.493c.003-.063.006-.126.006-.19V12.54c0-3.345-2.97-6.056-6.628-6.056zM88.36 6.484c-1.85 0-3.21.695-4.353 1.812v-1.48H71.086c-2.152-.52-4.744-.81-7.662-.81-8.925 0-17.88 3.932-17.88 7.724 0 2.208 1.194 4.173 3.954 5.43l-.01.005c-3.6 1.198-5.584 2.238-6.518 3.128V12.84h-.002c-.012-3.652-1.925-6.326-7.674-6.516h-.384c-2.507 0-4.732 1.008-6.132 2.59l2.938 2.814h.01c.52-.884 1.74-1.51 2.713-1.51h1.823c1.045 0 1.93.726 2.205 1.72l.083.002v2.155h-5.596c-2.815 0-5.098 2.37-5.098 5.292s2.283 5.29 5.098 5.29h2.795c1.032 0 2.35-.707 2.8-1.68v1.698h4.41c1.3 1.047 4.084 1.612 4.816 1.748-7.885 1.35-14.097 4.02-13.96 6.454.208 3.786 8.01 6.674 17.425 6.58 11.954-.123 25.382-1.717 26.147-7.82.326-2.593-3.286-4.505-9.457-5.445a9.24 9.24 0 0 0-.7-.102c-.802-.11-1.643-.204-2.522-.28-7.598-.877-19.514-2.606-12.564-5.804 1.613.366 3.55.57 5.844.57 8.93 0 19.31-2.003 19.883-8.104.128-1.35-.538-2.56-1.856-3.56h3.656v15.812h4.45V13.53c0-1.652 1.437-2.995 3.09-2.995a2.996 2.996 0 0 1 2.996 2.995v11.214h4.4c0-.063.003-.126.003-.19V12.54c-.003-3.345-2.59-6.056-6.25-6.056zM38.3 19.062c0 1.11-.868 2.01-1.937 2.01H34.18c-1.07 0-1.937-.9-1.937-2.01 0-1.11.866-2.01 1.938-2.01h4.126l-.007 2.01zm14.557 8.243c11.57.635 17.225 2.732 16.91 5.22-.505 4.02-9.35 4.88-17.223 4.96-6.205.063-11.26-1.853-11.385-4.715-.103-2.263 6.04-4.894 11.697-5.465zm17.108-14.797c-.292 3.116-4.31 6.698-10.15 6.33-6.926-.434-6.545-3.666-6.545-5.603 0-1.936 2.954-5.298 9.32-5.47 5.08-.137 7.555 2.816 7.375 4.743zM105.24 6.357a7.5 7.5 0 0 0-7.5 7.502v3.623a7.5 7.5 0 0 0 15.002 0V13.86a7.5 7.5 0 0 0-7.503-7.503zm2.926 11.32c0 1.758-1.31 3.18-2.927 3.18-1.613 0-2.924-1.422-2.924-3.18v-4.015c0-1.756 1.31-3.18 2.923-3.18 1.615 0 2.926 1.425 2.926 3.18v4.016zM120.72 19.61V0h-4.448v19.815a4.947 4.947 0 0 0 4.946 4.946h2.903v-3.876h-2.123a1.275 1.275 0 0 1-1.276-1.275zM141.812 6.325h-.384c-2.507 0-4.733 1.008-6.132 2.59l2.938 2.813h.012c.52-.883 1.738-1.51 2.71-1.51h1.825c1.048 0 1.93.727 2.206 1.72l.084.002v2.154h-5.596c-2.817 0-5.102 2.37-5.102 5.292 0 2.923 2.284 5.292 5.102 5.292h2.794c1.032 0 2.35-.708 2.802-1.682v1.7h4.417V12.838c-.012-3.65-1.926-6.322-7.675-6.513zm3.002 12.737c0 1.11-.866 2.01-1.938 2.01h-2.182c-1.068 0-1.936-.9-1.936-2.01 0-1.11.867-2.01 1.936-2.01h4.126l-.006 2.01z"/></g><path fill="#690" d="M150.927 5.26v-.014c0-1.493 1.212-2.744 2.75-2.744s2.737 1.235 2.737 2.73v.014a2.75 2.75 0 0 1-2.75 2.744 2.724 2.724 0 0 1-2.737-2.73zm5.167-.014V5.23c0-1.342-1.037-2.425-2.416-2.425-1.39 0-2.434 1.1-2.434 2.44v.015c0 1.34 1.04 2.424 2.42 2.424 1.385 0 2.43-1.098 2.43-2.438zm-3.553-1.538h1.297c.395 0 .696.113.903.318.158.158.242.38.242.636v.015c0 .47-.257.766-.63.902l.712 1.045h-.75l-.62-.94h-.507v.94h-.647V3.708zm1.29 1.424c.326 0 .5-.175.5-.416V4.7c0-.28-.197-.424-.518-.424h-.627v.855h.644z"/></svg>