<svg xmlns="http://www.w3.org/2000/svg" width="57.93" height="57.93" viewBox="0 0 57.93 57.93"><path fill="#F4D80C" d="M48.318 0H9.608C4.304 0 0 4.303 0 9.61v38.71c0 5.307 4.303 9.61 9.61 9.61h38.708c5.307 0 9.61-4.304 9.61-9.61V9.61C57.93 4.303 53.626 0 48.32 0zm4.438 42.025v6.295a4.44 4.44 0 0 1-4.438 4.438H9.608c-2.448 0-4.438-1.99-4.438-4.438V14.57h47.586v27.455z"/><path fill="#FFF" d="M10.81 7.987a2.5 2.5 0 0 1-5 0 2.5 2.5 0 0 1 5 0zM18.06 7.987a2.5 2.5 0 0 1-5 0 2.5 2.5 0 0 1 5 0zM52.31 7.987a2.5 2.5 0 0 1-2.5 2.5H22.56a2.5 2.5 0 0 1 0-5h27.25a2.5 2.5 0 0 1 2.5 2.5z"/><g fill="#F4D80C"><path d="M9.164 32.42c0-3.908 2.954-6.577 6.767-6.577 2.803 0 4.423 1.525 5.318 3.107l-2.325 1.144c-.534-1.03-1.677-1.85-2.992-1.85-2.306 0-3.983 1.773-3.983 4.175s1.678 4.173 3.984 4.173c1.316 0 2.46-.8 2.993-1.848l2.325 1.124c-.916 1.58-2.516 3.125-5.317 3.125-3.812 0-6.766-2.668-6.766-6.576zM33.92 38.766v-8.9l-3.582 8.9h-1.183l-3.583-8.9v8.9h-2.706V26.053h3.792l3.09 7.682 3.086-7.682h3.812v12.713H33.92zM38.3 36.975l1.47-2.06a5.57 5.57 0 0 0 4.04 1.717c1.485 0 2.21-.686 2.21-1.41 0-2.25-7.318-.707-7.318-5.49 0-2.115 1.83-3.87 4.822-3.87 2.02 0 3.697.61 4.955 1.773l-1.506 1.982c-1.03-.953-2.402-1.39-3.697-1.39-1.163 0-1.812.514-1.812 1.276 0 2.02 7.3.667 7.3 5.413 0 2.326-1.658 4.08-5.09 4.08-2.44 0-4.193-.82-5.374-2.02z"/></g></svg>