<svg xmlns="http://www.w3.org/2000/svg" width="67.563" height="67.564" viewBox="0 0 67.563 67.564"><circle fill="#98D7FA" cx="34.115" cy="33.449" r="33.782"/><path fill-rule="evenodd" clip-rule="evenodd" fill="#5FA642" d="M12.31 40.052a2.633 2.633 0 0 0-.615-.15c-.227-.03-.395-.037-.55 0-.46.134-.49.614.757 1.364.335.445.94.852 1.516.63.334-.948-.36-1.524-1.106-1.782 0-.062.004-.043 0-.062zM17.533 30.484c.055.05.09.127.14.135h.07c.336.095.663-.245.407-.267-.1-.017-.295.01-.617.13zM25.357 27.535c-.534.09-.663.448.486 1.238.143-.04 1.132-.262.55.336 1.788-1.065-.123-1.737-1.036-1.575zM25.357 19.904c1.924-.782 2.367-5.846.076-5.697-.147 0-.296.074-.483.144.958 1.77-1.253 4.017.407 5.554zM47.43 24.1c.152-1.057-1.527-1.834-2.284-1.792-.44.03-.526.346.288 1.105-.762 1.8 1.267 1.895 1.996.686zM30.24 10.916c.555-.26.82-1.18 0-1.18-.148-.04-.26-.077-.408-.07-.148.006-.297.058-.405.07-1.622.324-1.128 3.013.813 1.18z"/><path fill-rule="evenodd" clip-rule="evenodd" fill="#5FA642" d="M32.512 10.287c-2.346.297-4.713 2.563-2.53 4.807 1.562 1.95-2.257 5.932 1.367 6.955 1.437-3.22 5.373-5.77 4.4-9.69-.407-1.676-1.822-2.252-3.238-2.073z"/><path fill="#5FA642" d="M28.464 56.74c-3.475-2.308-5.99-5.84-9.902-7.56-3.185-3.09-10.364-1.17-10.234-7.014.332-2.776-1.896-4.116-3.568-5.42-1.286-4.297 6.55-5.877 6.663-1.17 2.58-.136 3.484-4.636 6.463-5.286 1.534-1.332 5.686.1 4.184-2.62 1.484-1.41 5.84-1.362 3.71-4.663-.716-3.217-4.67-4.77-5.97-1.108-3.58.958-2.137-6.807 1.505-5.772 2.64.153 2.28-2.143.682-2.88 0-.113-.036-.176-.136-.075-.292-.108-.6-.222-.96-.204-3.57-1.974 3.573-7.004-1.16-8.597C14.548 8.807 6.628 15.787 3.457 22.308c-1.432 4.09-1.192 8.207-1.026 12.507 1.453 4.164 4.277 7.6 6.525 11.332 1.44 1.803.747 3.877.638 5.85-.038.013.018.06.018.07-.073 1.195.114 2.334 1.125 3.36 1.76 2.27 4.32 4.067 5.568 6.683a33.497 33.497 0 0 0 9.224 3.978c.357-.162 1.085-.375 3.694-.625v-.07c0-.78 3.608-1.924 5.392-3.245 2.964-3.583-3.17-6.445-6.148-5.408zM59.858 55.297c5.005-5.894 8.038-13.51 8.038-21.848 0-.932-.064-1.847-.14-2.76-.024-.23-.04-.46-.067-.685-1.93 1.056-5.364-4.754-1.853-1.992.686-.048 1.118-.244 1.443-.54-.406-2.118-.955-4.17-1.727-6.126-.346-.41-.677-.793-.96-1.025.024-.423-.02-.83-.068-1.235-.018-.022.02-.052 0-.074C59.02 7.68 47.395-.147 33.955-.147c-.917 0-1.85.057-2.754.132-.47.1-.987.162-1.517.21-.18.017-.36.04-.54.07-1.897.265-3.71.597-5.49 1.16 4.646-.34 9.413-.218 13.602 1.86 1.107 3.56 7.736.07 7.417 4.046.053.06.152.15.21.216-.105.077.076.802.21.196 1.145 1.296 3.557 3.985 1.025 3.65-3.355-.46-2.482 6.15-.066 7.35 2.304 1.24 3.6-1.25 1.233-2.472-.32-3.1 5.165 1.903 2.744 3.562-.096.066-.174.144-.268.213.11-.444-.16-.025-.152.075-2.752 1.995-1.183 6.69-2.252 9.82-1.906 4.23 4.767 2.367 3.77-.963-1.22-3.064 5.076-1.667 3.715-3.846 3.818 2.026 3.458-3.412 1.863-5.228.744-2.907 2.706.34 1.777 1.924.15 1.5 1.443 1.843 2.48 2.27.046.036.1.04.203.066.905.432 1.45.987.47 2.69-1.12 3.78-4.923 3.99-8.03 3.29-3.144 1.302-3.728 5.122-5.5 7.692-1.76 3.212-3.223 7.945-.064 10.786 3.022 2.902 6.497.384 9.003-1.58 4.804-.625 5.244 5.033 2.88 7.913-.026.135-.046.235-.065.344z"/><path opacity=".3" d="M55.81 19.45H39.066v-5.61a.773.773 0 0 0-.772-.77h-7.973a.772.772 0 0 0-.77.77v5.61H12.42a4.277 4.277 0 0 0-4.275 4.275v24.33a4.276 4.276 0 0 0 4.276 4.276H55.81a4.273 4.273 0 0 0 4.272-4.274v-24.33a4.275 4.275 0 0 0-4.273-4.276zM40.063 22.8a1.82 1.82 0 0 1 0 3.638h-.997v-3.624l.73-.014h.267zm-11.9 0h1.387v3.638h-1.386a1.82 1.82 0 1 1 0-3.638z"/><g><path fill="#FF5148" d="M55.81 17.386H12.422a4.277 4.277 0 0 0-4.276 4.276v24.33a4.275 4.275 0 0 0 4.276 4.275H55.81a4.273 4.273 0 0 0 4.272-4.275v-24.33a4.275 4.275 0 0 0-4.273-4.276zm-15.746 6.988h-11.9a1.82 1.82 0 0 1 0-3.638h11.9a1.82 1.82 0 0 1 0 3.638z"/><path fill="#EFEFEF" d="M56.854 43.04a4.277 4.277 0 0 1-4.277 4.274H15.652a4.276 4.276 0 0 1-4.275-4.275V32.13a4.275 4.275 0 0 1 4.275-4.274h36.924a4.277 4.277 0 0 1 4.277 4.274V43.04z"/><path fill="#29353F" d="M25.182 32.68a.976.976 0 0 0-1.18.662l-1.5 5.23-1.5-5.23c-.123-.427-.53-.686-.965-.674-.435-.012-.843.248-.965.674l-1.5 5.23-1.502-5.23a.972.972 0 0 0-1.178-.662.917.917 0 0 0-.663 1.142l2.376 8.284c.122.43.53.688.965.673.436.015.844-.245.967-.674l1.5-5.23 1.5 5.23c.123.43.53.688.965.673.435.015.842-.245.966-.674l2.375-8.284a.917.917 0 0 0-.66-1.142zM39.454 32.68a.976.976 0 0 0-1.18.662l-1.5 5.23-1.5-5.23c-.124-.427-.53-.686-.966-.674-.436-.012-.842.248-.966.674l-1.5 5.23-1.5-5.23a.974.974 0 0 0-1.18-.662.918.918 0 0 0-.662 1.142l2.376 8.284c.122.43.53.688.966.673.435.015.843-.245.966-.674l1.5-5.23 1.5 5.23c.123.43.53.688.967.673.434.015.842-.245.964-.674l2.375-8.284a.917.917 0 0 0-.66-1.142zM53.34 32.68a.976.976 0 0 0-1.182.662l-1.5 5.23-1.5-5.23c-.124-.427-.53-.686-.967-.674-.434-.012-.84.248-.963.674l-1.5 5.23-1.5-5.23a.975.975 0 0 0-1.18-.662.92.92 0 0 0-.663 1.142l2.377 8.284c.123.43.53.688.966.673.434.015.843-.245.965-.674l1.5-5.23 1.503 5.23c.12.43.53.688.966.673.432.015.84-.245.963-.674L54 33.822a.917.917 0 0 0-.66-1.142z"/><path opacity=".4" d="M38.36 20.762l1.44-.026.795-3.35-2.783.013z"/><path fill="#29353F" d="M39.067 24.378v-12.6a.772.772 0 0 0-.772-.772h-7.973a.77.77 0 0 0-.77.77V24.38h9.515z"/><path opacity=".1" fill="#FFF" d="M38.575 11.956c0 .22-.177.397-.396.397h-7.77a.397.397 0 0 1 0-.795h7.77c.218 0 .395.178.395.398z"/><path opacity=".1" d="M55.81 17.386L12.422 50.268H55.81a4.273 4.273 0 0 0 4.272-4.275v-24.33a4.275 4.275 0 0 0-4.273-4.277z"/></g></svg>