<svg xmlns="http://www.w3.org/2000/svg" width="77.666" height="77.667" viewBox="0 0 77.666 77.667"><path fill="#FF5046" d="M38.98 5.975c18.03 0 32.654 14.623 32.654 32.656 0 18.037-14.623 32.657-32.655 32.657-18.04 0-32.66-14.62-32.66-32.656C6.32 20.6 20.94 5.976 38.98 5.976z"/><circle fill="#FBFBFB" cx="38.998" cy="38.546" r="25.923"/><path fill="#FF5046" d="M38.98 19.36c10.668 0 19.32 8.65 19.32 19.32 0 10.672-8.652 19.323-19.32 19.323-10.675 0-19.326-8.65-19.326-19.324 0-10.67 8.65-19.32 19.325-19.32z"/><path fill="#FBFBFB" d="M38.98 27.304c6.28 0 11.374 5.095 11.374 11.375 0 6.283-5.095 11.377-11.375 11.377-6.284 0-11.38-5.094-11.38-11.378 0-6.28 5.095-11.376 11.38-11.376z"/><path fill="#FF5046" d="M38.98 32.515a6.163 6.163 0 0 1 6.16 6.164 6.165 6.165 0 0 1-12.327 0 6.164 6.164 0 0 1 6.166-6.165z"/><path opacity=".3" d="M58.46 20.687L38.386 39.232l21.667 24.336c7.08-5.99 11.58-14.935 11.58-24.937 0-5.037-1.145-9.808-3.18-14.067l-2.617-2.555-7.378-1.32z"/><path fill="#00D579" d="M58.77 14.08l1.53 5.672-7.733 6.892-1.53-5.674z"/><path fill="#009B54" d="M65.837 22.008l-5.46-2.172-7.733 6.89 5.46 2.174z"/><path fill="#FFD700" d="M60.1 19.002l.23.817.785.322-21.65 19.295-1.014-1.142z"/><circle fill="#FFD700" cx="39.08" cy="38.77" r=".773"/></svg>