<svg xmlns="http://www.w3.org/2000/svg" width="77.666" height="77.667" viewBox="0 0 77.666 77.667"><path fill="#0084FD" d="M69.503 28.355c0-6.682-1.184-12.2-3.274-16.68a46.958 46.958 0 0 1-3.63.146c-10.122 0-18.997-3.208-23.966-8.024-4.972 4.816-13.846 8.025-23.973 8.025-1.228 0-2.436-.054-3.627-.145-2.09 4.48-3.273 9.998-3.273 16.68 0 22.89 18.773 43.07 30.874 43.07 12.95 0 30.87-20.18 30.87-43.07z"/><path fill="#ACEEFF" d="M38.634 18.026c-10.82 0-19.59 8.77-19.59 19.586 0 10.816 8.77 19.585 19.59 19.585 10.815 0 19.585-8.77 19.585-19.585 0-10.818-8.77-19.586-19.586-19.586zM21.842 38.812h6.852c.064 2.03.293 3.975.66 5.79H23.32a16.672 16.672 0 0 1-1.476-5.79zM40 27.67v-6.34c1.82.782 3.403 3.1 4.474 6.34H40zm5.208 2.734c.375 1.74.612 3.657.694 5.677H40v-5.676h5.208zm-7.94-9.072v6.338h-4.48c1.072-3.24 2.656-5.557 4.48-6.338zm0 9.072v5.677h-5.906c.082-2.02.32-3.935.693-5.676h5.213zm-8.56 5.677h-6.842c.185-2.018.72-3.93 1.548-5.676h5.983a34.7 34.7 0 0 0-.688 5.677zm2.64 2.732h5.92v5.79H32.01a34.296 34.296 0 0 1-.66-5.79zm5.92 8.52v6.56c-1.863-.8-3.478-3.206-4.55-6.56h4.55zM40 53.893v-6.56h4.547c-1.075 3.354-2.685 5.76-4.547 6.56zm0-9.29v-5.79h5.91a34.105 34.105 0 0 1-.655 5.79H40zm8.568-5.79h6.854a16.76 16.76 0 0 1-1.474 5.79H47.91c.364-1.815.596-3.76.658-5.79zm-.01-2.73a35.39 35.39 0 0 0-.69-5.678h5.98a16.627 16.627 0 0 1 1.55 5.677h-6.84zm3.658-8.413H47.16c-.734-2.35-1.72-4.37-2.886-5.925a16.857 16.857 0 0 1 7.942 5.924zm-19.223-5.924C31.825 23.3 30.837 25.32 30.1 27.67h-5.055a16.865 16.865 0 0 1 7.948-5.924zM24.89 47.333h5.146c.743 2.443 1.753 4.542 2.954 6.143a16.875 16.875 0 0 1-8.1-6.143zm19.384 6.143c1.203-1.6 2.213-3.7 2.953-6.143h5.148a16.863 16.863 0 0 1-8.1 6.143z"/><path opacity=".2" fill="#010000" d="M66.23 11.675a46.958 46.958 0 0 1-3.63.146c-10.067 0-18.895-3.175-23.88-7.944v67.542c13.147 0 30.783-20.278 30.783-43.063 0-6.682-1.184-12.2-3.274-16.68z"/></svg>