<?xml version="1.0" encoding="utf-8"?>
<!-- Generator: Adobe Illustrator 20.0.0, SVG Export Plug-In . SVG Version: 6.00 Build 0)  -->
<svg version="1.1" baseProfile="basic" id="Слой_1"
	 xmlns="http://www.w3.org/2000/svg" xmlns:xlink="http://www.w3.org/1999/xlink" x="0px" y="0px" width="48px" height="48px"
	 viewBox="0 0 48 48" xml:space="preserve">
<g>
	<circle fill="#FF8200" cx="24" cy="24" r="24"/>
	<path opacity="0.3" fill="#100030" d="M8.6,25.7C12.2,31.9,11,38,24,38c12.3,0,11.3-8.7,15.4-12.2V5.6C35.3,2.1,29.9,0,24,0
		S12.7,2.1,8.6,5.6V25.7z"/>
	<path fill="#FFAA52" d="M24,8.6C15.5,8.6,8.6,15.5,8.6,24S15.5,39.4,24,39.4c8.5,0,15.4-6.9,15.4-15.4S32.5,8.6,24,8.6z"/>
	<g>
		<path fill="#FFFFFF" d="M18.8,16.7v14.4h-3.5V16.7H18.8z"/>
		<path fill="#FFFFFF" d="M29.2,16.7c1,0,1.9,0.2,2.6,0.5c0.7,0.3,1.3,0.7,1.7,1.2c0.4,0.5,0.8,1.1,1,1.7c0.2,0.6,0.3,1.3,0.3,2
			c0,0.7-0.1,1.3-0.3,2c-0.2,0.7-0.5,1.2-1,1.7c-0.4,0.5-1,0.9-1.7,1.2c-0.7,0.3-1.6,0.5-2.6,0.5h-3.7v3.7h-3.5V16.7H29.2z
			 M28.2,24.6c0.4,0,0.8,0,1.2-0.1c0.4-0.1,0.7-0.2,1-0.4c0.3-0.2,0.5-0.4,0.7-0.8c0.2-0.3,0.3-0.8,0.3-1.3c0-0.5-0.1-1-0.3-1.3
			c-0.2-0.3-0.4-0.6-0.7-0.8c-0.3-0.2-0.6-0.3-1-0.4c-0.4-0.1-0.8-0.1-1.2-0.1h-2.7v5H28.2z"/>
	</g>
</g>
<g>
</g>
<g>
</g>
<g>
</g>
<g>
</g>
<g>
</g>
<g>
</g>
<g>
</g>
<g>
</g>
<g>
</g>
<g>
</g>
<g>
</g>
<g>
</g>
<g>
</g>
<g>
</g>
<g>
</g>
</svg>
