<svg xmlns="http://www.w3.org/2000/svg" width="77.666" height="77.667" viewBox="0 0 77.666 77.667"><path fill="#5B5B5B" d="M42.023 66.963a5.544 5.544 0 0 1-5.544 5.545H10.19a5.543 5.543 0 0 1-5.545-5.545V8.545A5.545 5.545 0 0 1 10.192 3H36.48a5.545 5.545 0 0 1 5.543 5.545v58.418z"/><path fill="#00CE93" d="M8.226 12.53h30.22v50.45H8.225z"/><circle fill="#FFF" cx="23.396" cy="67.691" r="2.656"/><g fill="#0084FD"><circle cx="49.435" cy="36.383" r="24.926"/><path d="M27.493 45.54l10.98 11.08-15.083 3.967z"/></g><g fill="#FFF"><path d="M66.787 27.848c0 1.14-.927 2.063-2.066 2.063H34.148a2.064 2.064 0 0 1-2.065-2.062c0-1.142.926-2.066 2.065-2.066H64.72c1.14 0 2.067.924 2.067 2.066zM66.787 36.387c0 1.14-.927 2.064-2.066 2.064H34.148a2.067 2.067 0 0 1 0-4.132H64.72c1.14 0 2.067.926 2.067 2.07zM66.787 44.917c0 1.14-.927 2.064-2.066 2.064H34.148a2.066 2.066 0 0 1 0-4.13H64.72c1.14.002 2.067.926 2.067 2.067z"/></g><path opacity=".2" fill="#060000" d="M66.018 17.778L23.455 60.34l-.065.247L35.886 57.3c3.9 2.53 8.55 4.008 13.55 4.008 13.766 0 24.926-11.16 24.926-24.925 0-7.398-3.226-14.038-8.344-18.605z"/></svg>