<svg baseProfile="basic" xmlns="http://www.w3.org/2000/svg" width="78" height="62" viewBox="0 0 78 62"><path fill="#EFEBDE" d="M63 57H6c-3.3 0-6-2.7-6-6V6c0-3.3 2.7-6 6-6h57c3.3 0 6 2.7 6 6v45c0 3.3-2.7 6-6 6z"/><path fill="#FF5046" d="M42.7 15v3c0 1.6-1.3 3-3 3H12c-1.6 0-3-1.3-3-3v-3c0-1.7 1.3-3 3-3h27.7c1.6 0 3 1.3 3 3z"/><path fill="#6D98AC" d="M31.8 28v3c0 1.6-1.3 3-3 3H12c-1.7 0-3-1.3-3-3v-3c0-1.6 1.3-3 3-3h16.8c1.6 0 3 1.3 3 3zM53.6 41v3c0 1.7-1.4 3-3 3H12c-1.6 0-3-1.3-3-3v-3c0-1.7 1.3-3 3-3h38.6c1.6 0 3 1.3 3 3z"/><path fill="#6D98AC" d="M57.1 39v5c0 1.7-1.3 3-3 3h-8.9c-1.6 0-3-1.3-3-3l-5-5c0-1.6 1.3-3 3-3h13.9c1.7 0 3 1.3 3 3z"/><path opacity=".1" d="M63.3 0H35v57h28.3c3.3 0 5.7-2.3 5.7-5.6V6.3C69 3.1 66.6 0 63.3 0z"/><g fill="#515151"><path d="M41.3 48.1c-3.3-3.3-5.1-7.7-5.1-12.4s1.8-9.1 5.1-12.4c3.3-3.3 7.7-5.1 12.4-5.1s9.1 1.8 12.4 5.1c3.3 3.3 5.1 7.7 5.1 12.4s-1.8 9.1-5.1 12.4c-3.3 3.3-7.7 5.1-12.4 5.1s-9.1-1.8-12.4-5.1zm3.4-21.4c-2.4 2.4-3.7 5.6-3.7 9s1.3 6.6 3.7 9c2.4 2.4 5.6 3.7 9 3.7 3.4 0 6.6-1.3 9-3.7 2.4-2.4 3.7-5.6 3.7-9s-1.3-6.6-3.7-9-5.6-3.7-9-3.7c-3.4 0-6.6 1.3-9 3.7z"/><path d="M61 51l8.3 9.4c1.7 1.9 4.6 2.1 6.5.4 1.9-1.7 2.1-4.6.4-6.5L67.9 45"/></g></svg>