<svg xmlns="http://www.w3.org/2000/svg" width="77.666" height="77.667" viewBox="0 0 77.666 77.667"><path fill="#FFCE12" d="M69.92 29.4c0-6.718-1.19-12.268-3.293-16.77a47.517 47.517 0 0 1-3.65.144c-10.18 0-19.106-3.227-24.103-8.068-4.998 4.842-13.922 8.068-24.106 8.068-1.235 0-2.45-.053-3.646-.145C9.017 17.13 7.826 22.68 7.826 29.4c0 23.02 18.88 43.32 31.048 43.32 13.025 0 31.047-20.3 31.047-43.32z"/><path fill="#36875A" d="M57.685 56.232a2.06 2.06 0 0 1-2.062 2.06H22.217a2.06 2.06 0 0 1-2.06-2.06c0-1.14.92-2.06 2.06-2.06h33.406c1.14 0 2.062.92 2.062 2.06z"/><path fill="#31D880" d="M48.155 58.01c0 .833-.672 1.507-1.503 1.507H31.188c-.83 0-1.502-.674-1.502-1.506v-3.56c0-.828.67-1.502 1.502-1.502h15.465c.83 0 1.503.674 1.503 1.503v3.56z"/><path fill="#31D880" d="M40.7 48.572c.83 0 1.505.672 1.505 1.504v6.445c0 .83-.674 1.503-1.504 1.503h-3.56a1.503 1.503 0 0 1-1.503-1.502v-6.444c0-.832.674-1.504 1.502-1.504h3.56z"/><path opacity=".2" fill="#010000" d="M66.627 12.628a47.517 47.517 0 0 1-3.65.145c-10.125 0-19.003-3.192-24.016-7.99V72.71c13.224 0 30.96-20.396 30.96-43.31 0-6.718-1.19-12.268-3.293-16.772z"/><path fill="#36875A" d="M54.86 21.26c-.187-1.638-1.624-2.94-3.21-2.94H26.22c-1.587 0-3.025 1.302-3.21 2.94l-3.19 23.276c-.28 2.422 1.108 4.438 3.106 4.438H54.94c2 0 3.39-2.016 3.11-4.438L54.86 21.26z"/><path fill="#31D880" d="M58.208 45.843a3.61 3.61 0 0 1-3.61 3.61H23.324a3.608 3.608 0 0 1 0-7.218h31.275a3.61 3.61 0 0 1 3.61 3.608z"/><path fill="#36875A" d="M26.308 45.945a1.897 1.897 0 1 1-3.795 0 1.897 1.897 0 0 1 3.795 0z"/><path opacity=".25" fill="#010000" d="M58.062 44.878c-.005-.114.004-.225-.01-.342L54.86 21.26c-.186-1.638-1.623-2.94-3.21-2.94H38.96v23.913l-4.522 7.22h20.16a3.61 3.61 0 0 0 3.61-3.61c0-.336-.062-.654-.146-.965z"/></svg>