<svg xmlns="http://www.w3.org/2000/svg" width="67" height="67" viewBox="0 0 67 67"><title>effect ecwid</title><path d="M67,53.884A13.113,13.113,0,0,1,53.884,67H13.116A13.116,13.116,0,0,1,0,53.884V13.117A13.119,13.119,0,0,1,13.116,0H53.885A13.117,13.117,0,0,1,67,13.117V53.884Z" fill="#007ac9"/><path d="M52.5,37.613c1.726-5.236,4.421-16.719,5.437-20.8.9-3.614,1.487-4.961-.136-4.934-1.359.024-4.822.355-5.54,3.215-1.193,4.776-4.045,15.776-5.089,19.271-1.149,3.843-3.593,4.646-6.67,4.674-2.679.019-4.153-.187-4.153-2.227-.856-.018-2.174-.007-2.781,0s-1.923-.014-2.779,0c0,2.147-1.474,2.227-4.155,2.227-1.991,0-5.015-.372-6.118-4.022-.772-2.545-2.7-9.131-3.687-12.611s-4.105-3.675-5.6-3.68c-1.641-.007-1.511.258-.562,3.68s3.022,11.058,4.474,16.174,6.441,6.782,9.623,6.782h5.374c2.442,0,3.3-1.046,3.43-1.378.131.332,1.074,1.378,3.514,1.378h5.21A10.653,10.653,0,0,0,52.5,37.613Z" fill="#fff"/><path d="M25.417,24.33a2.546,2.546,0,1,0-2.545-2.543A2.545,2.545,0,0,0,25.417,24.33Z" fill="#fff"/><path d="M33.689,24.33a2.546,2.546,0,1,0-2.545-2.543A2.549,2.549,0,0,0,33.689,24.33Z" fill="#fff"/><path d="M42.069,24.33a2.546,2.546,0,1,0-2.545-2.543A2.549,2.549,0,0,0,42.069,24.33Z" fill="#fff"/><path d="M25.417,33.5a2.546,2.546,0,1,0-2.545-2.545A2.545,2.545,0,0,0,25.417,33.5Z" fill="#fff"/><path d="M33.689,33.5a2.546,2.546,0,1,0-2.545-2.545A2.549,2.549,0,0,0,33.689,33.5Z" fill="#fff"/><path d="M42.069,33.5a2.546,2.546,0,1,0-2.545-2.545A2.549,2.549,0,0,0,42.069,33.5Z" fill="#fff"/><path d="M13.472,46.756a5.1,5.1,0,1,0,5.1,5.107A5.108,5.108,0,0,0,13.472,46.756Zm0,6.938a1.83,1.83,0,1,1,1.831-1.83A1.831,1.831,0,0,1,13.472,53.694Z" fill="#fff"/><path d="M53.72,46.7a5.1,5.1,0,1,0,5.1,5.1A5.107,5.107,0,0,0,53.72,46.7Zm0,6.932a1.83,1.83,0,1,1,1.831-1.83A1.831,1.831,0,0,1,53.72,53.628Z" fill="#fff"/></svg>