<?xml version="1.0" encoding="utf-8"?>
<!-- Generator: Adobe Illustrator 21.0.2, SVG Export Plug-In . SVG Version: 6.00 Build 0)  -->
<svg version="1.1" baseProfile="basic" id="Слой_1"
	 xmlns="http://www.w3.org/2000/svg" xmlns:xlink="http://www.w3.org/1999/xlink" x="0px" y="0px" width="238px" height="36px"
	 viewBox="0 0 238 36" xml:space="preserve">
<g id="Layer_2">
</g>
<g>
	<path id="path2998" fill="#4285F4" d="M27,12.7H14.2v3.8h9.1c-0.4,5.3-4.9,7.6-9.1,7.6c-5.4,0-10-4.2-10-10.1
		c0-5.8,4.5-10.2,10-10.2c4.3,0,6.9,2.7,6.9,2.7l2.7-2.8c0,0-3.4-3.8-9.6-3.8C6.1,0,0,6.7,0,13.9c0,7.1,5.8,14,14.3,14
		c7.5,0,13-5.1,13-12.7C27.2,13.6,27,12.7,27,12.7L27,12.7z"/>
	<path id="path3000" fill="#EA4335" d="M37.5,10c-5.3,0-9,4.1-9,8.9c0,4.9,3.7,9.1,9.1,9.1c4.9,0,8.9-3.8,8.9-8.9
		C46.5,13,41.8,10,37.5,10L37.5,10z M37.5,13.5c2.6,0,5,2.1,5,5.5c0,3.3-2.4,5.4-5,5.4c-2.9,0-5.1-2.3-5.1-5.5
		C32.4,15.8,34.6,13.5,37.5,13.5L37.5,13.5z"/>
	<path id="path3005" fill="#FBBC05" d="M57.1,10c-5.3,0-9,4.1-9,8.9c0,4.9,3.7,9.1,9.1,9.1c4.9,0,8.9-3.8,8.9-8.9
		C66.1,13,61.4,10,57.1,10L57.1,10z M57.2,13.5c2.6,0,5,2.1,5,5.5c0,3.3-2.4,5.4-5,5.4c-2.9,0-5.1-2.3-5.1-5.5
		C52,15.8,54.3,13.5,57.2,13.5L57.2,13.5z"/>
	<path id="path3007" fill="#4285F4" d="M76.4,10c-4.8,0-8.6,4.2-8.6,9c0,5.4,4.4,9,8.5,9c2.6,0,3.9-1,4.9-2.2v1.8c0,3.1-1.9,5-4.7,5
		c-2.7,0-4.1-2-4.6-3.2l-3.5,1.4c1.2,2.6,3.7,5.3,8.1,5.3c4.8,0,8.5-3,8.5-9.4V10.5h-3.8V12C80.1,10.8,78.5,10,76.4,10L76.4,10z
		 M76.7,13.5c2.4,0,4.8,2,4.8,5.5c0,3.5-2.4,5.4-4.8,5.4c-2.6,0-5-2.1-5-5.4C71.7,15.5,74.2,13.5,76.7,13.5L76.7,13.5z"/>
	<path id="path3011" fill="#EA4335" d="M101.7,9.9c-4.6,0-8.4,3.6-8.4,9c0,5.7,4.3,9,8.8,9c3.8,0,6.1-2.1,7.5-3.9l-3.1-2.1
		c-0.8,1.2-2.2,2.5-4.4,2.5c-2.5,0-3.7-1.4-4.4-2.7l12-5l-0.6-1.5C108,12.3,105.3,9.9,101.7,9.9L101.7,9.9z M101.9,13.4
		c1.6,0,2.8,0.9,3.3,1.9l-8,3.4C96.8,16.1,99.3,13.4,101.9,13.4L101.9,13.4z"/>
	<path id="path3015" fill="#34A853" d="M87.6,27.4h4V0.9h-4V27.4z"/>
</g>
<g id="XMLID_54_" opacity="0.54">
	<g id="XMLID_55_">
		<path id="XMLID_69_" d="M143.6,8.3c-0.9-0.9-1.8-1.6-2.8-2.1s-2.3-0.7-3.8-0.7c-1.2,0-2.3,0.2-3.4,0.6c-1.1,0.4-2,1-2.8,1.8
			c-0.8,0.8-1.4,1.7-1.9,2.8s-0.7,2.3-0.7,3.6s0.2,2.5,0.7,3.6s1.1,2,1.9,2.8c0.8,0.8,1.7,1.4,2.8,1.8c1.1,0.4,2.2,0.6,3.4,0.6
			c1.3,0,2.4-0.2,3.4-0.5c1-0.4,1.8-0.9,2.5-1.5c0.5-0.4,0.9-0.9,1.2-1.5c0.4-0.6,0.6-1.3,0.9-2.1h-8.1V13h13.2
			c0.1,0.3,0.1,0.7,0.2,1.1c0.1,0.5,0.1,0.9,0.1,1.3c0,1.8-0.3,3.5-0.8,5c-0.5,1.5-1.4,2.8-2.4,4c-1.2,1.3-2.6,2.3-4.3,3
			c-1.7,0.7-3.6,1.1-5.8,1.1c-1.9,0-3.8-0.3-5.5-1.1c-1.7-0.7-3.2-1.7-4.5-2.9c-1.3-1.2-2.3-2.7-3.1-4.4c-0.8-1.7-1.1-3.6-1.1-5.6
			s0.4-3.9,1.1-5.6c0.7-1.7,1.8-3.2,3.1-4.4c1.3-1.2,2.8-2.2,4.5-2.9c1.7-0.7,3.6-1.1,5.5-1.1c2.2,0,4.2,0.4,5.9,1.1
			s3.2,1.8,4.4,3.2L143.6,8.3z"/>
		<g id="XMLID_56_">
			<path id="XMLID_67_" d="M177.4,20.6c0,2.3-0.9,4.2-2.6,5.7c-1.7,1.4-3.9,2.1-6.4,2.1c-2.2,0-4.2-0.6-5.9-1.9
				c-1.7-1.3-2.9-3.1-3.5-5.3l3.3-1.4c0.2,0.8,0.5,1.5,0.9,2.2c0.4,0.6,0.9,1.2,1.4,1.7s1.1,0.8,1.8,1.1s1.3,0.4,2.1,0.4
				c1.6,0,2.9-0.4,3.9-1.2c1-0.8,1.5-1.9,1.5-3.2c0-1.1-0.4-2.1-1.2-2.9c-0.8-0.8-2.2-1.5-4.3-2.3c-2.1-0.8-3.5-1.3-4-1.6
				c-2.8-1.5-4.3-3.6-4.3-6.4c0-2,0.8-3.6,2.3-5c1.6-1.4,3.6-2.1,5.9-2.1c2,0,3.8,0.5,5.3,1.6c1.5,1,2.5,2.3,3,3.9l-3.2,1.3
				c-0.3-1-0.9-1.8-1.8-2.5c-0.9-0.7-2-1-3.2-1c-1.4,0-2.5,0.4-3.4,1.1c-0.9,0.7-1.4,1.6-1.4,2.7c0,0.9,0.4,1.7,1.1,2.4
				c0.8,0.7,2.5,1.5,5.2,2.4c2.7,0.9,4.7,2.1,5.8,3.4C176.9,17,177.4,18.7,177.4,20.6z"/>
			<path id="XMLID_65_" d="M196.5,27.8h-3.3v-2.5h-0.2c-0.5,0.9-1.3,1.6-2.4,2.3c-1.1,0.6-2.2,0.9-3.4,0.9c-2.3,0-4-0.6-5.2-1.9
				c-1.2-1.3-1.8-3.1-1.8-5.5V9.4h3.4v11.3c0.1,3,1.6,4.5,4.5,4.5c1.4,0,2.5-0.6,3.4-1.7s1.4-2.4,1.4-4V9.4h3.4V27.8z"/>
			<path id="XMLID_62_" d="M204.4,3.1c0,0.7-0.2,1.2-0.7,1.7s-1.1,0.7-1.7,0.7s-1.2-0.2-1.7-0.7s-0.7-1.1-0.7-1.7s0.2-1.2,0.7-1.7
				s1.1-0.7,1.7-0.7s1.2,0.2,1.7,0.7S204.4,2.5,204.4,3.1z M203.7,9.4v18.3h-3.4V9.4H203.7z"/>
			<path id="XMLID_60_" d="M214.2,28.1c-1.5,0-2.7-0.5-3.7-1.4s-1.5-2.2-1.5-3.9V12.6h-3.2V9.4h3.2V3.8h3.4v5.6h4.5v3.2h-4.5v9.1
				c0,1.2,0.2,2,0.7,2.5c0.5,0.4,1,0.6,1.6,0.6c0.3,0,0.5,0,0.8-0.1c0.3-0.1,0.5-0.2,0.7-0.2l1.1,3.1
				C216.5,27.9,215.4,28.1,214.2,28.1L214.2,28.1z"/>
			<path id="XMLID_57_" d="M227.1,28.4c-2.7,0-4.9-0.9-6.7-2.8c-1.7-1.9-2.6-4.2-2.6-7c0-2.8,0.8-5.1,2.5-7s3.9-2.8,6.5-2.8
				c2.7,0,4.9,0.9,6.5,2.6s2.4,4.2,2.4,7.4l0,0.4h-14.4c0.1,1.8,0.6,3.2,1.8,4.3c1.1,1.1,2.5,1.6,4.1,1.6c2.2,0,3.9-1.1,5.2-3.3
				l3.1,1.5c-0.8,1.5-2,2.8-3.4,3.6C230.6,27.9,228.9,28.4,227.1,28.4L227.1,28.4z M221.6,16.4h10.5c-0.1-1.3-0.6-2.3-1.5-3.2
				c-0.9-0.8-2.2-1.3-3.8-1.3c-1.3,0-2.4,0.4-3.3,1.2C222.5,14,221.9,15.1,221.6,16.4z"/>
		</g>
	</g>
</g>
</svg>
