<svg xmlns="http://www.w3.org/2000/svg" width="77.666" height="77.667" viewBox="0 0 77.666 77.667"><circle fill="#4B4B4B" cx="39.68" cy="63.669" r="8.34"/><ellipse fill="#4B4B4B" cx="39.679" cy="13.594" rx="5.59" ry="8.341"/><path fill="#FF5046" d="M69.354 57.9c-.358-6.847-10.97-6.613-12.87-29.267-1.527-18.2-13.44-18.442-16.802-18.14-3.362-.303-15.274-.062-16.803 18.14-1.903 22.653-12.515 22.42-12.875 29.268h-.008v5.485c0 1.096.875 1.984 1.954 1.984h55.46c1.08 0 1.955-.89 1.955-1.985V57.9h-.01z"/><g fill="#FFF"><path d="M37.585 29.613c.174 1.394.4 3.345.678 5.854.28 2.51.626 5.938 1.047 10.292h.017a.782.782 0 0 0 1.564-.034c0-.014-.005-.025-.007-.037.52-4.32.95-7.73 1.298-10.223.347-2.51.62-4.46.81-5.854.192-1.39.322-2.438.393-3.135.07-.693.106-1.41.106-2.14 0-2.542-1.066-3.815-3.19-3.815-2.125 0-3.184 1.273-3.184 3.815 0 .73.03 1.446.103 2.14.067.696.187 1.745.365 3.135zM40.092 49.937c-2.403 0-3.605 1.135-3.605 3.396 0 2.267 1.202 3.397 3.605 3.397 2.263 0 3.396-1.13 3.396-3.397 0-2.26-1.134-3.396-3.396-3.396z"/></g><path opacity=".25" fill="#010000" d="M69.354 57.9c-.358-6.847-10.97-6.613-12.87-29.267-1.48-17.596-12.655-18.406-16.436-18.17V65.37h27.36c1.082 0 1.957-.89 1.957-1.984v-5.484h-.01z"/></svg>