<svg xmlns="http://www.w3.org/2000/svg" width="77.666" height="77.667" viewBox="0 0 77.666 77.667"><path fill="#FFDA50" d="M74.218 62.737a5.678 5.678 0 0 1-5.68 5.676H9.892a5.676 5.676 0 0 1-5.675-5.676V14.794A5.677 5.677 0 0 1 9.89 9.117h58.65a5.678 5.678 0 0 1 5.678 5.677v47.943z"/><path fill="#4B4B4B" d="M68.54 9.118H9.89a5.677 5.677 0 0 0-5.675 5.677v7.65h70.003v-7.65a5.678 5.678 0 0 0-5.68-5.677z"/><path fill="#FFF" d="M13.813 15.86a2.73 2.73 0 1 1-5.46-.006 2.73 2.73 0 0 1 5.46.007zM21.738 15.86a2.732 2.732 0 0 1-5.464 0 2.733 2.733 0 1 1 5.464 0zM70.08 16.175c0 1.356-1.065 2.456-2.386 2.456h-41.15c-1.313 0-2.383-1.1-2.383-2.455 0-1.356 1.07-2.456 2.385-2.456h41.15c1.32 0 2.386 1.1 2.386 2.455z"/><g fill="#FF5046"><path d="M10.857 44.1h23v2.627h-23zM45.5 44.155h23v2.63h-23z"/><path d="M43.332 57.108L38.307 32.24l-1.02-4.714-1.49 4.624-4.473 13.743 2.5.814 2.913-8.955 4.016 19.875z"/><path d="M35.953 33.77l5.023 24.865 1.02 4.717 1.49-4.625 4.473-13.743-2.504-.816-2.913 8.956-4.015-19.877z"/></g><path opacity=".1" fill="#010000" d="M68.54 9.118H31.997l12 59.295h24.54c3.137 0 5.68-2.54 5.68-5.676V14.794a5.678 5.678 0 0 0-5.68-5.676z"/></svg>