<?xml version="1.0" encoding="utf-8"?>
<svg version="1.1" baseProfile="basic" id="Слой_1"
	 xmlns="http://www.w3.org/2000/svg" xmlns:xlink="http://www.w3.org/1999/xlink" x="0px" y="0px" width="54px" height="54px"
	 viewBox="0 0 54 54" xml:space="preserve">
<g>
	<g>
		<path fill="#00AB75" d="M43.4,42.2c0,0-2.6-7.4-3.2-8.7c-0.6-1.3-1.4-1.9-2.3-2.3c-0.9-0.4-10.6-4.7-10.6-4.7l-5.5,0.4l-5.5-0.4
			c0,0-9.6,4.2-10.6,4.7c-0.9,0.4-1.7,1-2.3,2.3c-0.6,1.3-3.2,8.7-3.2,8.7s-0.8,2.1,0.9,2.1h20.4h0.6h20.4
			C44.2,44.3,43.4,42.2,43.4,42.2"/>
		<path fill="#E9B990" d="M27.4,26.5c0,2.9-2.5,5.3-5.7,5.3c-3.1,0-5.7-2.4-5.7-5.3v-6c0-2.9,2.5-5.3,5.7-5.3c3.1,0,5.7,2.4,5.7,5.3
			V26.5z"/>
		<path fill="#FFC58F" d="M27.4,25.5c0,2.9-2.5,5.3-5.7,5.3c-3.1,0-5.7-2.4-5.7-5.3v-6c0-2.9,2.5-5.3,5.7-5.3c3.1,0,5.7,2.4,5.7,5.3
			V25.5z"/>
		<path fill="#00D094" d="M38.8,31.7c-0.3-0.2-0.6-0.4-0.9-0.6c-0.8-0.3-7.2-3.2-9.6-4.2c-0.3,3.4-3.1,6.1-6.5,6.1
			c-3.4,0-6.1-2.7-6.5-6.1c-2.4,1.1-8.9,3.9-9.6,4.2c-0.3,0.2-0.6,0.3-0.9,0.6c2.4,1.9,4.2,6.8,4.4,12.6h12.3h0.6h12.3
			C34.6,38.5,36.3,33.7,38.8,31.7"/>
		<path fill="#FFD196" d="M30.9,12.4c-0.1,0-0.2,0-0.4,0c-0.8-5.7-4.3-10-8.6-10c-7.4,0-7.8,4.3-8.6,10c-0.1,0-0.2-0.1-0.4,0
			c-0.7,0-1.2,0.6-1.1,1.3l0.2,3.3c0.1,0.7,0.6,1.2,1.3,1.1c0,0,0.1,0,0.1,0c1,5.1,4.4,8.9,8.4,8.9c4,0,7.3-3.8,8.4-8.9
			c0,0,0.1,0,0.1,0c0.7,0,1.2-0.4,1.3-1.1l0.2-3.3C32.1,13,31.6,12.4,30.9,12.4"/>
		<path fill="#724430" d="M13.6,13.1c0,0.3-0.2,0.5-0.5,0.5c-0.3,0-0.5-0.2-0.5-0.5c0-0.3,0.2-0.5,0.5-0.5
			C13.4,12.6,13.6,12.9,13.6,13.1"/>
		<path fill="#724430" d="M31.4,13.1c0,0.3-0.2,0.5-0.5,0.5c-0.3,0-0.5-0.2-0.5-0.5c0-0.3,0.2-0.5,0.5-0.5
			C31.1,12.6,31.4,12.9,31.4,13.1"/>
		<path fill="#724430" d="M22,0c-5.2,0-9.3,3.6-9.3,8.1v5h0.9v-1.8c0-1.5,0.7-1.9,1.3-1.5c0,0,3,1.8,7.5,0c7.1-2.8,8,0.7,8,1.5v1.8
			h0.9v-5C31.4,3.6,27.2,0,22,0"/>
	</g>
	<g>
		<circle fill="#FF8200" cx="39" cy="39" r="15"/>
		<path opacity="0.3" fill="#100030" d="M29.4,40.1c2.3,3.9,1.5,7.7,9.6,7.7c7.7,0,7-5.5,9.6-7.7V27.5C46,25.3,42.7,24,39,24
			c-3.7,0-7,1.3-9.6,3.5V40.1z"/>
		<path fill="#FFFFFF" d="M39,29.4c-5.3,0-9.6,4.3-9.6,9.6s4.3,9.6,9.6,9.6c5.3,0,9.6-4.3,9.6-9.6S44.3,29.4,39,29.4z M30.7,39.6
			h3.4c0,1,0.1,2,0.3,2.8h-3C31.1,41.6,30.8,40.6,30.7,39.6z M39.7,34.1V31c0.9,0.4,1.7,1.5,2.2,3.1H39.7z M42.2,35.5
			c0.2,0.9,0.3,1.8,0.3,2.8h-2.9v-2.8C39.7,35.5,42.2,35.5,42.2,35.5z M38.3,31v3.1h-2.2C36.7,32.5,37.4,31.4,38.3,31z M38.3,35.5
			v2.8h-2.9c0-1,0.2-1.9,0.3-2.8C35.8,35.5,38.3,35.5,38.3,35.5z M34.1,38.2h-3.4c0.1-1,0.4-1.9,0.8-2.8h2.9
			C34.3,36.3,34.2,37.3,34.1,38.2z M35.4,39.6h2.9v2.8h-2.6C35.6,41.6,35.4,40.6,35.4,39.6z M38.3,43.8V47c-0.9-0.4-1.7-1.6-2.2-3.2
			H38.3z M39.7,47v-3.2h2.2C41.4,45.4,40.6,46.6,39.7,47z M39.7,42.4v-2.8h2.9c0,1-0.1,2-0.3,2.8H39.7z M43.9,39.6h3.4
			c-0.1,1-0.3,2-0.7,2.8h-3C43.7,41.5,43.9,40.6,43.9,39.6z M43.9,38.2c0-1-0.2-1.9-0.3-2.8h2.9c0.4,0.9,0.7,1.8,0.8,2.8
			C47.3,38.2,43.9,38.2,43.9,38.2z M45.7,34.1h-2.5c-0.4-1.2-0.8-2.1-1.4-2.9C43.4,31.8,44.7,32.8,45.7,34.1z M36.2,31.2
			c-0.6,0.8-1.1,1.8-1.4,2.9h-2.5C33.3,32.8,34.6,31.8,36.2,31.2z M32.2,43.8h2.5c0.4,1.2,0.9,2.2,1.5,3
			C34.6,46.2,33.2,45.2,32.2,43.8z M41.8,46.8c0.6-0.8,1.1-1.8,1.5-3h2.5C44.8,45.2,43.4,46.2,41.8,46.8z"/>
	</g>
</g>
</svg>
