<svg xmlns="http://www.w3.org/2000/svg" width="77.666" height="77.667" viewBox="0 0 77.666 77.667"><path fill="#ACEEFF" d="M72.745 38.04c0 18.455-14.96 33.412-33.414 33.412-18.45 0-33.406-14.957-33.406-33.412 0-18.45 14.957-33.408 33.407-33.408 18.456 0 33.415 14.956 33.415 33.408z"/><path fill="#00B2DD" d="M39 4.906c-18.452 0-33.41 14.96-33.41 33.408 0 18.45 14.958 33.41 33.41 33.41s33.408-14.96 33.408-33.41c0-18.45-14.958-33.408-33.41-33.408zm27.4 44.306c-2.187 1.025-4.655 2.19-7.356 3.313 1.166-4.117 1.964-8.507 1.973-13.067h7.432a29.438 29.438 0 0 1-2.05 9.754zM9.55 39.458h7.433c.01 4.917.937 9.635 2.257 14.026-2.56-.98-4.944-2.03-7.113-3.032A29.338 29.338 0 0 1 9.55 39.458zM37.858 8.864V16.3c-4.563.01-8.95.806-13.07 1.973 1.125-2.702 2.29-5.175 3.316-7.362a29.296 29.296 0 0 1 9.754-2.046zM48.61 20.617c2.157.52 4.232 1.16 6.22 1.866a62.802 62.802 0 0 1 1.865 6.22 20.215 20.215 0 0 0-8.086-8.086zm-8.468-4.264v-7.49a29.32 29.32 0 0 1 9.755 2.047c1.09 2.32 2.328 4.96 3.512 7.854-4.15-1.265-8.608-2.186-13.268-2.41zm-9.21 3.52a20.195 20.195 0 0 0-9.628 8.83c.59-2.448 1.332-4.8 2.148-7.028a55.053 55.053 0 0 1 7.48-1.802zm-13.893 17.3H9.55a29.323 29.323 0 0 1 2.576-10.993c2.312-1.068 4.867-2.2 7.62-3.23-1.418 4.416-2.468 9.202-2.707 14.223zm3.517 9.21a20.2 20.2 0 0 0 10.378 10.374c-2.894-.477-5.676-1.206-8.307-2.07-.865-2.63-1.593-5.413-2.07-8.305zm17.3 13.95v7.432a29.433 29.433 0 0 1-10.992-2.575c-1.002-2.168-2.054-4.555-3.034-7.11 4.393 1.316 9.11 2.244 14.027 2.253zm2.285-.054c5.02-.242 9.808-1.292 14.223-2.71-1.03 2.75-2.162 5.31-3.232 7.62a29.4 29.4 0 0 1-10.99 2.575V60.28zm8.464-4.268a20.203 20.203 0 0 0 8.836-9.633 55.19 55.19 0 0 1-1.806 7.48 64.222 64.222 0 0 1-7.03 2.152zm12.358-18.84c-.228-4.662-1.148-9.12-2.413-13.268 2.895 1.186 5.535 2.425 7.852 3.512a29.413 29.413 0 0 1 2.047 9.757h-7.486zm3.19-14.227a91.145 91.145 0 0 0-6.897-2.89 90.17 90.17 0 0 0-2.89-6.896 29.617 29.617 0 0 1 9.787 9.785zm-40.52-9.785a92.648 92.648 0 0 0-2.678 6.322 105.09 105.09 0 0 0-6.55 2.543 29.61 29.61 0 0 1 9.227-8.865zM14.41 54.607a106.5 106.5 0 0 0 5.962 2.338c.738 2.08 1.536 4.074 2.337 5.96a29.554 29.554 0 0 1-8.3-8.298zm40.88 8.302a106.19 106.19 0 0 0 2.54-6.552 90.24 90.24 0 0 0 6.324-2.675 29.675 29.675 0 0 1-8.864 9.226z"/><g fill="#FFF"><path d="M39.334 22.29c-3.75 0-7.304 1.313-10.156 3.702l-2.087-1.768-1.593 8.785 8.395-3.014-2.12-1.802a12.46 12.46 0 0 1 7.563-2.562c6.907 0 12.527 5.63 12.527 12.543 0 6.92-5.62 12.547-12.527 12.547S26.81 45.096 26.81 38.175c0-.335.024-.668.053-.994 0-.025.01-.05.01-.076l-.003-.015-.103-.557a1.68 1.68 0 0 0-1.572-1.118c-.747 0-1.376.5-1.592 1.182l-.046.007s-.085 1.22-.085 1.57c0 8.765 7.115 15.89 15.863 15.89s15.863-7.125 15.863-15.89c0-8.756-7.116-15.884-15.864-15.884z"/><path d="M39.93 38.74a.926.926 0 0 1-.93.93.927.927 0 0 1-.93-.93V29.93a.93.93 0 0 1 1.858 0v8.813z"/><path d="M44.713 40.274c.473.2.696.745.5 1.218a.928.928 0 0 1-1.22.497l-5.354-2.295a.93.93 0 1 1 .72-1.716l5.353 2.295z"/></g></svg>