<svg baseProfile="basic" xmlns="http://www.w3.org/2000/svg" width="33" height="30" viewBox="0 0 33 30"><path fill="#0084FD" d="M32.9 20.7v-18c0-1.5-1.2-2.8-2.8-2.8H2.8C1.2 0 0 1.2 0 2.8v24.5C0 28.8 1.2 30 2.8 30h20.9l9.2-9.3z"/><path fill="#74C4FF" d="M23.6 20.7V30l9.3-9.3z"/><g fill="#FFF"><path d="M11 15.6H11.6c.4 0 .7-.1 1.1-.2.3-.1.6-.3.9-.5.3-.2.5-.5.6-.8.2-.3.2-.7.2-1.1 0-.8-.2-1.4-.8-1.8-.5-.4-1.1-.6-1.9-.6-.5 0-.9.1-1.2.3-.4.2-.6.4-.9.7-.2.3-.4.6-.5 1 0 .6-.1 1-.1 1.4H7.3c0-.7.1-1.4.3-2 .2-.6.5-1.1.9-1.5.4-.4.8-.8 1.4-1 .6-.2 1.2-.4 1.9-.4.6 0 1.2.1 1.8.2.5.2 1 .4 1.4.7.4.3.7.7.9 1.3.2.5.3 1.1.3 1.8s-.2 1.3-.6 1.8c-.4.5-.9.9-1.5 1.2.9.2 1.6.6 2 1.3.4.7.7 1.5.7 2.4 0 .8-.1 1.4-.4 2-.3.6-.6 1.1-1.1 1.4-.5.4-1 .7-1.6.9-.6.2-1.3.3-2 .3-.8 0-1.4-.1-2-.3-.6-.2-1.1-.5-1.6-.9-.4-.4-.8-.9-1-1.5-.1-.7-.2-1.3-.2-2.1h1.8c0 1 .3 1.8.8 2.4.5.6 1.3.9 2.3.9.4 0 .8-.1 1.2-.2.4-.1.7-.3 1-.6.3-.2.5-.6.7-.9.2-.4.3-.8.3-1.2 0-.5-.1-.9-.2-1.2-.2-.4-.4-.7-.7-.9-.3-.2-.6-.4-1-.6-.4-.1-.8-.2-1.2-.2-.4 0-.7 0-1.1.1v-1.5c.1-.1.2-.1.2-.1zM21.9 24.2V13.4H18V12c.5 0 1 0 1.5-.1s.9-.2 1.3-.4.7-.5 1-.9c.3-.4.4-.8.5-1.4h1.4v15.1c-.1-.1-1.8-.1-1.8-.1z"/></g><path opacity=".25" fill="#010000" d="M23.6 30v-9.3L14.3 30z"/><g fill="#FFF"><circle cx="6.5" cy="5" r="1.4"/><circle cx="26.4" cy="5" r="1.4"/></g></svg>