<svg xmlns="http://www.w3.org/2000/svg" width="80" height="79" viewBox="0 0 80 79"><path fill="#007334" d="M73.755 37.886l-31.19-31.19a2.998 2.998 0 0 0-4.243 0l-31.19 31.19 33.312 29.22 33.31-29.22z"/><circle fill="#FFC800" cx="40.443" cy="46.606" r="25.167"/><path fill="#FFD76C" d="M25.64 66.954L57.16 27.8a25.065 25.065 0 0 0-16.717-6.36c-13.9 0-25.167 11.268-25.167 25.167 0 8.364 4.084 15.77 10.364 20.347z"/><path fill="#009F4D" d="M44.23 56.108c-2.09 1.272-5.483 1.272-7.575 0L6.697 37.888c-.05.176-.087.36-.087.552v32.333a2 2 0 0 0 2 2h63.667a2 2 0 0 0 2-2V38.44c0-.193-.037-.376-.087-.554L44.23 56.108z"/><path fill="#00B459" d="M7.496 72.494c.318.176.7.28 1.114.28h63.666c.413 0 .796-.104 1.114-.28L42.564 56.157c-1.17-.62-3.07-.62-4.243 0L7.497 72.494z"/><path fill="#444846" d="M56.155 34.776L50.34 30.03 39.134 43.767l-7.062-5.776-4.752 5.81 12.67 10.36z"/></svg>