<svg xmlns="http://www.w3.org/2000/svg" width="77.666" height="77.667" viewBox="0 0 77.666 77.667"><path fill="#FFD300" d="M8.852 64.014h23.192v.004c7.91 0 5.114.53 11.435.604h25.408c3.258 0 5.895-2.75 5.895-6.138V14.31c0-3.388-2.637-6.136-5.895-6.136H8.852c-3.256 0-5.896 2.748-5.896 6.137v43.57c0 3.385 2.64 6.134 5.896 6.134z"/><path fill="#5B5B5B" d="M68.888 14.515H45.694l.003-.003c-7.913 0-5.117-6.265-11.437-6.338H8.852c-3.256 0-5.896 2.748-5.896 6.137v49.906c0 3.39 2.64 6.14 5.896 6.14h60.036c3.258 0 5.895-2.75 5.895-6.14V20.652c0-3.39-2.637-6.137-5.895-6.137z"/><path opacity=".25" fill="#010000" d="M54.66 30.394c-7.745-7.745-20.904-8.41-28.648-.665-7.744 7.74-7 20.675.744 28.42L38.11 70.355h30.777c3.258 0 5.895-2.75 5.895-6.14v-13.61l-20.12-20.21z"/><g fill="#FFD300"><path d="M38.87 22.58a19.66 19.66 0 0 0-12.696 4.63l-2.61-2.218-1.99 10.985 10.493-3.767-2.648-2.25a15.55 15.55 0 0 1 9.45-3.205c8.634 0 15.66 7.037 15.66 15.685s-7.026 15.683-15.66 15.683S23.21 51.09 23.21 42.44c0-.423.032-.838.072-1.25.002-.03.007-.06.007-.092v-.02l-.13-.695a2.092 2.092 0 0 0-1.964-1.392c-.936 0-1.723.62-1.992 1.476l-.054.008s-.11 1.522-.11 1.966c0 10.95 8.896 19.856 19.83 19.856 10.935 0 19.83-8.907 19.83-19.856 0-10.95-8.896-19.86-19.83-19.86z"/><path d="M39.615 43.14a1.163 1.163 0 0 1-2.326 0V32.13a1.163 1.163 0 0 1 2.326 0v11.01z"/><path d="M45.594 45.062a1.16 1.16 0 1 1-.9 2.14L38 44.332c-.59-.248-.868-.928-.62-1.52.247-.592.932-.87 1.52-.622l6.694 2.872z"/></g></svg>