<svg xmlns="http://www.w3.org/2000/svg" width="68.488" height="58.062" viewBox="0 0 68.488 58.062"><path fill="#64BFAF" d="M68.487 52.46a5.554 5.554 0 0 1-5.553 5.554H5.554A5.554 5.554 0 0 1 0 52.46V5.554A5.554 5.554 0 0 1 5.553 0h57.38a5.554 5.554 0 0 1 5.554 5.554V52.46z"/><path fill="#4C4C4C" d="M22.627 55.073H5.553A2.615 2.615 0 0 1 2.94 52.46V5.555a2.615 2.615 0 0 1 2.613-2.612h17.074V0H5.553A5.554 5.554 0 0 0 0 5.554V52.46a5.57 5.57 0 0 0 5.546 5.566h12.832l4.25-2.953z"/><path fill="#F2D9AD" d="M37.338 58.014l-31.198.012 15.654-27.062z"/><path fill="#282828" d="M18.976 58.02l-13.1.006 6.64-11.164z"/><path fill="#FFCB2F" d="M66.447 5.275l2.04 3.55v31.258l-31.204 17.93-15.544-27.05z"/><path opacity=".1" fill="#020000" d="M68.487 29.437v10.646L37.2 58.063l-4.497-8.016z"/><path opacity=".1" fill="#FFF" d="M66.447 5.275l2.04 3.553V14.7l-42.17 24.233-4.578-7.968z"/><path fill="#F2D9AD" d="M26.275 38.916c.61-1.254.43-3.182-.597-4.957-1.024-1.776-2.604-2.896-3.995-2.994l4.592 7.95zM37.25 58.026c.614-1.262.43-3.203-.602-4.99-1.032-1.787-2.62-2.915-4.02-3.013l4.62 8.003z"/><path fill="#F2D9AD" d="M32.667 50.163c1.032-1.883.884-4.7-.58-7.234-1.464-2.536-3.83-4.07-5.977-4.12l6.557 11.353z"/><path fill="#4C4C4C" d="M62.934 0H5.554A5.554 5.554 0 0 0 0 5.554v7.486h68.487V5.554A5.554 5.554 0 0 0 62.934 0z"/><path fill="#FF5955" d="M9.39 6.598A2.67 2.67 0 0 1 6.72 9.266 2.67 2.67 0 1 1 9.39 6.598z"/><path fill="#43CEFF" d="M17.142 6.598a2.67 2.67 0 0 1-2.673 2.668 2.672 2.672 0 1 1 2.673-2.668z"/><path fill="#FFF" d="M64.442 6.907c0 1.325-1.044 2.402-2.333 2.402H21.847c-1.288 0-2.333-1.078-2.333-2.403 0-1.327 1.044-2.403 2.333-2.403h40.26c1.29 0 2.334 1.076 2.334 2.403z"/><path opacity=".1" fill="#020000" d="M62.934 0H27.182l11.74 58.014h24.012a5.554 5.554 0 0 0 5.553-5.554V5.554A5.554 5.554 0 0 0 62.934 0zM36.648 53.037c-1.014-1.757-2.568-2.87-3.95-3.002L6.084 57.95l31.164.076c.614-1.262.43-3.203-.602-4.99z"/></svg>