<svg xmlns="http://www.w3.org/2000/svg" width="77.666" height="77.667" viewBox="0 0 77.666 77.667"><path fill="#00AB54" d="M66.573 10.775c-1.19.092-2.397.146-3.627.146-10.127 0-19-3.208-23.97-8.024-2.378 2.303-5.656 4.233-9.53 5.626.02 1.455.12 9.1.244 9.062.134-.04 5.53 7.695 5.53 7.695l1.882 9.67 6.78 4.608-9.428-3.16-2.63-9.077-7.88-6.687-1.88-10.253a45.96 45.96 0 0 1-10.686.395c-2.09 4.48-3.274 9.998-3.274 16.68 0 22.89 18.772 43.07 30.87 43.07 12.954 0 30.873-20.18 30.873-43.07 0-6.682-1.183-12.202-3.274-16.68z"/><path fill="#FFCE12" d="M68.242 59.67L56.632 46.47c4.283-7.53 3.237-17.27-3.174-23.7-7.707-7.73-20.22-7.748-27.947-.042-7.727 7.705-7.743 20.217-.037 27.943 5.802 5.816 14.324 7.262 21.483 4.333L58.552 68.19a6.45 6.45 0 0 0 9.105.586 6.45 6.45 0 0 0 .585-9.105zM30.37 45.788c-5.01-5.022-5-13.155.025-18.163 5.02-5.01 13.156-4.997 18.163.026 5.01 5.02 4.997 13.155-.025 18.162-5.023 5.01-13.156 4.996-18.163-.025z"/><path opacity=".2" fill="#010000" d="M62.395 53.023c4.44-7.27 7.453-16.19 7.453-25.568 0-6.682-1.184-12.2-3.274-16.68-1.19.092-2.397.146-3.627.146-10.124 0-19-3.208-23.968-8.024v67.63c4.766 0 10.2-2.74 15.175-7.338l4.397 5.003a6.45 6.45 0 0 0 9.105.586 6.45 6.45 0 0 0 .585-9.104l-5.847-6.65z"/></svg>