<svg xmlns="http://www.w3.org/2000/svg" width="80" height="79" viewBox="0 0 80 79"><path fill="#EA4844" d="M40.494 4.296c-19.522 0-35.35 15.826-35.35 35.35 0 19.52 15.828 35.348 35.35 35.348 19.52 0 35.35-15.826 35.35-35.348 0-19.523-15.828-35.35-35.35-35.35m0 54.934c-10.816 0-19.584-8.77-19.584-19.584 0-10.817 8.768-19.586 19.584-19.586 10.816 0 19.584 8.77 19.584 19.586 0 10.816-8.767 19.584-19.584 19.584"/><path fill="#F9FFD7" d="M62.704 39.645c0 2.51-.422 4.92-1.19 7.17l8.336 8.335c2.45-4.63 3.844-9.903 3.844-15.505S72.3 28.768 69.85 24.14l-8.336 8.334c.767 2.25 1.19 4.66 1.19 7.17M19.474 32.474L11.14 24.14c-2.452 4.63-3.845 9.903-3.845 15.505S8.688 50.52 11.14 55.15l8.334-8.334a22.16 22.16 0 0 1-1.19-7.17c0-2.512.422-4.92 1.19-7.172M33.323 18.626c2.25-.768 4.66-1.19 7.17-1.19s4.92.422 7.172 1.19L56 10.29a33.048 33.048 0 0 0-15.506-3.843 33.048 33.048 0 0 0-15.506 3.843l8.335 8.336zM47.665 60.664c-2.25.77-4.66 1.19-7.17 1.19-2.512 0-4.922-.42-7.173-1.19L24.988 69a33.034 33.034 0 0 0 15.506 3.844A33.034 33.034 0 0 0 56 69l-8.335-8.336z"/><path fill="#100200" d="M40.494 12.59c-14.943 0-27.056 12.113-27.056 27.055S25.55 66.7 40.494 66.7c14.94 0 27.056-12.113 27.056-27.055S55.438 12.59 40.494 12.59m0 46.465c-10.72 0-19.41-8.69-19.41-19.41s8.69-19.41 19.41-19.41 19.408 8.69 19.408 19.41-8.69 19.41-19.408 19.41" opacity=".1"/></svg>