<svg xmlns="http://www.w3.org/2000/svg" width="77.666" height="77.667" viewBox="0 0 77.666 77.667"><path fill="#EFEBDE" d="M72.233 37.625c0 18.45-14.96 33.408-33.412 33.408S5.41 56.075 5.41 37.625c0-18.454 14.96-33.413 33.41-33.413S72.234 19.17 72.234 37.625z"/><path opacity=".1" fill="#010000" d="M38.82 4.21v66.822c18.453 0 33.413-14.958 33.413-33.408 0-18.454-14.96-33.413-33.412-33.413z"/><g fill="#535353"><circle cx="26.828" cy="20.166" r="4.659"/><path d="M17.97 27.734l12.23 3.04 1.296-10.94-8.913-1.498"/></g><g fill="#00B2B2"><circle cx="23.834" cy="29.899" r="10.257"/><path d="M3.382 45.37l30.666 8.57.084-24.164-19.383-4.448"/></g><circle fill="#535353" cx="17.774" cy="53.06" r="16.292"/><path fill="#FF8200" d="M29.01 56c-1.622 6.205-7.972 9.92-14.174 8.297-6.205-1.624-9.923-7.973-8.296-14.175 1.622-6.206 7.968-9.92 14.174-8.296 6.205 1.62 9.92 7.967 8.295 14.174z"/><g fill="#535353"><circle cx="50.817" cy="20.166" r="4.661"/><path d="M59.676 27.734l-12.23 3.04-1.298-10.94 8.914-1.498"/></g><g fill="#00B2B2"><circle cx="53.809" cy="29.899" r="10.257"/><path d="M74.265 45.37l-30.67 8.57-.083-24.164 19.383-4.448"/></g><circle fill="#535353" cx="59.87" cy="53.06" r="16.292"/><path fill="#535353" d="M43.57 34.458a.985.985 0 0 1-.984.984H35.01a.986.986 0 0 1-.987-.984v-1.61c0-.544.442-.986.986-.986h7.576c.542 0 .984.442.984.986v1.61z"/><path fill="#535353" d="M32.82 42.084l11.668.194-1.032-9.343-9.41-.218z"/><path fill="#00B2B2" d="M46.148 43.204c0 .58-.69 1.05-1.547 1.05H32.705c-.853 0-1.548-.47-1.548-1.05v-1.707c0-.578.695-1.047 1.548-1.047H44.6c.856 0 1.548.47 1.548 1.047v1.707z"/><path fill="#FF8200" d="M71.105 56c-1.624 6.205-7.97 9.92-14.175 8.297-6.206-1.624-9.92-7.973-8.296-14.175 1.624-6.206 7.97-9.92 14.173-8.296 6.208 1.62 9.924 7.967 8.298 14.174z"/></svg>