<svg xmlns="http://www.w3.org/2000/svg" width="77.666" height="77.667" viewBox="0 0 77.666 77.667"><path fill="#EFEBDE" d="M67.596 38.06c0 18.37-14.895 33.263-33.265 33.263-18.373 0-33.266-14.894-33.266-33.263 0-18.372 14.893-33.27 33.267-33.27 18.372 0 33.266 14.898 33.266 33.27z"/><path fill="#004A54" d="M61.317 32.49l-3.15-.247a24.576 24.576 0 0 0-2.473-5.978l2.055-2.39c.716-.72.853-1.75.305-2.298l-6.68-6.68c-.55-.548-1.58-.413-2.298.307l-2.398 2.05a24.558 24.558 0 0 0-5.97-2.47l-.247-3.15c0-1.016-.63-1.837-1.408-1.837H29.61c-.778 0-1.41.82-1.41 1.838l-.254 3.15a24.443 24.443 0 0 0-5.962 2.47l-2.4-2.05c-.715-.72-1.746-.855-2.294-.307l-6.68 6.68c-.552.547-.413 1.577.305 2.297l2.047 2.403a24.56 24.56 0 0 0-2.466 5.965l-3.15.247c-1.017 0-1.84.63-1.84 1.408v9.443c0 .78.823 1.412 1.84 1.412l3.15.252a24.6 24.6 0 0 0 2.47 5.965l-2.05 2.395c-.72.718-.857 1.746-.306 2.298l6.68 6.68c.548.546 1.58.412 2.295-.307l2.408-2.047a24.39 24.39 0 0 0 5.966 2.464l.24 3.15c0 1.018.632 1.84 1.41 1.84h9.445c.777 0 1.408-.822 1.408-1.84l.246-3.15a24.413 24.413 0 0 0 5.974-2.472l2.394 2.054c.72.72 1.747.853 2.3.307l6.678-6.68c.548-.552.41-1.58-.306-2.298l-2.048-2.398a24.69 24.69 0 0 0 2.468-5.977l3.148-.238c1.018 0 1.84-.633 1.84-1.41v-9.444c0-.777-.824-1.407-1.84-1.407z"/><path fill="#EFEBDE" d="M44.09 38.06c0 5.39-4.37 9.753-9.76 9.753-5.387 0-9.757-4.364-9.757-9.753 0-5.392 4.37-9.76 9.756-9.76 5.39 0 9.76 4.368 9.76 9.76z"/><path fill="#FF5046" d="M39.79 38.06a5.457 5.457 0 0 1-5.458 5.453 5.456 5.456 0 0 1 0-10.913 5.46 5.46 0 0 1 5.458 5.46z"/><path opacity=".3" d="M34.332 4.79c-.104 0-.205.007-.306.01V71.32c.1 0 .2.005.306.005 18.37 0 33.265-14.894 33.265-33.263 0-18.372-14.895-33.27-33.265-33.27z"/><g fill="#FF5046"><path d="M76.166 36.267L64.32 15.355h-.028a2.83 2.83 0 0 0-2.51-1.533 2.837 2.837 0 0 0-2.55 1.587h-.006L47.143 36.19a2.802 2.802 0 0 0-.523 1.63 2.85 2.85 0 0 0 2.846 2.858l24.345.05a2.853 2.853 0 0 0 2.857-2.847c0-.6-.185-1.153-.5-1.613z"/><path d="M55.123 25.91a30.535 30.535 0 0 1 1.574 9.704c0 16.918-13.716 30.634-30.635 30.634a30.53 30.53 0 0 1-13.737-3.252c5.866 5.18 13.568 8.326 22.007 8.326 18.37 0 33.265-14.894 33.265-33.263 0-5.974-1.58-11.57-4.334-16.413l-8.14 4.263z"/></g></svg>