<svg xmlns="http://www.w3.org/2000/svg" width="80" height="79" viewBox="0 0 80 79"><path fill="#006F66" d="M24.333 21H70a5 5 0 0 1 5 5v35.333a5 5 0 0 1-5 5h-1.28L71.667 75l-23.92-8.667H24.333a5 5 0 0 1-5-5V26a5 5 0 0 1 5-5z"/><path fill="#00DBDB" d="M55.167 5.333H9.5a5 5 0 0 0-5 5v35.333a5 5 0 0 0 5 5h1.28l-2.947 8.667 23.92-8.667h23.413a5 5 0 0 0 5-5V10.333a5 5 0 0 0-5-5z"/><path fill="#00C6C6" d="M55.167 50.667a5 5 0 0 0 5-5V28.03L43.803 14.59l-13.37 16.392-8.43-6.893-5.67 6.933 23.93 19.644h14.904z"/><path fill="#444846" d="M50.744 20.253l-6.94-5.662L30.43 30.983l-8.428-6.893-5.67 6.933L31.45 43.388z"/></svg>