<svg xmlns="http://www.w3.org/2000/svg" width="77.666" height="77.667" viewBox="0 0 77.666 77.667"><circle fill="#78F1FF" cx="38.833" cy="38.894" r="35.224"/><path fill="#0084FD" d="M38.834 2.48C18.72 2.48 2.417 18.786 2.417 38.897c0 20.108 16.304 36.412 36.417 36.412 20.11 0 36.415-16.304 36.415-36.412 0-20.11-16.305-36.415-36.416-36.415zm29.868 48.294c-2.387 1.12-5.077 2.39-8.022 3.612 1.272-4.488 2.142-9.272 2.15-14.245h8.102a32.04 32.04 0 0 1-2.23 10.634zM6.736 40.14h8.1c.01 5.36 1.022 10.505 2.458 15.29-2.787-1.065-5.388-2.213-7.75-3.305A31.942 31.942 0 0 1 6.736 40.14zM37.588 6.796v8.103c-4.973.012-9.757.878-14.243 2.15 1.224-2.943 2.49-5.637 3.612-8.023a31.964 31.964 0 0 1 10.63-2.23zm11.718 12.81a67.636 67.636 0 0 1 6.782 2.035 68.155 68.155 0 0 1 2.033 6.78 22.05 22.05 0 0 0-8.814-8.815zm-9.23-4.646V6.794a31.97 31.97 0 0 1 10.634 2.23c1.188 2.53 2.54 5.406 3.83 8.56-4.52-1.378-9.382-2.382-14.463-2.626zm-10.034 3.834a22.022 22.022 0 0 0-10.497 9.625 69.8 69.8 0 0 1 2.345-7.662 60.19 60.19 0 0 1 8.152-1.964zM14.896 37.65h-8.16A31.963 31.963 0 0 1 9.54 25.67c2.522-1.165 5.308-2.397 8.31-3.52-1.548 4.81-2.69 10.028-2.954 15.5zm3.836 10.04a22 22 0 0 0 11.31 11.306c-3.154-.52-6.185-1.315-9.054-2.255-.94-2.866-1.736-5.9-2.256-9.05zm18.856 15.204v8.1a32.02 32.02 0 0 1-11.98-2.806c-1.09-2.364-2.24-4.964-3.306-7.753 4.784 1.438 9.926 2.447 15.286 2.46zm2.49-.06c5.472-.264 10.69-1.407 15.502-2.954-1.124 3-2.356 5.787-3.52 8.308a32.046 32.046 0 0 1-11.983 2.807v-8.162zm9.226-4.65a21.996 21.996 0 0 0 9.63-10.498 60.122 60.122 0 0 1-1.966 8.155c-2.428.89-4.992 1.7-7.664 2.344zM62.772 37.65c-.246-5.082-1.25-9.94-2.63-14.46 3.154 1.29 6.03 2.642 8.56 3.83a32.03 32.03 0 0 1 2.23 10.63h-8.16zm3.48-15.506a98.572 98.572 0 0 0-7.52-3.148 97.168 97.168 0 0 0-3.15-7.517 32.236 32.236 0 0 1 10.67 10.664zM22.08 11.478a99.536 99.536 0 0 0-2.914 6.892c-2.5.867-4.89 1.815-7.14 2.77a32.25 32.25 0 0 1 10.055-9.662zm-10.05 45.175c2.057.872 4.228 1.74 6.497 2.547.805 2.27 1.676 4.442 2.546 6.5a32.29 32.29 0 0 1-9.045-9.047zm44.557 9.05a113.96 113.96 0 0 0 2.77-7.144 98.27 98.27 0 0 0 6.89-2.914 32.33 32.33 0 0 1-9.66 10.056z"/><circle fill="#0084FD" cx="38.834" cy="38.894" r="19.213"/><path fill="#FFF" d="M29.94 31.853c.69-4.538 3.92-7.296 9.002-7.296 5.373 0 8.785 2.832 8.785 7.188 0 2.432-1.054 4.356-4.066 6.933-2.758 2.396-3.157 3.485-3.193 6.644h-3.74v-.836c0-3.376.69-4.9 3.086-7.333 2.432-2.432 3.014-3.63 3.014-5.408 0-2.07-1.417-3.558-3.848-3.558-2.58 0-4.176 1.815-4.358 4.72l-4.682-1.054zm11.18 21.38h-5.155v-4.9h5.155v4.9z"/></svg>