<svg xmlns="http://www.w3.org/2000/svg" width="77.666" height="77.667" viewBox="0 0 77.666 77.667"><path fill="#FF8200" d="M70.55 28.4c0-6.718-1.19-12.268-3.293-16.77-1.195.09-2.41.144-3.65.144-10.178 0-19.104-3.227-24.103-8.068-5 4.842-13.92 8.068-24.105 8.068-1.237 0-2.452-.053-3.647-.145C9.647 16.13 8.456 21.68 8.456 28.4c0 23.02 18.88 43.32 31.048 43.32 13.024 0 31.047-20.3 31.047-43.32z"/><g fill="#F1F1F1"><path d="M59.808 29.996a1.424 1.424 0 0 0-1.9-.664l-6.71 3.233c-4.125 1.69-9.898 2.143-11.562 2.24-1.697-.1-7.695-.57-11.833-2.353l-6.58-3.172a1.423 1.423 0 0 0-1.9.666 1.418 1.418 0 0 0 .666 1.896l6.625 3.194c-.054 2.12-.01 5.112.417 8.25l-5.904 2.59a1.42 1.42 0 1 0 1.14 2.604l5.27-2.312c.372 1.71.887 3.39 1.583 4.938l-5.884 4.44a1.42 1.42 0 0 0 1.71 2.27l5.563-4.2c1.764 2.576 4.295 4.4 7.92 4.654V38.294a1.204 1.204 0 0 1 2.41 0v19.978c3.577-.25 6.092-2.026 7.854-4.547l5.487 4.142a1.42 1.42 0 0 0 1.99-.277 1.42 1.42 0 0 0-.276-1.992l-5.796-4.374c.71-1.548 1.233-3.235 1.613-4.953l5.15 2.26a1.424 1.424 0 0 0 1.873-.728 1.424 1.424 0 0 0-.73-1.873l-5.777-2.537c.44-3.185.485-6.228.43-8.372l6.488-3.126a1.424 1.424 0 0 0 .664-1.898z"/><path d="M30.29 27.51a9.852 9.852 0 0 0-.532 3.177v.56c2.808 1.02 6.21 1.62 9.878 1.62 3.67 0 7.07-.602 9.88-1.62v-.56c0-1.113-.193-2.18-.533-3.177 1.97-1.242 3.163-2.854 3.163-4.622 0-2.56-2.502-4.8-6.244-6.05v.187c.893.89 1.414 1.965 1.414 3.12 0 1.104-.487 2.13-1.31 2.998a9.828 9.828 0 0 0-6.368-2.333c-2.43 0-4.65.88-6.37 2.334-.824-.868-1.313-1.894-1.313-3 0-1.154.522-2.228 1.416-3.12v-.185c-3.74 1.25-6.246 3.487-6.246 6.048 0 1.77 1.194 3.382 3.166 4.623z"/></g><path opacity=".2" fill="#010000" d="M67.257 11.628c-1.195.092-2.41.145-3.65.145-10.123 0-19.002-3.192-24.017-7.99V71.71c13.224 0 30.96-20.396 30.96-43.31 0-6.718-1.192-12.268-3.293-16.772z"/></svg>