<svg xmlns="http://www.w3.org/2000/svg" width="77.666" height="77.667" viewBox="0 0 77.666 77.667"><path fill="#FF8200" d="M72.133 38.906c0 18.454-14.958 33.414-33.41 33.414S5.313 57.36 5.313 38.906C5.312 20.456 20.27 5.5 38.722 5.5s33.41 14.956 33.41 33.406z"/><path opacity=".3" fill="#100030" d="M38.723 5.5a33.25 33.25 0 0 0-20.112 6.73v23.974S17.38 58.36 38.724 58.478c11.772.117 18.026-5.715 18.813-8.037 1.438-2.484 1.3-11.204 1.3-14.236V12.23A33.256 33.256 0 0 0 38.722 5.5z"/><path fill="#FFF" d="M46.124 43.774c-.188.642-.283 1.112-.283 1.41 0 .906.547 1.36 1.64 1.36.793 0 1.6-.294 2.43-.878.827-.582 1.57-1.385 2.23-2.402.66-1.015 1.206-2.19 1.64-3.528.434-1.34.65-2.76.65-4.268 0-2.222-.396-4.19-1.19-5.903-.788-1.713-1.862-3.165-3.22-4.35-1.353-1.188-2.927-2.092-4.717-2.712-1.79-.62-3.68-.932-5.676-.932-2.41 0-4.635.453-6.668 1.355-2.034.905-3.787 2.14-5.255 3.7-1.47 1.565-2.618 3.4-3.445 5.51-.83 2.11-1.245 4.386-1.245 6.835 0 2.485.435 4.784 1.304 6.894.867 2.11 2.064 3.926 3.593 5.453a16.33 16.33 0 0 0 5.378 3.557c2.056.85 4.272 1.272 6.65 1.272 2.718 0 5.253-.49 7.613-1.47 2.36-.978 4.217-2.392 5.577-4.236h4.405a15.5 15.5 0 0 1-3.08 3.9 19.02 19.02 0 0 1-4.265 2.964c-1.582.81-3.26 1.44-5.027 1.892-1.77.453-3.56.68-5.368.68-2.977 0-5.753-.547-8.334-1.64-2.58-1.09-4.82-2.588-6.722-4.49-1.9-1.9-3.4-4.144-4.492-6.724-1.09-2.58-1.637-5.34-1.637-8.276 0-2.9.553-5.623 1.665-8.164 1.112-2.543 2.618-4.756 4.52-6.64 1.902-1.883 4.125-3.37 6.666-4.463 2.542-1.094 5.247-1.64 8.11-1.64 2.636 0 5.12.433 7.457 1.3 2.334.867 4.378 2.06 6.13 3.587a16.972 16.972 0 0 1 4.152 5.424c1.017 2.092 1.523 4.38 1.523 6.865 0 2.414-.442 4.597-1.328 6.555-.883 1.958-1.995 3.636-3.332 5.026-1.338 1.395-2.777 2.47-4.322 3.223-1.545.752-2.976 1.126-4.293 1.126-.98 0-1.808-.308-2.485-.93-.676-.62-1.035-1.516-1.072-2.683h-.227c-.866.902-1.902 1.733-3.107 2.486a7.225 7.225 0 0 1-3.897 1.126c-1.21 0-2.29-.23-3.25-.704a7.32 7.32 0 0 1-2.43-1.892c-.66-.792-1.167-1.726-1.525-2.798-.358-1.074-.536-2.232-.536-3.473 0-1.848.3-3.674.904-5.483.602-1.808 1.448-3.417 2.54-4.83a12.83 12.83 0 0 1 3.984-3.417c1.56-.868 3.306-1.3 5.226-1.3 1.318 0 2.523.33 3.617.988 1.092.66 1.9 1.762 2.43 3.304h.11l.904-3.22h4.126l-4.746 15.652zM39.966 31.46c-1.32 0-2.484.29-3.502.87a7.984 7.984 0 0 0-2.572 2.374c-.695 1-1.224 2.13-1.58 3.39a14.33 14.33 0 0 0-.538 3.928c0 1.395.31 2.496.933 3.305.62.81 1.648 1.218 3.078 1.218 1.13 0 2.175-.332 3.137-.99a9.526 9.526 0 0 0 2.456-2.457 12.1 12.1 0 0 0 1.584-3.248c.375-1.188.564-2.328.564-3.42 0-1.32-.292-2.477-.876-3.477-.585-.995-1.48-1.494-2.684-1.494z"/></svg>