<svg xmlns="http://www.w3.org/2000/svg" width="59.39" height="59.712" viewBox="0 0 59.39 59.712"><path fill="#293E4C" d="M59.39 54.514a3.26 3.26 0 0 1-3.26 3.26H3.26A3.26 3.26 0 0 1 0 54.514c0-1.8 1.46-3.258 3.26-3.258h52.87a3.256 3.256 0 0 1 3.26 3.258z"/><path fill="#5CD5FF" d="M44.31 57.33a2.38 2.38 0 0 1-2.38 2.382H17.458a2.38 2.38 0 0 1-2.38-2.38v-5.635a2.378 2.378 0 0 1 2.38-2.38H41.93a2.38 2.38 0 0 1 2.38 2.38v5.634z"/><path fill="#5CD5FF" d="M32.513 42.39a2.38 2.38 0 0 1 2.38 2.38v10.2a2.38 2.38 0 0 1-2.38 2.378h-5.637a2.38 2.38 0 0 1-2.38-2.38V44.772a2.38 2.38 0 0 1 2.38-2.38h5.637z"/><path opacity=".1" d="M24.497 42.39h10.395v5.102H24.497z"/><path fill="#4494C1" d="M59.347 39.73a5.563 5.563 0 0 1-5.562 5.562H5.625A5.563 5.563 0 0 1 .06 39.73V5.563A5.564 5.564 0 0 1 5.624 0h48.16a5.563 5.563 0 0 1 5.562 5.564V39.73z"/><path fill="#293E4C" d="M55.646 35.714a5.826 5.826 0 0 1-5.827 5.824H8.902a5.825 5.825 0 0 1 0-11.648h40.914a5.827 5.827 0 0 1 5.828 5.824zM55.646 22.706a5.825 5.825 0 0 1-5.827 5.824H8.902a5.825 5.825 0 0 1 0-11.648h40.914a5.826 5.826 0 0 1 5.828 5.824zM55.646 9.697a5.825 5.825 0 0 1-5.827 5.824H8.902a5.825 5.825 0 0 1 0-11.648h40.914a5.827 5.827 0 0 1 5.828 5.825z"/><circle fill="#5CD5FF" cx="8.947" cy="9.697" r="2.714"/><circle fill="#5CD5FF" cx="8.947" cy="22.801" r="2.714"/><circle fill="#5CD5FF" cx="8.947" cy="35.778" r="2.714"/><g fill="#FFF"><path d="M49.97 8.01c0 .514-.297.93-.662.93h-32.62c-.366 0-.663-.416-.663-.93 0-.516.297-.934.662-.934h32.62c.366 0 .663.42.663.933zM49.97 11.386c0 .514-.297.932-.662.932h-32.62c-.366 0-.663-.418-.663-.932 0-.515.297-.933.662-.933h32.62c.366 0 .663.418.663.933z"/></g><g fill="#FFF"><path d="M49.97 21.018c0 .514-.297.932-.662.932h-32.62c-.366 0-.663-.417-.663-.932 0-.516.297-.933.662-.933h32.62c.366 0 .663.417.663.933zM49.97 24.394c0 .514-.297.932-.662.932h-32.62c-.366 0-.663-.417-.663-.932 0-.516.297-.933.662-.933h32.62c.366 0 .663.418.663.934z"/></g><g fill="#FFF"><path d="M49.97 34.026c0 .516-.297.933-.662.933h-32.62c-.366 0-.663-.418-.663-.934 0-.515.297-.933.662-.933h32.62c.366 0 .663.42.663.933zM49.97 37.403c0 .514-.297.933-.662.933h-32.62c-.366 0-.663-.418-.663-.933 0-.515.297-.933.662-.933h32.62c.366 0 .663.42.663.933z"/></g><path opacity=".1" d="M59.347 39.73a5.563 5.563 0 0 1-5.562 5.562H5.625L53.784 0a5.563 5.563 0 0 1 5.56 5.564V39.73z"/></svg>