<svg xmlns="http://www.w3.org/2000/svg" width="77.666" height="77.667" viewBox="0 0 77.666 77.667"><path fill="#098CFA" d="M3.266 22.708v40.924c0 3.13 2.557 5.666 5.71 5.666h59c3.154 0 5.71-2.536 5.71-5.666V22.708H3.267z"/><path opacity=".1" fill="#010000" d="M50.527 30.517l-7.982 19.72-17.528 10.475 8.455 8.586h34.504a5.71 5.71 0 0 0 5.71-5.71v-9.39l-23.16-23.68z"/><path fill="#FFF" d="M30.173 62.806c4.672.158 10.936-5.508 10.936-5.508s2.395-1.97 5.017-5.36c2.496-3.247 2.363-3.243 4.107-6.16 0 0 4.057-7.405 2.818-11.913-2.227-5.125-5.75-4.775-5.75-4.775l-2.414 9.41c1.773 1.473.703 3.738.154 4.56-.457.69-2.846 3.84-3.623 4.858-.015-.002-3.485 4.234-4.16 4.96-.673.724-2.628 2.292-4.474.91l-8.596 4.53c.003 0 .48 3.51 5.983 4.488"/><path fill="#FFF" d="M29.433 51.554l-5.37 2.854a4.915 4.915 0 0 0-.27 3.05l8.332-4.43a4.92 4.92 0 0 0-2.692-1.474M46.37 28.9a4.906 4.906 0 0 0-2.903.97l-1.53 5.888a4.897 4.897 0 0 0 2.06 2.27L46.37 28.9z"/><path fill="#FF5046" d="M67.976 9.648h-59a5.71 5.71 0 0 0-5.71 5.71v7.696h70.42V15.36a5.71 5.71 0 0 0-5.71-5.712z"/><path fill="#FFF" d="M12.922 16.43a2.744 2.744 0 0 1-2.748 2.743 2.744 2.744 0 0 1-2.748-2.742 2.747 2.747 0 1 1 5.496 0zM20.892 16.43a2.744 2.744 0 0 1-2.748 2.743 2.747 2.747 0 0 1 0-5.492 2.75 2.75 0 0 1 2.748 2.75zM69.527 16.75c0 1.363-1.072 2.47-2.398 2.47h-41.4c-1.324 0-2.398-1.106-2.398-2.47 0-1.365 1.074-2.473 2.398-2.473h41.398c1.327 0 2.4 1.107 2.4 2.473z"/></svg>