<svg baseProfile="basic" xmlns="http://www.w3.org/2000/svg" width="36" height="30" viewBox="0 0 36 30"><path fill="#FF3827" d="M36 25.1c0 1.6-1.3 2.9-2.9 2.9H2.9C1.3 28 0 26.7 0 25.1V4.9C0 3.3 1.3 2 2.9 2h30.2C34.7 2 36 3.3 36 4.9v20.2z"/><path fill="#EFEBDE" d="M2.7 2L18 13.2 33.3 2zM4.2 28h27.6L4.2 8.5z"/><path fill="#EFEBDE" d="M31.8 28H4.2L31.8 8.5z"/><path opacity=".26" fill="#060000" d="M36 25.1V5.5L18 18.2 31.7 28H33c1.7 0 3-1.3 3-2.9zM4.3 27.5v.3l13.5-9.3h-.1s-5.8 3.8-6.4 4.2c-.6.4-7 4.8-7 4.8z"/></svg>