<svg xmlns="http://www.w3.org/2000/svg" width="82" height="67" viewBox="0 0 82 67"><title>effect финал</title><rect width="60" height="60" rx="10.286" ry="10.286" fill="#fbb315"/><path d="M60,49.714V25.175L39.826,10.085l-8.215,8.179L33.946,30.78l-4.857,8.512,2.458,15.225L39.688,60H49.714A10.316,10.316,0,0,0,60,49.714Z" fill="#f7a019"/><path d="M81.927,44.319A21,21,0,1,0,60.513,66.988c.163,0,.324.012.487.012A21,21,0,0,0,82,46C82,45.433,81.971,44.874,81.927,44.319Z" fill="#00b05a"/><path d="M82,46c0-.567-.029-1.126-.073-1.681L69.212,34l-2.279,5.441-.646,6.5L59.88,54.65l-1,.714L55.81,52.3,50.9,55.425,50.244,56.9,60.513,66.988c.163,0,.324.012.487.012A21,21,0,0,0,82,46Z" fill="#007d40" opacity="0.4"/><path d="M53.977,58.606c3.525.114,8.244-4.172,8.244-4.172A27.276,27.276,0,0,0,66,50.379a30.909,30.909,0,0,0,3.088-4.652s3.051-5.594,2.112-9c-1.69-3.864-4.349-3.594-4.349-3.594l-1.805,7.1c1.341,1.11.536,2.824.122,3.442-.345.521-2.143,2.9-2.726,3.672-.01,0-2.625,3.2-3.132,3.749s-1.981,1.735-3.375.694L49.455,55.23S49.82,57.878,53.977,58.606Z" fill="#fff"/><path d="M55.435,51.225A3.725,3.725,0,0,0,53.4,50.116l-4.047,2.162a3.685,3.685,0,0,0-.2,2.3Z" fill="#fff"/><path d="M64.37,39.888l1.778-6.895a3.7,3.7,0,0,0-2.191.739l-1.145,4.443A3.684,3.684,0,0,0,64.37,39.888Z" fill="#fff"/><path d="M29.33,39.6a1.333,1.333,0,0,1,.01-.511c-.128.012-.257.022-.38.039l-.055.007c-.209.03-.391.062-.564.1l-.057.012a4.537,4.537,0,0,0-1.978.854l-.026.024a2.524,2.524,0,0,0-.2.191l-.06.075c-.046.055-.086.1-.12.148l-.1.173c-.014.023-.029.045-.04.069l-.026.049a3.993,3.993,0,0,0-.316,1.934l.162,2.024.027.049,5.284,9.341a.689.689,0,0,0,1.274-.472Z" fill="#fff"/><path d="M32.693,20.878l-.078,0-.118.009c-.174.014-.345.03-.513.049-2.567.285-4.291,1.1-5,2.36l-.018.031a3.1,3.1,0,0,0-.15.328l-.037.093a3.072,3.072,0,0,0-.1.338c-.019.077-.033.148-.046.219a7.426,7.426,0,0,0,.132,2.747l.564,2.732h5.49a1.179,1.179,0,0,0,.779-.246c.4-.333.344-.586.344-.586l-1.405-6.905A1.776,1.776,0,0,1,32.693,20.878Z" fill="#fff"/><polygon points="25.594 26.177 38.17 32.616 40.989 22.581 30 17.517 24.908 19.501 25.594 26.177" fill="#f7a019" opacity="0.3"/><path d="M39.332,7.332a1.683,1.683,0,0,1-1.745,1.982H23.48a4.469,4.469,0,0,0-3.963,6.794l6.327,11.141a8.245,8.245,0,0,1-.142-3.072l.006-.038c.016-.088.034-.176.055-.261a4.044,4.044,0,0,1,.13-.444c.015-.041.032-.08.047-.12a3.865,3.865,0,0,1,.219-.468h0l0-.006c.88-1.564,2.854-2.517,5.7-2.833l.015,0c.189-.021.381-.039.578-.054h.006c.1-.009.2-.014.306-.02.4-.028.806-.047,1.229-.047l.283,0h0a34.73,34.73,0,0,0,3.491-.1C41.974,19.221,39.521,8.417,39.332,7.332Z" fill="#fff"/><polygon points="38.644 40.15 26.305 36.892 24.075 40.642 24.473 42.841 34.666 50.846 38.644 40.15" fill="#f7a019" opacity="0.3"/><path d="M34.2,30.156a1.42,1.42,0,0,1-.148.171,1.809,1.809,0,0,1-1.235.405H23.008A3.142,3.142,0,0,0,20.272,35.5l4.2,7.343a4.9,4.9,0,0,1,.421-2.45c0-.009.01-.017.015-.026.032-.065.071-.126.108-.188s.065-.117.1-.173c.054-.078.117-.152.179-.225.029-.034.054-.07.085-.1a3.337,3.337,0,0,1,.278-.264c.013-.012.025-.024.038-.035a5.484,5.484,0,0,1,2.4-1.054h0l.007,0,.03-.006c.2-.043.4-.079.607-.11l.089-.012q.333-.046.686-.07h.009l.988-.032c.446,0,1.821-.016,2.449-.094C35.432,37.68,34.607,32.283,34.2,30.156Z" fill="#fff"/></svg>