<svg xmlns="http://www.w3.org/2000/svg" width="40.884" height="44.78" viewBox="0 0 40.884 44.78"><path fill="#06B57E" d="M40.884 16.26c0-4.423-.784-8.078-2.17-11.044-.786.062-1.586.097-2.4.097-6.704 0-12.58-2.124-15.87-5.313C17.15 3.19 11.276 5.313 4.57 5.313c-.815 0-1.615-.035-2.402-.097C.784 8.183 0 11.836 0 16.26 0 31.42 12.43 44.78 20.442 44.78c8.576 0 20.442-13.362 20.442-28.52z"/><g fill="#FFF"><path d="M28.638 33a1.33 1.33 0 0 1-1.328 1.33H13.574A1.33 1.33 0 0 1 12.246 33V21.26c0-.734.594-1.33 1.328-1.33H27.31a1.33 1.33 0 0 1 1.328 1.33V33z"/><path d="M20.442 33.525a6.21 6.21 0 0 1-6.203-6.202V15.528a6.21 6.21 0 0 1 6.202-6.2 6.21 6.21 0 0 1 6.203 6.2v11.795a6.21 6.21 0 0 1-6.203 6.202zm0-21.54a3.55 3.55 0 0 0-3.546 3.543v11.795a3.55 3.55 0 0 0 3.546 3.544 3.548 3.548 0 0 0 3.544-3.544V15.528a3.55 3.55 0 0 0-3.544-3.543z"/></g><g fill="#06B57E"><path d="M22.5 25.415a2.058 2.058 0 1 1-2.058-2.056 2.06 2.06 0 0 1 2.058 2.056z"/><path d="M21.47 30.643c0 .567-.46 1.027-1.03 1.027-.568 0-1.028-.46-1.028-1.027v-5.74a1.028 1.028 0 0 1 2.058 0v5.74z"/></g><path opacity=".1" fill="#010000" d="M38.704 5.216c-.787.062-1.587.097-2.402.097-6.667 0-12.51-2.102-15.812-5.26v44.723c8.705 0 20.384-13.428 20.384-28.514 0-4.425-.786-8.08-2.17-11.046z"/></svg>