<svg xmlns="http://www.w3.org/2000/svg" width="59.604" height="85.888" viewBox="0 0 59.604 85.888"><path fill="#80CEF1" d="M59.604 85.888V.018C59.23.012 58.86 0 58.487 0 28.464 0 4.117 24.34 4.117 54.365A54.1 54.1 0 0 0 14.2 85.888h45.404z"/><path fill-rule="evenodd" clip-rule="evenodd" fill="#18A538" d="M23.395 64.993c-.298-.126-.713-.208-.99-.246-.365-.042-.636-.056-.886 0-.742.22-.79.992 1.218 2.2.537.716 1.515 1.368 2.438 1.012.537-1.526-.578-2.454-1.78-2.868 0-.1.01-.07 0-.1zM31.8 49.594c.088.08.145.204.223.218h.115c.54.156 1.066-.393.657-.428-.163-.03-.476.014-.995.21zM44.392 44.847c-.86.147-1.068.723.783 1.995.23-.063 1.82-.42.886.54 2.873-1.713-.2-2.796-1.668-2.535zM44.392 32.567c3.095-1.258 3.81-9.407.123-9.167-.24 0-.48.12-.78.23 1.542 2.846-2.015 6.464.657 8.937zM52.25 18.103c.892-.416 1.32-1.897 0-1.897-.24-.062-.42-.126-.658-.11-.24.006-.478.09-.652.11-2.61.52-1.817 4.847 1.31 1.897z"/><path fill-rule="evenodd" clip-rule="evenodd" fill="#18A538" d="M59.604 17.983c-1.012-.794-2.35-1.063-3.696-.892-3.778.478-7.588 4.124-4.076 7.735 2.517 3.14-3.63 9.547 2.2 11.19 1.296-2.896 3.85-5.457 5.572-8.258v-9.774z"/><path fill="#18A538" d="M17.995 74.8c2.316 2.9 1.202 6.238 1.025 9.414-.06.02.028.098.028.113-.032.527-.02 1.047.03 1.56h23.14c-2.665-2.403-5.393-4.722-8.765-6.205-5.125-4.974-16.68-1.883-16.47-11.288.534-4.468-3.052-6.624-5.743-8.725-2.068-6.914 10.54-9.458 10.723-1.885 4.152-.218 5.607-7.46 10.402-8.506 2.467-2.145 9.15.162 6.732-4.216 2.39-2.27 9.395-2.19 5.968-7.502-1.15-5.177-7.513-7.68-9.607-1.783-5.76 1.542-3.437-10.954 2.423-9.29 4.252.246 3.674-3.448 1.098-4.636 0-.183-.055-.28-.218-.12-.47-.175-.964-.357-1.545-.33-5.746-3.175 5.75-11.268-1.865-13.832-8.355 7.137-21.102 18.37-26.205 28.865-2.304 6.58-1.92 13.206-1.652 20.126 2.342 6.702 6.885 12.23 10.502 18.237zM59.604.22c-.458-.01-.916-.023-1.376-.023-1.475 0-2.975.09-4.432.21-.756.162-1.592.26-2.443.338-.29.028-.583.062-.87.112-3.054.43-5.968.96-8.834 1.868 6.054-.442 12.24-.397 17.954 1.413V.22z"/><g opacity=".2" fill="#010100"><path d="M6.763 37.61c-.014.043-.024.07-.033.105.5-.026.947-.063.947-.104h-.914z"/><path d="M12.41 55.075A64.218 64.218 0 0 0 14.97 72.44c-6.407-.913-7.244-1.75-7.334-1.867a.313.313 0 0 1 .043.173h-1.04c.156.492.327.984.5 1.47.75.43 1.924.8 3.6 1.158 1.316.282 2.904.55 4.772.802a58.764 58.764 0 0 0 5.275 11.713h1.903c-2.168-3.528-4-7.372-5.398-11.49a148 148 0 0 0 4.546.473c4.757.436 10.286.772 16.3 1.003a97.537 97.537 0 0 0 2.212 10.014h1.688a94.745 94.745 0 0 1-2.244-9.95c5.592.188 11.573.304 17.728.304v9.646h1.624v-9.646l.46-.002v-1.65h-.46V55.076h.46V53.43h-.46V33.77l.46.002v-1.65l-.46-.002V13.684c.154 0 .307.004.46.005v-1.652c-.153 0-.306-.005-.46-.005V1.188c.154.016.308.047.46.072V.028C59.23.02 58.862 0 58.488 0c-4.073 0-8.044.463-11.868 1.314C38.846 3.764 31.86 8.59 26.273 15.11c-.438.105-.877.204-1.303.31-2.05.5-4.226 1.124-6.244 1.883-.88.94-1.725 1.917-2.532 2.914 2.072-1.08 4.903-2.107 8.367-3-3.785 4.91-6.835 10.642-8.932 16.958-1.917.253-3.556.526-4.894.815-1.566.337-2.693.68-3.445 1.082-.16.43-.304.856-.44 1.286 1.54-.36 4.258-.886 8.234-1.45-1.648 5.49-2.585 11.38-2.67 17.522H4.15c-.01.31-.032.62-.032.934 0 .24.018.472.02.71h8.273zM57.52 74.59c-6.24 0-12.324-.114-18.004-.317-.933-6.025-1.444-12.51-1.478-19.198h19.48V74.59zm0-21.16H38.04c.044-6.736.57-13.276 1.54-19.346a537.3 537.3 0 0 1 17.94-.316V53.43zm0-21.312c-6.134.007-12.09.11-17.665.31 1.02-5.888 2.473-11.29 4.308-15.975.312-.81.636-1.575.963-2.32a185.99 185.99 0 0 1 12.394-.448v18.433zm0-20.085c-3.972.013-7.862.147-11.607.4C49.27 5.556 53.3 1.63 57.52 1.188v10.845zm-5.394-10.36c-2.972 2.133-5.71 5.82-8.075 10.894-5.45.42-10.547 1.08-15.08 1.975 6.363-6.77 14.347-11.388 23.156-12.87zM27.14 16.6c4.744-1.047 10.228-1.826 16.152-2.32-.22.506-.435 1.026-.643 1.56-1.9 4.882-3.4 10.517-4.454 16.65-6.037.225-11.588.57-16.365.997-1.583.15-3.058.303-4.414.464 2.273-6.54 5.603-12.43 9.723-17.35zM16.85 35.672a195.6 195.6 0 0 1 6.303-.646c4.376-.373 9.38-.666 14.772-.878-.943 6.07-1.465 12.574-1.51 19.284H14.032c.094-6.24 1.085-12.217 2.82-17.76zm19.565 19.403c.036 6.652.533 13.11 1.45 19.144-5.366-.214-10.343-.508-14.708-.88a175.617 175.617 0 0 1-6.422-.668 62.35 62.35 0 0 1-2.703-17.597h22.383z"/></g><g><path fill="#EFC516" d="M33.126 85.888H47.63l11.974-6.95V27.002l-19.35-7.52L7.037 32.57l.09 38.388z"/><path opacity=".2" fill="#363636" d="M59.604 26.95l-18.732-6.53c1.622-1.125-34.136 13.694-34.136 13.694l.024 10.37 33.084 17.35 19.76-9.15V26.95z"/><path fill="#EFC516" d="M59.604 26.012l-18.733-6.53c1.62-1.125-35.823 13.135-35.823 13.135l.02 10.373 34.397 16.408 20.14-8.226v-25.16z"/><path fill="#DDB614" d="M59.604 25.875l-18.922-6.768c1.62-1.125-35.636 13.51-35.636 13.51v.62c8.068 2.794 34.637 13.48 34.637 13.48l19.92-8.94V25.876z"/><path opacity=".2" fill="#363636" d="M47.63 85.888l11.974-6.95V37.842l-19.92 8.875.662 39.17z"/><path fill="#DC3E0E" d="M17.317 76.665l.932-27.21-.554-.442.15-10.947 34.525-14.74 6.503 2.357-32.943 15.88s-.08 4.915-.176 11.294c-.002.152.558.112.556.265-.176 11.753-.965 28.296-.87 28.35.146.085-8.123-4.807-8.123-4.807z"/><path opacity=".2" fill="#363636" d="M18.245 49.588l8.065 3.534-.026 1.598-8.07-4.23.02-.71"/><path fill="#DC3E0E" d="M59.604 37.325L29.238 23.14 22.98 25.55 52.04 41.128l.72 12.84-.904.464 1.168 28.437 6.582-3.847z"/><path opacity=".2" fill="#363636" d="M59.604 51.5l-7.75 2.932.167 1.85 7.584-3.46z"/><path fill="#B83815" d="M40.967 30.365S9.214-4.678 6.21 18.88C3.204 42.44 25.204 33.167 39.25 33.14c2.565-.005 1.717-2.775 1.717-2.775zm-7.845-.675c-8.577.016-22.02 5.68-20.182-8.71 1.838-14.39 21.232 7.015 21.232 7.015s.52 1.692-1.05 1.695z"/><path fill="#B83815" d="M59.604 31.383c-5.987.185-12.13-.77-12.13-.77s-1.365-.977.02-1.948c3.885-2.724 8.102-7.374 12.11-9.62v-4.743C53.176 18.067 46.442 25.442 40.23 29.8c-2.266 1.59-.03 3.192-.03 3.192s9.748 1.517 19.404 1.273v-2.882z"/><path opacity=".2" fill="#363636" d="M35.432 31.423c-.562.094-1.86 5.972-6.447 7.824-4.585 1.853 4.22 1.74 6.472 2.67 2.25.932 4.947-9.193 4.38-10.503-.567-1.313-4.405.01-4.405.01z"/><path fill="#B83815" d="M34.306 31.614c-.56.095-1.857 5.97-6.444 7.824-4.59 1.853 4.218 1.74 6.47 2.67 2.252.93 4.945-9.193 4.38-10.504-.566-1.313-4.406.01-4.406.01z"/><path opacity=".2" fill="#363636" d="M39.72 32.443s3.037 5.988 3.322 7.77c.283 1.78 9.28 2.198 9.178-.46-.098-2.654-9.385-7.317-9.385-7.317l-3.115.007z"/><path fill="#B83815" d="M40.283 32.067s3.034 5.99 3.32 7.77c.284 1.778 9.282 2.197 9.18-.46-.1-2.655-9.387-7.317-9.387-7.317l-3.113.007z"/><path fill="#A72E11" d="M34.675 28.145s10.02-2.553 11.432.816c1.414 3.37-2.105 4.57-3.457 4.882-1.346.312-3.475.224-4.594-.21-1.12-.433-4.032-3.33-3.38-5.487z"/></g><g><path fill="#06B57E" d="M38.482 52.284c0-4.165-.74-7.604-2.04-10.396a28.48 28.48 0 0 1-2.263.092c-6.312 0-11.843-2-14.94-5-3.098 3-8.628 5-14.94 5-.766 0-1.518-.034-2.26-.092C.74 44.68 0 48.118 0 52.284 0 66.55 11.7 79.127 19.242 79.127c8.07 0 19.24-12.577 19.24-26.843z"/><g fill="#FFF"><path d="M26.955 68.04c0 .69-.56 1.25-1.25 1.25h-12.93c-.69 0-1.25-.56-1.25-1.25V56.99c0-.692.56-1.253 1.25-1.253h12.93c.69 0 1.25.56 1.25 1.252v11.05z"/><path d="M19.24 68.534a5.845 5.845 0 0 1-5.84-5.837V51.594a5.846 5.846 0 0 1 5.84-5.837c3.22 0 5.84 2.62 5.84 5.837v11.103c0 3.22-2.62 5.837-5.84 5.837zm0-20.275a3.34 3.34 0 0 0-3.337 3.334v11.103c0 1.838 1.497 3.336 3.337 3.336s3.336-1.498 3.336-3.336V51.594a3.34 3.34 0 0 0-3.336-3.335z"/></g><g fill="#06B57E"><path d="M21.18 60.9a1.942 1.942 0 0 1-1.938 1.937A1.937 1.937 0 1 1 21.18 60.9z"/><path d="M20.21 65.822a.968.968 0 0 1-.97.966.968.968 0 0 1-.97-.966v-5.405a.97.97 0 0 1 1.938 0v5.405z"/></g><path opacity=".1" fill="#010000" d="M36.43 41.887c-.74.06-1.494.092-2.26.092-6.277 0-11.777-1.98-14.884-4.952v42.094c8.192 0 19.187-12.64 19.187-26.84 0-4.163-.74-7.602-2.043-10.395z"/></g></svg>