<svg xmlns="http://www.w3.org/2000/svg" width="71.999" height="67.311" viewBox="0 0 71.999 67.311"><path fill="#575756" d="M71.68 63.807s-4.27-12.232-5.313-14.41c-1.04-2.18-2.243-3.088-3.79-3.792-1.543-.703-17.46-7.696-17.46-7.696l-9.118.7-9.118-.7S10.964 44.9 9.422 45.604c-1.547.704-2.75 1.613-3.793 3.79C4.586 51.576.32 63.808.32 63.808s-1.327 3.505 1.42 3.505H70.255c2.752 0 1.425-3.505 1.425-3.505"/><path fill="#DADADA" d="M44.77 67.312l5.36-27.278-14.6 6.963-14.537-6.963 5.874 27.278z"/><path fill="#E9B990" d="M43.834 38.35c0 4.22-3.67 7.635-8.196 7.635S27.44 42.57 27.44 38.35v-8.687c0-4.22 3.67-7.64 8.198-7.64s8.196 3.42 8.196 7.64v8.688z"/><path fill="#FFC58F" d="M43.834 36.972c0 4.218-3.67 7.636-8.196 7.636s-8.198-3.418-8.198-7.636v-8.687c0-4.218 3.67-7.638 8.198-7.638s8.196 3.42 8.196 7.638v8.687z"/><path fill="#FFD196" d="M48.927 17.916a1.606 1.606 0 0 0-.533.065C47.298 9.75 42.168 3.52 36 3.52c-10.712 0-11.297 6.23-12.397 14.462a1.588 1.588 0 0 0-.53-.065c-.953.07-1.67.9-1.597 1.854l.354 4.83c.072.95.902 1.67 1.854 1.6.068-.005.12-.04.185-.052 1.503 7.44 6.36 12.897 12.13 12.897 5.77 0 10.62-5.458 12.13-12.897.065.012.118.047.186.05.95.072 1.782-.646 1.85-1.597l.36-4.83a1.732 1.732 0 0 0-1.6-1.854"/><g fill="#7C5947"><path d="M23.846 18.984c0 .367-.306.66-.683.66s-.683-.293-.683-.66c0-.363.305-.656.683-.656s.683.293.683.656M49.52 18.984a.67.67 0 0 1-.684.66.67.67 0 0 1-.683-.66.67.67 0 0 1 .683-.656c.377 0 .684.293.684.656"/><path d="M36 0c-7.47 0-13.52 5.25-13.52 11.725v7.26h1.366v-2.657c0-2.233 1.068-2.71 1.913-2.132 0 0 4.318 2.584 10.81 0 10.272-4.09 11.582.954 11.582 2.132v2.657h1.367v-7.26C49.52 5.25 43.464 0 36 0"/></g><path fill="#FC762B" d="M40.833 45.598h-9.446l3.966 8.037-2.502 13.677h6.786l-2.58-13.677z"/><path fill="#F6F6F6" d="M45.06 36.567l5.083 3.322-6.67 13.167-7.912-7.46z"/><path fill="#F6F6F6" d="M26.61 36.567l-5.083 3.322 6.67 13.167 7.913-7.46z"/><path opacity=".5" fill="#1D1D1B" d="M48.314 67.312a643.25 643.25 0 0 0 3.082-8.718l-.842-4.585 2.433-1.218 1.87-10.482-4.117-1.96-6.662 26.962h4.236z"/><path fill="#5E5E5E" d="M47.72 67.312a609.788 609.788 0 0 0 3.15-8.906l-.84-4.586 2.432-1.216 1.87-10.48-4.117-1.96-6.71 27.148h4.215z"/><path opacity=".5" fill="#1D1D1B" d="M23.34 67.312a643.25 643.25 0 0 1-3.08-8.718l.84-4.585-2.433-1.218-1.87-10.482 4.117-1.96 6.663 26.962H23.34z"/><path fill="#5E5E5E" d="M23.935 67.312c-1.434-3.927-3.15-8.906-3.15-8.906l.842-4.586-2.434-1.216-1.87-10.48 4.117-1.96 6.708 27.148h-4.213z"/><path opacity=".1" d="M71.68 63.807s-4.27-12.232-5.313-14.41c-1.04-2.18-2.243-3.088-3.79-3.792-.875-.398-6.368-2.817-10.963-4.84l-.874-.416-.007.028-.618-.272.014-.07-.08.037.092-.184-5.083-3.322-1.227 1.166v-2.55c2.035-2.28 3.562-5.42 4.297-9.036.064.012.117.047.185.05.95.072 1.782-.646 1.85-1.597l.36-4.83a1.722 1.722 0 0 0-1.005-1.694v-6.35C49.52 5.25 43.465 0 36 0c-.022 0-.043.003-.066.003v67.31h34.322c2.75 0 1.423-3.506 1.423-3.506zM48.15 16.327v.198c-.11-.562-.24-1.11-.39-1.648.302.592.39 1.148.39 1.45z"/><path fill="#A0A0A0" d="M41.617 35.72l-.42-.907c8.804-4.062 8.834-10.746 8.832-11.028l1-.015c.004.308.007 7.603-9.413 11.95z"/><path fill="#575756" d="M51.637 25.223c-.04.698-.803 1.224-1.708 1.174-.906-.05-1.607-.656-1.57-1.355l.32-5.787c.04-.697.804-1.223 1.71-1.172.904.05 1.605.656 1.567 1.354l-.32 5.786zM42.885 34.398c.295.5.27 1.065-.06 1.258l-1.766 1.037c-.33.194-.834-.057-1.13-.56-.294-.5-.268-1.065.06-1.257l1.767-1.038c.328-.193.833.058 1.128.56z"/></svg>