<svg xmlns="http://www.w3.org/2000/svg" width="152.63" height="181.845" viewBox="0 0 152.63 181.845"><path fill="#80CEF1" d="M152.63 0H71.178C29.2 19.038 0 61.31 0 110.402c0 26.515 8.524 51.032 22.973 70.983H152.63V0z"/><path fill-rule="evenodd" clip-rule="evenodd" fill="#18A538" d="M42.964 134.087c-.666-.28-1.59-.464-2.21-.547-.813-.095-1.418-.125-1.973 0-1.65.488-1.76 2.21 2.718 4.905 1.2 1.593 3.375 3.047 5.434 2.25 1.195-3.4-1.292-5.465-3.968-6.388 0-.22.022-.154 0-.22zM61.695 99.768c.193.175.322.454.494.486h.255c1.207.346 2.38-.875 1.465-.954-.36-.064-1.055.03-2.215.468zM89.76 89.188c-1.92.327-2.383 1.61 1.743 4.444.51-.14 4.058-.938 1.976 1.205 6.4-3.816-.448-6.23-3.72-5.65zM89.76 61.818c6.896-2.803 8.486-20.964.273-20.43-.53 0-1.066.265-1.74.515 3.44 6.342-4.49 14.406 1.467 19.915zM107.27 29.583c1.99-.927 2.945-4.23 0-4.23-.533-.14-.93-.28-1.464-.248-.53.014-1.064.202-1.454.248-5.816 1.162-4.047 10.805 2.92 4.23z"/><path fill-rule="evenodd" clip-rule="evenodd" fill="#18A538" d="M115.422 27.328c-8.42 1.063-16.91 9.19-9.082 17.238 5.607 6.998-8.094 21.278 4.906 24.94 5.157-11.54 19.274-20.684 15.783-34.756-1.457-6-6.537-8.065-11.608-7.422z"/><path fill="#18A538" d="M30.927 155.946c5.164 6.465 2.682 13.904 2.287 20.98-.137.047.063.218.063.25-.09 1.43-.068 2.832.125 4.21h52.32c-6.2-5.617-12.483-11.105-20.34-14.56-11.42-11.085-37.178-4.197-36.707-25.16 1.19-9.958-6.803-14.764-12.798-19.444-4.613-15.408 23.49-21.075 23.896-4.197 9.256-.485 12.497-16.626 23.185-18.96 5.5-4.78 20.39.362 15.004-9.394 5.323-5.06 20.938-4.882 13.3-16.722-2.56-11.537-16.743-17.115-21.41-3.973-12.84 3.44-7.662-24.41 5.4-20.7 9.473.546 8.185-7.686 2.444-10.335 0-.406-.125-.626-.484-.266-1.05-.39-2.15-.8-3.447-.735C60.96 29.863 86.58 11.825 69.607 6.112c-18.62 15.907-47.03 40.942-58.402 64.332-5.134 14.667-4.278 29.435-3.68 44.858 5.214 14.933 15.34 27.256 23.402 40.643zM152.63 0h-24.69a59.5 59.5 0 0 1 4.492 1.98c2.538 8.158 13.158 5.998 20.198 7.096V0z"/><g opacity=".2" fill="#010100"><path d="M5.894 73.062c-.03.09-.054.155-.074.232 1.116-.06 2.11-.142 2.11-.232H5.893z"/><path d="M152.63 155.077c-9.663.26-19.732.397-29.997.397v-43.492h29.997v-3.665h-29.997v-43.82c10.265.02 20.334.166 29.997.423v-3.684c-9.645-.254-19.71-.396-29.997-.42V19.734c9.486.032 18.754.375 27.624 1.02a134.193 134.193 0 0 1 2.15 5.15c.076.194.15.395.223.592V17.2c-3.225-6.922-6.77-12.682-10.557-17.2h-4.845c4.008 4.162 7.802 9.837 11.267 16.948a413.21 413.21 0 0 0-25.862-.893V0h-3.617v16.055c-8.848.03-17.52.327-25.868.893 3.473-7.11 7.27-12.786 11.28-16.948H99.58C95.79 4.528 92.234 10.3 89 17.245c-12.15.94-23.512 2.41-33.613 4.402C63.982 12.5 73.912 5.132 84.767 0H76.87C66.665 5.816 57.38 13.58 49.382 22.91c-.98.236-1.957.456-2.904.69-4.57 1.112-9.42 2.508-13.92 4.2a124.187 124.187 0 0 0-5.645 6.494c4.62-2.41 10.93-4.697 18.646-6.686-8.438 10.946-15.232 23.72-19.904 37.796-4.276.564-7.925 1.172-10.906 1.815-3.493.75-6.005 1.518-7.68 2.41a64.588 64.588 0 0 0-.98 2.865c3.432-.8 9.488-1.975 18.35-3.23-3.67 12.232-5.76 25.366-5.95 39.05H.072c-.025.693-.072 1.38-.072 2.087 0 .532.04 1.05.047 1.58h18.435c.14 13.542 2.148 26.554 5.7 38.705-14.28-2.036-16.146-3.898-16.347-4.165.026.026.094.186.094.39H5.616c.346 1.096.727 2.192 1.108 3.274 1.674.952 4.29 1.783 8.024 2.578 2.933.63 6.472 1.228 10.638 1.787 3.115 9.6 7.23 18.59 12.167 26.835h4.258c-5.027-8.055-9.244-16.88-12.46-26.332 3.11.378 6.485.72 10.133 1.05 10.604.97 22.93 1.723 36.33 2.238 1.36 8.112 3.08 15.82 5.12 23.045h3.77c-2.072-7.157-3.813-14.83-5.2-22.905 12.46.423 25.794.677 39.51.677v22.23h3.617v-22.23c10.285-.01 20.348-.15 29.997-.402v-3.678zM51.31 26.232c10.572-2.334 22.79-4.07 36-5.17a94.29 94.29 0 0 0-1.435 3.48c-4.233 10.88-7.574 23.437-9.922 37.105-13.458.502-25.828 1.268-36.476 2.223-3.53.33-6.816.676-9.842 1.033 5.07-14.578 12.49-27.708 21.674-38.67zM42.43 152.69c-5.646-.5-10.358-.988-14.312-1.487-3.75-12.26-5.877-25.46-6.02-39.22h49.88c.08 14.826 1.19 29.216 3.233 42.666-11.96-.476-23.053-1.13-32.78-1.96zm29.548-44.373H22.098c.207-13.903 2.413-27.224 6.28-39.58 3.888-.47 8.523-.954 14.045-1.44 9.752-.83 20.9-1.483 32.925-1.957-2.105 13.532-3.266 28.024-3.368 42.977zm47.036 47.158c-13.902 0-27.465-.25-40.122-.702-2.08-13.432-3.22-27.884-3.295-42.79h43.416v43.492zm0-47.158H75.6c.1-15.013 1.273-29.59 3.433-43.118 12.622-.44 26.134-.688 39.983-.704v43.82zm0-47.5c-13.668.016-26.945.248-39.37.688 2.277-13.12 5.51-25.16 9.603-35.6.69-1.804 1.414-3.51 2.146-5.17 8.863-.626 18.146-.97 27.62-1v41.08z"/></g><g><path fill="#EFC516" d="M83.64 181.845h30.128l38.862-22.558V54.17L98.422 33.102 24.34 62.292l.202 85.617z"/><path opacity=".2" fill="#363636" d="M152.63 53.606L99.8 35.19c3.617-2.51-76.134 30.543-76.134 30.543l.053 23.13 73.79 38.697 55.12-25.528V53.606z"/><path fill="#EFC516" d="M152.63 51.515L99.797 33.1C103.41 30.59 19.9 62.393 19.9 62.393l.048 23.133 76.715 36.6 55.968-22.86V51.515z"/><path fill="#DDB614" d="M152.63 51.31L99.38 32.265c3.61-2.51-79.483 30.13-79.483 30.13l.002 1.384c17.995 6.23 77.25 30.062 77.25 30.062l55.48-24.89V51.31z"/><path opacity=".2" fill="#363636" d="M113.768 181.845l38.862-22.558v-90.16L97.15 93.845l1.49 88z"/><path fill="#DC3E0E" d="M47.265 160.636l2.082-60.687-1.233-.99.333-24.414 77.005-32.876 14.503 5.258-73.477 35.42s-.18 10.96-.394 25.188c-.005.34 1.244.252 1.24.59-.394 26.216-2.153 63.11-1.94 63.233.327.188-18.12-10.724-18.12-10.724z"/><path opacity=".2" fill="#363636" d="M49.338 100.246l17.985 7.88-.058 3.568-17.997-9.44.045-1.58"/><path fill="#DC3E0E" d="M59.9 46.636l64.806 34.743 1.604 28.636-2.01 1.035 2.602 63.424 15.602-9.118-.048-61.175 1.985-1.57-1.498-29.076-69.088-32.28z"/><path opacity=".2" fill="#363636" d="M124.667 115.172l-.366-4.12 18.156-6.87.007 2.874z"/><path fill="#B83815" d="M100.014 57.372s-70.82-78.16-77.52-25.614c-6.705 52.545 42.365 31.86 73.69 31.805 5.724-.013 3.83-6.19 3.83-6.19zM82.52 55.866c-19.133.034-49.11 12.67-45.013-19.424 4.097-32.096 47.355 15.644 47.355 15.644s1.154 3.773-2.343 3.78z"/><path fill="#B83815" d="M152.63 58.557c-15.442 2.898-38.104-.63-38.104-.63s-3.046-2.18.045-4.347c12.345-8.656 26.194-26.053 38.06-24.194V16.888c-17.47 4.018-36.786 26.968-54.26 39.225-5.055 3.545-.067 7.118-.067 7.118s29.917 4.654 54.328 2.167v-6.84z"/><path opacity=".2" fill="#363636" d="M87.668 59.73c-1.252.21-4.147 13.32-14.378 17.45-10.227 4.132 9.412 3.88 14.434 5.957 5.02 2.077 11.03-20.506 9.765-23.427-1.264-2.926-9.822.02-9.822.02z"/><path fill="#B83815" d="M85.16 60.158c-1.252.21-4.147 13.316-14.38 17.45-10.23 4.13 9.41 3.876 14.434 5.953 5.02 2.077 11.03-20.504 9.77-23.428-1.263-2.925-9.824.026-9.824.026z"/><path opacity=".2" fill="#363636" d="M97.233 62.008s6.774 13.355 7.408 17.324c.632 3.973 20.702 4.907 20.475-1.02-.222-5.922-20.936-16.323-20.936-16.323l-6.947.018z"/><path fill="#B83815" d="M98.486 61.168s6.77 13.36 7.407 17.328c.637 3.97 20.703 4.902 20.474-1.02-.22-5.927-20.936-16.324-20.936-16.324l-6.944.016z"/><path fill="#A72E11" d="M85.98 52.42s22.35-5.695 25.5 1.82-4.7 10.193-7.71 10.887c-3.004.693-7.753.498-10.248-.47-2.5-.964-8.992-7.428-7.543-12.238z"/></g><g><path fill="#06B57E" d="M139.24 108.627c0-8.78-1.56-16.028-4.306-21.916-1.562.125-3.15.194-4.767.194-13.303 0-24.96-4.215-31.49-10.543-6.533 6.33-18.19 10.544-31.495 10.544-1.618 0-3.206-.07-4.767-.193-2.748 5.89-4.305 13.138-4.305 21.917 0 30.077 24.668 56.593 40.565 56.593 17.017 0 40.564-26.516 40.564-56.593z"/><g fill="#FFF"><path d="M114.938 141.847a2.636 2.636 0 0 1-2.635 2.635H85.047a2.636 2.636 0 0 1-2.634-2.635v-23.3a2.636 2.636 0 0 1 2.634-2.637h27.256a2.636 2.636 0 0 1 2.635 2.636v23.3z"/><path d="M98.674 142.886c-6.785 0-12.308-5.52-12.308-12.307v-23.406c0-6.783 5.522-12.306 12.308-12.306 6.787 0 12.31 5.522 12.31 12.306v23.405c0 6.786-5.523 12.306-12.31 12.306zm0-42.742c-3.878 0-7.037 3.154-7.037 7.03v23.405c0 3.876 3.16 7.033 7.037 7.033 3.88 0 7.033-3.157 7.033-7.034v-23.406c0-3.876-3.153-7.03-7.033-7.03z"/></g><g fill="#06B57E"><path d="M102.76 126.793a4.09 4.09 0 0 1-4.083 4.082 4.084 4.084 0 0 1-4.082-4.082 4.08 4.08 0 0 1 4.082-4.08 4.087 4.087 0 0 1 4.083 4.08z"/><path d="M100.715 137.168a2.04 2.04 0 0 1-2.043 2.037 2.04 2.04 0 0 1-2.04-2.037v-11.394a2.04 2.04 0 0 1 2.04-2.044 2.04 2.04 0 0 1 2.043 2.044v11.394z"/></g><path opacity=".1" fill="#010000" d="M134.913 86.71a60.19 60.19 0 0 1-4.77.194c-13.226 0-24.823-4.17-31.374-10.438v88.743c17.27 0 40.447-26.646 40.447-56.584 0-8.778-1.557-16.027-4.304-21.915z"/></g></svg>