<svg xmlns="http://www.w3.org/2000/svg" width="134.746" height="159.531" viewBox="0 0 134.746 159.531"><path fill="#80CEF1" d="M134.746 3.544A100.693 100.693 0 0 0 108.213 0C52.656 0 7.608 45.038 7.608 100.598c0 22.013 7.078 42.37 19.073 58.934h108.065V3.544z"/><path fill-rule="evenodd" clip-rule="evenodd" fill="#18A538" d="M43.278 120.262c-.553-.232-1.32-.386-1.834-.454-.675-.078-1.176-.104-1.637 0-1.37.405-1.464 1.835 2.254 4.072.997 1.322 2.804 2.53 4.512 1.87.993-2.823-1.072-4.54-3.294-5.306 0-.182.02-.128 0-.182zM58.83 91.77c.162.145.268.376.41.402h.214c1 .287 1.976-.727 1.216-.792-.3-.053-.878.025-1.84.39zM82.13 82.984c-1.593.27-1.978 1.338 1.448 3.69.424-.116 3.367-.778 1.64 1 5.315-3.168-.37-5.172-3.087-4.69zM82.13 60.262c5.728-2.327 7.046-17.406.228-16.963-.44 0-.885.22-1.443.428 2.855 5.263-3.73 11.96 1.216 16.534zM96.67 33.498c1.65-.77 2.445-3.512 0-3.512-.443-.116-.774-.233-1.218-.206-.44.013-.883.168-1.206.206-4.83.964-3.36 8.97 2.424 3.512z"/><path fill-rule="evenodd" clip-rule="evenodd" fill="#18A538" d="M103.436 31.625c-6.988.883-14.037 7.63-7.54 14.312 4.655 5.81-6.72 17.666 4.075 20.707 4.282-9.58 16.003-17.173 13.105-28.856-1.21-4.98-5.43-6.696-9.64-6.163z"/><path fill="#18A538" d="M33.287 138.41c4.285 5.367 2.224 11.544 1.897 17.42-.114.038.052.18.052.207-.073 1.186-.057 2.352.104 3.494h43.437c-5.145-4.662-10.362-9.22-16.886-12.087-9.48-9.203-30.863-3.483-30.475-20.888.988-8.268-5.647-12.258-10.625-16.145-3.83-12.792 19.502-17.498 19.84-3.484 7.683-.403 10.375-13.804 19.248-15.74 4.567-3.968 16.93.3 12.457-7.8 4.42-4.2 17.386-4.055 11.044-13.884-2.13-9.58-13.903-14.21-17.778-3.3-10.66 2.857-6.36-20.266 4.483-17.185 7.865.453 6.794-6.382 2.03-8.58 0-.338-.104-.52-.402-.222-.872-.324-1.787-.663-2.86-.61C58.22 33.73 79.49 18.755 65.4 14.013c-15.462 13.206-39.047 33.99-48.49 53.41-4.262 12.18-3.55 24.44-3.055 37.243 4.33 12.4 12.737 22.63 19.432 33.744zM134.746 4.036A101.05 101.05 0 0 0 107.73.364c-2.73 0-5.502.167-8.2.39-1.4.298-2.944.48-4.52.625-.538.05-1.08.112-1.61.206-5.648.793-11.043 1.78-16.346 3.457 13.83-1.012 28.03-.65 40.504 5.54 2.156 6.93 11.354 4.88 17.188 5.95V4.037z"/><g opacity=".2" fill="#010100"><path d="M12.5 69.596c-.023.076-.043.13-.06.193.927-.05 1.75-.118 1.75-.194H12.5z"/><path d="M134.746 137.68c-8.148.222-16.654.34-25.322.34v-36.11h25.322v-3.042h-25.322V62.484c8.668.02 17.174.142 25.322.36v-3.057c-8.134-.218-16.633-.34-25.322-.358V25.32c7.874.027 15.57.313 22.934.848.61 1.375 1.203 2.794 1.787 4.276.205.526.4 1.072.602 1.608v-8.766c-.135-.01-.266-.022-.4-.033-4.367-9.386-9.443-16.21-14.942-20.16a70.307 70.307 0 0 1 15.343 4.46V4.277a73.962 73.962 0 0 0-6.697-2.316A100.807 100.807 0 0 0 108.214 0c-7.54 0-14.885.857-21.962 2.432C71.868 6.965 58.948 15.896 48.607 27.96c-.81.194-1.623.377-2.41.57-3.795.924-7.82 2.083-11.558 3.486a103.77 103.77 0 0 0-4.685 5.393c3.835-2.002 9.073-3.9 15.482-5.55-7.006 9.086-12.647 19.69-16.526 31.378-3.55.47-6.58.974-9.056 1.508-2.9.624-4.986 1.26-6.376 2.002-.293.794-.56 1.584-.813 2.38 2.85-.665 7.877-1.64 15.234-2.682-3.048 10.154-4.782 21.06-4.94 32.42H7.667c-.02.573-.06 1.146-.06 1.73 0 .442.034.872.04 1.313h15.306c.117 11.242 1.782 22.045 4.732 32.134-11.856-1.69-13.406-3.237-13.572-3.457.022.02.078.154.078.32h-1.92c.288.912.605 1.822.92 2.72 1.392.79 3.564 1.48 6.664 2.143 2.436.52 5.374 1.02 8.832 1.482a108.565 108.565 0 0 0 10.103 22.28h3.533a105.252 105.252 0 0 1-10.343-21.863c2.58.313 5.382.598 8.412.87 8.803.807 19.035 1.432 30.163 1.858 1.127 6.734 2.557 13.136 4.252 19.133h3.127c-1.72-5.942-3.164-12.312-4.316-19.017a967.16 967.16 0 0 0 32.802.562v18.455h3.005v-18.455c8.688-.01 17.186-.128 25.322-.344v-3.05zM109.424 2.196c7.816.818 15.27 8.085 21.47 20.81-6.92-.457-14.128-.716-21.47-.74V2.197zm-12.983.897c-5.497 3.95-10.565 10.774-14.94 20.16-10.088.78-19.52 2-27.908 3.655 11.776-12.53 26.55-21.074 42.85-23.816zM50.208 30.716c8.78-1.938 18.924-3.38 29.89-4.292-.41.938-.806 1.9-1.19 2.888-3.516 9.034-6.29 19.46-8.24 30.807-11.173.416-21.443 1.053-30.283 1.845-2.93.275-5.658.56-8.17.858 4.207-12.103 10.367-23.006 17.993-32.107zm-7.37 104.99c-4.688-.415-8.602-.82-11.883-1.234-3.113-10.18-4.88-21.136-5-32.562H67.37c.066 12.31.986 24.257 2.684 35.424-9.93-.395-19.14-.938-27.217-1.627zm24.534-36.84H25.956c.172-11.543 2.003-22.603 5.215-32.86 3.228-.39 7.077-.792 11.66-1.195 8.097-.687 17.353-1.23 27.335-1.624-1.748 11.234-2.712 23.267-2.794 35.68zm39.05 39.154c-11.543 0-22.803-.21-33.31-.584-1.73-11.15-2.675-23.15-2.737-35.526h36.046v36.11zm0-39.153H70.372c.084-12.466 1.06-24.566 2.852-35.8a998.3 998.3 0 0 1 33.194-.583v36.383zm0-39.437c-11.348.014-22.372.207-32.686.572 1.89-10.893 4.574-20.89 7.97-29.558a93.437 93.437 0 0 1 1.784-4.292 342.77 342.77 0 0 1 22.93-.83V59.43zm0-37.163c-7.346.024-14.546.27-21.477.74 6.215-12.725 13.67-19.99 21.476-20.81v20.07z"/></g><g><path fill="#E0E0E0" d="M134.746 26.48H42.74a4 4 0 0 0-3.995 4v129.052h96V26.48z"/><path fill="#D3D3D3" d="M38.745 42.138h96v5.822h-96z"/><path fill="#444" d="M134.746 26.48H42.74a4 4 0 0 0-3.995 4V42.48h96v-16z"/><circle fill="#2CB740" cx="47.482" cy="34.692" r="3.166"/><path fill="#F16442" d="M60.292 34.692a3.166 3.166 0 0 1-3.17 3.162 3.163 3.163 0 0 1 0-6.326c1.75 0 3.17 1.418 3.17 3.164z"/><path fill="#FFF" d="M134.746 31.334h-69.3a3.17 3.17 0 0 0-3.164 3.168 3.17 3.17 0 0 0 3.164 3.163h69.3v-6.33z"/><ellipse fill="#FCD22E" cx="69.963" cy="57.371" rx=".066" ry=".044"/><path fill="#444" d="M112.893 67.275a.887.887 0 0 1-.89.885H47.448a.888.888 0 0 1 0-1.774h64.557c.49 0 .89.398.89.89zM112.893 63.726c0 .49-.397.888-.89.888H47.448a.888.888 0 0 1 0-1.775h64.557c.49 0 .89.397.89.886zM112.893 60.18a.89.89 0 0 1-.89.886H47.448a.888.888 0 0 1 0-1.775h64.557c.49 0 .89.396.89.887zM75.975 55.654c0 .772-.63 1.402-1.405 1.402H47.962a1.402 1.402 0 0 1 0-2.804H74.57c.776 0 1.405.628 1.405 1.402z"/><circle fill="#444" cx="42.736" cy="55.654" r="1.504"/><path fill="#BFBFBF" d="M112.893 99.427a.888.888 0 0 1-.89.886H47.448a.89.89 0 0 1 0-1.776h64.557c.49 0 .89.4.89.89zM112.893 95.876a.89.89 0 0 1-.89.89H47.448a.887.887 0 0 1 0-1.775h64.557c.49 0 .89.4.89.886zM112.893 92.33a.89.89 0 0 1-.89.887H47.448a.888.888 0 0 1 0-1.775h64.557c.49 0 .89.398.89.888z"/><path fill="#A0A0A0" d="M75.975 87.806c0 .772-.63 1.402-1.405 1.402H47.962a1.403 1.403 0 0 1 0-2.805H74.57c.776 0 1.405.628 1.405 1.403z"/><circle fill="#A0A0A0" cx="42.736" cy="87.805" r="1.504"/><g><path fill="#BFBFBF" d="M112.893 115.514a.887.887 0 0 1-.89.885H47.448a.888.888 0 0 1 0-1.774h64.557c.49 0 .89.396.89.888zM112.893 111.964c0 .49-.397.888-.89.888H47.448a.888.888 0 0 1 0-1.775h64.557c.49 0 .89.4.89.887zM112.893 108.417a.89.89 0 0 1-.89.887H47.448a.888.888 0 0 1 0-1.775h64.557c.49 0 .89.397.89.887z"/><path fill="#A0A0A0" d="M75.975 103.893c0 .772-.63 1.402-1.405 1.402H47.962a1.402 1.402 0 0 1 0-2.804H74.57c.776 0 1.405.628 1.405 1.403z"/><circle fill="#A0A0A0" cx="42.736" cy="103.893" r="1.504"/></g><g><path fill="#BFBFBF" d="M112.893 136.483a.887.887 0 0 1-.89.885H47.448a.886.886 0 0 1-.887-.885c0-.49.397-.89.887-.89h64.557c.49 0 .89.4.89.89zM112.893 132.934c0 .49-.397.888-.89.888H47.448a.888.888 0 0 1 0-1.775h64.557c.49 0 .89.398.89.887zM112.893 129.387a.89.89 0 0 1-.89.887H47.448a.888.888 0 0 1 0-1.775h64.557c.49 0 .89.396.89.887z"/><path fill="#A0A0A0" d="M75.975 124.862c0 .772-.63 1.402-1.405 1.402H47.962a1.402 1.402 0 0 1 0-2.804H74.57c.776 0 1.405.628 1.405 1.402z"/><circle fill="#A0A0A0" cx="42.736" cy="124.862" r="1.504"/></g><path fill="#BFBFBF" d="M70.634 72.3h19.24V84.91h-19.24z"/><g><path fill="#BFBFBF" d="M112.893 156.043a.887.887 0 0 1-.89.885H47.448a.888.888 0 0 1 0-1.774h64.557c.49 0 .89.398.89.89zM112.893 152.493c0 .49-.397.888-.89.888H47.448a.888.888 0 0 1 0-1.775h64.557c.49 0 .89.4.89.888zM112.893 148.946a.89.89 0 0 1-.89.887H47.448a.888.888 0 0 1 0-1.775h64.557c.49 0 .89.398.89.888z"/><path fill="#A0A0A0" d="M75.975 144.422c0 .772-.63 1.402-1.405 1.402H47.962a1.402 1.402 0 0 1 0-2.804H74.57c.776 0 1.405.627 1.405 1.402z"/><circle fill="#A0A0A0" cx="42.736" cy="144.422" r="1.504"/></g><g><path fill="#06B57E" d="M78.438 90.718c0-8.488-1.504-15.5-4.16-21.19a58.59 58.59 0 0 1-4.61.187c-12.86 0-24.134-4.075-30.447-10.194-6.314 6.12-17.585 10.195-30.45 10.195-1.562 0-3.098-.067-4.607-.187C1.503 75.218 0 82.228 0 90.718c0 29.08 23.85 54.716 39.22 54.716 16.453 0 39.218-25.637 39.218-54.716z"/><g fill="#FFF"><path d="M54.943 122.835a2.55 2.55 0 0 1-2.548 2.548H26.043a2.548 2.548 0 0 1-2.547-2.548v-22.528a2.55 2.55 0 0 1 2.547-2.55h26.352a2.55 2.55 0 0 1 2.548 2.55v22.528z"/><path d="M39.22 123.84c-6.562 0-11.902-5.337-11.902-11.898v-22.63c0-6.558 5.34-11.898 11.9-11.898 6.56 0 11.902 5.34 11.902 11.898v22.63c0 6.56-5.34 11.898-11.9 11.898zm0-41.325c-3.752 0-6.805 3.05-6.805 6.798v22.63c0 3.748 3.053 6.8 6.804 6.8 3.75 0 6.798-3.052 6.798-6.8v-22.63c0-3.75-3.05-6.798-6.8-6.798z"/></g><g fill="#06B57E"><path d="M43.167 108.28a3.955 3.955 0 0 1-3.947 3.947 3.945 3.945 0 0 1 0-7.893 3.95 3.95 0 0 1 3.947 3.946z"/><path d="M41.19 118.312a1.97 1.97 0 0 1-1.973 1.97 1.973 1.973 0 0 1-1.974-1.97v-11.017c0-1.093.882-1.975 1.974-1.975s1.974.882 1.974 1.975v11.017z"/></g><path opacity=".1" fill="#010000" d="M74.256 69.527a58.63 58.63 0 0 1-4.61.187c-12.79 0-24-4.032-30.335-10.09v85.8c16.702 0 39.11-25.762 39.11-54.706-.002-8.49-1.508-15.5-4.164-21.19z"/></g><path fill="#BFBFBF" d="M93.654 72.3h19.238V84.91H93.654zM119.588 51.295h15.158v42.012h-15.158zM119.588 99.562h15.158v22.23h-15.158z"/></g></svg>