<svg xmlns="http://www.w3.org/2000/svg" width="196.203" height="245" viewBox="0 0 196.203 245"><path fill="#76D9FC" d="M98.42 245h97.783V.387c-.337-.133-.678-.257-1.017-.387h-94.402C51.37 18.98 16.29 66.873 16.29 122.97c0 55.195 33.965 102.448 82.13 122.03z"/><path fill-rule="evenodd" clip-rule="evenodd" fill="#00A936" d="M62.98 148.71c-.725-.302-1.73-.507-2.4-.59-.884-.106-1.54-.137-2.144 0-1.792.526-1.913 2.4 2.95 5.324 1.305 1.733 3.67 3.317 5.908 2.45 1.3-3.69-1.403-5.937-4.313-6.94 0-.244.026-.17 0-.244zM83.34 111.41c.212.192.35.496.538.53h.278c1.312.372 2.587-.95 1.59-1.038-.388-.07-1.147.033-2.406.51zM113.842 99.916c-2.084.353-2.586 1.746 1.896 4.825.555-.15 4.41-1.017 2.146 1.313 6.96-4.15-.486-6.772-4.042-6.137zM113.842 70.166c7.498-3.046 9.223-22.785.298-22.205-.577 0-1.157.288-1.888.56 3.734 6.893-4.88 15.658 1.59 21.646zM196.203 81.09c-1.816-1.04-3.89-1.627-5.225-1.55-1.72.12-2.052 1.348 1.124 4.308-2.036 4.808 1.047 6.495 4.1 5.56V81.09zM132.875 35.132c2.163-1.01 3.2-4.597 0-4.597-.58-.155-1.01-.307-1.592-.273-.578.02-1.158.225-1.58.273-6.32 1.26-4.4 11.74 3.172 4.597z"/><path fill-rule="evenodd" clip-rule="evenodd" fill="#00A936" d="M141.73 32.678c-9.146 1.156-18.374 9.992-9.866 18.736 6.092 7.605-8.8 23.125 5.332 27.11 5.607-12.545 20.95-22.482 17.155-37.775-1.584-6.525-7.104-8.77-12.62-8.072z"/><path fill="#00A936" d="M49.903 172.47c5.607 7.025 2.91 15.11 2.483 22.802-.15.05.07.237.07.27-.29 4.662.44 9.103 4.383 13.105 6.856 8.845 16.833 15.856 21.704 26.05A129.84 129.84 0 0 0 98.862 245h32.278c4.25-2.784 13.534-6.272 18.774-10.152 11.556-13.968-12.36-25.13-23.964-21.083-13.547-8.996-23.348-22.765-38.603-29.468-12.412-12.048-40.403-4.56-39.896-27.348 1.294-10.82-7.392-16.048-13.91-21.133-5.012-16.747 25.534-22.906 25.975-4.563 10.06-.526 13.58-18.07 25.194-20.6 5.978-5.194 22.163.387 16.31-10.213 5.785-5.5 22.758-5.31 14.454-18.176-2.785-12.54-18.2-18.6-23.27-4.318-13.954 3.738-8.328-26.53 5.87-22.5 10.293.597 8.89-8.353 2.656-11.23 0-.437-.137-.684-.53-.29-1.14-.425-2.337-.868-3.744-.797-13.917-7.69 13.93-27.298-4.517-33.51-20.24 17.29-51.114 44.5-63.476 69.92-5.58 15.944-4.648 31.993-4 48.755 5.666 16.23 16.675 29.622 25.44 44.174zM144.954 0c5.242 1.216 10.357 2.95 15.265 5.388 4.314 13.866 30.156.267 28.914 15.77.202.224.594.58.813.84-.41.3.3 3.126.82.763 1.554 1.762 3.707 4.18 5.436 6.53V1.35c-1.18-.47-2.368-.916-3.563-1.352h-47.686zM196.203 37.093c-.428-.004-.9-.034-1.438-.105-13.08-1.79-9.676 23.975-.257 28.655.583.313 1.148.563 1.695.76v-29.31zM196.203 155.817c-1.402 5.772-1.715 11.686 0 17v-17z"/><g opacity=".2" fill="#010000"><path d="M22.695 82.384c-.037.104-.06.172-.085.254 1.217-.064 2.297-.15 2.297-.254h-2.212zM196.203 237.85a98.56 98.56 0 0 1-14.12 7.15h9.505a103.238 103.238 0 0 0 4.615-2.52v-4.63z"/><path d="M36.377 124.686c.15 14.72 2.33 28.86 6.192 42.066-15.52-2.213-17.552-4.24-17.766-4.526.024.03.103.203.103.423H22.39c.38 1.192.79 2.382 1.206 3.56 1.822 1.033 4.664 1.937 8.723 2.804 3.186.682 7.036 1.332 11.56 1.94 4.695 14.467 11.453 27.684 19.833 39.19-9.325-2.538-16.58-5.464-21.363-8.525 1.97 2.635 4.057 5.17 6.21 7.658 5.69 2.378 12.15 4.29 18.165 5.764.298.07.604.137.9.223 10.156 12.553 22.37 22.71 35.965 29.735h9.475c-14.715-6.023-28.01-15.767-39.082-28.32 11.298 2.33 24.163 4.08 37.98 5.187 4.28 9.726 9.13 17.486 14.367 23.134h5.556c-5.573-5.013-10.807-12.692-15.467-22.793 9.408.648 19.212.987 29.216 1.037V245h3.934v-21.757a458.28 458.28 0 0 0 29.224-1.057c-4.66 10.113-9.894 17.798-15.47 22.813h5.556c5.238-5.65 10.095-13.413 14.396-23.152 4.416-.358 8.723-.79 12.926-1.28v-4c-3.646.426-7.38.804-11.198 1.13.186-.478.39-.937.57-1.43 4.527-11.568 8.1-24.923 10.628-39.423v-34.408c-.576 9.913-1.592 19.546-3.022 28.738-13.756.51-28.497.78-43.61.78v-47.27H196.2v-3.98H149.57v-47.63c15.067.033 29.76.303 43.476.796 1.51 9.515 2.565 19.51 3.157 29.803V69.02c-2.535-14.46-6.112-27.807-10.627-39.37a116.878 116.878 0 0 0-1.535-3.778c4.154.35 8.205.764 12.163 1.227v-4.027c-4.54-.527-9.215-.98-14.006-1.35-4.263-9.163-9.042-16.458-14.18-21.723h-5.76c5.535 4.606 10.75 11.812 15.424 21.397a454.095 454.095 0 0 0-28.11-.97V0h-3.934v20.427c-9.613.035-19.038.356-28.108.97 4.68-9.585 9.9-16.79 15.434-21.396H127.2c-5.137 5.266-9.912 12.56-14.183 21.724-13.205 1.02-25.55 2.617-36.534 4.783C87.65 14.625 100.88 5.503 115.43 0h-9.996c-13.31 6.53-25.34 16.057-35.478 27.88-1.062.253-2.125.492-3.154.75-4.97 1.206-10.236 2.724-15.13 4.56a134.343 134.343 0 0 0-6.135 7.062c5.022-2.622 11.88-5.105 20.27-7.27-9.174 11.9-16.557 25.783-21.636 41.084-4.645.61-8.61 1.27-11.85 1.97-3.798.818-6.53 1.65-8.348 2.62a74.85 74.85 0 0 0-1.064 3.116c3.73-.87 10.31-2.146 19.943-3.512-3.987 13.295-6.26 27.57-6.47 42.446H16.364c-.024.748-.073 1.497-.073 2.264 0 .576.04 1.137.05 1.715h20.037zM149.57 24.426c10.312.034 20.384.408 30.022 1.11.8 1.8 1.577 3.655 2.34 5.594 4.44 11.35 7.95 24.456 10.432 38.712-13.493-.477-27.933-.732-42.795-.762V24.427zm0 151.534c14.913-.017 29.405-.275 42.948-.75-2.502 14.582-6.06 27.99-10.584 39.577-.444 1.12-.87 2.196-1.328 3.27-9.938.75-20.367 1.14-31.036 1.187V175.96zm-79.75 35.714c-9.143-11.57-16.528-25.165-21.626-40.176 3.378.41 7.044.782 11.012 1.142 11.525 1.056 24.917 1.87 39.485 2.434 2.544 15.192 6.23 29.147 10.932 41.196.2.492.403.97.586 1.448-14.922-1.263-28.637-3.308-40.39-6.044zm75.816 7.57c-10.65-.032-21.074-.424-31.02-1.156-.45-1.07-.9-2.18-1.33-3.3-4.532-11.57-8.08-24.98-10.586-39.565 13.544.462 28.032.737 42.937.737v43.284zm0-47.29a1229 1229 0 0 1-43.602-.76c-2.264-14.603-3.5-30.31-3.583-46.51h47.185v47.27zm0-51.247H98.452c.11-16.322 1.385-32.162 3.734-46.866 13.717-.476 28.4-.748 43.45-.763v47.63zm-32.35-89.577c.752-1.957 1.54-3.81 2.337-5.614 9.63-.682 19.72-1.056 30.013-1.09V69.08c-14.853.016-29.282.27-42.786.744 2.476-14.254 5.99-27.345 10.437-38.694zm-41.236.36c11.494-2.536 24.776-4.427 39.132-5.618a97.485 97.485 0 0 0-1.56 3.78c-4.603 11.823-8.234 25.47-10.786 40.325-14.627.544-28.07 1.383-39.642 2.418-3.838.358-7.41.733-10.694 1.12C54.007 57.674 62.067 43.4 72.05 31.49zM47.132 77.69c4.228-.513 9.264-1.04 15.263-1.565 10.6-.903 22.716-1.616 35.782-2.13-2.286 14.705-3.547 30.464-3.654 46.715H40.306c.223-15.11 2.62-29.592 6.826-43.02zm47.39 46.998c.083 16.117 1.29 31.754 3.513 46.372-13.002-.517-25.058-1.228-35.632-2.13-6.136-.538-11.256-1.072-15.555-1.615-4.076-13.326-6.388-27.67-6.542-42.627h54.216zM179.803 0a97.513 97.513 0 0 1 16.4 8.06V3.454A104.193 104.193 0 0 0 189.738 0h-9.935z"/></g><path fill="#EAEAEA" d="M196.203 16.758H62.058c-3.204 0-5.8 2.604-5.8 5.812v202.12a5.806 5.806 0 0 0 5.8 5.806h134.146V16.758z"/><path fill="#D3D3D3" d="M56.256 39.494h139.947v8.455H56.256z"/><path fill="#444" d="M196.203 16.758H62.058c-3.204 0-5.8 2.604-5.8 5.812v17.42h139.946V16.757z"/><circle fill="#2CB740" cx="68.944" cy="28.684" r="4.596"/><path fill="#F16442" d="M87.543 28.684a4.598 4.598 0 0 1-4.602 4.592 4.593 4.593 0 0 1 0-9.186 4.6 4.6 0 0 1 4.603 4.594z"/><path fill="#FFF" d="M196.203 23.81H95.026a4.603 4.603 0 0 0-4.594 4.598 4.603 4.603 0 0 0 4.594 4.594h101.177V23.81z"/><ellipse fill="#FCD22E" cx="101.585" cy="61.613" rx=".096" ry=".063"/><g><path fill="#444" d="M163.917 75.994a1.29 1.29 0 0 1-1.29 1.286H68.89a1.29 1.29 0 0 1 0-2.578h93.735c.713 0 1.29.58 1.29 1.292zM163.917 70.84a1.29 1.29 0 0 1-1.29 1.29H68.89a1.288 1.288 0 0 1 0-2.576h93.735c.713 0 1.29.577 1.29 1.285zM163.917 65.69a1.29 1.29 0 0 1-1.29 1.288H68.89a1.29 1.29 0 0 1 0-2.577h93.735c.713 0 1.29.58 1.29 1.29zM110.314 59.12a2.04 2.04 0 0 1-2.04 2.037H69.64a2.037 2.037 0 0 1 0-4.074h38.633a2.04 2.04 0 0 1 2.04 2.04z"/><circle fill="#444" cx="62.052" cy="59.121" r="2.184"/></g><g><path fill="#BFBFBF" d="M163.917 122.677a1.29 1.29 0 0 1-1.29 1.286H68.89a1.29 1.29 0 0 1 0-2.578h93.735c.713 0 1.29.58 1.29 1.292zM163.917 117.522a1.29 1.29 0 0 1-1.29 1.29H68.89a1.288 1.288 0 0 1 0-2.576h93.735c.713 0 1.29.578 1.29 1.286zM163.917 112.373a1.29 1.29 0 0 1-1.29 1.288H68.89a1.29 1.29 0 0 1 0-2.577h93.735c.713 0 1.29.578 1.29 1.29z"/><path fill="#A0A0A0" d="M110.314 105.804a2.04 2.04 0 0 1-2.04 2.036H69.64a2.037 2.037 0 0 1 0-4.074h38.633a2.04 2.04 0 0 1 2.04 2.038z"/><circle fill="#A0A0A0" cx="62.052" cy="105.803" r="2.184"/></g><g><path fill="#BFBFBF" d="M163.917 146.035a1.29 1.29 0 0 1-1.29 1.286H68.89c-.71 0-1.288-.576-1.288-1.285a1.29 1.29 0 0 1 1.288-1.292h93.735c.713 0 1.29.58 1.29 1.292zM163.917 140.88a1.29 1.29 0 0 1-1.29 1.29H68.89a1.288 1.288 0 0 1 0-2.576h93.735c.713 0 1.29.578 1.29 1.286zM163.917 135.73a1.29 1.29 0 0 1-1.29 1.29H68.89a1.29 1.29 0 0 1 0-2.577h93.735c.713 0 1.29.577 1.29 1.288z"/><path fill="#A0A0A0" d="M110.314 129.162a2.04 2.04 0 0 1-2.04 2.036H69.64a2.037 2.037 0 0 1 0-4.074h38.633a2.04 2.04 0 0 1 2.04 2.038z"/><circle fill="#A0A0A0" cx="62.052" cy="129.162" r="2.184"/></g><g><path fill="#BFBFBF" d="M163.917 176.482a1.29 1.29 0 0 1-1.29 1.286H68.89a1.29 1.29 0 0 1 0-2.578h93.735c.713 0 1.29.58 1.29 1.292zM163.917 171.328a1.29 1.29 0 0 1-1.29 1.29H68.89a1.288 1.288 0 0 1 0-2.576h93.735c.713 0 1.29.578 1.29 1.286zM163.917 166.178a1.29 1.29 0 0 1-1.29 1.288H68.89a1.29 1.29 0 0 1 0-2.577h93.735c.713 0 1.29.577 1.29 1.288z"/><path fill="#A0A0A0" d="M110.314 159.61a2.04 2.04 0 0 1-2.04 2.035H69.64a2.037 2.037 0 0 1 0-4.074h38.633a2.04 2.04 0 0 1 2.04 2.037z"/><circle fill="#A0A0A0" cx="62.052" cy="159.609" r="2.184"/></g><path fill="#D8D8D8" d="M102.56 83.29h27.933v18.307H102.56z"/><g><path fill="#BFBFBF" d="M163.917 204.883a1.29 1.29 0 0 1-1.29 1.286H68.89a1.29 1.29 0 0 1 0-2.578h93.735c.713 0 1.29.578 1.29 1.29zM163.917 199.728a1.29 1.29 0 0 1-1.29 1.29H68.89a1.288 1.288 0 0 1 0-2.576h93.735c.713 0 1.29.578 1.29 1.286zM163.917 194.58a1.29 1.29 0 0 1-1.29 1.287H68.89a1.29 1.29 0 0 1 0-2.577h93.735c.713 0 1.29.577 1.29 1.29z"/><path fill="#A0A0A0" d="M110.314 188.01a2.04 2.04 0 0 1-2.04 2.036H69.64a2.037 2.037 0 0 1 0-4.074h38.633a2.04 2.04 0 0 1 2.04 2.038z"/><circle fill="#A0A0A0" cx="62.052" cy="188.009" r="2.184"/></g><g><path fill="#BFBFBF" d="M163.917 225.73a1.29 1.29 0 0 1-1.29 1.29H68.89a1.288 1.288 0 0 1 0-2.576h93.735c.713 0 1.29.577 1.29 1.285zM163.917 220.58a1.29 1.29 0 0 1-1.29 1.288H68.89a1.29 1.29 0 0 1 0-2.577h93.735c.713 0 1.29.578 1.29 1.29z"/><path fill="#A0A0A0" d="M110.314 214.01a2.04 2.04 0 0 1-2.04 2.037H69.64a2.037 2.037 0 0 1 0-4.074h38.633a2.04 2.04 0 0 1 2.04 2.04z"/></g><g><path fill="#06B57E" d="M113.89 110.03c0-12.323-2.183-22.502-6.04-30.767-2.193.174-4.422.27-6.693.27-18.673 0-35.043-5.916-44.21-14.8-9.17 8.884-25.534 14.8-44.212 14.8-2.27 0-4.5-.097-6.69-.27C2.184 87.528 0 97.707 0 110.03c0 42.225 34.63 79.448 56.947 79.448 23.89 0 56.944-37.223 56.944-79.447z"/><g fill="#FFF"><path d="M79.776 156.665a3.7 3.7 0 0 1-3.7 3.7H37.814a3.7 3.7 0 0 1-3.7-3.7v-32.71a3.7 3.7 0 0 1 3.7-3.7h38.263a3.7 3.7 0 0 1 3.7 3.7v32.71z"/><path d="M56.945 158.125c-9.526 0-17.28-7.75-17.28-17.277v-32.856c0-9.52 7.754-17.275 17.28-17.275 9.524 0 17.28 7.754 17.28 17.275v32.856c0 9.527-7.755 17.277-17.28 17.277zm0-60.004c-5.446 0-9.88 4.43-9.88 9.87v32.857c0 5.444 4.434 9.875 9.88 9.875 5.445 0 9.873-4.43 9.873-9.875V107.99c0-5.44-4.428-9.87-9.873-9.87z"/></g><g fill="#06B57E"><path d="M62.68 135.532c0 3.16-2.58 5.73-5.733 5.73a5.732 5.732 0 0 1-5.73-5.73 5.728 5.728 0 0 1 5.73-5.73c3.153 0 5.732 2.564 5.732 5.73z"/><path d="M59.81 150.098c0 1.577-1.28 2.86-2.867 2.86a2.862 2.862 0 0 1-2.866-2.86v-15.996a2.863 2.863 0 0 1 2.866-2.867 2.862 2.862 0 0 1 2.866 2.867v15.996z"/></g><path opacity=".1" fill="#010000" d="M107.817 79.264c-2.19.174-4.422.27-6.692.27-18.57 0-34.85-5.853-44.048-14.65v124.58c24.25 0 56.783-37.405 56.783-79.433 0-12.323-2.185-22.502-6.043-30.766z"/></g><path fill="#D8D8D8" d="M135.983 83.29h27.934v18.307h-27.934z"/><circle fill="#A0A0A0" cx="62.052" cy="214.01" r="2.184"/><path fill="#D8D8D8" d="M173.64 52.79h22.563v61H173.64zM173.64 122.875h22.563v32.276H173.64z"/></svg>