<?xml version="1.0" encoding="utf-8"?>
<!-- Generator: Adobe Illustrator 21.0.2, SVG Export Plug-In . SVG Version: 6.00 Build 0)  -->
<svg version="1.1" baseProfile="basic" id="Режим_изоляции"
     xmlns="http://www.w3.org/2000/svg" xmlns:xlink="http://www.w3.org/1999/xlink" x="0px" y="0px" width="51px" height="48px"
     viewBox="0 0 51 48" xml:space="preserve">
<path opacity="0.8" fill="#00B05A" d="M6,8.1C14.8-1.8,30-2.8,39.9,6c7.9,7,10.1,18.1,6.2,27.3l4.2,13.8l-14.1-2.4
    C27.5,49.8,16.1,49,8.1,42C-1.8,33.2-2.8,18,6,8.1z"/>
<path opacity="8.000000e-02" d="M38.5,17.7l-17,18.4l9.2,10.5c3-0.5,2.8-0.4,5.5-1.9l14.1,2.4l-4.2-13.8c0.6-1.4,1-2.8,1.3-4.2
    L38.5,17.7z"/>
<polygon fill="#FFFFFF" points="38.5,17.7 34.4,14.4 21.6,28.3 14.6,20.4 10.6,24.2 21.6,36.1 "/>
</svg>
