<svg baseProfile="basic" xmlns="http://www.w3.org/2000/svg" width="63" height="70" viewBox="0 0 63 70"><g fill="#419FBE"><path d="M33.9 60.2c-.8.1-1.7.1-2.5.1C17.6 60.3 6.3 49 6.3 35.1c0-8.9 4.6-16.7 11.6-21.1-.5-.5-1-1-1.5-1.4-1.1-1-2.1-2-3-3.1C5.3 15.2 0 24.5 0 35.1c0 17.3 14.1 31.4 31.4 31.4 1.6 0 3.1-.1 4.6-.3l-2.1-6zM56.6 35.1c0 7.3-3.1 13.9-8.1 18.5 1.4 1.4 2.9 2.7 4.4 4.1.1.1.2.1.2.2 6-5.7 9.8-13.8 9.8-22.7 0-17.3-14.1-31.4-31.4-31.4h-1.1c.3 2.1.5 4.2.7 6.3h.5c13.7-.1 25 11.2 25 25z"/><path d="M34 14.4L21.5 7.2 34 0zM34 55.6l12.4 7.2L34 70z"/><circle cx="15.7" cy="11.6" r="3.2"/><circle cx="50.9" cy="55.6" r="3.2"/></g><path fill="#419FBE" d="M44.1 36.8H18.7c-3.4 0-6.1 2.7-6.1 6.1 0 3.4 2.7 6.1 6.1 6.1h25.4c3.4 0 6.1-2.7 6.1-6.1 0-3.4-2.7-6.1-6.1-6.1zm-25.3 9c-1.6 0-2.8-1.3-2.8-2.8s1.3-2.8 2.8-2.8c1.6 0 2.8 1.3 2.8 2.8 0 1.5-1.3 2.8-2.8 2.8zm24.8-.2H26.9c-.4 0-.7-.4-.7-1 0-.5.3-1 .7-1h16.7c.4 0 .7.4.7 1s-.3 1-.7 1zm0-3.5H26.9c-.4 0-.7-.4-.7-1 0-.5.3-1 .7-1h16.7c.4 0 .7.4.7 1s-.3 1-.7 1zM44.1 21.8H18.7c-3.4 0-6.1 2.7-6.1 6.1 0 3.4 2.7 6.1 6.1 6.1h25.4c3.4 0 6.1-2.7 6.1-6.1 0-3.4-2.7-6.1-6.1-6.1zm-25.3 9c-1.6 0-2.8-1.3-2.8-2.8s1.3-2.8 2.8-2.8c1.6 0 2.8 1.3 2.8 2.8 0 1.5-1.3 2.8-2.8 2.8zm24.8-.2H26.9c-.4 0-.7-.4-.7-1 0-.5.3-1 .7-1h16.7c.4 0 .7.4.7 1s-.3 1-.7 1zm0-3.5H26.9c-.4 0-.7-.4-.7-1 0-.5.3-1 .7-1h16.7c.4 0 .7.4.7 1s-.3 1-.7 1z"/></svg>