<svg baseProfile="basic" xmlns="http://www.w3.org/2000/svg" width="65" height="70" viewBox="0 0 65 70"><g fill="#FFC245"><path d="M8.9 20.2c0-2.2 1.7-3.9 3.9-3.9h40.3l-2.4-9.7c-.4-1.8-2.3-2.9-4.1-2.4L3.2 15c-1.8.4-2.9 2.3-2.4 4.1l7.8 31.1c.1.3.2.6.4.9l-.1-30.9z"/><path d="M61.7 19.7H15.8c-1.8 0-3.3 1.5-3.3 3.3v32.1c0 1.8 1.5 3.3 3.3 3.3h11.1l7 7.5 7-7.5h20.8c1.8 0 3.3-1.5 3.3-3.3V23c0-1.8-1.5-3.3-3.3-3.3zm-1.4 33.7H39.6l-5.7 6.2-5.7-6.2h-11V24.8h43.2l-.1 28.6z"/></g><g fill="#FFC245"><path d="M25.3 47.5v-2.7c6.7-5 8.7-6.7 8.7-8.7 0-1.4-1.3-2.1-2.7-2.1-1.9 0-3.3.7-4.4 1.9l-2-2.3c1.6-1.8 4-2.7 6.3-2.7 3.5 0 6.3 2 6.3 5.2 0 2.8-2.3 5.2-6.6 8.3h6.7v3.1H25.3zM47.3 47.5v-3.4h-7.8v-2.8L46 31.1h4.8V41h2.1v3.1h-2.1v3.4h-3.5zm0-13.3L42.9 41h4.4v-6.8z"/></g></svg>