<svg baseProfile="basic" xmlns="http://www.w3.org/2000/svg" width="63" height="70" viewBox="0 0 63 70"><g fill="#EB4444"><path d="M33.9 60.2c-.8.1-1.7.1-2.5.1C17.6 60.3 6.3 49 6.3 35.1c0-8.9 4.6-16.7 11.6-21.1-.5-.5-1-1-1.5-1.4-1.1-1-2.1-2-3-3.1C5.3 15.2 0 24.5 0 35.1c0 17.3 14.1 31.4 31.4 31.4 1.6 0 3.1-.1 4.6-.3l-2.1-6zM56.6 35.1c0 7.3-3.1 13.9-8.1 18.5 1.4 1.4 2.9 2.7 4.4 4.1.1.1.2.1.2.2 6-5.7 9.8-13.8 9.8-22.7 0-17.3-14.1-31.4-31.4-31.4h-1.1c.3 2.1.5 4.2.7 6.3h.5c13.7-.1 25 11.2 25 25z"/><path d="M34 14.4L21.5 7.2 34 0zM34 55.6l12.4 7.2L34 70z"/><circle cx="15.7" cy="11.6" r="3.2"/><circle cx="50.9" cy="55.6" r="3.2"/></g><g fill="#EB4444"><path d="M49.5 29.2v-3.6h-3.6v-1.8c0-2-1.6-3.6-3.6-3.6H20.5c-2 0-3.6 1.6-3.6 3.6v1.8h-3.6v3.6h3.6v3.6h-3.6v3.6h3.6V40h-3.6v3.6h3.6v1.8c0 2 1.6 3.6 3.6 3.6h21.7c2 0 3.6-1.6 3.6-3.6v-1.8h3.6V40h-3.6v-3.6h3.6v-3.6h-3.6v-3.6h3.7zm-7.2 12.7c0 2-1.6 3.6-3.6 3.6H24.2c-2 0-3.6-1.6-3.6-3.6V27.4c0-2 1.6-3.6 3.6-3.6h14.5c2 0 3.6 1.6 3.6 3.6v14.5z"/><path d="M35 27.4h-7.2c-2 0-3.6 1.6-3.6 3.6v7.3c0 2 1.6 3.6 3.6 3.6H35c2 0 3.6-1.6 3.6-3.6V31c.1-2-1.6-3.6-3.6-3.6z"/></g></svg>