<svg baseProfile="basic" xmlns="http://www.w3.org/2000/svg" width="53" height="70" viewBox="0 0 53 70"><g fill="#F60"><path d="M41.9 45.7l-.4 4.5-4.1-1.9-1.3 4.3-3.6-2.7-1.5 2.6L41.1 70l3.5-8.5 9 1.3L44 46.1zM22.1 49.9l-3.6 2.7-1.3-4.3-4.1 1.9-.4-4.5-2.1.4L1 62.8l9.1-1.3 3.4 8.5 10.1-17.5zM27.3 12.4c-7.3 0-13.2 5.9-13.2 13.2S20 38.8 27.3 38.8s13.2-5.9 13.2-13.2-5.9-13.2-13.2-13.2z"/><path d="M49.6 27.9l3.3-2.3-3.3-2.3 2.8-3-3.7-1.6 2.1-3.5-4-.8 1.3-3.9H44l.5-4-4 .9-.4-4.1L36.4 5l-1.2-3.9L32 3.6 30 0l-2.7 3.1L24.6 0l-2 3.6-3.3-2.4L18.2 5l-3.7-1.7-.4 4.1-4-.9.5 4-4.1-.1 1.3 3.9-4 .8 2.1 3.5-3.7 1.6 2.8 3-3.3 2.3L5 27.9l-2.8 3 3.7 1.6-2 3.5 4 .8-1.3 3.9 4.1-.1-.5 4 4-.9.4 4.1 3.7-1.7 1.2 3.9 3.3-2.4 2 3.6 2.7-3.1 2.7 3.1 2-3.6 3.3 2.4 1.2-3.9 3.7 1.7.4-4.1 4 .9-.5-4 4.1.1-1.3-3.9 4-.8-2.1-3.5 3.7-1.6-3.1-3zM27.3 42c-9.1 0-16.4-7.4-16.4-16.4S18.2 9.1 27.3 9.1s16.4 7.4 16.4 16.4S36.4 42 27.3 42z"/></g></svg>