<svg baseProfile="basic" xmlns="http://www.w3.org/2000/svg" width="92" height="100" viewBox="0 0 92 100"><path fill="#D9D9D9" d="M92 36.3c0-9.9-1.8-18-4.9-24.7-1.8.1-3.6.2-5.4.2C66.6 11.9 53.4 7.1 46 0c-7.4 7.1-20.6 11.9-35.7 11.9-1.8 0-3.6-.1-5.4-.2C1.8 18.3 0 26.4 0 36.3 0 70.2 28 100 46 100c19.3 0 46-29.8 46-63.7z"/><circle fill="#EB4444" cx="46" cy="47.4" r="23.7"/><path opacity=".1" d="M45.9 52.2l-1.5-6V31.6h7.2v14.6l-1.6 6h-4.1z"/><circle opacity=".1" cx="48" cy="61.2" r="4.3"/><path fill="#FFF" d="M43.9 50.2l-1.5-6V29.6h7.2v14.6l-1.6 6h-4.1z"/><circle fill="#FFF" cx="46" cy="59.2" r="4.3"/><path opacity=".1" fill="#010000" d="M87.1 11.7c-1.8.1-3.6.2-5.4.2-15 0-28.2-4.7-35.6-11.7V100C65.7 100 92 70 92 36.3c0-9.9-1.8-18-4.9-24.6z"/></svg>