<svg xmlns="http://www.w3.org/2000/svg" width="108.934" height="101.883" viewBox="262.155 -1 108.934 101.883"><ellipse fill="#EDEDED" cx="315.01" cy="90.925" rx="52.855" ry="9.958"/><path fill="#FFCE12" d="M351.712 79.254a5.437 5.437 0 0 1-5.435 5.438h-60.492c-3 0-5.434-2.434-5.434-5.438V39.152c0-3 2.434-5.434 5.435-5.434h60.492a5.434 5.434 0 0 1 5.436 5.434v40.102z"/><path fill="#604303" d="M351.712 83.334c0 3-2.433 5.436-5.435 5.436h-60.492c-3 0-5.434-2.436-5.434-5.436v-40.1c0-3 2.434-5.436 5.435-5.436h60.492a5.436 5.436 0 0 1 5.436 5.436v40.1z"/><path fill="#FFCE12" d="M276.27 43.047c0-5.326 4.317-9.328 9.644-9.328h9.994c5.327 0 9.59 4 9.59 9.327v25.02c0 5.328-4.263 9.832-9.59 9.832h-9.994c-5.326 0-9.644-4.505-9.644-9.833v-25.02z"/><path fill="#604303" d="M279.578 40.517a5.434 5.434 0 0 1 5.434-5.438h61.262c3.006 0 5.438 2.63 5.438 5.64v8.29c0 3.006-2.433-3.058-5.438-3.058h-61.262a5.432 5.432 0 0 1-5.434-5.435z"/><path fill="#4E79B8" d="M371.08 79.694a.845.845 0 0 1-.727.953L294.726 90.76a.848.848 0 0 1-.953-.73l-4.28-32.02a.846.846 0 0 1 .727-.955l75.628-10.116a.85.85 0 0 1 .955.73l4.278 32.024z"/><path opacity=".1" fill="#010000" d="M293.204 59.743l70.478-9.42 3.698 27.663-70.478 9.42z"/><ellipse transform="rotate(-7.586 298.947 65.033)" fill="#4E79B8" cx="298.854" cy="65.019" rx="2.341" ry="3.425"/><path fill="#4E79B8" d="M303.282 80.467c.248 1.877-.585 3.533-1.867 3.705-1.283.168-2.526-1.21-2.774-3.084-.25-1.873.585-3.537 1.867-3.705 1.282-.174 2.524 1.21 2.775 3.084z"/><path opacity=".2" fill="#010000" d="M364.304 50.567L350.96 21.145a.85.85 0 0 0-1.124-.425L280.35 52.24a.847.847 0 0 0-.422 1.124l13.344 29.422a.848.848 0 0 0 1.123.423l69.488-31.518a.847.847 0 0 0 .42-1.125z"/><path fill="#FC7A24" d="M365.304 47.567a.846.846 0 0 1-.42 1.124l-69.49 31.518a.848.848 0 0 1-1.122-.423l-13.344-29.422a.847.847 0 0 1 .42-1.124l69.488-31.52a.85.85 0 0 1 1.125.424l13.344 29.423z"/><path opacity=".1" fill="#010000" d="M284.97 50.954l64.754-29.366 11.527 25.417-64.753 29.366z"/><ellipse transform="rotate(-24.37 291.905 54.38)" fill="#65935F" cx="291.915" cy="54.371" rx="2.341" ry="3.425"/><path fill="#65935F" d="M300.615 67.882c.78 1.726.46 3.552-.718 4.087-1.18.53-2.77-.43-3.547-2.152-.782-1.722-.462-3.555.717-4.087 1.178-.534 2.767.43 3.548 2.152z"/><path fill="#603107" d="M342.2 47.993c0-1.124-1.552-2.042-2.74-2.042h-49.395c-1.182 0-2.242.918-2.242 2.043V72.46c0 1.124 1.06 2.036 2.242 2.036h49.396c1.19 0 2.74-.912 2.74-2.035V47.994z"/><path fill="#FFF" d="M348.94 32.2l-1.12.532 3.305 7.007c.592 1.255.396 2.234-1.024 3.352l-8.826 7.688s-.756.644-1.127-.143c-.31-.655.428-1.103.493-1.276l-.038.04 7.552-8.08c.56-.784.72-2.06.355-2.832l-5.215-11.05c-.823-1.745-2.24-.345-2.508.052-.293.43-7.915 11.125-7.915 11.125-.56.787-.718 2.06-.352 2.837l5.193 11.006c.365.773 1.952 1.28 2.668.952l15.188-7.165c.913-.428 1.36-1.412.993-2.188l-5.298-11.232c-.366-.773-1.408-1.053-2.32-.624zm-7.74 2.626c.492-.816 1.246-.98 1.685-.373.438.61.424 1.653-.066 2.47-.492.812-1.247.98-1.686.372-.44-.612-.426-1.654.067-2.47z"/><path opacity=".2" fill="#010000" d="M341.182 22.892l-21.826-17.87a4.496 4.496 0 0 0-6.336.632L283.51 41.68a4.5 4.5 0 0 0 .633 6.335l21.823 17.877a4.508 4.508 0 0 0 6.34-.636L341.81 29.23a4.507 4.507 0 0 0-.628-6.338z"/><g><path fill="#87B509" d="M340.182 17.892a4.507 4.507 0 0 1 .63 6.337l-29.507 36.026a4.508 4.508 0 0 1-6.34.636l-21.822-17.877a4.5 4.5 0 0 1-.633-6.336L312.02.653a4.496 4.496 0 0 1 6.336-.632l21.826 17.87z"/><path fill="#333" d="M325.31 6.353l-34.9 42.61-6.144-5.028 34.897-42.612z"/><path fill="#FFF" d="M317.27 29.284c.48.383.548 1.088.165 1.57l-18.082 22.07a1.12 1.12 0 0 1-1.57.156l-2.5-2.046a1.11 1.11 0 0 1-.155-1.566l18.077-22.077a1.118 1.118 0 0 1 1.574-.154l2.49 2.048zM326.707 17.762c.477.39.545 1.095.16 1.568l-5.823 7.106a1.118 1.118 0 0 1-1.57.157l-2.495-2.047a1.115 1.115 0 0 1-.156-1.568l5.812-7.103a1.13 1.13 0 0 1 1.58-.157l2.49 2.044z"/></g><g fill="#FFF"><path d="M354.04 57.67a9.144 9.144 0 0 1 4.093.636c.197.076.397.164.594.26l-.79.817-1.366-1.22-2 2.07-1.375-1.296-3.727 3.892 2.767 2.63-.942.96 2.73 2.64-.935.955 3.897 3.744 1.99-2.127 2.006 1.974c-.346.313-.728.612-1.152.893a9.114 9.114 0 0 1-4.434 1.534c-5.057.372-9.485-3.45-9.857-8.506-.372-5.057 3.448-9.485 8.504-9.857z"/><path d="M353.002 66.394l2.038-2.127 2.127 2.04-2.04 2.124zM354.834 70.053l2.037-2.126 2.127 2.038-2.038 2.125zM351.165 62.782l2.04-2.125 2.124 2.037-2.04 2.125zM355.092 61.43l1.53-1.595 1.596 1.53-1.53 1.593zM358.5 67.966l1.53-1.593 1.592 1.528-1.528 1.595zM360.182 71.17l1.53-1.597 1.594 1.528-1.526 1.596zM360.285 63.54l1.02-1.062 1.06 1.018-1.015 1.062zM358.652 60.4l1.018-1.064 1.065 1.02-1.02 1.062zM361.92 66.68l1.016-1.063L364 66.634l-1.018 1.065zM356.846 64.608l1.527-1.594 1.595 1.53-1.528 1.594z"/></g><path opacity=".2" fill="#010000" d="M349.637 91.493a5.437 5.437 0 0 1-5.438 5.434h-60.49a5.437 5.437 0 0 1-5.44-5.434v-40.1c0-3.002 2.438-5.44 5.44-5.44h60.49c3 0 5.437 2.437 5.437 5.44v40.1z"/><path fill="#FFCE12" d="M347.637 91.493a5.437 5.437 0 0 1-5.438 5.434h-60.49a5.437 5.437 0 0 1-5.44-5.434v-40.1c0-3.002 2.438-5.44 5.44-5.44h60.49c3 0 5.437 2.437 5.437 5.44v40.1z"/><g><path fill="#FFF" d="M296.322 64.752l.47-.245 9.55-4.97a1.377 1.377 0 0 0-1.437-1.06l-8.77.684a1.31 1.31 0 0 0-1.2 1.436l.12 1.236c.073.73-.437 1.375-1.13 1.43l-1.267.098 1.92 19.405 1.69-17.486.054-.528z"/><g fill="#FFF"><path d="M306.048 69.93h-2.317v2.8h2.318c.888 0 1.557-.528 1.557-1.4 0-.872-.67-1.4-1.557-1.4z"/><path d="M317.11 54.965L297.26 65.29l-2.128 22.013 19.766-1.55 11.113-.874 7.106-.56 2.13-22.012-18.136-7.343zm-9.277 23.398l-2.262-3.687h-1.84v3.687h-2.21V67.986h4.855c2.163 0 3.484 1.415 3.484 3.345 0 1.836-.928 2.817-2.047 3.082l2.558 3.95h-2.537zm11.262-8.433h-5.135v2.192h4.58v1.946h-4.58v2.35h5.135v1.944h-7.345V67.986h7.345v1.944zm11.173 6.675c-1.058 1.182-2.534 1.96-4.42 1.96-3.033 0-5.52-2.114-5.52-5.384 0-3.282 2.487-5.366 5.52-5.366 2.164 0 3.517 1.09 4.296 2.318l-1.838.996a2.936 2.936 0 0 0-2.457-1.354c-1.884 0-3.253 1.448-3.253 3.407 0 1.962 1.37 3.41 3.252 3.41.917 0 1.79-.405 2.21-.794v-1.108h-2.738V72.73h4.946v3.875z"/></g></g><path opacity=".1" fill="#010000" d="M342.2 45.952l-60.49 50.972h60.49c3 0 5.437-2.43 5.437-5.434v-40.1c0-3-2.436-5.438-5.438-5.438z"/></svg>