<svg xmlns="http://www.w3.org/2000/svg" width="23.117" height="34.232" viewBox="0 0 23.117 34.232"><g fill="#F00"><path d="M3.743 21.652c.158.06 2.783 1.077 2.935 1.138.152.06.31-.032.36-.17.05-.137 1.143-3.143 1.267-3.48h7.448c.123.337 1.205 3.338 1.26 3.48a.284.284 0 0 0 .36.17l2.934-1.138c.18-.067.206-.258.164-.373-.15-.414-5.177-14.18-5.393-14.768-.51-1.386-1.117-2.772-3.052-2.772-1.936 0-2.566 1.407-3.057 2.773-.253.706-5.204 14.25-5.388 14.767a.29.29 0 0 0 .163.372zM12.01 8.235h.03l2.528 7.562H9.49l2.52-7.562zM20.867 28.372H3.182c-.154 0-.28.13-.28.29v3.215c0 .16.125.29.28.29h17.685c.155 0 .28-.13.28-.29V28.66c0-.158-.125-.288-.28-.288z"/></g></svg>