<svg xmlns="http://www.w3.org/2000/svg" width="43.214" height="16.994" viewBox="0 0 43.214 16.994"><path fill="#4C70B3" d="M18.733 14.642H15.54l1.995-12.264h3.194zM37.968 14.642H40.9L38.343 2.378h-2.567c-1.185 0-1.474.914-1.474.914l-4.762 11.35h3.328l.666-1.822h4.06l.374 1.822zm-3.514-4.338l1.678-4.59.944 4.59h-2.622zM29.79 5.327l.456-2.634s-1.406-.535-2.872-.535c-1.585 0-5.347.693-5.347 4.06 0 3.17 4.416 3.208 4.416 4.872s-3.96 1.366-5.268.317L20.7 14.16s1.426.693 3.604.693 5.466-1.13 5.466-4.2c0-3.188-4.456-3.485-4.456-4.87 0-1.387 3.11-1.21 4.476-.456z"/><path fill="#E59D4D" d="M9.496 9.09L8.398 3.454S8.265 2.327 6.85 2.327H1.71l-.06.212s2.47.51 4.84 2.43c2.267 1.833 3.006 4.12 3.006 4.12z"/><path fill="#4C70B3" d="M12.854 2.378L9.81 10.813l-.36-1.816-.008-.042c-.202-.527-1.022-2.41-2.95-3.972-.46-.373-.925-.69-1.374-.964L7.884 14.64h3.327l5.08-12.264h-3.436z"/></svg>