<svg xmlns="http://www.w3.org/2000/svg" width="27.455" height="28.748" viewBox="0 0 27.455 28.748"><path fill="#E08B44" d="M21.18 19.835c-.255-.095-.278.206-.214.4.142.46.334.81.475.88.136.082.295-.107.194-.565-.043-.2-.194-.614-.454-.715zm-2.012.85l-.01-.007c-.01 0-.015-.003-.02-.005-.01-.003-.016-.007-.024-.01H19.1l-.04-.013a.624.624 0 0 0-.452.082c-.3.205-.347.667-.1 1.036a.94.94 0 0 0 .448.35c.005.002.012.006.017.006.008.004.016.004.023.006.007 0 .01.003.015.005.014.003.025.008.038.01.16.03.32.008.454-.082.303-.205.35-.665.102-1.033a.893.893 0 0 0-.436-.346zm7.142 7.255c-.734-1.494-2.037-2.59-3.448-3.432-.49-.292-1.042-.497-1.523-.655-1.108-.36-2.18-.44-3.43-.655-1.016-.174-1.818-.59-2.68-1.176-.447-.307-.814-.727-1.12-1.173-.057-.09-.344-.44-.315-.56 0 0-.2.8.196 1.922-3.633-.163-6.82-2.178-8.28-4.62-2.686-4.497-1.74-9.945 1.843-12.35 3.58-2.408 9.04-.71 11.963 3.634 1.835 2.727 2.304 5.9 1.518 8.48l-.02.058c-1.552-1.13-2.97-.553-2.97-.553 1.556-.16 2.787 1.08 2.787 1.08.182.16.355.338.513.535.035.048.072.097.107.15.407.552.662 1.168.77 1.792 3.09-3.92 3.6-9.35.866-13.566C19.603 1.478 12.176.105 6.503 3.783.827 7.462-.95 14.798 2.536 20.172c2.862 4.42 9.577 5.77 13.426 4.55 1.455-.456 6.438-.892 9.907 3.205 0 0 .3.343.462.733 0 0 .048.137.177.07.033-.018.128-.13-.2-.79z"/></svg>