<svg xmlns="http://www.w3.org/2000/svg" width="27.919" height="27.191" viewBox="0 0 27.919 27.191"><path fill="#828282" d="M14.232 1.74c-6.852 0-12.44 5.59-12.44 12.442s5.587 12.44 12.44 12.44c6.852 0 12.44-5.587 12.44-12.44s-5.588-12.44-12.44-12.44zm0 24.05c-6.394 0-11.61-5.214-11.61-11.608 0-6.395 5.216-11.61 11.61-11.61 6.394 0 11.61 5.215 11.61 11.61 0 6.394-5.216 11.61-11.61 11.61z"/><path fill="#E3622D" d="M10.523 13.13h13.662C23.66 8.11 19.417 4.2 14.26 4.2c-5.512 0-9.98 4.468-9.98 9.98 0 5.512 4.468 9.98 9.98 9.98 5.133 0 9.358-3.875 9.916-8.86H10.523V13.13zm5.354-6.3a1.645 1.645 0 1 1 0 3.29 1.645 1.645 0 0 1 0-3.29z"/></svg>