<svg xmlns="http://www.w3.org/2000/svg" width="63.559" height="34.232" viewBox="0 0 63.559 34.232"><g fill="#F00"><path d="M3.743 21.652c.158.06 2.783 1.077 2.935 1.138.152.06.31-.032.36-.17.05-.137 1.143-3.143 1.267-3.48h7.448c.123.338 1.205 3.34 1.26 3.48.052.145.216.225.36.17l2.934-1.138c.18-.067.207-.258.164-.373-.15-.414-5.177-14.18-5.393-14.768-.51-1.386-1.117-2.772-3.052-2.772-1.936 0-2.566 1.407-3.057 2.773-.253.706-5.204 14.25-5.388 14.767a.29.29 0 0 0 .163.372zM12.01 8.235h.03l2.528 7.562H9.49l2.52-7.562zM20.867 28.372H3.182c-.154 0-.28.13-.28.29v3.215c0 .16.125.29.28.29h17.685c.154 0 .28-.13.28-.29V28.66c0-.158-.126-.288-.28-.288z"/></g><g fill="#466B4A"><path d="M59.502 9.64a11.343 11.343 0 0 0-.8-1.073L44.546 16.71l-6.868-3.95a12.188 12.188 0 0 0-.33 1.344l7.197 4.142L59.502 9.64z"/><path d="M55.473 5.827a12.215 12.215 0 0 0-1.424-.714l-9.505 5.467-4.232-2.435c-.3.332-.584.68-.848 1.043l5.08 2.924 10.928-6.285z"/><path d="M57.775 7.568c-.34-.326-.697-.632-1.072-.917l-12.158 6.996-5.803-3.34c-.22.387-.42.783-.596 1.19l6.4 3.68 13.23-7.608z"/><path d="M38.8 22.484a12.19 12.19 0 0 0 3.462 3.788 12.25 12.25 0 0 0 4.54 1.997c.707.147 1.437.234 2.18.256h.68a12.22 12.22 0 0 0 6.02-1.782 12.174 12.174 0 0 0 3.57-3.335 12.176 12.176 0 0 0 2.255-7.386 12.265 12.265 0 0 0-1.336-5.238l-15.626 8.988-7.378-4.244a12.28 12.28 0 0 0 .176 3.024 12.083 12.083 0 0 0 1.457 3.93z"/></g></svg>