<svg xmlns="http://www.w3.org/2000/svg" width="46.257" height="28.143" viewBox="0 0 46.257 28.143"><g fill="#0071CE"><path d="M29.904 11.06c-.005.01 0 .005-.016.018a.662.662 0 0 1-.257.086 3.15 3.15 0 0 1-.552.04h-3.394v-1.94h2.918c.275 0 .528.02.715.07.19.05.3.114.38.19a1.106 1.106 0 0 1 .35.832c-.002.385-.08.588-.143.705zm-.688-7.61H25.39a3.99 3.99 0 0 0-.372.02c-.17.02-.38.052-.632.2-.185.107-.36.296-.453.48-.144.28-.16.492-.175.674-.014.185-.012.357-.012.562v5.816c0 .244-.003.438.02.667.022.168.053.38.2.63.108.185.298.36.48.454.28.142.493.158.676.175.185.01.356.01.562.01h3.394c.362-.002.784-.017 1.24-.15.226-.07.465-.172.692-.334.228-.16.438-.384.59-.656.235-.425.388-.98.386-1.646a3.08 3.08 0 0 0-.29-1.318 3.084 3.084 0 0 0-.495-.743 3.07 3.07 0 0 0 .497-.74 3.06 3.06 0 0 0 .288-1.32c.003-.665-.15-1.222-.386-1.646-.15-.27-.362-.496-.59-.657a2.566 2.566 0 0 0-1.028-.412 4.75 4.75 0 0 0-.766-.07zm-.137 1.937c.276-.002.536.023.68.07.07.02.113.044.13.056.015.013.01.008.015.017.063.117.142.32.144.706a1.105 1.105 0 0 1-.352.832c-.078.076-.188.14-.38.188-.186.05-.438.07-.714.07h-2.918v-1.94h3.393zM20.145 10.99c-.017.04-.034.068-.133.123a1 1 0 0 1-.434.09H16.79c-.172 0-.34-.04-.434-.09-.097-.055-.116-.084-.132-.123-.183-.454-.402-1.29-.402-2.695s.22-2.242.402-2.695c.017-.038.035-.07.132-.123a.995.995 0 0 1 .434-.09h2.79c.17-.002.337.04.432.09.1.054.116.084.133.123.183.453.402 1.288.402 2.695s-.22 2.242-.402 2.695zm-.48-7.54h-2.96c-.41.01-.83.098-1.23.3a2.184 2.184 0 0 0-1.047 1.122c-.293.726-.543 1.816-.543 3.423s.25 2.697.543 3.422c.21.528.622.907 1.046 1.12.43.218.88.303 1.318.304h2.788c.438 0 .888-.085 1.317-.302a2.182 2.182 0 0 0 1.047-1.12c.293-.727.544-1.817.544-3.423s-.25-2.697-.544-3.423a2.192 2.192 0 0 0-1.046-1.12 2.915 2.915 0 0 0-1.234-.303zM39.412 10.99c-.018.04-.035.068-.133.123-.097.05-.264.09-.436.09h-2.786c-.173 0-.34-.04-.434-.09-.1-.055-.116-.084-.134-.122-.184-.453-.402-1.288-.402-2.695s.22-2.242.402-2.695c.018-.038.034-.068.134-.122a.99.99 0 0 1 .433-.09h2.788a1 1 0 0 1 .434.09c.097.054.114.084.132.123.184.454.402 1.29.402 2.696s-.22 2.24-.402 2.695zm-.48-7.54h-2.96c-.412.01-.832.098-1.233.3a2.192 2.192 0 0 0-1.047 1.122c-.292.726-.543 1.816-.543 3.423s.25 2.697.543 3.422c.212.528.622.907 1.047 1.12.43.218.88.303 1.318.304h2.786c.438 0 .89-.085 1.318-.302a2.184 2.184 0 0 0 1.046-1.12c.294-.727.543-1.817.543-3.423s-.248-2.697-.542-3.422a2.184 2.184 0 0 0-1.046-1.12c-.4-.204-.82-.292-1.23-.304zM6.613 5.387h3.523c.212 0 .417.037.535.09.126.056.15.09.17.128.125.245.254.625.255 1.235 0 .487-.1.783-.215.988-.172.3-.425.464-.744.58-.312.112-.66.136-.818.134H9.23L9.2 8.537H6.613v-3.15zm3.612-1.938H6.31c-.12 0-.237.006-.364.02-.17.02-.382.052-.632.2-.186.108-.36.297-.454.48-.142.28-.158.493-.175.675-.01.176-.01.34-.01.534v7.782H6.61v-2.665h2.514c.042 0 .107.004.19.004h.056l1.38 2.662h2.184l-1.627-3.14c.032-.017.066-.034.1-.054a3.133 3.133 0 0 0 1.154-1.157c.304-.53.473-1.19.47-1.95.002-.894-.202-1.603-.466-2.12a2.237 2.237 0 0 0-1.145-1.032 3.327 3.327 0 0 0-1.198-.24z"/></g><path fill="#EB0029" d="M43.57 20.07h-4.63v-.2c.002-1.51.412-2.364.728-2.83a.54.54 0 0 1 .262-.19c.14-.057.34-.093.55-.09h1.56c.21 0 .407.033.545.09.144.058.217.12.267.19.312.465.717 1.308.72 2.806v.224zm1.922 3.668v-4.346c-.076-1.613-.565-2.744-1.05-3.442a2.483 2.483 0 0 0-1.148-.896 3.352 3.352 0 0 0-1.073-.22c0-.004-.003-.006-.007-.006h-1.91c-.006 0-.013 0-.013.006-.35.017-.71.078-1.067.22a2.462 2.462 0 0 0-1.146.893c-.53.768-1.07 2.05-1.066 3.923v3.734c0 .48.388.874.87.874h.192a.87.87 0 0 0 .868-.874V22h4.632v1.61c0 .48.39.867.868.867h.194a.87.87 0 0 0 .858-.74zm-30.477-8.91H13.1c-.006 0-.014-.002-.014.006-.35.017-.71.078-1.068.22-.42.165-.846.453-1.146.893-.53.768-1.07 2.05-1.067 3.923v3.734c0 .48.388.874.868.874h.193a.87.87 0 0 0 .868-.874V22h4.632v1.61c0 .48.39.867.87.867h.192c.48 0 .868-.39.868-.867v-3.765c.003-1.857-.53-3.133-1.06-3.896a2.478 2.478 0 0 0-1.148-.897 3.34 3.34 0 0 0-1.073-.22v-.005zm1.35 5.242h-4.63v-.2c.003-1.51.41-2.364.728-2.83.05-.072.12-.135.262-.19.14-.057.34-.093.553-.09h1.545a1.54 1.54 0 0 1 .557.09.56.56 0 0 1 .267.19c.313.465.716 1.306.72 2.806v.224zm17.822-1.286a2.73 2.73 0 0 0-.736-.098h-2.604c-.253.002-.49-.03-.626-.077-.144-.056-.152-.08-.167-.104-.083-.152-.17-.38-.172-.784.002-.405.09-.633.173-.784.015-.022.024-.048.167-.102.135-.05.37-.08.623-.078h3.76a.874.874 0 0 0 .876-.87v-1.06h-4.637c-.166 0-.34.005-.522.024-.49.054-.975.198-1.373.49-.473.35-.755.89-.892 1.462l-.014.062a3.954 3.954 0 0 0 .047 1.9c.135.477.37.93.75 1.248.446.374 1.022.54 1.603.587.14.012.276.016.406.016h2.295c.323 0 .653.148.734.46.086.33.086.677 0 1.006-.03.12-.07.213-.112.286a.362.362 0 0 1-.317.178h-4.23a.87.87 0 0 0-.876.87v.19c0 .483.392.87.874.87h4.23c.22 0 .466-.02.738-.096.27-.075.57-.222.824-.48.426-.423.867-1.22.858-2.318.01-1.098-.433-1.896-.858-2.318a1.867 1.867 0 0 0-.82-.48zm-8.668 0a2.726 2.726 0 0 0-.737-.098h-2.606a2.05 2.05 0 0 1-.625-.077c-.144-.056-.153-.08-.167-.104-.083-.152-.17-.38-.172-.784 0-.405.09-.633.172-.784.015-.022.024-.048.167-.102.136-.05.37-.08.624-.078h3.76c.48 0 .875-.388.875-.87v-1.06h-4.634c-.166 0-.34.005-.522.024-.492.054-.977.198-1.375.49-.474.35-.755.89-.892 1.462l-.016.062a3.954 3.954 0 0 0 .05 1.9c.133.477.368.93.748 1.248.447.374 1.022.54 1.603.587.14.012.276.016.406.016h2.295c.32 0 .65.148.73.46.087.33.087.677.003 1.006-.03.12-.07.213-.113.286a.362.362 0 0 1-.318.178h-4.23a.872.872 0 0 0-.876.87v.19c0 .483.395.87.877.87h4.23c.22 0 .466-.02.737-.096.27-.075.573-.222.826-.48.425-.423.865-1.22.857-2.318.008-1.098-.433-1.896-.858-2.318a1.875 1.875 0 0 0-.82-.48zM8 21.546c-.525-.747-1.224-1.39-1.802-1.877a.29.29 0 0 1-.02-.018c.313-.26.662-.57 1-.914.353-.363.696-.763.97-1.204.272-.444.5-.94.507-1.55v-.287a.87.87 0 0 0-.87-.87h-.48a.58.58 0 0 0-.58.58c0 .385-.015.786-.218 1.114-.028.045-.058.09-.092.137-.345.5-.948 1.078-1.456 1.5-.256.213-.487.39-.65.515l-.022.015h-.39c-.303 0-.672 0-1.035-.002v-2.987a.87.87 0 0 0-.868-.87h-.192a.87.87 0 0 0-.868.872v7.932c0 .48.387.87.868.87h.193c.48 0 .868-.387.868-.865v-3.015c.355-.002.714-.002 1.014-.002h.41a14.3 14.3 0 0 1 1.288 1.08c.337.322.657.678.868.99.218.313.29.576.282.632v.29c0 .478.388.868.868.868h.193c.48 0 .87-.39.87-.87l-.002-.288c-.01-.715-.314-1.273-.656-1.776z"/></svg>