<svg xmlns="http://www.w3.org/2000/svg" width="52.44" height="18.208" viewBox="0 0 52.44 18.208"><g fill-rule="evenodd" clip-rule="evenodd"><path fill="#5A80AB" d="M42.433 5.262c-1.287 0-2.304.34-3.083.497l-.24 1.955c.39-.186 1.616-.528 2.634-.56 1.018-.03 1.616.187 1.407 1.057-3.022 0-5.058.62-5.477 2.577-.6 3.352 3.083 3.26 4.55 1.8l-.18.807h2.694l1.168-5.34c.48-2.267-1.586-2.826-3.472-2.795zm.18 5.465c-.15.714-.718 1.025-1.406 1.056-.598.03-1.138-.497-.748-1.118.3-.528 1.137-.652 1.645-.652h.658c-.06.248-.09.466-.15.714zM48.21 3.15l-2.228 10.247h2.736L50.974 3.15H48.21zM35.638 3.182h-5.01l-2.22 10.215h2.91l.75-3.384h2.07c2.04 0 3.72-1.242 4.17-3.353.51-2.392-1.23-3.478-2.67-3.478zm-.09 3.477c-.18.775-.96 1.396-1.71 1.396h-1.35l.6-2.794h1.44c.75 0 1.2.62 1.02 1.397z"/><path fill="#405777" d="M16.197 5.262c-1.27 0-2.277.34-3.016.497l-.235 1.955c.355-.186 1.567-.528 2.572-.56 1.006-.03 1.597.187 1.42 1.057-2.987 0-4.998.62-5.412 2.577-.592 3.352 3.045 3.26 4.464 1.8l-.178.807h2.69l1.154-5.34c.474-2.267-1.596-2.826-3.46-2.795zm.207 5.465c-.148.714-.74 1.025-1.42 1.056-.59.03-1.093-.497-.71-1.118.297-.528 1.124-.652 1.598-.652h.68c-.06.248-.118.466-.148.714zM20.83 5.41h2.69l.433 4.756 2.633-4.757h2.777L22.97 16.794h-3.01l1.968-3.348-1.1-8.038zM9.505 3.182H4.482L2.257 13.397h2.948l.722-3.384h2.105c2.015 0 3.7-1.242 4.15-3.353.51-2.392-1.203-3.478-2.677-3.478zm-.09 3.477c-.18.775-.932 1.396-1.684 1.396H6.348l.632-2.794h1.443c.72 0 1.203.62.992 1.397z"/></g></svg>