<svg xmlns="http://www.w3.org/2000/svg" width="29.997" height="28.142" viewBox="0 0 29.997 28.142"><path fill="#585551" d="M10.396 5.152a3.595 3.595 0 0 0-7.19 0v8.758a3.594 3.594 0 0 0 7.19 0V5.152z"/><path fill="#81B05C" d="M19.32 14.077a3.595 3.595 0 0 0-7.188 0v8.925a3.592 3.592 0 0 0 3.593 3.593 3.593 3.593 0 0 0 3.595-3.593v-8.925zM28.328 5.152a3.594 3.594 0 0 0-7.19 0v17.85a3.593 3.593 0 0 0 3.596 3.593 3.593 3.593 0 0 0 3.594-3.593V5.152z"/><circle fill="#81B05C" cx="6.801" cy="23.002" r="3.595"/><path fill="#585551" d="M19.32 5.152a3.594 3.594 0 0 0-7.188 0v.082a3.595 3.595 0 0 0 7.188 0v-.082z"/></svg>