<svg xmlns="http://www.w3.org/2000/svg" width="46.257" height="28.142" viewBox="0 0 46.257 28.142"><g fill="#E69F44"><path d="M40.87 13.402c-.638 0-1.092.746-1.092 1.798 0 .7.243 1.054.722 1.054.656 0 1.116-.742 1.116-1.802 0-.68-.262-1.05-.746-1.05zM32.585 15.898c0 .333.197.546.504.546.572 0 .987-.547 1.01-1.338a2.362 2.362 0 0 0-.313-.022c-.798 0-1.202.274-1.202.814z"/><path d="M31.955 1.107a12.924 12.924 0 0 0-10.014 4.73h2.62c.358.436.688.894.988 1.374H20.95c-.274.442-.525.9-.746 1.375h6.092c.208.444.392.902.55 1.373h-7.19c-.15.448-.277.906-.378 1.373h7.943c.056.257.1.517.14.78h.002c.035.238.064.478.088.72.504-1.28 1.53-2.08 2.83-2.08.616 0 1.342.26 1.55.34l-.232 1.428c-.503-.253-.867-.355-1.258-.355-1.05 0-1.788 1.016-1.788 2.465 0 .998.496 1.6 1.314 1.6.346 0 .73-.106 1.196-.337l-.248 1.5c-.518.142-.854.193-1.244.193-1.065 0-1.847-.54-2.218-1.467-.113.715-.283 1.41-.507 2.08h-7.19c.157.47.34.93.55 1.375h6.09c-.222.474-.47.933-.747 1.375h-4.596c.3.478.63.937.99 1.372h2.618c-.403.49-.84.948-1.31 1.374a12.92 12.92 0 0 0 8.706 3.357c7.162 0 12.968-5.806 12.968-12.968 0-7.165-5.806-12.973-12.97-12.973zm3.17 16.382H33.96l.025-.555c-.355.438-.83.647-1.475.647-.763 0-1.286-.596-1.286-1.462 0-1.303.91-2.062 2.47-2.062.16 0 .365.015.574.042.043-.178.055-.253.055-.35 0-.353-.245-.484-.902-.484a4.663 4.663 0 0 0-1.49.24l.197-1.203c.702-.206 1.164-.284 1.684-.284 1.21 0 1.85.542 1.85 1.568.002.274-.044.614-.114 1.06-.123.775-.385 2.438-.42 2.84zm1.878 0h-1.408l.064-.36c.244-1.658.557-3.335.733-4.99h1.294c.012.27-.05.537-.085.81.432-.632.76-.965 1.35-.843-.174.296-.408.882-.534 1.552-.79-.08-.912.558-1.415 3.83zm4.24 0l.067-.498c-.386.412-.782.59-1.297.59-1.024 0-1.7-.88-1.7-2.22 0-1.78 1.05-3.28 2.29-3.28.547 0 .96.224 1.345.73l.312-1.9h1.39l-1.073 6.578h-1.333z"/></g><g fill="#D12020"><path d="M22.056 13.238c-.446 0-.764.34-.894.955h1.545c.007-.112.15-.955-.65-.955zM10.405 15.898c0 .333.197.546.505.546.573 0 .987-.547 1.01-1.338a2.365 2.365 0 0 0-.314-.022c-.797 0-1.2.274-1.2.814z"/><path d="M27.11 14.742c0-.712.12-1.357.34-1.913l-.01-.125c-.006-.06-.016-.12-.023-.18-.017-.14-.035-.278-.056-.417-.173.297-.407.88-.533 1.55-.79-.08-.91.56-1.414 3.83h-1.408l.064-.36c.243-1.656.557-3.333.734-4.988h1.292c.013.27-.05.537-.084.81.43-.632.76-.965 1.35-.843-.005-.024-.007-.05-.01-.073-.01-.066-.025-.13-.036-.197a13.585 13.585 0 0 0-.086-.456l-.012-.05h-7.94c.1-.467.226-.925.376-1.373h7.186c-.016-.05-.033-.098-.05-.146a12.7 12.7 0 0 0-.428-1.072l-.07-.154h-6.088c.222-.475.472-.933.747-1.374h4.595c-.076-.122-.152-.244-.233-.363-.024-.035-.05-.07-.073-.105a14.118 14.118 0 0 0-.68-.906h-2.62c.403-.488.84-.948 1.308-1.373a12.918 12.918 0 0 0-8.704-3.358c-7.163 0-12.97 5.807-12.97 12.97 0 7.16 5.808 12.967 12.97 12.967 3.356 0 6.413-1.274 8.716-3.366l.024-.023c.13-.118.256-.24.38-.363.044-.042.085-.085.127-.128.09-.092.18-.186.268-.28l.135-.147c.098-.11.193-.22.287-.33l.078-.092h-2.62c-.358-.435-.688-.894-.988-1.372h4.593c.02-.032.043-.065.064-.1a13.958 13.958 0 0 0 .34-.586v-.002c.093-.17.18-.34.264-.513l.037-.074c.016-.033.03-.067.045-.1h-6.088a12.896 12.896 0 0 1-.55-1.374h7.187c.02-.06.042-.118.06-.177l.052-.163c.044-.146.086-.294.125-.442l.036-.134c.05-.195.096-.392.136-.59.038-.19.07-.382.102-.576a3.645 3.645 0 0 1-.242-1.368zM7.046 17.49l.807-5.058-1.8 5.057h-.96l-.12-5.028-.847 5.027H2.81l1.1-6.58h2.024l.057 4.073 1.367-4.072h2.187l-1.09 6.58H7.047zm4.733 0l.026-.555c-.356.438-.83.647-1.476.647-.763 0-1.286-.596-1.286-1.462 0-1.303.91-2.062 2.47-2.062.16 0 .365.015.575.042.043-.178.054-.253.054-.35 0-.353-.245-.484-.903-.484a4.657 4.657 0 0 0-1.49.24c.016-.09.197-1.203.197-1.203.702-.206 1.165-.284 1.685-.284 1.21 0 1.85.542 1.848 1.568.002.274-.043.614-.114 1.06-.122.774-.384 2.437-.42 2.84h-1.167zm4.12-3.186c.706.324.994.755.994 1.49 0 1.222-.686 1.787-2.173 1.787-.858-.023-1.144-.087-1.463-.157l.193-1.235c.45.146.84.21 1.26.21.56 0 .81-.15.81-.483 0-.243-.088-.322-.658-.59-.744-.35-1.072-.817-1.072-1.494-.005-.987.54-1.81 2.115-1.81.323 0 .875.047 1.24.105l-.2 1.24a7.897 7.897 0 0 0-1.013-.08c-.455 0-.69.148-.69.437 0 .25.07.31.66.582zm3.745-.88h-.72c-.163 1.02-.396 2.286-.398 2.454 0 .277.147.396.482.396.16 0 .284-.015.38-.05l-.188 1.184c-.385.12-.686.173-1.01.173-.72 0-1.114-.412-1.114-1.173-.01-.238.104-.86.194-1.427.08-.5.61-3.65.61-3.65h1.4l-.164.81h.72l-.193 1.285zm2.626 2.948c.502 0 .954-.104 1.457-.338l-.233 1.33c-.48.148-.945.218-1.436.217-1.567 0-2.383-.818-2.383-2.385 0-1.83 1.038-3.175 2.448-3.175 1.154 0 1.892.753 1.892 1.936 0 .393-.052.775-.173 1.315h-2.787c-.095.778.402 1.102 1.216 1.102z"/></g></svg>