<svg xmlns="http://www.w3.org/2000/svg" width="95.941" height="32.5" viewBox="0 -7.503 95.941 32.5"><path fill="#4C70B3" d="M18.733 14.638H15.54l1.995-12.264h3.194zM37.968 14.638H40.9L38.343 2.374h-2.567c-1.185 0-1.474.914-1.474.914l-4.762 11.35h3.328l.666-1.822h4.06l.374 1.822zM34.455 10.3l1.678-4.59.943 4.59h-2.62zM29.79 5.323l.456-2.635s-1.406-.534-2.87-.534c-1.587 0-5.35.692-5.35 4.06 0 3.17 4.417 3.21 4.417 4.872 0 1.664-3.96 1.366-5.268.317l-.475 2.753s1.426.692 3.604.692 5.466-1.13 5.466-4.2c0-3.187-4.456-3.484-4.456-4.87 0-1.386 3.11-1.21 4.477-.455z"/><path fill="#E59D4D" d="M9.496 9.085L8.398 3.45S8.265 2.324 6.85 2.324H1.71l-.06.212s2.47.512 4.84 2.43c2.267 1.834 3.006 4.12 3.006 4.12z"/><path fill="#4C70B3" d="M12.854 2.374L9.81 10.81l-.36-1.817-.008-.042c-.202-.526-1.022-2.41-2.95-3.97a12.56 12.56 0 0 0-1.374-.965l2.766 10.623h3.327l5.08-12.264h-3.436z"/><g><g fill="#E69F44"><path d="M89.705 7.827c-.64 0-1.093.746-1.093 1.798 0 .7.243 1.054.722 1.054.656 0 1.117-.742 1.117-1.803 0-.68-.262-1.05-.745-1.05zM81.42 10.323c0 .333.196.546.503.546.572 0 .988-.548 1.01-1.34a2.202 2.202 0 0 0-.312-.02c-.797 0-1.2.273-1.2.813z"/><path d="M80.79-4.468a12.92 12.92 0 0 0-8.706 3.356c-.47.426-.906.885-1.31 1.373h2.62c.357.438.688.896.988 1.375h-4.598c-.275.44-.525.9-.746 1.374h6.092c.207.443.392.9.55 1.372h-7.19c-.15.448-.277.906-.378 1.373h7.943c.055.256.1.517.14.778.036.24.064.48.09.72.504-1.28 1.53-2.08 2.83-2.08.615 0 1.342.26 1.55.342l-.232 1.428c-.503-.253-.867-.355-1.26-.355-1.05 0-1.786 1.017-1.786 2.465 0 .998.496 1.602 1.314 1.602.347 0 .73-.107 1.196-.338l-.248 1.5c-.518.14-.854.19-1.244.19-1.064 0-1.847-.54-2.218-1.466-.113.716-.283 1.412-.507 2.082h-7.19c.156.47.34.928.55 1.374h6.09c-.223.473-.47.932-.747 1.374h-4.596c.3.478.63.937.988 1.372h2.62c-.403.49-.84.948-1.31 1.374a12.92 12.92 0 0 0 8.705 3.355c7.162 0 12.967-5.805 12.967-12.967 0-7.163-5.804-12.97-12.968-12.97zm3.168 16.382h-1.166l.026-.554c-.354.438-.83.646-1.476.646-.762 0-1.285-.596-1.285-1.462 0-1.303.908-2.062 2.47-2.062.16 0 .365.015.574.042.044-.18.057-.253.057-.35 0-.354-.246-.484-.902-.484a4.69 4.69 0 0 0-1.49.24l.195-1.2c.703-.207 1.164-.285 1.685-.285 1.21 0 1.85.543 1.85 1.568 0 .274-.044.614-.114 1.06-.123.775-.384 2.438-.422 2.84zm1.88 0h-1.41l.065-.36c.244-1.656.557-3.334.733-4.988h1.294c.012.27-.05.537-.085.81.433-.632.76-.965 1.35-.843-.174.296-.407.882-.534 1.552-.788-.08-.91.56-1.413 3.83zm4.24 0l.066-.497c-.387.412-.782.59-1.297.59-1.024 0-1.7-.88-1.7-2.22 0-1.78 1.05-3.28 2.29-3.28.547 0 .96.225 1.345.73l.312-1.9h1.39l-1.07 6.578h-1.336z"/></g><g fill="#D12020"><path d="M70.89 7.663c-.446 0-.764.34-.895.955h1.545c.008-.112.15-.955-.65-.955zM59.24 10.323c0 .333.196.546.504.546.573 0 .987-.548 1.01-1.34a2.184 2.184 0 0 0-.313-.02c-.797 0-1.2.273-1.2.813z"/><path d="M75.944 9.167a5.2 5.2 0 0 1 .34-1.913l-.01-.124c-.006-.06-.017-.12-.022-.18-.018-.14-.035-.278-.057-.417-.174.297-.408.88-.533 1.55-.79-.08-.91.56-1.414 3.83H72.84l.063-.36c.244-1.655.558-3.333.735-4.987h1.292c.013.27-.05.537-.084.81.43-.632.76-.965 1.35-.843-.005-.024-.007-.05-.01-.073-.01-.065-.024-.13-.036-.197-.027-.152-.054-.305-.086-.456l-.012-.05h-7.94c.1-.468.226-.926.376-1.374h7.186a14.498 14.498 0 0 0-.295-.797c-.058-.142-.12-.282-.183-.422l-.07-.154H69.04c.22-.475.47-.933.745-1.374h4.594a8.548 8.548 0 0 0-.233-.362c-.023-.035-.05-.07-.073-.105-.08-.117-.16-.23-.243-.344-.036-.05-.073-.102-.112-.15a15.79 15.79 0 0 0-.323-.413h-2.62c.404-.487.84-.947 1.31-1.373a12.92 12.92 0 0 0-8.704-3.357c-7.163 0-12.968 5.807-12.968 12.97S56.22 21.47 63.382 21.47c3.354 0 6.41-1.273 8.714-3.365l.025-.023c.13-.118.257-.24.382-.363.043-.043.084-.086.125-.13.09-.09.18-.185.268-.28l.135-.145c.098-.11.193-.22.287-.33.025-.032.053-.06.078-.092h-2.62a13.13 13.13 0 0 1-.987-1.372h4.592c.02-.032.043-.065.064-.1.02-.03.038-.062.057-.094.1-.162.193-.325.284-.492v-.003c.094-.168.18-.34.264-.512l.037-.073c.016-.033.03-.066.045-.1h-6.088c-.21-.445-.393-.904-.55-1.374h7.187l.06-.176.05-.163c.044-.145.087-.293.126-.44l.035-.135a12 12 0 0 0 .138-.59c.04-.19.07-.382.103-.576a3.578 3.578 0 0 1-.246-1.373zM55.88 11.914l.807-5.057-1.8 5.057h-.962l-.117-5.027-.848 5.027h-1.317l1.1-6.578h2.025l.058 4.072 1.365-4.072h2.19l-1.09 6.578h-1.41zm4.733 0l.027-.554c-.355.438-.83.646-1.477.646-.763 0-1.285-.596-1.285-1.462 0-1.303.91-2.062 2.47-2.062.16 0 .364.015.575.042.043-.18.055-.253.055-.35 0-.354-.245-.484-.902-.484a4.66 4.66 0 0 0-1.49.24l.195-1.203c.703-.206 1.166-.284 1.687-.284 1.21 0 1.85.543 1.848 1.568.002.275-.043.615-.113 1.062-.123.773-.385 2.437-.422 2.84l-1.167.002zm4.122-3.185c.705.322.993.754.993 1.488 0 1.223-.686 1.787-2.173 1.787-.86-.023-1.146-.088-1.464-.158.01-.056.194-1.234.194-1.234.45.146.84.21 1.26.21.56 0 .81-.15.81-.483 0-.243-.088-.32-.658-.59-.743-.35-1.07-.817-1.07-1.494-.007-.987.538-1.81 2.113-1.81.322 0 .874.046 1.24.103l-.202 1.24a7.897 7.897 0 0 0-1.012-.082c-.455 0-.688.15-.688.438 0 .25.067.31.657.583zm3.744-.88h-.723c-.16 1.02-.395 2.285-.396 2.453 0 .277.147.396.483.396.16 0 .285-.017.38-.05l-.187 1.183c-.386.12-.687.173-1.012.173-.72 0-1.113-.413-1.113-1.174-.008-.238.105-.86.195-1.427.08-.5.61-3.65.61-3.65h1.4l-.164.81h.72l-.19 1.285zm2.625 2.947c.5 0 .953-.104 1.456-.338l-.232 1.33c-.48.147-.945.217-1.436.216-1.566 0-2.383-.818-2.383-2.386 0-1.83 1.036-3.175 2.446-3.175 1.154 0 1.893.753 1.893 1.936 0 .395-.054.776-.175 1.316H69.89c-.096.777.4 1.1 1.215 1.1z"/></g></g></svg>