<svg xmlns="http://www.w3.org/2000/svg" width="43.348" height="18.473" viewBox="0 0 43.348 18.473"><path fill="#009FFF" d="M4.72 1.244L2.51 4.538h17.58l2.375-3.294zM31.037 2.704c.258-.376.82-1.463-.83-1.46h-.085l-6.775.02-1.634 3.284h5.227l-7.18 12.865 11.277-14.71z"/><path fill="#202124" d="M2.76 11.555C1.485 11.52.61 10.14 1.056 8.793 1.447 7.623 2.14 6.66 3.23 6.03a4.253 4.253 0 0 1 2.24-.606c.587 0 1.025.14 1.184.27l.105.085-.813 1.336-.17-.106c-.096-.058-.38-.16-.828-.16-.42 0-.845.136-1.2.383-.523.356-.936.95-1.132 1.632-.236.82.066 1.27.85 1.27.343 0 .71-.062.982-.165l.27-.103-.26 1.373s-.587.353-1.7.315zM33.325 11.555c-1.273-.036-2.15-1.415-1.702-2.762.39-1.17 1.084-2.132 2.172-2.762a4.253 4.253 0 0 1 2.242-.606c.585 0 1.024.14 1.183.27l.104.085-.81 1.337-.17-.107c-.097-.058-.38-.16-.83-.16-.418 0-.843.136-1.198.383-.524.356-.936.95-1.133 1.632-.236.82.066 1.27.85 1.27.343 0 .71-.062.98-.165l.27-.103-.258 1.373s-.586.353-1.7.315zM7.136 11.563c-1.374 0-2.005-1.01-1.57-2.518.312-1.084.99-2.12 1.814-2.773.695-.548 1.502-.85 2.274-.85 1.39 0 2.003.99 1.563 2.52-.312 1.083-.977 2.114-1.78 2.764-.705.563-1.5.857-2.3.857zM9.12 6.82c-.283 0-.58.122-.86.357-.51.41-.95 1.23-1.122 1.828-.153.532-.18 1.164.562 1.164.26 0 .56-.124.84-.346.468-.385.93-1.244 1.106-1.85C9.98 6.82 9.333 6.82 9.12 6.82zM13.26 11.473l-.122-2.352a22.533 22.533 0 0 1-.014-1.016c-.17.377-.365.803-.58 1.26l-.99 2.11H10.08l2.815-5.96h1.657l.108 2.254c.005.284.005.553 0 .818.116-.275.25-.567.4-.89l1.028-2.18h1.474l-2.807 5.957H13.26zM19.98 11.473l2.143-4.514h-1.445l.686-1.445h4.513l-.69 1.444h-1.474l-2.144 4.513zM29.1 11.473l.306-1.442h-1.29l-1.087 1.443H25.3l4.73-5.958h1.78l-1.036 5.958H29.1zm.626-2.754s.29-1.356.308-1.447c-.08.113-1.04 1.446-1.04 1.446h.732zM36.535 11.473L38.68 6.96h-1.462l.702-1.445h4.512l-.69 1.444H40.27l-2.145 4.513z"/><path fill="#009FFF" d="M17.486 12.35L23.682 0l-10.29 14.235-.03.036s-.306.394-.246.84c.04.294.274.553.988.55.06 0 .114.003.167.008h6.202l1.79-3.32h-4.776zM23.942 12.35l-2.522 3.32h16.105l2.02-3.325z"/></svg>