<svg xmlns="http://www.w3.org/2000/svg" width="28.13" height="28.427" viewBox="0 0 28.13 28.427"><g fill="#466B4A"><path d="M24.502 6.64c-.147-.22-.3-.44-.462-.652a9.71 9.71 0 0 0-.217-.275l-.12-.146L9.545 13.71 2.677 9.76a12.316 12.316 0 0 0-.332 1.343l7.2 4.142L24.5 6.64z"/><path d="M20.473 2.827a12.137 12.137 0 0 0-1.424-.714L9.544 7.58 5.313 5.145c-.3.332-.585.68-.848 1.043l5.08 2.924 10.928-6.285z"/><path d="M22.775 4.568c-.34-.326-.697-.632-1.07-.917l-12.16 6.996-5.803-3.34c-.22.387-.42.784-.596 1.19l6.4 3.68 13.23-7.608z"/><path d="M3.8 19.484a12.198 12.198 0 0 0 6.532 5.374c.476.166.97.303 1.47.41.707.15 1.436.237 2.18.258h.68a12.278 12.278 0 0 0 6.018-1.78 12.2 12.2 0 0 0 3.572-3.336 12.184 12.184 0 0 0 2.257-7.385 12.284 12.284 0 0 0-1.336-5.237l-15.63 8.987-7.377-4.244a12.276 12.276 0 0 0 .176 3.023 12.085 12.085 0 0 0 1.456 3.93z"/></g></svg>