<svg xmlns="http://www.w3.org/2000/svg" width="28.343" height="28.559" viewBox="0 0 28.343 28.559"><g fill-rule="evenodd" clip-rule="evenodd" fill="#4E79B8"><path d="M14.348 1.603c2.037 0 3.967.474 5.685 1.317.27.128.54.27.81.424l-1.195 1.07-1.795-1.857-3.03 2.702-1.798-1.964L7.383 8.38 11 12.37l-1.42 1.25 3.562 3.993-1.413 1.248 5.09 5.667 3.022-2.782 2.613 2.982c-.52.404-1.086.784-1.71 1.136a12.87 12.87 0 0 1-6.396 1.695c-7.148 0-12.977-5.83-12.977-12.976 0-7.15 5.828-12.977 12.975-12.977z"/><path d="M11.983 13.76l3.086-2.78 2.777 3.086-3.085 2.778-2.78-3.085zM14.178 19.09l3.085-2.778 2.78 3.086-3.087 2.78-2.778-3.088zM9.776 8.49l3.085-2.78 2.78 3.087-3.087 2.778L9.776 8.49zM15.438 6.994l2.314-2.083 2.083 2.315L17.52 9.31 15.44 6.993zM19.55 16.538l2.314-2.084 2.084 2.315-2.314 2.082-2.085-2.314zM21.585 21.212l2.314-2.084 2.083 2.314-2.314 2.084-2.085-2.314zM22.517 10.5l1.543-1.39 1.39 1.543-1.543 1.39-1.39-1.544zM20.546 5.915l1.543-1.39 1.388 1.544-1.543 1.388-1.39-1.543zM24.49 15.083l1.543-1.39 1.39 1.543-1.544 1.39-1.39-1.543zM17.57 11.648l2.315-2.084 2.083 2.314-2.313 2.083-2.084-2.312z"/></g></svg>