<svg xmlns="http://www.w3.org/2000/svg" width="97.538" height="119.921" viewBox="0 0 97.538 119.921"><path fill="#FFC50B" d="M85.196 31.247l-4.376-.335c-.754-2.832-1.948-5.514-3.387-7.996l2.71-3.196c.964-.963 1.123-2.345.388-3.077l-8.942-8.94c-.737-.734-2.122-.552-3.08.41l-3.218 2.74a32.928 32.928 0 0 0-7.993-3.303l-.324-4.652c0-1.365-.848-2.898-1.89-2.898H42.45c-1.04 0-1.89 1.533-1.89 2.897l-.336 4.44c-2.828.752-5.503 1.975-7.978 3.41l-3.215-2.69c-.96-.963-2.336-1.115-3.072-.38l-8.94 8.95c-.732.73-.55 2.12.413 3.083l2.736 3.218a33.044 33.044 0 0 0-3.3 7.987l-5.37.332c-1.36 0-3.616.84-3.616 1.882v12.637c0 1.042 2.256 1.89 3.617 1.89l4.796.336c.76 2.828 2.158 5.504 3.588 7.98l-2.594 3.207c-.967.964-1.076 2.342-.336 3.075l8.972 8.936c.735.742 2.128.56 3.086-.405l3.238-2.734a32.72 32.72 0 0 0 7.995 3.297l.317 5.245c0 1.365.85 3.493 1.89 3.493h12.637c1.04 0 1.89-2.127 1.89-3.493l.327-4.733c2.835-.756 5.515-2.128 8-3.564l3.204 2.62c.958.96 2.336 1.078 3.075.342l8.934-8.97c.734-.734.554-2.13-.41-3.092l-2.742-3.216a32.662 32.662 0 0 0 3.304-8l4.53-.32c1.36 0 2.77-.85 2.77-1.892v-12.64c-.002-1.04-1.412-1.88-2.77-1.88zm-36.43 21.26c-7.212 0-13.056-5.844-13.056-13.05 0-7.215 5.844-13.06 13.055-13.06 7.213 0 13.06 5.845 13.06 13.06 0 7.206-5.847 13.05-13.06 13.05z"/><path fill="#06B57E" d="M97.538 51.88c0-10.554-1.873-19.272-5.175-26.347-1.877.145-3.788.23-5.73.23-15.994 0-30.012-5.068-37.863-12.678-7.853 7.61-21.87 12.677-37.864 12.677a74.31 74.31 0 0 1-5.73-.23C1.87 32.61 0 41.328 0 51.883c0 36.16 29.658 68.04 48.77 68.04 20.46 0 48.768-31.88 48.768-68.04z"/><g fill="#FFF"><path d="M68.32 91.817c0 1.75-1.417 3.17-3.168 3.17h-32.77a3.167 3.167 0 0 1-3.166-3.17v-28.01a3.17 3.17 0 0 1 3.167-3.17h32.77a3.17 3.17 0 0 1 3.167 3.17v28.01z"/><path d="M48.768 93.068c-8.16 0-14.8-6.64-14.8-14.794v-28.14c0-8.158 6.64-14.796 14.8-14.796 8.158 0 14.8 6.64 14.8 14.796v28.14c0 8.156-6.642 14.794-14.8 14.794zm0-51.388c-4.663 0-8.46 3.794-8.46 8.454v28.14c0 4.66 3.797 8.454 8.46 8.454s8.456-3.793 8.456-8.454v-28.14c0-4.66-3.793-8.454-8.456-8.454z"/></g><g fill="#06B57E"><path d="M53.678 73.72c0 2.71-2.207 4.908-4.908 4.908a4.91 4.91 0 0 1-4.908-4.91 4.906 4.906 0 0 1 4.908-4.904 4.91 4.91 0 0 1 4.908 4.905z"/><path d="M51.22 86.193a2.453 2.453 0 0 1-2.454 2.452 2.453 2.453 0 0 1-2.454-2.452V72.495a2.45 2.45 0 0 1 2.454-2.454 2.45 2.45 0 0 1 2.454 2.455v13.698z"/></g><path opacity=".1" fill="#010000" d="M92.336 25.533c-1.877.145-3.788.23-5.73.23-15.905 0-29.85-5.015-37.726-12.55v106.694c20.77 0 48.63-32.035 48.63-68.026 0-10.553-1.87-19.272-5.174-26.347z"/></svg>