<svg xmlns="http://www.w3.org/2000/svg" width="16" height="16" viewBox="-0.5 -0.5 16 16"><path fill="#007066" d="M4 3.064h10.365c.627 0 1.135.51 1.135 1.137v8.04c0 .627-.508 1.136-1.135 1.136h-.29l.668 1.972-5.43-1.972H4.002c-.625 0-1.133-.51-1.133-1.137V4.2c0-.627.508-1.136 1.134-1.136z"/><path fill="#00DBDB" d="M11-.5H.633C.008-.5-.5.01-.5.638v8.037c0 .628.508 1.138 1.134 1.138h.29l-.667 1.972 5.43-1.972H11c.626 0 1.134-.51 1.134-1.138V.638C12.134.01 11.624-.5 11-.5z"/><path fill="#00C6C6" d="M11 9.812c.625 0 1.133-.51 1.133-1.138v-4.01L8.42 1.606l-3.035 3.73-1.912-1.57-1.287 1.578 5.43 4.47H11z"/><path fill="#404644" d="M9.995 2.894L8.42 1.606l-3.035 3.73-1.912-1.57-1.287 1.578 3.43 2.813z"/></svg>