<svg xmlns="http://www.w3.org/2000/svg" width="16" height="16" viewBox="-0.516 -0.516 16 16"><path fill="#00742B" d="M15.36 7.616L8.044.583a.72.72 0 0 0-.994 0L-.27 7.617l7.816 6.59 7.815-6.59z"/><ellipse fill="#FFC800" cx="7.546" cy="9.582" rx="5.905" ry="5.676"/><path fill="#FFD764" d="M4.073 14.172l7.395-8.83a6.018 6.018 0 0 0-3.92-1.436c-3.263 0-5.906 2.542-5.906 5.676 0 1.887.958 3.56 2.43 4.59z"/><path fill="#009F45" d="M8.436 11.726c-.492.286-1.288.286-1.78 0L-.37 7.616a.412.412 0 0 0-.022.124v7.293c0 .25.21.45.47.45h14.938a.46.46 0 0 0 .47-.45V7.74a.437.437 0 0 0-.022-.125l-7.028 4.11z"/><path fill="#00B451" d="M-.183 15.422c.075.04.165.062.26.062h14.94a.575.575 0 0 0 .26-.062l-7.233-3.686c-.275-.14-.72-.14-.994 0l-7.233 3.686z"/><path fill="#404644" d="M11.232 6.915l-1.364-1.07-2.63 3.097L5.584 7.64 4.467 8.95l2.973 2.336z"/></svg>