<svg xmlns="http://www.w3.org/2000/svg" width="74.627" height="74.625" viewBox="0 0 74.627 74.625"><circle fill="#78F1FF" cx="37.314" cy="37.311" r="36.093"/><path fill="#0084FD" d="M37.314 0C16.706 0 0 16.706 0 37.312c0 20.606 16.706 37.312 37.314 37.312 20.607 0 37.313-16.706 37.313-37.312C74.627 16.706 57.92 0 37.314 0zm30.604 49.482c-2.445 1.146-5.202 2.447-8.22 3.7 1.304-4.597 2.194-9.498 2.204-14.594h8.3a32.79 32.79 0 0 1-2.284 10.894zM4.425 38.588h8.3c.01 5.493 1.046 10.762 2.518 15.667-2.856-1.095-5.52-2.27-7.942-3.39A32.76 32.76 0 0 1 4.426 38.59zM36.038 4.42v8.303c-5.096.012-9.998.9-14.594 2.204 1.254-3.016 2.552-5.776 3.702-8.22A32.734 32.734 0 0 1 36.038 4.42zm12.006 13.127c2.41.58 4.73 1.297 6.95 2.084a69.862 69.862 0 0 1 2.082 6.947 22.582 22.582 0 0 0-9.032-9.03zm-9.456-4.76V4.42a32.75 32.75 0 0 1 10.894 2.285c1.218 2.59 2.603 5.54 3.925 8.77-4.633-1.41-9.613-2.44-14.82-2.69zm-10.283 3.928a22.567 22.567 0 0 0-10.755 9.862c.66-2.735 1.49-5.36 2.403-7.85a61.76 61.76 0 0 1 8.352-2.012zm-15.52 19.322h-8.36A32.718 32.718 0 0 1 7.3 23.76c2.583-1.193 5.438-2.456 8.512-3.606-1.585 4.93-2.755 10.275-3.026 15.883zm3.932 10.285a22.548 22.548 0 0 0 11.59 11.587c-3.232-.532-6.338-1.348-9.278-2.31-.966-2.943-1.78-6.05-2.313-9.278zm19.32 15.583v8.3a32.795 32.795 0 0 1-12.274-2.877c-1.12-2.423-2.296-5.086-3.39-7.943 4.904 1.472 10.172 2.507 15.665 2.52zm2.55-.063c5.61-.27 10.956-1.44 15.886-3.026-1.152 3.074-2.415 5.93-3.607 8.513a32.814 32.814 0 0 1-12.277 2.875v-8.363zm9.455-4.764a22.552 22.552 0 0 0 9.868-10.76 61.73 61.73 0 0 1-2.015 8.356 71.68 71.68 0 0 1-7.853 2.404zm13.8-21.04c-.25-5.21-1.28-10.19-2.692-14.818 3.23 1.322 6.178 2.707 8.77 3.922a32.846 32.846 0 0 1 2.284 10.895h-8.36zm3.564-15.89a100.824 100.824 0 0 0-7.702-3.227 100.042 100.042 0 0 0-3.23-7.702 33.067 33.067 0 0 1 10.932 10.93zM20.15 9.217a101.534 101.534 0 0 0-2.986 7.063c-2.563.89-5.01 1.86-7.315 2.84a33.04 33.04 0 0 1 10.3-9.9zM9.85 55.51c2.11.895 4.334 1.785 6.66 2.61a119.036 119.036 0 0 0 2.61 6.66 33.043 33.043 0 0 1-9.27-9.27zm45.656 9.272c.977-2.307 1.952-4.75 2.84-7.318 2.49-.938 4.854-1.957 7.06-2.985-2.518 4.11-5.888 7.64-9.9 10.303z"/><circle fill="#0084FD" cx="37.314" cy="37.312" r="19.687"/><path fill="#FFF" d="M51.65 34.056l-1.676-.133a13.03 13.03 0 0 0-1.313-3.174l1.09-1.27c.383-.382.455-.93.164-1.22l-3.547-3.55c-.293-.29-.84-.22-1.22.164L43.87 25.96a13.062 13.062 0 0 0-3.17-1.31l-.13-1.673c0-.54-.336-.976-.75-.976h-5.016c-.414 0-.75.437-.75.977l-.133 1.675c-1.122.3-2.184.74-3.167 1.31l-1.275-1.088c-.38-.382-.927-.454-1.22-.163l-3.547 3.55c-.29.29-.22.837.164 1.22l1.085 1.276a13.085 13.085 0 0 0-1.31 3.17l-1.674.13c-.54 0-.977.334-.977.747v5.017c0 .413.436.75.976.75l1.675.133c.302 1.122.742 2.185 1.312 3.168l-1.088 1.273c-.383.382-.455.93-.163 1.22l3.55 3.548c.29.293.837.22 1.218-.16l1.28-1.086a13 13 0 0 0 3.17 1.308l.127 1.675c0 .54.335.977.75.977h5.016c.414 0 .75-.437.75-.977l.13-1.676a13.05 13.05 0 0 0 3.175-1.31l1.27 1.09c.38.38.928.453 1.22.16l3.548-3.546c.292-.292.22-.84-.163-1.22l-1.088-1.274c.57-.985 1.012-2.05 1.312-3.175l1.674-.126c.54 0 .977-.337.977-.75v-5.017c0-.412-.436-.747-.976-.747z"/><path fill="#0084FD" d="M42.497 37.314c0 2.862-2.32 5.18-5.183 5.18s-5.182-2.318-5.182-5.18a5.182 5.182 0 0 1 10.365 0z"/></svg>