<svg xmlns="http://www.w3.org/2000/svg" width="35" height="32" viewBox="0 0 35 32"><path fill="#D34A2F" d="M15.627 28.467L6.533 24.31a1.23 1.23 0 0 1-.604-1.626l2.508-5.487a1.23 1.23 0 0 1 1.625-.605l9.094 4.158a1.23 1.23 0 0 1 .604 1.625l-2.508 5.487a1.23 1.23 0 0 1-1.625.605zm-5.81-10.05l-2.062 4.512 8.117 3.712 2.063-4.512-8.117-3.714z"/><path fill="#FF6C45" d="M31.11 16.92c-.025-.667-.282-16.008-.282-16.008l-2.847.418S13.11 12.9 2.53 13.474c.127 7.303.09 5.247.09 5.247l28.49-1.8z"/><g fill="#FF6C45"><path d="M2.52 13.683C13.1 13.14 27.956 1.93 27.956 1.93L30.8 1.53s.185 9.865.267 13.884h.004a98.31 98.31 0 0 0 .033 1.653H31.1c.073 4.02.273 13.884.273 13.884l-2.86-.313S13.227 19.745 2.635 19.533l-.014-.76-.064-3.286-.02-1.046-.015-.757zM2.62 18.774c.01.58 0 0 0 0zM2.536 14.44s-.012-.577 0 0z"/></g><path opacity=".1" fill="#010000" d="M29.646 29.325c2.063 1.44 1.46-12.404 1.46-12.404.068 4.143.254 14.308.254 14.308l-2.86-.32S13.23 19.71 2.636 19.506l-.014-.782c-.007-.403 17.24 3.776 27.024 10.602z"/><path fill="#FF6C45" d="M2.623 18.722c.01.595 0 0 0 0zM2.544 14.258s-.01-.597 0 0z"/><path opacity=".2" fill="#FFF" d="M31.648 4.917C30.736 5.035 7.395 17.243.635 14.42c1.104 5.074.95 1.97.95 1.97s22.575-.097 28.025-3.168c5.45-3.07 2.038-8.305 2.038-8.305z"/><path fill="#FFCE12" d="M4 19.12a.88.88 0 0 1-.88.88H.88a.88.88 0 0 1-.88-.88v-5.24A.88.88 0 0 1 .88 13h2.24a.88.88 0 0 1 .88.88v5.24z"/><path fill="#EA5B0C" d="M35 19.022c0 .54-.438.978-.977.978h-2.046a.978.978 0 0 1-.977-.978v-6.045c0-.54.438-.977.977-.977h2.046c.54 0 .977.438.977.978v6.044z"/><path fill="#FFCE12" d="M33 30.602c0 .772-.626 1.398-1.398 1.398H28.4c-.774 0-1.4-.626-1.4-1.398V1.398C27 .626 27.626 0 28.398 0H31.6c.774 0 1.4.626 1.4 1.398v29.204z"/></svg>