<svg xmlns="http://www.w3.org/2000/svg" width="45.568" height="45.03" viewBox="0 0 45.568 45.03"><path fill="#006F66" d="M12.82 10.127h29.517a3.23 3.23 0 0 1 3.23 3.23v22.84a3.23 3.23 0 0 1-3.23 3.23h-.827l1.904 5.603-15.46-5.603H12.818a3.23 3.23 0 0 1-3.232-3.23v-22.84a3.23 3.23 0 0 1 3.23-3.23z"/><path fill="#00DBDB" d="M32.75 0H3.23A3.23 3.23 0 0 0 0 3.23v22.84a3.23 3.23 0 0 0 3.23 3.23h.828l-1.904 5.603 15.46-5.602H32.75a3.232 3.232 0 0 0 3.232-3.23V3.23A3.232 3.232 0 0 0 32.75 0z"/><path fill="#00C6C6" d="M32.75 29.302a3.23 3.23 0 0 0 3.23-3.23v-11.4L25.403 5.98 16.76 16.58l-5.447-4.457-3.664 4.482L23.114 29.3h9.634z"/><path fill="#444846" d="M29.89 9.644l-4.487-3.66-8.642 10.595-5.447-4.457-3.665 4.482 9.773 7.993z"/></svg>