<svg xmlns="http://www.w3.org/2000/svg" width="68.488" height="58.062" viewBox="0 0 68.488 58.062"><path fill="#FFD53F" d="M68.487 52.46a5.555 5.555 0 0 1-5.553 5.555H5.554C2.487 58.015 2 55.528 2 52.46V5.555C2 2.487 2.487 0 5.554 0h57.38a5.554 5.554 0 0 1 5.553 5.555V52.46z"/><path opacity=".2" fill="#020000" d="M39.61 28.933l-1.994-.153c-.343-1.29-.887-2.512-1.543-3.644l1.236-1.456c.437-.44.51-1.068.175-1.402l-4.074-4.074c-.335-.333-.966-.25-1.403.188L30.54 19.64a15.056 15.056 0 0 0-3.64-1.504l-.15-2.12c0-.62-.386-1.32-.86-1.32h-5.758c-.474 0-.86.7-.86 1.32l-.154 2.023c-1.29.342-2.508.9-3.635 1.553l-1.465-1.226c-.437-.438-1.064-.508-1.4-.173l-4.072 4.08c-.334.332-.252.965.188 1.403l1.247 1.466a15.068 15.068 0 0 0-1.503 3.64l-2.447.15c-.62 0-1.647.383-1.647.857v5.758c0 .475 1.028.862 1.647.862l2.186.153c.346 1.29.983 2.508 1.635 3.636l-1.18 1.46c-.44.44-.49 1.066-.155 1.4l4.088 4.072c.335.337.97.254 1.406-.185l1.474-1.246a14.856 14.856 0 0 0 3.643 1.502l.144 2.39c0 .622.388 1.59.862 1.59h5.758c.474 0 .86-.968.86-1.59l.15-2.156c1.29-.345 2.512-.97 3.645-1.624l1.46 1.193c.436.438 1.064.49 1.4.156l4.07-4.086c.335-.334.253-.97-.186-1.41L36.04 40.2a14.874 14.874 0 0 0 1.504-3.646l2.065-.146c.617 0 1.26-.387 1.26-.862v-5.758c.002-.472-.64-.855-1.26-.855zm-16.6 9.687a5.947 5.947 0 0 1-5.947-5.946 5.947 5.947 0 0 1 5.948-5.95 5.948 5.948 0 0 1 0 11.896z"/><path fill="#4C4C4C" d="M22.627 55.073H5.554a2.615 2.615 0 0 1-2.612-2.612V5.556a2.615 2.615 0 0 1 2.612-2.612h17.073V0H5.554A5.555 5.555 0 0 0 0 5.555V52.46a5.57 5.57 0 0 0 5.546 5.566h12.832l4.25-2.953z"/><path fill="#F2D9AD" d="M37.338 58.015l-31.197.01 15.654-27.06z"/><path fill="#282828" d="M18.977 58.02l-13.1.006 6.64-11.164z"/><path fill="#2EBEE5" d="M66.447 5.275l2.04 3.55v31.258L37.283 58.015 21.74 30.965z"/><path opacity=".1" fill="#020000" d="M68.487 29.438v10.645L37.2 58.063l-4.497-8.016z"/><path opacity=".1" fill="#FFF" d="M66.447 5.275l2.04 3.553V14.7l-42.17 24.234-4.578-7.97z"/><path fill="#F2D9AD" d="M26.275 38.916c.61-1.254.43-3.182-.597-4.957-1.024-1.775-2.604-2.896-3.995-2.994l4.592 7.95zM37.25 58.026c.614-1.262.432-3.203-.602-4.99-1.032-1.787-2.62-2.915-4.02-3.013l4.62 8.003z"/><path fill="#F2D9AD" d="M32.667 50.163c1.032-1.883.884-4.7-.58-7.233-1.464-2.535-3.83-4.07-5.977-4.118l6.557 11.35z"/><path fill="#4C4C4C" d="M62.935 0H5.555A5.555 5.555 0 0 0 0 5.555v7.485h68.487V5.555A5.554 5.554 0 0 0 62.935 0z"/><path fill="#FF5955" d="M9.392 6.6c0 1.473-1.197 2.667-2.674 2.667S4.046 8.072 4.046 6.6a2.673 2.673 0 1 1 5.346 0z"/><path fill="#43CEFF" d="M17.143 6.6a2.67 2.67 0 0 1-2.673 2.667A2.672 2.672 0 1 1 17.143 6.6z"/><path fill="#FFF" d="M64.442 6.907c0 1.325-1.044 2.402-2.333 2.402H21.85c-1.29 0-2.334-1.078-2.334-2.403 0-1.327 1.044-2.403 2.333-2.403h40.26c1.287 0 2.332 1.076 2.332 2.403z"/><path opacity=".1" fill="#020000" d="M62.935 0H27.183l11.74 58.015h24.012a5.554 5.554 0 0 0 5.553-5.555V5.555A5.556 5.556 0 0 0 62.935 0zM36.648 53.037c-1.015-1.757-2.568-2.87-3.95-3.002L6.084 57.95l31.164.076c.614-1.26.432-3.203-.602-4.99z"/></svg>