<svg xmlns="http://www.w3.org/2000/svg" width="32.843" height="26.9" viewBox="0 0 32.843 26.9"><path fill="#6ABB3F" d="M0 0h32.843v19.882H0z"/><path fill="#549234" d="M24.335 26.9l8.508-7.018h-8.508z"/><path fill="#FFF" d="M17.012 12.685h-1.94c-.006-.278-.01-.45-.01-.51 0-.628.105-1.146.313-1.553.208-.405.625-.863 1.25-1.37.623-.507.996-.84 1.118-.998.188-.247.282-.52.282-.82 0-.417-.166-.772-.5-1.07-.33-.296-.78-.444-1.343-.444-.543 0-.997.154-1.362.464-.366.31-.617.78-.754 1.415l-1.964-.243c.056-.91.442-1.68 1.16-2.315.72-.634 1.662-.95 2.83-.95 1.228 0 2.204.32 2.93.963.726.642 1.088 1.39 1.088 2.24 0 .473-.132.92-.4 1.34-.266.423-.835.995-1.707 1.722-.452.375-.732.677-.84.904-.112.228-.162.637-.15 1.225zm-1.94 2.877v-2.14h2.138v2.14h-2.14z"/></svg>