<svg xmlns="http://www.w3.org/2000/svg" width="74.349" height="74.626" viewBox="0 0 74.349 74.626"><circle fill="#78F1FF" cx="37.174" cy="37.149" r="37.151"/><path fill="#0082B7" d="M37.175.28C16.645.28 0 16.925 0 37.456c0 20.528 16.644 37.172 37.175 37.172 20.53 0 37.173-16.644 37.173-37.172C74.348 16.925 57.705.28 37.175.28zm30.49 49.3c-2.436 1.142-5.182 2.437-8.19 3.687 1.3-4.582 2.188-9.465 2.197-14.542h8.27a32.732 32.732 0 0 1-2.277 10.854zM4.41 38.724h8.268c.01 5.472 1.043 10.723 2.51 15.608-2.846-1.09-5.5-2.26-7.913-3.375A32.605 32.605 0 0 1 4.41 38.725zm31.493-34.04v8.27c-5.076.014-9.96.898-14.54 2.197 1.25-3.005 2.544-5.756 3.688-8.19a32.664 32.664 0 0 1 10.853-2.277zm11.963 13.077c2.4.58 4.71 1.292 6.923 2.077a69.606 69.606 0 0 1 2.075 6.92 22.527 22.527 0 0 0-9-8.998zm-9.422-4.743V4.684c3.823.146 7.476.93 10.854 2.276 1.212 2.583 2.592 5.52 3.91 8.74-4.616-1.408-9.577-2.43-14.764-2.68zM28.2 16.933a22.485 22.485 0 0 0-10.715 9.826 71.277 71.277 0 0 1 2.393-7.82 61.206 61.206 0 0 1 8.322-2.006zm-15.462 19.25h-8.33a32.617 32.617 0 0 1 2.865-12.23c2.574-1.19 5.417-2.448 8.48-3.594-1.58 4.91-2.746 10.237-3.015 15.824zm3.916 10.246A22.462 22.462 0 0 0 28.2 57.974c-3.22-.53-6.313-1.342-9.243-2.302-.96-2.93-1.77-6.025-2.303-9.242zm19.25 15.524v8.27a32.68 32.68 0 0 1-12.23-2.866c-1.114-2.414-2.287-5.067-3.375-7.914 4.883 1.467 10.13 2.497 15.603 2.51zm2.54-.062c5.587-.268 10.914-1.436 15.826-3.015-1.147 3.062-2.406 5.908-3.594 8.48a32.695 32.695 0 0 1-12.232 2.865v-8.33zm9.42-4.746a22.465 22.465 0 0 0 9.83-10.718 61.586 61.586 0 0 1-2.006 8.325 72.008 72.008 0 0 1-7.824 2.393zm13.748-20.962c-.25-5.188-1.275-10.15-2.683-14.762 3.218 1.318 6.155 2.697 8.735 3.91a32.706 32.706 0 0 1 2.277 10.853h-8.33zm3.55-15.83a100.664 100.664 0 0 0-7.673-3.214 99.29 99.29 0 0 0-3.218-7.674 32.92 32.92 0 0 1 10.89 10.888zM20.077 9.464c-1.025 2.2-2.04 4.554-2.976 7.037-2.554.886-4.99 1.854-7.288 2.83 2.652-4 6.168-7.357 10.264-9.865zM9.814 55.583c2.1.89 4.316 1.778 6.633 2.6a118.44 118.44 0 0 0 2.6 6.635 32.97 32.97 0 0 1-9.233-9.235zM55.3 64.82c.972-2.3 1.944-4.735 2.828-7.292a100.46 100.46 0 0 0 7.034-2.974c-2.508 4.095-5.865 7.612-9.863 10.265z"/><circle fill="#0082B7" cx="37.174" cy="37.453" r="19.614"/><path fill="#0082B7" d="M24.984 46.327H50.24V70.65H24.984z"/><path fill="#FFF" d="M30.385 70.424c2.202.406 4.468.63 6.788.63 2.63 0 5.193-.278 7.667-.797V43.08H30.385v27.344z"/><circle fill="#FFF" cx="37.174" cy="37.453" r="16.913"/><path fill="#0082B7" d="M28.692 20.246h16.964V40.51H28.692z"/><path opacity=".1" fill="#060000" d="M37.613.01v74.28c20.313-.237 36.712-16.77 36.712-37.14S57.925.248 37.613.01z"/></svg>