<svg xmlns="http://www.w3.org/2000/svg" width="69.113" height="71.393" viewBox="0 0 69.113 71.393"><path fill="#3EA2CE" d="M37.92 1.393a4.757 4.757 0 0 0-6.727 0L.016 27.818c.087 3.002 2.536 5.415 5.557 5.415H63.54c3.023 0 5.47-2.413 5.557-5.415L37.92 1.393z"/><path fill="#3EA2CE" d="M5.42 27.764h61v36h-61z"/><path fill="#004A54" d="M61.76 32.995l-3.052-.248c-.56-2.105-1.348-4.1-2.417-5.947l2.067-2.38c.714-.716.86-1.74.313-2.285l-6.64-6.647c-.548-.545-1.57-.412-2.284.305l-2.387 2.04a24.397 24.397 0 0 0-5.942-2.458l-.244-2.957c0-1.01-.627-1.652-1.402-1.652h-9.398c-.774 0-1.404.642-1.404 1.652l-.252 3.048c-2.103.563-4.093 1.345-5.935 2.412l-2.387-2.063c-.713-.716-1.738-.86-2.285-.314l-6.645 6.642c-.55.546-.412 1.567.304 2.285l2.035 2.39a24.39 24.39 0 0 0-2.453 5.937l-3.62.244c-1.01 0-2.312.627-2.312 1.4v9.398c0 .775 1.302 1.404 2.312 1.404l3.38.25c.564 2.104 1.51 4.096 2.577 5.938l-1.98 2.385c-.716.715-.822 1.738-.273 2.286l6.66 6.645c.547.546 1.58.413 2.292-.304l2.4-2.036a24.366 24.366 0 0 0 5.942 2.455l.238 3.125c0 1.01.63 1.82 1.406 1.82h9.398c.774 0 1.402-.81 1.402-1.82l.246-3.133a24.347 24.347 0 0 0 5.948-2.458l2.38 2.046c.715.716 1.74.85 2.286.304l6.647-6.645c.546-.55.41-1.573-.304-2.29l-2.04-2.386a24.47 24.47 0 0 0 2.457-5.948l2.965-.236c1.012 0 1.66-.63 1.66-1.404V34.4c-.002-.778-.65-1.405-1.662-1.405zM35.072 48.243c-5.36 0-9.71-4.346-9.71-9.707 0-5.365 4.35-9.71 9.71-9.71a9.71 9.71 0 0 1 0 19.417z"/><path fill="#3BA1F4" d="M69.023 27.884L37.92 54.25a4.757 4.757 0 0 1-6.727 0L.088 27.883a5.66 5.66 0 0 0-.088.888V65.82a5.573 5.573 0 0 0 5.573 5.573H63.54a5.574 5.574 0 0 0 5.574-5.573V28.772c0-.304-.043-.596-.09-.888z"/><path fill="#76CEFF" d="M37.92 39.553a4.758 4.758 0 0 0-6.727 0L.016 65.978c.087 3.002 2.536 5.415 5.557 5.415H63.54c3.023 0 5.47-2.413 5.557-5.415L37.92 39.553z"/><path opacity=".1" fill="#060000" d="M37.794 1.393C36.874.475 35.42.023 34.42.013v70.75h29.12c.38 0 .75.276 1.11.203.175-.035.336.054.504.003.176-.055.358-.016.527-.085a5.33 5.33 0 0 0 .695-.332c.076-.046.16-.06.234-.107.282-.188.543-.393.786-.627.007-.01-.332-.007-.325-.015 1.043-1.012 1.348-2.42 1.348-3.985V28.772c0-.22.32-.434.29-.646.01-.104.176-.203.18-.308L37.794 1.393z"/></svg>