<svg xmlns="http://www.w3.org/2000/svg" width="107.619" height="101" viewBox="0 0 107.619 101"><path fill="#575756" d="M107.14 95.373s-6.38-18.284-7.938-21.54c-1.555-3.257-3.353-4.613-5.665-5.666-2.306-1.05-26.1-11.505-26.1-11.505L53.81 57.71 40.18 56.66s-23.792 10.454-26.1 11.505c-2.31 1.053-4.11 2.41-5.667 5.666C6.855 77.09.48 95.373.48 95.373s-1.984 5.24 2.124 5.24h102.41c4.11 0 2.127-5.24 2.127-5.24"/><path fill="#DADADA" d="M66.92 100.613l8.01-40.772L53.105 70.25 31.378 59.84l8.78 40.773z"/><path fill="#E9B990" d="M65.52 57.325c0 6.305-5.484 11.41-12.25 11.41-6.77 0-12.255-5.105-12.255-11.41V44.34c0-6.31 5.486-11.42 12.254-11.42 6.766 0 12.25 5.11 12.25 11.42v12.985z"/><path fill="#FFC58F" d="M65.52 55.264c0 6.304-5.484 11.413-12.25 11.413-6.77 0-12.255-5.11-12.255-11.413V42.28c0-6.308 5.486-11.417 12.254-11.417 6.766 0 12.25 5.11 12.25 11.416v12.984z"/><path fill="#FFD196" d="M73.132 26.78c-.277-.025-.54.035-.795.1C70.697 14.573 63.03 5.26 53.81 5.26c-16.01 0-16.886 9.312-18.53 21.617-.256-.064-.516-.125-.792-.1a2.584 2.584 0 0 0-2.387 2.77l.53 7.22a2.592 2.592 0 0 0 2.772 2.39c.102-.005.18-.06.277-.077C37.927 50.2 45.185 58.36 53.81 58.36c8.625 0 15.876-8.16 18.133-19.277.097.018.174.072.276.077a2.583 2.583 0 0 0 2.764-2.39l.537-7.22a2.588 2.588 0 0 0-2.388-2.77"/><g fill="#7C5947"><path d="M35.644 28.376c0 .55-.458.987-1.022.987-.564 0-1.02-.438-1.02-.987 0-.542.455-.98 1.02-.98.564 0 1.022.438 1.022.98M74.02 28.376c0 .55-.46.987-1.023.987s-1.02-.438-1.02-.987c0-.542.457-.98 1.02-.98.564 0 1.022.438 1.022.98"/><path d="M53.81 0C42.644 0 33.6 7.848 33.6 17.525v10.85h2.043v-3.97c0-3.34 1.595-4.054 2.858-3.187 0 0 6.457 3.86 16.163 0 15.354-6.116 17.31 1.425 17.31 3.186v3.972h2.045v-10.85C74.018 7.847 64.968 0 53.81 0"/></g><path fill="#FC762B" d="M61.034 68.156h-14.12l5.93 12.013-3.74 20.443h10.14L55.392 80.17z"/><path fill="#F6F6F6" d="M67.352 54.658l7.597 4.966-9.97 19.682-11.827-11.15z"/><path fill="#F6F6F6" d="M39.777 54.658l-7.6 4.966 9.97 19.682 11.828-11.15z"/><path opacity=".5" fill="#1D1D1B" d="M72.217 100.613c2.122-5.823 4.606-13.03 4.606-13.03l-1.258-6.854L79.2 78.91l2.797-15.667-6.154-2.932-9.958 40.3h6.332z"/><path fill="#5E5E5E" d="M71.33 100.613c2.143-5.87 4.708-13.313 4.708-13.313l-1.258-6.852 3.636-1.82 2.796-15.667-6.154-2.928-10.028 40.58h6.3z"/><path opacity=".5" fill="#1D1D1B" d="M34.888 100.613c-2.122-5.823-4.606-13.03-4.606-13.03l1.257-6.854L27.9 78.91l-2.795-15.667 6.154-2.932 9.96 40.3h-6.332z"/><path fill="#5E5E5E" d="M35.776 100.613c-2.143-5.87-4.708-13.313-4.708-13.313l1.258-6.852-3.637-1.82-2.797-15.667 6.155-2.928 10.027 40.58h-6.3z"/><path opacity=".1" fill="#010000" d="M107.14 95.568s-6.38-18.385-7.938-21.64c-1.555-3.258-3.353-4.66-5.665-5.714-1.31-.598-9.546-4.248-16.423-7.273l-1.27-.615-.01.034c-.313-.138-.623-.278-.925-.41l.02-.108-.117.056.137-.27-7.24-4.97-1.474 1.742V52.59c3-3.407 4.968-8.102 6.064-13.508.097.018-.004.072.098.077 1.423.105 2.573-.97 2.674-2.39l.1-7.22c.085-1.11.064-2.097-1.936-2.535v-9.49c0-9.68-8-17.526-19-17.526v101H105.014c4.11 0 2.127-5.432 2.127-5.432zM71.237 24.404v.297c0-.835-.36-1.652-.58-2.453.448.88.58 1.708.58 2.157z"/></svg>