<svg xmlns="http://www.w3.org/2000/svg" width="14.948" height="12.835" viewBox="0 0 14.948 12.835"><path fill="#098CFA" d="M0 2.958v8.65a1.22 1.22 0 0 0 1.212 1.228h12.523c.67 0 1.213-.55 1.213-1.228v-8.65H0z"/><path opacity=".1" fill="#010000" d="M10.032 4.492L8.336 8.734l-3.72 2.255 1.796 1.846h7.323c.67 0 1.213-.55 1.213-1.228V9.585l-4.916-5.093z"/><g fill="#FFF"><path d="M5.712 11.438c.99.038 2.32-1.185 2.32-1.185S8.543 9.83 9.1 9.1c.53-.697.5-.697.87-1.324 0 0 .86-1.594.6-2.564-.473-1.104-1.222-1.027-1.222-1.027l-.513 2.023c.377.32.15.806.035.983-.1.148-.606.826-.77 1.046-.003 0-.74.91-.883 1.07-.144.152-.558.49-.95.192l-1.824.977s.1.755 1.27.963"/><path d="M5.555 9.02l-1.14.612c-.086.207-.11.436-.057.657l1.77-.953a1.05 1.05 0 0 0-.573-.318M9.15 4.145c-.223 0-.44.074-.616.206L8.21 5.62c.088.2.236.372.436.488l.505-1.963z"/></g><path fill="#FF5046" d="M13.735 0H1.212C.542 0 0 .55 0 1.228v1.657h14.948V1.228A1.22 1.22 0 0 0 13.735 0z"/><path fill="#FFF" d="M2.01 1.502a.48.48 0 0 1-.49.466.477.477 0 0 1-.49-.466c0-.26.22-.47.49-.47s.49.21.49.47zM13.874 1.475c0 .26-.247.475-.558.475H3.682c-.308 0-.558-.213-.558-.475 0-.265.25-.48.558-.48h9.635c.31 0 .557.214.557.48z"/></svg>