<svg xmlns="http://www.w3.org/2000/svg" width="66.182" height="62.578" viewBox="0 0 66.182 62.578"><path fill="#E8CFAC" d="M43.906 2.182a4.29 4.29 0 0 1 4.29 4.29v51.735a4.29 4.29 0 0 1-4.29 4.292H4.29A4.29 4.29 0 0 1 0 58.206V15.614L13.433 2.182h30.473z"/><path opacity=".1" fill="#3C3C3B" d="M0 15.614l11.94-1.042L0 26.282z"/><path fill="#BCA180" d="M9.14 15.614H0L13.433 2.182v9.14a4.29 4.29 0 0 1-4.292 4.292z"/><g fill="#FFF"><path d="M18.92 16.562h24.662v3.005h-24.66zM18.92 8.897h24.662v3.005h-24.66zM5.727 23.9h37.855v3.004H5.727zM5.727 31.18h37.855v3.005H5.727zM5.727 38.903h37.855v3.004H5.727zM5.727 46.184h37.855v3.004H5.727zM5.727 53.192h37.855v3.004H5.727z"/></g><path opacity=".1" fill="#010000" d="M4.29 62.34h39.616c2.37 0 4.584-1.762 4.584-4.133V6.473c0-2.37-2.214-4.133-4.584-4.133H25.94L.49 30.088v28.12c0 2.37 1.43 4.132 3.8 4.132z"/><path fill="#562908" d="M52.49 9.34h-2.185s.43-2.535 3.207-7.232c1.588 2.713 3.21-.45 3.21-.45l1.388 1.245.926 6.438h-.546v1h.546l-.926 6.26-1.39 1.076s-1.62-3.04-3.208-.327c-2.778-4.698-3.207-7.01-3.207-7.01h2.185v-1z"/><path fill="#875431" d="M56.656 18.258c0 .877.71 1.588 1.587 1.588h6.35a1.59 1.59 0 0 0 1.59-1.588V1.588A1.59 1.59 0 0 0 64.592 0h-6.35c-.877 0-1.587.71-1.587 1.588v16.67z"/><path fill="#562908" d="M39.49 9.34h2.876s-.43-2.535-3.208-7.232c-1.588 2.712-3.208-.45-3.208-.45l-1.39 1.244-.925 6.438h.855v1h-.855l.926 6.26 1.39 1.076s1.62-3.04 3.21-.327c2.777-4.698 3.207-7.01 3.207-7.01H39.49v-1z"/><path fill-rule="evenodd" clip-rule="evenodd" fill="#562908" d="M51.81 58.078c0 2.484-2.016 4.5-4.504 4.5h-1.942a4.5 4.5 0 0 1-4.5-4.5V28.834c0-2.488 2.012-3.502 4.5-3.502h1.942c2.488 0 4.503 1.014 4.503 3.502v29.244z"/><path fill-rule="evenodd" clip-rule="evenodd" fill="#D3A30B" d="M43.71 17.86v8.667c0 1.185 1.175 1.143 2.626 1.143 1.448 0 2.623.042 2.623-1.143V17.86h-5.25z"/><path opacity=".2" fill="#FFF" d="M50.015 57.395c0 .617-.473 1.115-1.056 1.115-.583 0-1.057-.498-1.057-1.115V31.203c0-.616.474-1.115 1.056-1.115.582 0 1.055.5 1.055 1.115v26.192z"/><path fill="#FFCE12" d="M39.19 1.984h14.29V17.86H39.19z"/><path opacity=".1" fill="#010000" d="M39.19 14.977h14.29v2.885H39.19z"/><path opacity=".3" fill="#FFF" d="M39.19 4.336h14.29V7.22H39.19z"/><path fill="#875431" d="M36.016 18.258c0 .877-.71 1.588-1.587 1.588h-6.352c-.877 0-1.588-.71-1.588-1.588V1.588C26.49.71 27.2 0 28.078 0h6.35c.878 0 1.588.71 1.588 1.588v16.67z"/></svg>