<svg xmlns="http://www.w3.org/2000/svg" width="103.794" height="107.217" viewBox="0 0 103.794 107.217"><path fill="#3EA2CE" d="M56.947 2.092a7.143 7.143 0 0 0-10.1 0L.022 41.775c.13 4.51 3.808 8.133 8.346 8.133h87.053c4.54 0 8.214-3.624 8.346-8.133L56.946 2.092z"/><path fill="#3EA2CE" d="M8.76 40.71h91v55h-91z"/><path fill="#004A54" d="M92.51 49.55l-4.464-.372c-.843-3.162-1.964-6.157-3.57-8.932l3.133-3.57c1.072-1.078 1.305-2.615.484-3.436l-9.965-9.982c-.823-.82-2.353-.62-3.426.457l-3.583 3.062a36.648 36.648 0 0 0-8.92-3.688l-.366-4.17c0-1.518-.942-2.21-2.105-2.21H45.615c-1.163 0-2.11.692-2.11 2.21l-.377 4.44c-3.16.846-6.148 1.95-8.914 3.556l-3.585-3.134c-1.07-1.074-2.61-1.307-3.43-.488l-9.98 9.963c-.825.82-.62 2.35.455 3.43l3.058 3.587a36.607 36.607 0 0 0-3.684 8.913l-5.127.365c-1.517 0-3.16.94-3.16 2.104v14.112c0 1.165 1.644 2.11 3.16 2.11l4.92.376c.848 3.158 2.19 6.15 3.792 8.916l-3.01 3.58c-1.076 1.074-1.254 2.61-.43 3.435l9.993 9.98c.82.82 2.365.62 3.436-.455l3.603-3.06a36.683 36.683 0 0 0 8.923 3.688l.356 4.666c0 1.518.948 2.705 2.11 2.705h14.115c1.164 0 2.106-1.19 2.106-2.706l.37-4.69a36.552 36.552 0 0 0 8.933-3.685l3.575 3.074c1.072 1.075 2.61 1.28 3.432.458l9.982-9.977c.82-.826.616-2.36-.458-3.437l-3.062-3.584a36.648 36.648 0 0 0 3.69-8.934l4.21-.354c1.52 0 2.252-.945 2.252-2.11v-14.11c-.002-1.165-.733-2.106-2.253-2.106zm-39.84 22.9c-8.05 0-14.582-6.526-14.582-14.578 0-8.058 6.53-14.583 14.582-14.583 8.055 0 14.585 6.524 14.585 14.582 0 8.052-6.53 14.578-14.585 14.578z"/><path fill="#3BA1F4" d="M103.658 41.876L56.948 81.47a7.143 7.143 0 0 1-10.102 0L.133 41.876A8.26 8.26 0 0 0 0 43.21v55.637a8.37 8.37 0 0 0 8.37 8.37h87.053a8.372 8.372 0 0 0 8.37-8.37V43.21c0-.458-.063-.896-.135-1.334z"/><path fill="#76CEFF" d="M56.947 59.4a7.145 7.145 0 0 0-10.1 0L.022 99.085c.13 4.508 3.808 8.132 8.346 8.132h87.053c4.54 0 8.214-3.624 8.346-8.132L56.946 59.4z"/><path opacity=".1" fill="#060000" d="M56.793 2.092C55.413.712 53.76.032 51.76.022V106.71h43.663c.572 0 1.13.195 1.67.086.26-.053.503-.028.756-.104.263-.082.538-.078.79-.182a8.272 8.272 0 0 0 1.044-.525c.114-.07.24-.103.352-.177.425-.28.817-.596 1.182-.947.01-.012-.494-.012-.483-.022 1.564-1.52 2.026-3.637 2.026-5.99v-55.64c0-.33.48-.65.434-.97.013-.155.28-.305.284-.463L56.793 2.092z"/></svg>