<svg xmlns="http://www.w3.org/2000/svg" width="36.55" height="37.664" viewBox="0 0 36.55 37.664"><path fill="#08C153" d="M27.41 0c1.48 0 2.68 1.2 2.68 2.68v32.295c0 1.48-1.378.396-1.378 2.682H2.68A2.68 2.68 0 0 1 0 34.975V8.385L8.386 0H27.41z"/><path opacity=".1" fill="#3C3C3B" d="M0 8.386l7.455-.65L0 15.045z"/><path fill="#009664" d="M5.706 8.386H0L8.386 0v5.707c0 1.48-1.2 2.68-2.68 2.68z"/><g fill="#FFF"><path d="M11.812 8.978h15.396v1.876H11.812zM11.812 4.193h15.396V6.07H11.812zM3.575 13.56h23.633v1.874H3.575zM3.575 18.104h23.633v1.875H3.575zM3.575 22.924h23.633V24.8H3.575zM3.575 27.47h23.633v1.876H3.575zM3.575 31.846h23.633v1.874H3.575z"/></g><path opacity=".1" fill="#3C3C3B" d="M28.125 0c1.48 0 1.964 1.2 1.964 2.68v32.295a2.68 2.68 0 0 1-2.68 2.682H2.68A2.68 2.68 0 0 1 0 34.975V27.47L26.417.976 28.125 0z"/><path fill="#FF5955" d="M35.092 24.8c1.374 0 1.865 1.026 1.09 2.28l-5.947 9.643c-.773 1.254-2.04 1.254-2.812 0l-5.948-9.643c-.773-1.254-.282-2.28 1.09-2.28h12.527z"/><path fill="#FF5955" d="M32.146 24.77a3.42 3.42 0 0 1-3.42 3.42h-.027a3.42 3.42 0 0 1-3.422-3.42V3.52A3.42 3.42 0 0 1 28.698.1h.027a3.42 3.42 0 0 1 3.42 3.42v21.25z"/></svg>