<svg xmlns="http://www.w3.org/2000/svg" width="68.609" height="69.764" viewBox="0 0 68.609 69.764"><path fill="#00AB75" d="M68.305 66.422s-4.07-11.657-5.063-13.734c-.99-2.076-2.137-2.94-3.61-3.61-1.47-.67-16.642-7.337-16.642-7.337l-8.685.67-8.69-.67s-15.167 6.667-16.637 7.337c-1.474.67-2.62 1.535-3.614 3.61C4.37 54.766.304 66.423.304 66.423s-1.263 3.342 1.355 3.342h65.288c2.62 0 1.357-3.342 1.357-3.342"/><path fill="#E9B990" d="M43.215 41.692c0 4.585-3.99 8.3-8.91 8.3-4.924 0-8.913-3.715-8.913-8.3v-9.44c0-4.592 3.99-8.307 8.913-8.307 4.92 0 8.91 3.715 8.91 8.306v9.442z"/><path fill="#FFC58F" d="M43.215 40.194c0 4.583-3.99 8.302-8.91 8.302-4.924 0-8.913-3.72-8.913-8.302v-9.446c0-4.584 3.99-8.3 8.913-8.3 4.92 0 8.91 3.716 8.91 8.3v9.446z"/><path fill="#00D094" d="M61.09 49.948a7.767 7.767 0 0 0-1.46-.872c-1.186-.54-11.314-4.997-15.16-6.687-.55 5.434-4.864 9.686-10.166 9.686-5.304 0-9.618-4.252-10.165-9.687-3.85 1.688-13.976 6.145-15.164 6.686a7.8 7.8 0 0 0-1.46.872c3.85 3.058 6.657 10.685 6.987 19.815h39.601c.33-9.13 3.136-16.757 6.987-19.815"/><path fill="#FFD196" d="M48.75 19.477c-.2-.016-.39.027-.578.073-1.193-8.95-6.77-15.724-13.475-15.724-11.646 0-12.28 6.772-13.476 15.724-.186-.046-.375-.09-.576-.073a1.88 1.88 0 0 0-1.736 2.017l.385 5.25a1.887 1.887 0 0 0 2.017 1.74c.073-.005.13-.046.2-.06 1.635 8.09 6.915 14.023 13.188 14.023 6.273 0 11.55-5.933 13.188-14.023.07.014.128.055.2.06a1.88 1.88 0 0 0 2.013-1.74l.387-5.25a1.88 1.88 0 0 0-1.736-2.017"/><path fill="#724430" d="M21.484 20.64a.728.728 0 0 1-.742.717.727.727 0 0 1-.743-.716.73.73 0 0 1 .742-.716c.41 0 .742.32.742.717M49.396 20.64a.728.728 0 0 1-.742.717.727.727 0 0 1-.744-.716.73.73 0 0 1 .744-.716.73.73 0 0 1 .742.717"/><path fill="#724430" d="M34.697 0C26.577 0 20 5.706 20 12.746v7.895h1.484V17.75c0-2.427 1.162-2.947 2.08-2.314 0 0 4.696 2.81 11.756 0 11.167-4.447 12.59 1.037 12.59 2.314v2.893h1.485v-7.894C49.395 5.706 42.815 0 34.697 0"/><path opacity=".1" fill="#010000" d="M68.305 65.734s-4.07-11.313-5.063-13.39c-.99-2.075-2.137-2.768-3.61-3.438-.286-.13-.778-.406-1.894-.9-3.502-1.548-9.625-4.333-12.625-5.615v.003c-1-.257-.894-.448-1.136-.556 0-.048.136-.095.136-.144v-3.44c2-2.48 3.425-5.895 4.222-9.828.07.014-.096.055-.023.06 1.035.075 1.825-.703 1.9-1.74l.69-5.25c.062-.807.21-1.525-.79-1.845v-6.902c0-7.04-7-12.746-15-12.746v68.39h-.347H66.95c2.618-.002 1.355-2.658 1.355-2.658zM47.91 17.748v.22a25.372 25.372 0 0 0-.425-1.8c.33.644.425 1.252.425 1.58z"/></svg>