<svg xmlns="http://www.w3.org/2000/svg" width="13.876" height="13.321" viewBox="0 0 13.876 13.321"><path fill="#CCC" d="M3.608 6.105v5.55c0 .15-.055.28-.165.39a.533.533 0 0 1-.39.166H.555a.535.535 0 0 1-.39-.164.533.533 0 0 1-.165-.39v-5.55c0-.15.055-.28.165-.392.11-.11.24-.164.39-.164h2.5c.15 0 .28.055.39.164.108.11.163.24.163.39zm-1.388 4.44c0-.15-.055-.28-.165-.39a.536.536 0 0 0-.39-.164.533.533 0 0 0-.395.165.542.542 0 0 0-.16.39c0 .157.053.29.16.396.107.108.238.16.395.16a.54.54 0 0 0 .39-.16.53.53 0 0 0 .165-.394zm11.656-4.44a1.9 1.9 0 0 1-.477 1.292c.085.255.13.475.13.66.017.438-.108.835-.374 1.187.1.323.1.662 0 1.015-.086.328-.243.6-.468.814.052.647-.09 1.17-.425 1.57-.37.438-.94.664-1.708.676H9.436a6.42 6.42 0 0 1-1.25-.135c-.45-.09-.8-.174-1.053-.25-.25-.08-.6-.193-1.045-.344-.71-.248-1.168-.375-1.37-.38a.575.575 0 0 1-.39-.17.518.518 0 0 1-.165-.386v-5.56c0-.145.052-.27.156-.377s.228-.166.372-.178c.14-.01.358-.18.66-.51.3-.33.59-.68.874-1.05.393-.503.686-.85.876-1.04.104-.104.194-.243.27-.417.074-.173.124-.313.15-.42.027-.107.066-.282.118-.525.04-.224.077-.4.11-.528s.087-.277.168-.45c.08-.175.18-.32.295-.435.11-.11.24-.165.39-.165.266 0 .504.03.715.09.21.063.385.138.52.227.137.09.252.207.348.352.096.144.165.273.208.39.043.115.078.26.104.434.026.173.04.304.043.39.003.087.005.2.005.34 0 .22-.027.438-.082.658a3.48 3.48 0 0 1-.165.52c-.055.128-.134.29-.238.486-.018.034-.046.087-.087.156s-.072.133-.095.19a1.76 1.76 0 0 0-.07.206h2.403c.452 0 .842.165 1.17.494.33.33.496.72.496 1.17z"/></svg>