<svg xmlns="http://www.w3.org/2000/svg" width="39" height="45" viewBox="0 0 39 45"><g fill="#FFF"><path d="M36.333 44.966l-15.42-15.418c-.377-.378-.88-.586-1.413-.586s-1.036.208-1.414.586L2.666 44.966c.112.013.22.034.334.034h33c.114 0 .222-.02.333-.034zM.266 21.777A2.974 2.974 0 0 0 0 23v19c0 .78.305 1.48.79 2.015L11.647 33.16.266 21.776zM27.353 33.158L38.21 44.014A2.98 2.98 0 0 0 39 42V23c0-.437-.098-.85-.266-1.223l-11.38 11.38zM11 0L2 9h9z"/><path d="M37 0H12v10H2v10s.35-.147 0 0v1l11.062 10.744 3.61-3.61c1.51-1.51 4.144-1.513 5.656 0l3.61 3.876L37 20.95v-.742V0z"/></g></svg>