<?xml version="1.0" encoding="utf-8"?>
<!-- Generator: Adobe Illustrator 21.0.2, SVG Export Plug-In . SVG Version: 6.00 Build 0)  -->
<svg version="1.1" baseProfile="basic" id="Слой_1"
	 xmlns="http://www.w3.org/2000/svg" xmlns:xlink="http://www.w3.org/1999/xlink" x="0px" y="0px" width="154px" height="31px"
	 viewBox="0 0 154 31" xml:space="preserve">
<g>
	<path d="M29,30.7h-7.6V12l-5.5,10.7h-3.2L7.2,12v18.7H0V0.2h7.8l6.7,12.7l6.6-12.7H29V30.7z"/>
	<path d="M60.3,30.7H54L42.5,11.5v19.2h-7V0.2h8.1l9.7,16.9V0.2h7V30.7z"/>
	<path d="M92.5,30.7H66.8V0.2h23.6v5.7h-16V12h15v5.7h-15V25h18.1V30.7z"/>
	<path fill="#727272" d="M141.3,31c-1.6,0-4.2-0.2-5.6-0.7c-1.4-0.5-2.6-1.1-3.7-2c-1-0.9-1.9-2-2.4-3.4c-0.6-1.3-0.9-2.8-0.9-4.5
		V0.5h7.6v18.9c0,1.5,0.6,5.2,4.9,5.2c4.2,0,4.9-3.7,4.9-5.2V0.5h7.6v19.9c0,1.7-0.3,3.2-0.9,4.5c-0.6,1.3-1.4,2.5-2.4,3.4
		c-1,0.9-2.3,1.6-3.7,2C145.5,30.8,142.9,31,141.3,31z"/>
	<path fill="#727272" d="M118.4,18.8c0.9-0.4,1.7-0.8,2.4-1.3c0.7-0.5,1.3-1.1,1.8-1.7c0.5-0.7,0.9-1.4,1.2-2.2
		c0.3-0.8,0.3-1.9,0.4-3.9c0.1-2-0.3-3.7-0.8-4.8c-0.5-1.1-1.3-2-2.4-2.7c-1-0.7-2.3-1.3-3.8-1.7c-1.5-0.4-3.2-0.6-5-0.6h-0.9H99.1
		h-0.9v30.8h0.9h5.8h0.9V20.3h5.5l6.1,10.5h0.9h6.3h0.9v-0.3L118.4,18.8z M105.8,14.8V5.5h6.8c5.9,0.1,5.9,9.3,0,9.3H105.8z"/>
</g>
<g>
</g>
<g>
</g>
<g>
</g>
<g>
</g>
<g>
</g>
<g>
</g>
<g>
</g>
<g>
</g>
<g>
</g>
<g>
</g>
<g>
</g>
<g>
</g>
<g>
</g>
<g>
</g>
<g>
</g>
</svg>
