<?xml version="1.0" encoding="utf-8"?>
<!-- Generator: Adobe Illustrator 16.0.0, SVG Export Plug-In . SVG Version: 6.00 Build 0)  -->
<!DOCTYPE svg PUBLIC "-//W3C//DTD SVG 1.1//EN" "http://www.w3.org/Graphics/SVG/1.1/DTD/svg11.dtd">
<svg version="1.1" id="Layer_1" xmlns="http://www.w3.org/2000/svg" xmlns:xlink="http://www.w3.org/1999/xlink" x="0px" y="0px"
	 width="14.948px" height="12.835px" viewBox="0 0 14.948 12.835" enable-background="new 0 0 14.948 12.835" xml:space="preserve">
<g>
	<path fill="#098CFA" d="M0,2.958v8.65c0,0.677,0.543,1.228,1.212,1.228h12.523c0.67,0,1.213-0.551,1.213-1.228v-8.65H0z"/>
	<path opacity="0.1" fill="#010000" d="M10.032,4.492L8.336,8.734l-3.719,2.255l1.795,1.847h7.323c0.67,0,1.213-0.551,1.213-1.228
		V9.585L10.032,4.492z"/>
	<g>
		<path fill="#FFFFFF" d="M5.712,11.438c0.991,0.038,2.321-1.185,2.321-1.185S8.542,9.83,9.099,9.099
			c0.53-0.696,0.502-0.696,0.871-1.323c0,0,0.861-1.594,0.6-2.564c-0.473-1.104-1.222-1.027-1.222-1.027L8.835,6.208
			C9.212,6.527,8.984,7.014,8.87,7.191C8.771,7.338,8.264,8.016,8.1,8.236c-0.003,0-0.739,0.91-0.883,1.069
			c-0.144,0.153-0.558,0.492-0.95,0.193l-1.824,0.977C4.442,10.475,4.543,11.23,5.712,11.438"/>
		<path fill="#FFFFFF" d="M5.555,9.019L4.416,9.632c-0.087,0.207-0.11,0.436-0.058,0.657l1.769-0.952
			C5.969,9.168,5.768,9.059,5.555,9.019"/>
		<path fill="#FFFFFF" d="M9.151,4.145c-0.224,0-0.44,0.074-0.617,0.206L8.209,5.619C8.298,5.82,8.446,5.992,8.646,6.108
			L9.151,4.145z"/>
	</g>
	<path fill="#FF5046" d="M13.735,0H1.212C0.543,0,0,0.55,0,1.228v1.657h14.948V1.228C14.948,0.55,14.405,0,13.735,0z"/>
	<path fill="#FFFFFF" d="M2.01,1.502c0,0.258-0.221,0.466-0.491,0.466c-0.269,0-0.488-0.208-0.488-0.466
		c0-0.261,0.22-0.471,0.488-0.471C1.789,1.031,2.01,1.242,2.01,1.502z"/>
	<path fill="#FFFFFF" d="M13.874,1.475c0,0.261-0.247,0.475-0.558,0.475H3.682c-0.308,0-0.558-0.213-0.558-0.475l0,0
		c0-0.265,0.25-0.479,0.558-0.479h9.635C13.627,0.996,13.874,1.209,13.874,1.475L13.874,1.475z"/>
</g>
</svg>
