<svg xmlns="http://www.w3.org/2000/svg" width="71.526" height="66.87" viewBox="0 0 71.526 66.87"><path fill="#575756" d="M71.208 63.388s-4.24-12.152-5.277-14.316c-1.032-2.164-2.228-3.065-3.764-3.766-1.533-.698-17.347-7.646-17.347-7.646l-9.058.696-9.057-.696S10.892 44.608 9.36 45.306c-1.537.7-2.732 1.602-3.768 3.766C4.556 51.236.318 63.388.318 63.388S-1 66.87 1.73 66.87h68.064c2.733 0 1.414-3.482 1.414-3.482"/><path fill="#DADADA" d="M44.477 66.87l5.323-27.1-14.504 6.918-14.442-6.917 5.837 27.1z"/><path fill="#E9B990" d="M43.546 38.1c0 4.19-3.645 7.583-8.142 7.583-4.498 0-8.145-3.393-8.145-7.583v-8.63c0-4.193 3.645-7.59 8.144-7.59 4.497 0 8.142 3.396 8.142 7.59v8.63z"/><path fill="#FFC58F" d="M43.546 36.73c0 4.188-3.645 7.585-8.142 7.585-4.498 0-8.145-3.396-8.145-7.586V28.1c0-4.19 3.645-7.587 8.144-7.587 4.497 0 8.142 3.396 8.142 7.587v8.63z"/><path fill="#FFD196" d="M48.605 17.798a1.61 1.61 0 0 0-.53.066c-1.088-8.177-6.183-14.367-12.31-14.367-10.643 0-11.224 6.19-12.317 14.367a1.597 1.597 0 0 0-.527-.066 1.718 1.718 0 0 0-1.585 1.843l.353 4.8c.07.944.896 1.658 1.84 1.588.068-.004.12-.04.185-.052 1.495 7.39 6.318 12.812 12.05 12.812 5.732 0 10.552-5.423 12.052-12.812.064.012.116.048.183.052.945.07 1.77-.644 1.837-1.588l.357-4.8c.073-.95-.64-1.77-1.587-1.842"/><g fill="#7C5947"><path d="M23.69 18.86c0 .364-.305.655-.68.655s-.678-.29-.678-.656c0-.36.303-.652.678-.652s.68.29.68.65M49.195 18.86a.666.666 0 0 1-.68.655.666.666 0 0 1-.68-.656c0-.36.305-.652.68-.652.376 0 .68.29.68.65"/><path d="M35.764 0c-7.42 0-13.432 5.216-13.432 11.647v7.212h1.357v-2.64c0-2.22 1.06-2.694 1.9-2.118 0 0 4.29 2.566 10.74 0 10.205-4.064 11.506.947 11.506 2.117v2.64h1.358v-7.213C49.194 5.217 43.18 0 35.764 0"/></g><path fill="#FC762B" d="M40.565 45.3H31.18l3.94 7.982-2.485 13.588h6.74l-2.56-13.588z"/><path fill="#F6F6F6" d="M44.764 36.327l5.05 3.3-6.626 13.082-7.86-7.41z"/><path fill="#F6F6F6" d="M26.437 36.327l-5.05 3.3L28.01 52.71l7.86-7.41z"/><path opacity=".5" fill="#1D1D1B" d="M47.997 66.87c1.41-3.87 3.062-8.66 3.062-8.66l-.837-4.556 2.417-1.208 1.858-10.413-4.09-1.948-6.62 26.785H48z"/><path fill="#5E5E5E" d="M47.407 66.87c1.425-3.9 3.13-8.848 3.13-8.848l-.836-4.555 2.418-1.21 1.858-10.412-4.09-1.946-6.665 26.97h4.187z"/><path opacity=".5" fill="#1D1D1B" d="M23.188 66.87c-1.41-3.87-3.062-8.66-3.062-8.66l.836-4.556-2.417-1.208-1.858-10.413 4.09-1.948 6.62 26.785h-4.21z"/><path fill="#5E5E5E" d="M23.778 66.87c-1.425-3.9-3.13-8.848-3.13-8.848l.837-4.555-2.417-1.21-1.858-10.412L21.3 39.9l6.665 26.97h-4.187z"/><path opacity=".1" fill="#010000" d="M71.208 63.375s-4.24-12.147-5.277-14.31C64.9 46.9 63.703 46 62.167 45.3c-.87-.396-6.345-2.805-10.915-4.816l-.843-.4-.007.025-.614-.268.014-.072-.078.038.09-.18-4.93-3.302-1.097 1.158V34.953c2-2.266 3.42-5.386 4.148-8.98.064.013.057.05.124.053.945.07 1.74-.644 1.807-1.588l.137-4.8c.057-.736-.216-1.392-1.216-1.684v-6.31c0-6.43-6-11.646-13-11.646v66.844H69.792c2.735.002 1.416-3.467 1.416-3.467zM47.836 16.22v.197c-.11-.556-.24-1.1-.385-1.63.3.584.386 1.134.386 1.433z"/></svg>