<svg xmlns="http://www.w3.org/2000/svg" width="68.61" height="69.764" viewBox="0 0 68.61 69.764"><path fill="#C1C1C1" d="M68.305 66.422s-4.07-11.657-5.063-13.734c-.99-2.076-2.137-2.94-3.61-3.61-1.47-.67-16.642-7.337-16.642-7.337l-8.685.67-8.69-.67s-15.167 6.667-16.637 7.337c-1.474.67-2.62 1.535-3.614 3.61C4.37 54.766.304 66.423.304 66.423s-1.263 3.342 1.355 3.342h65.288c2.62 0 1.357-3.342 1.357-3.342"/><path fill="#E9B990" d="M43.215 41.692c0 4.585-3.99 8.3-8.91 8.3-4.924 0-8.913-3.715-8.913-8.3v-9.44c0-4.592 3.99-8.307 8.913-8.307 4.92 0 8.91 3.715 8.91 8.306v9.442z"/><path fill="#FFC58F" d="M43.215 40.194c0 4.583-3.99 8.302-8.91 8.302-4.924 0-8.913-3.72-8.913-8.302v-9.446c0-4.584 3.99-8.3 8.913-8.3 4.92 0 8.91 3.716 8.91 8.3v9.446z"/><path fill="#FFF" d="M61.09 49.948a7.767 7.767 0 0 0-1.46-.872c-1.186-.54-11.314-4.997-15.16-6.687-.55 5.434-4.864 9.686-10.166 9.686-5.304 0-9.618-4.252-10.165-9.687-3.85 1.688-13.976 6.145-15.164 6.686a7.8 7.8 0 0 0-1.46.872c3.85 3.058 6.657 10.685 6.987 19.815h39.601c.33-9.13 3.136-16.757 6.987-19.815"/><path fill="#FFD196" d="M48.752 19.477c-.2-.016-.392.027-.58.073C46.98 10.6 41.405 3.826 34.7 3.826c-11.646 0-12.28 6.772-13.476 15.724-.187-.046-.376-.09-.577-.073a1.88 1.88 0 0 0-1.736 2.017l.384 5.25a1.887 1.887 0 0 0 2.017 1.74c.074-.005.13-.046.202-.06 1.634 8.09 6.913 14.023 13.187 14.023s11.548-5.933 13.187-14.023c.07.014.128.055.2.06a1.88 1.88 0 0 0 2.013-1.74l.388-5.25a1.88 1.88 0 0 0-1.736-2.017"/><path fill="#724430" d="M21.485 20.64a.728.728 0 0 1-.742.717.727.727 0 0 1-.743-.716.73.73 0 0 1 .743-.716c.41 0 .742.32.742.717M49.396 20.64a.728.728 0 0 1-.742.717.727.727 0 0 1-.744-.716.73.73 0 0 1 .744-.716c.41 0 .742.32.742.717"/><path fill="#49403E" d="M34.698 0C26.578 0 20 5.706 20 12.746v7.895h1.485V17.75c0-2.427 1.162-2.947 2.08-2.314 0 0 4.696 2.81 11.756 0 11.168-4.447 12.59 1.037 12.59 2.314v2.893h1.486v-7.894C49.396 5.706 42.816 0 34.698 0"/><path opacity=".1" fill="#010000" d="M68.305 65.9s-4.07-11.395-5.063-13.472c-.99-2.076-2.137-2.81-3.61-3.48-.286-.132-.944-.428-2.06-.92-3.503-1.55-9.793-4.356-12.793-5.638v.002c-1-.257-.895-.448-1.137-.556 0-.048.136-.095.136-.144v-3.44c2-2.48 3.59-5.895 4.387-9.828.07.014-.012.055.06.06 1.035.075 1.867-.703 1.942-1.74l.543-5.25c.062-.807.065-1.525-.935-1.845v-6.903c0-7.04-7-12.746-15-12.746v69.724h-.015 32.184c2.62 0 1.358-3.823 1.358-3.823zM47.91 17.75v.22a25.372 25.372 0 0 0-.425-1.8c.33.644.425 1.252.425 1.58z"/><g><path fill="#7A6AA0" d="M49.245 59.132v-7.98H45.87v8.286h.006c.075 2.845 2.14 5.17 4.903 5.525v-3.507c-.92-.308-1.535-1.315-1.535-2.324z"/><path fill="#7A6D9F" d="M23.156 59.132v-7.98H19.78v8.286h.007c.076 2.845 2.14 5.17 4.904 5.525v-3.507c-.92-.308-1.534-1.315-1.534-2.324z"/><path fill="#EA8936" d="M42.185 53.914a4.604 4.604 0 1 0 0 9.208 4.604 4.604 0 0 0 0-9.208zm0 6.138a1.534 1.534 0 0 1 0-3.068c.847 0 1.537.686 1.537 1.533s-.69 1.535-1.537 1.535zM26.84 53.914a4.604 4.604 0 1 0 0 9.208 4.604 4.604 0 0 0 0-9.208zm0 6.138a1.534 1.534 0 0 1 0-3.068 1.534 1.534 0 0 1 0 3.068z"/><path fill="#7A6AA0" d="M39.378 57.903a4.602 4.602 0 0 0-9.163.614 4.604 4.604 0 0 0 6.445 4.22v1.323c0 .093.013.19.013.29 0 1.016-.83 1.777-1.848 1.777-.973 0-1.774-.55-1.84-1.778H30.22c.07 2.762 2.1 4.54 4.598 4.54 2.543 0 4.605-1.998 4.605-4.54v-6.447h-.045zm-4.56 2.457a1.842 1.842 0 1 1 .003-3.684 1.842 1.842 0 0 1 0 3.684z"/></g></svg>