<svg xmlns="http://www.w3.org/2000/svg" width="129.306" height="129.789" viewBox="0 0 129.306 129.789"><circle fill="#78F1FF" cx="64.652" cy="64.609" r="64.611"/><path fill="#0082B7" d="M64.654.49C28.946.49 0 29.434 0 65.14c0 35.703 28.946 64.648 64.654 64.648 35.705 0 64.65-28.946 64.65-64.648C129.307 29.435 100.36.49 64.655.49zm53.028 85.737c-4.236 1.987-9.013 4.24-14.243 6.413 2.258-7.968 3.803-16.462 3.818-25.29h14.384c-.258 6.647-1.62 13-3.96 18.877zM7.668 67.35h14.38c.02 9.518 1.815 18.65 4.363 27.146-4.947-1.894-9.565-3.93-13.76-5.87C9.697 82.094 7.958 74.912 7.67 67.35zM62.44 8.148v14.386c-8.827.022-17.32 1.56-25.285 3.82 2.17-5.228 4.422-10.01 6.412-14.247 5.875-2.34 12.23-3.704 18.874-3.96zm20.807 22.744c4.175 1.008 8.194 2.248 12.04 3.613 1.363 3.846 2.603 7.864 3.61 12.036a39.156 39.156 0 0 0-15.65-15.648zm-16.386-8.25V8.15c6.65.255 13.003 1.62 18.878 3.96 2.11 4.49 4.51 9.597 6.8 15.198-8.027-2.45-16.655-4.23-25.677-4.663zM49.045 29.45A39.097 39.097 0 0 0 30.41 46.54c1.14-4.74 2.58-9.29 4.16-13.6 4.618-1.447 9.46-2.66 14.474-3.49zm-26.89 33.48H7.667c.29-7.562 2.025-14.743 4.98-21.27 4.476-2.07 9.42-4.257 14.75-6.25-2.747 8.54-4.776 17.803-5.245 27.52zm6.81 17.82a39.057 39.057 0 0 0 20.084 20.077c-5.602-.92-10.982-2.334-16.077-4.003-1.67-5.094-3.08-10.478-4.005-16.074zm33.477 26.998v14.38c-7.56-.292-14.737-2.03-21.268-4.982-1.938-4.197-3.978-8.813-5.87-13.763 8.496 2.552 17.623 4.344 27.14 4.365zm4.42-.108c9.72-.466 18.982-2.496 27.525-5.243-1.996 5.325-4.184 10.274-6.25 14.75-6.532 2.95-13.71 4.69-21.273 4.982v-14.49zm16.384-8.254a39.065 39.065 0 0 0 17.097-18.64c-.828 5.015-2.044 9.856-3.49 14.478-4.312 1.578-8.865 3.02-13.606 4.162zm23.91-36.456c-.435-9.022-2.217-17.65-4.666-25.674 5.6 2.292 10.706 4.69 15.193 6.798 2.34 5.876 3.703 12.23 3.96 18.876h-14.486zm6.176-27.532c-4.15-1.934-8.618-3.846-13.346-5.59-1.742-4.727-3.658-9.197-5.595-13.346a57.284 57.284 0 0 1 18.94 18.936zM34.916 16.462a175.702 175.702 0 0 0-5.176 12.236c-4.442 1.54-8.68 3.222-12.674 4.918 4.61-6.954 10.726-12.794 17.85-17.154zM17.068 96.666c3.653 1.55 7.507 3.093 11.537 4.523 1.43 4.03 2.976 7.887 4.522 11.538a57.36 57.36 0 0 1-16.06-16.062zm79.108 16.066c1.692-3.997 3.383-8.233 4.92-12.68a174.217 174.217 0 0 0 12.234-5.173c-4.363 7.12-10.202 13.237-17.154 17.852z"/><circle fill="#0082B7" cx="64.653" cy="65.138" r="34.112"/><path fill="#0082B7" d="M43.453 80.57h43.925v42.3H43.453z"/><path fill="#FFF" d="M52.845 122.48c3.83.706 7.77 1.094 11.806 1.094 4.573 0 9.032-.48 13.335-1.385V74.923h-25.14v47.555z"/><circle fill="#FFF" cx="64.652" cy="65.138" r="29.415"/><path fill="#0082B7" d="M49.9 35.212h29.504v35.243H49.9z"/><path opacity=".1" fill="#060000" d="M65.416.02v129.183c35.33-.413 63.848-29.165 63.848-64.593 0-35.428-28.52-64.18-63.848-64.59z"/></svg>