<svg xmlns="http://www.w3.org/2000/svg" width="101.94" height="103.656" viewBox="0 0 101.94 103.656"><path fill="#00AB75" d="M101.488 98.69s-6.047-17.32-7.523-20.406c-1.472-3.086-3.175-4.37-5.362-5.365-2.185-.997-24.73-10.9-24.73-10.9l-12.902.995-12.91-.996s-22.537 9.903-24.72 10.9c-2.19.995-3.895 2.278-5.37 5.364S.453 98.69.453 98.69s-1.88 4.966 2.01 4.966h97.012c3.89 0 2.014-4.966 2.014-4.966"/><path fill="#E9B990" d="M64.21 61.948c0 6.812-5.928 12.333-13.24 12.333-7.315 0-13.242-5.52-13.242-12.332V47.92c0-6.82 5.927-12.342 13.243-12.342 7.313 0 13.24 5.52 13.24 12.342v14.028z"/><path fill="#FFC58F" d="M64.21 59.722c0 6.81-5.928 12.335-13.24 12.335-7.315 0-13.242-5.525-13.242-12.335V45.687c0-6.812 5.927-12.335 13.243-12.335 7.313 0 13.24 5.523 13.24 12.335v14.035z"/><path fill="#00D094" d="M90.77 74.215c-.673-.504-1.38-.94-2.17-1.296-1.762-.806-16.81-7.426-22.525-9.937-.815 8.075-7.226 14.393-15.104 14.393-7.88 0-14.29-6.317-15.102-14.393-5.717 2.51-20.765 9.13-22.53 9.936-.787.355-1.493.79-2.168 1.295 5.72 4.543 9.89 15.874 10.382 29.44H80.39c.487-13.566 4.658-24.897 10.38-29.44"/><path fill="#FFD196" d="M72.436 28.938c-.298-.02-.583.04-.86.11-1.772-13.3-10.058-23.364-20.02-23.364-17.304 0-18.248 10.063-20.024 23.363-.277-.068-.558-.13-.858-.11a2.794 2.794 0 0 0-2.58 2.997l.572 7.803a2.805 2.805 0 0 0 2.997 2.584c.108-.007.193-.067.3-.088 2.427 12.02 10.27 20.836 19.592 20.836 9.32 0 17.16-8.814 19.595-20.836.105.02.19.08.3.09a2.796 2.796 0 0 0 2.99-2.585l.576-7.803a2.795 2.795 0 0 0-2.58-2.996"/><path fill="#724430" d="M31.922 30.668c0 .593-.495 1.063-1.103 1.063-.612 0-1.105-.47-1.105-1.062 0-.588.493-1.064 1.104-1.064.607 0 1.102.476 1.102 1.064M73.392 30.668c0 .593-.495 1.063-1.102 1.063-.61 0-1.105-.47-1.105-1.062 0-.588.495-1.064 1.105-1.064.607 0 1.102.476 1.102 1.064"/><path fill="#724430" d="M51.554 0c-12.066 0-21.84 8.48-21.84 18.938v11.73h2.208V26.37c0-3.606 1.726-4.38 3.09-3.438 0 0 6.98 4.172 17.467 0 16.59-6.607 18.705 1.54 18.705 3.438v4.297h2.207v-11.73C73.392 8.48 63.615 0 51.554 0"/><path opacity=".1" fill="#010000" d="M101.488 98.19s-6.047-17.067-7.523-20.153c-1.472-3.086-3.175-4.245-5.362-5.242-.426-.194-.902-.67-2.56-1.4-5.204-2.302-14.505-6.507-18.505-8.41v.003c-2-.383-1.584-.667-1.944-.826 0-.07-.056-.142-.056-.213v-5.115c3-3.683 5.09-8.758 6.275-14.603.104.02-.14.08-.033.09 1.537.11 2.712-1.046 2.823-2.585l1.566-7.803c.09-1.197.368-2.266-.632-2.74V18.938c0-10.46-12-18.938-23-18.938v102.656h-.885H99.473c3.892 0 2.015-4.465 2.015-4.465zm-30.95-71.82v.327c0-.91-.392-1.8-.63-2.673.488.956.63 1.86.63 2.347z"/></svg>