<svg xmlns="http://www.w3.org/2000/svg" width="61.668" height="62" viewBox="0 0 61.668 62"><path fill="#293E4C" d="M61.668 56.604a3.383 3.383 0 0 1-3.387 3.384H3.385A3.383 3.383 0 0 1 0 56.604a3.382 3.382 0 0 1 3.384-3.383H58.28a3.38 3.38 0 0 1 3.388 3.384z"/><path fill="#5CD5FF" d="M46.01 59.528A2.47 2.47 0 0 1 43.54 62H18.126a2.47 2.47 0 0 1-2.47-2.472v-5.85a2.468 2.468 0 0 1 2.47-2.47H43.54a2.47 2.47 0 0 1 2.47 2.47v5.85z"/><path fill="#5CD5FF" d="M33.76 44.016a2.47 2.47 0 0 1 2.47 2.472v10.588a2.47 2.47 0 0 1-2.47 2.47h-5.854a2.47 2.47 0 0 1-2.47-2.47V46.488a2.47 2.47 0 0 1 2.47-2.472h5.854z"/><path opacity=".1" d="M25.437 44.016H36.23v5.297H25.438z"/><path fill="#4494C1" d="M61.624 41.25a5.775 5.775 0 0 1-5.776 5.777H5.84A5.775 5.775 0 0 1 .063 41.25V5.78A5.777 5.777 0 0 1 5.84 0h50.007a5.777 5.777 0 0 1 5.775 5.778v35.474h.002z"/><path fill="#293E4C" d="M57.78 37.083a6.05 6.05 0 0 1-6.05 6.047H9.245a6.047 6.047 0 0 1 0-12.092H51.73c3.34 0 6.05 2.704 6.05 6.045zM57.78 23.577a6.05 6.05 0 0 1-6.05 6.048H9.245a6.05 6.05 0 0 1 0-12.095H51.73a6.048 6.048 0 0 1 6.05 6.047zM57.78 10.07a6.05 6.05 0 0 1-6.05 6.047H9.245a6.05 6.05 0 0 1 0-12.095H51.73a6.05 6.05 0 0 1 6.05 6.046z"/><circle fill="#FF5955" cx="9.29" cy="10.068" r="2.818"/><circle fill="#5CD5FF" cx="9.29" cy="23.676" r="2.819"/><circle fill="#5CD5FF" cx="9.29" cy="37.15" r="2.818"/><g fill="#FFF"><path d="M51.887 8.315c0 .535-.31.968-.688.968H17.326c-.38 0-.688-.433-.688-.968 0-.534.307-.968.687-.968H51.2c.378 0 .687.435.687.968zM51.887 11.822c0 .534-.31.968-.688.968H17.326c-.38 0-.688-.434-.688-.968s.307-.97.687-.97H51.2c.378.002.687.436.687.97z"/></g><g fill="#FFF"><path d="M51.887 21.823c0 .535-.31.97-.688.97H17.326c-.38 0-.688-.434-.688-.97 0-.535.307-.968.687-.968H51.2c.378 0 .687.433.687.968zM51.887 25.33c0 .534-.31.968-.688.968H17.326c-.38 0-.688-.433-.688-.968 0-.536.307-.97.687-.97H51.2c.378 0 .687.433.687.97z"/></g><g fill="#FFF"><path d="M51.887 35.33c0 .536-.31.97-.688.97H17.326c-.38 0-.688-.435-.688-.97 0-.535.307-.97.687-.97H51.2c.378.003.687.437.687.97zM51.887 38.837c0 .533-.31.97-.688.97H17.326c-.38 0-.688-.436-.688-.97s.307-.97.687-.97H51.2c.378.002.687.436.687.97z"/></g><path opacity=".1" d="M61.624 41.25a5.775 5.775 0 0 1-5.776 5.777H5.84L55.847 0a5.777 5.777 0 0 1 5.775 5.778v35.474h.002z"/></svg>