<svg xmlns="http://www.w3.org/2000/svg" width="103.203" height="105" viewBox="0 0 103.203 105"><path fill="#C1C1C1" d="M102.745 99.912s-6.122-17.534-7.617-20.66c-1.49-3.122-3.215-4.422-5.43-5.43-2.21-1.01-25.033-11.036-25.033-11.036l-13.063 1.008-13.07-1.008S15.715 72.812 13.504 73.82c-2.217 1.01-3.94 2.31-5.436 5.433C6.575 82.378.46 99.913.46 99.913s-1.902 5.026 2.035 5.026H100.705c3.94 0 2.04-5.028 2.04-5.028"/><path fill="#E9B990" d="M65.005 62.714c0 6.897-6 12.487-13.402 12.487-7.407 0-13.407-5.59-13.407-12.486V48.512c0-6.904 6-12.492 13.407-12.492 7.402 0 13.402 5.588 13.402 12.492v14.202z"/><path fill="#FFC58F" d="M65.005 60.46c0 6.895-6 12.488-13.402 12.488-7.407 0-13.407-5.594-13.407-12.487V46.253c0-6.896 6-12.486 13.407-12.486 7.402 0 13.402 5.59 13.402 12.486v14.21z"/><path fill="#FFF" d="M91.894 75.133c-.68-.51-1.398-.95-2.196-1.312-1.785-.812-17.02-7.516-22.804-10.058-.827 8.175-7.316 14.57-15.29 14.57-7.98 0-14.47-6.395-15.29-14.57-5.79 2.542-21.023 9.245-22.81 10.06-.797.36-1.51.8-2.196 1.31 5.792 4.6 10.013 16.072 10.51 29.808h59.568c.493-13.736 4.715-25.208 10.508-29.807"/><path fill="#FFD196" d="M73.333 29.297c-.302-.023-.59.04-.87.11-1.796-13.464-10.183-23.65-20.27-23.65-17.517 0-18.473 10.187-20.27 23.65-.282-.07-.566-.134-.87-.11a2.827 2.827 0 0 0-2.61 3.033l.58 7.9a2.838 2.838 0 0 0 3.033 2.613c.108-.006.195-.067.302-.088 2.458 12.17 10.398 21.094 19.835 21.094 9.437 0 17.372-8.925 19.837-21.095.106.02.193.082.303.088a2.826 2.826 0 0 0 3.026-2.614l.583-7.9a2.826 2.826 0 0 0-2.61-3.033"/><path fill="#724430" d="M32.318 31.05c0 .598-.5 1.075-1.117 1.075s-1.117-.478-1.117-1.076c0-.597.5-1.08 1.118-1.08.617 0 1.118.483 1.118 1.08M74.302 31.05c0 .598-.5 1.075-1.116 1.075-.62 0-1.12-.478-1.12-1.076 0-.597.5-1.08 1.12-1.08.615 0 1.116.483 1.116 1.08"/><path fill="#49403E" d="M52.193 0c-12.214 0-22.11 8.584-22.11 19.173V31.05h2.234v-4.353c0-3.65 1.748-4.434 3.13-3.48 0 0 7.063 4.223 17.682 0 16.796-6.69 18.936 1.56 18.936 3.48v4.352H74.3V19.172C74.303 8.583 64.404 0 52.194 0"/><path opacity=".1" fill="#010000" d="M102.745 99.19s-6.122-17.174-7.617-20.297c-1.49-3.123-3.215-4.242-5.43-5.254-.43-.197-1.497-.647-3.176-1.39-5.268-2.33-14.32-6.56-19.32-8.488v.003c-1-.386-1.09-.674-1.455-.836 0-.072.456-.143.456-.217V57.538c3-3.73 5.228-8.866 6.426-14.783.105.02-.107.082.002.088 1.557.115 2.764-1.057 2.877-2.614l.958-7.9c.093-1.213-.266-2.294-1.266-2.774V19.173c0-10.59-11-19.173-22-19.173v105h-.91 48.413c3.94 0 2.04-5.81 2.04-5.81zM72.203 26.696v.33c-1-.923-.396-1.823-.64-2.705.497.967.64 1.88.64 2.375z"/><g><path fill="#7A6AA0" d="M74.075 88.946V76.942h-5.078v12.466h.01c.114 4.28 3.22 7.776 7.376 8.31v-5.274c-1.384-.465-2.308-1.98-2.308-3.498z"/><path fill="#7A6D9F" d="M34.832 88.946V76.942h-5.08v12.466h.012c.114 4.28 3.22 7.776 7.376 8.31v-5.274c-1.386-.465-2.308-1.98-2.308-3.498z"/><path fill="#EA8936" d="M63.455 81.097a6.926 6.926 0 1 0 .003 13.853 6.926 6.926 0 0 0-.003-13.853zm0 9.234c-1.275 0-2.306-1.033-2.306-2.31s1.03-2.306 2.305-2.306a2.31 2.31 0 0 1 0 4.617zM40.372 81.097a6.927 6.927 0 0 0 0 13.853 6.927 6.927 0 0 0 0-13.853zm0 9.234a2.31 2.31 0 1 1 0-4.618 2.31 2.31 0 0 1 0 4.62z"/><path fill="#7A6AA0" d="M59.233 87.1c-.452-3.387-3.345-6.003-6.857-6.003a6.927 6.927 0 0 0 0 13.853c.986 0 1.922-.212 2.77-.58v1.992c0 .14.02.285.02.433 0 1.53-1.25 2.675-2.78 2.675-1.463 0-2.67-.827-2.77-2.675H45.46c.103 4.157 3.156 6.83 6.916 6.83 3.825 0 6.927-3.005 6.927-6.83V87.1h-.07zm-6.857 3.695a2.77 2.77 0 1 1 .002-5.542 2.77 2.77 0 0 1-.002 5.542z"/></g></svg>