<svg xmlns="http://www.w3.org/2000/svg" width="95.038" height="100.239" viewBox="0 0 95.038 100.239"><path fill="#FFCE12" d="M84.874 30.85l-4.287-.345c-.78-2.927-1.895-5.695-3.382-8.26l2.86-3.306c.993-.995 1.188-2.418.43-3.178l-9.228-9.23c-.76-.762-2.18-.574-3.174.42l-3.317 2.83a33.75 33.75 0 0 0-8.25-3.408l-.34-4.096C56.186.876 55.313 0 54.24 0H41.184c-1.077 0-1.952.876-1.952 2.28l-.35 4.225c-2.922.784-5.687 1.867-8.243 3.347l-3.318-2.87c-.99-.992-2.414-1.193-3.174-.433l-9.23 9.22c-.762.76-.573 2.176.422 3.174l2.83 3.323a33.783 33.783 0 0 0-3.41 8.245l-4.405.34c-1.402 0-2.588.867-2.588 1.942V45.85c0 1.072 1.186 1.952 2.588 1.952l4.38.345a34.022 34.022 0 0 0 3.428 8.246l-2.828 3.313c-.994.997-1.182 2.415-.42 3.176l9.233 9.232c.76.756 2.184.574 3.173-.42l3.33-2.832a33.85 33.85 0 0 0 8.252 3.41l.33 4.52c0 1.405.875 2.71 1.952 2.71H54.24c1.073 0 1.945-1.306 1.945-2.71l.34-4.437a34.156 34.156 0 0 0 8.26-3.46l3.31 2.82c.993.994 2.415 1.166 3.175.413l9.233-9.24c.757-.763.57-2.186-.42-3.178l-2.835-3.32a33.955 33.955 0 0 0 3.413-8.262l4.213-.326c1.405 0 2.398-.88 2.398-1.952V32.794c.002-1.075-.99-1.943-2.396-1.943zM47.708 52.034c-7.446 0-13.487-6.038-13.487-13.487 0-7.454 6.043-13.487 13.488-13.487 7.452 0 13.49 6.033 13.49 13.486 0 7.45-6.038 13.487-13.49 13.487z"/><path opacity=".1" fill="#010000" d="M84.484 30.85l-4.092-.345c-.78-2.927-1.798-5.695-3.285-8.26l2.908-3.306c.993-.995 1.213-2.418.454-3.178l-9.216-9.23c-.762-.762-2.173-.574-3.168.42l-3.313 2.83a33.76 33.76 0 0 0-8.25-3.408l-.338-3.99C56.185.98 55.315.21 54.24.21h-6.747v24.88c0-.01.218-.033.443-.033 7.452 0 13.377 6.034 13.377 13.487 0 7.45-5.87 13.487-13.32 13.487-.227 0-.5-.023-.5-.033V79.21h6.748c1.074 0 1.946-1.16 1.946-2.564l.34-4.365a33.98 33.98 0 0 0 8.26-3.42l3.31 2.834c.993.997 2.415 1.18 3.175.424l9.234-9.234c.757-.764.57-2.185-.42-3.178l-2.835-3.317a33.964 33.964 0 0 0 3.412-8.262l3.822-.326c1.405 0 2.008-.88 2.008-1.952V32.794c0-1.075-.603-1.943-2.008-1.943z"/><path fill="#7FBC0A" d="M95.016 92.54a7.698 7.698 0 0 1-7.703 7.7L7.696 100.2A7.692 7.692 0 0 1 0 92.502l.02-48.226c0-4.25 3.454-7.7 7.704-7.697l79.618.034c4.252 0 7.696 3.45 7.696 7.7l-.022 48.227z"/><path fill="#FFF" d="M55.14 74.576a1.91 1.91 0 0 1-1.912 1.908L4.445 76.37a1.9 1.9 0 0 1-1.904-1.907l.014-5.518c0-1.05.86-1.906 1.914-1.903l48.78.107a1.91 1.91 0 0 1 1.905 1.913l-.014 5.513zM80.59 74.636a1.907 1.907 0 0 1-1.914 1.9L62.983 76.5a1.908 1.908 0 0 1-1.906-1.91l.013-5.516a1.91 1.91 0 0 1 1.914-1.904l15.695.034a1.91 1.91 0 0 1 1.903 1.913l-.013 5.52z"/><path fill="#333" d="M.157 44.863h94.877V60.49H.157z"/><path opacity=".1" fill="#010000" d="M87.34 36.614L5.38 99.808c.735.234 1.503.394 2.316.394l79.617.037a7.7 7.7 0 0 0 7.703-7.7l.02-48.227c.002-4.25-3.442-7.7-7.695-7.7z"/></svg>