<svg xmlns="http://www.w3.org/2000/svg" width="57.692" height="70.932" viewBox="0 0 57.692 70.932"><path fill="#FFC50B" d="M50.392 18.482l-2.588-.198c-.446-1.675-1.152-3.26-2.003-4.73l1.605-1.89c.57-.57.664-1.387.23-1.82l-5.29-5.29c-.437-.433-1.256-.325-1.823.244l-1.903 1.62a19.487 19.487 0 0 0-4.73-1.952l-.19-2.75C33.7.905 33.196 0 32.58 0h-7.474c-.616 0-1.118.907-1.118 1.714l-.2 2.626c-1.672.445-3.254 1.168-4.718 2.017l-1.902-1.59c-.567-.57-1.38-.66-1.816-.226l-5.288 5.295c-.434.432-.327 1.254.244 1.823l1.618 1.903a19.547 19.547 0 0 0-1.952 4.725l-3.176.197c-.805 0-2.14.498-2.14 1.113v7.475c0 .617 1.335 1.12 2.14 1.12l2.837.197c.45 1.673 1.276 3.256 2.123 4.72l-1.535 1.897c-.572.57-.636 1.385-.2 1.82l5.308 5.285c.435.437 1.26.33 1.825-.24l1.915-1.618a19.368 19.368 0 0 0 4.73 1.95l.186 3.102c0 .808.502 2.066 1.118 2.066h7.474c.616 0 1.117-1.258 1.117-2.066l.193-2.8c1.676-.446 3.26-1.257 4.73-2.106l1.896 1.55c.566.568 1.38.637 1.818.202l5.285-5.305c.434-.435.328-1.26-.242-1.83l-1.62-1.902a19.307 19.307 0 0 0 1.953-4.732l2.68-.188c.803 0 1.638-.502 1.638-1.12V19.6c0-.62-.835-1.116-1.638-1.116zM28.844 31.057a7.72 7.72 0 0 1-7.722-7.72 7.72 7.72 0 0 1 7.722-7.723 7.723 7.723 0 0 1 7.725 7.724c-.002 4.263-3.46 7.72-7.726 7.72z"/><path fill="#06B57E" d="M57.692 30.687c0-6.243-1.107-11.4-3.06-15.584-1.11.086-2.24.136-3.39.136-9.46 0-17.752-2.998-22.396-7.5-4.645 4.502-12.935 7.5-22.396 7.5-1.15 0-2.28-.05-3.39-.137C1.106 19.287 0 24.443 0 30.687c0 21.388 17.542 40.245 28.847 40.245 12.1 0 28.845-18.857 28.845-40.245z"/><g fill="#FFF"><path d="M40.41 54.31a1.874 1.874 0 0 1-1.873 1.874H19.154a1.874 1.874 0 0 1-1.874-1.875V37.74c0-1.035.838-1.874 1.874-1.874h19.382c1.036 0 1.874.84 1.874 1.875v16.57z"/><path d="M28.846 55.05c-4.826 0-8.753-3.928-8.753-8.752V29.654c0-4.825 3.928-8.752 8.753-8.752S37.6 24.83 37.6 29.654v16.644c0 4.824-3.93 8.75-8.754 8.75zm0-30.397a5.008 5.008 0 0 0-5.003 5v16.644c0 2.757 2.245 5 5.003 5s5-2.244 5-5V29.654c0-2.757-2.242-5-5-5z"/></g><g fill="#06B57E"><path d="M31.75 43.604a2.903 2.903 0 0 1-5.806 0c0-1.603 1.3-2.9 2.903-2.9a2.905 2.905 0 0 1 2.903 2.9z"/><path d="M30.296 50.982c0 .8-.65 1.45-1.452 1.45a1.45 1.45 0 0 1-1.452-1.45V42.88c0-.803.65-1.452 1.452-1.452a1.45 1.45 0 0 1 1.452 1.452v8.102z"/></g><path opacity=".1" fill="#010000" d="M54.616 15.103c-1.11.086-2.24.136-3.39.136-9.407 0-17.656-2.967-22.314-7.423v63.108c12.284 0 28.765-18.948 28.765-40.237 0-6.244-1.108-11.4-3.06-15.585z"/></svg>