<svg xmlns="http://www.w3.org/2000/svg" width="118.934" height="100.829" viewBox="0 0 118.934 100.829"><path fill="#FFD53F" d="M118.932 91.1c0 5.327-4.32 9.646-9.643 9.646H9.644c-5.325 0-6.172-4.317-6.172-9.646V9.646C3.473 4.32 4.32 0 9.645 0h99.645c5.324 0 9.643 4.32 9.643 9.646V91.1z"/><path opacity=".2" fill="#020000" d="M68.786 50.244l-3.463-.266c-.596-2.24-1.54-4.363-2.68-6.327l2.145-2.527c.762-.762.888-1.854.306-2.435l-7.075-7.075c-.585-.58-1.68-.437-2.44.326l-2.545 2.166a26.124 26.124 0 0 0-6.323-2.612l-.257-3.68c0-1.08-.67-2.292-1.495-2.292h-10c-.822 0-1.494 1.212-1.494 2.292l-.267 3.512c-2.238.596-4.355 1.562-6.313 2.698l-2.544-2.128c-.76-.762-1.847-.882-2.43-.3l-7.073 7.082c-.58.577-.438 1.677.326 2.438l2.165 2.546a26.21 26.21 0 0 0-2.61 6.32l-4.25.262c-1.075 0-2.86.665-2.86 1.49v10c0 .824 1.785 1.496 2.86 1.496l3.796.265c.6 2.238 1.707 4.355 2.838 6.314l-2.053 2.537c-.764.762-.85 1.852-.266 2.433l7.1 7.07c.582.586 1.684.44 2.442-.322l2.562-2.163a25.83 25.83 0 0 0 6.326 2.607l.25 4.15c0 1.082.673 2.764 1.496 2.764h10c.822 0 1.494-1.683 1.494-2.763l.26-3.745c2.24-.6 4.36-1.684 6.328-2.82l2.534 2.072c.76.762 1.85.853 2.434.272l7.07-7.098c.58-.58.438-1.685-.324-2.447l-2.17-2.544a25.86 25.86 0 0 0 2.614-6.33l3.586-.254c1.074 0 2.19-.673 2.19-1.498v-10c0-.823-1.117-1.488-2.19-1.488zM39.96 67.064c-5.708 0-10.33-4.622-10.33-10.325 0-5.71 4.622-10.333 10.33-10.333 5.706 0 10.332 4.623 10.332 10.332 0 5.702-4.625 10.325-10.333 10.325z"/><path fill="#4C4C4C" d="M39.293 95.638H9.645A4.542 4.542 0 0 1 5.108 91.1V9.647c0-2.5 2.035-4.536 4.537-4.536h29.648V0H9.645C4.32 0 0 4.32 0 9.646V91.1c0 5.327 4.32 9.646 9.63 9.667h22.284l7.38-5.13z"/><path fill="#F2D9AD" d="M64.84 100.746l-54.176.02 27.182-46.995z"/><path fill="#282828" d="M32.954 100.758l-22.75.01 11.533-19.39z"/><path fill="#2EBEE5" d="M115.39 9.16l3.542 6.166v54.28l-54.188 31.14L37.75 53.77z"/><path opacity=".1" fill="#020000" d="M118.932 51.12v18.486L64.6 100.83l-7.81-13.92z"/><path opacity=".1" fill="#FFF" d="M115.39 9.16l3.544 6.17-.002 10.2-73.23 42.08-7.95-13.838z"/><path fill="#F2D9AD" d="M45.628 67.58c1.058-2.178.745-5.525-1.036-8.608-1.78-3.08-4.522-5.026-6.938-5.198l7.974 13.806zM64.685 100.767c1.068-2.19.75-5.562-1.043-8.666-1.792-3.103-4.552-5.06-6.983-5.23l8.025 13.897z"/><path fill="#F2D9AD" d="M56.728 87.11c1.792-3.27 1.535-8.16-1.01-12.56-2.54-4.403-6.65-7.07-10.376-7.152L56.728 87.11z"/><path fill="#4C4C4C" d="M109.29 0H9.644C4.32 0 0 4.32 0 9.646v13h118.932v-13c0-5.327-4.32-9.646-9.643-9.646z"/><path fill="#FF5955" d="M16.31 11.46c0 2.558-2.08 4.632-4.645 4.632a4.64 4.64 0 0 1 0-9.278 4.64 4.64 0 0 1 4.644 4.644z"/><path fill="#43CEFF" d="M29.77 11.46a4.64 4.64 0 0 1-4.643 4.632 4.637 4.637 0 0 1-4.642-4.633 4.64 4.64 0 1 1 9.284 0z"/><path fill="#FFF" d="M111.908 11.995c0 2.3-1.812 4.17-4.05 4.17H37.94c-2.236 0-4.05-1.87-4.05-4.17 0-2.305 1.812-4.174 4.05-4.174h69.916c2.237 0 4.052 1.87 4.052 4.175z"/><path opacity=".1" fill="#020000" d="M109.29 0H47.203L67.59 100.746h41.7c5.323 0 9.642-4.317 9.642-9.646V9.646c0-5.327-4.32-9.646-9.643-9.646zM63.642 92.103c-1.762-3.05-4.46-4.986-6.862-5.213l-46.214 13.745 54.12.133c1.067-2.193.75-5.564-1.044-8.665z"/></svg>