<svg xmlns="http://www.w3.org/2000/svg" width="68.235" height="71.97" viewBox="0 0 68.235 71.97"><path fill="#FFCE12" d="M60.938 22.15l-3.078-.248c-.56-2.102-1.36-4.09-2.428-5.93l2.053-2.374c.713-.714.854-1.735.31-2.28L51.167 4.69c-.547-.547-1.564-.412-2.28.302l-2.38 2.033a24.207 24.207 0 0 0-5.924-2.448l-.244-2.94C40.34.63 39.713 0 38.943 0H29.57c-.774 0-1.402.63-1.402 1.637l-.25 3.034c-2.1.563-4.083 1.34-5.92 2.403l-2.38-2.06c-.71-.713-1.733-.857-2.28-.312l-6.626 6.622c-.548.545-.412 1.562.302 2.278l2.032 2.386a24.25 24.25 0 0 0-2.45 5.92l-3.162.244c-1.007 0-1.858.623-1.858 1.396v9.374c0 .77.852 1.4 1.858 1.4l3.146.25a24.416 24.416 0 0 0 2.46 5.92l-2.03 2.378c-.714.716-.848 1.733-.3 2.28l6.627 6.63c.545.542 1.568.41 2.278-.303l2.39-2.033a24.27 24.27 0 0 0 5.926 2.45l.237 3.244c0 1.008.628 1.945 1.4 1.945h9.375c.77 0 1.396-.937 1.396-1.944l.245-3.187a24.495 24.495 0 0 0 5.93-2.484l2.377 2.023c.712.713 1.733.837 2.28.296l6.628-6.635c.543-.546.41-1.567-.302-2.28l-2.035-2.384a24.36 24.36 0 0 0 2.45-5.932l3.025-.234c1.01 0 1.722-.632 1.722-1.4v-9.375c.002-.772-.71-1.395-1.72-1.395zM34.253 37.358c-5.346 0-9.684-4.335-9.684-9.684a9.682 9.682 0 0 1 9.683-9.684c5.35 0 9.686 4.332 9.686 9.684 0 5.35-4.336 9.684-9.687 9.684z"/><path opacity=".1" fill="#010000" d="M60.653 22.15l-2.936-.248c-.56-2.102-1.29-4.09-2.357-5.93l2.088-2.374c.713-.714.872-1.735.327-2.28L51.16 4.69c-.547-.547-1.56-.412-2.276.302l-2.38 2.033a24.216 24.216 0 0 0-5.92-2.448l-.245-2.902c0-1.007-.626-1.598-1.397-1.598H34.09v17.938c0-.008.16-.024.322-.024 5.35 0 9.606 4.333 9.606 9.685 0 5.35-4.217 9.684-9.566 9.684-.163 0-.362-.02-.362-.025v19.743h4.853c.77 0 1.396-.936 1.396-1.943l.244-3.186a24.453 24.453 0 0 0 5.93-2.483l2.377 2.022c.713.715 1.734.84 2.28.297l6.63-6.633c.542-.548.408-1.57-.303-2.283l-2.035-2.382a24.36 24.36 0 0 0 2.45-5.932l2.74-.234c1.01 0 1.437-.632 1.437-1.4v-9.375c0-.774-.428-1.397-1.437-1.397z"/><path fill="#7FBC0A" d="M68.22 66.442a5.528 5.528 0 0 1-5.53 5.527l-57.164-.027A5.523 5.523 0 0 1 0 66.415L.014 31.79a5.53 5.53 0 0 1 5.53-5.527l57.165.025a5.528 5.528 0 0 1 5.525 5.528l-.016 34.626z"/><path fill="#FFF" d="M39.588 53.544a1.372 1.372 0 0 1-1.372 1.37l-35.025-.08a1.365 1.365 0 0 1-1.366-1.37l.01-3.963a1.37 1.37 0 0 1 1.374-1.365l35.022.077c.757 0 1.37.616 1.368 1.374l-.01 3.958zM57.862 53.587a1.37 1.37 0 0 1-1.375 1.365l-11.267-.026a1.37 1.37 0 0 1-1.368-1.37l.01-3.96a1.37 1.37 0 0 1 1.373-1.368l11.27.024a1.37 1.37 0 0 1 1.366 1.373l-.008 3.962z"/><path fill="#333" d="M.113 32.21h68.12v11.22H.113z"/><path opacity=".1" fill="#010000" d="M62.71 26.288L3.86 71.66c.528.168 1.08.283 1.664.283l57.163.026a5.528 5.528 0 0 0 5.53-5.528l.015-34.626a5.528 5.528 0 0 0-5.526-5.528z"/></svg>