<svg xmlns="http://www.w3.org/2000/svg" width="97.668" height="98.193" viewBox="0 0 97.668 98.193"><path fill="#293E4C" d="M97.668 89.646a5.357 5.357 0 0 1-5.364 5.36H5.36A5.356 5.356 0 0 1 0 89.646c0-2.96 2.4-5.357 5.36-5.357h86.944a5.354 5.354 0 0 1 5.364 5.356z"/><path fill="#5CD5FF" d="M72.87 94.278a3.913 3.913 0 0 1-3.913 3.915h-40.25a3.91 3.91 0 0 1-3.91-3.915v-9.263a3.91 3.91 0 0 1 3.91-3.913h40.25c2.16 0 3.914 1.75 3.914 3.913v9.263z"/><path fill="#5CD5FF" d="M53.47 69.71a3.915 3.915 0 0 1 3.91 3.916v16.77a3.915 3.915 0 0 1-3.91 3.913h-9.272a3.914 3.914 0 0 1-3.912-3.914v-16.77a3.912 3.912 0 0 1 3.912-3.916h9.27z"/><path opacity=".1" d="M40.286 69.71H57.38v8.39H40.287z"/><path fill="#4494C1" d="M97.598 65.333a9.147 9.147 0 0 1-9.147 9.147H9.25A9.146 9.146 0 0 1 .1 65.333V9.15A9.15 9.15 0 0 1 9.25 0h79.198c5.052 0 9.147 4.1 9.147 9.15v56.183h.003z"/><path fill="#293E4C" d="M91.51 58.73c0 5.288-4.29 9.577-9.58 9.577H14.64c-5.287 0-9.58-4.286-9.58-9.578 0-5.29 4.293-9.575 9.58-9.575h67.285c5.29 0 9.583 4.284 9.583 9.574zM91.51 37.34c0 5.288-4.29 9.58-9.58 9.58H14.64c-5.287 0-9.58-4.292-9.58-9.58 0-5.29 4.293-9.578 9.58-9.578h67.285c5.29-.003 9.583 4.288 9.583 9.577zM91.51 15.945c0 5.29-4.29 9.58-9.58 9.58H14.64c-5.287 0-9.58-4.29-9.58-9.58s4.293-9.576 9.58-9.576h67.285c5.29 0 9.583 4.286 9.583 9.575z"/><circle fill="#FF5955" cx="14.713" cy="15.945" r="4.464"/><circle fill="#5CD5FF" cx="14.713" cy="37.497" r="4.463"/><path fill="#5CD5FF" d="M14.713 54.374a4.463 4.463 0 1 1 0 8.928 4.463 4.463 0 0 1 0-8.928z"/><g fill="#FFF"><path d="M82.177 13.17c0 .847-.49 1.532-1.09 1.532H27.443c-.6 0-1.09-.686-1.09-1.533 0-.847.49-1.533 1.09-1.533h53.646c.6 0 1.09.688 1.09 1.532zM82.177 18.724c0 .846-.49 1.534-1.09 1.534H27.443c-.6 0-1.09-.688-1.09-1.534 0-.847.49-1.534 1.09-1.534h53.646c.6 0 1.09.687 1.09 1.534z"/></g><g fill="#FFF"><path d="M82.177 34.562c0 .848-.49 1.535-1.09 1.535H27.443c-.6 0-1.09-.685-1.09-1.535 0-.848.49-1.533 1.09-1.533h53.646c.6-.004 1.09.684 1.09 1.532zM82.177 40.116c0 .845-.49 1.53-1.09 1.53H27.443c-.6 0-1.09-.683-1.09-1.53 0-.85.49-1.535 1.09-1.535h53.646c.6 0 1.09.686 1.09 1.536z"/></g><g fill="#FFF"><path d="M82.177 55.954c0 .848-.49 1.534-1.09 1.534H27.443c-.6 0-1.09-.687-1.09-1.534 0-.848.49-1.535 1.09-1.535h53.646c.6.003 1.09.69 1.09 1.534zM82.177 61.51c0 .843-.49 1.534-1.09 1.534H27.443c-.6 0-1.09-.69-1.09-1.535 0-.848.49-1.537 1.09-1.537h53.646c.6.003 1.09.69 1.09 1.536z"/></g><path opacity=".1" d="M97.598 65.333a9.147 9.147 0 0 1-9.147 9.147H9.25L88.447 0c5.052 0 9.147 4.1 9.147 9.15v56.183h.003z"/></svg>