<?xml version="1.0" encoding="utf-8"?>
<!-- Generator: Adobe Illustrator 20.1.0, SVG Export Plug-In . SVG Version: 6.00 Build 0)  -->
<svg version="1.1" id="Слой_1" xmlns="http://www.w3.org/2000/svg" xmlns:xlink="http://www.w3.org/1999/xlink" x="0px" y="0px"
	 viewBox="0 0 326 70.3" width="160" height="35" style="enable-background:new 0 0 326 70.3;" xml:space="preserve">
<style type="text/css">
	.st0{fill:#1F1A17;}
	.st1{fill:#0E9544;}
</style>
<g>
	<path class="st0" d="M46.7,1.5c-6.3,0-12.6,0.1-18.9-0.1C18.7,23.9,10.1,46.5,1.1,69c5.8,0.1,11.7,0.1,17.5,0
		c1.8-4.3,2.7-9.4,5.3-13.2c9.7,0,19.4-0.3,29,0.2c2,4.2,3.5,8.7,5.3,13c5.9,0.1,11.8,0,17.8,0C66.3,46.5,56.5,24,46.7,1.5z
		 M27.9,43.9c3.2-8.7,6.1-17.5,9.7-26C41,26.6,44.7,35.2,48,44C41.3,43.9,34.6,43.9,27.9,43.9z"/>
	<path class="st0" d="M73.7,19C79.4,8.8,90.6,2.3,102.1,1.1c11.3-0.9,23.3-0.3,33.6,5.2c-0.1,4.9,0,9.7-0.1,14.6
		c-10-4.9-21.6-7.8-32.7-5.3c-6.1,1.3-11.5,5.3-14.1,11c-3.7,7.9-2.4,18.6,4.7,24.2c7.5,5.9,18.6,6.7,27.1,2.7c-0.1-2.6,0-5.2,0-7.8
		c-3.2-0.1-6.4-0.1-9.7-0.1c0-4.1,0-8.2,0-12.3c8.7,0,17.3,0,26,0c-0.1,9.2,0.1,18.5-0.1,27.7c-5.5,5.3-13.4,7.9-20.9,8.3
		c-8,0.5-14.2,1.1-20.9-1.2C84.5,65,75.2,57.2,71.6,46.8C68.6,37.8,69.2,27.4,73.7,19L73.7,19z"/>
	<path class="st0" d="M182.7,1.5c-6.3,0-12.6,0.1-18.9-0.1c-9.1,22.4-17.7,45.1-26.7,67.5c5.8,0.1,11.7,0.1,17.5,0
		c1.8-4.3,2.7-9.4,5.3-13.2c9.7,0,19.4-0.3,29,0.2c2,4.2,3.5,8.7,5.3,13c5.9,0.1,11.8,0,17.8,0C202.3,46.5,192.5,24,182.7,1.5z
		 M163.9,43.9c3.2-8.7,6.1-17.5,9.7-26c3.5,8.7,7.1,17.3,10.5,26C177.3,43.9,170.6,43.9,163.9,43.9z"/>
	<path class="st0" d="M295.7,1.4c-6.3,0-12.6,0.1-18.9-0.1c-9.1,22.4-17.7,45.1-26.7,67.5c5.8,0.1,11.7,0.1,17.5,0
		c1.8-4.3,2.7-9.4,5.3-13.2c9.7,0,19.4-0.3,29,0.2c2,4.2,3.5,8.7,5.3,13c5.9,0.1,11.8,0,17.8,0C315.3,46.4,305.5,23.9,295.7,1.4z
		 M276.8,43.8c3.2-8.7,6.1-17.5,9.7-26c3.5,8.7,7.1,17.3,10.5,26C290.3,43.8,283.6,43.8,276.8,43.8z"/>
	<path class="st1" d="M260.3,0.2h5.1c-10.1,23-20.4,45.9-30.6,68.9c-2.6,0-4.8,0.4-7.3,0.1c-1.8-2-2.9-5-4.1-7.3
		c-9.3-20.1-18.6-40.1-28.1-60.2c5.9,0,11.9-0.5,17.8,0.1c6.1,12.5,11.5,25.3,17.3,38c2.9-5.3,4.9-11,7.4-16.5
		c2.8-6.1,4.7-12.8,9.6-17.5C251,2.4,255.7,1,260.3,0.2L260.3,0.2z"/>
</g>
</svg>
