<svg xmlns="http://www.w3.org/2000/svg" width="128.629" height="128.625" viewBox="0 0 128.629 128.625"><path fill="#78F1FF" d="M126.525 64.31c0 34.36-27.854 62.213-62.21 62.213-34.36 0-62.21-27.854-62.21-62.213 0-34.355 27.852-62.208 62.21-62.208 34.356 0 62.21 27.853 62.21 62.208z"/><path fill="#0084FD" d="M64.315 0C28.795 0 0 28.795 0 64.313c0 35.517 28.795 64.312 64.315 64.312 35.518 0 64.313-28.795 64.313-64.312C128.628 28.795 99.833 0 64.315 0zm52.75 85.288c-4.213 1.976-8.965 4.218-14.168 6.378 2.248-7.925 3.782-16.372 3.798-25.155h14.31c-.257 6.612-1.612 12.933-3.94 18.778zM7.63 66.51h14.305c.02 9.468 1.804 18.55 4.34 27.005-4.923-1.887-9.515-3.913-13.69-5.84-2.937-6.5-4.667-13.643-4.955-21.164zM62.115 7.62v14.31c-8.783.02-17.232 1.552-25.155 3.798 2.162-5.198 4.4-9.956 6.38-14.17 5.843-2.328 12.163-3.686 18.775-3.94zM82.81 30.244c4.154 1 8.152 2.235 11.98 3.592 1.354 3.827 2.588 7.824 3.59 11.973a38.934 38.934 0 0 0-15.57-15.565zm-16.298-8.207V7.618c6.613.254 12.934 1.612 18.777 3.94 2.098 4.466 4.484 9.548 6.764 15.118-7.985-2.434-16.57-4.208-25.542-4.638zM48.787 28.81a38.886 38.886 0 0 0-18.537 17c1.137-4.715 2.567-9.24 4.142-13.53 4.59-1.438 9.41-2.644 14.395-3.47zM22.04 62.115H7.627c.288-7.52 2.015-14.666 4.954-21.16 4.454-2.058 9.373-4.234 14.67-6.216-2.73 8.496-4.747 17.71-5.213 27.376zm6.773 17.727A38.868 38.868 0 0 0 48.79 99.815c-5.57-.916-10.924-2.322-15.992-3.98-1.662-5.073-3.065-10.428-3.985-15.993zm33.302 26.86v14.306c-7.522-.292-14.662-2.02-21.157-4.957-1.93-4.177-3.958-8.768-5.84-13.692 8.45 2.537 17.53 4.32 26.997 4.343zm4.397-.108c9.666-.463 18.88-2.484 27.38-5.216-1.987 5.298-4.163 10.222-6.22 14.673-6.498 2.935-13.637 4.664-21.16 4.956v-14.414zm16.296-8.212a38.88 38.88 0 0 0 17.008-18.544c-.825 4.99-2.034 9.805-3.474 14.402-4.288 1.572-8.818 3.007-13.534 4.142zm23.786-36.266c-.434-8.977-2.207-17.56-4.642-25.538 5.568 2.277 10.65 4.664 15.114 6.76 2.327 5.847 3.682 12.167 3.938 18.778h-14.41zm6.142-27.388c-4.127-1.922-8.572-3.825-13.275-5.56-1.732-4.704-3.64-9.15-5.566-13.276a56.97 56.97 0 0 1 18.842 18.836zM34.732 15.89a175.24 175.24 0 0 0-5.15 12.172c-4.416 1.53-8.632 3.207-12.607 4.893 4.59-6.918 10.672-12.727 17.757-17.065zM16.98 95.676c3.633 1.542 7.467 3.077 11.477 4.5 1.42 4.01 2.96 7.845 4.498 11.476A57.013 57.013 0 0 1 16.98 95.676zm78.692 15.98c1.684-3.976 3.365-8.19 4.896-12.613a173.817 173.817 0 0 0 12.168-5.146c-4.34 7.086-10.15 13.17-17.064 17.76z"/><circle fill="#0084FD" cx="64.315" cy="64.312" r="33.932"/><path fill="#FFF" d="M89.024 58.7l-2.887-.23A22.427 22.427 0 0 0 83.874 53l1.88-2.19c.66-.657.782-1.603.28-2.103L79.92 42.59c-.505-.5-1.446-.378-2.102.28l-2.2 1.875a22.51 22.51 0 0 0-5.467-2.26l-.223-2.883c0-.932-.578-1.683-1.29-1.683h-8.646c-.71 0-1.29.75-1.29 1.682l-.23 2.888a22.39 22.39 0 0 0-5.46 2.26L50.81 42.87c-.655-.66-1.597-.782-2.1-.28l-6.116 6.116c-.503.5-.38 1.446.28 2.104l1.87 2.2a22.542 22.542 0 0 0-2.255 5.462l-2.885.226c-.93 0-1.684.577-1.684 1.288v8.648c0 .712.754 1.29 1.685 1.29l2.888.233a22.496 22.496 0 0 0 2.26 5.46l-1.876 2.192c-.66.66-.784 1.6-.28 2.104l6.115 6.114c.503.504 1.445.38 2.1-.278l2.206-1.872c1.694.98 3.528 1.74 5.467 2.254l.217 2.887c0 .932.58 1.685 1.29 1.685h8.648c.71 0 1.29-.753 1.29-1.684l.227-2.888a22.475 22.475 0 0 0 5.47-2.26l2.193 1.88c.656.658 1.597.782 2.102.278l6.114-6.114c.502-.503.38-1.445-.28-2.104l-1.876-2.195a22.36 22.36 0 0 0 2.262-5.472l2.885-.218c.93 0 1.685-.58 1.685-1.29v-8.65c-.004-.71-.758-1.287-1.688-1.287z"/><path fill="#0084FD" d="M73.25 64.316c0 4.933-4.002 8.93-8.935 8.93a8.93 8.93 0 0 1-8.932-8.93c0-4.938 4-8.935 8.932-8.935a8.933 8.933 0 0 1 8.934 8.936z"/></svg>