<svg xmlns="http://www.w3.org/2000/svg" width="110.643" height="104.617" viewBox="0 0 110.643 104.617"><path fill="#E8CFAC" d="M73.403 3.647a7.172 7.172 0 0 1 7.173 7.173v86.49a7.173 7.173 0 0 1-7.173 7.175H7.173A7.174 7.174 0 0 1 0 97.31V26.104L22.457 3.647h50.946z"/><path opacity=".1" fill="#3C3C3B" d="M0 26.104l19.964-1.742L0 43.94z"/><path fill="#BCA180" d="M15.28 26.104H0L22.457 3.647v15.28a7.175 7.175 0 0 1-7.176 7.177z"/><g fill="#FFF"><path d="M31.632 27.688h41.23v5.024H31.63zM31.632 14.875h41.23v5.022H31.63zM9.574 39.956H72.86v5.022H9.575zM9.574 52.128H72.86v5.02H9.575zM9.574 65.038H72.86v5.022H9.575zM9.574 77.21H72.86v5.02H9.575zM9.574 88.927H72.86v5.022H9.575z"/></g><path opacity=".1" fill="#010000" d="M7.174 104.36h66.23c3.96 0 7.317-3.087 7.317-7.05V10.82c0-3.962-3.355-7.46-7.317-7.46H43.365L.72 50.3v47.01c0 3.963 2.49 7.05 6.454 7.05z"/><path fill="#562908" d="M88.72 15.36H84.1s.717-4.112 5.362-11.965c2.654 4.535 5.365-.687 5.365-.687L97.15 4.69l1.547 10.668h-.977v2h.977L97.15 27.786l-2.323 1.78s-2.71-5.053-5.365-.52C84.817 21.197 84.1 17.36 84.1 17.36h4.62v-2z"/><path fill="#875431" d="M94.717 30.523a2.653 2.653 0 0 0 2.653 2.654h10.617a2.656 2.656 0 0 0 2.655-2.654V2.653A2.655 2.655 0 0 0 107.987 0H97.37a2.653 2.653 0 0 0-2.652 2.654v27.87z"/><path fill="#562908" d="M65.72 15.36h5.11s-.72-4.112-5.365-11.965c-2.655 4.535-5.363-.687-5.363-.687L57.78 4.69l-1.55 10.67h1.49v2h-1.49l1.548 10.427 2.323 1.78s2.71-5.053 5.364-.52c4.645-7.852 5.364-11.688 5.364-11.688H65.72v-2z"/><path fill-rule="evenodd" clip-rule="evenodd" fill="#562908" d="M86.615 97.095a7.525 7.525 0 0 1-7.528 7.522H75.84a7.522 7.522 0 0 1-7.525-7.522v-48.89c0-4.16 3.366-5.855 7.524-5.855h3.247c4.16 0 7.528 1.694 7.528 5.854v48.89z"/><path fill-rule="evenodd" clip-rule="evenodd" fill="#D3A30B" d="M73.073 29.86v14.488c0 1.98 1.966 1.91 4.393 1.91 2.42 0 4.385.07 4.385-1.91V29.86h-8.777z"/><path opacity=".2" fill="#FFF" d="M83.615 95.95c0 1.033-.79 1.865-1.765 1.865-.974 0-1.765-.832-1.765-1.864V52.166c0-1.03.792-1.864 1.765-1.864.974 0 1.765.835 1.765 1.865V95.95z"/><path fill="#FFCE12" d="M65.52 3.317h23.888V29.86H65.52z"/><path opacity=".1" fill="#010000" d="M65.52 25.038h23.888v4.822H65.52z"/><path opacity=".3" fill="#FFF" d="M65.52 7.25h23.888v4.82H65.52z"/><path fill="#875431" d="M60.212 30.523a2.654 2.654 0 0 1-2.654 2.654H46.94a2.654 2.654 0 0 1-2.654-2.654V2.653A2.655 2.655 0 0 1 46.94 0h10.617a2.654 2.654 0 0 1 2.654 2.654v27.87z"/></svg>