<svg xmlns="http://www.w3.org/2000/svg" width="145.237" height="173.247" viewBox="0 0 145.237 173.247"><path fill="#76D9FC" d="M145.237 2.826A119.74 119.74 0 0 0 119.342 0C53.435 0 0 53.428 0 119.334c0 19.402 4.635 37.72 12.85 53.913h132.387V2.827z"/><path fill-rule="evenodd" clip-rule="evenodd" fill="#00A936" d="M42.31 142.658c-.654-.273-1.562-.456-2.17-.535-.805-.094-1.4-.13-1.946 0-1.625.48-1.733 2.176 2.673 4.825 1.184 1.575 3.326 3.006 5.354 2.222 1.18-3.346-1.273-5.385-3.91-6.295 0-.217.023-.15 0-.217zM60.76 108.86c.19.172.316.45.487.48h.252c1.19.336 2.34-.86 1.442-.94-.353-.064-1.04.03-2.18.46zM88.402 98.44c-1.89.32-2.344 1.59 1.715 4.376.502-.14 3.996-.922 1.947 1.19 6.304-3.763-.44-6.136-3.662-5.567zM88.402 71.487c6.792-2.764 8.36-20.65.27-20.125-.526 0-1.05.263-1.714.51 3.386 6.242-4.424 14.183 1.444 19.615zM105.646 39.735c1.958-.91 2.9-4.166 0-4.166-.52-.137-.917-.28-1.44-.248-.525.017-1.05.205-1.434.247-5.726 1.14-3.984 10.64 2.874 4.165z"/><path fill-rule="evenodd" clip-rule="evenodd" fill="#00A936" d="M113.673 37.515c-8.29 1.046-16.654 9.05-8.943 16.977 5.52 6.895-7.968 20.957 4.833 24.566 5.083-11.37 18.986-20.374 15.547-34.234-1.438-5.907-6.44-7.943-11.437-7.31z"/><path fill="#00A936" d="M30.46 164.188c2.287 2.866 3.044 5.926 3.156 9.06h28.767c-11.99-8.582-34.58-3.626-34.144-23.123 1.174-9.805-6.7-14.54-12.606-19.154-4.54-15.17 23.135-20.754 23.537-4.128 9.114-.48 12.308-16.372 22.833-18.674 5.42-4.702 20.083.355 14.78-9.25 5.243-4.984 20.626-4.81 13.097-16.47-2.52-11.365-16.493-16.854-21.086-3.92-12.64 3.397-7.546-24.035 5.323-20.38 9.33.538 8.057-7.573 2.4-10.178 0-.397-.12-.615-.475-.26-1.03-.388-2.12-.79-3.39-.726-12.618-6.97 12.62-24.736-4.096-30.362C50.213 32.29 22.23 56.945 11.033 79.98c-5.058 14.443-4.214 28.987-3.626 44.177 5.135 14.713 15.113 26.848 23.053 40.03zM145.237 3.605A120.102 120.102 0 0 0 118.77.66c-3.242 0-6.534.2-9.732.46-1.658.358-3.488.57-5.356.746a24.18 24.18 0 0 0-1.914.245c-6.7.94-13.095 2.11-19.387 4.102 16.408-1.203 33.25-.774 48.047 6.568 1.936 6.225 8.656 6.344 14.81 6.585V3.605z"/><g opacity=".2" fill="#010000"><path d="M5.803 82.557c-.03.09-.053.15-.075.23 1.1-.06 2.082-.14 2.082-.23H5.803z"/><path d="M145.237 163.46c-7.947.174-16.14.265-24.46.265v-42.832h24.46v-3.608h-24.46V74.122c8.32.017 16.514.117 24.46.292v-3.63c-7.933-.17-16.123-.268-24.46-.287V30.034c8.375.03 16.562.32 24.46.83v-3.63c-7.904-.5-16.103-.796-24.46-.822V2.604c8.853.927 17.31 8.84 24.46 22.693V18.03c-3.897-6.315-8.14-11.142-12.62-14.36a82.64 82.64 0 0 1 12.62 3.195V3.067c-.786-.253-1.57-.51-2.365-.74A119.713 119.713 0 0 0 119.342 0c-8.944 0-17.656 1.02-26.053 2.88C76.225 8.26 60.897 18.858 48.63 33.167c-.963.23-1.927.448-2.858.676-4.504 1.1-9.28 2.472-13.71 4.134a123.525 123.525 0 0 0-5.56 6.398C31.055 42 37.273 39.75 44.87 37.79c-8.31 10.782-15.003 23.363-19.607 37.225-4.208.558-7.8 1.16-10.74 1.79-3.438.74-5.91 1.5-7.564 2.375-.346.94-.662 1.88-.962 2.817 3.375-.78 9.343-1.942 18.07-3.176-3.615 12.045-5.674 24.98-5.86 38.464H.065c-.023.673-.066 1.35-.066 2.05 0 .52.037 1.035.043 1.56h18.16c.138 13.33 2.11 26.146 5.61 38.117-14.062-2.006-15.907-3.843-16.097-4.104a.795.795 0 0 1 .094.387H5.527a108.13 108.13 0 0 0 1.094 3.223c1.65.938 4.224 1.756 7.904 2.54 2.89.62 6.374 1.208 10.478 1.757a132.34 132.34 0 0 0 3.892 10.436h3.857a128.817 128.817 0 0 1-3.84-9.937c3.06.364 6.385.708 9.977 1.03 10.446.956 22.585 1.703 35.78 2.203.38 2.27.8 4.496 1.236 6.702h3.635a230.19 230.19 0 0 1-1.237-6.56c12.275.413 25.405.664 38.912.664v5.896h3.564v-5.896c8.337-.01 16.526-.104 24.46-.274v-3.62zM105.377 3.67C98.854 8.355 92.84 16.45 87.65 27.585c-11.967.924-23.157 2.372-33.108 4.33C68.518 17.055 86.04 6.922 105.376 3.668zM50.528 36.435c10.416-2.297 22.45-4.006 35.458-5.087a86.03 86.03 0 0 0-1.412 3.42c-4.17 10.717-7.46 23.084-9.776 36.543-13.25.5-25.437 1.25-35.92 2.19-3.48.327-6.713.664-9.692 1.018 4.99-14.356 12.298-27.29 21.34-38.084zM41.785 160.98c-5.558-.49-10.2-.972-14.093-1.462-3.697-12.074-5.792-25.076-5.93-38.626h49.128c.078 14.596 1.174 28.77 3.186 42.016-11.782-.467-22.707-1.112-32.29-1.928zm29.106-43.696H21.764c.2-13.695 2.375-26.822 6.185-38.98 3.827-.465 8.395-.945 13.83-1.42 9.604-.818 20.586-1.467 32.425-1.93-2.07 13.323-3.21 27.602-3.313 42.33zm46.32 46.44c-13.695 0-27.043-.244-39.512-.692-2.05-13.23-3.17-27.463-3.248-42.14h42.76v42.833zm0-46.44H74.45c.104-14.79 1.26-29.147 3.387-42.468 12.426-.433 25.734-.684 39.372-.694v43.162zm0-46.786c-13.462.017-26.535.248-38.773.676 2.247-12.918 5.425-24.782 9.46-35.06.68-1.777 1.39-3.457 2.114-5.094a410.55 410.55 0 0 1 27.197-.986v40.464zm0-44.087a395.87 395.87 0 0 0-25.472.882c7.37-15.1 16.214-23.717 25.47-24.688V26.41z"/></g><path opacity=".3" d="M43.264 53.416l-16.76-9.04-12.107 128.87h35.04z"/><g><path fill="#00447D" d="M145.237 15.34H34.257a8.927 8.927 0 0 0-8.93 8.927v148.98h119.91V15.34z"/><path opacity=".2" d="M33.65 15.34h111.587v157.907H33.65z"/><path fill="#005DA3" d="M145.163 173.247V17.205c0-1.437-1.293-2.6-2.89-2.6H38.403c-1.597 0-2.892 1.164-2.892 2.6v156.042h109.653z"/><path opacity=".15" d="M126.836 95.547c.108-.196.202-.4.273-.615.018-.058.025-.12.04-.18.048-.166.096-.333.12-.508.02-.133.013-.27.016-.405.003-.108.02-.212.012-.32a3.773 3.773 0 0 0-.12-.74l-10.07-37.573a3.704 3.704 0 0 0-.266-.7c-.063-.128-.146-.24-.222-.357-.056-.085-.1-.178-.163-.258a3.81 3.81 0 0 0-.388-.415c-.035-.032-.062-.07-.097-.102a3.745 3.745 0 0 0-.543-.395l-.022-.016a3.71 3.71 0 0 0-2.713-.43c-.02.005-.04.004-.06.01h-.002c-.034.01-.07.01-.103.017L99.3 56.108l-22.756.727c-.204.005-.4.042-.59.077l.038.044c-.448.118-.86.32-1.225.585l-5.815-2.228a3.393 3.393 0 0 0-.524-.146l.02.052a3.41 3.41 0 0 0-3.66 2.15L52.102 90.517a3.4 3.4 0 0 0 1.288 4.04l-.05.028c.16.09.314.18.488.243l20.43 7.822c.275.24.727.366 1.27.43.36.075.72.09 1.074.05.394-.002.802-.018 1.208-.04.07.003.14.017.21.015l2.64-.084L95 102.563c.84.093 1.548.14 2.164.153a3.73 3.73 0 0 0 2.79 1.125l-.025.054c.195-.02.39-.046.587-.098l24.02-6.435a3.73 3.73 0 0 0 2.29-1.79.244.244 0 0 0 .01-.023z"/><path fill="#DADADA" d="M68.427 51.274l8.265 23.556a2.915 2.915 0 0 1-1.472 3.848L53.34 90.69c.157.09.312.18.486.244l21.184 8.11a3.407 3.407 0 0 0 4.405-1.966l12.69-33.145c.67-1.76-.21-3.73-1.968-4.403L68.95 51.42a3.393 3.393 0 0 0-.523-.146z"/><path opacity=".3" fill="#1D1D1B" d="M67.214 71.202a2.802 2.802 0 0 0-1.473 3.847l9.18 23.946c1.84.652 3.833-.193 4.495-1.917l12.69-33.146c.663-1.73-.265-3.684-2.067-4.433L67.214 71.203z"/><path fill="#EDEDED" d="M68.29 71.613a2.907 2.907 0 0 0-1.47 3.846l8.285 23.608a3.406 3.406 0 0 0 4.31-1.99l12.69-33.145a3.406 3.406 0 0 0-1.88-4.364L68.29 71.612z"/><path opacity=".3" fill="#1D1D1B" d="M76.994 79.355a2.796 2.796 0 0 0 1.47-3.845l-9.178-23.957c-1.836-.64-3.833.196-4.497 1.924L52.1 86.622c-.66 1.73.268 3.687 2.065 4.43l22.83-11.697z"/><path fill="#EDEDED" d="M75.915 78.942a2.915 2.915 0 0 0 1.472-3.847l-8.285-23.61a3.413 3.413 0 0 0-4.313 1.993L52.1 86.622a3.405 3.405 0 0 0 1.882 4.36l21.933-12.04z"/><path fill="#FF3827" d="M62.725 64.608l2.157 7.904-6.886 4.443c-.2.636.123 1.322.75 1.563l8.19 3.133a1.262 1.262 0 0 0 1.636-.727l.198-.52-7.92-3.035 6.1-4.067-1.827-7.1 7.92 3.035.2-.522a1.268 1.268 0 0 0-.73-1.635l-8.188-3.135c-.63-.24-1.327.06-1.6.665z"/><path opacity=".2" fill="#010005" d="M104.26 96.24c.094-.18 1.37.923 1.433.723.03-.09.04-.188.063-.282.033-.14.072-.276.092-.42.028-.246.033-.496.013-.748l-3.263-38.688c-.022-.254-.07-.5-.136-.735-.027-.093-.07-.175-.105-.264-.052-.14-.1-.28-.166-.41-.06-.113-.14-.212-.205-.317-.064-.092-.116-.193-.183-.28-.106-.132-.23-.247-.35-.363-.048-.046-.088-.098-.137-.14a4.04 4.04 0 0 0-.516-.366c-.018-.012-.035-.024-.054-.04a3.68 3.68 0 0 0-2.037-.49c-.014 0-.025-.002-.04 0-.035.003-.07-.005-.106-.004l-24.727 2.087a3.57 3.57 0 0 0-.586.108l.043.043a3.73 3.73 0 0 0-2.58 3.86l3.26 38.69c.15 1.765 5.006.684 6.688.924l-1.903-1c.197.017 3.648-.164 3.85-.183l18.005-1.054c1.295-.114 4.223 1.785 4.805.722.01-.028-1.172-1.347-1.157-1.37z"/><path fill="#DADADA" d="M75.953 53.02l18.312 20.26a3.18 3.18 0 0 1 .142 4.5L77.422 99.17c.197.027.395.048.597.042l24.803-.792a3.736 3.736 0 0 0 3.61-3.853l-1.238-38.804a3.735 3.735 0 0 0-3.85-3.614l-24.803.79c-.203.006-.4.042-.59.08z"/><path opacity=".3" fill="#1D1D1B" d="M83.167 73.636c-1.276 1.286-1.213 3.3.143 4.5l19.4 20.275c2.13-.127 3.788-1.818 3.724-3.844l-1.24-38.804c-.064-2.027-1.825-3.608-3.96-3.603L83.168 73.635z"/><path fill="#EDEDED" d="M84.426 73.593a3.182 3.182 0 0 0 .143 4.5l18.358 20.31a3.73 3.73 0 0 0 3.506-3.835l-1.24-38.804a3.728 3.728 0 0 0-3.742-3.607L84.426 73.593z"/><path opacity=".3" fill="#1D1D1B" d="M96.483 77.715c1.278-1.286 1.213-3.3-.144-4.502L76.933 52.936c-2.123.126-3.785 1.823-3.72 3.847L74.45 95.59c.067 2.023 1.832 3.605 3.96 3.595l18.073-21.47z"/><path fill="#EDEDED" d="M95.22 77.756a3.182 3.182 0 0 0-.14-4.5L76.72 52.945a3.732 3.732 0 0 0-3.506 3.84l1.235 38.805a3.733 3.733 0 0 0 3.746 3.603L95.22 77.756z"/><path fill="#E20613" d="M75.585 72.08l.077 2.414c.075 2.367 1.94 4.314 5.44 4.204 2.095-.067 3.612-1.088 4.318-2.845l5.956 3.045c.19.1.334-.01.33-.18l-.047-1.498c-.006-.13-.05-.214-.157-.252l-5.835-2.752-.034-1.06 5.745-.18a.152.152 0 0 0 .138-.152l-.042-1.312c0-.126-.066-.165-.17-.162l-15.52.495c-.144.004-.204.093-.2.234zm8.693 1.12l.03.893c.046 1.39-.93 2.776-3.477 2.858-2.646.085-3.77-1.146-3.81-2.437l-.034-1.08 7.292-.233z"/><path opacity=".2" fill-rule="evenodd" clip-rule="evenodd" fill="#010005" d="M114.883 51.255a3.725 3.725 0 0 0-.41-.44c-.028-.024-.047-.054-.076-.077a3.728 3.728 0 0 0-3.317-.837l-.024.004c-.036.01-.068.008-.103.02L86.938 56.36c-.2.05-.38.13-.56.21l.05.032a3.73 3.73 0 0 0-1.862 4.264L95 98.67c6.99.773 5.437-1.526 7.756-1.616l-1.367 1.305c.194-.02 1.056-1.96 1.253-2.012l18.914-4.734c1.016-.273 3.217 2.17 3.692 1.32.008-.02.015-.04.025-.06a3.32 3.32 0 0 0 .256-.58c.028-.078.04-.162.06-.245.04-.147.083-.29.104-.443.02-.158.018-.32.02-.48 0-.082.014-.16.01-.244a3.724 3.724 0 0 0-.122-.743l-10.07-37.572a3.73 3.73 0 0 0-.266-.7c-.07-.144-.16-.268-.248-.397-.047-.07-.083-.148-.135-.215z"/><path fill="#DADADA" d="M87.954 55.314l22.49 15.583a3.19 3.19 0 0 1 1.168 4.36L99.928 100c.196-.02.392-.045.588-.097l24.02-6.436a3.743 3.743 0 0 0 2.64-4.58l-10.07-37.573a3.736 3.736 0 0 0-4.578-2.646l-24.015 6.437c-.197.05-.378.13-.56.21z"/><path opacity=".3" fill="#1D1D1B" d="M99.7 73.78c-.953 1.545-.43 3.493 1.166 4.357l23.56 15.346c2.047-.607 3.276-2.635 2.752-4.596l-10.07-37.572c-.527-1.964-2.604-3.105-4.685-2.608L99.7 73.78z"/><path fill="#EDEDED" d="M100.92 73.45a3.188 3.188 0 0 0 1.168 4.36l22.545 15.62a3.737 3.737 0 0 0 2.545-4.543l-10.07-37.572a3.736 3.736 0 0 0-4.475-2.665l-11.713 24.8z"/><path opacity=".3" fill="#1D1D1B" d="M113.623 74.72c.954-1.55.432-3.498-1.17-4.36l-23.56-15.347c-2.04.61-3.276 2.638-2.75 4.6l10.068 37.57c.528 1.965 2.61 3.104 4.686 2.608l12.727-25.07z"/><path fill="#EDEDED" d="M112.4 75.048a3.192 3.192 0 0 0-1.17-4.362l-22.542-15.62a3.735 3.735 0 0 0-2.546 4.546l10.07 37.57a3.733 3.733 0 0 0 4.474 2.664L112.4 75.048z"/><path fill="#0275BC" d="M96.052 81.604c3.238 3.157 7.573 2.08 9.647.01 3.07-3.067 1.94-7.573.822-9-.74-.947-2-.103-1.31.814 1.36 1.81 1.45 5.443-.983 7.37-2.232 1.77-5.22 1.363-6.906-.073-1.583-1.352-2.752-4.375-1.34-7.24 1.515-3.07 5.558-3.02 6.7-2.377.293.164.216.622-.153.682l-5.503 1.473c-.155.042-.615.28-.477.795l.022.085c.09.33.42.497.773.402h-.003c-.542.932-.742 2.06-.458 3.125.563 2.106 2.93 3.457 5.058 2.89 2.103-.563 3.46-2.91 2.9-5.014a4.054 4.054 0 0 0-1.9-2.47l.39-.116c1.206-.312 1.59-2.092.483-2.928-2.44-1.845-7.145-.736-9 2.318-1.778 2.922-1.24 6.836 1.237 9.254zm7.493-5.7c.374 1.402-.35 2.74-1.943 3.168-1.423.38-2.912-.17-3.34-1.765l-.013-.05c-.37-1.383.25-2.774 1.77-3.265l.312-.087c1.375-.287 2.794.436 3.213 2z"/><path opacity=".1" d="M119.002 41.148H61.674a8.848 8.848 0 0 0 0 17.695h6.923c.704 2.432 2.668 4.185 4.987 4.185h33.505c2.318 0 4.285-1.753 4.986-4.185H119c4.886 0 8.848-3.962 8.848-8.85 0-4.884-3.96-8.845-8.846-8.845z"/><path fill="#00447D" d="M68.318 52.426h44.04v2.22c0 3.396-2.358 6.148-5.268 6.148H73.584c-2.908 0-5.267-2.752-5.267-6.148v-2.22z"/><path opacity=".2" d="M111.486 58.027c.55-.97.87-2.132.87-3.38v-2.22H68.32v2.22c0 1.248.322 2.41.87 3.38h42.298z"/><path fill="#00447D" d="M127.85 47.762A8.848 8.848 0 0 1 119 56.61H61.674a8.848 8.848 0 0 1-8.848-8.848 8.847 8.847 0 0 1 8.848-8.847h57.328c4.885 0 8.847 3.96 8.847 8.847z"/><path fill="#0077BF" d="M132.33 45.192c0 1.85-1.5 3.348-3.348 3.348H51.695c-1.85 0-3.35-1.5-3.35-3.348v-11.44a3.347 3.347 0 0 1 3.35-3.347h77.287c1.85 0 3.347 1.5 3.347 3.347v11.44z"/><path fill="#0064AB" d="M128.504 48.54H52.17v-3.403c0-5.21 4.087-9.43 9.128-9.43h58.076c5.042 0 9.13 4.22 9.13 9.43v3.403z"/><path opacity=".2" fill="#FFF" d="M122.703 40.658c0 .962-.783 1.745-1.744 1.745H59.716a1.743 1.743 0 0 1 0-3.488h61.243c.96 0 1.743.78 1.743 1.743z"/><path opacity=".1" fill="#FFF" d="M121.557 52.426c0 .93-.753 1.68-1.68 1.68h-59.08c-.93 0-1.68-.75-1.68-1.68 0-.93.75-1.683 1.68-1.683h59.08c.927 0 1.68.753 1.68 1.683z"/><g opacity=".7" fill="#00447D"><path d="M45.626 173.247v-54.532a1.182 1.182 0 0 0-2.362 0v54.532h2.362zM55.913 173.247v-39.76a1.183 1.183 0 0 0-2.364 0v39.76h2.363z"/></g><g opacity=".7" fill="#00447D"><path d="M137.57 173.247v-54.532a1.182 1.182 0 0 0-2.364 0v54.532h2.364zM127.283 173.247v-39.76a1.18 1.18 0 0 0-2.363 0v39.76h2.363z"/></g><path fill="#0071C4" stroke="#00447D" stroke-width="2" stroke-miterlimit="10" d="M115.436 152.39c0 1.85-1.5 3.35-3.348 3.35H71.165a3.35 3.35 0 0 1-3.35-3.35V131.93c0-1.848 1.5-3.346 3.35-3.346h40.923a3.348 3.348 0 0 1 3.348 3.346v20.463z"/><path opacity=".2" fill="#FFF" d="M107.81 135.465c0 .924-.75 1.673-1.676 1.673h-29.39a1.675 1.675 0 0 1 0-3.347h29.39c.926 0 1.676.75 1.676 1.675zM107.81 142.16c0 .924-.75 1.674-1.676 1.674h-29.39c-.923 0-1.673-.75-1.673-1.673 0-.922.75-1.674 1.675-1.674h29.39c.924 0 1.674.752 1.674 1.675zM107.81 149.064c0 .925-.75 1.675-1.676 1.675h-29.39a1.675 1.675 0 0 1 0-3.35h29.39c.926 0 1.676.75 1.676 1.674z"/><path opacity=".1" fill="#FFF" d="M140.175 18.687a2.234 2.234 0 0 1-2.232 2.232H42.705a2.233 2.233 0 0 1 0-4.463h95.238c1.23-.002 2.232.998 2.232 2.23z"/><path opacity=".2" d="M27.825 173.247V18.083a8.888 8.888 0 0 0-2.498 6.184v148.98h2.498z"/><path opacity=".1" d="M144.998 173.247V15.413L46.432 173.247z"/></g></svg>