<svg xmlns="http://www.w3.org/2000/svg" width="290.712" height="141.947" viewBox="0 0 290.712 141.947"><circle fill="#FFCB03" cx="16.571" cy="82.912" r="16.571"/><path fill="#1C1B1A" d="M111.895 90.583c0 4.827-2.334 7.165-7.162 7.165H94.15c-4.828 0-7.162-2.338-7.162-7.165V47.625c0-5.76-2.023-9.65-8.715-9.65-6.072 0-11.515 2.49-13.852 4.045v48.567c0 4.824-2.336 7.162-7.162 7.162H46.674c-4.827 0-7.16-2.34-7.16-7.163v-63.51c0-4.82 2.333-7.158 7.16-7.158h3.888c3.428 0 4.83 1.71 7.006 5.606 8.718-5.297 18.523-7.785 27.084-7.785 21.17 0 27.242 11.208 27.242 26.15v46.693zM182.246 67.086h-38.754c-.624 10.114 4.668 13.074 16.81 13.074 10.117 0 14.164-1.403 17.435-2.182 6.223-1.4 9.802 2.334 9.802 7.004v2.957c0 4.2-1.556 6.847-5.602 8.247-3.736 1.246-13.23 3.738-24.905 3.738-25.685 0-38.135-13.075-38.135-41.092 0-28.016 12.296-41.09 36.422-41.09 30.04 0 34.71 20.233 34.087 42.183 0 4.663-2.332 7.16-7.16 7.16zm-38.754-15.26h22.102c1.4-8.557-.468-15.408-9.962-15.408-8.406 0-12.14 5.603-12.14 15.408zM204.506 10.426c0-4.517 1.863-6.228 7.47-7.783L220.07.46c6.537-1.71 9.34 1.56 9.34 6.384v13.074h12.144c4.822 0 7.158 2.334 7.158 7.16v6.38c0 4.827-2.336 7.162-7.158 7.162H229.41v29.727c0 6.074 2.333 9.497 10.272 9.497h1.556c3.582 0 6.693 2.493 6.693 6.538v5.14c0 4.514-3.11 7.158-6.377 7.78-1.56.314-4.05.622-7.007.622-22.103 0-30.04-9.183-30.04-27.55V40.622h-6.07c-4.826 0-7.16-2.334-7.16-7.16v-3.578c0-4.047 1.71-6.07 6.225-7.314l7.007-1.87V10.425z"/><path fill="#707070" d="M76.535 130.465c-.443.57-1.29 1.398-3.004 1.398-.405 0-1.482-.038-2.4-.812a3.04 3.04 0 0 1-.407-.423v4.926h-1.377v-12.27h1.377l.02 1.183c.105-.127.352-.427.704-.692.866-.67 1.91-.756 2.245-.756a3.53 3.53 0 0 1 1.747.475c.867.477 1.997 1.624 1.997 3.975 0 .454 0 1.832-.902 2.997zm-.76-4.45c-.194-.528-.83-1.747-2.49-1.678-.46.018-.935.164-1.308.41-.583.387-1.255 1.234-1.255 2.842 0 1.146.335 1.748.655 2.17.228.28.528.515.865.655.194.087.547.21 1.094.21 1.22 0 1.73-.528 2.032-.956.618-.867.618-1.94.618-2.26 0-.174 0-.81-.21-1.394zM86.02 130.465c-.457.55-1.358 1.398-3.088 1.398-.496 0-1.874-.053-2.88-1.098-.53-.528-1.218-1.534-1.218-3.283 0-1.08.28-2.155.953-3.018.813-1.046 1.89-1.448 3.197-1.448.565 0 1.165.1 1.66.316.972.403 2.384 1.59 2.35 4.118 0 .458-.055 1.868-.973 3.015zm-.97-5.155a2.242 2.242 0 0 0-.51-.637 2.284 2.284 0 0 0-1.522-.53c-2.667 0-2.65 2.915-2.65 3.393 0 .408.053.726.07.846.09.604.513 2.37 2.493 2.352.388 0 1.342-.087 1.978-1.042.53-.795.564-2.087.564-2.26.02-.234.02-1.308-.422-2.122zM97.345 131.6H96.11l-1.997-6.2-2.032 6.2h-1.287l-2.898-8.32h1.518l2.085 6.18 2.05-6.18h1.234l1.963 6.18 2.17-6.18h1.484l-3.055 8.32zM108.564 130.218c-.422.64-1.344 1.646-3.215 1.646-.865 0-1.43-.195-1.75-.336-1.025-.442-2.332-1.57-2.332-4.167 0-1.535.514-2.402.936-2.913.76-.92 1.91-1.43 3.092-1.43.424 0 .92.087 1.307.227.512.175 1.538.67 2.102 1.98.23.545.407 1.217.407 2.47h-6.323c-.02 1.484.69 2.33 1.2 2.685.423.284.972.422 1.5.422.76 0 1.15-.282 1.396-.508a2.45 2.45 0 0 0 .46-.552c.21-.368.3-.773.334-.88l1.432.194c-.07.175-.23.67-.548 1.162zm-1.112-4.357c-.283-1.027-1.167-1.75-2.262-1.75-1.5 0-2.243 1.233-2.367 2.562h4.752c-.034-.425-.07-.62-.123-.81zM114.148 124.69c-.83.142-1.466.708-1.68 1.52-.122.424-.122.725-.122 1.54v3.85h-1.414v-8.32h1.414v1.518c.193-.37.442-.69.777-.95.333-.27.987-.676 2.065-.676v1.52c-.51-.07-.793-.05-1.04 0zM123.298 130.218c-.423.64-1.342 1.646-3.214 1.646-.865 0-1.432-.195-1.747-.336-1.026-.442-2.333-1.57-2.333-4.167 0-1.535.51-2.402.936-2.913.76-.92 1.908-1.43 3.09-1.43.423 0 .92.087 1.31.227.51.175 1.534.67 2.1 1.98.23.545.408 1.217.408 2.47h-6.325c-.018 1.484.69 2.33 1.202 2.685.424.284.97.422 1.5.422.76 0 1.148-.282 1.398-.508.087-.076.3-.286.458-.552.214-.368.302-.773.336-.88l1.433.194c-.075.175-.233.67-.552 1.162zm-1.11-4.357c-.284-1.027-1.168-1.75-2.263-1.75-1.5 0-2.244 1.233-2.367 2.562h4.75c-.032-.425-.07-.62-.12-.81zM131.885 131.6v-1.064c-.424.5-1.2 1.328-2.844 1.328-1.587 0-2.4-.76-2.808-1.253-.476-.568-1.023-1.52-1.023-3.198 0-1.06.193-2.048.846-2.91a3.57 3.57 0 0 1 2.968-1.485c1.184 0 2.015.545 2.367.83.212.177.337.316.496.528v-5.247h1.413V131.6h-1.415zm-.07-5.248c-.283-1.2-1.202-2.033-2.455-2.05-.37 0-1.256.053-1.926.868-.566.67-.707 1.445-.707 2.295 0 .315-.02 1.38.636 2.244.67.865 1.554.9 1.96.9.495 0 .953-.108 1.34-.357.62-.388 1.273-1.23 1.257-2.822a4.61 4.61 0 0 0-.106-1.078zM147.59 130.486c-.493.653-1.023.936-1.307 1.06-.283.122-.83.317-1.642.317-.988 0-1.538-.282-1.906-.496a2.88 2.88 0 0 1-.937-.847v1.08h-1.414v-12.473h1.414v5.3c.07-.108.176-.283.387-.475.655-.654 1.573-.936 2.474-.936.564 0 1.8.087 2.81 1.252.476.564 1.024 1.485 1.024 3.163 0 .46 0 1.87-.902 3.056zm-.988-4.893c-.247-.423-.882-1.29-2.19-1.29-1.006 0-1.572.48-1.838.76-.424.44-.794 1.095-.81 2.402 0 .916.192 1.483.386 1.835.23.46.866 1.363 2.263 1.363.475 0 .953-.106 1.34-.37.585-.39 1.237-1.293 1.237-2.917 0-.263.02-1.057-.388-1.783zM153.175 133.117c-.14.388-.336.957-.53 1.308-.478.936-1.007 1.29-2.066 1.29-.285 0-.69-.02-1.256-.176v-1.274c.194.055.46.142.9.142.123 0 .476.018.776-.18.496-.315.726-1.073.885-1.552l.352-1.026-2.825-8.368h1.5l2.084 6.605 2.207-6.605h1.47l-3.498 9.835zM169.647 119.236h3.327l-4.326 12.485h-3.185l-4.278-12.484h3.326l2.586 8.882 2.55-8.882zM174.018 119.236h9.23v2.41h-6.125v2.27h5.715v2.374h-5.715v2.97h6.66v2.46h-9.766v-12.484zM185.98 119.236h5.624c1.308.014 2.933.038 4.082 1.276.575.644.988 1.633.988 2.766 0 2.52-1.71 3.124-2.562 3.454l2.88 4.99h-3.445l-2.474-4.46h-1.962v4.46h-3.13v-12.486zm3.13 2.332v3.373h2.582c.44-.01 1.877-.052 1.877-1.713 0-1.59-1.152-1.63-1.813-1.658h-2.646zM202.17 119.236v12.485h-3.11v-12.484h3.11zM206.5 127.97c.32.353.588.634 1.204.973.823.437 1.68.59 2.4.59 1.236 0 2.297-.57 2.297-1.444 0-.984-1.248-1.155-2.17-1.272a25.984 25.984 0 0 1-2.047-.322c-.763-.157-3.356-.698-3.356-3.394 0-3.21 2.863-4.162 5.02-4.162 2.883 0 4.432 1.388 5.51 2.367l-2.297 1.637c-.387-.384-.746-.72-1.24-1.004-.44-.255-1.234-.554-2.03-.554-1.234 0-1.86.707-1.86 1.31 0 .96 1.062 1.096 1.592 1.17 1.33.16 3.113.493 3.822.746 1.424.52 2.16 1.64 2.16 3.057 0 .9-.344 1.89-.99 2.647-1.138 1.303-2.932 1.684-4.69 1.684-3.525 0-4.917-1.633-5.694-2.536l2.37-1.494zM220.993 119.236v12.485h-3.11v-12.484h3.11zM232.436 130.548c-.517.48-1.582 1.454-3.684 1.454-3.484 0-5.618-2.833-5.618-6.512 0-4.007 2.594-6.68 6.146-6.68 3.31 0 4.92 2.122 5.503 2.875l-2.373 1.437c-.445-.668-1.168-1.76-2.9-1.76-2.366 0-3.268 1.958-3.268 4.04 0 1.417.39 2.568.99 3.183.47.508 1.33.902 2.277.902.568 0 1.205-.14 1.716-.48.81-.52.912-1.203 1.012-1.853h-2.8v-2.37h5.433v6.938h-2.435v-1.174zM237.432 119.236h3.047l2.714 4.595c.988 1.75 1.295 2.32 1.88 3.412l-.145-8.006h2.98v12.485h-3.054l-2.338-3.958c-1.13-1.846-1.343-2.24-2.188-3.895l.084 7.854h-2.98v-12.484z"/><circle fill="#C9C9C9" cx="274.262" cy="125.495" r="16.45"/><circle fill="#0061A3" cx="274.263" cy="125.495" r="12.742"/><path fill="#FFF" d="M280.266 124.845h-5.855l2.835-4.903h5.854zM271.468 119.942h-5.814l8.61 14.907 2.907-5.035z"/></svg>