<?xml version="1.0" encoding="utf-8"?>
<!-- Generator: Adobe Illustrator 21.1.0, SVG Export Plug-In . SVG Version: 6.00 Build 0)  -->
<svg version="1.1" baseProfile="basic" id="Слой_1"
	 xmlns="http://www.w3.org/2000/svg" xmlns:xlink="http://www.w3.org/1999/xlink" x="0px" y="0px" width="188px" height="96px"
	 viewBox="0 0 188 96" xml:space="preserve">
<path d="M77.4,37.4c0,0,0,0,10.3,0c9.8,0,15.5-5.2,15.5-12.8c0-7.2-5.6-12.8-12.8-12.8H66.2l-5-11.3h30.1
	c13.8,0,24.1,10.4,24.1,24.1c0,10.1-6.1,18.8-15.7,22.2l18.8,23.7H104L77.4,37.4z"/>
<path d="M128.9,0.4c2.2,3.5,4,7.3,5.2,11.3h17.7v58.7h12.1V11.7h22.8V0.4H128.9z"/>
<path d="M28.8,27.6l19.1,42.8h13.3L29.9,0c0,0-8.1,18.2-9.6,21.5C24,20,26.2,21.5,28.8,27.6z"/>
<circle fill="#CC00CC" cx="9.2" cy="61.9" r="9.2"/>
<g>
	<path d="M3.1,89.6v6.3H2.3v-6.3H0v-0.7h5.4v0.7H3.1z"/>
	<path d="M11.1,95.9v-3.4H7.3v3.4H6.5v-7.1h0.9v3h3.8v-3h0.8v7.1H11.1z"/>
	<path d="M18.5,95.9h-4.8v-7.1h4.5v0.7h-3.6v2.3h3.4v0.7h-3.4v2.6h3.9V95.9z"/>
	<path d="M26.5,94.3h-3.3l-0.7,1.6h-0.8l3.1-7.1h0.2l3.1,7.1h-0.9L26.5,94.3z M23.4,93.7h2.8l-1.4-3.2h0L23.4,93.7z"/>
	<path d="M34,91c0,1-0.7,1.9-1.9,2.2l2.3,2.6h-1.1c-0.8-1-1.7-2-2.5-3v-0.1c1.6-0.1,2.3-0.9,2.3-1.7c0-1-0.7-1.6-1.7-1.6h-1.5v6.4
		h-0.9v-7h2.5C32.8,88.8,34,89.6,34,91z"/>
	<path d="M38,89.6v6.3h-0.9v-6.3h-2.3v-0.7h5.4v0.7H38z"/>
	<path d="M47.9,90.7L46,95.9h-0.2l-2.6-7.1H44l1.9,5.1h0l1.9-5.1H48l1.9,5.1h0l1.9-5.1h0.9l-2.7,7.1h-0.2L47.9,90.7L47.9,90.7z"/>
	<path d="M53.1,92.4c0-2,1.6-3.6,3.7-3.6c2.1,0,3.6,1.6,3.6,3.6c0,2-1.5,3.6-3.6,3.6C54.5,96,53.1,94.4,53.1,92.4z M54,92.4
		c0,1.6,1.1,2.9,2.8,2.9c1.7,0,2.8-1.3,2.8-2.9c0-1.6-1.1-2.9-2.8-2.9C55.1,89.5,54,90.7,54,92.4z"/>
	<path d="M66.9,91c0,1-0.7,1.9-1.9,2.2l2.3,2.6h-1.1c-0.8-1-1.7-2-2.5-3v-0.1c1.6-0.1,2.3-0.9,2.3-1.7c0-1-0.7-1.6-1.7-1.6h-1.5v6.4
		h-0.9v-7h2.5C65.6,88.8,66.9,89.6,66.9,91z"/>
	<path d="M69.2,88.8v6.3h3.7v0.7h-4.5v-7.1H69.2z"/>
	<path d="M74,95.9v-7.1h2.4c2.2,0,3.5,1.4,3.5,3.5c0,2.1-1.2,3.6-3.4,3.6H74z M76.4,89.6h-1.6v5.6h1.7c1.7,0,2.5-1.2,2.5-2.8
		C79,90.8,78.2,89.6,76.4,89.6z"/>
	<path d="M81.6,88.6c0.3,0,0.5,0.2,0.5,0.5c0,0.5-0.5,1.4-0.8,1.9L81,90.9l0.4-1.3c-0.2-0.1-0.3-0.3-0.3-0.5
		C81.1,88.9,81.3,88.6,81.6,88.6z"/>
	<path d="M83,94.6c0.8,0.6,1.5,0.7,2.1,0.7c0.9,0,1.7-0.4,1.7-1.2c0-1.9-3.6-1.5-3.6-3.6c0-1.2,1.1-1.8,2.1-1.8
		c0.6,0,1.2,0.1,1.9,0.4V90c-0.6-0.4-1.3-0.5-1.7-0.5c-0.7,0-1.4,0.3-1.4,1.1c0,1.4,3.6,1.2,3.6,3.5c0,1.3-1,2-2.4,2
		c-0.6,0-1.5-0.1-2.2-0.6V94.6z"/>
	<path d="M96.3,95.9h-4.8v-7.1H96v0.7h-3.6v2.3h3.4v0.7h-3.4v2.6h3.9V95.9z"/>
	<path d="M100,92.4l-2.3,3.5h-0.9l2.4-3.6L97,88.8h0.9l2.1,3.3l2.1-3.3h0.9l-2.3,3.4l2.5,3.6h-1C101.5,94.7,100.8,93.6,100,92.4z"/>
	<path d="M109.2,95.5c-0.6,0.3-1.5,0.5-2.1,0.5c-2.3,0-3.6-1.6-3.6-3.6c0-2.1,1.6-3.7,3.7-3.7c0.5,0,1.3,0.1,1.8,0.3v0.8
		c-0.6-0.3-1.2-0.4-1.7-0.4c-1.6,0-2.9,1.1-2.9,3c0,1.7,1,2.9,2.8,2.9c0.6,0,1.3-0.2,2-0.5V95.5z"/>
	<path d="M111.3,88.8v6.3h3.7v0.7h-4.5v-7.1H111.3z"/>
	<path d="M120.7,88.8h0.8v4.4c0,1.6-1,2.7-2.8,2.7c-1.8,0-2.8-1.1-2.8-2.7v-4.4h0.9v4.4c0,1.1,0.6,2,1.9,2c1.3,0,1.9-0.9,1.9-2V88.8
		z"/>
	<path d="M122.8,94.6c0.8,0.6,1.5,0.7,2.1,0.7c0.9,0,1.7-0.4,1.7-1.2c0-1.9-3.6-1.5-3.6-3.6c0-1.2,1.1-1.8,2.1-1.8
		c0.6,0,1.2,0.1,1.9,0.4V90c-0.6-0.4-1.3-0.5-1.7-0.5c-0.7,0-1.4,0.3-1.4,1.1c0,1.4,3.6,1.2,3.6,3.5c0,1.3-1,2-2.4,2
		c-0.6,0-1.5-0.1-2.2-0.6V94.6z"/>
	<path d="M128.8,95.9v-7.1h0.9v7.1H128.8z"/>
	<path d="M133.7,95.9l-3-7.1h0.9c0.3,0.7,0.6,1.4,2.1,5.3h0.1c0.7-1.9,1.4-3.5,2.1-5.3h0.9l-2.9,7.1H133.7z"/>
	<path d="M142.6,95.9h-4.8v-7.1h4.5v0.7h-3.6v2.3h3.4v0.7h-3.4v2.6h3.9V95.9z"/>
	<path d="M146.5,95.9v-7.1h2.4c2.2,0,3.5,1.4,3.5,3.5c0,2.1-1.2,3.6-3.4,3.6H146.5z M148.9,89.6h-1.6v5.6h1.7c1.7,0,2.5-1.2,2.5-2.8
		C151.5,90.8,150.7,89.6,148.9,89.6z"/>
	<path d="M153.6,92.4c0-2,1.6-3.6,3.7-3.6c2.1,0,3.6,1.6,3.6,3.6c0,2-1.5,3.6-3.6,3.6C154.9,96,153.6,94.4,153.6,92.4z M154.5,92.4
		c0,1.6,1.1,2.9,2.8,2.9c1.7,0,2.8-1.3,2.8-2.9c0-1.6-1.1-2.9-2.8-2.9C155.6,89.5,154.5,90.7,154.5,92.4z"/>
	<path d="M165.8,94.4l-2.6-3.4c0,0,0,0,0,0v4.9h-0.8v-7.1h0.2c1.1,1.5,2.2,3,3.3,4.5c1.1-1.5,2.2-3,3.3-4.5h0.2v7.1h-0.8
		c0-1.7,0-3.3,0-5l0,0l-2.6,3.5H165.8z"/>
	<path d="M175.2,94.3h-3.3l-0.7,1.6h-0.8l3.1-7.1h0.2l3.1,7.1h-0.9L175.2,94.3z M172.2,93.7h2.8l-1.4-3.2h0L172.2,93.7z"/>
	<path d="M177.8,95.9v-7.1h0.9v7.1H177.8z"/>
	<path d="M180.6,95.9v-7.1h0.2l4.9,5.4h0v-5.3h0.8v7.1h-0.2c-1.6-1.8-3.3-3.6-4.9-5.4h0v5.3H180.6z"/>
</g>
<g>
</g>
<g>
</g>
<g>
</g>
<g>
</g>
<g>
</g>
<g>
</g>
<g>
</g>
<g>
</g>
<g>
</g>
<g>
</g>
<g>
</g>
<g>
</g>
<g>
</g>
<g>
</g>
<g>
</g>
</svg>
