<svg xmlns="http://www.w3.org/2000/svg" width="306.304" height="97.836" viewBox="0 0 306.304 97.836"><path fill="#0061A3" d="M101.96 38.894c-3.217 13.505-15.11 24.54-31.182 24.54-18 0-31.823-14.147-31.823-31.824C38.955 14.14 52.562 0 70.35 0 86.1 0 98.85 10.395 101.852 24.966H83.85c-1.928-4.072-5.464-8.36-12.857-8.36-4.176-.212-7.715 1.396-10.285 4.182-2.465 2.784-3.857 6.644-3.857 10.93 0 8.68 5.68 15.107 14.144 15.107 7.394 0 10.93-4.285 12.858-7.93h18.107zM105.51 31.61c0-14.464 10.392-31.5 32.037-31.5 21.644 0 32.036 17.035 32.036 31.606 0 14.572-10.393 31.608-32.036 31.608-21.646 0-32.036-17.037-32.036-31.608v-.106zm17.786.214c0 8.572 6.537 14.894 14.25 14.894 7.716 0 14.25-6.32 14.25-15s-6.534-15-14.25-15c-7.713 0-14.25 6.32-14.25 15v.106zM174.295 2.037h16.607V8.36s1.076-2.143 3.643-4.18C197.12 2.037 201.295 0 207.512 0c4.07 0 9.217 1.074 13.607 5.68 1.288 1.287 2.464 2.894 3.535 4.93 1.18-1.823 2.572-3.643 4.286-5.142C232.48 2.248 237.3 0 243.515 0c4.18 0 10.822.967 15.646 6 5.57 5.896 6.425 9.857 6.425 23.038v32.467H247.8v-31.61c0-2.464 0-5.675-1.177-8.356-1.07-2.788-3.32-4.823-7.932-4.823-4.927 0-7.39 2.25-8.57 4.927-1.285 2.68-1.285 5.682-1.285 7.395v32.466h-17.783v-32.36c0-1.606 0-4.715-1.072-7.396-1.18-2.784-3.324-5.034-7.823-5.034-5.036 0-7.503 2.36-8.788 5.25-1.285 2.89-1.285 6.108-1.285 7.93v31.607h-17.788V2.037z"/><circle fill="#54BFED" cx="13.618" cy="32.114" r="13.618"/><path fill="#707070" d="M119.636 87.156c-.378.48-1.1 1.186-2.56 1.186-.346 0-1.262-.03-2.045-.69a2.552 2.552 0 0 1-.346-.363v4.198h-1.173v-10.46h1.174l.016 1.01c.09-.105.3-.363.6-.59.74-.568 1.628-.645 1.913-.645.723 0 1.247.272 1.488.406.74.407 1.704 1.384 1.704 3.385 0 .392 0 1.565-.768 2.56zm-.648-3.796c-.164-.45-.708-1.487-2.12-1.427-.393.013-.8.136-1.116.345-.496.33-1.067 1.053-1.067 2.424 0 .977.286 1.487.557 1.85.194.24.45.436.736.56.166.073.468.177.935.177 1.038 0 1.475-.45 1.73-.814.526-.737.526-1.655.526-1.926 0-.15 0-.69-.182-1.19zM127.72 87.156c-.392.464-1.16 1.186-2.635 1.186-.42 0-1.595-.043-2.453-.934-.45-.45-1.038-1.307-1.038-2.798 0-.92.24-1.833.814-2.572.69-.887 1.61-1.234 2.722-1.234.482 0 .992.09 1.415.272.828.342 2.03 1.354 2 3.504 0 .393-.043 1.596-.825 2.576zm-.828-4.396a1.923 1.923 0 0 0-.437-.54 1.94 1.94 0 0 0-1.296-.455c-2.273 0-2.26 2.485-2.26 2.89 0 .347.046.62.062.722.077.515.438 2.017 2.123 2.002.33 0 1.144-.076 1.685-.887.452-.68.483-1.78.483-1.927.015-.196.015-1.113-.36-1.806zM137.364 88.12h-1.05l-1.7-5.285-1.73 5.284h-1.1l-2.47-7.09h1.295l1.775 5.268 1.745-5.27h1.053l1.672 5.27 1.85-5.27h1.265l-2.606 7.09zM146.925 86.942c-.36.545-1.146 1.4-2.738 1.4-.738 0-1.22-.165-1.49-.284-.873-.377-1.985-1.34-1.985-3.552 0-1.308.437-2.044.796-2.48a3.418 3.418 0 0 1 2.635-1.222c.362 0 .782.077 1.113.194.437.152 1.31.573 1.79 1.686.196.467.347 1.04.347 2.107h-5.388c-.015 1.265.586 1.986 1.023 2.288.36.242.827.36 1.28.36.645 0 .978-.238 1.19-.434.073-.062.254-.24.39-.467.178-.314.256-.663.283-.75l1.222.164c-.06.152-.196.57-.467.992zm-.946-3.713c-.242-.876-.996-1.492-1.93-1.492-1.278 0-1.91 1.05-2.016 2.182h4.05a3.843 3.843 0 0 0-.105-.69zM151.683 82.234c-.706.12-1.25.602-1.43 1.295-.104.36-.104.617-.104 1.307v3.283h-1.207v-7.09h1.206v1.295c.16-.313.374-.586.66-.81.285-.23.843-.575 1.762-.575v1.295c-.44-.06-.68-.046-.89 0zM159.48 86.942c-.363.545-1.146 1.4-2.74 1.4-.737 0-1.22-.165-1.49-.284-.872-.377-1.985-1.34-1.985-3.552 0-1.308.433-2.044.796-2.48a3.422 3.422 0 0 1 2.635-1.222c.36 0 .783.077 1.114.194a3.01 3.01 0 0 1 1.79 1.686c.195.467.345 1.04.345 2.107h-5.387c-.016 1.265.587 1.986 1.023 2.288.363.242.83.36 1.28.36.647 0 .977-.238 1.188-.434.078-.062.258-.24.392-.467.183-.314.256-.663.287-.75l1.218.164c-.06.152-.195.57-.465.992zm-.948-3.713c-.242-.876-.993-1.492-1.926-1.492-1.28 0-1.914 1.05-2.02 2.182h4.05a3.71 3.71 0 0 0-.104-.69zM166.793 88.12v-.907c-.36.423-1.02 1.13-2.42 1.13-1.354 0-2.05-.647-2.395-1.068-.406-.483-.873-1.293-.873-2.725 0-.903.165-1.744.724-2.48a3.034 3.034 0 0 1 2.527-1.267 3.25 3.25 0 0 1 2.016.71 2.2 2.2 0 0 1 .42.45v-4.47h1.204v10.625h-1.204zm-.06-4.473c-.24-1.023-1.022-1.73-2.09-1.744-.317 0-1.07.043-1.642.738-.48.57-.6 1.233-.6 1.956 0 .27-.016 1.174.54 1.91.572.74 1.323.77 1.672.77.422 0 .812-.09 1.142-.303.526-.33 1.084-1.05 1.07-2.405 0-.137 0-.544-.092-.92zM180.175 87.17a2.8 2.8 0 0 1-1.112.903c-.24.104-.706.27-1.398.27-.843 0-1.31-.24-1.626-.42a2.476 2.476 0 0 1-.8-.722v.92h-1.203V77.494h1.204v4.517c.06-.092.15-.244.332-.407.556-.557 1.338-.8 2.106-.8.48 0 1.534.078 2.393 1.07.408.48.874 1.264.874 2.694 0 .388 0 1.593-.77 2.604zm-.843-4.17c-.21-.358-.75-1.096-1.864-1.096-.858 0-1.34.407-1.565.646-.36.375-.678.93-.692 2.046 0 .782.167 1.265.332 1.564.194.392.736 1.16 1.927 1.16.403 0 .81-.09 1.14-.316.498-.332 1.056-1.098 1.056-2.483-.002-.226.013-.898-.334-1.52zM184.934 89.41c-.122.333-.287.817-.45 1.115-.407.8-.86 1.1-1.763 1.1-.24 0-.586-.017-1.066-.15V90.39c.164.045.392.12.766.12.106 0 .406.013.663-.15.423-.273.616-.918.752-1.326l.304-.874-2.41-7.132h1.278l1.775 5.63 1.883-5.63h1.248l-2.98 8.38zM198.97 77.585h2.83l-3.683 10.638h-2.712l-3.647-10.638h2.834l2.202 7.567 2.175-7.567zM202.692 77.585h7.86v2.054h-5.215v1.934h4.87v2.022h-4.87v2.532h5.674v2.095h-8.318V77.585zM212.884 77.585h4.79c1.115.012 2.503.033 3.48 1.09.49.547.842 1.388.842 2.353 0 2.147-1.46 2.66-2.182 2.942l2.45 4.253h-2.937l-2.104-3.802h-1.672v3.803h-2.667V77.585zm2.668 1.988v2.872h2.2c.373-.008 1.596-.045 1.596-1.46 0-1.357-.98-1.39-1.54-1.412h-2.256zM226.677 77.585v10.638h-2.65V77.585h2.65zM230.37 85.028c.267.297.497.54 1.024.828.7.375 1.43.503 2.04.503 1.058 0 1.962-.488 1.962-1.232 0-.84-1.067-.98-1.852-1.08a24.797 24.797 0 0 1-1.747-.275c-.648-.135-2.854-.596-2.854-2.892 0-2.736 2.433-3.548 4.27-3.548 2.46 0 3.78 1.183 4.7 2.02l-1.962 1.395c-.326-.33-.634-.613-1.055-.857-.375-.217-1.05-.47-1.73-.47-1.052 0-1.584.602-1.584 1.112 0 .82.906.935 1.358 1 1.13.135 2.655.415 3.258.637 1.212.44 1.836 1.394 1.836 2.6 0 .77-.29 1.61-.84 2.26-.972 1.107-2.5 1.432-3.993 1.432-3.007 0-4.192-1.392-4.855-2.16l2.025-1.274zM242.716 77.585v10.638h-2.652V77.585h2.652zM252.462 87.223c-.44.407-1.347 1.238-3.14 1.238-2.966 0-4.784-2.412-4.784-5.546 0-3.413 2.212-5.692 5.237-5.692 2.82 0 4.19 1.806 4.69 2.45l-2.022 1.222c-.38-.565-.996-1.495-2.47-1.495-2.02 0-2.788 1.665-2.788 3.438 0 1.21.335 2.19.846 2.71.4.436 1.132.77 1.942.77.482 0 1.026-.122 1.463-.406.688-.446.778-1.026.86-1.58h-2.387V82.31h4.63v5.913h-2.077v-1zM256.72 77.585h2.6l2.31 3.913a111.497 111.497 0 0 1 1.6 2.91l-.124-6.823h2.543v10.638h-2.602l-1.992-3.373c-.966-1.573-1.146-1.908-1.866-3.32l.075 6.693h-2.545V77.585z"/><circle fill="#C9C9C9" cx="290.379" cy="81.912" r="15.924"/><circle fill="#0061A3" cx="290.38" cy="81.912" r="12.334"/><path fill="#FFF" d="M296.19 81.283h-5.666l2.742-4.746h5.668zM287.675 76.537h-5.628l8.334 14.43 2.815-4.873z"/></svg>