<svg xmlns="http://www.w3.org/2000/svg" width="672.282" height="523.759" viewBox="861.678 -615.546 672.282 523.759"><g fill="#34AAFD"><path d="M1303.88-448.75a8.01 8.01 0 0 1-.79.446c-3.652 1.786-8.98.888-11.663-4.292-4.172-8.058-16.532-33.155-22.416-45.516-2.085-4.382-1.903-9.056.485-12.5 2-2.886 5.167-4.44 8.473-4.155 2.288.198 6.578 1.5 9.597 8.006 6.607 14.237 8.194 17.06 13.452 26.42 2.018 3.592 2.314 7.066.818 9.53-1.074 1.767-2.964 2.78-5.06 2.71-2.782-.09-5.437-2.052-7.1-5.245-4.284-8.23-10.845-22.358-10.91-22.5a1.586 1.586 0 0 1 2.877-1.336c.066.14 6.597 14.205 10.847 22.37 1.126 2.162 2.767 3.484 4.39 3.54.945.03 1.762-.402 2.24-1.187.873-1.437.546-3.802-.873-6.33-5.165-9.192-6.904-12.29-13.563-26.64-1.737-3.745-4.22-5.94-6.99-6.178-2.157-.186-4.247.86-5.592 2.8-1.76 2.535-1.84 5.935-.227 9.327 5.873 12.34 18.208 37.383 22.37 45.42 1.755 3.392 5.145 4.026 7.445 2.9 1.96-.96 3.42-3.34 1.657-7.167-2.352-5.1-2.97-6.256-2.994-6.303a1.592 1.592 0 0 1 .643-2.15 1.584 1.584 0 0 1 2.147.637c.025.045.658 1.218 3.086 6.487 2.348 5.09.595 9.015-2.35 10.904zM1031.582-310.742c-.237.006-.477 0-.71-.02-3.165-.277-6.374-3.026-6.08-7.578.452-7.08 2.294-28.873 3.336-39.523.37-3.776 2.376-6.833 5.364-8.178 2.502-1.127 5.25-.89 7.35.633 1.453 1.055 3.802 3.657 3.2 9.23-1.314 12.2-1.392 14.732-1.644 23.12-.096 3.22-1.298 5.667-3.294 6.715-1.432.75-3.106.667-4.48-.226-1.827-1.184-2.813-3.565-2.64-6.375.446-7.24 1.75-19.35 1.764-19.47a1.242 1.242 0 1 1 2.468.266c-.015.12-1.31 12.174-1.755 19.355-.117 1.902.446 3.45 1.514 4.14.62.402 1.343.442 1.98.108 1.163-.61 1.897-2.326 1.966-4.59.246-8.24.332-11.016 1.656-23.312.348-3.21-.434-5.68-2.19-6.957-1.37-.996-3.19-1.136-4.873-.38-2.202.99-3.628 3.235-3.914 6.158-1.042 10.632-2.878 32.38-3.33 39.44-.19 2.98 1.825 4.77 3.818 4.945 1.7.146 3.638-.858 4-4.133.48-4.363.533-5.387.537-5.43a1.243 1.243 0 0 1 1.296-1.182 1.24 1.24 0 0 1 1.182 1.293c0 .04-.05 1.082-.548 5.59-.482 4.36-3.238 6.282-5.972 6.36zM1227.755-216.77l-28.985-47.407a1.68 1.68 0 0 1 .555-2.305 1.687 1.687 0 0 1 2.305.557l24.285 39.715 3.558-21.61 13.637 8.253c-11.758-26.127-21.72-42.348-24.494-42.612-5.25-.344-17.017 8.052-21.106 11.316a1.676 1.676 0 0 1-2.09-2.62c1.607-1.285 15.93-12.53 23.418-12.04 1.604.104 5.36.352 18.07 25.327 6.09 11.967 11.383 24.033 11.436 24.154l2.122 4.844-18.487-11.188-4.225 25.618zM1348.674-433.63l25.006-43.367a1.51 1.51 0 0 1 2.062-.555c.712.415.97 1.34.553 2.062l-20.95 36.334 18.632-6.503-.648 14.347c15.6-20.565 24.136-35.438 23.147-37.748-1.99-4.303-13.705-9.992-18.05-11.82a1.508 1.508 0 1 1 1.17-2.783c1.71.717 16.782 7.2 19.622 13.334.606 1.315 2.032 4.394-12.246 25.214-6.84 9.977-14.105 19.367-14.18 19.46l-2.916 3.766.88-19.447-22.084 7.708zM1013.05-383.674c2.95-5.46 3.728-10.563 2.31-15.166-1.533-4.98-5.695-9.346-12.027-12.625-3.49-1.847-9.317-2.016-14.4.25a30.052 30.052 0 0 0-1.82-4.663c-2.03-4.127-4.76-7.04-7.893-8.422-3.964-1.75-8.55-1.158-13.63 1.755l-.035.022c-3.653 2.313-7.183 8.815-4.753 15.316-1.39.934-2.314 1.587-2.957 2.04-1.396.987-1.544 1.092-2.676 1.47-.67.224-.872.64-.925.946a1.1 1.1 0 0 0 .383 1.024c.02.02.05.042.074.063 1.138.887 6.48 1.603 9.336.974 1.203 2.124 4.512 5.755 8.488 7.32 2.38.938 4.64 1.027 6.74.276.262 2.812.93 5.41 1.585 7.412a.952.952 0 0 0 1.808-.593c-1.01-3.077-1.504-5.765-1.62-8.12a.91.91 0 0 0-.015-.28c-.24-6.428 2.37-10.29 5.037-12.54 3.956-3.335 11.48-5.163 16.39-2.567 5.874 3.043 9.71 7.02 11.09 11.5 1.263 4.096.536 8.707-2.163 13.7-3.174 5.88-7.06 9.025-11.545 9.35-4.907.356-8.918-2.786-10.094-4.365l-.558-.75-.76.547c-1.407 1.012-3.36 2.392-4.958 3.347.005-1.427.496-4.32.703-5.547.213-1.258.285-1.707.27-1.978a.966.966 0 0 0-1.004-.913.933.933 0 0 0-.894.984c-.006.17-.135.924-.246 1.588-.91 5.374-.957 7.098-.15 7.82.04.033.078.064.118.093.396.282.91.298 1.374.044 1.548-.844 3.58-2.243 5.184-3.385 2.002 2.13 6.23 4.765 11.15 4.41 6.45-.464 10.677-5.878 13.085-10.34zm-33.894-11.433c-1.81.81-3.802.81-5.934-.03-4.06-1.598-7.335-5.684-7.777-7.002l-.332-.986-.953.42c-1.358.596-4.535.374-6.567.012.364-.224.767-.507 1.35-.918.77-.544 1.823-1.29 3.558-2.444l.67-.444-.325-.733c-2.74-6.154 1.123-12.02 3.713-13.67 4.516-2.587 8.516-3.145 11.89-1.66 5.613 2.474 8.11 9.94 8.76 12.235-.824.48-1.62 1.033-2.368 1.663-4.477 3.77-5.756 8.834-5.684 13.558z"/><path d="M994.695-403.78c3.698 4.26 8.21 7.766 11.724 12.194.755.954 2.357-.072 1.597-1.033-3.62-4.562-8.243-8.187-12.054-12.58-.805-.924-2.06.508-1.268 1.42zM992.218-401c3.696 4.26 8.21 7.765 11.72 12.192.76.954 2.36-.072 1.602-1.032-3.62-4.565-8.244-8.19-12.055-12.58-.804-.925-2.06.504-1.267 1.42zM989.12-397.528c3.698 4.26 8.21 7.765 11.723 12.192.756.954 2.358-.072 1.6-1.032-3.622-4.564-8.245-8.188-12.056-12.58-.803-.926-2.06.506-1.266 1.42zM986.376-394.454c2.665 3.093 5.687 5.844 8.21 9.06.75.96 2.354-.067 1.6-1.032-2.63-3.352-5.766-6.225-8.544-9.446-.798-.927-2.055.505-1.266 1.418zM981.145-408.227c-1.736-2.877-4.218-5.2-6.102-7.977-.69-1.015-2.286.018-1.6 1.032 1.887 2.775 4.364 5.1 6.104 7.978.636 1.054 2.23.016 1.598-1.033zM978.646-405.896c-1.737-2.877-4.22-5.2-6.103-7.976-.69-1.015-2.286.018-1.598 1.032 1.885 2.775 4.362 5.1 6.103 7.976.635 1.054 2.23.016 1.598-1.032zM974.555-405.838c-1.238-2.113-2.87-3.93-4.227-5.966-.682-1.022-2.275.013-1.6 1.032 1.355 2.035 2.988 3.853 4.23 5.967.62 1.06 2.217.02 1.597-1.033zM1453.625-122.458a12.26 12.26 0 0 0-4.666-9.654c-5.324-4.222-13.09-3.327-17.313 1.997-4.224 5.323-3.325 13.09 1.997 17.312 3.676 2.917 8.787 3.484 13.018 1.445a2.002 2.002 0 0 0 .935-2.678 2.005 2.005 0 0 0-2.677-.936 8.37 8.37 0 0 1-8.785-.976c-3.59-2.85-4.192-8.087-1.347-11.677 2.85-3.59 8.09-4.195 11.68-1.346a8.272 8.272 0 0 1 3.145 6.513c0 1.108.9 2.004 2.008 2.004a2.002 2.002 0 0 0 2.005-2.005z"/><path d="M1443.843-119.426a.804.804 0 0 0 1.103 1.167 5.83 5.83 0 0 0 1.818-4.77 5.823 5.823 0 0 0-2.067-3.982 5.818 5.818 0 0 0-4.278-1.355 5.87 5.87 0 0 0-5.34 6.346 5.9 5.9 0 0 0 3.75 4.977.804.804 0 0 0 .572-1.5 4.286 4.286 0 0 1-2.723-3.616 4.26 4.26 0 0 1 3.875-4.605 4.255 4.255 0 0 1 4.61 3.878c.11 1.3-.37 2.56-1.322 3.46zM1441.125-165.802a.804.804 0 0 0 .132 1.127l3.928 3.116a.802.802 0 0 0 .996-1.257l-3.928-3.115a.803.803 0 0 0-1.128.13zM990.27-319.09c-.637-.278-1.422-.612-4.632 1.42-1.26-1.208-2.226-1.892-3.856-3.038-.45-.316-.953-.67-1.535-1.086a1.417 1.417 0 0 0-1.424-.13c-5.975 2.785-11.54 7.56-15.98 11.905a1.34 1.34 0 0 0-.51-.196 66.11 66.11 0 0 1-2.076-.43c-4.5-.975-6.356-1.315-7.116.096-.23.427-.463 1.295.57 2.31 1.35 1.328 3.108 2.64 4.126 3.362l-.414.44c-1.352 1.433-2.42 2.563-3.075 3.13a1.416 1.416 0 0 0-.46.78c-.624 2.964 2.314 7.048 2.91 7.837.03.04.068.075.105.114-3.488 3.834-3.867 4.934-3.25 6.008.535.933 3.85 4.732 4.854 5.875.253.29.61.463.994.48.387.02.762-.12 1.04-.382l.225-.21c3.687 2.898 32.377 25.462 37.48 29.734.87.728 2.387 1.47 4.653.86 3.85-1.035 8.465-5.752 11.9-10.084 2.632-3.32 4.576-6.417 4.956-7.457.757-2.08-1.64-5.985-9.218-16.67-2.487-3.506-5.062-7.132-5.473-8.258a1.42 1.42 0 0 0-1.818-.845 1.42 1.42 0 0 0-.842 1.82c.516 1.41 2.547 4.31 5.82 8.922 3.062 4.315 8.734 12.31 8.83 14.146-.92 2.216-9.395 14.205-14.893 15.683-1.186.316-1.765-.02-2.1-.297-4.996-4.183-32.322-25.68-37.193-29.51 5.977-5.494 22.006-19.96 31.092-25.614.838 4.044 4.853 10.874 5.352 11.71a1.417 1.417 0 0 0 2.434-1.45c-1.928-3.237-5.02-9.223-5.104-11.497-.005-.084-.02-.168-.033-.248.237-.115.47-.223.69-.315.225-.093.417-.242.562-.427.146-.184.246-.405.285-.645.084-.48-.09-.97-.45-1.293-3.452-3.093-4.516-4.347-5.025-4.95-.725-.856-.94-.972-2.402-1.606zm-32.163 10.885c.567.116 1.115.236 1.55.33.298.062.587.125.868.186a114 114 0 0 0-.71.735c-.39-.27-1.013-.713-1.708-1.25zm32.407-7.443c.464.547 1.348 1.59 3.753 3.822-9.843 5.424-29.688 23.612-34.59 28.162-1.334-1.54-2.65-3.102-3.252-3.882.415-.667 1.567-2.1 4.446-5.13.5-.527.663-.7.762-.825.48-.607.38-1.475-.22-1.966a1.43 1.43 0 0 0-1.99.188c-.074.088-.28.305-.564.604-.988-1.385-2.184-3.588-2.228-4.88.73-.688 1.692-1.708 2.856-2.942 4.444-4.716 11.8-12.516 19.797-16.504.312.22.6.42.867.61 1.344.944 2.168 1.528 3.092 2.36-1.88 1.362-4.297 3.258-7.446 5.896a374.167 374.167 0 0 0-11.028 9.666 1.417 1.417 0 0 0 1.916 2.09c6.897-6.33 14.92-13.096 19.468-16.244a1.69 1.69 0 0 0 .19-.128c1.387-.95 2.435-1.548 2.993-1.66.852.373.872.397 1.18.762z"/><path d="M969.715-283.47c.256.206 25.697 20.627 28.742 26.357a.57.57 0 0 0 1.005-.53c-3.154-5.936-27.98-25.866-29.037-26.712a.567.567 0 0 0-.797.088c-.22.258-.157.6.087.797zM997.142-284.404a8.662 8.662 0 0 0-3.298-6.824c-3.764-2.982-9.252-2.352-12.234 1.412-2.986 3.762-2.353 9.25 1.41 12.235a8.762 8.762 0 0 0 9.2 1.02 1.42 1.42 0 0 0 .662-1.89 1.42 1.42 0 0 0-1.894-.663 5.917 5.917 0 0 1-6.21-.688 5.883 5.883 0 0 1-.95-8.254 5.88 5.88 0 0 1 8.254-.952 5.86 5.86 0 0 1 2.225 4.604 1.42 1.42 0 0 0 1.417 1.418 1.423 1.423 0 0 0 1.418-1.42z"/><path d="M990.227-282.263a.57.57 0 1 0 .78.824 4.114 4.114 0 0 0 1.284-3.37 4.11 4.11 0 0 0-1.46-2.814 4.115 4.115 0 0 0-3.022-.958 4.145 4.145 0 0 0-3.77 4.483 4.174 4.174 0 0 0 2.647 3.52.566.566 0 1 0 .405-1.06 3.03 3.03 0 0 1-1.925-2.554 3.01 3.01 0 0 1 5.998-.516c.077.92-.263 1.81-.936 2.447zM988.307-315.04a.57.57 0 0 0 .094.795l2.776 2.203a.568.568 0 0 0 .797-.092.568.568 0 0 0-.093-.796l-2.775-2.203a.57.57 0 0 0-.798.092zM979.214-571.36l-1.713 3.668-7.793-3.64a1.257 1.257 0 0 0-1.63.527 395.4 395.4 0 0 0-2.747 5.016c-.355-.15-.746-.294-1.16-.446-.717-.26-1.455-.532-1.932-.83-1.617-1.018-3.504.074-4.63 1.32a1.163 1.163 0 0 0-.206.31l-.438.934c-1.02-.568-3.654-1.83-5.91-1.164-1.136.334-2.02 1.117-2.555 2.262l-11.267 24.124c-.09.19-.13.4-.117.61.008.128.237 3.14 4.138 4.96l25.788 12.045c.103.048.21.082.32.1 1.105.188 3.31-.07 4.55-2.237a1.258 1.258 0 0 0-.467-1.72 1.262 1.262 0 0 0-1.72.468 1.963 1.963 0 0 1-1.812 1.017l-25.594-11.956c-1.928-.9-2.48-2.086-2.634-2.59l11.096-23.754c.23-.492.54-.78.982-.912 1.285-.38 3.33.573 4.13 1.036l-9.006 19.284c-.98 2.1.002 3.99.737 4.774.11.116.24.212.387.28l28.688 13.4c4.615 2.155 5.875-.194 6.004-.47a1.26 1.26 0 0 0-2.198-1.215c-.194.112-1.02.207-2.738-.596l-28.42-13.275c-.213-.31-.56-1.01-.176-1.83l10.424-22.318c.476-.47 1.156-.846 1.3-.754.702.44 1.57.76 2.41 1.065.248.092.555.204.83.312-.932 1.75-1.943 3.678-2.94 5.628-6.997 13.694-6.393 14.944-5.995 15.773.107.224.28.41.493.537 3.19 1.898 30.455 14.456 33.512 15.658.314.124.818.213 1.428-.064.627-.287 1.773-.81 4.826-7.344.942-2.022 2.07-4.622 3.423-7.97 2.742-6.79 5.107-13.483 5.13-13.55a1.263 1.263 0 0 0-.653-1.56l-7.62-3.56 1.393-2.98c.293-.63.02-1.38-.606-1.675l-15.636-7.302a1.26 1.26 0 0 0-1.676.606zm22.042 16.708c-4.174 11.687-9.518 24.438-11.49 26.197-4.154-1.736-27.404-12.443-32.214-15.013.376-2.38 4.517-10.925 9.312-19.875.043-.063.078-.13.106-.2.896-1.668 1.815-3.35 2.735-5.01l6.73 3.143-6.448 13.806a1.256 1.256 0 0 0 .21 1.383c.347.374.882.506 1.36.333l7.764-2.82 6.394 9.634a1.257 1.257 0 0 0 2.19-.162l6.77-14.492 6.582 3.075zm-6.942-8.265l-1.115 2.387a1.227 1.227 0 0 0-.555 1.19l-6.074 13.003-5.694-8.59a1.26 1.26 0 0 0-1.48-.488l-5.838 2.122 7.407-15.86 13.35 6.236z"/><path d="M963.63-543.69l9.23-19.757a.504.504 0 0 0-.914-.427l-9.228 19.756a.504.504 0 0 0 .913.427zM985.81-532.775a.504.504 0 0 0 .67-.244l4.85-10.38a.504.504 0 0 0-.913-.425l-4.848 10.38a.5.5 0 0 0 .24.67zM975.332-538.226l4.85-10.38a.503.503 0 0 0-.914-.426l-4.85 10.38a.503.503 0 1 0 .914.426zM971.877-539.84l3.61-7.73a.502.502 0 1 0-.91-.427l-3.613 7.73a.504.504 0 0 0 .913.428zM978.748-536.63l3.61-7.73a.506.506 0 0 0-.913-.427l-3.61 7.732a.504.504 0 0 0 .913.426zM967.41-541.925l2.426-5.19a.505.505 0 0 0-.915-.426l-2.425 5.19a.505.505 0 0 0 .914.425zM982.185-535.025l2.425-5.19a.5.5 0 0 0-.244-.67.5.5 0 0 0-.668.243l-2.426 5.19a.505.505 0 0 0 .913.427zM987.957-559.413a3.147 3.147 0 0 0-1.518-4.18 3.15 3.15 0 0 0-4.183 1.518 3.145 3.145 0 1 0 5.7 2.662zm-3.416-1.594a.628.628 0 0 1 .833-.304.627.627 0 1 1-.53 1.133.626.626 0 0 1-.302-.83zM1123.85-513.698c-2.927-2.29-5.742-5.13-8.273-8.673-8.92-12.48-3.674-23.758 4.21-30.152 8.98-7.28 23.31-9.893 31.044-2.588 17.7-7.647 26.32.068 29.904 5.417 2.854 4.257 4.51 9.985 4.548 15.716.027 4.49-.94 8.437-2.65 11.02 3.264 1.517 9.075 4.476 11.054 10.168 1.225 3.528.733 7.493-1.456 11.788-2.703 5.3-6.57 8.38-11.497 9.157-9.993 1.572-21.756-6.894-27.81-12.012-.373-.04-.85-.08-1.293-.118-5.224-.446-17.222-1.472-27.78-9.723zm24.312-39.927c-5.764-4.504-17.11-4.352-26.575 3.323-3.336 2.705-13.46 12.594-3.687 26.27 9.662 13.517 23.946 16.17 31.454 16.975a39.757 39.757 0 0 1-.473-.465 1.428 1.428 0 0 1 .004-2.02 1.426 1.426 0 0 1 2.02 0c.046.046 1.272 1.265 3.288 2.99.227.056.41.122.574.213.348.19.585.5.688.852 5.888 4.85 16.37 12.15 24.834 10.817 4.023-.636 7.097-3.13 9.39-7.63 1.825-3.575 2.262-6.788 1.303-9.55-1.703-4.905-7.397-7.525-10.136-8.785-.476-.218-.867-.4-1.147-.546a1.427 1.427 0 0 1-.313-2.307c3.747-3.525 4.78-15.954-1.025-24.615-3.84-5.73-11.688-11.072-27.264-4-.562.255-1.23.12-1.645-.336-.39-.426-.82-.822-1.288-1.187z"/><path d="M1154.914-510.775c-.127-.1-.237-.22-.325-.36l-10.092-15.868a1.43 1.43 0 0 1 1.595-2.142l5.082 1.434 2.815-12.753a1.426 1.426 0 0 1 1.61-1.104l10.375 1.58a1.425 1.425 0 0 1 1.167 1.772l-3.262 12.544 3.72 1.01a1.43 1.43 0 0 1 .635 2.394l-11.435 11.38a1.428 1.428 0 0 1-1.886.11zm-5.994-14.602l7.127 11.208 8.42-8.38-2.7-.734a1.43 1.43 0 0 1-1.007-1.74l3.22-12.377-7.485-1.14-2.854 12.925a1.425 1.425 0 0 1-1.783 1.067l-2.937-.83zM1454.767-433.166c.396.66 1 1.12 1.678 1.342a3.07 3.07 0 0 0 3.59-4.487c-6.1-10.217-8.514-23.623 3.005-30.606 6.31-3.824 15.493-3.966 19.12 1.924a3.07 3.07 0 0 0 4.22 1.003 3.072 3.072 0 0 0 1.004-4.222c-4.442-7.216-14.384-9.487-23.53-5.92a3 3 0 0 0-.797-.234l-9.27-1.252a3.067 3.067 0 1 0-.823 6.082l2.936.396c-7.312 6.898-11.07 19.328-1.133 35.974z"/><path d="M1464.957-462.95a3.068 3.068 0 0 0-4.22 1.01c-.192.314-4.65 7.78.087 17.67a3.07 3.07 0 0 0 4.092 1.44 3.065 3.065 0 0 0 1.438-4.093c-3.228-6.733-.52-11.58-.374-11.832a3.062 3.062 0 0 0-1.023-4.194zM1297.133-120.02c-.23-.49-.77-.776-1.32-.658-7.29 1.562-22.842 8.33-22.98 8.393a1.184 1.184 0 1 0 .998 2.148c1.104-.512 15.865-6.81 22.478-8.226a1.184 1.184 0 0 0 .823-1.657zM1096.06-473.123c-3.44-3.526-27.98-17.217-41.27-24.508l1.29-2.376a.908.908 0 0 0-.364-1.23l-4.878-2.65a.907.907 0 0 0-1.23.365l-1.283 2.36c-1.08-.585-1.772-.96-1.974-1.068a.907.907 0 1 0-.86 1.598c.432.234 42.183 22.785 48.76 28.31-1.226 2.04-3.142 5.048-5.31 8.397-7.38-5.874-46.522-26.635-48.265-27.56a.91.91 0 0 0-.858 1.6l.008.005c4.597 2.435 10.494 5.6 16.592 8.934-4.79-.225-9.528 2.225-11.97 6.714a12.803 12.803 0 0 0-1.53 6.84l-12.885-7a.907.907 0 1 0-.867 1.594l14.07 7.645a12.94 12.94 0 0 0 3.198 5.968l-21.055-12.574c6.51-11.594 16.168-28.52 17.222-29.614a.908.908 0 1 0-1.238-1.326c-1.42 1.325-15.24 25.91-17.998 30.823a.908.908 0 0 0 .326 1.224l50.784 30.327.033.02c.407.222.923.098 1.187-.293.16-.24 16.188-24.123 20.494-31.432a.912.912 0 0 0-.13-1.095zm-45.29-28.735l3.282 1.784-.854 1.572-3.277-1.79.85-1.566zm-4.73 28.493c2.922-5.374 9.67-7.37 15.046-4.45 5.375 2.92 7.37 9.67 4.45 15.044-2.92 5.374-9.67 7.37-15.044 4.45-5.375-2.92-7.37-9.67-4.45-15.045zm28.624 31.04l-22.28-13.304c1.967.54 3.996.6 5.933.21l15.412 8.376c.44.24.99.076 1.228-.364a.906.906 0 0 0-.362-1.23l-13.847-7.524a12.84 12.84 0 0 0 6.382-5.742c2.41-4.433 1.934-9.662-.77-13.546 10.026 5.61 18.934 10.833 21.587 13.053-5.243 8.048-11.523 17.44-13.286 20.073z"/><path d="M1042.42-492.448c.15.163.242.26 10.046 5.586 10.926 5.937 27.32 14.77 27.485 14.86.44.238.99.074 1.23-.365l2.292-4.218a.907.907 0 0 0-.363-1.23l-37.827-20.555a.91.91 0 0 0-1.246.39c-2.373 4.724-2.006 5.116-1.618 5.532zm2.826-3.875l36.197 19.67-1.428 2.624c-3.423-1.845-17.143-9.242-26.686-14.428-6.103-3.314-8.433-4.604-9.28-5.088.2-.6.682-1.704 1.196-2.777zM1082.95-470.297l6.327 3.438c.44.24.99.077 1.23-.364l2.322-4.276a.907.907 0 0 0-.366-1.23l-6.326-3.438a.905.905 0 0 0-1.23.364l-2.323 4.277c-.24.44-.076.99.364 1.23zm3.122-3.844l4.73 2.57-1.457 2.682-4.732-2.57 1.46-2.683zM1053.064-463.052a5.712 5.712 0 0 0 7.74-2.29 5.713 5.713 0 0 0-2.29-7.742 5.714 5.714 0 0 0-7.74 2.29 5.716 5.716 0 0 0 2.29 7.742zm-.695-6.875a3.897 3.897 0 0 1 5.278-1.562 3.9 3.9 0 0 1 1.562 5.28 3.897 3.897 0 0 1-5.28 1.563 3.898 3.898 0 0 1-1.56-5.28zM1332.83-583.32h-14.857a1.64 1.64 0 0 1-1.64-1.64v-12.67c0-.322.093-.622.254-.875a1.638 1.638 0 0 1 .91-2.44l10.048-3.06a1.64 1.64 0 0 1 2.058 1.133l4.808 17.478a1.64 1.64 0 0 1-1.58 2.074zm-13.22-3.278h11.068l-3.79-13.78-7.357 2.238c.055.16.08.332.08.51v11.032zM1248.933-564.968a1.638 1.638 0 0 1-.337-3.242l22.723-4.807a1.638 1.638 0 1 1 .677 3.206l-22.722 4.806a1.58 1.58 0 0 1-.34.037zM1244.615-572.428a1.64 1.64 0 0 1-.393-3.23l59.81-14.825a1.638 1.638 0 1 1 .79 3.18l-59.812 14.827a1.63 1.63 0 0 1-.395.048zM1241.75-582.666a1.64 1.64 0 0 1-.395-3.23l59.812-14.824a1.636 1.636 0 0 1 1.983 1.196c.22.88-.317 1.767-1.195 1.985l-59.812 14.826c-.13.033-.263.048-.394.048zM1393.153-519.83c-.47-.358-.737-.792-.796-1.287-.437-3.67 15.508-80.564 22.686-89.164.67-.803 1.36-1.215 2.115-1.262 6.297-.388 85.767 21.938 94.807 24.486.5.142.895.534 1.033 1.036.347 1.25 1.27 4.565-10.416 47.316-5.728 20.95-11.76 41.346-11.82 41.55a1.49 1.49 0 0 1-1.747 1.033c-9.268-2.01-90.68-19.755-95.862-23.71zm1.812-2.373l-.905 1.188.905-1.188zm22.543-86.363c-.813.672-4.434 5.705-13.212 43.205-4.82 20.59-8.507 39.63-8.93 43.4 6.067 3.085 59.04 15.26 92.927 22.63 8.892-30.132 21.97-77.37 21.906-85.12-34.92-9.828-87.305-24.05-92.692-24.116z"/><path d="M1406.52-540.73a1.493 1.493 0 0 1-.55-1.525c.512-2.19 12.552-53.645 14.105-57.733.593-1.564 1.947-2.38 14.862.413 6.728 1.456 15.983 3.782 27.514 6.912 19.607 5.326 39.28 11.22 39.478 11.28a1.49 1.49 0 0 1 1.02 1.79l-14.43 57.75c-.198.8-1.007 1.286-1.806 1.088l-79.646-19.71a1.487 1.487 0 0 1-.547-.264zm16.176-57.7c-1.613 5.188-9.25 37.332-13.483 55.42l76.77 19 13.724-54.923c-45.067-13.483-72.78-19.988-77.01-19.498zM1393.587-524.842a1.492 1.492 0 0 1 1.624-2.494c5.46 2.99 64.84 17.627 95.476 24.95a1.492 1.492 0 1 1-.694 2.9c-3.634-.866-89.043-21.305-96.215-25.233a1.374 1.374 0 0 1-.19-.122z"/><path d="M1435.2-539.843a1.5 1.5 0 0 1-.58-1.036 1.49 1.49 0 0 1 .776-1.464l36.062-19.417a1.488 1.488 0 0 1 1.278-.065c.414.17.73.52.857.95l9.974 33.226a1.484 1.484 0 0 1-.374 1.484 1.49 1.49 0 0 1-1.482.375l-46.032-13.81a1.525 1.525 0 0 1-.48-.243zm36.063-18.423l-31.277 16.842 39.927 11.978-8.65-28.82zM1412.656-544.033a1.496 1.496 0 0 1-.562-1.468l6.313-32.845a1.495 1.495 0 0 1 1.065-1.156c.546-.152 1.13.017 1.51.438l24.13 26.79c.295.328.433.77.366 1.21a1.49 1.49 0 0 1-.692 1.058l-16.574 10.215a1.49 1.49 0 0 1-1.212.16l-13.868-4.16a1.53 1.53 0 0 1-.476-.243zm8.118-30.802l-5.49 28.573 11.935 3.58 14.478-8.923-20.924-23.23zM1442.312-572.62a8.928 8.928 0 0 1-3.12-9.622 8.83 8.83 0 0 1 4.297-5.27 8.84 8.84 0 0 1 6.768-.688 8.88 8.88 0 0 1 2.838 1.445 8.93 8.93 0 0 1 3.12 9.62 8.837 8.837 0 0 1-4.3 5.27 8.832 8.832 0 0 1-6.766.688 8.758 8.758 0 0 1-2.838-1.444zm8.97-11.76a5.844 5.844 0 0 0-1.886-.96 5.858 5.858 0 0 0-4.493.457 5.863 5.863 0 0 0-2.854 3.5 5.933 5.933 0 0 0 2.07 6.39 5.91 5.91 0 0 0 9.234-3 5.925 5.925 0 0 0-2.073-6.387z"/><path d="M1442.826-538.43a.596.596 0 0 1 .43-1.068l27.513 3.12-29.052-7.17a.595.595 0 0 1 .188-1.175 4050.788 4050.788 0 0 1 24.154 1.874c-1.01-.218-2.106-.456-3.296-.715-7.378-1.607-14.82-3.27-14.896-3.286a.596.596 0 0 1 .113-1.18l22.43-.664-14.06-2.712a.593.593 0 0 1-.48-.59c0-.287.206-.533.49-.583l17.292-3.15a.594.594 0 0 1 .692.478.594.594 0 0 1-.48.695l-14.162 2.582 16.237 3.133a.596.596 0 0 1-.097 1.183l-23.05.684c8.962 1.987 19.492 4.28 23.514 5.048 2.116.255 2.164.41 2.243.677a.608.608 0 0 1-.136.584c-.166.178-.267.285-2.3-.083-4.366-.46-16.453-1.428-27.18-2.244l31.088 7.67c.31.075.5.376.446.687a.6.6 0 0 1-.655.487l-36.693-4.158a.66.66 0 0 1-.294-.123zM1413.666-547.178a.596.596 0 0 1 .065-.992l19.1-11.026-16.88 2.623a.596.596 0 0 1-.387-1.11l12.962-7.4-11.09.442a.596.596 0 0 1-.278-1.138l9.855-4.62a.597.597 0 1 1 .508 1.08l-7.18 3.366 10.577-.422c.274-.01.52.167.6.432a.6.6 0 0 1-.28.683l-12.27 7.01 16.838-2.616a.597.597 0 0 1 .39 1.107l-17.932 10.353a7391.656 7391.656 0 0 1 17.763-4.747c1.233-.326 2.26-.597 2.98-.784.46-.12.8-.208 1.053-.255l.012-.002c.54-.097.68 0 .794.388.038.134.11.583-.516.775-1.477.45-10.64 7.584-16.438 12.27a.602.602 0 0 1-.842-.09.598.598 0 0 1 .092-.84c1.114-.902 8.748-7.052 13.445-10.383a7784.734 7784.734 0 0 0-22.425 5.998.6.6 0 0 1-.516-.103z"/><g><path d="M981.62-475.32a.754.754 0 0 0-.224 1.042c2.328 3.593 5.545 9.262 5.525 10.792-.72 1.207-9.843 5.868-24.11 11.72-.92-1.478-3.592-5.836-6.015-10.475-5.27-10.086-4.834-12.68-4.4-13.326 2.1-3.142 16.14-8.678 21.372-10.545a.754.754 0 0 0-.507-1.42 185.81 185.81 0 0 0-9.905 3.923c-6.902 2.983-11.01 5.408-12.212 7.204-1.733 2.595 1.634 9.724 4.316 14.86 3.002 5.746 6.38 11.066 6.414 11.12.195.308.584.43.92.293.062-.026 6.328-2.59 12.54-5.405a188.793 188.793 0 0 0 6.1-2.88c6.87-3.425 6.94-4.315 6.986-4.89.192-2.465-4.767-10.254-5.76-11.79a.748.748 0 0 0-1.04-.225z"/><path d="M975.646-486.233c-.1.01-.195.04-.287.084-.226.113-.82.41-3.855 6.705-.424.88-2.285 4.78-2.95 6.812-.114.044-.205.163-.284.787-.673.13-2.624-.438-5.827-1.704-.87-.343-1.298-.51-1.56-.568a.75.75 0 0 0-.75.27c-.603.76-3.556 4.668-2.4 6.785.208.385.767 1.407 7.757 3.94.066.023 6.636 2.396 7.387 2.18a.878.878 0 0 0 .132-.05c.27-.134.393-.195 2.062-3.56a320.916 320.916 0 0 0 3.345-6.965c4.83-10.36 4.612-10.992 4.483-11.37-.555-1.62-6.572-3.415-7.254-3.345zm3.983 2.792c-.022.957-.158 2.853-.33 4.87-.62-2.902-.994-4.55-1.237-5.492.523.188 1.067.404 1.566.62zm-1.706 9.396c-.09-2.866-.188-6.615-.213-8.9.41 1.777.98 4.39 1.384 6.31-.35.785-.74 1.648-1.17 2.59zm-.805-10.342c-.032 1.01-.01 3.198.13 8.022l-1.844-7.042a.307.307 0 0 0-.103-.152c.287-.512.526-.91.694-1.14.267.052.663.165 1.122.312zm-2.247 1.616l1.098 10.098c-.795-2.598-1.856-5.963-2.457-7.447a99.9 99.9 0 0 1 1.36-2.65zm-2.438 4.874c.005 1.132.04 2.697.11 4.864-.195-1.583-.393-3.01-.557-3.917.146-.312.293-.63.447-.946zm-2.615 6.336c.053-.42.414-1.396.938-2.633a241.88 241.88 0 0 0-.17 3.96c-.06 1.633-.105 3.273-.143 4.604a200.636 200.636 0 0 0-1.012-5.16c.21-.202.348-.462.387-.77zm-3.502.954l-1.074 4.384c-.262-1.792-.537-3.78-.66-4.917.64.222 1.218.4 1.734.534zm1.836.27c-.03.58-.062 1.306-.09 2.23-.02.555-.033 1.12-.046 1.652-.235-1.22-.512-2.663-.757-3.95.33.05.626.072.894.067zm-4.586-1.17c-.24.562-.59 1.448-1.143 2.85-.186.467-.37.94-.53 1.34-.006-1.346.09-3.576.205-4.75.517.203 1.007.39 1.468.56zm-2.574-.994c.156.06.34.13.527.205-.108.934-.168 2.384-.187 2.93-.06 1.64-.05 2.492-.006 2.948-1.21-.553-2.08-1.042-2.276-1.368-.277-.513.168-2.335 1.944-4.715zm1.047 6.398c.147-.317.47-1.125.944-2.333.307-.78.71-1.795 1.014-2.532.19 1.727.648 4.846.818 5.983a63.73 63.73 0 0 1-2.775-1.118zm3.456 1.373l1.257-5.123.475 2.48c.187.96.37 1.92.515 2.64.074.38.13.662.176.87a95.21 95.21 0 0 1-2.424-.866zm3.09 1.1c-.02-.302.045-4.352.177-6.787.043-.012.088-.023.13-.037.403 1.93.99 5.05 1.41 7.385a91.16 91.16 0 0 1-1.716-.56zm2.396.77c.086-4.075.27-9.964.48-12.936.024-.06.052-.118.08-.178.433 2.844 1.04 8.437 1.362 11.63a.297.297 0 0 0 .244.26c-.36.715-.65 1.268-.838 1.596a24.42 24.42 0 0 1-1.328-.37zm2.506-1.892c-.23-4.702-.49-11.516-.447-14.407.038-.078.077-.155.114-.233.715 1.944 2.018 6.124 2.953 9.247a285.324 285.324 0 0 1-2.62 5.394zm3.557-7.39c-.11.238-.223.475-.333.71l-.858-7.89 1.488 5.678a.296.296 0 0 0 .296.22c-.19.416-.387.84-.593 1.28zm2.855-6.337c.213-2.42.305-3.846.32-4.692.56.268 1.007.524 1.203.727-.103.487-.6 1.808-1.523 3.966z"/></g><path d="M1506.095-297.95a1.48 1.48 0 0 0-2.115-2.02c-18.34 14.04-46.217 35.238-48.408 36.52a1.48 1.48 0 0 0 .828 2.823c.45-.08 1.386-.248 49.38-36.994a1.54 1.54 0 0 0 .315-.33zM1459.39-251.964a1.48 1.48 0 0 0 1.717 1.197c.45-.08 1.386-.248 49.38-36.994a1.48 1.48 0 0 0 .315-.33 1.49 1.49 0 0 0-.04-1.746 1.48 1.48 0 0 0-2.076-.274c-18.338 14.04-46.216 35.24-48.406 36.52a1.474 1.474 0 0 0-.89 1.626zM1465.65-244.336a1.48 1.48 0 0 0 1.72 1.196c.45-.08 1.386-.247 49.38-36.993a1.484 1.484 0 0 0 .275-2.076 1.483 1.483 0 0 0-2.076-.276c-18.34 14.04-46.218 35.24-48.408 36.52-.628.26-1.015.932-.89 1.63zM1471.786-236.523c.143.806.91 1.34 1.717 1.197.45-.08 1.385-.248 49.38-36.994a1.482 1.482 0 0 0 .273-2.076 1.478 1.478 0 0 0-2.073-.274c-18.34 14.04-46.217 35.24-48.407 36.52-.63.26-1.015.93-.89 1.627z"/><g><path d="M1193.053-161.784l.43-.043c8.72-.88 14.062-2.405 14.02-21.803a1.3 1.3 0 0 0-1.108-1.282c-2.322-.342-7.143-.75-13.185-1.178-.276-6.573-2.606-6.76-15.84-7.804a728.966 728.966 0 0 1-11.662-.992c-16.344-1.546-22.838.847-25.407 3.127-1.307 1.163-1.61 2.274-1.682 2.772-.35.188-.61.53-.674.948-.054.35-1.302 8.612-.684 17.697.64 9.377 2.98 15.994 6.966 19.765-7.978-.525-10.133-.664-10.394-.656-.65.02-1.197.518-1.266 1.164a1.3 1.3 0 0 0 .99 1.4c5.047 1.215 9.225 3.61 12.418 7.12 2.39 2.63 3.305 4.94 3.312 4.96.18.474.623.8 1.13.832.19.012 19.048 1.222 31.563 2.245.048.004.095.005.144.004a1.3 1.3 0 0 0 1.254-1.168c.174-1.717 2.46-5.27 15.853-9.772 1.206-.404 2.076-.697 1.876-1.825-.11-.634-.698-1.095-1.342-1.076-.062 0-.184.01-.342.038-.04.004-.098.006-.17.008-1.5.042-7.316-.256-14.866-.703 3.634-2.085 7.667-6.098 8.667-13.777zm-27.59-30.515c4.686.444 8.577.75 11.7.997 6.73.53 10.44.822 12.108 1.674.937.48 1.243 1.13 1.337 3.36-17.127-1.16-41.824-2.403-49.22-2.768.833-1.292 4.943-5.073 24.076-3.26zm-25.106 5.813l3.293.164a.694.694 0 0 0-.106.244c-.062.276-6.116 27.555 12.315 36.233.034.018.073.026.11.038-2.064-.134-4.207-.272-6.396-.416-12.326-4.64-9.924-30.453-9.217-36.26zm11.008 48.187c-.272-.56-.72-1.383-1.373-2.352 5.354.605 23.18 2.572 31.87 2.947-.33.49-.6.99-.783 1.512-11.018-.884-26.133-1.875-29.715-2.107zm32.935-1.94c-8.042 0-35.244-3.13-35.522-3.164a1.29 1.29 0 0 0-.806.173 25.017 25.017 0 0 0-6.046-4.897l4.32.285c14.216.938 35.843 2.365 46.73 2.912-3.213 1.3-6.373 2.858-8.676 4.69zm-6.396-8.16l-.132-.01c-1.524-.096-10.32-.653-21.47-1.377a.77.77 0 0 0 .592-.43.777.777 0 0 0-.373-1.038c-17.29-8.142-11.52-34.21-11.46-34.473a.76.76 0 0 0-.066-.527c14.188.716 50.062 2.595 59.906 3.768-.146 16.913-4.524 17.354-11.68 18.076-.485.05-.98.1-1.488.155-.61.068-1.094.56-1.148 1.174-1.164 12.97-11.515 14.543-12.68 14.68z"/><path d="M1192.09-167.143c.952.24 1.867.35 2.718.325 1.963-.055 3.625-.795 4.942-2.2 3.41-3.644 3.188-10.6 3.178-10.895a1.298 1.298 0 0 0-1.333-1.25l-7.616.21a1.3 1.3 0 0 0-.908.406c-.975 1.03-1.672 5.322-1.964 12.087a1.3 1.3 0 0 0 .982 1.317zm2.777-11.234l5.45-.15c-.11 2.207-.664 5.812-2.465 7.734-1.04 1.114-2.374 1.544-4.098 1.328.294-5.6.823-7.986 1.113-8.912zM1188.65-180.27a.778.778 0 0 0-.587.935c.03.133 2.058 14.396-6.417 22.84a.78.78 0 0 0 1.1 1.106c9.18-9.147 6.866-24.15 6.834-24.29a.775.775 0 0 0-.93-.59z"/></g><g><path d="M1312.256-263.992a2.397 2.397 0 0 1-2.387-2.215c-3.064-40.856-8.922-104.072-12.494-110.77a2.395 2.395 0 0 1 1.692-3.485c12.848-2.284 37.266-4.594 65.32-6.178 21.598-1.22 45.42-1.943 49.953-.81 3.186.796 6.61 4.54 6.92 39.087.158 17.657-.633 35.307-.642 35.482a2.39 2.39 0 0 1-.686 1.57l-39.577 40.214c-.02.023-.046.046-.068.068a2.4 2.4 0 0 1-1.427.64l-66.378 6.382c-.073.01-.15.014-.226.014zm-9.59-112.218c4.75 17.636 10.518 90.53 11.792 107.207l61.797-5.94v-38.044a2.394 2.394 0 0 1 2.437-2.395c12.114.212 31.066.414 37.238.18 1.274-30.28.52-63.978-2.955-67.648-8.113-1.642-80.532 1.928-110.31 6.64zm78.377 65.656v31.938l31.228-31.73c-8.91.125-24.34-.097-31.227-.208z"/><path d="M1316.97-362.144c-1.244 6.01-.504 13.99 7.67 11.42 7.072-2.226 13.03-8.367 18.675-12.922l-4.002-2.33c-.895 4.213-.985 8.965 3.3 11.265 4.057 2.175 9.388-.19 12.986-2.177l-3.52-1.43c4.13 9.877 13.378 1.422 18.84-2.4l-3.518-1.43c4.006 12.005 18.046 2.83 25.223-.485l-3.52-2.704c-1.077 5.294 1.712 5.984 5.57 8.45 2.61 1.666 5.01-2.48 2.417-4.135-1.322-.846-3.76-1.127-3.368-3.043.44-2.157-1.582-3.597-3.518-2.704-3.816 1.764-15.955 10.04-18.188 3.346-.454-1.363-2.184-2.365-3.517-1.432-1.89 1.322-10.188 9.126-11.805 5.26-.598-1.428-2.033-2.248-3.518-1.43-2.2 1.214-4.437 2.21-6.982 2.31-3.405.134-2.725-3.843-2.27-5.99.524-2.464-2.15-3.822-4-2.33-3.76 3.033-7.417 6.172-11.426 8.88-1.963 1.325-4.05 2.59-6.368 3.152-2.192.53-.718-5.062-.55-5.872.63-3.01-3.987-4.295-4.61-1.272zM1318.886-341.077c-1.168 4.644-1.355 9.273-1.362 14.044-.004 2.256 2.536 2.94 4.086 1.69 5.198-4.187 9.394-9.296 14.044-14.044l-4-2.33c-.55 2.11-.728 4.277-1.275 6.385-.638 2.44 2.228 3.84 4 2.33 1.624-1.385 3.478-2.445 5.105-3.832-1.362-.562-2.725-1.128-4.087-1.69.166 1.282.474 2.552.64 3.83.296 2.28 3.076 3.368 4.46 1.208 1.32-2.06 3.55-3.086 5.372-4.623-1.36-.562-2.725-1.128-4.088-1.69-.01 1.744-.114 3.41-.554 5.107-.508 1.977 1.69 3.848 3.52 2.705 3.253-2.037 6.32-4.35 9.574-6.385l-3.518-2.703c-.675 1.926-.72 3.965-1.674 5.812-.862 1.674.218 3.48 2.066 3.603 4.916.323 8.766-2.21 11.907-5.81-1.36-.564-2.724-1.13-4.086-1.693.042 1.417.27 2.522.965 3.762.68 1.214 2.113 1.403 3.275.858 4.522-2.12 8.383-5.302 12.768-7.66-1.2-.69-2.4-1.38-3.602-2.068-.057 5.787-.49 11.53.724 17.234.307 1.437 2.288 2.297 3.518 1.432 6.146-4.324 10.727-10.002 14.903-16.18l-4.377-1.846c-1.136 3.126-1.79 6.346-2.552 9.576-.33 1.4.694 3.173 2.31 3.03 3.737-.33 6.648-2.63 10.213-3.277 3.034-.552 1.746-5.166-1.272-4.618-3.12.566-5.7 2.82-8.938 3.106.77 1.01 1.538 2.02 2.31 3.03.76-3.23 1.415-6.45 2.553-9.577.978-2.686-2.937-3.974-4.377-1.844-3.697 5.472-7.74 10.632-13.185 14.462l3.52 1.432c-1.12-5.254-.606-10.635-.555-15.96.02-1.87-2.032-2.913-3.604-2.068-4.384 2.358-8.243 5.54-12.767 7.66l3.275.86-.312-1.347c-.06-1.957-2.646-3.343-4.087-1.692-2.306 2.64-4.8 4.652-8.523 4.406.69 1.2 1.38 2.4 2.068 3.602 1.155-2.242 1.335-4.615 2.156-6.956.7-1.997-1.8-3.778-3.518-2.704-3.254 2.037-6.32 4.35-9.574 6.384l3.517 2.704c.544-2.114.712-4.204.724-6.382.014-2.227-2.556-2.984-4.087-1.693-2.236 1.887-4.496 3.055-6.12 5.592l4.46 1.207c-.166-1.283-.473-2.553-.638-3.83-.27-2.092-2.386-3.144-4.087-1.692-1.624 1.384-3.48 2.444-5.105 3.83l4 2.33c.55-2.11.73-4.276 1.276-6.386.596-2.29-2.3-4.066-4.002-2.328-4.652 4.748-8.848 9.855-14.044 14.045l4.086 1.693c.007-4.332.13-8.545 1.19-12.77.755-2.995-3.862-4.266-4.614-1.273z"/></g><path d="M1052.832-217.688c-1.87-2.227-5.78-5.482-8.148-5.708-.926-.088-2.51.105-3.482 2.12-1.22-.303-2.4-.235-3.523.216a.953.953 0 0 0-.59.78c-.245 2.3-.632 2.545-1.12 2.857a5.475 5.475 0 0 0-.555.392c-.788.65-2.284 2.687-2.18 4.445.012.155.03.304.065.447.006.028.015.055.022.083a.946.946 0 0 0-.847.45.948.948 0 0 0-.122.332c-1.033 2.018-14.725 19.32-24.17 31.075a.942.942 0 0 0-.72.957.95.95 0 0 0-.076.305l-.938 14.22a.97.97 0 0 0 1.883-.442.97.97 0 0 0-1.86.724.945.945 0 0 0 1.464.565l13.303-6.918c.017-.008.03-.02.045-.028.04-.023.076-.048.11-.075a1.18 1.18 0 0 0 .145-.145c.006-.003.01-.006.013-.01l.54-.695c3.026-3.91 18.358-23.76 22.996-30.585a.942.942 0 0 0 .16-.59c-.008-.146-.026-.29-.043-.432.73.01 2.082-.314 3.095-2.54.856-1.892 2.372-2.123 2.61-2.095a.986.986 0 0 0 1.13-.59c.138-.35.163-.676-.636-2.24a32.934 32.934 0 0 0-1.863-3.15c-1.438-2.152-3.706-5.028-6.36-6.515-.07-.04-.142-.07-.213-.107.472-.887 1.054-.972 1.533-.925 1.46.14 4.965 2.726 6.944 5.124.056.063.117.123.187.17.416.293.626.58.626.848-.003.557-.747 1.255-1.107 1.507a.947.947 0 1 0 1.073 1.562c.195-.135 1.918-1.364 1.93-3.056 0-.617-.228-1.517-1.325-2.334zm-13.932-1.778c.692-.17 1.416-.124 2.187.126-.655.72-1.218 1.45-1.7 2.172a8.717 8.717 0 0 0-.855-.62c.144-.44.27-.984.368-1.678zm-2.28 3.897c.112-.09.23-.167.368-.255.19-.12.37-.246.54-.388.223.13.52.363.868.676-.7 1.285-1.18 2.463-1.545 3.363-.108.27-.225.555-.327.79-.256-.073-.5-.14-.734-.2a.938.938 0 0 0-.43-.69c-.132-.086-.22-.187-.23-.427-.056-.9.946-2.42 1.49-2.87zm-14.98 21.518c8.37-10.608 11.236-14.452 12.175-16.02.508.09 1.273.25 2.157.51.347.325.71.357.925.338.03-.003.055-.015.084-.02 1.115.39 2.32.926 3.38 1.654l-21.96 30.324a11.02 11.02 0 0 0-2.292-1.68c1.576-2.12 5.647-7.597 9.682-13.06 10.545-14.28 10.548-14.46 10.557-14.9a.95.95 0 0 0-1.834-.357c-.78 1.36-12.298 16.94-20.188 27.537-1.055-.352-2.252-.57-3.602-.61 2.286-2.85 6.626-8.28 10.917-13.716zm-13.187 27.78l.17-2.585c.796.145 1.9.48 2.404 1.246l-2.574 1.338zm4.267-2.22c-.888-1.546-2.793-2.086-3.97-2.272l.504-7.645c4.254-.308 6.883 1.34 8.462 3.117.046.07.103.132.167.19a10.638 10.638 0 0 1 1.77 3.006l-6.933 3.606zm8.356-5.036a13.08 13.08 0 0 0-1.385-2.287l22.11-30.534c.674.732 1.188 1.598 1.422 2.618.047.2.083.408.107.62-4.598 6.7-18.406 24.61-22.254 29.584zm28.775-36.18c-1.124.34-2.463 1.246-3.275 3.036-.553 1.217-1.13 1.47-1.36 1.433.04.008.06.018.06.018l-.267.82c-.896-3.354-3.935-5.286-6.683-6.368.09-.21.184-.437.285-.688.3-.736.682-1.67 1.204-2.692 1.548 1.615 3.5 3.893 5.18 6.02.323.413.92.482 1.33.158s.482-.92.157-1.332c-2.48-3.146-4.31-5.218-5.672-6.57a16.684 16.684 0 0 1 2.046-2.577c3.173 2.12 5.99 6.695 6.997 8.74zM1080.894-347.332a.92.92 0 0 0 1.09.717.925.925 0 0 0 .716-1.088c-.687-3.33 9.026-44.336 11.23-47.52a.588.588 0 0 1 .08-.012c.554-.06 1.89.1 3.873.496-4.196 14.687-10.468 43.897-11.368 49.428a.917.917 0 0 0 .44.938c1.22.724 6.77 3.21 11.235 2.85a.92.92 0 0 0 .368-.04c1.613-.19 3.063-.776 4.083-1.994 1.1-1.315 3.108-6.033 5.36-11.918a.94.94 0 0 0 .188-.49c4.83-12.696 10.678-30.435 11.037-31.53a.916.916 0 0 0-.107-.79c3.422 1.395 5.2 2.432 5.655 2.957-.628 1.162-1.688 4.386-3.68 10.505-2.253 6.918-5.056 15.527-7.948 22.793-4.31 10.826-6.617 12.95-7.607 13.25-4.488 1.366-13.907-1.447-18.967-2.957-3.214-.958-3.892-1.135-4.405-.987a.92.92 0 0 0-.637 1.133c.125.45.547.73 1.014.664.412.033 1.98.502 3.502.957 5.615 1.676 15.01 4.48 20.03 2.955 4.767-1.45 10.652-18.44 16.77-37.235 1.603-4.926 3.117-9.58 3.6-10.285.216-.312.6-1.15-.47-2.18-.395-.38-.998-.79-1.768-1.225l2.87-7.205a.924.924 0 0 0-.294-1.067l-5.758-4.472-.793-7.3a.922.922 0 0 0-.514-.728l-.402-.193c.457-1.682 1.65-5.92 2.878-9.045a.928.928 0 0 0-.107-.87.916.916 0 0 0-.784-.386l-7.93.306c-.022 0-.045.003-.064.005a.92.92 0 0 0-.79.678l-1.49 5.563c-1.042-.39-1.487-.464-1.737-.437-.116.012-.19.047-.267.08-.297.137-.787.362-4.22 6.814-1.673-.062-5.645-.084-7.278.968-1.71 1.1-2.06 5.744-2.123 8.228-.746-.08-1.27-.085-1.646-.043-.487.052-.73.18-.916.316-.367.272-.98.726-3.127 8.167-1.205 4.19-2.654 9.782-4.08 15.744-.553 2.293-5.35 22.524-4.74 25.49zm27.377-44.71c.02.03.04.062.065.09l7.603 8.507c-.338 1.01-.7 2.078-1.076 3.195l-11.88-13.29c1.594.416 3.363.915 5.29 1.498zm-8.257-2.235c.033.147.1.29.206.41l13.958 15.62c-.488 1.432-1 2.92-1.527 4.444l-14.114-16.366c.397-1.498.783-2.9 1.15-4.182.105.023.216.05.327.075zm10.583 26.34l-13-15.072a.92.92 0 0 0-.796-.313l-.015.002c.4-1.62.795-3.19 1.184-4.69l13.825 16.034a.957.957 0 0 0 .167.147 610.52 610.52 0 0 1-1.366 3.892zm-1.877 5.237l-12.93-14.988a.878.878 0 0 0-.315-.23c.3-1.25.598-2.484.893-3.697l13.3 15.42a.89.89 0 0 0 .243.195c-.4 1.11-.795 2.212-1.19 3.3zm-1.79 4.86l-12.427-14.407a.88.88 0 0 0-.308-.226l.78-3.342 12.886 14.94c.044.05.093.093.145.132-.362.99-.724 1.96-1.076 2.903zm-2.032 5.266l-12.05-13.973c.278-1.254.567-2.524.86-3.803l12.477 14.468a220.63 220.63 0 0 1-1.287 3.308zm-2.3 5.396l-11.172-12.954c.295-1.35.602-2.747.92-4.175l11.456 13.282c.103.12.23.2.367.254a80.365 80.365 0 0 1-1.57 3.592zm-13.13-3.726l6.73 7.528c-2.938-.27-6.19-1.504-7.757-2.286.208-1.17.563-2.978 1.027-5.242zm9.16 7.482l-8.697-9.724a961.92 961.92 0 0 1 1.008-4.734l10.295 11.934c.154.18.364.282.582.31-.223.394-.42.696-.59.897-.618.743-1.532 1.148-2.598 1.318zm18.85-44.648l-.866 2.614-4.93-5.515c2.555.83 4.694 1.602 6.46 2.293a.918.918 0 0 0-.665.607zm-3.36-29.023l5.866-.226c-1.01 2.803-1.914 5.975-2.358 7.6a150.902 150.902 0 0 0-4.884-2.24l1.375-5.133zm-15.6 13.402c1.076-.693 4.725-.767 6.772-.65.36.02.697-.17.865-.49 1.356-2.56 2.94-5.395 3.598-6.35 1.2.406 4.688 1.98 8.058 3.588.01.006.02.01.03.014l.616.296.78 7.18c.026.248.153.473.352.626l5.52 4.288-2.547 6.397c-3.525-1.68-8.867-3.535-13.627-4.976-3.732-1.132-7.32-2.077-10.104-2.663a54.432 54.432 0 0 0-1.595-.312c.07-3.384.636-6.532 1.284-6.95z"/><g><path d="M1381.17-185.247c1.776-2.85 1.706-4.804 1.08-6.1l-.186-28.728c0-.12-.018-.242-.047-.36-.088-.354-.948-3.498-3.638-4.7-1.628-.727-3.47-.562-5.47.49-4.812 2.53-5.107 4.695-4.713 6.658.016.07.03.137.04.197-.044 1.195 1.108 4.937 3.122 5.508.367.105 1.528.306 2.444-.936-.564 3.98-1.44 9.517-2.342 14.897-6.27-3.67-14.29-8.316-16.807-9.592l-.47-.237c-3.774-1.916-7.665-3.89-10.626-2.41-1.93-1.65-5.005-3.52-8.23-5.48-1.508-.915-3.06-1.857-4.495-2.78-.157-1.605-.888-3.11-2.18-4.486-2.114-2.26-5.148-3.478-5.88-3.75l-12.513-7.386c2.656-2.502 9.42-6.398 11.01-6.043.308.836.05 1.444-.387 2.347-.3.618-.61 1.26-.58 2.022.026.69.354 1.66 1.755 2.34.822.397 1.73.377 2.56-.055 3.17-1.66 4.6-9.595 4.61-9.674l.07-.43c.23-1.366.49-2.914-.592-4.066l-.028-.028c-1.145-1.188-3.063-1.112-4.61-.914-4.073.522-20.946 6.125-25.162 7.537-1.1-1.033-2.39-1.54-3.68-1.416-1.677.155-3.207 1.313-4.556 3.44-2.747 4.334-1.074 7.204.168 8.53.245.26.492.48.724.668-.773 2.11-2.334 6.967-3.432 14.438-.41 2.775.764 5.653 3.486 8.558 6.587 7.024 20.396 12.284 20.98 12.507.49.186 1.043.104 1.46-.218.593-.458 14.547-11.228 15.184-11.73.073-.06.14-.108.194-.15l.086.08c.548.497 1.373 1.247 2.86 2.082.438.247.79.514 1.056.793.843.898.504 1.762.44 1.897-.083.16-.138.335-.16.515-.154 1.242-.913 7.532-.67 9.366.03.23-.017.74-.062 1.236-.21 2.263-.584 6.147 3.095 9.524 3.98 3.66 14.785 10.52 21.56 12.5 4.634 1.353 8.97-4.74 14.458-12.457l.533-.75c1.595.48 5.54 1.565 8.54-3.257zm-3.798-34.25c-.353-1.182-1.286-1.35-1.563-1.373-1.49-.124-2.19 1.304-3.72 4.43a57.84 57.84 0 0 0-.245.5c-.29-.61-.547-1.374-.578-1.726.02-.347-.042-.648-.098-.92-.117-.58-.314-1.553 3.15-3.376 1.135-.597 2.08-.733 2.814-.41 1.064.47 1.692 1.864 1.9 2.525l.168 26.07c-.76-.445-2.588-1.522-4.944-2.905 2.383-14.065 3.433-21.75 3.114-22.816zm-52.908-26.442c1.337-.17 1.852-.048 2.01.01.05.293-.07 1.01-.152 1.5l-.074.457c-.427 2.694-1.688 5.868-2.57 7.03.5-1.035 1.233-2.703.355-4.812-.376-.903-1.14-1.5-2.154-1.69-3.916-.725-12.445 5.467-14.158 7.268-.047.05-.085.105-.124.158l-5.51-3.25c7.783-2.585 19.395-6.283 22.376-6.67zm48.96 61.023c-.742-.226-1.987-.603-2.75.462l-1.04 1.458c-4.02 5.65-8.574 12.055-11.138 11.305-6.276-1.832-16.676-8.434-20.356-11.82-2.552-2.35-2.32-4.953-2.13-7.015.068-.726.125-1.352.05-1.92-.146-1.088.308-5.604.645-8.36.47-1.145.684-3.24-1.047-5.086a7.39 7.39 0 0 0-1.785-1.362 11.477 11.477 0 0 1-2.304-1.683c-1.294-1.176-2.348-1.532-4.2-.062-.543.43-11.593 8.958-14.475 11.182-2.984-1.206-13.797-5.824-19.062-11.438-2.06-2.195-2.967-4.23-2.7-6.044 1.418-9.64 3.66-14.804 3.682-14.85a1.528 1.528 0 0 0-.73-1.98 3.978 3.978 0 0 1-1.027-.79c-1.157-1.236-1.1-2.818.182-4.836.798-1.258 1.604-1.984 2.278-2.05.878-.08 1.647.954 1.69 1.01.018.028.045.05.064.076.025.034.05.073.078.104.01.01.024.017.033.027.087.087.18.165.283.23.007.003.012.01.02.013l23.68 13.975c.086.05.18.094.274.128.03.01 2.966 1.044 4.812 3.013.97 1.034 1.424 2.082 1.39 3.205-.017.528.24 1.025.683 1.315 1.654 1.085 3.476 2.192 5.237 3.263 3.485 2.118 7.09 4.31 8.55 5.865.57.61 1.53.64 2.142.068 1.506-1.413 4.838.277 8.367 2.068l.473.24c4.148 2.1 24.524 14.13 24.73 14.252.148.087.312.15.48.183.006 0 .507.126.83.47.74.79-.143 2.502-.732 3.452-1.834 2.945-3.687 2.384-5.176 1.93z"/><path d="M1325.32-216.46a1.51 1.51 0 0 0-.74-1.004l-22.29-12.495a1.507 1.507 0 0 0-1.192-.122 1.51 1.51 0 0 0-.91.78c-.06.13-1.55 3.19-2.768 6.625-1.88 5.29-2.068 8.342-.612 9.896.98 1.044 13.64 11.898 18.168 8.94 3.074-2.007 9.373-10.445 10.08-11.4a1.53 1.53 0 0 0 .264-1.22zm-12 10.08c-1.248.687-10.173-4.07-14.3-8.472-.73-.972.77-6.31 3.205-11.67l19.36 10.85c-2.31 3.01-6.38 8.063-8.264 9.293zM1370.726-191.89a1.512 1.512 0 0 0-.76-.88l-22.61-11.353a1.658 1.658 0 0 0-.155-.066l-2.13-.786a1.516 1.516 0 0 0-2.002 1.09c-.057.25-1.36 6.094-1.57 8.016l-.01.077c-.597 5.42-.38 8.01.773 9.24.073.08.148.148.228.214.116.1 12.825 9.418 18.14 7.71 4.535-1.457 9.465-11.014 10.014-12.1.18-.362.21-.777.084-1.16zm-11.027 10.372c-2.866.92-13.065-5.354-15.222-7.107-.167-.3-.56-1.598.018-6.842l.01-.077c.12-1.092.705-3.94 1.145-5.99l.42.154 21.156 10.624c-2.006 3.65-5.294 8.522-7.527 9.238zM1299.83-235.654a2.74 2.74 0 0 0-3.863-.125 2.737 2.737 0 0 0-.124 3.864 2.734 2.734 0 1 0 3.988-3.738zm-2.21 2.072a.294.294 0 0 1 .015-.42.293.293 0 0 1 .416.016.296.296 0 1 1-.43.404zM1376.02-190.773a2.445 2.445 0 0 0-3.45-.11 2.447 2.447 0 0 0-.112 3.453 2.444 2.444 0 1 0 3.563-3.343zm-2.207 2.07a.584.584 0 0 1 .853-.8c.22.237.21.608-.025.83a.586.586 0 0 1-.827-.03z"/></g><g><path d="M1128.334-277.65c-1.184-8.54-5.885-16.535-12.266-20.864-4.11-2.79-9.395-4.326-14.875-4.326-10.883 0-19.736 5.677-22.56 14.464-4.552 14.18 1.355 47.508 1.608 48.92.097.53.56.913 1.094.913h.032c15.125-.433 36.797-15.458 43.557-23.497 3.042-3.614 4.284-9.305 3.41-15.61zm-5.108 14.18c-7.118 8.465-27.577 21.684-40.96 22.658-.945-5.643-5.48-34.53-1.516-46.887 1.914-5.96 8.416-12.92 20.443-12.92 5.04 0 9.88 1.4 13.627 3.942 5.88 3.988 10.213 11.396 11.313 19.332.79 5.683-.272 10.74-2.907 13.877z"/><path d="M1102.77-287.632a11.57 11.57 0 0 0-11.042 8.03 11.59 11.59 0 0 0-.56 3.57c0 6.395 5.203 11.6 11.6 11.6a1.11 1.11 0 0 0 0-2.22 9.3 9.3 0 0 1-2.084-.24l11.424-9.958c.022.27.04.543.04.82a9.33 9.33 0 0 1-3.6 7.387 1.112 1.112 0 0 0 1.373 1.748 11.536 11.536 0 0 0 4.45-9.135c0-6.4-5.206-11.602-11.6-11.602zm6.636 4.978l-11.437 6.647c7.034-6.886 8.312-8.243 8.577-8.604a9.45 9.45 0 0 1 2.86 1.956zm-14.117 12.258a9.22 9.22 0 0 1-1.105-1.87l10.048-5.84-8.944 7.71zm-1.9-5.637c0-.35.024-.697.063-1.04l.035-.02a933.416 933.416 0 0 1 8.96-5.197 1564.51 1564.51 0 0 1-8.753 8.595 9.336 9.336 0 0 1-.306-2.338zm9.38-9.38c.723 0 1.422.09 2.098.245-1.445.72-4.453 2.465-11.053 6.34.01-.03.018-.063.026-.093a9.357 9.357 0 0 1 8.93-6.493zm-3.575 18.048a9.405 9.405 0 0 1-2.797-1.805l11.46-5.75-8.663 7.555zm.168-4.783l10.946-9.438a9.31 9.31 0 0 1 1.52 3.185l-12.467 6.252z"/></g><g><path d="M883.728-244.08a1.065 1.065 0 0 1-.353-2.07c.318-.11 7.835-2.752 8.47-2.963a1.064 1.064 0 1 1 .674 2.02c-.62.207-8.36 2.926-8.44 2.953-.116.04-.235.06-.352.06zM898.8-251.422c-1.57.062-2.466 1.26-2.246 2.77.218 1.503 1.91 2.146 3.218 1.77 1.398-.403 2.05-1.74 1.854-3.103-.202-1.403-1.674-2.18-2.967-2.14-1.37.04-1.376 2.17 0 2.13.26-.01.456.01.62.098.12.062.08.04.213.19-.13-.147.104.295.028.084.014.03.055.34.035.125a1.6 1.6 0 0 1-.002.208c.016-.11.01-.104-.02.023-.035.146-.1.197-.236.285a.91.91 0 0 1-.46.09c-.08-.02-.168-.104-.117-.06-.054-.046-.092-.15-.06-.065-.015-.034-.053-.338-.037-.123-.006-.084.005-.125-.026-.053.036-.082.067-.095.026-.067-.053.036.082-.03.176-.033 1.366-.052 1.373-2.183 0-2.13zM919.766-172.106c2.352-.454 3.678-2.693 2.8-4.96-.96-2.486-3.65-3.022-5.894-1.99-2.092.965-2.98 3.51-2.194 5.606.91 2.438 3.433 3.24 5.82 2.803 1.35-.25.776-2.302-.565-2.055-1.338.246-2.562-.125-3.216-1.362-.52-.985-.103-2.242.754-2.873 2.655-1.957 4.987 2.187 1.93 2.776-1.348.26-.776 2.313.566 2.054zM896.54-175.818c-1.37 0-3.26-.507-4.466-2.92-1.94-3.88-18.52-45.174-19.715-48.15-.37-.55-1.77-2.84-1.153-5.067.375-1.346 1.365-2.37 2.95-3.04 4.555-1.934 33.243-11.88 35.346-12.607a6.33 6.33 0 0 1 2.796-.687c1.46 0 3.48.59 4.795 3.397 2.092 4.465 17.01 47.052 17.91 49.63.205.422.99 2.273.26 4.218-.563 1.502-1.853 2.643-3.823 3.39l-5.213 1.974-26.717 9.14c-.353.176-1.54.722-2.972.722zm15.76-70.34a4.22 4.22 0 0 0-1.84.46 1.17 1.17 0 0 1-.18.08c-.308.106-30.73 10.647-35.294 12.583-.97.41-1.53.95-1.727 1.65-.415 1.494.89 3.347.9 3.365.055.07.098.147.13.23.177.44 17.757 44.24 19.688 48.1.588 1.173 1.424 1.743 2.562 1.743 1.08 0 2.025-.504 2.033-.51.056-.028.11-.054.17-.073l26.762-9.156 5.18-1.962c1.376-.52 2.247-1.242 2.586-2.146.474-1.255-.18-2.542-.188-2.555a1.62 1.62 0 0 1-.063-.148c-.158-.45-15.785-45.08-17.852-49.49-.686-1.46-1.624-2.17-2.87-2.17z"/><path d="M897.648-158.534c-1.762 0-4.94-.646-6.472-4.97-.972-2.745-23.843-67.314-25.524-73.766-1.482-5.688-1.248-6.773 1.797-8.305.294-.147.62-.312.978-.506 3.09-1.687 35.02-13.18 37.264-13.987.506-.27 3.082-1.578 5.926-1.578 2.293 0 5.377.86 7.05 4.97 3.055 7.493 26.256 71.97 26.776 73.418.276.668 1.88 5.205-3.9 8.095-5.342 2.67-40.58 15.83-42.08 16.388-.02.01-.047.016-.07.023-.078.02-.77.216-1.746.216zm13.967-100.98c-2.53 0-4.938 1.336-4.963 1.35a.972.972 0 0 1-.164.075c-11.766 4.23-34.646 12.574-37.04 13.88-.382.208-.73.382-1.042.54-1.854.93-1.965.987-.692 5.864 1.66 6.363 25.233 72.92 25.472 73.593.833 2.356 2.335 3.55 4.463 3.55.574 0 1.005-.096 1.115-.124 1.517-.564 36.672-13.702 41.827-16.278 4.363-2.183 2.96-5.22 2.898-5.348a.622.622 0 0 1-.043-.103c-.237-.657-23.697-65.856-26.752-73.356-.998-2.452-2.662-3.642-5.08-3.642z"/><path d="M897.593-154.41a8.21 8.21 0 0 1-2.778-.467c-2.6-.925-4.58-3.158-5.884-6.635-3.764-10.036-26.404-74.04-26.632-74.686-1.19-3.73-1.396-11.46 6.274-14.246a48690.76 48690.76 0 0 1 38.64-13.98c.612-.366 3.394-1.85 6.755-.848 3.223.96 5.89 3.846 7.932 8.574 3.253 7.533 11.978 31.685 18.35 49.318 3.655 10.115 7.105 19.67 7.5 20.427-.02-.032-.183-.33-.57-.458 1.23.41 2.203 4.957 2.263 7.263.106 4.202-1.582 7.108-4.886 8.404-7.08 2.776-18.717 7.96-18.834 8.012a1.064 1.064 0 1 1-.867-1.946c.117-.052 11.798-5.255 18.923-8.05 1.597-.625 2.628-1.72 3.152-3.347 1.1-3.4-.433-7.813-.854-8.587-.355-.44-.834-1.743-2.52-6.354-1.356-3.7-3.19-8.77-5.31-14.64-6.362-17.61-15.075-41.726-18.303-49.2-1.773-4.107-3.98-6.587-6.555-7.367-2.77-.842-5.104.636-5.127.65a.984.984 0 0 1-.223.11s-30.006 10.85-38.74 14.017c-7.684 2.79-5.098 11.21-4.982 11.566.217.614 22.852 64.597 26.607 74.615 1.07 2.854 2.613 4.663 4.59 5.372 2.99 1.075 6.105-.688 6.137-.706a1.11 1.11 0 0 1 .186-.085l18.736-6.482a1.066 1.066 0 0 1 .695 2.013l-18.65 6.45c-.477.264-2.528 1.29-5.027 1.29z"/></g><g><path d="M1260.457-354.99c-.737-3.144-1.946-7.285-3.405-11.66-2.19-6.576-5.396-14.965-7.82-18.918 2.238-.816 3.728-2.013 4.417-3.58 1.167-2.665-.333-5.454-.973-6.645l-.12-.224c-.723-1.384-2.065-3.96-4.023-10.812-.745-2.608-2.036-4.394-3.84-5.306-2.388-1.21-4.756-.36-4.825-.333l-7.902 2.68a5598.304 5598.304 0 0 0-6.38-20.992c-1.965-6.416-3.55-11.53-4.708-15.196-2.43-7.68-2.43-7.68-3.396-7.68-.19 0-.587 0-26.905 7.082a1.112 1.112 0 0 0-.764 1.436l15.273 44.463-1.702.577-5.063-14.38c.08-.99-.307-1.972-1.13-2.797-3.01-3.02-16.31-10.444-16.874-10.76a1.113 1.113 0 0 0-1.645.84l-2.348 19.366c-.004.026 0 .053 0 .08-.003.028 0 .056 0 .084.003.13.023.257.07.377.002.005 0 .01.003.014l5.874 14.337a16782.01 16782.01 0 0 0-19.68 6.687c-3.494 1.195-5.695 2.753-6.546 4.632-.665 1.465-.24 2.59-.188 2.713l1.027-.424 1.043-.387c-.256-.808.537-2.774 5.38-4.43 3.583-1.226 21.87-7.43 39.757-13.496h.005c1.27-.43 2.532-.86 3.79-1.287 17.406-5.902 33.397-11.322 33.74-11.44.02-.005 1.598-.55 3.11.23.61.315 1.14.806 1.59 1.466-5.422 1.79-74.2 24.502-82.222 28.132a1.11 1.11 0 0 0-.557 1.473 1.116 1.116 0 0 0 1.473.556c8.068-3.65 81.51-27.883 82.248-28.127.004-.002.006-.005.01-.006.046.142.094.28.137.43 2.022 7.068 3.436 9.775 4.193 11.23l.132.248c.53.982 1.628 3.025.895 4.697-.542 1.235-2.03 2.172-4.423 2.785l-.032.008c-.003 0-.006 0-.008.002-8.004 2.058-63.868 19.88-71.792 23.944-7.377 3.782-7.997 2.853-10.305-.607-2.6-3.9-4.522-11.322-4.542-11.396a1.113 1.113 0 0 0-2.157.553c.082.32 2.037 7.86 4.85 12.078 1.766 2.65 3.17 4.043 5.45 4.043.563 0 1.19-.094 1.876-.265 1.38 3.142 10.423 23.886 11.478 30.22 1.176 7.052 2.125 7.78 6.038 8.08l.254.02c.22.018.58.025 1.062.025 6.95 0 39.283-1.645 40.75-1.72.235-.013.462-.1.646-.25 2.895-2.35 28.33-23.042 30.12-25.43.454-.608.835-1.704-.417-7.04zm-68.152-89.747c8.955-2.408 21.2-5.68 24.516-6.512 1.57 4.43 8.348 26.616 13.037 42.175l-22.663 7.684-14.89-43.347zm5.012 46.694l-4.77-12.11c1.6-.022 3.218-.703 4.337-1.714l4.394 12.48-3.96 1.344zm-7.443 2.524l-4.57-11.53a6.95 6.95 0 0 0 1.76.246c1.516 0 2.838-.597 3.75-1.677l4.395 11.152c-1.802.61-3.585 1.216-5.336 1.81zm-9.193-29.756c1 .57 2.44 1.396 4.034 2.336-.047.075-.103.144-.13.232-.004.015-.517 1.48-1.65 2-.65.297-1.412.25-2.328-.142-.146-.063-.3-.09-.45-.087l.525-4.34zm-.79 6.53c.742.3 1.46.457 2.142.457.642 0 1.252-.13 1.827-.394 1.722-.788 2.522-2.514 2.762-3.122 3.677 2.21 7.623 4.722 8.994 6.1.613.614.538 1.064.403 1.39-.43 1.035-2.09 1.942-3.55 1.942-.467 0-.87-.092-1.198-.274a1.113 1.113 0 0 0-1.625 1.222c.06.254-.02.876-.486 1.46-.34.428-.98.936-2.096.936-.836 0-1.8-.28-2.86-.83a1.113 1.113 0 0 0-1.604.768c-.412 2.058-1.222 2.058-1.488 2.058-.825 0-1.877-.66-2.504-1.136l1.28-10.575zm-.176 13.69c.45.147.92.25 1.396.25a3.22 3.22 0 0 0 2.307-.966l4.348 10.97c-1.145.39-2.27.772-3.378 1.147l-4.673-11.4zm79.332 55.828c-1.55 1.88-18.255 15.682-29.414 24.752-13.34.68-38.612 1.878-41.162 1.68l-.258-.02c-2.73-.21-3.013-.23-4.013-6.23-1.094-6.554-9.867-26.724-11.55-30.552 1.08-.43 2.304-1 3.72-1.726 6.477-3.32 49.31-17.272 66.042-22.263.163.4.373.918.625 1.544a1.113 1.113 0 0 0 1.445.617c.57-.23.85-.877.617-1.448l-.544-1.347c.958-.28 1.78-.51 2.454-.693 1.86 2.752 4.883 9.915 7.736 18.387 3.45 10.244 4.582 16.225 4.3 17.298z"/><path d="M1179.427-355.53c-.6-1.546-.958-2.483-.96-2.485a1.117 1.117 0 0 0-1.437-.643c-.574.22-.86.863-.643 1.437 0 0 .36.94.964 2.495a1.115 1.115 0 0 0 1.44.634c.575-.224.858-.868.637-1.44zM1183.457-345.404a541.453 541.453 0 0 1-2.036-5.06 1.113 1.113 0 0 0-2.067.824c.626 1.575 1.32 3.3 2.044 5.075a1.112 1.112 0 0 0 2.06-.84zM1185.546-340.372a1.112 1.112 0 1 0-2.05.867 245.6 245.6 0 0 0 2.185 5.03 1.114 1.114 0 1 0 2.034-.91 227.83 227.83 0 0 1-2.168-4.987zM1242.016-340.863a518.78 518.78 0 0 1-4.155 3.536 1.115 1.115 0 0 0 .72 1.964c.253 0 .508-.086.716-.262 1.46-1.23 2.863-2.423 4.173-3.552a1.113 1.113 0 0 0-1.454-1.686zM1250.125-348.117a151.934 151.934 0 0 1-4.004 3.668 1.11 1.11 0 1 0 1.48 1.664 154.51 154.51 0 0 0 4.06-3.72 1.112 1.112 0 1 0-1.535-1.61zM1192.893-327.754c-.81-.067-1.156-.132-1.282-.162-.14-.14-.594-.69-1.58-2.59a1.112 1.112 0 0 0-1.5-.478c-.546.285-.76.955-.476 1.502 1.382 2.662 2.035 3.353 2.64 3.604.26.106.7.23 2.016.34a1.11 1.11 0 1 0 .183-2.216zM1247.953-371.34a1.113 1.113 0 0 0 1.043-1.503 415.31 415.31 0 0 0-1.952-5.116 1.115 1.115 0 0 0-1.44-.633 1.115 1.115 0 0 0-.635 1.44 421.56 421.56 0 0 1 1.942 5.09c.167.447.59.724 1.04.724zM1252.875-358c-.595.16-.946.77-.788 1.363.612 2.29.922 3.956.922 4.956l-.002.095a1.114 1.114 0 0 0 1.088 1.138h.025c.604 0 1.1-.482 1.11-1.09l.003-.145c0-1.21-.325-3.02-.997-5.53a1.114 1.114 0 0 0-1.36-.788zM1248.777-366.95c.658 1.856 1.25 3.585 1.756 5.14a1.114 1.114 0 0 0 2.118-.687 214.935 214.935 0 0 0-1.772-5.196 1.112 1.112 0 0 0-1.42-.676 1.11 1.11 0 0 0-.68 1.42zM1214.632-327.57h-.02c-1.76.028-3.602.053-5.45.068a1.112 1.112 0 0 0 .008 2.226h.01c1.854-.016 3.704-.04 5.47-.068a1.114 1.114 0 0 0-.017-2.226zM1203.714-327.484c-2.034-.004-3.863-.02-5.44-.053a1.13 1.13 0 0 0-1.133 1.092 1.114 1.114 0 0 0 1.093 1.135c1.588.03 3.433.047 5.478.05h.003a1.113 1.113 0 0 0 0-2.224zM1225.48-327.894c-1.128.07-3.003.143-5.42.207a1.114 1.114 0 0 0 .03 2.226h.03c2.44-.066 4.345-.14 5.498-.21a1.115 1.115 0 0 0-.137-2.224zM1233.67-333.83a364.01 364.01 0 0 1-4.23 3.447 1.11 1.11 0 0 0 .696 1.98c.245 0 .49-.08.696-.244a391.04 391.04 0 0 0 4.25-3.467 1.11 1.11 0 0 0 .15-1.566 1.108 1.108 0 0 0-1.563-.15zM1226.492-414.488a1.11 1.11 0 0 0-1.324-.85c-3.656.797-7.795 1.67-8.33 1.735a1.112 1.112 0 0 0 .056 2.224c.14 0 .562 0 8.747-1.785a1.11 1.11 0 0 0 .852-1.323zM1219.345-435.81a1.11 1.11 0 0 0-1.324-.85c-3.656.798-7.792 1.672-8.327 1.737a1.112 1.112 0 0 0 .056 2.224c.14 0 .56 0 8.746-1.787.6-.13.982-.722.85-1.324zM1211.35-439.458c.036.004.07.008.114.008.28 0 .926-.15 4.73-1.367.585-.188.907-.813.722-1.4a1.116 1.116 0 0 0-1.4-.72c-1.75.56-3.746 1.174-4.157 1.265a1.11 1.11 0 0 0-.01 2.214zM1220.15-428.717a1.112 1.112 0 0 0-1.395-.72c-1.753.56-3.75 1.174-4.16 1.264a1.112 1.112 0 0 0 .104 2.22c.28 0 .927-.148 4.73-1.366a1.11 1.11 0 0 0 .72-1.397zM1216.513-418.862c-.062.61.38 1.16.992 1.222.036.003.07.007.115.007.28 0 .926-.15 4.73-1.367.585-.188.907-.814.72-1.4a1.115 1.115 0 0 0-1.397-.72c-1.752.56-3.748 1.175-4.158 1.265a1.113 1.113 0 0 0-1.002.993z"/></g><path d="M1336.406-615.546c2.854 14.438 5.642 29.838 4.887 33.244-.777 1.742-11.327 6.778-45.935 14.604-22.09 4.995-45.43 9.102-53.63 9.476-5.144-13.082-14.39-46.454-17.356-57.324h-3.398c2.78 10.224 12.82 46.68 18.146 59.612a1.64 1.64 0 0 0 1.515 1.015c7.334 0 32.562-4.378 56.237-9.762 46.194-10.504 47.26-15.29 47.607-16.863.85-3.83-1.404-17.062-4.736-34h-3.338zM1234.863-91.79c4.997-3.206 11.9-6.972 20.785-10.346.612-.232.92-.916.688-1.527l-.034-.08a1.18 1.18 0 0 0-1.493-.605c-11.047 4.193-19.053 8.93-24.245 12.56h4.298z"/><g><path d="M1264.067-91.79h2.438c-1.194-5.012-3.494-14.02-5.032-15.977.604-.412 2.226-.917 3.376-1.1 1.53 1.308 2.637 6.138 3.535 10.064.385 1.68.78 3.4 1.214 4.938-.67.688-1.44 1.382-2.3 2.074h6.11c8.313-1.55 26.24-13.883 28.483-15.442a1.183 1.183 0 1 0-1.35-1.944c-8.435 5.867-22.67 14.592-27.968 15.18a1.19 1.19 0 0 0-.1-.597 1.226 1.226 0 0 0-.316-.41 1.178 1.178 0 0 0-.485-.237c-.336-1.266-.652-2.65-.98-4.09-1.017-4.438-1.986-8.673-3.78-10.795 5.352-4.415 21.498-10.04 29.19-11.794 5.113 1.317 6.76 10.397 6.776 10.49a1.184 1.184 0 0 0 2.334-.404c-.038-.224-.53-2.956-1.862-5.82a17.218 17.218 0 0 0-1.76-3c1.995-1.458 3.794-4.44 5.54-7.337.295-.492.58-.967.86-1.417 1.503.472 4.883.825 13.187.162 1.482-.12 2.953-.256 4.323-.396-3.762 1.72-6.978 3.137-8.12 3.54-.8-.52-2.43-1.392-4.613-1.033-.044.006-.083.016-.126.027-2.365.653-3.896 1.712-4.547 3.144-.792 1.74-.01 3.367.246 3.906l.032.066.03.067.032.072c1.52 3.27 4.103 4.487 7.095 3.342 3.023-1.158 3.915-3.313 4.002-4.84a610.89 610.89 0 0 1 8.208-3.487c-4.472 4.026-9.954 9.583-12.032 12.12-2.18-1.065-5.647-1.375-6.43-1.433a1.184 1.184 0 1 0-.175 2.362c1.983.146 5.19.72 6.113 1.538a1.184 1.184 0 0 0 1.803-.28c1.063-1.782 13.245-14.117 17.208-16.522.45-.274 1.494-.908 1.02-1.926l-.03-.062c-.562-1.084-1.51-.718-4.047.265a231.987 231.987 0 0 0-5.473 2.23c-3.9 1.632-7.824 3.338-7.864 3.354-.515.226-.803.78-.687 1.33.003.02.395 2.05-2.467 3.145-1.137.435-2.793.686-4.1-2.125-.008-.02-.02-.04-.027-.06l-.038-.084-.044-.092c-.166-.35-.56-1.17-.226-1.902.34-.743 1.36-1.374 2.96-1.824 1.57-.233 2.672.54 3.145.873l.118.084c.713.48.98.663 16.723-6.752a1.184 1.184 0 0 0-.664-2.243c-13.45 1.84-23.017 1.962-24.16 1.022a1.186 1.186 0 0 0-1.807.225c-.47.73-.954 1.536-1.467 2.386-1.556 2.58-3.47 5.756-5.123 6.793-1.02-.898-2.223-1.58-3.634-1.872a1.185 1.185 0 0 0-.497.006c-7.096 1.576-25.936 7.85-31.254 13.074-1.27.195-4.834.9-5.52 2.75-.273.745-.07 1.543.56 2.192.827.88 2.8 7.725 4.437 14.48zM1227.36-91.79c12.246-7.36 28.882-15.608 29.12-15.728.575-.286.817-.98.548-1.56-.005-.01-.008-.02-.013-.026-.29-.586-1-.827-1.586-.537-1.064.524-20.274 10.052-32.58 17.85h4.51z"/></g><path d="M1448.653-91.79h2.253c-11.372-11.56-33.895-29.645-35.084-30.598a.802.802 0 0 0-1.128.125c-.307.365-.22.85.125 1.127.282.226 22.115 17.754 33.833 29.347z"/><g><path d="M1398.012-151.423a94.14 94.14 0 0 1-.586.62c-1.912 2.03-3.424 3.63-4.352 4.432-.332.287-.56.674-.65 1.105-.882 4.19 3.275 9.97 4.116 11.085.047.06.1.108.15.162-4.937 5.427-5.47 6.98-4.598 8.5.758 1.318 5.447 6.697 6.866 8.313a2 2 0 0 0 1.41.68 2.015 2.015 0 0 0 1.47-.54l.315-.297c3.104 2.44 18.744 14.74 32.42 25.572h6.455c-13.863-11.002-31.458-24.842-35.894-28.33 8.454-7.773 31.135-28.245 43.99-36.243 1.187 5.723 6.87 15.39 7.574 16.57a2.006 2.006 0 1 0 3.444-2.052c-2.73-4.582-7.102-13.05-7.223-16.27a2.277 2.277 0 0 0-.05-.35c.34-.164.667-.317.98-.447.314-.132.588-.342.794-.604a2 2 0 0 0-.233-2.74c-4.886-4.376-6.39-6.15-7.11-7.002-1.032-1.22-1.336-1.382-3.405-2.28-.9-.393-2.014-.866-6.554 2.01-1.782-1.71-3.148-2.676-5.457-4.3-.635-.446-1.35-.948-2.17-1.535a2.01 2.01 0 0 0-2.015-.186c-8.453 3.942-16.33 10.7-22.608 16.85a1.977 1.977 0 0 0-.722-.282c-.783-.14-1.83-.366-2.94-.606-6.364-1.378-8.993-1.86-10.066.136-.328.604-.655 1.832.806 3.27 1.913 1.88 4.406 3.735 5.844 4.76zm30.344-19.983c.442.312.85.598 1.23.863 1.898 1.337 3.065 2.164 4.37 3.34-2.656 1.93-6.075 4.61-10.534 8.346-7.948 6.656-15.53 13.606-15.604 13.676a2.007 2.007 0 0 0 2.713 2.956c9.76-8.958 21.106-18.53 27.54-22.984.095-.053.183-.114.268-.182 1.964-1.346 3.446-2.19 4.236-2.35 1.207.526 1.236.56 1.674 1.078.654.774 1.906 2.25 5.31 5.406-13.927 7.676-42.01 33.41-48.94 39.847-1.888-2.178-3.748-4.387-4.603-5.49.587-.944 2.22-2.97 6.29-7.26.707-.746.94-.99 1.08-1.167a1.986 1.986 0 0 0-.313-2.78c-.847-.693-2.105-.566-2.814.268-.105.127-.396.432-.8.855-1.398-1.96-3.09-5.075-3.15-6.903 1.034-.977 2.396-2.417 4.04-4.163 6.29-6.675 16.694-17.712 28.008-23.356zm-27.767 15.74c.42.092.828.18 1.226.264-.345.354-.677.697-1.006 1.04a62.618 62.618 0 0 1-2.416-1.77c.805.166 1.58.335 2.195.466zM1469.308-120.154c4.334 6.107 12.36 17.418 12.496 20.018-.512 1.23-2.673 4.593-5.576 8.35h4.992c2.36-3.272 4-6.002 4.402-7.104 1.07-2.94-2.32-8.468-13.042-23.584-3.52-4.96-7.16-10.09-7.742-11.686a2.006 2.006 0 0 0-3.765 1.38c.73 1.996 3.605 6.1 8.235 12.626z"/></g><path d="M1533.96-270.11c-3.876 11.61-7.84 24.113-7.69 25.32.053.406.425.72.83.668a.745.745 0 0 0 .524-.31.687.687 0 0 0 .118-.49c.032-1.11 2.97-10.61 6.216-20.577v-4.61zM1533.96-200.318c-12.338 9.14-23.56 17.363-24.772 18.07a.74.74 0 0 0 .598 1.353c.653-.257 11.74-8.36 24.174-17.562v-1.86z"/><g><path d="M1533.96-191.87c-9.715 7.717-18.7 14.823-24.714 19.578-5.512 4.358-9.152 7.237-9.98 7.91a57.97 57.97 0 0 0-1.763 1.51c-2.5 2.207-2.705 2.386-6.23.313-1.586-.933-8.894-9.29-24.644-29.95-11.712-15.363-21.23-28.524-22.164-30.218a1.85 1.85 0 0 0-3.595.68c.023.69.036 1.04 7.03 10.64 4.336 5.95 9.836 13.324 15.09 20.23 10.23 13.44 23.112 29.874 26.404 31.81 5.578 3.28 7.455 2.008 10.555-.725a54.556 54.556 0 0 1 1.654-1.418c.807-.658 4.636-3.687 9.938-7.878 8.194-6.48 15.65-12.387 22.417-17.758v-4.723z"/><path d="M1446.11-250.457c-.003.05-.347 5.12-2.94 13.393-.918 2.924-.66 5.398.767 7.357 2.63 3.613 8.127 3.758 8.745 3.762.092.002.184-.004.274-.018.335-.047 33.72-4.756 47.64-4.47 10.165.21 10.318 3.556 10.496 7.43.036.817.076 1.665.21 2.408.197 3.002-8.61 28.636-16.998 51.23a1.852 1.852 0 1 0 3.47 1.29c4.225-11.378 17.945-48.834 17.18-53.12-.1-.557-.132-1.247-.164-1.978-.246-5.404-1.54-10.702-14.115-10.96-13.886-.287-45.34 4.097-48.09 4.484-1.198-.038-4.39-.5-5.656-2.236-.707-.974-.78-2.304-.228-4.072 1.47-4.683 2.246-8.362 2.658-10.82 5.096 6.244 9.6 12.206 9.686 12.318a1.852 1.852 0 0 0 2.955-2.23c-.65-.863-15.632-20.687-22.227-26.078.86-1.77 6.103-8.027 35.374-28.983 14.48-10.37 28.987-20.126 33.565-23.19l19.655 27.122a1.84 1.84 0 0 0 1.457.756c-6.163 17.033-13.888 39.45-13.405 43.52l.092.785c.666 5.738 1.243 7.754 8.064 8.365 1.255.11 4.707.28 9.384.476v-3.705c-4.533-.19-7.858-.352-9.052-.46-4.17-.373-4.17-.373-4.722-5.104l-.092-.795c-.335-2.815 6.167-22.404 13.864-43.622v-10.743c-.86 2.323-1.852 5.006-2.912 7.92l-9.235-12.744c1.825-.552 5.862-1.562 12.03-1.945.04-.002.08.004.118.002v-3.703c-.115.004-.23 0-.346.006-8.286.514-13 2.095-14.082 2.496l-8.867-12.234a1.85 1.85 0 0 0-2.52-.456c-.13.085-9.455 6.274-21.263 14.465a1.847 1.847 0 0 0-1.86-1.088c-1.75.168-4.193.26-6.777.357-8.855.33-15.87.747-18.912 2.788-3.538 2.377-3.46 9.797-3.072 17.19.046.855.096 1.813.087 2.183a1.792 1.792 0 0 0-.044.648c-20.24 15.48-20.326 18.403-20.368 19.95-.025.936.36 1.75 1.09 2.293 2.12 1.582 5.57 5.37 9.12 9.567-.012.066-.03.13-.033.196zm15.284-48.953c2.412-1.62 11.185-1.947 16.988-2.164 1.597-.062 3.138-.12 4.52-.195-3.39 2.372-6.91 4.858-10.427 7.378a721.893 721.893 0 0 0-12.508 9.154l-.014-.248c-.435-8.304.048-12.988 1.44-13.924z"/></g><path d="M1533.96-472.53c-.61.708-1.176 1.444-1.64 2.23a3.07 3.07 0 0 0 1.64 4.45v-6.68zM1533.96-405.23v-6.644c-2.29.952-5.02 2.082-8.284 3.424-1.898-3.08-5.768-4.632-9.083-5.253l-4.765-32.068a3.07 3.07 0 0 0-3.484-2.586 3.07 3.07 0 0 0-2.586 3.486l4.89 32.912c-2.96 1.332-5.382 3.843-6.468 7.165-2.048 6.26 1.376 13.017 7.634 15.064 6.26 2.05 13.02-1.375 15.068-7.634a11.86 11.86 0 0 0 .492-5.15c2.48-1.02 4.662-1.92 6.585-2.717zm-12.91 5.958a5.812 5.812 0 0 1-7.326 3.712 5.813 5.813 0 0 1-3.713-7.325 5.814 5.814 0 0 1 7.326-3.715 5.813 5.813 0 0 1 3.713 7.328z"/><g><path d="M1507.56-452.272c.12-.013 12.106-1.29 24.924 3.403.504.186.983.397 1.477.595v-2.55c-13.65-5.207-26.422-3.916-26.673-3.885a1.228 1.228 0 0 0 .274 2.438zM1533.96-364.157c-7.976 3.885-16.123 5.972-22.578 6.3-11.256.577-22.732-4.047-30.706-12.367-8.343-8.71-12.266-20.656-11.044-33.645 2.874-30.59 19.88-43.01 30.607-43.895a1.225 1.225 0 0 0 1.12-1.323 1.23 1.23 0 0 0-1.32-1.124c-14.283 1.178-30.153 17.396-32.854 46.114-1.288 13.708 2.874 26.34 11.718 35.57 4.9 5.115 11.053 8.913 17.686 11.084 4.815 1.576 9.886 2.295 14.916 2.04 6.438-.328 14.494-2.318 22.454-6.035v-2.717z"/></g><g><path d="M1523.224-348.674c-40.03-1.995-56.708-15.298-61.536-49.077-2.244-15.702 2.59-31.71 13.266-43.915 9.328-10.667 21.684-16.726 33.898-16.625 8.514.07 17.116.688 25.107 2.705v-6.293c-8.722-2.036-17.504-2.484-25.058-2.546-14.005-.116-28.062 6.708-38.567 18.72-11.854 13.554-17.218 31.35-14.722 48.823 2.737 19.162 9.45 32.576 21.357 41.324-.373.215-4.532 2.613-11.284 6.033-1.97.998-2.722.836-2.724.86a.925.925 0 0 1-.13-.282l3.676-11.235a3.07 3.07 0 0 0-5.832-1.91l-3.904 11.933a3.052 3.052 0 0 0-.15 1.035c.01.396.188 3.93 3.163 5.702.39.23.798.417 1.225.558 2.062.674 4.562.276 7.452-1.188 7.22-3.66 11.46-6.124 11.637-6.228a3.043 3.043 0 0 0 1.48-2.238c3.476 2.002 7.32 3.69 11.566 5.08 8.337 2.73 18.203 4.312 29.77 4.89a3.067 3.067 0 0 0 .308-6.128z"/><path d="M1518.307-352.133a3.065 3.065 0 0 0 3.188 2.942c.48-.02 5.555-.268 12.464-1.862v-6.353c-7.18 1.807-12.568 2.078-12.712 2.083a3.067 3.067 0 0 0-2.94 3.19z"/></g></g></svg>