<svg xmlns="http://www.w3.org/2000/svg" width="711.708" height="523.76" viewBox="-52.533 -614.547 711.708 523.76"><g fill="#34AAFD"><path d="M274.95-152.23c-.385.01-.77 0-1.146-.034-5.108-.445-10.284-4.88-9.812-12.224.73-11.42 3.7-46.582 5.383-63.764.597-6.092 3.833-11.025 8.654-13.193 4.037-1.816 8.47-1.435 11.858 1.022 2.343 1.703 6.132 5.9 5.16 14.894-2.12 19.684-2.243 23.77-2.65 37.302-.152 5.19-2.093 9.14-5.312 10.83-2.31 1.21-5.01 1.077-7.23-.36-2.947-1.91-4.54-5.755-4.257-10.286.72-11.68 2.82-31.216 2.843-31.41a2.003 2.003 0 1 1 3.98.43c-.022.195-2.112 19.64-2.83 31.23-.19 3.068.72 5.563 2.44 6.677 1.002.65 2.165.713 3.19.175 1.88-.982 3.066-3.752 3.174-7.405.4-13.293.536-17.77 2.672-37.61.56-5.177-.698-9.165-3.534-11.222-2.212-1.605-5.15-1.833-7.862-.61-3.553 1.594-5.854 5.217-6.314 9.932-1.68 17.154-4.642 52.24-5.373 63.63-.308 4.808 2.946 7.697 6.162 7.98 2.742.234 5.868-1.388 6.453-6.67.776-7.04.862-8.69.867-8.758a2.004 2.004 0 0 1 2.09-1.906 2 2 0 0 1 1.905 2.087c0 .066-.082 1.746-.884 9.02-.774 7.017-5.222 10.12-9.63 10.246zM202.464-276.11l-3.177-52.363a1.583 1.583 0 0 1 1.482-1.677 1.59 1.59 0 0 1 1.674 1.483l2.664 43.87 12.535-16.445 7.717 12.92c1.764-26.992.64-44.927-1.556-46.377-4.226-2.61-17.754-.82-22.61.09a1.58 1.58 0 0 1-1.845-1.263 1.58 1.58 0 0 1 1.262-1.847c1.91-.36 18.83-3.396 24.857.33 1.29.797 4.313 2.666 3.852 29.118-.22 12.675-1.15 25.08-1.16 25.205l-.375 4.98-10.46-17.517-14.863 19.493zM419.343-177.984c-5.266-10.064-12.21-16.468-20.643-19.027-9.125-2.772-20.01-.93-31.467 5.322-6.375 3.4-12.596 12.07-14.362 22.102a55.24 55.24 0 0 0-8.937-2.014c-8.338-1.146-15.55.014-20.854 3.352-6.712 4.224-10.51 11.784-11.29 22.474l-.004.076c-.232 7.91 6.02 19.918 18.37 22.89-.008 3.065.04 5.137.067 6.574.067 3.13.076 3.458-.506 5.564-.347 1.243.074 1.976.488 2.37.245.237.912.73 1.945.468.056-.012.115-.033.174-.05 2.51-.815 9.064-8.188 11.033-13.166 4.452.35 13.348-.952 19.795-5.382 3.854-2.65 6.307-5.987 7.317-9.943 4.532 2.483 9.157 4.13 12.866 5.184a1.744 1.744 0 0 0 2.152-1.197 1.746 1.746 0 0 0-1.202-2.15c-5.7-1.62-10.283-3.623-13.975-5.855a1.74 1.74 0 0 0-.437-.266c-9.998-6.216-13.183-14.13-13.868-20.48-1.008-9.415 3.92-22.702 12.88-27.487 10.633-5.8 20.592-7.547 28.8-5.053 7.507 2.275 13.757 8.1 18.572 17.308 5.668 10.833 6.463 19.946 2.36 27.083-4.48 7.812-13.354 10.678-16.95 10.845l-1.71.077.052 1.713c.094 3.172.187 7.547 0 10.946-2.16-1.467-6.044-5.173-7.694-6.744-1.69-1.61-2.296-2.182-2.723-2.438-.827-.49-1.922-.236-2.413.59-.49.824-.25 1.875.58 2.365.252.184 1.263 1.148 2.156 2 7.22 6.883 9.788 8.717 11.707 8.23.092-.024.18-.05.265-.083.833-.31 1.383-1.074 1.473-2.038.31-3.21.266-7.725.176-11.327 5.278-.86 13.605-4.574 18.104-12.405 5.89-10.256 2.003-22.21-2.297-30.43zM367.3-138.27c-.62 3.574-2.663 6.596-6.12 8.97-6.578 4.523-16.13 5.31-18.584 4.633l-1.837-.507-.34 1.874c-.485 2.675-4.072 7.267-6.704 9.98.034-.785.016-1.684-.01-2.987-.04-1.726-.09-4.087-.065-7.9l.01-1.468-1.444-.257c-12.142-2.144-17.083-14.008-16.938-19.628.7-9.496 3.948-16.137 9.654-19.73 9.5-5.987 23.38-2.135 27.53-.768a30.79 30.79 0 0 0 .096 5.296c1.14 10.64 7.513 17.767 14.752 22.493z"/><path d="M370.05-170.72c10.25-1.248 20.187-4.504 30.5-5.3 2.22-.17 2.304-3.653.07-3.482-10.633.82-20.862 4.123-31.426 5.408-2.225.272-1.34 3.643.856 3.375zM371.73-164.12c10.248-1.246 20.187-4.505 30.495-5.297 2.224-.174 2.308-3.655.07-3.482-10.63.82-20.862 4.123-31.424 5.408-2.223.273-1.34 3.643.86 3.373zM373.828-155.867c10.25-1.248 20.184-4.505 30.496-5.3 2.222-.17 2.305-3.654.07-3.48-10.632.82-20.862 4.123-31.426 5.407-2.224.274-1.34 3.642.86 3.373zM375.684-148.552c7.42-.877 14.687-2.645 22.15-3.18 2.22-.158 2.307-3.642.068-3.482-7.776.56-15.344 2.372-23.074 3.29-2.225.258-1.34 3.632.856 3.372zM349.434-154.715c-6.143-.31-12.208 1.075-18.346 1.09-2.246.007-2.312 3.487-.07 3.482 6.14-.02 12.203-1.4 18.35-1.094 2.246.114 2.304-3.367.066-3.478zM350.413-148.54c-6.145-.307-12.208 1.077-18.348 1.093-2.243.01-2.312 3.49-.07 3.48 6.14-.02 12.203-1.4 18.348-1.092 2.247.117 2.305-3.366.07-3.48zM346.31-142.275c-4.474-.283-8.9.33-13.376.303-2.248-.012-2.31 3.465-.07 3.48 4.475.028 8.904-.588 13.38-.303 2.242.143 2.3-3.34.067-3.48zM48.302-142.272a.838.838 0 0 0-.397 1.115l2.236 4.73a.837.837 0 0 0 1.512-.717l-2.235-4.73a.838.838 0 0 0-1.115-.4zM-20.553-574.273L30.96-544.23a1.38 1.38 0 0 0 1.388-2.384l-51.513-30.04a1.378 1.378 0 0 0-1.388 2.38zM-38.344-543.76l27.067 15.785a1.378 1.378 0 1 0 1.387-2.383l-27.067-15.785a1.38 1.38 0 1 0-1.387 2.383zM-33.09-552.772l20.16 11.756c.66.385 1.5.163 1.883-.496a1.37 1.37 0 0 0-.496-1.882l-20.16-11.757a1.383 1.383 0 0 0-1.884.494c-.383.658-.16 1.5.498 1.884zM-43.54-534.853l20.16 11.755a1.38 1.38 0 0 0 1.39-2.383l-20.163-11.754a1.38 1.38 0 0 0-1.883.494c-.38.657-.16 1.506.496 1.887zM-26.3-564.417l13.535 7.893c.658.382 1.5.16 1.883-.5a1.38 1.38 0 0 0-.495-1.886l-13.535-7.89a1.38 1.38 0 0 0-1.387 2.383zM-48.763-525.896l13.535 7.89c.66.388 1.5.165 1.882-.495a1.37 1.37 0 0 0-.495-1.882l-13.536-7.894a1.377 1.377 0 1 0-1.387 2.38zM16.22-504.115c4.097 2.39 9.373 1.002 11.76-3.092 2.393-4.1 1.002-9.372-3.095-11.766-4.097-2.39-9.37-.997-11.758 3.104-2.39 4.094-1.003 9.37 3.093 11.755zm5.193-8.908a1.722 1.722 0 0 1 .62 2.345 1.71 1.71 0 0 1-2.34.61 1.706 1.706 0 0 1-.616-2.337 1.712 1.712 0 0 1 2.336-.618zM94.394-174.1c-5.542.23-11.492-.273-17.798-1.85-22.215-5.552-27.165-23.448-24.39-38.346 3.158-16.962 16.916-33.798 32.776-32.98 12.72-25.823 29.98-25.395 39.232-22.784 7.363 2.078 14.79 6.986 20.377 13.463 4.376 5.074 7.096 10.5 7.652 15.09 5.177-1.434 14.646-3.695 22.404.86 4.804 2.825 8.083 7.808 9.75 14.807 2.058 8.64.642 15.883-4.205 21.533-9.837 11.458-31.4 13.22-43.232 13.26-.46.317-1.042.732-1.583 1.118-6.365 4.548-20.996 14.99-40.98 15.83zM83.39-243.008c-10.91.458-23.662 11.614-26.99 29.496-1.175 6.302-3.113 27.34 21.23 33.423 24.064 6.016 42.868-4.792 52.18-11.144-.526-.035-.866-.062-.987-.07a2.135 2.135 0 0 1-1.953-2.3 2.128 2.128 0 0 1 2.3-1.954c.094.007 2.668.207 6.63.218.31-.158.584-.26.86-.316a2.11 2.11 0 0 1 1.603.303c11.383-.187 30.365-2.03 38.692-11.737 3.96-4.617 5.037-10.426 3.29-17.762-1.385-5.826-3.998-9.9-7.762-12.113-6.683-3.926-15.692-1.393-20.022-.174a42.98 42.98 0 0 1-1.832.49 2.127 2.127 0 0 1-1.89-.493 2.12 2.12 0 0 1-.7-1.824c.85-7.633-10.006-22.76-24.984-26.985-9.908-2.797-24-1.274-34.858 21.836a2.138 2.138 0 0 1-2.194 1.21 16.08 16.08 0 0 0-2.613-.102z"/><path d="M132.53-200.838c-.24.01-.483-.022-.718-.094l-26.824-8.272a2.13 2.13 0 0 1-.26-3.975l7.163-3.29-9.14-17.218a2.13 2.13 0 0 1 .763-2.813l13.32-8.246a2.135 2.135 0 0 1 3.042.885l8.432 17.416 5.208-2.45a2.135 2.135 0 0 1 3.036 2.105l-1.983 24a2.123 2.123 0 0 1-.933 1.59 2.16 2.16 0 0 1-1.104.362zm-20.944-10.796l18.946 5.84 1.46-17.674-3.78 1.78a2.13 2.13 0 0 1-2.827-1.003l-8.32-17.186-9.612 5.95 9.265 17.453a2.12 2.12 0 0 1 .136 1.683 2.114 2.114 0 0 1-1.13 1.256l-4.138 1.9zM414.88-410.47c3.327-8.034 3.298-14.94-.086-20.524-3.133-5.174-8.52-8.356-12.86-10.55-4.64-2.346-10.44-2.39-15.914-.125-6.175 2.557-10.89 7.593-12.938 13.816-2.246 6.825-2.223 12.394.298 17.265-.16.01-1.938.124-4.747.15-.82.006-1.044-.17-1.048-.164a.33.33 0 0 1 .003-.116l3.074-3.13a1.14 1.14 0 0 0-1.626-1.596l-3.265 3.324c-.09.093-.166.202-.22.32-.062.133-.584 1.338.113 2.418.09.14.196.27.315.387.575.564 1.473.844 2.674.833 3.006-.028 4.82-.15 4.896-.155.363-.023.672-.22.86-.5.827 1.24 1.83 2.435 3.012 3.597 2.324 2.28 5.345 4.432 9.098 6.53a1.138 1.138 0 1 0 1.11-1.988c-12.987-7.258-16.343-14.43-12.385-26.462 1.84-5.592 6.084-10.12 11.646-12.423 4.858-2.012 9.967-1.992 14.015.053 9.622 4.865 18.56 12.017 11.87 28.172-1.845 4.454-4.694 7.478-8.472 8.986-7.43 2.968-16.13-.817-16.236-.865a1.14 1.14 0 1 0-.927 2.08c.23.104 3.552 1.557 7.95 2.05-.003.05-.007.103-.002.157l.48 5.17c.018.155.167 1.27.928 2.017.2.196.438.365.73.486.985.41 2.133.104 3.41-.91 3.175-2.516 3.77-5.535 3.793-5.662a1.137 1.137 0 0 0-.905-1.323 1.143 1.143 0 0 0-1.333.898c-.02.094-.494 2.34-2.97 4.303-.788.625-1.12.59-1.117.59-.086-.053-.234-.377-.27-.632l-.46-4.94c2.48.055 5.166-.265 7.76-1.3 4.376-1.743 7.655-5.185 9.745-10.233z"/><path d="M390.54-422.487a4.436 4.436 0 0 0 .058 6.27 4.44 4.44 0 0 0 6.27-.058 4.4 4.4 0 0 0 1.013-1.633c5.738.402 7.59.485 7.668.488a1.138 1.138 0 1 0 .1-2.275c-.02 0-1.846-.082-7.354-.466-.125-1.338-1.156-2.492-2.156-3.245l3.696-11.452c.192-.6-.137-1.24-.733-1.434a1.14 1.14 0 0 0-1.434.733l-3.795 11.753a4.403 4.403 0 0 0-3.33 1.317zm1.624 1.594a2.16 2.16 0 0 1 3.05-.03 2.158 2.158 0 1 1-3.02 3.077 2.158 2.158 0 0 1-.03-3.047zM410.36-438.066c.35.53 1.052.673 1.577.33 2.088-1.368 6.078-.61 8.09 1.542 1.986 2.134 1.66 5.168-.92 8.542a1.138 1.138 0 0 0 1.81 1.383c2.23-2.92 2.806-5.35 2.655-7.243l1.464-1.494a1.138 1.138 0 0 0-1.625-1.595l-.542.553a7.23 7.23 0 0 0-1.173-1.696c-2.742-2.943-8-3.866-11.006-1.897a1.14 1.14 0 0 0-.33 1.577zM378.774-440.064a1.136 1.136 0 0 0 1.226 1.046 1.14 1.14 0 0 0 1.046-1.224c-.347-4.404 1.06-9.26 6.04-9.687 2.73-.23 5.807 1.234 6.043 3.79a1.14 1.14 0 0 0 2.267-.21c-.29-3.132-3.223-5.525-6.853-5.845a1.016 1.016 0 0 0-.228-.21l-2.877-1.943a1.14 1.14 0 1 0-1.276 1.888l.912.615c-3.566 1.09-6.864 4.607-6.302 11.78z"/><path d="M387.07-448.293a1.136 1.136 0 0 0-1.568-.36c-.116.074-2.83 1.823-2.88 5.893a1.137 1.137 0 0 0 2.276.03c.034-2.772 1.732-3.938 1.823-3.998a1.14 1.14 0 0 0 .35-1.565zM417.14-436.232c-1.775-.77-3.683.036-3.895.13a1.135 1.135 0 0 0-.332 1.85c.32.317.814.423 1.253.234.33-.142 1.345-.44 2.073-.12.408.18.706.55.907 1.134a1.14 1.14 0 0 0 2.153-.745c-.52-1.504-1.462-2.18-2.16-2.482zM396.643-438.277c-4.944-1.96-12.896.82-18.523 9.928-2.688 4.35-3.384 9.237-1.96 13.764a16.026 16.026 0 0 0 4.056 6.6 15.364 15.364 0 0 0 4.625 3.135c4.407 1.908 12.077 2.665 18.508-.185 4.157-1.842 7.072-4.925 8.434-8.93 5.473-18.07-11.812-24.553-11.987-24.615a.456.456 0 0 0-.31.856c.04.015 4.24 1.563 7.73 5.236 4.64 4.886 5.883 11.03 3.698 18.243-1.27 3.743-4.017 6.64-7.936 8.376-6.18 2.74-13.546 2.014-17.774.182-3.84-1.662-6.896-5.09-8.178-9.17-1.34-4.272-.678-8.893 1.868-13.012 5.995-9.703 13.697-11.033 17.412-9.56a.455.455 0 1 0 .338-.847zM-39.904-353.417c-.108 5.777 4.5 10.566 10.278 10.675 5.777.11 10.568-4.5 10.68-10.276.03-1.583-.307-3.09-.912-4.45 10.51-8.622 13.824-11.484 13.964-11.608a2.685 2.685 0 0 0 .27-3.795 2.686 2.686 0 0 0-3.793-.273c-.033.03-3.304 2.854-13.39 11.135-2.386-2.096-6.03-2.404-8.97-2.074l-12.24-25.675a2.695 2.695 0 0 0-3.588-1.275 2.694 2.694 0 0 0-1.274 3.59l12.56 26.354c-2.14 1.877-3.525 4.605-3.584 7.67zm5.384.103a5.1 5.1 0 0 1 5.19-5 5.103 5.103 0 0 1 4.998 5.195 5.098 5.098 0 0 1-5.19 4.997 5.1 5.1 0 0 1-4.998-5.19zM-31.137-412.36c1.457.343 2.9-.55 3.242-1.994 1.37-5.74 9.454-10.91 16.407-10.484 6.874.444 11.238 6.188 12.286 16.17a2.69 2.69 0 0 0 2.956 2.4 2.694 2.694 0 0 0 2.398-2.96c-.908-8.642-3.865-13.743-7.198-16.755l.09-4.944a2.693 2.693 0 1 0-5.384-.1l-.033 1.83a17.162 17.162 0 0 0-4.768-1.012c-9.492-.603-20.02 6.346-21.992 14.61a2.696 2.696 0 0 0 1.995 3.24z"/><path d="M-16.513-420.213c-4.3 1.56-6.268 6.04-6.478 6.546a2.682 2.682 0 0 0 2.43 3.715 2.7 2.7 0 0 0 2.532-1.635c.337-.78 1.594-2.942 3.37-3.574.994-.355 2.107-.2 3.4.474a2.696 2.696 0 0 0 3.634-1.146 2.69 2.69 0 0 0-1.145-3.63c-3.338-1.737-6.052-1.368-7.743-.75zM-16.886-215.958a2.03 2.03 0 0 0-2.53.076c-9.755 8.27-27.784 31.108-27.94 31.316a2.032 2.032 0 0 0 3.25 2.438c1.252-1.67 18.468-23.157 27.316-30.657a2.032 2.032 0 0 0-.096-3.174zM415.187-528.896a.635.635 0 0 0-.1-.084c-1.092-.93-2.066-1.663-2.862-2.116a.818.818 0 0 0-.787-.014c-.677.356-1.366.703-2.04 1.043-1.812.916-3.548 1.79-4.77 2.685-1.027-3.612-.36-4.465-.114-4.64.708-.527 2.65.28 3.742.994a.82.82 0 1 0 .9-1.37c-.373-.246-3.71-2.357-5.618-.94-1.316.972-1.45 3.167-.404 6.693.393 1.326.95 2.814 1.645 4.41 1.907 4.387 4.844 9.583 8.228 14.473 3.244 4.688 6.53 8.553 9.51 11.244-8.143-2.642-13.956-8.566-17.29-17.632-2.65-7.216-2.65-13.817-2.65-13.884a.82.82 0 0 0-1.64-.01c0 .28-.007 6.923 2.735 14.412 3.66 9.99 10.51 16.6 19.812 19.114a.82.82 0 0 0 .725-.15.838.838 0 0 0 .212-.258c.508.39 1.004.735 1.485 1.04 0 .01-.003.017-.003.024-.014 4.492 13.89 16.965 15.476 18.373a.82.82 0 0 0 1.09-1.225c-5.32-4.722-13.503-12.884-14.76-16.355a.815.815 0 0 0 .387-.164.796.796 0 0 0 .305-.645c.798-.43 1.68-.87 2.594-1.324 2.822-1.404 5.515-2.746 6.65-4.298 3.84 2.884 10.248 12.836 12.68 17.728-.056 3.655-5.898 6.238-5.96 6.265a.82.82 0 0 0 .652 1.504 17.647 17.647 0 0 0 3.614-2.198 11.866 11.866 0 0 0 1.733-1.674c1.306 1.107 3.604 1.833 5.838 2.538.38.12.744.234 1.093.35-.072 1.087.237 3.42 2.034 8.9.32.98.65 1.948.968 2.847-1.77-2.25-3.245-4.185-3.7-4.888.22-.623.54-1.862-.055-3.273a.74.74 0 0 0-.04-.08c-.823-1.486-1.783-2.345-2.853-2.55-1.3-.25-2.268.542-2.59.8l-.04.033-.04.032c-.015.01-.028.022-.043.033-1.954 1.554-2.354 3.49-1.097 5.317 1.27 1.847 2.866 2.097 3.907 1.907 1.27 1.688 2.58 3.447 3.68 4.958-3.435-2.355-8.065-5.143-10.11-6.13.363-1.64.01-4.023-.08-4.56a.82.82 0 0 0-1.617.267c.224 1.36.358 3.61-.042 4.364a.824.824 0 0 0-.034.7.824.824 0 0 0 .515.47c1.374.425 11.653 6.62 13.916 8.895.26.26.855.86 1.463.375a.507.507 0 0 0 .037-.03c.638-.556.238-1.134-.835-2.682a158.568 158.568 0 0 0-2.388-3.32c-1.732-2.36-3.52-4.724-3.535-4.748a.818.818 0 0 0-1.006-.246c-.015.006-1.315.6-2.518-1.148-.478-.695-.915-1.77.766-3.104.012-.01.022-.02.036-.03l.05-.038.054-.044c.21-.17.696-.567 1.244-.462.555.107 1.145.693 1.708 1.695.413 1.02.07 1.887-.076 2.26l-.036.093c-.208.558-.287.767 7.26 10.156.253.316.7.4 1.05.198a.82.82 0 0 0 .352-1.01c-3.423-8.752-5.06-15.17-4.613-16.093a.816.816 0 0 0-.443-1.177 64.96 64.96 0 0 0-1.844-.6c-1.988-.627-4.437-1.4-5.4-2.344.437-.833.7-1.752.668-2.75a.804.804 0 0 0-.084-.333c-2.213-4.52-9.493-16.18-13.875-18.91-.337-.82-1.393-3.105-2.748-3.265-.545-.063-1.05.203-1.383.732-.51.764-5.65 3.645-10.317 5.99-6.146-5.586-13.238-16.077-16.96-24.372a70.785 70.785 0 0 0 3.73-1.866c1.732-.937 2.876-1.68 3.63-2.28.362-.288.635-.544.84-.77 7.232 6.44 19.258 20.8 19.4 20.97.286.34.792.392 1.14.116.005-.005.012-.008.016-.013a.816.816 0 0 0 .104-1.154c-.607-.723-13-15.52-20.27-21.746zm19.988 26.117c.375.34.978 1.35 1.287 2.095-.63 1.24-3.7 2.77-6.198 4.014-1.067.53-2.162 1.076-3.126 1.618a19.348 19.348 0 0 1-2.235-1.574c3.098-1.57 9.165-4.753 10.272-6.153zm-29.23-20.876a39.923 39.923 0 0 1-.787-2.06c1.042-.9 2.96-1.868 4.98-2.888.545-.275 1.1-.555 1.652-.84.523.333 1.123.783 1.776 1.32-.874.96-4.017 2.81-7.62 4.468z"/><path d="M431.58-505.57l.047-.035a.82.82 0 0 0 .166-1.103c-8.834-12.922-17.206-18.04-17.56-18.252a.82.82 0 0 0-.844 1.406c.082.05 8.415 5.144 17.048 17.77a.825.825 0 0 0 1.14.215zM449.214-480.773a.822.822 0 0 0 .228-.996c-2.234-4.65-9.314-14.017-9.38-14.1a.82.82 0 0 0-1.283 1.02c.522.66 7.158 9.572 9.186 13.79a.82.82 0 0 0 1.248.287zM103.164-142.866c.197.21.315.337 12.977 7.216 14.112 7.666 35.29 19.078 35.5 19.193a1.17 1.17 0 0 0 1.588-.472l2.96-5.447c.31-.57.1-1.28-.47-1.59l-48.856-26.547a1.172 1.172 0 0 0-1.61.504c-3.063 6.1-2.59 6.607-2.088 7.144zm3.653-5.005l46.752 25.404-1.845 3.39c-4.42-2.384-22.14-11.937-34.465-18.635-7.88-4.282-10.892-5.948-11.988-6.572.258-.776.88-2.202 1.545-3.59zM155.51-114.255l8.174 4.44c.57.31 1.28.1 1.59-.47l3-5.524c.307-.568.098-1.278-.472-1.588l-8.17-4.44c-.568-.31-1.28-.1-1.588.47l-3.002 5.523c-.31.57-.098 1.28.47 1.59zm4.035-4.964l6.11 3.322-1.88 3.463-6.113-3.32 1.883-3.464zM116.914-104.898c3.57 1.94 8.055.614 9.997-2.96 1.942-3.57.615-8.056-2.958-9.997-3.57-1.94-8.056-.613-9.997 2.96-1.942 3.57-.613 8.057 2.96 9.997zm-.9-8.88a5.035 5.035 0 0 1 6.82-2.018 5.035 5.035 0 0 1 2.017 6.82 5.035 5.035 0 0 1-6.82 2.018 5.035 5.035 0 0 1-2.015-6.82zM368.867-508.878c-.017-.042-.408-1.067-1.09-2.833a1.352 1.352 0 0 0-.088-.276c-.016-.035-.038-.063-.055-.097-2.35-6.09-7.752-19.996-13.46-34.037-15.463-38.052-18.012-39.972-18.97-40.697a1.386 1.386 0 0 0-1.345-.18c-8.09 3.214-79.16 31.52-83.58 35.35-.528.46-.806 1.153-.846 2.12-.442 10.372 31.112 75.954 33.5 78.41.32.333.764.5 1.31.5v.002c6.043-.008 75.964-32.78 83.918-36.517.657-.31.963-1.07.705-1.746zm-116.65-40.774c4-2.985 50.573-22.01 81.81-34.434 4.248 5.462 20.147 44.76 30.622 71.938-25.875 11.49-73.3 32.157-82.17 34.625-3.346-6.512-9.494-19.17-15.667-32.887-14.65-32.548-14.817-38.29-14.597-39.242zm32.027 76.27l.002 1.382-.002-1.383zm.43-.05a42.177 42.177 0 0 1-.895-1.608c12.746-3.94 71.847-30.08 81.864-34.524l.183.473c-29.097 13.652-74.946 34.512-81.152 35.658z"/><path d="M282.87-493.64l69.728-30.33c.7-.305 1.02-1.12.718-1.82l-21.892-50.634a1.38 1.38 0 0 0-1.758-.745c-.177.067-17.98 6.804-35.412 13.923-10.25 4.187-18.374 7.686-24.146 10.4-11.08 5.215-11.618 6.58-11.174 8.065 1.16 3.883 21.267 48.54 22.123 50.44a1.383 1.383 0 0 0 1.813.7zm-21.128-51.473c2.838-2.743 26.9-13.555 67.667-29.002l20.818 48.158-67.212 29.235c-7.064-15.7-19.54-43.662-21.274-48.39z"/><path d="M302.923-509.46a1.38 1.38 0 0 0 1.497.348l41.663-15.752a1.383 1.383 0 0 0 .32-2.413l-26.05-18.845a1.383 1.383 0 0 0-2.07.55l-15.615 34.598c-.23.51-.128 1.108.255 1.515zm11.42-20.657l10.526-5.245-12.886 10.472 2.36-5.227zm12.853-7.642l-12.06 6.01 8.08-8.89 3.98 2.88zm5.695 4.12c-3.478 1.735-12.395 5.917-20.024 9.46l15.588-12.67 4.437 3.21zm4.81 3.478l-25.434 11.083c8.356-5.437 17.797-11.53 21.274-13.65.133-.067.24-.124.354-.185l3.805 2.753zm-27.05 8.227a2792.48 2792.48 0 0 0 14.306-6.675c-1.39.894-2.976 1.92-4.79 3.092a3779.38 3779.38 0 0 0-11.17 7.25l1.654-3.667zM307.972-516l24.094-10.498-17.964 10.77-7.537 2.848 1.407-3.12zm11.958-1.935l18.96-11.366 3.81 2.756-22.77 8.61zm.177-24.953l2.207 1.597-5.814 6.398 3.607-7.996zM284.978-499.416c.162 0 .326-.03.487-.09l12.552-4.745c.37-.14.66-.43.802-.8l6.45-16.852a1.385 1.385 0 0 0-1.037-1.854l-32.845-6.136a1.38 1.38 0 0 0-1.358.527c-.316.42-.368.98-.135 1.45l13.843 27.734c.24.48.728.765 1.24.764zm-3.758-12.004l10.07-10.516-6.965 16.737-3.105-6.22zm-3.335-6.682l6.92-5.744-4.48 10.63-2.44-4.886zm6.22-6.598l-5.813 4.824 2.8-5.387 3.012.563zm7.04 1.316l-9.527 9.95 4.584-10.874 4.944.924zm6.942 1.296l-1.604 2.063a6466.34 6466.34 0 0 0-10.404 13.496l6.874-16.52 5.135.962zm-12.925 18.566c3.27-4.253 9.147-11.89 12.356-16.034-1.314 4.235-3.022 11.03-3.744 13.952l-8.12 3.07-.492-.988zm11.296-3.097l-1.425.54c1.48-5.96 3.5-13.546 4.435-15.75l2.625.49-5.635 14.72zm-16.502-18.856l-2.936 5.644-3.41-6.83 6.346 1.186zM290.713-537.155c.99 0 1.968-.18 2.903-.535a8.176 8.176 0 0 0 4.593-4.314 8.192 8.192 0 0 0 .197-6.3 8.283 8.283 0 0 0-7.715-5.326c-.99 0-1.97.18-2.902.534a8.192 8.192 0 0 0-4.596 4.316 8.182 8.182 0 0 0-.195 6.3 8.28 8.28 0 0 0 7.713 5.325zm-4.995-10.49a5.43 5.43 0 0 1 3.05-2.865 5.437 5.437 0 0 1 1.928-.354 5.493 5.493 0 0 1 5.122 3.536 5.475 5.475 0 0 1-5.11 7.406 5.497 5.497 0 0 1-5.12-3.538 5.432 5.432 0 0 1 .13-4.184zM234.086-155.908a1.34 1.34 0 0 0-.346 1.865c4.32 6.284 10.327 16.22 10.367 18.945-1.224 2.185-17.24 10.93-42.358 22.05-1.715-2.59-6.685-10.218-11.226-18.36-9.878-17.7-9.228-22.34-8.49-23.512 3.59-5.697 28.315-16.242 37.543-19.824a1.346 1.346 0 0 0 .765-1.735 1.343 1.343 0 0 0-1.736-.764c-.085.033-8.54 3.322-17.446 7.468-12.145 5.65-19.342 10.17-21.393 13.426-2.96 4.706 3.383 17.234 8.413 26.25 5.627 10.085 11.905 19.393 11.966 19.484.365.54 1.06.74 1.653.478.11-.05 11.142-4.92 22.062-10.237 4.348-2.12 7.868-3.91 10.72-5.43 12.07-6.434 12.15-8.02 12.203-9.048.222-4.396-8.988-18.024-10.835-20.713a1.338 1.338 0 0 0-1.864-.342z"/><path d="M222.915-175.047c-.175.023-.348.08-.508.165-.394.21-1.44.768-6.535 12.126-.71 1.585-3.835 8.624-4.92 12.273-.2.084-.356.3-.467 1.415-1.194.263-4.696-.652-10.46-2.75-1.565-.57-2.337-.848-2.808-.936a1.34 1.34 0 0 0-1.318.516c-1.04 1.386-6.106 8.486-3.947 12.2.392.674 1.434 2.467 14.007 6.633.12.04 11.93 3.943 13.258 3.523.078-.024.16-.06.232-.097.473-.25.69-.366 3.502-6.437a555.772 555.772 0 0 0 5.614-12.567c8.09-18.683 7.676-19.8 7.426-20.467-1.066-2.854-11.865-5.758-13.077-5.597zm7.228 4.776c.006 1.705-.14 5.09-.348 8.687-1.246-5.138-1.993-8.055-2.472-9.72.942.313 1.92.67 2.82 1.032zm-2.576 16.814c-.3-5.1-.658-11.77-.814-15.838.818 3.146 1.955 7.77 2.77 11.167a434.865 434.865 0 0 1-1.956 4.67zm-1.94-18.376c-.005 1.802.143 5.694.628 14.278l-3.627-12.45a.547.547 0 0 0-.19-.264c.486-.926.894-1.648 1.18-2.065.474.082 1.185.26 2.01.5zm-3.92 2.99l2.45 17.926c-1.546-4.587-3.602-10.528-4.742-13.14.813-1.758 1.6-3.405 2.292-4.786zm-4.103 8.796c.064 2.016.2 4.8.434 8.656-.425-2.812-.844-5.34-1.18-6.948.24-.565.49-1.136.746-1.708zm-4.347 11.413c.073-.753.67-2.505 1.542-4.734a446.968 446.968 0 0 0-.108 7.062c-.025 2.91-.03 5.833-.03 8.205-.638-2.99-1.44-6.622-2.053-9.142a2.29 2.29 0 0 0 .647-1.39zm-6.187 1.867l-1.7 7.858c-.554-3.18-1.14-6.703-1.415-8.724 1.152.364 2.188.654 3.115.866zm3.28.39c-.025 1.037-.044 2.33-.05 3.975-.004.99-.005 1.996 0 2.945-.48-2.162-1.04-4.716-1.54-7 .588.078 1.113.103 1.59.078zm-8.223-1.856c-.4 1.01-.98 2.604-1.894 5.13-.306.838-.613 1.688-.88 2.41-.075-2.397-.016-6.372.134-8.47.932.338 1.813.648 2.64.93zm-4.63-1.643c.28.098.61.216.95.34-.15 1.667-.185 4.252-.19 5.224-.024 2.924.033 4.44.135 5.25-2.18-.927-3.755-1.755-4.12-2.325-.525-.903.177-4.165 3.224-8.49zm2.176 11.34c.248-.57.78-2.024 1.568-4.2.51-1.402 1.174-3.23 1.68-4.56.424 3.067 1.394 8.598 1.75 10.615a119.606 119.606 0 0 1-4.997-1.854zm6.22 2.277l1.987-9.187.967 4.396c.377 1.7.754 3.4 1.043 4.677.153.673.266 1.17.356 1.54-1.41-.442-2.888-.926-4.353-1.425zm5.557 1.8c-.057-.535-.135-7.75-.02-12.09a3.36 3.36 0 0 0 .228-.073c.814 3.414 2.01 8.944 2.874 13.08-.938-.268-1.982-.58-3.082-.918zm4.302 1.258c-.047-7.262-.01-17.757.22-23.06.044-.107.088-.213.134-.32.912 5.042 2.27 14.97 2.997 20.643a.53.53 0 0 0 .45.45 79.753 79.753 0 0 1-1.415 2.883 41.578 41.578 0 0 1-2.386-.596zm4.37-3.493c-.638-8.36-1.438-20.48-1.502-25.63l.192-.425c1.367 3.427 3.89 10.808 5.71 16.322a492.197 492.197 0 0 1-4.4 9.733zm5.972-13.332c-.185.43-.372.857-.558 1.282l-1.914-14.006 2.927 10.038c.07.24.294.39.537.378-.318.746-.647 1.51-.993 2.31zm4.773-11.424c.262-4.32.355-6.863.345-8.372 1.008.45 1.817.885 2.176 1.236-.16.875-.98 3.25-2.52 7.137zM589.63-252.505c-2.437-3.062-4.323-4.456-4.77-4.766l2.33-6.734a.87.87 0 0 0-.505-1.097 641.15 641.15 0 0 0-11.336-4.306.868.868 0 0 0-.083-1.013c-.54-.63-1.233-1.55-1.97-2.52-2.522-3.333-4.58-5.93-6.19-6.554-1.875-.725-4.72 1.312-7.473 3.46-.318.25-.674.528-.82.624a.834.834 0 0 0-.262.158c-11.453-3.635-12.604-2.878-13.214-2.477-.368.243-.578.612-.59 1.042-.038 1.246-.57 3.604-1.23 6.11-.028.013-.06.023-.086.04-.02.014-2.07 1.25-5.97 2.484-1.376.438-2.263 1.206-2.634 2.285-.686 1.995.746 4.157.91 4.397a.77.77 0 0 0 .08.1c.11.118 10.954 11.743 14.607 17.198 2.667 3.983 1.415 4.947-.033 6.063-.306.235-.623.48-.874.73-1.105.89-13.39 4.417-24.388 7.284a.873.873 0 0 0 .22 1.716c.073 0 .147-.01.22-.03 5.538-1.442 23.718-6.268 25.166-7.72.188-.19.446-.39.72-.6 2.022-1.557 3.72-3.49.42-8.417-3.645-5.44-13.84-16.407-14.733-17.366-.31-.473-.994-1.83-.665-2.79.187-.535.68-.923 1.513-1.187 2.207-.698 3.84-1.393 4.9-1.897a220.815 220.815 0 0 1-2.142 7.072.873.873 0 0 0 1.662.538c.156-.485 3.765-11.63 4.065-15.637.917-.146 4.75.188 20.76 5.832 7.92 2.79 15.612 5.758 18.032 6.698l-5.163 14.925a.868.868 0 0 0 .102.768c-8.246 2.223-18.994 5.3-20.437 6.585l-.28.25c-2.036 1.81-2.658 2.576-1.052 5.377 1.196 2.083 11.73 18.255 15.115 23.447-6.112-1.452-32.668-9.41-43.25-12.582-3.173-.95-5.27-1.58-5.754-1.717a27.9 27.9 0 0 0-1.062-.272c-1.527-.37-1.652-.4-1.805-2.322-.067-.865 1.187-5.947 4.91-17.617 2.77-8.678 5.28-15.912 5.682-16.73a.872.872 0 0 0-1.234-1.205c-.26.195-.392.294-2.21 5.593a605.093 605.093 0 0 0-3.736 11.3c-2.428 7.585-5.293 17.005-5.15 18.8.24 3.04 1.24 3.422 3.133 3.88.296.073.627.152.995.257.473.134 2.678.795 5.73 1.71 30.548 9.155 43.56 12.888 44.916 12.885a16.313 16.313 0 0 0 .592-.01h.013c2.23-.08 4.593-.682 5.91-4.423 1.254-3.558 9.4-24.68 9.484-24.894a.99.99 0 0 0 .04-.14c.074-.363 1.777-8.937-1.126-12.58zm-29.016-22.08c.032-.025.06-.045.093-.072 3.09-2.414 5.03-3.494 5.77-3.21 1.277.495 3.775 3.794 5.428 5.98.455.6.895 1.18 1.298 1.693a583.608 583.608 0 0 0-5.67-2.035c-2.61-.916-4.9-1.693-6.92-2.355zm23.648 19.043c.707.556 2.188 1.843 4.004 4.123.238.3.437.656.602 1.053a681.52 681.52 0 0 0-7.03 1.84l2.424-7.015zm4.8 15.2c-.604 1.565-8.235 21.358-9.474 24.873-.89 2.522-2.168 3.105-3.825 3.233-2.02-3.1-14.544-22.304-15.812-24.512-.982-1.71-.982-1.71.697-3.203l.282-.25c1.248-1.115 15.53-5.19 28.408-8.484.522 2.89.056 6.666-.277 8.346z"/><path d="M577.996-260.2a.697.697 0 0 0 .21-1.363c-10.383-3.292-26.11-8.33-27.196-8.83a.698.698 0 0 0-.867 1.083c.152.152.47.467 27.64 9.076.07.022.142.03.213.033zM547.604-265.814a.697.697 0 0 0 .002.986c.152.152.47.47 27.642 9.076a.7.7 0 0 0 .877-.453.7.7 0 0 0-.455-.877c-10.382-3.288-26.108-8.328-27.195-8.828a.7.7 0 0 0-.87.096zM546.35-261.333a.7.7 0 0 0 .002.987c.15.152.47.468 27.64 9.076a.698.698 0 0 0 .422-1.33c-10.38-3.29-26.107-8.328-27.193-8.83a.703.703 0 0 0-.87.097zM544.99-256.85a.7.7 0 0 0 0 .987c.152.15.47.467 27.642 9.075a.697.697 0 1 0 .42-1.33c-10.38-3.29-26.107-8.33-27.193-8.83a.7.7 0 0 0-.87.097zM584.515-244.624c-1.042.082-20.81 5.87-21.603 6.59a.358.358 0 0 0-.034.5c.07.076.166.117.262.117a.33.33 0 0 0 .22-.087c.924-.605 19.75-6.31 21.21-6.424a.35.35 0 0 0 .32-.376.35.35 0 0 0-.375-.32zM566.97-216.085a.346.346 0 0 0 .342-.31.353.353 0 0 0-.306-.387c-.857-.108-31.5-10.313-32.874-10.946a.348.348 0 0 0-.36.595c.634.422 32.247 10.95 33.162 11.045a.146.146 0 0 0 .036.003z"/><g><path d="M650.055-169.472l.217-.152c4.39-3.07 6.783-5.477.977-15.812a.796.796 0 0 0-.977-.354c-1.34.51-4.033 1.73-7.384 3.304-2.108-3.424-3.408-2.828-10.777.56-1.736.8-3.896 1.795-6.52 2.95-9.18 4.05-11.93 7.264-12.62 9.247-.35 1.01-.18 1.694-.07 1.98a.79.79 0 0 0-.076.706c.075.202 1.874 4.983 4.914 9.646 3.138 4.812 6.36 7.644 9.61 8.465-4.41 2.1-5.602 2.668-5.738 2.75a.8.8 0 0 0-.327 1 .79.79 0 0 0 .945.45c3.055-.856 5.998-.824 8.748.096 2.06.69 3.236 1.648 3.245 1.657a.8.8 0 0 0 .853.107c.104-.05 10.524-5.03 17.508-8.216a.794.794 0 0 0 .398-1.04c-.42-.967-.26-3.545 5.542-9.94.522-.575.9-.99.455-1.532a.814.814 0 0 0-1.038-.175c-.032.02-.095.062-.17.123-.02.015-.05.033-.09.056-.787.47-3.977 2.044-8.138 4.058 1.312-2.194 2.267-5.538.51-9.932zm-23.82-8.05c2.632-1.16 4.8-2.16 6.54-2.96 3.748-1.724 5.814-2.674 6.958-2.717.64-.023 1 .232 1.715 1.396-9.48 4.488-23.03 11.19-27.08 13.204.056-.94 1.12-4.183 11.867-8.923zm-11.66 10.59c.423-.21 1.036-.516 1.806-.897a.45.45 0 0 0 .018.163c.048.166 4.956 16.524 17.376 15.656.024-.003.048-.01.072-.015l-3.54 1.686c-7.957 1.203-14.375-13.285-15.73-16.593zm20.246 22.42a12.09 12.09 0 0 0-1.434-.843c3.036-1.274 13.132-5.54 17.88-7.934a4.08 4.08 0 0 0 .034 1.04c-6.14 2.816-14.5 6.795-16.48 7.74zm16.99-10.857c-4.29 2.4-19.733 8.843-19.892 8.908a.78.78 0 0 0-.378.332 15.345 15.345 0 0 0-4.686-.81c.74-.352 1.545-.733 2.39-1.137 7.862-3.738 19.827-9.43 25.798-12.384-1.327 1.653-2.548 3.426-3.23 5.09zm-5.844-2.445l-.073.034c-.843.402-5.702 2.728-11.865 5.667.12-.094.2-.24.188-.405a.477.477 0 0 0-.507-.443c-11.655.814-16.352-14.813-16.397-14.97a.47.47 0 0 0-.192-.264c7.783-3.85 27.48-13.547 33.084-15.856 4.965 9.066 2.76 10.606-.84 13.125-.244.17-.495.347-.747.527a.795.795 0 0 0-.265.97c3.246 7.266-1.805 11.194-2.386 11.613z"/><path d="M647.942-172.044c.58-.156 1.1-.37 1.547-.637 1.03-.615 1.696-1.506 1.98-2.65.732-2.96-1.462-6.603-1.555-6.758a.793.793 0 0 0-1.083-.268l-4 2.383a.787.787 0 0 0-.363.486c-.213.84.694 3.34 2.557 7.034.17.336.553.507.915.41zm-1.868-6.822l2.862-1.706c.6 1.21 1.38 3.3.993 4.86-.225.906-.807 1.533-1.792 1.93-1.513-3.07-1.942-4.503-2.064-5.084zM642.192-178.02a.475.475 0 0 0-.033.673c.054.062 5.39 7.066 3.387 14.1a.477.477 0 1 0 .917.26c2.168-7.618-3.54-14.932-3.6-14.998a.475.475 0 0 0-.672-.035z"/></g><path d="M468.127-121.903c2.138-1.455 3.702-3.804 5.153-6.064.443.912 1.162 1.624 2.34 1.862 1.73.35 3.43-.788 4.726-1.966 2.438 1.662 4.706-1.333 6.39-3.584 2.828 2.184 6.387-1.16 8.92-3.57.63.655 1.64.766 2.933 1.132 1.39.393 1.903-1.782.52-2.173-.703-.2-1.83.003-1.914-.905-.095-1.022-1.19-1.394-1.937-.734-1.468 1.303-5.776 6.637-7.676 3.947-.386-.548-1.294-.763-1.764-.166-.666.845-3.322 5.45-4.564 3.94-.46-.558-1.21-.73-1.764-.165-.82.84-1.685 1.585-2.81 1.973-1.502.52-1.733-1.35-1.82-2.37-.1-1.172-1.476-1.418-2.102-.502-1.27 1.86-2.48 3.756-3.907 5.507-.697.856-1.46 1.703-2.42 2.267-.908.53-1.002-2.165-1.037-2.55-.126-1.43-2.36-1.38-2.232.054.252 2.852 1.657 6.317 4.963 4.067zM501.55-126.23c-.854.437-1.513 1.156-2.253 1.765-.052-.915-.084-1.83-.032-2.75.074-1.333-1.848-1.38-2.204-.235-.738 2.38-1.613 4.692-2.932 6.786-.7-1.757-1.115-3.622-1.644-5.438-.242-.836-1.3-1.026-1.888-.438-1.302 1.306-2.39 2.795-3.65 4.134-.492-.53-1.47-.583-1.816.188-.443.978-.964 1.842-1.747 2.434-.025-.457-.052-.915-.03-1.384.042-.987-1.313-1.446-1.937-.734-.66.756-1.283 1.54-1.91 2.322-.037-.13-.07-.262-.108-.394-.294-.997-1.544-.99-2.054-.206-.29.446-.597.845-.886 1.244-.48-.52-1.27-.537-1.745.118 0-.02-.003-.036-.004-.055-.043-1.104-1.575-1.508-2.104-.502-1.027 1.966-1.93 3.98-3.003 5.91-.264-1.112-.46-2.235-.514-3.4-.067-1.44-2.302-1.386-2.234.053.104 2.23.645 4.325 1.284 6.457.303 1.01 1.53.974 2.054.205 1.087-1.588 1.953-3.282 2.798-4.992.44.57 1.42.557 1.875-.15a12.2 12.2 0 0 1 .595-.826c.508.834 1.765.874 2.074-.214.047-.17.11-.327.183-.48.157.852 1.29 1.292 1.916.577a57.795 57.795 0 0 0 1.503-1.814c0 .743.66 1.27 1.423 1.093 1.643-.38 2.82-1.37 3.693-2.67.43.212.942.085 1.307-.242 1.236-1.107 2.25-2.41 3.323-3.664.545 1.954 1.12 3.888 2.107 5.686.33.6 1.33.718 1.763.166 1.058-1.35 1.9-2.792 2.61-4.303.26.418.753.696 1.254.495 1.625-.65 2.615-2.07 4.12-2.84 1.28-.664.083-2.55-1.19-1.9z"/><g><path d="M379.64-325.265c10.61-24.567 9.36-28.292 7.353-29.854-2.854-2.223-19.955-9.18-35.637-15.087-20.37-7.673-38.39-13.69-48.205-16.103a1.86 1.86 0 0 0-1.638.386c-.455.383-.696.96-.652 1.55.43 5.867-15.24 52.48-25.88 82.377-.165.47-.137.988.084 1.436.192.395.518.706.915.883.054.022.107.044.165.063l49.017 16.29c.38.128.807.134 1.213-.008l.07-.026 40.64-16.076c.424-.168.772-.49.977-.898.06-.125 6.154-12.376 11.577-24.933zm-50.353 36.793l10.013-22.623c4.84 2.238 15.703 7.232 22.05 9.938l-32.063 12.685zm36.18-14.977c-4.445-1.77-17.804-7.853-26.318-11.8-.447-.206-.97-.23-1.436-.056s-.84.532-1.042.987l-11.927 26.946-45.637-15.166c4.326-12.213 23.095-65.65 25.26-79.63 22.568 5.996 74.98 26.17 80.213 29.876 1.315 3.693-8.716 27.795-19.112 48.845z"/><path d="M311.94-357.23c4.268.48 8.776-.785 13.05-2.062-.428 1.628-.295 3.302.933 4.875 1.8 2.312 5.17 2.72 8.077 2.635 1.27 4.73 7.366 3.414 11.92 2.4 1.2 5.806 9.297 5.443 15.094 5.148.084 1.506 1.235 2.737 2.47 4.598 1.326 2 4.325-.184 3.008-2.172-.67-1.014-2.31-1.977-1.432-3.21.987-1.388.007-3.044-1.644-3.02-3.255.054-14.45 2.11-13.934-3.33.107-1.107-.804-2.36-2.04-2.116-1.754.343-10.08 3.268-10.012.025.025-1.2-.735-2.23-2.042-2.116-1.938.17-3.836.175-5.67-.553-2.454-.97-.725-3.577.272-4.954 1.142-1.582-.327-3.38-2.106-2.905-3.614.97-7.187 2.047-10.876 2.71-1.804.323-3.68.564-5.498.236-1.72-.313 1.08-3.81 1.45-4.333 1.39-1.938-1.48-4.292-2.87-2.347-2.767 3.87-4.743 9.754 1.85 10.495zM358.706-326.53c-1.546-.374-3.156-.18-4.745-.216.924-1.208 1.873-2.393 2.937-3.5 1.534-1.595-.834-3.734-2.52-2.678-3.505 2.197-7.107 4.163-11.033 5.374 1.02-2.97 2.514-5.767 3.815-8.626.597-1.316-.53-2.698-1.907-2.594-3.05.236-6.033.933-9.067 1.26-.047-1.202-1.22-2.323-2.49-1.73-1.613.752-3.204 1.275-4.832 1.174.464-.602.925-1.207 1.458-1.775 1.122-1.197-.09-3.243-1.645-3.02-1.648.235-3.28.552-4.917.855.097-.203.197-.4.29-.61.71-1.572-.874-2.916-2.362-2.48-.85.248-1.667.418-2.46.607-.048-1.172-1.018-2.047-2.326-1.736.02-.024.035-.05.055-.073 1.143-1.437-.353-3.6-2.104-2.906-3.42 1.363-6.734 2.923-10.173 4.193.87-1.687 1.84-3.312 3.032-4.84 1.474-1.886-1.4-4.232-2.868-2.348-2.284 2.923-3.87 6.144-5.367 9.52-.71 1.597.874 2.88 2.362 2.48 3.085-.827 6.01-2.022 8.922-3.264-.062 1.197 1.186 2.238 2.522 1.84a19.66 19.66 0 0 1 1.644-.397c-.262 1.6 1.278 3.01 2.843 1.975a5.49 5.49 0 0 1 .75-.41c-.72 1.244.23 3.024 1.79 2.802a97.88 97.88 0 0 0 3.855-.66c-.8.936-.54 2.312.61 2.914 2.48 1.298 5.03 1.326 7.54.634.312.73 1.093 1.125 1.908 1.108 2.754-.06 5.44-.604 8.146-1.02-1.427 3.05-2.798 6.103-3.496 9.437-.234 1.112.898 2.343 2.04 2.114 2.79-.553 5.415-1.46 7.94-2.593-.126.808.195 1.69 1.043 1.98 2.75.938 5.533.223 8.262.88 2.32.56 2.855-3.112.546-3.67z"/></g><path d="M397.806-283.738c-3.533 1.918-9.024 6.31-9.987 9.452-.377 1.23-.553 3.427 1.905 5.304-.75 1.567-.984 3.184-.684 4.83.09.477.43.865.893 1.012 3.046.972 3.272 1.562 3.56 2.31.098.257.208.543.377.86.663 1.248 3.005 3.838 5.415 4.183.213.028.42.042.624.035.04 0 .078-.004.118-.008-.11.46.023.946.376 1.27.123.112.264.2.413.26 2.446 1.956 22.077 25.29 35.375 41.337a1.3 1.3 0 0 0 1.097 1.238c.12.082.25.148.39.188l18.994 5.212c.126.034.252.05.378.045h.01a1.307 1.307 0 0 0 1.174-1.824l-5.68-19.928c-.006-.024-.02-.046-.026-.07-.02-.057-.04-.114-.07-.17-.01-.02-.026-.044-.04-.065a1.256 1.256 0 0 0-.117-.17c-.005-.008-.006-.013-.01-.018l-.793-.923c-4.454-5.183-27.082-31.444-35.036-39.613a1.318 1.318 0 0 0-.754-.385c-.2-.027-.4-.042-.598-.06.217-.987.153-2.907-2.582-4.895-2.32-1.685-2.216-3.8-2.11-4.114a1.367 1.367 0 0 0-.485-1.692c-.437-.284-.87-.41-3.21.24-1.474.41-3.172.995-4.78 1.648-3.312 1.35-7.835 3.624-10.583 6.806-.073.084-.134.17-.203.258-1.07-.883-1.025-1.693-.83-2.332.593-1.938 5.065-5.965 8.86-7.982.104-.057.198-.124.283-.204.512-.48.958-.688 1.32-.612.752.157 1.492 1.358 1.73 1.918a1.31 1.31 0 0 0 2.414-1.022c-.126-.303-1.312-2.975-3.6-3.46-.84-.178-2.12-.116-3.53 1.14zm-6.268 18.37c-.037-.983.224-1.95.776-2.922a25.528 25.528 0 0 0 2.47 2.905c-.443.363-.798.69-1.076.986-.556-.318-1.257-.64-2.17-.967zm4.645 4.17a5.163 5.163 0 0 1-.245-.57 6.5 6.5 0 0 0-.377-.837c.24-.267.637-.604 1.158-.99 1.545 1.303 3.008 2.28 4.125 3.023.336.223.688.46.98.664-.173.325-.33.64-.477.938a1.302 1.302 0 0 0-1.053.388c-.152.156-.313.245-.643.198-1.23-.176-3.01-1.954-3.467-2.815zm24.98 26.244c-12.043-14.272-16.453-19.218-18.315-20.924.264-.66.693-1.653 1.286-2.778.54-.38.684-.863.716-1.158.005-.043-.002-.078 0-.12.834-1.4 1.895-2.882 3.173-4.114l34.97 38.135a15.135 15.135 0 0 0-2.91 2.64 7295.762 7295.762 0 0 0-14.995-16.73c-16.41-18.232-16.655-18.287-17.247-18.42a1.31 1.31 0 0 0-.99 2.384c1.625 1.434 19.527 21.346 31.686 34.967-.768 1.328-1.395 2.89-1.822 4.705a3579.59 3579.59 0 0 0-15.552-18.586zm33.955 25.555l-3.453-.948c.417-1.036 1.176-2.44 2.354-2.91l1.098 3.86zm-1.82-6.392c-2.34.77-3.6 3.203-4.18 4.744l-10.208-2.8c.76-5.846 3.72-8.948 6.563-10.594.106-.043.207-.102.303-.174 1.8-.98 3.517-1.39 4.562-1.56l2.96 10.384zm-4.503-12.71c-.993.243-2.202.63-3.482 1.24l-35.21-38.398c1.176-.708 2.49-1.163 3.937-1.198.285-.006.576.002.868.026 7.798 8.083 28.218 31.743 33.887 38.33zm-41.012-48.986c.15 1.618 1.005 3.683 3.203 5.277 1.494 1.084 1.676 1.938 1.562 2.24.02-.052.04-.075.04-.075l1.037.587c-4.792.283-8.25 3.862-10.476 7.282-.262-.182-.54-.37-.854-.577-.914-.608-2.073-1.385-3.312-2.377 2.615-1.647 6.24-3.66 9.585-5.344a1.312 1.312 0 0 0 .583-1.76 1.312 1.312 0 0 0-1.76-.58c-4.945 2.487-8.26 4.39-10.468 5.86a22.84 22.84 0 0 1-2.922-3.486c3.758-3.706 10.73-6.253 13.78-7.048zM106.504-436.257a1.518 1.518 0 0 0-2.12.365 1.525 1.525 0 0 0 .365 2.12c4.584 3.238 39.178 63.62 40.123 69.946a.892.892 0 0 1-.084.104c-.6.7-2.39 2.015-5.23 3.776-11.523-22.437-36.948-64.718-42.106-72.398-.35-.52-.982-.77-1.59-.636-2.288.504-11.782 3.775-16.76 9.253a1.524 1.524 0 0 0-.4.464c-1.728 2.05-2.814 4.396-2.668 7.014.162 2.826 3.067 10.78 7 20.413.03.298.146.576.328.804 8.512 20.752 21.495 48.73 22.296 50.454.203.44.59.73 1.024.835-5.7 2.18-9.01 2.938-10.155 2.82-.555-2.107-2.916-7.19-7.425-16.814-5.098-10.878-11.44-24.416-16.158-36.44-7.03-17.91-6.646-23.074-5.792-24.555 3.867-6.715 18.395-13.96 26.196-17.853 4.96-2.47 5.974-3.025 6.427-3.783a1.514 1.514 0 0 0-.512-2.085 1.5 1.5 0 0 0-1.97.344c-.534.424-2.957 1.633-5.3 2.8-8.66 4.323-23.146 11.55-27.473 19.055-4.11 7.13 7.98 34.25 21.83 63.807 3.63 7.748 7.06 15.063 7.275 16.458.094.618.578 2.062 3.024 2.096.906.014 2.1-.174 3.516-.518l4.678 11.92a1.52 1.52 0 0 0 1.557.955l11.99-1.113 9.196 7.902c.397.34.943.454 1.444.3.24-.075.47-.148.703-.223 1.348 2.542 4.696 8.996 6.746 14.146.19.48.606.828 1.112.93.5.102 1.022-.057 1.38-.42l9.213-9.322a1.523 1.523 0 0 0 .26-1.786l-4.485-8.388c1.697-.706 2.318-1.12 2.588-1.434.126-.146.177-.272.228-.397.205-.5.542-1.326-2.608-12.975 2.086-1.816 6.898-6.273 7.68-9.387.818-3.253-4.003-9.25-6.73-12.312.99-.746 1.626-1.333 2.034-1.807.53-.612.676-1.042.748-1.416.135-.742.362-1.983-5.455-13.373-3.28-6.41-7.846-14.784-12.857-23.58-1.936-3.382-18.998-33.18-23.084-36.067zm17.49 84.79a.905.905 0 0 0-.177-.035l-18.767-1.668c-.734-1.6-1.504-3.293-2.31-5.067l29.32 2.605a243.417 243.417 0 0 1-8.065 4.166zm12.477-6.63a1.5 1.5 0 0 0-.71-.26l-34.457-3.062c-1.03-2.277-2.095-4.65-3.18-7.08l35.49 3.784a360.284 360.284 0 0 1 3.337 6.338c-.154.09-.316.186-.48.28zM93.978-377.89l32.683 3.484c.515.057.998-.154 1.314-.52l.015-.02a772.67 772.67 0 0 1 3.866 6.985l-34.765-3.71a1.55 1.55 0 0 0-.367.01c-.915-2.06-1.833-4.143-2.746-6.23zm-3.65-8.43l32.5 3.465c.223.027.44-.008.643-.077 1.05 1.84 2.084 3.666 3.1 5.46l-33.44-3.568c-.176-.017-.347 0-.514.04-.77-1.787-1.54-3.563-2.29-5.32zm-3.33-7.877l31.24 3.332c.217.024.427-.01.624-.074.946 1.637 1.893 3.274 2.833 4.91L89.3-389.486c-.11-.01-.217-.01-.323 0a655.454 655.454 0 0 1-1.98-4.71zm-3.5-8.64l30.297 3.232a1031.02 1031.02 0 0 1 3.257 5.557l-31.37-3.35c-.778-1.9-1.512-3.724-2.184-5.44zm-3.32-9.1l28.09 2.997c1.17 1.96 2.376 3.99 3.606 6.07l-28.802-3.07c-.26-.03-.504.016-.73.108-.88-2.33-1.614-4.395-2.164-6.104zm20.03-10.335l-16.612-1.472c3.843-2.992 9.158-5.177 11.928-6.003 1.07 1.64 2.688 4.224 4.683 7.475zm-19.486 1.327l21.46 1.898a1386.21 1386.21 0 0 1 4.13 6.84l-25.88-2.758a1.51 1.51 0 0 0-1.05.287c-.176-.727-.282-1.313-.306-1.75-.09-1.592.555-3.11 1.647-4.517zm27.697 75.086c-.573-1.233-1.215-2.622-1.908-4.128l12.165 1.082c-4.017 1.88-7.467 3.368-10.375 4.528.282-.426.35-.98.117-1.48zm36.817 31.184l-6.815 6.896c-1.95-4.516-4.44-9.36-5.738-11.822 3.714-1.182 6.424-2.094 8.416-2.812l4.136 7.738zm3.666-33.763c-.515 2.048-4.827 6.255-7.427 8.428-.455.383-.646.99-.49 1.565 1.256 4.62 2.548 9.824 2.834 11.713-1.907.87-7.88 2.908-13.76 4.774a.176.176 0 0 0-.052.017c-.36.112-.72.227-1.078.34l-9.045-7.77a1.52 1.52 0 0 0-1.132-.36l-11.49 1.063-4.156-10.583c6.144-1.96 14.677-5.755 22.04-9.393 5.776-2.85 11.167-5.763 15.182-8.198a90.558 90.558 0 0 0 2.272-1.42c3.74 4.16 6.61 8.593 6.302 9.825z"/><g><path d="M524.494-473.273c.25-1.132 3.292-15.036 3.702-19.292.173-1.796-.325-3.17-1.477-4.09.17-1.175-.007-2.098-.54-2.744a2.29 2.29 0 0 0-.752-.594c.192-1.23.055-2.136-.41-2.692a1.45 1.45 0 0 0-.994-.528c-1.236-.27-27.58-6.03-30.005-6.783-.882-.274-1.627-.2-2.213.218-.637.456-.904 1.213-1.015 1.74a2.152 2.152 0 0 0-1.485.478c-1.104.908-1.27 2.826-1.285 3.715-1.555.49-2.473 1.936-2.788 2.85a1.05 1.05 0 0 0-.017.06c-.153.694-3.754 17.07-3.958 20.693-.102 1.797.682 3.167 2.206 3.857.78.354 1.52.42 1.725.435 1.222.258 27.45 5.813 32.992 6.928 2.016.406 3.605.142 4.725-.784 1.45-1.197 1.576-3.08 1.587-3.465zm-32.057-35.63c.297-.21.723-.232 1.265-.064 2.512.78 29.01 6.57 30.136 6.817.055.012.07.018.12.013.036.005.147.032.25.167.11.146.328.586.173 1.693-2.19-.507-27.973-6.47-32.526-7.562.078-.365.25-.827.583-1.062zm-2.444 2.175c.288-.237.657-.295 1.132-.178 2.877.71 32.857 7.644 33.16 7.714.038.008.08.013.116.014.025 0 .588.018.957.475.26.32.372.808.344 1.426-.008-.004-.017-.01-.025-.012-.874-.395-1.787-.552-2.455-.665-.16-.028-.303-.052-.427-.078-1.417-.284-31.617-5.688-32.902-5.918a4.19 4.19 0 0 0-.78-.068c.04-.85.24-2.18.883-2.71zm32.23 36.088c-.858.708-2.147.896-3.827.558-5.64-1.134-32.75-6.878-33.02-6.936a.615.615 0 0 0-.096-.01c-.008 0-.675-.028-1.367-.342-1.12-.507-1.65-1.455-1.574-2.813.193-3.46 3.74-19.642 3.926-20.49.11-.295 1.055-2.64 3.437-2.214.313.057 31.473 5.63 32.878 5.914.134.027.29.054.46.083.607.104 1.442.246 2.19.584.22.1.42.212.603.335h.002c1.013.69 1.435 1.77 1.287 3.303-.41 4.28-3.66 19.068-3.694 19.216a.558.558 0 0 0-.012.12c0 .017 0 1.702-1.194 2.69z"/><path d="M518.932-490.498a.545.545 0 0 0 .237-.344l.618-2.952a.54.54 0 0 0-.406-.637l-14.63-3.395a.54.54 0 0 0-.6.273.535.535 0 0 0 .01.522c.06.346-.047 1.718-.19 2.84a.54.54 0 0 0 .416.595l14.134 3.168c.142.032.29.008.41-.07zm-11.674-5.637l1.017.236-2.066.945 1.048-1.18zm9.71 2.253l.627.146-.98.643.347-.766.005-.022zm-2.532-.588l1.663.386-2.337 1.1.673-1.486zm-5.144-1.194l3.925.91-1.65.984.067-1.075a.324.324 0 0 0-.454-.317L508.538-494l.754-1.664zm-.903.426l-.59 1.303-1.52-.34 2.11-.963zm2.564.884l-.07 1.11-1.625-.364 1.694-.746zm2.667.116l-.662 1.46-1.3-.292 1.963-1.168zm2.388.913l-.444.98a.3.3 0 0 0-.023.145l-1.3-.292 1.768-.833zm1.89.16l-.61 1.356-1.084-.242 1.695-1.112zm-12.64-3.434l1.282.298-1.418 1.595c.097-.862.136-1.467.137-1.892zm12.675 4.936l.57-1.26-.278 1.326-.292-.066zM521.047-485.208a.54.54 0 0 0-.425-.634l-17.367-3.435a.54.54 0 0 0-.21 1.06l17.368 3.434a.54.54 0 0 0 .634-.425zM520.233-482.536l-17.365-3.435a.54.54 0 1 0-.21 1.06l17.366 3.433a.54.54 0 0 0 .21-1.06zM519.01-479.83l-17.366-3.437a.54.54 0 1 0-.208 1.06l17.365 3.435a.54.54 0 0 0 .21-1.06zM510.3-478.417l-10.08-1.736a.54.54 0 1 0-.182 1.064l10.08 1.737c.293.05.57-.146.622-.44a.542.542 0 0 0-.44-.624zM492.714-491.617a3.715 3.715 0 0 0 4.912-1.85 3.714 3.714 0 0 0-1.85-4.91 3.715 3.715 0 0 0-4.912 1.85 3.715 3.715 0 0 0 1.85 4.91zm-.385-1.576c-.15-.16-.278-.34-.384-.53l1.975-1.47-1.59 2zm.69.522l2.79-1.805-1.357 1.7a.32.32 0 0 0-.002.4 2.61 2.61 0 0 1-1.29-.225c-.05-.023-.096-.048-.14-.07zm2.04.17l1.803-2.253a2.613 2.613 0 0 1-1.802 2.254zm1.672-3.34l-3.02 1.95 2.267-2.85c.04-.052.06-.112.063-.175.317.3.552.67.69 1.074zm-1.12-1.402c-.027.01-.056.02-.08.04l-3.45 2.57c.48-1.182.962-2.292 1.242-2.827a2.624 2.624 0 0 1 2.288.218zm-3.356.525c-.174.39-.38.874-.628 1.48.025-.286.097-.57.22-.845.107-.236.246-.447.408-.635zM493.614-490.166c-2.04-.46-3.685-.2-4.887.777-2 1.624-1.977 4.6-1.975 4.725a.543.543 0 0 0 .423.52l9.364 2.063a.54.54 0 0 0 .586-.264c.055-.098 1.354-2.462.63-4.667-.515-1.576-1.92-2.65-4.142-3.153zm3.282 4.62l-.9 1.088c.257-1.058.513-2.008.663-2.41.023.063.053.124.073.19.122.37.166.755.163 1.132zm-7.337-2.524l-.252 3.235c0 .02.002.037.005.055l-1.416-.31 1.662-2.98zm4.003 4.11a.37.37 0 0 0-.012.115l-.455-.1.964-1.722-.497 1.708zm1.915-4.31c.33.22.602.476.816.76-.018.014-.033.025-.05.044l-.015.02c-.002 0-.004.002-.005.003 0 .002-.002.004-.004.006-.14.184-.895 1.162-1.558 2.018l.81-2.785c.007-.022.005-.045.006-.066zm.128 2.688c-.19.73-.375 1.52-.503 2.078l-.94-.208 1.443-1.87zm-.82-3.072c.065.03.13.065.192.097a.35.35 0 0 0-.1.105l-1.208 2.154.646-2.437a.3.3 0 0 0 .01-.103c.16.06.316.12.46.184zm-2.37 4.56l-1.146-.254a.384.384 0 0 0 .1-.09l1.847-2.67-.8 3.013zm.96-5.02c.13.03.257.062.38.096-.004.006-.012.01-.017.016l-1.845 2.664.726-2.71a.305.305 0 0 0-.02-.2c.252.03.508.075.776.135zm-2.536 4.67l-.93-.203 1.52-2.453-.64 2.394a.314.314 0 0 0 .05.263zm1.19-4.855l-1.974 3.187.23-2.938c.506-.194 1.09-.278 1.744-.25zm3.868 5.97l.837-1.01c-.112.46-.263.85-.38 1.112l-.457-.1z"/></g><g><path d="M252.722-373.27c3.862-2.646 4.864-5.183 4.787-7.188l15.824-36.792c.066-.156.112-.32.142-.486.086-.502.745-5-2.018-8.038-1.67-1.838-4.116-2.657-7.26-2.43-7.56.54-9.148 3.142-9.74 5.87-.02.1-.036.19-.06.273-.724 1.5-1.343 6.924.91 8.78.41.34 1.78 1.245 3.645.17-2.945 4.768-7.16 11.352-11.32 17.72-5.96-8.19-13.6-18.61-16.102-21.644l-.468-.567c-3.75-4.56-7.613-9.253-12.223-9.02-1.542-3.188-4.424-7.292-7.447-11.6-1.414-2.01-2.87-4.084-4.187-6.065.696-2.137.606-4.468-.274-6.948-1.438-4.068-4.633-7.32-5.413-8.074l-11.853-16.43c4.792-1.71 15.608-2.908 17.44-1.563-.076 1.24-.746 1.873-1.806 2.78-.73.623-1.485 1.268-1.87 2.258-.354.9-.48 2.32.933 3.97.827.97 2 1.452 3.296 1.362 4.976-.347 11.24-9.683 11.3-9.776l.33-.51c1.055-1.617 2.252-3.448 1.517-5.524a.626.626 0 0 0-.02-.052c-.8-2.16-3.293-3.136-5.376-3.746-5.496-1.61-30.18-3.888-36.353-4.44-.823-1.935-2.19-3.303-3.907-3.868-2.23-.736-4.83-.113-7.742 1.85-5.93 4-5.4 8.6-4.553 10.986.167.47.36.89.55 1.26-2.168 2.262-6.876 7.592-12.456 16.523-2.074 3.316-2.186 7.647-.33 12.878 4.484 12.655 19.18 27.094 19.804 27.704.522.51 1.275.714 1.987.537 1.014-.253 24.855-6.205 25.95-6.493.128-.035.238-.062.333-.083.025.053.045.1.066.15.42.94 1.056 2.36 2.488 4.258.423.56.725 1.097.906 1.603.572 1.618-.34 2.53-.497 2.67a2.09 2.09 0 0 0-.492.567c-.893 1.5-5.38 9.11-6.092 11.588-.09.307-.437.937-.773 1.543-1.533 2.772-4.182 7.526-1.373 13.895 3.037 6.9 13 21.7 20.547 28.016 5.162 4.32 14.106-1.04 25.43-7.826l1.1-.66c1.758 1.5 6.188 5.09 12.718.61zm14.296-45.87c.21-1.704-.89-2.44-1.23-2.625-1.833-.992-3.523.44-7.224 3.578-.197.167-.396.334-.594.503-.028-.942.07-2.062.226-2.528.218-.432.31-.853.39-1.23.177-.807.47-2.16 5.914-2.55 1.782-.127 3.067.225 3.825 1.05 1.096 1.194 1.118 3.327 1.015 4.288l-14.36 33.393c-.722-.996-2.454-3.395-4.69-6.478 10.9-16.634 16.54-25.863 16.728-27.4zm-52.792-63.346c1.803.53 2.393.972 2.564 1.135-.103.398-.658 1.248-1.035 1.826l-.35.542c-2.052 3.204-5.438 6.552-7.213 7.543 1.218-1.042 3.085-2.762 3.144-5.946.024-1.364-.618-2.555-1.81-3.364-4.594-3.114-18.95.025-22.143 1.367-.09.038-.168.087-.248.133l-5.218-7.23c11.39 1.05 28.287 2.818 32.31 3.994zm28.417 105.306c-.822-.702-2.202-1.88-3.77-.946l-2.144 1.28c-8.292 4.97-17.692 10.603-20.546 8.212-6.99-5.852-16.582-20.094-19.39-26.477-1.947-4.427-.196-7.625 1.202-10.15.492-.89.913-1.657 1.133-2.424.423-1.473 3.526-6.99 5.5-10.32 1.237-1.198 2.682-3.756 1.504-7.082-.325-.913-.835-1.833-1.52-2.737-1.14-1.513-1.638-2.626-2-3.437-.994-2.224-2.14-3.27-5.327-2.427-.936.246-19.814 4.96-24.738 6.19-3.14-3.21-14.366-15.154-17.953-25.265-1.4-3.955-1.425-7.06-.068-9.228 7.197-11.52 12.948-16.86 13.002-16.91a2.13 2.13 0 0 0 .173-2.94 5.56 5.56 0 0 1-.87-1.583c-.79-2.225.17-4.212 2.934-6.074 1.72-1.16 3.157-1.638 4.054-1.343 1.168.384 1.57 2.138 1.597 2.234.006.045.03.086.04.132.015.058.022.12.042.177.007.02.022.035.028.054.062.16.136.308.234.45.006.008.01.018.015.027l22.43 31.086c.082.113.177.22.28.32.034.028 3.205 2.99 4.462 6.536.66 1.864.652 3.458-.018 4.872a2.115 2.115 0 0 0 .135 2.062c1.505 2.31 3.212 4.743 4.865 7.095 3.268 4.654 6.648 9.467 7.64 12.27a2.113 2.113 0 0 0 2.697 1.284c2.713-.963 6.022 3.06 9.53 7.32l.468.57c4.125 5 23.423 31.758 23.618 32.03.142.192.315.362.514.5.006.004.576.445.795 1.062.505 1.428-1.58 3.12-2.865 4-3.988 2.742-6.04.987-7.69-.422z"/><path d="M198.84-444.36a2.108 2.108 0 0 0-.385-1.695l-21.483-28.42a2.108 2.108 0 0 0-3.05-.335c-.154.13-3.765 3.21-7.24 6.91-5.358 5.706-7.305 9.5-6.314 12.298.668 1.883 10.77 22.823 18.206 21.576 5.047-.845 17.81-8.1 19.25-8.926.525-.3.893-.817 1.017-1.408zm-20.96 6.17c-1.98.176-10.718-10.89-13.53-18.818-.388-1.648 4.51-7.63 10.62-13.112l18.66 24.68c-4.633 2.553-12.658 6.73-15.75 7.25zM243.095-387.594a2.11 2.11 0 0 0-.477-1.548l-22.532-27.144a2.04 2.04 0 0 0-.16-.172l-2.28-2.197a2.11 2.11 0 0 0-1.646-.58 2.105 2.105 0 0 0-1.522.852c-.21.288-5.145 7.022-6.49 9.36l-.054.093c-3.79 6.588-4.962 10.02-4.177 12.235.05.14.106.272.17.4.095.188 11.117 19.196 18.857 19.985 6.608.675 18.247-8.775 19.554-9.855.434-.357.704-.87.757-1.43zm-19.88 7.082c-4.175-.426-13.693-14.143-15.466-17.584-.047-.48.177-2.354 3.845-8.73l.054-.093c.764-1.326 3.104-4.636 4.812-7.01l.45.434 21.08 25.395c-4.602 3.537-11.525 7.922-14.778 7.588zM177.016-483.124a3.818 3.818 0 0 0-4.866-2.32 3.815 3.815 0 0 0-2.317 4.866 3.812 3.812 0 0 0 4.862 2.317 3.816 3.816 0 0 0 2.32-4.864zm-3.98 1.413a.41.41 0 0 1 .25-.53.414.414 0 1 1 .273.78.413.413 0 0 1-.524-.25zM249.235-383.208a3.407 3.407 0 1 0-6.42 2.276 3.41 3.41 0 0 0 4.346 2.074 3.41 3.41 0 0 0 2.075-4.35zm-3.978 1.412a.815.815 0 1 1 1.537-.545.818.818 0 0 1-.495 1.04.817.817 0 0 1-1.043-.496z"/></g><g><path d="M458-573.625c-4.328-1.943-9.43-2.086-13.313-.376-2.5 1.102-4.76 3.116-6.36 5.672-3.18 5.074-3.118 10.86.154 14.743 5.283 6.265 22.548 13.246 23.28 13.54a.61.61 0 0 0 .746-.242l.01-.015c4.217-7.18 3.54-21.674 1.768-27.173-.8-2.474-3.09-4.716-6.285-6.15zm5.12 6.523c1.865 5.792 2.054 19.192-1.4 25.717-2.907-1.207-17.703-7.53-22.305-12.99-2.222-2.633-3.567-7.698-.055-13.306 1.474-2.352 3.54-4.2 5.82-5.204 3.576-1.576 8.296-1.433 12.318.372 2.88 1.294 4.93 3.265 5.62 5.41z"/><path d="M445.877-564.62a6.36 6.36 0 0 0 .52 7.493 6.388 6.388 0 0 0 10.298-.717.61.61 0 0 0-1.035-.65c-.21.336-.454.635-.722.903l-1.307-8.236a5.13 5.13 0 0 1 2.79 4.056.61.61 0 1 0 1.215-.128 6.347 6.347 0 0 0-2.96-4.743c-2.984-1.87-6.93-.964-8.798 2.02zm4.26-1.64l-.24 7.274c-1.156-5.292-1.416-6.285-1.507-6.513a5.16 5.16 0 0 1 1.747-.76zm1.592 10.162a5.19 5.19 0 0 1-1.195-.03l.212-6.39.982 6.42zm-3.184-.76a5.182 5.182 0 0 1-.466-.334l.002-.022c.048-1.682.123-3.984.192-5.695.418 1.857.997 4.494 1.45 6.593a5.236 5.236 0 0 1-1.178-.54zm-1.634-7.113c.21-.338.458-.638.727-.908-.087.885-.152 2.797-.272 7.005l-.035-.04a5.142 5.142 0 0 1-.42-6.058zm7.37 6.937c-.505.36-1.068.62-1.657.777l.667-7.023.99 6.247zm-2.18-1.476l-1.204-7.86a5.15 5.15 0 0 1 1.93.22l-.726 7.64z"/></g><path d="M132.963-541.405a1.317 1.317 0 0 1-1.78 1.893c-.348-.232-8.56-5.672-9.243-6.14a1.318 1.318 0 0 1 1.488-2.173c.666.456 9.125 6.06 9.21 6.116.13.086.238.19.325.305zM114.47-550.787c1.233 1.5 3.084 1.49 4.41.146 1.32-1.337.69-3.483-.66-4.492-1.44-1.08-3.243-.723-4.44.488-1.234 1.248-.902 3.276.103 4.523 1.063 1.317 3.166-.267 2.1-1.59-.203-.25-.33-.46-.367-.686-.027-.167-.018-.112.028-.354-.045.24.216-.322.063-.092.022-.033.296-.306.1-.127a1.8 1.8 0 0 1 .205-.152c-.12.068-.11.068.037 0 .168-.072.268-.05.457.023.173.068.393.3.432.385.042.094.023.244.03.16-.007.087-.08.203-.02.11-.025.038-.295.303-.095.128-.077.067-.125.087-.032.064-.108.026-.145.004-.087.024.074.026-.09-.06-.162-.147-1.075-1.31-3.18.274-2.103 1.59z"/><g><path d="M505.953-304.708c1.127-2.474 2.452-5.855 3.732-9.52 1.925-5.51 4.108-12.746 4.527-16.63 1.912.61 3.52.58 4.786-.11 2.148-1.173 2.586-3.803 2.772-4.925l.035-.212c.23-1.293.662-3.7 2.884-9.273.847-2.123.905-3.975.174-5.51-.968-2.038-2.983-2.69-3.044-2.708-.12-.04-2.646-.91-6.643-2.283.962-2.52 3.786-9.92 6.555-17.266 1.994-5.285 3.57-9.506 4.687-12.545 2.334-6.367 2.334-6.367 1.69-6.865-.128-.098-.392-.302-21.568-9.132a.937.937 0 0 0-1.248.564l-12.71 37.48-1.432-.49 4.03-12.187c.56-.62.81-1.47.687-2.444-.45-3.56-5.49-15.353-5.704-15.853a.938.938 0 0 0-1.53-.29l-11.53 11.694c-.017.016-.026.036-.043.053-.016.018-.028.037-.043.057a.948.948 0 0 0-.146.29c0 .002-.004.004-.006.01l-3.466 12.572c-8.21-2.82-14.703-5.047-16.552-5.676-2.94-1.003-5.21-1.098-6.744-.284-1.198.634-1.493 1.603-1.52 1.71l.9.248.895.28c.246-.67 1.787-1.57 5.866-.182 3.016 1.027 18.39 6.308 33.43 11.473s.002 0 .002 0a74242.592 74242.592 0 0 1 31.55 10.84c.014.005 1.347.456 1.954 1.755.244.523.345 1.123.304 1.793-4.53-1.6-62.038-21.867-69.25-23.58a.936.936 0 0 0-.434 1.823c7.254 1.723 68.647 23.38 69.266 23.598h.01c-.043.118-.082.235-.13.356-2.293 5.75-2.745 8.28-2.987 9.64l-.04.232c-.152.927-.472 2.854-1.82 3.59-.998.544-2.472.4-4.38-.42l-.026-.013-.007-.003c-6.39-2.75-52.776-19.63-60.146-21-6.86-1.278-6.797-2.216-6.553-5.708.275-3.938 2.815-9.87 2.84-9.93a.937.937 0 0 0-1.72-.742c-.11.254-2.688 6.285-2.987 10.542-.188 2.674.03 4.324 1.552 5.5.375.288.84.547 1.386.787-.7 2.802-5.354 21.273-7.91 26.035-2.847 5.304-2.59 6.28-.137 8.492l.16.144c.138.125.373.316.693.564 4.63 3.576 27.016 19.123 28.03 19.827a.93.93 0 0 0 .558.168c3.14-.076 30.733-.77 33.155-1.438.618-.166 1.436-.698 3.348-4.898zm.795-94.862c7.204 3.005 17.046 7.13 19.682 8.28-1.233 3.76-8.14 22.024-13.022 34.804l-19.052-6.547 12.392-36.537zm-20.695 33.685l3.054-10.524c1.076.812 2.506 1.19 3.77 1.092l-3.496 10.576-3.327-1.143zm-6.258-2.15l2.89-10.035c.324.42.672.78 1.046 1.07 1.01.78 2.2 1.063 3.36.813l-2.81 9.692-4.485-1.54zm9.192-24.555c.373.894.906 2.185 1.484 3.633-.067.025-.14.043-.205.088-.01.01-1.104.72-2.128.483-.586-.137-1.07-.56-1.478-1.292a.91.91 0 0 0-.258-.29l2.585-2.62zm-3.89 3.944c.342.582.74 1.055 1.193 1.407.426.33.9.556 1.42.678 1.552.362 2.975-.375 3.447-.658 1.312 3.364 2.646 7.07 2.853 8.692.093.725-.19.987-.446 1.133-.82.47-2.392.22-3.364-.532-.312-.24-.532-.51-.657-.8a.936.936 0 0 0-1.712-.022c-.092.2-.465.574-1.076.723-.447.11-1.134.12-1.877-.455-.557-.432-1.055-1.114-1.48-2.027a.935.935 0 0 0-1.464-.313c-1.333 1.16-1.873.742-2.05.605-.55-.426-.91-1.406-1.083-2.046l6.297-6.386zm-7.16 9.03c.225.33.484.638.8.883a2.71 2.71 0 0 0 2.034.543l-2.75 9.546c-.96-.332-1.91-.657-2.84-.976l2.756-9.997zm24.11 78.02c-2 .454-20.23 1.05-32.333 1.35-9.235-6.414-26.688-18.623-28.284-20.067l-.162-.146c-1.71-1.54-1.888-1.703.533-6.213 2.648-4.928 7.184-22.88 8.034-26.296.94.27 2.048.52 3.366.766 6.022 1.12 41.736 13.874 55.45 19.16-.097.354-.223.805-.378 1.352a.94.94 0 0 0 .646 1.156.935.935 0 0 0 1.156-.646l.332-1.176c.78.307 1.447.576 1.99.802-.178 2.79-1.85 9.118-4.31 16.23-2.974 8.592-5.298 13.16-6.038 13.73z"/><path d="M452.255-346.775c.396-1.338.64-2.146.64-2.148a.936.936 0 0 0-1.792-.54c-.002 0-.248.81-.645 2.158a.933.933 0 0 0 .632 1.163.937.937 0 0 0 1.163-.633zM468.708-304.66c-.787-.535-2.073-1.45-3.717-2.652a.935.935 0 0 0-1.125 1.496l.022.018c1.66 1.214 2.966 2.145 3.77 2.69a.937.937 0 0 0 1.303-.25.938.938 0 0 0-.252-1.3zM502.452-310.615a.94.94 0 0 0-1.228.502c-.77 1.84-1.422 3.11-1.937 3.776l-.05.063a.934.934 0 0 0 .14 1.316l.016.014c.4.31.98.244 1.3-.152l.077-.096c.624-.808 1.337-2.18 2.184-4.198a.94.94 0 0 0-.502-1.225zM495.533-305.447c-1.236.13-2.77.258-4.556.38a.935.935 0 0 0-.508 1.678c.174.137.397.21.637.193 1.808-.125 3.362-.254 4.62-.387a.934.934 0 0 0 .834-1.03.933.933 0 0 0-1.027-.833zM506.04-322.036a.937.937 0 0 0 1.47-.464c.436-1.417.884-2.902 1.33-4.415a.938.938 0 1 0-1.798-.53 390.97 390.97 0 0 1-1.323 4.392c-.12.384.02.786.32 1.017zM477.218-304.4c-1.665.054-3.25.096-4.59.12a.933.933 0 0 0-.92.954.93.93 0 0 0 .953.92 290.57 290.57 0 0 0 4.616-.123.934.934 0 0 0 .906-.965.933.933 0 0 0-.964-.905zM486.397-304.79c-1.446.077-2.99.15-4.588.218a.937.937 0 1 0 .077 1.873 412.45 412.45 0 0 0 4.608-.22.937.937 0 0 0-.098-1.87zM448.527-333.527a.938.938 0 1 0-1.813-.478 219.854 219.854 0 0 0-1.133 4.476.937.937 0 1 0 1.822.44c.316-1.31.694-2.804 1.125-4.437zM453.997-315.59a272.997 272.997 0 0 1-3.598-2.834.948.948 0 0 0-1.317.144.936.936 0 0 0 .145 1.317c1.042.837 2.262 1.798 3.62 2.854h.002a.937.937 0 0 0 1.147-1.48zM504.33-318.687a182.53 182.53 0 0 1-1.478 4.328.937.937 0 0 0 .57 1.2.936.936 0 0 0 1.196-.567c.468-1.312.97-2.783 1.492-4.375a.933.933 0 0 0-.598-1.18.933.933 0 0 0-1.182.595zM446.927-321.34c-.504-.462-.702-.683-.77-.77-.022-.165-.04-.767.28-2.54a.937.937 0 1 0-1.843-.334c-.45 2.485-.37 3.28-.098 3.762.117.205.347.515 1.167 1.263.02.02.04.036.06.053a.938.938 0 0 0 1.265-.11.935.935 0 0 0-.06-1.323zM461.313-310.03c-.003 0-.007-.005-.012-.008a554.912 554.912 0 0 1-3.665-2.76.938.938 0 0 0-1.14 1.488c.003 0 .005.003.008.005 1.24.942 2.487 1.88 3.678 2.77a.94.94 0 0 0 1.313-.19.94.94 0 0 0-.18-1.304zM449.726-337.955a517 517 0 0 1 1.247-4.417.936.936 0 1 0-1.802-.515c-.396 1.373-.82 2.88-1.25 4.435a.936.936 0 0 0 1.806.498zM513.952-361.824a.935.935 0 0 0-.444-1.248c-2.847-1.35-6.053-2.898-6.442-3.13a.936.936 0 0 0-1.106 1.51c.093.072.374.288 6.746 3.312a.934.934 0 0 0 1.246-.444zM520.165-379.706a.935.935 0 0 0-.445-1.248c-2.846-1.35-6.052-2.897-6.44-3.13a.934.934 0 0 0-1.275.197.935.935 0 0 0 .168 1.313c.092.072.373.29 6.745 3.312a.934.934 0 0 0 1.247-.444zM516.716-386.25c.02.02.043.04.072.063.187.145.692.378 3.855 1.525a.938.938 0 0 0 .638-1.762c-1.455-.528-3.1-1.146-3.42-1.298a.938.938 0 0 0-1.18.146.94.94 0 0 0 .036 1.325zM517.052-374.566a.937.937 0 0 0-.56-1.2c-1.457-.528-3.104-1.146-3.423-1.297a.938.938 0 0 0-1.076 1.534c.187.146.693.378 3.855 1.526a.94.94 0 0 0 1.202-.562zM509.555-369.875a.94.94 0 0 0 .105 1.39c.187.143.693.375 3.854 1.522a.937.937 0 0 0 .64-1.76c-1.456-.53-3.102-1.147-3.422-1.3a.938.938 0 0 0-1.177.148z"/></g><path d="M187.78-607.386l-10.62-7.16h-4.71l13.944 9.402c.062.042.13.08.2.11.01.005 1.213.56 2.02 1.626.85 1.123.912 2.373.193 3.83-2.365 4.784-32.433 54.815-32.737 55.318-.057.092-.1.193-.13.297-.01.028-.863 2.696-2.645 3.403-.834.33-1.787.18-2.916-.47-5.316-3.057-38.42-25.19-38.755-25.412a1.375 1.375 0 0 0-.213-.116c-.01-.003-1.078-.48-1.827-1.47-.93-1.23-.93-2.684 0-4.45 1.9-3.608 17.343-27.114 27.22-42.07h-3.158c-9.915 15.02-24.483 37.217-26.393 40.844-1.786 3.393-.86 5.823.23 7.265 1.015 1.34 2.335 2.043 2.764 2.246 2.288 1.53 33.51 22.396 38.817 25.446 1.844 1.06 3.593 1.273 5.2.638 2.657-1.054 3.872-4.146 4.137-4.92 2.043-3.4 30.39-50.574 32.766-55.383 1.48-2.993.57-5.233-.454-6.585-1.068-1.413-2.494-2.175-2.933-2.388z"/><path d="M205.95-614.546c.1 1.324-.317 2.726-1.287 4.197-.485.736-48.523 73.668-53.56 80.053-3.858 4.896-3.998 4.828-6.3 3.696-.39-.193-.82-.405-1.31-.624-3.074-1.388-28.383-17.722-41.336-26.17a1.474 1.474 0 0 0-.195-.104c-.032-.013-3.147-1.39-5.038-3.887-1.805-2.385-1.872-4.914-.2-7.728 2.824-4.753 18.34-28.756 31.76-49.434h-3.14c-13.21 20.362-28.11 43.418-30.883 48.09-2.8 4.714-1.35 8.4.363 10.662 2.123 2.803 5.334 4.368 5.98 4.665 2.472 1.61 37.64 24.517 41.608 26.307.46.207.865.405 1.23.585 3.784 1.86 5.03 1.28 9.532-4.426 5.104-6.475 51.708-77.228 53.69-80.236 1.405-2.133 1.82-4.037 1.738-5.646h-2.65z"/><g><path d="M29.435-97.63a.84.84 0 0 0 .493 1.6 6.08 6.08 0 0 0 3.903-3.622 6.075 6.075 0 0 0-.095-4.68 6.085 6.085 0 0 0-3.378-3.244 6.126 6.126 0 0 0-7.923 3.473 6.16 6.16 0 0 0 1.21 6.388.838.838 0 0 0 1.23-1.14 4.47 4.47 0 0 1-.88-4.64 4.445 4.445 0 0 1 8.21-.166c.473 1.086.498 2.293.066 3.4a4.43 4.43 0 0 1-2.835 2.63zM12.79-90.79h1.83a770.47 770.47 0 0 0-10.034-22.548.835.835 0 0 0-1.11-.403c-.457.2-.6.692-.405 1.11.1.212 4.806 10.314 9.72 21.84z"/><path d="M21.59-90.79h8.857c0-.02.01-.04.01-.063a2.09 2.09 0 0 0-2.072-2.11 8.737 8.737 0 0 1-7.77-4.968c-2.043-4.324-.188-9.502 4.13-11.547 4.324-2.044 9.505-.19 11.548 4.132a8.637 8.637 0 0 1-.064 7.546 2.093 2.093 0 0 0 3.754 1.85 12.792 12.792 0 0 0 .092-11.186c-3.032-6.407-10.71-9.156-17.12-6.124-6.408 3.03-9.153 10.71-6.123 17.118a12.874 12.874 0 0 0 4.758 5.353zM55.878-101.72a2.095 2.095 0 0 0-1.856-2.308 2.094 2.094 0 0 0-2.303 1.858c-.196 1.8.3 5.573 1.205 11.38h4.235c-.787-4.992-1.437-9.507-1.282-10.93z"/><path d="M-13.58-116.27a2.082 2.082 0 0 0 1.004 1.285c.496.275 1.083.34 1.626.175.025-.01.173-.055.432-.13A14953.74 14953.74 0 0 1 1.007-90.79H5.64a14361.72 14361.72 0 0 0-12.096-25.358c11.498-3.37 42.167-12.05 57.885-13.598-1.53 5.9-.677 17.567-.564 19a2.09 2.09 0 1 0 4.17-.33c-.438-5.546-.62-15.486.753-18.554a2.42 2.42 0 0 0 .116-.352c.393.003.77.012 1.123.034a2.093 2.093 0 0 0 2.068-2.867c-2.55-6.35-3.137-8.703-3.42-9.834-.402-1.62-.61-1.91-2.133-3.706-.663-.783-1.484-1.74-7.06-1.146-.88-2.42-1.71-3.957-3.122-6.54-.387-.712-.824-1.51-1.32-2.438a2.095 2.095 0 0 0-1.8-1.104c-9.73-.215-20.216 2.472-28.93 5.324a2.026 2.026 0 0 0-.545-.596 96.298 96.298 0 0 1-2.47-1.926c-5.318-4.228-7.555-5.893-9.48-4.52-.588.413-1.46 1.41-.757 3.43.918 2.637 2.393 5.523 3.267 7.145-.277.104-.567.212-.835.31-2.726 1.016-4.88 1.816-6.115 2.138a2.086 2.086 0 0 0-1.12.734c-2.76 3.513-1.54 10.84-1.267 12.27.016.077.044.148.067.223-7.124 2.798-8.34 4.005-8.227 5.83.104 1.585 2.008 8.782 2.59 10.95zM5.7-151.503l1.025.812c-.486.172-.954.34-1.42.51a65.778 65.778 0 0 1-1.445-2.772c.678.528 1.325 1.042 1.84 1.45zm-8.322 20.912c1.004-.37 1.333-.494 1.546-.593a2.075 2.075 0 0 0 .992-2.746c-.47-1.04-1.708-1.5-2.756-1.048-.156.068-.57.22-1.143.43-.403-2.48-.546-6.176.24-7.914 1.418-.436 3.356-1.156 5.7-2.03 8.966-3.338 23.796-8.86 36.986-8.916l.75 1.375c1.162 2.128 1.872 3.44 2.55 5.145-3.377.577-7.814 1.508-13.71 2.942-10.508 2.56-20.81 5.562-20.91 5.592a2.093 2.093 0 0 0 1.172 4.017c13.265-3.875 28.3-7.59 36.376-8.787.112-.006.222-.022.333-.047 2.458-.352 4.235-.46 5.047-.242.886 1.05.9 1.093 1.07 1.78.255 1.027.745 2.986 2.47 7.51-16.572.75-54.724 11.862-64.182 14.684-.76-2.91-1.48-5.834-1.77-7.262.988-.615 3.45-1.757 9.24-3.89z"/></g><path d="M78.972-114.71l40.062 23.922h4.57l-7.57-4.52c2.54.693 5.16.77 7.662.27l7.822 4.25h4.91L126.84-96a16.58 16.58 0 0 0 8.242-7.416c3.113-5.725 2.496-12.48-.996-17.496 12.95 7.245 24.454 13.99 27.88 16.86a2032.06 2032.06 0 0 1-8.72 13.264h2.812c6.204-9.376 13.564-20.63 16.553-25.704.27-.456.198-1.034-.168-1.413-4.44-4.554-36.14-22.236-53.303-31.653l1.666-3.067c.31-.57.1-1.28-.47-1.59l-6.3-3.42a1.17 1.17 0 0 0-1.59.47l-1.656 3.05c-1.396-.757-2.29-1.24-2.55-1.38a1.17 1.17 0 0 0-1.586.477c-.31.567-.1 1.277.47 1.586.002 0 .002 0 .004.003.558.303 54.482 29.43 62.98 36.565-1.585 2.632-4.06 6.52-6.862 10.844-9.53-7.587-60.085-34.402-62.336-35.598a1.172 1.172 0 0 0-1.106 2.066c.002.003.006.004.01.006a1906.235 1906.235 0 0 1 21.43 11.538c-6.19-.29-12.308 2.874-15.46 8.672a16.555 16.555 0 0 0-1.978 8.836l-16.642-9.04a1.17 1.17 0 1 0-1.118 2.06l18.172 9.872a16.698 16.698 0 0 0 4.132 7.71L81.155-116.14c8.408-14.975 20.882-36.834 22.243-38.25a1.172 1.172 0 0 0-1.6-1.713c-1.833 1.71-19.684 33.464-23.246 39.81a1.174 1.174 0 0 0 .42 1.582zm38.113-35.974c-1.586-.87-3.014-1.647-4.234-2.312l1.1-2.02 4.24 2.303-1.105 2.03zm-9.242 32.466c3.77-6.94 12.487-9.52 19.43-5.748 6.943 3.77 9.523 12.49 5.75 19.43-3.774 6.943-12.488 9.522-19.43 5.75-6.942-3.773-9.522-12.49-5.75-19.432zM469.55-90.79h2.4c-4.747-12.064-13.458-33.722-17.073-39.538 12.668-6.12 44.54-17.473 48.386-17.833 2.05 1.17 6.926 16.123 10.438 29.823-2.727.938-11.22 3.4-16.66 4.938a1.115 1.115 0 0 0-.767 1.397l5.128 16.997-10.29 4.216h5.896l6.175-2.53a1.108 1.108 0 0 0 .574-.52l12.262-23.298c.128-.244.162-.527.094-.794-.02-.08-2.045-8.07-4.494-15.938-4.795-15.393-6.83-16.604-8.36-16.53-2.176.105-12.722 3.64-22.207 7.094-12.322 4.49-22.92 8.812-28.35 11.562a1.114 1.114 0 0 0-.287 1.784c2.117 2.133 10.46 22.233 17.138 39.17zm33.494-6.5l-4.305-14.27c3.09-.876 10.016-2.857 13.978-4.114l-9.674 18.385zM210.33-614.546c-.267 1.552-.94 3.21-2.053 4.968-7.074 11.182-53.275 81.265-53.718 81.938-.268.38-6.64 9.215-15.127 3.718-9.645-6.247-42.742-27.74-42.742-27.74-.082-.054-.178-.1-.272-.135-.032-.01-3.232-1.208-4.47-4.57-1.153-3.122-.355-7.146 2.373-11.962 4.264-7.528 17.618-28.22 29.296-46.216h-3.14c-11.468 17.677-24.264 37.528-28.448 44.918-3.14 5.543-3.994 10.327-2.534 14.22 1.52 4.062 5.06 5.698 5.876 6.027 2.126 1.38 33.314 21.634 42.63 27.667 8.47 5.487 15.944-.486 18.732-4.446.47-.704 46.683-70.807 53.77-82.01 1.403-2.22 2.22-4.35 2.49-6.376h-2.663zM-26.84-501.293l-25.692-14.98v3.188l24.305 14.175a1.378 1.378 0 0 0 1.387-2.383zM10.426-373.26c-19.933-39.93-60.153-23.01-60.554-22.83a1.078 1.078 0 0 0 .858 1.976c.096-.044 9.825-4.195 21.782-3.554 15.907.86 28.014 9.397 35.97 25.337 3.893 8.495 3.88 17.926-.034 27.27-6.173 14.74-20.006 25.45-30.246 29.166-9.294 3.378-20.11 2.45-28.938-2.48a34.455 34.455 0 0 1-1.797-1.08v2.512c.25.146.494.304.748.445 5.424 3.03 11.56 4.635 17.684 4.752 4.444.084 8.88-.615 13.035-2.123 10.67-3.873 25.074-15.023 31.5-30.36 4.152-9.912 4.155-19.94-.01-29.03zM-52.532-614.546v8.292l4.835-8.292zM-34.666-614.546l-17.866 30.637v13.68l25.567-43.845a5.87 5.87 0 0 1 1.125-.47h-8.826z"/><path d="M52.187-555.427c-.09-.064-5.354-3.67-12.977-8.724.502-.933.99-1.962 1.505-3.05.886-1.888 1.81-3.834 2.742-5.057 3.17-4.15.665-9.562-2.446-12.938a3.31 3.31 0 0 0-.796-.638l-2.432-1.42c1.8-2.638 5.89-9.5 4.638-15.808-.63-3.176-2.54-5.783-5.525-7.52l-6.802-3.966H16.418l17.006 9.917c1.28.75 1.992 1.665 2.24 2.902.717 3.595-2.386 8.93-3.847 10.993l-40.833-23.81h-13.948c.337.105.68.24 1.03.445l58.19 33.932c1.156 1.412 2.013 3.36 1.728 3.727-1.377 1.802-2.457 4.09-3.5 6.298-.31.654-.69 1.458-1.05 2.18-4.533-2.968-9.538-6.203-14.6-9.4-35.554-22.463-39.11-21.125-41.466-20.247a3.42 3.42 0 0 0-1.584 1.205c-3.164 4.36-16.186 26.437-28.316 47.4v13.758c12.335-21.472 27.787-47.885 32.885-55.637 6.385 1.616 28.63 15.01 51.813 30.295.163.133.333.246.516.342 4.323 2.857 8.678 5.78 12.967 8.697L35.42-534.01-.578-555a3.443 3.443 0 0 0-3.82.234 3.45 3.45 0 0 0-1.248 3.62L.11-529.302l-27.83 15.013a3.43 3.43 0 0 0-1.807 2.97 3.45 3.45 0 0 0 1.708 3.034L9.97-486.248-.045-469.08c-18.984-8.8-38.95-18.905-52.487-26.726v7.955c4.593 2.582 10.13 5.555 16.822 8.998 17.816 9.156 35.456 17.26 35.628 17.34a3.455 3.455 0 0 0 4.415-1.394L15.92-482.78l7.773 4.536a3.447 3.447 0 0 0 4.71-1.238l23.77-40.765a3.446 3.446 0 0 0-1.24-4.71l-9.565-5.58 11.847-20.318a3.438 3.438 0 0 0-1.028-4.572zm-7.698 34.68l-20.3 34.813-6.226-3.63a3.397 3.397 0 0 0-1.29-1.35 3.36 3.36 0 0 0-1.81-.456l-33.91-19.774 24.81-13.38a3.45 3.45 0 0 0 1.7-3.91L3.135-544.86l41.353 24.113z"/><g><path d="M23.987-333.605a2.686 2.686 0 0 0-3.7-.806 2.7 2.7 0 0 0-.833 3.707c.12.19 2.95 4.826 1.884 12.213-.34 2.355-.968 2.832-.96 2.83-.236.047-1.018-.267-1.492-.648l-8.81-7.745c4.35-3.93 8.445-8.838 11.225-14.828 4.69-10.102 4.73-21.34.127-33.405C14.1-391.49 2.84-403.308-12.043-407.41c-13.78-3.804-28.2-.526-39.223 2.753-.426.128-.845.28-1.266.42v5.73c.92-.368 1.852-.71 2.8-.99 24.43-7.263 51.394-9.485 66.127 29.133 4.063 10.646 4.074 20.466.035 29.19-7.945 17.16-29.04 24.778-29.3 24.872a2.692 2.692 0 1 0 1.784 5.08c.563-.197 8.63-3.094 16.982-9.385.083.092.16.188.256.27l9.22 8.106c.282.234 2.35 1.907 4.866 1.956a5.376 5.376 0 0 0 2.04-.35c2.36-.898 3.838-3.285 4.386-7.1 1.368-9.473-2.512-15.624-2.677-15.88z"/><path d="M-9.502-311.234c-18.71 4.728-32.385 4.778-43.03-.603v5.763c.806.34 1.624.662 2.46.954a150.51 150.51 0 0 1-2.46 2.562v7.606c4.045-3.958 6.332-6.427 6.44-6.543.584-.632.796-1.47.667-2.26 3.43.787 7.09 1.216 11.01 1.29 7.697.147 16.38-1.06 26.232-3.55a2.69 2.69 0 0 0 1.95-3.27 2.7 2.7 0 0 0-3.27-1.95z"/></g><g><path d="M-.208-203.212c-1-.508-2.222-.11-2.732.89-7.992 15.704-22.442 40.437-29.978 45.62-.14-.32-.353-.61-.634-.822-.233-.175-.51-.3-.81-.363a2.01 2.01 0 0 0-.928.035c-1.534-1.643-3.136-3.48-4.8-5.39-4.364-5.005-8.56-9.806-12.443-12.21v5.02c2.963 2.508 6.397 6.438 9.382 9.86 1.94 2.23 3.934 4.51 5.837 6.483-.57 1.988-1.372 4.113-2.376 6.345-3.233-3.66-8.312-9.285-12.842-13.792v5.83a377.75 377.75 0 0 1 10.918 11.917c-2.798 5.345-6.56 11.15-10.918 17.04v6.7c6.18-7.88 11.14-15.378 14.598-22.04-.818 13.975-5.725 26.4-14.598 37.172v6.108c12.195-13.177 18.633-29.1 18.786-46.856a2.024 2.024 0 0 0-.812-1.643 2.087 2.087 0 0 0-.752-.346 50.338 50.338 0 0 0 1.563-4.216c.02-.004.04-.002.06-.008C-22.91-154.657-1.703-195.8.68-200.483a2.032 2.032 0 0 0-.888-2.73zM33.492-260.402c-.032-.023-.065-.047-.1-.07-1.728-1.184-2.864.14-5.903 3.682-1.6 1.863-3.776 4.49-6.47 7.807-4.57 5.63-9.122 11.39-9.17 11.446a2.03 2.03 0 0 0 .042 2.567c.023.027 2.26 2.777-1.18 6.752-1.366 1.58-3.667 3.3-7.918.11l-.092-.068-.125-.095-.142-.105C1.9-228.77.64-229.69.55-231.068c-.09-1.4.947-3.18 2.997-5.158 2.188-1.625 4.48-1.348 5.467-1.23l.246.03c1.467.15 2.018.207 19.81-23.767a2.03 2.03 0 0 0-2.827-2.852C7.4-250.36-6.965-242.42-9.457-242.913a2.03 2.03 0 0 0-2.547 1.8c-.117 1.49-.198 3.096-.284 4.797-.26 5.162-.582 11.515-2.24 14.42-2.27-.528-4.64-.586-7.01.117a2.02 2.02 0 0 0-.747.41c-6.98 6.008-21.563 21.08-30.247 33.472v7.404c6.752-11.623 23.467-29.59 32.552-37.5 8.798-2.156 18.648 10.238 18.75 10.367a2.03 2.03 0 0 0 3.198-2.504c-.24-.31-3.2-4.04-7.534-7.29-1.544-1.158-3.264-2.25-5.095-3.11 1.836-3.82 2.138-9.788 2.43-15.583.05-.98.097-1.933.153-2.838 2.655-.508 8.05-2.713 20.072-10.448a331.88 331.88 0 0 0 6.217-4.104c-4.292 5.65-8.003 10.398-9.406 11.934-1.63-.14-4.803-.13-7.813 2.18-.062.044-.113.09-.168.143-3.046 2.906-4.502 5.747-4.327 8.44.213 3.27 2.716 5.096 3.54 5.704l.102.075.102.076c.034.03.072.058.107.085 4.947 3.71 9.84 3.46 13.434-.7 3.634-4.2 3.235-8.182 2.127-10.56 3.25-4.103 6.653-8.34 9.584-11.927-3.496 9.71-7.282 22.557-8.368 28.077-4.16.156-9.653 2.5-10.882 3.047a2.032 2.032 0 0 0 1.65 3.712c3.12-1.386 8.434-3.118 10.492-2.63a2.03 2.03 0 0 0 2.5-1.883c.162-3.56 8.58-32.084 12.622-38.934.458-.78 1.523-2.584-.015-3.74z"/></g></g></svg>