<svg xmlns="http://www.w3.org/2000/svg" width="41.444" height="41.445" viewBox="0 0 41.444 41.445"><g fill="#B2B2B2"><path d="M20.722 7.083c-7.535 0-13.64 6.106-13.64 13.64s6.105 13.64 13.64 13.64c7.533 0 13.64-6.106 13.64-13.64s-6.107-13.64-13.64-13.64zM9.028 21.56H13.8c.046 1.415.204 2.77.458 4.03h-4.203a11.64 11.64 0 0 1-1.027-4.03zm12.645-7.76V9.385c1.27.544 2.37 2.16 3.117 4.415h-3.117zm3.628 1.903c.263 1.214.43 2.548.484 3.954h-4.11v-3.954H25.3zm-5.53-6.318V13.8h-3.12c.75-2.256 1.85-3.87 3.12-4.415zm0 6.318v3.954h-4.112a23.76 23.76 0 0 1 .482-3.954h3.63zm-5.96 3.954H9.046c.128-1.406.5-2.736 1.078-3.954h4.167a24.05 24.05 0 0 0-.483 3.954zm1.838 1.902h4.122v4.03h-3.662c-.254-1.24-.414-2.6-.46-4.03zm4.122 5.934v4.568c-1.298-.558-2.42-2.234-3.168-4.568h3.168zm1.903 4.568v-4.568h3.166c-.747 2.334-1.87 4.01-3.167 4.568zm0-6.47v-4.033h4.118a23.945 23.945 0 0 1-.456 4.03h-3.66zm5.97-4.033h4.77a11.68 11.68 0 0 1-1.025 4.03h-4.204a24.43 24.43 0 0 0 .46-4.03zm-.01-1.903a24.258 24.258 0 0 0-.48-3.954h4.167c.577 1.218.95 2.548 1.076 3.954h-4.762zm2.55-5.857h-3.52c-.513-1.638-1.2-3.043-2.013-4.125a11.74 11.74 0 0 1 5.533 4.125zM16.795 9.675c-.814 1.082-1.503 2.487-2.012 4.125H11.26c1.375-1.88 3.3-3.33 5.535-4.125zm-5.644 17.82h3.585c.516 1.7 1.22 3.16 2.056 4.277a11.76 11.76 0 0 1-5.64-4.278zm13.5 4.277c.838-1.116 1.54-2.577 2.057-4.278h3.585a11.76 11.76 0 0 1-5.643 4.278z"/><path d="M34.567 3.7a3.176 3.176 0 0 1 3.175 3.176V34.57a3.178 3.178 0 0 1-3.175 3.176H6.875A3.178 3.178 0 0 1 3.7 34.57V6.877A3.177 3.177 0 0 1 6.875 3.7h27.692m0-3.7H6.875A6.876 6.876 0 0 0 0 6.876V34.57a6.875 6.875 0 0 0 6.875 6.875h27.693a6.876 6.876 0 0 0 6.877-6.874V6.877A6.878 6.878 0 0 0 34.567 0z"/></g></svg>