<svg xmlns="http://www.w3.org/2000/svg" width="120.922" height="108.048" viewBox="0 0 120.922 108.048"><path fill="#C6C6C6" d="M2.876 45.064a1.438 1.438 0 0 1-2.876 0V16.708c0-.794.64-1.443 1.438-1.443.794 0 1.438.648 1.438 1.443v28.356z"/><path fill="#C6C6C6" d="M6.99 21.536c0 .91-.74 1.647-1.644 1.647H1.644A1.645 1.645 0 0 1 0 21.536V16.91c0-.91.736-1.645 1.644-1.645h3.702c.904 0 1.644.735 1.644 1.644v4.626z"/><path fill="#9D9D9C" d="M5.563 45.482c0 .57-.458 1.035-1.03 1.035H1.035c-.57 0-1.036-.465-1.036-1.035v-2.205c0-.57.467-1.035 1.036-1.035h3.497c.573 0 1.03.466 1.03 1.035v2.205z"/><path fill="#CEAD84" d="M81.412 5.83h15.21v5.05h-15.21z"/><path opacity=".2" d="M5.563 44.456v-1.18c0-.568-.458-1.034-1.03-1.034H1.035A1.04 1.04 0 0 0 0 43.277v1.18h5.563z"/><path fill="#C6C6C6" d="M98.7 48.652a3.105 3.105 0 0 1-3.112 3.104H89.25c-1.723 0-.066-1.388-.066-3.104V40.11c0-1.724-1.656-3.113.066-3.113h6.338A3.108 3.108 0 0 1 98.7 40.11v8.542z"/><path opacity=".2" d="M98.7 44.51v-4.4a3.108 3.108 0 0 0-3.112-3.113H89.25c-1.723 0-.066 1.39-.066 3.113v4.4H98.7z"/><path fill="#C6C6C6" d="M3.817 47.03c0 1.07.865 1.93 1.928 1.93H9.68c1.066 0 .038-.86.038-1.93v-5.3c0-1.067 1.028-1.93-.038-1.93H5.745a1.93 1.93 0 0 0-1.928 1.93v5.3z"/><path opacity=".2" d="M3.817 44.456V41.73c0-1.067.865-1.93 1.928-1.93H9.68c1.066 0 .038.863.038 1.93v2.726h-5.9z"/><path fill="#445258" d="M93.91 53.66a3.112 3.112 0 0 1-3.11 3.11H10.098a3.112 3.112 0 0 1-3.108-3.11v-18.3a3.11 3.11 0 0 1 3.108-3.113h80.7a3.11 3.11 0 0 1 3.11 3.114v18.3z"/><path fill="#445258" d="M90.222 104.94a3.11 3.11 0 0 1-3.113 3.108H13.203a3.11 3.11 0 0 1-3.105-3.11V54.87a3.116 3.116 0 0 1 3.104-3.114H87.11a3.116 3.116 0 0 1 3.112 3.114v50.07z"/><path opacity=".3" d="M6.99 49.688v3.974a3.112 3.112 0 0 0 3.108 3.108h80.7a3.112 3.112 0 0 0 3.11-3.108v-3.974H6.99z"/><path opacity=".4" d="M93.91 36.222v-.86a3.116 3.116 0 0 0-3.11-3.114H10.098a3.115 3.115 0 0 0-3.108 3.114v.86h86.92z"/><path fill="#E84343" d="M90.222 102.87a3.107 3.107 0 0 1-3.113 3.107H13.203a3.107 3.107 0 0 1-3.105-3.108V52.8a3.112 3.112 0 0 1 3.104-3.112H87.11a3.113 3.113 0 0 1 3.112 3.11v50.07z"/><path fill="#FF625A" d="M90.222 97.693c0 1.71-1.394 3.11-3.113 3.11H13.203c-1.71 0-3.105-1.4-3.105-3.11V47.616a3.11 3.11 0 0 1 3.104-3.106H87.11a3.11 3.11 0 0 1 3.112 3.106v50.077z"/><path opacity=".13" fill="#FFF" d="M87.11 44.51H13.203a3.11 3.11 0 0 0-3.105 3.106v18.908h80.123V47.616a3.11 3.11 0 0 0-3.114-3.106z"/><path fill="#445258" d="M16.317 69.678h67.687v26.59H16.317z"/><path fill="#FFF" d="M69.804 89.946a2.435 2.435 0 0 1-2.433 2.433H33.537a2.432 2.432 0 0 1-2.438-2.434 2.433 2.433 0 0 1 2.438-2.442H67.37a2.436 2.436 0 0 1 2.434 2.442z"/><circle fill="#FFF" cx="78.663" cy="82.383" r="2.434"/><circle fill="#FFF" cx="70.604" cy="82.383" r="2.436"/><path fill="#FFF" d="M64.976 82.383a2.434 2.434 0 0 1-2.433 2.434 2.438 2.438 0 0 1-2.44-2.434 2.436 2.436 0 0 1 4.872 0z"/><circle fill="#FFF" cx="54.482" cy="82.383" r="2.433"/><path fill="#FFF" d="M48.857 82.383a2.434 2.434 0 0 1-2.434 2.434 2.434 2.434 0 0 1 0-4.868 2.436 2.436 0 0 1 2.434 2.434zM40.792 82.383a2.432 2.432 0 0 1-2.438 2.434 2.428 2.428 0 0 1-2.427-2.434 2.433 2.433 0 0 1 4.865 0zM32.734 82.383a2.437 2.437 0 0 1-4.873 0 2.437 2.437 0 0 1 4.873 0z"/><circle fill="#FFF" cx="22.238" cy="82.383" r="2.435"/><path fill="#FFF" d="M77.07 76a2.433 2.433 0 0 1-2.438 2.433 2.432 2.432 0 0 1 0-4.863A2.434 2.434 0 0 1 77.07 76zM69.006 76a2.43 2.43 0 0 1-2.435 2.433 2.43 2.43 0 0 1 0-4.863A2.43 2.43 0 0 1 69.007 76zM60.946 76a2.432 2.432 0 0 1-2.433 2.433 2.432 2.432 0 0 1 0-4.863A2.433 2.433 0 0 1 60.946 76zM52.887 76a2.432 2.432 0 0 1-2.435 2.433A2.428 2.428 0 0 1 48.02 76a2.43 2.43 0 0 1 2.432-2.43A2.433 2.433 0 0 1 52.887 76zM44.827 76c0 1.347-1.1 2.433-2.438 2.433a2.43 2.43 0 0 1 0-4.863A2.44 2.44 0 0 1 44.826 76zM36.763 76a2.43 2.43 0 0 1-2.43 2.433 2.432 2.432 0 0 1 0-4.863 2.43 2.43 0 0 1 2.43 2.43zM28.708 76a2.434 2.434 0 0 1-2.442 2.433 2.432 2.432 0 0 1 0-4.863c1.35 0 2.442 1.09 2.442 2.43zM77.07 89.937a2.436 2.436 0 0 1-4.87 0 2.435 2.435 0 0 1 4.87 0zM28.708 89.937a2.438 2.438 0 1 1-4.877.007 2.438 2.438 0 0 1 4.878-.007z"/><path fill="#1D1D1B" d="M87.587 40.164a1.95 1.95 0 0 1-1.944 1.945h-70.97a1.944 1.944 0 0 1-1.936-1.946 1.94 1.94 0 0 1 1.937-1.943h70.97c1.07 0 1.943.873 1.943 1.944z"/><path fill="#445258" d="M35.076 44.12L25.01 54.996C31.486 61.35 40.364 65.27 50.16 65.27c9.793 0 18.667-3.92 25.147-10.274L65.24 44.12H35.076z"/><path opacity=".2" d="M50.16 62.768c-9.09 0-17.39-3.52-23.717-9.32l-1.434 1.548C31.486 61.35 40.364 65.27 50.16 65.27c9.793 0 18.667-3.92 25.147-10.274l-1.43-1.55c-6.325 5.8-14.626 9.322-23.716 9.322z"/><path fill="#FFE4C0" d="M22.6 0c3.57 0 6.47 3.035 6.47 6.78H16.125v35.438H83.68V0H22.6z"/><path fill="#FFE4C0" d="M22.6 0c-3.572 0-6.476 3.035-6.476 6.78H29.07c0-3.745-2.9-6.78-6.47-6.78z"/><path opacity=".2" d="M16.125 40.536H83.68v1.682H16.125z"/><path fill="#FFE4C0" d="M83.68 0h6.47v6.214h-6.47z"/><path fill="#CEAD84" d="M90.15.135a6.472 6.472 0 0 0-6.47 6.47H96.62A6.467 6.467 0 0 0 90.15.136z"/><path fill="#FFE4C0" d="M40.926 42.11v2.907a2.278 2.278 0 0 0 2.28 2.276H57.12c1.25 0 2.27-1.02 2.27-2.276V42.11H40.925z"/><path opacity=".2" d="M40.926 42.11v2.907a2.278 2.278 0 0 0 2.28 2.276H57.12c1.25 0 2.27-1.02 2.27-2.276V42.11H40.925zM6.93 21.967c.032-.135.06-.28.06-.43v-4.628c0-.91-.74-1.645-1.644-1.645H1.644c-.79 0-1.45.557-1.604 1.3l6.89 5.402z"/><path opacity=".3" d="M41.807 19.857c0 .578-.465 1.04-1.033 1.04h-18.65a1.034 1.034 0 0 1-1.034-1.04V5.74c0-.572.462-1.03 1.035-1.03h18.648a1.03 1.03 0 0 1 1.033 1.03v14.117zM73.724 6.06c0 .57-.46 1.036-1.03 1.036h-26.31a1.04 1.04 0 0 1-1.036-1.036v-.457c0-.573.467-1.036 1.035-1.036h26.31c.572 0 1.03.462 1.03 1.036v.457zM79.214 13.03c0 .573-.465 1.03-1.04 1.03h-31.92a1.03 1.03 0 0 1-1.037-1.03v-.458c0-.57.462-1.032 1.036-1.032h31.922c.574 0 1.04.463 1.04 1.032v.458zM79.343 19.89c0 .575-.468 1.033-1.037 1.033H46.383a1.034 1.034 0 0 1-1.035-1.034v-.456c0-.57.467-1.036 1.035-1.036h31.923a1.04 1.04 0 0 1 1.037 1.036v.455zM79.214 26.147c0 .572-.465 1.035-1.04 1.035h-56.05a1.034 1.034 0 0 1-1.034-1.035v-.45a1.04 1.04 0 0 1 1.035-1.043h56.05c.574 0 1.04.47 1.04 1.042v.45zM79.214 32.714a1.04 1.04 0 0 1-1.04 1.036h-56.05a1.037 1.037 0 0 1-1.034-1.036v-.452a1.03 1.03 0 0 1 1.035-1.033h56.05c.574 0 1.04.456 1.04 1.032v.452z"/><path opacity=".2" d="M83.04 44.463l-8.955 15.523-11.942-11.94-24.678 58.948 52.143.758 10.15-31.048z"/><g><path fill="#0799E2" d="M117.63 46.858c-1.198.095-2.412.146-3.646.146-10.186 0-19.107-3.227-24.107-8.068-2.392 2.315-5.69 4.255-9.583 5.66.02 1.462.122 9.145.245 9.108.135-.04 5.56 7.74 5.56 7.74l1.895 9.728 6.815 4.634-9.48-3.178-2.646-9.128-7.925-6.726-1.89-10.313a46.116 46.116 0 0 1-10.747.398c-2.105 4.506-3.293 10.056-3.293 16.775 0 23.02 18.878 43.315 31.046 43.315 13.027 0 31.046-20.295 31.046-43.315 0-6.718-1.188-12.268-3.293-16.775z"/><path opacity=".1" fill="#010000" d="M117.63 46.858c-1.198.095-2.412.146-3.646.146-10.05 0-18.863-3.144-23.898-7.88v67.814c13.01-.21 30.836-20.406 30.836-43.305 0-6.718-1.188-12.268-3.293-16.775z"/></g></svg>