<svg xmlns="http://www.w3.org/2000/svg" width="146.449" height="108.964" viewBox="0 0 146.449 108.964"><path opacity=".2" fill="#010000" d="M88.723 61.104l-.876-.133 1.282-8.42.875.134z"/><path fill="#A8A8A8" d="M120.62 66.012l-12.51-1.922 1.294-8.418 12.51 1.922z"/><path opacity=".2" fill="#010000" d="M108.997 64.22l-.877-.133 1.284-8.42.877.134z"/><path opacity=".2" fill="#010000" d="M121.788 58.44l-12.51-1.922.204-1.332 12.51 1.92z"/><path fill="#919191" d="M109.558 54.674L122.07 56.6l-.21 1.33-12.505-1.923z"/><path fill="#FF4040" d="M13.7 99.876c1.042 5.12 3.965 8.844 8.85 8.844h87.355c4.886 0 7.89-3.985 8.846-8.844l7.976-42.29c0-4.886-11.935 1.384-16.82 1.384h-92.56c-4.882 0-10.923-4.884-10.923 0L13.7 99.876z"/><path opacity=".1" d="M13.7 97.962c1.042 5.117 3.965 8.847 8.85 8.847h87.355c4.886 0 7.89-3.99 8.846-8.848l7.785-41.283c.122.243.19.544.19.907l-7.975 42.29c-.955 4.858-3.96 8.844-8.846 8.844H22.548c-4.884 0-7.807-3.723-8.85-8.843L6.424 58.97c0-.442.047-.803.145-1.098l7.132 40.09z"/><path opacity=".2" d="M6.423 58.97c0-.835.186-1.37.507-1.708 1.39.374 2.82.67 4.174.67h1.377c1.582.527 3.284 1.04 4.866 1.04h92.558c1.33 0 3.176-.462 5.167-1.04h.33c2.386 0 6.26-1.177 9.885-2.113.897.195 1.44.726 1.44 1.766l-1.327 7.042H76.453c-2.19 3.303-6.225 5.526-10.855 5.526-4.63 0-8.668-2.223-10.854-5.526H7.428L6.423 58.97z"/><path fill="#FF5252" d="M1.08 58.325a3.05 3.05 0 0 0 3.052 3.053H127.28a3.052 3.052 0 0 0 3.054-3.053l1.075-5.204a3.05 3.05 0 0 0-3.053-3.05H3.057A3.055 3.055 0 0 0 0 53.12l1.08 5.205z"/><path opacity=".2" fill="#FFF" d="M128.356 51.498H3.056c-1.402 0-2.568.948-2.925 2.233L0 53.12c0-1.685 1.37-3.05 3.057-3.05h125.3a3.05 3.05 0 0 1 3.052 3.05l-.124.61a3.047 3.047 0 0 0-2.93-2.232z"/><path opacity=".2" d="M78.448 55.723c0 2.035-.49 3.95-1.34 5.655H54.303a12.63 12.63 0 0 1-1.338-5.655c0-2.033.49-3.95 1.338-5.653H77.11c.848 1.703 1.338 3.62 1.338 5.653z"/><circle fill="#FF5252" cx="65.707" cy="55.723" r="11.181"/><path opacity=".2" d="M57.02 55.723c0 4.797 3.887 8.69 8.687 8.69a8.69 8.69 0 0 0 8.69-8.69c0-4.8-3.887-8.69-8.69-8.69-4.8 0-8.688 3.89-8.688 8.69z"/><g opacity=".3"><path d="M15.76 79.34c0 1.197.972 2.167 2.17 2.167 1.195 0 2.164-.97 2.164-2.166v-9.707a2.166 2.166 0 0 0-4.333 0v9.708zM24.607 79.34a2.167 2.167 0 0 0 4.334 0v-9.707c0-1.2-.97-2.167-2.167-2.167a2.164 2.164 0 0 0-2.166 2.167v9.708zM33.447 79.34a2.17 2.17 0 0 0 2.17 2.167c1.198 0 2.166-.97 2.166-2.166v-9.707a2.17 2.17 0 0 0-4.336 0v9.708zM42.294 79.34a2.166 2.166 0 0 0 4.334 0v-9.707a2.167 2.167 0 0 0-4.334 0v9.708zM51.14 79.34c0 1.197.97 2.167 2.168 2.167 1.197 0 2.164-.97 2.164-2.166v-9.707a2.167 2.167 0 0 0-4.333 0v9.708zM59.982 79.34a2.166 2.166 0 0 0 4.334 0v-9.707a2.167 2.167 0 0 0-4.334 0v9.708zM68.83 79.34a2.166 2.166 0 0 0 4.332 0v-9.707c0-1.2-.97-2.167-2.165-2.167a2.168 2.168 0 0 0-2.168 2.167v9.708zM77.674 79.34a2.165 2.165 0 0 0 4.332 0v-9.707a2.165 2.165 0 0 0-4.332 0v9.708zM86.517 79.34c0 1.197.97 2.167 2.167 2.167 1.2 0 2.166-.97 2.166-2.166v-9.707a2.166 2.166 0 0 0-4.333 0v9.708zM95.363 79.34c0 1.197.972 2.167 2.168 2.167 1.2 0 2.166-.97 2.166-2.166v-9.707a2.166 2.166 0 0 0-4.333 0v9.708zM104.208 79.34a2.166 2.166 0 0 0 4.334 0v-9.707c0-1.2-.97-2.167-2.166-2.167-1.2 0-2.168.968-2.168 2.167v9.708zM113.054 79.34a2.166 2.166 0 0 0 4.334 0v-9.707c0-1.2-.97-2.167-2.166-2.167a2.166 2.166 0 0 0-2.168 2.167v9.708z"/></g><g opacity=".3"><path d="M24.607 98.32c0 1.2.967 2.167 2.166 2.167a2.166 2.166 0 0 0 2.168-2.167v-9.707a2.166 2.166 0 0 0-4.334 0v9.707zM33.447 98.32c0 1.2.974 2.167 2.17 2.167a2.164 2.164 0 0 0 2.166-2.167v-9.707a2.165 2.165 0 0 0-2.166-2.166 2.17 2.17 0 0 0-2.17 2.166v9.707zM42.294 98.32c0 1.2.972 2.167 2.168 2.167a2.165 2.165 0 0 0 2.166-2.167v-9.707c0-1.195-.97-2.166-2.166-2.166a2.17 2.17 0 0 0-2.168 2.166v9.707zM51.14 98.32c0 1.2.97 2.167 2.168 2.167a2.163 2.163 0 0 0 2.164-2.167v-9.707a2.165 2.165 0 0 0-2.164-2.166c-1.198 0-2.17.97-2.17 2.166v9.707zM59.982 98.32c0 1.2.972 2.167 2.168 2.167a2.165 2.165 0 0 0 2.166-2.167v-9.707c0-1.195-.97-2.166-2.166-2.166a2.17 2.17 0 0 0-2.168 2.166v9.707zM68.83 98.32a2.165 2.165 0 0 0 4.332 0v-9.707c0-1.195-.97-2.166-2.165-2.166a2.17 2.17 0 0 0-2.168 2.166v9.707zM77.674 98.32c0 1.2.97 2.167 2.167 2.167a2.164 2.164 0 0 0 2.166-2.167v-9.707a2.167 2.167 0 0 0-4.332 0v9.707zM86.517 98.32c0 1.2.97 2.167 2.167 2.167 1.2 0 2.166-.968 2.166-2.167v-9.707a2.165 2.165 0 0 0-2.166-2.166c-1.196 0-2.167.97-2.167 2.166v9.707zM95.363 98.32c0 1.2.972 2.167 2.168 2.167a2.163 2.163 0 0 0 2.166-2.167v-9.707a2.165 2.165 0 0 0-2.165-2.166c-1.196 0-2.167.97-2.167 2.166v9.707zM104.208 98.32c0 1.2.97 2.167 2.168 2.167a2.165 2.165 0 0 0 2.166-2.167v-9.707a2.167 2.167 0 0 0-4.334 0v9.707z"/></g><path opacity=".1" d="M99.77 108.72H22.55c-4.885 0-7.808-3.724-8.85-8.844L7.062 62.55c29.242 14.625 70.562 35.255 92.707 46.17z"/><path fill="#4D4756" d="M61.18 60.25a6.41 6.41 0 0 0 9.025.863 6.412 6.412 0 0 0 .863-9.03L30.003 1.567c-2.25-2.73-4.973-1.512-7.7.743-2.734 2.256-4.443 4.695-2.188 7.424L61.18 60.25z"/><path opacity=".2" d="M59.28 53.052l5.08-4.195L30.14 6.63l-5.08 4.193z"/><path fill="#FF5252" d="M62.71 57.75a3.634 3.634 0 0 0 5.123.49 3.64 3.64 0 1 0-5.123-.49z"/><path opacity=".2" d="M143.174 75.626l-25.18-25.807-30.164.794-25.872 58.35 60.417-.055z"/><g><path fill="#FFCE12" d="M143.156 48.83c-1.197.094-2.41.145-3.646.145-10.187 0-19.108-3.227-24.107-8.068-2.392 2.315-5.688 4.255-9.583 5.66.018 1.462.123 9.145.244 9.108.136-.04 5.562 7.74 5.562 7.74l1.893 9.728 6.815 4.634-9.48-3.178-2.645-9.13-7.924-6.726-1.888-10.313a46.126 46.126 0 0 1-10.747.398c-2.105 4.506-3.293 10.056-3.293 16.775 0 23.02 18.878 43.315 31.046 43.315 13.028 0 31.045-20.295 31.045-43.315 0-6.718-1.187-12.268-3.292-16.774z"/><path opacity=".1" fill="#010000" d="M143.156 48.83c-1.197.094-2.41.145-3.646.145-10.05 0-18.863-3.144-23.897-7.88v67.814c13.008-.21 30.835-20.407 30.835-43.306 0-6.72-1.187-12.27-3.292-16.775z"/></g></svg>