<svg xmlns="http://www.w3.org/2000/svg" width="47.639" height="47.137" viewBox="0 0 47.639 47.137"><path fill="#007334" d="M47.27 22.575L25.313.618a2.112 2.112 0 0 0-2.986 0L.368 22.575l23.45 20.57 23.453-20.57z"/><circle fill="#FFC800" cx="23.819" cy="28.715" r="17.718"/><path fill="#FFD76C" d="M13.398 43.04l22.19-27.565a17.652 17.652 0 0 0-11.77-4.478c-9.785 0-17.718 7.934-17.718 17.72.002 5.887 2.877 11.1 7.298 14.323z"/><path fill="#009F4D" d="M26.485 35.403c-1.473.896-3.86.896-5.333 0L.062 22.576a1.4 1.4 0 0 0-.062.39V45.73c0 .776.63 1.407 1.408 1.407H46.23a1.41 1.41 0 0 0 1.408-1.408V22.965c0-.136-.025-.265-.062-.39l-21.09 12.827z"/><path fill="#00B459" d="M.624 46.94c.225.123.494.196.784.196h44.82c.293 0 .563-.073.786-.196L25.312 35.438c-.825-.437-2.162-.437-2.987 0L.625 46.94z"/><path fill="#444846" d="M34.88 20.386l-4.094-3.34-7.888 9.67-4.97-4.067-3.347 4.09 8.92 7.293z"/></svg>