<svg xmlns="http://www.w3.org/2000/svg" width="292.681" height="215.363" viewBox="0 0 292.681 215.363"><path fill="#575756" d="M229.32 204.15s-13.652-39.134-16.99-46.11c-3.332-6.978-7.177-9.872-12.116-12.12-4.94-2.256-55.874-24.632-55.874-24.632l-29.18 2.235-29.165-2.235s-50.935 22.376-55.86 24.63c-4.94 2.25-8.78 5.144-12.132 12.122-3.337 6.976-16.976 46.11-16.976 46.11s-4.25 11.213 4.542 11.213H224.78c8.798 0 4.54-11.213 4.54-11.213"/><path fill="#DADADA" d="M143.242 215.363l17.14-87.274-46.704 22.28-46.522-22.28 18.8 87.273z"/><path fill="#E9B990" d="M140.244 122.707c0 13.485-11.744 24.415-26.228 24.415-14.487 0-26.22-10.93-26.22-24.415V94.9c0-13.493 11.732-24.43 26.22-24.43 14.483 0 26.228 10.937 26.228 24.43v27.807z"/><path fill="#FFC58F" d="M140.244 118.287c0 13.5-11.744 24.435-26.228 24.435-14.487 0-26.22-10.936-26.22-24.435V90.494c0-13.496 11.732-24.437 26.22-24.437 14.483 0 26.228 10.94 26.228 24.437v27.793z"/><path fill="#FFD196" d="M156.54 57.32c-.604-.055-1.158.075-1.716.215-3.506-26.345-19.913-46.28-39.636-46.28-34.28 0-36.166 19.935-39.68 46.28-.542-.14-1.097-.27-1.693-.214a5.517 5.517 0 0 0-5.113 5.94l1.134 15.445c.24 3.04 2.888 5.337 5.926 5.113.23-.015.385-.123.6-.158 4.818 23.798 20.352 41.26 38.827 41.26 18.446 0 33.964-17.462 38.804-41.26.2.036.367.144.586.158 3.04.224 5.692-2.073 5.916-5.113l1.15-15.446a5.53 5.53 0 0 0-5.106-5.94"/><g fill="#7C5947"><path d="M76.29 60.732c0 1.187-.985 2.11-2.193 2.11s-2.183-.923-2.183-2.11c0-1.16.975-2.093 2.183-2.093s2.193.933 2.193 2.092M158.434 60.732c0 1.187-.975 2.11-2.19 2.11-1.21 0-2.19-.923-2.19-2.11 0-1.16.98-2.093 2.19-2.093 1.215 0 2.19.933 2.19 2.092"/><path d="M115.188 0C91.28 0 71.914 16.785 71.914 37.518v23.214h4.376v-8.5c0-7.14 3.412-8.66 6.124-6.818 0 0 13.803 8.27 34.587 0 32.873-13.078 37.055 3.062 37.055 6.818v8.5h4.38V37.518C158.435 16.785 139.063 0 115.188 0"/></g><path fill="#FC762B" d="M130.642 145.892H100.42l12.676 25.71-7.997 43.76h21.713l-8.25-43.76z"/><path fill="#F6F6F6" d="M144.163 116.984l16.263 10.645-21.337 42.116-25.315-23.854z"/><path fill="#F6F6F6" d="M85.127 116.984l-16.26 10.645 21.342 42.116 25.316-23.854z"/><path opacity=".5" fill="#1D1D1B" d="M154.58 215.363c4.534-12.463 9.863-27.904 9.863-27.904l-2.7-14.665 7.777-3.883 5.998-33.543-13.183-6.272-21.32 86.265h13.564z"/><path fill="#5E5E5E" d="M152.67 215.363c4.596-12.564 10.09-28.51 10.09-28.51l-2.697-14.66 7.773-3.893 5.998-33.523-13.178-6.27-21.464 86.855h13.477z"/><path opacity=".5" fill="#1D1D1B" d="M74.67 215.363C70.138 202.9 64.81 187.46 64.81 187.46l2.687-14.665-7.78-3.883-5.98-33.543 13.17-6.272 21.327 86.265h-13.56z"/><path fill="#5E5E5E" d="M76.58 215.363c-4.59-12.564-10.086-28.51-10.086-28.51l2.7-14.66L61.4 168.3l-5.983-33.523 13.175-6.27 21.466 86.855H76.58z"/><path opacity=".1" d="M229.32 204.15s-13.652-39.134-16.99-46.11c-3.332-6.978-7.177-9.872-12.116-12.12-2.8-1.29-20.38-9.028-35.08-15.494l-2.798-1.33-.015.087a62.363 62.363 0 0 1-1.98-.865l.043-.23-.262.13.307-.59-16.264-10.644-3.92 3.747v-8.16c6.498-7.3 11.398-17.342 13.75-28.91.2.036.367.144.586.158 3.04.224 5.69-2.073 5.915-5.113l1.15-15.446a5.5 5.5 0 0 0-3.21-5.423v-20.32C158.434 16.785 139.062 0 115.187 0h-.233v215.363H224.78c8.798 0 4.54-11.213 4.54-11.213zM154.055 52.232v.636a69.364 69.364 0 0 0-1.247-5.27c.974 1.894 1.247 3.684 1.247 4.634z"/><path opacity=".2" d="M216.89 183.476l-51.757-53.05-17.28-8.624-42.754 93.56 124.195-.112z"/><path fill="#FF7B22" d="M285.914 91.747c-2.46.194-4.96.3-7.494.3-20.94 0-39.278-6.632-49.556-16.584-4.92 4.76-11.692 8.747-19.697 11.636.035 3.005.25 18.797.5 18.722.28-.083 11.434 15.913 11.434 15.913l3.893 19.996 14.012 9.526-19.488-6.534-5.438-18.767-16.29-13.825-3.88-21.2a94.663 94.663 0 0 1-14.595 1.118c-2.545 0-5.045-.106-7.5-.3-4.33 9.262-6.77 20.67-6.77 34.483 0 47.322 38.81 89.042 63.82 89.042 26.78 0 63.817-41.72 63.817-89.04 0-13.813-2.442-25.222-6.768-34.485z"/><path opacity=".1" fill="#010000" d="M285.914 91.747c-2.46.194-4.96.3-7.494.3-20.656 0-38.775-6.463-49.124-16.196v139.4c26.738-.434 63.386-41.948 63.386-89.02 0-13.81-2.442-25.22-6.768-34.483z"/></svg>