<svg xmlns="http://www.w3.org/2000/svg" width="279.172" height="248.607" viewBox="0 0 279.172 248.607"><path fill="#E0E0E0" d="M279.138 6.603c-.34-3.7-3.447-6.603-7.232-6.603H7.216C3.456 0 .37 2.902.033 6.603H0V242.005h.033c.34 3.7 3.447 6.603 7.232 6.603H271.956c3.76 0 6.845-2.902 7.183-6.603h.032V6.604h-.034z"/><path fill="#D3D3D3" d="M174.614 28.48H0v10.593h279.172V28.48z"/><path fill="#444" d="M271.906 0H7.266C3.254 0 0 3.26 0 7.276V29.1h279.173V7.275c0-4.016-3.254-7.276-7.267-7.276z"/><path fill="#2CB740" d="M21.65 14.938c0 3.18-2.58 5.753-5.755 5.753a5.756 5.756 0 0 1-5.76-5.752 5.76 5.76 0 0 1 11.516 0z"/><path fill="#F16442" d="M39.192 14.938a5.758 5.758 0 0 1-5.764 5.753 5.753 5.753 0 0 1-5.75-5.752 5.756 5.756 0 0 1 11.514 0z"/><path fill="#FFF" d="M261.464 8.83H48.852c-3.318 0-6.042 2.577-6.042 5.764 0 3.175 2.724 5.754 6.042 5.754h212.611c3.16 0 5.754-2.58 5.754-5.754 0-3.187-2.592-5.765-5.753-5.765z"/><path fill="#FCD22E" d="M63.418 56.11c-.064 0-.12.036-.12.074 0 .046.056.085.12.085.068 0 .12-.04.12-.086 0-.038-.052-.075-.12-.075z"/><path fill="#444" d="M199.312 72.074c0 .89-.723 1.61-1.616 1.61H22.464c-.89 0-1.613-.72-1.613-1.61 0-.893.724-1.616 1.614-1.616h175.23c.895 0 1.618.723 1.618 1.616zM199.312 65.618c0 .895-.723 1.613-1.616 1.613H22.464a1.61 1.61 0 0 1-1.613-1.612c0-.886.724-1.614 1.614-1.614h175.23c.895 0 1.618.727 1.618 1.614zM199.312 59.167c0 .886-.723 1.613-1.616 1.613H22.464a1.612 1.612 0 0 1 0-3.226h175.232c.894 0 1.617.72 1.617 1.613zM74.354 50.938a2.556 2.556 0 0 1-2.557 2.55H23.4a2.55 2.55 0 0 1 0-5.102h48.396a2.553 2.553 0 0 1 2.558 2.552zM16.632 50.938a2.737 2.737 0 1 1-5.473-.003 2.737 2.737 0 0 1 5.472.003z"/><path fill="#BFBFBF" d="M199.312 130.552c0 .89-.723 1.612-1.616 1.612H22.464a1.616 1.616 0 0 1 0-3.23h175.232c.894 0 1.617.725 1.617 1.618zM199.312 124.096c0 .895-.723 1.62-1.616 1.62H22.464c-.89 0-1.613-.726-1.613-1.62a1.61 1.61 0 0 1 1.614-1.607h175.23c.895-.002 1.618.718 1.618 1.606zM199.312 117.648c0 .883-.723 1.61-1.616 1.61H22.464c-.89 0-1.613-.728-1.613-1.61 0-.894.724-1.616 1.614-1.616h175.23c.895 0 1.618.722 1.618 1.616z"/><path fill="#A0A0A0" d="M74.354 109.42c0 1.4-1.145 2.547-2.557 2.547H23.4a2.554 2.554 0 0 1-2.55-2.548 2.553 2.553 0 0 1 2.55-2.555h48.396a2.556 2.556 0 0 1 2.558 2.554zM16.632 109.412a2.733 2.733 0 0 1-2.737 2.738 2.733 2.733 0 0 1-2.734-2.738 2.736 2.736 0 1 1 5.472 0z"/><path fill="#BFBFBF" d="M199.312 159.812a1.61 1.61 0 0 1-1.616 1.61H22.464a1.612 1.612 0 0 1 0-3.223h175.232c.894-.002 1.617.72 1.617 1.612zM199.312 153.357c0 .894-.723 1.614-1.616 1.614H22.464c-.89 0-1.613-.72-1.613-1.613 0-.888.724-1.613 1.614-1.613h175.23c.895 0 1.618.725 1.618 1.613zM199.312 146.905c0 .886-.723 1.612-1.616 1.612H22.464a1.614 1.614 0 0 1 0-3.227h175.232c.894 0 1.617.723 1.617 1.615z"/><path fill="#A0A0A0" d="M74.354 138.678a2.555 2.555 0 0 1-2.557 2.55H23.4a2.55 2.55 0 0 1 0-5.1h48.396a2.553 2.553 0 0 1 2.558 2.55zM16.632 138.678a2.735 2.735 0 1 1-5.47-.004 2.735 2.735 0 0 1 5.47.004z"/><g><path fill="#BFBFBF" d="M199.312 197.955a1.61 1.61 0 0 1-1.616 1.607H22.464c-.89 0-1.613-.717-1.613-1.607 0-.892.724-1.62 1.614-1.62h175.23a1.62 1.62 0 0 1 1.618 1.62zM199.312 191.5c0 .89-.723 1.612-1.616 1.612H22.464c-.89 0-1.613-.72-1.613-1.613 0-.887.724-1.61 1.614-1.61h175.23c.895 0 1.618.722 1.618 1.61zM199.312 185.05c0 .885-.723 1.612-1.616 1.612H22.464a1.615 1.615 0 0 1 0-3.23h175.232c.894 0 1.617.723 1.617 1.616z"/><path fill="#A0A0A0" d="M74.354 176.82a2.558 2.558 0 0 1-2.557 2.55H23.4a2.55 2.55 0 0 1 0-5.102h48.396a2.553 2.553 0 0 1 2.558 2.55zM16.632 176.82a2.738 2.738 0 0 1-2.737 2.735 2.738 2.738 0 0 1-2.734-2.736 2.733 2.733 0 0 1 2.735-2.735 2.732 2.732 0 0 1 2.737 2.734z"/></g><path fill="#BFBFBF" d="M22.574 78.584h36.948v22.934H22.574z"/><g><path fill="#BFBFBF" d="M199.312 233.533c0 .886-.723 1.61-1.616 1.61H22.464a1.613 1.613 0 0 1 0-3.223h175.232c.894 0 1.617.72 1.617 1.613zM199.312 227.076c0 .893-.723 1.612-1.616 1.612H22.464a1.61 1.61 0 0 1-1.613-1.612c0-.887.724-1.613 1.614-1.613h175.23c.895 0 1.618.726 1.618 1.613zM199.312 220.623c0 .89-.723 1.613-1.616 1.613H22.464c-.89 0-1.613-.723-1.613-1.613s.724-1.614 1.614-1.614h175.23c.895 0 1.618.723 1.618 1.613z"/><path fill="#A0A0A0" d="M74.354 212.395a2.557 2.557 0 0 1-2.557 2.55H23.4a2.553 2.553 0 0 1 0-5.104h48.396a2.556 2.556 0 0 1 2.558 2.555z"/><circle fill="#A0A0A0" cx="13.896" cy="212.395" r="2.736"/></g><path fill="#BFBFBF" d="M69.157 78.584h36.948v22.934H69.157zM114.973 78.584h36.946v22.934h-36.947zM161.554 78.584h36.95v22.934h-36.95zM207.952 50.744h59.566V152.29h-59.566zM207.952 167.41h59.566v53.73h-59.566z"/><g><g fill="#878787"><path d="M166.33 198.587a2.775 2.775 0 0 1-2.775 2.777h-8.017a2.777 2.777 0 0 1-2.78-2.777V120.07a2.778 2.778 0 0 1 2.78-2.777h8.017a2.776 2.776 0 0 1 2.776 2.778v78.517zM257.49 198.587a2.77 2.77 0 0 1-2.775 2.777h-8.02a2.774 2.774 0 0 1-2.774-2.777V120.07a2.775 2.775 0 0 1 2.776-2.777h8.02a2.772 2.772 0 0 1 2.773 2.778v78.517z"/></g><path fill="#EDEDED" d="M251.325 87.524H158.93a2.783 2.783 0 0 0-2.782 2.78v81.677h.01v1.59c0 4.943 4.14 8.024 9.25 8.024h79.44c5.112 0 9.253-3.08 9.253-8.023V90.306a2.782 2.782 0 0 0-2.775-2.78z"/><path fill="#4C4C4C" d="M254.1 245.452a2.776 2.776 0 0 1-2.774 2.776h-92.393a2.772 2.772 0 0 1-2.775-2.776V90.305a2.776 2.776 0 0 1 2.775-2.78h92.393a2.78 2.78 0 0 1 2.774 2.78v155.147z"/><path opacity=".1" d="M224.85 181.73c0 10.89-8.833 19.72-19.722 19.72-10.896 0-19.718-8.83-19.718-19.72 0-10.892 8.82-19.72 19.718-19.72 10.89 0 19.722 8.828 19.722 19.72z"/><path opacity=".1" d="M251.325 91.758H158.93a2.78 2.78 0 0 0-2.782 2.776v81.678h.01v1.59c0 4.944 4.14 8.024 9.25 8.024h79.44c5.112 0 9.253-3.08 9.253-8.023V94.533a2.78 2.78 0 0 0-2.775-2.775z"/><path fill="#5E5E5E" d="M251.325 87.524H158.93a2.783 2.783 0 0 0-2.782 2.78v81.677h.01v1.59c0 4.943 4.14 8.024 9.25 8.024h79.44c5.112 0 9.253-3.08 9.253-8.023V90.306a2.782 2.782 0 0 0-2.775-2.78z"/><path fill="#50CEFF" d="M224.47 148.332h-31.76c-6.178 0-11.197-5.026-11.197-11.203 0-6.178 5.02-11.203 11.197-11.203.366 0 .725.016 1.09.054a13.775 13.775 0 0 1 11.072-5.56c5.79 0 10.86 3.514 12.9 8.848a9.468 9.468 0 0 1 8.74 6.106 6.663 6.663 0 0 1 4.6 6.32c0 3.66-2.98 6.638-6.64 6.638zm-31.76-19.924c-4.805 0-8.72 3.913-8.72 8.72 0 4.812 3.915 8.724 8.72 8.724h31.76a4.163 4.163 0 0 0 4.163-4.155 4.168 4.168 0 0 0-3.325-4.074l-.727-.146-.217-.71c-.965-3.2-4.046-5.26-7.37-4.99l-.99.08-.292-.953c-1.467-4.79-5.823-8.003-10.838-8.003a11.31 11.31 0 0 0-9.457 5.096l-.45.673-.795-.137a8.717 8.717 0 0 0-1.46-.125z"/><path fill="#878787" d="M221.633 181.73c0 9.113-7.39 16.506-16.505 16.506-9.12 0-16.506-7.394-16.506-16.505 0-9.114 7.387-16.503 16.506-16.503 9.115 0 16.505 7.39 16.505 16.504z"/><path fill="#878787" d="M189.06 181.99h-24.728c-5.196 0-9.428-4.225-9.428-9.42h.8c0 4.757 3.87 8.628 8.628 8.628h24.73v.793zM245.587 181.99h-24.73v-.792h24.73c4.76 0 8.628-3.868 8.628-8.626h.8c0 5.193-4.233 9.42-9.428 9.42z"/><path fill="#50CEFF" d="M219.934 181.73c0 8.18-6.63 14.807-14.806 14.807-8.183 0-14.81-6.627-14.81-14.806 0-8.176 6.627-14.806 14.81-14.806 8.175 0 14.806 6.63 14.806 14.807z"/><path fill="#727272" d="M218.087 181.73c0 7.158-5.807 12.956-12.96 12.956-7.16 0-12.957-5.798-12.957-12.955 0-7.153 5.798-12.956 12.958-12.956 7.152 0 12.96 5.803 12.96 12.957z"/><path opacity=".1" d="M164.175 87.524h-5.242a2.776 2.776 0 0 0-2.775 2.78v155.148a2.772 2.772 0 0 0 2.775 2.776h5.242V87.524zM246.078 87.524h5.247a2.78 2.78 0 0 1 2.774 2.78v155.148a2.776 2.776 0 0 1-2.775 2.776h-5.247V87.524z"/><g fill="#3DC2EA"><path d="M205.128 189.907c-4.104 0-7.443-3.34-7.443-7.445 0-1.916.73-3.743 2.062-5.13a1.137 1.137 0 0 1 1.612-.04c.452.43.47 1.157.04 1.612a5.115 5.115 0 0 0-1.436 3.558c0 2.846 2.318 5.16 5.164 5.16s5.16-2.314 5.16-5.16c0-1.326-.507-2.59-1.432-3.558a1.143 1.143 0 0 1 .037-1.612 1.137 1.137 0 0 1 1.613.04 7.383 7.383 0 0 1 2.062 5.13c0 4.105-3.34 7.445-7.44 7.445z"/><path d="M206.304 182.264a1.18 1.18 0 0 1-1.176 1.177c-.65 0-1.18-.53-1.18-1.176v-7.532a1.178 1.178 0 0 1 2.356 0v7.532z"/></g><path opacity=".05" d="M195.968 190.893c5.056 5.06 13.26 5.06 18.32 0 5.064-5.06 5.064-13.265 0-18.322l-18.32 18.323z"/><path fill="#50CEFF" d="M215.62 133.533a5.773 5.773 0 0 0-7.902-.246l-.003-.006-6.858 6.756v-.002a3.232 3.232 0 1 1 0-4.84v-.004l1.876 1.906 1.86-1.735-2.054-2.078-.01.006a5.768 5.768 0 0 0-7.898.246 5.78 5.78 0 0 0 0 8.16 5.77 5.77 0 0 0 7.898.244l.01.008 6.86-6.757v.003a3.232 3.232 0 0 1 4.426.135 3.237 3.237 0 0 1 0 4.57 3.235 3.235 0 0 1-4.426.135v.002l-1.93-1.92-1.822 1.776 2.066 2.056.003-.008a5.777 5.777 0 0 0 7.902-.243 5.774 5.774 0 0 0 0-8.162z"/><g fill="#4C4C4C"><path d="M170.65 87.524v8.26a.88.88 0 0 0 1.76 0v-8.26h-1.76zM174.167 87.524v8.26a.878.878 0 0 0 1.757 0v-8.26h-1.757zM177.685 87.524v8.26c0 .49.392.882.876.882a.88.88 0 0 0 .883-.88v-8.262h-1.758z"/></g><g fill="#4C4C4C"><path d="M231.49 87.524v8.26a.88.88 0 0 0 1.757 0v-8.26h-1.757zM235.005 87.524v8.26a.88.88 0 0 0 1.76 0v-8.26h-1.76zM238.522 87.524v8.26c0 .49.392.882.878.882a.884.884 0 0 0 .882-.88v-8.262h-1.76z"/></g><path opacity=".15" d="M156.157 243.615v1.837a2.772 2.772 0 0 0 2.775 2.776H251.324a2.776 2.776 0 0 0 2.774-2.776v-1.837h-97.94zM183.73 87.524v2.347a3.906 3.906 0 0 0 3.902 3.907h5.35v1.003a2.22 2.22 0 0 0 2.218 2.216h19.847c1.23 0 2.214-.995 2.214-2.216v-1.003h5.355a3.906 3.906 0 0 0 3.905-3.906v-2.346h-42.79z"/><path fill="#878787" d="M202.48 196.537h5.29v51.69h-5.29z"/><path fill="#50CEFF" d="M204.18 195.697h1.896v52.53h-1.897z"/><path opacity=".2" d="M254.715 117.293h-.615V90.305a2.78 2.78 0 0 0-2.774-2.78h-92.399a2.783 2.783 0 0 0-2.78 2.78v26.988h-.61a2.778 2.778 0 0 0-2.78 2.778v78.517a2.777 2.777 0 0 0 2.78 2.777h.62v44.088a2.772 2.772 0 0 0 2.774 2.776H251.323a2.776 2.776 0 0 0 2.774-2.776v-44.087h.615a2.77 2.77 0 0 0 2.774-2.778V120.07a2.768 2.768 0 0 0-2.77-2.777z"/><g><g fill="#878787"><path d="M42.574 198.587a2.776 2.776 0 0 1-2.774 2.777h-8.02a2.778 2.778 0 0 1-2.78-2.777V120.07a2.78 2.78 0 0 1 2.78-2.777h8.02a2.777 2.777 0 0 1 2.774 2.778v78.517zM133.733 198.587a2.778 2.778 0 0 1-2.776 2.777h-8.025a2.774 2.774 0 0 1-2.77-2.777V120.07a2.774 2.774 0 0 1 2.77-2.777h8.025a2.78 2.78 0 0 1 2.776 2.778v78.517z"/></g><path fill="#EDEDED" d="M127.56 87.524H35.172a2.782 2.782 0 0 0-2.78 2.78V173.572c0 4.943 4.145 8.024 9.256 8.024h79.437c5.114 0 9.256-3.08 9.256-8.023V90.306a2.78 2.78 0 0 0-2.78-2.78z"/><path fill="#4C4C4C" d="M130.34 245.452a2.774 2.774 0 0 1-2.772 2.776H35.172a2.778 2.778 0 0 1-2.78-2.776V90.305a2.782 2.782 0 0 1 2.78-2.78h92.396a2.778 2.778 0 0 1 2.772 2.78v155.147z"/><path opacity=".1" d="M101.085 181.73c0 10.89-8.83 19.72-19.717 19.72-10.896 0-19.723-8.83-19.723-19.72 0-10.892 8.826-19.72 19.723-19.72 10.887 0 19.717 8.828 19.717 19.72z"/><path opacity=".1" d="M127.56 91.758H35.172a2.78 2.78 0 0 0-2.78 2.776v83.268c0 4.944 4.145 8.024 9.256 8.024h79.437c5.114 0 9.256-3.08 9.256-8.023V94.533a2.777 2.777 0 0 0-2.78-2.775z"/><path fill="#5E5E5E" d="M127.56 87.524H35.172a2.782 2.782 0 0 0-2.78 2.78V173.572c0 4.943 4.145 8.024 9.256 8.024h79.437c5.114 0 9.256-3.08 9.256-8.023V90.306a2.78 2.78 0 0 0-2.78-2.78z"/><path fill="#50CEFF" d="M100.71 148.332H68.95c-6.175 0-11.202-5.026-11.202-11.203 0-6.178 5.027-11.203 11.2-11.203.367 0 .728.016 1.09.054a13.784 13.784 0 0 1 11.078-5.56c5.786 0 10.854 3.514 12.892 8.848a9.472 9.472 0 0 1 8.745 6.106 6.663 6.663 0 0 1 4.598 6.32c0 3.66-2.977 6.638-6.64 6.638zm-31.76-19.924c-4.805 0-8.72 3.913-8.72 8.72 0 4.812 3.915 8.724 8.72 8.724h31.76a4.16 4.16 0 0 0 4.157-4.155 4.165 4.165 0 0 0-3.32-4.074l-.728-.146-.213-.71c-.965-3.2-4.05-5.26-7.37-4.99l-.99.08-.296-.953c-1.467-4.79-5.822-8.003-10.833-8.003a11.32 11.32 0 0 0-9.465 5.096l-.446.673-.796-.137a8.693 8.693 0 0 0-1.46-.125z"/><path fill="#878787" d="M97.868 181.73c0 9.113-7.386 16.506-16.5 16.506s-16.505-7.394-16.505-16.505c0-9.114 7.39-16.503 16.505-16.503s16.5 7.39 16.5 16.504z"/><path fill="#878787" d="M65.295 181.99h-24.73c-5.19 0-9.42-4.225-9.42-9.42h.793c0 4.757 3.873 8.628 8.628 8.628h24.73v.793zM121.83 181.99H97.102v-.792h24.73c4.756 0 8.623-3.868 8.623-8.626h.796c0 5.193-4.223 9.42-9.42 9.42z"/><circle fill="#50CEFF" cx="81.368" cy="181.731" r="14.806"/><circle fill="#727272" cx="81.366" cy="181.731" r="12.957"/><path opacity=".1" d="M40.415 87.524h-5.243a2.782 2.782 0 0 0-2.78 2.78v155.148a2.778 2.778 0 0 0 2.78 2.776h5.243V87.524zM122.32 87.524h5.247a2.778 2.778 0 0 1 2.772 2.78v155.148a2.774 2.774 0 0 1-2.773 2.776h-5.246V87.524z"/><g fill="#3DC2EA"><path d="M81.368 189.907c-4.104 0-7.44-3.34-7.44-7.445a7.39 7.39 0 0 1 2.06-5.13 1.136 1.136 0 0 1 1.61-.04c.458.43.47 1.157.034 1.612a5.16 5.16 0 0 0-1.424 3.558 5.163 5.163 0 0 0 5.16 5.16 5.16 5.16 0 0 0 5.154-5.16c0-1.326-.503-2.59-1.426-3.558a1.14 1.14 0 0 1 .04-1.612 1.136 1.136 0 0 1 1.613.04 7.42 7.42 0 0 1 2.057 5.13c0 4.105-3.336 7.445-7.44 7.445z"/><path d="M82.538 182.264c0 .647-.523 1.177-1.17 1.177a1.18 1.18 0 0 1-1.18-1.176v-7.532a1.175 1.175 0 0 1 2.35 0v7.532z"/></g><path opacity=".05" d="M72.21 190.893c5.058 5.06 13.256 5.06 18.317 0 5.062-5.06 5.062-13.265 0-18.322L72.21 190.894z"/><path fill="#50CEFF" d="M91.86 133.533a5.772 5.772 0 0 0-7.902-.246l-.01-.006-6.854 6.756-.005-.002a3.223 3.223 0 0 1-4.417-.136 3.22 3.22 0 0 1 0-4.57 3.22 3.22 0 0 1 4.416-.134l.004-.004 1.88 1.906 1.856-1.735-2.053-2.078-.01.006a5.767 5.767 0 0 0-7.896.246 5.78 5.78 0 0 0 0 8.16 5.77 5.77 0 0 0 7.898.244l.01.008 6.856-6.757.005.003a3.226 3.226 0 0 1 4.42.135 3.237 3.237 0 0 1 0 4.57 3.23 3.23 0 0 1-4.42.135l-.006.002-1.926-1.92-1.822 1.776 2.06 2.056.01-.008a5.776 5.776 0 0 0 7.902-.243 5.774 5.774 0 0 0 0-8.162z"/><g fill="#4C4C4C"><path d="M46.895 87.524v8.26a.877.877 0 0 0 1.756 0v-8.26h-1.755zM50.41 87.524v8.26c0 .49.393.882.875.882a.882.882 0 0 0 .883-.88v-8.262H50.41zM53.92 87.524v8.26c0 .49.4.882.884.882a.88.88 0 0 0 .88-.88v-8.262H53.92z"/></g><g fill="#4C4C4C"><path d="M107.73 87.524v8.26c0 .49.395.882.877.882a.88.88 0 0 0 .88-.88v-8.262h-1.758zM111.248 87.524v8.26c0 .49.396.882.878.882s.88-.393.88-.88v-8.262h-1.758zM114.765 87.524v8.26a.878.878 0 0 0 1.757 0v-8.26h-1.757z"/></g><path opacity=".15" d="M32.393 243.615v1.837a2.778 2.778 0 0 0 2.78 2.776H127.567a2.774 2.774 0 0 0 2.772-2.776v-1.837H32.392zM59.97 87.524v2.347a3.906 3.906 0 0 0 3.907 3.907h5.348v1.003a2.22 2.22 0 0 0 2.216 2.216H91.29a2.217 2.217 0 0 0 2.218-2.216v-1.003h5.353a3.903 3.903 0 0 0 3.9-3.906v-2.346H59.97z"/><path fill="#878787" d="M78.72 196.537h5.29v51.69h-5.29z"/><path fill="#50CEFF" d="M80.42 195.697h1.896v52.53H80.42z"/><path opacity=".2" d="M130.957 117.293h-.617V90.305a2.778 2.778 0 0 0-2.772-2.78H35.172a2.782 2.782 0 0 0-2.78 2.78v26.988h-.613A2.78 2.78 0 0 0 29 120.07v78.517a2.778 2.778 0 0 0 2.78 2.777h.613v44.088a2.778 2.778 0 0 0 2.78 2.776h92.394a2.774 2.774 0 0 0 2.772-2.776v-44.087h.616a2.778 2.778 0 0 0 2.776-2.778V120.07a2.778 2.778 0 0 0-2.775-2.777z"/></g><path opacity=".2" d="M192.94 245.92l16.65-158.396 43.52 160.906-51.45-.202zM96.644 245.92L79.99 87.524 36.48 248.43l51.446-.202z"/><g><g fill="#878787"><path d="M95.515 183.604a3.467 3.467 0 0 1-3.47 3.467H82.033a3.47 3.47 0 0 1-3.47-3.466v-98.06a3.47 3.47 0 0 1 3.47-3.467h10.014a3.468 3.468 0 0 1 3.47 3.467v98.06zM209.363 183.604a3.468 3.468 0 0 1-3.468 3.467h-10.02a3.465 3.465 0 0 1-3.463-3.466v-98.06a3.465 3.465 0 0 1 3.464-3.467h10.02a3.47 3.47 0 0 1 3.467 3.467v98.06z"/></g><path fill="#EDEDED" d="M201.66 44.898H86.267a3.47 3.47 0 0 0-3.47 3.467v102.012h.005v1.983c0 6.172 5.172 10.022 11.556 10.022h99.205c6.384 0 11.563-3.85 11.563-10.022V48.367a3.467 3.467 0 0 0-3.47-3.47z"/><path fill="#4C4C4C" d="M205.128 244.764a3.465 3.465 0 0 1-3.47 3.464H86.27a3.464 3.464 0 0 1-3.465-3.464V48.366a3.465 3.465 0 0 1 3.465-3.467H201.66a3.466 3.466 0 0 1 3.47 3.466v196.398z"/><path opacity=".1" d="M168.59 162.553c0 13.6-11.027 24.625-24.624 24.625-13.605 0-24.63-11.025-24.63-24.625 0-13.604 11.024-24.628 24.63-24.628 13.596 0 24.625 11.024 24.625 24.628z"/><path opacity=".1" d="M201.66 50.183H86.267a3.472 3.472 0 0 0-3.47 3.47v102.01h.005v1.984c0 6.172 5.172 10.02 11.556 10.02h99.205c6.384 0 11.563-3.848 11.563-10.02V53.65a3.47 3.47 0 0 0-3.47-3.467z"/><path fill="#5E5E5E" d="M201.66 44.898H86.267a3.47 3.47 0 0 0-3.47 3.467v102.012h.005v1.983c0 6.172 5.172 10.022 11.556 10.022h99.205c6.384 0 11.563-3.85 11.563-10.022V48.367a3.467 3.467 0 0 0-3.47-3.47z"/><path fill="#878787" d="M164.575 162.553c0 11.383-9.227 20.61-20.61 20.61-11.387 0-20.613-9.228-20.613-20.61 0-11.385 9.227-20.61 20.614-20.61 11.383 0 20.61 9.224 20.61 20.61z"/><path fill="#878787" d="M123.896 162.878H93.01c-6.487 0-11.767-5.28-11.767-11.766h.99c0 5.94 4.833 10.774 10.776 10.774h30.885v.992zM194.495 162.883h-30.88v-.994h30.88c5.943 0 10.78-4.835 10.78-10.774h.99c.002 6.486-5.278 11.767-11.77 11.767z"/><path fill="#50CEFF" d="M162.458 162.553c0 10.21-8.28 18.49-18.492 18.49-10.216 0-18.5-8.28-18.5-18.49 0-10.214 8.284-18.494 18.5-18.494 10.21 0 18.492 8.278 18.492 18.493z"/><path fill="#727272" d="M160.148 162.553c0 8.935-7.25 16.18-16.183 16.18-8.942 0-16.185-7.245-16.185-16.18 0-8.938 7.242-16.184 16.185-16.184 8.933 0 16.183 7.245 16.183 16.183z"/><path opacity=".1" d="M92.817 44.898h-6.55a3.466 3.466 0 0 0-3.465 3.467v196.398a3.464 3.464 0 0 0 3.465 3.464h6.55V44.897zM195.11 44.898h6.55a3.466 3.466 0 0 1 3.468 3.467v196.398a3.465 3.465 0 0 1-3.47 3.464h-6.548V44.897z"/><g fill="#3DC2EA"><path d="M143.966 172.76c-5.132 0-9.3-4.167-9.3-9.294a9.24 9.24 0 0 1 2.573-6.408 1.425 1.425 0 0 1 2.067 1.965 6.42 6.42 0 0 0-1.792 4.443 6.445 6.445 0 0 0 12.892 0 6.42 6.42 0 0 0-1.786-4.443 1.427 1.427 0 0 1 2.07-1.965 9.267 9.267 0 0 1 2.572 6.408c0 5.127-4.174 9.294-9.296 9.294z"/><path d="M145.435 163.218c0 .808-.66 1.47-1.47 1.47a1.47 1.47 0 0 1-1.467-1.47v-9.406c0-.81.655-1.474 1.468-1.474.808 0 1.47.663 1.47 1.474v9.406z"/></g><path opacity=".05" d="M132.52 173.993c6.32 6.32 16.568 6.32 22.88 0 6.325-6.318 6.325-16.563 0-22.88l-22.88 22.88z"/><g fill="#4C4C4C"><path d="M100.908 44.898v10.32c0 .604.49 1.098 1.097 1.098.602 0 1.1-.493 1.1-1.1V44.9h-2.197zM105.302 44.898v10.32c0 .604.49 1.098 1.092 1.098a1.1 1.1 0 0 0 1.098-1.1V44.9h-2.19zM109.688 44.898v10.32a1.1 1.1 0 0 0 2.2 0v-10.32h-2.2z"/></g><g fill="#4C4C4C"><path d="M176.886 44.898v10.32c0 .604.503 1.098 1.102 1.098.605 0 1.1-.493 1.1-1.1V44.9h-2.202zM181.282 44.898v10.32c0 .604.49 1.098 1.098 1.098.605 0 1.096-.493 1.096-1.1V44.9h-2.194zM185.674 44.898v10.32a1.096 1.096 0 0 0 2.19 0v-10.32h-2.19z"/></g><path opacity=".15" d="M82.803 242.465v2.3a3.464 3.464 0 0 0 3.465 3.463H201.66c1.917 0 3.468-1.55 3.468-3.464v-2.3H82.803zM117.24 44.898v2.928a4.882 4.882 0 0 0 4.88 4.88h6.677v1.25a2.775 2.775 0 0 0 2.77 2.77h24.793a2.77 2.77 0 0 0 2.767-2.77v-1.25h6.682a4.877 4.877 0 0 0 4.873-4.88v-2.928H117.24z"/><path fill="#878787" d="M140.665 181.044h6.6v67.184h-6.6z"/><path fill="#50CEFF" d="M142.783 179.996h2.362v68.232h-2.362z"/><path opacity=".04" fill="#FFF" d="M201.66 44.898h-58.343c-1.908 0 50.247 117.485 50.247 117.485 6.384 0 11.563-3.85 11.563-10.022V48.367a3.465 3.465 0 0 0-3.468-3.468z"/></g></g><path opacity=".2" d="M202.847 91.456s-62.524-8.323-82.335-9.643l-19.81 53.268-9.244 24.214c-3.963 3.668-12.093-67.837-12.093-67.837l-35.867 157.15h195.13l-35.78-157.15z"/><g><path fill="#00AB54" d="M201.178 79.067c-2.67.21-5.383.324-8.137.324-22.723 0-42.635-7.17-53.79-17.942-5.34 5.15-12.692 9.465-21.385 12.586.042 3.252.27 20.34.545 20.26.303-.09 12.41 17.21 12.41 17.21l4.226 21.63 15.21 10.302-21.155-7.065-5.9-20.3-17.683-14.954-4.214-22.934c-5.065.79-10.372 1.21-15.844 1.21-2.757 0-5.475-.116-8.142-.325-4.696 10.02-7.35 22.36-7.35 37.3 0 51.195 42.125 96.325 69.28 96.325 29.07 0 69.278-45.13 69.278-96.324 0-14.94-2.654-27.282-7.348-37.3z"/><path fill="#FFCE12" d="M204.92 188.412l-26.052-29.52c9.608-16.842 7.27-38.622-7.125-53.005-17.29-17.277-45.37-17.326-62.707-.09-17.346 17.23-17.387 45.21-.09 62.49 13.015 13.007 32.142 16.244 48.205 9.698l26.03 29.484c5.28 5.987 14.43 6.57 20.434 1.31 6.005-5.265 6.59-14.384 1.307-20.368zm-84.982-31.046c-11.244-11.234-11.215-29.418.054-40.616 11.27-11.205 29.52-11.177 40.758.053 11.24 11.23 11.22 29.42-.054 40.62-11.273 11.202-29.525 11.177-40.758-.057z"/><path opacity=".2" fill="#010000" d="M191.805 173.546c9.967-16.25 16.723-36.205 16.723-57.178 0-14.94-2.655-27.282-7.35-37.3-2.67.208-5.383.323-8.137.323-22.72 0-42.635-7.17-53.79-17.942v151.244c10.7 0 22.9-6.13 34.06-16.405l9.872 11.18c5.28 5.988 14.43 6.57 20.433 1.31 6.005-5.26 6.59-14.38 1.307-20.365l-13.117-14.866z"/></g></svg>