<svg xmlns="http://www.w3.org/2000/svg" width="480" height="144" viewBox="-2.297 -0.469 480 144"><path fill="#76D9FC" d="M-2.297-.47h479.99v144H-2.298z"/><path fill="#00A936" d="M107.122 74.05c.424.39.705 1 1.083 1.07h.562c2.654.745 5.23-1.92 3.224-2.095-.793-.142-2.325.067-4.868 1.026zM168.798 50.865c-4.21.713-5.227 3.525 3.837 9.736 1.12-.306 8.917-2.06 4.34 2.643 14.077-8.368-.98-13.654-8.177-12.378zM342.8 23.848c1.205-8.303-12.046-14.415-18.007-14.075-3.482.252-4.154 2.723 2.265 8.686-6 14.14 10 14.896 15.74 5.388zM204.66-.47c1.694 3.57 5.127 6.44 11.372 8.192 1.25-2.788 2.75-5.51 4.402-8.19H204.66z"/><path fill="#00A936" d="M172.104 15.267c-1.37-6.16-4.27-11.53-8-15.736h-35.64c-1.293 2.003-2.45 4.322-3.41 7.026C117.033 8.7 112.22 5.3 110.083-.47H1.614a183.534 183.534 0 0 0-3.91 7.152v123.58a257.775 257.775 0 0 0 7.358 13.27h23.88c-5.8-8.27-14.89-14.32-22.527-20.264-10.137-33.772 51.638-46.194 52.525-9.21 20.342-1.054 27.468-36.436 50.947-41.542 12.095-10.467 44.824.785 32.982-20.59 11.706-11.093 46.028-10.715 29.234-36.66zM353.28-.47c-12.166 17.928-3.695 48.787-11.06 70.27-15.024 33.258 37.575 18.594 29.73-7.587-9.622-24.087 40.007-13.108 29.27-30.236C426.513 45.36 428.536 17.303 421.077-.47H353.28z"/><path fill="#00A936" d="M477.692 55.125c-2.1-3.744-2.498-6.603 0-6.4V-.47h-45.905c-.16 2.318-.74 4.55-1.87 6.472 1.19 11.777 11.37 14.485 19.543 17.847.37.273.793.31 1.605.508 7.13 3.402 11.423 7.762 3.715 21.148-8.84 29.722-38.816 31.362-63.313 25.866-24.777 10.236-29.387 40.265-43.368 60.48a151.548 151.548 0 0 0-5.776 11.68h135.37V55.124h-.002z"/><path fill="#010000" d="M477.692 92.795H462c-.407-29.93-4.97-58.653-12.997-85.418 15.096 2.173 23.742 4.248 28.69 5.862V4.86c-2.522-.735-5.405-1.448-8.69-2.15C463.848 1.61 457.772.528 450.85-.47h-93.562c18.28.916 35.39 2.04 50.88 3.353 12.754 1.098 23.338 2.232 32.154 3.324 8.473 27.05 13.29 56.18 13.717 86.587H344.42c-.203-32.402-2.715-63.87-7.244-93.264h-8.032c4.6 29.284 7.106 60.788 7.328 93.264H241.05V-.47h-7.955v93.265h-95.42c.225-32.453 2.745-63.96 7.366-93.264h-8.056c-4.533 29.39-7.038 60.836-7.255 93.265H20.09c.456-30.475 5.303-59.674 13.806-86.757 8.548-1.032 18.727-2.094 30.866-3.155C80.337 1.558 97.537.44 115.91-.47H22.14C15.198.536 9.107 1.597 3.94 2.71c-2.273.49-4.334.98-6.237 1.48v7.45C4.9 10.298 14.043 8.78 25.24 7.198c-8.066 26.807-12.663 55.6-13.083 85.597H-2.297v8.025h14.444a317.06 317.06 0 0 0 3.33 42.71h8.037a307.498 307.498 0 0 1-3.42-42.71H129.73a677.98 677.98 0 0 0 1.59 42.71h7.962a666.308 666.308 0 0 1-1.605-42.71h95.42v42.71h7.955v-42.71h95.423a660.225 660.225 0 0 1-1.584 42.71h7.953a683.86 683.86 0 0 0 1.577-42.71h109.637a310.694 310.694 0 0 1-3.418 42.71h8.038A318.38 318.38 0 0 0 462 100.82h15.693v-8.025z" opacity=".2"/><path opacity=".2" d="M79.336 143.53l-11.5-91.694c-1.76 2.17-32.505-25.574-32.505-25.574L8.556 143.532h70.78zM466.368 143.53L439.133 24.25s-30.746 27.743-32.508 25.576l-11.75 93.705h71.493z"/><g><path fill="#E0E0E0" d="M441.922 143.53V26.747c0-3.04-2.47-5.51-5.518-5.51H309.34V143.53h132.582z"/><path fill="#D3D3D3" d="M309.34 42.802h132.582v8.02h-132.58z"/><path fill="#444" d="M309.34 21.236h127.063c3.05 0 5.518 2.47 5.518 5.51V43.27H309.34V21.236z"/><path fill="#FFF" d="M332.768 27.922h95.707a4.374 4.374 0 0 1 4.368 4.365c0 2.404-1.968 4.357-4.368 4.357h-95.707v-8.722z"/><path fill="#E0E0E0" d="M361.605 143.53V21.237H235.428c-3.026 0-5.48 2.47-5.48 5.51V143.53h131.657z"/><path fill="#D3D3D3" d="M229.948 42.802H362.53v8.02H229.948z"/><path fill="#444" d="M362.53 21.236H235.467a5.516 5.516 0 0 0-5.52 5.51V43.27H362.53V21.236z"/><path fill="#2CB740" d="M246.388 32.548a4.36 4.36 0 0 1-4.368 4.356c-2.416 0-4.375-1.95-4.375-4.356 0-2.404 1.96-4.356 4.375-4.356a4.362 4.362 0 0 1 4.368 4.356z"/><path fill="#F16442" d="M259.708 32.548c0 2.407-1.96 4.356-4.375 4.356a4.365 4.365 0 0 1-4.368-4.356c0-2.404 1.96-4.356 4.368-4.356 2.415 0 4.375 1.95 4.375 4.356z"/><path fill="#FFF" d="M367.494 27.922H267.042c-2.518 0-4.586 1.952-4.586 4.365 0 2.404 2.068 4.357 4.586 4.357h100.452v-8.722z"/><path fill="#FCD22E" d="M278.102 63.722c-.05 0-.092.027-.092.057 0 .034.042.063.092.063.053 0 .09-.03.09-.064 0-.03-.037-.058-.09-.058z"/><path fill="#444" d="M381.284 75.81c0 .675-.547 1.22-1.227 1.22h-133.05a1.22 1.22 0 0 1-1.226-1.22c0-.675.548-1.224 1.226-1.224h133.05c.68.002 1.228.55 1.228 1.225zM381.284 70.922a1.22 1.22 0 0 1-1.227 1.222h-133.05a1.22 1.22 0 0 1-1.226-1.222c0-.67.548-1.222 1.226-1.222h133.05c.68 0 1.228.55 1.228 1.222zM381.284 66.038c0 .67-.547 1.222-1.227 1.222h-133.05a1.222 1.222 0 0 1 0-2.444h133.05c.68 0 1.228.546 1.228 1.222zM286.405 59.806a1.938 1.938 0 0 1-1.942 1.932H247.72a1.932 1.932 0 0 1 0-3.864h36.743c1.074 0 1.942.864 1.942 1.932z"/><ellipse fill="#444" cx="240.499" cy="59.806" rx="2.078" ry="2.071"/><path fill="#BFBFBF" d="M381.284 120.09c0 .674-.547 1.22-1.227 1.22h-133.05a1.222 1.222 0 0 1-1.226-1.22c0-.676.548-1.225 1.226-1.225h133.05c.68 0 1.228.55 1.228 1.225zM381.284 115.2c0 .68-.547 1.228-1.227 1.228h-133.05c-.68 0-1.226-.55-1.226-1.227a1.22 1.22 0 0 1 1.226-1.216h133.05c.68 0 1.228.545 1.228 1.217zM381.284 110.32c0 .668-.547 1.22-1.227 1.22h-133.05a1.223 1.223 0 0 1 0-2.444h133.05c.68 0 1.228.547 1.228 1.223z"/><path fill="#A0A0A0" d="M286.405 104.088c0 1.062-.868 1.93-1.942 1.93H247.72a1.935 1.935 0 0 1-1.938-1.93c0-1.068.864-1.934 1.937-1.934h36.743c1.074 0 1.942.866 1.942 1.934zM242.577 104.084a2.07 2.07 0 0 1-2.078 2.072 2.074 2.074 0 0 1-2.078-2.072c0-1.14.933-2.068 2.077-2.068a2.07 2.07 0 0 1 2.077 2.068z"/><g><path fill="#BFBFBF" d="M381.284 142.245a1.22 1.22 0 0 1-1.227 1.22h-133.05a1.222 1.222 0 0 1 0-2.442h133.05c.68 0 1.228.546 1.228 1.222zM381.284 137.358c0 .677-.547 1.222-1.227 1.222h-133.05a1.22 1.22 0 0 1-1.226-1.222c0-.673.548-1.222 1.226-1.222h133.05c.68 0 1.228.55 1.228 1.222zM381.284 132.473c0 .67-.547 1.22-1.227 1.22h-133.05c-.68 0-1.226-.55-1.226-1.22 0-.676.548-1.223 1.226-1.223h133.05c.68 0 1.228.547 1.228 1.223z"/><path fill="#A0A0A0" d="M286.405 126.243c0 1.063-.868 1.93-1.942 1.93H247.72a1.935 1.935 0 0 1-1.938-1.93c0-1.067.864-1.933 1.937-1.933h36.743c1.074 0 1.942.866 1.942 1.933z"/><ellipse fill="#A0A0A0" cx="240.499" cy="126.243" rx="2.078" ry="2.069"/></g><path fill="#BFBFBF" d="M247.09 80.74h28.053v17.365H247.09zM282.46 80.74h28.055v17.365H282.46zM317.248 80.74h28.054v17.365h-28.054zM352.616 80.74h28.057v17.365h-28.057zM387.844 59.66h45.23v76.89h-45.23z"/></g><g><path fill="#E0E0E0" d="M246.835 143.53V26.747c0-3.04-2.47-5.51-5.517-5.51H114.254V143.53h132.58z"/><path fill="#D3D3D3" d="M114.254 42.802h132.58v8.02h-132.58z"/><path fill="#444" d="M114.254 21.236H241.32a5.515 5.515 0 0 1 5.516 5.51V43.27H114.254V21.236z"/><path fill="#FFF" d="M137.682 27.922h95.71a4.374 4.374 0 0 1 4.367 4.365c0 2.404-1.97 4.357-4.37 4.357h-95.708v-8.722z"/><path fill="#E0E0E0" d="M166.52 143.53V21.237H40.342c-3.025 0-5.48 2.47-5.48 5.51V143.53H166.52z"/><path fill="#D3D3D3" d="M34.864 42.802h132.582v8.02H34.864z"/><path fill="#444" d="M167.446 21.236H40.38a5.515 5.515 0 0 0-5.517 5.51V43.27h132.582V21.236z"/><path fill="#2CB740" d="M51.302 32.548a4.362 4.362 0 0 1-4.368 4.356c-2.415 0-4.374-1.95-4.374-4.356 0-2.404 1.96-4.356 4.374-4.356 2.41 0 4.368 1.95 4.368 4.356z"/><path fill="#F16442" d="M64.623 32.548c0 2.407-1.962 4.356-4.377 4.356a4.36 4.36 0 0 1-4.365-4.356 4.364 4.364 0 0 1 4.366-4.356c2.415 0 4.377 1.95 4.377 4.356z"/><path fill="#FFF" d="M172.408 27.922H71.958c-2.52 0-4.59 1.952-4.59 4.365 0 2.404 2.068 4.357 4.59 4.357h100.45v-8.722z"/><path fill="#FCD22E" d="M83.017 63.722c-.05 0-.092.027-.092.057 0 .034.042.063.092.063.05 0 .09-.03.09-.064 0-.03-.04-.058-.09-.058z"/><path fill="#444" d="M186.2 75.81c0 .675-.55 1.22-1.23 1.22H51.92a1.223 1.223 0 0 1-1.226-1.22c0-.675.548-1.224 1.226-1.224h133.05c.68.002 1.23.55 1.23 1.225zM186.2 70.922c0 .678-.55 1.222-1.23 1.222H51.92a1.222 1.222 0 0 1-1.226-1.222c0-.67.548-1.222 1.226-1.222h133.05c.68 0 1.23.55 1.23 1.222zM186.2 66.038c0 .67-.55 1.222-1.23 1.222H51.92a1.223 1.223 0 0 1 0-2.444h133.05c.68 0 1.23.546 1.23 1.222zM91.32 59.806c0 1.064-.87 1.932-1.94 1.932H52.63a1.936 1.936 0 0 1-1.935-1.932c0-1.068.868-1.932 1.936-1.932h36.75c1.07 0 1.94.864 1.94 1.932zM47.493 59.806c0 1.142-.93 2.07-2.08 2.07a2.075 2.075 0 0 1-2.075-2.07c0-1.145.93-2.073 2.075-2.073 1.15 0 2.08.93 2.08 2.073z"/><path fill="#BFBFBF" d="M186.2 120.09c0 .674-.55 1.22-1.23 1.22H51.92a1.224 1.224 0 0 1-1.226-1.22c0-.676.548-1.225 1.226-1.225h133.05c.68 0 1.23.55 1.23 1.225zM186.2 115.2c0 .68-.55 1.228-1.23 1.228H51.92a1.22 1.22 0 0 1 0-2.444h133.05c.68 0 1.23.546 1.23 1.218zM186.2 110.32c0 .668-.55 1.22-1.23 1.22H51.92c-.677 0-1.226-.552-1.226-1.22 0-.678.548-1.225 1.226-1.225h133.05c.68 0 1.23.548 1.23 1.224z"/><path fill="#A0A0A0" d="M91.32 104.088c0 1.062-.87 1.93-1.94 1.93H52.63a1.936 1.936 0 0 1-1.935-1.93c0-1.068.868-1.934 1.936-1.934h36.75c1.07 0 1.94.866 1.94 1.934zM47.493 104.084c0 1.148-.93 2.072-2.08 2.072a2.07 2.07 0 0 1-2.075-2.072c0-1.14.93-2.068 2.075-2.068a2.073 2.073 0 0 1 2.08 2.068z"/><g><path fill="#BFBFBF" d="M186.2 142.245c0 .677-.55 1.22-1.23 1.22H51.92a1.22 1.22 0 0 1-1.226-1.22c0-.676.548-1.222 1.226-1.222h133.05c.68 0 1.23.546 1.23 1.222zM186.2 137.358c0 .677-.55 1.222-1.23 1.222H51.92a1.223 1.223 0 0 1-1.226-1.222c0-.673.548-1.222 1.226-1.222h133.05c.68 0 1.23.55 1.23 1.222zM186.2 132.473c0 .67-.55 1.22-1.23 1.22H51.92c-.677 0-1.226-.55-1.226-1.22 0-.676.548-1.223 1.226-1.223h133.05c.68 0 1.23.547 1.23 1.223z"/><path fill="#A0A0A0" d="M91.32 126.243c0 1.063-.87 1.93-1.94 1.93H52.63a1.936 1.936 0 0 1-1.935-1.93c0-1.067.868-1.933 1.936-1.933h36.75c1.07 0 1.94.866 1.94 1.933zM47.493 126.243c0 1.142-.93 2.07-2.08 2.07a2.073 2.073 0 0 1-2.075-2.07c0-1.146.93-2.073 2.075-2.073 1.15 0 2.08.928 2.08 2.073z"/></g><path fill="#BFBFBF" d="M52.003 80.74h28.055v17.365H52.003zM87.375 80.74h28.054v17.365H87.374zM122.16 80.74h28.054v17.365H122.16zM157.53 80.74h28.055v17.365H157.53zM192.758 59.66h45.23v76.89h-45.23z"/></g><g><g fill="#878787"><path d="M255.372 143.53c.004-.046.02-.09.02-.136V72.817a2.498 2.498 0 0 0-2.503-2.497h-7.23a2.5 2.5 0 0 0-2.503 2.497v70.577c0 .047.016.09.02.137h12.195zM337.54 143.53c.003-.046.02-.09.02-.136V72.817a2.496 2.496 0 0 0-2.503-2.497h-7.23c-1.38 0-2.5 1.117-2.5 2.497v70.577c0 .047.017.09.02.137h12.194z"/></g><path fill="#EDEDED" d="M332 43.56h-83.283a2.503 2.503 0 0 0-2.505 2.5v73.418h.007v1.43c0 4.44 3.73 7.21 8.34 7.21h71.6c4.61 0 8.343-2.77 8.343-7.21V46.06c0-1.38-1.124-2.5-2.503-2.5z"/><path fill="#4C4C4C" d="M334.502 143.53V46.06c0-1.38-1.123-2.5-2.502-2.5h-83.28a2.498 2.498 0 0 0-2.5 2.5v97.47H334.5z"/><path opacity=".1" d="M281.384 143.53h17.947c5.264-3.076 8.81-8.765 8.81-15.288 0-9.79-7.966-17.727-17.778-17.727-9.824 0-17.774 7.936-17.774 17.727 0 6.524 3.536 12.212 8.796 15.29z"/><path opacity=".1" d="M332 47.367h-83.283a2.5 2.5 0 0 0-2.505 2.495v73.42h.007v1.43c0 4.442 3.73 7.212 8.34 7.212h71.6c4.61 0 8.343-2.77 8.343-7.213V49.863A2.502 2.502 0 0 0 332 47.367z"/><path fill="#5E5E5E" d="M332 43.56h-83.283a2.503 2.503 0 0 0-2.505 2.5v73.418h.007v1.43c0 4.44 3.73 7.21 8.34 7.21h71.6c4.61 0 8.343-2.77 8.343-7.21V46.06c0-1.38-1.124-2.5-2.503-2.5z"/><path fill="#50CEFF" d="M307.795 98.22h-28.63c-5.568 0-10.092-4.518-10.092-10.07 0-5.552 4.523-10.067 10.093-10.067.33 0 .656.014.982.05 2.346-3.146 6.03-5 9.98-5 5.22 0 9.788 3.16 11.63 7.954 3.538.055 6.627 2.223 7.878 5.488a5.992 5.992 0 0 1 4.144 5.682c0 3.288-2.683 5.964-5.985 5.964zm-28.628-17.91c-4.33 0-7.858 3.52-7.858 7.84 0 4.325 3.528 7.842 7.857 7.842h28.63c2.07 0 3.75-1.676 3.75-3.735a3.75 3.75 0 0 0-2.998-3.662l-.655-.13-.197-.64c-.868-2.875-3.646-4.73-6.644-4.484l-.893.07-.262-.854c-1.323-4.305-5.25-7.193-9.77-7.193a10.197 10.197 0 0 0-8.523 4.58l-.404.604-.72-.12a7.587 7.587 0 0 0-1.313-.116z"/><path fill="#878787" d="M305.237 128.242c0 8.19-6.662 14.836-14.877 14.836-8.22 0-14.877-6.646-14.877-14.836 0-8.193 6.656-14.835 14.877-14.835 8.217 0 14.877 6.642 14.877 14.835z"/><path fill="#878787" d="M275.877 128.477h-22.29c-4.682 0-8.497-3.8-8.497-8.47h.722c0 4.276 3.485 7.757 7.777 7.757h22.29v.713h-.003zM326.83 128.477h-22.29v-.713h22.29c4.29 0 7.776-3.48 7.776-7.754h.722c0 4.668-3.816 8.467-8.5 8.467z"/><path fill="#50CEFF" d="M303.706 128.242c0 7.352-5.977 13.31-13.344 13.31-7.376 0-13.35-5.958-13.35-13.31 0-7.35 5.974-13.31 13.35-13.31 7.367 0 13.344 5.96 13.344 13.31z"/><path fill="#727272" d="M302.04 128.242c0 6.434-5.233 11.645-11.678 11.645-6.454 0-11.682-5.21-11.682-11.645 0-6.432 5.228-11.646 11.682-11.646 6.444 0 11.68 5.215 11.68 11.646z"/><path opacity=".1" d="M253.448 143.53V43.56h-4.727a2.497 2.497 0 0 0-2.5 2.5v97.47h7.228zM334.502 143.53V46.06c0-1.38-1.123-2.5-2.502-2.5h-4.73v99.97h7.232z"/><g fill="#3DC2EA"><path d="M290.362 135.592c-3.7 0-6.71-3.002-6.71-6.69 0-1.724.656-3.365 1.858-4.612.393-.41 1.04-.43 1.45-.035.41.39.426 1.04.04 1.45a4.6 4.6 0 0 0-1.293 3.197c0 2.558 2.088 4.637 4.652 4.637s4.65-2.08 4.65-4.638c0-1.192-.46-2.328-1.29-3.198a1.024 1.024 0 0 1 .032-1.45 1.028 1.028 0 0 1 1.454.036 6.628 6.628 0 0 1 1.857 4.612c.004 3.688-3.008 6.69-6.7 6.69z"/><path d="M291.418 128.72c0 .583-.475 1.06-1.06 1.06a1.063 1.063 0 0 1-1.062-1.06v-6.77a1.06 1.06 0 0 1 2.122 0v6.77z"/></g><path opacity=".05" d="M282.104 136.477c4.557 4.548 11.95 4.548 16.514 0a11.614 11.614 0 0 0 0-16.47l-16.514 16.47z"/><path fill="#50CEFF" d="M299.817 84.918a5.215 5.215 0 0 0-7.12-.22l-.005-.007-6.184 6.073v-.002a2.922 2.922 0 0 1-3.988-.122 2.892 2.892 0 0 1 0-4.106 2.917 2.917 0 0 1 3.988-.122v-.004l1.69 1.713 1.678-1.562-1.85-1.867-.01.007a5.21 5.21 0 0 0-7.12.22 5.19 5.19 0 0 0 0 7.337 5.215 5.215 0 0 0 7.12.22l.01.008 6.183-6.074v.004a2.92 2.92 0 0 1 3.99.122 2.906 2.906 0 0 1 0 4.107 2.924 2.924 0 0 1-3.99.122v.002l-1.74-1.728-1.643 1.6 1.864 1.846.005-.01a5.21 5.21 0 0 0 7.12-.218 5.177 5.177 0 0 0 .002-7.336z"/><g fill="#4C4C4C"><path d="M259.283 43.56v7.427a.793.793 0 0 0 1.587 0V43.56h-1.587zM262.454 43.56v7.427a.79.79 0 0 0 1.584 0V43.56h-1.584zM265.625 43.56v7.427a.793.793 0 0 0 1.582 0V43.56h-1.582z"/></g><g fill="#4C4C4C"><path d="M314.123 43.56v7.427a.792.792 0 0 0 1.584 0V43.56h-1.584zM317.29 43.56v7.427a.795.795 0 0 0 1.588 0V43.56h-1.588zM320.46 43.56v7.427c0 .44.353.792.792.792a.795.795 0 0 0 .795-.793V43.56h-1.588z"/></g><path opacity=".15" d="M271.075 43.56v2.11a3.516 3.516 0 0 0 3.518 3.51h4.82v.902a2 2 0 0 0 2 1.992H299.3a1.993 1.993 0 0 0 1.997-1.992v-.9h4.823a3.518 3.518 0 0 0 3.522-3.512v-2.11h-38.567z"/><path fill="#878787" d="M287.974 141.55h4.768v1.98h-4.768z"/><path opacity=".2" d="M337.54 143.53c.003-.046.02-.09.02-.136V72.817a2.496 2.496 0 0 0-2.503-2.497h-.554V46.06c0-1.38-1.123-2.5-2.502-2.5H248.72a2.503 2.503 0 0 0-2.505 2.5v24.26h-.552a2.5 2.5 0 0 0-2.503 2.497v70.577c0 .047.015.09.018.137h94.366z"/><g><g fill="#878787"><path d="M143.823 143.53c.003-.046.018-.09.018-.136V72.817a2.5 2.5 0 0 0-2.5-2.497h-7.23a2.502 2.502 0 0 0-2.507 2.497v70.577c0 .047.015.09.018.137h12.203zM225.99 143.53c.003-.046.018-.09.018-.136V72.817a2.5 2.5 0 0 0-2.502-2.497h-7.232c-1.38 0-2.5 1.117-2.5 2.497v70.577c0 .047.017.09.02.137h12.196z"/></g><path fill="#EDEDED" d="M220.443 43.56h-83.275a2.503 2.503 0 0 0-2.505 2.5V120.908c0 4.44 3.735 7.21 8.342 7.21h71.602c4.608 0 8.342-2.77 8.342-7.21V46.06c-.002-1.38-1.12-2.5-2.507-2.5z"/><path fill="#4C4C4C" d="M222.948 143.53V46.06a2.5 2.5 0 0 0-2.498-2.5h-83.283a2.504 2.504 0 0 0-2.506 2.5v97.47h88.288z"/><path opacity=".1" d="M169.833 143.53h17.944c5.263-3.076 8.803-8.765 8.803-15.288 0-9.79-7.958-17.727-17.77-17.727-9.823 0-17.78 7.936-17.78 17.727 0 6.524 3.54 12.212 8.803 15.29z"/><path opacity=".1" d="M220.443 47.367h-83.275a2.5 2.5 0 0 0-2.505 2.495V124.712c0 4.442 3.735 7.212 8.342 7.212h71.602c4.608 0 8.342-2.77 8.342-7.213V49.863a2.5 2.5 0 0 0-2.507-2.495z"/><path fill="#5E5E5E" d="M220.443 43.56h-83.275a2.503 2.503 0 0 0-2.505 2.5V120.908c0 4.44 3.735 7.21 8.342 7.21h71.602c4.608 0 8.342-2.77 8.342-7.21V46.06c-.002-1.38-1.12-2.5-2.507-2.5z"/><path fill="#50CEFF" d="M196.242 98.22h-28.627c-5.564 0-10.097-4.518-10.097-10.07 0-5.552 4.533-10.067 10.097-10.067.33 0 .654.014.98.05a12.43 12.43 0 0 1 9.986-5c5.217 0 9.786 3.16 11.622 7.954 3.543.055 6.63 2.223 7.882 5.488a5.992 5.992 0 0 1 4.145 5.682c-.003 3.288-2.688 5.964-5.988 5.964zm-28.628-17.91c-4.33 0-7.86 3.52-7.86 7.84 0 4.325 3.53 7.842 7.86 7.842h28.627a3.746 3.746 0 0 0 3.748-3.735c0-1.77-1.258-3.31-2.992-3.662l-.657-.13-.19-.64c-.87-2.875-3.65-4.727-6.644-4.484l-.893.07-.266-.854c-1.324-4.305-5.25-7.193-9.767-7.193-3.44 0-6.628 1.713-8.53 4.58l-.403.604-.717-.12a7.602 7.602 0 0 0-1.316-.116z"/><path fill="#878787" d="M193.68 128.242c0 8.19-6.658 14.836-14.872 14.836-8.218 0-14.878-6.646-14.878-14.836 0-8.193 6.66-14.835 14.878-14.835 8.215 0 14.872 6.642 14.872 14.835z"/><path fill="#878787" d="M164.32 128.477h-22.29c-4.68 0-8.49-3.8-8.49-8.47h.715c0 4.276 3.49 7.757 7.775 7.757h22.29v.713zM215.28 128.477h-22.29v-.713h22.29c4.286 0 7.77-3.48 7.77-7.754h.72c0 4.668-3.81 8.467-8.49 8.467z"/><ellipse fill="#50CEFF" cx="178.807" cy="128.242" rx="13.345" ry="13.309"/><ellipse fill="#727272" cx="178.805" cy="128.242" rx="11.677" ry="11.645"/><path opacity=".1" d="M141.893 143.53V43.56h-4.725a2.503 2.503 0 0 0-2.505 2.5v97.47h7.23zM222.948 143.53V46.06a2.5 2.5 0 0 0-2.498-2.5h-4.73v99.97h7.228z"/><g fill="#3DC2EA"><path d="M178.808 135.592c-3.7 0-6.707-3.002-6.707-6.69 0-1.724.658-3.365 1.855-4.612.39-.41 1.042-.43 1.453-.035.414.39.424 1.04.03 1.45a4.63 4.63 0 0 0-1.282 3.197c0 2.558 2.084 4.637 4.65 4.637a4.644 4.644 0 0 0 4.646-4.638 4.607 4.607 0 0 0-1.286-3.198 1.02 1.02 0 0 1 .038-1.45 1.026 1.026 0 0 1 1.453.036 6.657 6.657 0 0 1 1.855 4.612c0 3.688-3.006 6.69-6.704 6.69z"/><path d="M179.863 128.72a1.06 1.06 0 0 1-1.055 1.06 1.063 1.063 0 0 1-1.063-1.06v-6.77a1.058 1.058 0 0 1 2.118 0v6.77z"/></g><path opacity=".05" d="M170.55 136.477c4.562 4.548 11.952 4.548 16.513 0 4.562-4.55 4.562-11.922 0-16.47l-16.513 16.47z"/><path fill="#50CEFF" d="M188.264 84.918a5.216 5.216 0 0 0-7.122-.22l-.008-.007-6.18 6.073-.004-.002a2.912 2.912 0 0 1-3.98-.122 2.89 2.89 0 0 1 0-4.106 2.907 2.907 0 0 1 3.98-.122l.004-.004 1.695 1.713 1.672-1.562-1.85-1.867-.008.007a5.208 5.208 0 0 0-7.12.22 5.19 5.19 0 0 0 0 7.337 5.212 5.212 0 0 0 7.12.22l.008.008 6.182-6.074.004.004a2.906 2.906 0 0 1 3.985 4.23 2.916 2.916 0 0 1-3.985.12l-.004.002-1.737-1.728-1.643 1.6 1.858 1.846.008-.01a5.212 5.212 0 0 0 7.122-.218 5.178 5.178 0 0 0 .002-7.336z"/><g fill="#4C4C4C"><path d="M147.733 43.56v7.427c0 .44.353.792.79.792a.794.794 0 0 0 .793-.793V43.56h-1.583zM150.905 43.56v7.427c0 .44.353.792.79.792a.794.794 0 0 0 .794-.793V43.56h-1.585zM154.067 43.56v7.427a.794.794 0 0 0 1.587 0V43.56h-1.587z"/></g><g fill="#4C4C4C"><path d="M202.568 43.56v7.427a.793.793 0 0 0 1.585 0V43.56h-1.585zM205.74 43.56v7.427a.793.793 0 0 0 1.584 0V43.56h-1.584zM208.91 43.56v7.427a.792.792 0 0 0 1.583 0V43.56h-1.582z"/></g><path opacity=".15" d="M159.52 43.56v2.11a3.517 3.517 0 0 0 3.52 3.51h4.823v.902c0 1.1.895 1.992 1.995 1.992h17.89c1.107 0 2-.894 2-1.992v-.9h4.824a3.514 3.514 0 0 0 3.518-3.512v-2.11h-38.57z"/><path fill="#878787" d="M176.42 141.55h4.77v1.98h-4.77z"/><path opacity=".2" d="M225.99 143.53c.003-.046.018-.09.018-.136V72.817a2.5 2.5 0 0 0-2.502-2.497h-.557V46.06a2.5 2.5 0 0 0-2.5-2.5H137.17a2.503 2.503 0 0 0-2.505 2.5v24.26h-.554a2.502 2.502 0 0 0-2.508 2.497v70.577c0 .047.015.09.018.137h94.37z"/></g><path opacity=".2" d="M317.67 143.53l-23.287-99.97-9.032 99.97zM186.6 143.53l-9.034-99.97-23.286 99.97z"/><g><g fill="#878787"><path d="M191.56 129.928a3.118 3.118 0 0 1-3.127 3.115h-9.025a3.123 3.123 0 0 1-3.127-3.115V41.782a3.122 3.122 0 0 1 3.128-3.116h9.025a3.12 3.12 0 0 1 3.126 3.116v88.146zM294.178 129.928a3.12 3.12 0 0 1-3.126 3.115h-9.03a3.118 3.118 0 0 1-3.124-3.115V41.782a3.118 3.118 0 0 1 3.123-3.116h9.032a3.12 3.12 0 0 1 3.126 3.116v88.146z"/></g><path fill="#EDEDED" d="M287.235 5.246h-104.01a3.122 3.122 0 0 0-3.128 3.117v91.695h.004v1.783c0 5.55 4.662 9.01 10.417 9.01h89.42c5.753 0 10.425-3.46 10.425-9.01V8.365c0-1.722-1.4-3.117-3.127-3.117z"/><path fill="#4C4C4C" d="M290.362 143.53V8.364c0-1.722-1.4-3.117-3.127-3.117h-104.01a3.12 3.12 0 0 0-3.124 3.117V143.53h110.262z"/><path opacity=".1" d="M257.428 111.004c0 12.225-9.94 22.135-22.197 22.135-12.263 0-22.2-9.91-22.2-22.136 0-12.23 9.937-22.14 22.2-22.14 12.257 0 22.198 9.91 22.198 22.14z"/><path opacity=".1" d="M287.235 9.996h-104.01a3.124 3.124 0 0 0-3.128 3.118v91.696h.004v1.783c0 5.547 4.662 9.006 10.417 9.006h89.42c5.753 0 10.425-3.46 10.425-9.007V13.114c0-1.72-1.4-3.118-3.127-3.118z"/><path fill="#5E5E5E" d="M287.235 5.246h-104.01a3.122 3.122 0 0 0-3.128 3.117v91.695h.004v1.783c0 5.55 4.662 9.01 10.417 9.01h89.42c5.753 0 10.425-3.46 10.425-9.01V8.365c0-1.722-1.4-3.117-3.127-3.117z"/><path fill="#878787" d="M253.807 111.004c0 10.23-8.316 18.526-18.576 18.526-10.265 0-18.58-8.295-18.58-18.526 0-10.234 8.315-18.527 18.58-18.527 10.26 0 18.577 8.293 18.577 18.527z"/><path fill="#878787" d="M217.14 111.297H189.3c-5.847 0-10.604-4.746-10.604-10.576h.892c0 5.34 4.358 9.686 9.714 9.686h27.84v.89zM280.776 111.3h-27.833v-.894h27.833c5.356 0 9.72-4.346 9.72-9.684h.892c-.003 5.83-4.76 10.58-10.612 10.58z"/><ellipse fill="#50CEFF" cx="235.229" cy="111.004" rx="16.67" ry="16.621"/><path fill="#727272" d="M249.817 111.004c0 8.03-6.536 14.543-14.587 14.543-8.06 0-14.587-6.512-14.587-14.543 0-8.033 6.527-14.548 14.587-14.548 8.05 0 14.587 6.513 14.587 14.548z"/><path opacity=".1" d="M189.127 143.53V5.247h-5.902a3.12 3.12 0 0 0-3.123 3.117V143.53h9.025zM290.362 143.53V8.364c0-1.722-1.4-3.117-3.127-3.117h-5.904V143.53h9.032z"/><g fill="#3DC2EA"><path d="M235.23 120.178c-4.622 0-8.382-3.746-8.382-8.354a8.3 8.3 0 0 1 2.32-5.762 1.288 1.288 0 0 1 1.817-.043c.51.487.535 1.298.044 1.81a5.763 5.763 0 0 0-1.615 3.994c0 3.195 2.606 5.79 5.814 5.79 3.204 0 5.806-2.595 5.806-5.79 0-1.488-.572-2.91-1.608-3.994a1.282 1.282 0 0 1 .044-1.81 1.29 1.29 0 0 1 1.818.042 8.33 8.33 0 0 1 2.318 5.762c.002 4.608-3.76 8.354-8.377 8.354z"/><path d="M236.554 111.602a1.324 1.324 0 0 1-2.647 0v-8.455c0-.73.59-1.324 1.325-1.324.73 0 1.324.596 1.324 1.324v8.455z"/></g><path opacity=".05" d="M224.914 121.287c5.698 5.682 14.934 5.682 20.625 0 5.697-5.68 5.697-14.89 0-20.566l-20.626 20.567z"/><g fill="#4C4C4C"><path d="M196.42 5.246v9.275a.99.99 0 0 0 1.978 0V5.247h-1.98zM200.38 5.246v9.275a.986.986 0 0 0 1.972 0V5.247h-1.972zM204.335 5.246v9.275a.99.99 0 0 0 1.98 0V5.247h-1.98z"/></g><g fill="#4C4C4C"><path d="M264.903 5.246v9.275a.993.993 0 0 0 1.986 0V5.247h-1.987zM268.867 5.246v9.275a.99.99 0 0 0 1.978 0V5.247h-1.978zM272.825 5.246v9.275a.985.985 0 0 0 1.973 0V5.247h-1.973z"/></g><path opacity=".15" d="M211.14 5.246v2.632c0 2.42 1.972 4.386 4.397 4.386h6.02v1.125c0 1.37 1.12 2.488 2.498 2.488H246.4a2.493 2.493 0 0 0 2.496-2.49v-1.124h6.02a4.39 4.39 0 0 0 4.396-4.386V5.246h-48.17z"/><path fill="#878787" d="M232.256 127.625h5.947v15.906h-5.947z"/><path fill="#50CEFF" d="M234.163 126.682h2.13v16.85h-2.13z"/><path opacity=".04" fill="#FFF" d="M287.235 5.246h-52.588c-1.72 0 45.29 105.605 45.29 105.605 5.753 0 10.425-3.46 10.425-9.01V8.365c0-1.722-1.4-3.117-3.127-3.117z"/></g></g><path opacity=".2" d="M309.748 143.53L284.168 31.5s-47.473-6.302-62.516-7.302l-15.04 40.334-7.02 18.334c-3.008 2.777-9.182-51.366-9.182-51.366l-25.64 112.032h144.978z"/><path fill="none" d="M-2.297 2.53h477.65v130H-2.296z"/><g><path fill="#00AB54" d="M283.577 28.94c-2.02.16-4.073.246-6.156.246-17.193 0-32.26-5.43-40.7-13.586-4.038 3.9-9.602 7.167-16.18 9.53.03 2.463.206 15.402.41 15.34.23-.068 9.39 13.03 9.39 13.03l3.198 16.38 11.51 7.8-16.007-5.35-4.465-15.37-13.38-11.325-3.188-17.365a77.85 77.85 0 0 1-11.99.915c-2.084 0-4.142-.087-6.158-.245-3.555 7.586-5.563 16.932-5.563 28.244 0 38.764 31.875 72.936 52.423 72.936 21.995 0 52.42-34.172 52.42-72.936-.002-11.31-2.01-20.657-5.563-28.243z"/><path fill="#FFCE12" d="M286.41 111.736L266.7 89.382c7.27-12.752 5.502-29.244-5.393-40.136-13.08-13.082-34.33-13.12-47.446-.068-13.125 13.047-13.156 34.234-.07 47.316 9.85 9.85 24.32 12.302 36.474 7.345l19.7 22.323c3.99 4.534 10.915 4.977 15.457.992 4.545-3.98 4.99-10.887.99-15.42zM222.108 88.23c-8.507-8.507-8.485-22.276.042-30.755 8.525-8.484 22.335-8.463 30.838.04 8.505 8.503 8.49 22.277-.04 30.757-8.53 8.482-22.34 8.463-30.84-.043z"/><path opacity=".2" fill="#010000" d="M276.486 100.48c7.543-12.305 12.652-27.414 12.652-43.295 0-11.312-2.008-20.658-5.562-28.244-2.02.16-4.073.246-6.156.246-17.192 0-32.262-5.43-40.7-13.586v114.52c8.095 0 17.33-4.64 25.77-12.42l7.474 8.466c3.992 4.533 10.916 4.975 15.458.99a10.904 10.904 0 0 0 .99-15.42l-9.926-11.256z"/></g></svg>