<svg xmlns="http://www.w3.org/2000/svg" xmlns:xlink="http://www.w3.org/1999/xlink" width="520.228" height="317.629" viewBox="0 0 520.228 317.629"><path opacity=".1" fill="#0599C1" d="M451.858 236.313h-6.693c-.557.07-1.108.11-1.69.11h-86.16c-7.768 0-14.05-6.29-14.05-14.052 0-7.768 6.282-14.057 14.05-14.057H496.86c13.25-2.132 23.37-13.615 23.37-27.468 0-15.363-12.463-27.82-27.828-27.82h-41.225c.365-.166.73-.358 1.09-.544h-47.218c-15.434 0-27.955-12.52-27.955-27.954 0-15.428 12.52-27.948 27.955-27.948h16.81c10.862-3.837 18.656-14.173 18.656-26.354 0-15.435-12.52-27.948-27.955-27.948h-128.43c-.807 0-1.607.038-2.396.115H197.61c-7.537 0-13.64 6.098-13.64 13.63 0 6.058 3.97 11.194 9.44 12.955h22.113c7.948 0 14.39 6.443 14.39 14.39 0 7.942-6.442 14.386-14.39 14.386H172.98c.178.052.345.104.53.154H13.866C6.205 97.904 0 104.11 0 111.768c0 7.666 6.206 13.872 13.865 13.872h12.027c-.097.013-.167.038-.243.058h34.217c7.678 0 13.904 6.22 13.904 13.903 0 7.68-6.225 13.905-13.903 13.905H28.454c-12.898 2.42-22.658 13.737-22.658 27.34 0 15.37 12.45 27.827 27.82 27.827h89.25l-.012.006h74.367c7.667 0 13.873 6.22 13.873 13.872 0 7.666-6.206 13.872-13.872 13.872l-114.58.05c-14.774 0-26.737 11.964-26.737 26.74 0 14.76 11.963 26.744 26.738 26.744h33.515c.68.096 1.383.167 2.1.167h35.18c-6.48 1.166-11.407 6.82-11.407 13.642 0 7.666 6.213 13.865 13.872 13.865h315.086c7.66 0 13.872-6.2 13.872-13.865 0-6.82-4.925-12.476-11.406-13.642H306.326c-7.16 0-12.97-5.802-12.97-12.962s5.81-12.968 12.97-12.968h99.87c-.07-.038-.155-.083-.225-.134h45.89c7.652 0 13.865-6.212 13.865-13.872 0-7.667-6.213-13.873-13.867-13.873z"/><path fill="#333" d="M353.9 116.062c0 10.61-26.586 26.603-60.594 26.603-34.01 0-61.58-15.5-61.58-26.11s27.57-19.213 61.58-19.213c34.008 0 60.595 8.11 60.595 18.72z"/><path fill="#333" d="M353.9 116.062c0 10.61-26.586 26.603-60.594 26.603-34.01 0-61.58-15.5-61.58-26.11s27.57-19.213 61.58-19.213c34.008 0 60.595 8.11 60.595 18.72z"/><path fill="#FDDBA4" d="M266.124 147.3h53.59v57.875h-53.59zM340.613 120.515a3.482 3.482 0 0 1-3.793 3.146l-.404-.038a3.48 3.48 0 0 1-3.145-3.79l1.41-15.095a3.486 3.486 0 0 1 3.795-3.14l.406.04a3.477 3.477 0 0 1 3.143 3.79l-1.41 15.088z"/><path fill="#353535" d="M393.938 317.472c-.852-15.972-1.49-109.82-4.578-125.76-1.11-9.605-2.224-18.148-3.354-20.508-3.002-6.285-6.368-9.315-10.825-11.344-4.44-2.026-50.112-22.184-50.112-22.184l-24.95 1.954-1.09.05-1.096-.13-6.28 177.922h102.286z"/><path fill="#FDDBA4" d="M252.513 120.777a3.48 3.48 0 0 1-3.25 3.695l-.41.028a3.486 3.486 0 0 1-3.698-3.26l-.97-15.12a3.487 3.487 0 0 1 3.257-3.703l.4-.017a3.474 3.474 0 0 1 3.698 3.253l.973 15.124z"/><path opacity=".2" fill="#14120E" d="M319.714 153.732h-53.59v7.94c8.573 8.67 18.702 11.797 27.054 11.797 8.15 0 17.96-2.93 26.536-11.32v-8.418z"/><path fill="#353535" d="M291.918 317.472l-6.28-177.922-1.097.13-1.087-.05-24.95-1.954s-45.674 20.158-50.113 22.184c-4.458 2.03-7.824 5.06-10.826 11.344-1.13 2.36-2.242 10.903-3.353 20.507-3.088 15.943-3.726 109.79-4.578 125.762h102.286z"/><defs><path id="a" d="M287.56 158.015h10.72v2.144h-10.72z"/></defs><clipPath id="b"><use xlink:href="#a" overflow="visible"/></clipPath><path clip-path="url(#b)" fill="#14120E" d="M298.692 159.367c0 .372-2.492.678-5.563.678-3.072 0-5.56-.306-5.56-.678 0-.372 2.488-.673 5.56-.673 3.07 0 5.562.302 5.562.673"/><path fill="#FDDBA4" d="M292.85 51.324c-.172 0-.34.005-.51.01-.172-.005-.34-.01-.508-.01-24.74 0-44.795 27.015-44.795 60.35 2.66 18.586 8.516 40.312 14.202 45.995 8.664 8.663 22.593 13.32 30.424 11.355.116.035.183.052.183.082v.074c0-.01-.054-.022 0-.04.056.018 0 .028 0 .04v-.073c0-.03.562-.047.677-.082 7.834 1.965 22.09-2.692 30.753-11.356 5.687-5.685 11.623-27.41 14.284-45.996 0-33.335-19.973-60.35-44.71-60.35z"/><path opacity=".2" d="M199.533 317.472c.722-15.735 1.576-109.466 4.203-123.91 1.11-10.226 2.224-19.32 3.353-21.834 3-6.69 6.366-9.917 10.824-12.076 3.596-1.748 34.24-16.157 45.757-21.57l-5.168-.406s-45.673 20.158-50.112 22.184c-4.458 2.03-7.824 5.06-10.826 11.344-1.13 2.36-2.242 10.903-3.353 20.507-3.088 15.943-3.726 109.79-4.578 125.762h9.9z"/><ellipse fill="#E2BF8D" cx="268.271" cy="129.832" rx="10.413" ry="8.445"/><ellipse fill="#E2BF8D" cx="316.31" cy="129.832" rx="10.414" ry="8.445"/><path fill="#E2BF8D" d="M304.95 146.693c0 1.784-5.427 3.234-12.117 3.234-6.693 0-12.12-1.45-12.12-3.234 0-1.785 5.426-.21 12.12-.21 6.69 0 12.117-1.575 12.117.21"/><path opacity=".2" d="M376.48 171.73c1.13 2.512 2.244 11.607 3.354 21.833 2.628 14.443 3.48 108.175 4.204 123.91h9.9c-.852-15.972-1.49-109.82-4.578-125.76-1.11-9.605-2.224-18.148-3.354-20.508-3.002-6.285-6.368-9.315-10.825-11.344-4.44-2.025-50.112-22.183-50.112-22.183l-5.17.406c11.52 5.414 42.16 19.822 45.758 21.57 4.457 2.16 7.823 5.385 10.825 12.076z"/><path fill="#FFF" d="M325.448 108.29c.318 2.626-4.884 5.427-11.63 6.246-6.74.818-12.473-.656-12.79-3.282-.32-2.623 4.895-5.414 11.636-6.232 6.745-.82 12.465.646 12.784 3.268M282.16 111.38c-.345 2.664-6.172 4.115-13.016 3.228-6.84-.888-12.114-3.778-11.77-6.443.346-2.66 6.182-4.1 13.022-3.212 6.845.887 12.11 3.765 11.765 6.426"/><path fill="#FF8080" d="M298.056 129.152c0 2.92-2.27 8.057-5.07 8.057h-.135c-2.802 0-5.068-5.14-5.068-8.058V105.43c0-2.92 2.266-5.29 5.07-5.29h.133c2.8 0 5.07 2.37 5.07 5.29v23.722z"/><path fill="#FFF" d="M271.326 108.748a.778.778 0 0 1-1.556 0 .778.778 0 0 1 1.556 0"/><path fill="#304230" d="M313.177 110.78a2.995 2.995 0 0 1-2.988 2.994 2.99 2.99 0 0 1-2.99-2.993 2.99 2.99 0 0 1 2.99-2.99 2.993 2.993 0 0 1 2.987 2.99"/><path fill="#FFF" d="M309.916 109.6c0 .497-.41.902-.91.902a.9.9 0 0 1-.904-.9c0-.503.4-.908.903-.908.5 0 .91.404.91.907"/><path fill="#304230" d="M269.925 110.78a2.997 2.997 0 0 1-2.99 2.994 2.99 2.99 0 0 1 0-5.984c1.648 0 2.99 1.343 2.99 2.992"/><path fill="#FFF" d="M266.66 109.6a.906.906 0 0 1-1.812 0 .906.906 0 1 1 1.81 0"/><path fill="#422902" d="M280.14 101.195c-.237 1.252-1.6 2.042-3.046 1.767l-16.365-3.075c-1.443-.27-2.423-1.502-2.19-2.754.233-1.25 1.596-2.044 3.04-1.775l16.365 3.077c1.45.273 2.43 1.507 2.194 2.76zM326.998 99.36c-.025 1.274-1.236 2.28-2.705 2.252l-16.65-.295c-1.466-.023-2.64-1.075-2.62-2.35.025-1.27 1.234-2.282 2.705-2.258l16.647.296c1.472.027 2.643 1.08 2.623 2.355z"/><path opacity=".1" fill="#010000" d="M250.77 107.705c-1.68-9.425 7.32-30.938 8.44-32.542 5.603 2.495 16.76 3.122 18.63 1.51 4.48 3.222 15.69 10.9 31.936 1.612 7.1-4.286 13.637-4.11 14.76-3.932 1.12.176 9.45 21.622 9.45 34.813 1.357 1.15 2.176 2.6 2.176 2.6s3.917-43.438-.568-47.546c-4.48-4.107-11.618-10.418-20.023-13.814-8.405-3.394-11.207-9.115-11.207-10.722-.934 4.824-.56 7.86-.188 8.398-6.724-4.827-10.893-11.596-10.677-15.804-5.76-.1-18.086 9.013-20.327 11.873-3.55-.357-21.107 12.87-24.283 18.767-3.178 5.895-1.494 44.49 0 47.208.328-.96 1.042-1.987 1.884-2.42z"/><path fill="#422902" d="M250.77 107.222c-1.68-9.85 7.32-32.334 8.44-34.015 5.603 2.608 16.76 3.264 18.63 1.58 4.48 3.365 15.69 11.396 31.936 1.684 7.1-4.482 13.637-4.294 14.76-4.108 1.12.186 9.45 22.598 9.45 36.386 1.357 1.205 2.176 2.72 2.176 2.72s3.917-45.402-.568-49.7c-4.48-4.292-11.618-10.888-20.023-14.438-8.405-3.55-13.888 11.79-13.888 10.107-.935 5.042 2.12-13.096 2.493-12.533-6.724-5.044-12.562 8.394-12.344 3.994-5.76-.103-16.418-11.094-18.66-8.104-3.55-.374-21.107 13.45-24.283 19.614-3.178 6.164-1.494 46.505 0 49.34.328-1 1.042-2.073 1.884-2.526z"/><path opacity=".2" d="M338.476 101.107a3.452 3.452 0 0 0-1.515.197c-.008-.077-.018-.15-.027-.228.227-3.47.454-7.52.61-11.653h-90.357c.11 4.05.297 7.96.53 11.25-.023.168-.042.338-.063.507 7.693 3.73 26.207 9.07 40.45 10.413.11.02.217.04.33.055 1.562.2 3.31.28 5.193.257 1.882.023 3.63-.056 5.192-.257.115-.015.22-.036.33-.055 14.158-1.335 32.533-6.62 40.31-10.345a3.512 3.512 0 0 0-.576-.104l-.406-.037z"/><g fill="#FF8080"><ellipse cx="288.511" cy="128.625" rx="4.485" ry="4.68"/><ellipse cx="297.326" cy="128.625" rx="4.486" ry="4.68"/></g><path fill="#48484A" d="M368.726 85.744c-1.68-5.465-26.904-7.987-26.904-7.987l-28.165-2.522-20.03.195-20.03-.195-28.166 2.522s-25.222 2.522-26.903 7.987c-1.682 5.465 19.758 6.306 27.114 10.93 5.865 3.687 26.82 10.04 42.534 11.508.09.015.167.04.26.053 1.56.2 3.313.274 5.193.25 1.88.023 3.632-.05 5.192-.25.092-.012.17-.04.26-.053 15.714-1.47 36.667-7.82 42.533-11.507 7.355-4.625 28.794-5.466 27.113-10.93z"/><path fill="#2E68B9" d="M341.698 80.28s-6.306-24.383-11.14-40.357c-4.834-15.974-17.074-18.543-21.86-13.662-4.433 4.52-13.653 5.063-16.71 5.116-3.058-.053-12.28-.595-16.71-5.115-4.79-4.88-17.027-2.31-21.862 13.663-4.834 15.974-11.14 40.356-11.14 40.356s-1.26 4.203 3.573 6.725c7.142 3.727 28.957 8.843 46.137 7.912 17.18.932 38.997-4.185 46.138-7.912 4.834-2.522 3.573-6.726 3.573-6.726z"/><path fill="#48484A" d="M341.698 80.28s-6.306-24.383-11.14-40.357c-4.834-15.974-17.074-18.543-21.86-13.662-4.433 4.52-13.653 5.063-16.71 5.116-3.058-.053-12.28-.595-16.71-5.115-4.79-4.88-17.027-2.31-21.862 13.663-4.834 15.974-11.14 40.356-11.14 40.356s-1.26 4.203 3.573 6.725c7.142 3.727 28.957 8.843 46.137 7.912 17.18.932 38.997-4.185 46.138-7.912 4.834-2.522 3.573-6.726 3.573-6.726z"/><path opacity=".2" d="M337.537 64.597c-7.682 3.694-28.812 8.527-45.55 7.62-16.738.907-37.867-3.926-45.55-7.62-2.387 8.824-4.16 15.682-4.16 15.682s-1.26 4.203 3.572 6.725c7.142 3.727 28.957 8.843 46.137 7.912 17.18.932 38.997-4.185 46.138-7.912 4.834-2.522 3.573-6.726 3.573-6.726s-1.774-6.86-4.16-15.683zM274.086 30.395s-5.257-9-12.33-.14c-6.657 8.337-7.29 14.993-8.27 19.897-.98 4.905 4.765 1.542 7.287-.42 2.523-1.96 15.835-12.89 13.313-19.337zM310.02 30.395s5.258-9 12.333-.14c6.656 8.337 7.287 14.993 8.268 19.897.98 4.905-4.764 1.542-7.286-.42-2.522-1.96-15.834-12.89-13.313-19.337zM286.632 317.472l-29.617-115.855-13.794 12.81L255.02 317.47zM328.968 317.472l10.422-103.046-13.794-12.81-29.617 115.856z"/><path fill="#48484A" d="M247.17 201.62c.34.38 8.29 97.926 16.222 115.852h51.48c-4.323-18.6-14.934-132.738-32.24-176.614-43.68-5.584-50.907-22.99-50.907-22.99 4.6 11.495 37.44 57.803 37.44 57.803s-21.477 26.362-21.995 25.95z"/><path opacity=".2" d="M310.916 317.472c12.15-18.323 24.59-116.88 25.225-117.325-.938.057-28.876-25.953-28.876-25.953s40.726-48.28 45.323-59.774c0 0-8.21 19.377-51.89 24.96-13.632 34.56-24.79 153.766-31.713 178.092h41.932z"/><path fill="#48484A" d="M322.647 317.472c7.548-17.903 15.17-115.48 15.48-115.852-.485.45-21.996-25.95-21.996-25.95s33.336-47.292 37.935-58.788c0 0-7.718 18.392-51.4 23.976-13.576 34.42-24.366 152.734-31.015 176.614h50.997z"/><path fill="#353535" d="M255.445 204.908a.984.984 0 1 1-1.393-1.393l6.502-6.503a.984.984 0 0 1 1.394 1.393l-6.503 6.503zM331.52 202.94a.984.984 0 0 1-.03 1.393.987.987 0 0 1-1.393-.03l-6.364-6.637a.985.985 0 0 1 1.422-1.364l6.365 6.64z"/><path fill="#0599C1" d="M142.85 201.77h127.98v115.86H142.85z"/><path fill="#0892B2" d="M142.85 264.766h127.98v52.864H142.85z"/><path opacity=".2" fill="#010000" d="M199.045 278.015c-3.365-2.853-8.71-4.462-14.5-3.96-4.834.42-8.99 2.238-11.753 4.785-.228.178-.456.356-.67.543l-20.877-2.933c-2.045-.286-3.975.443-5.235 1.79a5.51 5.51 0 0 0-2.248 3.22l-15.97-6.19c-1.204-.427-2.408-.488-3.445-.25-2.512-.555-4.86.417-5.464 2.383-.666 2.177 1.064 4.744 3.865 5.733l4.59 1.78.02.008 1.313.508-.024.056.573.188.01-.027 1.024.396-.04.092.573.188.03-.064 17.932 6.954c.54.19 1.074.287 1.6.338a5.57 5.57 0 0 0 1.958.466l24.545 2.585c3.237.99 6.246 1.422 8.55 1.286.162.024.328.043.506.06l43.526 6.475 12.476-20.536-42.867-5.875z"/><path fill="#FFD79D" d="M183.998 284.482c-.207 5.973-5.442 9.906.758 10.485l43.528 6.473 12.476-20.534-45.165-6.19c-6.198-.58-11.39 3.79-11.597 9.766z"/><path fill="#0599C1" d="M114.877 259.858l-1.785-28.768v-50.87c0-23.436 23.275-42.722 52.727-42.722h90.652c29.444 0 51.802 19.286 51.802 42.723v61.005l-39.965-.257c0 2.337-25.36 3.7-25.817 5.667-26.78 2.668 7.183 13.695-27.862 13.695-23.898 0-42.54 1.778-64.225.473l-35.528-.945z"/><path opacity=".2" fill="#010000" d="M250.68 268.044s15.74-10.704 17.315-19.835c1.873-10.864.315-68.634.315-68.634s14.797-2.204 15.427-1.26c.63.945 5.037 81.227 5.352 81.542.314.314-28.336 29.594-29.28 28.964-.946-.63-9.13-20.778-9.13-20.778z"/><path fill="#FDDBA4" d="M165.055 94.376a3.556 3.556 0 0 0 3.88 3.22l.414-.04a3.573 3.573 0 0 0 3.224-3.882l-1.442-15.46a3.58 3.58 0 0 0-3.89-3.22l-.418.044a3.557 3.557 0 0 0-3.215 3.88l1.445 15.458z"/><g><path fill="#FDDBA4" d="M262.51 94.376a3.558 3.558 0 0 1-3.882 3.22l-.418-.04a3.566 3.566 0 0 1-3.22-3.882l1.442-15.46a3.568 3.568 0 0 1 3.88-3.22l.424.044a3.56 3.56 0 0 1 3.22 3.88l-1.447 15.458z"/><path opacity=".2" fill="#14120E" d="M241.103 128.407h-54.898v8.13c8.777 8.883 19.157 12.084 27.712 12.084 8.35 0 18.395-2.993 27.187-11.593v-8.62z"/><defs><path id="c" d="M208.16 132.792h10.982v2.193H208.16z"/></defs><clipPath id="d"><use xlink:href="#c" overflow="visible"/></clipPath><path clip-path="url(#d)" fill="#14120E" d="M219.565 134.18c0 .38-2.55.692-5.698.692-3.143 0-5.688-.31-5.688-.692 0-.386 2.544-.695 5.687-.695 3.148 0 5.698.31 5.698.695"/><path fill="#FDDBA4" d="M213.575 23.497c-.165 0-.345.01-.515.017-.174-.008-.35-.017-.53-.017-25.335 0-45.872 27.675-45.872 61.825 2.72 19.036 8.714 41.293 14.538 47.117 8.88 8.87 23.146 13.644 31.17 11.633.12.036.185.05.185.082v.077c0-.014-.048-.026 0-.04.06.014 0 .026 0 .04v-.077c0-.03.58-.046.695-.082 8.03 2.01 22.63-2.762 31.5-11.634 5.83-5.825 11.91-28.082 14.64-47.118 0-34.15-20.47-61.825-45.81-61.825z"/><path fill="#FF8080" d="M199.067 103.918c0 5.9-4.78 10.672-10.658 10.672a10.667 10.667 0 0 1-10.673-10.672c0-5.89 4.775-10.667 10.672-10.667 5.877 0 10.657 4.778 10.657 10.668zM248.28 103.918c0 5.9-4.77 10.672-10.665 10.672-5.892 0-10.672-4.772-10.672-10.672 0-5.89 4.78-10.667 10.672-10.667 5.897 0 10.666 4.778 10.666 10.668z"/><path fill="#FFF" d="M245.285 83.376c0 2.324-4.833 4.21-10.812 4.21-5.976 0-10.823-1.886-10.823-4.21 0-2.327 4.847-4.21 10.823-4.21 5.98 0 10.812 1.883 10.812 4.21M200.757 83.376c0 2.324-4.848 4.21-10.817 4.21-5.965 0-10.822-1.886-10.822-4.21 0-2.327 4.857-4.21 10.822-4.21 5.97 0 10.817 1.883 10.817 4.21"/><path opacity=".2" fill="#14120E" d="M219.143 105.68c0 2.797-2.43 5.073-5.416 5.073h-.15c-2.988 0-5.417-2.276-5.417-5.074V82.9c0-2.8 2.43-5.074 5.416-5.074h.15c2.988 0 5.417 2.273 5.417 5.074v22.78z"/><path fill="#FFF" d="M191.533 82.324c0 .44-.36.79-.792.79a.794.794 0 0 1 0-1.587.8.8 0 0 1 .793.797"/><path fill="#422902" d="M237.305 83.363c0 1.684-1.37 3.068-3.06 3.068s-3.06-1.383-3.06-3.067c0-1.69 1.37-3.07 3.06-3.07s3.06 1.38 3.06 3.07"/><path fill="#FFF" d="M233.962 82.152c0 .51-.418.925-.923.925a.92.92 0 0 1-.923-.925c0-.516.408-.93.922-.93a.93.93 0 0 1 .922.93"/><path fill="#422902" d="M193 83.363a3.07 3.07 0 0 1-3.06 3.068 3.07 3.07 0 0 1 0-6.137c1.69 0 3.06 1.38 3.06 3.07"/><path fill="#FFF" d="M189.658 82.152"/><path fill="#422902" d="M200.752 72.794c-.033 1.295-1.277 2.322-2.783 2.28l-17.06-.422c-1.5-.036-2.69-1.122-2.662-2.426.03-1.302 1.278-2.33 2.78-2.295l17.054.426c1.51.04 2.7 1.13 2.67 2.438zM248.56 72.794c-.03 1.295-1.283 2.322-2.784 2.28l-17.05-.422c-1.51-.036-2.71-1.122-2.667-2.426.028-1.302 1.277-2.33 2.778-2.295l17.054.426c1.506.04 2.705 1.13 2.667 2.438z"/><path opacity=".2" fill="#14120E" d="M219.434 133.57c0 .697-2.49 1.265-5.566 1.265-3.07 0-5.557-.568-5.557-1.265 0-.705 2.488-1.268 5.558-1.268 3.074 0 5.566.564 5.566 1.268z"/><path opacity=".1" fill="#010000" d="M170.477 82.283c-1.72-9.657 7.494-31.692 8.64-33.34 5.743 2.556 17.172 3.202 19.085 1.55 4.596 3.3 16.078 11.165 32.72 1.652 7.272-4.39 13.965-4.21 15.117-4.024 1.145.176 9.685 22.143 9.685 35.657 1.384 1.177 2.225 2.666 2.225 2.666s4.012-44.494-.573-48.71c-4.6-4.207-11.91-10.67-20.528-14.15-8.604-3.475-11.475-9.332-11.475-10.984-.96 4.946-.572 8.05-.19 8.604-6.892-4.945-11.162-11.88-10.943-16.19-5.897-.102-18.526 9.237-20.82 12.163-3.632-.364-21.624 13.183-24.874 19.226-3.254 6.038-1.535 45.578 0 48.358.335-.983 1.068-2.035 1.93-2.477z"/><path fill="#77513B" d="M170.18 80.76c-1.725-10.09 7.495-33.122 8.642-34.84 5.74 2.668 17.17 3.34 19.084 1.614 4.596 3.45 16.073 11.672 32.715 1.727 7.277-4.59 13.976-4.4 15.122-4.208 1.146.19 9.68 23.146 9.68 37.273 1.385 1.23 2.226 2.78 2.226 2.78s4.012-46.502-.583-50.907c-4.585-4.394-11.9-11.152-20.508-14.79-8.606-3.634-11.482-9.755-11.482-11.477-.957 5.165-.573 8.416-.19 8.99C217.994 11.754 213.73 4.506 213.943 0c-5.896-.103-18.516 9.653-20.818 12.712-3.638-.38-21.62 13.78-24.87 20.093-3.254 6.314-1.54 47.644 0 50.546.333-1.026 1.066-2.128 1.926-2.59z"/><path opacity=".2" fill="#010000" d="M171.268 128.458c0 16.442 29.49 31.005 42.215 31.005h.37c13.09 0 40.74-16.406 40.74-32.85v-17.862c0-11.314-13.748 5.713-36.51 5.713h-3.293c-25.535 0-43.29-19.582-43.688-8.3l.166 22.295z"/><path fill="#77513B" d="M171.268 124.71c0 16.437 29.49 30.753 42.215 30.753h.37c13.09 0 40.74-15.91 40.74-32.346v-17.87c0-11.312-13.748 9.215-36.51 9.215h-3.293c-25.535 0-43.29-21.46-43.688-10.175l.166 20.422z"/><path fill="#FFF" d="M231.558 116.858c0 5.65-7.966 10.25-17.797 10.25-9.82 0-17.79-4.6-17.79-10.25 0-5.657 7.97-.668 17.79-.668 9.832 0 17.798-4.99 17.798.668"/><g fill="#63402E"><path d="M256.753 95.114s-14.436 19.8-37.897 10.354c-10.375 0-9.09 10.135-1.56 11.315 12.727 1.99 39.65.367 39.457-20.73"/><path d="M170.812 95.114s14.43 19.8 37.897 10.354c10.374 0 9.087 10.135 1.563 11.315-12.73 1.99-39.656.367-39.46-20.73"/></g><path fill="#FF8080" d="M219.143 103.224c0 2.99-2.43 5.418-5.416 5.418h-.15a5.422 5.422 0 0 1-5.417-5.418v-24.3a5.418 5.418 0 0 1 5.416-5.416h.15a5.418 5.418 0 0 1 5.417 5.416v24.3z"/><path opacity=".3" fill-rule="evenodd" clip-rule="evenodd" d="M225.864 72.062c-2.942.912-5.36 1.562-7.242 2.014-4.255 1.032-5.255 1.032-9.51 0a116.363 116.363 0 0 1-7.248-2.014c-7.85-2.42-23.534-2.535-35.887.345l.35 5.535s2.302-.798 3.454 6.468c1.162 7.264 2.202 17.42 18.93 17.657 16.733.223 20.192-15.004 21.116-17.198.922-2.192 1.15-3.807 2.19-4.273 1.32-.583 2.375-.583 3.697 0 1.034.466 1.263 2.08 2.185 4.272.923 2.192 4.392 17.42 21.116 17.197 16.73-.235 17.767-10.393 18.92-17.657 1.15-7.267 3.462-6.468 3.462-6.468l.35-5.535c-12.343-2.88-28.037-2.765-35.882-.345zm-20.657 15.58c-3.406 10.444-11.085 12.696-17.234 12.487-5.897-.205-10.167-1.946-13.15-7.245-2.16-3.85-3.346-8.977-1.69-13.67 1.215-3.416 4.523-5.065 7.948-5.818 5.174-1.146 14.782-.952 19.6 1.287 3.92 1.804 6.97 5.49 4.527 12.96zm47.694 5.243c-2.98 5.3-7.255 7.04-13.153 7.244-6.144.208-13.82-2.043-17.23-12.487-2.432-7.468.61-11.155 4.524-12.96 4.83-2.238 14.437-2.433 19.605-1.286 3.425.753 6.738 2.402 7.952 5.817 1.656 4.694.475 9.82-1.696 13.67z"/><g><path fill="#EDEDED" d="M173.687 72.717c.01.556-1.33 1.042-2.997 1.08-1.676.037-3.045-.386-3.055-.947-.015-.562 1.33-1.044 3.01-1.078 1.667-.042 3.026.383 3.042.945M260.493 72.717c.005.556-1.33 1.042-3.007 1.08-1.67.037-3.036-.386-3.05-.947-.01-.562 1.335-1.044 3-1.078 1.678-.042 3.047.383 3.057.945"/><path fill-rule="evenodd" clip-rule="evenodd" fill="#065D72" d="M165.978 70.358l.35 5.53s2.302-.8 3.454 6.465c1.16 7.27 2.2 17.42 18.93 17.654 16.732.226 20.19-15.002 21.115-17.198.922-2.19 1.15-3.804 2.19-4.263 1.32-.585 2.375-.585 3.697 0 1.034.46 1.263 2.074 2.185 4.262.922 2.195 4.39 17.423 21.115 17.197 16.73-.233 17.767-10.385 18.92-17.654 1.15-7.265 3.462-6.465 3.462-6.465l.35-5.53c-12.344-2.888-28.038-2.773-35.883-.348-2.942.908-5.36 1.56-7.242 2.012-4.255 1.032-5.255 1.032-9.51 0a118.268 118.268 0 0 1-7.248-2.012c-7.85-2.425-23.533-2.54-35.886.348m15.102.982c-3.424.76-6.732 2.4-7.947 5.82-1.656 4.69-.47 9.823 1.69 13.672 2.983 5.297 7.252 7.04 13.15 7.242 6.148.21 13.828-2.042 17.233-12.485 2.442-7.467-.607-11.157-4.528-12.964-4.817-2.23-14.426-2.428-19.598-1.286m65.565 0c3.425.76 6.738 2.4 7.952 5.82 1.656 4.69.476 9.823-1.696 13.672-2.98 5.297-7.255 7.04-13.153 7.242-6.144.21-13.82-2.042-17.23-12.485-2.432-7.467.61-11.157 4.524-12.964 4.83-2.23 14.437-2.428 19.605-1.286m10.715.735c-1.335-.07-2.424.22-2.424.632 0 .413 1.088.804 2.424.867 1.346.07 2.424-.21 2.424-.623 0-.416-1.078-.804-2.424-.875m-86.99 0c1.335-.07 2.418.22 2.418.632 0 .413-1.083.804-2.42.867-1.34.07-2.428-.21-2.428-.623 0-.416 1.088-.804 2.43-.875"/></g></g><path opacity=".2" fill="#010000" d="M242.493 310.86h-41.558l13.223-37.78h28.335c15.624 0 28.335-12.71 28.335-28.334v-65.8h37.78v65.8c0 36.456-29.66 66.114-66.115 66.114z"/><path fill="#0599C1" d="M242.493 308.027h-41.558l4.723-37.78h36.835c15.624 0 28.335-12.71 28.335-28.335v-65.8h37.78v65.8c0 36.456-29.66 66.115-66.115 66.115z"/><path opacity=".2" fill="#010000" d="M269.79 269.99h-8.576c.083-.512.133-1.06.154-1.632h.015v-99.563c0-.81.45-6.22-2.735-6.22H142.062v115.358h127.726a2.685 2.685 0 0 0 2.687-2.69v-2.56c0-1.488-1.2-2.692-2.686-2.692z"/><g><path fill="#8E8E8E" d="M233.593 272.463v-22"/><path opacity=".6" fill="#FFF" d="M233.593 253.463v-3"/><path fill="#D8D8D8" d="M257.593 168.374c0-4.314-1.61-8.91-5.16-8.91H95.678c-3.55 0-8.084 4.596-8.084 8.91v96.543c0 4.314 4.534 7.546 8.084 7.546h156.756c3.55 0 5.16-3.232 5.16-7.546v-96.543z"/><path fill="#C4C4C4" d="M268.697 272.41c0 1.486-1.2 2.69-2.687 2.69H81.57a2.694 2.694 0 0 1-2.692-2.69v-2.56a2.695 2.695 0 0 1 2.692-2.693h184.44a2.687 2.687 0 0 1 2.687 2.692v2.56z"/><path opacity=".18" fill="#010101" d="M199.962 268.237v1.34c0 .78-.63 1.408-1.408 1.408h-49.532a1.405 1.405 0 0 1-1.404-1.408v-1.34"/><path fill="#4C4C4C" d="M176.558 167.947c0 .996-.802 1.792-1.792 1.792a1.79 1.79 0 0 1 0-3.584c.99 0 1.792.803 1.792 1.79z"/><path fill-rule="evenodd" clip-rule="evenodd" fill="#66BC39" d="M96.868 173.76h154.136v85.216H96.868z"/><path fill-rule="evenodd" clip-rule="evenodd" fill="#464646" d="M96.868 172.722h154.136v10.86H96.868z"/><circle fill="#FCD22E" cx="105.663" cy="178.153" r="2.327"/><path fill="#FF4848" d="M115.086 178.153a2.326 2.326 0 0 1-4.654 0 2.327 2.327 0 0 1 4.654 0z"/><path fill-rule="evenodd" clip-rule="evenodd" fill="#FFF" d="M120.304 178.153c0 1.13.917 2.05 2.05 2.05H246.09a2.05 2.05 0 0 0 2.05-2.05c0-1.13-.917-2.046-2.05-2.046H122.354c-1.133 0-2.05.916-2.05 2.046z"/><path opacity=".2" fill-rule="evenodd" clip-rule="evenodd" fill="#FFF" d="M257.593 265.463v-99.5c0-.812.46-6.5-2.724-6.5h-93.23c14.466 23 42.92 69 64.394 106h31.56z"/><circle opacity=".2" fill="#3C3C3B" cx="176.18" cy="233.625" r="17.602"/><circle fill="#D3D3D3" cx="176.179" cy="232.853" r="17.093"/><path opacity=".2" fill="#3C3C3B" d="M186.77 234.302c0 5.848-4.742 10.588-10.59 10.588-5.846 0-10.59-4.74-10.59-10.588 0-5.85 4.744-10.59 10.59-10.59 5.848 0 10.59 4.742 10.59 10.59z"/><path fill="#EBEBEB" d="M186.77 232.945c0 5.85-4.742 10.59-10.59 10.59-5.846 0-10.59-4.74-10.59-10.59s4.744-10.588 10.59-10.588c5.848 0 10.59 4.74 10.59 10.588z"/><circle opacity=".1" fill="#3C3C3B" cx="176.18" cy="232.945" r="6.632"/><path fill="#FF2727" d="M174.708 226.515l1.47-2.55 1.476 2.55z"/><g fill="#999"><path d="M182.34 248.803l-.61.223-1.26-3.458.612-.222zM171.897 220.144l-.615.224-1.26-3.46.615-.224zM175.854 246.266h.653v3.68h-.653zM175.853 215.772h.655v3.684h-.655zM170.648 249.027l-.61-.223 1.258-3.46.61.224zM181.083 220.373l-.614-.225 1.26-3.458.615.225zM165.442 246.16l-.5-.42 2.366-2.82.5.42zM185.05 222.793l-.5-.423 2.375-2.808.5.422zM161.54 241.69l-.326-.564 3.186-1.84.326.565zM187.968 226.443l-.33-.566 3.185-1.847.33.566zM159.4 236.15l-.114-.646 3.625-.645.116.643zM189.443 230.84l-.114-.643 3.623-.646.114.643z"/><g><path d="M159.3 230.2l.113-.643 3.622.645-.114.644zM189.327 235.494l.115-.644 3.622.646-.115.644z"/></g><g><path d="M161.23 224.598l.327-.565 3.18 1.848-.328.566zM187.622 239.837l.33-.564 3.176 1.85-.328.564z"/></g><g><path d="M164.955 219.99l.5-.42 2.368 2.817-.5.42zM187.41 245.74l-.496.42-2.367-2.82.502-.42z"/></g><g><path d="M170.033 216.91l.61-.22 1.26 3.46-.61.22zM180.463 245.557l.615-.224 1.262 3.458-.615.225z"/></g><g><path d="M175.853 215.772h.655v3.682h-.655zM175.853 246.266h.655v3.68h-.655z"/></g></g><g opacity=".4" fill="#3C3C3B"><path d="M154.59 207.558a2.07 2.07 0 0 1-2.07 2.07h-7.66a2.072 2.072 0 0 1-2.074-2.07V194.93c0-1.144.93-2.07 2.073-2.07h7.66a2.07 2.07 0 0 1 2.07 2.07v12.628zM173.013 207.558a2.07 2.07 0 0 1-2.07 2.07h-7.66a2.07 2.07 0 0 1-2.07-2.07V194.93a2.07 2.07 0 0 1 2.07-2.07h7.66a2.07 2.07 0 0 1 2.07 2.07v12.628zM191.8 207.558a2.07 2.07 0 0 1-2.07 2.07h-7.658a2.068 2.068 0 0 1-2.07-2.07V194.93c0-1.144.924-2.07 2.07-2.07h7.657a2.07 2.07 0 0 1 2.07 2.07v12.628zM210.227 207.558a2.07 2.07 0 0 1-2.07 2.07h-7.663a2.07 2.07 0 0 1-2.07-2.07V194.93a2.07 2.07 0 0 1 2.07-2.07h7.662a2.07 2.07 0 0 1 2.07 2.07v12.628z"/></g><path fill="#EFEFEF" d="M154.59 208.385a2.07 2.07 0 0 1-2.07 2.07h-7.66a2.074 2.074 0 0 1-2.074-2.07V195.76c0-1.145.93-2.073 2.073-2.073h7.66a2.07 2.07 0 0 1 2.07 2.072v12.625zM173.013 208.385a2.07 2.07 0 0 1-2.07 2.07h-7.66c-1.144 0-2.07-.928-2.07-2.07V195.76c0-1.145.926-2.073 2.07-2.073h7.66a2.07 2.07 0 0 1 2.07 2.072v12.625zM191.8 208.385c0 1.143-.928 2.07-2.07 2.07h-7.658a2.07 2.07 0 0 1-2.07-2.07V195.76a2.07 2.07 0 0 1 2.07-2.073h7.657c1.142 0 2.07.928 2.07 2.072v12.625zM210.227 208.385a2.07 2.07 0 0 1-2.07 2.07h-7.663c-1.144 0-2.07-.928-2.07-2.07V195.76c0-1.145.926-2.073 2.07-2.073h7.662a2.07 2.07 0 0 1 2.07 2.072v12.625z"/><circle fill="#828282" cx="148.689" cy="202.071" r="1.899"/><path fill="#828282" d="M169.01 202.07a1.898 1.898 0 1 1-3.794 0 1.898 1.898 0 0 1 3.795 0z"/><circle fill="#828282" cx="185.9" cy="202.071" r="1.898"/><circle fill="#828282" cx="204.324" cy="202.071" r="1.897"/></g><path opacity=".2" fill="#010000" d="M106.118 218.465c-.79-1.018 1.238-1.4 1.238-1.4 2.145-.576 3.71-2.4 3.724-4.57.012-2.64-2.29-4.793-5.14-4.8l-8.015.027c-.383-.48-.734-1.096-.808-1.832-.1-.982-.196.404-.246 1.836l-9.697.033v40.207l14.308-.05c2.607.01 4.73-1.932 4.74-4.344.013-2.144-1.65-3.924-3.852-4.307-.502-.53.083-.83.776-1h.284c2.854.012 5.18-2.115 5.19-4.757.013-2.126-1.49-3.912-3.562-4.546-.343-.64.337-1.082.495-1.172 2.503-.324 4.434-2.288 4.45-4.692.01-2.234-1.646-4.106-3.882-4.635z"/><g><path fill="#DDB890" d="M104.672 209.68l.637 5.34s-2.24.417-1.11 1.55c1.13 1.135-.658 9.16-.658 9.16s-1.037.522-.472 1.307c.566.784-.565 8.98-.565 8.98s-3.205.177-2.168 1.223c1.037 1.047.095 2.53-.188 2.53-.284 0-12.82.436-13.103.35-.283-.09-5.09-5.147-5.09-5.147l-2.92-23.198 25.635-2.094z"/><ellipse transform="rotate(-5.025 80.23 226.257)" fill="#FFD79D" cx="80.235" cy="226.267" rx="4.905" ry="19.49"/><ellipse transform="rotate(-5.025 80.23 226.257)" opacity=".4" fill="#E9B980" cx="80.235" cy="226.267" rx="4.905" ry="19.49"/><path fill="#F4CD9A" d="M97.015 206.742s-1.767-1.132-1.944-2.898c-.175-1.768-.353 4.135-.246 4.17.106.036 2.19-1.272 2.19-1.272z"/><path fill="#FFD79D" d="M76.774 210.727l.377 2.907s.85 2.404-.564 3.372c-1.346.92-1.13 2.79-1.037 3.14.093.35 2.543 4.012 2.543 4.012s-.47.96-.094 1.745c.375.784-.377 1.743-1.226 2.528-.848.787 3.582 7.588 3.582 7.588s.753 1.222 0 1.83c-.753.613.47 2.967.66 3.23.188.26 4.523-.873 4.523-.873l1.98-3.14s-.19-.785.658-.785-3.864-8.72-3.864-8.72l2.073-.96s-.282-.698.377-.786c.66-.086-.472-9.506-.472-9.506s-.752-1.046.472-1.046c1.225 0-6.88-5.233-6.88-5.233l-3.11.697z"/><path fill="#FFD79D" d="M79.392 225.892c-2.854-.012-5.16-2.163-5.143-4.798.01-2.642 2.333-4.768 5.188-4.76l23.375-.078c2.85.004 5.153 2.16 5.14 4.8-.015 2.64-2.333 4.77-5.19 4.758l-23.37.078zM80.777 236.286c-2.855-.01-5.157-2.164-5.145-4.808.012-2.637 2.338-4.768 5.193-4.755l20.603-.066c2.854.018 5.16 2.167 5.145 4.808-.01 2.64-2.337 4.768-5.19 4.755l-20.606.066zM82.583 245.93c-2.608-.008-4.71-1.975-4.7-4.39.012-2.408 2.136-4.355 4.744-4.343l16.85-.06c2.607.016 4.712 1.98 4.697 4.39-.01 2.413-2.133 4.355-4.74 4.343l-16.85.06zM80.472 215.287c-2.855-.013-5.16-2.163-5.143-4.797.01-2.644 2.332-4.77 5.188-4.762l23.375-.08c2.85.007 5.153 2.162 5.14 4.8-.014 2.17-1.58 3.995-3.724 4.57a5.52 5.52 0 0 1-1.468.19l-23.37.08z"/><g opacity=".4" fill="#E9B980"><path d="M98.593 213.99a.47.47 0 0 1-.47.473h-.06a.47.47 0 0 1-.47-.472v-6.056c0-.26.21-.472.47-.472h.06c.26 0 .47.21.47.472v6.057zM100.593 213.99c0 .262-.21.473-.472.473h-.056a.472.472 0 0 1-.472-.472v-6.056c0-.26.21-.472.472-.472h.057c.262 0 .473.21.473.472v6.057zM102.593 213.99a.47.47 0 0 1-.47.473h-.06a.47.47 0 0 1-.47-.472v-6.056c0-.26.21-.472.47-.472h.06c.26 0 .47.21.47.472v6.057z"/></g><g opacity=".4" fill="#E9B980"><path d="M98.593 223.992c0 .26-.21.47-.47.47h-.06a.47.47 0 0 1-.47-.47v-6.06c0-.26.21-.47.47-.47h.06c.26 0 .47.21.47.47v6.06zM100.593 223.35c0 .26-.328 1.113-.59 1.113h-.08c-.26 0-.33-.854-.33-1.114v-5.2c0-.26.07-.687.33-.687h.08c.262 0 .59.428.59.688v5.2zM102.593 223.992c0 .26-.21.47-.47.47h-.06a.47.47 0 0 1-.47-.47v-6.06c0-.26.21-.47.47-.47h.06c.26 0 .47.21.47.47v6.06z"/></g><g opacity=".4" fill="#E9B980"><path d="M97.593 234.99c0 .262-.21.473-.472.473h-.056a.472.472 0 0 1-.472-.472v-6.056c0-.26.21-.472.472-.472h.057c.262 0 .473.21.473.472v6.057z"/><path d="M98.593 234.99a.47.47 0 0 1-.47.473h-.06a.47.47 0 0 1-.47-.472v-6.056c0-.26.21-.472.47-.472h.06c.26 0 .47.21.47.472v6.057zM101.593 234.99c0 .262-.21.473-.472.473h-.056a.472.472 0 0 1-.472-.472v-6.056c0-.26.21-.472.472-.472h.057c.262 0 .473.21.473.472v6.057z"/></g><g opacity=".4" fill="#E9B980"><path d="M96.426 243.936c0 .26-.184.472-.412.472h-.166c-.228 0-.412-.212-.412-.472v-4.712c0-.26.184-.472.412-.472h.166c.228 0 .412.21.412.472v4.712zM97.91 243.936c0 .26-.184.472-.41.472h-.167c-.228 0-.413-.212-.413-.472v-4.712c0-.26.185-.472.413-.472h.166c.226 0 .41.21.41.472v4.712zM99.395 243.936c0 .26-.184.472-.412.472h-.166c-.227 0-.412-.212-.412-.472v-4.712c0-.26.185-.472.412-.472h.166c.228 0 .412.21.412.472v4.712z"/></g></g><path fill="#E9B980" d="M120.363 274.44c-.667 2.176 1.06 4.743 3.862 5.732l26.003 10.078c2.797.99 5.608.024 6.275-2.155.668-2.177-1.063-4.742-3.863-5.73l-26-10.08c-2.802-.99-5.614-.022-6.277 2.154z"/><path fill="#FFD79D" d="M184.236 285.406l-32.655-3.442a5.605 5.605 0 0 0-1.93.24l-25.642-9.94c-2.8-.987-5.61-.02-6.278 2.155-.666 2.177 1.064 4.745 3.865 5.732l26 10.082c.54.19 1.075.287 1.602.337a5.558 5.558 0 0 0 1.957.467l32.652 3.438c2.793.154 5.148-1.755 5.27-4.262.12-2.503-2.05-4.657-4.84-4.807z"/><path opacity=".1" fill="#1D0600" d="M180.442 279.015c-.66 6.19 3.873 11.837 10.128 12.6 5.962.73 11.333-3.237 12.39-8.98.05-.276-3.774-6.625-3.774-6.625-7.255 1.938-5.065 2.003-11.316 1.24-6.254-.77-6.77-4.433-7.428 1.765z"/><g opacity=".1" fill="#1D0600"><path d="M185.525 293.93c9.198-.8 5.86-7.747 5.08-14.125-.78-6.382 1.053-8.734-8.14-7.936-9.2.798-16.017 6.613-15.237 12.993.784 6.38 9.105 9.863 18.297 9.066z"/><path d="M177.056 289.723c3.29.46 6.274-1.702 6.67-4.833.395-3.134-1.95-6.048-5.237-6.508l-29.327-4.12c-3.288-.46-6.276 1.703-6.67 4.837-.396 3.133 1.947 6.04 5.234 6.504l29.33 4.12z"/><path d="M173.108 292.727c7.418 2.87 14.33 2.953 15.435.188 1.105-2.767-4.012-7.338-11.432-10.204-7.416-2.87-20.833 3.662-17.81 4.497 7.5 2.073 6.39 2.652 13.808 5.52z"/></g><path fill="#FFD79D" d="M201.456 281.177c-.78-6.377-8.867-10.902-18.062-10.104-5.182.45-9.61 2.495-12.35 5.338l-20.952-2.944c-3.288-.46-6.274 1.702-6.668 4.835-.4 3.134 1.948 6.046 5.237 6.507l11.73 1.647c7.315 2.038 6.286 2.63 13.65 5.48.287.107.567.205.85.31 3.153 1.532 7.12 2.293 11.333 1.93 9.193-.8 16.013-6.617 15.233-12.997z"/><g fill="#E9B980"><path d="M167.197 278.19c-.162-.03-.32.09-.35.267l-1.094 7.03c-.027.176.084.344.25.372.165.03.32-.09.35-.266l1.094-7.028c.03-.177-.084-.347-.25-.376zM165.596 277.76a.31.31 0 0 0-.35.27l-1.096 7.03c-.028.177.083.344.247.373.167.03.322-.09.35-.268l1.095-7.028c.03-.18-.083-.346-.246-.377zM163.894 277.178c-.165-.028-.322.093-.35.27l-1.093 7.027c-.028.176.084.347.25.376.166.03.32-.09.347-.268l1.096-7.03c.027-.176-.084-.344-.25-.374z"/></g><path fill="#E9B980" d="M148.455 283.41c2.22.317 3.153-1.18 3.45-3.567.297-2.383-.154-4.752-2.375-5.07-2.22-.32-4.26 1.355-4.557 3.742-.3 2.384 1.26 4.576 3.482 4.894zM120.592 279.338c1.566.822 2.468.25 3.043-1.007.573-1.258.6-2.725-.96-3.55-1.567-.823-3.3-.47-3.875.79-.573 1.258.228 2.945 1.792 3.768zM129.635 283.344l-.573-.188.726-1.662c.06-.13.232-.192.388-.135.16.055.24.206.184.337l-.725 1.647zM128.066 282.694l-.573-.188.726-1.662c.055-.13.232-.19.388-.136.155.057.236.207.18.34l-.722 1.646zM126.76 282.12l-.573-.186.728-1.664c.058-.13.23-.19.39-.135.153.055.236.205.178.335l-.722 1.65z"/><g><path fill="#FCD22E" d="M87.27 137.178c3.754 9.895 11.32 17.894 20.894 22.23a40.037 40.037 0 0 0-20.893 22.23c-3.76-9.887-11.322-17.905-20.905-22.23a40.084 40.084 0 0 0 20.906-22.23z"/><path fill="#FD7600" d="M87.27 148.21c1.883 4.972 5.697 9.003 10.532 11.198a20.094 20.094 0 0 0-10.53 11.198 20.14 20.14 0 0 0-10.53-11.198 20.24 20.24 0 0 0 10.53-11.198z"/><path fill="#FCD22E" d="M70.647 121.413A19.592 19.592 0 0 0 80.86 132.28a19.553 19.553 0 0 0-10.213 10.865 19.553 19.553 0 0 0-10.21-10.864 19.595 19.595 0 0 0 10.21-10.867z"/><path fill="#FD7600" d="M70.647 126.8a9.883 9.883 0 0 0 5.15 5.48 9.83 9.83 0 0 0-5.15 5.47 9.824 9.824 0 0 0-5.145-5.47 9.88 9.88 0 0 0 5.145-5.48z"/><g><path fill="#FCD22E" d="M106.168 115.103a28.248 28.248 0 0 0 14.735 15.684 28.215 28.215 0 0 0-14.735 15.683 28.256 28.256 0 0 0-14.753-15.683 28.296 28.296 0 0 0 14.753-15.684z"/><path fill="#FD7600" d="M106.168 122.886a14.214 14.214 0 0 0 7.424 7.9 14.143 14.143 0 0 0-7.424 7.897 14.192 14.192 0 0 0-7.437-7.897 14.263 14.263 0 0 0 7.438-7.9z"/></g></g></svg>