<svg xmlns="http://www.w3.org/2000/svg" width="295.245" height="219.679" viewBox="0 0 295.245 219.679"><path opacity=".2" fill="#010000" d="M178.868 123.187l-1.767-.268 2.577-16.976 1.766.268z"/><path fill="#A8A8A8" d="M243.18 133.075l-25.22-3.875 2.61-16.97 25.217 3.875z"/><path opacity=".2" fill="#010000" d="M219.75 129.464l-1.77-.27 2.59-16.975 1.77.27z"/><path opacity=".2" fill="#010000" d="M220.716 111.26l25.222 3.875-.417 2.685-25.217-3.875z"/><path fill="#919191" d="M220.87 110.228l25.23 3.88-.423 2.683-25.212-3.875z"/><path fill="#FF4040" d="M27.62 201.357c2.098 10.322 7.99 17.83 17.836 17.83h176.112c9.854 0 15.912-8.034 17.838-17.83l16.076-85.258c0-9.85-24.06 2.79-33.914 2.79h-186.6c-9.842 0-22.02-9.848-22.02 0l14.67 82.467z"/><path opacity=".1" d="M27.62 197.498c2.098 10.317 7.99 17.835 17.836 17.835h176.112c9.854 0 15.912-8.042 17.838-17.835l15.692-83.23c.247.493.384 1.1.384 1.83l-16.076 85.26c-1.926 9.794-7.984 17.83-17.838 17.83H45.456c-9.847 0-15.738-7.508-17.837-17.83L12.947 118.89c0-.894.092-1.62.29-2.216l14.38 80.824z"/><path opacity=".2" d="M12.948 118.89c0-1.685.374-2.767 1.022-3.445 2.8.752 5.685 1.352 8.416 1.352h2.775c3.19 1.062 6.62 2.093 9.807 2.093h186.6c2.682 0 6.405-.93 10.42-2.093h.665c4.807 0 12.615-2.375 19.93-4.262 1.805.396 2.9 1.465 2.9 3.563l-2.676 14.197h-98.674c-4.42 6.66-12.552 11.14-21.886 11.14-9.336 0-17.475-4.48-21.882-11.14h-95.39l-2.026-11.405z"/><path fill="#FF5252" d="M2.18 117.587a6.15 6.15 0 0 0 6.15 6.154H256.6a6.152 6.152 0 0 0 6.16-6.153l2.163-10.49c0-3.4-2.75-6.153-6.15-6.153H6.16A6.158 6.158 0 0 0 0 107.096l2.18 10.49z"/><path opacity=".2" fill="#FFF" d="M258.773 103.826H6.16c-2.83 0-5.18 1.91-5.9 4.502L0 107.096c0-3.4 2.764-6.152 6.16-6.152h252.613c3.4 0 6.15 2.752 6.15 6.152l-.246 1.23c-.727-2.59-3.082-4.5-5.904-4.5z"/><path opacity=".2" d="M158.152 112.342c0 4.1-.984 7.962-2.698 11.398h-45.98c-1.713-3.437-2.7-7.298-2.7-11.398s.987-7.964 2.7-11.398h45.98a25.444 25.444 0 0 1 2.698 11.398z"/><circle fill="#FF5252" cx="132.467" cy="112.342" r="22.544"/><path opacity=".2" d="M114.95 112.342c0 9.67 7.838 17.52 17.516 17.52 9.68 0 17.52-7.85 17.52-17.52 0-9.677-7.84-17.522-17.52-17.522-9.678 0-17.517 7.845-17.517 17.522z"/><g opacity=".3"><path d="M31.772 159.956a4.367 4.367 0 0 0 8.736 0v-19.57a4.368 4.368 0 0 0-8.736 0v19.57zM49.606 159.956a4.364 4.364 0 0 0 4.366 4.368 4.37 4.37 0 0 0 4.37-4.368v-19.57a4.367 4.367 0 0 0-4.37-4.37 4.362 4.362 0 0 0-4.366 4.37v19.57zM67.43 159.956a4.376 4.376 0 0 0 4.376 4.368 4.366 4.366 0 0 0 4.365-4.368v-19.57a4.364 4.364 0 0 0-4.364-4.37 4.374 4.374 0 0 0-4.377 4.37v19.57zM85.263 159.956a4.373 4.373 0 0 0 4.373 4.368A4.366 4.366 0 0 0 94 159.956v-19.57a4.364 4.364 0 0 0-4.364-4.37 4.37 4.37 0 0 0-4.373 4.37v19.57zM103.097 159.956a4.37 4.37 0 0 0 4.372 4.368 4.363 4.363 0 0 0 4.36-4.368v-19.57a4.36 4.36 0 0 0-4.36-4.37 4.368 4.368 0 0 0-4.373 4.37v19.57zM120.927 159.956a4.367 4.367 0 0 0 8.735 0v-19.57a4.365 4.365 0 0 0-4.367-4.37 4.367 4.367 0 0 0-4.368 4.37v19.57zM138.76 159.956a4.374 4.374 0 0 0 4.373 4.368 4.368 4.368 0 0 0 4.362-4.368v-19.57a4.366 4.366 0 0 0-4.362-4.37 4.372 4.372 0 0 0-4.373 4.37v19.57zM156.594 159.956a4.366 4.366 0 0 0 4.37 4.368 4.367 4.367 0 0 0 4.365-4.368v-19.57a4.364 4.364 0 0 0-4.367-4.37 4.364 4.364 0 0 0-4.37 4.37v19.57zM174.42 159.956a4.37 4.37 0 0 0 4.37 4.368 4.368 4.368 0 0 0 4.37-4.368v-19.57a4.365 4.365 0 0 0-4.37-4.37 4.367 4.367 0 0 0-4.37 4.37v19.57zM192.257 159.956a4.37 4.37 0 0 0 4.37 4.368 4.365 4.365 0 0 0 4.365-4.368v-19.57c0-2.417-1.95-4.37-4.365-4.37a4.367 4.367 0 0 0-4.37 4.37v19.57zM210.086 159.956a4.367 4.367 0 0 0 8.736 0v-19.57a4.365 4.365 0 0 0-4.366-4.37 4.366 4.366 0 0 0-4.37 4.37v19.57zM227.92 159.956a4.366 4.366 0 0 0 8.734 0v-19.57a4.364 4.364 0 0 0-4.365-4.37 4.366 4.366 0 0 0-4.37 4.37v19.57z"/></g><g opacity=".3"><path d="M49.606 198.22c0 2.418 1.95 4.37 4.366 4.37a4.367 4.367 0 0 0 4.37-4.37v-19.57a4.37 4.37 0 0 0-4.37-4.367 4.365 4.365 0 0 0-4.366 4.368v19.57zM67.43 198.22c0 2.418 1.964 4.37 4.376 4.37a4.364 4.364 0 0 0 4.365-4.37v-19.57a4.367 4.367 0 0 0-4.364-4.367 4.377 4.377 0 0 0-4.377 4.368v19.57zM85.263 198.22a4.37 4.37 0 0 0 4.373 4.37A4.364 4.364 0 0 0 94 198.22v-19.57a4.367 4.367 0 0 0-4.364-4.367 4.374 4.374 0 0 0-4.373 4.368v19.57zM103.097 198.22c0 2.418 1.957 4.37 4.372 4.37a4.36 4.36 0 0 0 4.36-4.37v-19.57c0-2.41-1.948-4.367-4.36-4.367a4.37 4.37 0 0 0-4.373 4.368v19.57zM120.927 198.22c0 2.418 1.957 4.37 4.368 4.37a4.365 4.365 0 0 0 4.367-4.37v-19.57a4.368 4.368 0 0 0-4.367-4.367 4.37 4.37 0 0 0-4.368 4.368v19.57zM138.76 198.22c0 2.418 1.964 4.37 4.373 4.37a4.366 4.366 0 0 0 4.362-4.37v-19.57a4.368 4.368 0 0 0-4.362-4.367 4.375 4.375 0 0 0-4.373 4.368v19.57zM156.594 198.22c0 2.418 1.953 4.37 4.37 4.37a4.365 4.365 0 0 0 4.365-4.37v-19.57a4.367 4.367 0 0 0-8.735 0v19.57zM174.42 198.22c0 2.418 1.957 4.37 4.37 4.37a4.366 4.366 0 0 0 4.37-4.37v-19.57a4.37 4.37 0 0 0-8.74 0v19.57zM192.257 198.22c0 2.418 1.957 4.37 4.37 4.37a4.363 4.363 0 0 0 4.365-4.37v-19.57c0-2.41-1.95-4.367-4.365-4.367a4.37 4.37 0 0 0-4.37 4.368v19.57zM210.086 198.22c0 2.418 1.955 4.37 4.37 4.37a4.366 4.366 0 0 0 4.366-4.37v-19.57a4.37 4.37 0 0 0-8.736 0v19.57z"/></g><path opacity=".1" d="M201.137 219.187H45.457c-9.848 0-15.74-7.507-17.838-17.83l-13.384-75.25c58.952 29.483 142.254 71.073 186.9 93.08z"/><path fill="#4D4756" d="M123.338 121.468c4.546 5.51 12.7 6.284 18.197 1.74 5.512-4.546 6.287-12.7 1.738-18.204L60.486 3.162C55.946-2.343 50.46.112 44.962 4.66c-5.51 4.548-8.958 9.463-4.412 14.967l82.788 101.84z"/><path opacity=".2" d="M119.51 106.957l10.24-8.457-68.99-85.134-10.24 8.456z"/><path fill="#FF5252" d="M126.425 116.427a7.328 7.328 0 0 0 10.33.987c3.127-2.58 3.57-7.21.993-10.33-2.586-3.13-7.216-3.568-10.336-.987a7.336 7.336 0 0 0-.987 10.33z"/><path opacity=".2" d="M288.643 152.468l-50.76-52.028-60.815 1.6-52.16 117.64 121.805-.11z"/><g><path fill="#FFCE12" d="M288.608 98.444c-2.413.19-4.86.295-7.35.295-20.534 0-38.523-6.506-48.604-16.268-4.82 4.67-11.466 8.578-19.317 11.41.035 2.95.247 18.438.494 18.364.276-.08 11.212 15.606 11.212 15.606l3.82 19.61 13.737 9.343-19.11-6.408-5.336-18.404-15.976-13.56-3.805-20.792a92.778 92.778 0 0 1-14.313 1.098c-2.494 0-4.948-.104-7.357-.295-4.245 9.084-6.637 20.273-6.637 33.82 0 46.41 38.06 87.325 62.588 87.325 26.267 0 62.59-40.916 62.59-87.326 0-13.545-2.39-24.734-6.636-33.818z"/><path opacity=".1" fill="#010000" d="M288.608 98.444c-2.413.19-4.86.295-7.35.295-20.257 0-38.03-6.34-48.18-15.887V219.57c26.228-.426 62.166-41.142 62.166-87.307 0-13.546-2.39-24.735-6.636-33.82z"/></g></svg>