<svg xmlns="http://www.w3.org/2000/svg" width="142.38" height="104.767" viewBox="0 0 142.38 104.767"><path fill="#575756" d="M111.557 99.312s-6.642-19.037-8.265-22.43c-1.62-3.396-3.49-4.803-5.895-5.898-2.403-1.097-27.182-11.982-27.182-11.982L56.02 60.09 41.834 59S17.056 69.887 14.66 70.984c-2.404 1.095-4.272 2.502-5.902 5.897C7.136 80.275.5 99.313.5 99.313s-2.068 5.455 2.21 5.455h106.638c4.28 0 2.21-5.455 2.21-5.455"/><path fill="#DADADA" d="M69.682 104.767l8.34-42.457L55.3 73.15 32.67 62.31l9.144 42.457z"/><path fill="#E9B990" d="M68.224 59.692c0 6.56-5.713 11.876-12.76 11.876-7.046 0-12.754-5.316-12.754-11.876V46.166c0-6.564 5.708-11.885 12.755-11.885 7.046 0 12.76 5.32 12.76 11.886v13.526z"/><path fill="#FFC58F" d="M68.224 57.542c0 6.566-5.713 11.886-12.76 11.886-7.046 0-12.754-5.32-12.754-11.886v-13.52c0-6.566 5.708-11.89 12.755-11.89 7.046 0 12.76 5.323 12.76 11.89v13.52z"/><path fill="#FFD196" d="M76.15 27.884c-.292-.027-.563.036-.833.104-1.705-12.816-9.687-22.513-19.28-22.513-16.68 0-17.595 9.697-19.304 22.514-.263-.07-.533-.133-.823-.105a2.685 2.685 0 0 0-2.488 2.89l.55 7.513a2.702 2.702 0 0 0 2.883 2.488c.112-.007.188-.06.292-.077 2.343 11.574 9.9 20.07 18.89 20.07 8.97 0 16.523-8.496 18.877-20.073.096.018.177.07.284.077a2.692 2.692 0 0 0 2.877-2.488l.56-7.514a2.69 2.69 0 0 0-2.484-2.888"/><g fill="#7C5947"><path d="M37.113 29.544c0 .577-.48 1.027-1.068 1.027-.59 0-1.06-.45-1.06-1.026 0-.564.47-1.02 1.06-1.02.588 0 1.068.455 1.068 1.02M77.073 29.544c0 .577-.475 1.027-1.065 1.027s-1.065-.45-1.065-1.026c0-.564.476-1.02 1.065-1.02.59 0 1.065.455 1.065 1.02"/><path d="M56.036 0c-11.63 0-21.052 8.165-21.052 18.25v11.294h2.13V25.41c0-3.474 1.658-4.214 2.977-3.317 0 0 6.717 4.022 16.827 0 15.992-6.362 18.026 1.49 18.026 3.316v4.134h2.13V18.25C77.074 8.166 67.65 0 56.037 0"/></g><path fill="#FC762B" d="M63.554 70.97H48.852l6.166 12.508-3.89 21.29H61.69l-4.012-21.29z"/><path fill="#F6F6F6" d="M70.13 56.908l7.912 5.178-10.38 20.49L55.348 70.97z"/><path fill="#F6F6F6" d="M41.413 56.908l-7.91 5.178 10.38 20.49L56.2 70.97z"/><path opacity=".5" fill="#1D1D1B" d="M75.198 104.767c2.206-6.063 4.8-13.575 4.8-13.575l-1.315-7.133 3.782-1.89 2.917-16.318-6.413-3.05-10.37 41.965h6.598z"/><path fill="#5E5E5E" d="M74.27 104.767c2.236-6.112 4.907-13.87 4.907-13.87l-1.312-7.13 3.782-1.894 2.918-16.308-6.41-3.05-10.442 42.252h6.556z"/><path opacity=".5" fill="#1D1D1B" d="M36.325 104.767c-2.206-6.063-4.798-13.575-4.798-13.575l1.306-7.133-3.785-1.89L26.14 65.85l6.407-3.05 10.375 41.964h-6.597z"/><path fill="#5E5E5E" d="M37.254 104.767c-2.234-6.112-4.908-13.87-4.908-13.87l1.315-7.13-3.79-1.894-2.912-16.308 6.41-3.05 10.442 42.252h-6.556z"/><path opacity=".1" d="M111.557 99.312s-6.642-19.037-8.265-22.43c-1.62-3.396-3.49-4.803-5.895-5.898-1.363-.626-9.915-4.39-17.066-7.537l-1.36-.646-.007.043a32.812 32.812 0 0 1-.963-.42l.02-.113-.125.063.148-.287-7.913-5.178-1.906 1.823v-3.97c3.16-3.55 5.544-8.436 6.69-14.063.096.018.177.07.284.077a2.692 2.692 0 0 0 2.877-2.488l.56-7.514a2.677 2.677 0 0 0-1.56-2.638V18.25C77.072 8.165 67.647 0 56.034 0h-.113v104.767h53.427c4.277 0 2.207-5.455 2.207-5.455zM74.942 25.41v.31a33.04 33.04 0 0 0-.606-2.564c.474.92.606 1.79.606 2.253z"/><path opacity=".2" d="M105.51 89.255L80.33 63.447l-8.405-4.195-20.797 45.515 60.416-.056z"/><g><path fill="#FF7B22" d="M139.087 44.63c-1.196.096-2.41.147-3.646.147-10.185 0-19.106-3.227-24.105-8.068-2.393 2.314-5.688 4.254-9.583 5.66.02 1.46.123 9.144.245 9.107.136-.04 5.562 7.74 5.562 7.74l1.89 9.728 6.818 4.634-9.48-3.18-2.645-9.128-7.923-6.726-1.888-10.313a46.14 46.14 0 0 1-10.75.397c-2.105 4.506-3.292 10.056-3.292 16.775 0 23.02 18.88 43.315 31.047 43.315 13.027 0 31.045-20.295 31.045-43.315-.002-6.717-1.19-12.267-3.295-16.774z"/><path opacity=".1" fill="#010000" d="M139.087 44.63c-1.196.096-2.41.147-3.646.147-10.047 0-18.86-3.144-23.896-7.88v67.814c13.01-.21 30.836-20.405 30.836-43.304 0-6.718-1.188-12.268-3.293-16.775z"/></g></svg>