<svg xmlns="http://www.w3.org/2000/svg" width="42.351" height="42.349" viewBox="0 0 42.351 42.349"><g fill="#B2B2B2"><path d="M29.052 7.14H13.3a1.575 1.575 0 0 0 0 3.15H29.05a1.575 1.575 0 0 0 0-3.15zM29.052 32.445H13.3a1.576 1.576 0 0 0 0 3.15H29.05a1.575 1.575 0 0 0 0-3.15zM20.436 18.142h-2.163v2.612h2.163c.826 0 1.45-.493 1.45-1.306 0-.813-.624-1.306-1.45-1.306zM12.824 19.448c0-.813-.61-1.307-1.42-1.307H9.21v2.613h2.193c.812 0 1.42-.507 1.42-1.305zM33.08 21.175c0-1.814-1.16-3.18-2.945-3.18s-2.932 1.365-2.932 3.18c0 1.8 1.147 3.18 2.932 3.18s2.946-1.38 2.946-3.18z"/><path d="M35.324 0h-28.3A7.027 7.027 0 0 0 0 7.025v28.3a7.025 7.025 0 0 0 7.024 7.023h28.3a7.025 7.025 0 0 0 7.026-7.024v-28.3A7.026 7.026 0 0 0 35.324 0zm3.246 35.324a3.25 3.25 0 0 1-3.246 3.246h-28.3a3.25 3.25 0 0 1-3.244-3.246v-6.062H38.57v6.062zM7.15 26.01v-9.684h4.53c2.102 0 3.25 1.423 3.25 3.122 0 1.684-1.162 3.12-3.25 3.12H9.21v3.44H7.15zm16.9 0h-2.367l-1.9-3.442h-1.51v3.44h-2.06v-9.682h4.527c2.017 0 3.25 1.322 3.25 3.122 0 1.712-1.073 2.626-2.118 2.874l2.177 3.687zm1.033-4.835c0-2.917 2.134-5.008 5.05-5.008 2.933 0 5.066 2.09 5.066 5.008s-2.134 5.007-5.066 5.007c-2.916 0-5.05-2.09-5.05-5.007zM38.57 13.09H3.78V7.026A3.25 3.25 0 0 1 7.024 3.78h28.3a3.25 3.25 0 0 1 3.246 3.245v6.066z"/></g></svg>