<svg xmlns="http://www.w3.org/2000/svg" width="264.723" height="236.54" viewBox="0 0 264.723 236.54"><path fill="#C6C6C6" d="M6.295 98.656c0 1.73-1.41 3.146-3.148 3.146A3.146 3.146 0 0 1 0 98.656V36.578a3.15 3.15 0 0 1 3.146-3.157 3.155 3.155 0 0 1 3.148 3.158v62.078z"/><path fill="#C6C6C6" d="M15.302 47.147a3.606 3.606 0 0 1-3.6 3.607H3.6c-1.992 0-3.6-1.616-3.6-3.607V37.02a3.594 3.594 0 0 1 3.6-3.598h8.103a3.6 3.6 0 0 1 3.6 3.597v10.127z"/><path fill="#9D9D9C" d="M12.178 99.572a2.26 2.26 0 0 1-2.256 2.265H2.267A2.273 2.273 0 0 1 0 99.572v-4.828a2.273 2.273 0 0 1 2.267-2.267h7.655a2.26 2.26 0 0 1 2.256 2.267v4.828z"/><path fill="#CEAD84" d="M178.225 12.765h33.3v11.057h-33.3z"/><path opacity=".2" d="M12.178 97.324v-2.58a2.26 2.26 0 0 0-2.256-2.267H2.267A2.275 2.275 0 0 0 0 94.744v2.58h12.178z"/><path fill="#C6C6C6" d="M216.075 106.508c0 3.76-3.045 6.797-6.816 6.797h-13.875c-3.77 0-.146-3.037-.146-6.797V87.81c0-3.774-3.627-6.816.145-6.816h13.874a6.806 6.806 0 0 1 6.815 6.816v18.698z"/><path opacity=".2" d="M216.075 97.442V87.81a6.806 6.806 0 0 0-6.816-6.816h-13.875c-3.77 0-.146 3.042-.146 6.816v9.632h20.835z"/><path fill="#C6C6C6" d="M8.355 102.96a4.22 4.22 0 0 0 4.22 4.222h8.616c2.337 0 .085-1.884.085-4.222V91.354c0-2.334 2.252-4.222-.084-4.222h-8.615a4.224 4.224 0 0 0-4.22 4.222v11.606z"/><path opacity=".2" d="M8.355 97.324v-5.97a4.224 4.224 0 0 1 4.22-4.222h8.616c2.337 0 .085 1.888.085 4.222v5.97H8.355z"/><path fill="#445258" d="M205.583 117.476c0 3.752-3.053 6.805-6.81 6.805H22.106c-3.75 0-6.805-3.05-6.805-6.804V77.413a6.81 6.81 0 0 1 6.806-6.816h176.667a6.81 6.81 0 0 1 6.81 6.816v40.063z"/><path fill="#445258" d="M197.514 229.732a6.81 6.81 0 0 1-6.816 6.807H28.903c-3.744 0-6.797-3.045-6.797-6.808v-109.61c0-3.755 3.053-6.817 6.797-6.817h161.794a6.822 6.822 0 0 1 6.816 6.816v109.612z"/><path opacity=".3" d="M15.302 108.775v8.7c0 3.753 3.056 6.806 6.805 6.806h176.667c3.757 0 6.81-3.05 6.81-6.804v-8.7H15.302z"/><path opacity=".4" d="M205.583 79.297v-1.885c0-3.754-3.053-6.816-6.81-6.816H22.106c-3.75 0-6.805 3.062-6.805 6.816v1.885h190.283z"/><path fill="#E84343" d="M197.514 225.2a6.803 6.803 0 0 1-6.816 6.806H28.903a6.8 6.8 0 0 1-6.797-6.805V115.588c0-3.76 3.053-6.812 6.797-6.812h161.794a6.815 6.815 0 0 1 6.816 6.812V225.2z"/><path fill="#FF625A" d="M197.514 213.87c0 3.745-3.052 6.807-6.816 6.807H28.903c-3.744 0-6.797-3.062-6.797-6.807V104.24c0-3.752 3.053-6.798 6.797-6.798h161.794c3.765 0 6.816 3.046 6.816 6.8V213.87z"/><path opacity=".13" fill="#FFF" d="M190.697 97.442H28.903a6.806 6.806 0 0 0-6.797 6.8v41.394h175.407V104.24c0-3.752-3.05-6.798-6.816-6.798z"/><path fill="#445258" d="M35.72 152.54H183.9v58.207H35.72z"/><path fill="#FFF" d="M152.814 196.91a5.33 5.33 0 0 1-5.327 5.326h-74.07a5.327 5.327 0 0 1-5.34-5.327 5.33 5.33 0 0 1 5.34-5.347h74.07a5.332 5.332 0 0 1 5.327 5.346zM177.536 180.353c0 2.943-2.375 5.33-5.323 5.33s-5.334-2.387-5.334-5.33c0-2.938 2.385-5.33 5.333-5.33s5.323 2.392 5.323 5.33zM159.897 180.353a5.333 5.333 0 0 1-10.664 0 5.332 5.332 0 0 1 10.664 0zM142.245 180.353a5.33 5.33 0 0 1-5.327 5.33c-2.94 0-5.338-2.387-5.338-5.33 0-2.938 2.397-5.33 5.338-5.33a5.335 5.335 0 0 1 5.327 5.33zM124.6 180.353a5.33 5.33 0 0 1-5.327 5.33 5.33 5.33 0 0 1 0-10.66c2.94 0 5.327 2.392 5.327 5.33zM106.958 180.353c0 2.943-2.39 5.33-5.327 5.33a5.325 5.325 0 0 1-5.337-5.33 5.33 5.33 0 0 1 5.338-5.33 5.335 5.335 0 0 1 5.328 5.33zM89.3 180.353a5.323 5.323 0 0 1-5.334 5.33c-2.94 0-5.312-2.387-5.312-5.33 0-2.938 2.37-5.33 5.312-5.33 2.96 0 5.334 2.392 5.334 5.33zM71.663 180.353a5.335 5.335 0 0 1-10.67 0 5.34 5.34 0 0 1 5.33-5.33c2.95 0 5.34 2.392 5.34 5.33zM54.012 180.353a5.335 5.335 0 0 1-5.334 5.33 5.328 5.328 0 0 1-5.325-5.33 5.33 5.33 0 0 1 5.325-5.33c2.94 0 5.334 2.392 5.334 5.33zM168.72 166.378c0 2.95-2.39 5.327-5.337 5.327a5.322 5.322 0 0 1 0-10.646c2.948 0 5.338 2.385 5.338 5.318zM151.068 166.378a5.32 5.32 0 0 1-5.33 5.327 5.324 5.324 0 0 1 0-10.646 5.323 5.323 0 0 1 5.33 5.32zM133.422 166.378c0 2.95-2.39 5.327-5.326 5.327a5.323 5.323 0 0 1 0-10.646 5.328 5.328 0 0 1 5.326 5.318zM115.78 166.378a5.324 5.324 0 0 1-5.33 5.327 5.316 5.316 0 0 1-5.327-5.327 5.32 5.32 0 0 1 5.327-5.32 5.327 5.327 0 0 1 5.33 5.32zM98.135 166.378c0 2.95-2.405 5.327-5.338 5.327a5.318 5.318 0 0 1-5.327-5.327 5.32 5.32 0 0 1 5.327-5.32c2.932 0 5.338 2.387 5.338 5.32zM80.48 166.378a5.32 5.32 0 0 1-5.318 5.327 5.325 5.325 0 0 1-5.334-5.327c0-2.933 2.386-5.32 5.334-5.32a5.324 5.324 0 0 1 5.32 5.32zM62.848 166.378c0 2.95-2.39 5.327-5.347 5.327a5.326 5.326 0 0 1-5.33-5.327c0-2.933 2.39-5.32 5.33-5.32 2.957 0 5.348 2.387 5.348 5.32zM168.72 196.89a5.34 5.34 0 0 1-5.337 5.346c-2.94 0-5.326-2.388-5.326-5.346a5.333 5.333 0 0 1 10.664 0zM62.848 196.89a5.34 5.34 0 0 1-5.347 5.346 5.336 5.336 0 0 1-5.33-5.346 5.33 5.33 0 0 1 5.33-5.327c2.957 0 5.348 2.386 5.348 5.327z"/><path fill="#1D1D1B" d="M191.743 87.928a4.265 4.265 0 0 1-4.254 4.257H32.123c-2.343 0-4.24-1.918-4.24-4.257 0-2.343 1.897-4.254 4.24-4.254H187.49a4.26 4.26 0 0 1 4.253 4.254z"/><path fill="#445258" d="M76.786 96.586l-22.035 23.81c14.182 13.91 33.616 22.496 55.06 22.496 21.44 0 40.868-8.586 55.056-22.495l-22.042-23.81H76.786z"/><path opacity=".2" d="M109.81 137.41c-19.904 0-38.07-7.706-51.922-20.404l-3.137 3.39c14.182 13.91 33.616 22.496 55.06 22.496 21.44 0 40.868-8.586 55.056-22.495l-3.137-3.39c-13.845 12.698-32.018 20.404-51.92 20.404z"/><path fill="#FFE4C0" d="M49.475 0c7.82 0 14.165 6.644 14.165 14.843H35.298v77.583h147.89V0H49.476z"/><path fill="#FFE4C0" d="M49.475 0c-7.82 0-14.177 6.644-14.177 14.843H63.64C63.64 6.643 57.295 0 49.475 0z"/><path opacity=".2" d="M35.298 88.742h147.89v3.684H35.3z"/><path fill="#FFE4C0" d="M183.188 0h14.168v13.606h-14.168z"/><path fill="#CEAD84" d="M197.356.295c-7.82 0-14.168 6.34-14.168 14.167h28.337c0-7.827-6.333-14.167-14.17-14.167z"/><path fill="#FFE4C0" d="M89.596 92.185v6.366a4.985 4.985 0 0 0 4.992 4.983h30.456c2.74 0 4.97-2.23 4.97-4.982v-6.365H89.596z"/><path opacity=".2" d="M89.596 92.185v6.366a4.985 4.985 0 0 0 4.992 4.983h30.456c2.74 0 4.97-2.23 4.97-4.982v-6.365H89.596zM15.17 48.09c.07-.293.132-.613.132-.942v-10.13a3.6 3.6 0 0 0-3.6-3.596H3.6a3.59 3.59 0 0 0-3.516 2.845L15.17 48.09z"/><path opacity=".3" d="M91.524 43.47a2.27 2.27 0 0 1-2.263 2.28H48.44a2.265 2.265 0 0 1-2.268-2.28V12.57a2.256 2.256 0 0 1 2.268-2.258h40.824a2.258 2.258 0 0 1 2.263 2.258V43.47zM161.396 13.267a2.26 2.26 0 0 1-2.255 2.267h-57.598a2.276 2.276 0 0 1-2.267-2.267v-1a2.27 2.27 0 0 1 2.267-2.27h57.6a2.256 2.256 0 0 1 2.254 2.27v1zM173.415 28.525a2.26 2.26 0 0 1-2.273 2.257h-69.887c-1.25 0-2.267-1-2.267-2.257v-1.002a2.265 2.265 0 0 1 2.267-2.26h69.887a2.267 2.267 0 0 1 2.273 2.26v1.002zM173.695 43.542a2.262 2.262 0 0 1-2.267 2.263H101.54c-1.243 0-2.266-1-2.266-2.263v-.996a2.275 2.275 0 0 1 2.267-2.267h69.888a2.276 2.276 0 0 1 2.267 2.266v.996zM173.415 57.242a2.27 2.27 0 0 1-2.273 2.267H48.438a2.265 2.265 0 0 1-2.268-2.268v-.986a2.277 2.277 0 0 1 2.268-2.283h122.704a2.28 2.28 0 0 1 2.273 2.283v.986zM173.415 71.617a2.273 2.273 0 0 1-2.273 2.267H48.438a2.268 2.268 0 0 1-2.268-2.267v-.988a2.256 2.256 0 0 1 2.268-2.265h122.704c1.256 0 2.273 1 2.273 2.264v.987z"/><path opacity=".2" d="M181.795 97.34l-19.607 33.982-26.146-26.14-54.025 129.05 114.153 1.66 22.218-67.97z"/><g><path fill="#05BBE5" d="M257.512 102.583c-2.618.207-5.276.32-7.98.32-22.298 0-41.827-7.063-52.775-17.663-5.234 5.07-12.453 9.315-20.978 12.392.04 3.2.268 20.02.535 19.94.295-.09 12.174 16.946 12.174 16.946l4.145 21.295 14.92 10.144-20.75-6.958-5.79-19.986-17.352-14.724-4.132-22.58a100.73 100.73 0 0 1-15.54 1.192c-2.71 0-5.376-.113-7.986-.32-4.61 9.865-7.216 22.015-7.216 36.724 0 50.396 41.335 94.826 67.968 94.826 28.52 0 67.967-44.43 67.967-94.826 0-14.708-2.605-26.858-7.21-36.723z"/><path opacity=".1" fill="#010000" d="M257.512 102.583c-2.618.207-5.276.32-7.98.32-22 0-41.292-6.883-52.316-17.25V234.11c28.48-.46 67.508-44.674 67.508-94.804 0-14.708-2.606-26.858-7.212-36.723z"/></g></svg>