<svg xmlns="http://www.w3.org/2000/svg" width="161.615" height="169.47" viewBox="0 0 161.615 169.47"><path fill-rule="evenodd" clip-rule="evenodd" fill="#666" d="M62.995 156.41v11.73c-12.778-1.296-20.99-3.368-21.002-5.75-.012-2.383 8.2-4.546 21.002-5.98zM134.176 155.218v11.732c12.78-1.297 20.99-3.368 21.002-5.75.013-2.385-8.2-4.547-21.002-5.982z"/><path fill="#E6E6E6" d="M78.65 107.17c0 2.466 5.99 4.467 13.384 4.467 7.393 0 13.38-2 13.38-4.466 0-2.46-5.987-4.46-13.38-4.46-7.394 0-13.385 2-13.385 4.46z"/><path fill="#F48438" d="M62.102 144.843h-15.41V121.95c0-10.546 10.474-19.224 23.73-19.224h40.793c13.25 0 23.31 8.678 23.31 19.225v42.203c0 1.05.216 2.015.01 2.9-12.05 1.2-26.443 2.415-42.213 2.415-10.755 0-20.46-.83-30.22-1.418v-23.207z"/><path fill-rule="evenodd" clip-rule="evenodd" fill="#95E5FF" d="M30.198 34.263c16.682 0 30.2 13.517 30.2 30.196 0 4.16-.842 8.12-2.363 11.726l6.013 15.008-16.093-2.31A30.03 30.03 0 0 1 30.2 94.66c-16.677 0-30.2-13.52-30.2-30.2C0 47.78 13.522 34.264 30.198 34.264z"/><path fill="#F48438" d="M46.654 144.577c0 1.5-1.056 2.49-2.4 2.49-1.34 0-2.397-.92-2.397-2.385l.1-16.19H28.3l-.177 16.164c0 8.78 7.217 16.068 16.095 16.068 8.872 0 16.09-7.142 16.09-16.147H46.655z"/><path fill="#FFF" d="M60.31 131.754c0-.398.288-.724.89-.724.596 0 .883.325.883.724v23.066c0 .398-.287.724-.884.724-.602 0-.89-.326-.89-.724v-23.066z"/><path fill="#FFEFAD" d="M89.19 20.127a2.66 2.66 0 0 1 2.66-2.664h.327a2.66 2.66 0 0 1 2.66 2.664v17.277a2.66 2.66 0 0 1-2.66 2.66h-.327a2.66 2.66 0 0 1-2.658-2.66V20.127z"/><path fill="#FFBA9E" d="M88.677 2.66A2.66 2.66 0 0 1 91.34 0h.32a2.66 2.66 0 0 1 2.664 2.66v7.518a2.66 2.66 0 0 1-2.664 2.662h-.32a2.66 2.66 0 0 1-2.663-2.662V2.66z"/><path fill="#FFEFAD" d="M121.55 64.297c0-1.468 1.19-2.66 2.662-2.66h17.275a2.663 2.663 0 0 1 2.662 2.66v.33a2.66 2.66 0 0 1-2.663 2.656h-17.275a2.658 2.658 0 0 1-2.663-2.657v-.33z"/><path fill="#FFBA9E" d="M148.77 64.297a2.664 2.664 0 0 1 2.665-2.66h7.513a2.664 2.664 0 0 1 2.666 2.66v.33a2.66 2.66 0 0 1-2.666 2.656h-7.513a2.66 2.66 0 0 1-2.665-2.657v-.33z"/><path fill="#FFEFAD" d="M117.484 45.18a2.656 2.656 0 0 1-3.768 0l-.128-.125a2.665 2.665 0 0 1 0-3.765l12.167-12.166a2.657 2.657 0 0 1 3.763 0l.13.13a2.67 2.67 0 0 1 0 3.764L117.485 45.18zM124.583 96.142a2.666 2.666 0 0 1-.018-3.77l.128-.13a2.664 2.664 0 0 1 3.762-.016l12.227 12.1a2.663 2.663 0 0 1 .017 3.77l-.126.13a2.67 2.67 0 0 1-3.768.02l-12.223-12.104z"/><path fill="#90ECFF" d="M67.363 28.762H70.7V25.32a1.8 1.8 0 0 1 1.797-1.798c.994 0 1.794.806 1.794 1.798v3.442h3.342a1.8 1.8 0 0 1 0 3.6h-3.34v3.23a1.796 1.796 0 0 1-3.593 0V32.36h-3.337a1.798 1.798 0 0 1 0-3.598zM101.772 28.762h3.337V25.32a1.8 1.8 0 0 1 3.6 0v3.442h3.334a1.8 1.8 0 0 1 0 3.6h-3.336v3.23a1.8 1.8 0 0 1-3.6 0V32.36h-3.336a1.796 1.796 0 0 1-1.794-1.8c0-.992.803-1.798 1.794-1.798zM126.428 48.282h3.34v-3.446c0-.997.808-1.797 1.796-1.797.994 0 1.8.8 1.8 1.796v3.446h3.338c.99 0 1.795.802 1.795 1.798a1.8 1.8 0 0 1-1.795 1.8h-3.338v3.228a1.8 1.8 0 0 1-1.8 1.8 1.803 1.803 0 0 1-1.797-1.8V51.88h-3.34c-.992 0-1.797-.81-1.797-1.8 0-.996.805-1.798 1.798-1.798zM125.402 79.103h3.336v-3.45a1.8 1.8 0 0 1 3.6 0v3.45h3.33a1.798 1.798 0 0 1 0 3.595h-3.33v3.232c0 .99-.807 1.794-1.8 1.794-.994 0-1.8-.805-1.8-1.794v-3.232h-3.336a1.798 1.798 0 0 1 0-3.595z"/><path opacity=".34" fill="#010101" d="M118.467 168.528V131.62c0-.416.336-.646.752-.646h.04c.41 0 .75.23.75.646v36.743l-1.543.165z"/><g opacity=".4"><path fill="#FFF" d="M76.11 136.095l.458-.237 9.225-4.803a1.324 1.324 0 0 0-1.382-1.028l-8.482.66c-.71.06-1.23.684-1.157 1.39l.12 1.194c.065.71-.427 1.334-1.096 1.384l-1.223.092 1.855 18.768 1.64-16.91.045-.51z"/><g fill="#FFF"><path d="M85.514 141.248h-2.49v3.083h2.49c.854 0 1.506-.696 1.506-1.54 0-.846-.65-1.542-1.506-1.542z"/><path d="M96.207 126.94l-19.187 9.986-2.062 21.283 19.114-1.5 10.744-.85 6.87-.537 2.06-21.282-17.54-7.1zm-8.964 22.53l-2.19-3.598h-2.027v3.598h-2.052v-9.763h4.852c2.096 0 3.373 1.28 3.373 3.146 0 1.777-.897 2.632-1.976 2.884l2.47 3.733h-2.45zm10.678-8.222H93.3v2.056h4.107v2.053H93.3v2.568h4.62v1.544h-6.676v-9.764h6.677v1.542zm10.788 6.617c-1.026 1.147-2.337 1.893-4.16 1.893-2.935 0-5.287-2.043-5.287-5.2 0-3.175 2.432-5.192 5.37-5.192 2.096 0 3.41 1.054 4.166 2.24l-1.77.966a2.838 2.838 0 0 0-2.376-1.312c-1.815 0-3.138 1.397-3.138 3.296 0 1.896 1.254 3.293 3.073 3.293.887 0 1.554-.388 2.068-.77v-1.21h-2.568v-1.54h4.622v3.535z"/></g></g><path fill="#EDEDED" d="M104.413 104.47c0 2.29-5.566 4.144-12.44 4.144-6.865 0-12.43-1.855-12.43-4.144 0-2.29 5.565-4.146 12.43-4.146 6.874 0 12.44 1.857 12.44 4.146"/><path fill="#27C15A" d="M100.11 94.773c-3.72-2.102-5.025-6.826-2.917-10.546a7.734 7.734 0 0 1 10.543-2.918 7.736 7.736 0 0 1 2.916 10.543c-2.1 3.723-6.82 5.026-10.542 2.92z"/><path opacity=".3" fill="#5B5B5B" d="M101.74 95.463a7.733 7.733 0 0 1 6.55-13.8 5.425 5.425 0 0 0-.554-.354 7.734 7.734 0 0 0-10.543 2.917c-2.107 3.72-.802 8.444 2.917 10.546a7.77 7.77 0 0 0 1.63.69z"/><path fill="#5B5B5B" d="M102.504 90.546a2.877 2.877 0 0 1-1.09-3.922 2.885 2.885 0 0 1 3.927-1.09 2.872 2.872 0 0 1 1.087 3.925 2.873 2.873 0 0 1-3.923 1.086z"/><path fill="#ECECEC" d="M80.756 85.282a1.49 1.49 0 0 0 1.627 1.352l.177-.017a1.493 1.493 0 0 0 1.352-1.628l-.605-6.495a1.507 1.507 0 0 0-1.627-1.355l-.18.02a1.496 1.496 0 0 0-1.35 1.63l.606 6.492z"/><path fill="#FFD59B" d="M79.338 85.766c.138.822.976 1.35 1.875 1.192l.188-.036c.9-.16 1.518-.956 1.382-1.765l-1.07-6.44c-.13-.81-.967-1.346-1.87-1.185l-.19.033c-.898.16-1.514.954-1.376 1.767l1.062 6.434zM111.172 85.395c-.06.83.633 1.542 1.542 1.59l.195.014c.905.05 1.69-.575 1.75-1.4l.458-6.51c.06-.824-.632-1.534-1.54-1.587l-.194-.012c-.91-.056-1.693.575-1.75 1.402l-.462 6.503zM72.674 85.395c.056.83-.634 1.542-1.542 1.59L70.94 87c-.91.05-1.7-.575-1.756-1.4l-.46-6.51c-.06-.824.633-1.534 1.543-1.587l.192-.012c.91-.056 1.694.575 1.75 1.402l.464 6.503z"/><path fill="#F7CC9A" d="M70.822 79.303c0 14.342 12.615 25.964 21.23 25.964 8.668 0 21.23-11.622 21.23-25.964 0-14.338-9.504-25.956-21.23-25.956-11.725 0-21.23 11.618-21.23 25.956z"/><path fill="#FFF" d="M98.684 78.487c0 .977 1.743 1.772 3.896 1.772s3.904-.796 3.904-1.773c0-.976-1.75-1.767-3.904-1.767s-3.896.792-3.896 1.767zM78.493 78.487c0 .977 1.74 1.772 3.89 1.772 2.16 0 3.907-.796 3.907-1.773 0-.976-1.748-1.767-3.906-1.767-2.153 0-3.89.792-3.89 1.767z"/><path fill="#FF8080" d="M76.657 89.906c1.317 2.145 4.346 2.892 6.76 1.662 2.42-1.226 3.306-3.957 1.982-6.098-1.322-2.145-4.348-2.89-6.768-1.664-2.412 1.224-3.297 3.958-1.975 6.1zM98.44 89.9c1.316 2.14 4.333 2.877 6.742 1.658 2.402-1.223 3.286-3.947 1.97-6.08-1.315-2.144-4.332-2.88-6.74-1.658-2.4 1.222-3.29 3.944-1.972 6.08z"/><path fill="#77503B" d="M92.68 51.94c28.72-2.024 20.093 35.932 20.093 35.932.113-1.137-1.104-17.715-1.79-19.182-.345-1.23-2.626-5.266-4.032-3.73-2.88 3.096-19.018 3.272-19.105 3.263-4.676-.398-7.573.967-9.51 1.933.11-.7.495-1.798 3.007-3.897-3.847 1.13-5.142 3.465-6.167 5.293.037-.733 1.373-4.696 1.373-4.696S71.522 76.955 71.37 88.3c-1.22-4.923-8.932-39.91 21.31-36.36z"/><path fill="#513123" d="M81 78.698c0 .59.527 1.072 1.184 1.072.65 0 1.182-.48 1.182-1.072 0-.59-.53-1.07-1.182-1.07-.657 0-1.183.48-1.183 1.07z"/><path opacity=".5" fill="#FFF" d="M81.61 78.368c0 .136.117.254.275.254.154 0 .28-.118.28-.254 0-.144-.126-.258-.28-.258-.158 0-.276.115-.276.258z"/><path fill="#513123" d="M101.083 78.698c0 .59.533 1.072 1.187 1.072.648 0 1.183-.48 1.183-1.072 0-.59-.535-1.07-1.183-1.07-.654 0-1.187.48-1.187 1.07z"/><path opacity=".5" fill="#FFF" d="M101.694 78.368c0 .136.12.254.277.254s.284-.118.284-.254c0-.144-.126-.258-.283-.258s-.276.115-.276.258z"/><path fill="#70462D" d="M76.738 73.993c0 .476.432.89.964.887l6.233-.038c.527-.005.953-.425.95-.905-.003-.483-.435-.89-.96-.887l-6.234.046c-.533.004-.952.42-.952.897zM98.765 73.993c0 .476.435.89.97.887l6.224-.038c.53-.005.954-.425.954-.905-.003-.483-.436-.89-.963-.887l-6.235.046c-.53.004-.953.42-.95.897z"/><path opacity=".15" fill="#010101" d="M70.836 98.862c0 9.233 9.198 17.22 21.485 17.22h.19c12.287 0 21.334-8.836 21.334-18.06V87.99c.514-6.353-7.6 6-19.182 6h-1.676c-12.997 0-22.027-12.48-22.235-6.15l.086 11.02z"/><path fill="#77503B" d="M70.836 97.046c0 9.227 9.198 16.98 21.485 16.98h.19c12.287 0 21.334-8.366 21.334-17.592V86.407c.514-6.35-7.6 5.02-19.182 5.02h-1.676c-12.997 0-22.027-12.11-22.235-5.78l.086 11.4z"/><path fill="#EDEDED" d="M99.487 92.44c0 2.73-3.124 4.94-6.972 4.94-3.843 0-6.968-2.21-6.968-4.94 0-2.732 2.753.144 6.603.144 3.85 0 7.337-2.876 7.337-.145z"/><g fill="#6D4735"><path d="M109.973 83.08s-5.983 8.75-15.718 4.577c-4.305 0-3.77 4.482-.645 5 5.277.88 16.442.16 16.362-9.162"/><path d="M74.335 83.08s5.98 8.75 15.713 4.577c4.3 0 3.766 4.482.65 5-5.28.88-16.444.16-16.363-9.162"/></g><path opacity=".15" fill="#010101" d="M94.838 87.48c0 1.467-1.102 2.655-2.568 2.655-1.46 0-2.565-1.188-2.565-2.654v-9.67c0-1.46 1.106-2.647 2.565-2.647 1.467 0 2.568 1.187 2.568 2.648v9.67z"/><path fill="#FF8080" d="M94.838 86.438c0 1.466-1.102 2.648-2.568 2.648-1.46 0-2.565-1.183-2.565-2.648v-9.67c0-1.463 1.106-2.65 2.565-2.65 1.467 0 2.568 1.187 2.568 2.65v9.67z"/><path opacity=".1" fill="#010101" d="M98.083 70.63a.26.26 0 0 1-.262.256H86.128a.262.262 0 0 1-.264-.257.26.26 0 0 1 .264-.264H97.82a.26.26 0 0 1 .263.263zM98.676 69.082c0 .142-.128.258-.292.258H85.56c-.156 0-.287-.116-.287-.258 0-.142.13-.254.288-.254h12.825c.163 0 .29.112.29.254z"/><g><path fill="#FFD79D" d="M29.068 120.357h11.818v8.21H29.068z"/><path opacity=".2" fill="#010101" d="M29.068 127.55h11.818v1.02H29.068z"/><path fill="#FFD79D" d="M26.423 118.515c-.022 4.72 4.236 8.568 9.515 8.592 5.273.025 9.565-3.78 9.588-8.505l.03-6.23c.02-4.724-4.26-3.76-9.533-3.785-5.28-.024-9.55-1.024-9.57 3.695l-.03 6.233z"/><path fill="#FFD79D" d="M41.012 98.417a2.27 2.27 0 0 1 2.28-2.26 2.277 2.277 0 0 1 2.263 2.28l.003 12.572a2.273 2.273 0 0 1-2.28 2.264 2.27 2.27 0 0 1-2.257-2.284l-.008-12.573zM48 111.807c1.384-1.253 3.418-1.253 4.542-.005 1.127 1.248.917 3.27-.466 4.52l-8.264 7.463c-1.387 1.247-3.422 1.25-4.548.003-1.13-1.248-.915-3.272.47-4.525L48 111.807z"/><path fill="#E9B980" d="M36.037 105.95a2.272 2.272 0 0 1 2.28-2.26 2.27 2.27 0 0 1 2.26 2.28l.04 7.045a2.267 2.267 0 0 1-2.28 2.255 2.27 2.27 0 0 1-2.263-2.28l-.037-7.04zM31.1 106.558a2.27 2.27 0 0 1 2.283-2.26 2.268 2.268 0 0 1 2.26 2.28l.03 5.827a2.272 2.272 0 0 1-2.284 2.262 2.267 2.267 0 0 1-2.26-2.283l-.03-5.826zM26.538 107.623a2.147 2.147 0 0 1 2.148-2.133 2.143 2.143 0 0 1 2.124 2.15l.012 2.55a2.14 2.14 0 0 1-2.15 2.127 2.133 2.133 0 0 1-2.127-2.146l-.007-2.547z"/><path opacity=".2" fill="#010101" d="M44.015 122.315c-2.133 2.168-5.21 2.6-6.874.963-1.656-1.633-1.274-4.72.86-6.883 2.132-2.168 5.21-2.6 6.87-.963 1.662 1.633 1.278 4.716-.855 6.883z"/><path fill="#FFD79D" d="M44.715 122.604c-2.136 2.166-5.21 2.596-6.87.962-1.664-1.632-1.28-4.717.854-6.88 2.133-2.17 5.208-2.606 6.873-.97 1.657 1.636 1.277 4.72-.858 6.888zM38.104 114.66c-.956-.11-1.624-.925-1.5-1.81.123-.884 1.072-1.068 2.02-.955.952.115 1.554.487 1.425 1.37-.124.892-.993 1.514-1.946 1.396zM33.162 113.71c-.953-.115-1.623-.926-1.5-1.81.126-.887 1.07-1.074 2.02-.96.95.116 1.553.488 1.425 1.374-.12.887-.997 1.51-1.945 1.397zM28.408 111.706c-.924-.108-1.572-.896-1.455-1.753.118-.855 1.04-1.033 1.955-.924.925.11 1.503.47 1.382 1.326-.117.858-.963 1.462-1.882 1.35z"/></g><g><path fill="#00AB54" d="M45.803 50.27c-.688.055-1.386.084-2.095.084-5.85 0-10.977-1.846-13.85-4.62-1.373 1.327-3.267 2.438-5.504 3.242.01.836.07 5.236.14 5.215.08-.022 3.195 4.432 3.195 4.432l1.087 5.57 3.916 2.65-5.446-1.817-1.52-5.227-4.553-3.85-1.084-5.904a26.546 26.546 0 0 1-6.175.228c-1.21 2.58-1.892 5.757-1.892 9.603 0 13.18 10.846 24.8 17.836 24.8 7.483 0 17.835-11.62 17.835-24.8 0-3.846-.683-7.024-1.892-9.604z"/><path fill="#FFCE12" d="M46.767 78.422l-6.707-7.6c2.474-4.336 1.872-9.943-1.835-13.647-4.45-4.448-11.68-4.46-16.144-.023a11.345 11.345 0 0 0-.02 16.088c3.35 3.35 8.273 4.183 12.408 2.497l6.702 7.59a3.736 3.736 0 0 0 5.26.338 3.705 3.705 0 0 0 .337-5.243zM24.89 70.43a7.376 7.376 0 0 1 .012-10.457 7.436 7.436 0 0 1 10.493.014 7.376 7.376 0 0 1-.013 10.457c-2.903 2.884-7.6 2.878-10.493-.014z"/><path opacity=".2" fill="#010000" d="M43.39 74.595c2.566-4.184 4.306-9.32 4.306-14.72 0-3.847-.684-7.024-1.893-9.604-.688.055-1.386.084-2.095.084-5.85 0-10.977-1.846-13.85-4.62v38.94c2.756 0 5.897-1.58 8.77-4.225l2.542 2.877a3.736 3.736 0 0 0 5.26.338 3.705 3.705 0 0 0 .336-5.243l-3.376-3.827z"/></g></svg>