<svg xmlns="http://www.w3.org/2000/svg" width="41.445" height="41.445" viewBox="0 0 41.445 41.445"><g fill="#B2B2B2"><path d="M34.568 3.7a3.177 3.177 0 0 1 3.175 3.176V34.57a3.178 3.178 0 0 1-3.175 3.176H6.875A3.178 3.178 0 0 1 3.7 34.57V6.877A3.177 3.177 0 0 1 6.875 3.7h27.693m0-3.7H6.875A6.876 6.876 0 0 0 0 6.876V34.57a6.875 6.875 0 0 0 6.875 6.875h27.693a6.876 6.876 0 0 0 6.877-6.874V6.877A6.878 6.878 0 0 0 34.568 0z"/><path d="M20.72 8.434l3.762 7.62 8.41 1.22-6.086 5.933 1.437 8.376-7.522-3.955-7.52 3.955 1.436-8.376-6.086-5.932 8.41-1.222z"/></g></svg>