<svg xmlns="http://www.w3.org/2000/svg" width="241.123" height="253.047" viewBox="0 0 241.123 253.047"><path fill="#F3F3F3" d="M0 79.098l.737 168.01a5.997 5.997 0 0 0 5.994 5.94l228.45-1.037c3.283.024 5.953-2.678 5.942-5.993l-.748-166.92H0z"/><path fill="#FF5B42" d="M240.412 24.708c-.017-3.283-2.678-5.96-5.98-5.958l-228.433.386c-3.293.014-5.97 2.688-5.957 5.98l.093 56.808 240.37-.41-.094-56.806zM50.547 72.455c-9.886.04-17.92-7.982-17.928-17.87-.027-9.866 7.986-17.9 17.85-17.927 9.91-.017 17.933 7.985 17.94 17.882.026 9.877-7.986 17.9-17.863 17.915zm139.512-.248c-9.878.027-17.9-7.962-17.926-17.84-.02-9.9 7.985-17.897 17.858-17.927 9.89-.027 17.922 7.976 17.93 17.85.026 9.9-7.965 17.92-17.863 17.917z"/><path opacity=".1" fill="#FFF" d="M235.768 28.062c0 .825-.92 1.494-2.055 1.494H5.626c-1.134 0-2.054-.67-2.054-1.494v-3.917c0-.823.92-1.493 2.054-1.493h228.087c1.135 0 2.055.67 2.055 1.493v3.917z"/><path fill="#303030" d="M199.05 56.99c0 4.503-3.662 8.133-8.153 8.155l-1.713.016c-4.467 0-8.133-3.618-8.15-8.154l-.087-48.835A8.134 8.134 0 0 1 189.092.02l1.71-.018c4.49.012 8.134 3.652 8.143 8.144l.104 48.847zM59.518 57.23c.01 4.503-3.632 8.133-8.143 8.165l-1.69-.005c-4.503.032-8.154-3.62-8.165-8.11L41.435 8.4c.003-4.49 3.652-8.142 8.146-8.153l1.69.005c4.512-.03 8.165 3.62 8.175 8.132l.073 48.85z"/><path opacity=".15" d="M241.123 246.017l-.3-67.01-66.83-63.188-16.296 16.632s-18.49 31.99-18.49 31.16c0-.832-51.387-48.558-51.387-48.558l-13.508 17.398 20.09 86.226 39.53 33.82 101.248-.487c3.284.024 5.954-2.678 5.943-5.993z"/><path opacity=".1" fill="#FFF" d="M48.418 58.043a1.39 1.39 0 0 1-1.394 1.387H46.8a1.39 1.39 0 0 1-1.386-1.394l.144-51.79c0-.77.626-1.39 1.392-1.388h.224a1.39 1.39 0 0 1 1.385 1.394l-.142 51.79zM188.752 58.43a1.39 1.39 0 0 1-1.395 1.385h-.222a1.39 1.39 0 0 1-1.386-1.395l.14-51.79c.002-.77.627-1.39 1.395-1.388h.223a1.39 1.39 0 0 1 1.386 1.397l-.142 51.79z"/><path fill="#00AB54" d="M173.992 115.82a90.09 90.09 0 0 1-7.02.28c-19.606 0-36.788-6.19-46.412-15.483-4.604 4.445-10.95 8.166-18.45 10.86.037 2.807.236 17.552.472 17.48.262-.078 10.706 14.847 10.706 14.847l3.646 18.665 13.123 8.885-18.252-6.093-5.093-17.515-15.255-12.904-3.638-19.788a88.85 88.85 0 0 1-13.67 1.044c-2.377 0-4.723-.1-7.023-.28-4.052 8.64-6.342 19.29-6.342 32.18 0 44.17 36.347 83.106 59.774 83.106 25.08 0 59.77-38.937 59.77-83.105.003-12.89-2.286-23.54-6.338-32.18z"/><path fill="#FFCE12" d="M177.222 210.16l-22.476-25.47c8.29-14.53 6.273-33.32-6.15-45.734-14.918-14.904-39.144-14.947-54.102-.078-14.966 14.866-15 39.01-.08 53.916 11.232 11.223 27.733 14.016 41.594 8.37l22.458 25.44c4.554 5.164 12.45 5.666 17.63 1.128 5.18-4.54 5.685-12.41 1.126-17.572zM103.9 183.374c-9.7-9.693-9.677-25.382.046-35.044 9.723-9.667 25.47-9.642 35.166.047 9.698 9.687 9.68 25.383-.047 35.044-9.726 9.667-25.473 9.647-35.165-.046z"/><path opacity=".2" fill="#010000" d="M165.905 197.334c8.6-14.02 14.428-31.238 14.428-49.333 0-12.89-2.29-23.54-6.34-32.18a90.09 90.09 0 0 1-7.02.28c-19.605 0-36.79-6.19-46.413-15.483v130.49c9.233 0 19.76-5.287 29.39-14.153l8.516 9.65c4.554 5.164 12.45 5.666 17.63 1.128 5.18-4.54 5.686-12.41 1.126-17.572l-11.317-12.826z"/><g><path fill="#FCD22E" d="M62.217 91.946c-3.956 10.43-11.932 18.864-22.03 23.44a42.196 42.196 0 0 1 22.03 23.437c3.965-10.428 11.934-18.877 22.045-23.438a42.25 42.25 0 0 1-22.045-23.44z"/><path fill="#FD7600" d="M62.217 103.577c-1.988 5.25-6.003 9.493-11.11 11.81a21.164 21.164 0 0 1 11.11 11.804 21.215 21.215 0 0 1 11.102-11.804 21.33 21.33 0 0 1-11.103-11.81z"/><path fill="#FCD22E" d="M79.743 75.317a20.69 20.69 0 0 1-10.766 11.465 20.61 20.61 0 0 1 10.766 11.456 20.605 20.605 0 0 1 10.77-11.456 20.682 20.682 0 0 1-10.77-11.465z"/><path fill="#FD7600" d="M79.743 80.998a10.42 10.42 0 0 1-5.43 5.784 10.316 10.316 0 0 1 5.43 5.763 10.325 10.325 0 0 1 5.423-5.763 10.423 10.423 0 0 1-5.423-5.784z"/><g><path fill="#FCD22E" d="M42.295 68.662a29.834 29.834 0 0 1-15.542 16.543 29.792 29.792 0 0 1 15.542 16.534 29.764 29.764 0 0 1 15.55-16.535 29.806 29.806 0 0 1-15.55-16.543z"/><path fill="#FD7600" d="M42.295 76.872c-1.404 3.703-4.243 6.697-7.84 8.333a14.927 14.927 0 0 1 7.84 8.32 14.904 14.904 0 0 1 7.826-8.32 15.02 15.02 0 0 1-7.825-8.333z"/></g></g></svg>