<svg xmlns="http://www.w3.org/2000/svg" width="279.172" height="248.607" viewBox="0 0 279.172 248.607"><path fill="#E0E0E0" d="M279.137 6.603c-.34-3.7-3.446-6.603-7.232-6.603H7.216C3.456 0 .37 2.902.033 6.603H0V242.005h.033c.34 3.7 3.448 6.603 7.232 6.603H271.956c3.76 0 6.845-2.902 7.182-6.603h.034V6.604h-.035z"/><path fill="#D3D3D3" d="M174.613 28.48H0v10.593h279.173V28.48z"/><path fill="#444" d="M271.905 0H7.266C3.254 0 0 3.26 0 7.276V29.1h279.174V7.275C279.17 3.26 275.917 0 271.903 0z"/><path fill="#2CB740" d="M21.65 14.938c0 3.18-2.58 5.753-5.755 5.753a5.756 5.756 0 0 1-5.76-5.752 5.76 5.76 0 0 1 11.516 0z"/><path fill="#F16442" d="M39.192 14.938c0 3.18-2.583 5.753-5.765 5.753a5.753 5.753 0 0 1 0-11.506c3.182 0 5.765 2.58 5.765 5.754z"/><path fill="#FFF" d="M261.465 8.83H48.852c-3.318 0-6.042 2.577-6.042 5.764 0 3.175 2.724 5.754 6.042 5.754H261.464c3.16 0 5.753-2.58 5.753-5.754 0-3.187-2.593-5.765-5.752-5.765z"/><path fill="#FCD22E" d="M63.417 56.11c-.063 0-.12.036-.12.074 0 .046.057.085.12.085.07 0 .12-.04.12-.086 0-.038-.05-.075-.12-.075z"/><path fill="#444" d="M199.312 72.074c0 .89-.724 1.61-1.617 1.61H22.465a1.614 1.614 0 0 1 0-3.227h175.23c.894 0 1.618.724 1.618 1.617zM199.312 65.618c0 .895-.724 1.613-1.617 1.613H22.465a1.61 1.61 0 0 1-1.614-1.612c0-.886.723-1.614 1.614-1.614h175.23a1.62 1.62 0 0 1 1.618 1.614zM199.312 59.167c0 .886-.724 1.613-1.617 1.613H22.465a1.616 1.616 0 0 1-1.614-1.613c0-.893.723-1.613 1.614-1.613h175.23c.894 0 1.618.72 1.618 1.613zM74.353 50.938a2.555 2.555 0 0 1-2.556 2.55H23.4a2.55 2.55 0 0 1 0-5.102h48.396a2.552 2.552 0 0 1 2.557 2.552zM16.632 50.938a2.737 2.737 0 1 1-5.474-.004 2.737 2.737 0 0 1 5.474.004z"/><path fill="#BFBFBF" d="M199.312 130.552c0 .89-.724 1.612-1.617 1.612H22.465a1.615 1.615 0 0 1 0-3.23h175.23c.894 0 1.618.725 1.618 1.618zM199.312 124.096c0 .895-.724 1.62-1.617 1.62H22.465a1.616 1.616 0 0 1-1.614-1.62 1.61 1.61 0 0 1 1.614-1.607h175.23c.894-.002 1.618.718 1.618 1.606zM199.312 117.648c0 .883-.724 1.61-1.617 1.61H22.465a1.613 1.613 0 0 1 0-3.226h175.23c.894 0 1.618.722 1.618 1.616z"/><path fill="#A0A0A0" d="M74.353 109.42c0 1.4-1.144 2.547-2.556 2.547H23.4a2.554 2.554 0 0 1-2.55-2.548 2.553 2.553 0 0 1 2.55-2.555h48.396a2.555 2.555 0 0 1 2.557 2.554zM16.632 109.412a2.733 2.733 0 0 1-2.738 2.738 2.734 2.734 0 0 1 0-5.47 2.735 2.735 0 0 1 2.738 2.732z"/><path fill="#BFBFBF" d="M199.312 159.812a1.61 1.61 0 0 1-1.617 1.61H22.465a1.612 1.612 0 0 1 0-3.223h175.23c.894-.002 1.618.72 1.618 1.612zM199.312 153.357c0 .894-.724 1.614-1.617 1.614H22.465a1.615 1.615 0 0 1 0-3.227h175.23c.894 0 1.618.726 1.618 1.614zM199.312 146.905c0 .886-.724 1.612-1.617 1.612H22.465a1.614 1.614 0 0 1 0-3.227h175.23c.894 0 1.618.723 1.618 1.615z"/><path fill="#A0A0A0" d="M74.353 138.678a2.554 2.554 0 0 1-2.556 2.55H23.4a2.55 2.55 0 0 1 0-5.1h48.396a2.552 2.552 0 0 1 2.557 2.55zM16.632 138.678a2.735 2.735 0 1 1-5.47-.004 2.735 2.735 0 0 1 5.47.004z"/><g><path fill="#BFBFBF" d="M199.312 197.955a1.61 1.61 0 0 1-1.617 1.607H22.465a1.608 1.608 0 0 1-1.614-1.607c0-.892.723-1.62 1.614-1.62h175.23a1.62 1.62 0 0 1 1.618 1.62zM199.312 191.5c0 .89-.724 1.612-1.617 1.612H22.465c-.893 0-1.614-.72-1.614-1.613 0-.887.723-1.61 1.614-1.61h175.23c.894 0 1.618.722 1.618 1.61zM199.312 185.05c0 .885-.724 1.612-1.617 1.612H22.465a1.614 1.614 0 0 1 0-3.23h175.23c.894 0 1.618.723 1.618 1.616z"/><path fill="#A0A0A0" d="M74.353 176.82a2.557 2.557 0 0 1-2.556 2.55H23.4a2.55 2.55 0 0 1 0-5.102h48.396a2.552 2.552 0 0 1 2.557 2.55zM16.632 176.82a2.738 2.738 0 0 1-2.738 2.735 2.738 2.738 0 0 1-2.734-2.736 2.733 2.733 0 0 1 2.734-2.735 2.732 2.732 0 0 1 2.738 2.734z"/></g><path fill="#BFBFBF" d="M22.574 78.584h36.948v22.934H22.574z"/><g><path fill="#BFBFBF" d="M199.312 233.533c0 .886-.724 1.61-1.617 1.61H22.465a1.612 1.612 0 0 1 0-3.223h175.23c.894 0 1.618.72 1.618 1.613zM199.312 227.076c0 .893-.724 1.612-1.617 1.612H22.465a1.61 1.61 0 0 1-1.614-1.612c0-.887.723-1.613 1.614-1.613h175.23c.894 0 1.618.726 1.618 1.613zM199.312 220.623c0 .89-.724 1.613-1.617 1.613H22.465a1.614 1.614 0 0 1 0-3.227h175.23c.894 0 1.618.723 1.618 1.613z"/><path fill="#A0A0A0" d="M74.353 212.395a2.556 2.556 0 0 1-2.556 2.55H23.4a2.553 2.553 0 0 1 0-5.104h48.396a2.555 2.555 0 0 1 2.557 2.555zM16.632 212.395a2.735 2.735 0 1 1-5.474-.002 2.735 2.735 0 0 1 5.474 0z"/></g><path fill="#BFBFBF" d="M69.158 78.584h36.947v22.934H69.158zM114.973 78.584h36.946v22.934h-36.947zM161.555 78.584h36.948v22.934h-36.948zM207.95 50.744h59.567V152.29H207.95zM207.95 167.41h59.567v53.73H207.95z"/><path opacity=".1" d="M204.653 89.745s-66.485-16.247-86.295-17.567l-19.81 53.268-9.245 24.213C85.34 153.326 74.57 89.744 74.57 89.744L39.233 248.217h199.343L204.653 89.745z"/><g><path fill="#0068BA" d="M201.3 77.513a104.05 104.05 0 0 1-8.11.323c-22.645 0-42.487-7.172-53.603-17.942-5.32 5.15-12.647 9.465-21.31 12.586.04 3.252.27 20.34.54 20.26.304-.09 12.37 17.21 12.37 17.21l4.21 21.63 15.156 10.302-21.08-7.065-5.883-20.3-17.62-14.956-4.2-22.932a102.338 102.338 0 0 1-15.79 1.208c-2.746 0-5.453-.115-8.11-.323-4.68 10.018-7.324 22.36-7.324 37.3 0 51.195 41.98 96.324 69.04 96.324 28.97 0 69.038-45.13 69.038-96.323 0-14.94-2.646-27.283-7.324-37.3z"/><path fill="#FFCE12" d="M205.03 186.856l-25.962-29.52c9.575-16.842 7.246-38.62-7.103-53.005-17.23-17.276-45.214-17.325-62.488-.09-17.287 17.232-17.327 45.213-.09 62.49 12.97 13.008 32.03 16.246 48.037 9.698l25.94 29.485c5.262 5.988 14.38 6.57 20.36 1.31 5.987-5.262 6.57-14.382 1.305-20.367zm-84.69-31.045c-11.203-11.232-11.175-29.417.055-40.615 11.23-11.205 29.42-11.177 40.616.053 11.203 11.23 11.182 29.42-.05 40.62-11.236 11.202-29.425 11.178-40.62-.057z"/><path opacity=".2" fill="#010000" d="M191.958 171.99c9.932-16.25 16.665-36.203 16.665-57.177 0-14.94-2.646-27.283-7.323-37.3a104.05 104.05 0 0 1-8.11.322c-22.642 0-42.487-7.172-53.603-17.942v151.243c10.662 0 22.822-6.128 33.94-16.405l9.838 11.182c5.263 5.988 14.382 6.57 20.36 1.31 5.986-5.262 6.57-14.382 1.305-20.366l-13.072-14.865z"/></g></svg>