<svg xmlns="http://www.w3.org/2000/svg" width="480" height="144" viewBox="-0.521 -0.479 480 144"><path fill="#76D9FC" d="M-.52-.48h480.007v144H-.52z"/><path fill="#00A936" d="M105.094 74.426c.425.387.706.994 1.085 1.062h.56c2.656.74 5.235-1.904 3.226-2.08-.796-.14-2.326.067-4.872 1.018zM166.796 51.402c-4.213.708-5.23 3.5 3.836 9.67 1.124-.306 8.92-2.05 4.342 2.623 14.083-8.31-.98-13.56-8.178-12.293zM340.865 24.573c1.204-8.245-12.05-14.315-18.016-13.98-3.48.25-4.156 2.705 2.268 8.627-6.004 14.044 10.003 14.794 15.747 5.353zM202.275-.48c1.53 3.964 5.002 7.15 11.774 9.038 1.39-3.082 3.08-6.083 4.956-9.037h-16.73z"/><path fill="#00A936" d="M170.103 16.05c-1.47-6.562-4.69-12.236-8.822-16.53h-34.247c-1.54 2.175-2.893 4.788-4 7.88-8.438 2.236-13.334-1.606-15.293-7.88H.073c-.2.345-.395.688-.594 1.032v136.805a279.508 279.508 0 0 0 3.56 6.162h23.925c-5.8-8.265-14.947-14.29-22.616-20.216-10.143-33.54 51.658-45.875 52.544-9.146 20.352-1.045 27.48-36.184 50.968-41.256 12.098-10.394 44.84.78 32.995-20.448 11.71-11.016 46.047-10.64 29.246-36.405zM370.026 62.67c-9.625-23.92 40.02-13.018 29.28-30.027C425.045 46.165 426.7 17.1 418.78-.48h-66.807c-13.1 17.655-4.2 48.988-11.69 70.686-15.03 33.03 37.587 18.466 29.74-7.535z"/><path fill="#00A936" d="M479.488 60.894c-6.028-7.287-8.296-14.798 0-10.23V-.48h-49.554c-.06 2.623-.64 5.173-1.916 7.33 1.188 11.695 11.37 14.384 19.546 17.723.37.27.796.31 1.607.505 7.135 3.38 11.427 7.708 3.717 21.003-8.843 29.518-38.833 31.147-63.338 25.69-24.79 10.164-29.402 39.984-43.39 60.06a152.43 152.43 0 0 0-5.82 11.69h139.147V60.894z"/><path fill="#010000" d="M479.488 6.89c-3.268-1.156-7.353-2.245-12.367-3.31C460.857 2.252 453.264.95 444.42-.2a10.114 10.114 0 0 0-.1-.28h-109.19c25.967 1.03 50.04 2.456 71.128 4.23 12.76 1.09 23.348 2.218 32.168 3.302 8.476 26.862 13.295 55.793 13.722 85.99h-109.66c-.203-32.507-2.76-64.074-7.38-93.52h-8.035c4.69 29.334 7.242 60.94 7.47 93.52h-95.462V-.478h-7.96v93.52h-95.454c.227-32.56 2.79-64.167 7.504-93.52h-8.062c-4.625 29.44-7.172 60.987-7.392 93.52H18.03c.457-30.264 5.305-59.26 13.813-86.157C40.395 5.86 50.576 4.805 62.72 3.75 83.95 1.96 108.198.548 134.33-.48H25.89c-.012.038-.025.074-.038.11C16.454.855 8.428 2.178 1.872 3.58c-.828.176-1.615.354-2.393.53v7.644C6.007 10.6 13.883 9.34 23.18 8.037c-8.07 26.62-12.666 55.216-13.086 85.005H-.52v7.97H10.08a312.613 312.613 0 0 0 3.34 42.51h8.044a303.703 303.703 0 0 1-3.437-42.51h109.68a670.18 670.18 0 0 0 1.59 42.51h7.968a657.88 657.88 0 0 1-1.607-42.51h95.456v42.507h7.96v-42.51h95.46a651.118 651.118 0 0 1-1.588 42.51h7.96a674.3 674.3 0 0 0 1.576-42.51h109.68a306.056 306.056 0 0 1-3.43 42.51h8.042a313.87 313.87 0 0 0 3.336-42.51h19.375v-7.97h-19.375c-.41-29.722-4.973-58.248-13.003-84.83 19.888 2.844 28.59 5.517 32.377 7.198V6.89z" opacity=".2"/><path opacity=".2" d="M81.323 143.52L69.805 52.367C68.047 54.52 37.287 26.97 37.287 26.97L10.48 143.52h70.843zM468.514 143.52L441.247 24.97s-30.757 27.553-32.52 25.4l-11.766 93.15h71.554z"/><g><path fill="#E0E0E0" d="M444.04 143.52V27.45c0-3.02-2.473-5.47-5.522-5.47H311.406v121.54H444.04z"/><path fill="#D3D3D3" d="M311.406 43.396H444.04v7.964H311.405z"/><path fill="#444" d="M311.406 21.98h127.11c3.05 0 5.522 2.45 5.522 5.47v16.41H311.406V21.98z"/><path fill="#FFF" d="M334.84 28.618h95.747c2.4 0 4.367 1.938 4.367 4.336 0 2.388-1.967 4.326-4.367 4.326H334.84v-8.662z"/><path fill="#E0E0E0" d="M363.69 143.52V21.98H237.462a5.478 5.478 0 0 0-5.48 5.47v116.07h131.706z"/><path fill="#D3D3D3" d="M231.982 43.396h132.634v7.964H231.982z"/><path fill="#444" d="M364.616 21.98H237.502c-3.048 0-5.52 2.45-5.52 5.47v16.41h132.632V21.98h.002z"/><path fill="#2CB740" d="M248.428 33.21c0 2.39-1.957 4.326-4.37 4.326-2.418 0-4.377-1.936-4.377-4.326 0-2.388 1.96-4.325 4.378-4.325 2.413 0 4.37 1.94 4.37 4.325z"/><path fill="#F16442" d="M261.752 33.21c0 2.39-1.96 4.326-4.378 4.326-2.407 0-4.37-1.936-4.37-4.326 0-2.388 1.963-4.325 4.37-4.325 2.418 0 4.378 1.94 4.378 4.325z"/><path fill="#FFF" d="M369.58 28.618H269.087c-2.52 0-4.586 1.938-4.586 4.336 0 2.388 2.07 4.326 4.587 4.326H369.58v-8.662z"/><path fill="#FCD22E" d="M280.154 64.17c-.05 0-.09.027-.09.056 0 .035.04.065.09.065.054 0 .09-.03.09-.064 0-.027-.036-.056-.09-.056z"/><path fill="#444" d="M383.375 76.174c0 .67-.547 1.21-1.227 1.21H249.045c-.678 0-1.225-.54-1.225-1.21 0-.67.547-1.215 1.225-1.215H382.15c.68 0 1.225.544 1.225 1.214zM383.375 71.322c0 .673-.547 1.21-1.227 1.21H249.045c-.678 0-1.225-.538-1.225-1.21a1.22 1.22 0 0 1 1.225-1.214H382.15c.68 0 1.225.547 1.225 1.214zM383.375 66.47a1.22 1.22 0 0 1-1.227 1.214H249.045a1.22 1.22 0 0 1-1.225-1.213c0-.67.547-1.213 1.225-1.213H382.15c.68 0 1.225.542 1.225 1.214zM288.46 60.283c0 1.057-.87 1.918-1.943 1.918h-36.76a1.93 1.93 0 0 1-1.937-1.917c0-1.06.866-1.92 1.938-1.92h36.76a1.93 1.93 0 0 1 1.942 1.92z"/><ellipse fill="#444" cx="242.537" cy="60.282" rx="2.078" ry="2.057"/><path fill="#BFBFBF" d="M383.375 120.148a1.22 1.22 0 0 1-1.227 1.213H249.045a1.218 1.218 0 0 1-1.225-1.212c0-.67.547-1.215 1.225-1.215H382.15c.68 0 1.225.546 1.225 1.215zM383.375 115.293a1.22 1.22 0 0 1-1.227 1.22H249.045a1.22 1.22 0 0 1-1.225-1.22c0-.668.547-1.21 1.225-1.21H382.15c.68 0 1.225.542 1.225 1.21zM383.375 110.445a1.22 1.22 0 0 1-1.227 1.21H249.045a1.22 1.22 0 0 1-1.225-1.21c0-.672.547-1.215 1.225-1.215H382.15c.68 0 1.225.543 1.225 1.215z"/><path fill="#A0A0A0" d="M288.46 104.256c0 1.057-.87 1.918-1.943 1.918h-36.76a1.93 1.93 0 0 1-1.937-1.918c0-1.06.866-1.92 1.938-1.92h36.76c1.073 0 1.942.86 1.942 1.92zM244.615 104.252c0 1.143-.93 2.06-2.078 2.06a2.066 2.066 0 0 1-2.076-2.06c0-1.133.932-2.055 2.077-2.055 1.148.002 2.078.924 2.078 2.055z"/><g><path fill="#BFBFBF" d="M383.375 142.152c0 .67-.547 1.21-1.227 1.21H249.045c-.678 0-1.225-.54-1.225-1.21 0-.672.547-1.213 1.225-1.213H382.15c.68 0 1.225.54 1.225 1.212zM383.375 137.297c0 .674-.547 1.213-1.227 1.213H249.045c-.678 0-1.225-.54-1.225-1.213a1.22 1.22 0 0 1 1.225-1.213H382.15c.68 0 1.225.545 1.225 1.213zM383.375 132.447a1.22 1.22 0 0 1-1.227 1.21H249.045a1.22 1.22 0 0 1-1.225-1.21c0-.672.547-1.215 1.225-1.215H382.15c.68 0 1.225.543 1.225 1.215z"/><path fill="#A0A0A0" d="M288.46 126.258c0 1.06-.87 1.918-1.943 1.918h-36.76a1.93 1.93 0 0 1-1.937-1.918c0-1.06.866-1.918 1.938-1.918h36.76c1.073 0 1.942.86 1.942 1.918z"/><ellipse fill="#A0A0A0" cx="242.537" cy="126.259" rx="2.078" ry="2.056"/></g><path fill="#BFBFBF" d="M249.127 81.07h28.067v17.246h-28.067zM284.512 81.07h28.068v17.246h-28.068zM319.313 81.07h28.066v17.246h-28.067zM354.697 81.07h28.065v17.246h-28.065zM389.938 60.137h45.247v76.36h-45.247z"/></g><g><path fill="#E0E0E0" d="M248.875 143.52V27.45c0-3.02-2.472-5.47-5.52-5.47H116.244v121.54h132.632z"/><path fill="#D3D3D3" d="M116.243 43.396h132.63v7.964h-132.63z"/><path fill="#444" d="M116.243 21.98h127.112c3.047 0 5.52 2.45 5.52 5.47v16.41H116.242V21.98z"/><path fill="#FFF" d="M139.68 28.618h95.745c2.4 0 4.37 1.938 4.37 4.336 0 2.388-1.97 4.326-4.37 4.326H139.68v-8.662z"/><path fill="#E0E0E0" d="M168.53 143.52V21.98H42.302a5.477 5.477 0 0 0-5.48 5.47v116.07h131.706z"/><path fill="#D3D3D3" d="M36.82 43.396h132.634v7.964H36.82z"/><path fill="#444" d="M169.455 21.98H42.34c-3.047 0-5.52 2.45-5.52 5.47v16.41h132.633l.002-21.88z"/><path fill="#2CB740" d="M53.266 33.21c0 2.39-1.958 4.326-4.37 4.326-2.417 0-4.376-1.936-4.376-4.326 0-2.388 1.96-4.325 4.376-4.325 2.412 0 4.37 1.94 4.37 4.325z"/><path fill="#F16442" d="M66.592 33.21c0 2.39-1.962 4.326-4.38 4.326-2.407 0-4.365-1.936-4.365-4.326 0-2.388 1.958-4.325 4.366-4.325 2.416 0 4.38 1.94 4.38 4.325z"/><path fill="#FFF" d="M174.417 28.618H73.93c-2.522 0-4.59 1.938-4.59 4.336 0 2.388 2.068 4.326 4.59 4.326h100.49l-.003-8.662z"/><path fill="#FCD22E" d="M84.993 64.17c-.05 0-.09.027-.09.056 0 .035.04.065.09.065.05 0 .09-.03.09-.064 0-.027-.04-.056-.09-.056z"/><path fill="#444" d="M188.216 76.174c0 .67-.55 1.21-1.23 1.21H53.885c-.677 0-1.225-.54-1.225-1.21 0-.67.547-1.215 1.224-1.215h133.103c.68 0 1.23.544 1.23 1.214zM188.216 71.322c0 .673-.55 1.21-1.23 1.21H53.885c-.677 0-1.225-.538-1.225-1.21a1.22 1.22 0 0 1 1.224-1.214h133.103c.68 0 1.23.547 1.23 1.214zM188.216 66.47c0 .667-.55 1.214-1.23 1.214H53.885a1.22 1.22 0 0 1-1.225-1.213c0-.67.547-1.213 1.224-1.213h133.103c.68 0 1.23.542 1.23 1.214zM93.298 60.283a1.93 1.93 0 0 1-1.94 1.918H54.595a1.93 1.93 0 0 1-1.937-1.917c0-1.06.867-1.92 1.936-1.92h36.76a1.93 1.93 0 0 1 1.942 1.92z"/><ellipse fill="#444" cx="47.376" cy="60.282" rx="2.079" ry="2.057"/><path fill="#BFBFBF" d="M188.216 120.148c0 .67-.55 1.213-1.23 1.213H53.885a1.22 1.22 0 0 1-1.225-1.212c0-.67.547-1.215 1.224-1.215h133.103c.68 0 1.23.546 1.23 1.215zM188.216 115.293c0 .674-.55 1.22-1.23 1.22H53.885a1.22 1.22 0 0 1-1.225-1.22c0-.668.547-1.21 1.224-1.21h133.103c.68 0 1.23.542 1.23 1.21zM188.216 110.445c0 .664-.55 1.21-1.23 1.21H53.885a1.22 1.22 0 0 1-1.225-1.21 1.22 1.22 0 0 1 1.224-1.215h133.103c.68 0 1.23.543 1.23 1.215z"/><path fill="#A0A0A0" d="M93.298 104.256a1.93 1.93 0 0 1-1.94 1.918H54.595a1.93 1.93 0 0 1-1.937-1.918c0-1.06.867-1.92 1.936-1.92h36.76c1.074 0 1.942.86 1.942 1.92zM49.455 104.252c0 1.143-.93 2.06-2.08 2.06a2.066 2.066 0 0 1-2.076-2.06c0-1.133.93-2.055 2.075-2.055 1.15.002 2.08.924 2.08 2.055z"/><g><path fill="#BFBFBF" d="M188.216 142.152c0 .67-.55 1.21-1.23 1.21H53.885c-.677 0-1.225-.54-1.225-1.21 0-.672.547-1.213 1.224-1.213h133.103c.68 0 1.23.54 1.23 1.212zM188.216 137.297c0 .674-.55 1.213-1.23 1.213H53.885c-.677 0-1.225-.54-1.225-1.213a1.22 1.22 0 0 1 1.224-1.213h133.103c.68 0 1.23.545 1.23 1.213zM188.216 132.447c0 .666-.55 1.21-1.23 1.21H53.885a1.22 1.22 0 0 1-1.225-1.21 1.22 1.22 0 0 1 1.224-1.215h133.103c.68 0 1.23.543 1.23 1.215z"/><path fill="#A0A0A0" d="M93.298 126.258a1.93 1.93 0 0 1-1.94 1.918H54.595a1.93 1.93 0 0 1-1.937-1.918c0-1.06.867-1.918 1.936-1.918h36.76c1.074 0 1.942.86 1.942 1.918z"/><ellipse fill="#A0A0A0" cx="47.376" cy="126.259" rx="2.079" ry="2.056"/></g><path fill="#BFBFBF" d="M53.968 81.07h28.066v17.246H53.968zM89.352 81.07h28.066v17.246H89.352zM124.152 81.07h28.064v17.246h-28.064zM159.536 81.07H187.6v17.246h-28.064zM194.778 60.137h45.246v76.36h-45.246z"/></g><path opacity=".2" d="M174.698 143.52l-12.146-96.143c-1.76 2.15-32.52-25.398-32.52-25.398l-27.36 118.958 27.06 2.582h44.966zM340.737 143.52l27.06-2.582-27.36-118.96s-30.76 27.55-32.52 25.4l-12.145 96.142h44.965z"/><g><path fill="#E0E0E0" d="M342.086 143.52V14.625c0-3.02-2.47-5.472-5.518-5.472H209.456V143.52h132.63z"/><path fill="#D3D3D3" d="M209.456 30.57h132.63v7.963h-132.63z"/><path fill="#444" d="M209.456 9.152H336.57c3.047 0 5.517 2.45 5.517 5.472v16.41h-132.63V9.152z"/><path fill="#FFF" d="M232.894 15.792h95.742c2.402 0 4.37 1.938 4.37 4.335 0 2.39-1.968 4.327-4.37 4.327h-95.743v-8.662z"/><path fill="#E0E0E0" d="M261.74 143.52V9.152H135.515a5.476 5.476 0 0 0-5.48 5.472V143.52H261.74z"/><path fill="#D3D3D3" d="M130.035 30.57h132.63v7.963h-132.63z"/><path fill="#444" d="M262.667 9.152H135.553c-3.048 0-5.518 2.45-5.518 5.472v16.41h132.63V9.152h.002z"/><ellipse fill="#2CB740" cx="142.107" cy="20.385" rx="4.374" ry="4.326"/><path fill="#F16442" d="M159.804 20.385c0 2.39-1.963 4.326-4.378 4.326-2.408 0-4.368-1.935-4.368-4.325 0-2.388 1.96-4.326 4.368-4.326 2.415 0 4.378 1.94 4.378 4.325z"/><path fill="#FFF" d="M267.63 15.792H167.14c-2.52 0-4.587 1.938-4.587 4.335 0 2.39 2.067 4.327 4.587 4.327h100.49v-8.662z"/><path fill="#FCD22E" d="M178.205 51.346c-.048 0-.092.027-.092.057 0 .033.043.063.092.063.052 0 .09-.03.09-.063 0-.03-.038-.057-.09-.057z"/><path fill="#444" d="M281.427 63.35c0 .67-.55 1.21-1.23 1.21h-133.1c-.677 0-1.225-.54-1.225-1.21 0-.67.547-1.215 1.225-1.215H280.2c.68 0 1.227.545 1.227 1.216zM281.427 58.497c0 .67-.55 1.212-1.23 1.212h-133.1c-.677 0-1.225-.542-1.225-1.213 0-.67.547-1.215 1.225-1.215H280.2c.68 0 1.227.545 1.227 1.215zM281.427 53.645c0 .665-.55 1.21-1.23 1.21h-133.1a1.22 1.22 0 0 1-1.225-1.21c0-.67.547-1.215 1.225-1.215H280.2c.68 0 1.227.544 1.227 1.215zM186.512 47.458c0 1.055-.868 1.918-1.942 1.918h-36.76a1.93 1.93 0 0 1-1.937-1.918c0-1.062.867-1.92 1.936-1.92h36.76a1.93 1.93 0 0 1 1.942 1.92zM142.667 47.458c0 1.133-.93 2.053-2.08 2.053a2.065 2.065 0 0 1-2.076-2.052c0-1.137.932-2.06 2.077-2.06 1.15 0 2.08.924 2.08 2.06z"/><path fill="#BFBFBF" d="M281.427 107.324c0 .668-.55 1.213-1.23 1.213h-133.1a1.22 1.22 0 0 1-1.225-1.213 1.22 1.22 0 0 1 1.225-1.217H280.2c.68 0 1.227.545 1.227 1.217zM281.427 102.467c0 .676-.55 1.22-1.23 1.22h-133.1a1.22 1.22 0 0 1-1.225-1.22c0-.666.547-1.21 1.225-1.21H280.2c.68 0 1.227.544 1.227 1.21zM281.427 97.617c0 .668-.55 1.213-1.23 1.213h-133.1a1.22 1.22 0 0 1-1.225-1.213 1.22 1.22 0 0 1 1.225-1.213H280.2c.68 0 1.227.545 1.227 1.213z"/><path fill="#A0A0A0" d="M186.512 91.432c0 1.055-.868 1.916-1.942 1.916h-36.76c-1.07 0-1.937-.86-1.937-1.916 0-1.062.867-1.92 1.936-1.92h36.76a1.927 1.927 0 0 1 1.942 1.92zM142.667 91.426c0 1.143-.93 2.06-2.08 2.06a2.066 2.066 0 0 1-2.076-2.06 2.07 2.07 0 0 1 2.077-2.057c1.15 0 2.08.923 2.08 2.056z"/><g><path fill="#BFBFBF" d="M281.427 129.326c0 .668-.55 1.21-1.23 1.21h-133.1a1.218 1.218 0 0 1-1.225-1.21c0-.672.547-1.213 1.225-1.213H280.2c.68 0 1.227.54 1.227 1.213zM281.427 124.47c0 .673-.55 1.218-1.23 1.218h-133.1a1.22 1.22 0 0 1-1.225-1.217 1.22 1.22 0 0 1 1.225-1.212H280.2c.68 0 1.227.547 1.227 1.213zM281.427 119.62c0 .667-.55 1.212-1.23 1.212h-133.1a1.22 1.22 0 0 1-1.225-1.21c0-.673.547-1.214 1.225-1.214H280.2c.68 0 1.227.54 1.227 1.213z"/><path fill="#A0A0A0" d="M186.512 113.434c0 1.055-.868 1.916-1.942 1.916h-36.76c-1.07 0-1.937-.86-1.937-1.916 0-1.062.867-1.918 1.936-1.918h36.76c1.074 0 1.942.857 1.942 1.918zM142.667 113.434a2.07 2.07 0 0 1-2.08 2.057 2.07 2.07 0 0 1-2.076-2.056c0-1.14.932-2.06 2.077-2.06 1.15 0 2.08.92 2.08 2.06z"/></g><g><path fill="#A0A0A0" d="M146.5 143.52h39.382a1.9 1.9 0 0 0 .63-1.404c0-1.06-.868-1.918-1.942-1.918h-36.76c-1.07 0-1.936.857-1.936 1.918 0 .554.243 1.052.627 1.404zM142.098 143.52c.35-.37.568-.86.568-1.404 0-1.14-.93-2.057-2.08-2.057a2.065 2.065 0 0 0-2.076 2.056c0 .545.22 1.035.567 1.404h3.02z"/></g><path fill="#BFBFBF" d="M147.18 68.247h28.067V85.49H147.18zM182.566 68.247h28.066V85.49h-28.066zM217.364 68.247h28.065V85.49h-28.066zM252.747 68.247h28.067V85.49h-28.067zM287.992 47.312h45.244v76.358h-45.244zM287.992 135.037h45.244v8.482h-45.244z"/></g><path opacity=".2" d="M310.83 143.52L285.22 32.17s-47.492-6.26-62.54-7.252l-15.047 40.056-7.022 18.207c-3.008 2.76-9.184-51.01-9.184-51.01l-25.67 111.35H310.83z"/><path fill="none" d="M-.52 2.997h478V132.1h-478z"/><g><path fill="#0068BA" d="M283.96 28.637c-2.02.156-4.076.244-6.158.244-17.202 0-32.274-5.394-40.718-13.492-4.04 3.874-9.606 7.118-16.188 9.465.03 2.446.208 15.296.413 15.234.228-.068 9.394 12.94 9.394 12.94l3.197 16.267 11.514 7.746-16.01-5.312-4.47-15.265-13.384-11.247-3.19-17.245a78.53 78.53 0 0 1-11.992.91 79.97 79.97 0 0 1-6.162-.244c-3.554 7.533-5.563 16.814-5.563 28.05 0 38.495 31.888 72.43 52.443 72.43 22.002 0 52.44-33.935 52.44-72.43-.003-11.234-2.013-20.517-5.566-28.05z"/><path fill="#FFCE12" d="M286.794 110.86l-19.72-22.198c7.272-12.666 5.502-29.042-5.396-39.857-13.09-12.992-34.342-13.03-47.465-.068-13.13 12.957-13.16 33.998-.068 46.99 9.853 9.78 24.33 12.215 36.49 7.293l19.703 22.17c3.997 4.504 10.924 4.94 15.468.984s4.986-10.815.988-15.315zm-64.328-23.344a21.44 21.44 0 0 1 .04-30.543c8.532-8.426 22.348-8.404 30.853.04 8.506 8.445 8.49 22.122-.042 30.544-8.533 8.423-22.35 8.404-30.852-.04z"/><path opacity=".2" fill="#010000" d="M276.865 99.682c7.544-12.22 12.658-27.224 12.658-42.996 0-11.234-2.008-20.516-5.562-28.05a80.038 80.038 0 0 1-6.16.245c-17.197 0-32.27-5.394-40.716-13.492v113.73c8.1 0 17.336-4.61 25.78-12.337l7.473 8.407c3.997 4.504 10.924 4.94 15.468.984a10.77 10.77 0 0 0 .988-15.31l-9.928-11.178z"/></g></svg>