<?xml version="1.0" encoding="utf-8"?>
<!-- Generator: Adobe Illustrator 20.1.0, SVG Export Plug-In . SVG Version: 6.00 Build 0)  -->
<svg version="1.1" baseProfile="basic" id="Слой_1"
     xmlns="http://www.w3.org/2000/svg" xmlns:xlink="http://www.w3.org/1999/xlink" x="0px" y="0px" width="18px" height="12px"
     viewBox="0 0 18 12" xml:space="preserve">
<g>
    <path fill="#FFFFFF" d="M9,6.9l8-6C16.5,0.3,15.8,0,15,0H3C2.2,0,1.5,0.3,1,0.8L9,6.9z"/>
    <path fill="#FFFFFF" d="M8.1,7.9L0.2,2C0.1,2.3,0,2.6,0,3v6c0,1.7,1.3,3,3,3h12c1.7,0,3-1.3,3-3V3c0-0.4-0.1-0.7-0.2-1L9.9,7.9
        L9,8.6l0,0"/>
</g>
</svg>
