<?xml version="1.0" encoding="utf-8"?>
<!-- Generator: Adobe Illustrator 16.0.0, SVG Export Plug-In . SVG Version: 6.00 Build 0)  -->
<!DOCTYPE svg PUBLIC "-//W3C//DTD SVG 1.1//EN" "http://www.w3.org/Graphics/SVG/1.1/DTD/svg11.dtd">
<svg version="1.1" id="Layer_1" xmlns="http://www.w3.org/2000/svg" xmlns:xlink="http://www.w3.org/1999/xlink" x="0px" y="0px"
     width="16.922px" height="12.996px" viewBox="0 0 16.922 12.996" enable-background="new 0 0 16.922 12.996" xml:space="preserve">
<g>
    <circle fill="#FFFFFF" cx="13.152" cy="11.477" r="1.519"/>
    <circle fill="#FFFFFF" cx="7.334" cy="11.477" r="1.519"/>
    <path fill="#FFFFFF" d="M16.342,1.556c-0.407-0.11-0.817,0.1-0.914,0.465L13.8,7.828H6.53L4.565,0.495
        C4.515,0.306,4.382,0.161,4.209,0.078C4.131,0.037,4.046,0.01,3.953,0.004c0,0-0.003,0-0.004,0C3.938,0.003,3.926,0,3.913,0H0.688
        C0.307,0,0,0.341,0,0.763c0,0.422,0.307,0.763,0.688,0.763h2.573l1.968,7.337C5.319,9.2,5.671,9.399,6.043,9.347
        C6.062,9.35,6.08,9.354,6.099,9.354h8.29c0.01,0,0.021-0.003,0.032-0.003c0.315-0.008,0.596-0.197,0.674-0.491l1.807-6.443
        C16.999,2.05,16.748,1.665,16.342,1.556z"/>
    <circle fill="#FFFFFF" cx="6.961" cy="3.383" r="0.886"/>
    <circle fill="#FFFFFF" cx="10.067" cy="3.383" r="0.886"/>
    <circle fill="#FFFFFF" cx="13.225" cy="3.383" r="0.886"/>
    <circle fill="#FFFFFF" cx="8.49" cy="5.669" r="0.886"/>
    <circle fill="#FFFFFF" cx="11.646" cy="5.669" r="0.886"/>
</g>
</svg>
