<svg baseProfile="basic" xmlns="http://www.w3.org/2000/svg" width="17" height="17" viewBox="-297 405 17 17"><path fill="#FFF" d="M-282 412h-1.3c-.1-.2-.2-.4-.2-.6l1-1c.4-.4.4-1 0-1.4l-1.4-1.4c-.4-.4-1-.4-1.4 0l-1 1c-.2-.1-.4-.2-.6-.2V407c0-.6-.4-1-1-1h-2c-.6 0-1 .4-1 1v1.3c-.2.1-.4.2-.6.2l-1-1c-.4-.4-1-.4-1.4 0l-1.4 1.4c-.4.4-.4 1 0 1.4l1 1c-.1.2-.2.4-.2.6h-1.3c-.6 0-1 .4-1 1v2c0 .6.4 1 1 1h1.3c.1.2.2.4.2.6l-1 1c-.4.4-.4 1 0 1.4l1.4 1.4c.4.4 1 .4 1.4 0l1-1c.2.1.4.2.6.2v1.3c0 .6.4 1 1 1h2c.6 0 1-.4 1-1v-1.3c.2-.1.4-.2.6-.2l1 1c.4.4 1 .4 1.4 0l1.4-1.4c.4-.4.4-1 0-1.4l-1-1c.1-.2.2-.4.2-.6h1.3c.6 0 1-.4 1-1v-2c0-.5-.4-.9-1-.9zm-7 5c-1.7 0-3-1.3-3-3s1.3-3 3-3 3 1.3 3 3-1.3 3-3 3z"/></svg>