<svg xmlns="http://www.w3.org/2000/svg" width="51.394" height="63.156" viewBox="0 0 51.394 63.156"><path fill="#A0A0A0" d="M41.695 44.217h-2.02a.877.877 0 0 1-.876-.875c0-.483.393-.875.874-.875h2.02a7.96 7.96 0 0 0 2.494-.398.873.873 0 0 1 1.104.555c.15.46-.1.955-.556 1.106a9.72 9.72 0 0 1-3.04.487zm-8.235 0h-4.834a.876.876 0 0 1 0-1.75h4.834a.876.876 0 0 1 0 1.75zm-11.05 0h-4.835a.876.876 0 0 1 0-1.75h4.834a.876.876 0 0 1 0 1.75zM11.71 42.55a.87.87 0 0 1-.51-.166 9.73 9.73 0 0 1-3.27-4.104.876.876 0 0 1 1.616-.678 7.975 7.975 0 0 0 2.677 3.364.873.873 0 0 1-.513 1.583zm37.516-2.56a.878.878 0 0 1-.746-1.332 7.936 7.936 0 0 0 1.162-4.14.89.89 0 0 1 .875-.894.86.86 0 0 1 .874.856v.037c0 1.787-.49 3.534-1.418 5.05a.877.877 0 0 1-.748.422zM8.052 32.69a.875.875 0 0 1-.875-.875v-4.834a.875.875 0 0 1 1.75 0v4.834a.875.875 0 0 1-.875.875zm42.467-3.55a.876.876 0 0 1-.876-.877V23.43a.875.875 0 0 1 1.75 0v4.835c0 .483-.39.876-.875.876zM8.05 21.64a.875.875 0 0 1-.875-.874v-4.835a.875.875 0 0 1 1.75 0v4.835a.876.876 0 0 1-.875.875zM50.52 18.09a.875.875 0 0 1-.876-.875V12.38a.876.876 0 0 1 1.75 0v4.835c0 .483-.39.875-.875.875zM8.05 10.583a.868.868 0 0 1-.875-.866V9.7c0-1.78.486-3.52 1.406-5.035a.878.878 0 0 1 1.204-.292c.413.25.544.79.293 1.202A7.923 7.923 0 0 0 8.928 9.7a.884.884 0 0 1-.876.883zm41.77-3.45c-.34 0-.663-.2-.804-.533a7.978 7.978 0 0 0-2.688-3.358.876.876 0 1 1 1.022-1.42 9.713 9.713 0 0 1 3.277 4.096.876.876 0 0 1-.807 1.216zM14.093 2.2a.876.876 0 0 1-.275-1.706A9.683 9.683 0 0 1 16.876 0h2a.875.875 0 0 1 0 1.75h-2c-.86 0-1.704.135-2.51.404a.862.862 0 0 1-.276.045zm26.884-.45h-4.833a.876.876 0 0 1 0-1.75h4.833c.483 0 .877.392.877.875s-.394.875-.877.875zm-11.05 0h-4.834a.876.876 0 0 1 0-1.75h4.834a.876.876 0 0 1 0 1.75z"/><path fill="#03AF59" d="M42.468 42.91a8.827 8.827 0 0 1-8.825 8.825H8.825A8.826 8.826 0 0 1 0 42.91V18.09a8.825 8.825 0 0 1 8.825-8.824h24.818a8.825 8.825 0 0 1 8.824 8.825v24.82z"/><path fill="#03AF59" d="M42.468 42.91a8.827 8.827 0 0 1-8.825 8.825H8.825A8.826 8.826 0 0 1 0 42.91V18.09a8.825 8.825 0 0 1 8.825-8.824h24.818a8.825 8.825 0 0 1 8.824 8.825v24.82z"/><path fill="#FFCC03" d="M14.262 22.84c0-2.192 1.554-3.09 3.452-1.993l13.268 7.66c1.898 1.096 1.898 2.89 0 3.984l-13.268 7.662c-1.898 1.096-3.452.2-3.452-1.994V22.84z"/><path opacity=".1" d="M20.648 33.882l1.23 17.852h8.258l-.017-.04 4.45-.01a8.805 8.805 0 0 0 2.563-.67L20.648 33.882z"/><path opacity=".2" fill="#F3F3F3" d="M36.267 9.832L8.825 52.125h24.817c4.872 0 8.928-4.146 8.928-9.02l.104-.197V18.09c0-3.997-2.763-7.173-6.407-8.258z"/><path fill="#424242" d="M17.85 33.882l1.714 24.884s4.95-6.228 5-6.036 4.765 10.425 4.765 10.425l2.77-1.33-4.78-10.132 7.654-.018L17.85 33.882z"/></svg>