<svg xmlns="http://www.w3.org/2000/svg" width="35.076" height="35.074" viewBox="0 0 35.076 35.074"><path fill="#007AC9" d="M35.076 28.208a6.864 6.864 0 0 1-6.866 6.866H6.866A6.865 6.865 0 0 1 0 28.208V6.866A6.867 6.867 0 0 1 6.866 0H28.21a6.866 6.866 0 0 1 6.866 6.866v21.342z"/><g fill="#FFF"><path d="M27.486 19.69c.9-2.74 2.312-8.753 2.844-10.892.472-1.893.78-2.597-.07-2.582-.71.012-2.525.185-2.9 1.683-.624 2.5-2.117 8.257-2.664 10.088-.602 2.01-1.88 2.43-3.49 2.446-1.404.01-2.177-.1-2.177-1.164a59.427 59.427 0 0 0-1.456-.002c-.317 0-1.008-.007-1.455.002 0 1.122-.772 1.164-2.176 1.164-1.043 0-2.624-.193-3.204-2.104a571.01 571.01 0 0 1-1.93-6.6C8.29 9.905 6.66 9.805 5.88 9.8c-.86-.004-.793.136-.297 1.928.495 1.79 1.583 5.788 2.344 8.465.76 2.678 3.37 3.55 5.037 3.55h2.812c1.278 0 1.73-.548 1.797-.72.07.172.562.72 1.842.72h2.727c2.317 0 4.47-1.408 5.344-4.054z"/><circle cx="13.306" cy="11.404" r="1.333"/><circle cx="17.636" cy="11.404" r="1.333"/><circle cx="22.023" cy="11.404" r="1.333"/><circle cx="13.306" cy="16.206" r="1.333"/><circle cx="17.636" cy="16.206" r="1.333"/><circle cx="22.023" cy="16.206" r="1.333"/><path d="M7.052 24.48a2.672 2.672 0 1 0 .004 5.343 2.672 2.672 0 0 0-.004-5.344zm0 3.63a.958.958 0 1 1 .004-1.917.958.958 0 0 1-.004 1.916zM28.124 24.445a2.673 2.673 0 1 0 0 5.345 2.673 2.673 0 0 0 0-5.345zm0 3.63a.958.958 0 1 1-.002-1.917.958.958 0 0 1 .002 1.916z"/></g></svg>