<svg xmlns="http://www.w3.org/2000/svg" width="185.623" height="93.001" viewBox="0 0 185.623 93.001"><path fill="#76D9FC" d="M185.623 93c-2.08-49.467-42.83-88.934-92.806-88.934S2.08 43.533 0 93h185.623z"/><path fill-rule="evenodd" clip-rule="evenodd" fill="#00A936" d="M47.213 88.816c.15.136.247.35.38.373h.195c.924.262 1.825-.672 1.123-.732-.274-.05-.81.02-1.697.358zM68.73 80.705c-1.47.25-1.825 1.233 1.337 3.405.392-.106 3.11-.72 1.515.926 4.91-2.93-.343-4.776-2.852-4.33zM68.73 59.72c5.288-2.15 6.507-16.076.21-15.666-.407 0-.816.204-1.332.396 2.635 4.86-3.443 11.045 1.122 15.27zM129.43 71.255c.42-2.904-4.2-5.042-6.282-4.922-1.213.084-1.448.95.79 3.04-2.092 4.943 3.49 5.208 5.493 1.882zM82.157 35.003c1.525-.71 2.257-3.24 0-3.24-.41-.11-.715-.218-1.124-.194-.406.012-.815.156-1.113.192-4.46.888-3.105 8.28 2.237 3.24z"/><path fill-rule="evenodd" clip-rule="evenodd" fill="#00A936" d="M88.405 33.272c-6.452.815-12.963 7.05-6.963 13.217 4.3 5.366-6.205 16.315 3.763 19.125 3.956-8.85 14.78-15.86 12.104-26.65-1.12-4.6-5.015-6.185-8.905-5.693z"/><path fill="#00A936" d="M41.3 93c1.897-2.217 4.047-4.102 6.88-4.72 4.22-3.662 15.636.273 11.506-7.204 4.08-3.88 16.056-3.747 10.197-12.822-1.964-8.847-12.84-13.12-16.415-3.048-9.845 2.64-5.875-18.717 4.14-15.87 7.263.42 6.274-5.894 1.874-7.923 0-.31-.096-.483-.372-.205-.805-.3-1.65-.61-2.642-.563-9.818-5.426 9.825-19.257-3.188-23.638C39 29.205 17.22 48.397 8.5 66.333 5.427 75.11 5.154 83.93 5.4 93h35.9zM101.448 14.02c3.044 9.783 21.274.19 20.397 11.126.143.157.42.41.574.59-.29.214.21 2.208.576.54 3.15 3.566 9.78 10.962 2.82 10.037-9.226-1.263-6.825 16.913-.18 20.214 6.332 3.408 9.893-3.433 3.387-6.796-.88-8.52 14.205 5.235 7.55 9.797-.266.183-.48.396-.738.588.306-1.223-.438-.07-.415.207-7.568 5.484-3.253 18.4-6.193 27.008-1.268 2.812-1.148 4.638-.29 5.67h6.53c2.86-1.53 5.245-4.592 4.13-8.322-3.356-8.428 13.957-4.586 10.212-10.577 10.497 5.57 9.505-9.384 5.12-14.38 2.046-7.994 7.44.937 4.89 5.292.415 4.12 3.967 5.07 6.817 6.244.13.096.277.11.558.18 2.493 1.19 3.987 2.714 1.298 7.396-3.084 10.396-13.54 10.973-22.088 9.05-2.722 1.128-4.744 2.942-6.393 5.12h45.576c-.07-1.21-.16-2.415-.26-3.618-.064-.625-.113-1.26-.185-1.883-5.308 2.906-14.75-13.073-5.093-5.476 1.887-.13 3.074-.672 3.97-1.488-1.116-5.82-2.628-11.464-4.747-16.844-.95-1.127-1.862-2.183-2.64-2.818.064-1.163-.052-2.28-.19-3.396-.047-.06.056-.145 0-.203-15.143-31.17-47.11-52.693-84.07-52.693-2.52 0-5.083.154-7.573.36-1.29.276-2.72.444-4.173.577a20.75 20.75 0 0 0-1.49.19c-5.214.734-10.197 1.644-15.094 3.194 12.772-.935 25.888-.6 37.405 5.116z"/><g opacity=".2" fill="#010000"><path d="M4.43 68.338c-.025.073-.043.12-.06.18.857-.046 1.62-.106 1.62-.18H4.43z"/><path d="M14.16 93h2.77c.356-9.802 1.994-19.208 4.738-27.974 2.982-.363 6.534-.734 10.768-1.105 7.478-.637 16.025-1.138 25.242-1.5-1.5 9.654-2.366 19.957-2.54 30.58h2.772c.177-10.674 1.055-21.03 2.597-30.687 9.677-.338 20.036-.53 30.653-.542V93h2.775V61.77a923.75 923.75 0 0 1 30.67.563c1.53 9.647 2.4 19.994 2.58 30.666h2.773c-.17-10.614-1.038-20.917-2.538-30.57 9.057.36 17.456.864 24.812 1.49 4.448.385 8.14.782 11.218 1.162 2.733 8.755 4.36 18.14 4.706 27.917h2.783c-.336-9.614-1.874-18.856-4.464-27.51 10.725 1.55 12.13 2.955 12.28 3.147-.03-.023-.086-.133-.086-.3h2.534c-.2-.6-.4-1.2-.612-1.802-1.117-1.03-3.392-1.873-7.135-2.677-2.188-.467-4.834-.925-7.92-1.33-3.575-10.794-8.784-20.612-15.268-29.006 6.505 1.672 11.69 3.628 15.28 5.68a98.29 98.29 0 0 0-4.44-5.2c-3.715-1.46-7.803-2.65-11.635-3.588-.702-.18-1.415-.336-2.124-.503-9.902-11.55-22.346-20-36.217-24.03a93.034 93.034 0 0 0-18.318-1.814c-6.963 0-13.746.794-20.28 2.247C59.252 10.5 47.318 18.748 37.767 29.888c-.75.178-1.498.347-2.227.526-3.503.854-7.22 1.923-10.672 3.22a95.124 95.124 0 0 0-4.327 4.98c3.544-1.85 8.382-3.6 14.3-5.126-6.47 8.393-11.68 18.186-15.263 28.98-3.278.43-6.075.897-8.36 1.39-2.68.578-4.605 1.167-5.89 1.85a50.86 50.86 0 0 0-.75 2.197c2.63-.614 7.272-1.514 14.067-2.476C16.048 74.1 14.497 83.36 14.16 93zm131.704-60.542c7.054 8.415 12.738 18.486 16.615 29.676-2.444-.303-5.103-.566-7.995-.842-8.044-.72-17.377-1.298-27.527-1.694-1.795-10.468-4.364-20.12-7.62-28.46-.35-.902-.71-1.787-1.084-2.667 10.126.854 19.51 2.186 27.61 3.988zm-3.128-3.52c-7.748-1.52-16.462-2.675-25.784-3.395-4.034-8.67-8.722-14.973-13.8-18.62 15.06 2.547 28.72 10.433 39.584 22.015zm-48.8-22.84c7.22.753 14.102 7.466 19.83 19.217-6.392-.42-13.05-.66-19.83-.685V6.097zm0 21.352c7.273.024 14.38.29 21.18.783a99.327 99.327 0 0 1 1.65 3.947c3.132 8.008 5.606 17.252 7.36 27.31a917.568 917.568 0 0 0-30.19-.537V27.45zM91.16 58.953c-10.478.012-20.658.19-30.185.525 1.747-10.057 4.227-19.29 7.363-27.298a85.272 85.272 0 0 1 1.646-3.96c6.794-.48 13.913-.746 21.175-.77v31.503zm0-34.323c-6.78.023-13.43.25-19.83.685C77.065 13.563 83.95 6.85 91.16 6.097V24.63zM81.947 6.923c-5.08 3.648-9.76 9.95-13.8 18.62-9.316.72-18.024 1.847-25.773 3.376C53.25 17.344 66.894 9.457 81.947 6.922zm-42.7 25.512c8.108-1.79 17.48-3.123 27.605-3.964-.38.867-.744 1.755-1.1 2.668-3.248 8.34-5.81 17.97-7.61 28.45-10.316.382-19.802.973-27.964 1.704-2.71.254-5.227.518-7.545.79 3.886-11.176 9.573-21.244 16.615-29.647z"/></g><path opacity=".3" fill="#464646" d="M28.09 31.647L19.563 93h18.75zM159.782 35.67l8.53 57.33h-18.75z"/><g><path fill-rule="evenodd" clip-rule="evenodd" fill="#F2F2F2" d="M159.312 93V3.63c0-.672-1.994-2.63-4.664-2.63H31.9c-2.67 0-4.59 1.958-4.59 2.63V93h132.002z"/><path fill-rule="evenodd" clip-rule="evenodd" fill="#464646" d="M159.312 13V4.85c0-2.67-1.994-4.85-4.664-4.85H31.9c-2.67 0-4.59 2.18-4.59 4.85V13h132.002z"/><circle fill-rule="evenodd" clip-rule="evenodd" fill="#FF555A" cx="34.994" cy="6.977" r="2.61"/><circle fill-rule="evenodd" clip-rule="evenodd" fill="#09A5B5" cx="43.948" cy="6.977" r="2.61"/><path fill-rule="evenodd" clip-rule="evenodd" fill="#FFFFFD" d="M153.312 7.594c0 1.44-.915 2.406-2.357 2.406H55.072c-1.442 0-2.76-.966-2.76-2.406v-.908C52.31 5.244 53.63 4 55.07 4h95.882c1.442 0 2.357 1.244 2.357 2.686v.908z"/><path opacity=".2" fill-rule="evenodd" clip-rule="evenodd" fill="#464646" d="M91.312 24.63a1.37 1.37 0 0 1-1.37 1.37H59.68a1.37 1.37 0 0 1-1.37-1.37v-.26c0-.757.613-1.37 1.37-1.37H89.94c.758 0 1.37.613 1.37 1.37v.26zM148.312 30.63a1.37 1.37 0 0 1-1.37 1.37h-87.26a1.37 1.37 0 0 1-1.37-1.37v-.26c0-.757.613-1.37 1.37-1.37h87.26c.757 0 1.37.613 1.37 1.37v.26zM148.312 35.63a1.37 1.37 0 0 1-1.37 1.37h-87.26a1.37 1.37 0 0 1-1.37-1.37v-.26c0-.756.613-1.37 1.37-1.37h87.26c.757 0 1.37.614 1.37 1.37v.26zM91.312 51.727c0 .756-.656 1.273-1.413 1.273H59.96c-.758 0-1.648-.518-1.648-1.273v-.325c0-.756.89-1.4 1.648-1.4h29.938c.757 0 1.413.645 1.413 1.4v.325zM148.312 55.63a1.37 1.37 0 0 1-1.37 1.37h-87.26a1.37 1.37 0 0 1-1.37-1.37v-.26c0-.757.613-1.37 1.37-1.37h87.26c.757 0 1.37.613 1.37 1.37v.26zM148.312 60.63a1.37 1.37 0 0 1-1.37 1.37h-87.26a1.37 1.37 0 0 1-1.37-1.37v-.26c0-.756.613-1.37 1.37-1.37h87.26c.757 0 1.37.614 1.37 1.37v.26zM91.312 76.63a1.37 1.37 0 0 1-1.37 1.37H59.68a1.37 1.37 0 0 1-1.37-1.37v-.26c0-.756.613-1.37 1.37-1.37H89.94c.758 0 1.37.614 1.37 1.37v.26zM148.312 81.63a1.37 1.37 0 0 1-1.37 1.37h-87.26a1.37 1.37 0 0 1-1.37-1.37v-.26c0-.757.613-1.37 1.37-1.37h87.26c.757 0 1.37.613 1.37 1.37v.26zM148.312 87.63a1.37 1.37 0 0 1-1.37 1.37h-87.26a1.37 1.37 0 0 1-1.37-1.37v-.26c0-.757.613-1.37 1.37-1.37h87.26c.757 0 1.37.613 1.37 1.37v.26z"/><path opacity=".06" fill-rule="evenodd" clip-rule="evenodd" fill="#464646" d="M159.094 93c.13-.625.218-1.304.218-2.092V2.583c0-.68-1.994-2.583-4.664-2.583h-78.14c13.003 21.045 39.482 63.126 57.776 93h24.81z"/><path fill="#CECECE" d="M51.312 36.19a2.81 2.81 0 0 1-2.81 2.81h-10.38a2.81 2.81 0 0 1-2.81-2.81V25.81A2.81 2.81 0 0 1 38.12 23H48.5a2.81 2.81 0 0 1 2.81 2.81v10.38zm-2-9.82a1.37 1.37 0 0 0-1.37-1.37H37.68a1.37 1.37 0 0 0-1.37 1.37v10.26c0 .756.614 1.37 1.37 1.37H47.94a1.37 1.37 0 0 0 1.37-1.37V26.37z"/><path fill-rule="evenodd" clip-rule="evenodd" fill="#2CB740" d="M54.124 17.438c-.7-.45-1.63-.245-2.08.455l-8.756 13.7-5.872-8.482a1.507 1.507 0 0 0-2.476 1.717l6.934 10.017c.104.317.31.605.612.8.7.45 1.632.245 2.08-.456l10.013-15.67c.448-.7.245-1.63-.456-2.08z"/><path fill="#CECECE" d="M51.312 63.19a2.81 2.81 0 0 1-2.81 2.81h-10.38a2.81 2.81 0 0 1-2.81-2.81V52.81A2.81 2.81 0 0 1 38.12 50H48.5a2.81 2.81 0 0 1 2.81 2.81v10.38zm-2-10.82a1.37 1.37 0 0 0-1.37-1.37H37.68a1.37 1.37 0 0 0-1.37 1.37v10.26c0 .756.614 1.37 1.37 1.37H47.94a1.37 1.37 0 0 0 1.37-1.37V52.37z"/><path fill-rule="evenodd" clip-rule="evenodd" fill="#2CB740" d="M54.124 43.322c-.7-.45-1.63-.247-2.08.453l-8.756 13.7-5.872-8.48a1.506 1.506 0 1 0-2.476 1.714l6.934 10.017c.104.317.31.604.612.8.7.45 1.632.245 2.08-.455l10.013-15.67c.448-.7.245-1.63-.456-2.08z"/><path fill="#CECECE" d="M37.723 90.51a2.82 2.82 0 0 1-2.81-2.782l-.102-10.68a2.81 2.81 0 0 1 2.782-2.835l10.68-.104c1.56 0 2.82 1.247 2.835 2.782l.103 10.677a2.812 2.812 0 0 1-2.78 2.836l-10.707.103zM48.3 75.547l-10.694.102a1.373 1.373 0 0 0-1.357 1.385l.395 10.677c.008.75-.334 1.358 1.666 1.358v.72l-.28-.72 10.53-.102c.757-.008 1.293-.63 1.285-1.385l-.14-10.678c-.007-.748-.657-1.357-1.405-1.357z"/><path fill-rule="evenodd" clip-rule="evenodd" fill="#2CB740" d="M54.026 68.157a1.504 1.504 0 0 0-2.075.475l-8.623 13.784-5.953-8.427a1.507 1.507 0 1 0-2.46 1.74l7.03 9.95c.107.315.313.6.62.792.703.442 1.633.23 2.075-.474l9.86-15.766a1.502 1.502 0 0 0-.474-2.075z"/></g></svg>