<svg xmlns="http://www.w3.org/2000/svg" height="144" viewBox="0 0 144 144" width="144"><defs><clipPath id="a"><path fill="#f3f3f3" d="M0 0h144v144H0z"/></clipPath></defs><g clip-path="url(#a)"><path fill="#ceefa0" d="M-.462.055h150v144h-150z"/><g opacity=".3" transform="translate(-110)"><path d="M163 144h138l37-34.8c1.7-1.59 1.78-4.25.182-5.94l-97-103h-61.6l-77.2 72.6a4.203 4.203 0 0 0-.18 5.94l61.9 65.5z"/><path d="M241 .055h-23.2l111 118 9.2-8.65c1.7-1.59 1.78-4.25.182-5.94l-97-103z"/><path d="M234 .055h-9.17l101 107c1.26 1.34 3.38 1.4 4.72.143s1.4-3.37.142-4.71l-97-102z"/><ellipse cx="210" cy="15.5" rx=".046" ry=".069" transform="rotate(-43.7 210.814 15.623)"/><path d="M171 19.3l28 29.3-31 29.1-27-29.3zM201 50.8l28 29.3-31 28.9-28-29.1zM231 82.5l28 29.5-31 29-28-29zM231 144h57l1-1-28-29-31 29zM139 50.1l27 29.3-31 29.6-27-29.8zM168 81.6l28 29.4-31 29-27-29zM169 144h55l2-1-28-30-31 29zM211 .055h-21L175 14.5 291 138l27-25z"/><path d="M182 48.4l.004-.003-2.06-2.18-.55-.584-.198-.21c-.034.032-.068.063-.103.093l-.843-3.38c.896.215 1.78.27 2.52-.43.935-.88.978-2.35.098-3.28a2.336 2.336 0 0 0-3.29-.1.46.46 0 0 0-.02.653c.177.185.468.195.655.02a1.404 1.404 0 0 1 1.98.06c.53.56.504 1.45-.06 1.98-.542.51-1.23.343-2.39.006l-4.48-1.39c.077-.08.155-.163.24-.24l-.225-.238-.524-.556-1.87-1.98-.002.002c-.03-.03-.057-.063-.086-.095-1.91-2.02-5.12-2.1-7.17-.185l-2.11 1.98-.842.792 3.55 3.76-10.3 9.66-.747.703 11.1 11.8.748-.704 10.3-9.66 3.38 3.57.842-.79 2.11-1.98c2.02-1.89 2.15-5.02.33-7.05zm-8.67-3.15c-.63-.667-1.01-1.42-1.15-2.18l3.27 3.46c-.76-.188-1.48-.614-2.12-1.28zm3.9-3.41l1.06 4.26a4.02 4.02 0 0 1-1.49.506l-4.62-4.89a3.99 3.99 0 0 1 .498-1.3l4.55 1.42zM212 79.9l.003-.003-2.06-2.18-.55-.582-.2-.21a2.947 2.947 0 0 1-.102.09l-.84-3.38c.894.214 1.78.27 2.52-.43.935-.877.976-2.35.097-3.28a2.333 2.333 0 0 0-3.29-.1.458.458 0 0 0-.02.65c.176.188.47.196.656.022a1.4 1.4 0 1 1 1.92 2.04c-.544.512-1.23.344-2.4.006l-4.48-1.39c.078-.08.157-.162.24-.24l-.224-.237-.526-.557-1.87-1.98-.004.002c-.027-.03-.055-.066-.084-.097-1.91-2.02-5.12-2.1-7.17-.184l-2.11 1.98-.842.792 3.55 3.76-10.3 9.66-.748.702 11.1 11.8.746-.703 10.3-9.66 3.38 3.57.84-.79 2.11-1.98c2.01-1.89 2.15-5.02.328-7.05zm-8.67-3.15c-.63-.667-1.01-1.42-1.16-2.18l3.27 3.46c-.76-.185-1.48-.612-2.12-1.28zm3.9-3.41l1.06 4.26a4.015 4.015 0 0 1-1.49.506l-4.62-4.89c.083-.445.25-.88.5-1.3l4.55 1.42zM242 112l.002-.002-2.06-2.18-.552-.582-.198-.21-.102.092-.842-3.38c.895.215 1.78.27 2.52-.43.936-.876.977-2.35.098-3.28a2.334 2.334 0 0 0-3.29-.1.463.463 0 0 0 .635.672 1.403 1.403 0 0 1 1.98.062c.53.56.505 1.45-.058 1.97-.545.513-1.23.345-2.39.007l-4.47-1.39a4.13 4.13 0 0 1 .237-.242l-.225-.237-.525-.556-1.87-1.98-.003.002c-.03-.03-.056-.064-.085-.095-1.91-2.02-5.12-2.1-7.16-.183l-2.11 1.98-.843.792 3.55 3.76-10.3 9.66-.75.702 11.1 11.8.75-.702 10.3-9.66 3.37 3.57.842-.79 2.11-1.98c2.01-1.89 2.15-5.02.33-7.05zm-8.67-3.15c-.63-.667-1.02-1.42-1.16-2.18l3.27 3.46c-.76-.185-1.49-.613-2.12-1.28zm3.89-3.41l1.06 4.26a4.047 4.047 0 0 1-1.49.507l-4.62-4.88a3.9 3.9 0 0 1 .498-1.3l4.55 1.42zM247 144h25.4a4.94 4.94 0 0 0-.676-.99l.004-.004-2.06-2.18-.55-.584-.2-.21c-.032.032-.067.063-.1.092l-.844-3.38c.896.215 1.78.27 2.52-.43a2.32 2.32 0 0 0 .098-3.28 2.333 2.333 0 0 0-3.29-.098.46.46 0 0 0-.02.652c.176.186.47.195.655.02a1.402 1.402 0 1 1 1.922 2.04c-.546.51-1.23.345-2.4.007l-4.48-1.39c.075-.08.153-.163.237-.24l-.223-.24-.526-.555-1.87-1.98-.002.003c-.03-.03-.055-.063-.084-.094-1.91-2.02-5.12-2.11-7.17-.186l-2.11 1.98-.844.79 3.55 3.76-6.92 6.51zm15.4-8.96l4.55 1.42 1.06 4.26a4.01 4.01 0 0 1-1.49.51l-4.62-4.89c.083-.446.25-.883.5-1.3zm2.77 6.11c-.758-.188-1.48-.615-2.12-1.28-.63-.667-1.02-1.42-1.16-2.18l3.27 3.46zM149 79.2l.002-.003-2.06-2.18-.552-.583-.197-.21c-.033.03-.068.063-.104.092l-.842-3.38c.896.215 1.78.27 2.52-.43.936-.88.977-2.35.098-3.28a2.335 2.335 0 0 0-3.29-.1.46.46 0 1 0 .635.673 1.4 1.4 0 1 1 1.922 2.04c-.544.512-1.23.344-2.39.006l-4.48-1.39c.077-.08.155-.16.24-.24l-.224-.237-.526-.558-1.87-1.98-.002.002c-.03-.03-.057-.065-.085-.096-1.91-2.02-5.12-2.1-7.16-.184l-2.11 1.98-.843.79 3.55 3.76-10.3 9.66-.75.703 11.1 11.8.748-.7 10.3-9.66 3.37 3.57.843-.792 2.11-1.98c2.01-1.89 2.15-5.02.328-7.05zm-8.67-3.15c-.63-.666-1.02-1.42-1.16-2.18l3.27 3.46c-.757-.187-1.49-.613-2.12-1.28zm3.89-3.41l1.06 4.26c-.48.274-.984.444-1.49.508l-4.62-4.89a3.97 3.97 0 0 1 .5-1.3l4.55 1.42zM179 111l.003-.003-2.06-2.18-.55-.584-.2-.21c-.033.032-.068.063-.102.094l-.84-3.38c.894.215 1.78.27 2.52-.43.934-.878.977-2.35.097-3.28a2.334 2.334 0 0 0-3.29-.098.462.462 0 0 0 .636.67 1.402 1.402 0 0 1 1.922 2.04c-.546.513-1.23.346-2.4.007l-4.47-1.39a4.53 4.53 0 0 1 .238-.243l-.224-.238-.525-.555-1.87-1.98-.004.004c-.028-.03-.054-.064-.083-.096-1.91-2.02-5.12-2.1-7.17-.185l-2.11 1.98-.842.79 3.55 3.76-10.3 9.66-.748.703 11.1 11.8.746-.702 10.3-9.66 3.37 3.57.843-.79 2.11-1.98c2.02-1.89 2.15-5.02.33-7.05zm-8.67-3.15c-.63-.666-1.01-1.42-1.16-2.18l3.27 3.46c-.756-.187-1.48-.614-2.12-1.28zm3.9-3.41l1.06 4.26a3.99 3.99 0 0 1-1.49.506l-4.62-4.88c.082-.447.248-.883.5-1.3l4.55 1.42zM184 144h26.5a4.908 4.908 0 0 0-1.01-1.72l.003-.003-2.06-2.18-.552-.583-.197-.21c-.033.03-.067.063-.102.093l-.84-3.38c.894.214 1.78.27 2.52-.43.934-.88.977-2.35.097-3.28a2.334 2.334 0 0 0-3.29-.1.463.463 0 0 0 .634.673 1.402 1.402 0 0 1 1.98.06c.53.558.505 1.45-.058 1.98-.545.51-1.23.344-2.4.006l-4.47-1.39c.076-.082.154-.164.238-.243l-.224-.236-.525-.555-1.87-1.98-.002.003c-.028-.03-.055-.064-.085-.094-1.91-2.03-5.12-2.11-7.16-.185l-2.11 1.98-.842.792 3.55 3.76-7.7 7.23zm16.1-9.69l4.55 1.42 1.06 4.26c-.48.273-.982.445-1.49.507l-4.62-4.88a3.86 3.86 0 0 1 .497-1.3zm2.77 6.11c-.758-.187-1.48-.614-2.12-1.28-.63-.667-1.01-1.42-1.16-2.18l3.27 3.46zM292 99.4a2.018 2.018 0 0 1-2.85-.084l-73-77.5a2.005 2.005 0 0 1 .086-2.84 2.02 2.02 0 0 1 2.85.085l73.2 77.5c.764.808.725 2.08-.085 2.84zM286 106a2.02 2.02 0 0 1-2.85-.084l-73-77.9a2.002 2.002 0 0 1 .085-2.84 2.02 2.02 0 0 1 2.85.085l73.2 77.5c.763.81.725 2.08-.085 2.84zM279 112a2.02 2.02 0 0 1-2.85-.085l-73-77.6a2.002 2.002 0 0 1 .086-2.84 2.02 2.02 0 0 1 2.85.083l73.2 77.5c.76.808.724 2.08-.087 2.84z"/></g><g transform="translate(-110)"><path d="M169 144h138l37-34.8c1.7-1.59 1.78-4.25.182-5.94l-97-103h-61.6l-77.2 72.6a4.185 4.185 0 0 0-.18 5.94l61.9 65.5z" fill="#ededed"/><path d="M247 .055h-23.2l111 118 9.2-8.65c1.7-1.59 1.78-4.25.182-5.94l-97-103z" fill="#444"/><path d="M240 .055h-9.17l101 107c1.26 1.34 3.38 1.4 4.72.143s1.4-3.37.14-4.71l-97-102z" fill="#fff"/><ellipse cx="216" cy="15.5" rx=".046" ry=".069" transform="rotate(-43.3 216.77 15.78)" fill="#fcd22e"/><g fill="#65b4c9"><path d="M177 19.3l28 29.3-31 29.1-27-29.3zM207 50.8l28 29.3-31 28.9-28-29.1zM237 82.5l28 29.5-31 29-28-29zM237 144h57l1-1-28-29-31 29zM145 50.1l27 29.3-31 29.6-27-29.8zM174 81.6l28 29.4-31 29-27-29zM175 144h55l2-1-28-30-31 29z"/></g><path fill="#65b4c9" d="M217 .055h-21L181 14.5 297 138l27-25z"/><g fill="#005e73"><path d="M188 48.4l.002-.003-2.06-2.18-.55-.584-.2-.21c-.033.032-.067.063-.102.093l-.842-3.38c.895.215 1.78.27 2.52-.43a2.32 2.32 0 0 0 .098-3.28 2.336 2.336 0 0 0-3.29-.1.46.46 0 0 0-.02.653c.176.185.47.195.655.02a1.404 1.404 0 0 1 1.98.06c.53.56.505 1.45-.058 1.98-.545.51-1.23.343-2.4.006l-4.47-1.39c.077-.08.155-.163.24-.24l-.226-.238-.524-.556-1.87-1.98-.004.002a2.48 2.48 0 0 1-.084-.095c-1.91-2.02-5.12-2.1-7.17-.185l-2.11 1.98-.842.792 3.55 3.76-10.3 9.66-.748.703 11.1 11.8.747-.704 10.3-9.66 3.38 3.57.844-.79 2.11-1.98c2.02-1.89 2.15-5.02.33-7.05zm-8.67-3.15c-.63-.667-1.01-1.42-1.15-2.18l3.27 3.46c-.76-.188-1.49-.614-2.12-1.28zm3.89-3.41l1.06 4.26c-.48.272-.984.444-1.49.506l-4.62-4.89a3.9 3.9 0 0 1 .498-1.3l4.55 1.42zM218 79.9l.004-.003-2.06-2.18-.55-.582-.198-.21a2.947 2.947 0 0 1-.103.09l-.843-3.38c.896.214 1.78.27 2.52-.43.936-.877.98-2.35.1-3.28a2.333 2.333 0 0 0-3.29-.1.458.458 0 0 0-.02.65c.177.188.47.196.655.022a1.4 1.4 0 0 1 1.92 2.04c-.544.512-1.23.344-2.4.006l-4.48-1.39c.077-.08.156-.162.24-.24l-.224-.237-.524-.557-1.87-1.98-.002.002c-.03-.03-.057-.066-.086-.097-1.91-2.02-5.12-2.1-7.17-.184l-2.11 1.98-.842.792 3.55 3.76-10.3 9.66-.747.702 11.1 11.8.746-.703 10.3-9.66 3.38 3.57.84-.79 2.11-1.98c2.02-1.89 2.15-5.02.33-7.05zm-8.67-3.15c-.63-.667-1.01-1.42-1.16-2.18l3.27 3.46c-.757-.185-1.48-.612-2.12-1.28zm3.9-3.41l1.06 4.26c-.48.274-.983.443-1.49.506l-4.62-4.89c.084-.445.25-.88.5-1.3l4.55 1.42zM248 112l.004-.002-2.06-2.18-.55-.582-.2-.21-.1.092-.844-3.38c.896.215 1.78.27 2.52-.43.935-.876.978-2.35.098-3.28a2.334 2.334 0 0 0-3.29-.1.463.463 0 0 0 .634.672 1.403 1.403 0 0 1 1.98.062c.53.56.505 1.45-.057 1.97-.546.513-1.23.345-2.4.007l-4.47-1.39a4.13 4.13 0 0 1 .237-.242l-.224-.237-.524-.556-1.87-1.98-.002.002c-.03-.03-.057-.064-.086-.095-1.91-2.02-5.12-2.1-7.17-.183l-2.11 1.98-.842.792 3.55 3.76-10.3 9.66-.747.702 11.1 11.8.747-.702 10.3-9.66 3.38 3.57.842-.79 2.11-1.98c2.02-1.89 2.15-5.02.33-7.05zm-8.67-3.15c-.63-.667-1.02-1.42-1.16-2.18l3.27 3.46c-.756-.185-1.48-.613-2.11-1.28zm3.89-3.41l1.06 4.26a4.03 4.03 0 0 1-1.49.507l-4.61-4.88c.083-.446.25-.882.5-1.3l4.55 1.42zM253 144h25.4a5.025 5.025 0 0 0-.676-.99l.002-.004-2.06-2.18-.55-.584-.2-.21c-.033.032-.068.063-.102.092v-3c.895.215 1.78.27 2.52-.43.936-.878.98-2.35.098-3.28a2.333 2.333 0 0 0-3.29-.098.462.462 0 0 0 .635.673 1.402 1.402 0 0 1 1.923 2.038c-.546.51-1.23.345-2.4.007l-4.48-1.39c.076-.08.154-.163.238-.24l-.225-.24-.525-.555-1.87-1.98-.002.003c-.03-.03-.057-.063-.086-.094-1.91-2.02-5.12-2.11-7.16-.186l-2.11 1.98-.842.79 3.55 3.76-6.92 6.51zm15.4-8.96l4.55 1.42 1.06 4.26a4.01 4.01 0 0 1-1.49.51l-4.62-4.89a3.91 3.91 0 0 1 .498-1.3zm2.77 6.11c-.757-.188-1.48-.615-2.12-1.28-.63-.667-1.02-1.42-1.16-2.18l3.27 3.46zM155 79.2l.002-.003-2.06-2.18-.553-.583-.198-.21c-.033.03-.068.063-.102.092l-.842-3.38c.895.215 1.78.27 2.52-.43.936-.88.977-2.35.098-3.28a2.336 2.336 0 0 0-3.29-.1.462.462 0 0 0 .635.673 1.402 1.402 0 0 1 1.92 2.04c-.543.512-1.228.344-2.398.006l-4.47-1.39c.076-.08.154-.16.238-.24l-.225-.237-.525-.558-1.87-1.98-.002.002c-.03-.03-.056-.065-.085-.096-1.91-2.02-5.12-2.1-7.17-.184l-2.11 1.98-.842.79 3.55 3.76-10.3 9.66-.747.703 11.1 11.8.748-.7 10.3-9.66 3.37 3.57.844-.792 2.11-1.98c2.02-1.89 2.15-5.02.33-7.05zm-8.67-3.15c-.63-.666-1.02-1.42-1.16-2.18l3.27 3.46c-.758-.187-1.48-.613-2.12-1.28zm3.9-3.41l1.06 4.26a4.03 4.03 0 0 1-1.49.508l-4.62-4.89c.083-.446.25-.882.498-1.3l4.55 1.42zM185 111l.003-.003-2.06-2.18-.552-.584-.196-.21c-.033.032-.068.063-.102.094l-.843-3.38c.895.215 1.78.27 2.52-.43a2.32 2.32 0 0 0 .097-3.28 2.334 2.334 0 0 0-3.29-.098.46.46 0 0 0-.02.65c.175.186.47.195.656.02a1.402 1.402 0 1 1 1.922 2.04c-.545.513-1.23.346-2.4.007l-4.48-1.39a4.53 4.53 0 0 1 .238-.243l-.223-.238-.525-.555-1.87-1.98-.004.004c-.028-.03-.054-.064-.085-.096-1.91-2.02-5.12-2.1-7.16-.185l-2.11 1.98-.843.79 3.55 3.76-10.3 9.66-.747.703 11.1 11.8.748-.702 10.3-9.66 3.37 3.57.843-.79 2.11-1.98c2.02-1.89 2.15-5.02.328-7.05zm-8.67-3.15c-.63-.666-1.02-1.42-1.16-2.18l3.27 3.46c-.757-.187-1.48-.614-2.12-1.28zm3.9-3.41l1.06 4.26c-.48.272-.984.445-1.49.506l-4.62-4.88c.084-.447.25-.883.5-1.3l4.55 1.42zM190 144h26.5a4.878 4.878 0 0 0-1.01-1.72l.003-.003-2.06-2.18-.55-.583-.198-.21-.102.093-.844-3.38c.895.214 1.78.27 2.52-.43a2.32 2.32 0 0 0 .097-3.28 2.334 2.334 0 0 0-3.29-.1.46.46 0 0 0-.02.653c.175.186.468.195.655.02a1.4 1.4 0 1 1 1.92 2.04c-.543.51-1.23.344-2.39.006l-4.48-1.39c.077-.082.155-.164.24-.243l-.225-.236-.525-.555-1.87-1.98-.002.003c-.03-.03-.055-.064-.086-.094-1.91-2.03-5.12-2.11-7.16-.185l-2.11 1.98-.843.792 3.55 3.76-7.7 7.23zm16.1-9.69l4.55 1.42 1.06 4.26a4.017 4.017 0 0 1-1.49.507l-4.62-4.88c.083-.447.25-.883.5-1.3zm2.77 6.11c-.76-.187-1.49-.614-2.12-1.28-.63-.667-1.02-1.42-1.16-2.18l3.27 3.46z"/></g><g fill="#fff"><path d="M298 99.4c-.81.764-2.08.724-2.85-.084l-73-77.5a2.003 2.003 0 0 1 .086-2.84 2.02 2.02 0 0 1 2.85.085l73.2 77.5c.762.808.724 2.08-.086 2.84zM292 106a2.02 2.02 0 0 1-2.85-.084l-73-77.9a2.002 2.002 0 0 1 .084-2.84 2.02 2.02 0 0 1 2.85.085l73.2 77.5c.762.81.724 2.08-.087 2.84zM285 112a2.02 2.02 0 0 1-2.85-.085l-73-77.6a2 2 0 0 1 .085-2.84 2.02 2.02 0 0 1 2.85.083l73.2 77.5c.764.808.725 2.08-.084 2.84z"/></g></g><path opacity=".3" d="M-19 59.145a4.06 4.06 0 0 0-1.78 5.48l32.6 63.6c.004.01.006.018.012.025l5.6 10.9s.002 0 .002.002l1.86 3.62c.387.754.823 1.46 1.29 2.15h63.6l-6.23-12.2c3.9-5.92 4.6-13.7 1.14-20.4l-1.85-3.61-.002-.007-5-10.3-33-64.4c-1.03-2-3.49-2.8-5.49-1.77l-6.61 3.37-13.4-26.2-.5.256-5.15-2.68-.845 5.74-.645.33-5.16-2.68L.6 16.11l-.644.328-5.16-2.68-.842 5.74-.643.327-5.16-2.68-.843 5.74-.645.33-5.16-2.68-.838 5.74-.645.327-5.16-2.68-.84 5.74-.322.165 13.4 26.2-5.84 2.98z"/><path d="M28 144.845h50.3l-25.1-49a1.58 1.58 0 0 0-2.12-.686l-37.1 18.9a1.576 1.576 0 0 0-.688 2.12l14.7 28.7z" fill="#00aa59"/><path opacity=".7" d="M50 144.845l-20-39-11 6 17 33z"/><path opacity=".3" d="M28 144.845h32.5l5.1-2.6c3.26-1.66 5.87-4.09 7.75-6.94l-20-37.8a1.573 1.573 0 0 0-2.12-.682l-21.1 10.7-11.1 5.66-4.87 2.48a1.57 1.57 0 0 0-.688 2.11l14.1 27.5z"/><path d="M70 104.845c1.02 2 .23 4.45-1.78 5.48l-52.5 26.7c-2.01 1.02-4.47.23-5.49-1.77l-37-71.2c-1.03-2-.23-4.45 1.78-5.48l52.5-26.7c2-1.02 4.47-.23 5.49 1.77l36.7 71.7z" fill="#323c3f"/><path d="M13 141.845c.58 1.13 1.26 2.18 2.01 3.15h36.6l12.2-6.22c10-5.11 14-17.4 8.89-27.4l-6-11.5c-5-10-17-13.9-27-8.8l-23.4 11.9c-10 5.11-14 17.4-8.88 27.4l5.6 10.9z"/><path d="M11 137.845c1.4 2.74 3.35 5 5.63 6.77h25.9l19.3-9.85c10-5.11 14-17.4 8.89-27.4l-6-11.1c-5-10-17-14-27-8.9l-23.4 11.9c-10 5.11-14 17.4-8.89 27.4l5.6 10.9z" fill="#323c3f"/><path d="M47 78.645c.34.668.118 1.46-.493 1.78l-43.5 22.2c-.613.313-1.39.025-1.73-.643l-14.5-28.4c-.34-.667-.12-1.46.494-1.78l43.5-22.2c.613-.312 1.39-.024 1.73.643l14.5 28.4z" fill="#ededed"/><path d="M61 109.845c.953 1.86-.426 4.47-3.08 5.83-2.66 1.35-5.59.94-6.54-.923-.955-1.86.426-4.47 3.08-5.83 2.66-1.36 5.58-.94 6.54.922zM45 118.845c.955 1.86-.424 4.47-3.08 5.83-2.66 1.35-5.58.94-6.54-.92-.954-1.86.427-4.47 3.08-5.83 2.66-1.35 5.59-.94 6.54.92zM30 126.845c.955 1.86-.426 4.47-3.08 5.83-2.66 1.35-5.59.938-6.54-.922-.956-1.86.425-4.47 3.08-5.82 2.66-1.36 5.59-.945 6.54.918z" fill="#fff"/><path d="M67 119.845c.955 1.86-.426 4.47-3.08 5.82-2.66 1.35-5.59.94-6.54-.922-.956-1.87.424-4.48 3.08-5.83s5.58-.94 6.54.927z" fill="#27c66d"/><path d="M51 128.845c.953 1.86-.426 4.47-3.08 5.82-2.66 1.36-5.58.943-6.54-.92-.955-1.86.426-4.47 3.08-5.83 2.66-1.36 5.59-.942 6.54.92z" fill="#f2cf49"/><path d="M35 136.845c.955 1.86-.426 4.47-3.08 5.83-2.66 1.35-5.59.94-6.54-.922-.955-1.86.426-4.47 3.08-5.83 2.66-1.35 5.59-.94 6.54.922z" fill="#f83c3a"/><path d="M56 99.545c.956 1.87-.425 4.47-3.08 5.83-2.66 1.35-5.58.94-6.54-.925-.953-1.86.43-4.47 3.09-5.82s5.58-.94 6.54.922zM40 107.845c.953 1.86-.426 4.47-3.08 5.83-2.66 1.35-5.59.942-6.54-.926-.956-1.86.425-4.47 3.08-5.82s5.59-.944 6.54.923zM24 115.845c.956 1.87-.425 4.48-3.08 5.83-2.66 1.36-5.59.944-6.54-.92-.955-1.86.426-4.47 3.08-5.83 2.66-1.36 5.58-.942 6.54.92zM51 89.345c.955 1.86-.424 4.47-3.08 5.83-2.66 1.35-5.59.94-6.54-.924-.955-1.86.424-4.47 3.08-5.82 2.66-1.36 5.59-.94 6.54.922zM35 97.445c.954 1.87-.426 4.48-3.08 5.83-2.66 1.35-5.58.943-6.54-.923-.954-1.86.426-4.47 3.08-5.82 2.66-1.36 5.59-.943 6.54.918zM19 105.845c.956 1.86-.427 4.47-3.08 5.83-2.66 1.35-5.59.94-6.54-.923-.955-1.86.426-4.47 3.08-5.83 2.66-1.35 5.59-.94 6.54.922z" fill="#fff"/><path d="M29 39.645c1.16 2.26.256 5.03-2.01 6.19l-40.8 20.8c-2 1.1-5 .2-6-2.1a4.58 4.58 0 0 1 2.01-6.18l40.8-20.8c2.26-1.15 5.05-.26 6.2 2z" fill="#575756"/><path fill="#ffe4c0" d="M7 8.555l-40 20.39 20 37.6 40-20.4z"/><path opacity=".05" d="M-13 66.545l40-20.4L7 8.555z"/><path opacity=".2" d="M25 43.345l-40 20.4 2 2.8 40-20.4z"/><g fill="#ffe4c0"><path d="M-32 23.045l6 3-7 3.4zM-25 19.645l6 3-7 3.4zM-18 16.245l5 3-6 3.4zM-12 12.845l6 3-7 3.4zM-5 9.505l6 2.94-7 3.4zM2 6.125l5 2.97-6 3.35z"/></g><path d="M15 34.645c.352.685.078 1.52-.603 1.86l-28.7 14.6c-.68.347-1.52.08-1.87-.604a1.392 1.392 0 0 1 .605-1.87l29-14.6a1.397 1.397 0 0 1 1.87.607zM12 28.945c.35.682.08 1.52-.6 1.87l-28.7 14.6c-.682.347-1.52.078-1.87-.607-.352-.68-.078-1.52.603-1.86l28.7-14.6a1.397 1.397 0 0 1 1.87.608zM9 23.345c.35.68.078 1.52-.604 1.86l-28.7 14.6a1.392 1.392 0 0 1-1.87-.604 1.392 1.392 0 0 1 .604-1.87l28.7-14.6a1.395 1.395 0 0 1 1.87.61zM6 17.745c.352.682.08 1.52-.602 1.86l-28.7 14.6a1.395 1.395 0 0 1-1.87-.607 1.382 1.382 0 0 1 .606-1.86l28.7-14.6c.68-.35 1.52-.078 1.87.605z" opacity=".4"/><path d="M40 72.745c.447.87.102 1.94-.768 2.38l-36.5 18.6a1.77 1.77 0 1 1-1.61-3.153l36.5-18.6a1.774 1.774 0 0 1 2.38.77zM36 65.545c.445.867.098 1.93-.77 2.38l-36 18.6c-.867.44-1.94.095-2.38-.773a1.765 1.765 0 0 1 .767-2.38l36.5-18.6a1.77 1.77 0 0 1 2.38.774zM33 58.345a1.77 1.77 0 0 1-.77 2.38l-37 18.6a1.77 1.77 0 0 1-1.612-3.15l36.5-18.6a1.77 1.77 0 0 1 2.38.77z" opacity=".2"/></g></svg>