<svg xmlns="http://www.w3.org/2000/svg" xmlns:xlink="http://www.w3.org/1999/xlink" width="275.892" height="301.021" viewBox="0 0 275.892 301.021"><ellipse opacity=".06" cx="156.05" cy="275.041" rx="114.062" ry="25.979"/><path fill="#72AF2D" d="M90.648 84.377l-46.906 21.97c-15.236 7.134-23.52 21.12-18.583 31.663l18.55 24.805 8.532 13.988c.48 1.02 18.212 34.8 19.98 37.744.1.75 24.79 46.893 24.972 47.506 9.948 33.932-6.986-28.3-.714-41.497 6.276-13.198 19.41-3.427 31.628-7.572 12.22-4.146 16.35-5.24 25.22-12.548 8.864-7.31 14.71-2.625 3.274-24.856-.1-.195-.213-.373-.324-.56.016-.008.034-.016.05-.028-.188-.873-15.83-38.4-16.262-39.32l-5.935-14.787-7.34-30.474c-4.936-10.542-20.9-13.173-36.142-6.033z"/><path fill="#009995" d="M110.826 80.7a2.44 2.44 0 0 0-2.766 2.072l-5.193 36.316a2.444 2.444 0 0 0 2.076 2.768l51.443 7.354a2.444 2.444 0 0 0 2.768-2.07l5.194-36.314a2.454 2.454 0 0 0-2.08-2.77L110.827 80.7z"/><path fill="#72AF2D" d="M27.65 119.655a2.44 2.44 0 0 1 3.36-.797l31.224 19.26a2.444 2.444 0 0 1 .8 3.366l-27.287 44.23a2.445 2.445 0 0 1-3.363.798L1.162 167.256a2.453 2.453 0 0 1-.797-3.37l27.285-44.23z"/><path opacity=".1" fill="#010100" d="M134.45 126.82s7.17 23.63 9.767 28.855c2.592 5.224 8.55 20.36 8.77 24.463.226 4.103.66 4.895 3.39 7.235 2.732 2.346 1.12-4.29 1.81.368.69 4.656 1.28-5.27 1.28-5.27s-8.22-19.162-11.212-27.196c-3.505-9.41-11.935-28.932-11.935-28.932l-1.87.477z"/><path fill="#FDDBA4" d="M86.29 49.857a2.732 2.732 0 0 1-1.648 3.508l-.3.107a2.74 2.74 0 0 1-3.51-1.653l-4.04-11.232a2.743 2.743 0 0 1 1.66-3.503l.306-.112a2.74 2.74 0 0 1 3.506 1.652l4.027 11.232zM18.463 81.624a2.733 2.733 0 0 0 3.752.98l.276-.166a2.74 2.74 0 0 0 .977-3.752l-6.044-10.292a2.742 2.742 0 0 0-3.754-.97l-.28.163a2.74 2.74 0 0 0-.974 3.75l6.047 10.287z"/><path opacity=".2" fill="#14120E" d="M82.486 80.52l-38.21 17.895 2.65 5.66c9.01 3.32 17.274 2.166 23.23-.623 5.81-2.722 11.827-8.082 15.142-16.93l-2.812-6z"/><defs><path id="a" d="M69.354 92.26l-7.64 3.58L61 94.31l7.64-3.578z"/></defs><clipPath id="b"><use xlink:href="#a" overflow="visible"/></clipPath><path clip-path="url(#b)" fill="#14120E" d="M69.38 91.56c.125.266-1.55 1.31-3.74 2.34-2.19 1.024-4.063 1.64-4.188 1.372s1.547-1.31 3.737-2.336c2.19-1.028 4.064-1.645 4.19-1.377"/><path fill="#FDDBA4" d="M29.135 16.473a7.13 7.13 0 0 0-.36.182c-.12.05-.246.103-.366.16C10.77 25.072 5.493 51.03 16.624 74.802c8.1 12.36 19.532 25.896 25.482 28.05 9.074 3.284 20.556 1.954 25.485-2.06.095-.016.146-.025.156-.004l.026.052c-.006-.01-.047 0-.015-.028.047-.01.008.02.014.028l-.026-.053c-.01-.022.388-.222.456-.284 6.243-1.218 14.852-9.3 18.136-18.37 2.154-5.95-.866-23.423-5.175-37.562-11.13-23.77-34.395-36.36-52.03-28.1z"/><path fill="#FF8080" d="M45.25 77.18a8.2 8.2 0 0 1-3.943 10.903A8.2 8.2 0 0 1 34.35 73.23a8.197 8.197 0 0 1 10.9 3.95zM79.503 61.137a8.2 8.2 0 0 1-3.948 10.906c-4.1 1.92-8.98.15-10.902-3.952-1.92-4.1-.152-8.98 3.945-10.898 4.105-1.92 8.986-.155 10.905 3.945z"/><path fill="#FFF" d="M70.72 47.813c.757 1.62-1.993 4.513-6.15 6.46-4.158 1.948-8.15 2.21-8.907.593-.758-1.617 2-4.51 6.16-6.456 4.156-1.947 8.14-2.213 8.897-.597M39.725 62.33c.76 1.618-1.994 4.514-6.152 6.46-4.152 1.946-8.146 2.21-8.906.592-.756-1.617 2.006-4.51 6.16-6.456 4.157-1.947 8.14-2.213 8.898-.596"/><path opacity=".2" fill="#14120E" d="M59.795 71.86c.912 1.947-.036 4.323-2.117 5.298l-.102.048c-2.08.973-4.512.182-5.424-1.767l-7.424-15.855c-.914-1.95.033-4.324 2.115-5.3l.1-.048c2.082-.975 4.512-.183 5.426 1.77l7.425 15.852z"/><path fill="#FFF" d="M32.963 64.605a.61.61 0 0 1-.294.81.607.607 0 0 1-.814-.29.605.605 0 0 1 .297-.812.608.608 0 0 1 .81.292"/><path fill="#422902" d="M65.164 50.405a2.36 2.36 0 0 1-1.13 3.133 2.358 2.358 0 1 1-2-4.27 2.36 2.36 0 0 1 3.13 1.137"/><path fill="#FFF" d="M62.44 50.652a.71.71 0 1 1-1.288.603.71.71 0 1 1 1.29-.603"/><path fill="#422902" d="M34.323 64.85a2.358 2.358 0 0 1-1.13 3.132 2.357 2.357 0 1 1-2-4.27 2.356 2.356 0 0 1 3.13 1.138"/><path fill="#FFF" d="M31.604 65.095a.717.717 0 0 1-.347.947.713.713 0 1 1-.605-1.29.72.72 0 0 1 .952.343"/><path fill="#422902" d="M36.272 54.966c.4.914-.134 2.033-1.196 2.496L23.07 62.73c-1.06.462-2.242.097-2.645-.824-.403-.915.13-2.04 1.187-2.502l12.01-5.264c1.062-.466 2.247-.094 2.65.826zM69.55 39.38c.4.914-.136 2.035-1.194 2.496L56.35 47.143c-1.06.463-2.245.1-2.65-.823-.4-.916.135-2.036 1.19-2.5l12.006-5.264c1.063-.466 2.252-.096 2.655.824z"/><path opacity=".2" fill="#14120E" d="M69.09 91.177c.227.486-1.324 1.694-3.46 2.695-2.14 1-4.058 1.418-4.285.933-.23-.488 1.32-1.693 3.46-2.694 2.134-1 4.056-1.42 4.284-.933z"/><path opacity=".1" fill="#010000" d="M18.295 71.44c-4.346-6.16-5.11-24.5-4.852-26.024 4.83-.09 12.996-3.368 13.788-5.14 4.272.798 14.83 2.53 23.31-9.516 3.634-5.43 8.352-7.484 9.212-7.73.855-.25 13.957 12.257 18.363 21.66 1.35.37 2.42 1.132 2.42 1.132S68.82 13.544 64.255 12.108c-4.57-1.432-11.768-3.547-18.894-3.16-7.125.387-11.032-2.755-11.57-3.903.945 3.752 2.226 5.79 2.673 6.05-6.41-1.197-11.64-4.63-12.895-7.702-4.137 1.852-9.88 12.467-10.527 15.254-2.647.93-10.75 16.226-11.043 21.49-.297 5.26 13.79 32.22 15.765 33.656-.088-.794.08-1.765.533-2.352z"/><path fill="#77513B" d="M17.592 70.478c-4.487-6.46-5.578-25.497-5.343-27.067 4.866-.012 13.04-3.27 13.81-5.095 4.32.902 14.99 2.885 23.334-9.464 3.565-5.566 8.288-7.616 9.15-7.857.858-.24 14.286 12.953 18.89 22.784 1.367.408 2.458 1.212 2.458 1.212S67.522 11.312 62.894 9.745C58.264 8.186 50.97 5.863 43.79 6.14c-7.177.273-11.17-3.05-11.73-4.247 1.018 3.906 2.346 6.043 2.8 6.32C28.378 6.86 23.046 3.208 21.728 0 17.59 1.85 11.982 12.755 11.38 15.636 8.723 16.556.82 32.276.62 37.73c-.212 5.454 14.457 33.66 16.476 35.18-.102-.827.05-1.83.496-2.432z"/><path opacity=".2" fill="#010000" d="M33.865 103.253c5.357 11.443 30.598 11.9 39.46 7.75l.255-.12c9.114-4.27 24.495-25.23 19.136-36.67L86.89 61.774c-2.003-8.663-8.308 10.875-24.15 18.293l-2.29 1.074c-17.773 8.323-36.94-.43-33.544 7.555l6.96 14.556z"/><path fill="#77513B" d="M32.9 101.194c5.36 11.443 30.777 12.277 39.637 8.126l.254-.118c9.116-4.27 24.144-25.986 18.784-37.43L85.75 59.34c-2.005-8.663-7.955 11.628-23.8 19.047l-2.288 1.072c-17.774 8.323-37.03-.618-33.633 7.368l6.87 14.366z"/><path fill="#FFF" d="M72.082 75.593c1.843 3.936-2.205 9.734-9.047 12.938-6.838 3.202-13.884 2.602-15.728-1.333-1.843-3.94 5.33-3.062 12.17-6.265s10.76-9.276 12.605-5.34"/><g fill="#63402E"><path d="M82.528 52.248s-3.59 18.485-23 19.56c-7.224 3.385-3.022 10.016 2.6 8.38C71.637 77.426 89.846 67.52 82.835 52.9"/><path d="M22.712 80.264s16.5 9.076 29.75-5.146c7.228-3.385 9.628 4.09 4.777 7.362-8.212 5.535-27.48 13.18-34.225-1.563"/></g><path fill="#FF8080" d="M58.994 70.153a4.162 4.162 0 0 1-2.004 5.534l-.102.05a4.167 4.167 0 0 1-5.536-2.005l-7.92-16.916a4.162 4.162 0 0 1 2.003-5.536l.1-.047a4.164 4.164 0 0 1 5.537 2.004l7.922 16.916z"/><path opacity=".3" fill-rule="evenodd" clip-rule="evenodd" d="M53.514 46.272a92.607 92.607 0 0 1-4.384 3.763c-2.626 2.104-3.322 2.432-6.622 3.102a90.777 90.777 0 0 1-5.7.96c-6.25.87-17.204 5.904-24.86 11.937l2.047 3.738s1.342-1.31 4.512 3.373c3.176 4.68 7.21 11.41 18.93 6.122 11.72-5.3 9.162-17.027 9.09-18.85-.074-1.832-.438-3.03.135-3.69.73-.838 1.46-1.18 2.572-1.205.873-.016 1.557 1.032 2.915 2.26 1.355 1.224 8.73 10.694 20.3 5.084 11.567-5.615 8.98-13.022 7.413-18.456-1.564-5.434.304-5.628.304-5.628l-1.563-3.966c-9.53 2.016-20.42 7.21-25.09 11.456zm-9.297 17.576c1.033 8.38-3.576 12.45-7.928 14.31-4.167 1.78-7.71 1.963-11.51-.755-2.764-1.975-5.263-5.156-5.635-8.963-.272-2.773 1.5-5 3.632-6.642 3.226-2.48 9.98-5.48 14.064-5.495 3.317-.02 6.64 1.554 7.377 7.545zM79.123 51.95c-.35 4.66-2.756 7.27-6.795 9.33-4.21 2.148-10.287 3.084-16.065-3.073-4.127-4.402-3.21-7.962-1.073-10.496 2.632-3.13 9.254-6.396 13.223-7.284 2.63-.592 5.47-.525 7.43 1.458 2.684 2.724 3.532 6.68 3.28 10.067z"/><g><path fill="#EDEDED" d="M17.41 63.734c.192.386-.584 1.16-1.734 1.73-1.153.572-2.244.724-2.435.337-.188-.39.59-1.163 1.74-1.73 1.155-.572 2.24-.718 2.43-.336M77.828 35.44c.19.382-.587 1.158-1.735 1.73-1.153.57-2.242.72-2.433.333-.194-.39.588-1.162 1.738-1.73 1.153-.57 2.24-.72 2.43-.333"/><path fill-rule="evenodd" clip-rule="evenodd" fill="#065D72" d="M11.278 64.606l2.048 3.735s1.34-1.307 4.51 3.374c3.176 4.682 7.21 11.408 18.93 6.12 11.717-5.297 9.16-17.024 9.09-18.85-.072-1.828-.437-3.026.137-3.685.727-.84 1.46-1.186 2.57-1.208.874-.018 1.558 1.03 2.915 2.257 1.356 1.225 8.73 10.695 20.302 5.086 11.565-5.618 8.98-13.023 7.413-18.458-1.565-5.433.304-5.627.304-5.627l-1.562-3.963c-9.53 2.012-20.417 7.21-25.09 11.453a91.75 91.75 0 0 1-4.385 3.764c-2.625 2.106-3.32 2.433-6.62 3.102a92.167 92.167 0 0 1-5.7.96c-6.25.872-17.208 5.903-24.862 11.94m10.83-4.24c-2.134 1.646-3.905 3.867-3.632 6.643.37 3.804 2.87 6.99 5.632 8.964 3.8 2.716 7.346 2.536 11.512.755 4.35-1.86 8.96-5.93 7.927-14.31-.736-5.992-4.06-7.564-7.376-7.547-4.082.017-10.836 3.016-14.063 5.494m45.635-21.373c2.633-.59 5.47-.522 7.432 1.46 2.684 2.724 3.53 6.682 3.277 10.066-.347 4.66-2.753 7.267-6.79 9.33-4.21 2.15-10.29 3.085-16.066-3.075-4.127-4.4-3.212-7.96-1.075-10.498 2.63-3.126 9.255-6.392 13.222-7.283m7.698-2.98c-.952.388-1.614.94-1.48 1.228.136.288 1.018.205 1.97-.183.956-.392 1.617-.94 1.484-1.227-.137-.29-1.018-.207-1.974.18M14.892 64.37c.907-.48 1.757-.638 1.892-.352.136.29-.493.916-1.402 1.397-.91.485-1.758.643-1.893.354-.137-.288.49-.912 1.402-1.4"/></g><path fill="#009995" d="M162.057 93.148l1.742 1.52-4.088 28.564-3.572-3.1-8.946-19.294s1.982-10.72 3.113-11.065c1.128-.342 11.75 3.375 11.75 3.375z"/><path opacity=".4" fill="#9B9B9B" d="M109.13 156.627c.344.327.454 4.74 3.804 6.562-4.036-.992-6-2.08-6.448-3.854-.446-1.772.026 3.306.808 4.493-2.07-1.96-3.982-2.61-3.747-4.642.232-2.03-1.97 3.026-1.126 4.08-1.924-3.043-3.452-3.27-2.097-5.264 1.357-1.994 8.806-1.377 8.806-1.377z"/><path fill="#F2F2F2" d="M82.96 45.025l29-8.66v253.29l-29-12.99z"/><path fill="#F3F3F3" d="M253.96 57.473l-142-21.108v253.29l142-22.73z"/><path fill="#D20033" d="M97.462 51.56c-.714 0-1.41.102-2.08.29v11.83c0 1.45.937 2.632 2.087 2.632 1.148 0 2.085-1.183 2.085-2.633 0-1.39-.863-2.535-1.95-2.624v-2.108c2.01.093 3.62 2.182 3.62 4.73 0 2.61-1.688 4.74-3.756 4.74-2.073 0-3.76-2.13-3.76-4.74V52.52c-.237.13-.47.27-.698.42v10.74c.003 3.095 2.003 5.617 4.457 5.617 2.45 0 4.452-2.522 4.452-5.616 0-3.033-1.926-5.518-4.316-5.61v-2.107c3.31.093 5.984 3.524 5.984 7.717 0 4.253-2.75 7.72-6.12 7.72-3.374 0-6.126-3.467-6.126-7.72v-9.343c-2.13 2.22-3.487 5.578-3.487 9.334 0 6.69 4.3 12.112 9.605 12.112 5.308 0 9.606-5.42 9.606-12.11 0-6.69-4.298-12.11-9.606-12.11z"/><path fill="#F2A12A" d="M110.82 282.618l-27.86-11.906v5.953l27.86 12.99 143.14-22.73v-4.872z"/><path fill="#D6D6D6" d="M169.96 68.776v-6.712l84 9.756v96.06l-88.134 3.24s36.893-47.812 36.474-46.554c-.42 1.26-8.83-38.593-8.83-38.593l-23.51-17.197z"/><path fill="#D20033" d="M165.783 62.627c-3.41 0-6.73.457-9.925 1.293v52.99c0 6.497 4.468 11.792 9.95 11.792 5.48 0 9.95-5.295 9.95-11.792 0-6.225-4.114-11.35-9.29-11.756v-9.442c9.56.415 17.25 9.778 17.25 21.198 0 11.688-8.048 21.22-17.91 21.22-9.87 0-17.912-9.532-17.912-21.22V66.922c-1.133.57-2.236 1.2-3.32 1.876v48.112c.002 13.855 9.543 25.15 21.232 25.15 11.693 0 21.23-11.295 21.23-25.15 0-13.582-9.18-24.71-20.57-25.13v-9.435c15.775.424 28.526 15.785 28.526 34.564 0 19.048-13.11 34.58-29.187 34.58-16.078 0-29.192-15.532-29.192-34.58V75.053c-10.155 9.948-16.625 24.99-16.625 41.817 0 29.963 20.5 54.25 45.792 54.25 25.295 0 45.795-24.287 45.795-54.25 0-29.958-20.5-54.243-45.794-54.243z"/><path fill="#E5E5E5" d="M243.96 254.205c0 1.645-1.248 3.15-2.892 3.368L123.78 273.025c-1.645.217-2.82-.94-2.82-2.584v-.54c0-1.646 1.22-3.152 2.863-3.37l117.3-15.45c1.646-.218 2.836.938 2.836 2.583v.542z"/><path fill="#F6C544" d="M83.392 245.816s22.19 5.953 27.603 3.247 63.863.54 112.572-71.44c-71.982 24.355-112.572-2.706-112.572-2.706s-27.603 2.164-27.603-4.33"/><path opacity=".1" d="M82.96 45.025l29-8.66v253.29l-29-12.99z"/><path opacity=".1" d="M128.3 166.337a3.57 3.57 0 0 0-4.644-1.97l-19.02 7.68-2.605-2.078c-1.08-.86-2.953-.312-4.18 1.228-.02.028-.037.06-.06.088l-6.052 6.02c-2.583 1.273-4.384 3.18-5.43 5.463-10.25 5.436-18.563 8.763-25.313 10.663l10.072 19.135c7.008-2.28 14.542-5.473 22.646-9.628 2.604 1.282 5.606 1.56 8.768.5.015.012.024.02.04.03l.73-.295.023-.008 1.867-.754.023-.01 11.455-4.624a3.57 3.57 0 0 0 1.97-4.644c-.736-1.825-3.374-2.706-5.202-1.97l-.64.03 2.335-.716c1.83-.74 2.99-2.817 2.257-4.642-.64-1.578-2.14-2.45-3.75-2.18 1.348-.926 1.99-2.688 1.355-4.268a3.53 3.53 0 0 0-3.867-2.18l-.06-.06 15.3-6.173a3.57 3.57 0 0 0 1.984-4.64z"/><path opacity=".1" d="M82.96 45.025l13.8 238.135-13.8-6.495z"/><path fill="#CCC" d="M253.96 210.178l-30.35 3.166s-15.135 23.543-28.124 33.284c35.346-5.156 58.473-8.93 58.473-8.93v-27.52z"/><path opacity=".3" fill="#FFF" d="M253.96 57.473L141.135 40.81l70.506 232.842 42.317-6.728z"/><g><path fill="#FCD22E" d="M241.912 41.754c-4.754 12.527-14.337 22.658-26.46 28.15a50.718 50.718 0 0 1 26.46 28.15c4.76-12.523 14.334-22.67 26.47-28.15a50.738 50.738 0 0 1-26.47-28.15z"/><path fill="#FD7600" d="M241.912 55.724c-2.39 6.305-7.216 11.402-13.344 14.18a25.464 25.464 0 0 1 13.344 14.178 25.488 25.488 0 0 1 13.325-14.177c-6.112-2.78-10.933-7.877-13.325-14.18z"/><path fill="#FCD22E" d="M262.96 21.785a24.83 24.83 0 0 1-12.933 13.767 24.788 24.788 0 0 1 12.934 13.76 24.743 24.743 0 0 1 12.932-13.76 24.79 24.79 0 0 1-12.93-13.767z"/><path fill="#FD7600" d="M262.96 28.61a12.524 12.524 0 0 1-6.523 6.94 12.436 12.436 0 0 1 6.524 6.93 12.405 12.405 0 0 1 6.51-6.93 12.49 12.49 0 0 1-6.51-6.94z"/><g><path fill="#FCD22E" d="M217.984 13.796a35.778 35.778 0 0 1-18.667 19.86c8.55 3.875 15.315 11.024 18.667 19.865a35.782 35.782 0 0 1 18.674-19.864 35.767 35.767 0 0 1-18.674-19.86z"/><path fill="#FD7600" d="M217.984 23.658c-1.686 4.443-5.096 8.04-9.413 9.998a17.962 17.962 0 0 1 9.414 10 17.963 17.963 0 0 1 9.402-10 18.038 18.038 0 0 1-9.402-9.998z"/></g></g><g><g opacity=".2" fill="#484747"><path d="M257.822 112.96c-.023-1.8-1.334-3.314-2.928-3.385l-13.285-.654c-1.593-.064-2.868 1.35-2.84 3.15.02 1.813 1.334 3.324 2.927 3.388l13.285.655c1.594.067 2.864-1.344 2.84-3.154zM259.816 120.448c-.025-1.804-1.334-3.32-2.93-3.387l-18.29-.787c-1.592-.065-2.87 1.346-2.843 3.148.025 1.812 1.332 3.324 2.926 3.393l18.292.788c1.592.067 2.865-1.342 2.844-3.152zM258.63 128.12c-.02-1.802-1.332-3.317-2.927-3.385l-15.848-.724c-1.594-.068-2.865 1.35-2.842 3.148.023 1.81 1.336 3.323 2.93 3.387l15.846.727c1.594.065 2.863-1.345 2.84-3.15zM256.172 135.29c-.022-1.59-1.182-2.93-2.588-2.99l-10.1-.532c-1.404-.062-2.534 1.188-2.512 2.784.02 1.6 1.18 2.935 2.586 2.993l10.098.536c1.41.055 2.533-1.186 2.516-2.79z"/></g><path fill="#FDDBA4" d="M255.912 115.905c1.594.064 2.866-1.348 2.844-3.156-.022-1.8-1.333-3.314-2.928-3.384l-13.285-.65c-1.593-.07-2.87 1.344-2.844 3.147.023 1.81 1.335 3.32 2.93 3.386l13.282.655z"/><path opacity=".4" fill="#B29076" d="M242.705 114.257c1.135.047 1.453-.985 1.437-2.27-.017-1.29-.358-2.346-1.496-2.39-1.136-.05-2.043.957-2.024 2.242.016 1.29.952 2.37 2.083 2.417zM250.377 114.584c.107.012.19-.086.19-.21l-.053-4.14c-.005-.12-.09-.226-.198-.23-.11-.003-.2.096-.19.217l.05 4.143c.002.118.094.22.2.22zM251.234 114.622c.107.007.195-.088.195-.213l-.056-4.136c-.003-.126-.097-.233-.2-.235-.105-.006-.192.093-.195.217l.057 4.135c0 .125.09.228.197.23zM252.22 114.607c.11.002.198-.094.194-.216l-.053-4.137c-.002-.127-.09-.227-.2-.227-.105-.01-.19.09-.192.212l.06 4.137c-.004.12.086.224.193.232z"/><path fill="#FDDBA4" d="M257.906 123.392c1.594.063 2.86-1.343 2.84-3.153-.022-1.804-1.33-3.32-2.926-3.386l-18.29-.79c-1.595-.065-2.87 1.347-2.845 3.15.023 1.81 1.335 3.32 2.928 3.39l18.293.788z"/><path opacity=".4" fill="#B29076" d="M239.69 121.61c1.138.04 1.452-.986 1.435-2.275-.018-1.284-.357-2.345-1.497-2.386-1.134-.05-2.042.958-2.023 2.243.016 1.29.954 2.368 2.084 2.417zM247.36 121.938c.11.012.193-.09.19-.212l-.056-4.14c0-.118-.09-.226-.194-.23-.11-.004-.195.095-.195.217l.057 4.138c0 .125.088.227.2.228z"/><path fill="#DFB471" d="M248.22 121.977c.108.002.19-.093.194-.216l-.055-4.132c-.005-.125-.095-.234-.202-.235-.105-.006-.193.093-.193.215l.057 4.135c0 .124.09.23.198.234z"/><path opacity=".4" fill="#B29076" d="M249.205 121.96c.11.002.195-.097.195-.214l-.053-4.14c-.003-.126-.094-.226-.203-.228-.105-.01-.19.09-.19.21l.057 4.135c.004.124.088.227.195.236z"/><path fill="#FDDBA4" d="M256.722 131.062c1.595.064 2.866-1.346 2.843-3.15-.023-1.805-1.334-3.318-2.93-3.39l-15.846-.72c-1.595-.07-2.867 1.346-2.84 3.146.02 1.81 1.333 3.324 2.927 3.39l15.845.724z"/><path opacity=".4" fill="#B29076" d="M240.952 129.348c1.136.043 1.45-.987 1.436-2.272-.015-1.288-.36-2.345-1.496-2.39-1.138-.05-2.04.96-2.024 2.245.016 1.287.95 2.37 2.084 2.418z"/><path fill="#DFB471" d="M248.62 129.674c.112.01.194-.088.19-.212l-.05-4.138c-.006-.12-.092-.226-.198-.23-.107-.004-.195.095-.193.217l.055 4.138c.004.122.09.224.196.226z"/><path opacity=".4" fill="#B29076" d="M249.48 129.712c.11.007.195-.09.193-.215l-.053-4.132c-.004-.126-.09-.233-.2-.238-.108-.003-.192.096-.192.216l.056 4.14c0 .122.09.227.196.23zM250.467 129.697c.11.002.197-.095.197-.216l-.057-4.138c0-.126-.095-.226-.203-.23-.104-.01-.188.094-.188.215l.054 4.134c0 .126.09.23.197.237z"/><path fill="#FDDBA4" d="M254.59 137.874c1.41.054 2.533-1.19 2.516-2.792-.023-1.592-1.182-2.932-2.59-2.992l-10.1-.533c-1.406-.06-2.533 1.188-2.51 2.785.018 1.6 1.182 2.937 2.587 2.993l10.098.54z"/><path opacity=".4" fill="#B29076" d="M244.562 136.46c1.006.04 1.283-.873 1.265-2.01-.01-1.142-.314-2.073-1.32-2.11-1.007-.045-1.806.85-1.793 1.98.02 1.142.845 2.1 1.848 2.14zM251.342 136.75c.097.004.17-.08.168-.19l-.045-3.655c-.006-.107-.08-.202-.178-.204-.096-.004-.17.082-.17.19l.05 3.66c0 .105.08.197.175.2zM252.102 136.78c.096.006.17-.08.17-.187l-.045-3.655c-.004-.11-.084-.207-.18-.207-.09-.005-.17.084-.166.19l.048 3.657c0 .11.08.204.174.204zM252.973 136.77c.097 0 .177-.088.174-.19l-.048-3.66c-.002-.112-.084-.198-.18-.204-.096-.006-.166.084-.168.19l.05 3.66a.2.2 0 0 0 .17.203z"/></g><path opacity=".4" fill="#9B9B9B" d="M34.248 155.133c-.016.463 2.63 3.92 1.633 7.38 1.94-3.244 2.513-5.288 1.702-6.925-.81-1.64 2.016 2.55 2.254 3.948.1-2.78.908-4.456-.488-5.87-1.396-1.418 3.102 1.115 3.22 2.44-.656-3.52.17-4.634-1.913-5.333-2.087-.7-6.407 4.36-6.407 4.36z"/><path fill="#FDDBA4" d="M16.99 197.762c-18.772-19.2-5.72-41.113-5.11-44.766l10.718 2.52c-.48 2.955 5.956 4.3 5.94 10.158-.024 8.3 1.472 17.494 7.48 21.834 5.283 3.813 19.262 7.384 53.543-11.547l10.48 18.565c-34.288 18.932-59.15 22.19-76.004 9.962a36.506 36.506 0 0 1-7.047-6.725z"/><g><path fill="#E8C08B" d="M93.425 180.645c-.98.976-2.896.633-4.288-.764-1.387-1.395-1.724-3.317-.742-4.29l9.916-9.868c.987-.977 2.903-.632 4.293.765 1.394 1.392 1.724 3.315.745 4.29l-9.923 9.868z"/><path fill="#E8C08B" d="M112.972 173.65c1.08.86.957 2.808-.272 4.346-1.23 1.54-3.097 2.09-4.18 1.232L97.58 170.5c-1.075-.86-.957-2.808.27-4.35 1.228-1.538 3.102-2.09 4.182-1.228l10.94 8.73z"/><path fill="#FDDBA4" d="M71.39 205.864c-4.056 1.64-8.946-.98-10.91-5.852-1.968-4.87-.27-10.15 3.794-11.79l30.412-12.276c4.06-1.638 8.947.98 10.913 5.853 1.967 4.87.266 10.15-3.793 11.787L71.39 205.864z"/><g fill="#FDDBA4"><path d="M101.714 175.87a3.566 3.566 0 0 1-4.644-1.97 3.567 3.567 0 0 1 1.975-4.643l24.61-9.936a3.57 3.57 0 0 1 4.644 1.97 3.574 3.574 0 0 1-1.972 4.644l-24.614 9.935z"/><path d="M94.535 186.463a3.568 3.568 0 0 1-4.64-1.976 3.566 3.566 0 0 1 1.968-4.642l18.51-7.472a3.568 3.568 0 0 1 4.643 1.973 3.57 3.57 0 0 1-1.973 4.643l-18.508 7.473z"/><path d="M97.135 192.906a3.562 3.562 0 0 1-4.638-1.975 3.557 3.557 0 0 1 1.968-4.636l18.513-7.474a3.57 3.57 0 0 1 4.642 1.972 3.57 3.57 0 0 1-1.976 4.643l-18.51 7.47zM102.52 198.425c-3.895-3.15-3.906-.145-4.645-1.974l1.02-.405c-.737-1.828-.872-3.497.957-4.232l14.097-5.692a3.57 3.57 0 0 1 4.64 1.972 3.572 3.572 0 0 1-1.97 4.644l-14.1 5.69z"/><path d="M103.275 198.122c-7.262 2.93-13.83-1.266-16.757-8.52-2.93-7.26-1.116-14.836 6.143-17.77l6.385-2.574c7.256-2.932 11.006 2.4 13.935 9.66 2.933 7.258-.58 15.52-7.837 18.45l-1.868.754z"/></g><path opacity=".4" fill="#B29076" d="M125.815 164.966c-1.302.526-2.106-.375-2.63-1.677-.527-1.304-.578-2.513.727-3.038 1.303-.524 2.705.14 3.227 1.438.524 1.3-.023 2.753-1.325 3.276z"/><g fill="#70462D" opacity=".4"><path opacity=".3" d="M117.03 168.535a.235.235 0 0 1-.31-.136l-1.69-4.185a.24.24 0 0 1 .132-.315.24.24 0 0 1 .315.137l1.688 4.185a.24.24 0 0 1-.134.313zM116.047 168.934a.24.24 0 0 1-.314-.135l-1.69-4.184a.246.246 0 0 1 .136-.32c.118-.048.263.013.312.14l1.688 4.183a.243.243 0 0 1-.133.314zM114.892 169.334a.25.25 0 0 1-.32-.136l-1.685-4.185a.24.24 0 0 1 .136-.316.24.24 0 0 1 .312.134l1.687 4.186a.245.245 0 0 1-.13.318z"/></g></g><path fill="#72AF2D" d="M4.96 162.547l-3.422 5.22 32.702 18.268 1.094-12.823s-6.375-17.87-6.69-17.557c-.314.315-16.8-9-16.8-9L4.96 157.36v5.187z"/></svg>