<svg xmlns="http://www.w3.org/2000/svg" width="58.758" height="54.565" viewBox="0 0 58.758 54.565"><g fill-rule="evenodd" clip-rule="evenodd"><path fill="#FC3F3F" d="M42.232 0C37.817 0 34.28 1.586 31.16 4.705l-.007.006v.003L29.38 6.945l-1.773-2.1-.006-.005C24.48 1.72 20.94 0 16.526 0S7.962 1.72 4.84 4.84A16.42 16.42 0 0 0 0 16.525c0 4.41 1.717 8.56 4.834 11.68 0 0 23.565 26.36 24.545 26.36.978 0 24.54-26.358 24.54-26.358a16.417 16.417 0 0 0 4.837-11.682 16.42 16.42 0 0 0-4.84-11.686A16.425 16.425 0 0 0 42.23 0"/><path opacity=".1" d="M53.917 4.84A16.426 16.426 0 0 0 42.232 0C37.817 0 34.28 1.586 31.16 4.705l-.007.006v.003L29.38 6.945l-.157 47.544c.073.05.126.075.157.075.98 0 24.542-26.358 24.542-26.358a16.417 16.417 0 0 0 4.836-11.682c0-4.414-1.72-8.563-4.84-11.685z"/><path opacity=".1" d="M29.38 6.945L29.22 54.49c.073.05.126.075.157.075.978 0 24.54-26.358 24.54-26.358-10.228-8.87-24.54-21.262-24.54-21.262z"/></g></svg>