<svg xmlns="http://www.w3.org/2000/svg" xmlns:xlink="http://www.w3.org/1999/xlink" width="267.608" height="243.021" viewBox="0 0 267.608 243.021"><path fill="#E8C08B" d="M234.672 73.747v27.388s4.4-.914 5.017-1.444c0-3.494 2.508-8.242 2.508-8.242s-.88-5.86.79-7.895c-1.504-2.05-1.724-6.536-1.724-6.536l-6.592-3.27z"/><path fill="#72AF2D" d="M87.884 87.61l-45.476 21.298c-14.772 6.918-22.803 20.478-18.016 30.7l17.985 24.047 8.272 13.562c.462.99 17.655 33.738 19.366 36.593.1.726.23 1.398.405 1.992 9.646 32.897 17.035 16.628 23.116 3.833 6.084-12.795 18.82-3.323 30.664-7.342 11.846-4.018 15.85-5.08 24.448-12.166 8.595-7.085 14.264-2.545 3.178-24.098-.097-.19-.208-.363-.316-.543.017-.01.034-.017.05-.03-.185-.845-15.35-37.228-15.767-38.12l-5.754-14.336-7.116-29.542c-4.787-10.22-20.264-12.77-35.04-5.848z"/><path fill="#009995" d="M107.445 84.045a2.367 2.367 0 0 0-2.68 2.01l-5.036 35.208a2.368 2.368 0 0 0 2.01 2.682l49.876 7.133a2.37 2.37 0 0 0 2.683-2.01l5.035-35.206c.18-1.297-.72-2.5-2.015-2.685l-49.875-7.132z"/><path fill="#72AF2D" d="M26.806 121.812a2.365 2.365 0 0 1 3.26-.772l30.27 18.673a2.37 2.37 0 0 1 .773 3.262l-26.454 42.88a2.37 2.37 0 0 1-3.26.775l-30.27-18.67a2.375 2.375 0 0 1-.773-3.268l26.453-42.88z"/><path opacity=".1" fill="#010100" d="M130.347 128.758s6.955 22.91 9.47 27.976c2.514 5.065 8.29 19.74 8.504 23.718.22 3.977.64 4.744 3.286 7.015 2.648 2.273 1.084-4.158 1.755.356.668 4.514 1.24-5.112 1.24-5.112s-7.966-18.576-10.868-26.365c-3.398-9.122-11.57-28.048-11.57-28.048s-3.63.924-1.815.46z"/><path fill="#FDDBA4" d="M83.66 54.144a2.65 2.65 0 0 1-1.6 3.4l-.293.104a2.656 2.656 0 0 1-3.4-1.603l-3.915-10.89a2.66 2.66 0 0 1 1.607-3.396l.294-.108a2.656 2.656 0 0 1 3.4 1.603l3.906 10.89zM17.9 84.942a2.65 2.65 0 0 0 3.637.948l.268-.16a2.657 2.657 0 0 0 .946-3.637l-5.86-9.98a2.66 2.66 0 0 0-3.64-.94l-.27.16a2.653 2.653 0 0 0-.942 3.635l5.862 9.974z"/><path opacity=".2" fill="#14120E" d="M79.97 83.872l-37.044 17.35 2.57 5.485c8.732 3.22 16.747 2.1 22.52-.604 5.633-2.638 11.466-7.835 14.68-16.413l-2.727-5.818z"/><defs><path id="a" d="M67.236 95.25l-7.407 3.467-.695-1.482 7.406-3.47z"/></defs><clipPath id="b"><use xlink:href="#a" overflow="visible"/></clipPath><path clip-path="url(#b)" fill="#14120E" d="M67.263 94.573c.12.26-1.502 1.272-3.626 2.268-2.124.995-3.94 1.592-4.06 1.334-.123-.26 1.5-1.272 3.622-2.267 2.124-.996 3.94-1.595 4.063-1.334"/><path fill="#FDDBA4" d="M28.245 21.777a10.32 10.32 0 0 0-.348.176c-.117.05-.238.1-.356.155-17.098 8.008-22.214 33.175-11.422 56.22 7.853 11.984 18.936 25.105 24.705 27.194 8.797 3.184 19.93 1.894 24.708-2 .094-.012.143-.022.152-.002l.025.052c-.005-.01-.045 0-.014-.027.045-.01.01.02.014.027l-.025-.052c-.01-.02.376-.213.44-.274 6.054-1.18 14.4-9.015 17.584-17.81 2.09-5.768-.84-22.708-5.015-36.416C67.9 25.978 45.344 13.77 28.246 21.777z"/><circle fill="#FF8080" cx="36.672" cy="84.003" r="7.948"/><path fill="#FF8080" d="M77.078 65.08a7.95 7.95 0 0 1-14.397 6.743 7.95 7.95 0 0 1 14.397-6.743z"/><path fill="#FFF" d="M68.562 52.162c.735 1.57-1.933 4.376-5.963 6.265-4.032 1.887-7.9 2.142-8.637.573-.734-1.568 1.94-4.373 5.972-6.26 4.03-1.887 7.893-2.145 8.627-.578M38.513 66.235c.735 1.57-1.934 4.377-5.965 6.265-4.027 1.886-7.9 2.142-8.634.572-.734-1.567 1.944-4.373 5.97-6.26 4.032-1.886 7.895-2.144 8.63-.577"/><path opacity=".2" fill="#14120E" d="M57.97 75.476c.884 1.89-.034 4.19-2.05 5.136l-.1.046c-2.018.944-4.374.176-5.258-1.712l-7.198-15.37c-.886-1.89.032-4.192 2.05-5.137l.1-.048c2.016-.944 4.372-.177 5.258 1.715l7.198 15.37z"/><path fill="#FFF" d="M31.958 68.44a.592.592 0 0 1-.286.787.59.59 0 0 1-.5-1.07.593.593 0 0 1 .786.284"/><path fill="#422902" d="M63.176 54.676a2.286 2.286 0 0 1-1.097 3.036 2.286 2.286 0 1 1-1.94-4.14 2.287 2.287 0 0 1 3.036 1.104"/><path fill="#FFF" d="M60.537 54.914a.69.69 0 1 1-.92-.334.692.692 0 0 1 .92.334"/><path fill="#422902" d="M33.277 68.68a2.287 2.287 0 0 1-1.096 3.035 2.285 2.285 0 0 1-1.94-4.14c1.143-.533 2.503-.038 3.037 1.104"/><path fill="#FFF" d="M30.64 68.916a.694.694 0 1 1-1.255.587.69.69 0 0 1 .332-.92.7.7 0 0 1 .923.333"/><path fill="#422902" d="M35.167 59.096c.39.886-.13 1.972-1.16 2.42l-11.64 5.106c-1.026.45-2.174.093-2.565-.8-.39-.887.127-1.974 1.15-2.424l11.645-5.103c1.028-.45 2.177-.09 2.57.8zM67.43 43.985c.387.888-.134 1.974-1.16 2.42L54.63 51.51c-1.027.45-2.177.097-2.568-.797-.39-.888.128-1.976 1.153-2.424l11.64-5.104c1.03-.45 2.184-.093 2.574.8z"/><path opacity=".2" fill="#14120E" d="M66.98 94.203c.22.47-1.283 1.643-3.353 2.613-2.073.97-3.934 1.375-4.154.903-.222-.474 1.282-1.64 3.355-2.612 2.07-.97 3.932-1.38 4.153-.905z"/><path opacity=".1" fill="#010000" d="M17.738 75.07c-4.214-5.974-4.957-23.756-4.705-25.23 4.683-.087 12.6-3.267 13.368-4.984 4.142.774 14.377 2.453 22.6-9.226 3.52-5.264 8.096-7.256 8.93-7.496.83-.243 13.532 11.884 17.803 21.002 1.308.358 2.346 1.096 2.346 1.096S66.72 18.938 62.292 17.547c-4.43-1.388-11.408-3.44-18.316-3.065-6.908.375-10.696-2.67-11.217-3.784.916 3.638 2.157 5.612 2.59 5.866-6.213-1.16-11.285-4.488-12.5-7.468-4.01 1.795-9.58 12.087-10.206 14.79-2.57.9-10.424 15.73-10.708 20.832-.288 5.102 13.368 31.24 15.283 32.632-.085-.77.077-1.71.518-2.28z"/><path fill="#77513B" d="M17.055 74.135c-4.35-6.264-5.41-24.72-5.18-26.24 4.72-.014 12.644-3.173 13.39-4.942 4.187.875 14.534 2.797 22.62-9.175 3.458-5.397 8.037-7.385 8.873-7.618.833-.235 13.85 12.56 18.313 22.09 1.326.396 2.384 1.175 2.384 1.175s-11.99-32.65-16.48-34.17c-4.487-1.513-11.56-3.762-18.517-3.494-6.96.266-10.832-2.957-11.375-4.117.985 3.787 2.274 5.86 2.713 6.127-6.282-1.31-11.453-4.85-12.73-7.96-4.012 1.792-9.448 12.364-10.033 15.157C8.457 21.857.796 37.1.6 42.387.396 47.673 14.617 75.02 16.573 76.492c-.1-.8.047-1.775.48-2.358z"/><path opacity=".2" fill="#010000" d="M32.832 105.91c5.196 11.095 29.666 11.537 38.257 7.513l.246-.116c8.836-4.14 23.748-24.46 18.552-35.552L84.242 65.7c-1.945-8.4-8.057 10.54-23.416 17.733l-2.22 1.04c-17.23 8.07-35.813-.415-32.52 7.326l6.746 14.11z"/><path fill="#77513B" d="M31.897 103.915c5.195 11.093 29.837 11.9 38.427 7.878l.247-.116c8.84-4.14 23.406-25.192 18.21-36.285l-5.645-12.056C81.19 54.938 75.42 74.61 60.06 81.803l-2.22 1.04c-17.23 8.07-35.898-.6-32.605 7.144l6.662 13.928z"/><path fill="#FFF" d="M69.882 79.095c1.787 3.815-2.137 9.437-8.77 12.542-6.63 3.105-13.46 2.52-15.248-1.294-1.787-3.818 5.167-2.968 11.798-6.073 6.633-3.106 10.432-8.993 12.22-5.175"/><g fill="#63402E"><path d="M80.01 56.46s-3.48 17.922-22.298 18.965c-7.003 3.28-2.93 9.708 2.52 8.124 9.217-2.678 26.87-12.283 20.074-26.457"/><path d="M22.018 83.623s15.996 8.798 28.844-4.99c7.006-3.28 9.333 3.965 4.63 7.138-7.96 5.368-26.64 12.78-33.18-1.515"/></g><path fill="#FF8080" d="M57.195 73.82a4.038 4.038 0 0 1-1.943 5.366l-.1.046a4.037 4.037 0 0 1-5.365-1.942l-7.68-16.4a4.038 4.038 0 0 1 1.94-5.367l.1-.045a4.038 4.038 0 0 1 5.367 1.944l7.68 16.4z"/><path opacity=".3" fill-rule="evenodd" clip-rule="evenodd" d="M51.88 50.668a89.03 89.03 0 0 1-4.25 3.647c-2.544 2.04-3.22 2.358-6.418 3.006a87.95 87.95 0 0 1-5.525.93c-6.06.846-16.682 5.727-24.104 11.576l1.985 3.624s1.3-1.268 4.374 3.27c3.08 4.54 6.99 11.062 18.352 5.935 11.36-5.137 8.882-16.506 8.813-18.276-.07-1.773-.425-2.936.13-3.577.707-.812 1.416-1.144 2.493-1.167.847-.016 1.51 1 2.827 2.19 1.314 1.187 8.464 10.37 19.68 4.93 11.215-5.445 8.708-12.626 7.19-17.894-1.52-5.268.293-5.457.293-5.457l-1.515-3.844c-9.24 1.956-19.795 6.993-24.324 11.108zm-9.012 17.04c1 8.125-3.467 12.07-7.685 13.874-4.04 1.727-7.475 1.902-11.16-.732-2.678-1.914-5.1-5-5.46-8.69-.265-2.69 1.452-4.848 3.52-6.44 3.127-2.404 9.675-5.31 13.635-5.327 3.214-.02 6.436 1.507 7.15 7.315zm33.84-11.534c-.336 4.518-2.67 7.044-6.585 9.042-4.082 2.085-9.975 2.99-15.576-2.98-4-4.267-3.114-7.718-1.042-10.175 2.552-3.034 8.973-6.2 12.82-7.06 2.55-.574 5.304-.51 7.204 1.413 2.6 2.642 3.424 6.478 3.178 9.76z"/><g><path fill="#EDEDED" d="M16.88 67.598c.185.373-.567 1.124-1.684 1.68-1.116.552-2.174.7-2.36.324-.183-.378.572-1.128 1.688-1.68 1.117-.554 2.17-.697 2.355-.324M75.454 40.166c.185.373-.57 1.125-1.683 1.678-1.116.553-2.172.698-2.357.324-.188-.376.57-1.127 1.687-1.678 1.116-.555 2.17-.7 2.354-.324"/><path fill-rule="evenodd" clip-rule="evenodd" fill="#065D72" d="M10.934 68.442l1.985 3.62s1.3-1.267 4.372 3.272c3.08 4.538 6.99 11.06 18.352 5.933 11.36-5.136 8.882-16.505 8.813-18.276-.07-1.77-.425-2.933.13-3.57.707-.815 1.416-1.147 2.494-1.17.847-.017 1.51 1 2.827 2.19 1.315 1.186 8.465 10.37 19.682 4.93 11.212-5.446 8.705-12.626 7.187-17.895-1.518-5.267.293-5.457.293-5.457l-1.514-3.84c-9.24 1.95-19.795 6.99-24.324 11.103a89.228 89.228 0 0 1-4.25 3.65c-2.544 2.04-3.22 2.358-6.42 3.006a89.34 89.34 0 0 1-5.524.93c-6.062.846-16.684 5.724-24.104 11.576m10.5-4.11c-2.07 1.594-3.786 3.75-3.522 6.44.36 3.69 2.784 6.776 5.46 8.69 3.686 2.634 7.12 2.46 11.16.732 4.22-1.803 8.688-5.75 7.686-13.874-.714-5.808-3.935-7.332-7.15-7.315-3.96.017-10.507 2.925-13.635 5.328m44.242-20.72c2.553-.572 5.304-.51 7.205 1.415 2.602 2.64 3.424 6.477 3.178 9.76-.337 4.517-2.67 7.044-6.584 9.044-4.083 2.083-9.975 2.99-15.577-2.98-4-4.268-3.113-7.718-1.042-10.18 2.553-3.03 8.974-6.197 12.82-7.06m7.464-2.89c-.924.377-1.567.912-1.438 1.19.133.28.987.2 1.91-.176.927-.378 1.57-.91 1.44-1.19-.132-.28-.986-.2-1.913.177M14.437 68.215c.88-.467 1.704-.62 1.834-.342.13.28-.48.887-1.36 1.354-.883.47-1.704.624-1.835.344-.13-.278.478-.883 1.36-1.355"/></g><path fill="#009995" d="M157.112 96.114l1.69 1.472-3.962 27.694-3.463-3.007-8.673-18.703s1.922-10.393 3.018-10.728c1.093-.332 11.39 3.272 11.39 3.272z"/><ellipse fill="#F6F6F6" cx="138.187" cy="232.566" rx="129.422" ry="10.455"/><path fill="#FFF" d="M100.385 131.56c-.125-.33.06-.705-.514-.49-.57.217-.186.377-.06.708l7.216 19.145c.125.332-.058.707.514.49.574-.215.187-.375.062-.707l-7.217-19.145z"/><path opacity=".34" fill="#010101" d="M52.434 196.134l-15.328-40.66c-.172-.458-.118-1.674-.373-1.577l-.024.008c-.253.096-.928 1.544-.755 2.002l15.263 40.485 1.216-.258zM113.43 173.14l-15.328-40.663c-.173-.457-.11-1.676.145-1.772l.025-.01c.253-.095.232 1.108.404 1.565l15.262 40.485-.508.394z"/><path opacity=".4" fill="#9B9B9B" d="M102.65 129.322c.335.318.442 4.597 3.69 6.363-3.913-.962-5.817-2.015-6.25-3.735-.433-1.72.024 3.203.782 4.356-2.008-1.9-3.86-2.53-3.633-4.5.225-1.968-1.91 2.934-1.093 3.956-1.866-2.95-3.348-3.168-2.033-5.103 1.315-1.936 8.537-1.338 8.537-1.338z"/><path fill="#E2E2E2" d="M102.52 128.192c.34.314.407 4.608 3.722 6.35-4.004-.927-5.947-1.966-6.375-3.688s-.006 3.214.76 4.365c-2.04-1.89-3.934-2.505-3.683-4.483.25-1.977-1.984 2.964-1.157 3.98-1.885-2.943-3.402-3.147-2.035-5.102s8.767-1.423 8.767-1.423z"/><path opacity=".4" fill="#9B9B9B" d="M33.203 156.207c-.016.448 2.55 3.8 1.583 7.154 1.88-3.144 2.434-5.125 1.65-6.712-.784-1.587 1.955 2.475 2.186 3.828.098-2.695.88-4.32-.475-5.69-1.354-1.374 3.008 1.08 3.12 2.367-.635-3.415.167-4.493-1.854-5.17-2.02-.68-6.21 4.224-6.21 4.224z"/><g><path fill="#3A383A" d="M96.155 65.083H222.83v140.05H96.154z"/><path fill="#5E5E5E" d="M92.832 62.822c0 3.33 2.7 6.028 6.027 6.028h123.97V46.544v-6.026H98.86a6.026 6.026 0 0 0-6.028 6.026v16.278z"/><path fill="#FFF" d="M186.345 51.11c0 .728.585 1.312 1.31 1.312a1.307 1.307 0 0 0 0-2.616c-.725 0-1.31.587-1.31 1.304zM191.106 51.11a1.31 1.31 0 0 0 1.31 1.312c.724 0 1.306-.584 1.306-1.312 0-.717-.582-1.304-1.305-1.304a1.31 1.31 0 0 0-1.31 1.304zM195.867 51.11a1.307 1.307 0 1 0 2.617.01 1.307 1.307 0 0 0-2.617-.01zM200.624 51.11a1.31 1.31 0 0 0 2.62 0c0-.717-.585-1.304-1.31-1.304a1.31 1.31 0 0 0-1.31 1.304zM205.385 51.11c0 .728.58 1.312 1.308 1.312a1.31 1.31 0 1 0-1.308-1.312zM210.14 51.11c0 .728.586 1.312 1.313 1.312a1.307 1.307 0 0 0 0-2.616 1.31 1.31 0 0 0-1.312 1.304zM214.902 51.11a1.31 1.31 0 0 0 2.622 0 1.31 1.31 0 0 0-1.31-1.304 1.31 1.31 0 0 0-1.312 1.304zM219.663 51.11a1.307 1.307 0 0 0 2.616 0 1.307 1.307 0 0 0-2.617 0zM188.964 54.684c0 .72.586 1.31 1.308 1.31a1.31 1.31 0 1 0-1.308-1.31zM193.72 54.684c0 .72.59 1.31 1.31 1.31a1.31 1.31 0 1 0-1.31-1.31zM198.482 54.684a1.31 1.31 0 0 0 2.616 0c0-.723-.583-1.31-1.307-1.31a1.31 1.31 0 0 0-1.308 1.31zM203.242 54.684a1.308 1.308 0 0 0 2.615 0c0-.723-.582-1.31-1.306-1.31a1.31 1.31 0 0 0-1.308 1.31zM208.003 54.684c0 .72.586 1.31 1.306 1.31a1.31 1.31 0 1 0-1.306-1.31zM212.76 54.684c0 .72.586 1.31 1.312 1.31a1.31 1.31 0 1 0-1.31-1.31zM217.523 54.684c0 .72.582 1.31 1.307 1.31a1.31 1.31 0 0 0 0-2.62c-.725 0-1.307.587-1.307 1.31zM188.964 61.82a1.31 1.31 0 0 0 2.62 0 1.31 1.31 0 0 0-2.62 0zM193.72 61.82a1.31 1.31 0 1 0 2.624.003 1.31 1.31 0 0 0-2.623-.003zM198.482 61.82a1.31 1.31 0 0 0 1.31 1.313c.724 0 1.306-.585 1.306-1.313a1.307 1.307 0 0 0-2.616 0zM203.242 61.82a1.31 1.31 0 0 0 1.31 1.313c.724 0 1.305-.585 1.305-1.313 0-.72-.582-1.308-1.306-1.308a1.31 1.31 0 0 0-1.308 1.308zM208.003 61.82a1.31 1.31 0 0 0 2.618 0 1.31 1.31 0 0 0-2.617 0zM212.76 61.82a1.31 1.31 0 0 0 2.62 0 1.31 1.31 0 0 0-2.62 0zM217.523 61.82a1.308 1.308 0 0 0 2.615 0 1.308 1.308 0 0 0-2.615 0z"/><circle fill="#FFF" cx="187.655" cy="58.252" r="1.309"/><circle fill="#FFF" cx="192.414" cy="58.252" r="1.308"/><circle fill="#FFF" cx="197.174" cy="58.252" r="1.308"/><circle fill="#FFF" cx="201.933" cy="58.252" r="1.309"/><path fill="#FFF" d="M205.385 58.252c0 .722.58 1.31 1.308 1.31a1.31 1.31 0 0 0 0-2.62c-.727 0-1.308.588-1.308 1.31zM210.14 58.252a1.31 1.31 0 0 0 2.62 0 1.31 1.31 0 0 0-2.62 0z"/><circle fill="#FFF" cx="216.212" cy="58.252" r="1.311"/><circle fill="#FFF" cx="220.971" cy="58.252" r="1.308"/><path fill="#FFF" d="M132.018 53.623h46.726v2.256h-46.726zM132.018 58.87h46.726v2.258h-46.726z"/><circle fill="#EB6159" cx="112.275" cy="54.684" r="9.043"/><path fill="#3A383A" d="M105.494 54.684a6.78 6.78 0 0 0 6.78 6.782 6.78 6.78 0 0 0 6.784-6.782 6.78 6.78 0 0 0-13.564 0z"/><path fill="#5E5E5E" d="M92.832 93.66c0 3.332 2.7 6.03 6.027 6.03h123.97V77.385v-6.03H98.86a6.028 6.028 0 0 0-6.028 6.03V93.66z"/><path fill="#FFF" d="M188.964 78.384c0 .722.586 1.307 1.308 1.307a1.308 1.308 0 0 0 0-2.617 1.31 1.31 0 0 0-1.308 1.31zM193.72 78.384zM198.482 78.384zM203.242 78.384zM208.003 78.384a1.31 1.31 0 1 0 0 0zM212.76 78.384c0 .722.586 1.307 1.312 1.307a1.31 1.31 0 1 0-1.31-1.307zM217.523 78.384a1.307 1.307 0 0 0 2.615 0 1.308 1.308 0 0 0-2.615 0z"/><circle fill="#FFF" cx="187.655" cy="81.953" r="1.309"/><circle fill="#FFF" cx="192.414" cy="81.953" r="1.308"/><circle fill="#FFF" cx="197.174" cy="81.953" r="1.308"/><circle fill="#FFF" cx="201.933" cy="81.953" r="1.309"/><path fill="#FFF" d="M205.385 81.953c0 .722.58 1.307 1.308 1.307a1.308 1.308 0 0 0 0-2.617c-.727 0-1.308.586-1.308 1.31zM210.14 81.953c0 .722.586 1.307 1.313 1.307a1.308 1.308 0 0 0 0-2.617 1.31 1.31 0 0 0-1.31 1.31z"/><circle fill="#FFF" cx="216.212" cy="81.953" r="1.311"/><circle fill="#FFF" cx="220.971" cy="81.953" r="1.308"/><circle fill="#FFF" cx="190.273" cy="85.524" r="1.309"/><circle fill="#FFF" cx="195.031" cy="85.524" r="1.31"/><circle fill="#FFF" cx="199.79" cy="85.524" r="1.308"/><circle fill="#FFF" cx="204.549" cy="85.524" r="1.308"/><path fill="#FFF" d="M208.003 85.524z"/><circle fill="#FFF" cx="214.07" cy="85.524" r="1.309"/><path fill="#FFF" d="M217.523 85.524a1.306 1.306 0 0 0 2.615 0 1.308 1.308 0 0 0-2.615 0zM188.964 92.66a1.31 1.31 0 1 0 1.308-1.307c-.722 0-1.308.586-1.308 1.307zM193.72 92.66a1.31 1.31 0 1 0 2.62.002 1.31 1.31 0 0 0-2.62-.002zM198.482 92.66a1.31 1.31 0 1 0 2.617.005 1.31 1.31 0 0 0-2.618-.005zM203.242 92.66a1.31 1.31 0 1 0 2.617.005 1.31 1.31 0 0 0-2.618-.005zM208.003 92.66a1.31 1.31 0 1 0 2.62.005 1.31 1.31 0 0 0-2.62-.005zM212.76 92.66c0 .727.586 1.31 1.312 1.31a1.308 1.308 0 0 0 0-2.617c-.726 0-1.31.586-1.31 1.307zM217.523 92.66a1.307 1.307 0 0 0 2.615 0 1.308 1.308 0 0 0-2.615 0zM186.345 89.09a1.31 1.31 0 1 0 2.618.006 1.31 1.31 0 0 0-2.618-.006zM191.106 89.09a1.307 1.307 0 0 0 2.616 0c0-.72-.582-1.308-1.305-1.308a1.31 1.31 0 0 0-1.31 1.308zM195.867 89.09a1.307 1.307 0 0 0 2.616 0 1.308 1.308 0 0 0-2.616 0zM200.624 89.09a1.31 1.31 0 1 0 2.62.004 1.31 1.31 0 0 0-2.62-.004zM205.385 89.09a1.31 1.31 0 1 0 2.617.003 1.31 1.31 0 0 0-2.617-.003zM210.14 89.09a1.31 1.31 0 1 0 2.62.005 1.31 1.31 0 0 0-2.62-.005zM214.902 89.09a1.31 1.31 0 1 0 2.62.003 1.31 1.31 0 0 0-2.62-.003zM219.663 89.09a1.308 1.308 0 0 0 2.616 0 1.308 1.308 0 0 0-2.617 0zM132.018 79.074h46.726v2.26h-46.726zM132.018 84.46h46.726v2.257h-46.726zM132.018 89.71h46.726v2.26h-46.726z"/><circle fill="#EB6159" cx="112.275" cy="85.524" r="9.043"/><path fill="#3A383A" d="M105.494 85.524a6.78 6.78 0 0 0 6.78 6.78 6.78 6.78 0 0 0 6.784-6.78 6.78 6.78 0 0 0-6.784-6.783 6.78 6.78 0 0 0-6.78 6.784z"/><path fill="#5E5E5E" d="M92.832 124.46c0 3.33 2.7 6.026 6.027 6.026h123.97V108.18v-6.027H98.86a6.027 6.027 0 0 0-6.028 6.028v16.28z"/><circle fill="#FFF" cx="190.273" cy="109.181" r="1.309"/><circle fill="#FFF" cx="195.031" cy="109.181" r="1.31"/><circle fill="#FFF" cx="199.79" cy="109.181" r="1.308"/><circle fill="#FFF" cx="204.549" cy="109.181" r="1.308"/><path fill="#FFF" d="M208.003 109.18a1.308 1.308 0 1 0 2.616 0 1.308 1.308 0 0 0-2.617 0z"/><circle fill="#FFF" cx="214.07" cy="109.181" r="1.309"/><path fill="#FFF" d="M217.523 109.18a1.308 1.308 0 1 0 1.307-1.31c-.725 0-1.307.588-1.307 1.31zM186.345 112.75a1.31 1.31 0 0 0 2.62 0 1.31 1.31 0 0 0-2.62 0zM191.106 112.75c0 .72.587 1.31 1.31 1.31.724 0 1.306-.588 1.306-1.31a1.308 1.308 0 1 0-2.616 0zM195.867 112.75a1.308 1.308 0 0 0 2.616 0 1.31 1.31 0 0 0-1.308-1.313 1.31 1.31 0 0 0-1.308 1.314zM200.624 112.75a1.31 1.31 0 1 0 2.62-.003 1.31 1.31 0 0 0-2.62.004zM205.385 112.75a1.31 1.31 0 1 0 1.308-1.314c-.727 0-1.308.59-1.308 1.315zM210.14 112.75a1.31 1.31 0 0 0 2.62 0 1.31 1.31 0 1 0-2.62 0zM214.902 112.75a1.31 1.31 0 1 0 2.622-.005 1.31 1.31 0 0 0-2.622.006zM219.663 112.75a1.308 1.308 0 0 0 2.616 0 1.31 1.31 0 0 0-2.616 0zM188.964 116.32c0 .722.586 1.307 1.308 1.307a1.308 1.308 0 0 0 0-2.617 1.31 1.31 0 0 0-1.308 1.31zM193.72 116.32a1.31 1.31 0 0 0 2.622 0 1.31 1.31 0 0 0-2.62 0zM198.482 116.32a1.308 1.308 0 1 0 2.617-.004 1.308 1.308 0 0 0-2.618.005zM203.242 116.32a1.308 1.308 0 1 0 2.617-.004 1.308 1.308 0 0 0-2.618.005zM208.003 116.32a1.308 1.308 0 1 0 2.62-.005 1.308 1.308 0 0 0-2.62.006zM212.76 116.32c0 .722.586 1.307 1.312 1.307a1.307 1.307 0 0 0 0-2.617 1.31 1.31 0 0 0-1.31 1.31zM217.523 116.32a1.307 1.307 0 0 0 2.615 0 1.308 1.308 0 0 0-2.615 0z"/><circle fill="#FFF" cx="190.273" cy="123.458" r="1.309"/><circle fill="#FFF" cx="195.031" cy="123.458" r="1.31"/><circle fill="#FFF" cx="199.79" cy="123.458" r="1.308"/><circle fill="#FFF" cx="204.549" cy="123.458" r="1.308"/><path fill="#FFF" d="M208.003 123.458a1.31 1.31 0 1 0 2.618 0 1.31 1.31 0 0 0-2.62 0z"/><circle fill="#FFF" cx="214.07" cy="123.458" r="1.309"/><path fill="#FFF" d="M217.523 123.458a1.307 1.307 0 1 0 2.615.003 1.307 1.307 0 0 0-2.615-.003zM186.345 119.89c0 .72.585 1.306 1.31 1.306s1.31-.584 1.31-1.306c0-.726-.585-1.31-1.31-1.31s-1.31.584-1.31 1.31zM191.106 119.89a1.31 1.31 0 1 0 2.617-.005 1.31 1.31 0 0 0-2.617.005zM195.867 119.89c0 .72.583 1.306 1.308 1.306.723 0 1.308-.584 1.308-1.306a1.307 1.307 0 1 0-2.616 0zM200.624 119.89c0 .72.586 1.306 1.31 1.306a1.307 1.307 0 0 0 0-2.617 1.31 1.31 0 0 0-1.31 1.31zM205.385 119.89c0 .72.58 1.306 1.308 1.306a1.307 1.307 0 0 0 0-2.617c-.727 0-1.308.584-1.308 1.31zM210.14 119.89c0 .72.586 1.306 1.313 1.306a1.308 1.308 0 0 0 0-2.617 1.31 1.31 0 0 0-1.31 1.31zM214.902 119.89c0 .72.587 1.306 1.31 1.306a1.31 1.31 0 0 0 0-2.617 1.31 1.31 0 0 0-1.31 1.31zM219.663 119.89c0 .72.584 1.306 1.308 1.306s1.31-.584 1.31-1.306a1.307 1.307 0 0 0-2.617 0zM132.018 109.873h46.726v2.257h-46.726zM132.018 115.256h46.726v2.26h-46.726zM132.018 120.504h46.726v2.26h-46.726z"/><path fill="#EB6159" d="M103.232 116.32a9.042 9.042 0 0 0 9.042 9.043 9.042 9.042 0 0 0 9.045-9.042 9.043 9.043 0 0 0-9.046-9.044c-4.993 0-9.042 4.048-9.042 9.045z"/><path fill="#3A383A" d="M105.494 116.32a6.782 6.782 0 1 0 6.78-6.782 6.78 6.78 0 0 0-6.78 6.783z"/><path fill="#5E5E5E" d="M92.832 155.207c0 3.328 2.7 6.026 6.027 6.026h123.97v-22.306-6.027H98.86a6.028 6.028 0 0 0-6.028 6.027v16.28z"/><circle fill="#FFF" cx="190.273" cy="139.927" r="1.309"/><circle fill="#FFF" cx="195.031" cy="139.927" r="1.31"/><circle fill="#FFF" cx="199.79" cy="139.927" r="1.308"/><circle fill="#FFF" cx="204.549" cy="139.927" r="1.308"/><path fill="#FFF" d="M208.003 139.927c0 .725.586 1.307 1.306 1.307a1.307 1.307 0 0 0 0-2.614c-.72 0-1.307.584-1.307 1.307z"/><circle fill="#FFF" cx="214.07" cy="139.927" r="1.309"/><path fill="#FFF" d="M217.523 139.927c0 .725.582 1.307 1.307 1.307.723 0 1.308-.583 1.308-1.307s-.585-1.307-1.308-1.307c-.725 0-1.307.584-1.307 1.307z"/><circle fill="#FFF" cx="187.655" cy="143.494" r="1.309"/><path fill="#FFF" d="M191.106 143.494a1.308 1.308 0 1 0 2.616.002 1.308 1.308 0 0 0-2.616-.002z"/><circle fill="#FFF" cx="197.174" cy="143.494" r="1.308"/><circle fill="#FFF" cx="201.933" cy="143.494" r="1.309"/><path fill="#FFF" d="M205.385 143.494c0 .726.58 1.31 1.308 1.31a1.307 1.307 0 0 0 0-2.617c-.727 0-1.308.586-1.308 1.307zM210.14 143.494c0 .726.586 1.31 1.313 1.31a1.308 1.308 0 0 0 0-2.616 1.31 1.31 0 0 0-1.31 1.306z"/><circle fill="#FFF" cx="216.212" cy="143.494" r="1.311"/><circle fill="#FFF" cx="220.971" cy="143.494" r="1.308"/><circle fill="#FFF" cx="190.273" cy="147.066" r="1.309"/><circle fill="#FFF" cx="195.031" cy="147.066" r="1.31"/><circle fill="#FFF" cx="199.79" cy="147.066" r="1.308"/><circle fill="#FFF" cx="204.549" cy="147.066" r="1.308"/><path fill="#FFF" d="M208.003 147.066a1.308 1.308 0 1 0 2.62 0 1.308 1.308 0 0 0-2.62 0z"/><circle fill="#FFF" cx="214.07" cy="147.066" r="1.309"/><path fill="#FFF" d="M217.523 147.066a1.307 1.307 0 0 0 2.615 0 1.31 1.31 0 0 0-2.615 0z"/><circle fill="#FFF" cx="190.273" cy="154.204" r="1.309"/><circle fill="#FFF" cx="195.031" cy="154.204" r="1.31"/><circle fill="#FFF" cx="199.79" cy="154.204" r="1.308"/><circle fill="#FFF" cx="204.549" cy="154.204" r="1.308"/><path fill="#FFF" d="M208.003 154.204a1.31 1.31 0 1 0 2.617.005 1.31 1.31 0 0 0-2.617-.006z"/><circle fill="#FFF" cx="214.07" cy="154.204" r="1.309"/><path fill="#FFF" d="M217.523 154.204a1.306 1.306 0 0 0 2.615 0 1.308 1.308 0 1 0-2.615 0z"/><circle fill="#FFF" cx="187.655" cy="150.635" r="1.309"/><path fill="#FFF" d="M191.106 150.635a1.307 1.307 0 0 0 2.616 0c0-.723-.582-1.31-1.305-1.31a1.31 1.31 0 0 0-1.31 1.31z"/><circle fill="#FFF" cx="197.174" cy="150.635" r="1.308"/><circle fill="#FFF" cx="201.933" cy="150.635" r="1.309"/><path fill="#FFF" d="M205.385 150.635a1.31 1.31 0 1 0 2.617 0 1.31 1.31 0 0 0-2.617 0zM210.14 150.635a1.31 1.31 0 1 0 2.622 0 1.31 1.31 0 0 0-2.62 0z"/><circle fill="#FFF" cx="216.212" cy="150.635" r="1.311"/><circle fill="#FFF" cx="220.971" cy="150.635" r="1.308"/><path fill="#FFF" d="M132.018 140.62h46.726v2.26h-46.726zM132.018 146.004h46.726v2.26h-46.726zM132.018 151.254h46.726v2.257h-46.726z"/><circle fill="#EB6159" cx="112.275" cy="147.066" r="9.043"/><path fill="#3A383A" d="M105.494 147.066a6.782 6.782 0 0 0 13.564 0 6.78 6.78 0 0 0-6.784-6.782 6.78 6.78 0 0 0-6.78 6.782z"/><path fill="#5E5E5E" d="M92.832 186.045c0 3.33 2.7 6.03 6.027 6.03h123.97v-28.34H98.86a6.03 6.03 0 0 0-6.028 6.032v16.278z"/><circle fill="#FFF" cx="190.273" cy="170.767" r="1.309"/><circle fill="#FFF" cx="195.031" cy="170.767" r="1.31"/><circle fill="#FFF" cx="199.79" cy="170.767" r="1.308"/><circle fill="#FFF" cx="204.549" cy="170.767" r="1.308"/><path fill="#FFF" d="M208.003 170.767c0 .723.586 1.307 1.306 1.307a1.308 1.308 0 0 0 0-2.617 1.31 1.31 0 0 0-1.307 1.31z"/><circle fill="#FFF" cx="214.07" cy="170.767" r="1.309"/><path fill="#FFF" d="M217.523 170.767c0 .723.582 1.307 1.307 1.307a1.308 1.308 0 1 0-1.307-1.307z"/><circle fill="#FFF" cx="187.655" cy="174.334" r="1.309"/><circle fill="#FFF" cx="192.414" cy="174.334" r="1.308"/><circle fill="#FFF" cx="197.174" cy="174.334" r="1.308"/><circle fill="#FFF" cx="201.933" cy="174.334" r="1.309"/><path fill="#FFF" d="M205.385 174.334c0 .724.58 1.307 1.308 1.307a1.307 1.307 0 0 0 0-2.614c-.727 0-1.308.588-1.308 1.308zM210.14 174.334c0 .724.586 1.307 1.313 1.307.723 0 1.308-.582 1.308-1.306a1.31 1.31 0 0 0-2.62 0z"/><circle fill="#FFF" cx="216.212" cy="174.334" r="1.311"/><circle fill="#FFF" cx="220.971" cy="174.334" r="1.308"/><circle fill="#FFF" cx="190.273" cy="177.906" r="1.309"/><circle fill="#FFF" cx="195.031" cy="177.906" r="1.31"/><circle fill="#FFF" cx="199.79" cy="177.906" r="1.308"/><circle fill="#FFF" cx="204.549" cy="177.906" r="1.308"/><path fill="#FFF" d="M208.003 177.906a1.31 1.31 0 1 0 2.62 0 1.31 1.31 0 0 0-2.62 0z"/><circle fill="#FFF" cx="214.07" cy="177.906" r="1.309"/><path fill="#FFF" d="M217.523 177.906a1.307 1.307 0 1 0 1.307-1.308c-.725 0-1.307.585-1.307 1.308z"/><circle fill="#FFF" cx="190.273" cy="185.045" r="1.309"/><circle fill="#FFF" cx="195.031" cy="185.045" r="1.31"/><circle fill="#FFF" cx="199.79" cy="185.045" r="1.308"/><circle fill="#FFF" cx="204.549" cy="185.045" r="1.308"/><path fill="#FFF" d="M208.003 185.045a1.308 1.308 0 0 0 2.618 0 1.31 1.31 0 0 0-2.617 0z"/><circle fill="#FFF" cx="214.07" cy="185.045" r="1.309"/><path fill="#FFF" d="M217.523 185.045a1.308 1.308 0 0 0 2.615 0 1.308 1.308 0 0 0-2.615 0z"/><circle fill="#FFF" cx="187.655" cy="181.476" r="1.309"/><circle fill="#FFF" cx="192.414" cy="181.476" r="1.308"/><circle fill="#FFF" cx="197.174" cy="181.476" r="1.308"/><circle fill="#FFF" cx="201.933" cy="181.476" r="1.309"/><path fill="#FFF" d="M205.385 181.476a1.31 1.31 0 1 0 2.618-.002 1.31 1.31 0 0 0-2.618.002zM210.14 181.476a1.31 1.31 0 1 0 2.62 0 1.31 1.31 0 0 0-2.62 0z"/><circle fill="#FFF" cx="216.212" cy="181.476" r="1.311"/><circle fill="#FFF" cx="220.971" cy="181.476" r="1.308"/><path fill="#FFF" d="M132.018 171.46h46.726v2.26h-46.726zM132.018 176.843h46.726v2.26h-46.726zM132.018 182.092h46.726v2.26h-46.726z"/><circle fill="#EB6159" cx="112.275" cy="177.906" r="9.043"/><path fill="#3A383A" d="M105.494 177.906a6.78 6.78 0 0 0 6.78 6.78 6.78 6.78 0 0 0 6.784-6.78 6.78 6.78 0 0 0-6.784-6.78 6.78 6.78 0 0 0-6.78 6.78z"/><path fill="#5E5E5E" d="M92.832 216.843c0 3.33 2.7 6.027 6.027 6.027h123.97V200.563v-6.027H98.86a6.027 6.027 0 0 0-6.028 6.027v16.28z"/><circle fill="#FFF" cx="190.273" cy="201.561" r="1.309"/><circle fill="#FFF" cx="195.031" cy="201.561" r="1.31"/><circle fill="#FFF" cx="199.79" cy="201.561" r="1.308"/><circle fill="#FFF" cx="204.549" cy="201.561" r="1.308"/><path fill="#FFF" d="M208.003 201.56a1.308 1.308 0 0 0 2.618 0 1.308 1.308 0 1 0-2.617 0z"/><circle fill="#FFF" cx="214.07" cy="201.561" r="1.309"/><path fill="#FFF" d="M217.523 201.56a1.308 1.308 0 0 0 2.615 0 1.307 1.307 0 1 0-2.615 0z"/><circle fill="#FFF" cx="187.655" cy="205.131" r="1.309"/><circle fill="#FFF" cx="192.414" cy="205.131" r="1.308"/><circle fill="#FFF" cx="197.174" cy="205.131" r="1.308"/><circle fill="#FFF" cx="201.933" cy="205.131" r="1.309"/><path fill="#FFF" d="M205.385 205.13c0 .725.58 1.308 1.308 1.308.725 0 1.31-.583 1.31-1.307a1.308 1.308 0 0 0-2.62 0zM210.14 205.13c0 .725.586 1.308 1.313 1.308.723 0 1.308-.583 1.308-1.307a1.31 1.31 0 0 0-2.62 0z"/><circle fill="#FFF" cx="216.212" cy="205.131" r="1.311"/><circle fill="#FFF" cx="220.971" cy="205.131" r="1.308"/><path fill="#FFF" d="M188.964 208.702c0 .725.586 1.306 1.308 1.306a1.306 1.306 0 0 0 0-2.614 1.31 1.31 0 0 0-1.308 1.308zM193.72 208.702c0 .725.59 1.306 1.31 1.306a1.307 1.307 0 0 0 0-2.614c-.72 0-1.31.586-1.31 1.308zM198.482 208.702c0 .725.587 1.306 1.31 1.306a1.306 1.306 0 0 0 0-2.614 1.31 1.31 0 0 0-1.31 1.308zM203.242 208.702c0 .725.587 1.306 1.31 1.306.724 0 1.305-.582 1.305-1.306 0-.722-.582-1.308-1.306-1.308a1.31 1.31 0 0 0-1.308 1.308zM208.003 208.702c0 .725.586 1.306 1.306 1.306a1.306 1.306 0 0 0 0-2.614 1.31 1.31 0 0 0-1.307 1.308zM212.76 208.702c0 .725.586 1.306 1.312 1.306.722 0 1.308-.582 1.308-1.306a1.308 1.308 0 0 0-2.62 0zM217.523 208.702c0 .725.582 1.306 1.307 1.306a1.308 1.308 0 1 0-1.307-1.306zM188.964 215.84c0 .726.586 1.308 1.308 1.308a1.306 1.306 0 0 0 0-2.614c-.722 0-1.308.585-1.308 1.307zM193.72 215.84c0 .726.59 1.308 1.31 1.308a1.307 1.307 0 0 0 0-2.614c-.72 0-1.31.585-1.31 1.307zM198.482 215.84c0 .726.587 1.308 1.31 1.308.724 0 1.306-.582 1.306-1.307a1.308 1.308 0 1 0-2.616 0zM203.242 215.84c0 .726.587 1.308 1.31 1.308.724 0 1.305-.582 1.305-1.307a1.308 1.308 0 1 0-2.615 0zM208.003 215.84c0 .726.586 1.308 1.306 1.308a1.307 1.307 0 0 0 0-2.614c-.72 0-1.307.585-1.307 1.307zM212.76 215.84c0 .726.586 1.308 1.312 1.308a1.308 1.308 0 0 0 0-2.614c-.726 0-1.31.586-1.31 1.308zM217.523 215.84c0 .726.582 1.308 1.307 1.308a1.307 1.307 0 1 0-1.307-1.307z"/><circle fill="#FFF" cx="187.655" cy="212.272" r="1.309"/><circle fill="#FFF" cx="192.414" cy="212.272" r="1.308"/><circle fill="#FFF" cx="197.174" cy="212.272" r="1.308"/><circle fill="#FFF" cx="201.933" cy="212.272" r="1.309"/><path fill="#FFF" d="M205.385 212.272a1.31 1.31 0 1 0 2.62-.004 1.31 1.31 0 0 0-2.62.003zM210.14 212.272c0 .72.586 1.307 1.313 1.307.723 0 1.308-.587 1.308-1.308a1.31 1.31 0 0 0-1.307-1.312c-.727 0-1.312.59-1.312 1.312z"/><circle fill="#FFF" cx="216.212" cy="212.272" r="1.311"/><circle fill="#FFF" cx="220.971" cy="212.272" r="1.308"/><path fill="#FFF" d="M132.018 202.255h46.726v2.26h-46.726zM132.018 207.64h46.726v2.26h-46.726zM132.018 212.888h46.726v2.258h-46.726z"/><circle fill="#EB6159" cx="112.275" cy="208.702" r="9.043"/><path fill="#3A383A" d="M105.494 208.702a6.783 6.783 0 1 0 13.566 0 6.783 6.783 0 0 0-13.566 0z"/><circle fill="#14CAF4" cx="112.275" cy="54.684" r="3.148"/><circle fill="#14CAF4" cx="112.275" cy="85.474" r="3.148"/><circle fill="#14CAF4" cx="112.275" cy="116.298" r="3.148"/><path fill="#14CAF4" d="M115.423 147.09a3.145 3.145 0 0 1-3.146 3.144 3.146 3.146 0 0 1 0-6.294 3.145 3.145 0 0 1 3.146 3.15z"/><circle fill="#14CAF4" cx="112.275" cy="177.953" r="3.148"/><circle fill="#14CAF4" cx="112.275" cy="208.741" r="3.148"/><path opacity=".2" fill="#FFF" d="M158.85 231.95h-11.084l70.113-198.1h4.95v17.448z"/><path opacity=".1" fill="#FFF" d="M96.184 36.518H222.83v191.95H96.183z"/><path opacity=".3" d="M109.102 30.94v7.09H88.524v192.158h20.578v-181.6h115.926V30.94z"/><path opacity=".2" fill="#FFF" d="M138.058 231.95H88.86l70.392-198.1h49.196z"/><path fill="#D8D8D8" d="M222.83 222.01H101.39V42.26H222.83V29.946H87.24v204.377h135.59z"/><path fill="#D8D8D8" d="M222.013 42.26v179.75H100.576L88.264 234.32h147.902V29.945h-135.59z"/><path opacity=".1" d="M222.013 42.26v179.75H100.576L88.264 234.32h147.902V29.945z"/></g><path opacity=".3" d="M181.37 148.19v-4.137h-.177v-21.438a3.11 3.11 0 0 0-3.11-3.113H45.06a3.11 3.11 0 0 0-3.108 3.113V230.88a3.11 3.11 0 0 0 3.108 3.113h133.023a3.11 3.11 0 0 0 3.11-3.112V180.717c.058-.04.118-.075.177-.114v-3.222c-.06.05-.12.092-.178.14v-10.123l.178-.082v-2.277l-.178.08v-6.212c.058.147.122.293.178.44V154.7c-.057-.104-.12-.202-.178-.303v-6.125l.18-.082z"/><g><path fill="#EDEDED" d="M173.994 231.497a3.11 3.11 0 0 1-3.11 3.11H37.86a3.11 3.11 0 0 1-3.108-3.11V123.23a3.11 3.11 0 0 1 3.108-3.11h133.024a3.11 3.11 0 0 1 3.11 3.11v108.267z"/><path fill="#444" d="M173.994 132.562v-9.33a3.11 3.11 0 0 0-3.11-3.112H37.86a3.11 3.11 0 0 0-3.108 3.112v9.33h139.242z"/><circle fill="#2CB740" cx="41.548" cy="126.505" r="2.462"/><path fill="#F16442" d="M51.512 126.505a2.46 2.46 0 1 1-4.922-.002 2.46 2.46 0 0 1 4.922.002z"/><path fill="#FFF" d="M168.858 126.358c0 1.36-1.104 2.46-2.462 2.46H55.52a2.465 2.465 0 0 1-2.46-2.46 2.466 2.466 0 0 1 2.46-2.463h110.876a2.464 2.464 0 0 1 2.462 2.463z"/><path opacity=".2" fill="#444" d="M60.898 138.865c0 .88.717 1.595 1.596 1.595h106.09a1.593 1.593 0 0 0 0-3.188H62.494c-.88 0-1.596.714-1.596 1.593zM57.42 138.865a2.323 2.323 0 0 1-2.32 2.322H40.897a2.32 2.32 0 0 1-2.317-2.322 2.316 2.316 0 0 1 2.318-2.317h14.2a2.317 2.317 0 0 1 2.322 2.317z"/><path fill="#4D9FF7" d="M34.752 144.644h139.242v37.79H34.752z"/><path opacity=".2" fill="#444" d="M38.983 213.535h40.87v16.867h-40.87zM84.535 213.535h40.87v16.867h-40.87zM129.31 213.535h40.87v16.867h-40.87z"/><path fill="#444" d="M125.808 189.98c0 .765-.657 1.388-1.46 1.388H40.044c-.81 0-1.465-.623-1.465-1.39 0-.77.656-1.393 1.465-1.393h84.3c.806 0 1.463.623 1.463 1.394zM125.808 196.19c0 .77-.657 1.39-1.46 1.39H40.044c-.81 0-1.465-.622-1.465-1.39 0-.77.656-1.39 1.465-1.39h84.3c.806 0 1.463.62 1.463 1.39zM125.808 202.32c0 .77-.657 1.39-1.46 1.39H40.044c-.81 0-1.465-.62-1.465-1.39 0-.767.656-1.388 1.465-1.388h84.3c.806 0 1.463.62 1.463 1.388zM125.808 208.443c0 .77-.657 1.392-1.46 1.392H40.044c-.81 0-1.465-.622-1.465-1.392 0-.766.656-1.39 1.465-1.39h84.3c.806 0 1.463.624 1.463 1.39z"/><path fill="#FFF" d="M77.587 154.392c0 .77-.656 1.39-1.462 1.39h-30.65c-.81 0-1.465-.62-1.465-1.39 0-.767.656-1.393 1.465-1.393h30.65c.807 0 1.462.625 1.462 1.392zM100.657 160.604c0 .77-.656 1.392-1.463 1.392H45.476c-.81 0-1.465-.62-1.465-1.392 0-.77.657-1.39 1.466-1.39h53.718c.806 0 1.463.622 1.463 1.39zM100.657 166.734c0 .77-.656 1.39-1.463 1.39H45.476c-.81 0-1.465-.62-1.465-1.39 0-.766.657-1.388 1.466-1.388h53.718c.806 0 1.463.623 1.463 1.388zM100.657 172.856c0 .77-.656 1.392-1.463 1.392H45.476c-.81 0-1.465-.62-1.465-1.392 0-.765.657-1.388 1.466-1.388h53.718c.806 0 1.463.623 1.463 1.388z"/><path fill="#444" d="M170.178 189.98c0 .765-.668 1.388-1.487 1.388h-37.277c-.82 0-1.487-.623-1.487-1.39 0-.77.666-1.393 1.487-1.393h37.278c.82 0 1.488.623 1.488 1.394zM170.178 196.19c0 .77-.668 1.39-1.487 1.39h-37.277c-.82 0-1.487-.622-1.487-1.39 0-.77.666-1.39 1.487-1.39h37.278c.82 0 1.488.62 1.488 1.39zM170.178 202.32c0 .77-.668 1.39-1.487 1.39h-37.277c-.82 0-1.487-.62-1.487-1.39 0-.767.666-1.388 1.487-1.388h37.278c.82 0 1.488.62 1.488 1.388zM170.178 208.443c0 .77-.668 1.392-1.487 1.392h-37.277c-.82 0-1.487-.622-1.487-1.392 0-.766.666-1.39 1.487-1.39h37.278c.82 0 1.488.624 1.488 1.39z"/><path fill="#FFF" d="M172.196 182.41a22.33 22.33 0 0 0 1.976-1.194v-3.22a19.647 19.647 0 0 1-3.417 2.26l-4.05-8.94 7.467-3.385v-2.276l-8.326 3.77-2.704-5.963 10.517-4.764c.18.42.35.842.512 1.266v-4.647c-1-1.792-2.15-3.452-3.38-4.98l3.38-1.53v-4.137h-5.606a19.626 19.626 0 0 1 4.486 2.364l-3.658 1.656a51.398 51.398 0 0 0-4.03-4.02h-3.118c1.636 1.41 3.444 3.034 5.195 4.905l-8.788 3.983-3.98-8.78c.102-.038.2-.072.297-.107h-5.6c-8.746 5.917-12.22 17.444-7.715 27.39a22 22 0 0 0 9.682 10.35h10.43c-1.958-1.693-4.155-3.69-6.2-6.044l9.245-4.19 4.05 8.938c-1.92.75-3.895 1.17-5.862 1.297h9.196zm-3.313-31.21c1.43 1.688 2.76 3.558 3.867 5.628l-10.465 4.738-2.773-6.12 9.37-4.247zm-8.49 11.226l-10.464 4.743c-.83-2.195-1.355-4.43-1.686-6.618l9.375-4.248 2.774 6.122zm-12.66-13.03a19.362 19.362 0 0 1 5.052-3.763l3.976 8.78-8.786 3.982c-.328-3.314-.275-6.428-.24-9zm-2.08 2.556c-.024 2.278.054 4.762.368 7.328l-3.654 1.656a19.62 19.62 0 0 1 3.288-8.984zm-3.387 11.31l4.075-1.847c.38 2.18.953 4.392 1.79 6.566l-4.528 2.057c-.87-2.218-1.3-4.51-1.336-6.776zm2.19 8.665l4.487-2.033c.957 2.044 2.152 3.91 3.46 5.62l-3.874 1.757a19.416 19.416 0 0 1-4.074-5.343zm14.22 10.276a19.612 19.612 0 0 1-8.354-3.464l3.437-1.557c1.592 1.86 3.293 3.522 4.916 5.02zm-4.472-7.505c-1.312-1.697-2.506-3.564-3.47-5.615l10.52-4.765 2.703 5.964-9.753 4.416z"/><ellipse fill="#FCD22E" cx="59.032" cy="144.145" rx=".051" ry=".034"/></g><path opacity=".3" fill="#6B422D" d="M124.385 167.07a3.46 3.46 0 0 0-4.5-1.91l-18.442 7.445-2.525-2.014c-1.045-.834-2.862-.3-4.052 1.192-.02.027-.037.057-.057.084l-5.87 5.838c-2.503 1.232-4.25 3.082-5.265 5.295-30.945 16.42-43.798 13.063-48.754 9.484-5.824-4.208-7.275-13.12-7.25-21.166.014-5.68-6.226-6.984-5.76-9.848l-13.506-7.582c-.592 3.54-6.113 30.873 8.068 48.538a35.43 35.43 0 0 0 6.832 6.52c15.318 11.114 37.46 9.033 67.555-6.392 2.523 1.243 5.434 1.512 8.498.485l.037.028.71-.287a.258.258 0 0 1 .02-.006l1.813-.73c.008-.004.015-.008.022-.01l11.105-4.483a3.46 3.46 0 0 0 1.91-4.5c-.713-1.77-3.09-2.624-4.862-1.91l-.438.03 2.08-.695c1.777-.716 2.81-2.73 2.098-4.5-.618-1.53-2.118-2.373-3.68-2.113 1.307-.897 1.908-2.606 1.292-4.137a3.434 3.434 0 0 0-3.76-2.112l-.063-.06 14.83-5.984a3.463 3.463 0 0 0 1.913-4.5z"/><g><path fill="#FCD22E" d="M226.795 21.755c-3.7 9.75-11.156 17.63-20.59 21.906a39.468 39.468 0 0 1 20.59 21.907 39.455 39.455 0 0 1 20.6-21.906 39.487 39.487 0 0 1-20.6-21.905z"/><path fill="#FD7600" d="M226.795 32.626a19.883 19.883 0 0 1-10.383 11.035 19.815 19.815 0 0 1 10.383 11.033 19.836 19.836 0 0 1 10.37-11.032 19.91 19.91 0 0 1-10.37-11.034z"/><path fill="#FCD22E" d="M243.175 6.216a19.31 19.31 0 0 1-10.064 10.712 19.28 19.28 0 0 1 10.065 10.706 19.264 19.264 0 0 1 10.063-10.706 19.288 19.288 0 0 1-10.063-10.712z"/><path fill="#FD7600" d="M243.175 11.53a9.745 9.745 0 0 1-5.076 5.398 9.677 9.677 0 0 1 5.075 5.39 9.658 9.658 0 0 1 5.067-5.39 9.717 9.717 0 0 1-5.067-5.4z"/><g><path fill="#FCD22E" d="M208.176 0a27.85 27.85 0 0 1-14.526 15.454 27.858 27.858 0 0 1 14.526 15.458 27.84 27.84 0 0 1 14.53-15.458A27.833 27.833 0 0 1 208.177 0z"/><path fill="#FD7600" d="M208.176 7.673a14.042 14.042 0 0 1-7.325 7.78 13.983 13.983 0 0 1 7.326 7.782 13.97 13.97 0 0 1 7.317-7.78 14.038 14.038 0 0 1-7.317-7.782z"/></g></g><path fill="#FDDBA4" d="M16.47 197.536c-18.197-18.615-5.544-39.86-4.952-43.4l10.39 2.444c-.465 2.863 5.774 4.167 5.76 9.848-.024 8.048 1.426 16.96 7.25 21.166 5.123 3.698 18.675 7.16 51.91-11.193l10.16 18C63.744 212.753 39.64 215.91 23.3 204.056a35.426 35.426 0 0 1-6.83-6.52z"/><g><path fill="#E8C08B" d="M90.575 180.942c-.95.945-2.81.613-4.157-.742-1.345-1.353-1.67-3.215-.72-4.16l9.616-9.568c.953-.946 2.812-.61 4.16.74 1.35 1.352 1.67 3.216.722 4.162l-9.62 9.568z"/><path fill="#E8C08B" d="M109.525 174.16c1.046.834.93 2.72-.264 4.213-1.19 1.493-3 2.025-4.05 1.195l-10.608-8.46c-1.04-.834-.927-2.723.264-4.216 1.19-1.492 3.007-2.027 4.052-1.19l10.607 8.458z"/><path fill="#FDDBA4" d="M69.212 205.392c-3.934 1.59-8.673-.948-10.58-5.673-1.906-4.723-.26-9.84 3.68-11.433l29.485-11.9c3.935-1.588 8.675.95 10.58 5.673 1.907 4.722.26 9.84-3.676 11.428l-29.488 11.904z"/><g fill="#FDDBA4"><path d="M98.61 176.312a3.458 3.458 0 1 1-2.588-6.41l23.862-9.634a3.46 3.46 0 0 1 4.5 1.91 3.463 3.463 0 0 1-1.91 4.5l-23.863 9.634z"/><path d="M91.65 186.582a3.456 3.456 0 0 1-4.497-1.916 3.454 3.454 0 0 1 1.908-4.5l17.946-7.243a3.457 3.457 0 0 1 2.588 6.413l-17.943 7.246z"/><path d="M94.17 192.83a3.454 3.454 0 0 1-4.496-1.915 3.45 3.45 0 0 1 1.908-4.496l17.948-7.247a3.458 3.458 0 0 1 4.5 1.912 3.46 3.46 0 0 1-1.916 4.5L94.17 192.83zM99.393 198.18c-3.776-3.054-3.787-.14-4.503-1.914l.99-.396c-.716-1.772-.847-3.39.927-4.102l13.667-5.518a3.458 3.458 0 0 1 4.5 1.91 3.46 3.46 0 0 1-1.91 4.5l-13.67 5.52z"/><path d="M100.124 197.885c-7.04 2.84-13.406-1.226-16.245-8.262-2.842-7.038-1.083-14.382 5.955-17.225l6.188-2.496c7.035-2.842 10.67 2.327 13.51 9.366 2.843 7.036-.56 15.046-7.597 17.887l-1.812.73z"/></g><path opacity=".4" fill="#B29076" d="M121.977 165.74c-1.263.51-2.042-.362-2.55-1.625-.51-1.262-.56-2.435.706-2.944 1.263-.508 2.62.136 3.128 1.395.51 1.262-.02 2.67-1.283 3.176z"/><g fill="#70462D" opacity=".4"><path opacity=".3" d="M113.46 169.2a.228.228 0 0 1-.302-.13l-1.638-4.057a.234.234 0 0 1 .128-.306.23.23 0 0 1 .305.132l1.637 4.057a.23.23 0 0 1-.13.304zM112.506 169.587a.233.233 0 0 1-.304-.13l-1.64-4.055a.24.24 0 0 1 .132-.31.235.235 0 0 1 .304.133l1.637 4.055c.05.122-.01.26-.13.307zM111.387 169.975a.24.24 0 0 1-.31-.13l-1.634-4.057a.234.234 0 1 1 .434-.177l1.636 4.06c.05.118-.01.253-.126.305z"/></g></g><path fill="#72AF2D" d="M5.672 163.396l-3.75 5.06 31.49 17.71.952-12.433s-6.235-17.326-6.54-17.02c-.307.305-15.884-8.727-15.884-8.727l-6.268 10.38v5.03z"/><g><g opacity=".2" fill="#484747"><path d="M241.334 77.62c-.022-1.724-1.278-3.177-2.807-3.245l-12.735-.625c-1.526-.063-2.75 1.29-2.723 3.02.02 1.735 1.28 3.185 2.806 3.246l12.734.628c1.53.063 2.747-1.29 2.724-3.023zM243.246 84.8c-.024-1.73-1.28-3.183-2.81-3.248l-17.532-.754c-1.525-.064-2.75 1.29-2.724 3.018.023 1.734 1.277 3.185 2.804 3.25l17.535.755c1.526.064 2.745-1.287 2.726-3.02zM242.11 92.155c-.022-1.73-1.28-3.182-2.808-3.248l-15.19-.69c-1.53-.068-2.748 1.29-2.725 3.015.02 1.736 1.28 3.186 2.807 3.247l15.19.696c1.53.06 2.747-1.29 2.725-3.02zM239.75 99.027c-.02-1.526-1.13-2.81-2.48-2.87l-9.682-.51c-1.345-.056-2.43 1.14-2.407 2.67.02 1.534 1.134 2.815 2.48 2.87l9.68.516c1.353.05 2.43-1.14 2.41-2.676z"/></g><path fill="#FDDBA4" d="M239.503 80.444c1.528.062 2.747-1.29 2.726-3.024-.022-1.727-1.28-3.18-2.808-3.245l-12.735-.625c-1.526-.064-2.75 1.29-2.725 3.02.022 1.734 1.28 3.183 2.806 3.246l12.735.628z"/><path opacity=".4" fill="#B29076" d="M226.843 78.864c1.088.044 1.394-.945 1.376-2.176-.017-1.235-.344-2.25-1.435-2.292-1.09-.047-1.957.92-1.94 2.15.016 1.237.914 2.273 1.998 2.318zM234.198 79.178c.102.01.182-.083.182-.203l-.05-3.966c-.005-.117-.088-.217-.19-.223-.106-.003-.19.09-.185.207l.05 3.97c.002.115.09.213.193.214zM235.02 79.214c.103.007.187-.085.187-.204l-.052-3.964c-.003-.12-.092-.223-.193-.227-.1-.004-.183.09-.185.208l.055 3.965c0 .12.084.22.19.22zM235.966 79.2c.103.002.187-.09.185-.207l-.05-3.966c-.003-.122-.09-.217-.192-.22-.102-.008-.183.088-.184.205l.055 3.965c-.003.116.08.214.186.222z"/><path fill="#FDDBA4" d="M241.415 87.62c1.526.063 2.744-1.288 2.724-3.022-.023-1.728-1.278-3.182-2.808-3.245l-17.533-.756c-1.53-.062-2.75 1.29-2.726 3.018.022 1.737 1.28 3.185 2.805 3.25l17.535.756z"/><path opacity=".4" fill="#B29076" d="M223.952 85.913c1.092.04 1.393-.944 1.377-2.18-.02-1.232-.345-2.248-1.437-2.288-1.086-.046-1.957.92-1.94 2.152.016 1.234.914 2.27 2 2.316zM231.305 86.228c.105.008.186-.086.183-.204l-.053-3.968c0-.114-.085-.216-.187-.222-.105-.003-.186.09-.186.208l.053 3.967c0 .118.085.215.19.218z"/><path fill="#DFB471" d="M232.13 86.264c.103.003.182-.09.185-.206l-.053-3.963c-.003-.12-.09-.225-.192-.227-.1-.004-.186.09-.186.208l.055 3.963c0 .12.087.222.19.224z"/><path opacity=".4" fill="#B29076" d="M233.074 86.248c.104 0 .188-.09.188-.206l-.053-3.968c-.003-.12-.09-.215-.195-.217-.1-.01-.18.086-.18.202l.053 3.962c.002.118.083.218.186.226z"/><path fill="#FDDBA4" d="M240.28 94.974c1.528.062 2.747-1.29 2.724-3.02-.02-1.73-1.278-3.182-2.807-3.25l-15.19-.69c-1.528-.066-2.748 1.29-2.723 3.017.02 1.735 1.278 3.187 2.807 3.25l15.19.694z"/><path opacity=".4" fill="#B29076" d="M225.163 93.33c1.088.04 1.39-.947 1.376-2.18-.016-1.234-.347-2.245-1.435-2.29-1.09-.046-1.955.92-1.94 2.153.015 1.233.912 2.27 1.998 2.316z"/><path fill="#DFB471" d="M232.514 93.644c.106.01.186-.086.182-.204l-.05-3.967c-.004-.115-.086-.216-.188-.22-.104-.004-.187.09-.185.207l.053 3.967c.003.116.086.214.188.217z"/><path opacity=".4" fill="#B29076" d="M233.338 93.68c.105.005.186-.088.184-.206l-.05-3.963c-.003-.118-.086-.223-.192-.227-.103-.002-.184.092-.184.207l.053 3.967c0 .12.084.22.188.222zM234.283 93.665c.108.002.188-.09.188-.207l-.052-3.967c0-.12-.09-.216-.195-.218-.1-.01-.18.09-.18.205l.052 3.963c.002.118.086.218.188.225z"/><path fill="#FDDBA4" d="M238.237 101.502c1.35.052 2.427-1.14 2.41-2.676-.02-1.525-1.133-2.81-2.482-2.868l-9.683-.51c-1.346-.06-2.428 1.14-2.407 2.667.02 1.536 1.134 2.817 2.482 2.87l9.68.517z"/><path opacity=".4" fill="#B29076" d="M228.623 100.147c.963.038 1.23-.837 1.213-1.927-.01-1.094-.302-1.987-1.27-2.022-.96-.044-1.728.812-1.716 1.9.02 1.093.81 2.01 1.773 2.05zM235.123 100.426c.093.004.162-.077.16-.182l-.042-3.505c-.004-.104-.077-.195-.17-.197-.09-.004-.163.08-.16.182l.046 3.51c0 .098.074.188.167.19zM235.85 100.456c.092.005.163-.078.163-.18l-.043-3.505c-.003-.106-.08-.198-.17-.198-.088-.005-.164.08-.162.18l.046 3.508c0 .107.075.196.166.196zM236.686 100.443c.093.002.167-.083.166-.182l-.045-3.508c0-.107-.08-.19-.172-.195-.09-.004-.16.08-.16.183l.046 3.507c0 .102.076.188.166.196z"/></g></svg>