<svg xmlns="http://www.w3.org/2000/svg" xmlns:xlink="http://www.w3.org/1999/xlink" width="327.852" height="312.875" viewBox="0 0 327.852 312.875"><ellipse fill="#F6F6F6" cx="194.934" cy="298.957" rx="132.918" ry="13.919"/><path fill="#C69B71" d="M38.516 115.17c-.5.012-9.05-19.87-9.05-19.87S47.23 84.127 52.03 84.08c4.8-.052 8.153 19.765 7.554 20.52-.6.757-14.774 9.49-14.774 9.49l-6.294 1.08z"/><path fill="#2A5CA6" d="M146.812 224.7l-3.25 47.364c5.688 16.422 16.752 24.406 40.172 23.076 23.423-1.33 74.188 18.066 57.7-70.248-43.446 19.32-86.74 3.97-94.622-.192z"/><path fill="#009995" d="M221.52 113.76h-55.775c-18.118 0-32.583 9.856-32.583 22.393l6.762 32.662 1.932 17.537c0 1.215 1.864 42.254 2.24 45.933a15.42 15.42 0 0 0-.53 2.194c-5.795 37.634 9.302 24.75 21.45 14.743 12.145-10.006 20.492 5.523 34.298 7.062 13.81 1.54 18.338 2.358 30.32-.72 11.985-3.078 15.55 4.158 14.553-22.742-.01-.235-.04-.463-.062-.692.02 0 .042 0 .062-.005.213-.938 2.1-44.68 2.1-45.77l.965-17.134 6.762-33.066c-.006-12.538-14.37-22.394-32.494-22.394z"/><path fill="#009995" d="M242.874 119.39a2.63 2.63 0 0 0-3.644.76l-21.652 33.042a2.63 2.63 0 0 0 .76 3.646l46.81 30.67a2.634 2.634 0 0 0 3.645-.758l21.65-33.04a2.644 2.644 0 0 0-.763-3.65l-46.806-30.67z"/><path fill="#F7CC9A" d="M87.268 188.245c-3.3 0-6.664-.423-10.06-1.377-20.924-5.88-34.49-28.83-41.47-70.175l21.91-3.697c6.98 41.337 18.996 50.62 25.54 52.473 12.694 3.603 29.95-12.023 34.993-17.78l16.762 14.585c-2.568 2.96-23.338 25.97-47.674 25.97z"/><path fill="#009995" d="M143.97 119.39a2.626 2.626 0 0 1 3.643.76l21.65 33.042a2.63 2.63 0 0 1-.758 3.646l-46.807 30.67a2.633 2.633 0 0 1-3.645-.758L96.4 153.71a2.64 2.64 0 0 1 .764-3.65l46.807-30.67z"/><path fill="#72AF2D" d="M152.13 284.307c1.48 7.486-3.388 14.764-10.88 16.248l-30.67 6.068c-7.49 1.48-14.767-3.39-16.25-10.88-1.482-7.49 5.32-12.835 12.813-14.315l28.738-5.105c7.49-1.483 14.766.49 16.25 7.984z"/><path fill="#D9D9D9" d="M133.673 278.904c6.46-.504 11.396-.905 15.098-1.225a12.836 12.836 0 0 0-.803-.813c-4.93.178-9.756.35-9.716.196.083-.33-1.313-2.52-3.02-2.545-7.913-.11-28.087 6.906-28.087 6.906-7.493 1.48-14.295 6.826-12.812 14.316a13.766 13.766 0 0 0 2.42 5.48c-2.27-3.313-10.046-18.634 36.923-22.316z"/><path fill="#72AF2D" d="M235.217 284.413c-1.48 7.487 3.39 14.767 10.88 16.25l30.67 6.07c7.49 1.48 14.77-3.392 16.25-10.882 1.483-7.49-5.32-12.833-12.81-14.314l-28.737-5.104c-7.495-1.487-14.77.488-16.253 7.98z"/><path opacity=".1" fill="#010100" d="M137.22 249.004s7.51-14.43 6.976-17.422c-.633-3.54-2.688-48.367-3.808-56.322-.42-2.99 10.937 58.094 12.008 68.96 1.07 10.868-10.624 5.556-10.624 5.556"/><path fill="#D9D9D9" d="M253.673 279.016a2171.61 2171.61 0 0 1-15.1-1.225c.26-.282.526-.558.807-.813 4.93.176 9.757.35 9.718.197-.084-.332 1.312-2.52 3.02-2.547 7.914-.11 28.086 6.908 28.086 6.908 7.49 1.48 14.296 6.824 12.812 14.314a13.724 13.724 0 0 1-2.42 5.478c2.272-3.312 10.05-18.635-36.923-22.312z"/><path fill="#68A030" d="M253.673 281.863s.507 1.386 3.417 1.994c2.91.605 6.742 1.853 7.946 1.713 1.206-.14 6.575.35 7.73 2.11 1.15 1.76.853 14.393-3.808 15.485-4.657 1.098-21.94-2.953-23.876-3.428-1.934-.47 8.59-17.874 8.59-17.874z"/><path opacity=".1" fill="#010100" d="M244.846 175.154s-3.796 26.32-3.652 32.6c.143 6.28-.963 23.762-2.618 27.864-1.654 4.104-1.593 5.07 0 8.604 1.593 3.532 3.05-3.673 1.597 1.186-1.455 4.854 3.656-4.56 3.656-4.56s.735-22.437 1.485-31.64c.88-10.777 1.574-33.663 1.574-33.663s-4.09-.78-2.044-.39z"/><path opacity=".05" fill="#010100" d="M275.662 288.206s-1.482 13.825-3.4 15.54c10.162 1.687 15.606-1.376 16.747-6.525 1.142-5.152-8.358-9.497-13.348-9.014z"/><path fill="#EDEDED" d="M268.17 245.982a3.338 3.338 0 0 1-3.34 3.343H121.863a3.34 3.34 0 0 1-3.34-3.343v-116.36a3.342 3.342 0 0 1 3.34-3.348h142.97a3.34 3.34 0 0 1 3.34 3.347v116.362z"/><path fill="#444" d="M268.17 139.647V129.62a3.34 3.34 0 0 0-3.34-3.346H121.863a3.342 3.342 0 0 0-3.34 3.347v10.027h149.65z"/><path fill="#2CB740" d="M128.47 133.14a2.645 2.645 0 0 1-2.645 2.645 2.645 2.645 0 0 1 0-5.29 2.647 2.647 0 0 1 2.645 2.645z"/><path fill="#F16442" d="M136.533 133.14a2.648 2.648 0 0 1-2.65 2.645 2.645 2.645 0 1 1 2.65-2.645z"/><path fill="#FFF" d="M262.652 132.98a2.647 2.647 0 0 1-2.646 2.647H140.84a2.65 2.65 0 0 1-2.644-2.648 2.65 2.65 0 0 1 2.645-2.647H260.01a2.645 2.645 0 0 1 2.644 2.646z"/><path opacity=".2" fill="#444" d="M146.62 146.422c0 .945.77 1.716 1.716 1.716h114.02c.948 0 1.712-.77 1.712-1.716 0-.947-.764-1.71-1.71-1.71H148.335c-.946 0-1.717.763-1.717 1.71zM142.882 146.422a2.495 2.495 0 0 1-2.493 2.496h-15.266a2.496 2.496 0 0 1-2.492-2.496 2.49 2.49 0 0 1 2.492-2.49h15.265a2.49 2.49 0 0 1 2.492 2.49z"/><path fill="#FF5C5C" d="M118.52 152.632h149.65v40.62H118.52z"/><path opacity=".2" fill="#444" d="M123.066 226.676h43.926v18.13h-43.926zM172.025 226.676h43.926v18.13h-43.925zM220.148 226.676h43.92v18.13h-43.92z"/><path fill="#444" d="M216.384 201.355c0 .824-.708 1.494-1.575 1.494h-90.6c-.872 0-1.577-.67-1.577-1.495 0-.823.706-1.496 1.576-1.496h90.6c.866 0 1.574.672 1.574 1.495zM216.384 208.034c0 .825-.708 1.495-1.575 1.495h-90.6c-.872 0-1.577-.67-1.577-1.496s.706-1.492 1.576-1.492h90.6c.866 0 1.574.666 1.574 1.492zM216.384 214.624c0 .826-.708 1.49-1.575 1.49h-90.6c-.872 0-1.577-.664-1.577-1.49 0-.822.706-1.488 1.576-1.488h90.6c.866 0 1.574.665 1.574 1.488zM216.384 221.204c0 .83-.708 1.496-1.575 1.496h-90.6c-.872 0-1.577-.666-1.577-1.496 0-.822.706-1.492 1.576-1.492h90.6c.866 0 1.574.67 1.574 1.492z"/><path fill="#FFF" d="M164.56 163.11c0 .827-.707 1.493-1.576 1.493h-32.938c-.87 0-1.576-.666-1.576-1.492 0-.824.708-1.5 1.576-1.5h32.938c.87 0 1.575.676 1.575 1.5zM189.35 169.788c0 .825-.703 1.496-1.57 1.496h-57.732c-.87 0-1.576-.67-1.576-1.496s.708-1.494 1.576-1.494h57.732c.866 0 1.57.667 1.57 1.494zM189.35 176.375c0 .828-.703 1.492-1.57 1.492h-57.732c-.87 0-1.576-.664-1.576-1.492 0-.824.708-1.49 1.576-1.49h57.732c.866 0 1.57.666 1.57 1.49zM189.35 182.954c0 .832-.703 1.496-1.57 1.496h-57.732c-.87 0-1.576-.664-1.576-1.496 0-.818.708-1.486 1.576-1.486h57.732c.866 0 1.57.667 1.57 1.486z"/><path fill="#444" d="M264.068 201.355c0 .824-.717 1.494-1.594 1.494h-40.07c-.88 0-1.596-.67-1.596-1.495 0-.823.717-1.496 1.596-1.496h40.07c.878 0 1.594.672 1.594 1.495zM264.068 208.034c0 .825-.717 1.495-1.594 1.495h-40.07c-.88 0-1.596-.67-1.596-1.496s.717-1.492 1.596-1.492h40.07c.878 0 1.594.666 1.594 1.492zM264.068 214.624c0 .826-.717 1.49-1.594 1.49h-40.07c-.88 0-1.596-.664-1.596-1.49 0-.822.717-1.488 1.596-1.488h40.07c.878 0 1.594.665 1.594 1.488zM264.068 221.204c0 .83-.717 1.496-1.594 1.496h-40.07c-.88 0-1.596-.666-1.596-1.496 0-.822.717-1.492 1.596-1.492h40.07c.878 0 1.594.67 1.594 1.492z"/><path fill="#FFF" d="M266.24 193.225a23.78 23.78 0 0 0 2.123-1.283v-3.46a20.925 20.925 0 0 1-3.672 2.428l-4.353-9.604 8.024-3.642v-2.445l-8.947 4.05-2.905-6.41 11.305-5.12c.194.453.38.906.55 1.36v-4.993a38.026 38.026 0 0 0-3.636-5.35l3.637-1.647v-4.447h-6.026a21.01 21.01 0 0 1 4.82 2.538l-3.93 1.783a54.424 54.424 0 0 0-4.333-4.32h-3.35c1.755 1.517 3.7 3.262 5.582 5.27l-9.445 4.278-4.273-9.437c.104-.037.21-.078.315-.113h-6.02c-9.402 6.357-13.137 18.75-8.294 29.44a23.68 23.68 0 0 0 10.406 11.12h11.21c-2.104-1.818-4.464-3.968-6.66-6.496l9.935-4.502 4.353 9.604a20.78 20.78 0 0 1-6.297 1.395l9.884.005zm-3.56-33.545c1.535 1.814 2.97 3.82 4.155 6.053l-11.243 5.09-2.984-6.577 10.072-4.566zm-9.125 12.067l-11.244 5.1c-.895-2.36-1.458-4.764-1.81-7.116l10.075-4.56 2.98 6.577zm-13.607-14.008a20.952 20.952 0 0 1 5.43-4.042l4.276 9.437-9.447 4.277c-.353-3.56-.294-6.906-.26-9.673zm-2.234 2.75c-.026 2.443.058 5.117.396 7.878l-3.928 1.78a21.03 21.03 0 0 1 3.532-9.66zm-3.646 12.155l4.383-1.983c.41 2.342 1.022 4.72 1.924 7.06l-4.865 2.204a20.877 20.877 0 0 1-1.442-7.28zm2.357 9.314l4.822-2.187c1.028 2.194 2.312 4.2 3.72 6.037l-4.164 1.89a20.864 20.864 0 0 1-4.378-5.74zM251.71 193a21.034 21.034 0 0 1-8.978-3.725l3.693-1.67c1.714 2.002 3.54 3.786 5.285 5.394zm-4.806-8.064c-1.413-1.82-2.695-3.832-3.73-6.035l11.305-5.117 2.9 6.41-10.476 4.743z"/><ellipse fill="#FCD22E" cx="144.615" cy="152.098" rx=".056" ry=".037"/><path fill="#FFF" d="M264.11 303.65h-.036c-.68-.02-.78-.02-.834-8.655-.018-2.896-.04-6.625-.193-8.414-.385 1.023-.915 2.73-1.402 4.296-1.97 6.35-3.482 10.892-5.03 11.54a.925.925 0 0 1-.897-.075c-1.242-.81-1.402-5.12-1.516-12.117-.053-3.287-.104-6.69-.456-7.492l.886-.384c.404.93.47 3.594.536 7.86.062 3.803.177 10.875 1.083 11.326 1.24-.53 3.27-7.05 4.476-10.94 1.576-5.078 1.852-5.73 2.45-5.777.25-.02.454.104.57.338.38.738.428 4.21.46 9.838.014 2.45.03 5.347.127 6.882.48-.975 1.184-2.557 1.83-4.008 3.23-7.252 4.755-10.305 5.82-10.45a.7.7 0 0 1 .65.26c1.27 1.546-2.14 12.366-3.214 15.647l-.92-.3c1.988-6.062 3.786-13.035 3.47-14.52-1.02.995-3.534 6.638-4.924 9.76-2.273 5.095-2.457 5.39-2.935 5.39z"/><path fill="#204C9A" d="M246.74 271.898c14.533 4.1 6.92-.323 3.71 11.062l-4.212 6.035c-3.21 11.385 7.72 15.96-4.527 10.676-35.62-5.645-122.234-27.616-122.234-27.616-14.533-4.102-23.71-16.65-20.497-28.04 3.21-11.388 16.22-14.917 30.61-10.34C178.987 249.27 246.74 271.9 246.74 271.9z"/><path opacity=".1" fill="#010100" d="M139.538 271.952c-14.572 4.086-6.786-.46-4.388 11.64l3.738 6.458c2.397 12.103-8.663 16.75 3.74 11.37 35.424-5.355 122.117-27.105 122.117-27.105 14.57-4.084 24.438-17.207 22.04-29.312-2.396-12.1-14.96-16.06-29.426-11.46-49.643 15.64-117.822 38.41-117.822 38.41z"/><g opacity=".3" fill="#010100"><path d="M101.176 239.243c-.022.032-.045.07-.07.106.052-.06.07-.092.07-.107zM234.092 292.502c-.203-6.02-4.025-8.213-9.263-3.137-5.24 5.08-2.8.89-5.798-1.197-3-2.092-19.313-8.438-24.69-12.307-5.375-3.866-29.83 3.802-40.305 0-10.474-3.798-42.352-10.145-44.284-19.08-1.864-8.622-10.062-14.563-8.818-17.153a16.47 16.47 0 0 0-1.956 4.387c-3.213 11.392 5.963 23.94 20.496 28.04 0 0 86.615 21.974 122.235 27.62.87.373 1.613.69 2.26.97a1004.9 1004.9 0 0 1 2.726-1.69c-.137-.355-.27-.743-.398-1.163-4.55.162-12.057-.968-12.206-5.288z"/></g><path fill="#2A5CA6" d="M137.22 272.58c-14.534 4.1-3.733-1.005-.523 10.384l4.21 6.035c3.213 11.384-7.72 15.958 4.528 10.675 35.622-5.646 122.237-27.618 122.237-27.618 14.533-4.1 23.71-16.65 20.496-28.04-3.21-11.387-16.223-14.917-30.61-10.337-56.51 23.1-120.34 38.9-120.34 38.9z"/><path opacity=".3" fill="#010100" d="M145.434 299.674c35.62-5.646 122.237-27.62 122.237-27.62 14.534-4.1 23.71-16.648 20.497-28.04-.27-.96-.616-1.858-1.022-2.71.36 6.73-7.858 13.79-21.246 24.17-13.394 10.386-57.61 17.632-74.276 20.446-16.663 2.814-21.734 2.256-24.443 5.562-2.71 3.31-6.226 1.764-11.55-2.117-4.466-3.25-11.36 1.508-14.138 3.05.177 2.856-.486 5.12-1.104 6.712 0 .812.005 1.688.008 2.61.862-.257 2.416-.932 5.038-2.063z"/><path opacity=".1" fill="#010100" d="M135.605 280.788s6.455-4.192 10.238 2.026c3.786 6.222 11.02 12.804 3.985 14.45-7.035 1.645-13.794 4.284-12.26-1.43 1.53-5.71-1.963-15.046-1.963-15.046z"/><path fill="#68A030" d="M133.673 281.754s6.455-4.19 10.24 2.027c3.783 6.22 11.018 12.802 3.982 14.45-7.033 1.646-13.792 4.287-12.26-1.43 1.53-5.71-1.962-15.046-1.962-15.046z"/><path fill="#68A030" d="M133.673 281.754s-.507 1.387-3.417 1.996c-2.91.605-6.74 1.85-7.944 1.71-1.208-.138-6.574.353-7.73 2.11-1.153 1.762-.853 14.393 3.805 15.486 4.657 1.1 21.942-2.95 23.876-3.43 1.935-.472-8.59-17.872-8.59-17.872z"/><path opacity=".05" fill="#010100" d="M111.685 288.096s1.48 13.826 3.4 15.543c-10.162 1.684-15.604-1.374-16.747-6.528-1.143-5.153 8.357-9.5 13.347-9.016z"/><path fill="#FFF" d="M123.235 303.543c-.477 0-.66-.295-2.935-5.396-1.392-3.123-3.906-8.766-4.922-9.76-.317 1.482 1.48 8.46 3.468 14.52l-.92.302c-1.075-3.28-4.487-14.105-3.214-15.647a.706.706 0 0 1 .65-.26c1.066.143 2.587 3.197 5.82 10.45.648 1.448 1.35 3.03 1.833 4.01.094-1.54.112-4.435.126-6.884.035-5.632.083-9.103.463-9.84.118-.23.323-.355.57-.34.598.054.873.698 2.452 5.78 1.207 3.89 3.232 10.408 4.48 10.932.897-.44 1.012-7.516 1.073-11.314.07-4.27.132-6.934.54-7.865l.884.388c-.35.804-.404 4.204-.458 7.495-.112 6.995-.27 11.305-1.514 12.114a.918.918 0 0 1-.898.072c-1.547-.647-3.06-5.188-5.032-11.534-.486-1.565-1.016-3.274-1.4-4.3-.153 1.792-.175 5.522-.193 8.415-.053 8.64-.157 8.64-.835 8.658-.013.003-.026.003-.037.003z"/><path fill="#FFF" d="M123.235 303.543c-.477 0-.66-.295-2.935-5.396-.222-.496-.472-1.06-.74-1.653l-.695 6.618a.482.482 0 0 1-.938.1c-1.076-3.28-4.488-14.104-3.215-15.647a.706.706 0 0 1 .65-.26c.785.104 1.82 1.795 3.605 5.58l.608-5.807a.487.487 0 0 1 .402-.428c.22-.04.425.076.517.272l2.662 5.685c.04-4.293.12-6.937.447-7.568a.598.598 0 0 1 .57-.337c.598.05.873.697 2.452 5.777.237.77.51 1.647.802 2.562l1.168-7.602a.483.483 0 0 1 .403-.4.47.47 0 0 1 .506.256 75.424 75.424 0 0 0 2.677 4.73c.07-4.23.134-6.867.538-7.794l.885.388c-.35.803-.404 4.202-.458 7.493l-.024 1.4c1.884 2.896 4.038 5.674 5.623 6.27l-.34.9c-1.62-.608-3.582-2.948-5.32-5.477-.127 5.166-.403 8.334-1.452 9.02a.916.916 0 0 1-.897.072c-.958-.4-1.904-2.297-2.954-5.188l-.645 4.183a.477.477 0 0 1-.408.404.49.49 0 0 1-.508-.273l-2.13-4.543c-.06 6.642-.197 6.644-.82 6.66-.01.003-.024.003-.035.003zm-3.475-8.947c.435.947.907 2 1.423 3.158.647 1.45 1.35 3.03 1.832 4.01.094-1.54.112-4.434.126-6.883v-.024l-2.784-5.948-.596 5.688zm8.333.477c1.04 3.07 2.192 5.995 3.014 6.342.775-.383.966-5.717 1.043-9.61a79.072 79.072 0 0 1-2.82-4.774l-1.237 8.043zm-12.715-6.686c-.28 1.307 1.08 6.88 2.77 12.328l.625-5.963c-1.27-2.76-2.693-5.677-3.395-6.365zm8.73 6.254l2.313 4.942.682-4.42a223.2 223.2 0 0 1-1.402-4.395c-.486-1.564-1.016-3.275-1.4-4.3-.15 1.744-.175 5.317-.192 8.174z"/><ellipse transform="rotate(157.16 140.38 290.34)" opacity=".1" fill="#010100" cx="140.371" cy="290.344" rx="2.833" ry="4.637"/><path opacity=".1" fill="#010100" d="M251.273 281.754s-6.455-4.19-10.24 2.027c-3.784 6.222-11.018 12.802-3.984 14.45 7.034 1.646 13.793 4.287 12.26-1.43-1.53-5.71 1.963-15.046 1.963-15.046z"/><path fill="#68A030" d="M253.205 282.72s-6.455-4.192-10.24 2.028c-3.783 6.22-11.017 12.8-3.984 14.447 7.036 1.647 13.796 4.285 12.264-1.426-1.532-5.71 1.96-15.05 1.96-15.05z"/><ellipse transform="rotate(22.84 246.54 291.343)" opacity=".1" fill="#010100" cx="246.505" cy="291.311" rx="2.833" ry="4.636"/><path fill="#FFF" d="M264.11 303.65h-.036c-.622-.018-.76-.02-.82-6.66l-2.128 4.548c-.09.19-.288.3-.507.274a.487.487 0 0 1-.41-.406l-.644-4.186c-1.05 2.896-1.994 4.79-2.952 5.193a.93.93 0 0 1-.898-.076c-1.05-.686-1.325-3.854-1.454-9.02-1.736 2.53-3.697 4.867-5.318 5.48l-.34-.906c1.586-.596 3.74-3.374 5.623-6.27-.008-.455-.018-.924-.024-1.404-.052-3.286-.104-6.69-.456-7.49l.886-.387c.403.926.47 3.56.536 7.79a73.003 73.003 0 0 0 2.675-4.73.48.48 0 0 1 .508-.255.48.48 0 0 1 .402.4l1.168 7.602c.29-.91.562-1.79.805-2.562 1.578-5.078 1.852-5.727 2.45-5.775.25-.02.454.104.57.336.325.633.406 3.275.444 7.566l2.662-5.684a.483.483 0 0 1 .918.157l.61 5.808c1.784-3.787 2.82-5.48 3.604-5.584a.696.696 0 0 1 .648.26c1.27 1.544-2.14 12.364-3.214 15.646a.48.48 0 0 1-.51.328.48.48 0 0 1-.43-.432l-.693-6.615c-.27.596-.52 1.154-.74 1.652-2.274 5.105-2.458 5.4-2.936 5.4zm.096-8.69v.026c.013 2.45.032 5.346.126 6.883.48-.978 1.184-2.56 1.83-4.01.52-1.157.99-2.208 1.425-3.157l-.597-5.688-2.784 5.944zm-9.01-3.05c.077 3.897.27 9.232 1.053 9.622.814-.35 1.965-3.277 3.003-6.35l-1.235-8.046a79.035 79.035 0 0 1-2.823 4.775zm13.378 2.95l.626 5.967c1.687-5.453 3.047-11.02 2.77-12.332-.704.69-2.124 3.605-3.396 6.366zm-8.33.41l.68 4.42 2.314-4.94c-.02-2.855-.043-6.43-.192-8.17-.385 1.023-.915 2.73-1.4 4.296a228.59 228.59 0 0 1-1.4 4.395z"/><path opacity=".2" fill="#010000" d="M274.734 155.992l-4.953 14.247c4.708 5.88 11.155 25.363 5.65 37.326-2.805 6.088-13.442 16.304-53.007 16.927a11.6 11.6 0 0 0-.594-.37c-.077-.068-.142-.147-.224-.212l-12.453-9.712c-2.09-1.628-4.955-1.373-6.402.57-1.44 1.944-.92 4.84 1.17 6.47l2.056 1.605c-.123-.016-.242-.034-.37-.034l-17.74.353c-1.77.026-3.194 1.52-3.187 3.338.007 1.816 1.45 3.272 3.22 3.243l14.25-.285c-.004.194-.012.388-.014.59l-19.953.437c-1.77.022-3.195 1.52-3.187 3.334.007 1.816 1.452 3.27 3.22 3.245l20.07-.438v.066c0 .178 0 .348-.002.52l-17.22.37c-1.77.02-3.196 1.518-3.188 3.334.01 1.818 1.45 3.27 3.22 3.246l17.118-.367c.005.146.007.297.015.442l-11.184.228c-1.668.022-3.008 1.43-3 3.14.013 1.71 1.368 3.08 3.033 3.057l15.134-.308c.433.066.894.113 1.42.105l8.794-.13c3.096-.044 5.904-1.437 8.028-3.667 5.834-.137 11.306-.48 16.437-1.02l1.926-.044-.003-.17c27.744-3.267 44.898-12.698 52.175-28.6a38.005 38.005 0 0 0 2.946-9.71c3.94-24.016-20.78-48.13-23.204-51.128z"/><path fill="#FDDBA4" d="M281.734 153.867l-9.517 15.688c1.95 2.432-3.2 6.947-.185 12.254 4.27 7.518 7.624 16.62 4.396 23.634-2.804 6.09-13.44 16.3-53.004 16.926a11.32 11.32 0 0 0-.6-.376c-.074-.065-.137-.142-.217-.203l-12.453-9.716c-2.092-1.63-4.956-1.37-6.403.57-1.44 1.946-.92 4.84 1.17 6.473l2.055 1.602c-.12-.014-.242-.035-.367-.033l-17.742.352c-1.768.026-3.194 1.52-3.186 3.34.008 1.815 1.45 3.27 3.22 3.24l14.25-.286c-.005.195-.013.39-.013.592l-19.953.436c-1.77.023-3.195 1.52-3.187 3.334.007 1.818 1.452 3.27 3.222 3.246l20.068-.438v.066c.002.177 0 .348-.002.52l-17.22.367c-1.77.022-3.197 1.52-3.188 3.336s1.45 3.27 3.22 3.244l17.12-.367c.004.147.008.298.014.442l-11.184.226c-1.67.024-3.01 1.433-3.002 3.142.014 1.71 1.37 3.08 3.034 3.06l15.142-.31c.43.067.89.112 1.416.104l8.79-.13c3.1-.044 5.905-1.434 8.03-3.665 5.837-.14 11.31-.48 16.44-1.023l1.922-.04-.003-.172c27.744-3.265 44.9-12.696 52.174-28.596a38.032 38.032 0 0 0 2.948-9.712c3.94-24.02-14.78-48.133-17.204-51.13z"/><path fill="#F7CC9A" d="M31.158 112.703c1.173 6.746 8.235 11.152 15.773 9.837 7.537-1.312 12.694-7.84 11.518-14.59l-1.55-8.903c-1.17-6.744-7.038-4.28-14.572-2.964-7.54 1.308-13.894.968-12.72 7.717l1.552 8.903z"/><path fill="#FDDBA4" d="M233.035 78.108a2.944 2.944 0 0 1-3.21 2.667l-.345-.033a2.95 2.95 0 0 1-2.666-3.214l1.19-12.797a2.957 2.957 0 0 1 3.22-2.66l.35.03a2.95 2.95 0 0 1 2.662 3.215l-1.2 12.793zM152.38 78.108a2.944 2.944 0 0 0 3.212 2.667l.344-.033a2.952 2.952 0 0 0 2.666-3.214L157.41 64.73a2.955 2.955 0 0 0-3.218-2.66l-.348.03a2.95 2.95 0 0 0-2.662 3.215l1.2 12.793z"/><path opacity=".2" fill="#14120E" d="M215.32 106.272h-45.434v6.73c7.268 7.353 15.855 10 22.938 10 6.908 0 15.223-2.478 22.496-9.593v-7.138z"/><defs><path id="a" d="M188.06 109.9h9.085v1.818h-9.084z"/></defs><clipPath id="b"><use xlink:href="#a" overflow="visible"/></clipPath><path clip-path="url(#b)" fill="#14120E" d="M197.498 111.05c0 .317-2.11.573-4.716.573-2.605 0-4.712-.256-4.712-.572 0-.318 2.106-.572 4.712-.572 2.605 0 4.716.253 4.716.573"/><path fill="#FDDBA4" d="M192.542 19.447c-.142 0-.29.007-.433.013-.144-.006-.287-.013-.434-.013-20.97 0-37.974 22.905-37.974 51.167 2.253 15.756 7.22 34.175 12.038 38.994 7.35 7.346 19.153 11.293 25.794 9.63.102.03.152.043.152.067v.064c0-.013-.043-.023 0-.035.05.012 0 .022 0 .034v-.065c0-.024.48-.038.574-.067 6.646 1.663 18.73-2.284 26.074-9.63 4.818-4.82 9.854-23.238 12.11-38.994.007-28.26-16.93-51.167-37.902-51.167z"/><path fill="#FF8080" d="M180.533 86.007c0 4.88-3.952 8.832-8.826 8.832a8.83 8.83 0 0 1-8.83-8.833 8.83 8.83 0 0 1 8.83-8.828c4.874 0 8.826 3.952 8.826 8.827zM221.264 86.007a8.83 8.83 0 0 1-8.832 8.832c-4.875 0-8.826-3.954-8.826-8.833 0-4.875 3.953-8.828 8.826-8.828 4.88 0 8.832 3.952 8.832 8.827z"/><path fill="#FFF" d="M218.782 69.003c0 1.925-4.005 3.49-8.95 3.49-4.94 0-8.954-1.565-8.954-3.49 0-1.923 4.01-3.483 8.955-3.483s8.95 1.56 8.95 3.483M181.928 69.003c0 1.925-4.007 3.49-8.95 3.49-4.94 0-8.955-1.565-8.955-3.49 0-1.923 4.016-3.483 8.954-3.483 4.944 0 8.95 1.56 8.95 3.483"/><path opacity=".2" fill="#14120E" d="M197.146 87.463c0 2.316-2.01 4.2-4.483 4.2h-.12c-2.475 0-4.482-1.884-4.482-4.2v-18.85c0-2.32 2.01-4.203 4.483-4.203h.12c2.474 0 4.483 1.882 4.483 4.202v18.85z"/><path fill="#FFF" d="M174.295 68.133a.657.657 0 0 1-.658.656.653.653 0 0 1-.66-.657.66.66 0 0 1 1.318 0"/><path fill="#422902" d="M212.18 68.994a2.54 2.54 0 0 1-2.533 2.537 2.543 2.543 0 0 1-2.535-2.536 2.54 2.54 0 0 1 2.535-2.54c1.4 0 2.533 1.14 2.533 2.54"/><path fill="#FFF" d="M209.414 67.99"/><path fill="#422902" d="M175.51 68.994c0 1.394-1.134 2.537-2.533 2.537s-2.533-1.143-2.533-2.536c0-1.4 1.134-2.54 2.533-2.54a2.538 2.538 0 0 1 2.533 2.54"/><path fill="#FFF" d="M172.745 67.99a.77.77 0 0 1-1.54 0 .77.77 0 0 1 .77-.77c.42 0 .77.346.77.77"/><path fill="#422902" d="M181.925 60.244c-.026 1.075-1.058 1.923-2.307 1.89l-14.114-.35c-1.243-.03-2.23-.93-2.204-2.01.026-1.077 1.058-1.928 2.302-1.897l14.115.352c1.247.03 2.233.933 2.208 2.014zM221.495 60.244c-.028 1.075-1.063 1.923-2.308 1.89l-14.112-.35c-1.243-.03-2.234-.93-2.207-2.01.028-1.077 1.06-1.928 2.304-1.897l14.112.352c1.247.03 2.237.933 2.21 2.014z"/><path opacity=".2" fill="#14120E" d="M197.387 110.545c0 .578-2.062 1.048-4.603 1.048-2.542 0-4.604-.47-4.604-1.048 0-.58 2.062-1.046 4.604-1.046 2.54 0 4.603.465 4.603 1.045z"/><path opacity=".1" fill="#010000" d="M156.87 68.102c-1.426-7.994 6.204-26.23 7.152-27.595 4.75 2.12 14.212 2.65 15.794 1.284 3.8 2.73 13.305 9.24 27.076 1.367 6.02-3.636 11.562-3.484 12.514-3.333.947.146 8.013 18.328 8.013 29.512 1.146.977 1.844 2.207 1.844 2.207s3.32-36.826-.48-40.312c-3.8-3.48-9.853-8.83-16.978-11.71-7.127-2.877-9.5-7.725-9.5-9.09-.795 4.09-.476 6.662-.16 7.12-5.703-4.095-9.233-9.83-9.055-13.4-4.878-.083-15.33 7.646-17.23 10.067-3.01-.302-17.897 10.913-20.584 15.91-2.694 4.998-1.27 37.72 0 40.024.275-.814.88-1.683 1.593-2.048z"/><path fill="#77513B" d="M156.623 66.84c-1.425-8.35 6.204-27.414 7.152-28.836 4.75 2.21 14.21 2.767 15.795 1.338 3.8 2.853 13.303 9.66 27.076 1.43 6.02-3.802 11.562-3.645 12.514-3.485.947.156 8.014 19.157 8.014 30.847 1.146 1.02 1.844 2.305 1.844 2.305s3.32-38.49-.48-42.134c-3.802-3.638-9.853-9.23-16.978-12.24-7.125-3.01-9.502-8.077-9.502-9.5-.793 4.273-.475 6.965-.158 7.44-5.7-4.277-9.235-10.274-9.055-14.004-4.88-.087-15.328 7.986-17.232 10.52-3.01-.314-17.896 11.406-20.583 16.63-2.695 5.226-1.272 39.43 0 41.834.275-.853.88-1.763 1.593-2.146z"/><path opacity=".2" fill="#010000" d="M157.522 106.448c0 13.607 24.405 25.794 34.94 25.794h.306c10.838 0 35.836-13.845 35.836-27.45V90.005c2-9.364-13.498 7.237-32.334 7.237h-2.724c-21.135 0-35.828-17.396-36.163-8.06l.14 17.266z"/><path fill="#77513B" d="M157.522 104c0 13.606 24.405 26.242 34.94 26.242h.306c10.838 0 35.836-14.744 35.836-28.35V87.108c2-9.363-13.498 8.135-32.334 8.135h-2.724c-21.135 0-35.828-17.62-36.163-8.28l.14 17.04z"/><path fill="#FFF" d="M207.423 96.715c0 4.68-6.595 8.485-14.73 8.485-8.13 0-14.727-3.806-14.727-8.485 0-4.682 6.595-.55 14.728-.55 8.134 0 14.73-4.132 14.73.55"/><g fill="#63402E"><path d="M228.273 78.72s-11.944 16.387-31.363 8.57c-8.59 0-7.52 8.386-1.29 9.36 10.53 1.648 32.813.305 32.653-17.154"/><path d="M157.146 78.72s11.944 16.387 31.362 8.57c8.594 0 7.52 8.386 1.297 9.36-10.537 1.648-32.816.305-32.66-17.154"/></g><path fill="#FF8080" d="M197.146 85.434c0 2.473-2.01 4.48-4.483 4.48h-.12a4.484 4.484 0 0 1-4.482-4.48V65.32a4.483 4.483 0 0 1 4.483-4.484h.12a4.485 4.485 0 0 1 4.483 4.483v20.114z"/><path opacity=".3" d="M202.708 59.642a99.614 99.614 0 0 1-5.993 1.667c-3.52.853-4.352.853-7.874 0a98.998 98.998 0 0 1-5.996-1.668c-6.492-2.006-19.476-2.1-29.697.287l.29 4.58s1.906-.664 2.858 5.35c.96 6.015 1.82 14.42 15.664 14.613 13.847.186 16.71-12.418 17.474-14.23.766-1.816.957-3.152 1.814-3.535 1.093-.483 1.964-.483 3.06 0 .858.383 1.046 1.72 1.81 3.535.765 1.812 3.63 14.416 17.476 14.23 13.846-.194 14.705-8.6 15.66-14.613.954-6.014 2.865-5.35 2.865-5.35l.287-4.58c-10.216-2.388-23.205-2.294-29.7-.288zm-17.095 12.893c-2.82 8.644-9.172 10.508-14.264 10.334-4.878-.167-8.418-1.608-10.884-5.995-1.79-3.187-2.774-7.432-1.398-11.314 1-2.828 3.745-4.19 6.576-4.814 4.278-.947 12.232-.786 16.225 1.063 3.24 1.495 5.762 4.547 3.743 10.725zm39.473 4.34c-2.467 4.387-6.005 5.828-10.883 5.994-5.088.173-11.443-1.69-14.264-10.335-2.018-6.178.503-9.23 3.745-10.727 3.996-1.85 11.945-2.01 16.223-1.063 2.835.625 5.574 1.986 6.578 4.815 1.373 3.883.394 8.128-1.4 11.315z"/><path fill="#07756F" d="M202.708 57.642a99.614 99.614 0 0 1-5.993 1.667c-3.52.853-4.352.853-7.874 0a98.998 98.998 0 0 1-5.996-1.668c-6.492-2.006-19.476-2.1-29.697.287l.29 4.58s1.906-.664 2.858 5.35c.96 6.015 1.82 14.42 15.664 14.613 13.847.186 16.71-12.418 17.474-14.23.766-1.816.957-3.152 1.814-3.535 1.093-.483 1.964-.483 3.06 0 .858.383 1.046 1.72 1.81 3.535.765 1.812 3.63 14.416 17.476 14.23 13.846-.194 14.705-8.6 15.66-14.613.954-6.014 2.865-5.35 2.865-5.35l.287-4.58c-10.216-2.388-23.205-2.294-29.7-.288zm-17.095 12.893c-2.82 8.644-9.172 10.508-14.264 10.334-4.878-.167-8.418-1.608-10.884-5.995-1.79-3.187-2.774-7.432-1.398-11.314 1-2.828 3.745-4.19 6.576-4.814 4.278-.947 12.232-.786 16.225 1.063 3.24 1.495 5.762 4.547 3.743 10.725zm39.473 4.34c-2.467 4.387-6.005 5.828-10.883 5.994-5.088.173-11.443-1.69-14.264-10.335-2.018-6.178.503-9.23 3.745-10.727 3.996-1.85 11.945-2.01 16.223-1.063 2.835.625 5.574 1.986 6.578 4.815 1.373 3.883.394 8.128-1.4 11.315z"/><path fill="#009995" d="M287.145 154.928l1.008 2.276-17.03 25.99-2.065-4.654.088-22.9s6.828-9.548 8.086-9.368 9.913 8.656 9.913 8.656z"/><g><path fill="#27B3D8" d="M12.975 113.89l8.245 11.427 55.852-40.29-8.246-11.434z"/><path opacity=".2" d="M15.37 117.347l-2.45-3.392L68.813 73.57l2.45 3.39z"/><path opacity=".2" fill="#FFF" d="M21.088 125.407l-2.46-3.412 56-40.37 2.46 3.412z"/><path fill="#FFE0A9" d="M88.46 68.135l-19.634 5.458v.005a2.107 2.107 0 1 0 2.465 3.417 2.877 2.877 0 0 0 3.368 4.667l.004.005a2.06 2.06 0 0 0-.465 2.872c.665.92 1.95 1.13 2.873.468l.018.02L88.46 68.136z"/><path opacity=".05" fill="#3C3C3B" d="M88.46 68.135l-19.634 5.458v.005a2.107 2.107 0 1 0 2.465 3.417c-1.286.93 17.17-8.88 17.17-8.88z"/><path fill="#3C3C3B" d="M84.155 74.535l4.306-6.4L81.03 70.2z"/><path fill="#FF839E" d="M.6 126.64a3.17 3.17 0 0 1 .715-4.423l8.913-6.43a3.17 3.17 0 0 1 4.42.717l4.598 6.368a3.17 3.17 0 0 1-.714 4.423l-8.914 6.432a3.17 3.17 0 0 1-4.423-.717L.6 126.64z"/><path opacity=".1" fill="#3C3C3B" d="M.405 126.27l8.82-6.366-1.62-2.245-6.286 4.534a3.155 3.155 0 0 0-.915 4.075z"/><path fill="#DADADA" d="M6.488 118.73a.792.792 0 0 1 .18-1.107l6.824-4.924a.793.793 0 0 1 1.106.178l8.11 11.24a.792.792 0 0 1-.18 1.107l-6.824 4.924a.792.792 0 0 1-1.106-.183l-8.11-11.238z"/><g opacity=".3"><path fill="#3C3C3B" d="M7.57 118.528a.517.517 0 0 1 .118-.726.518.518 0 0 1 .725.117l7.56 10.476a.52.52 0 0 1-.116.726.518.518 0 0 1-.726-.115l-7.56-10.48zM8.983 117.51a.518.518 0 0 1 .117-.726.518.518 0 0 1 .726.117l7.56 10.478a.52.52 0 0 1-.844.61l-7.56-10.48zM10.397 116.49a.524.524 0 0 1 .117-.73.52.52 0 0 1 .726.12l7.56 10.475a.524.524 0 0 1-.118.73.52.52 0 0 1-.726-.12l-7.56-10.476zM11.81 115.47a.523.523 0 0 1 .116-.726.52.52 0 0 1 .727.117l7.56 10.48a.52.52 0 1 1-.844.608l-7.56-10.477zM13.224 114.45a.52.52 0 1 1 .844-.606l7.56 10.476a.52.52 0 0 1-.118.725.518.518 0 0 1-.725-.118l-7.56-10.478z"/></g><path opacity=".3" fill="#FFF" d="M5.493 130.152a.79.79 0 0 1 1.105.177c.573.797 1.69.976 2.485.403a.79.79 0 0 1 1.105.18.79.79 0 0 1-.18 1.104 3.367 3.367 0 0 1-4.695-.76.793.793 0 0 1 .18-1.105z"/><path opacity=".3" fill="#3C3C3B" d="M22.732 124.16l-8.265-11.454 1.136-.82 8.265 11.455z"/></g><g><path fill="#F7CC9A" d="M57.842 95.166c1.27-2.39 4.042-3.4 6.197-2.26 2.15 1.146 2.865 4.01 1.596 6.402l-7.57 14.254c-1.27 2.392-4.044 3.4-6.197 2.26-2.153-1.147-2.866-4.01-1.597-6.397l7.57-14.26z"/><g opacity=".15"><defs><path id="c" d="M40.88 109.73l12.01-9.428 8.098 10.312-12.01 9.43z"/></defs><clipPath id="d"><use xlink:href="#c" overflow="visible"/></clipPath><path clip-path="url(#d)" fill="#13120F" d="M56.5 112.717c-1.836 4.014-5.814 6.122-8.887 4.715-3.077-1.405-4.08-5.796-2.245-9.808 1.833-4.012 5.814-6.12 8.887-4.713 3.075 1.408 4.08 5.797 2.244 9.807"/></g><path fill="#F7CC9A" d="M57.593 112.762c-1.835 4.01-5.815 6.124-8.888 4.712-3.074-1.403-4.077-5.792-2.244-9.805 1.835-4.01 5.817-6.12 8.89-4.718 3.074 1.41 4.08 5.803 2.243 9.81"/></g><path fill="#F7CC9A" d="M47.713 85.772a3.29 3.29 0 0 1 2.677-3.808 3.295 3.295 0 0 1 3.81 2.68l2.367 12.494a3.292 3.292 0 0 1-2.68 3.81 3.288 3.288 0 0 1-3.808-2.683l-2.367-12.493zM40.82 87.938a3.293 3.293 0 1 1 6.488-1.133l2.2 11.563a3.295 3.295 0 1 1-6.492 1.128L40.82 87.938zM34.39 91.456a3.292 3.292 0 0 1 2.682-3.807 3.29 3.29 0 0 1 3.807 2.68l1.763 10.413a3.297 3.297 0 0 1-2.678 3.81 3.296 3.296 0 0 1-3.81-2.68l-1.766-10.417zM28.31 96.07a3.106 3.106 0 0 1 2.526-3.588 3.1 3.1 0 0 1 3.583 2.522l1.53 8.28a3.1 3.1 0 0 1-6.107 1.06L28.31 96.07z"/><g><path fill="#FCD22E" d="M100.685 34.644c3.503 9.23 10.563 16.695 19.495 20.74a37.363 37.363 0 0 0-19.495 20.742 37.355 37.355 0 0 0-19.502-20.74 37.384 37.384 0 0 0 19.502-20.742z"/><path fill="#FD7600" d="M100.685 44.937a18.846 18.846 0 0 0 9.83 10.448 18.755 18.755 0 0 0-9.83 10.445 18.773 18.773 0 0 0-9.818-10.445 18.873 18.873 0 0 0 9.818-10.448z"/><path fill="#FCD22E" d="M85.176 19.932a18.285 18.285 0 0 0 9.53 10.143 18.26 18.26 0 0 0-9.53 10.137 18.23 18.23 0 0 0-9.527-10.137 18.26 18.26 0 0 0 9.526-10.143z"/><path fill="#FD7600" d="M85.176 24.96a9.236 9.236 0 0 0 4.806 5.114 9.166 9.166 0 0 0-4.806 5.104 9.142 9.142 0 0 0-4.796-5.104 9.21 9.21 0 0 0 4.796-5.113z"/><g><path fill="#FCD22E" d="M118.314 14.046a26.373 26.373 0 0 0 13.754 14.633 26.358 26.358 0 0 0-13.754 14.634 26.343 26.343 0 0 0-13.76-14.635 26.358 26.358 0 0 0 13.76-14.634z"/><path fill="#FD7600" d="M118.314 21.31a13.304 13.304 0 0 0 6.934 7.37 13.24 13.24 0 0 0-6.934 7.367 13.235 13.235 0 0 0-6.928-7.368 13.303 13.303 0 0 0 6.928-7.37z"/></g></g><ellipse fill="#FFF" cx="157.521" cy="59.887" rx="1.845" ry=".835"/><ellipse fill="#FFF" cx="228.273" cy="59.887" rx="1.846" ry=".835"/></svg>