<svg xmlns="http://www.w3.org/2000/svg" width="185.623" height="105.514" viewBox="0 0 185.623 105.514"><path fill="#76D9FC" d="M185.623 104.514c-2.08-49.467-42.83-88.934-92.806-88.934S2.08 55.047 0 104.514h185.623z"/><path fill-rule="evenodd" clip-rule="evenodd" fill="#00A936" d="M47.213 100.33c.15.136.247.35.38.373h.195c.924.263 1.825-.67 1.123-.73-.274-.05-.81.02-1.697.357zM68.73 92.22c-1.47.248-1.825 1.232 1.337 3.404.392-.106 3.11-.72 1.515.926 4.91-2.93-.343-4.777-2.852-4.33zM68.73 71.233c5.288-2.15 6.507-16.076.21-15.666-.407 0-.816.204-1.332.396 2.635 4.86-3.443 11.046 1.122 15.27zM129.43 82.77c.42-2.905-4.2-5.043-6.282-4.923-1.213.084-1.448.95.79 3.04-2.092 4.943 3.49 5.208 5.493 1.882zM82.157 46.517c1.525-.71 2.257-3.24 0-3.24-.41-.11-.715-.218-1.124-.194-.406.013-.815.157-1.113.193-4.46.888-3.105 8.28 2.237 3.24z"/><path fill-rule="evenodd" clip-rule="evenodd" fill="#00A936" d="M88.405 44.786c-6.452.815-12.963 7.05-6.963 13.217 4.3 5.367-6.205 16.316 3.763 19.126 3.956-8.85 14.78-15.86 12.104-26.65-1.12-4.602-5.015-6.186-8.905-5.694z"/><path fill="#00A936" d="M41.3 104.514c1.897-2.217 4.047-4.102 6.88-4.72 4.22-3.662 15.636.273 11.506-7.204 4.08-3.88 16.056-3.747 10.197-12.822-1.964-8.847-12.84-13.12-16.415-3.048-9.845 2.64-5.875-18.717 4.14-15.87 7.263.42 6.274-5.894 1.874-7.923 0-.31-.096-.483-.372-.205-.805-.3-1.65-.61-2.642-.563-9.818-5.427 9.825-19.258-3.188-23.64C39 40.72 17.22 59.91 8.5 77.848c-3.072 8.776-3.345 17.597-3.1 26.667h35.9zM101.448 25.533c3.044 9.783 21.274.19 20.397 11.126.143.156.42.408.574.59-.29.213.21 2.207.576.54 3.15 3.565 9.78 10.96 2.82 10.036-9.226-1.263-6.825 16.913-.18 20.214 6.332 3.408 9.893-3.433 3.387-6.796-.88-8.522 14.205 5.234 7.55 9.796-.266.183-.48.396-.738.588.306-1.223-.438-.07-.415.207-7.568 5.484-3.253 18.4-6.193 27.008-1.268 2.812-1.148 4.638-.29 5.67h6.53c2.86-1.53 5.245-4.592 4.13-8.322-3.356-8.427 13.957-4.585 10.212-10.576 10.497 5.57 9.505-9.385 5.12-14.38 2.046-7.995 7.44.936 4.89 5.29.415 4.12 3.967 5.07 6.817 6.245.13.095.277.11.558.18 2.493 1.188 3.987 2.713 1.298 7.395-3.084 10.396-13.54 10.973-22.088 9.05-2.722 1.128-4.744 2.942-6.393 5.12h45.576c-.07-1.21-.16-2.415-.26-3.618-.064-.625-.113-1.26-.185-1.883-5.308 2.905-14.75-13.074-5.093-5.477 1.887-.13 3.074-.672 3.97-1.488-1.116-5.82-2.628-11.465-4.747-16.845-.95-1.127-1.862-2.183-2.64-2.818.064-1.163-.052-2.28-.19-3.396-.047-.06.056-.144 0-.202-15.145-31.166-47.11-52.69-84.07-52.69-2.522 0-5.084.154-7.574.36-1.292.276-2.72.444-4.174.577a20.75 20.75 0 0 0-1.49.19c-5.214.734-10.196 1.645-15.094 3.194 12.773-.938 25.89-.604 37.406 5.113z"/><g opacity=".2" fill="#010000"><path d="M4.43 79.852c-.025.073-.043.12-.06.18.857-.046 1.62-.106 1.62-.18H4.43z"/><path d="M14.16 104.514h2.77c.356-9.802 1.994-19.208 4.738-27.974 2.982-.363 6.534-.734 10.768-1.105 7.478-.638 16.025-1.14 25.242-1.502-1.502 9.655-2.366 19.958-2.54 30.58h2.77c.178-10.673 1.056-21.03 2.598-30.686 9.677-.338 20.036-.53 30.653-.542v31.23h2.774v-31.23a923.75 923.75 0 0 1 30.67.562c1.53 9.647 2.4 19.994 2.58 30.666h2.773c-.172-10.613-1.038-20.916-2.538-30.568 9.056.36 17.455.863 24.81 1.49 4.45.384 8.142.78 11.22 1.16 2.732 8.756 4.358 18.14 4.705 27.918h2.783c-.335-9.613-1.873-18.855-4.463-27.508 10.725 1.55 12.13 2.954 12.28 3.146-.03-.022-.086-.132-.086-.3h2.533c-.2-.6-.4-1.198-.612-1.8-1.116-1.032-3.39-1.874-7.134-2.678-2.188-.467-4.834-.925-7.92-1.33-3.575-10.794-8.784-20.612-15.268-29.006 6.506 1.672 11.692 3.628 15.28 5.68a98.29 98.29 0 0 0-4.44-5.2c-3.714-1.46-7.802-2.65-11.634-3.588-.702-.18-1.415-.336-2.124-.503-9.903-11.55-22.347-20-36.218-24.032a93.034 93.034 0 0 0-18.318-1.813c-6.963 0-13.746.794-20.28 2.247-13.282 4.188-25.216 12.435-34.767 23.575-.75.178-1.498.347-2.227.526-3.504.854-7.222 1.923-10.673 3.22a95.124 95.124 0 0 0-4.327 4.98c3.543-1.85 8.38-3.6 14.3-5.126-6.472 8.393-11.682 18.186-15.264 28.98-3.278.43-6.075.897-8.36 1.39-2.68.578-4.605 1.167-5.89 1.85a50.86 50.86 0 0 0-.75 2.197c2.63-.615 7.272-1.515 14.067-2.477-2.595 8.67-4.146 17.93-4.484 27.57zm131.704-60.542c7.054 8.415 12.738 18.486 16.615 29.676-2.444-.303-5.103-.566-7.995-.842-8.044-.72-17.377-1.298-27.527-1.694-1.795-10.468-4.364-20.12-7.62-28.46-.35-.902-.71-1.787-1.084-2.667 10.126.853 19.51 2.185 27.61 3.987zm-3.128-3.52c-7.748-1.52-16.462-2.675-25.784-3.395-4.034-8.67-8.722-14.973-13.8-18.62 15.06 2.546 28.72 10.433 39.584 22.015zm-48.8-22.842c7.22.754 14.102 7.467 19.83 19.218-6.392-.42-13.05-.66-19.83-.685V17.61zm0 21.354c7.273.024 14.38.29 21.18.783a99.327 99.327 0 0 1 1.65 3.947c3.132 8.008 5.606 17.252 7.36 27.31a917.568 917.568 0 0 0-30.19-.537V38.964zM91.16 70.467c-10.478.012-20.658.19-30.185.525 1.747-10.057 4.227-19.29 7.363-27.298a85.272 85.272 0 0 1 1.646-3.96c6.794-.48 13.913-.746 21.175-.77v31.503zm0-34.323c-6.78.023-13.43.25-19.83.685 5.736-11.753 12.622-18.466 19.83-19.22v18.534zm-9.213-17.707c-5.08 3.648-9.76 9.95-13.8 18.62-9.316.72-18.024 1.847-25.773 3.376 10.877-11.575 24.52-19.46 39.573-21.996zm-42.7 25.51c8.108-1.79 17.48-3.122 27.605-3.963-.38.866-.744 1.754-1.1 2.667-3.248 8.342-5.81 17.97-7.61 28.45-10.316.383-19.802.974-27.964 1.705-2.71.254-5.227.518-7.545.79C26.52 62.42 32.206 52.35 39.248 43.947z"/></g><path opacity=".3" fill="#464646" d="M27.923 42.522l-8.53 61.992h18.75zM161.614 42.522l8.53 61.992h-18.75z"/><g><path fill="#3A383A" d="M80.38 20.344h73.346v81.09H80.38z"/><path fill="#5E5E5E" d="M78.454 19.034a3.49 3.49 0 0 0 3.49 3.49h71.78V9.61 6.12h-71.78a3.49 3.49 0 0 0-3.49 3.49v9.424z"/><path fill="#FFF" d="M132.6 12.256c0 .42.34.758.757.758a.756.756 0 0 0 0-1.514.757.757 0 0 0-.756.756zM135.356 12.256a.76.76 0 0 0 1.516 0c0-.415-.337-.756-.756-.756s-.76.34-.76.756zM138.112 12.256a.758.758 0 1 0 1.515 0 .758.758 0 0 0-1.515 0zM140.868 12.256a.758.758 0 1 0 1.516 0 .758.758 0 0 0-1.516 0zM143.627 12.256a.758.758 0 1 0 1.514 0 .758.758 0 0 0-1.514 0zM146.378 12.256a.758.758 0 0 0 1.518 0 .758.758 0 0 0-1.518 0zM149.136 12.256a.758.758 0 1 0 1.515 0 .758.758 0 0 0-1.514 0zM151.893 12.256c0 .42.338.758.76.758a.757.757 0 1 0-.76-.758z"/><circle fill="#FFF" cx="134.875" cy="14.322" r=".758"/><circle fill="#FFF" cx="137.631" cy="14.322" r=".759"/><circle fill="#FFF" cx="140.386" cy="14.322" r=".758"/><path fill="#FFF" d="M142.384 14.322a.756.756 0 0 0 1.514 0 .754.754 0 0 0-.756-.757.76.76 0 0 0-.758.757z"/><circle fill="#FFF" cx="145.899" cy="14.322" r=".757"/><path fill="#FFF" d="M147.896 14.322a.76.76 0 1 0 1.514.002.76.76 0 0 0-1.514-.002z"/><circle fill="#FFF" cx="151.409" cy="14.322" r=".758"/><circle fill="#FFF" cx="134.875" cy="18.455" r=".758"/><circle fill="#FFF" cx="137.631" cy="18.455" r=".759"/><circle fill="#FFF" cx="140.386" cy="18.455" r=".758"/><path fill="#FFF" d="M142.384 18.455c0 .423.34.762.758.762.422 0 .756-.34.756-.762a.754.754 0 0 0-.756-.757.76.76 0 0 0-.758.757z"/><circle fill="#FFF" cx="145.899" cy="18.455" r=".757"/><path fill="#FFF" d="M147.896 18.455a.758.758 0 0 0 1.516 0 .756.756 0 0 0-.756-.757c-.423 0-.76.34-.76.757zM150.65 18.455a.76.76 0 1 0 1.52.006.76.76 0 0 0-1.52-.005zM132.6 16.39a.76.76 0 1 0 1.52 0 .76.76 0 0 0-1.52 0z"/><circle fill="#FFF" cx="136.114" cy="16.39" r=".758"/><circle fill="#FFF" cx="138.87" cy="16.39" r=".758"/><circle fill="#FFF" cx="141.626" cy="16.39" r=".758"/><circle fill="#FFF" cx="144.384" cy="16.39" r=".757"/><path fill="#FFF" d="M146.378 16.39a.76.76 0 1 0 1.517 0 .76.76 0 0 0-1.517 0z"/><circle fill="#FFF" cx="149.894" cy="16.39" r=".758"/><circle fill="#FFF" cx="152.65" cy="16.39" r=".758"/><path fill="#FFF" d="M101.145 13.71H128.2v1.306h-27.055zM101.145 16.748H128.2v1.307h-27.055z"/><circle fill="#EB6159" cx="89.712" cy="14.322" r="5.237"/><path fill="#3A383A" d="M85.786 14.322a3.928 3.928 0 1 0 7.856 0 3.928 3.928 0 0 0-7.856 0z"/><path fill="#5E5E5E" d="M78.454 36.893a3.49 3.49 0 0 0 3.49 3.49h71.78V27.467v-3.49h-71.78a3.49 3.49 0 0 0-3.49 3.49v9.427z"/><circle fill="#FFF" cx="134.875" cy="28.047" r=".758"/><circle fill="#FFF" cx="137.631" cy="28.047" r=".759"/><circle fill="#FFF" cx="140.386" cy="28.047" r=".758"/><path fill="#FFF" d="M142.384 28.047c0 .418.34.758.758.758.422 0 .756-.34.756-.758 0-.42-.334-.76-.756-.76a.76.76 0 0 0-.758.76z"/><circle fill="#FFF" cx="145.899" cy="28.047" r=".757"/><path fill="#FFF" d="M147.896 28.047a.758.758 0 0 0 1.516 0 .758.758 0 0 0-1.516 0z"/><circle fill="#FFF" cx="151.409" cy="28.047" r=".758"/><path fill="#FFF" d="M132.6 30.113c0 .418.34.756.757.756a.758.758 0 1 0-.756-.756z"/><circle fill="#FFF" cx="136.114" cy="30.113" r=".758"/><circle fill="#FFF" cx="138.87" cy="30.113" r=".758"/><circle fill="#FFF" cx="141.626" cy="30.113" r=".758"/><path fill="#FFF" d="M143.627 30.113a.758.758 0 1 0 1.515-.003.758.758 0 0 0-1.515.002zM146.378 30.113c0 .418.34.756.762.756a.758.758 0 1 0-.762-.756z"/><circle fill="#FFF" cx="149.894" cy="30.113" r=".758"/><circle fill="#FFF" cx="152.65" cy="30.113" r=".758"/><circle fill="#FFF" cx="134.875" cy="32.181" r=".758"/><circle fill="#FFF" cx="137.631" cy="32.181" r=".759"/><circle fill="#FFF" cx="140.386" cy="32.181" r=".758"/><path fill="#FFF" d="M142.384 32.18c0 .418.34.758.758.758.422 0 .756-.34.756-.757 0-.418-.334-.758-.756-.758a.76.76 0 0 0-.758.76z"/><circle fill="#FFF" cx="145.899" cy="32.181" r=".757"/><path fill="#FFF" d="M147.896 32.18a.758.758 0 1 0 1.515 0 .758.758 0 0 0-1.514 0z"/><circle fill="#FFF" cx="151.409" cy="32.181" r=".758"/><circle fill="#FFF" cx="134.875" cy="36.314" r=".758"/><circle fill="#FFF" cx="137.631" cy="36.314" r=".759"/><circle fill="#FFF" cx="140.386" cy="36.314" r=".758"/><path fill="#FFF" d="M142.384 36.314c0 .418.34.757.758.757.422 0 .756-.338.756-.756a.754.754 0 0 0-.756-.758.76.76 0 0 0-.758.758z"/><circle fill="#FFF" cx="145.899" cy="36.314" r=".757"/><path fill="#FFF" d="M147.896 36.314z"/><circle fill="#FFF" cx="151.409" cy="36.314" r=".758"/><path fill="#FFF" d="M132.6 34.246a.76.76 0 1 0 1.52 0 .76.76 0 0 0-1.52 0z"/><circle fill="#FFF" cx="136.114" cy="34.246" r=".758"/><circle fill="#FFF" cx="138.87" cy="34.246" r=".758"/><circle fill="#FFF" cx="141.626" cy="34.246" r=".758"/><circle fill="#FFF" cx="144.384" cy="34.246" r=".757"/><path fill="#FFF" d="M146.378 34.246a.76.76 0 1 0 1.517 0 .76.76 0 0 0-1.517 0z"/><circle fill="#FFF" cx="149.894" cy="34.246" r=".758"/><circle fill="#FFF" cx="152.65" cy="34.246" r=".758"/><path fill="#FFF" d="M101.145 28.445H128.2v1.31h-27.055zM101.145 31.564H128.2v1.31h-27.055zM101.145 34.607H128.2v1.306h-27.055z"/><circle fill="#EB6159" cx="89.712" cy="32.181" r="5.237"/><path fill="#3A383A" d="M85.786 32.18a3.928 3.928 0 1 0 7.856 0 3.928 3.928 0 0 0-7.856 0z"/><path fill="#5E5E5E" d="M78.454 54.725a3.49 3.49 0 0 0 3.49 3.49h71.78V45.3v-3.49h-71.78a3.49 3.49 0 0 0-3.49 3.49v9.425z"/><circle fill="#FFF" cx="134.875" cy="45.877" r=".758"/><circle fill="#FFF" cx="137.631" cy="45.877" r=".759"/><circle fill="#FFF" cx="140.386" cy="45.877" r=".758"/><path fill="#FFF" d="M142.384 45.877c0 .42.34.76.758.76.422 0 .756-.34.756-.76s-.334-.758-.756-.758a.76.76 0 0 0-.758.757z"/><circle fill="#FFF" cx="145.899" cy="45.877" r=".757"/><path fill="#FFF" d="M147.896 45.877a.758.758 0 1 0 1.516.002.758.758 0 0 0-1.516-.003z"/><circle fill="#FFF" cx="151.409" cy="45.877" r=".758"/><path fill="#FFF" d="M132.6 47.945z"/><circle fill="#FFF" cx="136.114" cy="47.945" r=".758"/><circle fill="#FFF" cx="138.87" cy="47.945" r=".758"/><circle fill="#FFF" cx="141.626" cy="47.945" r=".758"/><path fill="#FFF" d="M143.627 47.945c0 .416.335.758.755.758a.76.76 0 0 0 0-1.52.758.758 0 0 0-.755.762zM146.378 47.945a.76.76 0 1 0 0 0z"/><circle fill="#FFF" cx="149.894" cy="47.945" r=".758"/><circle fill="#FFF" cx="152.65" cy="47.945" r=".758"/><circle fill="#FFF" cx="134.875" cy="50.012" r=".758"/><circle fill="#FFF" cx="137.631" cy="50.012" r=".759"/><circle fill="#FFF" cx="140.386" cy="50.012" r=".758"/><path fill="#FFF" d="M142.384 50.012c0 .418.34.758.758.758.422 0 .756-.34.756-.758 0-.42-.334-.76-.756-.76a.76.76 0 0 0-.758.76z"/><circle fill="#FFF" cx="145.899" cy="50.012" r=".757"/><path fill="#FFF" d="M147.896 50.012a.758.758 0 1 0 1.516 0 .758.758 0 0 0-1.516 0z"/><circle fill="#FFF" cx="151.409" cy="50.012" r=".758"/><circle fill="#FFF" cx="134.875" cy="54.145" r=".758"/><circle fill="#FFF" cx="137.631" cy="54.145" r=".759"/><circle fill="#FFF" cx="140.386" cy="54.145" r=".758"/><path fill="#FFF" d="M142.384 54.145c0 .42.34.76.758.76a.754.754 0 0 0 .756-.76.757.757 0 0 0-1.514 0z"/><circle fill="#FFF" cx="145.899" cy="54.145" r=".757"/><path fill="#FFF" d="M147.896 54.145a.757.757 0 0 0 1.516 0 .755.755 0 0 0-.756-.755.755.755 0 0 0-.76.755zM150.65 54.145a.758.758 0 1 0 1.516.003.758.758 0 0 0-1.515-.003zM132.6 52.078c0 .418.34.757.757.757a.757.757 0 0 0 0-1.515.756.756 0 0 0-.756.758z"/><circle fill="#FFF" cx="136.114" cy="52.078" r=".758"/><circle fill="#FFF" cx="138.87" cy="52.078" r=".758"/><circle fill="#FFF" cx="141.626" cy="52.078" r=".758"/><circle fill="#FFF" cx="144.384" cy="52.078" r=".757"/><path fill="#FFF" d="M146.378 52.078a.76.76 0 0 0 1.518 0 .758.758 0 0 0-1.518 0z"/><circle fill="#FFF" cx="149.894" cy="52.078" r=".758"/><circle fill="#FFF" cx="152.65" cy="52.078" r=".758"/><path fill="#FFF" d="M101.145 46.28H128.2v1.307h-27.055zM101.145 49.395H128.2v1.31h-27.055zM101.145 52.434H128.2v1.31h-27.055z"/><circle fill="#EB6159" cx="89.712" cy="50.012" r="5.237"/><path fill="#3A383A" d="M85.786 50.012a3.93 3.93 0 0 0 7.856 0 3.928 3.928 0 0 0-7.856 0z"/><path fill="#5E5E5E" d="M78.454 72.526a3.49 3.49 0 0 0 3.49 3.49h71.78V63.103v-3.49h-71.78a3.492 3.492 0 0 0-3.49 3.49v9.424z"/><circle fill="#FFF" cx="134.875" cy="63.681" r=".758"/><circle fill="#FFF" cx="137.631" cy="63.681" r=".759"/><circle fill="#FFF" cx="140.386" cy="63.681" r=".758"/><path fill="#FFF" d="M142.384 63.68a.758.758 0 1 0 1.516 0 .758.758 0 0 0-1.516 0z"/><circle fill="#FFF" cx="145.899" cy="63.681" r=".757"/><path fill="#FFF" d="M147.896 63.68c0 .42.338.758.76.758.418 0 .756-.338.756-.757s-.338-.756-.756-.756a.756.756 0 0 0-.76.757z"/><circle fill="#FFF" cx="151.409" cy="63.681" r=".758"/><path fill="#FFF" d="M132.6 65.747c0 .42.34.756.757.756a.758.758 0 1 0-.756-.756z"/><circle fill="#FFF" cx="136.114" cy="65.747" r=".758"/><circle fill="#FFF" cx="138.87" cy="65.747" r=".758"/><circle fill="#FFF" cx="141.626" cy="65.747" r=".758"/><circle fill="#FFF" cx="144.384" cy="65.747" r=".757"/><path fill="#FFF" d="M146.378 65.747c0 .42.34.756.762.756a.758.758 0 0 0 0-1.514.76.76 0 0 0-.762.758z"/><circle fill="#FFF" cx="149.894" cy="65.747" r=".758"/><circle fill="#FFF" cx="152.65" cy="65.747" r=".758"/><circle fill="#FFF" cx="134.875" cy="67.814" r=".758"/><circle fill="#FFF" cx="137.631" cy="67.814" r=".759"/><circle fill="#FFF" cx="140.386" cy="67.814" r=".758"/><path fill="#FFF" d="M142.384 67.814z"/><circle fill="#FFF" cx="145.899" cy="67.814" r=".757"/><path fill="#FFF" d="M147.896 67.814c0 .42.338.758.76.758a.757.757 0 1 0-.76-.758z"/><circle fill="#FFF" cx="151.409" cy="67.814" r=".758"/><circle fill="#FFF" cx="134.875" cy="71.947" r=".758"/><circle fill="#FFF" cx="137.631" cy="71.947" r=".759"/><circle fill="#FFF" cx="140.386" cy="71.947" r=".758"/><path fill="#FFF" d="M142.384 71.947c0 .418.34.758.758.758.422 0 .756-.34.756-.758a.755.755 0 0 0-.756-.758.76.76 0 0 0-.758.757z"/><circle fill="#FFF" cx="145.899" cy="71.947" r=".757"/><path fill="#FFF" d="M147.896 71.947a.758.758 0 1 0 1.516 0 .758.758 0 0 0-1.516 0z"/><circle fill="#FFF" cx="151.409" cy="71.947" r=".758"/><path fill="#FFF" d="M132.6 69.882a.76.76 0 1 0 .756-.758.756.756 0 0 0-.755.758z"/><circle fill="#FFF" cx="136.114" cy="69.882" r=".758"/><circle fill="#FFF" cx="138.87" cy="69.882" r=".758"/><circle fill="#FFF" cx="141.626" cy="69.882" r=".758"/><circle fill="#FFF" cx="144.384" cy="69.882" r=".757"/><path fill="#FFF" d="M146.378 69.882a.76.76 0 1 0 .762-.758.76.76 0 0 0-.762.758z"/><circle fill="#FFF" cx="149.894" cy="69.882" r=".758"/><circle fill="#FFF" cx="152.65" cy="69.882" r=".758"/><path fill="#FFF" d="M101.145 64.08H128.2v1.31h-27.055zM101.145 67.2H128.2v1.308h-27.055zM101.145 70.24H128.2v1.306h-27.055z"/><circle fill="#EB6159" cx="89.712" cy="67.814" r="5.237"/><path fill="#3A383A" d="M85.786 67.814a3.928 3.928 0 1 0 7.856 0 3.928 3.928 0 0 0-7.856 0z"/><path fill="#5E5E5E" d="M78.454 90.385a3.49 3.49 0 0 0 3.49 3.49h71.78v-16.41h-71.78a3.493 3.493 0 0 0-3.49 3.494v9.425z"/><circle fill="#FFF" cx="134.875" cy="81.538" r=".758"/><circle fill="#FFF" cx="137.631" cy="81.538" r=".759"/><circle fill="#FFF" cx="140.386" cy="81.538" r=".758"/><path fill="#FFF" d="M142.384 81.538c0 .417.34.757.758.757.422 0 .756-.34.756-.757 0-.42-.334-.76-.756-.76a.76.76 0 0 0-.758.76z"/><circle fill="#FFF" cx="145.899" cy="81.538" r=".757"/><path fill="#FFF" d="M147.896 81.538a.758.758 0 1 0 1.515 0 .758.758 0 0 0-1.514 0z"/><circle fill="#FFF" cx="151.409" cy="81.538" r=".758"/><path fill="#FFF" d="M132.6 83.603c0 .42.34.757.757.757a.756.756 0 0 0 0-1.513.756.756 0 0 0-.756.756zM135.356 83.603c0 .42.34.757.76.757s.756-.336.756-.757a.76.76 0 0 0-1.516 0zM138.112 83.603c0 .42.34.757.76.757a.756.756 0 0 0 0-1.513c-.42 0-.76.34-.76.756zM140.868 83.603c0 .42.34.757.758.757a.756.756 0 0 0 0-1.513.758.758 0 0 0-.758.756zM143.627 83.603c0 .42.335.757.755.757a.756.756 0 0 0 0-1.513c-.42 0-.755.34-.755.756zM146.378 83.603c0 .42.34.757.762.757a.757.757 0 0 0 0-1.513.76.76 0 0 0-.762.756zM149.136 83.603c0 .42.34.757.76.757a.756.756 0 0 0 0-1.513c-.42 0-.76.34-.76.756zM151.893 83.603c0 .42.338.757.76.757a.756.756 0 0 0 0-1.513c-.423 0-.76.34-.76.756z"/><circle fill="#FFF" cx="134.875" cy="85.671" r=".758"/><circle fill="#FFF" cx="137.631" cy="85.671" r=".759"/><circle fill="#FFF" cx="140.386" cy="85.671" r=".758"/><path fill="#FFF" d="M142.384 85.67c0 .422.34.76.758.76a.754.754 0 0 0 .756-.76.758.758 0 0 0-1.514 0z"/><circle fill="#FFF" cx="145.899" cy="85.671" r=".757"/><path fill="#FFF" d="M147.896 85.67a.757.757 0 0 0 1.516 0 .756.756 0 0 0-.756-.756.756.756 0 0 0-.76.757z"/><circle fill="#FFF" cx="151.409" cy="85.671" r=".758"/><path fill="#FFF" d="M134.117 89.806c0 .42.34.757.756.757.42 0 .76-.336.76-.757a.76.76 0 0 0-.76-.76.76.76 0 0 0-.756.76zM136.872 89.806c0 .42.34.757.758.757.42 0 .76-.336.76-.757a.76.76 0 0 0-.76-.76.76.76 0 0 0-.758.76zM139.628 89.806c0 .42.34.757.758.757.42 0 .758-.336.758-.757a.76.76 0 0 0-.758-.76.76.76 0 0 0-.758.76zM142.384 89.806a.757.757 0 0 0 1.514 0 .756.756 0 0 0-1.514 0zM145.142 89.806c0 .42.338.757.757.757s.757-.336.757-.757c0-.417-.34-.76-.758-.76s-.758.343-.758.76zM147.896 89.806c0 .42.338.757.76.757a.76.76 0 1 0-.76-.757zM150.65 89.806c0 .42.34.757.76.757a.76.76 0 1 0-.76-.757zM132.6 87.738a.758.758 0 1 0 1.516 0 .758.758 0 0 0-1.515 0z"/><circle fill="#FFF" cx="136.114" cy="87.738" r=".758"/><circle fill="#FFF" cx="138.87" cy="87.738" r=".758"/><circle fill="#FFF" cx="141.626" cy="87.738" r=".758"/><circle fill="#FFF" cx="144.384" cy="87.738" r=".757"/><path fill="#FFF" d="M146.378 87.738a.76.76 0 0 0 1.518 0 .76.76 0 0 0-1.518 0z"/><circle fill="#FFF" cx="149.894" cy="87.738" r=".758"/><circle fill="#FFF" cx="152.65" cy="87.738" r=".758"/><path fill="#FFF" d="M101.145 81.94H128.2v1.308h-27.055zM101.145 85.056H128.2v1.31h-27.055zM101.145 88.096H128.2v1.308h-27.055z"/><circle fill="#EB6159" cx="89.712" cy="85.671" r="5.237"/><path fill="#3A383A" d="M85.786 85.67c0 2.17 1.76 3.928 3.926 3.928a3.927 3.927 0 0 0 0-7.854 3.928 3.928 0 0 0-3.926 3.927z"/><path fill="#5E5E5E" d="M153.726 105.514V98.79 95.3H81.943a3.49 3.49 0 0 0-3.49 3.49v6.724h75.273z"/><circle fill="#FFF" cx="134.875" cy="99.367" r=".758"/><circle fill="#FFF" cx="137.631" cy="99.367" r=".759"/><circle fill="#FFF" cx="140.386" cy="99.367" r=".758"/><path fill="#FFF" d="M142.384 99.367a.756.756 0 0 0 1.514 0 .754.754 0 0 0-.756-.757.76.76 0 0 0-.758.757z"/><circle fill="#FFF" cx="145.899" cy="99.367" r=".757"/><path fill="#FFF" d="M147.896 99.367a.76.76 0 1 0 1.518.004.76.76 0 0 0-1.518-.003zM150.65 99.367a.76.76 0 1 0 1.514.004.76.76 0 0 0-1.513-.004zM132.6 101.435c0 .418.34.757.757.757.424 0 .76-.34.76-.757a.76.76 0 0 0-1.517 0z"/><circle fill="#FFF" cx="136.114" cy="101.435" r=".758"/><circle fill="#FFF" cx="138.87" cy="101.435" r=".758"/><circle fill="#FFF" cx="141.626" cy="101.435" r=".758"/><path fill="#FFF" d="M143.627 101.435a.758.758 0 1 0 1.513-.003.758.758 0 0 0-1.513.003zM146.378 101.435a.76.76 0 1 0 1.518-.004.76.76 0 0 0-1.518.005z"/><circle fill="#FFF" cx="149.894" cy="101.435" r=".758"/><circle fill="#FFF" cx="152.65" cy="101.435" r=".758"/><path fill="#FFF" d="M134.117 103.504c0 .42.34.754.756.754.42 0 .76-.335.76-.754a.758.758 0 0 0-1.516 0zM136.872 103.504c0 .42.34.754.758.754.42 0 .76-.335.76-.754a.76.76 0 0 0-1.518 0zM139.628 103.504c0 .42.34.754.758.754a.758.758 0 1 0-.758-.754zM142.384 103.504c0 .42.34.754.758.754a.75.75 0 0 0 .756-.754c0-.42-.334-.76-.756-.76a.76.76 0 0 0-.758.76zM145.142 103.504c0 .42.338.754.757.754s.757-.335.757-.754a.758.758 0 0 0-1.515 0zM147.896 103.504c0 .42.338.754.76.754a.757.757 0 0 0 0-1.513c-.423 0-.76.34-.76.76zM150.65 103.504c0 .42.34.754.76.754a.757.757 0 1 0-.76-.754zM101.145 99.77H128.2v1.31h-27.055zM101.145 102.89H128.2v1.306h-27.055z"/><path fill="#EB6159" d="M94.546 105.514a5.233 5.233 0 0 0-4.834-7.243 5.234 5.234 0 0 0-4.835 7.243h9.668z"/><path fill="#3A383A" d="M93.07 105.514a3.89 3.89 0 0 0 .57-2.01 3.928 3.928 0 0 0-7.855 0c0 .737.217 1.42.57 2.01h6.716z"/><circle fill="#14CAF4" cx="89.714" cy="14.322" r="1.823"/><circle fill="#14CAF4" cx="89.714" cy="32.151" r="1.823"/><circle fill="#14CAF4" cx="89.714" cy="50" r="1.823"/><path fill="#14CAF4" d="M91.537 67.83c0 1.005-.817 1.82-1.825 1.82a1.818 1.818 0 0 1-1.82-1.82 1.822 1.822 0 0 1 3.645 0z"/><circle fill="#14CAF4" cx="89.714" cy="85.698" r="1.823"/><circle fill="#14CAF4" cx="89.714" cy="103.526" r="1.823"/><path opacity=".2" fill="#FFF" d="M120.735 105.514l32.99-93.15V2.257h-2.865l-36.547 103.256z"/><path opacity=".1" fill="#FFF" d="M80.396 3.806h73.33v101.708h-73.33z"/><path opacity=".3" d="M87.874 105.514v-94.72H155V.574H87.873v4.108H75.96v100.832z"/><path opacity=".2" fill="#FFF" d="M108.71 105.514L145.4 2.258h-28.485L80.226 105.514z"/><path fill="#D8D8D8" d="M83.41 105.514V7.13h70.316V0h-78.51v105.514z"/><path fill="#D8D8D8" d="M153.254 105.514h8.194V0h-78.51l70.316 7.13z"/><path opacity=".1" d="M161.448 105.514V0l-8.194 7.13v98.384z"/><path opacity=".4" fill="#444" d="M125.896 105.514L112.483 30.87S97.728 50.434 97.45 51.32c-.196.626 1.72 34.346 2.867 54.193h25.58z"/><g><g fill="#878787"><path d="M37.294 102.135a2.017 2.017 0 0 1-2.018 2.018H29.45a2.018 2.018 0 0 1-2.018-2.018V45.088c0-1.113.903-2.018 2.017-2.018h5.826c1.115 0 2.018.904 2.018 2.018v57.047zM115.064 102.135a2.018 2.018 0 0 1-2.018 2.018h-5.827a2.017 2.017 0 0 1-2.017-2.018V45.088c0-1.113.902-2.018 2.016-2.018h5.826a2.02 2.02 0 0 1 2.018 2.018v57.047z"/></g><path fill="#EDEDED" d="M110.58 29.52H31.916a2.017 2.017 0 0 0-2.018 2.018V83.96c0 3.59 3.012 5.83 6.725 5.83h69.253c3.714 0 6.724-2.24 6.724-5.83V31.537a2.017 2.017 0 0 0-2.02-2.017z"/><path fill="#EDEDED" d="M112.6 105.514V31.537a2.017 2.017 0 0 0-2.017-2.018H31.916a2.016 2.016 0 0 0-2.018 2.017v73.977H112.6z"/><path opacity=".1" d="M110.58 30.863H31.916a2.017 2.017 0 0 0-2.018 2.018v52.423c0 3.59 3.012 5.83 6.725 5.83h69.253c3.714 0 6.724-2.24 6.724-5.83V32.88a2.018 2.018 0 0 0-2.02-2.017z"/><path fill="#F6F6F6" d="M110.58 29.52H31.916a2.017 2.017 0 0 0-2.018 2.018V83.96c0 3.59 3.012 5.83 6.725 5.83h69.253c3.714 0 6.724-2.24 6.724-5.83V31.537a2.017 2.017 0 0 0-2.02-2.017z"/><path opacity=".03" d="M110.58 29.52L36.623 89.79h69.253c3.714 0 6.724-2.24 6.724-5.83V31.537a2.017 2.017 0 0 0-2.02-2.017z"/><circle fill="#878787" cx="71.25" cy="89.888" r="11.991"/><path fill="#878787" d="M59.574 90.077H35.84a6.853 6.853 0 0 1-6.847-6.845h.576a6.276 6.276 0 0 0 6.27 6.268h23.734v.577zM106.417 90.08H82.68V89.5h23.737a6.276 6.276 0 0 0 6.268-6.27h.577a6.853 6.853 0 0 1-6.845 6.847z"/><circle fill="#50CEFF" cx="71.249" cy="89.888" r="10.758"/><circle fill="#EDEDED" cx="71.249" cy="89.888" r="9.413"/><path opacity=".05" d="M35.726 105.514V29.52h-3.81a2.016 2.016 0 0 0-2.018 2.018v73.977h5.828zM112.6 105.514V31.537a2.017 2.017 0 0 0-2.017-2.018h-3.81v75.993h5.827z"/><path d="M89.226 59.646a3.922 3.922 0 0 1-3.922 3.92H62.23a7.238 7.238 0 0 1 0-14.474c.413 0 .814.037 1.21.104a9.125 9.125 0 0 1 7.625-4.106c4.113 0 7.59 2.72 8.734 6.453a6.03 6.03 0 0 1 6.29 4.263 3.918 3.918 0 0 1 3.136 3.84z" opacity=".2"/><path fill="#FFF" d="M89.226 60.535a3.92 3.92 0 0 1-3.922 3.92H62.23a7.237 7.237 0 1 1 1.21-14.37 9.137 9.137 0 0 1 16.36 2.347c.173-.016.345-.025.52-.025a6.032 6.032 0 0 1 5.77 4.287 3.918 3.918 0 0 1 3.136 3.84z" opacity=".6"/><path fill="#DADADA" d="M89.226 60.133a3.922 3.922 0 0 1-3.922 3.92H62.23a7.238 7.238 0 0 1 0-14.473c.413 0 .814.036 1.21.103a9.125 9.125 0 0 1 7.625-4.106c4.113 0 7.59 2.72 8.734 6.453a6.03 6.03 0 0 1 6.29 4.262 3.917 3.917 0 0 1 3.136 3.84z"/><g fill="#3DC2EA"><path d="M71.248 95.826a5.412 5.412 0 0 1-5.406-5.407c0-1.393.53-2.72 1.497-3.73a.828.828 0 1 1 1.198 1.145A3.734 3.734 0 0 0 67.5 90.42a3.753 3.753 0 0 0 3.748 3.748 3.753 3.753 0 0 0 3.75-3.75c0-.962-.368-1.88-1.04-2.583a.83.83 0 0 1 1.2-1.145 5.38 5.38 0 0 1 1.497 3.73 5.412 5.412 0 0 1-5.407 5.406z"/><path d="M72.104 90.275a.856.856 0 0 1-1.71 0v-5.473a.855.855 0 0 1 1.71 0v5.473z"/></g><path opacity=".05" d="M64.593 96.544a9.41 9.41 0 0 0 13.312 0 9.413 9.413 0 0 0 0-13.312L64.593 96.544z"/><path d="M78.87 54.292a4.19 4.19 0 0 0-5.736-.177l-.006-.007-4.982 4.91-.004-.003a2.345 2.345 0 0 1-3.212-.1 2.347 2.347 0 0 1 3.212-3.418l.004-.004 1.365 1.386 1.35-1.262-1.49-1.51-.007.006a4.19 4.19 0 0 0-5.738 6.107 4.19 4.19 0 0 0 5.738.178l.007.007 4.982-4.91.003.003a2.347 2.347 0 1 1 0 3.518l-.003.004-1.4-1.398-1.322 1.29 1.5 1.494.005-.007a4.19 4.19 0 0 0 5.737-.178 4.195 4.195 0 0 0 0-5.93z" opacity=".3"/><g fill="#878787"><path d="M40.433 29.52v6.002a.638.638 0 0 0 1.278 0V29.52h-1.277zM42.987 29.52v6.002a.638.638 0 0 0 1.277 0V29.52h-1.277zM45.54 29.52v6.002a.64.64 0 0 0 1.28 0V29.52h-1.28z"/></g><g fill="#878787"><path d="M96.173 29.52v6.002a.64.64 0 0 0 1.278 0V29.52h-1.277zM98.728 29.52v6.002a.64.64 0 0 0 1.278 0V29.52h-1.278zM101.282 29.52v6.002a.638.638 0 0 0 1.278 0V29.52h-1.278z"/></g><path opacity=".15" d="M55.703 29.52v1.703a2.84 2.84 0 0 0 2.838 2.838h25.415a2.84 2.84 0 0 0 2.84-2.837V29.52H55.702z"/></g></g></svg>