<svg xmlns="http://www.w3.org/2000/svg" width="73.258" height="48.966" viewBox="0 0 73.258 48.966"><path fill="#383838" d="M36.795 40.196L0 21.244 36.463 0l36.795 21.07z"/><ellipse fill="#666" cx="36.64" cy="24.582" rx="19.096" ry="9.685"/><path fill="#666" d="M17.693 24.966h38v14h-38z"/><path fill="#FFDB06" d="M13.162 10.528c-4.257 2.25-6.303 13.72-6.253 35.06l2.443-.01c-.06-26.47 3.04-31.538 4.465-32.3l3.85-2.327c-1.187-1.005-2.8-1.325-4.506-.422z"/><path fill="#FFDB06" d="M8.207 39.128s-2.98 1.376-3.13 9.838h6.11s.61-6.464-2.98-9.838z"/><path opacity=".15" fill="#F3F3F3" d="M36.693.135v40.01l.1-.19 1.433-.99h17.467V30.26l17.54-9.19z"/><ellipse fill="#1A1A1A" cx="36.641" cy="38.885" rx="19.195" ry="9.51"/></svg>