<svg xmlns="http://www.w3.org/2000/svg" width="480" height="144" viewBox="0.394 148.51 480 144"><path fill="#8FB7B6" d="M.394 148.51h478.79v144H.393z"/><path fill="#76D9FC" d="M477.857 148.51H.394v144h480V152.816a280.707 280.707 0 0 0-2.537-4.306z"/><path fill="#00A936" d="M101.812 267.684c.446.407.74 1.05 1.14 1.122h.585c2.778.788 5.48-2.015 3.373-2.197-.83-.15-2.432.066-5.098 1.074zM166.417 243.333c-4.414.748-5.48 3.7 4.014 10.223 1.176-.318 9.34-2.16 4.548 2.777 14.742-8.79-1.03-14.337-8.56-13zM164.654 148.51c-1.807 11.236-7.808 22.958 1.764 31.81 9.258-3.762 14.36-19.546 13.256-31.81h-15.02zM348.67 214.96c1.255-8.723-12.62-15.143-18.868-14.783-3.64.254-4.348 2.855 2.38 9.126-6.288 14.847 10.47 15.642 16.487 5.656zM207.713 148.51c1.948 17.19-17.436 42.297 8.172 49.514 7.73-17.293 24.19-32.247 32.53-49.514h-40.702z"/><path fill="#00A936" d="M169.877 205.945c-5.897-26.56-38.547-39.395-49.285-9.15-26.882 7.207-19.458-45.16 4.724-48.284H20.424c-7.287 8.73-14.042 17.57-20.03 26.41v117.59h5.233c11.31-8.11 29.003-9.125 38.733 0h30.147c8.32-10.902 16.67-23.482 30.206-26.436 12.666-10.995 46.946.824 34.546-21.63 12.255-11.647 48.207-11.25 30.617-38.5zM140.962 148.51H129.88c1.025.126 2.07.33 3.14.633 3.157.183 5.78-.068 7.942-.633zM347.447 150.333a20.167 20.167 0 0 1-.104-1.822H322.02c2.92 9.923 8.317 18.778 15.26 22.228 19.012 10.23 29.702-10.308 10.167-20.405z"/><path fill="#00A936" d="M399.634 264.873c-12.906 5.345-20.586 15.835-26.846 27.638h107.605V155.25a284.652 284.652 0 0 0-4.012-6.74H363.455c9.35 8.658 17.36 23.903 6.662 31.235-.8.547-1.445 1.19-2.217 1.762.915-3.67-1.315-.21-1.247.62-22.727 16.47-9.768 55.252-18.598 81.094-15.736 34.93 39.357 19.53 31.143-7.964-10.082-25.303 41.898-13.772 30.656-31.755 31.52 16.722 28.543-28.18 15.375-43.18 6.144-24 22.343 2.813 14.68 15.892 1.247 12.37 11.913 15.217 20.47 18.748.387.286.832.33 1.678.537 7.482 3.57 11.97 8.148 3.896 22.206-9.26 31.216-40.66 32.942-66.32 27.17z"/><path fill="#010000" d="M480.394 192.66c-6.477-1.37-14.262-2.71-23.31-3.9a305.664 305.664 0 0 0-16.577-40.25h-9.36a296.22 296.22 0 0 1 16.75 39.062c-7.337-.908-15.32-1.698-24.005-2.525-24.15-2.164-52.172-3.896-82.648-5.086a525.453 525.453 0 0 0-6.37-31.447h-8.542a509.156 509.156 0 0 1 6.408 31.123c-28.58-1.007-59.168-1.548-90.645-1.61V148.51h-8.333v29.512c-31.46.033-62.025.568-90.626 1.576a504.91 504.91 0 0 1 6.394-31.088h-8.532a527.434 527.434 0 0 0-6.366 31.414c-30.98 1.15-59.457 2.926-83.966 5.12-8.13.76-15.692 1.554-22.652 2.37A297.104 297.104 0 0 1 44.72 148.51h-9.355a305.254 305.254 0 0 0-16.52 40.07c-6.868.903-13.02 1.86-18.45 2.856v8.407a784.156 784.156 0 0 1 15.65-2.376C7.6 225.625 2.788 255.863 2.35 287.37H.394v5.14h480v-5.14h-6.873c-.43-31.432-5.204-61.6-13.62-89.715 8.732 1.262 15.395 2.49 20.494 3.624v-8.62zm-354.9 94.713H10.657c.473-32.006 5.554-62.676 14.46-91.118 8.954-1.088 19.618-2.202 32.328-3.316 22.452-1.917 48.117-3.423 75.792-4.51-4.845 31.144-7.515 64.522-7.74 98.943zm108.266 0h-99.945c.234-34.57 2.938-68.122 7.91-99.265 29.056-1.012 60.158-1.588 92.036-1.624v100.89zm8.333 0v-100.89c31.914.073 63.033.647 92.088 1.69 4.94 31.11 7.62 64.63 7.86 99.2h-99.947zm223.08 0h-114.81c-.215-34.385-2.89-67.766-7.73-98.907 27.195 1.082 52.412 2.592 74.5 4.472 13.355 1.154 24.443 2.35 33.682 3.49 8.866 28.412 13.913 59.008 14.358 90.945z" opacity=".2"/><g><path fill="#EDEDED" d="M263.48 292.51c.004-.07.02-.136.02-.208V151.248c0-1.06-.415-2.014-1.077-2.737H83.163a4.033 4.033 0 0 0-1.08 2.738v141.055c0 .07.02.138.022.208H263.48z"/><path fill="#444" d="M83.163 148.51a4.033 4.033 0 0 0-1.08 2.737v12.155h181.418v-12.155c0-1.06-.415-2.014-1.077-2.737H83.163z"/><circle fill="#2CB740" cx="90.94" cy="155.512" r="3.207"/><path fill="#F16442" d="M103.92 155.512a3.206 3.206 0 1 1-6.413-.002 3.206 3.206 0 0 1 6.412.002z"/><path fill="#FFF" d="M256.808 155.32a3.205 3.205 0 0 1-3.205 3.206H109.145a3.21 3.21 0 0 1-3.208-3.205 3.212 3.212 0 0 1 3.208-3.21h144.458a3.206 3.206 0 0 1 3.205 3.21z"/><ellipse fill="#FCD22E" cx="113.721" cy="178.494" rx=".067" ry=".044"/><g fill="#65B4C9"><path d="M90.698 208.24h38.812v40.896H90.698zM132.435 208.24h38.816v40.896h-38.815zM174.333 208.24h38.815v40.896h-38.815zM216.078 208.24h38.812v40.896h-38.812zM90.698 251.514h38.812v40.896H90.698zM132.435 251.514h38.816v40.896h-38.815zM174.333 251.514h38.815v40.896h-38.815zM216.078 251.514h38.812v40.896h-38.812z"/></g><path fill="#65B4C9" d="M89.433 168.174h163.634v34.623H89.433z"/><path fill="#005E73" d="M118.2 219.914v-.005H114.272c0 .044 0 .09-.004.133l-2.928-1.647c.74-.483 1.36-1.063 1.36-2.047a2.24 2.24 0 0 0-4.475 0 .445.445 0 0 0 .887 0c0-.744.604-1.345 1.35-1.345.74 0 1.346.6 1.346 1.344 0 .718-.568 1.087-1.573 1.68l-3.923 2.206a5.74 5.74 0 0 1-.012-.326h-3.675v.005c-.042 0-.083-.005-.123-.005-2.682 0-4.852 2.192-4.852 4.89v3.904h4.974v14.564h15.58v-14.564h4.732V224.8c-.002-2.66-2.108-4.82-4.733-4.886zm-7.92 3.982c-.88 0-1.66-.227-2.29-.634h4.586c-.632.408-1.41.634-2.296.634zm.178-4.976l3.688 2.074a3.794 3.794 0 0 1-.628 1.378h-6.472a3.777 3.777 0 0 1-.582-1.205l3.994-2.247zM159.943 219.914v-.005H156.008v.133l-2.927-1.647c.74-.483 1.358-1.063 1.358-2.047a2.237 2.237 0 0 0-4.473 0c0 .245.196.445.442.445s.447-.2.447-.446a1.346 1.346 0 0 1 2.693 0c0 .718-.568 1.087-1.573 1.68l-3.926 2.206a5.74 5.74 0 0 1-.012-.326H144.362v.005c-.04 0-.082-.005-.122-.005-2.68 0-4.854 2.192-4.854 4.89v3.904h4.976v14.564h15.58v-14.564h4.732V224.8c0-2.66-2.108-4.82-4.73-4.886zm-7.92 3.982c-.883 0-1.663-.227-2.292-.634h4.585c-.63.408-1.41.634-2.293.634zm.175-4.976l3.688 2.074a3.824 3.824 0 0 1-.626 1.378h-6.47a3.736 3.736 0 0 1-.583-1.205l3.99-2.247zM201.838 219.914v-.005h-3.932c0 .044 0 .09-.002.133l-2.93-1.647c.742-.483 1.36-1.063 1.36-2.047a2.24 2.24 0 0 0-2.235-2.237 2.24 2.24 0 0 0-2.24 2.236.446.446 0 0 0 .89 0c0-.744.603-1.345 1.35-1.345.74 0 1.345.6 1.345 1.344 0 .718-.568 1.087-1.573 1.68l-3.924 2.206a3.472 3.472 0 0 1-.016-.326h-3.673v.005c-.04 0-.083-.005-.124-.005-2.68 0-4.853 2.192-4.853 4.89v3.904h4.976v14.564h15.578v-14.564h4.73V224.8c.002-2.66-2.104-4.82-4.73-4.886zm-7.917 3.982c-.88 0-1.664-.227-2.29-.634h4.583c-.63.408-1.408.634-2.292.634zm.178-4.976l3.686 2.074a3.795 3.795 0 0 1-.63 1.378h-6.468a3.738 3.738 0 0 1-.583-1.205l3.995-2.247zM243.583 219.914v-.005h-3.935c0 .044 0 .09-.002.133l-2.927-1.647c.74-.483 1.355-1.063 1.355-2.047 0-1.234-1.003-2.237-2.236-2.237s-2.237 1.003-2.237 2.236c0 .245.2.445.44.445.25 0 .447-.2.447-.446 0-.744.603-1.345 1.35-1.345.742 0 1.348.6 1.348 1.344 0 .718-.567 1.087-1.573 1.68l-3.927 2.206a5.766 5.766 0 0 1-.01-.326h-3.675v.005c-.04 0-.082-.005-.12-.005-2.682 0-4.856 2.192-4.856 4.89v3.904h4.976v14.564h15.583v-14.564h4.727V224.8c-.003-2.66-2.105-4.82-4.73-4.886zm-7.92 3.982c-.886 0-1.665-.227-2.292-.634h4.586c-.63.408-1.412.634-2.293.634zm.176-4.976l3.686 2.074a3.878 3.878 0 0 1-.628 1.378h-6.47a3.736 3.736 0 0 1-.583-1.205l3.994-2.247zM118.2 263.19v-.007H114.272c0 .044 0 .088-.004.135l-2.928-1.648c.74-.485 1.36-1.063 1.36-2.046a2.244 2.244 0 0 0-2.24-2.24 2.242 2.242 0 0 0-2.236 2.24.443.443 0 0 0 .888 0 1.348 1.348 0 0 1 2.696 0c0 .717-.568 1.088-1.573 1.678l-3.923 2.21a5.706 5.706 0 0 1-.012-.327h-3.675v.006c-.042 0-.083-.005-.123-.005-2.682 0-4.852 2.19-4.852 4.892V271.977h4.974v14.567h15.58v-14.567h4.732V268.077c-.002-2.66-2.108-4.825-4.733-4.888zm-7.92 3.98c-.88 0-1.66-.227-2.29-.63h4.586c-.632.404-1.41.63-2.296.63zm.178-4.974l3.688 2.073a3.818 3.818 0 0 1-.628 1.38h-6.472a3.814 3.814 0 0 1-.582-1.21l3.994-2.244zM159.943 263.19v-.007H156.008v.135l-2.927-1.648c.74-.485 1.358-1.063 1.358-2.046a2.243 2.243 0 0 0-2.24-2.24 2.24 2.24 0 0 0-2.233 2.24c0 .244.196.443.442.443s.447-.2.447-.443a1.348 1.348 0 0 1 2.693 0c0 .717-.568 1.088-1.573 1.678l-3.926 2.21a5.706 5.706 0 0 1-.012-.327H144.362v.006c-.04 0-.082-.005-.122-.005-2.68 0-4.854 2.19-4.854 4.892V271.977h4.976v14.567h15.58v-14.567h4.732V268.077c0-2.66-2.108-4.825-4.73-4.888zm-7.92 3.98c-.883 0-1.663-.227-2.292-.63h4.585c-.63.404-1.41.63-2.293.63zm.175-4.974l3.688 2.073a3.85 3.85 0 0 1-.626 1.38h-6.47a3.77 3.77 0 0 1-.583-1.21l3.99-2.244zM201.838 263.19v-.007h-3.932c0 .044 0 .088-.002.135l-2.93-1.648c.742-.485 1.36-1.063 1.36-2.046a2.243 2.243 0 0 0-2.235-2.24 2.243 2.243 0 0 0-2.24 2.24.445.445 0 0 0 .89 0 1.348 1.348 0 0 1 2.695 0c0 .717-.568 1.088-1.573 1.678l-3.924 2.21a3.455 3.455 0 0 1-.016-.327h-3.673v.006c-.04 0-.083-.005-.124-.005-2.68 0-4.853 2.19-4.853 4.892V271.977h4.976v14.567h15.578v-14.567h4.73V268.077c.002-2.66-2.104-4.825-4.73-4.888zm-7.917 3.98c-.88 0-1.664-.227-2.29-.63h4.583c-.63.404-1.408.63-2.292.63zm.178-4.974l3.686 2.073a3.82 3.82 0 0 1-.63 1.38h-6.468a3.773 3.773 0 0 1-.583-1.21l3.995-2.244zM243.583 263.19v-.007h-3.935c0 .044 0 .088-.002.135l-2.927-1.648c.74-.485 1.355-1.063 1.355-2.046 0-1.234-1.003-2.24-2.236-2.24s-2.237 1.005-2.237 2.24a.443.443 0 0 0 .887 0 1.35 1.35 0 0 1 2.698 0c0 .717-.567 1.088-1.573 1.678l-3.927 2.21a5.737 5.737 0 0 1-.01-.327h-3.675v.006c-.04 0-.082-.005-.12-.005-2.682 0-4.856 2.19-4.856 4.892V271.977h4.976v14.567h15.583v-14.567h4.727V268.077c-.003-2.66-2.105-4.825-4.73-4.888zm-7.92 3.98c-.886 0-1.665-.227-2.292-.63h4.586c-.63.404-1.412.63-2.293.63zm.176-4.974l3.686 2.073a3.904 3.904 0 0 1-.628 1.38h-6.47a3.77 3.77 0 0 1-.583-1.21l3.994-2.244z"/><path fill="#FFF" d="M226.51 176.6c0 1.07-.866 1.938-1.936 1.938h-102.63a1.936 1.936 0 0 1 0-3.872h102.63c1.07.002 1.937.867 1.937 1.936zM226.51 185.485c0 1.07-.866 1.936-1.936 1.936h-102.63a1.938 1.938 0 0 1 0-3.874h102.63c1.07 0 1.937.87 1.937 1.94zM226.51 194.38c0 1.07-.866 1.937-1.936 1.937h-102.63a1.935 1.935 0 0 1 0-3.872h102.63c1.07 0 1.937.863 1.937 1.933z"/></g><g><path fill="#EDEDED" d="M402.892 292.51V150.43c0-.695-.184-1.342-.48-1.92h-188.13a4.184 4.184 0 0 0-.48 1.92v142.08h189.09z"/><g opacity=".4"><g opacity=".4"><path d="M274.26 265.915c0 .715-.58 1.295-1.292 1.295h-47.152c-.714 0-1.294-.58-1.294-1.295 0-.71.58-1.292 1.294-1.292h47.152c.713 0 1.293.58 1.293 1.292zM274.26 260.743c0 .716-.58 1.296-1.292 1.296h-47.152a1.295 1.295 0 0 1 0-2.59h47.152c.713 0 1.293.58 1.293 1.293zM274.26 255.57c0 .717-.58 1.292-1.292 1.292h-47.152a1.292 1.292 0 0 1-1.294-1.29c0-.713.58-1.294 1.294-1.294h47.152c.713 0 1.293.58 1.293 1.293zM274.26 250.398c0 .715-.58 1.292-1.292 1.292h-47.152a1.293 1.293 0 0 1 0-2.584h47.152c.713 0 1.293.578 1.293 1.292zM274.26 245.226c0 .714-.58 1.292-1.292 1.292h-47.152a1.293 1.293 0 0 1 0-2.584h47.152c.713 0 1.293.578 1.293 1.292zM274.26 240.055c0 .715-.58 1.293-1.292 1.293h-47.152a1.294 1.294 0 0 1 0-2.586h47.152c.713 0 1.293.578 1.293 1.293zM274.26 234.88c0 .714-.58 1.296-1.292 1.296h-47.152a1.295 1.295 0 0 1 0-2.588h47.152c.713 0 1.293.58 1.293 1.294z"/></g><path d="M274.26 286.446c0 .714-.58 1.294-1.292 1.294h-47.152a1.293 1.293 0 0 1 0-2.587h47.152c.713 0 1.293.578 1.293 1.293zM274.26 281.274c0 .715-.58 1.293-1.292 1.293h-47.152a1.292 1.292 0 0 1 0-2.585h47.152c.713 0 1.293.577 1.293 1.292zM274.26 276.102c0 .713-.58 1.292-1.292 1.292h-47.152a1.292 1.292 0 0 1 0-2.584h47.152c.713 0 1.293.576 1.293 1.292zM274.26 270.93c0 .714-.58 1.29-1.292 1.29h-47.152a1.294 1.294 0 0 1 0-2.585h47.152a1.292 1.292 0 0 1 1.293 1.294z" opacity=".4"/></g><g opacity=".4"><g opacity=".4"><path d="M333.704 265.915c0 .715-.58 1.295-1.295 1.295h-47.153c-.713 0-1.295-.58-1.295-1.295 0-.71.582-1.292 1.295-1.292h47.152c.714 0 1.294.58 1.294 1.292zM333.704 260.743c0 .716-.58 1.296-1.295 1.296h-47.153a1.298 1.298 0 0 1-1.295-1.297c0-.713.582-1.293 1.295-1.293h47.152c.714 0 1.294.58 1.294 1.293zM333.704 255.57c0 .717-.58 1.292-1.295 1.292h-47.153a1.294 1.294 0 0 1-1.295-1.29c0-.713.582-1.294 1.295-1.294h47.152c.714 0 1.294.58 1.294 1.293zM333.704 250.398c0 .715-.58 1.292-1.295 1.292h-47.153a1.295 1.295 0 0 1-1.295-1.292c0-.714.582-1.292 1.295-1.292h47.152c.714 0 1.294.578 1.294 1.292zM333.704 245.226c0 .714-.58 1.292-1.295 1.292h-47.153a1.295 1.295 0 0 1-1.295-1.292c0-.714.582-1.292 1.295-1.292h47.152c.714 0 1.294.578 1.294 1.292zM333.704 240.055c0 .715-.58 1.293-1.295 1.293h-47.153a1.295 1.295 0 0 1-1.295-1.293c0-.714.582-1.293 1.295-1.293h47.152c.714 0 1.294.578 1.294 1.293zM333.704 234.88c0 .714-.58 1.296-1.295 1.296h-47.153a1.298 1.298 0 0 1-1.295-1.295c0-.712.582-1.292 1.295-1.292h47.152c.714 0 1.294.58 1.294 1.293z"/></g><path d="M333.704 286.446c0 .714-.58 1.294-1.295 1.294h-47.153c-.713 0-1.295-.58-1.295-1.294 0-.715.582-1.293 1.295-1.293h47.152c.714 0 1.294.578 1.294 1.293zM333.704 281.274c0 .715-.58 1.293-1.295 1.293h-47.153a1.295 1.295 0 0 1-1.295-1.293c0-.715.582-1.292 1.295-1.292h47.152c.714 0 1.294.577 1.294 1.292zM333.704 276.102c0 .713-.58 1.292-1.295 1.292h-47.153c-.713 0-1.295-.58-1.295-1.292 0-.716.582-1.292 1.295-1.292h47.152c.714 0 1.294.576 1.294 1.292zM333.704 270.93c0 .714-.58 1.29-1.295 1.29h-47.153a1.292 1.292 0 0 1-1.295-1.29c0-.717.582-1.295 1.295-1.295h47.152a1.292 1.292 0 0 1 1.294 1.294z" opacity=".4"/></g><g opacity=".4"><g opacity=".4"><path d="M393.355 265.915c0 .715-.576 1.295-1.295 1.295h-47.152c-.713 0-1.293-.58-1.293-1.295 0-.71.58-1.292 1.293-1.292h47.152c.717 0 1.295.58 1.295 1.292zM393.355 260.743c0 .716-.576 1.296-1.295 1.296h-47.152a1.294 1.294 0 0 1 0-2.59h47.152c.717 0 1.295.58 1.295 1.293zM393.355 255.57a1.29 1.29 0 0 1-1.295 1.292h-47.152a1.292 1.292 0 0 1-1.293-1.29c0-.713.58-1.294 1.293-1.294h47.152c.717 0 1.295.58 1.295 1.293zM393.355 250.398a1.29 1.29 0 0 1-1.295 1.292h-47.152a1.293 1.293 0 0 1 0-2.584h47.152c.717 0 1.295.578 1.295 1.292zM393.355 245.226a1.29 1.29 0 0 1-1.295 1.292h-47.152a1.293 1.293 0 0 1 0-2.584h47.152c.717 0 1.295.578 1.295 1.292zM393.355 240.055a1.29 1.29 0 0 1-1.295 1.293h-47.152a1.294 1.294 0 0 1 0-2.586h47.152c.717 0 1.295.578 1.295 1.293zM393.355 234.88c0 .714-.576 1.296-1.295 1.296h-47.152a1.294 1.294 0 0 1 0-2.588h47.152c.717 0 1.295.58 1.295 1.294z"/></g><path d="M393.355 286.446c0 .714-.576 1.294-1.295 1.294h-47.152a1.293 1.293 0 0 1 0-2.587h47.152c.717 0 1.295.578 1.295 1.293zM393.355 281.274a1.29 1.29 0 0 1-1.295 1.293h-47.152a1.292 1.292 0 0 1 0-2.585h47.152a1.29 1.29 0 0 1 1.295 1.292zM393.355 276.102a1.29 1.29 0 0 1-1.295 1.292h-47.152a1.292 1.292 0 0 1 0-2.584h47.152a1.29 1.29 0 0 1 1.295 1.292zM393.355 270.93a1.29 1.29 0 0 1-1.295 1.29h-47.152a1.293 1.293 0 0 1 0-2.585h47.152a1.29 1.29 0 0 1 1.295 1.294z" opacity=".4"/></g><path opacity=".3" d="M391.122 218.858a25.555 25.555 0 0 0 2.232-1.347v-3.636a22.04 22.04 0 0 1-3.86 2.548l-4.57-10.088 8.43-3.82v-2.57l-9.397 4.258-3.05-6.733 11.87-5.377c.203.475.395.95.578 1.428v-5.246a40.507 40.507 0 0 0-3.818-5.616l3.818-1.73v-4.666h-6.327a22.15 22.15 0 0 1 5.064 2.664l-4.128 1.87a58.505 58.505 0 0 0-4.55-4.534h-3.522c1.852 1.59 3.893 3.423 5.865 5.537l-9.918 4.49-4.49-9.91c.11-.042.223-.08.334-.118h-6.32c-9.872 6.68-13.794 19.688-8.708 30.914a24.848 24.848 0 0 0 10.928 11.686h11.775c-2.21-1.914-4.69-4.167-7.002-6.826l10.438-4.73 4.57 10.09c-2.165.85-4.392 1.32-6.614 1.464h10.376zm-3.736-35.225c1.61 1.902 3.115 4.016 4.363 6.352l-11.812 5.348-3.13-6.908 10.578-4.792zm-9.586 12.67l-11.81 5.354c-.935-2.477-1.526-5-1.9-7.47l10.58-4.796 3.13 6.913zm-14.285-14.71a21.737 21.737 0 0 1 5.697-4.243l4.488 9.907-9.918 4.495c-.367-3.74-.308-7.255-.267-10.158zm-2.348 2.888c-.03 2.57.06 5.375.412 8.27l-4.128 1.87a22.185 22.185 0 0 1 3.715-10.14zm-3.824 12.767l4.598-2.086c.43 2.462 1.075 4.96 2.024 7.413l-5.113 2.32a21.73 21.73 0 0 1-1.507-7.646zm2.47 9.78l5.063-2.296c1.08 2.31 2.428 4.418 3.906 6.343l-4.37 1.982a21.867 21.867 0 0 1-4.598-6.027zm16.05 11.598a22.154 22.154 0 0 1-9.426-3.912l3.88-1.756c1.796 2.102 3.715 3.977 5.546 5.668zm-5.047-8.472c-1.48-1.914-2.828-4.02-3.916-6.336l11.87-5.378 3.052 6.73-11.006 4.983z"/><path fill="#444" d="M214.283 148.51a4.184 4.184 0 0 0-.48 1.92v12.672h189.09V150.43c0-.695-.185-1.342-.48-1.92h-188.13z"/><circle fill="#2CB740" cx="223.032" cy="154.877" r="3.342"/><path fill="#F16442" d="M236.564 154.877a3.347 3.347 0 0 1-3.35 3.34 3.34 3.34 0 0 1 0-6.68 3.35 3.35 0 0 1 3.35 3.34z"/><path fill="#FFF" d="M395.92 154.678a3.342 3.342 0 0 1-3.343 3.34H242.005a3.348 3.348 0 0 1-3.344-3.34 3.352 3.352 0 0 1 3.345-3.35h150.572a3.347 3.347 0 0 1 3.344 3.35z"/><path fill="#FCD22E" d="M246.775 178.786c-.035 0-.066.02-.066.043 0 .026.03.05.065.05.04 0 .07-.023.07-.05 0-.025-.03-.044-.07-.044z"/><path opacity=".3" d="M223.554 221.772h170.56v2.72h-170.56zM223.554 170.713h170.56v2.72h-170.56z"/><g opacity=".1"><path d="M224.52 200.196h13.682v20.144H224.52zM240.34 192.315h13.68v28.025h-13.68zM271.077 188.262h13.68v32.077h-13.68zM255.734 203.117h13.676v17.223h-13.676z"/><g><path d="M286.572 194.745h13.682v25.596h-13.682zM302.394 184.65h13.682v35.69h-13.682zM333.13 179.458h13.678v40.883H333.13zM317.78 198.493h13.68v21.848h-13.68z"/></g></g><path fill="#9D9D9C" d="M326.226 184.114l2.924 4.535-29.65 19.632-4.863-8.17 13.29-8.35 3.042 4.475 11.69-15.657-19.855 3.634 2.594 3.822-13.07 8.207-4.34-7.3-.052.034-.213-.396-13.197 8.74-5.668-9.036-.045.025-.19-.337-38.59 24.246 2.58 3.693 34.528-21.672 3.512 5.64-26.406 17.485 1.188 2.492h5.633l22.483-15.32 4.064 6.53 2.78-2.013 9.74-6.123 7.716 13.067 3.127-2.387L332 193.073l3.424 5.31 13.176-18.59-22.374 4.32zm-47.154 20.455l-1.662-2.655 8.646-5.896 1.79 3.04-8.774 5.51z"/></g><g opacity=".3"><path d="M383.28 176.575c-15.366 0-27.866 12.5-27.866 27.863v17.368c0 7.948-6.47 14.415-14.418 14.415H289.38v6h51.615c11.26 0 20.418-9.157 20.418-20.415V204.438c0-12.055 9.81-21.863 21.865-21.863h97.115v-6H383.28z"/><path d="M373.61 214.055v16.133c0 12.055-9.808 21.86-21.864 21.86H289.38v6h62.365c15.365 0 27.863-12.497 27.865-27.86v-16.133c0-7.95 6.467-14.418 14.416-14.418h86.367v-6h-86.367c-11.257 0-20.417 9.16-20.417 20.418z"/><path d="M387.91 224.488h-.01v15.735c0 14.302-11.638 25.937-25.94 25.937h-72.58v6h72.582c17.61 0 31.936-14.33 31.936-31.938v-15.518c0-5.397 4.393-9.79 9.79-9.79h76.706v-6H403.69c-8.636 0-15.663 6.97-15.78 15.574z"/></g><g fill="#F16442"><path d="M383.28 172.575c-15.366 0-27.866 12.5-27.866 27.863v17.367c0 7.948-6.47 14.415-14.418 14.415H289.38v6h51.615c11.26 0 20.418-9.157 20.418-20.415v-17.367c0-12.055 9.81-21.863 21.865-21.863h97.115v-6H383.28z"/><path d="M373.61 210.055v16.133c0 12.055-9.808 21.862-21.864 21.862H289.38v6h62.365c15.365 0 27.863-12.497 27.865-27.86V210.054c0-7.95 6.467-14.418 14.416-14.418h86.367v-6h-86.367c-11.257 0-20.417 9.16-20.417 20.418z"/><path d="M387.91 220.49h-.01v15.731c0 14.304-11.638 25.94-25.94 25.94h-72.58v6h72.582c17.61 0 31.936-14.328 31.936-31.937v-15.518c0-5.397 4.393-9.79 9.79-9.79h76.706v-6H403.69c-8.636 0-15.663 6.968-15.78 15.574z"/></g><g opacity=".3"><path d="M64.13 248.294v-3.91h.002v-13.458c0-11.258-9.162-20.417-20.42-20.417H.394v6h43.318c7.95 0 14.42 6.467 14.42 14.416v3.85h-.002v13.52c0 15.362 12.5 27.86 27.863 27.86h103.79v-6H85.992c-12.055 0-21.863-9.806-21.863-21.862z"/><path d="M96.744 253.094c-7.95 0-14.418-6.467-14.418-14.417v-16.133c0-15.364-12.5-27.863-27.863-27.863H.393v6h54.07c12.055 0 21.863 9.81 21.863 21.863v16.135c0 11.26 9.16 20.416 20.418 20.416h93.04v-6h-93.04z"/><path d="M90.615 212.51V228.243h.01c.118 8.606 7.146 15.573 15.78 15.573h83.377v-6h-83.377c-5.393 0-9.78-4.38-9.79-9.77V212.51c0-17.61-14.327-31.936-31.936-31.936H.393v6H64.68c14.3 0 25.935 11.635 25.935 25.936z"/></g><g fill="#F16442"><path d="M64.13 244.292v-3.906h.002v-13.46c0-11.258-9.162-20.416-20.42-20.416H.394v6h43.318c7.95 0 14.42 6.467 14.42 14.417v3.848h-.002v13.518c0 15.365 12.5 27.862 27.863 27.862h103.79v-6H85.992c-12.055 0-21.863-9.806-21.863-21.863z"/><path d="M96.744 249.094c-7.95 0-14.418-6.468-14.418-14.417v-16.133c0-15.363-12.5-27.864-27.863-27.864H.393v6h54.07c12.055 0 21.863 9.81 21.863 21.864v16.133c0 11.258 9.16 20.418 20.418 20.418h93.04v-6h-93.04z"/><path d="M90.615 208.51V224.242h.01c.117 8.607 7.145 15.575 15.78 15.575h83.377v-6h-83.377c-5.393 0-9.78-4.38-9.79-9.77V208.51c0-17.61-14.327-31.936-31.936-31.936H.393v6H64.68c14.3 0 25.935 11.634 25.935 25.936z"/></g><path opacity=".3" d="M160.205 148.51H304.83v144H160.206z"/><g><path fill="#3A383A" d="M178.686 164.31h104.98v116.063h-104.98z"/><path fill="#5E5E5E" d="M175.975 148.51c-.013.145-.044.285-.044.434v13.49a4.992 4.992 0 0 0 4.994 4.996h102.743v-18.92H175.975z"/><path fill="#FFF" d="M253.43 152.733c0 .6.485 1.084 1.083 1.084a1.083 1.083 0 0 0 0-2.166c-.598 0-1.082.487-1.082 1.083zM257.374 152.733a1.086 1.086 0 0 0 2.172 0 1.087 1.087 0 0 0-2.172 0zM261.318 152.733a1.086 1.086 0 0 0 2.172 0 1.087 1.087 0 0 0-2.172 0zM265.26 152.733c0 .6.49 1.084 1.09 1.084a1.083 1.083 0 0 0 0-2.166c-.6 0-1.09.487-1.09 1.083zM269.212 152.733c0 .6.48 1.084 1.08 1.084s1.088-.484 1.088-1.084c0-.596-.486-1.082-1.088-1.082-.603 0-1.08.487-1.08 1.083zM273.15 152.733c0 .6.486 1.084 1.09 1.084a1.082 1.082 0 0 0 0-2.166c-.604 0-1.09.487-1.09 1.083zM277.097 152.733a1.084 1.084 0 1 0 2.168 0 1.084 1.084 0 0 0-2.168 0zM281.042 152.733c0 .6.484 1.084 1.086 1.084a1.082 1.082 0 0 0 0-2.166c-.6 0-1.086.487-1.086 1.083zM255.6 155.69c0 .598.487 1.088 1.083 1.088a1.086 1.086 0 1 0-1.082-1.088zM259.546 155.69c0 .598.484 1.088 1.082 1.088a1.086 1.086 0 1 0-1.082-1.088zM263.49 155.69c0 .598.486 1.088 1.084 1.088a1.087 1.087 0 0 0 0-2.172c-.598 0-1.084.486-1.084 1.084zM267.435 155.69c0 .598.486 1.088 1.082 1.088.602 0 1.08-.49 1.08-1.088s-.48-1.084-1.08-1.084c-.596 0-1.082.486-1.082 1.084zM271.38 155.69c0 .598.484 1.088 1.086 1.088a1.087 1.087 0 0 0 0-2.172c-.6 0-1.086.486-1.086 1.084zM275.322 155.69a1.085 1.085 0 0 0 2.17 0 1.084 1.084 0 0 0-2.17 0zM279.267 155.69c0 .598.484 1.088 1.086 1.088a1.085 1.085 0 1 0-1.086-1.088zM255.6 161.606a1.086 1.086 0 0 0 2.17 0 1.084 1.084 0 0 0-2.17 0z"/><circle fill="#FFF" cx="260.63" cy="161.606" r="1.086"/><ellipse fill="#FFF" cx="264.573" cy="161.606" rx="1.082" ry="1.09"/><path fill="#FFF" d="M267.435 161.606a1.08 1.08 0 0 0 2.162 0c0-.6-.48-1.084-1.08-1.084-.596 0-1.082.484-1.082 1.084z"/><ellipse fill="#FFF" cx="272.466" cy="161.606" rx="1.084" ry="1.09"/><path fill="#FFF" d="M275.322 161.606a1.086 1.086 0 0 0 2.17 0c0-.6-.482-1.084-1.082-1.084-.604 0-1.088.484-1.088 1.084zM279.267 161.606a1.085 1.085 0 0 0 2.17 0c0-.6-.486-1.084-1.084-1.084-.602 0-1.086.484-1.086 1.084zM253.43 158.65a1.086 1.086 0 1 0 1.083-1.086c-.598 0-1.082.487-1.082 1.085zM257.374 158.65a1.087 1.087 0 1 0 2.17.002 1.087 1.087 0 0 0-2.17-.003zM261.318 158.65c0 .598.488 1.087 1.088 1.087a1.086 1.086 0 1 0-1.088-1.088zM265.26 158.65a1.087 1.087 0 1 0 1.088-1.085c-.6-.002-1.087.486-1.087 1.084zM269.212 158.65c0 .598.48 1.087 1.08 1.087s1.088-.49 1.088-1.088c0-.598-.486-1.086-1.088-1.086a1.08 1.08 0 0 0-1.08 1.085zM273.15 158.65a1.087 1.087 0 1 0 1.09-1.085c-.604-.002-1.09.486-1.09 1.084zM277.097 158.65c0 .598.486 1.087 1.086 1.087a1.086 1.086 0 0 0 0-2.173c-.6-.002-1.086.486-1.086 1.084zM281.042 158.65c0 .598.484 1.087 1.086 1.087a1.087 1.087 0 0 0 0-2.173c-.6 0-1.086.487-1.086 1.085zM208.407 154.813h38.723v1.87h-38.723zM208.407 159.16h38.723v1.87h-38.723z"/><path fill="#EB6159" d="M194.172 148.51h-4.254c-3.102.918-5.368 3.78-5.368 7.18a7.497 7.497 0 0 0 7.495 7.498 7.494 7.494 0 0 0 2.127-14.678z"/><path fill="#3A383A" d="M186.425 155.69a5.62 5.62 0 0 0 5.62 5.62 5.62 5.62 0 1 0-5.62-5.62z"/><path fill="#5E5E5E" d="M175.93 187.995a4.995 4.995 0 0 0 4.994 4.996h102.743v-18.488-4.993H180.925a4.993 4.993 0 0 0-4.993 4.992v13.493z"/><path fill="#FFF" d="M255.6 175.333a1.084 1.084 0 1 0 2.17 0 1.084 1.084 0 0 0-2.17 0z"/><circle fill="#FFF" cx="260.63" cy="175.332" r="1.085"/><circle fill="#FFF" cx="264.573" cy="175.332" r="1.083"/><path fill="#FFF" d="M267.435 175.333c0 .6.486 1.084 1.082 1.084.602 0 1.08-.484 1.08-1.084 0-.6-.48-1.086-1.08-1.086-.596 0-1.082.486-1.082 1.086z"/><circle fill="#FFF" cx="272.466" cy="175.332" r="1.084"/><path fill="#FFF" d="M275.322 175.333c0 .6.484 1.084 1.088 1.084.6 0 1.082-.484 1.082-1.084a1.085 1.085 0 0 0-2.17 0zM279.267 175.333c0 .6.484 1.084 1.086 1.084a1.085 1.085 0 1 0-1.086-1.084zM253.43 178.292a1.08 1.08 0 0 0 1.083 1.082 1.084 1.084 0 1 0-1.082-1.082zM257.374 178.292c0 .598.488 1.082 1.088 1.082s1.084-.484 1.084-1.082c0-.602-.484-1.088-1.084-1.088s-1.088.486-1.088 1.088zM261.318 178.292a1.085 1.085 0 1 0 2.17-.007 1.085 1.085 0 0 0-2.17.007zM265.26 178.292c0 .598.49 1.082 1.09 1.082a1.085 1.085 0 0 0 0-2.17c-.6 0-1.09.486-1.09 1.088zM269.212 178.292c0 .598.48 1.082 1.08 1.082a1.085 1.085 0 0 0 0-2.17 1.08 1.08 0 0 0-1.08 1.088zM273.15 178.292c0 .598.486 1.082 1.09 1.082a1.08 1.08 0 0 0 1.082-1.082 1.087 1.087 0 0 0-2.172 0zM277.097 178.292c0 .598.486 1.082 1.086 1.082a1.086 1.086 0 1 0-1.086-1.082zM281.042 178.292c0 .598.484 1.082 1.086 1.082a1.08 1.08 0 0 0 1.082-1.082 1.084 1.084 0 0 0-2.168 0zM255.6 181.25zM259.546 181.25zM263.49 181.25a1.085 1.085 0 1 0 0 0zM267.435 181.25a1.08 1.08 0 0 0 2.162 0 1.08 1.08 0 0 0-2.162 0zM271.38 181.25zM275.322 181.25zM279.267 181.25zM255.6 187.167a1.084 1.084 0 1 0 2.17 0 1.084 1.084 0 0 0-2.17 0z"/><circle fill="#FFF" cx="260.63" cy="187.167" r="1.085"/><circle fill="#FFF" cx="264.573" cy="187.167" r="1.083"/><path fill="#FFF" d="M267.435 187.167c0 .6.486 1.084 1.082 1.084.602 0 1.08-.483 1.08-1.083s-.48-1.084-1.08-1.084c-.596 0-1.082.483-1.082 1.084z"/><circle fill="#FFF" cx="272.466" cy="187.167" r="1.084"/><path fill="#FFF" d="M275.322 187.167c0 .6.484 1.084 1.088 1.084.6 0 1.082-.483 1.082-1.083s-.482-1.084-1.082-1.084c-.604 0-1.088.483-1.088 1.084zM279.267 187.167c0 .6.484 1.084 1.086 1.084a1.084 1.084 0 0 0 0-2.167c-.602 0-1.086.483-1.086 1.084zM253.43 184.206a1.085 1.085 0 1 0 2.17.007 1.085 1.085 0 0 0-2.17-.007zM257.374 184.206a1.086 1.086 0 1 0 2.173.005 1.086 1.086 0 0 0-2.173-.005zM261.318 184.206a1.087 1.087 0 0 0 2.172 0 1.087 1.087 0 0 0-2.172 0zM265.26 184.206c0 .6.49 1.088 1.09 1.088a1.086 1.086 0 1 0-1.09-1.088zM269.212 184.206c0 .6.48 1.088 1.08 1.088s1.088-.488 1.088-1.088c0-.596-.486-1.082-1.088-1.082-.603 0-1.08.486-1.08 1.082zM273.15 184.206a1.085 1.085 0 1 0 2.173.005 1.085 1.085 0 0 0-2.173-.005zM277.097 184.206c0 .6.486 1.088 1.086 1.088a1.084 1.084 0 1 0-1.086-1.088zM281.042 184.206c0 .6.484 1.088 1.086 1.088a1.085 1.085 0 0 0 0-2.17c-.6 0-1.086.486-1.086 1.082zM208.407 175.905h38.723v1.873h-38.723zM208.407 180.368h38.723v1.873h-38.723zM208.407 184.723h38.723v1.87h-38.723z"/><path fill="#EB6159" d="M184.548 181.25a7.497 7.497 0 0 0 14.993 0 7.493 7.493 0 0 0-7.496-7.494 7.496 7.496 0 0 0-7.496 7.494z"/><path fill="#3A383A" d="M186.425 181.25a5.62 5.62 0 0 0 5.62 5.62 5.62 5.62 0 0 0 0-11.24 5.62 5.62 0 0 0-5.62 5.62z"/><path fill="#5E5E5E" d="M175.93 213.518a4.996 4.996 0 0 0 4.994 4.996h102.743v-18.489-4.994H180.925a4.993 4.993 0 0 0-4.993 4.995v13.493z"/><path fill="#FFF" d="M255.6 200.854a1.085 1.085 0 1 0 2.17.002 1.085 1.085 0 0 0-2.17-.002z"/><circle fill="#FFF" cx="260.63" cy="200.854" r="1.085"/><circle fill="#FFF" cx="264.573" cy="200.854" r="1.083"/><path fill="#FFF" d="M267.435 200.854c0 .6.486 1.086 1.082 1.086.602 0 1.08-.486 1.08-1.086s-.48-1.084-1.08-1.084c-.596 0-1.082.484-1.082 1.084z"/><circle fill="#FFF" cx="272.466" cy="200.854" r="1.084"/><path fill="#FFF" d="M275.322 200.854a1.085 1.085 0 1 0 2.17.002 1.085 1.085 0 0 0-2.17-.002zM279.267 200.854a1.084 1.084 0 1 0 2.17.003 1.084 1.084 0 0 0-2.17-.003zM253.43 203.815a1.084 1.084 0 0 0 2.17 0c0-.6-.48-1.09-1.087-1.09-.598 0-1.082.49-1.082 1.09z"/><circle fill="#FFF" cx="258.46" cy="203.815" r="1.085"/><circle fill="#FFF" cx="262.404" cy="203.815" r="1.085"/><circle fill="#FFF" cx="266.349" cy="203.815" r="1.086"/><path fill="#FFF" d="M269.212 203.815c0 .597.48 1.084 1.08 1.084s1.088-.49 1.088-1.085c0-.6-.486-1.09-1.088-1.09-.603 0-1.08.49-1.08 1.09zM273.15 203.815a1.087 1.087 0 1 0 2.174-.006 1.087 1.087 0 0 0-2.174.005z"/><circle fill="#FFF" cx="278.181" cy="203.815" r="1.084"/><circle fill="#FFF" cx="282.126" cy="203.815" r="1.084"/><path fill="#FFF" d="M255.6 206.772a1.084 1.084 0 1 0 2.17 0 1.084 1.084 0 0 0-2.17 0z"/><circle fill="#FFF" cx="260.63" cy="206.771" r="1.085"/><circle fill="#FFF" cx="264.573" cy="206.771" r="1.083"/><path fill="#FFF" d="M267.435 206.772c0 .598.486 1.084 1.082 1.084a1.08 1.08 0 0 0 1.08-1.084 1.08 1.08 0 0 0-2.162 0z"/><circle fill="#FFF" cx="272.466" cy="206.772" r="1.084"/><path fill="#FFF" d="M275.322 206.772a1.084 1.084 0 0 0 2.17 0 1.085 1.085 0 0 0-2.17 0zM279.267 206.772a1.084 1.084 0 0 0 2.17 0 1.085 1.085 0 0 0-2.17 0zM255.6 212.688a1.085 1.085 0 1 0 2.17.002 1.085 1.085 0 0 0-2.17-.002z"/><circle fill="#FFF" cx="260.63" cy="212.688" r="1.086"/><circle fill="#FFF" cx="264.573" cy="212.688" r="1.083"/><path fill="#FFF" d="M267.435 212.688c0 .602.486 1.086 1.082 1.086.602 0 1.08-.484 1.08-1.086a1.08 1.08 0 0 0-2.162 0z"/><circle fill="#FFF" cx="272.466" cy="212.688" r="1.084"/><path fill="#FFF" d="M275.322 212.688c0 .602.484 1.086 1.088 1.086.6 0 1.082-.484 1.082-1.086 0-.6-.482-1.082-1.082-1.082a1.08 1.08 0 0 0-1.088 1.082zM279.267 212.688a1.084 1.084 0 1 0 1.086-1.082 1.08 1.08 0 0 0-1.086 1.082zM253.43 209.73c0 .6.485 1.083 1.083 1.083a1.083 1.083 0 0 0 0-2.167 1.08 1.08 0 0 0-1.082 1.083z"/><circle fill="#FFF" cx="258.46" cy="209.729" r="1.085"/><circle fill="#FFF" cx="262.404" cy="209.729" r="1.085"/><circle fill="#FFF" cx="266.349" cy="209.729" r="1.086"/><path fill="#FFF" d="M269.212 209.73c0 .6.48 1.083 1.08 1.083s1.088-.484 1.088-1.084-.486-1.084-1.088-1.084c-.603 0-1.08.483-1.08 1.083zM273.15 209.73c0 .6.486 1.083 1.09 1.083.598 0 1.082-.484 1.082-1.084s-.484-1.084-1.082-1.084c-.604 0-1.09.483-1.09 1.083z"/><circle fill="#FFF" cx="278.181" cy="209.729" r="1.084"/><circle fill="#FFF" cx="282.126" cy="209.729" r="1.084"/><path fill="#FFF" d="M208.407 201.43h38.723v1.87h-38.723zM208.407 205.89h38.723v1.874h-38.723zM208.407 210.24h38.723v1.873h-38.723z"/><path fill="#EB6159" d="M184.548 206.772c0 4.14 3.36 7.493 7.496 7.493a7.496 7.496 0 0 0 0-14.99 7.498 7.498 0 0 0-7.495 7.497z"/><path fill="#3A383A" d="M186.425 206.772a5.62 5.62 0 1 0 11.242 0 5.62 5.62 0 0 0-11.242 0z"/><path fill="#5E5E5E" d="M175.93 238.996c0 2.763 2.238 5 4.994 5h102.743v-18.488-4.995H180.925a4.996 4.996 0 0 0-4.993 4.995v13.488z"/><path fill="#FFF" d="M255.6 226.336c0 .6.487 1.083 1.083 1.083a1.084 1.084 0 1 0-1.082-1.084z"/><circle fill="#FFF" cx="260.63" cy="226.336" r="1.085"/><circle fill="#FFF" cx="264.573" cy="226.336" r="1.083"/><path fill="#FFF" d="M267.435 226.336c0 .6.486 1.083 1.082 1.083.602 0 1.08-.485 1.08-1.084 0-.6-.48-1.084-1.08-1.084-.596 0-1.082.484-1.082 1.084z"/><circle fill="#FFF" cx="272.466" cy="226.336" r="1.084"/><path fill="#FFF" d="M275.322 226.336c0 .6.484 1.083 1.088 1.083.6 0 1.082-.485 1.082-1.084 0-.6-.482-1.084-1.082-1.084-.604 0-1.088.484-1.088 1.084zM279.267 226.336c0 .6.484 1.083 1.086 1.083a1.083 1.083 0 0 0 0-2.168c-.602 0-1.086.484-1.086 1.084zM253.43 229.294c0 .6.485 1.08 1.083 1.08a1.084 1.084 0 1 0-1.082-1.08zM257.374 229.294c0 .6.488 1.08 1.088 1.08s1.084-.478 1.084-1.08c0-.598-.484-1.085-1.084-1.085s-1.088.487-1.088 1.084zM261.318 229.294c0 .6.488 1.08 1.088 1.08a1.08 1.08 0 0 0 1.084-1.08 1.086 1.086 0 1 0-2.172 0zM265.26 229.294c0 .6.49 1.08 1.09 1.08a1.08 1.08 0 0 0 1.085-1.08 1.088 1.088 0 1 0-2.174 0zM269.212 229.294c0 .6.48 1.08 1.08 1.08a1.082 1.082 0 0 0 0-2.165 1.08 1.08 0 0 0-1.08 1.084zM273.15 229.294c0 .6.486 1.08 1.09 1.08.598 0 1.082-.478 1.082-1.08a1.087 1.087 0 1 0-2.172 0zM277.097 229.294c0 .6.486 1.08 1.086 1.08a1.08 1.08 0 0 0 1.084-1.08 1.086 1.086 0 1 0-2.17 0zM281.042 229.294c0 .6.484 1.08 1.086 1.08.598 0 1.082-.478 1.082-1.08a1.084 1.084 0 1 0-2.168 0zM255.6 232.25a1.084 1.084 0 0 0 2.17 0 1.085 1.085 0 0 0-2.17 0z"/><circle fill="#FFF" cx="260.63" cy="232.251" r="1.086"/><circle fill="#FFF" cx="264.573" cy="232.251" r="1.083"/><path fill="#FFF" d="M267.435 232.25c0 .604.486 1.088 1.082 1.088.602 0 1.08-.484 1.08-1.087a1.08 1.08 0 0 0-1.08-1.082c-.596 0-1.082.486-1.082 1.083z"/><circle fill="#FFF" cx="272.466" cy="232.252" r="1.084"/><path fill="#FFF" d="M275.322 232.25c0 .604.484 1.088 1.088 1.088.6 0 1.082-.484 1.082-1.087a1.084 1.084 0 0 0-2.17 0zM279.267 232.25a1.084 1.084 0 1 0 1.086-1.083c-.602 0-1.086.487-1.086 1.084zM255.6 238.167a1.084 1.084 0 1 0 1.083-1.083c-.596 0-1.082.486-1.082 1.083z"/><circle fill="#FFF" cx="260.63" cy="238.168" r="1.085"/><circle fill="#FFF" cx="264.573" cy="238.168" r="1.083"/><path fill="#FFF" d="M267.435 238.167c0 .598.486 1.084 1.082 1.084.602 0 1.08-.485 1.08-1.083s-.48-1.083-1.08-1.083c-.596 0-1.082.486-1.082 1.083z"/><circle fill="#FFF" cx="272.466" cy="238.167" r="1.084"/><path fill="#FFF" d="M275.322 238.167a1.084 1.084 0 1 0 1.088-1.083c-.604 0-1.088.486-1.088 1.083zM279.267 238.167a1.084 1.084 0 1 0 1.086-1.083c-.602 0-1.086.486-1.086 1.083zM253.43 235.21c0 .6.485 1.09 1.083 1.09.605 0 1.088-.49 1.088-1.09s-.48-1.083-1.087-1.083c-.598 0-1.082.485-1.082 1.083zM257.374 235.21c0 .6.488 1.09 1.088 1.09a1.087 1.087 0 0 0 0-2.173c-.6 0-1.088.485-1.088 1.083zM261.318 235.21c0 .6.488 1.09 1.088 1.09.598 0 1.084-.49 1.084-1.09s-.486-1.083-1.084-1.083c-.6 0-1.088.485-1.088 1.083zM265.26 235.21a1.088 1.088 0 0 0 2.174 0c0-.6-.483-1.083-1.085-1.083-.6 0-1.09.485-1.09 1.083zM269.212 235.21a1.083 1.083 0 0 0 2.168 0 1.084 1.084 0 0 0-2.168 0zM273.15 235.21a1.087 1.087 0 1 0 2.17.004 1.087 1.087 0 0 0-2.17-.004zM277.097 235.21c0 .6.486 1.09 1.086 1.09.598 0 1.084-.49 1.084-1.09s-.486-1.083-1.084-1.083c-.6 0-1.086.485-1.086 1.083zM281.042 235.21c0 .6.484 1.09 1.086 1.09a1.087 1.087 0 0 0 0-2.173c-.6 0-1.086.485-1.086 1.083zM208.407 226.91h38.723v1.875h-38.723zM208.407 231.373h38.723v1.872h-38.723zM208.407 235.725h38.723v1.87h-38.723z"/><path fill="#EB6159" d="M184.548 232.25a7.498 7.498 0 0 0 14.993 0 7.495 7.495 0 0 0-7.496-7.493 7.5 7.5 0 0 0-7.496 7.494z"/><path fill="#3A383A" d="M186.425 232.25a5.622 5.622 0 1 0 11.243.004 5.622 5.622 0 0 0-11.243-.003z"/><path fill="#5E5E5E" d="M175.93 264.557a4.996 4.996 0 0 0 4.994 4.997h102.743v-23.487H180.925a5 5 0 0 0-4.993 5v13.49z"/><path fill="#FFF" d="M255.6 251.894a1.085 1.085 0 1 0 2.172 0 1.085 1.085 0 0 0-2.17 0z"/><circle fill="#FFF" cx="260.63" cy="251.895" r="1.085"/><circle fill="#FFF" cx="264.573" cy="251.895" r="1.083"/><path fill="#FFF" d="M267.435 251.894c0 .598.486 1.085 1.082 1.085a1.08 1.08 0 0 0 1.08-1.086c0-.6-.48-1.085-1.08-1.085-.596 0-1.082.484-1.082 1.084z"/><circle fill="#FFF" cx="272.466" cy="251.895" r="1.084"/><path fill="#FFF" d="M275.322 251.894a1.085 1.085 0 1 0 2.17 0 1.085 1.085 0 0 0-2.17 0zM279.267 251.894a1.085 1.085 0 1 0 2.17 0 1.085 1.085 0 0 0-2.17 0zM253.43 254.85a1.08 1.08 0 0 0 1.083 1.084 1.082 1.082 0 0 0 0-2.167c-.597 0-1.08.485-1.08 1.083zM257.374 254.85c0 .603.488 1.084 1.088 1.084s1.084-.48 1.084-1.084a1.086 1.086 0 0 0-2.172 0zM261.318 254.85c0 .603.488 1.084 1.088 1.084a1.084 1.084 0 0 0 0-2.167c-.6 0-1.088.485-1.088 1.083zM265.26 254.85c0 .603.49 1.084 1.09 1.084a1.083 1.083 0 0 0 0-2.167c-.6 0-1.09.485-1.09 1.083zM269.212 254.85c0 .603.48 1.084 1.08 1.084a1.084 1.084 0 0 0 0-2.167c-.603 0-1.08.485-1.08 1.083zM273.15 254.85c0 .603.486 1.084 1.09 1.084a1.08 1.08 0 0 0 1.082-1.084 1.086 1.086 0 0 0-2.172 0zM277.097 254.85c0 .603.486 1.084 1.086 1.084a1.084 1.084 0 1 0-1.086-1.084zM281.042 254.85a1.08 1.08 0 0 0 1.086 1.084 1.08 1.08 0 0 0 1.082-1.084 1.084 1.084 0 0 0-2.168 0zM255.6 257.81a1.085 1.085 0 1 0 1.082-1.084c-.595 0-1.08.484-1.08 1.085z"/><circle fill="#FFF" cx="260.63" cy="257.811" r="1.085"/><circle fill="#FFF" cx="264.573" cy="257.811" r="1.083"/><path fill="#FFF" d="M267.435 257.81a1.082 1.082 0 0 0 2.162 0 1.082 1.082 0 1 0-2.162 0z"/><circle fill="#FFF" cx="272.466" cy="257.811" r="1.084"/><path fill="#FFF" d="M275.322 257.81c0 .604.484 1.086 1.088 1.086.6 0 1.082-.484 1.082-1.085s-.482-1.083-1.082-1.083c-.604 0-1.088.483-1.088 1.084zM279.267 257.81c0 .604.484 1.086 1.086 1.086a1.084 1.084 0 0 0 0-2.17 1.08 1.08 0 0 0-1.086 1.085zM255.6 263.73c0 .6.487 1.083 1.083 1.083a1.084 1.084 0 0 0 0-2.17c-.596 0-1.082.486-1.082 1.086z"/><circle fill="#FFF" cx="260.63" cy="263.729" r="1.085"/><circle fill="#FFF" cx="264.573" cy="263.729" r="1.083"/><path fill="#FFF" d="M267.435 263.73c0 .6.486 1.083 1.082 1.083.602 0 1.08-.483 1.08-1.084 0-.6-.48-1.086-1.08-1.086-.596 0-1.082.485-1.082 1.085z"/><circle fill="#FFF" cx="272.466" cy="263.729" r="1.084"/><path fill="#FFF" d="M275.322 263.73c0 .6.484 1.083 1.088 1.083.6 0 1.082-.483 1.082-1.084 0-.6-.482-1.086-1.082-1.086-.604 0-1.088.485-1.088 1.085zM279.267 263.73c0 .6.484 1.083 1.086 1.083a1.084 1.084 0 1 0-1.086-1.084zM253.43 260.77c0 .598.485 1.084 1.083 1.084a1.084 1.084 0 0 0 0-2.168c-.598 0-1.082.486-1.082 1.084z"/><circle fill="#FFF" cx="258.46" cy="260.771" r="1.085"/><circle fill="#FFF" cx="262.404" cy="260.771" r="1.085"/><circle fill="#FFF" cx="266.349" cy="260.771" r="1.086"/><path fill="#FFF" d="M269.212 260.77c0 .598.48 1.084 1.08 1.084s1.088-.486 1.088-1.084-.486-1.084-1.088-1.084c-.603 0-1.08.486-1.08 1.084zM273.15 260.77a1.086 1.086 0 0 0 2.172 0 1.086 1.086 0 0 0-2.172 0z"/><circle fill="#FFF" cx="278.181" cy="260.771" r="1.084"/><circle fill="#FFF" cx="282.126" cy="260.771" r="1.084"/><path fill="#FFF" d="M208.407 252.468h38.723v1.874h-38.723zM208.407 256.93h38.723v1.872h-38.723zM208.407 261.28h38.723v1.872h-38.723z"/><path fill="#EB6159" d="M184.548 257.81a7.5 7.5 0 0 0 7.496 7.497 7.495 7.495 0 0 0 0-14.99 7.497 7.497 0 0 0-7.495 7.495z"/><path fill="#3A383A" d="M186.425 257.81a5.618 5.618 0 0 0 5.62 5.62 5.62 5.62 0 1 0-5.62-5.618z"/><path fill="#5E5E5E" d="M283.667 292.51v-15.924-4.993H180.925a4.995 4.995 0 0 0-4.993 4.993v13.493c0 .888.25 1.708.656 2.43h107.08z"/><path fill="#FFF" d="M255.6 277.414a1.085 1.085 0 1 0 2.17.007 1.085 1.085 0 0 0-2.17-.006zM259.546 277.414c0 .603.484 1.088 1.082 1.088a1.087 1.087 0 0 0 0-2.17c-.597 0-1.082.484-1.082 1.082zM263.49 277.414a1.085 1.085 0 1 0 2.17.006 1.085 1.085 0 0 0-2.17-.006zM267.435 277.414a1.08 1.08 0 0 0 2.162 0c0-.6-.48-1.083-1.08-1.083-.596 0-1.082.486-1.082 1.084zM271.38 277.414a1.084 1.084 0 0 0 2.17 0c0-.6-.484-1.083-1.084-1.083-.6 0-1.086.486-1.086 1.084zM275.322 277.414a1.085 1.085 0 0 0 2.17 0c0-.6-.482-1.083-1.082-1.083-.604 0-1.088.486-1.088 1.084zM279.267 277.414a1.084 1.084 0 0 0 2.17 0c0-.6-.486-1.083-1.084-1.083-.602 0-1.086.486-1.086 1.084zM253.43 280.374c0 .598.485 1.083 1.083 1.083a1.087 1.087 0 0 0 0-2.17c-.597 0-1.08.49-1.08 1.087z"/><circle fill="#FFF" cx="258.46" cy="280.373" r="1.085"/><circle fill="#FFF" cx="262.404" cy="280.373" r="1.085"/><circle fill="#FFF" cx="266.349" cy="280.374" r="1.087"/><path fill="#FFF" d="M269.212 280.374c0 .598.48 1.083 1.08 1.083s1.088-.487 1.088-1.083a1.09 1.09 0 0 0-1.088-1.088c-.603 0-1.08.49-1.08 1.088zM273.15 280.374a1.085 1.085 0 1 0 2.17-.005 1.085 1.085 0 0 0-2.17.004z"/><circle fill="#FFF" cx="278.181" cy="280.374" r="1.085"/><circle fill="#FFF" cx="282.126" cy="280.374" r="1.085"/><path fill="#FFF" d="M255.6 283.334c0 .6.487 1.08 1.083 1.08a1.08 1.08 0 0 0 1.088-1.08 1.085 1.085 0 0 0-2.17 0zM259.546 283.334c0 .6.484 1.08 1.082 1.08a1.08 1.08 0 0 0 1.088-1.08 1.085 1.085 0 0 0-2.17 0zM263.49 283.334c0 .6.486 1.08 1.084 1.08a1.083 1.083 0 1 0-1.084-1.08zM267.435 283.334c0 .6.486 1.08 1.082 1.08.602 0 1.08-.48 1.08-1.08 0-.6-.48-1.085-1.08-1.085-.596 0-1.082.485-1.082 1.084zM271.38 283.334c0 .6.484 1.08 1.086 1.08a1.083 1.083 0 0 0 0-2.165c-.6 0-1.086.486-1.086 1.085zM275.322 283.334c0 .6.484 1.08 1.088 1.08.6 0 1.082-.48 1.082-1.08a1.085 1.085 0 0 0-2.17 0zM279.267 283.334c0 .6.484 1.08 1.086 1.08a1.08 1.08 0 0 0 1.084-1.08 1.084 1.084 0 0 0-2.17 0zM255.6 289.25c0 .598.487 1.082 1.083 1.082.602 0 1.088-.484 1.088-1.082s-.485-1.08-1.087-1.08c-.596 0-1.082.483-1.082 1.08z"/><circle fill="#FFF" cx="260.63" cy="289.25" r="1.085"/><circle fill="#FFF" cx="264.573" cy="289.25" r="1.083"/><path fill="#FFF" d="M267.435 289.25c0 .598.486 1.082 1.082 1.082.602 0 1.08-.484 1.08-1.082s-.48-1.08-1.08-1.08c-.596 0-1.082.483-1.082 1.08z"/><circle fill="#FFF" cx="272.466" cy="289.251" r="1.084"/><path fill="#FFF" d="M275.322 289.25c0 .598.484 1.082 1.088 1.082.6 0 1.082-.484 1.082-1.082s-.482-1.08-1.082-1.08c-.604 0-1.088.483-1.088 1.08zM279.267 289.25c0 .598.484 1.082 1.086 1.082a1.082 1.082 0 0 0 0-2.163c-.602 0-1.086.484-1.086 1.08zM253.43 286.293a1.08 1.08 0 0 0 1.083 1.082 1.084 1.084 0 1 0-1.082-1.082z"/><circle fill="#FFF" cx="258.46" cy="286.294" r="1.085"/><circle fill="#FFF" cx="262.404" cy="286.294" r="1.085"/><circle fill="#FFF" cx="266.349" cy="286.293" r="1.086"/><path fill="#FFF" d="M269.212 286.293c0 .598.48 1.082 1.08 1.082a1.085 1.085 0 0 0 0-2.17 1.08 1.08 0 0 0-1.08 1.088zM273.15 286.293c0 .598.486 1.082 1.09 1.082a1.084 1.084 0 0 0 0-2.17c-.604.002-1.09.488-1.09 1.088z"/><circle fill="#FFF" cx="278.181" cy="286.293" r="1.084"/><circle fill="#FFF" cx="282.126" cy="286.293" r="1.084"/><path fill="#FFF" d="M208.407 277.99h38.723v1.872h-38.723zM208.407 282.454h38.723v1.87h-38.723zM208.407 286.805h38.723v1.87h-38.723z"/><path fill="#EB6159" d="M184.548 283.334c0 4.14 3.36 7.496 7.496 7.496 4.142 0 7.497-3.355 7.497-7.496s-3.354-7.49-7.496-7.49a7.49 7.49 0 0 0-7.496 7.49z"/><path fill="#3A383A" d="M186.425 283.334a5.623 5.623 0 0 0 5.62 5.623 5.624 5.624 0 0 0 0-11.247 5.623 5.623 0 0 0-5.62 5.624z"/><circle fill="#14CAF4" cx="192.047" cy="155.69" r="2.608"/><circle fill="#14CAF4" cx="192.047" cy="181.208" r="2.607"/><circle fill="#14CAF4" cx="192.047" cy="206.754" r="2.607"/><path fill="#14CAF4" d="M194.656 232.273c0 1.44-1.17 2.605-2.612 2.605a2.602 2.602 0 0 1-2.604-2.605 2.608 2.608 0 0 1 5.216 0z"/><circle fill="#14CAF4" cx="192.047" cy="257.85" r="2.608"/><circle fill="#14CAF4" cx="192.047" cy="283.367" r="2.608"/><path opacity=".2" fill="#FFF" d="M234.217 292.51l49.45-139.625v-4.375h-7.672l-50.968 144z"/><path opacity=".1" fill="#FFF" d="M178.71 148.51h104.958v144H178.71z"/><path opacity=".3" d="M189.413 292.51V150.64h96.077v-2.13H172.36v144z"/><path opacity=".2" fill="#FFF" d="M216.998 292.51l51.165-144h-40.77l-51.167 144z"/><path fill="#D8D8D8" d="M171.297 148.51h11.73v144h-11.73zM282.99 148.51h11.73v144h-11.73z"/><path opacity=".1" d="M282.99 148.51h11.73v144h-11.73z"/></g></svg>