<svg xmlns="http://www.w3.org/2000/svg" width="221.629" height="115.702" viewBox="0 0 221.629 115.702"><path fill="#E7E059" d="M0 0h221.63v115.702H0z"/><path fill="#FFF" d="M139.016 0H.33C.216 0 .11.022 0 .034v115.668h142.256V3.265c0-1.803-1.452-3.265-3.24-3.265z"/><g opacity=".4"><g opacity=".4"><path d="M43.505 92.44c0 .55-.445.998-.993.998h-36.2c-.55 0-.99-.45-.99-.998 0-.553.44-1 .99-1h36.2c.548 0 .993.448.993 1zM43.505 88.444c0 .55-.445 1-.993 1h-36.2c-.55 0-.99-.45-.99-1s.44-.998.99-.998h36.2c.548 0 .993.45.993.998zM43.505 84.45c0 .554-.445 1-.993 1h-36.2a.994.994 0 0 1-.99-1c0-.55.44-.998.99-.998h36.2c.548 0 .993.45.993.997zM43.505 80.456c0 .553-.445 1-.993 1h-36.2a.993.993 0 0 1-.99-1c0-.55.44-.998.99-.998h36.2c.548 0 .993.448.993.998zM43.505 76.463c0 .552-.445 1-.993 1h-36.2a.994.994 0 0 1-.99-1c0-.552.44-1 .99-1h36.2c.548 0 .993.448.993 1zM43.505 72.468c0 .555-.445 1-.993 1h-36.2a.993.993 0 0 1-.99-1c0-.55.44-.997.99-.997h36.2c.548 0 .993.45.993.998zM43.505 68.475c0 .552-.445 1-.993 1h-36.2a.994.994 0 0 1-.99-1c0-.55.44-.997.99-.997h36.2c.548 0 .993.446.993.997z"/></g><path d="M43.505 108.292c0 .55-.445.997-.993.997h-36.2a.993.993 0 0 1-.99-.998c0-.553.44-.998.99-.998h36.2c.548 0 .993.445.993.998zM43.505 104.298a.995.995 0 0 1-.993.998h-36.2a.993.993 0 0 1-.99-.998c0-.55.44-1 .99-1h36.2c.548 0 .993.45.993 1zM43.505 100.304a.995.995 0 0 1-.993.998h-36.2a.992.992 0 0 1-.99-.998c0-.552.44-.997.99-.997h36.2c.548 0 .993.445.993.997zM43.505 96.31a.992.992 0 0 1-.993.996h-36.2a.99.99 0 0 1-.99-.995c0-.552.44-.998.99-.998h36.2c.548 0 .993.446.993 1z" opacity=".4"/></g><g opacity=".4"><g opacity=".4"><path d="M89.138 92.44c0 .55-.444.998-.994.998H51.946a.996.996 0 0 1-.993-.998c0-.553.443-1 .993-1h36.197c.55 0 .995.448.995 1zM89.138 88.444c0 .55-.444 1-.994 1H51.946a.996.996 0 0 1-.993-1c0-.55.443-.998.993-.998h36.197c.55 0 .995.45.995.998zM89.138 84.45c0 .554-.444 1-.994 1H51.946a.995.995 0 0 1-.993-1c0-.55.443-.998.993-.998h36.197c.55 0 .995.45.995.997zM89.138 80.456c0 .553-.444 1-.994 1H51.946a.994.994 0 0 1-.993-1c0-.55.443-.998.993-.998h36.197c.55 0 .995.448.995.998zM89.138 76.463c0 .552-.444 1-.994 1H51.946a.995.995 0 0 1-.993-1c0-.552.443-1 .993-1h36.197c.55 0 .995.448.995 1zM89.138 72.468c0 .555-.444 1-.994 1H51.946a.994.994 0 0 1-.993-1c0-.55.443-.997.993-.997h36.197c.55 0 .995.45.995.998zM89.138 68.475c0 .552-.444 1-.994 1H51.946a.995.995 0 0 1-.993-1c0-.55.443-.997.993-.997h36.197c.55 0 .995.446.995.997z"/></g><path d="M89.138 108.292c0 .55-.444.997-.994.997H51.946a.994.994 0 0 1-.993-.998c0-.553.443-.998.993-.998h36.197c.55 0 .995.445.995.998zM89.138 104.298a.995.995 0 0 1-.994.998H51.946a.994.994 0 0 1-.993-.998c0-.55.443-1 .993-1h36.197c.55 0 .995.45.995 1zM89.138 100.304a.994.994 0 0 1-.994.998H51.946a.993.993 0 0 1-.993-.998c0-.552.443-.997.993-.997h36.197c.55 0 .995.445.995.997zM89.138 96.31a.992.992 0 0 1-.994.996H51.946a.99.99 0 0 1-.993-.995c0-.552.443-.998.993-.998h36.197c.55 0 .995.446.995 1z" opacity=".4"/></g><g opacity=".4"><g opacity=".4"><path d="M134.932 92.44c0 .55-.444.998-.993.998H97.736a.996.996 0 0 1-.99-.998c0-.553.443-1 .99-1h36.2c.55 0 .995.448.995 1zM134.932 88.444c0 .55-.444 1-.993 1H97.736a.997.997 0 0 1-.99-1c0-.55.443-.998.99-.998h36.2c.55 0 .995.45.995.998zM134.932 84.45c0 .554-.444 1-.993 1H97.736a.995.995 0 0 1-.99-1c0-.55.443-.998.99-.998h36.2c.55 0 .995.45.995.997zM134.932 80.456c0 .553-.444 1-.993 1H97.736a.994.994 0 0 1-.99-1c0-.55.443-.998.99-.998h36.2c.55 0 .995.448.995.998zM134.932 76.463c0 .552-.444 1-.993 1H97.736a.995.995 0 0 1-.99-1c0-.552.443-1 .99-1h36.2c.55 0 .995.448.995 1zM134.932 72.468c0 .555-.444 1-.993 1H97.736a.994.994 0 0 1-.99-1c0-.55.443-.997.99-.997h36.2c.55 0 .995.45.995.998zM134.932 68.475c0 .552-.444 1-.993 1H97.736a.995.995 0 0 1-.99-1c0-.55.443-.997.99-.997h36.2c.55 0 .995.446.995.997z"/></g><path d="M134.932 108.292c0 .55-.444.997-.993.997H97.736a.994.994 0 0 1-.99-.998c0-.553.443-.998.99-.998h36.2c.55 0 .995.445.995.998zM134.932 104.298a.995.995 0 0 1-.993.998H97.736a.994.994 0 0 1-.99-.998c0-.55.443-1 .99-1h36.2c.55 0 .995.45.995 1zM134.932 100.304a.994.994 0 0 1-.993.998H97.736a.994.994 0 0 1-.99-.998c0-.552.443-.997.99-.997h36.2c.55 0 .995.445.995.997zM134.932 96.31a.99.99 0 0 1-.993.996H97.736a.99.99 0 0 1-.99-.995c0-.552.443-.998.99-.998h36.2c.55 0 .995.446.995 1z" opacity=".4"/></g><path opacity=".3" d="M133.218 56.1a19.28 19.28 0 0 0 1.714-1.038v-2.807a17.228 17.228 0 0 1-2.962 1.97l-3.51-7.79 6.472-2.953V41.5l-7.215 3.287-2.343-5.2 9.113-4.15c.158.364.303.733.444 1.1V32.49a31.044 31.044 0 0 0-2.93-4.34l2.93-1.336V23.21h-4.857a16.84 16.84 0 0 1 3.887 2.06l-3.17 1.442a45.11 45.11 0 0 0-3.492-3.502h-2.7c1.418 1.227 2.983 2.643 4.502 4.275l-7.614 3.47-3.45-7.653c.086-.033.173-.062.26-.092h-4.854c-7.58 5.158-10.592 15.203-6.687 23.87a19.112 19.112 0 0 0 8.39 9.02h9.038c-1.696-1.475-3.603-3.215-5.373-5.267l8.012-3.653 3.508 7.79a16.667 16.667 0 0 1-5.077 1.13h7.965zm-2.87-27.2c1.238 1.472 2.396 3.103 3.35 4.908l-9.064 4.13-2.402-5.336 8.117-3.7zm-7.356 9.787l-9.068 4.133c-.718-1.912-1.173-3.86-1.46-5.768l8.124-3.703 2.404 5.337zm-10.97-11.358a16.666 16.666 0 0 1 4.378-3.278l3.444 7.65-7.615 3.47c-.284-2.888-.238-5.603-.208-7.843zm-1.802 2.226c-.02 1.988.047 4.15.318 6.39l-3.166 1.44a17.186 17.186 0 0 1 2.848-7.83zm-2.936 9.857l3.53-1.61a30.32 30.32 0 0 0 1.552 5.724l-3.925 1.792a16.934 16.934 0 0 1-1.156-5.907zm1.898 7.553l3.89-1.77c.826 1.78 1.863 3.408 2.998 4.896l-3.355 1.53a16.88 16.88 0 0 1-3.533-4.656zm12.323 8.957a16.942 16.942 0 0 1-7.236-3.02l2.975-1.356c1.38 1.623 2.856 3.07 4.26 4.376zm-3.877-6.543c-1.135-1.478-2.172-3.104-3.005-4.893l9.113-4.152 2.343 5.2-8.452 3.845z"/><path fill="#444" d="M139.016 0H.33C.216 0 .11.022 0 .034v13.014h142.256V3.265c0-1.803-1.452-3.265-3.24-3.265z"/><path fill="#2CB740" d="M6.743 6.698c0 1.424-1.15 2.58-2.566 2.58a2.573 2.573 0 0 1-2.568-2.58c0-1.422 1.148-2.58 2.567-2.58a2.576 2.576 0 0 1 2.566 2.58z"/><path fill="#F16442" d="M14.562 6.698c0 1.424-1.15 2.58-2.57 2.58a2.573 2.573 0 0 1-2.562-2.58c0-1.422 1.15-2.58 2.562-2.58a2.578 2.578 0 0 1 2.57 2.58z"/><path fill="#FFF" d="M136.9 6.544c0 1.424-1.15 2.58-2.565 2.58H18.74a2.576 2.576 0 0 1-2.564-2.58A2.576 2.576 0 0 1 18.74 3.96h115.595a2.574 2.574 0 0 1 2.565 2.584z"/><path fill="#FCD22E" d="M22.402 25.16c-.027 0-.05.015-.05.033 0 .02.022.038.05.038.03 0 .055-.017.055-.037 0-.018-.023-.034-.055-.034z"/><path opacity=".3" d="M4.578 58.353h130.937v2.1H4.578zM4.578 18.927h130.937v2.1H4.578z"/><g opacity=".1"><path d="M5.32 41.69h10.5v15.555H5.32zM17.462 35.606h10.504v21.64H17.462zM41.058 32.478H51.56v24.768H41.06zM29.282 43.948H39.78v13.297H29.28z"/><g><path d="M52.954 37.483H63.46v19.762H52.954zM65.1 29.688h10.507v27.557H65.1zM88.696 25.68h10.502v31.565H88.696zM76.913 40.377h10.502v16.868H76.913z"/></g></g><path fill="#9D9D9C" d="M83.396 29.274l2.244 3.502-22.763 15.16-3.73-6.31 10.2-6.447 2.335 3.453 8.976-12.09-15.243 2.808 1.993 2.95-10.032 6.34-3.332-5.635-.042.023-.163-.305-10.133 6.747-4.35-6.978-.034.02-.146-.26L9.55 50.975l1.98 2.858L38.04 37.095l2.696 4.354-20.27 13.5.912 1.926H25.7l17.26-11.83 3.12 5.043 2.136-1.555 7.477-4.728 5.924 10.088 2.402-1.842 23.81-15.86 2.63 4.102 10.113-14.353-17.177 3.332zM47.2 45.07l-1.28-2.052 6.638-4.55 1.376 2.345L47.2 45.07z"/><path opacity=".2" d="M217.127 115.702V4.09c0-1.788-1.247-3.298-3.04-3.298H75.404c-1.788 0-3.662 1.51-3.662 3.297V115.7h145.387z"/><g><path fill="#FFF" d="M221.63 0H84.847c-1.79 0-3.24 1.462-3.24 3.265v112.438h140.02V0z"/><g opacity=".4"><g opacity=".4"><path d="M128.02 92.44c0 .55-.443.998-.993.998H90.83a.996.996 0 0 1-.993-.998c0-.553.443-1 .992-1h36.196c.55 0 .995.448.995 1zM128.02 88.444c0 .55-.443 1-.993 1H90.83a.996.996 0 0 1-.993-1c0-.55.443-.998.992-.998h36.196c.55 0 .995.45.995.998zM128.02 84.45c0 .554-.443 1-.993 1H90.83a.994.994 0 0 1-.993-1c0-.55.443-.998.992-.998h36.196c.55 0 .995.45.995.997zM128.02 80.456c0 .553-.443 1-.993 1H90.83a.994.994 0 0 1-.993-1c0-.55.443-.998.992-.998h36.196c.55 0 .995.448.995.998zM128.02 76.463c0 .552-.443 1-.993 1H90.83a.995.995 0 0 1-.993-1c0-.552.443-1 .992-1h36.196c.55 0 .995.448.995 1zM128.02 72.468c0 .555-.443 1-.993 1H90.83a.994.994 0 0 1-.993-1c0-.55.443-.997.992-.997h36.196c.55 0 .995.45.995.998zM128.02 68.475c0 .552-.443 1-.993 1H90.83a.995.995 0 0 1-.993-1c0-.55.443-.997.992-.997h36.196c.55 0 .995.446.995.997z"/></g><path d="M128.02 108.292c0 .55-.443.997-.993.997H90.83a.994.994 0 0 1-.993-.998c0-.553.443-.998.992-.998h36.196c.55 0 .995.445.995.998zM128.02 104.298a.995.995 0 0 1-.993.998H90.83a.994.994 0 0 1-.993-.998c0-.55.443-1 .992-1h36.196c.55 0 .995.45.995 1zM128.02 100.304a.994.994 0 0 1-.993.998H90.83a.993.993 0 0 1-.993-.998c0-.552.443-.997.992-.997h36.196c.55 0 .995.445.995.997zM128.02 96.31a.992.992 0 0 1-.993.996H90.83a.99.99 0 0 1-.993-.995c0-.552.443-.998.992-.998h36.196c.55 0 .995.446.995 1z" opacity=".4"/></g><g opacity=".4"><g opacity=".4"><path d="M173.655 92.44c0 .55-.445.998-.994.998h-36.197a.996.996 0 0 1-.993-.998c0-.553.443-1 .993-1h36.198c.55 0 .995.448.995 1zM173.655 88.444c0 .55-.445 1-.994 1h-36.197a.996.996 0 0 1-.993-1c0-.55.443-.998.993-.998h36.198c.55 0 .995.45.995.998zM173.655 84.45c0 .554-.445 1-.994 1h-36.197a.995.995 0 0 1-.993-1c0-.55.443-.998.993-.998h36.198c.55 0 .995.45.995.997zM173.655 80.456c0 .553-.445 1-.994 1h-36.197a.994.994 0 0 1-.993-1c0-.55.443-.998.993-.998h36.198c.55 0 .995.448.995.998zM173.655 76.463c0 .552-.445 1-.994 1h-36.197a.995.995 0 0 1-.993-1c0-.552.443-1 .993-1h36.198c.55 0 .995.448.995 1zM173.655 72.468c0 .555-.445 1-.994 1h-36.197a.994.994 0 0 1-.993-1c0-.55.443-.997.993-.997h36.198c.55 0 .995.45.995.998zM173.655 68.475c0 .552-.445 1-.994 1h-36.197a.995.995 0 0 1-.993-1c0-.55.443-.997.993-.997h36.198c.55 0 .995.446.995.997z"/></g><path d="M173.655 108.292c0 .55-.445.997-.994.997h-36.197a.994.994 0 0 1-.993-.998c0-.553.443-.998.993-.998h36.198c.55 0 .995.445.995.998zM173.655 104.298a.995.995 0 0 1-.994.998h-36.197a.994.994 0 0 1-.993-.998c0-.55.443-1 .993-1h36.198c.55 0 .995.45.995 1zM173.655 100.304a.995.995 0 0 1-.994.998h-36.197a.993.993 0 0 1-.993-.998c0-.552.443-.997.993-.997h36.198c.55 0 .995.445.995.997zM173.655 96.31a.992.992 0 0 1-.994.996h-36.197a.99.99 0 0 1-.993-.995c0-.552.443-.998.993-.998h36.198c.55 0 .995.446.995 1z" opacity=".4"/></g><g opacity=".4"><g opacity=".4"><path d="M219.45 92.44c0 .55-.447.998-.996.998h-36.2c-.55 0-.99-.45-.99-.998 0-.553.44-1 .99-1h36.2c.55 0 .995.448.995 1zM219.45 88.444a1 1 0 0 1-.996 1h-36.2c-.55 0-.99-.45-.99-1s.44-.998.99-.998h36.2c.55 0 .995.45.995.998zM219.45 84.45c0 .554-.447 1-.996 1h-36.2a.99.99 0 0 1-.99-1c0-.55.44-.998.99-.998h36.2c.55 0 .995.45.995.997zM219.45 80.456c0 .553-.447 1-.996 1h-36.2a.99.99 0 0 1-.99-1c0-.55.44-.998.99-.998h36.2c.55 0 .995.448.995.998zM219.45 76.463c0 .552-.447 1-.996 1h-36.2a.992.992 0 0 1-.99-1c0-.552.44-1 .99-1h36.2c.55 0 .995.448.995 1zM219.45 72.468c0 .555-.447 1-.996 1h-36.2a.99.99 0 0 1-.99-1c0-.55.44-.997.99-.997h36.2c.55 0 .995.45.995.998zM219.45 68.475c0 .552-.447 1-.996 1h-36.2a.992.992 0 0 1-.99-1c0-.55.44-.997.99-.997h36.2c.55 0 .995.446.995.997z"/></g><path d="M219.45 108.292c0 .55-.447.997-.996.997h-36.2a.99.99 0 0 1-.99-.998.99.99 0 0 1 .99-.998h36.2c.55 0 .995.445.995.998zM219.45 104.298a.996.996 0 0 1-.996.998h-36.2a.99.99 0 0 1-.99-.998c0-.55.44-1 .99-1h36.2a1 1 0 0 1 .995 1zM219.45 100.304a.996.996 0 0 1-.996.998h-36.2a.99.99 0 0 1-.99-.998.99.99 0 0 1 .99-.997h36.2c.55 0 .995.445.995.997zM219.45 96.31a.993.993 0 0 1-.996.996h-36.2a.988.988 0 0 1-.99-.995c0-.552.44-.998.99-.998h36.2c.55 0 .995.446.995 1z" opacity=".4"/></g><path opacity=".3" d="M217.732 56.1a19.33 19.33 0 0 0 1.717-1.038v-2.807a17.275 17.275 0 0 1-2.964 1.97l-3.51-7.79 6.473-2.953V41.5l-7.218 3.287-2.343-5.2 9.113-4.15c.157.364.305.733.445 1.1V32.49a31.307 31.307 0 0 0-2.932-4.34l2.932-1.336V23.21H214.588a16.812 16.812 0 0 1 3.89 2.06l-3.17 1.442a44.587 44.587 0 0 0-3.494-3.502h-2.7c1.417 1.227 2.983 2.643 4.503 4.275L206 30.955l-3.445-7.653c.085-.033.172-.062.254-.092h-4.854c-7.577 5.158-10.59 15.203-6.686 23.87a19.12 19.12 0 0 0 8.39 9.02h9.04c-1.7-1.475-3.602-3.215-5.374-5.267l8.01-3.653 3.51 7.79a16.64 16.64 0 0 1-5.077 1.13h7.962zm-2.868-27.2c1.238 1.472 2.393 3.103 3.352 4.908l-9.067 4.13-2.404-5.336 8.118-3.7zm-7.355 9.787l-9.07 4.133c-.72-1.912-1.173-3.86-1.46-5.768l8.126-3.703 2.403 5.337zM196.54 27.33a16.623 16.623 0 0 1 4.376-3.278l3.446 7.65-7.613 3.47c-.288-2.888-.24-5.603-.21-7.843zm-1.804 2.226c-.02 1.988.046 4.15.317 6.39l-3.165 1.44a17.197 17.197 0 0 1 2.848-7.83zm-2.935 9.857l3.532-1.61c.327 1.9.825 3.83 1.55 5.724l-3.924 1.792a16.957 16.957 0 0 1-1.157-5.907zm1.9 7.553l3.887-1.77c.828 1.78 1.864 3.408 2.998 4.896l-3.356 1.53a16.87 16.87 0 0 1-3.53-4.656zm12.32 8.957a16.97 16.97 0 0 1-7.238-3.02l2.98-1.356c1.378 1.623 2.852 3.07 4.26 4.376zm-3.875-6.543a26.186 26.186 0 0 1-3.006-4.893l9.114-4.152 2.34 5.2-8.45 3.845z"/><path fill="#444" d="M221.63 0H84.847c-1.79 0-3.24 1.462-3.24 3.265v9.783h140.02V0z"/><ellipse fill="#2CB740" cx="88.691" cy="6.698" rx="2.567" ry="2.579"/><path fill="#F16442" d="M99.08 6.698a2.578 2.578 0 0 1-2.57 2.58 2.573 2.573 0 0 1-2.564-2.58c0-1.422 1.15-2.58 2.563-2.58a2.58 2.58 0 0 1 2.57 2.58z"/><path fill="#FFF" d="M221.42 6.544a2.576 2.576 0 0 1-2.57 2.58H103.26a2.578 2.578 0 0 1-2.566-2.58 2.578 2.578 0 0 1 2.566-2.584H218.85a2.576 2.576 0 0 1 2.57 2.584z"/><ellipse fill="#FCD22E" cx="106.919" cy="25.195" rx=".053" ry=".036"/><path opacity=".3" d="M89.094 58.353H220.03v2.1H89.094zM89.094 18.927H220.03v2.1H89.094z"/><g opacity=".1"><path d="M89.837 41.69h10.5v15.555h-10.5zM101.98 35.606h10.502v21.64H101.98zM125.576 32.478h10.503v24.768h-10.504zM113.798 43.948h10.498v13.297h-10.498z"/><g><path d="M137.47 37.483h10.506v19.762H137.47zM149.616 29.688h10.505v27.557h-10.504zM173.216 25.68h10.5v31.565h-10.5zM161.427 40.377h10.506v16.868h-10.506z"/></g></g><path fill="#9D9D9C" d="M167.916 29.274l2.243 3.502-22.765 15.16-3.733-6.31 10.205-6.447 2.33 3.453 8.98-12.09-15.244 2.808 1.99 2.95-10.03 6.34-3.33-5.636-.044.023-.16-.305-10.135 6.746-4.35-6.978-.037.02-.146-.26-29.628 18.724 1.984 2.858 26.507-16.737 2.696 4.354-20.27 13.5.913 1.926h4.324l17.26-11.83 3.12 5.043 2.134-1.555 7.48-4.728 5.923 10.088 2.4-1.842 23.813-15.86 2.628 4.102 10.113-14.353-17.17 3.332zm-36.2 15.795l-1.278-2.052 6.638-4.55 1.38 2.345-6.74 4.256z"/></g><path opacity=".2" d="M68.76 27.678c-.007-.008-.064-.013-.073-.02-7.5-7.49-9.815-18.143-7.07-27.658h-48.41c-1.98 20.438 4.238 41.544 18.575 58.007l37.02-30.287c-.01-.012-.032-.02-.054-.03l.012-.012zM115.595 0c2.582 9.424.12 19.922-7.332 27.362a.108.108 0 0 1-.03.02l3.185 2.62-13.92 16.99.384.313H80.477l-.007-.098.147-.17-13.632-16.66-.452-.563-31.06 25.36 2.412 2.94 11.672 14.244 3.623-2.96c.16 5.712 2.71 11.015 7.334 14.247l-.97 1.54a4.322 4.322 0 0 0 1.3 5.978 4.34 4.34 0 0 0 5.992-1.295l.277-.44c.04.177.11.345.174.516l-.523.815a4.323 4.323 0 0 0 1.296 5.98 4.342 4.342 0 0 0 5.994-1.3l.075-.12.607.376-.58.9a4.327 4.327 0 0 0 1.3 5.982 4.34 4.34 0 0 0 5.992-1.3l.66-1.026.604.377-.303.48a4.323 4.323 0 0 0 1.298 5.983 4.34 4.34 0 0 0 5.992-1.297l.385-.612 1.05.647a4.562 4.562 0 0 0 6.267-1.5c1.275-2.08.66-4.77-1.343-6.123l.717-.49 4.248 2.813a4.847 4.847 0 0 0 6.68-1.49 4.822 4.822 0 0 0-1.484-6.665l-.764-.505c.24-.18.48-.363.72-.55l3.24 2.1a4.84 4.84 0 0 0 6.652-1.597c1.327-2.168.727-4.95-1.298-6.413l.698-.478c2.225 1.11 4.956.376 6.278-1.776.868-1.416.916-3.1.284-4.505.3-.487.572-.99.822-1.508.01-.015.034-.038.038-.047 0-.002-.01-.013-.01-.017a18.388 18.388 0 0 0 1.378-4.062l.016.014s.583-.963.502-3.762l3.777 3.087 14.066-17.17 3.447 2.82C160.407 41.544 166.4 20.437 164.224 0h-48.63z"/><g><path fill="#1D89AA" d="M119.074 0c.59 7.874-2.105 15.94-8.134 21.96-.02.02-.007.04-.027.062l37.062 30.288C160.985 37.374 167.128 18.616 166.54 0h-47.466z"/><path fill="#289CC9" d="M118.413 0c.47 7.767-2.293 15.7-8.268 21.667l-.018.016 28.95 23.733c11.38-12.948 16.85-29.252 16.416-45.416h-37.08z"/><path fill="#35C3EF" d="M118.413 0c.47 7.767-2.293 15.7-8.268 21.667l-.018.016L121.3 30.87c7.933-8.715 11.667-19.867 11.21-30.87h-14.097z"/><path fill="#E9B980" d="M118.427 78.515c8.58-5.236 10.78-17.25 4.91-26.822-5.863-9.57-17.572-13.082-26.158-7.832l-11.324 6.92c-8.58 5.243-5.51 13.643.36 23.212 5.866 9.574.29 25.73 8.873 20.484l23.337-15.96z"/><path opacity=".15" d="M94.89 52.414S125.096 70.79 124.795 71.4c-.306.612-21.98 19.967-28.374 21.522-6.397 1.55-9.587-24.463-9.587-24.463l8.057-16.046z"/><path fill="#FDDBA4" d="M63.252 78.526c-8.577-5.238-10.778-17.252-4.907-26.825 5.86-9.564 17.572-13.08 26.158-7.832l2.654 2.596c8.578 5.242 17.855 12.11 4.838 31.865-6.178 9.376-8.838 12.362-17.417 7.118l-11.326-6.922z"/><path fill="#FDDBA4" d="M116.997 79.056a4.842 4.842 0 0 0 6.65-1.592 4.83 4.83 0 0 0-1.596-6.648L93.628 52.26c-2.275-1.396-5.253-.675-6.65 1.6a4.827 4.827 0 0 0 1.606 6.644l28.414 18.552zM111.32 87.724a4.842 4.842 0 0 0 6.652-1.597 4.823 4.823 0 0 0-1.602-6.64L91.695 63.504c-2.28-1.39-5.265-.674-6.654 1.603a4.83 4.83 0 0 0 1.602 6.644l24.677 15.972zM102.932 94.835a4.84 4.84 0 0 0 6.675-1.49 4.816 4.816 0 0 0-1.485-6.666L83.964 70.693a4.84 4.84 0 0 0-6.676 1.48 4.826 4.826 0 0 0 1.488 6.675l24.156 15.985zM93.038 100.14a4.562 4.562 0 0 0 6.268-1.504 4.54 4.54 0 0 0-1.512-6.25l-21.98-13.588a4.56 4.56 0 0 0-6.26 1.502 4.548 4.548 0 0 0 1.51 6.252l21.974 13.587z"/><path fill="#FDDBA4" d="M87.48 90.235l-10.075-6.357 17.108-27.032 10.078 6.356z"/><path fill="#FDDBA4" d="M93.304 96.457L83.23 90.1l3.726-5.89 10.075 6.357zM94.466 47.208c0 1.353-.883 2.45-1.973 2.45H73.826c-1.09 0-1.972-1.1-1.972-2.452v-3.33c0-1.357.883-2.455 1.972-2.455H92.49c1.093 0 1.976 1.1 1.976 2.456v3.332z"/><path fill="#E9B980" d="M75.958 89.745a4.342 4.342 0 0 1-5.996 1.297 4.323 4.323 0 0 1-1.296-5.98l5.98-9.28a4.336 4.336 0 0 1 5.99-1.294 4.32 4.32 0 0 1 1.3 5.98l-5.978 9.277z"/><path opacity=".15" d="M90.82 42.548c-.5 0-.99.037-1.462.107-1.984-.393-4.098.416-5.258 2.22l-4.833 7.69a5.065 5.065 0 0 0 1.52 7.008 5.08 5.08 0 0 0 7.018-1.52l2.956-4.702.06.003h4.845s-2.437-6.256-4.114-10.805h-.73z"/><path fill="#E9B980" d="M83.353 95.585a4.338 4.338 0 0 1-5.993 1.295 4.324 4.324 0 0 1-1.298-5.98l5.982-9.277a4.333 4.333 0 0 1 5.99-1.3 4.322 4.322 0 0 1 1.297 5.983l-5.977 9.28zM91.605 100.103a4.342 4.342 0 0 1-5.992 1.295 4.325 4.325 0 0 1-1.3-5.982l4.127-6.564a4.34 4.34 0 0 1 5.99-1.3 4.324 4.324 0 0 1 1.297 5.985l-4.122 6.566zM68.736 84.17a4.335 4.335 0 0 1-5.99 1.297 4.323 4.323 0 0 1-1.3-5.98l4.128-6.564a4.337 4.337 0 0 1 5.99-1.298 4.326 4.326 0 0 1 1.298 5.98l-4.126 6.566zM87.806 57.116a5.086 5.086 0 0 1-7.02 1.52 5.067 5.067 0 0 1-1.52-7.008l4.834-7.693a5.084 5.084 0 0 1 7.02-1.52 5.072 5.072 0 0 1 1.52 7.01l-4.834 7.69z"/><path fill="#E9B980" d="M115.12 47.012c0 2.983-3.295 5.402-7.357 5.402H90.82c-4.062 0-7.358-2.42-7.358-5.402 0-2.984 3.297-5.402 7.358-5.402h16.942c4.063 0 7.36 2.417 7.36 5.402z"/><path opacity=".15" d="M102.34 40.487c-.588.586-2.196 1.418-2.196 1.418l-.852-.296 26.886 25.725s1.44-2.344-.506-10.49c-1.95-8.147-23.333-16.358-23.333-16.358z"/><path fill="#FFB6B6" d="M144.544 49.47L130.46 66.66 99.397 41.294l14.085-17.19z"/><path opacity=".15" d="M79.578 40.487c.588.586 2.197.48 2.197.48l.854.643-26.89 25.726s-1.616-2.848.506-10.49c2.247-8.072 23.332-16.36 23.332-16.36z"/><path fill="#BDDDFF" d="M37.378 49.47l14.08 17.19 31.063-25.366-14.084-17.19z"/><path fill="#FDDBA4" d="M71.31 72.53c1.426 1.017 1.79 2.912.81 4.218-.976 1.312-2.654.775-4.08-.245-1.426-1.02-2.06-2.14-1.08-3.45.98-1.314 2.926-1.546 4.35-.522zM80.19 75.346c1.428 1.02 1.788 2.91.81 4.218-.978 1.312-2.655.776-4.082-.244-1.425-1.02-2.057-2.143-1.077-3.45.977-1.314 2.925-1.547 4.35-.524zM87.448 81.165c1.425 1.02 1.787 2.912.81 4.22-.976 1.31-2.653.772-4.077-.247-1.427-1.02-2.06-2.14-1.083-3.45.98-1.314 2.927-1.547 4.35-.523zM94.306 88.654c1.428 1.018 1.79 2.91.812 4.22-.98 1.31-2.654.775-4.08-.246-1.428-1.02-2.06-2.142-1.082-3.45.978-1.313 2.93-1.55 4.35-.524z"/><path opacity=".15" d="M53.25 55.503a2.72 2.72 0 0 1-5.44 0 2.72 2.72 0 0 1 5.44 0z"/><path fill="#2679B2" d="M53.25 54.566a2.717 2.717 0 0 1-2.717 2.713 2.72 2.72 0 0 1-2.722-2.716 2.72 2.72 0 0 1 5.44.002z"/><path opacity=".15" d="M130.07 61.427a.95.95 0 0 1-1.338.123l-3.325-2.75a.945.945 0 0 1-.13-1.334l2.755-3.327a.953.953 0 0 1 1.338-.125l3.33 2.75c.402.335.463.932.125 1.334l-2.754 3.327z"/><path fill="#FFDE76" d="M130.073 60.487a.953.953 0 0 1-1.34.123l-3.326-2.748a.948.948 0 0 1-.13-1.336l2.755-3.326a.954.954 0 0 1 1.338-.126l3.33 2.75c.402.337.463.93.125 1.337l-2.752 3.327z"/><path opacity=".15" d="M68.436 24.103L37.378 49.47l2.41 2.944 29.102-27.76zM113.483 24.103l-1.027 1.255 29.37 27.428 2.718-3.316z"/><path fill="#FFF2A2" d="M62.383 0H14.817c-.432 18.616 5.863 37.374 18.872 52.31l37.023-30.288c-.02-.02-.084-.04-.107-.062C64.58 15.94 61.836 7.874 62.383 0z"/><path fill="#FFD645" d="M62.383 0H25.34c-.395 16.222 5.14 32.588 16.548 45.565L70.67 21.98c-.007-.007-.055-.013-.063-.02C64.58 15.94 61.837 7.874 62.383 0z"/><path fill="#D6B13C" d="M62.383 0H48.32a43.575 43.575 0 0 0 11.34 31.018l11.01-9.036c-.006-.008-.055-.014-.063-.02C64.58 15.94 61.837 7.873 62.383 0z"/></g><path opacity=".3" d="M180.27 115.702h31.14l-18.135-42.78a.715.715 0 0 0-.94-.38l-25.09 10.602a.718.718 0 0 0-.38.938l13.404 31.62z"/><g><path fill="#66A35D" d="M183.482 115.702h31.14l-18.135-42.78a.716.716 0 0 0-.94-.38L170.46 83.143a.718.718 0 0 0-.383.938l13.405 31.62z"/><path fill="#108200" d="M211.833 115.702l-16.79-39.605-21.676 9.16 12.905 30.445z"/><path opacity=".2" d="M197.92 113.035c-4.87 2.06-9.963 1.034-11.374-2.292-1.41-3.33 1.4-7.694 6.27-9.752 4.87-2.06 9.968-1.03 11.38 2.298 1.408 3.324-1.404 7.69-6.276 9.747zM192.702 83.52c-1.465.62-3 .312-3.426-.69-.425-1.004.422-2.322 1.89-2.942s3.006-.31 3.43.694c.425 1.003-.424 2.316-1.894 2.94zM180.354 88.737c-1.464.62-3 .312-3.43-.69-.423-1 .424-2.323 1.89-2.94 1.474-.623 3.01-.31 3.435.69.423 1.005-.425 2.32-1.896 2.94z"/></g><path opacity=".2" d="M221.63 0h-11.672l-16.704 42.026a.72.72 0 0 0 .402.93l25.32 10.035a.716.716 0 0 0 .932-.4l1.72-4.33V0z"/><g><path fill="#66A35D" d="M221.63 0h-10.065L194.86 42.026a.72.72 0 0 0 .4.93l25.325 10.035a.72.72 0 0 0 .932-.4l.112-.284V0z"/><path fill="#108200" d="M221.63 0h-7.302l-16.336 41.095 21.882 8.672 1.755-4.416z"/><path opacity=".2" d="M221.63 9.862c-4.49-1.298-8.83-.09-10.05 2.98-1.335 3.355 1.573 7.656 6.49 9.604 1.196.475 2.4.754 3.56.872V9.862zM216.113 45.548c-1.48-.588-2.356-1.89-1.954-2.898.4-1.013 1.933-1.357 3.41-.77 1.483.587 2.36 1.887 1.96 2.897-.404 1.01-1.934 1.357-3.417.77zM203.65 40.608c-1.478-.588-2.358-1.887-1.956-2.897.403-1.013 1.935-1.355 3.415-.77 1.48.586 2.357 1.886 1.955 2.897-.402 1.012-1.93 1.36-3.415.77z"/></g><path opacity=".2" d="M221.63 67.59l-26.667 2.255a.717.717 0 0 0-.656.77l3.82 45.087h23.502v-48.11z"/><g><path fill="#66A35D" d="M221.63 67.862l-23.456 1.982a.718.718 0 0 0-.655.77l3.82 45.087h20.29V67.863z"/><path fill="#108200" d="M221.63 70.95l-21.348 1.805 3.64 42.947h17.707z"/><path opacity=".2" d="M221.63 95.648c-1.878-1.395-4.686-2.165-7.76-1.905-5.27.445-9.3 3.723-8.993 7.326.305 3.595 4.827 6.15 10.1 5.705 2.672-.226 5.022-1.18 6.652-2.536v-8.592zM221.63 74.16c-.496-.675-1.565-1.09-2.76-.99-1.59.136-2.803 1.128-2.712 2.212.093 1.086 1.456 1.854 3.044 1.72 1.087-.092 1.988-.585 2.427-1.233v-1.71zM205.838 78.23c-1.585.133-2.95-.634-3.044-1.72-.09-1.085 1.127-2.076 2.71-2.21 1.593-.136 2.958.64 3.05 1.722.092 1.088-1.123 2.075-2.716 2.21z"/></g><path opacity=".2" fill="none" d="M221.63 84.407l-.418-.08a.717.717 0 0 0-.84.562l-5.994 30.81h7.25V84.408z"/><g><path fill="#66A35D" d="M221.63 94.936l-4.04 20.766h4.04z"/><path fill="#108200" d="M221.63 108.397l-1.422 7.305h1.42z"/></g></svg>