<svg xmlns="http://www.w3.org/2000/svg" width="228.505" height="228.498" viewBox="0 0 228.505 228.498"><g fill="#464442"><path d="M114.258 0C51.156 0 0 51.15 0 114.254c0 63.096 51.156 114.244 114.258 114.244 63.09 0 114.248-51.148 114.248-114.244C228.506 51.15 177.35 0 114.258 0zm0 223.312c-60.233 0-109.06-48.835-109.06-109.058 0-60.232 48.827-109.062 109.06-109.062 60.222 0 109.05 48.83 109.05 109.062 0 60.223-48.828 109.058-109.05 109.058z"/><path d="M25.327 74.66h.827l46.018 126.863h-.424c-19.065-8.85-34.13-23.78-45.192-44.778-6.35-14.378-9.525-28.613-9.525-42.704 0-12.716 2.765-25.844 8.297-39.38zM114.458 17.03c24.602 0 46.438 8.556 65.51 25.694v.415l-1.245-.416c-7.74 0-13.133 4.693-16.172 14.102v3.725c0 5.53 3.88 14.11 11.607 25.713 3.873 7.456 5.81 15.476 5.81 24.042 0 7.193-3.46 20.59-10.374 40.212l-6.623 22.815c-.546 0-4.15-10.365-10.782-31.097l-24.872-73.8h.402c9.68 0 14.518-1.25 14.518-3.735v-1.24c-.55-1.934-1.523-3.043-2.9-3.325l-26.95 1.244-27.367-1.245c-1.382.844-2.066 2.076-2.066 3.735h-.425c0 3.038 4.012 4.565 12.024 4.565l2.068.418 14.93 41.868-21.153 63.43h-.41L54.76 68.855v-.418h.413c9.4 0 14.093-1.108 14.093-3.32V63.87c0-1.648-.963-2.892-2.9-3.735L34.854 61.38h-1.645v-.83c2.756-4.968 9.255-12.16 19.484-21.548 18.51-14.654 39.102-21.973 61.766-21.973z"/><path d="M115.703 122.327c.545 0 4.424 10.374 11.605 31.098l19.486 52.647h-.413c-10.78 3.604-21.548 5.396-32.34 5.396-9.678 0-18.796-1.39-27.356-4.146l29.02-84.995zM199.04 67.602h.828c7.736 15.477 11.604 31.094 11.604 46.852 0 28.197-11.055 52.516-33.175 72.97-5.243 4.425-10.228 8.02-14.917 10.78h-.408v-.42L196.957 98.7c1.946-8.012 2.91-15.062 2.91-21.142l-.826-9.956z"/></g></svg>