<svg xmlns="http://www.w3.org/2000/svg" width="266.616" height="266.289" viewBox="0 0 266.616 266.289"><path fill="#77BC1F" d="M48.04 134.36l-5.13-5.124c-15.903-15.903-20.825-38.63-14.805-58.766C12.212 66.87.333 52.66.333 35.674.343 15.978 16.306 0 36.006 0 53.728.01 68.438 12.94 71.2 29.896c19.24-4.51 40.3.735 55.31 15.74l2.05 2.05-26.325 26.303-2.04-2.04c-8.535-8.535-22.383-8.535-30.935.01-8.572 8.567-8.557 22.454-.048 30.964l5.156 5.144 26.313 26.298 27.842 27.82-26.298 26.323-27.856-27.84-26.33-26.31"/><path fill="#F7B334" d="M77.48 104.94l27.86-27.835L131.66 50.8l5.13-5.122c15.855-15.836 38.43-20.82 58.49-14.928C197.677 13.383 212.572.005 230.605.005c19.702 0 35.674 15.966 35.674 35.668 0 18.105-13.49 33.064-30.975 35.36 5.748 19.994.75 42.41-15 58.16l-2.05 2.06-26.292-26.336 2.027-2.028c8.546-8.546 8.546-22.4.01-30.93-8.513-8.516-22.33-8.536-30.898.04l-5.134 5.124-26.324 26.305-27.846 27.824L77.48 104.94"/><g><path fill="#F7323F" d="M196 237.736c-20.24 6.222-43.186 1.32-59.2-14.694l-2.018-2.018 26.303-26.325 2.017 2.026c8.546 8.547 22.396 8.547 30.942.014 8.514-8.526 8.535-22.334-.054-30.91l-5.134-5.15-26.303-26.32-27.793-27.823 26.325-26.294 27.77 27.793 26.294 26.324 5.165 5.172c15.127 15.132 20.356 36.418 15.645 55.78 17.324 2.43 30.655 17.314 30.655 35.314 0 19.712-15.982 35.652-35.663 35.652-17.27 0-31.668-12.243-34.953-28.542"/><path fill="#3E8EDE" d="M185.73 163.806L157.97 191.6l-26.31 26.318-5.155 5.166c-15.196 15.2-36.62 20.366-56.07 15.54-3.635 15.856-17.823 27.654-34.772 27.665-19.695 0-35.668-15.963-35.663-35.664 0-16.858 11.706-30.993 27.43-34.712-4.976-19.544.18-41.13 15.475-56.42l2.012-2.01 26.32 26.295-2.033 2.026c-8.536 8.547-8.536 22.38.015 30.942 8.567 8.566 22.44 8.547 30.967.03l5.15-5.164 26.302-26.305 27.788-27.826 26.302 26.322"/></g></svg>