<svg xmlns="http://www.w3.org/2000/svg" width="45.124" height="59.591" viewBox="0 0 45.124 59.591"><path fill-rule="evenodd" clip-rule="evenodd" fill="#1F3233" d="M45.124 52.805a3.6 3.6 0 0 1-3.6 3.6H3.6a3.6 3.6 0 0 1-3.6-3.6V10.08a3.6 3.6 0 0 1 3.6-3.6h37.923a3.6 3.6 0 0 1 3.6 3.6v42.725z"/><path fill-rule="evenodd" clip-rule="evenodd" fill="#FFE4C0" d="M45.124 51.365a3.6 3.6 0 0 1-3.6 3.6H3.6a3.6 3.6 0 0 1-3.6-3.6V8.64a3.6 3.6 0 0 1 3.6-3.6h37.923a3.6 3.6 0 0 1 3.6 3.6v42.725z"/><path fill-rule="evenodd" clip-rule="evenodd" fill="#1F3233" d="M45.124 46.324a3.6 3.6 0 0 1-3.6 3.6H3.6a3.6 3.6 0 0 1-3.6-3.6V3.6A3.6 3.6 0 0 1 3.6 0h37.923a3.6 3.6 0 0 1 3.6 3.6v42.724z"/><path fill-rule="evenodd" clip-rule="evenodd" fill="#1F3233" d="M3.36 55.745c-2.16.12-3.36-2.88-3.36-2.88v-8.46h3.36v11.34z"/><path fill-rule="evenodd" clip-rule="evenodd" fill="#FFE4C0" d="M1.502 52.735a2.2 2.2 0 0 0 2.2 2.2H5.35a2.2 2.2 0 0 0 2.2-2.2v-.61a2.2 2.2 0 0 0-2.2-2.2H3.702a2.2 2.2 0 0 0-2.2 2.2v.61z"/><path fill-rule="evenodd" clip-rule="evenodd" fill="#F23333" d="M11.94 59.59l-3.467-1.923-3.18 1.924v-9.657h6.648z"/><path fill="#FFE4C0" d="M16.15 28.476c-.422 1.052-2.736 7.448-2.946 8.332-.042.295-.127.716-.127.926 0 .59.505.926 1.43.926h1.98c.293 0 .42.083.42.294v.968c0 .296-.127.38-.336.38-.588 0-2.314-.128-4.797-.128-3.072 0-3.997.127-4.586.127-.21 0-.295-.082-.295-.334v-1.012c0-.21.168-.294.336-.294H8.7c1.264 0 1.853-.59 2.442-1.936.294-.674 3.366-8.458 4.586-11.91.294-.84 3.704-9.888 4.082-11.023.126-.42.336-.968.042-1.43-.127-.168-.295-.38-.295-.548 0-.126.084-.294.38-.378 1.177-.253 3.03-1.516 3.492-2.104.21-.21.335-.38.545-.38.252 0 .337.253.463.716.8 2.65 4.082 12.08 4.882 14.77.967 3.283 3.702 11.11 4.29 12.33.716 1.39 1.812 1.894 2.863 1.894h1.39c.252 0 .336.126.336.294v1.053c0 .21-.127.294-.42.294-.76 0-1.643-.126-5.05-.126-3.493 0-4.966.127-5.933.127-.21 0-.337-.126-.337-.378v-.968c0-.25.126-.294.378-.294h1.052c1.178 0 1.557-.42 1.263-1.6-.337-1.515-2.063-6.9-2.65-8.584H16.148zm9.847-1.515C25.62 25.698 22.21 15.18 22 14.548c-.128-.295-.21-.59-.34-.59-.167 0-.335.295-.46.633-.212.546-4.21 11.318-4.504 12.37h9.3z"/></svg>