<svg xmlns="http://www.w3.org/2000/svg" width="480" height="144" viewBox="0 0 480 144"><path fill="#FFCE12" d="M-.038 0H480v144H-.038z"/><path opacity=".2" fill="#1E0E00" d="M164.885 144h129.387l42.206-42.605a4.196 4.196 0 0 0-.033-5.947L239.528 0h-67.922l-72.56 73.248a4.197 4.197 0 0 0 .035 5.945L164.886 144z"/><path fill="#EDEDED" d="M167.29 144h133.237l40.303-40.686a4.196 4.196 0 0 0-.033-5.947L241.933 0h-64.07L103.4 75.17a4.196 4.196 0 0 0 .034 5.943L167.29 144z"/><g opacity=".4"><g opacity=".4"><path d="M168.464 95.122c-.5.506-1.32.512-1.827.01L133.15 62.155a1.287 1.287 0 0 1-.012-1.82c.5-.505 1.318-.51 1.825-.01L168.45 93.3c.51.5.515 1.316.014 1.82zM172.092 91.46c-.5.506-1.318.512-1.827.012l-33.486-32.98a1.287 1.287 0 0 1-.012-1.822c.5-.505 1.317-.51 1.826-.012l33.487 32.98c.51.5.513 1.316.012 1.822zM175.722 87.797c-.5.506-1.32.51-1.826.01l-33.488-32.98a1.284 1.284 0 0 1-.012-1.82c.5-.505 1.317-.51 1.825-.01l33.488 32.98c.508.5.513 1.315.014 1.82zM179.35 84.134c-.5.506-1.318.51-1.827.01l-33.487-32.98a1.284 1.284 0 0 1-.01-1.82c.5-.505 1.316-.51 1.825-.01l33.487 32.98c.508.5.513 1.314.013 1.82zM182.978 80.472c-.5.506-1.318.51-1.827.01L147.665 47.5a1.282 1.282 0 0 1-.012-1.82c.5-.506 1.32-.512 1.826-.012l33.487 32.98c.51.5.514 1.316.013 1.822zM186.606 76.808a1.294 1.294 0 0 1-1.83.012L151.29 43.84a1.288 1.288 0 0 1-.01-1.822c.5-.504 1.317-.51 1.824-.01l33.487 32.98c.512.5.516 1.316.016 1.82zM190.234 73.146c-.5.505-1.32.51-1.828.01l-33.487-32.98a1.286 1.286 0 0 1-.012-1.82c.5-.505 1.318-.51 1.827-.01l33.486 32.98c.51.5.514 1.315.014 1.82z"/></g><path d="M154.062 109.662c-.5.505-1.32.51-1.827.01l-33.488-32.98a1.285 1.285 0 0 1-.012-1.82 1.293 1.293 0 0 1 1.826-.01l33.488 32.978c.51.5.515 1.315.014 1.822zM157.692 105.998c-.502.506-1.32.51-1.828.01l-33.487-32.98a1.285 1.285 0 0 1-.01-1.82c.5-.504 1.317-.51 1.825-.012l33.488 32.98c.507.5.51 1.318.012 1.822zM161.32 102.336c-.502.505-1.32.51-1.828.01l-33.487-32.98a1.284 1.284 0 0 1-.012-1.82 1.29 1.29 0 0 1 1.825-.01l33.488 32.978c.51.5.515 1.316.013 1.822zM164.948 98.672c-.5.508-1.317.51-1.827.01l-33.485-32.98a1.283 1.283 0 0 1-.012-1.82c.5-.505 1.318-.51 1.825-.01l33.487 32.98c.508.5.514 1.315.013 1.82z" opacity=".4"/></g><g opacity=".4"><g opacity=".4"><path d="M210.68 136.7c-.5.504-1.318.51-1.826.01l-33.488-32.98a1.285 1.285 0 0 1-.01-1.82c.498-.506 1.317-.51 1.824-.01l33.487 32.978c.51.5.515 1.316.014 1.82zM214.31 133.037c-.5.504-1.32.51-1.83.01l-33.487-32.98a1.285 1.285 0 0 1-.01-1.82c.5-.506 1.318-.51 1.825-.01l33.488 32.978c.51.5.514 1.316.013 1.822zM217.938 129.373c-.5.507-1.32.51-1.828.01l-33.486-32.98a1.285 1.285 0 0 1-.013-1.82c.5-.503 1.32-.51 1.827-.01l33.488 32.98c.508.5.513 1.316.013 1.82zM221.566 125.712c-.502.505-1.32.51-1.827.01L186.25 92.74a1.284 1.284 0 0 1-.01-1.82c.5-.505 1.318-.51 1.825-.012l33.488 32.98c.51.5.514 1.317.013 1.824zM225.195 122.05c-.5.504-1.32.51-1.827.008l-33.488-32.98a1.285 1.285 0 0 1-.012-1.82c.5-.506 1.32-.512 1.827-.012l33.486 32.98c.51.5.515 1.318.015 1.823zM228.823 118.385a1.293 1.293 0 0 1-1.828.012l-33.487-32.98a1.285 1.285 0 0 1-.01-1.82c.498-.506 1.317-.512 1.824-.012l33.487 32.98c.507.5.513 1.316.013 1.82zM232.45 114.723c-.5.506-1.318.512-1.827.012l-33.488-32.98a1.286 1.286 0 0 1-.01-1.822c.5-.505 1.317-.51 1.826-.01l33.488 32.98c.508.498.513 1.314.012 1.82z"/></g><path d="M187.093 144h3.674l-27.988-27.563a1.295 1.295 0 0 0-1.827.01c-.5.506-.495 1.32.013 1.82L187.093 144zM194.44 144h3.676l-31.708-31.228a1.296 1.296 0 0 0-1.827.01c-.5.508-.495 1.323.013 1.822L194.44 144zM201.71 143.922c.034.035.08.048.118.078h1.577c.042-.033.092-.05.13-.088.502-.507.496-1.32-.012-1.822l-33.488-32.98a1.294 1.294 0 0 0-1.826.012c-.5.507-.497 1.32.01 1.82l33.49 32.98zM207.164 140.25c-.5.506-1.316.51-1.826.008l-33.487-32.98a1.28 1.28 0 0 1-.012-1.817c.5-.506 1.318-.51 1.827-.01l33.486 32.98c.51.5.515 1.313.014 1.82z" opacity=".4"/></g><g opacity=".4"><path d="M223.602 144h3.676l-4.105-4.044a1.293 1.293 0 0 0-1.826.012c-.5.505-.496 1.322.01 1.82l2.245 2.212zM230.953 144h3.672l-7.824-7.705a1.29 1.29 0 0 0-1.823.01 1.282 1.282 0 0 0 .01 1.82l5.966 5.875zM238.3 144h3.672l-11.543-11.368a1.292 1.292 0 0 0-1.826.01c-.5.507-.496 1.32.012 1.82L238.3 144zM245.647 144h3.673l-15.263-15.03a1.29 1.29 0 0 0-1.825.01c-.5.506-.496 1.32.012 1.82l13.403 13.2zM252.994 144h3.674l-18.982-18.694a1.292 1.292 0 0 0-1.824.01 1.283 1.283 0 0 0 .01 1.82L252.994 144zM260.34 144h3.674l-22.7-22.356a1.294 1.294 0 0 0-1.827.01c-.5.507-.496 1.322.01 1.82L260.34 144z"/></g><path opacity=".3" d="M276.11 135.305c-.227-2.9-.41-6.232-.184-9.73l10.73 3.952-3.833 10.34a21.86 21.86 0 0 1-5.723-3.59l7.37 7.26c.62.183 1.24.332 1.86.464h.81l2.41-2.432a22.038 22.038 0 0 1-4.528-.892l3.83-10.34 8.668 3.188 1.803-1.82-9.66-3.56 2.557-6.9 12.202 4.495c-.187.477-.387.948-.59 1.414l3.678-3.715a39.872 39.872 0 0 0 1.23-6.647l3.924 1.444 3.275-3.306-.005-.002-4.49-4.423a22.076 22.076 0 0 1 1.725 5.432l-4.244-1.566c.112-2.214.073-4.368-.048-6.392l-2.5-2.462c.195 2.418.36 5.144.28 8.022l-10.198-3.757 3.763-10.157c.11.048.217.1.323.15l-4.49-4.423c-11.696-2.175-23.61 4.295-27.87 15.8a24.643 24.643 0 0 0-.435 15.918l8.36 8.237zm-2.314-2.607a22.01 22.01 0 0 1-3.952-9.364l3.987 1.47c-.198 2.746-.147 5.416-.034 7.894zm13.67-5.36l-11.312-4.17c.292-2.39.813-4.826 1.665-7.225l12.202 4.494-2.556 6.902zm3.365-9.09l-12.142-4.47c1.073-2.41 2.422-4.61 3.89-6.62l10.878 4.006-2.625 7.084zm15.696-2.27c-.192 2.477-.605 5.023-1.357 7.55l-12.14-4.473 2.622-7.08 10.874 4.002zM291 97.837a21.838 21.838 0 0 1 7.028.98l-3.765 10.158-10.196-3.756c2.362-2.908 4.87-5.354 6.933-7.382zm-3.69.4c-1.825 1.802-3.73 3.85-5.51 6.147l-4.24-1.562a22.177 22.177 0 0 1 9.75-4.584zm-11.67 6.366l4.728 1.74c-1.422 2.04-2.716 4.263-3.764 6.662l-5.258-1.933a21.745 21.745 0 0 1 4.293-6.47zm-5.107 8.656l5.207 1.917c-.852 2.39-1.373 4.825-1.677 7.224l-4.494-1.652a21.75 21.75 0 0 1 .963-7.488z"/><path fill="#444" d="M241.933 0H217.93l114.013 112.286 8.888-8.972a4.196 4.196 0 0 0-.032-5.947L241.933 0z"/><path fill="#FFF" d="M234.647 0h-9.5L328.18 101.47a3.347 3.347 0 0 0 4.718-.025 3.323 3.323 0 0 0-.028-4.71L234.647 0z"/><ellipse transform="rotate(-45.843 210.04 14.23)" fill="#FCD22E" cx="210.031" cy="14.23" rx=".047" ry=".069"/><path opacity=".3" d="M280.802 144L163.418 28.396l-1.908 1.927L276.937 144zM203.25 0L318.46 113.46l1.91-1.926L207.117 0z"/><g opacity=".1"><path d="M179.24 13.793l9.717 9.568-14.132 14.267-9.716-9.568zM196 19.275l9.718 9.57-19.66 19.846-9.716-9.568zM220.673 37.906l9.716 9.57-22.5 22.713-9.717-9.57zM199.357 37.693l9.713 9.567-12.082 12.194-9.713-9.565z"/><g><path d="M227.13 53.333l9.72 9.57-17.955 18.126-9.72-9.57zM245.45 57.25l9.72 9.57-25.04 25.276-9.716-9.572zM270.92 75.073l9.715 9.566-28.678 28.95-9.714-9.565zM246.667 77.814l9.716 9.57-15.326 15.472-9.716-9.57z"/></g></g><path fill="#9D9D9C" d="M262.752 73.542l-1.106 5.257-34.83-6.838 2.277-9.188 15.296 3.386-.98 5.293 19.287-2.91-16.65-11.313-.838 4.52-15.037-3.327 2.034-8.204-.06-.017.128-.43-15.503-3.043 2.313-10.36-.05-.016.1-.368-44.416-9.826-.76 4.427 39.726 8.802-1.463 6.448-31.02-6.088-.902 2.6 4 3.937 26.715 4.878-1.693 7.467 3.386.52 11.21 2.48-3.684 14.647 3.895.498 36.437 7.15-1.293 6.156 22.394-3.95-18.916-12.592zm-47.836-18.495l.68-3.047 10.273 1.876-.857 3.405-10.097-2.233z"/><g><path fill="#76D9FC" d="M120.048 0H-.038v144H121.07c19.956-17.433 32.56-43.026 32.56-71.56 0-29.017-13.036-54.995-33.582-72.44z"/><path fill-rule="evenodd" clip-rule="evenodd" fill="#00A936" d="M11.43 64.093c.153.14.253.357.39.382h.2c.95.27 1.875-.687 1.154-.75-.283-.05-.833.024-1.744.368zM33.522 55.79c-1.51.255-1.873 1.262 1.374 3.485.4-.108 3.193-.736 1.554.947 5.04-2.997-.352-4.89-2.928-4.432zM33.522 34.305c5.43-2.2 6.68-16.455.215-16.037-.417 0-.837.21-1.368.406 2.706 4.976-3.536 11.307 1.152 15.63zM95.843 46.115c.43-2.974-4.314-5.162-6.45-5.04-1.246.087-1.487.974.812 3.11-2.15 5.064 3.582 5.336 5.638 1.93zM47.308 9.002c1.566-.728 2.317-3.317 0-3.317-.42-.112-.733-.22-1.153-.198-.42.013-.84.16-1.145.198-4.58.91-3.187 8.477 2.298 3.317z"/><path fill-rule="evenodd" clip-rule="evenodd" fill="#00A936" d="M53.723 7.23c-6.625.836-13.31 7.218-7.15 13.532 4.415 5.493-6.37 16.702 3.864 19.58C54.5 31.28 65.61 24.104 62.862 13.057c-1.146-4.71-5.146-6.33-9.14-5.827z"/><path fill="#00A936" d="M34.706 43.042c-2.017-9.056-13.182-13.432-16.854-3.12-10.107 2.702-6.03-19.16 4.25-16.247 7.458.43 6.442-6.033 1.925-8.11 0-.318-.1-.494-.382-.21-.827-.307-1.694-.626-2.712-.576-5.847-3.223-1.525-9.337.536-14.78H6.835A345.53 345.53 0 0 0-.038 6.323v68.824c3.676-3.99 6.69-10.35 12.46-11.604 4.332-3.75 16.054.28 11.813-7.376 4.192-3.97 16.485-3.834 10.47-13.125zM42.29 138.014c-9.81-6.5-16.91-16.442-27.958-21.285-3.645-3.527-9.144-4.735-14.37-6.022v31.96c.43.442.858.886 1.28 1.333H60.63c-3.37-5.062-12.793-7.915-18.34-5.986zM153.046 62.744c-5.45 2.974-15.145-13.385-5.23-5.606 1.938-.134 3.157-.688 4.075-1.523-1.143-5.958-2.696-11.735-4.872-17.243-.975-1.153-1.912-2.233-2.71-2.887.067-1.19-.052-2.334-.195-3.476-.048-.063.058-.148 0-.21-5.996-12.304-14.57-23.13-25.006-31.8h-30.54c.057.58.4 1.303.67.068 3.235 3.65 10.042 11.222 2.896 10.275-9.472-1.293-7.008 17.313-.185 20.694 6.5 3.49 10.157-3.515 3.477-6.958-.903-8.727 14.584 5.357 7.75 10.027-.27.187-.494.406-.757.602.314-1.252-.45-.073-.425.21-7.77 5.615-3.34 18.84-6.36 27.65-5.38 11.91 13.458 6.66 10.65-2.716-3.448-8.627 14.327-4.695 10.482-10.827 10.78 5.7 9.76-9.608 5.258-14.724 2.1-8.184 7.64.96 5.02 5.42.427 4.217 4.074 5.187 7 6.39.133.1.285.113.575.185 2.558 1.218 4.092 2.778 1.332 7.57-3.167 10.646-13.903 11.233-22.678 9.266-8.875 3.665-10.525 14.418-15.53 21.656-4.967 9.044-9.095 22.365-.178 30.365 8.534 8.172 18.344 1.08 25.42-4.446 13.563-1.76 14.807 14.167 8.134 22.276-.073.372-.13.653-.185.96 14.13-16.59 22.696-38.035 22.696-61.506 0-2.62-.183-5.198-.395-7.77-.067-.638-.116-1.287-.19-1.926z"/><g opacity=".2" fill="#010000"><path d="M138.81 123.317h-.107c0 .074-.018.146-.03.222.05-.076.1-.148.136-.223zM153.068 73.68v-2.873h-14.53c-.147-10.718-1.78-21.005-4.658-30.59 11.01 1.584 12.454 3.023 12.607 3.22-.03-.024-.087-.137-.087-.308h2.602a125.43 125.43 0 0 0-.63-1.845c-1.146-1.057-3.48-1.918-7.324-2.74-2.246-.48-4.963-.947-8.13-1.362-3.672-11.05-9.02-21.103-15.678-29.694 6.68 1.71 12.005 3.713 15.69 5.814a98.856 98.856 0 0 0-4.56-5.323c-3.814-1.495-8.012-2.714-11.945-3.674-.72-.184-1.453-.342-2.18-.515A88.855 88.855 0 0 0 110.777 0h-4.045c.94.91 1.87 1.835 2.77 2.794C103.66 1.65 97.276.71 90.504 0h-65.09c-6.75.703-13.118 1.626-18.95 2.773C7.36 1.82 8.282.903 9.216 0h-4.04a88.32 88.32 0 0 0-3.442 3.768l-1.773.418v6.382a88.432 88.432 0 0 1 3.29-4.193c8.325-1.833 17.944-3.198 28.342-4.058-.39.886-.764 1.795-1.13 2.73-3.333 8.538-5.963 18.395-7.81 29.123-8.15.303-15.784.73-22.69 1.253v2.888c6.754-.512 14.234-.928 22.213-1.24-1.657 10.62-2.57 22-2.648 33.737H-.04v2.873h19.566c.06 11.64.935 22.935 2.544 33.49-7.938-.313-15.38-.73-22.11-1.242v2.884c6.876.524 14.476.945 22.585 1.26 1.842 10.972 4.51 21.05 7.918 29.75.145.355.29.7.425 1.045-10.808-.91-20.742-2.387-29.254-4.363-.57-.723-1.12-1.47-1.674-2.212v4.783c.028.008.057.014.085.02A89.818 89.818 0 0 0 4.34 144h3.988a85.155 85.155 0 0 1-3.676-3.883c8.183 1.683 17.5 2.947 27.51 3.747l.06.136h51.524l.067-.147c10.01-.812 19.34-2.09 27.524-3.787a85.687 85.687 0 0 1-3.72 3.935h3.99a89.344 89.344 0 0 0 4.34-4.967c.134-.036.282-.07.423-.098 4.777-1.166 9.942-2.717 14.342-4.682a104.024 104.024 0 0 0 4.782-6.043c-3.297 2.555-9.04 5.02-16.708 7.124 6.053-8.306 10.946-17.854 14.342-28.288 3.097-.43 5.775-.886 7.993-1.353 4.104-.884 6.495-1.805 7.548-2.973.18-.542.37-1.07.55-1.625h-2.738c0-.157.05-.282.08-.304-.16.21-1.594 1.634-12.492 3.22 2.792-9.524 4.358-19.725 4.468-30.33h14.532zm-17.385-2.873h-39.26c-.073-11.725-.987-23.107-2.643-33.724 9.3.368 17.922.883 25.475 1.524 4.567.393 8.358.8 11.518 1.19 3.033 9.687 4.76 20.12 4.91 31.01zm-22.967-64.41c7.242 8.614 13.078 18.925 17.06 30.38-2.51-.31-5.24-.58-8.21-.86-8.258-.738-17.84-1.33-28.26-1.735-1.844-10.717-4.482-20.597-7.827-29.136a85.41 85.41 0 0 0-1.112-2.73c10.397.872 20.03 2.237 28.348 4.08zM59.4 1.27c7.468.026 14.764.297 21.746.802.58 1.3 1.14 2.642 1.695 4.042 3.216 8.196 5.758 17.66 7.557 27.956-9.773-.343-20.233-.527-30.998-.55V1.27zm0 35.136c10.912.024 21.555.222 31.49.576 1.687 10.607 2.605 22.036 2.687 33.824H59.4v-34.4zm0 37.274h34.177c-.05 11.687-.945 23.03-2.59 33.574-9.964.37-20.64.564-31.588.564V73.68zm-2.85 68.29a321.19 321.19 0 0 1-22.468-.835 79.294 79.294 0 0 1-.963-2.383c-3.284-8.356-5.854-18.04-7.67-28.574 9.812.333 20.305.532 31.1.532v31.26zm0-34.152c-10.944 0-21.617-.195-31.582-.55-1.64-10.546-2.535-21.89-2.594-33.59H56.55v34.14zm0-37.01H22.376c.08-11.79 1.004-23.23 2.704-33.848a946.132 946.132 0 0 1 31.472-.554v34.4zm0-37.287c-10.757.013-21.21.194-30.99.54 1.793-10.297 4.338-19.75 7.56-27.946a84.328 84.328 0 0 1 1.69-4.056c6.975-.49 14.284-.762 21.74-.787v32.25zm26.29 105.232c-.32.81-.628 1.586-.96 2.358-7.198.544-14.753.825-22.48.86v-31.26a918.06 918.06 0 0 0 31.108-.544c-1.813 10.534-4.39 20.22-7.667 28.586zm31.517-2.314c-8.5 2.007-18.458 3.492-29.29 4.415.134-.346.282-.677.413-1.03 3.414-8.703 6.088-18.792 7.93-29.77 10.41-.413 19.973-.992 28.232-1.742a329.73 329.73 0 0 0 8.35-.86c-3.68 10.83-9.017 20.635-15.635 28.988zm16.62-32.024c-3.193.408-7.032.812-11.654 1.22-7.56.624-16.168 1.142-25.44 1.522 1.617-10.542 2.48-21.85 2.54-33.477h39.27c-.12 10.79-1.776 21.127-4.716 30.734z"/></g></g><path opacity=".2" fill="#1E0E00" d="M480 0H298.115c-.958.77-1.583 1.94-1.583 3.263V144H480V0z"/><g><path fill="#EDEDED" d="M480 0H302.25c-.957.77-1.582 1.94-1.582 3.263V144H480V0z"/><g opacity=".4"><g opacity=".4"><path d="M361.02 118.208c0 .71-.578 1.288-1.292 1.288H312.66a1.29 1.29 0 0 1-1.29-1.288c0-.71.577-1.286 1.29-1.286h47.068a1.29 1.29 0 0 1 1.293 1.286zM361.02 113.06c0 .71-.578 1.29-1.292 1.29H312.66a1.29 1.29 0 0 1-1.29-1.29c0-.71.577-1.286 1.29-1.286h47.068a1.29 1.29 0 0 1 1.293 1.287zM361.02 107.91a1.29 1.29 0 0 1-1.292 1.29H312.66a1.29 1.29 0 0 1-1.29-1.29c0-.708.577-1.284 1.29-1.284h47.068a1.29 1.29 0 0 1 1.293 1.285zM361.02 102.763a1.29 1.29 0 0 1-1.292 1.288H312.66a1.29 1.29 0 0 1-1.29-1.287c0-.71.577-1.286 1.29-1.286h47.068a1.29 1.29 0 0 1 1.293 1.286zM361.02 97.615c0 .71-.578 1.287-1.292 1.287H312.66a1.29 1.29 0 0 1-1.29-1.287c0-.71.577-1.287 1.29-1.287h47.068a1.29 1.29 0 0 1 1.293 1.287zM361.02 92.467c0 .712-.578 1.29-1.292 1.29H312.66a1.29 1.29 0 0 1-1.29-1.29c0-.71.577-1.286 1.29-1.286h47.068a1.29 1.29 0 0 1 1.293 1.287zM361.02 87.32c0 .71-.578 1.287-1.292 1.287H312.66a1.29 1.29 0 0 1-1.29-1.287c0-.71.577-1.288 1.29-1.288h47.068a1.29 1.29 0 0 1 1.293 1.288z"/></g><path d="M361.02 138.644c0 .71-.578 1.286-1.292 1.286H312.66a1.29 1.29 0 0 1-1.29-1.286c0-.712.577-1.287 1.29-1.287h47.068c.715 0 1.293.575 1.293 1.287zM361.02 133.494c0 .71-.578 1.288-1.292 1.288H312.66a1.29 1.29 0 0 1-1.29-1.288c0-.71.577-1.287 1.29-1.287h47.068a1.29 1.29 0 0 1 1.293 1.287zM361.02 128.347c0 .71-.578 1.287-1.292 1.287H312.66a1.29 1.29 0 0 1-1.29-1.287c0-.712.577-1.287 1.29-1.287h47.068a1.29 1.29 0 0 1 1.293 1.287zM361.02 123.198c0 .712-.578 1.285-1.292 1.285H312.66c-.713 0-1.29-.573-1.29-1.285s.577-1.287 1.29-1.287h47.068a1.29 1.29 0 0 1 1.293 1.288z" opacity=".4"/></g><g opacity=".4"><g opacity=".4"><path d="M420.36 118.208c0 .71-.58 1.288-1.294 1.288h-47.068a1.29 1.29 0 0 1-1.292-1.288c0-.71.578-1.286 1.292-1.286h47.068a1.29 1.29 0 0 1 1.293 1.286zM420.36 113.06c0 .71-.58 1.29-1.294 1.29h-47.068a1.29 1.29 0 0 1-1.292-1.29c0-.71.578-1.286 1.292-1.286h47.068a1.29 1.29 0 0 1 1.293 1.287zM420.36 107.91a1.29 1.29 0 0 1-1.294 1.29h-47.068a1.29 1.29 0 0 1-1.292-1.29c0-.708.578-1.284 1.292-1.284h47.068a1.29 1.29 0 0 1 1.293 1.285zM420.36 102.763a1.29 1.29 0 0 1-1.294 1.288h-47.068a1.29 1.29 0 0 1-1.292-1.287c0-.71.578-1.286 1.292-1.286h47.068a1.29 1.29 0 0 1 1.293 1.286zM420.36 97.615c0 .71-.58 1.287-1.294 1.287h-47.068a1.29 1.29 0 0 1-1.292-1.287c0-.71.578-1.287 1.292-1.287h47.068a1.29 1.29 0 0 1 1.293 1.287zM420.36 92.467c0 .712-.58 1.29-1.294 1.29h-47.068a1.29 1.29 0 0 1-1.292-1.29c0-.71.578-1.286 1.292-1.286h47.068a1.29 1.29 0 0 1 1.293 1.287zM420.36 87.32c0 .71-.58 1.287-1.294 1.287h-47.068a1.29 1.29 0 0 1-1.292-1.287c0-.71.578-1.288 1.292-1.288h47.068a1.29 1.29 0 0 1 1.293 1.288z"/></g><path d="M420.36 138.644c0 .71-.58 1.286-1.294 1.286h-47.068a1.29 1.29 0 0 1-1.292-1.286c0-.712.578-1.287 1.292-1.287h47.068a1.29 1.29 0 0 1 1.293 1.287zM420.36 133.494c0 .71-.58 1.288-1.294 1.288h-47.068a1.29 1.29 0 0 1-1.292-1.288c0-.71.578-1.287 1.292-1.287h47.068a1.29 1.29 0 0 1 1.293 1.287zM420.36 128.347c0 .71-.58 1.287-1.294 1.287h-47.068a1.29 1.29 0 0 1-1.292-1.287c0-.712.578-1.287 1.292-1.287h47.068a1.29 1.29 0 0 1 1.293 1.287zM420.36 123.198c0 .712-.58 1.285-1.294 1.285h-47.068a1.287 1.287 0 0 1-1.292-1.285c0-.712.578-1.287 1.292-1.287h47.068a1.29 1.29 0 0 1 1.293 1.288z" opacity=".4"/></g><g opacity=".4"><g opacity=".4"><path d="M479.902 118.208a1.29 1.29 0 0 1-1.292 1.288h-47.068a1.29 1.29 0 0 1-1.29-1.288c0-.71.577-1.286 1.29-1.286h47.068a1.29 1.29 0 0 1 1.292 1.286zM479.902 113.06a1.29 1.29 0 0 1-1.292 1.29h-47.068a1.29 1.29 0 0 1-1.29-1.29c0-.71.577-1.286 1.29-1.286h47.068c.715 0 1.292.576 1.292 1.287zM479.902 107.91a1.29 1.29 0 0 1-1.292 1.29h-47.068a1.29 1.29 0 0 1-1.29-1.29c0-.708.577-1.284 1.29-1.284h47.068c.715 0 1.292.576 1.292 1.285zM479.902 102.763a1.29 1.29 0 0 1-1.292 1.288h-47.068a1.29 1.29 0 0 1-1.29-1.287c0-.71.577-1.286 1.29-1.286h47.068c.715 0 1.292.576 1.292 1.286zM479.902 97.615a1.29 1.29 0 0 1-1.292 1.287h-47.068a1.29 1.29 0 0 1-1.29-1.287c0-.71.577-1.287 1.29-1.287h47.068c.715 0 1.292.576 1.292 1.287zM479.902 92.467a1.29 1.29 0 0 1-1.292 1.29h-47.068a1.29 1.29 0 0 1-1.29-1.29c0-.71.577-1.286 1.29-1.286h47.068a1.29 1.29 0 0 1 1.292 1.287zM479.902 87.32a1.29 1.29 0 0 1-1.292 1.287h-47.068a1.29 1.29 0 0 1-1.29-1.287c0-.71.577-1.288 1.29-1.288h47.068a1.29 1.29 0 0 1 1.292 1.288z"/></g><path d="M479.902 138.644a1.29 1.29 0 0 1-1.292 1.286h-47.068a1.29 1.29 0 0 1-1.29-1.286c0-.712.577-1.287 1.29-1.287h47.068c.715 0 1.292.575 1.292 1.287zM479.902 133.494a1.29 1.29 0 0 1-1.292 1.288h-47.068a1.29 1.29 0 0 1-1.29-1.288c0-.71.577-1.287 1.29-1.287h47.068a1.29 1.29 0 0 1 1.292 1.287zM479.902 128.347a1.29 1.29 0 0 1-1.292 1.287h-47.068a1.29 1.29 0 0 1-1.29-1.287c0-.712.577-1.287 1.29-1.287h47.068c.715 0 1.292.575 1.292 1.287zM479.902 123.198c0 .712-.578 1.285-1.292 1.285h-47.068c-.713 0-1.29-.573-1.29-1.285s.577-1.287 1.29-1.287h47.068c.715 0 1.292.576 1.292 1.288z" opacity=".4"/></g><path opacity=".3" d="M477.675 71.37c.772-.413 1.515-.86 2.227-1.34v-3.62a22.026 22.026 0 0 1-3.85 2.54l-4.563-10.042 8.412-3.805v-2.558l-9.38 4.237-3.046-6.7 11.85-5.353c.205.47.395.945.577 1.42v-5.22a40.216 40.216 0 0 0-3.81-5.594l3.81-1.72v-4.647H473.586a22.192 22.192 0 0 1 5.055 2.654l-4.123 1.86a58.125 58.125 0 0 0-4.542-4.516h-3.513c1.844 1.584 3.88 3.408 5.854 5.512l-9.903 4.472-4.482-9.863c.112-.044.225-.082.334-.12h-6.31c-9.855 6.648-13.77 19.597-8.695 30.77a24.74 24.74 0 0 0 10.91 11.63h11.752c-2.207-1.904-4.684-4.147-6.988-6.793l10.416-4.706 4.56 10.042a21.926 21.926 0 0 1-6.602 1.457h10.36zm-3.73-35.06c1.607 1.895 3.11 3.997 4.355 6.322l-11.79 5.324-3.124-6.877 10.558-4.77zm-9.567 12.61l-11.79 5.33c-.935-2.467-1.526-4.98-1.9-7.436l10.565-4.772 3.125 6.88zm-14.263-14.638a21.755 21.755 0 0 1 5.692-4.227l4.48 9.863-9.9 4.473c-.37-3.722-.31-7.22-.272-10.108zm-2.344 2.87c-.028 2.56.06 5.35.414 8.234l-4.118 1.86a22.047 22.047 0 0 1 3.705-10.094zm-3.815 12.707l4.59-2.075c.428 2.447 1.073 4.934 2.018 7.377l-5.104 2.31a21.676 21.676 0 0 1-1.505-7.613zm2.467 9.735l5.056-2.283c1.077 2.296 2.423 4.394 3.898 6.314l-4.364 1.972a21.853 21.853 0 0 1-4.59-6.003zm16.02 11.543a22.12 22.12 0 0 1-9.41-3.893l3.873-1.75c1.793 2.095 3.71 3.96 5.538 5.643zm-5.04-8.432c-1.477-1.905-2.82-4.003-3.906-6.307l11.85-5.354 3.046 6.7-10.99 4.96z"/><path fill="#444" d="M480 0H302.25c-.957.77-1.582 1.94-1.582 3.263v12.61H480V0z"/><ellipse fill="#2CB740" cx="309.881" cy="7.688" rx="3.337" ry="3.325"/><path fill="#F16442" d="M323.39 7.688a3.334 3.334 0 0 1-3.344 3.325 3.33 3.33 0 0 1-3.332-3.325 3.332 3.332 0 0 1 3.332-3.326 3.337 3.337 0 0 1 3.343 3.326z"/><path fill="#FFF" d="M480 4.29c-.28-.077-.57-.13-.873-.13H328.82a3.337 3.337 0 0 0-3.335 3.33 3.337 3.337 0 0 0 3.336 3.325h150.307c.304 0 .593-.054.873-.13V4.29z"/><ellipse fill="#FCD22E" cx="333.583" cy="31.531" rx=".068" ry=".046"/><path opacity=".3" d="M310.404 74.27H480v2.71H310.404zM310.404 23.45H480v2.708H310.404z"/><g opacity=".1"><path d="M311.37 52.794h13.656v20.053H311.37zM327.158 44.95h13.657v27.897h-13.657zM357.842 40.92H371.5v31.927H357.84zM342.526 55.705h13.652v17.142h-13.652z"/><g><path d="M373.31 47.368h13.66v25.48h-13.66zM389.103 37.32h13.66v35.526h-13.66zM419.786 32.154h13.652v40.692h-13.652zM404.46 51.1h13.658v21.747H404.46z"/></g></g><path fill="#9D9D9C" d="M412.895 36.79l2.917 4.514-29.6 19.54-4.853-8.132 13.267-8.31 3.035 4.45 11.67-15.582-19.82 3.617 2.59 3.804-13.042 8.17-4.334-7.264-.053.03-.212-.393-13.173 8.696-5.658-8.993-.047.025-.188-.334L316.87 64.76l2.58 3.68 34.466-21.572 3.505 5.613-26.36 17.405 1.19 2.48h5.62l22.445-15.25 4.058 6.5 2.774-2.002 9.725-6.093 7.702 13.003 3.122-2.372 30.964-20.443 3.418 5.285 13.15-18.5-22.333 4.297zm-47.07 20.357l-1.662-2.643 8.63-5.864 1.79 3.022-8.757 5.485z"/></g><g><path opacity=".2" fill="#1E0E00" d="M31.57 19.32c.227-.01.407-.132.633-.172 2.192 10.8 6.478 20.355 12.185 27.78v13.743c0 1.17.11 2.308.27 3.437-5.646 2.478-31.272 12.33-44.696 18.155V144h179.92c-1.118-3.498-12.83-40.024-15.796-46.21-3.112-6.5-6.714-9.205-11.337-11.307-4.617-2.096-52.227-22.954-52.227-22.954l-.38.027c.11-.946.183-1.91.183-2.886V49.896c6.94-7.758 12.16-18.44 14.653-30.75.215.042.405.162.632.177a5.888 5.888 0 0 0 6.314-5.438L122.823 0h-98.47l.89 13.884c.236 3.244 3.074 5.68 6.328 5.437z"/><path fill="gray" d="M-.038 144h172.524c-2.79-7.954-12.456-37.318-15.114-42.86-3.116-6.5-6.718-9.202-11.34-11.3-4.617-2.1-52.226-22.962-52.226-22.962L66.54 68.974l-27.266-2.096S15.53 75.885-.04 82.658V144z"/><path fill="#DDD" d="M95.686 144l13.372-69.967-43.667 20.76-43.474-20.76L36.59 144z"/><path fill="#DEB472" d="M93.608 64.018c0 14.344-12.524 25.98-27.97 25.98-15.45 0-27.967-11.637-27.967-25.98v-29.55c0-14.363 12.52-25.99 27.968-25.99 15.446 0 27.97 11.627 27.97 25.99v29.55z"/><path fill="#0F79D1" d="M54.005 144h22.783l-7.98-29.977 15.833-22.227H45.038l16.627 23.35z"/><path fill="#FFF" d="M93.64 63.695l15.203 9.91-19.95 39.265L65.23 90.625zM37.497 63.695l-15.203 9.91L42.24 112.87l22.65-22.245z"/><path opacity=".1" fill="#1E0E00" d="M37.68 0v54.01c7.674 9.835 17.913 15.864 29.198 15.864 10.14 0 19.44-4.895 26.79-13.018V0H37.68z"/><path fill="#FFD280" d="M17.39 0l1.136 17.236a5.905 5.905 0 0 0 6.325 5.438c.227-.014.41-.135.63-.182 5.14 25.316 21.704 43.884 41.398 43.884 19.683 0 36.244-18.56 41.385-43.884.215.047.407.168.635.182 3.244.242 6.08-2.2 6.315-5.438L116.355 0H17.39z"/><path opacity=".1" fill="#1E0E00" d="M65.954 0v66.32c.313.01.61.053.924.053 19.683 0 36.244-18.564 41.385-43.88.215.042.407.163.635.177 3.244.238 6.08-2.198 6.315-5.44L116.355 0h-50.4z"/><path fill="#5E5E5E" d="M22.846 114.33l-2.518 13.678s2.18 8.32 4.886 15.992h14.013L22.294 73.604l-12.32 5.84 5.6 31.265 7.272 3.62zM106.14 144c2.705-7.667 4.884-15.992 4.884-15.992l-2.52-13.677 7.275-3.628 5.594-31.26-12.316-5.842L92.12 144h14.02z"/></g><path opacity=".1" fill="#444" d="M480 0h-1.957c-24.89 21.793-137.323 114.407-173.29 144H480V0z"/><g><path opacity=".2" d="M246.81 84.836l-.195-.11c-3.967-6.284-7.208-10.958-7.754-11.66-.89-1.155-1.964-3.188-2.534-4.314l.006-.012s-.082-.147-.21-.396c-.125-.25-.195-.398-.195-.398l-.012-.003c-.576-1.122-1.592-3.19-2-4.585-1-3.423-6.207-17.786-12.837-31.205l-.007-.05-.022-.013c-1.993-4.027-4.066-7.812-6.102-10.87-2.88-4.26-3.438-4.874-3.524-4.89-.034-.28-.402-1.13-4.02.805-2.467 1.37-2.127 1.826-2.222 3.996-.09 2.167-2.234 3.966-6.56 7.698-.967.84-1.8 1.577-2.488 2.293a28.33 28.33 0 0 0-1.49-.342c-7.74-1.52-6.956.837-6.902 3.34.062 2.734 3.665 4.37 7.047 5.58.107.297.22.6.35.916 2.538 6.27 8.543 17.84 11.24 22.05 2.695 4.22 4.183 8.805 14.838 6.615a89.37 89.37 0 0 1 3.68-.69l.364.724 2.096 4.076 1.947 3.858c-.7.687-1.587 1.53-2.723 2.558-8.053 7.29-5.214 11.194-3.386 15.85 1.824 4.655 7.658 16.308 11.24 22.045.37.597.728 1.113 1.083 1.586-1.04 3.483-1.908 7.468.312 9.16 1.995 1.518 3.442 3.54 6.77-3.595a27.24 27.24 0 0 0 1.006-2.494c.746-.136 1.547-.31 2.435-.514 5.253-1.207 7.957-1.846 9.77-.917.024.04.06.08.07.096 0 0 .028-.008.078-.018.062.034.13.057.187.093 1.815 1.2 1.985 1.746 4.548.566 3.698-1.775 3.225-2.575 3.02-2.763.035-.08-.133-.89-1.885-5.72-3.137-8.45-9.658-19.64-14.965-28.067l-.052-.274z"/><path fill="#937150" d="M259.64 119.91c-.558-.567-19.334-29.484-26.454-43.538-7.123-14.06-13.573-27.12-14.75-30.028-1.173-2.907-4.793-4.51-7.992-5.24-3.19-.73-8.275-1.23-11.706-2.444-3.438-1.216-7.17-2.862-7.237-5.65-.05-2.5-.837-4.86 6.906-3.337 7.74 1.524 15.713 7.116 17.56 8.44 3.76 2.703 10.77 11.524 26.614 39.94 15.85 28.416 22.104 37.496 23.093 38.93.99 1.443-6.034 2.927-6.034 2.927z"/><path fill="#937150" d="M209.335 21.235c.13.786 12.496 32.952 19.687 46.97 7.19 14.02 13.976 26.916 15.636 29.574 1.666 2.662.83 6.522-.463 9.526-1.287 3.004-3.877 7.396-4.916 10.872-1.043 3.484-1.904 7.468.31 9.16 1.997 1.516 3.445 3.54 6.775-3.598 3.323-7.13 3.494-16.85 3.508-19.118.026-4.623-2.99-15.465-16.677-44.98-13.685-29.512-17.356-39.9-17.937-41.546-.583-1.642-5.925 3.14-5.925 3.14z"/><path opacity=".8" fill="#DCEFF4" d="M227.518 38.847s-5.4-10.855-6.577-12.685c-1.17-1.828-4.172-7.947-11.314-2.48-7.148 5.468-8.09 6.23-8.09 6.23s-4.516 2.3-1.804 8.812c2.715 6.507 10.068 20.696 11.786 23.117 1.72 2.422 3.31 7.675 11.484 5.903 8.18-1.777 13.82-2.88 12.024-9.915-1.516-5.947-5.09-14.072-6.884-17.755"/><path opacity=".7" fill="#FFF" d="M224.79 66.618l-8.675.61-7.633-43.732 8.143-4.126zM231.018 66.186l-3.93-.627-6.59-36.998 4.334 2.435z"/><path opacity=".8" fill="#DCEFF4" d="M255.64 94.01s5.615 10.75 6.403 12.77c.79 2.026 3.98 8.048-4.655 10.587-8.642 2.532-9.817 2.844-9.817 2.844s-4.527 2.285-8.203-3.74c-3.673-6.024-10.833-20.31-11.785-23.117-.947-2.814-4.27-7.192 1.987-12.73 6.257-5.546 10.475-9.436 15.118-3.845 3.924 4.727 8.404 12.396 10.33 16.012"/><path opacity=".7" fill="#FFF" d="M250.534 119.352l-8.676.608-7.632-43.73 8.14-4.128zM256.758 118.92l-3.925-.63-6.59-36.996 4.332 2.435z"/><path fill="#432918" d="M267.475 117.79c.037-.08-.137-.89-1.885-5.72-5.548-14.95-21.69-38.462-22.967-40.112-.89-1.153-1.963-3.188-2.534-4.313l.006-.01s-.084-.148-.212-.398c-.126-.25-.194-.398-.194-.398l-.015-.002c-.575-1.125-1.592-3.19-2-4.588-.584-2.002-10.124-28.856-18.966-42.137-2.883-4.26-3.44-4.875-3.524-4.892-.036-.276-.405-1.126-4.022.807-2.47 1.37-2.125 1.827-2.22 4-.09 2.165-2.235 3.962-6.56 7.694-4.32 3.736-6.028 5.53-3.486 11.788 2.54 6.27 8.542 17.84 11.24 22.048 2.693 4.222 4.185 8.806 14.837 6.618 5.22-1.076 6.98-1.09 6.98-1.09s2.105-.794 3.754 2.234c.01.007.015.017.02.025.004.01.01.017.01.032 1.48 3.113-.405 4.34-.405 4.34s-1.043 1.41-4.992 4.984c-8.054 7.287-5.216 11.19-3.386 15.847 1.823 4.655 7.657 16.31 11.237 22.047 3.58 5.74 6.036 5.423 11.607 4.14 5.576-1.282 8.295-1.95 10.104-.745 1.814 1.198 1.98 1.744 4.547.563 3.7-1.776 3.23-2.573 3.025-2.763zm-45.113-51.74c-7.373 1.602-8.806-3.134-10.356-5.318-1.552-2.185-8.18-14.976-10.624-20.844-2.445-5.874 1.625-7.946 1.625-7.946s.846-.688 7.288-5.613c6.443-4.937 9.146.585 10.203 2.232C221.562 30.206 226.433 40 226.433 40l.56 1.103c1.615 3.324 4.838 10.648 6.206 16.01 1.623 6.342-3.466 7.336-10.838 8.938zm33.238 49.133c-7.79 2.286-8.844 2.564-8.844 2.564s-4.084 2.057-7.398-3.372c-3.317-5.433-9.775-18.31-10.63-20.846-.854-2.534-3.847-6.48 1.793-11.48 5.642-4.996 9.45-8.505 13.63-3.462 3.54 4.265 7.573 11.177 9.318 14.438l.563 1.102s5.062 9.69 5.767 11.517c.713 1.824 3.593 7.25-4.197 9.538z"/></g></svg>