<svg xmlns="http://www.w3.org/2000/svg" width="355.412" height="308.779" viewBox="0 0 355.412 308.779"><path fill="#9D9D9C" d="M269.335 156.427l37.43-57.41c9.36 3.766 20.38.532 26.1-8.242 4.684-7.187 4.538-16.128.36-23l3.61-5.533c.226-.348.062-.852-.366-1.132l-1.57-1.02 6.39-9.798c.056 0 .116 0 .176-.014l8.497-1.79a.74.74 0 0 0 .574-.877l-1.79-8.497a.747.747 0 0 0-.035-.113l5.78-1.22a.545.545 0 0 0 .422-.645l-1.232-5.852 1.113-1.708c.666-1.024.857-2.26.25-3.54l-3-5.445-.625-1.138-1.528-2.774c-.797-.52-1.987-.11-2.655.916l-23.12 35.462-1.51-.985c-.427-.277-.957-.223-1.182.124l-3.546 5.44c-8.056-1.155-16.423 2.312-21.16 9.575-5.804 8.904-4.185 20.496 3.316 27.514l-37.383 57.344 6.682 4.36zm37.65-75.47z"/><path fill="#DADADA" d="M348.544 47.242c.086.4-.17.793-.572.877l-8.497 1.79a.743.743 0 0 1-.878-.572l-1.79-8.497a.743.743 0 0 1 .573-.878l8.497-1.788a.74.74 0 0 1 .88.573l1.787 8.495z"/><path fill="#DADADA" d="M331.233 67.408l3.61-5.536c.225-.345.06-.85-.367-1.13l-1.567-1.02L352.8 29.21c.668-1.028.858-2.264.25-3.54l-5.152-9.36c-.797-.518-1.988-.11-2.657.918l-23.12 35.462-1.508-.985c-.427-.278-.956-.223-1.183.12l-3.548 5.444c-8.053-1.16-16.42 2.31-21.155 9.57-6.51 9.983-3.693 23.35 6.288 29.856 9.98 6.508 23.347 3.692 29.853-6.29 4.687-7.185 4.538-16.127.363-22.998zM306.67 88.565a5.765 5.765 0 0 1-1.678-7.976 5.762 5.762 0 0 1 9.654 6.294 5.763 5.763 0 0 1-7.975 1.68z"/><path fill="#9D9D9C" d="M349.426 19.084l-21.378 32.792c-.49.75-.378 1.693.252 2.104.63.413 1.538.135 2.028-.616l20.585-31.576-1.487-2.704z"/><path fill="#DADADA" d="M352.92 36.766a.545.545 0 0 1-.42.647l-6.252 1.317a.542.542 0 0 1-.647-.422l-1.318-6.253a.55.55 0 0 1 .422-.647l6.255-1.315a.546.546 0 0 1 .646.42l1.314 6.253zM300.524 90.552l6.685 4.356-39.857 61.155-6.685-4.356z"/><path fill="#9D9D9C" d="M135.39 38.05c-.04-.418-.09-.833-.15-1.244.102.414.193.83.274 1.25-.12-.803-.278-1.6-.466-2.385a21.838 21.838 0 0 0-2.564-6.877c-.032-.055-.067-.108-.1-.165a29.126 29.126 0 0 0-15.364-13.55c-15.094-5.76-32.002 1.805-37.764 16.9-5.134 13.45.32 28.333 12.248 35.494l-35.04 91.804 20.712 7.907 12.566-32.937-6.516-18.56 19.42-50.935.01-.118a34.99 34.99 0 0 1-2.773-.93c-3.085-1.176-5.723-2.728-7.923-4.655-2.2-1.925-3.883-4.13-5.055-6.613-1.17-2.487-1.787-5.18-1.847-8.08-.06-2.904.51-5.922 1.703-9.05 1.12-2.94 2.655-5.493 4.595-7.66 1.938-2.166 4.144-3.85 6.616-5.057 2.47-1.202 5.154-1.863 8.05-1.98 2.897-.116 5.84.397 8.827 1.536 2.75 1.05 5.144 2.397 7.178 4.045 2.033 1.643 3.607 3.535 4.72 5.672 1.114 2.135 1.723 4.487 1.832 7.055.107 2.567-.382 5.274-1.468 8.12-1.287 3.367-2.915 5.815-4.884 7.347-1.97 1.53-3.88 1.942-5.73 1.236-.9-.345-1.4-.85-1.5-1.51-.102-.663.002-1.398.31-2.205.272-.71.643-1.438 1.118-2.18a38.34 38.34 0 0 0 1.232-2.056l7.906-12.388-6.33-2.416-1.656 2.627-.072-.027c.035-1.236-.417-2.468-1.36-3.697-.944-1.23-2.316-2.19-4.118-2.877-2.09-.797-4.16-1.06-6.22-.785-2.062.274-4 .933-5.81 1.98-1.813 1.048-3.423 2.415-4.827 4.105a19.335 19.335 0 0 0-3.25 5.525c-1.304 3.417-1.486 6.524-.547 9.33.94 2.802 3.024 4.82 6.25 6.05 2.134.815 4.13.992 5.99.536 1.86-.458 3.36-1.12 4.507-1.99l.355.137c-.525 1.378-.39 2.732.404 4.066.792 1.338 2.14 2.366 4.036 3.09a14 14 0 0 0 5.722.92c1.96-.094 3.875-.625 5.742-1.6 1.865-.97 3.605-2.397 5.22-4.28 1.617-1.883 2.968-4.247 4.053-7.092 1.472-3.838 2.047-7.45 1.736-10.83zm-24.654 7.788a11.944 11.944 0 0 1-2.452 2.692 8.245 8.245 0 0 1-3.128 1.576c-1.146.297-2.36.2-3.64-.29-.95-.362-1.64-.827-2.072-1.4a4.793 4.793 0 0 1-.874-1.883 5.154 5.154 0 0 1-.03-2.048 10.67 10.67 0 0 1 .513-1.88c.434-1.14 1.04-2.267 1.82-3.382a13.777 13.777 0 0 1 2.642-2.864c.98-.793 2.025-1.358 3.134-1.698 1.104-.338 2.23-.29 3.368.143.898.346 1.586.825 2.058 1.44.47.617.772 1.287.9 2.014.13.728.125 1.486-.012 2.277a12.54 12.54 0 0 1-.64 2.322c-.363.95-.893 1.94-1.588 2.978z"/><path fill="#DADADA" d="M133.695 36.846a23.195 23.195 0 0 0-.146-1.244c.097.414.19.83.272 1.248a29.33 29.33 0 0 0-.468-2.383 21.83 21.83 0 0 0-2.564-6.878c-.032-.058-.066-.108-.1-.165a29.112 29.112 0 0 0-15.364-13.55c-15.094-5.76-32 1.804-37.762 16.9-5.134 13.45.32 28.33 12.247 35.492l-35.04 91.806 20.715 7.906 12.564-32.94-6.516-18.558 19.42-50.934.01-.12c-.907-.26-1.83-.57-2.77-.93-3.087-1.18-5.727-2.728-7.926-4.655-2.2-1.926-3.883-4.13-5.054-6.615-1.17-2.484-1.788-5.177-1.847-8.08-.06-2.905.508-5.92 1.7-9.05 1.125-2.94 2.656-5.494 4.596-7.662 1.94-2.165 4.146-3.85 6.616-5.053 2.47-1.205 5.15-1.864 8.05-1.98 2.895-.118 5.838.396 8.825 1.535 2.75 1.05 5.144 2.397 7.178 4.046 2.034 1.644 3.606 3.535 4.722 5.67 1.113 2.137 1.722 4.49 1.83 7.057.106 2.567-.382 5.275-1.47 8.12-1.283 3.368-2.91 5.814-4.88 7.345-1.97 1.53-3.88 1.942-5.73 1.237-.9-.344-1.402-.846-1.5-1.51-.1-.663.003-1.398.31-2.205.272-.71.645-1.437 1.12-2.182.472-.74.883-1.426 1.23-2.054l7.908-12.387-6.33-2.416-1.657 2.63-.072-.028c.037-1.237-.417-2.47-1.36-3.7-.943-1.228-2.314-2.187-4.117-2.875-2.087-.797-4.16-1.058-6.22-.786-2.06.273-4 .935-5.81 1.98-1.812 1.047-3.42 2.416-4.828 4.107a19.434 19.434 0 0 0-3.25 5.525c-1.304 3.414-1.484 6.522-.544 9.328.94 2.805 3.02 4.82 6.247 6.05 2.135.815 4.13.995 5.99.538 1.86-.46 3.36-1.123 4.508-1.99l.356.136c-.524 1.376-.39 2.732.404 4.068.794 1.334 2.14 2.364 4.038 3.088a14.03 14.03 0 0 0 5.72.92c1.963-.093 3.88-.625 5.744-1.598 1.865-.972 3.607-2.4 5.222-4.285 1.614-1.88 2.966-4.246 4.052-7.09 1.467-3.84 2.04-7.45 1.73-10.83zm-24.65 7.788a11.998 11.998 0 0 1-2.454 2.693 8.286 8.286 0 0 1-3.127 1.575c-1.145.297-2.357.2-3.638-.29-.95-.362-1.64-.828-2.073-1.4a4.703 4.703 0 0 1-.872-1.882 5.1 5.1 0 0 1-.032-2.048c.125-.686.295-1.313.514-1.883.435-1.14 1.042-2.266 1.82-3.38a13.78 13.78 0 0 1 2.64-2.865c.982-.792 2.028-1.356 3.134-1.697 1.107-.338 2.23-.29 3.37.144.9.344 1.586.823 2.057 1.438.472.616.772 1.29.903 2.017a6.52 6.52 0 0 1-.015 2.275 12.65 12.65 0 0 1-.64 2.323c-.36.95-.89 1.94-1.585 2.98z"/><path fill="#9D9D9C" d="M175.535 226.52c4.197-9.02.29-19.737-8.73-23.936a17.953 17.953 0 0 0-11.908-1.157l.004-.006-15.924 3.876-1.303-.604-58.423-27.195-5.008 10.76 34.15 15.894 7.912-1 19.453 9.058 7.287 14.682.004-.006a17.915 17.915 0 0 0 8.55 8.365c9.02 4.2 19.737.29 23.937-8.73zm-18.87-2.097a6.062 6.062 0 0 1-2.936-8.054 6.058 6.058 0 0 1 8.05-2.94 6.062 6.062 0 0 1-5.114 10.993z"/><path fill="#2A5CA6" d="M294.334 162.085c0 16.36-13.26 29.62-29.62 29.62H78.166c-16.36 0-29.622-13.26-29.622-29.62s13.263-29.623 29.622-29.623h186.547c16.36 0 29.62 13.263 29.62 29.623z"/><path fill="#C6C6C6" d="M294.334 160.617c0 16.36-13.26 29.62-29.62 29.62H78.166c-16.36 0-29.622-13.26-29.622-29.62 0-16.362 13.263-29.625 29.622-29.625h186.547c16.36 0 29.62 13.263 29.62 29.625z"/><path fill="#DADADA" d="M73.752 186.663l5.01-10.756 61.196 28.486-3.217 6.908-20.926-9.74-7.91 1.002z"/><path opacity=".2" d="M130.958 204.406l3.01 5.604 2.773 1.29 3.218-6.907-2.775-1.29z"/><path fill="#DADADA" d="M175.044 224.93c4.2-9.02.29-19.738-8.73-23.937a17.942 17.942 0 0 0-11.907-1.154l.004-.01-21.853 5.32 10 20.148.002-.008a17.945 17.945 0 0 0 8.55 8.367c9.022 4.198 19.735.292 23.934-8.727zm-18.867-2.1a6.062 6.062 0 1 1 5.116-10.99 6.06 6.06 0 0 1 2.936 8.052 6.06 6.06 0 0 1-8.053 2.94z"/><path fill="#72AF2D" d="M172.182 223.596c3.457-7.426.237-16.252-7.19-19.708a14.753 14.753 0 0 0-9.803-.952l.002-.008-17.997 4.382 8.234 16.59v-.004a14.778 14.778 0 0 0 7.045 6.887c7.426 3.458 16.25.24 19.707-7.187zm-17.33 2.082c-4.607-2.145-6.605-7.62-4.46-12.226a9.2 9.2 0 0 1 12.226-4.46c4.606 2.144 6.604 7.618 4.46 12.227-2.145 4.607-7.62 6.603-12.227 4.458z"/><path fill="#9D9D9C" d="M318.092 278.408l-6.48-29.85a2.615 2.615 0 0 0-3.11-1.998l-3.834.83c-1.976-1.876-5.93-2.863-10.67-2.686L277.99 170.99l-17.314 3.76 5.385 24.81 7.797 7.24 8.766 40.374c-4.388 1.805-7.58 4.343-8.598 6.872l-3.834.833a2.612 2.612 0 0 0-2 3.105l6.482 29.85a2.613 2.613 0 0 0 3.107 2l38.31-8.315a2.618 2.618 0 0 0 2-3.112z"/><path fill="#DADADA" d="M272.537 257.335c-.91-4.188 5.557-9.145 14.44-11.074 8.885-1.93 16.825-.097 17.734 4.087.91 4.19-5.556 9.146-14.442 11.075-8.883 1.93-16.82.098-17.73-4.087z"/><path fill="#DADADA" d="M266.968 258.793a2.613 2.613 0 0 1 2-3.108l38.306-8.317a2.614 2.614 0 0 1 3.11 2l6.48 29.85a2.612 2.612 0 0 1-2 3.11l-38.307 8.315a2.612 2.612 0 0 1-3.108-2l-6.482-29.85z"/><path fill="#FF5252" d="M273.3 281.48l1.275 5.868a2.454 2.454 0 0 0 2.917 1.875l35.933-7.802a2.45 2.45 0 0 0 1.875-2.915l-1.272-5.866-40.728 8.84z"/><path fill="#F6F6F6" d="M313.498 271.8l-9.413 2.043-1.515-6.978 9.413-2.043z"/><path fill="#9D9D9C" d="M303.22 274.014l-9.412 2.042-1.514-6.98 9.41-2.04zM293.198 276.213l-9.41 2.043-1.515-6.976 9.41-2.043zM282.86 278.463l-9.41 2.046-1.518-6.978 9.41-2.045zM311.857 264.048l-9.41 2.042-1.516-6.977 9.413-2.043zM301.55 266.28l-9.408 2.044-1.516-6.98 9.41-2.042zM291.47 268.457l-9.412 2.043-1.514-6.976 9.413-2.043zM281.19 270.704l-9.41 2.044-1.516-6.98 9.41-2.044zM310.164 256.416l-9.41 2.042-1.514-6.98 9.41-2.04zM299.885 258.672l-9.41 2.043-1.514-6.977 9.41-2.043z"/><path fill="#F6F6F6" d="M289.845 260.825l-9.41 2.044-1.515-6.978 9.41-2.044zM279.547 263.088l-9.41 2.042-1.515-6.976 9.41-2.043z"/><path fill="#FFF" d="M280.218 284.302a1.054 1.054 0 0 1 .81-1.254l26.62-5.783a1.06 1.06 0 0 1 1.257.81 1.056 1.056 0 0 1-.808 1.26l-26.62 5.778a1.06 1.06 0 0 1-1.26-.81z"/><path fill="#DADADA" d="M259.45 175.56l17.318-3.76 16.944 78.05-11.373 2.468-9.707-44.71-7.796-7.237z"/><path fill="#9D9D9C" d="M85.604 283.7c.058.004.118.004.176 0 1.968-.026 3.76-.83 5.047-2.253.875-.975 1.917-2.685 1.936-5.33l.068-9.205a223.8 223.8 0 0 0 3.5.56l.047.006.05.005c.26.03.5.04.737.036.04-.002.086-.002.13-.005H97.352c4.342-.265 9.097-2.708 9.625-2.985l.02-.013.024-.01a5.04 5.04 0 0 0 2.202-2.373l.02-.04.015-.04c.53-1.28.8-2.533.805-3.73.022-2.807-1.378-4.918-2.697-5.96a4.987 4.987 0 0 0-3.078-1.075l-.14-.002-.052.003c-.297.01-1.444.03-2.786.048-1.193.02-2.163.033-2.82.038-1.907-.926-7.666-4.57-9.22-5.84.21-.54.328-1.12.332-1.718l.117-14.25a4.956 4.956 0 0 0-5.03-4.984c-.09.004-.184.008-.274.014l-5.372.38.363-23.5 5.604-10.433.398-25.75-15.594-.24-.94 60.64-5.467.386c-2.558.176-4.583 2.326-4.61 4.894l-.095 12.586a4.904 4.904 0 0 0 1.415 3.507c.248.255.52.48.81.67-.41.87-.75 1.935-.76 3.177l-.145 18.772c-.024 2.55.918 4.932 2.656 6.7 1.584 1.612 3.695 2.545 5.787 2.562h.132c.283-.004.563-.024.84-.06 1.404 1.048 3.058 1.632 4.728 1.644.063 0 .13 0 .194-.003.266-.002.527-.02.785-.054 1.41 1.045 3.07 1.63 4.747 1.64h.16a7.26 7.26 0 0 0 .8-.056c1.416 1.053 3.077 1.637 4.754 1.64zm8.886-31.252c-.167-.098-.332-.198-.502-.3.17.1.337.202.502.3z"/><g><path fill="#DADADA" d="M58.16 247.07c.25.254.52.48.81.67-.407.87-.75 1.934-.76 3.176l-.144 18.772c-.024 2.55.92 4.932 2.656 6.7 1.583 1.612 3.694 2.545 5.788 2.562h.129a6.8 6.8 0 0 0 .838-.06c1.406 1.048 3.06 1.632 4.73 1.644.066 0 .13 0 .195-.003a6.2 6.2 0 0 0 .786-.052c1.41 1.045 3.068 1.63 4.746 1.64h.16c.272-.002.54-.024.802-.056 1.414 1.05 3.072 1.634 4.75 1.638.057.003.118.003.177 0 1.966-.027 3.758-.83 5.046-2.254.876-.975 1.92-2.685 1.936-5.33l.067-9.205c1.837.307 3.36.54 3.502.56l.048.007.05.005c.257.03.498.04.734.036.043 0 .087 0 .13-.004h.06c4.343-.265 9.097-2.708 9.624-2.985l.023-.014.023-.01a5.04 5.04 0 0 0 2.2-2.373l.02-.04.017-.04c.528-1.28.8-2.533.806-3.73.02-2.807-1.378-4.918-2.697-5.96a4.997 4.997 0 0 0-3.08-1.075h-.14l-.054.002c-.297.008-1.442.028-2.786.047-1.193.02-2.162.033-2.82.038-1.906-.926-7.663-4.57-9.217-5.84a4.91 4.91 0 0 0 .33-1.718l.118-14.25a4.956 4.956 0 0 0-5.306-4.97l-21.007 1.483c-2.557.175-4.583 2.325-4.61 4.893l-.096 12.586a4.893 4.893 0 0 0 1.413 3.51zm34.025 5.327l-.208-.28c.187.11.372.224.556.33l-.348-.05z"/><path fill="#3D5A9B" d="M61.683 245.655l1.11.008-.01 1.306c-.07.16-.27.454-.408.66-.528.816-1.253 1.934-1.265 3.313l-.145 18.766c-.037 3.76 2.855 6.318 5.565 6.338.625 0 1.21-.123 1.736-.353 1.073 1.213 2.553 1.93 3.964 1.937.63.007 1.21-.114 1.74-.346 1.082 1.216 2.552 1.922 3.98 1.93a4.077 4.077 0 0 0 1.73-.354c1.082 1.225 2.548 1.935 3.98 1.94 1.193.012 2.284-.45 3.052-1.303.53-.584 1.175-1.658 1.186-3.402l.094-12.64c2.86.537 6.576 1.112 6.782 1.14.157.017.3.024.442.017 3.76-.227 8.257-2.555 8.448-2.653a2.18 2.18 0 0 0 .952-1.016c.368-.896.58-1.778.583-2.637.012-1.765-.85-3.082-1.594-3.668a2.113 2.113 0 0 0-1.31-.45c-.052.003-4.855.09-6.353.09-1.786-.632-9.97-5.817-11.02-7-.343-.408-.785-1.044-1.235-1.74a2.034 2.034 0 0 0 1.053-1.755l.115-14.24a2.044 2.044 0 0 0-.65-1.504 2.05 2.05 0 0 0-1.545-.55l-21.01 1.483c-1.063.072-1.9.95-1.91 2.028l-.097 12.582a2.058 2.058 0 0 0 2.04 2.07zm34.048 10.682c1.24.013 6.6-.083 6.6-.083l.026.017c.01.007.013.008.032.017.013.02.023.04.047.064.018.005.033.016.048.04.027.027.05.07.086.113a.24.24 0 0 1 .06.068c.025.04.05.074.07.112.022.036.04.068.06.092.037.066.082.137.11.215.018.043.033.084.058.126.022.056.047.11.07.17.012.055.025.098.046.15.03.103.053.213.062.328.017.044.016.1.022.152.01.094.018.18.02.285.002.037.01.067.01.1-.002.028-.005.052-.005.07-.006.05 0 .102-.006.15-.014.086-.02.152-.025.237-.006.074-.025.153-.04.234-.012.056-.016.12-.037.184-.02.123-.06.257-.106.38 0 .033-.01.06-.025.088-.04.153-.113.325-.185.497 0 0-4.258 2.228-7.638 2.434 0 0-6.947-1.072-9.12-1.64 0 0-.098 12.077-.12 15.147-.035 4.488-5.743 2.908-5.705-1.583-.038 4.49-5.748 2.897-5.713-1.593-.035 4.49-5.74 2.903-5.71-1.59-.03 4.493-5.75 2.91-5.71-1.585.016-2.35.096-12.043.15-18.77.007-1.45 1.668-2.762 1.684-3.82-.002-.502 0-.944.003-1.326v-.133l16.572.124c.112.18.226.358.343.536.046.07.096.146.143.224.077.12.163.242.234.358.044.066.088.134.134.2.1.146.19.29.287.423.038.044.066.09.095.133.115.156.216.303.32.442.02.03.045.06.06.087.12.147.228.29.326.41 1.26 1.504 11.126 7.71 12.367 7.72zM61.803 231.02l21.005-1.49-.114 14.234-20.997-.16.106-12.584z"/><path fill="#3D5A9B" d="M65.07 238.43a1.47 1.47 0 0 0-1.135.53 1.47 1.47 0 0 0-.508 1.096 1.48 1.48 0 0 0 1.46 1.497c.445-.002.842-.204 1.115-.514.32-.27.532-.667.538-1.116a1.49 1.49 0 0 0-1.47-1.494z"/><path fill="#DADADA" d="M83.452 165.3l-15.596-.243-.962 62.194 10.157.16.4-25.93 5.603-10.433z"/></g><path fill="#9D9D9C" d="M233.84 305.238l.474-1.542h.004l1.086-3.552 5.08-16.548a5.09 5.09 0 0 0 2.79 2.1c2.662.815 5.47-.627 6.268-3.235.623-2.032-.17-4.17-1.818-5.397l30.57-106.78-2.877-.824-30.515 106.59c-1.907-.09-3.715.896-4.622 2.552l-.095-.03-.266.87c-.007.02-.017.04-.023.06-.006.023-.01.047-.017.07l-6.243 20.345-23.058-2.978 5.146-16.783a5.088 5.088 0 0 0 2.774 2.076c2.66.817 5.465-.633 6.264-3.238.8-2.604-.71-5.378-3.368-6.192-2.372-.724-4.85.336-5.934 2.41l-.055-.018-.108.355a4.72 4.72 0 0 0-.302.986l-6.19 20.175-.03-.005-1.085 3.547.03.003-.474 1.546-.034-.004-1.088 3.554 26.625 3.43 1.088-3.542zm-24.825-3.21l.474-1.544 23.058 2.98-.474 1.545-23.06-2.982z"/><g fill="#DADADA"><path d="M213.955 273.71l-.11.356a4.692 4.692 0 0 0-.303.982l-6.186 20.178-.03-.007-1.087 3.547.027.003-.472 1.544-.036-.003-1.085 3.55 26.625 3.435 1.086-3.543.475-1.542h.007l1.084-3.55 5.08-16.55a5.066 5.066 0 0 0 2.793 2.1c2.66.816 5.467-.626 6.265-3.233.796-2.6-.714-5.375-3.374-6.19-2.333-.72-4.782.31-5.89 2.327l-.092-.026-.268.867c-.005.022-.016.042-.02.063l-.017.066-6.244 20.348-23.06-2.98 5.15-16.78a5.082 5.082 0 0 0 2.772 2.075c2.664.816 5.467-.63 6.266-3.236.798-2.603-.71-5.377-3.368-6.193-2.374-.724-4.852.338-5.933 2.41l-.055-.016zm17.138 28.272l-.472 1.542-23.06-2.98.476-1.543 23.057 2.982z"/><path d="M245.352 278.817l-2.877-.823 31.497-110.033 2.877.824z"/></g><g><path fill="#9D9D9C" d="M27.21 75.415c1.247 1.166 3.653 1.55 6.498 1.123l34.805 79.12 14.268-6.277-16.59-37.712-10.16-5.354L41.624 73.56c3.34-2.08 5.46-4.734 5.44-6.88l7.096-3.12c.95-.417 1.39-1.504.983-2.426L41.483 30.08c-.405-.92-1.503-1.33-2.455-.913L4.982 44.147c-.95.417-1.392 1.502-.987 2.426l13.662 31.053c.405.92 1.504 1.332 2.455.912l7.098-3.123z"/><path fill="#DADADA" d="M80.476 150.66l-14.266 6.28-43.586-99.083 7.726-3.4L53.728 107.6l10.158 5.35z"/><ellipse transform="rotate(-23.748 34.374 71.296)" fill="#DADADA" cx="34.377" cy="71.299" rx="11.084" ry="5.448"/><path fill="#DADADA" d="M52.84 62.415c.404.92-.036 2.01-.986 2.426L17.807 79.82c-.95.418-2.05.008-2.455-.912L1.692 47.854c-.406-.92.035-2.01.985-2.424l34.046-14.98c.95-.418 2.05-.01 2.456.913l13.66 31.052z"/><path fill="#878787" d="M36.562 34.54l12.29 27.944L18.17 75.98 5.878 48.034z"/><path fill="#FFF" d="M35.314 41.216l7.777 17.682-23.67 10.41-7.775-17.682zM13.408 46.167l1.09 2.474-3.626 1.596-1.088-2.474zM20.182 43.188l1.087 2.472-3.63 1.596-1.086-2.472zM26.954 40.207l1.088 2.473-3.628 1.598-1.09-2.473zM33.726 37.23l1.09 2.474-3.627 1.597-1.09-2.472z"/><g><path fill="#FFF" d="M23.53 69.17l1.087 2.47-3.628 1.594-1.086-2.47zM30.3 66.19l1.086 2.472-3.628 1.595-1.087-2.472zM37.072 63.21l1.088 2.472-3.626 1.597-1.088-2.473zM43.843 60.234l1.088 2.47-3.625 1.598-1.088-2.47z"/></g><path fill="#EF3F3F" d="M24.56 62.54a2.01 2.01 0 0 1-2.652-1.032l-2.81-6.39a2.013 2.013 0 0 1 1.032-2.65l10.073-4.432a2.014 2.014 0 0 1 2.653 1.03l2.81 6.39a2.013 2.013 0 0 1-1.032 2.653L24.56 62.54z"/><path fill="#FFF" d="M24.334 53.366l6.244.686-3.715 5.063z"/></g><path fill="#9D9D9C" d="M280.085 158.578l-26.87-116.71 2.32-.535a9.005 9.005 0 0 0 8.722 2.77c4.836-1.114 7.863-5.954 6.75-10.79-.893-3.878-4.186-6.596-7.948-6.94.03-.126.06-.255.085-.38l3.322-16.684s.403-1.868.523-2.493c.467-2.485-.63-4.018-.63-4.018-1.447-2.408-5.05-1.96-7.932-1.295l-30.574 7.04-4.257-3.684a6.622 6.622 0 0 0-3.424-.118l-6.805 1.566a6.676 6.676 0 0 0-5 7.998 6.68 6.68 0 0 0 7.995 5.006l2.19-.507 9.67 15.32c-3.783 1.75-5.96 5.97-4.99 10.186 1.113 4.837 5.954 7.864 10.788 6.75a9.002 9.002 0 0 0 6.635-6.303l3.668-.845 11.42 49.604-4.097 16.1 12.136 52.71 16.303-3.748z"/><g><path fill="#DADADA" d="M262.934 1.82c-1.448-2.405-5.048-1.957-7.932-1.293l-30.572 7.04-4.26-3.683a6.587 6.587 0 0 0-3.422-.12l-6.806 1.567a6.677 6.677 0 0 0-5.003 7.997c.826 3.587 4.414 5.83 7.996 5.006l2.19-.504 9.67 15.32c-3.783 1.748-5.962 5.968-4.99 10.185 1.112 4.836 5.954 7.863 10.788 6.75a9.007 9.007 0 0 0 6.634-6.304l14.878-3.424a9.01 9.01 0 0 0 8.723 2.768c4.835-1.114 7.863-5.953 6.748-10.79-.892-3.876-4.183-6.594-7.948-6.94.035-.126.063-.252.088-.38L263.04 8.33s.404-1.866.522-2.49c.468-2.488-.628-4.02-.628-4.02z"/><path fill-rule="evenodd" clip-rule="evenodd" fill="#34B269" d="M255.457 24.167L258.78 7.48h-.004a2.26 2.26 0 0 0-.01-.975 2.328 2.328 0 0 0-2.79-1.746L222.4 12.49l-2.19-3.468-.007.004a2.32 2.32 0 0 0-2.48-1.032l-6.807 1.566a2.325 2.325 0 0 0-1.742 2.79 2.324 2.324 0 0 0 2.787 1.745l5.197-1.196 14.472 22.936-4.098.943a4.657 4.657 0 0 0-3.493 5.58 4.656 4.656 0 0 0 5.58 3.49 4.657 4.657 0 0 0 3.49-5.58l21.165-4.872a4.654 4.654 0 1 0 3.49-5.58l-21.333 4.91-1.876-2.973 19.292-5.816a2.32 2.32 0 0 0 1.61-1.773zm-23.477 3.507l-6.948-11.012 28.48-6.56-2.346 11.785-19.186 5.787z"/><path fill="#DADADA" d="M260.358 161.35l16.3-3.75-27.39-118.973-8.893 2.047 11.942 51.866-4.096 16.1z"/></g><path fill="#9D9D9C" d="M140.67 250.785c-11.917 10.317-13.215 28.342-2.898 40.26 10.317 11.916 28.34 13.212 40.257 2.895 10.07-8.716 12.556-22.935 6.862-34.325l95.51-82.685-12.306-14.22-41.148 35.624-10.498 17.282-39.55 34.238c-10.53-8.23-25.743-8.147-36.23.93zm34.237 8.11c7.437 8.592 6.502 21.586-2.09 29.025-8.592 7.438-21.585 6.5-29.022-2.09-7.438-8.59-6.502-21.587 2.09-29.024 8.59-7.437 21.584-6.502 29.022 2.09z"/><path fill="#DADADA" d="M138.98 249.684c-11.92 10.317-13.217 28.34-2.9 40.258 10.315 11.917 28.34 13.216 40.258 2.9 10.07-8.72 12.556-22.938 6.86-34.326l95.514-82.687-12.31-14.218-41.147 35.622-10.495 17.282-39.552 34.24c-10.532-8.232-25.743-8.15-36.23.928zm34.234 8.112c7.438 8.59 6.502 21.583-2.09 29.022-8.59 7.438-21.585 6.502-29.022-2.09-7.438-8.59-6.504-21.583 2.09-29.022 8.59-7.44 21.584-6.504 29.022 2.09z"/><circle opacity=".8" fill="#DCFBFF" cx="157.754" cy="271.373" r="20.428"/><path fill="#9D9D9C" d="M35.436 216.436c3.49-2.205 4.85-6.618 3.394-10.356l.133-.083-6.605-10.454 17.022-10.39 9.64-.683 17.933-10.946-6.628-10.863-42.394 25.876-5.785-9.157-.795-1.217-.15.094c-3.596-3.84-9.524-4.676-14.077-1.798-5.193 3.28-6.75 10.173-3.47 15.366a11.056 11.056 0 0 0 2.522 2.802c-2.184 4.423-1.934 9.616.744 13.854a14.18 14.18 0 0 0 16.998 5.713c2.617 3.647 7.675 4.67 11.518 2.24z"/><g><path fill="#DADADA" d="M75.018 172.557l-6.63-10.863-43.318 26.44 4.318 7.074 18.057-11.023 9.64-.683z"/><path fill="#9D9D9C" d="M5.962 176.72c-4.523 2.856-5.872 8.84-3.015 13.364a9.677 9.677 0 0 0 3.2 3.13c-2.48 4.016-2.628 9.26.065 13.524 3.507 5.55 10.588 7.47 16.356 4.658a7.103 7.103 0 1 0 12.45-6.816l.003-.005-16.04-25.388-.02.014a9.685 9.685 0 0 0-12.998-2.483z"/><path fill="#DADADA" d="M20.21 178.41l16.817 26.62-.133.082c1.456 3.737.097 8.15-3.394 10.356-3.842 2.43-8.9 1.406-11.518-2.24a14.182 14.182 0 0 1-16.998-5.714c-2.677-4.238-2.928-9.43-.745-13.853a11.08 11.08 0 0 1-2.522-2.802c-3.282-5.193-1.726-12.087 3.468-15.367 4.553-2.877 10.482-2.04 14.076 1.8l.15-.095.798 1.216zm13.48 26.777L17.973 180.31l-.187-.254c-2.542-3.49-7.394-4.418-11.047-2.11-3.84 2.427-4.99 7.522-2.564 11.36a8.124 8.124 0 0 0 2.72 2.66l1.262.756-.775 1.253c-2.292 3.71-2.27 8.303.058 11.985a11.28 11.28 0 0 0 14.49 4.13l1.295-.632.642 1.29a5.653 5.653 0 0 0 8.08 2.264c2.576-1.626 3.394-5.074 1.826-7.685l-.083-.14z"/><path fill="#DADADA" d="M13.117 196.296l-9.238 5.836 3.94 6.236 9.237-5.836 2.455 3.885 3.858-12.236-12.705-1.767z"/></g><path fill="#FFF" d="M148.44 281.978c.36-2.543 4.384-4.075 8.984-3.42 4.602.655 8.036 3.25 7.674 5.792-.36 2.547-4.384 4.078-8.986 3.424-4.6-.657-8.035-3.25-7.673-5.796z"/><path fill="#2A5CA6" d="M294.334 155.23c0 16.36-13.26 29.622-29.62 29.622H78.166c-16.36 0-29.622-13.26-29.622-29.623 0-16.36 13.263-29.622 29.622-29.622h186.547c16.36 0 29.62 13.262 29.62 29.62z"/><g opacity=".7"><g fill="#FFF"><path d="M243.192 155.36l-.552-.55a6.362 6.362 0 0 1-1.594-6.33 3.84 3.84 0 1 1 4.64-4.367 6.358 6.358 0 0 1 5.955 1.695l.22.22-2.832 2.832-.22-.22c-.92-.918-2.41-.918-3.33.002a2.36 2.36 0 0 0-.006 3.333l.555.554 2.832 2.83 2.998 2.996-2.833 2.833-2.998-2.997-2.835-2.832"/><path d="M246.362 152.193l3-2.997 2.833-2.83.553-.553a6.364 6.364 0 0 1 6.297-1.608 3.84 3.84 0 1 1 4.31 4.337 6.36 6.36 0 0 1-1.615 6.26l-.22.223-2.83-2.835.217-.218c.92-.92.92-2.412 0-3.33a2.35 2.35 0 0 0-3.326.004l-.552.552-2.833 2.833-2.998 2.996-2.835-2.833"/></g><g fill="#FFF"><path d="M259.123 166.49c-2.18.67-4.65.142-6.375-1.582l-.216-.217 2.832-2.834.217.22c.92.92 2.412.92 3.333 0a2.35 2.35 0 0 0-.006-3.328l-.553-.554-2.832-2.834-2.992-2.996 2.834-2.832 2.99 2.993 2.83 2.834.556.556a6.36 6.36 0 0 1 1.685 6.005 3.84 3.84 0 1 1-4.302 4.57"/><path d="M258.017 158.53l-2.99 2.993-2.832 2.834-.554.557a6.36 6.36 0 0 1-6.037 1.673 3.842 3.842 0 0 1-7.583-.862 3.843 3.843 0 0 1 2.953-3.737 6.352 6.352 0 0 1 1.667-6.074l.217-.216 2.833 2.83-.22.22c-.92.92-.92 2.408.002 3.33a2.36 2.36 0 0 0 3.334.004l.555-.556 2.832-2.832 2.992-2.996 2.833 2.832"/></g></g><path opacity=".1" fill="#FFF" d="M78.167 131.343h186.547c15.39 0 28.04 11.74 29.48 26.753.09-.943.14-1.9.14-2.867 0-16.36-13.26-29.622-29.62-29.622H78.166c-16.36 0-29.622 13.26-29.622 29.62 0 .97.05 1.925.14 2.868 1.443-15.013 14.09-26.753 29.482-26.753z"/><path fill="#C6C6C6" d="M48.925 150.497a29.798 29.798 0 0 0-.38 4.732c0 1.896.184 3.75.525 5.547h13.264v-10.28h-13.41z"/><path opacity=".1" d="M294.334 155.23c0-2.595-.334-5.11-.96-7.51-3.326 12.725-14.896 22.115-28.66 22.115H78.166c-13.767 0-25.336-9.39-28.66-22.114a29.74 29.74 0 0 0-.962 7.51c0 16.36 13.263 29.622 29.622 29.622h186.547c16.36 0 29.62-13.26 29.62-29.623z"/><path opacity=".1" d="M60.347 150.497h1.856v10.282h-1.856z"/></svg>