<svg xmlns="http://www.w3.org/2000/svg" width="412.408" height="229.413" viewBox="0 0 412.408 229.413"><ellipse fill="#E6E6E6" cx="244.007" cy="216.413" rx="168.401" ry="13"/><path fill="#FCD22E" d="M110.21 129.895c-.835-.04-55.507-9.22-55.507-9.22l4.523 6.02-27.172-2.182s6.043 5.97 4.312 5.69C34.643 129.93 0 132.224 0 132.224l55.5 9.845-4.424-5.875 27.492 2.683-4.74-6.312 36.383-2.67zM99.868 165.06c-.5-.025-33.208-5.517-33.208-5.517l2.707 3.602-16.258-1.305s3.616 3.57 2.58 3.405c-1.03-.168-21.756 1.208-21.756 1.208l33.202 5.89-2.645-3.515 16.446 1.605-2.834-3.778 21.766-1.596zM99.868 94.73c-.5-.025-33.208-5.516-33.208-5.516l2.707 3.602L53.11 91.51s3.616 3.57 2.58 3.405c-1.03-.166-21.756 1.208-21.756 1.208l33.202 5.89L64.49 98.5l16.446 1.603-2.834-3.777 21.766-1.597zM122.622 194.02c-.386-.02-25.618-4.256-25.618-4.256l2.088 2.78-12.54-1.01s2.788 2.756 1.99 2.627c-.794-.125-16.784.932-16.784.932l25.613 4.547-2.04-2.712 12.688 1.236-2.188-2.912 16.792-1.233zM122.622 65.768c-.386-.018-25.618-4.254-25.618-4.254l2.088 2.78-12.54-1.01s2.788 2.754 1.99 2.628c-.794-.127-16.784.93-16.784.93L97.37 71.39l-2.04-2.71 12.688 1.235L105.83 67l16.792-1.232z"/><path fill="#F2F2F2" d="M388.484 210.398a5.873 5.873 0 0 1-5.87 5.877H131.32a5.877 5.877 0 0 1-5.873-5.877V5.878c0-3.246 2.63-5.878 5.872-5.878h251.29a5.873 5.873 0 0 1 5.872 5.88v204.518z"/><path fill="#444" d="M388.484 23.504V5.88a5.873 5.873 0 0 0-5.87-5.88H131.32a5.878 5.878 0 0 0-5.873 5.88v17.624h263.034z"/><circle fill="#2CB740" cx="138.29" cy="12.064" r="4.652"/><path fill="#F16442" d="M157.11 12.064a4.65 4.65 0 0 1-9.3 0 4.65 4.65 0 0 1 9.3 0z"/><path fill="#FFF" d="M378.785 11.785a4.654 4.654 0 0 1-4.65 4.65h-209.45a4.657 4.657 0 0 1-4.65-4.65 4.658 4.658 0 0 1 4.65-4.652h209.45a4.654 4.654 0 0 1 4.65 4.652z"/><path opacity=".2" fill="#444" d="M174.842 35.413a3.018 3.018 0 0 0 3.016 3.012h200.41a3.01 3.01 0 0 0 0-6.02h-200.41a3.014 3.014 0 0 0-3.016 3.008z"/><path fill="#CCC" d="M168.273 35.413a4.386 4.386 0 0 1-4.386 4.385H137.06a4.382 4.382 0 0 1-4.377-4.385 4.375 4.375 0 0 1 4.377-4.377h26.827a4.38 4.38 0 0 1 4.386 4.377z"/><path opacity=".3" d="M125.45 52.512h253.335v69.642H125.45z"/><path fill="#36AAD8" d="M110.258 46.33h264.596v71.385H110.258z"/><path opacity=".2" fill="#444" d="M133.443 176.47h77.205v31.86h-77.205zM219.492 176.47h77.21v31.86h-77.21zM304.076 176.47h77.203v31.86h-77.204z"/><g opacity=".2" fill="#444"><path d="M297.46 131.968c0 1.445-1.24 2.622-2.76 2.622H135.45c-1.528 0-2.767-1.176-2.767-2.622 0-1.455 1.238-2.632 2.766-2.632H294.7c1.52 0 2.76 1.178 2.76 2.632zM297.46 143.703c0 1.453-1.24 2.63-2.76 2.63H135.45c-1.528 0-2.767-1.177-2.767-2.63 0-1.453 1.238-2.626 2.766-2.626H294.7c1.52 0 2.76 1.173 2.76 2.626zM297.46 155.282c0 1.45-1.24 2.623-2.76 2.623H135.45c-1.528 0-2.767-1.172-2.767-2.623 0-1.45 1.238-2.622 2.766-2.622H294.7c1.52 0 2.76 1.173 2.76 2.622zM297.46 166.85c0 1.45-1.24 2.628-2.76 2.628H135.45c-1.528 0-2.767-1.177-2.767-2.628 0-1.45 1.238-2.624 2.766-2.624H294.7c1.52 0 2.76 1.173 2.76 2.624z"/></g><g fill="#FFF"><path d="M259.71 64.742c0 1.452-1.24 2.624-2.763 2.624H199.05c-1.53 0-2.77-1.172-2.77-2.624 0-1.45 1.24-2.63 2.77-2.63h57.897c1.524 0 2.762 1.18 2.762 2.63zM303.29 76.48c0 1.456-1.24 2.63-2.765 2.63H199.05c-1.53 0-2.77-1.175-2.77-2.63 0-1.453 1.24-2.625 2.77-2.625h101.476c1.523 0 2.763 1.17 2.763 2.624zM303.29 88.06c0 1.452-1.24 2.622-2.765 2.622H199.05c-1.53 0-2.77-1.17-2.77-2.622 0-1.448 1.24-2.622 2.77-2.622h101.476c1.523 0 2.763 1.174 2.763 2.622zM303.29 99.625c0 1.457-1.24 2.628-2.765 2.628H199.05c-1.53 0-2.77-1.17-2.77-2.628 0-1.446 1.24-2.624 2.77-2.624h101.476c1.523 0 2.763 1.178 2.763 2.625z"/></g><g opacity=".2" fill="#444"><path d="M381.28 131.968c0 1.445-1.264 2.622-2.812 2.622h-70.422c-1.55 0-2.808-1.176-2.808-2.622 0-1.455 1.26-2.632 2.808-2.632h70.422c1.55 0 2.81 1.178 2.81 2.632zM381.28 143.703c0 1.453-1.264 2.63-2.812 2.63h-70.422c-1.55 0-2.808-1.177-2.808-2.63 0-1.453 1.26-2.626 2.808-2.626h70.422c1.55 0 2.81 1.173 2.81 2.626zM381.28 155.282c0 1.45-1.264 2.623-2.812 2.623h-70.422c-1.55 0-2.808-1.172-2.808-2.623 0-1.45 1.26-2.622 2.808-2.622h70.422c1.55 0 2.81 1.173 2.81 2.622zM381.28 166.85c0 1.45-1.264 2.628-2.812 2.628h-70.422c-1.55 0-2.808-1.177-2.808-2.628 0-1.45 1.26-2.624 2.808-2.624h70.422c1.55 0 2.81 1.173 2.81 2.624z"/></g><path fill="#FFF" d="M371.148 117.67a42.645 42.645 0 0 0 3.733-2.255v-6.084a36.93 36.93 0 0 1-6.455 4.27l-7.65-16.884 14.106-6.396v-4.3l-15.728 7.122-5.105-11.267 19.867-9c.344.793.662 1.59.968 2.39v-8.778a67.52 67.52 0 0 0-6.386-9.403l6.386-2.893v-7.815h-10.589a37.03 37.03 0 0 1 8.473 4.467l-6.908 3.13c-2.484-2.787-5.076-5.316-7.615-7.597h-5.887c3.088 2.663 6.504 5.73 9.812 9.266l-16.6 7.524-7.52-16.585c.19-.073.377-.138.56-.205h-10.577C311.51 57.557 304.944 79.33 313.456 98.12a41.57 41.57 0 0 0 18.29 19.553h19.704c-3.7-3.202-7.85-6.972-11.714-11.42l17.463-7.915 7.65 16.884a36.828 36.828 0 0 1-11.072 2.45h17.37zm-6.255-58.96c2.697 3.19 5.215 6.722 7.305 10.635l-19.768 8.952-5.24-11.562 17.703-8.024zm-16.038 21.21l-19.768 8.96c-1.568-4.146-2.56-8.37-3.184-12.5l17.71-8.025 5.242 11.566zM324.94 55.305a36.595 36.595 0 0 1 9.542-7.108l7.51 16.59-16.598 7.52c-.62-6.26-.52-12.143-.455-17.002zm-3.93 4.83c-.047 4.303.102 8.996.693 13.84l-6.902 3.13a37.03 37.03 0 0 1 6.21-16.97zm-6.4 21.365l7.696-3.49c.72 4.118 1.8 8.297 3.383 12.404l-8.556 3.885a36.54 36.54 0 0 1-2.523-12.8zm4.138 16.368l8.477-3.84c1.808 3.86 4.064 7.39 6.537 10.617l-7.32 3.32a36.67 36.67 0 0 1-7.694-10.097zm26.863 19.41a36.996 36.996 0 0 1-15.78-6.543l6.492-2.94c3.008 3.518 6.222 6.656 9.29 9.483zm-8.45-14.174c-2.477-3.208-4.732-6.733-6.553-10.608l19.87-9 5.106 11.265-18.423 8.344z"/><circle opacity=".2" fill="#444" cx="154.083" cy="84.84" r="25.17"/><circle fill="#EABC28" cx="154.083" cy="82.771" r="25.17"/><path opacity=".15" fill="#FFF" d="M171.835 64.933c-10.685 10.29-25.94 25.095-36.132 34.997 4.595 4.918 11.12 8.012 18.38 8.012 13.9 0 25.17-11.27 25.17-25.17a25.084 25.084 0 0 0-7.418-17.84z"/><circle opacity=".2" fill="#444" cx="154.083" cy="82.771" r="17.333"/><path opacity=".2" fill="#444" d="M158.744 20.885H125.45v9.992h1.82c2.813 0 1.868 2.415.034 2.415-.037 0-.064.004-.102.004h-1.754v10.26h5.795c2.394.38 1.44 2.06.46 2.065h-6.255v.797l-15.19-.088v8.945h16.42c-2.542 10.945 6.587 20.532 13.925 26.245a13.328 13.328 0 0 0-.477 3.49c0 7.426 6.02 13.446 13.447 13.446 7.425 0 13.445-6.02 13.445-13.445 0-7.425-6.02-13.445-13.445-13.445-.39 0-.773.026-1.152.06a539 539 0 0 1-.645-7.264c-2.068-24.82 17.902-20.166 18.734-31.968.822-11.662-11.766-11.507-11.766-11.507z"/><path fill="#FCD22E" d="M158.744 18.817H29.285c-2.76 0-4.998 2.238-4.998 5s2.237 4.998 4.998 4.998h3.62c3.81 0 73.994-.006 94.365-.006 2.813 0 1.868 2.414.034 2.414-.037 0-.064.004-.102.004H54.585a5.132 5.132 0 0 0 0 10.26h76.66c2.393.378 1.438 2.06.458 2.066h-62.94a4.827 4.827 0 0 0 0 9.653h57.915c-2.54 10.944 6.588 20.532 13.926 26.245a13.317 13.317 0 0 0-.477 3.49c0 7.427 6.02 13.447 13.447 13.447 7.425 0 13.445-6.022 13.445-13.447s-6.022-13.445-13.446-13.445c-.39 0-.773.026-1.152.058-.19-1.938-.4-4.316-.646-7.262-2.068-24.823 17.902-20.168 18.734-31.97.822-11.662-11.766-11.507-11.766-11.507z"/><ellipse fill="#FCD22E" cx="171.318" cy="45.385" rx=".098" ry=".065"/><path opacity=".1" fill="#444" d="M164.54 90.703c-7.06 6.298-22.945 4.08-20.59-12.766-16.807-16.16-12.67-20.335-11.267-26.762-6.076 0-65.27-.26-65.27-.26s-3.05-.64-3.02-4.563c-.287.62-.46 1.3-.46 2.03a4.827 4.827 0 0 0 4.827 4.825h57.916c-2.54 10.944 6.588 20.532 13.926 26.245a13.317 13.317 0 0 0-.477 3.49c0 7.427 6.02 13.447 13.447 13.447 4.534-.002 8.533-2.252 10.97-5.687z"/></svg>