<svg xmlns="http://www.w3.org/2000/svg" width="185.623" height="94.195" viewBox="0 0 185.623 94.195"><path fill="#76D9FC" d="M185.623 94.028c-2.08-49.467-42.83-88.934-92.806-88.934S2.08 44.562 0 94.028h185.623z"/><path fill-rule="evenodd" clip-rule="evenodd" fill="#00A936" d="M47.213 89.845c.15.136.247.35.38.373h.195c.924.263 1.825-.67 1.123-.73-.274-.05-.81.02-1.697.357zM68.73 81.733c-1.47.25-1.825 1.233 1.337 3.405.392-.106 3.11-.72 1.515.926 4.91-2.928-.343-4.776-2.852-4.33zM68.73 60.748c5.288-2.15 6.507-16.076.21-15.666-.407 0-.816.204-1.332.396 2.635 4.86-3.443 11.045 1.122 15.27zM129.43 72.283c.42-2.904-4.2-5.042-6.282-4.922-1.213.085-1.448.95.79 3.04-2.092 4.945 3.49 5.21 5.493 1.883zM82.157 36.03c1.525-.71 2.257-3.24 0-3.24-.41-.11-.715-.217-1.124-.193-.406.013-.815.157-1.113.193-4.46.89-3.105 8.28 2.237 3.24z"/><path fill-rule="evenodd" clip-rule="evenodd" fill="#00A936" d="M88.405 34.3c-6.452.816-12.963 7.05-6.963 13.218 4.3 5.367-6.205 16.316 3.763 19.126 3.956-8.85 14.78-15.86 12.104-26.65-1.12-4.6-5.015-6.185-8.905-5.693z"/><path fill="#00A936" d="M41.3 94.028c1.897-2.217 4.047-4.102 6.88-4.72 4.22-3.662 15.636.273 11.506-7.204 4.08-3.88 16.056-3.747 10.197-12.822-1.964-8.847-12.84-13.12-16.415-3.048-9.845 2.64-5.875-18.717 4.14-15.87 7.263.42 6.274-5.894 1.874-7.923 0-.31-.096-.482-.372-.204-.805-.3-1.65-.61-2.642-.563-9.818-5.426 9.825-19.257-3.188-23.638C39 30.233 17.22 49.425 8.5 67.36 5.427 76.14 5.154 84.96 5.4 94.03h35.9zM101.448 15.048c3.044 9.783 21.274.19 20.397 11.126.143.157.42.41.574.59-.29.214.21 2.208.576.54 3.15 3.566 9.78 10.962 2.82 10.037-9.226-1.262-6.825 16.914-.18 20.215 6.332 3.408 9.893-3.433 3.387-6.796-.88-8.523 14.205 5.233 7.55 9.795-.266.183-.48.396-.738.588.306-1.223-.438-.07-.415.207-7.568 5.484-3.253 18.4-6.193 27.008-1.268 2.812-1.148 4.638-.29 5.67h6.53c2.86-1.53 5.245-4.592 4.13-8.322-3.356-8.428 13.957-4.586 10.212-10.577 10.497 5.57 9.505-9.386 5.12-14.38 2.046-7.996 7.44.935 4.89 5.29.415 4.12 3.967 5.07 6.817 6.244.13.096.277.11.558.18 2.493 1.19 3.987 2.714 1.298 7.396-3.084 10.396-13.54 10.973-22.088 9.05-2.722 1.128-4.744 2.942-6.393 5.12h45.576c-.07-1.21-.16-2.415-.26-3.618-.064-.625-.113-1.26-.185-1.883-5.308 2.904-14.75-13.075-5.093-5.478 1.887-.13 3.074-.672 3.97-1.488-1.116-5.82-2.628-11.464-4.747-16.844-.95-1.127-1.862-2.183-2.64-2.818.064-1.163-.052-2.28-.19-3.396-.047-.06.056-.145 0-.203C161.3 27.135 129.333 5.61 92.373 5.61c-2.52 0-5.083.154-7.573.36-1.29.276-2.72.444-4.173.577a20.75 20.75 0 0 0-1.49.19c-5.214.736-10.197 1.646-15.094 3.196 12.772-.936 25.888-.602 37.405 5.115z"/><g opacity=".2" fill="#010000"><path d="M4.43 69.366c-.025.073-.043.12-.06.18.857-.046 1.62-.106 1.62-.18H4.43z"/><path d="M14.16 94.028h2.77c.356-9.802 1.994-19.208 4.738-27.974 2.982-.363 6.534-.734 10.768-1.105 7.478-.64 16.025-1.14 25.242-1.503-1.502 9.655-2.366 19.958-2.54 30.58h2.77c.178-10.673 1.056-21.03 2.598-30.686 9.677-.337 20.036-.53 30.653-.54v31.228h2.774V62.8a923.75 923.75 0 0 1 30.67.562c1.53 9.647 2.4 19.994 2.58 30.666h2.773c-.17-10.613-1.038-20.916-2.538-30.568 9.056.36 17.455.863 24.81 1.49 4.45.384 8.142.78 11.22 1.16 2.732 8.756 4.358 18.14 4.705 27.918h2.783c-.335-9.613-1.873-18.855-4.463-27.508 10.725 1.55 12.13 2.954 12.28 3.146-.03-.023-.086-.133-.086-.3h2.533c-.2-.6-.4-1.2-.612-1.802-1.116-1.03-3.39-1.873-7.134-2.677-2.188-.467-4.834-.925-7.92-1.33-3.575-10.794-8.784-20.612-15.268-29.006 6.506 1.673 11.692 3.63 15.28 5.68a98.29 98.29 0 0 0-4.44-5.198c-3.714-1.46-7.802-2.65-11.634-3.59-.702-.18-1.415-.335-2.124-.502-9.903-11.55-22.347-20-36.218-24.032a93.034 93.034 0 0 0-18.318-1.813c-6.963 0-13.746.794-20.28 2.247C59.25 11.53 47.317 19.777 37.766 30.917c-.75.178-1.498.347-2.227.526-3.504.854-7.222 1.923-10.673 3.22a95.124 95.124 0 0 0-4.327 4.98c3.543-1.85 8.38-3.6 14.3-5.126-6.472 8.393-11.68 18.186-15.264 28.98-3.278.43-6.075.897-8.36 1.39-2.68.578-4.605 1.167-5.89 1.85a50.86 50.86 0 0 0-.75 2.197c2.63-.614 7.272-1.514 14.067-2.476-2.595 8.67-4.146 17.93-4.484 27.57zm131.704-60.542c7.054 8.415 12.738 18.486 16.615 29.676-2.444-.303-5.103-.566-7.995-.842-8.044-.72-17.377-1.298-27.527-1.694-1.795-10.468-4.364-20.12-7.62-28.46-.35-.902-.71-1.787-1.084-2.667 10.126.853 19.51 2.185 27.61 3.986zm-3.128-3.52c-7.748-1.52-16.462-2.674-25.784-3.394-4.034-8.67-8.722-14.973-13.8-18.62 15.06 2.546 28.72 10.433 39.584 22.015zm-48.8-22.84c7.22.753 14.102 7.466 19.83 19.217-6.392-.42-13.05-.66-19.83-.685V7.125zm0 21.353c7.273.023 14.38.288 21.18.782a99.327 99.327 0 0 1 1.65 3.947c3.132 8.007 5.606 17.25 7.36 27.308a917.568 917.568 0 0 0-30.19-.536V28.48zm-2.776 31.5c-10.478.013-20.658.19-30.185.526 1.747-10.057 4.227-19.29 7.363-27.298a85.272 85.272 0 0 1 1.646-3.96c6.794-.48 13.913-.746 21.175-.77V59.98zm0-34.322c-6.78.023-13.43.25-19.83.685C77.065 14.593 83.95 7.88 91.16 7.125v18.533zM81.947 7.95c-5.08 3.65-9.76 9.952-13.8 18.622-9.316.72-18.024 1.846-25.773 3.375C53.25 18.373 66.894 10.487 81.947 7.95zm-42.7 25.513c8.108-1.79 17.48-3.123 27.605-3.964-.38.865-.744 1.753-1.1 2.666-3.248 8.34-5.81 17.97-7.61 28.45-10.316.382-19.802.973-27.964 1.704-2.71.254-5.227.518-7.545.79 3.886-11.175 9.573-21.244 16.615-29.647z"/></g><g><path fill="#FCECD2" d="M69.917 94.028v-50.29a4.253 4.253 0 0 0-4.253-4.254H35.46L22.15 52.798v41.23h47.77z"/><path opacity=".1" fill="#3C3C3B" d="M22.148 52.798l11.835-1.03L22.148 63.37z"/><path fill="#D3BD9F" d="M31.208 52.798h-9.06L35.46 39.485v9.06a4.25 4.25 0 0 1-4.252 4.253z"/><path opacity=".3" fill="#3C3C3B" d="M40.9 53.737h24.442v2.978H40.9zM40.9 46.142h24.442v2.978H40.9zM27.823 61.01h37.52v2.98h-37.52zM27.823 68.225h37.52v2.98h-37.52zM27.823 75.592h18.76v2.977h-18.76zM27.823 82.538h18.76v2.978h-18.76zM27.823 89.21h18.76v2.977h-18.76z"/><path fill="#D60929" d="M57.264 75.96c-.602 0-1.187.066-1.75.19v7.88c0 .968.788 1.755 1.753 1.755.967 0 1.754-.787 1.754-1.754 0-.924-.724-1.687-1.636-1.747V80.88a3.163 3.163 0 0 1 3.04 3.15c0 1.74-1.42 3.156-3.157 3.156s-3.154-1.417-3.154-3.155v-7.433c-.2.085-.395.18-.585.277v7.156c0 2.06 1.68 3.74 3.74 3.74 2.06 0 3.74-1.68 3.74-3.74a3.746 3.746 0 0 0-3.624-3.737v-1.4a5.15 5.15 0 0 1 5.025 5.138 5.153 5.153 0 0 1-5.144 5.145 5.154 5.154 0 0 1-5.143-5.144v-6.225a8.067 8.067 0 1 0 13.205 6.22 8.06 8.06 0 0 0-8.064-8.065z"/></g><path opacity=".2" fill="#464646" d="M65.58 39.26H35.378L22.065 52.573v41.23H70V43.515c0-2.35-2.07-4.255-4.42-4.255z"/><g><path fill="#FCECD2" d="M152.554 94.028v-50.29a4.253 4.253 0 0 0-4.254-4.254h-30.203l-13.312 13.313v41.23h47.77z"/><path opacity=".1" fill="#3C3C3B" d="M104.784 52.798l11.836-1.03-11.836 11.603z"/><path fill="#D3BD9F" d="M113.845 52.798h-9.06l13.31-13.313v9.06a4.25 4.25 0 0 1-4.25 4.253z"/><path opacity=".3" fill="#3C3C3B" d="M123.536 53.737h24.443v2.978h-24.444zM123.536 46.142h24.443v2.978h-24.444zM110.46 61.01h37.52v2.98h-37.52zM110.46 68.225h37.52v2.98h-37.52zM110.46 75.592h18.76v2.977h-18.76zM110.46 82.538h18.76v2.978h-18.76zM110.46 89.21h18.76v2.977h-18.76z"/><path fill="#D60929" d="M139.9 75.96c-.603 0-1.187.066-1.75.19v7.88c0 .968.788 1.755 1.753 1.755.966 0 1.754-.787 1.754-1.754 0-.924-.725-1.687-1.637-1.747V80.88a3.162 3.162 0 0 1 3.038 3.15 3.16 3.16 0 0 1-3.155 3.156 3.16 3.16 0 0 1-3.155-3.155v-7.433c-.198.085-.394.18-.585.277v7.156c0 2.06 1.682 3.74 3.74 3.74 2.06 0 3.74-1.68 3.74-3.74a3.746 3.746 0 0 0-3.623-3.737v-1.4a5.15 5.15 0 0 1 5.025 5.138c0 2.834-2.31 5.145-5.143 5.145s-5.143-2.31-5.143-5.144v-6.225a8.055 8.055 0 0 0-2.93 6.22 8.067 8.067 0 0 0 16.133 0 8.06 8.06 0 0 0-8.064-8.065z"/></g><path opacity=".2" fill="#464646" d="M148.16 39.65h-30.205l-13.312 13.314v41.23h47.936V43.906c0-2.35-2.07-4.255-4.42-4.255z"/><path opacity=".3" fill="#464646" d="M51.09 39.676l-8.528 54.352h18.75zM123.562 94.028l10.22-54.352 8.53 54.352"/><g><path fill="#FCECD2" d="M133.985 94.028V7.333A7.33 7.33 0 0 0 126.655 0H74.587l-22.95 22.95V94.03h82.348z"/><path opacity=".1" fill="#3C3C3B" d="M51.638 22.95l20.4-1.777-20.4 20.006z"/><path fill="#D3BD9F" d="M67.255 22.95H51.638L74.588 0v15.618a7.33 7.33 0 0 1-7.333 7.333z"/><path opacity=".3" fill="#3C3C3B" d="M83.964 24.57H126.1v5.134H83.965zM83.964 11.476H126.1v5.133H83.965zM61.42 37.108h64.68v5.134H61.42zM61.42 49.546h64.68v5.135H61.42zM61.42 62.244h32.34v5.133H61.42zM61.42 74.22h32.34v5.133H61.42zM61.42 85.722h32.34v5.132H61.42z"/><path fill="#D60929" d="M112.173 62.88a13.93 13.93 0 0 0-3.016.33v13.584a3.026 3.026 0 0 0 3.02 3.023 3.027 3.027 0 0 0 3.024-3.023 3.03 3.03 0 0 0-2.82-3.014v-2.42a5.45 5.45 0 0 1 5.237 5.434c0 2.997-2.443 5.44-5.44 5.44s-5.438-2.443-5.438-5.44V63.98a15 15 0 0 0-1.01.478v12.335c.003 3.552 2.9 6.45 6.448 6.45 3.553 0 6.448-2.898 6.448-6.45 0-3.482-2.788-6.335-6.246-6.44v-2.42c4.79.108 8.663 4.048 8.663 8.86 0 4.884-3.982 8.867-8.865 8.867s-8.865-3.983-8.865-8.867v-10.73a13.88 13.88 0 0 0-5.05 10.72c0 7.684 6.228 13.91 13.91 13.91s13.905-6.227 13.905-13.91c0-7.68-6.224-13.904-13.905-13.904z"/></g></svg>