<svg xmlns="http://www.w3.org/2000/svg" width="52.996" height="59.963" viewBox="0 0 52.996 59.963"><path fill="#EEE" d="M51.198 59.963L51.133 0H0v59.963z"/><path fill="#CAC8C8" d="M2.214 3.24h.444V58.14h-.444zM11.302 3.235h.44v54.9h-.44zM20.205 3.227h.437v54.9h-.437zM29.76 58.115l-.435.003-.066-54.9h.44zM39.47 3.212h.442v54.895h-.442z"/><path fill="#CAC8C8" d="M0 55.87h46.79v.404H0zM0 47.632h46.773v.396H0zM46.77 39.25L0 39.292l-.002-.403 46.77-.043zM0 30.625h46.763v.398H0zM0 22.55h46.758v.4H0zM0 14.304h46.743v.4H0zM0 5.074h46.735v.396H0z"/><path fill="#F14941" d="M42.487 7.98c-.358-.213-.842-.134-1.088.196L21.21 35.314 0 28.204v1.512l21.815 7.313 20.88-28.063c.24-.326.152-.768-.208-.987z"/><path fill="#EEE" d="M0 27.033v3.24c.383-.452.62-1.01.62-1.623 0-.612-.237-1.168-.62-1.617z"/><path fill="#F14941" d="M0 26.038v5.234c.85-.62 1.403-1.557 1.4-2.622 0-1.06-.552-1.994-1.4-2.612z"/><path fill="#EEE" d="M23.587 35.463c0 1.472-1.31 2.665-2.934 2.665-1.623.002-2.94-1.185-2.943-2.66-.007-1.472 1.313-2.665 2.932-2.665 1.625-.005 2.94 1.185 2.945 2.66z"/><path fill="#F14941" d="M20.653 38.84c-2.055 0-3.723-1.51-3.723-3.37 0-.9.387-1.752 1.088-2.39.696-.638 1.635-.99 2.623-.992 2.057 0 3.725 1.51 3.725 3.375.006.903-.384 1.748-1.085 2.386-.7.634-1.638.99-2.627.99zm0-5.335a2.26 2.26 0 0 0-1.533.574 1.87 1.87 0 0 0-.63 1.388c0 1.083.973 1.956 2.163 1.956v.704-.704c.574 0 1.115-.21 1.524-.575.406-.37.63-.868.63-1.387-.002-1.077-.972-1.958-2.154-1.958zM36.835 10.418l6.997-4.283-1.67 7.51z"/><g><g opacity=".3" fill="#1E0E00"><path d="M0 25.583c3.106-1.884 7.166-1.596 9.972.88l.01-.01 4.91 4.988 4.86-4.54-5.367-5.43-.01.022A15.11 15.11 0 0 0 0 18.362v7.22z"/><path d="M48.577 22.118c-5.666-5.66-14.72-5.872-20.65-.624l-.02-.023L9.98 39.126l-.01-.004A8.45 8.45 0 0 1 0 40v7.223c4.87 1.472 10.34.437 14.375-3.12l.01.02 17.926-17.67.01.01c3.325-2.926 8.39-2.81 11.56.354 3.3 3.31 3.3 8.65 0 11.946-3.17 3.177-8.234 3.285-11.56.36l-.01.003-5.042-5.018-4.752 4.64 5.392 5.376.02-.02c5.93 5.234 14.984 5.023 20.65-.638 5.89-5.89 5.89-15.452 0-21.348z"/></g><g fill="#268CEA"><path d="M0 23.22c2.952-1.315 6.506-.86 9.036 1.373l.01-.01 4.91 4.988 4.86-4.54-5.367-5.43-.01.022A15.107 15.107 0 0 0 0 16.244v6.976z"/><path d="M47.642 20.248c-5.665-5.66-14.72-5.872-20.65-.624l-.02-.023L9.047 37.257l-.01-.004A8.456 8.456 0 0 1 0 38.625V45.6c4.624 1.08 9.66-.036 13.44-3.366l.01.02 17.926-17.67.01.01c3.324-2.927 8.387-2.81 11.56.353 3.298 3.31 3.298 8.65 0 11.946-3.173 3.177-8.235 3.285-11.56.36l-.01.003-5.043-5.018-4.752 4.64 5.393 5.376.02-.02c5.93 5.234 14.984 5.023 20.65-.638 5.89-5.89 5.89-15.45 0-21.348z"/></g></g></svg>