<svg xmlns="http://www.w3.org/2000/svg" height="144" viewBox="0 0 144 144" width="144"><defs><clipPath id="a"><path fill="#f3f3f3" d="M0 0h144v144H0z"/></clipPath></defs><g clip-path="url(#a)"><path d="M162 144V4c0-2.18-2-4-4-4H-14c-2.23 0-4.03 1.82-4.03 4.06v140h181z" fill="#f3f3f3"/><g opacity=".4"><g opacity=".4"><path d="M39 115a1.24 1.24 0 0 1-1.24 1.24h-45c-.684 0-1.24-.558-1.24-1.24 0-.686.552-1.24 1.24-1.24h45c.684 0 1.24.557 1.24 1.24zM39 110a1.24 1.24 0 0 1-1.24 1.24h-45c-.684 0-1.24-.56-1.24-1.24 0-.688.552-1.24 1.24-1.24h45c.684 0 1.24.556 1.24 1.24zM39 105c0 .688-.554 1.24-1.24 1.24h-45a1.24 1.24 0 0 1 0-2.48h45c.684 0 1.24.557 1.24 1.24zM39 100c0 .687-.554 1.24-1.24 1.24h-45a1.24 1.24 0 0 1 0-2.48h45c.684 0 1.24.556 1.24 1.24zM39 95.2a1.24 1.24 0 0 1-1.24 1.24h-45a1.24 1.24 0 0 1 0-2.48h45c.684 0 1.24.557 1.24 1.24zM39 90.2c0 .688-.554 1.24-1.24 1.24h-45c-.684 0-1.24-.557-1.24-1.24 0-.684.552-1.24 1.24-1.24h45c.684 0 1.24.56 1.24 1.24zM39 85.2a1.24 1.24 0 0 1-1.24 1.24h-45c-.684 0-1.24-.557-1.24-1.24 0-.686.552-1.24 1.24-1.24h45c.684 0 1.24.557 1.24 1.24z"/></g><path d="M39 135a1.24 1.24 0 0 1-1.24 1.24h-45c-.684 0-1.24-.557-1.24-1.24 0-.687.552-1.24 1.24-1.24h45c.684 0 1.24.556 1.24 1.24zM39 130c0 .688-.554 1.24-1.24 1.24h-45a1.24 1.24 0 0 1 0-2.48h45c.684 0 1.24.558 1.24 1.24zM39 125c0 .687-.554 1.24-1.24 1.24h-45c-.684 0-1.24-.557-1.24-1.24 0-.686.552-1.24 1.24-1.24h45c.684 0 1.24.555 1.24 1.24zM39 120c0 .688-.554 1.24-1.24 1.24h-45a1.24 1.24 0 0 1 0-2.48h45c.684 0 1.24.557 1.24 1.24z" opacity=".4"/></g><g opacity=".4"><g opacity=".4"><path d="M96 115a1.24 1.24 0 0 1-1.24 1.24h-45c-.684 0-1.24-.558-1.24-1.24 0-.686.553-1.24 1.24-1.24h45c.683 0 1.24.557 1.24 1.24zM96 110a1.24 1.24 0 0 1-1.24 1.24h-45c-.684 0-1.24-.56-1.24-1.24 0-.688.553-1.24 1.24-1.24h45c.683 0 1.24.556 1.24 1.24zM96 105c0 .688-.554 1.24-1.24 1.24h-45a1.24 1.24 0 0 1 0-2.48h45c.683 0 1.24.557 1.24 1.24zM96 100c0 .687-.554 1.24-1.24 1.24h-45a1.24 1.24 0 0 1 0-2.48h45c.683 0 1.24.556 1.24 1.24zM96 95.2a1.24 1.24 0 0 1-1.24 1.24h-45a1.24 1.24 0 0 1 0-2.48h45c.683 0 1.24.557 1.24 1.24zM96 90.2c0 .688-.554 1.24-1.24 1.24h-45a1.24 1.24 0 0 1 0-2.48h45c.683 0 1.24.56 1.24 1.24zM96 85.2a1.24 1.24 0 0 1-1.24 1.24h-45c-.684 0-1.24-.557-1.24-1.24 0-.686.553-1.24 1.24-1.24h45c.683 0 1.24.557 1.24 1.24z"/></g><path d="M96 135a1.24 1.24 0 0 1-1.24 1.24h-45c-.684 0-1.24-.557-1.24-1.24 0-.687.553-1.24 1.24-1.24h45c.683 0 1.24.556 1.24 1.24zM96 130c0 .688-.554 1.24-1.24 1.24h-45a1.24 1.24 0 0 1 0-2.48h45c.683 0 1.24.558 1.24 1.24zM96 125c0 .687-.554 1.24-1.24 1.24h-45c-.684 0-1.24-.557-1.24-1.24 0-.686.553-1.24 1.24-1.24h45c.683 0 1.24.555 1.24 1.24zM96 120c0 .688-.554 1.24-1.24 1.24h-45a1.24 1.24 0 0 1 0-2.48h45c.683 0 1.24.557 1.24 1.24z" opacity=".4"/></g><g opacity=".4"><g opacity=".4"><path d="M153 115a1.24 1.24 0 0 1-1.24 1.24h-45c-.683 0-1.23-.558-1.23-1.24 0-.686.552-1.24 1.23-1.24h45c.683 0 1.24.557 1.24 1.24zM153 110a1.24 1.24 0 0 1-1.24 1.24h-45c-.683 0-1.23-.56-1.23-1.24 0-.688.552-1.24 1.23-1.24h45c.683 0 1.24.556 1.24 1.24zM153 105c0 .688-.554 1.24-1.24 1.24h-45c-.683 0-1.23-.556-1.23-1.24 0-.685.552-1.24 1.23-1.24h45c.683 0 1.24.557 1.24 1.24zM153 100c0 .687-.554 1.24-1.24 1.24h-45c-.683 0-1.23-.556-1.23-1.24 0-.686.552-1.24 1.23-1.24h45c.683 0 1.24.556 1.24 1.24zM153 95.2a1.24 1.24 0 0 1-1.24 1.24h-45c-.683 0-1.23-.556-1.23-1.24 0-.687.552-1.24 1.23-1.24h45c.683 0 1.24.557 1.24 1.24zM153 90.2c0 .688-.554 1.24-1.24 1.24h-45c-.683 0-1.23-.557-1.23-1.24 0-.684.552-1.24 1.23-1.24h45c.683 0 1.24.56 1.24 1.24zM153 85.2a1.24 1.24 0 0 1-1.24 1.24h-45c-.683 0-1.23-.557-1.23-1.24 0-.686.552-1.24 1.23-1.24h45c.683 0 1.24.557 1.24 1.24z"/></g><path d="M153 135a1.24 1.24 0 0 1-1.24 1.24h-45c-.683 0-1.23-.557-1.23-1.24 0-.687.552-1.24 1.23-1.24h45c.683 0 1.24.556 1.24 1.24zM153 130c0 .688-.554 1.24-1.24 1.24h-45c-.683 0-1.23-.556-1.23-1.24 0-.685.552-1.24 1.23-1.24h45c.683 0 1.24.558 1.24 1.24zM153 125c0 .687-.554 1.24-1.24 1.24h-45c-.683 0-1.23-.557-1.23-1.24 0-.686.552-1.24 1.23-1.24h45c.683 0 1.24.555 1.24 1.24zM153 120c0 .688-.554 1.24-1.24 1.24h-45c-.683 0-1.23-.553-1.23-1.24s.552-1.24 1.23-1.24h45c.683 0 1.24.557 1.24 1.24z" opacity=".4"/></g><path opacity=".3" d="M151 69.8a22.2 22.2 0 0 0 2.13-1.3v-3.49a20.93 20.93 0 0 1-3.69 2.45l-4.36-9.7 8.05-3.67v-2.47l-8.98 4.09-2.91-6.47 11.3-5.17c.195.454.38.913.553 1.37V40.4a38.975 38.975 0 0 0-3.65-5.4l3.65-1.66v-4.49h-6.044c1.71.636 3.34 1.5 4.84 2.56l-3.94 1.8c-1.42-1.6-2.9-3.05-4.34-4.36h-3.36c1.76 1.53 3.71 3.29 5.6 5.32l-9.48 4.32-4.29-9.52c.106-.04.214-.08.318-.116h-6.04c-9.43 6.42-13.2 18.9-8.32 29.7 2.25 4.99 5.98 8.83 10.4 11.2h11.2c-2.11-1.84-4.48-4-6.69-6.56l9.97-4.55 4.36 9.7c-2.07.815-4.2 1.27-6.32 1.41h9.91zm-3.57-33.9c1.54 1.83 2.98 3.86 4.17 6.11l-11.3 5.14-2.99-6.64 10.1-4.61zm-9.15 12.2l-11.3 5.14c-.895-2.38-1.46-4.81-1.82-7.18l10.1-4.61 2.99 6.64zm-13-14.1c1.54-1.61 3.37-3 5.44-4.08l4.29 9.52-9.47 4.32c-.353-3.6-.296-6.97-.26-9.76zm-2.24 2.77c-.027 2.47.057 5.17.395 7.95l-3.94 1.8a21.44 21.44 0 0 1 3.54-9.75zm-3.65 12.3l4.39-2c.408 2.36 1.02 4.76 1.93 7.12l-4.88 2.23c-.938-2.41-1.4-4.89-1.44-7.35zm2.36 9.4l4.84-2.2c1.03 2.22 2.32 4.24 3.73 6.1l-4.18 1.9a20.99 20.99 0 0 1-4.39-5.8zm15.3 11.1c-3.24-.53-6.34-1.82-9-3.76l3.7-1.69c1.72 2.02 3.55 3.82 5.3 5.45zm-4.82-8.14c-1.41-1.84-2.7-3.86-3.74-6.09l11.3-5.17 2.91 6.47-10.5 4.79z"/><path d="M162 16.2V4c0-2.18-2-4-4-4H-14c-2.23 0-4.03 1.82-4.03 4.06v12.2h181z" fill="#444"/><ellipse cx="110" cy="8.34" rx="3.19" ry="3.21" transform="translate(-120)" fill="#2cb740"/><path d="M3 8.34c0 1.77-1.43 3.21-3.2 3.21-1.76 0-3.19-1.44-3.19-3.21S-1.96 5.13-.2 5.13 3 6.57 3 8.34z" fill="#f16442"/><path d="M156 8.14c0 1.77-1.43 3.21-3.19 3.21h-144c-1.75 0-3.19-1.44-3.19-3.21 0-1.78 1.44-3.22 3.19-3.22h144c1.76 0 3.19 1.44 3.19 3.22z" fill="#fff"/><ellipse cx="133" cy="31.4" rx=".065" ry=".045" transform="translate(-120)" fill="#fcd22e"/><path opacity=".3" d="M-9 72.6h163v2.61H-9zM-9 23.6h163v2.61H-9z"/><g opacity=".1"><path d="M12 51.9h13.1v19.4H12zM27 44.3h13.1v26.9H27zM56 40.4h13.1v30.8H56zM42 54.7h13.1v16.6H42zM71 46.6h13.1v24.6H71zM86 36.9h13.1v34.3H86zM116 32h13.1v39.3H116zM101 50.3h13.1v21H101z"/></g><path opacity=".2" d="M46.6 34.4h-.1C37.2 25.1 34.3 11.8 37.7 0h-60.2C-24.96 25.4-17.22 51.7.6 72.2l46-37.7.016-.013zM105 0c3.21 11.7.15 24.8-9.12 34.1-.008.008-.027.017-.035.023l3.96 3.26-17.3 21.1.475.39h-21.7l-.008-.123.185-.21-17.1-20.8-.6-.7-38.6 31.6 3 3.66 14.5 17.7 4.51-3.68c.2 7.11 3.37 13.7 9.12 17.7l-1.2 1.92a5.378 5.378 0 0 0 1.62 7.44c2.5 1.61 5.84.89 7.46-1.61l.346-.548c.053.22.14.43.22.644l-.655 1.02a5.376 5.376 0 0 0 1.62 7.44c2.5 1.61 5.84.888 7.46-1.62l.096-.148.756.468-.72 1.12c-1.61 2.5-.888 5.84 1.62 7.44a5.39 5.39 0 0 0 7.45-1.62l.822-1.28.753.467-.377.6c-1.62 2.5-.887 5.83 1.61 7.44a5.407 5.407 0 0 0 7.46-1.61l.478-.76 1.31.806a5.682 5.682 0 0 0 7.8-1.87 5.643 5.643 0 0 0-1.67-7.62l.893-.61 5.29 3.5c2.8 1.78 6.52.952 8.31-1.85 1.78-2.8.96-6.52-1.85-8.3l-.95-.627c.297-.227.596-.452.895-.683l4.03 2.61c2.83 1.74 6.54.843 8.28-1.99 1.65-2.7.902-6.16-1.62-7.98l.87-.594c2.77 1.38 6.17.47 7.81-2.21a6.005 6.005 0 0 0 .353-5.61c.372-.608.714-1.23 1.02-1.88.014-.018.043-.05.047-.06.002-.002-.012-.015-.012-.02.762-1.6 1.33-3.29 1.72-5.06l.02.017s.724-1.2.624-4.68l4.7 3.84 17.5-21.4 4.29 3.51c17-20.7 24-47 21-72.4h-60.5z"/><path d="M109 0c.734 9.8-2.62 19.8-10.1 27.3-.025.025-.01.05-.033.075l46.1 37.7c16-18.6 24-41.9 23-65.1h-59.1z" fill="#1d89aa"/><path d="M108 0c.582 9.67-2.86 19.5-10.3 27-.008.01-.016.016-.02.023l36 29.5c14-16.1 21-36.4 20-56.5h-46.1z" fill="#289cc9"/><path d="M108 0c.582 9.67-2.86 19.5-10.3 27l-.02.023 13.9 11.4c10-10.8 14-24.7 14-38.4h-17.5z" fill="#35c3ef"/><path d="M108 97.7c11-6.5 14-21.5 6-33.4-7-11.9-21-16.2-32-9.7l-14 8.6c-10.7 6.52-6.85 17 .45 28.9s.362 32 11 25.5l29-20.3z" fill="#e9b980"/><path opacity=".15" d="M79 65.2s37.6 22.9 37.2 23.6c-.38.76-27.3 24.8-35.3 26.8C72.94 117.53 69 85.2 69 85.2l10-20z"/><g fill="#fddba4"><path d="M39.7 97.7c-10.6-6.5-13.4-21.4-6.1-33.4 7.3-11.9 21.9-16.2 32.4-9.7l3.3 3.23c10.7 6.52 22.2 15.1 6.02 39.7-7.69 11.7-11 15.4-21.7 8.86l-13.6-8.3z"/><path d="M107 98.4a6.036 6.036 0 0 0 8.28-1.98 6.006 6.006 0 0 0-1.99-8.27l-35-23.2c-2.83-1.74-6.53-.84-8.28 1.99a6.017 6.017 0 0 0 2 8.27l35.4 23.1zM100 109c2.83 1.74 6.54.843 8.28-1.99s.844-6.54-1.99-8.27l-30.7-19.9c-2.84-1.73-6.55-.838-8.28 2a6.008 6.008 0 0 0 1.99 8.27l30.7 19.9zM89 118c2.8 1.78 6.52.954 8.31-1.85 1.78-2.8.96-6.52-1.85-8.3l-29-20a6.03 6.03 0 0 0-8.31 1.84A6.02 6.02 0 0 0 60 98l30.1 19.9zM77 125a5.682 5.682 0 0 0 7.8-1.87 5.655 5.655 0 0 0-1.88-7.78l-27.6-16.9c-2.66-1.63-6.15-.793-7.79 1.87a5.658 5.658 0 0 0 1.88 7.78l27.3 16.9z"/><path d="M79 70.7l12 8L70 112l-12.7-8z"/><path d="M69 105l13 8-5 7-12-8zM79 58.8c0 1.68-1.1 3.05-2.45 3.05h-23.2c-1.36 0-2.45-1.37-2.45-3.05v-4.14c0-1.69 1.1-3.06 2.45-3.05h23.2c1.36 0 2.46 1.37 2.46 3.05v4.15z"/></g><path d="M55.5 112a5.406 5.406 0 0 1-7.46 1.62c-2.5-1.61-3.23-4.94-1.62-7.44l7.44-11.5c1.61-2.5 4.95-3.22 7.45-1.61s3.23 4.94 1.62 7.44l-7.44 11.5z" fill="#e9b980"/><path opacity=".15" d="M74 53c-.622 0-1.23.046-1.82.134-2.47-.488-5.1.518-6.54 2.76l-6.01 9.57a6.304 6.304 0 0 0 1.89 8.72c2.93 1.89 6.84 1.04 8.73-1.89l3.68-5.85c.023 0 .047 0 .072.002h6.03s-3.03-7.79-5.12-13.4h-.91z"/><g fill="#e9b980"><path d="M65 119a5.394 5.394 0 0 1-7.46 1.61c-2.5-1.61-3.23-4.94-1.62-7.44l7.44-11.5c1.61-2.5 4.95-3.22 7.45-1.62 2.5 1.61 3.23 4.94 1.62 7.44l-7.44 11.5zM75 125c-1.61 2.5-4.95 3.22-7.46 1.61-2.5-1.61-3.23-4.94-1.61-7.44l5.13-8.17c1.61-2.5 4.95-3.22 7.45-1.62a5.394 5.394 0 0 1 1.62 7.45L75 125zM46.6 105c-1.61 2.5-4.95 3.22-7.46 1.61-2.5-1.61-3.23-4.94-1.61-7.44L42.66 91c1.61-2.5 4.95-3.23 7.45-1.62s3.23 4.94 1.62 7.44l-5.13 8.17zM70 71.1c-1.89 2.93-5.8 3.78-8.73 1.89-2.4-1.9-3.2-5.8-1.3-8.7l6.01-9.57c1.89-2.93 5.8-3.78 8.73-1.89s3.78 5.79 1.89 8.72l-6.01 9.57z"/><path d="M104 58.5c0 3.71-4.1 6.72-9.16 6.72h-21.1c-5.05 0-9.15-3.01-9.15-6.72.002-3.71 4.1-6.72 9.15-6.72h21.1c5.05 0 9.16 3.01 9.16 6.72z"/></g><path opacity=".15" d="M88 50.4c-.73.73-2.73 1.76-2.73 1.76l-1.06-.368 33.4 32s1.79-2.92-.63-13.1c-1-10.1-28-20.3-28-20.3z"/><path fill="#ffb6b6" d="M85 51.4L102 30l39 31.6L123 83z"/><path opacity=".15" d="M60 50.4c.73.73 2.73.596 2.73.596l1.06.8-33.5 32s-2.01-3.55.633-13.1c2.6-10 28.8-20.3 28.8-20.3z"/><path fill="#bdddff" d="M64 51.4L46.2 30 7.5 61.6 25.1 83z"/><g fill="#fddba4"><path d="M49.8 90.3c1.77 1.27 2.23 3.62 1.01 5.25s-3.3.964-5.08-.305c-1.77-1.27-2.56-2.66-1.34-4.3 1.22-1.63 3.64-1.92 5.41-.65zM60.8 93.8c1.78 1.27 2.22 3.62 1.01 5.25-1.22 1.63-3.3.964-5.08-.305s-2.56-2.67-1.34-4.3c1.21-1.63 3.64-1.92 5.41-.65zM70 101c1.77 1.27 2.22 3.62 1.01 5.25-1.22 1.63-3.3.963-5.08-.306-1.77-1.27-2.56-2.66-1.35-4.3 1.22-1.63 3.64-1.92 5.41-.65zM78 110c1.77 1.27 2.22 3.62 1.01 5.25-1.22 1.63-3.3.962-5.08-.308-1.77-1.27-2.56-2.66-1.35-4.29 1.22-1.63 3.64-1.93 5.41-.65z"/></g><path opacity=".15" d="M27.3 69.1c.002 1.87-1.51 3.38-3.38 3.38s-3.39-1.52-3.39-3.38a3.384 3.384 0 0 1 6.77 0z"/><path d="M27.3 67.9c0 1.86-1.51 3.38-3.38 3.38-1.87 0-3.39-1.51-3.39-3.38s1.51-3.38 3.38-3.38 3.38 1.51 3.38 3.38z" fill="#2679b2"/><path opacity=".15" d="M123 76.4c-.414.503-1.16.57-1.66.154l-4.14-3.42a1.175 1.175 0 0 1-.16-1.66l3.43-4.14a1.178 1.178 0 0 1 1.66-.157l4.14 3.42c.502.417.574 1.16.156 1.66l-3.43 4.14z"/><path d="M123 75.3a1.175 1.175 0 0 1-1.66.156l-4.14-3.42a1.175 1.175 0 0 1-.16-1.66l3.43-4.14a1.18 1.18 0 0 1 1.66-.157l4.14 3.42c.502.415.574 1.16.156 1.66l-3.43 4.14z" fill="#ffde76"/><path opacity=".15" d="M10.5 65.2l36.2-34.5-.5-.7L7.5 61.6zM137 65.7l4-4.1L102 30l-1 1.6z"/><path d="M38.7 0h-59.2c-.535 23.2 7.3 46.5 23.5 65.1l46-37.7s-.1 0-.1-.1C41.4 19.8 38 9.8 38.7 0z" fill="#fff2a2"/><path d="M38.7 0H-7.4C-7.892 20.2-1 40.6 13.2 56.7L49 27.4c0-.1-.1-.1-.1-.1C41.4 19.8 38 9.8 38.7 0z" fill="#ffd645"/><path d="M38.7 0H21.2c-.523 13.8 4.21 27.7 14.1 38.6L49 27.4l-.1-.1C41.4 19.8 38 9.8 38.7 0z" fill="#d6b13c"/></g></svg>