<svg xmlns="http://www.w3.org/2000/svg" width="232.741" height="201.226" viewBox="0 0 232.741 201.226"><path fill="#CE2828" d="M152.58 190.793h80.16l-14.93-18.82 14.93-17.523h-80.16z"/><path fill="#9B0A20" d="M152.415 190.793l63.333-13.037-63.29-9.082z"/><path fill="#CE2828" d="M80.16 190.793H0l14.93-18.82L0 154.45h80.16z"/><path fill="#9B0A20" d="M80.326 190.793l-63.333-13.037 63.29-9.082z"/><path fill="#FCD22E" d="M218.857 100.614c0 5.75-10.425 10.522-11.384 15.998-.986 5.632 7.164 13.67 5.252 18.923-1.946 5.346-13.375 6.258-16.188 11.12-2.84 4.906 2.062 15.26-1.562 19.575-3.635 4.327-14.685 1.288-19.012 4.923-4.314 3.624-3.23 15.036-8.137 17.875-4.86 2.812-14.2-3.81-19.548-1.865-5.253 1.913-8.145 13.008-13.776 13.994-5.477.96-11.974-8.466-17.725-8.466s-12.248 9.426-17.724 8.467c-5.632-.986-8.524-12.08-13.778-13.994-5.346-1.946-14.688 4.677-19.548 1.864-4.906-2.84-3.82-14.25-8.136-17.875-4.326-3.635-15.376-.596-19.01-4.923-3.625-4.315 1.276-14.67-1.563-19.575-2.812-4.86-14.24-5.773-16.188-11.12-1.914-5.253 6.237-13.29 5.25-18.922-.958-5.477-11.383-10.25-11.383-16 0-5.752 10.425-10.524 11.384-16 .987-5.633-7.164-13.67-5.25-18.924 1.945-5.348 13.374-6.26 16.186-11.12 2.84-4.906-2.06-15.26 1.562-19.575 3.635-4.327 14.686-1.288 19.013-4.923 4.315-3.625 3.23-15.037 8.136-17.875 4.86-2.812 14.202 3.81 19.548 1.865C90.53 12.15 93.424 1.055 99.054.07c5.477-.96 11.974 8.465 17.725 8.465S129.026-.89 134.502.07c5.632.985 8.524 12.08 13.778 13.993 5.347 1.948 14.69-4.676 19.55-1.863 4.905 2.84 3.82 14.25 8.135 17.875 4.328 3.635 15.378.596 19.013 4.923 3.624 4.314-1.276 14.67 1.562 19.575 2.812 4.86 14.24 5.773 16.188 11.12 1.912 5.253-6.238 13.29-5.252 18.922.957 5.476 11.38 10.247 11.38 16z"/><circle fill="#FBBD01" cx="116.779" cy="100.613" r="85.428"/><circle fill="#FAA700" cx="116.778" cy="100.613" r="60.412"/><g fill="#FFF"><path d="M68.698 99.662c0-9.505 7.188-16 16.463-16 6.817 0 10.76 3.71 12.94 7.56l-5.658 2.783c-1.3-2.505-4.082-4.5-7.28-4.5-5.612 0-9.692 4.314-9.692 10.157s4.08 10.156 9.69 10.156c3.2 0 5.983-1.948 7.282-4.5l5.658 2.737c-2.227 3.85-6.123 7.605-12.94 7.605-9.273 0-16.462-6.492-16.462-15.998zM128.938 115.104V93.447l-8.72 21.657h-2.874l-8.72-21.657v21.657h-6.584V84.172h9.23l7.51 18.69 7.514-18.69h9.274v30.932h-6.63zM139.604 110.745l3.57-5.008a13.566 13.566 0 0 0 9.832 4.173c3.616 0 5.378-1.67 5.378-3.433 0-5.47-17.808-1.714-17.808-13.354 0-5.148 4.45-9.414 11.732-9.414 4.916 0 8.998 1.482 12.06 4.31l-3.665 4.823c-2.504-2.318-5.843-3.384-8.997-3.384-2.83 0-4.405 1.25-4.405 3.106 0 4.913 17.763 1.622 17.763 13.17 0 5.657-4.035 9.923-12.383 9.923-5.935 0-10.2-1.994-13.076-4.915z"/></g><path opacity=".2" d="M174.276 173.43H59.28c1.533 3.027 2.064 7.502 3.285 11H170.99c1.22-3.498 1.753-7.974 3.286-11z"/><path fill="#FC3F3F" d="M17.482 139.71h198.266v38.046H17.482z"/><g fill="#FFF"><path d="M33.044 164.542c1.63-.216 2.543-.863 3.047-5.085l.937-8.18h11.37v13h1.438v5.95H46.43v-2.95h-9.98v2.95h-3.406v-5.685zm4.486-.263h7.436v-10.004h-4.87l-.623 5.42c-.24 2.16-.936 3.647-1.943 4.583zM50.872 164.542c1.607 0 2.543-.863 3.046-5.085l.936-8.18h11.37v16h-3.43v-13.002h-4.87l-.624 5.42c-.768 6.646-3.166 7.87-6.428 7.87v-3.023zM68.675 167.277l3.598-6.093c-1.727-.407-3.502-1.92-3.502-4.75 0-2.974 2.04-5.156 5.374-5.156h7.484v16h-3.406v-5.686h-2.47l-3.167 5.685h-3.91zm9.547-8.684v-4.317h-3.574c-1.367 0-2.398.815-2.398 2.16 0 1.342 1.03 2.157 2.398 2.157h3.574zM102.622 151.278v2.998h-8.275v2.83h4.15c3.406 0 5.3 2.327 5.3 5.086 0 2.758-1.87 5.085-5.3 5.085H90.94v-16h11.682zm-8.275 8.827v4.173h3.694c1.32 0 2.28-.815 2.28-2.087 0-1.295-.96-2.085-2.28-2.085h-3.693zM105.913 167.277v-16h3.406v10.34l7.41-10.34h3.503v16h-3.406v-10.722l-7.627 10.722h-3.287zM122.302 165l1.775-2.28c1.104 1.15 3.117 1.823 4.677 1.823 2.11 0 3.335-.84 3.335-2.04 0-1.27-1.13-1.846-3.528-1.846h-3.238v-3h3.238c1.896 0 3.263-.526 3.263-1.7 0-1.272-1.438-1.897-3.263-1.897-1.56 0-3.214.576-4.342 1.655l-1.702-2.134c1.295-1.462 3.573-2.542 6.38-2.542 3.742 0 6.333 1.68 6.333 4.342 0 2.015-1.727 3.334-3.477 3.646 1.606.167 3.717 1.438 3.717 3.838 0 2.757-2.758 4.7-6.572 4.7-2.95 0-5.42-1.127-6.596-2.565zM149.003 167.277v-6.716h-7.556v6.717h-3.406v-16h3.407v6.285h7.556v-6.284h3.43v16h-3.43zM155.58 167.277v-16h11.322v3h-7.915v3.38h7.747v3h-7.747v3.622h7.915v2.997h-11.32zM168.802 159.29c0-4.918 3.718-8.275 8.516-8.275 3.525 0 5.564 1.918 6.69 3.91l-2.925 1.438c-.672-1.295-2.11-2.327-3.766-2.327-2.902 0-5.014 2.23-5.014 5.254s2.11 5.253 5.014 5.253c1.654 0 3.094-1.008 3.766-2.327l2.926 1.416c-1.15 1.99-3.167 3.934-6.692 3.934-4.798 0-8.516-3.36-8.516-8.276zM196.92 167.277l-.983-2.71h-6.86l-1.008 2.71h-3.887l6.188-16h4.27l6.166 16h-3.887zm-4.414-12.593l-2.495 6.884H195l-2.494-6.884z"/></g><g fill="#FFF"><path d="M51.104 132.572c-2.848 1.156-5.668-.207-6.797-2.985-.83-2.042-.197-3.676.69-4.797l1.523 1.357c-.594.692-.852 1.77-.463 2.728.683 1.68 2.472 2.378 4.222 1.668 1.75-.71 2.545-2.458 1.862-4.14-.39-.96-1.312-1.556-2.233-1.635l.13-2.028c1.425.2 3.024.91 3.854 2.952 1.127 2.78.057 5.723-2.79 6.88zM50.256 114.3l-1.497 1.003 1.032 4.163 1.795.203.585 2.357-10.638-1.348-.643-2.593 8.78-6.146.586 2.36zm-6.976 4.572l4.55.478-.75-3.027-3.8 2.55zM48.87 102.74l-6.982.56 7.208 2.25.074.926-6.757 3.373 6.983-.562.17 2.123-9.974.8-.24-2.974 5.833-2.906-6.22-1.938-.24-2.99 9.974-.8.17 2.137zM49.372 92.172l-1.74.472-.356 4.276 1.637.77-.2 2.42-9.652-4.687.222-2.662 10.293-3.013-.203 2.425zm-8.08 2.098l4.162 1.912.26-3.11-4.42 1.198zM49.662 89.604l-3.215-3.042c-.49.997-1.657 1.868-3.384 1.476-1.812-.413-2.86-1.96-2.397-3.994l1.04-4.563 9.758 2.226-.475 2.077-3.467-.79-.344 1.507 3.025 2.72-.543 2.384zm-3.968-7.03l-2.633-.6-.496 2.18c-.19.832.163 1.575.983 1.762.818.187 1.46-.33 1.65-1.162l.497-2.18zM55.9 70.406l-7.42-3.337-1.938 4.31 7.418 3.337-.874 1.943-9.13-4.107 3.695-8.212 9.13 4.108-.88 1.958zM53.08 64.723c-2.523-1.654-3.12-4.683-1.467-7.206 1.662-2.534 4.68-3.194 7.2-1.54 2.522 1.653 3.12 4.683 1.458 7.218-1.653 2.522-4.668 3.18-7.19 1.528zm4.532-6.914c-1.568-1.03-3.406-.8-4.418.744s-.482 3.31 1.086 4.336c1.556 1.02 3.398.812 4.41-.732s.48-3.33-1.078-4.35zM68.32 52.8l-6.012-5.465-3.177 3.495 6.014 5.467-1.433 1.575-7.398-6.728 6.052-6.657 7.4 6.73L68.32 52.8zM69.92 50.295l-.458-1.837c.448.002.97-.095 1.34-.4.57-.465.634-.906.47-1.722l-7.457-3.275 1.868-1.53 5.28 2.538-1.44-5.685 1.867-1.532 1.937 8.87c.294 1.33.183 2.565-1.197 3.697-.71.58-1.605.905-2.21.878zM76.8 43.14c.86-.518 1.084-1.28-.006-3.707l-2.133-4.685 6.094-3.662 5.153 8.574-1.838 1.104-4.19-6.968-2.608 1.57 1.41 3.105c1.73 3.81.838 5.237-.91 6.288L76.8 43.14zM86.98 39.145l.61-4.382c-1.095.18-2.483-.264-3.164-1.898-.716-1.716-.063-3.466 1.86-4.27l4.317-1.8 3.85 9.232-1.966.82-1.367-3.28-1.426.593-.46 4.042-2.255.943zm3.418-7.308l-1.038-2.49-2.062.86c-.79.327-1.188 1.046-.864 1.82.322.777 1.114 1 1.902.67l2.062-.86zM95.99 35.516l-2.586-9.665 4.52-1.21c2.102-.56 3.627.553 4.08 2.248.45 1.682-.325 3.425-2.412 3.984l-2.463.66.917 3.434-2.058.55zm3.914-8.066c-.217-.812-.958-1.14-1.77-.924l-2.188.586.698 2.608 2.188-.586c.813-.217 1.286-.887 1.072-1.684zM111.517 32.41l-.505-4.17-4.69.568.504 4.17-2.115.256-1.2-9.934 2.114-.255.473 3.902 4.69-.567-.472-3.902 2.13-.257 1.2 9.935-2.128.254zM122.14 32.316l-.562-1.714-4.29-.13-.68 1.676-2.43-.073 4.17-9.886 2.67.08 3.552 10.12-2.43-.074zm-2.52-7.957l-1.69 4.256 3.118.094-1.43-4.35zM124.687 32.47l2.868-3.372c-1.02-.436-1.954-1.557-1.652-3.302.317-1.833 1.808-2.962 3.862-2.606l4.614.8-1.708 9.862-2.1-.363.606-3.507-1.523-.263-2.56 3.167-2.408-.417zm6.812-4.333l.46-2.663-2.203-.38c-.844-.147-1.566.246-1.71 1.074s.405 1.44 1.25 1.587l2.202.382zM143.375 37.36l-1.42-4.816-1.058.594-1.086 2.875-1.99-.752 3.533-9.357 1.99.753-1.577 4.18 4.89-2.93 2.455.928-5.376 2.986 2.095 6.467-2.455-.927zM148.397 33.946c1.465-2.635 4.44-3.45 7.076-1.984 2.648 1.472 3.523 4.43 2.06 7.066-1.466 2.634-4.442 3.448-7.09 1.977-2.634-1.466-3.51-4.425-2.046-7.06zm7.222 4.017c.91-1.64.547-3.453-1.064-4.35-1.612-.897-3.334-.24-4.244 1.397-.905 1.624-.562 3.446 1.05 4.343 1.612.897 3.352.236 4.257-1.39zM162.795 49.454L167.19 44l-6.59 3.684-.725-.582 2.2-7.225-4.396 5.454-1.66-1.335 6.277-7.79 2.325 1.873-1.9 6.232 5.685-3.182 2.335 1.88-6.277 7.79-1.67-1.344zM171.25 58.467l5.308-4.574-7.146 2.437-.608-.704 3.466-6.71-5.307 4.575-1.39-1.612 7.578-6.53 1.95 2.26-2.993 5.787 6.165-2.106 1.958 2.27-7.577 6.532-1.402-1.625zM173.464 61.46l8.49-5.3 3.75 6.01-1.593.99-2.62-4.2-1.795 1.12 2.566 4.11-1.59.995-2.567-4.11-1.92 1.198 2.62 4.202-1.59.992-3.75-6.008zM177.846 68.64l9.098-4.17 1.95 4.254c.907 1.978.064 3.668-1.532 4.4-1.58.725-3.433.253-4.333-1.71l-1.063-2.32-3.233 1.482-.888-1.937zm8.61 2.506c.763-.35.965-1.136.613-1.9l-.944-2.058-2.455 1.125.945 2.06c.35.763 1.09 1.117 1.84.773zM188.967 76.618c-1.25.382-1.54 1.176-1.203 2.28.21.69.52 1.286.872 1.727l4.104-1.25.62 2.036-9.57 2.92-.62-2.038 3.672-1.12a7.574 7.574 0 0 1-.945-1.97c-.744-2.44.32-3.987 2.444-4.634l2.684-.82.627 2.053-2.683.818zM184.138 85.933l9.863-1.67 1.18 6.98-1.847.313-.826-4.88-2.084.353.807 4.776-1.848.312-.81-4.776-2.23.378.824 4.88-1.85.312-1.178-6.98zM190.46 93.576c3.073-.1 5.25 2.152 5.35 5.15.072 2.205-1.084 3.52-2.305 4.266l-.96-1.8c.794-.447 1.41-1.368 1.375-2.403-.06-1.814-1.498-3.09-3.39-3.026-1.888.063-3.238 1.43-3.178 3.243.034 1.036.693 1.915 1.532 2.307l-.823 1.858c-1.268-.678-2.524-1.897-2.598-4.102-.1-3 1.924-5.392 4.997-5.494zM185.025 110.062l4.31-2.58-.84-.876-3.06-.33.23-2.12 9.95 1.08-.23 2.118-4.445-.482 4.062 4.002-.282 2.61-4.24-4.458-5.74 3.647.285-2.61z"/><path d="M182.897 119.963l1.795-.18 1.05-4.158-1.486-1.026.597-2.355 8.745 6.203-.655 2.587-10.64 1.283.594-2.355zm8.31-.744l-3.79-2.568-.766 3.024 4.556-.457zM182.19 122.444l2.676 3.523c.644-.903 1.938-1.573 3.576-.904 1.722.704 2.503 2.4 1.715 4.33l-1.77 4.332-9.26-3.784.805-1.97 3.29 1.344.585-1.43-2.542-3.176.925-2.264zm2.768 7.578l2.5 1.02.845-2.067c.322-.79.096-1.58-.683-1.9-.777-.316-1.493.088-1.816.88l-.846 2.067z"/></g><path opacity=".05" d="M207.474 84.614c-.986-5.632 7.164-13.67 5.252-18.922-1.946-5.346-13.375-6.26-16.188-11.12-2.838-4.906 2.062-15.26-1.562-19.575-3.368-4.01-13.093-1.704-17.947-4.234L54.57 169.73c1.18.303 2.217.747 3.02 1.423 4.315 3.624 3.23 15.036 8.137 17.875 4.86 2.812 14.2-3.81 19.547-1.864 5.254 1.913 8.146 13.007 13.778 13.994 5.476.96 11.973-8.466 17.724-8.466s12.247 9.425 17.724 8.466c5.632-.986 8.523-12.08 13.776-13.994 5.347-1.945 14.688 4.677 19.548 1.865 4.906-2.84 3.822-14.25 8.137-17.876 3.847-3.232 12.994-1.2 17.534-3.748.71-.83 1.45-1.63 2.207-2.413 2.098-4.812-1.766-13.85.832-18.34 2.81-4.86 14.24-5.77 16.187-11.118 1.912-5.253-6.238-13.29-5.252-18.923.82-4.688 8.574-8.86 10.79-13.573.175-.864.37-1.713.587-2.55-.15-5.696-10.426-10.44-11.378-15.876z"/></svg>