<svg xmlns="http://www.w3.org/2000/svg" width="371.937" height="241.369" viewBox="0 0 371.937 241.369"><ellipse fill="#E6E6E6" cx="206.89" cy="216.321" rx="165.047" ry="12.403"/><ellipse fill="#E6E6E6" cx="81.834" cy="228.725" rx="56.317" ry="12.645"/><path fill="#C4C4C4" d="M249.786 216.522c-26.507-1.03-14.81-36.636-14.81-36.636l-29.313-.913-.02-.118-1.898.058-1.904-.058-.023.118-29.304.913s11.695 35.604-14.812 36.636c-26.504 1.03-.78 4.772-.78 4.772l46.826-1.113 48.54 2.48s24.002-5.108-2.5-6.138z"/><path fill="#C4C4C4" d="M249.786 216.522c-26.507-1.03-14.81-36.636-14.81-36.636l-29.313-.913-.02-.118-1.898.058-1.904-.058-.023.118-29.304.913s11.695 35.604-14.812 36.636c-26.504 1.03-.78 4.772-.78 4.772l46.826-1.113 48.54 2.48s24.002-5.108-2.5-6.138z"/><path fill="#D8D8D8" d="M263.25 220.48c0 1.57-1.294 2.837-2.894 2.837H147.122c-1.597 0-2.888-1.267-2.888-2.836 0-1.568 1.29-2.838 2.888-2.838h113.234c1.6 0 2.894 1.27 2.894 2.84z"/><path opacity=".1" fill="#3C3C3B" d="M203.985 203.923c11.185 0 21.275-2.34 28.457-6.087-.393-9.033 2.533-17.95 2.533-17.95l-29.312-.912-.02-.118-1.898.058-1.904-.058-.023.118-29.304.913s2.87 8.753 2.54 17.7c7.206 3.896 17.5 6.336 28.932 6.336z"/><path fill-rule="evenodd" clip-rule="evenodd" fill="#EBEBEB" d="M335.802 187.388c0 4.565-3.7 8.268-8.265 8.268H77.093a8.27 8.27 0 0 1-8.27-8.268V8.268A8.27 8.27 0 0 1 77.094 0h250.444c4.564 0 8.265 3.704 8.265 8.268v179.12z"/><path fill-rule="evenodd" clip-rule="evenodd" fill="#464646" d="M335.802 161.034V8.268c0-4.563-3.7-8.268-8.265-8.268H77.093a8.27 8.27 0 0 0-8.27 8.268v152.767h266.98z"/><path fill-rule="evenodd" clip-rule="evenodd" fill="#FFF9CA" d="M86.495 16.902h235.153v130.01H86.495z"/><path fill-rule="evenodd" clip-rule="evenodd" fill="#09A5B5" d="M86.495 15.32h235.153v16.57H86.495z"/><path fill-rule="evenodd" clip-rule="evenodd" fill="#B0E7FF" d="M86.495 32.048H321.32v46.2H86.494z"/><path fill="#3D5A9B" d="M39.41 144.54c-.772 1.3-2.352 1.792-3.528 1.098L1.15 125.093c-1.178-.698-1.505-2.317-.73-3.62L12.28 101.41c.77-1.303 2.354-1.795 3.527-1.1l34.73 20.546c1.175.694 1.505 2.315.734 3.62L39.41 144.538z"/><path fill="#FFF" d="M22.247 120.508l-4.798 8.11-4.86-2.876 4.16-8.488 5.497 3.254m.472-.79l-5.5-3.257a.918.918 0 0 0-.73-.086.913.913 0 0 0-.563.476l-4.163 8.488c-.21.43-.06.95.355 1.198l4.86 2.875c.436.26 1.002.115 1.262-.322l4.796-8.113a.916.916 0 0 0-.32-1.258z"/><path opacity=".15" fill="#FFF" d="M17.374 126.918a.665.665 0 0 0-.237-.907.66.66 0 0 0-.905.232.66.66 0 0 0 .23.906c.315.19.722.082.912-.23z"/><path fill="#FFF" d="M17.346 126.82a.667.667 0 0 0-.23-.91c-.317-.187-.727-.08-.912.233s-.083.72.235.912a.67.67 0 0 0 .906-.235z"/><path fill="#FFF" d="M17.255 126.766a.56.56 0 0 0-.2-.76.545.545 0 0 0-.753.197.55.55 0 0 0 .193.756.56.56 0 0 0 .76-.194z"/><path opacity=".5" fill="#FFF" d="M16.93 126.445a.296.296 0 0 0-.1-.405.3.3 0 0 0-.404.104.29.29 0 0 0 .104.403.29.29 0 0 0 .4-.102z"/><g fill="#FFF"><path d="M16.772 126.354c.013-.026.005-.06-.02-.073a.053.053 0 0 0-.075.02c-.012.02-.002.057.02.07.027.016.058.01.075-.016z"/><circle cx="16.591" cy="126.551" r=".055"/><path d="M16.98 126.477c.017-.024.01-.054-.017-.072a.056.056 0 0 0-.073.022.05.05 0 0 0 .02.067c.026.017.054.004.07-.017zM16.847 126.702a.054.054 0 0 0-.016-.075c-.026-.012-.058-.004-.07.023-.017.025-.012.058.014.072.028.017.058.006.073-.02z"/></g><path fill="#FFF" d="M36.84 128.483c.272-.46.338-.988.182-1.48-.108-.336-.378-.83-1.053-1.226l-4.885-2.888c.853-.99 1.913-2.302 1.972-2.375.04-.057.077-.11.106-.167.76-1.51.87-3.78.874-3.878a.952.952 0 0 0-.18-.598 3.14 3.14 0 0 0-.89-.822c-.682-.402-1.387-.365-1.783-.207a.95.95 0 0 0-.47.406c-.01.02-1.06 1.902-1.397 2.484-.65.55-4.507 2.558-5.2 2.698-.388.068-1.075.1-1.677.11l-.548.933a28.984 28.984 0 0 0 1.26-.033c.066-.002.133-.008.194-.01.035-.002.072-.004.108-.008l.23-.016a.608.608 0 0 1 .07-.007l.244-.023a.27.27 0 0 1 .048-.003c.084-.014.163-.02.232-.034.868-.15 5.5-2.58 5.787-3.06.282-.478 1.454-2.58 1.454-2.58l.012-.005.014-.01c.01 0 .02 0 .034-.004a.047.047 0 0 1 .025-.01c.02-.003.04 0 .064-.007a.113.113 0 0 1 .04-.008l.058-.002a.4.4 0 0 0 .05-.003c.034 0 .07 0 .108.006.02.003.04.006.062.007l.083.01a.298.298 0 0 0 .068.017.766.766 0 0 1 .14.05c.023.004.045.017.065.026.04.017.075.033.116.056.013.008.025.012.04.02l.025.018c.018.014.038.022.056.036.03.024.057.042.088.063.027.02.055.043.08.067a.45.45 0 0 1 .064.055c.042.035.086.083.124.128.012.007.02.016.027.028.05.05.103.117.153.185 0 0-.096 2.155-.78 3.513 0 0-1.98 2.454-2.69 3.17 0 0 4.664 2.76 5.852 3.46 1.732 1.026-.168 2.885-1.903 1.858 1.735 1.026-.17 2.884-1.905 1.857 1.734 1.027-.168 2.882-1.904 1.858 1.736 1.023-.166 2.887-1.902 1.857-.908-.534-4.653-2.752-7.25-4.29-.563-.33-.695-1.27-1.104-1.514-.195-.11-.365-.212-.514-.3l-.6-.355s-.02-.044-.04-.123l-.507.862c.02.018.048.04.074.058l1.056.62c.045.064.114.21.163.308.197.39.467.923 1 1.24l7.25 4.286c1.452.86 3.097.315 3.715-.73a1.89 1.89 0 0 0 .254-.754c.714-.143 1.324-.555 1.647-1.1.144-.244.228-.498.256-.756.715-.145 1.32-.556 1.647-1.108.14-.24.227-.493.252-.75.72-.142 1.33-.55 1.654-1.105zM319.216 78.553c.842-.45 1.65-.94 2.43-1.465V73.13a24.1 24.1 0 0 1-4.2 2.776l-4.97-10.977 9.17-4.16v-2.796l-10.228 4.63-3.32-7.323 12.917-5.852c.225.515.43 1.033.63 1.555v-5.708a44.246 44.246 0 0 0-4.15-6.113l4.15-1.882V32.2H314.76c1.947.722 3.802 1.698 5.51 2.902l-4.493 2.036a62.93 62.93 0 0 0-4.95-4.94H307c2.008 1.733 4.23 3.727 6.38 6.027l-10.794 4.89-4.89-10.783c.126-.048.247-.088.366-.133h-6.876c-10.743 7.27-15.013 21.425-9.48 33.64A27.043 27.043 0 0 0 293.6 78.552h12.81c-2.403-2.082-5.104-4.533-7.613-7.424l11.353-5.147 4.975 10.975a23.9 23.9 0 0 1-7.2 1.596h11.29zm-4.07-38.332c1.755 2.076 3.395 4.37 4.752 6.915l-12.853 5.82-3.404-7.517 11.507-5.217zm-10.422 13.79l-12.852 5.823c-1.02-2.694-1.664-5.44-2.07-8.126l11.516-5.217 3.406 7.52zm-15.55-16.002a23.653 23.653 0 0 1 6.204-4.623l4.883 10.785-10.79 4.888c-.403-4.07-.34-7.893-.295-11.05zm-2.553 3.137c-.03 2.8.064 5.85.45 9l-4.49 2.035a24.08 24.08 0 0 1 4.04-11.035zm-4.16 13.89l5.002-2.27c.466 2.677 1.172 5.396 2.2 8.065l-5.56 2.526a23.663 23.663 0 0 1-1.64-8.322zm2.687 10.643l5.51-2.496c1.178 2.51 2.645 4.804 4.252 6.902l-4.76 2.156a23.868 23.868 0 0 1-5.003-6.562zm17.466 12.62a24.083 24.083 0 0 1-10.26-4.256l4.222-1.91c1.955 2.286 4.045 4.328 6.038 6.165zm-5.495-9.216c-1.607-2.09-3.075-4.378-4.26-6.897l12.92-5.85 3.32 7.323-11.98 5.424z"/><path fill="#09A5B5" d="M53.13 79.386a6.618 6.618 0 0 1-5.187 7.8l-18.2 3.654a6.628 6.628 0 0 1-7.803-5.19l-3.65-18.198a6.624 6.624 0 0 1 5.187-7.803l18.2-3.655a6.627 6.627 0 0 1 7.803 5.19l3.65 18.2z"/><g fill="#FFF"><path d="M40.897 64.692l-11.562 4.45L29 67.463l11.56-4.452zM41.38 67.102l-11.562 4.45-.34-1.68 11.564-4.448z"/><path d="M28.985 67.466l.795-.16 2.844 14.047-.796.162zM39.78 63.396l.796-.16 2.844 14.05-.796.16z"/><path d="M43.344 76.883c.25 1.232-.573 2.435-1.837 2.69-1.257.252-2.48-.542-2.727-1.774-.247-1.233.572-2.437 1.832-2.69 1.26-.254 2.485.54 2.732 1.773z"/><ellipse transform="rotate(-11.363 30.236 81.36)" cx="30.245" cy="81.374" rx="2.328" ry="2.274"/></g><path fill="#FCD22E" d="M103.462 23.28a3.547 3.547 0 0 1-3.546 3.55 3.55 3.55 0 0 1 0-7.1 3.55 3.55 0 0 1 3.546 3.55z"/><path fill="#FF4848" d="M114.286 23.28a3.553 3.553 0 0 1-3.557 3.55 3.55 3.55 0 0 1 0-7.1 3.556 3.556 0 0 1 3.556 3.55z"/><path fill-rule="evenodd" clip-rule="evenodd" fill="#FFF" d="M122.247 22.602a3.122 3.122 0 0 0 3.124 3.123h188.783a3.12 3.12 0 0 0 3.123-3.123 3.123 3.123 0 0 0-3.123-3.125H125.37a3.124 3.124 0 0 0-3.123 3.125z"/><g opacity=".2" fill="#444"><path d="M146.553 41.186c0 1.247-1.063 2.253-2.372 2.253H94.43c-1.313 0-2.38-1.007-2.38-2.254 0-1.246 1.066-2.262 2.38-2.262h49.75c1.31 0 2.373 1.015 2.373 2.262zM184 51.27c0 1.25-1.065 2.26-2.373 2.26H94.43c-1.313 0-2.38-1.01-2.38-2.26 0-1.25 1.066-2.257 2.38-2.257h87.197c1.308 0 2.372 1.008 2.372 2.256zM184 61.22c0 1.248-1.065 2.255-2.373 2.255H94.43c-1.313 0-2.38-1.007-2.38-2.254 0-1.246 1.066-2.25 2.38-2.25h87.197c1.308 0 2.372 1.004 2.372 2.25zM184 71.158c0 1.252-1.065 2.258-2.373 2.258H94.43c-1.313 0-2.38-1.006-2.38-2.258 0-1.243 1.066-2.255 2.38-2.255h87.197c1.308 0 2.372 1.012 2.372 2.255z"/></g><g opacity=".2" fill="#444"><path d="M171.935 66.575A32.67 32.67 0 0 1 154.898 84.7a32.647 32.647 0 0 1 17.037 18.128 32.654 32.654 0 0 1 17.045-18.13 32.663 32.663 0 0 1-17.045-18.123zM185.49 71.44a15.92 15.92 0 0 1 8.32-8.86 15.946 15.946 0 0 1-8.32-8.86 15.994 15.994 0 0 1-8.33 8.86 15.973 15.973 0 0 1 8.33 8.86zM168.553 61.362a23.068 23.068 0 0 1-12.026-12.79 23.045 23.045 0 0 1-12.016 12.79 23.03 23.03 0 0 1 12.017 12.79 23.043 23.043 0 0 1 12.026-12.79z"/></g><path fill="#FCD22E" d="M60.973 34.59a28.426 28.426 0 0 1-14.816 15.77 28.385 28.385 0 0 1 14.816 15.76c2.646-7.02 8.02-12.69 14.798-15.76-6.78-3.075-12.15-8.75-14.797-15.77z"/><path fill="#FD7600" d="M60.973 42.414a14.388 14.388 0 0 1-7.477 7.945 14.282 14.282 0 0 1 7.477 7.935 14.18 14.18 0 0 1 7.45-7.936 14.282 14.282 0 0 1-7.45-7.946z"/><path fill="#3C3C3B" d="M40.923 227.68v-68.545h83.73v68.544c.06.146.102.293.102.442 0 3.62-18.79 6.56-41.97 6.56-23.177 0-41.968-2.94-41.968-6.56 0-.15.042-.298.106-.443z"/><path fill="#3C3C3B" d="M40.908 159.135h83.728v61.187H40.908z"/><path opacity=".2" fill="#FFF" d="M101.622 233.982v-74.848h17.35v72.307c-4.092 1.087-10.12 1.975-17.35 2.542z"/><path opacity=".5" fill="#1D1D1B" d="M124.77 170.77c-11.017 1.555-25.6 2.5-41.597 2.5-16.256 0-31.05-.978-42.13-2.578v-11.494h83.727v11.57z"/><g opacity=".2"><path fill="#444" d="M163.517 132.208a2.764 2.764 0 0 1-2.764 2.764H95.53a2.764 2.764 0 0 1 0-5.528h65.223a2.765 2.765 0 0 1 2.764 2.764zM163.517 121.208a2.764 2.764 0 0 1-2.764 2.764H95.53a2.764 2.764 0 0 1 0-5.528h65.223a2.765 2.765 0 0 1 2.764 2.764zM163.517 110.208a2.764 2.764 0 0 1-2.764 2.764H95.53a2.764 2.764 0 0 1 0-5.528h65.223a2.765 2.765 0 0 1 2.764 2.764zM163.517 99.208a2.764 2.764 0 0 1-2.764 2.764H95.53a2.764 2.764 0 0 1 0-5.528h65.223a2.765 2.765 0 0 1 2.764 2.764zM163.517 88.208a2.764 2.764 0 0 1-2.764 2.764H95.53a2.764 2.764 0 0 1 0-5.528h65.223a2.765 2.765 0 0 1 2.764 2.764z"/></g><path opacity=".5" fill="#1D1D1B" d="M40.923 227.68v-68.545h9.043v73.07c-5.72-1.12-9.148-2.54-9.148-4.083 0-.15.04-.298.105-.443z"/><ellipse fill="#575756" cx="83.038" cy="160.218" rx="62.183" ry="9.743"/><ellipse fill="#706F6F" cx="83.038" cy="159.135" rx="62.183" ry="9.746"/><path fill="#3C3C3B" d="M41.173 159.135c0 3.62 18.744 6.557 41.863 6.557 23.12 0 41.863-2.936 41.863-6.557 0-3.626-18.744-6.562-41.864-6.562-23.12 0-41.863 2.936-41.863 6.562z"/><g><path fill="#D0DEFF" d="M139.964 137.625L79.82 168.69l-37.857-73.3 60.144-31.063z"/><path opacity=".2" fill="#444" d="M79.823 168.683l60.145-31.06-98.002-42.24z"/><g opacity=".3"><circle cx="94.166" cy="85.496" r="8.67"/><path d="M52.345 101.783a2.296 2.296 0 0 0 3.09.988L80.59 89.78a2.297 2.297 0 0 0 .986-3.093 2.292 2.292 0 0 0-3.093-.985L53.33 98.69a2.293 2.293 0 0 0-.985 3.093zM56.207 109.26a2.292 2.292 0 0 0 3.092.986l25.153-12.988a2.296 2.296 0 0 0 .985-3.095 2.3 2.3 0 0 0-3.094-.985l-25.15 12.99a2.296 2.296 0 0 0-.987 3.092zM60.99 120.195a2.3 2.3 0 0 0 3.095.988l46.68-24.11a2.295 2.295 0 0 0-2.11-4.077l-46.676 24.11a2.295 2.295 0 0 0-.99 3.09zM64.854 127.675a2.294 2.294 0 0 0 3.092.985l46.68-24.108a2.297 2.297 0 0 0 .988-3.094 2.298 2.298 0 0 0-3.092-.983L65.84 124.58a2.303 2.303 0 0 0-.986 3.095zM68.93 135.57a2.296 2.296 0 0 0 3.096.985l46.68-24.108a2.295 2.295 0 0 0-2.107-4.078l-46.684 24.108a2.3 2.3 0 0 0-.984 3.092zM72.796 143.05a2.293 2.293 0 0 0 3.092.984l46.68-24.108a2.296 2.296 0 0 0 .986-3.092 2.293 2.293 0 0 0-3.094-.985l-46.678 24.104a2.295 2.295 0 0 0-.986 3.096zM77.125 151.43a2.29 2.29 0 0 0 3.092.987l46.68-24.108a2.293 2.293 0 0 0 .987-3.096 2.303 2.303 0 0 0-3.094-.985l-46.68 24.106a2.298 2.298 0 0 0-.985 3.095zM80.985 158.91a2.294 2.294 0 0 0 3.092.986l46.684-24.107a2.295 2.295 0 0 0 .984-3.094 2.29 2.29 0 0 0-3.09-.987l-46.68 24.11a2.295 2.295 0 0 0-.99 3.09z"/></g></g><path opacity=".8" fill="#FCD22E" d="M181.696 85.027s-91.705-8.506-102.96 82.76c.62-1.938 2.265 1.81 2.93 0 26.337-71.69 86.892-53.393 98.483-42.463 11.88 11.203 1.546-40.297 1.546-40.297z"/><path fill="#706F6F" d="M41.634 160.21c2.54 3.244 20.162 5.758 41.535 5.758 21.375 0 38.997-2.514 41.537-5.757h20.43c-2.618 5.006-29.36 8.94-61.968 8.94s-59.35-3.935-61.968-8.94h20.432z"/><g><path fill="#FCD22E" d="M67.33 132.974a24.254 24.254 0 0 0 12.63 13.447 24.237 24.237 0 0 0-12.63 13.444 24.225 24.225 0 0 0-12.646-13.443 24.24 24.24 0 0 0 12.645-13.446z"/><path fill="#FD7600" d="M67.33 139.65a12.217 12.217 0 0 0 6.37 6.77 12.134 12.134 0 0 0-6.37 6.768 12.162 12.162 0 0 0-6.367-6.767 12.238 12.238 0 0 0 6.366-6.77z"/></g><g><path fill="#666" d="M234.47 131.42l-.096-46.794c0-.624-.54-1.127-1.205-1.125l-61.058.124c-.664.002-1.2.507-1.2 1.132l.093 46.792 63.465-.127z"/><path fill="#FF555A" d="M227.235 113.158c.01 4.562-3.268 8.267-7.322 8.274l-35.23.073c-4.054.008-7.35-3.684-7.355-8.246l-.023-11.557c-.01-4.562 3.268-8.267 7.322-8.272l35.232-.07c4.052-.01 7.345 3.68 7.354 8.24l.02 11.558z"/><path fill="#FFF" d="M210.747 107.107l-13.195 7.655-.03-15.254z"/></g><path opacity=".4" fill="#3C3C3B" d="M215.52 107.97v30.872s6.64-7.27 6.688-7.028c.048.243 4.994 13.278 4.994 13.278l3.535-1.405-5.043-12.916 9.454.63-19.63-23.43z"/><path fill="#FCD22E" d="M217.42 106.068v30.87s6.64-7.268 6.69-7.026c.048.242 4.992 13.277 4.992 13.277l3.535-1.406-5.04-12.917 9.453.63-19.63-23.43z"/><g><path fill="#FCD22E" d="M167.866 62.008a32.668 32.668 0 0 1-17.04 18.125 32.644 32.644 0 0 1 17.04 18.127 32.635 32.635 0 0 1 17.044-18.127 32.657 32.657 0 0 1-17.044-18.125z"/><path fill="#FD7600" d="M167.866 71a16.473 16.473 0 0 1-8.59 9.133 16.406 16.406 0 0 1 8.59 9.13 16.42 16.42 0 0 1 8.578-9.13A16.49 16.49 0 0 1 167.866 71z"/><path fill="#FCD22E" d="M181.423 49.15a15.988 15.988 0 0 1-8.333 8.86 15.978 15.978 0 0 1 8.333 8.862 15.916 15.916 0 0 1 8.32-8.86 15.925 15.925 0 0 1-8.32-8.862z"/><path fill="#FD7600" d="M181.423 53.545a8.08 8.08 0 0 1-4.203 4.467 8.024 8.024 0 0 1 4.203 4.462 7.972 7.972 0 0 1 4.19-4.462 8.025 8.025 0 0 1-4.19-4.467z"/><g><path fill="#FCD22E" d="M152.458 44.005a23.06 23.06 0 0 1-12.017 12.792 23.023 23.023 0 0 1 12.018 12.786 23.02 23.02 0 0 1 12.025-12.786 23.06 23.06 0 0 1-12.025-12.792z"/><path fill="#FD7600" d="M152.458 50.354a11.64 11.64 0 0 1-6.06 6.442 11.54 11.54 0 0 1 6.06 6.435 11.555 11.555 0 0 1 6.056-6.434 11.65 11.65 0 0 1-6.056-6.442z"/></g></g><g opacity=".2"><path fill="#444" d="M312.667 132.208a2.764 2.764 0 0 1-2.764 2.764H244.68a2.764 2.764 0 0 1 0-5.528h65.223a2.764 2.764 0 0 1 2.764 2.764zM312.667 121.208a2.764 2.764 0 0 1-2.764 2.764H244.68a2.764 2.764 0 0 1 0-5.528h65.223a2.764 2.764 0 0 1 2.764 2.764zM312.667 110.208a2.764 2.764 0 0 1-2.764 2.764H244.68a2.764 2.764 0 0 1 0-5.528h65.223a2.764 2.764 0 0 1 2.764 2.764zM312.667 99.208a2.764 2.764 0 0 1-2.764 2.764H244.68a2.764 2.764 0 0 1 0-5.528h65.223a2.764 2.764 0 0 1 2.764 2.764zM312.667 88.208a2.764 2.764 0 0 1-2.764 2.764H244.68a2.764 2.764 0 0 1 0-5.528h65.223a2.764 2.764 0 0 1 2.764 2.764z"/></g><path opacity=".2" fill-rule="evenodd" clip-rule="evenodd" fill="#FFF" d="M326.47.444H169.62c27.29 44.258 84.148 136 120.884 195h35.967c5.358 0 9.21-3.696 9.21-12.22V5.933c0-1.364-3.852-5.49-9.21-5.49z"/></svg>