<svg xmlns="http://www.w3.org/2000/svg" width="412.471" height="246.176" viewBox="0 0 412.471 246.176"><path fill="#F4F4F4" d="M412.47 223.852c0 9.664-82.168 17.492-183.532 17.492-101.36 0-183.525-7.828-183.525-17.492 0-9.658 82.166-17.488 183.525-17.488 101.364 0 183.533 7.83 183.533 17.488z"/><path fill="#8E8E8E" d="M337.138 217.012v-33"/><path opacity=".6" fill="#FFF" d="M337.138 193.012v-9"/><path fill="#D8D8D8" d="M374.138 60.496c0-5.238-4.247-9.484-9.485-9.484h-238.03c-5.238 0-9.485 4.246-9.485 9.484v146.03c0 5.24 4.247 9.485 9.485 9.485h238.03c5.237 0 9.484-4.245 9.484-9.483V60.497z"/><path fill="#C4C4C4" d="M387.494 215.43a4.03 4.03 0 0 1-4.034 4.035H107.1a4.034 4.034 0 0 1-4.032-4.034V211.6c0-2.23 1.81-4.035 4.033-4.035h276.36a4.032 4.032 0 0 1 4.034 4.035v3.833z"/><path opacity=".18" fill="#010101" d="M285.618 207.127v2.007a2.107 2.107 0 0 1-2.108 2.107h-74.22a2.108 2.108 0 0 1-2.107-2.106v-2.007"/><path fill="#4C4C4C" d="M249.087 58.91a2.685 2.685 0 0 1-2.687 2.688 2.687 2.687 0 1 1 2.687-2.688z"/><path fill-rule="evenodd" clip-rule="evenodd" fill="#FFE4C0" d="M130.024 67.616h230.954v127.688H130.024z"/><path fill-rule="evenodd" clip-rule="evenodd" fill="#464646" d="M130.024 66.063h230.954v16.274H130.024z"/><path fill-rule="evenodd" clip-rule="evenodd" fill="#27ADE2" d="M130.024 82.492h230.632v45.372H130.024z"/><path fill="#FFF" d="M358.592 128.166c.826-.442 1.62-.923 2.383-1.438v-3.888a23.713 23.713 0 0 1-4.122 2.727l-4.883-10.78 9.005-4.085v-2.745l-10.045 4.546-3.26-7.19 12.688-5.748c.22.504.42 1.014.617 1.525v-5.606a43.352 43.352 0 0 0-4.076-6.004l4.075-1.848v-4.99h-6.763c1.913.71 3.735 1.67 5.412 2.852l-4.412 2a62.224 62.224 0 0 0-4.86-4.852h-3.762c1.976 1.7 4.154 3.66 6.267 5.918l-10.6 4.802-4.802-10.59c.122-.046.24-.085.36-.13h-6.757c-10.55 7.14-14.74 21.043-9.31 33.04a26.56 26.56 0 0 0 11.68 12.485h12.58c-2.36-2.044-5.01-4.453-7.476-7.29l11.15-5.056 4.885 10.78a23.44 23.44 0 0 1-7.07 1.566h11.095zm-3.997-37.647c1.723 2.037 3.333 4.29 4.665 6.79l-12.62 5.716-3.347-7.382 11.302-5.125zm-10.24 13.542l-12.62 5.72c-1.004-2.647-1.635-5.345-2.033-7.98l11.31-5.125 3.344 7.385zm-15.27-15.716a23.296 23.296 0 0 1 6.094-4.542l4.794 10.594-10.6 4.8c-.395-3.997-.333-7.75-.288-10.852zm-2.508 3.08c-.03 2.75.062 5.745.44 8.84l-4.408 1.998a23.638 23.638 0 0 1 3.967-10.837zm-4.086 13.642l4.914-2.228c.457 2.628 1.15 5.3 2.16 7.92l-5.462 2.482a23.29 23.29 0 0 1-1.61-8.174zm2.64 10.454l5.413-2.452c1.155 2.465 2.596 4.718 4.176 6.78l-4.676 2.116a23.448 23.448 0 0 1-4.914-6.444zm17.152 12.393a23.667 23.667 0 0 1-10.076-4.18l4.148-1.875c1.92 2.245 3.972 4.25 5.928 6.055zm-5.394-9.05c-1.578-2.052-3.02-4.3-4.187-6.776l12.69-5.745 3.26 7.193-11.762 5.326z"/><path fill="#FCD22E" d="M146.688 74.2a3.482 3.482 0 0 1-3.48 3.487 3.488 3.488 0 0 1-3.495-3.486 3.49 3.49 0 0 1 3.496-3.486c1.92 0 3.478 1.564 3.478 3.487z"/><path fill="#FF4848" d="M157.32 74.2a3.49 3.49 0 0 1-3.493 3.487 3.487 3.487 0 0 1 0-6.973 3.493 3.493 0 0 1 3.493 3.488z"/><path fill-rule="evenodd" clip-rule="evenodd" fill="#FFF" d="M165.137 74.2a3.07 3.07 0 0 0 3.07 3.07h185.41a3.067 3.067 0 0 0 3.068-3.07 3.067 3.067 0 0 0-3.067-3.067h-185.41a3.07 3.07 0 0 0-3.07 3.068z"/><g opacity=".2" fill="#444"><path d="M189.01 91.467c0 1.224-1.044 2.213-2.33 2.213h-48.863c-1.29 0-2.337-.99-2.337-2.213 0-1.227 1.048-2.222 2.337-2.222h48.863c1.286 0 2.33.995 2.33 2.222zM225.787 101.37c0 1.23-1.044 2.22-2.328 2.22h-85.644c-1.29 0-2.337-.99-2.337-2.22 0-1.226 1.047-2.216 2.336-2.216h85.643c1.283 0 2.327.99 2.327 2.216zM225.787 111.143c0 1.228-1.044 2.215-2.328 2.215h-85.644c-1.29 0-2.337-.987-2.337-2.215 0-1.224 1.047-2.21 2.336-2.21h85.643c1.283 0 2.327.986 2.327 2.21zM225.787 120.903c0 1.23-1.044 2.218-2.328 2.218h-85.644c-1.29 0-2.337-.986-2.337-2.217 0-1.222 1.047-2.214 2.336-2.214h85.643c1.283 0 2.327.992 2.327 2.213z"/></g><g opacity=".2" fill="#444"><path d="M213.938 116.402a32.074 32.074 0 0 1-16.733 17.8 32.074 32.074 0 0 1 16.733 17.805 32.096 32.096 0 0 1 16.74-17.805 32.093 32.093 0 0 1-16.74-17.8zM227.254 121.182a15.633 15.633 0 0 1 8.17-8.704 15.65 15.65 0 0 1-8.17-8.7 15.714 15.714 0 0 1-8.183 8.7 15.7 15.7 0 0 1 8.184 8.704zM210.618 111.283a22.657 22.657 0 0 1-11.812-12.562 22.637 22.637 0 0 1-11.802 12.563 22.617 22.617 0 0 1 11.802 12.56 22.627 22.627 0 0 1 11.812-12.56z"/></g><g opacity=".2"><path fill="#444" d="M205.67 180.863c0 1.5-1.214 2.715-2.712 2.715h-64.06a2.716 2.716 0 0 1 0-5.43h64.06a2.715 2.715 0 0 1 2.713 2.715zM205.67 170.062a2.713 2.713 0 0 1-2.712 2.713h-64.06a2.715 2.715 0 0 1-2.714-2.713c0-1.5 1.216-2.718 2.715-2.718h64.058a2.716 2.716 0 0 1 2.713 2.718zM205.67 159.257c0 1.5-1.214 2.714-2.712 2.714h-64.06a2.714 2.714 0 0 1 0-5.428h64.06a2.713 2.713 0 0 1 2.713 2.715zM205.67 148.45c0 1.5-1.214 2.718-2.712 2.718h-64.06a2.715 2.715 0 0 1 0-5.43h64.06a2.714 2.714 0 0 1 2.713 2.714zM205.67 137.648c0 1.5-1.214 2.716-2.712 2.716h-64.06a2.715 2.715 0 0 1 0-5.43h64.06a2.714 2.714 0 0 1 2.713 2.714z"/></g><path opacity=".8" fill="#FCD22E" d="M223.525 134.525s-55.506-42.15-101.12 18.12c.607-1.9 6.037.404 7.62-.64 50.607-33.316 71.614 17.476 83 28.21 11.668 11.004 10.5-45.69 10.5-45.69z"/><path fill="#666" d="M275.356 180.09l-.094-45.96c0-.612-.53-1.105-1.185-1.103l-59.966.12c-.65.004-1.18.5-1.18 1.112l.094 45.955 62.332-.124z"/><path fill="#FF555A" d="M268.253 162.153c.01 4.48-3.21 8.12-7.193 8.127l-34.603.07c-3.98.01-7.218-3.616-7.224-8.097l-.02-11.35c-.01-4.48 3.21-8.118 7.19-8.123l34.603-.072c3.98-.008 7.214 3.613 7.224 8.093l.023 11.353z"/><path fill="#FFF" d="M252.058 156.21l-12.96 7.52-.032-14.983z"/><path opacity=".4" fill="#3C3C3B" d="M256.744 157.058v30.32s6.52-7.14 6.57-6.903c.048.24 4.905 13.04 4.905 13.04l3.47-1.38-4.95-12.685 9.284.62-19.28-23.012z"/><path fill="#FCD22E" d="M258.612 155.19v30.32s6.522-7.14 6.57-6.903c.05.238 4.903 13.04 4.903 13.04l3.472-1.38-4.95-12.687 9.284.62-19.278-23.01zM209.943 111.917a32.078 32.078 0 0 1-16.735 17.8 32.073 32.073 0 0 1 16.735 17.804 32.048 32.048 0 0 1 16.74-17.803 32.05 32.05 0 0 1-16.74-17.8z"/><path fill="#FD7600" d="M209.943 120.748a16.187 16.187 0 0 1-8.438 8.97 16.14 16.14 0 0 1 8.438 8.966 16.135 16.135 0 0 1 8.424-8.967 16.19 16.19 0 0 1-8.424-8.97z"/><path fill="#FCD22E" d="M223.257 99.29a15.7 15.7 0 0 1-8.183 8.702 15.684 15.684 0 0 1 8.183 8.704 15.636 15.636 0 0 1 8.173-8.704 15.653 15.653 0 0 1-8.173-8.703z"/><path fill="#FD7600" d="M223.257 103.604a7.934 7.934 0 0 1-4.128 4.39 7.884 7.884 0 0 1 4.127 4.383 7.837 7.837 0 0 1 4.116-4.384 7.884 7.884 0 0 1-4.116-4.39z"/><path fill="#FCD22E" d="M86.627 0a15.697 15.697 0 0 1-8.182 8.702 15.682 15.682 0 0 1 8.182 8.704A15.64 15.64 0 0 1 94.8 8.702 15.655 15.655 0 0 1 86.627 0z"/><path fill="#FD7600" d="M86.627 4.314A7.928 7.928 0 0 1 82.5 8.702a7.882 7.882 0 0 1 4.127 4.384 7.842 7.842 0 0 1 4.117-4.384 7.88 7.88 0 0 1-4.117-4.388z"/><path fill="#FCD22E" d="M194.812 94.234a22.642 22.642 0 0 1-11.804 12.564 22.616 22.616 0 0 1 11.804 12.557 22.61 22.61 0 0 1 11.81-12.557 22.63 22.63 0 0 1-11.81-12.564z"/><path fill="#FD7600" d="M194.812 100.47a11.435 11.435 0 0 1-5.954 6.33 11.333 11.333 0 0 1 5.954 6.318 11.327 11.327 0 0 1 5.948-6.32 11.43 11.43 0 0 1-5.948-6.327z"/><g><path fill="#FCD22E" d="M106.35 16.517A22.647 22.647 0 0 1 94.547 29.08 22.618 22.618 0 0 1 106.35 41.64a22.61 22.61 0 0 1 11.81-12.557 22.64 22.64 0 0 1-11.81-12.563z"/><path fill="#FD7600" d="M106.35 22.753a11.435 11.435 0 0 1-5.954 6.328 11.33 11.33 0 0 1 5.954 6.32 11.323 11.323 0 0 1 5.948-6.32 11.43 11.43 0 0 1-5.948-6.327z"/></g><g opacity=".2"><path fill="#444" d="M352.158 180.863c0 1.5-1.216 2.715-2.714 2.715h-64.058a2.713 2.713 0 0 1-2.714-2.715 2.714 2.714 0 0 1 2.714-2.715h64.058a2.716 2.716 0 0 1 2.714 2.715zM352.158 170.062a2.714 2.714 0 0 1-2.714 2.713h-64.058a2.715 2.715 0 0 1 0-5.43h64.058a2.717 2.717 0 0 1 2.714 2.717zM352.158 159.257c0 1.5-1.216 2.714-2.714 2.714h-64.058a2.713 2.713 0 0 1-2.714-2.713c0-1.5 1.213-2.714 2.714-2.714h64.058a2.714 2.714 0 0 1 2.714 2.714zM352.158 148.45c0 1.5-1.216 2.718-2.714 2.718h-64.058a2.715 2.715 0 0 1-2.714-2.717 2.713 2.713 0 0 1 2.714-2.712h64.058a2.715 2.715 0 0 1 2.714 2.713zM352.158 137.648c0 1.5-1.216 2.716-2.714 2.716h-64.058a2.714 2.714 0 0 1-2.714-2.716c0-1.5 1.213-2.714 2.714-2.714h64.058a2.715 2.715 0 0 1 2.714 2.714z"/></g><path fill="#F4F4F4" d="M151.105 232.48c0 7.566-27.313 13.696-61.01 13.696-33.693 0-61.008-6.13-61.008-13.697 0-7.565 27.314-13.698 61.007-13.698 33.698 0 61.01 6.132 61.01 13.697z"/><path opacity=".2" fill="#444" d="M119.536 54.608l-.935 1.067-1.352 9.69-2.02 92.31 4.84 61.335h24.07v-49.95V165.437c13-1.932 21.897-4.722 21.897-7.824 0-.197-.168-.393-.235-.587.067-.194-.008-.39-.008-.587 0-3.878-13.343-7.262-33.21-9.098l27.51-14.207-40.556-78.527z"/><g><path fill="#3D5A9B" d="M42.692 140.63c-.834 1.41-2.546 1.94-3.82 1.19L1.244 119.562c-1.273-.756-1.63-2.51-.792-3.923l12.853-21.732c.836-1.412 2.55-1.944 3.82-1.19l37.625 22.255c1.275.754 1.632 2.51.8 3.922L42.69 140.63z"/><path fill="#FFF" d="M24.1 114.596l-5.195 8.787-5.264-3.115 4.504-9.196 5.957 3.524m.513-.857l-5.958-3.528a1 1 0 0 0-1.4.422l-4.51 9.195a.996.996 0 0 0 .385 1.297l5.266 3.113a1 1 0 0 0 1.368-.35l5.193-8.79a.993.993 0 0 0-.344-1.36z"/><path opacity=".15" fill="#FFF" d="M18.82 121.54a.72.72 0 0 0-.255-.982.716.716 0 0 0-.73 1.233c.34.204.78.09.986-.25z"/><path fill="#FFF" d="M18.793 121.436a.723.723 0 0 0-.252-.986.72.72 0 0 0-.985.252c-.2.34-.09.78.253.988a.73.73 0 0 0 .985-.254z"/><path fill="#FFF" d="M18.692 121.375a.603.603 0 0 0-.217-.824.59.59 0 0 0-.815.216.595.595 0 0 0 .21.82c.283.163.65.072.822-.21z"/><path opacity=".5" fill="#FFF" d="M18.34 121.03a.32.32 0 0 0-.11-.44.322.322 0 0 0-.434.112.315.315 0 0 0 .11.437c.147.088.347.044.435-.11z"/><g fill="#FFF"><path d="M18.17 120.93c.014-.03.006-.064-.023-.078-.026-.02-.062-.01-.08.02-.014.022-.002.06.023.075.028.017.06.01.08-.017zM18.024 121.174c.014-.028.01-.063-.022-.08-.024-.017-.063-.01-.08.02-.012.027-.005.067.022.082a.06.06 0 0 0 .08-.022zM18.395 121.062c.018-.025.01-.058-.018-.078a.062.062 0 0 0-.08.024c-.015.026-.004.057.02.073.03.02.06.005.078-.018zM18.25 121.307a.06.06 0 0 0-.017-.082c-.03-.013-.063-.004-.078.026-.017.028-.012.063.017.08.03.017.064.005.078-.023z"/></g><path fill="#FFF" d="M39.908 123.236c.296-.5.368-1.07.198-1.603-.118-.365-.41-.9-1.14-1.33l-5.292-3.127c.925-1.07 2.073-2.493 2.137-2.573.046-.06.083-.118.115-.18.823-1.637.944-4.096.947-4.2a1.037 1.037 0 0 0-.194-.647c-.285-.375-.604-.68-.964-.892-.74-.437-1.503-.396-1.933-.225a1.03 1.03 0 0 0-.51.44c-.01.02-1.145 2.06-1.512 2.692-.703.596-4.882 2.77-5.635 2.922-.42.074-1.164.11-1.815.12l-.592 1.01c.32-.002.776-.007 1.238-.03.04-.003.084-.004.128-.006.07 0 .142-.008.208-.01l.118-.01a9.36 9.36 0 0 0 .326-.024l.265-.027c.016 0 .035-.004.05-.003.09-.015.178-.023.25-.037.943-.162 5.962-2.793 6.27-3.313.308-.518 1.578-2.796 1.578-2.796l.012-.005a.07.07 0 0 1 .016-.01c.01 0 .02 0 .038-.005a.052.052 0 0 1 .027-.01c.02-.005.043-.004.07-.01a.086.086 0 0 1 .043-.008c.023 0 .042-.003.062-.003.02 0 .037 0 .056-.002.037 0 .076 0 .116.005a.888.888 0 0 0 .067.01c.03.003.06.004.09.01a.47.47 0 0 0 .074.018c.05.013.1.03.153.054.02.004.045.02.068.027.043.02.08.036.126.06a.36.36 0 0 0 .044.022l.027.018c.02.016.043.025.062.04.032.026.06.046.093.07.03.02.06.046.09.073.02.017.047.036.067.06.047.037.092.09.135.138a.1.1 0 0 1 .03.032c.055.054.108.127.164.2 0 0-.104 2.334-.843 3.805 0 0-2.146 2.658-2.917 3.434 0 0 5.053 2.99 6.34 3.75 1.876 1.11-.183 3.125-2.062 2.012 1.88 1.113-.186 3.125-2.064 2.013 1.88 1.112-.183 3.12-2.062 2.012 1.88 1.11-.18 3.128-2.062 2.013-.983-.58-5.04-2.98-7.854-4.646-.61-.358-.752-1.376-1.195-1.642-.21-.12-.396-.23-.557-.325-.405-.24-.648-.386-.648-.386s-.02-.046-.043-.133l-.55.936c.023.018.052.044.082.062l1.142.673c.05.068.125.226.178.333.213.422.505 1 1.084 1.342l7.853 4.646c1.572.933 3.354.342 4.023-.792.153-.263.244-.538.275-.816.772-.154 1.436-.6 1.784-1.192a2.06 2.06 0 0 0 .28-.818c.772-.155 1.43-.602 1.782-1.2.153-.26.247-.533.274-.813.78-.158 1.438-.6 1.79-1.2z"/><path fill="#09A5B5" d="M57.557 70.05a7.17 7.17 0 0 1-5.618 8.448l-19.716 3.958a7.178 7.178 0 0 1-8.455-5.623L19.814 57.12c-.783-3.886 1.732-7.677 5.62-8.453l19.715-3.96a7.177 7.177 0 0 1 8.45 5.622l3.957 19.72z"/><g fill="#FFF"><path d="M44.305 54.13l-12.527 4.82-.363-1.817 12.523-4.823zM44.828 56.74l-12.524 4.82-.368-1.82 12.526-4.817z"/><path d="M31.408 57.135l.863-.173 3.07 15.222-.863.174zM43.098 52.725l.864-.175 3.083 15.22-.864.176z"/><path d="M46.956 67.337c.27 1.335-.623 2.638-1.992 2.914-1.358.274-2.684-.586-2.952-1.922-.268-1.334.62-2.637 1.984-2.912 1.363-.274 2.692.586 2.96 1.92z"/><ellipse transform="rotate(-11.344 32.777 72.22)" cx="32.766" cy="72.202" rx="2.521" ry="2.463"/></g><path fill="#FCD22E" d="M66.054 21.52a30.796 30.796 0 0 1-16.052 17.083 30.762 30.762 0 0 1 16.052 17.072c2.866-7.605 8.686-13.747 16.03-17.072-7.345-3.33-13.164-9.478-16.03-17.082z"/><path fill="#FD7600" d="M66.054 29.997a15.585 15.585 0 0 1-8.1 8.606 15.476 15.476 0 0 1 8.1 8.597 15.358 15.358 0 0 1 8.07-8.597 15.465 15.465 0 0 1-8.07-8.606z"/><path fill="#3C3C3B" d="M44.332 230.694V156.44h90.705v74.254c.066.16.11.32.11.48 0 3.923-20.354 7.105-45.464 7.105-25.108 0-45.466-3.184-45.466-7.105 0-.16.048-.32.115-.48z"/><path fill="#3C3C3B" d="M44.317 156.44h90.702v66.284H44.316z"/><path opacity=".2" fill="#FFF" d="M110.087 237.524V156.44h18.796v78.33c-4.433 1.177-10.965 2.138-18.796 2.754z"/><path opacity=".5" fill="#1D1D1B" d="M135.165 169.044c-11.936 1.686-27.734 2.71-45.062 2.71-17.61 0-33.637-1.06-45.64-2.793V156.51h90.702v12.536z"/><path opacity=".5" fill="#1D1D1B" d="M44.332 230.694V156.44h9.797v79.157c-6.196-1.212-9.912-2.75-9.912-4.422 0-.16.047-.32.114-.48z"/><path fill="#575756" d="M22.593 157.614c0 5.828 30.156 10.555 67.36 10.555s67.367-4.728 67.367-10.556c0-5.83-30.163-10.56-67.367-10.56s-67.36 4.73-67.36 10.56z"/><path fill="#706F6F" d="M22.593 156.44c0 5.83 30.156 10.558 67.36 10.558s67.367-4.728 67.367-10.558-30.163-10.555-67.367-10.555-67.36 4.724-67.36 10.555z"/><path fill="#3C3C3B" d="M44.604 156.44c0 3.924 20.305 7.104 45.35 7.104 25.048 0 45.352-3.18 45.352-7.104 0-3.928-20.304-7.107-45.352-7.107-25.046 0-45.35 3.18-45.35 7.107z"/><g><path fill="#D0DEFF" d="M86.474 166.783l65.154-33.646-41.006-79.408-65.16 33.65z"/><path opacity=".2" fill="#444" d="M86.474 166.783l65.154-33.646L45.462 87.38z"/><g opacity=".3"><path d="M93.665 80.978c2.38 4.612 8.046 6.42 12.654 4.036 4.612-2.38 6.42-8.047 4.037-12.656-2.38-4.61-8.048-6.416-12.657-4.033-4.61 2.38-6.415 8.045-4.035 12.653zM56.705 94.312a2.488 2.488 0 0 0 3.35 1.07l27.247-14.07a2.49 2.49 0 0 0 1.072-3.354 2.488 2.488 0 0 0-3.353-1.067L57.775 90.96a2.487 2.487 0 0 0-1.07 3.352zM60.89 102.41a2.484 2.484 0 0 0 3.35 1.07l27.25-14.072a2.486 2.486 0 0 0 1.067-3.352 2.492 2.492 0 0 0-3.353-1.067L61.96 99.06a2.486 2.486 0 0 0-1.07 3.35zM66.072 114.257a2.494 2.494 0 0 0 3.352 1.07l50.568-26.116a2.492 2.492 0 0 0 1.07-3.35 2.484 2.484 0 0 0-3.354-1.066L67.144 110.91a2.485 2.485 0 0 0-1.072 3.347zM70.258 122.36a2.485 2.485 0 0 0 3.35 1.067l50.567-26.116a2.487 2.487 0 0 0 1.07-3.352 2.49 2.49 0 0 0-3.35-1.064l-50.57 26.112a2.496 2.496 0 0 0-1.067 3.354zM74.673 130.912a2.49 2.49 0 0 0 3.354 1.068l50.568-26.116a2.486 2.486 0 0 0-2.283-4.42L75.74 127.563a2.49 2.49 0 0 0-1.067 3.35zM78.86 139.016a2.485 2.485 0 0 0 3.35 1.067l50.57-26.118a2.485 2.485 0 1 0-2.286-4.415l-50.566 26.112a2.488 2.488 0 0 0-1.07 3.354zM83.55 148.096a2.48 2.48 0 0 0 3.35 1.067l50.567-26.116a2.483 2.483 0 0 0 1.07-3.353 2.493 2.493 0 0 0-3.35-1.067l-50.57 26.115a2.49 2.49 0 0 0-1.066 3.354zM87.73 156.198a2.485 2.485 0 0 0 3.35 1.067l50.573-26.115a2.487 2.487 0 0 0 1.067-3.35 2.482 2.482 0 0 0-3.348-1.07l-50.568 26.12a2.486 2.486 0 0 0-1.073 3.348z"/></g></g><path fill="#706F6F" d="M45.103 157.607c2.75 3.513 21.842 6.236 44.995 6.236 23.157 0 42.247-2.724 45-6.236h22.13c-2.836 5.422-31.806 9.683-67.13 9.683-35.323 0-64.294-4.26-67.13-9.683h22.135z"/><g><path fill="#FCD22E" d="M72.938 128.1a26.276 26.276 0 0 0 13.685 14.568 26.26 26.26 0 0 0-13.685 14.563 26.23 26.23 0 0 0-13.696-14.562A26.264 26.264 0 0 0 72.938 128.1z"/><path fill="#FD7600" d="M72.938 135.333a13.235 13.235 0 0 0 6.903 7.335 13.148 13.148 0 0 0-6.902 7.33 13.167 13.167 0 0 0-6.895-7.33 13.262 13.262 0 0 0 6.895-7.335z"/></g></g></svg>