<svg xmlns="http://www.w3.org/2000/svg" width="318.711" height="290.465" viewBox="0 0 318.711 290.465"><path fill="#9D9D9C" d="M72.017 146.182l52.71-45.516c8.08 6.312 19.75 6.257 27.805-.7 6.597-5.696 8.97-14.47 6.828-22.353l5.083-4.387c.318-.276.3-.815-.04-1.21l-1.243-1.437 8.996-7.77a.784.784 0 0 0 .177.038l8.8.645c.417.03.78-.28.808-.695l.646-8.802c.002-.04 0-.08-.003-.12l5.986.438a.554.554 0 0 0 .593-.512l.444-6.06 1.568-1.354c.94-.812 1.474-1.968 1.24-3.386l-1.395-6.16-.29-1.288-.71-3.14c-.633-.73-1.91-.667-2.852.147L154.61 60.678l-1.197-1.387c-.338-.39-.87-.49-1.19-.213l-4.994 4.313c-7.54-3.396-16.684-2.367-23.355 3.39-8.175 7.06-9.858 18.834-4.51 27.8L66.718 140.04l5.3 6.14zm58.01-63.088a5.856 5.856 0 1 1 0 0z"/><path fill="#DADADA" d="M180.098 61.876a.75.75 0 0 1-.807.696l-8.8-.644a.758.758 0 0 1-.696-.807l.645-8.8a.753.753 0 0 1 .806-.696l8.8.646c.415.03.727.39.697.807l-.645 8.8z"/><path fill="#DADADA" d="M157.517 76.69l5.082-4.387c.317-.273.3-.813-.04-1.206l-1.243-1.438 28.015-24.192c.942-.814 1.475-1.968 1.243-3.386l-2.397-10.588c-.632-.73-1.91-.667-2.852.146L152.77 59.756l-1.198-1.387c-.338-.394-.87-.487-1.19-.216l-4.995 4.315c-7.538-3.4-16.683-2.368-23.352 3.39-9.165 7.912-10.178 21.755-2.265 30.92 7.912 9.164 21.756 10.177 30.92 2.264 6.596-5.696 8.97-14.468 6.827-22.353zm-29.94 13.744a5.858 5.858 0 0 1 .608-8.26 5.856 5.856 0 0 1 7.654 8.865 5.86 5.86 0 0 1-8.262-.606z"/><path fill="#9D9D9C" d="M188.887 34.633l-30.106 26c-.69.594-.845 1.545-.346 2.124.5.58 1.465.563 2.155-.032l28.99-25.033-.693-3.06z"/><path fill="#DADADA" d="M187.32 52.88a.557.557 0 0 1-.594.514l-6.476-.475a.552.552 0 0 1-.514-.595l.474-6.478a.56.56 0 0 1 .594-.514l6.477.477c.306.02.536.288.515.593l-.475 6.476zM121.013 90.638l5.298 6.136-56.135 48.48-5.3-6.134z"/><path fill="#9D9D9C" d="M127.358 35.795a22.16 22.16 0 0 0-.14-1.17c.095.388.182.78.257 1.174a26.838 26.838 0 0 0-.438-2.244 20.528 20.528 0 0 0-2.412-6.47c-.03-.052-.064-.102-.095-.155a27.407 27.407 0 0 0-14.452-12.745c-14.198-5.42-30.102 1.698-35.523 15.897-4.83 12.653.3 26.653 11.522 33.39L53.115 149.83l19.484 7.438 11.82-30.982-6.13-17.46 18.27-47.913.01-.112a32.484 32.484 0 0 1-2.61-.873c-2.902-1.107-5.384-2.566-7.454-4.38-2.068-1.812-3.652-3.886-4.754-6.22-1.1-2.34-1.68-4.873-1.737-7.604-.056-2.73.478-5.568 1.602-8.512 1.054-2.765 2.497-5.166 4.322-7.205 1.823-2.037 3.897-3.622 6.222-4.757 2.323-1.13 4.848-1.752 7.573-1.86 2.725-.11 5.493.372 8.303 1.443 2.587.99 4.84 2.257 6.753 3.807 1.913 1.546 3.394 3.325 4.44 5.336 1.05 2.008 1.622 4.22 1.723 6.637.1 2.415-.36 4.96-1.38 7.637-1.21 3.168-2.742 5.472-4.594 6.912-1.855 1.438-3.65 1.825-5.39 1.16-.848-.323-1.32-.798-1.41-1.42-.097-.623 0-1.314.29-2.074.256-.668.604-1.353 1.052-2.05.445-.7.833-1.345 1.16-1.935l7.437-11.652-5.956-2.27-1.557 2.47-.068-.024c.032-1.163-.394-2.322-1.28-3.478-.888-1.156-2.178-2.06-3.874-2.707-1.965-.75-3.914-.996-5.852-.738-1.94.258-3.76.878-5.463 1.862-1.706.986-3.22 2.27-4.54 3.862a18.224 18.224 0 0 0-3.058 5.197c-1.226 3.214-1.397 6.138-.514 8.776.883 2.636 2.844 4.533 5.878 5.69 2.01.768 3.885.934 5.635.504 1.75-.432 3.163-1.056 4.242-1.87l.334.126c-.494 1.296-.368 2.57.38 3.826.746 1.26 2.013 2.225 3.797 2.905 1.74.664 3.533.956 5.383.867 1.845-.088 3.646-.587 5.4-1.504 1.755-.914 3.392-2.256 4.912-4.027 1.52-1.77 2.79-3.994 3.81-6.67 1.382-3.615 1.923-7.012 1.63-10.19zm-23.19 7.325a11.204 11.204 0 0 1-2.308 2.532 7.78 7.78 0 0 1-2.942 1.483c-1.08.278-2.22.188-3.425-.272-.893-.34-1.542-.778-1.948-1.317-.41-.54-.68-1.13-.82-1.772a4.846 4.846 0 0 1-.03-1.927c.118-.645.28-1.234.483-1.77.41-1.072.98-2.132 1.713-3.18a12.972 12.972 0 0 1 2.485-2.694c.923-.746 1.906-1.277 2.948-1.597 1.04-.317 2.098-.27 3.17.135.845.327 1.49.776 1.936 1.355.44.58.725 1.21.846 1.895.122.687.117 1.4-.013 2.143-.13.744-.33 1.472-.603 2.185-.34.893-.84 1.827-1.493 2.802z"/><path fill="#DADADA" d="M125.765 34.66a22.373 22.373 0 0 0-.137-1.17c.093.39.18.78.257 1.175a27.63 27.63 0 0 0-.44-2.24 20.532 20.532 0 0 0-2.412-6.472c-.03-.053-.062-.1-.093-.154a27.395 27.395 0 0 0-14.454-12.747C94.288 7.633 78.383 14.75 72.964 28.95c-4.83 12.653.3 26.65 11.52 33.388l-32.96 86.36 19.485 7.437 11.818-30.984-6.13-17.456L94.967 59.78l.01-.112a32.71 32.71 0 0 1-2.607-.874c-2.904-1.11-5.387-2.567-7.456-4.38-2.07-1.812-3.653-3.887-4.754-6.223-1.102-2.336-1.682-4.87-1.738-7.6-.057-2.732.478-5.57 1.6-8.514 1.057-2.765 2.498-5.168 4.323-7.206 1.825-2.037 3.9-3.623 6.224-4.754 2.322-1.133 4.846-1.753 7.572-1.864 2.724-.11 5.492.374 8.303 1.445 2.587.986 4.838 2.256 6.753 3.807 1.913 1.546 3.393 3.324 4.44 5.335 1.048 2.008 1.62 4.22 1.723 6.636.1 2.414-.358 4.96-1.38 7.638-1.21 3.168-2.74 5.47-4.594 6.91-1.852 1.438-3.65 1.826-5.39 1.163-.847-.323-1.318-.796-1.412-1.42-.094-.624.004-1.315.294-2.075a11.43 11.43 0 0 1 1.052-2.053 36.05 36.05 0 0 0 1.16-1.933l7.437-11.652-5.955-2.273-1.558 2.474-.068-.025c.035-1.162-.392-2.32-1.28-3.478-.887-1.155-2.178-2.058-3.873-2.705-1.963-.75-3.914-.995-5.852-.74-1.937.26-3.76.88-5.464 1.863-1.704.986-3.218 2.273-4.54 3.864s-2.343 3.323-3.057 5.197c-1.228 3.213-1.398 6.137-.513 8.776.883 2.638 2.842 4.534 5.876 5.69 2.008.767 3.885.936 5.635.506 1.748-.435 3.16-1.056 4.24-1.872l.334.128c-.493 1.295-.366 2.57.38 3.827.747 1.255 2.012 2.224 3.798 2.904a13.21 13.21 0 0 0 5.382.864c1.845-.087 3.647-.586 5.402-1.502 1.754-.915 3.393-2.257 4.912-4.03 1.52-1.77 2.79-3.994 3.812-6.67 1.38-3.615 1.92-7.01 1.627-10.19zm-23.188 7.327a11.234 11.234 0 0 1-2.308 2.533 7.804 7.804 0 0 1-2.944 1.482c-1.077.28-2.218.187-3.423-.272-.893-.34-1.543-.78-1.95-1.318a4.418 4.418 0 0 1-.82-1.77 4.792 4.792 0 0 1-.03-1.928 9.757 9.757 0 0 1 .484-1.77c.41-1.073.98-2.132 1.71-3.18a12.974 12.974 0 0 1 2.484-2.695c.925-.746 1.91-1.277 2.95-1.598 1.04-.317 2.096-.27 3.168.136.848.323 1.493.774 1.936 1.353.444.58.727 1.213.85 1.897a6.16 6.16 0 0 1-.014 2.14 11.87 11.87 0 0 1-.603 2.187c-.34.893-.837 1.826-1.49 2.803z"/><path fill="#9D9D9C" d="M165.123 213.084c3.948-8.483.273-18.564-8.213-22.516a16.89 16.89 0 0 0-11.2-1.088l.004-.005-14.98 3.646-1.226-.567-54.96-25.583-4.71 10.12 32.125 14.953 7.444-.94 18.3 8.52 6.854 13.81.005-.005a16.853 16.853 0 0 0 8.043 7.87c8.484 3.948 18.565.27 22.515-8.214zm-17.75-1.97a5.703 5.703 0 1 1 4.812-10.34 5.703 5.703 0 0 1-4.81 10.34z"/><path fill="#E8444E" d="M276.876 152.472c0 15.39-12.475 27.864-27.864 27.864H73.532c-15.39 0-27.866-12.475-27.866-27.864 0-15.39 12.476-27.865 27.865-27.865h175.483c15.388 0 27.863 12.475 27.863 27.865z"/><path fill="#C6C6C6" d="M276.876 151.09c0 15.39-12.475 27.863-27.864 27.863H73.532c-15.39 0-27.866-12.474-27.866-27.862 0-15.39 12.476-27.866 27.865-27.866h175.483c15.388 0 27.863 12.475 27.863 27.867z"/><path fill="#DADADA" d="M69.377 175.592l4.712-10.118 57.566 26.796-3.026 6.5-19.685-9.165-7.442.942z"/><path opacity=".2" d="M123.19 192.283l2.83 5.272 2.61 1.214 3.026-6.5-2.61-1.214z"/><path fill="#DADADA" d="M164.662 211.59c3.95-8.486.273-18.567-8.21-22.518a16.884 16.884 0 0 0-11.203-1.086l.003-.007-20.56 5.002 9.406 18.953.002-.008a16.867 16.867 0 0 0 8.044 7.87c8.488 3.95 18.565.276 22.516-8.207zm-17.75-1.976a5.7 5.7 0 1 1 7.574-2.765 5.696 5.696 0 0 1-7.573 2.764z"/><path fill="#EF3F3F" d="M161.97 210.334c3.25-6.984.222-15.287-6.764-18.54a13.88 13.88 0 0 0-9.223-.894l.003-.008-16.93 4.122 7.746 15.605v-.004a13.908 13.908 0 0 0 6.627 6.48c6.987 3.252 15.287.225 18.54-6.762zm-16.304 1.96c-4.333-2.02-6.212-7.168-4.195-11.5a8.655 8.655 0 0 1 11.502-4.196c4.333 2.016 6.212 7.166 4.195 11.5a8.655 8.655 0 0 1-11.5 4.195z"/><path fill="#9D9D9C" d="M299.225 261.896l-6.096-28.08a2.46 2.46 0 0 0-2.927-1.878l-3.605.78c-1.86-1.766-5.578-2.693-10.04-2.526l-15.054-69.342-16.288 3.536 5.066 23.34 7.334 6.81 8.246 37.98c-4.128 1.697-7.13 4.084-8.088 6.462l-3.606.784a2.456 2.456 0 0 0-1.88 2.922l6.097 28.08a2.458 2.458 0 0 0 2.923 1.88l36.037-7.822a2.46 2.46 0 0 0 1.88-2.926z"/><ellipse transform="rotate(167.748 271.515 238.787)" fill="#DADADA" cx="271.505" cy="238.786" rx="15.486" ry="7.298"/><path fill="#DADADA" d="M251.133 243.444a2.46 2.46 0 0 1 1.88-2.924l36.035-7.824a2.46 2.46 0 0 1 2.927 1.88l6.095 28.08a2.458 2.458 0 0 1-1.88 2.926l-36.036 7.823a2.457 2.457 0 0 1-2.923-1.883l-6.097-28.078z"/><path fill="#FF5252" d="M257.09 264.784l1.2 5.52a2.31 2.31 0 0 0 2.744 1.765l33.8-7.34a2.303 2.303 0 0 0 1.766-2.743l-1.197-5.52-38.313 8.317z"/><path fill="#F6F6F6" d="M294.918 255.668l-8.854 1.92-1.424-6.563 8.854-1.92z"/><path fill="#9D9D9C" d="M285.257 257.78l-8.853 1.922-1.424-6.564 8.852-1.92zM275.783 259.855l-8.853 1.922-1.425-6.563 8.853-1.922zM266.092 261.944l-8.852 1.923-1.426-6.563 8.852-1.923zM293.36 248.385l-8.854 1.92-1.424-6.56 8.853-1.923zM283.655 250.504l-8.85 1.922-1.427-6.565 8.852-1.92zM274.22 252.538l-8.85 1.922-1.425-6.563 8.852-1.92zM264.505 254.66l-8.852 1.922-1.427-6.566 8.853-1.923zM291.798 241.226l-8.85 1.92-1.425-6.564 8.85-1.92zM282.096 243.335l-8.85 1.922-1.427-6.563 8.85-1.923z"/><path fill="#F6F6F6" d="M272.64 245.36l-8.85 1.923-1.426-6.564 8.85-1.925zM262.935 247.48l-8.852 1.92-1.424-6.562 8.852-1.92z"/><path fill="#FFF" d="M263.598 267.44a.992.992 0 0 1 .76-1.18l25.042-5.44a.997.997 0 0 1 .423 1.948l-25.042 5.435a.995.995 0 0 1-1.182-.764z"/><path fill="#DADADA" d="M244.062 165.146l16.29-3.537 15.94 73.42-10.7 2.324-9.13-42.06-7.333-6.808z"/><path fill="#9D9D9C" d="M80.526 266.874c.055.003.11.003.166 0 1.85-.026 3.537-.78 4.748-2.12.823-.918 1.803-2.525 1.82-5.015l.065-8.66c1.728.288 3.16.508 3.292.526l.044.007.048.006c.245.025.47.036.693.032l.124-.004.026-.002h.028c4.084-.248 8.558-2.545 9.054-2.807l.02-.013.022-.01a4.745 4.745 0 0 0 2.07-2.23l.018-.038.016-.04c.498-1.202.75-2.382.758-3.51.02-2.64-1.297-4.624-2.537-5.603-.82-.65-1.82-1-2.897-1.012h-.13l-.05.002c-.28.008-1.358.026-2.62.044-1.122.02-2.035.032-2.653.037-1.793-.87-7.21-4.3-8.67-5.492.196-.51.306-1.056.31-1.617l.11-13.403a4.668 4.668 0 0 0-4.73-4.69c-.086.004-.174.007-.26.013l-5.052.357.34-22.104 5.273-9.814.375-24.222-14.67-.227-.883 57.043-5.143.363c-2.408.164-4.313 2.188-4.337 4.603l-.09 11.84a4.614 4.614 0 0 0 1.33 3.3c.234.24.49.45.763.63-.385.817-.705 1.82-.716 2.988l-.136 17.66c-.023 2.396.864 4.638 2.498 6.302 1.49 1.516 3.476 2.394 5.443 2.41H64.434l.095-.002c.265-.002.528-.02.788-.055 1.322.985 2.877 1.534 4.45 1.546.06 0 .123 0 .182-.003.25 0 .496-.018.74-.05 1.326.982 2.886 1.532 4.464 1.543h.15c.256-.004.508-.023.754-.053 1.328.988 2.89 1.538 4.468 1.54zm8.36-29.398h-.002l-.47-.282c.158.093.315.19.47.282z"/><g><path fill="#DADADA" d="M54.71 232.415c.233.24.49.452.762.632-.383.816-.705 1.82-.716 2.987l-.135 17.66c-.02 2.396.867 4.638 2.5 6.302 1.49 1.516 3.475 2.394 5.444 2.41h.027l.097-.002c.266-.002.53-.02.788-.055 1.322.985 2.88 1.534 4.45 1.546.06 0 .123 0 .182-.003.25 0 .496-.018.74-.05 1.325.982 2.887 1.532 4.464 1.543h.152c.256-.004.508-.023.754-.053 1.33.987 2.89 1.537 4.468 1.54.053.003.11.003.167 0 1.85-.026 3.536-.78 4.748-2.12.822-.918 1.804-2.525 1.82-5.015l.063-8.66c1.73.29 3.162.51 3.295.527l.044.007.046.006c.242.026.468.037.69.033.04 0 .082 0 .123-.003l.027-.002h.027c4.086-.248 8.56-2.545 9.054-2.807l.02-.012.022-.01a4.74 4.74 0 0 0 2.07-2.23l.018-.038.016-.038c.497-1.203.75-2.383.758-3.51.02-2.64-1.296-4.625-2.537-5.604-.82-.65-1.823-1-2.897-1.012h-.13l-.052.002c-.28.008-1.356.026-2.62.044-1.122.018-2.033.03-2.652.036-1.793-.87-7.21-4.3-8.67-5.492.196-.51.305-1.056.31-1.617l.11-13.403a4.668 4.668 0 0 0-4.73-4.69c-.087.004-.173.007-.26.013l-19.76 1.396c-2.406.164-4.313 2.188-4.336 4.603l-.09 11.84a4.622 4.622 0 0 0 1.332 3.3zm32.007 5.013l-.196-.265c.177.104.352.212.524.312l-.327-.047z"/><path fill="#3D5A9B" d="M58.024 231.086l1.046.008-.01 1.228c-.066.15-.254.43-.383.622-.497.768-1.18 1.818-1.19 3.116l-.136 17.652c-.034 3.538 2.687 5.944 5.236 5.964.587 0 1.137-.115 1.633-.332 1.008 1.14 2.4 1.814 3.728 1.822a3.933 3.933 0 0 0 1.638-.326c1.016 1.144 2.4 1.808 3.744 1.816a3.817 3.817 0 0 0 1.627-.334c1.02 1.15 2.397 1.82 3.744 1.824 1.125.012 2.15-.423 2.873-1.226.498-.55 1.105-1.558 1.116-3.2l.086-11.89c2.69.507 6.187 1.047 6.38 1.073.148.016.28.023.416.016 3.538-.214 7.768-2.403 7.948-2.496a2.06 2.06 0 0 0 .896-.956c.347-.842.545-1.672.55-2.48.01-1.66-.8-2.898-1.5-3.45a1.977 1.977 0 0 0-1.233-.423c-.048.004-4.566.084-5.975.084-1.68-.595-9.38-5.472-10.366-6.584-.323-.384-.74-.982-1.162-1.636.583-.324.98-.936.99-1.652l.108-13.395a1.927 1.927 0 0 0-.61-1.415 1.927 1.927 0 0 0-1.455-.518l-19.766 1.396c-1 .067-1.786.893-1.795 1.907l-.092 11.836a1.93 1.93 0 0 0 1.914 1.946zm32.03 10.048c1.164.013 6.207-.08 6.207-.08l.024.018.03.015c.012.018.02.037.044.06.017.005.03.015.045.036.026.027.046.067.082.107a.22.22 0 0 1 .057.063c.023.036.046.07.064.104.022.034.04.064.057.087.035.062.077.13.104.202.017.042.03.08.055.12.02.053.044.103.066.16.01.052.023.093.042.14.028.098.05.2.06.31.015.04.015.095.02.143.01.088.017.17.018.268.002.033.01.062.01.094-.002.025-.006.048-.006.064-.005.048 0 .096-.005.14-.013.082-.02.145-.024.225-.006.07-.023.145-.038.22-.01.053-.014.112-.034.174a2.04 2.04 0 0 1-.098.358.17.17 0 0 1-.023.082c-.038.145-.107.306-.175.467 0 0-4.006 2.1-7.185 2.292 0 0-6.535-1.01-8.578-1.542 0 0-.093 11.36-.112 14.247-.035 4.22-5.404 2.734-5.37-1.49-.034 4.225-5.406 2.725-5.373-1.498-.033 4.222-5.398 2.73-5.37-1.497-.028 4.227-5.41 2.738-5.373-1.492.015-2.207.09-11.326.14-17.652.007-1.365 1.57-2.6 1.585-3.595-.003-.473 0-.89.002-1.247v-.125l15.587.117c.104.167.21.336.32.503.044.065.09.138.136.21.073.115.153.23.22.338.042.062.083.126.126.188.095.136.18.27.27.397.036.04.062.084.09.125.107.146.202.284.3.415.02.027.043.056.057.082.11.138.212.274.305.386 1.19 1.415 10.47 7.255 11.638 7.264zm-31.917-23.816l19.76-1.4-.11 13.39-19.75-.15.1-11.84z"/><path fill="#3D5A9B" d="M61.21 224.29a1.376 1.376 0 0 0-1.067.497 1.39 1.39 0 0 0 .896 2.44c.418-.003.792-.192 1.048-.483.3-.253.5-.627.506-1.05a1.4 1.4 0 0 0-1.383-1.405z"/><path fill="#DADADA" d="M78.502 155.494l-14.67-.226-.905 58.505 9.553.15.377-24.392 5.27-9.814z"/></g><path fill="#9D9D9C" d="M219.97 287.134l.445-1.45h.004l1.02-3.342 4.78-15.566c.59.91 1.496 1.63 2.623 1.977 2.505.766 5.145-.592 5.896-3.045.585-1.913-.16-3.924-1.71-5.078l28.755-100.446-2.707-.775-28.706 100.268c-1.793-.086-3.494.843-4.348 2.4l-.09-.03-.25.82c-.005.02-.014.038-.02.058-.005.02-.008.043-.016.063l-5.873 19.14-21.69-2.802 4.843-15.787a4.787 4.787 0 0 0 2.61 1.953c2.502.77 5.14-.595 5.892-3.046.752-2.45-.668-5.06-3.168-5.825-2.23-.68-4.563.316-5.582 2.27l-.052-.02-.103.335c-.063.15-.117.302-.167.458a4.13 4.13 0 0 0-.116.47l-5.82 18.98-.03-.007-1.02 3.336.027.004-.448 1.453-.03-.004-1.024 3.344 25.046 3.228 1.027-3.334zm-23.352-3.02l.446-1.452 21.69 2.804-.445 1.452-21.692-2.804z"/><g fill="#DADADA"><path d="M201.264 257.478l-.103.334c-.063.146-.12.3-.166.456-.05.155-.087.312-.117.468l-5.82 18.98-.028-.007-1.022 3.337.026.003-.444 1.452-.034-.004-1.02 3.342 25.046 3.23 1.02-3.334.448-1.45h.005l1.02-3.34h-.002l4.78-15.566a4.768 4.768 0 0 0 2.627 1.975c2.5.767 5.143-.59 5.893-3.043.75-2.446-.67-5.056-3.174-5.823-2.195-.677-4.5.29-5.54 2.188l-.09-.024-.25.815c-.005.02-.015.038-.02.06l-.016.06-5.873 19.142-21.69-2.804 4.843-15.784c.59.9 1.49 1.61 2.608 1.95 2.506.77 5.144-.593 5.895-3.044.75-2.45-.67-5.06-3.17-5.826-2.232-.68-4.563.317-5.58 2.268l-.05-.014zm16.122 26.592l-.444 1.45-21.692-2.802.447-1.452 21.69 2.804z"/><path d="M230.773 262.287l-2.705-.775 29.66-103.495 2.706.775z"/></g><g><path fill="#9D9D9C" d="M25.596 70.942c1.174 1.097 3.437 1.46 6.113 1.056l32.74 74.426 13.42-5.903-15.607-35.474-9.556-5.036-13.554-30.812c3.142-1.957 5.137-4.454 5.117-6.472l6.676-2.936c.894-.393 1.308-1.416.926-2.282l-12.85-29.21c-.38-.867-1.414-1.253-2.31-.86L4.687 41.528c-.894.394-1.31 1.414-.928 2.283l12.85 29.212c.38.866 1.415 1.253 2.31.857l6.676-2.938z"/><path fill="#DADADA" d="M75.703 141.725l-13.42 5.907L21.28 54.426l7.27-3.197 21.992 49.987 9.555 5.035z"/><ellipse transform="rotate(-23.748 32.336 67.07)" fill="#DADADA" cx="32.337" cy="67.071" rx="10.427" ry="5.125"/><path fill="#DADADA" d="M49.706 58.714c.38.866-.034 1.89-.928 2.282L16.75 75.086c-.893.395-1.926.008-2.31-.857L1.593 45.016c-.382-.867.032-1.892.927-2.28l32.026-14.092c.894-.393 1.928-.01 2.31.858l12.85 29.21z"/><path fill="#878787" d="M34.393 32.49l11.562 26.29L17.09 71.473 5.53 45.184z"/><path fill="#FFF" d="M33.218 38.77l7.316 16.634-22.266 9.793-7.316-16.633zM12.613 43.43l1.024 2.328-3.41 1.5L9.2 44.933zM18.99 40.627l1.02 2.325-3.412 1.5-1.022-2.326zM25.354 37.823l1.024 2.327-3.413 1.503-1.025-2.327zM31.723 35.022l1.024 2.327-3.412 1.5-1.023-2.327z"/><g><path fill="#FFF" d="M22.135 65.067l1.022 2.324-3.412 1.502-1.022-2.325zM28.503 62.267l1.023 2.325-3.413 1.5-1.023-2.325zM34.874 59.465l1.023 2.326-3.41 1.502-1.024-2.326zM41.24 56.66l1.024 2.325-3.41 1.503-1.025-2.324z"/></g><path fill="#EF3F3F" d="M23.103 58.83a1.892 1.892 0 0 1-2.496-.97l-2.643-6.01a1.894 1.894 0 0 1 .97-2.495l9.477-4.168a1.895 1.895 0 0 1 2.497.97l2.643 6.01a1.895 1.895 0 0 1-.97 2.496l-9.477 4.167z"/><path fill="#FFF" d="M22.89 50.2l5.874.647-3.494 4.762z"/></g><path fill="#9D9D9C" d="M263.472 149.172L238.195 39.386l2.183-.503a8.47 8.47 0 0 0 8.205 2.604c4.55-1.047 7.397-5.6 6.35-10.147-.84-3.648-3.937-6.205-7.477-6.53.03-.117.058-.238.08-.357l3.127-15.692s.38-1.756.49-2.344c.44-2.338-.59-3.78-.59-3.78C249.2.373 245.812.795 243.1 1.42l-28.76 6.62-4.005-3.464a6.245 6.245 0 0 0-3.22-.112l-6.402 1.474a6.28 6.28 0 0 0-4.705 7.523 6.283 6.283 0 0 0 7.52 4.71l2.062-.476 9.094 14.41c-3.557 1.647-5.606 5.616-4.693 9.583 1.048 4.55 5.602 7.396 10.15 6.35a8.47 8.47 0 0 0 6.24-5.93l3.45-.795 10.743 46.662-3.853 15.145 11.417 49.583 15.335-3.53z"/><path fill="#9D9D9C" d="M290.386 87.725c1.77.717 3.59 1.257 5.427 1.604 1.638 5.32 7.76 8.96 11.402 10.706l2.298 1.1-.264-2.534c-.17-1.634-.43-3.043-.655-4.285-.398-2.193-.7-3.85-.42-5.735 4.5-1.58 7.85-4.573 9.48-8.502 1.937-4.67 1.123-9.94-1.733-14.59 2.39-8.616-3.844-18.74-14.643-23.22-11.474-4.76-23.82-1.372-27.52 7.55-1.63 3.93-1.384 8.413.678 12.715-1.137 1.53-2.522 2.486-4.356 3.754-1.04.715-2.216 1.53-3.494 2.563l-1.98 1.604 2.402.848c2.212.782 5.468 1.7 8.774 1.824 1.165 3.628 3.558 7.113 6.9 9.965a30.7 30.7 0 0 1-.432.883.64.64 0 0 0 0 .214L270.89 111.58l-10.835 12.48-15.532 37.443 13.018 5.4 32.846-79.178z"/><g><path fill="#DADADA" d="M255.674 165.66l-13.02-5.4 15.534-37.448 10.834-12.478 13.834-33.352 8.19 3.398z"/><path opacity=".2" d="M289.05 84.78l-1.32 3.396s-7.72-3.715-7.344-5.445c.966-1.913 1.256-2.82 1.256-2.82l7.408 4.87z"/><path fill="#9D9D9C" d="M314.47 78.29c3.406-8.21-2.56-18.487-13.325-22.952-10.765-4.463-22.252-1.43-25.657 6.78-3.405 8.21 2.56 18.484 13.326 22.95a27.258 27.258 0 0 0 6.287 1.766c.45 2.307 2.473 6.65 10.864 10.67-.498-4.787-1.75-7.512-.9-11.264 4.333-1.31 7.787-4.045 9.406-7.95z"/><path fill="#DADADA" d="M307.645 99.89l-2.297-1.1c-3.642-1.746-9.765-5.385-11.403-10.706a28.868 28.868 0 0 1-5.677-1.7c-11.473-4.76-17.798-15.892-14.097-24.813 3.703-8.922 16.048-12.308 27.522-7.548 11.474 4.758 17.796 15.89 14.097 24.812-1.63 3.928-4.98 6.923-9.48 8.502-.282 1.885.02 3.542.418 5.733.227 1.242.483 2.65.654 4.286l.263 2.534zm-11.34-14.313l.192.985c.345 1.767 1.824 5.04 7.673 8.395-.08-.47-.163-.926-.245-1.377-.475-2.606-.884-4.857-.25-7.654l.185-.81.792-.24c4.088-1.235 7.108-3.772 8.504-7.133 3.098-7.472-2.535-16.933-12.556-21.088-10.02-4.158-20.696-1.46-23.795 6.008-3.098 7.473 2.534 16.93 12.556 21.09a25.93 25.93 0 0 0 5.955 1.674l.99.15z"/><path fill="#9D9D9C" d="M298.867 42.342c-10.765-4.467-22.252-1.433-25.657 6.777-1.622 3.905-1.117 8.28 1.015 12.275-2.052 3.252-4.866 4.29-8.607 7.32 8.774 3.098 13.278 1.464 15.228.152a27.07 27.07 0 0 0 5.69 3.2c10.765 4.464 22.252 1.43 25.658-6.78 3.404-8.207-2.564-18.482-13.327-22.945z"/><path fill="#DADADA" d="M262.74 69.21l1.98-1.603c1.277-1.036 2.456-1.85 3.496-2.566 1.833-1.265 3.22-2.22 4.356-3.753-2.063-4.302-2.308-8.786-.68-12.716 3.7-8.92 16.047-12.306 27.52-7.548 11.474 4.76 17.796 15.893 14.096 24.813-3.7 8.922-16.046 12.31-27.518 7.548-1.85-.765-3.6-1.71-5.214-2.816-4.924 2.6-11.824.837-15.633-.508l-2.403-.85zm35.58-25.554c-10.02-4.155-20.695-1.46-23.795 6.01-1.395 3.363-1.055 7.29.958 11.058l.39.73-.443.702c-1.53 2.425-3.413 3.726-5.594 5.23-.375.26-.758.522-1.148.8 6.506 1.77 9.87.504 11.36-.5l.834-.56.808.595a25.808 25.808 0 0 0 5.392 3.03c10.022 4.158 20.696 1.462 23.794-6.007 3.098-7.47-2.534-16.93-12.555-21.087z"/><g fill="#DADADA"><circle cx="283.895" cy="53.73" r="3.334"/><circle cx="293.039" cy="57.523" r="3.334"/><circle cx="302.053" cy="61.263" r="3.334"/></g></g><g><path fill="#DADADA" d="M247.338 1.714c-1.362-2.264-4.75-1.843-7.46-1.217l-28.76 6.62-4.006-3.464a6.21 6.21 0 0 0-3.22-.11l-6.4 1.472a6.282 6.282 0 0 0-4.708 7.522c.778 3.374 4.152 5.485 7.522 4.71l2.062-.476 9.094 14.412c-3.558 1.646-5.607 5.615-4.693 9.582 1.046 4.55 5.6 7.396 10.147 6.35a8.473 8.473 0 0 0 6.24-5.93l13.997-3.223a8.478 8.478 0 0 0 8.206 2.605c4.55-1.047 7.397-5.6 6.35-10.148-.84-3.647-3.936-6.204-7.478-6.53a4.93 4.93 0 0 0 .083-.355l3.125-15.695s.38-1.756.49-2.343c.44-2.34-.592-3.78-.592-3.78z"/><path fill-rule="evenodd" clip-rule="evenodd" fill="#34B269" d="M240.305 22.734l3.125-15.696h-.004c.06-.295.064-.604-.01-.917a2.19 2.19 0 0 0-2.622-1.642L209.21 11.75l-2.06-3.26-.008.003a2.183 2.183 0 0 0-2.333-.972l-6.403 1.475a2.19 2.19 0 0 0-1.64 2.624 2.186 2.186 0 0 0 2.622 1.642l4.888-1.125L217.89 33.71l-3.853.888a4.38 4.38 0 0 0-3.286 5.25 4.38 4.38 0 0 0 8.535-1.965l19.91-4.583a4.378 4.378 0 1 0 3.283-5.25l-20.068 4.62-1.765-2.798 18.147-5.47a2.183 2.183 0 0 0 1.513-1.668zm-22.085 3.3l-6.536-10.36 26.792-6.17-2.208 11.086-18.048 5.443z"/><path fill="#DADADA" d="M244.916 151.78l15.332-3.528-25.766-111.915-8.365 1.925 11.234 48.79-3.852 15.145z"/></g><path fill="#9D9D9C" d="M132.327 235.91c-11.21 9.705-12.432 26.66-2.726 37.87 9.706 11.212 26.66 12.43 37.87 2.727 9.474-8.2 11.813-21.575 6.457-32.29l89.846-77.78-11.578-13.375-38.708 33.51-9.875 16.257-37.204 32.206c-9.907-7.742-24.217-7.665-34.08.874zm32.206 7.63c6.996 8.082 6.117 20.306-1.967 27.304-8.082 6.996-20.304 6.115-27.3-1.968-6.997-8.08-6.117-20.306 1.965-27.302s20.306-6.116 27.303 1.967z"/><path fill="#DADADA" d="M130.735 234.875c-11.212 9.705-12.43 26.66-2.727 37.87 9.704 11.21 26.66 12.432 37.87 2.727 9.473-8.2 11.81-21.576 6.454-32.288L262.18 165.4l-11.578-13.373-38.71 33.508-9.872 16.257L164.815 234c-9.906-7.742-24.216-7.666-34.08.875zm32.205 7.63c6.997 8.083 6.117 20.305-1.966 27.302-8.08 6.996-20.304 6.116-27.3-1.965-6.997-8.082-6.118-20.305 1.965-27.302 8.08-6.997 20.303-6.118 27.3 1.966z"/><circle opacity=".8" fill="#DCFBFF" cx="148.397" cy="255.277" r="19.217"/><path fill="#9D9D9C" d="M33.334 203.6c3.283-2.074 4.562-6.227 3.192-9.742l.125-.078-6.212-9.834 16.012-9.774 9.067-.643 16.87-10.297-6.235-10.22-39.88 24.34-5.44-8.612-.75-1.144-.14.09c-3.382-3.613-8.96-4.4-13.242-1.693-4.885 3.086-6.35 9.57-3.263 14.456a10.382 10.382 0 0 0 2.372 2.635c-2.055 4.16-1.82 9.046.7 13.033a13.34 13.34 0 0 0 15.99 5.374c2.46 3.43 7.22 4.392 10.834 2.108z"/><g><path fill="#DADADA" d="M70.568 162.322l-6.235-10.218-40.75 24.87 4.062 6.656 16.986-10.37 9.068-.64z"/><path fill="#9D9D9C" d="M5.61 166.237c-4.256 2.688-5.524 8.317-2.837 12.572a9.105 9.105 0 0 0 3.01 2.942 11.998 11.998 0 0 0 .06 12.723c3.3 5.22 9.96 7.026 15.387 4.382a6.68 6.68 0 1 0 11.71-6.41l.005-.005-15.09-23.882-.02.014c-2.8-3.848-8.144-4.915-12.226-2.337z"/><path fill="#DADADA" d="M19.01 167.83l15.82 25.04-.124.077c1.37 3.516.09 7.668-3.192 9.742-3.615 2.283-8.374 1.32-10.835-2.108a13.34 13.34 0 0 1-15.99-5.375c-2.52-3.987-2.754-8.87-.7-13.032a10.382 10.382 0 0 1-2.372-2.637c-3.087-4.885-1.623-11.37 3.262-14.456 4.283-2.707 9.86-1.92 13.242 1.692l.142-.09.747 1.146zm12.68 25.187l-14.783-23.4-.176-.24c-2.39-3.282-6.954-4.155-10.39-1.982-3.613 2.282-4.693 7.075-2.413 10.686a7.66 7.66 0 0 0 2.56 2.502l1.187.712-.73 1.18A10.562 10.562 0 0 0 7 193.743a10.61 10.61 0 0 0 13.63 3.885l1.218-.595.604 1.212a5.318 5.318 0 0 0 7.6 2.13c2.424-1.528 3.193-4.772 1.72-7.23l-.08-.13z"/><path fill="#DADADA" d="M12.34 184.654l-8.69 5.49 3.705 5.866 8.69-5.49 2.31 3.654 3.628-11.51L10.033 181z"/></g><ellipse transform="rotate(-171.89 147.47 266.373)" fill="#FFF" cx="147.47" cy="266.369" rx="7.914" ry="4.377"/><path fill="#EF3F3F" d="M276.876 146.022c0 15.392-12.475 27.866-27.864 27.866H73.532c-15.39 0-27.866-12.475-27.866-27.866 0-15.39 12.476-27.864 27.865-27.864h175.483c15.388 0 27.863 12.476 27.863 27.864z"/><path opacity=".1" fill="#FFF" d="M73.53 123.553h175.483c14.478 0 26.375 11.045 27.73 25.166.086-.888.133-1.787.133-2.697 0-15.39-12.475-27.864-27.864-27.864H73.532c-15.39 0-27.866 12.475-27.866 27.863 0 .91.046 1.81.13 2.696 1.36-14.122 13.256-25.167 27.735-25.167z"/><path fill="#C6C6C6" d="M46.023 141.57a27.952 27.952 0 0 0 .137 9.67h12.478v-9.67H46.023z"/><path opacity=".1" d="M276.876 146.022c0-2.44-.314-4.806-.904-7.063-3.128 11.97-14.012 20.802-26.96 20.802H73.533c-12.95 0-23.835-8.833-26.962-20.803a27.984 27.984 0 0 0-.904 7.062c0 15.392 12.476 27.866 27.865 27.866h175.483c15.388 0 27.863-12.474 27.863-27.866z"/><path opacity=".1" d="M56.768 141.57h1.746v9.673h-1.746z"/><g opacity=".7"><path fill="#FFF" d="M251.744 139.31a9.45 9.45 0 0 0-12.94-.4l-.013-.015-11.234 11.075-.01-.01a5.29 5.29 0 0 1-7.242-.224 5.292 5.292 0 0 1 7.243-7.71l.01-.007 3.078 3.125 3.042-2.844-3.36-3.406-.016.014c-3.71-3.285-9.387-3.15-12.937.4-3.693 3.692-3.693 9.678 0 13.372 3.55 3.55 9.227 3.685 12.938.4l.016.013 11.234-11.074.01.007a5.293 5.293 0 1 1 0 7.934l-.01.01-3.16-3.153-2.977 2.908 3.378 3.37.015-.014c3.712 3.285 9.388 3.15 12.94-.4 3.692-3.692 3.692-9.68 0-13.37z"/></g></svg>