<svg xmlns="http://www.w3.org/2000/svg" width="68.723" height="68.725" viewBox="0 0 68.723 68.725"><path fill="#FFF" d="M34.36 0c-2.56 0-5.05.29-7.446.82v33.566c0 4.116 3.352 7.47 7.465 7.47s7.466-3.354 7.466-7.47c0-3.943-3.088-7.19-6.97-7.448v-5.98c7.17.263 12.94 6.194 12.94 13.428 0 7.404-6.037 13.44-13.437 13.44-7.405 0-13.44-6.037-13.44-13.44V2.722c-.85.36-1.68.76-2.492 1.187v30.477c.002 8.775 7.16 15.93 15.932 15.93 8.773 0 15.93-7.154 15.93-15.93 0-8.604-6.887-15.653-15.434-15.92v-5.974c11.836.267 21.404 10 21.404 21.895 0 12.066-9.838 21.904-21.9 21.904-12.064 0-21.904-9.838-21.904-21.904V7.872C4.854 14.174 0 23.702 0 34.362c0 18.98 15.383 34.363 34.36 34.363 18.98 0 34.362-15.384 34.362-34.363C68.722 15.384 53.34 0 34.36 0z"/></svg>