<svg xmlns="http://www.w3.org/2000/svg" width="62.412" height="62.409" viewBox="0 0 62.412 62.409"><path fill="#007AC9" d="M62.412 50.192c0 6.75-5.468 12.217-12.217 12.217H12.217C5.47 62.41 0 56.94 0 50.19V12.216C0 5.472 5.47 0 12.217 0h37.98c6.748 0 12.216 5.472 12.216 12.216v37.976z"/><g fill="#FFF"><path d="M48.907 35.037c1.604-4.878 4.114-15.576 5.06-19.383.84-3.365 1.388-4.62-.122-4.593-1.266.022-4.495.33-5.16 2.993-1.114 4.45-3.77 14.695-4.743 17.953-1.07 3.58-3.346 4.323-6.214 4.353-2.496.017-3.87-.177-3.87-2.073-.795-.014-2.02-.007-2.59-.002-.564-.002-1.79-.012-2.588.002 0 1.997-1.373 2.072-3.87 2.072-1.856 0-4.67-.345-5.702-3.744-.717-2.372-2.512-8.507-3.433-11.746-.924-3.243-3.825-3.423-5.216-3.43-1.53-.007-1.408.24-.525 3.43.88 3.188 2.817 10.3 4.17 15.062 1.352 4.766 5.996 6.317 8.964 6.317h5.002c2.275 0 3.078-.977 3.197-1.284.124.308 1 1.283 3.276 1.283h4.852c4.123 0 7.956-2.506 9.51-7.213z"/><circle cx="23.674" cy="20.293" r="2.371"/><circle cx="31.381" cy="20.293" r="2.371"/><circle cx="39.188" cy="20.293" r="2.371"/><circle cx="23.674" cy="28.835" r="2.372"/><circle cx="31.381" cy="28.835" r="2.372"/><circle cx="39.188" cy="28.835" r="2.372"/><path d="M12.547 43.557a4.753 4.753 0 1 0 .006 9.506 4.753 4.753 0 0 0-.006-9.506zm0 6.46c-.938 0-1.7-.765-1.7-1.706a1.705 1.705 0 0 1 3.407 0c0 .942-.763 1.707-1.707 1.707zM50.043 43.496a4.756 4.756 0 0 0-4.756 4.758c0 2.618 2.13 4.75 4.756 4.75a4.755 4.755 0 0 0 0-9.51zm0 6.46c-.943 0-1.707-.762-1.707-1.702 0-.944.764-1.71 1.707-1.71a1.705 1.705 0 0 1 0 3.41z"/></g></svg>