<svg xmlns="http://www.w3.org/2000/svg" width="301.647" height="179.653" viewBox="0 0 301.647 179.653"><path fill="#8E8E8E" d="M247.98 177v-35"/><path opacity=".6" fill="#FFF" d="M247.98 149v-7"/><path fill="#D8D8D8" d="M286.98 10.593c0-5.553-4-10.593-9.556-10.593H26.066C20.508 0 14.98 5.04 14.98 10.593v154.145c0 5.554 5.528 11.262 11.086 11.262h251.357c5.557 0 9.558-5.708 9.558-11.262V10.593z"/><path fill="#C4C4C4" d="M301.647 175.376a4.27 4.27 0 0 1-4.275 4.276H4.276A4.276 4.276 0 0 1 0 175.376v-4.066a4.28 4.28 0 0 1 4.276-4.278h293.096a4.273 4.273 0 0 1 4.275 4.278v4.066z"/><path opacity=".18" fill="#010101" d="M192.417 168.75v2.128a2.235 2.235 0 0 1-2.237 2.237h-78.713a2.235 2.235 0 0 1-2.233-2.237v-2.13"/><path fill="#4C4C4C" d="M155.224 9.376c0 1.58-1.274 2.85-2.85 2.85a2.847 2.847 0 0 1 0-5.696 2.848 2.848 0 0 1 2.85 2.846z"/><path fill-rule="evenodd" clip-rule="evenodd" fill="#FF4D4D" d="M28.59 18.61h244.937v135.42H28.59z"/><path fill-rule="evenodd" clip-rule="evenodd" fill="#464646" d="M28.59 16.963h244.937V34.22H28.59z"/><path fill="#FCD22E" d="M46.262 25.595a3.69 3.69 0 0 1-3.688 3.696 3.697 3.697 0 0 1 0-7.393 3.695 3.695 0 0 1 3.688 3.698z"/><path fill="#FF4848" d="M57.538 25.595a3.7 3.7 0 0 1-3.705 3.696 3.695 3.695 0 0 1-3.692-3.695 3.698 3.698 0 0 1 7.398 0z"/><path fill-rule="evenodd" clip-rule="evenodd" fill="#FFF" d="M65.83 25.595a3.257 3.257 0 0 0 3.254 3.256h196.638c1.8 0 3.254-1.46 3.254-3.255a3.253 3.253 0 0 0-3.254-3.254H69.084a3.254 3.254 0 0 0-3.255 3.255z"/><path opacity=".2" fill-rule="evenodd" clip-rule="evenodd" fill="#FFF" d="M286.98 167V6.22c0-1.287-2.25-6.22-7.31-6.22H131.516c22.99 37 68.207 110 102.332 167h53.13z"/><circle opacity=".2" fill="#3C3C3B" cx="154.623" cy="113.744" r="27.972"/><circle fill="#D3D3D3" cx="154.624" cy="112.518" r="27.165"/><circle opacity=".2" fill="#3C3C3B" cx="154.624" cy="114.821" r="16.828"/><circle fill="#EBEBEB" cx="154.624" cy="112.667" r="16.828"/><circle opacity=".1" fill="#3C3C3B" cx="154.624" cy="112.667" r="10.541"/><path fill="#FF2727" d="M152.284 102.446l2.34-4.05 2.34 4.05z"/><g fill="#999"><path d="M164.395 137.863l-.976.355-1.997-5.498.977-.355zM147.82 92.327l-.98.355-1.995-5.5.98-.354zM154.105 133.833h1.037v5.85h-1.037zM154.103 85.376h1.04v5.85h-1.04zM145.817 138.22l-.974-.353 2-5.498.974.353zM162.394 92.695l-.978-.355 2-5.498.977.355zM137.567 133.662l-.794-.667 3.758-4.482.795.667zM168.718 96.54l-.795-.67 3.766-4.474.794.67zM131.367 126.55l-.518-.9 5.067-2.92.517.898zM173.332 102.316l-.52-.9 5.067-2.924.52.9zM127.982 117.756l-.18-1.02 5.76-1.014.18 1.02zM175.702 109.34l-.18-1.022 5.76-1.017.18 1.025z"/><g><path d="M127.792 108.33l.18-1.02 5.76 1.017-.18 1.022zM175.518 116.73l.182-1.02 5.76 1.023-.183 1.022z"/></g><g><path d="M130.853 99.395l.52-.898 5.062 2.932-.52.897zM172.815 123.634l.518-.9 5.067 2.924-.52.9z"/></g><g><path d="M136.772 92.064l.797-.667 3.754 4.484-.796.668zM167.91 129.18l.794-.666 3.764 4.477-.794.67z"/></g><g><path d="M144.843 87.193l.976-.355 1.997 5.497-.976.355zM161.413 132.725l.977-.355 1.998 5.497-.977.354z"/></g><g><path d="M154.104 85.376h1.038v5.85h-1.038zM154.104 133.833h1.038v5.85h-1.038z"/></g></g><g opacity=".4" fill="#3C3C3B"><path d="M120.312 72.32a3.29 3.29 0 0 1-3.29 3.29H104.85a3.29 3.29 0 0 1-3.29-3.29V52.254a3.292 3.292 0 0 1 3.29-3.29h12.172a3.29 3.29 0 0 1 3.29 3.29V72.32zM149.59 72.32a3.29 3.29 0 0 1-3.29 3.29h-12.17a3.29 3.29 0 0 1-3.29-3.29V52.254a3.292 3.292 0 0 1 3.29-3.29h12.17a3.29 3.29 0 0 1 3.29 3.29V72.32zM179.446 72.32a3.29 3.29 0 0 1-3.29 3.29h-12.17a3.29 3.29 0 0 1-3.29-3.29V52.254a3.29 3.29 0 0 1 3.29-3.29h12.17a3.29 3.29 0 0 1 3.29 3.29V72.32zM208.726 72.32a3.29 3.29 0 0 1-3.29 3.29h-12.173a3.29 3.29 0 0 1-3.29-3.29V52.254a3.29 3.29 0 0 1 3.29-3.29h12.173a3.29 3.29 0 0 1 3.29 3.29V72.32z"/></g><path fill="#EFEFEF" d="M120.312 73.636a3.29 3.29 0 0 1-3.29 3.29H104.85a3.29 3.29 0 0 1-3.29-3.29V53.57a3.29 3.29 0 0 1 3.29-3.29h12.172a3.29 3.29 0 0 1 3.29 3.29v20.066zM149.59 73.636a3.29 3.29 0 0 1-3.29 3.29h-12.17a3.29 3.29 0 0 1-3.29-3.29V53.57a3.29 3.29 0 0 1 3.29-3.29h12.17a3.29 3.29 0 0 1 3.29 3.29v20.066zM179.446 73.636a3.29 3.29 0 0 1-3.29 3.29h-12.17a3.29 3.29 0 0 1-3.29-3.29V53.57a3.29 3.29 0 0 1 3.29-3.29h12.17a3.29 3.29 0 0 1 3.29 3.29v20.066zM208.726 73.636a3.29 3.29 0 0 1-3.29 3.29h-12.173a3.29 3.29 0 0 1-3.29-3.29V53.57a3.29 3.29 0 0 1 3.29-3.29h12.173a3.29 3.29 0 0 1 3.29 3.29v20.066z"/><circle fill="#828282" cx="110.937" cy="63.602" r="3.016"/><circle fill="#828282" cx="140.215" cy="63.602" r="3.016"/><circle fill="#828282" cx="170.071" cy="63.602" r="3.016"/><circle fill="#828282" cx="199.349" cy="63.602" r="3.016"/></svg>