<svg xmlns="http://www.w3.org/2000/svg" width="480.038" height="144" viewBox="0 0 480.038 144"><path fill="#E7E059" d="M.038 0h480v144h-480z"/><path fill="#FFF" d="M172.993 0H.448c-.14 0-.273.027-.41.042V144h176.988V4.062c0-2.243-1.804-4.062-4.033-4.062z"/><g opacity=".4"><g opacity=".4"><path d="M54.165 115.047a1.24 1.24 0 0 1-1.238 1.243H7.892a1.24 1.24 0 0 1-1.234-1.243 1.24 1.24 0 0 1 1.234-1.243h45.035a1.24 1.24 0 0 1 1.238 1.243zM54.165 110.077c0 .685-.555 1.243-1.238 1.243H7.892a1.24 1.24 0 0 1-1.234-1.243c0-.688.552-1.243 1.234-1.243h45.035a1.24 1.24 0 0 1 1.238 1.243zM54.165 105.104a1.24 1.24 0 0 1-1.238 1.243H7.892a1.237 1.237 0 0 1-1.234-1.243c0-.685.552-1.24 1.234-1.24h45.035a1.24 1.24 0 0 1 1.238 1.24zM54.165 100.134a1.24 1.24 0 0 1-1.238 1.243H7.892a1.237 1.237 0 0 1-1.234-1.243c0-.686.552-1.242 1.234-1.242h45.035a1.24 1.24 0 0 1 1.238 1.242zM54.165 95.164a1.24 1.24 0 0 1-1.238 1.242H7.892a1.237 1.237 0 0 1-1.234-1.242c0-.687.552-1.243 1.234-1.243h45.035a1.24 1.24 0 0 1 1.238 1.244zM54.165 90.192a1.24 1.24 0 0 1-1.238 1.244H7.892a1.238 1.238 0 0 1-1.234-1.244 1.24 1.24 0 0 1 1.234-1.242h45.035c.683 0 1.238.56 1.238 1.242zM54.165 85.223a1.24 1.24 0 0 1-1.238 1.243H7.892a1.238 1.238 0 0 1-1.234-1.243 1.24 1.24 0 0 1 1.234-1.243h45.035a1.24 1.24 0 0 1 1.238 1.243z"/></g><path d="M54.165 134.777a1.24 1.24 0 0 1-1.238 1.242H7.892a1.238 1.238 0 0 1-1.234-1.243c0-.687.552-1.242 1.234-1.242h45.035a1.24 1.24 0 0 1 1.238 1.242zM54.165 129.806a1.24 1.24 0 0 1-1.238 1.244H7.892a1.237 1.237 0 0 1-1.234-1.244 1.24 1.24 0 0 1 1.234-1.243h45.035a1.24 1.24 0 0 1 1.238 1.243zM54.165 124.835a1.24 1.24 0 0 1-1.238 1.243H7.892a1.238 1.238 0 0 1-1.234-1.243c0-.686.552-1.24 1.234-1.24h45.035a1.24 1.24 0 0 1 1.238 1.24zM54.165 119.865c0 .688-.555 1.24-1.238 1.24H7.892a1.235 1.235 0 0 1-1.234-1.24c0-.687.552-1.243 1.234-1.243h45.035a1.24 1.24 0 0 1 1.238 1.243z" opacity=".4"/></g><g opacity=".4"><g opacity=".4"><path d="M110.94 115.047a1.24 1.24 0 0 1-1.237 1.243H64.667a1.24 1.24 0 0 1-1.236-1.243 1.24 1.24 0 0 1 1.237-1.243h45.036a1.24 1.24 0 0 1 1.237 1.243zM110.94 110.077a1.24 1.24 0 0 1-1.237 1.243H64.667a1.24 1.24 0 0 1-1.236-1.243c0-.688.554-1.243 1.237-1.243h45.036a1.24 1.24 0 0 1 1.237 1.243zM110.94 105.104a1.24 1.24 0 0 1-1.237 1.243H64.667a1.238 1.238 0 0 1-1.236-1.243c0-.685.554-1.24 1.237-1.24h45.036a1.24 1.24 0 0 1 1.237 1.24zM110.94 100.134a1.24 1.24 0 0 1-1.237 1.243H64.667a1.238 1.238 0 0 1-1.236-1.243 1.24 1.24 0 0 1 1.237-1.242h45.036a1.24 1.24 0 0 1 1.237 1.242zM110.94 95.164a1.24 1.24 0 0 1-1.237 1.242H64.667a1.238 1.238 0 0 1-1.236-1.242 1.24 1.24 0 0 1 1.237-1.243h45.036a1.24 1.24 0 0 1 1.237 1.244zM110.94 90.192a1.24 1.24 0 0 1-1.237 1.244H64.667a1.24 1.24 0 0 1-1.236-1.244 1.24 1.24 0 0 1 1.237-1.242h45.036c.684 0 1.237.56 1.237 1.242zM110.94 85.223a1.24 1.24 0 0 1-1.237 1.243H64.667a1.24 1.24 0 0 1-1.236-1.243 1.24 1.24 0 0 1 1.237-1.243h45.036a1.24 1.24 0 0 1 1.237 1.243z"/></g><path d="M110.94 134.777a1.24 1.24 0 0 1-1.237 1.242H64.667a1.24 1.24 0 0 1-1.236-1.243c0-.687.554-1.242 1.237-1.242h45.036a1.24 1.24 0 0 1 1.237 1.242zM110.94 129.806a1.24 1.24 0 0 1-1.237 1.244H64.667a1.24 1.24 0 0 1-1.236-1.244 1.24 1.24 0 0 1 1.237-1.243h45.036a1.24 1.24 0 0 1 1.237 1.243zM110.94 124.835a1.24 1.24 0 0 1-1.237 1.243H64.667a1.24 1.24 0 0 1-1.236-1.243c0-.686.554-1.24 1.237-1.24h45.036c.684 0 1.237.554 1.237 1.24zM110.94 119.865c0 .688-.554 1.24-1.237 1.24H64.667a1.236 1.236 0 0 1-1.236-1.24 1.24 1.24 0 0 1 1.237-1.243h45.036a1.24 1.24 0 0 1 1.237 1.243z" opacity=".4"/></g><g opacity=".4"><g opacity=".4"><path d="M167.913 115.047a1.24 1.24 0 0 1-1.236 1.243H121.64a1.24 1.24 0 0 1-1.234-1.243 1.24 1.24 0 0 1 1.235-1.243h45.037a1.24 1.24 0 0 1 1.236 1.243zM167.913 110.077a1.24 1.24 0 0 1-1.236 1.243H121.64a1.24 1.24 0 0 1-1.234-1.243c0-.688.553-1.243 1.235-1.243h45.037a1.24 1.24 0 0 1 1.236 1.243zM167.913 105.104c0 .688-.553 1.243-1.236 1.243H121.64a1.238 1.238 0 0 1-1.234-1.243c0-.685.553-1.24 1.235-1.24h45.037a1.24 1.24 0 0 1 1.236 1.24zM167.913 100.134a1.24 1.24 0 0 1-1.236 1.243H121.64a1.238 1.238 0 0 1-1.234-1.243 1.24 1.24 0 0 1 1.235-1.242h45.037a1.24 1.24 0 0 1 1.236 1.242zM167.913 95.164a1.24 1.24 0 0 1-1.236 1.242H121.64a1.238 1.238 0 0 1-1.234-1.242 1.24 1.24 0 0 1 1.235-1.243h45.037a1.24 1.24 0 0 1 1.236 1.244zM167.913 90.192a1.24 1.24 0 0 1-1.236 1.244H121.64a1.24 1.24 0 0 1-1.234-1.244 1.24 1.24 0 0 1 1.235-1.242h45.037c.683 0 1.236.56 1.236 1.242zM167.913 85.223a1.24 1.24 0 0 1-1.236 1.243H121.64a1.24 1.24 0 0 1-1.234-1.243 1.24 1.24 0 0 1 1.235-1.243h45.037a1.24 1.24 0 0 1 1.236 1.243z"/></g><path d="M167.913 134.777a1.24 1.24 0 0 1-1.236 1.242H121.64a1.24 1.24 0 0 1-1.234-1.243c0-.687.553-1.242 1.235-1.242h45.037a1.24 1.24 0 0 1 1.236 1.242zM167.913 129.806a1.24 1.24 0 0 1-1.236 1.244H121.64a1.238 1.238 0 0 1-1.234-1.244 1.24 1.24 0 0 1 1.235-1.243h45.037a1.24 1.24 0 0 1 1.236 1.243zM167.913 124.835a1.24 1.24 0 0 1-1.236 1.243H121.64a1.24 1.24 0 0 1-1.234-1.243c0-.686.553-1.24 1.235-1.24h45.037c.683 0 1.236.554 1.236 1.24zM167.913 119.865c0 .688-.553 1.24-1.236 1.24H121.64a1.236 1.236 0 0 1-1.234-1.24 1.24 1.24 0 0 1 1.235-1.243h45.037a1.24 1.24 0 0 1 1.236 1.243z" opacity=".4"/></g><path opacity=".3" d="M165.782 69.822c.74-.398 1.45-.83 2.13-1.295v-3.493a21.078 21.078 0 0 1-3.684 2.45l-4.365-9.694 8.05-3.672v-2.47l-8.976 4.09-2.915-6.47 11.338-5.166c.197.454.38.913.553 1.372v-5.04a38.667 38.667 0 0 0-3.645-5.4l3.645-1.662v-4.486h-6.044a21.05 21.05 0 0 1 4.836 2.564l-3.943 1.795a55.723 55.723 0 0 0-4.346-4.36h-3.36c1.765 1.53 3.713 3.29 5.6 5.322l-9.474 4.32L146.895 29c.107-.04.215-.08.32-.116h-6.038c-9.43 6.42-13.176 18.92-8.318 29.71a23.794 23.794 0 0 0 10.437 11.227h11.244c-2.11-1.837-4.48-4.003-6.684-6.557l9.968-4.546 4.363 9.696a20.78 20.78 0 0 1-6.316 1.406h9.912zm-3.57-33.853c1.54 1.83 2.977 3.86 4.168 6.105l-11.28 5.14-2.99-6.638 10.102-4.608zm-9.152 12.177l-11.28 5.145c-.896-2.38-1.46-4.806-1.817-7.18l10.107-4.606 2.99 6.64zm-13.65-14.134a20.807 20.807 0 0 1 5.448-4.08l4.285 9.523-9.473 4.318c-.353-3.595-.296-6.973-.26-9.76zm-2.24 2.77c-.028 2.474.058 5.167.394 7.95l-3.94 1.798a21.398 21.398 0 0 1 3.545-9.746zm-3.653 12.27l4.393-2.002c.41 2.363 1.025 4.765 1.93 7.123l-4.883 2.23a21.075 21.075 0 0 1-1.44-7.35zm2.36 9.4l4.84-2.205c1.03 2.217 2.317 4.243 3.73 6.097l-4.177 1.904a21.02 21.02 0 0 1-4.392-5.797zm15.33 11.146a21.06 21.06 0 0 1-9.003-3.76l3.704-1.688c1.716 2.02 3.552 3.822 5.3 5.447zm-4.82-8.142c-1.415-1.84-2.702-3.865-3.74-6.09l11.34-5.17 2.913 6.47-10.514 4.79z"/><path fill="#444" d="M172.993 0H.448c-.14 0-.273.027-.41.042V16.24h176.988V4.06c0-2.243-1.804-4.062-4.033-4.062z"/><ellipse fill="#2CB740" cx="5.233" cy="8.336" rx="3.194" ry="3.21"/><path fill="#F16442" d="M18.155 8.336a3.204 3.204 0 0 1-3.197 3.21c-1.758 0-3.188-1.437-3.188-3.21 0-1.77 1.43-3.21 3.188-3.21a3.205 3.205 0 0 1 3.197 3.21z"/><path fill="#FFF" d="M170.364 8.144a3.204 3.204 0 0 1-3.193 3.21H23.355c-1.754 0-3.19-1.437-3.19-3.21 0-1.778 1.437-3.215 3.19-3.215H167.17a3.203 3.203 0 0 1 3.194 3.214z"/><ellipse fill="#FCD22E" cx="27.911" cy="31.357" rx=".064" ry=".045"/><path opacity=".3" d="M5.733 72.624h162.904v2.614H5.733zM5.733 23.555h162.904v2.613H5.733z"/><g opacity=".1"><path d="M6.657 51.887h13.065v19.36H6.657zM21.765 44.313H34.83v26.935H21.766zM51.122 40.42h13.066V71.25H51.122zM36.468 54.697H49.53v16.55H36.468z"/><g><path d="M65.92 46.648h13.07v24.6H65.92zM81.034 36.947h13.07v34.3h-13.07zM110.393 31.958h13.062v39.29h-13.062zM95.73 50.252h13.065v20.996H95.73z"/></g></g><path fill="#9D9D9C" d="M103.798 36.434l2.792 4.36L78.27 59.66l-4.646-7.852 12.694-8.025 2.903 4.3 11.17-15.046-18.966 3.492 2.48 3.67-12.48 7.888-4.147-7.012-.05.03-.204-.38L54.42 49.12l-5.414-8.683-.045.023-.18-.32-36.86 23.3 2.468 3.553 32.978-20.83 3.354 5.42-25.223 16.805 1.138 2.397h5.378l21.475-14.724 3.884 6.274 2.654-1.933 9.305-5.883 7.37 12.556 2.987-2.29 29.627-19.74 3.27 5.104 12.584-17.863-21.37 4.147zM58.763 56.09l-1.592-2.55 8.26-5.663 1.712 2.917-8.38 5.297z"/><path opacity=".2" d="M270.177 144V5.09c0-2.227-1.55-4.105-3.78-4.105H93.854c-2.227 0-4.557 1.878-4.557 4.104V144h180.88z"/><path fill="#FFF" d="M282.177 144V4.062c0-2.243-1.803-4.062-4.03-4.062H105.6c-2.226 0-4.03 1.82-4.03 4.062V144h180.607z"/><g opacity=".4"><g opacity=".4"><path d="M159.316 115.047a1.24 1.24 0 0 1-1.237 1.243h-45.036a1.24 1.24 0 0 1-1.235-1.243 1.24 1.24 0 0 1 1.234-1.243h45.035a1.24 1.24 0 0 1 1.236 1.243zM159.316 110.077a1.24 1.24 0 0 1-1.237 1.243h-45.036a1.24 1.24 0 0 1-1.235-1.243c0-.688.55-1.243 1.234-1.243h45.035a1.24 1.24 0 0 1 1.236 1.243zM159.316 105.104a1.24 1.24 0 0 1-1.237 1.243h-45.036a1.237 1.237 0 0 1-1.235-1.243c0-.685.55-1.24 1.234-1.24h45.035a1.24 1.24 0 0 1 1.236 1.24zM159.316 100.134a1.24 1.24 0 0 1-1.237 1.243h-45.036a1.237 1.237 0 0 1-1.235-1.243c0-.686.55-1.242 1.234-1.242h45.035a1.24 1.24 0 0 1 1.236 1.242zM159.316 95.164a1.24 1.24 0 0 1-1.237 1.242h-45.036a1.237 1.237 0 0 1-1.235-1.242c0-.687.55-1.243 1.234-1.243h45.035a1.24 1.24 0 0 1 1.236 1.244zM159.316 90.192a1.24 1.24 0 0 1-1.237 1.244h-45.036a1.238 1.238 0 0 1-1.235-1.244 1.24 1.24 0 0 1 1.234-1.242h45.035c.683 0 1.236.56 1.236 1.242zM159.316 85.223a1.24 1.24 0 0 1-1.237 1.243h-45.036a1.238 1.238 0 0 1-1.235-1.243 1.24 1.24 0 0 1 1.234-1.243h45.035a1.24 1.24 0 0 1 1.236 1.243z"/></g><path d="M159.316 134.777a1.24 1.24 0 0 1-1.237 1.242h-45.036a1.238 1.238 0 0 1-1.235-1.243c0-.687.55-1.242 1.234-1.242h45.035a1.24 1.24 0 0 1 1.236 1.242zM159.316 129.806a1.24 1.24 0 0 1-1.237 1.244h-45.036a1.238 1.238 0 0 1-1.235-1.244 1.24 1.24 0 0 1 1.234-1.243h45.035a1.24 1.24 0 0 1 1.236 1.243zM159.316 124.835a1.24 1.24 0 0 1-1.237 1.243h-45.036a1.238 1.238 0 0 1-1.235-1.243c0-.686.55-1.24 1.234-1.24h45.035c.683 0 1.236.554 1.236 1.24zM159.316 119.865c0 .688-.554 1.24-1.237 1.24h-45.036a1.235 1.235 0 0 1-1.235-1.24c0-.687.55-1.243 1.234-1.243h45.035a1.24 1.24 0 0 1 1.236 1.243z" opacity=".4"/></g><g opacity=".4"><g opacity=".4"><path d="M216.092 115.047a1.24 1.24 0 0 1-1.237 1.243H169.82a1.24 1.24 0 0 1-1.236-1.243 1.24 1.24 0 0 1 1.236-1.243h45.035a1.24 1.24 0 0 1 1.237 1.243zM216.092 110.077a1.24 1.24 0 0 1-1.237 1.243H169.82a1.24 1.24 0 0 1-1.236-1.243c0-.688.553-1.243 1.236-1.243h45.035a1.24 1.24 0 0 1 1.237 1.243zM216.092 105.104a1.24 1.24 0 0 1-1.237 1.243H169.82a1.238 1.238 0 0 1-1.236-1.243c0-.685.553-1.24 1.236-1.24h45.035a1.24 1.24 0 0 1 1.237 1.24zM216.092 100.134a1.24 1.24 0 0 1-1.237 1.243H169.82a1.238 1.238 0 0 1-1.236-1.243 1.24 1.24 0 0 1 1.236-1.242h45.035a1.24 1.24 0 0 1 1.237 1.242zM216.092 95.164a1.24 1.24 0 0 1-1.237 1.242H169.82a1.238 1.238 0 0 1-1.236-1.242 1.24 1.24 0 0 1 1.236-1.243h45.035a1.24 1.24 0 0 1 1.237 1.244zM216.092 90.192a1.24 1.24 0 0 1-1.237 1.244H169.82a1.24 1.24 0 0 1-1.236-1.244 1.24 1.24 0 0 1 1.236-1.242h45.035c.683 0 1.237.56 1.237 1.242zM216.092 85.223a1.24 1.24 0 0 1-1.237 1.243H169.82a1.24 1.24 0 0 1-1.236-1.243 1.24 1.24 0 0 1 1.236-1.243h45.035a1.24 1.24 0 0 1 1.237 1.243z"/></g><path d="M216.092 134.777a1.24 1.24 0 0 1-1.237 1.242H169.82a1.24 1.24 0 0 1-1.236-1.243c0-.687.553-1.242 1.236-1.242h45.035a1.24 1.24 0 0 1 1.237 1.242zM216.092 129.806a1.24 1.24 0 0 1-1.237 1.244H169.82a1.24 1.24 0 0 1-1.236-1.244 1.24 1.24 0 0 1 1.236-1.243h45.035a1.24 1.24 0 0 1 1.237 1.243zM216.092 124.835a1.24 1.24 0 0 1-1.237 1.243H169.82a1.24 1.24 0 0 1-1.236-1.243c0-.686.553-1.24 1.236-1.24h45.035a1.24 1.24 0 0 1 1.237 1.24zM216.092 119.865c0 .688-.554 1.24-1.237 1.24H169.82a1.236 1.236 0 0 1-1.236-1.24 1.24 1.24 0 0 1 1.236-1.243h45.035a1.24 1.24 0 0 1 1.237 1.243z" opacity=".4"/></g><g opacity=".4"><g opacity=".4"><path d="M273.065 115.047a1.24 1.24 0 0 1-1.236 1.243H226.79a1.24 1.24 0 0 1-1.234-1.243 1.24 1.24 0 0 1 1.234-1.243h45.037a1.24 1.24 0 0 1 1.235 1.243zM273.065 110.077a1.24 1.24 0 0 1-1.236 1.243H226.79a1.24 1.24 0 0 1-1.234-1.243c0-.688.552-1.243 1.234-1.243h45.037a1.24 1.24 0 0 1 1.235 1.243zM273.065 105.104a1.24 1.24 0 0 1-1.236 1.243H226.79a1.237 1.237 0 0 1-1.234-1.243c0-.685.552-1.24 1.234-1.24h45.037a1.24 1.24 0 0 1 1.235 1.24zM273.065 100.134a1.24 1.24 0 0 1-1.236 1.243H226.79a1.237 1.237 0 0 1-1.234-1.243c0-.686.552-1.242 1.234-1.242h45.037a1.24 1.24 0 0 1 1.235 1.242zM273.065 95.164a1.24 1.24 0 0 1-1.236 1.242H226.79a1.237 1.237 0 0 1-1.234-1.242c0-.687.552-1.243 1.234-1.243h45.037a1.24 1.24 0 0 1 1.235 1.244zM273.065 90.192a1.24 1.24 0 0 1-1.236 1.244H226.79a1.238 1.238 0 0 1-1.234-1.244 1.24 1.24 0 0 1 1.234-1.242h45.037c.682 0 1.235.56 1.235 1.242zM273.065 85.223a1.24 1.24 0 0 1-1.236 1.243H226.79a1.238 1.238 0 0 1-1.234-1.243 1.24 1.24 0 0 1 1.234-1.243h45.037a1.24 1.24 0 0 1 1.235 1.243z"/></g><path d="M273.065 134.777a1.24 1.24 0 0 1-1.236 1.242H226.79a1.238 1.238 0 0 1-1.234-1.243c0-.687.552-1.242 1.234-1.242h45.037a1.24 1.24 0 0 1 1.235 1.242zM273.065 129.806a1.24 1.24 0 0 1-1.236 1.244H226.79a1.237 1.237 0 0 1-1.234-1.244 1.24 1.24 0 0 1 1.234-1.243h45.037a1.24 1.24 0 0 1 1.235 1.243zM273.065 124.835a1.24 1.24 0 0 1-1.236 1.243H226.79a1.238 1.238 0 0 1-1.234-1.243c0-.686.552-1.24 1.234-1.24h45.037c.682 0 1.235.554 1.235 1.24zM273.065 119.865c0 .688-.554 1.24-1.236 1.24H226.79a1.235 1.235 0 0 1-1.234-1.24c0-.687.552-1.243 1.234-1.243h45.037a1.24 1.24 0 0 1 1.235 1.243z" opacity=".4"/></g><path opacity=".3" d="M270.933 69.822c.74-.398 1.45-.83 2.133-1.295v-3.493a21.124 21.124 0 0 1-3.686 2.45l-4.365-9.694 8.05-3.672v-2.47l-8.976 4.09-2.915-6.47 11.338-5.166c.195.454.38.913.553 1.372v-5.04a38.76 38.76 0 0 0-3.646-5.4l3.646-1.662v-4.486h-6.044c1.71.636 3.335 1.5 4.837 2.564l-3.946 1.795a55.535 55.535 0 0 0-4.344-4.36h-3.36c1.763 1.53 3.713 3.29 5.6 5.322l-9.475 4.32L252.047 29c.107-.04.215-.08.32-.116h-6.04c-9.43 6.42-13.175 18.92-8.317 29.71a23.794 23.794 0 0 0 10.438 11.227h11.246c-2.11-1.837-4.48-4.003-6.686-6.557l9.967-4.546 4.365 9.696a20.78 20.78 0 0 1-6.316 1.406h9.91zm-3.57-33.853c1.54 1.83 2.977 3.86 4.17 6.105l-11.282 5.14-2.988-6.638 10.102-4.608zm-9.153 12.177l-11.28 5.145c-.895-2.38-1.46-4.806-1.817-7.18l10.107-4.606 2.99 6.64zm-13.647-14.134a20.796 20.796 0 0 1 5.445-4.08l4.287 9.523-9.473 4.318c-.353-3.595-.296-6.973-.26-9.76zm-2.242 2.77c-.026 2.474.058 5.167.396 7.95l-3.94 1.798a21.398 21.398 0 0 1 3.545-9.746zm-3.65 12.27l4.392-2.002c.408 2.363 1.025 4.765 1.93 7.123l-4.883 2.23a21.075 21.075 0 0 1-1.44-7.35zm2.36 9.4l4.837-2.205c1.03 2.217 2.32 4.243 3.73 6.097l-4.176 1.904a21.037 21.037 0 0 1-4.39-5.797zM256.36 69.6a21.06 21.06 0 0 1-9.005-3.76l3.704-1.688c1.716 2.02 3.55 3.822 5.3 5.447zm-4.824-8.142c-1.414-1.84-2.7-3.865-3.737-6.09l11.338-5.17 2.912 6.47-10.514 4.79z"/><path fill="#444" d="M282.177 16.24V4.06c0-2.243-1.803-4.062-4.03-4.062H105.6c-2.226 0-4.03 1.82-4.03 4.062V16.24h180.607z"/><ellipse fill="#2CB740" cx="110.384" cy="8.336" rx="3.193" ry="3.21"/><path fill="#F16442" d="M123.31 8.336a3.205 3.205 0 0 1-3.2 3.21c-1.757 0-3.187-1.437-3.187-3.21 0-1.77 1.43-3.21 3.188-3.21a3.207 3.207 0 0 1 3.2 3.21z"/><path fill="#FFF" d="M275.517 8.144a3.204 3.204 0 0 1-3.193 3.21H128.507c-1.754 0-3.19-1.437-3.19-3.21 0-1.778 1.437-3.215 3.19-3.215h143.816a3.204 3.204 0 0 1 3.194 3.214z"/><ellipse fill="#FCD22E" cx="133.062" cy="31.357" rx=".065" ry=".045"/><path opacity=".3" d="M110.885 72.624H273.79v2.614H110.885zM110.885 23.555H273.79v2.613H110.885z"/><g opacity=".1"><path d="M111.81 51.887h13.064v19.36H111.81zM126.915 44.313h13.068v26.935h-13.068zM156.274 40.42h13.066V71.25h-13.066zM141.62 54.697h13.062v16.55H141.62z"/><g><path d="M171.073 46.648h13.07v24.6h-13.07zM186.186 36.947h13.07v34.3h-13.07zM215.544 31.958h13.062v39.29h-13.062zM200.88 50.252h13.068v20.996H200.88z"/></g></g><path fill="#9D9D9C" d="M208.95 36.434l2.79 4.36-28.32 18.866-4.644-7.852 12.695-8.025 2.903 4.3 11.168-15.046-18.964 3.492 2.477 3.67-12.48 7.888-4.145-7.012-.05.03-.204-.38-12.605 8.396-5.415-8.683-.043.023-.18-.32-36.862 23.3 2.468 3.553 32.98-20.83 3.353 5.42-25.22 16.805 1.137 2.397h5.38l21.474-14.724 3.884 6.274 2.654-1.933 9.305-5.883 7.37 12.556 2.987-2.29 29.626-19.74 3.27 5.104 12.583-17.863-21.37 4.147zM163.913 56.09l-1.592-2.55 8.26-5.663 1.714 2.917-8.38 5.297z"/><path opacity=".2" d="M85.586 34.447c-.01-.01-.078-.018-.09-.025C76.166 25.098 73.286 11.842 76.7 0H16.468c-2.46 25.438 5.275 51.705 23.113 72.193l46.06-37.696a.234.234 0 0 0-.07-.037l.016-.013zM143.856 0c3.21 11.73.15 24.792-9.123 34.055-.008.008-.027.017-.035.023l3.96 3.262-17.315 21.145.475.39h-21.654l-.008-.123.185-.21-16.96-20.737-.562-.702-38.642 31.564 3 3.66 14.52 17.728 4.51-3.684c.198 7.11 3.368 13.71 9.122 17.73l-1.205 1.917a5.38 5.38 0 0 0 1.615 7.442 5.395 5.395 0 0 0 7.455-1.614l.346-.55c.052.222.14.43.218.645l-.654 1.016a5.382 5.382 0 0 0 1.615 7.443 5.397 5.397 0 0 0 7.454-1.617l.096-.148.756.468-.72 1.118a5.384 5.384 0 0 0 1.616 7.446 5.396 5.396 0 0 0 7.453-1.615l.823-1.275.753.467-.376.6a5.383 5.383 0 0 0 1.613 7.446 5.402 5.402 0 0 0 7.456-1.613l.478-.762 1.308.807a5.674 5.674 0 0 0 7.796-1.868c1.585-2.594.823-5.938-1.67-7.623l.892-.61 5.287 3.5a6.028 6.028 0 0 0 8.31-1.853c1.782-2.8.96-6.52-1.847-8.296l-.95-.626c.298-.227.597-.452.896-.683l4.03 2.61a6.022 6.022 0 0 0 8.276-1.986c1.652-2.696.902-6.16-1.615-7.98l.87-.595c2.767 1.38 6.165.468 7.81-2.21a6 6 0 0 0 .354-5.607c.372-.608.714-1.234 1.023-1.878.014-.018.043-.05.047-.06.002-.002-.012-.015-.012-.02a23.12 23.12 0 0 0 1.716-5.057l.02.017s.725-1.195.625-4.68l4.7 3.84 17.5-21.366 4.29 3.505C199.61 51.705 207.068 25.438 204.358 0h-60.502z"/><g><path fill="#1D89AA" d="M148.185 0c.734 9.8-2.62 19.838-10.12 27.332-.024.025-.01.05-.032.075l46.11 37.695C200.33 46.514 207.97 23.168 207.244 0h-59.058z"/><path fill="#289CC9" d="M147.364 0c.582 9.667-2.855 19.54-10.29 26.965-.007.01-.015.016-.02.023l36.02 29.535C187.23 40.41 194.034 20.118 193.494 0h-46.13z"/><path fill="#35C3EF" d="M147.364 0c.582 9.667-2.855 19.54-10.29 26.965-.007.01-.015.017-.02.023l13.902 11.43c9.87-10.845 14.517-24.725 13.947-38.418h-17.54z"/><path fill="#E9B980" d="M147.38 97.717c10.674-6.517 13.412-21.47 6.11-33.383-7.296-11.908-21.864-16.28-32.547-9.748l-14.09 8.614c-10.67 6.522-6.852 16.976.452 28.888 7.297 11.916.36 32.02 11.037 25.497l29.038-19.868z"/><path opacity=".15" d="M118.098 65.233s37.58 22.87 37.204 23.63c-.38.76-27.344 24.85-35.303 26.785-7.96 1.934-11.93-30.444-11.93-30.444l10.028-19.97z"/><path fill="#FDDBA4" d="M78.734 97.73c-10.673-6.518-13.41-21.47-6.106-33.384 7.292-11.908 21.86-16.282 32.545-9.75l3.302 3.23c10.673 6.523 22.214 15.074 6.02 39.657-7.685 11.672-10.995 15.39-21.67 8.862l-14.09-8.615z"/><path fill="#FDDBA4" d="M145.6 98.392a6.025 6.025 0 0 0 8.277-1.984 6.012 6.012 0 0 0-1.99-8.272l-35.362-23.094c-2.832-1.737-6.534-.84-8.275 1.99a6.01 6.01 0 0 0 2 8.27l35.35 23.09zM138.536 109.18a6.023 6.023 0 0 0 8.277-1.988 6.006 6.006 0 0 0-1.992-8.266l-30.698-19.89c-2.838-1.73-6.55-.838-8.28 1.995a6.01 6.01 0 0 0 1.99 8.268l30.704 19.88zM128.1 118.03a6.025 6.025 0 0 0 8.308-1.854c1.783-2.8.96-6.52-1.848-8.297l-30.057-19.895a6.02 6.02 0 0 0-8.307 1.844 6.01 6.01 0 0 0 1.85 8.305L128.1 118.03zM115.792 124.63a5.676 5.676 0 0 0 7.798-1.87 5.653 5.653 0 0 0-1.88-7.778L94.367 98.068a5.672 5.672 0 0 0-7.79 1.87 5.665 5.665 0 0 0 1.876 7.783l27.34 16.91z"/><path fill="#FDDBA4" d="M108.878 112.306l-12.535-7.912 21.283-33.647 12.54 7.91z"/><path fill="#FDDBA4" d="M116.12 120.048l-12.53-7.913 4.636-7.33 12.534 7.912zM117.567 58.752c0 1.685-1.098 3.05-2.453 3.05H91.89c-1.355 0-2.453-1.368-2.453-3.052v-4.144c0-1.688 1.098-3.055 2.453-3.054h23.223c1.357 0 2.455 1.366 2.455 3.054v4.146z"/><path fill="#E9B980" d="M94.54 111.693a5.4 5.4 0 0 1-7.457 1.616 5.384 5.384 0 0 1-1.615-7.445l7.443-11.55a5.392 5.392 0 0 1 7.453-1.613 5.38 5.38 0 0 1 1.616 7.443l-7.44 11.548z"/><path opacity=".15" d="M113.032 52.953c-.622 0-1.23.046-1.818.134-2.468-.488-5.098.518-6.54 2.762l-6.014 9.57a6.307 6.307 0 0 0 1.894 8.724 6.32 6.32 0 0 0 8.73-1.894l3.676-5.85h6.102s-3.034-7.786-5.12-13.446h-.91z"/><path fill="#E9B980" d="M103.74 118.96a5.396 5.396 0 0 1-7.454 1.615 5.384 5.384 0 0 1-1.617-7.444l7.442-11.547a5.394 5.394 0 0 1 7.453-1.615 5.38 5.38 0 0 1 1.615 7.445l-7.44 11.548zM114.01 124.584a5.4 5.4 0 0 1-7.456 1.613 5.382 5.382 0 0 1-1.614-7.445l5.133-8.17a5.396 5.396 0 0 1 7.452-1.617 5.384 5.384 0 0 1 1.615 7.447l-5.13 8.172zM85.56 104.757a5.396 5.396 0 0 1-7.456 1.613 5.378 5.378 0 0 1-1.614-7.442l5.133-8.17a5.392 5.392 0 0 1 7.45-1.616 5.382 5.382 0 0 1 1.617 7.443l-5.13 8.172zM109.283 71.084a6.323 6.323 0 0 1-8.732 1.892 6.308 6.308 0 0 1-1.89-8.722l6.013-9.574c1.886-2.932 5.795-3.775 8.73-1.89a6.31 6.31 0 0 1 1.893 8.722l-6.013 9.572z"/><path fill="#E9B980" d="M143.27 58.51c0 3.713-4.103 6.723-9.157 6.723h-21.08c-5.053 0-9.154-3.01-9.154-6.724 0-3.715 4.1-6.724 9.153-6.724h21.08c5.054 0 9.156 3.01 9.156 6.723z"/><path opacity=".15" d="M127.364 50.39c-.73.73-2.73 1.764-2.73 1.764l-1.06-.368 33.448 32.018s1.793-2.92-.63-13.056c-2.424-10.14-29.028-20.358-29.028-20.358z"/><path fill="#FFB6B6" d="M179.872 61.57L162.35 82.96l-38.644-31.568 17.522-21.396z"/><path opacity=".15" d="M99.047 50.39c.73.73 2.73.596 2.73.596l1.062.8-33.454 32.018s-2.01-3.546.633-13.056C72.81 60.702 99.046 50.39 99.046 50.39z"/><path fill="#BDDDFF" d="M46.542 61.57l17.52 21.392 38.644-31.568-17.522-21.396z"/><path fill="#FDDBA4" d="M88.76 90.27c1.773 1.266 2.226 3.623 1.007 5.25-1.215 1.63-3.305.963-5.078-.306-1.772-1.27-2.562-2.665-1.343-4.295 1.216-1.635 3.638-1.926 5.412-.65zM99.808 93.773c1.775 1.267 2.225 3.622 1.008 5.25-1.22 1.632-3.304.964-5.078-.305-1.775-1.27-2.56-2.666-1.342-4.295 1.214-1.632 3.638-1.924 5.412-.65zM108.838 101.015c1.772 1.27 2.224 3.624 1.008 5.25-1.216 1.633-3.302.964-5.075-.305-1.773-1.27-2.56-2.664-1.345-4.295 1.22-1.633 3.64-1.924 5.413-.65zM117.37 110.336c1.773 1.268 2.225 3.624 1.01 5.252-1.216 1.63-3.305.962-5.076-.308-1.774-1.27-2.564-2.664-1.346-4.293 1.215-1.633 3.643-1.927 5.412-.65z"/><path opacity=".15" d="M66.288 69.075a3.38 3.38 0 0 1-3.38 3.382 3.384 3.384 0 0 1-3.385-3.38 3.38 3.38 0 1 1 6.765-.002z"/><path fill="#2679B2" d="M66.29 67.91a3.38 3.38 0 0 1-3.38 3.377 3.382 3.382 0 0 1-3.387-3.378 3.384 3.384 0 0 1 6.767 0z"/><path opacity=".15" d="M161.866 76.45a1.18 1.18 0 0 1-1.663.153l-4.14-3.423a1.176 1.176 0 0 1-.16-1.66l3.427-4.14a1.183 1.183 0 0 1 1.664-.157l4.144 3.425c.502.417.574 1.158.156 1.66l-3.428 4.14z"/><path fill="#FFDE76" d="M161.868 75.28a1.18 1.18 0 0 1-1.665.155l-4.14-3.422a1.177 1.177 0 0 1-.16-1.662l3.427-4.138a1.185 1.185 0 0 1 1.664-.157l4.144 3.424a1.18 1.18 0 0 1 .156 1.662l-3.426 4.137z"/><path opacity=".15" d="M85.184 29.998l-38.642 31.57 3 3.665 36.205-34.547zM141.228 29.998l-1.278 1.562 36.54 34.135 3.382-4.126z"/><path fill="#FFF2A2" d="M77.65 0H18.47c-.534 23.17 7.297 46.514 23.48 65.104l46.065-37.696c-.025-.026-.105-.05-.134-.075C80.385 19.838 76.973 9.8 77.65 0z"/><path fill="#FFD645" d="M77.65 0H31.567c-.492 20.188 6.395 40.557 20.585 56.71l35.813-29.354c-.01-.01-.068-.017-.08-.024C80.383 19.838 76.973 9.8 77.65 0z"/><path fill="#D6B13C" d="M77.65 0H60.156a54.248 54.248 0 0 0 14.11 38.603l13.697-11.246c-.007-.007-.068-.017-.08-.024C80.384 19.838 76.972 9.8 77.652 0z"/></g><path opacity=".3" d="M224.32 144h38.743L240.5 90.757a.888.888 0 0 0-1.168-.473l-31.216 13.195a.893.893 0 0 0-.474 1.166L224.32 144z"/><g><path fill="#66A35D" d="M228.317 144h38.744L244.5 90.757a.888.888 0 0 0-1.17-.473l-31.216 13.195a.892.892 0 0 0-.473 1.166L228.318 144z"/><path fill="#108200" d="M263.59 144l-20.888-49.292-26.97 11.4L231.79 144z"/><path opacity=".2" d="M246.282 140.682c-6.06 2.562-12.398 1.286-14.152-2.853-1.754-4.145 1.74-9.58 7.8-12.14 6.06-2.562 12.4-1.283 14.157 2.857 1.754 4.14-1.744 9.572-7.805 12.135zM239.79 103.946c-1.823.77-3.734.39-4.263-.86-.528-1.248.522-2.89 2.348-3.66 1.827-.772 3.743-.386 4.27.862.53 1.25-.527 2.886-2.355 3.658zM224.427 110.44c-1.822.77-3.736.39-4.266-.858-.527-1.248.526-2.892 2.352-3.662 1.83-.774 3.742-.385 4.27.86.53 1.252-.525 2.888-2.355 3.66z"/></g><path opacity=".2" d="M261.26 0l-20.785 52.306a.892.892 0 0 0 .5 1.156l31.506 12.49a.89.89 0 0 0 1.16-.5L299.646 0H261.26z"/><g><path fill="#66A35D" d="M263.257 0l-20.783 52.306a.89.89 0 0 0 .5 1.156l31.506 12.49a.89.89 0 0 0 1.158-.5L301.644 0h-38.387z"/><path fill="#108200" d="M266.696 0l-20.324 51.146 27.223 10.792L298.205 0z"/><path opacity=".2" d="M271.35 27.937c-6.116-2.425-9.733-7.777-8.073-11.954 1.66-4.18 7.97-5.602 14.085-3.177 6.118 2.426 9.733 7.78 8.075 11.96-1.66 4.178-7.97 5.595-14.086 3.17zM268.916 56.688c-1.84-.73-2.932-2.35-2.43-3.607.5-1.26 2.403-1.687 4.245-.957 1.844.73 2.937 2.347 2.437 3.606-.5 1.256-2.406 1.686-4.25.958zM253.41 50.54c-1.84-.73-2.933-2.35-2.432-3.607.5-1.26 2.405-1.687 4.247-.957 1.846.73 2.936 2.345 2.435 3.604-.5 1.26-2.403 1.692-4.25.96z"/></g><path opacity=".2" d="M460.526 0H423.5l19.454 70.016a.895.895 0 0 0 1.1.62l32.66-9.056a.89.89 0 0 0 .622-1.097L460.526 0z"/><g><path fill="#66A35D" d="M480.038 52.227L465.522 0h-37.027l19.456 70.016a.894.894 0 0 0 1.1.62l30.988-8.592v-9.817z"/><path fill="#108200" d="M431.812 0l18.546 66.74 28.22-7.824L462.207 0z"/><path opacity=".2" d="M456.228 33.174c-6.342 1.757-12.46-.327-13.664-4.656-1.203-4.335 2.966-9.272 9.305-11.03 6.343-1.758 12.462.328 13.667 4.66 1.202 4.33-2.968 9.267-9.31 11.026zM471.675 57.555c-1.908.527-3.757-.104-4.118-1.41-.363-1.305.896-2.793 2.804-3.323 1.913-.53 3.76.1 4.122 1.404.363 1.304-.896 2.797-2.807 3.33zM435.146 0c.796.544 2.04.72 3.324.364a5.13 5.13 0 0 0 .922-.364h-4.246zM455.6 62.01c-1.907.53-3.757-.103-4.118-1.408-.365-1.305.895-2.795 2.805-3.325 1.914-.53 3.758.098 4.12 1.404.362 1.306-.89 2.8-2.806 3.33z"/></g><path opacity=".2" d="M282.35 144l-5.01-59.115a.887.887 0 0 0-.964-.814L242.6 86.927a.894.894 0 0 0-.813.962L246.54 144h35.81z"/><g><path fill="#66A35D" d="M286.347 144l-5.01-59.115a.887.887 0 0 0-.963-.814l-33.777 2.856a.894.894 0 0 0-.813.962L250.538 144h35.81z"/><path fill="#108200" d="M283.14 144l-4.74-55.92-29.18 2.468L253.747 144z"/><path opacity=".2" d="M267.5 132.89c-6.558.555-12.185-2.625-12.563-7.103-.38-4.482 4.634-8.563 11.19-9.117 6.56-.554 12.185 2.628 12.566 7.11.38 4.477-4.635 8.556-11.192 9.11zM272.76 95.958c-1.976.168-3.673-.79-3.787-2.14-.114-1.35 1.397-2.585 3.372-2.75 1.977-.168 3.676.796 3.79 2.145.114 1.35-1.4 2.58-3.376 2.745zM256.134 97.364c-1.973.166-3.67-.79-3.787-2.14-.113-1.352 1.4-2.586 3.373-2.753 1.98-.167 3.678.797 3.792 2.146.115 1.353-1.398 2.58-3.378 2.748z"/></g><path opacity=".2" fill="none" d="M303.104 144l6.135-31.55a.886.886 0 0 0-.705-1.045l-33.275-6.456a.894.894 0 0 0-1.045.703L266.757 144h36.347z"/><g><path fill="#66A35D" d="M307.1 144l6.136-31.55a.884.884 0 0 0-.705-1.045l-33.272-6.456a.895.895 0 0 0-1.046.703L270.752 144h36.35z"/><path fill="#108200" d="M303.845 144l5.693-29.274-28.75-5.578L274.012 144z"/><path opacity=".2" d="M298.722 144c-1.742-2.4-4.92-4.36-8.8-5.113-6.153-1.194-11.823 1.077-13.09 5.113h21.89zM301.958 120.768c-1.944-.377-3.316-1.76-3.057-3.09.26-1.33 2.052-2.106 3.996-1.73 1.946.38 3.32 1.77 3.062 3.098-.262 1.332-2.053 2.1-4 1.722zM285.58 117.59c-1.942-.377-3.315-1.76-3.058-3.09.26-1.332 2.053-2.106 3.996-1.73 1.95.378 3.32 1.768 3.062 3.097-.26 1.332-2.048 2.102-4 1.723z"/></g><path opacity=".3" d="M448.076 128.515c-.06-.43-.17-.857-.372-1.266L419.81 71.12a4.064 4.064 0 0 0-.392-2.303l-.604-1.217c0-.003-.002-.007-.004-.01L389.823 9.26c-1.008-2.035-3.496-2.863-5.553-1.844l-24.836 12.312-3.88 1.822-.57-1.147 24.27-12.03a3.433 3.433 0 0 0 1.548-4.595L378.925 0h-42.633l-24.66 12.224c-1.695.84-2.66 2.902-1.818 4.595l.336 1.226v.003l5 9.558 3.04 5.648h.007l.638 1.228c.84 1.694 2.92 2.388 4.616 1.546l23.624-11.706.613 1.23-38.533 19.1-4.04 1.898-11.672-23.49-.324.16-3.32-1.78-.59 3.718-.417.208-3.323-1.78-.588 3.72-.42.207-3.324-1.778-.587 3.716-.42.21-3.323-1.78-.59 3.717-.42.207-3.323-1.778-.583 3.715-.42.208-3.323-1.777-.588 3.716-.21.104 11.715 23.576-10.96 5.435c-2.058 1.017-2.9 3.495-1.888 5.528l.836 1.685 7.545 15.182 20.604 41.464.61 1.228c.366.737.93 1.31 1.59 1.7L303.47 144h120.576l22.86-11.332a2.894 2.894 0 0 0 1.306-3.88l-.136-.273z"/><g><path fill="#62848C" d="M312.47 144H437.2l18.637-9.238a4.11 4.11 0 0 0 1.86-5.517l-36.92-74.3a4.123 4.123 0 0 0-5.526-1.86L300.23 110.103a4.117 4.117 0 0 0-1.86 5.52L312.47 144z"/><path fill="#DADADA" d="M369.09 144l74.157-36.76-24.783-49.877-116.766 57.882L315.988 144z"/><path fill="#66A35D" d="M318.387 144h33.833l-26.373-53.072a.753.753 0 0 0-1.012-.34l-25.79 12.784a.753.753 0 0 0-.343 1.012L318.387 144z"/><path fill="#108200" d="M349.192 144L324.53 94.367l-22.29 11.05L321.416 144z"/><path opacity=".2" d="M329.923 133.167c-5.01 2.48-10.452 1.727-12.15-1.69-1.7-3.424.986-8.213 5.996-10.697 5.003-2.48 10.442-1.72 12.144 1.702 1.698 3.42-.987 8.205-5.99 10.685zM322.532 102.354c-1.508.747-3.148.52-3.662-.513-.51-1.028.298-2.476 1.806-3.224 1.513-.75 3.154-.517 3.665.514.514 1.03-.296 2.473-1.808 3.224zM309.837 108.646c-1.506.746-3.15.52-3.664-.512-.51-1.028.3-2.48 1.807-3.225 1.515-.75 3.154-.518 3.666.51.512 1.035-.295 2.476-1.81 3.226z"/><path fill="#66A35D" d="M354.104 144h19.698l10.665-5.287a.754.754 0 0 0 .342-1.015l-30.234-60.843a.755.755 0 0 0-1.015-.34L327.77 89.3a.757.757 0 0 0-.344 1.013L354.104 144z"/><path fill="#108200" d="M367.29 144l14.138-7.008-28.17-56.694-22.288 11.047L357.135 144z"/><path opacity=".2" d="M358.647 119.097c-5.006 2.482-10.45 1.728-12.148-1.692-1.7-3.423.987-8.212 5.99-10.693 5.01-2.483 10.45-1.723 12.15 1.7 1.7 3.42-.985 8.202-5.993 10.685zM351.26 88.28c-1.51.75-3.15.522-3.665-.51-.512-1.03.3-2.48 1.81-3.226 1.51-.748 3.152-.516 3.663.514.513 1.032-.298 2.473-1.807 3.222zM375.452 136.96c-1.512.75-3.156.52-3.668-.512-.512-1.03.3-2.476 1.81-3.225 1.51-.746 3.15-.52 3.663.51.512 1.033-.297 2.48-1.805 3.228zM338.562 94.575c-1.507.747-3.147.52-3.66-.513-.513-1.03.298-2.477 1.804-3.223 1.513-.75 3.154-.52 3.666.51.512 1.033-.297 2.475-1.81 3.225zM362.753 143.255c-1.506.747-3.152.515-3.664-.515-.513-1.03.3-2.476 1.805-3.222 1.514-.75 3.153-.52 3.666.51.512 1.032-.295 2.477-1.807 3.227z"/><path fill="#66A35D" d="M387.18 137.2a.76.76 0 0 1-1.02-.34l-30.23-60.844a.756.756 0 0 1 .343-1.014l25.79-12.783a.757.757 0 0 1 1.016.338l30.23 60.844a.755.755 0 0 1-.338 1.015L387.18 137.2z"/><path fill="#108200" d="M387.644 133.742L359.47 77.048 381.757 66l28.172 56.694z"/><path opacity=".2" d="M387.15 104.8c-5.007 2.48-10.45 1.726-12.15-1.692-1.7-3.422.987-8.213 5.995-10.694 5.007-2.48 10.45-1.72 12.148 1.7 1.7 3.418-.987 8.203-5.994 10.685z"/><ellipse transform="rotate(63.59 378.838 72.115)" opacity=".2" cx="378.831" cy="72.116" rx="2.086" ry="3.053"/><path opacity=".2" d="M403.95 122.665c-1.51.748-3.153.517-3.664-.515-.514-1.03.297-2.475 1.805-3.223 1.515-.75 3.155-.52 3.667.51.514 1.034-.297 2.478-1.808 3.228zM367.066 80.277c-1.51.75-3.15.52-3.663-.51-.512-1.03.297-2.48 1.807-3.227 1.512-.75 3.154-.517 3.666.513.512 1.032-.296 2.474-1.81 3.224zM391.257 128.957c-1.512.748-3.152.518-3.666-.514-.51-1.03.3-2.474 1.812-3.223s3.15-.52 3.662.51c.513 1.03-.295 2.478-1.807 3.227z"/><path fill="#66A35D" d="M415.905 123.132a.762.762 0 0 1-1.018-.344l-30.232-60.843a.753.753 0 0 1 .342-1.012l25.79-12.786a.757.757 0 0 1 1.017.34l30.232 60.843a.756.756 0 0 1-.34 1.015l-25.79 12.787z"/><path fill="#108200" d="M416.368 119.672l-28.172-56.694 22.287-11.048 28.174 56.694z"/><path opacity=".2" d="M415.876 90.73c-5.008 2.48-10.447 1.724-12.148-1.695-1.7-3.424.986-8.212 5.99-10.692 5.01-2.482 10.453-1.725 12.153 1.7 1.7 3.42-.986 8.203-5.994 10.686zM408.487 59.912c-1.507.748-3.146.52-3.662-.512-.51-1.03.3-2.478 1.807-3.224 1.508-.748 3.15-.517 3.662.513.514 1.033-.3 2.475-1.807 3.222zM432.68 108.594c-1.51.747-3.153.515-3.665-.517-.512-1.03.3-2.474 1.806-3.22 1.51-.75 3.152-.52 3.662.51.513 1.03-.295 2.478-1.803 3.227zM395.793 66.205c-1.507.748-3.15.52-3.662-.512-.51-1.03.3-2.478 1.807-3.224 1.513-.75 3.154-.518 3.665.51.514 1.034-.296 2.476-1.81 3.225zM419.98 114.886c-1.507.747-3.15.516-3.66-.516-.513-1.028.298-2.474 1.806-3.22 1.512-.75 3.154-.52 3.664.51.512 1.03-.297 2.476-1.81 3.226z"/><path fill="#99BABF" d="M438.067 144l18.833-9.336a2.893 2.893 0 0 0 1.306-3.88l-11.564-23.272a2.898 2.898 0 0 0-3.885-1.308L366.51 144h71.557z"/><path opacity=".1" d="M438.067 144l18.833-9.336a2.893 2.893 0 0 0 1.306-3.88l-1.887-3.797a2.89 2.89 0 0 1-1.308 3.88L428.52 144h9.547z"/><path fill="#E0F4FB" d="M428.804 69.585c1.01 2.035.168 4.513-1.89 5.532l-116.17 57.587c-2.056 1.02-4.54.19-5.55-1.845l-28.985-58.33c-1.012-2.035-.17-4.512 1.885-5.53l116.17-57.588c2.057-1.02 4.543-.19 5.553 1.843l28.986 58.33z"/><path opacity=".2" d="M317.026 144L432.96 86.53l-6.97-14.02-116.765 57.882L315.987 144z"/><path opacity=".2" d="M428.692 77.946l-116.765 57.882-5.404-10.872L423.29 67.074zM366.885 144l75.927-37.638-.928-1.872L362.18 144z"/><path fill="#575756" d="M322.933 56.327a2.984 2.984 0 0 1-1.346 4L294.993 73.51a2.987 2.987 0 0 1-4.007-1.346 2.98 2.98 0 0 1 1.35-3.998l26.595-13.183a2.99 2.99 0 0 1 4.003 1.344z"/><path fill="#62848C" d="M285.2 90.625l20.604 41.462c1.012 2.036 3.496 2.864 5.55 1.845l116.17-57.586c2.058-1.02 2.9-3.496 1.89-5.532L408.81 29.35 285.2 90.626z"/><path fill="#AACED6" d="M284.59 89.396l20.604 41.463c1.01 2.034 3.495 2.863 5.55 1.844l116.172-57.587c2.057-1.02 2.898-3.497 1.89-5.532L408.2 28.122 284.59 89.396z"/><path fill="#04BF8A" d="M387.054 48.34a3.614 3.614 0 0 1-1.635 4.84 3.614 3.614 0 0 1-3.215-6.474 3.627 3.627 0 0 1 4.85 1.633z"/><path opacity=".2" d="M313.117 49.48l6.032-2.832 1.468 12.985zM363.426 24.542l6.03-2.832 1.47 12.984z"/><path fill="#1985CE" d="M397.45 43.187a3.616 3.616 0 0 1-6.48 3.212 3.61 3.61 0 0 1 1.63-4.844 3.62 3.62 0 0 1 4.85 1.63z"/><path fill="#FF5252" d="M407.644 38.132a3.613 3.613 0 0 1-1.633 4.842 3.62 3.62 0 0 1-4.847-1.628 3.615 3.615 0 0 1 1.633-4.845 3.623 3.623 0 0 1 4.848 1.632z"/><path opacity=".1" d="M400.655 12.94l-.838-1.686c-1.01-2.034-3.496-2.86-5.553-1.843L278.094 67c-2.054 1.018-2.895 3.495-1.885 5.53l.836 1.684 123.61-61.273z"/><g fill="#FFF"><circle cx="388.269" cy="58.911" r="3.616"/><path d="M401.903 52.15a3.61 3.61 0 0 1-1.63 4.843 3.615 3.615 0 0 1-4.848-1.63 3.607 3.607 0 0 1 1.632-4.842 3.62 3.62 0 0 1 4.846 1.63zM412.1 47.098a3.61 3.61 0 0 1-1.634 4.843 3.62 3.62 0 0 1-4.848-1.63 3.61 3.61 0 0 1 1.634-4.842 3.623 3.623 0 0 1 4.85 1.63zM395.907 66.157a3.612 3.612 0 0 1-1.633 4.84 3.62 3.62 0 0 1-4.848-1.628 3.61 3.61 0 0 1 1.63-4.844 3.622 3.622 0 0 1 4.85 1.63z"/><circle cx="403.062" cy="62.609" r="3.616"/><path d="M416.5 55.95a3.612 3.612 0 0 1-1.636 4.84 3.613 3.613 0 0 1-3.215-6.473 3.624 3.624 0 0 1 4.85 1.632zM400.53 75.46a3.617 3.617 0 0 1-6.48 3.21 3.61 3.61 0 0 1 1.63-4.842 3.624 3.624 0 0 1 4.85 1.63zM410.925 70.307a3.608 3.608 0 0 1-1.633 4.84c-1.79.887-3.96.16-4.848-1.63a3.61 3.61 0 0 1 1.633-4.842 3.62 3.62 0 0 1 4.848 1.632zM421.122 65.252a3.612 3.612 0 0 1-1.635 4.84 3.613 3.613 0 0 1-3.217-6.474 3.627 3.627 0 0 1 4.85 1.634z"/></g><path fill="#FFE4C0" d="M303.437 25.055L277.343 37.99l17.65 35.52 26.092-12.936z"/><path opacity=".05" d="M303.437 25.055l-8.444 48.454 26.092-12.936z"/><path opacity=".2" d="M320.15 58.69l-26.094 12.936.937 1.883 26.092-12.936z"/><g fill="#FFE4C0"><path d="M277.49 38.284l.648-4.115 3.68 1.968zM281.82 36.138l.646-4.116 3.68 1.97zM286.146 33.992l.654-4.116 3.678 1.97zM290.478 31.846l.65-4.117 3.682 1.968zM294.81 29.698l.65-4.115 3.68 1.97zM299.14 27.552l.65-4.116 3.678 1.97z"/></g><g opacity=".2"><path d="M315.593 56.788a.9.9 0 0 1-.405 1.206L296.5 67.258a.9.9 0 1 1-.802-1.613l18.688-9.26a.9.9 0 0 1 1.207.404zM313.76 53.1a.9.9 0 0 1-.403 1.207L294.67 63.57a.9.9 0 0 1-1.208-.408.898.898 0 0 1 .404-1.204l18.688-9.264a.9.9 0 0 1 1.205.407zM311.93 49.415a.9.9 0 0 1-.406 1.206l-18.687 9.265a.9.9 0 1 1-.8-1.615l18.685-9.262a.902.902 0 0 1 1.207.407zM310.097 45.73a.9.9 0 0 1-.404 1.203l-18.688 9.265a.903.903 0 0 1-1.206-.407.9.9 0 0 1 .404-1.204l18.688-9.265a.904.904 0 0 1 1.205.41zM308.265 42.043a.9.9 0 0 1-.404 1.206l-18.686 9.262a.903.903 0 0 1-1.207-.41.898.898 0 0 1 .405-1.203l18.687-9.265a.904.904 0 0 1 1.205.408zM306.434 38.356a.902.902 0 0 1-.405 1.207l-18.687 9.263a.904.904 0 0 1-1.207-.407.903.903 0 0 1 .404-1.21l18.687-9.262a.906.906 0 0 1 1.207.408zM304.6 34.67a.9.9 0 0 1-.403 1.205L285.51 45.14a.9.9 0 0 1-.8-1.612l18.686-9.264a.9.9 0 0 1 1.205.406zM302.77 30.984a.9.9 0 0 1-.403 1.206l-18.688 9.263a.902.902 0 0 1-1.208-.41.897.897 0 0 1 .406-1.2l18.687-9.266a.9.9 0 0 1 1.204.407z"/></g><path fill="#AACED6" d="M371.056 34.63l-7.905 3.92-6.686-13.458 7.905-3.92z"/><path fill="#62848C" d="M366.237 24.934l-7.905 3.918-1.868-3.76 7.905-3.92z"/><g><path fill="#85B3BA" d="M375.585 61.272a1.687 1.687 0 0 1-.766 2.264l-5.462 2.705a1.688 1.688 0 0 1-2.265-.76l-2.712-5.458a1.688 1.688 0 0 1 .764-2.262l5.46-2.706a1.69 1.69 0 0 1 2.268.76l2.713 5.458zM362.108 67.953a1.683 1.683 0 0 1-.762 2.26l-5.466 2.71a1.69 1.69 0 0 1-2.265-.76l-2.713-5.46a1.687 1.687 0 0 1 .764-2.26l5.466-2.71a1.69 1.69 0 0 1 2.263.762l2.713 5.458zM348.632 74.632c.416.837.074 1.85-.762 2.262l-5.46 2.706a1.688 1.688 0 0 1-2.267-.76l-2.71-5.458a1.684 1.684 0 0 1 .763-2.262l5.46-2.706a1.693 1.693 0 0 1 2.265.76l2.712 5.458zM335.157 81.312a1.685 1.685 0 0 1-.764 2.263l-5.46 2.707c-.84.416-1.85.076-2.267-.76l-2.714-5.46a1.69 1.69 0 0 1 .765-2.262l5.462-2.707a1.692 1.692 0 0 1 2.265.76l2.712 5.46zM321.684 87.992a1.69 1.69 0 0 1-.767 2.264l-5.463 2.708a1.686 1.686 0 0 1-2.262-.762l-2.713-5.46a1.684 1.684 0 0 1 .76-2.26l5.464-2.708a1.694 1.694 0 0 1 2.267.76l2.714 5.458zM308.207 94.672a1.69 1.69 0 0 1-.764 2.262l-5.468 2.71a1.686 1.686 0 0 1-2.26-.762l-2.713-5.46a1.686 1.686 0 0 1 .76-2.26l5.467-2.71a1.696 1.696 0 0 1 2.265.76l2.712 5.46zM381.26 72.693a1.684 1.684 0 0 1-.766 2.263l-5.46 2.707a1.69 1.69 0 0 1-2.266-.76l-2.712-5.46a1.683 1.683 0 0 1 .765-2.26l5.46-2.706a1.688 1.688 0 0 1 2.268.758l2.71 5.458zM367.784 79.373a1.687 1.687 0 0 1-.762 2.262l-5.467 2.71a1.69 1.69 0 0 1-2.264-.76l-2.712-5.46a1.682 1.682 0 0 1 .764-2.26l5.467-2.71a1.686 1.686 0 0 1 2.26.762l2.714 5.456zM354.308 86.055a1.685 1.685 0 0 1-.764 2.26l-5.457 2.707a1.69 1.69 0 0 1-2.268-.76l-2.713-5.457a1.682 1.682 0 0 1 .766-2.26l5.458-2.707a1.688 1.688 0 0 1 2.267.76l2.71 5.457zM340.833 92.732a1.686 1.686 0 0 1-.764 2.262l-5.462 2.708a1.69 1.69 0 0 1-2.267-.76l-2.71-5.457a1.684 1.684 0 0 1 .765-2.262l5.46-2.708a1.69 1.69 0 0 1 2.266.76l2.713 5.457zM327.358 99.412a1.69 1.69 0 0 1-.766 2.263l-5.463 2.708a1.69 1.69 0 0 1-2.265-.76l-2.71-5.458a1.684 1.684 0 0 1 .76-2.26l5.464-2.708a1.692 1.692 0 0 1 2.266.758l2.712 5.457zM313.882 106.093c.415.835.07 1.85-.764 2.262l-5.467 2.71a1.685 1.685 0 0 1-2.26-.763l-2.71-5.457a1.68 1.68 0 0 1 .758-2.26l5.467-2.71a1.693 1.693 0 0 1 2.266.76l2.712 5.458zM387.188 84.626a1.684 1.684 0 0 1-.766 2.263l-5.46 2.706a1.69 1.69 0 0 1-2.265-.76l-2.713-5.46a1.686 1.686 0 0 1 .764-2.26l5.46-2.707a1.69 1.69 0 0 1 2.27.76l2.71 5.456zM373.713 91.306a1.686 1.686 0 0 1-.76 2.262l-5.468 2.71a1.695 1.695 0 0 1-2.266-.76l-2.712-5.46a1.686 1.686 0 0 1 .763-2.263l5.467-2.71a1.687 1.687 0 0 1 2.264.763l2.713 5.458zM360.237 97.987a1.69 1.69 0 0 1-.764 2.262l-5.457 2.705a1.69 1.69 0 0 1-2.268-.76l-2.713-5.46a1.682 1.682 0 0 1 .766-2.26l5.46-2.708a1.69 1.69 0 0 1 2.264.76l2.713 5.46zM346.763 104.666a1.687 1.687 0 0 1-.764 2.262l-5.462 2.707a1.692 1.692 0 0 1-2.268-.76l-2.71-5.46a1.683 1.683 0 0 1 .763-2.26l5.46-2.708a1.688 1.688 0 0 1 2.267.76l2.713 5.46zM333.29 111.345c.412.834.066 1.85-.768 2.263l-5.463 2.71a1.69 1.69 0 0 1-2.265-.763l-2.712-5.458a1.684 1.684 0 0 1 .76-2.26l5.464-2.708a1.693 1.693 0 0 1 2.268.757l2.714 5.458zM319.812 118.025c.414.835.07 1.85-.764 2.263l-5.467 2.71a1.685 1.685 0 0 1-2.26-.764l-2.712-5.46a1.68 1.68 0 0 1 .76-2.258l5.465-2.71a1.693 1.693 0 0 1 2.266.76l2.712 5.46z"/></g><path fill="#E0F4FB" d="M387.925 0h-2.298l2.714 5.46c.337.677.06 1.502-.62 1.84l-55.79 27.654c-.68.338-1.503.06-1.84-.62L321.924 17.9a1.37 1.37 0 0 1 .618-1.838L354.945 0h-4.633l-28.686 14.22a3.43 3.43 0 0 0-1.55 4.595l8.167 16.436a3.442 3.442 0 0 0 4.603 1.55l55.79-27.657a3.434 3.434 0 0 0 1.548-4.596L387.924 0z"/><path fill="#3C3C3B" d="M386.797 0H357.27L322.1 17.434a1.416 1.416 0 0 0-.638 1.9l8.428 16.96c.35.7 1.2.988 1.9.642l57.592-28.55c.7-.348.986-1.197.64-1.897L386.796 0z"/><path fill="#85B3BA" d="M387.927 0h-2.3l3.324 6.688c.338.678.06 1.5-.62 1.837L332.54 36.18c-.68.338-1.503.062-1.84-.616l-8.166-16.435a1.37 1.37 0 0 1 .62-1.84L358.033 0H353.4l-31.163 15.448a3.43 3.43 0 0 0-1.55 4.596l8.167 16.435a3.438 3.438 0 0 0 4.603 1.545l55.79-27.655a3.432 3.432 0 0 0 1.55-4.595L387.926 0z"/><g fill="#108200"><path d="M343.874 26.334l-4.53-9.12-1.3.645-.652-1.315 1.955-2.588 1.312-.65 5.83 11.73-2.616 1.297zM349.665 8.843l2.61-1.296a2.78 2.78 0 0 1 2.218-.135c.77.263 1.33.75 1.682 1.46l3.232 6.506c.352.71.402 1.448.146 2.22a2.765 2.765 0 0 1-1.447 1.68l-2.61 1.296c-.71.35-1.456.4-2.224.144-.77-.256-1.336-.742-1.692-1.46l-3.233-6.505a2.8 2.8 0 0 1-.14-2.23c.26-.766.75-1.33 1.458-1.68zm3.78 1.088c-.548-.623-1.16-.77-1.837-.433a1.408 1.408 0 0 0-.727.84c-.126.38-.1.752.083 1.118l2.2 4.427.283-5.95zm.89 8.234c.24.323.51.528.82.605.307.083.638.036.992-.14.363-.18.61-.464.74-.853.122-.387.098-.757-.08-1.11l-2.197-4.425-.275 5.922zM361.282 3.083l2.61-1.294c.712-.352 1.454-.398 2.22-.137.77.264 1.332.75 1.684 1.458l3.232 6.507c.352.708.398 1.448.145 2.22a2.78 2.78 0 0 1-1.45 1.684l-2.61 1.295c-.713.354-1.455.4-2.225.146a2.807 2.807 0 0 1-1.688-1.46l-3.233-6.507a2.796 2.796 0 0 1-.145-2.227c.26-.767.747-1.33 1.46-1.683zm3.78 1.09c-.547-.625-1.16-.77-1.833-.437a1.39 1.39 0 0 0-.73.84 1.4 1.4 0 0 0 .08 1.12l2.2 4.426.283-5.95zm.892 8.23c.236.326.512.528.816.61.31.08.64.034.998-.143a1.4 1.4 0 0 0 .733-.85c.127-.39.1-.76-.075-1.113l-2.198-4.423-.273 5.92zM380.73 0H376.6l-.205 4.364L374.227 0h-2.94c.006.418.098.83.3 1.232l3.23 6.507c.358.717.92 1.204 1.692 1.46.77.254 1.51.206 2.218-.145l2.614-1.295c.71-.353 1.192-.914 1.45-1.683.254-.77.206-1.512-.145-2.22L380.73 0zm-.614 6.262c-.123.386-.37.67-.734.85-.354.178-.686.224-.994.14-.307-.077-.578-.282-.818-.606l.275-5.922 2.197 4.425c.178.352.204.722.074 1.112z"/></g><ellipse transform="rotate(-26.363 366.974 36.362)" fill="#AACED6" cx="366.998" cy="36.375" rx="4.411" ry="1.132"/></g></svg>