<svg xmlns="http://www.w3.org/2000/svg" height="144" viewBox="0 0 144 144" width="144"><defs><clipPath id="a"><path fill="#f3f3f3" d="M0 0h144v144H0z"/></clipPath></defs><g clip-path="url(#a)"><path fill="#ec514f" d="M.058-.022h157v144h-157z"/><path d="M148.718-5.093H-.002v149.76h157.04c16.224-19.032 26.104-43.68 26.104-70.616 0-31.2-13.104-59.28-34.216-79.143z" fill="#80cef1"/><g fill-rule="evenodd" clip-rule="evenodd" fill="#18a538"><path d="M1.714 95.602c0-.198.02-.138 0-.198-.492-.204-1.134-.35-1.654-.438v4.16c.11.067.21.133.325.202 1.092 1.436 3.068 2.746 4.93 2.028 1.08-3.068-1.176-4.93-3.6-5.76zM18.718 64.506c.178.156.293.41.45.438h.233c1.093.31 2.164-.788 1.332-.86-.325-.056-.958.026-2.007.422zM44.198 54.938c-1.747.296-2.163 1.456 1.58 4.004.466-.126 3.682-.846 1.8 1.082 5.803-3.443-.41-5.616-3.38-5.096zM44.198 30.29c6.26-2.527 7.706-18.928.246-18.408-.48 0-.964.237-1.58.462 3.12 5.72-4.077 13 1.33 17.992zM116.478 43.81c.495-3.41-4.97-5.928-7.436-5.782-1.435.1-1.716 1.112.94 3.567-2.485 5.813 4.13 6.125 6.5 2.215zM60.11 1.212c1.81-.837 2.673-3.817 0-3.817-.482-.124-.846-.25-1.33-.222-.483.014-.964.184-1.322.222-5.283 1.05-3.682 9.745 2.652 3.817z"/><path d="M67.494-.827c-7.696.967-15.392 8.34-8.216 15.496 5.096 6.343-7.384 19.24 4.368 22.463 4.68-10.4 17.576-18.616 14.352-31.304C76.75.44 72.07-1.42 67.494-.85z"/></g><g fill="#18a538"><path d="M22.046 124.93c-5.512-5.2-14.664-6.24-21.944-8.32v28.08h47.944c-8.382-6.958-15.704-15.288-26-19.76zM.058 80.73c7.478-1.664 10.504-14.872 19.76-16.848 4.992-4.368 18.512.312 13.624-8.528 4.784-4.576 19.032-4.368 12.064-15.08-2.288-10.4-15.184-15.392-19.448-3.536-11.648 3.12-6.968-22.048 4.888-18.72 8.6.493 7.426-6.926 2.216-9.318 0-.365-.113-.562-.442-.24-.95-.35-1.956-.72-3.13-.664C24.284 4.894 26.26-.087 28.55-5.1H8.892a316.152 316.152 0 0 0-8.88 8.455V80.73zM181.998 62.738c-6.282 3.41-17.472-15.392-6.032-6.438 2.236-.15 3.64-.79 4.7-1.747-1.32-6.843-3.11-13.52-5.615-19.76-1.122-1.33-2.204-2.57-3.13-3.317.077-1.363-.056-2.684-.222-3.994-.056-.068.066-.168 0-.237-6.24-12.272-13.52-23.192-23.92-32.344h-35.672c3.245 4.057 5.74 8.425-.24 7.634-10.92-1.476-8.082 19.864-.214 23.816 7.5 4.004 11.752-4.035 4.015-7.987-1.04-10.025 16.848 6.157 8.933 11.544-.312.212-.567.463-.872.69.362-1.434-.52-.084-.49.242-8.966 6.447-3.85 21.63-7.333 31.72-6.21 13.727 15.496 7.654 12.272-3.12-3.973-9.912 16.536-5.398 12.064-12.48 12.48 6.55 11.233-11.025 6.064-16.953 2.423-9.4 8.81 1.103 5.793 6.22.492 4.835 4.7 5.96 8.07 7.342.15.11.33.127.665.21 2.954 1.392 4.71 3.192 1.54 8.693-3.65 12.272-16.017 12.896-26.105 10.608-10.233 4.203-12.168 16.537-17.888 24.857-5.73 10.39-10.505 25.688-.202 34.84 9.84 9.38 21.112 1.248 29.328-5.106 15.6-2.017 17.056 16.225 9.38 25.585-.088.426-.15.752-.216 1.102 16.328-19.032 26.208-43.68 26.208-70.616 0-3.004-.21-5.968-.456-8.922-.08-.738-.134-1.487-.217-2.215z"/></g><path opacity=".3" d="M30.9 134c.868 3.42 3.44 6.03 6.72 6.97.254.08.457.084.598.113l.045.01c.105.02.174.03.174.03h74.6v.1l9.86.02c.844.174 1.62.27 2.52.27.066 0 .086-.01.154-.01.175.013.272.056.288.075 6.73-.266 12.1-5.44 12.2-12.4h.018v-.556c1 .254 2 .362 4 .245v.31h16v3.97h1v10.9h50v-60.8l-.152-3.97c-.137-3.97-3.98-9.15-11.2-9.31-.75-.015-1.36-.43-1.88.564h-28.7v-.57l-3-.318v-3.08h-.56c-.22-6.95-5.8-12.2-12.7-12.2-.85 0-1.68.268-2.48.268h-32.5l-2.79-.5v-26c0-.976-.497-1.3-.75-2.29h.75v-5.98c0-1-1.18-1.96-2.19-1.96h-79.8v113c0 .865-.313 1.88-.12 2.87 0-.044.004-.152.006-.146z"/><path opacity=".2" d="M128 68.7h51.6s1.98-3.93 5.83-4.51c3.84-.58 0-.123 0-.123l-52.7.103s-3.14.395-4.7 4.53z" fill="#fff"/><path d="M154 60.4v62.1H81.5c-5.29 0-9.59-4.46-9.59-9.96v-52.1h82.1z" fill="#ffe4c0"/><path opacity=".3" d="M121 55.9c-7 1.4-9 1-23 1.7V105h7.94c.088 2 .41 3 .958 4h-8.9v7.76l17.7.015c.842.175 1.86.223 2.76.223.068 0 .208-.032.276-.033.264.02.433-.153.3-.19 6.54-.235 2.92 6.72 13.2 6.03l.086-66.6s-3.2-.97-11.3-.377z"/><path d="M165 122s-10.7-.063-11.8-12.1c-1.12-12-4.52 2.32-4.52 2.32l-.24 9.67 16.5.122z" fill="#ffe4c0"/><path opacity=".05" d="M72 115h82.8s3.19 6.32 9.36 7.25c6.18.93 0 .198 0 .198l-84.6-.166s-5.05-.635-7.54-7.28z"/><g opacity=".3"><path d="M149 107c0 .84-.686 1.52-1.53 1.52h-30.4c-.85 0-1.54-.682-1.54-1.52 0-.84.687-1.52 1.54-1.52h30.4c.848 0 1.53.682 1.53 1.52zM149 100c0 .84-.686 1.52-1.53 1.52h-30.4c-.85 0-1.54-.683-1.54-1.52 0-.84.687-1.52 1.54-1.52h30.4c.848 0 1.53.682 1.53 1.52zM149 94.4c0 .842-.686 1.52-1.53 1.52h-30.4c-.85 0-1.54-.68-1.54-1.52s.687-1.52 1.54-1.52h30.4c.848 0 1.53.682 1.53 1.52zM149 88.3c0 .84-.686 1.52-1.53 1.52h-30.4c-.85 0-1.54-.683-1.54-1.52 0-.84.687-1.52 1.54-1.52h30.4c.848 0 1.53.682 1.53 1.52zM149 82.2c0 .84-.686 1.52-1.53 1.52h-30.4c-.85 0-1.54-.683-1.54-1.52 0-.84.687-1.52 1.54-1.52h30.4c.848 0 1.53.682 1.53 1.52zM149 76.1c0 .842-.686 1.52-1.53 1.52h-30.4c-.85 0-1.54-.682-1.54-1.52 0-.84.687-1.52 1.54-1.52h30.4c.848 0 1.53.682 1.53 1.52zM149 70c0 .84-.686 1.52-1.53 1.52h-30.4c-.85 0-1.54-.684-1.54-1.52 0-.84.687-1.52 1.54-1.52h30.4c.848 0 1.53.682 1.53 1.52z"/></g><path d="M141 49H45.516v62c0 7 4.3 12 9.6 12h72.4V61h13V49z" fill="#cead84"/><path d="M115 135c-7.02 0-12.7-5.65-12.7-12.6h25.4c0 6.97-5.69 12.6-12.7 12.6z" fill="#cead84"/><path d="M141 48.2c-7.02 0-12.7 5.65-12.7 12.6h25.4c0-6.97-5.69-12.6-12.7-12.6z" fill="#ffe4c0"/><g fill-rule="evenodd" clip-rule="evenodd" fill="#18a538"><path d="M25 62.9c-.966.164-1.2.806.878 2.22.26-.07 2.04-.47.998.604 3.22-1.91-.227-3.12-1.88-2.83zM25 49.2c3.48-1.4 4.28-10.5.138-10.2-.266 0-.535.133-.875.258 1.73 3.17-2.26 7.21.737 9.96zM64.8 56.8c.274-1.9-2.76-3.29-4.13-3.21-.797.055-.95.62.52 1.98-1.38 3.22 2.29 3.4 3.61 1.23zM33.8 33.1c1-.464 1.48-2.12 0-2.12-.268-.07-.47-.14-.74-.124-.266.008-.533.103-.73.124-2.93.58-2.04 5.41 1.47 2.12z"/><path d="M37.9 32c-4.24.533-8.52 4.6-4.58 8.62 2.83 3.5-4.08 10.6 2.47 12.5 2.6-5.77 9.71-10.3 7.95-17.4-.736-3-3.3-4.04-5.85-3.72z"/></g><path opacity=".3" d="M103 48.1l-.027 75s.908 11.7 11.7 12.2c-2.88-.873-8.32-1.83-8.32-12.6V48.4l-3.37-.337z"/><path opacity=".2" d="M46.4 55.7h82.8s3.19-6.32 9.36-7.25c-7.02 0-11.7.202-11.7.202l-73.1-.2s-5.05.634-7.54 7.28z" fill="#fff"/><path d="M93.1 12.2c5.29 0 9.59 4.46 9.59 9.96v52.1h-82.1v-62.1h72.5z" fill="#ffe4c0"/><path d="M103 73.1v62.1H30.5c-5.3 0-9.59-4.46-9.59-9.96v-52.1h82.1z" fill="#ffe4c0"/><path opacity=".3" d="M58.6 77.5a3.06 3.06 0 0 1-3.07 3.05h-27c-1.7 0-3.07-1.36-3.07-3.05V63.4a3.06 3.06 0 0 1 3.07-3.05h27c1.69 0 3.07 1.36 3.07 3.05v14.1z"/><g opacity=".3"><path d="M58.9 123c0 .84-.688 1.52-1.53 1.52h-30.4c-.847 0-1.53-.682-1.53-1.52 0-.84.687-1.52 1.53-1.52h30.4c.847 0 1.54.68 1.54 1.52zM58.9 117c0 .84-.688 1.52-1.53 1.52h-30.4c-.847 0-1.53-.683-1.53-1.52 0-.84.687-1.52 1.53-1.52h30.4c.847 0 1.54.682 1.54 1.52zM58.9 111c0 .84-.688 1.52-1.53 1.52h-30.4c-.847 0-1.53-.683-1.53-1.52 0-.84.687-1.52 1.53-1.52h30.4c.847 0 1.54.682 1.54 1.52zM58.9 105c0 .84-.688 1.52-1.53 1.52h-30.4c-.847 0-1.53-.68-1.53-1.52s.687-1.52 1.53-1.52h30.4c.847 0 1.54.682 1.54 1.52zM58.9 98.4c0 .84-.688 1.52-1.53 1.52h-30.4c-.847 0-1.53-.683-1.53-1.52 0-.84.687-1.52 1.53-1.52h30.4c.847 0 1.54.684 1.54 1.52zM58.9 92.3c0 .84-.688 1.52-1.53 1.52h-30.4c-.847 0-1.53-.684-1.53-1.52 0-.842.687-1.52 1.53-1.52h30.4c.847 0 1.54.682 1.54 1.52zM58.9 86.3c0 .84-.688 1.52-1.53 1.52h-30.4c-.847 0-1.53-.682-1.53-1.52 0-.84.687-1.52 1.53-1.52h30.4c.847 0 1.54.682 1.54 1.52z"/></g><g opacity=".3"><path d="M96.1 98.6c0 .842-.687 1.52-1.53 1.52h-30.4c-.848 0-1.54-.682-1.54-1.52 0-.84.688-1.52 1.54-1.52h30.4c.848 0 1.54.682 1.54 1.52zM96.1 92.5c0 .84-.687 1.52-1.53 1.52h-30.4c-.848 0-1.54-.682-1.54-1.52 0-.84.688-1.52 1.54-1.52h30.4c.848 0 1.54.682 1.54 1.52zM96.1 86.4c0 .842-.687 1.52-1.53 1.52h-30.4c-.848 0-1.54-.682-1.54-1.52 0-.84.688-1.52 1.54-1.52h30.4c.848 0 1.54.683 1.54 1.52zM96.1 80.3c0 .84-.687 1.52-1.53 1.52h-30.4c-.848 0-1.54-.683-1.54-1.52 0-.842.688-1.52 1.54-1.52h30.4c.848 0 1.54.68 1.54 1.52zM96.1 74.3c0 .84-.687 1.52-1.53 1.52h-30.4c-.848 0-1.54-.682-1.54-1.52 0-.84.688-1.52 1.54-1.52h30.4c.848 0 1.54.683 1.54 1.52zM96.1 68.2c0 .84-.687 1.52-1.53 1.52h-30.4c-.848 0-1.54-.682-1.54-1.52 0-.842.688-1.52 1.54-1.52h30.4c.848 0 1.54.682 1.54 1.52zM96.1 62.1c0 .84-.687 1.52-1.53 1.52h-30.4c-.848 0-1.54-.683-1.54-1.52 0-.842.688-1.52 1.54-1.52h30.4c.848 0 1.54.682 1.54 1.52z"/></g><path d="M96.1 123c0 .84-.687 1.52-1.53 1.52h-30.4c-.848 0-1.54-.682-1.54-1.52 0-.84.688-1.52 1.54-1.52h30.4c.848 0 1.54.68 1.54 1.52zM96.1 117c0 .84-.687 1.52-1.53 1.52h-30.4c-.848 0-1.54-.683-1.54-1.52 0-.84.688-1.52 1.54-1.52h30.4c.848 0 1.54.682 1.54 1.52zM96.1 111c0 .84-.687 1.52-1.53 1.52h-30.4c-.848 0-1.54-.683-1.54-1.52 0-.84.688-1.52 1.54-1.52h30.4c.848 0 1.54.682 1.54 1.52zM96.1 105c0 .84-.687 1.52-1.53 1.52h-30.4c-.848 0-1.54-.68-1.54-1.52s.688-1.52 1.54-1.52h30.4c.848 0 1.54.682 1.54 1.52z" opacity=".3"/><path d="M114 135s-10.7-.063-11.8-12.1c-1.12-12.1-4.52 2.32-4.52 2.32l-.242 9.67 16.5.123z" fill="#ffe4c0"/><path opacity=".05" d="M20.9 128h82.8s3.19 6.32 9.36 7.25c6.18.93 0 .2 0 .2l-84.6-.168s-5.05-.634-7.54-7.28z"/><path opacity=".3" d="M67.8 41.4l1.4 8.4-7.5-4-7.6 4 1.4-8.4-6.1-6 8.5-1.2 3.8-7.6 3.7 7.6 8.5 1.2zM94 38.7l-5.26-7.04a.65.65 0 0 0-.9-.132l-.127.095a.635.635 0 0 0-.135.892l4.99 6.68-4.99 6.68a.635.635 0 0 0 .135.892l.127.096c.285.21.688.15.9-.133L94 39.69a.626.626 0 0 0 .112-.493.628.628 0 0 0-.112-.493zM27.2 39.7l5.26 7.04a.647.647 0 0 0 .9.132l.128-.095a.635.635 0 0 0 .133-.892l-4.99-6.68 4.99-6.68a.635.635 0 0 0-.132-.892l-.13-.095a.646.646 0 0 0-.898.132l-5.26 7.04a.625.625 0 0 0-.11.492c-.032.17 0 .346.11.494z"/><path d="M103 19.3v-5.46c0-1.01-.82-1.82-1.83-1.82h-78.4c-1.01 0-1.83.816-1.83 1.82v5.46h82.1z" fill="#444"/><ellipse cx="24.6" cy="15.8" rx="1.45" ry="1.44" fill="#2cb740"/><ellipse cx="29.1" cy="15.8" rx="1.45" ry="1.44" fill="#f16442"/><path d="M99.7 15.7c0 .795-.65 1.44-1.45 1.44h-65.4a1.45 1.45 0 0 1-1.45-1.44c0-.797.655-1.44 1.45-1.44h65.4c.8 0 1.45.645 1.45 1.44z" fill="#fff"/><path opacity=".3" d="M153 63.6l-.107 46.9s1.03 11.7 11.8 12.2c-2.88-.872-8.2-1.83-8.2-12.6V63.9l-3.53-.337zM139 48.4c-12.3 1.72-11.2 14.5-11.2 12.5 3.45 0 4.29-.03 4.29-.03s-.59-7.44 6.87-12.4z"/><path d="M103 22v-9.43c0-1-.82-1.82-1.83-1.82h-78.4c-1.01 0-1.83.816-1.83 1.82V22h82.1z" fill="#444"/><ellipse cx="25.3" cy="16.3" rx="2.14" ry="2.13" fill="#2cb740"/><path d="M34 16.3c0 1.18-.96 2.13-2.15 2.13-1.18 0-2.14-.952-2.14-2.13s.96-2.13 2.14-2.13c1.19 0 2.15.953 2.15 2.13z" fill="#f16442"/><path d="M99.9 16.3c0 1.4-1.14 2.53-2.55 2.53h-59.3c-1.4 0-2.55-1.14-2.55-2.53 0-1.4 1.15-2.54 2.55-2.54h59.3a2.54 2.54 0 0 1 2.55 2.54z" fill="#fff"/></g></svg>