<svg xmlns="http://www.w3.org/2000/svg" width="55.333" height="55.545" viewBox="0 0 55.333 55.545"><path fill="#493351" d="M55.333 27.667C55.333 12.387 42.946 0 27.666 0 12.428 0 .068 12.322.003 27.545H0v28h28v-.22c15.125-.18 27.333-12.49 27.333-27.658z"/><g fill="#FFF"><path d="M5.092 29.51v-3.183l15.598-6.995v3.288L8.273 27.935 20.69 33.18v3.29L5.09 29.51zM21.7 40.316l8.288-24.726h3.22l-8.29 24.726H21.7zM34.218 36.47v-3.29l12.415-5.245-12.415-5.316v-3.29l15.6 6.996v3.182l-15.6 6.96z"/></g><path opacity=".1" fill="#F3F3F3" d="M47.46 8.347C42.44 3.2 35.43 0 27.667 0 12.428 0 .068 12.322.003 27.545H0v28h.263L47.46 8.347z"/></svg>