<svg xmlns="http://www.w3.org/2000/svg" width="60.461" height="60.461" viewBox="0 0 60.461 60.461"><g fill="#683C11"><path d="M33.048 28.07L44.85 16.268l-1.1-1.1-11.9 11.902c.47.243.88.584 1.198 1zM30.23 26.664c.268 0 .527.035.778.092V9.893H29.45v16.863a3.51 3.51 0 0 1 .78-.092zM28.61 27.07l-11.9-11.9-1.1 1.1 11.8 11.8c.32-.418.73-.758 1.2-1zM33.795 30.23c0 .115-.023.224-.034.336H50.13V29.01H33.565c.14.383.23.79.23 1.22zM32.39 33.05l11.36 11.36 1.1-1.1-11.46-11.46a3.6 3.6 0 0 1-1 1.2zM30.23 33.797a3.57 3.57 0 0 1-.78-.09v15.98h1.558V33.704c-.25.057-.51.092-.78.092zM27.07 31.85L15.61 43.31l1.1 1.1L28.07 33.05a3.6 3.6 0 0 1-1-1.202zM26.664 30.23c0-.43.088-.838.228-1.22h-16.56v1.556h16.365c-.01-.112-.033-.22-.033-.336z"/></g><path fill="#B17F4A" d="M30.23 23.676a6.555 6.555 0 0 0 0 13.11 6.555 6.555 0 0 0 6.554-6.555 6.553 6.553 0 0 0-6.555-6.554zm0 9.902a3.348 3.348 0 1 1 0-6.696 3.348 3.348 0 0 1 0 6.696z"/><path fill="#683C11" d="M32.175 8.634c0 1.114-.784 2.02-1.75 2.02h-.408c-.967 0-1.75-.905-1.75-2.02V4.598c0-1.115.783-2.02 1.75-2.02h.408c.967 0 1.75.904 1.75 2.02v4.036zM28.285 51.827c0-1.115.784-2.02 1.75-2.02h.408c.967 0 1.75.904 1.75 2.02v4.036c0 1.116-.783 2.02-1.75 2.02h-.408c-.967 0-1.75-.903-1.75-2.02v-4.036zM8.633 28.285c1.115 0 2.02.783 2.02 1.75v.41c0 .965-.905 1.75-2.02 1.75H4.597c-1.115 0-2.02-.785-2.02-1.75v-.41c0-.967.905-1.75 2.02-1.75h4.036zM51.826 32.176c-1.114 0-2.018-.785-2.018-1.75v-.41c0-.965.904-1.75 2.018-1.75h4.038c1.115 0 2.02.785 2.02 1.75v.41c0 .965-.905 1.75-2.02 1.75h-4.038zM13.583 44.127c.79-.79 1.983-.873 2.666-.19l.288.29c.684.683.6 1.877-.19 2.666l-2.853 2.854c-.79.79-1.982.872-2.666.19l-.29-.29c-.684-.684-.6-1.877.19-2.665l2.853-2.855zM46.876 16.335c-.788.79-1.982.874-2.665.19l-.288-.29c-.684-.683-.6-1.877.19-2.665l2.854-2.854c.79-.788 1.982-.873 2.666-.188l.288.288c.685.683.6 1.876-.188 2.665l-2.856 2.855zM44.126 46.877c-.788-.788-.874-1.982-.19-2.665l.29-.288c.683-.684 1.878-.6 2.667.188l2.854 2.854c.788.79.873 1.982.19 2.666l-.29.29c-.684.683-1.877.597-2.665-.19l-2.856-2.855zM16.335 13.584c.788.787.873 1.98.19 2.666l-.29.288c-.684.685-1.877.6-2.666-.19l-2.856-2.852c-.788-.79-.873-1.983-.19-2.667l.29-.29c.684-.685 1.877-.6 2.666.19l2.855 2.854z"/><g fill="#683C11"><circle cx="30.23" cy="2.918" r="2.918"/><circle cx="30.23" cy="57.543" r="2.918"/><circle cx="2.918" cy="30.23" r="2.919"/><circle cx="57.543" cy="30.23" r="2.919"/><circle cx="10.918" cy="49.544" r="2.919"/><circle cx="49.543" cy="10.917" r="2.918"/><circle cx="49.543" cy="49.544" r="2.919"/><circle cx="10.918" cy="10.917" r="2.918"/></g><path opacity=".3" d="M30.25 33.576l-.02.002a3.348 3.348 0 0 1 0-6.696l.02.002v-3.207l-.02-.002a6.555 6.555 0 0 0 0 13.11h.02v-3.21z"/><path fill="#B17F4A" d="M30.23 9.023C18.516 9.023 9.02 18.518 9.02 30.23c0 11.713 9.495 21.207 21.207 21.207 11.712 0 21.207-9.494 21.207-21.207 0-11.71-9.495-21.207-21.208-21.207zm0 34.936c-7.583 0-13.73-6.147-13.73-13.73S22.648 16.5 30.23 16.5c7.58 0 13.728 6.147 13.728 13.73s-6.147 13.73-13.73 13.73z"/><path opacity=".2" d="M30.23 9.023h-.01v7.48l.01-.002c7.58 0 13.728 6.147 13.728 13.73s-6.146 13.73-13.73 13.73l-.007-.002v7.48h.01c11.712 0 21.207-9.495 21.207-21.208 0-11.71-9.495-21.207-21.208-21.207z"/></svg>