<svg xmlns="http://www.w3.org/2000/svg" width="263.95" height="235.47" viewBox="0 0 263.95 235.47"><path fill="#EB6159" d="M111.95 218.09c1.307-1.307 2.79-1.68 4.146-1.44a517.18 517.18 0 0 1 7.866-5.342c3.61-2.408 8.693 1.567 7.345 5.646-.128.386-.27.765-.407 1.146.227.283.425.595.596.926a134.69 134.69 0 0 1 5.467-3.718c3.705-2.37 6.908.573 7.203 3.958a67.14 67.14 0 0 1 5.797-2.958c2.568-1.146 5.082-.27 6.446 1.44 3.434-2.59 6.94-5.085 10.553-7.44 2.99-1.95 6.98.522 7.596 3.59.8-.528 1.597-1.067 2.403-1.59a5.45 5.45 0 0 1 1.64-.73c-5.13-24.257-15.562-32.715-35.54-36.824l-16.457 8.924.2.346-15.948 9.243c-3.846 10.64-5.013 19.472-2.22 28.138l3.312-3.315z"/><path fill="#EFB30C" d="M123.962 211.308c3.61-2.408 8.693 1.567 7.345 5.646-.128.386-.27.765-.407 1.146.227.283.425.595.596.926a134.69 134.69 0 0 1 5.467-3.718c3.705-2.37 6.908.573 7.203 3.958a67.14 67.14 0 0 1 5.797-2.958c2.568-1.146 5.082-.27 6.446 1.44.76-.572 1.538-1.122 2.307-1.686-1.65-30.086-7.568-38.3-24.074-41.693l-10.117 5.48.13.225-9.813 5.688c-3.926 10.864-3.302 18.668 5.47 28.024 1.216-.825 2.424-1.662 3.65-2.48z"/><path opacity=".3" fill="#FFF" d="M140.204 214.492c1.148.17 2.127.844 2.83 1.783.955.596 1.934 1.202 2.96 1.83l.022.012s-.014.002.002-.01c.05.03.043-.092-.002-.172.01-28.545-2.324-34.993-13.685-37.324l-5.62 3.05.06.126-5.452 3.155c-3.602 9.96-.326 15.303 18.886 27.552z"/><path fill="#029930" d="M105.943 204.116l-13.138-79.34 61.366 51.978z"/><path fill="#FCD22E" d="M141.685 162.22a.727.727 0 0 1-.275.988l-40.547 23.007a.727.727 0 0 1-.99-.273l-11.568-20.39a.728.728 0 0 1 .273-.992l40.548-23.007a.727.727 0 0 1 .99.277l11.57 20.39z"/><path opacity=".5" fill="#343535" d="M94.355 176.21l41.814-23.723 2.686 4.735-41.815 23.724z"/><path opacity=".3" d="M105.943 204.116l48.228-27.362-6.595-5.584-43.044 24.422z"/><path fill="#27C15A" d="M156.232 175.584c.25.437.094.99-.343 1.24l-50.772 28.804a.907.907 0 0 1-1.237-.343l-2.7-4.762a.906.906 0 0 1 .34-1.24l50.77-28.806a.91.91 0 0 1 1.242.345l2.7 4.762z"/><path opacity=".2" fill="#FFF" d="M106.158 196.738l8.446-4.79 3.557 6.27-8.446 4.79z"/><path fill="#27C15A" d="M117.106 62.903c25.297-12.795 40.88-6.037 42.574-5.222l-7.367 15.35s.068.037.21.097c-.023-.01-2.47-.996-6.99-.916-4.305.08-11.4 1.162-20.74 5.888l-7.687-15.195z"/><path fill="#029930" d="M30.997 100.72l-2.288 1.297c-5.055 2.867-6.824 9.29-3.957 14.344l9.086 16.017c2.866 5.057 9.286 6.826 14.34 3.96l2.29-1.297-19.473-34.32zM105.127 58.662l2.288-1.3c5.054-2.866 11.48-1.092 14.344 3.96l9.086 16.016c2.868 5.056 1.095 11.477-3.96 14.344l-2.29 1.3-19.47-34.32z"/><path fill="#FCD22E" d="M31.17 17.383l2.194-1.246 7.03 12.375-2.192 1.247z"/><path fill="#029930" d="M35.303 22.104c-6.058 3.437-8.182 11.134-4.746 17.19l21.936-12.446c-3.437-6.057-11.133-8.18-17.19-4.744z"/><path fill="#FCD22E" d="M36.918 15.343l-8.25 4.68a3.8 3.8 0 0 1-5.17-1.43l-4.68-8.246a3.803 3.803 0 0 1 1.425-5.174l8.25-4.68a3.798 3.798 0 0 1 5.172 1.43l4.68 8.247a3.798 3.798 0 0 1-1.427 5.173zM21.295 7.027a1.664 1.664 0 0 0-.626 2.27l4.68 8.247c.452.8 1.47 1.078 2.27.627l8.25-4.68a1.67 1.67 0 0 0 .625-2.27l-4.68-8.247a1.666 1.666 0 0 0-2.27-.626l-8.25 4.68z"/><path opacity=".2" fill="#5B5B5B" d="M28.97 31.908c-.23 2.48.266 5.056 1.587 7.385l21.936-12.445a12.554 12.554 0 0 0-5.526-5.15L28.97 31.907z"/><path fill="#27C15A" d="M94.61 56.788L75.896 23.804c-3.875-6.828-12.557-9.227-19.39-5.352L21.29 38.434c-6.832 3.877-9.227 12.56-5.352 19.388l18.714 32.983L94.61 56.788z"/><path opacity=".2" fill="#5B5B5B" d="M84.886 63.135l-8.413-14.83a6.393 6.393 0 0 0-8.716-2.4l-28.49 16.164a6.392 6.392 0 0 0-2.407 8.712l8.41 14.828 39.616-22.475z"/><path opacity=".3" fill="#5B5B5B" d="M19.33 54.894c-2.802-4.937-2.62-10.71-.02-15.1-5.28 4.302-6.845 11.904-3.372 18.027l18.714 32.984 3.82-2.167L19.33 54.894zM71.54 25.272c-2.8-4.937-7.852-7.745-12.953-7.762 6.402-2.326 13.73.23 17.205 6.353l18.714 32.984-3.82 2.17L71.538 25.27z"/><circle fill="#1D1D1B" cx="34.751" cy="52.82" r="6.654"/><circle fill="#FCD22E" cx="34.752" cy="52.821" r="4.74"/><path opacity=".5" fill="#5B5B5B" d="M32.912 87.734l60.04-34.064 1.323 2.333-60.04 34.065z"/><path fill="#3F3F3F" d="M78.032 57.9a1.3 1.3 0 0 1-.488 1.773 1.3 1.3 0 0 1-1.77-.492l-4.857-8.558a1.3 1.3 0 1 1 2.26-1.283L78.03 57.9zM74.198 60.076a1.3 1.3 0 0 1-2.26 1.283L67.08 52.8a1.3 1.3 0 0 1 2.26-1.283l4.858 8.56zM70.36 62.255a1.295 1.295 0 0 1-.488 1.77 1.297 1.297 0 0 1-1.77-.488l-4.857-8.56a1.3 1.3 0 0 1 2.26-1.283l4.855 8.56zM66.526 64.43a1.3 1.3 0 0 1-2.26 1.283L59.41 57.15a1.296 1.296 0 0 1 .49-1.768 1.298 1.298 0 0 1 1.77.487l4.856 8.56zM62.688 66.607a1.3 1.3 0 0 1-.486 1.77 1.302 1.302 0 0 1-1.773-.487l-4.857-8.56a1.3 1.3 0 0 1 2.26-1.284l4.855 8.56zM58.854 68.782c.354.625.136 1.42-.49 1.77a1.3 1.3 0 0 1-1.77-.487l-4.856-8.56a1.3 1.3 0 1 1 2.26-1.283l4.856 8.56zM55.02 70.96a1.3 1.3 0 0 1-.49 1.77 1.3 1.3 0 0 1-1.772-.486L47.9 63.682a1.3 1.3 0 0 1 2.262-1.284l4.857 8.56zM51.18 73.136a1.3 1.3 0 1 1-2.26 1.283l-4.855-8.562a1.3 1.3 0 0 1 .49-1.77 1.298 1.298 0 0 1 1.77.488l4.856 8.56zM47.346 75.312a1.3 1.3 0 0 1-.49 1.77 1.3 1.3 0 0 1-1.77-.49l-4.857-8.56a1.3 1.3 0 0 1 2.262-1.284l4.854 8.564z"/><path fill="#27C15A" d="M155.772 138.2a4.26 4.26 0 0 1-1.602 5.805l-75.205 42.67a4.26 4.26 0 0 1-5.805-1.604L24.586 99.454a4.257 4.257 0 0 1 1.604-5.804l75.204-42.667a4.257 4.257 0 0 1 5.803 1.6l48.575 85.618z"/><path opacity=".2" fill="#5B5B5B" d="M143.426 137.943c1.006 1.773.534 3.94-1.05 4.84L83.97 175.92c-1.588.9-3.69.194-4.7-1.58l-42.13-74.257c-1.006-1.775-.533-3.944 1.055-4.845L96.6 62.102c1.587-.9 3.688-.19 4.694 1.582l42.132 74.26z"/><path fill="#FCD22E" d="M16.063 62.2l-1.14.648a5.25 5.25 0 0 0-1.98 7.156l4.535 7.993a5.25 5.25 0 0 0 7.156 1.972l1.142-.647L16.063 62.2z"/><path fill="#FCD22E" d="M2.94 44.196l2.19-1.244 16.955 29.843-2.19 1.244z"/><circle fill="#FCD22E" cx="4.043" cy="43.568" r="4.043"/><path fill="#FCD22E" d="M79.436 26.245l1.142-.645a5.245 5.245 0 0 1 7.156 1.972l4.535 7.994a5.25 5.25 0 0 1-1.98 7.154l-1.14.646-9.714-17.12z"/><path fill="#FCD22E" d="M87.646 35.595l-2.19 1.244L68.51 6.994l2.192-1.245z"/><path fill="#FCD22E" d="M66.09 8.366a4.044 4.044 0 1 0 7.036-3.99 4.044 4.044 0 0 0-7.035 3.99z"/><path fill="#1D1D1B" d="M67.938 33.992A6.656 6.656 0 0 1 56.36 40.56a6.655 6.655 0 0 1 2.506-9.072 6.653 6.653 0 0 1 9.072 2.504z"/><path fill="#FCD22E" d="M66.272 34.938A4.745 4.745 0 0 1 64.49 41.4a4.745 4.745 0 0 1-6.464-1.784 4.743 4.743 0 0 1 1.784-6.46 4.74 4.74 0 0 1 6.462 1.782zM158.202 58.954c.057.023.56.257 1.15.77 0 0-6.203 10.994-4.046 11.79 3.782 1.41 11.654 4.323 20.975 10.558 11.596 7.754 21.604 18.057 29.75 30.615l10.715-6.947c-9.093-14.022-20.318-25.56-33.36-34.282-10.576-7.072-19.4-10.343-23.64-11.914-.592-.22-1.33-.496-1.543-.59z"/><circle fill="#27C15A" cx="188.818" cy="83.5" r="10.944"/><path opacity=".3" fill="#5B5B5B" d="M180.772 90.92c-2.36-5.114-.447-11.265 4.54-14.093 4.512-2.562 10.073-1.564 13.444 2.102-.13-.282-.266-.557-.42-.83-2.983-5.258-9.664-7.1-14.92-4.116-5.258 2.98-7.1 9.66-4.118 14.918.422.74.92 1.415 1.474 2.017z"/><path opacity=".3" d="M199.746 103.914c2.203 2.787 4.3 5.712 6.284 8.772l10.715-6.947a129.597 129.597 0 0 0-5.774-8.193l-11.224 6.367z"/><circle fill="#5B5B5B" cx="188.817" cy="83.5" r="4.075"/><path fill="#029930" d="M201.282 113.757c-1.525-2.688-1.482-5.595.097-6.49l12.715-7.214c1.578-.896 4.096.558 5.62 3.247l.622 1.095c1.524 2.687 1.48 5.594-.098 6.49l-12.716 7.214c-1.58.894-4.096-.56-5.62-3.247l-.622-1.096z"/><g><path fill="#029930" d="M122.59 59.98c.032.082.067.153.106.22.04.073.088.14.135.208l9.205 16.22.023-.013a1.548 1.548 0 0 0 2.022.44 1.55 1.55 0 0 0 .586-2.114c-.045-.08-7.336-17.5-7.395-17.604-.575-1.014-1.956-1.855-3.515-.97-1.398.792-1.605 2.494-1.19 3.555l-.01.006.036.053zM128.646 57.068a1.77 1.77 0 0 0 .17.458l6.557 17.46.025-.01a1.554 1.554 0 0 0 1.93.755 1.555 1.555 0 0 0 .91-1.997c-.036-.09-4.514-18.434-4.555-18.545-.408-1.092-1.643-2.14-3.322-1.508-1.503.564-1.974 2.21-1.73 3.323l-.01.002.026.063zM135.324 55.473a2.038 2.038 0 0 0 .098.48l3.723 18.274.028-.006a1.547 1.547 0 0 0 1.787 1.047c.838-.17 1.38-.99 1.212-1.827-.02-.092-1.552-18.914-1.576-19.03-.232-1.143-1.285-2.37-3.042-2.012-1.575.32-2.298 1.87-2.232 3.01l-.012.002.014.063zM142.41 54.642a2.05 2.05 0 0 0 .01.492l.34 18.646.028-.002a1.55 1.55 0 0 0 3.09-.225c-.002-.094 1.91-18.878 1.91-19-.022-1.165-.836-2.564-2.63-2.53-1.605.028-2.598 1.428-2.74 2.554h-.012l.003.065zM149.175 55.138c-.02.078-.035.156-.047.23a1.69 1.69 0 0 0-.012.233l-2.176 17.5.025.004a1.46 1.46 0 0 0 1.285 1.477 1.462 1.462 0 0 0 1.635-1.274c.013-.085 4.32-17.416 4.335-17.53.134-1.093-.438-2.51-2.12-2.722-1.51-.187-2.624.987-2.91 2.023h-.01l-.005.06zM155.95 56.83c-.03.068-.055.138-.072.204-.022.07-.037.14-.048.213l-4.542 15.83.023.004c-.118.683.294 1.357.974 1.55a1.37 1.37 0 0 0 1.695-.936c.022-.08 6.504-15.443 6.53-15.546.287-.99-.037-2.38-1.56-2.82-1.366-.388-2.564.53-2.98 1.448l-.008-.006-.013.06z"/></g><g opacity=".5" fill="#5B5B5B"><path d="M93.01 144.336c.55.966.21 2.188-.753 2.736l-14.36 8.147a2.008 2.008 0 1 1-1.98-3.49l14.358-8.15a2.008 2.008 0 0 1 2.736.756zM96.056 149.702c.55.967.21 2.19-.753 2.738l-14.36 8.147a2.01 2.01 0 0 1-1.98-3.493l14.36-8.147a2.005 2.005 0 0 1 2.733.754zM99.208 155.258c.55.965.21 2.188-.754 2.735l-14.362 8.148a2.01 2.01 0 0 1-2.737-.754 2.01 2.01 0 0 1 .757-2.736l14.36-8.147a2.008 2.008 0 0 1 2.736.755zM99.26 140.443a2.13 2.13 0 1 1-2.9-.804 2.13 2.13 0 0 1 2.9.803zM102.454 146.07a2.13 2.13 0 1 1-3.7 2.1 2.127 2.127 0 0 1 .802-2.896 2.127 2.127 0 0 1 2.898.797zM105.562 151.55a2.13 2.13 0 1 1-3.702 2.098 2.13 2.13 0 0 1 3.702-2.098zM104.99 137.193zM108.182 142.82a2.128 2.128 0 1 1-2.9-.795 2.127 2.127 0 0 1 2.9.795z"/><circle cx="109.439" cy="149.35" r="2.128"/><g><circle cx="109.148" cy="134.833" r="2.128"/><path d="M114.192 139.412a2.13 2.13 0 1 1-3.702 2.1 2.126 2.126 0 0 1 .804-2.897 2.125 2.125 0 0 1 2.898.797z"/><circle cx="115.449" cy="145.94" r="2.128"/></g><g><circle cx="114.876" cy="131.583" r="2.129"/><path d="M119.92 136.16a2.128 2.128 0 1 1-2.898-.797 2.13 2.13 0 0 1 2.9.798z"/><circle cx="121.177" cy="142.69" r="2.129"/></g><g><path d="M122.598 127.202a2.128 2.128 0 0 1-3.7 2.1 2.128 2.128 0 0 1 .797-2.903 2.13 2.13 0 0 1 2.903.802zM125.792 132.83a2.126 2.126 0 1 1-3.7 2.098 2.125 2.125 0 0 1 .8-2.895 2.13 2.13 0 0 1 2.9.798z"/><circle cx="127.049" cy="139.36" r="2.127"/></g><g><path d="M128.325 123.953a2.13 2.13 0 0 1-.8 2.9 2.128 2.128 0 1 1 .8-2.9zM131.52 129.58a2.128 2.128 0 1 1 0 0zM134.627 135.06a2.128 2.128 0 1 1-3.702 2.1 2.13 2.13 0 1 1 3.702-2.1z"/></g></g><path opacity=".2" fill="#5B5B5B" d="M36.85 29.548l4.554-2.584L55.954 52.6 51.4 55.184zM26.32 93.576l-.13.073a4.257 4.257 0 0 0-1.605 5.803L73.16 185.07a4.26 4.26 0 0 0 5.805 1.604l.13-.075L26.32 93.575zM101.042 51.183l.13-.073a4.255 4.255 0 0 1 5.804 1.6l48.575 85.618a4.253 4.253 0 0 1-1.6 5.803l-.132.075-52.776-93.022z"/><path opacity=".3" fill="#5B5B5B" d="M219.216 102.513c-1.53-2.172-3.703-3.263-5.12-2.46l-12.717 7.215c-1.42.805-1.596 3.23-.517 5.657l18.353-10.412z"/><path fill="#029930" d="M219.696 143.577l-4.116-7.256a11.888 11.888 0 0 1-5.974-5.2c-3.25-5.728-1.242-13.008 4.486-16.256 5.73-3.25 13.008-1.24 16.26 4.487a11.886 11.886 0 0 1 1.396 7.8l4.115 7.253c3.137-5.444 3.393-12.36.067-18.22-5-8.81-16.193-11.898-25.005-6.9-8.81 5-11.9 16.193-6.9 25.004 3.324 5.86 9.39 9.188 15.67 9.29z"/><g><path fill="#FCD22E" d="M104.08 87.76c-2.912-5.13-6.23-8.85-9.782-11.378-.875.59-1.78 1.156-2.726 1.69-7.77 4.41-15.978 5.812-21.894 4.28-1.717 5.86-7.13 12.19-14.902 16.6a42.072 42.072 0 0 1-2.848 1.47c.346 4.346 1.842 9.1 4.75 14.23 9.97 17.568 33.168 24.883 42.453 19.614 9.945-5.64 14.916-28.937 4.95-46.507z"/><path fill="#029930" d="M104.275 113.084c.443.782.17 1.777-.614 2.223l-23.003 13.05c-.784.446-1.78.172-2.225-.61a1.633 1.633 0 0 1 .617-2.223l23.003-13.05a1.63 1.63 0 0 1 2.222.61z"/><path fill="#27C15A" d="M89.52 114.387a1.187 1.187 0 0 1 1.62.446l2.518 4.438a1.19 1.19 0 0 1-.445 1.625l-2.45 1.39c-.575.326-1.302.124-1.628-.448L86.62 117.4a1.188 1.188 0 0 1 .448-1.623l2.452-1.39z"/><path fill="#27C15A" d="M88.6 90.05c-.77-1.058-2.27-1.394-3.36-.772l-17.512 9.934c-1.093.62-1.574 2.077-1.06 3.28l6.894 17.273c.756 1.778 2.5 2.622 3.873 1.842L99.48 109.1c1.376-.78 1.546-2.71.407-4.27L88.6 90.05z"/><path fill="#029930" d="M100.507 105.67a2.856 2.856 0 0 1-1.073 3.893l-21.538 12.222a2.86 2.86 0 0 1-2.82-4.974l21.536-12.22a2.86 2.86 0 0 1 3.895 1.08z"/><path fill="#EB6159" d="M78.58 118.202c.41.722.16 1.636-.564 2.045a1.5 1.5 0 0 1-2.05-.562 1.502 1.502 0 0 1 2.613-1.483z"/><path opacity=".1" fill="#010000" d="M100.03 105.06c-.05-.075-.086-.156-.143-.23L88.6 90.05c-.772-1.057-2.27-1.393-3.36-.77l-8.74 4.955 9.343 16.466-.293 6.74 13.884-7.877a2.855 2.855 0 0 0 1.073-3.893 2.957 2.957 0 0 0-.478-.61z"/><path opacity=".1" fill="#010000" d="M93.505 102.24a1.05 1.05 0 0 1-.396 1.427L75.952 113.4a1.046 1.046 0 0 1-1.426-.394 1.048 1.048 0 0 1 .394-1.428l17.156-9.732a1.05 1.05 0 0 1 1.43.394zM90.68 98.65a.978.978 0 0 1-.37 1.336l-16.08 9.123a.976.976 0 0 1-1.334-.37.98.98 0 0 1 .367-1.338L89.34 98.28a.984.984 0 0 1 1.34.37zM88.272 95.686a.92.92 0 0 1-.348 1.252l-15.088 8.56a.918.918 0 0 1-1.252-.344.917.917 0 0 1 .344-1.255l15.09-8.56a.917.917 0 0 1 1.254.346zM86.268 93.103a.874.874 0 0 1-.33 1.193l-14.35 8.14a.873.873 0 1 1-.863-1.52l14.352-8.142a.875.875 0 0 1 1.19.33z"/><path opacity=".1" d="M94.298 76.382c-.875.59-1.78 1.156-2.726 1.69-7.77 4.41-15.978 5.812-21.894 4.28 0 0 .002.002 0 .004l29.45 51.912.003-.002c9.944-5.64 14.915-28.938 4.948-46.508-2.91-5.128-6.227-8.847-9.78-11.376z"/></g><ellipse fill="#EDEDED" cx="139.289" cy="221.404" rx="124.662" ry="14.065"/><g fill="#878787"><path d="M114.82 195.76a3.494 3.494 0 0 1-3.496 3.496h-10.102a3.495 3.495 0 0 1-3.496-3.496V96.87a3.496 3.496 0 0 1 3.496-3.495h10.102a3.496 3.496 0 0 1 3.496 3.496v98.89zM249.632 195.76a3.496 3.496 0 0 1-3.498 3.496h-10.1a3.494 3.494 0 0 1-3.496-3.496V96.87a3.496 3.496 0 0 1 3.496-3.495h10.1a3.497 3.497 0 0 1 3.498 3.496v98.89z"/></g><path fill="#EDEDED" d="M241.86 69.885H105.496A3.495 3.495 0 0 0 102 73.382v90.87c0 6.225 5.22 10.106 11.656 10.106h120.046c6.438 0 11.654-3.882 11.654-10.106V73.382a3.494 3.494 0 0 0-3.496-3.497z"/><path fill="#EDEDED" d="M245.36 219.07a3.496 3.496 0 0 1-3.498 3.496H105.498A3.495 3.495 0 0 1 102 219.07V73.382a3.495 3.495 0 0 1 3.498-3.497h136.364a3.496 3.496 0 0 1 3.497 3.497V219.07z"/><path opacity=".1" d="M241.86 72.215H105.496A3.495 3.495 0 0 0 102 75.71v90.872c0 6.225 5.22 10.106 11.656 10.106h120.046c6.438 0 11.654-3.882 11.654-10.106V75.712a3.494 3.494 0 0 0-3.496-3.497z"/><path fill="#F6F6F6" d="M241.86 69.885H105.496A3.495 3.495 0 0 0 102 73.382v90.87c0 6.225 5.22 10.106 11.656 10.106h120.046c6.438 0 11.654-3.882 11.654-10.106V73.382a3.494 3.494 0 0 0-3.496-3.497z"/><circle fill="#878787" cx="173.68" cy="174.529" r="20.786"/><path fill="#878787" d="M153.442 174.858h-41.145c-6.544 0-11.867-5.323-11.867-11.866h1c0 5.99 4.875 10.866 10.867 10.866h41.145v1zM234.642 174.86h-41.145v-1h41.145c5.99 0 10.865-4.874 10.865-10.865h1c0 6.543-5.322 11.866-11.865 11.866z"/><circle fill="#50CEFF" cx="173.68" cy="174.529" r="18.649"/><circle fill="#EDEDED" cx="173.68" cy="174.529" r="16.317"/><path fill="#50CEFF" d="M101.612 207.052H245.36v3.497H101.61z"/><path opacity=".2" d="M101.612 207.052H245.36v.78H101.61z"/><path opacity=".05" d="M112.102 69.885h-6.604A3.495 3.495 0 0 0 102 73.382V219.07a3.495 3.495 0 0 0 3.498 3.496h6.604V69.886zM235.258 69.885h6.604a3.496 3.496 0 0 1 3.497 3.497V219.07a3.496 3.496 0 0 1-3.498 3.496h-6.604V69.886z"/><g fill="#3DC2EA"><path d="M173.68 184.824c-5.168 0-9.373-4.203-9.373-9.373 0-2.412.92-4.71 2.595-6.463a1.437 1.437 0 0 1 2.08 1.984 6.472 6.472 0 0 0-1.8 4.48c0 3.584 2.914 6.5 6.497 6.5 3.584 0 6.498-2.916 6.498-6.5a6.45 6.45 0 0 0-1.8-4.48 1.437 1.437 0 0 1 2.08-1.984 9.328 9.328 0 0 1 2.594 6.465c0 5.17-4.204 9.374-9.373 9.374z"/><path d="M175.16 175.2c0 .818-.664 1.483-1.48 1.483-.82 0-1.48-.665-1.48-1.482v-9.484c0-.82.66-1.484 1.48-1.484.816 0 1.48.665 1.48 1.484v9.485z"/></g><path opacity=".05" d="M162.142 186.067c6.373 6.373 16.703 6.373 23.076 0 6.372-6.372 6.372-16.703 0-23.075l-23.076 23.075z"/><g fill="#878787"><path d="M120.26 69.885v10.403a1.107 1.107 0 0 0 2.214 0V69.885h-2.213zM124.69 69.885v10.403a1.107 1.107 0 0 0 2.21 0V69.885h-2.21zM129.116 69.885v10.403a1.107 1.107 0 0 0 2.214 0V69.885h-2.214z"/></g><g fill="#878787"><path d="M216.884 69.885v10.403a1.11 1.11 0 0 0 1.107 1.108c.61 0 1.108-.496 1.108-1.108V69.885h-2.214zM221.312 69.885v10.403a1.11 1.11 0 0 0 1.106 1.108c.61 0 1.11-.496 1.11-1.108V69.885h-2.216zM225.74 69.885v10.403a1.107 1.107 0 0 0 2.213 0V69.885h-2.213z"/></g><path opacity=".15" d="M102 216.752v2.318a3.495 3.495 0 0 0 3.498 3.496H241.862a3.496 3.496 0 0 0 3.497-3.496v-2.318H102zM146.73 69.885v2.952a4.92 4.92 0 0 0 4.92 4.92h44.056a4.92 4.92 0 0 0 4.92-4.92v-2.952H146.73z"/><g><path fill="#27C15A" d="M24.562 115.886c-5.134 29.246 13.546 41.544 15.13 42.556l9.186-14.332s.068.04.19.127c-.02-.015-2.144-1.577-4.45-5.464-2.197-3.707-2.77-3.12-9.088-9.54l-10.968-13.347z"/><path fill="#FCD22E" d="M39.997 156.535a4.97 4.97 0 0 0 1.262.573s6.09-11.055 7.903-9.64c3.185 2.48 9.8 7.644 20.004 12.3 12.69 5.785 26.716 8.887 41.68 9.212l-.275 12.77c-16.71-.365-32.424-3.852-46.7-10.365-11.575-5.277-18.995-11.064-22.562-13.848-.497-.388-1.12-.87-1.313-1.002z"/><circle fill="#27C15A" cx="76.971" cy="169.679" r="10.944"/><path opacity=".3" d="M100.087 168.382c3.527.407 7.118.653 10.767.734l-.278 12.766a129.04 129.04 0 0 1-10.006-.604l-.483-12.896z"/><path fill="#5B5B5B" d="M76.82 165.606a4.076 4.076 0 1 0 .302 8.146 4.075 4.075 0 0 0 3.92-4.228 4.073 4.073 0 0 0-4.223-3.918z"/><path fill="#029930" d="M109.265 164.382c-3.09.115-5.54 1.68-5.47 3.493l.546 14.61c.067 1.812 2.626 3.188 5.716 3.072l1.26-.045c3.085-.116 5.535-1.68 5.467-3.49l-.545-14.61c-.07-1.815-2.628-3.195-5.714-3.077l-1.26.047zM36.646 125.158l-14 .524a2.366 2.366 0 0 0-.492.015l-.063.003v.008c-1.12.207-2.46 1.277-2.4 2.883.068 1.793 1.51 2.523 2.676 2.48.094-.004 11.29-1.774 16.387-2.575-.713-1.107-1.43-2.214-2.107-3.337zM33.806 119.345l-11.62-2.35a2.17 2.17 0 0 0-.482-.098l-.062-.012v.008c-1.14-.062-2.692.663-3.01 2.237-.356 1.758.874 2.808 2.017 3.04.084.017 9.41.765 14.975 1.215-.712-1.304-1.34-2.643-1.82-4.04zM39.18 129.17l-15.842 3.115c-.08.005-.16.016-.24.032-.08.016-.16.04-.24.062l-.064.013.002.008c-1.075.38-2.23 1.644-1.917 3.22.343 1.762 1.884 2.262 3.03 2.036.098-.02 13.155-4.26 17.066-5.522a67.33 67.33 0 0 0-1.795-2.964zM41.39 132.88l-15.917 5.854c-.076.02-.155.042-.235.068-.072.027-.147.062-.227.1l-.058.023.003.01c-1.003.543-1.942 1.973-1.387 3.48.616 1.682 2.218 1.935 3.31 1.53.1-.033 12.47-6.352 16.05-8.173-.537-.99-1.045-1.97-1.538-2.892zM43.243 136.35l-14.79 8.77c-.075.03-.148.068-.22.108a2.1 2.1 0 0 0-.205.138l-.056.034.005.01c-.885.714-1.552 2.292-.73 3.675.91 1.542 2.53 1.5 3.533.904.088-.05 10.768-8.25 14.147-10.838a41.71 41.71 0 0 1-1.684-2.8zM45.516 140L32.37 150.57c-.066.038-.13.08-.193.134a2.36 2.36 0 0 0-.17.153l-.048.04.004.01c-.73.787-1.146 2.353-.192 3.537 1.065 1.32 2.57 1.062 3.43.373.08-.062 10.164-10.38 12.256-12.512-.705-.7-1.348-1.48-1.942-2.305zM48.448 143.215c-.016.014-.037.018-.054.032l-.016-.017-11.08 12.184c-.054.048-.106.1-.157.152-.044.052-.09.107-.136.168l-.04.044.01.004c-.563.835-.717 2.337.332 3.295 1.174 1.063 2.525.607 3.22-.154.072-.078 9.736-13.667 9.792-13.727.155-.172.24-.375.295-.586-.776-.38-1.5-.848-2.165-1.395z"/><path opacity=".3" fill="#5B5B5B" d="M79.85 180.24c-5.624-.264-10.204-4.796-10.418-10.524-.193-5.187 3.255-9.66 8.06-10.965-.31-.014-.614-.02-.93-.007-6.04.225-10.75 5.305-10.525 11.343.226 6.04 5.304 10.755 11.344 10.53.853-.033 1.682-.164 2.47-.377zM108.336 164.46c-2.634.36-4.604 1.785-4.542 3.415l.547 14.61c.062 1.628 2.132 2.903 4.784 3.062l-.788-21.088z"/><path fill="#029930" d="M144.312 164.376l-8.337.31a11.88 11.88 0 0 0-7.563-2.35c-6.58.246-11.72 5.782-11.473 12.363.245 6.58 5.78 11.718 12.36 11.472a11.867 11.867 0 0 0 7.37-2.912l8.335-.312c-2.983 5.532-8.733 9.38-15.465 9.633-10.123.38-18.635-7.52-19.014-17.642-.377-10.12 7.52-18.636 17.645-19.013 6.732-.25 12.753 3.16 16.142 8.45z"/></g><path fill="#878787" d="M174.07 100.368c-1.36 0-2.684.154-3.958.436v17.833a3.974 3.974 0 0 0 3.967 3.968 3.974 3.974 0 0 0 3.966-3.968c0-2.095-1.64-3.82-3.703-3.957v-3.177c3.81.14 6.875 3.29 6.875 7.134 0 3.933-3.207 7.14-7.14 7.14s-7.14-3.207-7.14-7.14v-16.82c-.45.19-.89.403-1.322.63v16.19c0 4.663 3.803 8.463 8.463 8.463 4.66 0 8.462-3.8 8.462-8.463 0-4.57-3.658-8.315-8.2-8.457v-3.174c6.29.142 11.372 5.312 11.372 11.63 0 6.41-5.226 11.638-11.635 11.638-6.41 0-11.638-5.228-11.638-11.637V104.55a18.213 18.213 0 0 0-6.627 14.074c0 10.083 8.172 18.256 18.254 18.256s18.253-8.173 18.253-18.256-8.172-18.256-18.254-18.256z"/><path opacity=".03" d="M241.86 69.885L113.656 174.358h120.046c6.438 0 11.654-3.882 11.654-10.106V73.382a3.494 3.494 0 0 0-3.496-3.497z"/><g><path fill="#FCD22E" d="M220.42 47.91c3.782 9.975 11.41 18.038 21.06 22.41a40.377 40.377 0 0 0-21.06 22.407c-3.79-9.967-11.41-18.046-21.07-22.407a40.38 40.38 0 0 0 21.07-22.41z"/><path fill="#FD7600" d="M220.42 59.033c1.9 5.017 5.742 9.073 10.62 11.287a20.267 20.267 0 0 0-10.62 11.282 20.292 20.292 0 0 0-10.606-11.282c4.863-2.214 8.703-6.27 10.605-11.287z"/><path fill="#FCD22E" d="M203.665 32.018a19.755 19.755 0 0 0 10.295 10.958 19.734 19.734 0 0 0-10.295 10.953 19.71 19.71 0 0 0-10.293-10.954 19.732 19.732 0 0 0 10.293-10.958z"/><path fill="#FD7600" d="M203.665 37.454a9.978 9.978 0 0 0 5.19 5.52 9.9 9.9 0 0 0-5.19 5.516 9.887 9.887 0 0 0-5.184-5.515 9.95 9.95 0 0 0 5.185-5.52z"/><g><path fill="#FCD22E" d="M239.465 25.66a28.493 28.493 0 0 0 14.858 15.81 28.485 28.485 0 0 0-14.858 15.81 28.482 28.482 0 0 0-14.862-15.81 28.483 28.483 0 0 0 14.862-15.81z"/><path fill="#FD7600" d="M239.465 33.51a14.367 14.367 0 0 0 7.493 7.96 14.293 14.293 0 0 0-7.493 7.957 14.302 14.302 0 0 0-7.485-7.958 14.374 14.374 0 0 0 7.485-7.96z"/></g></g></svg>