<svg xmlns="http://www.w3.org/2000/svg" width="265.82" height="334.727" viewBox="0 0 265.82 334.727"><path fill="#E6E6E6" d="M81.548 108.073l16.067.45L100.637.76 83.91 23.824z"/><path opacity=".1" fill="#050505" d="M100.637.76l-3.022 107.762-4.703-.13L95.74 7.51z"/><path opacity=".6" fill="#FFF" d="M85.017 96.233a1.74 1.74 0 0 0 1.69 1.788l.052.003a1.74 1.74 0 0 0 1.785-1.69l2.177-77.728c.026-.96-.73-1.878-1.69-1.878h-.05c-.96 0-1.76.818-1.788 1.78l-2.177 77.726z"/><ellipse transform="rotate(-146.618 92.457 12.788)" fill="#666" cx="92.455" cy="12.788" rx="3.227" ry="14.646"/><path fill="#E6E6E6" d="M53.896 121.052l16.068.448 3.02-107.76L56.26 36.8z"/><path opacity=".1" fill="#050505" d="M72.984 13.74l-3.02 107.76-4.703-.13 2.83-100.88z"/><path opacity=".6" fill="#FFF" d="M57.366 109.074c-.026.962.73 1.652 1.69 1.652h.052c.96 0 1.76-.592 1.786-1.553l2.174-77.57c.03-.96-.728-1.725-1.688-1.752l-.048.017c-.96-.027-1.762.67-1.79 1.63l-2.176 77.577z"/><ellipse transform="rotate(-146.618 64.806 25.767)" fill="#666" cx="64.804" cy="25.767" rx="3.227" ry="14.646"/><path fill="#E6E6E6" d="M26.182 135.452l16.067.45L45.27 28.14 28.544 51.2z"/><path opacity=".1" fill="#050505" d="M45.27 28.14l-3.02 107.762-4.705-.132 2.83-100.88z"/><path opacity=".6" fill="#FFF" d="M29.65 124.274c-.025.962.73 2.452 1.69 2.452h.05c.96 0 1.76-1.393 1.787-2.352l2.176-77.97c.027-.96-.728-1.926-1.69-1.953l-.048-.085c-.96-.026-1.76 1.022-1.787 1.98l-2.177 77.93z"/><ellipse transform="rotate(-146.618 37.09 40.168)" fill="#666" cx="37.089" cy="40.167" rx="3.227" ry="14.646"/><path fill="#E6E6E6" d="M184.923 108.073l-16.068.45L165.835.76l16.727 23.063z"/><path opacity=".1" fill="#050505" d="M165.836.76l3.02 107.762 4.703-.13-2.83-100.88z"/><path opacity=".6" fill="#FFF" d="M181.453 96.233a1.737 1.737 0 0 1-1.69 1.788l-.05.003a1.74 1.74 0 0 1-1.787-1.69l-2.176-77.728c-.025-.96.73-1.878 1.69-1.878h.05c.96 0 1.76.818 1.787 1.78l2.176 77.726z"/><ellipse transform="rotate(-33.374 174.01 12.79)" fill="#666" cx="174.016" cy="12.788" rx="3.227" ry="14.646"/><path fill="#E6E6E6" d="M212.574 121.052l-16.067.448-3.02-107.76L210.21 36.8z"/><path opacity=".1" fill="#050505" d="M193.486 13.74l3.02 107.76 4.705-.13-2.828-100.88z"/><path opacity=".6" fill="#FFF" d="M209.104 109.074c.027.962-.73 1.652-1.69 1.652h-.05c-.96 0-1.76-.592-1.787-1.553l-2.175-77.57c-.03-.96.728-1.725 1.688-1.752l.048.017c.962-.027 1.763.67 1.79 1.63l2.176 77.577z"/><ellipse transform="rotate(-33.387 201.657 25.767)" fill="#666" cx="201.667" cy="25.767" rx="3.227" ry="14.646"/><path fill="#E6E6E6" d="M240.29 135.452l-16.068.45-3.02-107.762 16.726 23.06z"/><path opacity=".1" fill="#050505" d="M221.2 28.14l3.022 107.762 4.705-.132-2.83-100.88z"/><path opacity=".6" fill="#FFF" d="M236.82 124.274c.026.962-.73 2.452-1.69 2.452h-.05c-.96 0-1.76-1.393-1.787-2.352l-2.176-77.97c-.028-.96.73-1.926 1.69-1.953l.05-.085c.96-.026 1.76 1.022 1.786 1.98l2.177 77.93z"/><ellipse transform="rotate(-33.374 229.375 40.167)" fill="#666" cx="229.383" cy="40.167" rx="3.227" ry="14.646"/><path fill="#E6E6E6" d="M199.677 269.268c-5.188 0-10.417-1.374-14.87-4.216l6.85-10.725c5.013 3.203 13.744 3.24 18.258-1.825 4.73-5.305-.107-12.913-3.412-16.975-11.194-13.76-8.8-26.287-6.024-40.79 1.09-5.71 2.327-12.178 2.943-19.584l12.682 1.057c-.673 8.078-1.98 14.9-3.13 20.916-2.615 13.676-4.055 21.208 3.398 30.37 14.56 17.896 6.01 30.147 3.04 33.475-4.846 5.435-12.247 8.298-19.736 8.298z"/><g opacity=".05" fill="#050505"><path d="M209.914 252.502c-3.268 3.666-8.74 4.648-13.418 3.702 5.268 2.18 12.728 1.65 16.827-2.948 4.893-5.49-.112-13.358-3.53-17.56-11.58-14.234-9.102-27.19-6.232-42.195 1.022-5.34 2.162-11.334 2.844-18.098l-2.98-.25c-.617 7.407-1.855 13.876-2.945 19.584-2.775 14.504-5.17 27.03 6.023 40.79 3.304 4.063 8.142 11.67 3.41 16.976zM187.353 266.235l6.824-10.685a13.08 13.08 0 0 1-2.52-1.224l-6.85 10.725c1.328.85 2.73 1.55 4.176 2.14-.552-.3-1.098-.615-1.63-.955z"/></g><path fill="#E6E6E6" d="M65.323 269.268c5.188 0 10.417-1.374 14.868-4.216l-6.848-10.725c-5.01 3.203-13.743 3.24-18.257-1.825-4.73-5.305.107-12.913 3.412-16.975 11.195-13.76 8.8-26.287 6.025-40.79-1.092-5.71-2.33-12.178-2.945-19.584l-12.682 1.057c.674 8.078 1.98 14.9 3.13 20.916 2.614 13.676 4.055 21.208-3.4 30.37-14.556 17.896-6.006 30.147-3.04 33.475 4.85 5.435 12.25 8.298 19.738 8.298z"/><g opacity=".05" fill="#050505"><path d="M55.086 252.502c3.268 3.666 8.74 4.648 13.418 3.702-5.27 2.18-12.727 1.65-16.827-2.948-4.893-5.49.11-13.358 3.53-17.56 11.58-14.234 9.102-27.19 6.23-42.195-1.02-5.34-2.16-11.334-2.84-18.098l2.98-.25c.615 7.407 1.854 13.876 2.945 19.584 2.773 14.504 5.17 27.03-6.025 40.79-3.304 4.063-8.142 11.67-3.41 16.976zM77.647 266.235l-6.824-10.685c.904-.334 1.76-.737 2.52-1.224l6.85 10.725a25.976 25.976 0 0 1-4.176 2.14c.55-.3 1.098-.615 1.63-.955z"/></g><path fill="#52BC86" d="M184.508 270.146a3.18 3.18 0 0 1-4.422.822l-6.818-4.68a3.182 3.182 0 0 1-.822-4.425l12.604-18.358a3.183 3.183 0 0 1 4.424-.82l6.818 4.68a3.182 3.182 0 0 1 .822 4.423l-12.606 18.358zM83.89 270.146a3.182 3.182 0 0 0 4.424.822l6.817-4.68a3.183 3.183 0 0 0 .824-4.425L83.35 243.505a3.183 3.183 0 0 0-4.424-.82l-6.818 4.68a3.183 3.183 0 0 0-.823 4.423l12.606 18.358z"/><ellipse fill="#2B4C5A" cx="133.881" cy="295.742" rx="30.605" ry="13.573"/><path fill="#2B4C5A" d="M103.396 290.727l-30.483-52.095 30.483-83.905h60.97l30.484 83.905-30.485 52.095z"/><path fill="#2B4C5A" d="M180.507 110.813c-14.788-6.363-18.687-13.998-18.687-13.998V84.09l-18.977-4.07.303-4.523-10.706 2.27-10.8-2.27-.205 4.536-19.615 4.058v12.725s-3.225 7.635-18.012 13.998c-14.788 6.362 17.86 94.628 17.86 94.628l21.41 9.293.076.994h18.677l.005-.993 21.144-8.99c.002 0 32.315-88.57 17.527-94.93z"/><g fill="#2B4C5A"><path d="M8.384 146.804s35.763 51.178 65.155 65.833c24.422-13.74 24.478-13.774 24.478-13.774l-50.184-80.425-39.45 28.366z"/><path d="M79.632 102.345s30.365 54.546 30.61 87.39c-23.076 15.898-23.02 15.863-23.02 15.863L37.04 125.174l42.594-22.83z"/></g><g fill="#52BC86"><path d="M87.993 105.878a2.12 2.12 0 0 1-.677 2.922L10.49 156.74a2.12 2.12 0 0 1-2.922-.678l-.112-.18a2.12 2.12 0 0 1 .676-2.922l76.827-47.94c.993-.618 2.3-.315 2.92.68l.113.178zM91.63 114.11a2.12 2.12 0 0 1-.678 2.92l-74.667 46.592a2.12 2.12 0 0 1-2.92-.676l-.113-.18a2.12 2.12 0 0 1 .676-2.922l74.668-46.59a2.12 2.12 0 0 1 2.922.676l.11.18zM95.265 122.338a2.12 2.12 0 0 1-.677 2.922L22.08 170.505a2.12 2.12 0 0 1-2.922-.678l-.112-.18a2.12 2.12 0 0 1 .678-2.92L92.23 121.48a2.12 2.12 0 0 1 2.923.678l.112.18zM98.564 130.03c.62.993.316 2.302-.678 2.922l-69.27 43.222a2.12 2.12 0 0 1-2.922-.675l-.112-.18a2.12 2.12 0 0 1 .677-2.923l69.27-43.224a2.12 2.12 0 0 1 2.92.677l.114.18zM100.782 138.394c.62.994.318 2.3-.675 2.922l-64.952 40.528a2.12 2.12 0 0 1-2.922-.676l-.112-.18a2.12 2.12 0 0 1 .677-2.922l64.952-40.53a2.12 2.12 0 0 1 2.92.68l.112.178zM104.42 146.624a2.12 2.12 0 0 1-.678 2.922L40.95 188.73a2.12 2.12 0 0 1-2.923-.68l-.11-.18a2.12 2.12 0 0 1 .675-2.92l62.793-39.182a2.12 2.12 0 0 1 2.922.677l.112.18zM107.717 154.314c.62.994.318 2.303-.675 2.922L46.407 195.07a2.12 2.12 0 0 1-2.92-.676l-.114-.18a2.123 2.123 0 0 1 .677-2.92l60.634-37.836a2.123 2.123 0 0 1 2.922.676l.11.18zM109.937 162.68c.62.992.317 2.3-.676 2.92l-56.314 35.14a2.12 2.12 0 0 1-2.922-.676l-.112-.18a2.12 2.12 0 0 1 .677-2.922l56.313-35.14a2.122 2.122 0 0 1 2.923.676l.11.18zM111.414 172.256c.62.993.316 2.3-.677 2.92L59.82 206.952a2.124 2.124 0 0 1-2.923-.676l-.11-.18a2.12 2.12 0 0 1 .674-2.922l50.92-31.772a2.12 2.12 0 0 1 2.92.676l.114.18zM113.97 181.16a2.12 2.12 0 0 1-.677 2.922l-45.52 28.404a2.122 2.122 0 0 1-2.922-.678l-.11-.18a2.12 2.12 0 0 1 .676-2.92l45.52-28.405a2.12 2.12 0 0 1 2.922.677l.11.18z"/></g><path opacity=".2" fill="#050505" d="M84.96 105.02l-2.918 1.82c-1.5-2.862-2.41-4.495-2.41-4.495L48.278 119.15l-.443-.712-5.176 3.723 49.81 79.827 5.55-3.124-.308-.494c3.14-2.166 7.223-4.98 12.53-8.635a59.71 59.71 0 0 0-.146-3.658l3.197-1.995a2.12 2.12 0 0 0 .676-2.922l-.112-.18a2.12 2.12 0 0 0-2.922-.677l-1.347.84a96.547 96.547 0 0 0-.767-4.77l1.914-1.195a2.12 2.12 0 0 0 .677-2.92l-.113-.18a2.12 2.12 0 0 0-2.92-.677l-.522.326a144.055 144.055 0 0 0-1.118-4.552l2.52-1.573a2.12 2.12 0 0 0 .677-2.92l-.11-.18a2.122 2.122 0 0 0-2.924-.678l-1.408.878a178.89 178.89 0 0 0-1.15-3.78l2.698-1.684a2.122 2.122 0 0 0 .675-2.922l-.11-.18a2.123 2.123 0 0 0-2.923-.677l-1.77 1.104a237.23 237.23 0 0 0-1.29-3.694l2.118-1.322a2.12 2.12 0 0 0 .677-2.922l-.112-.18a2.12 2.12 0 0 0-2.922-.676l-1.332.83a315.605 315.605 0 0 0-1.635-4.228l1.688-1.054a2.12 2.12 0 0 0 .675-2.922l-.112-.18a2.12 2.12 0 0 0-2.92-.677l-1.028.643a302.933 302.933 0 0 0-1.496-3.566l2.662-1.66a2.122 2.122 0 0 0 .678-2.923l-.113-.18a2.12 2.12 0 0 0-2.922-.678l-2.096 1.31a363.978 363.978 0 0 0-1.573-3.52l2.73-1.703a2.12 2.12 0 0 0 .677-2.923l-.112-.18a2.12 2.12 0 0 0-2.922-.676l-2.25 1.404a356.735 356.735 0 0 0-1.922-4.05l2.895-1.806a2.12 2.12 0 0 0 .677-2.92l-.11-.18a2.12 2.12 0 0 0-2.923-.678l-2.5 1.558a416.87 416.87 0 0 0-2.005-3.998l3.225-2.013a2.12 2.12 0 0 0 .677-2.922l-.112-.18a2.13 2.13 0 0 0-2.926-.674z"/><path fill="#52BC86" d="M113.672 189.095c-.56-.895-1.877-1.078-2.726-.55l-39.93 24.917c-.85.53-1.084 1.683-.526 2.576l7.073 11.335c.56.895 1.698 1.19 2.547.662l39.93-24.916c.848-.53 1.263-1.796.704-2.69l-7.072-11.335z"/><path fill="#ADDFC5" d="M97.732 226.126c-22.1-12.372-76.332-91.294-78.63-94.647l3.675-2.52c.557.813 55.935 81.413 77.13 93.28l-2.175 3.886zM105.95 218.468c-.55-9.942-9.323-32.125-25.372-64.147-12.203-24.348-24.39-45.914-24.512-46.13l3.875-2.193c2.003 3.54 49.058 86.938 50.458 112.227l-4.447.244z"/><path fill="#52BC86" d="M85.783 98.508c-8.22-12.586-29.32-4.95-52.26 9.362-22.94 14.313-39.072 29.914-31.38 42.827l83.64-52.19z"/><path opacity=".2" fill="#FFF" d="M35.88 111.65C56.7 98.66 75.99 91.045 85.73 98.54l.053-.032c-8.22-12.586-29.32-4.95-52.26 9.362-22.94 14.313-39.072 29.914-31.38 42.827l.055-.033C-.254 138.62 15.062 124.64 35.88 111.65z"/><circle opacity=".2" cx="20.941" cy="130.22" r="3.393"/><circle fill="#F2F4F5" cx="20.266" cy="129.142" r="3.394"/><circle opacity=".2" cx="58.184" cy="106.981" r="3.393"/><circle fill="#F2F4F5" cx="57.51" cy="105.901" r="3.394"/><path fill="#2B4C5A" d="M110.227 197.996c-.56-.896-1.146-1.537-1.758-1.154l-28.856 18.006c-.612.38-.712 1.45-.154 2.344l7.073 11.336c.56.894 1.562 1.275 2.174.893l28.856-18.005c.612-.382.295-1.19-.264-2.086l-7.073-11.334z"/><path fill="#49A963" d="M117.373 201.035c-.56-.895-1.613-1.245-2.36-.78L79.896 222.17c-.748.465-1.404 1.883-.848 2.777l7.074 11.335c.557.895 2.12.926 2.866.46l35.118-21.912c.745-.466.895-1.567.338-2.46l-7.07-11.335z"/><path fill="#CCC" d="M55.724 168.57a1.91 1.91 0 0 1-.435 2.663l-5.68 4.09a1.91 1.91 0 0 1-2.666-.436l-9.292-12.91a1.908 1.908 0 0 1 .434-2.662l5.68-4.09a1.908 1.908 0 0 1 2.665.435l9.294 12.91z"/><path opacity=".3" fill="#FFF" d="M54.1 169.737c.615.855.678 1.863.14 2.252l-3.58 2.575c-.538.39-1.475.01-2.09-.846l-9.294-12.91c-.615-.854-.678-1.863-.14-2.25l3.58-2.577c.54-.39 1.476-.01 2.092.847l9.293 12.907z"/><path fill="#CCC" d="M76.982 155.303a1.908 1.908 0 0 0 2.584.78l6.17-3.304a1.908 1.908 0 0 0 .78-2.585l-7.51-14.02a1.91 1.91 0 0 0-2.585-.782l-6.17 3.305a1.907 1.907 0 0 0-.78 2.583l7.512 14.023z"/><path opacity=".3" fill="#FFF" d="M78.746 154.358c.5.93 1.375 1.43 1.96 1.116l3.89-2.083c.585-.313.655-1.32.157-2.25l-7.51-14.02c-.498-.93-1.376-1.43-1.962-1.116l-3.887 2.084c-.585.313-.656 1.32-.16 2.25l7.513 14.02z"/><path fill="#F2F4F5" d="M121.862 239.478a6.363 6.363 0 0 1-10.795 6.737l-14.146-22.67a6.362 6.362 0 0 1 2.03-8.766 6.36 6.36 0 0 1 8.765 2.03l14.147 22.668z"/><g fill="#2B4C5A"><path d="M8.384 146.804s35.763 51.178 65.155 65.833c24.422-13.74 24.478-13.774 24.478-13.774l-50.184-80.425-39.45 28.366z"/><path d="M79.632 102.345s30.365 54.546 30.61 87.39c-23.076 15.898-23.02 15.863-23.02 15.863L37.04 125.174l42.594-22.83z"/></g><g fill="#52BC86"><path d="M87.993 105.878a2.12 2.12 0 0 1-.677 2.922L10.49 156.74a2.12 2.12 0 0 1-2.922-.678l-.112-.18a2.12 2.12 0 0 1 .676-2.922l76.827-47.94c.993-.618 2.3-.315 2.92.68l.113.178zM91.63 114.11a2.12 2.12 0 0 1-.678 2.92l-74.667 46.592a2.12 2.12 0 0 1-2.92-.676l-.113-.18a2.12 2.12 0 0 1 .676-2.922l74.668-46.59a2.12 2.12 0 0 1 2.922.676l.11.18zM95.265 122.338a2.12 2.12 0 0 1-.677 2.922L22.08 170.505a2.12 2.12 0 0 1-2.922-.678l-.112-.18a2.12 2.12 0 0 1 .678-2.92L92.23 121.48a2.12 2.12 0 0 1 2.923.678l.112.18zM98.564 130.03c.62.993.316 2.302-.678 2.922l-69.27 43.222a2.12 2.12 0 0 1-2.922-.675l-.112-.18a2.12 2.12 0 0 1 .677-2.923l69.27-43.224a2.12 2.12 0 0 1 2.92.677l.114.18zM100.782 138.394c.62.994.318 2.3-.675 2.922l-64.952 40.528a2.12 2.12 0 0 1-2.922-.676l-.112-.18a2.12 2.12 0 0 1 .677-2.922l64.952-40.53a2.12 2.12 0 0 1 2.92.68l.112.178zM104.42 146.624a2.12 2.12 0 0 1-.678 2.922L40.95 188.73a2.12 2.12 0 0 1-2.923-.68l-.11-.18a2.12 2.12 0 0 1 .675-2.92l62.793-39.182a2.12 2.12 0 0 1 2.922.677l.112.18zM107.717 154.314c.62.994.318 2.303-.675 2.922L46.407 195.07a2.12 2.12 0 0 1-2.92-.676l-.114-.18a2.123 2.123 0 0 1 .677-2.92l60.634-37.836a2.123 2.123 0 0 1 2.922.676l.11.18zM109.937 162.68c.62.992.317 2.3-.676 2.92l-56.314 35.14a2.12 2.12 0 0 1-2.922-.676l-.112-.18a2.12 2.12 0 0 1 .677-2.922l56.313-35.14a2.122 2.122 0 0 1 2.923.676l.11.18zM111.414 172.256c.62.993.316 2.3-.677 2.92L59.82 206.952a2.124 2.124 0 0 1-2.923-.676l-.11-.18a2.12 2.12 0 0 1 .674-2.922l50.92-31.772a2.12 2.12 0 0 1 2.92.676l.114.18zM113.97 181.16a2.12 2.12 0 0 1-.677 2.922l-45.52 28.404a2.122 2.122 0 0 1-2.922-.678l-.11-.18a2.12 2.12 0 0 1 .676-2.92l45.52-28.405a2.12 2.12 0 0 1 2.922.677l.11.18z"/></g><path opacity=".2" fill="#050505" d="M84.96 105.02l-2.918 1.82c-1.5-2.862-2.41-4.495-2.41-4.495L48.278 119.15l-.443-.712-5.176 3.723 49.81 79.827 5.55-3.124-.308-.494c3.14-2.166 7.223-4.98 12.53-8.635a59.71 59.71 0 0 0-.146-3.658l3.197-1.995a2.12 2.12 0 0 0 .676-2.922l-.112-.18a2.12 2.12 0 0 0-2.922-.677l-1.347.84a96.547 96.547 0 0 0-.767-4.77l1.914-1.195a2.12 2.12 0 0 0 .677-2.92l-.113-.18a2.12 2.12 0 0 0-2.92-.677l-.522.326a144.055 144.055 0 0 0-1.118-4.552l2.52-1.573a2.12 2.12 0 0 0 .677-2.92l-.11-.18a2.122 2.122 0 0 0-2.924-.678l-1.408.878a178.89 178.89 0 0 0-1.15-3.78l2.698-1.684a2.122 2.122 0 0 0 .675-2.922l-.11-.18a2.123 2.123 0 0 0-2.923-.677l-1.77 1.104a237.23 237.23 0 0 0-1.29-3.694l2.118-1.322a2.12 2.12 0 0 0 .677-2.922l-.112-.18a2.12 2.12 0 0 0-2.922-.676l-1.332.83a315.605 315.605 0 0 0-1.635-4.228l1.688-1.054a2.12 2.12 0 0 0 .675-2.922l-.112-.18a2.12 2.12 0 0 0-2.92-.677l-1.028.643a302.933 302.933 0 0 0-1.496-3.566l2.662-1.66a2.122 2.122 0 0 0 .678-2.923l-.113-.18a2.12 2.12 0 0 0-2.922-.678l-2.096 1.31a363.978 363.978 0 0 0-1.573-3.52l2.73-1.703a2.12 2.12 0 0 0 .677-2.923l-.112-.18a2.12 2.12 0 0 0-2.922-.676l-2.25 1.404a356.735 356.735 0 0 0-1.922-4.05l2.895-1.806a2.12 2.12 0 0 0 .677-2.92l-.11-.18a2.12 2.12 0 0 0-2.923-.678l-2.5 1.558a416.87 416.87 0 0 0-2.005-3.998l3.225-2.013a2.12 2.12 0 0 0 .677-2.922l-.112-.18a2.13 2.13 0 0 0-2.926-.674z"/><path fill="#52BC86" d="M113.672 189.095c-.56-.895-1.877-1.078-2.726-.55l-39.93 24.917c-.85.53-1.084 1.683-.526 2.576l7.073 11.335c.56.895 1.698 1.19 2.547.662l39.93-24.916c.848-.53 1.263-1.796.704-2.69l-7.072-11.335z"/><path fill="#ADDFC5" d="M97.732 226.126c-22.1-12.372-76.332-91.294-78.63-94.647l3.675-2.52c.557.813 55.935 81.413 77.13 93.28l-2.175 3.886zM105.95 218.468c-.55-9.942-9.323-32.125-25.372-64.147-12.203-24.348-24.39-45.914-24.512-46.13l3.875-2.193c2.003 3.54 49.058 86.938 50.458 112.227l-4.447.244z"/><path fill="#52BC86" d="M85.783 98.508c-8.22-12.586-29.32-4.95-52.26 9.362-22.94 14.313-39.072 29.914-31.38 42.827l83.64-52.19z"/><path opacity=".2" fill="#FFF" d="M35.88 111.65C56.7 98.66 75.99 91.045 85.73 98.54l.053-.032c-8.22-12.586-29.32-4.95-52.26 9.362-22.94 14.313-39.072 29.914-31.38 42.827l.055-.033C-.254 138.62 15.062 124.64 35.88 111.65z"/><circle opacity=".2" cx="20.941" cy="130.22" r="3.393"/><circle fill="#F2F4F5" cx="20.266" cy="129.142" r="3.394"/><circle opacity=".2" cx="58.184" cy="106.981" r="3.393"/><circle fill="#F2F4F5" cx="57.51" cy="105.901" r="3.394"/><path fill="#2B4C5A" d="M110.227 197.996c-.56-.896-1.146-1.537-1.758-1.154l-28.856 18.006c-.612.38-.712 1.45-.154 2.344l7.073 11.336c.56.894 1.562 1.275 2.174.893l28.856-18.005c.612-.382.295-1.19-.264-2.086l-7.073-11.334z"/><path fill="#49A963" d="M117.373 201.035c-.56-.895-1.613-1.245-2.36-.78L79.896 222.17c-.748.465-1.404 1.883-.848 2.777l7.074 11.335c.557.895 2.12.926 2.866.46l35.118-21.912c.745-.466.895-1.567.338-2.46l-7.07-11.335z"/><g><path fill="#CCC" d="M55.724 168.57a1.91 1.91 0 0 1-.435 2.663l-5.68 4.09a1.91 1.91 0 0 1-2.666-.436l-9.292-12.91a1.908 1.908 0 0 1 .434-2.662l5.68-4.09a1.908 1.908 0 0 1 2.665.435l9.294 12.91z"/><path opacity=".3" fill="#FFF" d="M54.1 169.737c.615.855.678 1.863.14 2.252l-3.58 2.575c-.538.39-1.475.01-2.09-.846l-9.294-12.91c-.615-.854-.678-1.863-.14-2.25l3.58-2.577c.54-.39 1.476-.01 2.092.847l9.293 12.907z"/></g><g><path fill="#CCC" d="M76.982 155.303a1.908 1.908 0 0 0 2.584.78l6.17-3.304a1.908 1.908 0 0 0 .78-2.585l-7.51-14.02a1.91 1.91 0 0 0-2.585-.782l-6.17 3.305a1.907 1.907 0 0 0-.78 2.583l7.512 14.023z"/><path opacity=".3" fill="#FFF" d="M78.746 154.358c.5.93 1.375 1.43 1.96 1.116l3.89-2.083c.585-.313.655-1.32.157-2.25l-7.51-14.02c-.498-.93-1.376-1.43-1.962-1.116l-3.887 2.084c-.585.313-.656 1.32-.16 2.25l7.513 14.02z"/></g><path fill="#F2F4F5" d="M121.862 239.478a6.363 6.363 0 0 1-10.795 6.737l-14.146-22.67a6.362 6.362 0 0 1 2.03-8.766 6.36 6.36 0 0 1 8.765 2.03l14.147 22.668z"/><g><g fill="#2B4C5A"><path d="M257.842 146.804s-35.762 51.178-65.154 65.833a53346.058 53346.058 0 0 1-24.48-13.774l50.185-80.425 39.45 28.366z"/><path d="M186.595 102.345s-30.364 54.546-30.61 87.39c23.075 15.898 23.02 15.863 23.02 15.863l50.184-80.424-42.595-22.83z"/></g><g fill="#52BC86"><path d="M178.233 105.878a2.12 2.12 0 0 0 .677 2.922l76.826 47.938c.994.62 2.3.317 2.922-.677l.112-.18a2.122 2.122 0 0 0-.677-2.92l-76.826-47.94a2.122 2.122 0 0 0-2.922.678l-.112.18zM174.598 114.11a2.12 2.12 0 0 0 .677 2.92l74.667 46.592a2.12 2.12 0 0 0 2.92-.676l.114-.18a2.12 2.12 0 0 0-.676-2.922l-74.67-46.59a2.12 2.12 0 0 0-2.92.676l-.112.18zM170.962 122.338a2.12 2.12 0 0 0 .677 2.922l72.507 45.245a2.12 2.12 0 0 0 2.923-.678l.11-.18a2.12 2.12 0 0 0-.676-2.92l-72.508-45.246a2.12 2.12 0 0 0-2.922.678l-.112.18zM167.664 130.03a2.12 2.12 0 0 0 .676 2.922l69.27 43.222a2.12 2.12 0 0 0 2.922-.675l.112-.18a2.12 2.12 0 0 0-.677-2.923l-69.27-43.224a2.122 2.122 0 0 0-2.922.677l-.11.18zM165.444 138.394c-.62.994-.317 2.3.675 2.922l64.952 40.528c.993.62 2.3.318 2.92-.676l.113-.18a2.12 2.12 0 0 0-.676-2.922l-64.953-40.53a2.12 2.12 0 0 0-2.92.68l-.113.178zM161.81 146.624a2.12 2.12 0 0 0 .675 2.922l62.793 39.183c.994.618 2.3.316 2.922-.68l.11-.18a2.12 2.12 0 0 0-.675-2.92l-62.793-39.182a2.12 2.12 0 0 0-2.922.677l-.11.18zM158.51 154.314a2.12 2.12 0 0 0 .676 2.922l60.633 37.835c.993.62 2.302.318 2.922-.676l.112-.18a2.123 2.123 0 0 0-.677-2.92l-60.634-37.836a2.123 2.123 0 0 0-2.922.676l-.11.18zM156.29 162.68a2.12 2.12 0 0 0 .676 2.92l56.315 35.14c.995.62 2.304.318 2.924-.676l.112-.18a2.122 2.122 0 0 0-.678-2.922l-56.315-35.14a2.12 2.12 0 0 0-2.92.676l-.113.18zM154.813 172.256a2.12 2.12 0 0 0 .676 2.92l50.917 31.774c.993.62 2.302.316 2.922-.677l.11-.18a2.12 2.12 0 0 0-.675-2.922l-50.918-31.77a2.12 2.12 0 0 0-2.92.676l-.114.18zM152.257 181.16a2.12 2.12 0 0 0 .677 2.922l45.52 28.404c.994.62 2.303.316 2.922-.678l.113-.18a2.12 2.12 0 0 0-.68-2.92l-45.52-28.405a2.12 2.12 0 0 0-2.92.677l-.113.18z"/></g><path opacity=".2" fill="#050505" d="M181.268 105.02l2.917 1.82c1.5-2.862 2.41-4.495 2.41-4.495l31.353 16.805.445-.712 5.176 3.723-49.812 79.827-5.55-3.124.307-.494c-3.142-2.166-7.223-4.98-12.53-8.635.008-1.19.06-2.414.146-3.658l-3.196-1.995a2.12 2.12 0 0 1-.677-2.922l.112-.18a2.12 2.12 0 0 1 2.92-.677l1.35.84c.208-1.563.463-3.154.764-4.77l-1.914-1.195a2.12 2.12 0 0 1-.676-2.92l.112-.18a2.12 2.12 0 0 1 2.92-.677l.523.326c.342-1.506.716-3.023 1.117-4.552l-2.52-1.573a2.12 2.12 0 0 1-.677-2.92l.112-.18a2.12 2.12 0 0 1 2.92-.678l1.41.878c.367-1.258.752-2.52 1.15-3.78l-2.697-1.684a2.12 2.12 0 0 1-.676-2.922l.11-.18a2.123 2.123 0 0 1 2.922-.677l1.77 1.104c.42-1.234.85-2.467 1.29-3.694l-2.118-1.322a2.12 2.12 0 0 1-.676-2.922l.11-.18a2.12 2.12 0 0 1 2.923-.676l1.334.83c.536-1.42 1.08-2.832 1.635-4.228l-1.69-1.054a2.122 2.122 0 0 1-.676-2.922l.112-.18a2.12 2.12 0 0 1 2.92-.677l1.03.643c.496-1.205.995-2.394 1.495-3.566l-2.66-1.66a2.12 2.12 0 0 1-.677-2.923l.11-.18a2.122 2.122 0 0 1 2.924-.678l2.095 1.31a389.89 389.89 0 0 1 1.574-3.52l-2.73-1.703a2.12 2.12 0 0 1-.676-2.923l.112-.18a2.12 2.12 0 0 1 2.922-.676l2.25 1.404a394.284 394.284 0 0 1 1.922-4.05l-2.894-1.806a2.12 2.12 0 0 1-.677-2.92l.11-.18a2.12 2.12 0 0 1 2.923-.678l2.498 1.558a416.87 416.87 0 0 1 2.006-3.998l-3.225-2.013a2.12 2.12 0 0 1-.677-2.922l.112-.18a2.13 2.13 0 0 1 2.926-.674z"/><path fill="#52BC86" d="M152.556 189.095c.558-.895 1.877-1.078 2.725-.55l39.93 24.917c.85.53 1.085 1.683.526 2.576l-7.072 11.335c-.558.895-1.7 1.19-2.546.662l-39.93-24.916c-.85-.53-1.265-1.796-.705-2.69l7.073-11.335z"/><path fill="#ADDFC5" d="M168.494 226.126l-2.176-3.886c21.198-11.868 76.573-92.466 77.13-93.28l3.675 2.52c-2.3 3.352-56.53 82.274-78.63 94.646zM160.275 218.468l-4.447-.245c.592-10.7 9.285-32.87 25.84-65.898 12.252-24.448 24.495-46.113 24.617-46.33l3.875 2.195c-.12.215-12.317 21.796-24.52 46.145-16.043 32.015-24.816 54.192-25.365 64.133z"/><path fill="#52BC86" d="M180.443 98.508c8.22-12.586 29.32-4.95 52.26 9.362 22.94 14.313 39.072 29.914 31.38 42.827l-83.64-52.19z"/><path opacity=".2" fill="#FFF" d="M230.346 111.65c-20.817-12.99-40.106-20.604-49.85-13.11l-.053-.032c8.22-12.586 29.32-4.95 52.26 9.362 22.94 14.313 39.072 29.914 31.38 42.827l-.055-.033c2.45-12.043-12.864-26.024-33.682-39.015z"/><circle opacity=".2" cx="245.287" cy="130.22" r="3.393"/><circle fill="#F2F4F5" cx="245.96" cy="129.142" r="3.394"/><circle opacity=".2" cx="208.043" cy="106.981" r="3.393"/><circle fill="#F2F4F5" cx="208.716" cy="105.901" r="3.394"/><path fill="#2B4C5A" d="M156 197.996c.56-.896 1.146-1.537 1.758-1.154l28.855 18.006c.613.38.712 1.45.154 2.344l-7.073 11.336c-.56.894-1.562 1.275-2.175.893l-28.857-18.005c-.61-.382-.292-1.19.265-2.086L156 197.995z"/><path fill="#49A963" d="M148.854 201.035c.56-.895 1.614-1.245 2.36-.78l35.116 21.915c.747.465 1.405 1.883.848 2.777l-7.073 11.335c-.558.895-2.12.926-2.867.46L142.12 214.83c-.745-.466-.895-1.567-.338-2.46l7.072-11.335z"/><path fill="#CCC" d="M210.504 168.57a1.91 1.91 0 0 0 .434 2.663l5.68 4.09a1.91 1.91 0 0 0 2.665-.436l9.292-12.91a1.908 1.908 0 0 0-.435-2.662l-5.68-4.09a1.91 1.91 0 0 0-2.664.435l-9.292 12.91z"/><path opacity=".3" fill="#FFF" d="M212.127 169.737c-.615.855-.678 1.863-.14 2.252l3.58 2.575c.538.39 1.474.01 2.09-.846l9.293-12.91c.617-.854.678-1.863.14-2.25l-3.58-2.577c-.54-.39-1.474-.01-2.092.847l-9.29 12.907z"/><path fill="#CCC" d="M189.244 155.303a1.908 1.908 0 0 1-2.584.78l-6.17-3.304a1.91 1.91 0 0 1-.78-2.585l7.51-14.02a1.91 1.91 0 0 1 2.585-.782l6.17 3.305a1.907 1.907 0 0 1 .78 2.583l-7.51 14.023z"/><path opacity=".3" fill="#FFF" d="M187.48 154.358c-.498.93-1.375 1.43-1.96 1.116l-3.888-2.083c-.587-.313-.657-1.32-.16-2.25l7.51-14.02c.5-.93 1.377-1.43 1.963-1.116l3.888 2.084c.585.313.656 1.32.16 2.25l-7.513 14.02z"/><path fill="#F2F4F5" d="M144.363 239.478a6.363 6.363 0 0 0 10.796 6.737l14.146-22.67a6.362 6.362 0 0 0-2.03-8.766 6.36 6.36 0 0 0-8.764 2.03l-14.147 22.668z"/><g fill="#2B4C5A"><path d="M257.842 146.804s-35.762 51.178-65.154 65.833a53346.058 53346.058 0 0 1-24.48-13.774l50.185-80.425 39.45 28.366z"/><path d="M186.595 102.345s-30.364 54.546-30.61 87.39c23.075 15.898 23.02 15.863 23.02 15.863l50.184-80.424-42.595-22.83z"/></g><g fill="#52BC86"><path d="M178.233 105.878a2.12 2.12 0 0 0 .677 2.922l76.826 47.938c.994.62 2.3.317 2.922-.677l.112-.18a2.122 2.122 0 0 0-.677-2.92l-76.826-47.94a2.122 2.122 0 0 0-2.922.678l-.112.18zM174.598 114.11a2.12 2.12 0 0 0 .677 2.92l74.667 46.592a2.12 2.12 0 0 0 2.92-.676l.114-.18a2.12 2.12 0 0 0-.676-2.922l-74.67-46.59a2.12 2.12 0 0 0-2.92.676l-.112.18zM170.962 122.338a2.12 2.12 0 0 0 .677 2.922l72.507 45.245a2.12 2.12 0 0 0 2.923-.678l.11-.18a2.12 2.12 0 0 0-.676-2.92l-72.508-45.246a2.12 2.12 0 0 0-2.922.678l-.112.18zM167.664 130.03a2.12 2.12 0 0 0 .676 2.922l69.27 43.222a2.12 2.12 0 0 0 2.922-.675l.112-.18a2.12 2.12 0 0 0-.677-2.923l-69.27-43.224a2.122 2.122 0 0 0-2.922.677l-.11.18zM165.444 138.394c-.62.994-.317 2.3.675 2.922l64.952 40.528c.993.62 2.3.318 2.92-.676l.113-.18a2.12 2.12 0 0 0-.676-2.922l-64.953-40.53a2.12 2.12 0 0 0-2.92.68l-.113.178zM161.81 146.624a2.12 2.12 0 0 0 .675 2.922l62.793 39.183c.994.618 2.3.316 2.922-.68l.11-.18a2.12 2.12 0 0 0-.675-2.92l-62.793-39.182a2.12 2.12 0 0 0-2.922.677l-.11.18zM158.51 154.314a2.12 2.12 0 0 0 .676 2.922l60.633 37.835c.993.62 2.302.318 2.922-.676l.112-.18a2.123 2.123 0 0 0-.677-2.92l-60.634-37.836a2.123 2.123 0 0 0-2.922.676l-.11.18zM156.29 162.68a2.12 2.12 0 0 0 .676 2.92l56.315 35.14c.995.62 2.304.318 2.924-.676l.112-.18a2.122 2.122 0 0 0-.678-2.922l-56.315-35.14a2.12 2.12 0 0 0-2.92.676l-.113.18zM154.813 172.256a2.12 2.12 0 0 0 .676 2.92l50.917 31.774c.993.62 2.302.316 2.922-.677l.11-.18a2.12 2.12 0 0 0-.675-2.922l-50.918-31.77a2.12 2.12 0 0 0-2.92.676l-.114.18zM152.257 181.16a2.12 2.12 0 0 0 .677 2.922l45.52 28.404c.994.62 2.303.316 2.922-.678l.113-.18a2.12 2.12 0 0 0-.68-2.92l-45.52-28.405a2.12 2.12 0 0 0-2.92.677l-.113.18z"/></g><path opacity=".2" fill="#050505" d="M181.268 105.02l2.917 1.82c1.5-2.862 2.41-4.495 2.41-4.495l31.353 16.805.445-.712 5.176 3.723-49.812 79.827-5.55-3.124.307-.494c-3.142-2.166-7.223-4.98-12.53-8.635.008-1.19.06-2.414.146-3.658l-3.196-1.995a2.12 2.12 0 0 1-.677-2.922l.112-.18a2.12 2.12 0 0 1 2.92-.677l1.35.84c.208-1.563.463-3.154.764-4.77l-1.914-1.195a2.12 2.12 0 0 1-.676-2.92l.112-.18a2.12 2.12 0 0 1 2.92-.677l.523.326c.342-1.506.716-3.023 1.117-4.552l-2.52-1.573a2.12 2.12 0 0 1-.677-2.92l.112-.18a2.12 2.12 0 0 1 2.92-.678l1.41.878c.367-1.258.752-2.52 1.15-3.78l-2.697-1.684a2.12 2.12 0 0 1-.676-2.922l.11-.18a2.123 2.123 0 0 1 2.922-.677l1.77 1.104c.42-1.234.85-2.467 1.29-3.694l-2.118-1.322a2.12 2.12 0 0 1-.676-2.922l.11-.18a2.12 2.12 0 0 1 2.923-.676l1.334.83c.536-1.42 1.08-2.832 1.635-4.228l-1.69-1.054a2.122 2.122 0 0 1-.676-2.922l.112-.18a2.12 2.12 0 0 1 2.92-.677l1.03.643c.496-1.205.995-2.394 1.495-3.566l-2.66-1.66a2.12 2.12 0 0 1-.677-2.923l.11-.18a2.122 2.122 0 0 1 2.924-.678l2.095 1.31a389.89 389.89 0 0 1 1.574-3.52l-2.73-1.703a2.12 2.12 0 0 1-.676-2.923l.112-.18a2.12 2.12 0 0 1 2.922-.676l2.25 1.404a394.284 394.284 0 0 1 1.922-4.05l-2.894-1.806a2.12 2.12 0 0 1-.677-2.92l.11-.18a2.12 2.12 0 0 1 2.923-.678l2.498 1.558a416.87 416.87 0 0 1 2.006-3.998l-3.225-2.013a2.12 2.12 0 0 1-.677-2.922l.112-.18a2.13 2.13 0 0 1 2.926-.674z"/><path fill="#52BC86" d="M152.556 189.095c.558-.895 1.877-1.078 2.725-.55l39.93 24.917c.85.53 1.085 1.683.526 2.576l-7.072 11.335c-.558.895-1.7 1.19-2.546.662l-39.93-24.916c-.85-.53-1.265-1.796-.705-2.69l7.073-11.335z"/><path fill="#ADDFC5" d="M168.494 226.126l-2.176-3.886c21.198-11.868 76.573-92.466 77.13-93.28l3.675 2.52c-2.3 3.352-56.53 82.274-78.63 94.646zM160.275 218.468l-4.447-.245c.592-10.7 9.285-32.87 25.84-65.898 12.252-24.448 24.495-46.113 24.617-46.33l3.875 2.195c-.12.215-12.317 21.796-24.52 46.145-16.043 32.015-24.816 54.192-25.365 64.133z"/><path fill="#52BC86" d="M180.443 98.508c8.22-12.586 29.32-4.95 52.26 9.362 22.94 14.313 39.072 29.914 31.38 42.827l-83.64-52.19z"/><path opacity=".2" fill="#FFF" d="M230.346 111.65c-20.817-12.99-40.106-20.604-49.85-13.11l-.053-.032c8.22-12.586 29.32-4.95 52.26 9.362 22.94 14.313 39.072 29.914 31.38 42.827l-.055-.033c2.45-12.043-12.864-26.024-33.682-39.015z"/><circle opacity=".2" cx="245.287" cy="130.22" r="3.393"/><circle fill="#F2F4F5" cx="245.96" cy="129.142" r="3.394"/><circle opacity=".2" cx="208.043" cy="106.981" r="3.393"/><circle fill="#F2F4F5" cx="208.716" cy="105.901" r="3.394"/><path fill="#2B4C5A" d="M156 197.996c.56-.896 1.146-1.537 1.758-1.154l28.855 18.006c.613.38.712 1.45.154 2.344l-7.073 11.336c-.56.894-1.562 1.275-2.175.893l-28.857-18.005c-.61-.382-.292-1.19.265-2.086L156 197.995z"/><path fill="#49A963" d="M148.854 201.035c.56-.895 1.614-1.245 2.36-.78l35.116 21.915c.747.465 1.405 1.883.848 2.777l-7.073 11.335c-.558.895-2.12.926-2.867.46L142.12 214.83c-.745-.466-.895-1.567-.338-2.46l7.072-11.335z"/><g><path fill="#CCC" d="M210.504 168.57a1.91 1.91 0 0 0 .434 2.663l5.68 4.09a1.91 1.91 0 0 0 2.665-.436l9.292-12.91a1.908 1.908 0 0 0-.435-2.662l-5.68-4.09a1.91 1.91 0 0 0-2.664.435l-9.292 12.91z"/><path opacity=".3" fill="#FFF" d="M212.127 169.737c-.615.855-.678 1.863-.14 2.252l3.58 2.575c.538.39 1.474.01 2.09-.846l9.293-12.91c.617-.854.678-1.863.14-2.25l-3.58-2.577c-.54-.39-1.474-.01-2.092.847l-9.29 12.907z"/></g><g><path fill="#CCC" d="M189.244 155.303a1.908 1.908 0 0 1-2.584.78l-6.17-3.304a1.91 1.91 0 0 1-.78-2.585l7.51-14.02a1.91 1.91 0 0 1 2.585-.782l6.17 3.305a1.907 1.907 0 0 1 .78 2.583l-7.51 14.023z"/><path opacity=".3" fill="#FFF" d="M187.48 154.358c-.498.93-1.375 1.43-1.96 1.116l-3.888-2.083c-.587-.313-.657-1.32-.16-2.25l7.51-14.02c.5-.93 1.377-1.43 1.963-1.116l3.888 2.084c.585.313.656 1.32.16 2.25l-7.513 14.02z"/></g><path fill="#F2F4F5" d="M144.363 239.478a6.363 6.363 0 0 0 10.796 6.737l14.146-22.67a6.362 6.362 0 0 0-2.03-8.766 6.36 6.36 0 0 0-8.764 2.03l-14.147 22.668z"/></g><path fill="#333" d="M117.656 262.835c.215 1.664-.684 3.15-1.828 3.298l-.194.025c-1.146.147-2.18-1.092-2.394-2.756L96.662 134.387c-.214-1.664.475-3.124 1.62-3.27l.194-.025c1.145-.147 2.39 1.063 2.604 2.728l16.576 129.015zM149.46 262.835c-.213 1.664.687 3.15 1.83 3.298l.194.025c1.146.147 2.18-1.092 2.395-2.756l16.576-129.016c.215-1.664-.474-3.124-1.618-3.27l-.195-.025c-1.145-.146-2.39 1.064-2.604 2.73l-16.58 129.015z"/><circle opacity=".2" fill="#050505" cx="133.563" cy="263.505" r="22.636"/><circle fill="#49A963" cx="133.563" cy="259.688" r="22.636"/><circle fill="#2B4C5A" cx="133.563" cy="259.688" r="13.206"/><circle fill="#ADDFC5" cx="133.563" cy="259.688" r="8.296"/><path fill="#2D667A" d="M109.82 84.727h45v85h-45z"/><path opacity=".4" fill="#050505" d="M101.82 84.727h60v9h-60z"/><path opacity=".2" fill="#050505" d="M181.142 240.872c-6.408 1.547-20.22 5.033-13.82 15.954 6.402 10.92 7.417 16.066 7.417 16.068l20.11-34.837s-1.46-.143-13.708 2.815zM87.125 240.872c6.41 1.547 20.222 5.033 13.82 15.954-6.4 10.92-7.417 16.066-7.418 16.068l-20.11-34.837s1.46-.143 13.708 2.815zM137.82 232.546a3.182 3.182 0 0 1-3.182 3.18H134a3.182 3.182 0 0 1-3.18-3.18v-28.64a3.182 3.182 0 0 1 3.18-3.18h.638a3.182 3.182 0 0 1 3.182 3.18v28.64z"/><path fill="#52BC86" d="M135.82 227.546a3.182 3.182 0 0 1-3.182 3.18H132a3.182 3.182 0 0 1-3.18-3.18v-28.64a3.182 3.182 0 0 1 3.18-3.18h.638a3.182 3.182 0 0 1 3.182 3.18v28.64z"/><ellipse fill="#52BC86" cx="132.231" cy="49.973" rx="52.946" ry="9.27"/><path fill="#2B4C5A" d="M195.82 65.727c0 11.046-8.954 20-20 20h-87c-11.046 0-20-8.954-20-20s8.954-20 20-20h87c11.046 0 20 8.954 20 20z"/><circle fill="#49A963" cx="132.231" cy="65.765" r="14.914"/><circle fill="#49A963" cx="167.322" cy="65.765" r="14.914"/><circle fill="#49A963" cx="97.14" cy="65.765" r="14.914"/><path opacity=".1" fill="#050505" d="M97.14 80.64c8.237 0 14.914-5.913 14.914-14.913H82.227c0 9 6.677 14.913 14.914 14.913zM132.23 80.64c8.237 0 14.914-5.913 14.914-14.913h-29.827c0 9 6.677 14.913 14.913 14.913zM167.32 80.64c8.238 0 14.916-5.913 14.916-14.913h-29.828c0 9 6.677 14.913 14.913 14.913z"/><circle opacity=".2" fill="#050505" cx="133.563" cy="145" r="38.534"/><g><circle fill="#49A963" cx="133.563" cy="137.366" r="38.533"/><circle fill="#2B4C5A" cx="133.563" cy="137.366" r="30.827"/><circle fill="#ADDFC5" cx="133.563" cy="137.366" r="26.274"/><path fill="#EB4444" d="M133.562 116.44c-1.557 0-3.073.178-4.534.5v20.44a4.555 4.555 0 0 0 4.545 4.55 4.556 4.556 0 0 0 4.55-4.55c0-2.4-1.88-4.377-4.244-4.535v-3.64c4.365.16 7.877 3.77 7.877 8.176 0 4.51-3.676 8.185-8.184 8.185-4.507 0-8.182-3.675-8.182-8.184V118.1c-.518.22-1.02.464-1.516.723v18.56c0 5.342 4.358 9.698 9.698 9.698 5.346 0 9.7-4.355 9.7-9.698 0-5.24-4.19-9.53-9.395-9.693v-3.64c7.204.163 13.03 6.09 13.03 13.332 0 7.347-5.99 13.338-13.336 13.338-7.343 0-13.335-5.99-13.335-13.338v-16.146c-4.64 3.838-7.597 9.64-7.597 16.13 0 11.557 9.367 20.925 20.922 20.925 11.56 0 20.925-9.367 20.925-20.923 0-11.558-9.365-20.926-20.923-20.926z"/></g><circle opacity=".2" fill="#050505" cx="123.037" cy="190.051" r="3.952"/><circle opacity=".2" fill="#050505" cx="143.396" cy="190.051" r="3.952"/><path fill="#49A963" d="M169.678 269.727h-9.283c-3.1 11-13.937 20.728-26.83 20.728s-23.733-9.728-26.834-20.728h-9.28c-3.948 0-5.63 2.07-5.63 6.02v20.692c0 3.948 1.682 7.287 5.63 7.287h72.23c3.946 0 7.142-3.338 7.142-7.288v-20.694c-.002-3.95-3.197-6.02-7.144-6.02z"/><path opacity=".1" fill="#050505" d="M169.678 299.727h-72.23c-3.947 0-5.628-2.93-5.628-6.88v3.593c0 3.95 1.68 7.288 5.63 7.288h72.228c3.947 0 7.143-3.338 7.143-7.288v-3.592c0 3.947-3.195 6.88-7.142 6.88z"/><circle fill="#F2F4F5" cx="98.019" cy="293.833" r="3.087"/><circle fill="#F2F4F5" cx="98.019" cy="274.747" r="3.087"/><circle fill="#F2F4F5" cx="170.548" cy="293.833" r="3.087"/><circle fill="#F2F4F5" cx="170.548" cy="274.747" r="3.087"/><circle fill="#52BC86" cx="173.729" cy="251.206" r="3.086"/><circle fill="#52BC86" cx="95.474" cy="251.206" r="3.086"/><path fill="#2B4C5A" d="M148.82 296.38c0 .744-.604 1.347-1.348 1.347h-26.305a1.348 1.348 0 0 1-1.348-1.347v-.307c0-.744.603-1.347 1.347-1.347h26.305c.744 0 1.348.603 1.348 1.347v.307z"/><path opacity=".15" fill="#050505" d="M159.407 108.443c-14.018 15.94-36.79 41.454-51.576 57.99 6.83 5.984 15.77 9.62 25.565 9.62 21.435 0 38.81-17.375 38.81-38.81 0-11.426-4.94-21.697-12.798-28.8zM175.736 85.727c11.145 0 20.084-9.447 20.084-20.32v-.353c0-10.872-8.94-19.327-20.084-19.327h-25.54c-12.014 12-24.73 26-36.282 40h61.822z"/><g fill="#F2F4F5"><circle cx="133.562" cy="242.125" r="2.545"/><circle cx="133.562" cy="277.753" r="2.545"/></g><g fill="#F2F4F5"><circle cx="115.75" cy="259.939" r="2.545"/><circle cx="151.378" cy="259.939" r="2.545"/></g><g fill="#F2F4F5"><circle cx="120.967" cy="272.536" r="2.544"/><circle cx="146.159" cy="247.343" r="2.545"/></g><g fill="#F2F4F5"><circle cx="146.159" cy="272.537" r="2.545"/><circle cx="120.967" cy="247.344" r="2.545"/></g><path opacity=".2" fill="#050505" d="M148.734 242.892c-8.176 9.295-21.457 24.177-30.08 33.82a22.542 22.542 0 0 0 14.91 5.61c12.5 0 22.635-10.132 22.635-22.634 0-6.663-2.882-12.653-7.466-16.796z"/><ellipse fill="#F2F2F2" cx="135.45" cy="327.073" rx="77.981" ry="8.082"/><g><path fill="#FCD22E" d="M198.842 285.88a24.59 24.59 0 0 0 12.82 13.64 24.577 24.577 0 0 0-12.82 13.638 24.564 24.564 0 0 0-12.822-13.64 24.578 24.578 0 0 0 12.822-13.637z"/><path fill="#FD7600" d="M198.842 292.648a12.4 12.4 0 0 0 6.465 6.87 12.34 12.34 0 0 0-6.465 6.87 12.344 12.344 0 0 0-6.455-6.87 12.4 12.4 0 0 0 6.455-6.87z"/><path fill="#FCD22E" d="M188.646 276.208a12.02 12.02 0 0 0 6.267 6.668 12.003 12.003 0 0 0-6.267 6.666 11.992 11.992 0 0 0-6.265-6.666c2.873-1.3 5.14-3.7 6.266-6.668z"/><path fill="#FD7600" d="M188.646 279.514a6.07 6.07 0 0 0 3.16 3.362 6.022 6.022 0 0 0-3.16 3.357 6.01 6.01 0 0 0-3.153-3.357 6.065 6.065 0 0 0 3.153-3.362z"/><g><path fill="#FCD22E" d="M210.436 272.337a17.333 17.333 0 0 0 9.043 9.62 17.33 17.33 0 0 0-9.044 9.625 17.33 17.33 0 0 0-9.047-9.624 17.333 17.333 0 0 0 9.046-9.62z"/><path fill="#FD7600" d="M210.436 277.113a8.748 8.748 0 0 0 4.56 4.845 8.72 8.72 0 0 0-4.56 4.846 8.71 8.71 0 0 0-4.557-4.846 8.748 8.748 0 0 0 4.556-4.845z"/></g></g><g><path fill="#FCD22E" d="M69.59 285.98a24.586 24.586 0 0 1-12.818 13.638 24.572 24.572 0 0 1 12.82 13.64 24.57 24.57 0 0 1 12.822-13.64A24.573 24.573 0 0 1 69.59 285.98z"/><path fill="#FD7600" d="M69.59 292.748a12.4 12.4 0 0 1-6.463 6.87 12.34 12.34 0 0 1 6.464 6.87 12.35 12.35 0 0 1 6.457-6.87 12.407 12.407 0 0 1-6.456-6.87z"/><path fill="#FCD22E" d="M79.788 276.307a12.02 12.02 0 0 1-6.267 6.668 12.003 12.003 0 0 1 6.268 6.666 11.992 11.992 0 0 1 6.265-6.665c-2.872-1.3-5.14-3.7-6.265-6.668z"/><path fill="#FD7600" d="M79.788 279.614a6.065 6.065 0 0 1-3.16 3.362 6.022 6.022 0 0 1 3.16 3.357 6.01 6.01 0 0 1 3.153-3.357 6.065 6.065 0 0 1-3.152-3.362z"/><g><path fill="#FCD22E" d="M57.998 272.437a17.333 17.333 0 0 1-9.043 9.62 17.33 17.33 0 0 1 9.043 9.625 17.33 17.33 0 0 1 9.047-9.624 17.333 17.333 0 0 1-9.047-9.62z"/><path fill="#FD7600" d="M57.998 277.212a8.748 8.748 0 0 1-4.56 4.845 8.72 8.72 0 0 1 4.56 4.846 8.71 8.71 0 0 1 4.557-4.846 8.742 8.742 0 0 1-4.557-4.845z"/></g></g></svg>