<svg xmlns="http://www.w3.org/2000/svg" width="343.081" height="204.852" viewBox="-1.524 -1.51 343.081 204.852"><path fill="#1D1D1B" d="M-1.524 171.688h6.062v30.52h10.248v-39.634h-16.31v9.114zm23.234 10.698c0 12.688 8.492 20.954 20.268 20.954 3.4 0 7.138-.513 10.704-2.945v-11.272c-2.044 2.1-5.27 4.31-9.4 4.31-6.345 0-10.136-4.7-10.136-10.706 0-6.508 4.02-11.377 10.135-11.377 4.245 0 7.358 2.38 9.402 4.76v-11.496c-3.35-2.264-7.364-3.173-10.874-3.173-10.758 0-20.098 7.7-20.098 20.946zm79.04-4.358h-5.833v-5.946h18.173v-9.508H83.82l-.002 39.633h16.934c2.883 0 15.565.112 15.565-12.286 0-11.944-12.568-11.892-15.566-11.892zm-1.08 16.25h-4.753v-8.323h4.754c3.513 0 5.552 1.02 5.552 4.136 0 3.168-2.096 4.187-5.55 4.187zm33.064-7.924v-23.78h-10.7v39.633h10.876l15.338-23.783v23.783h10.703v-39.633h-10.868l-15.348 23.78zm30.748-14.27h8.714v30.124H183.3v-30.125h8.715v-9.508h-28.53l-.003 9.508zm49.76-9.51h-16.698v39.633h11.104v-13.084h5.597c11.215 0 14.44-7.808 14.44-13.3 0-5.44-3.17-13.25-14.442-13.25zm-2.43 17.832h-3.164v-9.112h3.164c4.758 0 5.435 2.547 5.435 4.528-.002 1.7-.51 4.584-5.435 4.584zm32.156 5.948v-23.78h-10.7v39.633h10.87l15.346-23.783v23.783h10.7v-39.633h-10.872l-15.344 23.78zm68.836-23.78H298.78l-11.947 16.646v-16.646h-11.098l.007 39.633h11.09v-17.045l11.49 17.045h13.88l-15.46-20.44 15.062-19.193zm20.347 8.775c4.255 0 7.368 2.38 9.407 4.76v-11.497c-3.342-2.264-7.37-3.173-10.87-3.173-10.756 0-20.1 7.7-20.1 20.947 0 12.688 8.493 20.954 20.27 20.954 3.394 0 7.13-.512 10.7-2.944v-11.273c-2.04 2.1-5.264 4.312-9.406 4.312-6.335 0-10.13-4.702-10.13-10.707 0-6.51 4.02-11.38 10.13-11.38zm-264 4.758a6.488 6.488 0 0 0-6.488 6.482 6.49 6.49 0 0 0 12.977 0c0-3.576-2.906-6.482-6.49-6.482z"/><path fill="#D20033" d="M176.848-1.51c-4.92 0-9.706.555-14.317 1.575V64.61c0 7.91 6.446 14.36 14.355 14.36 7.908 0 14.356-6.45 14.356-14.36 0-7.584-5.937-13.826-13.4-14.322v-11.5c13.79.507 24.885 11.91 24.885 25.82 0 14.236-11.608 25.846-25.84 25.846-14.238 0-25.842-11.61-25.842-25.845V3.723a64.102 64.102 0 0 0-4.79 2.28V64.61c.002 16.873 13.766 30.63 30.632 30.63 16.87 0 30.63-13.757 30.63-30.63 0-16.545-13.242-30.098-29.676-30.61V22.51c22.758.514 41.156 19.225 41.156 42.1 0 23.2-18.917 42.116-42.11 42.116-23.198 0-42.118-18.917-42.118-42.117V13.625c-14.65 12.118-23.986 30.438-23.986 50.938 0 36.49 29.578 66.07 66.066 66.07 36.495 0 66.07-29.58 66.07-66.07S213.344-1.51 176.85-1.51z"/></svg>