<svg xmlns="http://www.w3.org/2000/svg" width="59.213" height="52.107" viewBox="0 0 59.213 52.107"><circle fill="#EFEBDE" cx="26.054" cy="26.054" r="26.054"/><path fill="#004A54" d="M47.19 21.693l-2.468-.194a19.114 19.114 0 0 0-1.936-4.682l1.61-1.872c.56-.563.667-1.37.237-1.8l-5.23-5.23c-.43-.43-1.236-.325-1.8.238l-1.88 1.604a19.218 19.218 0 0 0-4.675-1.933l-.192-2.465c0-.797-.494-1.44-1.104-1.44h-7.396c-.61 0-1.104.644-1.104 1.44l-.2 2.468a19.155 19.155 0 0 0-4.67 1.934l-1.878-1.607c-.562-.563-1.368-.668-1.798-.238l-5.23 5.23c-.432.43-.325 1.236.238 1.8l1.603 1.883a19.24 19.24 0 0 0-1.93 4.672l-2.47.192c-.794 0-1.438.493-1.438 1.104v7.396c0 .61.643 1.104 1.438 1.104l2.47.197a19.193 19.193 0 0 0 1.933 4.672l-1.605 1.877c-.563.563-.67 1.368-.238 1.8l5.23 5.23c.43.43 1.236.324 1.798-.238l1.886-1.603a19.2 19.2 0 0 0 4.675 1.93l.188 2.468c0 .797.496 1.44 1.104 1.44h7.396c.61 0 1.104-.644 1.104-1.44l.194-2.468a19.153 19.153 0 0 0 4.68-1.936l1.876 1.61c.562.56 1.368.667 1.8.238l5.23-5.23c.43-.433.323-1.237-.24-1.8l-1.604-1.88c.84-1.45 1.49-3.02 1.934-4.68l2.467-.188c.795 0 1.44-.495 1.44-1.104v-7.396c-.002-.61-.647-1.103-1.442-1.103z"/><circle fill="#EFEBDE" cx="26.055" cy="26.054" r="7.642"/><circle fill="#FF5046" cx="26.055" cy="26.054" r="4.275"/><path opacity=".3" d="M26.054 0c-.08 0-.16.004-.238.006v52.097c.08 0 .158.005.238.005 14.39 0 26.055-11.665 26.055-26.054S40.442 0 26.053 0z"/><g fill="#FF5046"><path d="M58.82 24.65L49.542 8.274h-.022a2.217 2.217 0 0 0-3.963.04h-.005L36.09 24.59c-.256.362-.41.803-.41 1.278a2.234 2.234 0 0 0 2.23 2.238l19.065.04a2.234 2.234 0 0 0 2.238-2.23c0-.47-.145-.905-.393-1.265z"/><path d="M42.34 16.54a23.933 23.933 0 0 1 1.23 7.6c0 13.25-10.74 23.993-23.992 23.993-3.87 0-7.52-.92-10.758-2.548a25.952 25.952 0 0 0 17.234 6.522c14.39 0 26.055-11.665 26.055-26.054A25.93 25.93 0 0 0 48.714 13.2l-6.376 3.34z"/></g></svg>