<svg xmlns="http://www.w3.org/2000/svg" width="480" height="144" viewBox="0 0 480 144"><path fill="#AFE3EF" d="M0 0h480v144H0z"/><path fill="#FFE4C0" d="M396.084 144c.13-.395.22-.81.22-1.248V3.742A3.98 3.98 0 0 0 393.666 0h-35.385L221.515 1.016c-2.203 0-1.45.52-2.72 2.727l-1.374 11.24-1.167 127.77c.253.438.532.854.825 1.248h179.006z"/><path fill="#444" d="M393.667 0H220.16a3.985 3.985 0 0 0-2.636 3.742v11.98h178.78V3.742c0-1.726-1.1-3.185-2.637-3.742z"/><circle fill="#2CB740" cx="226.25" cy="7.947" r="3.161"/><path fill="#F16442" d="M239.043 7.947a3.16 3.16 0 0 1-6.32 0 3.16 3.16 0 1 1 6.32 0z"/><path fill="#FFF" d="M389.708 7.758a3.16 3.16 0 0 1-3.16 3.16H244.19a3.166 3.166 0 0 1-3.16-3.16 3.165 3.165 0 0 1 3.16-3.162h142.358a3.16 3.16 0 0 1 3.16 3.162z"/><path opacity=".2" fill="#444" d="M251.096 23.816c0 1.13.92 2.047 2.048 2.047h136.213a2.043 2.043 0 0 0 2.045-2.047 2.04 2.04 0 0 0-2.045-2.045H253.144c-1.13 0-2.048.916-2.048 2.046zM246.628 23.816a2.98 2.98 0 0 1-2.98 2.98h-18.232a2.98 2.98 0 0 1-2.977-2.98 2.974 2.974 0 0 1 2.976-2.975h18.233a2.977 2.977 0 0 1 2.978 2.976z"/><g opacity=".2" fill="#444"><path d="M384.224 38.018c0 .94-.81 1.71-1.8 1.71h-124.21c-.992 0-1.8-.77-1.8-1.71 0-.947.808-1.715 1.8-1.715h124.21c.99 0 1.8.767 1.8 1.715zM384.224 45.664c0 .947-.81 1.713-1.8 1.713h-124.21c-.992 0-1.8-.766-1.8-1.713 0-.947.808-1.71 1.8-1.71h124.21c.99 0 1.8.763 1.8 1.71zM384.224 53.213c0 .945-.81 1.71-1.8 1.71h-124.21c-.992 0-1.8-.765-1.8-1.71s.808-1.71 1.8-1.71h124.21c.99 0 1.8.765 1.8 1.71zM384.224 60.75c0 .947-.81 1.715-1.8 1.715h-124.21c-.992 0-1.8-.768-1.8-1.715 0-.945.808-1.71 1.8-1.71h124.21c.99 0 1.8.765 1.8 1.71z"/></g><g opacity=".2" fill="#444"><path d="M385.122 71.645c0 .945-.807 1.71-1.8 1.71h-158.43c-.995 0-1.803-.765-1.803-1.71 0-.947.807-1.715 1.802-1.715h158.43c.993 0 1.8.767 1.8 1.715zM385.122 79.293c0 .95-.807 1.71-1.8 1.71h-158.43c-.995 0-1.803-.76-1.803-1.71 0-.947.807-1.71 1.802-1.71h158.43c.993 0 1.8.763 1.8 1.71zM385.122 86.838c0 .947-.807 1.71-1.8 1.71h-158.43c-.995 0-1.803-.763-1.803-1.71 0-.94.807-1.707 1.802-1.707h158.43c.993 0 1.8.766 1.8 1.708zM385.122 94.377c0 .947-.807 1.715-1.8 1.715h-158.43c-.995 0-1.803-.768-1.803-1.715 0-.943.807-1.71 1.802-1.71h158.43c.993 0 1.8.767 1.8 1.71z"/></g><path opacity=".2" fill="#444" d="M385.122 101.787c0 .943-.807 1.71-1.8 1.71h-158.43c-.995 0-1.803-.767-1.803-1.71 0-.95.807-1.715 1.802-1.715h158.43c.993 0 1.8.766 1.8 1.715zM385.122 109.434c0 .947-.807 1.715-1.8 1.715h-158.43c-.995 0-1.803-.77-1.803-1.716 0-.947.807-1.71 1.802-1.71h158.43c.993 0 1.8.762 1.8 1.71zM385.122 116.98c0 .947-.807 1.71-1.8 1.71h-158.43c-.995 0-1.803-.763-1.803-1.71 0-.943.807-1.707 1.802-1.707h158.43c.993 0 1.8.764 1.8 1.707zM385.122 124.52c0 .947-.807 1.71-1.8 1.71h-158.43c-.995 0-1.803-.763-1.803-1.71 0-.945.807-1.71 1.802-1.71h158.43c.993 0 1.8.764 1.8 1.71zM385.122 132.23c0 .944-.807 1.71-1.8 1.71h-158.43c-.995 0-1.803-.766-1.803-1.71 0-.946.807-1.712 1.802-1.712h158.43c.993 0 1.8.765 1.8 1.71zM385.122 139.773c0 .947-.807 1.71-1.8 1.71h-158.43c-.995 0-1.803-.763-1.803-1.71 0-.943.807-1.71 1.802-1.71h158.43c.993 0 1.8.767 1.8 1.71z"/><path fill="#FCD22E" d="M248.7 30.55c-.037 0-.065.022-.065.044 0 .025.028.047.064.047.036 0 .064-.02.064-.046 0-.022-.028-.043-.065-.043z"/><path opacity=".2" fill="#444" d="M250.742 61.62c0 1.087-.88 1.968-1.966 1.968h-23.72a1.967 1.967 0 0 1-1.967-1.967V38.2c0-1.087.88-1.966 1.965-1.966h23.72c1.088 0 1.967.88 1.967 1.965v23.42z"/><path fill="#EDEDED" d="M243.367 0H72.715a3.92 3.92 0 0 0-2.353 3.592V139.94a3.917 3.917 0 0 0 3.914 3.918h167.528a3.917 3.917 0 0 0 3.915-3.918V3.592A3.92 3.92 0 0 0 243.366 0z"/><path fill="#444" d="M243.367 0H72.715a3.92 3.92 0 0 0-2.353 3.592V15.34H245.72V3.592A3.92 3.92 0 0 0 243.366 0z"/><path fill="#2CB740" d="M82.02 7.715a3.102 3.102 0 0 1-6.202 0c0-1.71 1.39-3.098 3.104-3.098a3.1 3.1 0 0 1 3.098 3.098z"/><path fill="#F16442" d="M91.47 7.715c0 1.713-1.392 3.1-3.106 3.1a3.098 3.098 0 0 1 0-6.198 3.103 3.103 0 0 1 3.105 3.098z"/><path fill="#FFF" d="M239.252 7.53c0 1.71-1.39 3.1-3.1 3.1H96.515c-1.7 0-3.1-1.39-3.1-3.1a3.107 3.107 0 0 1 3.1-3.103h139.636c1.71 0 3.1 1.39 3.1 3.104z"/><path fill="#00A9D0" d="M70.362 15.135H245.72v47.592H70.36z"/><ellipse fill="#FCD22E" cx="100.941" cy="29.93" rx=".064" ry=".043"/><g opacity=".3" fill="#444"><path d="M84.747 67.443h34.236v34.236H84.747zM122.366 67.443h34.237v34.236h-34.237zM159.48 67.443h34.237v34.236H159.48zM197.098 67.443h34.237v34.236h-34.237z"/><g><path d="M84.747 104.395h34.236v34.238H84.747zM122.366 104.395h34.237v34.238h-34.237zM159.48 104.395h34.237v34.238H159.48zM197.098 104.395h34.237v34.238h-34.237z"/></g></g><path opacity=".4" fill="#444" d="M80.848 107.76l-4.43-5.117 4.43-5.116zM234.75 97.525l4.428 5.118-4.428 5.117z"/><circle opacity=".3" fill="#FFF" cx="98.69" cy="38.928" r="12.883"/><g opacity=".3" fill="#FFF"><path d="M231.246 26.074c0 1.064-.915 1.932-2.037 1.932H122.5c-1.124 0-2.038-.867-2.038-1.932 0-1.074.914-1.943 2.038-1.943h106.71c1.12 0 2.036.87 2.036 1.944zM231.246 34.723c0 1.07-.915 1.938-2.037 1.938H122.5c-1.124 0-2.038-.866-2.038-1.937 0-1.072.914-1.934 2.038-1.934h106.71c1.12 0 2.036.86 2.036 1.933zM231.246 43.258c0 1.072-.915 1.936-2.037 1.936H122.5c-1.124 0-2.038-.863-2.038-1.936 0-1.064.914-1.932 2.038-1.932h106.71c1.12 0 2.036.867 2.036 1.932zM231.246 51.787c0 1.072-.915 1.938-2.037 1.938H122.5c-1.124 0-2.038-.865-2.038-1.938 0-1.066.914-1.936 2.038-1.936h106.71c1.12.002 2.036.87 2.036 1.937z"/></g><path opacity=".3" fill="#444" d="M101.867 72.512l3.913 7.93 8.756 1.27-6.335 6.177 1.495 8.72-7.828-4.12-7.832 4.12 1.495-8.72-6.334-6.177 8.754-1.27zM139.218 72.512l3.915 7.93 8.755 1.27-6.334 6.177 1.494 8.72-7.83-4.12-7.83 4.12 1.495-8.72-6.333-6.177 8.753-1.27zM175.85 72.512l3.914 7.93 8.755 1.27-6.335 6.177 1.494 8.72-7.83-4.12-7.83 4.12 1.494-8.72-6.335-6.177 8.754-1.27zM214.216 72.512l3.915 7.93 8.756 1.27-6.335 6.177 1.496 8.72-7.83-4.12-7.83 4.12 1.496-8.72-6.337-6.177 8.756-1.27zM101.867 109.463l3.913 7.932 8.756 1.273-6.335 6.174 1.495 8.72-7.828-4.115-7.832 4.115 1.495-8.72-6.334-6.174 8.754-1.273zM139.218 109.463l3.915 7.932 8.755 1.273-6.334 6.174 1.494 8.72-7.83-4.115-7.83 4.115 1.495-8.72-6.333-6.174 8.753-1.273zM175.85 109.463l3.914 7.932 8.755 1.273-6.335 6.174 1.494 8.72-7.83-4.115-7.83 4.115 1.494-8.72-6.335-6.174 8.754-1.273zM214.216 109.463l3.915 7.932 8.756 1.273-6.335 6.174 1.496 8.72-7.83-4.115-7.83 4.115 1.496-8.72-6.337-6.174 8.756-1.273z"/><path opacity=".15" d="M128.99 140.33l-.018.04c.007-.013.02-.013.02-.022.013.078.11-.037.145-.178 19.012-23.22 25.442-33.613 24.54-43.29.02 0 .04 0 .06-.003.084-.002.166-.004.242-.008a2.97 2.97 0 0 0 .204-.02c.072-.01.143-.017.205-.028.087-.014.167-.033.237-.055.032-.01.06-.02.087-.033.054-.02.1-.045.14-.072.02-.012.038-.023.053-.037a.32.32 0 0 0 .1-.14.325.325 0 0 0-.007-.2l-.522-9.186a15.56 15.56 0 0 0 1.83-.774l.003.1s.554-.305 1.293-.79v41.847a3.495 3.495 0 0 0 3.496 3.496h.777v7.796h-.39v3.496h.39V144h143.358v-13.02h.774a3.496 3.496 0 0 0 3.497-3.497V86.02c.412.255.685.405.685.405l.02-.564c.858.497 1.76.913 2.697 1.24l-.523 9.185a.34.34 0 0 0-.008.2.32.32 0 0 0 .1.14c.015.014.034.025.053.037.04.027.086.05.14.072a.878.878 0 0 0 .087.033 2.274 2.274 0 0 0 .443.082c.065.008.132.016.205.02l.24.007.063.004c-.902 9.677 5.528 20.07 24.54 43.29.035.14.132.256.144.178 0 .01.014.01.02.02l-.016-.038c2.994-29.96 2.583-42.146-3.584-49.7.108-.07.215-.14.307-.206l.005-.004c.498-.365.746-.676.678-.904a.322.322 0 0 0-.114-.154l-5.463-7.414a15.585 15.585 0 0 0 2.256-4.06c.002-.01.006-.015.01-.022-.002 0-.002.002-.003.002a15.4 15.4 0 0 0 .34-9.805c-2.25-7.566-13.22-17.19-21.345-16.715v-.025l-.313.043c-.287.025-.57.064-.85.117l-.812.11v-23a3.497 3.497 0 0 0-3.498-3.495h-.774V5.105a3.496 3.496 0 0 0-3.497-3.498H165.37a3.495 3.495 0 0 0-3.495 3.498v19.992h-.777a3.496 3.496 0 0 0-3.496 3.496V51.61a9.215 9.215 0 0 0-2.506-.278l-.077-.01v.012c-8.017.227-18.292 9.434-20.462 16.73a15.4 15.4 0 0 0 .34 9.804v-.002c.002.008.006.014.008.02a15.6 15.6 0 0 0 2.256 4.062l-5.462 7.414a.314.314 0 0 0-.114.154c-.068.23.18.54.678.904 0 .002.003.002.004.004.092.066.198.137.307.207-6.17 7.554-6.58 19.74-3.586 49.7z"/><g><path fill="#E6560E" d="M334.243 135.87c-24.12-29.462-28-38.272-22.328-51.173l6.35-2.05.06.183 6.342-1.768c11.86 7.61 13.51 17.084 9.725 54.967l.017.04c-.008-.012-.02-.012-.022-.023-.013.08-.11-.037-.145-.178z"/><path fill="#FFD040" d="M313.736 81.9l3.91-1.264.034.127 3.9-1.096c7.287 4.686 13.35 19.19 8.268 39.023-17.79-14.856-19.592-28.85-16.112-36.79z"/><path opacity=".6" fill="#FFF" d="M316.07 83.38l2.175-.708.02.06 2.172-.606c4.053 2.615 7.773 17.44 5.828 25.58-.006.024-11.5-8.144-10.194-24.327z"/></g><g><path fill="#EDEDED" d="M298.137 72.598c2.44 8.2 11.063 12.87 19.263 10.428 8.2-2.44 12.866-11.062 10.427-19.262s-15.12-18.826-23.32-16.387c-8.2 2.44-8.81 17.02-6.37 25.22z"/><path opacity=".05" fill="#0A0A0A" d="M303.017 56.324a15.406 15.406 0 0 0-.34 9.807c2.438 8.196 11.062 12.868 19.263 10.43a15.457 15.457 0 0 0 5.548-2.993c-1.643 4.402-5.24 8.016-10.088 9.46-8.2 2.44-16.823-2.23-19.263-10.43-1.814-6.095.306-12.423 4.88-16.273z"/><ellipse transform="rotate(-150.592 312.693 54.924)" opacity=".5" fill="#FFF" cx="312.677" cy="54.92" rx="6.066" ry="4.172"/><g fill="#878787"><path d="M307.92 82.596c.28.945 4.354.568 9.1-.844 4.745-1.41 8.364-3.322 8.082-4.27-.282-.95-4.356-.568-9.1.842-4.747 1.414-8.365 3.324-8.083 4.272z"/><path d="M307.385 91.984l.534-9.39 17.182-5.112 5.697 7.732-1.01-.387c.582.043.943.164 1.01.387.28.945-4.734 3.273-11.203 5.197-6.47 1.927-11.94 2.718-12.22 1.774a.345.345 0 0 1 .008-.2z"/></g><path opacity=".2" fill="#FFF" d="M330.122 86.12c-1.194.878-3.866 2.075-7.26 3.245-1.387-4.29-2.59-9.97-3-11.994 1.498-.288 2.784-.43 3.712-.403l6.548 9.154z"/><path opacity=".2" fill="#0A0A0A" d="M307.385 91.984l.534-9.39c-.087-.284.188-.66.742-1.083l.952 11.038c-1.317.096-2.135-.016-2.237-.363a.348.348 0 0 1 .008-.2z"/></g><g><path fill="#E6560E" d="M124.136 135.87c24.12-29.462 28-38.272 22.328-51.173l-6.35-2.05-.06.183-6.342-1.768c-11.86 7.61-13.51 17.084-9.725 54.967l-.017.04c.007-.012.02-.012.02-.023.014.08.11-.037.146-.178z"/><path fill="#FFD040" d="M144.643 81.9l-3.91-1.264-.034.127-3.902-1.096c-7.286 4.686-13.348 19.19-8.267 39.023 17.79-14.856 19.593-28.85 16.113-36.79z"/><path opacity=".6" fill="#FFF" d="M142.308 83.38l-2.174-.708-.02.06-2.172-.606c-4.053 2.615-7.773 17.44-5.828 25.58.006.024 11.5-8.144 10.194-24.327z"/></g><g><path fill="#EDEDED" d="M159.247 72.598c-2.44 8.2-11.063 12.87-19.263 10.428-8.2-2.44-12.866-11.062-10.427-19.262s15.12-18.826 23.32-16.387c8.2 2.44 8.81 17.02 6.37 25.22z"/><path opacity=".05" fill="#0A0A0A" d="M154.367 56.324a15.406 15.406 0 0 1 .34 9.807C152.27 74.327 143.646 79 135.445 76.56a15.457 15.457 0 0 1-5.548-2.993c1.643 4.402 5.24 8.016 10.088 9.46 8.2 2.44 16.823-2.23 19.263-10.43 1.814-6.095-.306-12.423-4.88-16.273z"/><ellipse transform="rotate(-29.408 144.717 54.923)" opacity=".5" fill="#FFF" cx="144.707" cy="54.92" rx="6.066" ry="4.172"/><g fill="#878787"><path d="M149.464 82.596c-.28.945-4.355.568-9.102-.844-4.744-1.41-8.363-3.322-8.08-4.27.28-.95 4.355-.568 9.1.842 4.746 1.414 8.365 3.324 8.082 4.272z"/><path d="M150 91.984l-.535-9.39-17.183-5.112-5.697 7.732 1.008-.387c-.58.043-.942.164-1.008.387-.28.945 4.733 3.273 11.202 5.197 6.47 1.927 11.94 2.718 12.22 1.774a.345.345 0 0 0-.008-.2z"/></g><path opacity=".2" fill="#FFF" d="M127.262 86.12c1.194.878 3.866 2.075 7.26 3.245 1.387-4.29 2.59-9.97 3-11.994-1.498-.288-2.784-.43-3.712-.403l-6.548 9.154z"/><path opacity=".2" fill="#0A0A0A" d="M150 91.984l-.535-9.39c.086-.284-.19-.66-.743-1.083l-.952 11.038c1.317.096 2.135-.016 2.237-.363a.348.348 0 0 0-.008-.2z"/></g><path opacity=".2" d="M152.6 47.377l-2.582-.355 1.29 35.104s1.618-.88 3.056-2.086-1.396-33.018-1.396-33.018M303.9 47.377l2.582-.355-1.29 35.104s-1.618-.88-3.056-2.086 1.396-33.018 1.396-33.018"/><g><g fill="#878787"><path d="M169.695 123.184a3.494 3.494 0 0 1-3.496 3.496h-10.103a3.495 3.495 0 0 1-3.496-3.496v-98.89a3.496 3.496 0 0 1 3.497-3.495H166.2a3.496 3.496 0 0 1 3.495 3.495v98.89zM304.506 123.184a3.496 3.496 0 0 1-3.498 3.496h-10.1a3.494 3.494 0 0 1-3.496-3.496v-98.89a3.496 3.496 0 0 1 3.496-3.495h10.1a3.497 3.497 0 0 1 3.498 3.495v98.89z"/></g><path fill="#EDEDED" d="M156.977 0c-.062.26-.102.527-.102.805v90.87c0 6.226 5.22 10.106 11.656 10.106h120.047c6.438 0 11.654-3.88 11.654-10.104V.806c0-.278-.04-.546-.102-.806h-143.15z"/><path fill="#EDEDED" d="M300.234 144V.805c0-.277-.04-.545-.102-.805H156.978c-.062.26-.102.527-.102.805V144h143.358z"/><path opacity=".1" d="M298.255 0H158.85a3.485 3.485 0 0 0-1.976 3.135v90.87c0 6.226 5.22 10.106 11.656 10.106h120.046c6.438 0 11.654-3.88 11.654-10.104V3.136c0-1.384-.81-2.57-1.975-3.136z"/><path fill="#F6F6F6" d="M156.977 0c-.062.26-.102.527-.102.805v90.87c0 6.226 5.22 10.106 11.656 10.106h120.047c6.438 0 11.654-3.88 11.654-10.104V.806c0-.278-.04-.546-.102-.806h-143.15z"/><path opacity=".03" d="M293.432 0l-124.9 101.78h120.045c6.438 0 11.654-3.88 11.654-10.104V.806c0-.278-.04-.546-.102-.806h-6.696z"/><circle fill="#878787" cx="228.555" cy="101.953" r="20.786"/><path fill="#878787" d="M208.317 102.28h-41.145c-6.544 0-11.867-5.32-11.867-11.864h1c0 5.99 4.875 10.865 10.867 10.865h41.145v1zM289.516 102.285H248.37v-1h41.146c5.99 0 10.865-4.875 10.865-10.867h1c0 6.543-5.32 11.867-11.864 11.867z"/><circle fill="#50CEFF" cx="228.554" cy="101.953" r="18.649"/><circle fill="#EDEDED" cx="228.555" cy="101.953" r="16.317"/><path fill="#50CEFF" d="M156.487 134.475h143.747v3.498H156.487z"/><path opacity=".2" d="M156.487 134.475h143.747v.78H156.487z"/><path opacity=".05" d="M166.976 144V0h-10c-.06.26-.1.527-.1.805V144h10.1zM300.234 144V.805c0-.277-.04-.545-.102-.805h-10v144h10.102z"/><path d="M259.715 49.53a6.796 6.796 0 0 1-6.797 6.796h-40c-6.93 0-12.548-5.615-12.548-12.547 0-6.93 5.618-12.546 12.55-12.546.717 0 1.412.064 2.098.178 2.835-4.287 7.697-7.117 13.22-7.117 7.128 0 13.155 4.713 15.14 11.186.3-.024.6-.04.903-.04 4.72 0 8.704 3.13 10.002 7.43a6.798 6.798 0 0 1 5.433 6.66z" opacity=".2"/><path fill="#FFF" d="M259.715 51.072a6.796 6.796 0 0 1-6.797 6.795h-40c-6.93 0-12.548-5.613-12.548-12.545 0-6.93 5.618-12.545 12.55-12.545.717 0 1.412.062 2.098.178 2.835-4.287 7.697-7.117 13.22-7.117 7.128 0 13.155 4.71 15.14 11.186.3-.025.6-.043.903-.043 4.72 0 8.704 3.134 10.002 7.433a6.795 6.795 0 0 1 5.433 6.66z" opacity=".6"/><path fill="#DADADA" d="M259.715 50.373c0 3.758-3.046 6.8-6.797 6.8h-40c-6.93 0-12.548-5.618-12.548-12.548s5.618-12.545 12.55-12.545c.717 0 1.412.062 2.098.178 2.835-4.287 7.697-7.12 13.22-7.12 7.128 0 13.155 4.714 15.14 11.19.3-.028.6-.044.903-.044 4.72 0 8.704 3.133 10.002 7.43a6.796 6.796 0 0 1 5.433 6.66z"/><g fill="#3DC2EA"><path d="M228.553 112.248c-5.167 0-9.372-4.203-9.372-9.373 0-2.414.92-4.713 2.596-6.465a1.437 1.437 0 0 1 2.08 1.984 6.476 6.476 0 0 0-1.8 4.48 6.505 6.505 0 0 0 6.497 6.498c3.585 0 6.5-2.914 6.5-6.498 0-1.67-.638-3.264-1.802-4.48a1.437 1.437 0 0 1 2.08-1.984 9.328 9.328 0 0 1 2.596 6.465c0 5.17-4.204 9.373-9.373 9.373z"/><path d="M230.036 102.625c0 .816-.665 1.482-1.482 1.482-.818 0-1.48-.666-1.48-1.482V93.14c0-.82.662-1.485 1.48-1.485.817 0 1.482.666 1.482 1.484v9.485z"/></g><path opacity=".05" d="M217.016 113.49c6.373 6.373 16.703 6.373 23.076 0 6.372-6.37 6.372-16.703 0-23.074l-23.076 23.074z"/><path d="M241.767 40.25a7.265 7.265 0 0 0-9.946-.307l-.01-.012-8.636 8.513-.006-.006a4.066 4.066 0 0 1-5.568-.172 4.072 4.072 0 0 1 0-5.754 4.07 4.07 0 0 1 5.568-.17l.006-.007 2.366 2.402 2.34-2.186-2.585-2.62-.01.012a7.265 7.265 0 0 0-9.948.307 7.266 7.266 0 0 0 9.947 10.586l.01.01 8.638-8.513.006.006a4.07 4.07 0 1 1 0 6.098l-.006.005-2.43-2.424-2.29 2.237 2.6 2.588.01-.01a7.264 7.264 0 0 0 9.945-.307 7.27 7.27 0 0 0 0-10.278z" opacity=".3"/><g fill="#878787"><path d="M175.135 0v7.71a1.107 1.107 0 0 0 2.213 0V0h-2.213zM179.564 0v7.71c0 .614.496 1.11 1.104 1.11.612 0 1.108-.496 1.108-1.11V0h-2.212zM183.99 0v7.71a1.107 1.107 0 0 0 2.215 0V0h-2.214z"/></g><g fill="#878787"><path d="M271.758 0v7.71c0 .614.498 1.11 1.107 1.11a1.11 1.11 0 0 0 1.107-1.11V0h-2.214zM276.186 0v7.71c0 .614.498 1.11 1.106 1.11.61 0 1.11-.496 1.11-1.11V0h-2.216zM280.615 0v7.71a1.107 1.107 0 0 0 2.213 0V0h-2.213z"/></g><path opacity=".15" d="M201.606 0v.26a4.92 4.92 0 0 0 4.92 4.92h44.055A4.92 4.92 0 0 0 255.5.26V0h-53.894z"/></g><g opacity=".1"><path fill="#0A0A0A" d="M480 116.525c-2.754-9.447-11.477-16.354-21.815-16.354-1.294 0-2.557.116-3.796.323-5.138-7.764-13.94-12.885-23.94-12.885-12.91 0-23.82 8.53-27.416 20.252a19.63 19.63 0 0 0-1.63-.074c-8.545 0-15.764 5.668-18.11 13.45-5.612 1.14-9.84 6.11-9.84 12.062 0 4.592 2.516 8.586 6.238 10.7h86.89A22.777 22.777 0 0 0 480 129.223v-12.697z"/></g><g><path fill="#F6F6F6" d="M480 105.957a22.646 22.646 0 0 0-15.815-6.412c-1.294 0-2.557.115-3.796.322-5.138-7.764-13.94-12.885-23.94-12.885-12.91 0-23.82 8.53-27.416 20.252a19.63 19.63 0 0 0-1.63-.074c-8.545 0-15.764 5.668-18.11 13.45-5.612 1.14-9.84 6.11-9.84 12.062 0 5.09 3.087 9.453 7.486 11.328h83.86a22.72 22.72 0 0 0 9.2-5.428v-32.615z"/></g><g opacity=".1"><path fill="#0A0A0A" d="M74.79 22.02c-2.346-7.78-9.565-13.45-18.11-13.45-.545 0-1.09.03-1.63.076A28.54 28.54 0 0 0 50.653 0H4.598c-.31.418-.615.844-.903 1.28A23.115 23.115 0 0 0 0 .96v45.433h72.324c6.794 0 12.307-5.506 12.307-12.31 0-5.95-4.227-10.92-9.84-12.062z"/></g><g><path fill="#F6F6F6" d="M69.79 18.02c-2.346-7.78-9.565-13.45-18.11-13.45-.545 0-1.09.03-1.63.076A28.423 28.423 0 0 0 48.146 0H0v42.393h67.324c6.794 0 12.307-5.506 12.307-12.31 0-5.95-4.227-10.92-9.84-12.062z"/></g><g opacity=".1"><path fill="#0A0A0A" d="M96.12 129.926a5.984 5.984 0 0 1-5.983 5.984H54.915c-6.103 0-11.052-4.947-11.052-11.047 0-6.104 4.95-11.05 11.052-11.05.63 0 1.243.058 1.846.157 2.5-3.775 6.78-6.266 11.643-6.266 6.278 0 11.584 4.148 13.334 9.85.262-.02.527-.037.792-.037 4.154 0 7.665 2.758 8.807 6.54a5.99 5.99 0 0 1 4.784 5.87z"/></g><g><path fill="#F6F6F6" d="M91.12 130.926a5.984 5.984 0 0 1-5.983 5.984H49.915c-6.103 0-11.052-4.947-11.052-11.047 0-6.104 4.95-11.05 11.052-11.05.63 0 1.243.058 1.846.157 2.5-3.775 6.78-6.266 11.643-6.266 6.278 0 11.584 4.148 13.334 9.85.262-.02.527-.037.792-.037 4.154 0 7.665 2.758 8.806 6.54a5.992 5.992 0 0 1 4.785 5.87z"/></g><g><path fill="#F6F6F6" d="M480 43.78a11.8 11.8 0 0 0-3.758-.618c-.675 0-1.332.06-1.978.168-2.677-4.045-7.262-6.713-12.472-6.713-6.727 0-12.41 4.44-14.284 10.55-.28-.022-.565-.038-.85-.038-4.452 0-8.214 2.952-9.435 7.007a6.414 6.414 0 0 0 1.284 12.697h37.733c1.314 0 2.576-.225 3.758-.62V43.782z"/></g><g><path fill="#F6F6F6" d="M480 0h-12.034a12.24 12.24 0 0 0-5.327 6.84 8 8 0 0 0-.695-.033 8.06 8.06 0 0 0-7.714 5.73 5.245 5.245 0 0 0 1.05 10.38H480V0z"/></g><g><path fill="#F6F6F6" d="M5.077 123.664c-.675 0-1.332.06-1.978.17A15.08 15.08 0 0 0 0 120.43V144h13.305a11.792 11.792 0 0 0 3.612-8.5c0-6.537-5.303-11.836-11.84-11.836z"/></g><g><path fill="#F6F6F6" d="M3.204 80.793a3.864 3.864 0 0 0 3.866 3.865h22.75c3.94 0 7.14-3.195 7.14-7.135a7.138 7.138 0 0 0-8.332-7.035 9.002 9.002 0 0 0-7.52-4.05c-4.056 0-7.482 2.68-8.612 6.364a5.45 5.45 0 0 0-.512-.025 5.94 5.94 0 0 0-5.688 4.227 3.867 3.867 0 0 0-3.092 3.79z"/></g><g opacity=".1"><path fill="#0A0A0A" d="M363.318 76.15a3.85 3.85 0 0 0 3.85 3.85h22.65c3.924 0 7.107-3.182 7.107-7.105a7.108 7.108 0 0 0-8.295-7.003 8.97 8.97 0 0 0-16.06 2.305 5.392 5.392 0 0 0-.51-.025 5.915 5.915 0 0 0-5.664 4.207 3.848 3.848 0 0 0-3.078 3.77z"/></g><g><path fill="#F6F6F6" d="M368.318 75.15a3.85 3.85 0 0 0 3.85 3.85h22.65c3.924 0 7.107-3.182 7.107-7.105a7.108 7.108 0 0 0-8.295-7.003 8.97 8.97 0 0 0-16.06 2.305 5.392 5.392 0 0 0-.51-.025 5.915 5.915 0 0 0-5.664 4.207 3.848 3.848 0 0 0-3.078 3.77z"/></g></svg>