<svg xmlns="http://www.w3.org/2000/svg" width="221.629" height="115.701" viewBox="0 0 221.629 115.701"><path fill="#EC514F" d="M0 0h221.63v115.7H0z"/><path fill="#80CEF1" d="M114.71 0H0v115.7h120.995c12.562-14.71 20.146-33.744 20.146-54.542.002-24.07-10.148-45.785-26.43-61.158z"/><path fill-rule="evenodd" clip-rule="evenodd" fill="#18A538" d="M1.282 77.806c0-.152.014-.107 0-.152-.38-.157-.878-.27-1.282-.34v3.217c.085.052.16.103.252.156.84 1.11 2.367 2.124 3.812 1.57.837-2.365-.907-3.807-2.782-4.45zM14.42 53.752c.138.12.228.314.35.34h.177c.848.238 1.67-.61 1.03-.664-.253-.045-.744.018-1.556.324zM34.11 46.383c-1.35.23-1.674 1.12 1.22 3.098.36-.1 2.847-.653 1.39.84 4.486-2.66-.316-4.34-2.61-3.937zM34.11 27.322c4.838-1.95 5.952-14.6.19-14.23-.37 0-.746.184-1.22.36 2.413 4.415-3.15 10.032 1.03 13.87zM89.646 37.8c.383-2.64-3.845-4.58-5.748-4.47-1.11.078-1.325.863.728 2.76-1.922 4.49 3.186 4.732 5.02 1.71zM46.394 4.87c1.396-.644 2.065-2.945 0-2.945-.374-.097-.655-.194-1.03-.17-.37.008-.744.14-1.017.17-4.082.808-2.842 7.526 2.047 2.946z"/><path fill-rule="evenodd" clip-rule="evenodd" fill="#18A538" d="M52.11 3.3c-5.903.742-11.862 6.4-6.372 12.007 3.937 4.87-5.676 14.818 3.445 17.37C52.8 24.64 62.703 18.272 60.255 8.47c-1.022-4.18-4.588-5.616-8.144-5.17z"/><path fill="#18A538" d="M17.007 100.456c-4.254-4.1-11.343-4.67-17.007-6.488V115.7h37.077c-6.475-5.376-12.13-11.78-20.07-15.244zM0 66.328c5.778-1.325 8.19-11.523 15.304-13.064 3.86-3.328 14.31.25 10.528-6.545 3.737-3.522 14.69-3.4 9.332-11.647-1.798-8.036-11.748-11.917-15.02-2.768-9.01 2.397-5.376-17 3.788-14.413 6.643.38 5.738-5.354 1.713-7.2 0-.28-.086-.435-.342-.185-.733-.272-1.508-.557-2.416-.512-4.105-2.252-2.58-6.1-.847-9.995H6.884C4.594 2.1 2.282 4.294 0 6.55v59.778zM140.62 52.393c-4.853 2.637-13.492-11.875-4.658-4.976 1.726-.116 2.814-.608 3.633-1.35-1.023-5.29-2.406-10.415-4.347-15.298-.866-1.028-1.7-1.987-2.415-2.567.06-1.053-.043-2.07-.172-3.084-.04-.054.054-.13 0-.185C128.055 15.52 121.735 7.08 114.117 0h-27.59c2.506 3.134 4.44 6.507-.188 5.897-8.44-1.145-6.244 15.36-.164 18.36 5.792 3.098 9.055-3.117 3.1-6.17-.805-7.742 13 4.754 6.907 8.897-.24.165-.44.356-.674.533.28-1.113-.402-.065-.38.187C88.2 32.687 92.15 44.42 89.46 52.237c-4.794 10.568 11.993 5.91 9.49-2.408-3.07-7.655 12.77-4.168 9.343-9.61 9.605 5.06 8.697-8.525 4.687-13.06 1.868-7.263 6.807.85 4.473 4.804.38 3.742 3.633 4.605 6.236 5.672.116.088.256.1.514.163 2.278 1.078 3.645 2.463 1.186 6.718-2.82 9.446-12.387 9.967-20.21 8.222-7.904 3.248-9.376 12.79-13.84 19.212-4.425 8.026-8.1 19.846-.155 26.944 7.606 7.252 16.347.958 22.65-3.943 12.09-1.563 13.196 12.568 7.253 19.764-.068.33-.117.582-.168.85 12.596-14.717 20.227-33.746 20.227-54.57 0-2.325-.164-4.613-.352-6.893-.06-.57-.103-1.146-.17-1.71z"/><path opacity=".3" d="M221.63 72.463L216.266 0h-37.37v112.26c0 1.17.015 2.318.042 3.44h42.69V72.464z"/><path fill="#CEAD84" d="M174.073 0v112.26c0 1.17.014 2.318.042 3.44h36.367V0h-36.41z"/><path opacity=".1" d="M206.29 0l-36.38 115.7h40.904c.07-1.675.11-3.415.11-5.205V0h-4.634z"/><path opacity=".3" d="M192.097 115.7V19.95h-.123c-.158-4.79-4.16-8.754-9.093-8.754-4.935 0-8.94 3.964-9.098 8.753H139.05v95.75h53.047z"/><path fill="#FFE4C0" d="M134.145 17.93H187.3v97.77h-53.155z"/><path opacity=".3" d="M155.952 115.7h1.517c.052-16.478.106-34.368.146-34.368.192.015.332 20.49.362 34.37h13.412l.35-97.48s-1.67-3.658 4.73-8.854c-7.87 1.62-26.972 2.822-41.438 3.564v54.893h8.506c.096 2.393.45 2.393 1.052 4.787h-9.558v8.48l19.335.02c.5.11 1.038 18.076 1.585 34.59z"/><g opacity=".3"><path d="M182.54 59.27c0 .8-.652 1.448-1.46 1.448h-28.93c-.81 0-1.462-.647-1.462-1.448 0-.8.653-1.45 1.462-1.45h28.93c.808-.002 1.46.65 1.46 1.45zM182.54 53.47c0 .798-.652 1.448-1.46 1.448h-28.93c-.81 0-1.462-.65-1.462-1.45 0-.8.653-1.45 1.462-1.45h28.93c.808 0 1.46.65 1.46 1.45zM182.54 47.666c0 .803-.652 1.45-1.46 1.45h-28.93c-.81 0-1.462-.647-1.462-1.45 0-.8.653-1.448 1.462-1.448h28.93c.808 0 1.46.647 1.46 1.448zM182.54 41.864c0 .802-.652 1.452-1.46 1.452h-28.93c-.81 0-1.462-.65-1.462-1.452 0-.8.653-1.45 1.462-1.45h28.93c.808 0 1.46.65 1.46 1.45zM182.54 36.062c0 .805-.652 1.453-1.46 1.453h-28.93c-.81 0-1.462-.648-1.462-1.453 0-.8.653-1.45 1.462-1.45h28.93c.808 0 1.46.65 1.46 1.45zM182.54 30.264c0 .802-.652 1.45-1.46 1.45h-28.93c-.81 0-1.462-.648-1.462-1.45 0-.803.653-1.45 1.462-1.45h28.93c.808-.002 1.46.647 1.46 1.45zM182.54 24.463c0 .8-.652 1.45-1.46 1.45h-28.93c-.81 0-1.462-.65-1.462-1.45 0-.802.653-1.45 1.462-1.45h28.93c.808 0 1.46.648 1.46 1.45z"/></g><g opacity=".3"><path d="M182.54 99.367c0 .803-.652 1.452-1.46 1.452h-28.93c-.81 0-1.462-.65-1.462-1.453 0-.8.653-1.45 1.462-1.45h28.93c.808 0 1.46.65 1.46 1.45zM182.54 93.567c0 .8-.652 1.45-1.46 1.45h-28.93c-.81 0-1.462-.65-1.462-1.45 0-.8.653-1.452 1.462-1.452h28.93c.808 0 1.46.653 1.46 1.452zM182.54 87.766c0 .802-.652 1.45-1.46 1.45h-28.93c-.81 0-1.462-.648-1.462-1.45 0-.8.653-1.45 1.462-1.45h28.93c.808 0 1.46.65 1.46 1.45zM182.54 81.964c0 .8-.652 1.45-1.46 1.45h-28.93c-.81 0-1.462-.65-1.462-1.45 0-.8.653-1.448 1.462-1.448h28.93c.808 0 1.46.648 1.46 1.448zM182.54 76.162c0 .803-.652 1.453-1.46 1.453h-28.93c-.81 0-1.462-.65-1.462-1.453 0-.8.653-1.448 1.462-1.448h28.93c.808 0 1.46.65 1.46 1.448zM182.54 70.36c0 .803-.652 1.452-1.46 1.452h-28.93c-.81 0-1.462-.65-1.462-1.45 0-.8.653-1.45 1.462-1.45h28.93c.808 0 1.46.65 1.46 1.45zM182.54 64.562c0 .8-.652 1.448-1.46 1.448h-28.93c-.81 0-1.462-.65-1.462-1.448 0-.804.653-1.45 1.462-1.45h28.93c.808 0 1.46.647 1.46 1.45z"/></g><path fill="#CEAD84" d="M141.6 9.178c-5.032 0-9.108 4.05-9.108 9.045h18.22c-.002-4.994-4.08-9.045-9.11-9.045zM168.553 9.178h9.503v8.684h-9.503z"/><path opacity=".3" d="M24.824 107.588c.7 2.75 2.764 4.844 5.4 5.597.205.065.368.067.48.09.013.005.024.005.036.008.086.02.14.024.14.024h59.945v.08l7.925.018c.68.138 1.303.215 2.025.215.054 0 .067-.007.123-.01.14.012.22.047.23.063 5.414-.213 9.723-4.367 9.774-9.94h.015v-.446c.803.205 1.607.293 3.214.197v.25h12.86v3.19h.806v8.778h40.19V66.877l-.124-3.192c-.11-3.192-3.203-7.354-9.02-7.482-.605-.013-1.097-.346-1.513.452h-23.105v-.46l-2.41-.255v-2.48h-.453c-.175-5.583-4.664-9.788-10.19-9.788-.683 0-1.348.214-1.992.214H93.07l-2.244-.4V22.584c0-.783-.4-1.04-.603-1.838h.603V15.94c0-.81-.946-1.58-1.76-1.58h-64.15v91.037c0 .696-.25 1.515-.096 2.308 0-.035.003-.122.004-.117z"/><path fill="#CEAD84" d="M168.9 9.178v54.028h-25.88c-1.89 0-3.422-3.88-3.422-8.67V9.178h29.3z"/><path fill="#FFE4C0" d="M178.058 9.178c-5.033 0-9.113 4.05-9.113 9.045h18.22c0-4.994-4.076-9.045-9.107-9.045z"/><path opacity=".2" fill="#FFF" d="M133.436 14.71h36.538s2.285-4.527 6.714-5.193c4.43-.667 0-.142 0-.142l-37.845.118s-3.62.454-5.407 5.218z"/><path fill="#CEAD84" d="M168.9 115.7V17.86h-36.41v85.542c0 4.908.565 9.3 1.455 12.3H168.9z"/><g><path opacity=".3" d="M159.95 115.7V62.09l-.124-3.19c-.11-3.193-3.203-7.5-9.022-7.63-3.443-.075-3.555 2.992-3.666 6.184h-24.163v58.25h36.974z"/><path fill="#FFE4C0" d="M119.63 57.53h37.09v58.17h-37.09z"/><path opacity=".3" d="M149.224 51.56c-5.764 1.128-19.262 1.97-30.262 2.485v37.96h6.093c.07 1 .33 1 .77 3h-6.862v6.605l14.084.013c.676.142 1.423.18 2.144.18.056 0 .13-.025.186-.025.213.017.33-.123.225-.152 5.26-.188 9.5-4.206 9.81-9.648l.32-34.24c-.002-.002-1.192-2.554 3.494-6.18z"/><g opacity=".3"><path d="M150.808 93.95a1.23 1.23 0 0 1-1.236 1.224H125.16c-.684 0-1.232-.548-1.232-1.225 0-.675.55-1.225 1.23-1.225h24.414c.685 0 1.236.55 1.236 1.224zM150.808 89.054a1.23 1.23 0 0 1-1.236 1.226H125.16c-.684 0-1.232-.55-1.232-1.226 0-.675.55-1.224 1.23-1.224h24.414c.685 0 1.236.55 1.236 1.224zM150.808 84.156c0 .678-.55 1.225-1.236 1.225H125.16c-.684 0-1.232-.546-1.232-1.224 0-.674.55-1.22 1.23-1.22h24.414c.685 0 1.236.546 1.236 1.22zM150.808 79.264a1.23 1.23 0 0 1-1.236 1.224H125.16c-.684 0-1.232-.55-1.232-1.224 0-.678.55-1.225 1.23-1.225h24.414c.685 0 1.236.546 1.236 1.224zM150.808 74.367a1.23 1.23 0 0 1-1.236 1.225H125.16c-.684 0-1.232-.55-1.232-1.225 0-.677.55-1.225 1.23-1.225h24.414a1.23 1.23 0 0 1 1.236 1.225zM150.808 69.47c0 .678-.55 1.224-1.236 1.224H125.16a1.224 1.224 0 0 1 0-2.447h24.412c.685 0 1.236.545 1.236 1.22zM150.808 64.575a1.23 1.23 0 0 1-1.236 1.224H125.16c-.684 0-1.232-.55-1.232-1.225 0-.677.55-1.226 1.23-1.226h24.414c.685 0 1.236.548 1.236 1.225z"/></g><g opacity=".3"><path d="M150.808 113.84c0 .676-.55 1.223-1.236 1.223H125.16c-.684 0-1.232-.547-1.232-1.222 0-.676.55-1.225 1.23-1.225h24.414c.685 0 1.236.55 1.236 1.226zM150.808 108.945c0 .674-.55 1.222-1.236 1.222H125.16c-.684 0-1.232-.548-1.232-1.222 0-.677.55-1.225 1.23-1.225h24.414c.685 0 1.236.55 1.236 1.225zM150.808 104.047c0 .68-.55 1.226-1.236 1.226H125.16a1.225 1.225 0 0 1 0-2.45h24.412c.685 0 1.236.548 1.236 1.224zM150.808 99.152a1.23 1.23 0 0 1-1.236 1.225H125.16a1.225 1.225 0 0 1 0-2.45h24.412a1.23 1.23 0 0 1 1.236 1.225z"/></g><path fill="#CEAD84" d="M143.64 51.424h6.63v6.06h-6.63z"/><path fill="#CEAD84" d="M143.882 51.424v37.703h-36.274c-2.65 0-4.798-2.71-4.798-6.052v-31.65h41.072z"/><path fill="#FFE4C0" d="M150.27 51.424c-3.51 0-6.356 2.828-6.356 6.312h12.713c0-3.484-2.847-6.312-6.356-6.312z"/><path opacity=".2" fill="#FFF" d="M103.182 55.184h41.446s1.595-3.16 4.686-3.625c3.09-.467 0-.1 0-.1l-42.36.082s-2.525.317-3.772 3.642z"/><path fill="#CEAD84" d="M133.67 98.656c-5.64 0-10.213-4.54-10.213-10.14h20.423c0 5.6-4.572 10.14-10.21 10.14z"/><path fill="#FFE4C0" d="M123.496 48.56v49.877H65.238c-4.255 0-7.706-3.582-7.706-8.003V48.56h65.964z"/><path opacity=".3" d="M96.856 44.916c-5.76 1.13-6.895.836-18.895 1.353v38.736h7.147c.07 2 .33 3 .77 3H77.96v5.828l14.612.012c.677.14 1.688.18 2.405.18.055 0 .263-.025.32-.025.21.018.393-.123.287-.15 5.258-.19 2.372 5.4 10.616 4.85l-.108-53.48c.002 0-2.75-.782-9.236-.304z"/><path fill="#FFE4C0" d="M132.92 98.437s-8.563-.048-9.463-9.732c-.897-9.682-3.636 1.867-3.636 1.867l-.19 7.77 13.29.095z"/><path opacity=".05" d="M57.786 92.455h66.57s2.562 5.076 7.524 5.824c4.964.745 0 .156 0 .156l-68.032-.132s-4.058-.51-6.062-5.85z"/><g opacity=".3"><path d="M119.684 85.637a1.23 1.23 0 0 1-1.233 1.225H94.036a1.23 1.23 0 0 1-1.233-1.225c0-.676.55-1.225 1.233-1.225h24.415c.68 0 1.234.55 1.234 1.225zM119.684 80.74a1.23 1.23 0 0 1-1.233 1.224H94.036a1.227 1.227 0 0 1-1.233-1.223c0-.676.55-1.223 1.233-1.223h24.415c.68 0 1.234.547 1.234 1.224zM119.684 75.846a1.23 1.23 0 0 1-1.233 1.223H94.036c-.683 0-1.233-.55-1.233-1.224 0-.677.55-1.225 1.233-1.225h24.415c.68 0 1.234.55 1.234 1.226zM119.684 70.947a1.23 1.23 0 0 1-1.233 1.226H94.036a1.228 1.228 0 0 1-1.233-1.226c0-.674.55-1.225 1.233-1.225h24.415c.68 0 1.234.55 1.234 1.225zM119.684 66.053a1.23 1.23 0 0 1-1.233 1.225H94.036c-.683 0-1.233-.55-1.233-1.225s.55-1.224 1.233-1.224h24.415c.68 0 1.234.548 1.234 1.223zM119.684 61.156a1.23 1.23 0 0 1-1.233 1.225H94.036c-.683 0-1.233-.548-1.233-1.224 0-.676.55-1.223 1.233-1.223h24.415c.68 0 1.234.547 1.234 1.223zM119.684 56.26a1.23 1.23 0 0 1-1.233 1.225H94.036a1.227 1.227 0 0 1-1.233-1.224c0-.674.55-1.224 1.233-1.224h24.415c.68 0 1.234.55 1.234 1.225z"/></g><path fill="#CEAD84" d="M112.962 39.006h-77v50.58c0 5.37 4.398 8.42 8.654 8.42h59.346v-49h9v-10zM92.663 108.832c-5.64 0-10.21-4.537-10.21-10.135h20.42c0 5.598-4.57 10.135-10.21 10.135z"/><path fill="#FFE4C0" d="M113.136 38.752c-5.64 0-10.213 4.54-10.213 10.14h20.422c0-5.6-4.57-10.14-10.21-10.14z"/><path fill-rule="evenodd" clip-rule="evenodd" fill="#18A538" d="M20.017 50.58c-.775.135-.96.648.706 1.787.208-.055 1.643-.377.804.486 2.59-1.535-.184-2.504-1.51-2.272zM20.017 39.58c2.796-1.127 3.438-8.428.11-8.212-.212 0-.43.105-.702.206 1.392 2.55-1.82 5.79.592 8.005zM52.074 45.63c.22-1.524-2.22-2.644-3.318-2.58-.64.042-.764.495.42 1.59-1.11 2.592 1.84 2.73 2.898.99zM27.108 26.622c.807-.373 1.192-1.702 0-1.702-.215-.055-.377-.11-.594-.098-.214.005-.43.082-.588.098-2.354.468-1.638 4.345 1.182 1.702z"/><path fill-rule="evenodd" clip-rule="evenodd" fill="#18A538" d="M30.41 25.715c-3.41.43-6.85 3.693-3.68 6.93 2.272 2.812-3.275 8.554 1.988 10.025 2.088-4.64 7.806-8.313 6.393-13.97-.59-2.415-2.648-3.243-4.7-2.985z"/><path opacity=".3" d="M82.353 38.695l.023 60.24s.656 9.37 9.346 9.824c-2.318-.702-6.76-1.47-6.76-10.103V38.964l-2.61-.27z"/><path opacity=".2" fill="#FFF" d="M37.213 44.79h66.57s2.56-5.077 7.523-5.823c-5.64 0-9.41.162-9.41.162l-58.622-.19s-4.057.51-6.06 5.85z"/><path fill="#FFE4C0" d="M74.795 9.79c4.258 0 7.708 3.584 7.708 8.01v41.868H16.54V9.788h58.255z"/><path fill="#FFE4C0" d="M82.49 58.737v49.88H24.232c-4.257 0-7.706-3.586-7.706-8.007V58.737H82.49z"/><path opacity=".3" d="M47.07 62.28a2.457 2.457 0 0 1-2.468 2.448h-21.73a2.457 2.457 0 0 1-2.466-2.45V50.96a2.456 2.456 0 0 1 2.466-2.448h21.73a2.46 2.46 0 0 1 2.467 2.448v11.32z"/><g opacity=".3"><path d="M47.286 98.697c0 .674-.55 1.22-1.23 1.22H21.638c-.682 0-1.233-.546-1.233-1.22 0-.68.552-1.226 1.232-1.226h24.415c.68.002 1.23.548 1.23 1.227zM47.286 93.8c0 .676-.55 1.224-1.23 1.224H21.638c-.682 0-1.233-.548-1.233-1.225a1.23 1.23 0 0 1 1.232-1.224h24.415c.68 0 1.23.55 1.23 1.223zM47.286 88.903c0 .675-.55 1.224-1.23 1.224H21.638c-.682 0-1.233-.55-1.233-1.224a1.23 1.23 0 0 1 1.232-1.226h24.415c.68 0 1.23.55 1.23 1.226zM47.286 84.008c0 .676-.55 1.225-1.23 1.225H21.638c-.682 0-1.233-.55-1.233-1.225 0-.677.552-1.225 1.232-1.225h24.415c.68 0 1.23.548 1.23 1.225zM47.286 79.11c0 .677-.55 1.225-1.23 1.225H21.638c-.682 0-1.233-.548-1.233-1.224a1.23 1.23 0 0 1 1.232-1.226h24.415c.68 0 1.23.552 1.23 1.227zM47.286 74.217a1.23 1.23 0 0 1-1.23 1.225H21.638a1.23 1.23 0 0 1-1.233-1.225 1.23 1.23 0 0 1 1.232-1.226h24.415c.68 0 1.23.55 1.23 1.227zM47.286 69.32c0 .677-.55 1.223-1.23 1.223H21.638c-.682 0-1.233-.546-1.233-1.223a1.23 1.23 0 0 1 1.232-1.225h24.415c.68 0 1.23.55 1.23 1.225z"/></g><g opacity=".3"><path d="M77.194 79.26c0 .678-.552 1.226-1.23 1.226H51.547a1.228 1.228 0 0 1-1.233-1.226 1.23 1.23 0 0 1 1.233-1.223h24.415c.68 0 1.23.55 1.23 1.223zM77.194 74.367c0 .674-.552 1.223-1.23 1.223H51.547c-.682 0-1.233-.55-1.233-1.223a1.23 1.23 0 0 1 1.233-1.226h24.415c.68.002 1.23.55 1.23 1.227zM77.194 69.47c0 .678-.552 1.224-1.23 1.224H51.547a1.227 1.227 0 0 1-1.233-1.225c0-.675.552-1.223 1.233-1.223h24.415c.68 0 1.23.548 1.23 1.222zM77.194 64.573a1.23 1.23 0 0 1-1.23 1.226H51.547a1.23 1.23 0 0 1-1.233-1.227 1.23 1.23 0 0 1 1.233-1.224h24.415c.68 0 1.23.548 1.23 1.223zM77.194 59.678a1.23 1.23 0 0 1-1.23 1.225H51.547a1.23 1.23 0 0 1-1.233-1.225 1.23 1.23 0 0 1 1.233-1.225h24.415c.68 0 1.23.55 1.23 1.225zM77.194 54.782c0 .677-.552 1.225-1.23 1.225H51.547a1.228 1.228 0 0 1-1.233-1.225c0-.677.552-1.224 1.233-1.224h24.415c.68 0 1.23.547 1.23 1.224zM77.194 49.887a1.23 1.23 0 0 1-1.23 1.225H51.547a1.23 1.23 0 0 1-1.233-1.225 1.23 1.23 0 0 1 1.233-1.225h24.415c.68 0 1.23.548 1.23 1.225z"/></g><path d="M77.194 98.697c0 .674-.552 1.22-1.23 1.22H51.547a1.227 1.227 0 0 1-1.233-1.22c0-.68.552-1.226 1.233-1.226h24.415c.68.002 1.23.548 1.23 1.227zM77.194 93.8c0 .676-.552 1.224-1.23 1.224H51.547a1.228 1.228 0 0 1-1.233-1.225 1.23 1.23 0 0 1 1.233-1.224h24.415c.68 0 1.23.55 1.23 1.223zM77.194 88.903a1.23 1.23 0 0 1-1.23 1.224H51.547a1.23 1.23 0 0 1-1.233-1.224 1.23 1.23 0 0 1 1.233-1.226h24.415c.68 0 1.23.55 1.23 1.226zM77.194 84.008a1.23 1.23 0 0 1-1.23 1.225H51.547a1.23 1.23 0 0 1-1.233-1.225 1.23 1.23 0 0 1 1.233-1.225h24.415c.68 0 1.23.548 1.23 1.225z" opacity=".3"/><path fill="#FFE4C0" d="M91.914 108.616s-8.563-.05-9.462-9.732-3.637 1.862-3.637 1.862l-.195 7.77 13.294.1z"/><path opacity=".05" d="M16.782 102.633H83.35s2.563 5.077 7.524 5.824c4.962.746 0 .16 0 .16l-68.032-.137s-4.057-.507-6.06-5.847z"/><path opacity=".3" d="M49.507 21.375l3.05 6.127 6.81.984-4.93 4.77 1.164 6.738-6.093-3.183-6.093 3.184 1.164-6.738-4.93-4.77 6.813-.984zM75.503 31.105l-4.225-5.656a.52.52 0 0 0-.724-.106l-.102.074a.512.512 0 0 0-.108.717l4.01 5.367-4.01 5.367a.512.512 0 0 0 .108.716l.102.076a.52.52 0 0 0 .724-.107l4.225-5.656a.513.513 0 0 0 .092-.397.52.52 0 0 0-.092-.398zM21.818 31.898l4.225 5.656c.17.227.493.275.724.107l.104-.075a.51.51 0 0 0 .106-.717L22.968 31.5l4.008-5.366a.51.51 0 0 0-.105-.717l-.103-.074a.52.52 0 0 0-.724.105l-4.225 5.656a.51.51 0 0 0-.09.396.51.51 0 0 0 .09.398z"/><path fill="#444" d="M82.503 15.54v-4.386c0-.81-.66-1.465-1.477-1.465H18.012a1.47 1.47 0 0 0-1.473 1.464v4.385h65.963z"/><ellipse fill="#2CB740" cx="19.759" cy="12.691" rx="1.166" ry="1.158"/><path fill="#F16442" d="M24.48 12.69c0 .642-.524 1.16-1.17 1.16a1.16 1.16 0 0 1-1.162-1.16c0-.637.52-1.155 1.162-1.155.646 0 1.17.52 1.17 1.156z"/><path fill="#FFF" d="M80.067 12.623c0 .64-.52 1.157-1.165 1.157H26.375c-.638 0-1.165-.52-1.165-1.157 0-.64.527-1.158 1.165-1.158h52.527a1.16 1.16 0 0 1 1.165 1.158z"/><path opacity=".3" d="M123.216 51.137l-.042 37.69s.758 9.368 9.45 9.823c-2.32-.7-6.662-1.47-6.662-10.103v-37.14l-2.746-.27zM149.612 51.424c-2.658.29-5.668 2.31-5.7 6.3h1.866s-.2-3.598 3.834-6.3zM111.896 38.88c-9.9 1.383-8.983 11.665-8.974 10.01 2.774 0 3.45-.022 3.45-.022s-.474-5.975 5.524-9.99z"/></g><g><path fill="#444" d="M82.49 17.668v-7.58c0-.807-.66-1.463-1.474-1.463h-63.02c-.812 0-1.47.656-1.47 1.463v7.58H82.49z"/><ellipse fill="#2CB740" cx="20.304" cy="13.093" rx="1.723" ry="1.71"/><ellipse fill="#F16442" cx="25.555" cy="13.093" rx="1.724" ry="1.71"/><path fill="#FFF" d="M80.218 13.147c0 1.124-.92 2.036-2.053 2.036h-47.7a2.05 2.05 0 0 1-2.053-2.036 2.05 2.05 0 0 1 2.052-2.037h47.7c1.133 0 2.054.91 2.054 2.037z"/></g><path opacity=".3" d="M177.115 9.178c-3.81.416-8.125 3.31-8.17 9.027h2.673s-.286-5.156 5.497-9.027z"/><g opacity=".3"><path d="M220.668 65.18a1.108 1.108 0 0 1-.85 1.33l-3.703.824a1.125 1.125 0 0 1-1.344-.846l-.52-2.314c-.137-.604.247-1.2.853-1.334l3.703-.822a1.125 1.125 0 0 1 1.344.846l.518 2.315z"/><path opacity=".2" d="M220.427 64.104l-.277-1.24a1.125 1.125 0 0 0-1.344-.846l-3.703.822a1.12 1.12 0 0 0-.854 1.334l.28 1.24 5.897-1.31z"/><path d="M221.63 58.694l-2.114.47a2.08 2.08 0 0 0-1.587 2.48l1.257 5.574a2.084 2.084 0 0 0 2.442 1.58V58.694z"/><path opacity=".2" d="M221.63 58.694l-2.114.47a2.08 2.08 0 0 0-1.587 2.48l.647 2.872 3.052-.68v-5.142z"/><path d="M221.63 50.444a3.34 3.34 0 0 0-1.85 3.753l1.85 8.2V50.443z"/><path opacity=".4" d="M221.63 50.445a3.34 3.34 0 0 0-1.85 3.755l.207.907 1.642-.364v-4.298z"/><path opacity=".2" d="M216.54 40.134c.007-.157 0-.31-.035-.47L215.41 34.8a1.786 1.786 0 0 0-2.134-1.343l-3.924.87a1.773 1.773 0 0 0-1.394 1.745l8.58 4.062z"/><path d="M221.63 0h-3.902l3.9 17.31z"/></g><g><path fill="#9D9D9C" d="M221.63 57.99l-3.52.78a1.12 1.12 0 0 0-.853 1.335l.52 2.314c.14.602.74.98 1.346.845l2.506-.557V57.99z"/><path opacity=".2" d="M221.63 57.99l-3.52.78a1.12 1.12 0 0 0-.853 1.335l.28 1.243 4.09-.91V57.99z"/><path fill="#C6C6C6" d="M221.63 55.548a2.062 2.062 0 0 0-.693 2.028l.692 3.066v-5.094z"/><path opacity=".2" d="M221.63 55.548a2.062 2.062 0 0 0-.693 2.028l.646 2.87.046-.01V55.55z"/></g></svg>