<svg xmlns="http://www.w3.org/2000/svg" width="480.038" height="144" viewBox="0 0 480.038 144"><path fill="#EC514F" d="M.058-.022h480v144h-480z"/><path opacity=".3" d="M379.157-.022l-78.342 144h154.938l24.305-44.674V-.022z"/><path fill="#80CEF1" d="M142.772-.022H.058v144h150.537c15.63-18.308 25.064-42 25.064-67.884 0-29.957-12.63-56.983-32.888-76.116z"/><path fill-rule="evenodd" clip-rule="evenodd" fill="#18A538" d="M1.65 96.814c0-.19.02-.133 0-.19-.472-.197-1.09-.338-1.593-.422v4.002c.105.065.2.128.312.195 1.046 1.38 2.946 2.643 4.743 1.952 1.044-2.946-1.126-4.737-3.462-5.538zM18 66.877c.17.15.28.393.432.42h.224c1.052.3 2.077-.757 1.277-.826-.313-.053-.922.026-1.934.407zM42.495 57.704c-1.676.285-2.08 1.398 1.52 3.854.447-.12 3.54-.813 1.728 1.045 5.584-3.31-.394-5.4-3.248-4.9zM42.495 33.983c6.02-2.43 7.406-18.172.237-17.708-.462 0-.927.228-1.518.444 3.003 5.496-3.918 12.487 1.28 17.263zM111.59 47.022c.477-3.283-4.783-5.698-7.15-5.562-1.382.096-1.65 1.074.903 3.434-2.39 5.59 3.967 5.89 6.248 2.128zM57.777 6.04c1.737-.803 2.57-3.666 0-3.666-.463-.12-.813-.24-1.28-.213-.463.014-.926.178-1.266.214-5.077 1.007-3.534 9.366 2.547 3.667z"/><path fill-rule="evenodd" clip-rule="evenodd" fill="#18A538" d="M64.893 4.085c-7.347.923-14.76 7.968-7.93 14.942 4.897 6.064-7.06 18.444 4.286 21.62 4.5-10.002 16.82-17.927 13.774-30.126-1.27-5.2-5.706-6.99-10.13-6.435z"/><path fill="#18A538" d="M21.217 125.002c-5.292-5.103-14.11-5.81-21.16-8.074v27.05h46.13c-8.055-6.69-15.09-14.664-24.97-18.976zM.058 82.527c7.19-1.647 10.19-14.34 19.042-16.257 4.802-4.145 17.8.31 13.097-8.146 4.65-4.384 18.277-4.232 11.61-14.493-2.237-10-14.615-14.832-18.687-3.444-11.21 2.984-6.688-21.16 4.713-17.94 8.266.474 7.14-6.664 2.132-8.96 0-.35-.108-.54-.425-.23-.914-.338-1.876-.693-3.008-.64-5.107-2.803-3.207-7.592-1.055-12.438H8.62A317.53 317.53 0 0 0 .06 8.128v74.4zM175.013 65.186c-6.043 3.282-16.79-14.78-5.796-6.192 2.146-.146 3.498-.76 4.518-1.682-1.272-6.583-2.993-12.96-5.405-19.04-1.08-1.277-2.118-2.47-3.006-3.192.074-1.312-.054-2.576-.214-3.84-.054-.064.064-.16 0-.227-5.733-11.72-13.597-22.223-23.073-31.035H107.71c3.12 3.9 5.522 8.1-.232 7.34-10.5-1.425-7.77 19.12-.204 22.853 7.208 3.855 11.264-3.88 3.857-7.682-1-9.636 16.172 5.918 8.593 11.077-.3.204-.546.445-.84.664.35-1.385-.5-.083-.47.23-8.618 6.203-3.704 20.803-7.054 30.535-5.967 13.15 14.92 7.355 11.806-2.998-3.817-9.528 15.886-5.186 11.623-11.96 11.95 6.296 10.82-10.61 5.828-16.254 2.33-9.04 8.472 1.057 5.567 5.982.473 4.654 4.52 5.73 7.76 7.056.144.11.316.124.638.203 2.835 1.343 4.534 3.067 1.476 8.362-3.51 11.755-15.413 12.403-25.145 10.23-9.837 4.046-11.667 15.922-17.22 23.913-5.506 9.988-10.08 24.698-.193 33.533 9.46 9.026 20.334 1.196 28.18-4.907 15.04-1.944 16.418 15.645 9.023 24.6-.086.41-.146.722-.21 1.06 15.672-18.32 25.165-42.003 25.165-67.92 0-2.895-.202-5.742-.438-8.58-.076-.71-.13-1.425-.21-2.127z"/><path fill="#CEAD84" d="M372.075-.022l-78.34 144h154.938l31.385-57.69V-.022z"/><g opacity=".3"><path d="M306.356 142.64l2.492 1.338h11.006l-11.01-5.907a2.626 2.626 0 0 0-3.545 1.05 2.594 2.594 0 0 0 1.056 3.52zM311.33 133.496l19.536 10.48h11.004l-28.05-15.05a2.625 2.625 0 0 0-3.546 1.05 2.59 2.59 0 0 0 1.057 3.52zM316.308 124.354l36.57 19.623h11.007l-45.09-24.194a2.626 2.626 0 0 0-3.545 1.05 2.586 2.586 0 0 0 1.058 3.52zM321.28 115.215l53.608 28.763h11.01l-62.132-33.337a2.625 2.625 0 0 0-3.545 1.054 2.592 2.592 0 0 0 1.06 3.52zM326.254 106.07l70.647 37.907h11.01l-79.168-42.48c-1.27-.68-2.858-.21-3.546 1.053s-.215 2.84 1.058 3.52z"/></g><g opacity=".3"><path d="M391.755 99.087a2.624 2.624 0 0 1-3.545 1.05l-45.58-24.455a2.59 2.59 0 0 1-1.058-3.52 2.625 2.625 0 0 1 3.544-1.052l45.58 24.457a2.59 2.59 0 0 1 1.06 3.52zM396.73 89.944a2.63 2.63 0 0 1-3.548 1.05l-45.58-24.455a2.59 2.59 0 0 1-1.057-3.523 2.626 2.626 0 0 1 3.544-1.05l45.578 24.458a2.59 2.59 0 0 1 1.06 3.52zM401.704 80.8a2.628 2.628 0 0 1-3.548 1.053l-45.58-24.456a2.59 2.59 0 0 1-1.056-3.52 2.625 2.625 0 0 1 3.543-1.052l45.58 24.458a2.587 2.587 0 0 1 1.06 3.518zM406.677 71.66a2.626 2.626 0 0 1-3.545 1.048l-45.58-24.457a2.59 2.59 0 0 1-1.06-3.52 2.626 2.626 0 0 1 3.546-1.048l45.58 24.457a2.59 2.59 0 0 1 1.06 3.52zM411.65 62.515a2.628 2.628 0 0 1-3.544 1.052l-45.58-24.458a2.592 2.592 0 0 1-1.06-3.522 2.63 2.63 0 0 1 3.546-1.05l45.58 24.456a2.59 2.59 0 0 1 1.06 3.52zM416.624 53.375a2.63 2.63 0 0 1-3.545 1.05L367.5 29.968a2.59 2.59 0 0 1-1.06-3.52 2.627 2.627 0 0 1 3.547-1.053l45.58 24.456a2.592 2.592 0 0 1 1.057 3.525zM421.6 44.232a2.626 2.626 0 0 1-3.546 1.05l-45.58-24.455a2.59 2.59 0 0 1-1.06-3.522 2.625 2.625 0 0 1 3.546-1.05l45.58 24.456a2.59 2.59 0 0 1 1.06 3.522z"/></g><g opacity=".3"><path d="M446.536 128.48a2.628 2.628 0 0 1-3.547 1.05l-45.58-24.457a2.59 2.59 0 0 1-1.06-3.52 2.626 2.626 0 0 1 3.545-1.05l45.58 24.455a2.594 2.594 0 0 1 1.06 3.522zM451.51 119.336a2.63 2.63 0 0 1-3.546 1.052l-45.58-24.456a2.59 2.59 0 0 1-1.058-3.52 2.63 2.63 0 0 1 3.544-1.052l45.58 24.457a2.59 2.59 0 0 1 1.06 3.52zM456.483 110.194a2.63 2.63 0 0 1-3.547 1.05l-45.58-24.454a2.59 2.59 0 0 1-1.057-3.522 2.624 2.624 0 0 1 3.542-1.05l45.582 24.456a2.588 2.588 0 0 1 1.06 3.52zM461.458 101.05a2.626 2.626 0 0 1-3.547 1.05l-45.576-24.456a2.586 2.586 0 0 1-1.06-3.52 2.626 2.626 0 0 1 3.544-1.05l45.58 24.457a2.59 2.59 0 0 1 1.06 3.52zM466.43 91.907a2.624 2.624 0 0 1-3.543 1.05l-45.58-24.456a2.59 2.59 0 0 1-1.06-3.52 2.63 2.63 0 0 1 3.547-1.052l45.578 24.458a2.59 2.59 0 0 1 1.06 3.52zM471.405 82.767a2.632 2.632 0 0 1-3.547 1.05l-45.58-24.456a2.593 2.593 0 0 1-1.058-3.52 2.626 2.626 0 0 1 3.546-1.052l45.58 24.455a2.593 2.593 0 0 1 1.06 3.524zM476.38 73.625a2.63 2.63 0 0 1-3.547 1.05l-45.58-24.455a2.588 2.588 0 0 1-1.058-3.52 2.623 2.623 0 0 1 3.544-1.052l45.58 24.456a2.59 2.59 0 0 1 1.06 3.52z"/></g><g opacity=".3"><path d="M427.028 34.252a2.627 2.627 0 0 1-3.547 1.05L377.9 10.845a2.588 2.588 0 0 1-1.056-3.52 2.624 2.624 0 0 1 3.543-1.05l45.582 24.457a2.588 2.588 0 0 1 1.058 3.52zM430.942 21.588L390.668-.022h-9.09c.16.71.604 1.353 1.3 1.726l45.578 24.458c1.27.68 2.86.21 3.545-1.052a2.59 2.59 0 0 0-1.058-3.522zM435.917 12.446L412.68-.022h-11.007l31.76 17.04a2.63 2.63 0 0 0 3.545-1.05 2.593 2.593 0 0 0-1.06-3.522zM440.89 3.303l-6.197-3.325h-11l14.714 7.895c1.27.68 2.856.213 3.544-1.05a2.59 2.59 0 0 0-1.06-3.52z"/></g><g opacity=".3"><path d="M480.058 59.753l-44.89-24.086a2.625 2.625 0 0 0-3.544 1.05 2.587 2.587 0 0 0 1.06 3.522l45.58 24.456a2.62 2.62 0 0 0 1.794.243v-5.187zM480.058 47.942l-39.916-21.417a2.623 2.623 0 0 0-3.543 1.05 2.59 2.59 0 0 0 1.056 3.52l42.402 22.752v-5.905zM480.058 36.13l-34.94-18.748a2.627 2.627 0 0 0-3.546 1.05 2.587 2.587 0 0 0 1.06 3.52l37.427 20.084V36.13zM480.058 24.317L450.09 8.24a2.627 2.627 0 0 0-3.544 1.048 2.588 2.588 0 0 0 1.06 3.52l32.452 17.414v-5.905zM451.637-.022c-.038.058-.083.107-.116.17a2.588 2.588 0 0 0 1.06 3.52l27.478 14.743v-5.904L456.71-.022h-5.073zM467.712-.022l12.346 6.624V.692l-1.335-.714z"/></g><path opacity=".3" d="M379.517 120.065c-.543.997-1.09 1.745-2.346 1.072l-45.423-24.373c-1.256-.672-1.834-2.027-1.29-3.023l6.87-12.632c.545-.995 2-1.26 3.254-.585l45.427 24.373c1.255.674.925 1.54.38 2.537l-6.87 12.632zM386.257 126.013l33.482 17.965h17.192l3.97-7.296c.542-.996.87-1.865-.384-2.538l-45.424-24.374c-1.256-.672-2.71-.41-3.254.59l-6.87 12.63c-.543.996.032 2.348 1.287 3.023zM222.63-.022v139.717c0 1.455.02 2.884.055 4.283h57.094l-10.653-144H222.63z"/><path fill="#CEAD84" d="M216.63-.022v139.717c0 1.455.02 2.884.055 4.283h45.246v-144h-45.3z"/><path opacity=".1" d="M256.716-.022l-45.267 144h50.89c.092-2.087.142-4.253.142-6.48V-.022h-5.766z"/><path opacity=".3" d="M239.058 143.978V24.805h-.154c-.197-5.958-5.18-10.892-11.314-10.892-6.14 0-11.122 4.934-11.318 10.892H173.06v119.173h65.998z"/><path fill="#FFE4C0" d="M166.954 22.292h66.135v121.685h-66.136z"/><path opacity=".3" d="M194.087 143.978h1.885c.066-20.51.137-42.774.186-42.774.238.02.412 25.503.45 42.774h16.687l.435-121.32s-2.08-4.553 5.886-11.018c-9.793 2.016-33.557 3.513-51.557 4.435v68.317h10.583c.12 2.98.56 2.98 1.307 5.96h-11.89v10.558l24.055.02c.62.135 1.292 22.494 1.972 43.048z"/><g opacity=".3"><path d="M227.166 73.742c0 1-.813 1.805-1.818 1.805h-35.992a1.81 1.81 0 0 1-1.82-1.805c0-.995.815-1.805 1.82-1.805h35.992c1.005 0 1.818.81 1.818 1.805zM227.166 66.523a1.81 1.81 0 0 1-1.818 1.805h-35.992c-1.005 0-1.82-.81-1.82-1.805 0-.997.815-1.806 1.82-1.806h35.992c1.005 0 1.818.81 1.818 1.806zM227.166 59.303a1.81 1.81 0 0 1-1.818 1.804h-35.992a1.81 1.81 0 0 1-1.82-1.804c0-.997.815-1.806 1.82-1.806h35.992c1.005 0 1.818.81 1.818 1.806zM227.166 52.083a1.81 1.81 0 0 1-1.818 1.805h-35.992c-1.005 0-1.82-.81-1.82-1.805 0-.997.815-1.805 1.82-1.805h35.992a1.81 1.81 0 0 1 1.818 1.805zM227.166 44.862a1.81 1.81 0 0 1-1.818 1.806h-35.992a1.812 1.812 0 0 1-1.82-1.806c0-.997.815-1.805 1.82-1.805h35.992c1.005 0 1.818.81 1.818 1.805zM227.166 37.643a1.81 1.81 0 0 1-1.818 1.806h-35.992c-1.005 0-1.82-.81-1.82-1.807 0-.997.815-1.805 1.82-1.805h35.992a1.81 1.81 0 0 1 1.818 1.805zM227.166 30.423a1.81 1.81 0 0 1-1.818 1.805h-35.992c-1.005 0-1.82-.81-1.82-1.805 0-.998.815-1.806 1.82-1.806h35.992a1.81 1.81 0 0 1 1.818 1.806z"/></g><g opacity=".3"><path d="M227.166 123.65c0 .998-.813 1.804-1.818 1.804h-35.992a1.81 1.81 0 0 1-1.82-1.805c0-.997.815-1.805 1.82-1.805h35.992a1.81 1.81 0 0 1 1.818 1.804zM227.166 116.43c0 .997-.813 1.806-1.818 1.806h-35.992c-1.005 0-1.82-.81-1.82-1.806s.815-1.805 1.82-1.805h35.992a1.81 1.81 0 0 1 1.818 1.805zM227.166 109.21a1.81 1.81 0 0 1-1.818 1.804h-35.992a1.81 1.81 0 0 1-1.82-1.804c0-.996.815-1.806 1.82-1.806h35.992c1.005 0 1.818.81 1.818 1.806zM227.166 101.99a1.81 1.81 0 0 1-1.818 1.805h-35.992c-1.005 0-1.82-.81-1.82-1.805a1.81 1.81 0 0 1 1.82-1.804h35.992a1.81 1.81 0 0 1 1.818 1.804zM227.166 94.77a1.81 1.81 0 0 1-1.818 1.806h-35.992a1.812 1.812 0 0 1-1.82-1.806c0-.997.815-1.805 1.82-1.805h35.992a1.81 1.81 0 0 1 1.818 1.805zM227.166 87.55c0 .997-.813 1.806-1.818 1.806h-35.992c-1.005 0-1.82-.81-1.82-1.807 0-.997.815-1.806 1.82-1.806h35.992a1.81 1.81 0 0 1 1.818 1.805zM227.166 80.33a1.81 1.81 0 0 1-1.818 1.805h-35.992c-1.005 0-1.82-.81-1.82-1.805 0-.998.815-1.807 1.82-1.807h35.992c1.005 0 1.818.81 1.818 1.807z"/></g><path fill="#CEAD84" d="M176.23 11.4c-6.26 0-11.335 5.042-11.335 11.258h22.668c0-6.217-5.072-11.257-11.332-11.257zM209.763 11.4h11.824v10.81h-11.824z"/><path opacity=".3" d="M30.944 133.88c.868 3.423 3.438 6.028 6.72 6.965.253.08.456.084.597.113l.046.01c.105.02.174.03.174.03h74.578v.1l9.86.02c.845.174 1.624.27 2.52.27.067 0 .087-.01.155-.01.174.013.27.056.287.075 6.734-.266 12.096-5.436 12.16-12.37h.018v-.557c1 .254 2 .362 4 .245v.312h16v3.972h1v10.924h50V83.21l-.152-3.972c-.137-3.973-3.983-9.152-11.225-9.313-.75-.016-1.36-.43-1.878.563h-28.744v-.57l-3-.32v-3.083h-.56c-.22-6.95-5.806-12.184-12.683-12.184-.848 0-1.676.27-2.478.27H115.85l-2.793-.5V28.085c0-.976-.496-1.295-.748-2.288h.747v-5.982c0-1.005-1.176-1.963-2.188-1.963H31.056v113.3c0 .866-.312 1.886-.12 2.872.002-.044.005-.152.007-.146z"/><path fill="#CEAD84" d="M210.196 11.4v67.244h-32.198c-2.352 0-4.26-4.832-4.26-10.792v-56.45h36.458z"/><path fill="#FFE4C0" d="M221.59 11.4c-6.264 0-11.34 5.042-11.34 11.258h22.67c0-6.217-5.072-11.257-11.33-11.257z"/><path opacity=".2" fill="#FFF" d="M166.072 18.287h45.46s2.842-5.637 8.352-6.466 0-.176 0-.176l-47.084.148s-4.504.566-6.728 6.495z"/><path fill="#CEAD84" d="M210.196 143.978V22.208h-45.3V128.67c0 6.11.702 11.576 1.81 15.308h43.49z"/><g><path opacity=".3" d="M199.058 143.978V77.252l-.152-3.973c-.137-3.973-3.984-9.334-11.226-9.494-4.282-.095-4.423 3.723-4.56 7.695h-30.063v72.498h46z"/><path fill="#FFE4C0" d="M148.894 71.58h46.148v72.397h-46.148z"/><path opacity=".3" d="M185.682 64.146C178.514 65.553 161 66.6 148 67.24V115h7.646c.087 2 .41 2 .957 4H148v7.44l17.555.015c.842.175 1.79.223 2.684.223.067 0 .17-.032.238-.032.264.02.413-.153.282-.188 6.543-.236 11.818-5.234 12.207-12.01l.383-42.61c0-.002-1.496-3.18 4.332-7.692z"/><g opacity=".3"><path d="M187.684 116.905c0 .843-.685 1.523-1.534 1.523h-30.375c-.85 0-1.535-.68-1.535-1.523 0-.84.686-1.523 1.535-1.523h30.375c.85 0 1.534.683 1.534 1.523zM187.684 110.812c0 .84-.685 1.523-1.534 1.523h-30.375c-.85 0-1.535-.683-1.535-1.523 0-.84.686-1.523 1.535-1.523h30.375c.85 0 1.534.682 1.534 1.522zM187.684 104.72c0 .84-.685 1.522-1.534 1.522h-30.375c-.85 0-1.535-.682-1.535-1.523 0-.842.686-1.524 1.535-1.524h30.375c.85 0 1.534.682 1.534 1.523zM187.684 98.626c0 .84-.685 1.523-1.534 1.523h-30.375c-.85 0-1.535-.683-1.535-1.524 0-.842.686-1.523 1.535-1.523h30.375c.85 0 1.534.68 1.534 1.523zM187.684 92.532c0 .842-.685 1.524-1.534 1.524h-30.375c-.85 0-1.535-.682-1.535-1.524 0-.84.686-1.523 1.535-1.523h30.375c.85 0 1.534.68 1.534 1.522zM187.684 86.438c0 .842-.685 1.524-1.534 1.524h-30.375c-.85 0-1.535-.682-1.535-1.524 0-.84.686-1.522 1.535-1.522h30.375c.85 0 1.534.682 1.534 1.522zM187.684 80.347c0 .84-.685 1.522-1.534 1.522h-30.375c-.85 0-1.535-.684-1.535-1.523 0-.843.686-1.524 1.535-1.524h30.375c.85 0 1.534.68 1.534 1.524z"/></g><g opacity=".3"><path d="M187.684 141.66c0 .842-.685 1.524-1.534 1.524h-30.375c-.85 0-1.535-.682-1.535-1.524 0-.84.686-1.522 1.535-1.522h30.375c.85 0 1.534.68 1.534 1.522zM187.684 135.567c0 .84-.685 1.523-1.534 1.523h-30.375c-.85 0-1.535-.682-1.535-1.523 0-.84.686-1.523 1.535-1.523h30.375c.85 0 1.534.682 1.534 1.523zM187.684 129.474c0 .842-.685 1.524-1.534 1.524h-30.375c-.85 0-1.535-.682-1.535-1.524 0-.84.686-1.523 1.535-1.523h30.375c.85 0 1.534.683 1.534 1.524zM187.684 123.38c0 .84-.685 1.524-1.534 1.524h-30.375a1.53 1.53 0 0 1-1.535-1.524 1.53 1.53 0 0 1 1.535-1.524h30.375c.85 0 1.534.682 1.534 1.524z"/></g><path fill="#CEAD84" d="M178.766 63.98h8.25v7.542h-8.25z"/><path fill="#CEAD84" d="M179.067 63.98v46.923h-45.13c-3.296 0-5.97-3.37-5.97-7.53V63.98h51.1z"/><path fill="#FFE4C0" d="M187.018 63.98c-4.37 0-7.91 3.518-7.91 7.856h15.817c0-4.338-3.54-7.856-7.907-7.856z"/><path opacity=".2" fill="#FFF" d="M128.43 68.658H180s1.983-3.934 5.827-4.512c3.845-.58 0-.123 0-.123l-52.7.103s-3.146.395-4.696 4.532z"/><path fill="#CEAD84" d="M166.363 122.76c-7.017 0-12.705-5.647-12.705-12.614h25.407c0 6.966-5.685 12.615-12.702 12.615z"/><path fill="#FFE4C0" d="M153.705 60.415v62.077h-72.48c-5.294 0-9.588-4.46-9.588-9.963V60.414h82.068z"/><path opacity=".3" d="M121.037 55.88C113.87 57.287 112 56.92 98 57.563V105h7.944c.088 2 .41 3 .958 4H98v7.762l17.705.015c.842.175 1.863.223 2.758.223.068 0 .208-.032.276-.033.263.02.432-.153.3-.19 6.542-.235 2.923 6.724 13.18 6.035l.087-66.554s-3.205-.972-11.27-.378z"/><path fill="#FFE4C0" d="M165.432 122.492s-10.655-.063-11.773-12.113c-1.12-12.05-4.525 2.32-4.525 2.32l-.24 9.67 16.537.122z"/><path opacity=".05" d="M71.954 115.047h82.822s3.188 6.317 9.36 7.247c6.177.93 0 .198 0 .198l-84.642-.166s-5.048-.635-7.54-7.28z"/><g opacity=".3"><path d="M148.962 106.56c0 .84-.686 1.523-1.534 1.523h-30.376c-.85 0-1.535-.682-1.535-1.523 0-.84.687-1.523 1.535-1.523h30.376c.848 0 1.534.682 1.534 1.523zM148.962 100.466a1.53 1.53 0 0 1-1.534 1.523h-30.376a1.53 1.53 0 0 1-1.535-1.524c0-.84.687-1.523 1.535-1.523h30.376c.848 0 1.534.682 1.534 1.523zM148.962 94.373c0 .842-.686 1.523-1.534 1.523h-30.376c-.85 0-1.535-.68-1.535-1.523 0-.84.687-1.523 1.535-1.523h30.376c.848 0 1.534.682 1.534 1.523zM148.962 88.28a1.53 1.53 0 0 1-1.534 1.523h-30.376a1.53 1.53 0 0 1-1.535-1.524c0-.842.687-1.524 1.535-1.524h30.376c.848 0 1.534.682 1.534 1.523zM148.962 82.186a1.53 1.53 0 0 1-1.534 1.524h-30.376a1.53 1.53 0 0 1-1.535-1.524c0-.84.687-1.523 1.535-1.523h30.376c.848 0 1.534.682 1.534 1.523zM148.962 76.092c0 .842-.686 1.524-1.534 1.524h-30.376a1.53 1.53 0 0 1-1.535-1.524c0-.84.687-1.523 1.535-1.523h30.376c.848 0 1.534.68 1.534 1.522zM148.962 70a1.53 1.53 0 0 1-1.534 1.523h-30.376A1.53 1.53 0 0 1 115.517 70c0-.842.687-1.524 1.535-1.524h30.376c.848 0 1.534.682 1.534 1.523z"/></g><path fill="#CEAD84" d="M141 49H46v62.475c0 6.68 4.272 11.525 9.566 11.525H128V61h13V49z"/><path fill="#CEAD84" d="M115.345 135.427c-7.017 0-12.704-5.648-12.704-12.615h25.407c0 6.967-5.687 12.615-12.702 12.615z"/><path fill="#FFE4C0" d="M140.815 48.208c-7.018 0-12.705 5.65-12.705 12.617h25.407c0-6.968-5.686-12.617-12.702-12.617z"/><path fill-rule="evenodd" clip-rule="evenodd" fill="#18A538" d="M24.963 62.93c-.966.165-1.198.807.878 2.225.26-.07 2.045-.47 1 .604 3.222-1.912-.228-3.12-1.877-2.83zM24.963 49.24c3.476-1.405 4.275-10.49.138-10.222-.265 0-.534.133-.874.258 1.732 3.17-2.264 7.206.737 9.963zM64.847 56.766c.274-1.895-2.762-3.29-4.13-3.21-.796.055-.95.62.522 1.982-1.38 3.225 2.29 3.4 3.607 1.228zM33.786 33.11c1.002-.463 1.482-2.116 0-2.116-.268-.07-.47-.14-.74-.124-.266.008-.533.103-.73.124-2.93.58-2.04 5.406 1.47 2.117z"/><path fill-rule="evenodd" clip-rule="evenodd" fill="#18A538" d="M37.892 31.98c-4.24.534-8.52 4.6-4.576 8.625 2.826 3.502-4.077 10.647 2.473 12.48 2.6-5.774 9.71-10.348 7.952-17.39-.736-3-3.296-4.034-5.85-3.714z"/><path opacity=".3" d="M102.63 48.137l-.026 74.976s.908 11.66 11.72 12.227c-2.886-.873-8.323-1.828-8.323-12.575v-74.29l-3.37-.338z"/><path opacity=".2" fill="#FFF" d="M46.356 55.722h82.822s3.187-6.317 9.36-7.246c-7.016 0-11.706.202-11.706.202l-72.936-.234s-5.047.634-7.54 7.278z"/><path fill="#FFE4C0" d="M93.115 12.163c5.294 0 9.587 4.46 9.587 9.965V74.24H20.635V12.163h72.48z"/><path fill="#FFE4C0" d="M102.688 73.082v62.077H30.206c-5.295 0-9.587-4.462-9.587-9.965V73.082h82.068z"/><path opacity=".3" d="M58.618 77.49c0 1.683-1.374 3.047-3.068 3.047H28.515a3.057 3.057 0 0 1-3.068-3.047V63.4a3.056 3.056 0 0 1 3.068-3.048H55.55c1.694 0 3.068 1.364 3.068 3.047v14.09z"/><g opacity=".3"><path d="M58.892 122.812a1.53 1.53 0 0 1-1.534 1.523h-30.38a1.528 1.528 0 0 1-1.532-1.523c0-.84.687-1.522 1.533-1.522h30.377c.847 0 1.535.68 1.535 1.522zM58.892 116.72a1.53 1.53 0 0 1-1.534 1.522h-30.38a1.53 1.53 0 0 1-1.532-1.523c0-.842.687-1.524 1.533-1.524h30.377a1.53 1.53 0 0 1 1.535 1.523zM58.892 110.625a1.53 1.53 0 0 1-1.534 1.524h-30.38a1.53 1.53 0 0 1-1.532-1.525c0-.84.687-1.523 1.533-1.523h30.377a1.53 1.53 0 0 1 1.535 1.523zM58.892 104.532a1.53 1.53 0 0 1-1.534 1.522h-30.38c-.846 0-1.532-.68-1.532-1.522 0-.84.687-1.523 1.533-1.523h30.377a1.53 1.53 0 0 1 1.535 1.522zM58.892 98.438a1.53 1.53 0 0 1-1.534 1.523h-30.38a1.53 1.53 0 0 1-1.532-1.522c0-.84.687-1.524 1.533-1.524h30.377c.847 0 1.535.684 1.535 1.524zM58.892 92.346a1.53 1.53 0 0 1-1.534 1.523h-30.38a1.53 1.53 0 0 1-1.532-1.524 1.53 1.53 0 0 1 1.533-1.524h30.377a1.53 1.53 0 0 1 1.535 1.524zM58.892 86.252a1.53 1.53 0 0 1-1.534 1.523h-30.38a1.528 1.528 0 0 1-1.532-1.523c0-.84.687-1.523 1.533-1.523h30.377a1.53 1.53 0 0 1 1.535 1.522z"/></g><g opacity=".3"><path d="M96.1 98.625a1.53 1.53 0 0 1-1.533 1.524H64.19a1.53 1.53 0 0 1-1.535-1.525c0-.84.688-1.523 1.535-1.523h30.376a1.53 1.53 0 0 1 1.535 1.523zM96.1 92.532a1.53 1.53 0 0 1-1.533 1.523H64.19a1.53 1.53 0 0 1-1.535-1.523c0-.84.688-1.523 1.535-1.523h30.376A1.53 1.53 0 0 1 96.1 92.53zM96.1 86.438c0 .842-.686 1.523-1.533 1.523H64.19a1.53 1.53 0 0 1-1.535-1.522c0-.84.688-1.522 1.535-1.522h30.376a1.53 1.53 0 0 1 1.535 1.522zM96.1 80.346a1.53 1.53 0 0 1-1.533 1.523H64.19a1.53 1.53 0 0 1-1.535-1.524 1.53 1.53 0 0 1 1.535-1.523h30.376c.848 0 1.535.68 1.535 1.523zM96.1 74.252a1.53 1.53 0 0 1-1.533 1.523H64.19a1.53 1.53 0 0 1-1.535-1.523c0-.84.688-1.524 1.535-1.524h30.376a1.53 1.53 0 0 1 1.535 1.524zM96.1 68.16a1.53 1.53 0 0 1-1.533 1.522H64.19a1.53 1.53 0 0 1-1.535-1.523 1.53 1.53 0 0 1 1.535-1.525h30.376A1.53 1.53 0 0 1 96.1 68.16zM96.1 62.065a1.53 1.53 0 0 1-1.533 1.523H64.19a1.53 1.53 0 0 1-1.535-1.523 1.53 1.53 0 0 1 1.535-1.523h30.376a1.53 1.53 0 0 1 1.535 1.523z"/></g><path d="M96.1 122.812a1.53 1.53 0 0 1-1.533 1.523H64.19a1.53 1.53 0 0 1-1.535-1.523c0-.84.688-1.522 1.535-1.522h30.376c.848 0 1.535.68 1.535 1.522zM96.1 116.72a1.53 1.53 0 0 1-1.533 1.522H64.19a1.53 1.53 0 0 1-1.535-1.523c0-.842.688-1.524 1.535-1.524h30.376c.848 0 1.535.682 1.535 1.523zM96.1 110.625a1.53 1.53 0 0 1-1.533 1.524H64.19a1.53 1.53 0 0 1-1.535-1.525c0-.84.688-1.523 1.535-1.523h30.376a1.53 1.53 0 0 1 1.535 1.523zM96.1 104.532c0 .84-.686 1.522-1.533 1.522H64.19c-.848 0-1.535-.68-1.535-1.522 0-.84.688-1.523 1.535-1.523h30.376a1.53 1.53 0 0 1 1.535 1.522z" opacity=".3"/><path fill="#FFE4C0" d="M114.414 135.16s-10.655-.064-11.773-12.114c-1.117-12.05-4.523 2.32-4.523 2.32l-.242 9.67 16.54.123z"/><path opacity=".05" d="M20.937 127.714h82.822s3.187 6.317 9.36 7.246c6.175.93 0 .2 0 .2l-84.642-.168s-5.05-.634-7.54-7.278z"/><path opacity=".3" d="M61.653 26.58l3.79 7.628 8.476 1.223-6.133 5.94 1.447 8.383-7.58-3.96-7.583 3.96 1.45-8.384-6.134-5.94 8.476-1.222zM93.995 38.692l-5.256-7.04a.65.65 0 0 0-.9-.133l-.128.094a.635.635 0 0 0-.135.892l4.987 6.678-4.987 6.68a.635.635 0 0 0 .135.892l.127.096c.284.21.687.15.9-.133l5.255-7.042a.626.626 0 0 0 .112-.493.628.628 0 0 0-.112-.493zM27.202 39.678l5.257 7.04a.647.647 0 0 0 .898.133l.13-.094a.635.635 0 0 0 .132-.892l-4.986-6.68 4.986-6.678a.635.635 0 0 0-.133-.892l-.13-.095a.646.646 0 0 0-.898.13L27.2 38.693a.625.625 0 0 0-.11.492c-.032.17 0 .346.11.494z"/><path fill="#444" d="M102.702 19.32v-5.46c0-1.007-.82-1.823-1.834-1.823h-78.4c-1.012 0-1.833.816-1.833 1.822v5.46h82.067z"/><ellipse fill="#2CB740" cx="24.641" cy="15.774" rx="1.45" ry="1.44"/><ellipse fill="#F16442" cx="29.063" cy="15.774" rx="1.451" ry="1.44"/><path fill="#FFF" d="M99.675 15.688c0 .795-.65 1.44-1.45 1.44h-65.35a1.45 1.45 0 0 1-1.45-1.44c0-.797.654-1.44 1.45-1.44h65.35c.8 0 1.45.644 1.45 1.44z"/><path opacity=".3" d="M153.47 63.622l-.108 46.91s1.03 11.658 11.84 12.225c-2.885-.872-8.2-1.828-8.2-12.574V63.96l-3.533-.338zM186.2 63.98c-3.31.362-7.055 2.875-7.093 7.84h2.32s-.248-4.478 4.773-7.84zM139.274 48.364c-12.32 1.724-11.178 14.52-11.164 12.46 3.45 0 4.292-.028 4.292-.028s-.59-7.435 6.872-12.432z"/></g><g><path fill="#444" d="M102.687 21.967v-9.434c0-1.005-.82-1.822-1.832-1.822H22.45c-1.01 0-1.83.817-1.83 1.823v9.434h82.067z"/><ellipse fill="#2CB740" cx="25.318" cy="16.274" rx="2.144" ry="2.127"/><path fill="#F16442" d="M33.997 16.274c0 1.175-.96 2.127-2.146 2.127a2.136 2.136 0 0 1-2.14-2.126c0-1.175.96-2.128 2.14-2.128 1.187 0 2.147.953 2.147 2.128z"/><path fill="#FFF" d="M99.86 16.34c0 1.4-1.145 2.535-2.553 2.535H37.96c-1.4 0-2.553-1.135-2.553-2.534 0-1.4 1.153-2.535 2.553-2.535h59.348a2.543 2.543 0 0 1 2.552 2.536z"/></g><path opacity=".3" d="M220.417 11.4c-4.742.52-10.11 4.122-10.166 11.237h3.328s-.357-6.418 6.84-11.236z"/><g opacity=".3"><path d="M270.938 81.34a1.93 1.93 0 0 1-1.473 2.306 1.945 1.945 0 0 1-2.32-1.462l-8.363-37.116a1.93 1.93 0 0 1 1.473-2.306 1.942 1.942 0 0 1 2.32 1.462l8.363 37.116z"/><path d="M269.423 49.345a2.206 2.206 0 0 1-1.683 2.635l-4.882 1.085a2.22 2.22 0 0 1-2.652-1.672l-1.364-6.057a2.206 2.206 0 0 1 1.683-2.635l4.882-1.084a2.22 2.22 0 0 1 2.65 1.672l1.366 6.057zM274.604 81.098c.17.75-.305 1.49-1.06 1.66l-4.608 1.023a1.397 1.397 0 0 1-1.67-1.05l-.65-2.882a1.39 1.39 0 0 1 1.062-1.66l4.608-1.023c.754-.168 1.5.303 1.67 1.052l.648 2.88z"/><path opacity=".2" d="M274.304 79.76l-.348-1.544a1.398 1.398 0 0 0-1.67-1.052l-4.608 1.024a1.39 1.39 0 0 0-1.06 1.66l.348 1.544 7.338-1.63z"/><path d="M398.278 57.977c.506 2.246-.916 4.475-3.18 4.978l-8.36 1.858c-2.263.503-.495-1.803-1.002-4.05l-2.52-11.186c-.507-2.245-3.095-3.583-.832-4.086l8.36-1.857c2.264-.503 4.506.912 5.014 3.158l2.52 11.187z"/><path opacity=".2" d="M397.057 52.553l-1.298-5.763c-.51-2.246-2.75-3.66-5.015-3.158l-8.36 1.858c-2.263.503.325 1.84.83 4.086l1.3 5.764 12.542-2.787z"/><path d="M272.76 83.637a2.6 2.6 0 0 0 3.106 1.958l5.186-1.152c1.404-.312-.2-1.142-.514-2.535l-1.564-6.937c-.313-1.393.78-2.822-.62-2.51l-5.186 1.152a2.586 2.586 0 0 0-1.974 3.086l1.565 6.94z"/><path opacity=".2" d="M272 80.273l-.806-3.574a2.585 2.585 0 0 1 1.974-3.087l5.186-1.152c1.4-.31.307 1.118.62 2.512l.807 3.573-7.78 1.728z"/><path d="M393.442 65.934c.505 2.246-.918 4.475-3.18 4.978L283.907 94.545c-2.262.502-4.506-.913-5.01-3.158l-5.4-23.957c-.506-2.246.92-4.477 3.18-4.978l106.355-23.634c2.262-.502 4.506.912 5.013 3.158l5.397 23.958z"/><path d="M295.044 143.978h83.575l21.9-4.867c2.263-.5 3.688-2.728 3.182-4.976l-14.767-65.538c-.506-2.246-2.75-3.66-5.013-3.158L286.526 87.08c-2.26.502-3.686 2.732-3.18 4.978l11.698 51.92z"/><path opacity=".3" d="M277.724 86.188l1.173 5.2c.505 2.244 2.75 3.66 5.01 3.157l106.356-23.633c2.262-.503 3.685-2.732 3.18-4.978l-1.172-5.2L277.725 86.19z"/><path opacity=".4" d="M388.3 43.11l-.255-1.13c-.507-2.247-2.75-3.662-5.013-3.16L276.678 62.453c-2.26.503-3.687 2.733-3.18 4.98l.255 1.13L388.3 43.108z"/><path d="M295.046 143.978h70.757l34.106-7.58c2.26-.5 3.687-2.728 3.18-4.977l-14.766-65.537c-.507-2.245-2.752-3.66-5.013-3.157L285.916 84.37c-2.26.502-3.686 2.73-3.18 4.978l12.31 54.63z"/><path d="M295.046 143.978h38.72l64.616-14.358c2.262-.503 3.688-2.73 3.18-4.98l-14.766-65.536c-.505-2.245-2.752-3.66-5.012-3.157l-97.394 21.64c-2.264.503-3.688 2.733-3.182 4.98l13.838 61.41z"/><path opacity=".13" d="M381.784 55.946L284.39 77.588c-2.264.502-3.688 2.732-3.182 4.978l5.576 24.747L392.372 83.85l-5.576-24.746c-.505-2.246-2.752-3.66-5.012-3.158z"/><path d="M305.74 143.978l87.21-19.38-7.842-34.803-89.203 19.82 7.743 34.363z"/><path d="M372.374 120.478a3.266 3.266 0 0 1-2.492 3.9l-44.595 9.91c-1.77.393-3.532-.715-3.927-2.474a3.265 3.265 0 0 1 2.49-3.9l44.598-9.91c1.772-.395 3.53.712 3.926 2.474zM385.03 107.277a3.27 3.27 0 0 1-2.492 3.902 3.292 3.292 0 0 1-3.928-2.477c-.396-1.76.72-3.505 2.492-3.9 1.774-.392 3.533.716 3.927 2.474zM374.405 109.64a3.264 3.264 0 0 1-2.49 3.9c-1.773.394-3.53-.714-3.928-2.475-.396-1.76.72-3.505 2.492-3.9 1.77-.393 3.53.715 3.925 2.474zM363.782 112a3.266 3.266 0 0 1-2.49 3.9c-1.77.394-3.53-.714-3.928-2.476a3.265 3.265 0 0 1 2.492-3.898c1.772-.394 3.53.714 3.926 2.473zM353.16 114.36a3.267 3.267 0 0 1-2.49 3.9 3.293 3.293 0 0 1-3.93-2.475 3.268 3.268 0 0 1 2.49-3.9c1.775-.392 3.534.716 3.93 2.474zM342.536 116.72a3.268 3.268 0 0 1-2.49 3.902 3.293 3.293 0 0 1-3.93-2.476c-.395-1.758.72-3.504 2.49-3.898 1.776-.395 3.534.714 3.93 2.472zM331.913 119.082a3.267 3.267 0 0 1-2.49 3.9 3.293 3.293 0 0 1-3.93-2.475c-.396-1.76.72-3.504 2.492-3.9a3.29 3.29 0 0 1 3.928 2.475zM321.288 121.44a3.265 3.265 0 0 1-2.49 3.902 3.29 3.29 0 0 1-3.927-2.476 3.264 3.264 0 0 1 2.492-3.898c1.772-.393 3.53.715 3.926 2.473zM310.666 123.802a3.267 3.267 0 0 1-2.49 3.9 3.29 3.29 0 0 1-3.928-2.474 3.264 3.264 0 0 1 2.49-3.898c1.773-.394 3.53.713 3.928 2.472zM377.837 100.105c.397 1.762-.72 3.507-2.49 3.9-1.775.395-3.533-.712-3.93-2.475-.396-1.758.72-3.504 2.492-3.897 1.77-.394 3.53.714 3.927 2.472zM367.212 102.466a3.268 3.268 0 0 1-2.49 3.902c-1.772.394-3.53-.713-3.928-2.476a3.264 3.264 0 0 1 2.492-3.898c1.772-.394 3.53.714 3.926 2.472zM356.59 104.827a3.267 3.267 0 0 1-2.49 3.9 3.29 3.29 0 0 1-3.928-2.475 3.264 3.264 0 0 1 2.49-3.898c1.773-.394 3.53.715 3.927 2.473zM345.966 107.188a3.267 3.267 0 0 1-2.492 3.9 3.29 3.29 0 0 1-3.926-2.475 3.265 3.265 0 0 1 2.49-3.898c1.774-.394 3.53.714 3.928 2.473zM335.343 109.548a3.265 3.265 0 0 1-2.492 3.9 3.288 3.288 0 0 1-3.926-2.473 3.267 3.267 0 0 1 2.49-3.9c1.773-.393 3.532.715 3.93 2.473zM324.718 111.908a3.265 3.265 0 0 1-2.49 3.9 3.286 3.286 0 0 1-3.926-2.474 3.265 3.265 0 0 1 2.49-3.9c1.77-.392 3.53.716 3.926 2.474zM314.095 114.27a3.266 3.266 0 0 1-2.49 3.9 3.288 3.288 0 0 1-3.926-2.474 3.264 3.264 0 0 1 2.49-3.9 3.288 3.288 0 0 1 3.925 2.474z"/><g><path d="M381.946 118.35a3.265 3.265 0 0 1-2.492 3.9 3.29 3.29 0 0 1-3.928-2.475c-.396-1.76.722-3.505 2.494-3.9 1.77-.393 3.53.715 3.926 2.475zM318.204 132.513a3.265 3.265 0 0 1-2.49 3.9 3.29 3.29 0 0 1-3.926-2.474 3.265 3.265 0 0 1 2.49-3.9c1.772-.394 3.53.713 3.926 2.473z"/></g><path d="M381.226 50.553a2.605 2.605 0 0 1-1.988 3.11l-93.525 20.783a2.624 2.624 0 0 1-3.133-1.974 2.603 2.603 0 0 1 1.988-3.11l93.525-20.782a2.624 2.624 0 0 1 3.133 1.973zM313.096 70.677l-10.06 17.18c10.414 6.416 23.268 8.954 36.175 6.086 12.91-2.87 23.443-10.603 30.11-20.816l-16.47-11.284-39.754 8.834z"/><path opacity=".2" d="M338.474 90.665c-11.984 2.663-23.96.48-34.008-5.252l-1.43 2.442c10.414 6.417 23.268 8.955 36.175 6.087 12.91-2.87 23.443-10.603 30.11-20.816l-2.343-1.603c-6.63 9.44-16.523 16.48-28.503 19.142zM376.09 51.752l-89.03 19.784.497 2.203 89.03-19.784z"/><path d="M320.31 66.76l.857 3.8a3.073 3.073 0 0 0 3.67 2.313l18.334-4.075a3.052 3.052 0 0 0 2.327-3.644l-.857-3.803-24.33 5.41z"/><path opacity=".2" d="M320.31 66.76l.857 3.8a3.073 3.073 0 0 0 3.67 2.313l18.334-4.075a3.052 3.052 0 0 0 2.327-3.644l-.857-3.803-24.33 5.41zM269.466 49.926c.008-.19 0-.385-.043-.58l-1.365-6.058a2.22 2.22 0 0 0-2.65-1.672l-4.883 1.085a2.208 2.208 0 0 0-1.734 2.173l10.676 5.053z"/><path d="M270.944-.022l16.7 74.115 90.114-20.024L365.57-.023z"/><g opacity=".3"><path d="M371.16 48.97c.212.95-.39 1.89-1.345 2.102l-76.275 16.95a1.772 1.772 0 0 1-2.116-1.334 1.76 1.76 0 0 1 1.343-2.102l76.275-16.95a1.774 1.774 0 0 1 2.117 1.335zM369.61 42.1c.215.948-.39 1.89-1.342 2.103L291.99 61.15a1.77 1.77 0 0 1-2.113-1.332 1.76 1.76 0 0 1 1.342-2.102l76.273-16.95a1.773 1.773 0 0 1 2.117 1.333zM368.063 35.23c.213.95-.39 1.89-1.344 2.102l-76.275 16.95a1.774 1.774 0 0 1-2.117-1.335 1.76 1.76 0 0 1 1.343-2.1l76.276-16.95a1.776 1.776 0 0 1 2.117 1.332zM366.515 28.36a1.76 1.76 0 0 1-1.344 2.1l-76.273 16.95a1.772 1.772 0 0 1-2.116-1.332 1.758 1.758 0 0 1 1.343-2.1l76.276-16.95a1.77 1.77 0 0 1 2.115 1.33zM364.966 21.49a1.76 1.76 0 0 1-1.342 2.1L287.35 40.54a1.774 1.774 0 0 1-2.118-1.333 1.764 1.764 0 0 1 1.344-2.102l76.273-16.95a1.775 1.775 0 0 1 2.116 1.334zM363.42 14.62c.212.948-.39 1.89-1.343 2.103l-76.275 16.95a1.77 1.77 0 0 1-2.115-1.334 1.76 1.76 0 0 1 1.34-2.104l76.275-16.95a1.773 1.773 0 0 1 2.117 1.335zM361.872 7.75c.213.95-.39 1.892-1.344 2.104l-76.275 16.95a1.772 1.772 0 0 1-2.115-1.335 1.76 1.76 0 0 1 1.342-2.103l76.275-16.95a1.775 1.775 0 0 1 2.117 1.334z"/></g><g><path d="M281.064-.022l-2.81.625a1.763 1.763 0 0 0-1.344 2.102 1.775 1.775 0 0 0 2.118 1.333l18.27-4.06h-16.234z" opacity=".3"/></g><path opacity=".3" d="M315.61.96c-.092-.415-.206-.774-.445-.982h-1.544L280.15 7.416c-.944.21-1.57.987-1.402 1.735l2.14 9.492c.168.75 1.068 1.187 2.012.977l34.132-7.586c.942-.208.888-.834.72-1.583L315.61.96zM358.4-.022h-38.7c.004.024.002.048.006.072l2.14 9.49c.168.75 1.067 1.188 2.01.978l34.134-7.585c.94-.208.89-.834.72-1.583l-.31-1.372z"/></g><g><path fill="#C6C6C6" d="M274.683 76.277a1.933 1.933 0 0 1-1.473 2.306 1.946 1.946 0 0 1-2.322-1.462l-8.363-37.115a1.93 1.93 0 0 1 1.473-2.306 1.943 1.943 0 0 1 2.322 1.46l8.363 37.117z"/><path fill="#C6C6C6" d="M273.166 44.282a2.205 2.205 0 0 1-1.683 2.635l-4.88 1.085a2.22 2.22 0 0 1-2.652-1.672l-1.365-6.057a2.205 2.205 0 0 1 1.684-2.634l4.878-1.086a2.222 2.222 0 0 1 2.654 1.672l1.364 6.056z"/><path fill="#9D9D9C" d="M278.35 76.034c.168.75-.307 1.492-1.06 1.66l-4.61 1.023a1.4 1.4 0 0 1-1.67-1.053l-.65-2.88a1.39 1.39 0 0 1 1.062-1.66l4.608-1.025c.754-.17 1.5.302 1.67 1.05l.65 2.884z"/><path opacity=".2" d="M278.047 74.698l-.348-1.546a1.398 1.398 0 0 0-1.67-1.052l-4.61 1.024a1.39 1.39 0 0 0-1.06 1.66l.348 1.545 7.34-1.632z"/><path fill="#C6C6C6" d="M402.022 52.914c.507 2.246-.916 4.475-3.182 4.978l-8.36 1.858c-2.262.502-.495-1.804-1-4.05l-2.52-11.186c-.51-2.246-3.097-3.584-.834-4.087l8.362-1.858c2.264-.504 4.506.91 5.013 3.157l2.522 11.187z"/><path opacity=".2" d="M400.8 47.49l-1.298-5.763c-.507-2.246-2.75-3.66-5.013-3.158l-8.363 1.857c-2.263.503.325 1.84.834 4.087l1.3 5.763 12.54-2.787z"/><path fill="#C6C6C6" d="M276.502 78.574a2.602 2.602 0 0 0 3.107 1.96l5.186-1.152c1.402-.313-.2-1.143-.516-2.536l-1.562-6.938c-.314-1.393.78-2.822-.623-2.51l-5.186 1.15a2.583 2.583 0 0 0-1.972 3.087l1.564 6.94z"/><path opacity=".2" d="M275.743 75.21l-.805-3.575a2.583 2.583 0 0 1 1.97-3.086l5.187-1.153c1.402-.312.31 1.118.623 2.51l.805 3.574-7.78 1.73z"/><path fill="#445258" d="M397.185 60.87c.506 2.247-.916 4.477-3.18 4.98L287.65 89.48c-2.26.502-4.507-.912-5.01-3.158l-5.4-23.956c-.507-2.246.92-4.477 3.18-4.978l106.355-23.634c2.264-.503 4.506.912 5.012 3.158l5.398 23.957z"/><path fill="#445258" d="M299.93 143.978h59.65l44.685-9.93c2.262-.503 3.686-2.73 3.18-4.978L392.68 63.533c-.507-2.246-2.75-3.66-5.015-3.157L290.27 82.018c-2.26.502-3.687 2.73-3.18 4.978l12.84 56.982z"/><path opacity=".3" d="M281.468 81.126l1.172 5.198c.504 2.246 2.75 3.66 5.012 3.158L394.006 65.85c2.264-.503 3.686-2.733 3.18-4.98l-1.172-5.198-114.546 25.454z"/><path opacity=".4" d="M392.042 38.047l-.254-1.13c-.506-2.247-2.75-3.66-5.014-3.16L280.42 57.392c-2.26.504-3.685 2.733-3.18 4.98l.256 1.13 114.546-25.453z"/><path fill="#375E80" d="M299.93 143.978h46.832l56.892-12.642c2.262-.503 3.688-2.73 3.18-4.978L392.067 60.82c-.506-2.245-2.752-3.66-5.014-3.157L289.66 79.306c-2.263.502-3.687 2.732-3.18 4.98l13.45 59.692z"/><path fill="#60B0BE" d="M299.718 143.04c.076.336.2.644.346.938h14.66l87.403-19.42c2.26-.503 3.685-2.73 3.18-4.98L390.54 54.042c-.505-2.244-2.752-3.66-5.014-3.156L288.13 72.526c-2.26.503-3.685 2.732-3.18 4.98l14.768 65.535z"/><path opacity=".13" fill="#FFF" d="M385.526 50.884L288.13 72.526c-2.26.503-3.685 2.732-3.18 4.98l5.575 24.744 105.59-23.462-5.576-24.746c-.505-2.246-2.752-3.66-5.014-3.158z"/><path fill="#445258" d="M396.694 119.536l-89.203 19.82-7.843-34.802 89.207-19.822z"/><path fill="#FFF" d="M376.12 115.415c.395 1.758-.72 3.505-2.494 3.898l-44.595 9.91c-1.773.394-3.53-.714-3.928-2.472a3.266 3.266 0 0 1 2.492-3.9l44.596-9.91c1.774-.394 3.533.714 3.93 2.475zM388.773 102.215a3.267 3.267 0 0 1-2.49 3.9c-1.773.395-3.532-.713-3.93-2.475-.395-1.758.72-3.505 2.49-3.9 1.775-.392 3.534.716 3.93 2.475zM378.15 104.576a3.268 3.268 0 0 1-2.49 3.9 3.293 3.293 0 0 1-3.93-2.474c-.397-1.76.72-3.505 2.493-3.9 1.77-.393 3.53.715 3.926 2.474zM367.524 106.936a3.267 3.267 0 0 1-2.49 3.902 3.29 3.29 0 0 1-3.926-2.476c-.396-1.76.718-3.505 2.49-3.9s3.53.717 3.926 2.474zM356.903 109.297a3.268 3.268 0 0 1-2.492 3.902 3.29 3.29 0 0 1-3.925-2.477 3.263 3.263 0 0 1 2.49-3.898 3.288 3.288 0 0 1 3.928 2.472zM346.28 111.657a3.27 3.27 0 0 1-2.492 3.902 3.292 3.292 0 0 1-3.928-2.478 3.266 3.266 0 0 1 2.49-3.898c1.774-.394 3.534.714 3.93 2.473zM335.655 114.018a3.267 3.267 0 0 1-2.488 3.9 3.293 3.293 0 0 1-3.932-2.474c-.395-1.76.72-3.505 2.492-3.9 1.774-.393 3.532.715 3.928 2.474zM325.032 116.38a3.266 3.266 0 0 1-2.49 3.9 3.29 3.29 0 0 1-3.928-2.476 3.265 3.265 0 0 1 2.49-3.898c1.772-.394 3.533.714 3.928 2.473zM314.408 118.74a3.265 3.265 0 0 1-2.49 3.9 3.288 3.288 0 0 1-3.927-2.476c-.395-1.76.72-3.505 2.49-3.898s3.533.714 3.928 2.473zM381.58 95.042a3.268 3.268 0 0 1-2.49 3.902 3.29 3.29 0 0 1-3.93-2.475c-.396-1.76.72-3.506 2.492-3.9 1.773-.393 3.53.715 3.927 2.472zM370.954 97.403a3.265 3.265 0 0 1-2.488 3.9 3.29 3.29 0 0 1-3.927-2.474 3.266 3.266 0 0 1 2.488-3.9c1.772-.393 3.53.716 3.926 2.473zM360.33 99.764a3.265 3.265 0 0 1-2.49 3.9c-1.77.395-3.528-.712-3.924-2.474a3.266 3.266 0 0 1 2.49-3.9c1.77-.393 3.53.716 3.925 2.474zM349.708 102.125a3.264 3.264 0 0 1-2.49 3.9 3.29 3.29 0 0 1-3.928-2.475c-.396-1.76.72-3.505 2.49-3.898 1.774-.394 3.532.714 3.928 2.473zM339.086 104.485a3.266 3.266 0 0 1-2.49 3.9c-1.772.395-3.532-.712-3.93-2.475a3.264 3.264 0 0 1 2.493-3.898c1.77-.393 3.53.716 3.926 2.473zM328.463 106.847a3.266 3.266 0 0 1-2.49 3.9 3.288 3.288 0 0 1-3.93-2.475c-.395-1.758.72-3.504 2.493-3.9 1.77-.393 3.53.716 3.927 2.475zM317.837 109.207a3.263 3.263 0 0 1-2.488 3.9 3.29 3.29 0 0 1-3.93-2.475c-.395-1.758.72-3.504 2.49-3.9 1.774-.392 3.53.716 3.927 2.475z"/><g><path fill="#FFF" d="M385.69 113.286a3.267 3.267 0 0 1-2.492 3.9c-1.77.394-3.53-.714-3.928-2.474s.72-3.505 2.492-3.9c1.773-.392 3.53.715 3.927 2.474zM321.948 127.45c.396 1.76-.72 3.507-2.49 3.9s-3.528-.715-3.926-2.474a3.265 3.265 0 0 1 2.49-3.9c1.772-.393 3.53.714 3.926 2.475z"/></g><path fill="#1D1D1B" d="M384.97 45.49a2.606 2.606 0 0 1-1.988 3.11l-93.524 20.783a2.627 2.627 0 0 1-3.135-1.974 2.606 2.606 0 0 1 1.988-3.112l93.525-20.782a2.63 2.63 0 0 1 3.135 1.974z"/><path fill="#445258" d="M316.84 65.613l-10.062 17.18c10.415 6.417 23.27 8.955 36.176 6.086s23.444-10.604 30.11-20.817l-16.47-11.283-39.755 8.833z"/><path opacity=".2" d="M342.216 85.603c-11.984 2.663-23.957.48-34.006-5.252l-1.432 2.443c10.415 6.418 23.27 8.956 36.176 6.087s23.444-10.603 30.11-20.816l-2.343-1.604c-6.628 9.44-16.524 16.48-28.504 19.143zM379.833 46.69l-89.03 19.784.498 2.202 89.03-19.783z"/><path fill="#FFE4C0" d="M324.054 61.696l.855 3.803a3.074 3.074 0 0 0 3.668 2.31l18.335-4.074c1.656-.37 2.697-2 2.327-3.644l-.856-3.803-24.33 5.406z"/><path opacity=".2" d="M324.054 61.696l.855 3.803a3.074 3.074 0 0 0 3.668 2.31l18.335-4.074c1.656-.37 2.697-2 2.327-3.644l-.856-3.803-24.33 5.406zM273.208 44.862a2.04 2.04 0 0 0-.042-.58l-1.364-6.057a2.224 2.224 0 0 0-2.654-1.672l-4.88 1.085a2.208 2.208 0 0 0-1.735 2.172l10.675 5.052z"/><path fill="#FFE4C0" d="M275.828-.022l15.56 69.053L381.5 49.008 370.455-.023z"/><g opacity=".3"><path d="M374.9 43.908a1.76 1.76 0 0 1-1.343 2.1l-76.274 16.95a1.773 1.773 0 0 1-2.116-1.333 1.76 1.76 0 0 1 1.342-2.102l76.274-16.95a1.773 1.773 0 0 1 2.117 1.335zM373.354 37.036c.214.95-.39 1.89-1.343 2.103l-76.274 16.948a1.77 1.77 0 0 1-2.115-1.334 1.758 1.758 0 0 1 1.343-2.1l76.275-16.95a1.774 1.774 0 0 1 2.116 1.332zM371.806 30.167a1.76 1.76 0 0 1-1.344 2.103l-76.275 16.95a1.772 1.772 0 0 1-2.114-1.336 1.758 1.758 0 0 1 1.34-2.1l76.276-16.95a1.773 1.773 0 0 1 2.116 1.333zM370.26 23.296c.212.95-.392 1.89-1.345 2.102l-76.275 16.95a1.77 1.77 0 0 1-2.116-1.333 1.76 1.76 0 0 1 1.344-2.102l76.274-16.95a1.775 1.775 0 0 1 2.117 1.333zM368.71 16.427a1.76 1.76 0 0 1-1.342 2.102l-76.276 16.948a1.774 1.774 0 0 1-2.117-1.333 1.764 1.764 0 0 1 1.343-2.102l76.275-16.95a1.775 1.775 0 0 1 2.117 1.334zM367.163 9.56c.213.946-.39 1.89-1.344 2.1l-76.276 16.95a1.774 1.774 0 0 1-2.116-1.334 1.76 1.76 0 0 1 1.343-2.102l76.277-16.95c.953-.212 1.9.385 2.116 1.335zM365.615 2.688c.213.948-.39 1.89-1.343 2.102l-76.275 16.95a1.773 1.773 0 0 1-2.116-1.334 1.76 1.76 0 0 1 1.343-2.1l76.274-16.95a1.775 1.775 0 0 1 2.118 1.332z"/></g><path opacity=".3" d="M320.272-.022h-25.69L283.89 2.354c-.942.21-1.568.986-1.4 1.735l2.14 9.49c.167.75 1.07 1.187 2.01.977l34.134-7.585c.94-.208.89-.834.72-1.583l-1.222-5.412zM324.575-.022l1.014 4.5c.167.75 1.067 1.187 2.01.977l24.65-5.478h-27.675z"/></g></svg>