<svg xmlns="http://www.w3.org/2000/svg" width="410.244" height="324.523" viewBox="0 0 410.244 324.523"><ellipse opacity=".1" fill="#020202" cx="206.001" cy="317.124" rx="204.243" ry="7.399"/><path fill="#61A5A3" d="M292.294 264.212l-11.634-3.85.01 5.27 10.666 1.303zM370.23 88.445a.864.864 0 0 1-1.218.09l-15.014-12.99a.865.865 0 0 1-.09-1.217l33.884-39.17a.867.867 0 0 1 1.22-.088l15.013 12.988c.36.312.4.856.09 1.218l-33.884 39.17z"/><path opacity=".2" fill="#020202" d="M378.05 76.012l26.467-27.53-15.505-13.412z"/><path opacity=".1" fill="#020202" d="M370.23 88.445c-.31.362-.637.59-.727.513l-3.744-3.24c-.09-.076.09-.432.4-.79l33.884-39.173c.312-.36.638-.59.728-.51l3.744 3.237c.09.078-.09.433-.402.794l-33.883 39.17z"/><path fill="#CCC" d="M346.416 125.198a1.317 1.317 0 0 1-1.854.134l-22.847-19.764a1.31 1.31 0 0 1-.133-1.852l51.553-59.598a1.313 1.313 0 0 1 1.853-.137l22.847 19.765c.55.476.608 1.303.135 1.854l-51.554 59.598z"/><path opacity=".4" fill="#FFF" d="M330.583 112.782c-.474.548-.93.933-1.017.858l-3.628-3.138c-.088-.075.228-.582.7-1.13l51.556-59.6c.474-.547.93-.932 1.016-.856l3.63 3.14c.086.073-.23.58-.7 1.128l-51.557 59.598z"/><path opacity=".1" fill="#020202" d="M346.416 125.198c-.475.548-.953.91-1.068.812l-4.8-4.15c-.114-.098.177-.625.65-1.172l51.556-59.6c.475-.547.953-.912 1.068-.814l4.8 4.153c.112.1-.178.624-.652 1.176l-51.554 59.595z"/><path fill="#516071" d="M392.865 71.5c-.055.062-.545-.273-1.093-.747L368.925 50.99c-.547-.476-.948-.91-.896-.973l5.866-6.78c.053-.06.54.27 1.09.745l22.847 19.764c.55.476.95.91.896.974l-5.865 6.78z"/><path fill="#E6E6E6" d="M265.527 204.79a2.593 2.593 0 0 1-3.635.48l-4.108-3.148a2.59 2.59 0 0 1-.48-3.634l11.25-14.677a2.593 2.593 0 0 1 3.635-.48l4.107 3.15a2.593 2.593 0 0 1 .48 3.635l-11.25 14.675zM253.64 192.046a2.588 2.588 0 0 1-3.615-.604l-3.005-4.214a2.59 2.59 0 0 1 .605-3.614l15.06-10.734a2.59 2.59 0 0 1 3.614.605l3.003 4.213a2.592 2.592 0 0 1-.605 3.616l-15.06 10.732z"/><path fill="#E6E6E6" d="M283.893 210.212a2.592 2.592 0 0 1-2.995 2.113l-5.1-.88a2.592 2.592 0 0 1-2.114-2.994l3.144-18.222a2.59 2.59 0 0 1 2.993-2.113l5.102.878a2.594 2.594 0 0 1 2.114 2.996l-3.143 18.222z"/><path fill="#4D4058" d="M228.46 278.65v38.474h10.487v-5.92c0-3.267 4.984-5.92 9.512-5.92h96.353c4.526 0 7.762 2.653 7.762 5.92v5.92h10.49V278.65H228.46z"/><path fill="#61A5A3" d="M317.87 165.496c29.623 7.932 19.355 64.267-13.204 79.496l11.453 24.9c45.29-21.082 65.73-88.124 43.158-137.204-1.025-2.227-2.138-4.38-3.293-6.5l-23.113 10.63c1.206 2.082-17.333 28.057-15.003 28.678z"/><g opacity=".1" fill="#020202"><path d="M317.87 165.496c1.9.51 3.632 1.224 5.208 2.106a20.882 20.882 0 0 0-4.78-4.386c-.608 1.327-.824 2.176-.43 2.28zM359.278 132.688c-1.025-2.227-2.138-4.38-3.293-6.5l-.126.06c.83 1.99 1.63 4.006 2.343 6.076 16.343 47.35-5.656 106.395-46.527 127.905l4.443 9.66c45.29-21.08 65.732-88.12 43.158-137.202z"/></g><path opacity=".2" fill="#020202" d="M319.373 161.095a639.592 639.592 0 0 0 11.35 10.67l24.947 58.31c15.023-29.09 17.702-66.74 3.608-97.386-1.025-2.228-2.138-4.382-3.293-6.5l-23.113 10.63c.907 1.564-9.343 16.624-13.5 24.275z"/><path opacity=".4" fill="#020202" d="M359.897 134.08l1.126 2.658-29.17 40.15s.945 1.084-2.337-3.698c-3.285-4.786 30.38-39.11 30.38-39.11z"/><path fill="#61A5A3" d="M292.268 231.256c-7.3 5.747 4.234 17.507 15.904 16.763l.507 7.303c-16.22 1.06-32.307-11.85-33.303-26.248-.045-.65-.054-1.3-.045-1.946l8.258-.57c-.028.64 9.252 4.244 8.678 4.696z"/><path fill="#5B7F8E" d="M324.09 179.433c-.397.46-.883.686-1.087.51l-8.51-7.358c-.202-.177-.047-.692.35-1.15l43.04-49.755c.396-.46.883-.688 1.09-.51l8.506 7.357c.202.177.05.69-.35 1.15l-43.04 49.756z"/><path fill="#516071" d="M294.898 197.122c-.73.84-2 .932-2.84.204l-35.027-30.298c-.84-.728-.93-2-.205-2.84l79.038-91.37c.73-.84 2-.933 2.84-.206l35.026 30.298c.84.73.932 2 .205 2.84l-79.037 91.372zM377.513 94.884c-.044.05-.636-.394-1.325-.99l-28.694-24.822c-.688-.595-1.214-1.118-1.17-1.166l4.594-5.313c.043-.048.635.396 1.325.99l28.694 24.82c.687.598 1.212 1.12 1.173 1.17l-4.597 5.31z"/><path opacity=".1" fill="#020202" d="M377.514 94.884c-.043.05-.22-.035-.398-.186l-7.363-6.372c-.177-.152-.287-.316-.244-.364l4.595-5.313c.042-.048.22.035.396.188l7.364 6.37c.178.15.286.315.246.365l-4.596 5.31z"/><path opacity=".1" fill="#FFF" d="M271.672 176.23c-.73.842-1.48 1.385-1.675 1.214l-8.233-7.123c-.2-.168.23-.99.957-1.83l79.04-91.37c.727-.84 1.48-1.385 1.676-1.212l8.233 7.12c.197.173-.234.993-.96 1.835l-79.038 91.367z"/><path opacity=".1" fill="#020202" d="M294.898 197.122c-.73.84-1.495 1.37-1.71 1.184l-9.015-7.798c-.217-.188.198-1.02.926-1.86l79.035-91.373c.726-.84 1.493-1.37 1.71-1.183l9.013 7.8c.218.187-.196 1.02-.925 1.86l-79.035 91.37z"/><path opacity=".1" fill="#020202" d="M294.898 197.122c-.727.843-1.375 1.474-1.444 1.413l-2.93-2.537c-.072-.058.462-.79 1.188-1.63l79.037-91.372c.728-.84 1.374-1.472 1.445-1.41l2.93 2.534c.07.06-.462.793-1.19 1.634L294.9 197.122z"/><path fill="#516071" d="M287.453 288.414v-28.84s1.55-15.02 15.367-15.02c9.014 0 12.846 5.76 18.95 11.865 19.82 19.82 51.077 19.27 51.077 19.27l-85.394 12.724z"/><circle opacity=".2" fill="#020202" cx="303.521" cy="259.596" r="6.321"/><circle fill="#F2EDCF" cx="303.521" cy="256.636" r="6.321"/><circle opacity=".1" fill="#020202" cx="303.521" cy="256.636" r="3.732"/><path fill="#E6E6E6" d="M260.438 257.158a3.664 3.664 0 0 1 .66 5.14l-.32.416a3.668 3.668 0 0 1-5.14.66l-27.745-21.43a3.668 3.668 0 0 1-.66-5.143l.32-.413a3.66 3.66 0 0 1 5.136-.66l27.748 21.43z"/><path opacity=".1" fill="#020202" d="M292.268 231.256c.574-.452-8.706-4.055-8.678-4.698l-8.258.57c-.01.646 0 1.295.045 1.946.106 1.53.392 3.045.822 4.526l13.84 2.84c-.253-1.91.39-3.738 2.228-5.184z"/><path fill="#5B7F8E" d="M374.426 293.448c0 .817-.782 1.48-1.747 1.48H218.844c-.964 0-1.747-.662-1.747-1.48V275.69c0-.818.783-1.48 1.747-1.48H372.68c.964 0 1.746.662 1.746 1.48v17.758z"/><path opacity=".1" fill="#FFF" d="M374.426 281.768c0 .32-.782.58-1.747.58H218.844c-.964 0-1.747-.26-1.747-.58v-6.977c0-.32.783-.58 1.747-.58H372.68c.964 0 1.746.26 1.746.58v6.978z"/><path fill="#B3B3B3" d="M282.92 259.014l-35.553-12.078a4.062 4.062 0 0 0-5.15 2.536 4.065 4.065 0 0 0 2.537 5.15l35.554 12.078 2.612-7.686z"/><path opacity=".1" fill="#020202" d="M270.132 263.225l2.61-7.688 10.177 3.456-2.612 7.688z"/><path opacity=".2" fill="#020202" d="M294.898 197.122l43.806-124.51 36.154 31.28z"/><g fill="#020202"><path opacity=".1" d="M270.324 262.682l-.19.56 2.846.97zM281.402 258.497l-3 7.554 1.906.65 2.612-7.686z"/></g><path fill="#5B7F8E" d="M291.225 223.472a3.216 3.216 0 0 1 2.364 3.886l-.762 3.126a3.214 3.214 0 0 1-3.886 2.365l-59.402-14.445a3.216 3.216 0 0 1-2.366-3.887l.76-3.127a3.22 3.22 0 0 1 3.887-2.364l59.405 14.446z"/><ellipse transform="rotate(-140.588 269.098 186.127)" fill="#B3B3B3" cx="269.104" cy="186.124" rx="29.103" ry="6.29"/><path fill="#CCC" d="M248.238 161.792a2.958 2.958 0 0 1 4.166-.405l44.588 36.642a2.96 2.96 0 0 1 .406 4.164l-2.818 3.43a2.958 2.958 0 0 1-4.165.408l-44.587-36.643a2.958 2.958 0 0 1-.408-4.167l2.818-3.43z"/><path fill="#B3B3B3" d="M93.718 149.293c0 .133.11.245.246.245h.987a.248.248 0 0 0 .248-.245.25.25 0 0 0-.247-.25h-.986a.248.248 0 0 0-.246.25zM140.453 151.658v-2.144z"/><circle opacity=".2" fill="#020202" cx="340.986" cy="151.018" r="18.912"/><path fill="#CCC" d="M359.897 148.056c0 10.447-8.467 18.914-18.91 18.914-10.446 0-18.913-8.467-18.913-18.914 0-10.44 8.467-18.91 18.912-18.91 10.445 0 18.91 8.468 18.91 18.91z"/><circle opacity=".1" fill="#020202" cx="340.986" cy="148.056" r="13.132"/><circle opacity=".2" fill="#020202" cx="349.865" cy="183.571" r="9.164"/><circle fill="#CCC" cx="349.865" cy="180.613" r="9.164"/><circle opacity=".1" fill="#020202" cx="349.865" cy="180.613" r="6.363"/><path opacity=".2" fill="#020202" d="M227.453 293.7h136v6h-136z"/><circle fill="#516071" cx="246.265" cy="250.817" r="1.265"/><path fill="#4D4058" d="M211.89 178.92c0 5.76-4.672 10.43-10.432 10.43s-10.43-4.67-10.43-10.43c0-5.762 4.67-10.43 10.43-10.43s10.43 4.668 10.43 10.43z"/><circle fill="#4D4058" cx="229.306" cy="197.26" r="4.816"/><path opacity=".1" fill="#020202" d="M348.886 130.736l-17.03 34.184a19.01 19.01 0 0 0 8.836 2.176c10.555 0 19.113-8.56 19.113-19.11 0-7.622-4.47-14.18-10.92-17.25zM353.693 171.765l-8.776 16.73a10.217 10.217 0 0 0 4.552 1.063c5.44 0 9.85-4.187 9.85-9.353 0-3.727-2.302-6.937-5.627-8.44z"/><circle fill="#F2EDCF" cx="103.165" cy="103.163" r="95.976"/><path opacity=".2" fill="#020202" d="M152.453 151.952c0 1.733-.556 2.747-2.195 2.747H61.28c-1.638 0-2.827-1.015-2.827-2.748V63.317c0-1.733 1.19-2.618 2.828-2.618h88.978c1.64 0 2.195.884 2.195 2.617v88.635z"/><g fill="#61A5A3"><path d="M193.996 59.308h-19.934c-6.52 0-11.826 5.31-11.826 11.827v7.373a6.13 6.13 0 0 1-6.12 6.123h-21.912v2.545h21.91c4.778 0 8.67-3.888 8.67-8.667v-7.373c0-5.114 4.162-9.28 9.278-9.28h20.992c-.358-.846-.712-1.695-1.058-2.547z"/><path d="M197.063 66.55h-18.438c-4.777 0-8.665 3.89-8.665 8.668v6.85c0 5.118-4.164 9.28-9.283 9.28h-26.474v2.55h26.474c6.525 0 11.83-5.308 11.83-11.83v-6.85a6.124 6.124 0 0 1 6.118-6.118h19.53c-.362-.85-.725-1.7-1.092-2.55z"/><path d="M199.67 73.036h-16.94c-3.667 0-6.65 2.96-6.7 6.61h-.004v6.68c0 6.07-4.938 11.01-11.01 11.01h-30.81v2.548h30.81c7.476 0 13.556-6.083 13.556-13.557V79.74a4.162 4.162 0 0 1 4.158-4.157h17.796c-.292-.848-.58-1.695-.857-2.547zM194.883 144.472h-20.82c-5.116 0-9.278-4.164-9.278-9.28v-7.372c0-4.778-3.892-8.667-8.67-8.667h-21.91v2.547h21.91a6.127 6.127 0 0 1 6.122 6.12v7.373c0 6.52 5.305 11.826 11.826 11.826h19.564c.427-.848.844-1.694 1.256-2.548z"/><path d="M198.295 137.23h-19.67a6.126 6.126 0 0 1-6.117-6.12v-6.852c0-6.52-5.305-11.83-11.83-11.83h-26.474v2.55h26.474c5.12 0 9.283 4.163 9.283 9.28v6.85c0 4.78 3.89 8.665 8.666 8.665h18.483c.392-.847.79-1.697 1.185-2.544z"/><path d="M201.424 130.745H182.73a4.162 4.162 0 0 1-4.158-4.155v-6.587c0-7.478-6.08-13.558-13.555-13.558h-30.812v2.545h30.812c6.07 0 11.01 4.94 11.01 11.013v6.678h.004a6.706 6.706 0 0 0 6.7 6.61h17.426c.41-.852.84-1.7 1.268-2.545z"/><g><path d="M49.243 119.152c-4.778 0-8.667 3.89-8.667 8.667v7.372c0 5.115-4.164 9.28-9.28 9.28h-19.57c.288.846.567 1.697.843 2.546h18.727c6.52 0 11.828-5.306 11.828-11.826v-7.373a6.126 6.126 0 0 1 6.12-6.12h21.91v-2.548H49.243z"/><path d="M44.68 112.43c-6.52 0-11.828 5.31-11.828 11.83v6.85a6.127 6.127 0 0 1-6.12 6.12H8.99c.352.845.692 1.693 1.02 2.544h16.722c4.778 0 8.666-3.885 8.666-8.664v-6.85c0-5.118 4.162-9.28 9.282-9.28h26.474v-2.55H44.68z"/><path d="M40.344 106.445c-7.477 0-13.556 6.08-13.556 13.558v6.587a4.163 4.163 0 0 1-4.157 4.155H5.963c.166.268.33.547.483.854.277.56.53 1.128.798 1.69H22.63c3.665 0 6.65-2.956 6.7-6.61h.004v-6.677c0-6.072 4.94-11.013 11.01-11.013h30.81v-2.545h-30.81z"/><g><path d="M49.243 84.63a6.127 6.127 0 0 1-6.12-6.122v-7.373c0-6.52-5.306-11.827-11.827-11.827H12.893a37.38 37.38 0 0 1-1.117 2.548h19.52c5.117 0 9.28 4.165 9.28 9.28v7.372c0 4.78 3.89 8.667 8.668 8.667h21.91V84.63h-21.91z"/><path d="M44.68 91.35c-5.12 0-9.28-4.164-9.28-9.282v-6.85c0-4.777-3.89-8.667-8.667-8.667H9.238c-.5.852-1.006 1.7-1.524 2.55h19.02a6.125 6.125 0 0 1 6.118 6.118v6.85c0 6.522 5.307 11.83 11.83 11.83h26.473v-2.55H44.68z"/><path d="M40.344 97.337c-6.07 0-11.01-4.94-11.01-11.01v-6.68h-.005c-.05-3.65-3.035-6.61-6.7-6.61H5.34a89.87 89.87 0 0 0-1.453 2.546H22.63a4.163 4.163 0 0 1 4.158 4.156v6.587c0 7.474 6.08 13.557 13.556 13.557h30.81v-2.547h-30.81z"/></g></g><g><path d="M78.023 41.06H70.65c-5.115 0-9.28-4.164-9.28-9.28V17.04c-.86.466-1.712.956-2.546 1.48v13.26c0 6.523 5.306 11.828 11.826 11.828h7.373c3.376 0 6.123 2.747 6.123 6.12v21.91h2.544v-21.91c0-4.78-3.887-8.667-8.667-8.667z"/><path d="M81.583 33.337h-6.85a6.13 6.13 0 0 1-6.12-6.12V13.602c-.267.118-.528.238-.795.354-.59.256-1.168.523-1.75.785v12.477c0 4.78 3.888 8.667 8.666 8.667h6.85c5.117 0 9.28 4.163 9.28 9.28v26.473h2.547V45.164c0-6.52-5.305-11.827-11.827-11.827z"/><path d="M85.842 27.272h-6.588a4.162 4.162 0 0 1-4.156-4.16V10.9c-.448.108-.885.243-1.326.366-.26.143-.502.27-.69.353-.177.076-.353.158-.53.234v11.263c0 3.667 2.96 6.65 6.613 6.7v.004h6.678c6.072 0 11.01 4.94 11.01 11.01v30.81H99.4v-30.81c-.002-7.475-6.085-13.555-13.558-13.555z"/><g><path d="M143.988 14.467V31.78c0 5.116-4.165 9.28-9.28 9.28h-7.372c-4.78 0-8.668 3.89-8.668 8.667v21.91h2.545v-21.91c0-3.372 2.747-6.12 6.123-6.12h7.37c6.522 0 11.828-5.304 11.828-11.828V15.74a47.205 47.205 0 0 0-2.546-1.273z"/><path d="M136.744 12.165v15.052a6.13 6.13 0 0 1-6.12 6.12h-6.85c-6.52 0-11.827 5.306-11.827 11.827v26.473h2.55V45.164c0-5.117 4.16-9.28 9.277-9.28h6.85c4.78 0 8.667-3.887 8.667-8.667V12.915a118.69 118.69 0 0 1-2.546-.75z"/><path d="M130.26 10.536v12.577a4.162 4.162 0 0 1-4.156 4.16h-6.587c-7.476 0-13.557 6.078-13.557 13.553v30.81h2.546v-30.81c0-6.068 4.94-11.01 11.01-11.01h6.68v-.003c3.652-.05 6.61-3.033 6.61-6.7V11.048a26.932 26.932 0 0 0-2.546-.512z"/></g></g><g><path d="M127.336 165.268h7.37c5.117 0 9.282 4.163 9.282 9.28v21.706c.837-.145 1.685-.26 2.546-.323V174.55c0-6.522-5.307-11.827-11.827-11.827h-7.37a6.13 6.13 0 0 1-6.124-6.12v-21.91h-2.545v21.91c0 4.78 3.888 8.668 8.668 8.668z"/><path d="M130.624 172.992a6.127 6.127 0 0 1 6.12 6.12v19.356a37.02 37.02 0 0 1 2.547-.99V179.11c0-4.778-3.886-8.664-8.666-8.664h-6.85c-5.116 0-9.278-4.164-9.278-9.283V134.69h-2.55v26.473c0 6.522 5.31 11.83 11.828 11.83h6.85z"/><path d="M126.104 179.055a4.163 4.163 0 0 1 4.156 4.16V201.9a62.845 62.845 0 0 1 2.546-1.5v-17.19c0-3.666-2.958-6.648-6.61-6.7v-.003h-6.68c-6.07 0-11.01-4.94-11.01-11.012V134.69h-2.546v30.81c0 7.476 6.08 13.555 13.557 13.555h6.587z"/><g><path d="M84.146 134.69v21.91a6.13 6.13 0 0 1-6.123 6.12H70.65c-6.52 0-11.826 5.305-11.826 11.827v19.263c.857.22 1.71.46 2.547.73v-19.993c0-5.117 4.165-9.28 9.28-9.28h7.373c4.78 0 8.667-3.888 8.667-8.667v-21.91h-2.544z"/><path d="M90.864 134.69v26.473c0 5.12-4.163 9.283-9.28 9.283h-6.85c-4.778 0-8.667 3.886-8.667 8.665v17.217c.856.373 1.703.77 2.547 1.176V179.11a6.127 6.127 0 0 1 6.12-6.118h6.85c6.52 0 11.827-5.307 11.827-11.83V134.69h-2.546z"/><path d="M96.853 134.69v30.81c0 6.07-4.938 11.01-11.01 11.01h-6.68v.004c-3.652.05-6.612 3.033-6.612 6.7v16.31c.616.33 1.233.66 1.846.998.23.037.468.054.702.082v-17.39a4.163 4.163 0 0 1 4.156-4.16h6.588c7.474 0 13.557-6.078 13.557-13.555v-30.81h-2.547z"/></g></g></g><g fill="#61A5A3"><path d="M100.944 57.765c-6.907 0-12.524 5.618-12.524 12.52v7.805c0 3.572-2.905 6.48-6.477 6.48H58.75v2.694h23.193c5.058 0 9.176-4.115 9.176-9.176v-7.804c0-5.416 4.403-9.824 9.824-9.824h46.635v-2.695h-46.636z"/><path d="M96.6 74.607V81.86c0 5.416-4.41 9.822-9.825 9.822H58.75v2.696h28.024c6.903 0 12.52-5.62 12.52-12.52v-7.25a6.486 6.486 0 0 1 6.478-6.48h41.808V65.43h-41.808c-5.058.002-9.173 4.117-9.173 9.177z"/><path d="M103.023 79.296h-.005V86.365c0 6.427-5.23 11.653-11.654 11.653H58.75v2.697h32.614c7.912 0 14.35-6.44 14.35-14.35V79.39a4.403 4.403 0 0 1 4.4-4.396h37.465V72.3h-37.467c-3.88-.002-7.037 3.127-7.09 6.996z"/></g><g fill="#61A5A3"><path d="M100.944 150.61c-6.907 0-12.524-5.618-12.524-12.52v-7.804a6.486 6.486 0 0 0-6.477-6.478H58.75v-2.696h23.193c5.058 0 9.176 4.115 9.176 9.174v7.804c0 5.416 4.403 9.825 9.824 9.825h46.635v2.693h-46.636z"/><path d="M96.6 133.77v-7.25c0-5.417-4.41-9.824-9.825-9.824H58.75V114h28.024c6.903 0 12.52 5.615 12.52 12.52v7.25a6.487 6.487 0 0 0 6.478 6.478h41.808v2.695h-41.808c-5.058 0-9.173-4.116-9.173-9.173z"/><path d="M103.023 129.08h-.005V122.013c0-6.427-5.23-11.656-11.654-11.656H58.75v-2.694h32.614c7.912 0 14.35 6.438 14.35 14.35v6.974c0 2.424 1.974 4.398 4.4 4.398h37.465v2.695h-37.467c-3.88 0-7.037-3.134-7.09-7z"/></g><path fill="#253033" d="M149.453 146.71c0 1.815-2.13 3.99-4.02 3.99H57.775c-1.89 0-3.322-2.175-3.322-3.99V58.78c0-1.813 1.432-2.08 3.322-2.08h87.658c1.89 0 4.02.267 4.02 2.08v87.93z"/><path fill="#FF3939" d="M102.384 70.83c-2.397 0-4.73.267-6.98.767v31.468c0 3.855 3.142 7.002 7 7.002 3.855 0 6.998-3.146 6.998-7.002 0-3.696-2.893-6.74-6.534-6.98v-5.608c6.726.248 12.134 5.807 12.134 12.59 0 6.938-5.66 12.6-12.6 12.6-6.94 0-12.6-5.66-12.6-12.6V73.38c-.795.337-1.57.712-2.332 1.11v28.574c0 8.226 6.71 14.936 14.933 14.936 8.226 0 14.934-6.71 14.934-14.936 0-8.067-6.455-14.674-14.47-14.924v-5.6c11.097.25 20.067 9.372 20.067 20.524 0 11.312-9.222 20.533-20.53 20.533s-20.534-9.222-20.534-20.533V78.208c-7.145 5.908-11.695 14.84-11.695 24.832 0 17.79 14.42 32.215 32.21 32.215 17.793 0 32.212-14.425 32.212-32.215s-14.42-32.21-32.213-32.21z"/><path fill="#4D4058" d="M103.164 0C46.19 0 0 46.186 0 103.163s46.19 103.163 103.164 103.163c56.977 0 103.164-46.186 103.164-103.163S160.14 0 103.164 0zm0 199.138c-53.005 0-95.975-42.97-95.975-95.975 0-53.007 42.97-95.974 95.974-95.974 53.006 0 95.977 42.966 95.977 95.973 0 53.006-42.97 95.975-95.976 95.975z"/><path opacity=".1" fill="#FFF" d="M150.453 147.683V59.106c0-1.62-1.15-2.407-2.767-2.407h-46.742c-.482 0 49.51 91.603 49.51 90.983z"/><path opacity=".3" fill="#FFF" d="M144.084 197.874c36.614-15.84 62.244-52.274 62.244-94.71C206.328 46.185 160.14 0 103.164 0 82.866 0 63.95 5.886 47.994 16.01c27.48 52.377 63.856 121.184 96.09 181.864z"/><g fill="#FFF"><g opacity=".3"><path d="M77.02 75.47a1.56 1.56 0 0 1 0 2.206 1.563 1.563 0 0 1-2.206 0L63.786 66.65a1.56 1.56 0 1 1 2.205-2.206L77.02 75.47zM140.983 139.436a1.563 1.563 0 0 1 0 2.207c-.608.608-1.6.608-2.206 0l-11.027-11.03a1.563 1.563 0 0 1 0-2.207 1.562 1.562 0 0 1 2.206 0l11.027 11.03z"/></g><g opacity=".3"><path d="M74.814 128.41a1.56 1.56 0 0 1 2.207 2.205l-11.028 11.03a1.562 1.562 0 0 1-2.206 0c-.608-.612-.61-1.6 0-2.208l11.028-11.027zM138.78 64.445a1.558 1.558 0 0 1 2.203 0c.608.61.608 1.6 0 2.207L129.956 77.68c-.61.61-1.596.61-2.206 0a1.562 1.562 0 0 1 0-2.206l11.03-11.03z"/></g></g><path opacity=".2" fill="#020202" d="M292.13 194.033a893.95 893.95 0 0 1-7.282 7.423l5.567 4.575a2.96 2.96 0 0 0 4.165-.407l2.818-3.43a2.96 2.96 0 0 0-.406-4.165l-4.86-3.995z"/><path opacity=".4" fill="#FFF" d="M285.058 191.574a1.48 1.48 0 0 1-1.923 2.25l-32.632-27.872a1.483 1.483 0 0 1-.163-2.087 1.482 1.482 0 0 1 2.087-.164l32.63 27.874z"/><path opacity=".4" fill="#FFF" d="M248.336 171.448l6.455-8.1 4.408 3.622-6.465 8.094z"/><path fill="#E6E6E6" d="M263.182 190.82s.4-.85.678-.882c3.182-.38 7.003 1.895 8.176 6.36-1.86 2.424-6.72 0-6.72 0l-2.134-5.477zM275.942 202.36s-.872-3.346-.613-3.446c2.99-1.152 7.282.935 9.518 4.97-1.203 2.812-5.488 3.257-5.488 3.257l-3.418-4.78zM252.612 182.8l.502-3.1s3.256.18 7.27 7.206c-2.347.858-5.182 1.17-5.182 1.17l-2.59-5.277z"/><ellipse transform="rotate(-37.945 249.173 189.588)" fill="#4D4058" cx="249.179" cy="189.588" rx=".922" ry="3.646"/><ellipse transform="rotate(-53.42 260.195 203.504)" fill="#4D4058" cx="260.203" cy="203.51" rx=".922" ry="3.644"/><ellipse transform="rotate(-84.687 278.445 211.436)" fill="#4D4058" cx="278.454" cy="211.434" rx=".922" ry="3.644"/><path opacity=".2" fill="#020202" d="M223.304 293.7H372.68c.964 0 1.773.565 1.773-.252V275.69c0-.324-.162-1.22-.37-1.47-6.88.913-118.08 16.48-150.78 19.48zM229.54 218.404l59.402 14.444a3.214 3.214 0 0 0 3.886-2.365l-65.654-15.966a3.216 3.216 0 0 0 2.366 3.887z"/><path opacity=".1" fill="#FFF" d="M334.88 203.51l-1.108 2.872c-2.625 10.912-8.363 21.825-16.635 29.855-.06.07-.115.15-.176.204-1.577 1.457-.24 6.153 5.114 3.99 5.355-2.165 19.326-30.603 18.024-35.355-1.84-6.73-5.22-1.564-5.22-1.564z"/><g><path fill="#FCD22E" d="M260.785 55.527c6.348 16.727 19.144 30.253 35.328 37.587-16.185 7.318-28.98 20.867-35.328 37.586-6.354-16.72-19.138-30.268-35.343-37.586 16.205-7.334 28.99-20.86 35.343-37.587z"/><path fill="#FD7600" d="M260.785 74.18c3.19 8.415 9.635 15.223 17.817 18.935a34.003 34.003 0 0 0-17.817 18.93 34.037 34.037 0 0 0-17.79-18.93c8.16-3.713 14.6-10.52 17.79-18.934z"/><path fill="#FCD22E" d="M232.682 28.865a33.133 33.133 0 0 0 17.27 18.38 33.09 33.09 0 0 0-17.27 18.372 33.05 33.05 0 0 0-17.266-18.372 33.098 33.098 0 0 0 17.266-18.38z"/><path fill="#FD7600" d="M232.682 37.982a16.733 16.733 0 0 0 8.708 9.263 16.615 16.615 0 0 0-8.708 9.25 16.572 16.572 0 0 0-8.693-9.25 16.684 16.684 0 0 0 8.692-9.263z"/><g><path fill="#FCD22E" d="M292.735 18.2c4.473 11.793 13.505 21.35 24.924 26.517-11.42 5.17-20.452 14.72-24.925 26.52a47.775 47.775 0 0 0-24.933-26.52A47.782 47.782 0 0 0 292.735 18.2z"/><path fill="#FD7600" d="M292.735 31.366c2.25 5.933 6.803 10.734 12.566 13.35a23.97 23.97 0 0 0-12.565 13.352c-2.257-5.94-6.795-10.765-12.557-13.35a24.106 24.106 0 0 0 12.557-13.352z"/></g></g></svg>