<svg xmlns="http://www.w3.org/2000/svg" height="144" viewBox="0 0 144 144" width="144"><defs><clipPath id="a"><path fill="#f3f3f3" d="M286-.346h144v144H286z"/></clipPath></defs><g clip-path="url(#a)" transform="translate(-286 .346)"><g transform="translate(-49)"><path d="M479-.445H301a4.177 4.177 0 0 0-1.58 3.26v141h179v-144z" fill="#ededed"/><g opacity=".4"><g opacity=".4"><path d="M360 118c0 .71-.578 1.29-1.29 1.29h-47.1a1.29 1.29 0 0 1 0-2.58h47.1c.714 0 1.29.577 1.29 1.29zM360 113c0 .71-.578 1.29-1.29 1.29h-47.1a1.29 1.29 0 0 1 0-2.58h47.1c.714 0 1.29.577 1.29 1.29zM360 107a1.29 1.29 0 0 1-1.29 1.29h-47.1a1.284 1.284 0 0 1 0-2.57h47.1c.714 0 1.29.577 1.29 1.28zM360 102a1.29 1.29 0 0 1-1.29 1.29h-47.1a1.29 1.29 0 0 1 0-2.58h47.1c.714 0 1.29.576 1.29 1.29zM360 97.2c0 .71-.578 1.29-1.29 1.29h-47.1a1.29 1.29 0 0 1 0-2.58h47.1c.714 0 1.29.576 1.29 1.29zM360 92a1.29 1.29 0 0 1-1.29 1.29h-47.1a1.29 1.29 0 0 1 0-2.58h47.1c.714 0 1.29.577 1.29 1.29zM360 86.9c0 .71-.578 1.29-1.29 1.29h-47.1a1.29 1.29 0 0 1 0-2.58h47.1c.714 0 1.29.578 1.29 1.29z"/></g><path d="M360 138c0 .71-.578 1.29-1.29 1.29h-47.1a1.29 1.29 0 0 1 0-2.58h47.1c.714 0 1.29.575 1.29 1.29zM360 133c0 .71-.578 1.29-1.29 1.29h-47.1a1.29 1.29 0 0 1 0-2.58h47.1c.714 0 1.29.577 1.29 1.29zM360 128c0 .71-.578 1.29-1.29 1.29h-47.1a1.29 1.29 0 0 1 0-2.58h47.1c.714 0 1.29.575 1.29 1.29zM360 123c0 .712-.578 1.28-1.29 1.28h-47.1a1.285 1.285 0 0 1 0-2.57h47.1c.714 0 1.29.576 1.29 1.29z" opacity=".4"/></g><g opacity=".4"><g opacity=".4"><path d="M419 118c0 .71-.578 1.29-1.29 1.29h-47.1a1.29 1.29 0 0 1 0-2.58h47.1c.715 0 1.29.577 1.29 1.29zM419 113c0 .71-.578 1.29-1.29 1.29h-47.1a1.29 1.29 0 0 1 0-2.58h47.1c.715 0 1.29.577 1.29 1.29zM419 107a1.29 1.29 0 0 1-1.29 1.29h-47.1a1.285 1.285 0 0 1 0-2.57h47.1c.715 0 1.29.577 1.29 1.28zM419 102a1.29 1.29 0 0 1-1.29 1.29h-47.1a1.29 1.29 0 0 1-1.29-1.29c0-.71.578-1.29 1.29-1.29h47.1c.715 0 1.29.576 1.29 1.29zM419 97.2c0 .71-.578 1.29-1.29 1.29h-47.1a1.29 1.29 0 0 1 0-2.58h47.1c.715 0 1.29.576 1.29 1.29zM419 92a1.29 1.29 0 0 1-1.29 1.29h-47.1a1.29 1.29 0 0 1 0-2.58h47.1c.715 0 1.29.577 1.29 1.29zM419 86.9c0 .71-.578 1.29-1.29 1.29h-47.1a1.29 1.29 0 0 1 0-2.58h47.1c.715 0 1.29.578 1.29 1.29z"/></g><path d="M419 138c0 .71-.578 1.29-1.29 1.29h-47.1a1.29 1.29 0 0 1 0-2.58h47.1c.715 0 1.29.575 1.29 1.29zM419 133c0 .71-.578 1.29-1.29 1.29h-47.1a1.29 1.29 0 0 1 0-2.58h47.1c.715 0 1.29.577 1.29 1.29zM419 128c0 .71-.578 1.29-1.29 1.29h-47.1a1.29 1.29 0 0 1 0-2.58h47.1c.715 0 1.29.575 1.29 1.29zM419 123c0 .712-.578 1.28-1.29 1.28h-47.1a1.285 1.285 0 0 1 0-2.57h47.1c.715 0 1.29.576 1.29 1.29z" opacity=".4"/></g><g opacity=".4"><g opacity=".4"><path d="M479 118c0 .71-.578 1.29-1.29 1.29h-47.1a1.29 1.29 0 0 1 0-2.58h47.1c.714 0 1.29.577 1.29 1.29zM479 113c0 .71-.578 1.29-1.29 1.29h-47.1a1.29 1.29 0 0 1 0-2.58h47.1c.714 0 1.29.577 1.29 1.29zM479 107a1.29 1.29 0 0 1-1.29 1.29h-47.1a1.284 1.284 0 0 1 0-2.57h47.1c.714 0 1.29.577 1.29 1.28zM479 102a1.29 1.29 0 0 1-1.29 1.29h-47.1a1.29 1.29 0 0 1 0-2.58h47.1c.714 0 1.29.576 1.29 1.29zM479 97.2c0 .71-.578 1.29-1.29 1.29h-47.1a1.29 1.29 0 0 1 0-2.58h47.1c.714 0 1.29.576 1.29 1.29zM479 92a1.29 1.29 0 0 1-1.29 1.29h-47.1a1.29 1.29 0 0 1 0-2.58h47.1c.714 0 1.29.577 1.29 1.29zM479 86.9c0 .71-.578 1.29-1.29 1.29h-47.1a1.29 1.29 0 0 1 0-2.58h47.1c.714 0 1.29.578 1.29 1.29z"/></g><path d="M479 138c0 .71-.578 1.29-1.29 1.29h-47.1a1.29 1.29 0 0 1 0-2.58h47.1c.714 0 1.29.575 1.29 1.29zM479 133c0 .71-.578 1.29-1.29 1.29h-47.1a1.29 1.29 0 0 1 0-2.58h47.1c.714 0 1.29.577 1.29 1.29zM479 128c0 .71-.578 1.29-1.29 1.29h-47.1a1.29 1.29 0 0 1 0-2.58h47.1c.714 0 1.29.575 1.29 1.29zM479 123c0 .712-.578 1.28-1.29 1.28h-47.1a1.285 1.285 0 0 1 0-2.57h47.1c.714 0 1.29.576 1.29 1.29z" opacity=".4"/></g><path opacity=".3" d="M477 70.9c.772-.414 1.52-.86 2.23-1.34v-3.62c-1.17.962-2.46 1.82-3.85 2.54l-4.56-10 8.41-3.8v-2.56l-9.38 4.24-3.04-6.7 11.8-5.35c.204.47.396.946.577 1.42v-5.22a39.813 39.813 0 0 0-3.81-5.59l3.81-1.72v-4.65H472.873c1.79.66 3.48 1.55 5.05 2.66l-4.12 1.86c-1.48-1.66-3.03-3.16-4.54-4.52h-3.51c1.84 1.58 3.88 3.41 5.85 5.51l-9.9 4.47-4.48-9.86c.112-.043.225-.08.334-.12h-6.31c-9.85 6.65-13.8 19.6-8.69 30.8 2.35 5.17 6.25 9.14 10.9 11.6h11.8c-2.21-1.9-4.68-4.15-6.99-6.79l10.4-4.71 4.56 10c-2.16.845-4.38 1.32-6.6 1.46h10.4zm-3.73-35.1c1.61 1.9 3.11 4 4.36 6.32l-11.8 5.32-3.12-6.88 10.6-4.77zm-9.57 12.6l-11.8 5.33c-.934-2.47-1.52-4.98-1.9-7.44l10.6-4.77 3.12 6.88zm-14-14.6a21.75 21.75 0 0 1 5.69-4.23l4.48 9.86-9.9 4.47c-.37-3.72-.31-7.22-.272-10.1zm-2.34 2.87c-.03 2.56.06 5.35.412 8.23l-4.12 1.86a22.14 22.14 0 0 1 3.7-10.1zm-3.82 12.7l4.59-2.08c.427 2.45 1.07 4.93 2.02 7.38l-5.1 2.31a21.69 21.69 0 0 1-1.5-7.61zm2.47 9.74l5.06-2.28c1.08 2.3 2.42 4.39 3.9 6.31l-4.36 1.97c-1.82-1.68-3.39-3.7-4.59-6zm16 11.5a22.165 22.165 0 0 1-9.41-3.89l3.87-1.75c1.79 2.09 3.71 3.96 5.54 5.64zm-5.04-8.43c-1.48-1.9-2.82-4-3.91-6.31l11.8-5.35 3.04 6.7-11 4.96z"/><path d="M479-.445H301a4.177 4.177 0 0 0-1.58 3.26v12.6h179v-15.9z" fill="#444"/><ellipse cx="309" cy="7.24" rx="3.34" ry="3.32" fill="#2cb740"/><path d="M323 7.24c0 1.84-1.5 3.32-3.34 3.32s-3.33-1.49-3.33-3.32a3.33 3.33 0 0 1 3.33-3.33c1.84 0 3.34 1.49 3.34 3.33z" fill="#f16442"/><path d="M479 3.84c-.28-.076-.57-.13-.873-.13h-150c-1.83 0-3.34 1.49-3.34 3.33s1.5 3.32 3.34 3.32h150c.304 0 .593-.054.873-.13v-6.4z" fill="#fff"/><ellipse cx="333" cy="31.1" rx=".068" ry=".046" fill="#fcd22e"/><path opacity=".3" d="M310 73.8h170v2.71H310zM310 23h170v2.71H310z"/><g opacity=".1"><path d="M310 52.3h13.7v20.1H310zM326 44.5h13.7v27.9H326zM357 40.5h13.7v31.9H357zM342 55.3h13.7v17.1H342zM372 46.9h13.7v25.5H372zM388 36.9h13.7v35.5H388zM419 31.7h13.6v40.7H419zM404 50.7h13.7v21.7H404z"/></g></g><path opacity=".2" d="M264.7 19c.226-.013.406-.134.632-.175 2.19 10.8 6.48 20.4 12.2 27.8v13.7c0 1.17.11 2.31.27 3.44-5.65 2.48-31.3 12.3-44.7 18.2v61.7h180c-1-4-13-40-16-46.7-3-6.5-6-9.2-11-11.3s-52.3-22.9-52.3-22.9l-.38.028c.11-.946.184-1.91.184-2.89v-10.8c6.94-7.76 12.2-18.4 14.7-30.8.216.042.406.162.633.177 3.25.24 6.08-2.2 6.31-5.44l.895-13.9h-98.5l.89 13.9c.237 3.24 3.07 5.68 6.33 5.44z" fill="#1e0e00"/><path d="M233.114 144.1h173c-2.79-7.95-12.5-37.3-15.1-42.9-3.12-6.5-6.72-9.2-11.3-11.3-4.62-2.1-52.2-23-52.2-23l-27.7 1.7-27.3-2.1s-23.7 9.01-39.3 15.8v61.3z" fill="gray"/><path fill="#ddd" d="M342 73.7l-43.5 20.7-43.4-20.7 14.6 70.4h59.1z"/><path d="M326.8 63.7c0 14.3-12.5 26-28 26-15.4 0-28-11.6-28-26V34.1c0-14.4 12.5-26 28-26 15.4 0 28 11.6 28 26v29.6z" fill="#deb472"/><path fill="#0f79d1" d="M278.2 91.5l16.6 23.6-7.6 29h22.7l-7.9-30 15.8-22.6z"/><path fill="#fff" d="M326.8 63.3l15.2 10-20 38.8-23.6-21.8zM270.6 63.3l-15.2 10 20 38.8L298 90.3z"/><path opacity=".1" d="M270.8-.346v54c7.67 9.84 17.9 15.9 29.2 15.9 10.1 0 19.4-4.9 26.8-13v-56.9h-56z" fill="#1e0e00"/><path d="M250.5-.346l1.14 17.2a5.9 5.9 0 0 0 6.32 5.44c.225-.014.41-.135.63-.182 5.14 25.3 21.7 43.9 41.4 43.9s36.2-18.6 41.4-43.9c.214.047.405.168.634.182 3.24.242 6.08-2.2 6.32-5.44l1.14-17.2h-99z" fill="#ffd280"/><path opacity=".1" d="M299.1-.346v66.3c.312.01.61.053.924.053 19.7 0 36.2-18.6 41.4-43.9.215.043.406.164.635.178 3.24.238 6.08-2.2 6.32-5.44l1.14-17.2h-50.4z" fill="#1e0e00"/><path d="M256 114.1l-2.52 13.7s2.18 8.32 4.89 16h14l-16.9-70.4-12.3 5.84 5.6 31.3 7.27 3.62zM339 144.1c2.7-7.67 4.88-16 4.88-16l-2.52-13.7 7.28-3.63 5.6-31.3-12.3-5.84-16.9 70.4h14z" fill="#5e5e5e"/></g></svg>