<svg xmlns="http://www.w3.org/2000/svg" width="237.926" height="207.453" viewBox="0 0 237.926 207.453"><path fill="#CE2828" d="M179.89 179.907h58.036l-10.81-16.017 10.81-14.912H179.89z"/><path fill="#9B0A20" d="M184.218 179.906l33.714-13.037-33.69-9.083z"/><path fill="#CE2828" d="M58.035 179.907H0l10.81-16.017L0 148.978h58.035z"/><path fill="#9B0A20" d="M53.708 179.906L19.994 166.87l33.69-9.083z"/><path fill="#FCD22E" d="M118.963 10.084L127.127 0l6.485 11.237 9.64-8.68 4.65 12.11L158.78 7.6l2.693 12.69 11.853-5.28.676 12.957 12.53-3.36-1.355 12.903 12.9-1.356-3.358 12.53 12.955.676-5.278 11.854 12.69 2.693-7.068 10.88 12.112 4.65-8.682 9.64 11.237 6.485-10.086 8.164 10.085 8.164-11.238 6.485 8.682 9.64-12.112 4.648 7.068 10.88-12.69 2.692 5.277 11.858-12.955.67 3.358 12.534-12.9-1.358 1.355 12.905-12.53-3.363-.677 12.955-11.853-5.274-2.694 12.69-10.88-7.072-4.647 12.115-9.64-8.68-6.486 11.238-8.164-10.088-8.164 10.088-6.486-11.237-9.64 8.68-4.65-12.115-10.878 7.074-2.695-12.69-11.85 5.273-.677-12.955-12.532 3.363 1.358-12.906-12.9 1.357 3.357-12.533-12.955-.67 5.278-11.86-12.69-2.69 7.067-10.88-12.112-4.648 8.682-9.64-11.238-6.486 10.084-8.164-10.083-8.164 11.238-6.486-8.682-9.64 12.112-4.648-7.067-10.88 12.69-2.694L30.25 49.36l12.955-.676-3.358-12.53 12.9 1.356-1.356-12.902 12.533 3.36.676-12.957 11.85 5.28L79.147 7.6l10.88 7.066 4.647-12.11 9.64 8.68L110.8 0z"/><circle fill="#FBBD01" cx="118.963" cy="103.727" r="85.428"/><g fill="#FFF"><path d="M84.2 45.745c1.02-.506 1.343-1.35.334-4.188l-1.98-5.487 7.218-3.58 5.037 10.158-2.18 1.08-4.092-8.254-3.092 1.532 1.31 3.64c1.605 4.46.467 5.99-1.604 7.02l-.952-1.92zM95.337 41.757l.324-2.12c.468.198 1.056.323 1.577.168.798-.24 1.06-.67 1.244-1.597l-6.365-6.686 2.623-.784L99.15 35.7l.98-6.574 2.622-.785-1.853 10.12c-.274 1.52-.93 2.764-2.87 3.344-.993.297-2.072.248-2.693-.047zM107.563 30.835c.216 1.462 1.057 1.923 2.352 1.73.808-.12 1.528-.36 2.082-.684l-.71-4.81 2.388-.353 1.655 11.218-2.388.353-.635-4.306c-.69.325-1.51.602-2.367.727-2.858.42-4.414-1.034-4.78-3.522l-.465-3.145 2.405-.355.463 3.147zM132.312 27.26l-.735 11.316-14.437-.938.735-11.315 2.41.156-.598 9.193 3.597.234.597-9.195 2.426.157-.597 9.194 3.58.232.596-9.195 2.426.16zM140.777 41.22l-.157-2.038-4.687-1.3-1.202 1.66-2.653-.737 7.26-9.755 2.917.81 1.18 12.097-2.657-.737zm-.628-9.44l-3.01 4.23 3.408.945-.4-5.174zM143.56 42.096l4.133-2.848c-.99-.777-1.682-2.278-.84-4.1.89-1.913 2.85-2.71 4.996-1.718l4.814 2.232-4.77 10.293-2.19-1.015 1.693-3.657-1.59-.738-3.73 2.715-2.516-1.164zm8.732-2.742l1.286-2.78-2.3-1.063c-.88-.405-1.786-.188-2.187.675-.4.865.022 1.696.9 2.104l2.302 1.064z"/></g><circle fill="#FAA700" cx="118.963" cy="103.727" r="60.412"/><g fill="#FFF"><path d="M70.883 95.775c0-9.506 7.188-16 16.463-16 6.816 0 10.76 3.71 12.938 7.56l-5.658 2.783c-1.3-2.505-4.082-4.5-7.28-4.5-5.612 0-9.693 4.314-9.693 10.157s4.08 10.156 9.692 10.156c3.2 0 5.982-1.947 7.28-4.498l5.66 2.736c-2.227 3.85-6.123 7.605-12.94 7.605-9.274 0-16.462-6.49-16.462-15.998zM131.122 111.218V89.562l-8.718 21.656h-2.875l-8.72-21.656v21.656h-6.584V80.286h9.23l7.51 18.69 7.514-18.69h9.275v30.932h-6.633zM141.788 106.858l3.57-5.008a13.565 13.565 0 0 0 9.832 4.173c3.617 0 5.378-1.67 5.378-3.433 0-5.472-17.808-1.714-17.808-13.354 0-5.148 4.452-9.414 11.733-9.414 4.916 0 8.997 1.483 12.058 4.312l-3.663 4.822c-2.503-2.318-5.842-3.384-8.997-3.384-2.83 0-4.405 1.252-4.405 3.106 0 4.914 17.76 1.622 17.76 13.17 0 5.658-4.033 9.924-12.38 9.924-5.936.002-10.2-1.993-13.077-4.914z"/></g><path opacity=".05" d="M212.604 103.726l10.085-8.164-11.238-6.486 8.682-9.64-12.112-4.648 7.068-10.88-12.69-2.694 5.277-11.854-12.955-.676 3.358-12.53-12.9 1.356.23-2.19L50.557 170.17l2.19-.23-1.357 12.905 12.533-3.363.676 12.955 11.85-5.274 2.696 12.69 10.88-7.072 4.647 12.115 9.64-8.68 6.486 11.238 8.163-10.088 8.164 10.088 6.485-11.237 9.64 8.68 4.65-12.115 10.88 7.074 2.693-12.69 11.853 5.273.676-12.955 12.53 3.363-1.355-12.906 12.9 1.357-3.358-12.533 12.955-.67-5.278-11.86 12.69-2.69-7.068-10.88 12.112-4.648-8.682-9.64 11.237-6.486z"/><path opacity=".15" d="M39.847 171.297l12.9-1.358-.545 5.194h133.523l-.546-5.195 12.9 1.357-1.92-7.163H41.767z"/><path fill="#FC3F3F" d="M19.667 128.824h198.266v38.045H19.667z"/><g fill="#FFF"><path d="M35.228 153.656c1.63-.216 2.542-.863 3.046-5.085l.936-8.18h11.37v13.002h1.44v5.948h-3.407v-2.95h-9.98v2.95H35.23v-5.684zm4.486-.263h7.436V143.39h-4.87l-.624 5.42c-.24 2.16-.935 3.647-1.942 4.583zM53.056 153.656c1.607 0 2.543-.863 3.046-5.085l.936-8.18h11.37v16h-3.43v-13h-4.87l-.623 5.42c-.768 6.646-3.167 7.87-6.43 7.87v-3.024zM70.86 156.39l3.597-6.092c-1.727-.407-3.502-1.92-3.502-4.75 0-2.974 2.04-5.156 5.373-5.156h7.484v16h-3.406v-5.686h-2.47l-3.167 5.685h-3.91zm9.546-8.683v-4.317h-3.574c-1.367 0-2.4.815-2.4 2.16 0 1.342 1.033 2.157 2.4 2.157h3.574zM104.807 140.392v2.998h-8.275v2.83h4.15c3.406 0 5.3 2.327 5.3 5.086 0 2.758-1.87 5.085-5.3 5.085h-7.556v-15.998h11.68zm-8.276 8.827v4.173h3.695c1.32 0 2.28-.815 2.28-2.087 0-1.296-.96-2.087-2.28-2.087H96.53zM108.098 156.39v-15.998h3.406v10.338l7.412-10.338h3.502v16h-3.406v-10.723l-7.628 10.72h-3.286zM124.485 154.112l1.775-2.28c1.104 1.152 3.118 1.824 4.677 1.824 2.11 0 3.334-.84 3.334-2.04 0-1.27-1.126-1.846-3.525-1.846h-3.238v-3h3.238c1.895 0 3.262-.526 3.262-1.7 0-1.272-1.44-1.897-3.262-1.897-1.56 0-3.214.576-4.342 1.655l-1.703-2.135c1.295-1.463 3.574-2.543 6.38-2.543 3.742 0 6.333 1.68 6.333 4.342 0 2.015-1.727 3.334-3.478 3.646 1.607.167 3.718 1.438 3.718 3.838 0 2.758-2.758 4.7-6.572 4.7-2.948.003-5.42-1.125-6.595-2.564zM151.187 156.39v-6.715h-7.556v6.716h-3.405v-15.998h3.406v6.284h7.557v-6.284h3.43v16h-3.43zM157.765 156.39v-15.998h11.322v2.998h-7.916v3.382h7.75v3h-7.75v3.62h7.917v3h-11.322zM170.985 148.403c0-4.918 3.718-8.275 8.516-8.275 3.527 0 5.566 1.92 6.693 3.91l-2.927 1.438c-.67-1.295-2.11-2.327-3.766-2.327-2.902 0-5.014 2.23-5.014 5.253s2.11 5.253 5.014 5.253c1.655 0 3.094-1.008 3.766-2.327l2.927 1.415c-1.15 1.99-3.167 3.934-6.692 3.934-4.796 0-8.515-3.36-8.515-8.277zM199.104 156.39l-.983-2.71h-6.86l-1.006 2.71h-3.886l6.19-15.998h4.27l6.164 16h-3.888zM194.69 143.8l-2.495 6.884h4.99l-2.495-6.884z"/></g></svg>