<svg xmlns="http://www.w3.org/2000/svg" width="480" height="144" viewBox="0 0 480 144"><path fill="#F7B334" d="M-.25 0h475.812v144H-.25z"/><path opacity=".1" d="M124.87 61.74l.008-.02-16.87-8.447-3.31-1.66-1.21-.603-1.624-.813c-.13.26-.27.51-.405.766l-12.297-18.22c5.746-.655 11.07-2.24 13.948-7.973 3.62-7.21.695-16.015-6.52-19.63-7.216-3.613-16.03-.69-19.65 6.522-.72 1.432-.138 3.18 1.297 3.898s3.184.14 3.903-1.295c2.18-4.346 7.493-6.108 11.842-3.93 4.348 2.177 6.11 7.485 3.93 11.83-2.105 4.195-6.51 4.69-14.107 5.195l-29.463 1.412a33.03 33.03 0 0 1 .888-1.938l-6.144-3.076-15.35-7.69-.01.02c-.24-.127-.472-.26-.714-.38C21.92 10.15 9.105 11.75-.25 18.747V63.32l8.204 4.11L-.25 83.772V144h83.83l15.518-30.916 27.66 13.854 3.258-6.49 8.18-16.297c7.795-15.535 1.818-34.338-13.327-42.41zm-58.016.07c-5.168-2.588-9.063-6.194-11.557-10.416L82.122 64.83c-4.878.53-10.1-.432-15.268-3.02zm23.388.588l-37.85-18.96c-.473-2.815-.437-5.764.135-8.763l29.957-1.436 15.478 22.928c-2.245 2.667-4.855 4.76-7.72 6.23z"/><path fill="#9D9D9C" d="M87.682 33.19a2.904 2.904 0 0 1 1.11-5.497c7.608-.508 12.018-.998 14.124-5.197 2.182-4.344.418-9.652-3.93-11.83-4.35-2.178-9.66-.416-11.843 3.93a2.91 2.91 0 0 1-3.903 1.295 2.904 2.904 0 0 1-1.297-3.897c3.62-7.21 12.434-10.135 19.65-6.52 7.215 3.613 10.14 12.418 6.52 19.63-3.7 7.374-11.447 7.89-18.938 8.388a2.932 2.932 0 0 1-1.493-.3z"/><path fill="#9D9D9C" d="M120.607 81.932c-.01-.004-.023-.01-.034-.018L28.916 36a2.902 2.902 0 0 1 1.165-5.495l58.765-2.816a2.903 2.903 0 0 1 2.55 1.276L124.12 77.44c.74.86.933 2.118.392 3.196a2.912 2.912 0 0 1-3.905 1.296zM41.44 35.777l71.822 35.977L87.488 33.57 41.44 35.777z"/><path fill="#3E8EDE" d="M38.017 16.037C24.78 9.407 9.084 12.96-.25 23.725v37.42l40.87 20.472L52.058 58.83c7.92-15.782 1.634-34.942-14.04-42.793zM131.762 127.268l11.438-22.785c7.92-15.78 1.635-34.94-14.04-42.793-15.676-7.852-34.805-1.422-42.726 14.36L74.997 98.836l56.765 28.432z"/><path fill="#FFD658" d="M-.25 53.02v8.124l132.012 66.124 3.26-6.49z"/><path fill="#77BC1F" d="M108.496 51.34c-6.937 13.82-23.78 19.407-37.613 12.478-13.837-6.932-19.428-23.754-12.49-37.574L38.738 16.4-.25 94.077V144h89l41.133-81.948-21.387-10.713z"/><path fill="#FFD658" d="M71.86 62.142C58.023 55.21 53.295 40.988 60.234 27.166L54.09 24.09c-8.16 16.254-1.583 36.037 14.69 44.19 16.27 8.148 36.075 1.577 44.234-14.677l-6.144-3.076c-6.936 13.82-21.176 18.543-35.01 11.615z"/><path fill="#FFF" d="M82.096 91.42c-2.324-6.887-9.602-10.71-16.535-8.838l-.008-.027-21.708 7.133-.005-.016c-3.88 1.047-7.957-1.092-9.256-4.947a7.656 7.656 0 0 1 4.818-9.703 7.666 7.666 0 0 1 9.543 4.365l.018-.004 1.983 6.03 5.778-1.73-2.17-6.577-.026.008c-2.703-6.645-10.156-10.122-17.05-7.8-7.168 2.412-11.02 10.17-8.606 17.335 2.322 6.886 9.6 10.708 16.533 8.837l.01.027 21.708-7.133.007.017c3.878-1.045 7.955 1.092 9.255 4.95 1.35 4.005-.807 8.35-4.817 9.702a7.666 7.666 0 0 1-9.544-4.37l-.02.006-2.07-6.12-5.734 1.858 2.215 6.54.026-.01c2.704 6.647 10.156 10.122 17.05 7.804 7.168-2.414 11.02-10.176 8.606-17.338z" opacity=".7"/><path fill="#66A35D" d="M238.984 69.748a.76.76 0 0 1-.336-1.02l30.68-60.85a.762.762 0 0 1 1.02-.336l25.79 12.977c.377.188.528.644.337 1.02l-30.68 60.85a.76.76 0 0 1-1.02.335l-25.79-12.977z"/><path fill="#108200" d="M242.043 68.04l28.59-56.7 22.283 11.212-28.59 56.7z"/><path opacity=".2" d="M264.994 50.225c-5.007-2.52-7.672-7.335-5.947-10.755 1.726-3.422 7.187-4.152 12.193-1.633 5.008 2.52 7.672 7.338 5.946 10.76-1.724 3.42-7.185 4.147-12.192 1.628zM285.303 25.757c-1.508-.758-2.312-2.21-1.792-3.24.52-1.03 2.17-1.254 3.677-.496 1.51.76 2.312 2.217 1.792 3.247-.52 1.033-2.168 1.25-3.677.49zM260.755 74.44c-1.507-.757-2.31-2.212-1.79-3.243.52-1.032 2.168-1.25 3.675-.493 1.51.76 2.314 2.213 1.794 3.245-.52 1.03-2.17 1.25-3.68.49zM272.61 19.37c-1.51-.757-2.313-2.21-1.795-3.24.52-1.03 2.17-1.253 3.677-.495 1.514.76 2.314 2.216 1.794 3.246-.52 1.034-2.165 1.25-3.677.49zM248.062 68.055c-1.508-.76-2.312-2.215-1.79-3.245.52-1.03 2.167-1.25 3.675-.492 1.51.76 2.313 2.213 1.794 3.244-.52 1.03-2.167 1.254-3.678.493z"/><g><path fill="#66A35D" d="M144.965 0h-33.007l12.156 28.693a.76.76 0 0 0 .996.402l26.594-11.243a.758.758 0 0 0 .404-.995L144.965 0z"/><path fill="#108200" d="M114.915 0l10.87 25.66 22.98-9.714L142.007 0z"/><ellipse transform="rotate(67.053 141.962 13.63)" opacity=".2" cx="141.965" cy="13.627" rx="2.093" ry="3.06"/><path opacity=".2" d="M129.693 21.087c-1.554.656-3.186.326-3.636-.736-.45-1.062.45-2.46 2.004-3.117 1.56-.66 3.187-.33 3.637.733.45 1.063-.445 2.462-2.004 3.12z"/></g><path opacity=".1" d="M302.814 139.113c-.06-.43-.17-.857-.373-1.268L274.503 81.61a4.075 4.075 0 0 0-.393-2.306l-.606-1.22-.005-.01-28.198-56.75-.84-1.69c-1.01-2.037-3.5-2.866-5.56-1.846l-24.87 12.33-3.896 1.83-.57-1.148 24.31-12.053a3.44 3.44 0 0 0 1.552-4.604l-2.77-5.572L228.4 0h-16.666L166.14 22.605a3.437 3.437 0 0 0-1.553 4.604l.61 1.23 8.18 16.466a3.444 3.444 0 0 0 4.61 1.55l23.658-11.73.61 1.23-38.603 19.14-4.044 1.9-11.69-23.536-.327.16-3.325-1.783-.59 3.725-.42.21-3.328-1.783-.588 3.723-.422.21-3.33-1.782-.588 3.724-.42.21-3.328-1.783-.59 3.726-.422.208-3.33-1.782-.584 3.723-.42.21-3.33-1.782-.588 3.723-.21.104 11.735 23.62-10.98 5.446c-2.06 1.02-2.903 3.502-1.89 5.54l8.396 16.897 16.912 34.04 4.337 8.73c.366.74.93 1.313 1.593 1.704l.797 1.603h147.502l1.462-.725a2.9 2.9 0 0 0 1.308-3.887l-.138-.275z"/><g><path fill="#62848C" d="M161.682 144h141.606l5.298-2.627a4.117 4.117 0 0 0 1.863-5.527l-36.984-74.44a4.13 4.13 0 0 0-5.535-1.863l-115.217 57.125a4.124 4.124 0 0 0-1.862 5.53L161.683 144z"/><path fill="#DADADA" d="M235.06 144l60.916-30.2-24.826-49.97-116.964 57.99 11.02 22.18z"/><path fill="#66A35D" d="M167.61 144h33.89l-23.125-46.543a.753.753 0 0 0-1.013-.342l-25.835 12.81a.755.755 0 0 0-.343 1.013L167.61 144z"/><path fill="#108200" d="M198.467 144l-21.41-43.098-22.328 11.07L170.64 144z"/><path opacity=".2" d="M182.458 139.775c-5.018 2.486-10.47 1.73-12.17-1.695-1.705-3.428.988-8.227 6.005-10.715 5.01-2.484 10.462-1.723 12.166 1.705 1.7 3.426-.99 8.22-6.002 10.705z"/><ellipse transform="rotate(63.583 174.123 107.037)" opacity=".2" cx="174.125" cy="107.032" rx="2.09" ry="3.057"/><path opacity=".2" d="M162.338 115.21c-1.51.747-3.156.52-3.67-.515-.51-1.03.3-2.482 1.81-3.23 1.516-.752 3.16-.518 3.672.514.514 1.032-.296 2.477-1.812 3.23z"/><path fill="#66A35D" d="M203.387 144h33.895l-30.13-60.643a.756.756 0 0 0-1.015-.34L180.3 95.827a.76.76 0 0 0-.342 1.015L203.388 144z"/><path fill="#108200" d="M233.26 144l.79-.393-28.218-56.8-22.325 11.068L206.423 144z"/><path opacity=".2" d="M211.23 125.678c-5.014 2.486-10.466 1.73-12.168-1.695-1.704-3.43.99-8.227 6.003-10.713 5.017-2.488 10.465-1.727 12.168 1.703 1.704 3.427-.985 8.218-6.003 10.705zM203.833 94.805c-1.513.75-3.158.523-3.672-.512-.512-1.03.3-2.482 1.814-3.232 1.51-.747 3.157-.515 3.67.517.512 1.032-.3 2.478-1.81 3.228zM226.09 144h.426c.5-.034 1.03-.167 1.548-.424 1.51-.75 2.32-2.2 1.808-3.232-.513-1.03-2.158-1.26-3.668-.512-1.513.75-2.326 2.2-1.814 3.23.285.575.928.89 1.7.938zM191.112 101.11c-1.51.75-3.154.522-3.668-.513-.513-1.03.3-2.482 1.808-3.23 1.515-.75 3.16-.518 3.672.514.514 1.034-.297 2.48-1.812 3.23z"/><path fill="#66A35D" d="M239.812 143.816a.76.76 0 0 1-1.02-.342l-30.285-60.957a.76.76 0 0 1 .344-1.016l25.834-12.808a.76.76 0 0 1 1.02.34l30.283 60.96a.755.755 0 0 1-.34 1.015l-25.835 12.81z"/><path fill="#108200" d="M240.277 140.352l-28.22-56.8 22.323-11.07 28.22 56.8z"/><path opacity=".2" d="M239.782 111.354c-5.016 2.486-10.467 1.73-12.17-1.695-1.703-3.43.99-8.228 6.005-10.714 5.016-2.486 10.467-1.725 12.17 1.703 1.7 3.424-.99 8.217-6.005 10.704zM232.38 80.482c-1.51.748-3.155.52-3.67-.512-.51-1.03.3-2.482 1.81-3.232 1.515-.75 3.16-.518 3.673.514.512 1.033-.3 2.48-1.814 3.23zM256.61 129.254c-1.512.748-3.157.518-3.67-.516-.514-1.033.297-2.48 1.81-3.23 1.515-.75 3.158-.52 3.67.513.515 1.035-.296 2.482-1.81 3.234z"/><ellipse transform="rotate(63.576 218.747 84.926)" opacity=".2" cx="218.735" cy="84.915" rx="2.09" ry="3.059"/><ellipse transform="rotate(63.59 242.977 133.696)" opacity=".2" cx="242.966" cy="133.685" rx="2.09" ry="3.06"/><path fill="#66A35D" d="M268.586 129.72a.764.764 0 0 1-1.02-.343L237.284 68.42a.756.756 0 0 1 .342-1.015l25.835-12.81a.757.757 0 0 1 1.017.34l30.286 60.957a.758.758 0 0 1-.343 1.018l-25.834 12.81z"/><path fill="#108200" d="M269.05 126.254l-28.22-56.8 22.326-11.07 28.22 56.802z"/><path opacity=".2" d="M268.557 97.258c-5.016 2.486-10.464 1.73-12.167-1.697-1.703-3.43.987-8.226 6-10.712 5.017-2.486 10.47-1.727 12.173 1.703 1.703 3.427-.99 8.22-6.006 10.708zM261.156 66.383c-1.51.748-3.152.52-3.668-.513-.513-1.03.3-2.482 1.81-3.23 1.51-.75 3.156-.518 3.67.514.512 1.035-.3 2.48-1.812 3.23zM285.39 115.156c-1.51.748-3.16.516-3.67-.518-.514-1.03.298-2.48 1.808-3.227 1.51-.75 3.157-.52 3.668.513.513 1.032-.297 2.483-1.807 3.233zM248.44 72.688c-1.51.75-3.154.523-3.67-.512-.51-1.03.3-2.483 1.81-3.23 1.516-.75 3.16-.52 3.672.512.517 1.034-.297 2.48-1.813 3.23zM272.67 121.46c-1.51.75-3.155.517-3.668-.517-.514-1.03.3-2.48 1.81-3.227 1.515-.752 3.16-.52 3.67.51.513 1.034-.296 2.483-1.812 3.233z"/><path fill="#99BABF" d="M304.157 144l5.495-2.725a2.9 2.9 0 0 0 1.308-3.887l-11.584-23.316a2.904 2.904 0 0 0-3.892-1.31L232.478 144h71.68z"/><path opacity=".1" d="M304.157 144l5.495-2.725a2.9 2.9 0 0 0 1.308-3.887l-1.89-3.805a2.896 2.896 0 0 1-1.31 3.887L294.593 144h9.565z"/><path fill="#E0F4FB" d="M281.508 76.074c1.01 2.04.168 4.52-1.893 5.543l-116.37 57.693c-2.058 1.02-4.546.19-5.56-1.848l-29.033-58.44c-1.013-2.036-.17-4.52 1.89-5.538l116.367-57.696c2.06-1.02 4.55-.19 5.56 1.847l29.038 58.44z"/><path opacity=".2" d="M182.91 144l102.76-50.947-6.98-14.05-116.965 57.99 3.48 7.007z"/><path opacity=".2" d="M281.396 84.45L164.43 142.44l-5.41-10.89 116.964-57.99zM232.852 144l62.687-31.08-.93-1.875L228.14 144z"/><path fill="#575756" d="M175.457 62.792a2.99 2.99 0 0 1-1.35 4.007l-26.64 13.207a2.992 2.992 0 0 1-4.012-1.348 2.987 2.987 0 0 1 1.353-4.007l26.64-13.208a2.994 2.994 0 0 1 4.01 1.347z"/><path fill="#62848C" d="M137.66 97.152l20.638 41.54c1.013 2.04 3.5 2.87 5.56 1.85l116.367-57.694c2.06-1.02 2.905-3.504 1.893-5.543l-20.64-41.54L137.66 97.15z"/><path fill="#AACED6" d="M137.048 95.922l20.64 41.54c1.012 2.04 3.5 2.87 5.56 1.85l116.368-57.694c2.06-1.02 2.903-3.504 1.893-5.543l-20.642-41.542-123.82 61.39z"/><path fill="#04BF8A" d="M239.687 54.79a3.624 3.624 0 0 1-6.493 3.218 3.62 3.62 0 0 1 1.635-4.853 3.63 3.63 0 0 1 4.857 1.634z"/><path opacity=".2" d="M165.624 55.932l6.042-2.838 1.47 13.01zM216.018 30.947l6.04-2.837 1.473 13.008z"/><path fill="#1985CE" d="M250.1 49.625a3.622 3.622 0 0 1-6.49 3.218 3.617 3.617 0 0 1 1.634-4.852 3.627 3.627 0 0 1 4.856 1.635z"/><path fill="#FF5252" d="M260.312 44.562a3.62 3.62 0 0 1-1.637 4.85c-1.79.89-3.967.158-4.856-1.63a3.623 3.623 0 0 1 6.492-3.22z"/><path opacity=".1" d="M253.31 19.324l-.838-1.688c-1.012-2.038-3.502-2.867-5.562-1.847L130.542 73.483c-2.06 1.02-2.902 3.502-1.89 5.54l.84 1.687L253.31 19.325z"/><g fill="#FFF"><path d="M244.148 63.77a3.622 3.622 0 0 1-1.637 4.853 3.62 3.62 0 0 1-4.853-1.634 3.616 3.616 0 0 1 1.634-4.852 3.628 3.628 0 0 1 4.858 1.633zM254.562 58.607a3.62 3.62 0 0 1-1.635 4.852 3.62 3.62 0 0 1-4.854-1.634 3.614 3.614 0 0 1 1.635-4.85 3.626 3.626 0 0 1 4.854 1.63zM264.775 53.544a3.618 3.618 0 0 1-1.637 4.852 3.62 3.62 0 1 1-3.22-6.485 3.63 3.63 0 0 1 4.857 1.633zM248.555 72.64a3.62 3.62 0 0 1-1.636 4.85 3.62 3.62 0 0 1-3.222-6.485 3.626 3.626 0 0 1 4.857 1.636zM258.967 67.476a3.62 3.62 0 0 1-1.633 4.852 3.623 3.623 0 0 1-4.856-1.633 3.615 3.615 0 0 1 1.634-4.853 3.625 3.625 0 0 1 4.855 1.634zM269.182 62.413a3.62 3.62 0 0 1-1.638 4.85 3.62 3.62 0 1 1-3.22-6.485 3.628 3.628 0 0 1 4.857 1.635zM253.185 81.96a3.62 3.62 0 0 1-1.636 4.85c-1.792.888-3.967.16-4.856-1.632a3.62 3.62 0 0 1 1.633-4.854 3.63 3.63 0 0 1 4.858 1.635zM263.598 76.797c.89 1.79.157 3.96-1.636 4.85a3.62 3.62 0 1 1-3.22-6.485 3.626 3.626 0 0 1 4.856 1.635zM273.812 71.732a3.624 3.624 0 1 1-6.493 3.22 3.62 3.62 0 0 1 1.635-4.855 3.63 3.63 0 0 1 4.858 1.635z"/></g><path fill="#FFE4C0" d="M155.925 31.46l-26.138 12.958 17.68 35.588 26.14-12.96z"/><path opacity=".05" d="M155.925 31.46l-8.457 48.546 26.138-12.96z"/><path opacity=".2" d="M146.527 78.117l26.138-12.96.936 1.888-26.137 12.96z"/><g fill="#FFE4C0"><path d="M129.935 44.714l.65-4.123 3.687 1.974zM134.272 42.564l.648-4.123 3.686 1.975zM138.606 40.415l.655-4.124 3.685 1.974zM142.945 38.264l.653-4.124 3.686 1.973zM147.284 36.113l.652-4.124 3.686 1.972zM151.622 33.962l.652-4.125 3.683 1.976z"/></g><g opacity=".2"><path d="M168.102 63.252a.9.9 0 0 1-.405 1.208l-18.718 9.282a.903.903 0 1 1-.803-1.617l18.718-9.28a.902.902 0 0 1 1.207.407zM166.267 59.558a.9.9 0 0 1-.405 1.21l-18.72 9.28a.902.902 0 1 1-.802-1.617l18.72-9.28a.904.904 0 0 1 1.207.408zM164.433 55.867a.9.9 0 0 1-.406 1.207l-18.718 9.28a.902.902 0 1 1-.803-1.617l18.718-9.278a.9.9 0 0 1 1.208.407zM162.598 52.173a.902.902 0 0 1-.405 1.207l-18.72 9.28a.902.902 0 1 1-.802-1.615l18.72-9.28a.904.904 0 0 1 1.208.408zM160.763 48.48a.903.903 0 0 1-.404 1.21l-18.72 9.28a.9.9 0 1 1-.803-1.616l18.718-9.282a.905.905 0 0 1 1.208.408zM158.93 44.787c.22.445.037.99-.407 1.21l-18.718 9.28a.905.905 0 0 1-1.21-.41.905.905 0 0 1 .406-1.21l18.72-9.28a.905.905 0 0 1 1.21.41zM157.093 41.093a.902.902 0 0 1-.405 1.207l-18.72 9.28a.903.903 0 0 1-.803-1.615l18.72-9.28a.904.904 0 0 1 1.208.408zM155.258 37.4c.222.447.04.99-.404 1.21l-18.72 9.28a.9.9 0 0 1-.803-1.614l18.72-9.282a.904.904 0 0 1 1.208.406z"/></g><path fill="#AACED6" d="M223.66 41.054l-7.917 3.926-6.7-13.482 7.92-3.926z"/><path fill="#62848C" d="M218.834 31.338l-7.918 3.926-1.873-3.766 7.92-3.926z"/><g><path fill="#85B3BA" d="M228.197 67.746c.417.838.076 1.85-.767 2.268l-5.47 2.71a1.69 1.69 0 0 1-2.27-.76l-2.716-5.47a1.692 1.692 0 0 1 .765-2.267l5.47-2.71a1.693 1.693 0 0 1 2.27.76l2.717 5.47zM214.7 74.438c.415.838.074 1.85-.764 2.266l-5.476 2.715a1.692 1.692 0 0 1-2.27-.763l-2.716-5.47a1.69 1.69 0 0 1 .765-2.265l5.475-2.715a1.692 1.692 0 0 1 2.267.763l2.717 5.468zM201.2 81.13a1.69 1.69 0 0 1-.765 2.267l-5.468 2.71a1.69 1.69 0 0 1-2.27-.76l-2.717-5.47a1.688 1.688 0 0 1 .766-2.266l5.468-2.71a1.695 1.695 0 0 1 2.27.762l2.716 5.47zM187.702 87.822a1.69 1.69 0 0 1-.765 2.268l-5.47 2.71a1.69 1.69 0 0 1-2.27-.76l-2.718-5.47a1.69 1.69 0 0 1 .765-2.266l5.47-2.713a1.695 1.695 0 0 1 2.27.763l2.717 5.47zM174.204 94.516c.416.838.07 1.852-.767 2.268l-5.473 2.713a1.692 1.692 0 0 1-2.267-.764l-2.717-5.47a1.69 1.69 0 0 1 .762-2.265l5.474-2.713a1.7 1.7 0 0 1 2.27.76l2.718 5.47zM160.705 101.207c.417.838.07 1.854-.765 2.268l-5.476 2.715a1.69 1.69 0 0 1-2.265-.764l-2.718-5.47a1.69 1.69 0 0 1 .76-2.265l5.477-2.714a1.7 1.7 0 0 1 2.27.762l2.715 5.47zM233.88 79.188c.418.836.078 1.85-.765 2.268l-5.47 2.713a1.695 1.695 0 0 1-2.27-.765l-2.715-5.467a1.687 1.687 0 0 1 .765-2.266l5.47-2.71a1.69 1.69 0 0 1 2.27.76l2.716 5.466zM220.383 85.88a1.69 1.69 0 0 1-.763 2.267l-5.476 2.715a1.695 1.695 0 0 1-2.27-.762l-2.716-5.47a1.687 1.687 0 0 1 .765-2.263l5.476-2.717a1.69 1.69 0 0 1 2.266.764l2.717 5.467zM206.884 92.574a1.69 1.69 0 0 1-.764 2.266l-5.468 2.71a1.693 1.693 0 0 1-2.27-.76l-2.717-5.468a1.685 1.685 0 0 1 .767-2.266l5.467-2.71a1.69 1.69 0 0 1 2.268.76l2.716 5.468zM193.387 99.266a1.69 1.69 0 0 1-.765 2.266l-5.47 2.713a1.695 1.695 0 0 1-2.27-.762l-2.717-5.467a1.688 1.688 0 0 1 .766-2.266l5.47-2.713a1.69 1.69 0 0 1 2.27.762l2.717 5.466zM179.89 105.957a1.695 1.695 0 0 1-.768 2.268l-5.473 2.713a1.692 1.692 0 0 1-2.268-.764l-2.716-5.467a1.687 1.687 0 0 1 .762-2.264l5.473-2.713a1.696 1.696 0 0 1 2.272.76l2.717 5.467zM166.39 112.65c.416.836.07 1.852-.765 2.266l-5.476 2.715a1.69 1.69 0 0 1-2.266-.763l-2.715-5.467a1.684 1.684 0 0 1 .76-2.264l5.475-2.715a1.695 1.695 0 0 1 2.27.763l2.715 5.467zM239.82 91.143c.418.836.077 1.85-.766 2.268l-5.47 2.714a1.693 1.693 0 0 1-2.268-.764l-2.717-5.47a1.688 1.688 0 0 1 .764-2.265l5.47-2.71a1.69 1.69 0 0 1 2.27.76l2.717 5.468zM226.322 97.836a1.69 1.69 0 0 1-.762 2.266l-5.476 2.715a1.698 1.698 0 0 1-2.27-.762l-2.717-5.47a1.69 1.69 0 0 1 .765-2.267l5.475-2.715a1.69 1.69 0 0 1 2.268.764l2.717 5.47zM212.824 104.53a1.69 1.69 0 0 1-.765 2.265l-5.47 2.71a1.692 1.692 0 0 1-2.27-.76l-2.717-5.47a1.688 1.688 0 0 1 .766-2.268l5.467-2.71a1.693 1.693 0 0 1 2.27.76l2.717 5.472zM199.327 111.22a1.69 1.69 0 0 1-.766 2.267l-5.47 2.713a1.693 1.693 0 0 1-2.27-.762l-2.717-5.47a1.69 1.69 0 0 1 .766-2.267l5.47-2.71a1.69 1.69 0 0 1 2.27.762l2.717 5.47zM185.83 117.912a1.696 1.696 0 0 1-.768 2.268l-5.473 2.713a1.69 1.69 0 0 1-2.267-.764l-2.717-5.47a1.685 1.685 0 0 1 .762-2.264l5.472-2.713a1.695 1.695 0 0 1 2.272.76l2.717 5.47zM172.33 124.605c.415.836.07 1.852-.765 2.266l-5.476 2.716a1.69 1.69 0 0 1-2.266-.764l-2.717-5.47a1.686 1.686 0 0 1 .76-2.263l5.477-2.716a1.694 1.694 0 0 1 2.27.762l2.715 5.47z"/></g><path fill="#E0F4FB" d="M237.4 0H235.1l5.877 11.83a1.377 1.377 0 0 1-.622 1.842L184.47 41.38c-.682.337-1.507.058-1.845-.622l-8.18-16.465a1.373 1.373 0 0 1 .62-1.842L220.348 0h-4.642l-41.56 20.605a3.437 3.437 0 0 0-1.55 4.604l8.18 16.466a3.448 3.448 0 0 0 4.61 1.55L241.27 15.52a3.44 3.44 0 0 0 1.55-4.605L237.4 0z"/><path fill="#3C3C3B" d="M236.27 0h-13.594L174.62 23.825a1.42 1.42 0 0 0-.638 1.903l8.443 16.994c.348.7 1.2.988 1.902.64l57.688-28.602c.704-.35.99-1.2.642-1.9L236.27 0z"/><path fill="#85B3BA" d="M237.4 0h-2.303l6.49 13.06c.336.68.06 1.503-.622 1.84L185.08 42.607c-.682.338-1.506.06-1.844-.618l-8.18-16.467a1.374 1.374 0 0 1 .62-1.842L223.44 0h-4.64l-44.04 21.835a3.438 3.438 0 0 0-1.553 4.604l8.18 16.465a3.444 3.444 0 0 0 4.61 1.55l55.885-27.708a3.44 3.44 0 0 0 1.553-4.604L237.4 0z"/><g fill="#108200"><path d="M196.433 32.742l-4.54-9.137-1.3.646-.654-1.315 1.957-2.593 1.316-.652 5.84 11.754-2.62 1.298zM202.233 15.217l2.617-1.298c.71-.354 1.456-.4 2.22-.136.77.264 1.33.752 1.684 1.462l3.238 6.52c.353.71.403 1.45.147 2.222a2.774 2.774 0 0 1-1.45 1.686l-2.618 1.297c-.71.353-1.457.4-2.226.146-.77-.256-1.338-.743-1.695-1.463l-3.237-6.518a2.797 2.797 0 0 1-.14-2.233c.26-.768.75-1.332 1.46-1.685zm3.788 1.09c-.548-.624-1.16-.77-1.84-.434a1.408 1.408 0 0 0-.727.84c-.128.38-.1.755.08 1.12l2.204 4.437.284-5.962zm.892 8.25c.24.323.51.528.82.606.308.084.64.037.996-.14a1.42 1.42 0 0 0 .74-.854c.124-.39.1-.76-.078-1.114l-2.202-4.433-.276 5.933zM213.872 9.447l2.615-1.297c.712-.352 1.456-.398 2.222-.136.77.265 1.332.75 1.686 1.46l3.238 6.52c.353.71.4 1.45.145 2.225-.255.768-.74 1.33-1.453 1.685l-2.616 1.297c-.713.354-1.456.4-2.227.146a2.81 2.81 0 0 1-1.69-1.465l-3.24-6.518a2.797 2.797 0 0 1-.144-2.23c.26-.77.747-1.334 1.462-1.688zm3.786 1.092c-.548-.626-1.16-.772-1.836-.438a1.395 1.395 0 0 0-.73.84c-.13.384-.102.757.08 1.123l2.204 4.435.282-5.96zm.892 8.247c.238.325.513.527.818.608.31.083.642.036 1-.142.362-.18.608-.465.734-.852.126-.39.1-.76-.076-1.114l-2.202-4.432-.274 5.933zM225.507 3.68l2.618-1.3c.71-.352 1.452-.396 2.223-.137.77.265 1.333.752 1.685 1.46l3.24 6.52c.35.71.4 1.452.144 2.225-.258.77-.74 1.333-1.452 1.686l-2.62 1.298c-.708.352-1.45.4-2.222.144a2.798 2.798 0 0 1-1.693-1.463l-3.24-6.52a2.782 2.782 0 0 1-.14-2.23c.26-.77.748-1.333 1.457-1.684zm3.785 1.09c-.545-.626-1.16-.772-1.837-.437a1.41 1.41 0 0 0-.727.84c-.13.383-.103.757.08 1.123l2.203 4.435.282-5.96zm.894 8.247c.24.324.513.53.82.607.31.084.642.037.995-.14.368-.18.613-.466.738-.853.13-.39.103-.76-.074-1.115l-2.202-4.433-.276 5.935z"/></g><ellipse transform="rotate(-26.376 219.593 42.814)" fill="#AACED6" cx="219.596" cy="42.802" rx="4.419" ry="1.134"/></g><path opacity=".1" d="M299.786 0H479.75v144H299.786z"/><g><path fill="#EDEDED" d="M312.937 0a4.01 4.01 0 0 0-2.283 3.612v139.792c0 .204.03.4.06.596H479.75V0H312.937z"/><path fill="#444" d="M312.937 0a4.01 4.01 0 0 0-2.283 3.612v12.046H479.75V0H312.937z"/><circle fill="#2CB740" cx="319.438" cy="7.838" r="3.182"/><path fill="#F16442" d="M332.316 7.838a3.182 3.182 0 0 1-6.364 0 3.18 3.18 0 0 1 3.176-3.177 3.185 3.185 0 0 1 3.188 3.178z"/><path fill="#FFF" d="M479.75 4.467H337.497a3.185 3.185 0 0 0-3.18 3.182 3.184 3.184 0 0 0 3.18 3.176H479.75v-6.36z"/><ellipse fill="#FCD22E" cx="342.037" cy="30.615" rx=".065" ry=".044"/><g fill="#77BC1F"><path d="M319.196 60.093h38.506v40.528h-38.506zM360.606 60.093h38.505v40.528h-38.504zM402.172 60.093h38.505v40.528h-38.505zM443.58 60.093h36.17v40.528h-36.17zM319.196 102.98h38.506v40.53h-38.506zM360.606 102.98h38.505v40.53h-38.504zM402.172 102.98h38.505v40.53h-38.505zM443.58 102.98h36.17v40.53h-36.17z"/></g><path fill="#77BC1F" d="M317.943 20.387H479.75v34.31H317.943z"/><path fill="#FFD658" d="M346.482 71.662v-.004h-3.901c0 .043 0 .088-.002.13l-2.904-1.63c.733-.48 1.347-1.056 1.347-2.03a2.222 2.222 0 0 0-2.218-2.217 2.22 2.22 0 0 0-2.22 2.22c0 .243.197.44.44.44a.44.44 0 0 0 .44-.44 1.338 1.338 0 0 1 2.676 0c0 .71-.565 1.077-1.562 1.662l-3.894 2.19a4.9 4.9 0 0 1-.013-.323h-3.646v.003c-.042 0-.082-.004-.123-.004-2.658 0-4.81 2.17-4.81 4.847v3.865h4.935V94.81h15.456V80.37h4.694v-3.865c.002-2.634-2.087-4.776-4.692-4.843zm-7.857 3.947c-.874 0-1.647-.226-2.272-.628h4.55c-.628.403-1.4.627-2.278.627zm.177-4.932l3.658 2.056a3.834 3.834 0 0 1-.624 1.367h-6.42a3.77 3.77 0 0 1-.577-1.196l3.962-2.226zM387.894 71.662v-.004H383.992c0 .043 0 .088-.003.13l-2.905-1.63c.734-.48 1.347-1.056 1.347-2.03a2.22 2.22 0 0 0-4.44 0 .44.44 0 0 0 .882 0 1.336 1.336 0 0 1 2.675 0c0 .713-.564 1.08-1.563 1.664l-3.896 2.19a5.713 5.713 0 0 1-.01-.323H372.435v.003c-.04 0-.082-.004-.122-.004-2.66 0-4.814 2.17-4.814 4.847v3.865h4.936V94.81h15.457V80.37h4.692v-3.865c0-2.634-2.088-4.776-4.69-4.843zm-7.857 3.947c-.876 0-1.65-.226-2.274-.628h4.55c-.627.403-1.4.627-2.276.627zm.175-4.932l3.657 2.056a3.8 3.8 0 0 1-.625 1.367h-6.418a3.767 3.767 0 0 1-.577-1.196l3.962-2.226zM429.46 71.662v-.004h-3.904c0 .043 0 .088-.002.13l-2.905-1.63c.733-.48 1.35-1.056 1.35-2.03a2.22 2.22 0 0 0-4.44 0 .44.44 0 0 0 .88.002 1.336 1.336 0 0 1 2.675 0c0 .71-.565 1.077-1.562 1.662l-3.894 2.19a4.295 4.295 0 0 1-.015-.323H414v.003c-.04 0-.08-.004-.122-.004-2.66 0-4.813 2.17-4.813 4.847v3.865H414V94.81h15.458V80.37h4.69v-3.865c.002-2.634-2.086-4.776-4.69-4.843zm-7.857 3.947c-.877 0-1.65-.226-2.273-.628h4.547c-.625.403-1.398.627-2.274.627zm.174-4.932l3.658 2.056a3.816 3.816 0 0 1-.624 1.367h-6.416a3.688 3.688 0 0 1-.58-1.196l3.963-2.226zM470.87 71.662v-.004H466.966c0 .043 0 .088-.003.13l-2.904-1.63c.734-.48 1.35-1.056 1.35-2.03a2.22 2.22 0 0 0-4.44 0 .44.44 0 0 0 .88 0 1.337 1.337 0 0 1 2.675 0c0 .713-.564 1.08-1.562 1.664l-3.895 2.19a5.704 5.704 0 0 1-.012-.323h-3.646v.003c-.04 0-.08-.004-.12-.004-2.66 0-4.815 2.17-4.815 4.847v3.865h4.936V94.81h15.458V80.37h4.692v-3.865c.002-2.634-2.087-4.776-4.69-4.843zm-7.857 3.947c-.876 0-1.65-.226-2.273-.628h4.55c-.628.403-1.4.627-2.277.627zm.175-4.932l3.658 2.056a3.832 3.832 0 0 1-.623 1.367h-6.42a3.747 3.747 0 0 1-.577-1.196l3.962-2.226zM346.482 114.55v-.003h-3.901c0 .043 0 .088-.002.13l-2.904-1.632c.733-.48 1.347-1.055 1.347-2.03a2.22 2.22 0 0 0-4.44 0 .44.44 0 0 0 .883 0 1.337 1.337 0 0 1 2.675 0c0 .713-.565 1.078-1.562 1.664l-3.894 2.19a4.84 4.84 0 0 1-.013-.323h-3.646v.004c-.042 0-.082-.003-.123-.003-2.658 0-4.81 2.17-4.81 4.846V123.26h4.935v14.436h15.456V123.26h4.694v-3.867c.002-2.635-2.087-4.778-4.692-4.842zm-7.857 3.948c-.874 0-1.647-.225-2.272-.627h4.55c-.628.403-1.4.628-2.278.628zm.177-4.932l3.658 2.055a3.827 3.827 0 0 1-.624 1.37h-6.42a3.79 3.79 0 0 1-.577-1.197l3.962-2.227zM387.894 114.55v-.003H383.992c0 .043 0 .088-.003.13l-2.905-1.632c.734-.48 1.347-1.055 1.347-2.03a2.22 2.22 0 0 0-4.44 0 .44.44 0 0 0 .883 0 1.338 1.338 0 0 1 2.674 0c0 .714-.563 1.08-1.562 1.665l-3.896 2.19a5.643 5.643 0 0 1-.01-.323H372.435v.004l-.122-.003c-2.66 0-4.814 2.17-4.814 4.846V123.26h4.936v14.436h15.457V123.26h4.692v-3.867c0-2.635-2.088-4.778-4.69-4.842zm-7.857 3.948c-.876 0-1.65-.225-2.274-.627h4.55c-.627.403-1.4.628-2.276.628zm.175-4.932l3.657 2.055a3.793 3.793 0 0 1-.625 1.37h-6.418a3.787 3.787 0 0 1-.577-1.197l3.962-2.227zM429.46 114.55v-.003h-3.904c0 .043 0 .088-.002.13l-2.905-1.632c.733-.48 1.35-1.055 1.35-2.03a2.22 2.22 0 0 0-4.44 0 .44.44 0 0 0 .88 0 1.338 1.338 0 0 1 2.675 0c0 .713-.565 1.078-1.562 1.664l-3.894 2.19a4.24 4.24 0 0 1-.015-.323H414v.004c-.04 0-.08-.003-.122-.003-2.66 0-4.813 2.17-4.813 4.846V123.26H414v14.436h15.458V123.26h4.69v-3.867c.002-2.635-2.086-4.778-4.69-4.842zm-7.857 3.948c-.877 0-1.65-.225-2.273-.627h4.547c-.625.403-1.398.628-2.274.628zm.174-4.932l3.658 2.055a3.81 3.81 0 0 1-.624 1.37h-6.416a3.708 3.708 0 0 1-.58-1.197l3.963-2.227zM470.87 114.55v-.003H466.966c0 .043 0 .088-.003.13l-2.904-1.632c.734-.48 1.35-1.055 1.35-2.03a2.22 2.22 0 0 0-4.44 0 .44.44 0 0 0 .88 0 1.338 1.338 0 0 1 2.675 0c0 .713-.564 1.078-1.562 1.664l-3.895 2.19a5.633 5.633 0 0 1-.012-.323h-3.646v.004l-.12-.003c-2.66 0-4.815 2.17-4.815 4.846V123.26h4.936v14.436h15.458V123.26h4.692v-3.867c.002-2.635-2.087-4.778-4.69-4.842zm-7.857 3.948c-.876 0-1.65-.225-2.273-.627h4.55c-.628.403-1.4.628-2.277.628zm.175-4.932l3.658 2.055a3.826 3.826 0 0 1-.623 1.37h-6.42a3.768 3.768 0 0 1-.577-1.197l3.962-2.227z"/><path fill="#FFF" d="M453.935 28.74c0 1.06-.86 1.92-1.922 1.92H350.195a1.92 1.92 0 0 1 0-3.84h101.817a1.92 1.92 0 0 1 1.923 1.92zM453.935 37.542c0 1.06-.86 1.92-1.922 1.92H350.195a1.92 1.92 0 0 1 0-3.84h101.817c1.063 0 1.923.86 1.923 1.92zM453.935 46.357a1.92 1.92 0 0 1-1.922 1.92H350.195a1.918 1.918 0 0 1 0-3.84h101.817a1.92 1.92 0 0 1 1.923 1.92z"/></g><path opacity=".1" fill="#444" d="M475.137 0C437.69 33.65 347.6 112.563 311.667 144H479.75V0h-4.613z"/><g><path fill="#007AC9" d="M443.95 102.466c0 9.402-7.622 17.017-17.033 17.017H373.96c-9.404 0-17.033-7.614-17.033-17.017V49.57c0-9.397 7.63-17.018 17.034-17.018h52.957c9.41 0 17.034 7.62 17.034 17.017v52.896z"/><g fill="#FFF"><path d="M425.12 81.355c2.237-6.793 5.737-21.695 7.057-26.996 1.17-4.69 1.934-6.436-.17-6.4-1.767.03-6.27.458-7.197 4.168-1.552 6.197-5.257 20.47-6.612 25.007-1.493 4.984-4.665 6.022-8.664 6.062-3.48.025-5.397-.245-5.397-2.886a150.6 150.6 0 0 0-3.61-.002c-.786-.004-2.498-.018-3.608.003 0 2.782-1.916 2.887-5.397 2.887-2.59 0-6.513-.48-7.952-5.216-1-3.302-3.5-11.847-4.785-16.36-1.29-4.516-5.333-4.767-7.27-4.778-2.136-.007-1.966.34-.733 4.78 1.23 4.44 3.928 14.345 5.814 20.98 1.886 6.637 8.36 8.8 12.497 8.8h6.98c3.17 0 4.29-1.36 4.456-1.788.174.43 1.392 1.788 4.57 1.788h6.764c5.746 0 11.09-3.49 13.256-10.047z"/><ellipse cx="389.937" cy="60.819" rx="3.309" ry="3.303"/><circle cx="400.683" cy="60.819" r="3.303"/><ellipse cx="411.567" cy="60.819" rx="3.309" ry="3.303"/><circle cx="389.937" cy="72.717" r="3.304"/><circle cx="400.683" cy="72.717" r="3.304"/><circle cx="411.567" cy="72.717" r="3.304"/><path d="M374.423 93.222a6.626 6.626 0 0 0-6.625 6.622c0 3.653 2.97 6.618 6.625 6.618 3.66 0 6.632-2.965 6.632-6.618a6.626 6.626 0 0 0-6.632-6.622zm0 9a2.376 2.376 0 0 1-2.373-2.378 2.376 2.376 0 1 1 2.373 2.377zM426.704 93.14a6.63 6.63 0 0 0-6.632 6.625c0 3.646 2.97 6.618 6.632 6.618 3.66 0 6.627-2.972 6.627-6.618 0-3.66-2.97-6.626-6.626-6.626zm0 8.995a2.375 2.375 0 0 1 0-4.75 2.38 2.38 0 0 1 2.377 2.38 2.377 2.377 0 0 1-2.376 2.37z"/></g></g></svg>