<svg xmlns="http://www.w3.org/2000/svg" width="480" height="144" viewBox="0 0 480 144"><path fill="#1BA88D" d="M0 0h480v144H0z"/><path opacity=".2" fill="#444" d="M21.505 85.733L106.558 144h17.638l30.024-43.782.59.404a3.825 3.825 0 0 0 5.315-.99l1.32-1.928 1.708 1.17a3.824 3.824 0 0 0 5.316-.993l5.94-8.665a3.818 3.818 0 0 0-.99-5.312l-1.706-1.17.54-.786.082-.12.52-.756a3.82 3.82 0 0 0-.994-5.31l-6.333-4.34 39.84-58.094a2.386 2.386 0 0 0-.62-3.318L190.145 0H84.976L77.4 11.046l-6.335-4.34a3.824 3.824 0 0 0-5.314.99l-3.09 4.508-1.263-.866a2.37 2.37 0 0 0-3.294.617l-.358.52-.956-.653L64.894 0h-4.293L53.15 10.87h-.002l-.82 1.196-.422.614-.29.42c-.397.58-.25 1.374.33 1.772l2.827 1.936-.358.52a2.365 2.365 0 0 0 .614 3.293l1.263.867-3.27 4.77a3.818 3.818 0 0 0 .99 5.31l-28.456 41.5-.002.003-3.6 5.25c-.002 0-.002.003-.004.005l-1.436 2.096a3.817 3.817 0 0 0 .99 5.313z"/><path fill="#C6C6C6" d="M63.66 0L52.905 15.68a1.77 1.77 0 0 0 .458 2.46c.808.553 1.91.347 2.464-.458L67.953 0H63.66z"/><path fill="#9D9D9C" d="M58.267 19.972a1.274 1.274 0 0 1-1.77.33l-3.55-2.43a1.274 1.274 0 0 1-.33-1.77l1.53-2.232c.4-.58 1.19-.73 1.772-.332l3.546 2.43c.58.398.728 1.19.33 1.772l-1.53 2.232z"/><path opacity=".2" d="M58.977 18.937l.82-1.197c.398-.58.25-1.374-.33-1.77l-3.547-2.432a1.273 1.273 0 0 0-1.77.332l-.822 1.197 5.65 3.87z"/><path fill="#C6C6C6" d="M169.47 100.88a3.824 3.824 0 0 1-5.316.993l-6.436-4.41c-1.742-1.192.904-1.455 2.098-3.195l5.943-8.667c1.193-1.738.483-4.3 2.225-3.107l6.437 4.41a3.818 3.818 0 0 1 .99 5.312l-5.942 8.666z"/><path opacity=".2" d="M172.35 96.678l3.062-4.463a3.818 3.818 0 0 0-.99-5.312l-6.438-4.41c-1.742-1.193-1.032 1.37-2.226 3.108l-3.063 4.466 9.655 6.612z"/><path fill="#C6C6C6" d="M55.416 20.33a2.366 2.366 0 0 0 .613 3.292l3.992 2.736c1.08.74.64-.848 1.38-1.927l3.687-5.375c.74-1.08 2.38-1.242 1.3-1.982l-3.993-2.736a2.37 2.37 0 0 0-3.295.617l-3.686 5.376z"/><path opacity=".2" d="M57.204 17.722l1.9-2.768a2.37 2.37 0 0 1 3.294-.617l3.993 2.736c1.08.74-.56.902-1.3 1.982l-1.898 2.77-5.988-4.103z"/><path fill="#445258" d="M161.125 102.63a3.824 3.824 0 0 1-5.315.992L55.015 34.57a3.82 3.82 0 0 1-.99-5.313l12.726-18.56a3.825 3.825 0 0 1 5.315-.992L172.86 78.758a3.82 3.82 0 0 1 .995 5.312l-12.73 18.56z"/><path fill="#445258" d="M22.506 88.733L103.18 144h24.073l29.29-42.708a3.818 3.818 0 0 0-.992-5.312l-93.9-64.328a3.824 3.824 0 0 0-5.314.992L21.514 83.42a3.82 3.82 0 0 0 .992 5.313z"/><path opacity=".3" d="M56.785 25.23l-2.76 4.027a3.82 3.82 0 0 0 .99 5.313l100.795 69.052a3.825 3.825 0 0 0 5.315-.99l2.763-4.028L56.785 25.23z"/><path opacity=".4" d="M173.254 84.948l.6-.876a3.818 3.818 0 0 0-.992-5.312L72.066 9.707a3.824 3.824 0 0 0-5.314.99l-.6.877 107.102 73.374z"/><path fill="#E84343" d="M23.948 86.63l83.74 57.37h19.566l30.73-44.81a3.82 3.82 0 0 0-.993-5.312L63.094 29.55a3.826 3.826 0 0 0-5.317.993L22.954 81.32a3.818 3.818 0 0 0 .994 5.31z"/><path fill="#FF625A" d="M27.55 81.378L118.956 144h8.297l34.33-50.062a3.822 3.822 0 0 0-.99-5.313l-93.9-64.327a3.824 3.824 0 0 0-5.314.99L26.557 76.067a3.82 3.82 0 0 0 .992 5.312z"/><path opacity=".13" fill="#FFF" d="M160.595 88.625l-93.9-64.327a3.824 3.824 0 0 0-5.315.99L48.23 44.463l100.206 68.648 13.147-19.172a3.82 3.82 0 0 0-.988-5.313z"/><path fill="#445258" d="M121.446 138.95L33.854 78.945 52.347 51.98l87.59 60.007z"/><path fill="#FFF" d="M102.104 116.563a3.08 3.08 0 0 1-4.282.798l-35.3-24.182a3.078 3.078 0 1 1 3.482-5.077l35.3 24.184a3.076 3.076 0 0 1 .8 4.28z"/><circle fill="#FFF" cx="125.157" cy="120.773" r="3.079"/><circle fill="#FFF" cx="116.748" cy="115.013" r="3.078"/><circle fill="#FFF" cx="108.339" cy="109.252" r="3.078"/><circle fill="#FFF" cx="99.93" cy="103.492" r="3.078"/><circle fill="#FFF" cx="91.522" cy="97.73" r="3.079"/><circle fill="#FFF" cx="83.113" cy="91.97" r="3.078"/><circle fill="#FFF" cx="74.703" cy="86.209" r="3.079"/><circle fill="#FFF" cx="66.295" cy="80.448" r="3.078"/><circle fill="#FFF" cx="57.885" cy="74.688" r="3.078"/><circle fill="#FFF" cx="49.477" cy="68.927" r="3.079"/><g><circle fill="#FFF" cx="125.516" cy="111.241" r="3.079"/><circle fill="#FFF" cx="117.107" cy="105.479" r="3.079"/><circle fill="#FFF" cx="108.698" cy="99.719" r="3.079"/><circle fill="#FFF" cx="100.289" cy="93.958" r="3.078"/><circle fill="#FFF" cx="91.881" cy="88.197" r="3.078"/><circle fill="#FFF" cx="83.471" cy="82.437" r="3.079"/><circle fill="#FFF" cx="75.061" cy="76.676" r="3.078"/><circle fill="#FFF" cx="66.653" cy="70.915" r="3.078"/><circle fill="#FFF" cx="58.244" cy="65.154" r="3.078"/></g><g><circle fill="#FFF" cx="115.551" cy="125.773" r="3.079"/><circle fill="#FFF" cx="107.14" cy="120.012" r="3.079"/><circle fill="#FFF" cx="56.687" cy="85.448" r="3.078"/><circle fill="#FFF" cx="48.278" cy="79.687" r="3.078"/></g><path fill="#1D1D1B" d="M163.827 84.946a2.39 2.39 0 0 1-3.323.62L69.58 23.278a2.386 2.386 0 0 1-.618-3.32 2.39 2.39 0 0 1 3.322-.62l90.922 62.288a2.392 2.392 0 0 1 .62 3.32z"/><path fill="#445258" d="M98.61 45.585l-17.773 4.03c2.155 10.946 8.43 21.094 18.367 27.902 9.937 6.808 21.67 8.995 32.663 7.057l-2.65-18.022L98.61 45.585z"/><path opacity=".2" d="M100.945 74.98c-9.224-6.32-15.192-15.662-17.58-25.938l-2.53.573c2.156 10.947 8.43 21.095 18.368 27.903 9.937 6.808 21.67 8.995 32.663 7.057l-.377-2.563c-10.45 1.48-21.318-.713-30.545-7.033zM75.153 24.498l82.206 56.32-1.17 1.707-82.207-56.32z"/><path fill="#FFE4C0" d="M105.72 47.945l-2.022 2.946a2.798 2.798 0 0 0 .726 3.89l14.117 9.67a2.8 2.8 0 0 0 3.89-.726l2.02-2.947-18.73-12.832z"/><g><path fill="#FFE4C0" d="M205.75 13.007L186.766 0h-98.73l-16.76 24.438L159.4 84.81l46.968-68.485a2.385 2.385 0 0 0-.62-3.318z"/><path fill="#444" d="M205.75 13.007L186.766 0h-16.888l32.445 22.227 4.048-5.902a2.385 2.385 0 0 0-.62-3.318z"/><path fill="#FFF" d="M201.273 13.45L181.64 0h-6.685l24.18 16.566a1.89 1.89 0 0 0 2.137-3.115z"/><path opacity=".2" fill="#444" d="M163.483 0h-4.325l36.314 24.878a1.222 1.222 0 0 0 1.382-2.017L163.484 0z"/><g opacity=".2" fill="#444"><path d="M148.12 0h-3.616l42.865 29.365c.488.335 1.145.23 1.463-.234.32-.465.18-1.116-.308-1.45L148.12 0zM140.035 0h-3.62l48.368 33.135c.49.334 1.148.23 1.468-.237.32-.465.18-1.116-.31-1.45L140.036 0zM132.054 0h-3.612l53.793 36.852c.485.335 1.145.23 1.465-.235.32-.464.177-1.114-.31-1.45L132.055 0zM124.088 0h-3.618l59.217 40.567c.487.334 1.146.23 1.465-.236.317-.464.18-1.115-.31-1.45L124.088 0z"/></g><g opacity=".2" fill="#444"><path d="M112.576 0h-3.62l67.493 46.237c.488.336 1.147.23 1.465-.233.32-.467.18-1.118-.31-1.454L112.575 0zM104.49 0h-3.62l72.993 50.007c.49.335 1.147.23 1.467-.236.32-.465.18-1.116-.31-1.45L104.49 0zM96.51 0H93c.065.08.13.16.22.222l78.096 53.502c.488.335 1.147.232 1.464-.233.32-.464.18-1.115-.31-1.45L96.51 0zM170.233 57.204c-.318.467-.976.57-1.468.235L90.672 3.937c-.492-.336-.63-.985-.31-1.453.318-.466.974-.57 1.465-.233l78.095 53.5c.492.336.633.986.31 1.452z"/></g><path opacity=".2" fill="#444" d="M167.73 60.855c-.318.463-.978.568-1.466.233L88.17 7.588c-.493-.337-.63-.988-.312-1.452.32-.468.978-.572 1.468-.236l78.096 53.5c.49.336.63.986.307 1.455zM165.147 64.622c-.32.466-.977.57-1.467.234l-78.094-53.5c-.493-.337-.632-.987-.312-1.453.32-.467.976-.57 1.466-.234l78.098 53.5c.49.336.63.985.31 1.452zM162.597 68.34c-.32.464-.976.567-1.467.233l-78.095-53.5c-.49-.337-.63-.986-.31-1.452.317-.463.975-.567 1.465-.23l78.095 53.5c.49.334.632.985.312 1.45zM160.05 72.053c-.32.467-.977.57-1.465.235l-78.098-53.5c-.49-.337-.63-.986-.31-1.453.32-.465.976-.57 1.467-.233l78.096 53.5c.49.335.63.986.31 1.45zM157.447 75.85c-.32.468-.98.57-1.468.236l-78.098-53.5c-.49-.337-.63-.987-.31-1.454.32-.467.976-.57 1.467-.234L157.135 74.4c.488.334.63.985.31 1.45zM154.897 79.568c-.32.467-.977.57-1.465.235l-78.098-53.5c-.49-.337-.63-.986-.31-1.452.318-.463.974-.568 1.465-.232l78.093 53.502c.49.335.632.985.314 1.448z"/></g><path opacity=".3" fill="#444" d="M212.76 144h56.867l50.878-37.75v.002l8.003-5.94a3.317 3.317 0 0 0 .69-4.645L258.142 0h-44.015L146.96 49.836a3.32 3.32 0 0 0-.688 4.645L212.76 144z"/><g><path fill="#FFE4C0" d="M216.76 144h56.87l58.88-43.687a3.317 3.317 0 0 0 .69-4.646L262.146 0H218.13l-67.167 49.836a3.318 3.318 0 0 0-.688 4.645L216.76 144z"/><path fill="#444" d="M262.146 0H245.59l78.917 106.252 8.003-5.94a3.317 3.317 0 0 0 .69-4.645L262.146 0z"/><path fill="#FFF" d="M257.122 0h-5.255c-.218.76-.1 1.61.404 2.29l70.61 95.066a2.63 2.63 0 0 0 3.677.543 2.627 2.627 0 0 0 .546-3.677L257.123 0z"/><path opacity=".2" fill="#444" d="M247.08 13.296a1.704 1.704 0 0 0-.353 2.383l67.558 90.96a1.702 1.702 0 0 0 2.383.352c.753-.56.915-1.622.352-2.38l-67.56-90.96a1.705 1.705 0 0 0-2.38-.356zM240.286 0h-6.173l7.28 9.8a2.48 2.48 0 0 0 3.468.513 2.47 2.47 0 0 0 .51-3.464L240.287 0z"/><g opacity=".2" fill="#444"><path d="M303.62 109.237c-.632.467-1.545.307-2.037-.354L239.98 25.938c-.494-.665-.383-1.584.245-2.05.636-.47 1.55-.31 2.042.353l61.603 82.944c.492.662.38 1.582-.25 2.053zM298.51 113.028c-.632.47-1.548.31-2.04-.354L234.864 29.73c-.494-.663-.382-1.583.252-2.05.633-.47 1.543-.31 2.035.354l61.604 82.944c.493.66.385 1.58-.247 2.05zM293.465 116.768c-.63.47-1.544.307-2.035-.354L229.828 33.47c-.493-.664-.385-1.583.25-2.05.63-.47 1.54-.308 2.034.355l61.603 82.944c.49.66.383 1.58-.25 2.048zM288.43 120.504c-.632.47-1.548.31-2.037-.352L224.79 37.208c-.494-.664-.385-1.583.25-2.052.63-.468 1.54-.31 2.033.355l61.607 82.945c.49.663.38 1.582-.25 2.05z"/></g><g opacity=".2" fill="#444"><path d="M281.595 126.508c-.63.467-1.544.307-2.036-.355L200.98 20.355c-.49-.663-.38-1.584.25-2.05.634-.47 1.546-.31 2.04.354l78.58 105.795c.49.663.38 1.584-.255 2.053zM276.488 130.3c-.633.467-1.548.307-2.04-.355L195.87 24.15c-.49-.666-.382-1.585.25-2.054.635-.47 1.545-.31 2.038.355l78.58 105.797c.49.664.383 1.583-.25 2.052zM271.446 134.04c-.633.47-1.544.31-2.036-.354l-78.578-105.8c-.496-.663-.384-1.582.248-2.05.63-.468 1.544-.307 2.036.357l78.578 105.798c.49.662.38 1.582-.248 2.05zM266.407 137.776c-.633.47-1.547.31-2.037-.352l-78.58-105.8c-.49-.662-.38-1.582.253-2.05.63-.47 1.543-.31 2.035.355l78.58 105.796c.49.662.38 1.582-.25 2.05z"/></g><path opacity=".2" fill="#444" d="M261.458 141.45c-.63.468-1.543.308-2.035-.355l-78.58-105.797c-.49-.665-.38-1.584.248-2.052.634-.47 1.547-.31 2.043.354l78.578 105.797c.49.662.382 1.584-.252 2.053zM253.652 144h3.222a1.51 1.51 0 0 0-.277-.81L178.02 37.394c-.495-.666-1.406-.826-2.037-.357-.633.47-.744 1.39-.25 2.054L253.652 144zM245.832 144h3.545L172.975 41.134c-.49-.664-1.402-.823-2.036-.357-.632.47-.74 1.388-.248 2.052L245.832 144zM238.018 144h3.55L167.94 44.873c-.493-.666-1.404-.826-2.036-.358-.632.47-.745 1.39-.25 2.055L238.018 144zM230.03 144h3.546L162.79 48.69c-.49-.663-1.403-.824-2.037-.354-.633.47-.743 1.39-.25 2.054L230.03 144zM222.215 144h3.54L157.75 52.436c-.496-.665-1.408-.827-2.038-.36-.633.47-.74 1.39-.247 2.054l66.75 89.87z"/><path fill="#FCD22E" d="M241.39 15.034c-.02-.023-.045-.033-.06-.02-.02.01-.016.04 0 .063.018.024.048.034.064.022.014-.012.014-.042-.003-.066z"/><path opacity=".2" fill="#444" d="M221.643 31.8a1.635 1.635 0 0 1-2.287-.34L207.59 15.62a1.634 1.634 0 0 1 .34-2.286l15.648-11.61a1.638 1.638 0 0 1 2.288.335l11.766 15.84c.54.726.387 1.75-.338 2.29l-15.65 11.61z"/></g><path opacity=".3" fill="#444" d="M480 0H287.15a4.64 4.64 0 0 0-.502 2.074V144H480V0z"/><g><path fill="#FFE4C0" d="M480 0H290.153a4.642 4.642 0 0 0-.504 2.074V144H480V0z"/><path fill="#444" d="M480 0H290.153a4.642 4.642 0 0 0-.504 2.074v14.06H480V0z"/><circle fill="#2CB740" cx="299.895" cy="7.009" r="3.711"/><path fill="#F16442" d="M314.915 7.01a3.71 3.71 0 0 1-7.42 0A3.708 3.708 0 0 1 311.2 3.3a3.713 3.713 0 0 1 3.715 3.71z"/><path fill="#FFF" d="M480 3.075H320.958c-2.04 0-3.71 1.66-3.71 3.71a3.715 3.715 0 0 0 3.71 3.71H480v-7.42z"/><path opacity=".2" fill="#444" d="M480 23.23H331.47a2.406 2.406 0 0 0-2.405 2.4 2.408 2.408 0 0 0 2.406 2.403H480V23.23zM323.822 25.63a3.5 3.5 0 0 1-3.498 3.5h-21.41a3.497 3.497 0 0 1-3.493-3.5 3.49 3.49 0 0 1 3.494-3.49h21.41a3.493 3.493 0 0 1 3.498 3.49z"/><g opacity=".2" fill="#444"><path d="M480 40.285H337.426c-1.167 0-2.115.9-2.115 2.012 0 1.106.95 2.006 2.116 2.006H480v-4.018zM480 49.264H337.426c-1.167 0-2.115.895-2.115 2.007s.95 2.012 2.116 2.012H480v-4.018zM480 58.122H337.426c-1.167 0-2.115.897-2.115 2.004 0 1.11.95 2.007 2.116 2.007H480v-4.01zM480 66.967H337.426c-1.167 0-2.115.898-2.115 2.006 0 1.112.95 2.01 2.116 2.01H480v-4.016z"/></g><g opacity=".2" fill="#444"><path d="M480 79.75H298.3c-1.168 0-2.117.9-2.117 2.01 0 1.107.95 2.008 2.117 2.008H480v-4.02zM480 88.727H298.3c-1.168 0-2.117.896-2.117 2.008 0 1.11.95 2.01 2.117 2.01H480v-4.018zM480 97.584H298.3c-1.168 0-2.117.898-2.117 2.006 0 1.11.95 2.007 2.117 2.007H480v-4.013zM480 106.43H298.3c-1.168 0-2.117.898-2.117 2.007 0 1.112.95 2.01 2.117 2.01H480v-4.017z"/></g><path opacity=".2" fill="#444" d="M480 115.12H298.3c-1.168 0-2.117.9-2.117 2.014 0 1.105.95 2.006 2.117 2.006H480v-4.02zM480 124.1H298.3c-1.168 0-2.117.895-2.117 2.006s.95 2.01 2.117 2.01H480V124.1zM480 132.958H298.3c-1.168 0-2.117.896-2.117 2.004 0 1.11.95 2.008 2.117 2.008H480v-4.012zM480 141.8H298.3c-1.168 0-2.117.9-2.117 2.008 0 .066.014.128.02.192H480v-2.2z"/><ellipse fill="#FCD22E" cx="326.253" cy="33.586" rx=".076" ry=".052"/><path opacity=".2" fill="#444" d="M328.65 69.996a2.307 2.307 0 0 1-2.308 2.307H298.49a2.308 2.308 0 0 1-2.307-2.307V42.51a2.308 2.308 0 0 1 2.307-2.307h27.852a2.307 2.307 0 0 1 2.308 2.307v27.486z"/></g><path opacity=".2" d="M40.003 104.11l15.565-21.626c1.564-2.153 1.237-5.053-.73-6.488-1.963-1.427-4.826-.846-6.39 1.307l-11.556 16.06a44.986 44.986 0 0 1-.985-.09l.05-.07c1.57-2.15 1.24-5.052-.728-6.48-1.962-1.43-4.826-.847-6.39 1.306l-1.71 2.402c-.015-.01-.028-.016-.04-.026a52.117 52.117 0 0 1-.586-.432l.938-1.314c1.563-2.146 1.237-5.05-.732-6.483-1.967-1.43-4.827-.845-6.39 1.307l-.835 1.172c-.178-.12-.354-.238-.53-.354.943-1.91.522-4.19-1.117-5.385-1.85-1.343-4.542-.79-6.015 1.23l-3.13 4.38a15.63 15.63 0 0 0-1.543 1.828L0 96.2V144h8.918c1.616-5.057 2.893-9.583 2.893-9.583s-1.414-.834-3.624-2.15l.923-1.28h-.004l2.413-3.35c1.608.133 3.23.07 4.827-.214.822.182 1.71.216 2.633.072l22.24-3.473c3.728-.584 6.83-2.86 6.606-6.28-.227-3.42-3.165-4.757-6.894-4.174l-8.795 1.372 7.698-10.64c.055-.067.118-.122.168-.19zM60.795 140.7c.107.928.377 1.775.772 2.52.024.26.064.52.1.78h39.677l2.277-2.85c.553-.69.995-1.346 1.356-1.975l3.388-4.18c1.557-1.96 1.375-4.7-.415-6.125-1.588-1.26-3.9-1.06-5.49.36a25.4 25.4 0 0 0-.483-.42l.908-1.116c1.66-2.078 1.462-4.99-.44-6.504-1.906-1.516-4.792-1.057-6.448 1.02l-1.018 1.254c-.19-.148-.382-.298-.574-.45l-.034-.03 1.86-2.288c1.66-2.08 1.46-4.993-.438-6.504-1.902-1.514-4.788-1.06-6.447 1.023l-.055.067c-.12-.31-.235-.618-.348-.925l12.413-15.408c1.66-2.08 1.46-4.993-.44-6.505-1.907-1.514-4.79-1.056-6.45 1.023L77.752 114.22c-.054.068-.09.144-.14.213l-8.212 10.25-1.017-8.84c-.43-3.75-2.5-6.223-5.86-5.532-3.358.697-4.728 4.29-4.298 8.04l2.57 22.35z"/><g><path fill="#FDDBA4" d="M79.475 144l-7.086-5.696L67.805 144z"/><path fill="#FDDBA4" d="M103.345 144l2.277-2.852c6.66-8.348-1.21-11.77-9.215-18.133-8.003-6.362-5.867-22.245-12.534-13.895l-16.03 20c-3.518 4.412-4.853 9.82-4.166 14.88h39.668z"/><path fill="#FDDBA4" d="M103.358 98.95c1.66-2.08 1.46-4.992-.44-6.504-1.908-1.514-4.79-1.056-6.45 1.023L79.753 114.22c-1.66 2.075-1.463 4.987.44 6.5 1.904 1.516 4.792 1.056 6.448-1.02l16.716-20.752zM62.796 140.7c.147 1.274.604 2.395 1.27 3.3h8.414c.708-1.534.73-3.645.478-5.808l-2.572-22.348c-.43-3.75-2.5-6.223-5.86-5.532-3.358.696-4.728 4.29-4.298 8.038l2.568 22.35zM98.235 120.696c1.66-2.08 1.46-4.993-.44-6.504-1.902-1.514-4.788-1.06-6.447 1.023l-9.42 11.584c-1.658 2.073-1.458 4.985.443 6.5 1.902 1.513 4.79 1.056 6.448-1.024l9.417-11.58zM104.887 127.694c1.66-2.078 1.462-4.99-.44-6.504-1.907-1.516-4.793-1.057-6.45 1.02l-7.79 9.59c-1.653 2.076-1.46 4.987.446 6.5 1.9 1.515 4.79 1.06 6.445-1.022l7.79-9.584zM110.365 134.994c1.556-1.958 1.375-4.698-.415-6.124-1.792-1.423-4.51-.99-6.07.963l-3.4 4.2c-1.56 1.955-1.372 4.696.42 6.12 1.788 1.425 4.506.994 6.063-.963l3.402-4.196z"/><path fill="#FDDBA4" d="M65.008 144h12.52c1.658-2.306 2.616-5.467 2.43-8.82-.344-6.17-4.416-10.615-9.097-9.935-4.686.686-8.203 6.238-7.857 12.406.137 2.47.876 4.65 2.005 6.35z"/><path fill="#EDC082" d="M101.532 93.518c-1.54-.94-3.567-.434-4.522 1.132-.962 1.56.184 2.97 1.724 3.9 1.54.937 2.893 1.048 3.85-.512.964-1.565.486-3.587-1.052-4.52"/></g><g><path fill="#FDDBA4" d="M1.395 106.415L0 108.35v24.13l6.896 4.962 12.842-17.826z"/><path fill="#13110C" d="M0 125.712v5.078l7.7 5.54 2.41-3.345z" opacity=".2"/><path fill="#FDDBA4" d="M28.09 92.405c-8.27-6.018-13.663-12.69-19.94-4.05L0 99.578v23.352a17.708 17.708 0 0 0 3.474 3.365c8.267 6.018 20.054 3.89 26.33-4.746l15.024-20.767c6.277-8.646-8.472-2.36-16.738-8.378z"/><path fill="#FDDBA4" d="M49.45 79.303c1.562-2.153 4.426-2.734 6.39-1.307 1.966 1.436 2.293 4.335.728 6.488L41.004 106.11c-1.56 2.15-4.42 2.736-6.39 1.305-1.964-1.43-2.29-4.334-.728-6.482l15.563-21.63zM41.934 115.568c3.73-.583 6.667.753 6.895 4.173.222 3.423-2.88 5.698-6.61 6.282l-22.238 3.473c-3.73.58-6.934-1.72-7.16-5.14-.228-3.422 3.146-4.74 6.875-5.316l22.237-3.472zM29.842 90.028c1.563-2.152 4.426-2.735 6.388-1.307 1.967 1.43 2.298 4.33.73 6.483l-8.666 12.158c-1.56 2.15-4.42 2.735-6.387 1.306-1.963-1.43-2.292-4.333-.728-6.483l8.662-12.155zM21.32 85.483c1.563-2.152 4.424-2.736 6.39-1.307 1.97 1.433 2.295 4.336.732 6.482l-7.174 10.06c-1.563 2.146-4.422 2.733-6.386 1.3-1.968-1.428-2.3-4.33-.73-6.48l7.17-10.055zM12.823 82.147c1.474-2.02 4.165-2.574 6.015-1.23 1.85 1.348 2.156 4.083.69 6.104l-3.15 4.394c-1.468 2.023-4.162 2.572-6.01 1.226-1.853-1.343-2.16-4.077-.688-6.1l3.143-4.393z"/><path fill="#FDDBA4" d="M22.866 128.484c-6.042 1.315-11.417-1.427-12.003-6.118-.59-4.693 3.83-9.56 9.872-10.875 6.044-1.31 11.415 1.43 12.004 6.122.586 4.696-3.832 9.564-9.874 10.872"/><path fill="#EDC082" d="M55.173 79.617c1.316 1.233 1.37 3.32.113 4.66-1.248 1.34-2.913.613-4.22-.624-1.314-1.234-1.78-2.508-.532-3.847 1.253-1.344 3.33-1.423 4.64-.19"/></g><path fill="#684F31" d="M0 128.734V144h10.55c1.304-4.19 2.26-7.583 2.26-7.583S6.72 132.823 0 128.734z"/><path opacity=".3" fill="#444" d="M235.45 56.032c-.005-.015-.008-.03-.012-.046a12.314 12.314 0 0 0-.256-.84c-.028-.083-.054-.167-.084-.25-.086-.24-.184-.473-.285-.706a10.898 10.898 0 0 0-.467-.96 11.932 11.932 0 0 0-.562-.94c-.1-.15-.203-.296-.31-.442a10.368 10.368 0 0 0-.742-.917c-.12-.133-.235-.267-.36-.396-.155-.16-.318-.31-.482-.46-.12-.11-.237-.225-.363-.332-.195-.166-.402-.32-.61-.476-.108-.08-.21-.167-.322-.244a12.694 12.694 0 0 0-1.02-.64c-5.393-3.024-12.08-1.525-15.73 3.248l.013.073c-.307.308-.63.752-.98 1.375l-5.682 10.126c.327 1.7.7 3.59 1.075 5.394-1.04-1.064-1.877-1.957-2.545-2.77l-7.494 13.355c.38 1.998.853 4.437 1.33 6.73-1.37-1.4-2.393-2.51-3.13-3.52l-6.438 11.475 3.304 16.937-12.892 22.98c-.488.87-2.33 5.346-1.958 4.83 2.52-3.48 4.197-4.125 4.687-4.996l12.232-21.802 16.024-5.956 2.112-3.765a80.675 80.675 0 0 1-3.404-.096A388.202 388.202 0 0 0 215 99.42l10.636-18.952c-1.273.174-2.782.292-4.645.398a458.804 458.804 0 0 0 7.077-4.733l6.207-11.063a9.13 9.13 0 0 0 .414-.832 12.193 12.193 0 0 0 .76-8.206z"/><g><path fill="#706F6F" d="M238.277 63.07c3.314-5.904-5.23-1.898-11.14-5.21-5.908-3.31-6.943-12.688-10.257-6.783l-5.682 10.126c.327 1.7.7 3.59 1.074 5.394-1.04-1.064-1.878-1.957-2.546-2.77l-7.494 13.355c.378 1.998.852 4.437 1.328 6.73-1.37-1.4-2.392-2.51-3.13-3.52l-6.438 11.475 3.627 18.598 17.77-6.604 2.112-3.764a80.675 80.675 0 0 1-3.404-.096 381.685 381.685 0 0 0 4.904-2.58l10.635-18.953c-1.273.174-2.783.292-4.645.398a468.738 468.738 0 0 0 7.076-4.733l6.21-11.062z"/><path fill="#594D6D" d="M221.03 68.745l17.978-7.256c2.17-5.6-.035-12.086-5.428-15.108-5.394-3.023-12.082-1.524-15.73 3.25l3.18 19.113z"/><path opacity=".2" d="M238.277 63.07c3.314-5.904 1.21-13.378-4.698-16.69l-35.96 64.085 17.77-6.604 2.114-3.764A80.675 80.675 0 0 1 214.1 100a381.685 381.685 0 0 0 4.904-2.58l10.635-18.953c-1.274.174-2.784.292-4.646.398a468.738 468.738 0 0 0 7.076-4.733l6.207-11.062z"/><path opacity=".2" d="M197.62 110.465l2.697-1.003L228.03 60.07c.488-.87.436-1.827-.118-2.138-.556-.31-1.4.144-1.888 1.013l-29.054 51.783.65-.263z"/><path fill="#B2B2B2" d="M187.135 131.618c-.49.87-2.167 1.516-4.688 4.997-.373.515 1.47-3.962 1.957-4.832l41.047-73.157c.488-.87 1.336-1.323 1.89-1.013.553.31.607 1.267.118 2.137l-40.323 71.868z"/></g><path opacity=".1" fill="#444" d="M480 .663L477.46.59c-.712 2.485-188.475 143.22-188.475 143.22l-.014.19H480V.663z"/><path fill="#445258" d="M38.132 37.99c-1.312 3.59-4.814 4.134-8.404 2.823L11.845 34.28c-3.59-1.312-5.914-3.985-4.602-7.574l3.722-10.18a6.925 6.925 0 0 1 8.88-4.123l17.884 6.533a6.92 6.92 0 0 1 4.124 8.875l-3.722 10.18z"/><path opacity=".2" d="M37.73 18.937l-2.27-.83a6.92 6.92 0 0 1 4.126 8.876L35.864 37.16c-1.313 3.59-4.813 4.136-8.405 2.824l2.268.83c3.59 1.31 7.092.765 8.404-2.824l3.722-10.18a6.92 6.92 0 0 0-4.125-8.873z"/><path fill="#445258" d="M35.168 24.172l-16.744-6.117 3.967-10.85 16.746 6.118z"/><path opacity=".2" d="M22.39 7.206l16.745 6.116-1.665 4.56-16.745-6.118z"/><ellipse transform="rotate(20.066 30.077 12.146)" fill="#55676D" cx="30.074" cy="12.144" rx="11.538" ry="1.866"/><path fill="#55676D" d="M20.358 5.118l21.677 7.918-1.032 2.825-21.677-7.917z"/><ellipse transform="rotate(20.066 31.178 9.134)" fill="#7C8E93" cx="31.176" cy="9.133" rx="11.539" ry="1.866"/><ellipse transform="rotate(20.066 31.176 9.133)" fill="#445258" cx="31.176" cy="9.133" rx="9.05" ry="1.324"/><path opacity=".2" d="M25.763 20.335l-13.995-5.112a8.235 8.235 0 0 0-1.02 1.9l-3.545 9.694 14.28 5.217c1.194.437 2.588-.375 3.113-1.81l2.376-6.5c.527-1.435-.017-2.953-1.21-3.39z"/></svg>