<svg xmlns="http://www.w3.org/2000/svg" width="320.662" height="298.063" viewBox="0 0 320.662 298.063"><ellipse fill="#F6F6F6" cx="161.926" cy="285.241" rx="158.735" ry="12.822"/><path fill="#EEE" d="M82.156 97.043a2.492 2.492 0 0 1-1.742 3.06l-.283.075a2.488 2.488 0 0 1-3.056-1.743l-2.864-10.45a2.494 2.494 0 0 1 1.743-3.06l.28-.078a2.493 2.493 0 0 1 3.06 1.745l2.863 10.45z"/><path fill="#FFD79D" d="M20.022 120.665c.575 1.25-.08 2.762-1.467 3.376l-.292.132c-1.385.616-2.972.102-3.547-1.146l-4.53-9.85c-.573-1.25.083-2.76 1.466-3.378l.295-.13c1.382-.615 2.97-.1 3.543 1.15l4.532 9.847zM84.64 96.965c.268 1.35-.723 2.667-2.21 2.943l-.32.06c-1.485.276-2.91-.594-3.18-1.94l-2.11-10.635c-.27-1.345.72-2.665 2.21-2.943l.316-.058c1.49-.276 2.913.593 3.182 1.943l2.113 10.63z"/><path fill="#E6E6E6" d="M35.205 129.964l38.11-14.366 14.632 38.817-38.11 14.365z"/><ellipse transform="rotate(-20.658 62.703 143.607)" fill="#E6E6E6" cx="62.71" cy="143.618" rx="19.328" ry="6.444"/><path fill="#AFAFAF" d="M72.096 120.896L33.28 135.53l1.94 5.148c8.54 3.41 16.962 4.258 23.117 1.938 6.004-2.264 12.29-8.51 15.822-16.246l-2.064-5.474z"/><path fill="#D3B59C" d="M79.194 87.542c8.404 22.294-4.4 47.764-17.794 52.812-13.478 5.08-39.826-5.628-48.23-27.923-8.407-22.296-.44-45.944 17.79-52.817 18.235-6.874 39.828 5.63 48.234 27.93z"/><ellipse transform="rotate(-20.653 29.337 104.904)" fill="#FFF" cx="29.331" cy="104.889" rx="6.48" ry="4.804"/><ellipse transform="rotate(-20.653 60.73 93.054)" fill="#FFF" cx="60.73" cy="93.052" rx="6.479" ry="4.805"/><path opacity=".3" fill="#70462D" d="M83.683 114.16c-.96 4.928-6.083 8.446-11.45 7.858-5.37-.588-8.944-5.062-7.985-9.99.955-4.93 6.082-8.45 11.45-7.86 5.368.587 8.94 5.062 7.985 9.992zM44.38 130.028c-1.172 6.025-7.438 10.327-13.998 9.605-6.56-.716-10.934-6.187-9.763-12.21 1.168-6.03 7.436-10.33 14.002-9.613 6.557.723 10.93 6.193 9.758 12.218z"/><path opacity=".2" fill="#010101" d="M51.2 78.797l-2.63.99-17.1 6.447c-1.455.548-2.367 1.698-2.633.992-.532-1.41 1.178-.444 2.633-.992l17.1-6.446c1.452-.548 2.097-2.403 2.63-.99 0 0-.533-1.413 0 0z"/><ellipse transform="rotate(-20.658 57.412 94.007)" fill="#7C604A" cx="57.403" cy="93.998" rx="1.964" ry="1.781"/><ellipse transform="rotate(-20.658 57.682 93.323)" opacity=".5" fill="#FFF" cx="57.671" cy="93.312" rx=".465" ry=".42"/><ellipse transform="rotate(-20.658 26.174 105.785)" fill="#7C604A" cx="26.168" cy="105.773" rx="1.964" ry="1.781"/><ellipse transform="rotate(-20.584 26.434 105.08)" opacity=".5" fill="#FFF" cx="26.435" cy="105.086" rx=".465" ry=".421"/><path fill="#FFF" d="M115.563 161.358c-.153-.404.073-.865-.63-.6-.7.264-.23.46-.076.866l8.852 23.48c.152.408-.07.867.63.604.703-.265.23-.462.075-.87l-8.852-23.48z"/><path fill="#E2E2E2" d="M27.433 244.873l-7.514-19.93-13.99-37.11c-5.372-14.248 5.05-31.74 24.677-39.14l60.418-22.777a51.982 51.982 0 0 1 3.082-1.042l-.01-.025c12.45-3.945 24.545-2.466 32.763 2.972 4.218 2.705 7.435 6.415 9.153 10.973l11.61 30.795-.15.055 2.38 6.31 7.512 19.926c.537 1.427 1.35 2.608 1.495 3.913-9.374 4.545-19.776 9.478-31.064 14.446l-.05-.133c-11.18 4.87-22.574 9.665-35.1 14.387-23.357 8.806-34.633 39.75-53.095 44.856-.752-1.08-11.58-27.05-12.117-28.477z"/><path opacity=".2" fill="#9B9B9B" d="M147.65 204.018c-.147-1.306-.956-2.488-1.494-3.914l-7.512-19.926-2.378-6.308.146-.056-11.61-30.795c-1.717-4.56-4.934-8.27-9.152-10.974-8.217-5.438-20.312-6.917-32.763-2.973l.01.026a50.78 50.78 0 0 0-3.08 1.04l11.208-4.226a51.982 51.982 0 0 1 3.082-1.042l-.01-.025c12.45-3.944 24.545-2.465 32.763 2.973 4.218 2.705 7.435 6.415 9.153 10.973l11.61 30.795-.15.055 2.38 6.31 7.512 19.926c.537 1.425 1.35 2.606 1.495 3.91-2.242 3.575-7.455 2.914-11.21 4.228z"/><path opacity=".2" fill="#010101" d="M44.27 113.363c1.222 3.245 4.525 5 7.153 4.01 2.627-.99 3.95-4.49 2.727-7.734l-5.314-14.095c-1.222-3.242-4.525-5-7.153-4.01-2.628.99-3.95 4.492-2.727 7.735l5.313 14.093z"/><circle fill="#ED5A5A" cx="45.656" cy="113.3" r="2.542"/><circle fill="#ED5A5A" cx="54.337" cy="110.026" r="2.542"/><path fill="#F66" d="M43.382 111.015c1.224 3.243 4.527 5 7.155 4.01 2.628-.99 3.948-4.49 2.726-7.734L47.95 93.198c-1.222-3.244-4.525-5-7.153-4.01-2.627.99-3.95 4.49-2.727 7.734l5.312 14.095z"/><path opacity=".34" fill="#010101" d="M56.75 240.558l-18.8-49.87c-.21-.562-.145-2.053-.457-1.935l-.03.01c-.31.118-1.136 1.895-.924 2.456l18.72 49.654 1.49-.316zM131.563 212.354l-18.8-49.87c-.212-.562-.134-2.057.178-2.175l.032-.013c.31-.116.285 1.36.496 1.92l18.72 49.654-.625.484zM61.775 85.336c.348.888-1.434 2.464-3.996 3.465l-30.14 11.8c-2.563 1.002-4.936 1.057-5.287.17-.344-.888 1.436-2.456 3.996-3.462l30.142-11.8c2.558-1.004 4.935-1.057 5.283-.172z"/><path fill="#FFF" d="M61.417 84.385c.348.888-1.435 2.463-3.995 3.466l-30.14 11.8c-2.563 1-4.935 1.057-5.288.17-.343-.89 1.436-2.458 3.996-3.464l30.144-11.8c2.557-1.003 4.934-1.056 5.283-.17z"/><g opacity=".34" fill="#010101"><path d="M43.75 79.904l-.497.362s-1.728 1.83-1.264 4.094l-4.257-11.29c3.383 2.764 5.68 5.47 6.018 6.834zM76.53 100.348c-.527-5.508-1.704-9.52-1.567-8.09.308 3.22-2.195 6.43-5.756 6.595 1.146-2.008 4.172-13.437 3-10.54-1.576 3.897-9.037 6.293-6.38 3.98 2.66-2.316 2.076-3.146 2.81-8.408-2.086-15.08-19.397-7.318-24.366-3.808L39.553 67.56l22.5-8.483a49.668 49.668 0 0 1 3.28 2.348c11.43 8.908 19.08 21.637 24.177 34.03l-12.98 4.893zM44.014 87.328c1.52 1.204.966 1.586-.38 1.396l-1.2-3.186c.33.592.83 1.195 1.58 1.79z"/></g><path opacity=".34" fill="#010101" d="M16.48 105.78c2.486 1.572 5.7 3.456 6.858 3.83-2.938 2.294-7.104 1.582-9.048-1.05-1.908-2.582 9.118 19.14 21.004 18.895 10.164-.212 33.797-12.698 42.52-16.77-.717 1.448-1.64 2.723-2.826 3.724-9.094 7.658-13.854 6.632-16.842 8.287-2.99 1.656 2.8 11.468 3.142 11.868.25.29 4.378 5.506 6.593 8.305-4.616 1.943-8.345 3.49-8.345 3.49l-18.82 6.565-16.508 4.638S8.29 136.94 2.1 111.2l14.38-5.42z"/><path fill="#E2E2E2" d="M1.092 81.567c7.163-37.69 41.505-9.525 42.894-3.925l-.496.363s-3.504 3.682.76 7.06c4.262 3.38-7.766.305-7.96-3.82-.198-4.125-1.105.678.194 4.125 1.3 3.446-6.143-1.884-5.387-3.48.756-1.598-27.79 3.392-17.66 18.73 4.023 3.468 4.133 4.478 7.658 4.46s-3.66 3.108-7.418 1.222c-2.793-1.402 7.025 5.186 9.21 5.937-2.782 2.225-6.78 1.47-8.675-1.154-1.86-2.573 8.978 19.01 20.354 18.92 9.73-.077 32.192-12.095 40.49-15.998 4.457-9.458-.122-26.758.14-24.01.31 3.22-2.194 6.428-5.755 6.594 1.147-2.008 4.173-13.437 3-10.54-1.577 3.897-9.038 6.293-6.378 3.978 2.66-2.313 2.075-3.145 2.81-8.406-2.087-15.08-19.397-7.317-24.368-3.808l-7.156-18.984c5.467-7.175 14.458-10.39 28.218.333C95.83 82.747 99.6 133.11 99.6 133.11l-14.704 7.116-17.587 7.155-1.345-1.736c-4.395 1.858-7.945 3.337-7.945 3.337l-17.934 6.237-15.743 4.36S-6.07 119.26 1.093 81.567z"/><ellipse transform="rotate(159.347 58.547 133.62)" opacity=".9" fill="#161616" cx="58.544" cy="133.615" rx="14.045" ry="3.771"/><ellipse transform="rotate(159.347 59.053 134.395)" opacity=".9" fill="#161616" cx="59.05" cy="134.391" rx="15.878" ry="4.478"/><path opacity=".34" fill="#010101" d="M24.542 53.657c-46.173 24.295-2.323 77.19-2.323 77.19-.772-1.47-7.263-24.777-6.883-27.196-.067-1.888 1.636-8.787 4.74-7.577 6.337 2.417 33.043-7.38 33.186-7.442 7.514-3.453 12.986-3.393 16.68-3.29-.543-.88-1.736-2.136-6.952-3.427 6.92-.85 10.25 1.516 12.884 3.367-.44-.974-4.67-5.544-4.67-5.544s13.463 10.615 19.53 25.956c-.52-7.46-12.863-68.814-66.192-52.035z"/><path fill="#E2E2E2" d="M23.37 51.925c-46.685 24.49-2.614 77.3-2.614 77.3-.772-1.468-7.24-24.784-6.852-27.207-.06-1.89 1.682-8.805 4.812-7.605 6.387 2.398 33.376-7.503 33.52-7.567 7.596-3.484 13.117-3.443 16.85-3.354-.55-.878-1.75-2.133-7.008-3.407 6.986-.876 10.338 1.48 12.99 3.326-.44-.973-4.694-5.533-4.694-5.533S83.926 88.46 89.996 103.8C89.5 96.33 77.253 34.937 23.37 51.924z"/><path fill="#FFF" d="M70.438 125.95c-2.868 1.15-6.73 4.678-11.856 6.61-5.133 1.936-10.274 2.077-13.217 3.03l-.78-2.074c2.978-.898 7.606-1.897 12.51-3.746 5.354-2.018 9.784-4.574 12.61-5.77l.733 1.95z"/><path opacity=".34" fill="#9B9B9B" d="M49.797 58.98c.077.585 2.08 12.975 11.42 15.436 9.34 2.46-18.214-1.404-18.134-10.248.08-8.846-1.408 7.825 1.15 11.367 2.56 3.54-5.76-4.728-6.457-9.53C36.503 77.1 36.538 81.87 38.948 85.19c2.41 3.32-9.977-9.06-10.25-16.068-.272-7.008-6.282 3.938-4.684 6.53 1.597 2.593-7.702-4.052-2.79-9.777 4.912-5.73 28.573-6.896 28.573-6.896z"/><path fill="#E2E2E2" d="M49.604 57.062c.065.594 1.85 13.13 11.453 15.414 9.603 2.283-18.804-1.003-18.517-9.988.288-8.986-1.637 7.98.926 11.52 2.564 3.536-5.848-4.67-6.457-9.53-1.575 11.297-1.65 16.144.767 19.46 2.416 3.316-10.11-8.974-10.23-16.084-.12-7.112-6.59 4.145-4.996 6.74 1.593 2.6-7.87-3.936-2.657-9.864 5.212-5.93 29.71-7.668 29.71-7.668z"/><path fill="#9B9B9B" d="M1.092 81.567c.71-3.74 1.693-6.824 2.88-9.354 2.796-7.597 8.715-14.685 19.398-20.288 10.177-3.208 18.863-3.612 26.27-2.12-6.23-.558-13.192.153-20.99 2.574-10.823 5.806-16.72 13.343-19.394 21.515C8.1 76.61 7.172 79.928 6.536 83.97c-4.534 28.892 10.397 59.7 19.447 75.152l-1.643.455c.002 0-30.41-40.318-23.248-78.01z" opacity=".3"/><g opacity=".34" fill="#010101"><path d="M43.83 140.87l.066-10.27s9.295 9.688 7.148 10.206-7.215.065-7.215.065zM74.437 129.332l-6.832-7.672s-.584 13.414 1.37 12.387c1.954-1.03 5.462-4.715 5.462-4.715z"/></g><g fill="#FFF"><path d="M43.628 141.332l.37-9.686s9.103 8.86 6.917 9.41c-2.182.553-7.287.276-7.287.276zM74.875 129.553l-6.67-7.03s-.988 12.663 1.016 11.635c2.003-1.028 5.655-4.605 5.655-4.605z"/></g><path fill="#F66" d="M58.79 133.546c3.745-1.41 7.257-1.29 7.845.27.018.047.022.096.034.144-1.9 1.107-4.22 2.214-6.795 3.185-2.373.895-4.658 1.562-6.69 1.99a1.24 1.24 0 0 1-.108-.208c-.59-1.56 1.967-3.97 5.714-5.38z"/><path fill="#F4F4F4" d="M44.166 139.92c2.9.223 8.705-1.044 15.107-3.458 6.76-2.548 12.172-5.613 13.935-7.717 1.04.083 1.72.352 1.903.834.69 1.832-5.806 5.978-14.507 9.258-8.705 3.28-16.318 4.455-17.01 2.622-.153-.408.067-.94.573-1.54z"/><ellipse transform="rotate(159.342 47.6 106.897)" opacity=".1" fill="#010101" cx="47.598" cy="106.898" rx="3.39" ry="7.31"/><path opacity=".4" fill="#9B9B9B" d="M118.342 158.613c.41.39.54 5.638 4.525 7.804-4.8-1.18-7.136-2.472-7.667-4.58-.53-2.11.03 3.928.96 5.343-2.464-2.332-4.735-3.104-4.457-5.52.277-2.414-2.34 3.6-1.34 4.852-2.288-3.62-4.104-3.886-2.492-6.26 1.615-2.373 10.472-1.64 10.472-1.64z"/><path fill="#E2E2E2" d="M118.18 157.227c.417.386.5 5.652 4.565 7.788-4.91-1.138-7.294-2.412-7.818-4.523s-.008 3.94.933 5.354c-2.503-2.316-4.825-3.07-4.518-5.497.308-2.426-2.434 3.634-1.42 4.88-2.312-3.61-4.172-3.86-2.495-6.257s10.753-1.746 10.753-1.746z"/><path opacity=".4" fill="#9B9B9B" d="M33.164 191.587c-.02.55 3.126 4.662 1.942 8.775 2.305-3.857 2.985-6.287 2.022-8.233-.96-1.947 2.398 3.034 2.682 4.693.12-3.306 1.08-5.297-.582-6.98-1.66-1.684 3.69 1.326 3.828 2.904-.78-4.188.203-5.51-2.276-6.342-2.478-.832-7.616 5.182-7.616 5.182z"/><path fill="#E2E2E2" d="M32.533 190.737c-.025.554 3.16 4.65 1.908 8.79 2.4-3.894 3.12-6.34 2.152-8.282-.968-1.945 2.43 3.023 2.705 4.685.156-3.318 1.157-5.326-.528-7-1.688-1.674 3.77 1.296 3.897 2.878-.762-4.196.258-5.532-2.274-6.343-2.534-.812-7.86 5.272-7.86 5.272z"/><path opacity=".34" fill="#9B9B9B" d="M97.37 131.23c.175 1.086 5.853 14.87 4.962 14.438-.892-.43-13.61-7.15-13.61-7.15l-1.212 11.587-6.662-5.16 3.573 15.92-14.926-10.3-3.19 6.962s-3.728-5.888-3.472-5.212c.25.666 2.102 16.853 2.14 19.524S48.453 159.07 48.453 159.07s-6.91 7.404-6.51 7.83c.403.42-6.67-4.2-6.67-4.2l-3.103.78-3.05-4.22-4.408-1.408L97.37 131.23z"/><path fill="#E2E2E2" d="M98.412 128.726c.162 1.09 5.857 14.872 4.95 14.445-.91-.425-13.87-7.05-13.87-7.05l-1.345 11.635-8.644-4.417 3.777 16.612-13.58-11.575-3.334 7.013s-6.803-5.494-6.55-4.82 4.118 16.868 4.134 19.55c.012 2.68-15.867-13.015-15.867-13.015s-7.143 7.49-6.73 7.91c.405.422-6.802-4.15-6.802-4.15l-3.18.813-3.078-4.21-4.503-1.376 74.622-27.364z"/><path fill="#3A383A" d="M110.375 79.823H265.74v171.77H110.375z"/><path fill="#5E5E5E" d="M106.298 77.05a7.394 7.394 0 0 0 7.393 7.395h152.05V57.087v-7.392H113.69a7.393 7.393 0 0 0-7.392 7.392V77.05z"/><path fill="#FFF" d="M220.993 62.687c0 .893.718 1.608 1.606 1.608a1.603 1.603 0 0 0 0-3.208c-.89 0-1.607.72-1.607 1.6zM226.832 62.687c0 .893.72 1.608 1.607 1.608s1.6-.716 1.6-1.608c0-.88-.714-1.6-1.6-1.6s-1.608.72-1.608 1.6zM232.67 62.687a1.603 1.603 0 1 0 1.604-1.6c-.888 0-1.604.72-1.604 1.6zM238.505 62.687c0 .893.72 1.608 1.605 1.608a1.604 1.604 0 0 0 0-3.208c-.886 0-1.605.72-1.605 1.6zM244.345 62.687a1.6 1.6 0 0 0 1.604 1.608 1.604 1.604 0 0 0 0-3.208 1.6 1.6 0 0 0-1.605 1.6zM250.178 62.687c0 .893.718 1.608 1.61 1.608a1.603 1.603 0 0 0 0-3.208c-.892 0-1.61.72-1.61 1.6zM256.017 62.687c0 .893.72 1.608 1.607 1.608s1.607-.716 1.607-1.608a1.607 1.607 0 0 0-3.213 0zM261.857 62.687a1.603 1.603 0 1 0 1.604-1.6c-.887 0-1.603.72-1.603 1.6zM224.205 67.07c0 .883.72 1.606 1.604 1.606a1.605 1.605 0 1 0-1.604-1.607zM230.04 67.07a1.61 1.61 0 0 0 1.606 1.606 1.606 1.606 0 1 0-1.606-1.607zM235.878 67.07c0 .883.72 1.606 1.605 1.606a1.606 1.606 0 0 0 0-3.212c-.885 0-1.605.72-1.605 1.605zM241.716 67.07c0 .883.72 1.606 1.605 1.606.89 0 1.603-.724 1.603-1.607a1.6 1.6 0 0 0-1.602-1.606c-.884 0-1.604.72-1.604 1.605zM247.556 67.07c0 .883.72 1.606 1.602 1.606a1.605 1.605 0 1 0-1.602-1.607zM253.392 67.07c0 .883.717 1.606 1.607 1.606a1.61 1.61 0 0 0 1.603-1.607 1.605 1.605 0 0 0-3.21 0zM259.232 67.07c0 .883.714 1.606 1.604 1.606.887 0 1.604-.724 1.604-1.607a1.604 1.604 0 0 0-3.208 0zM224.205 75.822a1.605 1.605 0 0 0 3.21 0 1.606 1.606 0 0 0-3.21 0zM230.04 75.822a1.607 1.607 0 1 0 3.215.005 1.607 1.607 0 0 0-3.215-.005zM235.878 75.822c0 .893.72 1.61 1.605 1.61.89 0 1.604-.718 1.604-1.61 0-.885-.715-1.604-1.604-1.604-.885 0-1.605.72-1.605 1.604zM241.716 75.822c0 .893.72 1.61 1.605 1.61.89 0 1.603-.718 1.603-1.61a1.6 1.6 0 0 0-1.602-1.604c-.884 0-1.604.72-1.604 1.604zM247.556 75.822a1.605 1.605 0 0 0 3.21 0 1.605 1.605 0 0 0-3.21 0zM253.392 75.822a1.604 1.604 0 0 0 3.21 0 1.605 1.605 0 0 0-3.21 0zM259.232 75.822a1.604 1.604 0 0 0 3.208 0 1.604 1.604 0 0 0-3.208 0z"/><circle fill="#FFF" cx="222.599" cy="71.446" r="1.606"/><circle fill="#FFF" cx="228.436" cy="71.446" r="1.604"/><path fill="#FFF" d="M232.67 71.446a1.605 1.605 0 0 0 3.208 0c0-.885-.717-1.607-1.604-1.607-.888 0-1.604.72-1.604 1.606z"/><circle fill="#FFF" cx="240.111" cy="71.446" r="1.605"/><path fill="#FFF" d="M244.345 71.446c0 .886.713 1.607 1.604 1.607a1.608 1.608 0 0 0 0-3.214c-.892 0-1.605.72-1.605 1.606zM250.178 71.446a1.607 1.607 0 1 0 3.215 0 1.607 1.607 0 0 0-3.215 0z"/><circle fill="#FFF" cx="257.625" cy="71.446" r="1.607"/><circle fill="#FFF" cx="263.461" cy="71.446" r="1.604"/><path fill="#FFF" d="M154.36 65.768h57.31v2.768h-57.31zM154.36 72.205h57.31v2.77h-57.31z"/><path fill="#EB6159" d="M119.054 67.07c0 6.126 4.967 11.092 11.09 11.092 6.13 0 11.094-4.966 11.094-11.093s-4.965-11.09-11.094-11.09c-6.123 0-11.09 4.963-11.09 11.09z"/><path fill="#3A383A" d="M121.83 67.07a8.317 8.317 0 0 0 8.314 8.317c4.6 0 8.32-3.725 8.32-8.318a8.317 8.317 0 0 0-8.32-8.32c-4.592 0-8.315 3.725-8.315 8.32z"/><path fill="#5E5E5E" d="M106.298 114.875a7.395 7.395 0 0 0 7.393 7.396h152.05V94.912v-7.394H113.69a7.394 7.394 0 0 0-7.392 7.395v19.965z"/><path fill="#FFF" d="M224.205 96.138a1.604 1.604 0 0 0 3.21 0 1.605 1.605 0 1 0-3.21 0zM230.04 96.138a1.607 1.607 0 0 0 3.213 0 1.606 1.606 0 1 0-3.213 0zM235.878 96.138a1.605 1.605 0 1 0 1.605-1.607c-.885 0-1.605.718-1.605 1.608zM241.716 96.138c0 .886.72 1.604 1.605 1.604a1.6 1.6 0 0 0 1.603-1.604 1.605 1.605 0 1 0-3.207 0zM247.556 96.138a1.604 1.604 0 0 0 3.21 0 1.605 1.605 0 1 0-3.21 0zM253.392 96.138c0 .886.717 1.604 1.607 1.604a1.604 1.604 0 0 0 0-3.21c-.89-.002-1.608.716-1.608 1.606zM259.232 96.138a1.603 1.603 0 0 0 3.208 0 1.604 1.604 0 1 0-3.208 0z"/><circle fill="#FFF" cx="222.599" cy="100.515" r="1.606"/><circle fill="#FFF" cx="228.436" cy="100.515" r="1.604"/><path fill="#FFF" d="M232.67 100.515c0 .886.716 1.603 1.604 1.603a1.604 1.604 0 1 0-1.604-1.603z"/><circle fill="#FFF" cx="240.111" cy="100.515" r="1.605"/><path fill="#FFF" d="M244.345 100.515a1.6 1.6 0 0 0 1.604 1.603 1.604 1.604 0 0 0 0-3.21 1.6 1.6 0 0 0-1.605 1.607zM250.178 100.515c0 .886.718 1.603 1.61 1.603a1.604 1.604 0 0 0 0-3.21c-.89 0-1.61.72-1.61 1.607z"/><circle fill="#FFF" cx="257.625" cy="100.515" r="1.607"/><circle fill="#FFF" cx="263.461" cy="100.515" r="1.604"/><path fill="#FFF" d="M224.205 104.896a1.606 1.606 0 1 0 1.604-1.606c-.887 0-1.605.717-1.605 1.606zM230.04 104.896a1.606 1.606 0 0 0 3.213 0 1.606 1.606 0 1 0-3.213 0zM235.878 104.896c0 .884.72 1.604 1.605 1.604.89 0 1.604-.72 1.604-1.604a1.604 1.604 0 1 0-3.21 0zM241.716 104.896c0 .884.72 1.604 1.605 1.604a1.6 1.6 0 0 0 1.603-1.604 1.604 1.604 0 1 0-3.207 0zM247.556 104.896a1.605 1.605 0 1 0 1.602-1.606c-.883 0-1.602.717-1.602 1.606zM253.392 104.896A1.605 1.605 0 1 0 255 103.29c-.89 0-1.608.717-1.608 1.606zM259.232 104.896a1.604 1.604 0 1 0 1.604-1.606 1.6 1.6 0 0 0-1.604 1.606zM224.205 113.646a1.605 1.605 0 1 0 1.604-1.603c-.887 0-1.605.72-1.605 1.603zM230.04 113.646zM235.878 113.646zM241.716 113.646c0 .892.72 1.608 1.605 1.608a1.6 1.6 0 0 0 1.603-1.608 1.6 1.6 0 0 0-1.602-1.603c-.884 0-1.604.72-1.604 1.603zM247.556 113.646a1.604 1.604 0 1 0 1.602-1.603c-.883 0-1.602.72-1.602 1.603zM253.392 113.646a1.605 1.605 0 1 0 1.607-1.603c-.89 0-1.608.72-1.608 1.603zM259.232 113.646a1.603 1.603 0 0 0 3.208 0 1.604 1.604 0 0 0-3.208 0zM220.993 109.27a1.606 1.606 0 1 0 3.212.005 1.606 1.606 0 0 0-3.212-.006zM226.832 109.27a1.603 1.603 0 0 0 3.208 0c0-.885-.715-1.605-1.602-1.605s-1.608.72-1.608 1.604zM232.67 109.27a1.604 1.604 0 0 0 3.208 0 1.604 1.604 0 1 0-3.208 0zM238.505 109.27a1.605 1.605 0 0 0 3.21 0 1.605 1.605 0 1 0-3.21 0zM244.345 109.27c0 .89.713 1.608 1.604 1.608a1.607 1.607 0 0 0 0-3.213 1.6 1.6 0 0 0-1.605 1.604zM250.178 109.27a1.607 1.607 0 1 0 1.61-1.605c-.892 0-1.61.72-1.61 1.604zM256.017 109.27a1.608 1.608 0 0 0 3.214 0 1.608 1.608 0 0 0-3.213 0zM261.857 109.27a1.605 1.605 0 0 0 3.208 0 1.604 1.604 0 0 0-3.208 0zM154.36 96.983h57.31v2.772h-57.31zM154.36 103.59h57.31v2.77h-57.31zM154.36 110.03h57.31v2.77h-57.31z"/><path fill="#EB6159" d="M119.054 104.896c0 6.125 4.967 11.092 11.09 11.092 6.13 0 11.094-4.967 11.094-11.092 0-6.13-4.965-11.095-11.094-11.095-6.123 0-11.09 4.966-11.09 11.096z"/><path fill="#3A383A" d="M121.83 104.896a8.315 8.315 0 0 0 8.314 8.314c4.6 0 8.32-3.723 8.32-8.314a8.316 8.316 0 0 0-8.32-8.32c-4.592 0-8.315 3.722-8.315 8.32z"/><path fill="#5E5E5E" d="M106.298 152.65a7.393 7.393 0 0 0 7.393 7.39h152.05v-27.358-7.393H113.69a7.393 7.393 0 0 0-7.392 7.392v19.967z"/><circle fill="#FFF" cx="225.81" cy="133.909" r="1.605"/><circle fill="#FFF" cx="231.646" cy="133.909" r="1.607"/><circle fill="#FFF" cx="237.483" cy="133.909" r="1.604"/><path fill="#FFF" d="M241.716 133.91c0 .885.72 1.603 1.605 1.603a1.6 1.6 0 0 0 1.603-1.604 1.6 1.6 0 0 0-1.602-1.607c-.884 0-1.604.72-1.604 1.606zM247.556 133.91a1.604 1.604 0 1 0 3.208 0 1.604 1.604 0 0 0-3.208 0zM253.392 133.91a1.605 1.605 0 1 0 3.212-.002 1.605 1.605 0 0 0-3.213 0zM259.232 133.91a1.604 1.604 0 1 0 1.604-1.606c-.89 0-1.604.718-1.604 1.605zM220.993 138.288a1.606 1.606 0 0 0 3.21 0c0-.89-.716-1.61-1.604-1.61s-1.607.72-1.607 1.61zM226.832 138.288c0 .884.72 1.604 1.607 1.604s1.6-.72 1.6-1.604a1.604 1.604 0 0 0-3.208 0zM232.67 138.288a1.604 1.604 0 0 0 3.208 0c0-.89-.717-1.61-1.604-1.61-.888 0-1.604.72-1.604 1.61zM238.505 138.288a1.606 1.606 0 0 0 3.21 0c0-.89-.717-1.61-1.605-1.61-.886 0-1.605.72-1.605 1.61zM244.345 138.288a1.606 1.606 0 1 0 1.604-1.61c-.892 0-1.605.72-1.605 1.61zM250.178 138.288a1.606 1.606 0 0 0 3.213 0 1.607 1.607 0 1 0-3.212 0zM256.017 138.288a1.608 1.608 0 1 0 3.215-.007 1.608 1.608 0 0 0-3.215.008zM261.857 138.288a1.604 1.604 0 0 0 3.208 0c0-.89-.716-1.61-1.604-1.61s-1.603.72-1.603 1.61zM224.205 142.667c0 .884.72 1.602 1.604 1.602a1.604 1.604 0 0 0 0-3.21c-.887 0-1.605.716-1.605 1.607zM230.04 142.667a1.606 1.606 0 0 0 3.213 0 1.606 1.606 0 0 0-3.213 0zM235.878 142.667a1.605 1.605 0 1 0 3.21-.006 1.605 1.605 0 0 0-3.21.007zM241.716 142.667c0 .884.72 1.602 1.605 1.602a1.6 1.6 0 0 0 1.603-1.603 1.605 1.605 0 0 0-3.207 0zM247.556 142.667c0 .884.72 1.602 1.602 1.602a1.604 1.604 0 0 0 0-3.21c-.883 0-1.602.716-1.602 1.607zM253.392 142.667c0 .884.717 1.602 1.607 1.602a1.604 1.604 0 0 0 0-3.21c-.89 0-1.608.716-1.608 1.607zM259.232 142.667a1.6 1.6 0 0 0 1.604 1.602c.887 0 1.604-.72 1.604-1.603a1.603 1.603 0 0 0-3.208 0z"/><circle fill="#FFF" cx="225.81" cy="151.421" r="1.605"/><circle fill="#FFF" cx="231.646" cy="151.421" r="1.607"/><circle fill="#FFF" cx="237.483" cy="151.421" r="1.604"/><path fill="#FFF" d="M241.716 151.42c0 .89.72 1.606 1.605 1.606.89 0 1.603-.718 1.603-1.605s-.713-1.603-1.602-1.603c-.884 0-1.604.716-1.604 1.604zM247.556 151.42a1.604 1.604 0 1 0 3.21 0 1.604 1.604 0 0 0-3.21 0zM253.392 151.42a1.605 1.605 0 1 0 3.213 0 1.605 1.605 0 0 0-3.214 0zM259.232 151.42a1.603 1.603 0 1 0 1.604-1.604 1.6 1.6 0 0 0-1.604 1.605zM220.993 147.044c0 .885.718 1.602 1.606 1.602s1.604-.717 1.604-1.602c0-.89-.717-1.607-1.605-1.607s-1.607.717-1.607 1.607zM226.832 147.044c0 .885.72 1.602 1.607 1.602s1.6-.717 1.6-1.602c0-.89-.714-1.607-1.6-1.607s-1.608.717-1.608 1.607zM232.67 147.044a1.6 1.6 0 0 0 1.604 1.602c.887 0 1.604-.717 1.604-1.602a1.603 1.603 0 0 0-3.208 0zM238.505 147.044c0 .885.72 1.602 1.605 1.602.89 0 1.605-.717 1.605-1.602a1.605 1.605 0 0 0-3.21 0zM244.345 147.044a1.6 1.6 0 0 0 1.604 1.602 1.603 1.603 0 0 0 0-3.21 1.6 1.6 0 0 0-1.605 1.608zM250.178 147.044c0 .885.718 1.602 1.61 1.602a1.604 1.604 0 0 0 0-3.21c-.89 0-1.61.718-1.61 1.608zM256.017 147.044c0 .885.72 1.602 1.607 1.602a1.605 1.605 0 0 0 0-3.21c-.886 0-1.607.718-1.607 1.608zM261.857 147.044c0 .885.717 1.602 1.604 1.602s1.605-.717 1.605-1.602c0-.89-.716-1.607-1.604-1.607s-1.603.717-1.603 1.607zM154.36 134.76h57.31v2.768h-57.31zM154.36 141.36h57.31v2.773h-57.31zM154.36 147.798h57.31v2.77h-57.31z"/><path fill="#EB6159" d="M119.054 142.667c0 6.125 4.967 11.09 11.09 11.09 6.13 0 11.094-4.965 11.094-11.09 0-6.13-4.965-11.094-11.094-11.094-6.123 0-11.09 4.965-11.09 11.094z"/><path fill="#3A383A" d="M121.83 142.667a8.318 8.318 0 0 0 8.314 8.317c4.6 0 8.32-3.726 8.32-8.317a8.317 8.317 0 0 0-8.32-8.32 8.316 8.316 0 0 0-8.315 8.32z"/><path fill="#5E5E5E" d="M106.298 190.36a7.393 7.393 0 0 0 7.393 7.392h152.05V170.393 163H113.69a7.395 7.395 0 0 0-7.392 7.393v19.967z"/><path fill="#FFF" d="M224.205 171.62c0 .89.72 1.604 1.604 1.604a1.603 1.603 0 0 0 0-3.207c-.887 0-1.605.715-1.605 1.603zM230.04 171.62c0 .89.722 1.604 1.606 1.604a1.603 1.603 0 0 0 0-3.207c-.885 0-1.606.715-1.606 1.603zM235.878 171.62c0 .89.72 1.604 1.605 1.604a1.6 1.6 0 0 0 1.604-1.604 1.6 1.6 0 0 0-1.604-1.603c-.885 0-1.605.715-1.605 1.603zM241.716 171.62zM247.556 171.62c0 .89.72 1.604 1.602 1.604a1.603 1.603 0 0 0 0-3.207c-.883 0-1.602.715-1.602 1.603zM253.392 171.62c0 .89.717 1.604 1.607 1.604a1.603 1.603 0 0 0 0-3.207c-.89 0-1.608.715-1.608 1.603zM259.232 171.62a1.6 1.6 0 0 0 1.604 1.604 1.6 1.6 0 0 0 1.604-1.604c0-.888-.718-1.603-1.604-1.603a1.6 1.6 0 0 0-1.604 1.603zM220.993 175.995c0 .89.718 1.605 1.606 1.605s1.604-.716 1.604-1.605a1.605 1.605 0 0 0-3.21 0zM226.832 175.995a1.605 1.605 0 1 0 3.21 0 1.605 1.605 0 0 0-3.21 0zM232.67 175.995a1.6 1.6 0 0 0 1.604 1.605 1.604 1.604 0 1 0-1.604-1.605zM238.505 175.995c0 .89.72 1.605 1.605 1.605a1.605 1.605 0 1 0-1.605-1.605zM244.345 175.995a1.6 1.6 0 0 0 1.604 1.605 1.603 1.603 0 0 0 0-3.21c-.892.002-1.605.72-1.605 1.605zM250.178 175.995c0 .89.718 1.605 1.61 1.605a1.605 1.605 0 0 0 0-3.21c-.89.002-1.61.72-1.61 1.605zM256.017 175.995c0 .89.72 1.605 1.607 1.605a1.605 1.605 0 0 0 0-3.21c-.886 0-1.607.72-1.607 1.605zM261.857 175.995c0 .89.717 1.605 1.604 1.605s1.605-.716 1.605-1.605a1.604 1.604 0 0 0-3.208 0z"/><circle fill="#FFF" cx="225.81" cy="180.376" r="1.605"/><circle fill="#FFF" cx="231.646" cy="180.376" r="1.607"/><circle fill="#FFF" cx="237.483" cy="180.376" r="1.604"/><path fill="#FFF" d="M241.716 180.376a1.604 1.604 0 1 0 3.208 0 1.604 1.604 0 0 0-3.208 0zM247.556 180.376c0 .888.72 1.604 1.602 1.604a1.603 1.603 0 0 0 0-3.21c-.883 0-1.602.72-1.602 1.606zM253.392 180.376c0 .888.717 1.604 1.607 1.604a1.604 1.604 0 0 0 0-3.21c-.89 0-1.608.72-1.608 1.606zM259.232 180.376a1.6 1.6 0 0 0 1.604 1.604 1.605 1.605 0 0 0 0-3.21c-.89 0-1.604.72-1.604 1.606zM224.205 189.13a1.604 1.604 0 0 0 3.21 0 1.606 1.606 0 1 0-3.21 0zM230.04 189.13a1.607 1.607 0 0 0 3.213 0 1.606 1.606 0 1 0-3.213 0zM235.878 189.13a1.605 1.605 0 1 0 1.605-1.604c-.885 0-1.605.72-1.605 1.604zM241.716 189.13c0 .89.72 1.607 1.605 1.607a1.6 1.6 0 0 0 1.603-1.607 1.6 1.6 0 0 0-1.602-1.604c-.884 0-1.604.72-1.604 1.604zM247.556 189.13a1.604 1.604 0 0 0 3.21 0 1.605 1.605 0 1 0-3.21 0zM253.392 189.13a1.605 1.605 0 1 0 1.607-1.604c-.89 0-1.608.72-1.608 1.604zM259.232 189.13a1.604 1.604 0 0 0 3.208 0 1.604 1.604 0 1 0-3.208 0z"/><circle fill="#FFF" cx="222.599" cy="184.753" r="1.606"/><path fill="#FFF" d="M226.832 184.753a1.603 1.603 0 0 0 3.208 0c0-.886-.715-1.605-1.602-1.605s-1.608.718-1.608 1.605zM232.67 184.753a1.604 1.604 0 0 0 3.208 0 1.604 1.604 0 1 0-3.208 0z"/><circle fill="#FFF" cx="240.111" cy="184.753" r="1.605"/><path fill="#FFF" d="M244.345 184.753c0 .887.713 1.607 1.604 1.607a1.607 1.607 0 0 0 0-3.212 1.6 1.6 0 0 0-1.605 1.605zM250.178 184.753a1.607 1.607 0 1 0 1.61-1.605c-.892 0-1.61.718-1.61 1.605z"/><circle fill="#FFF" cx="257.625" cy="184.753" r="1.607"/><circle fill="#FFF" cx="263.461" cy="184.753" r="1.604"/><path fill="#FFF" d="M154.36 172.47h57.31v2.77h-57.31zM154.36 179.073h57.31v2.77h-57.31zM154.36 185.513h57.31v2.77h-57.31z"/><path fill="#EB6159" d="M119.054 180.376c0 6.127 4.967 11.09 11.09 11.09 6.13 0 11.094-4.963 11.094-11.09 0-6.124-4.965-11.09-11.094-11.09-6.123 0-11.09 4.966-11.09 11.09z"/><path fill="#3A383A" d="M121.83 180.376a8.32 8.32 0 0 0 16.636 0 8.316 8.316 0 0 0-8.322-8.317 8.314 8.314 0 0 0-8.315 8.316z"/><path fill="#5E5E5E" d="M106.298 228.184a7.395 7.395 0 0 0 7.393 7.395h152.05V200.82H113.69a7.396 7.396 0 0 0-7.392 7.397v19.964z"/><circle fill="#FFF" cx="225.81" cy="209.444" r="1.605"/><circle fill="#FFF" cx="231.646" cy="209.444" r="1.607"/><circle fill="#FFF" cx="237.483" cy="209.444" r="1.604"/><path fill="#FFF" d="M241.716 209.444a1.605 1.605 0 1 0 3.21 0 1.605 1.605 0 0 0-3.21 0zM247.556 209.444c0 .887.72 1.604 1.602 1.604a1.605 1.605 0 1 0-1.602-1.604zM253.392 209.444c0 .887.717 1.604 1.607 1.604a1.604 1.604 0 0 0 0-3.21c-.89 0-1.608.72-1.608 1.606zM259.232 209.444a1.6 1.6 0 0 0 1.604 1.604 1.604 1.604 0 1 0-1.604-1.604z"/><circle fill="#FFF" cx="222.599" cy="213.82" r="1.606"/><circle fill="#FFF" cx="228.436" cy="213.82" r="1.604"/><path fill="#FFF" d="M232.67 213.82a1.6 1.6 0 0 0 1.604 1.604 1.604 1.604 0 1 0-1.604-1.604z"/><circle fill="#FFF" cx="240.111" cy="213.82" r="1.605"/><path fill="#FFF" d="M244.345 213.82a1.6 1.6 0 0 0 1.604 1.604 1.603 1.603 0 0 0 0-3.208c-.892 0-1.605.72-1.605 1.604zM250.178 213.82c0 .888.718 1.604 1.61 1.604a1.605 1.605 0 0 0 0-3.208c-.89 0-1.61.72-1.61 1.604z"/><circle fill="#FFF" cx="257.625" cy="213.82" r="1.607"/><circle fill="#FFF" cx="263.461" cy="213.82" r="1.604"/><circle fill="#FFF" cx="225.81" cy="218.201" r="1.605"/><circle fill="#FFF" cx="231.646" cy="218.201" r="1.607"/><circle fill="#FFF" cx="237.483" cy="218.201" r="1.604"/><path fill="#FFF" d="M241.716 218.2a1.605 1.605 0 1 0 3.21 0 1.605 1.605 0 0 0-3.21 0zM247.556 218.2c0 .888.72 1.605 1.602 1.605a1.603 1.603 0 0 0 0-3.208c-.883 0-1.602.717-1.602 1.604zM253.392 218.2c0 .888.717 1.605 1.607 1.605a1.604 1.604 0 0 0 0-3.208c-.89 0-1.608.717-1.608 1.604zM259.232 218.2a1.6 1.6 0 0 0 1.604 1.605 1.603 1.603 0 1 0-1.604-1.604z"/><circle fill="#FFF" cx="225.81" cy="226.957" r="1.605"/><circle fill="#FFF" cx="231.646" cy="226.957" r="1.607"/><circle fill="#FFF" cx="237.483" cy="226.957" r="1.604"/><path fill="#FFF" d="M241.716 226.957c0 .89.72 1.607 1.605 1.607a1.6 1.6 0 0 0 1.603-1.607 1.6 1.6 0 0 0-1.602-1.604c-.884 0-1.604.718-1.604 1.604zM247.556 226.957a1.604 1.604 0 0 0 3.21 0 1.605 1.605 0 0 0-3.21 0zM253.392 226.957a1.605 1.605 0 1 0 3.212.004 1.605 1.605 0 0 0-3.213-.004zM259.232 226.957a1.604 1.604 0 0 0 3.208 0 1.604 1.604 0 0 0-3.208 0z"/><circle fill="#FFF" cx="222.599" cy="222.579" r="1.606"/><circle fill="#FFF" cx="228.436" cy="222.579" r="1.604"/><path fill="#FFF" d="M232.67 222.58a1.604 1.604 0 0 0 3.208 0 1.605 1.605 0 0 0-3.208 0z"/><circle fill="#FFF" cx="240.111" cy="222.579" r="1.605"/><path fill="#FFF" d="M244.345 222.58a1.607 1.607 0 1 0 3.21-.003 1.607 1.607 0 0 0-3.21.002zM250.178 222.58a1.606 1.606 0 1 0 3.213-.004 1.606 1.606 0 0 0-3.212.003z"/><circle fill="#FFF" cx="257.625" cy="222.579" r="1.607"/><circle fill="#FFF" cx="263.461" cy="222.579" r="1.604"/><path fill="#FFF" d="M154.36 210.295h57.31v2.77h-57.31zM154.36 216.897h57.31v2.77h-57.31zM154.36 223.335h57.31v2.772h-57.31z"/><path fill="#EB6159" d="M119.054 218.2c0 6.126 4.967 11.094 11.09 11.094 6.13 0 11.094-4.968 11.094-11.093s-4.965-11.092-11.094-11.092c-6.123 0-11.09 4.968-11.09 11.093z"/><path fill="#3A383A" d="M121.83 218.2a8.315 8.315 0 0 0 8.314 8.316c4.6 0 8.32-3.723 8.32-8.315a8.316 8.316 0 0 0-8.32-8.316 8.315 8.315 0 0 0-8.315 8.317z"/><path fill="#5E5E5E" d="M106.298 265.957a7.392 7.392 0 0 0 7.393 7.392h152.05v-27.361-7.394H113.69a7.393 7.393 0 0 0-7.392 7.393v19.967z"/><circle fill="#FFF" cx="225.81" cy="247.214" r="1.605"/><circle fill="#FFF" cx="231.646" cy="247.214" r="1.607"/><circle fill="#FFF" cx="237.483" cy="247.214" r="1.604"/><path fill="#FFF" d="M241.716 247.214a1.604 1.604 0 1 0 1.605-1.604c-.884 0-1.604.717-1.604 1.604zM247.556 247.214a1.604 1.604 0 1 0 1.602-1.604c-.883 0-1.602.717-1.602 1.604zM253.392 247.214c0 .89.717 1.606 1.607 1.606a1.604 1.604 0 0 0 0-3.21c-.89 0-1.608.717-1.608 1.604zM259.232 247.214a1.6 1.6 0 0 0 1.604 1.606c.887 0 1.604-.717 1.604-1.606a1.603 1.603 0 1 0-3.208 0z"/><circle fill="#FFF" cx="222.599" cy="251.593" r="1.606"/><circle fill="#FFF" cx="228.436" cy="251.593" r="1.604"/><path fill="#FFF" d="M232.67 251.593a1.6 1.6 0 0 0 1.604 1.604 1.607 1.607 0 0 0 0-3.212c-.888 0-1.604.723-1.604 1.608z"/><circle fill="#FFF" cx="240.111" cy="251.593" r="1.605"/><path fill="#FFF" d="M244.345 251.593a1.6 1.6 0 0 0 1.604 1.604c.888 0 1.606-.716 1.606-1.604a1.61 1.61 0 0 0-1.607-1.608c-.892 0-1.605.723-1.605 1.608zM250.178 251.593c0 .888.718 1.604 1.61 1.604.886 0 1.603-.716 1.603-1.604 0-.885-.717-1.608-1.603-1.608-.89 0-1.61.723-1.61 1.608z"/><circle fill="#FFF" cx="257.625" cy="251.593" r="1.607"/><circle fill="#FFF" cx="263.461" cy="251.593" r="1.604"/><path fill="#FFF" d="M224.205 255.973a1.6 1.6 0 0 0 1.604 1.602 1.6 1.6 0 0 0 1.606-1.602 1.605 1.605 0 1 0-3.21 0zM230.04 255.973c0 .89.722 1.602 1.606 1.602a1.6 1.6 0 0 0 1.607-1.602 1.606 1.606 0 1 0-3.213 0zM235.878 255.973c0 .89.72 1.602 1.605 1.602.89 0 1.604-.713 1.604-1.602a1.605 1.605 0 1 0-3.21 0zM241.716 255.973c0 .89.72 1.602 1.605 1.602.89 0 1.603-.713 1.603-1.602a1.605 1.605 0 1 0-3.207 0zM247.556 255.973a1.6 1.6 0 0 0 1.602 1.602 1.6 1.6 0 0 0 1.608-1.602 1.605 1.605 0 1 0-3.21 0zM253.392 255.973a1.6 1.6 0 0 0 1.607 1.602 1.6 1.6 0 0 0 1.603-1.602c0-.886-.72-1.604-1.604-1.604-.89-.002-1.608.717-1.608 1.603zM259.232 255.973c0 .89.714 1.602 1.604 1.602a1.604 1.604 0 1 0-1.604-1.602zM224.205 264.73c0 .888.72 1.602 1.604 1.602.888 0 1.606-.714 1.606-1.603a1.605 1.605 0 0 0-3.21 0zM230.04 264.73c0 .888.722 1.602 1.606 1.602a1.602 1.602 0 0 0 0-3.207c-.885 0-1.606.718-1.606 1.604zM235.878 264.73c0 .888.72 1.602 1.605 1.602a1.6 1.6 0 0 0 1.604-1.603 1.605 1.605 0 0 0-3.21 0zM241.716 264.73c0 .888.72 1.602 1.605 1.602.89 0 1.603-.714 1.603-1.603a1.6 1.6 0 0 0-1.602-1.605c-.884 0-1.604.718-1.604 1.604zM247.556 264.73a1.6 1.6 0 0 0 1.602 1.602 1.605 1.605 0 1 0-1.602-1.603zM253.392 264.73A1.6 1.6 0 0 0 255 266.33a1.604 1.604 0 0 0 0-3.207c-.89 0-1.608.717-1.608 1.603zM259.232 264.73a1.6 1.6 0 0 0 1.604 1.602 1.604 1.604 0 1 0-1.604-1.603z"/><circle fill="#FFF" cx="222.599" cy="260.352" r="1.606"/><circle fill="#FFF" cx="228.436" cy="260.352" r="1.604"/><path fill="#FFF" d="M232.67 260.352a1.603 1.603 0 0 0 3.208 0c0-.886-.717-1.61-1.604-1.61-.888 0-1.604.724-1.604 1.61z"/><circle fill="#FFF" cx="240.111" cy="260.352" r="1.605"/><path fill="#FFF" d="M244.345 260.352a1.605 1.605 0 1 0 1.604-1.61c-.892 0-1.605.724-1.605 1.61zM250.178 260.352c0 .884.718 1.603 1.61 1.603.886 0 1.603-.72 1.603-1.603 0-.886-.717-1.61-1.603-1.61-.89 0-1.61.724-1.61 1.61z"/><circle fill="#FFF" cx="257.625" cy="260.352" r="1.607"/><circle fill="#FFF" cx="263.461" cy="260.352" r="1.604"/><path fill="#FFF" d="M154.36 248.065h57.31v2.77h-57.31zM154.36 254.67h57.31v2.77h-57.31zM154.36 261.106h57.31v2.77h-57.31z"/><path fill="#EB6159" d="M119.054 255.973c0 6.127 4.967 11.095 11.09 11.095 6.13 0 11.094-4.968 11.094-11.095 0-6.128-4.965-11.088-11.094-11.088-6.123 0-11.09 4.96-11.09 11.088z"/><path fill="#3A383A" d="M121.83 255.973c0 4.592 3.723 8.32 8.314 8.32a8.32 8.32 0 0 0 0-16.64c-4.592 0-8.315 3.725-8.315 8.32z"/><circle fill="#14CAF4" cx="130.146" cy="67.069" r="3.861"/><path fill="#14CAF4" d="M134.007 104.833a3.86 3.86 0 0 1-7.722 0 3.86 3.86 0 0 1 3.863-3.862c2.13 0 3.86 1.726 3.86 3.863z"/><circle fill="#14CAF4" cx="130.146" cy="142.639" r="3.861"/><path fill="#14CAF4" d="M134.007 180.405c0 2.13-1.73 3.855-3.86 3.855a3.86 3.86 0 0 1 0-7.72 3.86 3.86 0 0 1 3.86 3.865z"/><circle fill="#14CAF4" cx="130.146" cy="218.259" r="3.861"/><circle fill="#14CAF4" cx="130.146" cy="256.021" r="3.861"/><path opacity=".2" fill="#FFF" d="M187.27 284.486h-13.595l85.994-242.97h6.07v21.4z"/><path opacity=".1" fill="#FFF" d="M110.41 44.788h155.33v235.425H110.41z"/><path opacity=".3" d="M126.254 37.946v8.698h-25.24v235.68h25.24V59.595h142.183V37.946z"/><path opacity=".2" fill="#FFF" d="M161.77 284.486h-60.343l86.336-242.97H248.1z"/><path fill="#D8D8D8" d="M265.74 272.293H116.797V51.833H265.74V36.728H99.44v250.668h166.3z"/><path fill="#D8D8D8" d="M264.74 51.833v220.46H115.796l-15.1 15.103h181.4V36.728h-166.3z"/><path opacity=".1" d="M264.74 51.833v220.46H115.796l-15.1 15.103h181.4V36.728z"/><path opacity=".3" d="M214.892 181.755v-5.074h-.219v-26.29a3.814 3.814 0 0 0-3.813-3.818H47.707a3.815 3.815 0 0 0-3.812 3.817v132.784a3.815 3.815 0 0 0 3.812 3.816H210.86a3.813 3.813 0 0 0 3.813-3.815v-61.529c.072-.05.146-.092.22-.14v-3.952c-.073.06-.147.113-.22.17v-12.414l.22-.1v-2.792l-.22.1v-7.62c.07.18.15.358.22.54v-5.7c-.07-.127-.148-.247-.22-.372v-7.512l.22-.1z"/><g><path fill="#B0E7FF" d="M205.843 283.93a3.813 3.813 0 0 1-3.813 3.815H38.876a3.814 3.814 0 0 1-3.812-3.815V151.143a3.815 3.815 0 0 1 3.812-3.817H202.03a3.814 3.814 0 0 1 3.813 3.817V283.93z"/><path fill="#444" d="M205.843 162.586v-11.443a3.814 3.814 0 0 0-3.813-3.817H38.876a3.815 3.815 0 0 0-3.812 3.817v11.443h170.78z"/><circle fill="#2CB740" cx="43.399" cy="155.158" r="3.02"/><path fill="#F16442" d="M55.62 155.158a3.02 3.02 0 1 1-3.022-3.018 3.022 3.022 0 0 1 3.022 3.018z"/><path fill="#FFF" d="M199.544 154.978a3.02 3.02 0 0 1-3.02 3.02H60.537a3.025 3.025 0 0 1-3.02-3.02c0-1.67 1.36-3.02 3.02-3.02h135.988a3.02 3.02 0 0 1 3.02 3.02z"/><path opacity=".2" fill="#444" d="M67.132 170.317c0 1.08.88 1.956 1.957 1.956h130.118a1.954 1.954 0 0 0 1.955-1.956 1.953 1.953 0 0 0-1.955-1.953H69.088a1.957 1.957 0 0 0-1.956 1.953zM62.867 170.317a2.848 2.848 0 0 1-2.847 2.848H42.602a2.847 2.847 0 0 1-2.843-2.848 2.842 2.842 0 0 1 2.842-2.842H60.02a2.844 2.844 0 0 1 2.847 2.842z"/><path fill="#00A9D0" d="M35.064 177.405h170.78v46.348H35.063z"/><path opacity=".2" fill="#444" d="M40.253 261.9H90.38v20.688H40.253zM96.123 261.9h50.128v20.688H96.124zM151.04 261.9h50.124v20.688H151.04z"/><path fill="#444" d="M146.744 233.008c0 .94-.806 1.703-1.793 1.703H41.557c-.992 0-1.797-.763-1.797-1.702 0-.944.804-1.71 1.796-1.71H144.95c.988 0 1.794.765 1.794 1.71zM146.744 240.627c0 .942-.806 1.706-1.793 1.706H41.557c-.992 0-1.797-.764-1.797-1.706 0-.944.804-1.705 1.796-1.705H144.95c.988 0 1.794.76 1.794 1.705zM146.744 248.145c0 .942-.806 1.703-1.793 1.703H41.557c-.992 0-1.797-.76-1.797-1.703 0-.94.804-1.702 1.796-1.702H144.95c.988 0 1.794.76 1.794 1.702zM146.744 255.654c0 .944-.806 1.707-1.793 1.707H41.557c-.992 0-1.797-.762-1.797-1.706 0-.94.804-1.703 1.796-1.703H144.95c.988 0 1.794.765 1.794 1.704z"/><path fill="#FFF" d="M87.6 189.36c0 .943-.803 1.704-1.792 1.704H48.216c-.992 0-1.797-.76-1.797-1.704 0-.94.804-1.708 1.796-1.708h37.592c.99 0 1.793.768 1.793 1.708zM115.896 196.98c0 .946-.805 1.707-1.795 1.707H48.217c-.992 0-1.797-.76-1.797-1.707 0-.942.804-1.704 1.796-1.704H114.1c.99 0 1.796.762 1.796 1.704zM115.896 204.5c0 .942-.805 1.702-1.795 1.702H48.217c-.992 0-1.797-.76-1.797-1.703 0-.94.804-1.703 1.796-1.703H114.1c.99 0 1.796.763 1.796 1.702zM115.896 212.008c0 .946-.805 1.707-1.795 1.707H48.217c-.992 0-1.797-.76-1.797-1.707 0-.938.804-1.702 1.796-1.702H114.1c.99 0 1.796.763 1.796 1.702z"/><path fill="#444" d="M201.164 233.008c0 .94-.82 1.703-1.824 1.703h-45.722c-1.007 0-1.823-.763-1.823-1.702 0-.944.816-1.71 1.823-1.71h45.722c1.004 0 1.824.765 1.824 1.71zM201.164 240.627c0 .942-.82 1.706-1.824 1.706h-45.722c-1.007 0-1.823-.764-1.823-1.706 0-.944.816-1.705 1.823-1.705h45.722c1.004 0 1.824.76 1.824 1.705zM201.164 248.145c0 .942-.82 1.703-1.824 1.703h-45.722c-1.007 0-1.823-.76-1.823-1.703 0-.94.816-1.702 1.823-1.702h45.722c1.004 0 1.824.76 1.824 1.702zM201.164 255.654c0 .944-.82 1.707-1.824 1.707h-45.722c-1.007 0-1.823-.762-1.823-1.706 0-.94.816-1.703 1.823-1.703h45.722c1.004 0 1.824.765 1.824 1.704z"/><path fill="#FFF" d="M203.638 223.725c.84-.45 1.648-.938 2.424-1.464v-3.95a24.023 24.023 0 0 1-4.19 2.772l-4.968-10.963 9.158-4.154v-2.792L195.85 207.8l-3.316-7.316 12.9-5.844c.223.516.43 1.033.628 1.553v-5.7a43.925 43.925 0 0 0-4.146-6.105l4.146-1.878v-5.074h-6.874a24.073 24.073 0 0 1 5.5 2.9l-4.485 2.03a63.27 63.27 0 0 0-4.944-4.93h-3.823c2.006 1.728 4.224 3.72 6.37 6.015l-10.777 4.886-4.88-10.77c.122-.046.243-.088.362-.13h-6.87c-10.726 7.258-14.988 21.395-9.462 33.595a26.99 26.99 0 0 0 11.875 12.695h12.793c-2.4-2.078-5.097-4.526-7.604-7.414l11.34-5.14 4.966 10.964a23.86 23.86 0 0 1-7.188 1.59h11.276zm-4.062-38.28c1.752 2.07 3.387 4.364 4.743 6.904l-12.836 5.81-3.4-7.505 11.492-5.21zm-10.412 13.77l-12.835 5.817c-1.02-2.69-1.662-5.434-2.067-8.116l11.5-5.21 3.4 7.51zm-15.53-15.982a23.734 23.734 0 0 1 6.197-4.615l4.878 10.77-10.777 4.883c-.402-4.064-.337-7.883-.295-11.037zm-2.55 3.135c-.03 2.794.065 5.84.45 8.987l-4.482 2.03a24.068 24.068 0 0 1 4.032-11.017zm-4.155 13.87l4.997-2.264c.465 2.673 1.167 5.387 2.195 8.054l-5.555 2.52a23.744 23.744 0 0 1-1.638-8.31zm2.686 10.63l5.503-2.493c1.173 2.507 2.64 4.797 4.243 6.894l-4.752 2.153a23.807 23.807 0 0 1-4.994-6.555zm17.44 12.603a24.058 24.058 0 0 1-10.245-4.248l4.217-1.908c1.953 2.283 4.04 4.32 6.03 6.157zm-5.485-9.203c-1.607-2.082-3.072-4.37-4.254-6.887l12.9-5.845 3.316 7.315-11.96 5.417z"/><ellipse fill="#FCD22E" cx="64.843" cy="176.793" rx=".062" ry=".042"/></g><g><path fill="#FCD22E" d="M270.605 26.683c-4.537 11.957-13.684 21.625-25.253 26.867a48.406 48.406 0 0 1 25.253 26.868c4.543-11.953 13.68-21.64 25.264-26.868a48.425 48.425 0 0 1-25.265-26.867z"/><path fill="#FD7600" d="M270.605 40.016c-2.28 6.017-6.886 10.884-12.734 13.534a24.3 24.3 0 0 1 12.735 13.53 24.33 24.33 0 0 1 12.72-13.53 24.42 24.42 0 0 1-12.72-13.534z"/><path fill="#FCD22E" d="M290.694 7.624a23.682 23.682 0 0 1-12.344 13.14 23.655 23.655 0 0 1 12.344 13.13 23.633 23.633 0 0 1 12.343-13.13 23.66 23.66 0 0 1-12.343-13.14z"/><path fill="#FD7600" d="M290.694 14.14a11.953 11.953 0 0 1-6.226 6.623 11.878 11.878 0 0 1 6.226 6.612 11.846 11.846 0 0 1 6.215-6.612 11.927 11.927 0 0 1-6.216-6.622z"/><g><path fill="#FCD22E" d="M247.768 0a34.15 34.15 0 0 1-17.816 18.954c8.16 3.697 14.618 10.522 17.816 18.96a34.146 34.146 0 0 1 17.822-18.96A34.134 34.134 0 0 1 247.768 0z"/><path fill="#FD7600" d="M247.768 9.41a17.223 17.223 0 0 1-8.983 9.544 17.146 17.146 0 0 1 8.983 9.544 17.14 17.14 0 0 1 8.975-9.544 17.22 17.22 0 0 1-8.975-9.543z"/></g></g><g><path opacity=".3" d="M9.82 189.358l22.188 3.938c.087.277 18.003 18.58 37.786 23.06 16.25 3.68 38.13-8.6 63.274-35.508h.002c.81-.993 1.57-1.9 1.587-1.73.007.073.024.358.048.753.498-.59.87-.995.88-.88.015.182.08 1.648.14 3l1.846-1.886c-.554-3.648.35-7.336 3.044-10.527l3.597-9.116c.01-.04.014-.08.023-.12.584-2.184 2.3-3.626 3.83-3.215l3.697.988 10.428-10.787c2.557.255 3.186.287 5.43.023 2.703-.318 2.79-.123 6.166-.024l-12.94 13.213.11.028a4.098 4.098 0 0 1 5.107.497 4.09 4.09 0 0 1 .61 5.08 4.098 4.098 0 0 1 5.096.504 4.095 4.095 0 0 1 .057 5.79l-1.537 1.57.068-.07a4.096 4.096 0 0 1 5.853 5.73l-9.943 10.152v.002l-1.62 1.653a.174.174 0 0 1-.013.012l-.638.65-.055-.01c-3.24 2.93-7.067 3.934-10.87 3.366l-.622.635.768.784-.732 1.653.12.53.527.494c-.113.122-.227.235-.338.357l.04.19-.125-.105-.325.342.083.348-.23-.19c-18.175 19.27-35.548 32.244-51.977 38.83-12.84 5.148-33.38 4.186-44.996 1.51-35.214-8.113-44.905-49.778-45.44-51.514z"/><path fill="#B29076" d="M137.522 172.084c-.583 1.475-2.757 1.997-4.864 1.167-2.102-.828-3.338-2.695-2.756-4.17l5.896-14.947c.585-1.478 2.76-1.996 4.865-1.17 2.107.827 3.34 2.698 2.757 4.173l-5.898 14.948z"/><path fill="#B29076" d="M154.867 155.732c1.53.41 2.3 2.512 1.713 4.695-.582 2.187-2.297 3.623-3.83 3.22l-15.523-4.146c-1.526-.41-2.3-2.514-1.716-4.7.585-2.184 2.303-3.626 3.832-3.215l15.525 4.147z"/><path fill="#D3B59C" d="M125.942 208.75c-3.517 3.592-9.862 3.086-14.17-1.136-4.312-4.22-4.954-10.554-1.433-14.15l26.347-26.904c3.516-3.59 9.865-3.084 14.173 1.137 4.31 4.22 4.95 10.556 1.432 14.146l-26.35 26.908z"/><g fill="#D3B59C"><path d="M144.044 163.246a4.095 4.095 0 0 1-5.792.063 4.096 4.096 0 0 1-.058-5.792l21.32-21.775a4.097 4.097 0 0 1 5.79-.062 4.097 4.097 0 0 1 .063 5.792l-21.323 21.774z"/><path d="M141.365 177.692a4.09 4.09 0 0 1-5.79.056 4.09 4.09 0 0 1-.063-5.788l16.035-16.375a4.094 4.094 0 0 1 5.852 5.73l-16.034 16.377z"/><path d="M147.065 183.275a4.09 4.09 0 0 1-5.788.057 4.086 4.086 0 0 1-.063-5.783l16.04-16.38a4.095 4.095 0 0 1 5.79-.06 4.097 4.097 0 0 1 .057 5.79l-16.035 16.375zM155.27 186.604c-5.548-1.52-4.177 1.646-5.795.062l.886-.9c-1.616-1.582-2.526-3.275-.94-4.89l12.213-12.474a4.095 4.095 0 0 1 5.852 5.73l-12.216 12.472z"/><path d="M155.922 185.938c-6.29 6.422-15.128 5.03-21.548-1.258-6.422-6.29-7.997-15.095-1.71-21.518l5.53-5.645c6.285-6.422 12.684-2.538 19.105 3.75 6.42 6.29 6.528 16.596.24 23.017l-1.618 1.654z"/></g><path fill="#B29076" d="M164.384 140.688c-1.128 1.152-2.39.573-3.54-.555-1.15-1.128-1.76-2.377-.63-3.528 1.13-1.152 5.994-4.568 7.145-3.443 1.148 1.127-1.847 6.377-2.976 7.526z"/><g fill="#70462D"><path opacity=".3" d="M156.785 148.484a.27.27 0 0 1-.39 0l-3.702-3.624a.276.276 0 1 1 .387-.394l3.702 3.627c.11.107.11.282.003.39zM155.933 149.355a.277.277 0 0 1-.393.003l-3.703-3.622a.282.282 0 0 1-.003-.397.28.28 0 0 1 .393-.002l3.7 3.624a.275.275 0 0 1 .006.393zM154.9 150.308a.286.286 0 0 1-.395.005l-3.7-3.627a.28.28 0 0 1-.004-.395.28.28 0 0 1 .392-.002l3.7 3.627a.28.28 0 0 1 .01.393z"/></g><path fill="#E2E2E2" d="M91.534 233.825c16.698-6.694 34.37-19.975 52.87-39.77l-20.057-18.747c-25.146 26.908-47.026 39.188-63.275 35.51-19.783-4.48-28.648-31.835-28.735-32.11l-26.224 8.125c.533 1.735 13.488 42.603 48.7 50.717 11.616 2.676 23.88 1.423 36.72-3.725z"/><g><path opacity=".34" fill="#9B9B9B" d="M123.402 177.468c.295-.243 3.436-4.36 3.462-4.018.026.343.238 5.335.238 5.335l3.688-1.666-.382 2.9 4.15-3.857-.477 6.28 2.65-.26s-1.116 2.146-.96 1.95c.158-.19 4.69-3.58 5.484-4.058.795-.48-.938 7.188-.938 7.188s3.43.777 3.486.582c.058-.194-.09 2.736-.09 2.736l.777.795-.733 1.652.348 1.57-20.703-17.13z"/><path fill="#E2E2E2" d="M122.468 177.593c.3-.24 3.436-4.36 3.467-4.014.03.347.312 5.394.312 5.394l3.727-1.633.188 3.365 4.32-4.04-1.094 6.1 2.688-.228s-.458 3.002-.3 2.81c.156-.195 4.34-4.188 5.14-4.664.802-.47-1.126 7.04-1.126 7.04s3.497.83 3.552.633c.056-.197-.056 2.767-.056 2.767l.8.81-.722 1.663.375 1.59-21.272-17.593z"/></g></g><g><g opacity=".34" fill="#010101"><path opacity=".3" d="M284.353 125.193c-.05-2.142-1.52-3.844-3.285-3.81l-19.22.338c-1.03.022-1.926.638-2.49 1.563-1.576.478-3.198 1.24-3.176 2.147.016.87 1.525 1.683 3.052 2.215.58 1.11 1.607 1.844 2.77 1.822l19.218-.338c1.77-.034 3.173-1.797 3.13-3.937zM286.276 133.71c-.046-2.138-1.517-3.842-3.288-3.808l-23.588.495c-1.03.023-1.924.637-2.49 1.56-1.575.477-3.19 1.24-3.173 2.15.018.867 1.524 1.683 3.05 2.216.587 1.107 1.612 1.84 2.774 1.82l23.586-.496c1.77-.034 3.173-1.798 3.13-3.937zM285.85 142.31c-.044-2.14-1.52-3.842-3.287-3.806l-18.67.317c-1.03.022-1.922.638-2.49 1.563-1.576.473-3.193 1.236-3.176 2.146.018.87 1.525 1.684 3.05 2.215.588 1.107 1.61 1.845 2.774 1.82l18.67-.317c1.77-.036 3.17-1.798 3.13-3.938zM284.39 150.95c-.04-2.14-1.516-3.84-3.287-3.806l-12.66.1c-1.026.022-1.925.638-2.49 1.56-1.577.478-3.195 1.242-3.177 2.148.02.87 1.526 1.685 3.052 2.216.586 1.108 1.61 1.842 2.775 1.82l12.66-.1c1.77-.035 3.173-1.796 3.128-3.937z"/></g><path fill="#AF8D77" d="M273.562 150.838c.054 2.402 2.87 4.29 6.305 4.224 3.427-.066 6.16-2.068 6.11-4.472l-.523-24.355c-.058-2.407-2.877-4.298-6.306-4.23-3.435.06-6.17 2.067-6.12 4.47l.534 24.363z"/><path fill="#D0B299" d="M283.59 129.326c1.772-.033 3.173-1.8 3.13-3.94-.044-2.14-1.52-3.842-3.286-3.805l-19.215.338c-1.773.035-3.175 1.798-3.13 3.937.04 2.14 1.516 3.838 3.284 3.806l19.217-.334z"/><path fill="#AF8D77" d="M264.452 128.477c1.26-.028 1.603-1.27 1.57-2.792-.034-1.527-.422-2.754-1.686-2.73-1.26.03-5.816 1.15-5.788 2.672.035 1.52 4.64 2.878 5.904 2.85z"/><path opacity=".3" fill="#71472E" d="M272.977 128.323c.12 0 .214-.118.208-.267l-.1-4.9c-.003-.146-.104-.264-.224-.258-.115.003-.214.12-.207.267l.097 4.904c.003.142.104.257.227.253zM273.93 128.306c.118-.004.214-.12.21-.27l-.096-4.895c-.007-.145-.11-.27-.23-.262-.114.003-.21.123-.208.27l.104 4.896c0 .147.1.267.22.262zM275.027 128.216c.118-.006.214-.124.213-.27l-.104-4.902c-.003-.146-.102-.26-.226-.256-.116 0-.208.12-.207.268l.103 4.898c.003.145.103.258.22.262z"/><path fill="#D0B299" d="M285.512 137.845c1.772-.033 3.177-1.803 3.132-3.94-.044-2.14-1.518-3.84-3.285-3.808l-23.59.496c-1.77.033-3.17 1.798-3.125 3.94.043 2.137 1.515 3.837 3.286 3.804l23.582-.492z"/><path fill="#AF8D77" d="M262.005 137.15c1.265-.024 1.602-1.27 1.57-2.79-.03-1.526-.422-2.755-1.683-2.73-1.26.027-5.82 1.15-5.785 2.673.032 1.522 4.638 2.875 5.898 2.848z"/><path opacity=".3" fill="#71472E" d="M270.532 136.998c.118 0 .21-.12.21-.265l-.104-4.9c-.002-.15-.104-.264-.22-.26-.12 0-.22.123-.213.267l.103 4.903c.005.145.1.258.224.255zM271.484 136.98c.12-.003.213-.122.21-.27l-.095-4.9c-.01-.142-.107-.263-.23-.26-.117.003-.21.123-.21.27l.103 4.898c.003.15.102.268.22.263zM272.58 136.89c.123-.004.218-.124.212-.272l-.098-4.897c-.003-.145-.107-.262-.227-.256-.117 0-.212.122-.212.266l.104 4.903c.002.14.1.257.22.257z"/><path fill="#D0B299" d="M285.09 146.443c1.77-.037 3.17-1.8 3.13-3.94-.046-2.14-1.52-3.842-3.287-3.805l-18.674.316c-1.768.037-3.17 1.802-3.126 3.938.043 2.138 1.515 3.84 3.286 3.807l18.67-.317z"/><path fill="#AF8D77" d="M266.497 145.575c1.264-.025 1.602-1.27 1.57-2.793-.03-1.522-.422-2.753-1.684-2.728-1.26.025-5.82 1.15-5.787 2.67.033 1.522 4.64 2.878 5.9 2.85z"/><path opacity=".3" fill="#71472E" d="M275.017 145.423c.124 0 .216-.116.217-.265l-.107-4.9c0-.15-.1-.265-.218-.26-.12 0-.22.122-.212.266l.1 4.9c.004.148.102.26.22.26zM275.972 145.404c.124-.003.217-.12.212-.268l-.094-4.9c-.007-.145-.107-.265-.23-.262-.118.002-.21.124-.208.273l.1 4.894c.004.15.102.27.22.264zM277.07 145.313c.123-.002.218-.124.21-.268l-.097-4.9c-.004-.148-.106-.264-.226-.263-.116.005-.21.125-.21.268l.1 4.9c.006.15.102.26.222.263z"/><path fill="#D0B299" d="M283.632 155.082c1.77-.036 3.173-1.8 3.128-3.937-.04-2.143-1.517-3.846-3.285-3.81l-12.662.105c-1.77.035-3.17 1.8-3.13 3.937.046 2.14 1.52 3.84 3.29 3.806l12.66-.1z"/><path fill="#AF8D77" d="M271.046 153.997c1.263-.026 1.602-1.268 1.568-2.79-.028-1.525-.418-2.755-1.68-2.728-1.267.025-5.817 1.147-5.79 2.666.033 1.526 4.642 2.88 5.902 2.85z"/><path opacity=".3" fill="#71472E" d="M279.573 153.847c.12 0 .213-.12.207-.267l-.1-4.9c0-.147-.103-.263-.222-.263-.12.004-.218.123-.212.27l.102 4.902c.004.146.103.26.225.257zM280.524 153.828c.123-.004.215-.118.214-.267l-.1-4.9c-.007-.143-.108-.263-.225-.26-.12 0-.217.12-.212.266l.103 4.9c.004.15.102.265.22.262zM281.625 153.74c.115-.005.21-.13.21-.272l-.1-4.9c-.007-.147-.105-.262-.228-.258-.115 0-.21.122-.21.267l.104 4.9c.002.145.103.257.225.262z"/></g></svg>