<svg xmlns="http://www.w3.org/2000/svg" width="480" height="144" viewBox="0 0 480 144"><path fill="#CEEFA0" d="M-.038 0H480v144H-.038z"/><g opacity=".3"><path d="M163.817 144H301.33l37.044-34.802a4.193 4.193 0 0 0 .182-5.942L240.986 0h-61.63L102.11 72.566a4.197 4.197 0 0 0-.18 5.94L163.817 144z"/><path d="M240.986 0H217.81l111.36 117.847 9.204-8.648a4.193 4.193 0 0 0 .182-5.943L240.986 0z"/><path d="M233.953 0h-9.172L325.8 106.902a3.345 3.345 0 0 0 4.716.144 3.322 3.322 0 0 0 .142-4.706L233.953 0z"/><ellipse transform="rotate(-42.845 210.884 15.484)" cx="210.869" cy="15.486" rx=".046" ry=".069"/><path d="M168.64 77.665l-27.694-29.31 30.97-29.092 27.693 29.308zM198.423 109.184L170.73 79.876l30.968-29.095 27.694 29.31zM228.317 140.82l-27.693-29.307 30.97-29.094 27.693 29.306zM288.266 144l.804-.756-27.695-29.307-30.968 29.093.916.97zM135.868 108.452l-27.695-29.306 30.97-29.095 27.694 29.308zM165.65 139.97l-27.693-29.306 30.97-29.095 27.693 29.307zM224.932 144l1.582-1.486-27.694-29.308-30.968 29.095 1.605 1.7zM190.505 0L175.14 14.437l116.753 123.558 26.217-24.632L210.99 0z"/><path d="M182.702 48.336l.003-.003-2.058-2.176-.55-.584-.2-.21c-.033.032-.067.063-.102.093l-.842-3.384c.895.215 1.775.27 2.52-.43a2.32 2.32 0 0 0 .098-3.28 2.336 2.336 0 0 0-3.29-.1.46.46 0 0 0-.02.652c.177.186.47.195.656.02a1.405 1.405 0 0 1 1.98.06c.53.56.505 1.447-.058 1.977-.544.512-1.23.345-2.394.008l-4.475-1.393c.075-.08.154-.163.238-.24l-.225-.238-.525-.556-1.872-1.98-.003.002c-.03-.03-.057-.063-.085-.095-1.913-2.024-5.122-2.105-7.167-.185l-2.11 1.983-.843.79 3.55 3.758-10.283 9.66-.748.703 11.117 11.766.748-.704 10.283-9.66 3.375 3.57.842-.79 2.11-1.983c2.018-1.892 2.153-5.02.332-7.05zm-8.67-3.146c-.628-.667-1.013-1.416-1.154-2.18l3.27 3.46c-.757-.186-1.483-.613-2.115-1.28zm3.896-3.407l1.06 4.26c-.48.273-.985.445-1.494.508l-4.616-4.885c.083-.445.25-.883.5-1.3l4.55 1.418zM212.484 79.855l.003-.003-2.058-2.178-.55-.582-.2-.21a2.947 2.947 0 0 1-.102.09l-.842-3.38c.895.212 1.776.267 2.52-.433.935-.878.977-2.35.1-3.28a2.334 2.334 0 0 0-3.292-.1.458.458 0 0 0-.02.65c.176.19.47.197.656.023a1.402 1.402 0 0 1 1.98.06c.53.56.505 1.446-.058 1.974-.545.513-1.23.345-2.395.007l-4.475-1.393c.077-.08.156-.16.24-.24l-.224-.236-.525-.557-1.872-1.98-.002.003c-.028-.03-.056-.066-.085-.097-1.913-2.024-5.122-2.105-7.167-.184l-2.112 1.982-.84.79 3.55 3.758L184.428 84l-.75.703L194.8 96.47l.746-.702 10.284-9.66 3.375 3.57.84-.79 2.113-1.984c2.013-1.89 2.15-5.02.326-7.05zm-8.668-3.146c-.63-.668-1.013-1.416-1.155-2.183l3.272 3.462c-.758-.186-1.485-.613-2.116-1.28zm3.896-3.407l1.06 4.26a4.013 4.013 0 0 1-1.494.506l-4.617-4.887c.084-.445.25-.88.5-1.298l4.552 1.418zM242.38 111.492l.002-.003-2.058-2.18-.55-.58-.2-.212c-.033.03-.067.063-.102.093l-.842-3.384c.895.215 1.776.27 2.52-.43.936-.877.978-2.35.098-3.28a2.335 2.335 0 0 0-3.29-.1.462.462 0 0 0 .634.673 1.404 1.404 0 0 1 1.98.06c.53.56.505 1.447-.057 1.975-.545.513-1.23.345-2.394.007l-4.474-1.392c.076-.08.154-.163.238-.24l-.224-.238-.524-.557-1.873-1.98h-.003c-.03-.03-.056-.062-.085-.094-1.912-2.022-5.122-2.104-7.166-.183l-2.113 1.982-.842.79 3.55 3.758-10.282 9.66-.748.703 11.117 11.766.748-.702 10.284-9.66 3.374 3.57.842-.79 2.112-1.984c2.013-1.892 2.148-5.02.327-7.048zm-8.67-3.146c-.63-.667-1.014-1.417-1.155-2.18l3.27 3.46c-.756-.186-1.483-.613-2.114-1.28zm3.895-3.407l1.06 4.258a4.035 4.035 0 0 1-1.493.507l-4.615-4.885c.082-.446.248-.883.498-1.3l4.55 1.42zM247.468 144h25.37a4.994 4.994 0 0 0-.677-.99l.004-.003-2.057-2.176-.55-.583-.2-.21c-.033.032-.068.063-.102.092l-.842-3.384c.895.215 1.776.27 2.52-.43a2.32 2.32 0 0 0 .098-3.28 2.334 2.334 0 0 0-3.29-.1.462.462 0 0 0 .635.673 1.403 1.403 0 0 1 1.98.058c.53.56.505 1.448-.057 1.977-.545.51-1.23.345-2.395.007l-4.475-1.393c.076-.082.154-.164.238-.242l-.224-.237-.526-.555-1.872-1.982-.002.003c-.03-.03-.056-.063-.085-.095-1.914-2.023-5.123-2.104-7.167-.184l-2.11 1.983-.844.79 3.55 3.757-6.918 6.503zm15.37-8.96l4.55 1.418 1.06 4.258c-.48.274-.984.446-1.493.51l-4.616-4.887c.082-.447.248-.884.498-1.3zm2.77 6.106c-.756-.187-1.484-.614-2.114-1.28s-1.015-1.418-1.156-2.182l3.27 3.462zM149.93 79.125l.002-.003-2.057-2.178-.552-.583-.197-.208c-.033.03-.068.062-.103.09l-.84-3.382c.894.215 1.774.27 2.518-.43a2.32 2.32 0 0 0 .1-3.282 2.335 2.335 0 0 0-3.29-.098.462.462 0 0 0 .634.672 1.404 1.404 0 0 1 1.98.06c.53.56.505 1.448-.058 1.976-.545.513-1.23.345-2.394.007l-4.474-1.393c.076-.08.154-.16.238-.24l-.224-.237-.526-.557-1.872-1.98-.002.002c-.03-.03-.057-.065-.085-.096-1.914-2.023-5.123-2.104-7.167-.184l-2.112 1.983-.842.79 3.55 3.76-10.282 9.66-.75.7 11.118 11.765.748-.7 10.283-9.662 3.374 3.57.843-.79 2.11-1.983c2.015-1.892 2.15-5.02.33-7.048zm-8.668-3.146c-.63-.667-1.016-1.418-1.156-2.182l3.27 3.462c-.757-.187-1.484-.614-2.114-1.28zm3.894-3.408l1.06 4.26c-.48.273-.985.443-1.493.507l-4.616-4.887c.083-.446.25-.883.5-1.3l4.55 1.42zM179.712 110.644l.003-.003-2.058-2.177-.55-.584-.2-.21-.1.093-.844-3.384c.896.214 1.776.268 2.52-.43a2.32 2.32 0 0 0 .1-3.283 2.335 2.335 0 0 0-3.292-.098.46.46 0 0 0-.02.65c.176.186.47.195.656.02a1.404 1.404 0 0 1 1.98.06c.53.563.505 1.448-.057 1.978-.546.512-1.232.345-2.396.006l-4.475-1.392c.075-.083.153-.163.237-.242l-.224-.238-.524-.555-1.874-1.98-.003.002c-.03-.03-.056-.065-.085-.097-1.913-2.023-5.122-2.105-7.167-.185l-2.11 1.984-.842.79 3.55 3.758-10.283 9.66-.747.702 11.117 11.765.748-.702 10.284-9.66 3.374 3.57.843-.79 2.11-1.982c2.016-1.893 2.15-5.02.33-7.05zm-8.668-3.148c-.63-.666-1.014-1.415-1.156-2.18l3.27 3.462c-.756-.186-1.483-.613-2.114-1.282zm3.895-3.406l1.058 4.26c-.48.272-.984.445-1.493.507l-4.616-4.885c.082-.447.248-.883.5-1.3l4.55 1.418zM184.135 144h26.48a4.982 4.982 0 0 0-1.007-1.72l.003-.004-2.057-2.177-.55-.584-.2-.21c-.032.03-.066.063-.1.093l-.843-3.385c.895.214 1.775.27 2.52-.43.935-.88.978-2.35.098-3.28a2.335 2.335 0 0 0-3.29-.1.46.46 0 0 0-.022.652c.176.186.47.195.656.02a1.405 1.405 0 0 1 1.982.06 1.4 1.4 0 0 1-.06 1.977c-.543.51-1.23.345-2.394.007l-4.474-1.392c.076-.082.154-.164.238-.243l-.224-.236-.526-.556-1.872-1.982-.003.003c-.03-.03-.056-.064-.086-.095-1.912-2.025-5.12-2.106-7.166-.186l-2.112 1.983-.842.79 3.55 3.758-7.7 7.235zm16.147-9.69l4.552 1.418 1.06 4.26a4.033 4.033 0 0 1-1.494.507l-4.616-4.886c.083-.448.25-.884.498-1.3zm2.773 6.105c-.758-.187-1.485-.614-2.116-1.28s-1.015-1.417-1.157-2.182l3.272 3.462zM292.78 99.308a2.018 2.018 0 0 1-2.848-.084l-73.23-77.497a2.005 2.005 0 0 1 .086-2.84 2.02 2.02 0 0 1 2.85.084l73.228 77.497c.763.807.725 2.08-.085 2.84zM286.055 105.627a2.02 2.02 0 0 1-2.85-.084l-73.228-77.497a2.004 2.004 0 0 1 .085-2.84 2.02 2.02 0 0 1 2.85.084l73.228 77.496c.763.81.725 2.08-.085 2.84zM279.318 111.956a2.02 2.02 0 0 1-2.85-.085L203.24 34.376a2.004 2.004 0 0 1 .085-2.84 2.02 2.02 0 0 1 2.85.083l73.228 77.498a2.005 2.005 0 0 1-.085 2.84z"/></g><path fill="#EDEDED" d="M169.82 144h137.514l37.044-34.802a4.193 4.193 0 0 0 .182-5.942L246.99 0h-61.63l-77.245 72.566a4.197 4.197 0 0 0-.18 5.94L169.82 144z"/><path fill="#444" d="M246.99 0h-23.175l111.358 117.847 9.205-8.648a4.193 4.193 0 0 0 .182-5.943L246.99 0z"/><path fill="#FFF" d="M239.957 0h-9.17l101.017 106.902a3.345 3.345 0 0 0 4.717.144 3.323 3.323 0 0 0 .143-4.706L239.957 0z"/><ellipse transform="rotate(-42.845 216.888 15.484)" fill="#FCD22E" cx="216.873" cy="15.486" rx=".046" ry=".069"/><g fill="#65B4C9"><path d="M174.644 77.665l-27.694-29.31 30.968-29.092 27.695 29.308zM204.427 109.184l-27.694-29.308 30.97-29.095 27.693 29.31zM234.32 140.82l-27.693-29.307 30.97-29.094 27.693 29.306zM294.27 144l.804-.756-27.695-29.307-30.97 29.093.917.97zM141.87 108.452l-27.693-29.306 30.97-29.095L172.84 79.36zM171.654 139.97l-27.694-29.306 30.97-29.095 27.694 29.307zM230.935 144l1.583-1.486-27.694-29.308-30.97 29.095 1.607 1.7z"/></g><path fill="#65B4C9" d="M196.51 0L181.14 14.437l116.754 123.558 26.217-24.632L216.993 0z"/><path fill="#005E73" d="M188.705 48.336l.003-.003-2.058-2.176-.55-.584-.2-.21c-.033.032-.067.063-.102.093l-.842-3.384c.895.215 1.775.27 2.52-.43.935-.88.978-2.35.098-3.28a2.337 2.337 0 0 0-3.29-.1.46.46 0 0 0-.022.652c.177.186.47.195.656.02a1.405 1.405 0 0 1 1.98.06c.53.56.505 1.447-.058 1.977-.544.512-1.23.345-2.394.008l-4.475-1.393c.078-.08.157-.163.24-.24l-.224-.238-.524-.556-1.873-1.98-.004.002c-.03-.03-.057-.063-.085-.095-1.91-2.024-5.12-2.105-7.165-.185l-2.112 1.983-.842.79 3.552 3.758-10.283 9.66-.75.703 11.118 11.766.748-.704 10.283-9.66 3.374 3.57.842-.79 2.11-1.983c2.016-1.892 2.15-5.02.33-7.05zm-8.668-3.146c-.63-.667-1.015-1.416-1.155-2.18l3.27 3.46c-.758-.186-1.484-.613-2.115-1.28zm3.895-3.407l1.06 4.26c-.48.273-.984.445-1.493.508l-4.617-4.885c.083-.445.25-.883.498-1.3l4.552 1.418zM218.488 79.855l.003-.003-2.057-2.178-.55-.582-.2-.21a2.947 2.947 0 0 1-.102.09l-.84-3.38c.894.212 1.775.267 2.52-.433.934-.878.976-2.35.098-3.28a2.334 2.334 0 0 0-3.29-.1.458.458 0 0 0-.022.65c.177.19.47.197.657.023a1.402 1.402 0 0 1 1.98.06c.53.56.505 1.446-.058 1.974-.545.513-1.23.345-2.395.007l-4.475-1.393c.076-.08.155-.16.24-.24l-.225-.236-.526-.557-1.872-1.98-.003.003c-.03-.03-.057-.066-.086-.097-1.913-2.024-5.122-2.105-7.167-.184l-2.11 1.982-.843.79 3.55 3.758L190.43 84l-.748.703L200.8 96.47l.747-.704 10.283-9.66 3.375 3.57.84-.79 2.112-1.984c2.018-1.89 2.153-5.018.33-7.047zm-8.67-3.146c-.628-.668-1.012-1.416-1.154-2.183l3.27 3.462c-.756-.186-1.483-.613-2.115-1.28zm3.897-3.407l1.06 4.26c-.482.273-.985.443-1.494.506l-4.616-4.887c.083-.445.25-.88.5-1.298l4.55 1.418zM248.383 111.492l.003-.003-2.058-2.18-.55-.58-.2-.212c-.032.03-.066.063-.1.093l-.843-3.384c.895.215 1.776.27 2.52-.43.935-.877.977-2.35.098-3.28a2.334 2.334 0 0 0-3.29-.1.462.462 0 0 0 .635.673 1.403 1.403 0 0 1 1.98.06c.53.56.504 1.447-.058 1.975-.545.513-1.23.345-2.394.007l-4.474-1.392a4.47 4.47 0 0 1 .237-.24l-.225-.238-.525-.557-1.872-1.98h-.003c-.03-.03-.056-.062-.085-.094-1.913-2.022-5.123-2.104-7.167-.183l-2.112 1.982-.84.79 3.55 3.758-10.284 9.66-.748.703 11.117 11.766.747-.702 10.284-9.66 3.374 3.57.842-.79 2.112-1.984c2.015-1.892 2.15-5.02.33-7.048zm-8.668-3.146c-.63-.667-1.015-1.417-1.156-2.18l3.27 3.46c-.758-.186-1.484-.613-2.115-1.28zm3.894-3.407l1.06 4.258a4.035 4.035 0 0 1-1.495.507l-4.615-4.885c.083-.446.25-.883.5-1.3l4.55 1.42zM253.472 144h25.37a4.99 4.99 0 0 0-.676-.99l.003-.003-2.058-2.176-.55-.583-.2-.21c-.033.032-.068.063-.102.092l-.842-3.384c.895.215 1.776.27 2.52-.43.935-.88.978-2.35.098-3.28a2.334 2.334 0 0 0-3.29-.1.462.462 0 0 0 .634.673 1.405 1.405 0 0 1 1.982.058 1.4 1.4 0 0 1-.058 1.977c-.545.51-1.23.345-2.395.007l-4.476-1.393a4.93 4.93 0 0 1 .24-.242l-.225-.237-.526-.555-1.873-1.982v.003c-.03-.03-.057-.063-.086-.095-1.913-2.023-5.122-2.104-7.166-.184l-2.112 1.983-.842.79 3.55 3.757-6.922 6.503zm15.37-8.96l4.55 1.418 1.06 4.258a4.01 4.01 0 0 1-1.492.51l-4.616-4.887a3.88 3.88 0 0 1 .498-1.3zm2.77 6.106c-.756-.187-1.484-.614-2.115-1.28s-1.015-1.418-1.156-2.182l3.273 3.462zM155.933 79.125l.003-.003-2.057-2.178-.553-.583-.197-.208c-.033.03-.068.062-.103.09l-.84-3.382c.894.215 1.774.27 2.518-.43.936-.88.978-2.352.098-3.282a2.335 2.335 0 0 0-3.29-.098.462.462 0 0 0 .635.672 1.405 1.405 0 0 1 1.98.06c.53.56.506 1.448-.057 1.976-.544.513-1.23.345-2.394.007l-4.474-1.393c.076-.08.154-.16.238-.24l-.224-.237-.526-.557-1.872-1.98-.002.002c-.03-.03-.057-.065-.085-.096-1.912-2.023-5.12-2.104-7.166-.184l-2.112 1.983-.842.79 3.55 3.76-10.283 9.66-.75.7 11.118 11.765.748-.7 10.284-9.662 3.374 3.57.843-.79 2.112-1.983c2.014-1.892 2.15-5.02.328-7.048zm-8.668-3.146c-.63-.667-1.015-1.418-1.156-2.182l3.27 3.462c-.757-.187-1.484-.614-2.115-1.28zm3.895-3.408l1.06 4.26c-.48.273-.986.443-1.494.507l-4.616-4.887c.083-.446.25-.883.498-1.3l4.552 1.42zM185.716 110.644l.003-.003-2.06-2.177-.55-.584-.198-.21-.102.093-.842-3.384c.895.214 1.776.268 2.52-.43a2.32 2.32 0 0 0 .098-3.283 2.335 2.335 0 0 0-3.29-.098.46.46 0 0 0-.022.65c.176.186.47.195.657.02a1.403 1.403 0 0 1 1.98.06c.53.563.505 1.448-.057 1.978-.545.512-1.23.345-2.395.006l-4.474-1.392c.076-.083.154-.163.238-.242l-.224-.238-.525-.555-1.872-1.98-.002.002c-.03-.03-.056-.065-.085-.097-1.913-2.023-5.122-2.105-7.166-.185l-2.112 1.984-.842.79 3.55 3.758-10.282 9.66-.747.702 11.117 11.765.748-.702 10.283-9.66 3.375 3.57.843-.79 2.11-1.982c2.014-1.893 2.15-5.02.328-7.05zm-8.668-3.148c-.63-.666-1.015-1.415-1.156-2.18l3.27 3.462c-.756-.186-1.483-.613-2.114-1.282zm3.894-3.406l1.06 4.26c-.48.272-.984.445-1.493.507l-4.617-4.885c.083-.447.25-.883.5-1.3l4.55 1.418zM190.14 144h26.478a4.982 4.982 0 0 0-1.007-1.72l.004-.004-2.058-2.177-.55-.584-.2-.21c-.032.03-.066.063-.1.093l-.844-3.385c.896.214 1.776.27 2.52-.43a2.32 2.32 0 0 0 .1-3.28 2.335 2.335 0 0 0-3.292-.1.46.46 0 0 0 .634.673 1.405 1.405 0 0 1 1.982.06c.53.56.504 1.446-.06 1.976-.543.51-1.23.345-2.393.007l-4.475-1.392c.076-.082.154-.164.24-.243l-.225-.236-.525-.556-1.872-1.982-.003.003c-.028-.03-.055-.064-.085-.095-1.912-2.025-5.12-2.106-7.166-.186l-2.11 1.983-.843.79 3.55 3.758-7.7 7.235zm16.146-9.69l4.55 1.418 1.06 4.26c-.48.272-.984.444-1.493.507l-4.616-4.886c.084-.448.25-.884.5-1.3zm2.772 6.105c-.758-.187-1.485-.614-2.116-1.28-.63-.668-1.014-1.417-1.156-2.182l3.272 3.462z"/><path fill="#FFF" d="M298.785 99.308a2.016 2.016 0 0 1-2.848-.084l-73.23-77.497a2.005 2.005 0 0 1 .086-2.84 2.02 2.02 0 0 1 2.85.084l73.228 77.497c.763.807.725 2.08-.085 2.84zM292.058 105.627a2.017 2.017 0 0 1-2.848-.084l-73.23-77.497a2.004 2.004 0 0 1 .085-2.84 2.018 2.018 0 0 1 2.848.084l73.23 77.496c.763.81.725 2.08-.085 2.84zM285.322 111.956a2.02 2.02 0 0 1-2.85-.085l-73.228-77.495a2.004 2.004 0 0 1 .085-2.84 2.017 2.017 0 0 1 2.847.083l73.23 77.498a2.004 2.004 0 0 1-.085 2.84z"/><g><path opacity=".3" d="M140.6 58.236a4.062 4.062 0 0 0-1.777 5.476l32.576 63.57c.004.01.006.017.01.024l5.598 10.92c0 .002 0 .002.002.003l1.855 3.622A20.38 20.38 0 0 0 180.15 144h63.573l-6.23-12.158c3.898-5.916 4.6-13.688 1.14-20.443l-1.853-3.614c0-.003-.002-.006-.003-.007l-5.184-10.114-33.003-64.404a4.083 4.083 0 0 0-5.492-1.77l-6.608 3.366L173.06 8.65l-.5.257-5.154-2.683-.845 5.74-.643.327-5.16-2.68-.84 5.738-.644.328-5.162-2.68-.84 5.737-.644.327-5.16-2.68-.844 5.74-.645.328-5.157-2.683-.837 5.737-.645.328-5.163-2.68-.84 5.737-.32.165 13.427 26.203-5.84 2.98z"/><path fill="#00AA59" d="M187.63 144h50.277l-25.12-49.02a1.58 1.58 0 0 0-2.122-.687l-37.06 18.882a1.567 1.567 0 0 0-.688 2.116L187.63 144z"/><path opacity=".7" d="M209.56 144l-19.97-38.967-11.11 5.662L195.544 144z"/><path opacity=".3" d="M187.63 144h32.544l5.098-2.598a20.244 20.244 0 0 0 7.75-6.937l-19.617-38.28a1.576 1.576 0 0 0-2.118-.682l-21.075 10.737-11.115 5.662-4.87 2.483a1.567 1.567 0 0 0-.69 2.112L187.63 144z"/><path fill="#323C3F" d="M229.01 103.972a4.07 4.07 0 0 1-1.776 5.478l-52.5 26.746a4.087 4.087 0 0 1-5.492-1.772L132.494 62.71a4.063 4.063 0 0 1 1.778-5.475l52.498-26.747a4.088 4.088 0 0 1 5.492 1.77l36.748 71.714z"/><path d="M172.537 140.852A20.455 20.455 0 0 0 174.55 144h36.65l12.215-6.224c10.037-5.113 14.016-17.37 8.89-27.38l-5.598-10.917c-5.127-10.01-17.424-13.98-27.46-8.864l-23.422 11.934c-10.033 5.112-14.013 17.37-8.883 27.38l5.595 10.922z"/><path fill="#323C3F" d="M170.68 137.227a20.24 20.24 0 0 0 5.634 6.773h25.92l19.324-9.848c10.037-5.112 14.02-17.37 8.89-27.375l-5.598-10.922c-5.13-10.01-17.422-13.977-27.46-8.863l-23.42 11.935c-10.034 5.11-14.014 17.37-8.887 27.38l5.597 10.92z"/><path fill="#EDEDED" d="M206.7 77.737c.34.668.118 1.464-.494 1.777l-43.48 22.15c-.614.314-1.392.026-1.734-.642L146.46 72.667c-.34-.667-.12-1.463.495-1.777l43.48-22.152c.612-.312 1.39-.024 1.733.643L206.7 77.738z"/><path fill="#FFF" d="M220.815 109.41c.954 1.863-.425 4.474-3.084 5.828-2.657 1.354-5.585.94-6.54-.923-.956-1.863.426-4.472 3.083-5.826 2.66-1.356 5.586-.942 6.542.92zM204.88 117.53c.956 1.86-.424 4.472-3.084 5.825-2.657 1.354-5.584.94-6.54-.92-.955-1.865.426-4.475 3.084-5.828 2.657-1.35 5.586-.94 6.54.922zM188.945 125.646c.955 1.864-.425 4.473-3.084 5.83-2.655 1.353-5.585.937-6.54-.924-.955-1.863.426-4.472 3.084-5.824 2.66-1.356 5.588-.945 6.54.918z"/><path fill="#27C66D" d="M225.945 119.423c.955 1.862-.426 4.47-3.084 5.825-2.657 1.354-5.585.94-6.54-.922-.956-1.867.425-4.476 3.083-5.83 2.657-1.35 5.585-.94 6.542.927z"/><path fill="#F2CF49" d="M210.01 127.54c.954 1.863-.426 4.47-3.083 5.824-2.657 1.356-5.586.943-6.542-.922-.956-1.862.425-4.472 3.083-5.825 2.66-1.355 5.587-.94 6.542.922z"/><path fill="#F83C3A" d="M194.075 135.657c.956 1.863-.425 4.473-3.082 5.827-2.657 1.353-5.586.94-6.542-.923-.954-1.863.427-4.47 3.084-5.825 2.657-1.354 5.586-.94 6.54.922z"/><path fill="#FFF" d="M215.294 98.637c.956 1.867-.424 4.473-3.083 5.83-2.655 1.353-5.584.94-6.542-.926-.955-1.862.428-4.47 3.085-5.824s5.587-.94 6.54.92zM199.36 106.758c.955 1.863-.426 4.473-3.082 5.827-2.66 1.353-5.587.94-6.542-.926-.957-1.863.424-4.473 3.08-5.826 2.66-1.355 5.588-.943 6.545.924zM183.425 114.873c.957 1.867-.424 4.476-3.083 5.828-2.657 1.356-5.587.944-6.542-.922-.955-1.864.426-4.47 3.085-5.826 2.657-1.354 5.584-.94 6.54.92zM210.062 88.43c.956 1.865-.424 4.474-3.082 5.827-2.658 1.354-5.586.94-6.542-.924-.955-1.86.424-4.47 3.083-5.823 2.66-1.356 5.588-.943 6.542.92zM194.13 96.547c.954 1.867-.427 4.475-3.086 5.827-2.657 1.354-5.584.943-6.54-.923-.955-1.86.425-4.468 3.08-5.822 2.663-1.355 5.59-.942 6.545.92zM178.194 104.666c.956 1.865-.426 4.474-3.082 5.828-2.66 1.354-5.587.94-6.543-.924-.956-1.862.425-4.473 3.084-5.826 2.657-1.352 5.586-.94 6.54.922z"/><path fill="#575756" d="M188.794 38.708a4.595 4.595 0 0 1-2.01 6.187L145.97 65.688a4.616 4.616 0 0 1-6.203-2.002 4.588 4.588 0 0 1 2.01-6.184l40.814-20.795a4.62 4.62 0 0 1 6.204 2z"/><path fill="#FFE4C0" d="M166.732 7.65l-40.046 20.405 19.285 37.633 40.047-20.405z"/><path opacity=".05" d="M166.732 7.65l-20.76 58.038 40.045-20.405z"/><path opacity=".2" d="M184.54 42.4L144.49 62.802l1.48 2.886 40.045-20.405z"/><path fill="#FFE4C0" d="M126.92 28.507l.928-6.355 5.716 2.968zM133.564 25.12l.93-6.352 5.71 2.97z"/><path fill="#FFE4C0" d="M140.203 21.738l.935-6.355 5.712 2.966zM146.85 18.35l.93-6.354 5.718 2.968zM153.498 14.964l.932-6.355 5.712 2.97zM160.142 11.58l.935-6.357 5.71 2.97z"/><path d="M174.492 33.74c.35.687.077 1.518-.604 1.866l-28.678 14.61a1.388 1.388 0 1 1-1.265-2.47l28.677-14.612a1.4 1.4 0 0 1 1.87.607zM171.596 28.095c.35.682.08 1.52-.6 1.868L142.318 44.57c-.68.348-1.52.08-1.87-.606-.35-.68-.078-1.52.603-1.864l28.678-14.612a1.393 1.393 0 0 1 1.868.607zM168.704 22.45c.35.68.078 1.518-.603 1.863l-28.674 14.61a1.397 1.397 0 0 1-1.874-.604 1.388 1.388 0 0 1 .604-1.868l28.678-14.61a1.394 1.394 0 0 1 1.87.608zM165.81 16.802a1.38 1.38 0 0 1-.602 1.864l-28.676 14.612a1.4 1.4 0 0 1-1.874-.606 1.388 1.388 0 0 1 .606-1.864l28.678-14.61a1.388 1.388 0 0 1 1.867.604z" opacity=".4"/><g opacity=".2"><path d="M199.382 71.802c.447.87.1 1.938-.768 2.38l-36.542 18.616a1.768 1.768 0 0 1-1.613-3.15L197 71.033a1.78 1.78 0 0 1 2.382.77z"/></g><g opacity=".2"><path d="M195.697 64.61a1.767 1.767 0 0 1-.77 2.376l-36.54 18.62a1.78 1.78 0 0 1-2.382-.774 1.765 1.765 0 0 1 .767-2.38l36.54-18.616a1.778 1.778 0 0 1 2.385.774z"/></g><g opacity=".2"><path d="M192.008 57.412c.445.87.1 1.936-.77 2.378L154.7 78.406c-.87.442-1.935.1-2.38-.77-.445-.87-.1-1.934.767-2.378l36.542-18.617a1.774 1.774 0 0 1 2.38.772z"/></g></g><path opacity=".1" d="M106.344 58.754l.01-.02-16.86-8.428-3.31-1.655-1.208-.603-1.625-.812c-.13.26-.268.51-.404.764L70.654 29.824c5.744-.655 11.066-2.235 13.942-7.956 3.618-7.194.694-15.98-6.518-19.584-7.213-3.606-16.023-.688-19.64 6.506a2.895 2.895 0 0 0 1.295 3.89 2.912 2.912 0 0 0 3.9-1.293c2.182-4.337 7.49-6.096 11.838-3.922 4.347 2.172 6.11 7.468 3.93 11.803-2.105 4.187-6.507 4.68-14.102 5.185l-29.45 1.41c.273-.647.562-1.292.886-1.936l-6.14-3.07L15.25 13.19l-.01.02c-.237-.127-.47-.26-.712-.38A31.454 31.454 0 0 0-.038 9.497V144h63.514l17.11-34.022L108.23 123.8l3.257-6.474 8.175-16.26c7.793-15.5 1.818-34.258-13.32-42.312zm-57.988.07c-5.166-2.582-9.06-6.18-11.552-10.393l26.812 13.406c-4.875.53-10.095-.43-15.26-3.01zm23.377.587L33.9 40.497c-.473-2.812-.437-5.752.135-8.744l29.943-1.433 15.47 22.875c-2.242 2.66-4.85 4.748-7.715 6.216z"/><g><path fill="#9D9D9C" d="M85.082.908c-.76-.38-1.538-.67-2.324-.908H74.31c-3.72 1.118-6.994 3.686-8.87 7.414a2.895 2.895 0 0 0 1.297 3.89 2.91 2.91 0 0 0 3.9-1.293c2.182-4.335 7.49-6.094 11.838-3.92 4.346 2.172 6.11 7.47 3.928 11.804-2.106 4.188-6.513 4.68-14.12 5.184a2.896 2.896 0 0 0-1.11 5.483c.45.224.962.336 1.496.3 7.487-.494 15.23-1.01 18.93-8.368 3.618-7.194.694-15.978-6.518-19.584z"/><path fill="#9D9D9C" d="M104.086 77.19a.18.18 0 0 1-.034-.017L12.436 31.368a2.894 2.894 0 0 1 1.165-5.483l58.74-2.81a2.897 2.897 0 0 1 2.547 1.274l32.71 48.36c.74.857.933 2.112.392 3.188a2.91 2.91 0 0 1-3.904 1.292zm-79.13-46.046l71.79 35.894L70.98 28.94l-46.027 2.204z"/><path fill="#F16442" d="M21.532 11.45C14.594 7.98 6.982 7.31-.038 9v55.79l24.172 12.085 11.433-22.734c7.918-15.745 1.634-34.86-14.035-42.694zM115.236 122.423L126.67 99.69c7.915-15.744 1.634-34.86-14.035-42.693-15.67-7.833-34.79-1.42-42.707 14.325L58.496 94.056l56.74 28.367z"/><path fill="#FFD658" d="M-.038 56.687v8.104l115.274 57.633 3.257-6.475z"/><path fill="#005E73" d="M91.98 46.67c-6.934 13.79-23.77 19.363-37.596 12.45-13.83-6.915-19.42-23.7-12.485-37.487L22.253 11.81-.04 56.14V144h69.826l43.57-86.642L91.98 46.67z"/><path fill="#FFD658" d="M55.36 57.447C41.53 50.533 36.804 36.34 43.74 22.55l-6.14-3.067C29.442 35.7 36.016 55.438 52.282 63.57c16.264 8.13 36.06 1.576 44.215-14.642l-6.142-3.07C83.422 59.65 69.19 64.36 55.36 57.45z"/><g fill="#FFD658"><path d="M22.987 63.46l-.24 7.36 5.942 4.368-7.093 2.046-2.33 6.99-4.143-6.095-7.386-.052 4.532-5.815-2.233-7.018 6.946 2.5zM71.976 89.576l-.238 7.36 5.943 4.37-7.092 2.045-2.332 6.988-4.144-6.096-7.387-.05 4.537-5.814-2.234-7.017 6.944 2.5zM48.69 73.353l-.32 9.825 7.935 5.832-9.472 2.734-3.11 9.322-5.533-8.132-9.857-.07 6.048-7.76-2.978-9.368 9.27 3.338z"/></g></g><path opacity=".3" d="M480 0H306.917c-.013.135-.04.268-.04.406V144H480V0z"/><g><path fill="#EDEDED" d="M480 0H311.02a3.988 3.988 0 0 0-1.286 2.928v139.468c0 .57.124 1.113.34 1.604H480V0z"/><path fill="#444" d="M480 0H311.02a3.988 3.988 0 0 0-1.286 2.928v12.017H480V0z"/><path fill="#2CB740" d="M321.695 7.144a3.174 3.174 0 0 1-3.18 3.17 3.175 3.175 0 0 1-3.182-3.17 3.178 3.178 0 0 1 3.182-3.17c1.756 0 3.18 1.422 3.18 3.17z"/><path fill="#F16442" d="M331.388 7.144a3.178 3.178 0 0 1-3.186 3.17 3.173 3.173 0 0 1-3.175-3.17 3.175 3.175 0 0 1 3.175-3.17 3.18 3.18 0 0 1 3.186 3.17z"/><path fill="#FFF" d="M480 3.8c-.062-.005-.12-.02-.184-.02h-143.25a3.18 3.18 0 0 0-3.18 3.174 3.18 3.18 0 0 0 3.18 3.17h143.25c.063 0 .122-.015.184-.02V3.8z"/><ellipse fill="#FCD22E" cx="341.104" cy="29.868" rx=".065" ry=".043"/><g fill="#65B4C9"><path d="M318.273 59.278h38.49v40.434h-38.49zM359.665 59.278h38.488v40.434h-38.488zM401.212 59.278H439.7v40.434h-38.488zM442.604 59.278H480v40.434h-37.396zM318.273 102.066h38.49v40.436h-38.49zM359.665 102.066h38.488v40.436h-38.488zM401.212 102.066H439.7v40.436h-38.488zM442.604 102.066H480v40.436h-37.396z"/></g><path fill="#65B4C9" d="M317.02 19.663h162.265v34.23H317.02z"/><path fill="#005E73" d="M345.547 70.82v-.003h-3.9c0 .042 0 .087-.003.13l-2.903-1.63c.734-.478 1.347-1.052 1.347-2.023a2.22 2.22 0 0 0-4.437 0c0 .244.196.44.44.44a.44.44 0 0 0 .44-.44 1.336 1.336 0 0 1 2.674 0c0 .71-.565 1.076-1.56 1.66l-3.893 2.185a4.81 4.81 0 0 1-.013-.322H330.1v.004c-.042 0-.082-.004-.123-.004-2.658 0-4.81 2.165-4.81 4.835v3.857h4.933V93.913h15.45V79.51h4.69V75.65c0-2.63-2.088-4.766-4.69-4.83zm-7.853 3.94c-.875 0-1.647-.226-2.272-.627h4.547c-.627.4-1.4.626-2.276.626zm.176-4.92l3.656 2.05c-.124.51-.334.97-.624 1.365h-6.416c-.256-.35-.45-.75-.578-1.195l3.962-2.22zM386.94 70.82v-.003h-3.9c0 .042 0 .087-.003.13l-2.903-1.63c.734-.478 1.347-1.052 1.347-2.023a2.22 2.22 0 0 0-4.435 0 .44.44 0 0 0 .88 0 1.337 1.337 0 0 1 2.673 0c0 .71-.563 1.076-1.56 1.66l-3.894 2.185a5.607 5.607 0 0 1-.01-.322h-3.643v.004c-.04 0-.083-.004-.123-.004-2.66 0-4.812 2.165-4.812 4.835v3.857h4.934V93.913h15.45V79.51h4.69V75.65c0-2.63-2.088-4.766-4.69-4.83zm-7.853 3.94c-.875 0-1.648-.226-2.273-.627h4.547c-.625.4-1.397.626-2.273.626zm.175-4.92l3.656 2.05c-.125.51-.333.97-.624 1.365h-6.415c-.257-.35-.45-.75-.578-1.195l3.96-2.22zM428.488 70.82v-.003h-3.901c0 .042 0 .087-.002.13l-2.904-1.63c.735-.478 1.35-1.052 1.35-2.023a2.22 2.22 0 0 0-4.438 0 .44.44 0 0 0 .883 0 1.337 1.337 0 0 1 2.673 0c0 .71-.564 1.076-1.56 1.66l-3.892 2.185a4.215 4.215 0 0 1-.014-.322h-3.642v.004c-.04 0-.08-.004-.122-.004-2.658 0-4.812 2.165-4.812 4.835v3.857h4.934V93.913h15.45V79.51h4.69V75.65c0-2.63-2.088-4.766-4.69-4.83zm-7.854 3.94c-.876 0-1.648-.226-2.273-.627h4.547c-.624.4-1.396.626-2.273.626zm.175-4.92l3.656 2.05c-.125.51-.334.97-.624 1.365h-6.415a3.708 3.708 0 0 1-.58-1.195l3.962-2.22zM469.88 70.82v-.003h-3.9c0 .042 0 .087-.003.13l-2.903-1.63c.734-.478 1.348-1.052 1.348-2.023a2.22 2.22 0 0 0-4.437 0 .44.44 0 0 0 .88 0 1.337 1.337 0 0 1 2.674 0c0 .71-.564 1.076-1.56 1.66h-.002l-3.893 2.185a5.598 5.598 0 0 1-.012-.322H454.43v.004c-.042 0-.083-.004-.123-.004-2.658 0-4.812 2.165-4.812 4.835v3.857h4.934V93.913h15.45V79.51h4.69V75.65c0-2.63-2.088-4.766-4.69-4.83zm-7.854 3.94c-.875 0-1.65-.226-2.273-.627h4.547c-.625.4-1.398.626-2.274.626zm.175-4.92l3.658 2.05c-.125.51-.334.97-.624 1.365h-6.416a3.79 3.79 0 0 1-.578-1.195l3.96-2.22zM345.547 113.61v-.005h-3.9c0 .043 0 .088-.003.13l-2.903-1.63c.734-.477 1.347-1.05 1.347-2.02a2.22 2.22 0 0 0-4.437 0c0 .24.196.437.44.437a.44.44 0 0 0 .44-.438 1.336 1.336 0 0 1 2.673 0c.002.71-.563 1.075-1.56 1.658l-3.89 2.186a4.84 4.84 0 0 1-.014-.322H330.1v.004c-.042 0-.082-.004-.123-.004-2.658 0-4.81 2.166-4.81 4.836V122.297h4.933v14.404h15.45v-14.404h4.69v-3.856c0-2.63-2.088-4.767-4.69-4.833zm-7.853 3.937c-.875 0-1.647-.223-2.272-.625h4.547c-.627.402-1.4.625-2.276.625zm.176-4.92l3.656 2.052c-.124.51-.334.97-.624 1.363h-6.416c-.256-.35-.45-.75-.578-1.194l3.962-2.223zM386.94 113.61v-.005h-3.9c0 .043 0 .088-.003.13l-2.903-1.63c.734-.477 1.347-1.05 1.347-2.02a2.218 2.218 0 0 0-4.435 0 .44.44 0 0 0 .88 0 1.336 1.336 0 0 1 2.673 0c0 .71-.563 1.074-1.56 1.657l-3.894 2.186a5.643 5.643 0 0 1-.01-.322h-3.643v.004c-.04 0-.083-.004-.123-.004-2.66 0-4.812 2.166-4.812 4.836V122.297h4.934v14.404h15.45v-14.404h4.69v-3.856c0-2.63-2.088-4.767-4.69-4.833zm-7.853 3.937c-.875 0-1.648-.223-2.273-.625h4.547c-.625.402-1.397.625-2.273.625zm.175-4.92l3.656 2.052c-.125.51-.333.97-.624 1.363h-6.415a3.76 3.76 0 0 1-.578-1.194l3.96-2.223zM428.488 113.61v-.005h-3.901c0 .043 0 .088-.002.13l-2.904-1.63c.735-.477 1.35-1.05 1.35-2.02a2.22 2.22 0 0 0-4.438 0c0 .24.2.437.44.437a.44.44 0 0 0 .443-.438 1.336 1.336 0 0 1 2.673 0c0 .71-.564 1.075-1.56 1.658l-3.892 2.186a4.24 4.24 0 0 1-.014-.322h-3.642v.004c-.04 0-.08-.004-.122-.004-2.658 0-4.812 2.166-4.812 4.836V122.297h4.934v14.404h15.45v-14.404h4.69v-3.856c0-2.63-2.088-4.767-4.69-4.833zm-7.854 3.937c-.876 0-1.648-.223-2.273-.625h4.547c-.624.402-1.396.625-2.273.625zm.175-4.92l3.656 2.052c-.125.51-.334.97-.624 1.363h-6.415a3.703 3.703 0 0 1-.58-1.194l3.962-2.223zM469.88 113.61v-.005h-3.9c0 .043 0 .088-.003.13l-2.903-1.63c.734-.477 1.348-1.05 1.348-2.02a2.22 2.22 0 0 0-4.437 0 .44.44 0 0 0 .88 0 1.336 1.336 0 0 1 2.674 0c0 .71-.564 1.074-1.56 1.657h-.002l-3.893 2.186a5.633 5.633 0 0 1-.012-.322H454.43v.004c-.042 0-.083-.004-.123-.004-2.658 0-4.812 2.166-4.812 4.836V122.297h4.934v14.404h15.45v-14.404h4.69v-3.856c0-2.63-2.088-4.767-4.69-4.833zm-7.854 3.937c-.875 0-1.65-.223-2.273-.625h4.547c-.625.402-1.398.625-2.274.625zm.175-4.92l3.658 2.052c-.125.51-.334.97-.624 1.363h-6.416c-.256-.35-.45-.75-.578-1.194l3.96-2.223z"/><path fill="#FFF" d="M452.953 27.996c0 1.06-.86 1.915-1.92 1.915H349.258a1.916 1.916 0 0 1-1.92-1.914c0-1.058.858-1.914 1.92-1.914h101.77c1.063 0 1.923.856 1.923 1.914zM452.953 36.78c0 1.058-.86 1.913-1.92 1.913H349.258a1.915 1.915 0 0 1-1.92-1.914c0-1.06.858-1.917 1.92-1.917h101.77a1.92 1.92 0 0 1 1.923 1.916zM452.953 45.573a1.92 1.92 0 0 1-1.92 1.917H349.258a1.915 1.915 0 0 1 0-3.83h101.77c1.063 0 1.923.856 1.923 1.913z"/></g><path opacity=".1" fill="#444" d="M480 4.474C441.89 36.868 339.004 121.564 311.73 144H480V4.474z"/></svg>