<svg xmlns="http://www.w3.org/2000/svg" width="221.629" height="115.702" viewBox="0 0 221.629 115.702"><path fill="#FFCE12" d="M0 0h221.63v115.702H0z"/><path opacity=".2" fill="#1E0E00" d="M221.63 28.643L192.537 0h-54.59L79.633 58.855a3.37 3.37 0 0 0 .03 4.775l52.885 52.07h89.08V28.644z"/><path fill="#EDEDED" d="M221.63 26.74L194.47 0h-51.494L83.132 60.397a3.375 3.375 0 0 0 .027 4.777l51.32 50.527h87.148V26.74z"/><g opacity=".4"><g opacity=".4"><path d="M135.425 76.43a1.04 1.04 0 0 1-1.47.01l-26.913-26.5a1.034 1.034 0 0 1-.01-1.465 1.04 1.04 0 0 1 1.467-.007l26.913 26.5c.41.4.414 1.057.012 1.462zM138.34 73.487c-.4.406-1.06.41-1.468.01l-26.914-26.5a1.035 1.035 0 0 1-.008-1.464 1.04 1.04 0 0 1 1.467-.01l26.914 26.5c.41.403.413 1.057.01 1.464zM141.257 70.544a1.04 1.04 0 0 1-1.467.007l-26.916-26.498a1.034 1.034 0 0 1-.01-1.464 1.047 1.047 0 0 1 1.47-.007l26.913 26.502c.408.4.41 1.056.01 1.462zM144.173 67.603c-.403.404-1.06.41-1.47.007l-26.913-26.5a1.034 1.034 0 0 1-.008-1.463c.4-.407 1.058-.41 1.467-.01l26.913 26.5c.408.403.41 1.057.01 1.466zM147.09 64.658a1.04 1.04 0 0 1-1.47.006l-26.914-26.497a1.033 1.033 0 0 1-.01-1.462 1.04 1.04 0 0 1 1.468-.01l26.915 26.5c.407.4.412 1.058.01 1.463zM150.005 61.714a1.04 1.04 0 0 1-1.47.01l-26.913-26.497a1.038 1.038 0 0 1-.008-1.467 1.042 1.042 0 0 1 1.466-.008l26.913 26.5c.41.4.412 1.058.012 1.462zM152.92 58.773a1.047 1.047 0 0 1-1.47.01L124.54 32.28a1.035 1.035 0 0 1-.01-1.462 1.044 1.044 0 0 1 1.47-.008l26.91 26.5c.41.4.413 1.056.013 1.463z"/></g><path d="M123.85 88.112a1.04 1.04 0 0 1-1.467.007l-26.915-26.5a1.032 1.032 0 0 1-.01-1.462 1.04 1.04 0 0 1 1.468-.01l26.913 26.5c.407.4.413 1.057.01 1.464zM126.767 85.168a1.04 1.04 0 0 1-1.47.008L98.385 58.68a1.032 1.032 0 0 1-.008-1.466c.4-.405 1.06-.41 1.467-.01l26.914 26.5a1.04 1.04 0 0 1 .01 1.464zM129.683 82.226a1.04 1.04 0 0 1-1.468.006L101.3 55.735a1.03 1.03 0 0 1-.008-1.463c.4-.408 1.06-.41 1.465-.01L129.67 80.76c.41.404.415 1.06.013 1.466zM132.6 79.28a1.034 1.034 0 0 1-1.47.01L104.217 52.79a1.03 1.03 0 0 1-.008-1.463 1.04 1.04 0 0 1 1.467-.01l26.912 26.498c.41.4.414 1.058.012 1.462z" opacity=".4"/></g><g opacity=".4"><g opacity=".4"><path d="M169.352 109.836a1.04 1.04 0 0 1-1.466.01l-26.916-26.5a1.036 1.036 0 0 1-.007-1.465c.4-.403 1.06-.407 1.467-.006l26.913 26.5c.408.4.414 1.058.01 1.462zM172.27 106.892a1.042 1.042 0 0 1-1.47.01l-26.914-26.5a1.03 1.03 0 0 1-.008-1.46 1.038 1.038 0 0 1 1.467-.01l26.915 26.498c.407.402.41 1.056.01 1.462zM175.187 103.948a1.04 1.04 0 0 1-1.47.01L146.805 77.46a1.035 1.035 0 0 1-.008-1.466 1.044 1.044 0 0 1 1.466-.007l26.914 26.5c.407.4.41 1.057.01 1.46zM178.102 101.008a1.046 1.046 0 0 1-1.467.01L149.72 74.516a1.03 1.03 0 0 1-.008-1.462 1.04 1.04 0 0 1 1.467-.01l26.912 26.498c.407.4.41 1.06.01 1.466zM181.02 98.063c-.403.407-1.062.41-1.468.01l-26.916-26.5a1.034 1.034 0 0 1-.01-1.463 1.043 1.043 0 0 1 1.47-.008l26.91 26.498c.41.4.413 1.06.013 1.463zM183.935 95.12a1.043 1.043 0 0 1-1.47.012l-26.915-26.5a1.034 1.034 0 0 1-.008-1.464 1.04 1.04 0 0 1 1.467-.01l26.913 26.5c.408.4.412 1.058.012 1.462zM186.85 92.18c-.403.406-1.06.41-1.47.008l-26.914-26.5a1.034 1.034 0 0 1-.008-1.464 1.04 1.04 0 0 1 1.468-.007l26.915 26.5c.407.4.413 1.055.01 1.462z"/></g><path d="M150.396 115.702h2.952l-22.494-22.146a1.044 1.044 0 0 0-1.47.01 1.03 1.03 0 0 0 .013 1.46l21 20.676zM156.3 115.702h2.955l-25.48-25.09a1.042 1.042 0 0 0-1.47.008 1.03 1.03 0 0 0 .01 1.463l23.985 23.62zM162.143 115.64c.027.026.065.04.096.062h1.267c.034-.026.075-.04.105-.07.4-.407.4-1.062-.01-1.464L136.687 87.67a1.04 1.04 0 0 0-1.468.007 1.034 1.034 0 0 0 .008 1.463l26.915 26.5zM166.527 112.688a1.04 1.04 0 0 1-1.47.005l-26.91-26.495a1.033 1.033 0 0 1-.012-1.463 1.043 1.043 0 0 1 1.47-.01l26.91 26.5a1.03 1.03 0 0 1 .012 1.463z" opacity=".4"/></g><g opacity=".4"><path d="M179.74 115.702h2.953l-3.3-3.248a1.036 1.036 0 0 0-1.46 1.473l1.806 1.775zM185.646 115.702h2.95l-6.288-6.19a1.037 1.037 0 0 0-1.466.01c-.403.405-.4 1.058.01 1.46l4.794 4.72zM191.553 115.702h2.95l-9.277-9.134a1.038 1.038 0 0 0-1.468.008c-.4.406-.398 1.06.01 1.46l7.785 7.666zM197.456 115.702h2.952l-12.266-12.077c-.41-.402-1.065-.397-1.468.01s-.398 1.06.01 1.46l10.772 10.607zM203.36 115.702h2.95l-15.253-15.02a1.04 1.04 0 0 0-1.466.007c-.402.408-.4 1.06.008 1.462l13.763 13.55zM209.263 115.702h2.954L193.975 97.74a1.045 1.045 0 0 0-1.472.008 1.035 1.035 0 0 0 .012 1.462l16.748 16.492z"/></g><path opacity=".3" d="M221.63 92.584c-.678 1.904-1.095 3.85-1.336 5.764l-3.61-1.328c-.096-1.99.15-4.023.77-6.016l4.175 1.535v-2l-3.522-1.293a17.496 17.496 0 0 1 3.45-5.196l.07.027v-3.25a19.84 19.84 0 0 0-6.06 8.48 19.806 19.806 0 0 0-.35 12.792l6.41 6.31V92.584zm-1.55 14.037a17.668 17.668 0 0 1-3.176-7.523l3.202 1.18c-.16 2.21-.12 4.354-.027 6.344z"/><path fill="#444" d="M221.63 26.74L194.47 0h-19.29l46.45 45.734z"/><path fill="#FFF" d="M221.63 32.506L188.613 0h-7.635l40.65 40.022z"/><ellipse transform="rotate(-47.675 168.84 11.435)" fill="#FCD22E" cx="168.831" cy="11.435" rx=".037" ry=".055"/><path opacity=".3" d="M221.63 111.686l-90.26-88.87-1.535 1.548 91.794 90.378zM221.63 54.29L166.487 0h-3.105l58.246 57.348z"/><g opacity=".1"><path d="M144.085 11.082l7.81 7.688-11.36 11.463-7.807-7.688zM157.555 15.486l7.81 7.69-15.8 15.95-7.81-7.69zM177.384 30.457l7.808 7.69-18.084 18.25-7.806-7.69zM160.252 30.288l7.807 7.685-9.71 9.798-7.808-7.686z"/><g><path d="M182.574 42.854l7.812 7.69-14.432 14.563-7.808-7.692zM197.298 46l7.81 7.69-20.122 20.308-7.81-7.69zM221.63 64.12l-3.86-3.8-23.05 23.262 7.807 7.687 19.102-19.28zM198.274 62.522l7.81 7.69-12.316 12.434-7.81-7.692z"/></g></g><path fill="#9D9D9C" d="M221.63 70.05v-4.02l-10.427-6.94-.888 4.224-27.994-5.49 1.83-7.385 12.296 2.72-.787 4.253 15.498-2.338-13.382-9.09-.674 3.632-12.085-2.672 1.637-6.593-.047-.013.103-.345-12.46-2.446 1.858-8.327-.042-.01.082-.297-35.698-7.896-.607 3.557 31.927 7.072-1.176 5.18-24.932-4.89-.724 2.088 3.214 3.163 21.472 3.92-1.362 6 2.722.418 9.01 1.99-2.962 11.77 3.13.403 29.286 5.744-1.04 4.948 13.22-2.332zM180.87 46.025l-8.115-1.796.548-2.45 8.257 1.51-.69 2.735z"/><g><path fill="#76D9FC" d="M96.512 0H0v115.702h97.333c16.04-14.007 26.168-34.57 26.168-57.497C123.5 34.89 113.027 14.018 96.513 0z"/><path fill-rule="evenodd" clip-rule="evenodd" fill="#00A936" d="M9.216 51.497c.122.112.203.288.312.308h.162c.764.216 1.507-.552.928-.602-.227-.04-.67.02-1.402.294zM26.97 44.826c-1.212.206-1.504 1.016 1.105 2.8.323-.087 2.566-.59 1.25.762 4.052-2.41-.284-3.93-2.355-3.562zM26.97 27.564c4.365-1.768 5.37-13.223.176-12.887-.338 0-.675.17-1.102.326 2.176 4-2.84 9.087.926 12.56zM77.06 37.053c.346-2.39-3.468-4.148-5.186-4.048-1 .068-1.195.78.654 2.5-1.73 4.066 2.88 4.285 4.53 1.548zM38.05 7.232c1.26-.584 1.863-2.664 0-2.664-.338-.09-.588-.178-.926-.16-.335.012-.674.13-.92.16-3.68.732-2.56 6.812 1.847 2.664z"/><path fill-rule="evenodd" clip-rule="evenodd" fill="#00A936" d="M43.206 5.812c-5.324.67-10.697 5.798-5.744 10.87 3.55 4.414-5.12 13.422 3.104 15.73 3.265-7.277 12.194-13.043 9.986-21.92-.922-3.785-4.135-5.087-7.346-4.68z"/><path fill="#00A936" d="M27.923 34.584c-1.62-7.276-10.595-10.793-13.546-2.508-8.123 2.173-4.85-15.395 3.416-13.055 5.993.35 5.177-4.845 1.547-6.515 0-.256-.08-.396-.307-.167-.665-.248-1.362-.504-2.18-.464-4.7-2.59-1.225-7.5.43-11.874H5.523A267.57 267.57 0 0 0 0 5.082V60.38c2.954-3.206 5.375-8.315 10.015-9.32 3.48-3.015 12.903.223 9.494-5.93 3.366-3.19 13.247-3.08 8.413-10.546zM34.02 110.89c-7.884-5.22-13.59-13.208-22.47-17.1C8.62 90.956 4.2 89.985 0 88.95v25.68c.346.357.688.713 1.028 1.072h47.73c-2.71-4.067-10.28-6.36-14.738-4.81zM123.032 50.414c-4.38 2.39-12.172-10.753-4.2-4.505 1.555-.108 2.534-.553 3.272-1.224-.92-4.788-2.17-9.43-3.918-13.856-.783-.926-1.534-1.793-2.176-2.32.055-.954-.043-1.875-.158-2.79-.037-.05.047-.12 0-.17C111.034 15.665 104.146 6.968 95.757 0H71.212c.045.467.32 1.046.54.055 2.6 2.934 8.07 9.018 2.326 8.257-7.612-1.04-5.63 13.912-.146 16.63 5.224 2.8 8.16-2.826 2.793-5.594-.726-7.01 11.722 4.307 6.23 8.058-.22.15-.397.327-.61.483.253-1.005-.362-.06-.34.17-6.247 4.51-2.687 15.136-5.114 22.216-4.323 9.568 10.818 5.35 8.56-2.182-2.77-6.932 11.516-3.773 8.428-8.7 8.66 4.58 7.845-7.72 4.225-11.83 1.688-6.576 6.14.772 4.034 4.354.344 3.39 3.273 4.17 5.626 5.136.106.08.23.092.46.148 2.058.98 3.29 2.232 1.07 6.083-2.546 8.554-11.173 9.024-18.224 7.442-7.136 2.945-8.46 11.586-12.483 17.402-3.99 7.265-7.31 17.97-.143 24.397 6.856 6.564 14.743.867 20.43-3.572 10.902-1.413 11.9 11.384 6.536 17.898-.058.3-.103.523-.147.77 11.357-13.327 18.24-30.56 18.24-49.418 0-2.104-.146-4.175-.316-6.242-.057-.514-.095-1.036-.155-1.55z"/><g opacity=".2" fill="#010000"><path d="M111.59 99.085h-.085c0 .06-.015.116-.024.177.04-.06.082-.117.11-.177zM123.05 59.202v-2.31h-11.678c-.12-8.61-1.432-16.877-3.742-24.578 8.85 1.272 10.008 2.43 10.133 2.586-.025-.02-.07-.11-.07-.247h2.09c-.165-.492-.33-.986-.505-1.48-.923-.85-2.798-1.542-5.89-2.202-1.804-.384-3.987-.76-6.533-1.093-2.95-8.88-7.248-16.955-12.598-23.86 5.368 1.376 9.648 2.985 12.607 4.674a77.158 77.158 0 0 0-3.665-4.276c-3.064-1.204-6.437-2.182-9.598-2.952-.58-.147-1.168-.275-1.755-.414A70.24 70.24 0 0 0 89.062 0H85.81c.756.732 1.503 1.476 2.228 2.247C83.34 1.327 78.21.57 72.768 0H20.455C15.028.564 9.914 1.307 5.226 2.228 5.943 1.465 6.688.728 7.438 0H4.19c-.945.98-1.87 1.984-2.765 3.027L0 3.364V8.49a70.13 70.13 0 0 1 2.644-3.367c6.69-1.474 14.42-2.57 22.778-3.263a57.6 57.6 0 0 0-.906 2.194c-2.68 6.862-4.795 14.78-6.28 23.4A476.75 476.75 0 0 0 0 28.464v2.317c5.428-.41 11.44-.744 17.852-.995-1.33 8.533-2.063 17.678-2.128 27.107H0v2.31h15.724c.05 9.352.753 18.427 2.045 26.907-6.38-.253-12.36-.588-17.77-1v2.32c5.525.42 11.633.76 18.15 1.008 1.48 8.818 3.625 16.915 6.365 23.907.116.285.233.56.34.838-8.686-.73-16.67-1.916-23.51-3.505-.46-.58-.902-1.18-1.346-1.777v3.843c.02.007.044.01.066.02a71.74 71.74 0 0 0 3.45 3.94H6.72a69.32 69.32 0 0 1-2.95-3.12c6.574 1.352 14.06 2.367 22.106 3.01l.05.11h41.41c.017-.04.034-.08.054-.12 8.043-.65 15.543-1.68 22.12-3.042a68.426 68.426 0 0 1-2.988 3.162h3.206a72.117 72.117 0 0 0 3.488-3.99c.107-.03.225-.06.338-.08 3.84-.935 7.99-2.183 11.53-3.76a84.786 84.786 0 0 0 3.84-4.858c-2.65 2.054-7.267 4.037-13.43 5.725 4.866-6.673 8.802-14.347 11.528-22.73 2.488-.344 4.64-.712 6.425-1.086 3.296-.71 5.218-1.45 6.066-2.39.145-.435.297-.86.44-1.305h-2.2c0-.127.04-.228.063-.245-.128.166-1.28 1.312-10.038 2.585 2.245-7.65 3.5-15.847 3.59-24.368h11.682zm-13.972-2.31H77.526c-.062-9.42-.795-18.565-2.125-27.095 7.476.294 14.405.71 20.474 1.223 3.672.316 6.718.644 9.258.96 2.436 7.78 3.824 16.16 3.946 24.913zm-18.46-51.75c5.82 6.92 10.512 15.205 13.713 24.41-2.018-.25-4.21-.468-6.596-.694-6.638-.59-14.34-1.068-22.716-1.393-1.48-8.61-3.6-16.548-6.29-23.41a69.313 69.313 0 0 0-.893-2.194c8.357.703 16.098 1.797 22.784 3.283zm-42.85-4.12c6.004.02 11.868.237 17.48.644a83.68 83.68 0 0 1 1.36 3.247c2.585 6.585 4.628 14.19 6.073 22.463a757.525 757.525 0 0 0-24.91-.44V1.02zm0 28.23c8.773.02 17.326.18 25.31.462 1.357 8.522 2.095 17.708 2.16 27.18H47.77V29.25zm0 29.95h27.47c-.04 9.39-.76 18.503-2.082 26.976-8.006.295-16.586.453-25.387.453V59.203zM45.48 114.07c-6.2-.018-12.268-.246-18.06-.67a61.058 61.058 0 0 1-.77-1.916c-2.64-6.713-4.707-14.494-6.165-22.958 7.885.27 16.318.43 24.995.43v25.114zm0-27.44c-8.797 0-17.375-.157-25.383-.44-1.317-8.475-2.038-17.588-2.086-26.987h27.47V86.63zm0-29.737H18.012c.063-9.47.808-18.664 2.173-27.195a762.778 762.778 0 0 1 25.296-.445v27.64zm0-29.957c-8.646.007-17.047.153-24.907.432 1.44-8.272 3.486-15.87 6.076-22.454a68.76 68.76 0 0 1 1.357-3.26c5.605-.394 11.48-.61 17.473-.632v25.914zm21.128 84.548c-.258.65-.506 1.275-.77 1.896-5.786.436-11.858.662-18.07.69V88.954c8.684-.01 17.118-.16 25-.438-1.454 8.463-3.524 16.244-6.16 22.967zm25.33-1.857c-6.83 1.612-14.834 2.806-23.54 3.548.108-.278.228-.544.332-.83 2.743-6.99 4.894-15.098 6.372-23.918 8.366-.333 16.054-.796 22.69-1.4a261.13 261.13 0 0 0 6.71-.69c-2.956 8.7-7.244 16.577-12.564 23.29zm13.358-25.73c-2.567.327-5.652.652-9.367.977-6.077.504-12.995.92-20.446 1.226 1.3-8.47 1.992-17.557 2.043-26.896h31.557c-.094 8.667-1.426 16.972-3.788 24.692z"/></g></g><g><path opacity=".2" fill="#1E0E00" d="M25.403 15.525c.182-.01.328-.106.51-.14 1.758 8.678 5.206 16.354 9.79 22.32v11.042c0 .94.09 1.854.22 2.762C31.383 53.5 10.79 61.415 0 66.097v49.604h144.6c-.897-2.81-10.31-32.16-12.695-37.128-2.5-5.224-5.394-7.396-9.11-9.086-3.71-1.683-41.974-18.443-41.974-18.443l-.306.023c.09-.762.146-1.535.146-2.32V40.09c5.58-6.234 9.774-14.818 11.776-24.706.176.032.328.13.51.142a4.734 4.734 0 0 0 5.076-4.37L98.742 0h-79.14l.716 11.156c.19 2.607 2.47 4.563 5.085 4.37z"/><path fill="gray" d="M0 115.702h138.657c-2.24-6.39-10.012-29.985-12.146-34.438-2.505-5.22-5.4-7.393-9.116-9.08-3.708-1.687-41.97-18.448-41.97-18.448L53.508 55.42l-21.915-1.685S12.513 60.972 0 66.415V115.7z"/><path fill="#DDD" d="M76.933 115.702L87.68 59.484l-35.095 16.68-34.94-16.68 11.792 56.218z"/><path fill="#DEB472" d="M75.265 51.437c0 11.526-10.068 20.875-22.48 20.875-12.417 0-22.48-9.35-22.48-20.875V27.693c0-11.54 10.063-20.88 22.48-20.88 12.412 0 22.48 9.34 22.48 20.88v23.744z"/><path fill="#0F79D1" d="M43.434 115.702h18.31l-6.413-24.087 12.726-17.858h-31.83l13.363 18.76z"/><path fill="#FFF" d="M75.286 51.18l12.22 7.96L71.47 90.69 52.457 72.814zM30.167 51.18l-12.22 7.96L33.98 90.69l18.203-17.875z"/><path opacity=".1" fill="#1E0E00" d="M30.313 0v43.396C36.48 51.3 44.71 56.144 53.78 56.144c8.147 0 15.62-3.933 21.53-10.46V0H30.312z"/><path fill="#FFD280" d="M14.005 0l.914 13.848A4.743 4.743 0 0 0 20 18.218c.18-.01.33-.108.506-.146 4.13 20.343 17.443 35.26 33.272 35.26 15.818 0 29.128-14.91 33.26-35.26.174.038.326.136.51.146a4.736 4.736 0 0 0 5.076-4.37L93.544 0h-79.54z"/><path opacity=".1" fill="#1E0E00" d="M53.038 0v53.29c.25.007.49.04.742.04 15.818 0 29.128-14.916 33.26-35.26.174.036.326.135.51.145 2.607.19 4.887-1.765 5.076-4.37L93.544 0H53.038z"/><path fill="#5E5E5E" d="M18.392 91.863l-2.024 10.99s1.753 6.686 3.927 12.85h11.262L17.947 59.14l-9.9 4.694 4.5 25.12 5.845 2.91zM85.336 115.702c2.173-6.16 3.923-12.85 3.923-12.85l-2.026-10.99 5.846-2.914 4.497-25.116-9.897-4.694-13.61 56.564h11.266z"/></g><g><path opacity=".2" d="M198.392 68.164l-.158-.088c-3.188-5.05-5.794-8.805-6.232-9.37-.717-.927-1.58-2.562-2.037-3.466l.004-.01s-.067-.118-.17-.318c-.1-.2-.155-.32-.155-.32h-.012c-.46-.903-1.278-2.564-1.607-3.686-.803-2.75-4.988-14.29-10.314-25.073l-.007-.038-.02-.012c-1.6-3.234-3.266-6.277-4.903-8.734-2.315-3.423-2.764-3.917-2.832-3.93-.027-.224-.324-.907-3.23.646-1.982 1.1-1.71 1.47-1.785 3.212-.073 1.738-1.797 3.186-5.273 6.185-.776.675-1.445 1.267-2 1.84a22.19 22.19 0 0 0-1.196-.272c-6.222-1.222-5.59.673-5.55 2.683.052 2.197 2.946 3.512 5.666 4.484.087.237.176.482.28.736 2.04 5.037 6.866 14.333 9.034 17.717 2.165 3.39 3.36 7.074 11.925 5.316 1.21-.25 2.18-.428 2.958-.555.1.197.198.397.294.582.566 1.102 1.13 2.194 1.685 3.274.516 1.023 1.038 2.055 1.565 3.103a79.167 79.167 0 0 1-2.188 2.05c-6.474 5.858-4.19 8.997-2.72 12.735 1.463 3.742 6.154 13.105 9.032 17.714.3.478.584.895.87 1.275-.837 2.796-1.532 5.996.25 7.36 1.605 1.218 2.77 2.842 5.442-2.89.302-.648.567-1.32.81-2.006.6-.11 1.24-.25 1.955-.415 4.223-.97 6.395-1.482 7.853-.737.02.034.047.067.055.077l.063-.013c.05.026.106.044.15.073 1.458.966 1.595 1.404 3.653.453 2.975-1.424 2.594-2.07 2.43-2.218.028-.065-.107-.715-1.515-4.597-2.52-6.79-7.762-15.78-12.027-22.55l-.04-.22z"/><path fill="#937150" d="M208.7 96.346c-.446-.456-15.537-23.69-21.26-34.982-5.725-11.295-10.91-21.788-11.855-24.126-.94-2.336-3.854-3.624-6.422-4.21-2.564-.586-6.65-.99-9.408-1.965-2.762-.976-5.763-2.3-5.815-4.54-.04-2.01-.673-3.905 5.547-2.68 6.223 1.223 12.63 5.717 14.115 6.78 3.02 2.172 8.653 9.26 21.39 32.093 12.737 22.83 17.764 30.126 18.56 31.276.795 1.16-4.85 2.354-4.85 2.354z"/><path fill="#937150" d="M168.27 17.062c.106.633 10.045 26.477 15.824 37.74 5.78 11.263 11.23 21.628 12.566 23.76 1.338 2.144.667 5.245-.372 7.658-1.036 2.413-3.116 5.94-3.952 8.736-.838 2.8-1.53 5.998.252 7.36 1.604 1.218 2.768 2.843 5.443-2.89 2.672-5.733 2.81-13.54 2.82-15.364.02-3.715-2.403-12.426-13.403-36.14-11-23.712-13.948-32.06-14.414-33.38-.468-1.32-4.762 2.52-4.762 2.52z"/><path opacity=".8" fill="#DCEFF4" d="M182.886 31.215s-4.342-8.724-5.286-10.193c-.94-1.47-3.354-6.387-9.095-1.993-5.746 4.393-6.502 5.004-6.502 5.004s-3.63 1.848-1.45 7.082c2.183 5.227 8.093 16.627 9.472 18.572 1.382 1.946 2.662 6.168 9.23 4.744 6.575-1.43 11.11-2.315 9.664-7.967-1.218-4.78-4.092-11.308-5.534-14.264"/><path opacity=".7" fill="#FFF" d="M180.694 53.527l-6.972.493-6.134-35.14 6.543-3.316zM185.698 53.18l-3.16-.504-5.296-29.728 3.484 1.958z"/><path opacity=".8" fill="#DCEFF4" d="M205.488 75.535s4.51 8.64 5.145 10.263c.635 1.627 3.2 6.464-3.74 8.505-6.946 2.034-7.89 2.285-7.89 2.285s-3.643 1.835-6.596-3.008c-2.952-4.84-8.706-16.317-9.47-18.574-.763-2.26-3.433-5.778 1.597-10.227 5.028-4.458 8.418-7.583 12.15-3.09 3.152 3.797 6.755 9.958 8.302 12.864"/><path opacity=".7" fill="#FFF" d="M201.382 95.898l-6.972.487-6.134-35.137 6.542-3.314zM206.385 95.55l-3.156-.505-5.296-29.727 3.483 1.958z"/><path fill="#432918" d="M214.998 94.644c.03-.065-.11-.715-1.515-4.596-4.46-12.014-17.433-30.905-18.458-32.23-.716-.927-1.577-2.562-2.038-3.464l.008-.01s-.066-.12-.172-.32c-.1-.2-.154-.32-.154-.32h-.015c-.46-.903-1.28-2.562-1.608-3.687-.468-1.608-8.135-23.185-15.24-33.856-2.317-3.423-2.767-3.916-2.833-3.93-.03-.222-.326-.905-3.232.648-1.984 1.1-1.708 1.467-1.783 3.212-.075 1.74-1.8 3.184-5.272 6.183-3.474 3.002-4.848 4.442-2.803 9.472 2.04 5.038 6.865 14.334 9.032 17.716 2.166 3.393 3.364 7.076 11.925 5.317 4.197-.864 5.61-.876 5.61-.876s1.693-.636 3.018 1.798c.01.006.013.013.018.02l.008.026c1.188 2.502-.325 3.487-.325 3.487s-.84 1.132-4.012 4.006c-6.474 5.854-4.193 8.993-2.724 12.732 1.47 3.74 6.155 13.104 9.033 17.716 2.878 4.61 4.85 4.354 9.33 3.325 4.48-1.03 6.666-1.568 8.12-.6 1.458.964 1.59 1.402 3.655.453 2.972-1.426 2.59-2.068 2.426-2.22zM178.743 53.07c-5.928 1.287-7.08-2.52-8.323-4.272-1.25-1.757-6.575-12.032-8.54-16.747-1.965-4.72 1.307-6.386 1.307-6.386s.68-.553 5.856-4.512c5.18-3.964 7.352.473 8.2 1.796.854 1.32 4.77 9.19 4.77 9.19l.452.886c1.298 2.67 3.887 8.556 4.987 12.864 1.305 5.096-2.785 5.896-8.71 7.183zm26.71 39.478c-6.26 1.837-7.106 2.06-7.106 2.06s-3.282 1.654-5.945-2.71c-2.668-4.362-7.857-14.71-8.544-16.748-.686-2.036-3.093-5.204 1.44-9.223 4.533-4.015 7.594-6.833 10.954-2.782 2.844 3.428 6.086 8.98 7.488 11.602l.454.886s4.066 7.786 4.633 9.254c.574 1.464 2.888 5.823-3.373 7.66z"/></g></svg>