<svg xmlns="http://www.w3.org/2000/svg" width="55.046" height="55.824" viewBox="0 0 55.046 55.824"><g fill="#76E0E5"><circle cx="30.009" cy="31.863" r="23.96"/><path d="M51.1 40.666l-10.554 10.65 14.5 3.815z"/></g><g fill="#0084FD"><circle cx="25.037" cy="23.961" r="23.96"/><path d="M3.947 32.764L14.5 43.414 0 47.23z"/></g><path opacity=".2" fill="#060000" d="M40.978 6.078L.064 46.99 0 47.23l12.014-3.16a23.836 23.836 0 0 0 13.02 3.853c13.235 0 23.963-10.73 23.963-23.96 0-7.113-3.1-13.496-8.02-17.885z"/><g fill="#FFF"><circle cx="19.397" cy="16.604" r="2.906"/><circle cx="31.149" cy="16.604" r="2.906"/><path d="M9.427 25.19c.407 8.412 7.334 15.11 15.846 15.11 8.51 0 15.438-6.698 15.846-15.11H9.426z"/></g></svg>