<svg xmlns="http://www.w3.org/2000/svg" xmlns:xlink="http://www.w3.org/1999/xlink" width="307.719" height="280.479" viewBox="0 0 307.719 280.479"><ellipse fill="#F6F6F6" cx="182.962" cy="267.415" rx="124.757" ry="13.064"/><path fill="#C69B71" d="M36.15 94.914c-.47.012-8.495-18.65-8.495-18.65s16.67-10.485 21.177-10.53c4.505-.048 7.654 18.552 7.09 19.26-.56.71-13.865 8.908-13.865 8.908l-5.908 1.012z"/><path fill="#2A5CA6" d="M137.796 197.718l-3.05 44.456c5.338 15.414 15.723 22.908 37.705 21.66 21.985-1.25 69.635 16.958 54.157-65.935-40.777 18.132-81.412 3.724-88.81-.182z"/><path fill="#FD7600" d="M207.915 93.59h-52.35c-17.007 0-30.583 9.252-30.583 21.018l6.346 30.656 1.813 16.46c0 1.14 1.752 39.66 2.105 43.112-.226.73-.4 1.422-.5 2.06-5.438 35.324 8.73 23.23 20.13 13.84 11.4-9.39 19.236 5.184 32.194 6.627 12.96 1.444 17.21 2.214 28.46-.675 11.247-2.888 14.59 3.904 13.655-21.346-.007-.22-.037-.435-.06-.65.02-.002.04-.002.06-.005.202-.88 1.97-41.935 1.97-42.96l.907-16.082 6.347-31.036c0-11.768-13.485-21.02-30.495-21.02z"/><path fill="#FD7600" d="M227.958 98.875a2.468 2.468 0 0 0-3.42.712L204.216 130.6a2.467 2.467 0 0 0 .714 3.42l43.932 28.788a2.473 2.473 0 0 0 3.422-.71l20.32-31.01a2.48 2.48 0 0 0-.715-3.427l-43.932-28.785z"/><path fill="#F7CC9A" d="M81.908 163.502a34.73 34.73 0 0 1-9.442-1.293c-19.64-5.52-32.372-27.06-38.922-65.865l20.562-3.47c6.552 38.798 17.83 47.51 23.972 49.25 11.915 3.383 28.11-11.284 32.844-16.687l15.73 13.69c-2.408 2.776-21.903 24.374-44.744 24.374z"/><path fill="#FD7600" d="M135.13 98.875c1.138-.75 2.67-.43 3.417.712L158.87 130.6c.75 1.14.43 2.672-.713 3.42l-43.933 28.788a2.47 2.47 0 0 1-3.42-.71l-20.322-31.01a2.476 2.476 0 0 1 .715-3.427l43.932-28.785z"/><path fill="#72AF2D" d="M142.786 253.664c1.39 7.027-3.18 13.858-10.21 15.25l-28.79 5.697c-7.028 1.393-13.858-3.18-15.25-10.21-1.392-7.03 4.993-12.047 12.026-13.437l26.973-4.793c7.03-1.39 13.86.46 15.25 7.494z"/><path fill="#D9D9D9" d="M125.463 248.595c6.062-.473 10.697-.852 14.17-1.15-.24-.265-.49-.52-.753-.762-4.627.167-9.157.328-9.12.185.078-.31-1.233-2.367-2.836-2.39-7.425-.104-26.36 6.484-26.36 6.484-7.034 1.39-13.418 6.406-12.026 13.436a12.92 12.92 0 0 0 2.27 5.146c-2.13-3.115-9.43-17.495 34.655-20.95z"/><path fill="#72AF2D" d="M220.77 253.763c-1.39 7.03 3.18 13.86 10.213 15.252l28.786 5.698c7.03 1.39 13.86-3.182 15.25-10.213 1.392-7.03-4.994-12.046-12.026-13.437l-26.972-4.793c-7.03-1.39-13.858.46-15.25 7.493z"/><path opacity=".1" fill="#010100" d="M128.792 220.53s7.05-13.543 6.548-16.353c-.594-3.323-2.523-45.397-3.574-52.863-.396-2.808 10.265 54.524 11.27 64.725 1.006 10.2-9.97 5.212-9.97 5.212"/><path fill="#D9D9D9" d="M238.094 248.697c-6.062-.474-10.695-.852-14.17-1.148.242-.267.493-.523.755-.766 4.627.166 9.156.33 9.12.186-.078-.31 1.23-2.368 2.835-2.39 7.427-.104 26.36 6.484 26.36 6.484 7.032 1.39 13.418 6.406 12.027 13.437a12.896 12.896 0 0 1-2.272 5.145c2.133-3.113 9.433-17.494-34.656-20.948z"/><path fill="#68A030" d="M238.094 251.37s.477 1.302 3.207 1.874c2.73.57 6.33 1.738 7.46 1.607 1.13-.13 6.17.33 7.253 1.98 1.082 1.654.803 13.51-3.57 14.538-4.372 1.028-20.595-2.773-22.41-3.217-1.816-.446 8.06-16.78 8.06-16.78z"/><path opacity=".1" fill="#010100" d="M229.81 151.215s-3.564 24.704-3.43 30.598c.134 5.894-.902 22.302-2.457 26.152-1.553 3.852-1.494 4.762 0 8.075 1.495 3.317 2.862-3.445 1.498 1.113-1.364 4.557 3.433-4.28 3.433-4.28s.692-21.06 1.397-29.696c.825-10.115 1.477-31.595 1.477-31.595l-1.917-.367z"/><path opacity=".05" fill="#010100" d="M258.733 257.323s-1.393 12.977-3.193 14.585c9.54 1.584 14.65-1.29 15.72-6.124 1.074-4.834-7.844-8.914-12.527-8.46z"/><path fill="#EDEDED" d="M251.702 217.694c0 1.732-1.4 3.136-3.135 3.136h-134.19a3.135 3.135 0 0 1-3.135-3.136V108.478a3.137 3.137 0 0 1 3.136-3.14h134.19a3.136 3.136 0 0 1 3.134 3.14v109.216z"/><path fill="#444" d="M251.702 117.89v-9.412c0-1.735-1.4-3.14-3.135-3.14h-134.19a3.137 3.137 0 0 0-3.135 3.14v9.41h140.46z"/><path fill="#2CB740" d="M120.58 111.78a2.482 2.482 0 0 1-2.482 2.482 2.482 2.482 0 0 1 0-4.963 2.485 2.485 0 0 1 2.482 2.48z"/><path fill="#F16442" d="M128.148 111.78a2.484 2.484 0 0 1-4.967 0c0-1.367 1.11-2.48 2.48-2.48a2.487 2.487 0 0 1 2.488 2.48z"/><path fill="#FFF" d="M246.52 111.63a2.482 2.482 0 0 1-2.48 2.484H132.19a2.486 2.486 0 0 1-2.48-2.485 2.487 2.487 0 0 1 2.48-2.485h111.85c1.37 0 2.48 1.114 2.48 2.484z"/><path opacity=".2" fill="#444" d="M137.615 124.247c0 .887.723 1.61 1.612 1.61h107.018a1.61 1.61 0 0 0 1.608-1.61c0-.89-.718-1.604-1.608-1.604H139.227c-.89 0-1.612.715-1.612 1.604zM134.107 124.247a2.342 2.342 0 0 1-2.34 2.343H117.44a2.343 2.343 0 0 1-2.34-2.343 2.337 2.337 0 0 1 2.34-2.336h14.327a2.337 2.337 0 0 1 2.34 2.337z"/><path fill="#4D9FF7" d="M111.242 130.076h140.46V168.2h-140.46z"/><path opacity=".2" fill="#444" d="M115.508 199.574h41.23v17.016h-41.23zM161.46 199.574h41.23v17.016h-41.23zM206.627 199.574h41.225v17.016h-41.225z"/><path fill="#444" d="M203.095 175.808c0 .773-.664 1.4-1.48 1.4H116.58c-.816 0-1.48-.627-1.48-1.4 0-.774.664-1.404 1.48-1.404h85.037c.815 0 1.478.63 1.478 1.404zM203.095 182.076c0 .775-.664 1.404-1.48 1.404H116.58c-.816 0-1.48-.63-1.48-1.404 0-.776.664-1.4 1.48-1.4h85.037c.815-.002 1.478.623 1.478 1.4zM203.095 188.26c0 .777-.664 1.4-1.48 1.4H116.58c-.816 0-1.48-.623-1.48-1.4 0-.77.664-1.396 1.48-1.396h85.037c.815 0 1.478.624 1.478 1.397zM203.095 194.437c0 .778-.664 1.404-1.48 1.404H116.58c-.816 0-1.48-.625-1.48-1.403 0-.773.664-1.4 1.48-1.4h85.037c.815 0 1.478.627 1.478 1.4z"/><path fill="#FFF" d="M154.452 139.913c0 .775-.662 1.4-1.478 1.4H122.06c-.817 0-1.48-.625-1.48-1.4 0-.775.664-1.41 1.48-1.41h30.914c.816 0 1.478.634 1.478 1.41zM177.722 146.177c0 .775-.66 1.405-1.475 1.405H122.06c-.817 0-1.48-.63-1.48-1.405 0-.774.664-1.402 1.48-1.402h54.187c.815 0 1.475.628 1.475 1.402zM177.722 152.36c0 .778-.66 1.4-1.475 1.4H122.06c-.817 0-1.48-.622-1.48-1.4 0-.772.664-1.397 1.48-1.397h54.187c.815 0 1.475.624 1.475 1.398zM177.722 158.536c0 .78-.66 1.403-1.475 1.403H122.06c-.817 0-1.48-.624-1.48-1.404 0-.768.664-1.395 1.48-1.395h54.187c.815 0 1.475.628 1.475 1.396z"/><path fill="#444" d="M247.853 175.808c0 .773-.674 1.4-1.496 1.4h-37.61c-.825 0-1.5-.627-1.5-1.4 0-.774.675-1.404 1.5-1.404h37.61c.822 0 1.496.63 1.496 1.404zM247.853 182.076c0 .775-.674 1.404-1.496 1.404h-37.61c-.825 0-1.5-.63-1.5-1.404 0-.776.675-1.4 1.5-1.4h37.61c.822-.002 1.496.623 1.496 1.4zM247.853 188.26c0 .777-.674 1.4-1.496 1.4h-37.61c-.825 0-1.5-.623-1.5-1.4 0-.77.675-1.396 1.5-1.396h37.61c.822 0 1.496.624 1.496 1.397zM247.853 194.437c0 .778-.674 1.404-1.496 1.404h-37.61c-.825 0-1.5-.625-1.5-1.403 0-.773.675-1.4 1.5-1.4h37.61c.822 0 1.496.627 1.496 1.4z"/><path fill="#FFF" d="M249.89 168.175a21.67 21.67 0 0 0 1.994-1.205v-3.248c-1.048.865-2.2 1.63-3.448 2.278l-4.085-9.016 7.534-3.416v-2.296l-8.4 3.8-2.727-6.014 10.61-4.807c.184.425.356.85.518 1.28v-4.69a35.828 35.828 0 0 0-3.413-5.02l3.413-1.543v-4.174h-5.657c1.6.59 3.124 1.395 4.526 2.382l-3.688 1.674a50.776 50.776 0 0 0-4.066-4.057h-3.144c1.646 1.424 3.472 3.062 5.24 4.95l-8.866 4.015-4.012-8.858c.1-.035.2-.073.297-.106h-5.65c-8.824 5.968-12.33 17.6-7.785 27.634a22.215 22.215 0 0 0 9.767 10.438h10.52c-1.97-1.708-4.187-3.725-6.25-6.1l9.325-4.224 4.084 9.016a19.52 19.52 0 0 1-5.912 1.308h9.276zm-3.34-31.484c1.44 1.704 2.785 3.587 3.898 5.682l-10.552 4.776-2.803-6.173 9.456-4.284zm-8.567 11.327l-10.555 4.785c-.84-2.214-1.368-4.47-1.7-6.678l9.458-4.284 2.797 6.177zm-12.77-13.147a19.656 19.656 0 0 1 5.094-3.793l4.016 8.857-8.868 4.015c-.33-3.345-.275-6.484-.243-9.08zm-2.098 2.58c-.025 2.296.053 4.805.37 7.395l-3.687 1.672a19.77 19.77 0 0 1 3.317-9.066zm-3.42 11.41l4.11-1.864c.387 2.197.96 4.428 1.807 6.625l-4.566 2.072a19.538 19.538 0 0 1-1.352-6.833zm2.21 8.743l4.526-2.05c.966 2.06 2.17 3.943 3.493 5.666l-3.908 1.773a19.67 19.67 0 0 1-4.11-5.39zm14.347 10.36a19.743 19.743 0 0 1-8.425-3.494l3.466-1.568c1.607 1.88 3.32 3.552 4.96 5.06zm-4.512-7.568c-1.325-1.708-2.53-3.597-3.5-5.665l10.61-4.804 2.724 6.016-9.834 4.453z"/><ellipse fill="#FCD22E" cx="135.733" cy="129.574" rx=".052" ry=".035"/><path fill="#FFF" d="M247.893 271.82h-.037c-.637-.017-.733-.018-.783-8.124-.017-2.718-.038-6.22-.18-7.898-.363.96-.86 2.562-1.316 4.032-1.85 5.958-3.27 10.22-4.722 10.83a.875.875 0 0 1-.843-.07c-1.167-.762-1.316-4.806-1.422-11.375-.048-3.085-.1-6.28-.428-7.032l.83-.36c.38.873.44 3.372.504 7.378.06 3.57.166 10.21 1.017 10.632 1.164-.5 3.065-6.616 4.2-10.27 1.48-4.766 1.737-5.374 2.3-5.422.234-.018.426.1.536.316.354.694.4 3.95.432 9.233.012 2.3.03 5.016.12 6.457.45-.915 1.11-2.4 1.717-3.762 3.033-6.806 4.46-9.67 5.463-9.81a.655.655 0 0 1 .61.246c1.192 1.45-2.008 11.607-3.018 14.688l-.862-.282c1.866-5.69 3.553-12.234 3.257-13.63-.957.935-3.317 6.23-4.622 9.16-2.135 4.788-2.308 5.064-2.755 5.064z"/><path fill="#204C9A" d="M231.587 242.018c13.64 3.847 6.495-.303 3.482 10.385l-3.955 5.665c-3.014 10.686 7.248 14.98-4.25 10.02-33.43-5.3-114.728-25.923-114.728-25.923-13.64-3.848-22.253-15.627-19.24-26.32 3.015-10.685 15.228-13.998 28.734-9.7 46.363 14.634 109.957 35.873 109.957 35.873z"/><path opacity=".1" fill="#010100" d="M130.968 242.068c-13.677 3.835-6.37-.432-4.12 10.925l3.51 6.062c2.25 11.358-8.13 15.722 3.51 10.673 33.25-5.028 114.62-25.443 114.62-25.443 13.677-3.834 22.938-16.15 20.687-27.51-2.25-11.357-14.042-15.074-27.62-10.757-46.595 14.678-110.587 36.05-110.587 36.05z"/><g opacity=".3" fill="#010100"><path d="M94.963 211.367c-.02.032-.042.07-.065.102.047-.06.065-.087.065-.103zM219.716 261.356c-.192-5.648-3.78-7.708-8.694-2.943-4.917 4.768-2.627.836-5.44-1.125-2.816-1.962-18.128-7.918-23.175-11.55-5.045-3.63-28 3.567-37.83 0-9.83-3.565-39.75-9.522-41.564-17.91-1.75-8.093-9.444-13.667-8.277-16.1a15.436 15.436 0 0 0-1.837 4.117c-3.015 10.69 5.598 22.47 19.238 26.32 0 0 81.296 20.623 114.73 25.922l2.12.91c.97-.6 1.832-1.137 2.558-1.586-.128-.334-.254-.7-.375-1.092-4.27.153-11.314-.906-11.454-4.962z"/></g><path fill="#2A5CA6" d="M128.792 242.66c-13.64 3.845-3.503-.945-.49 9.744l3.952 5.665c3.016 10.685-7.245 14.978 4.25 10.02 33.434-5.3 114.73-25.924 114.73-25.924 13.64-3.848 22.253-15.627 19.237-26.32-3.01-10.685-15.226-13.998-28.73-9.7-53.04 21.683-112.948 36.513-112.948 36.513z"/><path opacity=".3" fill="#010100" d="M136.503 268.088c33.434-5.3 114.73-25.923 114.73-25.923 13.64-3.848 22.253-15.627 19.237-26.32-.255-.9-.58-1.744-.96-2.542.337 6.32-7.377 12.943-19.942 22.687-12.57 9.746-54.074 16.547-69.714 19.19-15.64 2.643-20.4 2.118-22.942 5.223-2.544 3.104-5.844 1.653-10.84-1.988-4.192-3.05-10.663 1.415-13.27 2.862.165 2.682-.457 4.806-1.036 6.3 0 .763.004 1.584.008 2.45.81-.243 2.267-.88 4.73-1.94z"/><path opacity=".1" fill="#010100" d="M127.277 250.36s6.058-3.934 9.61 1.905c3.553 5.838 10.34 12.016 3.74 13.562-6.603 1.546-12.948 4.023-11.51-1.34 1.44-5.362-1.84-14.126-1.84-14.126z"/><path fill="#68A030" d="M125.463 251.27s6.06-3.935 9.61 1.903c3.553 5.837 10.343 12.015 3.74 13.562-6.6 1.545-12.946 4.023-11.507-1.342 1.435-5.36-1.843-14.123-1.843-14.123z"/><path fill="#68A030" d="M125.463 251.27s-.475 1.3-3.206 1.874c-2.73.57-6.328 1.735-7.457 1.604-1.133-.13-6.17.33-7.254 1.982-1.084 1.652-.8 13.507 3.57 14.535 4.37 1.03 20.595-2.77 22.41-3.218 1.816-.446-8.063-16.777-8.063-16.777z"/><path opacity=".05" fill="#010100" d="M104.825 257.22s1.39 12.978 3.192 14.588c-9.54 1.582-14.647-1.288-15.72-6.125-1.072-4.836 7.846-8.916 12.528-8.462z"/><path fill="#FFF" d="M115.667 271.72c-.447 0-.62-.277-2.755-5.065-1.305-2.93-3.666-8.227-4.62-9.162-.298 1.393 1.39 7.942 3.256 13.63l-.864.283c-1.01-3.078-4.21-13.236-3.017-14.685a.66.66 0 0 1 .61-.243c1 .133 2.428 3 5.463 9.808.606 1.36 1.267 2.845 1.72 3.763.087-1.444.104-4.16.12-6.46.03-5.284.076-8.54.432-9.236a.546.546 0 0 1 .535-.316c.56.048.82.655 2.3 5.424 1.134 3.652 3.034 9.77 4.208 10.26.84-.414.948-7.053 1.006-10.62.066-4.008.125-6.51.507-7.383l.83.363c-.327.752-.38 3.944-.428 7.033-.107 6.567-.255 10.61-1.422 11.373a.867.867 0 0 1-.843.068c-1.452-.607-2.873-4.87-4.724-10.827-.456-1.47-.953-3.074-1.313-4.034-.143 1.68-.163 5.18-.18 7.898-.05 8.108-.148 8.11-.785 8.126-.013.003-.025.003-.035.003z"/><path fill="#FFF" d="M115.667 271.72c-.447 0-.62-.277-2.755-5.065-.208-.466-.442-.993-.694-1.553l-.652 6.212a.45.45 0 0 1-.402.402.456.456 0 0 1-.48-.31c-1.008-3.078-4.21-13.236-3.016-14.685a.66.66 0 0 1 .61-.243c.737.097 1.708 1.685 3.383 5.238l.572-5.45a.454.454 0 0 1 .862-.144l2.5 5.336c.036-4.03.11-6.51.418-7.104a.562.562 0 0 1 .535-.316c.56.048.82.655 2.3 5.424.224.722.48 1.547.753 2.405l1.097-7.134a.456.456 0 0 1 .378-.376c.2-.034.386.066.475.24a70.4 70.4 0 0 0 2.512 4.437c.064-3.966.125-6.443.504-7.312l.83.363c-.327.753-.38 3.945-.428 7.034l-.023 1.314c1.768 2.72 3.79 5.326 5.277 5.887l-.32.847c-1.52-.573-3.36-2.768-4.993-5.14-.12 4.848-.38 7.822-1.364 8.464a.867.867 0 0 1-.843.068c-.9-.375-1.787-2.155-2.772-4.87l-.603 3.925a.45.45 0 0 1-.383.38.458.458 0 0 1-.477-.26l-1.997-4.263c-.056 6.232-.186 6.234-.77 6.25-.01.002-.023.002-.033.002zm-3.262-8.398c.408.89.852 1.877 1.335 2.965.606 1.36 1.267 2.845 1.72 3.763.087-1.444.104-4.16.12-6.46v-.025l-2.615-5.584-.56 5.342zm7.82.448c.976 2.883 2.058 5.628 2.83 5.952.728-.36.906-5.366.98-9.022a72.73 72.73 0 0 1-2.646-4.48l-1.164 7.55zm-11.933-6.276c-.264 1.227 1.014 6.456 2.6 11.57l.586-5.595c-1.192-2.594-2.528-5.33-3.186-5.976zm8.194 5.87l2.17 4.638.64-4.148a197.56 197.56 0 0 1-1.316-4.124c-.457-1.47-.954-3.074-1.314-4.034-.14 1.634-.163 4.986-.18 7.668z"/><ellipse transform="rotate(-22.84 131.754 259.32)" opacity=".1" fill="#010100" cx="131.769" cy="259.322" rx="2.659" ry="4.352"/><path opacity=".1" fill="#010100" d="M235.84 251.27s-6.056-3.935-9.61 1.903c-3.552 5.837-10.34 12.015-3.738 13.562 6.602 1.545 12.946 4.023 11.51-1.342-1.44-5.36 1.84-14.123 1.84-14.123z"/><path fill="#68A030" d="M237.655 252.175s-6.058-3.935-9.612 1.904c-3.55 5.836-10.34 12.013-3.738 13.56 6.602 1.547 12.947 4.023 11.508-1.337-1.437-5.364 1.842-14.128 1.842-14.128z"/><ellipse transform="rotate(-157.16 231.346 260.234)" opacity=".1" fill="#010100" cx="231.35" cy="260.228" rx="2.659" ry="4.351"/><path fill="#FFF" d="M247.893 271.82h-.037c-.583-.015-.713-.018-.768-6.25l-1.998 4.267a.457.457 0 0 1-.477.258.457.457 0 0 1-.382-.38l-.603-3.93c-.984 2.72-1.874 4.497-2.772 4.876a.875.875 0 0 1-.843-.07c-.984-.643-1.243-3.615-1.365-8.465-1.63 2.374-3.47 4.568-4.99 5.144l-.32-.85c1.488-.56 3.51-3.17 5.276-5.887l-.024-1.318c-.05-3.085-.1-6.28-.43-7.032l.832-.36c.378.868.44 3.344.503 7.312a68.553 68.553 0 0 0 2.51-4.438.45.45 0 0 1 .478-.24c.194.03.348.183.378.377l1.097 7.133c.273-.854.53-1.68.753-2.405 1.48-4.766 1.738-5.374 2.302-5.422.233-.018.425.1.535.316.305.594.38 3.074.417 7.103l2.5-5.335a.45.45 0 0 1 .86.145l.573 5.45c1.675-3.556 2.647-5.142 3.383-5.242a.655.655 0 0 1 .61.245c1.192 1.45-2.008 11.606-3.018 14.687a.452.452 0 0 1-.882-.095l-.65-6.21c-.252.56-.487 1.084-.695 1.552-2.132 4.787-2.305 5.063-2.752 5.063zm.087-8.156v.026c.012 2.3.03 5.017.12 6.458.45-.915 1.11-2.4 1.717-3.762.487-1.086.93-2.072 1.336-2.963l-.56-5.34-2.613 5.58zm-8.456-2.862c.073 3.656.253 8.665.988 9.03.766-.33 1.846-3.077 2.82-5.96l-1.16-7.55a73.963 73.963 0 0 1-2.648 4.48zm12.557 2.77l.588 5.598c1.584-5.117 2.86-10.345 2.6-11.574-.662.648-1.995 3.382-3.187 5.976zm-7.817.384l.638 4.148 2.173-4.638c-.018-2.682-.04-6.035-.18-7.668-.363.96-.86 2.562-1.316 4.032a206.51 206.51 0 0 1-1.314 4.126z"/><path opacity=".2" fill="#010000" d="M257.863 133.23l-4.65 13.372c4.42 5.52 10.47 23.807 5.302 35.035-2.63 5.715-12.616 15.302-49.75 15.887-.184-.12-.368-.24-.558-.35-.072-.062-.13-.135-.208-.196l-11.69-9.116c-1.962-1.527-4.652-1.29-6.01.534-1.354 1.828-.863 4.544 1.098 6.074l1.93 1.504c-.117-.014-.23-.033-.348-.032l-16.653.332c-1.66.026-2.997 1.427-2.99 3.134.007 1.705 1.362 3.07 3.023 3.042l13.374-.267c-.004.183-.01.363-.012.553l-18.728.41c-1.663.022-3 1.425-2.99 3.13.008 1.705 1.364 3.07 3.024 3.045l18.835-.41.002.062-.002.49-16.162.345c-1.66.02-3 1.424-2.99 3.13.008 1.707 1.36 3.067 3.022 3.046l16.068-.344c.003.136.005.277.013.414l-10.495.212c-1.566.022-2.824 1.342-2.817 2.945.013 1.608 1.286 2.892 2.848 2.87l14.207-.287c.406.063.837.107 1.333.1l8.253-.123c2.908-.04 5.544-1.347 7.537-3.442 5.477-.127 10.612-.45 15.428-.958l1.807-.04-.002-.16c26.04-3.064 42.142-11.917 48.97-26.84a35.642 35.642 0 0 0 2.766-9.115c3.694-22.54-19.508-45.172-21.783-47.986z"/><path fill="#F7CC9A" d="M264.434 131.235l-8.932 14.724c1.83 2.282-3.004 6.52-.174 11.5 4.01 7.056 7.155 15.6 4.126 22.184-2.63 5.715-12.617 15.3-49.75 15.886-.185-.122-.37-.24-.56-.35-.07-.062-.13-.134-.205-.193l-11.69-9.12c-1.96-1.528-4.652-1.286-6.01.537-1.354 1.826-.863 4.544 1.098 6.073l1.93 1.505c-.116-.012-.23-.033-.348-.03l-16.652.328c-1.66.026-2.998 1.426-2.99 3.134.007 1.706 1.362 3.07 3.023 3.044l13.375-.27c-.004.185-.01.365-.012.555l-18.728.408c-1.663.025-3 1.43-2.99 3.13.007 1.71 1.516 3.072 3.176 3.048l18.99-.41v.063c0 .166-.154.326-.155.49l-16.237.343c-1.66.02-3.04 1.426-3.028 3.13.008 1.707 1.342 3.07 3.003 3.046l16.058-.345c.005.14.004.28.01.416l-10.498.213c-1.566.023-2.825 1.344-2.82 2.948.013 1.605 1.286 2.892 2.848 2.87l14.207-.29a7.67 7.67 0 0 0 1.33.1l8.254-.123c2.907-.04 5.543-1.345 7.537-3.44 5.48-.127 10.617-.45 15.434-.96l1.802-.038-.002-.16c26.04-3.066 42.142-11.92 48.97-26.84a35.696 35.696 0 0 0 2.766-9.115c3.692-22.542-13.878-45.176-16.152-47.99zM29.244 92.6c1.1 6.33 7.73 10.466 14.804 9.23 7.074-1.23 11.914-7.358 10.81-13.692l-1.454-8.357c-1.1-6.33-6.605-4.016-13.678-2.78-7.077 1.226-13.04.907-11.938 7.242l1.456 8.357z"/><path fill="#FD7600" d="M269.51 132.23l.947 2.137-15.985 24.394-1.94-4.368.082-21.493s6.41-8.964 7.59-8.795c1.18.17 9.307 8.125 9.307 8.125z"/><path fill="#27B3D8" d="M12.177 93.71l7.74 10.728 52.42-37.815L64.6 55.89z"/><path opacity=".2" d="M14.428 96.965l-2.3-3.183L64.58 55.877l2.302 3.182z"/><path opacity=".2" fill="#FFF" d="M19.783 104.518l-2.308-3.203 52.558-37.89 2.31 3.203z"/><path fill="#FFE0A9" d="M83.028 50.768l-18.43 5.122.002.005a1.977 1.977 0 1 0 2.315 3.207 2.703 2.703 0 0 0-.61 3.772 2.702 2.702 0 0 0 3.772.608l.003.004a1.935 1.935 0 0 0-.437 2.696 1.937 1.937 0 0 0 2.697.44l.016.02 10.672-15.874z"/><path opacity=".05" fill="#3C3C3B" d="M83.028 50.768l-18.43 5.122.002.005a1.977 1.977 0 1 0 2.315 3.207c-1.21.873 16.113-8.334 16.113-8.334z"/><path fill="#3C3C3B" d="M78.986 56.775l4.042-6.007-6.976 1.94z"/><path fill="#FF839E" d="M.56 105.68a2.975 2.975 0 0 1 .674-4.15L9.6 95.493a2.974 2.974 0 0 1 4.15.673l4.312 5.977c.96 1.333.66 3.19-.67 4.15l-8.366 6.038a2.976 2.976 0 0 1-4.152-.673L.56 105.68z"/><path opacity=".1" fill="#3C3C3B" d="M.38 105.332l8.28-5.975-1.523-2.107-5.9 4.257a2.96 2.96 0 0 0-.857 3.825z"/><path fill="#DADADA" d="M6.09 98.255a.745.745 0 0 1 .17-1.04l6.403-4.62a.745.745 0 0 1 1.038.167l7.612 10.55a.746.746 0 0 1-.168 1.04l-6.405 4.62a.743.743 0 0 1-1.04-.17L6.09 98.256z"/><g opacity=".3"><path fill="#3C3C3B" d="M7.105 98.066a.485.485 0 0 1 .11-.68.486.486 0 0 1 .68.11l7.097 9.832a.488.488 0 0 1-.11.68.484.484 0 0 1-.68-.107l-7.097-9.834zM8.43 97.11a.485.485 0 0 1 .11-.68.486.486 0 0 1 .682.11l7.095 9.832a.488.488 0 0 1-.792.573L8.43 97.11zM9.758 96.152a.487.487 0 0 1 .79-.57l7.096 9.83a.492.492 0 0 1-.11.684.487.487 0 0 1-.682-.112l-7.094-9.833zM11.083 95.197a.488.488 0 0 1 .11-.682.487.487 0 0 1 .682.11l7.095 9.835a.488.488 0 1 1-.792.57l-7.095-9.833zM12.41 94.238a.486.486 0 1 1 .792-.568l7.096 9.833a.486.486 0 0 1-.79.57l-7.097-9.835z"/></g><path opacity=".3" fill="#FFF" d="M5.155 108.977a.743.743 0 0 1 1.037.166c.538.75 1.586.917 2.333.38a.743.743 0 0 1 .87 1.204 3.16 3.16 0 0 1-4.407-.712.74.74 0 0 1 .167-1.038z"/><path opacity=".3" fill="#3C3C3B" d="M21.336 103.354l-7.758-10.75 1.066-.77 7.758 10.75z"/><g><path fill="#F7CC9A" d="M54.29 76.14c1.192-2.244 3.794-3.193 5.815-2.122 2.02 1.076 2.69 3.764 1.5 6.01l-7.107 13.378c-1.19 2.245-3.795 3.19-5.816 2.12-2.02-1.076-2.69-3.762-1.498-6.003L54.29 76.14z"/><g opacity=".15"><defs><path id="a" d="M38.37 89.81l11.27-8.85 7.6 9.68-11.27 8.85z"/></defs><clipPath id="b"><use xlink:href="#a" overflow="visible"/></clipPath><path clip-path="url(#b)" fill="#13120F" d="M53.03 92.612c-1.724 3.767-5.458 5.746-8.342 4.425-2.887-1.32-3.83-5.44-2.106-9.206 1.72-3.764 5.458-5.743 8.34-4.422 2.887 1.32 3.83 5.44 2.107 9.204"/></g><path fill="#F7CC9A" d="M54.055 92.654c-1.722 3.765-5.458 5.748-8.342 4.423-2.884-1.317-3.826-5.437-2.105-9.203 1.72-3.764 5.46-5.744 8.343-4.427 2.886 1.323 3.83 5.446 2.105 9.207"/></g><path fill="#F7CC9A" d="M44.782 67.322a3.087 3.087 0 0 1 2.512-3.574 3.093 3.093 0 0 1 3.578 2.514l2.22 11.728a3.09 3.09 0 1 1-6.09 1.058l-2.22-11.726zM38.313 69.355a3.09 3.09 0 0 1 2.517-3.576 3.086 3.086 0 0 1 3.572 2.512l2.064 10.853a3.09 3.09 0 1 1-6.092 1.06l-2.062-10.85zM32.276 72.657a3.09 3.09 0 0 1 2.518-3.573 3.09 3.09 0 0 1 3.574 2.516l1.656 9.774a3.096 3.096 0 0 1-2.513 3.576 3.093 3.093 0 0 1-3.576-2.516l-1.658-9.777zM26.572 76.987a2.908 2.908 0 0 1 5.732-1l1.437 7.772a2.912 2.912 0 0 1-2.366 3.365 2.912 2.912 0 0 1-3.366-2.37l-1.436-7.768z"/><g><path fill="#FCD22E" d="M94.5 19.333A35.086 35.086 0 0 0 112.8 38.8a35.072 35.072 0 0 0-18.3 19.468A35.064 35.064 0 0 0 76.197 38.8 35.078 35.078 0 0 0 94.5 19.333z"/><path fill="#FD7600" d="M94.5 28.994a17.69 17.69 0 0 0 9.228 9.807 17.607 17.607 0 0 0-9.227 9.805 17.62 17.62 0 0 0-9.215-9.804 17.71 17.71 0 0 0 9.216-9.806z"/><path fill="#FCD22E" d="M79.945 5.524a17.16 17.16 0 0 0 8.944 9.52 17.132 17.132 0 0 0-8.945 9.514 17.112 17.112 0 0 0-8.942-9.514 17.138 17.138 0 0 0 8.942-9.52z"/><path fill="#FD7600" d="M79.945 10.245a8.665 8.665 0 0 0 4.51 4.8 8.6 8.6 0 0 0-4.51 4.79 8.58 8.58 0 0 0-4.502-4.79 8.643 8.643 0 0 0 4.502-4.8z"/><g><path fill="#FCD22E" d="M111.048 0a24.754 24.754 0 0 0 12.91 13.734 24.745 24.745 0 0 0-12.91 13.736 24.726 24.726 0 0 0-12.914-13.736A24.738 24.738 0 0 0 111.048 0z"/><path fill="#FD7600" d="M111.048 6.818a12.488 12.488 0 0 0 6.51 6.917 12.426 12.426 0 0 0-6.51 6.916 12.422 12.422 0 0 0-6.503-6.915 12.487 12.487 0 0 0 6.503-6.917z"/></g></g><path fill="#27C15A" d="M196.09 81.387c-6.478-3.664-8.756-11.895-5.087-18.37 3.67-6.48 11.895-8.758 18.373-5.09 6.48 3.668 8.755 11.897 5.088 18.375-3.667 6.48-11.895 8.757-18.374 5.085z"/><path opacity=".3" fill="#5B5B5B" d="M198.924 82.588c-5.73-3.913-7.6-11.624-4.12-17.764 3.152-5.567 9.66-8.03 15.54-6.29-.31-.215-.63-.418-.968-.606-6.478-3.67-14.703-1.392-18.373 5.09-3.67 6.474-1.39 14.705 5.087 18.37.914.523 1.867.914 2.834 1.2z"/><path fill="#5B5B5B" d="M200.262 74.025a5.015 5.015 0 0 1-1.896-6.836 5.015 5.015 0 0 1 6.84-1.897 5.014 5.014 0 0 1 1.893 6.84 5.017 5.017 0 0 1-6.838 1.892z"/><path fill="#ECECEC" d="M162.367 64.852a2.606 2.606 0 0 0 2.84 2.357l.306-.027a2.608 2.608 0 0 0 2.354-2.844l-1.055-11.313a2.614 2.614 0 0 0-2.84-2.357l-.308.027a2.62 2.62 0 0 0-2.356 2.845l1.06 11.31z"/><path fill="#FFD59B" d="M159.9 65.694c.238 1.426 1.696 2.353 3.26 2.072l.332-.06c1.563-.278 2.637-1.664 2.404-3.082l-1.862-11.214c-.233-1.42-1.69-2.346-3.255-2.07l-.338.062c-1.562.277-2.636 1.657-2.4 3.083l1.857 11.21zM215.365 65.047c-.104 1.44 1.1 2.682 2.688 2.77l.336.02c1.584.094 2.95-.994 3.053-2.435l.802-11.34c.102-1.435-1.102-2.68-2.685-2.772l-.34-.02c-1.58-.093-2.95.998-3.05 2.44l-.805 11.337zM148.28 65.047c.102 1.44-1.103 2.682-2.684 2.77l-.338.02c-1.583.094-2.954-.994-3.055-2.435l-.803-11.34c-.1-1.435 1.102-2.68 2.69-2.772l.336-.02c1.584-.093 2.948.998 3.05 2.44l.805 11.337z"/><path fill="#F7CC9A" d="M145.057 54.435c0 24.985 21.985 45.236 36.993 45.236 15.104 0 36.99-20.25 36.99-45.235 0-24.986-16.558-45.24-36.99-45.24s-36.993 20.253-36.993 45.24z"/><path fill="#FFF" d="M193.602 53.013c0 1.862 3.042 3.37 6.793 3.37 3.75 0 6.797-1.508 6.797-3.37s-3.047-3.37-6.797-3.37c-3.75.002-6.793 1.508-6.793 3.37zM158.42 53.013c0 1.862 3.036 3.37 6.792 3.37 3.752 0 6.794-1.508 6.794-3.37s-3.042-3.37-6.794-3.37c-3.756.002-6.79 1.508-6.79 3.37z"/><path fill="#FF8080" d="M155.222 72.91c2.302 3.735 7.574 5.03 11.784 2.896 4.21-2.136 5.75-6.896 3.446-10.627-2.298-3.735-7.574-5.038-11.785-2.902-4.205 2.135-5.745 6.895-3.445 10.632zM193.178 72.896c2.297 3.723 7.555 5.016 11.746 2.89 4.195-2.127 5.733-6.876 3.44-10.597-2.297-3.726-7.552-5.017-11.75-2.888-4.187 2.127-5.73 6.87-3.436 10.594z"/><path fill="#77503B" d="M183.14 6.75c50.05-3.53 35.015 62.608 35.015 62.608.2-1.975-1.922-30.866-3.12-33.418-.598-2.15-4.577-9.175-7.026-6.502-5.02 5.396-33.137 5.7-33.293 5.688-8.15-.696-13.194 1.686-16.572 3.367.193-1.22.862-3.13 5.236-6.79-6.697 1.973-8.95 6.036-10.74 9.228.064-1.28 2.386-8.193 2.386-8.193s-8.753 17.6-9.015 37.38c-2.124-8.59-15.565-69.55 37.13-63.368z"/><g><path fill="#513123" d="M163.05 53.435c0 1.076.967 1.96 2.16 1.96 1.198 0 2.166-.884 2.166-1.96 0-1.083-.968-1.96-2.165-1.96-1.192 0-2.16.876-2.16 1.96z"/><path opacity=".7" fill="#FFF" d="M164.16 52.834c0 .252.225.46.51.46.282 0 .513-.208.513-.46 0-.26-.23-.472-.512-.472-.285 0-.51.21-.51.472z"/></g><g><path fill="#513123" d="M198.235 53.435c0 1.076.966 1.96 2.16 1.96 1.197 0 2.164-.884 2.164-1.96 0-1.083-.968-1.96-2.165-1.96-1.194 0-2.16.876-2.16 1.96z"/><path opacity=".7" fill="#FFF" d="M199.343 52.834c0 .252.226.46.513.46.28 0 .51-.208.51-.46 0-.26-.23-.472-.51-.472-.287 0-.513.21-.513.472z"/></g><path fill="#70462D" d="M155.365 45.175c0 .837.753 1.554 1.676 1.546l10.864-.067c.918-.01 1.66-.735 1.657-1.573-.005-.835-.758-1.547-1.68-1.54l-10.86.07c-.922.008-1.662.733-1.655 1.565zM193.747 45.175c.004.837.754 1.554 1.683 1.546l10.854-.067c.927-.01 1.667-.735 1.66-1.573-.005-.835-.756-1.547-1.678-1.54l-10.86.07c-.926.008-1.665.733-1.66 1.565z"/><path opacity=".3" fill="#010101" d="M145.084 87.207c0 15.793 15.5 29.385 36.216 29.385h.314c20.716 0 36.653-13.59 36.653-29.385l-1.542-18.62c-14.085 10.137-12.05 7.145-32.77 7.145l-2.775-.25c-20.718 0-29.02 2.367-34.77-9.96l-1.326 21.685z"/><path fill="#77503B" d="M145.084 85.173c0 16.08 16.02 29.418 37.434 29.418h.325c21.412 0 36.267-14.23 36.267-30.305V66.813c2-11.067-12.33 8.778-32.512 8.778h-2.92c-22.642 0-38.383-21.202-38.743-10.167l.15 19.75z"/><path fill="#EDEDED" d="M195 77.32c0 4.756-5.438 8.614-12.143 8.614s-12.143-3.858-12.143-8.615c0-4.76 4.795.254 11.504.254 6.707 0 12.782-5.013 12.782-.255z"/><g fill="#6D4735"><path d="M213.277 61.01s-10.428 15.25-27.384 7.978c-7.502 0-6.567 7.804-1.125 8.71 9.19 1.53 28.648.282 28.51-15.966"/><path d="M151.175 61.01s10.427 15.25 27.382 7.978c7.5 0 6.565 7.804 1.13 8.71-9.196 1.53-28.652.282-28.512-15.966"/></g><path opacity=".15" fill="#010101" d="M186.982 68.69a4.612 4.612 0 0 1-4.613 4.61 4.61 4.61 0 0 1-4.613-4.61V51.832a4.612 4.612 0 0 1 9.225 0V68.69z"/><path fill="#FF8080" d="M186.982 66.867a4.61 4.61 0 0 1-4.613 4.612 4.61 4.61 0 0 1-4.613-4.613V50.012a4.61 4.61 0 0 1 4.612-4.612 4.612 4.612 0 0 1 4.612 4.612v16.855z"/><path opacity=".1" fill="#010101" d="M192.562 39.477a.456.456 0 0 1-.455.456h-20.385a.457.457 0 0 1-.456-.456c0-.25.206-.455.456-.455h20.385c.25 0 .455.204.455.455zM193.588 36.972c0 .25-.225.456-.5.456H170.74c-.274 0-.5-.204-.5-.456 0-.25.226-.457.5-.457h22.348c.275 0 .5.207.5.457z"/></svg>