<svg xmlns="http://www.w3.org/2000/svg" width="61.039" height="60.964" viewBox="0 0 61.039 60.964"><g fill="#FFF"><path d="M10.998 30.76l-1.174-1.173c-3.64-3.64-4.768-8.845-3.39-13.454A8.167 8.167 0 0 1 8.243 0 8.17 8.17 0 0 1 16.3 6.844a13.514 13.514 0 0 1 12.663 3.604l.47.47-6.028 6.02-.467-.466a5.01 5.01 0 0 0-7.082.002c-1.963 1.96-1.96 5.14-.01 7.09l1.18 1.177 6.023 6.022 6.373 6.37-6.02 6.025-6.378-6.373-6.027-6.024"/><path d="M17.738 24.025l6.378-6.373 6.025-6.022 1.176-1.173a13.53 13.53 0 0 1 13.39-3.417 8.166 8.166 0 0 1 16.255 1.128 8.168 8.168 0 0 1-7.09 8.096 13.52 13.52 0 0 1-3.434 13.314l-.47.472-6.02-6.03.466-.463a5.007 5.007 0 0 0 .002-7.082 4.997 4.997 0 0 0-7.074.01l-1.175 1.173-6.026 6.022-6.376 6.37-6.026-6.025"/></g><g fill="#FFF"><path d="M44.872 54.427c-4.634 1.424-9.887.302-13.553-3.364l-.463-.462 6.022-6.026.46.464a5.01 5.01 0 0 0 7.084.003 4.998 4.998 0 0 0-.012-7.076l-1.175-1.18-6.022-6.024-6.363-6.37 6.027-6.02 6.357 6.363 6.02 6.027 1.182 1.184a13.522 13.522 0 0 1 3.58 12.77 8.167 8.167 0 0 1 7.02 8.086 8.162 8.162 0 0 1-8.165 8.162 8.16 8.16 0 0 1-8.003-6.535"/><path d="M42.52 37.5l-6.354 6.364-6.023 6.025-1.18 1.182c-3.48 3.48-8.384 4.663-12.837 3.558a8.17 8.17 0 0 1-7.96 6.334A8.162 8.162 0 0 1 0 52.8a8.17 8.17 0 0 1 6.28-7.947c-1.14-4.475.04-9.417 3.542-12.917l.46-.46 6.026 6.02-.466.465a5.008 5.008 0 0 0 .004 7.084 5.018 5.018 0 0 0 7.09.007l1.18-1.182 6.02-6.022 6.362-6.37L42.52 37.5"/></g></svg>