<svg xmlns="http://www.w3.org/2000/svg" width="336.803" height="265.879" viewBox="0 0 336.803 265.879"><ellipse fill="#E6E6E6" cx="168.401" cy="252.879" rx="168.401" ry="13"/><path fill-rule="evenodd" clip-rule="evenodd" fill="#F2F2F2" d="M302.998 241.997c0 8.763-4.064 12.585-9.633 12.585H37.28c-5.567 0-10.282-3.823-10.282-12.585V59.767c0-1.4 4.715-6.185 10.283-6.185h256.085c5.568 0 9.633 4.784 9.633 6.186v182.23z"/><path fill-rule="evenodd" clip-rule="evenodd" fill="#464646" d="M302.998 80.583v-18.27c0-5.568-4.064-10.73-9.633-10.73H37.28C31.714 51.583 27 56.745 27 62.313v18.27h276z"/><circle fill-rule="evenodd" clip-rule="evenodd" fill="#FF555A" cx="43.735" cy="66.751" r="5.446"/><circle fill-rule="evenodd" clip-rule="evenodd" fill="#09A5B5" cx="62.417" cy="66.751" r="5.446"/><path fill-rule="evenodd" clip-rule="evenodd" fill="#FFFFFD" d="M290.998 66.136a5.447 5.447 0 0 1-5.446 5.447H84.444a5.446 5.446 0 0 1-5.446-5.447v-.106a5.447 5.447 0 0 1 5.446-5.447H285.55a5.446 5.446 0 0 1 5.447 5.447v.106z"/><path fill-rule="evenodd" clip-rule="evenodd" fill="#09A5B5" d="M33.998 86.583h260v18h-260z"/><path fill-rule="evenodd" clip-rule="evenodd" fill="#FFD13E" d="M33.998 109.583h68v24h-68zM33.998 137.583h68v24h-68zM33.998 165.583h68v24h-68zM33.998 194.583h68v24h-68zM33.998 222.583h68v24h-68z"/><g opacity=".2"><path fill-rule="evenodd" clip-rule="evenodd" fill="#464646" d="M286.998 96.083a4.5 4.5 0 0 1-4.5 4.5h-15a4.5 4.5 0 0 1 0-9h15a4.5 4.5 0 0 1 4.5 4.5zM254.998 96.083a4.5 4.5 0 0 1-4.5 4.5h-15a4.5 4.5 0 0 1 0-9h15a4.5 4.5 0 0 1 4.5 4.5zM222.998 96.083a4.5 4.5 0 0 1-4.5 4.5h-15a4.5 4.5 0 0 1 0-9h15a4.5 4.5 0 0 1 4.5 4.5zM190.998 96.083a4.5 4.5 0 0 1-4.5 4.5h-15a4.5 4.5 0 0 1 0-9h15a4.5 4.5 0 0 1 4.5 4.5zM158.998 96.083a4.5 4.5 0 0 1-4.5 4.5h-15a4.5 4.5 0 0 1 0-9h15a4.5 4.5 0 0 1 4.5 4.5zM126.998 96.083a4.5 4.5 0 0 1-4.5 4.5h-15a4.5 4.5 0 0 1 0-9h15a4.5 4.5 0 0 1 4.5 4.5zM94.998 96.083a4.5 4.5 0 0 1-4.5 4.5h-15a4.5 4.5 0 0 1 0-9h15a4.5 4.5 0 0 1 4.5 4.5zM62.998 96.083a4.5 4.5 0 0 1-4.5 4.5h-15a4.5 4.5 0 0 1 0-9h15a4.5 4.5 0 0 1 4.5 4.5z"/></g><path fill-rule="evenodd" clip-rule="evenodd" fill="#464646" d="M106.998 109.583h187v52h-187z"/><path opacity=".2" fill-rule="evenodd" clip-rule="evenodd" fill="#464646" d="M173.998 170.583a3 3 0 0 1-3 3h-61a3 3 0 0 1 0-6h61a3 3 0 0 1 3 3z"/><g fill-rule="evenodd" clip-rule="evenodd" fill="#464646"><path opacity=".2" d="M157.998 218.583a3 3 0 0 1-3 3h-45a3 3 0 0 1 0-6h45a3 3 0 0 1 3 3zM157.998 230.583a3 3 0 0 1-3 3h-45a3 3 0 0 1 0-6h45a3 3 0 0 1 3 3zM157.998 242.583a3 3 0 0 1-3 3h-45a3 3 0 0 1 0-6h45a3 3 0 0 1 3 3z"/></g><g fill-rule="evenodd" clip-rule="evenodd" fill="#464646"><path opacity=".2" d="M295.998 218.583a3 3 0 0 1-3 3h-45a3 3 0 0 1 0-6h45a3 3 0 0 1 3 3zM295.998 230.583a3 3 0 0 1-3 3h-45a3 3 0 0 1 0-6h45a3 3 0 0 1 3 3zM295.998 242.583a3 3 0 0 1-3 3h-45a3 3 0 0 1 0-6h45a3 3 0 0 1 3 3z"/></g><g fill-rule="evenodd" clip-rule="evenodd" fill="#464646"><path opacity=".2" d="M228.998 218.583a3 3 0 0 1-3 3h-45a3 3 0 0 1 0-6h45a3 3 0 0 1 3 3zM228.998 230.583a3 3 0 0 1-3 3h-45a3 3 0 0 1 0-6h45a3 3 0 0 1 3 3zM228.998 242.583a3 3 0 0 1-3 3h-45a3 3 0 0 1 0-6h45a3 3 0 0 1 3 3z"/></g><g fill-rule="evenodd" clip-rule="evenodd" fill="#09A5B5"><path d="M93.998 119.083a1.5 1.5 0 0 1-1.5 1.5h-34a1.5 1.5 0 0 1 0-3h34c.828 0 1.5.67 1.5 1.5zM93.998 125.083a1.5 1.5 0 0 1-1.5 1.5h-34a1.5 1.5 0 0 1 0-3h34c.828 0 1.5.67 1.5 1.5z"/></g><g fill-rule="evenodd" clip-rule="evenodd" fill="#09A5B5"><path d="M93.998 147.083a1.5 1.5 0 0 1-1.5 1.5h-34a1.5 1.5 0 0 1 0-3h34c.828 0 1.5.67 1.5 1.5zM93.998 153.083a1.5 1.5 0 0 1-1.5 1.5h-34a1.5 1.5 0 0 1 0-3h34c.828 0 1.5.67 1.5 1.5z"/></g><g fill-rule="evenodd" clip-rule="evenodd" fill="#09A5B5"><path d="M93.998 175.083a1.5 1.5 0 0 1-1.5 1.5h-34a1.5 1.5 0 0 1 0-3h34c.828 0 1.5.67 1.5 1.5zM93.998 181.083a1.5 1.5 0 0 1-1.5 1.5h-34a1.5 1.5 0 0 1 0-3h34c.828 0 1.5.67 1.5 1.5z"/></g><g fill-rule="evenodd" clip-rule="evenodd" fill="#09A5B5"><path d="M93.998 204.083a1.5 1.5 0 0 1-1.5 1.5h-34a1.5 1.5 0 0 1 0-3h34c.828 0 1.5.67 1.5 1.5zM93.998 210.083a1.5 1.5 0 0 1-1.5 1.5h-34a1.5 1.5 0 0 1 0-3h34c.828 0 1.5.67 1.5 1.5z"/></g><g fill-rule="evenodd" clip-rule="evenodd" fill="#09A5B5"><path d="M93.998 232.083a1.5 1.5 0 0 1-1.5 1.5h-34a1.5 1.5 0 0 1 0-3h34c.828 0 1.5.67 1.5 1.5zM93.998 238.083a1.5 1.5 0 0 1-1.5 1.5h-34a1.5 1.5 0 0 1 0-3h34c.828 0 1.5.67 1.5 1.5z"/></g><path opacity=".2" fill-rule="evenodd" clip-rule="evenodd" fill="#464646" d="M295.998 180.583a3 3 0 0 1-3 3h-183a3 3 0 0 1 0-6h183a3 3 0 0 1 3 3zM295.998 191.583a3 3 0 0 1-3 3h-183a3 3 0 0 1 0-6h183a3 3 0 0 1 3 3z"/><path fill-rule="evenodd" clip-rule="evenodd" fill="#E6E6E6" d="M185.998 125.583a3 3 0 0 1-3 3h-61a3 3 0 0 1 0-6h61a3 3 0 0 1 3 3zM237.998 135.583a3 3 0 0 1-3 3h-113a3 3 0 0 1 0-6h113a3 3 0 0 1 3 3zM237.998 146.583a3 3 0 0 1-3 3h-113a3 3 0 0 1 0-6h113a3 3 0 0 1 3 3z"/><path opacity=".2" fill-rule="evenodd" clip-rule="evenodd" fill="#464646" d="M295.998 203.583a3 3 0 0 1-3 3h-183a3 3 0 0 1 0-6h183a3 3 0 0 1 3 3z"/><circle fill-rule="evenodd" clip-rule="evenodd" fill="#FD7600" cx="43.011" cy="123.796" r="6.386"/><circle fill-rule="evenodd" clip-rule="evenodd" fill="#FD7600" cx="43.011" cy="152.026" r="6.386"/><circle fill-rule="evenodd" clip-rule="evenodd" fill="#FD7600" cx="43.011" cy="180.256" r="6.386"/><circle fill-rule="evenodd" clip-rule="evenodd" fill="#FD7600" cx="43.011" cy="208.486" r="6.386"/><circle fill-rule="evenodd" clip-rule="evenodd" fill="#FD7600" cx="45.011" cy="234.715" r="6.386"/><path fill="#E6E6E6" d="M291.62 162.255a30.216 30.216 0 0 0 2.753-1.662v-4.484a27.144 27.144 0 0 1-4.76 3.144l-5.64-12.446 10.4-4.716v-3.17l-11.597 5.25-3.764-8.305 14.645-6.635c.254.586.492 1.173.715 1.764v-6.472a49.32 49.32 0 0 0-4.71-6.93l4.71-2.133V109.7h-7.808a27.265 27.265 0 0 1 6.247 3.29l-5.09 2.31c-1.83-2.06-3.745-3.922-5.614-5.6h-4.34c2.273 1.966 4.793 4.228 7.23 6.833l-12.236 5.544-5.54-12.228c.14-.05.275-.102.41-.147h-7.796c-12.184 8.238-17.02 24.293-10.75 38.146a30.668 30.668 0 0 0 13.484 14.41h14.524c-2.724-2.357-5.784-5.142-8.63-8.42l12.873-5.83 5.64 12.445a27.017 27.017 0 0 1-8.163 1.807h12.81zm-4.612-43.463c1.988 2.352 3.846 4.952 5.385 7.843l-14.568 6.593-3.867-8.522 13.05-5.914zm-11.823 15.636l-14.57 6.605c-1.16-3.057-1.888-6.17-2.346-9.22l13.053-5.913 3.862 8.528zm-17.63-18.15a27.166 27.166 0 0 1 7.033-5.236l5.543 12.227-12.24 5.54c-.458-4.614-.38-8.947-.335-12.533zm-2.895 3.563c-.035 3.17.072 6.632.512 10.21l-5.09 2.307a27.274 27.274 0 0 1 4.578-12.516zm-4.722 15.75l5.677-2.57c.532 3.033 1.325 6.113 2.493 9.145l-6.303 2.858a26.928 26.928 0 0 1-1.867-9.432zm3.052 12.07l6.248-2.83c1.332 2.843 2.996 5.443 4.82 7.82l-5.396 2.45a27.122 27.122 0 0 1-5.672-7.44zm19.804 14.302a27.283 27.283 0 0 1-11.632-4.824l4.787-2.163c2.218 2.594 4.583 4.905 6.844 6.987zm-6.228-10.448c-1.83-2.358-3.49-4.964-4.832-7.82l14.647-6.63 3.762 8.304-13.576 6.146z"/><path opacity=".2" fill-rule="evenodd" clip-rule="evenodd" fill="#FFF" d="M293.365 51.583H130.342c28.36 46 87.46 142 125.64 203h37.384c5.568 0 9.633-3.87 9.633-12.73V57.584c-.002-1.416-4.066-6-9.635-6z"/><path fill="#FCD22E" d="M294.204 34.428c-5.854 15.427-17.655 27.9-32.583 34.665 14.93 6.748 26.73 19.244 32.584 34.667 5.862-15.422 17.65-27.92 32.597-34.667-14.945-6.764-26.734-19.238-32.596-34.665z"/><path fill="#FD7600" d="M294.204 51.63c-2.943 7.763-8.885 14.042-16.43 17.462a31.36 31.36 0 0 1 16.43 17.458 31.386 31.386 0 0 1 16.41-17.458c-7.528-3.42-13.464-9.7-16.41-17.463z"/><path fill="#FCD22E" d="M320.123 9.837a30.546 30.546 0 0 1-15.926 16.952 30.512 30.512 0 0 1 15.926 16.94 30.488 30.488 0 0 1 15.926-16.94 30.53 30.53 0 0 1-15.927-16.953z"/><path fill="#FD7600" d="M320.123 18.245a15.413 15.413 0 0 1-8.03 8.544 15.31 15.31 0 0 1 8.03 8.53 15.29 15.29 0 0 1 8.02-8.53 15.394 15.394 0 0 1-8.02-8.545z"/><g><path fill="#FCD22E" d="M264.74 0a44.067 44.067 0 0 1-22.988 24.456c10.53 4.77 18.86 13.576 22.988 24.462a44.055 44.055 0 0 1 22.994-24.462A44.04 44.04 0 0 1 264.74 0z"/><path fill="#FD7600" d="M264.74 12.143c-2.078 5.47-6.275 9.902-11.592 12.312A22.128 22.128 0 0 1 264.74 36.77a22.11 22.11 0 0 1 11.578-12.315 22.21 22.21 0 0 1-11.578-12.312z"/></g></svg>