<svg xmlns="http://www.w3.org/2000/svg" width="55.982" height="60.026" viewBox="0 0 55.982 60.026"><path fill="#575756" d="M55.703 57.955s-3.887-11.142-4.836-13.126c-.95-1.987-2.043-2.81-3.45-3.452-1.405-.64-15.903-7.01-15.903-7.01l-8.307.637-8.302-.637S3.615 39.328 0 40.933v19.093h55.93c.2-.92-.227-2.07-.227-2.07z"/><path fill="#DADADA" d="M31.42 60.026l4.66-23.724-13.295 6.344-13.24-6.344 5.107 23.724z"/><path fill="#E9B990" d="M30.348 34.772c0 3.837-3.344 6.95-7.465 6.95-4.125 0-7.466-3.112-7.466-6.95v-7.917c0-3.84 3.34-6.954 7.466-6.954 4.12 0 7.465 3.114 7.465 6.955v7.917z"/><path fill="#FFC58F" d="M30.348 33.513c0 3.843-3.344 6.957-7.465 6.957-4.125 0-7.466-3.114-7.466-6.957v-7.91c0-3.844 3.34-6.957 7.466-6.957 4.12 0 7.465 3.113 7.465 6.957v7.91z"/><path fill="#FFD196" d="M34.985 16.16c-.17-.016-.327.02-.487.06-.997-7.5-5.67-13.175-11.283-13.175-9.76 0-10.294 5.676-11.295 13.175a1.366 1.366 0 0 0-.48-.06 1.57 1.57 0 0 0-1.457 1.688l.324 4.397a1.58 1.58 0 0 0 1.688 1.456c.062-.004.11-.036.168-.045C13.533 30.43 17.958 35.4 23.216 35.4c5.25 0 9.67-4.97 11.05-11.745.054.01.1.04.163.046.866.065 1.62-.59 1.683-1.455l.328-4.397a1.574 1.574 0 0 0-1.455-1.688"/><g fill="#7C5947"><path d="M12.143 17.13c0 .34-.28.602-.625.602s-.62-.263-.62-.602c0-.33.276-.595.62-.595s.625.264.625.595M35.525 17.13c0 .34-.277.602-.62.602a.61.61 0 0 1-.628-.602c0-.33.28-.595.627-.595.344 0 .62.264.62.595"/><path d="M25.245 0h-4.062c-5.836.84-10.285 5.222-10.285 10.52v6.61h1.245v-2.42c0-2.03.974-2.465 1.742-1.94 0 0 3.93 2.354 9.846 0 9.358-3.723 10.548.87 10.548 1.94v2.42h1.248v-6.61c0-5.298-4.452-9.68-10.28-10.52z"/></g><path fill="#FC762B" d="M20.55 60.026h5.762L24.176 48.69l3.437-7.317H19.01l3.61 7.316z"/><path fill="#F6F6F6" d="M31.462 33.14l4.63 3.03-6.07 11.99-7.21-6.787z"/><path fill="#F6F6F6" d="M14.658 33.14l-4.63 3.03 6.076 11.99 7.208-6.787z"/><path opacity=".5" fill="#1D1D1B" d="M34.832 60.026a614.108 614.108 0 0 0 2.404-6.823l-.77-4.174 2.215-1.106 1.708-9.55-3.754-1.785-5.79 23.436h3.988z"/><path fill="#5E5E5E" d="M34.29 60.026c1.206-3.337 2.466-6.995 2.466-6.995l-.766-4.173 2.21-1.108 1.708-9.542-3.75-1.786-5.834 23.604h3.967z"/><path opacity=".5" fill="#1D1D1B" d="M9.64 49.03l-.763 4.173s1.22 3.534 2.4 6.823h3.987L9.47 36.59l-3.745 1.785 1.7 9.55 2.214 1.104z"/><path fill="#5E5E5E" d="M10.123 48.857l-.77 4.174s1.264 3.66 2.466 6.996h3.965L9.95 36.42 6.2 38.208l1.704 9.54 2.22 1.11z"/><path opacity=".1" d="M50.867 44.83c-.95-1.987-2.043-2.81-3.45-3.452-.796-.365-5.802-2.57-9.985-4.41l-.797-.378-.005.026a24.34 24.34 0 0 1-.562-.246l.012-.067-.073.037.086-.168-4.63-3.03-1.114 1.067v-2.324c1.848-2.08 3.242-4.937 3.915-8.23.055.01.1.042.164.047.866.064 1.62-.59 1.683-1.456l.328-4.397a1.564 1.564 0 0 0-.913-1.542v-5.785c0-5.3-4.45-9.68-10.28-10.52H23.15v60.025h32.78c.2-.92-.227-2.07-.227-2.07s-3.887-11.145-4.836-13.13zm-16.59-30.12v.182a20.04 20.04 0 0 0-.354-1.5c.278.54.354 1.05.354 1.317z"/><path opacity=".3" d="M55.703 57.955s-3.887-11.142-4.836-13.126c-.95-1.987-2.043-2.81-3.45-3.452-.796-.365-5.796-2.566-9.98-4.406l-.802-.382-.007.025c-.165-.068-.325-.14-.485-.21a4.54 4.54 0 0 1-.075-.035l.012-.067-.07.035.083-.166-4.63-3.03-1.114 1.06v-2.315a.025.025 0 0 0 .007-.01c1.617-1.816 2.884-4.228 3.623-7.005.105-.397.2-.802.285-1.214.055.01.1.04.164.046.866.064 1.62-.59 1.683-1.456l.328-4.397a1.55 1.55 0 0 0-.035-.442l-.02-.085c-.08-.292-.24-.55-.46-.75l-.01-.01a1.528 1.528 0 0 0-.39-.258v-5.782c0-5.3-4.45-9.68-10.28-10.52h-4.04C15.36.832 10.9 5.216 10.9 10.522v5.782c-.58.266-.967.867-.915 1.545l.324 4.397a1.58 1.58 0 0 0 1.688 1.456c.062-.005.11-.037.168-.046.586 2.892 1.73 5.45 3.255 7.437v2.77l-.76-.722-4.628 3.03.14.278c-.054.024-.11.048-.165.074l-.03-.016-.022-.085-.08.038-.327-.156.062.284-.12.058-.015-.054-3.746 1.786.004.03C3.418 39.42 1.253 40.377 0 40.932v19.093h55.93c.2-.92-.227-2.07-.227-2.07z"/><path opacity=".3" d="M34.277 14.892l-.002-.013c-.1-.506-.22-1-.35-1.484v.003c.06.116.107.23.15.34.006.018.016.036.02.053.042.117.074.228.1.333l.01.028c.025.113.044.218.056.31v.002c.013.094.017.176.017.243v.182zM12.158 14.45c.018-.324.056-.605.12-.84-.042.276-.08.557-.12.84z"/><g><path fill="#575756" d="M42.64 57.532s-4.205-12.057-5.232-14.205c-1.027-2.15-2.212-3.04-3.733-3.735-1.52-.692-17.21-7.586-17.21-7.586l-8.99.69L0 32.12v27.904h42.807c.377-1.02-.166-2.494-.166-2.494z"/><path fill="#DADADA" d="M7.02 40.964L0 37.602v22.424h16.313L21.405 34.1z"/><path fill="#E9B990" d="M7.124 16.353c-3.085 0-5.764 1.61-7.124 3.977v15.66c1.36 2.365 4.04 3.975 7.124 3.975 4.46 0 8.08-3.367 8.08-7.52V23.88c0-4.158-3.62-7.527-8.08-7.527z"/><path fill="#FFC58F" d="M7.124 14.994c-3.085 0-5.764 1.61-7.124 3.978v15.66c1.36 2.367 4.04 3.978 7.124 3.978 4.46 0 8.08-3.37 8.08-7.528v-8.56c0-4.16-3.62-7.528-8.08-7.528z"/><path fill="#FFD196" d="M20.222 12.303c-.187-.017-.354.023-.528.066C18.974 6.945 16.47 2.416 13.08 0H0v29.562c2.082 2.224 4.666 3.564 7.484 3.564 5.682 0 10.463-5.38 11.955-12.71.06.01.108.044.177.048a1.7 1.7 0 0 0 1.822-1.575l.353-4.76a1.7 1.7 0 0 0-1.57-1.827z"/><g fill="#7C5947"><path d="M20.805 13.354c0 .366-.3.65-.672.65-.376 0-.677-.284-.677-.65 0-.358.3-.644.677-.644.372 0 .672.286.672.644"/><path d="M18.712 0H0v9.524c1.87.376 4.646.463 8.042-.888 10.126-4.028 11.414.943 11.414 2.1v2.618h1.35V6.202c0-2.285-.775-4.41-2.094-6.202z"/></g><path fill="#FC762B" d="M4.55 60.026h6.335l-2.362-12.52 3.72-7.92H2.937l3.906 7.92z"/><path fill="#F6F6F6" d="M16.408 30.68l5.01 3.28-6.57 12.974-7.8-7.348z"/><path fill="#F6F6F6" d="M0 32.368v14.367l7.59-7.15z"/><path opacity=".5" fill="#1D1D1B" d="M19.965 60.026c1.31-3.627 2.69-7.636 2.69-7.636l-.83-4.518 2.395-1.196 1.848-10.333-4.062-1.933-6.33 25.615h4.29z"/><path fill="#5E5E5E" d="M19.378 60.026c1.33-3.677 2.76-7.822 2.76-7.822l-.83-4.517 2.394-1.2 1.848-10.324-4.06-1.933-6.374 25.797h4.262z"/><path opacity=".1" d="M37.407 43.327c-1.027-2.15-2.212-3.04-3.733-3.735-.86-.395-6.278-2.78-10.806-4.77l-.862-.412-.005.028c-.206-.086-.408-.176-.607-.266l.013-.073-.08.04.093-.183-5.01-3.28-1.206 1.155V29.32c2-2.25 3.51-5.343 4.236-8.906.06.01.11.044.178.048a1.7 1.7 0 0 0 1.822-1.575l.354-4.758a1.688 1.688 0 0 0-.99-1.67V6.2c0-2.286-.772-4.41-2.092-6.202h-11.3v60.026h35.395c.377-1.02-.166-2.494-.166-2.494s-4.205-12.055-5.233-14.203zm-17.95-32.593v.197a21.613 21.613 0 0 0-.385-1.623c.3.585.384 1.137.384 1.427z"/></g></svg>