<svg xmlns="http://www.w3.org/2000/svg" width="221.629" height="115.702" viewBox="0 0 221.629 115.702"><path fill="#CEEFA0" d="M0 0h221.63v115.702H0z"/><g opacity=".3"><path d="M221.63 29.54L193.71 0h-49.533l-62.08 58.305a3.374 3.374 0 0 0-.145 4.776l49.737 52.622h89.938V29.54z"/><path d="M221.63 29.54L193.71 0h-18.627l46.546 49.244z"/><path d="M221.63 35.518L188.057 0h-7.373l40.944 43.318z"/><ellipse transform="rotate(-42.836 169.517 12.44)" cx="169.505" cy="12.443" rx=".037" ry=".055"/><path d="M135.567 62.4l-22.26-23.546 24.89-23.376 22.258 23.547zM159.503 87.728l-22.26-23.548 24.892-23.378 22.257 23.547zM183.527 113.146l-22.256-23.55 24.89-23.374 22.26 23.548zM221.63 103.746l-11.533-12.2-24.89 23.375.736.782h35.686zM109.227 87.14L86.97 63.593l24.888-23.378 22.258 23.548zM133.165 112.464l-22.26-23.547 24.89-23.378 22.26 23.548zM180.807 115.702l1.27-1.194-22.257-23.55-24.887 23.378 1.29 1.366zM221.63 55.045L169.6 0h-16.462l-12.35 11.6 80.84 85.527z"/><path d="M146.866 38.838l.004-.003-1.655-1.75-.442-.468-.157-.168c-.03.024-.056.048-.085.072l-.674-2.718c.718.172 1.426.214 2.024-.345.75-.708.783-1.89.078-2.638a1.878 1.878 0 0 0-2.644-.08.37.37 0 0 0-.018.523c.143.15.375.16.527.02a1.126 1.126 0 1 1 1.544 1.634c-.435.408-.988.274-1.923.004l-3.596-1.12c.062-.062.124-.13.19-.192l-.18-.19-.42-.447-1.507-1.593a1.195 1.195 0 0 1-.07-.073c-1.535-1.628-4.114-1.692-5.76-.15l-1.696 1.595-.68.635 2.856 3.018-8.264 7.764-.602.562 8.936 9.455.602-.565 8.264-7.76 2.713 2.866.675-.634 1.695-1.593c1.623-1.523 1.73-4.035.266-5.665zM139.9 36.31c-.507-.536-.815-1.138-.928-1.75l2.628 2.78c-.61-.152-1.193-.494-1.7-1.03zm3.13-2.737l.852 3.423a3.24 3.24 0 0 1-1.2.407l-3.71-3.926c.068-.358.2-.71.4-1.043l3.658 1.14zM170.803 64.162l.003-.004-1.654-1.748-.44-.467-.16-.17-.083.073-.678-2.717c.718.17 1.427.213 2.026-.35.75-.703.785-1.885.076-2.633a1.877 1.877 0 0 0-2.645-.08.37.37 0 0 0-.02.522c.146.15.38.158.53.018a1.126 1.126 0 0 1 1.59.047 1.12 1.12 0 0 1-.045 1.587c-.438.412-.988.275-1.924.005l-3.596-1.12c.06-.063.126-.13.192-.19l-.182-.19-.422-.45-1.504-1.59-.002.002c-.022-.026-.043-.056-.068-.08-1.536-1.625-4.116-1.69-5.76-.145l-1.696 1.593-.675.636 2.85 3.02-8.264 7.762-.6.564 8.936 9.454.6-.566 8.264-7.76 2.714 2.868.674-.636 1.698-1.595c1.617-1.52 1.727-4.032.263-5.663zm-6.967-2.528c-.505-.535-.814-1.138-.93-1.752l2.632 2.78c-.61-.148-1.193-.49-1.702-1.028zm3.13-2.736l.854 3.42a3.19 3.19 0 0 1-1.2.408l-3.712-3.926c.068-.357.202-.707.402-1.042l3.656 1.14zM194.828 89.582l.002-.002-1.653-1.75-.443-.468-.158-.17c-.025.025-.055.052-.082.075l-.676-2.72c.72.173 1.427.216 2.025-.345.752-.705.784-1.89.08-2.636a1.88 1.88 0 0 0-2.647-.08.37.37 0 1 0 .507.54 1.135 1.135 0 0 1 1.595.05 1.12 1.12 0 0 1-.046 1.586c-.438.41-.99.276-1.926.005l-3.595-1.118c.062-.066.124-.133.19-.195l-.178-.19-.425-.446-1.503-1.593-.002.002-.07-.08c-1.532-1.623-4.116-1.69-5.757-.145l-1.697 1.593-.678.637 2.854 3.018-8.264 7.763-.602.564 8.936 9.45.6-.56 8.266-7.766 2.712 2.872.677-.636 1.696-1.596c1.62-1.52 1.727-4.032.262-5.662zm-6.965-2.526c-.507-.538-.817-1.14-.93-1.755l2.63 2.783c-.608-.15-1.194-.493-1.7-1.027zm3.13-2.74l.854 3.423c-.39.22-.794.356-1.203.406l-3.707-3.926c.064-.358.2-.708.398-1.044l3.658 1.14zM198.92 115.702h20.39a3.89 3.89 0 0 0-.545-.796l.002-.004-1.653-1.746-.44-.47-.16-.17a2.76 2.76 0 0 1-.082.074l-.68-2.718c.723.173 1.43.22 2.027-.346.75-.705.784-1.89.078-2.637a1.878 1.878 0 0 0-2.646-.08.37.37 0 0 0 .51.542 1.13 1.13 0 0 1 1.592.047c.428.45.406 1.163-.045 1.587-.44.41-.99.277-1.926.005l-3.597-1.118c.062-.066.123-.13.19-.193l-.18-.19-.423-.445-1.503-1.596v.003c-.024-.025-.044-.05-.067-.076-1.54-1.627-4.118-1.692-5.762-.148l-1.694 1.594-.678.635 2.854 3.017-5.562 5.225zm12.352-7.2l3.657 1.14.85 3.42a3.21 3.21 0 0 1-1.198.41l-3.71-3.927c.067-.357.2-.708.4-1.043zm2.23 4.906c-.61-.15-1.197-.493-1.7-1.03-.51-.535-.818-1.138-.93-1.75l2.63 2.78zM120.527 63.576l.002-.003-1.653-1.752-.442-.465-.16-.17c-.027.025-.055.05-.084.074l-.674-2.718c.72.173 1.427.215 2.025-.348.75-.705.786-1.89.08-2.635a1.875 1.875 0 0 0-2.645-.08.37.37 0 0 0-.02.524c.145.148.38.157.53.015a1.13 1.13 0 0 1 1.592.047c.424.45.406 1.164-.047 1.588-.44.41-.99.276-1.924.005l-3.597-1.12c.06-.062.124-.127.19-.19l-.18-.19-.422-.447-1.504-1.59h-.003c-.024-.025-.045-.056-.068-.078-1.537-1.625-4.117-1.69-5.758-.146l-1.697 1.593-.68.635 2.855 3.02-8.267 7.763-.6.564 8.936 9.45.602-.562 8.263-7.76 2.713 2.867.68-.636 1.694-1.595c1.62-1.52 1.728-4.034.265-5.664zm-6.964-2.527c-.508-.536-.816-1.14-.932-1.755l2.63 2.782c-.606-.15-1.193-.49-1.697-1.028zm3.127-2.738l.853 3.42c-.386.222-.79.358-1.2.41l-3.71-3.926c.067-.36.2-.71.4-1.044l3.657 1.14zM144.466 88.9v-.002l-1.652-1.75-.44-.47-.163-.167-.08.074-.675-2.717c.717.172 1.425.214 2.023-.347a1.863 1.863 0 0 0 .077-2.638 1.88 1.88 0 0 0-2.644-.08.374.374 0 0 0-.016.525c.142.15.376.157.528.017a1.127 1.127 0 0 1 1.59.05c.427.45.405 1.16-.045 1.586-.438.41-.99.276-1.926.005l-3.596-1.117c.062-.066.125-.133.19-.195l-.177-.192-.423-.445-1.504-1.592-.004.002c-.023-.022-.045-.05-.066-.076-1.538-1.626-4.12-1.69-5.76-.148l-1.697 1.595-.676.636 2.852 3.018-8.265 7.763-.602.564 8.936 9.452.6-.564 8.266-7.76 2.71 2.866.68-.633 1.697-1.597c1.615-1.52 1.726-4.033.263-5.663zm-6.968-2.53c-.507-.534-.815-1.137-.93-1.75l2.63 2.782c-.61-.15-1.193-.493-1.7-1.03zm3.13-2.735l.852 3.423c-.387.218-.79.357-1.198.407l-3.71-3.926c.064-.36.198-.71.398-1.044l3.658 1.14zM148.02 115.702h21.28a4.086 4.086 0 0 0-.81-1.384l.003-.002-1.652-1.75-.445-.468-.156-.168-.084.073-.677-2.717c.72.172 1.426.215 2.025-.347.748-.707.785-1.89.078-2.637a1.88 1.88 0 0 0-2.646-.08.37.37 0 0 0 .508.54 1.132 1.132 0 0 1 1.594.048 1.12 1.12 0 0 1-.048 1.59c-.438.41-.99.276-1.923.005l-3.6-1.12c.062-.063.125-.13.19-.194l-.18-.187-.42-.446-1.505-1.595-.003.003c-.023-.025-.043-.05-.068-.076-1.538-1.627-4.114-1.692-5.758-.148l-1.698 1.593-.676.638 2.854 3.018-6.186 5.812zm12.977-7.787l3.657 1.14.853 3.424a3.24 3.24 0 0 1-1.2.405l-3.71-3.925c.065-.36.198-.71.4-1.045zm2.23 4.907c-.61-.15-1.196-.493-1.702-1.03-.51-.535-.815-1.14-.93-1.753l2.63 2.782zM221.63 62.936l-45.08-47.693a1.623 1.623 0 0 0-2.288-.067c-.65.61-.68 1.636-.07 2.283l47.438 50.186v-4.71zM221.63 73.732L171.145 20.32a1.626 1.626 0 0 0-2.29-.07 1.61 1.61 0 0 0-.067 2.284l52.84 55.907v-4.708zM221.63 84.543l-55.9-59.14a1.624 1.624 0 0 0-2.288-.067 1.61 1.61 0 0 0-.067 2.284l58.255 61.632v-4.71z"/></g><path fill="#EDEDED" d="M221.63 24.434L198.533 0h-49.532l-62.08 58.305a3.372 3.372 0 0 0-.144 4.776l49.735 52.622h85.115V24.434z"/><path fill="#444" d="M221.63 24.434L198.533 0h-18.626l41.72 44.14z"/><path fill="#FFF" d="M221.63 30.414L192.88 0h-7.37l36.117 38.213z"/><path fill="#FCD22E" d="M174.358 12.418c-.02-.02-.052-.03-.065-.016-.014.014-.01.044.01.065.022.022.053.03.067.015s.008-.043-.012-.064z"/><g fill="#65B4C9"><path d="M140.39 62.4l-22.256-23.546 24.887-23.376 22.26 23.547zM164.327 87.728l-22.26-23.548 24.89-23.378 22.258 23.547zM188.353 113.146l-22.257-23.55 24.89-23.374 22.257 23.548zM221.63 98.64l-6.707-7.095-24.89 23.376.736.782h30.86zM114.052 87.14l-22.26-23.547 24.892-23.378 22.258 23.548zM137.986 112.464L115.73 88.917l24.89-23.378 22.258 23.548zM185.632 115.702l1.27-1.194-22.255-23.55-24.89 23.378 1.29 1.366z"/></g><path fill="#65B4C9" d="M221.63 49.94L174.424 0h-16.46l-12.352 11.6 76.016 80.42z"/><path fill="#005E73" d="M151.692 38.838l.002-.003-1.652-1.75-.443-.468-.162-.168c-.027.024-.055.048-.08.072l-.678-2.718c.72.172 1.425.214 2.026-.345.748-.708.784-1.89.077-2.638a1.88 1.88 0 0 0-2.645-.08.37.37 0 0 0-.017.523c.144.15.378.16.527.02a1.13 1.13 0 0 1 1.595.046c.424.45.405 1.163-.05 1.59-.437.408-.988.274-1.923.004l-3.6-1.12c.063-.062.127-.13.194-.192l-.18-.19-.422-.447-1.505-1.593h-.004c-.023-.022-.044-.048-.065-.073-1.54-1.628-4.115-1.692-5.76-.15l-1.7 1.595-.674.635 2.852 3.018-8.263 7.764-.602.562 8.935 9.455.6-.565 8.266-7.76 2.714 2.866.678-.634 1.695-1.593c1.62-1.523 1.726-4.035.265-5.665zm-6.966-2.527c-.506-.536-.814-1.138-.93-1.75l2.628 2.78c-.61-.152-1.193-.494-1.698-1.03zm3.13-2.737l.85 3.423c-.386.22-.79.356-1.198.407l-3.71-3.926c.064-.358.2-.71.4-1.043l3.657 1.14zM175.628 64.162l.004-.004-1.656-1.748-.44-.467-.16-.17-.083.073-.678-2.717c.72.17 1.43.213 2.026-.35a1.86 1.86 0 0 0 .08-2.633 1.877 1.877 0 0 0-2.645-.08.367.367 0 0 0-.018.522c.144.15.377.158.527.018a1.13 1.13 0 0 1 1.594.047 1.12 1.12 0 0 1-.048 1.587c-.437.412-.99.275-1.924.005l-3.597-1.12c.06-.063.123-.13.188-.19l-.178-.19-.42-.45-1.507-1.59-.002.002c-.022-.026-.044-.056-.068-.08-1.537-1.625-4.115-1.69-5.76-.145l-1.695 1.593-.678.636 2.854 3.02-8.268 7.762-.6.564 8.934 9.454.602-.566 8.266-7.76 2.713 2.868.678-.636 1.694-1.595c1.622-1.52 1.73-4.032.266-5.663zm-6.967-2.528c-.506-.535-.81-1.138-.927-1.752l2.627 2.78c-.607-.148-1.19-.49-1.7-1.028zm3.133-2.736l.85 3.42c-.386.223-.79.358-1.2.408l-3.71-3.926c.067-.357.2-.707.402-1.042l3.658 1.14zM199.654 89.582l.002-.002-1.654-1.75-.442-.468-.158-.17c-.027.025-.055.052-.082.075l-.677-2.72c.718.173 1.428.216 2.024-.345a1.86 1.86 0 0 0 .078-2.636 1.876 1.876 0 0 0-2.643-.08.37.37 0 0 0-.018.524.374.374 0 0 0 .527.016 1.13 1.13 0 0 1 1.59.05 1.12 1.12 0 0 1-.044 1.586c-.438.41-.988.276-1.924.005l-3.596-1.118c.06-.066.12-.133.19-.195l-.18-.19-.42-.446-1.507-1.593-.003.002c-.022-.026-.046-.052-.068-.08-1.538-1.623-4.118-1.69-5.76-.145l-1.7 1.593-.675.637 2.854 3.018-8.266 7.763-.603.564 8.938 9.45.6-.56 8.265-7.766 2.712 2.872.68-.636 1.696-1.596c1.62-1.52 1.728-4.032.264-5.662zm-6.964-2.526c-.51-.538-.818-1.14-.932-1.755l2.63 2.783c-.61-.15-1.192-.493-1.698-1.027zm3.127-2.74l.854 3.423c-.388.22-.792.356-1.2.406l-3.71-3.926c.067-.358.2-.708.4-1.044l3.657 1.14zM221.63 115.702v-2.876l-.133-.14-.16-.17-.082.074-.677-2.718c.356.086.71.14 1.05.104v-.765c-.367.074-.818-.03-1.458-.218l-3.595-1.118c.06-.066.123-.13.19-.193l-.18-.19-.424-.445-1.503-1.596-.002.003-.07-.076c-1.534-1.627-4.114-1.692-5.757-.148l-1.697 1.594-.676.635 2.852 3.017-5.562 5.227h17.885zm-5.532-7.2l3.656 1.14.852 3.42c-.386.222-.79.36-1.2.41l-3.71-3.927c.065-.357.2-.708.402-1.043zm2.227 4.906c-.608-.15-1.193-.493-1.7-1.03-.508-.535-.82-1.138-.93-1.75l2.63 2.78zM125.354 63.576v-.003l-1.65-1.752-.448-.465-.156-.17-.08.074-.678-2.718c.72.173 1.425.215 2.024-.348a1.86 1.86 0 0 0 .078-2.635 1.876 1.876 0 0 0-2.645-.08.37.37 0 0 0 .51.54 1.132 1.132 0 0 1 1.592.047c.426.45.404 1.164-.047 1.588-.44.41-.99.276-1.925.005l-3.595-1.12c.06-.062.123-.127.19-.19l-.18-.19-.422-.447-1.506-1.59c-.025-.025-.046-.056-.07-.078-1.537-1.625-4.116-1.69-5.76-.146l-1.696 1.593-.676.635 2.853 3.02-8.264 7.763-.602.564 8.937 9.45.6-.562 8.266-7.76 2.71 2.867.678-.636 1.7-1.595c1.62-1.52 1.727-4.034.264-5.664zm-6.968-2.527c-.507-.536-.815-1.14-.927-1.755l2.627 2.782c-.608-.15-1.193-.49-1.7-1.028zm3.13-2.738l.852 3.42a3.21 3.21 0 0 1-1.2.41l-3.708-3.926c.065-.36.198-.71.4-1.044l3.657 1.14zM149.29 88.9v-.002l-1.65-1.75-.445-.47-.158-.167c-.027.023-.055.05-.082.074l-.68-2.717c.723.172 1.43.214 2.03-.347.75-.705.783-1.888.076-2.638a1.88 1.88 0 0 0-2.644-.08.372.372 0 0 0-.018.525c.143.15.378.157.527.017a1.13 1.13 0 0 1 1.593.05 1.12 1.12 0 0 1-.046 1.586c-.438.41-.99.276-1.926.005l-3.596-1.117c.06-.066.124-.133.192-.195l-.18-.192-.422-.445-1.504-1.592-.004.002c-.023-.022-.044-.05-.07-.076-1.535-1.626-4.113-1.69-5.756-.148l-1.7 1.595-.676.636 2.854 3.018-8.265 7.763-.6.564 8.933 9.452.602-.564 8.266-7.76 2.71 2.866.678-.633 1.697-1.597c1.62-1.52 1.728-4.033.264-5.663zm-6.967-2.53c-.508-.534-.814-1.137-.928-1.75l2.63 2.782c-.61-.15-1.196-.493-1.702-1.03zm3.13-2.735l.85 3.423c-.385.218-.79.357-1.197.407l-3.71-3.926c.066-.36.2-.71.4-1.044l3.657 1.14zM152.843 115.702h21.283a3.993 3.993 0 0 0-.81-1.384l.003-.002-1.656-1.75-.443-.468-.156-.168-.083.073-.676-2.717c.72.172 1.426.215 2.026-.347.75-.707.786-1.89.078-2.637a1.88 1.88 0 0 0-2.646-.08.368.368 0 0 0-.016.525c.14.148.375.156.525.016a1.13 1.13 0 0 1 1.594.047 1.12 1.12 0 0 1-.05 1.59c-.435.41-.987.276-1.922.005l-3.596-1.12c.06-.063.124-.13.19-.194l-.18-.187-.42-.446-1.505-1.595v.003c-.026-.025-.046-.05-.07-.076-1.537-1.627-4.117-1.692-5.76-.148l-1.696 1.593-.678.638 2.854 3.018-6.187 5.812zm12.98-7.787l3.655 1.14.853 3.424a3.23 3.23 0 0 1-1.2.405l-3.71-3.925c.067-.36.202-.71.402-1.045zm2.227 4.907c-.61-.15-1.195-.493-1.7-1.03-.507-.535-.816-1.14-.93-1.753l2.63 2.782z"/><path fill="#FFF" d="M221.63 57.828l-40.254-42.586c-.613-.648-1.637-.68-2.288-.067s-.683 1.636-.07 2.283l42.61 45.08v-4.71zM221.63 68.625L175.97 20.32a1.625 1.625 0 0 0-2.29-.07 1.61 1.61 0 0 0-.065 2.284l48.015 50.8v-4.71zM221.63 79.44l-51.072-54.037a1.626 1.626 0 0 0-2.29-.067 1.613 1.613 0 0 0-.07 2.284l53.432 56.528v-4.71z"/><g><path opacity=".3" d="M113.03 46.792a3.263 3.263 0 0 0-1.428 4.4l26.18 51.076a.068.068 0 0 0 .01.02l4.498 8.775v.003l1.492 2.91c.31.606.662 1.176 1.036 1.726h51.093l-5.008-9.77c3.134-4.753 3.697-10.998.917-16.427l-1.49-2.902-.003-.005-4.166-8.127-26.523-51.746a3.285 3.285 0 0 0-4.414-1.423l-5.31 2.706L139.118 6.95l-.402.206-4.14-2.154-.682 4.61-.517.265-4.146-2.155-.677 4.61-.518.265-4.146-2.153-.68 4.61-.516.262-4.147-2.15-.677 4.61-.52.264-4.143-2.156-.675 4.61-.52.264-4.147-2.153-.675 4.61-.26.132L117.722 44.4l-4.692 2.392z"/><path fill="#00AA59" d="M150.828 115.702h40.407l-20.19-39.388a1.272 1.272 0 0 0-1.703-.552l-29.786 15.173a1.26 1.26 0 0 0-.553 1.7l11.825 23.067z"/><path opacity=".7" d="M168.454 115.702l-16.052-31.31-8.928 4.548 13.714 26.762z"/><path opacity=".3" d="M150.828 115.702h26.156l4.097-2.088a16.25 16.25 0 0 0 6.226-5.573l-15.763-30.756a1.268 1.268 0 0 0-1.704-.548l-16.94 8.627-8.933 4.55-3.915 1.995a1.26 1.26 0 0 0-.552 1.696l11.328 22.098z"/><path fill="#323C3F" d="M184.085 83.54a3.27 3.27 0 0 1-1.427 4.4l-42.194 21.49a3.283 3.283 0 0 1-4.413-1.425l-29.535-57.62a3.262 3.262 0 0 1 1.43-4.397l42.19-21.492a3.29 3.29 0 0 1 4.416 1.422l29.535 57.62z"/><path d="M138.696 113.172c.47.908 1.016 1.747 1.62 2.53h29.456l9.815-5.002c8.066-4.108 11.264-13.955 7.145-21.998l-4.498-8.77c-4.122-8.043-14.004-11.232-22.07-7.124l-18.825 9.59c-8.062 4.106-11.263 13.956-7.14 21.998l4.496 8.776z"/><path fill="#323C3F" d="M137.203 110.26a16.265 16.265 0 0 0 4.53 5.442h20.83l15.53-7.913c8.067-4.11 11.27-13.957 7.146-21.995l-4.5-8.776c-4.123-8.043-14.002-11.23-22.067-7.123l-18.824 9.588c-8.066 4.107-11.263 13.96-7.146 22l4.5 8.775z"/><path fill="#EDEDED" d="M166.153 62.46c.274.538.095 1.176-.396 1.428l-34.946 17.8c-.49.25-1.116.02-1.395-.518L117.74 58.387c-.275-.535-.1-1.176.397-1.43L153.08 39.16c.49-.25 1.118-.02 1.396.516l11.677 22.783z"/><path fill="#FFF" d="M177.5 87.908c.767 1.5-.344 3.594-2.48 4.685-2.136 1.087-4.487.754-5.257-.742-.768-1.496.342-3.592 2.478-4.68 2.138-1.09 4.49-.758 5.26.738zM164.69 94.434c.77 1.497-.34 3.594-2.478 4.682-2.135 1.088-4.488.756-5.26-.743-.764-1.496.346-3.593 2.48-4.678 2.137-1.09 4.493-.76 5.26.74zM151.886 100.956c.768 1.496-.343 3.594-2.48 4.682-2.135 1.088-4.488.754-5.254-.74-.77-1.497.34-3.594 2.476-4.68 2.138-1.09 4.49-.76 5.258.738z"/><path fill="#27C66D" d="M181.62 95.953c.77 1.498-.342 3.595-2.477 4.682-2.137 1.088-4.492.758-5.258-.74-.768-1.5.342-3.596 2.48-4.686 2.134-1.086 4.487-.755 5.255.743z"/><path fill="#F2CF49" d="M168.814 102.476c.767 1.497-.342 3.592-2.48 4.68-2.135 1.09-4.486.76-5.258-.74-.766-1.495.344-3.593 2.48-4.68 2.137-1.09 4.49-.757 5.258.74z"/><path fill="#F83C3A" d="M156.01 108.998c.766 1.496-.345 3.593-2.48 4.683-2.136 1.086-4.49.758-5.258-.74-.767-1.498.343-3.593 2.48-4.683 2.134-1.088 4.488-.753 5.257.74z"/><path fill="#FFF" d="M173.062 79.254c.77 1.5-.342 3.594-2.478 4.682-2.135 1.09-4.49.758-5.26-.742-.767-1.498.346-3.592 2.48-4.68 2.134-1.087 4.49-.757 5.258.74zM160.256 85.78c.766 1.495-.34 3.59-2.477 4.68-2.14 1.087-4.493.758-5.262-.743-.767-1.496.344-3.594 2.478-4.682 2.138-1.088 4.49-.757 5.26.744zM147.447 92.3c.77 1.5-.34 3.595-2.477 4.683-2.135 1.088-4.49.757-5.26-.74-.765-1.5.344-3.596 2.48-4.684 2.135-1.09 4.49-.756 5.257.74zM168.855 71.053c.77 1.498-.34 3.594-2.477 4.68-2.136 1.09-4.488.757-5.255-.74-.77-1.495.34-3.592 2.477-4.68 2.137-1.09 4.49-.76 5.255.74zM156.052 77.575c.767 1.5-.342 3.593-2.48 4.68-2.135 1.09-4.487.758-5.255-.74-.768-1.495.34-3.59 2.475-4.68 2.14-1.087 4.49-.756 5.26.74zM143.242 84.098c.77 1.5-.342 3.594-2.475 4.683-2.138 1.09-4.49.758-5.26-.742-.77-1.496.34-3.593 2.478-4.68 2.137-1.087 4.492-.757 5.257.74z"/><path fill="#575756" d="M151.765 31.1a3.694 3.694 0 0 1-1.617 4.972l-32.802 16.706a3.706 3.706 0 0 1-4.985-1.606 3.685 3.685 0 0 1 1.616-4.97l32.803-16.708a3.71 3.71 0 0 1 4.985 1.607z"/><path fill="#FFE4C0" d="M134.03 6.146L101.848 22.54l15.5 30.237 32.185-16.392z"/><path opacity=".05" d="M134.03 6.146l-16.684 46.63 32.186-16.39z"/><path opacity=".2" d="M148.345 34.067L116.158 50.46l1.188 2.317 32.186-16.392z"/><path fill="#FFE4C0" d="M102.035 22.904l.746-5.105 4.596 2.382z"/><path fill="#FFE4C0" d="M107.376 20.182l.744-5.103 4.592 2.386zM112.712 17.466l.75-5.107 4.59 2.382zM118.053 14.742l.747-5.103 4.596 2.38zM123.396 12.02l.748-5.102 4.59 2.385zM128.735 9.303l.75-5.106 4.59 2.387z"/><path d="M140.27 27.11a1.11 1.11 0 0 1-.486 1.5l-23.048 11.737a1.12 1.12 0 0 1-1.503-.483c-.28-.55-.06-1.222.487-1.5l23.047-11.74a1.123 1.123 0 0 1 1.502.487zM137.94 22.573a1.114 1.114 0 0 1-.48 1.5l-23.05 11.74a1.124 1.124 0 0 1-1.505-.49c-.28-.544-.06-1.22.488-1.496l23.046-11.74a1.122 1.122 0 0 1 1.5.486zM135.616 18.037a1.11 1.11 0 0 1-.484 1.498l-23.046 11.74a1.124 1.124 0 0 1-1.506-.486c-.28-.55-.06-1.22.485-1.5l23.05-11.74a1.113 1.113 0 0 1 1.5.487zM133.29 13.5c.283.546.064 1.218-.482 1.498l-23.05 11.74a1.124 1.124 0 0 1-1.504-.486c-.28-.55-.06-1.22.487-1.5l23.05-11.738a1.115 1.115 0 0 1 1.5.485z" opacity=".4"/><g opacity=".2"><path d="M160.272 57.69c.36.7.08 1.56-.616 1.912L130.29 74.56a1.43 1.43 0 0 1-1.92-.622 1.424 1.424 0 0 1 .62-1.91l29.366-14.954a1.43 1.43 0 0 1 1.916.617z"/></g><g opacity=".2"><path d="M157.31 51.913c.36.697.08 1.556-.618 1.91l-29.368 14.96a1.427 1.427 0 0 1-1.91-.622c-.36-.7-.082-1.556.612-1.91l29.37-14.958a1.427 1.427 0 0 1 1.914.62z"/></g><g opacity=".2"><path d="M154.348 46.13c.355.7.078 1.554-.62 1.91L124.363 63c-.7.352-1.557.077-1.914-.622a1.416 1.416 0 0 1 .616-1.91L152.43 45.51a1.43 1.43 0 0 1 1.918.62z"/></g></g><path opacity=".1" d="M85.498 47.208l.008-.017-13.55-6.77-2.66-1.33-.97-.485-1.308-.652c-.104.21-.215.41-.324.614l-9.88-14.604c4.616-.525 8.894-1.795 11.205-6.392 2.906-5.78.557-12.836-5.24-15.734-5.796-2.897-12.88-.552-15.783 5.23a2.32 2.32 0 0 0 1.04 3.122 2.342 2.342 0 0 0 3.137-1.037c1.75-3.482 6.02-4.895 9.515-3.15 3.49 1.746 4.906 6.003 3.155 9.484-1.693 3.363-5.23 3.758-11.334 4.163L28.84 20.78c.22-.52.453-1.036.714-1.553L24.62 16.76l-12.333-6.165-.008.015c-.192-.1-.38-.208-.574-.305A25.313 25.313 0 0 0 0 7.632v108.07h51.045l13.75-27.337L87.018 99.47l2.617-5.2 6.57-13.065c6.265-12.453 1.462-27.527-10.706-33.997zm-46.603.057c-4.153-2.076-7.28-4.965-9.284-8.35l21.55 10.77c-3.92.423-8.115-.346-12.265-2.42zm18.788.47L27.276 32.537c-.38-2.26-.352-4.622.107-7.025l24.065-1.154 12.435 18.383c-1.803 2.136-3.9 3.814-6.2 4.99z"/><g><path fill="#9D9D9C" d="M68.41.73A11.82 11.82 0 0 0 66.542 0h-6.79c-2.987.898-5.62 2.962-7.126 5.958a2.326 2.326 0 0 0 1.04 3.124 2.345 2.345 0 0 0 3.14-1.04c1.75-3.483 6.017-4.895 9.51-3.15 3.494 1.746 4.91 6.003 3.16 9.485-1.696 3.365-5.236 3.76-11.35 4.165a2.33 2.33 0 0 0-2.177 2.477 2.333 2.333 0 0 0 2.484 2.17c6.02-.398 12.24-.812 15.214-6.725 2.91-5.78.56-12.838-5.238-15.735z"/><path fill="#9D9D9C" d="M83.685 62.02a.084.084 0 0 1-.027-.012L10.024 25.203a2.324 2.324 0 0 1-1.238-2.563 2.33 2.33 0 0 1 2.173-1.842l47.207-2.257a2.33 2.33 0 0 1 2.05 1.024l26.288 38.858c.594.688.75 1.696.314 2.562a2.34 2.34 0 0 1-3.135 1.037zm-63.6-36.998l57.7 28.84-20.708-30.608-36.99 1.768z"/><path fill="#F16442" d="M17.336 9.198A25.367 25.367 0 0 0 0 7.232v44.826l19.427 9.71 9.188-18.265c6.364-12.652 1.314-28.01-11.28-34.305zM92.646 98.364l9.188-18.266c6.36-12.65 1.313-28.01-11.28-34.304-12.593-6.295-27.96-1.14-34.32 11.51l-9.19 18.268 45.602 22.792z"/><path fill="#FFD658" d="M0 45.546v6.513l92.646 46.304 2.617-5.202z"/><path fill="#005E73" d="M73.956 37.498c-5.574 11.08-19.105 15.558-30.218 10.004-11.114-5.556-15.607-19.042-10.034-30.12L17.916 9.49 0 45.108v70.594h56.12l35.015-69.616-17.18-8.588z"/><path fill="#FFD658" d="M44.523 46.158c-11.115-5.556-14.913-16.96-9.34-28.04l-4.936-2.463c-6.555 13.028-1.27 28.888 11.802 35.422 13.07 6.533 28.98 1.268 35.534-11.766l-4.936-2.465c-5.573 11.082-17.012 14.866-28.125 9.313z"/><g fill="#FFD658"><path d="M18.505 50.99l-.192 5.91 4.775 3.512-5.7 1.645-1.87 5.615-3.334-4.897-5.934-.04 3.642-4.673-1.794-5.638 5.58 2.01zM57.877 71.973l-.19 5.91 4.776 3.513-5.7 1.643-1.875 5.615-3.33-4.898-5.94-.04 3.65-4.67-1.797-5.64 5.582 2.01zM39.16 58.938l-.254 7.895 6.376 4.685-7.61 2.197-2.503 7.49-4.446-6.535-7.923-.054 4.862-6.236-2.393-7.527 7.45 2.682z"/></g></g></svg>