<svg xmlns="http://www.w3.org/2000/svg" width="42.94" height="60.026" viewBox="0 0 42.94 60.026"><path opacity=".3" d="M34.278 14.892l-.003-.013a21.523 21.523 0 0 0-.348-1.48c.06.116.105.23.148.34.006.018.016.036.02.053.043.117.075.228.1.333l.01.028c.026.113.044.218.056.31v.002c.013.094.018.176.018.243v.182zM12.16 14.45a4.18 4.18 0 0 1 .117-.84c-.04.276-.078.557-.118.84z"/><path fill="#223F59" d="M42.64 57.532s-4.204-12.057-5.23-14.205c-1.028-2.15-2.213-3.04-3.734-3.735-1.522-.692-17.21-7.586-17.21-7.586l-8.99.69L0 32.12v27.904h42.808c.377-1.02-.167-2.494-.167-2.494z"/><path fill="#DADADA" d="M7.02 40.964L0 37.602v22.424h16.314L21.406 34.1z"/><path fill="#E9B990" d="M7.125 16.353c-3.086 0-5.764 1.61-7.125 3.977v15.66c1.36 2.365 4.04 3.975 7.125 3.975 4.46 0 8.078-3.367 8.078-7.52V23.88c0-4.158-3.618-7.527-8.078-7.527z"/><path fill="#FFC58F" d="M7.125 14.994c-3.086 0-5.764 1.61-7.125 3.978v15.66c1.36 2.367 4.04 3.978 7.125 3.978 4.46 0 8.078-3.37 8.078-7.528v-8.56c0-4.16-3.618-7.528-8.078-7.528z"/><path fill="#FFD196" d="M20.223 12.303c-.187-.017-.355.023-.53.066-.72-5.424-3.22-9.953-6.61-12.37H0v29.562c2.082 2.224 4.666 3.564 7.484 3.564 5.682 0 10.463-5.38 11.956-12.71.06.01.108.044.178.048a1.7 1.7 0 0 0 1.82-1.575l.356-4.76a1.7 1.7 0 0 0-1.57-1.827z"/><g fill="#7C5947"><path d="M20.806 13.354c0 .366-.3.65-.673.65-.375 0-.676-.284-.676-.65 0-.358.3-.644.676-.644.373 0 .673.286.673.644"/><path d="M18.713 0H0v9.524c1.87.376 4.646.463 8.043-.888 10.125-4.028 11.414.943 11.414 2.1v2.618h1.35V6.202c0-2.285-.776-4.41-2.094-6.202z"/></g><path fill="#FC762B" d="M4.552 60.026h6.333l-2.36-12.52 3.72-7.92h-9.31l3.907 7.92z"/><path fill="#F6F6F6" d="M16.41 30.68l5.008 3.28-6.568 12.974-7.8-7.348z"/><path fill="#F6F6F6" d="M0 32.368v14.367l7.59-7.15z"/><path opacity=".5" fill="#1D1D1B" d="M19.965 60.026c1.31-3.627 2.692-7.636 2.692-7.636l-.833-4.518 2.397-1.196 1.848-10.333-4.062-1.933-6.328 25.615h4.287z"/><path fill="#223F59" d="M19.38 60.026c1.33-3.677 2.758-7.822 2.758-7.822l-.83-4.517 2.395-1.2 1.847-10.324-4.06-1.933-6.374 25.797h4.263z"/><path opacity=".1" d="M37.408 43.327c-1.027-2.15-2.212-3.04-3.733-3.735-.862-.395-6.278-2.78-10.806-4.77l-.864-.412-.004.028c-.207-.086-.41-.176-.61-.266l.015-.073-.08.04.092-.183-5.01-3.28-1.206 1.155V29.32c2-2.25 3.51-5.343 4.237-8.906.06.01.11.044.18.048a1.7 1.7 0 0 0 1.82-1.575l.355-4.758a1.69 1.69 0 0 0-.99-1.67V6.2c0-2.286-.773-4.41-2.092-6.202h-11.3v60.026h35.395c.377-1.02-.167-2.494-.167-2.494s-4.204-12.055-5.232-14.203zm-17.95-32.593v.197a21.136 21.136 0 0 0-.386-1.623c.3.585.385 1.137.385 1.427z"/></svg>