<svg xmlns="http://www.w3.org/2000/svg" width="55.787" height="58.235" viewBox="0 0 55.787 58.235"><path fill="#578FAA" d="M8.6 0l41.995 7.056-8.6 51.18L0 51.182z"/><path fill="#D0DEFF" d="M3.94 3.224l42.583-.107.13 51.897-42.584.107z"/><path fill="#666" d="M44.973 40.122l.003-13.58c0-.182-.156-.327-.35-.327L26.91 26.21c-.193 0-.35.147-.35.327l-.005 13.58 18.418.005z"/><path opacity=".2" d="M5.738 12.282h39.12V24.76H5.737z"/><path fill="#4C4C4C" d="M3.94 3.116h42.593v6.238H3.94z"/><path opacity=".2" d="M5.856 27.065c0 .464.375.84.84.84h17.88a.84.84 0 0 0 0-1.677H6.697a.84.84 0 0 0-.84.837zM5.856 31.216a.84.84 0 0 0 .84.838h17.88a.838.838 0 0 0 0-1.678H6.697a.84.84 0 0 0-.84.84zM5.856 35.053c0 .464.375.84.84.84h17.88a.838.838 0 0 0 0-1.676H6.697a.838.838 0 0 0-.84.836zM5.856 39.246c0 .464.375.84.84.84h17.88a.838.838 0 0 0 0-1.676H6.697a.838.838 0 0 0-.84.836zM27.123 43.6c0 .463.375.84.838.84H43.33a.838.838 0 0 0 0-1.678H27.96a.838.838 0 0 0-.837.837zM27.123 47.438c0 .464.375.84.838.84H43.33a.84.84 0 0 0 0-1.678H27.96a.84.84 0 0 0-.837.838zM27.123 51.63c0 .464.375.84.838.84H43.33a.838.838 0 0 0 0-1.677H27.96a.838.838 0 0 0-.837.838z"/><circle fill="#FF555A" cx="7.172" cy="6.235" r="1.434"/><circle fill="#6AC640" cx="11.05" cy="6.235" r="1.434"/><path fill="#FFF" d="M44.335 6.235c0 .79-.642 1.434-1.434 1.434H15.155a1.436 1.436 0 0 1 0-2.87H42.9c.793 0 1.435.642 1.435 1.435z"/><path opacity=".2" d="M6.542 42.426h18.874v10.38H6.542z"/><path opacity=".1" d="M46.528 55.013l-42.583.107L46.4 3.116z"/><path fill="#FF555A" d="M55.782 36.595c0 3.222-2.32 5.834-5.185 5.833l-24.88-.007c-2.864 0-5.186-2.612-5.182-5.834v-8.163c0-3.22 2.322-5.83 5.185-5.83l24.882.006c2.864 0 5.184 2.61 5.184 5.834l-.004 8.16z"/><path fill="#FFF" d="M44.147 32.295l-9.332 5.384.003-10.774z"/></svg>