<svg xmlns="http://www.w3.org/2000/svg" width="187.871" height="113.078" viewBox="0 0 187.871 113.078"><path fill="#76D9FC" d="M187.87 109.078c-2.08-49.467-42.83-88.934-92.805-88.934-49.977 0-90.735 39.467-92.817 88.934H187.87z"/><path fill-rule="evenodd" clip-rule="evenodd" fill="#00A936" d="M49.46 104.895c.15.136.247.35.38.373h.196c.925.263 1.825-.67 1.122-.73-.274-.05-.81.02-1.697.357zM70.98 96.783c-1.472.25-1.825 1.233 1.336 3.405.392-.106 3.11-.72 1.515.926 4.91-2.928-.343-4.776-2.85-4.33zM70.98 75.798c5.287-2.15 6.506-16.076.21-15.666-.408 0-.816.204-1.333.396 2.635 4.86-3.444 11.045 1.122 15.27zM131.68 87.333c.418-2.904-4.203-5.042-6.284-4.922-1.213.085-1.448.95.792 3.04-2.094 4.945 3.488 5.21 5.49 1.883zM84.405 51.08c1.525-.71 2.257-3.24 0-3.24-.41-.11-.715-.217-1.124-.193-.405.013-.814.157-1.112.193-4.46.89-3.105 8.28 2.237 3.24z"/><path fill-rule="evenodd" clip-rule="evenodd" fill="#00A936" d="M90.653 49.35C84.2 50.167 77.69 56.4 83.69 62.57c4.3 5.367-6.205 16.316 3.763 19.126 3.956-8.85 14.78-15.86 12.104-26.65-1.12-4.602-5.014-6.186-8.904-5.693z"/><path fill="#00A936" d="M43.55 109.078c1.894-2.217 4.044-4.102 6.878-4.72 4.22-3.662 15.636.273 11.506-7.204 4.082-3.88 16.056-3.747 10.197-12.822-1.964-8.847-12.838-13.12-16.414-3.048-9.845 2.64-5.875-18.717 4.14-15.87 7.263.42 6.273-5.894 1.874-7.923 0-.31-.096-.482-.372-.204-.805-.3-1.65-.61-2.642-.563-9.818-5.426 9.825-19.257-3.188-23.638-14.28 12.198-36.06 31.39-44.78 49.326-3.072 8.777-3.344 17.6-3.1 26.668h35.9zM103.696 30.098c3.044 9.783 21.274.19 20.397 11.126.143.157.42.41.574.59-.29.214.212 2.208.578.54 3.15 3.566 9.78 10.962 2.82 10.037-9.227-1.262-6.826 16.914-.18 20.215 6.332 3.408 9.892-3.433 3.386-6.796-.88-8.523 14.206 5.233 7.55 9.795-.265.183-.48.396-.737.588.306-1.223-.438-.07-.416.207-7.568 5.484-3.252 18.4-6.193 27.008-1.267 2.812-1.147 4.638-.287 5.67h6.527c2.863-1.53 5.246-4.592 4.132-8.322-3.357-8.428 13.956-4.586 10.21-10.577 10.5 5.57 9.507-9.386 5.122-14.38 2.046-7.996 7.44.935 4.89 5.29.415 4.12 3.967 5.07 6.817 6.244.128.096.277.11.558.18 2.492 1.19 3.987 2.714 1.298 7.396-3.083 10.396-13.54 10.973-22.086 9.05-2.723 1.128-4.745 2.942-6.394 5.12h45.575c-.068-1.21-.16-2.415-.258-3.618-.066-.625-.114-1.26-.186-1.883-5.307 2.904-14.75-13.075-5.09-5.478 1.885-.13 3.072-.672 3.966-1.488-1.114-5.82-2.627-11.464-4.745-16.844-.95-1.127-1.86-2.183-2.64-2.818.065-1.163-.05-2.28-.19-3.396-.046-.06.057-.145 0-.203-15.143-31.166-47.11-52.69-84.07-52.69-2.52 0-5.083.154-7.574.36-1.29.276-2.72.444-4.172.577-.498.048-.996.107-1.49.19-5.214.734-10.196 1.645-15.094 3.194 12.773-.937 25.888-.603 37.406 5.114z"/><g opacity=".2" fill="#010000"><path d="M6.678 84.416c-.025.073-.043.12-.06.18.856-.046 1.62-.106 1.62-.18h-1.56z"/><path d="M16.408 109.078h2.77c.357-9.802 1.995-19.208 4.74-27.974 2.98-.363 6.533-.734 10.766-1.105 7.48-.64 16.026-1.14 25.243-1.503-1.5 9.655-2.366 19.958-2.54 30.58h2.77c.18-10.673 1.056-21.03 2.598-30.686 9.677-.337 20.036-.53 30.653-.54v31.228h2.775V77.85c10.63.024 20.994.216 30.67.562 1.53 9.647 2.402 19.994 2.58 30.666h2.773c-.172-10.613-1.037-20.916-2.538-30.568 9.058.36 17.456.863 24.812 1.49 4.448.384 8.14.78 11.218 1.16 2.733 8.756 4.36 18.14 4.707 27.918h2.78c-.333-9.613-1.872-18.855-4.46-27.508 10.723 1.55 12.13 2.954 12.278 3.146-.03-.023-.085-.133-.085-.3h2.535c-.2-.6-.402-1.2-.613-1.802-1.117-1.03-3.393-1.873-7.135-2.677-2.188-.467-4.834-.925-7.92-1.33-3.576-10.794-8.784-20.612-15.268-29.006 6.506 1.673 11.69 3.63 15.28 5.68a97.82 97.82 0 0 0-4.44-5.198c-3.714-1.46-7.802-2.65-11.633-3.59-.703-.18-1.416-.335-2.125-.502-9.904-11.55-22.348-20-36.22-24.032a93.034 93.034 0 0 0-18.317-1.813 93.36 93.36 0 0 0-20.282 2.247C61.5 26.58 49.568 34.827 40.017 45.967c-.75.178-1.5.347-2.226.526-3.505.854-7.223 1.923-10.674 3.22a95.615 95.615 0 0 0-4.328 4.98c3.544-1.85 8.38-3.6 14.3-5.126-6.47 8.393-11.68 18.186-15.263 28.98-3.278.43-6.074.897-8.36 1.39-2.68.578-4.605 1.167-5.89 1.85a50.86 50.86 0 0 0-.75 2.197c2.63-.614 7.272-1.514 14.067-2.476-2.597 8.67-4.146 17.93-4.484 27.57zm131.704-60.542c7.054 8.415 12.737 18.486 16.615 29.676-2.443-.303-5.103-.566-7.995-.842-8.043-.72-17.376-1.298-27.526-1.694-1.794-10.468-4.364-20.12-7.62-28.46-.35-.902-.71-1.787-1.084-2.667 10.126.852 19.508 2.184 27.61 3.986zm-3.128-3.52c-7.748-1.52-16.462-2.674-25.784-3.394-4.034-8.67-8.722-14.973-13.798-18.62 15.058 2.546 28.72 10.433 39.582 22.015zm-48.8-22.84c7.22.753 14.102 7.466 19.83 19.217-6.392-.42-13.05-.66-19.83-.685V22.175zm0 21.352c7.273.024 14.38.29 21.18.783.565 1.272 1.11 2.58 1.65 3.948 3.133 8.008 5.607 17.252 7.36 27.31a917.568 917.568 0 0 0-30.19-.537V43.53zM93.408 75.03c-10.48.013-20.658.19-30.184.526 1.746-10.057 4.225-19.29 7.362-27.298a85.265 85.265 0 0 1 1.647-3.96 317.22 317.22 0 0 1 21.174-.77V75.03zm0-34.322c-6.78.023-13.43.25-19.83.685 5.736-11.75 12.622-18.464 19.83-19.218v18.533zM84.195 23c-5.08 3.65-9.76 9.952-13.8 18.622-9.315.72-18.024 1.846-25.772 3.375C55.498 33.423 69.143 25.537 84.195 23zm-42.7 25.513c8.108-1.79 17.478-3.123 27.605-3.964-.38.865-.745 1.753-1.1 2.666-3.248 8.34-5.81 17.97-7.61 28.45-10.316.382-19.802.973-27.964 1.704-2.71.254-5.227.518-7.545.79 3.887-11.176 9.575-21.244 16.616-29.647z"/></g><g><path fill="#EDEDED" d="M38.506 113.078h80.5l21.572-13.554a2.614 2.614 0 0 0 .826-3.605L81.904 1.22a2.615 2.615 0 0 0-3.607-.82L1.225 48.83A2.614 2.614 0 0 0 .4 52.432l38.106 60.645z"/><path fill="#444" d="M133.936 103.697l6.643-4.173a2.614 2.614 0 0 0 .825-3.605L81.905 1.22a2.615 2.615 0 0 0-3.607-.82l-6.64 4.174 62.278 99.12z"/><path fill="#2CB740" d="M80.106 8.456a2.07 2.07 0 0 1-2.853-.65 2.068 2.068 0 0 1 3.502-2.2c.61.964.317 2.245-.65 2.85z"/><path fill="#F16442" d="M83.463 13.798a2.074 2.074 0 0 1-2.855-.655 2.068 2.068 0 0 1 3.502-2.202c.61.97.32 2.25-.646 2.857z"/><path fill="#FFF" d="M136.057 97.266a2.07 2.07 0 0 1-2.854-.648L83.607 17.686a2.073 2.073 0 0 1 .654-2.854 2.075 2.075 0 0 1 2.855.65l49.594 78.933a2.07 2.07 0 0 1-.653 2.85z"/><path opacity=".2" fill="#444" d="M78.863 26.006a1.345 1.345 0 0 0-.423 1.85l47.452 75.523a1.343 1.343 0 0 0 1.85.42c.627-.395.814-1.22.42-1.846L80.71 26.432a1.34 1.34 0 0 0-1.847-.426zM77.307 23.53c-.91.57-2.117.3-2.69-.613l-6.353-10.11a1.95 1.95 0 1 1 3.302-2.073l6.352 10.11a1.95 1.95 0 0 1-.613 2.686z"/><path fill="#FF5C5C" d="M119.005 113.078l6.33-3.977-62.28-99.12-26.903 16.904 54.158 86.194z"/><path opacity=".2" fill="#444" d="M15.904 43.803l18.28 29.094-12.008 7.544L3.896 51.35zM36.278 76.23l18.28 29.093-12.007 7.544-18.28-29.093zM59.43 113.078l-3.124-4.97-7.91 4.97z"/><path fill="#444" d="M71.51 95.077c-.545.342-1.283.152-1.645-.422L32.16 34.645c-.363-.576-.212-1.32.333-1.664.546-.342 1.284-.154 1.647.422l37.705 60.01c.362.574.212 1.32-.334 1.665zM67.088 97.856c-.547.344-1.285.154-1.647-.42l-37.703-60.01c-.363-.578-.214-1.324.334-1.668.55-.345 1.284-.153 1.646.423L67.42 96.19c.36.576.215 1.323-.332 1.666zM62.723 100.6c-.547.343-1.282.15-1.643-.424l-37.706-60.01c-.362-.577-.216-1.32.33-1.664.547-.343 1.282-.152 1.644.424l37.706 60.01c.36.574.214 1.32-.33 1.664zM58.363 103.336c-.55.347-1.285.155-1.646-.42l-37.705-60.01c-.362-.577-.213-1.32.336-1.666.545-.344 1.282-.154 1.645.422l37.706 60.01c.36.575.21 1.323-.337 1.664z"/><path fill="#FFF" d="M75.272 44.833c-.546.345-1.28.153-1.644-.42L59.922 22.594c-.362-.575-.215-1.32.332-1.665.547-.344 1.29-.156 1.65.42l13.708 21.816c.363.575.208 1.323-.34 1.667zM81.17 64.032c-.548.344-1.283.158-1.646-.417l-24.026-38.24c-.362-.574-.213-1.324.336-1.667.546-.344 1.283-.153 1.645.422l24.026 38.24c.36.575.21 1.32-.336 1.662zM76.807 66.774c-.55.345-1.28.156-1.643-.42l-24.027-38.24c-.36-.574-.215-1.32.332-1.665.546-.344 1.28-.15 1.642.423l24.027 38.24c.36.576.212 1.32-.333 1.66zM72.45 69.512c-.553.348-1.284.158-1.646-.417l-24.027-38.24c-.36-.576-.215-1.322.335-1.668.542-.34 1.278-.15 1.64.426l24.027 38.24c.36.576.21 1.32-.33 1.66z"/><path fill="#444" d="M81.44 113.078h2.763l-9.195-14.636c-.367-.583-1.11-.778-1.656-.435-.546.343-.69 1.097-.324 1.68l8.413 13.39zM75.27 113.078h2.762l-7.45-11.854c-.365-.584-1.104-.782-1.652-.438-.547.345-.692 1.1-.326 1.68l6.666 10.612zM69.188 113.078h2.752l-5.725-9.11c-.366-.583-1.106-.78-1.65-.438-.547.344-.69 1.095-.323 1.678l4.946 7.87zM63.104 113.078h2.76l-4.005-6.374c-.366-.583-1.108-.778-1.654-.437-.55.346-.69 1.097-.324 1.68l3.222 5.13z"/><path fill="#FFF" d="M90.334 113.078h.74a16.437 16.437 0 0 1-.596-5.577l2.644 1.754a43.092 43.092 0 0 0-.987 3.824h1.63c.21-.952.448-1.922.747-2.905l4.393 2.905h3.166l-6.98-4.62a25.14 25.14 0 0 1 2.446-4.982l8.094 5.358-2.81 4.244h2.095l2.172-3.285 4.965 3.285h3.16l-7.158-4.738 3.115-4.715 7.214 4.77a27.62 27.62 0 0 1-1.965 4.683h1.877a30.42 30.42 0 0 0 1.552-3.71l2.603 1.724 2.946-1.852-.004-.003-2.506-3.99c.293 1.393.4 2.825.326 4.252l-2.817-1.86a42.454 42.454 0 0 0 1.06-4.67l-1.395-2.218c-.274 1.793-.622 3.807-1.17 5.89l-6.765-4.474 4.473-6.76c.068.056.14.108.207.163l-2.504-3.985c-8.125-3.58-17.887-.897-22.954 6.76a18.528 18.528 0 0 0-3.036 11.52l2.018 3.213zm16.258-5.704l-8.057-5.325c1.19-1.577 2.55-2.95 3.96-4.162l7.216 4.774-3.118 4.712zm8.55-12.928l-4.468 6.76-6.766-4.477c2.213-1.718 4.453-3.07 6.3-4.2 1.695.36 3.364.99 4.935 1.916zm-7.685-2.25c-1.632 1-3.367 2.168-5.055 3.54l-2.814-1.86a16.472 16.472 0 0 1 7.87-1.68zm-9.568 2.646l3.136 2.075c-1.38 1.247-2.7 2.642-3.873 4.213l-3.486-2.305a16.294 16.294 0 0 1 4.222-3.983zm-5.193 5.436l3.455 2.285c-1.025 1.594-1.82 3.28-2.45 4.977l-2.985-1.972c.34-1.82.996-3.612 1.98-5.29z"/><ellipse transform="rotate(-33.423 74.275 27.042)" fill="#FCD22E" cx="74.269" cy="27.041" rx=".029" ry=".044"/><path opacity=".2" d="M140.494 15.75l1.633 18.097c.928-1.806.95-7.815-1.633-18.097zM149.27 113.078l-7.144-79.23c-1.398 2.724-4.863-4.14-4.6-20.476l-90.844 8.092a2.617 2.617 0 0 0-2.377 2.84l7.906 88.774h97.06z"/><g><path fill="#FFE4C0" d="M153.864 113.078l-6.702-97.25a2.622 2.622 0 0 0-2.795-2.43l-90.95 6.267c-1.442.1-2.532 1.35-2.435 2.79l6.246 90.623h96.636z"/><path fill="#444" d="M153.864 113.078l-6.702-97.25a2.622 2.622 0 0 0-2.795-2.43l-7.838.54 6.83 99.14h10.504z"/><circle fill="#2CB740" cx="142.01" cy="19.296" r="2.074"/><path fill="#F16442" d="M142.586 27.666a2.073 2.073 0 0 1-.285-4.135 2.073 2.073 0 1 1 .286 4.136z"/><path fill="#FFF" d="M150.676 113.078l-5.664-82.195c-.078-1.137-1.068-2.004-2.21-1.926s-2.005 1.074-1.927 2.21l5.646 81.91h4.156z"/><path opacity=".2" fill="#444" d="M139.385 113.078l-5.206-75.562a1.343 1.343 0 1 0-2.68.184l5.195 75.378h2.69zM132.545 33.346a1.956 1.956 0 0 1-2.084-1.815l-.82-11.93a1.952 1.952 0 0 1 1.815-2.08 1.95 1.95 0 0 1 2.082 1.813l.82 11.93a1.952 1.952 0 0 1-1.812 2.083z"/><g opacity=".2" fill="#444"><path d="M129.832 113.078l-4.934-71.59c-.045-.65-.584-1.143-1.203-1.102-.617.043-1.082.606-1.037 1.256l4.924 71.436h2.25zM124.802 113.078l-4.91-71.245c-.044-.648-.58-1.144-1.2-1.1-.62.042-1.084.604-1.04 1.255l4.9 71.09h2.25zM119.84 113.078l-4.887-70.904c-.045-.65-.582-1.145-1.2-1.102-.618.044-1.08.605-1.036 1.256l4.875 70.75h2.247zM114.886 113.078l-4.864-70.564c-.044-.65-.582-1.144-1.2-1.102-.62.043-1.085.606-1.04 1.256l4.853 70.41h2.25z"/></g><g opacity=".2" fill="#444"><path d="M107.725 113.078l-6.332-91.876c-.045-.65-.582-1.146-1.203-1.102-.616.04-1.082.605-1.037 1.258l6.32 91.72h2.252zM102.694 113.078l-6.308-91.53c-.045-.652-.58-1.147-1.2-1.104-.62.042-1.083.606-1.04 1.258l6.298 91.376h2.25zM97.733 113.078l-6.284-91.19c-.046-.65-.584-1.145-1.202-1.103-.617.043-1.08.606-1.035 1.257l6.273 91.036h2.247zM92.777 113.078l-6.26-90.85c-.045-.652-.584-1.146-1.2-1.104-.62.044-1.086.605-1.04 1.258l6.25 90.695h2.25z"/></g><path opacity=".2" fill="#444" d="M87.91 113.078L81.672 22.56c-.045-.65-.582-1.145-1.204-1.1-.616.04-1.08.604-1.037 1.256l6.228 90.36h2.252zM82.88 113.078l-6.214-90.172c-.045-.65-.58-1.145-1.2-1.103-.62.042-1.085.607-1.04 1.257l6.203 90.018h2.25zM77.918 113.078l-6.19-89.83c-.046-.652-.583-1.147-1.2-1.105-.617.043-1.082.606-1.037 1.258l6.182 89.678h2.246zM72.964 113.078l-6.167-89.49c-.045-.65-.584-1.146-1.2-1.105-.622.044-1.085.607-1.04 1.257l6.157 89.338h2.25zM67.896 113.078l-6.144-89.144c-.045-.65-.58-1.146-1.2-1.103-.62.043-1.085.606-1.04 1.258l6.133 88.99h2.25zM62.934 113.078l-6.12-88.805c-.045-.648-.582-1.144-1.2-1.102-.62.044-1.082.607-1.037 1.258l6.11 88.65h2.247z"/><ellipse fill="#FCD22E" cx="128.205" cy="35.006" rx=".029" ry=".043"/><path opacity=".2" fill="#444" d="M107.996 37.74a1.29 1.29 0 0 1-1.375-1.196l-1.067-15.52a1.287 1.287 0 0 1 1.197-1.375l15.324-1.058c.71-.05 1.324.487 1.373 1.197l1.07 15.52a1.29 1.29 0 0 1-1.197 1.375l-15.324 1.056z"/></g><path opacity=".2" d="M165.6 113.078l14.736-64.7c.322-1.41-.637-2.814-2.05-3.138l-88.91-20.31a2.62 2.62 0 0 0-3.138 1.97L66.55 113.08h99.05z"/><g><path fill="#EDEDED" d="M168.218 113.078l16.9-62.258a2.62 2.62 0 0 0-1.847-3.214l-88.016-23.89a2.62 2.62 0 0 0-3.215 1.84l-23.76 87.522h99.938z"/><g opacity=".4"><g opacity=".4"><path d="M104.312 65.035a.802.802 0 0 1-.564-.985l7.662-28.228a.802.802 0 1 1 1.548.42l-7.663 28.228a.802.802 0 0 1-.983.565zM107.408 65.875a.803.803 0 0 1-.565-.985l7.662-28.228a.802.802 0 0 1 .985-.563.802.802 0 0 1 .565.983l-7.662 28.228a.803.803 0 0 1-.985.565zM110.506 66.717a.804.804 0 0 1-.565-.986l7.664-28.226a.8.8 0 0 1 .984-.564c.428.115.68.556.562.984l-7.662 28.227a.802.802 0 0 1-.982.567zM113.602 67.556a.802.802 0 0 1-.564-.985l7.662-28.226a.8.8 0 0 1 .985-.563.8.8 0 0 1 .563.984l-7.663 28.227a.8.8 0 0 1-.983.566zM116.697 68.396a.803.803 0 0 1-.564-.984l7.663-28.228a.8.8 0 0 1 .984-.564.8.8 0 0 1 .563.985l-7.662 28.227a.8.8 0 0 1-.983.564zM119.795 69.237a.802.802 0 0 1-.564-.985l7.663-28.227a.8.8 0 0 1 .984-.564.8.8 0 0 1 .562.985l-7.663 28.227a.8.8 0 0 1-.982.565zM122.89 70.078a.803.803 0 0 1-.563-.986l7.662-28.227a.802.802 0 1 1 1.548.42l-7.663 28.23a.804.804 0 0 1-.984.564z"/></g><path d="M92.02 61.7a.802.802 0 0 1-.563-.987l7.662-28.227a.8.8 0 1 1 1.548.42l-7.663 28.227a.803.803 0 0 1-.984.566zM95.12 62.54a.8.8 0 0 1-.565-.986l7.662-28.227a.8.8 0 1 1 1.548.42l-7.66 28.227a.804.804 0 0 1-.985.565zM98.215 63.38a.804.804 0 0 1-.565-.986l7.663-28.227a.8.8 0 1 1 1.547.42l-7.662 28.228a.8.8 0 0 1-.983.565zM101.31 64.22a.8.8 0 0 1-.56-.985l7.66-28.227a.8.8 0 1 1 1.546.42l-7.66 28.227a.802.802 0 0 1-.985.565z" opacity=".4"/></g><g opacity=".4"><g opacity=".4"><path d="M94.652 100.62a.804.804 0 0 1-.564-.985l7.664-28.227a.802.802 0 1 1 1.546.42l-7.662 28.228a.8.8 0 0 1-.984.564zM97.748 101.46a.803.803 0 0 1-.564-.984l7.662-28.23a.802.802 0 0 1 .986-.56.8.8 0 0 1 .564.983l-7.662 28.228a.806.806 0 0 1-.986.563zM100.846 102.3a.8.8 0 0 1-.563-.983l7.663-28.23a.802.802 0 1 1 1.546.42l-7.664 28.23a.8.8 0 0 1-.982.564zM103.94 103.143a.8.8 0 0 1-.56-.985l7.66-28.228a.8.8 0 0 1 .984-.564c.43.115.68.556.563.983l-7.662 28.228a.803.803 0 0 1-.984.565zM107.037 103.982a.802.802 0 0 1-.562-.985l7.662-28.23a.8.8 0 1 1 1.546.42l-7.66 28.23a.8.8 0 0 1-.985.565zM110.135 104.823a.803.803 0 0 1-.564-.985l7.663-28.228a.8.8 0 0 1 .985-.564.8.8 0 0 1 .563.984l-7.66 28.228a.804.804 0 0 1-.985.565zM113.23 105.663a.803.803 0 0 1-.564-.984l7.662-28.23a.803.803 0 0 1 .986-.563.8.8 0 0 1 .562.983l-7.662 28.228a.8.8 0 0 1-.984.565z"/></g><path d="M82.36 97.284a.803.803 0 0 1-.563-.985l7.662-28.23a.804.804 0 0 1 .985-.564.8.8 0 0 1 .562.985l-7.662 28.23a.8.8 0 0 1-.984.564zM85.46 98.125a.803.803 0 0 1-.565-.985l7.662-28.228a.8.8 0 1 1 1.548.42l-7.66 28.228a.804.804 0 0 1-.985.565zM88.555 98.965a.8.8 0 0 1-.564-.985l7.663-28.228a.8.8 0 0 1 .984-.564.8.8 0 0 1 .564.985L89.54 98.4a.803.803 0 0 1-.985.565zM91.65 99.806a.8.8 0 0 1-.562-.984l7.662-28.23a.8.8 0 0 1 .984-.562.8.8 0 0 1 .562.983l-7.662 28.23a.8.8 0 0 1-.984.563z" opacity=".4"/></g><g opacity=".4"><g opacity=".4"><path d="M92.102 113.078l1.504-5.54a.8.8 0 1 0-1.546-.42l-1.62 5.96h1.662zM95.428 113.078l1.275-4.7a.804.804 0 0 0-1.55-.42l-1.39 5.12h1.665zM98.75 113.078l1.05-3.86a.802.802 0 1 0-1.547-.42l-1.162 4.28h1.66zM102.075 113.078l.82-3.02a.8.8 0 1 0-1.546-.42l-.935 3.44h1.66zM105.4 113.078l.59-2.18a.8.8 0 1 0-1.546-.42l-.705 2.6h1.66z"/></g><path d="M78.905 113.078l2.41-8.878c.116-.427-.136-.867-.563-.983s-.87.137-.986.563l-2.523 9.298h1.662zM82.23 113.078l2.182-8.036a.8.8 0 0 0-1.548-.42l-2.295 8.456h1.66zM85.555 113.078l1.953-7.196a.8.8 0 1 0-1.548-.42l-2.066 7.615h1.66zM88.88 113.078l1.724-6.355a.802.802 0 0 0-1.546-.42l-1.84 6.775h1.66z" opacity=".4"/></g><path fill="#444" d="M168.218 113.078l16.9-62.258a2.62 2.62 0 0 0-1.847-3.214l-7.583-2.06-18.33 67.53h10.86z"/><circle fill="#2CB740" cx="179.111" cy="52.409" r="2.074"/><path fill="#F16442" d="M176.912 60.51a2.074 2.074 0 1 1 0 0z"/><path fill="#FFF" d="M164.922 113.078l13.228-48.733c.3-1.1-.352-2.244-1.46-2.545a2.076 2.076 0 0 0-2.543 1.458l-13.522 49.82h4.297z"/><ellipse transform="rotate(14.502 160.9 62.724)" fill="#FCD22E" cx="160.911" cy="62.731" rx=".029" ry=".043"/><path opacity=".3" d="M119.645 113.078l19.334-71.224-1.63-.444-19.454 71.668zM152.464 113.078l17.08-62.93-1.628-.44-17.2 63.37z"/><g opacity=".1"><path d="M137.45 50.85l2.224-8.19 12.06 3.273-2.222 8.19zM134.88 60.32l2.224-8.19 16.777 4.553-2.222 8.19zM129.89 78.73l2.22-8.19 19.205 5.21-2.222 8.19zM132.386 69.533l2.223-8.188 10.31 2.8-2.222 8.187z"/><g><path d="M127.37 88.008l2.225-8.19 15.323 4.16-2.225 8.192zM124.806 97.472l2.224-8.192 21.366 5.8-2.224 8.192zM141.906 113.078l-19.877-5.394-1.466 5.394zM122.298 106.69l2.225-8.19 13.077 3.55-2.225 8.192z"/></g></g><path fill="#9D9D9C" d="M131.28 89.53l7.255 21.907-3.735 1.187.374.454h9.393l.27-3.64-3.19 1.012-6.934-20.942 5.68-1.583 2.84 9.313-3.17 1.093 7.47 9.545 1.054-12.478-2.71.933-2.79-9.155 5.074-1.412-.01-.04.272-.06-3.087-9.323 6.33-1.924-.01-.032.233-.058-8.244-27.044-2.633.945 7.366 24.192-3.947 1.185-6.18-18.65-1.685.31-.914 3.37 5.52 15.948-4.57 1.374.753 1.99 2.08 6.826-9.072 2.497.92 2.26zm10.835-12.212l2.123 6.135-2.11.58-1.872-6.148 1.86-.567z"/></g></g></svg>