<svg xmlns="http://www.w3.org/2000/svg" width="216.144" height="206.655" viewBox="0 0 216.144 206.655"><path fill="#FBD12E" d="M94.875 5.48c7.56-7.308 19.924-7.308 27.48 0 7.557 7.31 22.254 12.087 32.662 10.615 10.407-1.472 20.41 5.796 22.23 16.15 1.816 10.354 10.9 22.856 20.185 27.783 9.285 4.928 13.104 16.686 8.486 26.13-4.617 9.442-4.617 24.896 0 34.338 4.618 9.443.8 21.2-8.486 26.13-9.283 4.926-18.368 17.43-20.186 27.783-1.818 10.353-11.82 17.62-22.23 16.148-10.407-1.472-25.104 3.305-32.66 10.614-7.558 7.31-19.923 7.31-27.48 0-7.558-7.31-22.255-12.086-32.663-10.614-10.407 1.472-20.41-5.795-22.227-16.15-1.82-10.353-10.902-22.856-20.188-27.783-9.283-4.928-13.104-16.686-8.486-26.13 4.617-9.44 4.617-24.895 0-34.337-4.618-9.444-.797-21.202 8.486-26.13 9.285-4.927 18.368-17.43 20.188-27.783 1.816-10.354 11.82-17.622 22.227-16.15C72.62 17.567 87.318 12.79 94.875 5.48z"/><circle fill="#7F7F7F" cx="108.616" cy="103.327" r="86.46"/><circle fill="#FCD22E" cx="108.616" cy="103.327" r="87.248"/><circle fill="#FBBD01" cx="108.616" cy="103.327" r="85.428"/><circle fill="#FAA700" cx="108.616" cy="103.327" r="60.928"/><g fill="#FFF"><path d="M39.06 126.38c-3.206.763-5.973-1.14-6.718-4.268-.548-2.3.387-3.927 1.51-4.97l1.393 1.683c-.74.64-1.19 1.738-.932 2.817.45 1.893 2.233 2.922 4.203 2.453 1.97-.47 3.098-2.193 2.646-4.086-.258-1.08-1.138-1.86-2.103-2.094l.468-2.13c1.477.443 3.057 1.455 3.604 3.754.746 3.13-.866 6.075-4.072 6.84zM41.793 114.242l-10.693.807-.172-2.277 6.91-.52-7.283-4.435-.176-2.342 10.69-.805.172 2.278-7.165.54 7.55 4.557.166 2.197zM35.732 103.02c-3.282-.28-5.312-2.953-5.04-6.157.2-2.354 1.598-3.606 2.99-4.246l.795 2.037c-.902.374-1.673 1.276-1.767 2.38-.166 1.94 1.203 3.475 3.22 3.647 2.02.174 3.63-1.11 3.794-3.047.094-1.104-.497-2.123-1.34-2.646l1.11-1.875c1.266.883 2.448 2.34 2.247 4.693-.27 3.2-2.724 5.492-6.008 5.215zM42.772 89.94l-8.485-1.992L33.57 91l-1.956-.46 1.954-8.326 1.957.458-.713 3.037 8.485 1.99-.525 2.24zM44.38 83.584l-10.024-3.81 2.695-7.093 1.88.715-1.884 4.96 2.118.805 1.846-4.854 1.878.713-1.844 4.853 2.27.862 1.884-4.96 1.88.714-2.697 7.094zM52.22 67.103l-6.495-3.77 4.978 6.384-.5.86-8.014-1.154 6.494 3.77-1.146 1.977-9.276-5.386 1.606-2.77 6.912 1.003-4.296-5.507 1.614-2.78 9.276 5.384-1.154 1.99zM59.2 58.132l-1.815-.664-2.958 3.52.956 1.687-1.675 1.995-5.544-10.076 1.84-2.19 10.872 3.733-1.676 1.995zm-8.367-3.165l2.457 4.25 2.152-2.562-4.61-1.688zM66.21 50.585l-.33-2c.48.04 1.044-.02 1.467-.312.647-.448.756-.914.65-1.8l-7.68-4.147 2.128-1.475 5.42 3.172-1.043-6.2 2.13-1.472 1.294 9.642c.2 1.446-.027 2.758-1.6 3.847-.808.556-1.792.83-2.436.745zM82.21 41.705l-3.78-7.854-4.565 2.198 3.782 7.854-2.058.99-4.655-9.665 8.695-4.186 4.653 9.667-2.072.998zM85.9 40.15l-3.11-10.268 4.802-1.455c2.232-.676 3.905.464 4.45 2.265.542 1.786-.228 3.684-2.444 4.354l-2.617.794 1.106 3.647-2.186.664zm3.91-8.78c-.26-.863-1.065-1.19-1.927-.93l-2.325.703.84 2.772 2.324-.704c.862-.26 1.345-.994 1.09-1.84zM101.355 36.482l-.946-1.685-4.537.748-.37 1.902-2.57.424 2.347-11.255 2.823-.466 5.82 9.908-2.568.424zm-4.293-7.845l-.898 4.825 3.3-.545-2.402-4.28zM104.567 36.1l-.132-10.73 5.646-.07c2.045-.024 3.106 1.266 3.124 2.697.017 1.353-.81 2.263-1.82 2.485 1.145.16 2.076 1.26 2.093 2.61.02 1.61-1.042 2.91-3.085 2.936l-5.825.072zm6.31-7.673c-.01-.675-.497-1.167-1.27-1.157l-2.864.035.03 2.332 2.862-.035c.773-.01 1.25-.498 1.242-1.175zm.263 4.373c-.008-.676-.497-1.248-1.4-1.236l-2.942.036.03 2.493 2.944-.037c.868-.01 1.377-.483 1.368-1.256zM114.457 34.153c1.065.157 1.77-.325 2.515-3.076l1.416-5.335 7.54 1.105-1.554 10.612-2.275-.335 1.263-8.622-3.23-.475-.94 3.536c-1.155 4.332-2.864 4.91-5.028 4.593l.292-2.004zM126.034 37.93l3.13-10.264 7.265 2.215-.588 1.925-5.078-1.55-.662 2.17 4.97 1.517-.586 1.924-4.97-1.517-.71 2.323 5.08 1.55-.588 1.922-7.264-2.214zM141.266 43.757l1.937-4.062-4.57-2.18-1.938 4.063-2.06-.98 4.612-9.68 2.062.982-1.813 3.802 4.57 2.18 1.812-3.803 2.074.988-4.614 9.678-2.074-.99zM144.817 45.613l6.146-8.79 1.872 1.31-3.972 5.68 8.045-2.834 1.924 1.344-6.146 8.792-1.873-1.31 4.12-5.89-8.31 2.96-1.806-1.263zM153.664 51.938l4.566-1.276c-.646-.998-.803-2.553.51-3.922 1.38-1.438 3.38-1.55 4.992 0l3.62 3.472-7.425 7.737-1.647-1.58 2.638-2.75-1.194-1.147-4.17 1.28-1.89-1.815zm8.647.232l2.003-2.088-1.73-1.66c-.66-.634-1.537-.718-2.16-.067-.623.648-.504 1.522.158 2.156l1.73 1.66zM170.32 62.28c2.828-1.69 6.04-.708 7.69 2.052 1.215 2.028.813 3.862.056 5.195l-1.836-1.188c.515-.833.612-2.016.043-2.968-1-1.67-3.01-2.116-4.748-1.075-1.738 1.04-2.295 3.02-1.297 4.69.57.953 1.645 1.434 2.636 1.366l.192 2.17c-1.54.024-3.353-.467-4.567-2.495-1.65-2.76-.998-6.054 1.83-7.747zM174.08 81.46l1.437-1.293-1.725-4.265-1.938.056-.977-2.415 11.5-.178 1.072 2.654-8.394 7.853-.977-2.414zm6.716-5.91l-4.905.18 1.255 3.102 3.65-3.282zM175.175 84.46l10.456-2.386.508 2.225-6.755 1.54 7.86 3.303.522 2.29-10.455 2.385-.508-2.226 7.007-1.6-8.146-3.386-.49-2.146zm12.01 2.19a3.545 3.545 0 0 1 .75-3.074l.938.71c-.5.56-.73 1.288-.542 2.103.18.782.687 1.343 1.398 1.643l-.537 1.046a3.473 3.473 0 0 1-2.004-2.43zM177.676 98.045l8.687-.67-.242-3.125 2.005-.154.658 8.525-2.003.155-.24-3.11-8.687.672-.177-2.292zM183.537 104.01c3.225.225 5.37 2.743 5.146 5.967-.225 3.24-2.698 5.44-5.923 5.215-3.226-.224-5.372-2.742-5.146-5.983.224-3.227 2.698-5.425 5.923-5.2zm-.614 8.84c2.006.14 3.603-1.04 3.74-3.014.137-1.973-1.283-3.345-3.29-3.483-1.988-.14-3.6 1.022-3.737 2.996-.137 1.97 1.298 3.362 3.287 3.5zM174.896 125l7.27 1.892-6.508-4.82.252-.965 8.03-1.032-7.27-1.895.577-2.21 10.384 2.705-.808 3.097-6.93.89 5.617 4.155-.813 3.113-10.383-2.705.582-2.226z"/></g><path fill="#FFF" d="M80.887 137.95L71.29 124.82v13.127h-4.285v-20.13h4.406l9.326 12.646V117.82h4.285v20.13h-4.133zm7.032-15.542c0-2.687 1.99-4.98 5.187-4.98 3.26 0 5.22 2.294 5.22 4.98 0 2.686-1.96 4.98-5.22 4.98-3.197 0-5.188-2.294-5.188-4.98zm7.542 0c0-1.66-.875-2.687-2.354-2.687-1.478 0-2.323 1.028-2.323 2.688 0 1.658.846 2.746 2.323 2.746 1.48 0 2.354-1.088 2.354-2.746z"/><path fill="#CE2828" d="M32.21 191.605H0l6-14.5-6-13.5h32.21zM183.933 191.606h32.21l-6-14.5 6-13.5h-32.21z"/><path fill="#FFF" d="M89.08 69.67v-5.876c9.485-.48 18.124-3.023 25.915-7.638h2.938v64.952c0 2.83.652 5.3 1.958 7.41 1.307 2.11 4.482 3.165 9.53 3.165v6.268H90.906v-6.136c7.615 0 11.424-3.698 11.424-11.098V78.09c0-5.613-3.177-8.42-9.53-8.42h-3.72z"/><path fill="#9B0A20" d="M32.21 191.605l-14.07-11.802 14.06-8.22zM183.933 191.605l14.072-11.802-14.063-8.22z"/><path opacity=".05" d="M205.918 86.16c4.618-9.445.8-21.203-8.486-26.13-9.283-4.928-18.368-17.43-20.186-27.784-.868-4.943-3.614-9.168-7.367-12.09L45.743 185.105c4.266 4.105 10.29 6.33 16.47 5.455 10.407-1.473 25.104 3.304 32.66 10.613 7.56 7.31 19.925 7.31 27.48 0 7.558-7.31 22.255-12.086 32.663-10.614 10.407 1.47 20.41-5.796 22.23-16.15 1.816-10.354 10.9-22.857 20.185-27.784 9.285-4.928 13.104-16.686 8.486-26.13-4.617-9.44-4.617-24.894 0-34.337z"/><path opacity=".1" d="M40.338 175.582v.368c.962 3.676 2.97 6.89 5.643 9.382h125.27c2.763-2.573 4.807-5.922 5.73-9.75H40.338z"/><path fill="#FC3F3F" d="M18.14 145.36h179.865v34.442H18.14z"/><g fill="#FFF"><path d="M58.973 171.86v-18.41h9.688c3.506 0 5.3 2.234 5.3 4.69 0 2.32-1.435 3.865-3.174 4.225 1.96.304 3.533 2.208 3.533 4.526 0 2.762-1.85 4.97-5.355 4.97h-9.992zm10.985-13.028c0-1.16-.828-2.016-2.152-2.016h-4.914v4.003h4.914c1.324 0 2.152-.83 2.152-1.988zm.36 7.508c0-1.16-.83-2.153-2.375-2.153H62.89v4.278h5.053c1.49 0 2.374-.8 2.374-2.125zM100.346 171.86v-12.89l-5.19 12.89h-1.71l-5.19-12.89v12.89h-3.92v-18.41h5.493l4.47 11.124 4.473-11.124h5.52v18.41h-3.947zM107.934 171.86v-18.41h3.92v11.895l8.528-11.896h4.03v18.41h-3.92v-12.34l-8.777 12.34h-3.78zM128.054 171.86v-18.41h8.61c4.004 0 6.185 2.704 6.185 5.934 0 3.202-2.21 5.935-6.185 5.935h-4.692v6.54h-3.92zm10.792-12.476c0-1.546-1.16-2.484-2.705-2.484h-4.167v4.97h4.168c1.547-.002 2.706-.968 2.706-2.486zM145.275 171.86v-18.41h13.028v3.45h-9.11v3.89h8.917v3.452h-8.916v4.168h9.11v3.45h-13.03z"/></g></svg>