<svg xmlns="http://www.w3.org/2000/svg" width="69.501" height="69.499" viewBox="0 0 69.501 69.499"><g fill="#FFF"><path d="M34.752 0C15.56 0 0 15.558 0 34.75 0 53.94 15.56 69.5 34.752 69.5c19.19 0 34.75-15.56 34.75-34.75C69.5 15.56 53.94 0 34.75 0zm0 67.92c-18.32 0-33.17-14.853-33.17-33.17 0-18.32 14.85-33.17 33.17-33.17 18.317 0 33.168 14.85 33.168 33.17 0 18.317-14.85 33.17-33.168 33.17z"/><path d="M7.703 22.708h.25l13.998 38.586h-.128c-5.8-2.69-10.38-7.232-13.746-13.62-1.93-4.372-2.896-8.702-2.896-12.987 0-3.87.84-7.862 2.523-11.98zM34.813 5.18c7.483 0 14.125 2.603 19.925 7.815v.126l-.378-.125c-2.354 0-3.995 1.428-4.92 4.29v1.132c0 1.682 1.18 4.29 3.53 7.82 1.18 2.268 1.768 4.707 1.768 7.312 0 2.187-1.053 6.262-3.155 12.23l-2.015 6.938c-.166 0-1.262-3.152-3.28-9.458l-7.564-22.447h.123c2.944 0 4.416-.38 4.416-1.136V19.3c-.167-.588-.463-.926-.882-1.012l-8.195.38-8.324-.38c-.42.257-.627.632-.627 1.137h-.13c0 .924 1.22 1.388 3.658 1.388l.63.128 4.54 12.735-6.433 19.292h-.124L16.656 20.942v-.128h.125c2.86 0 4.287-.337 4.287-1.01v-.378c0-.502-.293-.88-.882-1.137l-9.585.378h-.5v-.252c.838-1.512 2.815-3.7 5.926-6.555 5.63-4.455 11.893-6.68 18.787-6.68z"/><path d="M35.19 37.206c.167 0 1.347 3.155 3.53 9.46l5.928 16.012h-.125c-3.28 1.097-6.554 1.642-9.836 1.642-2.944 0-5.717-.423-8.32-1.262l8.824-25.852zM60.54 20.562h.25c2.353 4.707 3.53 9.457 3.53 14.25 0 8.576-3.363 15.973-10.09 22.194-1.596 1.346-3.112 2.438-4.538 3.278h-.124v-.127L59.905 30.02c.592-2.437.885-4.58.885-6.43l-.25-3.028z"/></g></svg>