<svg xmlns="http://www.w3.org/2000/svg" width="221.1" height="117.69" viewBox="0 0 221.1 117.69"><path fill="#76D9FC" d="M218.29 117.69C215.84 59.517 167.92 13.105 109.15 13.105 50.38 13.105 2.448 59.518 0 117.69h218.29z"/><path fill-rule="evenodd" clip-rule="evenodd" fill="#00A936" d="M55.52 112.77c.176.16.29.412.448.44h.23c1.086.308 2.145-.79 1.318-.86-.32-.058-.95.024-1.995.42zM80.826 103.23c-1.73.294-2.146 1.45 1.572 4.006.46-.125 3.657-.846 1.78 1.09 5.775-3.445-.402-5.617-3.352-5.095zM80.826 78.553c6.218-2.527 7.65-18.905.246-18.422-.48 0-.96.24-1.566.467 3.1 5.715-4.05 12.988 1.32 17.956zM152.208 92.12c.492-3.417-4.94-5.932-7.39-5.79-1.426.1-1.703 1.116.932 3.574-2.462 5.815 4.103 6.125 6.458 2.215zM96.615 49.486c1.794-.835 2.654-3.81 0-3.81-.48-.132-.84-.257-1.322-.23-.477.016-.96.186-1.31.23-5.243 1.044-3.65 9.737 2.632 3.81z"/><path fill-rule="evenodd" clip-rule="evenodd" fill="#00A936" d="M103.963 47.452c-7.588.96-15.244 8.29-8.188 15.542 5.055 6.312-7.298 19.188 4.425 22.492 4.65-10.407 17.38-18.65 14.233-31.34-1.315-5.41-5.896-7.273-10.47-6.694z"/><path fill="#00A936" d="M48.568 117.69c2.23-2.607 4.758-4.823 8.09-5.55 4.96-4.307 18.388.32 13.53-8.472 4.8-4.562 18.882-4.407 11.992-15.08-2.31-10.403-15.1-15.43-19.304-3.584-11.577 3.104-6.908-22.01 4.87-18.663 8.538.495 7.376-6.93 2.202-9.315 0-.366-.112-.568-.438-.24-.947-.355-1.94-.72-3.106-.664-11.546-6.38 11.554-22.645-3.75-27.797C45.865 42.67 20.25 65.238 9.995 86.33c-3.61 10.322-3.932 20.694-3.644 31.36h42.218zM119.3 24.81c3.58 11.506 25.02.225 23.988 13.085.167.186.494.48.675.695-.34.25.25 2.595.68.633 3.705 4.194 11.502 12.892 3.316 11.805-10.85-1.485-8.027 19.89-.21 23.77 7.444 4.008 11.63-4.037 3.98-7.992-1.034-10.02 16.705 6.156 8.88 11.52-.313.216-.568.467-.87.692.36-1.438-.514-.084-.488.243-8.9 6.45-3.824 21.64-7.283 31.762-1.49 3.308-1.352 5.453-.34 6.67h7.677c3.366-1.803 6.17-5.4 4.86-9.79-3.95-9.91 16.41-5.392 12.007-12.438 12.346 6.552 11.178-11.035 6.02-16.91 2.407-9.402 8.752 1.1 5.752 6.223.487 4.846 4.664 5.962 8.017 7.344.15.112.326.132.656.212 2.93 1.398 4.687 3.19 1.524 8.696-3.626 12.227-15.924 12.903-25.975 10.643-3.2 1.327-5.58 3.46-7.52 6.022h53.598a175.91 175.91 0 0 0-.304-4.255c-.078-.735-.135-1.48-.22-2.215-6.24 3.418-17.346-15.374-5.987-6.44 2.22-.153 3.614-.79 4.666-1.75-1.31-6.844-3.09-13.48-5.58-19.808-1.12-1.325-2.19-2.566-3.105-3.314.076-1.367-.06-2.683-.224-3.994-.055-.07.065-.17 0-.24-17.81-36.65-55.4-61.962-98.866-61.962-2.964 0-5.978.183-8.906.426-1.518.323-3.197.52-4.906.678-.586.056-1.172.126-1.752.225-6.133.863-11.992 1.933-17.75 3.755 15.02-1.103 30.442-.71 43.987 6.013z"/><g opacity=".2" fill="#010000"><path d="M5.21 88.688c-.03.087-.052.144-.07.212 1.007-.054 1.903-.125 1.903-.212H5.21z"/><path d="M16.65 117.69h3.26c.42-11.527 2.345-22.59 5.572-32.896 3.507-.428 7.684-.864 12.662-1.3 8.793-.75 18.846-1.34 29.685-1.767-1.767 11.354-2.783 23.47-2.99 35.963h3.262c.208-12.552 1.24-24.732 3.054-36.087 11.38-.397 23.562-.624 36.047-.637v36.724h3.265V80.967c12.498.028 24.688.253 36.067.66 1.8 11.346 2.824 23.514 3.034 36.063h3.26c-.2-12.48-1.22-24.598-2.984-35.947 10.65.423 20.528 1.015 29.18 1.75 5.23.453 9.573.92 13.19 1.367 3.216 10.296 5.127 21.33 5.535 32.83h3.273c-.394-11.305-2.202-22.174-5.248-32.35 12.612 1.822 14.265 3.475 14.44 3.7-.034-.027-.1-.156-.1-.354h2.98c-.235-.704-.473-1.41-.72-2.117-1.314-1.215-3.99-2.205-8.392-3.15-2.572-.55-5.685-1.087-9.312-1.563-4.205-12.693-10.33-24.24-17.954-34.11 7.65 1.966 13.75 4.266 17.97 6.68-1.673-2.09-3.395-4.134-5.222-6.114-4.368-1.72-9.176-3.118-13.682-4.222-.826-.21-1.664-.394-2.498-.59-11.646-13.582-26.28-23.52-42.592-28.262a109.407 109.407 0 0 0-21.542-2.133c-8.188 0-16.165.935-23.85 2.643-15.62 4.925-29.653 14.623-40.885 27.725-.882.21-1.762.407-2.617.618-4.122 1.006-8.493 2.264-12.552 3.787a113.133 113.133 0 0 0-5.09 5.86c4.167-2.177 9.856-4.235 16.816-6.03-7.61 9.87-13.736 21.385-17.95 34.08-3.853.506-7.143 1.056-9.832 1.635-3.15.68-5.415 1.372-6.924 2.175-.32.86-.608 1.723-.884 2.584 3.094-.722 8.554-1.778 16.544-2.91-3.055 10.193-4.877 21.084-5.275 32.42zm154.883-71.196c8.296 9.896 14.98 21.74 19.54 34.897-2.874-.354-6-.664-9.402-.988-9.458-.847-20.432-1.527-32.37-1.992-2.11-12.31-5.132-23.66-8.962-33.47-.41-1.06-.834-2.1-1.273-3.136 11.908 1.005 22.94 2.57 32.468 4.69zm-3.678-4.14c-9.112-1.788-19.36-3.145-30.32-3.99-4.746-10.196-10.258-17.608-16.23-21.9 17.71 2.997 33.775 12.27 46.55 25.89zm-57.388-26.86c8.488.886 16.583 8.78 23.32 22.6a376.99 376.99 0 0 0-23.32-.805V15.492zm0 25.11c8.553.03 16.91.34 24.906.922a115.036 115.036 0 0 1 1.94 4.642c3.685 9.417 6.595 20.287 8.656 32.114-11.195-.393-23.176-.605-35.504-.63V40.604zm-3.265 37.047c-12.32.016-24.293.224-35.495.62 2.054-11.827 4.97-22.686 8.658-32.103a98.356 98.356 0 0 1 1.938-4.658 373.09 373.09 0 0 1 24.9-.905V77.65zm0-40.36c-7.975.025-15.794.293-23.32.803 6.747-13.818 14.845-21.713 23.32-22.6V37.29zM96.368 16.464c-5.973 4.29-11.476 11.703-16.228 21.898-10.956.847-21.197 2.17-30.31 3.97C62.62 28.72 78.667 19.445 96.368 16.464zM46.155 46.467c9.534-2.105 20.552-3.674 32.462-4.662a81.92 81.92 0 0 0-1.293 3.137c-3.82 9.81-6.832 21.13-8.948 33.456-12.134.45-23.288 1.145-32.887 2.005-3.187.3-6.147.608-8.873.928 4.57-13.142 11.258-24.98 19.538-34.863z"/></g><path fill="#010000" d="M43.876 60.013c0 2.777-2.14 5.028-4.784 5.028H10.934c-4.877 0-8.834-4.15-8.834-9.28 0-5.126 3.957-9.282 8.834-9.282.504 0 .996.05 1.477.133 1.995-3.166 5.42-5.26 9.308-5.26 5.018 0 9.52 3.512 10.922 8.3.21-.02.158-.062.37-.062 3.325 0 6.128 2.32 7.042 5.502 2.182.463 3.824 2.49 3.824 4.923z" opacity=".2"/><path fill="#D4F2FC" d="M42.22 56.697c0 2.776-2.142 5.027-4.784 5.027H9.276c-4.878 0-8.833-4.15-8.833-9.278 0-5.125 3.955-9.28 8.834-9.28.504 0 .994.05 1.477.13 1.994-3.166 5.418-5.26 9.307-5.26 5.017 0 9.522 3.51 10.923 8.298.207-.014.158-.06.37-.06 3.325 0 6.126 2.322 7.04 5.5 2.183.466 3.828 2.496 3.828 4.923z"/><path fill="#010000" d="M34.75 103.586c0 1.384-1.067 2.506-2.387 2.506H18.33c-2.432 0-4.404-2.07-4.404-4.627 0-2.555 1.973-4.626 4.403-4.626.25 0 .495.023.735.065.993-1.58 2.7-2.623 4.638-2.623 2.502 0 4.747 1.75 5.444 4.138.105-.01.08-.03.186-.03 1.656 0 3.054 1.155 3.51 2.742 1.088.23 1.906 1.24 1.906 2.454z" opacity=".2"/><path fill="#D4F2FC" d="M33.924 101.933c0 1.384-1.068 2.506-2.386 2.506H17.504c-2.432 0-4.403-2.07-4.403-4.625s1.973-4.626 4.404-4.626c.25 0 .495.023.736.064.994-1.58 2.7-2.623 4.638-2.623 2.5 0 4.747 1.75 5.444 4.138.104-.007.08-.03.185-.03 1.657 0 3.054 1.158 3.51 2.742 1.087.23 1.907 1.243 1.907 2.453z"/><path fill="#010000" d="M212.646 90.566c0 1.665-1.282 3.015-2.87 3.015H192.9c-2.926 0-5.298-2.488-5.298-5.562 0-3.073 2.372-5.565 5.297-5.565.3 0 .595.03.884.08 1.195-1.898 3.247-3.154 5.578-3.154 3.01 0 5.708 2.104 6.548 4.975.126-.01.095-.036.223-.036 1.992 0 3.672 1.39 4.22 3.298 1.31.276 2.293 1.49 2.293 2.948z" opacity=".2"/><path fill="#D4F2FC" d="M211.653 88.58c0 1.664-1.284 3.014-2.868 3.014h-16.88c-2.924 0-5.295-2.49-5.295-5.562 0-3.073 2.37-5.564 5.296-5.564.3 0 .596.03.885.08 1.196-1.9 3.25-3.154 5.58-3.154 3.007 0 5.708 2.104 6.547 4.975.124-.01.095-.037.222-.037 1.992 0 3.672 1.393 4.22 3.296 1.307.277 2.293 1.494 2.293 2.95zM191.773 45.317c0 1.95 1.504 3.53 3.36 3.53h19.765c3.426 0 6.2-2.916 6.2-6.514 0-3.6-2.774-6.517-6.2-6.517-.353 0-.697.034-1.037.094-1.397-2.225-3.802-3.693-6.53-3.693-3.522 0-6.686 2.464-7.668 5.825-.145-.01-.11-.042-.26-.042-2.334 0-4.3 1.63-4.942 3.86-1.532.328-2.687 1.754-2.687 3.457z"/><path opacity=".3" fill="#464646" d="M38.027 39.352L29.03 117.22h19.778zM176.2 39.352l-8.996 77.867h19.776z"/><path fill="#8E8E8E" d="M157.273 116.22v-18"/><path opacity=".6" fill="#FFF" d="M157.273 102.22v-4"/><path fill="#D8D8D8" d="M177.273 30.96c0-2.845-2.054-5.74-4.898-5.74H43.67c-2.847 0-5.397 2.895-5.397 5.74v78.928c0 2.844 2.55 5.33 5.396 5.33h128.705c2.845 0 4.898-2.486 4.898-5.33v-78.93z"/><path fill="#C4C4C4" d="M184.964 115.335c0 1.21-.978 2.19-2.19 2.19H32.698a2.19 2.19 0 0 1-2.19-2.19v-2.082c0-1.21.983-2.19 2.19-2.19h150.077c1.212 0 2.19.98 2.19 2.19v2.082z"/><path opacity=".18" fill="#010101" d="M129.033 111.94v1.09c0 .636-.514 1.147-1.146 1.147H87.583c-.63 0-1.144-.51-1.144-1.146v-1.09"/><path fill="#4C4C4C" d="M109.803 30.336c0 .81-.652 1.46-1.458 1.46a1.457 1.457 0 0 1 0-2.917c.805 0 1.458.65 1.458 1.456z"/><path fill-rule="evenodd" clip-rule="evenodd" fill="#2CB740" d="M45.146 35.064h125.42v69.34H45.145z"/><path fill-rule="evenodd" clip-rule="evenodd" fill="#464646" d="M45.146 34.22h125.42v8.838H45.145z"/><path fill="#FCD22E" d="M54.195 38.64a1.893 1.893 0 1 1-1.89-1.894c1.045 0 1.89.85 1.89 1.895z"/><path fill="#FF4848" d="M59.97 38.64a1.895 1.895 0 0 1-3.788 0 1.895 1.895 0 0 1 3.788 0z"/><path fill-rule="evenodd" clip-rule="evenodd" fill="#FFF" d="M64.215 38.64c0 .92.746 1.668 1.667 1.668H166.57a1.665 1.665 0 0 0 0-3.333H65.88c-.92 0-1.667.747-1.667 1.667z"/><path opacity=".2" fill-rule="evenodd" clip-rule="evenodd" fill="#FFF" d="M175.273 111.22v-82.5c0-.66-.785-3.5-3.377-3.5h-75.86c11.772 19 34.925 57 52.398 86h26.84z"/><g fill-rule="evenodd" clip-rule="evenodd" fill="#FFF"><path d="M123.6 57.062a2.33 2.33 0 0 0-3.22.704L106.83 78.972l-9.09-13.132a2.33 2.33 0 1 0-3.83 2.657L104.638 84c.162.49.48.938.948 1.236a2.33 2.33 0 0 0 3.222-.704l15.495-24.252a2.327 2.327 0 0 0-.702-3.218z"/><path d="M106.884 54.957c-10.403 0-18.836 8.434-18.836 18.836 0 10.404 8.433 18.838 18.836 18.838s18.837-8.433 18.837-18.837c0-10.402-8.433-18.836-18.836-18.836zm0 35.756c-9.343 0-16.917-7.577-16.917-16.92 0-9.342 7.574-16.916 16.917-16.916 9.344 0 16.918 7.574 16.918 16.916 0 9.343-7.574 16.92-16.918 16.92z"/></g><g><path fill="#FCD22E" d="M163.753 19.164A34.792 34.792 0 0 0 181.89 38.46a34.778 34.778 0 0 0-18.137 19.297 34.763 34.763 0 0 0-18.145-19.296 34.778 34.778 0 0 0 18.145-19.296z"/><path fill="#FD7600" d="M163.753 28.74a17.535 17.535 0 0 0 9.147 9.722 17.46 17.46 0 0 0-9.147 9.718 17.476 17.476 0 0 0-9.133-9.718 17.547 17.547 0 0 0 9.133-9.72z"/><path fill="#FCD22E" d="M149.325 5.476a17.012 17.012 0 0 0 8.866 9.436 16.99 16.99 0 0 0-8.865 9.432 16.97 16.97 0 0 0-8.864-9.432 16.992 16.992 0 0 0 8.865-9.436z"/><path fill="#FD7600" d="M149.325 10.157a8.587 8.587 0 0 0 4.47 4.755 8.528 8.528 0 0 0-4.47 4.75 8.508 8.508 0 0 0-4.463-4.75 8.566 8.566 0 0 0 4.463-4.755z"/><g><path fill="#FCD22E" d="M180.156 0a24.534 24.534 0 0 0 12.796 13.614 24.53 24.53 0 0 0-12.796 13.615 24.53 24.53 0 0 0-12.8-13.616A24.53 24.53 0 0 0 180.156 0z"/><path fill="#FD7600" d="M180.156 6.76a12.37 12.37 0 0 0 6.452 6.854 12.31 12.31 0 0 0-6.452 6.854 12.314 12.314 0 0 0-6.446-6.854 12.373 12.373 0 0 0 6.446-6.854z"/></g></g></svg>