<svg xmlns="http://www.w3.org/2000/svg" width="480" height="144" viewBox="0 0 480 144"><path fill="#FC5E5E" d="M0 0h479.88v144H0z"/><path opacity=".3" fill="#444" d="M206.085 144h83.63l42.214-38.818 7.998-7.355a3.617 3.617 0 0 0 .212-5.115L254.654 0h-47.866l-17.015 15.646-52.554 48.328a3.615 3.615 0 0 0-.212 5.113L206.085 144z"/><path fill="#EDEDED" d="M212.92 144h79.62l52.383-48.17a3.616 3.616 0 0 0 .212-5.114L261.49 0h-51.877l-67.4 61.978a3.614 3.614 0 0 0-.21 5.113L212.92 144z"/><path fill="#444" d="M261.49 0h-19.712l95.146 103.187 8-7.355a3.616 3.616 0 0 0 .21-5.115L261.49 0z"/><path fill="#FFF" d="M255.504 0h-7.796l86.427 93.732a2.873 2.873 0 0 0 4.05.167 2.86 2.86 0 0 0 .168-4.048L255.503 0z"/><path fill="#00A9D0" d="M209.612 0l-14.844 13.65 109.905 119.194 32.392-29.787L242.04 0z"/><ellipse transform="rotate(-41.96 236.26 13.913)" fill="#FCD22E" cx="236.255" cy="13.908" rx=".039" ry=".058"/><g opacity=".3" fill="#444"><path d="M198.73 71.08L177.27 47.81l23.3-21.428 21.458 23.27zM222.307 96.65L200.85 73.376l23.3-21.426 21.457 23.273zM245.567 121.875l-21.457-23.27 23.302-21.427 21.458 23.27zM272.89 144l19.555-17.983-21.456-23.27-23.302 21.43L265.968 144z"/><g><path d="M173.58 94.206l-21.458-23.27 23.3-21.427 21.46 23.27zM197.156 119.776L175.7 96.506 199 75.078l21.457 23.27zM221.51 144l22.21-20.423-21.458-23.272-23.303 21.427L219.49 144zM262.55 144l-16.71-18.125L226.126 144z"/></g></g><path opacity=".4" fill="#444" d="M170.69 48.965l.706-6.213 6.258-.19z"/><path opacity=".3" fill="#FFF" d="M236.797 26.77c-4.842 4.454-12.386 4.142-16.844-.693-4.46-4.836-4.148-12.368.694-16.82 4.843-4.455 12.383-4.143 16.842.694 4.457 4.836 4.15 12.366-.693 16.82z"/><g opacity=".3" fill="#FFF"><path d="M320.55 100.063c-.727.67-1.89.59-2.595-.175l-66.877-72.53c-.707-.764-.687-1.927.038-2.595.73-.67 1.893-.594 2.598.17l66.877 72.53c.706.765.69 1.93-.04 2.6zM314.662 105.478c-.73.672-1.894.592-2.598-.17l-66.88-72.53c-.703-.766-.684-1.93.045-2.6.73-.67 1.887-.59 2.59.175l66.88 72.53c.704.763.69 1.925-.038 2.595zM308.85 110.822c-.727.67-1.89.588-2.592-.176l-66.88-72.53c-.704-.764-.687-1.925.04-2.595.727-.667 1.888-.588 2.593.176l66.88 72.53c.702.764.687 1.927-.04 2.596zM303.045 116.16c-.726.67-1.892.59-2.595-.174l-66.878-72.53c-.706-.765-.686-1.928.04-2.598.73-.668 1.89-.59 2.594.175l66.88 72.53c.703.763.687 1.927-.04 2.596z"/></g><path opacity=".3" fill="#444" d="M207.853 41.188l-2.945 7.627 4.62 6.747-8.172-.44-4.997 6.472-2.107-7.9-7.71-2.745 6.872-4.44.232-8.17 6.355 5.154zM231.264 66.577l-2.944 7.63 4.62 6.745-8.172-.44-4.998 6.47-2.106-7.9-7.71-2.743 6.872-4.44.233-8.17 6.35 5.152zM254.223 91.477l-2.946 7.626 4.62 6.748-8.173-.442-4.995 6.474-2.108-7.9-7.71-2.746 6.872-4.438.232-8.173 6.354 5.155zM278.27 117.555l-2.948 7.625 4.62 6.748-8.17-.443-4.998 6.476-2.106-7.9-7.71-2.746 6.872-4.438.232-8.173 6.353 5.155zM182.702 64.316l-2.943 7.626 4.618 6.747-8.173-.44-4.997 6.473-2.104-7.9-7.71-2.746 6.868-4.44.235-8.17 6.355 5.153zM206.113 89.705l-2.944 7.626 4.62 6.75-8.175-.44-4.996 6.47-2.106-7.9-7.71-2.742 6.87-4.44.234-8.17 6.354 5.152zM229.07 114.604l-2.944 7.625 4.62 6.748-8.173-.44-4.995 6.474-2.105-7.903-7.71-2.747 6.868-4.438.235-8.172 6.356 5.153zM251.836 144l1.282-3.318-7.852 2.302-6.355-5.152-.174 6.168z"/><path opacity=".3" fill="#444" d="M196.188 56.87l-3.985-1.954.437-.89-5.75-2.815v.002l-1.06-.52-.438.89-67.668-33.13v-.002l-2.333-1.142-1.162-.57L80.04 0H22.42L0 45.665v63.766l57.507 28.157c.126.062.26.096.39.144.117.075.226.16.354.223l4.28 2.095L60.59 144h.913l.976-.788-.388.788h7.946l.11-.225.457.225h87.31l30.99-63.124 7.946-16.184 1.19-2.418a4.036 4.036 0 0 0-1.852-5.405z"/><path fill="#323C3F" d="M61.248 143.938l.127.062H163.85l35.998-73.32a4.036 4.036 0 0 0-1.85-5.406L118.884 26.54a4.05 4.05 0 0 0-5.415 1.847L59.396 138.53a4.04 4.04 0 0 0 1.852 5.408z"/><path opacity=".4" d="M74.473 144l2.802-5.708-8.887 1.913L66.525 144z"/><path fill="#F7534F" d="M75.974 144l.032-.065-6.406-3.137L68.028 144z"/><path fill="#323C3F" d="M118.14 26.174L64.683 0H28.355L0 57.755v56.194l60.504 29.622a4.047 4.047 0 0 0 5.413-1.85L119.992 31.58a4.038 4.038 0 0 0-1.85-5.406z"/><path fill="#FCF1E6" d="M62.435 141.52L67.5 144h96.35l37.186-75.74a4.035 4.035 0 0 0-1.85-5.405L120.073 24.12a4.05 4.05 0 0 0-5.415 1.848L60.582 136.11a4.042 4.042 0 0 0 1.852 5.41z"/><path fill="#FCF1E6" d="M120.72 24.436L70.812 0h-40.73L0 61.27v49.68l63.082 30.887a4.05 4.05 0 0 0 5.414-1.85l54.076-110.144a4.04 4.04 0 0 0-1.852-5.407z"/><path opacity=".4" d="M154.403 144l41.234-83.987-5.75-2.816L147.268 144z"/><path fill="#89C602" d="M153.09 144l41.488-84.506-5.753-2.815-42.87 87.32z"/><path opacity=".1" fill="#FFF" d="M153.09 144l41.488-84.506-2.875-1.407L149.523 144z"/><path opacity=".2" d="M60.95 140.787l-1.164-.566L117.03 22.635l1.163.566z"/><path opacity=".3" fill="#444" d="M69.053 90.183a2.582 2.582 0 0 1-3.454 1.18L14.185 66.192a2.577 2.577 0 0 1-1.182-3.448 2.583 2.583 0 0 1 3.455-1.18L67.87 86.73a2.577 2.577 0 0 1 1.18 3.45zM64.13 100.21a2.583 2.583 0 0 1-3.453 1.18L9.263 76.217a2.578 2.578 0 0 1-1.182-3.45 2.585 2.585 0 0 1 3.456-1.18L62.95 96.76a2.578 2.578 0 0 1 1.18 3.45zM58.93 110.805a2.585 2.585 0 0 1-3.456 1.18L4.06 86.814a2.577 2.577 0 0 1-1.18-3.45 2.583 2.583 0 0 1 3.454-1.18l51.413 25.174a2.575 2.575 0 0 1 1.182 3.448zM52.824 117.383L1.41 92.21A2.566 2.566 0 0 0 0 91.97v5.29l50.552 24.752a2.58 2.58 0 0 0 3.454-1.18 2.575 2.575 0 0 0-1.182-3.45zM181.596 69.548a2.584 2.584 0 0 1-3.456 1.18l-51.413-25.173a2.574 2.574 0 0 1-1.18-3.45 2.584 2.584 0 0 1 3.453-1.18l51.414 25.173a2.578 2.578 0 0 1 1.182 3.45zM176.673 79.574a2.585 2.585 0 0 1-3.455 1.18l-51.413-25.172a2.578 2.578 0 0 1-1.182-3.45 2.582 2.582 0 0 1 3.455-1.18l51.412 25.173a2.576 2.576 0 0 1 1.183 3.45zM170.852 91.434a2.585 2.585 0 0 1-3.456 1.18L115.982 67.44a2.577 2.577 0 0 1-1.182-3.45 2.584 2.584 0 0 1 3.455-1.18l51.413 25.172a2.58 2.58 0 0 1 1.184 3.452zM165.928 101.46a2.585 2.585 0 0 1-3.455 1.18L111.06 77.468a2.578 2.578 0 0 1-1.182-3.45 2.583 2.583 0 0 1 3.454-1.18l51.413 25.17a2.577 2.577 0 0 1 1.183 3.45zM160.898 111.706a2.585 2.585 0 0 1-3.456 1.18l-51.414-25.173a2.575 2.575 0 0 1-1.18-3.45 2.583 2.583 0 0 1 3.454-1.18l51.413 25.175a2.577 2.577 0 0 1 1.183 3.448zM155.975 121.732a2.582 2.582 0 0 1-3.455 1.18l-51.413-25.174a2.573 2.573 0 0 1-1.18-3.45 2.583 2.583 0 0 1 3.453-1.18l51.413 25.174a2.578 2.578 0 0 1 1.182 3.45zM150.153 133.59a2.582 2.582 0 0 1-3.456 1.18l-51.412-25.173a2.574 2.574 0 0 1-1.182-3.448 2.582 2.582 0 0 1 3.454-1.18l51.413 25.173a2.574 2.574 0 0 1 1.183 3.447zM90.362 119.626L140.146 144h4.847c.087-.12.17-.245.238-.383a2.576 2.576 0 0 0-1.18-3.45l-51.414-25.172a2.583 2.583 0 0 0-3.454 1.18 2.578 2.578 0 0 0 1.18 3.45zM86.06 128.388L117.943 144h11.73L88.33 123.76a2.577 2.577 0 0 0-2.27 4.63zM81.137 138.415L92.543 144h11.73L83.41 133.785a2.583 2.583 0 0 0-3.454 1.18 2.576 2.576 0 0 0 1.18 3.45zM71.452 14.494l.054 20.66 17.072 11.668-19.658 6.436-5.836 19.82L50.88 56.394l-20.68.582L42.318 40.23l-6.945-19.46 19.692 6.334zM307.872 0H479.88v144H307.87z"/><path fill="#EDEDED" d="M479.88 0H312.883c-.3.56-.485 1.19-.485 1.87v138.91a3.98 3.98 0 0 0 1.652 3.22H479.88V0z"/><path fill="#444" d="M479.88 0H312.883c-.3.56-.485 1.19-.485 1.87v11.97h167.48V0z"/><path fill="#2CB740" d="M324.294 6.07a3.16 3.16 0 0 1-3.16 3.158 3.16 3.16 0 0 1-3.166-3.157 3.16 3.16 0 0 1 3.165-3.155 3.16 3.16 0 0 1 3.16 3.156z"/><path fill="#F16442" d="M333.933 6.07a3.163 3.163 0 0 1-3.168 3.158 3.16 3.16 0 0 1-3.158-3.157 3.163 3.163 0 0 1 6.326 0z"/><path fill="#FFF" d="M479.88 2.72H339.08a3.166 3.166 0 0 0-3.16 3.162 3.164 3.164 0 0 0 3.16 3.157H479.88V2.72z"/><path fill="#00A9D0" d="M312.4 13.63h167.48v48.484H312.4z"/><ellipse fill="#FCD22E" cx="343.595" cy="28.703" rx=".065" ry=".044"/><g opacity=".3" fill="#444"><path d="M327.074 66.92h34.928v34.88h-34.928zM365.453 66.92h34.928v34.88h-34.927zM403.315 66.92h34.93v34.88h-34.93zM441.694 66.92h34.928v34.88h-34.928z"/><g><path d="M327.074 104.566h34.928v34.88h-34.928zM365.453 104.566h34.928v34.88h-34.927zM403.315 104.566h34.93v34.88h-34.93zM441.694 104.566h34.928v34.88h-34.928z"/></g></g><path opacity=".4" fill="#444" d="M323.097 107.994l-4.518-5.212 4.517-5.21z"/><ellipse opacity=".3" fill="#FFF" cx="341.3" cy="37.87" rx="13.143" ry="13.126"/><g opacity=".3" fill="#FFF"><path d="M476.53 24.773c0 1.085-.933 1.97-2.077 1.97H365.59c-1.146 0-2.08-.885-2.08-1.97 0-1.093.934-1.978 2.08-1.978h108.863c1.145 0 2.078.885 2.078 1.978zM476.53 33.585c0 1.09-.933 1.976-2.077 1.976H365.59c-1.146 0-2.08-.884-2.08-1.975 0-1.09.934-1.97 2.08-1.97h108.863c1.145 0 2.078.88 2.078 1.97zM476.53 42.282c0 1.09-.933 1.972-2.077 1.972H365.59c-1.146 0-2.08-.88-2.08-1.972 0-1.085.934-1.97 2.08-1.97h108.863c1.145 0 2.078.884 2.078 1.97zM476.53 50.97c0 1.092-.933 1.975-2.077 1.975H365.59c-1.146 0-2.08-.883-2.08-1.974 0-1.087.934-1.97 2.08-1.97h108.863c1.145 0 2.078.883 2.078 1.97z"/></g><path opacity=".3" fill="#444" d="M344.54 72.083l3.993 8.082 8.932 1.295-6.463 6.292 1.525 8.885-7.988-4.197-7.99 4.197 1.526-8.885-6.463-6.292 8.93-1.295zM382.646 72.083l3.995 8.082 8.932 1.295-6.462 6.292 1.525 8.885-7.99-4.197-7.987 4.197 1.526-8.885-6.462-6.292 8.93-1.295zM420.017 72.083l3.994 8.082 8.933 1.295-6.463 6.292 1.525 8.885-7.988-4.197-7.99 4.197 1.527-8.885-6.463-6.292 8.932-1.295zM459.158 72.083l3.994 8.082 8.93 1.295-6.46 6.292 1.525 8.885-7.99-4.197-7.987 4.197 1.526-8.885-6.464-6.292 8.932-1.295zM344.54 109.73l3.993 8.082 8.932 1.297-6.463 6.29 1.525 8.883-7.988-4.193-7.99 4.193 1.526-8.884-6.463-6.29 8.93-1.298zM382.646 109.73l3.995 8.082 8.932 1.297-6.462 6.29 1.525 8.883-7.99-4.193-7.987 4.193 1.526-8.884-6.462-6.29 8.93-1.298zM420.017 109.73l3.994 8.082 8.933 1.297-6.463 6.29 1.525 8.883-7.988-4.193-7.99 4.193 1.527-8.884-6.463-6.29 8.932-1.298zM459.158 109.73l3.994 8.082 8.93 1.297-6.46 6.29 1.525 8.883-7.99-4.193-7.987 4.193 1.526-8.884-6.464-6.29 8.932-1.298z"/><path opacity=".3" fill="#3C3C3B" d="M140.46 70.493l-14.58 1.894-67.403 35.307-.047-.09-1.44.758.046.088-.027.014a.907.907 0 0 0-1.144-.267l-8.65 4.53a.906.906 0 0 0-.46.995l-6.438 3.372a3.6 3.6 0 0 0-1.14.948l-.004.004c-.133.165-.25.34-.35.523-.052.09-.09.183-.134.275-.04.092-.083.182-.117.276-.06.168-.105.34-.142.515-.002.018-.007.035-.01.052a3.638 3.638 0 0 0 .338 2.395l4.236 8.064a3.68 3.68 0 0 0 4.966 1.546l6.44-3.372a.905.905 0 0 0 1.142.263l8.65-4.53a.908.908 0 0 0 .423-1.122l68.863-36.07.014.027 15.848-17.545-8.88 1.15zm-9.2 12.137z"/><path fill="#27B3D8" d="M55.074 105.485l7.6 14.472 70.805-37.09-7.6-14.47z"/><path opacity=".2" d="M54.99 105.53l2.256 4.297 70.89-37.134-2.257-4.297z"/><path opacity=".2" fill="#FFF" d="M60.24 115.725l2.27 4.318 70.97-37.176-2.27-4.32z"/><path fill="#FFE0A9" d="M149.34 65.352l-23.46 3.044v.005a2.444 2.444 0 0 0-1.03 3.298 2.45 2.45 0 0 0 3.302 1.027 3.336 3.336 0 0 0-1.405 4.507 3.345 3.345 0 0 0 4.51 1.407h.003a2.385 2.385 0 0 0-1.007 3.222 2.393 2.393 0 0 0 3.226 1.005l.013.026 15.848-17.54z"/><path opacity=".05" fill="#3C3C3B" d="M149.34 65.352l-23.46 3.044v.005a2.444 2.444 0 0 0-1.03 3.298 2.45 2.45 0 0 0 3.302 1.027c-1.632.856 21.19-7.373 21.19-7.373z"/><path fill="#3C3C3B" d="M143.34 71.992l6-6.64-8.88 1.15z"/><path fill="#FF839E" d="M38.76 118.092a3.672 3.672 0 0 1 1.55-4.96l11.296-5.917a3.68 3.68 0 0 1 4.965 1.546l4.236 8.064a3.67 3.67 0 0 1-1.548 4.96L47.96 127.7c-1.798.94-4.022.25-4.965-1.547l-4.236-8.063z"/><path opacity=".1" fill="#3C3C3B" d="M38.596 117.635l11.185-5.858-1.495-2.847-7.968 4.173a3.66 3.66 0 0 0-1.72 4.532z"/><path fill="#DADADA" d="M46.83 109.978a.915.915 0 0 1 .385-1.24l8.65-4.53a.92.92 0 0 1 1.243.386l7.474 14.23a.92.92 0 0 1-.388 1.24l-8.65 4.53a.918.918 0 0 1-1.242-.386l-7.473-14.23z"/><g opacity=".3"><path fill="#3C3C3B" d="M48.103 109.924a.604.604 0 1 1 1.068-.56l6.968 13.27a.603.603 0 0 1-.255.81.605.605 0 0 1-.814-.252l-6.967-13.268zM49.893 108.985a.604.604 0 0 1 1.07-.56l6.968 13.268a.604.604 0 1 1-1.07.56l-6.97-13.268zM51.686 108.046a.604.604 0 0 1 1.068-.56l6.97 13.27a.603.603 0 0 1-1.068.558l-6.97-13.268zM53.477 107.107a.6.6 0 0 1 .255-.812.603.603 0 0 1 .814.252l6.97 13.268a.604.604 0 0 1-.255.813.606.606 0 0 1-.813-.253l-6.97-13.268zM55.27 106.17a.605.605 0 0 1 1.07-.56l6.967 13.267c.154.294.04.66-.256.814a.606.606 0 0 1-.813-.253L55.27 106.17z"/></g><path opacity=".3" fill="#FFF" d="M43.807 122.924a.92.92 0 0 1 1.242.386 2.07 2.07 0 0 0 2.788.87.92.92 0 0 1 .855 1.628 3.914 3.914 0 0 1-5.272-1.644.916.916 0 0 1 .387-1.24z"/><path opacity=".3" fill="#3C3C3B" d="M64.61 118.87l-7.62-14.504 1.44-.757 7.62 14.503z"/><path opacity=".3" fill="#444" d="M243.584 144l39.11-27.974c.763-.546.938-1.607.39-2.37l-.98-1.363c-.003-.006-.005-.012-.01-.018l-15.057-20.993a1.704 1.704 0 0 0-2.374-.394L190.41 144h53.174z"/><path fill="#048E52" d="M250.578 144l39.11-27.974a1.694 1.694 0 0 0 .39-2.37L275.02 92.662a1.7 1.7 0 0 0-2.372-.39L200.328 144h50.25z"/><path fill="#12C47B" d="M247.657 144l41.04-29.355a1.697 1.697 0 0 0 .392-2.37l-15.06-20.992a1.704 1.704 0 0 0-2.373-.394L197.405 144h50.252z"/><path fill="#444" d="M267.645 105.243l-.868.612-4.266-6.048.87-.613zM275.833 101.88l-.866.617-5.468-7.662.865-.618zM248.442 109.788l.86-.61 4.296 6.03-.86.615zM261.766 111.885l-.866.614-5.44-7.675.866-.614zM239.492 125.232l-.865.615-4.295-6.038.864-.616zM247.642 121.876l-.868.617-5.45-7.67.868-.617zM220.26 129.796l.862-.617 4.3 6.034-.867.616zM233.567 131.88l-.86.61-5.446-7.672.862-.61zM210.64 144l-3.49-4.902-.86.617 3.05 4.285zM213.29 134.737l.868-.608 5.455 7.664-.865.614z"/><path opacity=".1" fill="#444" d="M479.88 1.407c-3.816-.125-6.144-.198-6.144-.198C473.1 3.65 307.673 139.84 302.618 144h177.26V1.407z"/></svg>