<svg xmlns="http://www.w3.org/2000/svg" width="50.115" height="49.941" viewBox="0 0 50.115 49.941"><circle fill="#98D7FA" cx="25.332" cy="25.164" r="24.492"/><path fill-rule="evenodd" clip-rule="evenodd" fill="#5FA642" d="M9.524 29.952a1.85 1.85 0 0 0-.446-.11 1.145 1.145 0 0 0-.398 0c-.334.098-.356.446.548.99.242.322.683.617 1.1.456.24-.687-.262-1.104-.803-1.292 0-.044.003-.03 0-.044zM13.31 23.015c.04.036.066.092.102.098h.05c.245.07.482-.177.297-.193-.073-.013-.216.006-.45.095zM18.983 20.876c-.388.066-.48.325.353.897.104-.028.82-.19.4.244 1.294-.77-.09-1.258-.753-1.14zM18.983 15.344c1.395-.566 1.716-4.238.056-4.13-.108 0-.216.054-.353.104.696 1.282-.908 2.912.296 4.026zM34.986 18.385c.11-.766-1.107-1.33-1.656-1.298-.32.022-.382.25.21.802-.554 1.302.918 1.372 1.446.495zM22.523 8.827c.402-.188.595-.854 0-.854-.107-.03-.188-.057-.297-.05-.106.003-.215.04-.293.05-1.175.234-.818 2.183.59.854z"/><path fill-rule="evenodd" clip-rule="evenodd" fill="#5FA642" d="M24.17 8.37c-1.7.217-3.417 1.86-1.835 3.486 1.134 1.415-1.636 4.3.992 5.042 1.043-2.333 3.896-4.182 3.19-7.025-.294-1.214-1.32-1.632-2.347-1.502z"/><path fill="#5FA642" d="M21.236 42.05c-2.52-1.672-4.343-4.232-7.18-5.48-2.31-2.24-7.515-.848-7.42-5.085.24-2.014-1.376-2.984-2.588-3.93-.932-3.115 4.75-4.26 4.83-.85 1.87-.098 2.527-3.36 4.687-3.83 1.112-.966 4.122.072 3.033-1.9 1.076-1.022 4.233-.987 2.688-3.38-.518-2.332-3.384-3.458-4.327-.803-2.596.695-1.55-4.934 1.09-4.184 1.915.11 1.653-1.554.495-2.09 0-.08-.026-.126-.1-.053-.212-.08-.434-.162-.696-.148-2.59-1.43 2.59-5.077-.84-6.232C11.143 7.3 5.4 12.36 3.102 17.09c-1.038 2.965-.864 5.95-.744 9.067 1.053 3.02 3.1 5.51 4.73 8.215 1.043 1.307.54 2.81.462 4.242-.027.01.013.043.013.05-.054.867.082 1.693.815 2.437 1.275 1.647 3.13 2.95 4.037 4.846a24.18 24.18 0 0 0 6.67 2.884c.26-.117.487-.272 2.662-.453v-.05c0-.567 2.63-1.396 3.924-2.353 2.15-2.6-2.28-4.676-4.438-3.923zM43.996 41.004c3.63-4.273 5.828-9.795 5.828-15.84 0-.674-.046-1.338-.102-2-.018-.165-.03-.332-.05-.497-1.397.766-3.888-3.447-1.34-1.444.496-.035.81-.177 1.046-.393-.295-1.535-.693-3.022-1.252-4.44-.25-.297-.49-.575-.696-.744a4.923 4.923 0 0 0-.05-.896c-.012-.016.015-.038 0-.054C43.39 6.48 34.96.808 25.217.808c-.665 0-1.34.04-1.996.095-.34.073-.716.117-1.1.152-.13.012-.262.028-.393.05-1.375.193-2.688.433-3.98.842 3.368-.247 6.825-.16 9.862 1.35.802 2.578 5.607.048 5.376 2.932.038.04.11.107.152.155-.076.056.055.58.152.143.83.94 2.578 2.89.743 2.646-2.433-.333-1.8 4.458-.048 5.33 1.67.898 2.607-.906.894-1.792-.233-2.247 3.744 1.38 1.988 2.583-.07.048-.126.104-.193.154.08-.323-.115-.02-.11.054-1.995 1.446-.857 4.852-1.633 7.12-1.382 3.067 3.456 1.716 2.733-.698-.884-2.222 3.68-1.21 2.693-2.79 2.768 1.47 2.506-2.473 1.35-3.79.54-2.107 1.962.247 1.29 1.395.108 1.087 1.045 1.337 1.797 1.647.034.025.073.03.147.047.656.313 1.05.715.342 1.95-.812 2.74-3.57 2.892-5.823 2.385-2.277.943-2.7 3.712-3.987 5.576-1.275 2.33-2.335 5.76-.046 7.82 2.19 2.104 4.71.278 6.527-1.146 3.482-.453 3.803 3.65 2.09 5.737-.02.096-.033.168-.048.247z"/><path fill="none" d="M3.113 3.01C1.7 4.493 2.26 8.414 4.58 13.273c2.772 5.8 7.667 12.362 13.783 18.48 9.43 9.43 20.208 16.014 26.21 16.014 1.18 0 2.05-.268 2.58-.797L4.17 4.083S3.747 3.65 3.113 3.01z"/><path d="M5.8 0v.005z"/><path fill="#EDB914" d="M48.68 1.435l-.002-.002-.038.038C46.254-.85 41.332-.162 35.35 2.815a24.38 24.38 0 0 1 2.374 1.225c4.487-1.996 8.053-2.415 9.42-1.05l.012-.01c.52.53.784 1.394.784 2.562 0 6-6.585 16.78-16.014 26.208-6.117 6.117-12.68 11.012-18.48 13.783-4.858 2.32-8.78 2.88-10.262 1.468l-.038-.03c-.517-.517-.78-1.397-.792-2.536.025-1.834.693-4.177 1.89-6.82-.465-.785-.885-1.482-1.26-2.32-1.74 3.49-2.72 6.35-2.793 9.25H.18s-.093-.06-.093-.034c0 .05-.085-.023-.085.025v.01h.09c.027 1.665.53 3.02 1.473 3.963.01.01.045.018.055.028 4.627 4.535 18.864-2.274 31.836-15.245C43.7 23.044 50.11 12.01 50.11 5.55c0-1.735-.457-3.14-1.43-4.113z"/><path fill="#EDB914" d="M47.546 35.48c-.382.822-.81 1.618-1.278 2.387 1.87 4.337 2.218 7.77.885 9.103-.53.53-1.4.797-2.58.797-6 0-16.78-6.585-26.21-16.015-6.116-6.116-11.01-12.68-13.782-18.48C2.26 8.415 1.7 4.493 3.114 3.01c.012-.012.02-.027.032-.038.53-.53 1.435-.797 2.615-.797l.002-.085.04.085c1.872 0 4.285.695 7.005 1.942.774-.46 1.577-.878 2.404-1.254C11.773 1.127 8.677.137 6.193.026l-.005-.01L5.892.01c-.03 0-.062-.005-.09-.005v.003-.003C5.774.005 5.744 0 5.72 0c-.04 0 .06.003.02.003h.06v.003C3.626.04 2.68.5 1.745 1.436c-.01.008-.088.02-.098.03-4.534 4.627 2.24 18.853 15.21 31.824 10.25 10.25 21.265 16.65 27.728 16.65 1.734 0 3.132-.46 4.105-1.433 0 0-.005-.002-.004-.003 2.328-2.33 1.714-7.148-1.14-13.023z"/></svg>