<svg baseProfile="basic" xmlns="http://www.w3.org/2000/svg" width="32" height="32" viewBox="0 0 32 32"><g fill="#CCC"><path d="M4.6 4.7h5.3L7.6 7l7 7v.6h-.5l-7-7L4.6 10zM22.3 4.7h5.1v5.2L25 7.5l-7 7.1h-.6V14l7.1-7.1zM17.4 17.4h.6l7 7 2.4-2.5v5.4h-5.3l2.3-2.4-7-7zM14.1 17.4h.5v.5L7.5 25l2.3 2.3H4.6v-5.2L7 24.5z"/><path d="M4.6 11.4L7.1 9l5.6 5.6H4.6zM12.7 17.4L7 23l-2.4-2.3v-3.3z"/><path d="M0 16.1l3.6-3.7v3.2h10.1l.4.4-.4.4H3.6v3.3zM19.4 14.6L25 8.9l2.4 2.4v3.3zM27.4 20.5L25 23l-5.6-5.6h8z"/><path d="M18 16l.4-.4h10v-3.3l3.6 3.6-3.6 3.6v-3.1h-10zM17.4 19.3l5.6 5.6-2.3 2.4h-3.3z"/><path d="M15.6 18.3l.4-.4.4.4v9.9h3.3L15.9 32l-3.7-3.8h3.4z"/><path d="M9 25l5.6-5.7v8h-3.4zM17.4 12.7L23 7.1l-2.3-2.4h-3.3z"/><path d="M15.6 13.7l.4.4.4-.4V3.8h3.3L15.9 0l-3.7 3.8h3.4z"/><path d="M9 7l5.6 5.7v-8h-3.4z"/></g></svg>