<svg baseProfile="basic" xmlns="http://www.w3.org/2000/svg" width="30" height="30" viewBox="0 0 30 30"><g fill="#CCC"><circle cx="2.9" cy="15" r="2.9"/><circle cx="23.8" cy="27.1" r="2.9"/><path d="M16.9 7.8c3.6 0 6.6 2.7 7.1 6.2h5c-.2-2.7-1.4-5.3-3.3-7.3-1.2.6-2.7.6-4-.1s-2-2-2.1-3.4c-.9-.2-1.8-.3-2.8-.3-1.8 0-3.6.4-5.2 1.2l2.5 4.3c.9-.4 1.8-.6 2.8-.6zM24 16c-.5 3.5-3.5 6.2-7.1 6.2-.9 0-1.9-.2-2.7-.5L11.7 26c1.6.8 3.4 1.2 5.2 1.2 1 0 1.9-.1 2.8-.3.1-1.4.8-2.7 2.1-3.4 1.3-.7 2.8-.7 4-.1 1.9-2 3-4.6 3.3-7.3L24 16zM9.6 15c0-2.3 1.1-4.4 2.8-5.7L9.9 5c-.6.4-1.1.9-1.7 1.4-1.4 1.4-2.5 3.2-3.1 5.1 1.2.7 1.9 2 1.9 3.5s-.8 2.8-1.9 3.5c.6 1.9 1.6 3.7 3.1 5.1.5.5 1.1 1 1.7 1.4l2.5-4.3c-1.7-1.3-2.8-3.4-2.8-5.7z"/><circle cx="23.8" cy="2.9" r="2.9"/></g></svg>