<svg baseProfile="basic" xmlns="http://www.w3.org/2000/svg" width="30" height="36" viewBox="0 0 30 36"><g fill="#CECECE"><path d="M28.7 13.8C28.7 6.2 22.5 0 14.8 0S1 6.2 1 13.8c0 3.3 1.1 6.3 3.1 8.7L14.8 36l10.8-13.5c1.9-2.4 3.1-5.4 3.1-8.7zm-13.9 9.8c-5.4 0-9.8-4.4-9.8-9.8S9.4 4 14.8 4s9.8 4.4 9.8 9.8c0 5.5-4.3 9.8-9.8 9.8z"/><path d="M9.5 9.4h2.2v9.2H9.5zM21.1 10.5c-.3-.3-.6-.6-1.1-.8-.4-.2-1-.3-1.6-.3h-4.6v9.2H16v-2.3h2.4c.6 0 1.2-.1 1.6-.3.4-.2.8-.5 1.1-.8.3-.3.5-.7.6-1.1.1-.4.2-.8.2-1.3 0-.4-.1-.9-.2-1.3-.2-.3-.4-.7-.6-1zm-1.6 3.2c-.1.2-.3.4-.4.5-.2.1-.4.2-.6.2-.2 0-.5.1-.7.1H16v-3.2h1.7c.3 0 .5 0 .7.1.2 0 .4.1.6.2.2.1.3.3.4.5.1.2.2.5.2.8.1.3 0 .6-.1.8z"/></g></svg>