<svg id="Layer_1" xmlns="http://www.w3.org/2000/svg" viewBox="0 0 173.8 178.5"><style>.st0{fill:#edb914}.st1{opacity:.2;fill:#3c3c3b}.st2{fill:#c1910a}.st3{fill:#004a54}.st4{opacity:.1}.st5{fill:#46ace1}.st6{fill:#ff5046}.st7{fill:#46b879}.st8{opacity:.2}.st9{fill:#26844e}.st10{fill:#fcd22f}.st11{fill:#428bf4}.st12{fill:#e3e3e3}.st13{fill:#293e4c}.st14{opacity:.4}.st15{fill:#5cd5ff}.st16{fill:#cacaca}.st17{fill:#ff5955}.st18{fill:#ff5148}.st19,.st20{fill:#FFF}.st20,.st21{opacity:.2}.st21{enable-background:new}.st22{fill:#85c457}.st23{fill:#116fce}.st24{opacity:.3;fill:none;stroke:#e3e3e3;stroke-width:2.126;stroke-linecap:round;stroke-miterlimit:10}.st25{fill:#ffdb4a}.st26{fill:#4b4b4b}.st27{opacity:.1;fill:#010000}.st28{fill:#6fbc33}.st29{fill:#af890e}.st30{fill:#76d9fc}.st31{fill-rule:evenodd;clip-rule:evenodd}.st31,.st32{fill:#00a936}.st33{fill:#010000}.st34{fill:#30261b}.st35{fill:#fcd22e}.st36{fill:#fd7600}.st37{opacity:.3}.st38{fill:#f0f0f0}.st39{fill:#b2c61e}.st40{fill:#00b7f1}.st41{opacity:.2;fill:#010000}.st42{opacity:.3;fill:#010000}.st43{fill:#0084fd}.st44{fill:#f7534f}.st45{fill:#54301d}.st46{fill:#ffe4c0}.st47{opacity:.3;fill:#1e0e00}.st48{opacity:.2}.st48,.st49,.st50{fill:#1e0e00}.st50,.st51{opacity:.1}.st51{fill:#FFF}.st52{opacity:.15;fill:#1e0e00}.st53{fill:#78f1ff}.st54{fill:#efefef}.st55{fill:#29353f}.st56{fill:#9dd643}.st57{fill:none;stroke:#293e4c;stroke-width:3;stroke-miterlimit:10}.st58{opacity:.15;enable-background:new}.st59{fill:#0068ba}.st60{fill:#ededed}.st61{fill:#27c15a}.st62{opacity:.3}.st62,.st63{fill:#5b5b5b}.st64{fill:#ececec}.st65{fill:#ffd59b}.st66{fill:#f7cc9a}.st67{fill:#ff8080}.st68{fill:#77503b}.st69{fill:#513123}.st70{opacity:.5;fill:#FFF}.st71{fill:#70462d}.st72{opacity:.15;fill:#010101}.st73{fill:#6d4735}.st74{opacity:.1;fill:#010101}.st75{opacity:.3}.st75,.st76{fill-rule:evenodd;clip-rule:evenodd}.st76{fill:#073b44}.st77{fill:#ffd79d}.st78{opacity:.29}.st79{fill:#ddb890}.st80{opacity:.4}.st80,.st81{fill:#e9b980}.st82{fill:#a0a0a0}</style><ellipse class="st4" cx="87.7" cy="167.6" rx="59.2" ry="10.9"/><path class="st29" d="M24 139l-8.5-23.1L0 123.7zM149.1 139l8.5-23.1 15.5 7.8z"/><path class="st30" d="M171.9 85.3c0 46.9-38 85-85 85-46.9 0-85-38-85-85 0-46.9 38.1-85 85-85s85 38 85 85z"/><path class="st31" d="M32 101.9c-.5-.2-1.1-.3-1.5-.4-.6-.1-1-.1-1.4 0-1.2.3-1.2 1.6 1.9 3.4.8 1.1 2.4 2.1 3.8 1.6.8-2.4-.9-3.8-2.8-4.5 0-.1.1-.1 0-.1zM45.2 77.8c.1.1.2.3.3.3h.2c.8.2 1.7-.6 1-.7-.2 0-.7.1-1.5.4zM64.9 70.4c-1.3.2-1.7 1.1 1.2 3.1.4-.1 2.8-.7 1.4.8 4.5-2.6-.3-4.3-2.6-3.9zM64.9 51.2c4.8-2 5.9-14.7.2-14.3-.4 0-.7.2-1.2.4 2.4 4.4-3.2 10 1 13.9zM120.4 61.8c.4-2.7-3.8-4.6-5.8-4.5-1.1.1-1.3.9.7 2.8-1.8 4.5 3.3 4.7 5.1 1.7zM77.2 28.6c1.4-.6 2.1-3 0-3-.4-.1-.7-.2-1-.2-.4 0-.7.1-1 .2-4.2.8-2.9 7.6 2 3z"/><path class="st31" d="M82.9 27c-5.9.8-11.9 6.5-6.4 12.1 3.9 4.9-5.7 14.9 3.4 17.5 3.6-8.1 13.5-14.5 11.1-24.4-1-4.2-4.6-5.6-8.1-5.2z"/><path class="st32" d="M72.7 143.9c-8.7-5.8-15.1-14.7-24.9-19-8-7.8-26.1-2.9-25.7-17.6.8-7-4.8-10.4-9-13.6-3.2-10.8 16.5-14.8 16.8-2.9 6.5-.3 8.8-11.7 16.3-13.3 3.9-3.3 14.3.3 10.5-6.6 3.7-3.5 14.7-3.4 9.3-11.7-1.8-8.1-11.7-12-15-2.8-9 2.4-5.4-17.1 3.8-14.5 6.6.4 5.7-5.4 1.7-7.2 0-.3-.1-.4-.3-.2-.7-.3-1.5-.6-2.4-.5-9-5 9-17.6-2.9-21.6-13.1 11.2-33 28.7-41 45.1-3.6 10.3-3 20.6-2.6 31.5 3.7 10.5 10.8 19.1 16.4 28.5 3.6 4.5 1.9 9.8 1.6 14.7-.1 0 0 .2 0 .2-.2 3 .3 5.9 2.8 8.5 4.4 5.7 10.9 10.2 14 16.8 7.1 4.4 14.9 7.8 23.2 10 .9-.4 2.7-.9 9.3-1.6v-.2c0-2 9.1-4.8 13.6-8.2 7.4-9.2-8-16.4-15.5-13.8zM152.2 139.7c12.6-14.8 20.2-34 20.2-55 0-2.3-.2-4.6-.3-6.9-.1-.6-.1-1.2-.2-1.7-4.9 2.7-13.5-12-4.7-5 1.7-.1 2.8-.6 3.6-1.4-1-5.3-2.4-10.5-4.3-15.4-.9-1-1.7-2-2.4-2.6.1-1.1 0-2.1-.2-3.1 0-.1.1-.1 0-.2C150 20 120.8.3 87 .3c-2.3 0-4.7.1-6.9.3-1.2.3-2.5.4-3.8.5-.5 0-.9.1-1.4.2-4.8.7-9.3 1.5-13.8 2.9 11.7-.9 23.7-.6 34.2 4.7 2.8 8.9 19.5.2 18.7 10.2l.5.5c-.3.2.2 2 .5.5 2.9 3.3 8.9 10 2.6 9.2-8.4-1.2-6.2 15.5-.2 18.5 5.8 3.1 9-3.1 3.1-6.2-.8-7.8 13 4.8 6.9 9-.2.2-.4.4-.7.5.3-1.1-.4-.1-.4.2-6.9 5-3 16.8-5.7 24.7-4.8 10.6 12 6 9.5-2.4-3.1-7.7 12.8-4.2 9.3-9.7 9.6 5.1 8.7-8.6 4.7-13.2 1.9-7.3 6.8.9 4.5 4.8.4 3.8 3.6 4.6 6.2 5.7.1.1.3.1.5.2 2.3 1.1 3.6 2.5 1.2 6.8-2.8 9.5-12.4 10-20.2 8.3-7.9 3.3-9.4 12.9-13.8 19.3-4.4 8.1-8.1 20-.2 27.1 7.6 7.3 16.3 1 22.6-4 12.1-1.6 13.2 12.7 7.2 19.9.2.4.1.7.1.9z"/><g class="st8"><path class="st33" d="M6.1 59.1c0 .1 0 .1-.1.2.8 0 1.5-.1 1.5-.2H6.1zM158.7 130.7c-.1.1-.1.1-.1.2 0 0 0-.1.1-.2z"/><path class="st33" d="M165.5 110.9c0-.1 0-.3.1-.3-.1.2-1.4 1.5-11.1 2.9 2.5-8.5 3.9-17.6 4-27.1h12.9v-2.6h-12.9c-.1-9.6-1.6-18.8-4.2-27.3 9.8 1.4 11.1 2.7 11.2 2.9 0 0-.1-.1-.1-.3h2.3c-.2-.5-.4-1.1-.6-1.7-1-.9-3.1-1.7-6.5-2.4-2-.4-4.4-.8-7.2-1.2-3.3-9.9-8-18.9-14-26.5 6 1.5 10.7 3.3 14 5.2-1.3-1.6-2.6-3.2-4.1-4.8-3.4-1.3-7.1-2.4-10.6-3.3-.6-.2-1.3-.3-1.9-.5-9.1-10.6-20.4-18.3-33.1-22C98.3.8 92.7.2 86.9.2c-6.4 0-12.6.7-18.6 2.1-12.1 3.9-23 11.4-31.8 21.6-.7.2-1.4.3-2 .5-3.2.8-6.6 1.8-9.8 2.9-1.4 1.5-2.7 3-4 4.6 3.2-1.7 7.7-3.3 13.1-4.7-5.9 7.7-10.7 16.6-14 26.5-3 .4-5.6.8-7.6 1.3-2.5.5-4.2 1.1-5.4 1.7-.2.7-.5 1.3-.7 2 2.4-.6 6.7-1.4 12.9-2.3-2.6 8.6-4 17.8-4.2 27.4H2v2.6h12.9c.1 9.5 1.5 18.6 4 27.1-10-1.4-11.3-2.7-11.5-2.9 0 0 .1.1.1.3H5.9c.2.8.5 1.5.8 2.3 1.2.7 3 1.3 5.6 1.8 2.1.4 4.5.9 7.5 1.3 3 9.3 7.4 17.9 12.8 25.3-6-1.6-10.7-3.5-13.8-5.5 1.3 1.7 2.6 3.3 4 4.9 3.7 1.5 7.8 2.8 11.7 3.7.2 0 .4.1.6.1 8.9 11.1 20.4 19.2 33.1 23.3 6 1.4 12.3 2.1 18.7 2.1 5.7 0 11.3-.6 16.7-1.6 13.4-3.9 25.4-12.3 34.7-23.8.1 0 .3-.1.4-.1 4.3-1 8.9-2.4 12.8-4.2 1.5-1.7 2.9-3.5 4.3-5.4-2.9 2.3-8.1 4.5-14.9 6.4 5.4-7.4 9.8-16 12.8-25.3 2.8-.4 5.1-.8 7.1-1.2 3.7-.8 5.8-1.6 6.7-2.7.2-.5.3-1 .5-1.5h-2.5zM77 2.9c-4.6 3.3-8.9 9.1-12.6 17-8.5.7-16.5 1.7-23.6 3.1C50.7 12.4 63.2 5.2 77 2.9zM37.9 26.2c7.4-1.6 16-2.9 25.3-3.6-.4.8-.7 1.6-1 2.4-3 7.6-5.3 16.4-7 26-9.4.3-18.1.9-25.6 1.6-2.5.2-4.8.5-6.9.7 3.6-10.2 8.8-19.4 15.2-27.1zM21.8 56.1c2.7-.3 6-.7 9.8-1 6.8-.6 14.7-1 23.1-1.4-1.5 9.5-2.3 19.7-2.4 30.1h-35c.3-9.7 1.8-19.1 4.5-27.7zm-4.4 30.3h35c.1 10.4.8 20.5 2.3 29.9-8.4-.3-16.2-.8-23-1.4-4-.4-7.3-.7-10-1-2.7-8.6-4.2-17.9-4.3-27.5zm5.1 30.2c2.2.3 4.5.5 7.1.7 7.4.7 16.1 1.2 25.5 1.6 1.6 9.8 4 18.8 7.1 26.6.1.3.3.6.4.9-9.6-.8-18.5-2.1-26.1-3.9-5.9-7.4-10.7-16.2-14-25.9zm16.7 29.2c7.3 1.5 15.6 2.6 24.5 3.3 3.8 8.7 8.4 15 13.3 18.5-14.6-2.4-27.7-10.3-37.8-21.8zm46.2 22.6c-6.9-.7-13.5-7.4-18.9-19.1 6.1.4 12.4.6 18.9.7v18.4zm0-21c-6.9 0-13.6-.3-20-.8l-.9-2.1c-2.9-7.5-5.2-16.1-6.8-25.5 8.7.3 18.1.5 27.7.5v27.9zm0-30.5c-9.7 0-19.3-.2-28.1-.5-1.5-9.4-2.3-19.6-2.3-30h30.4v30.5zm0-33.1H54.9c.1-10.5.9-20.8 2.4-30.2 8.8-.3 18.3-.5 28-.5v30.7zm0-33.3c-9.6 0-18.9.2-27.6.5 1.6-9.2 3.9-17.6 6.7-25 .5-1.3 1-2.5 1.5-3.6 6.2-.4 12.7-.7 19.4-.7v28.8zm0-31.4c-6.2 0-12.3.2-18.1.6C72.5 9 78.8 2.8 85.4 2.2v16.9zm70.5 64.7h-35c-.1-10.5-.9-20.6-2.4-30.1 8.3.3 16 .8 22.7 1.4 4.1.4 7.5.7 10.3 1.1 2.7 8.6 4.3 17.9 4.4 27.6zm-5.3-30.4c-2.2-.3-4.7-.5-7.3-.8-7.4-.7-15.9-1.2-25.2-1.5-1.6-9.6-4-18.4-7-26-.3-.8-.7-1.6-1-2.4 9.3.8 17.8 2 25.3 3.6 6.5 7.7 11.7 16.9 15.2 27.1zm-18-30.4c-7.1-1.4-15.1-2.4-23.6-3.1-3.7-7.9-8-13.7-12.6-17 13.7 2.3 26.2 9.6 36.2 20.1zM87.9 2.2c6.6.7 12.9 6.8 18.1 17.6-5.8-.4-11.9-.6-18.1-.6v-17zm0 19.5c6.7 0 13.2.3 19.4.7l1.5 3.6c2.9 7.3 5.1 15.8 6.7 25-8.7-.3-18-.5-27.6-.5V21.7zm0 31.4c9.7 0 19.2.2 28.1.5 1.5 9.5 2.3 19.7 2.4 30.2H87.9V53.1zm0 33.3h30.5c0 10.4-.8 20.6-2.3 30-8.9.3-18.4.5-28.1.5V86.4zm0 33.1c9.6 0 19-.2 27.7-.5-1.6 9.4-3.9 18.1-6.8 25.5l-.9 2.1c-6.4.5-13.1.7-20 .8v-27.9zm0 30.5c6.5 0 12.8-.3 18.9-.7-5.4 11.7-12 18.4-18.9 19.1V150zm8.5 17.6c4.9-3.6 9.5-9.8 13.3-18.6 8.9-.7 17.2-1.9 24.5-3.4-10.2 11.7-23.3 19.6-37.8 22zm40.5-25.1c-7.6 1.8-16.4 3.1-26.1 3.9.1-.3.2-.6.4-.9 3-7.8 5.4-16.8 7.1-26.6 9.3-.4 17.8-.9 25.2-1.6 2.7-.2 5.2-.5 7.4-.8-3.4 9.7-8.1 18.5-14 26zm14.8-28.7c-2.8.4-6.3.7-10.4 1.1-6.7.6-14.4 1-22.7 1.4 1.4-9.4 2.2-19.5 2.3-29.9h35c-.1 9.6-1.6 18.9-4.2 27.4z"/></g><path class="st14" d="M1.9 85.3c0 8.9 1.4 17.5 3.9 25.6 0 .1.1.3.1.4 1.7 5.4 4 10.5 6.7 15.4h148.5c2.5-4.5 4.6-9.3 6.3-14.3.2-.5.3-1 .5-1.5.2-.7.4-1.5.7-2.2.1-.4.2-.7.3-1.1.2-.8.4-1.6.6-2.5l.3-1.5c.2-.7.3-1.5.5-2.2l.3-1.8c.1-.7.2-1.4.3-2 .1-.7.2-1.4.3-2.2.1-.6.1-1.2.2-1.8.1-.9.1-1.7.2-2.6 0-.5.1-1 .1-1.5.1-1.4.1-2.8.1-4.1 0-.9 0-1.8-.1-2.7-.3-8.2-1.7-16.1-4.1-23.5-.2-.5-.4-1.1-.6-1.7-1.4-4.1-3.1-8-5.1-11.8H11.7C5.5 57.5 1.9 71 1.9 85.3z"/><path class="st10" d="M0 42.7h173.8v81H0z"/><g><path class="st19" d="M18.2 81.8c-2.2 0-3.9-1.8-3.9-3.9V58.3c0-2.2 1.8-3.9 3.9-3.9h135.3c2.2 0 3.9 1.8 3.9 3.9v19.6c0 2.2-1.8 3.9-3.9 3.9H18.2z"/><path class="st13" d="M153.5 55.4c1.6 0 2.9 1.3 2.9 2.9v19.6c0 1.6-1.3 2.9-2.9 2.9H18.2c-1.6 0-2.9-1.3-2.9-2.9V58.3c0-1.6 1.3-2.9 2.9-2.9h135.3m0-2H18.2c-2.7 0-4.9 2.2-4.9 4.9v19.6c0 2.7 2.2 4.9 4.9 4.9h135.3c2.7 0 4.9-2.2 4.9-4.9V58.3c0-2.7-2.2-4.9-4.9-4.9z"/></g><g class="st14"><path d="M159.3 114.8c0 1.7-1.4 3.1-3.1 3.1H15.5c-1.7 0-3.1-1.4-3.1-3.1V94.5c0-1.7 1.4-3.1 3.1-3.1h140.7c1.7 0 3.1 1.4 3.1 3.1v20.3z"/></g><g><path class="st32" d="M159.3 112.9c0 1.7-1.4 3.1-3.1 3.1H15.5c-1.7 0-3.1-1.4-3.1-3.1V92.5c0-1.7 1.4-3.1 3.1-3.1h140.7c1.7 0 3.1 1.4 3.1 3.1v20.4z"/></g><g class="st8"><path class="st19" d="M156.2 89.4H15.5c-1.7 0-3.1 1.4-3.1 3.1v2c0-1.7 1.4-3.1 3.1-3.1h140.7c1.7 0 3.1 1.4 3.1 3.1v-2c0-1.7-1.4-3.1-3.1-3.1z"/></g><g><path class="st34" d="M23.9 73.8v-11h4.4c3.5 0 5.9 2.2 5.9 5.5s-2.4 5.5-5.9 5.5h-4.4zm7.9-5.5c0-2-1.2-3.5-3.5-3.5h-2v6.9h2c2.2.1 3.5-1.5 3.5-3.4zM43.5 73.8l-5.3-7.2v7.2h-2.4v-11h2.4l5.1 7v-7h2.4v11.1h-2.2zM47.2 72.3l1.3-1.8c.8.8 2 1.5 3.5 1.5 1.3 0 1.9-.6 1.9-1.2 0-2-6.4-.6-6.4-4.8 0-1.8 1.6-3.4 4.2-3.4 1.8 0 3.2.5 4.3 1.5l-1.3 1.7c-.9-.8-2.1-1.2-3.2-1.2-1 0-1.6.4-1.6 1.1 0 1.8 6.4.6 6.4 4.7 0 2-1.4 3.6-4.4 3.6-2.1 0-3.7-.7-4.7-1.7z"/></g><g><path class="st19" d="M67.9 108l1-1.8c.4.4 1 .8 1.8.8 1 0 1.7-.7 1.7-1.8v-7.4h2.4v7.4c0 2.6-1.6 3.8-3.9 3.8-1.2.1-2.2-.2-3-1zM76.4 103.4c0-3.3 2.4-5.7 5.8-5.7s5.8 2.4 5.8 5.7c0 3.3-2.4 5.7-5.8 5.7s-5.8-2.4-5.8-5.7zm9.1 0c0-2.1-1.3-3.6-3.4-3.6s-3.4 1.6-3.4 3.6c0 2.1 1.3 3.6 3.4 3.6s3.4-1.6 3.4-3.6zM89.6 108.9V97.8H92v11.1h-2.4zM101.8 108.9l-5.3-7.2v7.2h-2.4V97.8h2.4l5.1 7v-7h2.4v11.1h-2.2z"/></g><g><path class="st35" d="M129.8 13.1c-2.2 5.9-6.7 10.6-12.4 13.2 5.7 2.6 10.2 7.3 12.4 13.2 2.2-5.9 6.7-10.6 12.4-13.2-5.7-2.6-10.2-7.3-12.4-13.2z"/><path class="st36" d="M129.8 19.7c-1.1 3-3.4 5.3-6.2 6.6 2.9 1.3 5.1 3.7 6.2 6.6 1.1-3 3.4-5.4 6.2-6.6-2.8-1.3-5.1-3.7-6.2-6.6z"/><path class="st35" d="M139.6 3.7c-1.1 2.9-3.3 5.2-6.1 6.5 2.8 1.3 5 3.6 6.1 6.5 1.1-2.9 3.3-5.2 6.1-6.5-2.8-1.3-5-3.6-6.1-6.5z"/><path class="st36" d="M139.6 6.9c-.6 1.4-1.7 2.6-3.1 3.3 1.4.6 2.5 1.8 3.1 3.2.5-1.4 1.6-2.6 3.1-3.2-1.4-.6-2.5-1.8-3.1-3.3z"/><g><path class="st35" d="M118.6 0c-1.6 4.1-4.7 7.5-8.7 9.3 4 1.8 7.2 5.2 8.7 9.3 1.6-4.1 4.7-7.5 8.8-9.3-4.1-1.8-7.3-5.2-8.8-9.3z"/><path class="st36" d="M118.6 4.6c-.8 2.1-2.4 3.8-4.4 4.7 2 .9 3.6 2.6 4.4 4.7.8-2.1 2.4-3.8 4.4-4.7-2.1-.9-3.6-2.6-4.4-4.7z"/></g></g><path class="st14" d="M129.9 99.3V135s7.7-8.4 7.7-8.1c.1.3 5.8 15.4 5.8 15.4l4.1-1.6-5.8-14.9 10.9.7-22.7-27.2z"/><path class="st12" d="M131.9 97.3V133s7.7-8.4 7.7-8.1c.1.3 5.8 15.4 5.8 15.4l4.1-1.6-5.8-14.9 10.9.7-22.7-27.2z"/></svg>