<svg id="Layer_1" xmlns="http://www.w3.org/2000/svg" viewBox="0 0 54 54"><style>.st0{fill:#edb914}.st1{opacity:.2;fill:#3c3c3b}.st2{fill:#c1910a}.st3{fill:#004a54}.st4{opacity:.1}.st5{fill:#46ace1}.st6{fill:#ff5046}.st7{fill:#46b879}.st8{opacity:.2}.st9{fill:#26844e}.st10{fill:#fcd22f}.st11{fill:#428bf4}.st12{fill:#e3e3e3}.st13{fill:#293e4c}.st14{opacity:.4}.st15{fill:#5cd5ff}.st16{fill:#cacaca}.st17{fill:#ff5955}.st18{fill:#ff5148}.st19,.st20{fill:#FFF}.st20,.st21{opacity:.2}.st21{enable-background:new}.st22{fill:#85c457}.st23{fill:#116fce}.st24{opacity:.3;fill:none;stroke:#e3e3e3;stroke-width:2.126;stroke-linecap:round;stroke-miterlimit:10}.st25{fill:#ffdb4a}.st26{fill:#4b4b4b}.st27{opacity:.1;fill:#010000}.st28{fill:#6fbc33}.st29{fill:#af890e}.st30{fill:#76d9fc}.st31{fill-rule:evenodd;clip-rule:evenodd}.st31,.st32{fill:#00a936}.st33{fill:#010000}.st34{fill:#30261b}.st35{fill:#fcd22e}.st36{fill:#fd7600}.st37{opacity:.3}.st38{fill:#f0f0f0}.st39{fill:#b2c61e}.st40{fill:#00b7f1}.st41{opacity:.2;fill:#010000}.st42{opacity:.3;fill:#010000}.st43{fill:#0084fd}.st44{fill:#f7534f}.st45{fill:#54301d}.st46{fill:#ffe4c0}.st47{opacity:.3;fill:#1e0e00}.st48{opacity:.2}.st48,.st49,.st50{fill:#1e0e00}.st50,.st51{opacity:.1}.st51{fill:#FFF}.st52{opacity:.15;fill:#1e0e00}.st53{fill:#78f1ff}.st54{fill:#efefef}.st55{fill:#29353f}.st56{fill:#9dd643}.st57{fill:none;stroke:#293e4c;stroke-width:3;stroke-miterlimit:10}.st58{opacity:.15;enable-background:new}.st59{fill:#0068ba}.st60{fill:#ededed}.st61{fill:#27c15a}.st62{opacity:.3}.st62,.st63{fill:#5b5b5b}.st64{fill:#ececec}.st65{fill:#ffd59b}.st66{fill:#f7cc9a}.st67{fill:#ff8080}.st68{fill:#77503b}.st69{fill:#513123}.st70{opacity:.5;fill:#FFF}.st71{fill:#70462d}.st72{opacity:.15;fill:#010101}.st73{fill:#6d4735}.st74{opacity:.1;fill:#010101}.st75{opacity:.3}.st75,.st76{fill-rule:evenodd;clip-rule:evenodd}.st76{fill:#073b44}.st77{fill:#ffd79d}.st78{opacity:.29}.st79{fill:#ddb890}.st80{opacity:.4}.st80,.st81{fill:#e9b980}.st82{fill:#a0a0a0}</style><circle class="st10" cx="32.2" cy="21.5" r="20.5"/><circle class="st11" cx="23.3" cy="31.4" r="20.5"/><path class="st4" d="M43.7 33.2L31.5 22l-.5.2c-2.1-1.7-4.8-2.7-7.7-2.7C16.5 19.5 11 25 11 31.8c0 3.6 1.6 6.9 4.1 9.1l.1 1 12.3 9.5c8.7-1.7 15.4-9.1 16.2-18.2z"/><path class="st12" d="M23.3 19c-3 0-5.9 1.1-8.2 3l-1.7-1.4-1.3 7.1 6.8-2.4-1.7-1.5c1.8-1.3 3.9-2.1 6.1-2.1 5.6 0 10.2 4.6 10.2 10.2s-4.6 10.2-10.2 10.2-10.2-4.6-10.2-10.2v-.8-.1l-.1-.5c-.2-.5-.7-.9-1.3-.9-.6 0-1.1.4-1.3 1 0 0-.1 1-.1 1.3 0 7.1 5.8 12.9 12.9 12.9 7.1 0 12.9-5.8 12.9-12.9.1-7.1-5.7-12.9-12.8-12.9z"/><path class="st12" d="M23.8 32.3c0 .4-.3.8-.8.8-.4 0-.8-.3-.8-.8v-7.1c0-.4.3-.8.8-.8.4 0 .8.3.8.8v7.1z"/><path class="st12" d="M27.7 33.6c.4.2.6.6.4 1-.2.4-.6.6-1 .4l-4.3-1.9c-.4-.2-.6-.6-.4-1 .2-.4.6-.6 1-.4l4.3 1.9z"/></svg>