<svg id="Layer_1" xmlns="http://www.w3.org/2000/svg" viewBox="0 0 174.7 176.9"><style>.st0{fill:#edb914}.st1{opacity:.2;fill:#3c3c3b}.st2{fill:#c1910a}.st3{fill:#004a54}.st4{opacity:.1}.st5{fill:#46ace1}.st6{fill:#ff5046}.st7{fill:#46b879}.st8{opacity:.2}.st9{fill:#26844e}.st10{fill:#fcd22f}.st11{fill:#428bf4}.st12{fill:#e3e3e3}.st13{fill:#293e4c}.st14{opacity:.4}.st15{fill:#5cd5ff}.st16{fill:#cacaca}.st17{fill:#ff5955}.st18{fill:#ff5148}.st19,.st20{fill:#FFF}.st20,.st21{opacity:.2}.st21{enable-background:new}.st22{fill:#85c457}.st23{fill:#116fce}.st24{opacity:.3;fill:none;stroke:#e3e3e3;stroke-width:2.126;stroke-linecap:round;stroke-miterlimit:10}.st25{fill:#ffdb4a}.st26{fill:#4b4b4b}.st27{opacity:.1;fill:#010000}.st28{fill:#6fbc33}.st29{fill:#af890e}.st30{fill:#76d9fc}.st31{fill-rule:evenodd;clip-rule:evenodd}.st31,.st32{fill:#00a936}.st33{fill:#010000}.st34{fill:#30261b}.st35{fill:#fcd22e}.st36{fill:#fd7600}.st37{opacity:.3}.st38{fill:#f0f0f0}.st39{fill:#b2c61e}.st40{fill:#00b7f1}.st41{opacity:.2;fill:#010000}.st42{opacity:.3;fill:#010000}.st43{fill:#0084fd}.st44{fill:#f7534f}.st45{fill:#54301d}.st46{fill:#ffe4c0}.st47{opacity:.3;fill:#1e0e00}.st48{opacity:.2}.st48,.st49,.st50{fill:#1e0e00}.st50,.st51{opacity:.1}.st51{fill:#FFF}.st52{opacity:.15;fill:#1e0e00}.st53{fill:#78f1ff}.st54{fill:#efefef}.st55{fill:#29353f}.st56{fill:#9dd643}.st57{fill:none;stroke:#293e4c;stroke-width:3;stroke-miterlimit:10}.st58{opacity:.15;enable-background:new}.st59{fill:#0068ba}.st60{fill:#ededed}.st61{fill:#27c15a}.st62{opacity:.3}.st62,.st63{fill:#5b5b5b}.st64{fill:#ececec}.st65{fill:#ffd59b}.st66{fill:#f7cc9a}.st67{fill:#ff8080}.st68{fill:#77503b}.st69{fill:#513123}.st70{opacity:.5;fill:#FFF}.st71{fill:#70462d}.st72{opacity:.15;fill:#010101}.st73{fill:#6d4735}.st74{opacity:.1;fill:#010101}.st75{opacity:.3}.st75,.st76{fill-rule:evenodd;clip-rule:evenodd}.st76{fill:#073b44}.st77{fill:#ffd79d}.st78{opacity:.29}.st79{fill:#ddb890}.st80{opacity:.4}.st80,.st81{fill:#e9b980}.st82{fill:#a0a0a0}</style><ellipse class="st4" cx="89.8" cy="167.1" rx="84.9" ry="9.8"/><path class="st30" d="M170.5 84c0 46.4-37.6 84-84 84s-84-37.6-84-84 37.6-84 84-84 84 37.6 84 84z"/><path class="st31" d="M32.3 100.4c-.5-.2-1.1-.3-1.5-.4-.6-.1-1-.1-1.4 0-1.1.3-1.2 1.5 1.9 3.4.8 1.1 2.3 2.1 3.8 1.6.8-2.4-.9-3.8-2.7-4.4l-.1-.2zM45.3 76.6c.1.1.2.3.3.3h.2c.8.2 1.6-.6 1-.7-.2 0-.7.1-1.5.4zM64.8 69.3c-1.3.2-1.7 1.1 1.2 3.1.4-.1 2.8-.7 1.4.8 4.4-2.7-.4-4.3-2.6-3.9zM64.8 50.3c4.8-1.9 5.9-14.5.2-14.2-.4 0-.7.2-1.2.4 2.3 4.4-3.2 10 1 13.8zM119.6 60.7c.4-2.6-3.8-4.6-5.7-4.5-1.1.1-1.3.9.7 2.7-1.8 4.6 3.2 4.8 5 1.8zM76.9 28c1.4-.6 2-2.9 0-2.9-.4-.1-.6-.2-1-.2s-.7.1-1 .2c-4.1.7-2.8 7.4 2 2.9z"/><path class="st31" d="M82.5 26.4c-5.8.7-11.7 6.4-6.3 11.9 3.9 4.9-5.6 14.8 3.4 17.3 3.6-8 13.4-14.3 10.9-24.1-.9-4.1-4.4-5.5-8-5.1z"/><path class="st32" d="M72.5 141.9c-8.6-5.7-14.9-14.5-24.6-18.8-7.9-7.7-25.8-2.9-25.4-17.4.8-6.9-4.7-10.2-8.9-13.5-3.2-10.7 16.3-14.6 16.6-2.9 6.4-.3 8.7-11.5 16.1-13.1 3.8-3.3 14.1.2 10.4-6.5 3.7-3.5 14.5-3.4 9.2-11.6C64 50 54.2 46.2 51 55.3c-8.9 2.4-5.3-16.9 3.7-14.4 6.6.4 5.7-5.3 1.7-7.2 0-.3-.1-.4-.3-.2-.7-.3-1.5-.6-2.4-.5-8.9-4.9 8.9-17.4-2.9-21.4-12.9 11-32.6 28.4-40.5 44.6-3.6 10.2-3 20.4-2.5 31.1 3.6 10.4 10.6 18.9 16.2 28.2 3.6 4.5 1.9 9.6 1.6 14.5-.1 0 0 .1 0 .2-.2 3 .3 5.8 2.8 8.4 4.4 5.6 10.7 10.1 13.8 16.6 7 4.4 14.7 7.7 22.9 9.9.9-.4 2.7-.9 9.2-1.5v-.2c0-1.9 9-4.8 13.4-8.1 7.4-8.9-7.8-16-15.2-13.4zM150.5 138.3c12.4-14.7 20-33.6 20-54.3 0-2.3-.2-4.6-.3-6.9-.1-.6-.1-1.1-.2-1.7-4.8 2.6-13.3-11.8-4.6-4.9 1.7-.1 2.8-.6 3.6-1.3-1-5.3-2.4-10.4-4.3-15.2-.9-1-1.7-2-2.4-2.5.1-1.1 0-2.1-.2-3.1 0-.1.1-.1 0-.2C148.4 20 119.5.6 86.1.6c-2.3 0-4.6.1-6.8.3-1.2.3-2.5.4-3.8.5-.4 0-.9.1-1.3.2-4.8.5-9.3 1.4-13.7 2.8 11.6-.9 23.4-.6 33.8 4.6 2.8 8.8 19.2.2 18.4 10.1l.5.5c-.3.2.2 2 .5.5 2.8 3.2 8.8 9.9 2.6 9.1-8.3-1.1-6.2 15.3-.2 18.3 5.7 3.1 8.9-3.1 3.1-6.1-.8-7.7 12.8 4.7 6.8 8.9-.2.2-.4.4-.7.5.3-1.1-.4-.1-.4.2-6.8 5-2.9 16.6-5.6 24.4-4.7 10.5 11.9 5.9 9.4-2.4-3-7.6 12.6-4.1 9.2-9.6 9.5 5 8.6-8.5 4.6-13 1.9-7.2 6.7.8 4.4 4.8.4 3.7 3.6 4.6 6.2 5.6.1.1.3.1.5.2 2.3 1.1 3.6 2.5 1.2 6.7-2.8 9.4-12.2 9.9-20 8.2-7.8 3.2-9.3 12.7-13.7 19.1-4.4 8-8 19.7-.2 26.8 7.5 7.2 16.1 1 22.4-3.9 11.9-1.6 13 12.5 7.2 19.7.1.2.1.4 0 .7z"/><g class="st8"><path class="st33" d="M6.6 58.1c0 .1 0 .1-.1.2.8 0 1.5-.1 1.5-.2H6.6zM157.5 128.9c-.1.1-.1.1-.1.2 0-.1 0-.1.1-.2z"/><path class="st33" d="M164.2 109.3c0-.1 0-.3.1-.3-.1.2-1.4 1.4-11 2.8 2.5-8.4 3.8-17.4 3.9-26.8H170v-2.5h-12.8c-.1-9.5-1.6-18.5-4.1-27 9.7 1.4 11 2.7 11.1 2.8 0 0-.1-.1-.1-.3h2.3c-.2-.5-.4-1.1-.6-1.6-1-.9-3.1-1.7-6.5-2.4-2-.4-4.4-.8-7.2-1.2-3.2-9.8-7.9-18.6-13.8-26.2 5.9 1.5 10.6 3.3 13.8 5.1-1.3-1.6-2.6-3.2-4-4.7-3.4-1.3-7-2.4-10.5-3.2-.6-.2-1.3-.3-1.9-.5-9-10.4-20.2-18.1-32.7-21.7C97.7.6 92.2 0 86.5 0c-6.3 0-12.4.7-18.3 2-12 3.8-22.8 11.2-31.4 21.3-.7.2-1.4.3-2 .5-3.2.8-6.5 1.7-9.6 2.9-1.4 1.5-2.7 3-3.9 4.5 3.2-1.7 7.6-3.3 12.9-4.6-5.9 7.6-10.6 16.4-13.9 26.2-3 .4-5.5.8-7.6 1.3-2.4.5-4.2 1.1-5.3 1.7-.2.7-.5 1.3-.7 2 2.4-.6 6.6-1.4 12.7-2.2-2.5 8.5-4 17.6-4.1 27.1H2.6v2.5h12.8c.1 9.4 1.5 18.4 3.9 26.8-9.9-1.5-11.2-2.8-11.3-3 0 0 .1.1.1.3H6.4c.2.8.5 1.5.8 2.3 1.2.7 3 1.2 5.6 1.8 2 .4 4.5.8 7.4 1.2 3 9.2 7.3 17.7 12.7 25-5.9-1.6-10.6-3.5-13.6-5.4 1.3 1.7 2.6 3.3 4 4.9 3.6 1.5 7.7 2.7 11.6 3.7.2 0 .4.1.6.1 8.8 10.9 20.1 19 32.7 23 6 1.3 12.1 2.1 18.5 2.1 5.6 0 11.2-.6 16.5-1.6 13.3-3.9 25.1-12.2 34.3-23.6.1 0 .2-.1.4-.1 4.2-1 8.8-2.4 12.6-4.1 1.5-1.7 2.9-3.5 4.2-5.3-2.9 2.3-8 4.4-14.7 6.3 5.3-7.3 9.6-15.8 12.6-25 2.7-.4 5.1-.8 7-1.2 3.6-.8 5.7-1.6 6.6-2.6.2-.5.3-.9.5-1.4h-2.5zM76.7 2.6c-4.6 3.3-8.8 9-12.5 16.8-8.4.7-16.3 1.7-23.3 3.1C50.8 12 63.1 4.9 76.7 2.6zm-38.6 23c7.3-1.6 15.8-2.8 25-3.6-.3.8-.7 1.6-1 2.4-2.9 7.5-5.3 16.2-6.9 25.7-9.3.3-17.9.9-25.3 1.5-2.4.2-4.7.5-6.8.7 3.5-10 8.6-19.1 15-26.7zM22.2 55.1c2.7-.3 5.9-.7 9.7-1 6.8-.6 14.5-1 22.8-1.4-1.5 9.4-2.3 19.4-2.3 29.8H17.9c.1-9.6 1.6-18.8 4.3-27.4zm-4.3 30h34.6c.1 10.3.8 20.2 2.2 29.6-8.3-.3-16-.8-22.7-1.4-3.9-.3-7.2-.7-9.9-1-2.7-8.5-4.1-17.7-4.2-27.2zm5 29.8c2.2.3 4.5.5 7 .7 7.3.7 15.9 1.2 25.2 1.6 1.6 9.7 4 18.6 7 26.3.1.3.3.6.4.9-9.5-.8-18.3-2.1-25.8-3.9-5.9-7.3-10.6-16-13.8-25.6zm16.4 28.8c7.2 1.5 15.4 2.6 24.2 3.3 3.8 8.6 8.3 14.8 13.1 18.3-14.3-2.4-27.2-10.1-37.3-21.6zM85 166.1c-6.8-.7-13.3-7.3-18.6-18.9 6 .4 12.2.6 18.6.7v18.2zm0-20.7c-6.8 0-13.4-.3-19.8-.7-.3-.7-.6-1.4-.8-2.1-2.9-7.4-5.2-15.9-6.8-25.2 8.6.3 17.9.5 27.4.5v27.5zm0-30.2c-9.6 0-19-.2-27.8-.5-1.4-9.3-2.2-19.3-2.3-29.7H85v30.2zm0-32.7H54.9c.1-10.4.9-20.5 2.4-29.8 8.7-.3 18.1-.5 27.7-.5v30.3zm0-32.9c-9.5 0-18.7.2-27.3.5 1.6-9.1 3.8-17.4 6.7-24.7.5-1.3 1-2.4 1.5-3.6 6.1-.4 12.6-.7 19.1-.7v28.5zm0-31c-6.1 0-12.1.2-17.9.6C72.3 8.6 78.5 2.5 85 1.8v16.8zm69.7 63.9h-34.6c-.1-10.4-.9-20.4-2.3-29.8 8.2.3 15.8.8 22.4 1.3 4 .3 7.4.7 10.1 1.1 2.7 8.6 4.3 17.8 4.4 27.4zm-5.2-30c-2.2-.3-4.6-.5-7.2-.8-7.3-.7-15.7-1.2-24.9-1.5-1.6-9.5-3.9-18.2-6.9-25.7-.3-.8-.6-1.6-1-2.4 9.2.8 17.6 2 25 3.6 6.4 7.6 11.5 16.7 15 26.8zm-17.8-30c-7-1.4-14.9-2.4-23.3-3.1-3.6-7.8-7.9-13.5-12.5-16.8 13.6 2.3 25.9 9.4 35.8 19.9zM87.5 1.8c6.5.7 12.8 6.8 17.9 17.4-5.8-.4-11.8-.6-17.9-.6V1.8zm0 19.3c6.6 0 13 .3 19.1.7.5 1.1 1 2.3 1.5 3.6 2.8 7.2 5.1 15.6 6.7 24.7-8.6-.3-17.8-.5-27.3-.5V21.1zm0 31.1c9.6 0 19 .2 27.7.5 1.5 9.4 2.3 19.5 2.4 29.9H87.5V52.2zm0 32.9h30.1c0 10.3-.8 20.3-2.3 29.6-8.8.3-18.2.5-27.8.5V85.1zm0 32.7c9.5 0 18.8-.2 27.4-.5-1.6 9.3-3.9 17.8-6.8 25.2-.3.7-.6 1.4-.8 2.1-6.3.5-13 .7-19.8.8v-27.6zm0 30.1c6.4 0 12.6-.3 18.6-.7-5.3 11.5-11.8 18.1-18.6 18.9v-18.2zm8.4 17.5c4.9-3.5 9.4-9.7 13.2-18.3 8.8-.7 17-1.8 24.2-3.3-10.1 11.3-23.1 19.1-37.4 21.6zm40-24.9c-7.5 1.8-16.2 3.1-25.8 3.9.1-.3.2-.6.4-.9 3-7.7 5.4-16.6 7-26.3 9.2-.4 17.6-.9 24.9-1.5 2.7-.2 5.1-.5 7.4-.8-3.4 9.6-8.1 18.2-13.9 25.6zm14.7-28.3c-2.8.4-6.2.7-10.3 1.1-6.7.6-14.2 1-22.4 1.3 1.4-9.3 2.2-19.3 2.2-29.6h34.6c-.1 9.6-1.6 18.7-4.1 27.2z"/></g><path class="st14" d="M25.6 27l-13.4 94.6c6.9 13.7 17.4 25.3 30.3 33.4 16.5-14.5 46.4-42.8 46.4-42.8.5.5-50.7-73.2-60.9-87.8-.8.9-1.6 1.8-2.4 2.6z"/><path class="st14" d="M148.4 27l13.4 94.6c-6.9 13.7-17.4 25.3-30.3 33.4-16.5-14.5-46.4-42.8-46.4-42.8-.5.5 50.7-73.2 60.9-87.8.8.9 1.6 1.8 2.4 2.6z"/><g><path class="st13" d="M148.1 168.6c0 1.2-.9 2.2-2.1 2.2H27.1c-1.2 0-2.1-1-2.1-2.2V19c0-1.2.9-2.2 2.1-2.2H146c1.2 0 2.1 1 2.1 2.2v149.6z"/><path class="st37" d="M148.1 38.1V19c0-1.2-.9-2.3-2.1-2.3H27.1c-1.2 0-2.1 1-2.1 2.3v19.1h123.1z"/><path class="st19" d="M117.7 31.6V24h3c2.4 0 4.1 1.5 4.1 3.8s-1.7 3.8-4.1 3.8h-3zm5.4-3.8c0-1.4-.8-2.4-2.4-2.4h-1.4v4.8h1.4c1.5 0 2.4-1.1 2.4-2.4zM131.2 31.6l-3.6-5v5H126V24h1.7l3.5 4.8V24h1.6v7.7h-1.6zM133.8 30.6l.9-1.2c.5.6 1.4 1 2.4 1 .9 0 1.3-.4 1.3-.8 0-1.4-4.4-.4-4.4-3.3 0-1.3 1.1-2.3 2.9-2.3 1.2 0 2.2.4 3 1.1l-.9 1.2c-.6-.6-1.4-.8-2.2-.8-.7 0-1.1.3-1.1.8 0 1.2 4.4.4 4.4 3.3 0 1.4-1 2.5-3.1 2.5-1.4-.3-2.5-.8-3.2-1.5z"/><path class="st37" d="M143.5 43.3h-113c-1.2 0-2.2 1.1-2.2 2.5v23.4c0 1.4 1 2.5 2.2 2.5h113c1.2 0 2.2-1.1 2.2-2.5V45.8c0-1.4-1-2.5-2.2-2.5z"/><path class="st38" d="M143.2 67.1c0 1.1-.9 2.1-2.1 2.1H32.8c-1.1 0-2.1-.9-2.1-2.1V47.8c0-1.1.9-2.1 2.1-2.1h108.4c1.1 0 2.1.9 2.1 2.1v19.3z"/><path class="st19" d="M143.2 49.6H48.3c-.8 0-1.4.6-1.4 1.4 0 .8.6 1.4 1.4 1.4h94.9v-2.8zM143.2 55.3H48.3c-.8 0-1.4.6-1.4 1.4 0 .8.6 1.4 1.4 1.4h94.9v-2.8zM143.2 61.2H48.3c-.8 0-1.4.6-1.4 1.4 0 .8.6 1.4 1.4 1.4h94.9v-2.8z"/><path class="st16" d="M143.2 50.1H48.3c-.8 0-1.4.6-1.4 1.4 0 .8.6 1.4 1.4 1.4h94.9v-2.8zM143.2 55.8H48.3c-.8 0-1.4.6-1.4 1.4 0 .8.6 1.4 1.4 1.4h94.9v-2.8zM143.2 61.7H48.3c-.8 0-1.4.6-1.4 1.4 0 .8.6 1.4 1.4 1.4h94.9v-2.8z"/><circle class="st39" cx="38" cy="53.7" r="4.1"/><circle class="st20" cx="36.4" cy="52" r="1"/><path class="st4" d="M143.2 67.1c0 1.1-.9 2.1-2.1 2.1L30.7 47.8c0-1.1.9-2.1 2.1-2.1h108.4c1.1 0 2.1.9 2.1 2.1v19.3z"/><g><path class="st37" d="M143.5 74.4h-113c-1.2 0-2.2 1.1-2.2 2.5v23.4c0 1.4 1 2.5 2.2 2.5h113c1.2 0 2.2-1.1 2.2-2.5V76.8c0-1.3-1-2.4-2.2-2.4z"/><path class="st38" d="M143.2 98.3c0 1.1-.9 2.1-2.1 2.1H32.8c-1.1 0-2.1-.9-2.1-2.1V78.9c0-1.1.9-2.1 2.1-2.1h108.4c1.1 0 2.1.9 2.1 2.1v19.4z"/><path class="st19" d="M143.2 80.7H48.3c-.8 0-1.4.6-1.4 1.4 0 .8.6 1.4 1.4 1.4h94.9v-2.8zM143.2 86.4H48.3c-.8 0-1.4.6-1.4 1.4 0 .8.6 1.4 1.4 1.4h94.9v-2.8zM143.2 92.3H48.3c-.8 0-1.4.6-1.4 1.4 0 .8.6 1.4 1.4 1.4h94.9v-2.8z"/><path class="st16" d="M143.2 81.3H48.3c-.8 0-1.4.6-1.4 1.4 0 .8.6 1.4 1.4 1.4h94.9v-2.8zM143.2 87H48.3c-.8 0-1.4.6-1.4 1.4 0 .8.6 1.4 1.4 1.4h94.9V87zM143.2 92.8H48.3c-.8 0-1.4.6-1.4 1.4 0 .8.6 1.4 1.4 1.4h94.9v-2.8z"/><circle class="st39" cx="38" cy="84.8" r="4.1"/><circle class="st20" cx="36.4" cy="83.1" r="1"/><path class="st4" d="M143.2 98.3c0 1.1-.9 2.1-2.1 2.1L30.7 78.9c0-1.1.9-2.1 2.1-2.1h108.4c1.1 0 2.1.9 2.1 2.1v19.4z"/></g><g><path class="st37" d="M143.5 106.2h-113c-1.2 0-2.2 1.1-2.2 2.5v23.4c0 1.4 1 2.5 2.2 2.5h113c1.2 0 2.2-1.1 2.2-2.5V108.4c0-1.1-1-2.2-2.2-2.2z"/><path class="st38" d="M143.2 130.1c0 1.1-.9 2.1-2.1 2.1H32.8c-1.1 0-2.1-.9-2.1-2.1v-19.4c0-1.1.9-2.1 2.1-2.1h108.4c1.1 0 2.1.9 2.1 2.1v19.4z"/><path class="st19" d="M143.2 112.5H48.3c-.8 0-1.4.6-1.4 1.4 0 .8.6 1.4 1.4 1.4h94.9v-2.8zM143.2 118.2H48.3c-.8 0-1.4.6-1.4 1.4 0 .8.6 1.4 1.4 1.4h94.9v-2.8zM143.2 124.1H48.3c-.8 0-1.4.6-1.4 1.4 0 .8.6 1.4 1.4 1.4h94.9v-2.8z"/><path class="st16" d="M143.2 113.1H48.3c-.8 0-1.4.6-1.4 1.4 0 .8.6 1.4 1.4 1.4h94.9v-2.8zM143.2 118.8H48.3c-.8 0-1.4.6-1.4 1.4 0 .8.6 1.4 1.4 1.4h94.9v-2.8zM143.2 124.7H48.3c-.8 0-1.4.6-1.4 1.4 0 .8.6 1.4 1.4 1.4h94.9v-2.8z"/><circle class="st39" cx="38" cy="116.6" r="4.1"/><circle class="st20" cx="36.4" cy="114.9" r="1"/><path class="st4" d="M143.2 130.1c0 1.1-.9 2.1-2.1 2.1L30.7 110.7c0-1.1.9-2.1 2.1-2.1h108.4c1.1 0 2.1.9 2.1 2.1v19.4z"/></g><g><path class="st37" d="M143.5 137.3h-113c-1.2 0-2.2 1.1-2.2 2.5v23.4c0 1.4 1 2.5 2.2 2.5h113c1.2 0 2.2-1.1 2.2-2.5v-23.4c0-1.3-1-2.5-2.2-2.5z"/><path class="st38" d="M143.2 161.2c0 1.1-.9 2.1-2.1 2.1H32.8c-1.1 0-2.1-.9-2.1-2.1v-19.4c0-1.1.9-2.1 2.1-2.1h108.4c1.1 0 2.1.9 2.1 2.1v19.4z"/><path class="st19" d="M143.2 143.7H48.3c-.8 0-1.4.6-1.4 1.4 0 .8.6 1.4 1.4 1.4h94.9v-2.8zM143.2 149.4H48.3c-.8 0-1.4.6-1.4 1.4 0 .8.6 1.4 1.4 1.4h94.9v-2.8zM143.2 155.2H48.3c-.8 0-1.4.6-1.4 1.4 0 .8.6 1.4 1.4 1.4h94.9v-2.8z"/><path class="st16" d="M143.2 144.2H48.3c-.8 0-1.4.6-1.4 1.4 0 .8.6 1.4 1.4 1.4h94.9v-2.8zM143.2 149.9H48.3c-.8 0-1.4.6-1.4 1.4 0 .8.6 1.4 1.4 1.4h94.9v-2.8zM143.2 155.8H48.3c-.8 0-1.4.6-1.4 1.4 0 .8.6 1.4 1.4 1.4h94.9v-2.8z"/><circle class="st39" cx="38" cy="147.8" r="4.1"/><circle class="st20" cx="36.4" cy="146" r="1"/><path class="st4" d="M143.2 161.2c0 1.1-.9 2.1-2.1 2.1L30.7 141.8c0-1.1.9-2.1 2.1-2.1h108.4c1.1 0 2.1.9 2.1 2.1v19.4z"/></g><g><path class="st40" d="M33.3 16.6v15.8c0 .7.6 1.3 1.3 1.3.7 0 1.3-.6 1.3-1.3V16.6h-2.6zM38.3 16.6v15.8c0 .7.6 1.3 1.3 1.3.7 0 1.3-.6 1.3-1.3V16.6h-2.6z"/></g></g><circle class="st14" cx="139.4" cy="145.5" r="27.9"/><g><path class="st53" d="M168.3 144.5c0 14.9-12.1 26.9-26.9 26.9-14.9 0-26.9-12.1-26.9-26.9 0-14.9 12.1-26.9 26.9-26.9 14.9-.1 26.9 12 26.9 26.9z"/><path class="st43" d="M141.4 116.6c-15.4 0-27.9 12.5-27.9 27.9 0 15.4 12.5 27.9 27.9 27.9 15.4 0 27.9-12.5 27.9-27.9-.1-15.4-12.5-27.9-27.9-27.9zm22.8 36.9c-1.8.9-3.9 1.8-6.1 2.8 1-3.4 1.6-7.1 1.6-10.9h6.2c-.1 2.9-.7 5.6-1.7 8.1zm-47.4-8.1h6.2c0 4.1.8 8 1.9 11.7-2.1-.8-4.1-1.7-5.9-2.5-1.3-2.8-2.1-5.9-2.2-9.2zm23.6-25.5v6.2c-3.8 0-7.5.7-10.9 1.6.9-2.3 1.9-4.3 2.8-6.1 2.5-1 5.3-1.6 8.1-1.7zm9 9.8c1.8.4 3.5 1 5.2 1.6.6 1.7 1.1 3.4 1.6 5.2-1.6-2.9-4-5.2-6.8-6.8zm-7.1-3.6v-6.2c2.9.1 5.6.7 8.1 1.7.9 1.9 1.9 4.1 2.9 6.5-3.4-1-7.1-1.8-11-2zm-7.7 3c-3.4 1.5-6.3 4.1-8 7.4.5-2 1.1-4 1.8-5.9 2-.6 4.1-1.2 6.2-1.5zm-11.5 14.4h-6.2c.1-3.3.9-6.4 2.1-9.2 1.9-.9 4.1-1.8 6.4-2.7-1.3 3.7-2.1 7.7-2.3 11.9zm2.9 7.7c1.7 3.9 4.8 7 8.7 8.7-2.4-.4-4.7-1-6.9-1.7-.8-2.3-1.4-4.6-1.8-7zm14.4 11.6v6.2c-3.3-.1-6.3-.9-9.2-2.1-.8-1.8-1.7-3.8-2.5-5.9 3.7 1 7.6 1.8 11.7 1.8zm1.9 0c4.2-.2 8.2-1.1 11.9-2.3-.9 2.3-1.8 4.4-2.7 6.4-2.8 1.3-5.9 2-9.2 2.1v-6.2zm7.1-3.6c3.3-1.8 5.9-4.6 7.4-8-.4 2.2-.9 4.2-1.5 6.2-1.9.7-3.9 1.3-5.9 1.8zm10.3-15.7c-.2-3.9-1-7.6-2-11.1 2.4 1 4.6 2 6.5 2.9 1 2.5 1.6 5.3 1.7 8.1h-6.2zm2.6-11.9c-1.8-.8-3.7-1.7-5.8-2.4-.8-2-1.6-4-2.4-5.8 3.4 2.1 6.2 4.9 8.2 8.2zm-33.7-8.1c-.8 1.6-1.5 3.4-2.2 5.3-1.9.7-3.7 1.4-5.5 2.1 2-3 4.6-5.5 7.7-7.4zm-7.7 34.5c1.6.7 3.2 1.3 5 2 .6 1.7 1.3 3.4 1.9 5-2.8-1.9-5.1-4.2-6.9-7zm34.1 7c.7-1.7 1.5-3.5 2.1-5.5 1.9-.7 3.6-1.5 5.3-2.2-1.9 3-4.4 5.7-7.4 7.7z"/><circle class="st43" cx="141.4" cy="144.5" r="14.7"/><path class="st19" d="M134.6 139.1c.5-3.5 3-5.6 6.9-5.6 4.1 0 6.7 2.2 6.7 5.5 0 1.9-.8 3.3-3.1 5.3-2.1 1.8-2.4 2.7-2.4 5.1h-2.9v-.6c0-2.6.5-3.7 2.4-5.6 1.9-1.9 2.3-2.8 2.3-4.1 0-1.6-1.1-2.7-2.9-2.7-2 0-3.2 1.4-3.3 3.6l-3.7-.9zm8.5 16.3h-3.9v-3.7h3.9v3.7z"/></g><g><path class="st35" d="M124.4 110.4c-2.7 7.1-8.1 12.8-15 15.9 6.9 3.1 12.3 8.8 15 15.9 2.7-7.1 8.1-12.8 15-15.9-6.9-3.1-12.3-8.9-15-15.9z"/><path class="st36" d="M124.4 118.3c-1.4 3.6-4.1 6.4-7.5 8 3.5 1.6 6.2 4.5 7.5 8 1.4-3.6 4.1-6.5 7.5-8-3.4-1.6-6.2-4.5-7.5-8z"/><path class="st35" d="M136.3 99.1c-1.3 3.5-4 6.3-7.3 7.8 3.4 1.5 6 4.3 7.3 7.8 1.3-3.5 4-6.3 7.3-7.8-3.3-1.6-6-4.4-7.3-7.8z"/><path class="st36" d="M136.3 102.9c-.7 1.7-2 3.2-3.7 3.9 1.7.8 3 2.2 3.7 3.9.7-1.7 2-3.2 3.7-3.9-1.7-.7-3-2.1-3.7-3.9z"/><g><path class="st35" d="M110.9 94.5c-1.9 5-5.7 9-10.6 11.2 4.8 2.2 8.7 6.2 10.6 11.2 1.9-5 5.7-9 10.6-11.2-4.9-2.1-8.7-6.2-10.6-11.2z"/><path class="st36" d="M110.9 100.1c-1 2.5-2.9 4.5-5.3 5.7 2.4 1.1 4.4 3.1 5.3 5.7 1-2.5 2.9-4.6 5.3-5.7a9.9 9.9 0 0 1-5.3-5.7z"/></g></g><g><path class="st37" d="M65 25.2H42.4v-7.6c0-.6-.5-1-1-1H30.6c-.6 0-1 .5-1 1v7.6h-1.5v4.5h1.5v4.9h-1.5v34.9H65c3.2 0 5.8-2.6 5.8-5.8V30.9c-.1-3.2-2.6-5.7-5.8-5.7zm-21.2 9.4h-1.3v-4.9h1.3c1.4 0 2.5 1.1 2.5 2.4-.1 1.4-1.2 2.5-2.5 2.5z"/><path class="st18" d="M64.2 22.4H5.8C2.6 22.4 0 25 0 28.2V61c0 3.2 2.6 5.8 5.8 5.8h58.4c3.2 0 5.8-2.6 5.8-5.8V28.2c-.1-3.2-2.6-5.8-5.8-5.8zM43 31.8H27c-1.4 0-2.5-1.1-2.5-2.5 0-1.3 1.1-2.4 2.5-2.4h16c1.4 0 2.5 1.1 2.5 2.4-.1 1.4-1.2 2.5-2.5 2.5z"/><path class="st54" d="M65.6 56.9c0 3.2-2.6 5.8-5.8 5.8H10.1c-3.2 0-5.8-2.6-5.8-5.8V42.2c0-3.2 2.6-5.8 5.8-5.8h49.7c3.2 0 5.8 2.6 5.8 5.8v14.7z"/><path class="st14" d="M40.7 26.9h1.9l1.1-4.5H40z"/><path class="st55" d="M41.6 31.8v-17c0-.6-.5-1-1-1H29.9c-.6 0-1 .5-1 1v17h12.7z"/><path class="st51" d="M41 15.1c0 .3-.2.5-.5.5H30c-.3 0-.5-.2-.5-.5s.2-.5.5-.5h10.5c.2-.1.5.2.5.5z"/><path class="st4" d="M64.2 22.4L5.8 66.7h58.4c3.2 0 5.8-2.6 5.8-5.8V28.2c-.1-3.2-2.6-5.8-5.8-5.8z"/><path class="st13" d="M19.4 55l-5.5-7.5V55h-2.4V43.6H14l5.3 7.2v-7.2h2.4V55h-2.3zM31.9 55l-.7-1.9h-4.9l-.8 1.9h-2.8l4.4-11.5h3.1L34.7 55h-2.8zm-3.2-9l-1.8 5h3.6l-1.8-5zM45.7 55v-8l-3.2 8h-1.1l-3.2-8v8h-2.4V43.6h3.4l2.8 6.9 2.8-6.9h3.4V55h-2.5zM50.4 55V43.6h8.1v2.1h-5.7v2.4h5.5v2.1h-5.5v2.6h5.7V55h-8.1z"/></g></svg>