<svg id="Layer_1" xmlns="http://www.w3.org/2000/svg" viewBox="0 0 54 54"><style>.st0{fill:#edb914}.st1{opacity:.2;fill:#3c3c3b}.st2{fill:#c1910a}.st3{fill:#004a54}.st4{opacity:.1}.st5{fill:#46ace1}.st6{fill:#ff5046}.st7{fill:#46b879}.st8{opacity:.2}.st9{fill:#26844e}.st10{fill:#fcd22f}.st11{fill:#428bf4}.st12{fill:#e3e3e3}.st13{fill:#293e4c}.st14{opacity:.4}.st15{fill:#5cd5ff}.st16{fill:#cacaca}.st17{fill:#ff5955}.st18{fill:#ff5148}.st19,.st20{fill:#FFF}.st20,.st21{opacity:.2}.st21{enable-background:new}.st22{fill:#85c457}.st23{fill:#116fce}.st24{opacity:.3;fill:none;stroke:#e3e3e3;stroke-width:2.126;stroke-linecap:round;stroke-miterlimit:10}.st25{fill:#ffdb4a}.st26{fill:#4b4b4b}.st27{opacity:.1;fill:#010000}.st28{fill:#6fbc33}.st29{fill:#af890e}.st30{fill:#76d9fc}.st31{fill-rule:evenodd;clip-rule:evenodd}.st31,.st32{fill:#00a936}.st33{fill:#010000}.st34{fill:#30261b}.st35{fill:#fcd22e}.st36{fill:#fd7600}.st37{opacity:.3}.st38{fill:#f0f0f0}.st39{fill:#b2c61e}.st40{fill:#00b7f1}.st41{opacity:.2;fill:#010000}.st42{opacity:.3;fill:#010000}.st43{fill:#0084fd}.st44{fill:#f7534f}.st45{fill:#54301d}.st46{fill:#ffe4c0}.st47{opacity:.3;fill:#1e0e00}.st48{opacity:.2}.st48,.st49,.st50{fill:#1e0e00}.st50,.st51{opacity:.1}.st51{fill:#FFF}.st52{opacity:.15;fill:#1e0e00}.st53{fill:#78f1ff}.st54{fill:#efefef}.st55{fill:#29353f}.st56{fill:#9dd643}.st57{fill:none;stroke:#293e4c;stroke-width:3;stroke-miterlimit:10}.st58{opacity:.15;enable-background:new}.st59{fill:#0068ba}.st60{fill:#ededed}.st61{fill:#27c15a}.st62{opacity:.3}.st62,.st63{fill:#5b5b5b}.st64{fill:#ececec}.st65{fill:#ffd59b}.st66{fill:#f7cc9a}.st67{fill:#ff8080}.st68{fill:#77503b}.st69{fill:#513123}.st70{opacity:.5;fill:#FFF}.st71{fill:#70462d}.st72{opacity:.15;fill:#010101}.st73{fill:#6d4735}.st74{opacity:.1;fill:#010101}.st75{opacity:.3}.st75,.st76{fill-rule:evenodd;clip-rule:evenodd}.st76{fill:#073b44}.st77{fill:#ffd79d}.st78{opacity:.29}.st79{fill:#ddb890}.st80{opacity:.4}.st80,.st81{fill:#e9b980}.st82{fill:#a0a0a0}</style><path class="st16" d="M47.6 30.9c0 2.2-1.8 3.9-3.9 3.9H9.6c-2.2 0-3.9-1.8-3.9-3.9V6.7c0-2.2 1.8-3.9 3.9-3.9h34.1c2.2 0 3.9 1.8 3.9 3.9v24.2z"/><path class="st13" d="M45 18.8c0 2.3-1.8 4.1-4.1 4.1h-29c-2.3 0-4.1-1.8-4.1-4.1s1.8-4.1 4.1-4.1h29c2.2 0 4.1 1.8 4.1 4.1zM45 9.6c0 2.3-1.8 4.1-4.1 4.1h-29c-2.3 0-4.1-1.8-4.1-4.1s1.8-4.1 4.1-4.1h29c2.2 0 4.1 1.8 4.1 4.1z"/><path class="st17" d="M11.9 7.7c1.1 0 1.9.9 1.9 1.9 0 1.1-.9 1.9-1.9 1.9-1.1 0-1.9-.9-1.9-1.9 0-1 .9-1.9 1.9-1.9z"/><path class="st16" d="M11.9 17c1.1 0 1.9.9 1.9 1.9 0 1.1-.9 1.9-1.9 1.9-1.1 0-1.9-.9-1.9-1.9 0-1.1.9-1.9 1.9-1.9zM11.9 26.2c1.1 0 1.9.9 1.9 1.9 0 1.1-.9 1.9-1.9 1.9-1.1 0-1.9-.9-1.9-1.9 0-1.1.9-1.9 1.9-1.9z"/><path class="st20" d="M41 8.4c0 .4-.2.7-.5.7H17.4c-.3 0-.5-.3-.5-.7 0-.4.2-.7.5-.7h23.1c.3.1.5.4.5.7zM41 10.8c0 .4-.2.7-.5.7H17.4c-.3 0-.5-.3-.5-.7 0-.4.2-.7.5-.7h23.1c.3 0 .5.3.5.7z"/><g class="st8"><path class="st19" d="M41 17.6c0 .4-.2.7-.5.7H17.4c-.3 0-.5-.3-.5-.7 0-.4.2-.7.5-.7h23.1c.3.1.5.4.5.7zM41 20c0 .4-.2.7-.5.7H17.4c-.3 0-.5-.3-.5-.7 0-.4.2-.7.5-.7h23.1c.3.1.5.4.5.7z"/></g><path class="st13" d="M16.7 45.3l-3.6-4.9v4.9h-1.6v-7.5h1.6l3.5 4.7v-4.7h1.6v7.5h-1.5zM24.8 45.3l-.4-1.3h-3.2l-.5 1.3h-1.8l2.9-7.5h2l2.9 7.5h-1.9zm-2-5.9l-1.2 3.2h2.3l-1.1-3.2zM33.9 45.3V40l-2.1 5.2h-.7L28.9 40v5.2h-1.6v-7.5h2.2l1.8 4.5 1.8-4.5h2.2v7.5h-1.4zM37 45.3v-7.5h5.3v1.4h-3.7v1.6h3.6v1.4h-3.6v1.7h3.7v1.4H37z"/><path class="st4" d="M44.3 25.2h-35c-1.9 0-3.5 1.5-3.5 3.5v19.6c0 1.9 1.5 3.5 3.5 3.5h35c1.9 0 3.5-1.5 3.5-3.5V28.7c0-1.9-1.6-3.5-3.5-3.5zM22 27.9h9.6c.8 0 1.5.7 1.5 1.5s-.7 1.5-1.5 1.5H22c-.8 0-1.5-.7-1.5-1.5s.7-1.5 1.5-1.5z"/><path class="st8" d="M44.3 24.2h-35c-1.9 0-3.5 1.5-3.5 3.5v19.6c0 1.9 1.5 3.5 3.5 3.5h35c1.9 0 3.5-1.5 3.5-3.5V27.7c0-1.9-1.6-3.5-3.5-3.5zm-12.7 5.7H22c-.8 0-1.5-.7-1.5-1.5s.7-1.5 1.5-1.5h9.6c.8 0 1.5.7 1.5 1.5s-.7 1.5-1.5 1.5z"/><path class="st18" d="M44.3 25.2h-35c-1.9 0-3.5 1.5-3.5 3.5v19.6c0 1.9 1.5 3.5 3.5 3.5h35c1.9 0 3.5-1.5 3.5-3.5V28.7c0-1.9-1.6-3.5-3.5-3.5zm-12.7 5.7H22c-.8 0-1.5-.7-1.5-1.5s.7-1.5 1.5-1.5h9.6c.8 0 1.5.7 1.5 1.5s-.7 1.5-1.5 1.5z"/><path class="st54" d="M45.1 45.9c0 1.9-1.5 3.5-3.5 3.5H11.9c-1.9 0-3.4-1.5-3.4-3.5v-8.8c0-1.9 1.5-3.5 3.4-3.5h29.8c1.9 0 3.5 1.5 3.5 3.5v8.8z"/><path class="st4" d="M44.3 25.2l-35 26.5h35c1.9 0 3.5-1.5 3.5-3.5V28.7c0-1.9-1.6-3.5-3.5-3.5z"/><g><path class="st13" d="M16.7 45.3l-3.6-4.9v4.9h-1.6v-7.5h1.6l3.5 4.7v-4.7h1.6v7.5h-1.5zM24.8 45.3l-.4-1.3h-3.2l-.5 1.3h-1.8l2.9-7.5h2l2.9 7.5h-1.9zm-2-5.9l-1.2 3.2h2.3l-1.1-3.2zM33.9 45.3V40l-2.1 5.2h-.7L28.9 40v5.2h-1.6v-7.5h2.2l1.8 4.5 1.8-4.5h2.2v7.5h-1.4zM37 45.3v-7.5h5.3v1.4h-3.7v1.6h3.6v1.4h-3.6v1.7h3.7v1.4H37z"/></g></svg>