<svg id="Layer_1" xmlns="http://www.w3.org/2000/svg" viewBox="0 0 54 54"><style>.st0{fill:#edb914}.st1{opacity:.2;fill:#3c3c3b}.st2{fill:#c1910a}.st3{fill:#004a54}.st4{opacity:.1}.st5{fill:#46ace1}.st6{fill:#ff5046}.st7{fill:#46b879}.st8{opacity:.2}.st9{fill:#26844e}.st10{fill:#fcd22f}.st11{fill:#428bf4}.st12{fill:#e3e3e3}.st13{fill:#293e4c}.st14{opacity:.4}.st15{fill:#5cd5ff}.st16{fill:#cacaca}.st17{fill:#ff5955}.st18{fill:#ff5148}.st19,.st20{fill:#FFF}.st20,.st21{opacity:.2}.st21{enable-background:new}.st22{fill:#85c457}.st23{fill:#116fce}.st24{opacity:.3;fill:none;stroke:#e3e3e3;stroke-width:2.126;stroke-linecap:round;stroke-miterlimit:10}.st25{fill:#ffdb4a}.st26{fill:#4b4b4b}.st27{opacity:.1;fill:#010000}.st28{fill:#6fbc33}.st29{fill:#af890e}.st30{fill:#76d9fc}.st31{fill-rule:evenodd;clip-rule:evenodd}.st31,.st32{fill:#00a936}.st33{fill:#010000}.st34{fill:#30261b}.st35{fill:#fcd22e}.st36{fill:#fd7600}.st37{opacity:.3}.st38{fill:#f0f0f0}.st39{fill:#b2c61e}.st40{fill:#00b7f1}.st41{opacity:.2;fill:#010000}.st42{opacity:.3;fill:#010000}.st43{fill:#0084fd}.st44{fill:#f7534f}.st45{fill:#54301d}.st46{fill:#ffe4c0}.st47{opacity:.3;fill:#1e0e00}.st48{opacity:.2}.st48,.st49,.st50{fill:#1e0e00}.st50,.st51{opacity:.1}.st51{fill:#FFF}.st52{opacity:.15;fill:#1e0e00}.st53{fill:#78f1ff}.st54{fill:#efefef}.st55{fill:#29353f}.st56{fill:#9dd643}.st57{fill:none;stroke:#293e4c;stroke-width:3;stroke-miterlimit:10}.st58{opacity:.15;enable-background:new}.st59{fill:#0068ba}.st60{fill:#ededed}.st61{fill:#27c15a}.st62{opacity:.3}.st62,.st63{fill:#5b5b5b}.st64{fill:#ececec}.st65{fill:#ffd59b}.st66{fill:#f7cc9a}.st67{fill:#ff8080}.st68{fill:#77503b}.st69{fill:#513123}.st70{opacity:.5;fill:#FFF}.st71{fill:#70462d}.st72{opacity:.15;fill:#010101}.st73{fill:#6d4735}.st74{opacity:.1;fill:#010101}.st75{opacity:.3}.st75,.st76{fill-rule:evenodd;clip-rule:evenodd}.st76{fill:#073b44}.st77{fill:#ffd79d}.st78{opacity:.29}.st79{fill:#ddb890}.st80{opacity:.4}.st80,.st81{fill:#e9b980}.st82{fill:#a0a0a0}</style><path class="st13" d="M52.2 37.2c0 2-1.6 3.6-3.6 3.6H17.4c-2 0-3.6-1.6-3.6-3.6L12 9c0-2 3.5-5.5 5.5-5.5h31.1c2 0 3.6 1.6 3.6 3.6v30.1z"/><path class="st14" d="M46 36.2V14.1c0-2-1.6-3.6-3.6-3.6H12.7l1.4 22.9h-.3V37c0 2 1.6 3.6 3.6 3.6H46v-4.4z"/><path class="st15" d="M19.6 16.4c1 0 1.8.8 1.8 1.8s-.8 1.8-1.8 1.8-1.8-.8-1.8-1.8.8-1.8 1.8-1.8zM19.6 24.8c1 0 1.8.8 1.8 1.8s-.8 1.8-1.8 1.8-1.8-.8-1.8-1.8.8-1.8 1.8-1.8zM19.6 33.5c1 0 1.8.8 1.8 1.8s-.8 1.8-1.8 1.8-1.8-.8-1.8-1.8c0-1.1.8-1.8 1.8-1.8z"/><path class="st16" d="M42.7 47.4c0 2-1.6 3.6-3.6 3.6H8c-2 0-3.6-1.6-3.6-3.6v-30c0-2 1.6-3.6 3.6-3.6h31.1c2 0 3.6 1.6 3.6 3.6v30z"/><path class="st13" d="M40.3 36.9c0 2.1-1.7 3.8-3.8 3.8H10.1c-2.1 0-3.8-1.7-3.8-3.8 0-2.1 1.7-3.8 3.8-3.8h26.4c2.2 0 3.8 1.7 3.8 3.8zM40.3 28.5c0 2.1-1.7 3.8-3.8 3.8H10.1c-2.1 0-3.8-1.7-3.8-3.8 0-2.1 1.7-3.8 3.8-3.8h26.4c2.2 0 3.8 1.7 3.8 3.8zM40.3 20.1c0 2.1-1.7 3.8-3.8 3.8H10.1c-2.1 0-3.8-1.7-3.8-3.8 0-2.1 1.7-3.8 3.8-3.8h26.4c2.2 0 3.8 1.7 3.8 3.8z"/><path class="st17" d="M10.2 18.3c1 0 1.8.8 1.8 1.8s-.8 1.8-1.8 1.8-1.8-.8-1.8-1.8.8-1.8 1.8-1.8z"/><path class="st18" d="M10.2 26.8c1 0 1.8.8 1.8 1.8s-.8 1.8-1.8 1.8-1.8-.8-1.8-1.8.8-1.8 1.8-1.8z"/><path class="st15" d="M10.2 35.2c1 0 1.8.8 1.8 1.8s-.8 1.8-1.8 1.8S8.4 38 8.4 37s.8-1.8 1.8-1.8z"/><g class="st8"><path class="st19" d="M36.7 19c0 .3-.2.6-.4.6H15.2c-.2 0-.4-.3-.4-.6s.2-.6.4-.6h21.1c.2 0 .4.3.4.6zM36.7 21.2c0 .3-.2.6-.4.6H15.2c-.2 0-.4-.3-.4-.6s.2-.6.4-.6h21.1c.2 0 .4.2.4.6z"/></g><g class="st8"><path class="st19" d="M36.7 27.4c0 .3-.2.6-.4.6H15.2c-.2 0-.4-.3-.4-.6s.2-.6.4-.6h21.1c.2 0 .4.3.4.6zM36.7 29.6c0 .3-.2.6-.4.6H15.2c-.2 0-.4-.3-.4-.6s.2-.6.4-.6h21.1c.2 0 .4.2.4.6z"/></g><g class="st8"><path class="st19" d="M36.7 35.8c0 .3-.2.6-.4.6H15.2c-.2 0-.4-.3-.4-.6s.2-.6.4-.6h21.1c.2 0 .4.3.4.6zM36.7 38c0 .3-.2.6-.4.6H15.2c-.2 0-.4-.3-.4-.6s.2-.6.4-.6h21.1c.2 0 .4.3.4.6z"/></g><path class="st13" d="M40.3 45.6c0 2.1-1.7 3.8-3.8 3.8H10.1c-2.1 0-3.8-1.7-3.8-3.8 0-2.1 1.7-3.8 3.8-3.8h26.4c2.2 0 3.8 1.7 3.8 3.8z"/><path class="st15" d="M10.2 43.9c1 0 1.8.8 1.8 1.8s-.8 1.8-1.8 1.8-1.8-.8-1.8-1.8c0-1.1.8-1.8 1.8-1.8z"/><path class="st20" d="M36.7 44.5c0 .3-.2.6-.4.6H15.2c-.2 0-.4-.3-.4-.6s.2-.6.4-.6h21.1c.2 0 .4.2.4.6zM36.7 46.7c0 .3-.2.6-.4.6H15.2c-.2 0-.4-.3-.4-.6s.2-.6.4-.6h21.1c.2 0 .4.2.4.6z"/><path class="st21" d="M42.7 17.4v30c0 2-1.6 3.6-3.6 3.6H8l34.7-33.6z"/><path class="st22" d="M51.9 38.7l-5.6-9.9c-.2-.4-.7-.7-1.2-.7s-1 .3-1.2.7l-5.7 9.8c-.2.3-.2.6-.2.9 0 .7.6 1.3 1.3 1.3h11.5c.7 0 1.3-.6 1.3-1.3 0-.3-.1-.5-.2-.8z"/><path class="st22" d="M42.6 35.2c.1.5.1 1 .1 1.5 0 8-6.5 14.4-14.4 14.4-1 0-2-.1-3-.3h-1.9c2.5 1.7 5.5 2.7 8.8 2.7 8.7 0 15.7-7 15.7-15.7 0-.9-.1-1.8-.2-2.7h-5.1z"/><g><path class="st22" d="M3.1 15.3l5.6 9.9c.2.4.7.7 1.2.7s1-.3 1.2-.7l5.7-9.8c.2-.2.2-.5.2-.8 0-.7-.6-1.3-1.3-1.3H4.2c-.7 0-1.3.6-1.3 1.3 0 .2.1.5.2.7z"/><path class="st22" d="M26.7 2.9c.5 0 1 0 1.5.1h3C28.8 1.4 25.9.5 22.8.5c-8.7 0-15.7 7-15.7 15.7 0 .9.1 1.8.2 2.7h5c-.1-.5-.1-1-.1-1.5.1-8 6.6-14.5 14.5-14.5z"/></g></svg>