<svg id="Layer_1" xmlns="http://www.w3.org/2000/svg" viewBox="0 0 54 54"><style>.st0{fill:#edb914}.st1{opacity:.2;fill:#3c3c3b}.st2{fill:#c1910a}.st3{fill:#004a54}.st4{opacity:.1}.st5{fill:#46ace1}.st6{fill:#ff5046}.st7{fill:#46b879}.st8{opacity:.2}.st9{fill:#26844e}.st10{fill:#fcd22f}.st11{fill:#428bf4}.st12{fill:#e3e3e3}.st13{fill:#293e4c}.st14{opacity:.4}.st15{fill:#5cd5ff}.st16{fill:#cacaca}.st17{fill:#ff5955}.st18{fill:#ff5148}.st19,.st20{fill:#FFF}.st20,.st21{opacity:.2}.st21{enable-background:new}.st22{fill:#85c457}.st23{fill:#116fce}.st24{opacity:.3;fill:none;stroke:#e3e3e3;stroke-width:2.126;stroke-linecap:round;stroke-miterlimit:10}.st25{fill:#ffdb4a}.st26{fill:#4b4b4b}.st27{opacity:.1;fill:#010000}.st28{fill:#6fbc33}.st29{fill:#af890e}.st30{fill:#76d9fc}.st31{fill-rule:evenodd;clip-rule:evenodd}.st31,.st32{fill:#00a936}.st33{fill:#010000}.st34{fill:#30261b}.st35{fill:#fcd22e}.st36{fill:#fd7600}.st37{opacity:.3}.st38{fill:#f0f0f0}.st39{fill:#b2c61e}.st40{fill:#00b7f1}.st41{opacity:.2;fill:#010000}.st42{opacity:.3;fill:#010000}.st43{fill:#0084fd}.st44{fill:#f7534f}.st45{fill:#54301d}.st46{fill:#ffe4c0}.st47{opacity:.3;fill:#1e0e00}.st48{opacity:.2}.st48,.st49,.st50{fill:#1e0e00}.st50,.st51{opacity:.1}.st51{fill:#FFF}.st52{opacity:.15;fill:#1e0e00}.st53{fill:#78f1ff}.st54{fill:#efefef}.st55{fill:#29353f}.st56{fill:#9dd643}.st57{fill:none;stroke:#293e4c;stroke-width:3;stroke-miterlimit:10}.st58{opacity:.15;enable-background:new}.st59{fill:#0068ba}.st60{fill:#ededed}.st61{fill:#27c15a}.st62{opacity:.3}.st62,.st63{fill:#5b5b5b}.st64{fill:#ececec}.st65{fill:#ffd59b}.st66{fill:#f7cc9a}.st67{fill:#ff8080}.st68{fill:#77503b}.st69{fill:#513123}.st70{opacity:.5;fill:#FFF}.st71{fill:#70462d}.st72{opacity:.15;fill:#010101}.st73{fill:#6d4735}.st74{opacity:.1;fill:#010101}.st75{opacity:.3}.st75,.st76{fill-rule:evenodd;clip-rule:evenodd}.st76{fill:#073b44}.st77{fill:#ffd79d}.st78{opacity:.29}.st79{fill:#ddb890}.st80{opacity:.4}.st80,.st81{fill:#e9b980}.st82{fill:#a0a0a0}</style><circle class="st56" cx="27" cy="26.4" r="21.7"/><path class="st8" d="M32.3 5.4c-1.3 5.5-13 17.6-13.1 18-.2.3 6.8 5.4 6.8 5.4L14.3 30c-.5 5.5-.8 6.7-.8 8.9v4.5c3.7 3 8.4 4.7 13.5 4.7 12 0 21.7-9.7 21.7-21.7 0-10.2-7-18.7-16.4-21z"/><path class="st57" d="M13.5 39.8V32c0-1.7 1.3-3 3-3h20.8c1.7 0 3 1.3 3 3v7.8"/><path class="st18" d="M34.7 30.7c0 .7-.6 1.3-1.3 1.3h-13c-.7 0-1.3-.6-1.3-1.3v-3c0-.7.6-1.3 1.3-1.3h13c.7 0 1.3.6 1.3 1.3v3z"/><path class="st58" d="M33.4 31.1h-13c-.7 0-1.3-.6-1.3-1.3v.8c0 .7.6 1.3 1.3 1.3h13c.7 0 1.3-.6 1.3-1.3v-.8c0 .8-.6 1.3-1.3 1.3z"/><path class="st18" d="M28.5 22.8c.7 0 1.3.6 1.3 1.3v5.4c0 .7-.6 1.3-1.3 1.3h-3c-.7 0-1.3-.6-1.3-1.3V24c0-.7.6-1.3 1.3-1.3h3z"/><path class="st58" d="M24.2 22.8h5.5v2.7h-5.5z"/><path class="st13" d="M36.6 20.5c0 1.7-1.3 3-3 3H20.3c-1.7 0-3-1.3-3-3V7.6c0-1.7 1.3-3 3-3h13.3c1.7 0 3 1.3 3 3v12.9z"/><path class="st16" d="M34.9 19.8c0 1-.8 1.8-1.8 1.8H20.6c-1 0-1.8-.8-1.8-1.8s.8-1.8 1.8-1.8h12.5c1 0 1.8.8 1.8 1.8z"/><circle class="st18" cx="20.7" cy="19.8" r="1"/><path class="st16" d="M34.9 14.2c0 1-.8 1.8-1.8 1.8H20.6c-1 0-1.8-.8-1.8-1.8s.8-1.8 1.8-1.8h12.5c1 .1 1.8.9 1.8 1.8z"/><circle class="st18" cx="20.7" cy="14.3" r="1"/><path class="st16" d="M34.9 8.8c0 1-.8 1.8-1.8 1.8H20.6c-1 0-1.8-.8-1.8-1.8S19.6 7 20.6 7h12.5c1 .1 1.8.9 1.8 1.8z"/><circle class="st18" cx="20.7" cy="8.8" r="1"/><g><path class="st18" d="M15 33.9c.7 0 1.3.6 1.3 1.3v5.4c0 .7-.6 1.3-1.3 1.3h-3c-.7 0-1.3-.6-1.3-1.3v-5.4c0-.7.6-1.3 1.3-1.3h3z"/><path class="st13" d="M19.8 45.2c0 1.7-1.3 3-3 3h-6.3c-1.7 0-3-1.3-3-3v-6.3c0-1.7 1.3-3 3-3h6.3c1.7 0 3 1.3 3 3v6.3z"/><path class="st16" d="M18.6 39.9c0 1-.8 1.8-1.8 1.8h-6.4c-1 0-1.8-.8-1.8-1.8s.8-1.8 1.8-1.8h6.4c1 0 1.8.8 1.8 1.8z"/><circle class="st18" cx="10.6" cy="39.9" r="1"/><g><path class="st16" d="M18.6 44.1c0 1-.8 1.8-1.8 1.8h-6.4c-1 0-1.8-.8-1.8-1.8s.8-1.8 1.8-1.8h6.4c1 .1 1.8.9 1.8 1.8z"/><circle class="st18" cx="10.6" cy="44.1" r="1"/></g></g><g><path class="st18" d="M41.7 33.9c.7 0 1.3.6 1.3 1.3v5.4c0 .7-.6 1.3-1.3 1.3h-3c-.7 0-1.3-.6-1.3-1.3v-5.4c0-.7.6-1.3 1.3-1.3h3z"/><path class="st13" d="M46.6 45.2c0 1.7-1.3 3-3 3h-6.3c-1.7 0-3-1.3-3-3v-6.3c0-1.7 1.3-3 3-3h6.3c1.7 0 3 1.3 3 3v6.3z"/><path class="st16" d="M45.4 39.9c0 1-.8 1.8-1.8 1.8h-6.4c-1 0-1.8-.8-1.8-1.8s.8-1.8 1.8-1.8h6.4c1 0 1.8.8 1.8 1.8z"/><circle class="st18" cx="37.3" cy="39.9" r="1"/><g><path class="st16" d="M45.4 44.1c0 1-.8 1.8-1.8 1.8h-6.4c-1 0-1.8-.8-1.8-1.8s.8-1.8 1.8-1.8h6.4c1 .1 1.8.9 1.8 1.8z"/><circle class="st18" cx="37.3" cy="44.1" r="1"/></g></g></svg>