<svg id="Layer_1" xmlns="http://www.w3.org/2000/svg" viewBox="0 0 54 54"><style>.st0{fill:#edb914}.st1{opacity:.2;fill:#3c3c3b}.st2{fill:#c1910a}.st3{fill:#004a54}.st4{opacity:.1}.st5{fill:#46ace1}.st6{fill:#ff5046}.st7{fill:#46b879}.st8{opacity:.2}.st9{fill:#26844e}.st10{fill:#fcd22f}.st11{fill:#428bf4}.st12{fill:#e3e3e3}.st13{fill:#293e4c}.st14{opacity:.4}.st15{fill:#5cd5ff}.st16{fill:#cacaca}.st17{fill:#ff5955}.st18{fill:#ff5148}.st19,.st20{fill:#FFF}.st20,.st21{opacity:.2}.st21{enable-background:new}.st22{fill:#85c457}.st23{fill:#116fce}.st24{opacity:.3;fill:none;stroke:#e3e3e3;stroke-width:2.126;stroke-linecap:round;stroke-miterlimit:10}.st25{fill:#ffdb4a}.st26{fill:#4b4b4b}.st27{opacity:.1;fill:#010000}.st28{fill:#6fbc33}.st29{fill:#af890e}.st30{fill:#76d9fc}.st31{fill-rule:evenodd;clip-rule:evenodd}.st31,.st32{fill:#00a936}.st33{fill:#010000}.st34{fill:#30261b}.st35{fill:#fcd22e}.st36{fill:#fd7600}.st37{opacity:.3}.st38{fill:#f0f0f0}.st39{fill:#b2c61e}.st40{fill:#00b7f1}.st41{opacity:.2;fill:#010000}.st42{opacity:.3;fill:#010000}.st43{fill:#0084fd}.st44{fill:#f7534f}.st45{fill:#54301d}.st46{fill:#ffe4c0}.st47{opacity:.3;fill:#1e0e00}.st48{opacity:.2}.st48,.st49,.st50{fill:#1e0e00}.st50,.st51{opacity:.1}.st51{fill:#FFF}.st52{opacity:.15;fill:#1e0e00}.st53{fill:#78f1ff}.st54{fill:#efefef}.st55{fill:#29353f}.st56{fill:#9dd643}.st57{fill:none;stroke:#293e4c;stroke-width:3;stroke-miterlimit:10}.st58{opacity:.15;enable-background:new}.st59{fill:#0068ba}.st60{fill:#ededed}.st61{fill:#27c15a}.st62{opacity:.3}.st62,.st63{fill:#5b5b5b}.st64{fill:#ececec}.st65{fill:#ffd59b}.st66{fill:#f7cc9a}.st67{fill:#ff8080}.st68{fill:#77503b}.st69{fill:#513123}.st70{opacity:.5;fill:#FFF}.st71{fill:#70462d}.st72{opacity:.15;fill:#010101}.st73{fill:#6d4735}.st74{opacity:.1;fill:#010101}.st75{opacity:.3}.st75,.st76{fill-rule:evenodd;clip-rule:evenodd}.st76{fill:#073b44}.st77{fill:#ffd79d}.st78{opacity:.29}.st79{fill:#ddb890}.st80{opacity:.4}.st80,.st81{fill:#e9b980}.st82{fill:#a0a0a0}</style><path class="st25" d="M51.9 44.8c0 2.2-1.8 4-4 4H6.7c-2.2 0-4-1.8-4-4V11c0-2.2 1.8-4 4-4H48c2.2 0 4 1.8 4 4v33.8z"/><path class="st26" d="M47.9 7H6.7c-2.2 0-4 1.8-4 4v5.4H52V11c-.1-2.2-1.8-4-4.1-4z"/><circle class="st19" cx="7.5" cy="11.7" r="1.9"/><circle class="st19" cx="13.1" cy="11.7" r="1.9"/><path class="st19" d="M49 12c0 1-.8 1.7-1.7 1.7h-29c-.9 0-1.7-.8-1.7-1.7 0-1 .8-1.7 1.7-1.7h29c1-.1 1.7.7 1.7 1.7z"/><path class="st27" d="M47.9 7H13.2l23.5 41.7H48c2.2 0 4-1.8 4-4V11c-.1-2.2-1.8-4-4.1-4z"/><path class="st28" d="M46.3 32.5c0 5.2-4.2 9.4-9.4 9.4H17.4C12.2 42 8 37.7 8 32.5s4.2-9.4 9.4-9.4h19.4c5.3 0 9.5 4.2 9.5 9.4z"/><path class="st27" d="M36.7 48.7H48c2.2 0 4-1.8 4-4v-.2l-9.1-16.7L30.4 35s-.3.5-.8 1.2l7.1 12.5z"/><circle class="st27" cx="36.5" cy="33.4" r="7.8"/><circle class="st12" cx="36.5" cy="32.4" r="7.8"/><path class="st19" d="M19.3 38.3c0 .5-.4.9-1 .9-.5 0-1-.4-1-.9V27.9c0-.5.4-.9 1-.9s1 .4 1 .9v10.4z"/></svg>