<svg id="Layer_1" xmlns="http://www.w3.org/2000/svg" viewBox="0 0 54 54"><style>.st0{fill:#edb914}.st1{opacity:.2;fill:#3c3c3b}.st2{fill:#c1910a}.st3{fill:#004a54}.st4{opacity:.1}.st5{fill:#46ace1}.st6{fill:#ff5046}.st7{fill:#46b879}.st8{opacity:.2}.st9{fill:#26844e}.st10{fill:#fcd22f}.st11{fill:#428bf4}.st12{fill:#e3e3e3}.st13{fill:#293e4c}.st14{opacity:.4}.st15{fill:#5cd5ff}.st16{fill:#cacaca}.st17{fill:#ff5955}.st18{fill:#ff5148}.st19,.st20{fill:#FFF}.st20,.st21{opacity:.2}.st21{enable-background:new}.st22{fill:#85c457}.st23{fill:#116fce}.st24{opacity:.3;fill:none;stroke:#e3e3e3;stroke-width:2.126;stroke-linecap:round;stroke-miterlimit:10}.st25{fill:#ffdb4a}.st26{fill:#4b4b4b}.st27{opacity:.1;fill:#010000}.st28{fill:#6fbc33}.st29{fill:#af890e}.st30{fill:#76d9fc}.st31{fill-rule:evenodd;clip-rule:evenodd}.st31,.st32{fill:#00a936}.st33{fill:#010000}.st34{fill:#30261b}.st35{fill:#fcd22e}.st36{fill:#fd7600}.st37{opacity:.3}.st38{fill:#f0f0f0}.st39{fill:#b2c61e}.st40{fill:#00b7f1}.st41{opacity:.2;fill:#010000}.st42{opacity:.3;fill:#010000}.st43{fill:#0084fd}.st44{fill:#f7534f}.st45{fill:#54301d}.st46{fill:#ffe4c0}.st47{opacity:.3;fill:#1e0e00}.st48{opacity:.2}.st48,.st49,.st50{fill:#1e0e00}.st50,.st51{opacity:.1}.st51{fill:#FFF}.st52{opacity:.15;fill:#1e0e00}.st53{fill:#78f1ff}.st54{fill:#efefef}.st55{fill:#29353f}.st56{fill:#9dd643}.st57{fill:none;stroke:#293e4c;stroke-width:3;stroke-miterlimit:10}.st58{opacity:.15;enable-background:new}.st59{fill:#0068ba}.st60{fill:#ededed}.st61{fill:#27c15a}.st62{opacity:.3}.st62,.st63{fill:#5b5b5b}.st64{fill:#ececec}.st65{fill:#ffd59b}.st66{fill:#f7cc9a}.st67{fill:#ff8080}.st68{fill:#77503b}.st69{fill:#513123}.st70{opacity:.5;fill:#FFF}.st71{fill:#70462d}.st72{opacity:.15;fill:#010101}.st73{fill:#6d4735}.st74{opacity:.1;fill:#010101}.st75{opacity:.3}.st75,.st76{fill-rule:evenodd;clip-rule:evenodd}.st76{fill:#073b44}.st77{fill:#ffd79d}.st78{opacity:.29}.st79{fill:#ddb890}.st80{opacity:.4}.st80,.st81{fill:#e9b980}.st82{fill:#a0a0a0}</style><path class="st82" d="M41.1 43.2h-1.8c-.4 0-.8-.4-.8-.8s.4-.8.8-.8h1.8c.8 0 1.5-.1 2.2-.4.4-.1.9.1 1 .5.1.4-.1.9-.5 1-.8.4-1.8.5-2.7.5zm-7.4 0h-4.3c-.4 0-.8-.4-.8-.8s.4-.8.8-.8h4.3c.4 0 .8.4.8.8 0 .5-.4.8-.8.8zm-10 0h-4.4c-.4 0-.8-.4-.8-.8s.4-.8.8-.8h4.4c.4 0 .8.4.8.8 0 .5-.3.8-.8.8zm-9.6-1.5c-.2 0-.3 0-.5-.1-1.3-.9-2.3-2.2-2.9-3.7-.2-.4 0-.9.4-1 .4-.2.9 0 1 .4.5 1.2 1.3 2.3 2.4 3 .4.3.4.7.2 1.1-.1.2-.4.3-.6.3zm33.8-2.3c-.1 0-.3 0-.4-.1-.4-.2-.5-.7-.3-1.1.7-1.1 1-2.4 1-3.7 0-.4.4-.8.8-.8s.8.3.8.8c0 1.6-.4 3.2-1.3 4.5-.1.3-.4.4-.6.4zm-37.1-6.5c-.4 0-.8-.4-.8-.8v-4.4c0-.4.4-.8.8-.8s.8.4.8.8v4.4c0 .4-.4.8-.8.8zM49 29.7c-.4 0-.8-.4-.8-.8v-4.4c0-.4.4-.8.8-.8s.8.4.8.8v4.4c0 .4-.3.8-.8.8zm-38.2-6.8c-.4 0-.8-.4-.8-.8v-4.4c0-.4.4-.8.8-.8s.8.4.8.8v4.4c0 .5-.4.8-.8.8zM49 19.7c-.4 0-.8-.4-.8-.8v-4.4c0-.4.4-.8.8-.8s.8.4.8.8v4.4c0 .5-.3.8-.8.8zM10.8 13c-.4 0-.8-.3-.8-.8 0-1.6.4-3.2 1.3-4.5.2-.4.7-.5 1.1-.3.4.2.5.7.3 1.1-.7 1.1-1 2.4-1 3.7-.1.4-.5.8-.9.8zm37.6-3.2c-.3 0-.6-.2-.7-.5-.5-1.2-1.3-2.3-2.4-3-.4-.3-.4-.7-.2-1.1.3-.4.7-.4 1.1-.2 1.3.9 2.3 2.2 3 3.7.2.4 0 .9-.4 1-.2.1-.3.1-.4.1zM16.2 5.4c-.3 0-.6-.2-.8-.5-.1-.4.1-.9.5-1 .9-.3 1.8-.4 2.8-.4h1.8c.4 0 .8.4.8.8 0 .3-.3.7-.7.7h-1.8c-.8 0-1.5.1-2.3.4h-.3zM40.4 5H36c-.4 0-.8-.4-.8-.8s.4-.8.8-.8h4.4c.4 0 .8.4.8.8s-.3.8-.8.8zm-9.9 0h-4.4c-.4 0-.8-.4-.8-.8s.4-.8.8-.8h4.4c.4 0 .8.4.8.8s-.4.8-.8.8z"/><path class="st36" d="M41.8 42.1c0 4.4-3.6 7.9-7.9 7.9H11.5c-4.4 0-7.9-3.6-7.9-7.9V19.7c0-4.4 3.6-7.9 7.9-7.9h22.3c4.4 0 7.9 3.6 7.9 7.9v22.4h.1z"/><path class="st4" d="M41.8 42.1V29L33 20.2 16.2 41.5l-2 1.3 9.9 7.2h9.8c4.3 0 7.9-3.6 7.9-7.9z"/><circle class="st25" cx="22.7" cy="30.9" r="14.8"/><path class="st3" d="M20.4 36.1l-5.1-7v7H13V25.4h2.3l4.9 6.7v-6.7h2.3v10.7h-2.1zM24 34.6l1.2-1.7c.8.8 1.9 1.4 3.4 1.4 1.2 0 1.9-.6 1.9-1.2 0-1.9-6.1-.6-6.1-4.6 0-1.8 1.5-3.2 4-3.2 1.7 0 3.1.5 4.2 1.5l-1.3 1.7c-.9-.8-2-1.2-3.1-1.2-1 0-1.5.4-1.5 1.1 0 1.7 6.1.6 6.1 4.5 0 2-1.4 3.4-4.3 3.4-2 0-3.5-.7-4.5-1.7z"/></svg>