<svg id="Layer_1" xmlns="http://www.w3.org/2000/svg" viewBox="0 0 54 54"><style>.st0{fill:#edb914}.st1{opacity:.2;fill:#3c3c3b}.st2{fill:#c1910a}.st3{fill:#004a54}.st4{opacity:.1}.st5{fill:#46ace1}.st6{fill:#ff5046}.st7{fill:#46b879}.st8{opacity:.2}.st9{fill:#26844e}.st10{fill:#fcd22f}.st11{fill:#428bf4}.st12{fill:#e3e3e3}.st13{fill:#293e4c}.st14{opacity:.4}.st15{fill:#5cd5ff}.st16{fill:#cacaca}.st17{fill:#ff5955}.st18{fill:#ff5148}.st19,.st20{fill:#FFF}.st20,.st21{opacity:.2}.st21{enable-background:new}.st22{fill:#85c457}.st23{fill:#116fce}.st24{opacity:.3;fill:none;stroke:#e3e3e3;stroke-width:2.126;stroke-linecap:round;stroke-miterlimit:10}.st25{fill:#ffdb4a}.st26{fill:#4b4b4b}.st27{opacity:.1;fill:#010000}.st28{fill:#6fbc33}.st29{fill:#af890e}.st30{fill:#76d9fc}.st31{fill-rule:evenodd;clip-rule:evenodd}.st31,.st32{fill:#00a936}.st33{fill:#010000}.st34{fill:#30261b}.st35{fill:#fcd22e}.st36{fill:#fd7600}.st37{opacity:.3}.st38{fill:#f0f0f0}.st39{fill:#b2c61e}.st40{fill:#00b7f1}.st41{opacity:.2;fill:#010000}.st42{opacity:.3;fill:#010000}.st43{fill:#0084fd}.st44{fill:#f7534f}.st45{fill:#54301d}.st46{fill:#ffe4c0}.st47{opacity:.3;fill:#1e0e00}.st48{opacity:.2}.st48,.st49,.st50{fill:#1e0e00}.st50,.st51{opacity:.1}.st51{fill:#FFF}.st52{opacity:.15;fill:#1e0e00}.st53{fill:#78f1ff}.st54{fill:#efefef}.st55{fill:#29353f}.st56{fill:#9dd643}.st57{fill:none;stroke:#293e4c;stroke-width:3;stroke-miterlimit:10}.st58{opacity:.15;enable-background:new}.st59{fill:#0068ba}.st60{fill:#ededed}.st61{fill:#27c15a}.st62{opacity:.3}.st62,.st63{fill:#5b5b5b}.st64{fill:#ececec}.st65{fill:#ffd59b}.st66{fill:#f7cc9a}.st67{fill:#ff8080}.st68{fill:#77503b}.st69{fill:#513123}.st70{opacity:.5;fill:#FFF}.st71{fill:#70462d}.st72{opacity:.15;fill:#010101}.st73{fill:#6d4735}.st74{opacity:.1;fill:#010101}.st75{opacity:.3}.st75,.st76{fill-rule:evenodd;clip-rule:evenodd}.st76{fill:#073b44}.st77{fill:#ffd79d}.st78{opacity:.29}.st79{fill:#ddb890}.st80{opacity:.4}.st80,.st81{fill:#e9b980}.st82{fill:#a0a0a0}</style><path class="st11" d="M42.3 3.5c1.9 0 3.4 1.5 3.4 3.4V48c0 1.9-1.5 3.4-3.4 3.4H11.1c-1.9 0-3.4-1.5-3.4-3.4V14.2L18.3 3.5h24z"/><path class="st1" d="M7.7 14.2l9.4-.9-9.4 9.3z"/><path class="st23" d="M14.9 14.2H7.7L18.3 3.5v7.3c0 1.8-1.6 3.4-3.4 3.4z"/><path class="st4" d="M45.6 28.3c-.6-.8-2.2-2.5-3.6-4-1.1.5-.4.4-.6.6l-5.2-4.4-.1.1c-2.3-2.6-5.6-4.2-9.3-4.2-6.9 0-12.6 5.7-12.6 12.7 0 3.5-.4-.7 1.9 1.6l-4.2 3.4 23.4 17.5H42c1.9 0 3.4-1.5 3.4-3.4l.2-19.9z"/><path class="st0" d="M12.2 33.9l2.6-7.7 6.8 4.4z"/><path class="st22" d="M18.8 25.2c1.4-3.1 4.5-5.2 8.1-5.2 4.6 0 8.4 3.6 8.8 8.1l.5-.8 3.3 2.1v-.5c0-7.1-5.7-12.8-12.7-12.8-4.9 0-9.1 2.8-11.3 6.9l3.3 2.2z"/><path class="st0" d="M35 32.5c-1.4 3.1-4.5 5.3-8.1 5.3-4.2 0-7.7-3-8.6-6.9l-4-2.7v.7C14.3 36 20 41.7 27 41.7c5 0 9.3-2.9 11.3-7.1L35 32.5z"/><path class="st22" d="M42.1 24.3L39.6 32l-6.9-4.2z"/><path class="st24" d="M25.1 46c-4.8-.7-9.1-3.6-11.6-7.7M30.2 12.6c4.3 1 8.1 3.7 10.5 7.4"/></svg>