<svg xmlns="http://www.w3.org/2000/svg" width="83.724" height="108.746" viewBox="0 0 83.724 108.746"><path fill="#76D9FC" d="M83.724.006C42.58.274 9.306 33.696 9.306 74.9c0 12.182 2.91 23.68 8.067 33.846h66.352V.006z"/><path fill-rule="evenodd" clip-rule="evenodd" fill="#00A936" d="M35.865 89.545c-.41-.172-.98-.287-1.363-.337-.505-.06-.878-.08-1.222 0-1.02.302-1.087 1.365 1.68 3.028.742.99 2.086 1.888 3.36 1.395.74-2.1-.8-3.378-2.455-3.95 0-.135.015-.094 0-.135zM47.447 68.33c.12.106.198.282.305.3h.158c.747.212 1.47-.54.906-.59-.22-.04-.653.017-1.37.29zM64.8 61.786c-1.187.2-1.472 1 1.075 2.75.316-.092 2.51-.58 1.224.746 3.955-2.365-.277-3.855-2.3-3.496zM64.8 44.867c4.263-1.733 5.247-12.962.17-12.632-.333 0-.66.166-1.08.32 2.128 3.92-2.775 8.9.91 12.312zM75.624 24.936c1.23-.57 1.82-2.615 0-2.615-.326-.084-.576-.172-.904-.154-.33.01-.66.13-.9.155-3.596.716-2.502 6.68 1.804 2.616z"/><path fill-rule="evenodd" clip-rule="evenodd" fill="#00A936" d="M83.724 23.748a7.757 7.757 0 0 0-3.062-.207c-5.203.66-10.454 5.685-5.614 10.66 3.465 4.327-5 13.155 3.034 15.42 1.32-2.956 3.588-5.658 5.642-8.426V23.748z"/><path fill="#00A936" d="M28.427 103.06c1.435 1.8 1.91 3.72 1.98 5.687h18.06c-7.528-5.388-21.71-2.275-21.434-14.515.737-6.153-4.206-9.127-7.913-12.024-2.85-9.522 14.522-13.028 14.775-2.593 5.72-.3 7.726-10.275 14.332-11.72 3.403-2.953 12.607.223 9.278-5.808 3.29-3.13 12.948-3.018 8.22-10.34-1.58-7.133-10.352-10.58-13.235-2.46-7.935 2.132-4.737-15.088 3.34-12.793 5.857.336 5.06-4.755 1.508-6.39 0-.25-.075-.385-.298-.163-.647-.243-1.33-.496-2.13-.456-7.92-4.377 7.923-15.525-2.57-19.06-11.513 9.837-29.08 25.313-36.108 39.774-3.175 9.065-2.645 18.196-2.276 27.73 3.222 9.238 9.487 16.855 14.47 25.133zM83.724.413c-1.99.005-4.01.123-5.97.284-1.042.227-2.19.357-3.364.468a14.57 14.57 0 0 0-1.2.153c-4.208.59-8.22 1.325-12.17 2.574 7.63-.56 15.407-.546 22.705 1.368V.413z"/><g opacity=".2" fill="#010000"><path d="M12.948 51.816c-.018.055-.033.095-.046.144.69-.037 1.308-.09 1.308-.144h-1.262z"/><path d="M83.724 108.746V0a75.424 75.424 0 0 0-15.857 1.802c-10.71 3.377-20.333 10.026-28.033 19.01-.604.146-1.208.284-1.793.427-2.827.687-5.824 1.55-8.605 2.593a79.03 79.03 0 0 0-3.492 4.016c2.858-1.49 6.76-2.903 11.53-4.133-5.217 6.767-9.42 14.665-12.31 23.366-2.64.35-4.896.727-6.742 1.123-2.156.466-3.708.94-4.747 1.49-.217.592-.416 1.182-.603 1.77 2.118-.49 5.864-1.22 11.343-1.993-2.27 7.56-3.56 15.68-3.68 24.144H9.348c-.015.422-.04.85-.04 1.286 0 .33.02.652.025.98h11.4c.086 8.368 1.325 16.413 3.52 23.928-8.825-1.26-9.983-2.41-10.103-2.576.013.022.06.117.06.243h-1.435a64 64 0 0 0 .686 2.02c1.036.59 2.65 1.103 4.96 1.597 1.816.39 4.003.757 6.58 1.103a82.84 82.84 0 0 0 2.443 6.55h2.42a80.053 80.053 0 0 1-2.41-6.237c1.922.23 4.008.446 6.263.647 6.558.603 14.177 1.07 22.46 1.383.24 1.427.503 2.82.776 4.208h2.282a144.126 144.126 0 0 1-.776-4.12c7.705.26 15.947.42 24.425.42v3.7h.84zm-.84-35.13H56.042c.065-9.287.79-18.297 2.125-26.658 7.8-.273 16.155-.43 24.716-.437v27.095zm0-29.37c-8.45.012-16.657.155-24.34.424 1.412-8.107 3.407-15.556 5.94-22.008a70.1 70.1 0 0 1 1.326-3.197 257.85 257.85 0 0 1 17.074-.618v25.398zm0-27.674c-5.47.018-10.833.203-15.99.553C71.52 7.645 77.072 2.237 82.884 1.63V16.57zm-7.43-14.277C71.362 5.238 67.587 10.32 64.33 17.31c-7.513.58-14.537 1.488-20.784 2.716 8.77-9.328 19.77-15.687 31.91-17.73zm-34.43 20.57c6.54-1.444 14.094-2.516 22.26-3.192-.307.693-.6 1.41-.887 2.146-2.62 6.727-4.684 14.49-6.136 22.94-8.316.312-15.967.783-22.547 1.372-2.184.208-4.214.418-6.084.64 3.13-9.012 7.718-17.132 13.395-23.907zm-5.488 78.18c-3.49-.307-6.403-.608-8.847-.917-2.322-7.58-3.638-15.74-3.723-24.246h30.84c.048 9.16.735 18.06 2 26.374-7.396-.292-14.254-.696-20.27-1.21zm18.27-27.43h-30.84c.127-8.598 1.493-16.837 3.884-24.47 2.403-.29 5.27-.592 8.682-.892 6.03-.512 12.923-.92 20.354-1.21-1.298 8.362-2.015 17.327-2.08 26.572zm4.275 28.717c-1.287-8.303-1.99-17.238-2.038-26.45h26.842v26.887a693.76 693.76 0 0 1-24.803-.438z"/></g><g><path opacity=".3" d="M83.724 43.76L18.882 72.865l63.204 34.566 1.638-.82z"/><path fill="#D3B989" d="M83.724 94.192l-54.107-30.88-10.484-.342v1.1l63.16 34.682 1.43-3.473z"/><path fill="#DDC89F" d="M83.724 95.236l-1.43.69v2.826l1.43-.714z"/><path fill="#FFEFCA" d="M83.724 33.98l-64.59 28.99 63.202 34.567 1.388-.694z"/><path opacity=".05" fill="#25373A" d="M83.724 94.112l-1.388 3.425 1.388-.694z"/><g fill="#25373A"><path opacity=".3" d="M83.724 65.27L59.237 77.33l1.41.63L83.725 66.6zM82.353 64.618L58.02 76.45l-1.41-.633 24.33-11.83zM83.724 68.004l-21.77 10.72 1.41.63 20.36-10.024zM83.724 70.853l-18.916 9.313 1.41.634 17.506-8.62zM83.724 73.848L68.09 81.545l1.413.63 14.22-7z"/></g><path opacity=".2" d="M83.724 90.788l-7.2 3.61-.016 1.195 5.8 3.16 1.416-.707z"/><path fill="#4A5656" d="M83.724 84.534l-.87-.333-8.792-.337v1.44l8.43 4.425 1.232-2.96z"/><path fill="#405354" d="M83.724 85.97l-1.232.595v3.163l1.232-.62z"/><path fill="#264144" d="M83.724 79.143l-9.662 4.72 8.473 4.31 1.19-.595z"/><path opacity=".2" d="M83.724 31.726l-9.3 4.504-13.62-7.138 3.07-2.485-.283-.126-.015.01-5.96-3.3c-7.968 4.26-19.59 10.455-27.884 14.823l1.84.942-10.89 5.36 6.964 4.156-.023 1.5 5.28-2.35 5.28 2.184-6.72 3.25 3.95 2.068-16.26 7.876.02 1.103L45.63 78.61v-1.206l11.82-5.505-.002.105L74.47 81.17l9.254-4.667V31.726z"/><g><path fill="#069359" d="M45.592 70.114v4.547l-26.95-15.038v-1.1l10.485.338z"/><path fill="#02A562" d="M83.724 54.952L45.592 71.837v2.824l38.132-17.496z"/><path fill="#09BA76" d="M83.724 29.31l-65.08 29.21 26.99 14.927 38.09-17.51z"/><g fill="#FFF"><path opacity=".3" d="M83.724 47.89l-39.8 18.273 1.68.84L83.723 49.5zM83.724 45.597l-.84-.42-41.967 19.268 1.68.842 41.127-18.884zM81.558 44.254L39.59 63.524l-1.677-.843L79.88 43.414zM78.554 42.538L36.586 61.805l-1.68-.84 41.968-19.27zM57.77 49.102l-24.11 10.97-1.867-.967 24.11-10.97z"/></g><path opacity=".1" fill="#25373A" d="M83.724 41.067l-38.09 32.38 38.09-17.51z"/></g><path opacity=".2" d="M83.724 36.35V29.3L45.577 46.44l-2.283-1.54-7.526 3.885 2.422.968-6.8 3.054.01.004-12.737 5.724.02 1.065 7.67 4.362-.016-1.148 12.408-5.72L57.47 68.01l.01 1.203 8.468-3.823.984.41 3.964-2.278L52.18 50.896z"/><g><path fill="#4A5656" d="M27.096 46.545L25.4 51.43l-8.43-4.423v-1.44l8.79.336z"/><path fill="#405354" d="M83.724 23.173L25.4 48.267v3.164l58.324-26.24z"/><path fill="#264144" d="M83.724 16.472L16.97 45.566l8.474 4.31 58.28-26.062z"/><path fill="#09BA76" d="M37.108 40.63c.365.35.316.78-.108.967l-10.565 4.648c-.424.187-1.063.058-1.43-.288-.364-.348-.316-.778.11-.966l10.564-4.647c.423-.185 1.063-.056 1.428.288z"/></g><path opacity=".4" d="M24.494 42.073l-3.555 1.81 8.01 4.425v1.56l3.214-1.466-7.453-6.173"/><g><g fill="#E89A10"><path d="M5.618 33.607L.306 35.71l3.746 2.444 5.572-2.133z"/><path d="M3.978 36.973c.652.746.367 1.338-.634 1.323-1-.017-2.338-.634-2.99-1.38-.65-.747-.367-1.34.633-1.323 1 .015 2.34.632 2.99 1.38z"/></g><path fill="#9B9B9B" d="M76.988 67.687l.017 4.546L5.69 32.426l-1.24.68-3.814-2.33-.012-1.172 10.485.3z"/><path fill="#B5B5B5" d="M6.726 31.73l-1.368.682.004.918 1.354-.188zM83.724 66.436l-6.73 2.972.01 2.825 6.72-3.23z"/><path fill="#EDEDED" d="M83.724 33.57L42.122 10.748.617 29.604 5.4 32.412l1.334-.594L77.02 70.994l6.704-3.228z"/><path fill="#D69A13" d="M75.44 71.303l-.67 1.94L5.095 33.766l-.003-1.104 2.39.963z"/><path fill="#E89A10" d="M76.892 71.025l.004 1.27-2.126.916-.02-2.848z"/><path fill="#FFB400" d="M76.892 71.025L6.614 32.055l-1.522.606 69.67 39.345z"/><path fill="#E89A10" d="M9.264 36.124l-1.355.007-.007-1.108 1.355-.007zM.002 35.046h1.355v1.11H.002z"/><g fill="#FFB400"><path d="M5.614 32.462L.302 34.564l3.746 2.447 5.57-2.134z"/><path d="M3.974 35.827c.652.748.367 1.34-.635 1.324-1-.015-2.338-.632-2.99-1.378-.65-.75-.367-1.34.633-1.324 1 .017 2.34.633 2.99 1.38z"/></g><g opacity=".2"><path d="M4.172 33.684c-.163-.126-.494-.117-.305.02.19.14-.15.72-.15.72l1.79.616s.07.064.34-.378c.26-.428-1.513-.853-1.675-.978zM3.75 34.568c-.158-.06-.325-.052-.375.017-.05.07.04.175.197.234l.438.16c-.104.1-.582.562-.782.745-.232.214-.3.516.063.636.422.134.743-.04.895-.35.148-.302.3-.813.402-.83l.542.18c.16.055.333.04.382-.028.048-.068-.044-.167-.207-.218l-1.555-.546zm.418 1.142l-.106.245c-.003.008-.005.016-.01.023-.036.053-.136.072-.225.042-.088-.028-.13-.096-.094-.15.005-.007.01-.014.018-.02l.203-.213c.023-.036.09-.047.15-.026.06.02.09.065.065.1z"/></g><g fill="#FFF"><path d="M4.18 33.566c-.164-.126-.495-.12-.305.02.19.14-.15.717-.15.717l1.79.62s.07.063.34-.378c.26-.428-1.513-.854-1.676-.98zM3.758 34.45c-.16-.06-.325-.052-.375.017-.048.07.04.176.198.235l.438.16c-.104.1-.582.563-.78.746-.233.213-.3.516.06.634.42.134.744-.04.895-.348.147-.304.298-.816.402-.832l.54.182c.163.05.336.038.384-.03.047-.07-.046-.165-.207-.218l-1.555-.545zm.11 1.2l-.098.23a.067.067 0 0 1-.01.022c-.034.05-.127.066-.21.038-.082-.03-.122-.09-.088-.14.004-.008.01-.013.017-.02l.187-.198c.022-.033.085-.044.14-.025.057.02.084.06.062.093z"/></g><path opacity=".2" d="M76.652 71.14l-70.1-38.86-1.008.373-.18-.105 1.258-.49 70.27 38.97z"/><path fill="#C9C9C9" d="M47.05 13.46L5.4 32.42l-.34-.196L46.85 13.34zM83.724 60.71l-2.66 1.324c-.406.203-.457.532-.11.738l2.714 1.6c.016.01.04.014.056.022V60.71z"/><path fill="#26B1F7" d="M58.486 22.07c.426.252.366.658-.137.907L26.855 38.69c-.5.25-1.255.25-1.682 0l-3.344-1.97c-.425-.25-.364-.657.138-.908L53.462 20.1c.5-.25 1.253-.25 1.68 0l3.344 1.97z"/><path opacity=".3" fill="#25373A" d="M48.424 16.34L14.376 32.804l-.79-.362 34.053-16.52zM26.645 25.402l-13.74 6.54-.79-.362 13.738-6.54z"/><path fill="#C9C9C9" d="M63.804 22.596l-38.372 19.65-.34-.197 38.43-19.58z"/><path fill="#FFF" d="M61.725 23.62L25.432 42.246l6.76 3.77 36.43-18.55z"/><path fill="#A2707F" d="M41.245 35.09l4.942 2.73 3.21-1.64-4.938-2.752z"/><path fill="#506B73" d="M38.06 36.738l4.924 2.717 3.366-1.72-4.945-2.727z"/><path fill="#60977B" d="M39.636 41.166l3.366-1.72-4.924-2.717-3.346 1.73z"/><path fill="#8E6D57" d="M36.29 42.875l3.366-1.72-4.906-2.705-3.343 1.73z"/><path fill="#FAC16A" d="M33.14 44.485l3.15-1.61-4.883-2.696-3.107 1.606z"/><path opacity=".3" fill="#25373A" d="M63.92 26.333l-13.106 6.712-1.015-.43 13.102-6.71z"/><path fill="#C9C9C9" d="M68.92 27.62L32.6 46.23l-.34-.197 36.406-18.567z"/><path fill="#FFF" d="M68.89 27.605L32.6 46.23l6.758 3.768 36.43-18.55z"/><path fill="#3BDBDD" d="M48.41 39.073l4.944 2.73 3.21-1.64-4.938-2.752z"/><path fill="#453855" d="M45.227 40.722l4.924 2.717 3.367-1.72-4.945-2.73z"/><path fill="#F9350F" d="M46.803 45.15l3.365-1.718-4.924-2.72-3.345 1.73z"/><path fill="#DDA31E" d="M43.457 46.86l3.365-1.72-4.905-2.706-3.345 1.73z"/><path fill="#8B8B8B" d="M40.306 48.47l3.15-1.61-4.884-2.696-3.106 1.607z"/><path opacity=".3" fill="#25373A" d="M71.086 30.317L57.982 37.03l-1.017-.428L70.07 29.89z"/><g><path fill="#C9C9C9" d="M76.164 31.603l-36.32 18.61-.342-.196L75.91 31.45z"/><path fill="#FFF" d="M76.135 31.59L39.843 50.213l6.76 3.767 36.43-18.546z"/><path fill="#18AFBA" d="M55.655 43.058l4.943 2.73 3.21-1.64-4.938-2.752z"/><path fill="#A98D00" d="M52.472 44.706l4.923 2.72 3.366-1.72-4.944-2.73z"/><path fill="#FF006E" d="M54.047 49.134l3.365-1.72-4.923-2.717-3.347 1.73z"/><path fill="#B90C29" d="M50.7 50.845l3.367-1.72-4.905-2.707-3.345 1.73z"/><path fill="#938A8A" d="M47.55 52.452l3.15-1.607-4.883-2.697-3.107 1.606z"/><path opacity=".3" fill="#25373A" d="M78.33 34.302l-13.104 6.712-1.016-.43 13.102-6.712z"/></g><g><path fill="#C9C9C9" d="M83.352 35.645L47.03 54.253l-.34-.196L83.1 35.487z"/><path fill="#FFF" d="M83.724 35.854l-.4-.223L47.03 54.254l6.76 3.77 29.934-15.24z"/><path fill="#E9EB19" d="M62.843 47.1l4.943 2.73 3.212-1.642-4.94-2.75z"/><path fill="#882247" d="M59.66 48.746l4.923 2.718 3.366-1.718-4.946-2.73z"/><path fill="#FFC300" d="M61.235 53.175l3.366-1.72-4.923-2.718-3.345 1.732z"/><path fill="#246289" d="M57.888 54.885l3.366-1.72-4.905-2.707-3.346 1.73z"/><path fill="#696764" d="M54.738 56.494l3.15-1.61-4.884-2.696-3.106 1.608z"/><path opacity=".3" fill="#25373A" d="M83.724 38.312l-12.326 6.313 1.016.43 11.31-5.795z"/></g><g><path fill="#C9C9C9" d="M83.724 42.82L53.878 58.043l.34.196L83.724 43.12z"/><path fill="#FFF" d="M83.724 43.097l-29.506 15.14 6.76 3.77 22.746-11.58z"/><path fill="#734B4B" d="M70.03 51.084l4.944 2.728 3.21-1.64-4.937-2.752z"/><path fill="#1E2B3D" d="M66.847 52.73l4.924 2.72 3.367-1.72L70.19 51z"/><path fill="#88A161" d="M68.423 57.158l3.366-1.718-4.925-2.72-3.345 1.73z"/><path fill="#555153" d="M65.076 58.868l3.366-1.72-4.904-2.706-3.345 1.73z"/><path fill="#8E4120" d="M61.925 60.478l3.15-1.61-4.882-2.696-3.108 1.607z"/><path opacity=".3" fill="#25373A" d="M83.724 45.977l-5.138 2.63 1.016.43 4.122-2.11z"/></g><g><path fill="#C9C9C9" d="M83.724 50.526L61.066 62.08l.34.198 22.318-11.435z"/><path fill="#FFF" d="M83.724 50.826L61.407 62.278l6.76 3.77 15.557-7.922z"/><path fill="#51C7E5" d="M83.724 55.294l-3.29-1.834-3.215 1.663 4.942 2.73 1.562-.798z"/><path fill="#E694BE" d="M74.035 56.77l4.924 2.72 3.365-1.72-4.946-2.73z"/><path fill="#FFEC21" d="M75.61 61.2l3.366-1.72-4.923-2.718-3.345 1.73z"/><path fill="#FFBC9B" d="M72.264 62.908l3.365-1.72-4.904-2.706-3.347 1.73z"/><path fill="#686766" d="M69.113 64.52l3.15-1.612-4.884-2.695-3.107 1.606z"/></g><path fill="#26B1F7" d="M20.723 23.094l-13.97 6.243-.79-.36L19.93 22.73z"/><path opacity=".3" fill="#FFF" d="M51.98 24.29L29.538 35.347l-1.205-.765 22.443-11.057z"/><path opacity=".3" fill="#25373A" d="M49.847 17.12L15.897 33.6l-.792-.362 33.893-16.56zM51.396 18.045l-33.9 16.38-.79-.363 33.862-16.458zM53.058 18.824l-33.722 16.39-.792-.36 33.723-16.39z"/><path fill="#26B1F7" d="M4.47 30.243l.324-.626-.224-.143-.52 1.002 1.713-.233-.224-.144z"/><path fill="#606060" d="M43.145 12.873l-.61-.016.076-.376c.025-.102-.078-.19-.23-.193-.155-.004-.3.076-.323.18l-.078.376-.633-.02c-.175-.005-.335.066-.35.16-.02.093.112.174.29.18l.633.02-.057.38c-.013.104.103.193.26.197.155.005.29-.077.3-.182l.055-.38.61.015c.167.004.312-.07.328-.163.013-.094-.106-.173-.27-.177z"/><path opacity=".8" fill="#C9C9C9" d="M83.724 34.047L64.302 23.345c-.26-.138-.666-.076-.905.14-.24.213-.223.5.037.64l20.29 11.18v-1.258z"/><path fill="#26B1F7" d="M69.88 26.628c.17.092.18.28.024.42l.007.012a.577.577 0 0 1-.6.083l-5.578-3.04c-.172-.093-.23-.306-.073-.445v-.002c.16-.142.47-.157.642-.068l5.578 3.04z"/></g></g></svg>