<svg xmlns="http://www.w3.org/2000/svg" width="224" height="72" viewBox="0 0 224 72"><path fill="#98CC0A" d="M0 0h224v72H0z"/><path fill="#EDEDED" d="M88.074 0H0v72h87.41c.545-.356.906-.97.906-1.668V.934c0-.34-.092-.654-.242-.934z"/><path fill="#444" d="M88.074 0H0v6.913h88.316V.933c0-.338-.092-.653-.242-.933z"/><ellipse fill="#2CB740" cx="3.04" cy="3.031" rx="1.585" ry="1.578"/><ellipse fill="#F16442" cx="7.87" cy="3.031" rx="1.585" ry="1.578"/><path fill="#FFF" d="M85.01 2.937c0 .87-.71 1.577-1.584 1.577h-71.39c-.87 0-1.585-.706-1.585-1.577 0-.872.717-1.578 1.586-1.578h71.39a1.58 1.58 0 0 1 1.585 1.577z"/><path fill="#00A9D0" d="M0 6.808h88.316v24.224H0z"/><path fill="#FCD22E" d="M14.294 14.318c-.017 0-.028.01-.028.02 0 .012.012.022.028.022.024 0 .032-.01.032-.022 0-.01-.008-.02-.032-.02z"/><g opacity=".3" fill="#444"><path d="M6.02 33.433h17.5V50.86H6.02zM25.25 33.433h17.506V50.86H25.25zM44.227 33.433H61.73V50.86H44.226zM63.46 33.433h17.507V50.86H63.46z"/><g><path d="M6.02 52.24h17.5v17.427H6.02zM25.25 52.24h17.506v17.427H25.25zM44.227 52.24H61.73v17.427H44.226zM63.46 52.24h17.507v17.427H63.46z"/></g></g><path opacity=".4" fill="#444" d="M4.025 53.952L1.762 51.35l2.263-2.604zM82.714 48.744l2.264 2.605-2.264 2.602z"/><ellipse opacity=".3" fill="#FFF" cx="13.148" cy="18.919" rx="6.586" ry="6.558"/><g opacity=".3" fill="#FFF"><path d="M80.918 12.376c0 .542-.465.983-1.04.983h-54.56c-.57 0-1.044-.443-1.044-.984 0-.547.475-.99 1.045-.99h54.558c.575 0 1.04.443 1.04.99zM80.918 16.78c0 .545-.465.986-1.04.986h-54.56c-.57 0-1.044-.44-1.044-.987 0-.546.475-.987 1.045-.987h54.558c.575 0 1.04.44 1.04.986zM80.918 21.122c0 .545-.465.986-1.04.986h-54.56c-.57 0-1.044-.44-1.044-.986 0-.542.475-.98 1.045-.98h54.558c.575 0 1.04.438 1.04.98zM80.918 25.464c0 .545-.465.988-1.04.988h-54.56c-.57 0-1.044-.443-1.044-.988 0-.543.475-.982 1.045-.982h54.558c.575 0 1.04.438 1.04.982z"/></g><path opacity=".3" fill="#444" d="M14.77 36.012l2 4.038 4.478.645-3.237 3.144.76 4.44-4-2.097-4 2.096.757-4.44-3.236-3.145 4.48-.645zM33.867 36.012l2.002 4.038 4.476.645-3.238 3.144.765 4.44-4.006-2.097-4.002 2.096.768-4.44-3.24-3.145 4.47-.645zM52.598 36.012l2 4.038 4.477.645-3.24 3.144.767 4.44-4.004-2.097-4.005 2.096.764-4.44-3.237-3.145 4.472-.645zM72.212 36.012l2 4.038 4.477.645-3.238 3.144.766 4.44-4.006-2.097-4.006 2.096.767-4.44-3.237-3.145 4.477-.645zM14.77 54.82l2 4.038 4.478.648-3.237 3.143.76 4.437-4-2.096-4 2.097.757-4.438-3.236-3.144 4.48-.648zM33.867 54.82l2.002 4.038 4.476.648-3.238 3.143.765 4.437-4.006-2.096-4.002 2.097.768-4.438-3.24-3.144 4.47-.648zM52.598 54.82l2 4.038 4.477.648-3.24 3.143.767 4.437-4.004-2.096-4.005 2.097.764-4.438-3.237-3.144 4.472-.648zM72.212 54.82l2 4.038 4.477.648-3.238 3.143.766 4.437-4.006-2.096-4.006 2.097.767-4.438-3.237-3.144 4.477-.648z"/><path opacity=".3" d="M53.74 64.354l-1.642-2.965a.423.423 0 0 0 .114-.535l-2.204-3.982a.427.427 0 0 0-.53-.185l-17.542-31.7.013-.007-8.365-7.206 1.65 10.89.002-.002h-.002l17.17 31.028-.04.022.367.662.04-.022.008.014a.418.418 0 0 0-.114.533l2.205 3.982c.095.17.288.245.47.204l1.64 2.963c.17.303.42.532.706.68.043.024.088.042.133.06a1.732 1.732 0 0 0 .375.113c.005 0 .01.003.016.004.372.064.766.016 1.122-.18l3.732-2.048a1.707 1.707 0 0 0 .676-2.326zM27.238 27.563z"/><path fill="#FC9142" d="M45.282 61.257l6.7-3.677-18.038-32.592-6.7 3.676z"/><path opacity=".2" d="M45.305 61.295l1.988-1.09-18.06-32.633-1.99 1.092z"/><path opacity=".2" fill="#FFF" d="M50.024 58.754l2-1.097-18.08-32.67-2 1.098z"/><path fill="#FFE0A9" d="M25.593 17.775l1.65 10.89.002-.002c.304.55 1 .75 1.554.448.552-.303.752-.995.447-1.545a1.567 1.567 0 0 0 2.124.61 1.552 1.552 0 0 0 .615-2.11h.003c.296.537.977.732 1.517.435a1.11 1.11 0 0 0 .44-1.51l.012-.007-8.364-7.208z"/><path opacity=".05" fill="#3C3C3B" d="M25.593 17.775l1.65 10.89.002-.002c.304.55 1 .75 1.554.448.552-.303.752-.995.447-1.545.417.75-3.654-9.79-3.654-9.79z"/><path fill="#3C3C3B" d="M28.76 20.504l-3.167-2.73.626 4.124z"/><path fill="#FF839E" d="M51.34 68.728a1.725 1.725 0 0 1-2.337-.674l-2.878-5.2a1.708 1.708 0 0 1 .676-2.325l3.734-2.05a1.726 1.726 0 0 1 2.337.674l2.88 5.2a1.71 1.71 0 0 1-.678 2.326l-3.732 2.048z"/><path opacity=".1" fill="#3C3C3B" d="M51.127 68.807l-2.85-5.15-1.318.725 2.03 3.668a1.718 1.718 0 0 0 2.137.757z"/><path fill="#DADADA" d="M47.465 65.05a.43.43 0 0 1-.585-.168L44.676 60.9a.425.425 0 0 1 .17-.582l6.587-3.614a.43.43 0 0 1 .585.168l2.204 3.982a.43.43 0 0 1-.17.582l-6.587 3.614z"/><g opacity=".3"><path fill="#3C3C3B" d="M47.426 64.458a.28.28 0 1 1-.272-.492l6.143-3.37a.283.283 0 0 1 .383.11.28.28 0 0 1-.11.38l-6.144 3.372zM46.97 63.633a.283.283 0 0 1-.383-.11.28.28 0 0 1 .11-.382l6.144-3.37a.282.282 0 1 1 .273.492l-6.142 3.37zM46.514 62.808a.28.28 0 1 1-.273-.492l6.143-3.37a.285.285 0 0 1 .384.11.28.28 0 0 1-.112.38l-6.142 3.372zM46.057 61.984a.282.282 0 0 1-.382-.11.28.28 0 0 1 .11-.382l6.144-3.37a.28.28 0 0 1 .272.492l-6.145 3.37zM45.6 61.16a.283.283 0 0 1-.383-.11.282.282 0 0 1 .11-.383l6.146-3.37a.28.28 0 0 1 .38.112.28.28 0 0 1-.108.38L45.6 61.16z"/></g><path opacity=".3" fill="#FFF" d="M53.553 66.332a.428.428 0 0 1 .168-.582.958.958 0 0 0 .382-1.305.43.43 0 0 1 .753-.414 1.815 1.815 0 0 1-.72 2.47.428.428 0 0 1-.582-.168z"/><path opacity=".3" fill="#3C3C3B" d="M44.74 60.375l6.717-3.684-.367-.663-6.715 3.685z"/><path opacity=".3" fill="#444" d="M102.707 0H44.925c-1.34 6.38-5.215 71.55-5.215 71.55 0 .154.085.305.232.45h62.765V0z"/><g><path fill="#EDEDED" d="M45.807 0c-.337.36-.548.84-.548 1.374v70.273c0 .12.014.238.034.353h90.715c.02-.115.034-.232.034-.353V1.374c0-.533-.21-1.013-.55-1.374H45.808z"/><g opacity=".4"><g opacity=".4"><path d="M74.287 56.57a.62.62 0 0 1-.62.62h-22.64a.62.62 0 0 1-.622-.62.62.62 0 0 1 .622-.618h22.64a.62.62 0 0 1 .62.618zM74.287 54.1c0 .338-.28.617-.62.617h-22.64a.618.618 0 0 1 0-1.235h22.64a.62.62 0 0 1 .62.616zM74.287 51.627a.62.62 0 0 1-.62.616h-22.64a.618.618 0 0 1-.622-.616.62.62 0 0 1 .622-.618h22.64a.62.62 0 0 1 .62.617zM74.287 49.154a.62.62 0 0 1-.62.62h-22.64a.62.62 0 0 1-.622-.62.62.62 0 0 1 .622-.618h22.64a.62.62 0 0 1 .62.618zM74.287 46.683a.62.62 0 0 1-.62.617h-22.64a.618.618 0 0 1 0-1.234h22.64c.34 0 .62.274.62.617zM74.287 44.21a.62.62 0 0 1-.62.618h-22.64a.62.62 0 0 1-.622-.618.62.62 0 0 1 .622-.618h22.64a.62.62 0 0 1 .62.618zM74.287 41.738c0 .34-.28.62-.62.62h-22.64a.62.62 0 0 1-.622-.62c0-.34.278-.62.622-.62h22.64c.34 0 .62.28.62.62z"/></g><path d="M74.287 66.385a.62.62 0 0 1-.62.617h-22.64a.62.62 0 0 1-.622-.617.62.62 0 0 1 .622-.618h22.64a.62.62 0 0 1 .62.618zM74.287 63.912a.62.62 0 0 1-.62.618h-22.64a.62.62 0 0 1-.622-.618.62.62 0 0 1 .622-.618h22.64a.62.62 0 0 1 .62.618zM74.287 61.438c0 .342-.28.62-.62.62h-22.64a.62.62 0 0 1 0-1.24h22.64a.62.62 0 0 1 .62.62zM74.287 58.97a.62.62 0 0 1-.62.616h-22.64a.618.618 0 0 1-.622-.617.62.62 0 0 1 .622-.62h22.64a.62.62 0 0 1 .62.62z" opacity=".4"/></g><g opacity=".4"><g opacity=".4"><path d="M102.828 56.57c0 .342-.282.62-.625.62H79.566a.62.62 0 0 1 0-1.238h22.637c.343 0 .625.278.625.618zM102.828 54.1c0 .338-.282.617-.625.617H79.566a.618.618 0 0 1 0-1.235h22.637c.343 0 .625.274.625.616zM102.828 51.627a.62.62 0 0 1-.625.616H79.566a.617.617 0 0 1-.62-.616.62.62 0 0 1 .62-.618h22.637c.343 0 .625.277.625.617zM102.828 49.154c0 .342-.282.62-.625.62H79.566a.62.62 0 0 1 0-1.238h22.637c.343 0 .625.277.625.618zM102.828 46.683c0 .34-.282.617-.625.617H79.566a.617.617 0 0 1 0-1.234h22.637a.62.62 0 0 1 .625.617zM102.828 44.21c0 .34-.282.618-.625.618H79.566a.618.618 0 0 1 0-1.236h22.637c.343 0 .625.276.625.618zM102.828 41.738c0 .34-.282.62-.625.62H79.566a.62.62 0 0 1-.62-.62c0-.34.276-.62.62-.62h22.637c.343 0 .625.28.625.62z"/></g><path d="M102.828 66.385a.624.624 0 0 1-.625.617H79.566a.618.618 0 0 1 0-1.235h22.637c.343 0 .625.276.625.618zM102.828 63.912a.622.622 0 0 1-.625.618H79.566a.618.618 0 0 1 0-1.236h22.637c.343 0 .625.275.625.618zM102.828 61.438c0 .342-.282.62-.625.62H79.566a.618.618 0 0 1 0-1.24h22.637c.343.002.625.278.625.62zM102.828 58.97c0 .34-.282.616-.625.616H79.566a.618.618 0 0 1-.62-.617.62.62 0 0 1 .62-.62h22.637c.343 0 .625.276.625.62z" opacity=".4"/></g><g opacity=".4"><g opacity=".4"><path d="M131.464 56.57a.62.62 0 0 1-.62.62h-22.636a.627.627 0 0 1-.628-.62c0-.34.285-.618.628-.618h22.636a.62.62 0 0 1 .62.618zM131.464 54.1a.62.62 0 0 1-.62.617h-22.636a.626.626 0 0 1-.628-.618c0-.343.285-.618.628-.618h22.636c.344 0 .62.275.62.617zM131.464 51.627c0 .34-.275.616-.62.616h-22.636a.624.624 0 0 1-.628-.616c0-.34.285-.618.628-.618h22.636a.62.62 0 0 1 .62.617zM131.464 49.154a.62.62 0 0 1-.62.62h-22.636a.627.627 0 0 1-.628-.62c0-.34.285-.618.628-.618h22.636c.344 0 .62.277.62.618zM131.464 46.683c0 .34-.275.617-.62.617h-22.636a.625.625 0 0 1-.628-.617c0-.343.285-.617.628-.617h22.636c.344 0 .62.274.62.617zM131.464 44.21c0 .34-.275.618-.62.618h-22.636a.625.625 0 0 1-.628-.618c0-.342.285-.618.628-.618h22.636c.344 0 .62.276.62.618zM131.464 41.738a.62.62 0 0 1-.62.62h-22.636a.627.627 0 0 1-.628-.62c0-.34.285-.62.628-.62h22.636c.344 0 .62.28.62.62z"/></g><path d="M131.464 66.385a.62.62 0 0 1-.62.617h-22.636a.626.626 0 0 1-.628-.617c0-.342.285-.618.628-.618h22.636c.344 0 .62.276.62.618zM131.464 63.912a.617.617 0 0 1-.62.618h-22.636a.624.624 0 0 1-.628-.618c0-.342.285-.618.628-.618h22.636c.344 0 .62.275.62.618zM131.464 61.438a.62.62 0 0 1-.62.62h-22.636a.628.628 0 0 1-.628-.62c0-.342.285-.618.628-.618h22.636c.344 0 .62.276.62.618zM131.464 58.97c0 .34-.275.616-.62.616h-22.636a.624.624 0 0 1-.628-.617c0-.343.285-.62.628-.62h22.636c.344 0 .62.276.62.62z" opacity=".4"/></g><path opacity=".3" d="M130.388 34.077c.377-.197.733-.41 1.076-.642V31.7c-.565.458-1.18.87-1.85 1.217l-2.2-4.823 4.05-1.827v-1.23l-4.517 2.036-1.46-3.22 5.7-2.57c.098.228.19.457.276.685v-2.506a19.167 19.167 0 0 0-1.832-2.686l1.833-.828V13.72h-3.034c.856.313 1.67.744 2.42 1.273l-1.98.893a26.65 26.65 0 0 0-2.182-2.167H125c.885.757 1.865 1.634 2.816 2.643l-4.762 2.148-2.16-4.735c.058-.02.11-.04.162-.055h-3.03c-4.74 3.192-6.624 9.41-4.185 14.774a11.862 11.862 0 0 0 5.248 5.583h5.65c-1.058-.912-2.25-1.99-3.354-3.26l5.006-2.26 2.194 4.824c-1.037.406-2.105.632-3.176.697h4.98zM128.6 17.242c.772.91 1.496 1.92 2.096 3.036l-5.673 2.555-1.5-3.3 5.078-2.29zm-4.604 6.056l-5.67 2.558c-.45-1.184-.73-2.392-.913-3.57l5.077-2.29 1.506 3.302zm-6.86-7.028a10.45 10.45 0 0 1 2.743-2.033l2.145 4.736-4.757 2.15c-.178-1.788-.15-3.466-.13-4.853zm-1.124 1.377c-.02 1.23.027 2.57.197 3.954l-1.983.895a10.512 10.512 0 0 1 1.785-4.848zm-1.842 6.103l2.212-.998a18.72 18.72 0 0 0 .97 3.543l-2.457 1.107a10.524 10.524 0 0 1-.725-3.652zm1.192 4.673l2.432-1.095a16.303 16.303 0 0 0 1.873 3.03l-2.1.95a10.588 10.588 0 0 1-2.205-2.885zm7.707 5.544a10.63 10.63 0 0 1-4.527-1.87l1.86-.84c.865 1.006 1.784 1.902 2.666 2.71zm-2.43-4.05a16.214 16.214 0 0 1-1.876-3.027l5.698-2.572 1.465 3.22-5.287 2.38z"/><path fill="#444" d="M45.807 0c-.337.36-.548.84-.548 1.374v6.054h90.784V1.374c0-.533-.21-1.013-.55-1.374H45.808z"/><ellipse fill="#2CB740" cx="49.689" cy="3.499" rx="1.606" ry="1.597"/><ellipse fill="#F16442" cx="54.58" cy="3.499" rx="1.604" ry="1.597"/><path fill="#FFF" d="M132.692 3.402a1.6 1.6 0 0 1-1.6 1.597H58.8c-.882 0-1.607-.714-1.607-1.598 0-.884.726-1.598 1.606-1.598h72.292a1.6 1.6 0 0 1 1.6 1.598z"/><path fill="#FCD22E" d="M61.088 14.924c-.018 0-.034.01-.034.022 0 .015.017.024.034.024.023 0 .033-.01.033-.024 0-.01-.01-.022-.032-.022z"/><path opacity=".3" d="M49.945 35.473h81.884v1.297H49.944zM49.945 11.067h81.884v1.3H49.944z"/><g opacity=".1"><path d="M50.405 25.158h6.567v9.63h-6.567zM58 21.392h6.566V34.79H58zM72.756 19.457h6.57V34.79h-6.57zM65.393 26.557h6.563v8.232h-6.563z"/><g><path d="M80.195 22.554h6.57V34.79h-6.57zM87.79 17.728h6.574v17.06H87.79zM102.55 15.247h6.565V34.79h-6.564zM95.178 24.345h6.57v10.443h-6.57z"/></g></g><path fill="#9D9D9C" d="M99.232 17.472l1.407 2.17-14.242 9.38-2.33-3.903 6.38-3.994 1.457 2.14 5.613-7.485-9.53 1.74 1.25 1.827-6.28 3.922-2.08-3.488-.028.014-.1-.19-6.336 4.177-2.718-4.32-.022.012-.094-.16-18.53 11.592 1.242 1.764 16.576-10.357 1.687 2.696-12.678 8.357.568 1.19h2.702l10.804-7.322 1.95 3.122 1.333-.962 4.674-2.927 3.706 6.246 1.502-1.138 14.894-9.817 1.644 2.534 6.32-8.882-10.742 2.06zm-22.636 9.776L75.8 25.98l4.148-2.818.86 1.454-4.212 2.632z"/></g><g><path opacity=".3" d="M82.3 48.957l-.084-.05c-1.8-2.84-3.267-4.953-3.513-5.27-.403-.522-.89-1.442-1.147-1.95l.002-.007s-.04-.065-.096-.178l-.087-.18h-.006c-.262-.51-.723-1.444-.908-2.074-.45-1.546-2.808-8.038-5.81-14.104l-.003-.02-.012-.008c-.9-1.82-1.842-3.53-2.762-4.914-1.305-1.924-1.556-2.203-1.595-2.21-.015-.126-.182-.51-1.817.365-1.118.62-.968.825-1.007 1.806-.042.98-1.014 1.792-2.97 3.478-.437.38-.815.714-1.128 1.038-.225-.058-.447-.11-.673-.154-3.505-.688-3.15.377-3.125 1.508.027 1.236 1.66 1.976 3.19 2.522.048.135.098.27.157.415 1.15 2.832 3.867 8.06 5.09 9.964 1.22 1.908 1.893 3.98 6.715 2.99.68-.14 1.23-.24 1.666-.31.057.11.113.22.165.326.32.62.635 1.234.95 1.84.288.577.583 1.156.88 1.745-.316.31-.716.69-1.23 1.156-3.647 3.296-2.363 5.06-1.534 7.164.825 2.105 3.465 7.373 5.088 9.965.167.267.33.5.49.714-.473 1.575-.864 3.375.142 4.14.903.687 1.558 1.6 3.065-1.623.17-.365.317-.743.453-1.128.34-.06.7-.14 1.103-.23 2.38-.547 3.602-.835 4.425-.416.01.018.026.036.03.042 0 0 .012-.004.035-.008.026.016.06.025.084.042.822.543.898.79 2.06.256 1.674-.804 1.458-1.165 1.367-1.25.015-.037-.06-.4-.853-2.585-1.418-3.818-4.372-8.876-6.773-12.685l-.023-.12z"/><path fill="#937150" d="M88.107 64.81c-.253-.256-8.748-13.326-11.974-19.678-3.226-6.354-6.144-12.256-6.675-13.572-.533-1.314-2.17-2.038-3.622-2.37-1.44-.33-3.744-.555-5.296-1.104-1.556-.55-3.245-1.293-3.276-2.553-.024-1.13-.38-2.197 3.125-1.508 3.503.69 7.112 3.217 7.947 3.815 1.703 1.222 4.876 5.208 12.05 18.052 7.17 12.842 10.004 16.947 10.452 17.594.448.652-2.733 1.323-2.733 1.323z"/><path fill="#937150" d="M65.338 20.212c.06.356 5.656 14.893 8.91 21.23 3.255 6.335 6.325 12.164 7.08 13.365.753 1.204.374 2.95-.21 4.307-.584 1.357-1.755 3.343-2.228 4.914-.472 1.575-.86 3.375.14 4.14.906.685 1.562 1.6 3.07-1.626 1.505-3.223 1.58-7.615 1.587-8.64.012-2.09-1.354-6.99-7.55-20.33-6.193-13.337-7.854-18.033-8.117-18.777-.265-.744-2.682 1.417-2.682 1.417z"/><path opacity=".8" fill="#DCEFF4" d="M73.568 28.172s-2.447-4.907-2.977-5.733c-.53-.828-1.89-3.593-5.122-1.122-3.235 2.47-3.662 2.815-3.662 2.815s-2.045 1.04-.817 3.983c1.228 2.94 4.56 9.353 5.335 10.448.778 1.094 1.497 3.47 5.197 2.668 3.702-.803 6.258-1.3 5.445-4.48-.686-2.69-2.306-6.362-3.118-8.026"/><path opacity=".7" fill="#FFF" d="M72.333 40.723L68.406 41l-3.454-19.767 3.686-1.864zM75.154 40.528l-1.78-.284-2.982-16.722 1.96 1.102z"/><path opacity=".8" fill="#DCEFF4" d="M86.298 53.104s2.542 4.86 2.897 5.77c.36.917 1.804 3.638-2.105 4.785-3.91 1.143-4.444 1.285-4.444 1.285s-2.05 1.032-3.712-1.692c-1.666-2.72-4.906-9.178-5.34-10.448-.427-1.27-1.932-3.25.902-5.753 2.833-2.506 4.74-4.264 6.844-1.738 1.775 2.137 3.805 5.603 4.677 7.238"/><path opacity=".7" fill="#FFF" d="M83.986 64.558l-3.925.275-3.456-19.766 3.686-1.865zM86.803 64.36l-1.776-.282-2.983-16.722 1.962 1.102z"/><path fill="#432918" d="M91.653 63.85c.02-.035-.06-.4-.85-2.583-2.515-6.757-9.82-17.383-10.397-18.13-.404-.52-.89-1.44-1.147-1.95l.003-.003s-.038-.067-.097-.18c-.057-.11-.088-.18-.088-.18h-.007c-.26-.51-.72-1.443-.905-2.074-.264-.905-4.582-13.042-8.584-19.044-1.304-1.925-1.557-2.203-1.593-2.212-.017-.125-.184-.51-1.823.365-1.117.62-.96.825-1.004 1.807-.04.978-1.013 1.792-2.97 3.478-1.956 1.688-2.73 2.5-1.577 5.328 1.148 2.833 3.866 8.062 5.087 9.964 1.22 1.908 1.895 3.98 6.716 2.99 2.365-.486 3.16-.49 3.16-.49s.955-.36 1.7 1.01a.01.01 0 0 1 .007.01c.004.003.006.008.006.015.67 1.407-.184 1.96-.184 1.96s-.473.638-2.26 2.254c-3.646 3.295-2.363 5.06-1.532 7.163.825 2.102 3.466 7.37 5.086 9.964 1.622 2.594 2.733 2.45 5.254 1.87 2.524-.58 3.756-.88 4.574-.336.823.543.897.79 2.058.255 1.675-.806 1.46-1.165 1.367-1.252zm-20.42-23.383c-3.337.723-3.985-1.417-4.687-2.404-.702-.987-3.703-6.77-4.808-9.42-1.108-2.655.736-3.592.736-3.592s.38-.31 3.296-2.536c2.92-2.23 4.142.265 4.62 1.01.48.743 2.686 5.168 2.686 5.168l.254.5c.73 1.502 2.19 4.813 2.81 7.236.735 2.866-1.568 3.316-4.906 4.04zM86.28 62.673c-3.526 1.033-4.002 1.16-4.002 1.16s-1.847.928-3.35-1.525c-1.5-2.456-4.425-8.275-4.81-9.422-.39-1.145-1.742-2.927.81-5.187 2.554-2.26 4.278-3.845 6.17-1.566 1.603 1.927 3.427 5.052 4.218 6.525l.256.498s2.29 4.38 2.608 5.205c.325.823 1.628 3.276-1.9 4.31z"/></g><path opacity=".3" fill="#444" d="M141.798 0H84.016C82.676 6.38 78.8 71.55 78.8 71.55c0 .154.087.305.233.45h62.765V0z"/><g><path fill="#EDEDED" d="M84.54 0c-.347.36-.563.848-.563 1.385V71.36c0 .226.046.438.114.64h90.175c.068-.202.113-.415.113-.64V1.386c0-.538-.215-1.024-.56-1.385h-89.28z"/><path fill="#444" d="M84.54 0c-.347.36-.563.848-.563 1.385v6.03h90.4v-6.03c0-.538-.214-1.024-.56-1.385H84.54z"/><ellipse fill="#2CB740" cx="88.392" cy="3.503" rx="1.599" ry="1.59"/><path fill="#F16442" d="M94.862 3.503c0 .88-.717 1.59-1.604 1.59-.88 0-1.597-.71-1.597-1.59 0-.878.72-1.59 1.598-1.59.888 0 1.604.712 1.604 1.59z"/><path fill="#FFF" d="M171.047 3.408c0 .878-.716 1.59-1.604 1.59H97.46a1.598 1.598 0 0 1-1.595-1.59c0-.88.72-1.592 1.595-1.592h71.982c.89 0 1.605.71 1.605 1.592z"/><path fill="#FCD22E" d="M99.738 14.882c-.018 0-.026.008-.026.02 0 .013.01.022.026.022.024 0 .035-.01.035-.023 0-.01-.01-.018-.035-.018z"/><g fill="#65B4C9"><path d="M88.27 29.66h19.34v20.287H88.27zM109.067 29.66h19.34v20.287h-19.34zM129.948 29.66h19.34v20.287h-19.34zM150.746 29.66h19.338v20.287h-19.338zM88.27 51.127h19.34v20.29H88.27zM109.067 51.127h19.34v20.29h-19.34zM129.948 51.127h19.34v20.29h-19.34zM150.746 51.127h19.338v20.29h-19.338z"/></g><path fill="#65B4C9" d="M87.64 9.783h81.537v17.173H87.64z"/><path fill="#005E73" d="M101.974 35.448H100.017c0 .02-.006.044-.006.067l-1.46-.82c.373-.237.68-.525.68-1.015a1.114 1.114 0 0 0-2.228 0 .22.22 0 0 0 .22.223c.13 0 .22-.1.22-.223a.674.674 0 0 1 1.347 0c0 .357-.282.542-.786.832L96.05 35.61c0-.05-.004-.107-.004-.162H94.152a2.423 2.423 0 0 0-2.42 2.425v1.936h2.483v7.223h7.76V39.81h2.362v-1.936a2.43 2.43 0 0 0-2.363-2.426zm-3.945 1.976c-.443 0-.83-.112-1.142-.313h2.286c-.32.202-.707.314-1.145.314zm.083-2.467l1.84 1.03c-.062.256-.166.488-.31.683H96.42a1.82 1.82 0 0 1-.29-.6l1.983-1.113zM122.778 35.448H120.816v.067l-1.463-.82c.367-.237.682-.525.682-1.015 0-.61-.502-1.11-1.117-1.11-.617 0-1.117.5-1.117 1.11a.22.22 0 0 0 .22.223c.13 0 .23-.1.23-.223a.67.67 0 0 1 1.342 0c0 .357-.285.542-.788.832l-1.956 1.098c0-.05-.01-.107-.01-.162h-1.887a2.417 2.417 0 0 0-2.414 2.425v1.936h2.475v7.223h7.77V39.81h2.355v-1.936c0-1.32-1.05-2.39-2.357-2.426zm-3.948 1.976c-.438 0-.83-.112-1.146-.313h2.285c-.31.202-.7.314-1.14.314zm.088-2.467l1.836 1.03c-.06.256-.17.488-.312.683h-3.225a1.908 1.908 0 0 1-.29-.6l1.99-1.113zM143.652 35.448H141.687v.067l-1.457-.82c.37-.237.677-.525.677-1.015a1.113 1.113 0 0 0-2.227 0 .22.22 0 0 0 .22.223c.12 0 .223-.1.223-.223a.673.673 0 0 1 1.345 0c0 .357-.284.542-.788.832l-1.955 1.098c-.006-.05-.006-.107-.006-.162H135.83a2.422 2.422 0 0 0-2.42 2.425v1.936h2.48v7.223h7.762V39.81h2.353v-1.936c0-1.32-1.046-2.39-2.353-2.426zm-3.95 1.976a2.08 2.08 0 0 1-1.137-.313h2.283c-.316.202-.7.314-1.145.314zm.095-2.467l1.835 1.03a1.903 1.903 0 0 1-.313.683h-3.224a1.827 1.827 0 0 1-.292-.6l1.993-1.113zM164.455 35.448H162.493v.067l-1.466-.82c.37-.237.686-.525.686-1.015 0-.61-.506-1.11-1.118-1.11-.62 0-1.114.5-1.114 1.11a.22.22 0 0 0 .22.223c.125 0 .225-.1.225-.223 0-.37.3-.668.67-.668.374 0 .673.3.673.668 0 .357-.282.542-.785.832l-1.957 1.098c0-.05-.008-.107-.008-.162h-1.891a2.422 2.422 0 0 0-2.413 2.425v1.936h2.48v7.223h7.765V39.81h2.354v-1.936a2.426 2.426 0 0 0-2.357-2.426zm-3.947 1.976c-.438 0-.832-.112-1.146-.313h2.29c-.316.202-.704.314-1.144.314zm.087-2.467l1.835 1.03c-.06.256-.168.488-.313.683h-3.224a1.88 1.88 0 0 1-.287-.6l1.99-1.113zM101.974 56.918H100.017c0 .02-.006.042-.006.062l-1.46-.815c.373-.242.68-.53.68-1.016a1.11 1.11 0 0 0-1.12-1.11c-.613 0-1.108.495-1.108 1.11 0 .12.098.22.22.22.13 0 .22-.1.22-.22a.674.674 0 0 1 1.347 0c0 .356-.282.537-.786.832L96.05 57.08c0-.056-.004-.108-.004-.162H94.152a2.42 2.42 0 0 0-2.42 2.424v1.933h2.483v7.227h7.76v-7.227h2.362v-1.933c0-1.32-1.054-2.39-2.363-2.424zm-3.945 1.976c-.443 0-.83-.112-1.142-.313h2.286c-.32.2-.707.314-1.145.314zm.083-2.47l1.84 1.03c-.062.255-.166.49-.31.685H96.42a1.876 1.876 0 0 1-.29-.6l1.983-1.116zM122.778 56.918H120.816v.062l-1.463-.815c.367-.242.682-.53.682-1.016 0-.615-.502-1.11-1.117-1.11-.617 0-1.117.495-1.117 1.11a.224.224 0 0 0 .448 0 .672.672 0 0 1 1.342 0c0 .356-.283.537-.786.832l-1.956 1.097c0-.056-.01-.108-.01-.162h-1.887a2.415 2.415 0 0 0-2.414 2.424v1.933h2.475v7.227h7.77v-7.227h2.355v-1.933c0-1.32-1.05-2.39-2.357-2.424zm-3.948 1.976c-.438 0-.83-.112-1.146-.313h2.285c-.31.2-.7.314-1.14.314zm.088-2.47l1.836 1.03c-.06.255-.17.49-.312.685h-3.225a1.968 1.968 0 0 1-.29-.6l1.99-1.116zM143.652 56.918H141.687v.062l-1.457-.815c.37-.242.677-.53.677-1.016a1.11 1.11 0 0 0-1.11-1.11 1.11 1.11 0 0 0-1.117 1.11c0 .12.098.22.22.22.12 0 .223-.1.223-.22a.673.673 0 0 1 1.345 0c0 .356-.284.537-.788.832l-1.955 1.097c-.006-.056-.006-.108-.006-.162H135.83a2.42 2.42 0 0 0-2.42 2.424v1.933h2.48v7.227h7.762v-7.227h2.353v-1.933a2.42 2.42 0 0 0-2.353-2.424zm-3.95 1.976a2.08 2.08 0 0 1-1.137-.313h2.283c-.316.2-.7.314-1.145.314zm.095-2.47l1.835 1.03c-.063.255-.168.49-.313.685h-3.224a1.882 1.882 0 0 1-.292-.6l1.993-1.116zM164.455 56.918H162.493v.062l-1.466-.815c.37-.242.686-.53.686-1.016 0-.615-.506-1.11-1.118-1.11-.62 0-1.114.495-1.114 1.11 0 .12.097.22.22.22.125 0 .225-.1.225-.22 0-.37.3-.67.67-.67.374 0 .673.3.673.67 0 .356-.282.537-.785.832l-1.957 1.097c0-.056-.008-.108-.008-.162h-1.891a2.42 2.42 0 0 0-2.413 2.424v1.933h2.48v7.227h7.765v-7.227h2.354v-1.933a2.424 2.424 0 0 0-2.357-2.424zm-3.947 1.976c-.438 0-.832-.112-1.146-.313h2.29a2.11 2.11 0 0 1-1.144.314zm.087-2.47l1.835 1.03c-.06.255-.168.49-.313.685h-3.224a1.937 1.937 0 0 1-.287-.6l1.99-1.116z"/><path fill="#FFF" d="M155.947 13.965c0 .53-.434.96-.968.96h-51.14a.96.96 0 0 1 0-1.92h51.14c.534-.002.967.43.967.96zM155.947 18.37c0 .533-.434.962-.968.962h-51.14a.96.96 0 0 1 0-1.92h51.14c.534-.002.967.428.967.96zM155.947 22.783a.964.964 0 0 1-.968.962h-51.14a.96.96 0 0 1-.964-.962c0-.53.428-.958.965-.958h51.14c.534 0 .967.428.967.958z"/></g><g><path opacity=".2" d="M135.395 59.362l-3.685-6.056-.688-1.13a6.57 6.57 0 0 0-.112-6.64l-.674-1.107-.013-.025-2.07-3.404c-.002 0-.004-.003-.006-.005l-12.054-19.812a1.327 1.327 0 0 0-1.82-.445l-2.062 1.244-4.967-8.166-.156.094-1.734-.748-.14 1.877-.2.12-1.734-.748-.14 1.876-.2.122-1.736-.747-.14 1.876-.2.12-1.733-.747-.14 1.877-.2.12-1.734-.746-.137 1.875-.202.12-1.736-.746-.137 1.875-.1.06 4.967 8.167-1.823 1.1a1.315 1.315 0 0 0-.448 1.812l12.965 21.31 1.163 1.91c0 .003.003.005.004.007l.684 1.123c1.393 2.288 3.96 3.428 6.464 3.13l.687 1.128 3.543 5.824c.147.24.46.318.702.172l2.252-1.357 2.74-1.65 6.577-3.967a.508.508 0 0 0 .17-.698z"/><path fill="#00AA59" d="M137.403 59.362a.51.51 0 0 1-.173.7l-11.568 6.976a.514.514 0 0 1-.703-.172l-11.173-18.362a.51.51 0 0 1 .174-.7l11.568-6.975a.512.512 0 0 1 .702.17l11.173 18.362z"/><path opacity=".7" d="M130.652 64.03l-3.468 2.09-11.703-19.233 3.47-2.092z"/><path opacity=".3" d="M125.757 41.204l-6.577 3.966-3.47 2.092-1.522.917a.51.51 0 0 0-.172.7l7.4 12.16c.906-.107 1.81-.4 2.643-.9l7.31-4.41a6.58 6.58 0 0 0 2.35-2.424l-7.26-11.93a.516.516 0 0 0-.703-.172z"/><path fill="#323C3F" d="M131.7 43.53c.38.625.18 1.436-.448 1.815l-16.385 9.88a1.33 1.33 0 0 1-1.82-.445L99.448 32.432a1.315 1.315 0 0 1 .446-1.812l16.387-9.88a1.326 1.326 0 0 1 1.82.444L131.7 43.53z"/><path d="M132.92 45.535a6.584 6.584 0 0 1-2.238 9.066l-7.31 4.41c-3.133 1.888-7.21.89-9.106-2.227l-2.07-3.403a6.586 6.586 0 0 1 2.234-9.067l7.312-4.41c3.132-1.887 7.208-.89 9.106 2.227l2.07 3.405z"/><path fill="#323C3F" d="M132.232 44.405a6.584 6.584 0 0 1-2.236 9.066l-7.312 4.41c-3.13 1.888-7.208.893-9.105-2.227l-2.072-3.404a6.585 6.585 0 0 1 2.235-9.067l7.312-4.408c3.13-1.89 7.208-.894 9.106 2.226l2.072 3.405z"/><path fill="#EDEDED" d="M123.853 35.562c.128.208.074.47-.12.587l-13.57 8.18c-.19.117-.45.042-.575-.166l-5.376-8.837c-.127-.208-.074-.47.117-.586l13.57-8.182c.19-.116.45-.04.577.167l5.376 8.837z"/><path fill="#FFF" d="M129.175 45.483c.35.58-.035 1.457-.863 1.956-.83.5-1.79.434-2.143-.146-.355-.58.03-1.458.862-1.958.827-.5 1.786-.434 2.143.147zM124.2 48.482c.35.58-.034 1.457-.863 1.958-.83.5-1.79.434-2.142-.146-.354-.58.032-1.458.86-1.958.833-.5 1.79-.435 2.145.146zM119.227 51.48c.353.58-.033 1.458-.863 1.958s-1.79.433-2.14-.146c-.356-.583.03-1.46.858-1.958.83-.5 1.79-.434 2.145.146z"/><path fill="#27C66D" d="M131.07 48.602c.353.58-.033 1.458-.862 1.957-.83.5-1.79.435-2.142-.146-.354-.58.032-1.458.86-1.958.832-.5 1.792-.435 2.143.146z"/><path fill="#F2CF49" d="M126.096 51.6c.354.582-.03 1.458-.86 1.96s-1.79.434-2.143-.147c-.354-.58.034-1.457.86-1.957.83-.502 1.79-.436 2.143.145z"/><path fill="#F83C3A" d="M121.124 54.6c.354.58-.033 1.458-.862 1.958-.83.5-1.79.435-2.144-.147-.353-.58.033-1.456.863-1.955.832-.5 1.79-.436 2.144.145z"/><path fill="#FFF" d="M127.13 42.125c.354.58-.032 1.458-.862 1.958s-1.79.435-2.143-.145c-.353-.582.033-1.458.863-1.96.83-.5 1.788-.434 2.142.147zM122.157 45.125c.353.58-.032 1.456-.862 1.958-.83.5-1.79.435-2.143-.146s.032-1.457.862-1.958c.83-.502 1.79-.437 2.143.145zM117.184 48.124c.354.58-.032 1.457-.863 1.958-.828.5-1.786.435-2.14-.146-.354-.58.03-1.457.86-1.957.83-.502 1.79-.438 2.144.144zM125.195 38.943c.353.582-.033 1.46-.86 1.958-.833.502-1.792.436-2.146-.145-.354-.58.032-1.457.863-1.957.83-.5 1.79-.434 2.142.145zM120.222 41.942c.353.582-.032 1.458-.863 1.96-.83.5-1.79.433-2.143-.148-.352-.58.03-1.457.862-1.957.83-.5 1.788-.434 2.142.145zM115.248 44.942c.354.58-.03 1.458-.863 1.958-.83.5-1.788.434-2.142-.146-.352-.58.034-1.458.86-1.957.833-.5 1.792-.435 2.145.145z"/><path fill="#575756" d="M117.132 23.352c.43.705.202 1.62-.507 2.047l-12.738 7.68a1.5 1.5 0 0 1-2.058-.502 1.488 1.488 0 0 1 .505-2.048l12.74-7.68a1.502 1.502 0 0 1 2.057.502z"/><path fill="#FFE4C0" d="M109.252 13.816l-12.5 7.537 7.135 11.728 12.5-7.537z"/><path opacity=".05" d="M109.252 13.816l-5.365 19.265 12.5-7.537z"/><path opacity=".2" d="M115.84 24.645l-12.5 7.537.547.9 12.5-7.54z"/><path fill="#FFE4C0" d="M96.838 21.495l.15-2.078 1.924.826zM98.912 20.243l.15-2.076 1.92.827zM100.983 18.994l.156-2.08 1.92.83zM103.06 17.743l.152-2.078 1.923.826zM105.135 16.49l.152-2.076 1.92.827zM107.207 15.24l.154-2.077 1.92.827z"/><path d="M112.38 22.078a.45.45 0 0 1-.152.62l-8.948 5.395a.454.454 0 0 1-.622-.152.45.45 0 0 1 .15-.617l8.95-5.397a.455.455 0 0 1 .622.152zM111.31 20.318a.45.45 0 0 1-.153.618l-8.948 5.397a.456.456 0 0 1-.623-.15.45.45 0 0 1 .152-.62l8.948-5.397a.455.455 0 0 1 .622.152zM110.238 18.56a.45.45 0 0 1-.15.617l-8.95 5.397a.453.453 0 0 1-.62-.152.45.45 0 0 1 .15-.62l8.95-5.395a.453.453 0 0 1 .62.152zM109.167 16.798a.45.45 0 0 1-.15.62l-8.95 5.395a.453.453 0 0 1-.62-.15.448.448 0 0 1 .15-.62l8.95-5.395a.45.45 0 0 1 .62.15z" opacity=".4"/><g opacity=".2"><path d="M121.34 33.812c.167.27.08.625-.19.79l-11.404 6.876a.582.582 0 0 1-.792-.195.572.572 0 0 1 .193-.786l11.404-6.877a.576.576 0 0 1 .79.192z"/></g><g opacity=".2"><path d="M119.98 31.572a.573.573 0 0 1-.194.787l-11.405 6.875a.575.575 0 0 1-.788-.193.57.57 0 0 1 .192-.787l11.404-6.877a.577.577 0 0 1 .79.194z"/></g><g opacity=".2"><path d="M118.615 29.328a.578.578 0 0 1-.194.788l-11.405 6.877a.574.574 0 0 1-.597-.98l11.405-6.877a.58.58 0 0 1 .792.192z"/></g></g><path opacity=".3" fill="#444" d="M182.48 0h-57.783c-1.34 6.38-5.215 71.55-5.215 71.55 0 .154.086.305.233.45h62.764V0z"/><g><path fill="#F4D9C1" d="M204.115 0h-78.202c-.42.37-.688.908-.688 1.51v70.04c0 .154.02.305.053.45h78.838V0z"/><path fill="#444" d="M204.115 0h-78.202c-.42.37-.688.908-.688 1.51v6.036h78.89V0z"/><ellipse fill="#2CB740" cx="129.641" cy="3.629" rx="1.6" ry="1.591"/><ellipse fill="#F16442" cx="134.517" cy="3.629" rx="1.599" ry="1.591"/><path fill="#FFF" d="M204.115 1.94H138.72a1.6 1.6 0 0 0-1.6 1.593 1.6 1.6 0 0 0 1.6 1.592h65.395V1.94z"/><path opacity=".2" fill="#444" d="M204.115 10.594h-60.862c-.57 0-1.037.46-1.037 1.03 0 .57.466 1.032 1.037 1.032h60.862v-2.062zM139.955 11.624c0 .827-.673 1.502-1.507 1.502h-9.23a1.505 1.505 0 0 1-1.506-1.502c0-.827.673-1.5 1.507-1.5h9.228c.834 0 1.507.673 1.507 1.5z"/><g opacity=".2" fill="#444"><path d="M204.115 17.916h-58.297c-.503 0-.912.387-.912.864 0 .475.41.86.912.86h58.297v-1.724zM204.115 21.77h-58.297c-.503 0-.912.385-.912.863 0 .477.41.863.912.863h58.297V21.77zM204.115 25.574h-58.297c-.503 0-.912.385-.912.86 0 .477.41.862.912.862h58.297v-1.722zM204.115 29.372h-58.297c-.503 0-.912.385-.912.86 0 .48.41.864.912.864h58.297v-1.724z"/></g><g opacity=".2" fill="#444"><path d="M204.115 34.86h-75.16c-.504 0-.914.386-.914.863 0 .475.41.862.915.862h75.16V34.86zM204.115 38.714h-75.16c-.504 0-.914.384-.914.862 0 .477.41.863.915.863h75.16v-1.726zM204.115 42.517h-75.16c-.504 0-.914.386-.914.86 0 .478.41.863.915.863h75.16v-1.723zM204.115 46.315h-75.16c-.504 0-.914.386-.914.862 0 .478.41.863.915.863h75.16v-1.725z"/></g><path opacity=".2" fill="#444" d="M204.115 50.046h-75.16c-.504 0-.914.387-.914.865 0 .476.41.862.915.862h75.16v-1.726zM204.115 53.9h-75.16c-.504 0-.914.385-.914.863 0 .477.41.863.915.863h75.16V53.9zM204.115 57.705h-75.16c-.504 0-.914.385-.914.86 0 .477.41.862.915.862h75.16v-1.722zM204.115 61.5h-75.16c-.504 0-.914.387-.914.863 0 .478.41.863.915.863h75.16V61.5zM204.115 65.386h-75.16c-.504 0-.914.384-.914.862 0 .477.41.863.915.863h75.16v-1.724zM204.115 69.19h-75.16c-.504 0-.914.385-.914.86 0 .476.41.86.915.86h75.16v-1.72z"/><ellipse fill="#FCD22E" cx="141.004" cy="15.04" rx=".034" ry=".022"/><path opacity=".2" fill="#444" d="M142.036 30.672c0 .546-.445.99-.994.99h-12.006a.994.994 0 0 1-.995-.99v-11.8c0-.548.448-.99.996-.99h12.006c.55 0 .994.442.994.99v11.8z"/></g><g><path opacity=".3" d="M185.482 47.653l-3.902-5.883-7.546-11.378.21-.137a1.33 1.33 0 0 0 .38-1.85l-.452-.68.604-.398a1.33 1.33 0 0 0 .38-1.85l-2.03-3.062a1.343 1.343 0 0 0-1.857-.378l-.605.397-.39-.587a1.334 1.334 0 0 0-.333-.333c-.017-.012-.026-.032-.043-.043a1.344 1.344 0 0 0-1.483-.002l-2.562 1.685-5.078-7.657 4.66-3.063-1.2-1.81-.028.02a2.79 2.79 0 0 0-3.657-.53l-.03-.046-2.33 1.532 1.385 2.087-1.385-2.088-21.987 14.45c-1.287.846-1.61 2.62-.72 3.96l6.053 9.126-2.17 1.425a1.33 1.33 0 0 0-.38 1.85l.13.193.927 1.4-.45.294a.824.824 0 0 0-.233 1.146l.12.184-.338.223-4.53-6.83.89-.396c.274-.18.37-.624.27-.624h.01c-.018 0-.042-.302-.078-.355l-1.1-1.75c-.216-.326-.656-.463-.982-.248l-1.333.854c-.014.01-.02.012-.035.022-.012.007-.027.002-.04.01-.284.188.093.57.28.854l.502.066v.003l.645 1.658c.002 0-.226.05-.226.052L138.376 47h-.01l.382.374.25.17-.012.147c.136.207.357.263.562.127l.977-.66.11.186c.25.38.76.487 1.143.234l.444-.294.174.263.94 1.423c.41.614 1.242.85 1.86.444L156.15 66h.002l.49.675c.41.616 1.24.75 1.858.345l26.6-17.5c.618-.407.788-1.25.38-1.867z"/><path fill="#C6C6C6" d="M141.825 46.862c.19.284.11.668-.177.856a.622.622 0 0 1-.86-.175l-6.737-10.162a.616.616 0 0 1 .177-.855.62.62 0 0 1 .86.175l6.738 10.162z"/><path fill="#C6C6C6" d="M137.715 37.458a.704.704 0 0 1-.2.98l-1.333.875a.712.712 0 0 1-.983-.2l-1.1-1.658a.705.705 0 0 1 .2-.98l1.333-.875a.71.71 0 0 1 .982.2l1.1 1.658z"/><path fill="#9D9D9C" d="M142.892 46.375c.137.205.08.48-.126.616l-1.26.83a.446.446 0 0 1-.617-.127l-.524-.79a.442.442 0 0 1 .126-.615l1.258-.827a.45.45 0 0 1 .62.127l.522.788z"/><path fill="#CEAD84" d="M161.968 16.033l5.476-3.6-1.2-1.81-5.476 3.6z"/><path opacity=".2" d="M142.65 46.01l-.28-.424a.45.45 0 0 0-.62-.126l-1.26.827a.442.442 0 0 0-.125.616l.28.423 2.004-1.317z"/><path fill="#C6C6C6" d="M177.166 25.478a1.33 1.33 0 0 1-.38 1.85l-2.284 1.5c-.617.406-.354-.484-.76-1.1l-2.032-3.06c-.407-.616-1.334-.724-.716-1.13l2.283-1.5a1.343 1.343 0 0 1 1.857.378l2.032 3.062z"/><path opacity=".2" d="M176.182 23.993l-1.047-1.578a1.343 1.343 0 0 0-1.857-.378l-2.283 1.5c-.618.406.31.514.716 1.13l1.047 1.577 3.425-2.25z"/><path fill="#C6C6C6" d="M142.632 47.343a.83.83 0 0 0 1.15.234l1.418-.93c.382-.252-.19-.32-.443-.7l-1.26-1.9c-.253-.38-.092-.933-.473-.68l-1.418.93a.825.825 0 0 0-.234 1.146l1.26 1.9z"/><path opacity=".2" d="M142.02 46.422l-.647-.98a.826.826 0 0 1 .234-1.145l1.418-.93c.38-.252.22.3.472.68l.65.978-2.126 1.397z"/><path fill="#445258" d="M176.632 28.406a1.33 1.33 0 0 1-.38 1.85l-29.046 19.092a1.345 1.345 0 0 1-1.857-.378L141 42.41a1.33 1.33 0 0 1 .38-1.85l29.046-19.09a1.344 1.344 0 0 1 1.857.377l4.35 6.56z"/><path fill="#445258" d="M187.49 47.653a1.332 1.332 0 0 1-.38 1.85l-26.6 17.483a1.344 1.344 0 0 1-1.856-.378l-11.898-17.942a1.332 1.332 0 0 1 .378-1.85l26.6-17.484a1.344 1.344 0 0 1 1.857.378l11.9 17.943z"/><path opacity=".3" d="M144.405 47.546l.943 1.423c.408.614 1.24.784 1.857.377l29.046-19.093a1.33 1.33 0 0 0 .38-1.85l-.943-1.423-31.282 20.566z"/><path opacity=".4" d="M172.488 22.157l-.205-.31a1.344 1.344 0 0 0-1.857-.378L141.38 40.56a1.33 1.33 0 0 0-.38 1.85l.205.31 31.283-20.563z"/><path fill="#E84343" d="M187 46.912a1.33 1.33 0 0 1-.383 1.85L160.02 66.243c-.62.406-1.45.238-1.857-.378l-11.9-17.942a1.332 1.332 0 0 1 .38-1.85l26.6-17.484a1.346 1.346 0 0 1 1.858.378L187 46.912z"/><path fill="#FF625A" d="M185.767 45.055a1.33 1.33 0 0 1-.38 1.85L158.79 64.387a1.344 1.344 0 0 1-1.858-.38l-11.9-17.94a1.332 1.332 0 0 1 .38-1.85l26.6-17.484a1.344 1.344 0 0 1 1.857.378l11.897 17.943z"/><path opacity=".13" fill="#FFF" d="M172.01 26.735l-26.6 17.484a1.332 1.332 0 0 0-.38 1.848l4.494 6.774 28.837-18.955-4.492-6.775a1.345 1.345 0 0 0-1.857-.377z"/><path fill="#445258" d="M183.192 46.016L158.83 62.03l-6.32-9.53 24.362-16.012z"/><path fill="#FFF" d="M176.578 47.108c.32.48.187 1.13-.298 1.448l-12.18 8.006a1.053 1.053 0 0 1-1.454-.296 1.044 1.044 0 0 1 .297-1.45l12.18-8.004a1.052 1.052 0 0 1 1.455.296zM178.848 41.728c.318.482.187 1.13-.297 1.45a1.053 1.053 0 0 1-1.455-.298c-.32-.48-.187-1.13.297-1.448a1.055 1.055 0 0 1 1.456.296zM175.946 43.635c.32.482.187 1.13-.3 1.45-.482.317-1.135.185-1.454-.297s-.186-1.13.3-1.45a1.053 1.053 0 0 1 1.454.297zM173.045 45.542c.32.482.187 1.13-.298 1.448a1.053 1.053 0 0 1-1.456-.296 1.043 1.043 0 0 1 .3-1.448 1.054 1.054 0 0 1 1.455.296zM170.143 47.45a1.04 1.04 0 0 1-.297 1.448 1.053 1.053 0 0 1-1.455-.297c-.318-.48-.186-1.13.3-1.447a1.053 1.053 0 0 1 1.453.296zM167.242 49.356c.32.482.187 1.13-.298 1.45a1.053 1.053 0 0 1-1.455-.298 1.044 1.044 0 0 1 .297-1.45 1.055 1.055 0 0 1 1.455.298zM164.34 51.264c.32.482.188 1.13-.297 1.45a1.054 1.054 0 0 1-1.455-.297c-.32-.48-.186-1.13.297-1.45a1.053 1.053 0 0 1 1.456.297zM161.44 53.17c.318.482.185 1.13-.3 1.45a1.052 1.052 0 0 1-1.454-.298c-.32-.48-.186-1.13.298-1.448a1.054 1.054 0 0 1 1.455.296zM158.537 55.078c.32.482.188 1.13-.297 1.45a1.055 1.055 0 0 1-1.456-.298 1.045 1.045 0 0 1 .3-1.45 1.052 1.052 0 0 1 1.453.298zM175.88 40.395c.32.482.187 1.13-.298 1.45a1.055 1.055 0 0 1-1.456-.297 1.043 1.043 0 0 1 .3-1.448 1.052 1.052 0 0 1 1.454.295zM172.98 42.302c.32.482.186 1.13-.298 1.45a1.054 1.054 0 0 1-1.456-.297c-.318-.482-.187-1.13.298-1.45s1.136-.184 1.455.297zM170.077 44.21c.32.48.187 1.13-.297 1.447a1.053 1.053 0 0 1-1.455-.296c-.32-.48-.187-1.13.297-1.447a1.054 1.054 0 0 1 1.455.296zM167.177 46.116c.32.482.187 1.13-.3 1.45a1.05 1.05 0 0 1-1.453-.298c-.32-.48-.186-1.13.297-1.448a1.055 1.055 0 0 1 1.457.296zM164.275 48.023c.32.482.186 1.13-.298 1.45a1.054 1.054 0 0 1-1.456-.297c-.318-.48-.184-1.13.3-1.45a1.054 1.054 0 0 1 1.455.297zM161.373 49.93a1.04 1.04 0 0 1-.297 1.45 1.054 1.054 0 0 1-1.456-.297 1.04 1.04 0 0 1 .3-1.448 1.05 1.05 0 0 1 1.453.296zM158.472 51.838c.32.482.187 1.13-.297 1.45a1.053 1.053 0 0 1-1.455-.298 1.043 1.043 0 0 1 .298-1.448 1.05 1.05 0 0 1 1.454.296zM179.193 45.39c.318.48.186 1.13-.3 1.448a1.053 1.053 0 0 1-1.454-.296c-.32-.48-.187-1.13.297-1.448a1.053 1.053 0 0 1 1.456.296zM161.784 56.832c.32.482.187 1.13-.297 1.45s-1.136.184-1.455-.298c-.32-.48-.187-1.13.298-1.448a1.053 1.053 0 0 1 1.454.296z"/><path fill="#1D1D1B" d="M171.228 25.184a.834.834 0 0 1-.237 1.156l-25.54 16.79a.843.843 0 0 1-1.163-.236.834.834 0 0 1 .237-1.156l25.543-16.79a.84.84 0 0 1 1.16.236z"/><path fill="#445258" d="M153.19 38.906l-1.04 6.278c3.844.743 7.972.05 11.496-2.267s5.785-5.822 6.608-9.633l-6.206-1.515-10.858 7.136z"/><path opacity=".2" d="M163.05 42.02c-3.272 2.15-7.095 2.85-10.75 2.27l-.15.894c3.845.743 7.973.05 11.497-2.267s5.785-5.822 6.608-9.633l-.883-.214c-.9 3.573-3.05 6.798-6.32 8.95z"/><path fill="#F2F2F2" d="M138.215 26.05c1.286-.846 3.05-.445 3.94.896l-4.66 3.063 8.422 12.698 24.314-15.982L160.2 11.6l-21.985 14.45z"/><path fill="#F2F2F2" d="M138.215 26.05c-1.287.846-1.61 2.62-.72 3.96l4.66-3.063c-.89-1.342-2.654-1.743-3.94-.897z"/><path opacity=".2" d="M169.832 26.123l-24.315 15.982.4.604 24.314-15.983z"/><path fill="#F2F2F2" d="M164.006 12.295l-2.33 1.53L160.2 11.6l2.33-1.533z"/><path fill="#B5B5B5" d="M162.56 10.114a2.77 2.77 0 0 0-.792 3.85l4.66-3.062a2.8 2.8 0 0 0-3.867-.788z"/><path fill="#FFE4C0" d="M154.896 36.918l.69 1.04c.298.452.907.576 1.36.28l5.007-3.293a.974.974 0 0 0 .276-1.354l-.69-1.04-6.644 4.368z"/><path opacity=".2" d="M154.896 36.918l.69 1.04c.298.452.907.576 1.36.28l5.007-3.293a.974.974 0 0 0 .276-1.354l-.69-1.04-6.644 4.368zM137.794 37.627a.682.682 0 0 0-.08-.17l-1.1-1.657a.71.71 0 0 0-.98-.2l-1.334.876a.704.704 0 0 0-.27.846l3.764.305z"/><path opacity=".3" d="M149.848 28.62c.135.205.08.48-.128.616l-6.71 4.412a.448.448 0 0 1-.62-.126l-3.354-5.058a.445.445 0 0 1 .126-.617l6.713-4.412a.446.446 0 0 1 .618.126l3.355 5.06zM158.057 16.122c.137.206.08.48-.126.617l-9.47 6.224a.448.448 0 0 1-.618-.126l-.108-.163a.443.443 0 0 1 .127-.616l9.47-6.225a.45.45 0 0 1 .62.126l.107.162zM161.688 17.323a.445.445 0 0 1-.128.616l-11.49 7.55a.447.447 0 0 1-.617-.125l-.108-.163a.444.444 0 0 1 .126-.616l11.49-7.552a.447.447 0 0 1 .62.126l.108.163zM163.362 19.75a.44.44 0 0 1-.125.617l-11.49 7.552a.447.447 0 0 1-.618-.127l-.11-.163a.443.443 0 0 1 .13-.616l11.487-7.552a.448.448 0 0 1 .62.126l.105.163zM164.804 22.024c.136.206.08.48-.127.617L144.503 35.9a.446.446 0 0 1-.618-.125l-.108-.162a.445.445 0 0 1 .127-.617l20.175-13.26a.446.446 0 0 1 .617.125l.107.164zM166.364 24.376c.136.206.08.48-.128.617l-20.172 13.26a.45.45 0 0 1-.62-.125l-.108-.162a.445.445 0 0 1 .127-.617l20.175-13.262a.447.447 0 0 1 .618.126l.108.162z"/></g><path opacity=".3" fill="#444" d="M224 0h-57.116c-1.34 6.38-5.214 71.55-5.214 71.55 0 .154.085.305.232.45H224V0z"/><path fill="#EDEDED" d="M224 0h-56.406a2.07 2.07 0 0 0-.56 1.417V72H224V0z"/><path fill="#444" d="M224 0h-56.406a2.07 2.07 0 0 0-.56 1.417V7.66H224V0z"/><ellipse fill="#2CB740" cx="171.6" cy="3.607" rx="1.656" ry="1.646"/><ellipse fill="#F16442" cx="176.644" cy="3.607" rx="1.654" ry="1.646"/><path fill="#FFF" d="M224 1.86h-43.008c-.908 0-1.654.738-1.654 1.647 0 .91.746 1.648 1.654 1.648H224V1.86z"/><path opacity=".2" fill="#444" d="M224 10.813h-38.32a1.07 1.07 0 0 0-1.073 1.065c0 .587.482 1.067 1.074 1.067H224v-2.132zM182.27 11.88c0 .853-.697 1.552-1.56 1.552h-9.547c-.862 0-1.56-.7-1.56-1.553 0-.857.697-1.552 1.56-1.552h9.547c.862 0 1.56.695 1.56 1.55z"/><path fill="#98CC0A" d="M167.033 15.744H224v25.292h-56.967z"/><path opacity=".2" fill="#444" d="M169.876 61.85h27.474V72h-27.474zM200.496 61.85H224V72h-23.504zM224 45.15h-53.41c-.544 0-.985.42-.985.933 0 .513.44.93.986.93H224V45.15zM224 49.31h-53.41c-.544 0-.985.416-.985.932 0 .515.44.93.986.93H224v-1.86zM224 53.417h-53.41c-.544 0-.985.415-.985.926 0 .515.44.93.986.93H224v-1.856zM224 57.51h-53.41c-.544 0-.985.42-.985.93 0 .52.44.934.986.934H224V57.51z"/><g fill="#FFF"><path opacity=".8" d="M215.913 23.495c0 .45-.387.813-.863.813h-18.047c-.476 0-.863-.363-.863-.813 0-.45.388-.82.863-.82h18.047c.476 0 .863.37.863.82z"/><g opacity=".8"><path d="M224 26.583h-26.997c-.476 0-.863.365-.863.815s.388.817.863.817H224v-1.632zM224 30.18h-26.997c-.476 0-.863.362-.863.81 0 .453.388.815.863.815H224V30.18zM224 33.77h-26.997c-.476 0-.863.365-.863.81 0 .455.388.818.863.818H224V33.77z"/></g></g><ellipse fill="#FCD22E" cx="183.354" cy="15.412" rx=".035" ry=".023"/><g opacity=".8" fill="#FFF"><path d="M182.905 19.117c-5.33 0-9.652 4.3-9.652 9.61 0 5.305 4.32 9.607 9.652 9.607 5.33 0 9.65-4.302 9.65-9.608.002-5.308-4.32-9.61-9.65-9.61zm0 18.78c-5.088 0-9.214-4.107-9.214-9.17 0-5.067 4.127-9.174 9.215-9.174 5.09 0 9.212 4.107 9.212 9.173 0 5.065-4.123 9.17-9.212 9.17z"/><path d="M175.393 25.396h.07l3.887 10.67h-.036c-1.61-.745-2.883-2-3.816-3.767-.537-1.21-.805-2.407-.805-3.592 0-1.07.233-2.174.7-3.312zM182.922 20.55c2.08 0 3.923.72 5.535 2.16v.035l-.106-.035c-.652 0-1.107.395-1.364 1.186v.313c0 .464.327 1.186.98 2.16.327.628.49 1.302.49 2.023 0 .605-.293 1.732-.875 3.382l-.56 1.92c-.046 0-.35-.873-.91-2.617l-2.103-6.207h.035c.817 0 1.226-.104 1.226-.313v-.104c-.047-.163-.128-.255-.245-.28l-2.276.105-2.312-.104a.344.344 0 0 0-.176.314h-.035c0 .256.34.384 1.016.384l.176.035 1.26 3.52-1.786 5.336h-.033l-2.978-8.856v-.035h.034c.794 0 1.19-.093 1.19-.28v-.104c0-.14-.08-.244-.244-.314l-2.663.104h-.14v-.07c.233-.417.783-1.022 1.647-1.81 1.565-1.233 3.304-1.85 5.218-1.85z"/><path d="M183.027 29.405c.046 0 .374.873.98 2.615l1.646 4.428h-.033a8.613 8.613 0 0 1-2.733.453c-.816 0-1.59-.116-2.31-.347l2.45-7.148zM190.067 24.802h.07c.653 1.3.98 2.615.98 3.94 0 2.372-.935 4.417-2.803 6.137a9.34 9.34 0 0 1-1.26.906h-.035v-.036l2.87-8.333c.165-.674.246-1.267.246-1.778l-.07-.838z"/></g></svg>