<svg xmlns="http://www.w3.org/2000/svg" width="20" height="7.557" viewBox="0 0 20 7.557"><g fill="#CCC"><path d="M5.733 2.636V4.92c0 1.726-1.647 2.473-2.955 2.473H.318c-.253 0-.318-.12-.318-.32V.484C0 .286.065.165.318.165h2.46c1.308 0 2.955.758 2.955 2.47zM4.01 2.79c0-.692-.506-1.098-1.23-1.098H1.723v4.174H2.78c.724 0 1.23-.395 1.23-1.098V2.79zM13.01.483v6.59c0 .2-.066.32-.32.32h-1c-.274 0-.35-.154-.494-.375L8.868 3.25v3.824c0 .253-.12.318-.318.318H7.462c-.198 0-.318-.065-.318-.318V.484c0-.198.066-.32.318-.32h1.033c.274 0 .352.154.495.375l2.328 3.755V.483c0-.252.122-.318.32-.318h1.053c.2 0 .32.065.32.318zM20 5.25c0 1.56-1.23 2.307-2.922 2.307-1.373 0-2.955-.79-2.955-2.33 0-.252.066-.307.32-.307h1.064c.253 0 .374.033.396.308.01.143.066.286.21.45.22.264.67.363 1.075.363.593 0 1.077-.13 1.077-.746 0-.615-.978-.626-1.912-.923-1.11-.35-2.13-.79-2.13-2.185C14.222.757 15.517.055 16.89 0c1.396 0 2.923.636 2.923 2.086 0 .264-.066.308-.318.308h-1.077c-.21 0-.24-.154-.297-.297a.902.902 0 0 0-.23-.33c-.208-.198-.603-.296-.933-.296-.362 0-.966.144-.966.638 0 .67 1.616.912 2.055 1.088.79.242 1.955.56 1.955 2.054z"/></g></svg>