<?xml version="1.0" encoding="utf-8"?>
<!-- Generator: Adobe Illustrator 20.0.0, SVG Export Plug-In . SVG Version: 6.00 Build 0)  -->
<svg version="1.1" baseProfile="basic" id="Layer_1"
	 xmlns="http://www.w3.org/2000/svg" xmlns:xlink="http://www.w3.org/1999/xlink" x="0px" y="0px" width="20px" height="20px"
	 viewBox="0 0 20 20" xml:space="preserve">
<g>
	<path fill="#CCCCCC" d="M13.5,6c0.9,0,1.8,0.2,2.6,0.5C17.3,5.8,18,4.9,18,4c0-2.2-4-4-9-4S0,1.8,0,4c0,2.1,3.7,3.9,8.4,4
		C9.8,6.8,11.5,6,13.5,6z"/>
	<g>
		<path fill="#CCCCCC" d="M17.9,7.5C18,7.3,18,7.2,18,7c0-0.3-0.1-0.7-0.3-1c-0.2,0.3-0.4,0.6-0.7,0.9C17.3,7,17.6,7.2,17.9,7.5z"/>
		<path fill="#CCCCCC" d="M7.5,8.9C4,8.7,1.2,7.5,0.3,6C0.1,6.3,0,6.7,0,7c0,1.8,2.7,3.4,6.5,3.8C6.8,10.2,7.1,9.5,7.5,8.9z"/>
	</g>
	<path fill="#CCCCCC" d="M6,13.5c0-0.6,0.1-1.2,0.2-1.7C3.3,11.4,1.1,10.3,0.3,9C0.1,9.3,0,9.7,0,10c0,1.7,2.5,3.2,6,3.8
		C6,13.7,6,13.6,6,13.5z"/>
	<path fill="#CCCCCC" d="M6.1,14.8c-2.9-0.4-5.1-1.5-5.8-2.8C0.1,12.3,0,12.7,0,13c0,1.9,2.9,3.4,6.8,3.9
		C6.5,16.2,6.2,15.5,6.1,14.8z"/>
</g>
<g>
	<path fill="#CCCCCC" d="M13.5,7C9.9,7,7,9.9,7,13.5S9.9,20,13.5,20s6.5-2.9,6.5-6.5S17.1,7,13.5,7z M13.5,18.1
		c-2.6,0-4.6-2.1-4.6-4.6s2.1-4.6,4.6-4.6s4.6,2.1,4.6,4.6S16.1,18.1,13.5,18.1z"/>
	<rect x="13" y="10" fill="#CCCCCC" width="1" height="4"/>
	<rect x="13" y="13" fill="#CCCCCC" width="3" height="1"/>
</g>
</svg>
