<?xml version="1.0" encoding="utf-8"?>
<!-- Generator: Adobe Illustrator 16.0.0, SVG Export Plug-In . SVG Version: 6.00 Build 0)  -->
<!DOCTYPE svg PUBLIC "-//W3C//DTD SVG 1.1//EN" "http://www.w3.org/Graphics/SVG/1.1/DTD/svg11.dtd">
<svg version="1.1" id="Layer_1" xmlns="http://www.w3.org/2000/svg" xmlns:xlink="http://www.w3.org/1999/xlink" x="0px" y="0px"
	 width="18px" height="17px" viewBox="0 0 18 17" enable-background="new 0 0 18 17" xml:space="preserve">
<g>
	<ellipse fill="#CCCCCC" cx="9" cy="4" rx="9" ry="4"/>
	<path fill="#CCCCCC" d="M9,9C4.807,9,1.295,7.725,0.295,6C0.109,6.32,0,6.654,0,7c0,2.21,4.028,4,9,4s9-1.79,9-4
		c0-0.346-0.109-0.68-0.295-1C16.705,7.725,13.193,9,9,9z"/>
	<path fill="#CCCCCC" d="M9,12c-4.193,0-7.705-1.275-8.705-3C0.109,9.32,0,9.654,0,10c0,2.21,4.028,4,9,4s9-1.79,9-4
		c0-0.346-0.109-0.68-0.295-1C16.705,10.725,13.193,12,9,12z"/>
	<path fill="#CCCCCC" d="M9,15c-4.193,0-7.705-1.275-8.705-3C0.109,12.32,0,12.654,0,13c0,2.21,4.028,4,9,4s9-1.79,9-4
		c0-0.346-0.109-0.68-0.295-1C16.705,13.725,13.193,15,9,15z"/>
</g>
</svg>
