<svg xmlns="http://www.w3.org/2000/svg" width="19.703" height="18.777" viewBox="0 0 19.703 18.777"><path fill="#CCC" d="M17.884 9.437c-.004 0-.008.004-.01.004v.01c-1.275.648-2.443.906-3.494.906-1.588 0-2.906-.59-3.92-1.32-.006-.004-.015-.01-.02-.016l1.844-6.867a6.007 6.007 0 0 0 3.896 1.404c1.005 0 2.18-.232 3.522-.863l-1.818 6.743zM5.776 6.765h-.05c-.953 0-2.086.272-3.485.887L4.038.858C5.397.26 6.505.018 7.43 0h.02c.544 0 1.034.07 1.47.18.907.25 2.214 1.093 2.214 1.093v.005c-.375 1.38-1.483 5.474-1.857 6.837-.975-.697-2.022-1.333-3.5-1.35M5.08 8.422c.12-.01.236-.016.354-.016 1.037 0 1.983.39 2.663.766.29.168.564.353.837.535-.242.892-1.513 5.568-1.888 6.936-1.01-.724-2.08-1.365-3.622-1.365-.937 0-2.05.24-3.427.837l1.825-6.81c.207-.092.41-.175.606-.25.665-.255 1.612-.54 2.652-.633m8.886 3.526c.968 0 2.113-.193 3.443-.706l-1.75 6.597c-1.513.67-2.72.937-3.73.937-1.596 0-3.724-1.412-3.722-1.41l1.818-6.8c.554.476 1.835 1.38 3.942 1.38"/></svg>