<svg xmlns="http://www.w3.org/2000/svg" width="20" height="19.978" viewBox="0 0 20 19.978"><g fill-rule="evenodd" clip-rule="evenodd" fill="#CCC"><path d="M2.894 2.942h3.314L4.76 4.39l4.372 4.37v.35h-.35L4.41 4.74 2.893 6.255V2.942zM13.892 2.942h3.214v3.214L15.64 4.688l-4.42 4.42h-.352v-.35l4.42-4.42-1.396-1.396zM10.868 10.846h.35l4.37 4.37 1.518-1.517v3.313h-3.314l1.446-1.447-4.37-4.37v-.35zM8.78 10.846h.352v.35l-4.42 4.42 1.395 1.397H2.894v-3.215l1.467 1.468 4.42-4.42z"/><path d="M2.894 7.134L4.41 5.617 7.904 9.11h-5.01V7.133zM7.903 10.846L4.36 14.388 2.895 12.92v-2.074h5.01z"/><path d="M0 10.027l2.273-2.272V9.73h6.25l.25.248-.25.247h-6.25V12.3L0 10.027zM12.097 9.11l3.542-3.544 1.466 1.468V9.11h-5.01zM17.106 12.82l-1.517 1.52-3.494-3.494h5.01v1.975z"/><path d="M11.228 9.978l.248-.248h6.252V7.655L20 9.927 17.728 12.2v-1.975h-6.253l-.247-.247zM10.868 12.074l3.493 3.492-1.446 1.447h-2.046v-4.94z"/><path d="M9.752 11.454l.248-.248.248.248v6.18h2.045L9.95 19.978l-2.344-2.344h2.146v-6.18z"/><path d="M5.59 15.617l3.542-3.543v4.94H6.985L5.59 15.616zM10.868 7.903L14.36 4.41l-1.446-1.446h-2.046v4.94z"/><path d="M9.752 8.524l.248.248.248-.248v-6.18h2.045L9.95 0 7.606 2.344h2.146v6.18z"/><path d="M5.59 4.36L9.13 7.904v-4.94H6.985L5.59 4.362z"/></g></svg>