<svg xmlns="http://www.w3.org/2000/svg" width="18" height="8.738" viewBox="0 0 18 8.738"><g fill="#CCC"><path d="M5.396 1.703c.152-.063.404-.1.404.2V3.04c0 .328-.228.39-.378.453L2.206 4.667 5.422 5.84c.15.06.378.125.378.452v1.123c0 .303-.252.277-.404.214L.276 5.61C.09 5.537 0 5.386 0 5.096v-.858c0-.29.088-.44.277-.518l5.12-2.017zM11.125 0c.315 0 .327.227.29.353L8.4 8.398c-.062.15-.15.34-.39.34H6.926c-.315 0-.327-.227-.29-.353L9.662.34c.064-.15.15-.34.39-.34h1.073zM17.722 3.72c.19.076.278.228.278.517v.858c0 .29-.088.44-.278.516l-5.12 2.02c-.15.06-.403.087-.403-.215V6.292c0-.327.226-.39.377-.454l3.215-1.172-3.215-1.174c-.15-.063-.378-.125-.378-.453V1.903c0-.303.25-.265.402-.202l5.12 2.018z"/></g></svg>