<svg xmlns="http://www.w3.org/2000/svg" width="17.186" height="8.25" viewBox="0 0 17.186 8.25"><path fill="#CCC" d="M7.145 1.302l-.032.03-.096-.1a4.11 4.11 0 1 0 .373 5.384l2.533-2.534-2.778-2.78z"/><path fill="#FFF" d="M5.71 2.566l-.015.017a2.203 2.203 0 0 0-3.153-.025c-.864.864-.86 2.27.006 3.133.864.867 2.257.86 3.122-.004.073-.075.123-.166.192-.238l1.365-1.364L5.71 2.566z"/><path fill="#CCC" d="M10.042 6.947l.03-.03.097.1a4.11 4.11 0 1 0-.374-5.384L7.262 4.167l2.78 2.78z"/><path fill="#FFF" d="M11.474 5.684l.017-.017s.015.02.033.035a2.2 2.2 0 0 0 3.12-.01 2.22 2.22 0 0 0-.004-3.135 2.205 2.205 0 0 0-3.124.008c-.073.072-.123.167-.193.237L9.957 4.167l1.517 1.517z"/></svg>