<?xml version="1.0" encoding="utf-8"?>
<!-- Generator: Adobe Illustrator 20.0.0, SVG Export Plug-In . SVG Version: 6.00 Build 0)  -->
<svg version="1.1" baseProfile="basic" id="Layer_1"
	 xmlns="http://www.w3.org/2000/svg" xmlns:xlink="http://www.w3.org/1999/xlink" x="0px" y="0px" width="18px" height="14px"
	 viewBox="0 0 18 14" xml:space="preserve">
<g>
	<g>
		<path fill="#CCCCCC" d="M18,2c0-1.1-0.9-2-2-2H2C0.9,0,0,0.9,0,2v10c0,1.1,0.9,2,2,2h14c1.1,0,2-0.9,2-2V2z M16,12H2V2h14V12z"/>
		<rect x="2" y="1" fill="#CCCCCC" width="4" height="13"/>
		<rect x="7" y="3" fill="#CCCCCC" width="8" height="1"/>
		<rect x="7" y="7" fill="#CCCCCC" width="8" height="1"/>
		<rect x="7" y="9" fill="#CCCCCC" width="8" height="1"/>
		<rect x="7" y="5" fill="#CCCCCC" width="8" height="1"/>
	</g>
</g>
</svg>
