<svg xmlns="http://www.w3.org/2000/svg" width="18" height="11.314" viewBox="247 250.343 18 11.314"><path fill="#CCC" d="M256.875 259.46h1.694v2.183h-3.095a6.065 6.065 0 0 0 1.4-2.183zm4.97-1.092v-2.182h-4.653c.118.786.085 1.69-.012 2.182h4.664zm-5.653-3.273h2.42v-2.183h-3.08c.325.745.536 1.48.66 2.183zm3.6-2.168v2.183H265v-2.183h-5.208zm3.23 5.456H265V256.2h-1.978v2.183zm-3.23 3.274H265v-2.183h-5.208v2.183zm-3.902-5.48c-.163.695-.93 1.38-1.435 1.385.532-1.216.628-3.1-.507-4.682-.112.812-.618 1.35-1.156 1.497.57-2.006-1.462-3.856-3.226-4.034 1.054 2.63-3.592 4.083-.78 7.483-.44-.02-1.485-.366-1.683-1.574-.492 2.268.83 5.154 3.158 5.405-.477-.354-1.47-1.632-.958-2.958.293.542.87 1.02 1.445 1.026-2.108-1.94.608-3.86-.47-5.457 2.446.455 2.36 2.774 1.895 3.558.38 0 .815-.478 1-1.098.562.865.082 2.295-.344 2.934.223.076 1.065-.398 1.247-.896.162 1.355-.792 2.732-1.413 2.89 1.432 0 3.786-2.147 3.228-5.48z"/></svg>