<svg xmlns="http://www.w3.org/2000/svg" width="13.632" height="14.931" viewBox="0 0 13.632 14.931"><g fill="#CCCCCD"><path d="M6.816 3.996c-.652 0-1.183.53-1.183 1.182v1.467h2.365V5.178c0-.65-.53-1.182-1.182-1.182z"/><path d="M12.91 1.738c-.263.02-.53.033-.802.033-2.235 0-4.194-.706-5.292-1.77C5.718 1.064 3.76 1.77 1.524 1.77c-.27 0-.54-.013-.8-.032C.26 2.728 0 3.948 0 5.422c0 5.053 4.145 9.51 6.816 9.51 2.86 0 6.816-4.457 6.816-9.51 0-1.475-.26-2.695-.723-3.684zm-3.36 9.264c0 .246-.2.445-.443.445H4.525a.443.443 0 0 1-.442-.445V7.088c0-.244.2-.443.442-.443h.222V5.178c0-1.14.93-2.068 2.068-2.068 1.14 0 2.068.93 2.068 2.068v1.467h.222c.244 0 .442.2.442.443v3.914z"/><path d="M6.816 7.79a.685.685 0 0 0-.344 1.275v1.152a.343.343 0 0 0 .686 0V9.065a.683.683 0 0 0-.342-1.275z"/></g></svg>