<svg xmlns="http://www.w3.org/2000/svg" width="20" height="20.676" viewBox="0 0 20 20.676"><g fill="#CCC"><circle cx="2.012" cy="10.34" r="2.011"/><circle cx="16.436" cy="18.665" r="2.011"/><path d="M11.627 5.363a4.985 4.985 0 0 1 4.927 4.27H20a8.32 8.32 0 0 0-2.255-5.052c-.842.43-1.875.438-2.754-.07s-1.39-1.408-1.437-2.352a8.446 8.446 0 0 0-1.926-.22 8.37 8.37 0 0 0-3.578.794L9.773 5.72a4.97 4.97 0 0 1 1.853-.357zM16.554 11.044a4.983 4.983 0 0 1-4.927 4.273c-.654 0-1.28-.127-1.853-.358l-1.726 2.987a8.47 8.47 0 0 0 5.507.575 2.88 2.88 0 0 1 1.438-2.355 2.88 2.88 0 0 1 2.755-.07A8.332 8.332 0 0 0 20 11.045h-3.446zM6.65 10.34c0-1.585.746-3 1.904-3.912L6.83 3.438a8.576 8.576 0 0 0-1.145.96 8.363 8.363 0 0 0-2.108 3.52 2.88 2.88 0 0 1 0 4.844 8.373 8.373 0 0 0 2.108 3.52c.356.355.74.675 1.143.957l1.725-2.988A4.972 4.972 0 0 1 6.65 10.34z"/><circle cx="16.434" cy="2.011" r="2.011"/></g></svg>