<svg xmlns="http://www.w3.org/2000/svg" width="60" height="70" viewBox="0 0 60 70"><g fill="#0084FD"><path d="M51.283 19.762l4.054-4.046-2.803-2.803-4.157 4.16A29.607 29.607 0 0 0 31.5 10.588V7H35V0H24.5v7H28v3.59C12.393 11.5 0 24.417 0 40.25 0 56.676 13.325 70 29.75 70 46.177 70 59.5 56.676 59.5 40.25c0-7.944-3.138-15.148-8.217-20.488zM29.75 63C17.188 63 7 52.81 7 40.25 7 27.688 17.188 17.5 29.75 17.5S52.5 27.688 52.5 40.25C52.5 52.81 42.31 63 29.75 63z"/><path d="M31.5 21H28v21h14v-3.5H31.5z"/></g></svg>