<svg xmlns="http://www.w3.org/2000/svg" width="52.203" height="67.181" viewBox="0 0 52.203 67.181"><g fill="#F50"><path d="M40.982 46.445l-.415 4.576-4.168-1.93-1.358 4.39-3.677-2.754-1.492 2.674 8.193 13.362 3.5-8.616 9.216 1.276-7.694-12.497zM20.837 50.726L17.16 53.48l-1.357-4.39-4.17 1.93-.414-4.575-2.106.48L2.256 59.84l9.215-1.275 3.502 8.616L22.33 53.4zM26.1 12.585c-7.374 0-13.374 6-13.374 13.377 0 7.374 6 13.375 13.375 13.375s13.377-6 13.377-13.375c0-7.376-6-13.377-13.376-13.377z"/><path d="M48.816 28.348l3.387-2.386-3.387-2.39 2.818-3.038-3.81-1.63 2.125-3.56-4.067-.803 1.338-3.923-4.145.06.495-4.115-4.04.92-.377-4.13-3.76 1.742-1.224-3.962-3.32 2.488L28.83 0 26.1 3.12 23.373 0l-2.02 3.62-3.318-2.484-1.224 3.96-3.762-1.74-.374 4.127-4.04-.92.492 4.114-4.145-.06 1.34 3.925-4.067.802 2.125 3.562-3.81 1.63 2.818 3.038L0 25.962l3.387 2.386-2.82 3.04L4.38 33.02l-2.126 3.558 4.066.804-1.338 3.922 4.145-.06-.493 4.113 4.04-.92.375 4.127 3.76-1.74 1.225 3.96 3.318-2.483 2.02 3.618 2.73-3.114 2.727 3.12 2.02-3.62 3.318 2.482 1.225-3.96 3.76 1.742.374-4.128 4.043.92-.494-4.113 4.145.06-1.336-3.922 4.067-.804-2.125-3.557 3.812-1.63-2.82-3.045zM26.1 42.68c-9.218 0-16.72-7.5-16.72-16.718 0-9.22 7.5-16.72 16.72-16.72 9.22 0 16.72 7.5 16.72 16.72 0 9.218-7.5 16.72-16.72 16.72z"/></g></svg>