<svg baseProfile="basic" xmlns="http://www.w3.org/2000/svg" width="51" height="55" viewBox="0 0 51 55"><path fill="#17A538" d="M37 0h14v55H37zM19 14h14v41H19zM0 21h14v34H0z"/><path fill="#F3F3F3" d="M10 50H4c-.6 0-1-.4-1-1v-1c0-.6.4-1 1-1h6c.6 0 1 .4 1 1v1c0 .6-.4 1-1 1zM10 43H4c-.6 0-1-.4-1-1v-1c0-.6.4-1 1-1h6c.6 0 1 .4 1 1v1c0 .6-.4 1-1 1zM10 36H4c-.6 0-1-.4-1-1v-1c0-.6.4-1 1-1h6c.6 0 1 .4 1 1v1c0 .6-.4 1-1 1zM10 29H4c-.6 0-1-.4-1-1v-1c0-.6.4-1 1-1h6c.6 0 1 .4 1 1v1c0 .6-.4 1-1 1zM29 50h-6c-.6 0-1-.4-1-1v-1c0-.6.4-1 1-1h6c.6 0 1 .4 1 1v1c0 .6-.4 1-1 1zM29 43h-6c-.6 0-1-.4-1-1v-1c0-.6.4-1 1-1h6c.6 0 1 .4 1 1v1c0 .6-.4 1-1 1zM29 36h-6c-.6 0-1-.4-1-1v-1c0-.6.4-1 1-1h6c.6 0 1 .4 1 1v1c0 .6-.4 1-1 1zM29 29h-6c-.6 0-1-.4-1-1v-1c0-.6.4-1 1-1h6c.6 0 1 .4 1 1v1c0 .6-.4 1-1 1zM47 50h-6c-.6 0-1-.4-1-1v-1c0-.6.4-1 1-1h6c.6 0 1 .4 1 1v1c0 .6-.4 1-1 1zM47 43h-6c-.6 0-1-.4-1-1v-1c0-.6.4-1 1-1h6c.6 0 1 .4 1 1v1c0 .6-.4 1-1 1zM47 36h-6c-.6 0-1-.4-1-1v-1c0-.6.4-1 1-1h6c.6 0 1 .4 1 1v1c0 .6-.4 1-1 1zM47 29h-6c-.6 0-1-.4-1-1v-1c0-.6.4-1 1-1h6c.6 0 1 .4 1 1v1c0 .6-.4 1-1 1zM29 22h-6c-.6 0-1-.4-1-1v-1c0-.6.4-1 1-1h6c.6 0 1 .4 1 1v1c0 .6-.4 1-1 1zM47 22h-6c-.6 0-1-.4-1-1v-1c0-.6.4-1 1-1h6c.6 0 1 .4 1 1v1c0 .6-.4 1-1 1zM47 15h-6c-.6 0-1-.4-1-1v-1c0-.6.4-1 1-1h6c.6 0 1 .4 1 1v1c0 .6-.4 1-1 1zM47 8h-6c-.6 0-1-.4-1-1V6c0-.6.4-1 1-1h6c.6 0 1 .4 1 1v1c0 .6-.4 1-1 1z"/></svg>