<svg xmlns="http://www.w3.org/2000/svg" width="82.739" height="93.036" viewBox="0 0 82.739 93.036"><circle fill="#4B4B4B" cx="41.369" cy="81.412" r="11.625"/><ellipse fill="#4B4B4B" cx="41.368" cy="11.624" rx="7.791" ry="11.626"/><path fill="#FF5046" d="M82.723 73.372c-.5-9.543-15.288-9.218-17.937-40.788C62.656 7.216 46.054 6.88 41.37 7.302c-4.686-.42-21.288-.086-23.418 25.282C15.302 64.154.515 63.83.012 73.372H0v7.645c0 1.525 1.22 2.763 2.725 2.763h77.288c1.506 0 2.728-1.237 2.728-2.763v-7.645h-.017z"/><g fill="#FFF"><path d="M38.447 33.95c.242 1.942.56 4.66.946 8.156.388 3.494.874 8.273 1.457 14.343h.025c.025.58.498 1.045 1.085 1.045.604 0 1.094-.487 1.094-1.092 0-.02-.008-.035-.01-.05.724-6.02 1.326-10.772 1.808-14.247.486-3.495.862-6.214 1.13-8.157.266-1.94.45-3.398.546-4.37.097-.968.146-1.966.146-2.983 0-3.542-1.483-5.317-4.443-5.317s-4.438 1.775-4.438 5.317c0 1.018.046 2.016.144 2.983.098.972.266 2.43.51 4.37zM41.942 62.273c-3.35 0-5.024 1.58-5.024 4.732 0 3.16 1.674 4.735 5.024 4.735 3.154 0 4.733-1.575 4.733-4.735 0-3.152-1.58-4.732-4.733-4.732z"/></g><path opacity=".25" fill="#010000" d="M82.723 73.372c-.5-9.543-15.288-9.218-17.937-40.788C62.726 8.062 47.15 6.932 41.88 7.264V83.78h38.13c1.507 0 2.73-1.237 2.73-2.763v-7.645h-.017z"/></svg>