<svg xmlns="http://www.w3.org/2000/svg" width="97.591" height="47.811" viewBox="0 0 97.591 47.811"><path fill="#575756" d="M0 22.908L48.796 4.333 97.59 22.908 48.797 42.602z"/><path fill="#3F3F3F" d="M0 22.908s48.9 8.756 48.796 8.24c-.106-.518 48.795-8.24 48.795-8.24l-48.794 20.3L0 22.908z"/><path fill="#868686" d="M74.244 22.974c-.35-3.602-11.605-6.495-25.448-6.495S23.7 19.37 23.35 22.973h-.018v18.17H74.26v-18.17h-.016z"/><path opacity=".2" fill="#FFF" d="M27.92 41.144h8.79V17.278c-3.506.497-6.518 1.2-8.79 2.052v21.814z"/><ellipse fill="#3F3F3F" cx="48.796" cy="41.144" rx="25.464" ry="6.667"/><path opacity=".2" fill="#282828" d="M74.244 22.974c-.147-1.504-2.2-2.883-5.542-3.98v22.15h5.56v-18.17h-.018z"/><ellipse fill="#282828" cx="48.796" cy="40.652" rx="25.464" ry="6.175"/><path fill="#FFD715" d="M12.424 35.417c-1.288-7.254-.375-13.3 3.15-17.624 6.09-7.476 15.513-6.74 15.862-6.77 0 0-1.817.522-2.064.82-.05.062-8.7 2.03-12.574 6.902-3.188 4.01-4.056 9.598-2.847 16.4l-1.526.272z"/><circle fill="#FFDC50" cx="13.188" cy="35.282" r="1.809"/><path fill="#FFD715" d="M15.455 35.355c0-.326-.99-.59-2.21-.59s-2.207.264-2.207.59c0 0-1.355 4.752-.842 6.692 0 .45 1.366.815 3.05.815s3.052-.366 3.052-.815c-.002 0-.15-5.82-.843-6.692z"/><path opacity=".1" fill="#3F3F3F" d="M15.455 35.355c0-.272-.694-.5-1.632-.567.736 1.806 1.1 4.38.447 8.027 1.18-.113 2.026-.414 2.026-.768 0 0-.147-5.82-.84-6.692z"/><path fill="#FFD12D" d="M61.86 8.85a15.245 15.245 0 0 0 7.728 8.653 15.216 15.216 0 0 0-8.15 8.252 15.22 15.22 0 0 0-7.736-8.65A15.23 15.23 0 0 0 61.86 8.85z"/><path fill="#FF7600" d="M61.755 13.047a7.668 7.668 0 0 0 3.897 4.357 7.62 7.62 0 0 0-4.11 4.157 7.642 7.642 0 0 0-3.898-4.355 7.692 7.692 0 0 0 4.11-4.158z"/><path fill="#FFD12D" d="M64.55 0a7.147 7.147 0 0 0 3.62 4.053 7.118 7.118 0 0 0-3.816 3.865 7.135 7.135 0 0 0-3.625-4.052A7.124 7.124 0 0 0 64.55 0z"/><path fill="#FF7600" d="M64.5 1.965c.314.894.975 1.63 1.827 2.04A3.577 3.577 0 0 0 64.4 5.953a3.58 3.58 0 0 0-1.824-2.04A3.59 3.59 0 0 0 64.5 1.964z"/><g><path fill="#FFD12D" d="M73.332 4.102a10.607 10.607 0 0 0 5.375 6.02 10.578 10.578 0 0 0-5.667 5.738 10.578 10.578 0 0 0-5.382-6.015 10.594 10.594 0 0 0 5.674-5.743z"/><path fill="#FF7600" d="M73.26 7.022a5.332 5.332 0 0 0 2.71 3.03 5.306 5.306 0 0 0-2.86 2.89 5.318 5.318 0 0 0-2.71-3.03 5.345 5.345 0 0 0 2.86-2.89z"/></g></svg>