<svg xmlns="http://www.w3.org/2000/svg" width="86.546" height="94.797" viewBox="0 0 86.546 94.797"><path fill="#FF8100" d="M86.546 34.42c0-9.362-1.66-17.098-4.592-23.376a65.31 65.31 0 0 1-5.084.203c-14.192 0-26.63-4.5-33.597-11.247-6.967 6.748-19.405 11.247-33.597 11.247a65.27 65.27 0 0 1-5.084-.203C1.662 17.322 0 25.058 0 34.42c0 32.087 26.315 60.377 43.273 60.377 18.154 0 43.273-28.29 43.273-60.377z"/><g fill="#F0F0F0"><path d="M71.572 36.645a1.98 1.98 0 0 0-2.646-.926l-9.354 4.506c-5.75 2.355-13.797 2.985-16.114 3.12-2.366-.138-10.72-.79-16.49-3.275l-9.176-4.422a1.982 1.982 0 0 0-1.72 3.572l9.24 4.452c-.077 2.953-.015 7.125.58 11.497l-8.23 3.61c-1 .44-1.46 1.608-1.018 2.612.44 1 1.608 1.457 2.61 1.02l7.343-3.225c.52 2.383 1.238 4.727 2.208 6.882l-8.202 6.19a1.98 1.98 0 0 0 2.385 3.16l7.753-5.852c2.46 3.59 5.988 6.132 11.04 6.485V48.21c0-.927.752-1.677 1.68-1.677.93 0 1.68.75 1.68 1.678v27.845c4.983-.35 8.488-2.823 10.942-6.336l7.648 5.772a1.983 1.983 0 0 0 2.774-.387 1.984 1.984 0 0 0-.387-2.777L58.04 66.23c.987-2.155 1.718-4.507 2.247-6.9l7.178 3.148a1.984 1.984 0 0 0 2.61-1.02 1.983 1.983 0 0 0-1.018-2.61l-8.052-3.532c.615-4.44.677-8.682.598-11.67l9.044-4.358a1.98 1.98 0 0 0 .925-2.643z"/><path d="M30.43 33.18a13.72 13.72 0 0 0-.74 4.43v.777c3.913 1.422 8.652 2.26 13.766 2.26 5.118 0 9.856-.838 13.77-2.26v-.778c0-1.553-.268-3.04-.74-4.43 2.745-1.73 4.41-3.98 4.41-6.443 0-3.568-3.49-6.687-8.706-8.43v.26c1.245 1.242 1.974 2.738 1.974 4.347 0 1.542-.673 2.974-1.82 4.186a13.702 13.702 0 0 0-8.885-3.26c-3.39 0-6.487 1.23-8.886 3.26-1.15-1.21-1.822-2.645-1.822-4.186 0-1.61.73-3.105 1.974-4.348v-.258c-5.216 1.742-8.706 4.86-8.706 8.43 0 2.464 1.664 4.712 4.41 6.443z"/></g><path opacity=".2" fill="#010000" d="M81.955 11.044a65.31 65.31 0 0 1-5.084.203c-14.11 0-26.485-4.45-33.474-11.136v94.673c18.428 0 43.15-28.428 43.15-60.363 0-9.362-1.66-17.098-4.59-23.376z"/></svg>