<svg xmlns="http://www.w3.org/2000/svg" width="86.546" height="94.797" viewBox="0 0 86.546 94.797"><path fill="#FFCD10" d="M86.546 34.42c0-9.362-1.66-17.098-4.592-23.376-1.665.13-3.36.203-5.085.203-14.192 0-26.63-4.5-33.597-11.247-6.967 6.748-19.405 11.247-33.597 11.247a65.27 65.27 0 0 1-5.084-.203C1.66 17.322 0 25.058 0 34.42c0 32.087 26.314 60.377 43.273 60.377 18.155 0 43.273-28.29 43.273-60.377z"/><path fill="#37865A" d="M69.49 71.818a2.87 2.87 0 0 1-2.87 2.87H20.057a2.87 2.87 0 0 1 0-5.74H66.62a2.868 2.868 0 0 1 2.87 2.87z"/><path fill="#34D780" d="M56.21 74.3a2.097 2.097 0 0 1-2.096 2.097H32.56a2.095 2.095 0 0 1-2.095-2.097v-4.962c0-1.157.938-2.096 2.095-2.096h21.554c1.16 0 2.097.938 2.097 2.096V74.3z"/><path fill="#34D780" d="M45.82 61.143c1.157 0 2.095.937 2.095 2.095v8.983a2.095 2.095 0 0 1-2.095 2.095h-4.964a2.095 2.095 0 0 1-2.095-2.094V63.24c0-1.158.94-2.095 2.096-2.095h4.964z"/><path opacity=".2" fill="#010000" d="M81.954 11.044c-1.665.13-3.36.203-5.085.203-14.112 0-26.487-4.45-33.476-11.136v94.673c18.43 0 43.152-28.427 43.152-60.363 0-9.362-1.66-17.098-4.592-23.376z"/><path fill="#37865A" d="M65.554 23.074c-.262-2.283-2.263-4.095-4.475-4.095H25.634c-2.212 0-4.216 1.81-4.475 4.094l-4.447 32.443c-.39 3.376 1.547 6.185 4.332 6.185h44.623c2.786 0 4.72-2.81 4.333-6.185l-4.446-32.443z"/><path fill="#34D780" d="M70.22 57.34a5.03 5.03 0 0 1-5.03 5.03H21.6a5.03 5.03 0 0 1 0-10.06h43.59a5.03 5.03 0 0 1 5.03 5.03z"/><circle fill="#37865A" cx="23.113" cy="57.481" r="2.646"/><path opacity=".25" fill="#010000" d="M70.017 55.995c-.007-.16.004-.314-.016-.478l-4.446-32.443c-.262-2.283-2.263-4.095-4.475-4.095H43.395v33.328l-6.305 10.06h28.1a5.03 5.03 0 0 0 5.03-5.03c0-.467-.085-.912-.203-1.343z"/></svg>