<svg xmlns="http://www.w3.org/2000/svg" width="84.577" height="56.659" viewBox="0 0 84.577 56.659"><path fill="#886E4E" d="M1.404 30.008L7.88 54.142l22.9 2.516 53.797-14.436L73.67 1.577 19.874 16.012 1.403 30.008zm19.514 7.51a5.14 5.14 0 0 1-3.636 6.3 5.14 5.14 0 0 1-6.3-3.635 5.144 5.144 0 1 1 9.936-2.665z"/><path fill="#F8C684" d="M0 28.43l6.475 24.136 22.904 2.516 53.795-14.436L72.268 0 18.47 14.435 0 28.43zm19.516 7.51a5.142 5.142 0 0 1-3.636 6.302 5.143 5.143 0 1 1-2.666-9.937 5.144 5.144 0 0 1 6.302 3.636z"/><g fill="#E7444E"><path d="M31.997 36.71l.683-1.906a4.468 4.468 0 0 0 3.488.446c1.147-.323 1.556-1.01 1.4-1.567-.49-1.735-5.797 1.045-6.834-2.643-.46-1.63.57-3.38 2.876-4.03 1.558-.44 2.983-.333 4.206.29l-.732 1.856c-1-.512-2.153-.55-3.152-.27-.896.252-1.284.79-1.118 1.377.438 1.558 5.773-1.07 6.803 2.588.504 1.793-.393 3.505-3.04 4.25-1.88.53-3.41.28-4.58-.39zM48.475 33.56l-1.07-1.49-4.203 1.183-.15 1.834-2.382.67 1.033-10.868 2.614-.738 6.537 8.736-2.38.672zM43.6 26.607l-.342 4.647 3.056-.86-2.715-3.787zM51.766 32.633l-2.76-9.8 2.086-.587 2.244 7.964 4.143-1.167.516 1.837-6.23 1.753zM59.45 30.47l-2.76-9.8 6.934-1.953.52 1.836-4.85 1.366.584 2.07 4.744-1.335.52 1.836-4.747 1.337.625 2.22 4.85-1.366.516 1.838-6.936 1.952z"/><path d="M73.098 32.547L28.986 44.97l-5.822-20.68 44.11-12.422 5.824 20.68zm-42.394 9.358l39.33-11.076-4.478-15.898-39.328 11.075 4.476 15.898z"/></g></svg>