<svg xmlns="http://www.w3.org/2000/svg" width="86.06" height="94.263" viewBox="0 0 86.06 94.263"><path fill="#07AA54" d="M81.494 10.982a65.16 65.16 0 0 1-5.056.203c-14.113 0-26.482-4.473-33.41-11.185-3.313 3.21-7.882 5.9-13.28 7.84.027 2.03.17 12.682.338 12.63.188-.056 7.71 10.726 7.71 10.726l2.62 13.483 9.45 6.42-13.14-4.406-3.664-12.65-10.986-9.32-2.616-14.29a64.256 64.256 0 0 1-14.897.548C1.65 17.224 0 24.917 0 34.23c0 31.905 26.166 60.033 43.03 60.033 18.052 0 43.028-28.128 43.028-60.034 0-9.313-1.65-17.006-4.564-23.248z"/><path fill="#FFCD10" d="M83.82 79.13l-16.182-18.4c5.967-10.495 4.515-24.07-4.426-33.034-10.74-10.77-28.18-10.797-38.95-.058-10.77 10.74-10.795 28.18-.055 38.947 8.087 8.108 19.966 10.124 29.942 6.042l16.164 18.38a8.987 8.987 0 0 0 12.69.815 8.99 8.99 0 0 0 .815-12.69zM31.034 59.783c-6.983-7-6.965-18.336.035-25.316 7-6.982 18.336-6.965 25.315.035 6.982 7.002 6.966 18.338-.034 25.317-7 6.982-18.336 6.964-25.315-.035z"/><path opacity=".2" fill="#010000" d="M75.67 69.866C81.863 59.736 86.06 47.302 86.06 34.23c0-9.313-1.65-17.006-4.564-23.248a65.16 65.16 0 0 1-5.056.203c-14.11 0-26.48-4.472-33.407-11.185v94.263c6.645 0 14.223-3.82 21.154-10.23l6.13 6.973a8.987 8.987 0 0 0 12.69.816 8.99 8.99 0 0 0 .814-12.69l-8.147-9.266z"/></svg>