<svg xmlns="http://www.w3.org/2000/svg" width="86.061" height="94.264" viewBox="0 0 86.061 94.264"><path fill="#0DB47E" d="M86.06 34.23c0-9.313-1.65-17.006-4.565-23.248a64.55 64.55 0 0 1-5.056.203C62.327 11.185 49.96 6.713 43.03 0c-6.93 6.713-19.296 11.185-33.41 11.185-1.713 0-3.4-.073-5.055-.203C1.65 17.224 0 24.917 0 34.23c0 31.904 26.168 60.034 43.03 60.034 18.053 0 43.03-28.13 43.03-60.035z"/><g fill="#FFF"><path d="M60.28 69.467a2.795 2.795 0 0 1-2.794 2.796H28.573a2.795 2.795 0 0 1-2.794-2.796V44.752a2.795 2.795 0 0 1 2.793-2.798h28.913a2.795 2.795 0 0 1 2.795 2.798v24.715z"/><path d="M43.03 70.57c-7.198 0-13.06-5.857-13.06-13.054V32.688c0-7.197 5.86-13.056 13.06-13.056 7.197 0 13.057 5.858 13.057 13.056v24.828c0 7.197-5.86 13.054-13.058 13.054zm0-45.34c-4.114 0-7.464 3.346-7.464 7.458v24.828c0 4.112 3.35 7.46 7.463 7.46 4.113 0 7.46-3.348 7.46-7.46V32.688c0-4.112-3.347-7.46-7.46-7.46z"/></g><g fill="#0DB47E"><path d="M47.362 53.498a4.336 4.336 0 0 1-4.33 4.33 4.33 4.33 0 0 1 0-8.658 4.333 4.333 0 0 1 4.33 4.328z"/><path d="M45.193 64.503a2.163 2.163 0 0 1-2.166 2.163 2.163 2.163 0 0 1-2.165-2.163V52.418a2.165 2.165 0 0 1 4.33 0v12.086z"/></g><path opacity=".1" fill="#010000" d="M81.47 10.98a64.55 64.55 0 0 1-5.055.204c-14.033 0-26.338-4.424-33.286-11.07V94.25c18.323 0 42.906-28.265 42.906-60.02 0-9.313-1.65-17.006-4.565-23.25z"/></svg>