<svg xmlns="http://www.w3.org/2000/svg" width="95.656" height="81.027" viewBox="0 0 95.656 81.027"><path fill="#FFD950" d="M95.656 73.27A7.757 7.757 0 0 1 87.9 81.03H7.756A7.758 7.758 0 0 1 0 73.27V7.758A7.757 7.757 0 0 1 7.757 0H87.9a7.757 7.757 0 0 1 7.756 7.757V73.27z"/><path fill="#4B4B4B" d="M87.9 0H7.756A7.757 7.757 0 0 0 0 7.757V18.21h95.656V7.757A7.757 7.757 0 0 0 87.9 0z"/><path fill="#FFF" d="M13.117 9.214a3.73 3.73 0 0 1-3.734 3.726 3.732 3.732 0 1 1 3.734-3.726zM23.943 9.214a3.73 3.73 0 0 1-3.734 3.726 3.732 3.732 0 1 1 3.734-3.726zM90.006 9.646c0 1.85-1.458 3.354-3.26 3.354h-56.23c-1.8 0-3.26-1.503-3.26-3.354 0-1.855 1.46-3.358 3.26-3.358h56.23c1.803 0 3.26 1.504 3.26 3.358z"/><g fill="#FF5046"><path d="M9.075 47.804h31.43v3.592H9.074zM56.418 47.88h31.43v3.592h-31.43z"/><path d="M53.452 65.578l-6.866-33.98-1.394-6.44-2.036 6.318-6.11 18.78 3.415 1.11 3.983-12.237 5.486 27.16z"/><path d="M43.37 33.69l6.865 33.977 1.392 6.445 2.035-6.32 6.112-18.78-3.416-1.113-3.982 12.236-5.486-27.16z"/></g><path opacity=".1" fill="#010000" d="M87.9 0H37.964l16.398 81.027h33.535a7.757 7.757 0 0 0 7.757-7.757V7.757A7.756 7.756 0 0 0 87.9 0z"/></svg>