<svg xmlns="http://www.w3.org/2000/svg" width="270" height="220" viewBox="0 0 270 220"><title>Отзывы на главную</title><path d="M118.678,197.258v19c-20.7-2.1-34-5.456-34.02-9.312S97.94,199.581,118.678,197.258Z" fill-rule="evenodd" opacity="0.3"/><rect x="46.297" y="137.755" width="15.802" height="19.142" fill="#ffd79d"/><rect x="57.947" y="137.755" width="3.326" height="19.142" fill="#010101" opacity="0.2"/><path d="M43.311,161.184c7.647.036,13.879-6.865,13.917-15.412h0c.042-8.543-6.125-15.5-13.776-15.533l-10.094-.046c-7.651-.036-6.09,6.9-6.129,15.443h0c-.038,8.548-1.659,15.468,5.987,15.5Z" fill="#ffd79d"/><path d="M10.759,137.552a3.676,3.676,0,0,1-3.663-3.69h0a3.687,3.687,0,0,1,3.7-3.668l20.363-.006a3.682,3.682,0,0,1,3.667,3.694h0a3.674,3.674,0,0,1-3.7,3.653Z" fill="#ffd79d"/><path d="M32.445,126.233a5.209,5.209,0,0,1-.007-7.354h0a5.219,5.219,0,0,1,7.326.753l12.086,13.384a5.235,5.235,0,0,1,0,7.369h0a5.222,5.222,0,0,1-7.33-.763Z" fill="#ffd79d"/><path d="M22.96,145.61a3.68,3.68,0,0,1-3.663-3.694h0a3.681,3.681,0,0,1,3.694-3.663l11.413-.059a3.67,3.67,0,0,1,3.655,3.691h0a3.674,3.674,0,0,1-3.693,3.665Z" fill="#e9b980"/><path d="M23.942,153.608a3.679,3.679,0,0,1-3.663-3.7h0a3.679,3.679,0,0,1,3.7-3.657l9.44-.05a3.683,3.683,0,0,1,3.663,3.7h0a3.674,3.674,0,0,1-3.7,3.661Z" fill="#e9b980"/><path d="M25.67,161a3.47,3.47,0,0,1-3.453-3.477h0a3.471,3.471,0,0,1,3.483-3.445l4.129-.017a3.468,3.468,0,0,1,3.445,3.483h0a3.457,3.457,0,0,1-3.475,3.445Z" fill="#e9b980"/><path d="M49.467,132.689c3.51,3.456,4.21,8.438,1.56,11.132s-7.643,2.066-11.149-1.39-4.21-8.438-1.56-11.128S45.957,129.234,49.467,132.689Z" fill="#010101" opacity="0.2"/><ellipse cx="45.137" cy="136.426" rx="6.836" ry="8.921" transform="translate(-83.766 72.917) rotate(-45.464)" fill="#ffd79d"/><path d="M37.072,142.262a2.657,2.657,0,0,1-2.933,2.43c-1.434-.2-1.732-1.732-1.548-3.269s.788-2.516,2.221-2.312A2.768,2.768,0,0,1,37.072,142.262Z" fill="#ffd79d"/><path d="M35.531,150.27A2.663,2.663,0,0,1,32.6,152.7c-1.438-.2-1.74-1.732-1.552-3.275s.788-2.51,2.221-2.3A2.778,2.778,0,0,1,35.531,150.27Z" fill="#ffd79d"/><path d="M32.281,157.971a2.57,2.57,0,0,1-2.837,2.351c-1.384-.187-1.675-1.68-1.495-3.166s.761-2.434,2.149-2.238A2.689,2.689,0,0,1,32.281,157.971Z" fill="#ffd79d"/><ellipse cx="165.711" cy="117.506" rx="21.675" ry="7.227" fill="#e6e6e6"/><path d="M56.762,0a56.78,56.78,0,0,1,52.319,78.8l11.3,28.209-30.247-4.338A56.76,56.76,0,1,1,56.762,0Z" fill="#95e5ff" fill-rule="evenodd"/><path d="M31.719,75.8A31.118,31.118,0,1,1,44.841,86.219L29.333,92.436Z" fill="#fff" fill-rule="evenodd"/><path d="M56.77,40.134A15.961,15.961,0,0,1,71.295,62.4l3.108,7.96-8.492-1.292A15.95,15.95,0,1,1,56.77,40.134Z" fill="#00cc82" fill-rule="evenodd"/><path d="M85.816,163.255l-.172,13.782A3.814,3.814,0,0,0,89.632,181a3.926,3.926,0,0,0,3.991-4.143H116.33a26.76,26.76,0,1,1-53.52.134l.3-13.762a4.965,4.965,0,0,0-3.5-4.292v-22.7C73.753,136.242,85.816,147.849,85.816,163.255Z" fill="#f48438"/><path d="M235.987,209.8V141.444c0-17.083-16.3-31.141-37.76-31.141H132.152c-21.468,0-38.433,14.059-38.433,31.141v37.078h22.462v-21.49c0-.483.405-.881,1.25-.881s1.246.4,1.246.881v59.081c15.806.954,31.528,2.3,48.947,2.3A681.05,681.05,0,0,0,236,214.5C236.335,213.064,235.987,211.506,235.987,209.8Z" fill="#f48438"/><path d="M208.531,216.886V157.1a1.083,1.083,0,0,1,1.216-1.046h.065a1.085,1.085,0,0,1,1.216,1.046v59.518Z" fill="#010101" opacity="0.34"/><path d="M235.987,214.6v-19.01c20.8,2.107,33.99,5.466,34.013,9.314S256.786,212.273,235.987,214.6Z" fill-rule="evenodd" opacity="0.3"/><path d="M185.763,113.126c0,3.709-9.016,6.714-20.145,6.714s-20.138-3.005-20.138-6.714,9.016-6.714,20.138-6.714,20.145,3.007,20.145,6.714" fill="#ededed"/><path d="M178.8,97.42a12.531,12.531,0,1,1,17.075-4.728A12.522,12.522,0,0,1,178.8,97.42Z" fill="#27c15a"/><path d="M181.435,98.538a12.525,12.525,0,0,1,10.61-22.355,9.85,9.85,0,0,0-.9-.572,12.531,12.531,0,1,0-9.712,22.927Z" fill="#5b5b5b" opacity="0.3"/><path d="M182.674,90.574a4.663,4.663,0,1,1,6.355-1.759A4.66,4.66,0,0,1,182.674,90.574Z" fill="#5b5b5b"/><path d="M147.445,82.048a2.419,2.419,0,0,0,2.638,2.193l.287-.029a2.42,2.42,0,0,0,2.191-2.638l-.983-10.516a2.436,2.436,0,0,0-2.634-2.194l-.294.031a2.424,2.424,0,0,0-2.183,2.64Z" fill="#ececec"/><path d="M145.151,82.832a2.53,2.53,0,0,0,3.036,1.931l.306-.057a2.6,2.6,0,0,0,2.236-2.86L149,71.415a2.518,2.518,0,0,0-3.028-1.921l-.31.058a2.587,2.587,0,0,0-2.233,2.86Z" fill="#ffd59b"/><path d="M196.713,82.231a2.518,2.518,0,0,0,2.5,2.577l.314.021a2.6,2.6,0,0,0,2.837-2.269l.742-10.539a2.517,2.517,0,0,0-2.493-2.575l-.314-.019a2.587,2.587,0,0,0-2.837,2.269Z" fill="#ffd59b"/><path d="M134.354,82.231a2.52,2.52,0,0,1-2.5,2.577l-.31.021A2.606,2.606,0,0,1,128.7,82.56l-.746-10.539a2.519,2.519,0,0,1,2.5-2.575l.31-.019A2.587,2.587,0,0,1,133.6,71.7Z" fill="#ffd59b"/><path d="M131.356,72.365c0,23.227,20.432,42.051,34.388,42.051,14.039,0,34.388-18.824,34.388-42.051s-15.393-42.046-34.388-42.046S131.356,49.142,131.356,72.365Z" fill="#f7cc9a"/><ellipse cx="182.8" cy="71.044" rx="6.316" ry="2.866" fill="#fff"/><path d="M143.778,71.042c0,1.583,2.818,2.869,6.3,2.869s6.324-1.287,6.324-2.869-2.829-2.864-6.324-2.864S143.778,69.461,143.778,71.042Z" fill="#fff"/><path d="M140.808,89.54c2.133,3.474,7.039,4.682,10.95,2.692s5.353-6.412,3.208-9.878-7.039-4.682-10.958-2.694S138.667,86.068,140.808,89.54Z" fill="#ff8080"/><path d="M176.09,89.528c2.133,3.464,7.019,4.657,10.919,2.686s5.322-6.395,3.193-9.849c-2.13-3.47-7.02-4.666-10.916-2.686S173.957,86.068,176.09,89.528Z" fill="#ff8080"/><path d="M166.761,28.039c46.519-3.277,32.545,58.2,32.545,58.2.183-1.841-1.79-28.693-2.9-31.069-.558-1.992-4.251-8.528-6.53-6.041-4.668,5.015-30.809,5.3-30.95,5.286a26.674,26.674,0,0,0-15.4,3.131c.18-1.135.8-2.913,4.871-6.314-6.229,1.833-8.328,5.615-9.987,8.578a75.521,75.521,0,0,1,2.221-7.609s-8.14,16.356-8.385,34.738C130.267,78.961,117.775,22.291,166.761,28.039Z" fill="#77503b"/><path d="M146.222,71.385a1.925,1.925,0,1,0,1.919-1.738A1.832,1.832,0,0,0,146.222,71.385Z" fill="#513123"/><path d="M147.208,70.849a.429.429,0,0,0,.448.413.417.417,0,1,0,0-.83A.426.426,0,0,0,147.208,70.849Z" fill="#fff" opacity="0.5"/><path d="M178.751,71.385a1.929,1.929,0,1,0,1.923-1.738A1.84,1.84,0,0,0,178.751,71.385Z" fill="#513123"/><path d="M179.741,70.849a.431.431,0,0,0,.448.413.417.417,0,1,0,0-.83A.428.428,0,0,0,179.741,70.849Z" fill="#fff" opacity="0.5"/><path d="M140.938,63.761A1.515,1.515,0,0,0,142.5,65.2l10.1-.061a1.526,1.526,0,0,0,1.541-1.464h0a1.519,1.519,0,0,0-1.56-1.438l-10.094.071a1.52,1.52,0,0,0-1.545,1.454Z" fill="#70462d"/><path d="M176.617,63.761a1.52,1.52,0,0,0,1.568,1.438l10.086-.061a1.527,1.527,0,0,0,1.545-1.464h0a1.518,1.518,0,0,0-1.56-1.438l-10.1.071a1.516,1.516,0,0,0-1.537,1.454Z" fill="#70462d"/><path d="M131.379,104.042c0,14.957,14.9,27.9,34.8,27.9h.3c19.9,0,34.559-14.315,34.559-29.258V86.441c.834-10.294-12.311,9.721-31.069,9.721h-2.715c-21.051,0-35.68-20.222-36.016-9.968Z" fill="#010101" opacity="0.15"/><path d="M131.379,101.1c0,14.944,14.9,27.5,34.8,27.5h.3c19.9,0,34.559-13.548,34.559-28.49V83.874C201.875,73.589,188.73,92,169.973,92h-2.715c-21.051,0-35.68-19.616-36.016-9.358Z" fill="#77503b"/><path d="M177.788,93.641c0,4.426-5.062,8.006-11.294,8.006s-11.287-3.58-11.287-8.006,4.458.233,10.694.233S177.788,89.219,177.788,93.641Z" fill="#ededed"/><path d="M194.771,78.481s-9.692,14.175-25.456,7.414c-6.974,0-6.106,7.262-1.048,8.1,8.549,1.424,26.634.26,26.5-14.84" fill="#6d4735"/><path d="M137.045,78.481s9.688,14.175,25.452,7.414c6.966,0,6.1,7.262,1.052,8.1-8.549,1.424-26.634.26-26.5-14.84" fill="#6d4735"/><path d="M170.255,85.611a4.179,4.179,0,0,1-4.16,4.3h0a4.185,4.185,0,0,1-4.156-4.3V69.947a4.181,4.181,0,0,1,4.156-4.288h0a4.175,4.175,0,0,1,4.16,4.288Z" fill="#010101" opacity="0.15"/><path d="M170.255,83.922a4.172,4.172,0,0,1-4.16,4.29h0a4.179,4.179,0,0,1-4.156-4.29V68.255a4.182,4.182,0,0,1,4.156-4.292h0a4.176,4.176,0,0,1,4.16,4.292Z" fill="#ff8080"/><path d="M175.513,58.312a.419.419,0,0,1-.424.415H156.147a.422.422,0,0,1-.428-.415h0a.422.422,0,0,1,.428-.424h18.941a.419.419,0,0,1,.424.424Z" fill="#010101" opacity="0.1"/><path d="M176.472,55.81a.442.442,0,0,1-.47.415H155.23a.446.446,0,0,1-.467-.415h0a.445.445,0,0,1,.467-.415H176a.441.441,0,0,1,.47.415Z" fill="#010101" opacity="0.1"/><g opacity="0.4"><path d="M139.628,161.254l.684-.355,13.851-7.207a2,2,0,0,0-2.084-1.538l-12.722.991a1.9,1.9,0,0,0-1.743,2.08l.177,1.794a1.849,1.849,0,0,1-1.643,2.073l-1.836.143,2.787,28.153,2.454-25.368Z" fill="#fff"/><path d="M153.737,168.767h-3.363v4.062h3.363a2.043,2.043,0,1,0,0-4.062Z" fill="#fff"/><path d="M169.785,147.058l-28.793,14.979L137.9,193.972l28.675-2.25,16.124-1.266,10.307-.811,3.09-31.934ZM156.328,181l-3.282-5.348h-2.671V181h-3.2V165.946h7.042a4.687,4.687,0,0,1,5.056,4.851c0,2.663-1.345,4.086-2.969,4.471L160.007,181Zm16.337-12.233h-7.449v3.182h6.642v2.821h-6.642v3.409h7.449V181H162.01V165.946h10.656Zm16.209,9.683a8.351,8.351,0,0,1-6.41,2.845,7.665,7.665,0,0,1-8.014-7.811c0-4.764,3.611-7.788,8.014-7.788a7.044,7.044,0,0,1,6.23,3.364l-2.666,1.446a4.255,4.255,0,0,0-3.565-1.965,4.95,4.95,0,0,0,0,9.888,5.074,5.074,0,0,0,3.2-1.153v-1.609H181.7V172.83h7.177Z" fill="#fff"/></g></svg>