<svg xmlns="http://www.w3.org/2000/svg" width="336" height="240" viewBox="0 0 336 240"><title>Отзывы на отзывы</title><ellipse cx="197.229" cy="225.087" rx="117.065" ry="13.749" opacity="0.2"/><path d="M56.762,0a56.78,56.78,0,0,1,52.319,78.8l11.3,28.209-30.247-4.338A56.76,56.76,0,1,1,56.762,0Z" fill="#95e5ff" fill-rule="evenodd"/><path d="M31.719,75.8A31.118,31.118,0,1,1,44.841,86.219L29.333,92.436Z" fill="#fff" fill-rule="evenodd"/><path d="M56.77,40.134A15.961,15.961,0,0,1,71.295,62.4l3.108,7.96-8.492-1.292A15.95,15.95,0,1,1,56.77,40.134Z" fill="#00cc82" fill-rule="evenodd"/><path d="M222.987,224.6v-19.01c20.8,2.107,33.99,5.466,34.013,9.314S243.786,222.273,222.987,224.6Z" fill-rule="evenodd" opacity="0.3"/><path d="M197.229,238.55c12.842,0,27.2-.252,38.758-.7v-82.4c0-17.083-18.3-34.141-39.76-34.141H130.152c-21.468,0-41.433,17.059-41.433,34.141v74.6C107.617,234.653,150.747,238.55,197.229,238.55Z" fill="#f48438"/><ellipse cx="163.711" cy="128.506" rx="21.675" ry="7.227" fill="#e6e6e6"/><path d="M209.028,238.764V168.1a1.085,1.085,0,0,0-1.216-1.046h-.065a1.083,1.083,0,0,0-1.216,1.046v70.689C207.368,238.785,208.2,238.774,209.028,238.764Z" fill="#010101" opacity="0.34"/><path d="M183.763,124.126c0,3.709-9.016,6.714-20.145,6.714s-20.138-3.005-20.138-6.714,9.016-6.714,20.138-6.714,20.145,3.007,20.145,6.714" fill="#ededed"/><path d="M176.8,108.42a12.531,12.531,0,1,1,17.075-4.728A12.522,12.522,0,0,1,176.8,108.42Z" fill="#27c15a"/><path d="M179.435,109.538a12.525,12.525,0,0,1,10.61-22.355,9.85,9.85,0,0,0-.9-.572,12.531,12.531,0,1,0-9.712,22.927Z" fill="#5b5b5b" opacity="0.3"/><path d="M180.674,101.574a4.663,4.663,0,1,1,6.355-1.759A4.66,4.66,0,0,1,180.674,101.574Z" fill="#5b5b5b"/><path d="M145.445,93.048a2.419,2.419,0,0,0,2.638,2.193l.287-.029a2.42,2.42,0,0,0,2.191-2.638l-.983-10.516a2.436,2.436,0,0,0-2.634-2.194l-.294.031a2.424,2.424,0,0,0-2.183,2.64Z" fill="#ececec"/><path d="M143.151,93.832a2.53,2.53,0,0,0,3.036,1.931l.306-.057a2.6,2.6,0,0,0,2.236-2.86L147,82.415a2.518,2.518,0,0,0-3.028-1.921l-.31.058a2.587,2.587,0,0,0-2.233,2.86Z" fill="#ffd59b"/><path d="M194.713,93.231a2.518,2.518,0,0,0,2.5,2.577l.314.021a2.6,2.6,0,0,0,2.837-2.269l.742-10.539a2.517,2.517,0,0,0-2.493-2.575l-.314-.019a2.587,2.587,0,0,0-2.837,2.269Z" fill="#ffd59b"/><path d="M132.354,93.231a2.52,2.52,0,0,1-2.5,2.577l-.31.021A2.606,2.606,0,0,1,126.7,93.56l-.746-10.539a2.519,2.519,0,0,1,2.5-2.575l.31-.019A2.587,2.587,0,0,1,131.6,82.7Z" fill="#ffd59b"/><path d="M129.356,83.365c0,23.227,20.432,42.051,34.388,42.051,14.039,0,34.388-18.824,34.388-42.051s-15.393-42.046-34.388-42.046S129.356,60.142,129.356,83.365Z" fill="#f7cc9a"/><ellipse cx="180.8" cy="82.044" rx="6.316" ry="2.866" fill="#fff"/><path d="M141.778,82.042c0,1.583,2.818,2.869,6.3,2.869s6.324-1.287,6.324-2.869-2.829-2.864-6.324-2.864S141.778,80.461,141.778,82.042Z" fill="#fff"/><path d="M138.808,100.54c2.133,3.474,7.039,4.682,10.95,2.692s5.353-6.412,3.208-9.878-7.039-4.682-10.958-2.694S136.667,97.068,138.808,100.54Z" fill="#ff8080"/><path d="M174.09,100.528c2.133,3.464,7.019,4.657,10.919,2.686s5.322-6.395,3.193-9.849c-2.13-3.47-7.02-4.666-10.916-2.686S171.957,97.068,174.09,100.528Z" fill="#ff8080"/><path d="M164.761,39.039c46.519-3.277,32.545,58.2,32.545,58.2.183-1.841-1.79-28.693-2.9-31.069-.558-1.992-4.251-8.528-6.53-6.041-4.668,5.015-30.809,5.3-30.95,5.286a26.674,26.674,0,0,0-15.4,3.131c.18-1.135.8-2.913,4.871-6.314-6.229,1.833-8.328,5.615-9.987,8.578a75.521,75.521,0,0,1,2.221-7.609s-8.14,16.356-8.385,34.738C128.267,89.961,115.775,33.291,164.761,39.039Z" fill="#77503b"/><path d="M144.222,82.385a1.925,1.925,0,1,0,1.919-1.738A1.832,1.832,0,0,0,144.222,82.385Z" fill="#513123"/><path d="M145.208,81.849a.429.429,0,0,0,.448.413.417.417,0,1,0,0-.83A.426.426,0,0,0,145.208,81.849Z" fill="#fff" opacity="0.5"/><path d="M176.751,82.385a1.929,1.929,0,1,0,1.923-1.738A1.84,1.84,0,0,0,176.751,82.385Z" fill="#513123"/><path d="M177.741,81.849a.431.431,0,0,0,.448.413.417.417,0,1,0,0-.83A.428.428,0,0,0,177.741,81.849Z" fill="#fff" opacity="0.5"/><path d="M138.938,74.761A1.515,1.515,0,0,0,140.5,76.2l10.1-.061a1.526,1.526,0,0,0,1.541-1.464h0a1.519,1.519,0,0,0-1.56-1.438l-10.094.071a1.52,1.52,0,0,0-1.545,1.454Z" fill="#70462d"/><path d="M174.617,74.761a1.52,1.52,0,0,0,1.568,1.438l10.086-.061a1.527,1.527,0,0,0,1.545-1.464h0a1.518,1.518,0,0,0-1.56-1.438l-10.1.071a1.516,1.516,0,0,0-1.537,1.454Z" fill="#70462d"/><path d="M129.379,115.042c0,14.957,14.9,27.9,34.8,27.9h.3c19.9,0,34.559-14.315,34.559-29.258V97.441c.834-10.294-12.311,9.721-31.069,9.721h-2.715c-21.051,0-35.68-20.222-36.016-9.968Z" fill="#010101" opacity="0.15"/><path d="M129.379,112.1c0,14.944,14.9,27.5,34.8,27.5h.3c19.9,0,34.559-13.548,34.559-28.49V94.874C199.875,84.589,186.73,103,167.973,103h-2.715c-21.051,0-35.68-19.616-36.016-9.358Z" fill="#77503b"/><path d="M175.788,104.641c0,4.426-5.062,8.006-11.294,8.006s-11.287-3.58-11.287-8.006,4.458.233,10.694.233S175.788,100.219,175.788,104.641Z" fill="#ededed"/><path d="M192.771,89.481s-9.692,14.175-25.456,7.414c-6.974,0-6.106,7.262-1.048,8.1,8.549,1.424,26.634.26,26.5-14.84" fill="#6d4735"/><path d="M135.045,89.481s9.688,14.175,25.452,7.414c6.966,0,6.1,7.262,1.052,8.1-8.549,1.424-26.634.26-26.5-14.84" fill="#6d4735"/><path d="M168.255,96.611a4.179,4.179,0,0,1-4.16,4.3h0a4.185,4.185,0,0,1-4.156-4.3V80.947a4.181,4.181,0,0,1,4.156-4.288h0a4.175,4.175,0,0,1,4.16,4.288Z" fill="#010101" opacity="0.15"/><path d="M168.255,94.922a4.172,4.172,0,0,1-4.16,4.29h0a4.179,4.179,0,0,1-4.156-4.29V79.255a4.182,4.182,0,0,1,4.156-4.292h0a4.176,4.176,0,0,1,4.16,4.292Z" fill="#ff8080"/><path d="M173.513,69.312a.419.419,0,0,1-.424.415H154.147a.422.422,0,0,1-.428-.415h0a.422.422,0,0,1,.428-.424h18.941a.419.419,0,0,1,.424.424Z" fill="#010101" opacity="0.1"/><path d="M174.472,66.81a.442.442,0,0,1-.47.415H153.23a.446.446,0,0,1-.467-.415h0a.445.445,0,0,1,.467-.415H174a.441.441,0,0,1,.47.415Z" fill="#010101" opacity="0.1"/><path d="M116.632,235.056V168.1a1.085,1.085,0,0,0-1.216-1.046h-.065a1.083,1.083,0,0,0-1.216,1.046v66.664C114.959,234.864,115.784,234.962,116.632,235.056Z" fill="#010101" opacity="0.34"/><g opacity="0.4"><path d="M135.76,170.831l.684-.355L150.3,163.27a2,2,0,0,0-2.084-1.538l-12.722.991a1.9,1.9,0,0,0-1.743,2.08l.177,1.794a1.849,1.849,0,0,1-1.643,2.073l-1.836.143,2.787,28.153,2.454-25.368Z" fill="#fff"/><path d="M149.869,178.345h-3.363v4.062h3.363a2.043,2.043,0,1,0,0-4.062Z" fill="#fff"/><path d="M165.918,156.635l-28.793,14.979-3.091,31.936,28.675-2.25,16.124-1.266,10.307-.811,3.09-31.934ZM152.46,190.578l-3.282-5.348h-2.671v5.348h-3.2V175.524h7.042a4.687,4.687,0,0,1,5.056,4.851c0,2.663-1.345,4.086-2.969,4.471l3.709,5.732ZM168.8,178.345h-7.449v3.182h6.642v2.821h-6.642v3.409H168.8v2.821H158.142V175.524H168.8Zm16.209,9.683a8.351,8.351,0,0,1-6.41,2.845,7.665,7.665,0,0,1-8.014-7.811c0-4.764,3.611-7.788,8.014-7.788a7.044,7.044,0,0,1,6.23,3.364l-2.666,1.446a4.255,4.255,0,0,0-3.565-1.965,4.95,4.95,0,0,0,0,9.888,5.074,5.074,0,0,0,3.2-1.153v-1.609h-3.972v-2.838h7.177Z" fill="#fff"/></g><path d="M242.7,51.7c-5.4-1.187-3.226-.144-6.783,4.522-2.611,3.421-19.106-3.93-18.388,5.971.242,3.32,5.887,12.232.022,16.353-9.092,6.382-1.764,11.406-3.8,15.918a4.869,4.869,0,0,1-3.65,2.764,32.726,32.726,0,0,0,4.718-.484c3.247-.5,4.92-4.061,4.92-4.061s-4.967,5.054-1.315,8.627c7.244,7.082,23.526,4.13,23.526,4.13s6.105-6.057,8.092-8.842c3.265-4.557-12.074-7.542-15.848-12.925-4.008-5.709-6.135-13.834,2.869-22.144,8.7-8.028,11.271-10.852,11.271-10.852s2.2-2.805,6.639,3.228,2.7,9.319,2.7,9.319,5.506-2.9,7.748-4.042,2.252-1.894,2.252-1.894,7.77,5.059,7.212,7.111-.028,8,1.754,12.893-12.6,11.306-12.82,12.759a51.8,51.8,0,0,1-2.487,6.5s5.694,4.7,6.514,3.433.621.038-.2,1.95c-.084.2,15.792,6.222,15.792,6.222s3.918-2.3,4.243-6.3c.377-4.694-4.3-7.7-4.3-7.7a7.6,7.6,0,0,1,5.1,1.274c1.5,1,1.785,2.2,2.295,3.753,0,0,1.932-.828,4.228-6.236,4.136-9.742-8.941-18.716-5.595-23.879s-16.157-8.916-17.731-11-4.947,5.049-13.281.813c-7.8-3.965,12.184-6.975-1.376-8.448C247.092,49.367,242.7,51.7,242.7,51.7Z" fill="#6d4735"/><rect x="241.314" y="110.552" width="25.225" height="24.915" transform="matrix(1, -0.004, 0.004, 1, -0.496, 1.029)" fill="#ffd69d"/><path d="M266.336,114.706l-25.541.106.015,3.2c2.346,5.469,8.821,8.775,12.937,8.759,4.01-.019,10.3-3.248,12.6-8.554Z" fill="#010000" opacity="0.2"/><path d="M281.375,87.621c.083,21.062-20.484,38.216-28.146,38.244-7.856.033-28.371-16.955-28.457-38.015S237.288,49.667,252.919,49.6,281.29,66.561,281.375,87.621Z" fill="#ffce99"/><path d="M227.813,93.577a2.2,2.2,0,0,1-2.048,2.347l-.257.017a2.2,2.2,0,0,1-2.344-2.043l-.651-9.557A2.2,2.2,0,0,1,224.557,82l.257-.019a2.2,2.2,0,0,1,2.346,2.048Z" fill="#ffd69d"/><path d="M273.416,83.306a.791.791,0,0,1-.638-.318,7.755,7.755,0,0,0-10.836-1.753.779.779,0,0,1-.91-1.264,9.324,9.324,0,0,1,13.01,2.105.78.78,0,0,1-.178,1.086A.764.764,0,0,1,273.416,83.306Z" fill="#020303" opacity="0.15"/><path d="M232.508,83.472a.76.76,0,0,1-.452-.141.774.774,0,0,1-.183-1.081,9.318,9.318,0,0,1,12.991-2.212.779.779,0,0,1-.9,1.272,7.762,7.762,0,0,0-10.825,1.837A.778.778,0,0,1,232.508,83.472Z" fill="#020303" opacity="0.15"/><ellipse cx="253.581" cy="119.872" rx="2.447" ry="0.428" transform="translate(-0.492 1.046) rotate(-0.236)" fill="#020303" opacity="0.15"/><path d="M264.174,108.244c.013,3.372-4.84,8.475-10.687,8.5s-10.6-4.776-10.619-8.142c0-.838,4.737-.56,10.584-.581S264.169,107.3,264.174,108.244Z" fill="#f27d82"/><path d="M263.736,108.583c.009,3.054-4.65,5.349-10.259,5.373s-10.16-2-10.172-5.049c0-.758,4.552,1.158,10.158,1.133S263.732,107.728,263.736,108.583Z" fill="#fff"/><path d="M245.391,48.185C226.133,45.458,213.009,64.02,213.8,77.607c.265,4.555,5.537,21.3,9.128,20.994,11.061-.929-3.651-12.724,8.9-21.575,11.646-8.215,15.464-15.195,15.464-15.195s1.705-1.445,6.543,6.846,2.009,15.081,2.009,15.081,4.362-4.849,5.419-8.425c1.581-5.32,1.982-7.584,1.982-7.584a20.6,20.6,0,0,1,13.549,11.974c2.662,6.173,1.206,6.906,3.144,13.623s8.389.87,12.023-6.214,3.782-18.143-5.29-23.967c-8.482-5.453-5.57-13.421-18.971-17.657C257.358,42.233,245.391,48.185,245.391,48.185Z" fill="#010000" opacity="0.1"/><path d="M245.277,44.25c-19.489-2.935-32.766,17.014-31.955,31.621.268,4.9,5.61,24.4,9.25,24.079,11.186-1-3.707-15.183,8.984-24.7C243.344,66.42,247.2,58.925,247.2,58.925s1.728-1.556,6.625,7.357S255.86,82.5,255.86,82.5s4.41-5.212,5.482-9.056c1.6-5.718,2-8.157,2-8.157s9.307,2.045,13.716,12.886c2.694,6.638-.179,11.944,1.786,19.165s9.886-3.585,13.566-11.2,3.814-19.5-5.364-25.762c-8.589-5.863-5.639-14.435-19.2-18.992C257.377,37.855,245.277,44.25,245.277,44.25Z" fill="#6d4735"/><path d="M231.643,86.669a10.207,10.207,0,0,0,7.446,4.991,10.048,10.048,0,0,0,8.365-3.08,10.167,10.167,0,0,0-7.44-4.986A10.05,10.05,0,0,0,231.643,86.669Z" fill="#fff"/><path d="M240.018,84.764a10.042,10.042,0,0,1,6.953,4.26c.161-.148.327-.288.484-.445a10.167,10.167,0,0,0-7.44-4.986,10.05,10.05,0,0,0-8.371,3.076c.154.25.324.488.494.726A9.944,9.944,0,0,1,240.018,84.764Z" fill="#0092ff"/><path d="M272.928,86.464a10.2,10.2,0,0,1-7.407,5.241,9.83,9.83,0,0,1-8.388-3.126,10.181,10.181,0,0,1,7.4-5.241A9.841,9.841,0,0,1,272.928,86.464Z" fill="#fff"/><path d="M264.537,84.558a9.979,9.979,0,0,0-6.912,4.478c-.165-.154-.336-.294-.492-.457a10.181,10.181,0,0,1,7.4-5.241,9.841,9.841,0,0,1,8.394,3.126c-.153.263-.322.508-.488.757A9.706,9.706,0,0,0,264.537,84.558Z" fill="#0092ff"/><circle cx="236.7" cy="87.997" r="2.162" transform="translate(-0.313 0.846) rotate(-0.205)" fill="#683b04"/><circle cx="236.032" cy="87.334" r="0.512" transform="translate(-0.504 1.374) rotate(-0.333)" fill="#fff"/><circle cx="262.216" cy="88.147" r="2.161" transform="translate(-0.335 1.003) rotate(-0.219)" fill="#683b04"/><circle cx="261.546" cy="87.486" r="0.512" transform="translate(-0.299 0.9) rotate(-0.197)" fill="#fff"/><path d="M256.61,102.081c0,.521-1.461.95-3.276.959s-3.28-.41-3.286-.93,1.474-.948,3.279-.953S256.609,101.562,256.61,102.081Z" fill="#f27d82"/><circle cx="233.842" cy="96.596" r="1.503" transform="translate(-0.415 1.012) rotate(-0.248)" fill="#f27d82"/><circle cx="237.84" cy="96.58" r="1.502" transform="translate(-0.303 0.751) rotate(-0.181)" fill="#f27d82"/><circle cx="242.018" cy="96.563" r="1.505" transform="translate(-0.415 1.047) rotate(-0.248)" fill="#f27d82"/><circle cx="235.764" cy="99.979" r="1.504" transform="matrix(1, -0.004, 0.004, 1, -0.434, 1.029)" fill="#f27d82"/><circle cx="239.943" cy="99.962" r="1.502" transform="translate(-0.394 0.952) rotate(-0.227)" fill="#f27d82"/><circle cx="265.476" cy="96.467" r="1.503" transform="matrix(1, -0.005, 0.005, 1, -0.526, 1.46)" fill="#f27d82"/><circle cx="269.473" cy="96.451" r="1.503" transform="translate(-0.419 1.177) rotate(-0.25)" fill="#f27d82"/><circle cx="273.652" cy="96.434" r="1.503" transform="translate(-0.38 1.085) rotate(-0.227)" fill="#f27d82"/><circle cx="267.399" cy="99.85" r="1.504" transform="translate(-0.548 1.481) rotate(-0.317)" fill="#f27d82"/><circle cx="271.576" cy="99.833" r="1.502" transform="translate(-0.433 1.187) rotate(-0.25)" fill="#f27d82"/><path d="M220.571,185.882c0,.928-3.335,32.3-3.083,35.106-.159.6.369,1.159.3,1.679-.326,2.416-.524,9.3-.612,16.032,32.3-.652,60.062-2.921,77.534-6,.133-4.739.169-9.014.1-11.293-.005-.182-5.913-.356-5.929-.533.016,0,5.261,0,5.274-.005.143-.715-3.829-34.147-3.829-34.984l.645-13.1,4.517-25.274c0-9.583-9.6-17.121-21.7-17.121H236.528c-12.1,0-21.765,7.538-21.765,17.121l4.517,24.962Z" fill="#8c2e78"/><path d="M288.05,134.151a1.758,1.758,0,0,0-2.433.509l-14.464,22.072a1.756,1.756,0,0,0,.509,2.433l31.265,20.489a1.763,1.763,0,0,0,2.435-.507l14.462-22.069a1.766,1.766,0,0,0-.509-2.441Z" fill="#8c2e78"/><path d="M221.986,134.151a1.758,1.758,0,0,1,2.433.509l14.462,22.072a1.753,1.753,0,0,1-.507,2.433l-31.265,20.489a1.762,1.762,0,0,1-2.435-.507l-14.462-22.069a1.761,1.761,0,0,1,.509-2.441Z" fill="#8c2e78"/><path d="M217.476,220.731s5.016-9.64,4.658-11.636c-.421-2.365-1.793-32.307-2.542-37.622-.281-2,7.3,38.8,8.021,46.064s-7.1,3.709-7.1,3.709" fill="#010100" opacity="0.1"/><path d="M289.365,171.4s-2.534,17.578-2.441,21.776-.64,15.873-1.747,18.61-1.063,3.389,0,5.749,2.035-2.451,1.066.79,2.443-3.044,2.443-3.044.491-14.989.993-21.133c.587-7.2,1.053-22.488,1.053-22.488Z" fill="#010100" opacity="0.1"/><path d="M304.947,218.712a2.23,2.23,0,0,1-2.23,2.233h-95.5a2.231,2.231,0,0,1-2.232-2.233V140.987a2.231,2.231,0,0,1,2.232-2.235h95.5a2.231,2.231,0,0,1,2.23,2.235Z" fill="#ededed"/><path d="M304.947,147.685v-6.7a2.231,2.231,0,0,0-2.23-2.235h-95.5a2.231,2.231,0,0,0-2.232,2.235v6.7Z" fill="#444"/><path d="M211.633,143.337a1.77,1.77,0,1,1-1.767-1.768A1.769,1.769,0,0,1,211.633,143.337Z" fill="#2cb740"/><path d="M217.016,143.337a1.766,1.766,0,1,1-1.77-1.768A1.767,1.767,0,0,1,217.016,143.337Z" fill="#f16442"/><path d="M301.259,143.23a1.768,1.768,0,0,1-1.765,1.77h-79.6a1.771,1.771,0,0,1-1.765-1.77h0a1.769,1.769,0,0,1,1.765-1.768h79.6a1.765,1.765,0,0,1,1.765,1.768Z" fill="#fff"/><path d="M223.755,152.21a1.146,1.146,0,0,0,1.144,1.146h76.162a1.146,1.146,0,0,0,1.146-1.146h0a1.14,1.14,0,0,0-1.146-1.141H224.9a1.14,1.14,0,0,0-1.144,1.141Z" fill="#444" opacity="0.2"/><path d="M221.258,152.21a1.668,1.668,0,0,1-1.666,1.666H209.4a1.668,1.668,0,0,1-1.669-1.666h0a1.666,1.666,0,0,1,1.669-1.663h10.194a1.665,1.665,0,0,1,1.666,1.663Z" fill="#444" opacity="0.2"/><rect x="204.985" y="156.356" width="99.963" height="27.135" fill="#0068ba"/><rect x="208.02" y="205.818" width="29.342" height="12.109" fill="#444" opacity="0.2"/><rect x="240.723" y="205.818" width="29.344" height="12.109" fill="#444" opacity="0.2"/><rect x="272.869" y="205.818" width="29.339" height="12.109" fill="#444" opacity="0.2"/><path d="M270.355,188.9a1.029,1.029,0,0,1-1.053,1H208.784a1.032,1.032,0,0,1-1.055-1h0a1.031,1.031,0,0,1,1.055-1H269.3a1.028,1.028,0,0,1,1.053,1Z" fill="#444"/><path d="M270.355,193.365a1.026,1.026,0,0,1-1.053,1H208.784a1.028,1.028,0,0,1-1.055-1h0a1.028,1.028,0,0,1,1.055-1H269.3a1.026,1.026,0,0,1,1.053,1Z" fill="#444"/><path d="M270.355,197.765a1.026,1.026,0,0,1-1.053,1H208.784a1.028,1.028,0,0,1-1.055-1h0a1.029,1.029,0,0,1,1.055-1H269.3a1.027,1.027,0,0,1,1.053,1Z" fill="#444"/><path d="M270.355,202.161a1.026,1.026,0,0,1-1.053,1H208.784a1.029,1.029,0,0,1-1.055-1h0a1.03,1.03,0,0,1,1.055-1H269.3a1.027,1.027,0,0,1,1.053,1Z" fill="#444"/><path d="M302.208,188.9a1.038,1.038,0,0,1-1.066,1H274.376a1.036,1.036,0,0,1-1.066-1h0a1.035,1.035,0,0,1,1.066-1h26.766a1.037,1.037,0,0,1,1.066,1Z" fill="#444"/><path d="M302.208,193.365a1.034,1.034,0,0,1-1.066,1H274.376a1.033,1.033,0,0,1-1.066-1h0a1.033,1.033,0,0,1,1.066-1h26.766a1.034,1.034,0,0,1,1.066,1Z" fill="#444"/><path d="M302.208,197.765a1.034,1.034,0,0,1-1.066,1H274.376a1.032,1.032,0,0,1-1.066-1h0a1.034,1.034,0,0,1,1.066-1h26.766a1.036,1.036,0,0,1,1.066,1Z" fill="#444"/><path d="M302.208,202.161a1.035,1.035,0,0,1-1.066,1H274.376a1.033,1.033,0,0,1-1.066-1h0a1.034,1.034,0,0,1,1.066-1h26.766a1.036,1.036,0,0,1,1.066,1Z" fill="#444"/><ellipse cx="222.416" cy="156.002" rx="0.038" ry="0.025" fill="#fcd22e"/><path d="M317.621,157.89l.673,1.523-11.374,17.36-1.383-3.109.06-15.3s4.559-6.381,5.4-6.259S317.621,157.89,317.621,157.89Z" fill="#8c2e78"/><path d="M250.349,209.7a2.2,2.2,0,0,1,1.917-2.416l13.245-1.5c-.012-.135-.019-.263-.027-.394l-9.458,1.06a2.143,2.143,0,0,1-2.342-1.96,2.2,2.2,0,0,1,1.917-2.416l11.778-1.314a2.042,2.042,0,0,1,.249,0l-1.468-.943a3.166,3.166,0,0,1-1.169-4.234,3,3,0,0,1,4.224-.772l8.877,5.7c.059.038.107.086.163.127a7.89,7.89,0,0,1,1.309.769c25.452-6.1,28.7-6.8,35.354-15.6,2.153-2.848-3.267-4.868-7.959-9.131-3.018-2.741.332-9.943-1.111-11.437l2.131-10.764c1.794,1.85,24.264,10.288,26.957,27.329,3,18.952-27.223,31.664-54.273,34.467a7.4,7.4,0,0,1-4.4,2.128l-5.841.619a5.418,5.418,0,0,1-.948.017l-10.053,1.128a2.023,2.023,0,0,1-2.2-1.845,2.07,2.07,0,0,1,1.8-2.275l7.424-.833c-.013-.1-.025-.2-.036-.295l-11.363,1.29a2.146,2.146,0,0,1-2.34-1.964,2.193,2.193,0,0,1,1.916-2.412l11.43-1.294c-.01-.116-.019-.229-.03-.345l-.005-.047-13.322,1.515A2.148,2.148,0,0,1,250.349,209.7Z" opacity="0.1"/><path d="M334.313,179.908c-2.693-17.041-24.037-22.846-25.832-24.7l.1,9.728c1.443,1.494-5.264,7.1-2.247,9.84,4.692,4.263,10.112,6.283,7.959,9.131-6.7,8.863-9.935,9.5-35.871,15.722l1.358,14.771C306.9,211.655,337.318,198.921,334.313,179.908Z" fill="#ffd69d"/><polygon points="292.905 211.744 291.663 199.762 277.153 201.407 278.393 213.392 292.905 211.744" fill="#ffd69d"/><path d="M275.636,216.5c4.426-.472,7.616-4.974,7.121-10.057s-4.479-8.82-8.909-8.344l-5.838.619c-4.428.475-3.108,4.495-2.614,9.575s-.031,9.3,4.4,8.827Z" fill="#ffd69d"/><path d="M255.4,204.55a2.142,2.142,0,0,1-2.342-1.96,2.2,2.2,0,0,1,1.917-2.416l11.778-1.314a2.147,2.147,0,0,1,2.344,1.957,2.195,2.195,0,0,1-1.921,2.414Z" fill="#ffd69d"/><path d="M252.069,209.764a2.148,2.148,0,0,1-2.342-1.96,2.2,2.2,0,0,1,1.917-2.416l15.575-1.769a2.135,2.135,0,0,1,2.338,1.956,2.192,2.192,0,0,1-1.914,2.417Z" fill="#ffd69d"/><path d="M254.421,214.311a2.146,2.146,0,0,1-2.34-1.964A2.192,2.192,0,0,1,254,209.935l14.438-1.635a2.148,2.148,0,0,1,2.342,1.96,2.2,2.2,0,0,1-1.921,2.411Z" fill="#ffd69d"/><path d="M258.794,218.268a2.023,2.023,0,0,1-2.2-1.845,2.07,2.07,0,0,1,1.8-2.275l11.366-1.276a2.027,2.027,0,0,1,2.206,1.844,2.068,2.068,0,0,1-1.807,2.275Z" fill="#ffd69d"/><path d="M265.537,197.916a3.166,3.166,0,0,1-1.169-4.234,3,3,0,0,1,4.224-.772l8.877,5.7a3.168,3.168,0,0,1,1.169,4.234,2.994,2.994,0,0,1-4.222.771Z" fill="#ffd69d"/><path d="M276.929,198.893c2.508,1.406,3.689,4.156,2.63,6.135s-3.948,2.454-6.461,1.047-3.686-4.154-2.634-6.139,3.956-2.453,6.466-1.043" fill="#ffd69d"/><path d="M267.875,192.122a2.2,2.2,0,0,0-2.573-1.7l-13.056,2.688c-.031-.132-.064-.256-.1-.383l9.319-1.933a2.143,2.143,0,0,0,1.617-2.591,2.2,2.2,0,0,0-2.573-1.7l-11.6,2.412a2.042,2.042,0,0,0-.237.076l1.1-1.353a3.166,3.166,0,0,0-.205-4.387,3,3,0,0,0-4.255.579l-6.664,8.18c-.044.054-.074.115-.115.172a7.89,7.89,0,0,0-1.005,1.138c-26.088,2.113-29.389,2.463-38.451-3.834-2.932-2.038,1.592-5.643,4.726-11.153,2.016-3.544-.248-10.112.659-11.98l-8.531-8.8c-1.13,2.316-19.863,17.321-17.126,34.355,3.045,18.944,35.718,21.632,62.3,15.887a7.4,7.4,0,0,0,4.848.654l5.744-1.227a5.418,5.418,0,0,0,.906-.278l9.906-2.053a2.023,2.023,0,0,0,1.52-2.438,2.07,2.07,0,0,0-2.422-1.6l-7.315,1.516c-.017-.1-.038-.194-.057-.291l11.2-2.306a2.146,2.146,0,0,0,1.614-2.594,2.193,2.193,0,0,0-2.571-1.7L253.214,197.8c-.026-.113-.053-.223-.079-.338l-.01-.046,13.133-2.7A2.148,2.148,0,0,0,267.875,192.122Z" opacity="0.1"/><path d="M178.808,189.9c-2.738-17.034,16-32.039,17.126-34.355l8.53,8.8c-.907,1.869,1.356,8.437-.659,11.98-3.134,5.51-7.658,9.115-4.726,11.153,9.124,6.341,12.4,5.943,38.981,3.791l3.3,14.462C214.736,211.554,181.862,208.908,178.808,189.9Z" fill="#ffd69d"/><polygon points="228.061 207.289 225.517 195.515 239.82 192.567 242.367 204.344 228.061 207.289" fill="#ffd69d"/><path d="M245.954,206.444c-4.354.928-8.785-2.36-9.895-7.345s1.515-9.775,5.874-10.7l5.741-1.227c4.356-.925,4.351,3.306,5.461,8.288s2.922,8.832-1.437,9.757Z" fill="#ffd69d"/><path d="M261.468,188.793a2.142,2.142,0,0,0,1.617-2.591,2.2,2.2,0,0,0-2.573-1.7l-11.6,2.412a2.147,2.147,0,0,0-1.619,2.589,2.195,2.195,0,0,0,2.576,1.7Z" fill="#ffd69d"/><path d="M266.258,192.713a2.148,2.148,0,0,0,1.617-2.591,2.2,2.2,0,0,0-2.573-1.7l-15.353,3.161a2.135,2.135,0,0,0-1.614,2.586,2.192,2.192,0,0,0,2.57,1.7Z" fill="#ffd69d"/><path d="M265.437,197.766a2.146,2.146,0,0,0,1.614-2.594,2.192,2.192,0,0,0-2.57-1.7l-14.23,2.935A2.148,2.148,0,0,0,248.633,199a2.2,2.2,0,0,0,2.576,1.695Z" fill="#ffd69d"/><path d="M262.51,202.886a2.023,2.023,0,0,0,1.52-2.438,2.07,2.07,0,0,0-2.422-1.6l-11.2,2.321a2.027,2.027,0,0,0-1.523,2.438,2.068,2.068,0,0,0,2.425,1.6Z" fill="#ffd69d"/><path d="M249.774,185.638a3.166,3.166,0,0,0-.205-4.387,3,3,0,0,0-4.255.579l-6.664,8.18a3.168,3.168,0,0,0,.205,4.387,2.994,2.994,0,0,0,4.252-.58Z" fill="#ffd69d"/><path d="M239.25,190.109c-1.947,2.116-2.214,5.1-.593,6.648s4.515,1.1,6.467-1.014,2.212-5.094.6-6.654-4.523-1.1-6.469,1.019" fill="#ffd69d"/><path d="M204.985,145.291l-14.264,9.346a1.762,1.762,0,0,0-.51,2.441l14.462,22.069a1.727,1.727,0,0,0,.312.349Z" fill="#8c2e78"/><path d="M241.263,127.26V130c0,3.208,5.658,6,12.637,6s12.637-2.792,12.637-6h.018v-2.74Z" fill="#ffd69d"/><path d="M235.016,164.788l.3-.157,6.118-3.183a.881.881,0,0,0-.921-.679l-5.619.438a.838.838,0,0,0-.77.919l.078.793a.817.817,0,0,1-.726.915l-.811.063,1.231,12.435,1.084-11.205Z" fill="#fff"/><path d="M241.248,168.107h-1.485V169.9h1.485a.9.9,0,1,0,0-1.794Z" fill="#fff"/><path d="M248.337,158.518l-12.718,6.616-1.365,14.106,12.666-.994,7.122-.559,4.553-.358,1.365-14.105Zm-5.944,14.993-1.45-2.362h-1.18v2.362h-1.416v-6.649h3.11A2.07,2.07,0,0,1,243.691,169a1.815,1.815,0,0,1-1.311,1.975l1.638,2.532Zm7.216-5.4h-3.29v1.405h2.934v1.246h-2.934v1.506h3.29v1.246H244.9v-6.649h4.707Zm7.159,4.277a3.689,3.689,0,0,1-2.831,1.256,3.446,3.446,0,1,1,0-6.89,3.111,3.111,0,0,1,2.752,1.486l-1.177.639a1.88,1.88,0,0,0-1.574-.868,2.186,2.186,0,0,0,0,4.368,2.241,2.241,0,0,0,1.415-.509v-.711H253.6V169.9h3.17Z" fill="#fff"/><path d="M260.219,172.813a.808.808,0,1,1,.808.808A.818.818,0,0,1,260.219,172.813Z" fill="#fff"/><path d="M267.007,173.51l-1.593-2.362h-1.037v2.362h-1.416v-6.649h3.111A2.071,2.071,0,0,1,268.306,169a1.91,1.91,0,0,1-1.456,1.975l1.782,2.532ZM266.86,169a.9.9,0,0,0-1-.9h-1.485V169.9h1.485A.9.9,0,0,0,266.86,169Z" fill="#fff"/><path d="M269.373,170.859v-4h1.436v3.948c0,.927.4,1.566,1.422,1.566s1.413-.639,1.413-1.566v-3.948h1.446v3.987a2.86,2.86,0,0,1-5.717.011Z" fill="#fff"/><path d="M319.315,154.638l-14.368-9.415v34.358a1.741,1.741,0,0,0,.416-.434l14.462-22.069A1.766,1.766,0,0,0,319.315,154.638Z" fill="#8c2e78"/></svg>