<svg xmlns="http://www.w3.org/2000/svg" width="131.03" height="111.088" viewBox="0 0 131.03 111.088"><path fill="#60C0AF" d="M131.03 100.367c0 5.87-4.76 10.626-10.625 10.626H10.625c-5.867 0-6.8-4.755-6.8-10.626v-89.74C3.825 4.763 4.76 0 10.625 0h109.78c5.864 0 10.624 4.762 10.624 10.628v89.74z"/><path fill="#4C4C4C" d="M43.29 105.368H10.624c-2.757 0-5-2.24-5-5v-89.74a5.004 5.004 0 0 1 5-4.996H43.29V0H10.624C4.76 0 0 4.762 0 10.628v89.74c0 5.868 4.76 10.625 10.61 10.648h24.55l8.13-5.648z"/><path fill="#F2D9AD" d="M71.433 110.993l-59.686.024L41.695 59.24z"/><path fill="#282828" d="M36.306 111.008l-25.063.01 12.705-21.36z"/><path fill="#FFCC01" d="M127.125 10.095l3.905 6.79V76.69l-59.702 34.303L41.59 59.24z"/><path opacity=".1" fill="#020000" d="M131.03 56.322V76.69l-59.862 34.398-8.602-15.338z"/><path opacity=".1" fill="#FFF" d="M127.125 10.095l3.905 6.797v11.235L50.352 74.49l-8.76-15.246z"/><path fill="#F2D9AD" d="M50.27 74.455c1.164-2.396.82-6.085-1.142-9.483-1.96-3.395-4.982-5.536-7.645-5.728l8.787 15.21zM71.264 111.017c1.176-2.415.828-6.126-1.15-9.547-1.975-3.42-5.014-5.578-7.694-5.764l8.844 15.31z"/><path fill="#F2D9AD" d="M62.497 95.973c1.976-3.604 1.69-8.992-1.11-13.838-2.8-4.85-7.33-7.788-11.433-7.88l12.543 21.718z"/><path fill="#4C4C4C" d="M120.404 0H10.624C4.76 0 0 4.762 0 10.628V24.95h131.03V10.63C131.03 4.762 126.27 0 120.404 0z"/><path fill="#FF5955" d="M17.967 12.626a5.11 5.11 0 0 1-5.115 5.104 5.106 5.106 0 0 1-5.113-5.104 5.114 5.114 0 1 1 10.228 0z"/><path fill="#43CEFF" d="M32.796 12.626a5.11 5.11 0 0 1-5.114 5.104 5.108 5.108 0 0 1-5.113-5.104 5.115 5.115 0 1 1 10.226 0z"/><path fill="#FFF" d="M123.29 13.217c0 2.535-2 4.596-4.464 4.596H41.8c-2.464 0-4.464-2.06-4.464-4.596 0-2.54 1.998-4.6 4.463-4.6h77.026c2.463 0 4.464 2.06 4.464 4.6z"/><path opacity=".1" fill="#020000" d="M120.404 0h-68.4l22.46 110.993h45.94c5.865 0 10.625-4.755 10.625-10.626v-89.74C131.03 4.763 126.27 0 120.403 0zM70.114 101.47c-1.94-3.36-4.913-5.492-7.56-5.74L11.642 110.87l59.624.146c1.176-2.416.828-6.127-1.15-9.548z"/></svg>