<svg xmlns="http://www.w3.org/2000/svg" width="135.683" height="136.415" viewBox="0 0 135.683 136.415"><path fill="#293E4C" d="M135.683 124.542a7.446 7.446 0 0 1-7.454 7.444H7.443A7.444 7.444 0 0 1 0 124.542a7.442 7.442 0 0 1 7.444-7.447H128.23a7.44 7.44 0 0 1 7.453 7.447z"/><path fill="#5CD5FF" d="M101.233 130.974a5.44 5.44 0 0 1-5.437 5.44H39.883a5.436 5.436 0 0 1-5.434-5.44v-12.87c0-3 2.426-5.433 5.433-5.433h55.914c3 0 5.437 2.433 5.437 5.433v12.87z"/><path fill="#5CD5FF" d="M74.28 96.845a5.438 5.438 0 0 1 5.434 5.437v23.298c0 3-2.436 5.437-5.434 5.437H61.4c-3 0-5.436-2.43-5.436-5.437v-23.298a5.437 5.437 0 0 1 5.437-5.437h12.88z"/><path opacity=".1" d="M55.965 96.845h23.75V108.5h-23.75z"/><path fill="#4494C1" d="M135.586 90.76c0 7.023-5.69 12.71-12.708 12.71H12.848C5.826 103.47.14 97.784.14 90.76V12.714C.14 5.692 5.826 0 12.85 0h110.027c7.02 0 12.708 5.692 12.708 12.714V90.76h.003z"/><path fill="#293E4C" d="M127.13 81.59c0 7.345-5.964 13.305-13.313 13.305H20.34c-7.345 0-13.307-5.95-13.307-13.304 0-7.35 5.962-13.302 13.307-13.302h93.476c7.347 0 13.313 5.952 13.313 13.303zM127.13 51.873c0 7.35-5.964 13.304-13.313 13.304H20.34c-7.345 0-13.307-5.953-13.307-13.304 0-7.348 5.962-13.306 13.307-13.306h93.476c7.347-.003 13.313 5.958 13.313 13.306zM127.13 22.153c0 7.348-5.964 13.304-13.313 13.304H20.34c-7.345 0-13.307-5.956-13.307-13.304 0-7.35 5.962-13.31 13.307-13.31h93.476c7.347.007 13.313 5.962 13.313 13.31z"/><path fill="#FF5955" d="M20.44 15.95a6.202 6.202 0 0 1 0 12.402 6.202 6.202 0 0 1 0-12.402z"/><path fill="#5CD5FF" d="M20.44 45.888a6.203 6.203 0 0 1 0 12.404 6.203 6.203 0 0 1 0-12.404z"/><circle fill="#5CD5FF" cx="20.439" cy="81.736" r="6.2"/><g fill="#FFF"><path d="M114.163 18.296c0 1.175-.68 2.13-1.515 2.13H38.124c-.834 0-1.514-.955-1.514-2.13 0-1.176.68-2.13 1.514-2.13h74.525c.832 0 1.513.957 1.513 2.13zM114.163 26.01c0 1.174-.68 2.132-1.515 2.132H38.124c-.834 0-1.514-.958-1.514-2.13 0-1.176.68-2.132 1.514-2.132h74.525c.832 0 1.513.956 1.513 2.13z"/></g><g fill="#FFF"><path d="M114.163 48.017c0 1.178-.68 2.13-1.515 2.13H38.124c-.834 0-1.514-.952-1.514-2.13 0-1.18.68-2.135 1.514-2.135h74.525c.832 0 1.513.955 1.513 2.135zM114.163 55.73c0 1.173-.68 2.128-1.515 2.128H38.124c-.834 0-1.514-.954-1.514-2.128 0-1.18.68-2.136 1.514-2.136h74.525c.832 0 1.513.958 1.513 2.136z"/></g><g fill="#FFF"><path d="M114.163 77.73c0 1.183-.68 2.136-1.515 2.136H38.124c-.834 0-1.514-.953-1.514-2.135 0-1.175.68-2.13 1.514-2.13h74.525c.832.004 1.513.958 1.513 2.13zM114.163 85.45c0 1.172-.68 2.13-1.515 2.13H38.124c-.834 0-1.514-.952-1.514-2.13 0-1.175.68-2.138 1.514-2.138h74.525c.832.007 1.513.963 1.513 2.138z"/></g><path opacity=".1" d="M135.586 90.76c0 7.023-5.69 12.71-12.708 12.71H12.848L122.876 0c7.02 0 12.708 5.692 12.708 12.714V90.76h.003z"/></svg>