<svg xmlns="http://www.w3.org/2000/svg" width="142.311" height="142.314" viewBox="0 0 142.311 142.314"><path fill="#98D7FA" d="M142.31 71.157c0 39.3-31.853 71.157-71.15 71.157C31.863 142.314 0 110.456 0 71.157 0 31.857 31.862 0 71.16 0c39.296 0 71.15 31.858 71.15 71.157z"/><path fill-rule="evenodd" clip-rule="evenodd" fill="#5FA642" d="M25.228 85.063c-.39-.16-.936-.272-1.298-.317-.477-.058-.83-.073-1.158 0-.966.283-1.033 1.297 1.594 2.877.705.938 1.982 1.793 3.192 1.324.704-1.996-.76-3.207-2.33-3.75 0-.134.013-.093 0-.134zM36.23 64.913c.113.102.187.266.29.285h.15c.708.202 1.397-.515.858-.562-.21-.037-.62.017-1.3.277zM52.708 58.7c-1.125.19-1.396.943 1.024 2.607.3-.08 2.385-.55 1.16.71 3.764-2.243-.262-3.662-2.184-3.317zM52.708 42.625c4.053-1.647 4.986-12.313.162-12-.31 0-.624.158-1.02.304 2.02 3.72-2.64 8.46.858 11.695zM99.2 51.463c.32-2.228-3.216-3.865-4.81-3.774-.928.064-1.11.727.606 2.33-1.604 3.785 2.67 3.988 4.205 1.443zM62.994 23.694c1.168-.545 1.727-2.482 0-2.482-.313-.085-.548-.166-.86-.15-.313.01-.625.12-.854.15-3.416.678-2.376 6.343 1.714 2.482z"/><path fill-rule="evenodd" clip-rule="evenodd" fill="#5FA642" d="M67.778 22.367c-4.94.627-9.927 5.403-5.332 10.125 3.294 4.11-4.75 12.497 2.883 14.65 3.028-6.782 11.318-12.15 9.27-20.412-.858-3.526-3.84-4.736-6.822-4.363z"/><path fill="#5FA642" d="M59.25 120.214c-7.317-4.86-12.614-12.296-20.855-15.923-6.71-6.507-21.83-2.46-21.557-14.774.7-5.848-3.996-8.67-7.517-11.417-2.707-9.05 13.797-12.38 14.036-2.468 5.435-.285 7.34-9.765 13.613-11.13 3.23-2.805 11.974.21 8.81-5.518 3.128-2.97 12.3-2.87 7.814-9.822-1.506-6.775-9.833-10.05-12.575-2.333-7.54 2.02-4.5-14.338 3.17-12.157 5.563.32 4.804-4.512 1.437-6.067 0-.24-.076-.37-.287-.16-.616-.227-1.263-.467-2.023-.43-7.52-4.154 7.526-14.75-2.44-18.105-10.938 9.343-27.62 24.044-34.3 37.78-3.014 8.616-2.51 17.287-2.162 26.345 3.06 8.773 9.01 16.006 13.745 23.868 3.032 3.8 1.574 8.167 1.342 12.32-.08.032.038.13.038.15-.157 2.517.24 4.916 2.368 7.08 3.706 4.776 9.098 8.566 11.73 14.073a70.512 70.512 0 0 0 19.427 8.378c.753-.34 2.286-.792 7.782-1.312v-.152c0-1.643 7.598-4.05 11.353-6.832 6.246-7.55-6.676-13.58-12.95-11.394zM125.38 117.175c10.542-12.414 16.93-28.457 16.93-46.018 0-1.96-.134-3.89-.292-5.813-.052-.48-.087-.965-.143-1.44-4.064 2.225-11.297-10.016-3.9-4.196 1.444-.1 2.355-.514 3.04-1.14-.855-4.458-2.01-8.78-3.636-12.9-.73-.862-1.427-1.672-2.023-2.158.05-.893-.04-1.748-.145-2.605-.036-.044.043-.11 0-.153C123.612 16.88 99.13.396 70.818.396c-1.932 0-3.893.116-5.8.275-.99.212-2.082.342-3.197.44-.38.037-.76.085-1.137.148-3.995.56-7.813 1.26-11.563 2.447 9.784-.72 19.827-.46 28.648 3.918 2.333 7.493 16.295.144 15.623 8.52.112.123.322.315.442.455-.22.164.162 1.688.444.413 2.41 2.732 7.492 8.397 2.16 7.69-7.068-.97-5.23 12.953-.14 15.482 4.85 2.607 7.577-2.632 2.596-5.208-.675-6.527 10.878 4.01 5.78 7.5-.202.143-.366.308-.564.45.233-.935-.335-.05-.318.16-5.796 4.2-2.49 14.096-4.744 20.687-4.015 8.913 10.04 4.985 7.942-2.028-2.57-6.456 10.69-3.514 7.823-8.103 8.04 4.262 7.282-7.192 3.923-11.017 1.567-6.122 5.7.72 3.742 4.053.32 3.156 3.042 3.882 5.225 4.785.098.075.21.085.43.133 1.906.912 3.05 2.083.99 5.666-2.36 7.965-10.372 8.405-16.916 6.932-6.622 2.742-7.852 10.787-11.587 16.203-3.704 6.765-6.785 16.733-.133 22.72 6.368 6.113 13.687.806 18.964-3.33 10.12-1.314 11.047 10.602 6.07 16.67-.056.28-.1.49-.138.72z"/><path opacity=".3" d="M116.85 41.67H81.586V29.854c0-.896-.73-1.624-1.626-1.624H63.167c-.896 0-1.625.73-1.625 1.624V41.67H25.464c-4.972 0-9.007 4.035-9.007 9.005v51.25c0 4.976 4.036 9.002 9.007 9.002h91.385c4.97 0 9-4.027 9-9.002v-51.25c0-4.97-4.028-9.005-9-9.005zm-33.163 7.056a3.832 3.832 0 0 1 0 7.663h-2.1v-7.634l1.54-.03h.56zm-25.066 0h2.922v7.663h-2.92a3.832 3.832 0 1 1 0-7.663z"/><g><path fill="#FF5148" d="M116.85 37.32H25.464c-4.972 0-9.007 4.036-9.007 9.008v51.248c0 4.978 4.036 9.006 9.007 9.006h91.385a9 9 0 0 0 9-9.006V46.33c0-4.974-4.028-9.01-9-9.01zM83.687 52.042H58.62a3.832 3.832 0 0 1 0-7.664h25.067a3.832 3.832 0 0 1 0 7.662z"/><path fill="#EFEFEF" d="M119.05 91.357c0 4.972-4.036 9.003-9.01 9.003H32.268c-4.974 0-9.006-4.032-9.006-9.003V68.382c0-4.972 4.033-9.003 9.007-9.003h77.774c4.975 0 9.01 4.03 9.01 9.002v22.975z"/><path fill="#29353F" d="M52.338 69.536c-1.07-.278-2.183.347-2.485 1.395l-3.16 11.02-3.16-11.02c-.258-.897-1.118-1.444-2.03-1.42-.917-.024-1.776.523-2.034 1.42l-3.163 11.02-3.16-11.02c-.297-1.047-1.412-1.672-2.48-1.394-1.072.28-1.7 1.356-1.397 2.404l5.006 17.45c.257.902 1.118 1.45 2.032 1.418.916.032 1.775-.516 2.035-1.417l3.16-11.017 3.162 11.018c.257.902 1.115 1.45 2.03 1.418.915.032 1.773-.516 2.035-1.417l5.002-17.45c.302-1.047-.32-2.123-1.394-2.404zM82.4 69.536c-1.07-.278-2.18.347-2.483 1.395L76.76 81.95l-3.165-11.02c-.26-.897-1.117-1.444-2.032-1.42-.917-.024-1.773.523-2.034 1.42l-3.16 11.02-3.163-11.02c-.3-1.047-1.41-1.672-2.482-1.394-1.072.28-1.693 1.356-1.395 2.404l5.005 17.45c.257.902 1.12 1.45 2.034 1.418.914.032 1.773-.516 2.033-1.417l3.16-11.017 3.16 11.018c.258.902 1.117 1.45 2.035 1.418.914.032 1.773-.516 2.03-1.417l5.004-17.45c.304-1.047-.32-2.123-1.39-2.404zM111.648 69.536c-1.075-.278-2.188.347-2.487 1.395l-3.156 11.02-3.164-11.02c-.26-.897-1.117-1.444-2.034-1.42-.916-.024-1.773.523-2.03 1.42l-3.162 11.02-3.16-11.02c-.3-1.047-1.416-1.672-2.483-1.394-1.07.28-1.694 1.356-1.395 2.404l5.006 17.45c.258.902 1.118 1.45 2.034 1.418.913.032 1.775-.516 2.032-1.417l3.16-11.017 3.163 11.018c.254.902 1.116 1.45 2.034 1.418.91.032 1.772-.516 2.03-1.417l5.005-17.45c.3-1.047-.325-2.123-1.392-2.404z"/><path opacity=".4" d="M80.1 44.436l3.028-.058 1.676-7.058-5.86.03z"/><path fill="#29353F" d="M81.586 52.05V25.51c0-.897-.73-1.626-1.626-1.626H63.167c-.896 0-1.625.73-1.625 1.625v26.54h20.044z"/><path opacity=".1" fill="#FFF" d="M80.55 25.885c0 .46-.372.833-.833.833h-16.36a.836.836 0 0 1 0-1.672h16.36c.46 0 .833.375.833.84z"/><path opacity=".1" d="M116.85 37.32l-91.385 69.262h91.385a9 9 0 0 0 9-9.006V46.33c0-4.974-4.028-9.01-9-9.01z"/></g></svg>