<svg xmlns="http://www.w3.org/2000/svg" width="180.676" height="178.859" viewBox="0 0 180.676 178.859"><path fill="#F01149" d="M180.676 89.43l-6.858 12.008 3.22 13.45-9.973 9.58-.722 13.81-12.273 6.375-4.573 13.05-13.567 2.68-8.055 11.24-13.77-1.26-10.91 8.496-12.857-5.102-12.857 5.1-10.91-8.495-13.77 1.26-8.056-11.24-13.567-2.68-4.573-13.052-12.272-6.374-.723-13.81-9.972-9.58 3.22-13.448L0 89.43l6.858-12.01-3.22-13.448 9.972-9.58.723-13.81 12.272-6.375 4.574-13.05 13.566-2.68L52.8 7.237l13.77 1.26L77.483 0l12.856 5.102L103.194 0l10.91 8.496 13.772-1.26 8.056 11.242 13.567 2.68 4.572 13.05 12.272 6.375.722 13.81 9.972 9.58-3.22 13.448z"/><path fill="#FFF" d="M128.17 122.946V90.454h14.263c6.63 0 10.24 4.48 10.24 9.83 0 5.302-3.657 9.828-10.24 9.828h-7.77v12.834h-6.493zm17.875-22.663c0-2.56-1.92-4.114-4.48-4.114h-6.903v8.228h6.903c2.56 0 4.48-1.6 4.48-4.115z"/><path fill="#FFF" d="M124.562 104.502h10v5.375h-10zM124.562 112.377h21v5.375h-21z"/><g fill="#FFF"><path d="M30.553 75.145v-20.12H41.14c3.832 0 5.793 2.442 5.793 5.127 0 2.534-1.57 4.223-3.47 4.615 2.143.332 3.862 2.414 3.862 4.947 0 3.017-2.02 5.43-5.853 5.43h-10.92zm12.006-14.24c0-1.266-.906-2.2-2.354-2.2h-5.37v4.374h5.37c1.448 0 2.353-.907 2.353-2.174zm.392 8.207c0-1.267-.905-2.353-2.595-2.353h-5.52v4.675h5.52c1.63 0 2.595-.875 2.595-2.323zM49.527 67.845c0-4.465 3.228-7.632 7.723-7.632 2.986 0 4.796 1.297 5.762 2.625l-2.504 2.353c-.694-1.024-1.75-1.567-3.077-1.567-2.322 0-3.95 1.69-3.95 4.223s1.628 4.253 3.95 4.253c1.328 0 2.384-.605 3.078-1.57l2.504 2.323c-.965 1.357-2.775 2.654-5.762 2.654-4.495 0-7.723-3.168-7.723-7.662zM64.58 67.845c0-4.223 3.107-7.632 7.542-7.632 4.344 0 7.3 3.258 7.3 8.024v.845h-10.83c.24 1.84 1.72 3.378 4.193 3.378 1.237 0 2.956-.543 3.89-1.448l1.69 2.474c-1.448 1.327-3.74 2.02-6.003 2.02-4.433 0-7.782-2.985-7.782-7.66zm7.542-4.586c-2.383 0-3.41 1.78-3.59 3.227h7.18c-.09-1.387-1.056-3.228-3.59-3.228zM93.45 63.923h-7.422v11.222h-3.83v-14.57h11.25v3.348zM94.957 67.845c0-4.133 2.896-7.632 7.692-7.632 4.826 0 7.722 3.5 7.722 7.632 0 4.163-2.896 7.662-7.723 7.662-4.797 0-7.693-3.5-7.693-7.662zm11.433 0c0-2.263-1.357-4.223-3.74-4.223s-3.71 1.96-3.71 4.223c0 2.292 1.326 4.253 3.71 4.253s3.74-1.96 3.74-4.253zM119.452 73.184l1.75-2.383c1.357 1.147 3.288 1.66 5.038 1.66 1.96 0 3.017-.633 3.017-1.568 0-1.116-1.267-1.63-3.258-1.63h-2.987v-2.956H126c1.99 0 2.986-.543 2.986-1.57 0-.874-1.207-1.477-2.926-1.477-1.9 0-3.378.542-4.525 1.658l-1.87-2.262c1.417-1.418 3.53-2.414 6.184-2.414 4.554-.03 7.118 1.508 7.118 3.982 0 1.87-1.87 3.137-3.8 3.44 1.78.12 4.102 1.266 4.102 3.468 0 2.564-2.685 4.374-7.03 4.374-3.017 0-5.37-.934-6.788-2.322zM144.882 75.145v-1.508c-.996 1.176-2.715 1.87-4.616 1.87-2.323 0-5.068-1.568-5.068-4.827 0-3.41 2.745-4.706 5.068-4.706 1.93 0 3.65.634 4.616 1.78v-1.96c0-1.48-1.267-2.444-3.198-2.444-1.57 0-3.017.573-4.253 1.72l-1.447-2.565c1.78-1.57 4.073-2.293 6.365-2.293 3.318 0 6.365 1.328 6.365 5.52v9.413h-3.83zm0-3.5v-1.81c-.634-.843-1.84-1.266-3.077-1.266-1.508 0-2.745.783-2.745 2.2 0 1.358 1.237 2.143 2.745 2.143 1.237 0 2.443-.423 3.077-1.267z"/></g><g fill="#FFF"><path d="M28.002 118.86l3.932-4.93c2.24 2.34 5.326 3.634 8.81 3.634 3.932 0 6.172-2.24 6.172-4.928 0-2.937-2.19-4.927-5.973-4.927-2.738 0-4.978.795-6.97 2.687l-4.926-1.294V90.04h22.796v6.222H36.115v8.113c1.593-1.593 4.28-2.788 7.317-2.788 5.624 0 10.65 4.032 10.65 10.75 0 7.07-5.275 11.5-13.29 11.5-5.772 0-9.953-1.892-12.79-4.978zM59.16 120.352l3.136-5.426c1.792 1.692 3.683 2.588 6.62 2.588 5.475 0 8.312-4.58 8.312-9.357v-.747c-1.593 2.24-4.928 4.28-8.56 4.28-5.974 0-11.35-3.733-11.35-10.8 0-6.472 5.177-11.4 12.742-11.4 10.054 0 14.285 7.766 14.285 17.173 0 10.004-5.625 17.122-15.43 17.122-4.03 0-7.415-1.343-9.755-3.433zm18.018-17.82c-.298-3.185-2.09-6.77-6.77-6.77-3.782 0-5.873 2.59-5.873 4.88 0 3.483 3.036 4.977 6.122 4.977a8.516 8.516 0 0 0 6.52-3.087zM87.78 106.664c0-8.56 4.23-17.123 13.738-17.123 9.457 0 13.737 8.563 13.737 17.124s-4.28 17.172-13.737 17.172c-9.507 0-13.738-8.61-13.738-17.172zm20.258 0c0-6.123-1.792-10.85-6.52-10.85-4.778 0-6.57 4.728-6.57 10.85s1.792 10.9 6.57 10.9c4.728 0 6.52-4.778 6.52-10.9z"/></g></svg>