<svg xmlns="http://www.w3.org/2000/svg" width="61.162" height="53.821" viewBox="0 0 61.162 53.821"><g fill="#FFF"><path d="M19.02 26.91a7.895 7.895 0 0 0 15.788 0 7.894 7.894 0 0 0-7.896-7.892 7.892 7.892 0 0 0-7.892 7.893zm12.308 0a4.416 4.416 0 0 1-8.83 0 4.417 4.417 0 0 1 8.83 0z"/><path d="M60.756 25.462L51.173 8.546h-.023a2.292 2.292 0 0 0-2.03-1.24 2.293 2.293 0 0 0-2.063 1.283h-.006L37.28 25.4a2.28 2.28 0 0 0-.424 1.32 2.306 2.306 0 0 0 2.303 2.31l5.48.014c-1.825 10.918-10.733 18.042-21.87 18.974a1.465 1.465 0 0 1-.332-.946l-.175-2.298a17.97 17.97 0 0 1-4.357-1.8l-1.76 1.492c-.52.526-1.274.623-1.674.224L9.59 39.813c-.402-.402-.303-1.154.222-1.678l1.498-1.75a17.905 17.905 0 0 1-1.804-4.354l-2.302-.184c-.74 0-1.342-.463-1.342-1.03v-6.895c0-.567.6-1.026 1.342-1.026l2.302-.182a17.89 17.89 0 0 1 1.8-4.354L9.814 16.6c-.524-.523-.624-1.275-.222-1.678l4.878-4.876c.4-.4 1.152-.302 1.674.224l1.752 1.497a18.005 18.005 0 0 1 4.355-1.803l.184-2.3c0-.743.462-1.345 1.03-1.345h6.896c.566 0 1.027.6 1.027 1.344l.18 2.298a18.034 18.034 0 0 1 4.36 1.803l1.75-1.495c.525-.525 1.276-.624 1.68-.224l2.212 2.212 3.425-5.268A26.804 26.804 0 0 0 26.912 0C12.05 0 0 12.05 0 26.91c0 6.73 2.477 12.876 6.558 17.595 5.882 6.377 13.528 9.316 20.354 9.316 14.138 0 25.722-10.903 26.818-24.76l5.12.012a2.31 2.31 0 0 0 2.31-2.304c.002-.484-.148-.934-.404-1.306z"/></g></svg>