<svg xmlns="http://www.w3.org/2000/svg" width="56.629" height="47.969" viewBox="0 0 56.629 47.969"><path fill="#FFF" d="M52.036 0H4.592A4.59 4.59 0 0 0 0 4.592V43.377a4.592 4.592 0 0 0 4.592 4.592h47.444a4.594 4.594 0 0 0 4.593-4.593V4.592A4.593 4.593 0 0 0 52.035 0zM11.963 3.242a2.208 2.208 0 0 1 0 4.418 2.21 2.21 0 1 1 0-4.418zM3.346 5.455a2.21 2.21 0 1 1 4.418-.008 2.21 2.21 0 0 1-4.418.008zm48.66 24.016H34.91l-3.145 9.663-1.205 3.74-.824-3.814-.166-.82-.015.005-3.247-16.08-2.334 7.166v.097H5.37V27.3h17.032l3.145-9.667 1.207-3.74.824 3.812.166.818.014-.002 3.248 16.08 2.357-7.245.035.012v-.022h18.606v2.126zm-.652-21.775h-33.29c-1.066 0-1.93-.89-1.93-1.984 0-1.1.863-1.987 1.93-1.987h33.29c1.065 0 1.93.89 1.93 1.988 0 1.097-.864 1.985-1.93 1.985z"/></svg>