<svg baseProfile="basic" xmlns="http://www.w3.org/2000/svg" width="46" height="51" viewBox="0 0 46 51"><g fill="#FFF"><path d="M34.2 49.2c0 1-.8 1.8-1.8 1.8H14.2c-1 0-1.8-.8-1.8-1.8V45c0-1 .8-1.8 1.8-1.8h18.2c1 0 1.8.8 1.8 1.8v4.2z"/><path d="M25.4 38.1c1 0 1.8.8 1.8 1.8v7.6c0 1-.8 1.8-1.8 1.8h-4.2c-1 0-1.8-.8-1.8-1.8v-7.6c0-1 .8-1.8 1.8-1.8h4.2zM40.9 25.3H5.1c-2.8 0-5.1 2.3-5.1 5.1s2.3 5.1 5.1 5.1h35.8c2.8 0 5.1-2.3 5.1-5.1s-2.3-5.1-5.1-5.1zM5.1 32.9c-1.3 0-2.4-1.1-2.4-2.4 0-1.3 1.1-2.4 2.4-2.4 1.3 0 2.4 1.1 2.4 2.4 0 1.3-1.1 2.4-2.4 2.4zm35.4-.2H11.9c-.3 0-.6-.4-.6-.8 0-.5.3-.8.6-.8h28.5c.3 0 .6.4.6.8 0 .5-.2.8-.5.8zm0-2.9H11.9c-.3 0-.6-.4-.6-.8 0-.5.3-.8.6-.8h28.5c.3 0 .6.4.6.8s-.2.8-.5.8zM40.9 12.4H5.1c-2.8 0-5.1 2.3-5.1 5.1s2.3 5.1 5.1 5.1h35.8c2.8 0 5.1-2.3 5.1-5.1s-2.3-5.1-5.1-5.1zM5.1 19.9c-1.3 0-2.4-1.1-2.4-2.4 0-1.3 1.1-2.4 2.4-2.4 1.3 0 2.4 1.1 2.4 2.4 0 1.4-1.1 2.4-2.4 2.4zm35.4-.1H11.9c-.3 0-.6-.4-.6-.8 0-.5.3-.8.6-.8h28.5c.3 0 .6.4.6.8s-.2.8-.5.8zm0-3H11.9c-.3 0-.6-.4-.6-.8 0-.5.3-.8.6-.8h28.5c.3 0 .6.4.6.8 0 .5-.2.8-.5.8zM40.9 0H5.1C2.3 0 0 2.3 0 5.1s2.3 5.1 5.1 5.1h35.8c2.8 0 5.1-2.3 5.1-5.1S43.7 0 40.9 0zM5.1 7.5c-1.3 0-2.4-1.1-2.4-2.4 0-1.3 1.1-2.4 2.4-2.4 1.3 0 2.4 1.1 2.4 2.4 0 1.4-1.1 2.4-2.4 2.4zm35.4-.1H11.9c-.3 0-.6-.4-.6-.8s.3-.8.6-.8h28.5c.3 0 .6.4.6.8s-.2.8-.5.8zm0-3H11.9c-.3 0-.6-.4-.6-.8 0-.5.3-.8.6-.8h28.5c.3 0 .6.4.6.8 0 .5-.2.8-.5.8zM9.9 44.7H3.6c-1.3 0-2.4 1.1-2.4 2.4 0 1.3 1.1 2.4 2.4 2.4h6.3v-4.8zM42.9 44.7h-6.3v4.9h6.3c1.3 0 2.4-1.1 2.4-2.4.1-1.4-1-2.5-2.4-2.5z"/></g></svg>