<svg xmlns="http://www.w3.org/2000/svg" width="111" height="61" viewBox="0 0 111 61"><g fill-rule="evenodd" clip-rule="evenodd" fill="#FFF"><path d="M62.07 3.95h-.847l-3.31 10.017h.938l.755-2.348h4.432l.756 2.347h.938L62.42 3.95h-.35zm-2.21 6.88l1.963-6.11 1.96 6.11H59.86zM71.497 7.74c-.453-.602-1.137-.954-2.127-.954-1.56 0-2.79 1.146-2.79 3.687 0 1.87.823 3.686 2.79 3.686.9 0 1.63-.403 2.127-1.107v.915h.842V3.95h-.843v3.79zm0 4.242c-.453 1.01-1.324 1.423-1.947 1.423-1.564 0-2.14-1.216-2.14-2.933 0-2.02.897-2.933 2.14-2.933 1.004 0 1.62.45 1.947 1.195v3.247zM101.624 7.74c-.45-.602-1.135-.954-2.127-.954-1.56 0-2.787 1.146-2.787 3.687 0 1.87.82 3.686 2.787 3.686.902 0 1.63-.403 2.127-1.107v.915h.844V3.95h-.844v3.79zm0 4.24c-.45 1.01-1.322 1.425-1.947 1.425-1.564 0-2.14-1.216-2.14-2.933 0-2.02.897-2.933 2.14-2.933 1.006 0 1.62.45 1.947 1.197v3.243zM81.76 13.193L79.687 3.95h-1.193l-2.07 9.243L74.6 3.95h-.89l2.133 10.017h1.153l2.094-9.275 2.095 9.275h1.154L84.473 3.95h-.893zM88.272 6.786c-.066 0-.13 0-.19.005a4.004 4.004 0 0 0-.194-.004c-1.56 0-2.79 1.146-2.79 3.687 0 1.87.825 3.686 2.79 3.686.066 0 .13-.003.193-.007.063.003.126.006.192.006 1.967 0 2.79-1.816 2.79-3.687 0-2.54-1.23-3.687-2.79-3.687zm-.177 6.62h-.027c-1.564 0-2.14-1.217-2.14-2.934 0-2.02.897-2.933 2.14-2.933H88.096c1.24 0 2.137.91 2.137 2.932 0 1.717-.575 2.933-2.137 2.933zM93.614 8.047V6.884h-.844V14h.844V8.963c.09-.27.607-1.56 2.133-1.318v-.828s-1.322-.393-2.133 1.23zM106.634 9.94c-.064-.015-1.562-.265-1.674-1.244-.002-.85.557-1.154 1.61-1.186.894-.027 1.71.502 1.747 1.52v.032s.523-.04.8-.072v-.032c-.073-1.36-1.134-2.182-2.532-2.182-1.4 0-2.492.51-2.422 2.182.115.986 1.162 1.43 1.92 1.643 0 0 .213.067.33.085l.18.04c.04.01.088.015.137.018.87.176 1.664.523 1.734 1.336.002.916-.607 1.294-1.744 1.33-.96.028-1.92-.517-1.96-1.615v-.034s-.548.09-.845.126v.034c.076 1.465 1.547 2.237 2.727 2.237 1.32 0 2.684-.548 2.605-2.348-.14-1.425-1.902-1.716-2.613-1.87zM48.553 9.575L50 9.46l4.415-1.784c-.13-.433-.375-1.24-1.314-1.86-.562-.358-1.258-.526-1.935-.526-1.936 0-4.304 1.428-4.304 4.34 0 1.41.583 3.026 1.917 3.965.96.695 1.898.733 2.5.733.564 0 1.2-.075 1.823-.357.206-.093.413-.224.62-.336l.997-.94c-.64.32-1.334.658-2.293.658-1.786 0-3.4-1.39-3.87-3.777zm-.076-1.053c0-2.03 1.41-2.612 2.16-2.612 1.017 0 1.86.865 1.86 1.616 0 .264-.187.376-.543.508l-3.42 1.484c-.02-.338-.057-.676-.057-.996z"/><path d="M45.396 12.637v-4.34c0-2.67.02-4.96.17-6.408.074-.66.263-.772.845-1.11h-2.687l-1.408.678h1.465c-.02.864-.094 2.067-.113 3.025-.055 1.955-.074 4.04-.074 5.506v3.062c0 .375-.075.432-.508.996h3.326l.696-.414c-.318-.038-.64-.057-.958-.094-.62-.057-.752-.17-.752-.903z"/><path d="M42.615 5.535h-3.87c-1.016 0-2.293.15-3.363 1.033-.81.695-1.203 1.654-1.203 2.518 0 1.466 1.126 2.95 3.118 2.95.188 0 .395-.02.602-.037-.094.224-.188.412-.188.732 0 .582.3.94.563 1.277-.846.056-2.424.15-3.59.863-1.107.658-1.445 1.616-1.445 2.293 0 1.39 1.314 2.687 4.04 2.687 3.23 0 4.94-1.785 4.94-3.55 0-1.297-.75-1.937-1.577-2.632l-.677-.525c-.206-.168-.488-.395-.488-.808 0-.413.282-.676.526-.92.788-.62 1.578-1.278 1.578-2.67 0-1.427-.9-2.18-1.335-2.535h1.166l1.202-.677zm-1.654 11.5c0 1.165-.957 2.03-2.762 2.03-2.01 0-3.308-.96-3.308-2.293 0-1.335 1.203-1.785 1.617-1.936.79-.264 1.804-.302 1.973-.302.188 0 .28 0 .432.02 1.43 1.015 2.05 1.522 2.05 2.48zm-1.502-6.05c-.3.3-.808.526-1.277.526-1.615 0-2.348-2.086-2.348-3.344 0-.49.093-.996.413-1.39.3-.377.826-.62 1.315-.62 1.56 0 2.368 2.103 2.368 3.457 0 .338-.038.94-.47 1.37zM28.878 5.29c-2.856 0-4.866 2.105-4.866 4.567 0 2.104 1.597 4.434 4.584 4.434 3.063 0 4.773-2.348 4.773-4.565 0-2.273-1.73-4.434-4.492-4.434zm2.068 7.48c-.433.6-1.184.958-1.917.958-2.274 0-3.195-3.063-3.195-4.923 0-.808.133-1.634.864-2.292.45-.395 1.07-.64 1.69-.64 2.33 0 3.12 3.157 3.12 4.81 0 .734-.113 1.485-.564 2.087zM18.882 5.29c-2.856 0-4.868 2.105-4.868 4.567 0 2.104 1.598 4.434 4.586 4.434 3.062 0 4.773-2.348 4.773-4.565 0-2.273-1.73-4.434-4.49-4.434zm2.066 7.48c-.432.6-1.182.958-1.916.958-2.273 0-3.194-3.063-3.194-4.923 0-.808.132-1.634.864-2.292.45-.395 1.07-.64 1.69-.64 2.33 0 3.12 3.157 3.12 4.81 0 .734-.11 1.485-.564 2.087zM8.346 10.676l2.66-.14v2.835c-.53.212-1.11.44-2.238.44-3.84 0-6.236-3.117-6.236-6.43 0-3.082 2.097-5.196 4.88-5.196 2.08 0 3.172 1.075 3.77 1.655l-.44.705.617-.14L12.82 3.01c-.388-.265-1.005-.723-2.326-1.092-.83-.228-1.746-.37-2.697-.37C3.306 1.55.68 4.72.68 8.14c0 2.8 1.85 6.376 6.712 6.376.97 0 1.886-.14 2.907-.3l2.52-.58v-2.15c0-.175.02-.687.036-.845.035-.14.053-.175.176-.28l.458-.44H9.754l-1.408.756z"/></g><path fill="#FFF" d="M7.736 21.938H5.488c-2.207 0-4.08 1.68-4.08 4.945 0 1.958.906 3.402 2.523 4.114l-3.017 5.46c-.098.177 0 .315.158.315h1.4c.118 0 .198-.04.237-.14l2.74-5.358h.986v5.36c0 .06.06.138.138.138h1.225c.117 0 .157-.06.157-.158v-14.48c.002-.137-.077-.196-.216-.196zm-1.3 8.07h-.83c-1.3 0-2.562-.95-2.562-3.323 0-2.473 1.183-3.482 2.386-3.482h1.006v6.805zM15.148 26.855h-1.223c-.1 0-.157.08-.157.138v3.778H11.5v-3.777c0-.1-.038-.138-.137-.138H10.14c-.098 0-.157.06-.157.138v9.612c0 .1.04.158.138.158h1.244c.078 0 .137-.06.137-.158v-4.588h2.27v4.588c0 .1.058.158.157.158h1.223c.1 0 .14-.078.14-.158v-9.612a.138.138 0 0 0-.142-.138zM43.06 36.13l-.157-.67c-.018-.06-.038-.08-.098-.08-.1 0-.63.218-1.4.218-1.498 0-2.228-1.443-2.228-3.738 0-2.018.61-4.015 1.637-4.015.276 0 .612.078 1.144.574.06.06.1.078.158.078s.117-.04.178-.14l.53-.868a.33.33 0 0 0 .062-.18c0-.078-.08-.137-.198-.197-.81-.415-1.36-.494-1.834-.494-1.853 0-3.293 2.214-3.293 5.674 0 2.988 1.38 4.71 3.354 4.71.83 0 1.716-.397 2.07-.655.077-.06.096-.14.077-.22zM34.49 31.324l2.367-4.33c.04-.06.02-.14-.06-.14h-1.163c-.336 0-.454.12-.57.376l-1.776 3.7c-.098.216-.196.355-.296.416v-4.353c0-.08-.04-.138-.117-.138h-1.28c-.062 0-.12.06-.12.138v9.632c0 .06.04.14.12.14h1.28c.078 0 .117-.06.117-.14V31.66c.06.04.1.1.14.18l2.246 4.627c.12.238.296.297.553.297h1.264c.078 0 .098-.078.06-.14l-2.763-5.3zM23.193 35.518h-.236c-.296 0-.375-.117-.375-.355v-8.17c0-.098-.04-.137-.118-.137H18.52c-.098 0-.157.06-.157.138v.712c0 2.394-.138 5.478-1.4 7.812h-.434c-.12 0-.158.06-.158.158v2.89c0 .1.078.138.138.138h.946c.217 0 .296-.158.296-.297v-1.643h4.22v1.8c0 .08.06.14.138.14h1.005c.12 0 .237-.1.237-.297v-2.73c0-.1-.06-.16-.16-.16zm-2.13 0h-2.86c1.008-1.72 1.4-3.658 1.54-6.032.038-.514.06-1.05.06-1.385h1.26v7.418zM27.215 26.618c-2.128 0-3.076 2.69-3.076 5.617 0 2.988 1.34 4.768 3.31 4.768a4.4 4.4 0 0 0 2.25-.654c.078-.04.1-.1.078-.18l-.157-.67c-.02-.08-.06-.12-.157-.12-.078 0-.65.22-1.46.22-1.517 0-2.227-1.327-2.227-3.067v-.47s.77.095 1.223.095h2.877v-.832c0-3.066-1.084-4.708-2.662-4.708zM27 30.91c-.455 0-1.164.08-1.164.08s0-.296.04-.614c.175-1.682.59-2.53 1.28-2.53.63 0 1.025.87 1.124 2.393.02.314.02.672.02.672H27zM71.946 30.033c-.264 0-.52.058-.766.174a3.232 3.232 0 0 0-.703.447v3.094c.244.117.453.197.627.24s.375.062.6.062c.482 0 .86-.175 1.127-.522.27-.35.403-.86.403-1.53 0-.623-.102-1.105-.303-1.45-.202-.342-.53-.515-.984-.515zM78.347 30.336c-.11-.136-.25-.24-.42-.312s-.38-.108-.633-.108c-.248 0-.46.037-.633.11-.173.073-.33.18-.474.32-.14.144-.244.302-.318.476-.072.175-.12.378-.14.608h2.937a2.574 2.574 0 0 0-.09-.64 1.327 1.327 0 0 0-.228-.454zM59.483 32.313c-.184.674-.416 1.23-.693 1.674h2.62v-3.905h-1.587c-.043.814-.156 1.56-.34 2.23z"/><path fill="#FFF" d="M47.997 26v12h50V26h-50zm14.83 10.146h-.87v-1.32h-3.653v1.32h-.867V34.06h.367c.314-.508.57-1.17.77-1.986.2-.817.3-1.71.3-2.68h3.402v4.666h.552v2.086zm5.298-1.307h-.923v-4.06l-2.61 4.06h-.847v-5.445h.924v3.996l2.58-3.995h.875v5.444zm5.34-.7c-.442.54-1 .807-1.674.807-.274 0-.52-.03-.73-.092a2.805 2.805 0 0 1-.65-.287v2.28h-.934v-7.453h.933v.57c.23-.204.488-.376.77-.513.285-.14.594-.207.927-.207.637 0 1.13.246 1.488.74.355.496.532 1.158.532 1.99 0 .906-.22 1.63-.66 2.165zm6.04-1.928H75.66c0 .634.163 1.118.487 1.454.324.334.773.502 1.346.502.205 0 .406-.024.604-.07s.375-.102.533-.175c.17-.073.312-.146.428-.217.115-.068.21-.135.287-.197h.055v.998l-.406.16c-.162.063-.31.113-.438.148-.182.05-.345.085-.494.11-.146.027-.33.04-.56.04-.882 0-1.567-.243-2.056-.733-.488-.49-.73-1.184-.73-2.084 0-.89.234-1.594.707-2.12.475-.524 1.094-.786 1.856-.786.343 0 .648.048.915.146.263.098.495.25.694.46.196.207.35.46.454.76.107.302.16.67.16 1.106v.496zm4.244 2.627l-1.9-2.51h-.468v2.51h-.934v-5.445h.934v2.37c.242-.003.447-.053.618-.148.17-.097.315-.282.435-.56l.12-.28a3.97 3.97 0 0 0 .108-.284c.144-.4.348-.683.604-.848.26-.166.595-.25 1.01-.25h.253v.79h-.215c-.262 0-.457.053-.588.16-.132.104-.24.298-.33.577-.094.283-.202.504-.328.66a1.43 1.43 0 0 1-.417.363l2.258 2.895h-1.16zm5.813-4.64h-1.887v4.64h-.934V30.2h-1.887v-.805h4.707v.805z"/><path fill-rule="evenodd" clip-rule="evenodd" fill="#FFF" d="M2.94 46h9.12A2.947 2.947 0 0 1 15 48.938v9.122A2.95 2.95 0 0 1 12.06 61H2.94A2.95 2.95 0 0 1 0 58.06v-9.12A2.948 2.948 0 0 1 2.94 46zm8.382 9.193c0-.568-.158-1.02-.468-1.357-.31-.335-.725-.557-1.242-.666v-.043c.36-.153.642-.387.844-.705.206-.318.308-.682.308-1.092 0-.353-.075-.664-.224-.935a1.61 1.61 0 0 0-.67-.647 2.685 2.685 0 0 0-.892-.294c-.317-.048-.783-.07-1.397-.07H4.62v8.376h3.354c.582 0 1.06-.052 1.437-.158.38-.104.725-.28 1.04-.528.267-.207.477-.467.635-.78.157-.316.237-.684.237-1.1zm-2.695-3.44a.925.925 0 0 0-.104-.417.623.623 0 0 0-.323-.31 1.344 1.344 0 0 0-.492-.1c-.19-.006-.473-.008-.847-.008h-.145v1.773h.265c.36 0 .612-.003.757-.01.143-.008.294-.047.447-.118a.68.68 0 0 0 .347-.327c.065-.138.097-.3.097-.48zm.528 3.403c0-.26-.052-.46-.158-.608a.956.956 0 0 0-.473-.33A1.59 1.59 0 0 0 8 54.133a35.893 35.893 0 0 0-.896-.008h-.39v2.1h.113c.55 0 .926-.006 1.135-.014.21-.008.425-.058.642-.152a.834.834 0 0 0 .418-.362c.09-.16.133-.34.133-.542z"/><path fill="#FFF" d="M24.874 57.012h-2.496l-1.643-2.775h-.562v2.775h-2.168v-7.004h2.168v2.813c.304-.004.532-.05.683-.133.15-.088.315-.312.493-.678.056-.123.12-.262.185-.41.064-.15.127-.284.18-.4.22-.46.488-.778.81-.95.32-.168.708-.253 1.167-.253.16 0 .314.002.46.006.144.004.248.005.308.005v1.87h-.42a.77.77 0 0 0-.356.08c-.104.052-.198.12-.275.197a.92.92 0 0 0-.177.25l-.117.24a11.9 11.9 0 0 1-.21.48.828.828 0 0 1-.24.28l2.208 3.607zm7.462-3.5c0 1.156-.313 2.062-.938 2.725-.627.663-1.51.993-2.655.993-1.138 0-2.02-.33-2.65-.993s-.945-1.568-.945-2.724c0-1.163.315-2.075.945-2.735.63-.658 1.512-.988 2.65-.988 1.14 0 2.024.333 2.652.995.627.663.94 1.57.94 2.728zm-2.226.01c0-.412-.033-.76-.102-1.037a1.935 1.935 0 0 0-.283-.663 1.064 1.064 0 0 0-.433-.366 1.404 1.404 0 0 0-.55-.103c-.195 0-.37.03-.528.092-.157.06-.302.175-.434.346-.123.16-.223.386-.296.67a4.24 4.24 0 0 0-.113 1.063c0 .432.037.775.107 1.042.07.263.16.475.272.632.114.163.26.282.434.355.173.075.366.113.575.113.173 0 .35-.038.53-.113a.962.962 0 0 0 .43-.336c.13-.178.227-.393.292-.647.065-.25.098-.6.098-1.047zm9.955 3.49h-2.168v-3h-2.24v3h-2.168v-7.004h2.166v2.427h2.24v-2.427h2.17v7.004zm7.376-5.482h-2.156v5.48h-2.17v-5.48H40.96v-1.522h6.48v1.522zm4.727 3.657v-1.46c-.367.037-.666.068-.893.094a3.15 3.15 0 0 0-.67.16.925.925 0 0 0-.442.303c-.107.138-.16.316-.16.542 0 .327.09.552.264.677.176.12.435.182.777.182.19 0 .385-.044.583-.13.202-.09.382-.21.54-.367zm0 1.082l-.4.338a2.43 2.43 0 0 1-.474.297c-.194.096-.383.17-.567.22-.183.05-.44.075-.77.075-.615 0-1.127-.21-1.533-.624-.41-.415-.613-.938-.613-1.57 0-.52.104-.94.31-1.26.208-.32.505-.574.892-.76a4.626 4.626 0 0 1 1.41-.4 24.804 24.804 0 0 1 1.76-.175v-.037c0-.387-.144-.655-.428-.802-.283-.145-.708-.22-1.272-.22a3.42 3.42 0 0 0-.898.142c-.343.093-.68.21-1.005.356h-.188V50.16c.216-.062.564-.138 1.04-.223.482-.085.966-.127 1.453-.127 1.2 0 2.07.198 2.62.602.55.4.82 1.014.82 1.837v4.763H52.17v-.744h-.003zm10.632.742h-2.496l-1.644-2.775h-.562v2.775H55.93v-7.004h2.168v2.813c.304-.004.532-.05.683-.133.15-.088.317-.312.495-.678.057-.123.118-.262.185-.41l.18-.4c.22-.46.49-.778.81-.95.32-.168.71-.253 1.168-.253.162 0 .313.002.46.006.143.004.248.005.31.005v1.87h-.422a.78.78 0 0 0-.36.08c-.1.052-.193.12-.27.197a.868.868 0 0 0-.178.25c-.038.08-.08.162-.115.24-.095.227-.164.386-.21.48a.86.86 0 0 1-.24.28l2.206 3.607zm6.495-5.482h-2.158v5.48H64.97v-5.48H62.81v-1.522h6.483v1.522zm4.452 5.67c-1.312 0-2.32-.316-3.02-.95-.7-.63-1.05-1.53-1.05-2.7 0-1.142.324-2.055.978-2.735.654-.685 1.567-1.025 2.74-1.025 1.064 0 1.865.29 2.404.867.535.58.804 1.407.804 2.483v.786H71.85c.022.323.09.596.205.812.113.22.27.392.46.52.184.132.4.224.65.28a3.602 3.602 0 0 0 1.555 0 3.48 3.48 0 0 0 .667-.224c.18-.08.344-.163.494-.256.152-.09.275-.17.37-.24h.228v1.8c-.177.07-.34.138-.485.197-.146.06-.35.12-.605.183a6.095 6.095 0 0 1-1.64.2zm.718-4.59c-.012-.463-.117-.814-.317-1.057-.2-.24-.507-.36-.92-.36-.423 0-.75.127-.99.38-.236.253-.366.6-.394 1.036h2.62z"/></svg>