<svg xmlns="http://www.w3.org/2000/svg" width="52.837" height="52.836" viewBox="0 0 52.837 52.836"><g fill="#FFF"><path d="M42.284 18.246l6.434-5.73-4.543-1.808-.04-.015-.19-.68-1.105-4.095-6.432 5.732 1.105 4.097-11.502 10.25c0 .002-.003.003-.005.005l-.065.06.016.016a.623.623 0 0 0-.137.377c0 .357.287.646.644.646.117 0 .222-.04.315-.095l.003.004.03-.028a.607.607 0 0 0 .142-.126l11.41-10.17 3.92 1.56z"/><path d="M49.634 14.646l-3.905 3.48a20.935 20.935 0 0 1 1.678 8.226c0 11.582-9.39 20.97-20.973 20.97-11.583 0-20.97-9.388-20.97-20.97S14.85 5.378 26.434 5.378c3.836 0 7.422 1.048 10.516 2.848l3.88-3.458.318-.282A26.298 26.298 0 0 0 26.418 0C11.828 0 0 11.83 0 26.42s11.827 26.416 26.418 26.416c14.59 0 26.42-11.827 26.42-26.417 0-4.34-1.054-8.43-2.907-12.04l-.296.266z"/><path d="M38.495 19.656l-3.604 3.21c.47 1.103.73 2.316.73 3.59 0 5.084-4.12 9.205-9.202 9.205a9.204 9.204 0 0 1 0-18.406 9.14 9.14 0 0 1 4.573 1.225l3.59-3.2-.688-2.553a15.562 15.562 0 0 0-7.474-1.9c-8.634 0-15.634 7-15.634 15.63 0 8.635 7 15.634 15.634 15.634 8.632 0 15.63-6.998 15.63-15.632 0-2.066-.41-4.035-1.14-5.842l-2.413-.96z"/><circle cx="26.419" cy="26.419" r="2.988"/></g></svg>