<svg xmlns="http://www.w3.org/2000/svg" width="55" height="61" viewBox="0 0 55 61"><g fill="#FFF"><path d="M51.895 7.97c-1.055.08-2.128.128-3.22.128C39.688 8.098 31.81 5.25 27.4.975 22.99 5.25 15.114 8.098 6.128 8.098c-1.092 0-2.165-.047-3.22-.13C1.052 11.945 0 16.844 0 22.773 0 43.088 16.663 61 27.4 61c11.495 0 27.4-17.912 27.4-38.228.002-5.93-1.05-10.828-2.905-14.803zm-13.51 37.24a1.78 1.78 0 0 1-1.778 1.78H18.194a1.78 1.78 0 0 1-1.78-1.78V29.472c0-.983.798-1.78 1.78-1.78h.892v-5.9c0-4.584 3.73-8.314 8.314-8.314s8.315 3.73 8.315 8.313v5.9h.89c.983 0 1.78.8 1.78 1.782V45.21z"/><path d="M27.4 17.042a4.758 4.758 0 0 0-4.753 4.75v5.9h9.504v-5.9c0-2.62-2.13-4.75-4.75-4.75zM27.4 32.286a2.757 2.757 0 0 0-2.757 2.756c0 1.018.558 1.896 1.377 2.374v4.634c0 .76.615 1.377 1.38 1.377.76 0 1.377-.617 1.377-1.377v-4.633a2.746 2.746 0 0 0 1.382-2.375 2.76 2.76 0 0 0-2.76-2.756z"/></g></svg>