<svg xmlns="http://www.w3.org/2000/svg" width="14.606" height="14.606" viewBox="0 0 14.606 14.606"><path fill="#515151" d="M14.02 9.778L11.193 6.95a2 2 0 0 0-2.83 0l-.705-.707a2 2 0 0 0 0-2.83L4.827.587A2 2 0 0 0 2 .586L.586 2a2 2 0 0 0 0 2.828l2.828 2.83a2 2 0 0 0 2.83 0l.706.706a2 2 0 0 0 0 2.83l2.83 2.827a2 2 0 0 0 2.827 0l1.414-1.413a2 2 0 0 0 0-2.83zM4.358 5.77L2.47 3.886c-.26-.26-.312-.63-.117-.825l.707-.707c.195-.195.564-.143.825.118L5.77 4.358c.26.26.313.63.12.825l-.708.707c-.195.194-.565.142-.825-.12zm7.896 5.776l-.707.707c-.195.195-.564.143-.825-.118L8.836 10.25c-.26-.26-.312-.63-.118-.825l.707-.707c.196-.196.565-.143.826.117l1.886 1.886c.26.26.312.63.117.826z"/></svg>