<svg baseProfile="basic" xmlns="http://www.w3.org/2000/svg" width="170" height="84" viewBox="-229 366.6 170 84"><path fill="#C6C5C5" d="M-182 446.5l-40.9 3.2-6.1-61.7 3.2-.3c1.8-.1 3.1-1.8 2.9-3.7l-.3-3.2c-.2-1.9 1.2-3.5 3.1-3.7l22.6-1.8c1.9-.1 3.6 1.3 3.8 3.2l.3 3.2.3 3.4 11.6-.9 42.7.7 4.3 51.6-7.8 6.8-39.7 3.2z"/><path fill="#066BC6" d="M-166.2 366.6l-51 26.5-5.5 56.6 50.8-4 28.5-2.3 18.3-1.4 5.4-56.5z"/><path fill="#FFF" d="M-190.1 426.7l-5.8-9.5h-4.7v9.5h-5.7V400h12.5c5.6 0 9 3.6 9 8.6 0 4.7-2.4 7.2-5.3 7.9l6.6 10.1c0 .1-6.6.1-6.6.1zm-.5-18.1c0-2.2-1.7-3.6-4-3.6h-6v7.2h6c2.2 0 4-1.3 4-3.6zM-180 426.7V400h18.9v5h-13.2v5.6h11.8v5h-11.8v6h13.2v5l-18.9.1zM-158 413.4c0-8.4 6.4-13.8 14.2-13.8 5.6 0 9 2.8 11 6l-4.7 2.6c-1.2-1.9-3.5-3.5-6.3-3.5-4.8 0-8.4 3.7-8.4 8.8 0 5 3.5 8.8 8.4 8.8 2.4 0 4.6-1 5.7-2v-2.8h-7v-5h12.7v10c-2.7 3-6.5 5-11.3 5-7.9-.3-14.3-5.7-14.3-14.1z"/><path d="M-118.6 423.9c0-1.8 1.5-3.2 3.2-3.2 1.8 0 3.2 1.5 3.2 3.2 0 1.8-1.5 3.2-3.2 3.2-1.7 0-3.2-1.4-3.2-3.2zM-91.4 426.7l-6.4-9.5h-4.2v9.5h-5.7V400h12.5c5.6 0 9 3.6 9 8.6 0 4.7-3 7.2-5.8 7.9l7.1 10.1c0 .1-6.5.1-6.5.1zm-.6-18.1c0-2.2-1.7-3.6-4-3.6h-6v7.2h6c2.3 0 4-1.3 4-3.6zM-81.9 416.1v-16h5.8v15.8c0 3.7 1.6 6.3 5.7 6.3s5.7-2.6 5.7-6.3V400h5.8v16c0 6.6-3.3 11.2-11.5 11.2s-11.5-4.6-11.5-11.1z"/></svg>