<svg xmlns="http://www.w3.org/2000/svg" width="178.5" height="204.112" viewBox="0 0 178.5 204.112"><path fill="#007AC9" d="M178.5 0H0v178h63.137l26.113 26.112L115.363 178H178.5z"/><g fill="#FFF"><path d="M22.93 89.683l5.987-7.505c3.41 3.563 8.11 5.534 13.418 5.534 5.988 0 9.4-3.412 9.4-7.505 0-4.473-3.336-7.505-9.098-7.505-4.17 0-7.58 1.213-10.612 4.094l-7.505-1.97V45.79h34.72v9.476H35.283v12.356c2.426-2.426 6.52-4.245 11.144-4.245 8.566 0 16.223 6.14 16.223 16.373 0 10.765-8.034 17.51-20.24 17.51-8.793 0-15.16-2.88-19.48-7.58zM67.875 71.11c0-13.038 6.443-26.076 20.923-26.076 14.402 0 20.922 13.04 20.922 26.077s-6.52 26.154-20.922 26.154c-14.48 0-20.923-13.115-20.923-26.153zm30.854 0c0-9.323-2.73-16.525-9.932-16.525-7.277 0-10.007 7.202-10.007 16.526S81.52 87.714 88.8 87.714c7.2 0 9.93-7.278 9.93-16.602zM114.87 71.11c0-13.038 6.443-26.076 20.923-26.076 14.403 0 20.922 13.04 20.922 26.077s-6.52 26.154-20.922 26.154c-14.48 0-20.923-13.115-20.923-26.153zm30.854 0c0-9.323-2.73-16.525-9.93-16.525-7.278 0-10.008 7.202-10.008 16.526s2.73 16.603 10.007 16.603c7.2 0 9.93-7.278 9.93-16.602z"/></g><g fill="#FFF"><path d="M55.646 127.315v-12.19H51.26v-2.812h11.965v2.812h-4.363v12.19h-3.216zM68.468 112.313v5.33h3.823c3.24 0 5.04 2.228 5.04 4.837 0 2.63-1.778 4.835-5.04 4.835h-7.017v-15.002h3.195zm0 8.143v4.048h3.396c1.26 0 2.204-.765 2.204-2.024 0-1.237-.944-2.024-2.204-2.024h-3.396zm10.12 6.86v-15.003h3.217v15.002H78.59zM84.055 119.826c0-4.61 3.486-7.76 7.984-7.76 3.306 0 5.217 1.8 6.274 3.667l-2.744 1.35c-.63-1.215-1.98-2.182-3.53-2.182-2.723 0-4.7 2.093-4.7 4.927s1.978 4.926 4.7 4.926c1.55 0 2.9-.945 3.53-2.182l2.744 1.328c-1.08 1.867-2.97 3.688-6.275 3.688-4.5 0-7.985-3.15-7.985-7.76zM99.575 127.315l3.374-5.713c-1.62-.382-3.285-1.8-3.285-4.453 0-2.79 1.912-4.837 5.038-4.837h7.018v15.002h-3.192v-5.33h-2.317l-2.968 5.33h-3.667zm8.952-8.142v-4.048h-3.352c-1.282 0-2.25.765-2.25 2.024 0 1.258.968 2.023 2.25 2.023h3.352zM117.524 116.52c0 1.957 1.012 2.722 2.744 2.722 1.08 0 2.07-.18 2.856-.495v-6.433h3.193v15.002h-3.193v-5.758c-.968.292-2.092.495-3.24.495-3.822 0-5.576-2.204-5.576-5.533v-4.206h3.216v4.206z"/></g><g fill="#FFF"><path d="M73.884 19.316v1.253h-5.93v3.234h3.135c2.234 0 3.54 1.558 3.54 3.404s-1.272 3.404-3.54 3.404h-4.54V19.316h7.334zm-5.93 5.742v4.302h2.965c1.338 0 2.252-.88 2.252-2.15 0-1.272-.914-2.152-2.253-2.152h-2.965zM75.965 26.515c0-2.372 1.56-4.285 4.048-4.285 2.49 0 4.048 1.914 4.048 4.285 0 2.37-1.557 4.302-4.047 4.302-2.49 0-4.048-1.93-4.048-4.302zm6.758 0c0-1.66-.965-3.15-2.71-3.15-1.744 0-2.727 1.49-2.727 3.15 0 1.677.982 3.167 2.727 3.167 1.745 0 2.71-1.49 2.71-3.167zM85.16 29.767c.763 0 1.236-.88 1.56-3.303l.523-4.03h5.69v8.18h-1.27V23.55H88.36l-.372 3.066c-.373 3.05-1.254 4.2-2.83 4.2v-1.05zM95 26.515c0-2.372 1.694-4.285 4.03-4.285 2.474 0 3.93 1.93 3.93 4.387v.322H96.34c.102 1.54 1.186 2.828 2.947 2.828.932 0 1.88-.373 2.523-1.033l.61.83c-.813.813-1.914 1.253-3.252 1.253-2.42-.002-4.166-1.746-4.166-4.303zm4.015-3.236c-1.745 0-2.608 1.473-2.677 2.726h5.37c-.018-1.22-.83-2.727-2.693-2.727zM104.534 26.515c0-2.372 1.694-4.285 4.03-4.285 2.474 0 3.93 1.93 3.93 4.387v.322h-6.622c.102 1.54 1.186 2.828 2.947 2.828.93 0 1.88-.373 2.522-1.033l.61.83c-.813.813-1.914 1.253-3.252 1.253-2.42-.002-4.166-1.746-4.166-4.303zm4.015-3.236c-1.746 0-2.61 1.473-2.678 2.726h5.37c-.017-1.22-.83-2.727-2.693-2.727z"/></g><g fill="#FFF"><path d="M53.51 153.613v-7.063h-4.267v7.063h-1.27v-8.18h6.808v8.18h-1.27zM58.59 152.376v4.353h-1.27V145.43h1.27v1.22a3.418 3.418 0 0 1 2.762-1.423c2.15 0 3.64 1.625 3.64 4.284 0 2.642-1.49 4.302-3.64 4.302-1.12 0-2.1-.525-2.76-1.44zm5.064-2.862c0-1.812-.982-3.15-2.625-3.15-1 0-2 .593-2.44 1.304v3.692c.44.71 1.44 1.32 2.44 1.32 1.642 0 2.624-1.354 2.624-3.166zM66.532 149.514c0-2.372 1.56-4.285 4.048-4.285 2.49 0 4.048 1.913 4.048 4.284 0 2.37-1.558 4.302-4.048 4.302s-4.048-1.93-4.048-4.302zm6.758 0c0-1.66-.965-3.15-2.71-3.15-1.744 0-2.727 1.49-2.727 3.15 0 1.677.982 3.167 2.727 3.167 1.745 0 2.71-1.49 2.71-3.166zM75.728 152.562c.763-.135 1.236-.677 1.56-3.1l.523-4.03h5.692v7.063h.948v3.2h-1.27v-2.082h-6.182v2.083h-1.27v-3.134zm2.83-2.946c-.205 1.54-.594 2.405-1.187 2.88h4.86v-5.946H78.93l-.37 3.066zM91.31 153.613v-.932c-.678.746-1.61 1.136-2.71 1.136-1.39 0-2.863-.932-2.863-2.71 0-1.83 1.474-2.693 2.863-2.693 1.117 0 2.05.355 2.71 1.118v-1.473c0-1.1-.88-1.728-2.066-1.728-.982 0-1.778.355-2.507 1.134l-.593-.88c.88-.915 1.93-1.355 3.27-1.355 1.727 0 3.166.778 3.166 2.76v5.623h-1.27zm0-1.728v-1.542c-.49-.677-1.355-1.016-2.253-1.016-1.186 0-2.016.745-2.016 1.795 0 1.033.83 1.778 2.017 1.778.897 0 1.76-.338 2.253-1.015zM95.118 153.613v-8.18h4.505c1.44 0 2.304.863 2.304 2.1 0 .98-.627 1.642-1.32 1.862.83.203 1.49 1.067 1.49 2 0 1.32-.88 2.218-2.39 2.218h-4.59zm5.505-5.894c0-.712-.44-1.17-1.22-1.17h-3.015v2.304h3.015c.796 0 1.22-.492 1.22-1.135zm.152 3.522c0-.66-.458-1.27-1.32-1.27h-3.066v2.523h3.064c.813 0 1.32-.474 1.32-1.253zM110.986 153.613H104.5v-8.18h1.27v7.062h4.27v-7.063h1.27v7.063h.948v3.2h-1.27v-2.082zM113.526 149.514c0-2.372 1.56-4.285 4.048-4.285 2.49 0 4.048 1.913 4.048 4.284 0 2.37-1.558 4.302-4.048 4.302s-4.048-1.93-4.048-4.302zm6.758 0c0-1.66-.965-3.15-2.71-3.15-1.744 0-2.727 1.49-2.727 3.15 0 1.677.982 3.167 2.727 3.167 1.745 0 2.71-1.49 2.71-3.166zM123.688 153.613v-8.18h4.505c1.44 0 2.304.863 2.304 2.1 0 .98-.627 1.642-1.32 1.862.83.203 1.49 1.067 1.49 2 0 1.32-.88 2.218-2.39 2.218h-4.59zm5.503-5.894c0-.712-.438-1.17-1.218-1.17h-3.015v2.304h3.015c.797 0 1.22-.492 1.22-1.135zm.155 3.522c0-.66-.458-1.27-1.32-1.27h-3.066v2.523h3.064c.812 0 1.32-.474 1.32-1.253z"/></g></svg>