<svg baseProfile="basic" xmlns="http://www.w3.org/2000/svg" width="220" height="250" viewBox="0 0 220 250"><path fill="#EFEBDE" d="M142.6 199.7H6c-3.3 0-6-2.7-6-6V6c0-3.3 2.7-6 6-6h136.6c3.3 0 6 2.7 6 6v187.7c0 3.3-2.7 6-6 6z"/><path fill="#FF5046" d="M92.8 26.9V40c0 1.6-1.3 3-3 3H23.5c-1.6 0-3-1.3-3-3V26.9c0-1.6 1.3-3 3-3h66.3c1.7 0 3 1.4 3 3z"/><path fill="#6D98AC" d="M69.4 132.9V146c0 1.6-1.3 3-3 3H23.5c-1.7 0-3-1.3-3-3v-13.1c0-1.6 1.3-3 3-3h42.9c1.7 0 3 1.3 3 3zM116.2 160.5v13.1c0 1.7-1.3 3-3 3H23.5c-1.6 0-3-1.4-3-3v-13.1c0-1.6 1.3-3 3-3h89.7c1.6 0 3 1.3 3 3z"/><path fill="#6D98AC" d="M122.6 161.7v10.6c0 3.5-2.9 6.4-6.4 6.4H97.1c-3.5 0-6.4-2.9-6.4-6.4l-10.6-10.6c0-3.5 2.9-6.4 6.4-6.4h29.8c3.4.1 6.3 2.9 6.3 6.4z"/><path opacity=".2" d="M217.2 230.3L177.5 196c-2.6-2.2-6.2-2.5-9-1l-5.1-4.4c14-19.6 11.1-46.9-7.5-63-19.7-17-49.2-14.8-66.2 4.9-13.1 15.2-14.7 36.4-5.7 53v.4c2.6 5 6.1 9.1 10.5 12.9 18.3 15.8 45.4 14.9 62.7-1.2l5.1 4.4c-1.1 3-.2 6.5 2.3 8.8l39.7 34.3c3.4 2.9 8.5 2.5 11.4-.8l2.3-2.6c3-3.4 2.6-8.5-.8-11.4z"/><path fill-rule="evenodd" clip-rule="evenodd" fill="#3C3C3B" d="M217.2 224.2c3.4 2.9 3.8 8 .8 11.4l-2.3 2.6c-2.9 3.4-8 3.8-11.4.8l-39.7-34.3c-3.4-2.9-3.8-8-.8-11.4l2.3-2.6c2.9-3.4 8-3.8 11.4-.8l39.7 34.3z"/><path fill-rule="evenodd" clip-rule="evenodd" fill="#A8A8A8" d="M153.1 188l11.8 10.2c1.6 1.4 4.3.9 6-1.1 1.7-2 1.8-4.7.2-6.1l-11.8-10.2-6.2 7.2z"/><ellipse transform="rotate(-49.194 125.2 157.123)" opacity=".2" fill-rule="evenodd" clip-rule="evenodd" fill="#36A9E1" cx="125.2" cy="157.1" rx="39.8" ry="39.8"/><path fill-rule="evenodd" clip-rule="evenodd" fill="#3C3C3B" d="M89.6 126.4c-17 19.7-14.8 49.3 4.9 66.3 19.7 17 49.3 14.8 66.3-4.9 17-19.7 14.8-49.3-4.9-66.3-19.6-16.9-49.3-14.8-66.3 4.9zm65.7 56.7c-14.4 16.6-39.5 18.5-56.1 4.1s-18.5-39.5-4.1-56.1 39.5-18.5 56.1-4.1 18.5 39.5 4.1 56.1z"/><path opacity=".2" fill="#FFF" d="M214.2 225.8c.8.7 1 1.9.3 2.7-.7.8-1.9.9-2.8.1L176.1 198c-.8-.7-1-2-.3-2.7.7-.8 1.9-.8 2.8-.1l35.6 30.6z"/><path opacity=".7" fill="#FFF" d="M99.1 141.3c-1.5-1.3-1.7-3.6-.4-5.1 12.1-14.1 33.4-15.6 47.5-3.5 1.5 1.3 1.7 3.6.4 5.1-1.3 1.5-3.6 1.7-5.1.4-11.1-9.5-27.8-8.3-37.4 2.7-1.2 1.5-3.5 1.7-5 .4z"/><path fill="#6D98AC" d="M77.1 79.3v13.1c0 1.7-1.3 3-3 3H23.5c-1.6 0-3-1.3-3-3V79.3c0-1.7 1.3-3 3-3h50.6c1.7 0 3 1.3 3 3zM85.6 106.9V120c0 1.7-1.4 3-3 3h-59c-1.6 0-3-1.3-3-3v-13.1c0-1.6 1.4-3 3-3h59c1.6 0 3 1.4 3 3zM116.2 53.4v13.1c0 1.7-1.3 3-3 3H23.5c-1.6 0-3-1.3-3-3V53.4c0-1.6 1.3-3 3-3h89.7c1.6 0 3 1.3 3 3z"/></svg>