<svg baseProfile="basic" xmlns="http://www.w3.org/2000/svg" width="63" height="72" viewBox="0 0 63 72"><path fill="#FFE9C9" d="M52.1 71.9L.1 72 0 12.3 12.2.1 52 0z"/><g opacity=".5" fill="#FF9D03"><path d="M43.8 18.4c0 .5-.4.9-.9.9H9.7c-.5 0-.9-.4-.9-.9s.4-.9.9-.9l33.2-.1c.5.1.9.5.9 1zM43.8 23.7c0 .5-.4.9-.9.9H9.8c-.5 0-.9-.4-.9-.9s.4-.9.9-.9l33.2-.1c.4.1.8.5.8 1zM43.8 29c0 .5-.4.9-.9.9L9.8 30c-.5 0-.9-.4-.9-.9s.4-.9.9-.9l33.2-.1c.4.1.8.4.8.9zM43.8 34.4c0 .5-.4.9-.9.9H9.8c-.5 0-.9-.4-.9-.9s.4-.9.9-.9l33.2-.1c.4.1.8.5.8 1zM43.8 40.4c0 .5-.4.9-.9.9l-33.1.1c-.5 0-.9-.4-.9-.9s.4-.9.9-.9H43c.4 0 .8.4.8.8zM43.8 45.9c0 .5-.4.9-.9.9H9.7c-.5 0-.9-.4-.9-.9s.4-.9.9-.9h33.2c.5 0 .9.4.9.9zM43.8 51.2c0 .5-.4.9-.9.9H9.7c-.5 0-.9-.4-.9-.9s.4-.9.9-.9l33.2-.1c.5.1.9.5.9 1zM43.8 56.5c0 .5-.4.9-.9.9H9.7c-.5 0-.9-.4-.9-.9s.4-.9.9-.9l33.2-.1c.5.1.9.5.9 1zM43.8 61.8c0 .5-.4.9-.9.9H9.8c-.5 0-.9-.4-.9-.9s.4-.9.9-.9l33.2-.1c.4.1.8.5.8 1z"/></g><path fill="#EDC096" d="M12.2 12.3H0L12.2.1z"/><g fill="none" stroke="#1A1A1A" stroke-width="2.246" stroke-miterlimit="10"><path d="M19.2 19.9v-8.4M19.2 45.6v-8.5"/><g><path d="M10.6 28.5H2.1M36.2 28.5h-8.4"/></g></g><ellipse transform="rotate(-44.976 19.186 28.528)" opacity=".2" fill="#3FA9F5" cx="19.2" cy="28.5" rx="17" ry="17"/><path fill="#103754" d="M32.5 41.8c-7.3 7.3-19.3 7.3-26.6 0-7.3-7.3-7.3-19.3 0-26.6 7.3-7.3 19.3-7.3 26.6 0 7.3 7.4 7.3 19.3 0 26.6zM8.4 17.7c-6 5.9-6 15.6 0 21.6 5.9 6 15.6 6 21.6 0 6-5.9 6-15.6 0-21.6-6-5.9-15.6-5.9-21.6 0z"/><g fill="#103754"><path d="M31.2 40.6l12.1 12M29.997 41.827l2.476-2.473L44.49 51.38l-2.477 2.473z"/></g><path fill="#F1A100" d="M61 70.4c-2 2-5.1 2-7 .1L36.5 52.8c-1.9-1.9-1.9-5 0-6.9l.1-.1c1.9-1.9 5-1.9 6.9 0L61 63.4c2 1.9 2 5 0 7z"/><path opacity=".2" d="M36.5 45.8L61 70.4c1.9-1.9 1.9-5 0-6.9L43.5 45.8c-1.9-1.9-5-1.9-7 0z"/><g opacity=".5" fill="#FFF"><path d="M8.5 32.4c-1.5-4-.6-8.7 2.6-12M9.8 33.7c-.2.2-.4.3-.6.4-.9.3-1.9-.1-2.3-1.1-1.8-4.8-.6-10.2 3-13.8.7-.7 1.8-.7 2.5 0s.7 1.8 0 2.5c-2.6 2.6-3.5 6.6-2.2 10.1.2.7 0 1.4-.4 1.9z"/></g><circle fill="#F54E41" cx="19.2" cy="28.5" r="2.5"/></svg>