<svg xmlns="http://www.w3.org/2000/svg" width="138" height="120" viewBox="0 0 138 120"><defs><clipPath id="a"><path fill="none" d="M0 .03h138v120H0z"/></clipPath><clipPath id="b"><path fill="none" d="M96.38 56.89h4.52v.9h-4.52z"/></clipPath><clipPath id="c"><circle data-name="&lt;Обтравочный контур&gt;" cx="85.67" cy="36.79" r="5.46" fill="none"/></clipPath><clipPath id="d"><circle data-name="&lt;Обтравочный контур&gt;" cx="111.58" cy="36.79" r="5.46" fill="none"/></clipPath><clipPath id="e"><path fill="none" d="M-206-290.97H44v222h-250z"/></clipPath></defs><title>для баннера 218</title><g data-name="Слой 1" style="isolation:isolate"><g clip-path="url(#a)"><path d="M128 111.69H82.77a2.6 2.6 0 0 1 0-5.19h37.71a5.14 5.14 0 0 0-.82-10.21H112l.2-.1H91.58a5.16 5.16 0 1 1 0-10.32h20.15a5.16 5.16 0 0 0-1.72-10H53.28a2.52 2.52 0 0 0-.78 4.91h4.08a2.66 2.66 0 1 1 0 5.31h-7.85.1-29.48a2.56 2.56 0 0 0 0 5.12h8.49a2.57 2.57 0 1 1 0 5.13H22a5.14 5.14 0 0 0 1 10.19h30.2a2.56 2.56 0 0 1 0 5.12H32a4.94 4.94 0 0 0 0 9.88h6.19a2.77 2.77 0 0 0 .39 0h6.5a2.56 2.56 0 0 0 .46 5.08h51.9a2.56 2.56 0 0 0 .46-5.08H73.35a2.39 2.39 0 1 1 0-4.79H128a2.56 2.56 0 0 0 0-5.12z" fill="#7e7e7e" opacity=".2"/><circle cx="99.53" cy="123.67" r="61.33" fill="#76d9fc"/><path d="M69.43 118.29c.1.09.16.23.25.25h.13c.61.17 1.2-.44.74-.48a2.47 2.47 0 0 0-1.12.23zM83.63 112.94c-1 .16-1.2.81.88 2.25.26-.07 2.05-.48 1 .61 3.25-1.94-.22-3.16-1.88-2.86zM83.63 99.08c3.49-1.42 4.3-10.61.14-10.34a2.75 2.75 0 0 0-.88.26c1.74 3.21-2.27 7.3.74 10.08zM123.7 106.7c.28-1.92-2.77-3.33-4.15-3.25-.8.06-1 .63.52 2-1.37 3.27 2.31 3.44 3.63 1.25zM92.5 82.77c1-.47 1.49-2.14 0-2.14a2.22 2.22 0 0 0-.74-.13 7.28 7.28 0 0 0-.74.13c-2.94.58-2.02 5.46 1.48 2.14z" fill="#00a936" fill-rule="evenodd"/><path d="M96.62 81.62c-4.26.54-8.56 4.65-4.6 8.72 2.84 3.54-4.1 10.77 2.48 12.63 2.61-5.84 9.76-10.47 8-17.59-.74-3.04-3.31-4.08-5.88-3.76z" fill="#00a936" fill-rule="evenodd"/><path d="M89.27 166c-6.31-4.19-10.87-10.6-18-13.73-5.78-5.61-18.82-2.12-18.58-12.74.6-5-3.44-7.47-6.48-9.84-2.33-7.8 11.89-10.67 12.1-2.13 4.68-.24 6.33-8.41 11.73-9.59 2.79-2.42 10.32.18 7.6-4.76 2.7-2.56 10.6-2.47 6.73-8.47-1.3-5.84-8.48-8.66-10.84-2-6.5 1.74-3.88-12.36 2.73-10.48 4.79.28 4.14-3.89 1.24-5.23 0-.21-.06-.32-.24-.14a4.28 4.28 0 0 0-1.74-.37c-6.48-3.58 6.49-12.71-2.1-15.6-9.42 8.02-23.79 20.69-29.55 32.53-2.6 7.43-2.16 14.9-1.86 22.71 2.64 7.56 7.76 13.8 11.85 20.57 2.61 3.27 1.36 7 1.16 10.62-.07 0 0 .11 0 .12a7.39 7.39 0 0 0 2 6.1c3.19 4.12 7.84 7.38 10.11 12.13a60.87 60.87 0 0 0 16.75 7.22c.65-.3 2-.68 6.71-1.14v-.13c0-1.42 6.55-3.49 9.79-5.89 5.44-6.49-5.7-11.69-11.11-9.76zM146.27 163.34a61.07 61.07 0 0 0 14.59-39.66c0-1.69-.12-3.35-.25-5 0-.41-.07-.83-.12-1.24-3.5 1.92-9.74-8.63-3.36-3.61a4.06 4.06 0 0 0 2.62-1 62.12 62.12 0 0 0-3.13-11.12 15.47 15.47 0 0 0-1.74-1.86 12.38 12.38 0 0 0-.13-2.24v-.14a61.71 61.71 0 0 0-55.5-34.78c-1.66 0-3.36.1-5 .24a23.4 23.4 0 0 1-2.76.38c-.33 0-.66.07-1 .13a60.72 60.72 0 0 0-10 2.11c8.43-.62 17.09-.4 24.69 3.38 2 6.46 14 .13 13.46 7.34.09.1.28.27.38.39-.19.14.14 1.46.38.35 2.08 2.36 6.46 7.24 1.86 6.63-6.09-.83-4.51 11.17-.12 13.35 4.18 2.25 6.53-2.27 2.24-4.49-.58-5.63 9.38 3.46 5 6.47-.18.12-.32.26-.49.39.2-.81-.29 0-.27.14-5 3.62-2.15 12.15-4.09 17.83-3.46 7.68 8.65 4.29 6.85-1.75-2.22-5.56 9.21-3 6.74-7 6.93 3.68 6.28-6.2 3.38-9.49 1.35-5.28 4.91.62 3.23 3.49.27 2.72 2.62 3.34 4.5 4.12a1 1 0 0 0 .37.12c1.64.79 2.63 1.79.86 4.88-2 6.86-8.94 7.24-14.58 6-5.71 2.36-6.77 9.3-10 14-3.19 5.83-5.85 14.42-.11 19.58 5.49 5.27 11.8.7 16.34-2.87 8.72-1.13 9.52 9.14 5.23 14.37 0 .22-.04.36-.07.56z" fill="#00a936"/><g opacity=".2" fill="#010000"><path d="M41.18 104.77v.12a4.07 4.07 0 0 0 1.07-.12z"/><path d="M156.26 142.15a.31.31 0 0 1 .05-.2c-.1.13-1 1.05-8 2.08a72.4 72.4 0 0 0 2.87-19.56h9.34v-1.85h-9.34a72.27 72.27 0 0 0-3-19.73c7.08 1 8 2 8.1 2.08a.31.31 0 0 1-.05-.2h1.67c-.13-.4-.27-.79-.41-1.19-.74-.68-2.24-1.24-4.71-1.77-1.44-.31-3.19-.61-5.23-.88a64.45 64.45 0 0 0-10.08-19.15 42.13 42.13 0 0 1 10.09 3.75c-.94-1.17-1.9-2.32-2.93-3.43a60.83 60.83 0 0 0-7.68-2.37l-1.4-.33a50.19 50.19 0 0 0-23.91-15.87 61.41 61.41 0 0 0-25.48.29 50.43 50.43 0 0 0-23 15.56l-1.47.35a62.24 62.24 0 0 0-7 2.12c-1 1.06-1.94 2.16-2.86 3.29a45.63 45.63 0 0 1 9.44-3.38 64.69 64.69 0 0 0-10.08 19.14c-2.16.28-4 .59-5.52.92a15.75 15.75 0 0 0-3.89 1.18c-.18.48-.34 1-.5 1.45 1.74-.41 4.8-1 9.29-1.64a72.27 72.27 0 0 0-3 19.77h-9.33v1.85h9.33a72.44 72.44 0 0 0 2.88 19.59c-7.23-1-8.17-2-8.27-2.11a.38.38 0 0 1 0 .2H41c.18.56.37 1.11.56 1.66a15.15 15.15 0 0 0 4.06 1.3q2.23.48 5.38.9a65.15 65.15 0 0 0 9.24 18.25 37.39 37.39 0 0 1-9.95-4c.92 1.23 1.89 2.41 2.89 3.57a58.85 58.85 0 0 0 8.46 2.69l.42.1A50.94 50.94 0 0 0 86 183.49a61.34 61.34 0 0 0 25.55.32 50.61 50.61 0 0 0 25.06-17.2l.27-.06a55.57 55.57 0 0 0 9.22-3c1.07-1.26 2.1-2.56 3.07-3.9-2.12 1.65-5.81 3.24-10.74 4.6a65.33 65.33 0 0 0 9.25-18.25c2-.28 3.71-.57 5.14-.87 2.64-.57 4.17-1.16 4.85-1.92.12-.35.24-.69.35-1zm-63.9-77.92c-3.36 2.41-6.44 6.57-9.11 12.29a147.89 147.89 0 0 0-17 2.23c7.17-7.64 16.17-12.85 26.11-14.52zM64.17 81.07a139.14 139.14 0 0 1 18.22-2.62c-.25.57-.49 1.16-.73 1.76a97.74 97.74 0 0 0-5 18.78c-6.81.25-13.07.64-18.46 1.13q-2.68.25-5 .52a62.34 62.34 0 0 1 10.97-19.57zm-11.6 21.51c2-.24 4.31-.48 7.11-.73 4.94-.42 10.58-.75 16.66-1a148.93 148.93 0 0 0-1.7 21.76H49.39a70.57 70.57 0 0 1 3.18-20.02zm-3.18 21.89h25.25a149.76 149.76 0 0 0 1.64 21.6c-6.05-.24-11.67-.57-16.59-1-2.86-.25-5.24-.5-7.24-.75a70.37 70.37 0 0 1-3.06-19.85zm3.67 21.8c1.57.19 3.28.36 5.13.53 5.37.49 11.6.87 18.39 1.13a97.55 97.55 0 0 0 5.09 19.19l.27.67A133.47 133.47 0 0 1 63.13 165a62.66 62.66 0 0 1-10.07-18.72zm12 21a146.66 146.66 0 0 0 17.69 2.42c2.77 6.28 6 10.82 9.6 13.39-10.47-1.74-19.93-7.43-27.28-15.76zm33.37 16.34c-5-.52-9.72-5.34-13.61-13.77 4.38.3 8.95.46 13.61.48zm0-15.15c-5 0-9.81-.2-14.45-.54-.21-.5-.42-1-.62-1.54A95.21 95.21 0 0 1 78.44 148c6.31.22 13.06.34 20 .34zm0-22c-7 0-13.9-.13-20.3-.35a147.11 147.11 0 0 1-1.67-21.66h22zm0-23.87h-22a145.79 145.79 0 0 1 1.77-21.79c6.39-.22 13.23-.35 20.24-.36zm0-24a573 573 0 0 0-19.93.35 93.88 93.88 0 0 1 4.86-18c.35-.91.72-1.78 1.09-2.61 4.48-.32 9.18-.49 14-.51zm0-22.66c-4.48 0-8.87.17-13.09.45 3.79-7.76 8.33-12.19 13.09-12.69zm50.88 46.7h-25.23a148.64 148.64 0 0 0-1.7-21.75c6 .24 11.52.57 16.38 1 2.94.25 5.38.52 7.41.77a70.33 70.33 0 0 1 3.15 19.97zm-3.8-21.94c-1.61-.2-3.37-.37-5.28-.56-5.31-.48-11.47-.86-18.17-1.12a97.55 97.55 0 0 0-5-18.79c-.23-.6-.47-1.18-.72-1.76a139.2 139.2 0 0 1 18.23 2.63 62.13 62.13 0 0 1 10.95 19.59zm-13-21.91a149.43 149.43 0 0 0-17-2.24c-2.66-5.72-5.76-9.88-9.11-12.29a46.67 46.67 0 0 1 26.09 14.51zm-32.24-15.1c4.77.5 9.31 4.93 13.09 12.69-4.22-.28-8.61-.44-13.09-.45zm0 14.1c4.8 0 9.49.19 14 .52.37.84.73 1.71 1.09 2.61a94.47 94.47 0 0 1 4.86 18c-6.29-.22-13-.34-19.93-.35zm0 22.66c7 0 13.86.14 20.25.37a146.42 146.42 0 0 1 1.73 21.81h-22zm0 24h22a145.88 145.88 0 0 1-1.67 21.65c-6.41.24-13.27.36-20.31.36zm0 23.88c6.94 0 13.69-.13 20-.35a95.54 95.54 0 0 1-4.93 18.43c-.21.52-.4 1-.62 1.52-4.63.35-9.49.53-14.45.55zm0 22c4.67 0 9.23-.19 13.61-.49-3.89 8.43-8.63 13.25-13.61 13.77zm6.08 12.74c3.56-2.57 6.83-7.1 9.61-13.39a146.61 146.61 0 0 0 17.7-2.44c-7.34 8.41-16.81 14.11-27.3 15.89zm29.25-18.17a131.76 131.76 0 0 1-18.83 2.85l.27-.66a97.23 97.23 0 0 0 5.1-19.2c6.69-.27 12.84-.64 18.15-1.12 1.94-.18 3.73-.37 5.37-.56a62.49 62.49 0 0 1-10.05 18.75zm10.69-20.65c-2.05.26-4.52.52-7.49.79-4.86.4-10.4.74-16.36 1a149.17 149.17 0 0 0 1.63-21.59h25.25a70.52 70.52 0 0 1-3.02 19.85z"/></g><g opacity=".2" fill="#010000"><path d="M49.94 94.56l12.51 52.93 14.94 2.6-4.11-57.05M147.87 94.56l-12.51 52.93-14.95 2.6 4.12-57.05"/></g><path fill="#7f7f7f" d="M130.69 146.02H66.43l-4.42-56.03h73.11l-4.43 56.03z"/><path d="M97.71 59.2l1.26.09 13.3-1s23.15 10.16 25.4 11.19a10.67 10.67 0 0 1 5.52 5.69c1.31 2.73 4.29 15.82 5.59 21.56l-51.07 4.66z" fill="#7f7f7f"/><path d="M99.48 59.2l-1.11.09-13.22-1S62 68.43 59.79 69.45a10.64 10.64 0 0 0-5.51 5.69C53 77.87 45.46 90.26 44.17 96l55.31 5.36z" fill="#7f7f7f"/><path fill="#f4c6a7" d="M83.06 53.06h30.92v32.02H83.06z"/><path fill="#e4e4e4" d="M98.71 74.28L77.75 61.8l16.09 54.43 4.76 4.64 4.75-7.35 7.77-15.99 8.59-35.73-21 12.48z"/><path fill="#2975b8" d="M107.84 69.91H89.66l7.69 10.95-3.77 29.72 3.91 9.43 2.8-1.18 4.27-8.4-4.42-29.57 7.7-10.95z"/><path opacity=".2" d="M114.71 59.04l5.03 2.5-9.8 22.15L98.9 69.91l15.81-10.87z"/><path fill="#fff" d="M114.71 59.04l5.06 2.36-9.69 19.13L98.9 69.91l15.81-10.87z"/><path opacity=".2" d="M83.14 59.67l-5.27 2.82 9.69 21.2L98.9 69.91 83.14 59.67z"/><path fill="#fff" d="M82.79 59.04l-5.07 2.36 9.7 19.13L98.6 69.91 82.79 59.04zM105.87 49c0 2.26-3.19 4.11-7.12 4.11s-7.12-1.83-7.12-4.11 3.19-.27 7.12-.27 7.12-2 7.12.27"/><path data-name="&lt;Контур&gt;" d="M77.47 32.46l-1.38 1.11a20.76 20.76 0 0 0-5.62 7.08L49.29 84.32l25-28 3.95-11.44z" fill="#f4c6a7"/><path d="M75.86 45.16z" fill="#010000" opacity=".3" style="mix-blend-mode:overlay"/><path d="M77.44 46.9l.08.09-1 3-.6-4.76.31.53a3 3 0 0 0 1.21 1.14z" fill="#010000" opacity=".1"/><path fill="#010000" opacity=".3" style="mix-blend-mode:overlay" d="M75.87 45.19v.01l-.01-.01h.01z"/><g data-name="&lt;Группа&gt;"><path data-name="&lt;Контур&gt;" fill="#f4c6a7" d="M87.82 44.14h21.44v13.93H87.82z"/><g data-name="&lt;Группа&gt;"><path data-name="&lt;Контур&gt;" d="M78.62 41.06a1.47 1.47 0 0 0 1.6 1.33h.17a1.47 1.47 0 0 0 1.33-1.6l-.59-6.37a1.47 1.47 0 0 0-1.6-1.33h-.17a1.47 1.47 0 0 0-1.36 1.6z" fill="#f4c6a7"/><g data-name="&lt;Группа&gt;"><path data-name="&lt;Контур&gt;" d="M118.77 41.06a1.47 1.47 0 0 1-1.6 1.33H117a1.47 1.47 0 0 1-1.33-1.6l.59-6.37a1.47 1.47 0 0 1 1.6-1.33h.17a1.47 1.47 0 0 1 1.33 1.6z" fill="#f4c6a7"/><path data-name="&lt;Контур&gt;" d="M110 55.08H87.33v3.35a15.55 15.55 0 0 0 22.62.2z" fill="#14120e" opacity=".2"/><g clip-path="url(#b)" data-name="&lt;Группа обтравки&gt;"><path data-name="&lt;Контур&gt;" d="M101.08 57.46a5.09 5.09 0 0 1-2.35.29 5.07 5.07 0 0 1-2.34-.29 5 5 0 0 1 2.34-.29 5 5 0 0 1 2.35.29" fill="#14120e"/></g><path data-name="&lt;Контур&gt;" d="M98.61 11.86h-.43c-10.44 0-18.9 11.4-18.9 25.47 1.12 7.84 3.59 17 6 19.41 3.66 3.65 9.54 5.62 12.84 4.79h.37c3.31.83 9.32-1.14 13-4.79 2.4-2.4 4.91-11.57 6-19.41-.01-14.07-8.44-25.47-18.88-25.47z" fill="#f4c6a7"/><path data-name="&lt;Контур&gt;" d="M92.63 45a4.39 4.39 0 1 1-4.39-4.4 4.39 4.39 0 0 1 4.39 4.4z" fill="#e99384"/><circle data-name="&lt;Контур&gt;" cx="108.51" cy="44.99" r="4.4" fill="#e99384"/><path data-name="&lt;Контур&gt;" d="M111.67 36.53c0 1-2 1.73-4.45 1.73s-4.46-.78-4.46-1.73 2-1.73 4.46-1.73 4.45.78 4.45 1.73M93.33 36.53c0 1-2 1.73-4.46 1.73s-4.46-.78-4.46-1.73 2-1.73 4.46-1.73 4.46.78 4.46 1.73" fill="#fff"/><path data-name="&lt;Контур&gt;" d="M100.9 45.72a2.17 2.17 0 0 1-2.23 2.09h-.06a2.17 2.17 0 0 1-2.23-2.09v-9.39a2.17 2.17 0 0 1 2.23-2.09h.06a2.17 2.17 0 0 1 2.23 2.09z" fill="#14120e" opacity=".2"/><path data-name="&lt;Контур&gt;" d="M89.53 36.1a.33.33 0 1 1-.33-.33.33.33 0 0 1 .33.33" fill="#fff"/><path data-name="&lt;Контур&gt;" d="M108.39 36.52a1.26 1.26 0 1 1-1.26-1.27 1.26 1.26 0 0 1 1.26 1.27" fill="#422902"/><path data-name="&lt;Контур&gt;" d="M107 36a.38.38 0 1 1-.38-.38.38.38 0 0 1 .38.38" fill="#fff"/><path data-name="&lt;Контур&gt;" d="M90.13 36.52a1.26 1.26 0 1 1-1.26-1.27 1.26 1.26 0 0 1 1.26 1.27" fill="#422902"/><path data-name="&lt;Контур&gt;" d="M88.76 36a.38.38 0 1 1-.38-.38.38.38 0 0 1 .38.38" fill="#fff"/><path data-name="&lt;Контур&gt;" d="M93.33 32.17a1.05 1.05 0 0 1-1.15.94l-7-.17a1.06 1.06 0 0 1-1.1-1A1.06 1.06 0 0 1 85.2 31l7 .18a1.06 1.06 0 0 1 1.1 1zM113 32.17a1.05 1.05 0 0 1-1.15.94l-7-.17a1.05 1.05 0 0 1-1.1-1 1.06 1.06 0 0 1 1.15-.94l7 .18a1.06 1.06 0 0 1 1.1 1z" fill="#422902"/><ellipse data-name="&lt;Контур&gt;" cx="98.73" cy="57.21" rx="2.29" ry=".52" fill="#14120e" opacity=".2"/><path data-name="&lt;Контур&gt;" d="M80.73 35.45C80 31.29 83.82 21.8 84.29 21.1c2.36 1.1 7.07 1.38 7.86.66 1.89 1.42 6.62 4.81 13.48.71a10.36 10.36 0 0 1 6.23-1.73c.47.08 4 9.54 4 15.36a4.81 4.81 0 0 1 .92 1.15s1.65-19.16-.24-21a29.61 29.61 0 0 0-8.45-6.09c-3.55-1.5-4.73-4-4.73-4.73a7.73 7.73 0 0 0-.08 3.7c-2.84-2.13-4.6-5.11-4.51-7-2.43 0-7.63 4-8.58 5.24-1.5-.16-8.91 5.68-10.25 8.28s-.63 19.63 0 20.83a2 2 0 0 1 .79-1.03z" fill="#77513b"/><path data-name="&lt;Контур&gt;" d="M81.18 55c0 6.77 12.15 12.72 17.39 12.72h.15c5.39 0 16.77-6.65 16.77-13.42V47c0-4.66-5.65 2.21-15 2.21h-1.38c-10.52 0-17.84-8-18-3.38z" fill="#010000" opacity=".1"/><path data-name="&lt;Контур&gt;" d="M81.18 53.43C81.18 60.2 93.33 66 98.57 66h.15c5.39 0 16.77-6.29 16.77-13.06v-7.4c0-4.66-5.65 3.65-15 3.65h-1.38c-10.52 0-17.84-8.83-18-4.19z" fill="#77513b"/><path data-name="&lt;Контур&gt;" d="M106 50.32c0 2.33-3.28 4.22-7.33 4.22s-7.33-1.9-7.33-4.22 3.3-.32 7.35-.32 7.31-2 7.31.32" fill="#fff"/><g data-name="&lt;Группа&gt;" fill="#63402e"><path data-name="&lt;Контур&gt;" d="M116.4 41.36s-5.95 8.16-15.61 4.27c-4.28 0-3.75 4.18-.64 4.66 5.24.82 16.34.15 16.26-8.54"/><path data-name="&lt;Контур&gt;" d="M81 41.36s5.95 8.16 15.61 4.27c4.27 0 3.74 4.18.64 4.66-5.24.82-16.34.15-16.26-8.54"/></g><rect data-name="&lt;Контур&gt;" x="96.38" y="32.46" width="4.52" height="14.47" rx="2.23" ry="2.23" fill="#e99384"/></g></g></g><path data-name="&lt;Контур&gt;" d="M119.54 32.46l1.38 1.11a20.76 20.76 0 0 1 5.63 7.08l21.18 43.67-25-28-3.95-11.44z" fill="#f4c6a7"/><path data-name="&lt;Контур&gt;" d="M123.31 34.85l-1.65-4.1a5.37 5.37 0 0 0-2.66-2.82l-3.33-1.63a8.4 8.4 0 0 0-6.8-.26 15.84 15.84 0 0 0-4.76 2.52l-1.64 1.6a.9.9 0 0 0-.14 1.11 2.08 2.08 0 0 0 2.2.24l2.29-2c.94-.81 2.09.24 3.32.06l.25.81c1.5-.21 1.76.42 3 1.22l1.31.32c1.07.67.05 1.31.58 2.46l.83.71c.81 1.8.41.94-.5 2.69l-.33 1c-.46.89.35 1.15-.46 1.74l-1.06.62c-1.88 1.37-2.25 3.14-4.55 2.78l-1.46-.23-.67-.28a1.16 1.16 0 0 0-1.58.79v.4l.34.12 3.47.48a13.12 13.12 0 0 1 4.37 1.43l.42.22a6.08 6.08 0 0 0 4.12.59 3.2 3.2 0 0 0 2.1-1.5l2.37-4a8.05 8.05 0 0 0 .62-7.09z" fill="#010000" opacity=".1"/><g data-name="&lt;Группа&gt;" opacity=".1" fill="#010000"><circle data-name="&lt;Контур&gt;" cx="85.04" cy="36.45" r="5.72"/><path data-name="&lt;Составной контур&gt;" d="M112.2 28.55a7.88 7.88 0 0 0-5.76 2.51 3.2 3.2 0 0 1-.87-1.32h-4.62a2.87 2.87 0 0 0-4.65 0h-4.62a3.2 3.2 0 0 1-.87 1.32 7.91 7.91 0 1 0 .45 10.28A5.73 5.73 0 0 0 96 37.59c1.09-2.54 1.67-2.91 2.63-2.91s1.54.36 2.63 2.91a5.73 5.73 0 0 0 4.74 3.74 7.9 7.9 0 1 0 6.21-12.79zM85 42.18a5.73 5.73 0 1 1 5.73-5.73A5.73 5.73 0 0 1 85 42.18zm27.16 0a5.73 5.73 0 1 1 5.73-5.73 5.73 5.73 0 0 1-5.69 5.73z"/><circle data-name="&lt;Контур&gt;" cx="112.2" cy="36.45" r="5.72"/></g><path data-name="&lt;Контур&gt;" d="M106.38 31.81c-.74-.26-1.13-1.43-1.13-1.43H92s-.39 1.17-1.13 1.43.91 4.6.91 4.6l-.52 5.07a5.41 5.41 0 0 0 4.86-3.6c1-2.43 1.59-2.77 2.51-2.77s1.47.35 2.51 2.77a5.41 5.41 0 0 0 4.86 3.6l-.52-5.07s1.63-4.34.9-4.6z" fill="#0d2a38"/><path data-name="&lt;Контур&gt;" d="M123.57 35.2L122 31.32a5.08 5.08 0 0 0-2.48-2.67l-3.15-1.54a8 8 0 0 0-6.44-.25 15 15 0 0 0-4.51 2.39l-1.55 1.51a.85.85 0 0 0-.13 1.05 2 2 0 0 0 2.09.23l2.17-1.87c.89-.77 2 .22 3.14.06l.24.77c1.42-.2 1.67.4 2.89 1.16l1.24.3c1 .64.05 1.24.55 2.33l.78.67c.77 1.7.38.89-.47 2.55l-.31.93c-.44.84.33 1.09-.43 1.65l-1 .58c-1.78 1.3-2.13 3-4.31 2.64l-1.38-.22-.64-.27a1.1 1.1 0 0 0-1.49.75v.38l.32.12 3.28.46a12.43 12.43 0 0 1 4.14 1.35l.39.21a5.76 5.76 0 0 0 3.91.56 3 3 0 0 0 2-1.43l2.25-3.8a7.63 7.63 0 0 0 .47-6.72z" fill="#f4c6a7"/><path data-name="&lt;Контур&gt;" d="M73.74 34.85l1.65-4.1A5.37 5.37 0 0 1 78 27.93l3.33-1.63a8.4 8.4 0 0 1 6.8-.26 15.84 15.84 0 0 1 4.76 2.52l1.64 1.6a.9.9 0 0 1 .14 1.11 2.08 2.08 0 0 1-2.2.24l-2.29-2c-.94-.81-2.09.24-3.32.06l-.25.81c-1.5-.21-1.76.42-3 1.22l-1.36.4c-1.07.67-.05 1.31-.58 2.46l-.83.71c-.81 1.8-.41.94.5 2.69l.33 1c.46.89-.35 1.15.46 1.74l1.06.62c1.88 1.37 2.25 3.14 4.55 2.78l1.46-.23.67-.28a1.16 1.16 0 0 1 1.58.79v.4l-.34.12-3.47.48a13.12 13.12 0 0 0-4.37 1.43l-.42.22a6.08 6.08 0 0 1-4.12.59 3.2 3.2 0 0 1-2.1-1.5l-2.37-4a8.05 8.05 0 0 1-.52-7.17z" fill="#010000" opacity=".1"/><path data-name="&lt;Контур&gt;" d="M73.48 35.2L75 31.32a5.08 5.08 0 0 1 2.48-2.67l3.15-1.54a8 8 0 0 1 6.44-.25 15 15 0 0 1 4.51 2.39l1.55 1.51a.85.85 0 0 1 .13 1.05 2 2 0 0 1-2.09.23L89 30.17c-.89-.77-2 .22-3.14.06l-.24.77c-1.42-.2-1.67.4-2.89 1.16l-1.24.3c-1 .64-.05 1.24-.55 2.33l-.78.67c-.77 1.7-.38.89.47 2.55l.31.93c.44.84-.33 1.09.43 1.65l1 .58c1.78 1.3 2.13 3 4.31 2.64l1.38-.22.64-.27a1.1 1.1 0 0 1 1.49.75v.38l-.32.12-3.21.43a12.43 12.43 0 0 0-4.14 1.35l-.39.21a5.76 5.76 0 0 1-3.91.56 3 3 0 0 1-2-1.43L74 41.93a7.63 7.63 0 0 1-.52-6.73z" fill="#f4c6a7"/><path data-name="&lt;Контур&gt;" d="M88.75 43.33l-.64.27-1.38.22c-2.17.34-2.53-1.34-4.31-2.64l-1-.58c-.55-.4-.31-.64-.29-1.06a2.45 2.45 0 0 1-1.48-.61 1.83 1.83 0 0 0-.61-.06 10.28 10.28 0 0 1-1.67-.09 7.88 7.88 0 0 1-.94-.17c.3 1.09.57 2.18.91 3.25a2.63 2.63 0 0 1-1.44 3.34l.32.54a3 3 0 0 0 2 1.43 5.76 5.76 0 0 0 3.91-.56l.39-.21a12.43 12.43 0 0 1 4.14-1.4l3.28-.46.32-.12v-.38a1.1 1.1 0 0 0-1.51-.71z" fill="#010000" opacity=".1"/><path data-name="&lt;Контур&gt;" d="M78.12 36.79s1.85 5.76-2.21 8.4a10.31 10.31 0 0 1-1.3-7.4c.97-3.94 3.51-1 3.51-1z" fill="#f4c6a7"/><g clip-path="url(#c)"><path fill="#a0d7e8" d="M78.12 28.63h15.61v16.52H78.12z"/><path fill="#f54e41" d="M80.87 38.91h1.88v3.57h-1.88zM83.48 37.81h1.88v4.68h-1.88zM86.08 38.8h1.88v3.68h-1.88zM88.69 36.85h1.88v5.63h-1.88z"/></g><path data-name="&lt;Составной контур&gt;" d="M85.67 31.33a5.46 5.46 0 1 1-5.46 5.46 5.47 5.47 0 0 1 5.46-5.46m0-2.08a7.54 7.54 0 1 0 7.54 7.54 7.54 7.54 0 0 0-7.54-7.54z" fill="#264e66"/><circle data-name="&lt;Контур&gt;" cx="98.62" cy="32.01" r="2.76" fill="#264e66"/><circle data-name="&lt;Контур&gt;" cx="98.62" cy="32.01" r="1.78" fill="#0d2a38"/><g clip-path="url(#d)"><path fill="#a0d7e8" d="M104.52 29.88h14.85v14.33h-14.85z"/><path fill="#f54e41" d="M106.91 36.34h1.88v6.14h-1.88zM109.52 37.79h1.88v4.69h-1.88zM112.12 35.1H114v7.38h-1.88zM114.73 31.49h1.88v10.99h-1.88z"/></g><g clip-path="url(#c)" fill="#fff" data-name="&lt;Группа обтравки&gt;" opacity=".5"><path data-name="&lt;Контур&gt;" d="M75.224 43.46l16.83-16.828 1.81 1.81-16.83 16.83zM78.155 47.025l17.14-17.14.814.813-17.142 17.14z"/></g><path data-name="&lt;Контур&gt;" d="M108.3 43.33l.64.27 1.38.22c2.17.34 2.53-1.34 4.31-2.64l1-.58c.55-.4.31-.64.29-1.06a2.45 2.45 0 0 0 1.48-.61 1.83 1.83 0 0 1 .61-.06 10.28 10.28 0 0 0 1.67-.09 7.88 7.88 0 0 0 .94-.17c-.3 1.09-.57 2.18-.91 3.25a2.63 2.63 0 0 0 1.44 3.34l-.32.54a3 3 0 0 1-2 1.43 5.76 5.76 0 0 1-3.91-.56l-.39-.21a12.43 12.43 0 0 0-4.14-1.4l-3.28-.46-.32-.12v-.38a1.1 1.1 0 0 1 1.51-.71z" fill="#010000" opacity=".1"/><path d="M121.14 45.16z" fill="#010000" opacity=".3" style="mix-blend-mode:overlay"/><path d="M119.57 46.9l-.08.09 1 3 .6-4.76-.31.53a3 3 0 0 1-1.21 1.14z" fill="#010000" opacity=".1"/><path fill="#010000" opacity=".3" style="mix-blend-mode:overlay" d="M121.14 45.19l-.01.01.01-.01z"/><path data-name="&lt;Контур&gt;" d="M118.93 36.79s-1.85 5.76 2.21 8.4a10.31 10.31 0 0 0 1.3-7.4c-.97-3.94-3.51-1-3.51-1z" fill="#f4c6a7"/><path data-name="&lt;Составной контур&gt;" d="M111.58 31.33a5.46 5.46 0 1 1-5.46 5.46 5.47 5.47 0 0 1 5.46-5.46m0-2.08a7.54 7.54 0 1 0 7.54 7.54 7.54 7.54 0 0 0-7.54-7.54z" fill="#264e66"/><g clip-path="url(#d)" fill="#fff" data-name="&lt;Группа обтравки&gt;" opacity=".5"><path data-name="&lt;Контур&gt;" d="M101.135 43.46l16.83-16.83 1.81 1.81-16.83 16.83zM104.066 47.034l17.14-17.14.814.813-17.14 17.14z"/></g><path d="M67.87 127.23A63.62 63.62 0 0 1 66 113.68a31.87 31.87 0 0 1 .83-6c.95-5.1.17-7.51-.26-12.68-.09-1.06.66-5.15-.35-5.45s-1.72 1.6-2.08 2.58-.62 1.09-1 2a3.81 3.81 0 0 1-5.47 1.47c-1.21-.88-1.76-2.38-2.51-3.68s-2.06-2.55-3.54-2.3-2.21 1.71-2.81 3a14.33 14.33 0 0 0-1.31 3.77l15.15 1.47 3.8 48.1h1.62a12.87 12.87 0 0 0 .85-3c.96-5.15.08-10.54-1.05-15.73z" fill="#201600" opacity=".1"/><path fill="#fff" d="M64.026 46.923l3.143-5.018 12.423 7.782-3.142 5.017z"/><path opacity=".1" d="M71.258 51.447L74.4 46.43l4.704 2.946-3.143 5.017z"/><path d="M55.45 93a10.35 10.35 0 0 0 1.25-2l21.85-36.38-15.17-9.39-23.63 34.12a10.35 10.35 0 0 0-1.89 2.74 10.42 10.42 0 0 0 17.48 11.06z" fill="#7f7f7f"/><path d="M37.85 82.09a10.52 10.52 0 0 0-.43 1.06 10.42 10.42 0 0 0 17.92 10l.1-.16a10.35 10.35 0 0 0 1.25-2l21.86-36.37-1.18-.73-.28.28a62.91 62.91 0 0 0-10.16 14.29c-1.9 3.66-3.44 7.51-5.59 11A72.86 72.86 0 0 1 54.91 88l-3.36 4a7.29 7.29 0 0 1-2.21 2 5.64 5.64 0 0 1-4.19 0 9.89 9.89 0 0 1-5.33-3.94 9.18 9.18 0 0 1-1.36-6.46 14.53 14.53 0 0 1 .69-2.86c.09-.28.42-.77.22-1a10.32 10.32 0 0 0-1.52 2.32z" fill="#201600" opacity=".1"/><circle cx="63.87" cy="49.96" r="1.52" fill="#201600" opacity=".3"/><circle cx="63.87" cy="49.54" r="1.52" fill="#48443e"/><circle cx="61.42" cy="53.42" r="1.52" fill="#201600" opacity=".3"/><circle cx="61.42" cy="53" r="1.52" fill="#48443e"/><circle cx="58.99" cy="56.75" r="1.52" fill="#201600" opacity=".3"/><circle cx="58.99" cy="56.33" r="1.52" fill="#48443e"/><path d="M129.25 127.23a63.61 63.61 0 0 0 1.84-13.55 31.87 31.87 0 0 0-.83-6c-.95-5.1-.17-7.51.26-12.68.09-1.06-.66-5.15.35-5.45s1.72 1.6 2.08 2.58.62 1.09 1 2a3.81 3.81 0 0 0 5.47 1.47c1.21-.88 1.76-2.38 2.51-3.68s2.06-2.55 3.54-2.3 2.21 1.71 2.81 3a14.33 14.33 0 0 1 1.31 3.77l-15.15 1.47-3.8 48.1h-1.62a12.87 12.87 0 0 1-.85-3c-.93-5.15-.06-10.54 1.08-15.73z" fill="#201600" opacity=".1"/><path fill="#fff" d="M117.788 49.908l12.462-7.77 3.137 5.032-12.46 7.77z"/><path opacity=".1" d="M118.018 49.386l4.703-2.946 3.144 5.017-4.704 2.946z"/><path d="M141.66 93a10.35 10.35 0 0 1-1.25-2l-21.85-36.38 15.18-9.39 23.63 34.12a10.34 10.34 0 0 1 1.89 2.74 10.53 10.53 0 0 1 .43 1.06 10.42 10.42 0 0 1-17.92 10z" fill="#7f7f7f"/><path d="M159.26 82.09a10.53 10.53 0 0 1 .43 1.06 10.42 10.42 0 0 1-17.92 10l-.1-.16a10.35 10.35 0 0 1-1.25-2l-21.86-36.37 1.18-.73.28.28a62.91 62.91 0 0 1 10.17 14.28c1.9 3.66 3.44 7.51 5.59 11A72.85 72.85 0 0 0 142.2 88l3.36 4a7.29 7.29 0 0 0 2.21 2 5.64 5.64 0 0 0 4.23 0 9.89 9.89 0 0 0 5.33-3.94 9.18 9.18 0 0 0 1.36-6.46 14.53 14.53 0 0 0-.69-2.86c-.09-.28-.42-.77-.22-1a10.33 10.33 0 0 1 1.52 2.32z" fill="#201600" opacity=".1"/><circle cx="133.25" cy="49.96" r="1.52" fill="#201600" opacity=".3"/><circle cx="133.25" cy="49.54" r="1.52" fill="#48443e"/><circle cx="135.7" cy="53.42" r="1.52" fill="#201600" opacity=".3"/><circle cx="135.7" cy="53" r="1.52" fill="#48443e"/><circle cx="138.13" cy="56.75" r="1.52" fill="#201600" opacity=".3"/><circle cx="138.13" cy="56.33" r="1.52" fill="#48443e"/><path d="M124.36 89.39l-4.84-8 6.31-1.71-4.17-17.24-1.88-.89-25 68z" fill="#5e5e5e"/><path d="M98 123.32a2.35 2.35 0 0 1 1.82-1.32L77.58 61.54l-1.88.89-4.16 17.24 6.31 1.71-4.84 8z" fill="#5e5e5e"/><path fill="#9dd6ea" d="M54.6 73.36h62.68v41.4H54.6z"/><path fill="gray" d="M54.49 72.86h62.79v5.28H54.49z"/><circle cx="57.37" cy="75.39" r="1.13" fill="#fcd22e"/><circle cx="60.53" cy="75.39" r="1.13" fill="#ff4848"/><path d="M102 75.18a1 1 0 0 0 1 1h11a1 1 0 0 0 1-1 1 1 0 0 0-1-1h-11a1 1 0 0 0-1 1z" fill="#fff" fill-rule="evenodd"/><path fill="none" stroke="#fff" stroke-miterlimit="10" stroke-width="1.82" d="M62.01 109.29l6.41-7.08 5.43 1.62 4.69-6.71 8.4 1.85 2.46-5.48 6.66 3.63 3.7-10.54 8.39-4.47"/><circle cx="96.06" cy="97.12" r="2.05" fill="#2aa449" stroke="#fff" stroke-miterlimit="10" stroke-width="1.82"/><circle cx="100.16" cy="86.58" r="2.05" fill="#2aa449" stroke="#fff" stroke-miterlimit="10" stroke-width="1.82"/><circle cx="89.8" cy="93.65" r="2.05" fill="#2aa449" stroke="#fff" stroke-miterlimit="10" stroke-width="1.82"/><circle cx="108.15" cy="82.12" r="2.05" fill="#2aa449" stroke="#fff" stroke-miterlimit="10" stroke-width="1.82"/><circle cx="86.94" cy="98.68" r="2.05" fill="#2aa449" stroke="#fff" stroke-miterlimit="10" stroke-width="1.82"/><circle cx="78.66" cy="97.12" r="2.05" fill="#2aa449" stroke="#fff" stroke-miterlimit="10" stroke-width="1.82"/><circle cx="73.73" cy="103.83" r="2.05" fill="#2aa449" stroke="#fff" stroke-miterlimit="10" stroke-width="1.82"/><circle cx="68.42" cy="102.78" r="2.05" fill="#2aa449" stroke="#fff" stroke-miterlimit="10" stroke-width="1.82"/><circle cx="62.01" cy="109.29" r="2.05" fill="#2aa449" stroke="#fff" stroke-miterlimit="10" stroke-width="1.82"/><path fill="#f2f2f2" d="M106.2 87.57h2.96v24.8h-2.96zM100.26 90.78h2.96v21.59h-2.96zM94.34 101.58h2.96v10.8h-2.96zM88.42 102.78h2.96v9.59h-2.96zM82.5 102.35h2.96v10.02H82.5zM76.57 101.58h2.96v10.8h-2.96zM70.65 107.24h2.96v5.14h-2.96zM64.73 109.8h2.96v2.57h-2.96z"/><rect x="62.46" y="74.18" width="38.1" height="12.4" rx=".94" ry=".94" fill="#fff"/><path fill="none" stroke="#2aa449" stroke-linecap="round" stroke-miterlimit="10" stroke-width="2.73" d="M63.51 75.18h18.57"/><g opacity=".2" fill="none" stroke="#000" stroke-linecap="round" stroke-miterlimit="10" stroke-width="2.73"><path d="M63.51 77.78h18.57M63.51 80.38h18.57M63.51 82.98h18.57M63.51 85.58h18.57"/></g><path d="M119.27 116.64H52.12V74.12A4.86 4.86 0 0 1 57 69.27h57.45a4.86 4.86 0 0 1 4.85 4.85zM55 113.77h61.43V72.95H55z" fill="#1a1a1a"/><circle cx="85.7" cy="71.11" r=".96" fill="#333"/><circle cx="85.7" cy="71.11" r=".54" fill="#1a1a1a"/><path d="M85 71.79a1 1 0 1 0 1.36-1.36z" fill="#fff" opacity=".1"/><path d="M125.68 120.21h-80a2.58 2.58 0 0 1-2.58-2.58v-1h85.11v1a2.58 2.58 0 0 1-2.53 2.58z" fill="#ccc"/><path d="M93.19 118.42h-15a1.77 1.77 0 0 1-1.77-1.77H95a1.77 1.77 0 0 1-1.81 1.77z" fill="#b3b3b3"/><path d="M57 69.27a4.86 4.86 0 0 0-4.85 4.85v42.52h10.73l47.37-47.37z" fill="#fff" opacity=".3"/><path d="M131.55 102.22l-4.71-29.58a3.53 3.53 0 0 0-5.91-2.21l-23.18 19a3.57 3.57 0 0 0 .74 6.28l7.94 3a38.17 38.17 0 0 1-61 6.88 41.44 41.44 0 0 0 74.1-2l7.37 2.77a3.55 3.55 0 0 0 4.7-4.19z" opacity=".2"/><path d="M135.95 101.33l-4.71-29.57a3.53 3.53 0 0 0-5.93-2.14l-23.16 19a3.54 3.54 0 0 0 .75 6.25l28.39 10.67a3.55 3.55 0 0 0 4.7-4.18z" fill="#ff5046"/><path d="M115.9 80.07a38.17 38.17 0 0 1-66.12 24.63 41.44 41.44 0 0 0 77.48-26.06z" fill="#ff5046"/></g><g clip-path="url(#e)"><path d="M82.42-65.54a129 129 0 0 1-129 129 129 129 0 0 1-129-129 129 129 0 0 1 129-129 129 129 0 0 1 129 129z" fill="#76d9fc"/><path d="M51.73 17.88a128.43 128.43 0 0 0 30.69-83.42c0-3.55-.25-7-.53-10.54-.09-.87-.16-1.75-.26-2.61-7.37 4-20.48-18.15-7.07-7.6a8.54 8.54 0 0 0 5.51-2.07 130.65 130.65 0 0 0-6.59-23.39 32.54 32.54 0 0 0-3.67-3.91 26 26 0 0 0-.26-4.72c-.07-.09.08-.2 0-.29a129.78 129.78 0 0 0-116.73-73.14c-3.5 0-7.06.21-10.52.5a49.2 49.2 0 0 1-5.8.8c-.69.07-1.38.15-2.07.27a127.7 127.7 0 0 0-21 4.43c17.73-1.3 35.94-.83 51.94 7.1 4.22 13.58 29.54.26 28.32 15.45.2.22.58.57.8.82-.4.29.29 3.06.8.75 4.37 5 13.58 15.22 3.92 13.94-12.81-1.75-9.48 23.48-.25 28.07 8.79 4.73 13.73-4.77 4.7-9.44-1.22-11.83 19.72 7.27 10.48 13.6-.37.25-.67.55-1 .81.43-1.7-.61-.1-.58.29C2.08-108.81 8.08-90.88 4-78.93c-7.28 16.16 18.2 9 14.4-3.68C13.73-94.31 37.77-89 32.57-97.3c14.58 7.74 13.2-13 7.11-20 2.84-11.1 10.33 1.3 6.79 7.35.58 5.72 5.5 7 9.46 8.67a2.15 2.15 0 0 0 .78.25c3.45 1.65 5.53 3.77 1.8 10.27-4.28 14.44-18.8 15.23-30.67 12.56-12 5-14.23 19.56-21 29.37C.13-36.52-5.46-18.45 6.6-7.61 18.14 3.48 31.41-6.14 41-13.64 59.32-16 61 5.58 52 16.58c-.12.5-.2.88-.27 1.3z" fill="#00a936"/><g opacity=".2" fill="#010000"><path d="M62.37 3.47h-.14a1.55 1.55 0 0 1 0 .3 2.43 2.43 0 0 0 .14-.3zM72.75-26.68a.66.66 0 0 1 .11-.41c-.22.28-2.16 2.21-16.89 4.36a152.27 152.27 0 0 0 6-41.14h19.69v-3.9H62a152 152 0 0 0-6.3-41.49c14.89 2.15 16.84 4.1 17 4.37a.66.66 0 0 1-.11-.42h3.52c-.28-.83-.56-1.67-.85-2.5-1.55-1.44-4.71-2.6-9.91-3.72-3-.65-6.71-1.29-11-1.85a135.55 135.55 0 0 0-21.2-40.27c9 2.32 16.24 5 21.22 7.88-2-2.47-4-4.88-6.16-7.22a127.94 127.94 0 0 0-16.15-5c-1-.25-2-.46-2.95-.7-13.75-16-31-27.77-50.28-33.37a129.09 129.09 0 0 0-25.43-2.52 129.55 129.55 0 0 0-28.16 3.12c-18.44 5.81-35 17.26-48.27 32.73-1 .25-2.08.48-3.09.73a130.91 130.91 0 0 0-14.82 4.47c-2.08 2.23-4.09 4.55-6 6.92a96 96 0 0 1 19.85-7.12 136.05 136.05 0 0 0-21.19 40.24c-4.55.6-8.43 1.24-11.61 1.93a33.13 33.13 0 0 0-8.18 2.57c-.37 1-.72 2-1 3.05 3.65-.86 10.1-2.1 19.53-3.44a152 152 0 0 0-6.34 41.57h-19.61c0 .73-.07 1.47-.07 2.22 0 .57 0 1.11.05 1.68h19.62a152.36 152.36 0 0 0 6.07 41.2c-15.2-2.17-17.19-4.15-17.4-4.43a.81.81 0 0 1 .1.41h-2.47c.37 1.17.77 2.33 1.18 3.49a31.86 31.86 0 0 0 8.54 2.74q4.69 1 11.32 1.9a137 137 0 0 0 19.42 38.39c-9.13-2.48-16.24-5.35-20.92-8.35 1.93 2.58 4 5.07 6.08 7.5a123.77 123.77 0 0 0 17.79 5.65c.29.07.59.13.88.21 13.6 16.85 30.92 29.28 50.3 35.47a129.77 129.77 0 0 0 28.41 3.18 129.47 129.47 0 0 0 25.32-2.5C-.84 55 17.34 42.27 31.46 24.78c.18 0 .38-.1.57-.13a116.87 116.87 0 0 0 19.39-6.35c2.25-2.65 4.42-5.38 6.47-8.2-4.46 3.47-12.22 6.81-22.6 9.66a137.4 137.4 0 0 0 19.4-38.37c4.19-.58 7.81-1.2 10.81-1.84 5.54-1.2 8.78-2.45 10.2-4 .25-.73.5-1.45.74-2.2zm-134.4-163.88c-7.05 5.07-13.55 13.82-19.16 25.85A311 311 0 0 0-116.6-160c15.1-16.09 34.04-27 54.95-30.56zm-59.29 35.42a292.64 292.64 0 0 1 38.33-5.51c-.53 1.2-1 2.43-1.53 3.7a205.56 205.56 0 0 0-10.57 39.5c-14.33.53-27.49 1.35-38.83 2.37q-5.64.53-10.48 1.09a131.12 131.12 0 0 1 23.08-41.15zm-24.41 45.25c4.14-.5 9.07-1 14.95-1.53 10.38-.88 22.25-1.58 35-2.08a313.23 313.23 0 0 0-3.58 45.76H-152a148.42 148.42 0 0 1 6.65-42.15zm-6.69 46h53.1a315 315 0 0 0 3.44 45.42c-12.73-.5-24.54-1.2-34.9-2.09-6-.53-11-1.05-15.24-1.58A148 148 0 0 1-152-63.86zm7.73 45.89c3.31.4 6.9.76 10.78 1.12 11.29 1 24.41 1.83 38.67 2.38a205.17 205.17 0 0 0 10.72 40.35c.2.48.39.95.58 1.41a280.71 280.71 0 0 1-39.56-5.92A131.78 131.78 0 0 1-144.31-18zM-119 26.25a308.44 308.44 0 0 0 37.2 5.08c5.8 13.22 12.65 22.75 20.15 28.15-22.05-3.73-41.93-15.7-57.35-33.23zm70.18 34.37c-10.46-1.1-20.44-11.23-28.62-29 9.22.63 18.82 1 28.62 1zm0-31.85c-10.43 0-20.64-.42-30.38-1.14-.44-1-.88-2.13-1.3-3.23a200.23 200.23 0 0 1-10.42-38.76c13.27.45 27.46.72 42.05.72zm0-46.32c-14.8 0-29.23-.26-42.7-.75a309.39 309.39 0 0 1-3.51-45.56h46.22zm0-50.2h-46.26a306.61 306.61 0 0 1 3.66-45.9c13.44-.47 27.82-.74 42.56-.75zm0-50.57c-14.55 0-28.68.27-41.91.73a197.45 197.45 0 0 1 10.22-37.9c.74-1.92 1.51-3.73 2.29-5.5 9.43-.67 19.32-1 29.4-1.07zm0-47.65c-9.41 0-18.65.35-27.53 1 8-16.32 17.53-25.63 27.53-26.68zm107 98.22H5.06a312.62 312.62 0 0 0-3.58-45.75c12.57.5 24.23 1.2 34.45 2.07 6.18.54 11.3 1.08 15.57 1.62a147.92 147.92 0 0 1 6.65 42.05zm-8-46.15c-3.39-.42-7.08-.78-11.1-1.17-11.17-1-24.13-1.8-38.22-2.35a205.17 205.17 0 0 0-10.6-39.52c-.48-1.25-1-2.48-1.5-3.7a292.76 292.76 0 0 1 38.34 5.54 130.67 130.67 0 0 1 23.06 41.19zM22.75-160a314.28 314.28 0 0 0-35.8-4.72c-5.6-12-12.11-20.79-19.16-25.85C-11.3-187 7.66-176.08 22.75-160zM-45-191.71c10 1 19.58 10.37 27.53 26.68-8.87-.58-18.12-.92-27.53-1zm0 29.65c10.1 0 20 .4 29.41 1.08.79 1.77 1.54 3.59 2.29 5.48a198.7 198.7 0 0 1 10.21 37.92c-13.22-.46-27.36-.72-41.92-.74zm0 47.65c14.76 0 29.15.3 42.58.78a307.94 307.94 0 0 1 3.63 45.87H-45zm0 50.55H1.21A306.82 306.82 0 0 1-2.3-18.32c-13.47.5-27.91.76-42.71.76zm0 50.22c14.61 0 28.8-.27 42.06-.73A200.94 200.94 0 0 1-13.31 24.4c-.43 1.1-.85 2.15-1.3 3.2-9.74.73-20 1.12-30.4 1.17zm0 46.31c9.82 0 19.42-.4 28.62-1-8.18 17.74-18.15 27.87-28.62 29zm12.8 26.8c7.49-5.4 14.37-14.93 20.22-28.17a308.34 308.34 0 0 0 37.22-5.13C9.77 43.75-10.14 55.75-32.21 59.48zm61.51-38.21a277.11 277.11 0 0 1-39.61 6c.18-.47.38-.92.56-1.4A204.5 204.5 0 0 0 1-14.52c14.08-.56 27-1.35 38.18-2.36 4.08-.37 7.85-.77 11.29-1.17a131.44 131.44 0 0 1-21.16 39.31zm22.47-43.44c-4.32.56-9.51 1.1-15.76 1.65-10.22.86-21.86 1.53-34.4 2.08a313.74 313.74 0 0 0 3.43-45.4h53.1a148.32 148.32 0 0 1-6.37 41.67z"/></g></g></g></svg>