<svg baseProfile="basic" xmlns="http://www.w3.org/2000/svg" xmlns:xlink="http://www.w3.org/1999/xlink" width="685" height="364" viewBox="0 0 685 364"><defs><path id="a" d="M0 .6h684.9V364H0z"/></defs><clipPath id="b"><use xlink:href="#a" overflow="visible"/></clipPath><path opacity=".5" clip-path="url(#b)" fill="#FFF" d="M136.4 320h112.3c3.6 0 6.4-2.9 6.4-6.4 0-3.6-2.9-6.4-6.4-6.4H155c-6.1-1-10.7-6.2-10.7-12.6 0-7 5.7-12.8 12.8-12.8H176c-.2-.1-.3-.2-.5-.2h51.3c7.1 0 12.8-5.7 12.8-12.8 0-7.1-5.7-12.8-12.8-12.8h-50c-5-1.8-8.6-6.5-8.6-12.1 0-7.1 5.7-12.8 12.8-12.8h101.2c.4 0 .7 0 1.1.1h38.6c3.5 0 6.3 2.8 6.3 6.3 0 2.8-1.8 5.1-4.3 5.9h-10.1c-3.6 0-6.6 3-6.6 6.6 0 3.6 3 6.6 6.6 6.6h19.5c-.1 0-.2 0-.2.1h73.2c3.5 0 6.4 2.8 6.4 6.4 0 3.5-2.8 6.4-6.4 6.4h-5.5.1H385c-3.5 0-6.4 2.9-6.4 6.4 0 3.5 2.9 6.4 6.4 6.4h14.4c5.9 1.1 10.4 6.3 10.4 12.5 0 7-5.7 12.8-12.8 12.8h-75c-3.5 0-6.4 2.9-6.4 6.4 0 3.5 2.8 6.4 6.4 6.4h52.6c6.8 0 12.3 5.5 12.3 12.3 0 6.8-5.5 12.3-12.3 12.3h-15.4c-.3 0-.6.1-1 .1h-16.1c3 .5 5.2 3.1 5.2 6.3 0 3.5-2.8 6.4-6.4 6.4H212c-3.5 0-6.4-2.8-6.4-6.4 0-3.1 2.3-5.7 5.2-6.3H272c3.3 0 5.9-2.7 5.9-5.9 0-3.3-2.7-5.9-5.9-5.9h-45.8s.1 0 .1-.1h-89.9c-3.5 0-6.4-2.8-6.4-6.4 0-4 2.8-6.8 6.4-6.8z"/><path opacity=".2" clip-path="url(#b)" fill="#FFF" d="M364.4 408.2h-92.3c-.3 0-.7.1-1 .1h-50.7c-4.6 0-8.3-3.7-8.3-8.3 0-4.6 3.7-8.3 8.3-8.3h120.1c7.8-1.3 13.7-8 13.7-16.2 0-9-7.3-16.4-16.4-16.4h-24.2l.6-.3h-65.8c-9.1 0-16.4-7.4-16.4-16.4 0-9.1 7.4-16.4 16.4-16.4h64.2c6.4-2.3 11-8.3 11-15.5 0-9.1-7.4-16.4-16.4-16.4H177.5c-.5 0-.9 0-1.4.1h-49.5c-4.4 0-8 3.6-8 8 0 3.6 2.3 6.6 5.6 7.6h13c4.7 0 8.5 3.8 8.5 8.5s-3.8 8.5-8.5 8.5h-25c.1 0 .2.1.3.1H18.6c-4.5 0-8.2 3.6-8.2 8.2 0 4.5 3.7 8.2 8.2 8.2h7.1-.1 20.1c4.5 0 8.2 3.7 8.2 8.2 0 4.5-3.7 8.2-8.2 8.2H27.1c-7.6 1.4-13.3 8.1-13.3 16.1 0 9 7.3 16.4 16.4 16.4h96.2c4.5 0 8.2 3.7 8.2 8.2 0 4.5-3.6 8.2-8.2 8.2H59c-8.7 0-15.7 7-15.7 15.7S50.3 440 59 440h19.7c.4.1.8.1 1.2.1h20.7c-3.8.7-6.7 4-6.7 8 0 4.5 3.7 8.2 8.2 8.2h165.3c4.5 0 8.2-3.6 8.2-8.2 0-4-2.9-7.3-6.7-8h-78.3c-4.2 0-7.6-3.4-7.6-7.6 0-4.2 3.4-7.6 7.6-7.6h58.7s-.1 0-.1-.1h115.3c4.5 0 8.2-3.7 8.2-8.2-.1-4.7-3.8-8.4-8.3-8.4z"/><path opacity=".3" clip-path="url(#b)" fill="#FFF" d="M689.7 388.8h-92.3c-.3 0-.7.1-1 .1h-50.7c-4.6 0-8.3-3.7-8.3-8.3 0-4.6 3.7-8.3 8.3-8.3h120.1c7.8-1.3 13.7-8 13.7-16.2 0-9-7.3-16.4-16.4-16.4H639l.6-.3h-65.8c-9.1 0-16.4-7.4-16.4-16.4 0-9.1 7.4-16.4 16.4-16.4H638c6.4-2.3 11-8.3 11-15.5 0-9.1-7.4-16.4-16.4-16.4H502.7c-.5 0-.9 0-1.4.1h-49.5c-4.4 0-8 3.6-8 8 0 3.6 2.3 6.6 5.6 7.6h13c4.7 0 8.5 3.8 8.5 8.5s-3.8 8.5-8.5 8.5h-25c.1 0 .2.1.3.1h-93.9c-4.5 0-8.2 3.6-8.2 8.2 0 4.5 3.7 8.2 8.2 8.2h7.1-.1 20.1c4.5 0 8.2 3.7 8.2 8.2 0 4.5-3.7 8.2-8.2 8.2h-18.5c-7.6 1.4-13.3 8.1-13.3 16.1 0 9 7.3 16.4 16.4 16.4h96.2c4.5 0 8.2 3.7 8.2 8.2 0 4.5-3.6 8.2-8.2 8.2h-67.4c-8.7 0-15.7 7-15.7 15.7s7 15.7 15.7 15.7H404c.4.1.8.1 1.2.1h20.7c-3.8.7-6.7 4-6.7 8 0 4.5 3.7 8.2 8.2 8.2h165.3c4.5 0 8.2-3.6 8.2-8.2 0-4-2.9-7.3-6.7-8h-78.3c-4.2 0-7.6-3.4-7.6-7.6 0-4.2 3.4-7.6 7.6-7.6h58.7s-.1 0-.1-.1h115.3c4.5 0 8.2-3.7 8.2-8.2-.2-4.7-3.8-8.4-8.3-8.4z"/><path opacity=".1" clip-path="url(#b)" fill="#FFF" d="M318.4 239.8h112.3c3.6 0 6.4-2.9 6.4-6.4 0-3.6-2.9-6.4-6.4-6.4H337c-6.1-1-10.7-6.2-10.7-12.6 0-7 5.7-12.8 12.8-12.8H358c-.2-.1-.3-.2-.5-.2h51.3c7.1 0 12.8-5.7 12.8-12.8 0-7.1-5.7-12.8-12.8-12.8h-50c-5-1.8-8.6-6.5-8.6-12.1 0-7.1 5.7-12.8 12.8-12.8h101.2c.4 0 .7 0 1.1.1h38.6c3.5 0 6.3 2.8 6.3 6.3 0 2.8-1.8 5.1-4.3 5.9h-10.1c-3.6 0-6.6 3-6.6 6.6 0 3.6 3 6.6 6.6 6.6h19.5c-.1 0-.2 0-.2.1h73.2c3.5 0 6.4 2.8 6.4 6.4 0 3.5-2.8 6.4-6.4 6.4h-5.5.1-15.7c-3.5 0-6.4 2.9-6.4 6.4 0 3.5 2.9 6.4 6.4 6.4h14.4c5.9 1.1 10.4 6.3 10.4 12.5 0 7-5.7 12.8-12.8 12.8h-75c-3.5 0-6.4 2.9-6.4 6.4 0 3.5 2.8 6.4 6.4 6.4h52.6c6.8 0 12.3 5.5 12.3 12.3 0 6.8-5.5 12.3-12.3 12.3h-15.4c-.3 0-.6.1-1 .1h-16.1c3 .5 5.2 3.1 5.2 6.3 0 3.5-2.8 6.4-6.4 6.4H394.2c-3.5 0-6.4-2.8-6.4-6.4 0-3.1 2.3-5.7 5.2-6.3h61c3.3 0 5.9-2.7 5.9-5.9 0-3.3-2.7-5.9-5.9-5.9h-45.8s.1 0 .1-.1h-89.9c-3.5 0-6.4-2.8-6.4-6.4 0-3.9 2.9-6.8 6.4-6.8z"/><g clip-path="url(#b)"><path fill="#76D9FC" d="M540.2 375.2c0 107.9-87.4 195.3-195.3 195.3s-195.3-87.4-195.3-195.3 87.5-195.3 195.3-195.3c107.8 0 195.3 87.5 195.3 195.3z"/><path fill-rule="evenodd" clip-rule="evenodd" fill="#00A936" d="M218.8 413.4c-1.1-.5-2.6-.7-3.6-.9-1.3-.2-2.3-.2-3.2 0-2.7.8-2.8 3.6 4.4 7.9 1.9 2.6 5.4 4.9 8.8 3.6 1.9-5.5-2.1-8.8-6.4-10.3v-.3zM249 358.1c.3.3.5.7.8.8h.4c1.9.6 3.8-1.4 2.4-1.5-.6-.1-1.7 0-3.6.7zM294.2 341.1c-3.1.5-3.8 2.6 2.8 7.2.8-.2 6.5-1.5 3.2 1.9 10.3-6.2-.7-10.1-6-9.1zM294.2 296.9c11.1-4.5 13.7-33.8.4-32.9-.9 0-1.7.4-2.8.8 5.6 10.3-7.2 23.3 2.4 32.1zM421.8 321.2c.9-6.1-8.8-10.6-13.2-10.4-2.6.2-3 2 1.7 6.4-4.4 10.4 7.3 11 11.5 4zM322.5 245c3.2-1.5 4.7-6.8 0-6.8-.9-.2-1.5-.5-2.4-.4-.9 0-1.7.3-2.3.4-9.4 1.8-6.6 17.4 4.7 6.8z"/><path fill-rule="evenodd" clip-rule="evenodd" fill="#00A936" d="M335.6 241.3c-13.6 1.7-27.3 14.8-14.6 27.8 9 11.3-13 34.3 7.9 40.2 8.3-18.6 31.1-33.3 25.4-56-2.3-9.7-10.5-13-18.7-12z"/><path fill="#00A936" d="M312.2 509.9c-20.1-13.3-34.6-33.8-57.2-43.7-18.4-17.9-59.9-6.8-59.2-40.6 1.9-16-11-23.8-20.6-31.3-7.4-24.8 37.9-34 38.5-6.8 14.9-.8 20.1-26.8 37.4-30.6 8.9-7.7 32.9.6 24.2-15.1 8.6-8.2 33.8-7.9 21.4-27-4.1-18.6-27-27.6-34.5-6.4-20.7 5.5-12.4-39.4 8.7-33.4 15.3.9 13.2-12.4 3.9-16.7 0-.7-.2-1-.8-.4-1.7-.6-3.5-1.3-5.6-1.2-20.6-11.4 20.7-40.5-6.7-49.7-30 25.6-75.8 66-94.1 103.7-8.3 23.7-6.9 47.5-5.9 72.3 8.4 24.1 24.7 43.9 37.7 65.5 8.3 10.4 4.3 22.4 3.7 33.8-.2.1.1.4.1.4-.4 6.9.7 13.5 6.5 19.4 10.2 13.1 25 23.5 32.2 38.6 16.3 10.2 34.2 18 53.3 23 2.1-.9 6.3-2.2 21.4-3.6v-.4c0-4.5 20.9-11.1 31.2-18.8 17.1-20.4-18.4-37-35.6-31zM493.7 501.6c28.9-34.1 46.5-78.1 46.5-126.3 0-5.4-.4-10.7-.8-16-.1-1.3-.2-2.6-.4-4-11.2 6.1-31-27.5-10.7-11.5 4-.3 6.5-1.4 8.3-3.1-2.3-12.2-5.5-24.1-10-35.4-2-2.4-3.9-4.6-5.6-5.9.1-2.4-.1-4.8-.4-7.1-.1-.1.1-.3 0-.4-31.8-65.5-99-110.8-176.7-110.8-5.3 0-10.7.3-15.9.8-2.7.6-5.7.9-8.8 1.2-1 .1-2.1.2-3.1.4-11 1.5-21.4 3.5-31.7 6.7 26.9-2 54.4-1.3 78.6 10.8 6.4 20.6 44.7.4 42.9 23.4l1.2 1.2c-.6.4.4 4.6 1.2 1.1 6.6 7.5 20.6 23.1 5.9 21.1-19.4-2.7-14.3 35.6-.4 42.5 13.3 7.2 20.8-7.2 7.1-14.3-1.9-17.9 29.9 11 15.9 20.6-.6.4-1 .8-1.6 1.2.6-2.6-.9-.1-.9.4-15.9 11.5-6.8 38.7-13 56.8-11 24.5 27.6 13.7 21.8-5.6-7.1-17.7 29.3-9.6 21.5-22.2 22.1 11.7 20-19.7 10.8-30.2 4.3-16.8 15.6 2 10.3 11.1.9 8.7 8.3 10.7 14.3 13.1.3.2.6.2 1.2.4 5.2 2.5 8.4 5.7 2.7 15.6-6.5 21.9-28.5 23.1-46.4 19-18.2 7.5-21.6 29.6-31.8 44.5-10.2 18.6-18.6 45.9-.4 62.4 17.5 16.8 37.6 2.2 52.1-9.1 27.8-3.6 30.3 29.1 16.7 45.8-.2.6-.3 1.1-.4 1.8z"/><g opacity=".2" fill="#010000"><path d="M159 315.1c-.1.2-.1.3-.1.4 1.8-.1 3.4-.2 3.4-.4H159zM509.8 479.7h-.2c0 .1 0 .3-.1.4.1-.1.2-.2.3-.4z"/><path d="M525.5 434.1c0-.3.1-.6.2-.6-.3.4-3.3 3.4-25.6 6.6 5.7-19.6 8.9-40.5 9.1-62.3H539v-5.9h-29.8c-.3-22-3.6-43.1-9.5-62.8 22.5 3.3 25.5 6.2 25.8 6.6-.1-.1-.2-.3-.2-.6h5.3c-.4-1.3-.8-2.5-1.3-3.8-2.3-2.2-7.1-3.9-15-5.6-4.6-1-10.2-1.9-16.6-2.8-7.5-22.7-18.5-43.3-32.1-61 13.7 3.5 24.6 7.6 32.1 11.9-3-3.7-6.1-7.4-9.3-10.9-7.8-3.1-16.4-5.6-24.5-7.5-1.5-.4-3-.7-4.5-1.1-20.8-24.3-47-42-76.1-50.5-12.4-2.5-25.3-3.8-38.5-3.8-14.6 0-28.9 1.7-42.6 4.7-27.9 8.8-53 26.1-73.1 49.6-1.6.4-3.2.7-4.7 1.1-7.4 1.8-15.2 4-22.4 6.8-3.2 3.4-6.2 6.9-9.1 10.5 7.5-3.9 17.6-7.6 30.1-10.8-13.6 17.6-24.6 38.2-32.1 60.9-6.9.9-12.8 1.9-17.6 2.9-5.6 1.2-9.7 2.4-12.4 3.9-.6 1.5-1.1 3.1-1.6 4.6 5.5-1.3 15.3-3.2 29.6-5.2-5.9 19.7-9.3 40.9-9.6 63h-29.7c0 1.1-.1 2.2-.1 3.4 0 .9.1 1.7.1 2.5h29.7c.2 21.8 3.5 42.8 9.2 62.4-23-3.3-26-6.3-26.4-6.7 0 0 .2.3.2.6h-3.7c.6 1.8 1.2 3.5 1.8 5.3 2.7 1.5 6.9 2.9 12.9 4.2 4.7 1 10.4 2 17.1 2.9 7 21.5 17 41.1 29.4 58.1-13.8-3.8-24.6-8.1-31.7-12.6 2.9 3.9 6 7.7 9.2 11.4 8.4 3.5 18 6.4 26.9 8.6.4.1.9.2 1.3.3 20.6 25.4 46.8 44.2 76.2 53.6 13.8 3.1 28.2 4.8 43 4.8 13.1 0 25.9-1.3 38.3-3.8 30.9-9 58.4-28.3 79.8-54.8.3-.1.6-.1.9-.2 9.8-2.4 20.4-5.6 29.4-9.6 3.4-4 6.7-8.1 9.8-12.4-6.7 5.2-18.5 10.3-34.2 14.6 12.4-17.1 22.4-36.7 29.4-58.1 6.3-.9 11.8-1.8 16.4-2.8 8.4-1.8 13.3-3.7 15.4-6.1.4-1.1.8-2.2 1.1-3.3h-5.5zM322 185.9c-10.7 7.7-20.5 20.9-29 39.1-19.6 1.5-37.9 3.9-54.2 7.1 22.9-24.3 51.6-40.8 83.2-46.2zm-89.8 53.7c17-3.8 36.7-6.6 58-8.3-.8 1.8-1.6 3.7-2.3 5.6-6.8 17.5-12.2 37.8-16 59.8-21.7.8-41.6 2-58.8 3.6-5.7.5-11 1.1-15.9 1.7 8.3-23.6 20.2-44.8 35-62.4zm-36.9 68.5c6.3-.8 13.7-1.5 22.6-2.3 15.7-1.3 33.7-2.4 53.1-3.2-3.4 21.8-5.3 45.2-5.4 69.3h-80.4c.3-22.4 3.9-43.9 10.1-63.8zm-10.1 69.7h80.4c.1 23.9 1.9 47.1 5.2 68.8-19.3-.8-37.2-1.8-52.8-3.2-9.1-.8-16.7-1.6-23.1-2.4-6.1-19.7-9.5-41-9.7-63.2zm11.7 69.4c5 .6 10.4 1.2 16.3 1.7 17.1 1.6 37 2.8 58.6 3.6 3.8 22.5 9.2 43.2 16.2 61.1l.9 2.1c-22.1-1.9-42.5-4.9-59.9-9-13.6-17-24.6-37.2-32.1-59.5zm38.2 67c16.8 3.5 35.8 6.1 56.3 7.7 8.8 20 19.2 34.4 30.6 42.6-33.4-5.6-63.5-23.7-86.9-50.3zm106.3 52.1c-15.8-1.7-31-17-43.3-43.8 14 1 28.5 1.5 43.3 1.5v42.3zm0-48.3c-15.8 0-31.2-.6-46-1.7-.7-1.6-1.3-3.2-2-4.9-6.7-17.2-12-37.1-15.7-58.7 20.1.7 41.6 1.1 63.7 1.1V518zm0-70.1c-22.4 0-44.3-.4-64.7-1.1-3.4-21.7-5.2-45-5.3-69h70v70.1zm0-76h-70c.2-24.2 2.1-47.7 5.5-69.5 20.3-.7 42.1-1.1 64.4-1.1v70.6zm0-76.6c-22 0-43.4.4-63.5 1.1 3.7-21.1 8.9-40.6 15.5-57.4 1.1-2.9 2.3-5.7 3.5-8.3 14.3-1 29.2-1.6 44.5-1.6v66.2zm0-72.1c-14.3 0-28.2.5-41.7 1.4 12.1-24.7 26.5-38.8 41.7-40.4v39zm162 148.7H423c-.2-24.1-2-47.4-5.4-69.3 19 .8 36.7 1.8 52.2 3.1 9.4.8 17.1 1.6 23.6 2.4 6.2 20 9.7 41.4 10 63.8zM491.3 302c-5.1-.6-10.7-1.2-16.8-1.8-16.9-1.5-36.5-2.7-57.9-3.6-3.8-22-9.2-42.3-16-59.8-.7-1.9-1.5-3.8-2.3-5.6 21.3 1.8 41 4.6 58 8.4 14.9 17.7 26.9 38.9 35 62.4zm-41.5-69.8c-16.3-3.2-34.6-5.6-54.2-7.1-8.5-18.2-18.3-31.5-29-39.1 31.7 5.3 60.4 21.9 83.2 46.2zm-102.6-48c15.2 1.6 29.6 15.7 41.7 40.4-13.4-.9-27.4-1.4-41.7-1.4v-39zm0 44.9c15.3.1 30.2.6 44.5 1.6 1.2 2.7 2.3 5.4 3.5 8.3 6.6 16.8 11.8 36.3 15.5 57.4-20-.7-41.4-1.1-63.5-1.1v-66.2zm0 72.1c22.3.1 44.1.5 64.5 1.2 3.5 21.8 5.3 45.3 5.5 69.5h-70v-70.7zm0 76.6h70c-.1 24-1.9 47.3-5.3 69-20.4.8-42.3 1.2-64.7 1.2v-70.2zm0 76c22.1 0 43.6-.4 63.7-1.1-3.7 21.6-9 41.5-15.7 58.7-.7 1.7-1.3 3.3-2 4.8-14.7 1.1-30.2 1.7-46 1.8v-64.2zm0 70.2c14.9-.1 29.4-.6 43.3-1.6-12.4 26.9-27.5 42.2-43.3 43.9V524zm19.4 40.6c11.3-8.2 21.8-22.6 30.6-42.7 20.5-1.7 39.6-4.3 56.4-7.8-23.4 26.6-53.6 44.8-87 50.5zm93.2-57.9c-17.4 4.1-37.8 7.2-60 9.1.3-.7.6-1.4.8-2.1 7-17.9 12.5-38.6 16.2-61.1 21.3-.9 40.9-2 57.8-3.6 6.2-.6 11.9-1.2 17.1-1.8-7.5 22.2-18.4 42.3-31.9 59.5zm34-65.8c-6.5.8-14.4 1.7-23.9 2.5-15.5 1.3-33.1 2.3-52.1 3.1 3.3-21.7 5.1-44.9 5.2-68.8h80.4c-.2 22.3-3.6 43.5-9.6 63.2z"/></g><g fill="#F14941" stroke="#F14941" stroke-width="8.829" stroke-miterlimit="10"><path d="M170.7 442.3c-1.1.1-2.3-.1-3.4-.7-2.5-1.4-3.3-4.4-1.8-6.8 2.4-3.7 80.6-133.8 121.6-202.1l2.1-3.4 171 39.5L582.3 66.7c1.5-2.5 4.8-3.3 7.4-2.1 2.6 1.3 3.6 4.3 2.1 6.7l-126.2 209-171-39.5c-19.1 31.8-117.5 195.6-119.8 199-.9 1.5-2.5 2.4-4.1 2.5z"/><path d="M552.1 85.4l45.7-34.5-6.5 53.3z"/></g><g opacity=".2" fill="#010000"><path d="M226.8 241.4l30.1 127.7 36.1 6.2-9.9-137.6M463 241.4l-30.2 127.7-36.1 6.2 10-137.6"/></g><path fill="#7F7F7F" d="M421.5 365.5h-155l-10.6-135.1h176.3z"/><path fill="#7F7F7F" d="M342 156.1l3 .2 32.1-2.5s55.8 24.5 61.3 27c5.4 2.5 9.7 6.1 13.3 13.7 3.1 6.6 10.4 38.1 13.5 52L342 257.8V156.1z"/><path fill="#7F7F7F" d="M346.2 156.1l-2.7.2-31.9-2.5s-55.8 24.5-61.2 27c-5.4 2.5-9.6 6.1-13.3 13.7-3.1 6.6-21.3 36.4-24.4 50.3l133.4 12.9V156.1z"/><path fill="#F4C6A7" d="M306.7 141.3h74.6v77.2h-74.6z"/><path fill="#E4E4E4" d="M344.4 192.5l-50.6-30.1 38.9 131.3 11.4 11.2 11.5-17.8 18.7-38.5 20.7-86.2z"/><path fill="#2975B8" d="M366.4 182h-43.8l18.5 26.4L332 280l9.5 22.8 6.7-2.9 10.3-20.2-10.6-71.3z"/><path opacity=".2" d="M383 155.8l12.1 6-23.6 53.4-26.6-33.2z"/><path fill="#FFF" d="M383 155.8l12.2 5.7-23.4 46.1-26.9-25.6z"/><path opacity=".2" d="M306.9 157.3l-12.8 6.8 23.4 51.1 27.4-33.2z"/><path fill="#FFF" d="M306 155.8l-12.2 5.7 23.4 46.1 26.9-25.6zM361.7 131.6c0 5.5-7.7 9.9-17.2 9.9s-17.2-4.4-17.2-9.9 7.7-.6 17.2-.6c9.5-.1 17.2-4.9 17.2.6"/><path fill="#5E5E5E" d="M335.1 365.5h1.9V322l-1.9 2.6z"/><path fill="#F4C6A7" d="M293.2 91.6l-3.3 2.7c-5.7 4.6-10.4 10.5-13.6 17.1l-51.1 105.3 60.3-67.5 9.5-27.6-1.8-30z"/><g fill="#010000"><path opacity=".3" d="M289.3 122.3z"/><path opacity=".1" d="M293.1 126.5l.2.2-2.5 7.2-1.5-11.5.8 1.3c.7 1.2 1.7 2.1 3 2.8z"/><path opacity=".3" d="M289.3 122.3v.1z"/></g><path fill="#F4C6A7" d="M318.1 119.8h51.7v33.6h-51.7zM295.9 112.4c.2 2 1.9 3.4 3.9 3.2h.4c2-.2 3.4-1.9 3.2-3.9L302 96.3c-.2-1.9-1.9-3.4-3.9-3.2h-.4c-2 .2-3.4 1.9-3.2 3.9l1.4 15.4zM392.8 112.4c-.2 2-1.9 3.4-3.9 3.2h-.4c-1.9-.2-3.4-1.9-3.2-3.9l1.4-15.4c.2-1.9 1.9-3.4 3.9-3.2h.4c2 .2 3.4 1.9 3.2 3.9l-1.4 15.4z"/><path opacity=".2" fill="#14120E" d="M371.5 146.2H317v8.1c8.7 8.8 19 12 27.5 12 8.3 0 18.3-3 27-11.5v-8.6z"/><defs><path id="c" d="M338.8 150.6h10.9v2.2h-10.9z"/></defs><clipPath id="d"><use xlink:href="#c" overflow="visible"/></clipPath><path clip-path="url(#d)" fill="#14120E" d="M350.1 151.9c0 .4-2.5.7-5.7.7-3.1 0-5.7-.3-5.7-.7 0-.4 2.5-.7 5.7-.7s5.7.4 5.7.7"/><path fill="#F4C6A7" d="M344.2 42h-1c-25.2 0-45.6 27.5-45.6 61.4 2.7 18.9 8.7 41 14.4 46.8 8.8 8.8 23 13.6 31 11.6.1 0 .2.1.2.1v.1c.1 0 0 0 0 0v-.1s.6 0 .7-.1c8 2 22.5-2.7 31.3-11.6 5.8-5.8 11.8-27.9 14.5-46.8 0-33.9-20.4-61.4-45.5-61.4z"/><path fill="#E99384" d="M329.7 121.9c0 5.9-4.8 10.6-10.6 10.6-5.9 0-10.6-4.7-10.6-10.6 0-5.9 4.7-10.6 10.6-10.6 5.9 0 10.6 4.7 10.6 10.6z"/><circle fill="#E99384" cx="368" cy="121.9" r="10.6"/><path fill="#FFF" d="M375.7 101.5c0 2.3-4.8 4.2-10.7 4.2-5.9 0-10.8-1.9-10.8-4.2 0-2.3 4.8-4.2 10.8-4.2 5.9 0 10.7 1.8 10.7 4.2M331.4 101.5c0 2.3-4.8 4.2-10.7 4.2-5.9 0-10.8-1.9-10.8-4.2 0-2.3 4.8-4.2 10.8-4.2 5.9 0 10.7 1.8 10.7 4.2"/><path opacity=".2" fill="#14120E" d="M349.7 123.6c0 2.8-2.4 5-5.4 5h-.1c-3 0-5.4-2.3-5.4-5V101c0-2.8 2.4-5 5.4-5h.1c3 0 5.4 2.3 5.4 5v22.6z"/><path fill="#FFF" d="M322.2 100.4c0 .4-.4.8-.8.8s-.8-.3-.8-.8c0-.4.3-.8.8-.8s.8.4.8.8"/><path fill="#422902" d="M367.7 101.4c0 1.7-1.4 3-3 3-1.7 0-3-1.4-3-3 0-1.7 1.4-3.1 3-3.1 1.7.1 3 1.5 3 3.1"/><path fill="#FFF" d="M364.4 100.2c0 .5-.4.9-.9.9s-.9-.4-.9-.9.4-.9.9-.9.9.4.9.9"/><path fill="#422902" d="M323.7 101.4c0 1.7-1.4 3-3 3-1.7 0-3-1.4-3-3 0-1.7 1.4-3.1 3-3.1 1.6.1 3 1.5 3 3.1"/><path fill="#FFF" d="M320.4 100.2c0 .5-.4.9-.9.9s-.9-.4-.9-.9.4-.9.9-.9.9.4.9.9"/><path fill="#422902" d="M331.4 90.9c0 1.3-1.3 2.3-2.8 2.3l-17-.4c-1.5 0-2.7-1.1-2.6-2.4 0-1.3 1.3-2.3 2.8-2.3l16.9.4c1.6.1 2.7 1.1 2.7 2.4zM378.9 90.9c0 1.3-1.3 2.3-2.8 2.3l-16.9-.4c-1.5 0-2.7-1.1-2.6-2.4 0-1.3 1.3-2.3 2.8-2.3l16.9.4c1.5.1 2.7 1.1 2.6 2.4z"/><ellipse opacity=".2" fill="#14120E" cx="344.4" cy="151.3" rx="5.5" ry="1.3"/><path fill="#77513B" d="M301 98.9c-1.7-10 7.4-32.9 8.6-34.6 5.7 2.6 17.1 3.3 19 1.6 4.6 3.4 16 11.6 32.5 1.7 7.2-4.6 13.9-4.4 15-4.2 1.1.2 9.6 23 9.6 37 1.4 1.2 2.2 2.8 2.2 2.8s4-46.2-.6-50.6c-4.6-4.4-11.8-11.1-20.4-14.7-8.6-3.6-11.4-9.7-11.4-11.4-1 5.1-.6 8.4-.2 8.9-6.8-5.1-11.1-12.3-10.9-16.8-5.9-.1-18.4 9.6-20.7 12.6-3.6-.4-21.5 13.7-24.7 20-3.2 6.3-1.5 47.3 0 50.2.4-1 1.2-2.1 2-2.5z"/><path opacity=".1" fill="#010000" d="M302.1 146.1c0 16.3 29.3 30.7 41.9 30.7h.4c13 0 40.4-16 40.4-32.4v-17.8c0-11.2-13.6 5.3-36.2 5.3h-3.3c-25.4 0-43-19.4-43.4-8.1l.2 22.3z"/><path fill="#77513B" d="M302.1 142.2c0 16.3 29.3 30.2 41.9 30.2h.4c13 0 40.4-15.2 40.4-31.5v-17.8c0-11.2-13.6 8.8-36.2 8.8h-3.3c-25.4 0-43-21.3-43.4-10.1l.2 20.4z"/><path fill="#FFF" d="M362 134.7c0 5.6-7.9 10.2-17.7 10.2-9.8 0-17.7-4.6-17.7-10.2s7.9-.7 17.7-.7c9.8.1 17.7-4.9 17.7.7"/><g fill="#63402E"><path d="M387.1 113.1s-14.3 19.7-37.7 10.3c-10.3 0-9 10.1-1.6 11.2 12.6 2 39.4.4 39.2-20.6"/><path d="M301.7 113.1s14.3 19.7 37.7 10.3c10.3 0 9 10.1 1.6 11.2-12.6 2-39.4.4-39.2-20.6"/></g><path fill="#E99384" d="M349.7 121.2c0 3-2.4 5.4-5.4 5.4h-.1c-3 0-5.4-2.4-5.4-5.4V97c0-3 2.4-5.4 5.4-5.4h.1c3 0 5.4 2.4 5.4 5.4v24.2z"/><path fill="#F4C6A7" d="M394.6 91.6l3.3 2.7c5.7 4.6 10.4 10.5 13.6 17.1l51.1 105.3-60.3-67.5-9.5-27.6 1.8-30z"/><path opacity=".1" fill="#010000" d="M403.7 97.4l-4-9.9c-1.2-3-3.4-5.4-6.3-6.8l-8-3.9c-5.1-2.5-11.1-2.7-16.4-.6-3.5 1.4-8.8 3.4-11.5 6.1l-3.9 3.9c-.7.7-.9 1.8-.3 2.7.7 1.2 4.3 1.5 5.3.6l5.5-4.8c2.3-2 5 .6 8 .2l.6 2c3.6-.5 4.3 1 7.4 3l3.2.8c2.6 1.6.1 3.1 1.4 5.9l2 1.7c2 4.3 1 2.3-1.2 6.5l-.8 2.4c-1.1 2.1.8 2.8-1.1 4.2l-2.5 1.5c-4.5 3.3-5.4 7.6-11 6.7l-3.5-.6-1.6-.7c-1.6-.7-3.4.2-3.8 1.9l-.1 1 .8.3 8.4 1.2c3.7.5 7.3 1.7 10.5 3.4l1 .5c3 1.6 6.6 2.1 9.9 1.4 2.1-.4 4-1.8 5.1-3.6l5.7-9.7c3-5.4 3.5-11.7 1.2-17.3z"/><g opacity=".1" fill="#010000"><circle cx="311.4" cy="101.3" r="13.8"/><path d="M376.9 82.2c-5.5 0-10.4 2.3-13.9 6-1.4-1-2.1-3.2-2.1-3.2h-11.1c-1.3-1.7-3.3-2.8-5.6-2.8s-4.3 1.1-5.6 2.8h-11.1s-.7 2.2-2.1 3.2c-3.5-3.7-8.4-6-13.9-6-10.5 0-19.1 8.5-19.1 19.1s8.5 19.1 19.1 19.1c6.1 0 11.5-2.9 15-7.3 4.4-.3 9-3.3 11.4-9 2.6-6.1 4-7 6.3-7s3.7.9 6.3 7c2.5 5.8 7 8.7 11.4 9 3.5 4.4 8.9 7.3 15 7.3 10.5 0 19.1-8.5 19.1-19.1s-8.5-19.1-19.1-19.1zm-65.5 32.9c-7.6 0-13.8-6.2-13.8-13.8s6.2-13.8 13.8-13.8c7.6 0 13.8 6.2 13.8 13.8s-6.2 13.8-13.8 13.8zm65.5 0c-7.6 0-13.8-6.2-13.8-13.8s6.2-13.8 13.8-13.8c7.6 0 13.8 6.2 13.8 13.8s-6.1 13.8-13.8 13.8z"/><circle cx="376.9" cy="101.3" r="13.8"/></g><path fill="#0D2A38" d="M362.9 90.1c-1.8-.6-2.7-3.5-2.7-3.5h-32s-.9 2.8-2.7 3.5c-1.8.6 2.2 11.1 2.2 11.1l-1.3 12.2c4.5 0 9.2-2.8 11.7-8.7 2.5-5.9 3.8-6.7 6-6.7s3.5.8 6 6.7 7.2 8.7 11.7 8.7l-1.3-12.2c.2-.1 4.2-10.5 2.4-11.1z"/><path fill="#F4C6A7" d="M404.4 98.3l-3.8-9.4c-1.1-2.8-3.3-5.1-6-6.4l-7.6-3.7c-4.9-2.4-10.5-2.6-15.5-.6-3.3 1.3-8.3 3.2-10.9 5.8l-3.7 3.6c-.7.7-.8 1.7-.3 2.5.7 1.1 4.1 1.4 5 .5l5.2-4.5c2.1-1.9 4.8.5 7.6.1l.6 1.9c3.4-.5 4 1 7 2.8l3 .7c2.5 1.5.1 3 1.3 5.6l1.9 1.6c1.9 4.1.9 2.1-1.1 6.1l-.7 2.2c-1.1 2 .8 2.6-1 4l-2.4 1.4c-4.3 3.1-5.1 7.2-10.4 6.4l-3.3-.5-1.5-.6c-1.5-.6-3.2.2-3.6 1.8l-.1.9.8.3 7.9 1.1c3.5.5 6.9 1.6 10 3.3l1 .5c2.9 1.5 6.2 2 9.4 1.3 2-.4 3.7-1.7 4.8-3.4l5.4-9.2c2.6-4.8 3.1-10.8 1-16.1z"/><path opacity=".1" fill="#010000" d="M284.2 97.4l4-9.9c1.2-3 3.4-5.4 6.3-6.8l8-3.9c5.1-2.5 11.1-2.7 16.4-.6 3.5 1.4 8.8 3.4 11.5 6.1l3.9 3.9c.7.7.9 1.8.3 2.7-.7 1.2-4.3 1.5-5.3.6l-5.5-4.8c-2.3-2-5 .6-8 .2l-.6 2c-3.6-.5-4.3 1-7.4 3l-3.2.8c-2.6 1.6-.1 3.1-1.4 5.9l-2 1.7c-2 4.3-1 2.3 1.2 6.5l.8 2.4c1.1 2.1-.8 2.8 1.1 4.2l2.5 1.5c4.5 3.3 5.4 7.6 11 6.7l3.5-.6 1.6-.7c1.6-.7 3.4.2 3.8 1.9l.1 1-.8.3-8.4 1.2c-3.7.5-7.3 1.7-10.5 3.4l-1 .5c-3 1.6-6.6 2.1-9.9 1.4-2.1-.4-4-1.8-5.1-3.6l-5.7-9.7c-3-5.4-3.5-11.7-1.2-17.3z"/><path fill="#F4C6A7" d="M283.5 98.3l3.8-9.4c1.1-2.8 3.3-5.1 6-6.4l7.6-3.7c4.9-2.4 10.5-2.6 15.5-.6 3.3 1.3 8.3 3.2 10.9 5.8l3.7 3.6c.7.7.8 1.7.3 2.5-.7 1.1-4.1 1.4-5 .5l-5.2-4.5c-2.1-1.9-4.8.5-7.6.1l-.6 1.9c-3.4-.5-4 1-7 2.8l-3 .7c-2.5 1.5-.1 3-1.3 5.6l-1.9 1.6c-1.9 4.1-.9 2.1 1.1 6.1l.7 2.2c1.1 2-.8 2.6 1 4l2.4 1.4c4.3 3.1 5.1 7.2 10.4 6.4l3.3-.5 1.5-.6c1.5-.6 3.2.2 3.6 1.8l.1.9-.8.3-7.9 1.1c-3.5.5-6.9 1.6-10 3.3l-1 .5c-2.9 1.5-6.2 2-9.4 1.3-2-.4-3.7-1.7-4.8-3.4l-5.4-9.2c-2.6-4.8-3.1-10.8-1-16.1z"/><path opacity=".1" fill="#010000" d="M320.4 117.9l-1.5.6-3.3.5c-5.2.8-6.1-3.2-10.4-6.4l-2.4-1.4c-1.3-1-.8-1.5-.7-2.5-1.3-.1-2.5-.5-3.6-1.5-.3-.1-.8-.2-1.5-.1-1.3.1-2.7-.1-4-.2-.8-.1-1.5-.2-2.3-.4.7 2.6 1.4 5.2 2.2 7.8 1.2 3.8-.7 6.7-3.5 8.1l.8 1.3c1 1.8 2.8 3 4.8 3.4 3.2.7 6.5.2 9.4-1.3l1-.5c3.1-1.7 6.5-2.8 10-3.3l7.9-1.1.8-.3-.1-.9c-.4-1.6-2.1-2.5-3.6-1.8z"/><path fill="#F4C6A7" d="M294.7 102.1s4.5 13.9-5.3 20.3c0 0-5.5-8.4-3.1-17.9 2.3-9.5 8.4-2.4 8.4-2.4z"/><g><path fill="#A0D7E8" d="M312.9 88.9c-7.3 0-13.2 5.9-13.2 13.2 0 2.3.6 4.4 1.6 6.3v-1.2h4.5v6c.6.4 1.1.7 1.7.9v-9.6h4.5v10.7h.8c.3 0 .7 0 1-.1v-8.3h4.5v7.1c.6-.3 1.2-.6 1.7-1v-10.8h4.5v5.7c.9-1.7 1.4-3.7 1.4-5.8.2-7.2-5.7-13.1-13-13.1z"/><path fill="#F54E41" d="M301.4 107.2v1.2c1.1 2 2.6 3.6 4.5 4.8v-6h-4.5zM307.7 104.5v9.6c1.4.6 2.9 1 4.5 1.1v-10.7h-4.5zM313.9 106.9v8.3c1.6-.1 3.1-.5 4.5-1.2v-7.1h-4.5zM320.2 102.2V113c1.9-1.3 3.5-3.1 4.5-5.2v-5.7h-4.5z"/></g><path fill="#264E66" d="M312.9 88.9c7.3 0 13.2 5.9 13.2 13.2s-5.9 13.2-13.2 13.2-13.2-5.9-13.2-13.2 6-13.2 13.2-13.2m0-5c-10 0-18.2 8.1-18.2 18.2 0 10 8.1 18.2 18.2 18.2 10 0 18.2-8.1 18.2-18.2s-8.1-18.2-18.2-18.2z"/><circle fill="#264E66" cx="344.2" cy="90.6" r="6.7"/><circle fill="#0D2A38" cx="344.2" cy="90.6" r="4.3"/><g><path fill="#A0D7E8" d="M375.4 88.9c-7.3 0-13.2 5.9-13.2 13.2 0 2.5.7 4.8 1.9 6.8V101h4.5v12.4c.6.3 1.1.6 1.7.9v-9.8h4.5v10.7h.4c.4 0 .9 0 1.3-.1V98h4.5v15.9c.6-.3 1.2-.6 1.7-1V91.3c-1.8-1.5-4.4-2.4-7.3-2.4zM387.6 107.2c.7-1.6 1-3.3 1-5.1 0-1.8-.4-3.6-1-5.1v10.2z"/><path fill="#F54E41" d="M364.2 101v7.9c1.1 1.8 2.7 3.4 4.5 4.5V101h-4.5zM370.5 104.5v9.8c1.4.6 2.9.9 4.5 1v-10.7h-4.5zM376.7 98v17.2c1.6-.2 3.1-.6 4.5-1.3V98h-4.5zM383 91.3v21.5c2-1.4 3.6-3.3 4.5-5.6V97c-.9-2.3-2.5-4.2-4.5-5.7z"/></g><g fill="#FFF"><path d="M316.5 89.4l-16.2 16.2c.6 2.1 1.7 4 3.2 5.5l18.6-18.6c-1.6-1.4-3.5-2.5-5.6-3.1zM325.9 99.6c-.2-1-.5-2-.9-3L307.6 114c.9.4 1.9.7 3 .9l15.3-15.3z"/></g><path opacity=".1" fill="#010000" d="M367.5 117.9l1.5.6 3.3.5c5.2.8 6.1-3.2 10.4-6.4l2.4-1.4c1.3-1 .8-1.5.7-2.5 1.3-.1 2.5-.5 3.6-1.5.3-.1.8-.2 1.5-.1 1.3.1 2.7-.1 4-.2.8-.1 1.5-.2 2.3-.4-.7 2.6-1.4 5.2-2.2 7.8-1.2 3.8.7 6.7 3.5 8.1l-.8 1.3c-1 1.8-2.8 3-4.8 3.4-3.2.7-6.5.2-9.4-1.3l-1-.5c-3.1-1.7-6.5-2.8-10-3.3l-7.9-1.1-.8-.3.1-.9c.4-1.6 2.1-2.5 3.6-1.8z"/><g fill="#010000"><path opacity=".3" d="M398.5 122.3z"/><path opacity=".1" d="M394.7 126.5l-.2.2 2.5 7.2 1.5-11.5-.8 1.3c-.7 1.2-1.8 2.1-3 2.8z"/><path opacity=".3" d="M398.5 122.3v.1z"/></g><path fill="#F4C6A7" d="M393.2 102.1s-4.5 13.9 5.3 20.3c0 0 5.5-8.4 3.1-17.9-2.3-9.5-8.4-2.4-8.4-2.4z"/><path fill="#264E66" d="M375.4 88.9c7.3 0 13.2 5.9 13.2 13.2s-5.9 13.2-13.2 13.2c-7.3 0-13.2-5.9-13.2-13.2s6-13.2 13.2-13.2m0-5c-10 0-18.2 8.1-18.2 18.2 0 10 8.1 18.2 18.2 18.2 10 0 18.2-8.1 18.2-18.2s-8.1-18.2-18.2-18.2z"/><g fill="#FFF"><path d="M379 89.4l-16.2 16.2c.6 2.1 1.7 4 3.2 5.5l18.6-18.6c-1.6-1.4-3.5-2.5-5.6-3.1zM388.4 99.6c-.2-1-.5-2-.9-3L370 114.1c.9.4 1.9.7 3 .9l15.4-15.4z"/></g><g><path fill="#201600" d="M270 320.2c-2.4-11.1-4.4-21.4-4.4-32.7 0-4.9 1.1-9.7 2-14.5 2.3-12.3.4-18.1-.6-30.6-.2-2.5 1.6-12.4-.9-13.1-2.4-.7-4.1 3.9-5 6.2-.9 2.4-1.5 2.6-2.5 4.9-2.1 4.8-9 6.6-13.2 3.5-2.9-2.1-4.2-5.7-6.1-8.9-1.8-3.1-5-6.1-8.5-5.5-3.4.6-5.3 4.1-6.8 7.3-1.3 2.9-2.7 5.9-3.2 9.1l36.5 3.5 9.2 116h3.9c1-2.2 1.6-4.8 2.1-7.2 2.4-12.5.3-25.5-2.5-38z" opacity=".1"/><path fill="#FFF" d="M260.774 126.502l7.592-12.12 29.917 18.742-7.592 12.12z"/><path opacity=".1" d="M278.218 137.466l7.592-12.12 11.356 7.115-7.592 12.12z"/><g><path fill="#7F7F7F" d="M240.1 237.7c1.2-1.5 2.2-3.1 3-4.9l52.7-87.7-36.6-22.6-57 82.3c-1.8 1.9-3.4 4.1-4.6 6.6-.4.8-.7 1.7-1 2.6-4.5 13.1 2.4 27.4 15.5 32 10.3 3.6 21.2.1 27.7-7.9l.3-.4z"/><path fill="#201600" d="M197.6 211.4c-.4.8-.7 1.7-1 2.6-4.5 13.1 2.4 27.4 15.5 32 10.3 3.6 21.2.1 27.7-7.9l.2-.4c1.2-1.5 2.2-3.1 3-4.9l52.7-87.7-2.8-1.8-.7.7c-9.7 10.3-18 21.9-24.5 34.5-4.6 8.8-8.3 18.1-13.5 26.6-4.5 7.3-10 13.9-15.5 20.5-2.7 3.2-5.4 6.5-8.1 9.7-1.5 1.9-3.2 3.8-5.3 4.8-3.1 1.5-6.8 1.1-10.1 0-5.2-1.7-9.9-4.9-12.8-9.5-2.9-4.6-4.2-9.8-3.3-15.6.4-2.6.7-4.1 1.7-6.9.2-.7 1-1.9.5-2.4-1.4 1.7-2.7 3.6-3.7 5.7z" opacity=".1"/><g><circle opacity=".3" fill="#201600" cx="260.4" cy="133.9" r="3.7"/><circle fill="#48443E" cx="260.4" cy="132.8" r="3.7"/><circle opacity=".3" fill="#201600" cx="254.5" cy="142.2" r="3.7"/><circle fill="#48443E" cx="254.5" cy="141.2" r="3.7"/><g><circle opacity=".3" fill="#201600" cx="248.6" cy="150.2" r="3.7"/><circle fill="#48443E" cx="248.6" cy="149.2" r="3.7"/></g></g></g></g><g><path fill="#201600" d="M418 320.2c2.4-11.1 4.4-21.4 4.4-32.7 0-4.9-1.1-9.7-2-14.5-2.3-12.3-.4-18.1.6-30.6.2-2.5-1.6-12.4.9-13.1 2.4-.7 4.1 3.9 5 6.2.9 2.4 1.5 2.6 2.5 4.9 2.1 4.8 9 6.6 13.2 3.5 2.9-2.1 4.2-5.7 6.1-8.9 1.8-3.1 5-6.1 8.5-5.5 3.4.6 5.3 4.1 6.8 7.3 1.3 2.9 2.7 5.9 3.2 9.1l-36.5 3.5-9.2 116h-3.9c-1-2.2-1.6-4.8-2.1-7.2-2.3-12.5-.2-25.5 2.5-38z" opacity=".1"/><path fill="#FFF" d="M389.807 133.15l29.916-18.74 7.592 12.118-29.916 18.74z"/><path opacity=".1" d="M390.943 132.445l11.356-7.114 7.59 12.12-11.355 7.115z"/><g><path fill="#7F7F7F" d="M448 237.7c-1.2-1.5-2.2-3.1-3-4.9l-52.7-87.7 36.6-22.6 57 82.3c1.8 1.9 3.4 4.1 4.6 6.6.4.8.7 1.7 1 2.6 4.5 13.1-2.4 27.4-15.5 32-10.3 3.6-21.2.1-27.7-7.9l-.3-.4z"/><path fill="#201600" d="M490.4 211.4c.4.8.7 1.7 1 2.6 4.5 13.1-2.4 27.4-15.5 32-10.3 3.6-21.2.1-27.7-7.9l-.2-.4c-1.2-1.5-2.2-3.1-3-4.9l-52.7-87.7 2.8-1.8.7.7c9.7 10.3 18 21.9 24.5 34.5 4.6 8.8 8.3 18.1 13.5 26.6 4.5 7.3 10 13.9 15.5 20.5 2.7 3.2 5.4 6.5 8.1 9.7 1.5 1.9 3.2 3.8 5.3 4.8 3.1 1.5 6.8 1.1 10.1 0 5.2-1.7 9.9-4.9 12.8-9.5 2.9-4.6 4.2-9.8 3.3-15.6-.4-2.6-.7-4.1-1.7-6.9-.2-.7-1-1.9-.5-2.4 1.5 1.7 2.7 3.6 3.7 5.7z" opacity=".1"/><g><circle opacity=".3" fill="#201600" cx="427.7" cy="133.9" r="3.7"/><circle fill="#48443E" cx="427.7" cy="132.8" r="3.7"/><circle opacity=".3" fill="#201600" cx="433.6" cy="142.2" r="3.7"/><circle fill="#48443E" cx="433.6" cy="141.2" r="3.7"/><g><circle opacity=".3" fill="#201600" cx="439.5" cy="150.2" r="3.7"/><circle fill="#48443E" cx="439.5" cy="149.2" r="3.7"/></g></g></g></g><path fill="#5E5E5E" d="M406.2 228.9l-11.7-19.3 15.2-4.1-10-41.6-4.5-2.2-60.2 164 71.2-96.8z"/><path fill="#5E5E5E" d="M342.7 310.8c.8-1.7 2.5-2.9 4.4-3.1l-53.6-145.9-4.5 2.2-10 41.6 15.2 4.1-11.7 19.3 60.2 81.8z"/><g><path opacity=".3" fill="#201600" d="M351.8 332.6c0 2.9-2.4 5.3-5.3 5.3s-5.3-2.4-5.3-5.3 2.4-5.3 5.3-5.3 5.3 2.4 5.3 5.3z"/><circle fill="#48443E" cx="346.5" cy="331.2" r="5.3"/></g><g><path opacity=".3" fill="#201600" d="M351.8 358.7c0 2.9-2.4 5.3-5.3 5.3s-5.3-2.4-5.3-5.3 2.4-5.3 5.3-5.3c2.9.1 5.3 2.4 5.3 5.3z"/><circle fill="#48443E" cx="346.5" cy="357.3" r="5.3"/></g></g><g clip-path="url(#b)"><g opacity=".2" fill="#010000"><path d="M454.2 73.6c5.4 14.3 16.4 25.9 30.3 32.2-13.9 6.3-24.8 17.9-30.3 32.2-5.4-14.3-16.4-25.9-30.3-32.2 13.8-6.3 24.8-17.9 30.3-32.2z"/><path d="M454.2 89.6c2.7 7.2 8.3 13.1 15.3 16.2-7 3.1-12.5 9-15.3 16.2-2.7-7.2-8.3-13.1-15.3-16.2 7-3.2 12.5-9 15.3-16.2z"/></g><path fill="#FCD22E" d="M457.4 72c5.4 14.3 16.4 25.9 30.3 32.2-13.9 6.3-24.8 17.9-30.3 32.2-5.4-14.3-16.4-25.9-30.3-32.2 13.9-6.3 24.8-17.9 30.3-32.2z"/><path fill="#FD7600" d="M457.4 87.9c2.7 7.2 8.3 13 15.3 16.2-7 3.2-12.5 9-15.3 16.2-2.7-7.2-8.3-13.1-15.3-16.2 7-3.1 12.6-8.9 15.3-16.2z"/><g><g opacity=".2" fill="#010000"><path d="M431.7 49.9c2.7 7 8 12.7 14.8 15.8-6.8 3.1-12.1 8.7-14.8 15.7-2.7-7-8-12.7-14.8-15.7 6.8-3.1 12.2-8.8 14.8-15.8z"/><path d="M431.7 57.7c1.3 3.5 4 6.4 7.5 7.9-3.4 1.5-6.1 4.4-7.5 7.9-1.3-3.5-4-6.4-7.5-7.9 3.5-1.5 6.2-4.4 7.5-7.9z"/></g><path fill="#FCD22E" d="M433.3 49.1c2.7 7 8 12.7 14.8 15.8-6.8 3.1-12.1 8.7-14.8 15.7-2.7-7-8-12.7-14.8-15.7 6.8-3.1 12.1-8.8 14.8-15.8z"/><path fill="#FD7600" d="M433.3 56.9c1.3 3.5 4 6.4 7.5 7.9-3.4 1.5-6.1 4.4-7.5 7.9-1.3-3.5-4-6.4-7.5-7.9 3.5-1.5 6.2-4.4 7.5-7.9z"/></g><g><g opacity=".2" fill="#010000"><path d="M482.5 41.1c3.8 10.1 11.6 18.3 21.4 22.7-9.8 4.4-17.5 12.6-21.4 22.7-3.8-10.1-11.6-18.3-21.4-22.7 9.8-4.4 17.6-12.6 21.4-22.7z"/><path d="M482.5 52.4c1.9 5.1 5.8 9.2 10.8 11.5-4.9 2.2-8.9 6.4-10.8 11.4-1.9-5.1-5.8-9.2-10.8-11.4 5-2.3 8.9-6.4 10.8-11.5z"/></g><path fill="#FCD22E" d="M484.8 40c3.8 10.1 11.6 18.3 21.4 22.7-9.8 4.4-17.5 12.6-21.4 22.7-3.8-10.1-11.6-18.3-21.4-22.7 9.8-4.4 17.5-12.6 21.4-22.7z"/><path fill="#FD7600" d="M484.8 51.2c1.9 5.1 5.8 9.2 10.8 11.4-4.9 2.2-8.8 6.4-10.8 11.4-1.9-5.1-5.8-9.2-10.8-11.4 5-2.2 8.8-6.3 10.8-11.4z"/></g></g><g clip-path="url(#b)"><g opacity=".2" fill="#010000"><path d="M177.2 283.5c2.7 7 8 12.7 14.8 15.8-6.8 3.1-12.1 8.7-14.8 15.7-2.7-7-8-12.7-14.8-15.7 6.8-3.2 12.1-8.8 14.8-15.8z"/><path d="M177.2 291.3c1.3 3.5 4 6.4 7.5 7.9-3.4 1.5-6.1 4.4-7.5 7.9-1.3-3.5-4-6.4-7.5-7.9 3.5-1.5 6.2-4.4 7.5-7.9z"/></g><path fill="#FCD22E" d="M178.8 282.7c2.7 7 8 12.7 14.8 15.8-6.8 3.1-12.1 8.7-14.8 15.7-2.7-7-8-12.7-14.8-15.7 6.8-3.2 12.1-8.8 14.8-15.8z"/><path fill="#FD7600" d="M178.8 290.5c1.3 3.5 4 6.4 7.5 7.9-3.4 1.5-6.1 4.4-7.5 7.9-1.3-3.5-4-6.4-7.5-7.9 3.4-1.5 6.1-4.4 7.5-7.9z"/><g><g opacity=".2" fill="#010000"><path d="M215 311.8c3.8 10.1 11.6 18.3 21.4 22.7-9.8 4.4-17.5 12.6-21.4 22.7-3.8-10.1-11.6-18.3-21.4-22.7 9.8-4.4 17.5-12.6 21.4-22.7z"/><path d="M215 323.1c1.9 5.1 5.8 9.2 10.8 11.5-4.9 2.2-8.9 6.4-10.8 11.4-1.9-5.1-5.8-9.2-10.8-11.4 4.9-2.3 8.8-6.4 10.8-11.5z"/></g><path fill="#FCD22E" d="M217.2 310.6c3.8 10.1 11.6 18.3 21.4 22.7-9.8 4.4-17.5 12.6-21.4 22.7-3.8-10.1-11.6-18.3-21.4-22.7 9.9-4.4 17.6-12.5 21.4-22.7z"/><path fill="#FD7600" d="M217.2 321.9c1.9 5.1 5.8 9.2 10.8 11.4-4.9 2.2-8.8 6.4-10.8 11.4-1.9-5.1-5.8-9.2-10.8-11.4 5-2.2 8.9-6.3 10.8-11.4z"/></g></g><g clip-path="url(#b)"><path fill="#FCD22E" d="M457 275.4c.2-.4.6-.6 1-.4l8.3 3.2c.4.2.6.6.4 1l-3.2 8.3c-.2.4-.6.6-1 .4l-8.3-3.2c-.4-.2-.6-.6-.4-1l3.2-8.3z"/><path fill="#FCD22E" d="M483.1 267.9l-6.2 2.7c-.4.2-.5.7-.3 1.2l.8 1.7-34.1 14.9c-1.1.5-2 1.5-2.2 2.9l-.8 10.9c.4.9 1.6 1.2 2.8.7l39.6-17.3.7 1.7c.2.5.7.7 1.1.6l6.1-2.7c6.2 5.5 15.3 7.2 23.4 3.7 11.1-4.9 16.2-17.9 11.3-29-4.9-11.1-17.9-16.2-29-11.3-8 3.3-12.9 11.1-13.2 19.3zm32.8-4.4c1.3 3-.1 6.4-3 7.8-3 1.3-6.4-.1-7.7-3-1.3-3 .1-6.4 3-7.7 3-1.4 6.4 0 7.7 2.9z"/><path fill="#FF9D03" d="M440.5 298.9l36.6-16c.8-.4 1.3-1.2 1-1.9-.3-.7-1.2-1-2.1-.6l-35.3 15.4-.2 3.1z"/><path fill="#FCD22E" d="M447.4 281.9c.1-.3.4-.4.7-.3l6.1 2.4c.3.1.4.4.3.7l-2.4 6.1c-.1.3-.4.4-.7.3l-6.1-2.4c-.3-.1-.4-.4-.3-.7l2.4-6.1z"/><g><path fill="#F1A100" d="M478.1 348.7L511 362c2.2.9 4.6-.2 5.5-2.3l23.8-59c.3-.7.4-1.4.3-2.1 0-.5 0-1.1-.2-1.6l-10.2-24c-.7-1.7-2.7-2.5-4.4-1.8l-24 10.2c-1.1.5-1.8 1.4-2 2.5 0 .1-.1.2-.1.3l-23.8 59c-1 2.2.1 4.6 2.2 5.5zm42.9-58.9c-2.8-1.1-4.1-4.3-3-7 1.1-2.8 4.3-4.1 7-3 2.8 1.1 4.1 4.3 3 7-1.1 2.8-4.3 4.1-7 3z"/><g fill="#FFF"><path d="M508.1 339.8l-9-1.5 7.2 5.6-1.2 2.7-13.2-1.8 1.2-2.8 9.4 1.7-7.5-5.9.9-2 9.5 1.5-7.6-5.8 1.2-2.8 10.3 8.5-1.2 2.6zM505 330.9c-3.5-1.5-4.9-5.2-3.4-8.8 1.6-3.6 5.2-5 8.8-3.5 3.5 1.5 4.9 5.2 3.4 8.8-1.6 3.6-5.3 5.1-8.8 3.5zm4.2-9.7c-2.2-1-4.5-.3-5.4 1.9-.9 2.2.1 4.3 2.3 5.2 2.2 1 4.5.3 5.4-1.9.9-2.1-.1-4.2-2.3-5.2zM519.9 312.8l-5.2.5-.8 1.8 4.2 1.8-1.1 2.5-11.7-5.1 2.4-5.5c1.1-2.4 3.3-3.2 5.5-2.3 2.1.9 2.6 2.7 2.4 4.1l5.6-.7-1.3 2.9zm-7.9-3.7c-1-.4-1.9.1-2.4 1.1l-1.1 2.6 3.2 1.4 1.1-2.6c.5-1 .2-2-.8-2.5zM521.9 308.2l-11.7-5.1 2-4.6c1.6-3.7 5.1-5.2 8.6-3.7s4.7 5.1 3.1 8.8l-2 4.6zm-2.2-10.9c-2.1-.9-4.2-.3-5.3 2.1l-.9 2.1 7.3 3.2.9-2.1c1-2.3 0-4.4-2-5.3z"/></g><path opacity=".2" d="M525.7 271.2l-15.4 6.6 6.4 81.6 23.7-58.7c.3-.7.4-1.4.3-2.1 0-.5 0-1.1-.2-1.6l-10.2-24c-.9-1.7-2.9-2.5-4.6-1.8zm2.3 15.6c-1.1 2.8-4.3 4.1-7 3-2.8-1.1-4.1-4.3-3-7 1.1-2.8 4.3-4.1 7-3 2.8 1.1 4.1 4.2 3 7z"/></g><g fill="#603813"><path d="M513.3 261.8c.2-.3.3-.5.5-.8-.7-.4-1.5-.8-2.3-.9-.1.2-.2.3-.3.5-2 3.5-3.3 7-3.9 10.2.7.5 1.5.8 2.3.9.5-3.1 1.8-6.6 3.7-9.9zM527.2 249.8c1.5-.2 2.9 0 4 .6 4.6 2.6 4.3 12.4-.8 21.2l-.6.9c.1.2.2.3.3.5l.9 2.1c.5-.8 1-1.5 1.5-2.4 5.9-10.3 5.9-21.1-.1-24.5-1.6-.9-3.5-1.2-5.5-.9-2.6.4-5.3 1.8-8 4 .6.5 1.2 1 1.8 1.6 2.1-1.6 4.4-2.8 6.5-3.1zM525 279.8c-.3-.1-.5-.2-.8-.2-1.2 2.1-2.7 3.9-4.5 5.5 2.2-.9 4.5-2.5 6.6-4.5-.4-.3-.8-.6-1.3-.8z"/><path d="M517.8 283.2c-.3.8-.3 1.7-.2 2.5.7-.2 1.4-.4 2.1-.7 1.8-1.6 3.3-3.5 4.5-5.5-.1 0-.1 0-.2-.1-2 1.9-4.1 3.2-6.2 3.8zM509.6 271.7c-.8-.1-1.6-.4-2.3-.9-.6 3.1-.6 5.9 0 8.3l2.3-1c-.4-1.8-.4-4 0-6.4zM529.8 272.5c-1.6 2.6-3.4 4.8-5.3 6.6-.1.2-.2.3-.3.5.3.1.5.1.8.2.5.2 1 .5 1.4.8 1.7-1.6 3.2-3.4 4.6-5.5l-.9-2.1c-.1-.2-.2-.3-.3-.5z"/></g></g><g clip-path="url(#b)"><path fill="#E6E6E6" d="M543 222c0-.2.1-.3.2-.4l3.5-.7c.2 0 .3.1.4.2l.7 3.5c0 .2-.1.3-.2.4l-3.5.7c-.2 0-.3-.1-.4-.2l-.7-3.5z"/><path fill="#E6E6E6" d="M550.3 213.6l-1.5 2.3c-.1.1 0 .4.1.5l.6.4-8.4 12.7c-.3.4-.4.9-.1 1.5l2.1 3.9c.3.2.8.1 1.1-.4l9.7-14.7.6.4c.2.1.4.1.5 0l1.5-2.3c3.4.5 6.8-.9 8.8-3.9 2.7-4.1 1.6-9.7-2.5-12.5-4.1-2.7-9.7-1.6-12.5 2.5-1.8 3-1.7 6.7 0 9.6zm10.3-8.7c1.1.7 1.4 2.2.7 3.3-.7 1.1-2.2 1.4-3.3.7-1.1-.7-1.4-2.2-.7-3.3.7-1.2 2.2-1.5 3.3-.7z"/><path fill="#BCBCBC" d="M542.6 233.7l9-13.6c.2-.3.2-.7-.1-.9-.3-.2-.6-.1-.8.3l-8.7 13.1.6 1.1z"/><path fill="#E6E6E6" d="M541.2 226.3c0-.1.1-.2.2-.3l2.6-.5c.1 0 .2.1.3.2l.5 2.6c0 .1-.1.2-.2.3l-2.6.5c-.1 0-.2-.1-.3-.2l-.5-2.6z"/><g><path fill="#F14941" d="M554.7 243l14.3 1.9c.9.1 1.8-.5 1.9-1.5l3.5-25.7c0-.3 0-.6-.1-.8 0-.2-.1-.4-.3-.6l-6.5-8.5c-.5-.6-1.3-.7-1.9-.3l-8.5 6.5c-.4.3-.6.7-.5 1.2v.1l-3.5 25.7c0 1.1.7 1.9 1.6 2zm11.1-27.6c-1.2-.2-2.1-1.3-1.9-2.5.2-1.2 1.3-2.1 2.5-1.9 1.2.2 2.1 1.3 1.9 2.5-.2 1.3-1.3 2.1-2.5 1.9z"/><path opacity=".2" d="M565.8 207.6l-5.4 4.1 10.7 31.6 3.4-25.6c0-.3 0-.6-.1-.8 0-.2-.1-.4-.3-.6l-6.5-8.5c-.4-.5-1.2-.6-1.8-.2zm2.4 5.9c-.2 1.2-1.3 2.1-2.5 1.9-1.2-.2-2.1-1.3-1.9-2.5.2-1.2 1.3-2.1 2.5-1.9 1.2.2 2.1 1.3 1.9 2.5z"/></g><g fill="#603813"><path d="M559.9 205.1c0-.1.1-.2.1-.4-.3-.1-.7-.1-1-.1 0 .1 0 .1-.1.2-.4 1.6-.6 3.1-.5 4.4.3.1.7.2 1 .1-.1-1.2.1-2.7.5-4.2zM564.2 199c.6-.2 1.1-.3 1.6-.2 2.1.6 2.9 4.5 1.8 8.5 0 .1-.1.3-.1.4l.2.2.6.7c.1-.4.2-.7.3-1.1 1.3-4.7.2-8.9-2.5-9.7-.7-.2-1.5-.1-2.3.2-1 .4-1.9 1.3-2.8 2.4.3.1.6.3.9.5.7-.9 1.5-1.6 2.3-1.9zM566.3 211.1h-.3c-.3.9-.7 1.8-1.2 2.6.8-.6 1.5-1.4 2.2-2.4-.2-.1-.4-.2-.7-.2z"/><path d="M563.9 213.2c0 .4 0 .7.2 1 .3-.1.5-.3.8-.5.6-.8 1-1.7 1.2-2.6h-.1c-.7.9-1.4 1.6-2.1 2.1zM559.4 209.4c-.3 0-.7 0-1-.1.1 1.3.3 2.4.8 3.3l.8-.6c-.3-.7-.5-1.6-.6-2.6zM567.5 207.7c-.4 1.2-.9 2.2-1.4 3.1 0 .1 0 .1-.1.2h.3c.2 0 .4.1.6.2.5-.8.9-1.7 1.3-2.6l-.6-.7c0-.1 0-.1-.1-.2z"/></g></g><g clip-path="url(#b)"><path fill="#FCD22E" d="M500.7 157.1c.1-.1.2-.2.1-.3l-1.4-2.4c-.1-.1-.2-.2-.3-.1l-2.4 1.4c-.1.1-.2.2-.1.3l1.4 2.4c.1.1.2.2.3.1l2.4-1.4z"/><path fill="#FCD22E" d="M507.3 143.3c1-3.8-1.3-7.6-5-8.6-3.8-1-7.6 1.3-8.6 5-.7 2.7.3 5.5 2.3 7.2l-.5 2.1c0 .1.1.3.2.3l.6.1-3.5 13.4c-.1.4.1.8.4.8l3.4-.8c.4-.1.7-.4.8-.8l3-11.5.6.2c.2 0 .3 0 .4-.2l.5-2.1c2.5-.4 4.7-2.4 5.4-5.1zm-4.4-3.1c-.3 1-1.3 1.6-2.3 1.3-1-.3-1.6-1.3-1.3-2.3.3-1 1.3-1.6 2.3-1.3.9.2 1.5 1.3 1.3 2.3z"/><path fill="#FF9D03" d="M494.1 163.4l3.2-12.4c.1-.3.3-.5.6-.4.2.1.4.3.3.6l-3.1 11.9-1 .3z"/><path fill="#FCD22E" d="M499.1 160.4c.1 0 .1-.2.1-.2l-1.1-1.8c0-.1-.2-.1-.2-.1l-1.8 1.1c-.1.1-.1.2-.1.2l1.1 1.8c0 .1.2.1.2.1l1.8-1.1z"/><g><path fill="#2975B8" d="M484.5 161.3l12.7-15.8s0-.1.1-.1c.3-.2.4-.6.4-1l-.9-8.3c-.1-.6-.6-1-1.2-1l-8.3.9c-.2 0-.3.1-.5.2s-.4.2-.5.4l-12.7 15.8c-.5.6-.4 1.4.2 1.9l8.8 7.1c.6.6 1.4.5 1.9-.1zm7.6-23.4c.6-.7 1.7-.9 2.4-.3.7.6.9 1.7.3 2.4-.6.7-1.7.9-2.4.3-.8-.5-.9-1.6-.3-2.4z"/><path opacity=".2" d="M495.6 135.2l-8.3.9c-.2 0-.3.1-.5.2s-.4.2-.5.4l-12.7 15.8 23.7-10.9-.6-5.3c0-.7-.5-1.2-1.1-1.1zm-1.1 2.5c.7.6.9 1.7.3 2.4-.6.7-1.7.9-2.4.3-.7-.6-.9-1.7-.3-2.4.6-.8 1.6-.9 2.4-.3z"/></g><g fill="#603813"><path d="M501.3 138.1c.1-.1.1-.2.1-.3.2.1.4.3.6.5 0 .1-.1.1-.1.2-.7 1.1-1.4 2-2.2 2.7-.2-.1-.4-.3-.6-.5.8-.6 1.6-1.5 2.2-2.6zM502.5 132.4c-.2-.5-.4-.8-.8-1-1.5-.9-4.1.7-5.8 3.5-.1.1-.1.2-.2.3h-.2l-.7.1c.1-.3.3-.5.4-.8 2-3.3 5-4.9 6.8-3.8.5.3.9.8 1.1 1.4.3.8.3 1.8.1 2.8-.2-.1-.5-.2-.7-.3.3-.8.2-1.6 0-2.2zM494.5 137.7l.2.2c-.4.6-.7 1.4-.8 2.1-.1-.8 0-1.6.2-2.5.1 0 .2.1.4.2z"/><path d="M494.6 140.2c-.2.2-.4.4-.7.4-.1-.2-.1-.4-.1-.7.2-.8.5-1.5.8-2.1-.1 1-.1 1.8 0 2.4zM499.1 140.7c.2.2.4.4.6.5-.8.6-1.5 1.1-2.3 1.3l-.1-.8c.6-.1 1.2-.5 1.8-1z"/><path d="M495.8 135.2c-.5.8-.8 1.7-1 2.5 0 0-.1.1-.1.2l-.2-.2c-.1-.1-.3-.2-.4-.3.2-.7.5-1.4.8-2.2l.7-.1c0 .1.1.1.2.1z"/></g></g></svg>