<svg baseProfile="basic" xmlns="http://www.w3.org/2000/svg" width="230" height="254" viewBox="0 0 230 254"><path fill="#6D98AC" d="M179 217.7l-2.7.3c-.8-1.7-1.9-3.2-3.1-4.6l1.3-2.3c.5-.7.4-1.6-.1-2l-6.7-4.4c-.6-.4-1.4-.1-1.9.6l-1.6 2.1c-1.7-.6-3.5-.9-5.4-1l-.7-2.6c-.2-.8-.8-1.4-1.5-1.3l-7.9 1.6c-.6.1-1 .9-.9 1.8l.3 2.7c-1.7.8-3.2 1.9-4.5 3.1l-2.3-1.3c-.7-.5-1.6-.4-2 .1l-4.4 6.7c-.4.6-.1 1.4.6 1.9l2.1 1.7c-.6 1.7-.9 3.5-1 5.4l-2.6.7c-.8.2-1.4.8-1.3 1.5l1.6 7.9c.1.6.9 1 1.8.9l2.7-.3c.8 1.7 1.9 3.2 3.1 4.5l-1.3 2.3c-.5.7-.4 1.6.1 2l6.7 4.4c.6.4 1.4.1 1.9-.6l1.7-2.1c1.7.6 3.5.9 5.4 1l.7 2.6c.2.8.8 1.4 1.5 1.3l7.9-1.6c.6-.1 1-.9.9-1.8l-.3-2.7c1.7-.8 3.2-1.9 4.6-3.1l2.3 1.3c.7.5 1.6.4 2-.1l4.4-6.7c.4-.6.1-1.4-.6-1.9l-2.1-1.6c.6-1.7.9-3.5 1-5.4l2.6-.7c.8-.2 1.4-.8 1.3-1.5l-1.6-7.9c-.3-.7-1.1-1-2-.9zm-19.8 17.4c-4.5.9-8.9-2-9.8-6.4-.9-4.5 2-8.9 6.4-9.8 4.5-.9 8.9 2 9.8 6.4 1 4.5-1.9 8.9-6.4 9.8z"/><path fill="#FFE9C9" d="M113.9 104.8l-63.4 44L0 75.9l4.6-25.2 48.5-33.6z"/><g fill="#4C4C4C"><path d="M52.1 31.8c.4.6.3 1.4-.3 1.8L6.4 65c-.6.4-1.4.3-1.8-.3-.4-.6-.3-1.4.3-1.8l45.4-31.4c.6-.4 1.4-.3 1.8.3zM56.6 38.3c.4.6.3 1.4-.3 1.8L10.9 71.5c-.6.4-1.4.3-1.8-.3-.4-.6-.3-1.4.3-1.8L54.8 38c.6-.4 1.4-.3 1.8.3zM61.1 44.8c.4.6.3 1.4-.3 1.8L15.4 78c-.6.4-1.4.3-1.8-.3-.4-.6-.3-1.4.3-1.8l45.4-31.4c.6-.4 1.4-.3 1.8.3zM65.6 51.3c.4.6.3 1.4-.3 1.8L19.9 84.5c-.6.4-1.4.3-1.8-.3-.4-.6-.3-1.4.3-1.8L63.8 51c.6-.5 1.4-.3 1.8.3zM70.1 57.7c.4.6.3 1.4-.3 1.8L24.4 91c-.6.4-1.4.3-1.8-.3-.4-.6-.3-1.4.3-1.8l45.4-31.4c.6-.5 1.4-.3 1.8.2zM74.6 64.3c.4.6.3 1.4-.3 1.8L28.9 97.5c-.6.4-1.4.3-1.8-.3-.4-.6-.3-1.4.3-1.8L72.8 64c.6-.5 1.4-.3 1.8.3zM79.7 71.7c.4.6.3 1.4-.3 1.8L34 104.9c-.6.4-1.4.3-1.8-.3-.4-.6-.3-1.4.3-1.8l45.4-31.4c.6-.5 1.4-.3 1.8.3z"/></g><path fill="#4C4C4C" d="M84.2 78.3c.4.6.3 1.4-.3 1.8l-45.4 31.4c-.6.4-1.4.3-1.8-.3-.4-.6-.3-1.4.3-1.8L82.4 78c.6-.4 1.4-.3 1.8.3zM88.7 84.8c.4.6.3 1.4-.3 1.8L43 118c-.6.4-1.4.3-1.8-.3-.4-.6-.3-1.4.3-1.8l45.4-31.4c.6-.4 1.4-.3 1.8.3zM93.2 91.3c.4.6.3 1.4-.3 1.8l-45.4 31.4c-.6.4-1.4.3-1.8-.3-.4-.6-.3-1.4.3-1.8L91.4 91c.6-.4 1.4-.3 1.8.3zM97.7 97.8c.4.6.3 1.4-.3 1.8L52 131c-.6.4-1.4.3-1.8-.3-.4-.6-.3-1.4.3-1.8l45.4-31.4c.6-.5 1.4-.3 1.8.3zM102.2 104.3c.4.6.3 1.4-.3 1.8l-45.4 31.4c-.6.4-1.4.3-1.8-.3-.4-.6-.3-1.4.3-1.8l45.4-31.4c.6-.5 1.4-.3 1.8.3z"/><path fill="#EDC096" d="M14.9 65.6L0 75.9l4.6-25.2z"/><path fill="#6D98AC" d="M134.1 185.7l-5.2-.4c-.9-3.5-2.3-6.9-4.1-10l3.4-4c1.2-1.2 1.4-2.9.5-3.8l-11.1-11.1c-.9-.9-2.6-.7-3.8.5l-4 3.4c-3.1-1.8-6.4-3.2-9.9-4.1l-.4-5.2c0-1.7-1.1-3.1-2.3-3.1H81.3c-1.3 0-2.3 1.4-2.3 3.1l-.4 5.2c-3.5.9-6.9 2.3-9.9 4.1l-4-3.4c-1.2-1.2-2.9-1.4-3.8-.5l-11.1 11.1c-.9.9-.7 2.6.5 3.8l3.4 4c-1.8 3.1-3.2 6.4-4.1 9.9l-5.2.4c-1.7 0-3.1 1.1-3.1 2.3v15.7c0 1.3 1.4 2.4 3.1 2.4l5.3.4c.9 3.5 2.3 6.9 4.1 9.9l-3.4 4c-1.2 1.2-1.4 2.9-.5 3.8L61 235.2c.9.9 2.6.7 3.8-.5l4-3.4c3.1 1.8 6.4 3.2 9.9 4.1l.4 5.2c0 1.7 1.1 3.1 2.3 3.1H97c1.3 0 2.3-1.4 2.3-3.1l.4-5.3c3.5-.9 6.9-2.3 10-4.1l4 3.4c1.2 1.2 2.9 1.4 3.8.5l11.1-11.1c.9-.9.7-2.6-.5-3.8l-3.4-4c1.8-3.1 3.2-6.4 4.1-10l5.2-.4c1.7 0 3.1-1.1 3.1-2.4V188c0-1.3-1.3-2.3-3-2.3zm-45 25.5c-9 0-16.3-7.3-16.3-16.2 0-9 7.3-16.3 16.3-16.3s16.3 7.3 16.3 16.3c0 8.9-7.3 16.2-16.3 16.2z"/><path fill="#27B3D8" d="M86 74.6l11.7-4.8-23.6-56.6-11.7 4.7z"/><path opacity=".2" d="M86.3 75.2l3.4-1.4L66.1 17l-3.5 1.4z"/><path opacity=".2" fill="#FFF" d="M70.707 14.78l3.51-1.46 23.686 56.975-3.51 1.458z"/><path fill="#FFE0A9" d="M61.8 0l.7 18.2c.4 1 1.5 1.4 2.5 1 1-.4 1.4-1.5 1-2.5.5 1.3 2.1 2 3.4 1.5 1.3-.5 1.8-2.4 1.4-3.3.4.9 1.4 1.3 2.4.9.9-.4 1.4-1.5 1-2.5L61.8 0z"/><path opacity=".05" fill="#3C3C3B" d="M61.8 0l.7 18.2c.4 1 1.5 1.4 2.5 1 1-.4 1.4-1.5 1-2.5.6 1.4-4.2-16.7-4.2-16.7z"/><path fill="#3C3C3B" d="M66.6 5.2l-4.7-5 .2 6.9z"/><path fill="#FF839E" d="M94.7 88.3c-1.4.6-3.1-.1-3.7-1.5l-3.8-9.1c-.6-1.4.1-3.1 1.5-3.7l6.5-2.7c1.4-.6 3.1.1 3.7 1.5l3.8 9.1c.6 1.4-.1 3.1-1.5 3.7l-6.5 2.7z"/><path opacity=".1" fill="#3C3C3B" d="M94.3 88.2L90.5 79l-2.3 1 2.7 6.5c.5 1.3 2 2.1 3.4 1.7z"/><path fill="#DADADA" d="M89.1 81.6c-.4.1-.8 0-.9-.4l-2.9-6.9c-.2-.4 0-.8.4-.9l11.4-4.8c.4-.2.8 0 .9.4l2.9 6.9c.2.4 0 .8-.4.9l-11.4 4.8z"/><g opacity=".3"><path fill="#3C3C3B" d="M89.1 80.6c-.2.1-.5 0-.6-.2-.1-.2 0-.5.3-.6l10.7-4.4c.2-.1.5 0 .6.2.1.2 0 .5-.2.6l-10.8 4.4zM88.4 78.9c-.2.1-.5 0-.6-.3-.1-.2 0-.5.2-.6l10.7-4.4c.2-.1.5 0 .6.3.1.2 0 .5-.2.6l-10.7 4.4z"/><path fill="#3C3C3B" d="M88 78c-.2.1-.5 0-.6-.3-.1-.2 0-.5.2-.6l10.7-4.4c.2-.1.5 0 .6.3.1.2 0 .5-.2.6L88 78zM87.3 76.3c-.2.1-.5-.1-.6-.3-.1-.2 0-.6.2-.7l10.7-4.4c.2-.1.5.1.6.3.1.2 0 .5-.2.6l-10.7 4.5zM86.7 74.9c-.2.1-.5 0-.6-.3-.1-.2 0-.5.3-.6L97 69.6c.2-.1.5 0 .6.2.1.2 0 .5-.3.6l-10.6 4.5z"/></g><path opacity=".3" fill="#FFF" d="M98.8 84.8c-.2-.4 0-.8.4-.9.8-.3 1.2-1.3.9-2.1-.2-.4 0-.8.4-.9.4-.1.8 0 .9.4.6 1.5-.1 3.3-1.6 3.9-.4.1-.9 0-1-.4z"/><path opacity=".3" fill="#3C3C3B" d="M85.4 73.3L97 68.4l-.5-1.3L84.8 72z"/><g><path fill-rule="evenodd" clip-rule="evenodd" fill="#9DD6EA" d="M38.5 81.8h141.1V175H38.5z"/><path fill-rule="evenodd" clip-rule="evenodd" fill="gray" d="M38.3 80.7h141.3v11.9H38.3z"/><circle fill="#FCD22E" cx="44.8" cy="86.4" r="2.5"/><circle fill="#FF4848" cx="51.9" cy="86.4" r="2.5"/><path fill-rule="evenodd" clip-rule="evenodd" fill="#FFF" d="M145.3 85.9c0 1.2 1 2.2 2.2 2.2h24.8c1.2 0 2.2-1 2.2-2.2 0-1.2-1-2.2-2.2-2.2h-24.8c-1.2-.1-2.2.9-2.2 2.2z"/><path fill="none" stroke="#FFF" stroke-width="1.821" stroke-miterlimit="10" d="M55.2 162.6l14.4-15.9 12.3 3.7 10.5-15.1 18.9 4.1 5.5-12.3 15 8.2 8.4-23.8 18.8-10"/><circle fill="#2AA449" stroke="#FFF" stroke-width="1.821" stroke-miterlimit="10" cx="131.8" cy="135.3" r="4.6"/><circle fill="#2AA449" stroke="#FFF" stroke-width="1.821" stroke-miterlimit="10" cx="141.1" cy="111.5" r="4.6"/><circle fill="#2AA449" stroke="#FFF" stroke-width="1.821" stroke-miterlimit="10" cx="117.7" cy="127.4" r="4.6"/><circle fill="#2AA449" stroke="#FFF" stroke-width="1.821" stroke-miterlimit="10" cx="159" cy="101.5" r="4.6"/><circle fill="#2AA449" stroke="#FFF" stroke-width="1.821" stroke-miterlimit="10" cx="111.3" cy="138.8" r="4.6"/><circle fill="#2AA449" stroke="#FFF" stroke-width="1.821" stroke-miterlimit="10" cx="92.7" cy="135.3" r="4.6"/><circle fill="#2AA449" stroke="#FFF" stroke-width="1.821" stroke-miterlimit="10" cx="81.6" cy="150.4" r="4.6"/><circle fill="#2AA449" stroke="#FFF" stroke-width="1.821" stroke-miterlimit="10" cx="69.6" cy="148" r="4.6"/><circle fill="#2AA449" stroke="#FFF" stroke-width="1.821" stroke-miterlimit="10" cx="55.2" cy="162.6" r="4.6"/><g fill="#F2F2F2"><path d="M154.7 113.8h6.7v55.8h-6.7zM141.3 121h6.7v48.6h-6.7zM128 145.3h6.7v24.3H128zM114.6 148h6.7v21.6h-6.7zM101.3 147h6.7v22.6h-6.7zM88 145.3h6.7v24.3H88zM74.7 158h6.7v11.6h-6.7zM61.3 163.8H68v5.8h-6.7z"/></g><path fill-rule="evenodd" clip-rule="evenodd" fill="#FFF" d="M139.9 111.5H58.3c-1.2 0-2.1-.9-2.1-2.1V85.7c0-1.2.9-2.1 2.1-2.1h81.5c1.2 0 2.1.9 2.1 2.1v23.7c.1 1.2-.9 2.1-2 2.1z"/><path fill="none" stroke="#2AA449" stroke-width="2.732" stroke-linecap="round" stroke-miterlimit="10" d="M58.6 85.9h41.8"/><g opacity=".2" fill="none" stroke="#000" stroke-width="2.732" stroke-linecap="round" stroke-miterlimit="10"><path d="M58.6 91.7h41.8M58.6 97.6h41.8M58.6 103.4h41.8M58.6 109.3h41.8"/></g></g><g><path fill="#1A1A1A" d="M184.1 179.2H33V83.5c0-6 4.9-10.9 10.9-10.9h129.3c6 0 10.9 4.9 10.9 10.9v95.7zm-144.7-6.5h138.2V80.9H39.4v91.8z"/><circle fill="#333" cx="108.5" cy="76.7" r="2.2"/><circle fill="#1A1A1A" cx="108.5" cy="76.7" r="1.2"/><path opacity=".1" fill="#FFF" d="M107 78.2c.4.4.9.6 1.5.6 1.2 0 2.2-1 2.2-2.2 0-.6-.2-1.1-.6-1.5l-3.1 3.1z"/><g><path fill="#CCC" d="M198.5 187.2h-180c-3.2 0-5.8-2.6-5.8-5.8v-2.2h191.5v2.2c.1 3.2-2.5 5.8-5.7 5.8z"/><path fill="#B3B3B3" d="M125.4 183.2H91.6c-2.2 0-4-1.8-4-4h41.7c.1 2.2-1.7 4-3.9 4z"/></g><g opacity=".3"><path fill="#FFF" d="M43.9 72.6c-6 0-10.9 4.9-10.9 10.9v95.7h24.2L163.8 72.6H43.9z"/></g></g><g><path fill="#FCD22E" d="M174.8 68c4.3 11.4 13 20.5 24 25.5-11 5-19.7 14.2-24 25.5-4.3-11.3-13-20.5-24-25.5 11.1-5 19.7-14.2 24-25.5z"/><path fill="#FD7600" d="M174.8 80.6c2.2 5.7 6.5 10.3 12.1 12.8-5.5 2.5-9.9 7.1-12.1 12.8-2.2-5.7-6.5-10.3-12.1-12.8 5.6-2.4 10-7 12.1-12.8z"/><path fill="#FCD22E" d="M155.8 49.9c2.1 5.5 6.3 10 11.7 12.5-5.4 2.4-9.6 6.9-11.7 12.5-2.1-5.6-6.3-10-11.7-12.5 5.3-2.5 9.6-7 11.7-12.5z"/><path fill="#FD7600" d="M155.8 56.1c1.1 2.8 3.2 5.1 5.9 6.3-2.7 1.2-4.8 3.5-5.9 6.3-1.1-2.8-3.2-5.1-5.9-6.3 2.7-1.3 4.8-3.5 5.9-6.3z"/><g><path fill="#FCD22E" d="M196.5 42.7c3 8 9.2 14.5 16.9 18-7.7 3.5-13.9 10-16.9 18-3-8-9.2-14.5-16.9-18 7.7-3.5 13.9-10 16.9-18z"/><path fill="#FD7600" d="M196.5 51.6c1.5 4 4.6 7.3 8.5 9.1-3.9 1.7-7 5-8.5 9-1.5-4-4.6-7.3-8.5-9 3.9-1.8 7-5.1 8.5-9.1z"/></g></g><g fill="#FF5046"><path d="M229 142.4l-23-40.6c-.9-1.8-2.7-3-4.9-3s-4 1.3-5 3.1l-23.5 40.4c-.6.9-1 2-1 3.2 0 3.1 2.5 5.5 5.5 5.6l47.3.1c3.1 0 5.5-2.5 5.6-5.5 0-1.3-.4-2.4-1-3.3z"/><path d="M188.1 122.3c2 5.9 3.1 12.3 3.1 18.9 0 32.9-26.7 59.5-59.5 59.5-9.6 0-18.7-2.3-26.7-6.3 11.4 10.1 26.4 16.2 42.8 16.2 35.7 0 64.6-28.9 64.6-64.6 0-11.6-3.1-22.5-8.4-31.9l-15.9 8.2z"/></g><g><path fill-rule="evenodd" clip-rule="evenodd" fill="#2AA449" d="M125.2 9.2c-11.5 5.3-16.6 18.8-11.3 30.4 1.3 2.9 3.1 5.3 5.3 7.4l.6 12.3 10.4-6.7c4.6.9 9.5.5 14.1-1.6 11.5-5.3 16.6-18.8 11.3-30.4C150.3 9 136.7 3.9 125.2 9.2z"/><path fill="#FFF" d="M128.4 16.5l-.4 10.3-8.8 5.6L129 36l2.5 10 6.5-8.1 10.3.6-5.8-8.6 3.9-9.6-10 2.8z"/></g><g><path fill-rule="evenodd" clip-rule="evenodd" fill="#2AA449" d="M181 4.7c-6.8 1.3-11.3 7.9-10 14.6.3 1.7 1 3.2 1.9 4.6l-1.3 6.6 6.4-2.2c2.3 1.1 5 1.5 7.7 1 6.8-1.3 11.3-7.9 10-14.6-1.4-6.9-7.9-11.3-14.7-10z"/><path fill="#FFF" d="M181.7 9l-1.5 5.4-5.4 1.8 4.7 3.2.1 5.7 4.4-3.5 5.4 1.7-1.9-5.4 3.3-4.6-5.7.2z"/></g></svg>