<svg baseProfile="basic" xmlns="http://www.w3.org/2000/svg" width="149.3" height="149.3" viewBox="0 0 149.3 149.3"><g fill="#DBDBDB"><path d="M74.7 0C33.4 0 0 33.4 0 74.7s33.4 74.7 74.7 74.7 74.7-33.4 74.7-74.7S115.9 0 74.7 0zm0 142.7c-37.6 0-68-30.4-68-68s30.4-68 68-68 68 30.4 68 68-30.5 68-68 68z"/><path d="M74.7 13.5c-33.8 0-61.2 27.4-61.2 61.2 0 33.8 27.4 61.2 61.2 61.2 33.8 0 61.2-27.4 61.2-61.2 0-33.8-27.4-61.2-61.2-61.2zm32.1 95.5c-3.3 3-8.4 2.6-11.4-.7l-14-15.8c-4.2 2-8.7 3.1-13.5 3.1-8.2 0-15.9-3.2-21.8-9-5.8-5.8-9-13.6-9-21.8 0-8.2 3.2-15.9 9-21.8 5.8-5.8 13.6-9 21.8-9 8.3 0 16 3.2 21.8 9 5.8 5.8 9 13.6 9 21.8 0 6.1-1.8 12-5.1 17l13.9 15.8c3 3.3 2.6 8.4-.7 11.4z"/><path d="M90.3 64.7c0-6-2.3-11.6-6.5-15.8-4.2-4.2-9.8-6.5-15.8-6.5s-11.5 2.3-15.8 6.5c-4.2 4.2-6.5 9.8-6.5 15.8s2.3 11.6 6.5 15.8C56.4 84.7 62 87 68 87s11.6-2.3 15.8-6.5c4.1-4.2 6.5-9.8 6.5-15.8z"/></g></svg>