<svg baseProfile="basic" xmlns="http://www.w3.org/2000/svg" width="105" height="62" viewBox="0 0 105 62"><circle fill="#E4E4E4" cx="67.2" cy="30.2" r="4"/><path fill="#49494A" d="M61.9 26.2h5.3v8h-5.3z"/><path fill="#FD4D4D" d="M23.5 43.1h-17C5.1 43.1 4 42 4 40.6V19.8c0-1.4 1.1-2.5 2.5-2.5h17v25.8z"/><path opacity=".1" d="M23.5 34.2v9h-17C5.1 43.1 4 42 4 40.6v-6.4h19.5z"/><path fill="#E4E4E4" d="M63.3 53l-39.8-9.9V17.2l39.8-9.9z"/><path fill="#FD4D4D" d="M63.3 56.5c-1.4 0-2.5-1.1-2.5-2.5V6.3c0-1.4 1.1-2.5 2.5-2.5s2.5 1.1 2.5 2.5V54c0 1.4-1.1 2.5-2.5 2.5z"/><g fill="#FD4D4D"><path d="M28.5 37v-8.9h-3.2V26H34v2.1h-3.2V37h-2.3zM35 31.5c0-3.3 2.4-5.7 5.7-5.7 3.3 0 5.8 2.4 5.8 5.7 0 3.3-2.4 5.7-5.8 5.7-3.3 0-5.7-2.3-5.7-5.7zm9.1 0c0-2.1-1.3-3.6-3.4-3.6s-3.3 1.6-3.3 3.6 1.3 3.6 3.3 3.6 3.4-1.5 3.4-3.6zM48.2 37V26h5.2c2.4 0 3.7 1.6 3.7 3.5S55.8 33 53.4 33h-2.8v4h-2.4zm6.4-7.4c0-.9-.7-1.5-1.6-1.5h-2.5v3H53c.9 0 1.6-.6 1.6-1.5z"/></g><path fill="#E4E4E4" d="M25.5 62h-6.8l-4.9-18.9h6.8z"/><path fill="#49494A" d="M20.6 43.1l1.5 5.9 1.4-5.9z"/><circle fill="#E4E4E4" cx="19.6" cy="38.6" r="1.7"/><path fill="#E4E4E4" d="M2.2 23.5c.5-.5 1.1-.8 1.8-.8v14.9c-.6 0-1.3-.3-1.8-.8C.9 35.6 0 33.1 0 30.2s.9-5.4 2.2-6.7z"/><path opacity=".1" d="M4 22.7v14.9c-.6 0-1.3-.3-1.8-.8V23.5c.5-.5 1.1-.8 1.8-.8z"/><path fill="#FFF" d="M7.9 22.8h15.8l32.1-7.4c.8-.2 1.3-1 1.1-1.8-.2-.8-1-1.3-1.8-1.1l-31.8 7.3H7.9c-.8 0-1.5.7-1.5 1.5s.7 1.5 1.5 1.5z" opacity=".3"/><path opacity=".1" d="M23.5 34.2l37.3 2.5v15.7l-37.3-9.3z"/><path opacity=".1" d="M60.8 7.9l-1.8.5v28.2l1.8.1zM20.6 43.1h-6.8l.7 3h6.8z"/><g fill="#FCD22E"><path d="M72.7 48c-.7 0-1.4-.3-1.9-.8-1-1-1-2.7.1-3.6 3.7-3.5 5.7-8.3 5.7-13.4s-2-9.8-5.7-13.4c-1-1-1.1-2.6-.1-3.6s2.6-1.1 3.6-.1c4.7 4.5 7.3 10.6 7.3 17.1 0 6.5-2.6 12.6-7.3 17.1-.4.5-1.1.7-1.7.7z"/><path d="M81.6 54.2c-.7 0-1.4-.3-1.9-.8-1-1-1-2.7.1-3.6 5.4-5.2 8.3-12.1 8.3-19.6 0-7.4-3-14.4-8.3-19.6-1-1-1.1-2.6-.1-3.6s2.6-1.1 3.6-.1c6.4 6.2 9.9 14.4 9.9 23.3s-3.5 17.1-9.9 23.3c-.4.4-1.1.7-1.7.7z"/><path d="M90.5 60.3c-.7 0-1.4-.3-1.9-.8-1-1-1-2.7.1-3.6 7.1-6.8 11-15.9 11-25.7 0-9.8-3.9-18.9-11-25.7-1-1-1.1-2.6-.1-3.6s2.6-1.1 3.6-.1c8.1 7.8 12.5 18.2 12.5 29.5 0 11.2-4.5 21.7-12.5 29.5-.5.3-1.1.5-1.7.5z"/></g></svg>