<svg baseProfile="basic" xmlns="http://www.w3.org/2000/svg" width="54" height="80" viewBox="0 0 54 80"><path fill="#603813" d="M50 26.8L28 16.2v-4.6c0-.8-.7-1.5-1.5-1.5-1.9 0-3.5-1.6-3.5-3.5 0-2 1.6-3.6 3.5-3.6S30 4.6 30 6.5c0 .8.7 1.5 1.5 1.5S33 7.3 33 6.5C33 2.9 30.1 0 26.5 0S20 2.9 20 6.5c0 3.1 2.2 5.7 5 6.4v3.4L3.4 26.8c-2.1 1-3.4 3.1-3.4 5.4v.1c0 3.3 2.7 6 6 6h41.4c3.3 0 6-2.7 6-6v-.1c-.1-2.3-1.4-4.4-3.4-5.4zm.3 5.5c0 1.6-1.3 3-3 3H6c-1.6 0-3-1.3-3-3v-.1c0-1.1.7-2.2 1.7-2.7l22-10.6 22 10.6c1 .5 1.6 1.6 1.6 2.8z"/><g opacity=".2" fill="#010000"><path d="M26.7 3c1.9.1 3.4 1.6 3.4 3.5 0 .8.7 1.5 1.5 1.5s1.5-.7 1.5-1.5c0-3.6-2.9-6.5-6.4-6.5v3zM50 26.8L28 16.2v-4.6c0-.8-.6-1.4-1.4-1.5v8.8l22 10.6c1 .5 1.7 1.5 1.7 2.7v.1c0 1.6-1.3 3-3 3H26.7v3h20.7c3.3 0 6-2.7 6-6v-.1c-.1-2.3-1.4-4.4-3.4-5.4z"/></g><path fill="#FCD22E" d="M32.9 36l-6.2-6.2-6.3 6.2 5.4 5.4-5.4 32.4 6.3 6.2 6.2-6.2-5.4-32.4z"/><path opacity=".2" fill="#010000" d="M32.9 36l-6.2-6.2V80l6.2-6.2-5.4-32.4z"/><path fill="#F54E41" d="M17.8 36l-6.2-6.2L5.3 36l5.4 5.4-5.4 32.4 6.3 6.2 6.2-6.2-5.4-32.4z"/><path opacity=".2" fill="#010000" d="M17.8 36l-6.2-6.2V80l6.2-6.2-5.4-32.4z"/><path fill="#36B056" d="M48.6 36l-6.2-6.2-6.2 6.2 5.3 5.4-5.3 32.4 6.2 6.2 6.2-6.2-5.3-32.4z"/><path opacity=".2" fill="#010000" d="M48.6 36l-6.2-6.2V80l6.2-6.2-5.3-32.4z"/></svg>