<svg xmlns="http://www.w3.org/2000/svg" width="250" height="120" viewBox="0 0 250 120"><defs><clipPath id="a"><path fill="none" d="M0 0h250v120H0z"/></clipPath><clipPath id="b"><path fill="none" d="M166.46 55.87h6.32v1.26h-6.32z"/></clipPath><clipPath id="c"><circle data-name="&lt;Обтравочный контур&gt;" cx="151.51" cy="27.82" r="7.62" fill="none"/></clipPath><clipPath id="d"><circle data-name="&lt;Обтравочный контур&gt;" cx="187.68" cy="27.82" r="7.62" fill="none"/></clipPath></defs><title>для баннера 218</title><g clip-path="url(#a)" data-name="Слой 1" style="isolation:isolate"><path d="M318.86 107.07h-69.5a5.89 5.89 0 0 1-.75 0h-38.17a6.23 6.23 0 0 1 0-12.45h90.47a12.33 12.33 0 0 0-2-24.49h-18.24l.48-.24h-49.57a12.38 12.38 0 1 1 0-24.76h48.34a12.38 12.38 0 0 0-4.12-24.06H178q-.54 0-1.06.05h-37.25a6 6 0 0 0-1.86 11.78h9.8a6.37 6.37 0 1 1 0 12.75h-18.85l.24.07H58.29a6.14 6.14 0 0 0 0 12.29h5.33-.11 15.16a6.16 6.16 0 1 1 0 12.32H64.75A12.33 12.33 0 0 0 67 94.82h72.48a6.15 6.15 0 0 1 0 12.29H88.72a11.85 11.85 0 0 0 0 23.69h14.88a6.65 6.65 0 0 0 .93.07h15.58a6.14 6.14 0 0 0 1.09 12.19h124.54a6.14 6.14 0 0 0 1.09-12.19h-59a5.74 5.74 0 1 1 0-11.49h44.24l-.1-.06h86.87a6.15 6.15 0 0 0 0-12.29z" fill="#7e7e7e" opacity=".2"/><g opacity=".2" fill="#010000"><path d="M101.64 108.45l17.46 73.88 20.87 3.62-5.75-79.63M238.33 108.45l-17.46 73.88-20.86 3.62 5.74-79.63"/></g><path fill="#7f7f7f" d="M214.36 180.28h-89.7l-6.17-78.21h102.04l-6.17 78.21z"/><path d="M168.32 59.09l1.76.12 18.57-1.42S221 72 224.1 73.41s5.59 3.52 7.71 7.95c1.82 3.81 6 22.07 7.8 30.1l-71.28 6.5z" fill="#7f7f7f"/><path d="M170.79 59.09l-1.55.12-18.46-1.42S118.52 72 115.39 73.41s-5.57 3.52-7.69 7.95c-1.82 3.81-12.31 21.09-14.12 29.11l77.2 7.48z" fill="#7f7f7f"/><path fill="#f4c6a7" d="M147.88 50.52h43.16v44.69h-43.16z"/><path fill="#e4e4e4" d="M169.72 80.15l-29.26-17.43 22.46 75.98 6.64 6.48 6.63-10.26 10.85-22.32 11.99-49.88-29.31 17.43z"/><path fill="#2975b8" d="M182.46 74.04H157.09l10.73 15.29-5.26 41.48 5.45 13.16 3.91-1.65 5.97-11.72-6.17-41.27 10.74-15.29z"/><path opacity=".2" d="M192.05 58.88l7.02 3.48-13.68 30.92-15.4-19.24 22.06-15.16z"/><path fill="#fff" d="M192.05 58.88l7.07 3.29-13.53 26.71-15.6-14.84 22.06-15.16z"/><path opacity=".2" d="M147.99 59.75l-7.37 3.93 13.53 29.6 15.84-19.24-22-14.29z"/><path fill="#fff" d="M147.5 58.88l-7.07 3.29 13.53 26.71 15.6-14.84-22.06-15.16zM179.72 44.88c0 3.16-4.45 5.73-9.94 5.73s-9.94-2.57-9.94-5.73 4.45-.37 9.94-.37 9.94-2.79 9.94.37"/><path data-name="&lt;Контур&gt;" d="M140.07 21.78l-1.92 1.55a29 29 0 0 0-7.85 9.89l-29.57 60.94 34.89-39.09 5.51-16z" fill="#f4c6a7"/><path d="M137.83 39.49z" fill="#010000" opacity=".3" style="mix-blend-mode:overlay"/><path d="M140 41.93l.11.12-1.45 4.16-.84-6.64.44.74a4.23 4.23 0 0 0 1.74 1.62z" fill="#010000" opacity=".1"/><path fill="#010000" opacity=".3" style="mix-blend-mode:overlay" d="M137.84 39.54v.02l-.01-.01.01-.01z"/><g data-name="&lt;Группа&gt;"><path data-name="&lt;Контур&gt;" fill="#f4c6a7" d="M154.52 38.07h29.92v19.45h-29.92z"/><g data-name="&lt;Группа&gt;"><path data-name="&lt;Контур&gt;" d="M141.68 33.78a2 2 0 0 0 2.23 1.85h.24a2.05 2.05 0 0 0 1.85-2.26l-.83-8.89a2.06 2.06 0 0 0-2.24-1.85h-.24a2 2 0 0 0-1.85 2.23z" fill="#f4c6a7"/><g data-name="&lt;Группа&gt;"><path data-name="&lt;Контур&gt;" d="M197.72 33.78a2 2 0 0 1-2.23 1.85h-.24a2.05 2.05 0 0 1-1.85-2.23l.83-8.89a2.05 2.05 0 0 1 2.23-1.85h.24a2 2 0 0 1 1.85 2.23z" fill="#f4c6a7"/><path data-name="&lt;Контур&gt;" d="M185.41 53.35h-31.57V58a21.71 21.71 0 0 0 31.57.28z" fill="#14120e" opacity=".2"/><g clip-path="url(#b)" data-name="&lt;Группа обтравки&gt;"><path data-name="&lt;Контур&gt;" d="M173 56.67c0 .22-1.47.4-3.28.4s-3.27-.18-3.27-.4 1.46-.4 3.27-.4 3.28.18 3.28.4" fill="#14120e"/></g><path data-name="&lt;Контур&gt;" d="M169.58-7H169c-14.59 0-26.4 15.93-26.4 35.57 1.56 10.95 5 23.75 8.36 27.1 5.11 5.1 13.31 7.85 17.92 6.69h.51c4.62 1.16 13-1.59 18.11-6.69 3.35-3.35 6.85-16.15 8.42-27.1C195.92 8.93 184.15-7 169.58-7z" fill="#f4c6a7"/><path data-name="&lt;Контур&gt;" d="M161.24 39.26a6.13 6.13 0 1 1-6.13-6.13 6.13 6.13 0 0 1 6.13 6.13z" fill="#e99384"/><circle data-name="&lt;Контур&gt;" cx="183.4" cy="39.26" r="6.14" fill="#e99384"/><path data-name="&lt;Контур&gt;" d="M187.81 27.45c0 1.34-2.78 2.42-6.22 2.42s-6.22-1.08-6.22-2.42S178.16 25 181.6 25s6.22 1.08 6.22 2.42M162.21 27.45c0 1.34-2.79 2.42-6.22 2.42s-6.22-1.08-6.22-2.42S152.56 25 156 25s6.22 1.08 6.22 2.42" fill="#fff"/><path data-name="&lt;Контур&gt;" d="M172.78 40.28a3 3 0 0 1-3.11 2.92h-.09a3 3 0 0 1-3.11-2.92v-13.1a3 3 0 0 1 3.11-2.92h.09a3 3 0 0 1 3.11 2.92z" fill="#14120e" opacity=".2"/><path data-name="&lt;Контур&gt;" d="M156.9 26.85a.46.46 0 1 1-.45-.46.45.45 0 0 1 .45.46" fill="#fff"/><path data-name="&lt;Контур&gt;" d="M183.22 27.44a1.76 1.76 0 1 1-1.76-1.77 1.77 1.77 0 0 1 1.76 1.77" fill="#422902"/><path data-name="&lt;Контур&gt;" d="M181.3 26.75a.53.53 0 1 1-.53-.54.53.53 0 0 1 .53.54" fill="#fff"/><path data-name="&lt;Контур&gt;" d="M157.75 27.44a1.76 1.76 0 1 1-1.75-1.76 1.76 1.76 0 0 1 1.76 1.77" fill="#422902"/><path data-name="&lt;Контур&gt;" d="M155.82 26.75a.53.53 0 1 1-.53-.54.53.53 0 0 1 .53.54" fill="#fff"/><path data-name="&lt;Контур&gt;" d="M162.2 21.36a1.47 1.47 0 0 1-1.6 1.31l-9.81-.24a1.47 1.47 0 0 1-1.53-1.4 1.48 1.48 0 0 1 1.6-1.32l9.81.24a1.48 1.48 0 0 1 1.54 1.4zM189.7 21.36a1.47 1.47 0 0 1-1.6 1.31l-9.81-.24a1.47 1.47 0 0 1-1.53-1.4 1.47 1.47 0 0 1 1.6-1.32l9.81.24a1.48 1.48 0 0 1 1.53 1.4z" fill="#422902"/><ellipse data-name="&lt;Контур&gt;" cx="169.75" cy="56.31" rx="3.2" ry=".73" fill="#14120e" opacity=".2"/><path data-name="&lt;Контур&gt;" d="M144.62 25.95c-1-5.8 4.31-19 5-20 3.3 1.53 9.87 1.92 11 .93 2.64 2 9.24 6.71 18.81 1a14.46 14.46 0 0 1 8.7-2.42c.66.11 5.57 13.31 5.57 21.43a6.72 6.72 0 0 1 1.28 1.6s2.31-26.74-.34-29.28-6.84-6.41-11.79-8.5-6.6-5.61-6.6-6.6c-.55 3-.33 4.84-.11 5.17-4-3-6.42-7.14-6.29-9.73-3.39-.06-10.65 5.55-12 7.31-2.09-.22-12.43 7.93-14.3 11.56s-.89 27.4 0 29.07a2.72 2.72 0 0 1 1.07-1.54z" fill="#77513b"/><path data-name="&lt;Контур&gt;" d="M145.25 53.3c0 9.46 17 17.75 24.28 17.75h.21c7.53 0 23.41-9.28 23.41-18.73V42c0-6.51-7.89 3.08-21 3.08h-1.89c-14.68 0-24.89-11.2-25.12-4.71z" fill="#010000" opacity=".1"/><path data-name="&lt;Контур&gt;" d="M145.25 51c0 9.45 17 17.5 24.28 17.5h.21c7.53 0 23.41-8.78 23.41-18.23V40c0-6.5-7.89 5.1-21 5.1h-1.89c-14.68 0-24.89-12.33-25.12-5.84z" fill="#77513b"/><path data-name="&lt;Контур&gt;" d="M179.92 46.7c0 3.25-4.58 5.9-10.23 5.9s-10.24-2.6-10.24-5.9 4.58-.38 10.23-.38 10.23-2.87 10.23.38" fill="#fff"/><g data-name="&lt;Группа&gt;" fill="#63402e"><path data-name="&lt;Контур&gt;" d="M194.41 34.2s-8.3 11.39-21.79 6c-6 0-5.23 5.83-.9 6.51 7.32 1.14 22.8.21 22.69-11.92"/><path data-name="&lt;Контур&gt;" d="M145 34.2s8.3 11.39 21.79 6c6 0 5.23 5.83.9 6.51-7.32 1.14-22.8.21-22.69-11.92"/></g><rect data-name="&lt;Контур&gt;" x="166.46" y="21.78" width="6.32" height="20.2" rx="3.11" ry="3.11" fill="#e99384"/></g></g></g><path data-name="&lt;Контур&gt;" d="M198.79 21.78l1.92 1.55a29 29 0 0 1 7.85 9.89l29.57 60.95-34.9-39.1-5.51-16z" fill="#f4c6a7"/><path data-name="&lt;Контур&gt;" d="M204.05 25.1l-2.31-5.73a7.49 7.49 0 0 0-3.65-3.93l-4.64-2.28a11.73 11.73 0 0 0-9.5-.37c-2 .81-5.07 2-6.64 3.52L175 18.55a1.26 1.26 0 0 0-.2 1.55c.4.67 2.49.85 3.08.34l3.2-2.76c1.31-1.13 2.92.33 4.63.09l.35 1.14c2.1-.29 2.46.58 4.26 1.71l1.83.45c1.5.94.08 1.82.81 3.43l1.15 1c1.13 2.51.57 1.31-.7 3.76l-.41 1.35c-.64 1.24.49 1.61-.64 2.43l-1.47.86c-2.62 1.91-3.15 4.39-6.35 3.88l-2-.32-.94-.39a1.62 1.62 0 0 0-2.2 1.11v.56l.48.17 4.84.68a18.32 18.32 0 0 1 6.11 2l.58.31a8.49 8.49 0 0 0 5.75.82 4.47 4.47 0 0 0 2.93-2.1l3.22-5.62a11.24 11.24 0 0 0 .74-9.9z" fill="#010000" opacity=".1"/><g data-name="&lt;Группа&gt;" opacity=".1" fill="#010000"><circle data-name="&lt;Контур&gt;" cx="150.64" cy="27.35" r="7.99"/><path data-name="&lt;Составной контур&gt;" d="M188.55 16.31a11 11 0 0 0-8 3.5 4.47 4.47 0 0 1-1.26-1.81h-6.45a4 4 0 0 0-6.49 0h-6.45a4.46 4.46 0 0 1-1.22 1.85 11 11 0 1 0 .63 14.35c2.57-.19 5.18-1.89 6.61-5.23 1.52-3.55 2.33-4.06 3.67-4.06s2.15.51 3.67 4.06c1.43 3.34 4 5 6.61 5.23a11 11 0 1 0 8.67-17.85zm-37.91 19a8 8 0 1 1 8-8 8 8 0 0 1-8 8.03zm37.91 0a8 8 0 1 1 8-8 8 8 0 0 1-8 8.03z"/><circle data-name="&lt;Контур&gt;" cx="188.55" cy="27.35" r="7.99"/></g><path data-name="&lt;Контур&gt;" d="M180.42 20.86c-1-.36-1.57-2-1.57-2h-18.5s-.54 1.63-1.57 2 1.22 6.41 1.22 6.41l-.73 7.08c2.6 0 5.32-1.63 6.78-5s2.22-3.87 3.5-3.87 2 .48 3.5 3.87 4.18 5 6.78 5l-.73-7.08s2.35-6.05 1.32-6.41z" fill="#0d2a38"/><path data-name="&lt;Контур&gt;" d="M204.42 25.6l-2.18-5.42a7.1 7.1 0 0 0-3.46-3.72l-4.4-2.16a11.11 11.11 0 0 0-9-.35c-1.93.77-4.8 1.88-6.29 3.33l-2.16 2.11a1.19 1.19 0 0 0-.19 1.47c.38.63 2.36.8 2.91.32l3-2.61c1.24-1.07 2.76.31 4.39.08l.33 1.08c2-.28 2.33.55 4 1.62l1.73.42c1.42.89.07 1.73.76 3.25L195 26c1.07 2.37.54 1.24-.66 3.56l-.43 1.3c-.61 1.18.46 1.53-.61 2.31l-1.4.82c-2.48 1.81-3 4.16-6 3.68l-1.93-.3-.89-.37a1.53 1.53 0 0 0-2.08 1v.53l.45.16 4.58.64a17.35 17.35 0 0 1 5.78 1.89l.55.29a8 8 0 0 0 5.45.78 4.23 4.23 0 0 0 2.77-2l3.14-5.29a10.64 10.64 0 0 0 .7-9.4z" fill="#f4c6a7"/><path data-name="&lt;Контур&gt;" d="M134.87 25.1l2.31-5.73a7.49 7.49 0 0 1 3.65-3.93l4.65-2.28a11.73 11.73 0 0 1 9.5-.37c2 .81 5.07 2 6.64 3.52l2.28 2.23a1.26 1.26 0 0 1 .2 1.55c-.4.67-2.49.85-3.08.34l-3.2-2.76c-1.31-1.13-2.92.33-4.63.09l-.35 1.14c-2.1-.29-2.46.58-4.26 1.71l-1.83.45c-1.5.94-.08 1.82-.81 3.43l-1.15 1c-1.13 2.51-.57 1.31.7 3.76l.46 1.37c.64 1.24-.49 1.61.64 2.43l1.47.86c2.62 1.91 3.15 4.39 6.35 3.88l2-.32.94-.39a1.62 1.62 0 0 1 2.2 1.11v.56l-.48.17-4.84.68a18.32 18.32 0 0 0-6.11 2l-.58.31a8.49 8.49 0 0 1-5.75.82 4.47 4.47 0 0 1-2.93-2.1L135.61 35a11.24 11.24 0 0 1-.74-9.9z" fill="#010000" opacity=".1"/><path data-name="&lt;Контур&gt;" d="M134.5 25.6l2.18-5.42a7.1 7.1 0 0 1 3.46-3.72l4.4-2.16a11.11 11.11 0 0 1 9-.35c1.93.77 4.8 1.88 6.29 3.33L162 19.4a1.19 1.19 0 0 1 .19 1.47c-.38.63-2.36.8-2.91.32l-3-2.61c-1.24-1.07-2.76.31-4.39.08l-.33 1.08c-2-.28-2.33.55-4 1.62l-1.73.42c-1.42.89-.07 1.73-.76 3.25l-1.09.94c-1.07 2.37-.54 1.24.66 3.56l.43 1.3c.61 1.18-.46 1.53.61 2.31l1.4.82c2.48 1.81 3 4.16 6 3.68l1.93-.3.89-.37a1.53 1.53 0 0 1 2.08 1v.53l-.45.16-4.58.64a17.35 17.35 0 0 0-5.78 1.89l-.55.29a8 8 0 0 1-5.45.78 4.23 4.23 0 0 1-2.77-2L135.2 35a10.64 10.64 0 0 1-.7-9.4z" fill="#f4c6a7"/><path data-name="&lt;Контур&gt;" d="M155.82 36.95l-.89.37-1.93.3c-3 .48-3.53-1.87-6-3.68l-1.4-.82c-.77-.56-.44-.9-.41-1.47a3.42 3.42 0 0 1-2.07-.86 2.56 2.56 0 0 0-.86-.08 14.35 14.35 0 0 1-2.33-.13 11 11 0 0 1-1.31-.24c.41 1.52.8 3 1.27 4.54a3.67 3.67 0 0 1-2 4.66l.45.76a4.23 4.23 0 0 0 2.77 2 8 8 0 0 0 5.45-.78l.55-.29a17.35 17.35 0 0 1 5.78-1.89l4.58-.64.45-.16v-.53a1.53 1.53 0 0 0-2.1-1.06z" fill="#010000" opacity=".1"/><path data-name="&lt;Контур&gt;" d="M141 27.82s2.58 8-3.09 11.73c0 0-3.17-4.83-1.81-10.33s4.9-1.4 4.9-1.4z" fill="#f4c6a7"/><g clip-path="url(#c)"><path fill="#a0d7e8" d="M140.98 16.43h21.79V39.5h-21.79z"/><path fill="#f54e41" d="M144.82 30.78h2.62v4.98h-2.62zM148.46 29.23h2.62v6.53h-2.62zM152.09 30.62h2.62v5.14h-2.62zM155.73 27.9h2.62v7.87h-2.62z"/></g><path data-name="&lt;Составной контур&gt;" d="M151.51 20.19a7.62 7.62 0 1 1-7.62 7.62 7.63 7.63 0 0 1 7.62-7.62m0-2.9A10.53 10.53 0 1 0 162 27.82a10.53 10.53 0 0 0-10.53-10.53z" fill="#264e66"/><circle data-name="&lt;Контур&gt;" cx="169.6" cy="21.15" r="3.86" fill="#264e66"/><circle data-name="&lt;Контур&gt;" cx="169.6" cy="21.15" r="2.49" fill="#0d2a38"/><g clip-path="url(#d)"><path fill="#a0d7e8" d="M177.83 18.18h20.73v20.01h-20.73z"/><path fill="#f54e41" d="M181.17 27.19h2.62v8.58h-2.62zM184.8 29.21h2.62v6.55h-2.62zM188.44 25.45h2.62v10.31h-2.62zM192.07 20.42h2.62v15.34h-2.62z"/></g><g clip-path="url(#c)" fill="#fff" data-name="&lt;Группа обтравки&gt;" opacity=".5"><path data-name="&lt;Контур&gt;" d="M136.94 37.13l23.484-23.483 2.525 2.524-23.484 23.484zM141.03 42.11l23.927-23.928 1.13 1.13-23.927 23.93z"/></g><path data-name="&lt;Контур&gt;" d="M183.11 36.95l.89.37 1.93.3c3 .48 3.53-1.87 6-3.68l1.4-.82c.77-.56.44-.9.41-1.47a3.42 3.42 0 0 0 2.07-.86 2.56 2.56 0 0 1 .86-.08 14.35 14.35 0 0 0 2.33-.13 11 11 0 0 0 1.31-.24c-.41 1.52-.8 3-1.27 4.54a3.67 3.67 0 0 0 2 4.66l-.45.76a4.23 4.23 0 0 1-2.77 2 8 8 0 0 1-5.45-.78l-.55-.29a17.35 17.35 0 0 0-5.82-1.9l-4.58-.64-.45-.16V38a1.53 1.53 0 0 1 2.14-1.05z" fill="#010000" opacity=".1"/><path d="M201 39.49z" fill="#010000" opacity=".3" style="mix-blend-mode:overlay"/><path d="M198.83 41.93l-.11.12 1.45 4.16.84-6.64-.44.74a4.23 4.23 0 0 1-1.74 1.62z" fill="#010000" opacity=".1"/><path fill="#010000" opacity=".3" style="mix-blend-mode:overlay" d="M201.02 39.54v.02l.01-.01-.01-.01z"/><path data-name="&lt;Контур&gt;" d="M197.94 27.82s-2.58 8 3.09 11.73c0 0 3.17-4.83 1.81-10.33s-4.9-1.4-4.9-1.4z" fill="#f4c6a7"/><path data-name="&lt;Составной контур&gt;" d="M187.68 20.19a7.62 7.62 0 1 1-7.62 7.62 7.63 7.63 0 0 1 7.62-7.62m0-2.9a10.53 10.53 0 1 0 10.53 10.53 10.53 10.53 0 0 0-10.53-10.53z" fill="#264e66"/><g clip-path="url(#d)" fill="#fff" data-name="&lt;Группа обтравки&gt;" opacity=".5"><path data-name="&lt;Контур&gt;" d="M173.1 37.14l23.483-23.482 2.525 2.525-23.483 23.483zM177.188 42.112l23.928-23.93 1.13 1.132-23.927 23.93z"/></g><path d="M126.67 154.05a88.8 88.8 0 0 1-2.57-18.92 44.49 44.49 0 0 1 1.16-8.36c1.32-7.12.24-10.48-.36-17.69-.12-1.47.92-7.18-.49-7.61s-2.4 2.23-2.9 3.6-.86 1.52-1.45 2.85a5.32 5.32 0 0 1-7.63 2.05c-1.69-1.23-2.46-3.32-3.51-5.13s-2.88-3.56-4.94-3.2-3.09 2.39-3.92 4.2a20 20 0 0 0-1.83 5.26l21.15 2 5.3 67.13h2.26a18 18 0 0 0 1.19-4.17c1.34-7.24.13-14.77-1.46-22.01z" fill="#201600" opacity=".1"/><path fill="#fff" d="M121.275 41.62l4.378-7.02 17.39 10.842-4.377 7.02z"/><path opacity=".1" d="M131.386 48.283l4.385-7 6.56 4.108-4.384 7z"/><path d="M109.34 106.28a14.45 14.45 0 0 0 1.74-2.82l30.5-50.76-21.18-13.1-33 47.62A14.44 14.44 0 0 0 84.78 91a14.54 14.54 0 0 0 24.41 15.43z" fill="#7f7f7f"/><path d="M84.77 91.05a14.69 14.69 0 0 0-.61 1.48 14.54 14.54 0 0 0 25 14l.13-.22a14.45 14.45 0 0 0 1.74-2.82l30.5-50.76-1.64-1-.39.39A87.81 87.81 0 0 0 125.36 72c-2.65 5.11-4.8 10.48-7.81 15.39a101.7 101.7 0 0 1-9 11.86l-4.68 5.6a10.17 10.17 0 0 1-3.08 2.8 7.87 7.87 0 0 1-5.85 0 13.81 13.81 0 0 1-7.43-5.5 12.81 12.81 0 0 1-1.9-9 20.28 20.28 0 0 1 1-4c.13-.39.59-1.08.31-1.37A14.4 14.4 0 0 0 84.78 91z" fill="#201600" opacity=".1"/><circle cx="121.09" cy="46.2" r="2.12" fill="#201600" opacity=".3"/><circle cx="121.09" cy="45.62" r="2.12" fill="#48443e"/><circle cx="117.67" cy="51.03" r="2.12" fill="#201600" opacity=".3"/><circle cx="117.67" cy="50.45" r="2.12" fill="#48443e"/><circle cx="114.27" cy="55.67" r="2.12" fill="#201600" opacity=".3"/><circle cx="114.27" cy="55.09" r="2.12" fill="#48443e"/><path d="M212.34 154.05a88.79 88.79 0 0 0 2.57-18.92 44.48 44.48 0 0 0-1.16-8.36c-1.32-7.12-.24-10.48.36-17.69.12-1.47-.92-7.18.49-7.61s2.4 2.23 2.9 3.6.86 1.52 1.45 2.85a5.32 5.32 0 0 0 7.63 2.05c1.69-1.23 2.46-3.32 3.51-5.13s2.88-3.56 4.94-3.2 3.09 2.39 3.92 4.2a20 20 0 0 1 1.83 5.26l-21.15 2-5.3 67.13h-2.26a18 18 0 0 1-1.19-4.17c-1.34-7.24-.13-14.77 1.46-22.01z" fill="#201600" opacity=".1"/><path fill="#fff" d="M195.994 45.838l17.34-10.86 4.384 7-17.34 10.86z"/><path opacity=".1" d="M196.673 45.403l6.56-4.108 4.384 7-6.56 4.11z"/><path d="M229.67 106.28a14.45 14.45 0 0 1-1.74-2.82l-30.5-50.76 21.18-13.1 33 47.62a14.44 14.44 0 0 1 2.62 3.78 14.7 14.7 0 0 1 .61 1.48 14.54 14.54 0 0 1-25 14z" fill="#7f7f7f"/><path d="M254.24 91.05a14.7 14.7 0 0 1 .61 1.48 14.54 14.54 0 0 1-25 14l-.13-.22a14.45 14.45 0 0 1-1.74-2.82L197.43 52.7l1.64-1 .39.39A87.81 87.81 0 0 1 213.65 72c2.65 5.11 4.8 10.48 7.81 15.39a101.69 101.69 0 0 0 9 11.86l4.68 5.6a10.17 10.17 0 0 0 3.08 2.8 7.87 7.87 0 0 0 5.85 0 13.81 13.81 0 0 0 7.43-5.5 12.81 12.81 0 0 0 1.9-9 20.28 20.28 0 0 0-1-4c-.13-.39-.59-1.08-.31-1.37a14.41 14.41 0 0 1 2.14 3.22z" fill="#201600" opacity=".1"/><circle cx="217.92" cy="46.2" r="2.12" fill="#201600" opacity=".3"/><circle cx="217.92" cy="45.62" r="2.12" fill="#48443e"/><circle cx="221.34" cy="51.03" r="2.12" fill="#201600" opacity=".3"/><circle cx="221.34" cy="50.45" r="2.12" fill="#48443e"/><circle cx="224.74" cy="55.67" r="2.12" fill="#201600" opacity=".3"/><circle cx="224.74" cy="55.09" r="2.12" fill="#48443e"/><path d="M205.51 101.24l-6.75-11.17 8.81-2.39-5.81-24.06-2.62-1.25-34.87 94.87z" fill="#5e5e5e"/><path d="M168.73 148.6a3.27 3.27 0 0 1 2.53-1.79l-31-84.45-2.62 1.25-5.84 24.06 8.81 2.39-6.75 11.17z" fill="#5e5e5e"/><path d="M238.1 99.87l-1.41-49.53c-.49-1.17-1.08-4.18-3.07-5.23s-4.9.14-6.12.4L185.54 72a6.42 6.42 0 0 0-2.59 2.63 5.93 5.93 0 0 0 2.4 8l12.31 6.56a62.81 62.81 0 0 1-101-1.38A68.17 68.17 0 0 0 218 100l11.45 6a6 6 0 0 0 8-2.59 6.35 6.35 0 0 0 .65-3.54z" opacity=".2"/><path d="M245.31 99.61l-1.56-49.24a5.8 5.8 0 0 0-9.23-4.73l-41.8 26.16a5.83 5.83 0 0 0-.07 10.36l44.13 23.3a5.84 5.84 0 0 0 8.53-5.85z" fill="#ff5046"/><path d="M217 60.75a62.8 62.8 0 0 1-113 26.51 68.18 68.18 0 0 0 131.83-26.48z" fill="#ff5046"/></g></svg>