<svg xmlns="http://www.w3.org/2000/svg" width="250" height="222" viewBox="0 0 250 222"><defs><clipPath id="a"><path fill="none" d="M0 .03h250v222H0z"/></clipPath><clipPath id="b"><path fill="none" d="M174.8 84.99h9.52v1.9h-9.52z"/></clipPath><clipPath id="c"><circle data-name="&lt;Обтравочный контур&gt;" cx="152.27" cy="42.73" r="11.48" fill="none"/></clipPath><clipPath id="d"><circle data-name="&lt;Обтравочный контур&gt;" cx="206.77" cy="42.73" r="11.48" fill="none"/></clipPath></defs><title>для баннера 218</title><g clip-path="url(#a)" data-name="Слой 1" style="isolation:isolate"><path d="M233.81 200.25h-60.93a5.16 5.16 0 0 1-.66 0h-33.46a5.46 5.46 0 0 1 0-10.92h79.31a10.81 10.81 0 0 0-1.73-21.47h-16l.42-.21H157.3a10.85 10.85 0 1 1 0-21.71h42.38a10.85 10.85 0 0 0-3.61-21.09H76.74a5.29 5.29 0 0 0-1.63 10.32h8.59a5.59 5.59 0 1 1 0 11.17H67.18l.21.06h-62a5.39 5.39 0 0 0 0 10.77h4.67-.1 13.29a5.4 5.4 0 1 1 0 10.8h-12.2a10.81 10.81 0 0 0 2 21.42h63.54a5.39 5.39 0 0 1 0 10.77h-44.5a10.38 10.38 0 0 0 0 20.77h13a5.83 5.83 0 0 0 .82.06h13.68a5.38 5.38 0 0 0 1 10.68h109.12a5.38 5.38 0 0 0 1-10.68H119a5 5 0 1 1 0-10.07h38.78l-.09-.05h76.15a5.39 5.39 0 0 0 0-10.77z" fill="#7e7e7e" opacity=".2"/><path d="M288.42 225.46a129 129 0 1 1-129-129 129 129 0 0 1 129 129z" fill="#76d9fc"/><path d="M96.12 214.14c.2.19.34.48.52.52h.27c1.28.36 2.53-.93 1.56-1a5.19 5.19 0 0 0-2.35.48zM126 202.88c-2 .35-2.53 1.71 1.86 4.73.54-.15 4.32-1 2.1 1.28 6.81-4.07-.48-6.63-3.96-6.01zM126 173.74c7.34-3 9-22.32.29-21.75a5.79 5.79 0 0 0-1.85.55c3.66 6.75-4.78 15.34 1.56 21.2zM210.27 189.76c.58-4-5.83-7-8.72-6.84-1.69.12-2 1.32 1.1 4.22-2.91 6.86 4.84 7.23 7.62 2.62zM144.64 139.42c2.12-1 3.14-4.5 0-4.5a4.67 4.67 0 0 0-1.56-.27 15.3 15.3 0 0 0-1.55.27c-6.19 1.24-4.31 11.5 3.11 4.5z" fill="#00a936" fill-rule="evenodd"/><path d="M153.31 137c-9 1.13-18 9.79-9.66 18.35 6 7.45-8.62 22.66 5.22 26.55 5.49-12.29 20.52-22 16.8-37-1.55-6.36-6.96-8.56-12.36-7.9z" fill="#00a936" fill-rule="evenodd"/><path d="M137.85 314.39C124.59 305.58 115 292.1 100 285.53c-12.16-11.8-39.58-4.47-39.08-26.78 1.27-10.6-7.24-15.72-13.62-20.7-4.91-16.4 25-22.44 25.44-4.47 9.85-.51 13.3-17.7 24.68-20.18 5.86-5.08 21.71.38 16-10 5.67-5.39 22.29-5.2 14.16-17.81-2.73-12.28-17.83-18.22-22.79-4.23-13.67 3.66-8.16-26 5.75-22 10.08.58 8.71-8.18 2.6-11 0-.43-.13-.67-.51-.29a9 9 0 0 0-3.67-.78c-13.63-7.53 13.64-26.73-4.43-32.82-19.81 16.9-50.05 43.53-62.16 68.45-5.47 15.62-4.55 31.34-3.92 47.76 5.55 15.9 16.33 29 24.92 43.27 5.49 6.88 2.85 14.8 2.43 22.34-.15 0 .07.23.07.26-.28 4.57.43 8.92 4.29 12.84 6.72 8.66 16.49 15.53 21.26 25.52a128 128 0 0 0 35.22 15.19c1.37-.62 4.14-1.43 14.1-2.39v-.27c0-3 13.78-7.34 20.58-12.38 11.33-13.7-12.1-24.63-23.47-20.67zM257.73 308.88a128.43 128.43 0 0 0 30.69-83.42c0-3.55-.25-7-.53-10.54-.09-.87-.16-1.75-.26-2.61-7.37 4-20.48-18.15-7.07-7.6a8.54 8.54 0 0 0 5.51-2.07 130.65 130.65 0 0 0-6.59-23.39 32.54 32.54 0 0 0-3.67-3.91 26 26 0 0 0-.26-4.72c-.07-.09.08-.2 0-.29a129.78 129.78 0 0 0-116.73-73.14c-3.5 0-7.06.21-10.52.5a49.2 49.2 0 0 1-5.8.8c-.69.07-1.38.15-2.07.27a127.7 127.7 0 0 0-21 4.43c17.73-1.3 35.94-.83 51.94 7.1 4.22 13.58 29.54.26 28.32 15.45.2.22.58.57.8.82-.4.29.29 3.06.8.75 4.37 5 13.58 15.22 3.92 13.94-12.81-1.75-9.48 23.48-.25 28.07 8.79 4.73 13.73-4.77 4.7-9.44-1.22-11.83 19.72 7.27 10.48 13.6-.37.25-.67.55-1 .81.43-1.7-.61-.1-.58.29-10.51 7.62-4.51 25.55-8.6 37.5-7.28 16.16 18.2 9 14.4-3.68-4.66-11.7 19.38-6.37 14.18-14.69 14.58 7.74 13.2-13 7.11-20 2.84-11.1 10.33 1.3 6.79 7.35.58 5.72 5.5 7 9.46 8.67a2.15 2.15 0 0 0 .78.25c3.45 1.65 5.53 3.77 1.8 10.27-4.28 14.44-18.8 15.23-30.67 12.56-12 5-14.23 19.56-21 29.37-6.71 12.27-12.3 30.33-.24 41.18 11.54 11.09 24.81 1.47 34.38-6 18.34-2.38 20 19.22 11 30.21-.07.51-.15.89-.22 1.31z" fill="#00a936"/><g opacity=".2" fill="#010000"><path d="M36.72 185.71l-.08.25a8.57 8.57 0 0 0 2.25-.25z"/><path d="M278.75 264.32a.66.66 0 0 1 .11-.41c-.22.28-2.16 2.21-16.89 4.36a152.27 152.27 0 0 0 6-41.14h19.65v-3.9H268a152 152 0 0 0-6.3-41.49c14.89 2.15 16.84 4.1 17 4.37a.66.66 0 0 1-.11-.42h3.52c-.28-.83-.56-1.67-.85-2.5-1.55-1.44-4.71-2.6-9.91-3.72-3-.65-6.71-1.29-11-1.85a135.55 135.55 0 0 0-21.2-40.27c9 2.32 16.24 5 21.22 7.88-2-2.47-4-4.88-6.16-7.22a127.94 127.94 0 0 0-16.15-5c-1-.25-2-.46-2.95-.7-13.75-16-31-27.77-50.28-33.37a129.17 129.17 0 0 0-53.6.6c-18.44 5.81-35 17.26-48.27 32.73-1 .25-2.08.48-3.09.73a130.91 130.91 0 0 0-14.82 4.47c-2.08 2.23-4.09 4.55-6 6.92a96 96 0 0 1 19.85-7.12 136.05 136.05 0 0 0-21.19 40.24c-4.55.6-8.43 1.24-11.61 1.93a33.13 33.13 0 0 0-8.1 2.62c-.37 1-.72 2-1 3.05 3.65-.86 10.1-2.1 19.53-3.44a152 152 0 0 0-6.34 41.57H30.52c0 .73-.07 1.47-.07 2.22 0 .57 0 1.11.05 1.68h19.62a152.36 152.36 0 0 0 6.07 41.2C41 266.18 39 264.2 38.78 263.91a.81.81 0 0 1 .1.41h-2.46c.37 1.17.77 2.33 1.18 3.49a31.86 31.86 0 0 0 8.54 2.74q4.69 1 11.32 1.9a137 137 0 0 0 19.42 38.39c-9.13-2.48-16.24-5.35-20.92-8.35 1.93 2.58 4 5.07 6.08 7.5a123.77 123.77 0 0 0 17.79 5.65c.29.07.59.13.88.21 13.58 16.79 30.89 29.22 50.3 35.41a129 129 0 0 0 53.73.68c20.4-5.92 38.59-18.68 52.7-36.17.18 0 .38-.1.57-.13a116.87 116.87 0 0 0 19.39-6.35c2.25-2.65 4.42-5.38 6.47-8.2-4.46 3.47-12.22 6.81-22.6 9.66a137.4 137.4 0 0 0 19.4-38.37c4.19-.58 7.81-1.2 10.81-1.84 5.54-1.2 8.78-2.45 10.2-4 .25-.73.5-1.45.74-2.2zm-134.4-163.88c-7.05 5.07-13.55 13.82-19.16 25.85A311 311 0 0 0 89.4 131c15.1-16.09 34.04-27 54.95-30.56zm-59.29 35.42a292.64 292.64 0 0 1 38.33-5.51c-.53 1.2-1 2.43-1.53 3.7a205.56 205.56 0 0 0-10.57 39.5c-14.33.53-27.49 1.35-38.83 2.37q-5.63.53-10.46 1.08a131.12 131.12 0 0 1 23.06-41.14zm-24.41 45.25c4.14-.5 9.07-1 14.95-1.53 10.38-.88 22.25-1.58 35-2.08a313.23 313.23 0 0 0-3.58 45.76H54a148.42 148.42 0 0 1 6.65-42.15zm-6.69 46h53.1a315 315 0 0 0 3.44 45.42c-12.73-.5-24.54-1.2-34.9-2.09-6-.53-11-1.05-15.24-1.58A148 148 0 0 1 54 227.14zM61.69 273c3.31.4 6.9.76 10.78 1.12 11.29 1 24.41 1.83 38.67 2.38a205.17 205.17 0 0 0 10.71 40.36c.2.48.39.95.58 1.41a280.71 280.71 0 0 1-39.56-5.92A131.78 131.78 0 0 1 61.69 273zM87 317.25a308.44 308.44 0 0 0 37.2 5.08c5.82 13.22 12.7 22.75 20.19 28.15-22.09-3.73-41.97-15.7-57.39-33.23zm70.18 34.37c-10.46-1.1-20.44-11.23-28.62-29 9.22.63 18.82 1 28.62 1zm0-31.85c-10.43 0-20.64-.42-30.38-1.14-.44-1-.88-2.13-1.3-3.23a200.23 200.23 0 0 1-10.37-38.75c13.27.45 27.46.72 42.05.72zm0-46.32c-14.8 0-29.23-.26-42.7-.75a309.39 309.39 0 0 1-3.51-45.56h46.22zm0-50.2h-46.26a306.61 306.61 0 0 1 3.66-45.9c13.44-.47 27.82-.74 42.56-.75zm0-50.57c-14.55 0-28.68.27-41.91.73a197.45 197.45 0 0 1 10.22-37.9c.74-1.92 1.51-3.73 2.29-5.5 9.43-.67 19.32-1 29.4-1.07zm0-47.65c-9.41 0-18.65.35-27.53 1 8-16.32 17.53-25.63 27.53-26.68zm107 98.22h-53.12a312.62 312.62 0 0 0-3.57-45.74c12.57.5 24.23 1.2 34.45 2.07 6.18.54 11.3 1.08 15.57 1.62a147.92 147.92 0 0 1 6.64 42.04zm-8-46.15c-3.39-.42-7.08-.78-11.1-1.17-11.17-1-24.13-1.8-38.22-2.35a205.17 205.17 0 0 0-10.58-39.52c-.48-1.25-1-2.48-1.5-3.7a292.76 292.76 0 0 1 38.34 5.54 130.67 130.67 0 0 1 23.04 41.19zM228.75 131a314.28 314.28 0 0 0-35.8-4.72c-5.6-12-12.11-20.79-19.16-25.85 20.91 3.57 39.87 14.49 54.96 30.57zM161 99.29c10 1 19.58 10.37 27.53 26.68-8.87-.58-18.12-.92-27.53-1zm0 29.65c10.1 0 20 .4 29.41 1.08.79 1.77 1.54 3.59 2.29 5.48a198.7 198.7 0 0 1 10.22 37.92c-13.22-.46-27.36-.72-41.92-.74zm0 47.65c14.76 0 29.15.3 42.58.78a307.94 307.94 0 0 1 3.64 45.87H161zm0 50.55h46.22a306.82 306.82 0 0 1-3.5 45.54c-13.47.5-27.91.76-42.71.76zm0 50.22c14.61 0 28.8-.27 42.06-.73a200.94 200.94 0 0 1-10.37 38.77c-.43 1.1-.85 2.15-1.3 3.2-9.74.73-20 1.12-30.4 1.17zm0 46.31c9.82 0 19.42-.4 28.62-1-8.18 17.74-18.15 27.87-28.62 29zm12.8 26.8c7.49-5.4 14.37-14.93 20.22-28.17a308.34 308.34 0 0 0 37.22-5.13c-15.47 17.58-35.38 29.58-57.45 33.31zm61.52-38.22a277.11 277.11 0 0 1-39.61 6c.18-.47.38-.92.56-1.4A204.5 204.5 0 0 0 207 276.48c14.08-.56 27-1.35 38.18-2.36 4.08-.37 7.85-.77 11.29-1.17a131.44 131.44 0 0 1-21.16 39.31zm22.48-43.44c-4.32.56-9.51 1.1-15.76 1.65-10.22.85-21.86 1.55-34.4 2.07a313.74 313.74 0 0 0 3.43-45.4h53.1a148.32 148.32 0 0 1-6.39 41.69z"/></g><g opacity=".2" fill="#010000"><path d="M77.12 164.23l26.31 111.32 31.44 5.46-8.66-119.99M283.09 164.23l-26.31 111.32-31.44 5.46L234 161.02"/></g><path fill="#7f7f7f" d="M246.97 272.45H111.81l-9.3-117.84h153.76l-9.3 117.84z"/><path d="M177.6 89.86l2.65.19 28-2.15s48.69 21.38 53.41 23.53 8.43 5.31 11.61 12c2.75 5.74 9 33.26 11.75 45.35l-107.42 9.76z" fill="#7f7f7f"/><path d="M181.32 89.86L179 90l-27.82-2.1s-48.62 21.38-53.33 23.53-8.4 5.31-11.58 12c-2.75 5.74-18.55 31.78-21.27 43.87l116.33 11.27z" fill="#7f7f7f"/><path fill="#f4c6a7" d="M146.8 76.94h65.03v67.34H146.8z"/><path fill="#e4e4e4" d="M179.71 121.58l-44.09-26.26 33.84 114.48 10 9.77 10-15.46 16.35-33.63 18.07-75.16-44.17 26.26z"/><path fill="#2975b8" d="M198.9 112.38h-38.23l16.17 23.04-7.92 62.49 8.22 19.84 5.89-2.48 8.98-17.67-9.29-62.18 16.18-23.04z"/><path opacity=".2" d="M213.35 89.53l10.57 5.25-20.6 46.59-23.21-28.99 33.24-22.85z"/><path fill="#fff" d="M213.35 89.53L224 94.5l-20.39 40.23-23.5-22.35 33.24-22.85z"/><path opacity=".2" d="M146.96 90.84l-11.1 5.93 20.39 44.6 23.86-28.99-33.15-21.54z"/><path fill="#fff" d="M146.22 89.53l-10.65 4.97 20.38 40.23 23.51-22.35-33.24-22.85zM194.77 68.43c0 4.76-6.71 8.63-15 8.63s-15-3.87-15-8.63 6.71-.56 15-.56 15-4.2 15 .56"/><path data-name="&lt;Контур&gt;" d="M135 33.63L132.13 36a43.66 43.66 0 0 0-11.83 14.86l-44.55 91.83 52.57-58.9 8.3-24.05z" fill="#f4c6a7"/><path d="M131.65 60.32v.05z" fill="#010000" opacity=".3" style="mix-blend-mode:overlay"/><path d="M135 64l.16.18-2.18 6.26-1.27-10 .66 1.12A6.37 6.37 0 0 0 135 64z" fill="#010000" opacity=".1"/><path fill="#010000" opacity=".3" style="mix-blend-mode:overlay" d="M131.66 60.4v.02l-.01-.02h.01z"/><g data-name="&lt;Группа&gt;"><path data-name="&lt;Контур&gt;" fill="#f4c6a7" d="M156.79 58.18h45.09v29.3h-45.09z"/><g data-name="&lt;Группа&gt;"><path data-name="&lt;Контур&gt;" d="M137.45 51.71a3.08 3.08 0 0 0 3.36 2.79h.36a3.09 3.09 0 0 0 2.83-3.4l-1.25-13.4a3.1 3.1 0 0 0-3.37-2.79L139 35a3.08 3.08 0 0 0-2.79 3.36z" fill="#f4c6a7"/><g data-name="&lt;Группа&gt;"><path data-name="&lt;Контур&gt;" d="M221.89 51.71a3.08 3.08 0 0 1-3.36 2.79h-.36a3.09 3.09 0 0 1-2.79-3.36l1.25-13.4a3.09 3.09 0 0 1 3.37-2.83h.37a3.09 3.09 0 0 1 2.79 3.36z" fill="#f4c6a7"/><path data-name="&lt;Контур&gt;" d="M203.34 81.2h-47.56v7a32.71 32.71 0 0 0 47.57.42z" fill="#14120e" opacity=".2"/><g clip-path="url(#b)" data-name="&lt;Группа обтравки&gt;"><path data-name="&lt;Контур&gt;" d="M184.68 86.2c0 .33-2.21.6-4.94.6s-4.93-.27-4.93-.6 2.21-.6 4.93-.6 4.94.27 4.94.6" fill="#14120e"/></g><path data-name="&lt;Контур&gt;" d="M179.49-9.71h-.91c-22 0-39.75 24-39.75 53.57 2.36 16.5 7.55 35.78 12.6 40.83 7.69 7.69 20.06 11.82 27 10.08.11 0 .16 0 .16.07v.07-.07s.5 0 .6-.07c7 1.74 19.61-2.39 27.3-10.08 5.05-5 10.32-24.33 12.69-40.83.01-29.59-17.73-53.57-39.69-53.57z" fill="#f4c6a7"/><path data-name="&lt;Контур&gt;" d="M166.92 60a9.24 9.24 0 1 1-9.24-9.24 9.24 9.24 0 0 1 9.24 9.24z" fill="#e99384"/><circle data-name="&lt;Контур&gt;" cx="200.32" cy="59.98" r="9.24" fill="#e99384"/><path data-name="&lt;Контур&gt;" d="M207 42.18c0 2-4.19 3.65-9.37 3.65s-9.38-1.63-9.38-3.65 4.2-3.65 9.38-3.65 9.37 1.63 9.37 3.65M168.39 42.18c0 2-4.2 3.65-9.37 3.65s-9.38-1.63-9.38-3.65 4.21-3.65 9.38-3.65 9.37 1.63 9.37 3.65" fill="#fff"/><path data-name="&lt;Контур&gt;" d="M184.32 61.5a4.56 4.56 0 0 1-4.69 4.4h-.13a4.56 4.56 0 0 1-4.69-4.4V41.76a4.56 4.56 0 0 1 4.69-4.4h.13a4.56 4.56 0 0 1 4.69 4.4z" fill="#14120e" opacity=".2"/><path data-name="&lt;Контур&gt;" d="M160.39 41.26a.69.69 0 1 1-.69-.69.69.69 0 0 1 .69.69" fill="#fff"/><path data-name="&lt;Контур&gt;" d="M200.05 42.16a2.65 2.65 0 1 1-2.65-2.66 2.66 2.66 0 0 1 2.65 2.66" fill="#422902"/><path data-name="&lt;Контур&gt;" d="M197.16 41.12a.8.8 0 1 1-.8-.81.8.8 0 0 1 .8.81" fill="#fff"/><path data-name="&lt;Контур&gt;" d="M161.66 42.16A2.65 2.65 0 1 1 159 39.5a2.66 2.66 0 0 1 2.65 2.66" fill="#422902"/><path data-name="&lt;Контур&gt;" d="M158.77 41.12a.8.8 0 1 1-.8-.81.8.8 0 0 1 .8.81" fill="#fff"/><path data-name="&lt;Контур&gt;" d="M168.38 33a2.22 2.22 0 0 1-2.38 2l-14.78-.37a2.22 2.22 0 0 1-2.31-2.1 2.22 2.22 0 0 1 2.41-2l14.78.37a2.23 2.23 0 0 1 2.28 2.1zM209.8 33a2.22 2.22 0 0 1-2.41 2l-14.77-.37a2.21 2.21 0 0 1-2.31-2.1 2.22 2.22 0 0 1 2.41-2l14.78.37a2.22 2.22 0 0 1 2.3 2.1z" fill="#422902"/><ellipse data-name="&lt;Контур&gt;" cx="179.75" cy="85.67" rx="4.82" ry="1.1" fill="#14120e" opacity=".2"/><path data-name="&lt;Контур&gt;" d="M141.89 39.91c-1.49-8.74 6.5-28.7 7.49-30.19 5 2.31 14.88 2.89 16.54 1.4 4 3 13.93 10.11 28.35 1.5 6.3-4 12.11-3.81 13.1-3.65s8.39 20.05 8.39 32.3a10.12 10.12 0 0 1 1.93 2.41s3.48-40.29-.51-44.11-10.32-9.67-17.78-12.82-9.95-8.45-9.95-9.95c-.83 4.47-.5 7.29-.16 7.79-6-4.48-9.67-10.76-9.48-14.66-5.11-.09-16 8.36-18 11-3.19-.32-18.81 11.96-21.59 17.43s-1.33 41.28 0 43.8a4.1 4.1 0 0 1 1.67-2.25z" fill="#77513b"/><path data-name="&lt;Контур&gt;" d="M142.83 81.12c0 14.25 25.55 26.75 36.58 26.75h.32c11.34 0 35.27-14 35.27-28.23V64.16c0-9.8-11.88 4.65-31.61 4.65h-2.85c-22.13 0-37.51-16.87-37.86-7.1z" fill="#010000" opacity=".1"/><path data-name="&lt;Контур&gt;" d="M142.83 77.72c0 14.24 25.55 26.37 36.58 26.37h.32c11.34 0 35.27-13.24 35.27-27.48V61.13c0-9.8-11.88 7.68-31.61 7.68h-2.85c-22.13 0-37.51-18.58-37.86-8.8z" fill="#77513b"/><path data-name="&lt;Контур&gt;" d="M195.07 71.19c0 4.9-6.9 8.88-15.42 8.88s-15.42-4-15.42-8.88 6.91-.58 15.42-.58 15.42-4.32 15.42.58" fill="#fff"/><g data-name="&lt;Группа&gt;" fill="#63402e"><path data-name="&lt;Контур&gt;" d="M216.91 52.35s-12.51 17.16-32.84 9c-9 0-7.88 8.78-1.35 9.8 11 1.72 34.36.32 34.19-18"/><path data-name="&lt;Контур&gt;" d="M142.44 52.35s12.51 17.16 32.84 9c9 0 7.87 8.78 1.36 9.8-11 1.72-34.36.32-34.19-18"/></g><rect data-name="&lt;Контур&gt;" x="174.8" y="33.63" width="9.52" height="30.44" rx="4.69" ry="4.69" fill="#e99384"/></g></g></g><path data-name="&lt;Контур&gt;" d="M223.5 33.63l2.9 2.37a43.66 43.66 0 0 1 11.83 14.89l44.55 91.84-52.58-58.94-8.3-24.05z" fill="#f4c6a7"/><path data-name="&lt;Контур&gt;" d="M231.44 38.64L228 30a11.29 11.29 0 0 0-5.5-5.92l-7-3.43a17.67 17.67 0 0 0-14.31-.55c-3.07 1.22-7.64 3-10 5.3l-3.44 3.36a1.9 1.9 0 0 0-.3 2.34c.61 1 3.75 1.27 4.64.51l4.82-4.16c2-1.7 4.4.49 7 .13l.53 1.71c3.16-.44 3.71.88 6.41 2.57l2.76.67c2.26 1.42.11 2.74 1.21 5.17l1.74 1.49c1.71 3.78.85 2-1 5.66l-.69 2.07c-1 1.87.74 2.43-1 3.67l-2.22 1.3c-3.94 2.88-4.74 6.61-9.56 5.85l-3.07-.48-1.41-.59a2.44 2.44 0 0 0-3.31 1.67l-.05.85.72.26 7.29 1a27.6 27.6 0 0 1 9.2 3l.88.47a12.79 12.79 0 0 0 8.67 1.24 6.73 6.73 0 0 0 4.32-3.16l5-8.45a16.93 16.93 0 0 0 1.11-14.91z" fill="#010000" opacity=".1"/><g data-name="&lt;Группа&gt;" opacity=".1" fill="#010000"><circle data-name="&lt;Контур&gt;" cx="150.95" cy="42.02" r="12.04"/><path data-name="&lt;Составной контур&gt;" d="M208.08 25.39A16.57 16.57 0 0 0 196 30.66a6.73 6.73 0 0 1-1.83-2.78h-9.77a6 6 0 0 0-9.77 0h-9.72a6.73 6.73 0 0 1-1.83 2.78 16.63 16.63 0 1 0 .92 21.62c3.88-.29 7.81-2.84 10-7.87 2.29-5.35 3.51-6.12 5.53-6.12s3.24.76 5.53 6.12c2.16 5 6.09 7.58 10 7.87a16.62 16.62 0 1 0 13.07-26.89zM151 54.06a12 12 0 1 1 12-12 12.06 12.06 0 0 1-12 12zm57.13 0a12 12 0 1 1 12-12 12.06 12.06 0 0 1-12.05 12z"/><circle data-name="&lt;Контур&gt;" cx="208.08" cy="42.02" r="12.04"/></g><path data-name="&lt;Контур&gt;" d="M195.82 32.24c-1.55-.55-2.37-3-2.37-3h-27.87s-.82 2.46-2.37 3 1.91 9.66 1.91 9.66L164 52.57c3.92 0 8-2.46 10.21-7.57s3.35-5.84 5.27-5.84 3.09.73 5.27 5.84 6.29 7.57 10.21 7.57l-1.09-10.67s3.5-9.11 1.95-9.66z" fill="#0d2a38"/><path data-name="&lt;Контур&gt;" d="M232 39.39l-3.29-8.17a10.69 10.69 0 0 0-5.21-5.61l-6.63-3.25a16.74 16.74 0 0 0-13.55-.52c-2.91 1.16-7.24 2.83-9.48 5L190.57 30a1.8 1.8 0 0 0-.28 2.22c.58 1 3.55 1.21 4.39.48l4.57-3.94c1.87-1.61 4.17.47 6.61.13l.5 1.62c3-.42 3.51.83 6.07 2.44l2.61.64c2.14 1.34.11 2.6 1.15 4.9l1.65 1.41c1.62 3.58.81 1.87-1 5.36l-.65 2c-.92 1.77.7 2.3-.91 3.47L213.17 52c-3.74 2.72-4.49 6.26-9.06 5.54l-2.9-.54-1.34-.56a2.31 2.31 0 0 0-3.14 1.58l-.05.8.68.25 6.91 1a26.14 26.14 0 0 1 8.73 2.85l.83.44a12.12 12.12 0 0 0 8.17 1.18 6.37 6.37 0 0 0 4.18-3l4.72-8a16 16 0 0 0 1.1-14.15z" fill="#f4c6a7"/><path data-name="&lt;Контур&gt;" d="M127.19 38.64l3.47-8.64a11.29 11.29 0 0 1 5.5-5.92l7-3.43a17.67 17.67 0 0 1 14.31-.55c3.07 1.22 7.64 3 10 5.3l3.44 3.36a1.9 1.9 0 0 1 .3 2.34c-.61 1-3.75 1.27-4.64.51l-4.82-4.16c-2-1.7-4.4.49-7 .13l-.53 1.71c-3.16-.44-3.71.88-6.41 2.57l-2.76.67c-2.26 1.42-.11 2.74-1.21 5.17l-1.74 1.49c-1.71 3.78-.85 2 1 5.66l.69 2.07c1 1.87-.74 2.43 1 3.67l2.22 1.3c3.94 2.88 4.74 6.61 9.56 5.85l3.07-.48 1.41-.59a2.44 2.44 0 0 1 3.31 1.67l.05.85-.72.26-7.29 1a27.6 27.6 0 0 0-9.2 3l-.88.47a12.79 12.79 0 0 1-8.67 1.24A6.73 6.73 0 0 1 133.3 62l-5-8.45a16.93 16.93 0 0 1-1.11-14.91z" fill="#010000" opacity=".1"/><path data-name="&lt;Контур&gt;" d="M126.63 39.39l3.29-8.17a10.69 10.69 0 0 1 5.21-5.61l6.63-3.25a16.74 16.74 0 0 1 13.55-.52c2.91 1.16 7.24 2.83 9.48 5l3.27 3.16a1.8 1.8 0 0 1 .28 2.22c-.58 1-3.55 1.21-4.39.48l-4.57-3.94c-1.87-1.61-4.17.47-6.61.13l-.5 1.62c-3-.42-3.51.83-6.07 2.44l-2.61.64c-2.14 1.34-.11 2.6-1.15 4.9l-1.65 1.41c-1.62 3.58-.81 1.87 1 5.36l.65 2c.92 1.77-.7 2.3.91 3.47l2.1 1.23c3.74 2.72 4.49 6.26 9.06 5.54l2.91-.46 1.34-.56a2.31 2.31 0 0 1 3.14 1.58l.05.8-.68.25-6.91 1a26.14 26.14 0 0 0-8.71 2.84l-.83.44a12.12 12.12 0 0 1-8.21 1.17 6.38 6.38 0 0 1-4.18-3l-4.72-8a16 16 0 0 1-1.08-14.17z" fill="#f4c6a7"/><path data-name="&lt;Контур&gt;" d="M158.75 56.49l-1.34.56-2.91.46c-4.57.72-5.32-2.82-9.06-5.54l-2.1-1.23c-1.15-.84-.66-1.35-.62-2.22a5.16 5.16 0 0 1-3.11-1.29 3.85 3.85 0 0 0-1.29-.12 21.62 21.62 0 0 1-3.5-.19 16.57 16.57 0 0 1-2-.36c.62 2.28 1.2 4.58 1.92 6.84a5.53 5.53 0 0 1-3 7l.67 1.14a6.38 6.38 0 0 0 4.18 3 12.12 12.12 0 0 0 8.21-1.17l.83-.44a26.15 26.15 0 0 1 8.71-2.84l6.91-1 .68-.25-.05-.8a2.31 2.31 0 0 0-3.13-1.55z" fill="#010000" opacity=".1"/><path data-name="&lt;Контур&gt;" d="M136.41 42.73s3.89 12.12-4.66 17.67c0 0-4.78-7.28-2.73-15.57s7.39-2.1 7.39-2.1z" fill="#f4c6a7"/><g clip-path="url(#c)"><path fill="#a0d7e8" d="M136.41 25.57h32.83v34.75h-32.83z"/><path fill="#f54e41" d="M142.19 47.19h3.95v7.51h-3.95zM147.66 44.86h3.95v9.83h-3.95zM153.14 46.96h3.95v7.74h-3.95zM158.62 42.85h3.95V54.7h-3.95z"/></g><path data-name="&lt;Составной контур&gt;" d="M152.27 31.24a11.49 11.49 0 1 1-11.49 11.49 11.5 11.5 0 0 1 11.49-11.49m0-4.38a15.86 15.86 0 1 0 15.86 15.86 15.86 15.86 0 0 0-15.86-15.86z" fill="#264e66"/><circle data-name="&lt;Контур&gt;" cx="179.52" cy="32.68" r="5.81" fill="#264e66"/><circle data-name="&lt;Контур&gt;" cx="179.52" cy="32.68" r="3.75" fill="#0d2a38"/><g clip-path="url(#d)"><path fill="#a0d7e8" d="M191.93 28.2h31.24v30.14h-31.24z"/><path fill="#f54e41" d="M196.96 41.78h3.95V54.7h-3.95zM202.43 44.83h3.95v9.87h-3.95zM207.91 39.17h3.95V54.7h-3.95zM213.39 31.58h3.95V54.7h-3.95z"/></g><g clip-path="url(#c)" fill="#fff" data-name="&lt;Группа обтравки&gt;" opacity=".5"><path data-name="&lt;Контур&gt;" d="M130.31 56.772l35.39-35.39 3.804 3.803-35.39 35.39zM136.477 64.257l36.055-36.055 1.704 1.704L138.18 65.96z"/></g><path data-name="&lt;Контур&gt;" d="M199.87 56.49l1.34.56 2.91.46c4.57.72 5.32-2.82 9.06-5.54l2.1-1.23c1.15-.84.66-1.35.62-2.22a5.16 5.16 0 0 0 3.1-1.3 3.85 3.85 0 0 1 1.29-.12 21.62 21.62 0 0 0 3.5-.19 16.58 16.58 0 0 0 2-.36c-.62 2.28-1.2 4.58-1.92 6.84a5.53 5.53 0 0 0 3 7l-.67 1.14a6.37 6.37 0 0 1-4.18 3 12.12 12.12 0 0 1-8.21-1.17l-.83-.44a26.15 26.15 0 0 0-8.71-2.84l-6.91-1-.68-.25.05-.8a2.31 2.31 0 0 1 3.14-1.54z" fill="#010000" opacity=".1"/><path d="M226.88 60.32v.05z" fill="#010000" opacity=".3" style="mix-blend-mode:overlay"/><path d="M223.57 64l-.16.18 2.18 6.26 1.27-10-.66 1.12a6.37 6.37 0 0 1-2.63 2.44z" fill="#010000" opacity=".1"/><path fill="#010000" opacity=".3" style="mix-blend-mode:overlay" d="M226.87 60.4v.02l.01-.02h-.01z"/><path data-name="&lt;Контур&gt;" d="M222.22 42.73s-3.89 12.12 4.66 17.67c0 0 4.78-7.28 2.73-15.57s-7.39-2.1-7.39-2.1z" fill="#f4c6a7"/><path data-name="&lt;Составной контур&gt;" d="M206.77 31.24a11.49 11.49 0 1 1-11.49 11.49 11.5 11.5 0 0 1 11.49-11.49m0-4.38a15.86 15.86 0 1 0 15.86 15.86 15.86 15.86 0 0 0-15.86-15.86z" fill="#264e66"/><g clip-path="url(#d)" fill="#fff" data-name="&lt;Группа обтравки&gt;" opacity=".5"><path data-name="&lt;Контур&gt;" d="M184.806 56.774l35.39-35.39 3.805 3.804-35.39 35.39zM190.967 64.257l36.056-36.055 1.704 1.704L192.67 65.96z"/></g><path d="M114.83 232.94c-2.12-9.66-3.8-18.62-3.87-28.51 0-4.25 1-8.43 1.74-12.6 2-10.72.36-15.79-.55-26.66-.18-2.22 1.39-10.82-.74-11.46s-3.62 3.36-4.37 5.42-1.29 2.29-2.19 4.29a8 8 0 0 1-11.5 3.09c-2.55-1.85-3.7-5-5.29-7.73s-4.33-5.36-7.44-4.83-4.66 3.6-5.91 6.33a30.13 30.13 0 0 0-2.71 7.93l31.86 3.09 8 101.15h3.41a27.07 27.07 0 0 0 1.79-6.28c2-10.98.17-22.32-2.23-33.23z" fill="#201600" opacity=".1"/><path fill="#fff" d="M106.746 64.044l6.603-10.542 26.12 16.36-6.604 10.542z"/><path opacity=".1" d="M121.95 73.568l6.604-10.543 9.89 6.194-6.603 10.542z"/><path d="M88.73 161a21.78 21.78 0 0 0 2.62-4.25l46-76.48-31.96-19.79-49.69 71.76a21.76 21.76 0 0 0-4 5.75 21.91 21.91 0 0 0 36.77 23.25z" fill="#7f7f7f"/><path d="M51.71 138a22.13 22.13 0 0 0-.91 2.23 21.91 21.91 0 0 0 37.69 21l.2-.33a21.77 21.77 0 0 0 2.62-4.25l46-76.48-2.47-1.53-.59.59a132.31 132.31 0 0 0-21.39 30c-4 7.7-7.23 15.8-11.77 23.19-3.91 6.37-8.72 12.13-13.51 17.86l-7.06 8.44a15.33 15.33 0 0 1-4.64 4.28c-2.7 1.34-5.95 1-8.82 0a20.8 20.8 0 0 1-11.2-8.28A19.3 19.3 0 0 1 53 141.19a30.56 30.56 0 0 1 1.45-6c.2-.59.89-1.62.47-2.06a21.7 21.7 0 0 0-3.2 4.88z" fill="#201600" opacity=".1"/><circle cx="106.42" cy="70.43" r="3.2" fill="#201600" opacity=".3"/><circle cx="106.42" cy="69.55" r="3.2" fill="#48443e"/><circle cx="101.27" cy="77.71" r="3.2" fill="#201600" opacity=".3"/><circle cx="101.27" cy="76.83" r="3.2" fill="#48443e"/><circle cx="96.16" cy="84.7" r="3.2" fill="#201600" opacity=".3"/><circle cx="96.16" cy="83.82" r="3.2" fill="#48443e"/><path d="M243.93 232.94c2.12-9.66 3.8-18.62 3.87-28.51 0-4.25-1-8.43-1.74-12.6-2-10.72-.36-15.79.55-26.66.18-2.22-1.39-10.82.74-11.46s3.62 3.36 4.37 5.42 1.29 2.29 2.19 4.29a8 8 0 0 0 11.5 3.09c2.55-1.85 3.7-5 5.29-7.73s4.33-5.36 7.44-4.83 4.66 3.6 5.91 6.33a30.13 30.13 0 0 1 2.76 7.92l-31.86 3.09-8 101.15h-3.41a27.06 27.06 0 0 1-1.79-6.28c-2.05-10.97-.22-22.31 2.18-33.22z" fill="#201600" opacity=".1"/><path fill="#fff" d="M219.288 69.873l26.12-16.36 6.603 10.544-26.12 16.36z"/><path opacity=".1" d="M220.306 69.23l9.89-6.195 6.604 10.543-9.89 6.195z"/><path d="M270 161a21.77 21.77 0 0 1-2.62-4.25l-46-76.48 31.92-19.74 49.69 71.76a21.75 21.75 0 0 1 4 5.75 22.14 22.14 0 0 1 .91 2.23 21.91 21.91 0 0 1-37.69 21z" fill="#7f7f7f"/><path d="M307.05 138a22.15 22.15 0 0 1 .91 2.23 21.91 21.91 0 0 1-37.69 21L270 161a21.77 21.77 0 0 1-2.62-4.25l-46-76.48 2.47-1.53.59.59a132.31 132.31 0 0 1 21.39 30c4 7.7 7.23 15.8 11.77 23.19 3.91 6.37 8.72 12.13 13.51 17.86l7.06 8.44a15.33 15.33 0 0 0 4.65 4.21c2.7 1.34 5.95 1 8.82 0a20.8 20.8 0 0 0 11.2-8.28 19.3 19.3 0 0 0 2.87-13.6 30.56 30.56 0 0 0-1.45-6c-.2-.59-.89-1.62-.47-2.06A21.72 21.72 0 0 1 307 138z" fill="#201600" opacity=".1"/><circle cx="252.34" cy="70.43" r="3.2" fill="#201600" opacity=".3"/><circle cx="252.34" cy="69.55" r="3.2" fill="#48443e"/><path d="M233.64 153.36l-10.17-16.83 13.27-3.6L228 96.66l-4-1.88-52.54 143z" fill="#5e5e5e"/><path d="M178.22 224.72A4.93 4.93 0 0 1 182 222L135.27 94.78l-3.95 1.88-8.76 36.26 13.27 3.6-10.17 16.83z" fill="#5e5e5e"/><path fill="#9dd6ea" d="M84.93 124.47h131.83v87.07H84.93z"/><path fill="gray" d="M84.69 123.41h132.07v11.1H84.69z"/><circle cx="90.76" cy="128.74" r="2.38" fill="#fcd22e"/><circle cx="97.4" cy="128.74" r="2.38" fill="#ff4848"/><path d="M184.69 128.28a2.09 2.09 0 0 0 2.09 2.09H210a2.09 2.09 0 0 0 2.09-2.09 2.09 2.09 0 0 0-2.09-2.09h-23.22a2.09 2.09 0 0 0-2.09 2.09z" fill="#fff" fill-rule="evenodd"/><path fill="none" stroke="#fff" stroke-miterlimit="10" stroke-width="1.82" d="M100.51 200.02L114 185.14l11.42 3.41 9.86-14.12 17.68 3.91 5.16-11.53 14.01 7.62 7.78-22.15 17.65-9.4"/><circle cx="172.13" cy="174.43" r="4.32" fill="#2aa449" stroke="#fff" stroke-miterlimit="10" stroke-width="1.82"/><circle cx="180.76" cy="152.28" r="4.32" fill="#2aa449" stroke="#fff" stroke-miterlimit="10" stroke-width="1.82"/><circle cx="158.96" cy="167.13" r="4.32" fill="#2aa449" stroke="#fff" stroke-miterlimit="10" stroke-width="1.82"/><circle cx="197.56" cy="142.88" r="4.32" fill="#2aa449" stroke="#fff" stroke-miterlimit="10" stroke-width="1.82"/><circle cx="152.96" cy="177.71" r="4.32" fill="#2aa449" stroke="#fff" stroke-miterlimit="10" stroke-width="1.82"/><circle cx="135.54" cy="174.43" r="4.32" fill="#2aa449" stroke="#fff" stroke-miterlimit="10" stroke-width="1.82"/><circle cx="125.16" cy="188.55" r="4.32" fill="#2aa449" stroke="#fff" stroke-miterlimit="10" stroke-width="1.82"/><circle cx="114" cy="186.34" r="4.32" fill="#2aa449" stroke="#fff" stroke-miterlimit="10" stroke-width="1.82"/><circle cx="100.51" cy="200.02" r="4.32" fill="#2aa449" stroke="#fff" stroke-miterlimit="10" stroke-width="1.82"/><path fill="#f2f2f2" d="M193.45 154.35h6.23v52.16h-6.23zM180.97 161.1h6.23v45.41h-6.23zM168.51 183.8h6.23v22.71h-6.23zM156.06 186.34h6.23v20.17h-6.23zM143.6 185.43h6.23v21.08h-6.23zM131.14 183.8h6.23v22.71h-6.23zM118.69 195.71h6.23v10.8h-6.23zM106.23 201.11h6.23v5.4h-6.23z"/><rect x="101.47" y="126.19" width="80.12" height="26.09" rx="1.97" ry="1.97" fill="#fff"/><path fill="none" stroke="#2aa449" stroke-linecap="round" stroke-miterlimit="10" stroke-width="2.73" d="M103.67 128.28h39.05"/><g opacity=".2" fill="none" stroke="#000" stroke-linecap="round" stroke-miterlimit="10" stroke-width="2.73"><path d="M103.67 133.75h39.05M103.67 139.23h39.05M103.67 144.7h39.05M103.67 150.17h39.05"/></g><path d="M220.95 215.48H79.72v-89.43a10.21 10.21 0 0 1 10.2-10.2h120.83a10.21 10.21 0 0 1 10.2 10.2zm-135.21-6h129.19v-85.89H85.74z" fill="#1a1a1a"/><circle cx="150.33" cy="119.72" r="2.02" fill="#333"/><circle cx="150.33" cy="119.72" r="1.14" fill="#1a1a1a"/><path d="M148.9 121.15a2 2 0 1 0 2.86-2.86z" fill="#fff" opacity=".1"/><path d="M234.42 223H66.24a5.42 5.42 0 0 1-5.42-5.42v-2.1h179v2.1a5.42 5.42 0 0 1-5.4 5.42z" fill="#ccc"/><path d="M166.1 219.24h-31.54a3.72 3.72 0 0 1-3.72-3.72h39a3.72 3.72 0 0 1-3.74 3.72z" fill="#b3b3b3"/><path d="M89.92 115.85a10.21 10.21 0 0 0-10.2 10.2v89.43h22.64L202 115.85z" fill="#fff" opacity=".3"/><path d="M246.78 180.34l-9.9-62.21h-.07c-.47-2.31-2-5.13-4.73-6.13a8.34 8.34 0 0 0-7.69 1.5l-48.74 40a7.5 7.5 0 0 0 1.56 13.21l16.67 6.29a80.27 80.27 0 0 1-128.33 14.43 87.16 87.16 0 0 0 155.85-4.12l15.5 5.82a7.48 7.48 0 0 0 9.88-8.8z" opacity=".2"/><path d="M256 178.46l-9.91-62.2h-.07a7.42 7.42 0 0 0-12.47-4.51l-48.71 39.94a7.45 7.45 0 0 0 1.58 13.15l59.72 22.44a7.47 7.47 0 0 0 9.88-8.79z" fill="#ff5046"/><path d="M213.86 133.74a80.29 80.29 0 0 1-139.07 51.81 87.16 87.16 0 0 0 163-54.81z" fill="#ff5046"/></g></svg>