<svg xmlns="http://www.w3.org/2000/svg" width="208.194" height="56.199" viewBox="0 0 208.194 56.199"><path fill-rule="evenodd" clip-rule="evenodd" fill="#A8A8A8" d="M7.34 0h32.626c1.617 0 2.768 1.39 2.555 3.086L38.533 35.02c-.212 1.697-1.71 3.087-3.327 3.087H2.58c-1.618 0-2.77-1.39-2.555-3.087L4.013 3.086C4.225 1.39 5.723 0 7.34 0z"/><path fill="#EDEDED" d="M30.18 35.09H6.358c.704-2.638 1.94-5.113 3.706-7.44 1.763-2.317 4.807-5.06 9.13-8.222 2.646-1.93 4.37-3.407 5.187-4.404.816-1.008 1.3-1.962 1.446-2.864.16-.977-.03-1.812-.556-2.505-.533-.686-1.287-1.036-2.26-1.036-1.02 0-1.9.357-2.663 1.072-.756.708-1.394 1.97-1.916 3.78l-7.833-.723c.723-2.506 1.614-4.46 2.678-5.868a10.397 10.397 0 0 1 4.047-3.23c1.633-.75 3.79-1.125 6.473-1.125 2.788 0 4.905.36 6.346 1.067a6.45 6.45 0 0 1 3.124 3.288c.65 1.483.824 3.138.523 4.972-.32 1.953-1.137 3.817-2.445 5.59-1.308 1.776-3.482 3.73-6.52 5.854-1.806 1.237-3.014 2.102-3.633 2.6a39.547 39.547 0 0 0-2.222 1.94h12.397L30.18 35.09z"/><path fill="#6B6B6B" d="M30.68 35.682H5.59l.197-.742c.72-2.69 2-5.262 3.807-7.644 1.794-2.36 4.907-5.166 9.252-8.343 3.2-2.335 4.527-3.63 5.077-4.303.746-.918 1.19-1.79 1.32-2.585.135-.812-.01-1.483-.44-2.054-.42-.537-1.007-.802-1.79-.802-.868 0-1.607.3-2.262.914-.672.632-1.262 1.814-1.752 3.514l-.136.468-9.027-.834.197-.684c.738-2.56 1.67-4.598 2.77-6.06a11.022 11.022 0 0 1 4.276-3.41c1.696-.78 3.957-1.177 6.716-1.177 2.863 0 5.086.377 6.606 1.125 1.562.78 2.708 1.984 3.402 3.58.692 1.583.883 3.367.565 5.304-.333 2.032-1.19 3.998-2.552 5.845-1.343 1.82-3.58 3.833-6.657 5.985-1.775 1.217-2.985 2.083-3.602 2.578-.323.257-.678.555-1.062.89h11.562l-1.375 8.434zm-23.54-1.18h22.54l.992-6.074h-13.2l1.096-1.02a39.54 39.54 0 0 1 2.255-1.97c.637-.512 1.872-1.396 3.667-2.626 2.966-2.075 5.114-4 6.38-5.715 1.25-1.694 2.035-3.49 2.337-5.337.28-1.71.116-3.27-.48-4.64a5.908 5.908 0 0 0-2.848-2.998c-1.355-.666-3.404-1.004-6.084-1.004-2.588 0-4.683.36-6.226 1.073a9.85 9.85 0 0 0-3.825 3.05c-.916 1.214-1.714 2.89-2.374 4.99l6.638.612c.53-1.68 1.165-2.855 1.938-3.58.87-.817 1.902-1.232 3.067-1.232 1.155 0 2.072.425 2.724 1.264.633.834.856 1.83.67 2.962-.163 1-.69 2.057-1.568 3.138-.866 1.06-2.648 2.576-5.297 4.51-4.254 3.11-7.285 5.836-9.01 8.104-1.548 2.04-2.686 4.22-3.392 6.495z"/><path fill="#FFF" d="M56.654 2.92v31.727h-7.068V31.25c-.995 1.44-1.895 2.415-2.71 2.924-1.09.66-2.302.99-3.638.99-2.685 0-4.737-1.188-6.156-3.566-1.412-2.38-2.123-5.275-2.123-8.68 0-3.812.778-6.723 2.35-8.74 1.565-2.024 3.555-3.035 5.96-3.035 1.18 0 2.243.235 3.205.693.958.465 1.807 1.153 2.554 2.076V2.92h7.624zM49.08 23.094c0-1.81-.324-3.154-.982-4.04-.652-.887-1.482-1.33-2.483-1.33-.88 0-1.615.428-2.21 1.277-.596.85-.894 2.276-.894 4.286 0 1.876.312 3.25.92 4.122.614.87 1.374 1.307 2.273 1.307.97 0 1.77-.436 2.413-1.315.647-.886.963-2.318.963-4.306zm11.25.126c0-3.502 1.012-6.398 3.04-8.665 2.032-2.275 4.768-3.412 8.22-3.412 3.946 0 6.93 1.336 8.944 4.002 1.622 2.15 2.433 4.802 2.433 7.95 0 3.53-1.008 6.426-3.015 8.686-2.008 2.254-4.79 3.384-8.343 3.384-3.17 0-5.727-.938-7.685-2.814-2.4-2.32-3.596-5.364-3.596-9.13zm7.568-.023c0 2.053.354 3.568 1.07 4.543.71.98 1.603 1.476 2.68 1.476 1.09 0 1.98-.486 2.678-1.454.704-.968 1.052-2.512 1.052-4.655 0-1.987-.353-3.472-1.057-4.447-.702-.967-1.576-1.455-2.615-1.455-1.103 0-2.016.494-2.73 1.477-.716.992-1.077 2.498-1.077 4.515zm18.762-11.53h7.05v3.353c1.02-1.403 2.04-2.393 3.07-2.992 1.034-.59 2.282-.885 3.745-.885 1.57 0 2.812.324 3.725.974.918.65 1.666 1.618 2.25 2.903 1.183-1.5 2.266-2.526 3.248-3.066.976-.54 2.178-.81 3.616-.81 2.116 0 3.77.73 4.953 2.2 1.19 1.46 1.78 3.752 1.78 6.87v14.433h-7.57v-13.09c0-1.04-.17-1.816-.52-2.32-.506-.79-1.14-1.188-1.893-1.188-.887 0-1.608.376-2.153 1.122-.544.753-.81 1.958-.81 3.62v11.855h-7.577v-12.66c0-1.013-.05-1.693-.146-2.055-.164-.576-.442-1.042-.835-1.396a2.034 2.034 0 0 0-1.395-.532c-.867 0-1.576.384-2.134 1.145-.558.768-.836 2.023-.836 3.767v11.73H86.66v-22.98zm44.832 7.438l-7.214-.886c.27-1.47.665-2.63 1.177-3.473.515-.843 1.25-1.573 2.217-2.194.692-.45 1.648-.798 2.858-1.042 1.208-.243 2.52-.368 3.934-.368 2.26 0 4.085.147 5.454.442 1.373.295 2.52.916 3.433 1.854.647.65 1.153 1.566 1.527 2.756.368 1.197.552 2.327.552 3.413v10.15c0 1.078.06 1.927.176 2.54.12.613.373 1.397.772 2.35h-7.088c-.286-.592-.47-1.042-.557-1.353-.09-.31-.172-.798-.26-1.463-.988 1.116-1.977 1.907-2.952 2.38-1.336.634-2.887.952-4.654.952-2.35 0-4.137-.635-5.36-1.906-1.215-1.262-1.823-2.828-1.823-4.69 0-1.75.438-3.184 1.317-4.306.88-1.13 2.496-1.965 4.86-2.512 2.836-.664 4.674-1.13 5.515-1.396a24.13 24.13 0 0 0 2.668-1.05c0-1.084-.19-1.838-.57-2.274-.387-.43-1.06-.65-2.027-.65-1.236 0-2.16.236-2.78.694-.482.364-.875 1.043-1.174 2.033zm6.55 4.63a31.73 31.73 0 0 1-3.242 1.153c-1.533.473-2.51.945-2.914 1.403-.424.48-.633 1.02-.633 1.627 0 .693.21 1.255.62 1.697.418.437 1.027.66 1.83.66.843 0 1.623-.238 2.35-.71.723-.48 1.236-1.064 1.54-1.744.305-.688.45-1.58.45-2.673v-1.41zM150.236 2.92h7.558v6h-7.558v-6zm0 8.746h7.558v22.98h-7.558v-22.98zm12.377 0h7.038v3.737c1.05-1.53 2.115-2.614 3.19-3.272 1.078-.656 2.39-.988 3.935-.988 2.09 0 3.726.73 4.91 2.178 1.177 1.448 1.767 3.687 1.767 6.715v14.61h-7.588V22.008c0-1.44-.23-2.46-.685-3.058-.463-.605-1.105-.902-1.933-.902-.912 0-1.66.406-2.223 1.21-.57.807-.855 2.263-.855 4.353v11.036h-7.56v-22.98h.002zm24.013 16.62l7.5-.827c.31 1.04.74 1.787 1.3 2.23.557.45 1.296.672 2.228.672 1.014 0 1.8-.252 2.356-.76.43-.372.644-.845.644-1.406 0-.635-.283-1.123-.847-1.47-.412-.243-1.496-.546-3.25-.908-2.622-.54-4.448-1.026-5.467-1.484-1.02-.458-1.882-1.228-2.578-2.306-.704-1.08-1.05-2.312-1.05-3.7 0-1.515.38-2.823 1.133-3.916.753-1.1 1.792-1.92 3.116-2.46 1.325-.54 3.098-.81 5.327-.81 2.35 0 4.087.212 5.207.626a6.695 6.695 0 0 1 2.8 1.95c.748.88 1.37 2.07 1.87 3.57l-7.166.826c-.188-.738-.493-1.278-.93-1.625-.596-.467-1.312-.695-2.154-.695-.85 0-1.476.178-1.862.532a1.66 1.66 0 0 0-.582 1.285c0 .57.247.99.74 1.278.494.288 1.57.546 3.23.783 2.51.333 4.378.79 5.6 1.38 1.23.593 2.167 1.434 2.812 2.535.652 1.093.976 2.297.976 3.61 0 1.332-.342 2.624-1.032 3.88-.685 1.256-1.768 2.253-3.243 2.99-1.482.748-3.496 1.117-6.043 1.117-3.598 0-6.163-.6-7.69-1.795-1.527-1.196-2.508-2.902-2.945-5.103z"/><path fill="#6B6B6B" d="M197.26 35.775c-3.77 0-6.403-.627-8.053-1.92-1.633-1.28-2.695-3.115-3.16-5.455l-.124-.63 8.626-.95.14.47c.276.924.646 1.576 1.1 1.938.456.368 1.064.545 1.864.545.858 0 1.518-.204 1.96-.607.312-.27.453-.575.453-.97 0-.426-.175-.725-.568-.967-.19-.114-.855-.38-3.06-.834-2.726-.56-4.554-1.06-5.59-1.524-1.123-.504-2.074-1.354-2.83-2.522-.76-1.166-1.147-2.518-1.147-4.02 0-1.63.417-3.06 1.236-4.25.815-1.19 1.953-2.09 3.38-2.672 1.394-.568 3.26-.855 5.548-.855 2.396 0 4.217.223 5.413.664a7.32 7.32 0 0 1 3.044 2.122c.79.927 1.455 2.192 1.98 3.762l.23.69-8.397.968-.128-.498c-.16-.62-.397-1.048-.728-1.31-.486-.38-1.072-.567-1.787-.567-.688 0-1.195.13-1.464.377-.268.242-.392.51-.392.85 0 .357.136.586.45.77.288.168 1.045.43 3.017.71 2.598.343 4.488.812 5.772 1.433 1.332.642 2.363 1.572 3.063 2.766.7 1.175 1.057 2.49 1.057 3.91 0 1.43-.372 2.83-1.105 4.163-.736 1.353-1.912 2.442-3.495 3.234-1.55.782-3.674 1.178-6.306 1.178zM187.35 28.8c.46 1.754 1.328 3.14 2.587 4.127 1.413 1.107 3.878 1.67 7.326 1.67 2.447 0 4.392-.355 5.778-1.054 1.364-.683 2.37-1.606 2.99-2.747.64-1.16.96-2.368.96-3.597 0-1.205-.3-2.32-.89-3.31-.592-1.007-1.43-1.76-2.563-2.306-1.154-.56-2.98-1.004-5.422-1.33-1.788-.253-2.883-.526-3.45-.857-.675-.393-1.032-1.01-1.032-1.787 0-.677.262-1.257.775-1.722.495-.454 1.256-.685 2.26-.685.974 0 1.82.276 2.516.82.436.344.76.82.988 1.447l5.94-.686c-.43-1.108-.938-2.01-1.513-2.687a6.144 6.144 0 0 0-2.56-1.78c-1.06-.39-2.742-.59-5-.59-2.133 0-3.85.26-5.103.77-1.21.492-2.17 1.248-2.854 2.246-.684.993-1.03 2.198-1.03 3.583 0 1.27.322 2.406.956 3.38.63.977 1.414 1.68 2.326 2.09.954.427 2.703.9 5.343 1.443 2.445.503 3.13.8 3.43.977.75.46 1.14 1.143 1.14 1.977a2.37 2.37 0 0 1-.853 1.85c-.65.597-1.576.904-2.74.904-1.065 0-1.94-.27-2.6-.803-.562-.447-1.003-1.12-1.338-2.05l-6.364.704zm-56.482 6.953c-2.507 0-4.45-.703-5.783-2.087-1.32-1.37-1.99-3.086-1.99-5.1 0-1.876.486-3.448 1.443-4.668.974-1.25 2.67-2.14 5.188-2.723 2.8-.656 4.644-1.122 5.474-1.384.685-.217 1.44-.507 2.246-.864-.044-.895-.243-1.313-.416-1.51-.263-.292-.812-.448-1.583-.448-1.092 0-1.91.194-2.43.58-.37.276-.702.875-.96 1.726l-.142.475-8.33-1.024.114-.615c.285-1.536.707-2.77 1.255-3.67.56-.92 1.368-1.72 2.402-2.384.744-.486 1.774-.864 3.058-1.123a20.652 20.652 0 0 1 4.05-.38c2.3 0 4.178.153 5.58.455 1.482.32 2.737.998 3.73 2.02.712.717 1.26 1.696 1.666 2.99.39 1.268.578 2.44.578 3.59v10.148c0 1.018.056 1.836.167 2.434.115.586.363 1.337.736 2.23l.342.816h-8.343l-.162-.333c-.294-.608-.493-1.096-.594-1.447a5.29 5.29 0 0 1-.088-.366c-.76.725-1.53 1.278-2.3 1.65-1.412.673-3.062 1.013-4.91 1.013zm4.58-19.963c1.128 0 1.958.283 2.462.844.49.56.724 1.43.724 2.67v.378l-.345.158c-.983.45-1.903.81-2.733 1.074-.858.27-2.728.745-5.562 1.41-2.214.51-3.737 1.285-4.527 2.298-.803 1.026-1.192 2.315-1.192 3.945 0 1.722.544 3.123 1.66 4.282 1.1 1.143 2.76 1.723 4.934 1.723 1.67 0 3.152-.3 4.402-.895.906-.44 1.838-1.193 2.763-2.238l.854-.964.17 1.277c.09.67.168 1.12.243 1.378.046.164.146.45.365.926h5.848a10.89 10.89 0 0 1-.485-1.646c-.126-.675-.188-1.566-.188-2.655V19.607c0-1.03-.172-2.09-.525-3.24-.342-1.09-.808-1.936-1.38-2.513-.834-.856-1.888-1.423-3.14-1.693-1.32-.284-3.113-.428-5.33-.428-1.354 0-2.642.12-3.818.356-1.136.23-2.027.55-2.65.958-.886.57-1.57 1.242-2.036 2.008-.4.658-.728 1.55-.975 2.658l6.103.75c.317-.87.72-1.48 1.226-1.858.73-.542 1.782-.814 3.13-.814zM71.608 35.753c-3.31 0-6.03-1.002-8.092-2.98-2.508-2.422-3.78-5.636-3.78-9.554 0-3.642 1.075-6.69 3.19-9.06 2.142-2.394 5.056-3.608 8.662-3.608 4.122 0 7.29 1.425 9.413 4.237 1.693 2.242 2.552 5.037 2.552 8.303 0 3.66-1.065 6.716-3.163 9.078-2.117 2.378-5.073 3.583-8.783 3.583zm-.02-24.02c-3.303 0-5.848 1.05-7.78 3.214-1.92 2.146-2.892 4.93-2.892 8.272 0 3.585 1.15 6.514 3.417 8.704 1.833 1.758 4.28 2.648 7.274 2.648 3.36 0 6.018-1.07 7.9-3.185 1.902-2.14 2.867-4.93 2.867-8.295 0-3.004-.78-5.56-2.313-7.594-1.89-2.498-4.74-3.766-8.473-3.766zM43.24 35.752c-2.895 0-5.137-1.297-6.664-3.854-1.462-2.466-2.203-5.488-2.203-8.982 0-3.93.833-6.994 2.475-9.102 1.674-2.164 3.836-3.263 6.426-3.263 1.25 0 2.412.252 3.46.75.61.297 1.18.68 1.71 1.144V2.332h8.805v32.905h-8.247v-2.23c-.638.757-1.235 1.31-1.81 1.667-1.19.717-2.517 1.08-3.95 1.08zm.033-24.02c-2.236 0-4.033.916-5.494 2.806-1.478 1.896-2.226 4.714-2.226 8.377 0 3.28.686 6.1 2.038 8.38 1.316 2.204 3.165 3.276 5.65 3.276 1.216 0 2.336-.304 3.332-.904.73-.456 1.583-1.386 2.53-2.756l1.074-1.556v4.7h5.89V3.507h-6.447v12.067l-1.047-1.292c-.695-.858-1.465-1.484-2.353-1.917-.882-.42-1.875-.634-2.946-.634zm140.77 23.503h-8.765v-13.23c0-1.62-.308-2.36-.564-2.7-.348-.456-.812-.668-1.462-.668-.72 0-1.29.313-1.74.96-.343.484-.75 1.57-.75 4.014v11.625h-8.734v-24.16h8.215v2.585c.75-.878 1.52-1.56 2.296-2.034 1.17-.714 2.597-1.076 4.24-1.076 2.26 0 4.064.806 5.365 2.396 1.263 1.55 1.9 3.933 1.9 7.086v15.202zm-7.587-1.178h6.41V20.035c0-2.876-.55-5.01-1.635-6.342-1.08-1.32-2.537-1.96-4.453-1.96-1.425 0-2.644.302-3.625.9-1.008.616-2.022 1.66-3.015 3.104L169.06 17.3v-5.044h-5.858v21.8h6.38V23.612c0-2.24.313-3.774.96-4.69.67-.956 1.605-1.46 2.706-1.46 1.02 0 1.826.38 2.4 1.132.543.71.805 1.828.805 3.415v12.05zm-18.07 1.178h-8.736v-24.16h8.735v24.16zm-7.557-1.178h6.378V12.256h-6.378v21.802zm-30.14 1.178h-8.746V21.558c0-.92-.14-1.588-.414-1.984-.41-.635-.867-.936-1.41-.936-.696 0-1.245.288-1.678.88-.463.64-.697 1.742-.697 3.273v12.447h-8.753v-13.25c0-1.24-.08-1.724-.127-1.903-.132-.46-.35-.827-.66-1.11a1.448 1.448 0 0 0-1-.38c-.67 0-1.213.296-1.66.904-.478.66-.72 1.81-.72 3.42v12.32H86.07v-24.16H94.3v2.272c.718-.795 1.44-1.4 2.187-1.832 1.12-.64 2.478-.966 4.04-.966 1.687 0 3.056.365 4.065 1.084.786.557 1.465 1.333 2.022 2.312 1.022-1.197 1.96-2.023 2.85-2.512 1.062-.587 2.375-.885 3.9-.885 2.298 0 4.12.815 5.41 2.422 1.287 1.578 1.912 3.946 1.912 7.24v15.024zm-7.568-1.178h6.39V20.213c0-2.97-.554-5.155-1.648-6.498-1.074-1.335-2.544-1.983-4.495-1.983-1.323 0-2.445.248-3.332.738-.902.496-1.935 1.476-3.07 2.915l-.6.76-.4-.88c-.538-1.188-1.23-2.084-2.054-2.668-.807-.575-1.945-.865-3.384-.865-1.354 0-2.514.27-3.45.808-.955.553-1.928 1.504-2.89 2.827l-1.065 1.465v-4.576h-5.87v21.8h6.39v-11.14c0-1.89.312-3.233.95-4.113.676-.92 1.552-1.388 2.61-1.388.676 0 1.278.23 1.786.682.478.43.816.993 1.01 1.674.114.435.17 1.155.17 2.216v12.072h6.396V22.79c0-1.81.302-3.105.923-3.964.653-.894 1.562-1.366 2.63-1.366.664 0 1.616.253 2.39 1.46.41.588.614 1.457.614 2.638v12.5zm20.585-3.195c-.963 0-1.722-.282-2.256-.84-.523-.56-.784-1.268-.784-2.105 0-.752.263-1.43.78-2.016.488-.55 1.528-1.066 3.182-1.577a31.154 31.154 0 0 0 3.19-1.13l.816-.344v2.298c0 1.2-.162 2.15-.5 2.912-.35.785-.94 1.456-1.75 1.995a4.833 4.833 0 0 1-2.677.808zm3.75-6.255a32.71 32.71 0 0 1-2.486.846c-1.857.572-2.45 1.016-2.64 1.23-.326.368-.485.772-.485 1.234 0 .537.15.962.463 1.297.3.314.762.47 1.398.47.73 0 1.393-.2 2.03-.614.617-.41 1.063-.913 1.32-1.488.266-.597.4-1.416.4-2.434v-.54zm-65.806 5.2c-1.27 0-2.33-.58-3.157-1.722-.794-1.083-1.182-2.683-1.182-4.89 0-2.133.4-3.768 1.188-4.857.833-1.145 1.91-1.724 3.208-1.724 1.233 0 2.273.573 3.092 1.7.777 1.077 1.17 2.688 1.17 4.79 0 2.29-.38 3.924-1.163 5-.81 1.13-1.872 1.7-3.156 1.7zm.058-12.013c-.91 0-1.648.404-2.254 1.236-.64.884-.963 2.286-.963 4.167 0 1.918.32 3.33.956 4.194.603.835 1.322 1.24 2.204 1.24.895 0 1.615-.398 2.2-1.212.625-.86.94-2.31.94-4.31 0-1.85-.317-3.23-.946-4.102-.59-.814-1.288-1.21-2.135-1.21zm-26.002 11.51c-1.1 0-2.027-.524-2.756-1.557-.69-.99-1.025-2.45-1.025-4.462 0-2.152.327-3.664 1-4.624.71-1.014 1.617-1.528 2.692-1.528 1.196 0 2.19.528 2.958 1.57.736.993 1.096 2.43 1.096 4.39 0 2.14-.353 3.66-1.076 4.654-.752 1.032-1.724 1.557-2.89 1.557zm-.09-10.992c-.677 0-1.242.335-1.727 1.026-.522.744-.786 2.07-.786 3.946 0 1.738.272 3.012.812 3.784.5.71 1.087 1.056 1.79 1.056.778 0 1.412-.35 1.938-1.072.564-.773.85-2.105.85-3.96 0-1.674-.29-2.916-.866-3.69-.54-.735-1.198-1.09-2.01-1.09zm112.77-8.806h-8.736V2.332h8.735v7.175zm-7.557-1.178h6.378V3.51h-6.378v4.82z"/><path fill="#C6C6C5" d="M.303 53.995v-10.12H2.9c.968 0 1.6.048 1.896.146.475.155.866.49 1.175 1 .31.51.464 1.17.464 1.974 0 .733-.133 1.346-.4 1.842-.266.494-.6.84-.998 1.04-.398.2-1.087.303-2.063.303h-1.06v3.816H.304zm1.61-8.41v2.872h.894c.6 0 1.007-.043 1.222-.13.213-.086.39-.245.526-.472.14-.23.207-.508.207-.84 0-.333-.07-.62-.212-.848-.142-.23-.316-.385-.524-.463-.21-.08-.65-.117-1.325-.117h-.786zm5.85 8.41v-10.12h5.94v1.71H9.375v2.245h4.02v1.703h-4.02v2.756h4.474v1.705H7.763zm7.482 0v-10.04h5.633v1.714h-4.02v8.325h-1.613zm6.696 0v-10.12h1.54v6.743l3.233-6.744h1.618v10.122h-1.537v-6.6l-3.228 6.6H21.94zm13.16-3.72l1.567.625c-.246 1.134-.65 1.96-1.22 2.484-.567.52-1.267.782-2.096.782-1.042 0-1.888-.417-2.535-1.247-.747-.964-1.12-2.262-1.12-3.897 0-1.726.375-3.077 1.127-4.052.652-.845 1.526-1.27 2.63-1.27.895 0 1.644.32 2.248.952.43.453.745 1.122.945 2.01l-1.597.483c-.103-.55-.305-.968-.608-1.26a1.508 1.508 0 0 0-1.075-.438c-.59 0-1.072.265-1.445.8-.373.532-.56 1.414-.56 2.645 0 1.274.182 2.18.546 2.72.363.54.836.81 1.416.81.43 0 .797-.174 1.106-.516.31-.344.537-.887.673-1.632zm4.747 3.72v-8.41H37.47v-1.71h6.356v1.71h-2.368v8.41h-1.61zm5.026 0v-10.12h2.597c.968 0 1.6.048 1.896.146.476.155.865.49 1.176 1 .31.51.462 1.17.462 1.974 0 .733-.134 1.346-.4 1.842-.265.494-.6.84-.998 1.04-.398.2-1.086.303-2.062.303h-1.06v3.816h-1.61zm1.61-8.41v2.872h.892c.602 0 1.008-.043 1.224-.13.213-.086.39-.245.525-.472.14-.23.208-.508.208-.84 0-.333-.07-.62-.21-.848-.145-.23-.32-.385-.528-.463-.21-.08-.65-.117-1.324-.117h-.787zm13.06 8.41h-1.757l-.7-2.3h-3.193l-.658 2.3h-1.718l3.114-10.122h1.712l3.2 10.122zM56.57 49.99l-1.1-3.754-1.085 3.755h2.184zm10.223 2.29h.66V56.2h-1.325v-2.204h-5.7v-10.12h1.61v8.408h3.15v-8.408h1.604v8.407zm1.776 1.715v-10.12h1.537v6.743l3.234-6.744h1.62v10.122h-1.538v-6.6l-3.23 6.6H68.57zm14.472 0v-10.12h-3.4c-.87 0-1.493.09-1.866.272-.372.183-.68.497-.916.944-.24.453-.36.99-.36 1.615 0 .79.182 1.428.548 1.912.368.484.888.788 1.56.91a4.04 4.04 0 0 0-.854.847c-.23.306-.537.855-.928 1.646l-.97 1.976h1.92l1.174-2.203c.42-.794.706-1.295.86-1.495.15-.2.31-.336.478-.415.168-.075.438-.112.812-.112h.334v4.226h1.608zm-1.61-5.842h-1.2c-.73 0-1.197-.033-1.396-.1a.892.892 0 0 1-.486-.403c-.124-.202-.187-.473-.187-.81 0-.32.062-.58.187-.776a.94.94 0 0 1 .507-.402c.148-.052.588-.076 1.31-.076h1.267v2.567h-.002zm12.52 4.128h.69V56.2H93.32v-2.204h-5.055v2.204H86.94V52.28h.667c.26-.706.464-1.564.606-2.565.14-1.003.212-2.5.212-4.488v-1.353h5.525v8.407zm-1.612-6.7h-2.385c0 2.984-.217 5.223-.657 6.7h3.042v-6.7zm3.083 3.417c0-1.207.17-2.2.516-2.98.342-.78.792-1.36 1.347-1.742.554-.382 1.227-.573 2.018-.573 1.145 0 2.076.452 2.8 1.36.72.907 1.08 2.2 1.08 3.874 0 1.692-.38 3.016-1.145 3.97-.67.843-1.58 1.26-2.73 1.26-1.157 0-2.07-.416-2.74-1.246-.765-.955-1.147-2.26-1.147-3.923zm1.663-.07c0 1.166.214 2.038.64 2.62.426.582.953.875 1.583.875.635 0 1.16-.29 1.578-.868.417-.577.624-1.463.624-2.66 0-1.174-.203-2.04-.608-2.604-.405-.562-.937-.84-1.595-.84-.656 0-1.192.28-1.604.846-.415.567-.62 1.444-.62 2.632zm7.336 5.068v-10.12h2.415l1.453 6.904 1.438-6.906h2.423v10.122h-1.498v-7.968l-1.59 7.968h-1.56l-1.576-7.968v7.968h-1.504zm9.34 0v-10.12h5.937v1.71h-4.33v2.245h4.022v1.703h-4.02v2.756h4.473v1.705h-6.084zm7.453 0v-10.12h1.61v3.982h3.17v-3.983h1.617v10.122h-1.617V49.57h-3.17v4.425h-1.61zm7.743-4.998c0-1.207.17-2.2.515-2.98.344-.78.794-1.36 1.35-1.742.553-.382 1.226-.573 2.016-.573 1.145 0 2.076.452 2.8 1.36.72.907 1.08 2.2 1.08 3.874 0 1.692-.382 3.016-1.145 3.97-.67.843-1.58 1.26-2.73 1.26-1.157 0-2.07-.416-2.74-1.246-.766-.955-1.147-2.26-1.147-3.923zm1.663-.07c0 1.166.215 2.038.64 2.62.427.582.954.875 1.585.875.635 0 1.16-.29 1.577-.868.418-.577.625-1.463.625-2.66 0-1.174-.202-2.04-.608-2.604-.405-.562-.94-.84-1.595-.84s-1.192.28-1.604.846c-.414.567-.62 1.444-.62 2.632zm7.355-5.053h3.204c.872 0 1.487.083 1.842.25.354.164.654.458.9.875.242.416.365.893.365 1.42 0 .487-.104.93-.314 1.322-.208.394-.48.686-.81.874a2.16 2.16 0 0 1 1.112.9c.27.42.404.938.404 1.545 0 .736-.173 1.36-.514 1.867-.34.51-.746.822-1.212.942-.324.082-1.077.124-2.256.124h-2.725v-10.12h.002zm1.61 1.685v2.34h1.066c.64 0 1.035-.013 1.188-.036.274-.045.488-.166.646-.36.154-.196.23-.462.23-.8 0-.3-.06-.54-.188-.728a.79.79 0 0 0-.458-.348c-.18-.046-.696-.07-1.547-.07h-.934zm0 4.024v2.706h1.5c.657 0 1.078-.037 1.264-.106.186-.07.342-.21.47-.422.125-.21.188-.474.188-.796 0-.333-.066-.604-.203-.818a1.047 1.047 0 0 0-.537-.443c-.226-.08-.685-.12-1.375-.12h-1.307zm14.978 4.41l2.735-5.28-2.482-4.84h1.89l1.603 3.252 1.572-3.252h1.87l-2.483 4.917 2.734 5.206h-1.948l-1.777-3.5-1.78 3.5h-1.937zm7.94-4.997c0-1.207.17-2.2.517-2.98.343-.78.793-1.36 1.348-1.742.554-.382 1.227-.573 2.018-.573 1.146 0 2.077.452 2.8 1.36.72.907 1.08 2.2 1.08 3.874 0 1.692-.38 3.016-1.145 3.97-.668.843-1.577 1.26-2.728 1.26-1.16 0-2.072-.416-2.74-1.246-.766-.955-1.148-2.26-1.148-3.923zm1.664-.07c0 1.166.214 2.038.638 2.62.428.582.955.875 1.587.875.634 0 1.158-.29 1.576-.868.418-.577.624-1.463.624-2.66 0-1.174-.2-2.04-.607-2.604-.405-.562-.937-.84-1.593-.84s-1.193.28-1.604.846c-.414.567-.62 1.444-.62 2.632zm12.48 1.347l1.565.626c-.245 1.134-.65 1.96-1.218 2.484-.57.52-1.268.782-2.098.782-1.042 0-1.888-.417-2.535-1.247-.746-.964-1.12-2.262-1.12-3.897 0-1.726.376-3.077 1.128-4.052.65-.845 1.526-1.27 2.63-1.27.894 0 1.644.32 2.248.952.43.453.745 1.122.944 2.01l-1.597.483c-.103-.55-.304-.968-.608-1.26s-.664-.438-1.075-.438c-.59 0-1.072.265-1.445.8-.372.532-.56 1.414-.56 2.645 0 1.274.184 2.18.547 2.72.363.54.836.81 1.418.81.427 0 .795-.174 1.104-.516.312-.344.537-.887.673-1.632zm4.746 3.72v-8.408h-2.376v-1.712h6.357v1.712h-2.37v8.41h-1.61zm5.033 0v-10.12h1.538v6.744l3.235-6.744h1.617v10.122h-1.54v-6.6l-3.227 6.6h-1.624zm8.04 0v-10.12h1.612v3.983h3.17v-3.983h1.617v10.122h-1.618V49.57h-3.17v4.425h-1.61zm8.096 0V43.957h5.633v1.713h-4.022v8.325h-1.61z"/><path fill="#6F6F6E" d="M148.034 48.818l.315-.98c.732.26 1.263.48 1.595.67-.086-.833-.134-1.405-.14-1.718h1.003a17.924 17.924 0 0 1-.158 1.71c.473-.237 1.015-.458 1.628-.662l.318.98a8.57 8.57 0 0 1-1.72.387c.28.244.68.68 1.188 1.307l-.827.586a16.716 16.716 0 0 1-.946-1.484c-.34.648-.64 1.144-.897 1.484l-.813-.586c.534-.658.916-1.094 1.145-1.307a23.162 23.162 0 0 1-1.69-.387z"/></svg>