<svg xmlns="http://www.w3.org/2000/svg" width="193.421" height="45.497" viewBox="0 0 193.421 45.497"><g fill="#7C7C7C"><path d="M32.096 1.57v.455c-.68.375-1.52.668-2.53.878l-7 20.01.47 1.215c.27.067.527.154.787.232l-.342-.884 7.003-20.01c1.005-.21 1.85-.504 2.53-.88V1.57h-.917zM18.29 2.587V1.57h-.917v.455a15.89 15.89 0 0 1-1.337.475c-.49.152-1.007.287-1.544.404L20.5 18.96l.737 2.813h.07l.337-1.377-.23-.872-6.01-16.06c.54-.117 1.056-.25 1.547-.404a15.5 15.5 0 0 0 1.34-.473zM25.707 26.025H17.31v.562h9.313v-1.02c-.297-.115-.607-.224-.916-.333v.79zM42.78 25.603h-8.083v.563h8.996v-1.02c-.28-.13-.59-.247-.914-.355v.813zM42.78 1.57v.455a14.21 14.21 0 0 1-2.812.88V22.74c.306.058.61.142.915.218V3.466a14.153 14.153 0 0 0 2.81-.88V1.57h-.914zM47.996 3.235c.12.097.244.218.37.33v-.662c-.126.21-.25.303-.37.332zM55.113 25.603H46.4v.563h9.627v-1.02c-.283-.108-.606-.198-.914-.294v.75zM64.162 5.24c-.527-.97-1.22-1.75-2.072-2.337a7.585 7.585 0 0 0-.8-.472c.8.576 1.456 1.322 1.958 2.248.527.973.79 2.185.79 3.638 0 1.382-.27 1.564-.808 2.548a7.05 7.05 0 0 1-2.163 2.425c-.9.63-1.925 1.094-3.073 1.387s-2.332.44-3.55.44H53.9a18.526 18.526 0 0 1-1.6-.07 5.323 5.323 0 0 1-.563-.072v7.767c.315.034.62.08.917.135v-7.34c.116.025.305.048.562.07.258.025.527.043.81.054.28.014.544.02.788.02h.545c1.218 0 2.4-.147 3.548-.44a9.295 9.295 0 0 0 3.075-1.39c.9-.63 1.622-1.44 2.16-2.424.54-.984.81-1.167.81-2.55 0-1.452-.264-2.664-.79-3.636zM52.654 12.23V3.29a7.1 7.1 0 0 1 1.02-.14c.352-.024.81-.037 1.37-.037 1.304 0 2.4.24 3.323.684C57.303 2.98 55.9 2.55 54.13 2.55c-.563 0-1.02.013-1.372.036-.352.024-.69.07-1.02.14v9.386c.117.047.287.076.51.088.13.007.27.02.406.03zM76.246 15.02l-3.564.69v7.058c.318.07.61.145.914.218v-6.713l2.988-.557c-.112-.233-.217-.457-.338-.696zM75.668 25.603h-8.326v.563h9.242v-1.02c-.3-.118-.607-.206-.916-.3v.757zM75.986 3.114c1.12 0 2.09.213 2.922.618-.998-.782-2.275-1.18-3.838-1.18-.56 0-1.023.012-1.387.035-.364.023-.697.07-1.002.14v9.47s.364-.035.915-.103V3.29c.304-.07.64-.117 1.002-.14s.827-.036 1.39-.036zM87.39 26.288c-4.058-4.444-7.52-11.437-7.52-11.437s1.962-.497 3.684-2.424c.962-1.076 1.358-2.542 1.358-4.252 0-1.217-.208-2.26-.617-3.127a5.806 5.806 0 0 0-2.73-2.78c.035.026.073.048.106.074a5.813 5.813 0 0 1 1.71 2.145c.41.867.616 1.91.616 3.127 0 1.71-.395 3.176-1.358 4.25-1.722 1.93-3.684 2.426-3.684 2.426s3.462 6.993 7.52 11.436a224.29 224.29 0 0 0-4.397 2.39c.055.687.037 1.052.037 1.052s3.468-1.938 5.277-2.878z"/><g><path d="M104.79 16.643l.288.562h.88a59.6 59.6 0 0 0 0-7.098h-.88l-.018.034c.107 2.13.11 4.295-.018 6.502h-.25zM95.064 2.833v8.312h.916v-7.75h8.955l-.208-.562zM109.014 23.108a31.49 31.49 0 0 0-.352-2.987h-.834c.117.802.215 1.61.27 2.425.07 1.007 1.083 2.026 1.036 3.057H89.727v.563h20.322c.046-1.03-.966-2.05-1.036-3.057zM95.98 14.534h6.166l-.287-.562h-6.796v8.63h.916zM108.26 4.396c.057-.95 1.098-1.89 1.12-2.828h-1.04c-.28.75-.95 1.505-.996 2.265a48.68 48.68 0 0 1-.264 2.864h-.207l.21.562h.913c.115-.96.203-1.915.264-2.864z"/></g><g><path d="M125.127 15.32v.268c.54.188 1.084.363 1.636.527.267.08.54.145.822.197v-.442a8.267 8.267 0 0 1-1.74-.316c-.242-.072-.478-.156-.718-.233zM132.822 14.57v.456a4.632 4.632 0 0 1-.844.457c-.328.14-.774.27-1.336.387v8.317l1 .916v.922c-1.914 0-5.797-.13-6.465 0-.665.128-1.293 0-1.88 0-1.874 0-4.56-.253-6.06-.756-.59-.2-1.137-.45-1.658-.733.77.536 1.622.976 2.573 1.295 1.497.503 4.186.755 6.06.755.585 0 1.212.128 1.88 0 .67-.128 4.55 0 6.465 0v-.92l-1-.917v-8.318c.56-.117 1.006-.246 1.334-.386.33-.14.608-.293.843-.457v-1.02h-.913z"/><path d="M118.71 23.25a8.738 8.738 0 0 1-1.6-1.46c-.808-.948-1.077-2.064-1.532-3.398-.458-1.336-.684-2.835-.684-4.5 0-1.85.232-3.46.7-4.83.468-1.37.73-2.534 1.515-3.435a7.27 7.27 0 0 1 2.75-2.003c1.05-.433 3.158-.65 4.326-.65.584 0 1.18.023 1.788.07.186.015.35.035.504.06l-.124-.34c-.255-.142-.688-.235-1.296-.282a23.672 23.672 0 0 0-1.785-.07c-1.17 0-3.277.218-4.328.65a7.287 7.287 0 0 0-2.752 2.003c-.78.9-1.047 2.064-1.514 3.435s-.702 2.98-.702 4.832c0 1.664.23 3.163.684 4.498.454 1.335.726 2.45 1.533 3.4a8.47 8.47 0 0 0 2.516 2.02zM129.307 6.364c.025.555-.14 1.037-.21 1.46h-.202l.203.56h.915c.07-.42.233-.903.21-1.457-.078-1.76 1.922-3.66 1.922-4.012a12.28 12.28 0 0 0-.98-.41c-.31.572-1.93 2.266-1.858 3.86z"/></g><path d="M139.6 22.477a2.188 2.188 0 0 0-.857-.497c.402.415.608.952.608 1.62 0 .68-.22 1.23-.664 1.652-.445.422-1.03.633-1.758.633a2.8 2.8 0 0 1-.86-.133c.018.02.032.043.053.063.447.422 1.022.632 1.725.632.724 0 1.31-.21 1.756-.632s.668-.97.668-1.652c0-.703-.223-1.265-.668-1.686z"/><g><path d="M156.92 2.974c-.512-.188-1.156-.328-1.937-.422-.78-.093-1.61-.14-2.49-.14-1.446 0-2.61.333-3.492 1-.877.67-1.318 1.6-1.318 2.794 0 .96.348 1.77 1.04 2.425.558.527 1.232 1.006 2.016 1.442a9.23 9.23 0 0 1-1.1-.88c-.692-.655-1.04-1.462-1.04-2.424 0-1.194.438-2.126 1.32-2.794.88-.667 2.045-1 3.49-1 .88 0 1.71.046 2.49.14.424.05.797.118 1.14.195l-.117-.336zM150.846 14.253a19.792 19.792 0 0 1-2.83-1.377c.13.09.258.185.395.27 1.025.645 2.144 1.202 3.354 1.67 1.21.468 2.327.948 3.353 1.44.227.108.44.22.65.337a11.66 11.66 0 0 0-1.565-.9 48.714 48.714 0 0 0-3.356-1.44zM160.62 8.35c.112-.398.226-.86.337-1.388.113-.527.22-1.07.316-1.634.1-.562.184-1.106.254-1.634.07-.527.105-.99.105-1.388-.27-.11-.588-.21-.926-.307-.012.34-.04.708-.096 1.13-.07.528-.154 1.073-.254 1.635a43.194 43.194 0 0 1-.316 1.634c-.11.527-.225.99-.337 1.387h-.378l.197.562h1.098z"/><path d="M161.604 16.362c-.692-.866-1.563-1.617-2.61-2.25-.117-.07-.248-.13-.367-.2a9.52 9.52 0 0 1 2.062 1.887c.692.866 1.04 1.944 1.04 3.232 0 1.054-.232 2.015-.697 2.882-.466.866-1.134 1.604-2.004 2.213-.872.61-1.94 1.078-3.206 1.406-1.266.328-2.7.492-4.304.492-1.77 0-3.36-.176-4.765-.527-.844-.21-1.52-.43-2.072-.66l-.008.098c.59.4 1.588.772 2.993 1.125 1.407.352 2.997.528 4.77.528 1.6 0 3.036-.165 4.302-.492s2.334-.796 3.205-1.405 1.538-1.346 2.004-2.212c.464-.867.694-1.828.694-2.882 0-1.29-.345-2.367-1.04-3.234z"/><path d="M148.138 22.873l-1.312-4.297h-.726l1.13 3.758c.243.203.56.378.908.54z"/></g><g><path d="M171.333 2.02c-.445.188-.89.353-1.335.49-.445.142-.89.27-1.334.387v14.328c0 1.237.135 2.27.403 3.1s.66 1.495 1.177 1.997c.35.34.774.59 1.236.803-.104-.083-.225-.146-.32-.24-.516-.5-.908-1.168-1.178-1.997-.27-.83-.404-1.862-.404-3.1V3.458c.445-.115.89-.244 1.336-.384.445-.14.89-.303 1.336-.49V1.568h-.917v.45z"/><path d="M185.32 1.57v.455c-.445.258-.897.492-1.354.703-.457.21-.92.375-1.39.492v14.09c0 1.5-.198 2.788-.597 3.865-.4 1.078-.954 1.968-1.67 2.67-.714.704-1.58 1.226-2.6 1.565-1.02.34-2.15.51-3.393.51-2.16 0-3.94-.364-5.348-1.084 1.518 1.093 3.602 1.646 6.263 1.646 1.24 0 2.372-.17 3.392-.51s1.886-.86 2.6-1.563c.715-.704 1.27-1.594 1.67-2.672.398-1.077.598-2.365.598-3.865V3.783c.47-.118.932-.282 1.387-.493.456-.21.908-.445 1.354-.703V1.57h-.915z"/></g><g><path d="M26.337 2.32c-.562-.118-1.09-.25-1.58-.404-.49-.152-.973-.31-1.44-.474V.422h7.906v1.02c-.68.375-1.523.667-2.53.878l-7.942 22.7-1.93.422L9.856 2.32c-.47-.118-.926-.25-1.37-.404-.446-.152-.878-.31-1.3-.474V.422H16.5v1.02a15.9 15.9 0 0 1-1.336.474c-.493.153-1.008.286-1.548.404l6.01 16.058.74 2.812h.068l.702-2.882 5.2-15.988z"/><path d="M22.162 23.544l-.615-1.59c-1.2.016-2.39.05-3.55.18l-.118.01.522 1.4a18.4 18.4 0 0 0-1.545.405c-.492.15-.938.31-1.337.474v1.02h9.312v-1.02c-.42-.164-.854-.322-1.3-.475-.445-.155-.9-.29-1.37-.406zM41.903 25.02h-8.995V24a10.187 10.187 0 0 1 2.813-.843V2.32a12.32 12.32 0 0 1-1.406-.37c-.47-.15-.938-.322-1.406-.51V.42h8.995v1.02c-.42.188-.878.358-1.368.51a14.42 14.42 0 0 1-1.44.37v20.837c.49.094.983.21 1.473.35.493.142.938.307 1.336.493v1.02zM50.865 23.157c.633.07 1.23.182 1.793.333.56.154 1.088.324 1.58.51v1.02H44.61V24c.468-.234.948-.41 1.44-.527s.973-.223 1.44-1.316V2.32c-.54.906-1.042-.217-1.51-.37-.47-.15-.928-.322-1.37-.51V.42h3.162c.936 0 1.955-.046 3.057-.14a37.617 37.617 0 0 1 3.16-.14c1.15 0 2.274.122 3.374.368 1.102.246 2.08.663 2.936 1.248.854.586 1.545 1.365 2.072 2.336.526.973.79 2.185.79 3.637 0 1.38-.27 1.564-.808 2.548a7.083 7.083 0 0 1-2.16 2.425c-.902.633-1.93 1.095-3.076 1.39-1.146.29-2.33.437-3.55.437h-.544c-.244 0-.508-.005-.79-.018-.28-.01-.55-.03-.808-.053a5.287 5.287 0 0 1-.562-.07v8.767zm2.388-21.19c-.56 0-1.018.013-1.368.037a6.98 6.98 0 0 0-1.02.14V12.53c.117.047.286.076.51.088.223.012.457.03.703.052.246.024.484.035.72.035h.562c.82 0 1.593-.11 2.32-.334a5.07 5.07 0 0 0 1.914-1.07c.55-.492.99-1.113 1.318-1.863.328-.75.49-.65.49-1.706 0-1.92-.543-3.36-1.633-4.32-1.088-.962-2.594-1.442-4.517-1.442zM71.807 23.157c.54.117 1.055.24 1.547.37.492.128.973.288 1.44.474v1.02h-9.24V24a8.657 8.657 0 0 1 1.476-.527c.467-.117.936-.223 1.404-.316V2.32c-.61-.118-2.506.364-2.88.2V1.422l3.114-.715c.938 0 1.943-.332 3.06-.426a39.304 39.304 0 0 1 3.26-.14c1.15 0 2.224.13 3.222.387.998.258 1.86.667 2.59 1.23A5.802 5.802 0 0 1 82.507 3.9c.41.867.617 1.91.617 3.127 0 1.71-.396 3.176-1.357 4.252-1.723 1.926-3.684 2.424-3.684 2.424s3.46 6.993 7.52 11.437c-1.81.942-5.277 2.88-5.277 2.88s.28-5.022-4.204-13.894l-4.313 1v8.03zm2.39-21.19c-.562 0-1.026.013-1.39.037-.362.022-.696.07-1 .14V12.58s5.428-.51 6.378-1.535c.95-1.024 1.424-2.374 1.424-4.05 0-1.722-.505-2.99-1.513-3.804s-2.308-1.222-3.9-1.222zM107.592.422c-.024.937-1.064 1.88-1.12 2.83a52.37 52.37 0 0 1-.265 2.863h-.914L103.85 2.25h-9.658v9.31h7.73l1.368-2.6h.88c.14 2.32.14 4.687 0 7.1h-.88l-1.37-2.672h-7.728v9.804h10.082l1.723-4.217h.877c.163.984.28 1.98.352 2.987.07 1.008 1.082 2.027 1.035 3.057H87.94V24c.818-.375 1.78-.655 2.88-.843V2.32c-.468-.094-.95-.217-1.44-.37-.492-.15-.974-.322-1.44-.51V.42h19.654zM130.77 25.44c-1.915 0-5.797-.128-6.466 0-.666.13-1.294 0-1.88 0-1.873 0-4.56-.25-6.06-.754-1.5-.503-2.777-1.277-3.83-2.32-1.054-1.042-1.868-2.36-2.442-3.953-.574-1.593-.86-3.49-.86-5.692 0-2.295.333-4.25 1-5.868.668-1.616 1.56-2.934 2.67-3.954A10.21 10.21 0 0 1 116.7.684C118.115.23 120.562 0 122.036 0c1.548 0 2.854.1 3.92.3 1.064.198 3.603 1.072 4.398 1.47 0 .35-2 2.25-1.92 4.01.022.555-.142 1.037-.212 1.46h-.914l-1.826-5.062c-.258-.14-.69-.233-1.297-.28a23.166 23.166 0 0 0-1.787-.072c-1.168 0-3.278.218-4.328.65a7.292 7.292 0 0 0-2.75 2.003c-.784.9-1.047 2.064-1.514 3.434-.47 1.37-.702 2.98-.702 4.832 0 1.663.228 3.163.685 4.498.454 1.335.724 2.45 1.53 3.4a8.46 8.46 0 0 0 2.84 2.196c1.086.516 3.26.773 4.52.773.468 0 .922-.046 1.368-.14a10.3 10.3 0 0 0 1.227-.334 5.51 5.51 0 0 0 .928-.405c.246-.14.416-.257.508-.35v-7.1a8.275 8.275 0 0 1-1.737-.315 37.142 37.142 0 0 1-1.636-.528v-1.02h8.61v1.02a4.637 4.637 0 0 1-.845.457c-.327.14-.772.27-1.333.386v8.317l1 .916v.92zM134.04 23.017c0-.702.223-1.265.667-1.687.444-.422 1.02-.633 1.723-.633.725 0 1.31.21 1.756.633.445.42.668.984.668 1.687 0 .68-.223 1.23-.668 1.652-.445.42-1.03.63-1.756.63-.703 0-1.278-.21-1.723-.63-.444-.423-.668-.974-.668-1.653zM146.767 22.594c.336.282.774.523 1.308.72.535.2 1.336.3 2.404.3.9 0 1.743-.1 2.53-.3.787-.197 1.47-.49 2.047-.878a4.55 4.55 0 0 0 1.37-1.405c.337-.55.507-1.176.507-1.88 0-.936-.347-1.72-1.034-2.353-.688-.633-1.546-1.195-2.573-1.687a46.43 46.43 0 0 0-3.354-1.44A19.56 19.56 0 0 1 146.62 12a9.616 9.616 0 0 1-2.573-2.32c-.69-.9-1.033-2.03-1.033-3.39 0-.985.21-1.863.633-2.636a5.712 5.712 0 0 1 1.793-1.968c.77-.54 1.693-.955 2.76-1.248 1.07-.29 2.265-.438 3.587-.438 1.714 0 3.283.112 4.703.334 1.42.223 2.537.5 3.354.826 0 .398-.035.86-.106 1.39-.07.525-.153 1.07-.254 1.633a39.907 39.907 0 0 1-.315 1.634c-.112.527-.226.99-.337 1.387h-1.098l-1.688-4.813c-.512-.187-1.156-.327-1.938-.42-.78-.094-1.61-.142-2.49-.142-1.446 0-2.61.334-3.49 1.002-.882.668-1.32 1.6-1.32 2.794 0 .96.347 1.77 1.04 2.424.693.657 1.562 1.242 2.61 1.757a47.43 47.43 0 0 0 3.373 1.493 22.992 22.992 0 0 1 3.37 1.67c1.05.632 1.92 1.38 2.613 2.248.693.867 1.038 1.944 1.038 3.232 0 1.055-.23 2.015-.694 2.882s-1.133 1.604-2.004 2.213c-.872.61-1.94 1.078-3.205 1.406-1.265.327-2.7.49-4.302.49-1.77 0-3.36-.175-4.768-.526-1.406-.35-2.404-.726-2.993-1.124.026-.398.077-.878.147-1.44.07-.563.154-1.143.252-1.74.1-.598.205-1.178.315-1.74.113-.562.227-1.042.34-1.44h1.095l1.732 5.164zM161.535.422h8.926v1.016c-.444.187-.89.35-1.335.49-.445.14-.89.27-1.336.386V16.64c0 1.238.134 2.272.403 3.1.27.83.66 1.496 1.178 2 .515.5 1.153.862 1.914 1.084.763.222 1.624.333 2.584.333 1.85 0 3.292-.508 4.323-1.524 1.03-1.015 1.545-2.69 1.545-5.026V2.63a23.164 23.164 0 0 1-1.51-.58 12.51 12.51 0 0 1-1.265-.613V.422h7.484v1.02a16.9 16.9 0 0 1-1.354.703c-.454.21-.918.375-1.388.492v14.09c0 1.5-.198 2.79-.597 3.866-.398 1.078-.956 1.968-1.67 2.67-.715.704-1.58 1.225-2.6 1.564-1.02.34-2.15.51-3.39.51-2.93 0-5.167-.662-6.714-1.986-1.544-1.322-2.317-3.355-2.317-6.096V2.32a10.485 10.485 0 0 1-2.88-.878V.422z"/><path d="M49.855 13.353a.71.71 0 0 1-.71.71h-2.747a.71.71 0 0 1 0-1.42h2.746a.71.71 0 0 1 .71.71zM70.986 14.387a.71.71 0 0 1-.583.82l-2.707.457a.712.712 0 0 1-.237-1.403l2.708-.456a.713.713 0 0 1 .82.583zM93.52 12.163a.71.71 0 0 1-.71.71h-2.745c-.394 0-.71.075-.71-.318v-.393a.71.71 0 0 1 .71-.71h2.746c.393 0 .71.318.71.71z"/></g></g><g fill="#878787"><path d="M0 33.224c.598-.1 1.38-.186 2.373-.186 1.22 0 2.114.285 2.684.796.525.455.84 1.15.84 2.003 0 .866-.256 1.548-.74 2.045-.652.696-1.72 1.05-2.926 1.05-.368 0-.71-.013-.994-.084v3.836H0v-9.46zm1.235 4.616c.27.07.612.1 1.024.1 1.49 0 2.4-.726 2.4-2.046 0-1.265-.897-1.875-2.262-1.875-.538 0-.95.04-1.164.1v3.72zM7.812 39.474c.03 1.69 1.107 2.387 2.356 2.387.897 0 1.437-.155 1.905-.354l.213.895c-.44.2-1.193.427-2.287.427-2.118 0-3.382-1.392-3.382-3.465 0-2.075 1.223-3.708 3.225-3.708 2.243 0 2.842 1.974 2.842 3.24 0 .254-.03.454-.043.582h-4.83zm3.667-.895c.013-.796-.33-2.033-1.735-2.033-1.264 0-1.818 1.166-1.918 2.032h3.652zM18.424 35.81v1.008h-2.982v5.867h-1.237V35.81h4.22zM20.753 35.81v2.897a43.05 43.05 0 0 1-.07 2.756l.044.014c.41-.838.652-1.32 1.106-2.116l2.146-3.55h1.464v6.875H24.25v-2.912c0-1.123.027-1.705.083-2.813h-.042c-.44.88-.737 1.435-1.134 2.13-.655 1.066-1.408 2.388-2.146 3.596h-1.434V35.81h1.177zM32.375 42.428c-.328.17-1.053.398-1.976.398-2.074 0-3.424-1.406-3.424-3.51 0-2.115 1.45-3.65 3.692-3.65.74 0 1.394.186 1.733.356l-.282.965c-.3-.17-.77-.327-1.45-.327-1.577 0-2.43 1.166-2.43 2.6 0 1.592 1.024 2.572 2.388 2.572.71 0 1.18-.185 1.533-.342l.215.938zM38.71 35.81v.993h-2.145v5.882H35.33v-5.882h-2.146v-.994h5.527zM39.804 38.053c0-.88-.028-1.59-.056-2.245h1.12l.058 1.18h.028c.513-.84 1.32-1.335 2.444-1.335 1.662 0 2.912 1.406 2.912 3.494 0 2.472-1.507 3.693-3.125 3.693-.91 0-1.705-.398-2.118-1.08h-.028v3.737h-1.236v-7.444zm1.235 1.833c0 .185.027.355.058.51.227.868.98 1.465 1.875 1.465 1.32 0 2.088-1.08 2.088-2.656 0-1.377-.724-2.557-2.044-2.557-.854 0-1.648.61-1.89 1.548a2.025 2.025 0 0 0-.087.512v1.18zM51.693 42.685l-.098-.867h-.043c-.385.54-1.123 1.023-2.104 1.023-1.393 0-2.102-.978-2.102-1.973 0-1.663 1.477-2.57 4.133-2.558v-.143c0-.57-.157-1.59-1.564-1.59-.638 0-1.306.198-1.788.51l-.285-.824c.568-.37 1.392-.61 2.26-.61 2.1 0 2.613 1.434 2.613 2.812v2.57c0 .597.03 1.18.113 1.65h-1.137zm-.183-3.51c-1.363-.028-2.912.213-2.912 1.548 0 .81.54 1.193 1.18 1.193.894 0 1.463-.568 1.662-1.15.04-.128.07-.27.07-.398v-1.193zM59.28 35.81v.993h-2.146v5.882h-1.236v-5.882h-2.146v-.994h5.527zM66.41 39.19c0 2.542-1.76 3.65-3.423 3.65-1.86 0-3.296-1.364-3.296-3.537 0-2.3 1.507-3.65 3.41-3.65 1.976 0 3.31 1.434 3.31 3.537zm-5.456.07c0 1.506.868 2.643 2.09 2.643 1.193 0 2.09-1.123 2.09-2.67 0-1.165-.583-2.643-2.062-2.643-1.476 0-2.118 1.364-2.118 2.67zM67.987 38.053c0-.88-.028-1.59-.056-2.245h1.122l.057 1.18h.027c.513-.84 1.32-1.335 2.444-1.335 1.663 0 2.913 1.406 2.913 3.494 0 2.472-1.507 3.693-3.126 3.693-.91 0-1.704-.398-2.116-1.08h-.028v3.737h-1.235v-7.444zm1.236 1.833c0 .185.03.355.06.51.226.868.978 1.465 1.874 1.465 1.32 0 2.088-1.08 2.088-2.656 0-1.377-.726-2.557-2.045-2.557-.854 0-1.648.61-1.89 1.548a2.025 2.025 0 0 0-.087.512v1.18zM84.41 35.81v5.937l.71.015-.07 3.11h-.982l-.056-2.187h-4.76l-.057 2.187h-.98l-.058-3.11.584-.015c.298-.44.525-.91.683-1.406.27-.852.396-1.775.396-2.74v-1.79h4.59zm-3.48 2.086c0 .91-.13 1.79-.355 2.557-.143.47-.342.895-.556 1.28h3.167V36.76H80.93v1.136zM92.775 39.19c0 2.542-1.76 3.65-3.422 3.65-1.86 0-3.297-1.364-3.297-3.537 0-2.3 1.506-3.65 3.41-3.65 1.975 0 3.31 1.434 3.31 3.537zm-5.456.07c0 1.506.866 2.643 2.09 2.643 1.192 0 2.088-1.123 2.088-2.67 0-1.165-.582-2.643-2.06-2.643-1.477 0-2.12 1.364-2.12 2.67zM94.424 35.81h1.535l1.25 3.465c.17.512.468 1.35.623 1.89h.028c.157-.51.542-1.606.81-2.36l1.11-2.996h1.548l.482 6.875h-1.194l-.155-3.282c-.043-.74-.1-1.62-.127-2.458h-.042c-.185.625-.37 1.18-.75 2.23l-1.323 3.466h-.908l-1.225-3.395a53.8 53.8 0 0 1-.682-2.287h-.056c-.03.81-.072 1.72-.113 2.472l-.172 3.254h-1.15l.512-6.875zM104.127 39.474c.027 1.69 1.107 2.387 2.356 2.387.896 0 1.437-.155 1.904-.354l.214.895c-.44.2-1.192.427-2.286.427-2.117 0-3.38-1.392-3.38-3.465 0-2.075 1.22-3.708 3.224-3.708 2.244 0 2.84 1.974 2.84 3.24 0 .254-.026.454-.04.582h-4.83zm3.664-.895c.014-.796-.325-2.033-1.73-2.033-1.267 0-1.82 1.166-1.92 2.032h3.65zM111.753 35.81v2.77h3.268v-2.77h1.238v6.875h-1.237v-3.11h-3.267v3.11h-1.234V35.81h1.233zM124.525 39.19c0 2.542-1.762 3.65-3.424 3.65-1.86 0-3.294-1.364-3.294-3.537 0-2.3 1.506-3.65 3.408-3.65 1.975 0 3.31 1.434 3.31 3.537zm-5.455.07c0 1.506.867 2.643 2.088 2.643 1.192 0 2.088-1.123 2.088-2.67 0-1.165-.582-2.643-2.06-2.643s-2.116 1.364-2.116 2.67zM126.074 35.894c.482-.085 1.377-.157 2.188-.157 1.15 0 3.054.185 3.054 1.72 0 .85-.654 1.377-1.436 1.548v.028c1.007.142 1.748.71 1.748 1.705 0 1.804-2.274 2.032-3.623 2.032-.77 0-1.562-.058-1.932-.085v-6.79zm1.178 5.967c.355.043.61.057 1.01.057.838 0 2.088-.198 2.088-1.193 0-.994-.995-1.207-2.188-1.207h-.91v2.344zm.015-3.168h.938c.923 0 1.876-.27 1.876-1.08 0-.682-.597-1.01-1.847-1.01-.413 0-.668.03-.966.058v2.032zM137.367 35.81v2.897c0 1.094-.014 1.775-.072 2.756l.042.014a33.3 33.3 0 0 1 1.11-2.116l2.145-3.55h1.462v6.875h-1.192v-2.912c0-1.123.03-1.705.086-2.813h-.044c-.44.88-.737 1.435-1.137 2.13-.653 1.066-1.405 2.388-2.144 3.596h-1.437V35.81h1.18zM147.68 35.81l.98 1.477c.256.383.47.738.697 1.122h.042c.227-.413.453-.768.682-1.138l.965-1.463h1.35l-2.344 3.323 2.416 3.552h-1.423l-1.008-1.55c-.27-.397-.5-.78-.74-1.192h-.03c-.225.413-.467.78-.723 1.193l-.994 1.55h-1.38l2.443-3.51-2.327-3.367h1.39zM159.697 39.19c0 2.542-1.76 3.65-3.422 3.65-1.86 0-3.297-1.364-3.297-3.537 0-2.3 1.505-3.65 3.41-3.65 1.975 0 3.31 1.434 3.31 3.537zm-5.455.07c0 1.506.867 2.643 2.09 2.643 1.193 0 2.088-1.123 2.088-2.67 0-1.165-.583-2.643-2.06-2.643s-2.118 1.364-2.118 2.67zM166.176 42.428c-.326.17-1.05.398-1.976.398-2.073 0-3.423-1.406-3.423-3.51 0-2.115 1.45-3.65 3.694-3.65.738 0 1.393.186 1.733.356l-.284.965c-.3-.17-.77-.327-1.45-.327-1.576 0-2.43 1.166-2.43 2.6 0 1.592 1.023 2.572 2.387 2.572.71 0 1.18-.185 1.535-.342l.214.938zM172.513 35.81v.993h-2.147v5.882h-1.234v-5.882h-2.147v-.994h5.528zM174.756 35.81v2.897c0 1.094-.014 1.775-.072 2.756l.043.014c.41-.838.654-1.32 1.11-2.116l2.144-3.55h1.464v6.875h-1.193v-2.912c0-1.123.03-1.705.087-2.813h-.043c-.442.88-.74 1.435-1.137 2.13-.655 1.066-1.406 2.388-2.144 3.596h-1.437V35.81h1.18zM182.682 35.81v2.77h3.268v-2.77h1.236v6.875h-1.236v-3.11h-3.268v3.11h-1.234V35.81h1.234zM193.42 35.81v1.008h-2.982v5.867h-1.234V35.81h4.217z"/></g></svg>