<svg xmlns="http://www.w3.org/2000/svg" width="205.315" height="85.909" viewBox="0 0 205.315 85.909"><circle fill="#A3A3A3" cx="42.753" cy="43.156" r="42.753"/><g fill="#FFF"><path d="M22.41 47.513v16.515h-8.187V21.596h10.72c4.533 0 7.88 1.035 10.04 3.104 2.157 2.072 3.236 5.234 3.236 9.492 0 5.36-1.88 9.104-5.632 11.232l8.46 18.604h-8.76L25.33 47.513h-2.92zm0-6.79h2.11c1.926 0 3.31-.528 4.156-1.583.84-1.054 1.262-2.626 1.262-4.716 0-2.166-.445-3.71-1.338-4.628-.895-.92-2.273-1.38-4.14-1.38h-2.05v12.306zM72.122 21.596v27.456c0 5.05-1.186 8.906-3.553 11.565-2.37 2.662-5.794 3.993-10.27 3.993-4.376 0-7.707-1.323-9.995-3.963-2.287-2.642-3.432-6.545-3.432-11.71v-27.34h8.13v27.92c0 5.397 1.855 8.097 5.57 8.097 1.724 0 3.058-.686 4.003-2.06.942-1.374 1.414-3.328 1.414-5.863V21.597h8.132z"/></g><g fill="#5B5B5B"><path d="M98.127 24.363h10.153v44.95H98.127z"/><path d="M86.552 22.152h33.303v10.15H86.552zM123.51 22.332h10.15v44.952h-10.15z"/><path d="M148.04 59.164l10.154 10.152h-34.69V59.164zM180.82 35.23c-1.084-2.917-2.582-5.344-4.49-7.285-1.903-1.938-4.163-3.388-6.78-4.353-2.614-.96-5.45-1.44-8.508-1.44h-19.09v25.715l9.17 8.56V30.893h8.598c2.584 0 4.742.37 6.474 1.11 1.733.74 3.128 1.79 4.185 3.143 1.054 1.355 1.804 2.993 2.243 4.915.44 1.923.662 4.065.662 6.428 0 1.702-.186 3.22-.426 4.583-.784 4.467-3.097 8.018-7.208 8.862-1.346.275-2.67.637-4.09.637h-6l9.098 8.492c2.117-.274 4.068-.77 5.812-1.546 2.693-1.2 4.923-2.864 6.688-4.99 1.764-2.13 3.09-4.653 3.97-7.57.885-2.916 1.324-6.078 1.324-9.485 0-3.91-.544-7.325-1.633-10.243z"/></g><circle fill="#5B5B5B" cx="86.351" cy="43.133" r="6.576"/><path fill="#A3A3A3" d="M79.775 23.36s11.076-15.736 31.38-9.9c12.35-15.988 42.64-20.81 57.865 2.793 15.08-3.554 36.295 5.836 36.295 26.903 0 20.872-24.766 26.157-31.98 26.157 15.59-5.073 30.056-10.15 27.157-28.95-2.283-14.794-14.105-21.572-33.248-20.244-9.05-14.85-34.77-23.41-53.553-2.6-6.597-2.79-21.39-6.09-33.916 7.87-12.528 13.957-1.614-1.03-1.614-1.03l1.615-1z"/></svg>