<svg xmlns="http://www.w3.org/2000/svg" width="223.946" height="45.334" viewBox="0 0 223.946 45.334"><circle fill="#E2E2E2" cx="201.279" cy="22.668" r="22.667"/><path fill="#5B5B5B" d="M197.287 20.257h-3.466v4.876h-2.848l5.54-12.14h-3.85l-5.63 12.47-.05 3.066h6.84v2.52h3.465v-2.52h1.317v-3.397h-1.317zM213.544 14.26c-.997-.933-2.22-1.406-3.638-1.406-1.38 0-2.585.473-3.57 1.394-1.074.95-1.627 2.303-1.643 4.027v7.49c.016 1.71.568 3.06 1.63 4 .995.928 2.198 1.41 3.575 1.425h.014c1.416-.016 2.637-.498 3.63-1.427 1.02-.948 1.554-2.294 1.587-4.012v-7.478c-.034-1.714-.568-3.064-1.586-4.01zm-1.88 4.167v7.177c-.05 1.79-.918 2.04-1.753 2.05-.848-.01-1.72-.258-1.75-2.035v-7.185c.03-1.76.898-2.024 1.746-2.044.844.022 1.71.285 1.757 2.037z"/><circle fill="#5B5B5B" cx="201.307" cy="29.106" r="1.964"/><g fill="#7C7C7C"><path d="M24.602 10.067v25.726h-7.476V21.667L7.502 35.792H0V10.067h7.493v14.23l9.675-14.23h7.434zM29.83 10.067h10.454l4.03 15.653 4.004-15.653h10.447v25.726h-6.51v-19.62l-5.015 19.62h-5.893l-5.007-19.62v19.62h-6.51V10.066zM63.82 10.067H85.12v5.493H71.786v4.088h12.37v5.247h-12.37v5.07h13.722v5.827h-21.69V10.067zM113.427 35.792h-7.95v-9.564c-2.433 1.347-4.743 2.018-6.93 2.018-2.62 0-4.78-.775-6.476-2.325-1.695-1.548-2.543-3.675-2.543-6.377v-9.477h7.948v7.898c0 1.252.3 2.217.896 2.894.598.68 1.457 1.018 2.58 1.018 2.08 0 3.592-.62 4.527-1.86v-9.95h7.95v25.726zM142.08 35.792h-8.95l-3.102-6.644c-.733-1.57-1.305-2.552-1.712-2.945s-.973-.588-1.694-.588v10.177h-7.932V10.067h7.932v9.88c.69-.036 1.23-.28 1.614-.738.386-.457.988-1.768 1.808-3.93.597-1.604 1.2-2.753 1.808-3.448.607-.697 1.598-1.197 2.965-1.5 1.37-.305 3.516-.458 6.44-.458v5.44h-.404c-1.356 0-2.362.257-3.018.772-.655.515-1.193 1.348-1.614 2.5s-.874 2.012-1.36 2.58-1.148 1.02-1.99 1.36a7.036 7.036 0 0 1 3 1.938c.854.92 1.76 2.35 2.72 4.29l3.49 7.038zM143.923 22.947c0-4.2 1.17-7.47 3.51-9.81 2.34-2.338 5.598-3.508 9.773-3.508 4.28 0 7.58 1.15 9.896 3.448 2.316 2.298 3.475 5.518 3.475 9.66 0 3.005-.506 5.47-1.518 7.395-1.013 1.925-2.476 3.423-4.388 4.492-1.913 1.07-4.297 1.606-7.15 1.606-2.9 0-5.303-.46-7.203-1.385-1.902-.924-3.443-2.386-4.625-4.387-1.18-2-1.772-4.504-1.772-7.51zm7.95.035c0 2.598.48 4.463 1.446 5.598s2.277 1.703 3.938 1.703c1.708 0 3.03-.557 3.966-1.668.936-1.11 1.403-3.106 1.403-5.984 0-2.42-.488-4.19-1.465-5.307-.977-1.117-2.302-1.676-3.975-1.676-1.603 0-2.89.568-3.86 1.702s-1.455 3.013-1.455 5.632z"/></g></svg>