<svg xmlns="http://www.w3.org/2000/svg" width="221.542" height="45.334" viewBox="0 0 221.542 45.334"><g fill="#7C7C7C"><path d="M9.332 31.224L4.362 14.58h-.197c.227 1.515.34 2.904.34 4.167v15.478H0V11.158h7.473l4.47 15.128h.143l4.434-15.128h7.58v23.066h-4.612V18.588c0-1.294.083-2.62.25-3.976h-.143l-4.952 16.61h-5.31zM46.696 22.66c0 3.817-.81 6.752-2.432 8.803-1.62 2.052-3.938 3.077-6.954 3.077-3.027 0-5.352-1.022-6.973-3.068-1.62-2.045-2.43-4.994-2.43-8.844 0-3.818.81-6.745 2.43-8.78 1.62-2.035 3.957-3.053 7.01-3.053 3.014 0 5.326 1.023 6.936 3.068 1.61 2.046 2.413 4.98 2.413 8.796zm-13.82 0c0 2.63.377 4.633 1.127 6.01.75 1.38 1.854 2.067 3.308 2.067 2.933 0 4.4-2.692 4.4-8.078 0-5.386-1.456-8.08-4.363-8.08-1.48 0-2.593.687-3.344 2.06-.75 1.373-1.126 3.38-1.126 6.02zM62.41 27.866c0 2.156-.616 3.808-1.85 4.954-1.233 1.146-3.013 1.72-5.336 1.72-2.277 0-4.214-.395-5.81-1.184v-4.244c1.953 1.126 3.747 1.688 5.38 1.688.93 0 1.63-.227 2.1-.68s.707-1.066.707-1.845c0-.768-.28-1.47-.84-2.106-.56-.637-1.483-1.345-2.77-2.123-1.12-.684-1.97-1.338-2.547-1.964s-1.025-1.328-1.34-2.106c-.317-.778-.475-1.683-.475-2.714 0-1.978.622-3.545 1.868-4.702 1.245-1.155 2.916-1.734 5.015-1.734 2.003 0 3.928.495 5.775 1.483l-1.61 3.44a16.378 16.378 0 0 0-1.796-.79 5.758 5.758 0 0 0-2.012-.348c-.787 0-1.392.23-1.814.687-.424.456-.635 1.08-.635 1.868 0 .778.252 1.457.76 2.035.505.58 1.39 1.236 2.653 1.973 1.705 1.01 2.894 2.04 3.567 3.092.674 1.052 1.01 2.25 1.01 3.598zM82.255 22.47c0 3.808-.88 6.718-2.637 8.732-1.76 2.015-4.288 3.02-7.59 3.02h-6.4V11.16h6.99c3.04 0 5.405.99 7.098 2.974 1.692 1.98 2.54 4.762 2.54 8.337zm-4.988.127c0-5.155-1.608-7.732-4.827-7.732h-1.948V30.47h1.573c1.775 0 3.087-.656 3.934-1.966.844-1.31 1.267-3.28 1.267-5.907zM104.048 22.66c0 3.817-.81 6.752-2.432 8.803-1.62 2.052-3.938 3.077-6.954 3.077-3.027 0-5.352-1.022-6.973-3.068-1.62-2.045-2.432-4.994-2.432-8.844 0-3.818.81-6.745 2.43-8.78 1.622-2.035 3.958-3.053 7.01-3.053 3.015 0 5.327 1.023 6.937 3.068 1.608 2.046 2.413 4.98 2.413 8.796zm-13.82 0c0 2.63.377 4.633 1.127 6.01.75 1.38 1.854 2.067 3.308 2.067 2.932 0 4.398-2.692 4.398-8.078 0-5.386-1.454-8.08-4.36-8.08-1.48 0-2.594.687-3.345 2.06-.75 1.373-1.126 3.38-1.126 6.02zM117.188 31.224l-4.97-16.643h-.197c.228 1.515.34 2.904.34 4.167v15.478h-4.504V11.158h7.473l4.47 15.128h.142l4.434-15.128h7.58v23.066h-4.612V18.588c0-1.294.083-2.62.25-3.976h-.143l-4.95 16.61h-5.312zM148.35 34.224h-11.78V11.158h11.78v3.707h-6.92v5.49h6.42v3.724h-6.42v6.39h6.92v3.754zM170.464 34.224h-5.936l-8.08-16.71h-.233c.298 1.275.447 2.64.447 4.104v12.606h-4.505V11.158h5.97l8.01 16.534h.197c-.227-1.104-.34-2.42-.34-3.944v-12.59h4.47v23.066z"/></g><circle fill="#E2E2E2" cx="198.875" cy="22.667" r="22.667"/><g fill="#5B5B5B"><path d="M187.88 24.807v8.007h-4.337V12.238h5.678c2.403 0 4.175.502 5.32 1.506 1.142 1.004 1.712 2.538 1.712 4.602 0 2.6-.994 4.415-2.982 5.446l4.482 9.02h-4.64l-3.685-8.006h-1.546zm0-3.294h1.116c1.02 0 1.754-.255 2.2-.768.448-.51.67-1.273.67-2.286 0-1.052-.235-1.8-.708-2.246-.475-.445-1.205-.668-2.193-.668h-1.084v5.967zM214.207 12.238v13.314c0 2.45-.627 4.32-1.88 5.607-1.255 1.29-3.067 1.935-5.44 1.935-2.317 0-4.08-.64-5.294-1.92-1.21-1.282-1.816-3.174-1.816-5.68V12.238h4.305v13.54c0 2.617.982 3.926 2.95 3.926.913 0 1.62-.333 2.12-1 .5-.666.75-1.614.75-2.842V12.238h4.305z"/></g></svg>