<?xml version="1.0" encoding="utf-8"?>
<!-- Generator: Adobe Illustrator 21.0.0, SVG Export Plug-In . SVG Version: 6.00 Build 0)  -->
<svg version="1.1" baseProfile="basic" id="Слой_1"
	 xmlns="http://www.w3.org/2000/svg" xmlns:xlink="http://www.w3.org/1999/xlink" x="0px" y="0px" width="160px" height="72px"
	 viewBox="0 0 160 72" xml:space="preserve">
<g id="Layer_1">
</g>
<g>
	<path fill="#575655" d="M15,13.5c-2.1,0-4.1,0.5-5.9,1.3C8.7,17,8,20.3,7.5,22.4c1.8-2.2,4.5-3.6,7.4-3.6c5.5,0,10,4.8,10,10.7
		c0,5.9-4.5,10.7-10,10.7c-5.5,0-10-4.8-10-10.7C5,28.3,5.3,0,5.3,0H0v29.3l0,1.1c0.4,8.5,6.9,15.2,15,15.2c8.3,0,15-7.2,15-16
		C30,20.7,23.3,13.5,15,13.5z"/>
	<path fill="#575655" d="M50.1,13.5c-8.3,0-15,7.2-15,16s6.7,16,15,16c5,0,9.4-2.6,12.1-6.6l-4.4-2.7c-1.8,2.4-4.6,4-7.8,4
		c-4.7,0-8.7-3.5-9.7-8.2h24.7v-2.4C65.1,20.7,58.4,13.5,50.1,13.5z M40.4,27c1.1-4.7,5-8.1,9.7-8.1c4.7,0,8.6,3.5,9.7,8.1H40.4z"/>
	<path fill="#575655" d="M120.4,13.5c-8.3,0-15,7.2-15,16s6.7,16,15,16c5,0,9.4-2.6,12.1-6.6l-4.4-2.7c-1.8,2.4-4.6,4-7.8,4
		c-4.7,0-8.7-3.5-9.7-8.2h24.7v-2.4C135.3,20.7,128.6,13.5,120.4,13.5z M110.7,27c1.1-4.7,5-8.1,9.7-8.1s8.6,3.5,9.7,8.1H110.7z"/>
	<path fill="#9F9F9F" d="M101.4,29.5c0-8.8-7.1-15.9-15.9-15.9c-8.8,0-15.9,7.1-15.9,15.9c0,8.6,6.9,15.6,15.4,15.9c0,0,0,0,0,0
		c0,0,0.1,0,0.1,0c0.1,0,0.3,0,0.4,0c0.1,0,0.2,0,0.4,0c5.7,0.2,10.3,4.9,10.3,10.7c0,5.9-4.8,10.7-10.7,10.7
		c-5.9,0-10.7-4.8-10.7-10.7c0-1.4,0.3-2.8,0.8-4l2,1.6l-1.3-7.2l-7.6,1.9l2.4,1c0,0,0,0,0,0.1c-0.9,2-1.5,4.2-1.5,6.6
		c0,8.8,7.1,15.9,15.9,15.9c8.8,0,15.9-7.1,15.9-15.9c0-5.6-2.8-10.5-7.2-13.3C98.6,40,101.4,35.1,101.4,29.5z M85.5,40.2
		c-5.9,0-10.7-4.8-10.7-10.7c0-5.9,4.8-10.7,10.7-10.7c5.9,0,10.7,4.8,10.7,10.7C96.2,35.4,91.4,40.2,85.5,40.2z"/>
	<path fill="#575655" d="M157,37.8c-0.5,1.5-2.6,2.8-5.7,2.8c-3.1,0-5.6-2-5.7-4h0V19.5h9.3v-5h-9.3V6.1h-5v31.1h0
		c0.3,4.1,4.8,8.2,10.4,8.2c3.3,0,6.2-1,8.1-2.6L157,37.8z"/>
</g>
</svg>
