<svg xmlns="http://www.w3.org/2000/svg" width="215" height="43.5" viewBox="0 0 215 43.5"><g fill="#9F9F9F"><path d="M11.5 37.5C5.16 37.5 0 32.34 0 26a4 4 0 0 1 8 0c0 1.93 1.57 3.5 3.5 3.5S15 27.93 15 26V4a4 4 0 0 1 8 0v22c0 6.34-5.16 11.5-11.5 11.5zM122.5 43.5c-6.34 0-11.5-5.16-11.5-11.5V21a4 4 0 0 1 8 0v11c0 1.93 1.57 3.5 3.5 3.5a4 4 0 0 1 0 8zM36.5 37a4 4 0 0 1-3.75-2.604A4 4 0 0 1 25 33V4a4 4 0 0 1 4-4h7.5C46.7 0 55 8.3 55 18.5S46.7 37 36.5 37zM33 8v23.062A4 4 0 0 1 36.5 29C42.29 29 47 24.29 47 18.5S42.29 8 36.5 8H33zM69 32c-7.168 0-13-5.832-13-13S61.832 6 69 6s13 5.832 13 13-5.832 13-13 13zm0-18c-2.757 0-5 2.243-5 5s2.243 5 5 5 5-2.243 5-5-2.243-5-5-5zM101 33a4 4 0 0 1-4-4V17c0-1.654-1.346-3-3-3s-3 1.346-3 3v12a4 4 0 0 1-8 0V17c0-6.065 4.934-11 11-11 6.065 0 11 4.935 11 11v12a4 4 0 0 1-4 4z"/><path d="M115 33a4 4 0 0 1-4-4V17c0-1.654-1.346-3-3-3s-3 1.346-3 3v12a4 4 0 0 1-8 0V17c0-6.065 4.934-11 11-11 6.065 0 11 4.935 11 11v12a4 4 0 0 1-4 4zM170.5 43.5c-6.34 0-11.5-5.16-11.5-11.5V21a4 4 0 0 1 8 0v11c0 1.93 1.57 3.5 3.5 3.5a4 4 0 0 1 0 8z"/><path d="M163 33a4 4 0 0 1-4-4V17c0-1.654-1.346-3-3-3s-3 1.346-3 3v12a4 4 0 0 1-8 0V17c0-6.065 4.934-11 11-11 6.065 0 11 4.935 11 11v12a4 4 0 0 1-4 4zM181 33a4 4 0 0 1-4-4V17c0-6.065 4.934-11 11-11a4 4 0 0 1 0 8c-1.654 0-3 1.346-3 3v12a4 4 0 0 1-4 4zM204 33c-6.066 0-11-4.934-11-11V10a4 4 0 0 1 8 0v12c0 1.654 1.346 3 3 3s3-1.346 3-3V10a4 4 0 0 1 8 0v12c0 6.066-4.935 11-11 11zM139.473 33h-5.223c-7.598 0-13.778-6.18-13.778-13.777 0-7.598 6.18-13.78 13.778-13.78h1.222c5.804 0 7.615 3.154 8.124 4.51 2.086 5.553-4.368 11.2-6.49 13.058a4 4 0 0 1-5.267-6.02c1.793-1.57 2.82-2.742 3.407-3.545h-.997a5.784 5.784 0 0 0-5.778 5.78A5.784 5.784 0 0 0 134.25 25h5.223a4 4 0 1 1 0 8z"/></g><circle fill="#575655" cx="172" cy="29.5" r="4"/></svg>