<svg xmlns="http://www.w3.org/2000/svg" width="213.868" height="44.799" viewBox="0 0 213.868 44.799"><g fill="#7C7C7C"><path d="M84.28 22.084c0 2.85-1.833 4.556-2.85 4.556-1.4 0-.18-1.222-2.495-1.222h-8.4c-.457 0-1.475.05-1.475-.66 0-.408-.052-.408 1.856-2.216 1.298-1.222 4.38-4.403 4.38-6.21 0-.89-.535-1.45-1.427-1.45-1.553 0-1.86 1.476-3.03 1.476-.738 0-1.654-.712-1.654-1.476 0-2.24 4.786-4.455 7.916-4.455 4.302 0 6.083 1.986 6.083 3.996 0 3.258-4.275 5.345-4.275 6.388 0 .586.61.892 1.12.892 1.807 0 2.265-1.527 3.103-1.527.943 0 1.147 1.17 1.147 1.91zM98.53 19.564c0 .738-.078 1.018.736 1.018.892 0 .968.077.968 1.043v2.037c0 .584.025 1.017-.688 1.095-.79.076-.714.152-.714 1.5 0 1.146.23 1.63-1.067 1.63H93.92c-1.222 0-1.068-.205-1.068-1.528 0-1.3.128-1.656-1.246-1.656H87.15c-1.35 0-1.985-.203-1.985-1.68 0-1.883.333-2.443 2.598-5.192l5.88-6.77c1.043-.993 2.214-1.63 3.69-1.63 1.17 0 1.196.79 1.196 1.706v8.426zm-7.305 1.375c1.756 0 1.78.05 1.78-1.605 0-1.094.383-3.614-.61-3.538-.51.05-.865.382-1.146.79-.458.635-2.7 2.977-2.673 3.792.025.635 1.477.56 1.858.56h.79zM106.108 21.143c-.61 0-1.247-.204-1.86-.204-2.212 0-2.366.1-2.594.1a.75.75 0 0 1-.764-.762c0-.637.79-2.698 1.018-3.157.33-.635.637-.915 1.375-.915.61 0 1.246.204 1.857.204 2.215 0 2.367-.103 2.597-.103a.75.75 0 0 1 .763.764c0 .636-.788 2.7-1.018 3.158-.332.634-.635.915-1.374.915zM110.483 17.705c0-2.493-1.577-1.093-1.577-2.646 0-2.01 5.956-2.572 6.185-2.572.97 0 .994.256 1.096 1.12.025.307 0 .892.43.892.613 0 .995-2.01 3.184-2.01 1.706 0 2.826 1.273 2.826 2.953 0 1.706-1.45 3.054-3.13 3.054-1.655 0-2.113-1.45-2.775-1.45-.712 0-.585 1.704-.585 2.163 0 .764.077 1.833.204 2.8.152 1.12 2.086.432 2.086 1.96 0 1.603-2.24 1.73-5.04 1.73-1.17 0-4.632.05-4.632-1.705 0-1.07 1.17-1.07 1.45-1.96.205-.636.28-2.087.28-2.8v-1.53zM129.518 19.564c-.28 0-.686-.076-.686.357 0 1.273 1.653 2.342 2.85 2.342 1.908 0 2.85-1.146 3.385-1.146.533 0 .993.79.993 1.273 0 1.96-3.59 3.384-5.88 3.384-4.58 0-6.948-3.31-6.948-6.593 0-3.92 3.333-6.77 7.15-6.77 4.328 0 6.237 3.334 6.237 5.244 0 1.68-.765 1.908-1.58 1.908h-5.522zm2.214-3.207c0-.916-.56-1.628-1.502-1.628-.84 0-1.527.864-1.527 1.678 0 .916.866.712 1.527.712.687 0 1.502.153 1.502-.763zM143.815 30.585c-4.707 0-6.488-1.78-6.488-3.41 0-1.478 1.4-1.502 1.4-1.885 0-.33-1.375-1.043-1.375-2.163 0-1.807 2.062-2.34 2.062-2.697 0-.306-1.73-1.477-1.73-3.36 0-3.08 3.843-4.504 6.414-4.504 1.298 0 3.053.484 3.944.484 1.935 0 2.9-1.35 3.283-1.35.586 0 .84.764.84 1.248 0 1.425-1.425 2.443-1.425 2.723 0 .255.075.536.075.79 0 3.436-3.996 4.607-6.795 4.607-.433 0-.865-.077-1.323-.077-.434 0-.688.28-.688.688 0 .79 1.12.94 1.704.94.788 0 3.742-.432 4.76-.432 2.647 0 3.768 1.502 3.768 3.03 0 2.29-2.19 5.37-8.427 5.37zm.256-2.19c.842 0 2.75-.126 2.75-1.296 0-.536-.51-.766-.992-.766-.383 0-1.376.153-2.19.153-.584 0-1.958-.203-2.238-.203-.23 0-.306.228-.306.407 0 1.35 1.985 1.706 2.977 1.706zm.155-13.972c-.993 0-1.426.942-1.426 1.833 0 .967.254 3.08 1.552 3.08 1.146 0 1.527-.993 1.527-1.984 0-1.046-.232-2.93-1.655-2.93zM156.412 25.775a3.075 3.075 0 0 1-3.08-3.08 3.074 3.074 0 0 1 3.08-3.08 3.073 3.073 0 0 1 3.08 3.08 3.075 3.075 0 0 1-3.08 3.08zM162.416 17.705c0-2.493-1.578-1.093-1.578-2.646 0-2.01 5.956-2.572 6.185-2.572.968 0 .993.256 1.094 1.12.026.307 0 .892.434.892.61 0 .993-2.01 3.183-2.01 1.705 0 2.825 1.273 2.825 2.953 0 1.706-1.45 3.054-3.13 3.054-1.655 0-2.114-1.45-2.776-1.45-.712 0-.584 1.704-.584 2.163 0 .764.076 1.833.204 2.8.152 1.12 2.086.432 2.086 1.96 0 1.603-2.24 1.73-5.04 1.73-1.17 0-4.63.05-4.63-1.705 0-1.07 1.17-1.07 1.45-1.96.203-.636.28-2.087.28-2.8v-1.53zM182.926 19.92c0 1.02.075 2.596 1.45 2.596 1.833 0 1.578-2.392 1.578-3.614 0-.84.025-1.935-.102-2.75-.204-1.27-1.453-.84-1.453-1.908 0-1.5 5.117-1.757 6.083-1.757.916 0 1.3.536 1.3 1.427 0 .814-.052 1.603-.052 2.417v5.118c0 1.527 1.4.814 1.4 2.036 0 1.73-4.504 2.214-5.904 2.214-1.96 0-.662-1.527-1.68-1.527-.28 0-.687.383-1.298.765-.61.382-1.425.763-2.545.763-4.837 0-4.43-3.816-4.43-7.635 0-3.894-1.754-2.19-1.754-3.87 0-1.627 6.41-1.705 6.614-1.705.714 0 .79.332.79.967v6.466z"/></g><g fill="#848484"><path d="M68.492 34.514c.47-.08 1.13-.14 2.062-.14.94 0 1.61.18 2.062.54.43.34.72.902.72 1.562s-.22 1.222-.62 1.602c-.52.49-1.29.71-2.19.71-.2 0-.38-.01-.522-.03v2.413h-1.51v-6.656zm1.51 3.063c.13.03.29.04.512.04.81 0 1.312-.41 1.312-1.102 0-.62-.43-.99-1.192-.99-.31 0-.52.03-.63.06v1.992zM75.18 39.21c.05.63.67.93 1.382.93.52 0 .94-.07 1.352-.2l.2 1.03c-.5.202-1.112.302-1.77.302-1.663 0-2.614-.96-2.614-2.493 0-1.242.77-2.614 2.472-2.614 1.583 0 2.182 1.23 2.182 2.443 0 .26-.03.49-.05.6H75.18zm1.792-1.043c0-.37-.16-.99-.86-.99-.642 0-.9.58-.942.99h1.802zM82.71 36.275v1.182h-1.902v3.714h-1.52v-4.895h3.42zM84.843 36.275v1.502c0 .78-.04 1.33-.08 1.992l.04.01c.23-.56.36-.942.56-1.402l.952-2.103h1.86v4.896h-1.44v-1.49c0-.762.04-1.08.09-2.123h-.04c-.19.542-.31.86-.51 1.32-.312.682-.68 1.533-1.02 2.294H83.4v-4.895h1.443zM93.062 41.05c-.27.12-.78.22-1.362.22-1.58 0-2.592-.96-2.592-2.5 0-1.432.98-2.605 2.803-2.605.4 0 .842.07 1.162.19l-.24 1.13c-.18-.08-.45-.148-.852-.148-.8 0-1.32.57-1.312 1.37 0 .902.602 1.372 1.343 1.372.36 0 .64-.06.87-.15l.182 1.12zM97.928 36.275v1.162h-1.42v3.734h-1.533v-3.733h-1.42v-1.162h4.373zM98.61 37.917c0-.64-.02-1.19-.04-1.642h1.32l.07.68h.022c.36-.52.92-.79 1.63-.79 1.07 0 2.033.932 2.033 2.493 0 1.78-1.13 2.622-2.222 2.622-.59 0-1.052-.24-1.272-.56h-.02v2.432h-1.52v-5.235zm1.52 1.15c0 .12.013.23.032.32.1.41.45.722.89.722.662 0 1.05-.552 1.05-1.38 0-.782-.35-1.374-1.028-1.374-.43 0-.812.32-.91.77-.02.08-.032.18-.032.27v.672zM107.41 41.17l-.09-.49h-.03c-.32.39-.82.6-1.4.6-.99 0-1.582-.72-1.582-1.5 0-1.27 1.14-1.88 2.872-1.87v-.072c0-.26-.14-.63-.89-.63a2.76 2.76 0 0 0-1.352.37l-.28-.98c.34-.19 1.01-.432 1.902-.432 1.63 0 2.15.962 2.15 2.112v1.702c0 .47.022.92.07 1.19h-1.37zm-.18-2.31c-.8-.012-1.42.178-1.42.77 0 .39.26.58.6.58.38 0 .69-.25.79-.56.02-.08.03-.17.03-.262v-.53zM111.427 36.275v3.734h1.52v-3.735h1.522V40.1l.54.02-.07 2.633h-1.142l-.05-1.58h-3.844v-4.897h1.523zM117.244 36.275v1.502c0 .78-.04 1.33-.08 1.992l.04.01c.23-.56.36-.942.56-1.402l.95-2.103h1.863v4.896h-1.44v-1.49c0-.762.04-1.08.09-2.123h-.04c-.19.542-.31.86-.51 1.32-.312.682-.682 1.533-1.022 2.294h-1.853v-4.895h1.442zM126.113 41.17h-1.5v-1.84h-.312c-.318 0-.55.15-.7.35-.26.25-.38.71-.53 1.09-.06.14-.11.24-.19.4h-1.62c.12-.15.21-.34.302-.54.158-.39.38-1.02.688-1.352.162-.17.362-.3.622-.36v-.03c-.552-.06-1.26-.43-1.26-1.21 0-.61.337-.962.83-1.192.45-.22 1.13-.29 1.8-.29.762 0 1.442.05 1.872.11v4.865zm-1.5-3.993a3.03 3.03 0 0 0-.52-.04c-.492 0-.912.19-.912.63 0 .43.48.64.932.64.24 0 .37-.01.5-.01v-1.22zM133.903 36.275V40.1l.542.02-.07 2.633h-1.143l-.05-1.58h-3.092l-.062 1.58h-1.15l-.04-2.623.452-.03c.21-.31.378-.66.49-1.02.14-.512.22-1.06.22-1.603v-1.2h3.903zm-2.58 1.682c0 .41-.07.852-.182 1.272-.07.28-.19.58-.34.83h1.622v-2.673h-1.1v.57zM140.062 38.668c0 1.792-1.27 2.612-2.582 2.612-1.432 0-2.533-.94-2.533-2.522 0-1.58 1.04-2.593 2.614-2.593 1.502 0 2.502 1.03 2.502 2.503zm-3.54.05c0 .84.347 1.472 1 1.472.59 0 .97-.59.97-1.472 0-.73-.28-1.472-.97-1.472-.733 0-1 .75-1 1.472zM141.146 36.275h1.94l.53 1.852c.08.29.222.79.32 1.232h.03c.09-.342.25-.873.392-1.342l.54-1.743h1.922l.3 4.896h-1.41l-.08-1.96c-.01-.42-.04-1.133-.05-1.713h-.03c-.19.65-.22.81-.47 1.602l-.65 1.99h-1.112l-.58-1.94c-.13-.472-.29-1.163-.4-1.622h-.04c-.02.61-.03 1.3-.05 1.71l-.083 1.933h-1.36l.34-4.895zM149.297 39.21c.05.63.67.93 1.38.93.52 0 .942-.07 1.353-.2l.2 1.03c-.5.202-1.113.302-1.772.302-1.66 0-2.612-.96-2.612-2.493 0-1.242.77-2.614 2.47-2.614 1.584 0 2.186 1.23 2.186 2.443 0 .26-.03.49-.052.6h-3.153zm1.79-1.043c0-.37-.16-.99-.86-.99-.64 0-.9.58-.94.99h1.8zM154.923 36.275v1.772h1.542v-1.772h1.53v4.896h-1.53v-1.94h-1.542v1.94H153.4v-4.895h1.523zM164.044 38.668c0 1.792-1.27 2.612-2.583 2.612-1.43 0-2.53-.94-2.53-2.522 0-1.58 1.04-2.593 2.61-2.593 1.503 0 2.504 1.03 2.504 2.503zm-3.544.05c0 .84.35 1.472 1 1.472.592 0 .973-.59.973-1.472 0-.73-.28-1.472-.972-1.472-.73 0-1 .75-1 1.472zM164.977 36.326c.37-.05 1.21-.12 1.972-.12.83 0 2.422.09 2.422 1.25 0 .63-.51.962-1 1.063v.02c.728.12 1.21.53 1.21 1.19 0 1.392-1.892 1.51-2.893 1.51-.682 0-1.403-.048-1.713-.088v-4.826zm1.49 3.974c.16.02.28.02.512.02.52 0 1.04-.15 1.04-.63 0-.42-.4-.62-1.11-.62h-.443v1.23zm.012-2.112h.388c.61 0 1-.16 1-.53 0-.32-.258-.52-.87-.52-.21 0-.35.02-.52.04v1.01zM174.848 38.037v1.012h-2.62v-1.013h2.62zM181.386 41.17l-.61-1.22c-.25-.47-.41-.82-.6-1.212h-.02c-.14.392-.31.74-.522 1.21l-.56 1.223h-1.74l1.95-3.412-1.88-3.334h1.75l.59 1.232c.2.41.352.74.512 1.12h.02c.16-.43.29-.73.46-1.12l.57-1.232h1.743l-1.903 3.294 2.002 3.453h-1.764zM188.516 38.668c0 1.792-1.27 2.612-2.582 2.612-1.433 0-2.534-.94-2.534-2.522 0-1.58 1.042-2.593 2.614-2.593 1.5 0 2.502 1.03 2.502 2.503zm-3.543.05c0 .84.35 1.472 1 1.472.59 0 .972-.59.972-1.472 0-.73-.28-1.472-.972-1.472-.73 0-1 .75-1 1.472zM193.13 41.05c-.27.12-.778.22-1.36.22-1.58 0-2.592-.96-2.592-2.5 0-1.432.98-2.605 2.803-2.605.4 0 .842.07 1.162.19l-.242 1.13c-.178-.08-.448-.148-.85-.148-.8 0-1.32.57-1.31 1.37 0 .902.6 1.372 1.342 1.372.36 0 .64-.06.87-.15l.18 1.12zM197.998 36.275v1.162h-1.42v3.734h-1.533v-3.733h-1.42v-1.162h4.373zM200.11 36.275v1.502c0 .78-.04 1.33-.08 1.992l.04.01c.23-.56.36-.942.56-1.402l.954-2.103h1.86v4.896h-1.44v-1.49c0-.762.04-1.08.09-2.123h-.04c-.19.542-.31.86-.51 1.32-.312.682-.682 1.533-1.022 2.294h-1.853v-4.895h1.44zM206.17 36.275v1.772h1.54v-1.772h1.532v4.896h-1.53v-1.94h-1.543v1.94h-1.522v-4.895h1.52zM213.868 36.275v1.182h-1.902v3.714h-1.52v-4.895h3.422z"/></g><g fill="#9F9F9F"><path d="M46.165 11l-4.624 3.536-.04-.036L19.332 0 0 28l4.665 4.333 3-5.166 6 14.004 5.167-.337-7.332-19L21.165 8.5l15.546 9.73-10.378 7.937L29.165 30l3.167-1.667s1.333 10.334 1.333 11c0 .667 2.835 0 2.835 0l-1-13.248L46 18.667 53.832 27l-2.5 13.333 3.168.838L57 29.334l3.5 4 3.165-4.166L46.165 11z"/><path d="M37.332 40.304c13.55 0 26.04 1.675 36.07 4.495-9.39-3.796-22.084-6.133-36.07-6.133S10.65 41.003 1.262 44.8c10.03-2.82 22.52-4.496 36.07-4.496z"/></g></svg>