<svg xmlns="http://www.w3.org/2000/svg" width="216.725" height="45.333" viewBox="0 0 216.725 45.333"><path fill="#7C7C7C" d="M0 6.1h12.045v5.56h-4.82v5.268h4.512v5.286H7.224v6.107h5.302v5.56H0V6.1zM20.59 19.93h-6.503v-1.527c0-1.76.203-3.12.61-4.075.404-.954 1.22-1.798 2.443-2.53 1.224-.732 2.814-1.098 4.77-1.098 2.346 0 4.112.415 5.303 1.244 1.19.83 1.904 1.847 2.145 3.055.24 1.206.36 3.69.36 7.454V33.88h-6.743v-2.027c-.424.813-.97 1.424-1.64 1.83-.668.408-1.466.61-2.393.61a5.858 5.858 0 0 1-3.337-1.02c-1.013-.68-1.52-2.17-1.52-4.47V26.93c0-1.704.27-2.865.808-3.483.537-.618 1.87-1.338 3.997-2.162 2.276-.893 3.495-1.493 3.655-1.802.16-.31.24-.938.24-1.888 0-1.19-.09-1.963-.267-2.325-.177-.36-.472-.54-.883-.54-.47 0-.762.15-.876.454-.115.303-.173 1.09-.173 2.36v2.386zm2.196 3.122c-1.11.812-1.753 1.493-1.93 2.042-.18.55-.268 1.34-.268 2.37 0 1.178.078 1.938.232 2.28s.46.516.918.516c.434 0 .717-.135.85-.403.13-.27.197-.975.197-2.12v-4.685zM46.257 18.386h-6.142V17.15c0-1.052-.06-1.72-.18-2s-.42-.42-.9-.42c-.39 0-.682.13-.876.387-.195.257-.293.643-.293 1.158 0 .698.05 1.21.146 1.535.097.325.39.684.875 1.072.486.39 1.483.955 2.994 1.7 2.013.983 3.334 1.91 3.963 2.778.63.87.944 2.135.944 3.792 0 1.854-.24 3.252-.722 4.197-.48.942-1.284 1.668-2.41 2.177s-2.486.764-4.076.764c-1.76 0-3.27-.274-4.52-.823-1.254-.55-2.114-1.293-2.583-2.23-.47-.94-.705-2.357-.705-4.256v-1.097h6.143v1.44c0 1.225.077 2.02.23 2.385.156.367.462.55.92.55.49 0 .834-.123 1.03-.37.192-.245.29-.763.29-1.552 0-1.086-.126-1.768-.377-2.042-.263-.274-1.606-1.086-4.03-2.437-2.037-1.144-3.278-2.182-3.725-3.113-.447-.934-.67-2.04-.67-3.32 0-1.82.24-3.16.722-4.024s1.295-1.53 2.445-2 2.484-.703 4.006-.703c1.51 0 2.794.192 3.853.575 1.06.383 1.87.89 2.437 1.518.566.63.91 1.214 1.03 1.75.12.54.18 1.38.18 2.523v1.323zM63.154 11.11l-1.98 16.474c-.313 2.607-.576 4.385-.788 5.334-.213.95-.563 1.733-1.055 2.35-.49.618-1.175 1.074-2.05 1.365-.875.292-2.272.438-4.194.438h-4.203v-3.637c1.077 0 1.77-.055 2.08-.163.31-.11.464-.353.464-.73 0-.182-.144-.978-.43-2.385L47.2 11.11h6.293l2.278 15.374 1.112-15.374h6.272zM64.6 6.1h5.404c3.49 0 5.85.16 7.078.48 1.23.32 2.164.847 2.806 1.58.64.73 1.04 1.546 1.2 2.444.16.898.24 2.663.24 5.293v9.73c0 2.493-.118 4.16-.35 5-.236.84-.646 1.5-1.23 1.973s-1.303.807-2.16.995c-.858.19-2.15.283-3.88.283H64.6V6.1zm7.223 4.754v18.272c1.04 0 1.682-.21 1.922-.626.24-.417.36-1.553.36-3.406V14.302c0-1.258-.04-2.065-.12-2.42-.08-.354-.264-.614-.55-.78s-.823-.248-1.612-.248zM99.5 19.107v5.576c0 2.048-.104 3.55-.31 4.504-.205.955-.646 1.848-1.32 2.676-.676.83-1.542 1.442-2.6 1.836-1.06.394-2.273.59-3.646.59-1.532 0-2.832-.17-3.895-.505-1.064-.338-1.892-.847-2.48-1.527s-1.01-1.504-1.26-2.47c-.253-.967-.38-2.416-.38-4.35v-5.834c0-2.117.23-3.77.688-4.96.457-1.188 1.28-2.144 2.47-2.864s2.712-1.08 4.565-1.08c1.555 0 2.89.23 4.006.693 1.114.463 1.975 1.067 2.58 1.81.606.744 1.022 1.51 1.245 2.3.224.79.335 1.99.335 3.604zm-6.932-1.716c0-1.166-.063-1.9-.19-2.205-.125-.302-.394-.455-.805-.455-.412 0-.687.152-.824.455-.138.303-.207 1.038-.207 2.206v10.277c0 1.076.07 1.776.206 2.103.137.326.405.49.806.49.412 0 .684-.15.815-.448.132-.297.198-.937.198-1.92v-10.5zM108.627 11.11l-.12 2.167c.538-.86 1.18-1.504 1.922-1.934.743-.43 1.59-.644 2.54-.644 1.852 0 3.31.86 4.373 2.577.584-.86 1.242-1.504 1.974-1.934a4.73 4.73 0 0 1 2.437-.644c1.18 0 2.153.285 2.926.857.772.572 1.267 1.272 1.484 2.1.217.83.326 2.178.326 4.042v16.18h-6.727V19.037c0-1.945-.065-3.148-.197-3.612s-.438-.695-.918-.695c-.492 0-.81.23-.952.688-.144.458-.215 1.664-.215 3.62V33.88h-6.725V19.416c0-2.23-.055-3.57-.163-4.015-.108-.446-.41-.67-.9-.67-.31 0-.572.12-.79.353a1.354 1.354 0 0 0-.36.858c-.022.338-.034 1.057-.034 2.155V33.88h-6.726V11.11h6.845zM144.573 22.9H135.6v4.923c0 1.03.073 1.692.224 1.99.148.297.434.446.857.446.527 0 .88-.198 1.057-.593.177-.395.266-1.16.266-2.29v-3.003h6.57v1.68c0 1.41-.087 2.49-.265 3.244-.178.755-.592 1.562-1.244 2.42-.65.857-1.48 1.5-2.48 1.93-1 .43-2.255.644-3.765.644-1.466 0-2.758-.212-3.88-.636-1.12-.422-1.992-1.003-2.616-1.74a6.317 6.317 0 0 1-1.295-2.437c-.24-.888-.36-2.178-.36-3.87v-6.64c0-1.99.268-3.562.806-4.71.537-1.15 1.42-2.03 2.643-2.644 1.223-.61 2.63-.917 4.22-.917 1.944 0 3.55.368 4.812 1.106 1.264.737 2.15 1.715 2.66 2.934.51 1.22.763 2.93.763 5.14v3.02zm-6.95-3.708v-1.664c0-1.178-.06-1.938-.187-2.282-.126-.344-.383-.515-.77-.515-.48 0-.78.147-.894.44-.114.29-.172 1.077-.172 2.358v1.664h2.024zM153.89 11.11l-.12 2.1c.505-.837 1.12-1.465 1.846-1.883.726-.418 1.564-.627 2.514-.627 1.19 0 2.162.28 2.917.84.755.56 1.24 1.268 1.458 2.12.218.853.326 2.273.326 4.264V33.88h-6.93V18.11c0-1.566-.053-2.52-.156-2.864-.103-.344-.39-.515-.857-.515-.492 0-.8.198-.926.593-.126.395-.188 1.45-.188 3.166v15.39h-6.932V11.11h7.05z"/><circle fill="#E2E2E2" cx="194.058" cy="22.667" r="22.667"/><path fill="#5B5B5B" d="M190.065 20.255H186.6v4.878h-2.85l5.54-12.14h-3.85l-5.63 12.47-.05 3.066h6.84v2.52h3.465v-2.52h1.317v-3.397h-1.317zM206.322 14.26c-.997-.933-2.22-1.406-3.638-1.406-1.38 0-2.585.472-3.57 1.394-1.074.95-1.627 2.302-1.643 4.027v7.488c.017 1.713.57 3.062 1.632 4 .994.93 2.197 1.41 3.574 1.426h.014c1.416-.018 2.637-.498 3.63-1.43 1.02-.946 1.554-2.293 1.587-4.01v-7.48c-.033-1.714-.566-3.063-1.585-4.01zm-1.88 4.166v7.178c-.05 1.79-.918 2.04-1.753 2.048-.85-.01-1.72-.258-1.752-2.034v-7.183c.03-1.762.898-2.024 1.746-2.044.844.022 1.71.284 1.757 2.036z"/><circle fill="#5B5B5B" cx="194.085" cy="29.106" r="1.964"/></svg>