<svg width="200" height="18" viewBox="0 0 200 18" xmlns="http://www.w3.org/2000/svg"><title>REG_Panel_illus-12</title><g fill="none" fill-rule="evenodd"><g fill="#7C7C7C"><path d="M8.03 17.607c-.094-.725-.302-1.492-.81-3.066L5.485 9.03a98.09 98.09 0 0 0-.64-2.195c-.21-.746-.21-.746-.303-1.035.114 1.304.188 3.003.188 4.1v4.496c0 1.43.04 2.34.152 3.21H1.17c.112-.93.15-1.8.15-3.21V3.604c0-1.242-.057-2.34-.15-3.232h4.976c.132.89.28 1.554.716 2.92l2.827 8.93 2.81-8.93c.432-1.387.583-2.05.696-2.92h4.995c-.112.995-.15 1.844-.15 3.232v10.792c0 1.575.038 2.382.15 3.21H14.48c.114-.952.15-1.74.15-3.21V9.88c0-.496.057-2.05.095-2.692.057-1.1.057-1.1.075-1.41-.414 1.617-.603 2.362-.848 3.108l-1.828 5.676c-.472 1.47-.717 2.38-.81 3.045H8.03zM29.56 8.844c.546.89.904 1.554 1.357 2.466a37.757 37.757 0 0 1-.113-3.066V3.52c0-1.365-.038-2.194-.15-3.148h4.015c-.115.933-.152 1.803-.152 3.15V14.52c0 1.264.057 2.217.15 3.087H30.54c-.34-.788-.773-1.554-1.414-2.63l-3.487-5.78c-.51-.83-.83-1.45-1.36-2.548.096.93.134 2.07.134 3.085v4.64c0 1.43.038 2.34.15 3.23H20.55c.112-.807.15-1.718.15-3.25V3.458c0-1.202-.038-2.134-.15-3.088h4.09c.19.56.604 1.388 1.338 2.59l3.582 5.882zM51.767 8.906c0 5.47-3.035 9.094-7.616 9.094-4.617 0-7.596-3.542-7.596-9.03 0-5.47 2.98-8.97 7.616-8.97 4.637 0 7.597 3.48 7.597 8.906zm-3.92.043c0-3.357-1.395-5.388-3.677-5.388-2.3 0-3.714 2.052-3.714 5.387 0 3.375 1.414 5.466 3.714 5.466 2.282 0 3.676-2.07 3.676-5.467zM67.396 7.768c-.83.083-1.527.104-2.49.104H63.61v3.438h.09v2.362c-.924.518-1.734.745-2.733.745-1.187 0-2.11-.393-2.714-1.118-.754-.912-1.15-2.403-1.15-4.33 0-3.48 1.32-5.407 3.732-5.407.792 0 1.415.207 1.905.642.414.353.64.746.848 1.492l3.845-.974c-.302-.994-.603-1.615-1.112-2.258C65.078.807 63.287 0 60.93 0c-4.75 0-7.748 3.46-7.748 8.906 0 2.84.792 5.303 2.224 6.878 1.34 1.49 3.205 2.216 5.6 2.216 1.394 0 2.77-.25 3.996-.704.848-.31 1.357-.58 2.394-1.305-.113-.952-.132-1.615-.132-3.085v-2.32c0-1.347.037-2.03.132-2.817zM84.25 8.906c0 5.47-3.036 9.094-7.617 9.094-4.618 0-7.597-3.542-7.597-9.03 0-5.47 2.98-8.97 7.616-8.97 4.637 0 7.597 3.48 7.597 8.906zm-3.922.043c0-3.357-1.395-5.388-3.676-5.388-2.3 0-3.714 2.052-3.714 5.387 0 3.375 1.414 5.466 3.714 5.466 2.28 0 3.676-2.07 3.676-5.467zM86.304 3.366c0-1.41-.037-2.093-.17-3.045.755.042 1.226.063 2.79.063h3.94c2.32 0 4.186.705 5.448 2.05 1.377 1.492 2.075 3.667 2.075 6.422 0 2.84-.754 5.117-2.187 6.69-1.263 1.367-3.054 2.072-5.297 2.072h-3.977c-1.452 0-1.98.02-2.772.063.114-.912.15-1.596.15-3.025V3.365zm6.26 10.626c1.225 0 2.092-.352 2.77-1.098.773-.87 1.188-2.258 1.188-3.977 0-1.76-.358-3.046-1.093-3.853-.66-.726-1.566-1.057-2.923-1.057h-2.47v9.985h2.526zM117.013 8.906c0 5.47-3.034 9.094-7.615 9.094-4.62 0-7.597-3.542-7.597-9.03 0-5.47 2.98-8.97 7.616-8.97 4.637 0 7.597 3.48 7.597 8.906zm-3.92.043c0-3.357-1.395-5.388-3.677-5.388-2.3 0-3.713 2.052-3.713 5.387 0 3.375 1.414 5.466 3.713 5.466 2.282 0 3.677-2.07 3.677-5.467zM125.762 17.607c-.094-.725-.302-1.492-.81-3.066l-1.735-5.51a98.09 98.09 0 0 0-.64-2.195c-.208-.746-.208-.746-.303-1.035.114 1.304.19 3.003.19 4.1v4.496c0 1.43.037 2.34.15 3.21H118.9c.113-.93.15-1.8.15-3.21V3.604c0-1.242-.056-2.34-.15-3.232h4.977c.132.89.282 1.554.716 2.92l2.828 8.93 2.81-8.93c.433-1.387.584-2.05.698-2.92h4.995c-.114.995-.15 1.844-.15 3.232v10.792c0 1.575.037 2.382.15 3.21h-3.713c.113-.952.15-1.74.15-3.21V9.88c0-.496.057-2.05.095-2.692.056-1.1.056-1.1.075-1.41-.415 1.617-.604 2.362-.85 3.108l-1.827 5.676c-.47 1.47-.716 2.38-.81 3.045h-3.28zM150.098 17.75c-.81-.103-1.49-.143-3.11-.143h-5.938c-1.433 0-1.96.02-2.77.062.112-.83.15-1.596.15-3.025V3.335c0-1.284-.04-2.01-.15-3.024.772.042 1.3.062 2.77.062h6.013c1.282 0 1.923-.04 2.81-.145V4.1c-.867-.103-1.547-.144-2.81-.144h-4.9V7h4.07c1.246 0 1.698-.02 2.83-.144v3.833c-.886-.105-1.528-.146-2.83-.146h-4.07v3.48h4.862c1.433 0 2.263-.042 3.073-.145v3.87zM161.033 8.844c.547.89.904 1.554 1.357 2.466a37.757 37.757 0 0 1-.113-3.066V3.52c0-1.365-.037-2.194-.15-3.148h4.015c-.114.933-.15 1.803-.15 3.15V14.52c0 1.264.056 2.217.15 3.087h-4.13c-.338-.788-.772-1.554-1.413-2.63l-3.488-5.78c-.51-.83-.83-1.45-1.357-2.548.094.93.132 2.07.132 3.085v4.64c0 1.43.038 2.34.15 3.23h-4.014c.113-.807.15-1.718.15-3.25V3.458c0-1.202-.038-2.134-.15-3.088h4.09c.19.56.604 1.388 1.34 2.59l3.58 5.882zM183.24 8.906c0 5.47-3.034 9.094-7.616 9.094-4.618 0-7.597-3.542-7.597-9.03 0-5.47 2.98-8.97 7.616-8.97 4.637 0 7.597 3.48 7.597 8.906zm-3.92.043c0-3.357-1.395-5.388-3.677-5.388-2.3 0-3.713 2.052-3.713 5.387 0 3.375 1.413 5.466 3.713 5.466 2.282 0 3.677-2.07 3.677-5.467zM191.686 12.573c.15.56.15.56.36 1.43.225-.912.263-1.036.357-1.43l2.733-9.963c.245-.953.377-1.533.434-2.237H200c-.264.622-.433 1.1-.904 2.528L195.1 15.37c-.32 1.015-.51 1.72-.604 2.237h-4.9c-.096-.538-.284-1.242-.605-2.237L184.977 2.9a30.766 30.766 0 0 0-.887-2.528h4.41c.076.664.245 1.472.453 2.237l2.733 9.963z"/><path d="M2.683.372H0s1.08 1.17 1.34 2.023c.264.85 1.343-2.023 1.343-2.023zM21.89.372H19.21s1.08 1.17 1.34 2.023c.263.85 1.343-2.023 1.343-2.023zM120.603.32h-2.682s1.08 1.172 1.342 2.024c.262.85 1.34-2.023 1.34-2.023zM87.8.32h-2.684s1.08 1.172 1.34 2.024C86.72 3.194 87.8.32 87.8.32zM153.57.32h-2.684s1.08 1.172 1.342 2.024c.262.85 1.34-2.023 1.34-2.023zM87.8 17.68h-2.684s1.08-1.17 1.34-2.023c.264-.85 1.343 2.023 1.343 2.023z"/></g></g></svg>