<svg xmlns="http://www.w3.org/2000/svg" width="222.63" height="53.663" viewBox="0 0 222.63 53.663"><g fill="#9F9F9F"><path d="M0 0h35.5v6H0zM0 46h35.5v6H0z"/><path d="M52.184 26.04l.012-.02-.045-.028L35.504.146l-7.41 4.865L41.64 26.04 28.094 47.07l7.41 4.866L52.15 26.09l.046-.03z"/></g><g fill="#C4C4C4"><path d="M5.75 35.145c.624.875 1.124 2.75 2.75-.625 4.937-10.252 18.593-20.034 20.613-21.445L27 10H0v20.395c3.876-.75 5.124 3.876 5.75 4.75zM30.76 15.473c-.43.408-.89.84-1.386 1.298C16.976 28.255 11.6 38.665 9.89 42.626H27L38 26l-7.24-10.527zM0 37.803v4.822h3.845C2.907 41.017.93 38.805 0 37.803z"/></g><path fill="#9F9F9F" d="M51.01 53.065c-3.65 0-6.55-1.104-8.694-3.31-2.147-2.206-3.22-5.308-3.22-9.306 0-3.858 1.076-6.932 3.228-9.226 2.15-2.292 5.053-3.44 8.7-3.44.97 0 1.842.055 2.616.164.772.108 1.514.262 2.222.458.555.164 1.16.387 1.814.67.653.283 1.182.53 1.585.735v5.802h-.62a35.8 35.8 0 0 0-1.11-.94c-.448-.365-.954-.72-1.52-1.07-.567-.348-1.192-.645-1.873-.89a6.244 6.244 0 0 0-2.133-.368c-.88 0-1.69.14-2.426.417-.735.28-1.436.76-2.1 1.447-.61.622-1.108 1.46-1.495 2.516-.387 1.057-.58 2.305-.58 3.743 0 1.514.2 2.786.604 3.815.403 1.03.932 1.86 1.585 2.494a5.77 5.77 0 0 0 2.116 1.323c.78.272 1.555.408 2.328.408.807 0 1.575-.132 2.305-.4.73-.267 1.347-.563 1.847-.89.546-.337 1.024-.68 1.438-1.03.414-.348.773-.66 1.08-.93h.555v5.718c-.447.208-.965.444-1.553.71-.59.268-1.192.494-1.813.68-.763.228-1.48.402-2.14.52-.665.12-1.58.182-2.745.182z"/><path fill="#FFF" d="M51.01 53.565c-3.774 0-6.82-1.165-9.053-3.46-2.23-2.293-3.36-5.542-3.36-9.655 0-3.97 1.13-7.188 3.362-9.567 2.238-2.387 5.29-3.598 9.064-3.598.986 0 1.89.057 2.685.168.788.113 1.558.27 2.284.47.58.172 1.21.404 1.88.694.666.29 1.204.54 1.614.75l.272.14v6.606h-1.312l-.142-.126c-.29-.258-.656-.566-1.096-.927-.43-.35-.92-.696-1.466-1.03a9.7 9.7 0 0 0-1.778-.847c-1.372-.494-2.975-.42-4.214.047-.662.25-1.308.697-1.916 1.326-.56.568-1.024 1.355-1.385 2.34-.364.997-.55 2.2-.55 3.57 0 1.446.192 2.668.57 3.634.376.958.87 1.736 1.468 2.315a5.29 5.29 0 0 0 1.934 1.21c1.475.517 2.984.492 4.296.01.692-.252 1.28-.535 1.745-.84.53-.33.995-.66 1.39-.992.41-.345.765-.653 1.067-.922l.143-.126h1.246v6.54l-.29.133c-.45.208-.968.445-1.557.712-.604.273-1.235.51-1.878.7-.775.235-1.515.415-2.194.538-.69.123-1.642.187-2.83.187zm.014-25.28c-3.49 0-6.293 1.104-8.337 3.283-2.052 2.187-3.092 5.175-3.092 8.882 0 3.844 1.035 6.858 3.078 8.957 2.038 2.095 4.842 3.16 8.335 3.16 1.13 0 2.023-.06 2.656-.174a18.982 18.982 0 0 0 2.086-.51c.6-.18 1.187-.398 1.75-.653.463-.21.883-.403 1.26-.576v-4.782c-.244.212-.514.445-.812.696-.432.362-.934.724-1.497 1.072-.52.34-1.174.656-1.937.936-1.527.56-3.277.584-4.97-.006a6.27 6.27 0 0 1-2.298-1.437c-.702-.68-1.276-1.577-1.703-2.67-.424-1.08-.64-2.426-.64-3.997 0-1.49.206-2.807.61-3.915.41-1.12.95-2.026 1.61-2.693.708-.734 1.477-1.26 2.278-1.564 1.458-.55 3.312-.626 4.905-.052.71.256 1.37.57 1.963.936.583.358 1.112.732 1.575 1.108.352.29.655.544.916.77V30.12a33.08 33.08 0 0 0-1.285-.586 15.38 15.38 0 0 0-1.757-.648 16.902 16.902 0 0 0-2.15-.443 18.393 18.393 0 0 0-2.544-.158z"/><path fill="#9F9F9F" d="M83.084 28.26l-8.398 14.166V52.59h-6.11v-9.854l-8.547-14.478h6.96l4.77 8.694 4.593-8.694h6.73z"/><path fill="#FFF" d="M75.186 53.09h-7.11V42.874L59.15 27.76h8.132l4.468 8.138 4.3-8.14h7.912l-8.777 14.806V53.09zm-6.112-1h5.11v-9.8l.072-.12 7.95-13.412h-5.553l-4.885 9.25-5.076-9.25h-5.79l8.17 13.84v9.492z"/><path fill="#9F9F9F" d="M95.407 44.126H84.573v-4.543h10.834v4.543z"/><path fill="#FFF" d="M95.907 44.626H84.073v-5.543h11.834v5.543zm-10.834-1h9.834v-3.543h-9.834v3.543z"/><path fill="#9F9F9F" d="M118.446 35.94c0 1.132-.18 2.21-.538 3.234-.36 1.024-.878 1.88-1.553 2.566-.414.425-.87.816-1.364 1.177a8.207 8.207 0 0 1-1.642.915c-.598.25-1.25.447-1.952.588-.703.142-1.49.212-2.362.212h-3.202v7.958h-6.11V28.26h9.444c1.404 0 2.616.127 3.635.383a8.76 8.76 0 0 1 2.77 1.218c.917.61 1.625 1.425 2.126 2.444s.75 2.23.75 3.635zm-6.274.146c0-.687-.163-1.277-.49-1.773-.326-.496-.72-.836-1.176-1.02-.578-.25-1.13-.396-1.66-.434-.528-.04-1.244-.06-2.147-.06h-.867v7.29h.425c.578 0 1.122-.006 1.634-.016.513-.012.958-.05 1.34-.115.327-.056.673-.162 1.038-.32.364-.157.646-.334.842-.53.414-.402.694-.823.84-1.258.147-.437.22-1.025.22-1.766z"/><path fill="#FFF" d="M106.332 53.09h-7.11V27.76h9.944c1.44 0 2.704.133 3.758.398 1.07.27 2.054.702 2.925 1.288a6.616 6.616 0 0 1 2.294 2.637c.533 1.083.803 2.38.803 3.856 0 1.183-.19 2.328-.566 3.4-.38 1.09-.942 2.015-1.667 2.75-.43.44-.91.856-1.43 1.232a8.6 8.6 0 0 1-1.74.97c-.626.262-1.313.47-2.047.618-.732.147-1.562.222-2.46.222h-2.703v7.958zm-6.11-1h5.11v-7.958h3.702c.835 0 1.596-.068 2.264-.203a9.76 9.76 0 0 0 1.856-.56 7.683 7.683 0 0 0 1.544-.858c.47-.343.908-.72 1.3-1.12.62-.633 1.105-1.434 1.438-2.383.34-.967.51-2 .51-3.07 0-1.322-.234-2.47-.7-3.416a5.672 5.672 0 0 0-1.952-2.248 8.327 8.327 0 0 0-2.614-1.15c-.974-.244-2.156-.368-3.514-.368h-8.945V52.09zm6.035-11.5h-.925V32.3h1.366c.91 0 1.646.02 2.185.06.58.042 1.194.2 1.822.473.54.22 1.012.626 1.395 1.206.38.575.572 1.264.572 2.046 0 .803-.08 1.433-.246 1.924-.174.51-.498 1-.967 1.457-.24.24-.566.448-.993.632a5.04 5.04 0 0 1-1.153.353c-.402.068-.88.11-1.412.122-.517.01-1.064.014-1.645.014zm.075-7.288v6.288c.546 0 1.062-.006 1.548-.015.485-.01.91-.046 1.268-.108.286-.048.598-.144.922-.285.307-.13.536-.275.688-.426.36-.35.6-.706.722-1.064.128-.382.193-.922.193-1.605 0-.59-.135-1.082-.407-1.498-.27-.408-.587-.688-.947-.834-.536-.232-1.04-.364-1.508-.398a31.2 31.2 0 0 0-2.112-.056h-.368z"/><path fill="#9F9F9F" d="M144.216 52.59h-7.45l-6.78-8.92h-2.19v8.92h-6.08V28.26h9.79c1.35 0 2.525.083 3.528.252 1.002.17 1.93.52 2.778 1.054a6.364 6.364 0 0 1 2.075 2.116c.51.856.768 1.942.768 3.26 0 1.864-.42 3.375-1.258 4.535-.84 1.16-1.963 2.083-3.366 2.77l8.186 10.343zm-9.836-16.88c0-.61-.117-1.136-.35-1.577-.236-.442-.626-.782-1.17-1.022a4.22 4.22 0 0 0-1.274-.31 19.683 19.683 0 0 0-1.75-.064h-2.04v6.553h1.747c.85 0 1.57-.052 2.165-.156.593-.104 1.098-.324 1.512-.662.393-.305.685-.67.874-1.095.19-.424.286-.98.286-1.667z"/><path fill="#FFF" d="M145.25 53.09h-8.733l-6.78-8.92h-1.44v8.92h-7.08V27.76h10.288c1.372 0 2.588.086 3.612.26 1.063.178 2.06.556 2.96 1.123a6.883 6.883 0 0 1 2.24 2.283c.557.932.838 2.114.838 3.517 0 1.96-.454 3.585-1.354 4.827-.77 1.067-1.778 1.953-3.003 2.64l8.454 10.68zm-8.237-1h6.17l-7.93-10.02.558-.273c1.326-.647 2.396-1.526 3.182-2.614.772-1.068 1.163-2.495 1.163-4.24 0-1.22-.234-2.23-.696-3.004a5.91 5.91 0 0 0-1.916-1.953 7.054 7.054 0 0 0-2.593-.982c-.97-.164-2.13-.247-3.445-.247h-9.288V52.09h5.08v-8.92h2.937l6.78 8.92zm-7.47-12.3h-2.248v-7.554h2.54c.71 0 1.313.023 1.797.068.518.048.996.166 1.425.348.652.287 1.126.706 1.412 1.248.272.512.41 1.122.41 1.81 0 .754-.11 1.385-.33 1.872a3.36 3.36 0 0 1-1.023 1.285c-.47.384-1.056.642-1.732.76-.62.107-1.38.162-2.252.162zm-1.248-1h1.248c.817 0 1.517-.05 2.078-.15.508-.086.94-.274 1.284-.555.338-.263.575-.56.732-.913.16-.36.243-.85.243-1.462 0-.524-.1-.976-.294-1.342-.183-.343-.486-.604-.928-.798a3.726 3.726 0 0 0-1.12-.27 19.114 19.114 0 0 0-1.703-.063h-1.54v5.552z"/><g><path fill="#9F9F9F" d="M151.62 52.59h-5.785v-6.42h5.784v6.42z"/><path fill="#FFF" d="M152.12 53.09h-6.785v-7.42h6.784v7.42zm-5.785-1h4.784v-5.42h-4.785v5.42z"/></g><g><path fill="#9F9F9F" d="M165.15 53.08c-1.518 0-2.9-.19-4.16-.57-1.258-.382-2.35-.97-3.275-1.765-.915-.796-1.63-1.795-2.14-3-.514-1.204-.77-2.623-.77-4.257 0-1.752.278-3.246.834-4.477.554-1.23 1.306-2.243 2.254-3.038.915-.763 1.99-1.327 3.227-1.692a13.58 13.58 0 0 1 6.905-.195c1.014.235 2.032.606 3.056 1.12v4.9h-.734c-.23-.217-.51-.456-.842-.718a8.2 8.2 0 0 0-1.088-.72 7.236 7.236 0 0 0-1.403-.58 6.07 6.07 0 0 0-1.75-.236c-1.46 0-2.59.51-3.39 1.53-.8 1.017-1.2 2.387-1.2 4.108 0 1.84.427 3.214 1.282 4.118.854.904 1.99 1.357 3.407 1.357.72 0 1.35-.083 1.896-.246a6.613 6.613 0 0 0 1.405-.588c.38-.23.708-.467.98-.712.27-.245.506-.466.702-.662h.735v4.902l-1.136.49c-.43.186-.868.338-1.315.458a15.55 15.55 0 0 1-1.562.352c-.484.082-1.124.123-1.92.123z"/><path fill="#FFF" d="M165.15 53.58c-1.557 0-3.004-.2-4.304-.592-1.32-.4-2.483-1.026-3.458-1.864-.973-.844-1.734-1.914-2.274-3.182-.536-1.26-.81-2.758-.81-4.453 0-1.818.296-3.393.88-4.684.582-1.293 1.386-2.376 2.39-3.217.963-.805 2.11-1.406 3.405-1.79a14.147 14.147 0 0 1 7.156-.203c1.048.242 2.114.632 3.168 1.16l.276.138v5.71h-1.436L170 40.47a11.258 11.258 0 0 0-.805-.688 7.777 7.777 0 0 0-1.02-.674c-.38-.21-.82-.392-1.31-.54a5.574 5.574 0 0 0-1.603-.214c-1.31 0-2.29.438-2.997 1.337-.727.923-1.095 2.202-1.095 3.8 0 1.7.386 2.97 1.146 3.773.764.808 1.76 1.2 3.045 1.2.668 0 1.256-.074 1.753-.224.504-.152.94-.334 1.297-.542.348-.21.65-.43.898-.65.264-.24.49-.453.683-.645l.147-.146h1.442v5.73l-1.44.62c-.45.195-.916.357-1.383.482-.566.155-1.11.277-1.607.36-.508.087-1.182.13-2 .13zm-.164-19.348c-1.286 0-2.54.178-3.724.527-1.164.343-2.19.88-3.048 1.595-.885.743-1.6 1.705-2.12 2.86-.524 1.162-.79 2.6-.79 4.272 0 1.56.246 2.927.73 4.062.48 1.127 1.155 2.074 2.01 2.815.865.746 1.906 1.305 3.092 1.664 1.206.364 2.557.55 4.014.55.763 0 1.38-.04 1.837-.117a15 15 0 0 0 1.51-.34c.424-.114.845-.26 1.25-.435l.835-.36-.03-4.073c-.17.163-.36.34-.572.533-.294.265-.65.523-1.06.77-.43.25-.938.463-1.518.637-.59.177-1.275.267-2.04.267-1.553 0-2.82-.51-3.77-1.514-.942-.995-1.42-2.497-1.42-4.46 0-1.83.44-3.315 1.308-4.42.897-1.14 2.17-1.718 3.784-1.718.687 0 1.325.087 1.894.258.555.167 1.06.376 1.503.62.414.23.802.487 1.154.764.278.22.52.424.73.613h.038v-4.09a13.16 13.16 0 0 0-2.668-.944 13.07 13.07 0 0 0-2.928-.338z"/></g><g><path fill="#9F9F9F" d="M191.408 43.424c0 3.018-.825 5.395-2.476 7.132-1.65 1.737-3.984 2.606-7.002 2.606-2.997 0-5.324-.87-6.985-2.606-1.662-1.738-2.492-4.115-2.492-7.132 0-3.05.83-5.44 2.492-7.166 1.66-1.727 3.988-2.59 6.985-2.59 3.007 0 5.338.87 6.994 2.606 1.657 1.738 2.484 4.12 2.484 7.15zm-5.866.032c0-1.09-.09-1.996-.27-2.72-.18-.725-.428-1.305-.743-1.74-.34-.46-.72-.777-1.146-.957-.425-.18-.91-.27-1.454-.27-.512 0-.975.08-1.39.236-.413.158-.794.46-1.144.907-.327.424-.588 1.007-.784 1.75-.197.74-.294 1.67-.294 2.793 0 1.122.093 2.03.277 2.72.186.693.426 1.246.72 1.66a2.71 2.71 0 0 0 1.144.93 3.8 3.8 0 0 0 1.52.295 3.63 3.63 0 0 0 1.396-.293 2.59 2.59 0 0 0 1.136-.882c.337-.468.594-1.032.77-1.692.173-.66.26-1.57.26-2.737z"/><path fill="#FFF" d="M181.93 53.663c-3.123 0-5.595-.93-7.346-2.76-1.746-1.826-2.63-4.343-2.63-7.48 0-3.17.885-5.696 2.63-7.512 1.752-1.82 4.224-2.743 7.347-2.743 3.135 0 5.61.93 7.357 2.76 1.74 1.826 2.62 4.348 2.62 7.496 0 3.135-.878 5.65-2.612 7.476-1.74 1.832-4.218 2.763-7.364 2.763zm0-19.496c-2.84 0-5.068.82-6.624 2.438-1.562 1.622-2.353 3.916-2.353 6.82 0 2.87.792 5.152 2.354 6.785 1.556 1.627 3.784 2.453 6.624 2.453 2.862 0 5.096-.825 6.64-2.45 1.552-1.635 2.34-3.918 2.34-6.79 0-2.882-.79-5.17-2.347-6.804-1.55-1.628-3.783-2.453-6.632-2.453zm.05 15.394c-.622 0-1.2-.112-1.718-.333a3.212 3.212 0 0 1-1.353-1.1c-.33-.464-.598-1.076-.797-1.82-.195-.73-.295-1.69-.295-2.85 0-1.158.104-2.14.31-2.922.214-.803.507-1.45.87-1.927.41-.52.866-.878 1.364-1.07.973-.368 2.275-.357 3.217.04.506.215.96.592 1.35 1.12.355.49.633 1.134.827 1.917.188.76.284 1.717.284 2.84 0 1.22-.09 2.158-.276 2.866-.19.718-.475 1.342-.85 1.857a3.08 3.08 0 0 1-1.348 1.052c-.53.22-1.066.33-1.587.33zm-.05-11.29c-.448 0-.854.067-1.21.203-.325.124-.637.376-.927.748-.283.368-.518.897-.696 1.57-.184.698-.277 1.595-.277 2.666 0 1.073.088 1.945.262 2.592.168.63.383 1.134.643 1.498.252.35.558.6.934.76.708.306 1.61.38 2.526 0a2.08 2.08 0 0 0 .923-.714c.3-.415.53-.93.69-1.526.16-.615.243-1.493.243-2.61 0-1.043-.086-1.918-.255-2.6-.163-.658-.386-1.186-.663-1.568-.28-.378-.595-.645-.934-.79a3.25 3.25 0 0 0-1.26-.23z"/></g><g><path fill="#9F9F9F" d="M216.378 52.59v-9.167c0-.905-.017-1.667-.05-2.29-.032-.62-.13-1.126-.294-1.518-.163-.392-.416-.68-.76-.858-.343-.18-.825-.27-1.445-.27-.438 0-.867.095-1.293.286-.424.19-.888.46-1.39.81V52.59h-5.75v-9.167c0-.894-.02-1.653-.058-2.28-.04-.626-.14-1.136-.304-1.527s-.416-.68-.76-.858c-.344-.18-.82-.27-1.43-.27-.47 0-.926.11-1.373.327-.445.218-.882.474-1.308.768V52.59h-5.72V34.24h5.72v2.025c.937-.795 1.82-1.416 2.648-1.863.827-.446 1.76-.67 2.794-.67 1.122 0 2.106.268 2.958.8.85.535 1.497 1.33 1.944 2.387 1.1-1.025 2.137-1.812 3.11-2.362.977-.55 1.965-.826 2.968-.826.85 0 1.61.137 2.287.41.675.272 1.248.68 1.716 1.225a5.816 5.816 0 0 1 1.153 2.1c.254.812.384 1.87.384 3.178V52.59h-5.75z"/><path fill="#FFF" d="M222.63 53.09h-6.752v-9.667c0-.894-.017-1.648-.048-2.263-.03-.56-.116-1.016-.257-1.354-.118-.283-.292-.482-.53-.607-.455-.238-1.41-.37-2.3.028a7.754 7.754 0 0 0-1.095.62V53.09h-6.752v-9.667c0-.885-.02-1.642-.056-2.25-.034-.568-.125-1.027-.265-1.365-.12-.285-.293-.483-.53-.608-.473-.248-1.463-.37-2.353.064a9.86 9.86 0 0 0-1.026.584V53.09h-6.72V33.74h6.72v1.48a14.623 14.623 0 0 1 1.91-1.257c.898-.485 1.918-.73 3.032-.73 1.21 0 2.295.294 3.224.877.757.475 1.372 1.143 1.838 1.99.943-.83 1.852-1.495 2.707-1.978 1.927-1.085 4.083-1.09 5.687-.444.747.3 1.39.76 1.908 1.363a6.35 6.35 0 0 1 1.25 2.276c.27.856.407 1.977.407 3.33V53.09zm-5.752-1h4.752V40.645c0-1.25-.12-2.27-.36-3.028a5.37 5.37 0 0 0-1.054-1.922c-.42-.49-.92-.846-1.524-1.09-1.33-.535-3.157-.55-4.824.388-.935.53-1.95 1.3-3.015 2.292l-.522.487-.277-.658c-.405-.956-.994-1.682-1.75-2.157-.768-.48-1.672-.725-2.692-.725-.945 0-1.806.206-2.556.61-.794.43-1.655 1.035-2.562 1.804l-.824.7V34.74h-4.72v17.35h4.72V39.32l.217-.15a10.66 10.66 0 0 1 1.37-.804 3.62 3.62 0 0 1 1.594-.378c.698 0 1.24.107 1.66.327.448.233.78.606.99 1.108.186.447.298 1 .34 1.69.038.627.058 1.405.058 2.31v8.667h4.752V39.322l.215-.15a9.243 9.243 0 0 1 1.47-.854c.487-.218.99-.33 1.496-.33.71 0 1.26.108 1.68.328.446.233.78.606.988 1.108.188.448.296 1 .332 1.685.033.628.05 1.4.05 2.314v8.666z"/></g></svg>