<svg xmlns="http://www.w3.org/2000/svg" width="16" height="16" viewBox="0 0 16 16"><path fill-rule="evenodd" clip-rule="evenodd" fill="#CCC" d="M15.25 5.75H12a.75.75 0 0 1 0-1.5h1.292A6.468 6.468 0 0 0 8 1.5 6.5 6.5 0 0 0 1.5 8 .75.75 0 0 1 0 8a8 8 0 0 1 8-8 7.972 7.972 0 0 1 6.5 3.353V2A.75.75 0 0 1 16 2v3a.75.75 0 0 1-.75.75m-14.5 4.5H4a.75.75 0 0 1 0 1.5H2.698A6.478 6.478 0 0 0 8 14.5 6.5 6.5 0 0 0 14.5 8 .75.75 0 0 1 16 8a8 8 0 0 1-8 8 7.96 7.96 0 0 1-6.5-3.363V14A.75.75 0 0 1 0 14v-3a.75.75 0 0 1 .75-.75"/></svg>