<svg xmlns="http://www.w3.org/2000/svg" width="19.614" height="17.469" viewBox="0 0 19.614 17.469"><path fill-rule="evenodd" clip-rule="evenodd" fill="#CCC" d="M18.388 12.872a1.84 1.84 0 0 0-3.677 0 1.84 1.84 0 0 0-1.838 1.84c0 .215.044.42.112.61H.92a.918.918 0 0 1-.92-.918V4.597h19.614v8.751a1.823 1.823 0 0 0-1.226-.476M0 2.758V.92C0 .41.41 0 .92 0h4.596L7.35 1.84h11.345a.92.92 0 0 1 .92.918v.92H0v-.92zM14.71 13.79h.92v-.918a.92.92 0 0 1 1.838 0v.92h.92a.92.92 0 0 1 0 1.838h-.92v.92a.92.92 0 0 1-1.84 0v-.92h-.918a.92.92 0 0 1 0-1.84"/></svg>