<svg xmlns="http://www.w3.org/2000/svg" width="91.375" height="24" viewBox="0 0 91.375 24"><g fill="#1D1D1B"><path d="M24.25 22.783c-.34 0-.54-.1-.78-.336l.32-.317c.156.156.27.23.468.23.393 0 .567-.287.586-.66h-.837v-.34h.837c-.037-.36-.222-.61-.59-.61-.193 0-.312.08-.463.23l-.32-.31c.24-.237.44-.343.78-.343.68 0 1.078.455 1.078 1.216 0 .786-.393 1.24-1.08 1.24zM27.298 22.754v-1.977h-.695v.695c0 1.018-.297 1.28-.766 1.28h-.227v-.424h.075c.208 0 .454-.048.454-.975v-.997h1.64v2.396h-.482zM28.906 21.7c.01.4.18.67.63.67.24 0 .39-.084.56-.25l.304.29c-.27.264-.5.373-.884.373-.718 0-1.087-.426-1.087-1.24 0-.75.387-1.215 1.016-1.215.62 0 1.01.45 1.01 1.154v.218h-1.55zm.54-.97c-.39 0-.53.3-.54.63h1.08c-.026-.327-.148-.63-.54-.63zM31.108 22.754v-2.396h.488v1.144l.912-1.144h.577l-.955 1.125 1.025 1.27h-.59l-.97-1.242v1.244h-.487zM34.452 20.777v1.977h-.482v-1.977h-.76v-.42h1.975v.42h-.733zM37.31 22.564c-.14.143-.348.22-.594.22-.274 0-.435-.077-.615-.276v1.215h-.48v-3.365h.472v.25c.194-.198.33-.28.62-.28.425 0 .718.204.812.62.038.17.052.332.052.615 0 .52-.075.814-.265 1zM36.6 20.76c-.2 0-.33.074-.407.23-.06.128-.09.307-.09.582 0 .554.148.78.502.78s.496-.227.496-.8c0-.572-.14-.793-.5-.793zM39.836 22.5a.984.984 0 0 1-.72.283.976.976 0 0 1-.713-.284c-.203-.214-.284-.474-.284-.947 0-.467.08-.728.283-.94a.968.968 0 0 1 .714-.284c.29 0 .54.1.72.283.197.208.277.474.277.932 0 .48-.074.74-.278.954zm-.35-1.585a.477.477 0 0 0-.37-.156.467.467 0 0 0-.367.16c-.12.146-.148.37-.148.652 0 .316.047.506.156.63.085.1.208.15.36.15.16 0 .288-.062.373-.16.115-.138.148-.35.148-.63 0-.298-.03-.51-.152-.647zM42.21 22.754v-1.02h-.955v1.02h-.483v-2.396h.483v.955h.955v-.955h.482v2.396h-.482zM44.895 22.754v-1.02h-.955v1.02h-.482v-2.396h.482v.955h.955v-.955h.482v2.396h-.482zM47.254 22.754h-1.11v-2.396h.48v.902h.63c.463 0 .78.303.78.748 0 .443-.317.746-.78.746zm-.08-1.097h-.55v.704h.55c.24 0 .383-.13.383-.353 0-.218-.143-.35-.384-.35zm1.19 1.097v-2.396h.482v2.396h-.482zM51.154 22.754v-1.65l-1.026 1.65h-.482v-2.396h.482v1.626l1.026-1.626h.482v2.396h-.482zm-.51-2.733c-.384 0-.705-.17-.728-.638h.382c.02.223.147.322.345.322.2 0 .326-.1.346-.322h.382c-.02.47-.346.64-.73.64zM55.37 20.357v1.977h.332v1.035h-.464v-.616h-1.555v.615h-.46v-1.036h.256c.15-.304.273-.63.273-1.367v-.61h1.618zm-1.157.803c0 .555-.09.88-.228 1.174h.903v-1.557h-.676v.383zM57.824 22.5a.982.982 0 0 1-.72.283.976.976 0 0 1-.713-.284c-.2-.214-.283-.474-.283-.947 0-.467.082-.728.284-.94a.968.968 0 0 1 .715-.284c.29 0 .54.1.72.283.198.208.278.474.278.932 0 .48-.076.74-.28.954zm-.35-1.585a.477.477 0 0 0-.368-.156.467.467 0 0 0-.368.16c-.118.146-.147.37-.147.652 0 .316.05.506.157.63.086.1.21.15.36.15.16 0 .288-.062.373-.16.113-.138.146-.35.146-.63 0-.298-.028-.51-.15-.647zM58.77 22.754v-2.396h.487v1.144l.913-1.144h.576l-.955 1.125 1.026 1.27h-.59l-.97-1.242v1.244h-.485zM61.95 23.232c-.117.326-.32.473-.665.473h-.194v-.435h.124c.198 0 .274-.047.345-.25l.132-.38-.842-2.282h.516l.572 1.69.56-1.69h.514l-1.06 2.874zM65.327 22.754v-1.537l-.554 1.098h-.303l-.562-1.098v1.537h-.482v-2.396h.48l.718 1.428.714-1.428h.474v2.396h-.485zM66.935 21.7c.01.4.18.67.63.67.24 0 .39-.084.56-.25l.304.29c-.27.264-.502.373-.886.373-.718 0-1.087-.426-1.087-1.24 0-.75.388-1.215 1.017-1.215.62 0 1.01.45 1.01 1.154v.218h-1.55zm.54-.97c-.39 0-.53.3-.54.63h1.078c-.025-.327-.148-.63-.54-.63zM70.565 22.754v-1.02h-.956v1.02h-.482v-2.396h.48v.955h.957v-.955h.482v2.396h-.482zM72.727 20.777v1.977h-.483v-1.977h-.76v-.42h1.976v.42h-.733zM75.45 22.5a.984.984 0 0 1-.72.283c-.29 0-.535-.1-.715-.284-.202-.214-.283-.474-.283-.947 0-.467.08-.728.283-.94a.97.97 0 0 1 .715-.284c.288 0 .54.1.72.283.197.208.278.474.278.932 0 .48-.076.74-.28.954zm-.35-1.585a.477.477 0 0 0-.37-.156.47.47 0 0 0-.368.16c-.118.146-.146.37-.146.652 0 .316.048.506.156.63.086.1.208.15.36.15.16 0 .287-.062.372-.16.113-.138.146-.35.146-.63 0-.298-.027-.51-.15-.647zM77.988 22.5a.984.984 0 0 1-.72.283c-.288 0-.534-.1-.714-.284-.203-.214-.283-.474-.283-.947 0-.467.08-.728.284-.94a.97.97 0 0 1 .715-.284c.287 0 .538.1.718.283.197.208.278.474.278.932 0 .48-.075.74-.278.954zm-.35-1.585a.477.477 0 0 0-.368-.156.467.467 0 0 0-.37.16c-.118.146-.145.37-.145.652 0 .316.047.506.156.63.085.1.21.15.36.15.16 0 .288-.062.373-.16.113-.138.146-.35.146-.63 0-.298-.03-.51-.152-.647zM78.99 22.286c-.113-.24-.143-.657-.143-1.06 0-1.04.057-1.305.36-1.564.32-.28.83-.284 1.437-.303v.425c-.312.03-.8-.005-1.073.184-.227.15-.287.364-.287.704.104-.19.368-.312.656-.312.23 0 .444.07.586.202.213.2.312.56.312.984 0 .478-.084.752-.293.964a.956.956 0 0 1-.69.27c-.397 0-.718-.175-.866-.496zm1.215-.08c.1-.118.15-.317.15-.64s-.042-.523-.146-.643a.48.48 0 0 0-.36-.15.463.463 0 0 0-.363.15c-.1.114-.16.317-.16.635 0 .34.06.524.17.646a.47.47 0 0 0 .354.143c.132 0 .265-.042.355-.142zM83.084 22.5a.982.982 0 0 1-.72.283.98.98 0 0 1-.714-.284c-.2-.214-.283-.474-.283-.947 0-.467.082-.728.283-.94a.972.972 0 0 1 .715-.284c.29 0 .54.1.72.283.198.208.278.474.278.932 0 .48-.076.74-.28.954zm-.35-1.585c-.085-.095-.208-.156-.37-.156s-.282.06-.367.16c-.118.146-.147.37-.147.652 0 .316.048.506.156.63.086.1.208.15.36.15.16 0 .288-.062.373-.16.113-.138.145-.35.145-.63 0-.298-.028-.51-.15-.647zM85.713 22.564c-.143.143-.35.22-.596.22a.728.728 0 0 1-.615-.276v1.215h-.482v-3.365h.474v.25c.194-.198.33-.28.62-.28.425 0 .717.204.81.62.04.17.054.332.054.615 0 .52-.076.814-.265 1zm-.715-1.805c-.197 0-.33.074-.406.23-.06.128-.09.307-.09.582 0 .554.146.78.502.78.354 0 .496-.227.496-.8 0-.572-.143-.793-.502-.793zM88.236 22.5a.98.98 0 0 1-.718.283.976.976 0 0 1-.714-.284c-.204-.214-.283-.474-.283-.947 0-.467.08-.728.284-.94a.968.968 0 0 1 .714-.284c.29 0 .538.1.718.283.2.208.28.474.28.932 0 .48-.076.74-.28.954zm-.35-1.585a.474.474 0 0 0-.367-.156.465.465 0 0 0-.37.16c-.118.146-.147.37-.147.652 0 .316.05.506.157.63.085.1.208.15.36.15.16 0 .288-.062.372-.16.114-.138.147-.35.147-.63 0-.298-.03-.51-.153-.647zM90.038 20.777v1.977h-.48v-1.977h-.763v-.42h1.977v.42h-.734z"/></g><path fill="#D6801F" d="M11.18 20.408c-.23-1.037-3.048-7.84-4.12-10.726-.346-.933-.95-2.506.473-3.372 1.164-.71 5.588-3.102 6.347-3.554.825-.493 2.128-1.14 1.845-1.735-.46-.967-2.68-.642-4.202-.368-1.956.35-5.546 1.377-8.003 2.37C1.244 3.94-.417 5.507.856 8.396c1.2 2.722 2.473 4.913 3.498 6.72 1.564 2.76 3.235 4.864 4.008 5.742 1.125 1.276 2.407 1.763 3.263 1.462.82-.287-.222-.898-.445-1.912z"/><path fill="#FFDA67" d="M11.506 20.397c-.23-1.038-3.048-7.84-4.12-10.725-.345-.934-.95-2.506.473-3.372 1.163-.71 5.587-3.103 6.346-3.555.825-.493 2.02-1.125 1.735-1.72C15.483.057 13.37.367 11.85.64 9.892.993 6.302 2.02 3.846 3.01 1.57 3.93-.09 5.497 1.183 8.386c1.2 2.722 2.473 4.91 3.498 6.72 1.565 2.76 3.14 4.807 3.88 5.71.864 1.054 2.257 1.786 3.113 1.485.82-.286.056-.89-.167-1.903z"/><linearGradient id="a" gradientUnits="userSpaceOnUse" x1="1.415" y1="11.381" x2="16.044" y2="11.381"><stop offset=".206" stop-color="#f6a900"/><stop offset="1" stop-color="#db6b17"/></linearGradient><path fill="url(#a)" d="M12.18 20.397c-.23-1.038-3.048-7.84-4.12-10.725-.346-.934-.95-2.506.473-3.372 1.164-.71 5.587-3.103 6.347-3.555.825-.493 1.372-1.074 1.088-1.668-.46-.968-1.923-.71-3.446-.436C10.566.99 6.977 2.02 4.52 3.01 2.243 3.93.582 5.497 1.855 8.386c1.2 2.722 2.473 4.91 3.498 6.72 1.564 2.76 3.377 5.26 3.79 5.766.493.602 1.625 1.75 2.48 1.45.82-.29.78-.91.556-1.925z"/><path fill="#D6801F" d="M16.505 16.388c-.126-.574-1.688-4.34-2.28-5.938-.19-.517-.526-1.388.262-1.867C15.13 8.19 17.58 6.866 18 6.616c.457-.273 1.178-.63 1.02-.96-.253-.537-1.482-.356-2.326-.205-1.082.195-3.07.764-4.43 1.313-1.26.508-2.18 1.377-1.475 2.976.663 1.506 1.368 2.718 1.935 3.72.866 1.527 1.79 2.693 2.22 3.178.622.707 1.33.976 1.805.81.456-.16-.12-.5-.245-1.06z"/><path fill="#FFDA67" d="M16.686 16.383c-.126-.574-1.687-4.34-2.28-5.938-.19-.518-.526-1.388.26-1.868.646-.393 3.095-1.717 3.514-1.968.458-.273 1.118-.624.96-.953-.253-.536-1.42-.364-2.265-.212-1.083.194-3.07.763-4.43 1.312-1.26.508-2.18 1.376-1.475 2.976.665 1.507 1.37 2.72 1.936 3.72a23.386 23.386 0 0 0 2.147 3.162c.478.583 1.25.988 1.724.82.456-.158.033-.492-.09-1.052z"/><linearGradient id="b" gradientUnits="userSpaceOnUse" x1="11.1" y1="11.39" x2="19.198" y2="11.39"><stop offset=".206" stop-color="#f6a900"/><stop offset="1" stop-color="#db6b17"/></linearGradient><path fill="url(#b)" d="M17.06 16.383c-.127-.574-1.688-4.34-2.28-5.938-.193-.518-.527-1.388.26-1.868.645-.393 3.094-1.717 3.513-1.968.458-.273.76-.595.603-.924-.254-.536-1.064-.393-1.907-.24-1.084.193-3.07.762-4.432 1.31-1.26.51-2.18 1.377-1.474 2.977.664 1.507 1.37 2.72 1.936 3.72.866 1.527 1.87 2.91 2.1 3.192.27.333.898.968 1.372.802.454-.16.43-.504.307-1.064z"/><path fill="#1D1D1B" d="M41.68 11.003l2.9 4.792H43.2l-2.53-4.182 1.01-.61zM38.265 5.68a15.385 15.385 0 0 1 2.54-.196c1.306 0 2.265.304 2.873.852.547.486.897 1.23.897 2.144 0 .927-.273 1.657-.79 2.19-.715.744-1.84 1.124-3.133 1.124-.395 0-.76-.016-1.064-.09v4.104h-1.322V5.68zm1.32 4.942c.29.076.655.106 1.096.106 1.597 0 2.57-.79 2.57-2.174 0-1.368-.974-2.022-2.418-2.022-.578 0-1.02.045-1.247.106v3.984zm-16.1-4.91a17.06 17.06 0 0 1 2.81-.23c1.9 0 2.937.31 3.834 1.13.927.836 1.446 2.203 1.446 3.86 0 1.67-.428 3.007-1.37 3.95-.974.96-2.328 1.475-4.32 1.475a21.14 21.14 0 0 1-2.4-.122V5.71zm1.32 9.06c.335.046.822.062 1.34.062 2.842 0 4.153-1.588 4.153-4.355.015-2.418-1.145-3.947-3.94-3.947-.685 0-1.203.06-1.552.137v8.102zM35.27 5.56v10.247h-1.338V5.56h1.338zm16.777 5.443h-3.97v3.694h4.44v1.11H46.74V5.558h5.55v1.11h-4.212v3.237h3.97v1.096zm8.72 4.714c-.525.146-1.25.257-2.092.257-2.89 0-5.048-1.824-5.048-5.2 0-3.222 2.175-5.38 5.353-5.38.757 0 1.354.097 1.788.215l-.28 1.09-.064-.018a5.26 5.26 0 0 0-1.398-.18c-2.402 0-4 1.536-4 4.227 0 2.522 1.445 4.12 3.924 4.12a6.086 6.086 0 0 0 1.538-.196l.057-.018.223 1.08zm4.352-9.032H62V5.56h7.587v1.124h-3.133v9.122H65.12v-9.12zm7.27-1.126v6.08c0 2.282 1.02 3.254 2.388 3.254 1.506 0 2.494-1.004 2.494-3.254V5.56h1.338v5.99c0 3.147-1.658 4.423-3.877 4.423-2.098 0-3.68-1.186-3.68-4.378V5.56h1.338zm16.844 5.746c-.077-1.43-.168-3.162-.168-4.424h-.03a77.385 77.385 0 0 1-1.293 3.892l-1.81 4.972H84.93l-1.67-4.88c-.488-1.46-.884-2.768-1.173-3.983h-.03c-.03 1.277-.106 2.98-.198 4.53l-.274 4.394h-1.262L81.04 5.56h1.687l1.75 4.956c.424 1.262.758 2.387 1.032 3.45h.03c.272-1.032.638-2.158 1.094-3.45L88.46 5.56h1.685l.64 10.247h-1.308l-.243-4.5z"/></svg>