<svg xmlns="http://www.w3.org/2000/svg" xmlns:xlink="http://www.w3.org/1999/xlink" width="105" height="25.656" viewBox="0 0 105 25.656"><defs><path id="a" d="M22.056 5.524c2.288 7 3.156 19.484 9.848 19.484.51 0 1.024-.05 1.54-.148-6.083-1.418-6.804-13.768-10.517-20.164-.29.265-.58.54-.87.828"/></defs><clipPath id="b"><use xlink:href="#a" overflow="visible"/></clipPath><g clip-path="url(#b)"><defs><path id="c" d="M22.034 4.713h11.39V25.04h-11.39z"/></defs><clipPath id="d"><use xlink:href="#c" overflow="visible"/></clipPath><linearGradient id="e" gradientUnits="userSpaceOnUse" x1="-191.084" y1="396.43" x2="-190.084" y2="396.43" gradientTransform="matrix(0 30.2934 30.2934 0 -11981.463 5789.32)"><stop offset="0" stop-color="#008bd2"/><stop offset=".11" stop-color="#008bd2"/><stop offset=".35" stop-color="#5bc5f2"/><stop offset=".45" stop-color="#5bc5f2"/><stop offset=".846" stop-color="#0075bf"/><stop offset="1" stop-color="#0075bf"/></linearGradient><path clip-path="url(#d)" fill="url(#e)" d="M22.037 4.715h11.388v20.312H22.037z"/></g><defs><path id="f" d="M22.928 4.697c3.712 6.396 4.433 18.745 10.518 20.164a9.73 9.73 0 0 0 1.437-.387c-5.46-2.676-6.97-14.667-11.187-20.44a23.95 23.95 0 0 0-.768.664"/></defs><clipPath id="g"><use xlink:href="#f" overflow="visible"/></clipPath><g clip-path="url(#g)"><defs><path id="h" d="M22.933 4.033h11.96v20.845h-11.96z"/></defs><clipPath id="i"><use xlink:href="#h" overflow="visible"/></clipPath><linearGradient id="j" gradientUnits="userSpaceOnUse" x1="-191.084" y1="396.43" x2="-190.084" y2="396.43" gradientTransform="matrix(0 31.0654 31.0654 0 -12286.33 5936.06)"><stop offset="0" stop-color="#0072b5"/><stop offset=".176" stop-color="#0072b5"/><stop offset=".36" stop-color="#00a6e2"/><stop offset=".52" stop-color="#00a6e2"/><stop offset=".846" stop-color="#009fe3"/><stop offset="1" stop-color="#009fe3"/></linearGradient><path clip-path="url(#i)" fill="url(#j)" d="M22.94 4.035h11.953v20.83H22.94z"/></g><path fill="#005496" d="M28.277.894c-.508 0-1.024.05-1.542.148-1.354.255-2.73.837-4.117 1.72.38.374.74.802 1.078 1.27 1.41-1.172 2.812-2.037 4.208-2.557a9.463 9.463 0 0 1 1.57-.437 4.888 4.888 0 0 0-1.197-.144"/><defs><filter id="k" filterUnits="userSpaceOnUse" x="29.413" y=".874" width="11.412" height="21.132"><feFlood result="back" flood-color="#fff" flood-opacity="1"/><feBlend in="SourceGraphic" in2="back"/></filter></defs><mask maskUnits="userSpaceOnUse" x="29.413" y=".874" width="11.412" height="21.132" id="u"><g filter="url(#k)"><defs><path id="l" d="M11.872.17h35.49v12.444h-35.49z"/></defs><clipPath id="m"><use xlink:href="#l" overflow="visible"/></clipPath><g enable-background="new"><defs><path id="n" d="M11.872.17h35.49v12.444h-35.49z"/></defs><clipPath id="o" clip-path="url(#m)"><use xlink:href="#n" overflow="visible"/></clipPath><defs><path id="p" d="M11.877.17H47.36v12.444H11.876z"/></defs><clipPath id="q" clip-path="url(#o)"><use xlink:href="#p" overflow="visible"/></clipPath><defs><path id="r" d="M11.896.186h35.488V12.63H11.896z"/></defs><clipPath id="s" clip-path="url(#q)"><use xlink:href="#r" overflow="visible"/></clipPath><linearGradient id="t" gradientUnits="userSpaceOnUse" x1="-191.084" y1="396.43" x2="-190.084" y2="396.43" gradientTransform="matrix(0 12.4432 12.4432 0 -4903.22 2377.888)"><stop offset="0"/><stop offset="1" stop-color="#FFF"/></linearGradient><path clip-path="url(#s)" fill="url(#t)" d="M11.9.186h35.484V12.63H11.9z"/></g></g></mask><g mask="url(#u)"><defs><path id="v" d="M29.476.903h11.347v21.103H29.476z"/></defs><clipPath id="w"><use xlink:href="#v" overflow="visible"/></clipPath><g clip-path="url(#w)"><defs><path id="x" d="M39.145 22.006c.56-.444 1.118-.936 1.68-1.472C38.5 13.568 37.667.904 30.927.904c-.482 0-.968.044-1.453.135 6.138 1.525 6.924 14.882 9.67 20.966"/></defs><clipPath id="y"><use xlink:href="#x" overflow="visible"/></clipPath><g clip-path="url(#y)"><defs><path id="z" d="M29.413.866H40.76v21.11H29.412z"/></defs><clipPath id="A"><use xlink:href="#z" overflow="visible"/></clipPath><linearGradient id="B" gradientUnits="userSpaceOnUse" x1="-191.084" y1="396.43" x2="-190.084" y2="396.43" gradientTransform="matrix(0 -24.7183 -24.7183 0 9834.162 -4699)"><stop offset="0" stop-color="#005ca9"/><stop offset=".5" stop-color="#00b1eb"/><stop offset="1" stop-color="#00b1eb"/></linearGradient><path clip-path="url(#A)" fill="url(#B)" d="M29.413.875H40.76v21.1H29.412z"/></g></g></g><defs><filter id="C" filterUnits="userSpaceOnUse" x="28.277" y=".894" width="2.65" height=".146"><feFlood result="back" flood-color="#fff" flood-opacity="1"/><feBlend in="SourceGraphic" in2="back"/></filter></defs><mask maskUnits="userSpaceOnUse" x="28.277" y=".894" width="2.65" height=".146" id="M"><g filter="url(#C)"><defs><path id="D" d="M11.872.17h35.49v12.444h-35.49z"/></defs><clipPath id="E"><use xlink:href="#D" overflow="visible"/></clipPath><g enable-background="new"><defs><path id="F" d="M11.872.17h35.49v12.444h-35.49z"/></defs><clipPath id="G" clip-path="url(#E)"><use xlink:href="#F" overflow="visible"/></clipPath><defs><path id="H" d="M11.877.17H47.36v12.444H11.876z"/></defs><clipPath id="I" clip-path="url(#G)"><use xlink:href="#H" overflow="visible"/></clipPath><defs><path id="J" d="M11.896.186h35.488V12.63H11.896z"/></defs><clipPath id="K" clip-path="url(#I)"><use xlink:href="#J" overflow="visible"/></clipPath><linearGradient id="L" gradientUnits="userSpaceOnUse" x1="-191.084" y1="396.43" x2="-190.084" y2="396.43" gradientTransform="matrix(0 12.4432 12.4432 0 -4903.22 2377.888)"><stop offset="0"/><stop offset="1" stop-color="#FFF"/></linearGradient><path clip-path="url(#K)" fill="url(#L)" d="M11.9.186h35.484V12.63H11.9z"/></g></g></mask><g mask="url(#M)"><defs><path id="N" d="M28.28.894h2.646v.146H28.28z"/></defs><clipPath id="O"><use xlink:href="#N" overflow="visible"/></clipPath><path clip-path="url(#O)" fill="#008EC0" d="M29.474 1.04a4.84 4.84 0 0 0-1.197-.147l2.65.01c-.482 0-.97.045-1.453.136"/></g><path fill="#0063AF" d="M39.027 23.486a10.365 10.365 0 0 1-.76-.82c-1.133.802-2.263 1.41-3.385 1.807a5.3 5.3 0 0 0 2.338.537c1.26 0 2.254-.15 3.102-.556a5.936 5.936 0 0 1-1.295-.968"/><defs><path id="P" d="M27.904 1.477c5.5 2.875 5.976 15.9 10.364 21.188.294-.207.585-.427.876-.66-2.746-6.083-3.532-19.44-9.67-20.966a9.356 9.356 0 0 0-1.57.437"/></defs><clipPath id="Q"><use xlink:href="#P" overflow="visible"/></clipPath><g clip-path="url(#Q)"><defs><path id="R" d="M27.873.955h11.225v21.61H27.873z"/></defs><clipPath id="S"><use xlink:href="#R" overflow="visible"/></clipPath><linearGradient id="T" gradientUnits="userSpaceOnUse" x1="-191.084" y1="396.43" x2="-190.084" y2="396.43" gradientTransform="matrix(0 32.254 32.254 0 -12752.9 6159.934)"><stop offset="0" stop-color="#0065ad"/><stop offset=".099" stop-color="#0065ad"/><stop offset=".4" stop-color="#00a6e2"/><stop offset=".516" stop-color="#00a6e2"/><stop offset=".846" stop-color="#008ed4"/><stop offset="1" stop-color="#008ed4"/></linearGradient><path clip-path="url(#S)" fill="url(#T)" d="M27.882.956h11.215v21.61H27.882z"/></g><defs><path id="U" d="M23.696 4.03c4.216 5.774 5.725 17.766 11.187 20.442 1.122-.396 2.252-1.004 3.385-1.808-4.388-5.288-4.866-18.312-10.364-21.187-1.396.518-2.798 1.383-4.208 2.554"/></defs><clipPath id="V"><use xlink:href="#U" overflow="visible"/></clipPath><g clip-path="url(#V)"><defs><path id="W" d="M23.53 1.363h14.577v22.98H23.53z"/></defs><clipPath id="X"><use xlink:href="#W" overflow="visible"/></clipPath><linearGradient id="Y" gradientUnits="userSpaceOnUse" x1="-191.084" y1="396.43" x2="-190.084" y2="396.43" gradientTransform="matrix(0 34.2978 34.2978 0 -13565.826 6550.62)"><stop offset="0" stop-color="#00487d"/><stop offset=".11" stop-color="#00487d"/><stop offset=".39" stop-color="#0082c4"/><stop offset=".52" stop-color="#0082c4"/><stop offset=".78" stop-color="#005093"/><stop offset="1" stop-color="#005093"/></linearGradient><path clip-path="url(#X)" fill="url(#Y)" d="M23.536 1.365h14.57v22.977h-14.57z"/></g><defs><filter id="Z" filterUnits="userSpaceOnUse" x="17.206" y="3.655" width="4.849" height="7.723"><feFlood result="back" flood-color="#fff" flood-opacity="1"/><feBlend in="SourceGraphic" in2="back"/></filter></defs><mask maskUnits="userSpaceOnUse" x="17.206" y="3.655" width="4.849" height="7.723" id="aj"><g filter="url(#Z)"><defs><path id="aa" d="M-1.66-.553h35.48v30.19H-1.66z"/></defs><clipPath id="ab"><use xlink:href="#aa" overflow="visible"/></clipPath><g enable-background="new"><defs><path id="ac" d="M-1.66-.553h35.48v30.19H-1.66z"/></defs><clipPath id="ad" clip-path="url(#ab)"><use xlink:href="#ac" overflow="visible"/></clipPath><defs><path id="ae" d="M-1.663-.553h35.486v30.19H-1.663z"/></defs><clipPath id="af" clip-path="url(#ad)"><use xlink:href="#ae" overflow="visible"/></clipPath><defs><path id="ag" d="M-1.703-.646h35.475v30.19H-1.703z"/></defs><clipPath id="ah" clip-path="url(#af)"><use xlink:href="#ag" overflow="visible"/></clipPath><linearGradient id="ai" gradientUnits="userSpaceOnUse" x1="-191.084" y1="396.43" x2="-190.084" y2="396.43" gradientTransform="matrix(0 -30.1915 -30.1915 0 11984.84 -5739.57)"><stop offset="0"/><stop offset=".462"/><stop offset="1" stop-color="#FFF"/></linearGradient><path clip-path="url(#ah)" fill="url(#ai)" d="M-1.69-.646h35.463v30.19H-1.69z"/></g></g></mask><g mask="url(#aj)"><defs><path id="ak" d="M17.21 3.655h4.84v7.723h-4.84z"/></defs><clipPath id="al"><use xlink:href="#ak" overflow="visible"/></clipPath><path clip-path="url(#al)" fill="#00B1EB" d="M19.358 5.356c-.662 1.493-1.335 3.458-2.152 6.02 1.624-2.286 3.24-4.257 4.85-5.852-.223-.682-.46-1.31-.716-1.87-.658.504-1.32 1.07-1.982 1.702"/></g><path fill="#0077B0" d="M21.925 3.224c-.194.14-.39.28-.585.43.256.56.494 1.19.715 1.87.292-.285.583-.562.873-.827a11.587 11.587 0 0 0-1.003-1.473"/><path fill="#005A9A" d="M22.618 2.762c-.23.146-.46.3-.692.462.36.442.69.938 1.002 1.473.256-.23.513-.455.768-.666-.34-.466-.7-.894-1.078-1.268"/><defs><filter id="am" filterUnits="userSpaceOnUse" x="43.742" y=".36" width="19.9" height="24.747"><feFlood result="back" flood-color="#fff" flood-opacity="1"/><feBlend in="SourceGraphic" in2="back"/></filter></defs><mask maskUnits="userSpaceOnUse" x="43.742" y=".36" width="19.9" height="24.747" id="aw"><g filter="url(#am)"><defs><path id="an" d="M37.057-.217h35.49v21.675h-35.49z"/></defs><clipPath id="ao"><use xlink:href="#an" overflow="visible"/></clipPath><g enable-background="new"><defs><path id="ap" d="M37.057-.217h35.49v21.675h-35.49z"/></defs><clipPath id="aq" clip-path="url(#ao)"><use xlink:href="#ap" overflow="visible"/></clipPath><defs><path id="ar" d="M37.06-.217h35.486v21.675H37.06z"/></defs><clipPath id="as" clip-path="url(#aq)"><use xlink:href="#ar" overflow="visible"/></clipPath><defs><path id="at" d="M37.068-.19H72.55v21.676H37.068z"/></defs><clipPath id="au" clip-path="url(#as)"><use xlink:href="#at" overflow="visible"/></clipPath><linearGradient id="av" gradientUnits="userSpaceOnUse" x1="-191.084" y1="396.43" x2="-190.084" y2="396.43" gradientTransform="matrix(0 21.675 21.675 0 -8537.753 4141.532)"><stop offset="0" stop-color="#282827"/><stop offset=".731" stop-color="#FFF"/><stop offset="1" stop-color="#FFF"/></linearGradient><path clip-path="url(#au)" fill="url(#av)" d="M37.074-.19H72.55v21.676H37.074z"/></g></g></mask><g mask="url(#aw)"><defs><path id="ax" d="M43.743.36h19.762v24.643H43.743z"/></defs><clipPath id="ay"><use xlink:href="#ax" overflow="visible"/></clipPath><g clip-path="url(#ay)"><defs><path id="az" d="M60.124.36c-3.11 11.993-9.606 21.626-15.05 24.055a8.91 8.91 0 0 1-.34.143l-.084.03c-.013.003-.025.01-.037.015-.047.017-.092.03-.137.05-.02.005-.038.012-.056.018l-.067.022-.065.023c-.02.006-.04.01-.058.02-.04.01-.077.02-.117.033l-.05.015c-.023.007-.052.014-.078.02l-.053.015a1 1 0 0 1-.086.023c-.037.007-.07.015-.105.02a2.2 2.2 0 0 0 .78.14c5.165 0 10.37-9.255 18.986-24.644h-3.382z"/></defs><clipPath id="aA"><use xlink:href="#az" overflow="visible"/></clipPath><g clip-path="url(#aA)"><defs><path id="aB" d="M43.878.475h19.77v24.633h-19.77z"/></defs><clipPath id="aC"><use xlink:href="#aB" overflow="visible"/></clipPath><linearGradient id="aD" gradientUnits="userSpaceOnUse" x1="-191.084" y1="396.43" x2="-190.084" y2="396.43" gradientTransform="matrix(0 -24.08 -24.08 0 9599.39 -4577.345)"><stop offset="0" stop-color="#0067ac"/><stop offset=".026" stop-color="#006eb2"/><stop offset=".145" stop-color="#0089c8"/><stop offset=".263" stop-color="#00a0da"/><stop offset=".38" stop-color="#22b1e6"/><stop offset=".493" stop-color="#39bcee"/><stop offset=".6" stop-color="#40c0f0"/><stop offset="1" stop-color="#40c0f0"/></linearGradient><path clip-path="url(#aC)" fill="url(#aD)" d="M43.878.475h19.75V25.1H43.88z"/></g></g></g><defs><filter id="aE" filterUnits="userSpaceOnUse" x="-.002" y=".894" width="17.988" height="24.763"><feFlood result="back" flood-color="#fff" flood-opacity="1"/><feBlend in="SourceGraphic" in2="back"/></filter></defs><mask maskUnits="userSpaceOnUse" x="-.002" y=".894" width="17.988" height="24.763" id="aO"><g filter="url(#aE)"><defs><path id="aF" d="M-10.046-1.75h35.48v30.19h-35.48z"/></defs><clipPath id="aG"><use xlink:href="#aF" overflow="visible"/></clipPath><g enable-background="new"><defs><path id="aH" d="M-10.046-1.75h35.48v30.19h-35.48z"/></defs><clipPath id="aI" clip-path="url(#aG)"><use xlink:href="#aH" overflow="visible"/></clipPath><defs><path id="aJ" d="M-10.047-1.75h35.484v30.19h-35.484z"/></defs><clipPath id="aK" clip-path="url(#aI)"><use xlink:href="#aJ" overflow="visible"/></clipPath><defs><path id="aL" d="M-9.89-1.63h35.474v30.19H-9.89z"/></defs><clipPath id="aM" clip-path="url(#aK)"><use xlink:href="#aL" overflow="visible"/></clipPath><linearGradient id="aN" gradientUnits="userSpaceOnUse" x1="-191.084" y1="396.43" x2="-190.084" y2="396.43" gradientTransform="matrix(0 -30.1895 -30.1895 0 11975.864 -5740.167)"><stop offset="0"/><stop offset="1" stop-color="#FFF"/></linearGradient><path clip-path="url(#aM)" fill="url(#aN)" d="M-9.877-1.63h35.46v30.19h-35.46z"/></g></g></mask><g mask="url(#aO)"><defs><path id="aP" d="M0 .894h17.986v24.763H0z"/></defs><clipPath id="aQ"><use xlink:href="#aP" overflow="visible"/></clipPath><path clip-path="url(#aQ)" fill="#0095DB" d="M16.084 1.38c.003-.003.007-.005.01-.005a.06.06 0 0 1 .012-.005s.004 0 .007-.003c.028-.01.055-.022.083-.03l.016-.006.02-.008c.032-.01.063-.02.09-.032l.007-.002c.066-.02.13-.046.196-.07.01 0 .02-.004.03-.006.028-.01.056-.018.085-.026.014-.004.028-.007.04-.012.03-.01.057-.018.085-.025.012-.005.024-.008.033-.01.095-.026.188-.05.285-.074l.038-.01c.03-.005.055-.012.084-.016.013-.004.027-.007.04-.012.03-.004.055-.01.084-.016.007 0 .013-.002.02-.003.058-.012.115-.022.173-.032l.036-.004a1.09 1.09 0 0 0 .08-.014l.044-.005.077-.01a9.27 9.27 0 0 1 .23-.022 5.513 5.513 0 0 0-.55-.03c-5.817 0-13.83 10.79-17.44 24.763 0 0 .265 0 .696-.003a198.45 198.45 0 0 0 3.142-5.838C6.364 9.918 11.512 3.168 16.084 1.38"/></g><path fill="#007CC1" d="M19.358 5.356c.66-.63 1.323-1.198 1.98-1.7a9.232 9.232 0 0 0-.472-.913c-.53.646-1.016 1.497-1.508 2.613"/><path fill="#007CC1" d="M19.836 1.46c.38.32.72.758 1.03 1.283.1-.12.2-.23.3-.336a5.824 5.824 0 0 0-1.342-.953c.004.004.008.005.012.007"/><defs><path id="aR" d="M3.835 19.815C9.138 9.597 11.65 3.13 16.085 1.38c-4.572 1.79-9.72 8.538-12.25 18.435"/></defs><clipPath id="aS"><use xlink:href="#aR" overflow="visible"/></clipPath><g clip-path="url(#aS)"><defs><path id="aT" d="M3.713 1.324h12.23v18.442H3.712z"/></defs><clipPath id="aU"><use xlink:href="#aT" overflow="visible"/></clipPath><linearGradient id="aV" gradientUnits="userSpaceOnUse" x1="-191.084" y1="396.43" x2="-190.084" y2="396.43" gradientTransform="matrix(0 -24.655 -24.655 0 9783.802 -4686.952)"><stop offset="0" stop-color="#008bce"/><stop offset=".202" stop-color="#0091d2"/><stop offset=".679" stop-color="#009ddb"/><stop offset="1" stop-color="#00a1de"/></linearGradient><path clip-path="url(#aU)" fill="url(#aV)" d="M3.713 1.324h12.23v18.434H3.712z"/></g><path fill="#0075BF" d="M21.167 2.407a4.93 4.93 0 0 0-.3.336c.167.28.32.583.473.912.197-.15.39-.292.585-.43a7.912 7.912 0 0 0-.758-.818"/><defs><filter id="aW" filterUnits="userSpaceOnUse" x="5.818" y="11.377" width="11.449" height="14.35"><feFlood result="back" flood-color="#fff" flood-opacity="1"/><feBlend in="SourceGraphic" in2="back"/></filter></defs><mask maskUnits="userSpaceOnUse" x="5.818" y="11.377" width="11.449" height="14.35" id="bg"><g filter="url(#aW)"><defs><path id="aX" d="M-5.154 2.994h26.85v31.623h-26.85z"/></defs><clipPath id="aY"><use xlink:href="#aX" overflow="visible"/></clipPath><g enable-background="new"><defs><path id="aZ" d="M-5.154 2.994h26.85v31.623h-26.85z"/></defs><clipPath id="ba" clip-path="url(#aY)"><use xlink:href="#aZ" overflow="visible"/></clipPath><defs><path id="bb" d="M-5.15 27.428l12.854 7.19L21.7 10.185 8.85 2.994z"/></defs><clipPath id="bc" clip-path="url(#ba)"><use xlink:href="#bb" overflow="visible"/></clipPath><defs><path id="bd" d="M-18.84 27.085L1.017-8.42l33.937 18.978-19.857 35.506z"/></defs><clipPath id="be" clip-path="url(#bc)"><use xlink:href="#bd" overflow="visible"/></clipPath><linearGradient id="bf" gradientUnits="userSpaceOnUse" x1="-191.084" y1="396.43" x2="-190.084" y2="396.43" gradientTransform="scale(47.3034) rotate(119.216 -211.707 -142)"><stop offset="0"/><stop offset=".01" stop-color="#353433"/><stop offset=".038" stop-color="#676766"/><stop offset=".068" stop-color="#909090"/><stop offset=".1" stop-color="#b1b0b0"/><stop offset=".134" stop-color="#cacaca"/><stop offset=".17" stop-color="#dedede"/><stop offset=".21" stop-color="#ededed"/><stop offset=".255" stop-color="#f7f7f7"/><stop offset=".309" stop-color="#fdfdfd"/><stop offset=".4" stop-color="#FFF"/><stop offset="1" stop-color="#FFF"/></linearGradient><path clip-path="url(#be)" fill="url(#bf)" d="M34.933 10.546L15.077 46.052-18.84 27.085 1.016-8.42z"/></g></g></mask><g mask="url(#bg)"><defs><path id="bh" d="M5.822 11.377H17.21v14.267H5.82z"/></defs><clipPath id="bi"><use xlink:href="#bh" overflow="visible"/></clipPath><g clip-path="url(#bi)"><defs><path id="bj" d="M6.243 25.607c-.033.004-.065.008-.096.01-.008.003-.013.003-.02.004a1.902 1.902 0 0 0-.08.01h-.014c-.067.007-.13.01-.195.014h-.02c5.367-.15 7.82-2.837 9.037-6.734.926-2.956 1.686-5.444 2.352-7.532-2.248 3.164-4.506 6.935-6.777 11.16-1.094 2.037-2.76 2.888-4.187 3.07"/></defs><clipPath id="bk"><use xlink:href="#bj" overflow="visible"/></clipPath><g clip-path="url(#bk)"><defs><path id="bl" d="M5.878 11.468h11.384v14.26H5.878z"/></defs><clipPath id="bm"><use xlink:href="#bl" overflow="visible"/></clipPath><linearGradient id="bn" gradientUnits="userSpaceOnUse" x1="-191.084" y1="396.43" x2="-190.084" y2="396.43" gradientTransform="matrix(0 -23.966 -23.966 0 9512.39 -4555.058)"><stop offset="0" stop-color="#0095db"/><stop offset="1" stop-color="#0095db"/></linearGradient><path clip-path="url(#bm)" fill="url(#bn)" d="M5.878 11.468h11.375V25.72H5.878z"/></g></g></g><defs><path id="bo" d="M6.243 25.605v.002c1.427-.182 3.093-1.032 4.187-3.07 2.27-4.223 4.53-7.996 6.775-11.16.818-2.565 1.492-4.528 2.153-6.02-4.476 4.26-8.97 11.345-13.115 20.248"/></defs><clipPath id="bp"><use xlink:href="#bo" overflow="visible"/></clipPath><g clip-path="url(#bp)"><defs><path id="bq" d="M6.16 5.293h13.123v20.25H6.16z"/></defs><clipPath id="br"><use xlink:href="#bq" overflow="visible"/></clipPath><linearGradient id="bs" gradientUnits="userSpaceOnUse" x1="-191.084" y1="396.43" x2="-190.084" y2="396.43" gradientTransform="matrix(0 -20.2517 -20.2517 0 8041.073 -3844.23)"><stop offset="0" stop-color="#00569d"/><stop offset=".154" stop-color="#00569e"/><stop offset=".324" stop-color="#0077bd"/><stop offset=".5" stop-color="#0095db"/><stop offset=".918" stop-color="#83c4e9"/><stop offset="1" stop-color="#83c4e9"/></linearGradient><path clip-path="url(#br)" fill="url(#bs)" d="M6.16 5.293h13.112v20.25H6.16z"/></g><path fill="#0095DB" d="M3.835 19.815a198.45 198.45 0 0 1-3.142 5.838h2.024a49.28 49.28 0 0 1 1.118-5.838"/><defs><path id="bt" d="M17.798.938a.334.334 0 0 1-.043.005.616.616 0 0 1-.075.01l-.045.006-.08.013c-.013 0-.025.003-.035.004l-.172.03a1.342 1.342 0 0 1-.104.02c-.014.006-.028.01-.042.013-.027.003-.054.01-.082.015a9.147 9.147 0 0 0-.323.082l-.033.01c-.028.007-.056.017-.085.026l-.04.01a.9.9 0 0 0-.084.027c-.01.002-.02.007-.03.007-.065.023-.13.05-.197.068-.003 0-.005.003-.007.003a4.5 4.5 0 0 1-.09.03c-.012.007-.023.01-.037.017l-.083.03-.028.014C11.65 3.13 9.14 9.595 3.835 19.813a49.14 49.14 0 0 0-1.118 5.837H3c.8 0 1.026-.003 1.946-.003h.723l.168-.004c.064-.004.128-.007.195-.014l.012-.002c.028-.004.055-.006.082-.008.007 0 .01 0 .02-.003l.096-.01v-.003c4.145-8.904 8.64-15.99 13.116-20.25.492-1.116.976-1.967 1.508-2.612-.31-.526-.65-.964-1.03-1.283-.005-.003-.01-.004-.012-.008a.708.708 0 0 1-.062-.03 1.238 1.238 0 0 0-.063-.032.573.573 0 0 1-.06-.03.36.36 0 0 1-.072-.032c-.02-.006-.037-.015-.056-.023a1.816 1.816 0 0 1-.118-.05c-.018-.006-.034-.012-.05-.02a.712.712 0 0 1-.087-.033l-.048-.015c-.043-.014-.083-.03-.122-.042-.007-.002-.01-.002-.01-.004-.048-.014-.094-.025-.142-.04l-.032-.01c-.042-.01-.08-.022-.118-.033-.01 0-.02-.004-.028-.006a3.506 3.506 0 0 0-.295-.063c-.01 0-.02-.004-.03-.006l-.128-.02c-.008-.003-.016-.003-.025-.005-.05-.007-.102-.015-.15-.02-.01 0-.018-.003-.028-.003-.04-.006-.078-.01-.116-.013l-.188.018"/></defs><clipPath id="bu"><use xlink:href="#bt" overflow="visible"/></clipPath><g clip-path="url(#bu)"><defs><path id="bv" d="M20.124-2.295l4.773 27.074L3.07 28.625-1.7 1.552z"/></defs><clipPath id="bw"><use xlink:href="#bv" overflow="visible"/></clipPath><linearGradient id="bx" gradientUnits="userSpaceOnUse" x1="-191.084" y1="396.43" x2="-190.084" y2="396.43" gradientTransform="scale(22.2972) rotate(-100 71.535 -278.094)"><stop offset="0" stop-color="#004f91"/><stop offset=".104" stop-color="#004f91"/><stop offset="1" stop-color="#007cc1"/></linearGradient><path clip-path="url(#bw)" fill="url(#bx)" d="M3.08 28.627L-1.696 1.552l21.82-3.847 4.773 27.074z"/></g><defs><path id="by" d="M47.976 7c-1.02 3.268-1.846 5.964-2.565 8.183C48.21 11.33 50.97 6.485 53.595.89c-3.063.964-4.698 3.165-5.618 6.11"/></defs><clipPath id="bz"><use xlink:href="#by" overflow="visible"/></clipPath><g clip-path="url(#bz)"><defs><path id="bA" d="M45.27.772h8.183V15.06H45.27z"/></defs><clipPath id="bB"><use xlink:href="#bA" overflow="visible"/></clipPath><linearGradient id="bC" gradientUnits="userSpaceOnUse" x1="-191.084" y1="396.43" x2="-190.084" y2="396.43" gradientTransform="matrix(0 -11.4754 -11.4754 0 4598.543 -2180.988)"><stop offset="0" stop-color="#0095db"/><stop offset=".484" stop-color="#0094da"/><stop offset=".722" stop-color="#0091d5"/><stop offset=".874" stop-color="#008dce"/><stop offset="1" stop-color="#008dce"/></linearGradient><path clip-path="url(#bB)" fill="url(#bC)" d="M45.27.772h8.182v14.284h-8.18z"/></g><defs><filter id="bD" filterUnits="userSpaceOnUse" x="40.637" y="-2.2" width="23.276" height="29.202"><feFlood result="back" flood-color="#fff" flood-opacity="1"/><feBlend in="SourceGraphic" in2="back"/></filter></defs><mask maskUnits="userSpaceOnUse" x="40.637" y="-2.2" width="23.276" height="29.202" id="bN"><g filter="url(#bD)"><defs><path id="bE" d="M38.048-1.808h35.49v12.365h-35.49z"/></defs><clipPath id="bF"><use xlink:href="#bE" overflow="visible"/></clipPath><g enable-background="new"><defs><path id="bG" d="M38.048-1.808h35.49v12.365h-35.49z"/></defs><clipPath id="bH" clip-path="url(#bF)"><use xlink:href="#bG" overflow="visible"/></clipPath><defs><path id="bI" d="M38.048-1.808h35.487v12.365H38.048z"/></defs><clipPath id="bJ" clip-path="url(#bH)"><use xlink:href="#bI" overflow="visible"/></clipPath><defs><path id="bK" d="M38.237-1.69h35.477v12.366H38.237z"/></defs><clipPath id="bL" clip-path="url(#bJ)"><use xlink:href="#bK" overflow="visible"/></clipPath><linearGradient id="bM" gradientUnits="userSpaceOnUse" x1="-191.084" y1="396.43" x2="-190.084" y2="396.43" gradientTransform="matrix(0 12.3654 12.3654 0 -4846.05 2361.15)"><stop offset="0"/><stop offset="1" stop-color="#FFF"/></linearGradient><path clip-path="url(#bL)" fill="url(#bM)" d="M38.237-1.69h35.477v12.366H38.237z"/></g></g></mask><g mask="url(#bN)"><defs><path id="bO" d="M45.07.36h15.055v24.055H45.07z"/></defs><clipPath id="bP"><use xlink:href="#bO" overflow="visible"/></clipPath><g clip-path="url(#bP)"><defs><path id="bQ" d="M45.5 24.21a8.715 8.715 0 0 1-.427.205c5.445-2.43 11.94-12.062 15.05-24.055h-.63C52.35 13.124 50.05 21.667 45.5 24.21"/></defs><clipPath id="bR"><use xlink:href="#bQ" overflow="visible"/></clipPath><g clip-path="url(#bR)"><defs><path id="bS" d="M40.638 23.706L45.208-2.2l18.707 3.3-4.57 25.906z"/></defs><clipPath id="bT"><use xlink:href="#bS" overflow="visible"/></clipPath><linearGradient id="bU" gradientUnits="userSpaceOnUse" x1="-191.084" y1="396.43" x2="-190.084" y2="396.43" gradientTransform="scale(26.8698) rotate(100 -260.838 -117.205)"><stop offset="0" stop-color="#00a1de"/><stop offset=".357" stop-color="#00a1de"/><stop offset=".962" stop-color="#0080c8"/><stop offset="1" stop-color="#0080c8"/></linearGradient><path clip-path="url(#bT)" fill="url(#bU)" d="M63.913 1.1L59.345 27l-18.708-3.298L45.205-2.2z"/></g></g></g><path fill="#0090D7" d="M41.944 23.14c1.185-1.447 2.15-3.906 3.467-7.957-1.518 2.087-3.048 3.88-4.58 5.346 0 .003 0 .007-.004.012.334 1 .7 1.883 1.118 2.597"/><path fill="#0063AF" d="M41.944 23.14c-.403.492-.83.866-1.306 1.144a5.07 5.07 0 0 1-.316.17c.5.27 1.05.45 1.66.523h.005c.09.01.178.018.27.024h.018c.042.004.086.004.13.007h.018l.134.002c.05 0 .097-.002.145-.003a.35.35 0 0 1 .044-.003l.102-.003a.402.402 0 0 0 .05-.005c.032 0 .066-.004.1-.006.004 0 .007 0 .01-.004l.037-.002.106-.01.01-.002a.354.354 0 0 1 .032-.005c.038-.006.077-.01.113-.017.012 0 .022-.003.034-.004.04-.005.084-.013.127-.02h.007c.004-.003.01-.003.012-.003.086-.018.17-.034.255-.054-.7-.26-1.29-.868-1.796-1.73"/><path fill="#0056A4" d="M31.904 25.01c.51 0 1.024-.05 1.54-.15a9.73 9.73 0 0 0 1.438-.387 5.27 5.27 0 0 0 2.338.537h-5.316z"/><path fill="#0056A4" d="M37.22 25.01c1.26 0 2.255-.15 3.102-.557.5.27 1.05.452 1.66.523h.005c.09.01.178.018.27.024h.018c.042.003.086.003.13.006h.018l.134.002H37.22z"/><path fill="#005AA7" d="M42.558 25.01c.05 0 .097-.002.145-.003a.35.35 0 0 1 .044-.003c.033 0 .067-.003.102-.003a.402.402 0 0 0 .05-.005c.03 0 .065-.004.098-.006.005 0 .007 0 .01-.003.014 0 .025-.003.04-.003l.104-.01c.002 0 .004-.002.01-.002a.354.354 0 0 1 .03-.005c.04-.006.078-.01.114-.017.012 0 .022-.002.034-.004.042-.005.085-.013.128-.02h.006c.005-.003.01-.003.013-.003.086-.017.17-.034.255-.054.247.09.503.135.78.135l-1.964.004z"/><path fill="#005CA2" d="M40.826 20.542l-.002-.007c-.56.536-1.12 1.027-1.68 1.472-.29.232-.582.452-.876.66.247.293.497.568.76.82a5.9 5.9 0 0 0 1.295.967 5.37 5.37 0 0 0 .316-.17 4.826 4.826 0 0 0 1.305-1.145c-.418-.715-.785-1.598-1.12-2.598"/><g><defs><path id="bV" d="M57.498.36H54.85c-.09 0-.177.002-.264.003-.085 0-.167.003-.25.003h-.006c-.17.007-.338.014-.502.024-.078.166-.158.333-.234.5-2.625 5.593-5.383 10.44-8.183 14.292-1.316 4.05-2.28 6.51-3.466 7.956.507.864 1.095 1.47 1.796 1.73.02-.007.037-.01.055-.014.004-.002.008-.002.012-.002.012-.002.024-.007.038-.008.03-.007.06-.013.088-.023.02-.003.034-.008.053-.013l.08-.02a.277.277 0 0 1 .048-.015c.04-.013.078-.02.117-.034a.263.263 0 0 1 .06-.02c.02-.007.044-.014.064-.023.024-.007.047-.012.067-.02.02-.005.04-.014.056-.022.046-.016.09-.03.138-.048.012-.003.024-.01.037-.014.03-.01.058-.02.085-.032.01-.003.023-.01.036-.013.098-.04.196-.08.295-.125l.01-.004c.14-.063.283-.132.424-.205C50.05 21.67 52.35 13.126 59.494.36h-1.997z"/></defs><clipPath id="bW"><use xlink:href="#bV" overflow="visible"/></clipPath><g clip-path="url(#bW)"><defs><path id="bX" d="M42.094.508h17.55v24.51h-17.55z"/></defs><clipPath id="bY"><use xlink:href="#bX" overflow="visible"/></clipPath><linearGradient id="bZ" gradientUnits="userSpaceOnUse" x1="-191.084" y1="396.43" x2="-190.084" y2="396.43" gradientTransform="matrix(0 25.0348 25.0348 0 -9873.677 4784.183)"><stop offset="0" stop-color="#0086cb"/><stop offset=".5" stop-color="#0083c6"/><stop offset="1" stop-color="#004b8b"/></linearGradient><path clip-path="url(#bY)" fill="url(#bZ)" d="M42.094.508H59.64v24.505H42.093z"/></g></g><defs><filter id="ca" filterUnits="userSpaceOnUse" x="17.294" y="-2.059" width="11.607" height="7.11"><feFlood result="back" flood-color="#fff" flood-opacity="1"/><feBlend in="SourceGraphic" in2="back"/></filter></defs><mask maskUnits="userSpaceOnUse" x="17.294" y="-2.059" width="11.607" height="7.11" id="ck"><g filter="url(#ca)"><defs><path id="cb" d="M12.832-.096h15.064v3.472H12.832z"/></defs><clipPath id="cc"><use xlink:href="#cb" overflow="visible"/></clipPath><g enable-background="new"><defs><path id="cd" d="M12.832-.096h15.064v3.472H12.832z"/></defs><clipPath id="ce" clip-path="url(#cc)"><use xlink:href="#cd" overflow="visible"/></clipPath><defs><path id="cf" d="M12.835-.096h15.062v3.472H12.835z"/></defs><clipPath id="cg" clip-path="url(#ce)"><use xlink:href="#cf" overflow="visible"/></clipPath><defs><path id="ch" d="M12.945-.007h15.06v3.472h-15.06z"/></defs><clipPath id="ci" clip-path="url(#cg)"><use xlink:href="#ch" overflow="visible"/></clipPath><linearGradient id="cj" gradientUnits="userSpaceOnUse" x1="-191.084" y1="396.43" x2="-190.084" y2="396.43" gradientTransform="matrix(0 -3.4718 -3.4718 0 1396.814 -659.948)"><stop offset="0" stop-color="#FFF"/><stop offset=".144" stop-color="#fbfbfb"/><stop offset=".34" stop-color="#EEE"/><stop offset=".566" stop-color="#d9d9d9"/><stop offset=".813" stop-color="#bababa"/><stop offset="1" stop-color="#9d9d9d"/></linearGradient><path clip-path="url(#ci)" fill="url(#cj)" d="M12.945-.006h15.06v3.47h-15.06z"/></g></g></mask><g mask="url(#ck)"><defs><path id="cl" d="M17.434.894H28.28v2.33H17.435z"/></defs><clipPath id="cm"><use xlink:href="#cl" overflow="visible"/></clipPath><path clip-path="url(#cm)" fill="#82C8EC" d="M17.985.92c.01 0 .022.002.033.004.026 0 .055.004.083.01a6.89 6.89 0 0 1 .178.023c.01 0 .018 0 .026.004l.127.022a5.464 5.464 0 0 1 .326.07l.028.006c.04.01.078.022.12.034.01.003.02.005.03.01.05.013.094.025.142.04.002.002.004.002.01.004l.123.042c.015.005.03.012.046.016l.087.036a.37.37 0 0 1 .05.017l.116.05c.02.007.037.016.056.024.022.012.046.023.07.03a3.675 3.675 0 0 1 .125.062c.507.25.974.58 1.405.984a4.57 4.57 0 0 1 .498-.453c-.944-.67-2.015-1.05-3.25-1.05a5.21 5.21 0 0 0-.43.018"/><path clip-path="url(#cm)" fill="#50BEEA" d="M21.167 2.407c.264.247.518.52.758.817.23-.162.462-.316.692-.462a7.46 7.46 0 0 0-.953-.808c-.17.135-.337.286-.497.453"/><g clip-path="url(#cm)"><defs><path id="cn" d="M17.985.92c.145-.01.287-.017.43-.017 1.235 0 2.306.382 3.25 1.05.998-.785 2.202-1.06 3.876-1.06h-8.104c.186 0 .37.01.55.028"/></defs><clipPath id="co"><use xlink:href="#cn" overflow="visible"/></clipPath><g clip-path="url(#co)"><defs><path id="cp" d="M24.585 4.736l-7.29-3.023 1.564-3.77L26.147.964z"/></defs><clipPath id="cq"><use xlink:href="#cp" overflow="visible"/></clipPath><linearGradient id="cr" gradientUnits="userSpaceOnUse" x1="-191.084" y1="396.43" x2="-190.084" y2="396.43" gradientTransform="scale(6.243) rotate(22.527 -1089.165 289.136)"><stop offset="0" stop-color="#a1d4ef"/><stop offset=".703" stop-color="#3eb9e7"/><stop offset="1" stop-color="#3eb9e7"/></linearGradient><path clip-path="url(#cq)" fill="url(#cr)" d="M18.86-2.056L26.148.967l-1.563 3.768-7.288-3.022z"/></g></g><g clip-path="url(#cm)"><defs><path id="cs" d="M25.54.894c-1.673 0-2.877.275-3.875 1.06.33.236.65.507.953.81 1.387-.884 2.762-1.467 4.117-1.723a8.296 8.296 0 0 1 1.542-.146H25.54z"/></defs><clipPath id="ct"><use xlink:href="#cs" overflow="visible"/></clipPath><g clip-path="url(#ct)"><defs><path id="cu" d="M28.898 2.246L22.713 5.05l-1.83-4.036L27.07-1.79z"/></defs><clipPath id="cv"><use xlink:href="#cu" overflow="visible"/></clipPath><linearGradient id="cw" gradientUnits="userSpaceOnUse" x1="-191.084" y1="396.43" x2="-190.084" y2="396.43" gradientTransform="scale(5.0006) rotate(-24.386 825.1 -650.324)"><stop offset="0" stop-color="#7ec8ec"/><stop offset=".335" stop-color="#7ec8ec"/><stop offset=".562" stop-color="#57bdea"/><stop offset=".839" stop-color="#00b2e8"/><stop offset="1" stop-color="#00aee7"/></linearGradient><path clip-path="url(#cv)" fill="url(#cw)" d="M20.886 1.014L27.07-1.79l1.83 4.036-6.185 2.803z"/></g></g></g><defs><filter id="cx" filterUnits="userSpaceOnUse" x="40.761" y=".28" width="13.067" height="20.249"><feFlood result="back" flood-color="#fff" flood-opacity="1"/><feBlend in="SourceGraphic" in2="back"/></filter></defs><mask maskUnits="userSpaceOnUse" x="40.761" y=".28" width="13.067" height="20.249" id="cH"><g filter="url(#cx)"><defs><path id="cy" d="M29.878 2.246h35.49V21.72h-35.49z"/></defs><clipPath id="cz"><use xlink:href="#cy" overflow="visible"/></clipPath><g enable-background="new"><defs><path id="cA" d="M29.878 2.246h35.49V21.72h-35.49z"/></defs><clipPath id="cB" clip-path="url(#cz)"><use xlink:href="#cA" overflow="visible"/></clipPath><defs><path id="cC" d="M29.88 2.246h35.486V21.72H29.88z"/></defs><clipPath id="cD" clip-path="url(#cB)"><use xlink:href="#cC" overflow="visible"/></clipPath><defs><path id="cE" d="M29.954 2.307h35.48V21.78h-35.48z"/></defs><clipPath id="cF" clip-path="url(#cD)"><use xlink:href="#cE" overflow="visible"/></clipPath><linearGradient id="cG" gradientUnits="userSpaceOnUse" x1="-191.084" y1="396.43" x2="-190.084" y2="396.43" gradientTransform="matrix(0 -19.4727 -19.4727 0 7767.252 -3699.146)"><stop offset="0"/><stop offset="1" stop-color="#FFF"/></linearGradient><path clip-path="url(#cF)" fill="url(#cG)" d="M29.954 2.307h35.48V21.78h-35.48z"/></g></g></mask><g mask="url(#cH)"><defs><path id="cI" d="M40.833.39h12.99v20.14h-12.99z"/></defs><clipPath id="cJ"><use xlink:href="#cI" overflow="visible"/></clipPath><g clip-path="url(#cJ)"><defs><path id="cK" d="M45.41 15.185c.72-2.22 1.545-4.916 2.568-8.185.92-2.946 2.55-5.147 5.615-6.11.08-.163.156-.333.235-.5-4.993.3-7.326 2.84-8.5 6.602-2.054 6.567-3.298 10.825-4.496 13.537 1.53-1.465 3.06-3.26 4.58-5.345"/></defs><clipPath id="cL"><use xlink:href="#cK" overflow="visible"/></clipPath><g clip-path="url(#cL)"><defs><path id="cM" d="M40.756.28h13.002v20.128H40.756z"/></defs><clipPath id="cN"><use xlink:href="#cM" overflow="visible"/></clipPath><linearGradient id="cO" gradientUnits="userSpaceOnUse" x1="-191.084" y1="396.43" x2="-190.084" y2="396.43" gradientTransform="matrix(0 24.4865 24.4865 0 -9659.942 4680.538)"><stop offset="0" stop-color="#009ddf"/><stop offset=".878" stop-color="#00a3e0"/><stop offset="1" stop-color="#00a4e0"/></linearGradient><path clip-path="url(#cN)" fill="url(#cO)" d="M40.756.28h12.99v20.128h-12.99z"/></g></g></g><path d="M103.555 2.595h.14c.097 0 .186.09.27.272l.164.362h.257l-.2-.403c-.08-.167-.165-.26-.25-.28v-.005a.514.514 0 0 0 .283-.148.37.37 0 0 0 .102-.265.366.366 0 0 0-.124-.286c-.098-.085-.24-.126-.43-.126h-.424V3.23h.212v-.635zm0-.696h.188c.13 0 .223.02.278.065.05.04.073.102.073.19 0 .172-.103.258-.312.258h-.225V1.9zm.25 1.763c.336 0 .62-.114.85-.34a1.13 1.13 0 0 0 .345-.84c0-.342-.115-.623-.348-.846a1.164 1.164 0 0 0-.838-.327c-.34 0-.624.115-.852.342a1.14 1.14 0 0 0-.342.84c0 .338.11.617.336.84.225.22.508.33.848.33zm-.747-1.92c.2-.202.45-.302.752-.302.292 0 .54.1.743.3.203.2.304.45.304.75 0 .298-.102.55-.306.75a1.014 1.014 0 0 1-.74.303c-.293 0-.54-.1-.744-.3a1.016 1.016 0 0 1-.308-.754c0-.297.1-.546.3-.748zm-36.04.77c0-.563-.013-.97-.035-1.22H67c.062.293.125.507.185.64l2.134 4.765h.356l2.13-4.8c.055-.125.118-.327.187-.605h.017c-.04.477-.062.88-.062 1.21v4.195h.733V.453h-.916L69.807 4.79c-.076.168-.174.425-.3.767h-.03c-.045-.17-.14-.42-.283-.748L67.277.453h-.967V6.7h.706V2.512zm7.57-1.408c.132 0 .243-.045.334-.135.09-.09.138-.2.138-.33a.44.44 0 0 0-.138-.33.456.456 0 0 0-.333-.132.455.455 0 0 0-.33.133c-.09.09-.136.2-.136.33a.456.456 0 0 0 .465.466zM74.225 6.7h.712V2.237h-.712v4.46zm3.942.106c.47 0 .88-.104 1.222-.314v-.68a1.795 1.795 0 0 1-1.098.384c-.46 0-.828-.15-1.103-.453-.274-.304-.413-.713-.413-1.233 0-.54.152-.974.45-1.297.287-.316.656-.475 1.11-.475.378 0 .73.115 1.063.35v-.733c-.3-.15-.644-.227-1.032-.227-.708 0-1.272.225-1.69.675-.422.45-.63 1.04-.63 1.77 0 .653.19 1.185.574 1.596.39.424.905.636 1.546.636zm3.517-4.402c-.217.178-.378.428-.483.754h-.018v-.92h-.713v4.46h.712V4.425c0-.518.11-.922.336-1.215.197-.262.44-.392.73-.392.24 0 .42.047.546.144v-.74a1.165 1.165 0 0 0-.428-.062c-.252 0-.48.082-.683.244zm3.6 4.402c.68 0 1.22-.215 1.622-.645.4-.428.6-.998.6-1.71 0-.722-.187-1.29-.56-1.704-.374-.41-.893-.618-1.558-.618-.676 0-1.215.198-1.62.592-.435.425-.652 1.024-.652 1.8 0 .68.192 1.226.574 1.64.39.43.924.646 1.593.646zM84.27 3.174c.266-.29.622-.435 1.066-.435.45 0 .8.143 1.05.43.258.3.387.735.387 1.306 0 .545-.12.966-.362 1.264-.245.304-.604.457-1.074.457-.454 0-.815-.15-1.084-.45-.27-.3-.404-.72-.404-1.253 0-.57.14-1.01.422-1.32zm6.366 3.24c.274-.24.41-.543.41-.908 0-.332-.11-.604-.328-.818-.167-.17-.442-.335-.823-.494-.34-.145-.564-.27-.67-.37-.12-.11-.18-.264-.18-.46 0-.184.073-.334.215-.45.142-.116.332-.174.568-.174.382 0 .718.105 1.012.318v-.72c-.282-.14-.6-.21-.954-.21-.462 0-.84.124-1.133.37-.292.246-.44.554-.44.924 0 .33.095.6.284.806.156.174.423.342.796.506.362.16.607.295.732.41a.552.552 0 0 1 .188.43c0 .415-.283.624-.85.624-.422 0-.808-.143-1.158-.427v.77c.314.18.684.268 1.107.268.515-.002.925-.133 1.224-.394zm4.904-.253c.4-.428.603-.998.603-1.71 0-.722-.19-1.29-.56-1.704-.375-.41-.893-.618-1.558-.618-.677 0-1.218.198-1.62.592-.435.425-.654 1.024-.654 1.8 0 .68.193 1.226.576 1.64.39.43.924.645 1.594.645.68 0 1.22-.214 1.62-.644zm-3.056-1.667c0-.57.14-1.008.42-1.32.268-.29.624-.434 1.068-.434.45 0 .8.143 1.05.43.258.3.387.735.387 1.306 0 .545-.12.966-.363 1.264-.246.304-.605.457-1.075.457-.453 0-.814-.15-1.086-.45-.268-.3-.402-.72-.402-1.254zM97.352 6.7h.714V2.842h1.046v-.605h-1.046V1.55c0-.63.25-.945.75-.945.176 0 .333.04.473.117V.078A1.383 1.383 0 0 0 98.77 0c-.38 0-.7.12-.962.362-.306.277-.456.663-.456 1.153v.723h-.76v.605h.76V6.7zm2.916-1.22c0 .878.39 1.317 1.168 1.317.277 0 .5-.048.67-.145v-.608a.758.758 0 0 1-.46.145c-.24 0-.408-.064-.51-.192-.104-.124-.152-.338-.152-.637V2.844h1.123v-.605h-1.123V.918c-.25.08-.488.16-.715.23v1.09h-.767v.605h.766V5.48zm-22.68 14.812c0 1.134.04 1.938.116 2.408h-.044a16.28 16.28 0 0 0-.664-1.095l-8.2-12.848h-2.49v16.377h1.92V13.3c0-1.147-.03-1.898-.09-2.248h.068c.145.373.315.714.513 1.028l8.452 13.053h2.328V8.757H77.59v11.535zm7.454-2.616h5.916V15.94h-5.916v-5.448h6.384V8.757h-8.303v16.377h8.68V23.4h-6.76v-5.724zm8.563-7.183h4.726v14.64h1.92v-14.64h4.717V8.757H93.605v1.736zM62.22 22.816c-.35 0-.646.125-.89.377-.245.25-.365.555-.365.914 0 .35.12.652.365.907.244.255.54.383.89.383.358 0 .664-.128.915-.383a1.25 1.25 0 0 0 .377-.907c0-.35-.125-.654-.377-.91a1.232 1.232 0 0 0-.915-.38zm-11.567.87h.46v1.423h.187v-1.424h.458v-.17h-1.104v.17zm2.246.937a3.788 3.788 0 0 0-.078.196h-.007a1.367 1.367 0 0 0-.072-.192l-.488-1.11h-.246v1.59h.177v-1.066c0-.144-.002-.247-.008-.312h.003c.017.076.033.13.048.165l.545 1.214h.09l.543-1.224c.015-.032.03-.083.05-.155h.003c-.01.123-.014.226-.014.31v1.07h.186v-1.592h-.235l-.498 1.105z"/></svg>