<svg xmlns="http://www.w3.org/2000/svg" width="66" height="35" viewBox="0 0 66 35"><g fill="#020202"><path d="M37.144 18.53c-3.14-2.233-7.327-4.834-7.4-4.782-2.267-1.34-2.597-2.86-2.66-3.748.447-8.363 12.2-3.497 12.2-3.497V2.09c-1.915-.526-5.03-1.71-9.625-.724-7.38 1.586-8.31 11.48-3.586 14.684-.017.012 7.81 5.146 7.827 5.155 2.358 1.742 3.268 2.92 3.268 4.294-.49 8.36-13.726 3.075-13.726 3.075v4.412c2.103.527 5.524 1.712 10.572.725 8.316-1.628 8.715-11.208 3.13-15.182zM64.745 1.188H61.17L43.5 1v4h16L48.583 34h4.464L65 1.188zM11.53 1h7.97v3h-7.97zM11.53 31h7.97v3h-7.97z"/><path d="M13.5 3h4v29h-4z"/><g><path d="M.583 1h7.86v3H.582zM.583 31h7.86v3H.582z"/><path d="M2.525 3H6.47v29H2.525z"/></g></g></svg>