<svg xmlns="http://www.w3.org/2000/svg" xmlns:xlink="http://www.w3.org/1999/xlink" width="40" height="35.493" viewBox="23.598 1.887 40 35.493"><path fill="#DADEE5" d="M28.642 17.723L32.235 4.99c7.298-3.094 10.803-1.344 13.962.85l-3.59 12.712c-3.162-2.183-7.14-2.99-13.965-.83"/><path fill="#DADEE5" d="M24.412 32.69l3.598-12.748c7.298-3.094 10.8-1.342 13.962.854l-3.59 12.708c-3.162-2.18-6.682-2.66-13.97-.813M40.258 34.832l3.59-12.708c3.16 2.182 8.23 3.96 15.525.864L55.777 35.72c-2.807 1.19-5.283 1.66-7.448 1.66-3.465-.002-6.13-1.196-8.072-2.548M44.482 19.876l3.59-12.71c3.16 2.184 8.23 3.96 15.525.868l-3.595 12.733c-2.806 1.19-5.28 1.658-7.448 1.658-3.463 0-6.128-1.198-8.072-2.55"/><linearGradient id="a" gradientUnits="userSpaceOnUse" x1="-530.217" y1="342.696" x2="-529.926" y2="342.696" gradientTransform="rotate(105 -382.507 70.05)"><stop offset="0" stop-color="#c8ae00"/><stop offset="1" stop-color="#ac970e"/></linearGradient><path fill="url(#a)" d="M54.47 34.368a.32.32 0 0 1-.122.118l-.008.002s-.062.01-.118-.036a.41.41 0 0 0 .187-.236s.084.068.06.152z"/><path fill="#C8AE00" d="M54.47 34.368c.01-.072-.068-.133-.068-.133l3.506-12.217s.06.05.075.088L54.47 34.368z"/><linearGradient id="b" gradientUnits="userSpaceOnUse" x1="-382.737" y1="276.942" x2="-382.506" y2="276.942" gradientTransform="matrix(0 1 1 0 -218.997 404.62)"><stop offset="0" stop-color="#baa300"/><stop offset=".006" stop-color="#baa300"/><stop offset="1" stop-color="#c8ae00"/></linearGradient><path fill="url(#b)" d="M57.98 22.113s-.01-.034-.074-.087c.028-.12.01-.145.01-.145l.006.005s.09.084.057.228z"/><linearGradient id="c" gradientUnits="userSpaceOnUse" x1="-223.12" y1="65.717" x2="-222.837" y2="65.717" gradientTransform="rotate(59.003 -159.987 225.82)"><stop offset="0" stop-color="#ebc900"/><stop offset=".006" stop-color="#ebc900"/><stop offset="1" stop-color="#ac970e"/></linearGradient><path fill="url(#c)" d="M57.63 21.818s-.097-.118-.294-.08c.01-.046.026-.1.09-.126.12-.018.176.014.202.04l.02.023c.015.072-.017.143-.017.143z"/><linearGradient id="d" gradientUnits="userSpaceOnUse" x1="-705.112" y1="381.139" x2="-704.972" y2="381.139" gradientTransform="rotate(130.002 -417.552 -1.82)"><stop offset="0" stop-color="#ebc900"/><stop offset=".006" stop-color="#ebc900"/><stop offset="1" stop-color="#ac970e"/></linearGradient><path fill="url(#d)" d="M57.628 21.65l.293.235c.017.078-.015.157-.015.157l-.29-.234s.03-.087.013-.157z"/><path fill="#AC970E" d="M54.088 34.012l3.526-12.22.297.236-3.5 12.214-.014.033z"/><linearGradient id="e" gradientUnits="userSpaceOnUse" x1="-1106.207" y1="126.897" x2="-1105.89" y2="126.897" gradientTransform="rotate(-175.998 -523.234 -66.68)"><stop offset="0" stop-color="#baa300"/><stop offset="1" stop-color="#ebc900"/></linearGradient><path fill="url(#e)" d="M53.916 34.23s-.14-.126-.114-.31c.188-.053.312.068.312.068s-.036.173-.198.242z"/><path fill="#EBC900" d="M57.35 21.75c-7.424 2.528-10.84 1.016-14.042-1.14.008-.028.027-.076.006-.128 3.203 2.155 6.744 3.626 14.112 1.13-.056.04-.064.09-.077.137z"/><path fill="#C8AE00" d="M42.75 20.767l.262-.19-3.584 12.465-.28.223.002-.03z"/><linearGradient id="f" gradientUnits="userSpaceOnUse" x1="-1186.802" y1="43.729" x2="-1186.458" y2="43.729" gradientTransform="rotate(-164.003 -567.72 -94.74)"><stop offset="0" stop-color="#c8ae00"/><stop offset=".1" stop-color="#c8ae00"/><stop offset=".2" stop-color="#FD0"/><stop offset=".35" stop-color="#FD0"/><stop offset="1" stop-color="#c8ae00"/></linearGradient><path fill="url(#f)" d="M39.734 33.102c-.105-.06-.226-.11-.326-.07L43 20.583a.332.332 0 0 1 .326.034l-3.592 12.486z"/><linearGradient id="g" gradientUnits="userSpaceOnUse" x1="-1147.362" y1="51.991" x2="-1147.034" y2="51.991" gradientTransform="rotate(-164.003 -540.17 -96.588)"><stop offset="0" stop-color="#ac970e"/><stop offset="1" stop-color="#FD0"/></linearGradient><path fill="url(#g)" d="M53.81 33.943l3.526-12.21.02-.012c.188-.02.275.082.275.082l-3.517 12.19c0 .002-.146-.115-.304-.05z"/><path fill="#AC970E" d="M54.348 34.486c-7.248 3.097-11.897 1.19-15.098-.964l.033-.03c3.203 2.157 8.13 3.952 14.94.945.056.046.125.05.125.05z"/><linearGradient id="h" gradientUnits="userSpaceOnUse" x1="-603.345" y1="361.983" x2="-602.956" y2="361.983" gradientTransform="rotate(114 -403.126 49.544)"><stop offset="0" stop-color="#baa300"/><stop offset="1" stop-color="#c8ae00"/></linearGradient><path fill="url(#h)" d="M54.113 33.99l.297.252s-.04.145-.202.218l-.302-.25a.403.403 0 0 0 .207-.22z"/><linearGradient id="i" gradientUnits="userSpaceOnUse" x1="-243.842" y1="-382.968" x2="-229.467" y2="-382.968" gradientTransform="matrix(1 0 0 -1 283.422 -348.5)"><stop offset="0" stop-color="#c8ae00"/><stop offset=".4" stop-color="#FD0"/><stop offset="1" stop-color="#c8ae00"/></linearGradient><path fill="url(#i)" d="M53.844 33.915c-.025.186.11.32.11.32-7.39 3.056-11.175 1.224-14.374-.945.056-.04.084-.072.12-.204l.053-.002c3.303 2.034 7.53 3.64 14.09.83z"/><path fill="#BAA300" d="M39.284 33.507l.296-.218c2.935 1.83 7.047 3.836 14.344.908l.302.253c-6.782 3.003-11.74 1.21-14.942-.943z"/><path fill="#C8AE00" d="M39.31 33.515l-.034.023s-.195-.107-.125-.305c.017.196.16.282.16.282z"/><linearGradient id="j" gradientUnits="userSpaceOnUse" x1="-1184.474" y1="-262.013" x2="-1184.129" y2="-262.013" gradientTransform="rotate(-132 -623.364 -124.75)"><stop offset="0" stop-color="#c8ae00"/><stop offset=".1" stop-color="#c8ae00"/><stop offset=".7" stop-color="#FD0"/><stop offset="1" stop-color="#c8ae00"/></linearGradient><path fill="url(#j)" d="M39.15 33.234l.278-.226c-.015.2.182.277.182.277l-.306.23c0 .002-.17-.08-.154-.28z"/><linearGradient id="k" gradientUnits="userSpaceOnUse" x1="-233.205" y1="140.738" x2="-232.866" y2="140.738" gradientTransform="rotate(61 -244.297 177.568)"><stop offset="0" stop-color="#c8ae00"/><stop offset=".4" stop-color="#ebc900"/><stop offset=".8" stop-color="#FD0"/><stop offset="1" stop-color="#c8ae00"/></linearGradient><path fill="url(#k)" d="M39.408 33.015c.1-.04.192.007.297.07-.037.13-.06.173-.115.216-.066-.04-.2-.12-.182-.285z"/><defs><path id="l" d="M43.315 20.61c3.2 2.154 6.67 3.648 14.04 1.11l-3.512 12.213c-6.484 2.85-10.86 1.138-14.14-.845l3.612-12.478"/></defs><clipPath id="m"><use xlink:href="#l" overflow="visible"/></clipPath><linearGradient id="n" gradientUnits="userSpaceOnUse" x1="-1148.101" y1="47.224" x2="-1134.243" y2="47.224" gradientTransform="rotate(-164.003 -541.132 -93.383)"><stop offset="0" stop-color="#ebc900"/><stop offset=".167" stop-color="#ffde00"/><stop offset=".333" stop-color="#ffe027"/><stop offset=".625" stop-color="#ebc900"/><stop offset="1" stop-color="#baa300"/></linearGradient><path clip-path="url(#m)" fill="url(#n)" d="M43.335 20.534c3.202 2.153 6.76 3.872 14.15.817L53.84 33.93c-7.392 3.06-10.94 1.326-14.14-.842l3.633-12.554z"/><path fill="#EBC900" d="M43.046 20.5l-.038.088-.264.19c.018-.08.22-.227.283-.27l.02-.01z"/><linearGradient id="o" gradientUnits="userSpaceOnUse" x1="-1139.011" y1="162.623" x2="-1138.681" y2="162.623" gradientTransform="rotate(-175.998 -544.636 -91.698)"><stop offset="0" stop-color="#ffde00"/><stop offset=".2" stop-color="#ffde00"/><stop offset=".525" stop-color="#FD0"/><stop offset="1" stop-color="#c8ae00"/></linearGradient><path fill="url(#o)" d="M43.315 20.61a.328.328 0 0 0-.322-.01l.04-.096c.12-.074.172-.074.283-.022.02.055.008.095 0 .128z"/><linearGradient id="p" gradientUnits="userSpaceOnUse" x1="-530.217" y1="342.696" x2="-529.926" y2="342.696" gradientTransform="rotate(105 -382.507 70.05)"><stop offset="0" stop-color="#c8ae00"/><stop offset="1" stop-color="#ac970e"/></linearGradient><path fill="url(#p)" d="M54.47 34.368a.32.32 0 0 1-.122.118l-.008.002s-.062.01-.118-.036a.41.41 0 0 0 .187-.236s.084.068.06.152z"/><path fill="#C8AE00" d="M54.47 34.368c.01-.072-.068-.133-.068-.133l3.506-12.217s.06.05.075.088L54.47 34.368z"/><linearGradient id="q" gradientUnits="userSpaceOnUse" x1="-382.737" y1="276.942" x2="-382.506" y2="276.942" gradientTransform="matrix(0 1 1 0 -218.997 404.62)"><stop offset="0" stop-color="#baa300"/><stop offset=".006" stop-color="#baa300"/><stop offset="1" stop-color="#c8ae00"/></linearGradient><path fill="url(#q)" d="M57.98 22.113s-.01-.034-.074-.087c.028-.12.01-.145.01-.145l.006.005s.09.084.057.228z"/><linearGradient id="r" gradientUnits="userSpaceOnUse" x1="-223.12" y1="65.717" x2="-222.837" y2="65.717" gradientTransform="rotate(59.003 -159.987 225.82)"><stop offset="0" stop-color="#ebc900"/><stop offset=".006" stop-color="#ebc900"/><stop offset="1" stop-color="#ac970e"/></linearGradient><path fill="url(#r)" d="M57.63 21.818s-.097-.118-.294-.08c.01-.046.026-.1.09-.126.12-.018.176.014.202.04l.02.023c.015.072-.017.143-.017.143z"/><linearGradient id="s" gradientUnits="userSpaceOnUse" x1="-705.112" y1="381.139" x2="-704.972" y2="381.139" gradientTransform="rotate(130.002 -417.552 -1.82)"><stop offset="0" stop-color="#ebc900"/><stop offset=".006" stop-color="#ebc900"/><stop offset="1" stop-color="#ac970e"/></linearGradient><path fill="url(#s)" d="M57.628 21.65l.293.235c.017.078-.015.157-.015.157l-.29-.234s.03-.087.013-.157z"/><path fill="#AC970E" d="M54.088 34.012l3.526-12.22.297.236-3.5 12.214-.014.033z"/><linearGradient id="t" gradientUnits="userSpaceOnUse" x1="-1106.207" y1="126.897" x2="-1105.89" y2="126.897" gradientTransform="rotate(-175.998 -523.234 -66.68)"><stop offset="0" stop-color="#baa300"/><stop offset="1" stop-color="#ebc900"/></linearGradient><path fill="url(#t)" d="M53.916 34.23s-.14-.126-.114-.31c.188-.053.312.068.312.068s-.036.173-.198.242z"/><path fill="#EBC900" d="M57.35 21.75c-7.424 2.528-10.84 1.016-14.042-1.14.008-.028.027-.076.006-.128 3.203 2.155 6.744 3.626 14.112 1.13-.056.04-.064.09-.077.137z"/><path fill="#C8AE00" d="M42.75 20.767l.262-.19-3.584 12.465-.28.223.002-.03z"/><linearGradient id="u" gradientUnits="userSpaceOnUse" x1="-1186.802" y1="43.729" x2="-1186.458" y2="43.729" gradientTransform="rotate(-164.003 -567.72 -94.74)"><stop offset="0" stop-color="#c8ae00"/><stop offset=".1" stop-color="#c8ae00"/><stop offset=".2" stop-color="#FD0"/><stop offset=".35" stop-color="#FD0"/><stop offset="1" stop-color="#c8ae00"/></linearGradient><path fill="url(#u)" d="M39.734 33.102c-.105-.06-.226-.11-.326-.07L43 20.583a.332.332 0 0 1 .326.034l-3.592 12.486z"/><linearGradient id="v" gradientUnits="userSpaceOnUse" x1="-1147.362" y1="51.991" x2="-1147.034" y2="51.991" gradientTransform="rotate(-164.003 -540.17 -96.588)"><stop offset="0" stop-color="#ac970e"/><stop offset="1" stop-color="#FD0"/></linearGradient><path fill="url(#v)" d="M53.81 33.943l3.526-12.21.02-.012c.188-.02.275.082.275.082l-3.517 12.19c0 .002-.146-.115-.304-.05z"/><path fill="#AC970E" d="M54.348 34.486c-7.248 3.097-11.897 1.19-15.098-.964l.033-.03c3.203 2.157 8.13 3.952 14.94.945.056.046.125.05.125.05z"/><linearGradient id="w" gradientUnits="userSpaceOnUse" x1="-603.345" y1="361.983" x2="-602.956" y2="361.983" gradientTransform="rotate(114 -403.126 49.544)"><stop offset="0" stop-color="#baa300"/><stop offset="1" stop-color="#c8ae00"/></linearGradient><path fill="url(#w)" d="M54.113 33.99l.297.252s-.04.145-.202.218l-.302-.25a.403.403 0 0 0 .207-.22z"/><linearGradient id="x" gradientUnits="userSpaceOnUse" x1="-243.842" y1="-382.968" x2="-229.467" y2="-382.968" gradientTransform="matrix(1 0 0 -1 283.422 -348.5)"><stop offset="0" stop-color="#c8ae00"/><stop offset=".4" stop-color="#FD0"/><stop offset="1" stop-color="#c8ae00"/></linearGradient><path fill="url(#x)" d="M53.844 33.915c-.025.186.11.32.11.32-7.39 3.056-11.175 1.224-14.374-.945.056-.04.084-.072.12-.204l.053-.002c3.303 2.034 7.53 3.64 14.09.83z"/><path fill="#BAA300" d="M39.284 33.507l.296-.218c2.935 1.83 7.047 3.836 14.344.908l.302.253c-6.782 3.003-11.74 1.21-14.942-.943z"/><path fill="#C8AE00" d="M39.31 33.515l-.034.023s-.195-.107-.125-.305c.017.196.16.282.16.282z"/><linearGradient id="y" gradientUnits="userSpaceOnUse" x1="-1184.474" y1="-262.013" x2="-1184.129" y2="-262.013" gradientTransform="rotate(-132 -623.364 -124.75)"><stop offset="0" stop-color="#c8ae00"/><stop offset=".1" stop-color="#c8ae00"/><stop offset=".7" stop-color="#FD0"/><stop offset="1" stop-color="#c8ae00"/></linearGradient><path fill="url(#y)" d="M39.15 33.234l.278-.226c-.015.2.182.277.182.277l-.306.23c0 .002-.17-.08-.154-.28z"/><linearGradient id="z" gradientUnits="userSpaceOnUse" x1="-233.205" y1="140.738" x2="-232.866" y2="140.738" gradientTransform="rotate(61 -244.297 177.568)"><stop offset="0" stop-color="#c8ae00"/><stop offset=".4" stop-color="#ebc900"/><stop offset=".8" stop-color="#FD0"/><stop offset="1" stop-color="#c8ae00"/></linearGradient><path fill="url(#z)" d="M39.408 33.015c.1-.04.192.007.297.07-.037.13-.06.173-.115.216-.066-.04-.2-.12-.182-.285z"/><defs><path id="A" d="M43.315 20.61c3.2 2.154 6.67 3.648 14.04 1.11l-3.512 12.213c-6.484 2.85-10.86 1.138-14.14-.845l3.612-12.478"/></defs><clipPath id="B"><use xlink:href="#A" overflow="visible"/></clipPath><linearGradient id="C" gradientUnits="userSpaceOnUse" x1="-1148.101" y1="47.224" x2="-1134.243" y2="47.224" gradientTransform="rotate(-164.003 -541.132 -93.383)"><stop offset="0" stop-color="#ebc900"/><stop offset=".167" stop-color="#ffde00"/><stop offset=".333" stop-color="#ffe027"/><stop offset=".625" stop-color="#ebc900"/><stop offset="1" stop-color="#baa300"/></linearGradient><path clip-path="url(#B)" fill="url(#C)" d="M43.335 20.534c3.202 2.153 6.76 3.872 14.15.817L53.84 33.93c-7.392 3.06-10.94 1.326-14.14-.842l3.633-12.554z"/><path fill="#EBC900" d="M43.046 20.5l-.038.088-.264.19c.018-.08.22-.227.283-.27l.02-.01z"/><linearGradient id="D" gradientUnits="userSpaceOnUse" x1="-1139.011" y1="162.623" x2="-1138.681" y2="162.623" gradientTransform="rotate(-175.998 -544.636 -91.698)"><stop offset="0" stop-color="#ffde00"/><stop offset=".2" stop-color="#ffde00"/><stop offset=".525" stop-color="#FD0"/><stop offset="1" stop-color="#c8ae00"/></linearGradient><path fill="url(#D)" d="M43.315 20.61a.328.328 0 0 0-.322-.01l.04-.096c.12-.074.172-.074.283-.022.02.055.008.095 0 .128z"/><path fill="#244A99" d="M23.9 31.498c.026.002.07-.02.07-.02.05.036.093.062.093.062s-.08.018-.162-.042zM37.596 32.143s.05.047.105.03l-.222.13c-.07.03-.143-.02-.143-.02l.26-.14z"/><path fill="#244A99" d="M23.974 31.483s-.043.02-.067.02l-.243-.186-.006-.008a.2.2 0 0 0 .092.004l.224.17z"/><path fill="#2A5DA7" d="M37.72 31.962c.025.02.052.037.077.088-.014.068-.07.102-.1.128-.047.01-.11-.035-.11-.035.036-.026.097-.07.133-.18zM27.268 18.578v.003h-.073v-.002z"/><path fill="#2A5DA7" d="M27.197 18.57l.04.01-3.593 12.57-.042-.01z"/><path fill="#2A5DA7" d="M23.664 31.314a.178.178 0 0 1-.062-.173l.044-.017c-.018.093.05.16.1.188 0 .002-.036.023-.082.004z"/><linearGradient id="E" gradientUnits="userSpaceOnUse" x1="-199.187" y1="-392.795" x2="-185.102" y2="-392.795" gradientTransform="matrix(1 0 0 -1 222.826 -362.005)"><stop offset="0" stop-color="#9aaeda"/><stop offset=".45" stop-color="#dee4f3"/><stop offset="1" stop-color="#7695cc"/></linearGradient><path fill="url(#E)" d="M37.594 32.152c-3.206-2.155-6.53-3.808-13.843-.835-.05-.027-.125-.103-.108-.195 7.426-3.16 10.875-1.313 14.083.846-.034.113-.096.157-.13.184z"/><path fill="#244A99" d="M23.96 31.473c7.04-2.752 10.193-1.255 13.397.808-1.92-1.233-3.895-2.222-6.62-2.24-1.824-.01-3.98.454-6.68 1.5.003 0-.053-.024-.098-.067z"/><path fill="#2A5DA7" d="M37.597 32.15l-.26.137c-3.203-2.063-6.447-3.49-13.363-.806l-.23-.168c7.315-2.97 10.647-1.317 13.853.838z"/><path fill="#244A99" d="M37.718 31.97l3.698-12.655c.04.027.06.05.08.072l-3.7 12.672a.198.198 0 0 0-.078-.09z"/><path fill="#7695CC" d="M41.415 19.32c-3.203-2.17-6.817-3.743-14.186-.735a.988.988 0 0 1 .033-.093c7.4-3.06 10.974-1.437 14.178.735l-.025.092z"/><defs><path id="F" d="M37.722 31.972c-3.205-2.155-6.683-3.907-14.08-.85l3.59-12.545c7.4-3.062 10.986-1.433 14.19.738l-3.7 12.657"/></defs><clipPath id="G"><use xlink:href="#F" overflow="visible"/></clipPath><linearGradient id="H" gradientUnits="userSpaceOnUse" x1="-1192.956" y1="42.27" x2="-1179.112" y2="42.27" gradientTransform="rotate(-164.003 -572.027 -94.362)"><stop offset="0" stop-color="#2a5da7"/><stop offset=".4" stop-color="#9aaeda"/><stop offset=".725" stop-color="#c3ceea"/><stop offset="1" stop-color="#7695cc"/></linearGradient><path clip-path="url(#G)" fill="url(#H)" d="M37.725 32c-3.208-2.156-6.693-3.934-14.09-.872l3.622-12.656c7.4-3.06 10.956-1.328 14.16.844L37.725 32z"/><path fill="#244A99" d="M41.44 19.227l.006.003c.045.032.063.097.05.155v.008a.433.433 0 0 0-.082-.072l.025-.093z"/><linearGradient id="I" gradientUnits="userSpaceOnUse" x1="-373.237" y1="362.987" x2="-373.147" y2="362.987" gradientTransform="matrix(0 1 1 0 -335.756 391.728)"><stop offset="0" stop-color="#9aaeda"/><stop offset="1" stop-color="#2a5da7"/></linearGradient><path fill="url(#I)" d="M27.236 18.58l-.04-.01c.015-.055.052-.07.067-.078h.005s-.013.026-.032.09z"/><path fill="#244A99" d="M23.9 31.498c.026.002.07-.02.07-.02.05.036.093.062.093.062s-.08.018-.162-.042zM37.596 32.143s.05.047.105.03l-.222.13c-.07.03-.143-.02-.143-.02l.26-.14z"/><path fill="#244A99" d="M23.974 31.483s-.043.02-.067.02l-.243-.186-.006-.008a.2.2 0 0 0 .092.004l.224.17z"/><path fill="#2A5DA7" d="M37.72 31.962c.025.02.052.037.077.088-.014.068-.07.102-.1.128-.047.01-.11-.035-.11-.035.036-.026.097-.07.133-.18zM27.268 18.578v.003h-.073v-.002z"/><path fill="#2A5DA7" d="M27.197 18.57l.04.01-3.593 12.57-.042-.01z"/><path fill="#2A5DA7" d="M23.664 31.314a.178.178 0 0 1-.062-.173l.044-.017c-.018.093.05.16.1.188 0 .002-.036.023-.082.004z"/><linearGradient id="J" gradientUnits="userSpaceOnUse" x1="-199.187" y1="-392.795" x2="-185.102" y2="-392.795" gradientTransform="matrix(1 0 0 -1 222.826 -362.005)"><stop offset="0" stop-color="#9aaeda"/><stop offset=".45" stop-color="#dee4f3"/><stop offset="1" stop-color="#7695cc"/></linearGradient><path fill="url(#J)" d="M37.594 32.152c-3.206-2.155-6.53-3.808-13.843-.835-.05-.027-.125-.103-.108-.195 7.426-3.16 10.875-1.313 14.083.846-.034.113-.096.157-.13.184z"/><path fill="#244A99" d="M23.96 31.473c7.04-2.752 10.193-1.255 13.397.808-1.92-1.233-3.895-2.222-6.62-2.24-1.824-.01-3.98.454-6.68 1.5.003 0-.053-.024-.098-.067z"/><path fill="#2A5DA7" d="M37.597 32.15l-.26.137c-3.203-2.063-6.447-3.49-13.363-.806l-.23-.168c7.315-2.97 10.647-1.317 13.853.838z"/><path fill="#244A99" d="M37.718 31.97l3.698-12.655c.04.027.06.05.08.072l-3.7 12.672a.198.198 0 0 0-.078-.09z"/><path fill="#7695CC" d="M41.415 19.32c-3.203-2.17-6.817-3.743-14.186-.735a.988.988 0 0 1 .033-.093c7.4-3.06 10.974-1.437 14.178.735l-.025.092z"/><defs><path id="K" d="M37.722 31.972c-3.205-2.155-6.683-3.907-14.08-.85l3.59-12.545c7.4-3.062 10.986-1.433 14.19.738l-3.7 12.657"/></defs><clipPath id="L"><use xlink:href="#K" overflow="visible"/></clipPath><linearGradient id="M" gradientUnits="userSpaceOnUse" x1="-1192.956" y1="42.27" x2="-1179.112" y2="42.27" gradientTransform="rotate(-164.003 -572.027 -94.362)"><stop offset="0" stop-color="#2a5da7"/><stop offset=".4" stop-color="#9aaeda"/><stop offset=".725" stop-color="#c3ceea"/><stop offset="1" stop-color="#7695cc"/></linearGradient><path clip-path="url(#L)" fill="url(#M)" d="M37.725 32c-3.208-2.156-6.693-3.934-14.09-.872l3.622-12.656c7.4-3.06 10.956-1.328 14.16.844L37.725 32z"/><path fill="#244A99" d="M41.44 19.227l.006.003c.045.032.063.097.05.155v.008a.433.433 0 0 0-.082-.072l.025-.093z"/><linearGradient id="N" gradientUnits="userSpaceOnUse" x1="-373.237" y1="362.987" x2="-373.147" y2="362.987" gradientTransform="matrix(0 1 1 0 -335.756 391.728)"><stop offset="0" stop-color="#9aaeda"/><stop offset="1" stop-color="#2a5da7"/></linearGradient><path fill="url(#N)" d="M27.236 18.58l-.04-.01c.015-.055.052-.07.067-.078h.005s-.013.026-.032.09z"/><path fill="#AEC417" d="M61.72 6.61c-7.38 3.052-10.93 1.34-14.13-.812a.214.214 0 0 0 0-.136c3.2 2.153 6.82 3.886 14.2.833-.048.047-.048.07-.07.114z"/><path fill="#A0AC10" d="M47.027 5.95l.264-.19-3.605 12.526-.277.218v-.027z"/><linearGradient id="O" gradientUnits="userSpaceOnUse" x1="-1186.718" y1="86.768" x2="-1186.369" y2="86.768" gradientTransform="rotate(-164.003 -563.558 -123.932)"><stop offset="0" stop-color="#a0ac10"/><stop offset=".1" stop-color="#a0ac10"/><stop offset=".25" stop-color="#c3d236"/><stop offset=".405" stop-color="#c3d236"/><stop offset="1" stop-color="#a0ac10"/></linearGradient><path fill="url(#O)" d="M43.957 18.425c-.11-.063-.194-.188-.294-.15L47.278 5.77a.31.31 0 0 1 .326.03l-3.647 12.627z"/><path fill="#A0AC10" d="M47.325 5.68l-.038.09-.263.19c.023-.085.223-.23.286-.27l.015-.01z"/><linearGradient id="P" gradientUnits="userSpaceOnUse" x1="-1129.953" y1="204.898" x2="-1129.627" y2="204.898" gradientTransform="rotate(-175.998 -537.49 -120.164)"><stop offset="0" stop-color="#aec417"/><stop offset=".2" stop-color="#c3d236"/><stop offset=".525" stop-color="#c3d236"/><stop offset="1" stop-color="#a0ac10"/></linearGradient><path fill="url(#P)" d="M47.592 5.79a.33.33 0 0 0-.316-.02l.034-.08c.12-.077.17-.08.282-.027a.174.174 0 0 1 0 .127z"/><linearGradient id="Q" gradientUnits="userSpaceOnUse" x1="-193.117" y1="33.406" x2="-192.835" y2="33.406" gradientTransform="rotate(59.003 -100.887 211.768)"><stop offset="0" stop-color="#aec417"/><stop offset="1" stop-color="#7d8019"/></linearGradient><path fill="url(#Q)" d="M61.995 6.702s-.08-.114-.28-.077c.02-.048.02-.09.076-.128.122-.018.177.013.203.038l.02.025c.015.07-.018.142-.018.142z"/><linearGradient id="R" gradientUnits="userSpaceOnUse" x1="-664.803" y1="399.003" x2="-664.66" y2="399.003" gradientTransform="rotate(130.002 -395.856 -26.692)"><stop offset="0" stop-color="#a0ac10"/><stop offset="1" stop-color="#7d8019"/></linearGradient><path fill="url(#R)" d="M61.993 6.536l.293.234c.02.078-.02.158-.02.158l-.293-.235s.035-.09.02-.157z"/><path fill="#7D8019" d="M58.33 19.252l3.65-12.577.296.237-3.668 12.585z"/><path fill="#8A9217" d="M58.678 19.588c.01-.072-.067-.13-.067-.13L62.273 6.9s.06.054.076.09l-3.67 12.598z"/><linearGradient id="S" gradientUnits="userSpaceOnUse" x1="-340.384" y1="264.711" x2="-340.153" y2="264.711" gradientTransform="matrix(0 1 1 0 -202.4 347.15)"><stop offset="0" stop-color="#a0ac10"/><stop offset="1" stop-color="#8a9217"/></linearGradient><path fill="url(#S)" d="M62.346 6.995s-.014-.037-.074-.09c.028-.118.01-.14.01-.14l.005.003s.092.085.06.227z"/><path fill="#7D8019" d="M58.555 19.706c-1.972.896-3.838 1.36-5.572 1.51-2.995.34-5.415-.312-7.393-1.283a15.047 15.047 0 0 1-2.082-1.168l.033-.03c.626.423 1.306.834 2.05 1.198 2.008.924 4.518 1.533 7.392 1.284 1.638-.186 3.447-.667 5.45-1.558.055.044.123.046.123.046z"/><linearGradient id="T" gradientUnits="userSpaceOnUse" x1="-1097.242" y1="168.978" x2="-1096.924" y2="168.978" gradientTransform="rotate(-175.998 -516.153 -95.016)"><stop offset="0" stop-color="#8a9217"/><stop offset="1" stop-color="#a0ac10"/></linearGradient><path fill="url(#T)" d="M58.157 19.47s-.142-.126-.117-.31c.19-.05.312.07.312.07s-.035.17-.195.24z"/><linearGradient id="U" gradientUnits="userSpaceOnUse" x1="-716.031" y1="383.153" x2="-715.727" y2="383.153" gradientTransform="rotate(132 -418.337 -9.495)"><stop offset="0" stop-color="#8a9217"/><stop offset="1" stop-color="#7d8019"/></linearGradient><path fill="url(#U)" d="M58.353 19.23l.265.233s-.04.145-.2.215l-.272-.23c.163-.07.207-.217.207-.217z"/><linearGradient id="V" gradientUnits="userSpaceOnUse" x1="-255.704" y1="-424.199" x2="-241.321" y2="-424.199" gradientTransform="matrix(1 0 0 -1 299.518 -404.45)"><stop offset="0" stop-color="#a0ac10"/><stop offset=".4" stop-color="#c3d236"/><stop offset="1" stop-color="#a0ac10"/></linearGradient><path fill="url(#V)" d="M58.086 19.157c-.026.186.11.32.11.32-7.383 3.053-11.187 1.257-14.382-.908.057-.044.066-.044.103-.173 3.192 2.166 8.024 3.682 14.17.76z"/><path fill="#8A9217" d="M43.54 18.75l.275-.184c3.197 2.06 6.974 3.838 14.35.874l.267.23c-7.08 3.125-11.61 1.386-14.89-.92z"/><path fill="#8A9217" d="M58.678 19.588a.31.31 0 0 1-.123.117l-.007.002s-.05.006-.117-.037c.144-.078.186-.236.186-.236s.083.07.062.154zM43.552 18.745l-.034.027s-.18-.098-.11-.295a.338.338 0 0 0 .144.268z"/><linearGradient id="W" gradientUnits="userSpaceOnUse" x1="-1207.244" y1="-225.506" x2="-1206.901" y2="-225.506" gradientTransform="rotate(-132 -627.783 -156.393)"><stop offset="0" stop-color="#8a9217"/><stop offset=".1" stop-color="#8a9217"/><stop offset=".65" stop-color="#aec417"/><stop offset="1" stop-color="#a0ac10"/></linearGradient><path fill="url(#W)" d="M43.408 18.477l.266-.21a.298.298 0 0 0 .16.286l-.27.206c-.002 0-.172-.082-.156-.283z"/><linearGradient id="X" gradientUnits="userSpaceOnUse" x1="-202.846" y1="110.352" x2="-202.505" y2="110.352" gradientTransform="rotate(61 -188.704 163.22)"><stop offset="0" stop-color="#a0ac10"/><stop offset=".405" stop-color="#aec417"/><stop offset=".8" stop-color="#a0ac10"/><stop offset="1" stop-color="#a0ac10"/></linearGradient><path fill="url(#X)" d="M43.666 18.267c.092-.027.174.066.285.152-.036.13-.067.107-.123.148a.308.308 0 0 1-.16-.3z"/><linearGradient id="Y" gradientUnits="userSpaceOnUse" x1="-1147.268" y1="95.538" x2="-1146.919" y2="95.538" gradientTransform="rotate(-164.003 -535.956 -126.125)"><stop offset="0" stop-color="#7d8019"/><stop offset="1" stop-color="#aec417"/></linearGradient><path fill="url(#Y)" d="M58.05 19.184l3.655-12.57c.197-.037.293.075.293.075l-3.646 12.54s-.146-.11-.302-.046z"/><linearGradient id="Z" gradientUnits="userSpaceOnUse" x1="-1148.075" y1="90.143" x2="-1134.248" y2="90.143" gradientTransform="rotate(-164.003 -537.024 -122.497)"><stop offset="0" stop-color="#a4bb11"/><stop offset=".167" stop-color="#c3d236"/><stop offset=".333" stop-color="#d0db64"/><stop offset=".667" stop-color="#aec417"/><stop offset="1" stop-color="#8a9217"/></linearGradient><path fill="url(#Z)" d="M61.72 6.605C54.34 9.658 50.79 7.94 47.59 5.79l-3.64 12.63c3.195 2.166 7.054 3.947 14.138.773L61.72 6.605z"/><path fill="#AEC417" d="M61.72 6.61c-7.38 3.052-10.93 1.34-14.13-.812a.214.214 0 0 0 0-.136c3.2 2.153 6.82 3.886 14.2.833-.048.047-.048.07-.07.114z"/><path fill="#A0AC10" d="M47.027 5.95l.264-.19-3.605 12.526-.277.218v-.027z"/><linearGradient id="aa" gradientUnits="userSpaceOnUse" x1="-1186.718" y1="86.768" x2="-1186.369" y2="86.768" gradientTransform="rotate(-164.003 -563.558 -123.932)"><stop offset="0" stop-color="#a0ac10"/><stop offset=".1" stop-color="#a0ac10"/><stop offset=".25" stop-color="#c3d236"/><stop offset=".405" stop-color="#c3d236"/><stop offset="1" stop-color="#a0ac10"/></linearGradient><path fill="url(#aa)" d="M43.957 18.425c-.11-.063-.194-.188-.294-.15L47.278 5.77a.31.31 0 0 1 .326.03l-3.647 12.627z"/><path fill="#A0AC10" d="M47.325 5.68l-.038.09-.263.19c.023-.085.223-.23.286-.27l.015-.01z"/><linearGradient id="ab" gradientUnits="userSpaceOnUse" x1="-1129.953" y1="204.898" x2="-1129.627" y2="204.898" gradientTransform="rotate(-175.998 -537.49 -120.164)"><stop offset="0" stop-color="#aec417"/><stop offset=".2" stop-color="#c3d236"/><stop offset=".525" stop-color="#c3d236"/><stop offset="1" stop-color="#a0ac10"/></linearGradient><path fill="url(#ab)" d="M47.592 5.79a.33.33 0 0 0-.316-.02l.034-.08c.12-.077.17-.08.282-.027a.174.174 0 0 1 0 .127z"/><linearGradient id="ac" gradientUnits="userSpaceOnUse" x1="-193.117" y1="33.406" x2="-192.835" y2="33.406" gradientTransform="rotate(59.003 -100.887 211.768)"><stop offset="0" stop-color="#aec417"/><stop offset="1" stop-color="#7d8019"/></linearGradient><path fill="url(#ac)" d="M61.995 6.702s-.08-.114-.28-.077c.02-.048.02-.09.076-.128.122-.018.177.013.203.038l.02.025c.015.07-.018.142-.018.142z"/><linearGradient id="ad" gradientUnits="userSpaceOnUse" x1="-664.803" y1="399.003" x2="-664.66" y2="399.003" gradientTransform="rotate(130.002 -395.856 -26.692)"><stop offset="0" stop-color="#a0ac10"/><stop offset="1" stop-color="#7d8019"/></linearGradient><path fill="url(#ad)" d="M61.993 6.536l.293.234c.02.078-.02.158-.02.158l-.293-.235s.035-.09.02-.157z"/><path fill="#7D8019" d="M58.33 19.252l3.65-12.577.296.237-3.668 12.585z"/><path fill="#8A9217" d="M58.678 19.588c.01-.072-.067-.13-.067-.13L62.273 6.9s.06.054.076.09l-3.67 12.598z"/><linearGradient id="ae" gradientUnits="userSpaceOnUse" x1="-340.384" y1="264.711" x2="-340.153" y2="264.711" gradientTransform="matrix(0 1 1 0 -202.4 347.15)"><stop offset="0" stop-color="#a0ac10"/><stop offset="1" stop-color="#8a9217"/></linearGradient><path fill="url(#ae)" d="M62.346 6.995s-.014-.037-.074-.09c.028-.118.01-.14.01-.14l.005.003s.092.085.06.227z"/><path fill="#7D8019" d="M58.555 19.706c-1.972.896-3.838 1.36-5.572 1.51-2.995.34-5.415-.312-7.393-1.283a15.047 15.047 0 0 1-2.082-1.168l.033-.03c.626.423 1.306.834 2.05 1.198 2.008.924 4.518 1.533 7.392 1.284 1.638-.186 3.447-.667 5.45-1.558.055.044.123.046.123.046z"/><linearGradient id="af" gradientUnits="userSpaceOnUse" x1="-1097.242" y1="168.978" x2="-1096.924" y2="168.978" gradientTransform="rotate(-175.998 -516.153 -95.016)"><stop offset="0" stop-color="#8a9217"/><stop offset="1" stop-color="#a0ac10"/></linearGradient><path fill="url(#af)" d="M58.157 19.47s-.142-.126-.117-.31c.19-.05.312.07.312.07s-.035.17-.195.24z"/><linearGradient id="ag" gradientUnits="userSpaceOnUse" x1="-716.031" y1="383.153" x2="-715.727" y2="383.153" gradientTransform="rotate(132 -418.337 -9.495)"><stop offset="0" stop-color="#8a9217"/><stop offset="1" stop-color="#7d8019"/></linearGradient><path fill="url(#ag)" d="M58.353 19.23l.265.233s-.04.145-.2.215l-.272-.23c.163-.07.207-.217.207-.217z"/><linearGradient id="ah" gradientUnits="userSpaceOnUse" x1="-255.704" y1="-424.199" x2="-241.321" y2="-424.199" gradientTransform="matrix(1 0 0 -1 299.518 -404.45)"><stop offset="0" stop-color="#a0ac10"/><stop offset=".4" stop-color="#c3d236"/><stop offset="1" stop-color="#a0ac10"/></linearGradient><path fill="url(#ah)" d="M58.086 19.157c-.026.186.11.32.11.32-7.383 3.053-11.187 1.257-14.382-.908.057-.044.066-.044.103-.173 3.192 2.166 8.024 3.682 14.17.76z"/><path fill="#8A9217" d="M43.54 18.75l.275-.184c3.197 2.06 6.974 3.838 14.35.874l.267.23c-7.08 3.125-11.61 1.386-14.89-.92z"/><path fill="#8A9217" d="M58.678 19.588a.31.31 0 0 1-.123.117l-.007.002s-.05.006-.117-.037c.144-.078.186-.236.186-.236s.083.07.062.154zM43.552 18.745l-.034.027s-.18-.098-.11-.295a.338.338 0 0 0 .144.268z"/><linearGradient id="ai" gradientUnits="userSpaceOnUse" x1="-1207.244" y1="-225.506" x2="-1206.901" y2="-225.506" gradientTransform="rotate(-132 -627.783 -156.393)"><stop offset="0" stop-color="#8a9217"/><stop offset=".1" stop-color="#8a9217"/><stop offset=".65" stop-color="#aec417"/><stop offset="1" stop-color="#a0ac10"/></linearGradient><path fill="url(#ai)" d="M43.408 18.477l.266-.21a.298.298 0 0 0 .16.286l-.27.206c-.002 0-.172-.082-.156-.283z"/><linearGradient id="aj" gradientUnits="userSpaceOnUse" x1="-202.846" y1="110.352" x2="-202.505" y2="110.352" gradientTransform="rotate(61 -188.704 163.22)"><stop offset="0" stop-color="#a0ac10"/><stop offset=".405" stop-color="#aec417"/><stop offset=".8" stop-color="#a0ac10"/><stop offset="1" stop-color="#a0ac10"/></linearGradient><path fill="url(#aj)" d="M43.666 18.267c.092-.027.174.066.285.152-.036.13-.067.107-.123.148a.308.308 0 0 1-.16-.3z"/><linearGradient id="ak" gradientUnits="userSpaceOnUse" x1="-1147.268" y1="95.538" x2="-1146.919" y2="95.538" gradientTransform="rotate(-164.003 -535.956 -126.125)"><stop offset="0" stop-color="#7d8019"/><stop offset="1" stop-color="#aec417"/></linearGradient><path fill="url(#ak)" d="M58.05 19.184l3.655-12.57c.197-.037.293.075.293.075l-3.646 12.54s-.146-.11-.302-.046z"/><linearGradient id="al" gradientUnits="userSpaceOnUse" x1="-1148.075" y1="90.143" x2="-1134.248" y2="90.143" gradientTransform="rotate(-164.003 -537.024 -122.497)"><stop offset="0" stop-color="#a4bb11"/><stop offset=".167" stop-color="#c3d236"/><stop offset=".333" stop-color="#d0db64"/><stop offset=".667" stop-color="#aec417"/><stop offset="1" stop-color="#8a9217"/></linearGradient><path fill="url(#al)" d="M61.72 6.605C54.34 9.658 50.79 7.94 47.59 5.79l-3.64 12.63c3.195 2.166 7.054 3.947 14.138.773L61.72 6.605z"/><path fill="#CD660D" d="M41.904 17.21c-3.444-2.39-7.667-3.89-13.938-.775l.255.183c6.853-2.8 10.428-1.286 13.434.693l.25-.1z"/><path fill="#AD650E" d="M42.025 17.025l3.64-12.566c.04.026.06.05.08.075l-3.642 12.578a.214.214 0 0 0-.078-.088zM28.225 16.613a22.74 22.74 0 0 1 3.248-1.077c.243-.06.458-.11.716-.16a13.902 13.902 0 0 1 2.582-.293c.265-.003.524 0 .78.013a11.763 11.763 0 0 1 1.206.13c.375.063.74.143 1.09.244 1.416.4 2.675 1.082 3.832 1.854l-.048-.014-.026-.012c-1.564-.992-3.244-1.855-5.32-2.11-2.12-.26-4.594.105-7.925 1.428 0 0-.076.032-.106.038-.03.003-.024-.017-.03-.04z"/><path fill="#AD650E" d="M41.9 17.21s.048.033.103.02l-.23.102c-.06.017-.134-.02-.134-.02l.26-.103zM28.228 16.615l.024.04c-.023 0-.025.008-.08-.018l-.028-.017-.24-.187-.02-.018c.032 0 .057.013.074.01l.27.19z"/><path fill="#CD660D" d="M42.027 17.026c.025.018.057.027.078.08-.014.068-.07.102-.103.126-.057.015-.11-.028-.11-.028.033-.03.1-.07.135-.178z"/><path fill="#CD6311" d="M45.69 4.376l.002.003c.046.03.064.095.05.154v.008c-.022-.024-.035-.048-.076-.077l.023-.09z"/><path fill="#CD660D" d="M27.89 16.423c-.035-.026-.07-.133-.052-.197l.05-.017c-.02.093.04.198.09.228-.002 0-.04.02-.09-.015z"/><linearGradient id="am" gradientUnits="userSpaceOnUse" x1="-331.336" y1="350.972" x2="-331.245" y2="350.972" gradientTransform="matrix(0 1 1 0 -319.45 334.873)"><stop offset="0" stop-color="#f7ae3e"/><stop offset="1" stop-color="#cd660d"/></linearGradient><path fill="url(#am)" d="M31.525 3.627l-.04-.01c.015-.054.052-.074.066-.077l.007-.002s-.013.027-.032.09z"/><linearGradient id="an" gradientUnits="userSpaceOnUse" x1="-211.052" y1="-434.926" x2="-196.897" y2="-434.926" gradientTransform="matrix(1 0 0 -1 238.925 -419.09)"><stop offset="0" stop-color="#f7ae3e"/><stop offset=".25" stop-color="#f7ae3e"/><stop offset=".475" stop-color="#f7dcbd"/><stop offset=".525" stop-color="#f7dcbd"/><stop offset=".75" stop-color="#f29120"/><stop offset="1" stop-color="#f29120"/></linearGradient><path fill="url(#an)" d="M41.898 17.21c-1.972-1.288-3.818-2.356-6.74-2.44-2.138.042-3.778.313-7.186 1.667-.05-.03-.114-.1-.096-.193 2.95-1.257 5.293-1.8 7.238-1.78 2.945.028 4.985 1.26 6.915 2.56-.033.114-.096.157-.132.186z"/><path fill="#CD660D" d="M31.485 3.615l.034.01-3.636 12.616-.047-.014z"/><path fill="#F29120" d="M45.667 4.474c-3.2-2.17-6.788-3.844-14.15-.84a.684.684 0 0 1 .035-.095c7.396-3.06 10.94-1.33 14.143.84l-.028.094z"/><linearGradient id="ao" gradientUnits="userSpaceOnUse" x1="-1192.964" y1="85.585" x2="-1179.108" y2="85.585" gradientTransform="rotate(-164.003 -567.905 -123.75)"><stop offset="0" stop-color="#c14e10"/><stop offset=".4" stop-color="#f29120"/><stop offset=".725" stop-color="#faca8e"/><stop offset="1" stop-color="#f29120"/></linearGradient><path fill="url(#ao)" d="M42.03 17.028c-1.93-1.3-4.005-2.512-6.954-2.535-1.945-.014-4.26.54-7.2 1.754L31.52 3.623c7.396-3.06 10.948-1.328 14.15.84L42.03 17.03z"/><path fill="#CD660D" d="M41.904 17.21c-3.444-2.39-7.667-3.89-13.938-.775l.255.183c6.853-2.8 10.428-1.286 13.434.693l.25-.1z"/><path fill="#AD650E" d="M42.025 17.025l3.64-12.566c.04.026.06.05.08.075l-3.642 12.578a.214.214 0 0 0-.078-.088zM28.225 16.613a22.74 22.74 0 0 1 3.248-1.077c.243-.06.458-.11.716-.16a13.902 13.902 0 0 1 2.582-.293c.265-.003.524 0 .78.013a11.763 11.763 0 0 1 1.206.13c.375.063.74.143 1.09.244 1.416.4 2.675 1.082 3.832 1.854l-.048-.014-.026-.012c-1.564-.992-3.244-1.855-5.32-2.11-2.12-.26-4.594.105-7.925 1.428 0 0-.076.032-.106.038-.03.003-.024-.017-.03-.04z"/><path fill="#AD650E" d="M41.9 17.21s.048.033.103.02l-.23.102c-.06.017-.134-.02-.134-.02l.26-.103zM28.228 16.615l.024.04c-.023 0-.025.008-.08-.018l-.028-.017-.24-.187-.02-.018c.032 0 .057.013.074.01l.27.19z"/><path fill="#CD660D" d="M42.027 17.026c.025.018.057.027.078.08-.014.068-.07.102-.103.126-.057.015-.11-.028-.11-.028.033-.03.1-.07.135-.178z"/><path fill="#CD6311" d="M45.69 4.376l.002.003c.046.03.064.095.05.154v.008c-.022-.024-.035-.048-.076-.077l.023-.09z"/><path fill="#CD660D" d="M27.89 16.423c-.035-.026-.07-.133-.052-.197l.05-.017c-.02.093.04.198.09.228-.002 0-.04.02-.09-.015z"/><linearGradient id="ap" gradientUnits="userSpaceOnUse" x1="-331.336" y1="350.972" x2="-331.245" y2="350.972" gradientTransform="matrix(0 1 1 0 -319.45 334.873)"><stop offset="0" stop-color="#f7ae3e"/><stop offset="1" stop-color="#cd660d"/></linearGradient><path fill="url(#ap)" d="M31.525 3.627l-.04-.01c.015-.054.052-.074.066-.077l.007-.002s-.013.027-.032.09z"/><linearGradient id="aq" gradientUnits="userSpaceOnUse" x1="-211.052" y1="-434.926" x2="-196.897" y2="-434.926" gradientTransform="matrix(1 0 0 -1 238.925 -419.09)"><stop offset="0" stop-color="#f7ae3e"/><stop offset=".25" stop-color="#f7ae3e"/><stop offset=".475" stop-color="#f7dcbd"/><stop offset=".525" stop-color="#f7dcbd"/><stop offset=".75" stop-color="#f29120"/><stop offset="1" stop-color="#f29120"/></linearGradient><path fill="url(#aq)" d="M41.898 17.21c-1.972-1.288-3.818-2.356-6.74-2.44-2.138.042-3.778.313-7.186 1.667-.05-.03-.114-.1-.096-.193 2.95-1.257 5.293-1.8 7.238-1.78 2.945.028 4.985 1.26 6.915 2.56-.033.114-.096.157-.132.186z"/><path fill="#CD660D" d="M31.485 3.615l.034.01-3.636 12.616-.047-.014z"/><path fill="#F29120" d="M45.667 4.474c-3.2-2.17-6.788-3.844-14.15-.84a.684.684 0 0 1 .035-.095c7.396-3.06 10.94-1.33 14.143.84l-.028.094z"/><linearGradient id="ar" gradientUnits="userSpaceOnUse" x1="-1192.964" y1="85.585" x2="-1179.108" y2="85.585" gradientTransform="rotate(-164.003 -567.905 -123.75)"><stop offset="0" stop-color="#c14e10"/><stop offset=".4" stop-color="#f29120"/><stop offset=".725" stop-color="#faca8e"/><stop offset="1" stop-color="#f29120"/></linearGradient><path fill="url(#ar)" d="M42.03 17.028c-1.93-1.3-4.005-2.512-6.954-2.535-1.945-.014-4.26.54-7.2 1.754L31.52 3.623c7.396-3.06 10.948-1.328 14.15.84L42.03 17.03z"/></svg>