<svg xmlns="http://www.w3.org/2000/svg" width="96.623" height="22.387" viewBox="9.308 0.814 96.623 22.387"><g fill="#090"><path d="M28.136 2.246a2.042 2.042 0 0 0-2.042 2.042V14.93L14.01 2.845a2.04 2.04 0 0 0-3.488 1.444V19.86a2.042 2.042 0 0 0 4.084 0V9.22L26.69 21.305a2.04 2.04 0 0 0 3.487-1.444V4.288a2.04 2.04 0 0 0-2.04-2.042zM42.648 11.252c-1.08-.016-2.072.963-2.072 2.042s.993 2.058 2.072 2.042l5.002-.025-1.225 2.478h-6.433l-3.19-5.616 3.215-5.82h6.843l1.596 3.274h4.11l-2.59-6.21-.563-1.147h-11.82l-.562 1.045-4.34 7.888-.56.996.56.995 4.34 7.632.588 1.047H48.978l.562-1.148 3.24-6.535 1.456-2.96h-3.293l-8.295.022zM58.282 2.24c-1.07.014-2.03 1-2.017 2.07v5.32h4.084V4.31c.013-1.088-.983-2.082-2.068-2.07zM81.18 2.44a2.043 2.043 0 0 0-2.225.444L66.87 14.97V4.33a2.042 2.042 0 0 0-4.083 0v15.574a2.043 2.043 0 0 0 3.485 1.444L78.358 9.258V19.9a2.042 2.042 0 0 0 4.084 0V4.33c0-.827-.498-1.57-1.26-1.887zM97.57 12.098l6.352-6.33a2.042 2.042 0 1 0-2.883-2.893l-6.362 6.342-6.362-6.34a2.043 2.043 0 0 0-2.883 2.893l6.352 6.328-6.334 6.312a2.042 2.042 0 1 0 2.883 2.893l6.344-6.32 6.344 6.32a2.04 2.04 0 0 0 2.89-.005c.795-.8.792-2.09-.006-2.888l-6.334-6.312zM56.265 19.817c-.013 1.068.947 2.054 2.017 2.067 1.085.014 2.08-.98 2.067-2.067v-8.55h-4.085v8.55z"/></g></svg>