<svg baseProfile="basic" xmlns="http://www.w3.org/2000/svg" width="72" height="72" viewBox="0 0 72 72"><path fill="#4C70B3" d="M31.3 22.9h-5.8L29.1.4H35zM66.6 22.9H72L67.3.4h-4.7c-2.2 0-2.7 1.7-2.7 1.7l-8.7 20.8h6.1l1.2-3.3h7.4l.7 3.3zm-6.4-8l3.1-8.4 1.7 8.4h-4.8zM51.6 5.8l.9-4.8s-2.6-1-5.3-1c-2.9 0-9.8 1.3-9.8 7.4 0 5.8 8.1 5.9 8.1 8.9 0 3.1-7.3 2.5-9.7.6l-.9 5.1s2.6 1.3 6.6 1.3 10-2.1 10-7.7c0-5.8-8.2-6.4-8.2-8.9.1-2.6 5.8-2.3 8.3-.9z"/><path fill="#E59D4D" d="M14.4 12.7l-2-10.3S12.2.3 9.6.3H.1L0 .7s4.5.9 8.9 4.5c4.1 3.3 5.5 7.5 5.5 7.5z"/><path fill="#4C70B3" d="M20.6.4L15 15.9l-.7-3.3v-.1c-.4-1-1.9-4.4-5.4-7.3-.9-.7-1.7-1.3-2.5-1.8l5.1 19.5h6.1L26.9.4h-6.3z"/><g><g fill="#E69F44"><path d="M65.6 50.6c-1 0-1.7 1.2-1.7 2.8 0 1.1.4 1.7 1.1 1.7 1 0 1.8-1.2 1.8-2.8 0-1.1-.4-1.7-1.2-1.7zM52.6 54.5c0 .5.3.9.8.9.9 0 1.5-.9 1.6-2.1h-.5c-1.2-.1-1.9.4-1.9 1.2z"/><path d="M51.7 31.3c-5.3 0-10 2-13.7 5.3-.7.7-1.4 1.4-2.1 2.2H40c.6.7 1.1 1.4 1.5 2.2h-7.2c-.4.7-.8 1.4-1.2 2.2h9.6c.3.7.6 1.4.9 2.2H32.4c-.2.7-.4 1.4-.6 2.2h12.5c.1.4.2.8.2 1.2.1.4.1.7.1 1.1.8-2 2.4-3.3 4.4-3.3 1 0 2.1.4 2.4.5l-.4 2.2c-.8-.4-1.4-.6-2-.6-1.6 0-2.8 1.6-2.8 3.9 0 1.6.8 2.5 2.1 2.5.5 0 1.1-.2 1.9-.5l-.4 2.4c-.8.2-1.3.3-2 .3-1.7 0-2.9-.8-3.5-2.3-.2 1.1-.4 2.2-.8 3.3H32.4c.2.7.5 1.5.9 2.2h9.6c-.4.7-.7 1.5-1.2 2.2h-7.2c.5.7 1 1.5 1.5 2.2h4.1c-.6.8-1.3 1.5-2.1 2.2C41.6 70 46.4 72 51.7 72 62.9 72 72 62.9 72 51.7c0-11.3-9.1-20.4-20.3-20.4zM56.6 57h-1.8v-.9c-.6.7-1.3 1-2.3 1-1.2 0-2-.9-2-2.3 0-2 1.4-3.2 3.9-3.2.2 0 .6 0 .9.1.1-.3.1-.4.1-.5 0-.6-.4-.8-1.4-.8-1.1 0-2 .3-2.3.4 0-.1.3-1.9.3-1.9 1.1-.3 1.8-.4 2.6-.4 1.9 0 2.9.9 2.9 2.5 0 .4-.1 1-.2 1.7-.2 1.1-.6 3.7-.7 4.3zm3 0h-2.2l.1-.6c.4-2.6.9-5.2 1.1-7.8h2c0 .4-.1.8-.1 1.3.7-1 1.2-1.5 2.1-1.3-.2.4-.6 1.3-.8 2.4-1.2-.1-1.4.9-2.2 6zm6.6 0l.1-.8c-.6.6-1.2.9-2 .9-1.6 0-2.7-1.4-2.7-3.5 0-2.8 1.6-5.1 3.6-5.1.9 0 1.5.4 2.1 1.1l.5-3H70L68.3 57h-2.1z"/></g><g fill="#D12020"><path d="M36.1 50.3c-.7 0-1.2.5-1.4 1.5h2.4c.1-.1.3-1.5-1-1.5zM17.8 54.5c0 .5.3.9.8.9.9 0 1.5-.9 1.6-2.1h-.5c-1.2-.1-1.9.4-1.9 1.2z"/><path d="M44.1 52.7c0-1.1.2-2.1.5-3v-.2-.3c0-.2-.1-.4-.1-.7-.3.5-.6 1.4-.8 2.4-1.2-.1-1.4.9-2.2 6h-2.2l.1-.6c.4-2.6.9-5.2 1.2-7.8h2c0 .4-.1.8-.1 1.3.7-1 1.2-1.5 2.1-1.3v-.1c0-.1 0-.2-.1-.3 0-.2-.1-.5-.1-.7v-.1H31.8c.2-.7.4-1.5.6-2.2h11.3c0-.1-.1-.2-.1-.2-.1-.2-.2-.4-.2-.6-.1-.1-.1-.3-.2-.4-.1-.2-.2-.4-.3-.7 0-.1-.1-.2-.1-.2h-9.6c.3-.7.7-1.5 1.2-2.2h7.2c-.1-.2-.2-.4-.4-.6 0-.1-.1-.1-.1-.2-.1-.2-.3-.4-.4-.5-.1-.1-.1-.2-.2-.2-.2-.2-.3-.4-.5-.6h-4.1c.6-.8 1.3-1.5 2.1-2.2-3.6-3.3-8.4-5.3-13.7-5.3C13.1 31.3 4 40.4 4 51.7S13.1 72 24.3 72c5.3 0 10.1-2 13.7-5.3l.6-.6.2-.2.4-.4c.1-.1.1-.2.2-.2l.5-.5.1-.1h-4.1c-.6-.7-1.1-1.4-1.5-2.2h7.2c0-.1.1-.1.1-.2l.1-.1c.2-.3.3-.5.4-.8.1-.3.3-.5.4-.8 0 0 0-.1.1-.1 0-.1 0-.1.1-.2h-9.6c-.3-.7-.6-1.4-.9-2.2h11.3c0-.1.1-.2.1-.3 0-.1.1-.2.1-.3.1-.2.1-.5.2-.7 0-.1 0-.1.1-.2.1-.3.2-.6.2-.9.1-.3.1-.6.2-.9-.3-.6-.4-1.3-.4-2.1zM12.6 57l1.3-7.9L11 57H9.5l-.2-7.9L8 57H5.9l1.7-10.3h3.2l.1 6.4 2.1-6.4h3.4L14.8 57h-2.2zm7.4 0v-.9c-.6.7-1.3 1-2.3 1-1.2 0-2-.9-2-2.3 0-2 1.4-3.2 3.9-3.2.3 0 .6 0 .9.1.1-.3.1-.4.1-.5 0-.6-.4-.8-1.4-.8-1.1 0-2 .3-2.3.4 0-.1.3-1.9.3-1.9 1.1-.3 1.8-.4 2.6-.4 1.9 0 2.9.9 2.9 2.5 0 .4-.1 1-.2 1.7-.2 1.2-.6 3.8-.7 4.5L20 57zm6.5-5c1.1.5 1.6 1.2 1.6 2.3 0 1.9-1.1 2.8-3.4 2.8-1.3 0-1.8-.1-2.3-.2 0-.1.3-1.9.3-1.9.7.2 1.3.3 2 .3.9 0 1.3-.2 1.3-.8 0-.4-.1-.5-1-.9-1.2-.6-1.7-1.3-1.7-2.3 0-1.5.8-2.8 3.3-2.8.5 0 1.4.1 1.9.2l-.3 1.9c-.6-.1-1.2-.1-1.6-.1-.7 0-1.1.2-1.1.7-.1.3 0 .4 1 .8zm5.8-1.4h-1.1c-.3 1.6-.6 3.6-.6 3.8 0 .4.2.6.8.6.3 0 .4 0 .6-.1l-.3 1.9c-.6.2-1.1.3-1.6.3-1.1 0-1.7-.6-1.7-1.8 0-.4.2-1.3.3-2.2.1-.8 1-5.7 1-5.7h2.2l-.3 1.3h1.1l-.4 1.9zm4.2 4.7c.8 0 1.5-.2 2.3-.5l-.4 2.1c-.8.2-1.5.3-2.3.3-2.5 0-3.7-1.3-3.7-3.7 0-2.9 1.6-5 3.8-5 1.8 0 3 1.2 3 3 0 .6-.1 1.2-.3 2.1h-4.4c-.1 1.1.7 1.7 2 1.7z"/></g></g></svg>