<svg baseProfile="basic" xmlns="http://www.w3.org/2000/svg" width="149.3" height="149.3" viewBox="0 0 149.3 149.3"><path fill="#DBDBDB" d="M74.7 0C33.4 0 0 33.4 0 74.7s33.4 74.7 74.7 74.7 74.7-33.4 74.7-74.7S115.9 0 74.7 0zm0 142.7c-37.6 0-68-30.4-68-68s30.4-68 68-68 68 30.4 68 68-30.5 68-68 68z"/><circle fill="#DBDBDB" cx="74.7" cy="74.7" r="61.2"/><path fill="#FFF" d="M84.3 80.5H69.4v5.2h22.1c.8 0 1.4.6 1.4 1.4v5.6c0 .8-.6 1.4-1.4 1.4H69.4v8.4c0 .8-.6 1.4-1.4 1.4h-7.3c-.8 0-1.4-.6-1.4-1.4v-8.4h-9.8c-.8 0-1.4-.6-1.4-1.4v-5.6c0-.8.6-1.4 1.4-1.4h9.8v-5.2h-9.8c-.8 0-1.4-.6-1.4-1.4v-6.5c0-.8.6-1.4 1.4-1.4h9.8V43.7c0-.8.6-1.4 1.4-1.4h23.6c11.7 0 19.8 7.9 19.8 19.1 0 11.2-8.2 19.1-19.8 19.1zm-.9-28.9h-14v19.6h14c6.2 0 10.3-3.9 10.3-9.8 0-5.8-4.1-9.8-10.3-9.8z"/></svg>