<svg baseProfile="basic" xmlns="http://www.w3.org/2000/svg" width="54" height="54" viewBox="0 0 54 54"><g fill="#4E79B8"><path d="M26.9 0c4.2 0 8.2 1 11.8 2.7.6.3 1.1.6 1.7.9l-2.5 2.2L34.2 2l-6.3 5.6-3.7-4.1-11.7 10.6 7.5 8.3-3 2.6 7.4 8.3-2.9 2.6L32 47.7l6.3-5.8 5.4 6.2c-1.1.8-2.3 1.6-3.5 2.4A26.9 26.9 0 0 1 26.9 54C12.1 54 0 41.9 0 27S12.1 0 26.9 0z"/><path d="M22 25.3l6.4-5.8 5.8 6.4-6.4 5.8zM26.5 36.4l6.4-5.8 5.8 6.4-6.4 5.8zM17.4 14.3l6.4-5.8 5.8 6.5-6.4 5.7zM29.2 11.2L34 6.9l4.3 4.8-4.8 4.3zM37.7 31.1l4.8-4.4 4.3 4.9-4.8 4.3zM41.9 40.8l4.8-4.3 4.3 4.8-4.8 4.3zM43.8 18.5l3.2-2.9 2.9 3.2-3.2 2.9zM39.7 9l3.2-2.9 2.9 3.2-3.2 2.9zM47.9 28l3.2-2.8 2.9 3.2-3.2 2.9zM33.6 20.9l4.8-4.3 4.3 4.8-4.8 4.3z"/></g></svg>