<svg baseProfile="basic" xmlns="http://www.w3.org/2000/svg" width="50" height="63" viewBox="0 0 50 63"><path fill="#06AFC9" d="M45.5 0C48 0 50 2 50 4.5v54.1c0 2.5-2 4.5-4.5 4.5h-41C2 63 0 61 0 58.5V14.1L13.9 0h31.6z"/><path opacity=".2" fill="#3C3C3B" d="M0 14.1l12.4-1.2L0 25.1z"/><path fill="#046B7A" d="M9.5 14.1H0L13.9 0v9.6c0 2.4-2.1 4.5-4.4 4.5z"/><g><path fill="#FFF" d="M30.6 36.4h-8v2.8h11.8c.4 0 .8.3.8.8v3c0 .4-.3.8-.8.8H22.6v4.5c0 .4-.3.8-.8.8H18c-.4 0-.8-.3-.8-.8v-4.5H12c-.4 0-.8-.3-.8-.8v-3c0-.4.3-.8.8-.8h5.3v-2.8H12c-.4 0-.8-.3-.8-.8v-3.5c0-.4.3-.8.8-.8h5.3V16.6c0-.4.3-.8.8-.8h12.6C37 15.8 41.3 20 41.3 26s-4.4 10.4-10.7 10.4zm-.5-15.5h-7.5v10.5h7.5c3.3 0 5.5-2.1 5.5-5.3s-2.2-5.2-5.5-5.2z"/></g></svg>