<svg xmlns="http://www.w3.org/2000/svg" width="209.413" height="206.77" viewBox="0 0 209.413 206.77"><circle fill="#F1F1F1" cx="173.565" cy="135.018" r="13.323"/><ellipse fill="#F1F1F1" cx="104.707" cy="92.031" rx="104.707" ry="42.481"/><ellipse transform="rotate(-138.608 103.847 85.634)" fill="#F1F1F1" cx="103.846" cy="85.634" rx="47.977" ry="105.992"/><ellipse transform="rotate(-41.392 103.843 85.635)" fill="#F1F1F1" cx="103.846" cy="85.634" rx="47.977" ry="105.993"/><path fill="#00CAEE" d="M183.598 87.914c0-43.194-35.015-78.21-78.208-78.21S27.182 44.72 27.182 87.915c0 24.374 11.158 46.134 28.637 60.477l49.57 49.12 49.57-49.12C172.44 134.05 183.6 112.29 183.6 87.915z"/><g opacity=".1"><path fill="#020202" d="M92.976 88.9V52.63h25.664v6.796H100.7v7.67h17.56v6.796H100.7v8.21h17.94V88.9H92.976zM124.4 70.79c0-11.473 8.698-18.758 19.303-18.758 7.56 0 12.29 3.806 15.01 8.103l-6.417 3.48c-1.633-2.557-4.732-4.73-8.593-4.73-6.58 0-11.364 5.057-11.364 11.907 0 6.853 4.784 11.91 11.363 11.91 3.208 0 6.255-1.415 7.722-2.775v-4.35h-9.57v-6.74h17.293v13.918c-3.698 4.132-8.866 6.853-15.445 6.853-10.605-.002-19.302-7.397-19.302-18.817zM98.273 121.19l-1.438-3.953h-10l-1.47 3.952h-5.664l9.023-23.327h6.225l8.99 23.326h-5.665zm-6.436-18.362l-3.64 10.037h7.277l-3.637-10.037zM128.143 121.19v-16.334l-6.575 16.333h-2.17l-6.574-16.334v16.333h-4.967V97.862h6.96l5.664 14.093 5.668-14.093h6.994v23.326h-5zM55.53 109.544c0-7.17 5.422-12.067 12.416-12.067 5.14 0 8.113 2.8 9.76 5.703l-4.268 2.1c-.98-1.892-3.08-3.395-5.492-3.395-4.233 0-7.31 3.253-7.31 7.66s3.077 7.658 7.31 7.658c2.414 0 4.513-1.47 5.492-3.393l4.268 2.064c-1.68 2.9-4.62 5.734-9.76 5.734-6.994 0-12.416-4.895-12.416-12.064zM139.514 121.19V97.862h10.91c5.072 0 7.835 3.426 7.835 7.52 0 4.057-2.8 7.52-7.835 7.52h-5.945v8.287h-4.966zm13.675-15.807c0-1.96-1.47-3.148-3.43-3.148h-5.28v6.295h5.28c1.96 0 3.43-1.224 3.43-3.147z"/><g><path fill="#020202" d="M77.05 88.9L69.923 76.01H64.27V88.9h-7.722V52.63h16.965c7.56 0 12.182 4.95 12.182 11.69 0 6.418-4.023 9.843-7.94 10.768L85.91 88.9h-8.86zm.76-24.58c0-3.045-2.338-4.895-5.437-4.895H64.27v9.79h8.103c3.1 0 5.437-1.848 5.437-4.895z"/></g></g><path fill="#FFDA22" d="M86.177 163.24l19.212 19.038L124.6 163.24z"/><path opacity=".1" fill="#020202" d="M106.207 9.707V197.42l49.118-49.03c17.48-14.342 28.82-36.102 28.82-60.476-.002-43.164-34.938-78.158-77.938-78.207z"/><ellipse transform="rotate(45.243 68.34 52.583)" opacity=".32" fill="#FFF" cx="68.344" cy="52.589" rx="20.401" ry="32.78"/><path fill="#005F71" d="M92.976 86.584v-36.27h25.664v6.797H100.7v7.67h17.56v6.795H100.7v8.213h17.94v6.796H92.976zM124.4 68.476c0-11.474 8.698-18.76 19.303-18.76 7.56 0 12.29 3.807 15.01 8.103l-6.417 3.478c-1.633-2.555-4.732-4.73-8.593-4.73-6.58 0-11.364 5.058-11.364 11.908 0 6.853 4.784 11.91 11.363 11.91 3.208 0 6.255-1.414 7.722-2.774v-4.35h-9.57V66.52h17.293v13.92c-3.698 4.13-8.866 6.852-15.445 6.852-10.605 0-19.302-7.397-19.302-18.816zM98.273 118.874l-1.438-3.95h-10l-1.47 3.95h-5.664l9.023-23.327h6.225l8.99 23.327h-5.665zm-6.436-18.36l-3.64 10.036h7.277l-3.637-10.037zM128.143 118.874v-16.332l-6.575 16.332h-2.17l-6.574-16.332v16.332h-4.967V95.547h6.96l5.664 14.094 5.668-14.093h6.994v23.327h-5zM55.53 107.23c0-7.17 5.422-12.068 12.416-12.068 5.14 0 8.113 2.798 9.76 5.702l-4.268 2.098c-.98-1.89-3.08-3.393-5.492-3.393-4.233 0-7.31 3.252-7.31 7.66 0 4.404 3.077 7.658 7.31 7.658 2.414 0 4.513-1.47 5.492-3.395l4.268 2.064c-1.68 2.9-4.62 5.736-9.76 5.736-6.994.002-12.416-4.896-12.416-12.064zM139.514 118.874V95.547h10.91c5.072 0 7.835 3.428 7.835 7.52 0 4.057-2.8 7.52-7.835 7.52h-5.945v8.287h-4.966zm13.675-15.806c0-1.96-1.47-3.148-3.43-3.148h-5.28v6.294h5.28c1.96 0 3.43-1.224 3.43-3.146zM77.05 86.584l-7.126-12.887H64.27v12.887h-7.722v-36.27h16.965c7.56 0 12.182 4.95 12.182 11.69 0 6.417-4.023 9.844-7.94 10.767l8.155 13.813h-8.86zm.76-24.58c0-3.044-2.338-4.893-5.437-4.893H64.27v9.79h8.103c3.1 0 5.437-1.85 5.437-4.895z"/><g opacity=".13" fill="#020202"><path d="M106.033 132.367c-53.706.88-97.68-15.3-98.222-36.14-.198-7.62 5.44-14.803 15.29-20.897-8.04 5.642-12.57 12.132-12.392 18.98.535 20.535 43.183 36.492 95.26 35.64 52.077-.855 93.86-18.194 93.324-38.73-.178-6.85-5.04-13.185-13.368-18.56 10.157 5.77 16.166 12.762 16.363 20.38.546 20.84-42.55 38.444-96.254 39.327z"/><path d="M133.355 62.483C96.9 23.037 54.828 2.41 39.382 16.41c-5.646 5.117-6.948 14.157-4.552 25.49-1.472-9.713.09-17.47 5.167-22.07 15.22-13.795 56.215 6.026 91.565 44.278 35.348 38.252 51.667 80.444 36.445 94.24-5.076 4.6-13.016 5.46-22.655 3.15 11.187 3.36 20.395 2.875 26.04-2.242 15.448-14-1.584-57.325-38.037-96.773z"/><path d="M77.424 62.483C113.88 23.037 155.95 2.41 171.397 16.41c5.646 5.117 6.948 14.157 4.552 25.49 1.47-9.713-.092-17.47-5.168-22.07-15.22-13.795-56.215 6.026-91.565 44.278-35.348 38.252-51.667 80.444-36.445 94.24 5.076 4.6 13.016 5.46 22.655 3.15-11.187 3.36-20.395 2.875-26.04-2.242-15.448-14 1.584-57.325 38.037-96.773z"/></g><g fill="#FFDA22"><path d="M106.033 129.28c-53.706.88-97.68-15.302-98.222-36.14-.198-7.62 5.44-14.803 15.29-20.897-8.04 5.642-12.57 12.13-12.392 18.98.535 20.534 43.183 36.492 95.26 35.64 52.077-.855 93.86-18.194 93.324-38.73-.178-6.85-5.04-13.185-13.368-18.56 10.157 5.768 16.166 12.762 16.363 20.38.546 20.84-42.55 38.444-96.254 39.327z"/><path d="M133.355 59.396C96.9 19.95 54.828-.676 39.382 13.323c-5.646 5.117-6.948 14.156-4.552 25.49-1.472-9.713.09-17.47 5.167-22.07 15.22-13.795 56.215 6.026 91.565 44.278 35.348 38.253 51.667 80.444 36.445 94.24-5.076 4.6-13.016 5.46-22.655 3.15 11.187 3.362 20.395 2.876 26.04-2.242 15.448-14-1.584-57.325-38.037-96.772z"/><path d="M77.424 59.396C113.88 19.95 155.95-.676 171.397 13.323c5.646 5.117 6.948 14.156 4.552 25.49 1.47-9.713-.092-17.47-5.168-22.07-15.22-13.795-56.215 6.026-91.565 44.278-35.348 38.253-51.667 80.444-36.445 94.24 5.076 4.6 13.016 5.46 22.655 3.15-11.187 3.362-20.395 2.876-26.04-2.242-15.448-14 1.584-57.325 38.037-96.772z"/></g><circle fill="#FF6C01" cx="146.294" cy="12.15" r="7.201"/><path opacity=".13" fill="#020202" d="M148.012 5.165a6.76 6.76 0 0 1 3.086 5.675 6.77 6.77 0 0 1-10.583 5.593 7.178 7.178 0 0 0 5.78 2.92 7.2 7.2 0 0 0 7.2-7.202c0-3.382-2.337-6.214-5.483-6.985z"/><circle opacity=".17" fill="#FFF" cx="143.702" cy="9.736" r="3.269"/><g><path fill="#005F71" d="M124.4 68.476c0-11.474 7.94-6.85 7.94 0 0 6.853 4.784 11.91 11.363 11.91 3.208 0 6.255-1.414 7.722-2.774v-4.35h-9.57V66.52h17.293v13.92c-3.698 4.13-8.866 6.852-15.445 6.852-10.605 0-19.302-7.397-19.302-18.816z"/></g><g><path fill="#005F71" d="M77.05 86.584l-7.126-12.887H64.27v12.887h-7.722v-20.86c11.434 2.252 17.352.76 18.188.9 4.244-1.093 9.744-8.006 10.226-8.488 1.508-1.51-7.002 15.156-5.174 11.823 1.83-3.335-.62 2.478-2.034 2.81l8.156 13.813h-8.86z"/></g><g><circle fill="#FF6C01" cx="9.687" cy="91.645" r="4.628"/><path opacity=".13" fill="#020202" d="M10.792 87.155a4.343 4.343 0 0 1 1.983 3.647 4.352 4.352 0 0 1-6.802 3.594 4.61 4.61 0 0 0 3.714 1.877 4.626 4.626 0 0 0 1.105-9.118z"/><circle opacity=".17" fill="#FFF" cx="8.021" cy="90.094" r="2.101"/></g><g><circle fill="#FF6C01" cx="174.079" cy="134.865" r="8.745"/><path opacity=".13" fill="#020202" d="M176.165 126.382a8.21 8.21 0 0 1 3.747 6.893 8.22 8.22 0 0 1-12.85 6.79 8.722 8.722 0 0 0 7.018 3.547 8.745 8.745 0 0 0 8.745-8.746c0-4.11-2.84-7.547-6.66-8.484z"/><circle opacity=".17" fill="#FFF" cx="170.93" cy="131.933" r="3.969"/></g><path opacity=".32" fill="#FFF" d="M103.514 141.093c-17.208 0-33.76-1.775-49.24-5.048 14.63 9.852 32.02 15.564 50.675 15.564 19.233 0 37.118-6.077 52.025-16.497-16.675 3.868-34.68 5.98-53.46 5.98z"/><ellipse fill="#E6E6E6" cx="104.963" cy="203.683" rx="28.299" ry="3.087"/></svg>