<svg xmlns="http://www.w3.org/2000/svg" width="313" height="276.032" viewBox="0 0 313 276.032"><path fill="#FFF5D0" d="M208 241.945v-3.43s18.006 1.112 16.328 20.61c-1.677 19.5 20.698 8.872 22.772-3.812s3.17-16.546 10.435-10.39c9.767 8.28 22.557 6.724 19.5-2.793-3.055-9.515-3.844-8.678.454-10.634 4.295-1.955.007-7.817.007-7.817l-66.937 11.866-7.134 1.99 4.574 4.41zM12 152.348l143.293 4.58L12 161.515zM18.147 115.416l137.226 41.513-139.598-32.66zM33.568 81.313l121.805 75.616-126.39-67.68zM57.29 52.364l98.083 104.565L50.81 58.845zM87.693 30.542l67.68 126.387L79.758 35.123zM122.71 17.332l32.663 139.597-41.515-137.226z"/><path fill="#FFF5D0" d="M159.955 14l-4.582 143.294L150.79 14z"/><path fill="#FFF5D0" d="M196.886 19.704L155.373 156.93l32.66-139.598zM230.988 35.124L155.373 156.93 223.05 30.54zM259.937 58.845L155.373 156.93l98.082-104.566zM281.76 89.25l-126.387 67.68 121.804-75.617zM294.97 124.27l-139.597 32.66 137.225-41.515zM299 161.51l-143.293-4.58L299 152.345zM292.598 198.44l-137.225-41.51 139.596 32.66zM277.177 232.543L155.373 156.93l126.388 67.676zM28.986 224.607l126.387-67.678-121.805 75.615z"/><path fill="#FFF5D0" d="M15.775 189.59l139.598-32.66L18.148 198.44z"/><path fill="#FFF5D0" d="M13 152.347l143.293 4.582L13 161.51z"/><path fill="#FFF5D0" d="M18.148 115.415l137.225 41.514-139.598-32.66zM33.568 81.313l121.805 75.616L28.986 89.25zM57.29 52.364l98.083 104.565L50.81 58.845zM87.694 30.542l67.68 126.387L79.757 35.123z"/><path fill="#FFF5D0" d="M122.71 17.332l32.663 139.597L113.86 19.703z"/><path fill="#FFF5D0" d="M159.955 14l-4.582 143.294L150.79 14z"/><ellipse fill="#FFF5D0" cx="155.586" cy="226.396" rx="128.768" ry="15.813"/><ellipse fill="#010101" cx="156.42" cy="223.545" rx="115.832" ry="12.129" opacity=".08"/><path fill="#93C8D9" d="M254 109.014c0-3.903-2.89-7.014-6.797-7.014H68.797c-3.904 0-6.797 3.11-6.797 7.014v108.392c0 3.903 2.893 6.595 6.797 6.595h178.406c3.906 0 6.797-2.69 6.797-6.594V109.014z"/><path fill="#639BA6" d="M264.838 223.685a3.007 3.007 0 0 1-3.007 3.008H55.855a3.01 3.01 0 0 1-3.008-3.008v-2.857a3.008 3.008 0 0 1 3.008-3.007h205.978a3.006 3.006 0 0 1 3.007 3.008v2.857z"/><path opacity=".18" fill="#010101" d="M188.072 217.774v1.494a1.57 1.57 0 0 1-1.57 1.572h-55.318a1.57 1.57 0 0 1-1.57-1.572v-1.494"/><circle fill="#4C4C4C" cx="158.842" cy="107.305" r="2.002"/><path fill="#4C4C4C" d="M247 121v-6.64c0-1.474-1.004-3.36-2.48-3.36H73.166c-1.474 0-2.166 1.887-2.166 3.36V121h176z"/><path fill="#FFF" d="M71 208.02c0 1.474.692 1.98 2.166 1.98H244.52c1.477 0 2.48-.507 2.48-1.98V121H71v87.02z"/><circle fill="#FF1A00" cx="76.641" cy="116.249" r="1.828"/><circle fill="#FFDA22" cx="82.125" cy="116.249" r="1.828"/><path fill="#FFF" d="M242 117.333c0 .92-.746 1.667-1.667 1.667H91.667c-.92 0-1.667-.746-1.667-1.667v-.666c0-.92.746-1.667 1.667-1.667h148.666c.92 0 1.667.746 1.667 1.667v.666z"/><path fill="#7FEEE0" d="M75 138h26v31H75z"/><path fill="#00C5E6" d="M75 124h26v11H75z"/><path fill="#48778F" d="M75 172h26v38H75z"/><path fill="#E1E1E1" d="M238 126a2 2 0 0 1-2 2H107a2 2 0 0 1 0-4h129a2 2 0 0 1 2 2zM238 135a2 2 0 0 1-2 2H107a2 2 0 0 1 0-4h129a2 2 0 0 1 2 2zM238 143a2 2 0 0 1-2 2H107a2 2 0 0 1 0-4h129a2 2 0 0 1 2 2zM238 151a2 2 0 0 1-2 2H107a2 2 0 0 1 0-4h129a2 2 0 0 1 2 2z"/><path fill="#FFD4E1" d="M105 157h133v18H105z"/><path fill="#E1E1E1" d="M237 204a2 2 0 0 1-2 2h-33a2 2 0 0 1 0-4h33a2 2 0 0 1 2 2zM237 196a2 2 0 0 1-2 2h-33a2 2 0 0 1 0-4h33a2 2 0 0 1 2 2zM237 189a2 2 0 0 1-2 2h-33a2 2 0 0 1 0-4h33a2 2 0 0 1 2 2zM237 181a2 2 0 0 1-2 2h-33a2 2 0 0 1 0-4h33a2 2 0 0 1 2 2zM142 204a2 2 0 0 1-2 2h-33a2 2 0 0 1 0-4h33a2 2 0 0 1 2 2zM142 196a2 2 0 0 1-2 2h-33a2 2 0 0 1 0-4h33a2 2 0 0 1 2 2zM142 189a2 2 0 0 1-2 2h-33a2 2 0 0 1 0-4h33a2 2 0 0 1 2 2zM142 181a2 2 0 0 1-2 2h-33a2 2 0 0 1 0-4h33a2 2 0 0 1 2 2z"/><g><path fill="#E1E1E1" d="M190 204a2 2 0 0 1-2 2h-33a2 2 0 0 1 0-4h33a2 2 0 0 1 2 2zM190 196a2 2 0 0 1-2 2h-33a2 2 0 0 1 0-4h33a2 2 0 0 1 2 2zM190 189a2 2 0 0 1-2 2h-33a2 2 0 0 1 0-4h33a2 2 0 0 1 2 2zM190 181a2 2 0 0 1-2 2h-33a2 2 0 0 1 0-4h33a2 2 0 0 1 2 2z"/></g><path fill="#E1E1E1" d="M245 207.165c0 .46-.373.835-.833.835h-.334a.834.834 0 0 1-.833-.835v-84.33c0-.46.373-.835.833-.835h.334c.46 0 .833.374.833.835v84.33z"/><path opacity=".18" fill="#010101" d="M224.377 236.573c-.217-.298-10.99-2.636-16.053-2.265-5.062.372-19.174 3.532-8.167-7.713 11.206-7.178 21.796-7.52 21.796-7.52l17.604-5.61s16.024-6.706 25.385-3.636c9.36 3.07 2.228 7.44.498 8.42-1.73.98-11.352 6.644-11.352 6.644s13.455 10.185 16.07 17.375c2.613 7.19.96 8.362-3.108 6.04-4.07-2.32-20.758-7.302-21.844-7.563-.78 3.17-8.54 20.023-10.172 22.21-1.63 2.185-7.24 8.414-8.294-1.244-.058-10.693 1.048-20.47-2.363-25.14zM122 170.943c0 1.136-.92 2.057-2.057 2.057h-9.887a2.057 2.057 0 0 1-2.057-2.057v-8.887c0-1.136.92-2.057 2.056-2.057h9.887c1.136 0 2.057.92 2.057 2.056v8.887z"/><path fill="#FFF" d="M167 162.916c0 .854-.104 1.084-.956 1.084h-40.26c-.852 0-1.784-.23-1.784-1.084v-.247c0-.855.933-1.67 1.785-1.67h40.26c.85 0 .955.815.955 1.67v.246z"/><path fill="#FF6787" d="M226.877 234.906c-.216-.298-10.988-2.636-16.052-2.265-5.063.373-19.175 3.533-8.167-7.712 11.206-7.178 21.797-7.52 21.797-7.52l-3.044-17.42c-.146-3.08-1.61-8.345 6.044-3.74 7.652 4.606 14.604 15.55 14.604 15.55s16.022-6.706 25.384-3.636c9.36 3.07 2.228 7.44.498 8.42-1.73.98-11.352 6.645-11.352 6.645s13.455 10.185 16.07 17.375c2.612 7.19.96 8.363-3.108 6.04-4.072-2.32-20.758-7.3-21.844-7.562-.782 3.17-8.54 20.023-10.172 22.21-1.63 2.185-7.24 8.414-8.294-1.245-.057-10.692 1.048-20.47-2.363-25.14z"/><path opacity=".18" fill="#010101" d="M267.94 216.583c.86-.488 3.067-1.82 3.903-3.413-4.724-.4-15.12-.478-19.482 6.067a419.47 419.47 0 0 0 4.42 3.88c1.342-.79 9.574-5.633 11.16-6.534zM221.31 195.815c-.258 1.17.038 2.868.102 4.175l3.044 17.42s7.33.988 5.075-4.795c-1.814-4.647-5.25-13.18-8.22-16.8zM234.67 232.06c-1.482-8.86-4.16-7.487-10.164-7.278-4.613.162-19.34 4.27-25.928 6.168-.408 3.812 8.455 1.972 12.247 1.692 5.063-.37 15.836 1.967 16.052 2.265 3.41 4.67 2.306 14.446 2.364 25.14.405 3.706 1.482 5.072 2.745 5.226 1.677-8.335 3.84-26.298 2.684-33.214zM270.688 247.23c-2.956-4.557-9.108-11.96-19.264-14.976-3.15-1.057-3.963 1.28-3.885 2.76.02.408.084 1.997.163 4.078 0-.005.003-.008.004-.012 1.086.262 17.77 5.243 21.844 7.563.404.232.783.425 1.138.586z"/><ellipse transform="rotate(16.3 236.07 259.06)" fill="none" cx="236.079" cy="259.126" rx=".872" ry="2.052"/><g opacity=".18" fill="#010101"><ellipse transform="rotate(16.273 238.526 251.232)" cx="238.495" cy="251.192" rx="1.483" ry="2.053"/><ellipse transform="rotate(8.622 240.63 242.135)" cx="240.623" cy="242.131" rx="1.482" ry="2.053"/><ellipse transform="rotate(-100.25 231.583 219.373)" cx="231.576" cy="219.367" rx="1.821" ry="2.523"/><ellipse transform="rotate(-111.358 249.51 213.264)" cx="249.521" cy="213.257" rx="1.712" ry="2.372"/><ellipse transform="rotate(-111.358 258.145 211.3)" cx="258.14" cy="211.298" rx="1.177" ry="1.631"/><ellipse transform="rotate(-88.15 266.326 210.043)" cx="266.339" cy="210.047" rx="1.177" ry="1.631"/><ellipse transform="rotate(-100.25 222.648 220.57)" cx="222.645" cy="220.565" rx="1.492" ry="2.066"/><ellipse transform="rotate(-100.305 214.018 222.517)" cx="214.026" cy="222.524" rx="1.141" ry="1.58"/><ellipse transform="rotate(-100.23 205.258 226.682)" cx="205.25" cy="226.682" rx="1.141" ry="1.579"/><ellipse transform="rotate(8.645 241.248 232.924)" cx="241.283" cy="232.965" rx="1.875" ry="2.596"/><ellipse transform="rotate(-50.93 248.197 223.875)" cx="248.203" cy="223.882" rx="1.875" ry="2.596"/><ellipse transform="rotate(-26.437 235.09 211.515)" cx="235.09" cy="211.512" rx="1.459" ry="2.021"/><ellipse transform="rotate(-26.427 230.862 203.826)" cx="230.854" cy="203.835" rx="1.292" ry="1.791"/><ellipse transform="rotate(-26.437 225.7 198.295)" cx="225.724" cy="198.305" rx="1.05" ry="1.454"/><ellipse transform="rotate(-50.98 255.626 228.482)" cx="255.612" cy="228.472" rx="1.594" ry="2.206"/><ellipse transform="rotate(-50.95 263.04 233.064)" cx="263.021" cy="233.06" rx="1.252" ry="1.734"/><ellipse transform="rotate(-50.987 268.54 238.622)" cx="268.517" cy="238.616" rx=".923" ry="1.276"/></g><path opacity=".18" fill-rule="evenodd" clip-rule="evenodd" fill="#010101" d="M54.43 140.75l2.73 3.53s1.17-1.578 5.22 2.737c4.054 4.317 9.33 10.604 20.567 3.202 11.24-7.404 6.664-19.104 6.287-20.98-.375-1.876-.95-3.056-.47-3.832.615-.985 1.317-1.462 2.458-1.667.9-.16 1.784.81 3.388 1.85 1.604 1.044 10.787 9.615 21.817 1.905s7.136-14.936 4.62-20.295c-2.515-5.358-.614-5.863-.614-5.863l-2.272-3.843c-9.52 3.657-19.91 10.822-24.035 15.978a97.955 97.955 0 0 1-3.913 4.613c-2.363 2.61-3.03 3.062-6.33 4.295a98.187 98.187 0 0 1-5.73 1.933c-6.315 1.932-16.812 8.943-23.723 16.438zm10.492-6.162c-1.937 2.05-3.396 4.64-2.66 7.463 1.015 3.872 4.12 6.75 7.3 8.334 4.38 2.182 8.01 1.41 12.02-1.117 4.19-2.64 8.285-7.604 5.833-16.098-1.75-6.067-5.442-7.147-8.867-6.58-4.22.695-10.702 4.9-13.626 7.998zm43.635-29.616c2.62-1.043 5.565-1.444 7.918.286 3.225 2.37 4.753 6.318 5.05 9.858.41 4.875-1.647 7.967-5.478 10.76-3.998 2.92-10.125 4.89-17.113-.524-4.99-3.867-4.633-7.696-2.84-10.67 2.203-3.664 8.506-8.137 12.463-9.71zm7.464-4.35c-.92.56-1.516 1.235-1.33 1.51.19.277 1.09.047 2.01-.512.92-.558 1.516-1.235 1.328-1.512-.187-.275-1.086-.044-2.007.515zM58.125 139.92c.86-.65 1.707-.954 1.896-.678.188.275-.36 1.026-1.22 1.676s-1.706.954-1.895.678c-.186-.277.36-1.027 1.22-1.676z"/><path fill-rule="evenodd" clip-rule="evenodd" fill="#A8F5FF" d="M116.863 102.88c-.344-.114-8.228-3.428-17.94 4.914-9.713 8.34-3.657 15.084-2.97 15.54.684.457 7.94 7.254 15.54 3.428 7.598-3.826 11.312-8.608 10.627-11.73-.686-3.125-2.172-11.124-5.257-12.152z"/><path fill-rule="evenodd" clip-rule="evenodd" fill="#FFF" d="M104.98 103.108c.113.457-1.83 23.54-1.83 24.11 0 .572 4.115-.457 4.23 0 .114.458 1.828-25.71 1.828-25.71l-4.23 1.6zM110.98 101.627L109.85 127h1.3l1.142-25.883z"/><path fill-rule="evenodd" clip-rule="evenodd" fill="#A8F5FF" d="M83.953 124.82c-.342-.115-8.228-3.43-17.94 4.913-9.712 8.342-3.656 15.083-2.97 15.54.686.457 7.94 7.255 15.54 3.428 7.6-3.825 11.312-8.606 10.627-11.73-.686-3.122-2.17-11.122-5.257-12.15z"/><path fill="#FFF" d="M233 169.457c0 .853-.69 1.543-1.543 1.543H125.543c-.852 0-1.543-.69-1.543-1.543v-.914c0-.853.69-1.543 1.543-1.543h105.914c.852 0 1.543.69 1.543 1.543v.914z"/><path fill-rule="evenodd" clip-rule="evenodd" fill="#FFF" d="M70.697 126.42c.115.456-1.827 23.54-1.827 24.11s4.114-.458 4.23 0c.11.456 1.826-25.71 1.826-25.71l-4.23 1.6zM76.697 124.28L75.567 149h1.302l1.14-25.557z"/><path fill-rule="evenodd" clip-rule="evenodd" fill="#303030" d="M53.595 139.084l2.73 3.53s1.172-1.58 5.223 2.736c4.052 4.317 9.33 10.604 20.566 3.202 11.24-7.403 6.663-19.103 6.286-20.98-.375-1.875-.95-3.055-.47-3.83.615-.986 1.317-1.463 2.46-1.67.898-.16 1.782.81 3.387 1.852 1.604 1.043 10.787 9.614 21.817 1.904 11.03-7.71 7.136-14.936 4.618-20.294-2.514-5.36-.613-5.864-.613-5.864l-2.273-3.843c-9.52 3.657-19.91 10.822-24.036 15.978a99.255 99.255 0 0 1-3.91 4.613c-2.365 2.61-3.032 3.062-6.33 4.295a99.215 99.215 0 0 1-5.73 1.933c-6.317 1.93-16.813 8.943-23.725 16.438zm10.494-6.163c-1.938 2.05-3.398 4.64-2.66 7.464 1.013 3.87 4.117 6.75 7.298 8.333 4.38 2.182 8.012 1.41 12.022-1.117 4.188-2.64 8.283-7.604 5.832-16.098-1.752-6.066-5.443-7.146-8.868-6.58-4.218.696-10.702 4.902-13.625 8zm43.633-29.616c2.62-1.042 5.566-1.443 7.92.287 3.223 2.37 4.752 6.32 5.048 9.86.412 4.874-1.645 7.966-5.477 10.76-3.998 2.918-10.125 4.89-17.113-.525-4.99-3.867-4.632-7.696-2.84-10.67 2.204-3.664 8.506-8.136 12.463-9.71zm7.465-4.348c-.922.56-1.517 1.233-1.33 1.51.187.276 1.087.046 2.007-.513.922-.558 1.518-1.235 1.33-1.512-.187-.274-1.086-.044-2.007.516zM57.29 138.25c.86-.648 1.708-.953 1.896-.677.188.275-.36 1.026-1.22 1.675-.857.65-1.705.955-1.894.678-.187-.276.36-1.026 1.218-1.675z"/><path opacity=".18" fill="#010101" d="M254 144.08l-6 1.21v-19.573l6-10.436zM254 173.68l-4.863-.156 2.302-22.602L254 161.96z"/><g><path fill="#FFC0D6" d="M279.956 142.892l-30.808 1.426-1.386-29.974 24.978-1.156 6.1 5.558z"/><g fill="#4C4C4C"><path opacity=".8" d="M252.285 122.54l.002-.008c.287.425.615.835 1.002 1.308.278.344 1.284-.11 1.475-.384 1.513-2.18 7.554-1.077 10.24-1.522.556-.093.94-.276 1.195-.47-.02.377 1.286-.045 1.43-.17.02-.02.03-.028.05-.046.44.37.898.72 1.39 1.027.313.22.952.057 1.31-.228.408.088 1.06-.26 1.265-.485.116-.13.233-.256.35-.385.21.285.42.568.628.854.288.44 1.29.007 1.533-.305.114-.367.373-.525.777-.476.7-.15 1.335-1 .223-.763-.615.13-1.026.213-1.38.376-.22-.327-.35-.48-.808-1.03-.305-.363-1.252.138-1.476.385l-.35.385-.035-.046c-.226-.48-1.325.008-1.555.363-.356-.274-.7-.566-1.024-.88-.338-.297-1.26.064-1.477.383l-.068.076c-3.915 1.603-9.555-.57-12.744 2.055a8.06 8.06 0 0 1-1.223-2.275c-.168-.502-1.34.078-1.532.308-.72.858-.796 1.354-.787 2.46.004.373 1.592.05 1.59-.507zM277.55 136.23c-.613.132-1.024.214-1.378.378-.22-.328-.348-.482-.807-1.03-.306-.365-1.252.136-1.477.384-.118.127-.233.255-.35.384l-.035-.046c-.225-.478-1.324.01-1.555.364a12.02 12.02 0 0 1-1.025-.882c-.337-.295-1.26.065-1.477.385-.022.026-.045.05-.07.076-3.913 1.604-9.553-.57-12.743 2.056a8.105 8.105 0 0 1-1.222-2.275c-.166-.504-1.34.078-1.532.307-.717.858-.795 1.354-.785 2.458.004.375 1.593.052 1.588-.506a.02.02 0 0 0 .003-.008c.287.425.617.836 1.002 1.31.28.342 1.287-.11 1.477-.385 1.512-2.18 7.555-1.077 10.24-1.522.557-.092.94-.276 1.194-.47-.02.378 1.287-.046 1.43-.17.02-.02.03-.028.052-.045.44.37.898.72 1.39 1.027.312.22.95.056 1.31-.228.408.088 1.057-.26 1.264-.486.117-.128.233-.257.352-.384l.627.852c.288.438 1.29.007 1.532-.306.115-.366.374-.524.778-.475.7-.15 1.334-1.002.22-.763zM253.68 130.145c1.626-1.1 1.366-.977 3.017.838.423.463 1.252.19 1.495-.326 2.615-5.516 9.8-.147 14.458-1.413.01.23.02.46.032.688.043.93 1.62.508 1.775-.188.13-.376.29-.75.452-1.12.2.218.404.436.603.652.52.57 2.02-.16 1.444-.793-.49-.533-.973-1.067-1.46-1.6-.417-.455-1.263-.203-1.494.323-.055.126-.114.243-.173.36-.266-.036-.595.073-.81.233-2.148 1.61-8.108-.765-10.692-.775-2.12-.007-3.83.766-5 2.31-.54-.584-1.065-1.166-1.554-1.818-.233-.312-.807-.29-1.102-.09-.53.354-.894.916-1.33 1.364-.233.048-.45.163-.57.36l-.172.28c-.434.712.544 1.078 1.08.715z"/></g><path opacity=".18" fill="#010101" d="M273.01 119.016l5.83-.27-6.1-5.558z"/></g><path fill="#E7FF82" d="M272.708 175.02l-23.03-2.05 1.998-22.408 18.672 1.666 3.968 4.745z"/><g fill="#4C4C4C"><path opacity=".8" d="M254.208 157.11c0-.002 0-.004.003-.008.17.346.373.685.61 1.074.175.282.97.048 1.138-.136 1.343-1.468 5.72-.038 7.76-.098.423-.013.726-.11.936-.23-.054.28.96.097 1.08.02.017-.012.024-.02.04-.028.29.32.596.625.93.903.21.194.7.137.994-.037.296.106.812-.086.99-.233l.3-.25c.125.232.253.464.38.696.168.355.955.135 1.17-.072.12-.26.328-.35.623-.273.537-.04 1.095-.607.244-.544-.47.037-.784.056-1.063.142-.13-.266-.208-.394-.493-.848-.19-.3-.945-.024-1.137.137l-.3.25a.407.407 0 0 0-.02-.036c-.118-.38-.985-.13-1.19.112a9.362 9.362 0 0 1-.673-.76c-.222-.252-.94-.077-1.136.137-.02.018-.037.034-.057.05-3.07.798-7.04-1.387-9.676.24a6.085 6.085 0 0 1-.678-1.812c-.075-.39-1.005-.078-1.17.073-.62.564-.728.925-.833 1.746-.036.28 1.177.2 1.23-.215zM254.476 162.898c1.32-.653 1.114-.586 2.157.927.268.388.91.268 1.144-.09 2.5-3.834 7.294.88 10.882.41-.017.17-.03.342-.047.514-.062.694 1.153.54 1.34.04.134-.27.29-.528.447-.787l.383.545c.33.476 1.517.085 1.153-.442-.31-.446-.615-.892-.924-1.337-.263-.38-.917-.278-1.143.09a6.338 6.338 0 0 1-.165.25c-.194-.055-.45-.007-.624.09-1.76.98-5.946-1.386-7.863-1.653-1.576-.22-2.924.18-3.948 1.212-.343-.49-.676-.978-.972-1.51-.144-.257-.57-.297-.81-.18-.43.21-.756.59-1.125.88a.623.623 0 0 0-.46.21c-.053.062-.104.127-.156.19-.394.483.295.854.73.638z"/></g><path opacity=".18" fill="#010101" d="M269.96 156.584l4.356.39-3.968-4.746z"/></svg>