<svg xmlns="http://www.w3.org/2000/svg" width="263.4" height="295" viewBox="0 0 263.4 295"><path fill="#F1F1F1" d="M180.27 50.283l.477-.545c.356-.135.577-.322.577-.53 0-.007.032-.015.03-.023.003-.01.046-.02.046-.03v-2.408c0-.038-.046-.074-.06-.107.165-.076.248-.162.248-.255 0-.08-.08-.153-.198-.22-.014-.248.015-1.05.79-2.7a3.3 3.3 0 0 0 .517-1.788 3.32 3.32 0 1 0-6.12 1.79c.75 1.583.856 2.385.867 2.665-.16.075-.26.16-.26.252 0 .093.088.18.253.254-.015.034-.037.07-.037.108V49.208c0 .208.236.395.595.53l.478.54c.052.124.27.716.564.76.004.116.002-.04.006.96h.675c.003-1 .006-.845.01-.96.282-.045.49-.636.543-.755z"/><path fill="#F1F1F1" d="M173.918 238.947c3.77.395 4.94.023 5.28-.316.34.34 1.51.71 5.283.315C179.206 237.375 179.587 73 179.663 50h-.93c.08 23 .46 187.38-4.814 188.947z"/><g fill="#F1F1F1"><path d="M70.024 225.888l-.303-.015a.78.78 0 0 0 .304.015zM76.3 111.714c.058.134.233.25.5.328.047 32.714-.485 113.003-6.77 113.846 5.272.262 6.89.008 7.36-.22.473.228 2.093.482 7.364.22-6.28-.84-6.813-80.983-6.77-113.755.512-.053.9-.215.988-.42M85.058 225.873l-.304.015c.1.013.2.012.304-.015z"/></g><circle fill="#D5F1FF" cx="126.651" cy="242.616" r="17.861"/><path fill="#E1E1E1" d="M116.497 244.656c0-9.866-7.995-17.86-17.863-17.86-9.86 0-17.86 7.995-17.86 17.86 0 9.865 8 17.86 17.86 17.86 9.868 0 17.863-7.995 17.863-17.86z"/><circle fill="#D5F1FF" cx="140.929" cy="246.455" r="17.862"/><g fill="#F1F1F1"><path d="M41.51 226.594c-.242-.01-.492-.023-.753-.037.26.07.51.078.753.037zM48.8 178.077c.52-.083.902-.265.998-.483l.87-.997c.652-.247 1.057-.59 1.057-.97 0-.015-.172-.028-.174-.043.003-.02-.15-.037-.15-.057v-4.407c0-.07.15-.136.124-.197.3-.14.57-.297.57-.467 0-.144-.085-.28-.305-.402-.028-.455.052-1.925 1.472-4.942a6.06 6.06 0 0 0 .966-3.274 6.078 6.078 0 0 0-6.074-6.082 6.078 6.078 0 0 0-6.076 6.082c0 1.205.354 2.33.955 3.274 1.37 2.9 1.567 4.37 1.588 4.88-.294.14-.476.295-.476.464 0 .17.092.327.394.466-.027.06-.137.127-.137.197v4.406c0 .02.105.037.108.056-.002.015.035.03.035.043 0 .38.432.723 1.086.97l.876.99c.092.226.494.412 1.03.494.09 4.713.705 47.367-6.03 48.513 4.737.22 6.222-.018 6.664-.23.444.212 1.928.45 6.664.23-6.736-1.145-6.123-43.816-6.035-48.516zM55.588 226.557c-.26.014-.51.026-.752.037.24.04.49.032.752-.037z"/></g><g fill="#F1F1F1"><path d="M188.875 228.466c-.372-.017-.756-.036-1.153-.057.4.105.783.12 1.153.056zM203.055 214.896a2.676 2.676 0 0 0 1.096-2.156c0-1.183-.77-2.176-1.833-2.534l-.082-.603c.152-.298.247-.632.247-.99 0-.553-.212-1.052-.55-1.438-2.184-18.683-2.012-43.996-1.903-51.534.328-.095.562-.235.635-.397l.86-.99c.65-.247 1.053-.587 1.053-.965 0-.015-.1-.028-.1-.043.002-.02-.077-.036-.077-.056v-4.38c0-.202-.03-.375-.205-.453.258-.134.462-.284.462-.446 0-.008-.29-1.37 1.445-5.07.602-.94.963-2.055.963-3.254a6.036 6.036 0 0 0-12.074 0c0 1.2.35 2.315.954 3.254 1.74 3.7 1.572 5.062 1.572 5.07 0 .153.096.295.326.422-.225.048-.44.24-.44.477v4.378c0 .02.054.037.056.056 0 .015.01.028.01.043 0 .377.418.718 1.066.964l.87.993c.08.18.36.333.747.427.108 7.457.275 32.063-1.802 50.627a2.178 2.178 0 0 0-.4 2.398 2.674 2.674 0 0 0-1.993 2.025 2.68 2.68 0 0 0 .396 2.067 3.493 3.493 0 0 0-2.01 3.157c0 1.362.784 2.53 1.92 3.108-1.32 5.42-3.07 9.017-5.384 9.412 7.26.335 9.533-.028 10.212-.353.68.326 2.956.69 10.218.354.37.063.752.05 1.15-.057-.396.02-.78.04-1.15.057-2.866-.486-4.863-5.88-6.25-13.568z"/></g><path fill="#AFAFAF" d="M67.637 229.35c0 6.23 5.055 11.28 11.282 11.28 6.23 0 11.28-5.05 11.28-11.28 0-6.23-5.05-11.28-11.28-11.28-6.23 0-11.283 5.05-11.283 11.28z"/><path fill="#E1E1E1" d="M49.4 237.014c0 7.71 6.247 13.957 13.953 13.957 7.71 0 13.957-6.247 13.957-13.956 0-7.707-6.247-13.956-13.957-13.956-7.706 0-13.952 6.25-13.952 13.956z"/><g fill="#3786A1"><path d="M85.377 205.504c-3.246 0-6.16 1.38-8.215 3.576a13.104 13.104 0 0 0-3.17-.402c-5.55 0-10.28 3.458-12.185 8.333a2.613 2.613 0 0 0-.55-.187 2.658 2.658 0 0 0-1.626.158 8.964 8.964 0 0 0-6.338-4.595 2.128 2.128 0 0 0-1.238-1.81c.046-.12.09-.24.12-.37.318-1.45-.6-2.882-2.047-3.198a2.666 2.666 0 0 0-2.625.904 2.13 2.13 0 0 0-3.843.738c-.104.466-.04.927.144 1.33-4.134.794-7.26 4.426-7.26 8.792a8.956 8.956 0 0 0 8.955 8.955c.038 0 .076-.005.114-.005a8.91 8.91 0 0 0 6.11 2.422 8.96 8.96 0 0 0 8.91-8.012c.097.002.19-.013.288-.022.183 7.07 5.96 12.744 13.07 12.744a13.08 13.08 0 0 0 11.5-6.832c6.16-.063 11.143-5.074 11.143-11.253.002-6.224-5.04-11.263-11.256-11.263zM220.057 211.792c-4.703 0-8.815 2.492-11.12 6.218a6.346 6.346 0 0 0-5.077-2.54 6.36 6.36 0 0 0-6.203 4.963 6.048 6.048 0 0 0-9.914-2.284c-.424-.05-.852-.08-1.287-.08-1.467 0-2.863.288-4.146.797-.67-6.6-6.246-11.753-13.02-11.753a13.03 13.03 0 0 0-6.196 1.558 13.01 13.01 0 0 0-7.908-2.677c-.397 0-.79.024-1.18.06-1.383-5.745-6.54-10.018-12.712-10.018-5.935 0-10.94 3.954-12.544 9.37-1.105-5.057-5.603-8.845-10.99-8.845-3.648 0-6.883 1.743-8.94 4.433-6.106.13-11.02 5.11-11.02 11.25 0 6.22 5.042 11.258 11.26 11.258 3.648 0 6.883-1.743 8.94-4.433 4.854-.103 8.943-3.27 10.42-7.652 1.086 6.133 6.43 10.793 12.874 10.793.398 0 .792-.024 1.182-.058 1.384 5.745 6.542 10.017 12.71 10.017 2.24 0 4.348-.565 6.192-1.558a13.01 13.01 0 0 0 7.912 2.678c2.233 0 4.336-.563 6.177-1.55 1.105 5.055 5.6 8.84 10.99 8.84 6.215 0 11.25-5.037 11.25-11.254 0-1.273-.22-2.493-.61-3.634a5.987 5.987 0 0 0 .752-1.792 6.355 6.355 0 0 0 6.01 4.294 6.324 6.324 0 0 0 3.337-.953c1.114 6.1 6.445 10.726 12.86 10.726 7.233 0 13.09-5.86 13.09-13.087 0-7.23-5.858-13.088-13.09-13.088z"/></g><circle fill="#72BDD4" cx="158.248" cy="227.132" r="14.211"/><g fill="#D5F1FF"><path d="M97.17 231.32c-2.33-.06-4.8-.132-7.438-.22 2.655.44 5.125.488 7.438.22zM175.33 231.102a1085 1085 0 0 1-7.44.218c2.313.268 4.784.22 7.44-.218zM157.43 219.57c0-4.877-3.167-9.008-7.553-10.47a8.145 8.145 0 0 0 .613-3.105c0-4.17-3.12-7.604-7.148-8.117a6.26 6.26 0 0 0 1.042-3.464c0-3.124-2.28-5.71-5.27-6.198a5.104 5.104 0 0 0 1.36-3.47c0-1.946-1.086-3.707-2.684-4.577-3.055-23.45-1.582-46.17-1.582-46.17h-7.361s1.395 21.473-1.333 44.208a5.177 5.177 0 0 0-2.798 4.6c0 .746.16 1.468.446 2.107a6.29 6.29 0 0 0-3.74 9.6 8.19 8.19 0 0 0-4.697 7.405c0 .402.04.796.096 1.183-.39-.032-.783-.06-1.183-.06-7.85 0-14.21 6.365-14.21 14.21 0 4.333 1.942 8.205 4.998 10.812a21.92 21.92 0 0 1-9.256 3.255c24.864.635 32.89-.178 35.36-.91 2.47.732 10.495 1.545 35.36.91-4.788-.557-8.87-2.535-12.35-5.57a10.978 10.978 0 0 0 1.89-6.18z"/></g><circle fill="#72BDD4" cx="172.459" cy="239.168" r="18.963"/><path fill="#D5F1FF" d="M185.143 235.154c-8.325 0-15.3 5.704-17.278 13.412a17.79 17.79 0 0 0-17.57-1.894c-4.1-7.678-12.19-12.904-21.506-12.904-2.76 0-5.408.465-7.88 1.31a24.715 24.715 0 0 0-1.813-1.512c.018-.39.03-.78.03-1.173 0-13.96-11.314-25.278-25.28-25.278-6.153 0-11.79 2.21-16.172 5.87a7.24 7.24 0 0 0-2.984-.646 7.292 7.292 0 0 0-6.938 5.06 18.87 18.87 0 0 0-4.84 2.852 13.892 13.892 0 0 0-9.23-3.507c-.58 0-1.147.046-1.708.115a18.644 18.644 0 0 0-13.112-5.37c-6.44 0-12.112 3.262-15.477 8.216a17.743 17.743 0 0 0-3.84 2.847c-3.638 3.57-5.398 8.316-5.307 13.038-1.036 5.518.54 11.435 4.775 15.747 5.29 5.39 13.168 6.68 19.715 3.86 2.32 4.296 6.862 7.216 12.09 7.216 2.19 0 4.256-.526 6.094-1.438.26 5.706 4.957 10.26 10.725 10.26a10.7 10.7 0 0 0 6.584-2.265 10.69 10.69 0 0 0 5.3 1.403c2.263 0 4.358-.702 6.09-1.895 4.467 5.435 11.233 8.905 18.816 8.905 2.76 0 5.41-.466 7.883-1.312a24.276 24.276 0 0 0 16.48 6.424c6.35 0 12.13-2.43 16.466-6.407 3.19 2.98 7.463 4.817 12.174 4.817 8.326 0 15.3-5.703 17.28-13.41a17.752 17.752 0 0 0 10.433 3.383c9.868 0 17.863-7.996 17.863-17.86 0-9.864-7.995-17.86-17.863-17.86z"/><path fill="#D5F1FF" d="M240.28 220.598c-.58-4.956-4.79-8.804-9.9-8.804-4.913 0-8.986 3.553-9.815 8.225a13.89 13.89 0 0 0-8.974-3.277c-4.96 0-9.305 2.594-11.78 6.49-6.707 1.018-11.85 6.79-11.85 13.78 0 5.18 2.827 9.688 7.016 12.097 1.286 8.6 8.685 15.206 17.646 15.206 6.455 0 12.096-3.44 15.234-8.577 1.49.38 3.05.584 4.66.584 10.33 0 18.708-8.375 18.708-18.708 0-7.56-4.49-14.067-10.943-17.018z"/><path fill="#FFF" d="M24.605 230.72a8.498 8.498 0 0 1 12.016.112 8.463 8.463 0 0 1 2.41 6.46 8.498 8.498 0 0 0-14.287-7.735 8.46 8.46 0 0 0-2.517 5.54 8.493 8.493 0 0 1 2.38-4.377zM131.41 133.546c.522 1.28-2.195 76.444-15.148 88.947-6.077 5.868.25 4.632 1.52 3.21 14.016-15.713 13.96-93.688 13.96-93.688l-1.61.856 1.277.676zM133.328 134.197c-.584 1.48 3.692 87.877 18.78 102.058 7.077 6.652-.22 5.328-1.696 3.716-16.36-17.855-17.49-107.53-17.49-107.53l1.866.962-1.46.795zM44.384 229.158c7.006-6.877 18.26-6.773 25.138.233 3.668 3.74 5.33 8.684 5.038 13.53 1.117-5.58-.454-11.594-4.74-15.96-6.878-7.006-18.13-7.11-25.14-.235-3.272 3.21-5.018 7.375-5.272 11.616a17.692 17.692 0 0 1 4.976-9.182z"/><path fill="#FFF" d="M146.398 227.1c-7.914 7.765-8.03 20.473-.266 28.386 7.762 7.91 20.47 8.03 28.385.264 7.91-7.762 8.028-20.472.262-28.383-7.762-7.91-20.47-8.028-28.382-.266z"/><circle fill="#D5F1FF" cx="160.122" cy="244.17" r="20.071"/><path fill="#FFF" d="M89.293 214.013c-6.91 6.783-7.014 17.884-.232 24.793 6.782 6.91 17.886 7.013 24.792.23 6.91-6.778 7.014-17.88.232-24.792-6.78-6.906-17.88-7.014-24.79-.23z"/><path fill="#D5F1FF" d="M88.998 216.41c-6.91 6.784-7.014 17.883-.23 24.795 6.78 6.91 17.882 7.013 24.793.23 6.91-6.78 7.014-17.882.232-24.794-6.784-6.906-17.885-7.01-24.794-.23z"/><path fill="#FFF" d="M74.916 242.89c5.662-5.557 14.756-5.475 20.315.188 2.963 3.017 4.306 7.01 4.07 10.923.9-4.504-.37-9.36-3.832-12.89-5.557-5.658-14.65-5.743-20.31-.19-2.64 2.59-4.05 5.95-4.26 9.37a14.29 14.29 0 0 1 4.018-7.4zM147.778 239.438a8.38 8.38 0 0 1 11.85.112 8.34 8.34 0 0 1 2.374 6.37 8.368 8.368 0 0 0-2.233-7.517c-3.244-3.302-8.55-3.353-11.852-.11a8.336 8.336 0 0 0-2.483 5.456 8.323 8.323 0 0 1 2.343-4.312zM207.362 259.116c-2.623-2.667-2.578-6.954.09-9.574 2.29-2.25 5.776-2.532 8.374-.876a6.766 6.766 0 0 0-9.53-.05 6.772 6.772 0 0 0-.088 9.577c.37.375.773.693 1.198.964-.013-.015-.03-.027-.044-.04zM205.644 231.61c1.007-4.54 5.51-7.406 10.046-6.395a8.393 8.393 0 0 1 5.498 4.085 8.42 8.42 0 0 0-16.053 1.268 8.37 8.37 0 0 0 .906 5.98 8.385 8.385 0 0 1-.396-4.937z"/><path fill="#FFF" d="M218.924 234.79c1.723-7.745 9.39-12.63 17.138-10.91 4.13.917 7.433 3.537 9.368 6.95-1.698-4.27-5.412-7.656-10.24-8.728-7.742-1.72-15.412 3.167-17.135 10.91-.8 3.612-.15 7.202 1.54 10.186a14.282 14.282 0 0 1-.67-8.407z"/><path fill="#D5F1FF" d="M120.796 177.377c0 .428.357.773.797.773.442 0 .8-.345.8-.773v-15.53a.786.786 0 0 0-.8-.774.786.786 0 0 0-.797.775v15.53zM144.65 184.018a.76.76 0 0 0 1.517 0v-15.185c0-.42-.34-.756-.762-.756a.756.756 0 0 0-.756.756v15.185z"/><path fill="#E1E1E1" d="M149.734 145.26a.758.758 0 0 0 1.516 0v-15.186a.76.76 0 0 0-.76-.758.756.756 0 0 0-.756.758v15.187z"/><g fill="#72BDD4"><path d="M194.838 64.687a.713.713 0 0 1-1.428 0V58.35c0-.396.316-.717.713-.717.394 0 .715.32.715.716v6.337z"/><path d="M197.295 60.802c.395 0 .712.32.712.714a.713.713 0 0 1-.712.716h-6.342a.716.716 0 0 1 0-1.43h6.342z"/></g><g fill="#72BDD4"><path d="M34.85 134.383c0 .56-.453 1.016-1.017 1.016a1.018 1.018 0 0 1-1.015-1.017v-9.013a1.017 1.017 0 0 1 2.033 0v9.013z"/><path d="M38.342 128.862c.56 0 1.014.456 1.014 1.015 0 .56-.453 1.015-1.014 1.015h-9.014a1.015 1.015 0 0 1 0-2.03h9.014z"/></g><g fill="#72BDD4"><path d="M234.16 208.02c0 .56-.453 1.017-1.014 1.017-.56 0-1.014-.456-1.014-1.017v-9.01c0-.562.453-1.017 1.014-1.017.56 0 1.015.456 1.015 1.016v9.01z"/><path d="M237.655 202.498a1.016 1.016 0 0 1 0 2.033h-9.013a1.02 1.02 0 0 1-1.02-1.016c0-.56.46-1.016 1.02-1.016h9.013z"/></g><g fill="#72BDD4"><path d="M36.7 201.296c0 .42-.344.762-.765.762a.76.76 0 0 1-.756-.762v-6.738c0-.42.338-.758.755-.758.42 0 .764.34.764.758v6.738z"/><path d="M39.307 197.168c.418 0 .76.342.76.76 0 .42-.342.76-.76.76h-6.74a.76.76 0 0 1 0-1.52h6.74z"/></g><g fill="#72BDD4"><path d="M204.78 96.517a1.04 1.04 0 0 1-1.04 1.037 1.035 1.035 0 0 1-1.034-1.037V87.31c0-.57.462-1.037 1.034-1.037.574 0 1.04.465 1.04 1.037v9.207z"/><path d="M208.344 90.875a1.04 1.04 0 0 1 0 2.08h-9.203a1.04 1.04 0 0 1 0-2.08h9.204z"/></g><g fill="#72BDD4"><path d="M47.254 100.39c0 .633-.513 1.148-1.146 1.148a1.15 1.15 0 0 1-1.15-1.15V90.193a1.15 1.15 0 0 1 2.297 0v10.197z"/><path d="M51.205 94.14c.64 0 1.15.516 1.15 1.15 0 .635-.512 1.15-1.15 1.15H41.01a1.15 1.15 0 0 1-1.152-1.15c0-.634.517-1.15 1.15-1.15h10.197z"/></g><g fill="#72BDD4"><path d="M61.48 136.09a.656.656 0 0 1-1.313 0v-5.832c0-.364.29-.66.655-.66a.66.66 0 0 1 .657.66v5.833z"/><path d="M63.737 132.517a.66.66 0 0 1 .66.656.66.66 0 0 1-.66.66h-5.832a.658.658 0 0 1 0-1.315h5.83z"/></g><g fill="#72BDD4"><path d="M111.896 27.774a.37.37 0 0 1-.74 0V24.49a.37.37 0 0 1 .74 0v3.284z"/><path d="M113.17 25.762c.206 0 .368.166.368.37 0 .205-.162.37-.368.37h-3.288a.37.37 0 0 1-.368-.37.37.37 0 0 1 .368-.37h3.288z"/></g><g fill="#72BDD4"><path d="M223.787 178.314a.605.605 0 0 1-1.21 0v-5.377a.604.604 0 0 1 1.21 0v5.377z"/><path d="M225.87 175.02c.337 0 .606.273.606.607 0 .334-.27.605-.605.605h-5.378a.605.605 0 0 1 0-1.212h5.38z"/></g><g fill="#72BDD4"><path d="M224.396 125.12a.608.608 0 0 1-.604.606.603.603 0 0 1-.605-.606v-5.378c0-.333.266-.607.605-.607.33 0 .604.273.604.607v5.378z"/><path d="M226.477 121.825a.605.605 0 0 1 0 1.212h-5.38a.606.606 0 0 1-.604-.605c0-.335.273-.607.605-.607h5.38z"/></g><g fill="#72BDD4"><path d="M161.86 187.558c0 .59-.476 1.066-1.063 1.066-.59 0-1.067-.478-1.067-1.066v-9.43c0-.587.478-1.063 1.067-1.063.587 0 1.062.476 1.062 1.064v9.428z"/><path d="M165.512 181.78a1.064 1.064 0 0 1 0 2.128h-9.433a1.065 1.065 0 0 1 0-2.128h9.432z"/></g><g fill="#72BDD4"><path d="M95.74 168.363a.65.65 0 0 1-1.3 0v-5.79a.652.652 0 0 1 1.3 0v5.79z"/><path d="M97.984 164.816c.36 0 .65.29.65.652a.65.65 0 0 1-.65.652h-5.79a.65.65 0 0 1 0-1.304h5.79z"/></g><g fill="#FFF"><path d="M194.385 253.975c.045.552.06 1.11.018 1.68-.447 5.79-5.504 10.122-11.292 9.677a10.478 10.478 0 0 1-7.498-4.054 10.5 10.5 0 0 0 8.31 5.252c5.792.448 10.847-3.885 11.294-9.676a10.38 10.38 0 0 0-.308-3.378c-.168.17-.343.338-.523.5zM184.634 237.518c5.062-1.82 10.644.813 12.458 5.878a9.703 9.703 0 0 1-.516 7.76c1.77-2.506 2.338-5.796 1.22-8.904-1.814-5.065-7.392-7.696-12.458-5.88-2.37.852-4.2 2.53-5.294 4.592a9.672 9.672 0 0 1 4.59-3.446z"/></g><path fill="#FFF" d="M163.91 272.73c-5.04 3.374-11.856 2.03-15.235-3.004-1.798-2.684-2.244-5.87-1.52-8.773a10.96 10.96 0 0 0 1.065 10.215c3.375 5.036 10.197 6.38 15.23 3.002a10.908 10.908 0 0 0 4.522-6.443 10.906 10.906 0 0 1-4.06 5.002zM50.19 258.577a6.576 6.576 0 0 1-8.198-4.397 6.552 6.552 0 0 1 .67-5.293 6.575 6.575 0 0 0 7.012 10.436 6.548 6.548 0 0 0 3.726-2.902c-.8.99-1.898 1.76-3.21 2.157zM133.014 132.87s-2.08 111.324-4.225 112.18c-2.14.86 6.552-1.398 6.552-1.398s-3.696-88.613-2.328-110.78z"/><path fill="#FFF" d="M119.043 241.566c-3.683 4.722-2.837 11.537 1.882 15.218 4.726 3.684 11.54 2.84 15.22-1.883 3.684-4.72 2.84-11.537-1.884-15.217-4.722-3.685-11.536-2.84-15.217 1.883z"/><path fill="#D5F1FF" d="M119.058 243.06c-3.683 4.723-2.837 11.538 1.885 15.22 4.722 3.684 11.536 2.838 15.218-1.884 3.684-4.725 2.842-11.537-1.88-15.22-4.727-3.683-11.542-2.84-15.222 1.885z"/><path fill="#8DBFBD" d="M150.817 148.04c0 1.41-1.14 2.546-2.545 2.546h-31.407a2.544 2.544 0 0 1-2.544-2.547v-22.543a2.545 2.545 0 0 1 2.545-2.547h31.407a2.546 2.546 0 0 1 2.545 2.547v22.542z"/><ellipse fill="#FFF" cx="132.571" cy="122.102" rx="20.545" ry="5.095"/><g fill="#005956"><path d="M140.846 158.743l8.278-9.512h-33.107l8.276 9.513z"/><ellipse cx="132.57" cy="158.077" rx="8.524" ry="3.265"/></g><path fill="#FFF5D0" d="M163.684 78.018c0-17.18-13.932-31.11-31.113-31.11-17.183 0-31.11 13.93-31.11 31.11a30.97 30.97 0 0 0 4.9 16.75c8.972 19.048 8.102 26.06 8.102 26.105 0 2.76 8.277 4.998 18.49 4.998 10.215 0 18.494-2.237 18.494-4.997 0-.05-1.634-7.058 7.334-26.104a30.944 30.944 0 0 0 4.904-16.752z"/><g fill="#FFDA22"><path d="M135.213 125.52a1.166 1.166 0 0 1-1.167-1.166v-61.57c-.014-3.483 2.063-5.34 4-5.59 1.505-.2 3.483.533 4.44 3.114 2.408.444 4.92 1.86 5.233 5.768 1.077.184 2.065.802 2.83 1.795 1.145 1.495 1.614 3.6 1.265 5.363 1.553 1.137 2.18 3.278 1.57 5.66-.4 1.573-1.323 3.087-2.592 4.024.553.44.97.95 1.254 1.53.572 1.16.553 2.534-.044 3.976-.355.856-1.02 1.62-1.83 2.243.096.088.188.188.276.297.804 1.02.833 2.553.087 4.82-1.154 3.52-5.228 6.15-11.724 4.074a1.167 1.167 0 1 1 .708-2.222c5.313 1.695 8.062-.33 8.8-2.58.682-2.073.335-2.595.295-2.648-.2-.247-.963-.25-1.663-.214-.907.218-1.786.258-2.506.08a1.17 1.17 0 0 1-.874-1.3 1.158 1.158 0 0 1 1.21-.995c.365.017.826-.022 1.316-.06.188-.016.385-.032.584-.045 1.305-.386 2.733-1.303 3.165-2.345.34-.815.377-1.505.104-2.057-.35-.715-1.275-1.298-2.68-1.68a1.17 1.17 0 0 1-.84-1.356c.122-.6.687-1.01 1.296-.926 1.62.214 2.96-1.488 3.397-3.192.115-.456.61-2.764-1.12-3.438a1.17 1.17 0 0 1-.655-.638 1.176 1.176 0 0 1 .01-.915c.497-1.136.205-2.905-.657-4.032-.384-.497-1.028-1.064-1.944-.92a1.172 1.172 0 0 1-1.343-1.187c.086-2.968-1.096-4.365-3.947-4.67a1.163 1.163 0 0 1-1.003-.87c-.373-1.44-1.178-2.258-2.114-2.142-.986.127-1.98 1.293-1.968 3.27v61.58a1.17 1.17 0 0 1-1.17 1.167z"/><path d="M135.71 85.89a1.167 1.167 0 0 1-.102-2.327c.084-.007 4.92-.527 6.537-4.553 1.83-4.543 4.73-5.38 6.84-5.99.364-.106.72-.208 1.052-.328.604-.216 1.272.1 1.49.705a1.17 1.17 0 0 1-.704 1.494c-.377.134-.775.25-1.19.37-1.924.557-3.916 1.133-5.32 4.623-2.167 5.382-8.24 5.98-8.497 6.004a1.93 1.93 0 0 1-.106.003zM139.595 75.988c-.376 0-.744-.183-.97-.52a1.162 1.162 0 0 1 .325-1.616l.103-.068c1.398-.932 2.505-1.67 1.343-4.08-1.122-2.33-.967-5.18.458-8.47.036-.086.07-.155.085-.2a1.177 1.177 0 0 1 1.485-.702c.602.212.923.853.723 1.456a8.74 8.74 0 0 1-.15.375c-.43.985-1.724 3.98-.498 6.528 2.04 4.242-.794 6.13-2.155 7.035l-.1.068c-.2.133-.425.195-.65.195zM138.81 96.585a1.166 1.166 0 0 1-.26-2.302c.67-.157 1.588-.37 1.588-3.617 0-3.492 3.656-7.032 4.077-7.424a1.16 1.16 0 0 1 1.645.05c.442.468.42 1.208-.047 1.648-.93.878-3.34 3.615-3.34 5.726 0 2.376-.388 5.193-3.396 5.888-.09.02-.18.03-.266.03z"/><g><path d="M129.93 125.52a1.17 1.17 0 0 1-1.17-1.166v-61.57c.012-1.986-.98-3.152-1.966-3.28-.934-.115-1.742.702-2.114 2.143-.122.47-.52.817-1.004.87-2.854.305-4.034 1.702-3.947 4.67.008.343-.134.677-.396.906-.26.23-.61.328-.947.28-.92-.145-1.56.424-1.945.92-.862 1.128-1.154 2.897-.66 4.033.13.29.13.622.007.915-.122.294-.355.523-.652.64-1.73.674-1.236 2.98-1.118 3.437.435 1.705 1.774 3.407 3.397 3.192a1.16 1.16 0 0 1 1.29.925 1.164 1.164 0 0 1-.837 1.356c-1.4.383-2.33.966-2.682 1.682-.27.55-.232 1.24.104 2.057.436 1.04 1.862 1.958 3.168 2.344.2.013.396.03.584.044.49.04.955.078 1.316.06a1.166 1.166 0 0 1 .332 2.296c-.72.176-1.597.138-2.504-.08-.698-.037-1.466-.033-1.665.214-.04.053-.383.575.3 2.647.733 2.25 3.485 4.274 8.795 2.58a1.17 1.17 0 0 1 1.47.757 1.17 1.17 0 0 1-.762 1.466c-6.493 2.073-10.565-.553-11.725-4.074-.74-2.268-.71-3.8.093-4.82.09-.108.18-.208.277-.297-.815-.624-1.476-1.387-1.833-2.243-.6-1.442-.613-2.815-.044-3.977.283-.58.704-1.09 1.253-1.53-1.268-.936-2.187-2.45-2.59-4.022-.608-2.383.02-4.524 1.572-5.66-.35-1.765.114-3.87 1.266-5.363.76-.993 1.752-1.61 2.83-1.795.31-3.907 2.826-5.324 5.23-5.768.956-2.582 2.938-3.314 4.44-3.115 1.94.25 4.016 2.107 4 5.595v61.566c.002.642-.523 1.165-1.164 1.165z"/><path d="M129.428 85.89c-.033 0-.066 0-.103-.004-.26-.023-6.33-.622-8.497-6.004-1.406-3.49-3.394-4.065-5.323-4.623-.41-.12-.808-.237-1.188-.37a1.17 1.17 0 0 1 .79-2.2c.332.12.682.222 1.048.328 2.117.61 5.01 1.448 6.84 5.99 1.638 4.072 6.49 4.55 6.537 4.554a1.168 1.168 0 0 1-.104 2.328zM125.543 75.988c-.22 0-.45-.062-.646-.195l-.1-.068c-1.36-.906-4.2-2.793-2.157-7.034 1.228-2.546-.067-5.542-.495-6.527-.074-.175-.13-.303-.15-.375a1.163 1.163 0 0 1 .737-1.476 1.165 1.165 0 0 1 1.472.727c.015.043.044.11.084.198 1.425 3.29 1.576 6.137.454 8.467-1.158 2.41-.055 3.147 1.348 4.08l.103.067c.535.357.683 1.08.32 1.617-.225.336-.594.518-.97.518zM126.33 96.585c-.09 0-.178-.01-.264-.03-3.014-.696-3.397-3.513-3.397-5.89 0-2.11-2.413-4.847-3.34-5.725a1.167 1.167 0 0 1 1.597-1.698c.417.392 4.073 3.932 4.073 7.424 0 3.25.918 3.46 1.59 3.617a1.166 1.166 0 0 1-.262 2.302z"/></g></g><path fill="#FFDA22" d="M132.57 48.463c16.296 0 29.556 13.257 29.556 29.555 0 5.655-1.61 11.158-4.655 15.913l-.052.084-.043.09c-8.088 17.17-7.767 24.895-7.5 26.785-.492 1.023-5.996 3.425-16.924 3.425-11.07 0-16.578-2.468-16.934-3.43.12-1.606.06-9.138-8.25-26.78l-.043-.09-.054-.084a29.452 29.452 0 0 1-4.654-15.912c0-16.298 13.256-29.555 29.554-29.555m0-1.557c-17.184 0-31.11 13.93-31.11 31.11a30.97 30.97 0 0 0 4.9 16.752c8.97 19.047 8.1 26.06 8.1 26.104 0 2.76 8.278 4.998 18.49 4.998 10.216 0 18.495-2.238 18.495-4.998 0-.05-1.634-7.058 7.334-26.104a30.935 30.935 0 0 0 4.903-16.75c0-17.182-13.93-31.112-31.113-31.112z"/><ellipse fill="#8DBFBD" cx="132.569" cy="148.556" rx="18.248" ry="6.985"/><path fill="#FFF" d="M131.062 135.17c-11.86 0-18.77-2.354-19.2-2.504l1.03-2.937c.15.053 15.33 5.18 39.372-.05l.66 3.038c-8.444 1.84-15.8 2.453-21.862 2.453zM131.062 141.873c-11.86 0-18.77-2.356-19.2-2.507l1.03-2.933c.15.05 15.33 5.18 39.372-.054l.66 3.037c-8.444 1.84-15.8 2.456-21.862 2.456zM131.062 149.04c-11.86 0-18.77-2.355-19.2-2.506l1.03-2.933c.15.05 15.33 5.18 39.372-.053l.66 3.04c-8.444 1.838-15.8 2.452-21.862 2.452z"/><path fill="#FFDA22" d="M134.36 43.512a1.218 1.218 0 0 1-2.44 0V26.695a1.22 1.22 0 0 1 2.44 0v16.816z"/><path fill="#FF7800" d="M134.36 19.414a1.22 1.22 0 0 1-2.44 0v-7.89c0-.672.547-1.22 1.218-1.22.676 0 1.222.548 1.222 1.22v7.89z"/><path fill="#FFDA22" d="M95.21 78.794a1.22 1.22 0 0 1 0 2.44H78.395a1.217 1.217 0 0 1-1.217-1.22c0-.673.542-1.22 1.217-1.22H95.21z"/><path fill="#FF7800" d="M71.11 78.794c.673 0 1.22.546 1.22 1.22 0 .67-.547 1.22-1.22 1.22h-7.89a1.22 1.22 0 0 1 0-2.44h7.89z"/><path fill="#FFDA22" d="M169.305 81.23a1.218 1.218 0 0 1-1.217-1.22c0-.672.545-1.216 1.217-1.216h16.814c.67 0 1.222.544 1.222 1.217 0 .675-.55 1.22-1.223 1.22h-16.815z"/><path fill="#FF7800" d="M193.402 81.23a1.22 1.22 0 0 1-1.217-1.22c0-.672.546-1.216 1.217-1.216h7.892c.67 0 1.218.544 1.218 1.217a1.22 1.22 0 0 1-1.218 1.22h-7.892zM159.314 54.676a1.22 1.22 0 1 1-1.723-1.725l11.89-11.888a1.22 1.22 0 0 1 1.724 1.725l-11.89 11.888zM105.197 105.35a1.22 1.22 0 0 1 1.727 0 1.218 1.218 0 0 1 0 1.722l-11.89 11.89a1.22 1.22 0 0 1-1.724-1.725l11.887-11.888zM157.595 107.072a1.215 1.215 0 0 1 0-1.725 1.216 1.216 0 0 1 1.724 0l11.886 11.888a1.22 1.22 0 0 1-1.724 1.725l-11.887-11.888zM106.92 52.953a1.22 1.22 0 0 1-1.723 1.726l-11.89-11.89a1.22 1.22 0 0 1 0-1.726 1.222 1.222 0 0 1 1.727 0l11.886 11.89z"/><path fill="#D5F1FF" d="M106.064 128.45a1.067 1.067 0 0 0 2.135 0v-8.216a1.07 1.07 0 0 0-2.135 0v8.217z"/><g fill="#72BDD4"><path d="M70.463 60.717a.8.8 0 0 1-1.6 0V53.61c0-.44.356-.802.8-.802.442 0 .8.36.8.802v7.107z"/><path d="M73.215 56.362a.8.8 0 0 1 0 1.6H66.11c-.44 0-.8-.356-.8-.8a.8.8 0 0 1 .8-.8h7.105z"/></g><g fill="#72BDD4"><path d="M95.003 143.265c0 .395-.32.715-.712.715a.72.72 0 0 1-.718-.715v-6.34a.715.715 0 0 1 1.43 0v6.34z"/><path d="M97.46 139.38a.715.715 0 0 1 0 1.43h-6.34a.712.712 0 0 1-.714-.714c0-.395.317-.716.713-.716h6.34z"/></g><path fill="#F1F1F1" d="M78.514 112.725l.66-.755c.493-.187.8-.447.8-.734 0-.012.206-.022.204-.033.002-.015.223-.027.223-.042v-3.338c0-.053-.224-.103-.243-.15.23-.105.266-.225.266-.353 0-.11-.148-.213-.316-.306-.02-.345 0-1.458 1.074-3.745a4.57 4.57 0 0 0 .713-2.48 4.61 4.61 0 1 0-8.5 2.48c1.037 2.197 1.187 3.31 1.202 3.698-.223.104-.362.223-.362.35s.058.25.286.354c-.022.046-.117.097-.117.15v3.338c0 .015.09.028.093.042 0 .01.034.02.034.033 0 .288.33.548.825.735l.665.75c.07.17.375.44.783.5.003.162.004-.22.008.78h.94c.003-1 .007-.62.01-.78.39-.064.68-.33.754-.495z"/><path fill="#3786A1" d="M173.918 238.957c-.078-.008-.144-.012-.223-.02.075.04.15.042.223.02zM184.704 238.936c-.08.01-.146.014-.223.02.075.023.15.022.224-.02z"/></svg>