<svg xmlns="http://www.w3.org/2000/svg" width="248" height="240.934" viewBox="0 0 248 240.934"><path fill="#57B2BD" d="M167.5 61.46c0 12.7-10.293 22.997-22.995 22.997-12.698 0-22.993-10.295-22.993-22.998 0-12.7 10.295-22.997 22.993-22.997 12.702 0 22.996 10.298 22.996 22.996z"/><circle fill="#82C6D2" cx="124.036" cy="73.156" r="22.997"/><circle fill="#82C6D2" cx="93.857" cy="59.902" r="22.996"/><circle fill="#82C6D2" cx="50.321" cy="156.993" r="22.995"/><circle fill="#82C6D2" cx="77.521" cy="111.047" r="53.248"/><circle fill="#C7ECFF" cx="84.454" cy="107.48" r="53.249"/><circle fill="#82C6D2" cx="141.564" cy="99.515" r="43.017"/><path fill="#666" d="M130.34 73.435a.68.68 0 0 1-.257.924l-25.16 14.2a.68.68 0 0 1-.925-.255.68.68 0 0 1 .258-.922l25.16-14.203a.68.68 0 0 1 .924.255zM132.375 77.043c.185.327.07.74-.257.923l-25.16 14.203a.677.677 0 0 1-.664-1.18l25.16-14.202a.676.676 0 0 1 .92.255zM134.4 80.633a.677.677 0 0 1-.257.922l-25.16 14.2a.67.67 0 0 1-.92-.256.672.672 0 0 1 .254-.92l25.16-14.204a.674.674 0 0 1 .924.257zM136.433 84.23a.68.68 0 0 1-.258.922l-25.16 14.202a.68.68 0 0 1-.924-.255.675.675 0 0 1 .26-.923l25.156-14.203a.678.678 0 0 1 .927.255zM138.47 87.835a.676.676 0 0 1-.26.924l-25.16 14.202a.678.678 0 0 1-.668-1.18l25.16-14.203a.682.682 0 0 1 .927.255z"/><path opacity=".14" d="M116.29 43.947L89.377 59.14l-3.6 12.927 22.81 40.403 35.175-19.857z"/><path fill="#FFE9C9" d="M144.53 88.775l-35.176 19.857L86.546 68.23l3.6-12.928 26.912-15.192z"/><g fill="#4C4C4C"><path d="M115.824 47.725c.185.327.07.74-.255.924l-25.162 14.2a.676.676 0 0 1-.923-.257.676.676 0 0 1 .256-.922l25.162-14.2a.673.673 0 0 1 .922.255zM117.855 51.322a.675.675 0 0 1-.258.923L92.44 66.448a.677.677 0 0 1-.668-1.18l25.163-14.203a.676.676 0 0 1 .92.258zM119.893 54.93c.184.326.07.74-.257.923l-25.16 14.203a.68.68 0 0 1-.924-.258.68.68 0 0 1 .256-.922l25.162-14.204a.68.68 0 0 1 .923.257zM121.918 58.517c.185.327.07.74-.258.924L96.5 73.644a.678.678 0 1 1-.665-1.18l25.16-14.202a.675.675 0 0 1 .923.257zM123.948 62.113a.68.68 0 0 1-.257.924L98.53 77.24a.677.677 0 0 1-.922-.257.674.674 0 0 1 .257-.922l25.16-14.202a.678.678 0 0 1 .923.255zM125.986 65.723a.677.677 0 0 1-.258.922l-25.16 14.203a.678.678 0 1 1-.666-1.18l25.16-14.202a.68.68 0 0 1 .924.257zM128.31 69.838a.68.68 0 0 1-.258.925l-25.16 14.2a.677.677 0 0 1-.667-1.18l25.16-14.2a.677.677 0 0 1 .923.255z"/></g><path fill="#EDC096" d="M94.81 63.565l-8.264 4.665 3.6-12.928z"/><circle fill="#C7ECFF" cx="110.049" cy="165.665" r="53.249"/><circle fill="#C7ECFF" cx="111.981" cy="177.977" r="53.25"/><circle fill="#82C6D2" cx="205.551" cy="112.902" r="17.395"/><path fill="#82C6D2" d="M225.804 161.41c0 26.154-21.2 47.35-47.35 47.35-26.15 0-47.35-21.196-47.35-47.35 0-26.148 21.2-47.35 47.35-47.35 26.15.002 47.35 21.202 47.35 47.35z"/><circle fill="#82C6D2" cx="144.101" cy="184.705" r="18.288"/><circle fill="#57B2BD" cx="160.354" cy="140.203" r="53.249"/><circle fill="#C7ECFF" cx="158.192" cy="140.488" r="53.249"/><circle fill="#C7ECFF" cx="190.667" cy="80.936" r="29.781"/><path d="M187.686 67.408l3.422 6.207c.123.23.248.447.373.648.132.2.253.383.373.55.392.544.814.653 1.263.33.633-.453.884-1.312.757-2.575-.123-1.242-.59-2.427-1.397-3.552-1.283-1.784-2.96-2.8-5.026-3.04-2.07-.26-4.07.303-6.002 1.69-2.02 1.452-3.22 3.362-3.608 5.73-.387 2.356.148 4.547 1.604 6.57.803 1.115 1.837 2.032 3.1 2.752a8.3 8.3 0 0 0 3.894.98c1.83.002 3.654-.648 5.467-1.954 1.697-1.218 3.166-2.93 4.4-5.13l.103-.204 1.694 1.163-.084.158c-1.232 2.284-2.874 4.165-4.928 5.64-2.273 1.634-4.567 2.453-6.886 2.458a10.233 10.233 0 0 1-4.833-1.164c-1.56-.856-2.832-1.96-3.8-3.31-1.77-2.46-2.387-5.147-1.854-8.065.534-2.917 2.076-5.29 4.623-7.123 2.342-1.684 4.82-2.377 7.437-2.08 2.597.292 4.665 1.506 6.205 3.646 1.19 1.656 1.78 3.383 1.777 5.18-.007 1.82-.587 3.145-1.748 3.98-.93.668-1.876.682-2.842.044-.233 1.555-.9 2.728-1.995 3.516-1.196.862-2.505 1.147-3.924.858-1.4-.29-2.576-1.102-3.53-2.43-1.03-1.43-1.434-2.922-1.22-4.474.2-1.574.964-2.84 2.29-3.795 1.22-.874 2.543-1.11 3.97-.704l-.718-1.317 1.644-1.182zm.798 5.8c-.482-.675-1.117-1.073-1.897-1.196-.795-.108-1.532.078-2.206.562-.732.53-1.127 1.24-1.183 2.14-.07.9.207 1.783.835 2.655.54.753 1.174 1.238 1.902 1.453.728.214 1.388.11 1.983-.32.762-.547 1.2-1.353 1.317-2.417.117-1.064-.134-2.024-.75-2.88z" opacity=".26"/><path fill="#006A78" d="M186.918 66.64l3.422 6.208a10.31 10.31 0 0 0 .745 1.198c.392.544.814.653 1.263.33.633-.453.885-1.312.757-2.575-.123-1.24-.59-2.426-1.397-3.55-1.283-1.785-2.96-2.8-5.026-3.04-2.07-.26-4.07.302-6 1.69-2.02 1.45-3.222 3.36-3.61 5.728-.386 2.357.15 4.548 1.605 6.57.803 1.116 1.837 2.033 3.1 2.753a8.304 8.304 0 0 0 3.894.98c1.83.003 3.655-.647 5.468-1.953 1.697-1.218 3.166-2.93 4.4-5.13l.103-.204 1.695 1.162-.084.158c-1.23 2.283-2.873 4.164-4.927 5.64-2.273 1.633-4.567 2.452-6.886 2.457a10.233 10.233 0 0 1-4.833-1.164c-1.562-.856-2.833-1.96-3.8-3.31-1.77-2.46-2.387-5.147-1.855-8.065.533-2.915 2.075-5.287 4.622-7.12 2.343-1.685 4.82-2.377 7.438-2.08 2.597.29 4.665 1.506 6.205 3.646 1.19 1.656 1.78 3.383 1.777 5.18-.006 1.818-.586 3.144-1.747 3.98-.93.668-1.875.682-2.842.044-.233 1.555-.9 2.728-1.995 3.516-1.195.86-2.505 1.147-3.924.858-1.4-.292-2.577-1.103-3.532-2.432-1.028-1.428-1.433-2.92-1.22-4.473.2-1.575.965-2.84 2.292-3.796 1.22-.875 2.542-1.11 3.968-.705l-.717-1.318 1.643-1.18zm.8 5.8c-.483-.675-1.117-1.073-1.898-1.196-.795-.108-1.532.08-2.206.562-.733.53-1.128 1.24-1.184 2.14-.07.9.207 1.783.835 2.654.542.754 1.174 1.24 1.902 1.454.728.214 1.388.11 1.983-.318.762-.548 1.2-1.355 1.317-2.42a4.02 4.02 0 0 0-.75-2.877z"/><circle fill="#C7ECFF" cx="155.459" cy="55.159" r="22.996"/><circle fill="#C7ECFF" cx="144.1" cy="102.56" r="43.017"/><path opacity=".14" d="M146.65 129.338l-6.765-19.852-2.332-6.84a.76.76 0 0 0-.964-.473l-4.272 1.455-.438-1.285a1.036 1.036 0 0 0-1.314-.648l-.206.07a1.038 1.038 0 0 0-.648 1.317l.438 1.285-14.633 4.987-.438-1.283a1.036 1.036 0 0 0-1.317-.647l-.205.07c-.542.183-.83.773-.646 1.314l.438 1.285-4.27 1.456a.762.762 0 0 0-.475.965l9.097 26.692a.762.762 0 0 0 .964.473l27.51-9.376a.757.757 0 0 0 .475-.964z"/><path fill="#FFF" d="M147.42 127.804a.756.756 0 0 1-.477.963l-27.51 9.377a.763.763 0 0 1-.964-.474l-9.097-26.692a.76.76 0 0 1 .473-.965l27.51-9.375a.76.76 0 0 1 .965.473l9.1 26.694z"/><path fill="#FF5B42" d="M111.705 117.817l28.948-9.866-2.332-6.84a.76.76 0 0 0-.963-.472l-27.51 9.375a.76.76 0 0 0-.474.965l2.332 6.84z"/><g fill="#4C4C4C"><path d="M121.652 128.163l1.582-.785c.51.873 1.06 1.44 1.66 1.7.598.257 1.224.273 1.882.05.778-.266 1.34-.76 1.696-1.48.354-.723.393-1.485.12-2.282-.26-.76-.722-1.302-1.385-1.627-.664-.326-1.382-.357-2.148-.095-.314.106-.68.3-1.105.582l-.312-1.518a2.32 2.32 0 0 0 .275-.073 3.6 3.6 0 0 0 1.714-1.2c.438-.56.528-1.223.268-1.99-.208-.61-.584-1.04-1.13-1.298-.547-.26-1.146-.28-1.797-.057-.643.22-1.113.604-1.404 1.156-.292.55-.36 1.25-.206 2.103l-1.756.268c-.177-1.177-.01-2.194.5-3.05.51-.854 1.298-1.464 2.365-1.827a4.65 4.65 0 0 1 2.194-.217c.728.104 1.348.372 1.862.807.513.436.873.958 1.08 1.57.202.584.226 1.167.075 1.754-.15.583-.482 1.12-1 1.61.86-.084 1.61.085 2.248.513.64.43 1.107 1.08 1.404 1.95.4 1.177.313 2.322-.267 3.434-.58 1.11-1.528 1.89-2.84 2.336-1.183.402-2.286.386-3.31-.05-1.02-.44-1.775-1.203-2.268-2.287zM139.57 126.03l-1.656.564-3.597-10.55c-.27.515-.66 1.074-1.182 1.674-.514.602-1 1.083-1.45 1.45l-.543-1.6a10.554 10.554 0 0 0 1.888-2.41c.483-.857.768-1.623.858-2.306l1.066-.364 4.615 13.542z"/></g><circle fill="#C7ECFF" cx="116.659" cy="112.462" r="2.276"/><path fill="#303030" d="M117.852 112.417a1.036 1.036 0 0 1-.646 1.315l-.204.068a1.036 1.036 0 0 1-1.316-.646l-2.004-5.883a1.036 1.036 0 0 1 .646-1.315l.205-.07a1.036 1.036 0 0 1 1.316.65l2.002 5.882z"/><circle fill="#C7ECFF" cx="133.46" cy="106.737" r="2.277"/><path fill="#303030" d="M134.656 106.69a1.038 1.038 0 0 1-.648 1.315l-.207.07a1.036 1.036 0 0 1-1.313-.647l-2.006-5.882a1.038 1.038 0 0 1 .65-1.316l.205-.07c.54-.185 1.13.106 1.314.647l2.006 5.883z"/><path fill="#57B2BD" d="M88.31 145.478c2.968-6.07 10.296-8.583 16.365-5.616 6.073 2.97 8.587 10.297 5.616 16.366-2.967 6.073-10.296 8.585-16.364 5.617-6.072-2.968-8.586-10.295-5.617-16.367z"/><path fill="#C7ECFF" d="M89.49 146.056c2.97-6.07 10.298-8.584 16.367-5.615 6.07 2.97 8.586 10.296 5.615 16.37-2.967 6.068-10.295 8.582-16.366 5.612-6.07-2.966-8.585-10.296-5.615-16.366zM161.357 130.605c2.548 7.283-3.117 15.89-12.65 19.22-9.53 3.33-19.32.126-21.866-7.157-2.546-7.285 3.12-15.89 12.653-19.22 9.53-3.33 19.32-.126 21.864 7.157z"/><path fill="#57B2BD" d="M51.76 169.013h-.005c-20.863 0-33.48-4.25-35.53-11.958-1.98-7.45 6.29-17.066 23.28-27.078 16.767-9.875 40.095-19.06 65.688-25.86 24.68-6.56 48.82-10.17 67.98-10.17 20.862 0 33.48 4.246 35.528 11.957 1.98 7.45-6.286 17.066-23.28 27.077-16.766 9.878-40.093 19.062-65.686 25.863-24.678 6.557-48.82 10.17-67.974 10.17zm121.412-73.748c-19.046 0-43.07 3.596-67.642 10.127-25.48 6.77-48.69 15.905-65.354 25.723-16.2 9.54-24.465 18.873-22.678 25.6 1.854 6.98 14.34 10.98 34.257 10.98h.005c19.043 0 43.062-3.595 67.636-10.125 25.48-6.773 48.69-15.907 65.354-25.724 16.2-9.542 24.465-18.874 22.678-25.602-1.855-6.978-14.34-10.98-34.256-10.98z"/><path fill="#57B2BD" d="M154.093 236.527h-.003c-7.505-.004-17.396-10.723-27.853-30.184-10.405-19.365-20.472-45.64-28.345-73.982-8.237-29.652-13.206-58.308-13.99-80.69-.795-22.665 2.863-36.286 10.303-38.353a7.697 7.697 0 0 1 2.05-.275c7.504 0 17.396 10.72 27.852 30.18 10.404 19.367 20.472 45.64 28.346 73.984 8.237 29.652 13.205 58.31 13.99 80.69.795 22.667-2.864 36.287-10.304 38.354a7.61 7.61 0 0 1-2.047.277zM96.255 14.362a6.36 6.36 0 0 0-1.695.227c-6.694 1.86-10.1 15.36-9.34 37.036.78 22.28 5.732 50.83 13.943 80.384 7.847 28.25 17.876 54.428 28.235 73.712 10.067 18.735 19.796 29.484 26.69 29.486h.004c.58 0 1.15-.077 1.69-.228 6.696-1.86 10.1-15.358 9.342-37.037-.78-22.28-5.734-50.83-13.945-80.383-7.848-28.252-17.875-54.43-28.234-73.712-10.067-18.74-19.796-29.486-26.69-29.486z"/><ellipse transform="rotate(-19.265 135.914 168.698)" cx="135.929" cy="168.698" rx="18.283" ry="13.97" opacity=".12"/><path opacity=".26" d="M171.095 185.623c-.89-.354-1.892-.57-2.936-.52-2.264-.707-3.366-1.865-3.366-1.865l-1.183-1.293c-.048-.077-.098-.152-.16-.22l-19.346-21.873a2.02 2.02 0 0 0-2.857-.174l-3.517 3.108a2.026 2.026 0 0 0-.174 2.86l18.82 21.275a39.336 39.336 0 0 1 4.174 6.978c-1.923 10.823 13.674 9.48 13.674 9.48.564-.736-.357-1.016-.357-1.016s-5.958-3.492-6.03-3.537c-.538-.33.028-2.236 1.267-4.255 1.156-1.886 2.485-3.204 3.097-3.104l.004-.005.02.013a.297.297 0 0 1 .098.037c.014.01.022.02.035.03.734.382 3.975 2.07 5.158 2.867 1.337.9 1.406.673 1.406.673.717-1.634-3.516-7.743-7.825-9.457z"/><path fill="#FFBB2C" d="M172.132 183.14c-4.263.076-6.454-1.93-6.454-1.93l-1.27-1.208c-.056-.073-.11-.145-.176-.21l-20.85-20.443a2.023 2.023 0 0 0-2.862.027l-3.287 3.35c-.785.8-.77 2.082.03 2.866l20.28 19.886c4.3 4.988 5.953 9.33 5.953 9.33l8.636-11.67z"/><path fill="#FFBB2C" d="M176.514 200.63c.51-.775-.43-.99-.43-.99s-6.19-3.06-6.266-3.1c-.56-.29-.13-2.232.963-4.333 1.02-1.963 2.253-3.372 2.868-3.316l.004-.004.02.01a.29.29 0 0 1 .1.03c.016.008.025.018.037.028.76.33 4.11 1.782 5.35 2.494 1.396.804 1.45.572 1.45.572.598-1.682-4.057-7.476-8.478-8.88-2.78-.883-6.48-.467-8.964 5.042-5.59 15.444 13.346 12.448 13.346 12.448z"/><path opacity=".12" d="M140.114 164.514a1.575 1.575 0 0 1-.02-2.22 1.572 1.572 0 0 1 2.22-.023L161.5 181.09a1.57 1.57 0 1 1-2.196 2.243l-19.19-18.817z"/><circle opacity=".14" cx="180.349" cy="114.754" r="15.134"/><path opacity=".26" d="M50.322 133.997c-7.676 0-14.47 3.764-18.645 9.543l40.84 19.467c.518-1.918.8-3.933.8-6.015 0-12.7-10.296-22.995-22.995-22.995z"/><path opacity=".1" d="M217.46 100.23l-11.59 3.845-.126-.38c-.154-.464-.705-.7-1.23-.525l-15.766 5.23a17.42 17.42 0 0 0-.592 4.503c0 3.313.926 6.41 2.534 9.045l18.066-5.99c.523-.176.825-.694.672-1.16l-.126-.377 11.6-3.848h.002l1.55-.51-.036-.11.258-.088a17.37 17.37 0 0 0-5.216-9.634z"/><path fill="#4C4C4C" d="M230.777 80.204l-4.102 1.686-.115.048-4.1 1.685s3.784 2.774 2.96 7.2l2.77-1.138.603-.25c.336-.137.84-.343 1.57-.644.188-.075.388-.16.602-.248.73-.3 1.638-.674 2.775-1.14-3.703-2.564-2.963-7.198-2.963-7.198z"/><path fill="#CCC" d="M234.21 87.81s12.184 15.795-5.772 34.122c-.94.626-2 .38-.633-1.544 1.868-2.627 7.152-10.397 5.08-17.098-.696-1.396-9.02 2.243-9.432 2.414-.41.167-4.103-9.98-4.103-9.98s4.35-1.546 6.07-4.9c1.72-3.352 7.63-3.738 7.63-3.738l1.16.724zM218.022 96.274l4.148 10.08-20.884 8.594-4.148-10.08zM223.142 84.065a1.002 1.002 0 0 1-1.306-.546l-1.905-4.63a1 1 0 0 1 .55-1.306l7.458-3.07a1.005 1.005 0 0 1 1.307.547l1.905 4.63a1.006 1.006 0 0 1-.547 1.307l-7.46 3.068z"/><path opacity=".2" fill="#FFF" d="M223.18 84.133c-.156.062-.45-.3-.662-.81l-1.903-4.63c-.21-.51-.255-.976-.1-1.04l2.268-.935c.157-.06.452.3.662.812l1.904 4.63c.21.508.253.975.1 1.04l-2.27.933z"/><path fill="#FF5B42" d="M219.505 95.664l4.146 10.082-1.51.62-4.144-10.08z"/><path fill="#4C4C4C" d="M178.624 125.646c-.513.213-1.076.017-1.264-.438l-4.45-10.823c-.185-.453.08-.987.59-1.2l31.784-13.067c.51-.21 1.077-.014 1.262.44l4.45 10.817c.187.453-.077.99-.59 1.202l-31.782 13.07z"/><path opacity=".2" fill="#FFF" d="M173.95 116.916l30.552-12.56a.995.995 0 0 0 .543-1.308l-.062-.155a1 1 0 0 0-1.306-.543l-30.55 12.562.824 2.004z"/><path fill="#009B00" d="M31.207 140.243L42.02 117.56l42.972 20.485-10.812 22.682z"/><path opacity=".12" d="M31.206 140.25l3.02-6.333L77.198 154.4l-3.02 6.335zM39 123.896l3.018-6.334 42.974 20.485-3.02 6.334z"/><path fill="#FFDAA5" d="M14.967 118.568l16.238 21.677c.9.43 2.31-.635 3.14-2.38.833-1.748.774-3.512-.127-3.94l.013-.026c1.078.51 3.02-1.31 4.337-4.07 1.314-2.76 1.507-5.415.43-5.93l.007-.016c.903.43 2.31-.637 3.142-2.382.833-1.745.775-3.508-.127-3.94l.01-.026-27.063 1.032z"/><path opacity=".2" fill="#FFF" d="M38.615 123.812l-23.656-5.23 18.958 15.084a.872.872 0 0 0 .307.243c1.077.514 3.02-1.313 4.338-4.077 1.318-2.766 1.514-5.425.436-5.938a.936.936 0 0 0-.385-.083z"/><path fill="#303030" d="M14.967 118.568l4.63 6.184c.527.25 1.646-.996 2.5-2.783.852-1.792 1.116-3.443.588-3.696l-7.718.294z"/><ellipse transform="rotate(-19.265 134.384 169.613)" fill="#C7ECFF" cx="134.407" cy="169.621" rx="18.282" ry="13.974"/><path fill="#57B2BD" d="M112.098 99.365c-39.42 45.598-57.972 94.15-41.436 108.445 6.044 5.226 15.942 5.146 27.995.717-10.382 3.17-18.917 2.758-24.35-1.937-16.295-14.087 1.482-61.35 39.708-105.568 38.223-44.214 82.42-68.642 98.715-54.554 5.434 4.695 7.074 13.08 5.44 23.81 2.636-12.56 1.283-22.368-4.76-27.595-16.534-14.293-61.894 11.084-101.312 56.682z"/><path fill="#C7ECFF" d="M193.857 114.754c0 8.358-6.78 15.133-15.135 15.133-8.36 0-15.135-6.774-15.135-15.133 0-8.36 6.775-15.134 15.135-15.134 8.356 0 15.135 6.776 15.135 15.134z"/><path fill="#57B2BD" d="M127.492 140.33c49.856 24.35 98.05 28.165 107.642 8.524 3.505-7.18 1.362-16.503-5.197-26.628 5.065 8.905 6.473 17.078 3.323 23.53-9.454 19.355-56.307 15.905-104.654-7.705C80.258 114.44 48.73 79.61 58.182 60.254c3.15-6.452 10.462-10.365 20.596-11.848C66.76 49.46 58.092 53.5 54.585 60.68c-9.592 19.64 23.05 55.3 72.907 79.65z"/><path fill="#57B2BD" d="M178.775 103.242c17.75 53.53 15.353 102.673-5.355 109.764-7.57 2.592-16.54-.8-25.74-8.755 8.18 6.284 16.104 8.785 22.91 6.455 20.405-6.987 22.996-54.73 5.782-106.64-17.216-51.91-47.715-88.326-68.12-81.338-6.807 2.33-11.625 9.193-14.397 19.224 2.59-11.988 7.71-20.205 15.28-22.795 20.71-7.093 51.886 30.557 69.64 84.087z"/><path fill="#57B2BD" d="M132.53 78.267a65.973 65.973 0 0 1 9.055-6.31 12.31 12.31 0 0 0-8.618-3.503c-6.824 0-12.36 5.534-12.36 12.362 0 2.694.868 5.188 2.33 7.218 2.664-3.38 5.88-6.697 9.593-9.767z"/><path fill="#57B2BD" d="M119.672 92.044a43.443 43.443 0 0 1 5.5-4.774 8.12 8.12 0 0 0-5.898-1.695 8.16 8.16 0 0 0-7.248 8.975 8.116 8.116 0 0 0 2.036 4.573c1.51-2.403 3.388-4.805 5.61-7.08zM166.02 141.85c2.68-1.278 5.548-2.91 8.168-3.657a9.532 9.532 0 0 0-5.812-4.25c-5.124-1.287-10.32 1.827-11.605 6.95a9.523 9.523 0 0 0 .392 5.86c2.634-2.037 5.496-3.297 8.86-4.904z"/><path fill="#57B2BD" d="M158.762 144.193a33.5 33.5 0 0 1 5.27-2.005 6.303 6.303 0 0 0-3.835-2.805 6.317 6.317 0 0 0-7.658 4.596 6.276 6.276 0 0 0 .26 3.863 32.996 32.996 0 0 1 5.962-3.65z"/><g fill="#57B2BD"><path d="M190.223 61.623c2.49-3.908 7.676-5.058 11.588-2.57a8.397 8.397 0 0 1 3.765 8.497 8.393 8.393 0 1 0-16.04-4.594c.186-.456.413-.902.688-1.333z"/><path d="M181.306 60.348a4.438 4.438 0 0 1 8.353 2.437 4.437 4.437 0 1 0-8.655-1.704c.076-.25.177-.495.3-.733z"/></g><g fill="#57B2BD"><path d="M103.322 183.693c-5.885 4.853-14.587 4.016-19.44-1.868-3.646-4.42-4.078-10.434-1.57-15.21-4.242 5-4.433 12.468-.114 17.703 4.852 5.884 13.556 6.722 19.44 1.867a13.722 13.722 0 0 0 3.437-4.228 13.637 13.637 0 0 1-1.753 1.736z"/><path d="M116.625 190.223a7.3 7.3 0 0 1-10.324-.118 7.3 7.3 0 0 1-1.508-7.942c-2.01 2.824-1.778 6.768.732 9.33a7.3 7.3 0 0 0 10.324.116 7.285 7.285 0 0 0 1.624-2.38c-.25.35-.53.683-.847.993z"/></g><path fill="#57B2BD" d="M137.583 135.124c-1.404-4.875 1.41-9.967 6.286-11.375a9.194 9.194 0 0 1 9.7 3.064c-1.93-3.913-6.44-6.004-10.777-4.752a9.185 9.185 0 0 0-6.283 11.375 9.106 9.106 0 0 0 1.67 3.218 9.214 9.214 0 0 1-.597-1.53z"/><g><path fill="#FF9236" d="M122.074 189.34c-2.03 2.935-6.152 5.315-11.39 6.608 5.237 1.295 9.36 3.673 11.39 6.605 2.03-2.933 6.152-5.31 11.385-6.605-5.233-1.293-9.356-3.673-11.386-6.607z"/><path fill="#FFDA22" d="M122.074 192.944c-.922 1.334-2.796 2.415-5.177 3.004 2.38.59 4.255 1.67 5.177 3.004.922-1.333 2.795-2.415 5.176-3.004-2.38-.59-4.254-1.67-5.176-3.004z"/></g><g><path fill="#FF9236" d="M121.315 155.35c-1.697 3.3-5.146 5.98-9.526 7.436 4.38 1.458 7.828 4.134 9.525 7.436 1.7-3.302 5.15-5.978 9.527-7.436-4.377-1.456-7.827-4.136-9.527-7.435z"/><path fill="#FFDA22" d="M121.315 159.404c-.77 1.5-2.34 2.717-4.33 3.38 1.99.664 3.56 1.88 4.33 3.38.77-1.5 2.34-2.716 4.332-3.38-1.992-.663-3.56-1.878-4.332-3.38z"/></g><g><path fill="#FF9236" d="M223.66 125.66a10.443 10.443 0 0 1-5.432 5.818 10.445 10.445 0 0 1 5.432 5.82 10.446 10.446 0 0 1 5.433-5.82 10.444 10.444 0 0 1-5.433-5.818z"/><path fill="#FFDA22" d="M223.66 128.833a4.747 4.747 0 0 1-2.47 2.646 4.752 4.752 0 0 1 2.47 2.644 4.748 4.748 0 0 1 2.47-2.645 4.754 4.754 0 0 1-2.47-2.647z"/></g><g><path fill="#FF9236" d="M187.116 140.787a15.337 15.337 0 0 1-7.982 8.55 15.337 15.337 0 0 1 7.982 8.55 15.345 15.345 0 0 1 7.983-8.55 15.342 15.342 0 0 1-7.984-8.55z"/><path fill="#FFDA22" d="M187.116 145.448a6.973 6.973 0 0 1-3.63 3.888 6.98 6.98 0 0 1 3.63 3.887 6.98 6.98 0 0 1 3.63-3.887 6.975 6.975 0 0 1-3.63-3.888z"/></g><g><path fill="#FF9236" d="M213.603 175.916a11.207 11.207 0 0 1-5.833 6.247 11.21 11.21 0 0 1 5.833 6.25 11.214 11.214 0 0 1 5.833-6.25 11.21 11.21 0 0 1-5.833-6.247z"/><path fill="#FFDA22" d="M213.603 179.322a5.098 5.098 0 0 1-2.652 2.84 5.095 5.095 0 0 1 2.653 2.84 5.1 5.1 0 0 1 2.65-2.84 5.1 5.1 0 0 1-2.65-2.84z"/></g><g><path fill="#FF9236" d="M153.57 220.742a7.923 7.923 0 0 1-4.128 4.42 7.93 7.93 0 0 1 4.127 4.423 7.943 7.943 0 0 1 4.127-4.422 7.944 7.944 0 0 1-4.128-4.42z"/><path fill="#FFDA22" d="M153.57 223.152a3.6 3.6 0 0 1-1.878 2.01 3.606 3.606 0 0 1 1.877 2.01 3.613 3.613 0 0 1 1.876-2.01 3.615 3.615 0 0 1-1.877-2.01z"/></g><g><path fill="#FF9236" d="M106.723 215.218a9.91 9.91 0 0 1-5.157 5.523 9.917 9.917 0 0 1 5.157 5.525 9.91 9.91 0 0 1 5.156-5.524 9.907 9.907 0 0 1-5.157-5.522z"/><path fill="#FFDA22" d="M106.723 218.23a4.512 4.512 0 0 1-2.346 2.51 4.514 4.514 0 0 1 2.346 2.512 4.504 4.504 0 0 1 2.344-2.51 4.502 4.502 0 0 1-2.344-2.513z"/></g><g><path fill="#FF9236" d="M20.115 104.725a8.69 8.69 0 0 1-4.523 4.846 8.69 8.69 0 0 1 4.523 4.848 8.7 8.7 0 0 1 4.525-4.847 8.7 8.7 0 0 1-4.525-4.845z"/><path fill="#FFDA22" d="M20.115 107.367a3.95 3.95 0 0 1-2.057 2.204 3.956 3.956 0 0 1 2.057 2.205 3.96 3.96 0 0 1 2.058-2.204 3.96 3.96 0 0 1-2.058-2.203z"/></g><g><path fill="#FF9236" d="M54.2 93.893a12.758 12.758 0 0 1-6.642 7.114 12.765 12.765 0 0 1 6.642 7.116 12.772 12.772 0 0 1 6.642-7.116 12.765 12.765 0 0 1-6.642-7.114z"/><path fill="#FFDA22" d="M54.2 97.77a5.804 5.804 0 0 1-3.02 3.236 5.814 5.814 0 0 1 3.02 3.235 5.81 5.81 0 0 1 3.02-3.234 5.804 5.804 0 0 1-3.02-3.235z"/></g><g><path fill="#FF9236" d="M54.2 60.446a14.364 14.364 0 0 1-7.477 8.008 14.37 14.37 0 0 1 7.476 8.01 14.374 14.374 0 0 1 7.476-8.01 14.365 14.365 0 0 1-7.477-8.008z"/><path fill="#FFDA22" d="M54.2 64.812a6.53 6.53 0 0 1-3.4 3.642 6.533 6.533 0 0 1 3.4 3.64 6.54 6.54 0 0 1 3.397-3.64 6.536 6.536 0 0 1-3.398-3.642z"/></g><g><path fill="#FF9236" d="M143.215 16.234a12.99 12.99 0 0 1-6.76 7.24 13 13 0 0 1 6.76 7.242 12.995 12.995 0 0 1 6.76-7.242 12.98 12.98 0 0 1-6.76-7.24z"/><path fill="#FFDA22" d="M143.215 20.182a5.91 5.91 0 0 1-3.075 3.293 5.91 5.91 0 0 1 3.075 3.292 5.91 5.91 0 0 1 3.072-3.292 5.908 5.908 0 0 1-3.072-3.293z"/></g><g><path fill="#FF9236" d="M160.354 9.733a9.543 9.543 0 0 1-4.967 5.32 9.553 9.553 0 0 1 4.967 5.324 9.563 9.563 0 0 1 4.97-5.323 9.54 9.54 0 0 1-4.97-5.32z"/><path fill="#FFDA22" d="M160.354 12.635a4.335 4.335 0 0 1-2.26 2.42 4.348 4.348 0 0 1 2.26 2.42 4.347 4.347 0 0 1 2.26-2.42 4.337 4.337 0 0 1-2.26-2.42z"/></g><g><path fill="#FF9236" d="M193.856 89.95a9.548 9.548 0 0 1-4.968 5.32 9.558 9.558 0 0 1 4.968 5.323 9.558 9.558 0 0 1 4.968-5.323 9.545 9.545 0 0 1-4.968-5.32z"/><path fill="#FFDA22" d="M193.856 92.85a4.34 4.34 0 0 1-2.26 2.42 4.35 4.35 0 0 1 2.26 2.42 4.35 4.35 0 0 1 2.258-2.42 4.35 4.35 0 0 1-2.258-2.42z"/></g></svg>