<svg xmlns="http://www.w3.org/2000/svg" width="263.4" height="234.929" viewBox="0 0 263.4 234.929"><path fill="#FFD79D" d="M179.4 158h12v14h-12z"/><path opacity=".2" fill="#010101" d="M180.4 158h2v14h-2z"/><path fill="#FFD79D" d="M193.846 174.975c-6.03.03-10.94-5.41-10.972-12.145-.03-6.734 4.83-12.217 10.858-12.244l7.957-.037c6.028-.028 4.8 5.437 4.83 12.173.03 6.734 1.31 12.188-4.72 12.215l-7.954.037z"/><path fill="#FFD79D" d="M219.502 156.35a2.9 2.9 0 0 0 2.886-2.912 2.903 2.903 0 0 0-2.913-2.89l-16.05-.005a2.9 2.9 0 0 0-2.888 2.91 2.9 2.9 0 0 0 2.913 2.887l16.052.01zM202.407 147.432c1.6-1.768 1.602-4.367.01-5.805-1.595-1.438-4.18-1.17-5.776.6l-9.52 10.55c-1.597 1.767-1.6 4.366-.007 5.806 1.594 1.44 4.177 1.17 5.774-.6l9.52-10.55z"/><path fill="#E9B980" d="M209.887 162.7a2.9 2.9 0 1 0-.026-5.798l-8.993-.05a2.9 2.9 0 0 0-2.887 2.913 2.902 2.902 0 0 0 2.916 2.886l8.99.05zM209.11 169.004a2.9 2.9 0 0 0-.03-5.8l-7.436-.036a2.897 2.897 0 0 0-2.885 2.912 2.893 2.893 0 0 0 2.91 2.885l7.44.04zM207.752 174.83a2.728 2.728 0 0 0 2.716-2.742 2.73 2.73 0 0 0-2.74-2.717l-3.257-.008a2.73 2.73 0 0 0-2.716 2.742 2.73 2.73 0 0 0 2.742 2.715l3.256.01z"/><ellipse transform="rotate(-134.547 192.774 156.35)" opacity=".2" fill="#010101" cx="192.771" cy="156.356" rx="5.389" ry="7.03"/><ellipse transform="rotate(-134.556 192.4 155.463)" fill="#FFD79D" cx="192.406" cy="155.463" rx="5.388" ry="7.031"/><path fill="#FFD79D" d="M198.76 160.064c.148 1.213 1.186 2.07 2.315 1.913 1.13-.157 1.364-1.364 1.218-2.58-.146-1.213-.618-1.978-1.75-1.82-1.134.158-1.932 1.272-1.782 2.487zM199.977 166.37c.148 1.218 1.183 2.075 2.314 1.917 1.132-.158 1.368-1.365 1.22-2.578-.146-1.218-.62-1.98-1.75-1.823-1.133.158-1.93 1.27-1.783 2.484zM202.535 172.442c.14 1.178 1.143 2.01 2.24 1.856 1.094-.153 1.322-1.322 1.178-2.5-.14-1.176-.6-1.915-1.693-1.762-1.097.153-1.868 1.23-1.725 2.406z"/><path fill="#EEE" d="M127.976 108.085a2.2 2.2 0 0 1-2.395 1.986l-.258-.024a2.197 2.197 0 0 1-1.985-2.396l.892-9.537a2.2 2.2 0 0 1 2.394-1.985l.258.024a2.2 2.2 0 0 1 1.986 2.395l-.892 9.538z"/><path fill="#FFD79D" d="M69.212 108.247c.085 1.213-.93 2.26-2.267 2.337l-.284.018c-1.335.078-2.486-.844-2.573-2.057l-.677-9.558c-.084-1.212.93-2.26 2.266-2.337l.283-.017c1.336-.076 2.49.843 2.572 2.054l.68 9.56zM130.056 108.795c-.2 1.2-1.43 1.98-2.748 1.746l-.28-.05c-1.317-.234-2.224-1.397-2.025-2.598l1.568-9.454c.2-1.198 1.43-1.98 2.748-1.744l.28.05c1.316.234 2.225 1.398 2.025 2.598l-1.567 9.453z"/><path fill="#E6E6E6" d="M79.4 122h35v37h-35z"/><ellipse fill="#E6E6E6" cx="97.365" cy="140.549" rx="17.086" ry="5.694"/><path fill="#AFAFAF" d="M113.4 125h-37v4.544c6 5.482 12.87 8.812 18.683 8.812 5.67 0 11.317-3.205 18.317-8.506V125z"/><path fill="#FFD79D" d="M128.488 99.3c0 21.063-18.535 38.142-31.19 38.142-12.732 0-31.187-17.078-31.187-38.143 0-21.066 13.965-38.143 31.19-38.143 17.226 0 31.188 17.076 31.188 38.142z"/><ellipse fill="#FFF" cx="81.831" cy="98.102" rx="5.728" ry="2.6"/><ellipse fill="#FFF" cx="111.497" cy="98.102" rx="5.728" ry="2.6"/><path fill="#FF935C" d="M133.4 189h21v-29.588c0-13.46-13.658-24.412-30.58-24.412H71.738c-16.92 0-29.337 10.953-29.337 24.412v53.884c0 1.348-.488 2.576-.227 3.703 15.39 1.534 33.134 3.08 53.27 3.08 13.733 0 26.956-1.055 37.956-1.808V189z"/><path fill="#FF8080" d="M121.576 112.417c-1.65 2.677-5.427 3.605-8.442 2.077-3.014-1.53-4.118-4.94-2.47-7.615 1.647-2.677 5.43-3.605 8.442-2.076 3.01 1.53 4.12 4.938 2.47 7.613z"/><path fill="#FFF" d="M101.54 160.476c-1.54 1.01-3.336 2.223-6.35 4.29h.004l-.55.162c-.036.007-3.228.956-3.903 1.124-.02-.028-.056-.146-.084-.233-.075-.273-.123-.5-.175-.725-.047-.202-.092-.406-.155-.633-.195-.704-.267-.938-.5-1.154-.136-.128-.33-.193-.6-.193-.353 0-.797.105-1.31.23-.23.056-.473.115-.722.155-.378.094-9.345 2.202-9.975 2.365-1.062.27-1.235.81-1.175 1.584l.01.16c.003.118.09.87.09.87.028.32.12 1.433.12 1.433.01.097.022.232-.053.284l-1.21.355c-.42.14-.604.572-.515 1.146 0 1.277 1.777 23.213 2.207 27.29.187 1.754.445 2.5.84 3.21.283.507.71.814 1.444.763.036 0 .074-.012.113-.012.126 0 .28-.028.57-.104 1.333-.38 5.955-1.7 23.705-6.494.34-2.3 2.258-13.53 2.618-15.876 4.017-1.1 2.923-.733 7.89-2.095a781.263 781.263 0 0 1-2.378 15.738c3.316-.944 3.827-1.042 4.696-1.33.397-2.157 3.603-24.794 3.746-25.404.284-.06.627-.11 1.04-.24.39-.122.563-.297.61-.81.05-.634.06-.913.06-.913-3.31-.958-16.923-4.355-20.106-4.944zm-22.76 39.517a9.613 9.613 0 0 1-.088-.787l-.034-.333c-.368-3.663-.906-10.86-.908-10.93l-1.27-15.602c.005-.08.04-.14.052-.15l1.06-.32c.325-.112.7-.36.663-.956l-.258-3.053c-.004-.115.04-.177.12-.21l10.343-2.58a.358.358 0 0 1 .095-.014l.053-.007.583 2.37c.16.604.516.69.715.69a.623.623 0 0 0 .2-.027l.553-.163c-3.546 2.44-7.292 5.007-8.73 6.017-.073.46-.066.826-.115 1.74-.028.56 1.03.133 1.9-.036-.025 0-.17.847-3.47 23.553-.07.48-.074.543-.147 1.03-.05.35-.524.996-.902.712a.72.72 0 0 1-.205-.223 3.693 3.693 0 0 1-.21-.72z"/><path fill="#FF8080" d="M85.658 112.417c-1.648 2.677-5.428 3.605-8.44 2.077-3.014-1.53-4.12-4.94-2.472-7.615 1.65-2.677 5.428-3.605 8.443-2.076 3.012 1.53 4.12 4.938 2.468 7.613z"/><path opacity=".2" fill="#010101" d="M108.06 82.5c0 .482-1.114.5-2.486.5H89.417c-1.372 0-2.486-.018-2.486-.5 0-.48 1.115-.5 2.487-.5h16.156c1.372 0 2.486.02 2.486.5z"/><path fill="#77503B" d="M96.38 59.094c-42.195-2.973-29.52 52.788-29.52 52.788-.168-1.663 1.622-26.022 2.63-28.177.5-1.812 3.856-7.73 5.924-5.48 4.23 4.547 27.936 4.807 28.064 4.797 6.875-.588 11.125 1.418 13.977 2.838-.168-1.03-.728-2.644-4.416-5.726 5.644 1.665 7.545 5.09 9.056 7.778-.057-1.076-2.014-6.907-2.014-6.907s7.38 14.84 7.603 31.517c1.79-7.243 13.124-58.637-31.306-53.428z"/><ellipse fill="#00689D" cx="84.583" cy="98.092" rx="2.289" ry="2.077"/><ellipse fill="#FFF" cx="85.157" cy="97.452" rx=".543" ry=".491"/><path opacity=".2" fill="#010101" d="M106.494 86.5c0 .48-.948.5-2.117.5H90.612c-1.17 0-2.116-.02-2.116-.5s.947-.5 2.116-.5h13.765c1.17 0 2.117.02 2.117.5z"/><path opacity=".13" d="M129.4 145.093C129.4 159.81 115.726 172 98.58 172h-.262C81.172 172 67.4 159.81 67.4 145.093v-31.726C67.4 98.652 81.172 116 98.318 116h.263c17.147 0 30.82-17.348 30.82-2.633v31.726z"/><path fill="#77503B" d="M129.4 143.176C129.4 157.89 115.455 170 97.943 170h-.268c-17.51 0-30.275-12.11-30.275-26.824v-31.73c0-14.71 12.765 2.554 30.276 2.554h.268c17.512 0 31.457-17.265 31.457-2.553v31.73z"/><ellipse fill="#00689D" cx="113.458" cy="98.092" rx="2.289" ry="2.077"/><ellipse fill="#FFF" cx="114.032" cy="97.452" rx=".542" ry=".491"/><path fill="#FFF" d="M108.82 120.307c0 4.027-5.07 7.297-11.325 7.297-6.253 0-11.324-3.27-11.324-7.297 0-4.03 5.072-1.132 11.325-1.132 6.254 0 11.325-2.9 11.325 1.132z"/><path fill="#70462D" d="M87.988 91c0 .705-.632 1-1.408 1h-9.156c-.778 0-1.41-.295-1.41-1 0-.703.632-1 1.41-1h9.156c.776 0 1.408.297 1.408 1zM118.975 91c0 .705-.63 1-1.408 1h-9.155c-.78 0-1.41-.295-1.41-1 0-.703.63-1 1.41-1h9.155c.778 0 1.408.297 1.408 1z"/><path fill-rule="evenodd" clip-rule="evenodd" fill="#95E5FF" d="M197.575 22.35c-31.77 0-57.526 25.756-57.526 57.527a57.35 57.35 0 0 0 4.5 22.345l-11.457 28.584 30.66-4.395a57.265 57.265 0 0 0 33.822 10.996c31.77 0 57.526-25.758 57.526-57.53S229.348 22.35 197.576 22.35z"/><path fill-rule="evenodd" clip-rule="evenodd" fill="#FFF" d="M222.956 99.176A31.472 31.472 0 0 0 229 80.59c0-17.467-14.158-31.628-31.625-31.628-17.465 0-31.623 14.16-31.623 31.627s14.158 31.623 31.623 31.623c4.357 0 8.508-.88 12.284-2.475l15.713 6.3-2.417-16.862z"/><path fill-rule="evenodd" clip-rule="evenodd" fill="#00CC82" d="M197.563 63.034c-8.928.072-16.106 7.37-16.032 16.297a16.127 16.127 0 0 0 1.316 6.27l-3.153 8.057 8.61-1.304a16.09 16.09 0 0 0 9.522 3.012c8.93-.072 16.107-7.37 16.036-16.297-.07-8.93-7.37-16.107-16.297-16.034z"/><path fill="#FF935C" d="M160.54 176.61l.037 10.864c0 1.917-1.435 3.457-3.196 3.457s-3.194-1.93-3.194-2.93H136.29c0 11 9.46 20.83 21.09 20.83 11.633 0 21.094-9.72 21.094-21.224l-.035-10.933c0-1.916 1.962-3.46 2.962-3.46v-17.9c-13.002 0-20.863 9.152-20.863 21.296z"/><path fill="#FFF" d="M136.4 171.707c0-.385-.838-.694-1.5-.694-.664 0-1.5.31-1.5.694v22.184c0 .383.836.695 1.5.695.662 0 1.5-.312 1.5-.694v-22.183z"/><path fill="#B45400" d="M157.38 208.565c4.588 0 8.834-1.495 12.3-4.007a6.713 6.713 0 0 0-6.643-5.055l-10.864.232c-3.17.066-5.772 2.325-6.412 5.297a20.865 20.865 0 0 0 11.62 3.533z"/><path fill="#FFEFAD" d="M100.4 29.593c0-1.838-1.16-3.33-3-3.33s-3 1.492-3 3.33V51.79c0 1.836 1.16 3.327 3 3.327s3-1.49 3-3.328V29.592z"/><path fill="#FFBA9E" d="M101.4 7.2c0-1.767-1.23-3.2-3-3.2s-3 1.434-3 3.2v10.666c0 1.768 1.23 3.2 3 3.2s3-1.433 3-3.2V7.2z"/><path fill="#FFEFAD" d="M60.348 85c0-1.837-1.49-3-3.33-3H34.822c-1.84 0-3.328 1.163-3.328 3 0 1.838 1.49 3 3.328 3h22.195c1.84 0 3.33-1.162 3.33-3z"/><path fill="#FFBA9E" d="M24.834 85c0-1.837-1.49-3-3.33-3h-9.987c-1.84 0-3.33 1.163-3.33 3 0 1.838 1.49 3 3.33 3h9.988c1.84 0 3.33-1.162 3.33-3z"/><path fill="#FFEFAD" d="M64.872 61.405a3.4 3.4 0 0 0 4.807 0l.163-.164a3.4 3.4 0 0 0 0-4.807L54.313 40.9a3.4 3.4 0 0 0-4.807 0l-.164.167a3.396 3.396 0 0 0 0 4.805l15.53 15.533zM55.807 126.462a3.395 3.395 0 0 0 .024-4.807l-.162-.167a3.402 3.402 0 0 0-4.808-.022l-15.61 15.456a3.396 3.396 0 0 0-.02 4.805l.163.167a3.398 3.398 0 0 0 4.807.022l15.607-15.454z"/><path opacity=".2" fill="#010101" d="M103.4 98.763A4.764 4.764 0 0 0 98.637 94h-.475a4.764 4.764 0 0 0-4.763 4.763v11.475A4.764 4.764 0 0 0 98.16 115h.475a4.764 4.764 0 0 0 4.763-4.762V98.763z"/><path fill="#FF8080" d="M103.4 95.762A4.763 4.763 0 0 0 98.637 91h-.475a4.763 4.763 0 0 0-4.763 4.762v11.477A4.763 4.763 0 0 0 98.16 112h.475a4.763 4.763 0 0 0 4.763-4.76V95.76z"/><path fill="#B45400" d="M42.4 216.496V192.76c2 .832 4.64 3.3 4.703 6.262l.243 10.862c.07 3.148-2.946 5.827-4.946 6.612z"/><path fill="#90ECFF" d="M128.865 39H124.4v-2.956c0-1.27-.73-2.297-2-2.297s-2 1.027-2 2.297V39h-4.65c-1.27 0-2.295 2.23-2.295 3.5 0 1.268 1.026 3.5 2.295 3.5h4.65v3.158c0 1.268.73 2.295 2 2.295s2-1.027 2-2.295V46h4.465c1.27 0 2.297-2.232 2.297-3.5 0-1.27-1.027-3.5-2.297-3.5zM84.93 39H80.4v-2.956c0-1.27-.732-2.297-2-2.297s-2 1.027-2 2.297V39h-4.587c-1.267 0-2.296 2.23-2.296 3.5 0 1.268 1.03 3.5 2.296 3.5H76.4v3.158c0 1.268.732 2.295 2 2.295s2-1.027 2-2.295V46h4.528c1.267 0 2.295-2.232 2.295-3.5 0-1.27-1.028-3.5-2.294-3.5zM53.45 65H49.4v-4.04c0-1.267-1.23-2.292-2.5-2.292-1.267 0-2.5 1.025-2.5 2.293V65h-4.063c-1.27 0-2.296 1.233-2.296 2.5S39.07 70 40.338 70H44.4v4.078c0 1.268 1.233 2.295 2.5 2.295 1.27 0 2.5-1.027 2.5-2.295V70h4.05c1.27 0 2.297-1.233 2.297-2.5S54.72 65 53.45 65zM54.762 105H50.4v-4.69c0-1.268-1.232-2.296-2.5-2.296s-2.5 1.028-2.5 2.295V105h-3.752c-1.268 0-2.296 1.23-2.296 2.498 0 1.266 1.028 2.502 2.296 2.502H45.4v3.423c0 1.27 1.232 2.295 2.5 2.295s2.5-1.026 2.5-2.295V110h4.36c1.27 0 2.298-1.236 2.298-2.502 0-1.268-1.027-2.498-2.296-2.498z"/><path opacity=".34" fill="#010101" d="M64.4 218.88v-47.118c0-.53-1.213-.762-1.742-.762h-.053c-.527 0-2.205.232-2.205.762v46.914l4 .204z"/><path fill-rule="evenodd" clip-rule="evenodd" fill="#666" d="M133.4 203.408v14.98c17-1.654 26.797-4.303 26.812-7.34.018-3.042-9.812-5.81-26.812-7.64zM42.4 217.078v-14.982c-16 1.655-26.796 4.304-26.812 7.34-.016 3.043 10.812 5.81 26.812 7.642z"/></svg>