<svg xmlns="http://www.w3.org/2000/svg" width="328" height="196" viewBox="0 0 328 196"><g fill="#FFE5A1"><path d="M47.02 100.278c0 .51-.413.926-.923.926a.928.928 0 0 1-.93-.926V92.06a.926.926 0 0 1 1.853 0v8.218z"/><path d="M50.206 95.242a.925.925 0 0 1 0 1.853H41.99a.928.928 0 0 1-.93-.927.93.93 0 0 1 .93-.928h8.216z"/></g><circle fill="#FFDA6B" cx="140.712" cy="101.268" r="22.592"/><path fill="#7CDEE2" d="M62.473 73.262a3.224 3.224 0 0 1 3.368-2.254c.614-1.978 2.477-3.414 4.68-3.414a4.9 4.9 0 0 1 4.086 2.17c.21-.034.427-.054.646-.054 2.143 0 3.878 1.715 3.878 3.83s-1.735 3.828-3.878 3.828H62.894c-1.16 0-2.1-.93-2.1-2.075 0-1.003.72-1.84 1.68-2.03z"/><path fill="#B4F8FF" d="M83.022 73.344a3.52 3.52 0 0 0-3.672-2.49 5.338 5.338 0 0 0-9.556-1.372 4.227 4.227 0 1 0-.707 8.395h13.476a2.29 2.29 0 0 0 .46-4.533z"/><path fill="#00ADB0" d="M197 12.695h3.67V46.94H197z"/><path opacity=".2" fill="#1E0E00" d="M200.67 46.328l-1.836-2.444v-31.19h1.836z"/><path fill="#00ADB0" d="M229.513 32.163H200.67V12.695h28.843l-6.117 9.17z"/><path fill="#FFF" d="M214.056 16.752c-.435.285-.94.627-1.792 1.21l-.153.047c-.01 0-.91.268-1.102.316a.417.417 0 0 1-.023-.065c-.02-.077-.035-.14-.05-.204-.013-.057-.026-.115-.044-.18-.054-.197-.074-.263-.14-.324-.038-.036-.094-.055-.17-.055-.1 0-.225.03-.37.064a2.035 2.035 0 0 1-.203.046c-.106.026-2.637.62-2.814.666-.3.076-.35.23-.33.448l.002.046c0 .032.025.245.025.245l.034.405c.002.026.006.065-.016.08l-.343.1c-.117.04-.17.16-.144.324 0 .358.503 6.55.622 7.7.055.495.127.706.238.905.08.143.2.23.408.216l.03-.002c.036 0 .08-.01.162-.03.376-.106 1.68-.48 6.69-1.833.096-.648.636-3.817.738-4.48 1.134-.31.825-.206 2.227-.59a210.437 210.437 0 0 1-.672 4.44c.937-.266 1.08-.293 1.326-.375.11-.608 1.016-6.996 1.057-7.168.08-.018.176-.033.292-.068.108-.034.158-.084.172-.228.015-.18.017-.26.017-.26-.935-.27-4.776-1.228-5.674-1.394zm-6.423 11.152a2.798 2.798 0 0 1-.025-.223l-.01-.093a159.068 159.068 0 0 1-.255-3.084l-.36-4.403c.002-.022.012-.04.016-.043l.298-.09c.092-.03.198-.102.187-.27l-.07-.862c-.002-.032.01-.05.03-.06l2.92-.728c.01-.002.02-.004.028-.004l.014-.002.166.67c.044.17.144.196.2.196.018 0 .037 0 .057-.01l.156-.046c-1 .688-2.06 1.415-2.464 1.698-.02.13-.02.234-.033.492-.01.158.29.038.536-.01-.007 0-.047.237-.98 6.645-.02.135-.02.153-.04.29-.016.1-.148.28-.254.2a.247.247 0 0 1-.06-.06.835.835 0 0 1-.06-.2z"/><path opacity=".2" fill="#1E0E00" d="M229.513 32.163H200.67V12.695z"/><path fill="#C9C7C7" d="M58.29 107.396a5.447 5.447 0 0 1 5.687-3.805c1.04-3.34 4.185-5.766 7.905-5.766a8.284 8.284 0 0 1 6.9 3.668c.356-.06.722-.09 1.095-.09 3.616 0 6.548 2.894 6.548 6.463 0 3.576-2.932 6.468-6.548 6.468H59.002c-1.96 0-3.55-1.568-3.55-3.504 0-1.695 1.22-3.11 2.838-3.434z"/><path fill="#7CDEE2" d="M171.08 68.034a5.445 5.445 0 0 1 5.69-3.806c1.037-3.34 4.182-5.766 7.902-5.766 2.884 0 5.42 1.46 6.9 3.667.357-.06.722-.09 1.094-.09 3.618 0 6.55 2.894 6.55 6.464 0 3.573-2.932 6.468-6.55 6.468H171.79c-1.957 0-3.547-1.57-3.547-3.505 0-1.696 1.22-3.107 2.837-3.433z"/><path fill="#7CDEE2" d="M200.606 68.034c.675-2.215 2.757-3.828 5.22-3.828.156 0 .313.008.47.022 1.036-3.34 4.183-5.766 7.902-5.766 2.883 0 5.42 1.46 6.9 3.667.356-.06.722-.09 1.096-.09 3.615 0 6.547 2.894 6.547 6.464 0 3.573-2.93 6.468-6.546 6.468H201.32c-1.96 0-3.55-1.57-3.55-3.505 0-1.696 1.218-3.107 2.836-3.433zM135.628 67.46a4.466 4.466 0 0 1 4.28-3.14c.13 0 .258.01.387.018.85-2.738 3.43-4.73 6.482-4.73a6.796 6.796 0 0 1 5.66 3.01c.292-.048.593-.076.897-.076 2.967 0 5.372 2.378 5.372 5.305 0 2.932-2.405 5.308-5.372 5.308H136.21c-1.605 0-2.91-1.29-2.91-2.875 0-1.392 1-2.55 2.328-2.82z"/><path fill="#C9C7C7" d="M231.96 92.23c.837-2.75 3.42-4.755 6.478-4.755.197 0 .392.01.582.028 1.29-4.145 5.194-7.158 9.812-7.158 3.58 0 6.73 1.812 8.566 4.556a8.342 8.342 0 0 1 1.358-.114c4.492 0 8.13 3.594 8.13 8.027 0 4.437-3.638 8.03-8.13 8.03H232.84c-2.43 0-4.405-1.948-4.405-4.352 0-2.1 1.515-3.855 3.524-4.26z"/><path fill="#5E3813" d="M69.33 172.524l70.982-81.93 70.983 81.93z"/><path fill="#F1F1F1" d="M9.59 175.132c0-4.73 66.087-8.563 147.61-8.563 81.522 0 147.61 3.834 147.61 8.562 0 4.727-66.088 8.562-147.61 8.562-81.523 0-147.61-3.836-147.61-8.562z"/><ellipse fill="#CCC" cx="139.328" cy="178.535" rx="16.278" ry="1.313"/><ellipse fill="#CCC" cx="173.007" cy="178.535" rx="28.851" ry="1.313"/><ellipse fill="#CCC" cx="62.734" cy="177.963" rx="28.851" ry="1.313"/><path fill="#007153" d="M225.395 172.524l35.455-69.477 35.458 69.477z"/><path fill="#00C668" d="M26.72 172.93l80.165-92.528 80.165 92.53z"/><path fill="#FFF" d="M82.51 112.988l5.23 4.16 6.416-5.107 9.4 7.483 7.458-5.932 4.473 3.56 4.048-3.22 7.03 5.593 6.453-5.136 3.45 2.746.24-.192-29.823-34.422L77.06 116.94l.242.193z"/><g fill="#FFF"><path d="M35.813 171.016h-.052c-2.42-.1-3.914-.368-3.977-.38a1.272 1.272 0 0 1 .456-2.502c.013 0 1.397.246 3.624.338a1.27 1.27 0 0 1-.05 2.544zM43.508 170.64a1.275 1.275 0 0 1-.175-2.536 38.14 38.14 0 0 0 7.25-1.733 1.27 1.27 0 0 1 1.62.78 1.275 1.275 0 0 1-.78 1.624 40.404 40.404 0 0 1-7.738 1.852c-.06.008-.12.014-.177.014zm14.437-5.124a1.27 1.27 0 0 1-.68-2.35 31.173 31.173 0 0 0 5.744-4.655 1.27 1.27 0 0 1 1.8-.024c.504.49.516 1.296.025 1.8a33.856 33.856 0 0 1-6.213 5.036 1.28 1.28 0 0 1-.677.194zM68.63 154.58a1.273 1.273 0 0 1-1.084-1.94c1.25-2.034 2.355-4.293 3.285-6.704a1.274 1.274 0 0 1 2.376.917 43.36 43.36 0 0 1-3.492 7.123 1.262 1.262 0 0 1-1.084.605zm60.852-.802c-.965 0-1.928-.048-2.865-.146a1.275 1.275 0 1 1 .263-2.534c2.343.242 4.825.15 7.345-.273.69-.116 1.35.352 1.467 1.043a1.277 1.277 0 0 1-1.044 1.47c-1.745.293-3.483.44-5.166.44zm-10.15-2.127c-.177 0-.355-.035-.526-.112-2.403-1.09-4.67-2.588-6.736-4.453a1.272 1.272 0 1 1 1.706-1.89c1.87 1.69 3.918 3.04 6.08 4.022.643.29.926 1.044.636 1.685-.213.47-.678.75-1.16.75zm-11.472-10.037c-.37 0-.74-.162-.99-.473a25.795 25.795 0 0 0-5.37-4.984 1.27 1.27 0 0 1-.324-1.77 1.27 1.27 0 0 1 1.77-.325 28.326 28.326 0 0 1 5.902 5.478 1.272 1.272 0 0 1-.988 2.075zm-32.57-.908a1.274 1.274 0 0 1-1.068-1.963c1.584-2.454 3.466-4.45 5.6-5.935a1.275 1.275 0 0 1 1.453 2.094c-1.858 1.29-3.51 3.048-4.91 5.22-.245.38-.655.585-1.074.585zm20.016-7.664c-.117 0-.237-.014-.356-.05-2.416-.703-4.83-.917-7.11-.622a1.273 1.273 0 1 1-.326-2.526c2.626-.342 5.396-.1 8.15.703a1.275 1.275 0 0 1-.357 2.496zM141.902 151.217a1.274 1.274 0 0 1-.48-2.453c2.028-.825 3.262-1.55 3.273-1.557a1.273 1.273 0 0 1 1.3 2.188c-.055.032-1.394.824-3.615 1.728a1.234 1.234 0 0 1-.478.094z"/></g><path opacity=".2" fill="#1E0E00" d="M106.885 80.402v92.53h80.165z"/><path fill="#00B56D" d="M101.728 172.93l97.29-133.702 97.29 133.703z"/><path fill="#FFF" d="M169.437 86.312l6.347 6.015 7.786-7.38 11.41 10.81 9.048-8.576 5.43 5.147 4.912-4.654 8.53 8.084 7.832-7.422 4.19 3.968.29-.278-36.194-49.74-36.195 49.74.29.278z"/><path opacity=".2" fill="#1E0E00" d="M143.98 130.77v42.16h39.75zM199.018 39.228V172.93h97.29z"/><path fill="#E1E1E1" d="M168.5 172.722l56.317-77.397 56.32 77.397z"/><path fill="#FFF" d="M207.693 122.58l3.675 3.482 4.507-4.272 6.605 6.258 5.238-4.965 3.143 2.98 2.843-2.696 4.94 4.68 4.533-4.296 2.425 2.3.17-.162-20.953-28.793-20.952 28.793.17.16z"/><path opacity=".2" fill="#1E0E00" d="M224.817 95.325v77.397h56.32z"/><path fill="#00B56D" d="M196.615 52.138a1.224 1.224 0 0 1-1.2-1.95c1.418-1.813 2.452-2.85 2.496-2.89a1.223 1.223 0 1 1 1.725 1.733c-.01.008-.978.978-2.294 2.66a1.197 1.197 0 0 1-.725.448z"/><path fill="#FFF" d="M169.834 136.092a73.48 73.48 0 0 1-6.812-1.988 1.222 1.222 0 1 0-.795 2.313 75.12 75.12 0 0 0 7.038 2.052 1.223 1.223 0 0 0 .57-2.377zM156.416 131.488a84.884 84.884 0 0 1-6.36-3.18 1.224 1.224 0 1 0-1.186 2.138 86.86 86.86 0 0 0 6.548 3.275 1.223 1.223 0 0 0 .998-2.233z"/><path fill="#00B56D" d="M185.268 76.332c.036 0 .07 0 .104-.006a1.223 1.223 0 0 0 1.117-1.32 21.39 21.39 0 0 1-.08-1.86c0-1.642.186-3.302.555-4.936a1.226 1.226 0 0 0-.923-1.464 1.227 1.227 0 0 0-1.464.924 24.654 24.654 0 0 0-.527 7.543c.053.637.588 1.12 1.217 1.12zM188.338 62.896a1.225 1.225 0 0 0 1.653-.51c1.033-1.96 2.34-3.9 3.882-5.77a1.223 1.223 0 0 0-1.887-1.56c-1.647 2-3.047 4.08-4.158 6.188a1.225 1.225 0 0 0 .51 1.652z"/><path fill="#FFF" d="M183.362 135.41c-2.36.773-4.637 1.248-6.764 1.404-.673.05-1.18.636-1.128 1.31a1.22 1.22 0 0 0 1.218 1.134c.03 0 .06 0 .09-.006 2.326-.172 4.797-.682 7.346-1.52.64-.208.992-.9.78-1.542a1.22 1.22 0 0 0-1.542-.78zM195.555 128.713a37.37 37.37 0 0 1-5.788 3.905 1.222 1.222 0 0 0 1.175 2.144 39.558 39.558 0 0 0 6.17-4.162 1.224 1.224 0 0 0-1.556-1.887zM206.62 110.878c-.304-2.44-1.136-4.874-2.476-7.234a1.223 1.223 0 0 0-2.125 1.21c1.178 2.08 1.91 4.208 2.175 6.325a1.22 1.22 0 0 0 1.365 1.063 1.222 1.222 0 0 0 1.06-1.365z"/><path fill="#00B56D" d="M190.446 87.412c-1.17-2.14-2.07-4.29-2.674-6.393a1.222 1.222 0 0 0-1.513-.84 1.23 1.23 0 0 0-.84 1.516c.654 2.272 1.623 4.59 2.88 6.89.203.37.57.596.965.632a1.226 1.226 0 0 0 1.18-1.806z"/><path fill="#FFF" d="M205.088 116.98a1.22 1.22 0 0 0-1.538.79c-.652 2.032-1.724 4.042-3.183 5.98a1.224 1.224 0 1 0 1.954 1.47c1.625-2.157 2.822-4.408 3.56-6.7a1.227 1.227 0 0 0-.792-1.54zM198.007 96.19a58.902 58.902 0 0 1-3.564-3.523 1.225 1.225 0 0 0-1.73-.067 1.224 1.224 0 0 0-.063 1.73 60.808 60.808 0 0 0 3.71 3.667 38.89 38.89 0 0 1 1.46 1.408c.24.245.558.367.873.367a1.225 1.225 0 0 0 .875-2.08 42.58 42.58 0 0 0-1.56-1.502zM143.277 126.81c-.235 0-.476-.07-.686-.21-1.94-1.323-3.005-2.184-3.05-2.22a1.224 1.224 0 0 1 1.543-1.9c.01.01 1.037.84 2.883 2.094.56.38.703 1.14.324 1.697-.235.35-.62.54-1.013.54z"/><path fill="#B4F8FF" d="M181.753 63.824a7.24 7.24 0 0 0-7.553-5.12c-1.38-4.49-5.556-7.75-10.496-7.75-3.828 0-7.198 1.96-9.163 4.93a8.695 8.695 0 0 0-10.15 8.572c0 4.803 3.895 8.698 8.696 8.698h27.722a4.714 4.714 0 0 0 .945-9.33z"/><path fill="#FFF" d="M188.582 111.07a5.653 5.653 0 0 0-5.898-3.998 8.57 8.57 0 0 0-15.347-2.2 6.79 6.79 0 0 0-7.926 6.693 6.79 6.79 0 0 0 6.79 6.788h21.644a3.68 3.68 0 0 0 .738-7.283z"/><path fill="#E1E1E1" d="M91.165 106.23a3.553 3.553 0 0 0-3.4-2.528c-.105 0-.206.008-.31.015a5.39 5.39 0 0 0-9.65-1.385 4.27 4.27 0 1 0-.713 8.478h13.61a2.314 2.314 0 0 0 .463-4.58z"/><path fill="#7CDEE2" d="M58.29 107.396a5.447 5.447 0 0 1 5.687-3.805c1.04-3.34 4.185-5.766 7.905-5.766a8.284 8.284 0 0 1 6.9 3.668c.356-.06.722-.09 1.095-.09 3.616 0 6.548 2.894 6.548 6.463 0 3.576-2.932 6.468-6.548 6.468H59.002c-1.96 0-3.55-1.568-3.55-3.504 0-1.695 1.22-3.11 2.838-3.434zM231.96 92.23c.837-2.75 3.42-4.755 6.478-4.755.197 0 .392.01.582.028 1.29-4.145 5.194-7.158 9.812-7.158 3.58 0 6.73 1.812 8.566 4.556a8.342 8.342 0 0 1 1.358-.114c4.492 0 8.13 3.594 8.13 8.027 0 4.437-3.638 8.03-8.13 8.03H232.84c-2.43 0-4.405-1.948-4.405-4.352 0-2.1 1.515-3.855 3.524-4.26z"/><path opacity=".2" fill="#1E0E00" d="M143.98 130.77v42.16h39.75z"/><path fill="#00E290" d="M168.5 172.722l56.317-77.397 56.32 77.397z"/><path fill="#FFF" d="M207.693 122.58l3.675 3.482 4.507-4.272 6.605 6.258 5.238-4.965 3.143 2.98 2.843-2.696 4.94 4.68 4.533-4.296 2.425 2.3.17-.162-20.953-28.793-20.952 28.793.17.16zM150.602 144.162a2.812 2.812 0 0 1 2.94-1.97 4.27 4.27 0 0 1 4.085-2.98c1.49 0 2.8.755 3.566 1.897.184-.03.373-.046.566-.046 1.867 0 3.383 1.495 3.383 3.343 0 1.844-1.516 3.342-3.384 3.342h-10.79a1.824 1.824 0 0 1-1.836-1.813c0-.877.63-1.61 1.468-1.775z"/><path opacity=".2" fill="#1E0E00" d="M224.817 95.325v77.397h56.32z"/><path fill="#FFF" d="M188.582 111.07a5.653 5.653 0 0 0-5.898-3.998 8.57 8.57 0 0 0-15.347-2.2 6.79 6.79 0 0 0-7.926 6.693 6.79 6.79 0 0 0 6.79 6.788h21.644a3.68 3.68 0 0 0 .738-7.283z"/><path fill="#B4F8FF" d="M91.165 106.23a3.553 3.553 0 0 0-3.4-2.528c-.105 0-.206.008-.31.015a5.39 5.39 0 0 0-9.65-1.385 4.27 4.27 0 1 0-.713 8.478h13.61a2.314 2.314 0 0 0 .463-4.58z"/><g fill="#FFE5A1"><path d="M107.603 60.892a.637.637 0 0 1-1.273 0v-5.646a.636.636 0 0 1 1.273 0v5.645z"/><path d="M109.79 57.432c.354 0 .638.286.638.638a.635.635 0 0 1-.638.636h-5.645a.638.638 0 0 1 0-1.274h5.645z"/></g><g fill="#FFE5A1"><path d="M177.91 39.407a.636.636 0 0 1-1.272 0V33.76a.636.636 0 0 1 1.272 0v5.647z"/><path d="M180.098 35.947a.636.636 0 0 1 0 1.273h-5.645a.638.638 0 0 1-.638-.636.64.64 0 0 1 .638-.637h5.645z"/></g><g fill="#FFE5A1"><path d="M217.35 46.504a.637.637 0 0 1-1.272 0v-5.646a.635.635 0 0 1 1.272 0v5.647z"/><path d="M219.537 43.044c.354 0 .638.286.638.637a.636.636 0 0 1-.638.638h-5.645a.638.638 0 0 1 0-1.274h5.645z"/></g><g fill="#FFE5A1"><path d="M242.943 71.845c0 .35-.282.636-.634.636a.637.637 0 0 1-.64-.635V66.2c0-.353.287-.64.64-.64.35 0 .633.287.633.64v5.645z"/><path d="M245.13 68.385c.355 0 .64.286.64.637a.636.636 0 0 1-.64.637h-5.645a.638.638 0 0 1 0-1.274h5.646z"/></g><g fill="#FFE5A1"><path d="M263.782 71.845a.637.637 0 0 1-1.273 0V66.2a.636.636 0 0 1 1.273 0v5.645z"/><path d="M265.97 68.385a.636.636 0 0 1 0 1.274h-5.646a.638.638 0 0 1 0-1.274h5.646z"/></g><g fill="#FFE5A1"><path d="M243.578 47.986a.637.637 0 0 1-1.272 0V42.34a.635.635 0 0 1 1.272 0v5.646z"/><path d="M245.766 44.525c.354 0 .64.286.64.64 0 .35-.285.634-.64.634h-5.645a.637.637 0 0 1-.637-.636.64.64 0 0 1 .638-.64h5.646z"/></g><g fill="#FFE5A1"><path d="M275.65 112.51a.637.637 0 0 1-1.272 0v-5.645c0-.35.287-.637.64-.637.35 0 .633.286.633.637v5.646z"/><path d="M277.84 109.05c.353 0 .637.287.637.64 0 .35-.283.634-.638.634h-5.647a.637.637 0 0 1-.637-.635.64.64 0 0 1 .637-.64h5.646z"/></g><g fill="#FFE5A1"><path d="M162.036 38.1a.635.635 0 0 1-.634.638.638.638 0 0 1-.64-.637v-5.645a.636.636 0 0 1 1.273 0V38.1z"/><path d="M164.224 34.64c.354 0 .638.287.638.638a.635.635 0 0 1-.638.637h-5.644a.637.637 0 0 1-.64-.637c0-.35.287-.637.64-.637h5.644z"/></g><g fill="#FFE5A1"><path d="M142.43 53.775a.636.636 0 0 1-.634.637.638.638 0 0 1-.638-.637V48.13a.636.636 0 0 1 1.273 0v5.645z"/><path d="M144.618 50.315c.354 0 .638.286.638.638a.635.635 0 0 1-.638.636h-5.645a.638.638 0 0 1 0-1.274h5.645z"/></g><g fill="#FFE5A1"><path d="M46.825 74.97a.637.637 0 0 1-1.272 0v-5.645a.636.636 0 0 1 1.272 0v5.645z"/><path d="M49.012 71.51a.636.636 0 0 1 0 1.274h-5.644a.638.638 0 0 1 0-1.274h5.644z"/></g><path fill="#E6E6E6" d="M51 119a1 1 0 0 1-2 0v-5a1 1 0 0 1 2 0v5z"/><g fill="#FFE5A1"><path d="M170.183 50.81a.637.637 0 0 1-1.273 0v-5.646a.636.636 0 0 1 1.273 0v5.645z"/><path d="M172.37 47.348c.354 0 .638.286.638.64 0 .35-.284.634-.638.634h-5.645a.637.637 0 0 1-.638-.635.64.64 0 0 1 .638-.64h5.645z"/></g><g fill="#FFE5A1"><path d="M103.03 42.376c0 .72-.583 1.305-1.303 1.305-.722 0-1.31-.584-1.31-1.304V30.794a1.306 1.306 0 0 1 2.61 0v11.582z"/><path d="M107.517 35.277c.727 0 1.31.587 1.31 1.307 0 .722-.583 1.307-1.31 1.307h-11.58c-.72 0-1.308-.584-1.308-1.306 0-.72.586-1.307 1.306-1.307h11.58z"/></g><g fill="#FFE5A1"><path d="M86.376 62.433a.637.637 0 0 1-1.273 0v-5.647c0-.35.286-.636.64-.636.35 0 .633.286.633.637v5.646z"/><path d="M88.564 58.973a.636.636 0 0 1 0 1.274H82.92a.638.638 0 0 1-.64-.637c0-.35.287-.637.64-.637h5.644z"/></g><g fill="#FFE5A1"><path d="M112.92 76.502a.637.637 0 0 1-1.272 0v-5.646a.636.636 0 0 1 1.272 0V76.5z"/><path d="M115.108 73.042c.354 0 .637.286.637.638 0 .35-.283.636-.637.636h-5.646a.638.638 0 0 1-.638-.636.64.64 0 0 1 .638-.638h5.646z"/></g><path opacity=".88" fill="#FFF" d="M171.204 101.134c-1.566 0-3.122.093-4.663.278 6.498-5.068 13.557-11.694 11.03-18.205-2.13-5.49-9.867-6.64-15.984-6.64-1.613 0-2.91.082-3.542.132a4.163 4.163 0 0 0-2.527 1.128l-9.958.616a3.405 3.405 0 0 0-2.353 1.15 3.403 3.403 0 0 0-.85 2.473 3.423 3.423 0 0 0 3.624 3.204l.99-.06c.397 1.432.437 2.77.257 3.87-13.145.092-26.337.147-35.805.147-9.39 0-11.094-.296-11.094-.296.805 0 1.55-.314 2.098-.886 1.064-1.11 1.318-2.734 1.266-3.92-.006-.182.308-.354.308-.504v-.24c0-.145-.312-.243-.306-.31.03-.297-.04-1.197-.746-1.98-.452-.5-1.163-.776-1.854-.776-.092 0-.254-.17-.414-.153-.068.007-.207-.16-.35-.16H82.357c-.15 0-.32.17-.506.16-.28-.01-.604.066-.9.066-3.74 0-3.952 2.642-3.952 3.153v.24c0 2.283 3.075 5.38 5.358 5.38h4.414l.15.414c-.12.514-.123 1.1.104 1.852l.71 2.242-7.226 12.262c-4.845-2.173-10.107-3.316-15.345-3.316-20.782 0-37.69 16.9-37.69 37.673 0 20.777 16.908 37.682 37.69 37.682 13.327 0 25.554-7 32.36-18.4l6.475 2.15a13.09 13.09 0 0 0 4.977.973c1.522 0 3.188 0 4.816-.475l.374.8c-2.555.477-3.167 2.007-3.167 2.983v.06c0 1.78 2.977 5.102 5.116 5.102h9.62c.803 0 1.55-.244 2.004-.894.82-1.174.363-2.346-.078-3.55-.013-.033-.026-.035-.04-.074.485-.55.64-1.106.54-1.713-.03-.198-.367-1.77-2.425-1.77h-1.732l-4.174-5.78c1.494-2.2 2.326-4.947 2.326-7.65 0-2.56-.73-5.072-2.084-7.19l14.61-15.907a38.978 38.978 0 0 0-2.45 13.655c0 21.487 17.482 38.964 38.972 38.964 21.49 0 38.974-17.486 38.974-38.98 0-21.492-17.483-38.978-38.974-38.978z"/><g fill="#FFE5A1"><path d="M97.12 70.83a.637.637 0 0 1-1.273 0v-5.647a.636.636 0 0 1 1.273 0v5.646z"/><path d="M99.31 67.37c.353 0 .636.285.636.637a.635.635 0 0 1-.637.636h-5.646a.637.637 0 0 1-.638-.636c0-.352.286-.638.638-.638h5.645z"/></g><path d="M170.66 177.365c-20.23 0-36.686-16.458-36.686-36.687 0-20.228 16.457-36.686 36.685-36.686s36.686 16.458 36.686 36.686c0 20.23-16.457 36.687-36.687 36.687zm0-67.926c-17.226 0-31.24 14.013-31.24 31.238 0 17.227 14.015 31.24 31.24 31.24 17.225 0 31.238-14.014 31.238-31.24 0-17.225-14.013-31.24-31.24-31.24z"/><path fill="#00ACE4" d="M64.62 106.978c-18.612 0-33.7 15.09-33.7 33.7s15.088 33.702 33.7 33.702c18.613 0 33.702-15.09 33.702-33.7s-15.09-33.702-33.703-33.702zm0 61.364c-15.276 0-27.663-12.386-27.663-27.663s12.387-27.665 27.662-27.665c15.278 0 27.663 12.387 27.663 27.664S79.898 168.34 64.62 168.34z"/><path d="M64.62 176.08c-19.52 0-35.402-15.88-35.402-35.4 0-19.522 15.882-35.404 35.4-35.404 19.524 0 35.405 15.883 35.405 35.403s-15.88 35.4-35.404 35.4zm0-67.4c-17.644 0-32 14.355-32 32 0 17.644 14.356 31.998 32 31.998 17.645 0 32-14.354 32-32 0-17.643-14.354-31.997-32-31.997z"/><path fill="#00ACE4" d="M171.037 106.978c-18.612 0-33.7 15.09-33.7 33.7s15.088 33.702 33.7 33.702 33.7-15.09 33.7-33.7-15.088-33.702-33.7-33.702zm0 61.364c-15.278 0-27.663-12.386-27.663-27.663s12.385-27.665 27.663-27.665S198.7 125.402 198.7 140.68s-12.385 27.662-27.663 27.662z"/><path fill="#999" d="M152.97 97.703c-.497 0-.953-.328-1.092-.83l-3.91-14.09a1.132 1.132 0 1 1 2.182-.606l3.91 14.09a1.133 1.133 0 0 1-1.09 1.436z"/><g fill="#999"><path d="M92.592 98.836l-3.912-14.09M92.59 99.968c-.496 0-.95-.33-1.09-.83l-3.91-14.09a1.133 1.133 0 0 1 2.182-.607l3.91 14.092a1.132 1.132 0 0 1-1.092 1.436z"/></g><path fill="#E6E6E6" d="M69.31 140.762a4.452 4.452 0 1 1-8.905.002 4.452 4.452 0 0 1 8.904-.002zM174.835 140.762a4.45 4.45 0 0 1-8.9 0 4.45 4.45 0 0 1 4.45-4.45 4.45 4.45 0 0 1 4.45 4.45z"/><path fill="#FF6323" d="M170.66 142.565c-.468 0-.936-.173-1.3-.52-7.81-7.43-10.29-17.93-10.53-19.016l-9.416-32.2a1.887 1.887 0 0 1 3.623-1.06l9.47 32.405c.02.1 2.256 10.29 9.454 17.136a1.888 1.888 0 0 1-1.3 3.255z"/><path fill="#FF6323" d="M107.453 150.867c-.12 0-.238-.01-.36-.033l-42.83-8.303a1.884 1.884 0 0 1-1.27-2.805l27.55-46.98a1.89 1.89 0 0 1 2.12-.868c.02.006.04.01.058.017 3.207.326 37.142.184 59.51.005 1.073.005 1.894.828 1.9 1.87a1.884 1.884 0 0 1-1.87 1.902c-.148.002-15.055.12-29.835.17-18.92.058-26.225.032-29.224-.177l-25.603 43.67 40.214 7.794a1.89 1.89 0 0 1 1.495 2.21 1.89 1.89 0 0 1-1.852 1.527zM93.677 92.563z"/><path fill="#FF6323" d="M108.206 150.867a1.883 1.883 0 0 1-1.806-1.34l-17.737-58.68a1.89 1.89 0 0 1 1.26-2.354 1.89 1.89 0 0 1 2.354 1.26l16.78 55.518 43.428-47.193a1.887 1.887 0 1 1 2.778 2.556l-45.667 49.624c-.36.39-.868.607-1.39.607z"/><circle fill="#E6E6E6" cx="108.631" cy="149.819" r="9.162"/><path opacity=".15" fill="#030303" d="M108.632 158.98c5.06 0 9.16-4.1 9.16-9.16 0-2.838-1.29-5.372-3.31-7.052-2.997 3.564-7.53 9.14-11.602 14.18a9.115 9.115 0 0 0 5.752 2.033z"/><path fill="#999" d="M145.224 83.562a1.13 1.13 0 0 1-1.128-1.062 1.13 1.13 0 0 1 1.06-1.2l14.595-.902a1.124 1.124 0 0 1 1.2 1.06 1.133 1.133 0 0 1-1.06 1.2l-14.595.902c-.024.002-.048.002-.07.002zM108.432 154.63a4.71 4.71 0 0 1-4.704-4.706c0-2.594 2.11-4.704 4.704-4.704s4.705 2.11 4.705 4.704a4.71 4.71 0 0 1-4.705 4.706zm0-7.85a3.15 3.15 0 0 0-3.145 3.144 3.15 3.15 0 0 0 3.145 3.146 3.15 3.15 0 0 0 3.146-3.146 3.15 3.15 0 0 0-3.146-3.144z"/><path fill="#5E3813" d="M101 84.118c0 1.04-.842 1.882-1.88 1.882H80.88c-1.038 0-1.88-.843-1.88-1.882v-.236c0-1.04.842-1.882 1.88-1.882h18.24c1.038 0 1.88.843 1.88 1.882v.236zM163.304 100.68a1.887 1.887 0 0 1-1.16-3.377c9.714-7.556 9.52-10.584 9.23-11.332-.91-2.352-8.366-3.054-13.395-2.656a1.89 1.89 0 0 1-2.033-1.73 1.89 1.89 0 0 1 1.732-2.03c2.472-.195 14.914-.873 17.212 5.054 1.538 3.962-1.777 8.942-10.433 15.675a1.886 1.886 0 0 1-1.156.396z"/><path fill="#4C4C4C" d="M108.432 160.814c-1.722 0-3.37-.39-4.9-1.16a.78.78 0 1 1 .704-1.394c1.308.66 2.72.994 4.196.994 5.145 0 9.33-4.186 9.33-9.33 0-5.146-4.186-9.33-9.33-9.33a.78.78 0 0 1 0-1.56c6.006 0 10.892 4.886 10.892 10.89 0 6.005-4.886 10.89-10.892 10.89z"/><path fill="#00ACE4" d="M121.882 164.422a1.38 1.38 0 0 1-.25 1.94l-.2.152a1.382 1.382 0 0 1-1.94-.25L107.36 150.52a1.38 1.38 0 0 1 .252-1.938l.2-.153a1.383 1.383 0 0 1 1.94.25l12.13 15.742z"/><path fill="#4C4C4C" d="M63.663 146.463a.727.727 0 0 1-.146-.013 5.877 5.877 0 0 1-4.77-5.77 5.882 5.882 0 0 1 5.872-5.875.78.78 0 0 1 0 1.56 4.313 4.313 0 0 0-.81 8.55.78.78 0 0 1-.145 1.548z"/><path fill="#4C4C4C" d="M109.98 140.71c-.026 0-.05 0-.077-.002l-45.355-4.347a.78.78 0 0 1-.702-.85c.04-.43.427-.742.85-.703l45.357 4.347a.78.78 0 0 1-.074 1.557zM104.507 160.023a.835.835 0 0 1-.245-.04l-42.09-13.976a.78.78 0 0 1 .49-1.48l42.09 13.977c.41.138.632.578.496.987a.78.78 0 0 1-.74.533z"/><path fill="#FF6323" d="M66.744 133.326l-2.246 3.833 4.126.423 2.426-4.138z"/><path fill="#5E3813" d="M126 166.41c0-.838-.197-2.41-.808-2.41h-9.62c-.61 0-1.572 1.572-1.572 2.41v.062c0 .84.96 1.528 1.57 1.528h9.622c.61 0 .808-.69.808-1.528v-.06z"/><g><circle fill="#FF643B" cx="139.242" cy="164.509" r="14.153"/><ellipse transform="rotate(52.447 133.36 157.3)" opacity=".24" fill="#FFF" cx="133.363" cy="157.301" rx="3.072" ry="6.221"/><path fill="#C52902" d="M137.442 161.254c3.908-2.163 6.48-5.78 7.385-9.745a14.24 14.24 0 0 0-.893-.35c-.812 3.772-3.233 7.227-6.943 9.278-3.708 2.05-7.922 2.268-11.55.948-.07.312-.13.626-.18.943 3.842 1.34 8.273 1.086 12.182-1.076zM140.972 167.637c-3.907 2.16-6.48 5.78-7.386 9.746.295.126.592.242.894.348.812-3.77 3.234-7.226 6.944-9.277 3.71-2.052 7.922-2.27 11.55-.95.07-.312.13-.626.18-.94-3.842-1.344-8.274-1.09-12.182 1.074z"/><path fill="#C52902" d="M132.003 152.588l.84-.465 13.518 24.398-.84.467z"/><path fill="#C52902" d="M127.223 171.728l-.465-.842 24.414-13.495.465.842z"/></g><path fill="#FFF" d="M235.012 133.362c.676-2.213 2.757-3.827 5.22-3.827.158 0 .314.008.47.02 1.037-3.336 4.183-5.766 7.903-5.766a8.276 8.276 0 0 1 6.9 3.67c.355-.062.722-.092 1.095-.092 3.617 0 6.548 2.894 6.548 6.464 0 3.572-2.93 6.467-6.548 6.467h-20.876c-1.958 0-3.547-1.568-3.547-3.504 0-1.695 1.22-3.108 2.835-3.434z"/><g><g fill="#E6E6E6"><path d="M116.708 36.975l8.014 20.608-.502.195-8.013-20.608z"/><path d="M132.275 36.98l.5.196-8.012 20.612-.5-.194z"/></g><path fill="#FF5454" d="M132.768 37c-.245-4-3.92-7.958-8.416-7.958-4.5 0-8.173 3.958-8.416 7.958h16.832z"/><path opacity=".2" fill="#1E0E00" d="M124.444 37.346h8.323c-.243-3.97-4.068-7.77-8.323-7.822v7.822z"/><path fill="#E6E6E6" d="M125 60.5a.5.5 0 0 1-1 0v-3a.5.5 0 0 1 1 0v3z"/></g></svg>