<svg xmlns="http://www.w3.org/2000/svg" width="124.358" height="123.745" viewBox="0 0 124.358 123.745"><path fill="#EDEDED" d="M124.358 61.874c0 34.167-27.837 61.87-62.18 61.87C27.837 123.745 0 96.042 0 61.875 0 27.7 27.837 0 62.178 0c34.343 0 62.18 27.7 62.18 61.874z"/><path fill="#DADADA" d="M17.562 104.96a62.475 62.475 0 0 0 17.233 12.467h54.767a62.455 62.455 0 0 0 17.232-12.467H17.562z"/><path fill="#3BA1F4" d="M109.223 14.227c0-3.196-2.582-5.792-5.772-5.792H20.91c-3.19 0-5.774 2.596-5.774 5.792l-11.97 85.16c0 3.203 24.046 5.364 27.234 5.364h21.826v2.553h24.312v-2.552h17.42c3.188 0 27.236-2.16 27.236-5.362l-11.97-85.16z"/><path opacity=".1" fill="#1D1D1B" d="M109.223 14.227c0-3.196-2.582-5.792-5.772-5.792H76.54L3.164 99.388c0 3.202 24.047 5.363 27.235 5.363h21.826v2.553h24.312v-2.552h17.42c3.188 0 27.236-2.16 27.236-5.362l-11.97-85.16z"/><path fill="#FFF" d="M22.657 62.45c0 5.05 4.056 9.14 9.052 9.14h53.28c9.23 0 16.713-7.55 16.713-16.87 0-9.313-7.484-16.872-16.712-16.872-.95 0-1.883.094-2.797.24-3.774-5.762-10.247-9.562-17.607-9.562-9.493 0-17.524 6.33-20.176 15.038a14.33 14.33 0 0 0-1.195-.064c-6.287 0-11.594 4.218-13.326 9.995-4.122.848-7.233 4.54-7.233 8.954z"/><path opacity=".1" fill="#1D1D1B" d="M9.23 95.057l10.875-86.54c-2.803.396-4.97 2.79-4.97 5.71l-11.97 85.16c0 1.078 2.728 2.035 6.46 2.838l-.394-7.168zM115.13 95.057l-10.873-86.54c2.802.396 4.966 2.79 4.966 5.71l11.973 85.16c0 1.078-2.728 2.035-6.46 2.838l.393-7.168z"/><path fill="#035984" d="M121.195 106.437c0 3.91-3.157 7.077-7.06 7.077H10.226c-3.902 0-7.06-3.167-7.06-7.077v-7.05c0-3.908 3.157-7.08 7.06-7.08h103.912c3.9 0 7.06 3.172 7.06 7.08v7.05z"/><path fill="#FF5050" d="M21.146 102.914c0 2.185-1.78 3.957-3.977 3.957-2.198 0-3.98-1.77-3.98-3.956a3.97 3.97 0 0 1 3.98-3.962 3.97 3.97 0 0 1 3.976 3.962z"/><path opacity=".3" fill="#1D1D1B" d="M111.698 102.914a2.95 2.95 0 0 1-2.962 2.942h-79.74a2.95 2.95 0 0 1-2.957-2.942 2.95 2.95 0 0 1 2.957-2.946h79.74a2.95 2.95 0 0 1 2.96 2.946z"/></svg>