<svg xmlns="http://www.w3.org/2000/svg" width="116.854" height="113.806" viewBox="0 0 116.854 113.806"><path fill="#7F8787" d="M111.33 99.15c0 5.044-4.09 9.134-9.133 9.134h-87.54c-5.044 0-9.136-4.09-9.136-9.135V14.653c0-5.043 4.093-9.133 9.136-9.133h87.54c5.044 0 9.135 4.09 9.135 9.134V99.15z"/><path fill="#3C3C3B" d="M102.197 5.52c5.043 0 9.134 4.09 9.134 9.134V99.15c0 5.044-4.09 9.134-9.133 9.134h-87.54c-5.044 0-9.136-4.09-9.136-9.135V14.653c0-5.043 4.093-9.133 9.136-9.133h87.54m0-5.52h-87.54C6.576 0 0 6.576 0 14.654V99.15c0 8.08 6.575 14.655 14.656 14.655h87.54c8.08 0 14.657-6.576 14.657-14.656V14.653C116.853 6.576 110.277 0 102.197 0z"/><path fill="#9D9D9C" d="M115.373 96.295c0 5.044-4.042 6.854-9.032 6.854H9.656c-4.99 0-9.033-1.81-9.033-6.855l7.82-27.832c0-5.044-3.777 17.27 1.213 17.27h96.686c4.99 0 2.35-20.49 2.35-15.446l6.683 26.008z"/><path fill="#FFF" d="M106.835 51.462a6.85 6.85 0 0 1-6.85 6.848H15.49a6.85 6.85 0 0 1-6.853-6.848v-33.05a6.852 6.852 0 0 1 6.853-6.852h84.496c3.78 0 6.85 3.068 6.85 6.853v33.05z"/><g fill="#FF5050"><path d="M22.74 68.995l9.774-1.187c.308 2.49 1.15 4.396 2.516 5.716 1.363 1.314 3.016 1.973 4.958 1.973 2.083 0 3.837-.79 5.263-2.37 1.428-1.582 2.14-3.713 2.14-6.397 0-2.536-.683-4.548-2.05-6.037-1.364-1.48-3.028-2.226-4.994-2.226-1.294 0-2.837.253-4.634.756l1.11-8.227c2.734.07 4.818-.523 6.255-1.78 1.438-1.26 2.157-2.93 2.157-5.014 0-1.77-.527-3.185-1.582-4.242-1.054-1.05-2.457-1.58-4.203-1.58-1.727 0-3.198.602-4.42 1.8-1.22 1.197-1.966 2.945-2.23 5.242l-9.305-1.58c.646-3.184 1.62-5.728 2.93-7.63 1.304-1.908 3.127-3.403 5.46-4.493 2.336-1.093 4.952-1.635 7.85-1.635 4.96 0 8.936 1.576 11.93 4.74 2.47 2.59 3.703 5.507 3.703 8.767 0 4.623-2.53 8.312-7.583 11.068 3.02.647 5.432 2.095 7.24 4.346 1.81 2.25 2.712 4.972 2.712 8.155 0 4.628-1.687 8.566-5.064 11.826-3.38 3.253-7.583 4.885-12.612 4.885-4.767 0-8.717-1.37-11.856-4.116-3.142-2.74-4.96-6.327-5.464-10.76zM89.858 82.97H79.762V44.926c-3.69 3.443-8.035 5.996-13.042 7.647v-9.16c2.636-.862 5.498-2.497 8.588-4.905 3.087-2.407 5.21-5.213 6.358-8.422h8.192V82.97z"/></g><path fill="#FFF" d="M115.223 95.012c.78 3.544-2.237 6.433-6.75 6.443l-100.785.267c-4.513.014-7.563-2.874-6.815-6.446l6.53-31.21c.75-3.572 4.42-6.468 8.205-6.468h84.496c3.782 0 7.48 2.875 8.27 6.426l6.85 30.988z"/><path fill="#FF5050" d="M79.762 57.598l2.415 23.84 11.15-.02-3.47-23.82zM35.572 59.126c1.848-.47 3.416-.71 4.717-.71 1.97 0 3.602.7 4.906 2.097 1.32 1.402 1.938 3.295 1.84 5.687-.1 2.525-.934 4.535-2.517 6.026-1.602 1.49-3.526 2.234-5.765 2.236-2.085.003-3.803-.615-5.147-1.852-1.33-1.243-2.036-3.04-2.11-5.386L21.145 68.35c-.086 4.18 1.387 7.562 4.455 10.14 3.14 2.583 7.375 3.87 12.656 3.863 5.577-.01 10.285-1.554 14.06-4.62 3.684-3.074 5.48-6.783 5.462-11.136-.017-2.998-.94-5.558-2.764-7.675-.412-.483-.86-.918-1.334-1.325H35.933l-.36 1.53z"/><path opacity=".15" fill="#1D1D1B" d="M115.223 95.012c.78 3.544-2.237 6.433-6.75 6.443l-100.785.267c-4.513.014-7.563-2.874-6.815-6.446l6.53-31.21c.75-3.572 4.42-6.468 8.205-6.468h84.496c3.782 0 7.48 2.875 8.27 6.426l6.85 30.988z"/><path fill="#878787" d="M21.745 62.114a2.64 2.64 0 0 1-2.642 2.64 2.64 2.64 0 0 1-2.64-2.64v-9.137a2.64 2.64 0 0 1 5.283 0v9.137z"/><path fill="#B2B2B2" d="M18.44 50.473c-1.13.3-1.978 1.28-1.978 2.505v9.137c0 1.22.848 2.206 1.978 2.502V50.473z"/><path fill="#878787" d="M99.917 62.114a2.64 2.64 0 0 1-2.643 2.64 2.64 2.64 0 0 1-2.64-2.64v-9.137a2.642 2.642 0 0 1 5.282 0v9.137z"/><path fill="#B2B2B2" d="M96.612 50.473c-1.13.3-1.977 1.28-1.977 2.505v9.137c0 1.22.847 2.206 1.977 2.502V50.473z"/></svg>