<svg xmlns="http://www.w3.org/2000/svg" width="124" height="112" viewBox="0 0 124 112">
  <g>
    <rect x="4" y="29" width="116" height="83" rx="12" ry="12" fill="#3c3c3b"/>
    <rect x="2" y="21" width="120" height="83" rx="12" ry="12" fill="#266aa1"/>
    <path d="M110,21H68.256L17.179,104H110a12.035,12.035,0,0,0,12-12V33A12.035,12.035,0,0,0,110,21Z" opacity="0.1"/>
    <rect y="13" width="124" height="83" rx="12" ry="12" fill="#3ba1f4"/>
    <rect x="10" y="34" width="61" height="51" rx="6" ry="6" fill="#fff"/>
    <path d="M50.294,41,40.572,75.582,38,85H65.072a6.018,6.018,0,0,0,6-6V73.323Z" opacity="0.1"/>
    <g>
      <path d="M65.231,82.7s-2.794-8.022-3.476-9.448a4.586,4.586,0,0,0-2.474-2.484c-1.008-.462-11.418-5.048-11.418-5.048l-5.957.459-5.961-.459s-10.4,4.585-11.412,5.048a4.615,4.615,0,0,0-2.481,2.484c-.678,1.427-3.47,9.448-3.47,9.448s-.272.946-.583,2.3H65.811c-.369-1.583-.58-2.3-.58-2.3" fill="#00ab75"/>
      <path d="M48.018,65.686a6.127,6.127,0,0,1-12.226,0v-6.5a6.127,6.127,0,0,1,12.226,0Z" fill="#e9b990"/>
      <path d="M48.018,64.654a6.127,6.127,0,0,1-12.226,0v-6.5a6.127,6.127,0,0,1,12.226,0Z" fill="#ffc58f"/>
      <path d="M60.281,71.366a5.209,5.209,0,0,0-1-.6c-.813-.375-7.761-3.441-10.4-4.6a6.981,6.981,0,0,1-13.947,0c-2.638,1.162-9.584,4.228-10.4,4.6a5.235,5.235,0,0,0-1,.6C26.172,73.471,28.1,78.716,28.326,85H55.489c.226-6.284,2.151-11.529,4.792-13.634" fill="#00d094"/>
      <path d="M51.816,50.4a1.287,1.287,0,0,0-.4.051c-.819-6.159-4.645-10.818-9.245-10.818-7.987,0-8.423,4.659-9.245,10.818a1.243,1.243,0,0,0-1.588,1.338l.265,3.613A1.3,1.3,0,0,0,32.992,56.6a.648.648,0,0,0,.136-.041c1.122,5.568,4.744,9.651,9.047,9.651s7.923-4.082,9.046-9.651a.627.627,0,0,0,.136.041A1.289,1.289,0,0,0,52.74,55.4l.269-3.613A1.3,1.3,0,0,0,51.816,50.4" fill="#ffd196"/>
      <path d="M33.111,51.2a.509.509,0,1,1-.509-.492.5.5,0,0,1,.509.492" fill="#724430"/>
      <path d="M52.256,51.2a.509.509,0,1,1-.509-.492.5.5,0,0,1,.509.492" fill="#724430"/>
      <path d="M42.176,37c-5.568,0-10.082,3.925-10.082,8.769V51.2h1.017V49.209c0-1.666.8-2.026,1.428-1.591,0,0,3.221,1.934,8.063,0,7.66-3.06,8.637.713,8.637,1.591V51.2h1.017V45.769A7.933,7.933,0,0,0,50.635,41a10.515,10.515,0,0,0-8.46-4" fill="#724430"/>
    </g>
    <rect x="78" y="47" width="33" height="6" rx="3" ry="3" fill="#fff" opacity="0.5"/>
    <rect x="78" y="35" width="33" height="6" rx="3" ry="3" fill="#fff"/>
    <rect x="78" y="59" width="33" height="6" rx="3" ry="3" fill="#fff" opacity="0.5"/>
    <circle cx="27" cy="22" r="7" fill="#fff"/>
    <rect x="22" width="10" height="26" rx="5" ry="5" fill="#7f8787"/>
    <path d="M32,21V5a5.015,5.015,0,0,0-5-5V26A5.015,5.015,0,0,0,32,21Z" opacity="0.2"/>
    <circle cx="97" cy="22" r="7" fill="#fff"/>
    <rect x="92" width="10" height="26" rx="5" ry="5" fill="#7f8787"/>
    <path d="M102,21V5a5.015,5.015,0,0,0-5-5V26A5.015,5.015,0,0,0,102,21Z" opacity="0.2"/>
    <path d="M112,13H83.256L32.179,96H112a12.035,12.035,0,0,0,12-12V25A12.035,12.035,0,0,0,112,13Z" opacity="0.1"/>
  </g>
</svg>
