<svg xmlns="http://www.w3.org/2000/svg" width="52.408" height="48.539" viewBox="0 0 52.408 48.539"><g fill-rule="evenodd" clip-rule="evenodd"><path fill="#666" d="M0 0h47.066v47.065H0z"/><path fill="#FFCC01" d="M0 0h47.066v47.065H0z"/><path fill="#666" d="M23.672 23.67h23.395v23.396H23.672z"/><path fill="#D83B2B" d="M23.672 47.065H0l23.672-23.487z"/><path fill="#2BA950" d="M47.066 47.065L0 0h47.066z"/><path fill="#1E90F7" d="M23.58 23.578h23.486v23.487H23.58z"/><path opacity=".2" fill="#212121" d="M47.066 35.737h-2.302v-9.673h-7.092v9.673H28v7.09h9.672v4.238h7.092v-4.237h2.302z"/><path fill="#1E90F7" d="M47.066 0v23.67L23.58 0z"/><g fill="#D3D3D3"><path d="M35.646 22.105h7.09V48.54h-7.09z"/><path d="M25.975 31.776H52.41v7.092H25.974z"/></g></g></svg>