<svg xmlns="http://www.w3.org/2000/svg" width="47.509" height="43.324" viewBox="0 0 47.509 43.324"><path fill="#0084FD" d="M47.51 29.93V4a4 4 0 0 0-4-4H3.997A3.998 3.998 0 0 0 0 4v35.324c0 2.21 1.79 4 3.997 4h30.117L47.51 29.93z"/><path fill="#74C4FF" d="M34.114 29.93v13.394L47.51 29.93z"/><g fill="#FFF"><path d="M15.957 22.568h.843c.54 0 1.058-.077 1.547-.23a3.91 3.91 0 0 0 1.295-.678c.37-.296.665-.67.886-1.123.22-.45.332-.963.332-1.538 0-1.17-.36-2.047-1.083-2.63-.722-.585-1.624-.877-2.706-.877-.683 0-1.278.126-1.79.383-.51.257-.932.602-1.262 1.03-.332.432-.577.936-.738 1.51a6.717 6.717 0 0 0-.24 1.814h-2.557c.04-1.047.206-2 .497-2.862.29-.86.706-1.6 1.247-2.214a5.608 5.608 0 0 1 2.03-1.446c.813-.35 1.75-.522 2.813-.522.922 0 1.78.117 2.57.354a5.88 5.88 0 0 1 2.06 1.06 4.866 4.866 0 0 1 1.37 1.815c.33.74.496 1.612.496 2.615 0 .986-.282 1.857-.842 2.616a5.43 5.43 0 0 1-2.106 1.724v.06c1.304.288 2.27.913 2.902 1.878.632.965.948 2.103.948 3.414 0 1.088-.195 2.047-.587 2.877a6 6 0 0 1-1.578 2.075 6.645 6.645 0 0 1-2.33 1.246 9.54 9.54 0 0 1-2.843.417c-1.083 0-2.066-.153-2.947-.46-.884-.31-1.635-.766-2.257-1.37-.622-.605-1.1-1.35-1.43-2.23-.33-.883-.485-1.887-.465-3.015h2.557c.04 1.414.44 2.568 1.204 3.46.763.893 1.875 1.34 3.34 1.34.62 0 1.212-.097 1.773-.293a4.565 4.565 0 0 0 1.474-.83c.42-.36.757-.802 1.007-1.324.252-.524.377-1.113.377-1.77 0-.678-.12-1.277-.36-1.8a3.993 3.993 0 0 0-.963-1.324 3.894 3.894 0 0 0-1.428-.8 5.957 5.957 0 0 0-1.79-.26c-.543 0-1.054.03-1.534.09V22.54c.1.02.19.028.27.028zM31.558 34.996V19.368h-5.534v-2.092c.724 0 1.424-.056 2.107-.17a5.65 5.65 0 0 0 1.85-.63 4.236 4.236 0 0 0 1.398-1.262c.38-.533.64-1.21.78-2.03h1.956v21.812h-2.556z"/></g><path opacity=".25" fill="#010000" d="M34.114 43.324V29.93L20.72 43.324z"/><g fill="#FFF"><circle cx="9.383" cy="7.275" r="2.035"/><circle cx="38.126" cy="7.275" r="2.035"/></g></svg>