<svg xmlns="http://www.w3.org/2000/svg" width="43.65" height="53.953" viewBox="0 0 43.65 53.953"><path fill="#0AA15A" d="M43.65 12.305v37.973a3.677 3.677 0 0 1-3.675 3.676H3.673A3.675 3.675 0 0 1 0 50.277V3.675A3.672 3.672 0 0 1 3.673 0H31.34l12.31 12.305z"/><path fill="#77CEA6" d="M31.34 12.305V0l12.31 12.305z"/><path opacity=".25" fill="#010000" d="M43.6 12.354V24.66L31.295 12.353z"/><g fill="#FFF"><path d="M6.246 18.132H37.4v2.07H6.247zM6.246 25.242H37.4v2.07H6.247zM6.246 32.355H37.4v2.068H6.247zM6.246 39.722H37.4v2.07H6.247z"/><path d="M6.246 18.132h2.068v23.66H6.246zM15.428 18.132h2.066v23.66h-2.066zM35.335 18.132H37.4v23.66h-2.065z"/></g></svg>