<svg xmlns="http://www.w3.org/2000/svg" width="43.65" height="53.953" viewBox="0 0 43.65 53.953"><path fill="#2186FA" d="M43.65 12.305v37.972a3.678 3.678 0 0 1-3.676 3.677H3.672A3.676 3.676 0 0 1 0 50.276V3.674A3.67 3.67 0 0 1 3.672 0h27.666L43.65 12.305z"/><path fill="#9BC5FF" d="M31.338 12.305V0L43.65 12.305z"/><path opacity=".25" fill="#010000" d="M43.6 12.354v12.304L31.294 12.354z"/><g fill="#FFF"><path d="M7.325 17.785h29v3.668h-29zM7.325 24.62h29v3.665h-29zM7.325 31.785h29v3.667h-29zM7.325 39.45h16.667v3.67H7.325z"/></g></svg>