<svg xmlns="http://www.w3.org/2000/svg" width="47.531" height="34.451" viewBox="0 0 47.531 34.451"><path fill="#E24E43" d="M47.53 30.597a3.853 3.853 0 0 1-3.853 3.854H3.854A3.854 3.854 0 0 1 0 30.598V3.877A3.853 3.853 0 0 1 3.854.025h39.824a3.853 3.853 0 0 1 3.854 3.854v26.72z"/><path fill="#EFEBDE" d="M3.562 0l20.204 14.8L43.97 0zM5.555 34.45H41.98L5.554 8.608z"/><path fill="#EFEBDE" d="M41.98 34.45H5.554L41.98 8.608z"/><path opacity=".26" fill="#060000" d="M47.53 30.597v-25.9l-23.764 16.83L41.903 34.45h1.775a3.853 3.853 0 0 0 3.853-3.853zM5.686 33.746v.442l17.79-12.354-.09-.06s-7.65 5.037-8.478 5.597c-.828.56-9.222 6.376-9.222 6.376z"/></svg>