<svg xmlns="http://www.w3.org/2000/svg" width="43.65" height="53.953" viewBox="0 0 43.65 53.953"><path fill="#FCC500" d="M43.65 12.305v37.972a3.678 3.678 0 0 1-3.676 3.677H3.672A3.676 3.676 0 0 1 0 50.276V3.674A3.67 3.67 0 0 1 3.672 0h27.666L43.65 12.305z"/><path fill="#FFE067" d="M31.338 12.305V0L43.65 12.305z"/><path opacity=".1" fill="#010000" d="M43.6 12.354v12.304L31.294 12.354z"/><g fill="#FFF"><path d="M26.95 12.744H8.825a2 2 0 0 0-2 2v16.75a2 2 0 0 0 2 2H26.95a2 2 0 0 0 2-2v-16.75a2 2 0 0 0-2-2zm-.062 16.875h-18V16.993h18V29.62z"/><path d="M34.825 21.12h-6.72v4.25h6.657v12.624h-18V32.62H14.7v7.25a2 2 0 0 0 2 2h18.125a2 2 0 0 0 2-2V23.12a2 2 0 0 0-2-2z"/></g></svg>