<svg xmlns="http://www.w3.org/2000/svg" width="49.5" height="43.667" viewBox="0 0 49.5 43.667"><path fill="#E6E3D4" d="M49.5 40.667a3 3 0 0 1-3 3H3a3 3 0 0 1-3-3V3a3 3 0 0 1 3-3h43.5a3 3 0 0 1 3 3v37.667z"/><path fill="#7675D6" d="M49.5 9.167V3a3 3 0 0 0-3-3H3a3 3 0 0 0-3 3v6.167h49.5z"/><g fill="#FFF"><circle cx="5.938" cy="4.896" r="2"/><circle cx="11.438" cy="4.896" r="2"/></g><path fill="#C6C3B6" d="M4.334 13.5h40.832v8.667H4.334zM4.334 23.667h30.082v16.666H4.334zM36.168 23.667h8.998v16.666h-8.998z"/></svg>