<svg xmlns="http://www.w3.org/2000/svg" width="43.045" height="50.185" viewBox="0 0 43.045 50.185"><g fill-rule="evenodd" clip-rule="evenodd"><circle fill="#FFF" cx="21.522" cy="21.506" r="14.59"/><path fill="#52A93E" d="M42.71 17.7c-.762-4.15-2.58-7.777-5.45-10.873a21.05 21.05 0 0 0-4.07-3.408A21.353 21.353 0 0 0 24.053.134c-.404-.047-.81-.04-1.207-.135H20c-.03.072-.098.043-.15.05a22.26 22.26 0 0 0-2.184.284c-5.288 1-9.63 3.598-12.99 7.792C1.914 11.573.39 15.53.063 19.94a21.503 21.503 0 0 0 .463 6.345 20.58 20.58 0 0 0 1.566 4.49c.063.123.124.244.186.37 1.147 2.258 2.624 4.27 4.474 6.01a21.152 21.152 0 0 0 3.145 2.46c3.45 2.19 7.223 3.344 11.317 3.396.25.002.32.064.32.32-.013 2.193-.01 4.384-.007 6.576 0 .084.006.172.012.278.07-.03.113-.046.156-.065 4.118-1.936 7.898-4.38 11.268-7.444a33.15 33.15 0 0 0 1.93-1.912c.265-.287.526-.574.793-.857.408-.438.764-.93 1.147-1.387.445-.532.846-1.1 1.24-1.665a27.988 27.988 0 0 0 2.305-3.952c.33-.7.645-1.404.926-2.125.01-.014.022-.026.028-.043a25.767 25.767 0 0 0 1.506-6.12c.09-.728.148-1.467.188-2.2a20.578 20.578 0 0 0-.312-4.715zM14.99 30.897c-.37.098-.745.155-1.123.213-.29.04-.48-.12-.59-.384.003-.808.003-1.62.003-2.43.015-.237-.082-.49.11-.703a.656.656 0 0 1 .346-.212c.424-.107.854-.19 1.24-.424.712-.423 1.154-1.033 1.35-1.832l.09-.38c-1.708-.002-3.414-.007-5.124-.008a1.853 1.853 0 0 1-.438-.046c-.434-.123-.766-.52-.766-.97-.005-2.58 0-5.16 0-7.742-.032-.413 0-.803.35-1.096a.97.97 0 0 1 .643-.253c2.512-.007 5.022 0 7.534-.007.664 0 1.213.672 1.002 1.326.05.123.04.255.04.383 0 2.813.02 5.628-.003 8.442-.014 1.864-.74 3.437-2.108 4.71-.072.067-.14.136-.21.202-.71.545-1.477.973-2.345 1.21zm13.89-.182l-.094.03a.745.745 0 0 0-.055.03c-.486.135-.978.25-1.476.326-.385.055-.673-.16-.68-.547-.002-.27-.004-.537-.004-.807.002-.483.008-.967.012-1.45 0-.106-.007-.212-.007-.318.003-.37.144-.525.604-.632.583-.135 1.134-.323 1.59-.745.546-.508.822-1.14.948-1.854-1.578-.003-3.157-.008-4.732-.012-.172 0-.346.003-.516 0-.643-.01-1.085-.456-1.083-1.104 0-2.55 0-5.1.003-7.65l-.002-.072c-.05-.477.088-.867.512-1.133a.973.973 0 0 1 .533-.145c2.494-.006 4.986 0 7.482-.006.664 0 1.214.672 1.002 1.326.05.124.04.256.04.382 0 2.818.002 5.64 0 8.456-.003 2.52-1.58 4.875-3.907 5.842-.055.026-.112.058-.17.085z"/></g></svg>