<svg xmlns="http://www.w3.org/2000/svg" width="60" height="60" viewBox="0 0 60 60">
  <circle cx="30" cy="30" r="26" fill="#4288c5"/>
  <path d="M34.282,33.642H27.155v2.487H37.727a.654.654,0,0,1,.67.67v2.679a.654.654,0,0,1-.67.67H27.155v4.018a.654.654,0,0,1-.67.67H22.993a.654.654,0,0,1-.67-.67V40.147H17.636a.654.654,0,0,1-.67-.67V36.8a.654.654,0,0,1,.67-.67h4.688V33.642H17.636a.654.654,0,0,1-.67-.67V29.863a.654.654,0,0,1,.67-.67h4.688V16.038a.654.654,0,0,1,.67-.67H34.282c5.6,0,9.471,3.779,9.471,9.137S39.831,33.642,34.282,33.642Zm-.431-13.824h-6.7v9.376h6.7c2.966,0,4.927-1.866,4.927-4.688A4.561,4.561,0,0,0,33.852,19.817Z" fill="#fff"/>
</svg>
