<svg xmlns="http://www.w3.org/2000/svg" width="60" height="60" viewBox="0 0 60 60"><title>секреты spywords 1</title><path d="M8.037,40.925A23.979,23.979,0,1,1,41.971,7.037a23.974,23.974,0,0,1-.046,33.888,23.918,23.918,0,0,1-33.888,0Zm4.634-29.254a17.432,17.432,0,1,0,12.31-5.09A17.309,17.309,0,0,0,12.671,11.671Z" fill="#9dd6ea"/><path d="M35.027,45l11.342,12.87a6.3,6.3,0,0,0,9.444-8.333L44.471,36.666" fill="#9dd6ea"/><path d="M14.177,34.511H36.121c.784,0,.392-1.176.392-1.176s-1.371-3.918-1.763-4.7a2.222,2.222,0,0,0-1.176-1.176h-.392c-.98-.392-3.723-1.567-4.9-2.155h0a.684.684,0,0,1-.392-.2h0V23.931c0-.784,1.371-1.959,1.567-3.331h0a.52.52,0,0,0,.588-.588V18.249c0-.2-.392-.588-.392-.588V15.31c.392-2.351-1.763-4.31-4.506-4.31a4.628,4.628,0,0,0-4.9,4.31v2.351c0,.2-.392.392-.392.588l.2,1.763a.626.626,0,0,0,.588.588h.2c.2,1.176-.588,2.155,1.371,2.939v1.567h0a.684.684,0,0,1-.392.2c-1.176.588-4.506,1.959-5.094,2.155h0a1.766,1.766,0,0,0-1.176,1.176c-.392.784-1.763,4.7-1.763,4.7S13.2,34.511,14.177,34.511Z" fill="#9dd6ea"/></svg>