<svg xmlns="http://www.w3.org/2000/svg" width="60" height="60" viewBox="0 0 60 60"><title>Альфа банк 3</title><path d="M23.579,53.862c0,.933-1.085,1.685-2.416,1.68s-2.409-.774-2.4-1.706,1.085-1.685,2.414-1.676,2.41.771,2.4,1.7Z" fill="#fff"/><path d="M23.454,48.271c0,.937-1.087,1.689-2.416,1.68s-2.41-.771-2.4-1.706,1.085-1.685,2.416-1.68,2.405.771,2.4,1.705Z" fill="#fff"/><path d="M23.521,43.282c0,.933-1.085,1.685-2.416,1.68s-2.409-.773-2.4-1.706,1.085-1.685,2.416-1.68,2.409.773,2.4,1.706Z" fill="#fff"/><path d="M57.288,45.469l-1.172-.313a8.807,8.807,0,0,0-.622-2.452l.894-.842c.32-.234.471-.646.2-.863l-2.1-2.879c-.131-.282-.619-.227-.939.007l-1.063.663a9.345,9.345,0,0,0-2.118-1.245l.107-1.248c.048-.45-.185-.77-.43-.743l-3.669-.527a.736.736,0,0,0-.678.571l-.313,1.172a8.807,8.807,0,0,0-2.452.622l-.842-.894c-.234-.32-.646-.471-.863-.2L38.31,38.5c-.282.131-.227.619.007.939l.663,1.063a9.345,9.345,0,0,0-1.245,2.118l-1.21-.21c-.45-.048-.77.185-.743.43l-.527,3.669a.736.736,0,0,0,.571.678L37,47.5a8.807,8.807,0,0,0,.622,2.452l-.894.842c-.32.234-.471.646-.2.863l2.207,2.917c.131.282.619.227.939-.007l1.063-.663a9.345,9.345,0,0,0,2.118,1.245L42.744,56.4c-.048.45.185.77.43.743l3.669.527a.736.736,0,0,0,.678-.571l.313-1.172a8.807,8.807,0,0,0,2.452-.622l.842.894c.234.32.646.471.863.2l2.917-2.207c.282-.131.227-.619-.007-.939l-.663-1.063a9.345,9.345,0,0,0,1.245-2.118l1.248.107c.45.048.77-.185.743-.43L58,46.081A.759.759,0,0,0,57.288,45.469ZM46.067,49.895A3.814,3.814,0,1,1,50.4,46.688,4.017,4.017,0,0,1,46.067,49.895Z" fill="#ef3124"/><path d="M35.074,37.434a22.939,22.939,0,0,0,3.305-3.585l2.345.626a1.272,1.272,0,0,0,1.719-.539l2.46-6.7a1.355,1.355,0,0,0-.962-1.524l-2.194-1.039a18.471,18.471,0,0,0-.2-4.872l2.088-1.224A1.255,1.255,0,0,0,44.447,17l-3-6.486a1.255,1.255,0,0,0-1.726-.4l-2.283.8a22.938,22.938,0,0,0-3.585-3.305l.626-2.345a1.272,1.272,0,0,0-.539-1.719l-6.808-2.5a1.355,1.355,0,0,0-1.524.962L24.565,4.2a18.471,18.471,0,0,0-4.872.2l-1.12-2.05A1.255,1.255,0,0,0,17,1.54l-6.486,3a1.255,1.255,0,0,0-.4,1.726l.8,2.283a22.938,22.938,0,0,0-3.305,3.585l-2.345-.626a1.272,1.272,0,0,0-1.719.539l-2.5,6.808a1.355,1.355,0,0,0,.962,1.524L4.2,21.422a18.471,18.471,0,0,0,.2,4.872L2.314,27.518A1.255,1.255,0,0,0,1.5,29.093l3,6.486a1.255,1.255,0,0,0,1.726.4l2.283-.8A22.939,22.939,0,0,0,12.1,38.483l-.626,2.345a1.272,1.272,0,0,0,.539,1.719l6.808,2.5a1.355,1.355,0,0,0,1.524-.962l1.039-2.194a18.471,18.471,0,0,0,4.872-.2l1.224,2.088a1.255,1.255,0,0,0,1.575.812l6.486-3a1.255,1.255,0,0,0,.4-1.726ZM20.641,29.562a7.471,7.471,0,1,1,9.588-4.44A7.479,7.479,0,0,1,20.641,29.562Z" fill="#ef3124"/></svg>