<svg xmlns="http://www.w3.org/2000/svg" width="60" height="60" viewBox="0 0 60 60"><title>Альфа банк 1</title><path d="M32.286,51.561c-.7.069-1.42.106-2.141.106A21.531,21.531,0,0,1,18.513,12.006c-.423-.418-.839-.839-1.282-1.242-.935-.852-1.78-1.736-2.6-2.638A26.921,26.921,0,0,0,34.094,56.762C33.451,55.044,32.854,53.308,32.286,51.561Z" fill="#ef3124"/><path d="M51.693,30.118a21.456,21.456,0,0,1-6.959,15.821c1.234,1.177,2.471,2.347,3.736,3.475.066.06.136.114.2.171a26.877,26.877,0,0,0-18.528-46.4c-.33,0-.658.014-.985.025.222,1.785.4,3.58.588,5.371.134,0,.263-.011.4-.011A21.573,21.573,0,0,1,51.693,30.118Z" fill="#ef3124"/><polygon points="32.322 12.307 21.663 6.153 32.322 0 32.322 12.307" fill="#ef3124"/><polygon points="32.322 47.693 42.979 53.847 32.322 60 32.322 47.693" fill="#ef3124"/><circle cx="16.647" cy="9.984" r="2.726" fill="#ef3124"/><circle cx="46.824" cy="47.692" r="2.725" fill="#ef3124"/><path d="M34.135,33.481h-6.12v2.136h9.077a.561.561,0,0,1,.575.575v2.3a.561.561,0,0,1-.575.575H28.016v3.45a.561.561,0,0,1-.575.575h-3a.561.561,0,0,1-.575-.575v-3.45H19.842a.561.561,0,0,1-.575-.575v-2.3a.561.561,0,0,1,.575-.575h4.025V33.481H19.842a.561.561,0,0,1-.575-.575v-2.67a.561.561,0,0,1,.575-.575h4.025V18.367a.561.561,0,0,1,.575-.575h9.693c4.805,0,8.132,3.245,8.132,7.845S38.9,33.481,34.135,33.481Zm-.37-11.87h-5.75v8.05h5.75A3.894,3.894,0,0,0,38,25.637,3.916,3.916,0,0,0,33.766,21.612Z" fill="#ef3124"/></svg>