<svg xmlns="http://www.w3.org/2000/svg" width="60" height="60" viewBox="0 0 60 60"><title>Альфа банк 6</title><path d="M30,1A29,29,0,1,0,59,30,29,29,0,0,0,30,1ZM5.138,31.775H15.284a51.653,51.653,0,0,0,.977,8.574H7.321A24.808,24.808,0,0,1,5.138,31.775ZM32.022,15.281V5.894c2.7,1.159,5.041,4.588,6.629,9.387Zm7.715,4.044a50.074,50.074,0,0,1,1.029,8.407H32.023V19.325ZM27.977,5.894v9.387H21.346C22.934,10.482,25.279,7.053,27.977,5.894Zm0,13.431v8.407H19.235a50.088,50.088,0,0,1,1.024-8.407ZM15.3,27.732H5.176a24.8,24.8,0,0,1,2.292-8.407h8.859A51.5,51.5,0,0,0,15.3,27.732Zm3.913,4.043h8.761v8.574H20.193A50.853,50.853,0,0,1,19.216,31.775Zm8.761,12.617v9.714c-2.761-1.187-5.148-4.747-6.736-9.714Zm4.045,9.714V44.392h6.734C37.165,49.359,34.783,52.919,32.022,54.106Zm0-13.757V31.775h8.756a50.867,50.867,0,0,1-.972,8.574Zm12.691-8.574H54.859a24.8,24.8,0,0,1-2.18,8.574H43.74A52.185,52.185,0,0,0,44.713,31.775ZM44.7,27.732a52.022,52.022,0,0,0-1.024-8.407H52.53a24.746,24.746,0,0,1,2.29,8.407Zm5.418-12.452H42.626A29.092,29.092,0,0,0,38.35,6.509,24.971,24.971,0,0,1,50.115,15.281ZM21.65,6.508a29.109,29.109,0,0,0-4.279,8.772H9.883A24.969,24.969,0,0,1,21.65,6.508Zm-12,37.884h7.621a29.541,29.541,0,0,0,4.372,9.1A24.971,24.971,0,0,1,9.651,44.392Zm28.7,9.1a29.434,29.434,0,0,0,4.377-9.1h7.621A24.976,24.976,0,0,1,38.35,53.491Z" fill="#ef3124"/></svg>