<svg xmlns="http://www.w3.org/2000/svg" width="60" height="60" viewBox="0 0 60 60"><title>Альфа банк 7</title><rect y="9.5" width="60" height="42.162" rx="4.865" ry="4.865" fill="#ef3124"/><rect y="18.419" width="60" height="11.351" fill="#333"/><path d="M37.155,40.7H4.723a1.479,1.479,0,0,1-1.474-1.474v-5.16A1.479,1.479,0,0,1,4.723,32.59H37.155a1.479,1.479,0,0,1,1.474,1.474v5.16A1.479,1.479,0,0,1,37.155,40.7Z" fill="#ededed" opacity="0.7"/><path d="M52.353,40.7H42.034a1.479,1.479,0,0,1-1.474-1.474v-5.16a1.479,1.479,0,0,1,1.474-1.474H52.353a1.479,1.479,0,0,1,1.474,1.474v5.16A1.479,1.479,0,0,1,52.353,40.7Z" fill="#ededed"/></svg>