<svg xmlns="http://www.w3.org/2000/svg" width="60" height="60" viewBox="0 0 60 60"><title>кассы 3 копия</title><rect x="4" y="22" width="52" height="16" rx="4" ry="4" fill="#4288c5"/><rect x="4" y="4" width="52" height="16" rx="4" ry="4" fill="#4288c5"/><rect x="4" y="40" width="52" height="16" rx="4" ry="4" fill="#4288c5"/><polygon points="21.334 9.073 19.011 6.949 13.989 12.457 11.15 9.851 9.026 12.174 14.103 16.809 21.334 9.073" fill="#fff"/><polygon points="21.334 27.194 19.011 25.07 13.989 30.578 11.15 27.972 9.026 30.295 14.103 34.93 21.334 27.194" fill="#fff"/><polygon points="21.334 45.194 19.011 43.07 13.989 48.578 11.15 45.972 9.026 48.295 14.103 52.93 21.334 45.194" fill="#fff"/></svg>