<svg xmlns="http://www.w3.org/2000/svg" width="60" height="60" viewBox="0 0 60 60"><title>кассы 2</title><polygon points="55.335 55.232 52.137 60.357 48.369 55.232 47.535 55.232 43.561 60.591 39.624 55.232 39.111 55.232 35.004 60.864 30.879 55.232 30.696 55.232 27.398 60.572 23.487 55.232 22.861 55.232 18.811 60.786 14.744 55.232 14.431 55.232 10.224 61 6 55.232 6 1 55.535 1 55.535 55.232 55.335 55.232" fill="#4288c5"/><path d="M35.04,32.049H27.918v2.485H38.481a.653.653,0,0,1,.669.669V37.88a.653.653,0,0,1-.669.669H27.918v4.015a.653.653,0,0,1-.669.669H23.76a.653.653,0,0,1-.669-.669V38.549H18.407a.653.653,0,0,1-.669-.669V35.2a.653.653,0,0,1,.669-.669h4.684V32.049H18.407a.653.653,0,0,1-.669-.669V28.274a.653.653,0,0,1,.669-.669h4.684V14.461a.653.653,0,0,1,.669-.669H35.04c5.592,0,9.463,3.776,9.463,9.129S40.584,32.049,35.04,32.049Zm-.43-13.813H27.918V27.6H34.61c2.963,0,4.923-1.864,4.923-4.684A4.557,4.557,0,0,0,34.61,18.237Z" fill="#fff"/></svg>