<svg xmlns="http://www.w3.org/2000/svg" width="60" height="60" viewBox="0 0 60 60"><title>Альфа банк 5</title><polygon points="55.335 54.232 52.137 59.357 48.369 54.232 47.535 54.232 43.561 59.591 39.624 54.232 39.111 54.232 35.004 59.864 30.879 54.232 30.696 54.232 27.398 59.572 23.487 54.232 22.861 54.232 18.811 59.786 14.744 54.232 14.431 54.232 10.224 60 6 54.232 6 0 55.535 0 55.535 54.232 55.335 54.232" fill="#ef3124"/><path d="M35.04,31.049H27.918v2.485H38.481a.653.653,0,0,1,.669.669V36.88a.653.653,0,0,1-.669.669H27.918v4.015a.653.653,0,0,1-.669.669H23.76a.653.653,0,0,1-.669-.669V37.549H18.407a.653.653,0,0,1-.669-.669V34.2a.653.653,0,0,1,.669-.669h4.684V31.049H18.407a.653.653,0,0,1-.669-.669V27.274a.653.653,0,0,1,.669-.669h4.684V13.461a.653.653,0,0,1,.669-.669H35.04c5.592,0,9.463,3.776,9.463,9.129S40.584,31.049,35.04,31.049Zm-.43-13.813H27.918V26.6H34.61c2.963,0,4.923-1.864,4.923-4.684A4.557,4.557,0,0,0,34.61,17.237Z" fill="#fff"/></svg>