<svg xmlns="http://www.w3.org/2000/svg" xmlns:xlink="http://www.w3.org/1999/xlink" width="120" height="120" viewBox="0 0 120 120"><defs><linearGradient id="a" x1="23.09" y1="54.33" x2="72.081" y2="103.321" gradientUnits="userSpaceOnUse"><stop offset="0" stop-color="#d32420"/><stop offset="1" stop-color="#7c4594"/></linearGradient><clipPath id="b"><rect x="14.709" y="32.383" width="40.525" height="67.656" fill="none"/></clipPath></defs><title>Альфа банк в блок</title><rect x="46.279" y="21.277" width="46.113" height="77.006" rx="8" ry="8" transform="translate(37.256 -25.964) rotate(28.72)" fill="#464646"/><path d="M73.458,86.57c-.7,1.261-2.719,1.477-4.518.483s-2.688-2.834-1.989-4.094,2.719-1.477,4.518-.483,2.685,2.828,1.99,4.094Z" fill="#fff"/><path d="M62.155,80.886c-.7,1.262-2.719,1.478-4.518.483s-2.685-2.828-1.99-4.093,2.72-1.476,4.518-.483,2.688,2.834,1.99,4.094Z" fill="#fff"/><path d="M51.809,75.389c-.7,1.262-2.719,1.477-4.518.483S44.6,73.037,45.3,71.778s2.719-1.477,4.513-.479,2.691,2.832,1.992,4.092Z" fill="#fff"/><path d="M70.049,93.849c-.7,1.262-2.719,1.477-4.513.479s-2.689-2.834-1.99-4.094,2.724-1.482,4.518-.483,2.685,2.828,1.987,4.1Z" fill="#27c66d"/><path d="M58.747,88.165c-.7,1.261-2.719,1.477-4.513.479s-2.686-2.827-1.99-4.093,2.719-1.477,4.518-.483,2.689,2.834,1.99,4.094Z" fill="#f2cf49"/><path d="M48.016,82.1c-.7,1.262-2.719,1.477-4.518.483s-2.689-2.834-1.99-4.094,2.719-1.477,4.518-.483S48.715,80.836,48.016,82.1Z" fill="#f83c3a"/><path d="M77.422,79.748c-.7,1.266-2.719,1.477-4.518.483s-2.685-2.828-1.988-4.095,2.721-1.474,4.516-.473,2.685,2.828,1.99,4.094Z" fill="#fff"/><path d="M66.52,73.795c-.7,1.261-2.719,1.477-4.518.483s-2.69-2.833-1.987-4.1,2.719-1.477,4.513-.479,2.69,2.833,1.988,4.095Z" fill="#fff"/><path d="M55.789,67.726c-.7,1.266-2.725,1.481-4.518.483s-2.691-2.833-1.99-4.093S52,62.639,53.8,63.633s2.685,2.828,1.991,4.093Z" fill="#fff"/><path d="M81.329,72.965c-.7,1.262-2.719,1.478-4.518.483s-2.689-2.834-1.988-4.095,2.719-1.478,4.513-.479,2.69,2.833,1.99,4.093Z" fill="#fff"/><path d="M70.542,66.934c-.7,1.265-2.725,1.48-4.518.483s-2.686-2.827-1.989-4.094,2.719-1.477,4.513-.479,2.69,2.833,1.992,4.092Z" fill="#fff"/><path d="M59.582,61.019c-.7,1.262-2.72,1.476-4.518.483s-2.689-2.834-1.989-4.094,2.719-1.477,4.518-.483,2.688,2.834,1.99,4.094Z" fill="#fff"/><rect x="65.86" y="31.459" width="35.488" height="5.22" rx="2.41" ry="2.41" transform="translate(26.657 -35.983) rotate(28.72)" fill="#575756"/><polygon points="110.586 16.721 83.536 1.699 69.736 27.602 96.792 42.62 110.586 16.721" fill="#ffe4c0"/><polygon points="69.736 27.602 96.792 42.62 110.586 16.721 69.736 27.602" opacity="0.05" style="isolation:isolate"/><polygon points="97.623 40.399 70.568 25.381 69.736 27.602 96.792 42.62 97.623 40.399" opacity="0.2" style="isolation:isolate"/><polygon points="87.294 0 87.888 4.585 83.251 1.891 87.294 0" fill="#ffe4c0"/><polygon points="91.932 2.694 92.526 7.278 87.888 4.585 91.932 2.694" fill="#ffe4c0"/><polygon points="96.569 5.387 96.778 9.4 92.526 7.278 96.569 5.387" fill="#ffe4c0"/><polygon points="100.822 7.509 101.416 12.094 96.778 9.4 100.822 7.509" fill="#ffe4c0"/><polygon points="105.425 10.226 106.053 14.787 101.416 12.094 105.425 10.226" fill="#ffe4c0"/><polygon points="110.051 12.927 110.277 16.928 106.053 14.787 110.051 12.927" fill="#ffe4c0"/><g opacity="0.4"><path d="M98.749,31.334a.947.947,0,0,1-1.3.371L78.062,20.915a.957.957,0,1,1,.928-1.675L98.5,30.2a.963.963,0,0,1,.373,1.3Z"/></g><g opacity="0.4"><path d="M100.853,27.425a.958.958,0,0,1-1.3.376L80.162,17.012a.959.959,0,0,1-.373-1.3.949.949,0,0,1,1.3-.37l19.391,10.79a.963.963,0,0,1,.372,1.3Z"/></g><g opacity="0.4"><path d="M102.9,23.555a.949.949,0,0,1-1.3.37L82.213,13.136a.958.958,0,1,1,.927-1.676l19.391,10.79a.961.961,0,0,1,.371,1.3Z"/></g><g opacity="0.4"><path d="M104.947,19.685a.947.947,0,0,1-1.3.372L84.261,9.267A.955.955,0,1,1,85.185,7.6l19.391,10.79a.959.959,0,0,1,.374,1.3Z"/></g><rect x="57.925" y="36.539" width="35.488" height="24.025" rx="3" ry="3" transform="translate(32.64 -30.388) rotate(28.72)" fill="#ededed"/><rect x="63.503" y="41.141" width="30.646" height="3.519" rx="1.624" ry="1.624" transform="translate(30.312 -32.601) rotate(28.72)" opacity="0.1"/><rect x="60.34" y="46.862" width="30.241" height="3.519" rx="1.624" ry="1.624" transform="translate(32.648 -30.28) rotate(28.72)" opacity="0.1"/><rect x="57.333" y="52.349" width="30.241" height="3.519" rx="1.624" ry="1.624" transform="translate(34.914 -28.16) rotate(28.72)" opacity="0.1"/><ellipse cx="35.595" cy="111.12" rx="35.595" ry="6.339" opacity="0.1"/><path d="M60.033,105.381a7.435,7.435,0,0,1-7.435,7.436H17.346a7.433,7.433,0,0,1-7.436-7.436V27.039A7.436,7.436,0,0,1,17.346,19.6H52.6a7.437,7.437,0,0,1,7.435,7.436Z" fill="#464646"/><rect x="14.709" y="32.383" width="40.525" height="67.656" fill="url(#a)"/><circle cx="35.053" cy="106.357" r="3.562" fill="#bcbcbc"/><path d="M34.948,37.343c1.021,0,1.342.731,1.61,1.463.114.31,2.767,7.574,2.846,7.791a.153.153,0,0,1-.087.2l-1.548.6a.15.15,0,0,1-.19-.089c-.028-.075-.6-1.659-.664-1.837h-3.93l-.668,1.837a.147.147,0,0,1-.19.089l-1.549-.6a.154.154,0,0,1-.086-.2c.1-.272,2.71-7.419,2.843-7.791C33.594,38.085,33.926,37.343,34.948,37.343Zm-4.666,13a.15.15,0,0,0-.148.152v1.7a.15.15,0,0,0,.148.152h9.331a.15.15,0,0,0,.148-.152v-1.7a.15.15,0,0,0-.148-.152H30.282m4.657-10.625-1.329,3.99h2.679l-1.333-3.99Z" fill="#fff"/><path d="M52.6,19.6H18.7C30.548,36.68,45.3,57.91,60.033,79.124V27.039A7.437,7.437,0,0,0,52.6,19.6Z" fill="#fff" fill-rule="evenodd" opacity="0.1"/><g clip-path="url(#b)"><polygon points="56.024 63.663 13.811 63.423 14.282 140.034 56.498 140.266 56.024 63.663" fill="#ffe4c0"/><polygon points="17.194 58.927 20.91 64.023 13.595 63.84 17.194 58.927" fill="#ffe4c0"/><polygon points="24.508 59.109 28.224 64.205 20.91 64.023 24.508 59.109" fill="#ffe4c0"/><polygon points="31.823 59.292 34.704 63.956 28.224 64.205 31.823 59.292" fill="#ffe4c0"/><polygon points="38.302 59.042 42.018 64.139 34.704 63.956 38.302 59.042" fill="#ffe4c0"/><polygon points="45.591 59.275 49.333 64.321 42.018 64.139 45.591 59.275" fill="#ffe4c0"/><polygon points="52.897 59.474 55.79 64.114 49.333 64.321 52.897 59.474" fill="#ffe4c0"/><g opacity="0.4"><path d="M51.441,117.251a1.292,1.292,0,0,1-1.307,1.293l-30.274-.2a1.306,1.306,0,1,1,.012-2.613l30.525.327a1.313,1.313,0,0,1,1.3,1.314Z"/></g><g opacity="0.4"><path d="M51.4,111.195a1.306,1.306,0,0,1-1.309,1.3l-30.274-.2a1.309,1.309,0,0,1-1.3-1.314,1.3,1.3,0,0,1,1.308-1.293l30.274.2a1.313,1.313,0,0,1,1.3,1.315Z"/></g><g opacity="0.4"><path d="M50.179,94.934A1.168,1.168,0,0,1,49,96.1l-27.311-.178a1.179,1.179,0,1,1,.01-2.357l27.311.178A1.183,1.183,0,0,1,50.18,94.93Z"/></g><g opacity="0.4"><path d="M50.1,89.546a1.165,1.165,0,0,1-1.178,1.167L21.61,90.536a1.176,1.176,0,1,1,.008-2.351l27.311.178A1.181,1.181,0,0,1,50.1,89.546Z"/></g><g opacity="0.4"><path d="M37.473,78.244l-4.085.059.018,1.427,6.016-.058a.407.407,0,0,1,.414.414l.009,1.541a.407.407,0,0,1-.414.413l-6.016.058.037,2.3a.407.407,0,0,1-.414.413l-1.945.032a.407.407,0,0,1-.414-.414l-.037-2.3-2.658.041a.407.407,0,0,1-.414-.414l-.009-1.541a.407.407,0,0,1,.414-.413l2.692-.027-.018-1.427-2.692.027a.407.407,0,0,1-.414-.414l-.023-1.783a.407.407,0,0,1,.414-.413l2.692-.027-.1-7.49a.407.407,0,0,1,.414-.413l6.42-.082a5.03,5.03,0,0,1,5.457,5.1A5.14,5.14,0,0,1,37.473,78.244Zm-.362-7.88-3.809.06.068,5.35,3.809-.06a2.564,2.564,0,0,0,2.746-2.723A2.517,2.517,0,0,0,37.111,70.364Z"/></g></g></svg>