<svg xmlns="http://www.w3.org/2000/svg" width="60" height="60" viewBox="0 0 60 60"><title>секреты spywords 2</title><path d="M1.038,28.513Q1,29.252,1,30a29,29,0,0,0,58,0q0-.748-.038-1.487ZM7.321,40.349a24.808,24.808,0,0,1-2.182-8.574H15.284a51.672,51.672,0,0,0,.977,8.574Zm2.33,4.043h7.621a29.54,29.54,0,0,0,4.372,9.1A24.971,24.971,0,0,1,9.651,44.392Zm18.326,9.714c-2.76-1.187-5.148-4.747-6.736-9.714h6.736Zm0-13.757H20.193a50.846,50.846,0,0,1-.977-8.574h8.761Zm4.045-8.574h8.756a50.86,50.86,0,0,1-.972,8.574H32.022Zm0,22.331V44.392h6.734C37.165,49.359,34.783,52.919,32.022,54.106Zm6.328-.615a29.433,29.433,0,0,0,4.377-9.1h7.621A24.975,24.975,0,0,1,38.35,53.491Zm5.39-13.142a52.2,52.2,0,0,0,.973-8.574H54.859a24.8,24.8,0,0,1-2.18,8.574Z" fill="#9dd6ea"/><rect x="24.5" y="12.792" width="10" height="15.721" fill="#9dd6ea"/><rect x="11.5" y="19.18" width="10" height="9.333" fill="#9dd6ea"/><rect x="37.5" y="2.623" width="10" height="25.89" fill="#9dd6ea"/></svg>