<svg xmlns="http://www.w3.org/2000/svg" width="60" height="60" viewBox="0 0 60 60">
  <g>
    <path d="M10.933,9.816a50.111,50.111,0,0,0-.191,11.09c.177,2.624.505,5.7,1.07,9.233a26.6,26.6,0,0,0,5.545,11.8A55,55,0,0,0,30.216,53.587,57.356,57.356,0,0,0,42.927,41.5a30.269,30.269,0,0,0,5.52-11.289A75.248,75.248,0,0,0,49.958,20.9c.692-7.287-.219-11.089-.219-11.089A31.091,31.091,0,0,1,38.816,8.267a50.592,50.592,0,0,1-8.637-3.98A63.658,63.658,0,0,1,20.624,8.52,31.777,31.777,0,0,1,10.933,9.816Z" fill="#fff"/>
    <path d="M30.292,59l-2.477-1.533a59.443,59.443,0,0,1-14.067-12.74A30.86,30.86,0,0,1,7.308,30.86c-.535-3.339-.911-6.584-1.117-9.647A53.646,53.646,0,0,1,6.445,9l.71-3.9,3.955.16A27.3,27.3,0,0,0,19.218,4.18,58.908,58.908,0,0,0,27.964.3L30.3-1,32.576.4a47.026,47.026,0,0,0,7.783,3.568,26.692,26.692,0,0,0,9.1,1.281l3.821-.233.893,3.723c.111.465,1.067,4.766.325,12.584a80.164,80.164,0,0,1-1.6,9.881,34.588,34.588,0,0,1-6.319,13.025A61.791,61.791,0,0,1,32.726,57.4ZM15.151,14.213c-.048,1.607-.034,3.742.144,6.386.188,2.786.532,5.753,1.023,8.818a21.952,21.952,0,0,0,4.649,9.729,48.736,48.736,0,0,0,9.168,8.831,51.87,51.87,0,0,0,9.138-9.208,25.613,25.613,0,0,0,4.721-9.553,71.058,71.058,0,0,0,1.421-8.749,47.668,47.668,0,0,0,.212-6.2,32.887,32.887,0,0,1-8.356-1.71,60.8,60.8,0,0,1-7.153-3.1,61.97,61.97,0,0,1-8.089,3.4A32.6,32.6,0,0,1,15.151,14.213Z" fill="#4288c5"/>
    <polygon points="38.775 20.519 27.941 32.753 22.664 26.904 19.459 29.92 28.004 39.519 42.215 23.511 38.775 20.519" fill="#4288c5"/>
  </g>
</svg>
