<svg xmlns="http://www.w3.org/2000/svg" width="60" height="60" viewBox="0 0 60 60"><title>секреты spywords 3</title><path d="M23.579,53.862c0,.933-1.085,1.685-2.416,1.68s-2.409-.774-2.4-1.706,1.085-1.685,2.414-1.676,2.41.771,2.4,1.7Z" fill="#fff"/><path d="M23.454,48.271c0,.937-1.087,1.689-2.416,1.68s-2.41-.771-2.4-1.706,1.085-1.685,2.416-1.68,2.405.771,2.4,1.705Z" fill="#fff"/><path d="M23.521,43.282c0,.933-1.085,1.685-2.416,1.68s-2.409-.773-2.4-1.706,1.085-1.685,2.416-1.68,2.409.773,2.4,1.706Z" fill="#fff"/><path d="M55.459,5.736A17.495,17.495,0,0,0,25.744,22.506l-3.968,3.6a.685.685,0,0,0,.056.96l1.019,1.123L15.82,34.574a.582.582,0,0,0-.134-.034L8.654,34.2a.6.6,0,0,0-.631.571L7.681,41.8a.562.562,0,0,0,.015.1L2.9,41.669a.442.442,0,0,0-.464.42L2.2,46.932.981,48.043a2.83,2.83,0,0,0-.923,2.726l2.119,8.4a1.637,1.637,0,0,0,2.272-.174l25.419-23.07.98,1.083a.693.693,0,0,0,.953.148l3.9-3.541A17.5,17.5,0,0,0,55.459,5.736ZM49.034,17.554a4.672,4.672,0,1,1,.321-6.6A4.671,4.671,0,0,1,49.034,17.554Z" fill="#9dd6ea"/></svg>