<svg xmlns="http://www.w3.org/2000/svg" width="60" height="60" viewBox="0 0 60 60"><title>Альфа банк 4</title><path d="M48.112,56.888A3.113,3.113,0,0,1,45,60H18.112A3.113,3.113,0,0,1,15,56.888V3.11A3.112,3.112,0,0,1,18.112,0H45a3.112,3.112,0,0,1,3.112,3.11Z" fill="#ef3124"/><rect x="18.249" y="9.076" width="26.615" height="41.423" fill="#fff"/><path d="M38.69,4.8a.961.961,0,0,1-.96.96H25.656a.961.961,0,0,1-.96-.96h0a.961.961,0,0,1,.96-.96H37.729a.96.96,0,0,1,.96.96Z" fill="#fff"/><circle cx="31.556" cy="55.083" r="2.881" fill="#fff"/><path d="M34.02,31.753H28.965v1.764h7.5a.464.464,0,0,1,.475.475v1.9a.464.464,0,0,1-.475.475h-7.5v2.85a.464.464,0,0,1-.475.475H26.013a.464.464,0,0,1-.475-.475v-2.85H22.213a.464.464,0,0,1-.475-.475v-1.9a.464.464,0,0,1,.475-.475h3.325V31.753H22.213a.464.464,0,0,1-.475-.475V29.072a.464.464,0,0,1,.475-.475h3.325v-9.33a.464.464,0,0,1,.475-.475H34.02c3.97,0,6.718,2.68,6.718,6.48A6.336,6.336,0,0,1,34.02,31.753Zm-.305-9.805h-4.75V28.6h4.75a3.329,3.329,0,1,0,0-6.65Z" fill="#ef3124"/></svg>