<svg xmlns="http://www.w3.org/2000/svg" width="60" height="60" viewBox="0 0 60 60"><title>Альфа банк 2</title><path d="M57.105,57.338A2.661,2.661,0,0,1,54.444,60H31.449a2.661,2.661,0,0,1-2.662-2.66V11.348a2.662,2.662,0,0,1,2.662-2.66H54.444a2.661,2.661,0,0,1,2.662,2.66Z" fill="#ef3124"/><rect x="31.565" y="16.449" width="22.761" height="35.425" fill="#fff"/><path d="M49.047,12.793a.821.821,0,0,1-.821.821H37.9a.821.821,0,0,1-.821-.821h0a.821.821,0,0,1,.821-.822H48.226a.823.823,0,0,1,.821.822Z" fill="#fff"/><circle cx="42.946" cy="55.794" r="2.464" fill="#fff"/><path d="M37.112,56.888A3.113,3.113,0,0,1,34,60H7.112A3.113,3.113,0,0,1,4,56.888V3.11A3.112,3.112,0,0,1,7.112,0H34a3.112,3.112,0,0,1,3.112,3.11Z" fill="#ef3124"/><rect x="7.249" y="9.076" width="26.615" height="41.423" fill="#fff"/><path d="M27.69,4.8a.961.961,0,0,1-.96.96H14.656a.961.961,0,0,1-.96-.96h0a.961.961,0,0,1,.96-.96H26.729a.96.96,0,0,1,.96.96Z" fill="#fff"/><circle cx="20.556" cy="55.083" r="2.881" fill="#fff"/></svg>