<svg xmlns="http://www.w3.org/2000/svg" width="60" height="60" viewBox="0 0 60 60"><title>кассы 1</title><path d="M23.579,53.862c0,.933-1.085,1.685-2.416,1.68s-2.409-.774-2.4-1.706,1.085-1.685,2.414-1.676,2.41.771,2.4,1.7Z" fill="#fff"/><path d="M23.454,48.271c0,.937-1.087,1.689-2.416,1.68s-2.41-.771-2.4-1.706,1.085-1.685,2.416-1.68,2.405.771,2.4,1.705Z" fill="#fff"/><path d="M23.521,43.282c0,.933-1.085,1.685-2.416,1.68s-2.409-.773-2.4-1.706,1.085-1.685,2.416-1.68,2.409.773,2.4,1.706Z" fill="#fff"/><circle cx="30" cy="30" r="26" fill="#4288c5"/><path d="M32.889,38.484H27q-.023-1.269-.023-1.548a10.3,10.3,0,0,1,.945-4.706,14.434,14.434,0,0,1,3.784-4.155A28.073,28.073,0,0,0,35.1,25.055a4.046,4.046,0,0,0,.854-2.493,4.206,4.206,0,0,0-1.512-3.242,5.883,5.883,0,0,0-4.071-1.349,6.176,6.176,0,0,0-4.132,1.408A7.462,7.462,0,0,0,23.96,23.67L18,22.93a9.874,9.874,0,0,1,3.522-7.013,12.456,12.456,0,0,1,8.568-2.884q5.588,0,8.886,2.92a8.838,8.838,0,0,1,3.3,6.795,7.464,7.464,0,0,1-1.212,4.061,26.585,26.585,0,0,1-5.179,5.214,9.866,9.866,0,0,0-2.551,2.747A9.178,9.178,0,0,0,32.889,38.484ZM27,47.205V40.72h6.485v6.485Z" fill="#fff"/></svg>