<svg xmlns="http://www.w3.org/2000/svg" width="179.064" height="47.075" viewBox="0 0 179.064 47.075"><path fill-rule="evenodd" clip-rule="evenodd" fill="#007AC9" d="M47.076 37.86a9.213 9.213 0 0 1-9.215 9.215H9.216A9.215 9.215 0 0 1 0 37.86V9.215C0 4.127 4.127 0 9.215 0H37.86a9.215 9.215 0 0 1 9.216 9.215V37.86z"/><g fill="#FFF"><path d="M36.89 26.428c1.21-3.68 3.103-11.748 3.817-14.62.633-2.538 1.046-3.484-.093-3.464-.955.016-3.39.248-3.893 2.257-.838 3.357-2.842 11.085-3.576 13.542-.807 2.7-2.523 3.263-4.686 3.284-1.883.014-2.92-.132-2.92-1.563-.6-.012-1.526-.005-1.953-.002-.426 0-1.352-.01-1.952.003 0 1.507-1.037 1.563-2.92 1.563-1.4 0-3.522-.26-4.3-2.824a747.436 747.436 0 0 1-2.59-8.86c-.697-2.446-2.885-2.582-3.934-2.587-1.155-.004-1.063.183-.397 2.587.665 2.404 2.125 7.77 3.145 11.36 1.02 3.595 4.524 4.767 6.76 4.767h3.776c1.715 0 2.32-.736 2.412-.97.093.234.753.97 2.47.97h3.66c3.11 0 6.002-1.89 7.173-5.442z"/><circle cx="17.857" cy="15.307" r="1.789"/><circle cx="23.67" cy="15.307" r="1.789"/><circle cx="29.558" cy="15.307" r="1.789"/><circle cx="17.857" cy="21.75" r="1.789"/><circle cx="23.67" cy="21.75" r="1.789"/><circle cx="29.558" cy="21.75" r="1.789"/><path d="M9.465 32.854a3.585 3.585 0 1 0 .002 7.168 3.585 3.585 0 0 0 0-7.168zm0 4.873a1.287 1.287 0 1 1 .004-2.574 1.287 1.287 0 0 1-.005 2.574zM37.746 32.808a3.587 3.587 0 0 0 0 7.173c1.98 0 3.585-1.608 3.585-3.584a3.587 3.587 0 0 0-3.584-3.588zm0 4.872z"/></g><g fill="#007AC9"><path d="M80.955 16.346c-1.858-1.802-4.092-2.714-6.644-2.714-2.633 0-4.92.97-6.79 2.88-1.867 1.91-2.812 4.093-2.812 6.803 0 2.682.945 5.017 2.813 6.938 1.87 1.926 4.515 2.904 7.15 2.904 1.725 0 3.425-.45 4.91-1.335 1.48-.887 2.407-1.922 3.265-3.443 0 0 .418-.496-.52-.496-.717 0-1.69.134-2.27.772-1.402 1.844-3.786 2.184-5.384 2.184-1.9 0-3.922-.673-5.3-2.002-1.245-1.2-2-2.667-2.245-4.362h15.12c.52 0 1.05-.024 1.365-.306.325-.29.318-.773.312-1.202-.004-.062-.004-.124-.004-.187-.112-2.575-1.11-4.634-2.963-6.434zm-13.876 5.98c.244-1.694 1.045-3.33 2.29-4.532 1.378-1.33 3.04-2.002 4.94-2.002 1.88 0 3.532.655 4.91 1.948 1.282 1.202 2.174 2.784 2.415 4.513l-14.556.073zM141.397 13.456c-.71 0-1.484.5-1.76 1.37l-4.874 15.392c-.05.17-.096.404-.13.474-.052-.07-.124-.325-.21-.545l-4.97-13.476c-.15-.368-.45-.827-1.15-.827-.673 0-1.1.46-1.232.894l-4.76 13.48c-.08.2-.144.33-.19.41a1.537 1.537 0 0 1-.157-.346l-4.917-15.565c-.28-.872-1.08-1.256-1.79-1.256-1.064 0-.716.582-.716.582l5.44 16.767c.47 1.51 1.37 1.903 2.04 1.903.114 0 0-.004.114-.004 1.048 0 1.62-.492 2.146-1.846l4.025-11.43 4.112 11.41c.518 1.37 1.168 1.865 2.218 1.865h.142c.644 0 1.428-.266 2.002-2.02l5.307-16.717.035-.113c0-.004.237-.404-.725-.404zM151.34 7.485c-1.056 0-1.688.632-1.688 1.688 0 1.06.632 1.69 1.687 1.69 1.06 0 1.69-.63 1.69-1.69 0-1.056-.63-1.688-1.69-1.688zM152.426 15.116c.01-.992-.374-1.1-1.68-1.1 0 0-.528 0-.528.547v17.47c0 1.148.652 1.2 1.69 1.2 0 0 .528-.028.528-.524V15.205l-.004-.09h-.006zM178.537 4.104c-1.078 0-1.387.118-1.387 1.297l-.002 11.71c-.135-.166-.392-.575-.518-.71-1.81-1.916-4.022-2.89-6.582-2.89-.033 0-.062.003-.093.004a.503.503 0 0 1-.13 0c-.033 0-.06-.003-.092-.003-2.56 0-4.774.974-6.58 2.89-1.795 1.91-2.71 4.248-2.71 6.955 0 2.68.91 5.012 2.708 6.93 1.806 1.93 4.02 2.91 6.584 2.91 2.635 0 4.922-.975 6.79-2.9.173-.178.496-.6.65-.785l-.012 2.703s.04.525.414.525c.96-.013 1.398 0 1.48-.978l.01-27.138c-.002 0 .03-.518-.53-.518zM177.21 23.44c-.004 2.045-.916 3.768-2.333 5.233-1.435 1.483-3.122 2.423-5.146 2.423-1.944 0-3.597-.846-4.967-2.324-1.358-1.473-2.067-3.416-2.067-5.478 0-2.09.752-3.826 2.112-5.284 1.1-1.174 2.776-2.312 5.055-2.312 2.268 0 4.458.952 5.703 2.636 1.247 1.41 1.643 3.344 1.643 5.078v.027zM106.097 28.368c-1.504 1.938-3.19 2.54-5.556 2.483-2.008-.047-3.722-.81-5.102-2.325-1.37-1.506-2.148-3.316-2.098-5.38.053-2.087.92-3.87 2.362-5.308 1.094-1.087 2.37-1.73 3.76-1.97.257-.043.527-.073.836-.087.06-.005.12-.005.176-.005h.074c.232-.005.463 0 .692.02l.167.015a6.99 6.99 0 0 1 1.765.438c1.217.48 1.888 1.008 2.747 1.89.385.362.602.67 1.496.7.314.01.682-.02 1.118-.008.916.022.282-.767.282-.767a9.592 9.592 0 0 0-4.227-3.75c-.605-.278-1.278-.49-2.06-.652a8.18 8.18 0 0 0-.372-.077c-.272-.044-.54-.068-.764-.087a1.454 1.454 0 0 1-.168-.02c-.144-.022-.31-.03-.47-.023-.04 0-.086.004-.127.004-.117 0-.237 0-.356.008-.474.02-.862.057-1.232.12l-.115.023c-1.808.338-3.43 1.207-4.83 2.583-1.904 1.874-2.902 4.196-2.97 6.9-.067 2.68.816 5.034 2.628 7 1.816 1.976 4.077 3.01 6.727 3.075h.007a9.23 9.23 0 0 0 4.882-1.24 9.598 9.598 0 0 0 3.588-3.57s.512-.658-.365-.678c-.27-.006-.484.003-.642 0-.577-.012-1.474.233-1.856.69z"/></g></svg>