<svg xmlns="http://www.w3.org/2000/svg" width="82.242" height="31.978" viewBox="0 0 82.242 31.978"><path fill="#FDCA05" d="M47.053.598c-1.63.853-2.237 2.296-2.237 6.278 0 0 .825-.798 2.05-1.242.893-.322 1.652-.815 2.094-1.137 1.378-1.01 1.59-2.308 1.59-4.495 0 0-2.245-.06-3.497.596"/><path fill="#363636" d="M37.387 1.53C36.06 2.702 35.67 4.57 35.67 4.57l-4.4 17.047-3.66-13.952c-.356-1.483-1-3.317-2.015-4.558-1.296-1.58-3.93-1.678-4.208-1.678-.28 0-2.913.098-4.208 1.677-1.017 1.24-1.66 3.074-2.017 4.558l-3.66 13.952-4.4-17.048S6.715 2.7 5.386 1.53C3.23-.37 0 .038 0 .038l8.425 31.858s2.78.2 4.17-.508c1.828-.93 2.698-1.65 3.804-5.985.985-3.865 3.74-15.216 3.997-16.025.127-.4.29-1.354.99-1.354.716 0 .863.954.99 1.354.252.81 3.012 12.16 3.998 16.025 1.106 4.335 1.976 5.054 3.803 5.985 1.39.71 4.17.508 4.17.508L42.777.038S39.54-.37 37.386 1.53M50.547 5.24s-.527.813-1.73 1.487c-.772.432-1.514.725-2.31 1.106-1.33.64-1.69 1.35-1.69 2.438V31.898s2.124.268 3.515-.44c1.79-.914 2.2-1.793 2.22-5.755V6.392h-.005V5.24zM71.55 16.044L82.243.142s-4.512-.768-6.746 1.266c-1.43 1.302-3.03 3.642-3.03 3.642l-3.932 5.67c-.19.296-.44.616-.84.616-.398 0-.648-.32-.84-.615L62.92 5.05s-1.598-2.34-3.026-3.642C57.66-.626 53.147.142 53.147.142l10.69 15.902-10.663 15.853s4.7.593 6.933-1.44c1.43-1.303 2.814-3.418 2.814-3.418l3.934-5.672c.19-.294.44-.615.84-.615s.648.32.84.615l3.934 5.67s1.465 2.116 2.895 3.418c2.234 2.034 6.852 1.44 6.852 1.44L71.55 16.045z"/></svg>