<svg baseProfile="basic" xmlns="http://www.w3.org/2000/svg" width="77" height="69" viewBox="-441 315 77 69"><circle fill="#05A872" cx="-402.8" cy="349.3" r="34.3"/><path opacity=".2" d="M-402.8 377c-15.2 0-27.6-12.4-27.6-27.6 0-2.7.4-5.4 1.2-8 .1-.3.4-.5.8-.4.3.1.5.4.4.8-.8 2.5-1.1 5.1-1.1 7.7 0 14.5 11.8 26.4 26.4 26.4 14.5 0 26.4-11.8 26.4-26.4 0-2.6-.4-5.2-1.1-7.7-.1-.3.1-.7.4-.8s.7.1.8.4c.8 2.6 1.2 5.3 1.2 8-.2 15.2-12.6 27.6-27.8 27.6z"/><circle opacity=".2" fill="#020202" cx="-402.8" cy="349.3" r="19.9"/><path fill="#FFF" d="M-394.1 359.8v-12.5c0-.8-.6-1.4-1.4-1.4h-.7v-4.7c0-3.6-3-6.6-6.6-6.6-3.6 0-6.6 3-6.6 6.6v4.7h-.7c-.8 0-1.4.6-1.4 1.4v12.5c0 .8.6 1.4 1.4 1.4h14.6c.8.1 1.4-.6 1.4-1.4zm-7.6-6.1v3.7c0 .6-.5 1.1-1.1 1.1-.6 0-1.1-.5-1.1-1.1v-3.7c-.6-.4-1.1-1.1-1.1-1.9 0-1.2 1-2.2 2.2-2.2 1.2 0 2.2 1 2.2 2.2 0 .8-.4 1.5-1.1 1.9zm2.7-7.8h-7.5v-4.7c0-2.1 1.7-3.8 3.8-3.8 2.1 0 3.8 1.7 3.8 3.8l-.1 4.7z"/><path opacity=".2" fill="#020202" d="M-436.7 354.3c1.7 12 9.7 22 20.5 26.7h26.9c10.8-4.6 18.8-14.6 20.5-26.7h-67.9z"/><path fill="#F7D50B" d="M-375.5 375.3H-441l4.9-9.5-4.9-9.9h65.5v9.7z"/><path opacity=".1" fill="#020202" d="M-441 375.3l4.9-9.5-4.9-9.9 7.5 9.7z"/><path fill="#F7D50B" d="M-430 355.9h65.5l-5 9.5 5 9.9H-430z"/><path opacity=".1" fill="#020202" d="M-364.5 375.3l-5-9.5 5-9.9-7.6 9.7z"/><path fill="#056643" d="M-417.5 369.8l1.4-1.9c.8.9 2.2 1.6 3.8 1.6 1.4 0 2.1-.6 2.1-1.3 0-2.1-6.9-.7-6.9-5.2 0-2 1.7-3.7 4.6-3.7 1.9 0 3.5.6 4.7 1.7l-1.4 1.9c-1-.9-2.3-1.3-3.5-1.3-1.1 0-1.7.5-1.7 1.2 0 1.9 6.9.6 6.9 5.1 0 2.2-1.6 3.9-4.8 3.9-2.4-.1-4.1-.8-5.2-2zm10.8 0l1.4-1.9c.8.9 2.2 1.6 3.8 1.6 1.4 0 2.1-.6 2.1-1.3 0-2.1-6.9-.7-6.9-5.2 0-2 1.7-3.7 4.6-3.7 1.9 0 3.5.6 4.7 1.7l-1.4 1.9c-1-.9-2.3-1.3-3.5-1.3-1.1 0-1.7.5-1.7 1.2 0 1.9 6.9.6 6.9 5.1 0 2.2-1.6 3.9-4.8 3.9-2.4-.1-4.1-.8-5.2-2zm11.6 1.7v-12h2.6v9.8h5.1v2.3h-7.7v-.1zM-373.1 365.7c0 .5-.4.9-.9.9h-9.9c-.5 0-.9-.4-.9-.9s.4-.9.9-.9h9.9c.5 0 .9.4.9.9zM-420.2 365.7c0 .5-.4.9-.9.9h-9.9c-.5 0-.9-.4-.9-.9s.4-.9.9-.9h9.9c.5 0 .9.4.9.9z"/><circle fill="none" cx="-402.8" cy="349.3" r="23"/><path fill="#FFF" d="M-426.8 332.3l.8.5-1.7 2.8 1.2.7.9-1.4c.7-1.1 1.8-1.3 2.8-.7s1.3 1.7.6 2.8l-1.4 2.4-5.4-3.3 2.2-3.8zm1.2 4.5l1.7 1 .8-1.3c.3-.5.2-1.1-.3-1.4s-1.1-.1-1.4.4l-.8 1.3zM-420.7 334.8l-4.5-4.4 3-3.1.7.7-2.3 2.3 1.2 1.1 2.2-2.3.7.7-2.2 2.3 1.3 1.2 2.3-2.3.7.7-3.1 3.1zM-419 328.6c-1-1.7-.5-3.6 1.1-4.5 1.1-.7 2.1-.5 2.9-.1l-.6.9c-.5-.3-1.3-.3-1.8.1-1.1.7-1.3 2-.6 3.1.7 1.1 2 1.5 3.1.8.6-.4.9-1 .9-1.6l1.1-.1c0 .9-.3 1.9-1.4 2.6-1.7.8-3.7.5-4.7-1.2zM-407.7 326.8l-1.5-5.1-3.2.9 1.5 5.1-1.1.3-1.8-6.1 5.3-1.5 1.8 6.1-1 .3zM-406.1 325.5c.7 0 1-.3 1.2-2.2l.4-3.3h4.3v6.3h-1.1v-5.4h-2.2l-.3 2.4c-.3 2.7-1.1 3.1-2.3 3.1v-.9zM-394.9 327.6l-.1-1.3-2.8-.8-.8 1.1-1.2-.3 4-5.5 1.3.4.8 6.8-1.2-.4zm-.5-5.5l-1.9 2.6 2.2.6-.3-3.2zM-392.1 328.9l2.6-4.7-1.7-.9.5-.9 4.3 2.4-.5.9-1.7-.9-2.6 4.7-.9-.6zM-385.8 333.7l1.9-2-2.4-2.3-1.9 2-.8-.8 4.4-4.6.8.8-1.8 1.9 2.4 2.3 1.8-1.9.8.8-4.4 4.6-.8-.8zM-381.8 333.3c1.6-1 3.5-.5 4.5 1.1s.4 3.5-1.2 4.5-3.5.5-4.5-1.1c-.9-1.6-.4-3.5 1.2-4.5zm2.7 4.7c1.1-.7 1.6-1.9.9-3-.6-1.1-1.9-1.3-3-.7-1.1.7-1.6 1.9-.9 3 .6 1.1 1.9 1.3 3 .7z"/></svg>