<svg xmlns="http://www.w3.org/2000/svg" width="42.341" height="42.289" viewBox="0 0 42.341 42.289"><path fill="#77BC1F" d="M7.63 21.337l-.815-.813a9.386 9.386 0 0 1-2.352-9.333 5.67 5.67 0 0 1-4.41-5.525A5.667 5.667 0 0 1 5.718 0a5.668 5.668 0 0 1 5.59 4.748 9.377 9.377 0 0 1 8.783 2.5l.326.326-4.18 4.177-.324-.323a3.476 3.476 0 0 0-4.913 0 3.48 3.48 0 0 0-.01 4.918l.82.817 4.18 4.176 4.42 4.418-4.176 4.18-4.424-4.42-4.18-4.18"/><path fill="#F7B334" d="M12.305 16.665l4.424-4.42 4.18-4.178.813-.813a9.385 9.385 0 0 1 9.29-2.37 5.665 5.665 0 1 1 6.355 6.397 9.38 9.38 0 0 1-2.382 9.237l-.326.327-4.175-4.183.322-.32a3.475 3.475 0 0 0 0-4.913 3.465 3.465 0 0 0-4.905.007l-.815.813-4.18 4.178-4.423 4.42-4.18-4.18"/><g><path fill="#F7323F" d="M31.126 37.755a9.386 9.386 0 0 1-9.4-2.334l-.32-.32 4.177-4.18.32.322a3.475 3.475 0 0 0 4.913.002 3.467 3.467 0 0 0-.008-4.91l-.815-.817-4.178-4.18-4.413-4.418 4.18-4.177 4.41 4.414 4.177 4.18.82.82a9.378 9.378 0 0 1 2.483 8.86 5.664 5.664 0 1 1-6.347 6.738"/><path fill="#3E8EDE" d="M29.495 26.014l-4.408 4.414-4.18 4.18-.817.82a9.376 9.376 0 0 1-8.904 2.468 5.668 5.668 0 0 1-5.522 4.394A5.662 5.662 0 0 1 0 36.626a5.668 5.668 0 0 1 4.356-5.513 9.378 9.378 0 0 1 2.458-8.96l.32-.32 4.18 4.177-.323.322a3.476 3.476 0 0 0 .003 4.914 3.48 3.48 0 0 0 4.918.005l.82-.82 4.176-4.176 4.413-4.42 4.175 4.18"/></g></svg>