<svg xmlns="http://www.w3.org/2000/svg" width="125.833" height="34.5" viewBox="0 0 125.833 34.5"><g fill="#318A3C"><path d="M25.884 1.742H3.71a.982.982 0 0 0-.983.982v22.174c0 .543.44.983.983.983h22.174c.542 0 .982-.44.982-.982V2.724a.982.982 0 0 0-.982-.982zM43.445 8.71H42.27c-.167 0-.302.124-.302.28v.407c-.035.178-.186.372-.728.13-1.075-.72-2.658-1.135-4.992-1.146-3.582-.016-7.262 3.976-7.262 8.878 0 4.903 3.252 8.792 7.262 8.877 2.067.044 3.55-.326 4.614-1.003.84-.42.825.135.825.135v2.46s-.188 4.934-6.362 4.233c-1.825-.328-2.713-.234-4.444-1.52-1.13-.84-.817.724-.84.84-.025.118.046.773.466.937.422.164 3.44 1.544 6.152 1.216 2.7-.326 6.677-1.094 7.08-5.486.005-.02.008-18.958.008-18.958 0-.155-.134-.28-.3-.28zm-1.757 13.906c-.5 1.186-1.73 1.973-4.562 1.973-4.035 0-6.07-3.825-6.07-7.33 0-3.506 2.246-7.404 6.07-7.404 3.02 0 4.158 1.1 4.562 2.657v10.103zM52.706 8.522c-.068 0-.134.002-.2.003-.065 0-.13-.003-.198-.003-4.537-.023-7.368 3.04-7.368 8.736 0 5.84 2.57 8.717 7.532 8.89v.003h.069v-.002c4.963-.173 7.533-3.05 7.533-8.89 0-5.695-2.83-8.76-7.367-8.736zm.223 16.253c-.135 0-.263-.003-.39-.007v-.003h-.069v.003c-.124.004-.254.007-.388.007-3.54 0-5.108-3.79-5.108-7.294s1.673-7.53 5.028-7.53c.163 0 .318.005.47.014v.003h.068v-.004c.15-.01.306-.015.47-.015 3.354 0 5.027 4.027 5.027 7.532s-1.566 7.295-5.108 7.295zM122.046 1.973c-1.205 0-1.87.666-1.87 1.87s.665 1.873 1.87 1.873c1.206 0 1.872-.666 1.872-1.872s-.666-1.87-1.872-1.87z"/></g><path fill="#FFF" d="M23.852 13.995c0-.91-.39-1.726-1.01-2.296L17.23 5.993a3.12 3.12 0 0 0-5.11.465l-.458-.465a3.115 3.115 0 0 0-2.393-1.12 3.122 3.122 0 0 0-3.116 2.912h-.01V20.03a3.123 3.123 0 0 0 5.532 1.986l.44-.448a3.12 3.12 0 0 0 5.127.448l5.77-5.864-.013-.014a3.11 3.11 0 0 0 .852-2.143zm-7.645 1.116l-2.88 2.927v-8.05l2.97 3.017a1.5 1.5 0 0 1-.104 2.093l.014.014zm-5.825 5.92l.01.006A1.51 1.51 0 0 1 7.76 20.03V8.035v-.04c0-.834.675-1.51 1.51-1.51.443 0 .842.195 1.118.5l-.006.007 1.33 1.35v11.333l-1.33 1.353zm11.392-5.92l-5.824 5.92.008.006a1.504 1.504 0 0 1-2.603-.725l4.092-4.158-.014-.014a3.112 3.112 0 0 0-.156-4.44l-3.922-3.985a1.508 1.508 0 0 1 2.6-.725l-.005.007 5.913 6.01v-.002a1.505 1.505 0 0 1-.103 2.094l.014.014z"/><g fill="#2C2F2E"><path d="M94.38 8.522h-.173c-4.974-.023-8.077 3.04-8.077 8.736 0 5.788 2.77 8.665 8.116 8.883v.005c.016 0 .03 0 .047-.002.017 0 .032 0 .05.002v-.004c5.343-.217 8.114-3.094 8.114-8.882 0-5.695-3.102-8.76-8.078-8.736zm.246 15.55c-.1 0-.19 0-.284-.003v-.002h-.096c-.094.003-.188.005-.285.005-3.103 0-4.74-3.087-4.74-6.592s1.303-6.83 4.654-6.83c.128 0 .25.004.372.01v.002c.016 0 .03 0 .047-.002l.05.002v-.003c.12-.006.242-.01.37-.01 3.352 0 4.653 3.326 4.653 6.83s-1.635 6.593-4.74 6.593zM111.27 8.522h-.175c-1.65-.007-3.095.32-4.287.966V2.253a.42.42 0 0 0-.422-.42h-2.432a.42.42 0 0 0-.42.42V20.86c1.027 3.215 3.59 4.85 7.6 5.012v.004l.047-.002.05.002v-.004c5.345-.215 8.115-3.047 8.115-8.748 0-5.61-3.102-8.627-8.076-8.604zm4.984 8.823c-.137 3.996-1.634 6.054-6.424 6.072-.098 0-.19-.003-.285-.005v-.002h-.096c-.094.003-.188.006-.285.006-1.6 0-2.174-.696-2.357-1.84V17.69a19.64 19.64 0 0 0 0-.682v-4.182c.196-1.22.795-2.016 2.41-2.067.128-.005.25.002.372.007v.004a.77.77 0 0 1 .095 0v-.003a7.53 7.53 0 0 1 .372-.008c4.516.008 6.317 3.135 6.197 6.585zM123.187 8.663h-2.28a.423.423 0 0 0-.427.42v16.28c0 .233.19.42.427.42h2.28a.424.424 0 0 0 .428-.42V9.083a.424.424 0 0 0-.428-.42zM84.614 1.785h-3.61a.44.44 0 0 0-.368.193h-.002l-.004.008a.422.422 0 0 0-.062.175L73.35 22.55 66.012 2.08l-.123.045a.436.436 0 0 0-.434-.34h-3.61a.43.43 0 0 0-.44.42v23.158c0 .233.197.42.44.42h1.927a.43.43 0 0 0 .44-.42V6.253l6.724 18.756a.69.69 0 0 0 .673.588h2.505a.68.68 0 0 0 .61-.392l.026.01 7.04-19.883.036.01v20.02c0 .234.196.422.44.422h2.347a.43.43 0 0 0 .44-.42V2.206a.43.43 0 0 0-.44-.422z"/></g></svg>