<svg baseProfile="basic" xmlns="http://www.w3.org/2000/svg" width="136" height="46" viewBox="0 0 136 46"><path fill="#FFA300" d="M26.025 44.237L3.387 46 0 11.823l1.803-.14c.99-.08 1.716-.994 1.614-2.036l-.175-1.762a1.863 1.863 0 0 1 1.71-2.043l12.49-.973a1.958 1.958 0 0 1 2.086 1.746l.174 1.762.188 1.894 6.4-.5 23.67.364 2.364 28.6-4.307 3.79-21.992 1.71z"/><path fill="#FF2400" d="M34.665 0L6.435 14.688 3.405 46l28.114-2.207 15.807-1.24 10.106-.795 3.028-31.31z"/><path fill="#FFF" d="M21.388 33.174l-3.218-5.242h-2.618v5.242H12.41V18.417h6.903c3.076 0 4.956 2.013 4.956 4.756 0 2.61-1.32 4.005-2.91 4.382l3.635 5.62h-3.607zm-.326-10c0-1.24-.95-1.992-2.214-1.992h-3.296v3.983h3.296c1.263 0 2.214-.752 2.214-1.992zM26.958 33.174V18.417h10.445v2.766H30.1v3.12h6.51v2.764H30.1v3.342h7.302v2.764H26.958zM39.153 25.806c0-4.67 3.54-7.634 7.855-7.634 3.076 0 5 1.55 6.107 3.297l-2.613 1.417c-.662-1.04-1.924-1.926-3.494-1.926-2.678 0-4.625 2.06-4.625 4.847 0 2.787 1.948 4.847 4.625 4.847 1.305 0 2.545-.576 3.14-1.13v-1.576h-3.892v-2.782h7.035v5.51c-1.503 1.682-3.604 2.788-6.282 2.788-4.316 0-7.855-3.01-7.855-7.658z"/><g fill="#111"><path d="M74.464 25.646l-2.005-7.85-1.988 7.85h-2.588l-3.273-11.43h2.726l2.005 8.26 2.177-8.26h1.902l2.158 8.26 1.988-8.26h2.742l-3.256 11.43h-2.588zM81.28 25.646v-11.43h8.09v2.142h-5.656v2.416h4.9v2.142h-4.9v2.588h5.655v2.142h-8.09zM91.31 25.646v-11.43h6.016c2.176 0 3.29 1.388 3.29 2.913 0 1.438-.89 2.398-1.97 2.62 1.216.19 2.192 1.372 2.192 2.812 0 1.713-1.148 3.085-3.324 3.085H91.31zm6.82-8.088c0-.72-.513-1.25-1.335-1.25h-3.05v2.484h3.05c.822 0 1.336-.515 1.336-1.234zm.224 4.66c0-.72-.514-1.336-1.474-1.336h-3.136v2.656h3.136c.926 0 1.474-.497 1.474-1.32zM101.754 24.035l1.32-1.85a5.01 5.01 0 0 0 3.633 1.54c1.336 0 1.988-.616 1.988-1.267 0-2.022-6.58-.634-6.58-4.935 0-1.902 1.645-3.48 4.336-3.48 1.817 0 3.326.55 4.457 1.595l-1.354 1.782c-.925-.857-2.16-1.25-3.325-1.25-1.045 0-1.628.462-1.628 1.147 0 1.816 6.563.6 6.563 4.867 0 2.09-1.49 3.667-4.575 3.667-2.195.002-3.77-.735-4.834-1.815zM112.727 25.646v-11.43h2.434v11.43h-2.433zM119.622 25.646v-9.288h-3.34v-2.142h9.116v2.142h-3.325v9.288h-2.45zM126.535 25.646v-11.43h8.09v2.142h-5.656v2.416h4.9v2.142h-4.9v2.588h5.654v2.142h-8.09zM65.724 39.724v-11.43h6.015c2.176 0 3.29 1.388 3.29 2.913 0 1.44-.892 2.4-1.972 2.622 1.217.187 2.193 1.37 2.193 2.81 0 1.714-1.147 3.085-3.324 3.085h-6.202zm6.82-8.09c0-.72-.513-1.25-1.336-1.25h-3.05v2.485h3.05c.823 0 1.337-.515 1.337-1.235zm.224 4.663c0-.72-.514-1.337-1.474-1.337h-3.136v2.656h3.136c.925 0 1.474-.497 1.474-1.32zM77.136 35.166v-6.872h2.468v6.786c0 1.594.925 2.69 2.69 2.69s2.673-1.096 2.673-2.69v-6.786h2.485v6.854c0 2.845-1.68 4.78-5.158 4.78-3.48.002-5.158-1.952-5.158-4.762zM89.87 39.724v-11.43h2.433v11.43H89.87zM94.724 39.724v-11.43h2.433v9.288h4.833v2.142h-7.266zM103.45 39.724v-11.43h4.506c3.582 0 6.066 2.28 6.066 5.723 0 3.444-2.485 5.707-6.066 5.707h-4.507zm8.087-5.707c0-2.022-1.234-3.58-3.582-3.58h-2.074v7.145h2.075c2.262 0 3.582-1.628 3.582-3.565zM115.857 39.724v-11.43h8.088v2.142h-5.655v2.416h4.9v2.142h-4.9v2.588h5.655v2.142h-8.088zM132.605 39.724l-2.245-4.06h-1.782v4.06h-2.434v-11.43h5.347c2.383 0 3.84 1.56 3.84 3.684 0 2.022-1.27 3.102-2.503 3.393l2.57 4.354h-2.792zm.24-7.746c0-.96-.737-1.542-1.714-1.542h-2.552v3.085h2.553c.978 0 1.715-.582 1.715-1.542z"/></g></svg>