<svg xmlns="http://www.w3.org/2000/svg" width="170" height="34.157" viewBox="0 0 170 34.157"><path fill="#1D1D1B" d="M40.58 14.834h2.287v11.512h3.867v-14.95H40.58v3.438zm8.767 4.036c0 4.786 3.203 7.905 7.643 7.905 1.285 0 2.692-.194 4.04-1.112v-4.25c-.772.79-1.988 1.624-3.546 1.624-2.396 0-3.824-1.773-3.824-4.038 0-2.457 1.516-4.293 3.824-4.293 1.6 0 2.773.9 3.546 1.796v-4.337c-1.265-.854-2.78-1.197-4.102-1.197-4.06-.002-7.58 2.903-7.58 7.9zm29.815-1.644h-2.2v-2.243h6.854v-3.587H72.774v14.95h6.388c1.087 0 5.87.042 5.87-4.635 0-4.504-4.74-4.484-5.87-4.484zm-.407 6.13H76.96v-3.14h1.795c1.324 0 2.094.385 2.094 1.56 0 1.195-.79 1.58-2.095 1.58zm12.472-2.99v-8.97H87.19v14.95h4.103l5.785-8.97v8.97h4.038v-14.95h-4.1l-5.79 8.97zm11.597-5.383h3.29v11.363h4.187V14.983h3.288v-3.587h-10.764v3.587zm18.774-3.587h-6.3v14.95h4.19V21.41h2.11c4.23 0 5.447-2.944 5.447-5.017 0-2.05-1.197-4.997-5.447-4.997zm-.918 6.727h-1.193v-3.438h1.193c1.796 0 2.05.96 2.05 1.708 0 .64-.193 1.73-2.05 1.73zm12.13 2.243v-8.97h-4.037v14.95h4.1l5.79-8.97v8.97h4.038v-14.95h-4.1l-5.79 8.97zm25.967-8.97h-4.913l-4.508 6.28v-6.28h-4.185l.003 14.95h4.183v-6.43l4.334 6.43h5.235l-5.832-7.71 5.684-7.24zm7.676 3.31c1.604 0 2.777.9 3.547 1.796v-4.337c-1.26-.854-2.78-1.197-4.1-1.197-4.06 0-7.582 2.905-7.582 7.902 0 4.786 3.204 7.905 7.646 7.905 1.28 0 2.69-.194 4.036-1.112V21.41c-.77.793-1.984 1.626-3.547 1.626-2.39 0-3.823-1.773-3.823-4.038 0-2.456 1.516-4.292 3.823-4.292zM66.863 16.5a2.446 2.446 0 1 0 0 4.894 2.446 2.446 0 0 0 0-4.893z"/><path fill="#D20033" d="M17.077 0c-1.27 0-2.508.144-3.7.406V17.09a3.717 3.717 0 0 0 3.71 3.713 3.718 3.718 0 0 0 3.71-3.712 3.718 3.718 0 0 0-3.463-3.7v-2.974c3.564.132 6.433 3.08 6.433 6.675 0 3.68-3 6.68-6.68 6.68-3.68 0-6.68-3-6.68-6.68V1.354c-.424.18-.834.378-1.24.59V17.09c.005 4.362 3.562 7.918 7.92 7.918 4.36 0 7.918-3.556 7.918-7.917 0-4.275-3.423-7.78-7.67-7.91V6.21c5.882.132 10.638 4.97 10.638 10.88 0 5.998-4.89 10.888-10.886 10.888-5.995 0-10.887-4.89-10.887-10.887V3.913A17.042 17.042 0 0 0 0 17.08c0 9.432 7.646 17.078 17.077 17.078 9.434 0 17.08-7.646 17.08-17.08C34.156 7.647 26.51 0 17.076 0z"/></svg>