<svg xmlns="http://www.w3.org/2000/svg" width="46.5" height="46.498" viewBox="0 0 46.5 46.498"><g fill="#464442"><path d="M23.25 0C10.41 0 0 10.41 0 23.25s10.41 23.248 23.25 23.248S46.5 36.088 46.5 23.25C46.5 10.41 36.09 0 23.25 0zm0 45.443c-12.255 0-22.19-9.938-22.19-22.193 0-12.257 9.936-22.193 22.19-22.193s22.193 9.937 22.193 22.193c0 12.255-9.936 22.193-22.192 22.193z"/><path d="M5.154 15.192h.17l9.362 25.816H14.6c-3.88-1.8-6.945-4.84-9.197-9.112-1.29-2.926-1.938-5.823-1.938-8.69 0-2.587.564-5.26 1.69-8.014zM23.292 3.465c5.007 0 9.45 1.74 13.33 5.23v.083l-.253-.084c-1.575 0-2.673.955-3.29 2.87v.757c0 1.126.788 2.872 2.36 5.233a10.467 10.467 0 0 1 1.183 4.893c0 1.464-.704 4.19-2.11 8.183l-1.35 4.642c-.11 0-.843-2.11-2.193-6.328l-5.06-15.018h.08c1.97 0 2.955-.254 2.955-.76v-.252c-.112-.394-.31-.62-.592-.677l-5.482.253-5.568-.253c-.28.17-.42.422-.42.76h-.087c0 .618.816.93 2.447.93l.42.084 3.038 8.52-4.303 12.91h-.083l-7.17-21.428v-.085h.084c1.912 0 2.866-.226 2.866-.675v-.254c0-.336-.195-.588-.59-.76l-6.41.252h-.336v-.17c.562-1.01 1.883-2.474 3.966-4.383 3.766-2.982 7.956-4.472 12.568-4.472z"/><path d="M23.545 24.893c.11 0 .9 2.11 2.36 6.328l3.967 10.714h-.084c-2.193.733-4.386 1.098-6.58 1.098-1.97 0-3.825-.283-5.568-.844l5.905-17.295zM40.504 13.757h.168c1.574 3.15 2.36 6.327 2.36 9.533 0 5.74-2.248 10.687-6.75 14.85-1.066.9-2.08 1.632-3.035 2.193h-.083v-.084l6.916-20.165c.396-1.63.592-3.065.592-4.302l-.168-2.026z"/></g></svg>