<svg xmlns="http://www.w3.org/2000/svg" width="115.75" height="47.25" viewBox="0 0 115.75 47.25"><g fill-rule="evenodd" clip-rule="evenodd" fill="#D92131"><path d="M5.24 1.79a1.88 1.88 0 0 1 1.873 1.874v19.228a1.88 1.88 0 0 1-1.873 1.873 1.878 1.878 0 0 1-1.872-1.873V3.664c0-1.03.843-1.873 1.872-1.873zM12.728 1.79A1.88 1.88 0 0 1 14.6 3.665v19.228a1.88 1.88 0 0 1-1.872 1.873 1.878 1.878 0 0 1-1.872-1.873V3.664c0-1.03.842-1.873 1.872-1.873z"/></g><g fill-rule="evenodd" clip-rule="evenodd" fill="#231F20"><path d="M96.487 21.562h8.084c2.133-.013 3.296-1.294 3.285-3.41-.006-1.177-.387-2.247-1.405-2.937-.8-.48-1.68-.73-2.57-.986l-2.623-.732c-.457-.132-.998-.27-1.387-.554-.23-.21-.263-.373-.267-.678.01-.57.25-.76.945-.76h6.758v-2.73h-7.17c-1.84.007-3.31.55-3.727 2.51-.212 1.208-.064 2.52.778 3.46.716.713 1.652 1.054 2.606 1.318l2.333.64c.58.16 1.172.31 1.733.53.167.07.352.156.444.32.135.238.173.7.033.947-.14.246-.414.325-.71.333h-7.143v2.73h.003zM84.768 11.46c1.234.005 2.584.25 2.724 1.718.01.28.038.46-.27.49h-5.193c.016-.56.096-1.124.505-1.55.505-.53 1.338-.66 2.233-.66zm-.836 7.365c-.774-.054-1.368-.228-1.702-.983-.146-.465-.183-.96-.203-1.445h6.697c.936-.015 1.66-.428 2.018-1.312.185-.54.223-1.13.2-1.695-.06-1.376-.418-2.625-1.476-3.537-1.34-1.063-3.057-1.12-4.694-1.12-1.732.01-3.573.17-4.89 1.464-1.246 1.336-1.29 3.148-1.3 4.876-.003.833.008 1.663.115 2.49.138.964.41 1.833 1.024 2.6.688.778 1.504 1.167 2.516 1.328.417.056.832.073 1.25.073h7.058v-2.728H84.29l-.358-.01zM44.065 16.127v2.452c.003.31-.19.305-.44.305h-3.716c-.79-.05-.903-.747-.91-1.377.01-.72.075-1.36.948-1.38h4.117zm-7.61-7.3v2.73h6.3c.377.004.71.065.988.338.258.297.322.617.322.997v.507h-4.922c-.707.005-1.328.1-1.956.443-1.317.827-1.612 2.087-1.625 3.55.01 1.47.243 3.055 1.63 3.863.633.31 1.26.357 1.95.357h5.785c1.616-.012 2.477-.766 2.483-2.368v-6.29c-.016-.898-.154-1.745-.584-2.543-.684-1.12-1.886-1.556-3.153-1.584h-7.22zM23.907 12.873V8.64c0-.18-.014-.376.11-.52.14-.12.29-.107.468-.107h4.87c1.14.01 1.828.275 2.044 1.445.106.745.105 1.563-.072 2.298-.3 1.025-1.11 1.117-2.02 1.117h-5.4zm0 8.74v-5.668h7.165c1.018-.02 2.003-.29 2.784-.965.86-.832 1.174-1.936 1.316-3.11.103-.98.104-1.99-.006-2.97-.1-.768-.28-1.49-.66-2.17-.86-1.4-2.263-1.775-3.82-1.79H22.907c-.832.008-1.574.212-2.155.84-.465.58-.53 1.18-.533 1.897v13.936h3.687zM49.816 10.1c-.936 1.022-1.156 2.234-1.17 3.582v7.88h3.345v-7.17c.007-.682.057-1.354.398-1.96.502-.76 1.317-.922 2.172-.927h2.107v-2.73H53.87c-1.548 0-2.915.26-4.054 1.324zM95.29 21.51h-3.346V4.84h3.345v16.67zM77.542 21.562h-3.346V4.892h3.346v16.67zM72.962 21.562h-3.346V4.892h3.346v16.67zM65.037 16.076v2.45c.003.312-.19.308-.442.308H60.88c-.79-.05-.9-.748-.91-1.378.013-.72.076-1.36.95-1.38h4.117zm-7.612-7.3v2.73h6.3c.378.002.71.064.99.338.257.297.322.617.322.996v.508h-4.923c-.707.004-1.328.1-1.957.443-1.315.827-1.61 2.087-1.624 3.55.01 1.473.243 3.056 1.63 3.863.633.31 1.26.358 1.95.358H65.9c1.615-.01 2.476-.766 2.48-2.367v-6.29c-.015-.898-.153-1.745-.583-2.543-.683-1.12-1.886-1.556-3.153-1.584h-7.22z"/></g><path fill="#231F20" d="M109.686 7.658v-.013a2.27 2.27 0 0 1 2.27-2.266 2.25 2.25 0 0 1 2.262 2.253v.012a2.27 2.27 0 0 1-2.272 2.266 2.25 2.25 0 0 1-2.26-2.252zm4.268-.013v-.012c0-1.108-.857-2.004-1.997-2.004-1.146 0-2.008.907-2.008 2.015v.014c0 1.106.855 2 1.995 2 1.146 0 2.01-.908 2.01-2.015zm-2.935-1.27h1.07c.324 0 .575.094.745.262.13.132.2.313.2.525v.013c0 .39-.214.633-.52.745l.587.864h-.62l-.512-.776H111.55v.776h-.532v-2.41zm1.063 1.176c.27 0 .413-.143.413-.343v-.014c0-.23-.162-.35-.426-.35h-.52v.707h.533z"/><g><path d="M4.38 44.71l-2.096-7.894h1.07l1.202 5.176c.13.54.24 1.08.334 1.615.2-.844.32-1.33.355-1.46l1.502-5.33h1.26l1.13 3.995c.284.99.49 1.922.615 2.795.1-.5.23-1.072.393-1.72l1.238-5.07h1.05L10.27 44.71H9.262L7.6 38.697c-.14-.503-.224-.812-.248-.927-.083.362-.16.67-.232.926L5.446 44.71H4.38zM17 42.87l1.003.123c-.158.585-.45 1.04-.878 1.362-.428.323-.973.484-1.637.484-.837 0-1.5-.26-1.99-.773s-.734-1.237-.734-2.167c0-.963.247-1.71.742-2.24.496-.53 1.14-.797 1.928-.797.765 0 1.39.26 1.874.78.485.52.728 1.253.728 2.197 0 .058-.002.144-.006.26h-4.265c.036.627.214 1.108.533 1.442s.718.5 1.195.5c.355 0 .66-.094.91-.28.25-.186.45-.483.598-.893zm-3.182-1.567h3.193c-.042-.48-.164-.842-.365-1.082-.31-.373-.71-.56-1.2-.56-.445 0-.82.148-1.123.447-.303.297-.47.696-.504 1.196zM20.113 44.71h-.9v-7.894h.97v2.816c.41-.514.932-.77 1.567-.77.352 0 .685.07 1 .213.312.142.57.34.774.598.202.256.36.566.477.93.115.36.173.75.173 1.162 0 .98-.242 1.737-.727 2.272-.484.534-1.066.802-1.745.802-.674 0-1.203-.282-1.587-.847v.718zm-.01-2.9c0 .685.093 1.18.28 1.485.305.5.718.748 1.238.748.424 0 .79-.184 1.1-.552.31-.367.463-.915.463-1.645 0-.746-.148-1.297-.444-1.652s-.655-.533-1.075-.533c-.424 0-.79.184-1.1.552s-.462.9-.462 1.597zM28.54 44.71v-7.894h2.978c.524 0 .925.025 1.2.076.39.064.714.188.976.37.262.18.473.434.633.76.16.327.24.687.24 1.077 0 .67-.214 1.24-.642 1.704-.427.465-1.2.697-2.315.697h-2.024v3.21H28.54zm1.045-4.14h2.04c.676 0 1.155-.126 1.44-.377.282-.252.425-.605.425-1.06 0-.33-.084-.614-.25-.85s-.388-.39-.66-.466c-.176-.047-.5-.07-.975-.07h-2.02v2.823zM35.76 44.71v-5.718h.874v.867c.223-.407.428-.675.616-.804s.396-.193.622-.193c.326 0 .658.104.996.312l-.334.898a1.386 1.386 0 0 0-.71-.21.914.914 0 0 0-.57.19c-.17.13-.29.305-.362.53-.107.346-.16.723-.16 1.132v2.994h-.97zM43.358 42.87l1.002.123c-.158.585-.45 1.04-.878 1.362-.428.323-.973.484-1.637.484-.837 0-1.5-.26-1.99-.773s-.734-1.237-.734-2.167c0-.963.248-1.71.743-2.24.496-.53 1.14-.797 1.928-.797.766 0 1.39.26 1.875.78.485.52.728 1.253.728 2.197 0 .058-.002.144-.006.26h-4.265c.036.627.214 1.108.533 1.442s.718.5 1.195.5c.355 0 .66-.094.91-.28.252-.186.45-.483.598-.893zm-3.182-1.567h3.193c-.044-.48-.166-.842-.367-1.082-.31-.373-.71-.56-1.2-.56-.445 0-.82.148-1.123.447-.304.297-.472.696-.504 1.196zM45.19 43.004l.958-.15c.054.384.203.678.45.883s.59.307 1.03.307c.445 0 .775-.09.99-.27.216-.183.324-.396.324-.64a.59.59 0 0 0-.286-.517c-.133-.086-.463-.196-.99-.33-.71-.178-1.204-.333-1.48-.464s-.48-.312-.623-.544a1.43 1.43 0 0 1-.213-.77c0-.254.06-.49.175-.707s.275-.397.477-.54c.15-.112.356-.206.616-.284.26-.077.54-.116.838-.116.448 0 .843.064 1.182.193s.59.305.75.525c.163.22.274.516.335.886l-.947.13c-.043-.295-.168-.525-.375-.69-.205-.165-.497-.247-.874-.247-.444 0-.763.075-.953.222-.19.146-.285.32-.285.518 0 .125.04.238.12.338.077.105.2.19.37.26.097.035.382.117.856.247.686.183 1.164.333 1.435.45.27.116.483.285.638.508s.23.5.23.83c0 .322-.094.627-.282.912s-.46.506-.815.662-.757.234-1.205.234c-.743 0-1.31-.153-1.7-.462s-.637-.767-.746-1.374zM55.006 42.87l1.002.123c-.158.585-.45 1.04-.878 1.362-.428.323-.973.484-1.637.484-.837 0-1.5-.26-1.99-.773s-.734-1.237-.734-2.167c0-.963.246-1.71.74-2.24.497-.53 1.14-.797 1.93-.797.764 0 1.39.26 1.873.78.485.52.728 1.253.728 2.197 0 .058 0 .144-.005.26H51.77c.036.627.214 1.108.533 1.442s.718.5 1.195.5c.355 0 .66-.094.91-.28.25-.186.45-.483.598-.893zm-3.183-1.567h3.193c-.043-.48-.165-.842-.366-1.082-.31-.373-.71-.56-1.2-.56-.445 0-.82.148-1.123.447-.304.297-.472.696-.504 1.196zM57.225 44.71v-5.718h.873v.813c.42-.628 1.026-.942 1.82-.942.344 0 .66.062.95.186.288.123.505.285.648.486s.244.44.302.716c.036.18.054.494.054.943v3.516h-.97v-3.478c0-.395-.037-.69-.112-.886a.936.936 0 0 0-.4-.47 1.28 1.28 0 0 0-.677-.174c-.413 0-.77.13-1.07.393-.3.263-.448.76-.448 1.492v3.123h-.97zM67.09 42.616l.953.124c-.104.656-.37 1.17-.8 1.543-.43.37-.956.557-1.58.557-.783 0-1.412-.256-1.888-.768-.476-.51-.714-1.244-.714-2.2 0-.616.104-1.157.308-1.62.205-.463.517-.81.935-1.04a2.766 2.766 0 0 1 1.365-.35c.62 0 1.13.157 1.523.472.397.314.65.76.76 1.338l-.94.146c-.09-.385-.25-.674-.478-.867a1.236 1.236 0 0 0-.827-.29c-.487 0-.885.175-1.19.525-.305.35-.457.903-.457 1.66 0 .77.147 1.327.44 1.676.296.35.68.522 1.153.522.382 0 .7-.116.954-.35s.417-.59.486-1.076zM72.786 42.87l1.002.123c-.158.585-.45 1.04-.878 1.362-.428.323-.973.484-1.637.484-.837 0-1.5-.26-1.99-.773s-.734-1.237-.734-2.167c0-.963.246-1.71.74-2.24.497-.53 1.14-.797 1.93-.797.764 0 1.39.26 1.873.78.485.52.728 1.253.728 2.197 0 .058 0 .144-.005.26H69.55c.036.627.214 1.108.533 1.442s.718.5 1.195.5c.355 0 .66-.094.91-.28.25-.186.45-.483.598-.893zm-3.182-1.567h3.193c-.043-.48-.165-.842-.366-1.082-.308-.373-.708-.56-1.2-.56-.444 0-.82.148-1.122.447-.304.297-.472.696-.504 1.196zM78.15 44.71v-7.894h2.96c.604 0 1.088.08 1.452.24s.65.406.856.738c.206.332.31.68.31 1.04 0 .34-.092.656-.275.954-.183.3-.46.54-.83.722.48.14.846.38 1.103.716.257.338.385.736.385 1.195 0 .37-.077.715-.233 1.032-.156.318-.35.562-.58.735a2.4 2.4 0 0 1-.863.39c-.346.09-.77.133-1.273.133h-3.01zm1.044-4.576H80.9c.464 0 .796-.03.997-.09.266-.08.466-.212.6-.395.135-.184.202-.414.202-.69 0-.262-.063-.493-.19-.692a.948.948 0 0 0-.537-.408c-.233-.074-.634-.11-1.2-.11h-1.578v2.384zm0 3.645h1.965c.337 0 .574-.014.71-.038.24-.043.44-.115.604-.216.16-.1.294-.247.398-.438.104-.192.156-.414.156-.666 0-.294-.075-.55-.227-.767-.15-.218-.358-.37-.626-.458s-.652-.132-1.155-.132h-1.826v2.714zM89.172 44.71v-.84c-.445.647-1.05.97-1.814.97-.338 0-.652-.064-.945-.193-.292-.13-.51-.292-.65-.487a1.837 1.837 0 0 1-.3-.72c-.04-.19-.06-.49-.06-.904v-3.543h.97v3.172c0 .506.02.848.06 1.023.06.254.19.455.388.6.198.146.442.22.732.22s.563-.075.82-.225c.254-.15.434-.353.54-.608.105-.257.158-.63.158-1.117v-3.064h.97v5.72h-.868zM91.563 37.932v-1.115h.97v1.115h-.97zm0 6.78v-5.72h.97v5.72h-.97zM93.986 44.71v-7.894h.97v7.895h-.97zM100.168 44.71v-.72c-.363.566-.896.85-1.6.85a2.24 2.24 0 0 1-1.258-.377 2.476 2.476 0 0 1-.888-1.053c-.21-.45-.315-.968-.315-1.553 0-.57.095-1.09.285-1.554s.476-.82.856-1.07.806-.37 1.276-.37a1.902 1.902 0 0 1 1.577.786v-2.834h.965v7.895h-.897zm-3.064-2.853c0 .732.154 1.28.463 1.643.31.36.674.543 1.094.543.424 0 .784-.173 1.08-.52.296-.346.444-.875.444-1.586 0-.782-.15-1.356-.452-1.723s-.673-.55-1.115-.55c-.43 0-.79.177-1.08.528s-.433.908-.433 1.665zM106.506 42.87l1.002.123c-.158.585-.45 1.04-.878 1.362-.428.323-.973.484-1.637.484-.837 0-1.5-.26-1.99-.773s-.734-1.237-.734-2.167c0-.963.246-1.71.74-2.24.497-.53 1.14-.797 1.93-.797.764 0 1.39.26 1.873.78.485.52.728 1.253.728 2.197 0 .058 0 .144-.005.26h-4.265c.036.627.214 1.108.533 1.442s.718.5 1.195.5c.355 0 .66-.094.91-.28.25-.186.45-.483.598-.893zm-3.183-1.567h3.193c-.043-.48-.165-.842-.366-1.082-.31-.373-.71-.56-1.2-.56-.445 0-.82.148-1.123.447-.304.297-.472.696-.504 1.196zM108.713 44.71v-5.718h.873v.867c.223-.407.428-.675.616-.804s.396-.193.622-.193c.326 0 .658.104.996.312l-.334.898a1.386 1.386 0 0 0-.71-.21.914.914 0 0 0-.57.19c-.17.13-.29.305-.362.53-.107.346-.16.723-.16 1.132v2.994h-.97z"/></g><path fill="#939393" d="M2.732 31.127H113.4v1H2.73z"/></svg>