<svg baseProfile="basic" xmlns="http://www.w3.org/2000/svg" width="92" height="82" viewBox="0 0 92 82"><circle fill="#05A872" cx="45.7" cy="41" r="41"/><path opacity=".2" d="M45.7 74.1c-18.2 0-33-14.8-33-33 0-3.2.5-6.5 1.4-9.6.1-.4.5-.6 1-.5.4.1.6.5.5 1-1 3-1.3 6.1-1.3 9.2 0 17.3 14.1 31.6 31.6 31.6 17.3 0 31.6-14.1 31.6-31.6 0-3.1-.5-6.2-1.3-9.2-.1-.4.1-.8.5-1 .4-.1.8.1 1 .5 1 3.1 1.4 6.3 1.4 9.6-.4 18.2-15.3 33-33.4 33z"/><circle opacity=".2" fill="#020202" cx="45.7" cy="41" r="23.8"/><path fill="#FFF" d="M56.1 53.6v-15c0-1-.7-1.7-1.7-1.7h-.8v-5.6c0-4.3-3.6-7.9-7.9-7.9s-7.9 3.6-7.9 7.9v5.6H37c-1 0-1.7.7-1.7 1.7v14.9c0 1 .7 1.7 1.7 1.7h17.5c.8.1 1.6-.7 1.6-1.6zM47 46.3v4.4c0 .7-.6 1.3-1.3 1.3s-1.3-.6-1.3-1.3v-4.4c-.8-.5-1.4-1.4-1.4-2.3 0-1.4 1.2-2.6 2.6-2.6s2.6 1.2 2.6 2.6c.1.9-.4 1.8-1.2 2.3zm3.2-9.4h-9v-5.6c0-2.5 2-4.5 4.5-4.5s4.5 2 4.5 4.5v5.6z"/><path opacity=".2" fill="#020202" d="M5.1 47c2 14.3 11.6 26.3 24.5 31.9h32.2C74.7 73.4 84.3 61.4 86.3 47H5.1z"/><path fill="#F7D50B" d="M78.3 72.1H0l5.9-11.4L0 48.9h78.3v11.6z"/><path opacity=".1" fill="#020202" d="M0 72.1l5.9-11.4L0 48.9l9 11.6z"/><path fill="#F7D50B" d="M13.1 48.9h78.3l-5.9 11.3 5.9 11.9H13.1z"/><path opacity=".1" fill="#020202" d="M91.4 72.1l-5.9-11.4 5.9-11.8-9 11.6z"/><path fill="#056643" d="M28.1 65.5l1.7-2.3c1 1.1 2.6 1.9 4.5 1.9 1.7 0 2.5-.7 2.5-1.6 0-2.5-8.2-.8-8.2-6.2 0-2.4 2-4.4 5.5-4.4 2.3 0 4.2.7 5.6 2L38 57.3c-1.2-1.1-2.7-1.6-4.2-1.6-1.3 0-2 .6-2 1.4 0 2.3 8.2.7 8.2 6.1 0 2.6-1.9 4.7-5.7 4.7-2.9-.1-4.9-1-6.2-2.4zm12.9 0l1.7-2.3c1 1.1 2.6 1.9 4.5 1.9 1.7 0 2.5-.7 2.5-1.6 0-2.5-8.2-.8-8.2-6.2 0-2.4 2-4.4 5.5-4.4 2.3 0 4.2.7 5.6 2l-1.7 2.3c-1.2-1.1-2.7-1.6-4.2-1.6-1.3 0-2 .6-2 1.4 0 2.3 8.2.7 8.2 6.1 0 2.6-1.9 4.7-5.7 4.7-2.9 0-4.9-.9-6.2-2.3zm13.9 2V53.2H58v11.7h6.1v2.7h-9.2v-.1zM81.2 60.6c0 .6-.5 1.1-1.1 1.1H68.3c-.6 0-1.1-.5-1.1-1.1s.5-1.1 1.1-1.1h11.8c.6 0 1.1.5 1.1 1.1zM24.9 60.6c0 .6-.5 1.1-1.1 1.1H12c-.6 0-1.1-.5-1.1-1.1s.5-1.1 1.1-1.1h11.8c.6 0 1.1.5 1.1 1.1z"/><circle fill="none" cx="45.7" cy="41" r="27.5"/><path fill="#FFF" d="M17 20.7l1 .6-2 3.3 1.4.8 1.1-1.7c.8-1.3 2.2-1.6 3.3-.8 1.2.7 1.6 2 .7 3.3l-1.7 2.9-6.5-3.9 2.7-4.5zm1.4 5.4l2 1.2 1-1.6c.4-.6.2-1.3-.4-1.7-.6-.4-1.3-.1-1.7.5l-.9 1.6zM24.3 23.7l-5.4-5.3 3.6-3.7.8.8-2.7 2.7 1.4 1.3 2.6-2.7.8.8-2.6 2.7 1.6 1.4 2.7-2.7.9 1-3.7 3.7zM26.3 16.3c-1.2-2-.6-4.3 1.3-5.4 1.3-.8 2.5-.6 3.5-.1l-.7 1.1c-.6-.4-1.6-.4-2.2.1-1.3.8-1.6 2.4-.7 3.7.8 1.3 2.4 1.8 3.7 1 .7-.5 1.1-1.2 1.1-1.9l1.3-.1c0 1.1-.4 2.3-1.7 3.1-2 .8-4.4.5-5.6-1.5zM39.8 14.1L38 8l-3.8 1.1 1.8 6.1-1.3.4-2.2-7.3 6.3-1.8 2.2 7.3-1.2.3zM41.7 12.6c.8 0 1.2-.4 1.4-2.6l.5-4h5.1v7.5h-1.3V7.1h-2.6l-.4 2.9c-.4 3.2-1.3 3.7-2.7 3.7v-1.1zM55.1 15.1l-.1-1.6-3.3-1-1 1.3-1.4-.4L54 6.9l1.6.5 1 8.1-1.5-.4zm-.6-6.6l-2.3 3.1 2.6.7-.3-3.8zM58.5 16.6l3.1-5.6-2-1.1.6-1.1 5.1 2.9-.6 1.1-2-1.1-3.1 5.6-1.1-.7zM66 22.4l2.3-2.4-2.9-2.7-2.3 2.4-1-1 5.3-5.5 1 1-2.2 2.3 2.9 2.7 2.2-2.3 1 1-5.3 5.5-1-1zM70.8 21.9c1.9-1.2 4.2-.6 5.4 1.3s.5 4.2-1.4 5.4-4.2.6-5.4-1.3c-1.1-2-.5-4.2 1.4-5.4zm3.2 5.6c1.3-.8 1.9-2.3 1.1-3.6-.7-1.3-2.3-1.6-3.6-.8-1.3.8-1.9 2.3-1.1 3.6.7 1.3 2.3 1.5 3.6.8z"/></svg>