<?xml version="1.0" encoding="utf-8"?>
<!-- Generator: Adobe Illustrator 16.0.0, SVG Export Plug-In . SVG Version: 6.00 Build 0)  -->
<!DOCTYPE svg PUBLIC "-//W3C//DTD SVG 1.1//EN" "http://www.w3.org/Graphics/SVG/1.1/DTD/svg11.dtd">
<svg version="1.1" id="Layer_1" xmlns="http://www.w3.org/2000/svg" xmlns:xlink="http://www.w3.org/1999/xlink" x="0px" y="0px"
     width="32.843px" height="26.9px" viewBox="0 0 32.843 26.9" enable-background="new 0 0 32.843 26.9" xml:space="preserve">
<image display="none" overflow="visible" opacity="0.4" width="1500" height="2682" xlink:href="../konkurs_Gomobi3.3.jpg"  transform="matrix(1 0 0 1 -264.9272 -2016.4932)">
</image>
<g>
    <rect fill="#6ABB3F" width="32.843" height="19.882"/>
    <polygon fill="#549234" points="24.335,26.9 32.843,19.882 24.335,19.882     "/>
    <g>
        <path fill="#FFFFFF" d="M17.012,12.685h-1.941c-0.005-0.278-0.008-0.449-0.008-0.509c0-0.629,0.104-1.147,0.312-1.554
            c0.208-0.405,0.625-0.863,1.249-1.371c0.624-0.506,0.997-0.839,1.119-0.997c0.188-0.247,0.282-0.521,0.282-0.821
            c0-0.416-0.166-0.771-0.499-1.069c-0.332-0.296-0.781-0.444-1.344-0.444c-0.543,0-0.997,0.154-1.362,0.464
            c-0.366,0.311-0.617,0.781-0.754,1.415l-1.964-0.242c0.056-0.909,0.442-1.681,1.161-2.315c0.719-0.634,1.661-0.95,2.828-0.95
            c1.229,0,2.205,0.32,2.931,0.963c0.726,0.642,1.088,1.389,1.088,2.241c0,0.472-0.132,0.918-0.399,1.339
            c-0.267,0.423-0.836,0.995-1.708,1.722c-0.452,0.375-0.732,0.677-0.841,0.904C17.051,11.688,17.001,12.097,17.012,12.685z
             M15.071,15.562v-2.139h2.139v2.139H15.071z"/>
    </g>
</g>
</svg>
