<svg xmlns="http://www.w3.org/2000/svg" width="37" height="45" viewBox="-45 1.387 37 45"><path fill-rule="evenodd" clip-rule="evenodd" fill="#FFF" d="M-11 46.387h-30.66c-1.103 0-2-.92-2-2.057V42.5H-9v1.83c0 1.137-.895 2.057-2 2.057m-31.687-31.544c0-1.135.896-2.28 2-2.28h4.36c0-5.68 4.477-10.063 9.998-10.063s9.998 4.382 9.998 10.062h4.36c1.105 0 2 1.146 2 2.28L-9 40.5h-35l1.313-25.657zm22.356-2.28c0-3.41-2.687-5.95-6-5.95s-6 2.54-6 5.95h12z"/><path fill="#7E7E7E" d="M-26.5 16.012c-5.89 0-10.667 4.775-10.667 10.666 0 5.892 4.776 10.666 10.667 10.666 5.89 0 10.666-4.774 10.666-10.666 0-5.89-4.775-10.666-10.666-10.666zm-9.143 11.318h3.73a19.16 19.16 0 0 0 .36 3.154h-3.288a9.102 9.102 0 0 1-.803-3.154zm9.887-6.066V17.81c.994.428 1.855 1.69 2.44 3.454h-2.44zm2.838 1.49c.204.948.334 1.99.38 3.09h-3.218v-3.09h2.838zm-4.325-4.942v3.453h-2.44c.584-1.766 1.447-3.027 2.44-3.453zm0 4.94v3.092h-3.216c.046-1.1.176-2.142.38-3.09h2.837zm-4.662 3.092h-3.725c.1-1.1.392-2.14.843-3.09h3.26a18.68 18.68 0 0 0-.378 3.09zm1.44 1.486h3.222v3.154h-2.863c-.2-.968-.325-2.032-.36-3.154zm3.222 4.644v3.57c-1.015-.435-1.894-1.747-2.478-3.57h2.477zm1.487 3.57v-3.57h2.477c-.584 1.823-1.46 3.135-2.476 3.57zm0-5.06V27.33h3.222a19.056 19.056 0 0 1-.36 3.154h-2.862zm4.668-3.154h3.73a9.08 9.08 0 0 1-.8 3.154h-3.287a19.27 19.27 0 0 0 .357-3.154zm-.006-1.486a19.006 19.006 0 0 0-.377-3.09h3.258c.452.95.743 1.99.842 3.09h-3.724zm1.992-4.58h-2.753c-.4-1.28-.938-2.38-1.572-3.226a9.18 9.18 0 0 1 4.325 3.226zm-10.47-3.225c-.635.845-1.173 1.944-1.573 3.225h-2.753a9.158 9.158 0 0 1 4.327-3.226zm-4.412 13.934h2.804c.403 1.33.955 2.474 1.608 3.344a9.194 9.194 0 0 1-4.412-3.344zm10.556 3.343c.655-.87 1.206-2.015 1.61-3.344h2.802a9.177 9.177 0 0 1-4.412 3.344z"/></svg>