<svg xmlns="http://www.w3.org/2000/svg" width="49" height="50" viewBox="0 0 49 50"><path fill-rule="evenodd" clip-rule="evenodd" fill="#FFF" d="M18.006 43.924c0 2.068.587 2.29 2.9 2.29 2.037 0 2.9-.344 2.9-2.29V6.698h-5.8v37.226zM44.36 8.04l-19.075.047v11.676h19.197L49 13.903 44.36 8.04zM20.876 2.18c-2.557 0-2.808 1.794-2.808 3.008 1.072-.095 5.74 0 5.74 0 0-1.214-.496-3.007-2.932-3.007zm4.41 19.17v8.67H38.62l4.52-4.396-4.64-4.335-13.215.06zM.3 13.843l4.336 5.998h11.86V8.103l-11.738.014L.3 13.842z"/></svg>