<svg xmlns="http://www.w3.org/2000/svg" width="49" height="50" viewBox="0 0 49 50"><g fill="#FFF"><path d="M40.61 5.11H9.394A4.475 4.475 0 0 0 4.92 9.585v31.218a4.474 4.474 0 0 0 4.474 4.475H40.61a4.474 4.474 0 0 0 4.475-4.475V9.583A4.475 4.475 0 0 0 40.61 5.11zm-5.022 19.003c-.642 1.205-1.457 2.148-2.444 2.835-.988.687-1.99 1.144-3.014 1.365-1.385.274-3.396.412-6.024.412h-3.79V39.58h-5.81V10.806h9.323c3.532 0 5.834.144 6.907.432 1.65.43 3.03 1.37 4.143 2.817 1.11 1.446 1.67 3.313 1.67 5.603 0 1.766-.322 3.25-.962 4.455z"/><path d="M27.302 15.87c-.692-.13-2.085-.197-4.18-.197h-2.806v8.166h3.18c2.29 0 3.82-.152 4.59-.453.773-.3 1.38-.77 1.818-1.414.438-.64.655-1.387.655-2.238 0-1.046-.307-1.91-.922-2.59-.615-.68-1.392-1.104-2.336-1.275z"/></g></svg>