<svg xmlns="http://www.w3.org/2000/svg" width="40" height="50" viewBox="0 0 40 50"><path fill="#FFF" d="M29.45 1.51H5.16A4.242 4.242 0 0 0 .916 5.753v38.495A4.24 4.24 0 0 0 5.16 48.49h29.68a4.242 4.242 0 0 0 4.244-4.242V11.145L29.45 1.51zM6.9 15.26h26.2v2.07H6.9v-2.07zm0 5.917h26.2v2.07H6.9v-2.07zm0 6.167h26.2v2.07H6.9v-2.07zm14.985 7.986H6.9v-2.07h14.985v2.07zm11.002 4.325l.557 2.272-2.283-.502-.884 2.164-1.555-1.75-1.987 1.23-.23-2.326-2.33-.17 1.183-2.02-1.787-1.51 2.144-.938-.557-2.27 2.283.5.885-2.164 1.553 1.75 1.988-1.232.23 2.328 2.33.17-1.182 2.02 1.785 1.51-2.143.937zm-3.98-28.312v-8.46l8.587 8.46h-8.586z"/></svg>