<svg xmlns="http://www.w3.org/2000/svg" width="41" height="43" viewBox="3.117 1.5 41 43"><path fill="#FFF" d="M3.117 6.5H43v17H3.117z"/><path fill="#7E7E7E" d="M12.985 13.375c0-1.658-1.1-2.875-2.895-2.875H6.06v8.922h1.834v-3.17h1.343l1.693 3.17h2.106l-1.938-3.398c.93-.227 1.887-1.07 1.887-2.65zM9.82 14.58H7.893v-2.407H9.82c.735 0 1.29.455 1.29 1.203 0 .75-.554 1.205-1.29 1.205zM32.146 10.54v1.898h2.96v7.023h1.823V12.44h2.966v-1.9zM15 19.422h6.98V17.75H17.1v-2.02h4.775v-1.672H17.1v-1.885h4.88V10.5H15zM29 16.144l-4.016-5.605h-1.898v8.92h1.846v-5.818l4.132 5.82h1.78v-8.923H29z"/><path fill="#FFF" d="M23 2.5a3 3 0 0 0-3 3h6a3 3 0 0 0-3-3zM20 24.5h6v20h-6z"/></svg>