<svg xmlns="http://www.w3.org/2000/svg" width="13.25" height="13.25" viewBox="0 0 13.25 13.25"><circle fill="#525251" cx="6.625" cy="6.625" r="6.625"/><path fill="#FFF" d="M5.785 8.692V7.97c0-.2.035-.38.105-.546.07-.166.164-.32.28-.468s.25-.287.396-.422c.147-.134.297-.266.453-.398.13-.115.263-.23.393-.35.13-.117.246-.24.347-.372.1-.13.182-.27.243-.418s.092-.312.092-.49a1.59 1.59 0 0 0-.086-.533 1.214 1.214 0 0 0-.262-.438 1.213 1.213 0 0 0-.44-.293 1.66 1.66 0 0 0-.625-.108c-.224 0-.43.047-.613.142s-.345.228-.48.4a2.09 2.09 0 0 0-.326.614c-.082.24-.132.505-.15.793H3.688c.02-.438.104-.838.257-1.2.153-.363.362-.675.627-.936a2.81 2.81 0 0 1 .936-.606c.358-.144.75-.216 1.175-.216.52 0 .964.068 1.33.205.364.135.663.314.894.537s.397.478.5.765c.103.286.154.578.154.875 0 .21-.032.404-.1.58-.065.175-.153.342-.263.498s-.234.306-.373.448c-.14.143-.28.284-.422.425-.12.11-.234.224-.345.34a3.074 3.074 0 0 0-.302.362c-.09.126-.16.26-.212.4-.053.14-.08.294-.08.457v.676H5.786zm1.68 1.078v1.355h-1.68V9.77h1.68z"/></svg>