<svg xmlns="http://www.w3.org/2000/svg" width="121.434" height="108.186" viewBox="0 0 121.434 108.186"><path fill="#EEE" d="M44.753 29.526c.06.642.63 1.113 1.27 1.056l.138-.015a1.17 1.17 0 0 0 1.055-1.27l-.473-5.062a1.17 1.17 0 0 0-1.27-1.054l-.138.013a1.17 1.17 0 0 0-1.055 1.27l.473 5.063z"/><path fill="#FFD79D" d="M75.93 29.612c-.046.645.492 1.2 1.202 1.24l.15.008c.71.042 1.32-.445 1.365-1.09l.358-5.072c.046-.643-.492-1.196-1.2-1.24l-.152-.007c-.708-.04-1.318.447-1.363 1.093l-.36 5.07zM43.65 29.903c.106.638.76 1.052 1.457.927l.15-.027c.697-.125 1.18-.742 1.073-1.377l-.832-5.017c-.104-.638-.757-1.052-1.457-.93l-.147.028c-.7.125-1.18.742-1.074 1.38l.83 5.015z"/><path fill="#E6E6E6" d="M51.973 36h18v20h-18z"/><ellipse fill="#E6E6E6" cx="60.993" cy="46.749" rx="9.064" ry="3.021"/><path fill="#AFAFAF" d="M51.973 38h20v2.91c-3 2.908-7.012 4.675-10.097 4.675-3.01 0-5.903-1.7-9.903-4.513v-3.07z"/><path fill="#D3B59C" d="M44.48 24.866C44.48 36.04 54.316 45.1 61.03 45.1c6.756 0 16.548-9.062 16.548-20.234 0-11.177-7.41-20.236-16.548-20.236-9.138 0-16.547 9.06-16.547 20.236z"/><ellipse fill="#FFF" cx="69.234" cy="24.229" rx="3.039" ry="2.254"/><ellipse fill="#FFF" cx="53.497" cy="24.229" rx="3.039" ry="2.254"/><path opacity=".3" fill="#70462D" d="M46.915 37.29c1.236 2.005 4.066 2.7 6.326 1.555 2.26-1.146 3.088-3.7 1.852-5.706-1.234-2.006-4.066-2.7-6.326-1.555-2.257 1.145-3.086 3.7-1.85 5.705zM66.79 37.753c1.51 2.45 4.972 3.3 7.73 1.897 2.762-1.397 3.774-4.522 2.265-6.974-1.51-2.452-4.974-3.304-7.735-1.902-2.758 1.403-3.773 4.528-2.26 6.98z"/><path opacity=".2" fill="#010101" d="M55.32 16h9.889H55.32z"/><ellipse fill="#7C604A" cx="53.667" cy="24.224" rx=".921" ry=".836"/><ellipse opacity=".5" fill="#FFF" cx="53.437" cy="23.968" rx=".218" ry=".196"/><ellipse fill="#7C604A" cx="69.322" cy="24.224" rx=".922" ry=".836"/><ellipse opacity=".5" fill="#FFF" cx="69.092" cy="23.968" rx=".219" ry=".196"/><path fill="#FFF" d="M39.973 63.278v-.367c1 0 0 .165 0 .368v11.77c0 .205 1 .37 0 .37V63.278z"/><path fill="#E2E2E2" d="M93.624 85.27V56.68c0-7.143-7.47-13.095-17.307-13.095H46.035c-.516 0-1.02.02-1.524.053v-.013c-6.115.33-11.178 2.98-13.886 6.724-1.403 1.884-2.2 4.046-2.2 6.33v15.435h.072v13.15c0 .714-.16 1.366-.01 1.964 4.866.442 10.247.886 16.023 1.2v-.067c5.71.287 11.505.508 17.782.508 11.708 0 22.39-.82 31.337-1.635.153-.598-.006-1.25-.006-1.966z"/><path opacity=".15" fill="#9B9B9B" d="M46.973 88.362v.066c-5-.313-11.15-.757-16.016-1.2-.15-.598.016-1.25.016-1.965V56.68c0-2.284.754-4.446 2.157-6.33 2.707-3.746 7.843-6.396 13.843-6.725v.013c1-.03 1.41-.637 1.924-.637h-2.86c-.516 0-1.062.605-1.062.638v-.013c-6 .33-11.135 2.98-13.842 6.724-1.404 1.884-2.158 4.046-2.158 6.33v28.584c0 .715-.166 1.367-.016 1.965 4.863.442 10.015.886 16.015 1.2v-.067c5 .287 11.275.508 17.553.508.48 0 .636-.004 1.11-.006a361.79 361.79 0 0 1-16.665-.502z"/><path opacity=".15" fill="#9B9B9B" d="M74.973 88.362v.066c6-.313 11.15-.757 16.016-1.2.15-.598-.017-1.25-.017-1.965V56.68c0-2.284-.754-4.446-2.158-6.33-2.705-3.746-7.842-6.396-13.842-6.725v.013c0-.03-1.106-.637-1.622-.637h2.863c.514 0 .76.605.76.638v-.013c7 .33 11.635 2.98 14.342 6.724 1.404 1.884 2.658 4.046 2.658 6.33v28.584c0 .715-.332 1.367-.484 1.965-4.865.442-10.517.886-16.517 1.2v-.067c-6 .287-11.123.508-17.4.508-.48 0-.713-.004-1.188-.006 5.728-.032 10.588-.236 16.588-.502z"/><path opacity=".34" fill="#010101" d="M81.973 89.26V64.262c0-.28.396-1.262.238-1.262h-.015c-.155 0-1.224.98-1.224 1.263v24.89l1.003.106zM39.973 88.306V63.31c0-.282.77-.31.925-.31h.016c.154 0 .06.026.06.31v24.888l-1 .108z"/><path opacity=".2" fill="#010101" d="M63.973 30.42c0 1.626-1.184 2.942-2.5 2.942-1.318 0-2.5-1.316-2.5-2.94v-7.065c0-1.626 1.182-2.942 2.5-2.942 1.316 0 2.5 1.316 2.5 2.942v7.064z"/><circle fill="#ED5A5A" cx="63.461" cy="30.621" r="1.192"/><circle fill="#ED5A5A" cx="59.11" cy="30.621" r="1.192"/><path fill="#F66" d="M63.973 29.243c0 1.625-1.184 2.942-2.5 2.942-1.318 0-2.5-1.317-2.5-2.942V22.18c0-1.627 1.182-2.944 2.5-2.944 1.316 0 2.5 1.317 2.5 2.943v7.063z"/><path fill="#B29076" d="M110.27 52.147c-.554.564-.258 1.18.305 1.73.563.557 1.182.842 1.735.276.556-.562 2.186-2.98 1.623-3.533-.564-.553-3.11.965-3.663 1.527z"/><path fill="#D3B59C" d="M96.596 63.704c-.984-2.033.543-4.908 3.41-6.424 1.615-.854 3.31-1.093 4.662-.775l5.627-4.857c.884-.762 2.177-.69 2.89.158s.575 2.156-.308 2.918l-3.15 2.72c-1.772 1.995-1.353 1.976-2.988 4.218-.063.086-.13.168-.19.253-.64 1.053-1.666 2.032-2.98 2.728-2.87 1.512-5.992 1.093-6.974-.94z"/><path fill="#B29076" d="M118.24 47.038c-.34.47-.69.426-1.006.2-.314-.225-.474-.543-.137-1.016.336-.472 1.77-2.03 2.085-1.808.315.228-.606 2.153-.943 2.624z"/><path fill="#D3B59C" d="M99.62 59.233c2.096-.138 4.013 1.514 4.28 3.685l-1.695 7.42-7.08 4.6 1.19-11.524c-.27-2.175 1.207-4.045 3.306-4.18z"/><path fill="#B29076" d="M96.31 62.137l-1.412 12.42.48.317 1.12-9.803c-.13-.974-.276-1.875-.19-2.933zM103.902 62.917l-1.696 7.42-.904.587 1.376-10.5a4.26 4.26 0 0 1 1.224 2.493z"/><path fill="#D3B59C" d="M119.246 45.54c.64.48.682 1.565.093 2.427l-5.12 8.27c-.588.86-1.586 1.17-2.226.688-.644-.48-.684-1.565-.57-2.398l5.12-8.27c.884-1.313 2.062-1.197 2.702-.717z"/><g fill="#B29076"><path d="M116.235 53.26l.128-.176-.636-.482c-.052-.037-.118-.028-.15.02a.113.113 0 0 0 .028.156l.63.48zM116.573 52.735l.13-.174-.638-.48c-.05-.037-.12-.03-.15.02a.12.12 0 0 0 .027.158l.63.477zM117.005 52.17l.126-.173-.636-.482a.104.104 0 0 0-.15.02.116.116 0 0 0 .03.157l.63.48z"/></g><path opacity=".34" fill="#9B9B9B" d="M94.54 69.23l-2.066-2.702s-3.917 14.942-6.778 17.805c-2.86 2.86 3.936 6.678 3.936 6.678l4.908-21.78z"/><path fill="#E2E2E2" d="M83.458 92.236c3.882-5.18 6.882-13.47 8.836-24.56l12.68 2.233c-1.825 10.36-4.573 18.817-8.217 25.342-3.873-1.294-8.37-2.324-13.3-3.016z"/><path opacity=".34" fill="#9B9B9B" d="M92.475 68.767c.055-.17.235-2.593.333-2.464.098.128 1.46 2.035 1.46 2.035l1.022-1.6.593 1.238.643-2.58 1.42 2.593.976-.78s.11 1.13.123 1.013c.013-.116.926-2.606 1.116-3 .19-.39 1.473 3.066 1.473 3.066s1.547-.574 1.52-.665c-.026-.092.664 1.1.664 1.1l.51.11.136.84.537.526-12.525-1.433z"/><path fill="#E2E2E2" d="M92.14 69.056c.057-.17.234-2.593.336-2.465s1.503 2.04 1.503 2.04l1.046-1.594.936 1.27.665-2.69 1.13 2.677 1-.777s.588 1.298.6 1.182.636-2.757.827-3.147c.194-.39 1.36 3.055 1.36 3.055s1.585-.567 1.557-.66c-.028-.09.69 1.103.69 1.103l.52.114.14.838.557.528-12.867-1.472z"/><path opacity=".34" fill="#9B9B9B" d="M104.975 69.91s-2.945 17.82-7.715 23.424c-4.77 5.604.358-3.637.358-3.637l1.013-1.85s4.78-10.43 5.816-17.853c.206.09.53-.084.53-.084z"/><path opacity=".2" d="M119.486 45.844c-.557-.524-1.52-.322-2.153.452l-5.347 7.396c-.202.048-.706.47-.895.598l-3.158 2.562c-2.086.12-3.58.38-6.02 2.206-2.892 2.16-4.193 4.665-3.398 5.782.605.85 2.788-.268 4.923-1.406.242-.043.482-.132.705-.283l8.748-6.637c.193-.134.354-.296.48-.476a2.26 2.26 0 0 0 .4-.375l5.574-7.474c.636-.77.7-1.822.142-2.344z"/><path fill="#D3B59C" d="M119.865 45.74c-.61-.518-1.625-.268-2.265.56l-5.514 7.846c-.213.06-.422.156-.616.296l-3.48 2.828c-1.288-.405-3.513.454-6.02 2.443-2.97 2.356-4.12 4.558-3.23 5.678.677.854 2.65.473 4.865-.796a1.94 1.94 0 0 0 .733-.322l8.987-7.23c.198-.146.362-.32.488-.512.146-.114.284-.245.407-.404l5.593-7.955c.64-.827.664-1.915.052-2.43z"/><path fill="#B29076" d="M120.425 47.315c-.337.474-.69.43-1.005.202-.314-.224-.475-.543-.136-1.016.336-.472 1.77-2.03 2.085-1.81.314.23-.608 2.155-.945 2.625z"/><g fill="#B29076"><path d="M115.615 54.163l-.122.18-.667-.44a.103.103 0 0 1-.032-.147.115.115 0 0 1 .158-.024l.663.43zM115.234 54.656l-.12.18-.667-.44c-.053-.033-.067-.1-.032-.146a.114.114 0 0 1 .156-.026l.664.432zM114.847 55.252l-.12.177-.668-.44a.105.105 0 0 1-.033-.148.115.115 0 0 1 .158-.023l.662.432z"/></g><g fill="#B29076"><path d="M118.953 49.396l-.122.178-.666-.438a.104.104 0 0 1-.032-.148.115.115 0 0 1 .158-.024l.663.432zM118.572 49.888l-.12.18-.666-.44c-.053-.034-.067-.102-.033-.148a.115.115 0 0 1 .158-.023l.662.43zM118.186 50.483l-.122.18-.667-.44a.104.104 0 0 1-.03-.15c.033-.047.104-.058.156-.022l.663.433z"/></g><path fill="#B29076" d="M11.164 52.147c.555.564.258 1.18-.305 1.73-.564.557-1.183.842-1.736.276-.555-.562-2.186-2.98-1.623-3.533s3.11.965 3.664 1.527z"/><path fill="#D3B59C" d="M24.838 63.704c.983-2.033-.542-4.908-3.41-6.424-1.615-.854-3.31-1.093-4.662-.775l-5.627-4.857c-.884-.762-2.178-.69-2.89.158s-.576 2.156.307 2.918l3.15 2.72c1.77 1.995 1.354 1.976 2.987 4.218.062.086.13.168.19.253.64 1.053 1.666 2.032 2.98 2.728 2.868 1.512 5.99 1.093 6.974-.94z"/><path fill="#B29076" d="M3.195 47.038c.338.47.69.426 1.006.2.314-.225.474-.543.137-1.016-.337-.472-1.77-2.03-2.086-1.808-.313.228.607 2.153.945 2.624z"/><path fill="#D3B59C" d="M21.813 59.233c-2.096-.138-4.013 1.514-4.282 3.685l1.698 7.42 7.08 4.6-1.19-11.524c.273-2.175-1.207-4.045-3.305-4.18z"/><path fill="#B29076" d="M25.125 62.137l1.41 12.42-.478.317-1.122-9.803c.13-.974.277-1.875.19-2.933zM17.53 62.917l1.698 7.42.904.587-1.376-10.5a4.255 4.255 0 0 0-1.225 2.493z"/><path fill="#D3B59C" d="M2.188 45.54c-.64.48-.682 1.565-.093 2.427l5.118 8.27c.59.86 1.587 1.17 2.228.688.644-.48.684-1.565.57-2.398l-5.12-8.27c-.885-1.313-2.063-1.197-2.702-.717z"/><g fill="#B29076"><path d="M5.198 53.26l-.128-.176.637-.482c.05-.037.118-.028.15.02.035.05.022.122-.028.156l-.632.48zM4.86 52.735l-.128-.174.637-.48c.05-.037.117-.03.15.02a.12.12 0 0 1-.027.158l-.634.477zM4.43 52.17l-.127-.173.636-.482c.05-.038.117-.027.15.02.033.05.02.12-.03.157l-.63.48z"/></g><path opacity=".34" fill="#9B9B9B" d="M26.895 69.23l2.065-2.702s3.917 14.942 6.777 17.805c2.862 2.86-3.935 6.678-3.935 6.678l-4.907-21.78z"/><path fill="#E2E2E2" d="M37.976 92.236c-3.882-5.18-6.882-13.47-8.836-24.56L16.46 69.91c1.824 10.362 4.573 18.818 8.216 25.343 3.875-1.295 8.37-2.325 13.3-3.017z"/><path opacity=".34" fill="#9B9B9B" d="M28.96 68.767c-.057-.17-.235-2.593-.334-2.464-.1.128-1.46 2.035-1.46 2.035l-1.022-1.6-.593 1.238-.643-2.58-1.42 2.593-.975-.78s-.11 1.13-.123 1.013c-.014-.116-.927-2.606-1.117-3-.188-.39-1.472 3.066-1.472 3.066s-1.546-.574-1.518-.665c.025-.092-.665 1.1-.665 1.1l-.51.11-.136.84-.538.526 12.527-1.433z"/><path fill="#E2E2E2" d="M29.294 69.056c-.058-.17-.234-2.593-.335-2.465a275.55 275.55 0 0 0-1.505 2.04l-1.047-1.594-.936 1.27-.666-2.69-1.13 2.677-.998-.777s-.59 1.298-.6 1.182c-.014-.116-.636-2.757-.828-3.147-.194-.39-1.358 3.055-1.358 3.055s-1.587-.567-1.56-.66-.687 1.103-.687 1.103l-.52.114-.142.838-.555.528 12.866-1.472z"/><path opacity=".34" fill="#9B9B9B" d="M16.46 69.91s2.943 17.82 7.714 23.424c4.77 5.604-.358-3.637-.358-3.637l-1.013-1.85s-4.778-10.43-5.816-17.853c-.205.09-.528-.084-.528-.084z"/><path opacity=".2" d="M1.947 45.844c.558-.524 1.523-.322 2.155.452l5.345 7.396c.203.048.706.47.896.598l3.16 2.562c2.085.12 3.58.38 6.02 2.206 2.89 2.16 4.192 4.665 3.398 5.782-.605.85-2.787-.268-4.923-1.406a1.824 1.824 0 0 1-.705-.283l-8.748-6.637a1.922 1.922 0 0 1-.48-.476 2.187 2.187 0 0 1-.398-.375L2.09 48.188c-.637-.77-.7-1.822-.143-2.344z"/><path fill="#D3B59C" d="M1.568 45.74c.61-.518 1.625-.268 2.265.56l5.514 7.846c.213.06.422.156.616.296l3.48 2.828c1.288-.405 3.513.454 6.02 2.443 2.97 2.356 4.12 4.558 3.23 5.678-.677.854-2.65.473-4.865-.796a1.933 1.933 0 0 1-.733-.322l-8.986-7.23a1.97 1.97 0 0 1-.49-.512 2.257 2.257 0 0 1-.407-.404L1.62 48.17c-.64-.827-.663-1.915-.052-2.43z"/><path fill="#B29076" d="M1.008 47.315c.34.474.69.43 1.006.202.315-.224.474-.543.136-1.016-.336-.472-1.77-2.03-2.085-1.81-.314.23.606 2.155.943 2.625z"/><g fill="#B29076"><path d="M5.82 54.163l.12.18.667-.44c.053-.032.066-.1.032-.147s-.107-.06-.16-.024l-.66.43zM6.2 54.656l.12.18.665-.44c.054-.033.068-.1.033-.146a.115.115 0 0 0-.157-.026l-.66.432zM6.587 55.252l.12.177.668-.44a.105.105 0 0 0 .032-.148.115.115 0 0 0-.158-.023l-.663.432z"/></g><g fill="#B29076"><path d="M2.48 49.396l.122.178.667-.438a.105.105 0 0 0 .03-.148.115.115 0 0 0-.157-.024l-.663.432zM2.86 49.888l.12.18.667-.44c.054-.034.068-.102.034-.148a.115.115 0 0 0-.157-.023l-.662.43zM3.25 50.483l.12.18.667-.44a.104.104 0 0 0 .03-.15c-.033-.047-.104-.058-.156-.022l-.66.433z"/></g><path opacity=".34" fill="#9B9B9B" d="M104.725 86.73c-.298-1.46-1.302-2.757-2.815-3.398a4.99 4.99 0 0 0-5.408.996 3.863 3.863 0 0 0-3.812-.583 3.755 3.755 0 0 0-1.402.953c-.647-1.377-2.306-2.03-3.772-1.464a2.914 2.914 0 0 0-1.444 1.205c-.487-.063-1-.013-1.49.178a2.922 2.922 0 0 0-1.356 1.065 6.865 6.865 0 0 0-3.823-.762 6.332 6.332 0 0 0-4.333.503c-.907-1.364-2.543-2.216-4.336-2.08a4.83 4.83 0 0 0-2.053.63c-.238-1.882-1.967-3.27-3.945-3.123a3.738 3.738 0 0 0-2.198.918 3.802 3.802 0 0 0-3.894.455 8.512 8.512 0 0 0-6.687-2.47 8.626 8.626 0 0 0-2.67.636 8.547 8.547 0 0 0-5.82-1.706 8.465 8.465 0 0 0-5.48 2.545 6.253 6.253 0 0 0-4.303-1.286c-2.854.213-5.1 2.282-5.577 4.887a6.275 6.275 0 0 0-3.667-.853c-3.386.253-5.92 3.106-5.66 6.376.257 3.27 3.208 5.715 6.594 5.462 2.855-.213 5.1-2.282 5.575-4.888a6.264 6.264 0 0 0 3.667.854 6.236 6.236 0 0 0 2.407-.676c1.607 2.44 4.52 3.964 7.715 3.728a8.615 8.615 0 0 0 2.668-.637c.214.16.435.312.66.454.005.128.012.26.022.39.332 4.214 3.83 7.45 8.073 7.726a5.014 5.014 0 0 0 5.13.913 4.776 4.776 0 0 0 2.91-3.186 2.474 2.474 0 0 0 1.868-1.706 4.913 4.913 0 0 0 2.205-.802c.79.42 1.705.635 2.67.562.024-.002.045-.007.067-.01.315.11.64.198.97.263 1.18.8 2.64 1.226 4.187 1.11A6.514 6.514 0 0 0 79 99.02c1.767 2.617 5.252 3.757 8.372 2.548a6.833 6.833 0 0 0 3.518-3.034c.273.01.555-.03.824-.138a1.924 1.924 0 0 0 1.25-1.927c.376-.35.694-.746.94-1.18.85.293 1.805.302 2.706-.046.147-.06.287-.125.424-.197 1.195.48 2.582.53 3.883.025 1.637-.635 2.748-1.994 3.1-3.543.272-.32.507-.68.69-1.078a4.56 4.56 0 0 0 .015-3.722z"/><path fill="#FFF" d="M24.743 99.134c3.15-.145 5.693-2.424 6.312-5.377a6.754 6.754 0 0 0 6.686.415 9.235 9.235 0 0 0 11.327 3.882c.23.19.468.372.713.54 0 .148.005.297.01.446.24 5.286 4.72 9.377 10.01 9.136a9.51 9.51 0 0 0 6.02-2.5c.355.14.74.21 1.145.192a2.77 2.77 0 0 0 2.54-2.037 7.205 7.205 0 0 0 1.783-1.162 5.268 5.268 0 0 0 3.557 1.17c.22-.01.433-.04.644-.073a7.066 7.066 0 0 0 5.06 1.806 7.072 7.072 0 0 0 5.717-3.378c.506-.31.98-.688 1.406-1.144a6.723 6.723 0 0 0 1.784-5.028 6.72 6.72 0 0 0-2.08-5.88 6.734 6.734 0 0 0-7.532-1.122 5.2 5.2 0 0 0-6.986-1.874 4.072 4.072 0 0 0-4.238-3.7c-.94.043-1.79.404-2.453.974a4.06 4.06 0 0 0-4.304.382 9.204 9.204 0 0 0-7.28-3.048 9.197 9.197 0 0 0-2.96.633 9.202 9.202 0 0 0-6.354-2.148 9.21 9.21 0 0 0-6.126 2.71 6.742 6.742 0 0 0-4.69-1.612c-3.154.144-5.695 2.424-6.314 5.376a6.726 6.726 0 0 0-4.008-1.1 6.772 6.772 0 0 0-6.457 7.07 6.76 6.76 0 0 0 7.066 6.454z"/><path fill="#FFF" d="M63.936 103.66a4.948 4.948 0 0 0 3.146-5.182 4.92 4.92 0 0 0 4.73-1.248 6.75 6.75 0 0 0 8.752.096c.203.08.408.15.618.212a7.002 7.002 0 0 0 12.754 1.23 2.02 2.02 0 0 0 2.132-2.125c.385-.357.712-.768.97-1.217a3.84 3.84 0 0 0 3.167-.204 5.175 5.175 0 0 0 7.115-3.562 5.04 5.04 0 0 0 .712-1.117 4.91 4.91 0 0 0 .083-3.897 4.917 4.917 0 0 0-8.275-2.65 3.8 3.8 0 0 0-5.278.302 2.977 2.977 0 0 0-3.79-1.594 2.96 2.96 0 0 0-1.478 1.235 2.984 2.984 0 0 0-1.51.16 2.96 2.96 0 0 0-1.39 1.093 6.73 6.73 0 0 0-5.75-.44 6.653 6.653 0 0 0-1.91 1.117 6.716 6.716 0 0 0-4.897-.032 6.732 6.732 0 0 0-3.63 3.287 4.915 4.915 0 0 0-3.625-.043 4.945 4.945 0 0 0-3.146 5.18 4.932 4.932 0 0 0-3.034.155 4.946 4.946 0 0 0-2.854 6.39 4.946 4.946 0 0 0 6.388 2.852z"/><g opacity=".34" fill="#010101"><path d="M58.772 15.65l.277.078s1.06.52 1.23 1.588v-5.66c-1.024 1.773-1.585 3.34-1.508 3.995zM47.77 30.045c-.68-2.504-.828-4.46-.65-3.81.397 1.465 2.026 2.458 3.617 1.94-.835-.69-4.054-5.205-3.06-4.13 1.337 1.45 5.007 1.27 3.456.69-1.55-.574-1.43-1.035-2.623-3.224-1.58-6.962 7.303-6.42 10.063-5.702v-6.27H47.295c-.353.48-.7 1.002-1.05 1.573-3.543 5.803-4.794 12.652-4.98 18.936h6.504zM59.886 18.952c-.468.778-.162.854.396.55v-1.598a2.857 2.857 0 0 1-.396 1.048z"/></g><path opacity=".34" fill="#010101" d="M50.2 22.995c4.2-1.436 6.224-1.408 11.226-1.408 5.28 0 8.057-.026 11.52 1.553.692-.3 1.088-.63 1.088-.98 0-1.318-5.514-2.39-12.31-2.39-6.8 0-12.312 1.07-12.312 2.39 0 .296.288.577.79.835z"/><path fill="#F4F4F4" d="M50.2 22.52c4.2-1.437 6.224-1.41 11.226-1.41 5.28 0 8.057-.025 11.52 1.554.692-.3 1.088-.63 1.088-.98 0-1.317-5.514-2.39-12.31-2.39-6.8 0-12.312 1.07-12.312 2.39 0 .295.288.577.79.835z"/><path opacity=".34" fill="#010101" d="M75.02 22.495c-.83 1.102-1.93 2.46-2.375 2.813 1.67.52 3.38-.48 3.798-1.957.408-1.448-.836 9.91-6.093 11.77-4.495 1.588-16.933.018-21.434-.326.553.518 1.17.924 1.855 1.167 5.26 1.856 7.18.62 8.764.853 1.586.23.668 5.495.584 5.73-.062.17-1.01 3.14-1.52 4.734 2.348.088 4.24.15 4.24.15l9.346-.232 8.012-.694s3.572-11.686 2.03-24.003l-7.205-.002z"/><path fill="#E2E2E2" d="M77.77 9.323c-9.38-15.355-19.79 2.687-19.474 5.374l.276.077s2.146 1.037.836 3.227c-1.312 2.19 3.457-1.15 2.86-2.994-.596-1.843.597.115.597 1.843s2.385-1.844 1.787-2.42c-.595-.576 12.76-3.11 10.852 5.297-1.193 2.19-1.073 2.65-2.623 3.226s2.12.76 3.458-.69c.994-1.077-2.227 3.438-3.06 4.13 1.59.516 3.22-.478 3.615-1.94.392-1.438-.795 9.826-5.803 11.67-4.282 1.575-16.128.02-20.416-.322-3.52-3.413-4.373-11.763-4.034-10.513.398 1.465 2.027 2.457 3.617 1.94-.834-.69-4.054-5.207-3.062-4.13 1.34 1.45 5.01 1.268 3.458.69-1.55-.574-1.43-1.035-2.62-3.224-1.582-6.964 7.3-6.422 10.06-5.703V5.343C54.51 3.1 50.03 3.175 45.766 10.156c-9.38 15.355-2.703 38.082-2.703 38.082l7.632.69 8.902.23.3-.985c2.238.09 4.04.15 4.04.15l8.903-.23 7.63-.69c.002.002 6.677-22.724-2.7-38.08z"/><ellipse opacity=".9" fill="#161616" cx="61.167" cy="41.669" rx="6.587" ry="1.77"/><path opacity=".9" fill="#161616" d="M67.813 42.093c0 1.16-3.02 1.146-6.74 1.146-3.723 0-6.74.014-6.74-1.147 0-1.158 3.018-2.1 6.74-2.1 3.72 0 6.74.942 6.74 2.1z"/><path opacity=".34" fill="#010101" d="M62.86.954c24.282 3.022 13.79 33.49 13.79 33.49.097-.772-.913-12.074-1.48-13.073-.28-.84-2.17-3.585-3.332-2.54-2.38 2.107-15.722 2.228-15.795 2.224-3.87-.27-6.26.66-7.865 1.316.093-.478.41-1.227 2.484-2.654-3.178.77-4.247 2.36-5.098 3.606.032-.5 1.134-3.204 1.134-3.204s-4.153 6.887-4.277 14.623C41.415 31.38 36.68 2.415 62.86.955z"/><path fill="#E2E2E2" d="M63.088 0c24.54 3.023 13.937 33.49 13.937 33.49.097-.77-.923-12.074-1.495-13.073-.285-.84-2.193-3.585-3.37-2.54-2.405 2.106-15.888 2.228-15.962 2.224-3.91-.27-6.326.66-7.947 1.316.095-.477.414-1.227 2.512-2.655-3.21.772-4.292 2.362-5.15 3.61.032-.5 1.145-3.205 1.145-3.205s-4.196 6.886-4.322 14.622C41.413 30.427 36.63 1.46 63.088 0z"/><path fill="#FFF" d="M67.277 40.236c-1.448-.03-3.728-.938-6.298-.938-2.574 0-4.853.788-6.302.856v1.038c1.456-.098 3.652-.425 6.11-.425 2.684 0 5.05.39 6.487.445l.002-.976z"/><path opacity=".34" fill="#9B9B9B" d="M52.656 7.467c.064.27 1.234 6.04-2.456 8.664-3.69 2.626 7.76-3.628 6.263-7.497s1.913 3.2 1.375 5.18c-.536 1.978 1.746-3.028 1.258-5.25 2.396 4.657 3.168 6.757 2.66 8.612-.51 1.855 2.88-5.627 1.84-8.747-1.04-3.12 3.407.688 3.136 2.09-.27 1.404 2.71-3.052-.394-4.75-3.104-1.703-13.682 1.7-13.682 1.7z"/><path fill="#E2E2E2" d="M52.425 6.594c.07.27 1.36 6.07-2.476 8.66-3.84 2.59 8.085-3.55 6.472-7.447-1.613-3.896 2.04 3.232 1.5 5.208-.54 1.978 1.794-3.016 1.257-5.25 2.56 4.697 3.395 6.812 2.882 8.667-.51 1.855 2.952-5.61 1.827-8.75-1.124-3.142 3.577.728 3.31 2.13-.27 1.404 2.803-3.028-.467-4.77-3.27-1.74-14.308 1.552-14.308 1.552z"/><g opacity=".3"><path fill="#9B9B9B" d="M77.77 9.323c-.932-1.524-1.873-2.715-2.813-3.63-2.483-2.87-6.254-5-11.87-5.693-4.996.275-8.876 1.535-11.88 3.415 2.643-1.275 5.816-2.115 9.64-2.342 5.71.758 9.544 3.09 12.07 6.233.955 1 1.913 2.303 2.857 3.972 6.77 11.93 5.315 27.92 3.9 36.2l.796-.072c.002 0 6.677-22.727-2.7-38.083z"/></g><g opacity=".34" fill="#010101"><path d="M68.526 42.456l-1.66-4.355s-2.38 5.608-1.394 5.484c.99-.123 3.054-1.128 3.054-1.128zM53.78 42.456l1.663-4.355s2.38 5.608 1.393 5.484c-.99-.123-3.055-1.128-3.055-1.128z"/></g><g fill="#FFF"><path d="M68.99 44.02l-1.766-5.62s-2.53 5.396-1.48 5.275c1.05-.12 3.245.346 3.245.346zM53.328 44.02l1.764-5.62s2.528 5.396 1.48 5.275c-1.05-.12-3.244.346-3.244.346z"/></g><path fill="#F66" d="M61.048 41.68c-1.877 0-3.397.634-3.397 1.415 0 .023.006.047.01.07 1.017.172 2.217.272 3.51.272a21.95 21.95 0 0 0 3.265-.233c.006-.036.013-.072.013-.11-.003-.78-1.523-1.414-3.4-1.414z"/><path fill="#F4F4F4" d="M53.733 44.68c1.235-.577 3.994-.98 7.202-.98 3.39 0 6.27.448 7.394 1.08.44-.208.695-.438.695-.68 0-.92-3.537-1.664-7.898-1.664-4.362 0-7.898.745-7.898 1.663-.002.204.182.4.503.58z"/><ellipse opacity=".1" fill="#010101" cx="61.355" cy="28.207" rx="1.59" ry="3.429"/><path opacity=".4" fill="#9B9B9B" d="M39.06 62.534c-.115.237.695 2.562-.693 4.172 1.91-1.312 2.723-2.266 2.605-3.278s.637 1.73.463 2.504c.695-1.43 1.564-2.146 1.042-3.16-.52-1.012 1.623 1.193 1.392 1.908.404-1.968 1.157-2.385.058-3.16-1.1-.773-4.868 1.014-4.868 1.014z"/><path fill="#E2E2E2" d="M38.9 61.897c-.117.24.718 2.563-.715 4.174 1.968-1.31 2.802-2.265 2.685-3.277-.12-1.015.654 1.73.477 2.504.715-1.432 1.61-2.146 1.073-3.16-.537-1.013 1.67 1.193 1.43 1.908.418-1.968 1.193-2.385.062-3.16-1.136-.776-5.01 1.012-5.01 1.012z"/><path opacity=".4" fill="#9B9B9B" d="M83.803 62.91c.1.238-.6 2.563.6 4.175-1.647-1.312-2.35-2.267-2.25-3.28.103-1.012-.55 1.73-.398 2.505-.6-1.432-1.35-2.146-.9-3.16.45-1.013-1.397 1.193-1.198 1.908-.35-1.968-1-2.385-.05-3.16.947-.775 4.196 1.013 4.196 1.013z"/><path fill="#E2E2E2" d="M83.94 62.435c.103.238-.618 2.563.616 4.173-1.697-1.312-2.418-2.265-2.313-3.277.104-1.013-.566 1.73-.41 2.505-.62-1.432-1.392-2.146-.93-3.16.465-1.014-1.438 1.192-1.232 1.907-.36-1.967-1.028-2.386-.05-3.16.975-.774 4.32 1.013 4.32 1.013z"/><g><path opacity=".34" fill="#9B9B9B" d="M43.732 47.045c.104.507-.106 7.495.21 7.158.322-.338 4.792-5.39 4.792-5.39l2.45 4.884 2.068-3.366 1.064 7.58 4.848-6.99 2.553 2.525s.66-3.2.66-2.86c0 .334 1.866 7.744 2.292 8.922.426 1.18 5.136-8.334 5.136-8.334s4.258 2.104 4.15 2.356c-.106.25 2.233-2.945 2.233-2.945l1.49-.17.64-2.357 1.702-1.348-36.29.335z"/><path fill="#E2E2E2" d="M42.86 46.12c.11.504-.107 7.493.22 7.157.33-.338 4.92-5.39 4.92-5.39l2.516 4.884 3.062-3.368 1.09 7.916 4.046-7.325 2.623 2.524s2.076-3.536 2.076-3.2c0 .34.983 8.085 1.42 9.266.44 1.18 4.812-8.337 4.812-8.337s4.373 2.104 4.264 2.357c-.11.252 2.296-2.947 2.296-2.947l1.53-.168.654-2.358 1.75-1.347-37.28.337z"/></g></svg>