<svg xmlns="http://www.w3.org/2000/svg" width="408.729" height="175.09" viewBox="0 0 408.729 175.09"><g fill="#DA161C"><path d="M29.107 40.214L73.2.232V20.65L96.493.232v59.08h-16.07V37.497L54.57 60.554V37.497l-25.462 22.98V40.214zM158.994 30.588c0 18.866-12.188 29.5-27.716 29.5-15.293 0-27.558-10.634-27.558-29.5 0-18.787 12.033-29.5 27.558-29.5 15.682 0 27.716 10.713 27.716 29.5zm-27.716-15.683c-8.927 0-12.264 7.143-12.264 15.683 0 8.462 3.337 15.682 12.264 15.682 9.005 0 12.422-7.22 12.422-15.682 0-8.306-3.417-15.683-12.422-15.683zM203.095 15.683h-17.78c-1.786 0-3.882 1.786-3.882 3.805 0 2.87 2.097 4.19 5.747 4.19 8.927 0 17.623 7.065 17.623 17.777 0 10.79-8.85 17.857-17.777 17.857h-21.272V45.495h19.952c1.786 0 3.726-1.788 3.726-3.805 0-2.72-1.94-4.193-5.744-4.193-10.558 0-17.622-8.928-17.622-17.777 0-9.395 8.848-17.855 17.78-17.855h34.544l-15.295 13.818z"/><path d="M243.106 59.312c-18.243 0-32.296-12.5-32.296-28.724 0-16.226 14.054-28.724 32.296-28.724h19.56l-15.292 13.818h-3.18c-10.25 0-18.09 6.52-18.09 14.905s7.84 14.907 18.09 14.907h3.18V59.31h-4.268z"/><path d="M311.838 30.588c0 18.866-12.187 29.5-27.715 29.5-15.293 0-27.56-10.634-27.56-29.5 0-18.787 12.033-29.5 27.56-29.5 15.683 0 27.715 10.713 27.715 29.5zm-27.714-15.683c-8.93 0-12.268 7.143-12.268 15.683 0 8.462 3.34 15.682 12.268 15.682 9.002 0 12.42-7.22 12.42-15.682 0-8.306-3.418-15.683-12.42-15.683zM336.223 1.242v21.813L362.15 0v23.056l24.218-21.813h22.36L343.52 60.09V39.67L320.15 60.167V15.062l16.073-13.82z"/></g><g fill="#DA161C"><path d="M29.09 116.086L73.32 75.98v20.482L96.684 75.98v59.26h-16.12V113.36l-25.93 23.13v-23.13L29.09 136.41v-20.324zM159.376 106.433c0 18.92-12.224 29.588-27.8 29.588-15.34 0-27.643-10.668-27.643-29.587 0-18.848 12.07-29.594 27.643-29.594 15.73 0 27.8 10.745 27.8 29.593zm-27.8-15.733c-8.955 0-12.303 7.165-12.303 15.732 0 8.485 3.348 15.726 12.303 15.726 9.032 0 12.458-7.24 12.458-15.726 0-8.337-3.426-15.732-12.458-15.732zM197.697 135.24c-18.3 0-32.396-12.536-32.396-28.808 0-16.277 14.097-28.816 32.397-28.816h19.618l-15.338 13.86h-3.192c-10.278 0-18.144 6.545-18.144 14.956 0 8.406 7.866 14.95 18.145 14.95h3.192v13.858h-4.28zM231.625 101.213l25.85-23.597h21.023l-28.732 27.412 12.693 11.604v19.935l-23.907-21.417-6.928 6.31v13.783h-15.34V90.233l15.34-13.862v24.843zM320.216 106.588c3.74-2.027 6.696-5.843 6.696-11.137 0-10.747-7.164-17.833-16.274-17.833h-19.702l-15.338 13.86v43.765h35.04c8.955 0 16.274-7.086 16.274-17.91 0-5.14-2.957-9.578-6.696-10.744zm-12.457 14.794h-16.825v-8.023h16.824c2.41 0 3.813 1.636 3.813 3.972 0 2.338-1.404 4.05-3.814 4.05zm0-21.883h-16.825v-8.023h16.824c2.41 0 3.813 1.638 3.813 3.974 0 2.335-1.404 4.05-3.814 4.05zM374.938 77.616l-42.67 38.625v20.326l10.102-9.11h32.57v7.785h15.338V77.617h-15.34zm0 35.742h-16.932l16.932-15.264v15.264z"/></g><path fill="#DA161C" d="M27.146 77.216c0 7.497-6.076 13.572-13.573 13.572C6.075 90.788 0 84.713 0 77.216c0-7.497 6.075-13.573 13.573-13.573s13.573 6.076 13.573 13.573z"/><path d="M32.865 154.058h10.018v14.52h1.48v5.783h-1.94v-3.837H31.54v3.838h-1.943v-5.782h1.28c1.325-1.997 1.987-6.035 1.987-12.116v-2.404zm7.84 1.94h-5.738v.844c0 1.4-.125 3.313-.376 5.743-.25 2.433-.743 4.43-1.476 5.992h7.59v-12.58zM46.167 164.56c0-2.21.616-3.848 1.842-4.91 1.025-.882 2.275-1.326 3.75-1.326 1.64 0 2.98.538 4.02 1.613 1.043 1.074 1.56 2.56 1.56 4.452 0 1.532-.227 2.745-.69 3.622a4.86 4.86 0 0 1-2.01 2.05c-.878.487-1.836.728-2.88.728-1.67 0-3.02-.533-4.05-1.604-1.028-1.072-1.543-2.615-1.543-4.627zm2.08 0c0 1.524.333 2.67.998 3.43.667.76 1.505 1.138 2.516 1.138 1.005 0 1.84-.38 2.506-1.145.667-.764 1-1.925 1-3.492 0-1.476-.334-2.59-1.005-3.352-.668-.76-1.5-1.14-2.498-1.14-1.01 0-1.85.38-2.516 1.137-.666.753-1 1.896-1 3.424zM59.998 158.595h3.145l3.132 9.546 3.484-9.545h2.906v11.928h-2.02v-9.604l-3.528 9.603H65.31l-3.336-10.065v10.065h-1.977v-11.928zM84.15 166.682l2.09.258c-.33 1.22-.94 2.165-1.83 2.84-.893.675-2.03 1.01-3.415 1.01-1.746 0-3.127-.535-4.15-1.608-1.022-1.077-1.535-2.584-1.535-4.52 0-2.01.518-3.563 1.552-4.674 1.035-1.11 2.374-1.664 4.02-1.664 1.597 0 2.898.545 3.908 1.63 1.014 1.085 1.518 2.61 1.518 4.58 0 .122-.004.3-.01.54H77.4c.075 1.312.447 2.315 1.113 3.01.665.698 1.498 1.043 2.493 1.043.742 0 1.375-.194 1.897-.58.524-.39.94-1.013 1.247-1.865zm-6.637-3.27h6.66c-.09-1.004-.345-1.756-.764-2.257-.645-.777-1.48-1.167-2.503-1.167-.93 0-1.71.31-2.343.932-.633.62-.983 1.452-1.05 2.49zM89.02 158.595h2.02v4.964h5.604v-4.965h2.02v11.928h-2.02v-5.288H91.04v5.288h-2.02v-11.928zM101.982 158.595h2.023v4.662h2.56c1.67 0 2.956.324 3.857.97.904.647 1.353 1.54 1.353 2.68 0 .993-.375 1.847-1.126 2.554-.756.71-1.958 1.063-3.61 1.063h-5.058v-11.928zm2.024 10.265h2.123c1.28 0 2.19-.158 2.74-.472.545-.315.82-.807.82-1.472 0-.516-.205-.976-.61-1.38-.404-.404-1.3-.607-2.683-.607h-2.392v3.93zm9.286-10.265h2.022v11.928h-2.022v-11.928zM126.917 158.595h8.31v10.266h1.293v5.043h-1.663v-3.38h-9.388v3.38h-1.663v-5.042h1.066c1.422-1.932 2.104-5.353 2.044-10.265zm1.684 1.672c-.15 3.87-.747 6.735-1.796 8.594h6.413v-8.593H128.6zM139.96 158.595h9.388v11.928h-2.01v-10.256h-5.357v5.94c0 1.386-.044 2.303-.134 2.74-.09.44-.335.83-.74 1.16-.403.328-.988.493-1.75.493-.476 0-1.016-.027-1.63-.09v-1.683h.887c.42 0 .718-.045.898-.13.18-.087.3-.223.36-.41.062-.19.09-.798.09-1.832v-7.86zM162.01 158.595v11.928h-2.007v-4.65h-1.17c-.71 0-1.24.093-1.588.275-.35.184-.855.773-1.522 1.767l-1.762 2.608h-2.504l2.18-3.214c.666-.982 1.328-1.536 1.987-1.662-1.154-.16-2.01-.574-2.566-1.25a3.534 3.534 0 0 1-.837-2.323c0-1.03.366-1.87 1.097-2.515.728-.646 1.786-.966 3.17-.966h5.524zm-2.008 1.672h-2.876c-1.204 0-1.983.188-2.33.562a1.87 1.87 0 0 0-.522 1.315c0 .712.258 1.23.77 1.563.512.335 1.42.5 2.724.5h2.234v-3.94zM171.93 175.09v-16.495h1.84v1.55c.435-.607.925-1.063 1.473-1.366.546-.306 1.208-.457 1.986-.457 1.018 0 1.916.264 2.694.787.783.523 1.368 1.264 1.764 2.217.397.955.598 2.002.598 3.142 0 1.217-.222 2.32-.66 3.295-.438.976-1.072 1.725-1.907 2.244-.837.52-1.715.78-2.636.78-.675 0-1.28-.143-1.813-.427a4.153 4.153 0 0 1-1.322-1.08v5.806h-2.02zm1.83-10.465c0 1.535.31 2.67.933 3.4.622.736 1.374 1.102 2.257 1.102.9 0 1.667-.378 2.307-1.137.64-.76.962-1.938.962-3.534 0-1.52-.316-2.657-.94-3.412-.624-.757-1.372-1.137-2.24-1.137-.862 0-1.623.405-2.286 1.21-.663.804-.994 1.975-.994 3.508zM184.2 164.56c0-2.21.612-3.848 1.84-4.91 1.027-.882 2.277-1.326 3.75-1.326 1.643 0 2.98.538 4.022 1.613 1.04 1.074 1.56 2.56 1.56 4.452 0 1.532-.228 2.745-.69 3.622a4.862 4.862 0 0 1-2.008 2.05c-.88.487-1.84.728-2.883.728-1.667 0-3.018-.533-4.047-1.604s-1.544-2.615-1.544-4.627zm2.078 0c0 1.524.333 2.67.998 3.43.667.76 1.506 1.138 2.515 1.138 1.004 0 1.84-.38 2.507-1.145.666-.764 1-1.925 1-3.492 0-1.476-.334-2.59-1.006-3.352-.667-.76-1.5-1.14-2.5-1.14-1.008 0-1.846.38-2.514 1.137-.665.753-.998 1.896-.998 3.424zM205.755 166.15l1.99.26c-.22 1.37-.773 2.443-1.668 3.217-.894.774-1.995 1.162-3.298 1.162-1.632 0-2.944-.53-3.936-1.6-.994-1.067-1.49-2.598-1.49-4.588 0-1.29.212-2.414.643-3.382.423-.964 1.076-1.69 1.947-2.173a5.78 5.78 0 0 1 2.846-.725c1.294 0 2.355.332 3.177.983.825.656 1.354 1.583 1.584 2.793l-1.96.302c-.19-.8-.52-1.402-.997-1.81-.475-.404-1.052-.604-1.726-.604-1.016 0-1.842.365-2.48 1.095-.637.734-.954 1.886-.954 3.465 0 1.6.308 2.766.918 3.492.616.728 1.42 1.09 2.408 1.09.79 0 1.456-.24 1.985-.73.535-.486.87-1.234 1.012-2.247zM217.486 166.15l1.99.26c-.22 1.37-.777 2.443-1.67 3.217-.893.774-1.994 1.162-3.297 1.162-1.634 0-2.944-.53-3.936-1.6-.993-1.067-1.488-2.598-1.488-4.588 0-1.29.21-2.414.64-3.382.427-.964 1.076-1.69 1.947-2.173a5.794 5.794 0 0 1 2.848-.725c1.298 0 2.356.332 3.178.983.824.656 1.352 1.583 1.585 2.793l-1.964.302c-.19-.8-.522-1.402-.998-1.81-.472-.404-1.05-.604-1.724-.604-1.018 0-1.843.365-2.48 1.095-.64.734-.954 1.886-.954 3.465 0 1.6.306 2.766.92 3.492.613.728 1.416 1.09 2.404 1.09.794 0 1.456-.24 1.984-.73.532-.486.87-1.234 1.014-2.247zM221.432 158.595h2.02v9.097l5.61-9.097h2.174v11.928h-2.02v-9.04l-5.604 9.04h-2.18v-11.928zM234.512 158.595h2.02v9.097l5.605-9.097h2.18v11.928h-2.02v-9.04l-5.604 9.04h-2.182v-11.928zm7.02-4.517h1.378c-.11.937-.453 1.655-1.025 2.156-.572.503-1.333.75-2.284.75-.96 0-1.727-.247-2.297-.743-.57-.496-.914-1.217-1.025-2.162h1.378c.105.512.313.89.625 1.14.312.254.73.377 1.254.377.605 0 1.066-.12 1.374-.364.31-.245.518-.626.624-1.152zM255.37 166.15l1.992.26c-.22 1.37-.777 2.443-1.67 3.217-.893.774-1.994 1.162-3.3 1.162-1.63 0-2.938-.53-3.933-1.6-.994-1.067-1.487-2.598-1.487-4.588 0-1.29.21-2.414.64-3.382.425-.964 1.076-1.69 1.948-2.173a5.766 5.766 0 0 1 2.845-.725c1.296 0 2.356.332 3.18.983.825.656 1.35 1.583 1.582 2.793l-1.964.302c-.186-.8-.515-1.402-.993-1.81-.475-.404-1.055-.604-1.724-.604-1.018 0-1.847.365-2.483 1.095-.636.734-.954 1.886-.954 3.465 0 1.6.306 2.766.916 3.492.617.728 1.418 1.09 2.405 1.09.793 0 1.457-.24 1.992-.73.53-.486.866-1.234 1.01-2.247zM259.31 158.595h2.02v5.155c.643 0 1.095-.124 1.353-.372.26-.247.64-.967 1.14-2.156.398-.942.72-1.563.966-1.863.25-.304.53-.502.853-.607.322-.105.84-.157 1.55-.157h.404v1.672l-.56-.01c-.534 0-.874.08-1.024.232-.157.17-.395.66-.718 1.474-.303.778-.586 1.316-.84 1.62-.256.298-.648.57-1.18.815.868.234 1.722 1.042 2.558 2.426l2.215 3.697h-2.224l-2.158-3.697c-.438-.74-.826-1.23-1.155-1.462-.33-.237-.72-.354-1.18-.354v5.513h-2.02v-11.928zM268.86 164.56c0-2.21.615-3.848 1.844-4.91 1.025-.882 2.276-1.326 3.75-1.326 1.64 0 2.977.538 4.02 1.613 1.042 1.074 1.56 2.56 1.56 4.452 0 1.532-.228 2.745-.69 3.622a4.884 4.884 0 0 1-2.01 2.05c-.882.487-1.84.728-2.88.728-1.67 0-3.02-.533-4.05-1.604-1.03-1.072-1.544-2.615-1.544-4.627zm2.08 0c0 1.524.333 2.67 1 3.43.664.76 1.505 1.138 2.515 1.138 1.004 0 1.84-.38 2.507-1.145.664-.764.998-1.925.998-3.492 0-1.476-.336-2.59-1.004-3.352-.67-.76-1.504-1.14-2.5-1.14-1.01 0-1.85.38-2.516 1.137-.668.753-1 1.896-1 3.424zM282.636 158.595h2.018v9.097l5.605-9.097h2.18v11.928h-2.02v-9.04l-5.605 9.04h-2.18v-11.928zm7.02-4.517h1.38c-.11.937-.457 1.655-1.03 2.156-.57.503-1.33.75-2.283.75-.96 0-1.725-.247-2.297-.743-.574-.496-.916-1.217-1.028-2.162h1.38c.11.512.314.89.625 1.14.31.254.73.377 1.256.377.603 0 1.064-.12 1.373-.364.31-.245.517-.626.623-1.152zM310.117 166.15l1.988.26c-.22 1.37-.774 2.443-1.667 3.217-.894.774-1.996 1.162-3.3 1.162-1.63 0-2.94-.53-3.933-1.6-.994-1.067-1.487-2.598-1.487-4.588 0-1.29.21-2.414.64-3.382.425-.964 1.078-1.69 1.947-2.173a5.78 5.78 0 0 1 2.848-.725c1.293 0 2.354.332 3.178.983.824.656 1.352 1.583 1.583 2.793l-1.965.302c-.187-.8-.517-1.402-.993-1.81-.475-.404-1.052-.604-1.724-.604-1.018 0-1.847.365-2.482 1.095-.64.734-.953 1.886-.953 3.465 0 1.6.305 2.766.917 3.492.615.728 1.417 1.09 2.406 1.09.793 0 1.455-.24 1.99-.73.53-.486.865-1.234 1.01-2.247zM312.975 158.595h9.69v1.672h-3.84v10.256h-2.01v-10.256h-3.84v-1.672zM324.073 164.56c0-2.21.62-3.848 1.846-4.91 1.02-.882 2.274-1.326 3.75-1.326 1.64 0 2.977.538 4.018 1.613 1.042 1.074 1.563 2.56 1.563 4.452 0 1.532-.228 2.745-.692 3.622a4.85 4.85 0 0 1-2.01 2.05c-.88.487-1.836.728-2.878.728-1.672 0-3.02-.533-4.052-1.604-1.027-1.072-1.545-2.615-1.545-4.627zm2.082 0c0 1.524.333 2.67.998 3.43.668.76 1.502 1.138 2.517 1.138 1 0 1.836-.38 2.504-1.145.667-.764 1-1.925 1-3.492 0-1.476-.335-2.59-1.005-3.352-.67-.76-1.503-1.14-2.5-1.14-1.014 0-1.85.38-2.517 1.137-.665.753-.998 1.896-.998 3.424zM338.84 158.595h9.384v11.928h-2.007v-10.256h-5.36v5.94c0 1.386-.046 2.303-.136 2.74-.084.44-.332.83-.737 1.16-.402.328-.987.493-1.75.493-.474 0-1.014-.027-1.63-.09v-1.683h.885c.42 0 .72-.045.9-.13a.674.674 0 0 0 .36-.41c.062-.19.092-.798.092-1.832v-7.86zM351.5 158.595h2.022v9.097l5.604-9.097h2.18v11.928h-2.02v-9.04l-5.603 9.04H351.5v-11.928zM364.615 158.595h2.02v10.266h5.595v-10.265h2.018v10.266h1.306v5.043h-1.663v-3.38h-9.274v-11.928zM378.027 158.595h2.02v4.662h2.565c1.667 0 2.955.324 3.856.97.903.647 1.353 1.54 1.353 2.68 0 .993-.374 1.847-1.128 2.554-.752.71-1.954 1.063-3.61 1.063h-5.055v-11.928zm2.02 10.265h2.125c1.28 0 2.194-.158 2.74-.472.548-.315.822-.807.822-1.472 0-.516-.207-.976-.608-1.38-.406-.404-1.3-.607-2.684-.607h-2.394v3.93zm9.292-10.265h2.02v11.928h-2.02v-11.928z"/></svg>