<svg xmlns="http://www.w3.org/2000/svg" width="423.538" height="325.912" viewBox="0 0 423.538 325.912"><g opacity=".4" fill="#C5EAFF"><path d="M412.7 218.867h-96.415c-.34.042-.685.068-1.034.068h-92.59a8.637 8.637 0 0 1-8.637-8.638 8.635 8.635 0 0 1 8.637-8.635h125.503c8.145-1.312 14.363-8.367 14.363-16.88 0-9.444-7.654-17.1-17.102-17.1H320.09c.227-.102.445-.22.668-.33h-68.766c-9.483 0-17.174-7.69-17.174-17.18 0-9.484 7.69-17.176 17.174-17.176h67.064c6.68-2.356 11.463-8.714 11.463-16.196 0-9.487-7.69-17.178-17.177-17.178H177.685c-.495 0-.984.027-1.474.068h-51.696a8.375 8.375 0 0 0-8.375 8.377 8.367 8.367 0 0 0 5.8 7.965h13.585a8.842 8.842 0 0 1 8.842 8.842 8.84 8.84 0 0 1-8.842 8.843H109.38c.11.028.216.063.326.087H11.6a8.526 8.526 0 0 0 0 17.05h7.385c-.05.01-.1.023-.148.033h21.028a8.546 8.546 0 0 1 0 17.09H20.567c-7.933 1.486-13.93 8.443-13.93 16.803 0 9.445 7.652 17.1 17.097 17.1h54.85l-.003.003h45.702c4.705 0 8.52 3.818 8.52 8.526 0 4.706-3.816 8.524-8.52 8.524l-70.42.03c-9.074 0-16.433 7.355-16.433 16.433 0 9.075 7.357 16.432 16.433 16.432h20.594c.422.065.85.107 1.287.107H97.37c-3.985.716-7.012 4.19-7.012 8.382a8.525 8.525 0 0 0 8.527 8.524h172.75a8.523 8.523 0 0 0 8.523-8.525c0-4.193-3.027-7.668-7.01-8.383h-81.823a7.97 7.97 0 0 1 0-15.94H252.7c-.046-.025-.09-.055-.137-.078h160.135c4.707 0 8.525-3.82 8.525-8.53.002-4.704-3.817-8.523-8.524-8.523z"/><path d="M371.116 152.705h6.182a8.65 8.65 0 0 1-1.036.07h-92.588a8.64 8.64 0 0 1-8.64-8.64 8.637 8.637 0 0 1 8.64-8.635h125.5c8.145-1.31 14.364-8.366 14.364-16.88 0-9.442-7.654-17.1-17.102-17.1H381.1c.23-.1.446-.22.67-.332h-68.765c-9.484 0-17.176-7.69-17.176-17.178 0-9.485 7.69-17.176 17.175-17.176h67.063c6.676-2.356 11.462-8.713 11.462-16.196 0-9.487-7.688-17.178-17.176-17.178H238.696c-.496 0-.985.026-1.473.067h-51.698a8.375 8.375 0 0 0-8.375 8.376c0 3.73 2.434 6.88 5.8 7.967h13.586a8.842 8.842 0 0 1 8.843 8.84 8.842 8.842 0 0 1-8.844 8.844h-26.144c.108.027.216.062.324.087H72.61a8.526 8.526 0 0 0 0 17.052h7.385c-.05.008-.1.022-.148.032h21.03a8.546 8.546 0 0 1 8.544 8.547c0 4.718-3.826 8.546-8.543 8.546h-19.3c-7.93 1.485-13.93 8.442-13.93 16.802 0 9.445 7.654 17.1 17.098 17.1h54.85l-.004.003h45.7c4.708 0 8.524 3.82 8.524 8.526s-3.816 8.526-8.523 8.526l-70.417.028c-9.077 0-16.434 7.355-16.434 16.434 0 9.076 7.356 16.43 16.433 16.43h20.593c.424.067.85.11 1.29.11h21.624c-3.985.715-7.01 4.19-7.01 8.382a8.524 8.524 0 0 0 8.525 8.524h172.753a8.524 8.524 0 0 0 8.522-8.524c0-4.192-3.023-7.667-7.01-8.383h-81.822a7.968 7.968 0 0 1-7.968-7.97 7.967 7.967 0 0 1 7.968-7.97h61.376c-.048-.025-.092-.055-.138-.078h57.54a8.527 8.527 0 0 0 8.526-8.527 8.528 8.528 0 0 0-8.526-8.523z"/><path d="M278.657 59.82h3.1c-.17.02-.344.035-.52.035H234.79a4.332 4.332 0 0 1-4.332-4.334 4.332 4.332 0 0 1 4.332-4.33h62.96a8.578 8.578 0 0 0-1.37-17.046h-12.715c.114-.05.225-.11.337-.168h-34.497c-4.756 0-8.614-3.86-8.614-8.617a8.616 8.616 0 0 1 8.615-8.618h33.644A8.616 8.616 0 0 0 280.283 0h-68.055c-.25 0-.497.013-.74.032h-25.934a4.2 4.2 0 0 0-1.292 8.2h6.814a4.435 4.435 0 0 1 0 8.87h-13.113c.054.016.108.034.16.044h-49.214a4.278 4.278 0 0 0 0 8.555h3.705c-.024.004-.048.01-.073.017h10.55a4.286 4.286 0 0 1 4.286 4.288 4.284 4.284 0 0 1-4.286 4.285h-9.682c-3.98.747-6.988 4.236-6.988 8.43a8.576 8.576 0 0 0 8.576 8.578h50.441a4.277 4.277 0 0 1 0 8.555l-35.33.017a8.245 8.245 0 0 0 0 16.488h10.332c.21.033.426.054.645.054h10.848a4.28 4.28 0 0 0-3.516 4.205 4.277 4.277 0 0 0 4.276 4.277h86.664a4.277 4.277 0 0 0 4.275-4.277 4.273 4.273 0 0 0-3.518-4.205H219.07a3.998 3.998 0 0 1 0-7.995h30.79c-.022-.014-.044-.03-.07-.04h28.868a4.28 4.28 0 0 0 0-8.557z"/></g><path fill="#E5E5E5" d="M317.215 108.313l56.53 17.772v12.243l-53.976-3.95z"/><path fill="#238E72" d="M317.215 110.09l56.53 17.773v12.242l-53.976-3.95z"/><path fill="#004C3D" d="M384.155 297.88V133.49l-48-13.625-9.542 6.22-1.706 171.796z"/><path fill="#046855" d="M384.155 297.88V137.045l-48-13.625-9.542 5.627-1.677 168.834z"/><g opacity=".2" fill="#060000"><path d="M337.938 173.844l4.308.888v-8.525l-4.308-.942zM343.778 175.047l4.31.888v-8.45l-4.31-.943zM349.523 176.23l4.308.888v-8.377l-4.307-.94zM355.363 177.434l4.308.888v-8.304l-4.307-.942zM361.107 178.618l4.31.887v-8.23l-4.31-.943zM366.947 179.82l4.308.888v-8.156l-4.308-.942zM372.69 181.004l4.31.888v-8.084l-4.31-.942zM378.53 182.207l4.31.888v-8.01l-4.31-.94zM337.938 183.798l4.308.824v-8.525l-4.308-.88zM343.778 184.915l4.31.824v-8.45l-4.31-.88zM349.523 186.015l4.308.824v-8.38l-4.307-.878zM355.363 187.13l4.308.826v-8.305l-4.307-.877zM361.107 188.23l4.31.825v-8.23l-4.31-.88zM366.947 189.348l4.308.824v-8.157l-4.308-.88zM372.69 190.447l4.31.824v-8.083l-4.31-.88zM378.53 191.564l4.31.824v-8.01l-4.31-.88zM337.938 193.677l4.308.76v-8.524l-4.308-.816zM343.778 194.71l4.31.76v-8.45l-4.31-.817zM349.523 195.724l4.308.76v-8.377l-4.307-.815zM355.363 196.756l4.308.76v-8.303l-4.307-.816zM361.107 197.77l4.31.762v-8.23l-4.31-.817zM366.947 198.803l4.308.76v-8.156l-4.308-.816zM372.69 199.818l4.31.76v-8.083l-4.31-.815zM378.53 200.85l4.31.76v-8.01l-4.31-.815zM337.938 203.63l4.308.7v-8.526l-4.308-.753zM343.778 204.577l4.31.697v-8.45l-4.31-.753zM349.523 205.508l4.308.697v-8.378l-4.307-.752zM355.363 206.453l4.308.697v-8.303l-4.307-.752zM361.107 207.384l4.31.697v-8.23l-4.31-.753zM366.947 208.33l4.308.697v-8.157l-4.308-.752zM372.69 209.26l4.31.698v-8.084l-4.31-.752zM378.53 210.206l4.31.697v-8.01l-4.31-.752zM337.938 213.51l4.308.635v-8.524l-4.308-.69zM343.778 214.37l4.31.636v-8.45l-4.31-.69zM349.523 215.218l4.308.634v-8.377l-4.307-.69zM355.363 216.078l4.308.634v-8.303l-4.307-.69zM361.107 216.924l4.31.635v-8.232l-4.31-.69zM366.947 217.784l4.308.636v-8.157l-4.308-.69zM372.69 218.63l4.31.636v-8.083l-4.31-.69zM378.53 219.49l4.31.636v-8.01l-4.31-.688zM337.938 223.464l4.308.57v-8.523l-4.308-.625zM343.778 224.24l4.31.57v-8.45l-4.31-.627zM349.523 225l4.308.572v-8.378l-4.307-.626zM355.363 225.775l4.308.57v-8.303l-4.307-.625zM361.107 226.537l4.31.57v-8.23l-4.31-.626zM366.947 227.312l4.308.57v-8.155l-4.308-.627zM372.69 228.073l4.31.572v-8.084l-4.31-.625zM378.53 228.848l4.31.57v-8.01l-4.31-.624zM337.938 233.343l4.308.508v-8.523l-4.308-.563zM343.778 234.032l4.31.51v-8.45l-4.31-.565zM349.523 234.71l4.308.508v-8.376l-4.307-.564zM355.363 235.4l4.308.508v-8.304l-4.307-.562zM361.107 236.078l4.31.508v-8.23l-4.31-.564zM366.947 236.767l4.308.508v-8.156l-4.308-.564zM372.69 237.445l4.31.508v-8.083l-4.31-.563zM378.53 238.134l4.31.508v-8.01l-4.31-.562zM337.938 243.296l4.308.445v-8.523l-4.308-.5zM343.778 243.9l4.31.445v-8.45l-4.31-.5zM349.523 244.493l4.308.445v-8.377l-4.307-.498zM355.363 245.096l4.308.445v-8.302l-4.307-.5zM361.107 245.69l4.31.445v-8.23l-4.31-.5zM366.947 246.293l4.308.445v-8.156l-4.308-.5zM372.69 246.886l4.31.446v-8.084l-4.31-.5zM378.53 247.49l4.31.445v-8.01l-4.31-.5zM337.938 293.288l4.308.127v-8.526l-4.308-.182zM343.778 293.46l4.31.126v-8.45l-4.31-.182zM349.523 293.63l4.308.125v-8.38l-4.307-.18zM355.363 293.8l4.308.126v-8.304l-4.307-.18zM361.107 293.968l4.31.127v-8.232l-4.31-.18zM366.947 294.14l4.308.126v-8.157l-4.308-.182zM372.69 294.308l4.31.127v-8.085l-4.31-.18zM378.53 294.48l4.31.126v-8.01l-4.31-.18zM342.246 297.88v-3.1l-4.308-.117v3.218zM348.087 297.88v-2.94l-4.31-.118v3.06zM353.83 297.88V295.1l-4.307-.12v2.903zM359.67 297.88v-2.624l-4.307-.117v2.74zM365.416 297.88v-2.467l-4.31-.118v2.586zM371.255 297.88v-2.307l-4.308-.118v2.426zM377 297.88v-2.15l-4.31-.12v2.27zM382.84 297.88v-1.99l-4.31-.12v2.11zM337.938 253.306l4.308.382v-8.525l-4.308-.436zM343.778 253.823l4.31.382v-8.45l-4.31-.437zM349.523 254.332l4.308.38v-8.377l-4.307-.436zM355.363 254.85l4.308.38v-8.304l-4.307-.435zM361.107 255.356l4.31.382v-8.23l-4.31-.437zM366.947 255.874l4.308.38v-8.156l-4.308-.435zM372.69 256.382l4.31.38v-8.083l-4.31-.437zM378.53 256.898l4.31.38v-8.008l-4.31-.436zM337.938 263.26l4.308.318v-8.525l-4.308-.373zM343.778 263.69l4.31.32v-8.452l-4.31-.372zM349.523 264.115l4.308.318v-8.378l-4.307-.372zM355.363 264.546l4.308.318v-8.304l-4.307-.373zM361.107 264.97l4.31.318v-8.232l-4.31-.372zM366.947 265.4l4.308.318v-8.156l-4.308-.374zM372.69 265.824l4.31.318v-8.084l-4.31-.373zM378.53 266.254l4.31.318v-8.01l-4.31-.372zM337.938 273.14l4.308.255v-8.525l-4.308-.31zM343.778 273.485l4.31.255v-8.45l-4.31-.31zM349.523 273.825l4.308.255v-8.378l-4.307-.31zM355.363 274.17l4.308.255v-8.304l-4.307-.308zM361.107 274.51l4.31.255v-8.23l-4.31-.31zM366.947 274.855l4.308.255v-8.156l-4.308-.31zM372.69 275.195l4.31.255v-8.084l-4.31-.31zM378.53 275.54l4.31.256v-8.01l-4.31-.31zM337.938 283.093l4.308.19v-8.523l-4.308-.246zM343.778 283.353l4.31.19v-8.45l-4.31-.245zM349.523 283.608l4.308.192v-8.378l-4.307-.246zM355.363 283.868l4.308.19v-8.303l-4.307-.246zM361.107 284.122l4.31.192v-8.23l-4.31-.247zM366.947 284.382l4.308.19v-8.155l-4.308-.246zM372.69 284.638l4.31.19v-8.083l-4.31-.246zM378.53 284.896l4.31.192v-8.01l-4.31-.246zM337.938 133.955l4.308 1.142v-8.526l-4.308-1.195zM343.778 135.503l4.31 1.142v-8.45l-4.31-1.197zM349.523 137.026l4.308 1.14v-8.376l-4.307-1.197zM355.363 138.574l4.308 1.14v-8.303l-4.307-1.195zM361.107 140.096l4.31 1.142v-8.23l-4.31-1.198zM366.947 141.644l4.308 1.142v-8.158l-4.308-1.196zM372.69 143.166l4.31 1.143v-8.085l-4.31-1.198zM378.53 136.65v8.064l4.31 1.142v-8.01zM337.938 143.908l4.308 1.08v-8.526l-4.308-1.134zM343.778 145.37l4.31 1.08v-8.453l-4.31-1.132zM349.523 146.808l4.308 1.08v-8.38l-4.307-1.133zM355.363 148.27l4.308 1.08v-8.305l-4.307-1.133zM361.107 149.708l4.31 1.078v-8.23l-4.31-1.133zM366.947 151.17l4.308 1.08v-8.16l-4.308-1.13zM372.69 152.608l4.31 1.08v-8.085l-4.31-1.134zM378.53 154.07l4.31 1.078v-8.01l-4.31-1.133zM337.938 153.788l4.308 1.015v-8.525l-4.308-1.07zM343.778 155.165l4.31 1.015v-8.45l-4.31-1.07zM349.523 156.518l4.308 1.016v-8.378l-4.307-1.07zM355.363 157.896l4.308 1.015v-8.304l-4.307-1.07zM361.107 159.25l4.31 1.015v-8.23l-4.31-1.072zM366.947 160.625l4.308 1.017v-8.158l-4.308-1.07zM372.69 161.98l4.31 1.015v-8.084l-4.31-1.07zM378.53 163.356l4.31 1.016v-8.01l-4.31-1.07zM337.938 163.742l4.308.95v-8.524l-4.308-1.006zM343.778 165.032l4.31.952v-8.45l-4.31-1.008zM349.523 166.302l4.308.952v-8.38l-4.307-1.005zM355.363 167.592l4.308.952v-8.304l-4.307-1.007zM361.107 168.862l4.31.95v-8.23l-4.31-1.007zM366.947 170.152l4.308.952v-8.157l-4.308-1.007zM372.69 171.42l4.31.953v-8.083l-4.31-1.007zM378.53 172.712l4.31.952v-8.01l-4.31-1.007z"/></g><path fill="#053020" d="M371.422 297.88c.133-10.662.203-22.74.203-36.437 0-63.636-6.15-115.222-13.735-115.222s-13.735 51.587-13.735 115.223c0 13.676.062 25.757.184 36.438h27.082z"/><path fill="#2A7059" d="M343.286 297.88h27.21c.04-9.18.03-19.34-.03-30.593-.35-63.634-6.784-115.185-14.37-115.14-7.584.043-13.45 51.665-13.1 115.3.06 11.175.16 21.282.29 30.434z"/><path fill="#238E72" d="M335.577 297.88V123.42l-9.543 5.627-1.676 168.834z"/><path fill="#0D6048" d="M331.96 297.88c1.02-16.594 1.592-40.508 1.592-74.92 0-61.63-7.51-111.593-16.77-111.593S300.01 161.33 300.01 222.96c0 34.236.512 58.2 1.434 74.92h30.515z"/><path opacity=".2" fill="#060000" d="M333.117 297.88c1.02-16.594-41.127-69.235-15.18-186.514-9.26 0-16.77 49.962-16.77 111.593 0 34.235.512 58.198 1.434 74.92h30.517z"/><path opacity=".1" d="M301.746 179.82l31.227-7.702v-4.784l-31.227 7.7z"/><path fill="#424242" d="M301.746 178.634l31.227-7.7v-4.785l-31.227 7.7z"/><path opacity=".1" d="M301.746 213.633l33.83-7.7v-4.786l-33.83 7.702z"/><path fill="#424242" d="M301.746 212.448l33.83-7.702v-4.784l-33.83 7.702zM301.746 249.923l33.83-7.702v-4.782l-33.83 7.7z"/><path opacity=".2" fill="#060000" d="M384.155 297.88V137.046c-12.21 106.697-59.22 160.836-59.22 160.836h59.22z"/><path opacity=".1" d="M306.46 137.887l20.487-7.01.155-4.782-20.486 7.01z"/><path fill="#424242" d="M306.46 136.703l20.487-7.01.155-4.782-20.486 7.01z"/><path opacity=".3" fill="#FFF" d="M324.423 118.764c-2.147-6.644-4.54-7.397-7.063-7.397s-4.917 5.493-7.063 12.136l14.126-4.74z"/><path opacity=".1" fill="#FFF" d="M327.32 135.312l-21.744 6.528v-1.587l21.743-6.528zM328.475 140.488l-21.743 6.53v-1.59l21.743-6.528zM329.062 146.474l-22.908 6.528v-1.587l22.908-6.53zM329.893 152.16l-24.57 6.53v-1.587l24.57-6.53zM329.907 157.457l-24.584 6.528v-1.587l24.584-6.53zM331.18 164.842l-28.445 6.53v-1.59l28.445-6.527zM331.7 177.348l-28.965 6.528v-1.587l28.965-6.53zM332.64 183.184l-29.905 6.528v-1.587l29.904-6.53zM332.927 189.722l-30.192 6.528v-1.587l30.192-6.53zM332.31 196.035l-30.19 6.528v-1.587l30.19-6.528zM332.902 211.674l-30.783 6.528v-1.587l30.782-6.53zM333.485 218.6l-31.366 6.528v-1.588l31.365-6.528zM335.236 225.23l-33.15 6.53v-1.59l33.15-6.527zM335 232.48l-32.265 6.526v-1.588L335 230.89zM335 248.39l-32.265 6.527v-1.586L335 246.803zM335 257.127l-32.265 6.528v-1.588L335 255.54zM335 266.506l-32.265 6.53v-1.59L335 264.92zM342.983 263.753c0 .622.003 1.245.005 1.868l10.583 1.43v5.64l-10.552-1.424.013 1.87 10.542 1.422v5.916l-10.496-1.416.016 1.87 10.48 1.414v5.64l-10.425-1.406.02 1.87 10.406 1.404v4.86l-10.342-.948.022 1.565 10.32.948v1.607h1.078v-1.508l5.822.533v.975h.715v-.908l9.31.854.007-1.563-9.317-.855v-4.533l9.33 1.26v-.152a462.25 462.25 0 0 0-.067-1.726l-9.263-1.25v-5.642l9.335 1.26v-.006c-.022-.626-.047-1.25-.072-1.872l-9.263-1.25v-5.916l9.32 1.257v-.406l-.056-1.47-9.262-1.25v-5.64l9.29 1.254c0-.44-.003-.88-.005-1.323l-.02-.55-9.264-1.248v-5.836l9.232 1.246-.023-1.87-9.21-1.243v-5.64l9.118 1.23c-.012-.626-.024-1.25-.038-1.874l-9.08-1.226v-16.92l8.564 1.156c-.024-.597-.048-1.19-.074-1.784l-8.49-1.145v-5.097l8.255 1.04v-.002l-.088-1.77-8.168-1.03v-5.57l7.862.988v-.01l-.105-1.766-7.758-.977v-5.23l7.418.935c-.04-.594-.08-1.188-.123-1.775v-.002l-7.296-.92V196.53l6.068.763-.003-.02c-.055-.57-.11-1.14-.167-1.703-.003-.02-.004-.04-.006-.062l-5.893-.743v-4.37l5.423.682-.01-.104c-.056-.49-.11-.978-.166-1.46l-5.25-.66v-4.386l4.71.593c-.065-.526-.133-1.05-.2-1.565v-.002l-4.51-.566v-4.623l3.85.485c-.08-.532-.158-1.055-.24-1.573l-3.61-.455v-13.016l1.028.13-.173-.69a72.943 72.943 0 0 0-.205-.784c-.01-.04-.02-.08-.032-.12l-.618-.077v-2.07a41.09 41.09 0 0 0-.535-1.618h.003c-.024-.07-.05-.136-.074-.205-.036-.103-.072-.212-.108-.313v.01c-.14-.383-.28-.754-.42-1.1 0-.004-.003-.008-.004-.01l-5.397-.68v-3.424c-.17.15-.338.333-.505.537-.014.018-.03.034-.044.053-.078.1-.157.204-.235.314l-.043.06c-.083.118-.165.24-.247.37v1.955l-.96-.122c-.1.226-.2.46-.3.704l-.005.014c-.098.24-.195.488-.292.747v.003l1.558.196v3.62l-2.68-.336v.006c-.057.2-.113.403-.17.61l-.15.565c-.027.104-.054.204-.08.31l3.08.388v13.015l-5.568-.7c-.024.156-.047.318-.072.475-.05.345-.103.687-.155 1.037l5.797.73v4.622l-6.42-.81v.018c-.063.482-.125.97-.186 1.462 0 .013-.002.026-.004.04l6.612.83v4.388l-7.124-.895c-.054.488-.107.98-.16 1.477a.63.63 0 0 1-.006.043l7.283.917v4.37l-7.718-.97-.014.155a458.484 458.484 0 0 0-.15 1.586l7.883.992v14.587l-9-1.133c-.002.004-.002.006-.002.01-.037.57-.073 1.14-.108 1.718 0 .006 0 .014-.002.02l9.114 1.148v5.228l-9.415-1.185c0 .013 0 .025-.002.038-.03.57-.062 1.14-.09 1.714l9.507 1.196v5.573l-9.772-1.23-.076 1.754 9.848 1.24v5.027l-10.037-1.354-.06 1.766 10.096 1.362v16.92l-10.494-1.416c-.008.62-.018 1.24-.025 1.864l10.52 1.42v5.64L343 256.05l-.01 1.866 10.582 1.428v5.836l-10.59-1.43zm11.665-105.99l5.822.73v3.622l-5.822-.733v-3.62zm0 5.16l5.822.733v13.016l-5.822-.732v-13.016zm0 14.557l5.822.734v4.623l-5.822-.732v-4.625zm0 6.166l5.822.732v4.387l-5.822-.732v-4.387zm0 5.927l5.822.732v4.37l-5.822-.732v-4.37zm0 6.134l5.822.732v14.586l-5.822-.732v-14.587zm0 16.35l5.822.733v5.228l-5.822-.732v-5.23zm0 6.992l5.822.73v5.573l-5.822-.732v-5.57zm0 7.333l5.822.733v5.09l-5.822-.785v-5.037zm0 6.812l5.822.786v16.92l-5.822-.785v-16.92zm0 18.787l5.822.785v5.64l-5.822-.784v-5.64zm0 7.51l5.822.784v5.836l-5.822-.785v-5.836zm0 7.703l5.822.785v5.64l-5.822-.786v-5.64zm0 7.508l5.822.785v5.916l-5.822-.786v-5.915zm0 7.783l5.822.785v5.642l-5.822-.785v-5.64zm0 7.508l5.822.786v4.563l-5.822-.535v-4.814zM325.46 122.547l-18.025 6.528v-1.588l18.025-6.528z"/><path fill="#004C3D" d="M319 111.89c8.702 0 15.758 52.33 15.758 113.962 0 32.46-.478 55.583-1.337 72.03h2.514c.918-16.817 1.427-40.028 1.427-72.046 0-63.635-8.22-115.222-18.36-115.222-.39 0-.775.085-1.158.235l-.627.258c.382-.197 1.394.782 1.784.782z"/><path fill="#3D3D3D" d="M304.52 297.88c-.854-16.705-1.33-40.57-1.33-74.562 0-58.876 6.44-107.1 14.604-111.293v-3.71c-9.602 3.745-17.205 53.79-17.205 114.987 0 33.5.503 57.466 1.415 74.58h2.515z"/><path fill="#E5E5E5" d="M302.773 297.88c-.848-16.695-1.317-40.495-1.317-74.33 0-61.63 7.056-111.59 15.76-111.59s15.758 49.96 15.758 111.59c0 34.005-.524 57.76-1.462 74.33h2.507c1-16.98 1.557-40.84 1.557-74.345 0-63.636-8.22-115.222-18.362-115.222-10.14 0-18.36 51.586-18.36 115.222 0 33.35.5 57.248 1.402 74.346h2.516z"/><path fill="#424242" d="M348.51 171.963l15.785 2.164c-.33-1.954-.67-3.798-1.02-5.518l-13.78-1.89c-.338 1.63-.667 3.376-.985 5.243zM344.923 203.885l23.186 3.177c-.147-1.85-.298-3.662-.455-5.44l-22.315-3.058a510.868 510.868 0 0 0-.417 5.32zM343.173 242.92l26.958 3.696c-.048-1.815-.103-3.616-.16-5.4l-26.67-3.655c-.05 1.772-.09 3.56-.127 5.36z"/><path opacity=".05" fill="#FFF" d="M363.33 169.944a.548.548 0 0 1-.61.486l-12.543-1.6a.557.557 0 0 1-.474-.625.548.548 0 0 1 .61-.485l12.544 1.6c.298.04.51.32.473.624zM367.155 202.882c-.04.306-.3.522-.583.484l-20.257-2.403c-.282-.04-.478-.32-.438-.625.04-.306.3-.522.583-.483l20.256 2.402c.283.04.48.32.44.625zM369.496 242.37c-.04.308-.348.517-.687.472l-24.39-2.975c-.34-.046-.583-.332-.542-.64.04-.305.348-.516.688-.468l24.39 2.973c.337.045.58.332.54.638z"/><path fill="#5B9311" d="M198.227 167.995c.25-.694 10.59-3.256 16.104-4.577 2.015-.482 3.385-.8 3.385-.8v151.813h-19.488V167.996z"/><path opacity=".1" fill="#060000" d="M214.33 163.417c-5.513 1.32-15.852 3.883-16.103 4.577v3.563c.25-.695 10.59-3.257 16.104-4.578 2.015-.483 3.385-.8 3.385-.8v-3.562s-1.37.318-3.384.8z"/><path opacity=".2" fill="#060000" d="M217.715 162.62s-1.66 65.158-26.573 131.66c-17.6 46.978 5.25 22.68 5.83 22.113.578-.567 18.506-7.042 18.506-7.042l1.998-12.08.24-134.65z"/><g opacity=".1"><path fill="#060000" d="M214.33 296.43c-5.513 1.322-15.852 3.883-16.103 4.58v3.56c.25-.694 10.59-3.256 16.104-4.577 2.015-.482 3.385-.8 3.385-.8v-3.562s-1.37.32-3.384.8zM214.33 290.647c-5.513 1.32-15.852 3.883-16.103 4.577v3.563c.25-.695 10.59-3.257 16.104-4.578 2.015-.482 3.385-.8 3.385-.8v-3.562s-1.37.318-3.384.8zM214.33 284.865c-5.513 1.32-15.852 3.882-16.103 4.577v3.563c.25-.695 10.59-3.257 16.104-4.578 2.015-.48 3.385-.8 3.385-.8v-3.56c0-.002-1.37.315-3.384.798zM214.33 279.082c-5.513 1.32-15.852 3.883-16.103 4.577v3.562c.25-.695 10.59-3.257 16.104-4.578 2.015-.482 3.385-.8 3.385-.8v-3.562s-1.37.318-3.384.8zM214.33 273.298c-5.513 1.32-15.852 3.883-16.103 4.577v3.563c.25-.695 10.59-3.257 16.104-4.58 2.015-.48 3.385-.797 3.385-.797V272.5s-1.37.317-3.384.8zM214.33 267.515c-5.513 1.32-15.852 3.883-16.103 4.578v3.563c.25-.695 10.59-3.257 16.104-4.578 2.015-.482 3.385-.8 3.385-.8v-3.562s-1.37.317-3.384.8zM214.33 261.73c-5.513 1.322-15.852 3.884-16.103 4.58v3.562c.25-.695 10.59-3.257 16.104-4.578 2.015-.483 3.385-.8 3.385-.8v-3.562s-1.37.318-3.384.8zM214.33 255.948c-5.513 1.32-15.852 3.884-16.103 4.578v3.563c.25-.696 10.59-3.258 16.104-4.58 2.015-.48 3.385-.798 3.385-.798v-3.563s-1.37.316-3.384.798zM214.33 250.165c-5.513 1.322-15.852 3.883-16.103 4.578v3.563c.25-.695 10.59-3.257 16.104-4.578 2.015-.482 3.385-.8 3.385-.8v-3.56c0-.002-1.37.315-3.384.797zM214.33 244.382c-5.513 1.32-15.852 3.882-16.103 4.578v3.562c.25-.695 10.59-3.257 16.104-4.578 2.015-.482 3.385-.8 3.385-.8v-3.562s-1.37.318-3.384.8zM214.33 238.6c-5.513 1.32-15.852 3.88-16.103 4.577v3.562c.25-.696 10.59-3.257 16.104-4.58 2.015-.48 3.385-.798 3.385-.798V237.8s-1.37.317-3.384.8zM214.33 232.816c-5.513 1.32-15.852 3.883-16.103 4.578v3.562c.25-.695 10.59-3.256 16.104-4.578 2.015-.482 3.385-.8 3.385-.8v-3.56s-1.37.315-3.384.798zM214.33 227.033c-5.513 1.32-15.852 3.882-16.103 4.577v3.562c.25-.695 10.59-3.256 16.104-4.578 2.015-.482 3.385-.8 3.385-.8v-3.56s-1.37.316-3.384.8zM214.33 221.25c-5.513 1.32-15.852 3.883-16.103 4.577v3.563c.25-.695 10.59-3.257 16.104-4.578 2.015-.482 3.385-.8 3.385-.8v-3.562s-1.37.318-3.384.8zM214.33 215.466c-5.513 1.32-15.852 3.883-16.103 4.577v3.563c.25-.695 10.59-3.257 16.104-4.578 2.015-.482 3.385-.8 3.385-.8v-3.562s-1.37.317-3.384.8zM214.33 209.683c-5.513 1.32-15.852 3.883-16.103 4.578v3.564c.25-.695 10.59-3.257 16.104-4.578 2.015-.482 3.385-.8 3.385-.8v-3.56c0-.002-1.37.315-3.384.797zM214.33 203.9c-5.513 1.32-15.852 3.882-16.103 4.577v3.563c.25-.695 10.59-3.257 16.104-4.578 2.015-.482 3.385-.8 3.385-.8V203.1s-1.37.317-3.384.8zM214.33 198.116c-5.513 1.32-15.852 3.884-16.103 4.578v3.563c.25-.695 10.59-3.257 16.104-4.58 2.015-.48 3.385-.797 3.385-.797v-3.563s-1.37.317-3.384.8zM214.33 192.333c-5.513 1.32-15.852 3.882-16.103 4.578v3.564c.25-.695 10.59-3.257 16.104-4.58 2.015-.48 3.385-.798 3.385-.798v-3.562s-1.37.317-3.384.8zM214.33 186.55c-5.513 1.32-15.852 3.883-16.103 4.578v3.563c.25-.694 10.59-3.256 16.104-4.577 2.015-.482 3.385-.8 3.385-.8v-3.562s-1.37.318-3.384.8zM214.33 180.767c-5.513 1.32-15.852 3.883-16.103 4.578v3.563c.25-.695 10.59-3.257 16.104-4.58 2.015-.48 3.385-.797 3.385-.797v-3.562s-1.37.317-3.384.8zM214.33 174.984c-5.513 1.32-15.852 3.883-16.103 4.578v3.562c.25-.695 10.59-3.256 16.104-4.578 2.015-.48 3.385-.8 3.385-.8v-3.56s-1.37.316-3.384.798zM214.33 169.2c-5.513 1.32-15.852 3.883-16.103 4.578v3.563c.25-.694 10.59-3.256 16.104-4.577 2.015-.482 3.385-.8 3.385-.8v-3.56s-1.37.316-3.384.798zM214.33 163.417c-5.513 1.32-15.852 3.883-16.103 4.577v3.563c.25-.695 10.59-3.257 16.104-4.578 2.015-.483 3.385-.8 3.385-.8v-3.562s-1.37.318-3.384.8z"/></g><path opacity=".4" fill="#060000" d="M186.42 170.77c.25-.695 10.59-3.257 16.103-4.578 2.014-.48 3.384-.8 3.384-.8v151.813H186.42V170.77z"/><path fill="#2B5F7F" d="M223.15 167.995c-.07-.694-2.954-3.256-4.49-4.577-.563-.482-.945-.8-.945-.8v151.813h5.435V167.996z"/><path fill="#97D353" d="M201.345 149.02c1.06-.198 0 165.727 0 165.727h-49.64s.684-124.93 9.23-153.077c16.068-15.18 38.7-12.335 40.41-12.65z"/><path opacity=".2" fill="#060000" d="M201.345 149.02c1.06-.198 0 165.727 0 165.727h-49.64s-15.085-41.368-6.538-69.516c50.996-2.462 54.468-95.895 56.178-96.21z"/><path opacity=".1" fill="#FFF" d="M157.137 314.486s.684-124.93 9.23-153.078c9.538-9.01 21.387-11.67 29.8-12.41-7.96.085-23.378 1.47-35.23 12.67-8.548 28.15-9.232 153.078-9.232 153.078h49.64l.002-.26h-44.21z"/><path opacity=".2" fill="#060000" d="M188.4 194.3h-32.226c-3.99 46.948-4.386 120.447-4.386 120.447H188.4V194.3z"/><path opacity=".1" fill="#060000" d="M156.174 194.3l-.21 2.53h30.538v117.917h1.898V194.3h-32.226z"/><g fill="#060000"><path opacity=".1" d="M201.345 233.197h-46.09l.557-4.732h45.533zM201.345 242.768H154.68l.563-4.733h46.102zM201.345 252.494H154.68l.563-4.733h46.102zM201.345 262.3h-46.09l.557-4.734h45.533zM201.345 271.87H154.68l.563-4.733h46.102zM201.345 281.596H154.68l.563-4.733h46.102zM201.345 291.378h-46.09l.557-4.732h45.533zM201.345 300.95H154.68l.563-4.733h46.102zM201.345 310.676H154.68l.563-4.733h46.102zM201.345 166.402h-41.777l1.368-4.732h40.41zM201.345 175.61h-43.2l.78-4.732h42.42zM201.345 185.18h-44.323l.535-4.733h43.788zM201.345 194.357h-45.167l.545-4.732h44.622zM201.345 203.898h-46.09l.557-4.733h45.533zM201.345 213.468H154.68l.563-4.732h46.102zM201.345 223.195H154.68l.563-4.732h46.102z"/></g><path opacity=".1" fill="#060000" d="M153.552 233.68l-1.905 81.067h38.732c1.108-27.626 4.807-129.072-.288-137.667-4.516-7.616-22.602-8.8-30.856-8.938-2.764 14.426-4.543 39.86-5.684 65.537z"/><path fill="#4D9309" d="M315.277 220.638l-3.26-2.313-13.32 4.916v80.676h24.734z"/><g fill="#060000"><path opacity=".1" d="M327.122 303.974H299.02l1.328 5.19h27.44zM298.516 298.465h27.276l-.664-5.19h-26.612zM298.516 288.674h26.335l-.664-5.19h-25.67zM298.516 278.12h23.605l-.663-5.19h-22.94zM298.516 268.585l22.224-.58-.664-5.19-21.56.58zM298.516 258.023l20.044-.578-.643-5.19-19.4 1.156zM298.516 248.48l17.926-1.734-.63-5.19-17.296 1.735zM298.516 238.313l15.643-1.735-.63-5.19-15.014 2.892z"/></g><path fill="#38BA08" d="M324.13 303.916l13.3 5.205-13.615-85.59-11.438-5.205z"/><path opacity=".1" fill="#060000" d="M336.44 303.93l-13.16-5.204 1.086 5.19 12.618 5.205zM334.81 293.23l-13.163-5.203 1.088 5.19 12.62 5.205zM334.04 283.44l-13.164-5.205 1.088 5.19 12.62 5.205zM331.806 272.886l-13.14-5.205 1.084 5.19 12.6 5.206zM330.676 262.772l-13.163-5.204 1.088 5.19 12.62 5.205zM328.91 252.21l-12.445-5.204 1.053 5.19 11.918 5.205zM327.188 241.512l-11.947-5.205 1.03 5.19 11.432 5.206zM325.32 231.344l-11.947-5.204 1.03 5.19 11.43 5.204z"/><path fill="#AFAFAF" d="M312.016 218.325l12.457 5.205 1.12 7.784-11.274-4.9-15.623 4.056v-7.23z"/><g fill="#E5E5E5"><path d="M312.016 218.325l11.415 85.59h.936l-11.263-85.59zM324.473 223.53h-.818l13.05 85.59h1.087z"/></g><path opacity=".3" fill="#FFF" d="M132.976 169.49h-1.12c.06-.007.124-.012.188-.012h16.773a1.565 1.565 0 0 1 0 3.13H126.08a3.1 3.1 0 0 0 .497 6.156h4.59c-.04.018-.08.04-.12.06h12.457a3.11 3.11 0 0 1 0 6.224h-12.15a3.11 3.11 0 0 0 1.036 6.046h24.575c.09 0 .18-.005.268-.012h9.365a1.518 1.518 0 0 0 .467-2.96h-2.46a1.6 1.6 0 0 1 0-3.205h4.735c-.02-.005-.04-.012-.058-.015h17.772a1.545 1.545 0 0 0 0-3.09h-1.337a.11.11 0 0 0 .026-.006h-3.81a1.547 1.547 0 0 1 0-3.095h3.496a3.098 3.098 0 0 0-.575-6.14h-18.217a1.544 1.544 0 0 1 0-3.09l12.758-.006a2.978 2.978 0 0 0 0-5.954h-3.73a1.626 1.626 0 0 0-.233-.02h-3.918a1.544 1.544 0 0 0-.274-3.063h-31.295a1.544 1.544 0 0 0-.273 3.063h14.823a1.444 1.444 0 0 1 0 2.887h-11.12l.026.015h-10.423a1.545 1.545 0 0 0 0 3.09z"/><path fill="#E5E5E5" d="M172.23 301.787c0 6.375-30.953 14.605-69.135 14.605-38.183 0-69.135-8.23-69.135-14.605 0-6.376 30.953-11.544 69.135-11.544s69.135 5.168 69.135 11.544z"/><path fill="#BCBCBC" d="M76.926 140.233V56.145s31.414-12.063 68.126 0v220.15H73.898l3.028-136.062z"/><path fill="#5B5B5B" d="M76.926 142.875V58.788s31.414-12.063 68.126 0v220.15H73.898l3.028-136.063z"/><path fill="#238E72" d="M75.244 151.186V62.754s33.037-12.687 71.646 0V294.28H72.06l3.184-143.094z"/><path opacity=".15" fill="#060000" d="M75.244 188.395s71.646-29.128 71.646-125.64v231.524H72.06l3.184-105.885z"/><path opacity=".3" fill="#FFF" d="M83.81 294.28h15.484V57.645c-5.688.01-10.902 2.01-15.484 2.608V294.28z"/><path opacity=".2" fill="#FFF" d="M101.733 292.1h3.698V57.58c-1.357.012-2.603-.104-3.697.496V292.1z"/><g fill="#060000"><g opacity=".1"><path d="M77.494 112.22h6.43v10.177h-6.43zM86.208 112.22h6.428v10.177h-6.428zM94.78 112.22h6.43v10.177h-6.43zM103.494 112.22h6.428v10.177h-6.428z"/></g><g opacity=".1"><path d="M112.066 112.22h6.43v10.177h-6.43zM120.78 112.22h6.43v10.177h-6.43zM129.352 112.22h6.428v10.177h-6.428zM138.065 112.22h6.43v10.177h-6.43z"/></g><g><g opacity=".1"><path d="M77.494 124.027h6.43v10.175h-6.43zM86.208 124.027h6.428v10.175h-6.428zM94.78 124.027h6.43v10.175h-6.43zM103.494 124.027h6.428v10.175h-6.428z"/></g><g opacity=".1"><path d="M112.066 124.027h6.43v10.175h-6.43zM120.78 124.027h6.43v10.175h-6.43zM129.352 124.027h6.428v10.175h-6.428zM138.065 124.027h6.43v10.175h-6.43z"/></g></g><g><g opacity=".1"><path d="M77.494 135.744h6.43v10.176h-6.43zM86.208 135.744h6.428v10.176h-6.428zM94.78 135.744h6.43v10.176h-6.43zM103.494 135.744h6.428v10.176h-6.428z"/></g><g opacity=".1"><path d="M112.066 135.744h6.43v10.176h-6.43zM120.78 135.744h6.43v10.176h-6.43zM129.352 135.744h6.428v10.176h-6.428zM138.065 135.744h6.43v10.176h-6.43z"/></g><g><g opacity=".1"><path d="M77.494 147.55h6.43v10.176h-6.43zM86.208 147.55h6.428v10.176h-6.428zM94.78 147.55h6.43v10.176h-6.43zM103.494 147.55h6.428v10.176h-6.428z"/></g><g opacity=".1"><path d="M112.066 147.55h6.43v10.176h-6.43zM120.78 147.55h6.43v10.176h-6.43zM129.352 147.55h6.428v10.176h-6.428zM138.065 147.55h6.43v10.176h-6.43z"/></g></g></g></g><g fill="#060000"><g opacity=".1"><path d="M77.494 159.267h6.43v10.175h-6.43zM86.208 159.267h6.428v10.175h-6.428zM94.78 159.267h6.43v10.175h-6.43zM103.494 159.267h6.428v10.175h-6.428z"/></g><g opacity=".1"><path d="M112.066 159.267h6.43v10.175h-6.43zM120.78 159.267h6.43v10.175h-6.43zM129.352 159.267h6.428v10.175h-6.428zM138.065 159.267h6.43v10.175h-6.43z"/></g><g><g opacity=".1"><path d="M77.494 171.072h6.43v10.176h-6.43zM86.208 171.072h6.428v10.176h-6.428zM94.78 171.072h6.43v10.176h-6.43zM103.494 171.072h6.428v10.176h-6.428z"/></g><g opacity=".1"><path d="M112.066 171.072h6.43v10.176h-6.43zM120.78 171.072h6.43v10.176h-6.43zM129.352 171.072h6.428v10.176h-6.428zM138.065 171.072h6.43v10.176h-6.43z"/></g></g><g><g opacity=".1"><path d="M77.494 182.79h6.43v10.174h-6.43zM86.208 182.79h6.428v10.174h-6.428zM94.78 182.79h6.43v10.174h-6.43zM103.494 182.79h6.428v10.174h-6.428z"/></g><g opacity=".1"><path d="M112.066 182.79h6.43v10.174h-6.43zM120.78 182.79h6.43v10.174h-6.43zM129.352 182.79h6.428v10.174h-6.428zM138.065 182.79h6.43v10.174h-6.43z"/></g><g><g opacity=".1"><path d="M77.494 194.595h6.43v10.175h-6.43zM86.208 194.595h6.428v10.175h-6.428zM94.78 194.595h6.43v10.175h-6.43zM103.494 194.595h6.428v10.175h-6.428z"/></g><g opacity=".1"><path d="M112.066 194.595h6.43v10.175h-6.43zM120.78 194.595h6.43v10.175h-6.43zM129.352 194.595h6.428v10.175h-6.428zM138.065 194.595h6.43v10.175h-6.43z"/></g></g></g></g><g fill="#060000"><g opacity=".1"><path d="M77.494 253.886h6.43v10.176h-6.43zM86.208 253.886h6.428v10.176h-6.428zM94.78 253.886h6.43v10.176h-6.43zM103.494 253.886h6.428v10.176h-6.428z"/></g><g opacity=".1"><path d="M112.066 253.886h6.43v10.176h-6.43zM120.78 253.886h6.43v10.176h-6.43zM129.352 253.886h6.428v10.176h-6.428zM138.065 253.886h6.43v10.176h-6.43z"/></g><g><g opacity=".1"><path d="M77.494 265.69h6.43v10.177h-6.43zM86.208 265.69h6.428v10.177h-6.428zM94.78 265.69h6.43v10.177h-6.43zM103.494 265.69h6.428v10.177h-6.428z"/></g><g opacity=".1"><path d="M112.066 265.69h6.43v10.177h-6.43zM120.78 265.69h6.43v10.177h-6.43zM129.352 265.69h6.428v10.177h-6.428zM138.065 265.69h6.43v10.177h-6.43z"/></g></g></g><g fill="#060000"><g opacity=".1"><path d="M77.494 277.408h6.43v10.176h-6.43zM86.208 277.408h6.428v10.176h-6.428zM94.78 277.408h6.43v10.176h-6.43zM103.494 277.408h6.428v10.176h-6.428z"/></g><g opacity=".1"><path d="M112.066 277.408h6.43v10.176h-6.43zM120.78 277.408h6.43v10.176h-6.43zM129.352 277.408h6.428v10.176h-6.428zM138.065 277.408h6.43v10.176h-6.43z"/></g></g><g fill="#060000"><g opacity=".1"><path d="M77.494 206.467h6.43v10.175h-6.43zM86.208 206.467h6.428v10.175h-6.428zM94.78 206.467h6.43v10.175h-6.43zM103.494 206.467h6.428v10.175h-6.428z"/></g><g opacity=".1"><path d="M112.066 206.467h6.43v10.175h-6.43zM120.78 206.467h6.43v10.175h-6.43zM129.352 206.467h6.428v10.175h-6.428zM138.065 206.467h6.43v10.175h-6.43z"/></g><g><g opacity=".1"><path d="M77.494 218.27h6.43v10.177h-6.43zM86.208 218.27h6.428v10.177h-6.428zM94.78 218.27h6.43v10.177h-6.43zM103.494 218.27h6.428v10.177h-6.428z"/></g><g opacity=".1"><path d="M112.066 218.27h6.43v10.177h-6.43zM120.78 218.27h6.43v10.177h-6.43zM129.352 218.27h6.428v10.177h-6.428zM138.065 218.27h6.43v10.177h-6.43z"/></g></g><g><g opacity=".1"><path d="M77.494 229.988h6.43v10.176h-6.43zM86.208 229.988h6.428v10.176h-6.428zM94.78 229.988h6.43v10.176h-6.43zM103.494 229.988h6.428v10.176h-6.428z"/></g><g opacity=".1"><path d="M112.066 229.988h6.43v10.176h-6.43zM120.78 229.988h6.43v10.176h-6.43zM129.352 229.988h6.428v10.176h-6.428zM138.065 229.988h6.43v10.176h-6.43z"/></g><g><g opacity=".1"><path d="M77.494 241.794h6.43v10.176h-6.43zM86.208 241.794h6.428v10.176h-6.428zM94.78 241.794h6.43v10.176h-6.43zM103.494 241.794h6.428v10.176h-6.428z"/></g><g opacity=".1"><path d="M112.066 241.794h6.43v10.176h-6.43zM120.78 241.794h6.43v10.176h-6.43zM129.352 241.794h6.428v10.176h-6.428zM138.065 241.794h6.43v10.176h-6.43z"/></g></g></g></g><g fill="#060000"><g opacity=".1"><path d="M77.494 64.912h6.43v10.176h-6.43zM86.208 64.912h6.428v10.176h-6.428zM94.78 64.912h6.43v10.176h-6.43zM103.494 64.912h6.428v10.176h-6.428z"/></g><g opacity=".1"><path d="M112.066 64.912h6.43v10.176h-6.43zM120.78 64.912h6.43v10.176h-6.43zM129.352 64.912h6.428v10.176h-6.428zM138.065 64.912h6.43v10.176h-6.43z"/></g><g><g opacity=".1"><path d="M77.494 76.718h6.43v10.176h-6.43zM86.208 76.718h6.428v10.176h-6.428zM94.78 76.718h6.43v10.176h-6.43zM103.494 76.718h6.428v10.176h-6.428z"/></g><g opacity=".1"><path d="M112.066 76.718h6.43v10.176h-6.43zM120.78 76.718h6.43v10.176h-6.43zM129.352 76.718h6.428v10.176h-6.428zM138.065 76.718h6.43v10.176h-6.43z"/></g></g><g><g opacity=".1"><path d="M77.494 88.434h6.43V98.61h-6.43zM86.208 88.434h6.428V98.61h-6.428zM94.78 88.434h6.43V98.61h-6.43zM103.494 88.434h6.428V98.61h-6.428z"/></g><g opacity=".1"><path d="M112.066 88.434h6.43V98.61h-6.43zM120.78 88.434h6.43V98.61h-6.43zM129.352 88.434h6.428V98.61h-6.428zM138.065 88.434h6.43V98.61h-6.43z"/></g><g><g opacity=".1"><path d="M77.494 100.24h6.43v10.176h-6.43zM86.208 100.24h6.428v10.176h-6.428zM94.78 100.24h6.43v10.176h-6.43zM103.494 100.24h6.428v10.176h-6.428z"/></g><g opacity=".1"><path d="M112.066 100.24h6.43v10.176h-6.43zM120.78 100.24h6.43v10.176h-6.43zM129.352 100.24h6.428v10.176h-6.428zM138.065 100.24h6.43v10.176h-6.43z"/></g></g></g></g><g fill="#060000"><path opacity=".3" d="M88.02 172.288l.016-.29c-.087.064-.09.16-.017.29z"/><path opacity=".3" d="M101.733 294.28V181.864c-7.798-5.473-13.14-8.553-13.714-9.577l-6.68 121.99h20.393z"/></g><path opacity=".3" fill="#060000" d="M88.036 171.997c-1.41 1.057 19.21 10.87 40.852 32.51 21.64 21.64 0 89.772 0 89.772h-47.55l6.698-122.283z"/><path opacity=".1" fill="#060000" d="M133.79 59.32v234.96h13.1V62.753a111.335 111.335 0 0 0-13.1-3.433z"/><path fill="#024F39" d="M91.552 287.584h24.143v19.91H91.552z"/><path fill="#D34646" d="M93.616 151.206s-41.583-1.057-50.04 12.334v130.74h50.04V151.206z"/><path opacity=".1" fill="#060000" d="M43.577 163.54v130.74h50.04c0-18.325-33.98-4.18-50.04-130.74z"/><path fill="#13A8A0" d="M114.134 294.28v-87.044s25.372-10.22 50.746 8.81v78.233h-50.746z"/><path opacity=".1" fill="#060000" d="M114.134 294.28s45.893-18.19 50.746-78.233v78.232h-50.746zM52.915 156.77c-4.923 1.757-7.33 3.592-9.338 6.77v130.74h8.81l.528-137.51z"/><path opacity=".1" fill="#060000" d="M153.877 209.478v84.802h11.002v-78.232c-3.694-2.772-7.388-4.918-11.003-6.57z"/><g fill="#060000"><path opacity=".1" d="M47.805 167.217l-3.127 2.115v-10.175l3.127-2.115zM53.458 163.892l-4.184 2.643V156.36l4.184-2.644zM60.505 161.314l-5.24 1.587v-9.646l5.24-1.586zM68.435 159.86l-5.77 1.06v-9.65l5.77-1.056zM75.66 159.443l-5.77.418v-10.064l5.77-.528zM77.488 149.157h5.77v10.176h-5.77zM85.145 149.157h5.77v10.176h-5.77zM47.805 179.487l-3.127 2.115v-10.176l3.127-2.114zM53.458 176.16l-4.184 2.645V168.63l4.184-2.644zM60.505 173.584l-5.24 1.586v-9.646l5.24-1.587zM68.435 172.13l-5.77 1.058v-9.647l5.77-1.056zM75.66 171.713l-5.77.418v-10.065l5.77-.528zM77.488 161.427h5.77v10.176h-5.77zM85.145 161.427h5.77v10.176h-5.77z"/><g><path opacity=".1" d="M47.805 191.675l-3.127 2.115v-10.176l3.127-2.114zM53.458 188.35l-4.184 2.643v-10.176l4.184-2.643zM60.505 185.773l-5.24 1.585v-9.646l5.24-1.586zM68.435 184.32l-5.77 1.056v-9.647l5.77-1.057zM75.66 183.9l-5.77.42v-10.067l5.77-.528zM77.488 173.615h5.77v10.176h-5.77zM85.145 173.615h5.77v10.176h-5.77z"/></g><g><path opacity=".1" d="M47.805 203.944l-3.127 2.115v-10.176l3.127-2.114zM53.458 200.62l-4.184 2.642v-10.176l4.184-2.642zM60.505 198.042l-5.24 1.586v-9.647l5.24-1.584zM68.435 196.59l-5.77 1.056V188l5.77-1.06zM75.66 196.17l-5.77.42v-10.067l5.77-.53zM77.488 185.885h5.77v10.175h-5.77zM85.145 185.885h5.77v10.175h-5.77z"/></g><g><path opacity=".1" d="M47.805 216.102l-3.127 2.115v-10.175l3.127-2.115zM53.458 212.776l-4.184 2.644v-10.175l4.184-2.643zM60.505 210.2l-5.24 1.586v-9.646l5.24-1.587zM68.435 208.747l-5.77 1.057v-9.647l5.77-1.058zM75.66 208.328l-5.77.42V198.68l5.77-.528zM77.488 198.042h5.77v10.176h-5.77zM85.145 198.042h5.77v10.176h-5.77z"/></g><g><path opacity=".1" d="M47.805 228.372l-3.127 2.115V220.31l3.127-2.114zM53.458 225.046l-4.184 2.643v-10.176l4.184-2.644zM60.505 222.47l-5.24 1.586v-9.648l5.24-1.585zM68.435 221.016l-5.77 1.057v-9.647l5.77-1.057zM75.66 220.598l-5.77.418V210.95l5.77-.528zM77.488 210.312h5.77v10.175h-5.77zM85.145 210.312h5.77v10.175h-5.77z"/></g><g><path opacity=".1" d="M47.805 240.56l-3.127 2.114V232.5l3.127-2.115zM53.458 237.235l-4.184 2.642v-10.175l4.184-2.643zM60.505 234.657l-5.24 1.586v-9.647l5.24-1.585zM68.435 233.204l-5.77 1.056v-9.646l5.77-1.057zM75.66 232.785l-5.77.42v-10.066l5.77-.53zM77.488 222.5h5.77v10.176h-5.77zM85.145 222.5h5.77v10.176h-5.77z"/></g><g><path opacity=".1" d="M47.805 252.83l-3.127 2.114V244.77l3.127-2.116zM53.458 249.504l-4.184 2.643v-10.175l4.184-2.643zM60.505 246.927l-5.24 1.586v-9.647l5.24-1.586zM68.435 245.474l-5.77 1.056v-9.646l5.77-1.057zM75.66 245.055l-5.77.42v-10.067l5.77-.528zM77.488 234.77h5.77v10.175h-5.77zM85.145 234.77h5.77v10.175h-5.77z"/></g><g><path opacity=".1" d="M47.805 265.12l-3.127 2.114v-10.176l3.127-2.115zM53.458 261.793l-4.184 2.644v-10.175l4.184-2.644zM60.505 259.217l-5.24 1.586v-9.648l5.24-1.585zM68.435 257.764l-5.77 1.056v-9.646l5.77-1.058zM75.66 257.345l-5.77.42v-10.067l5.77-.53zM77.488 247.06h5.77v10.175h-5.77zM85.145 247.06h5.77v10.175h-5.77z"/></g><g><path opacity=".1" d="M47.805 277.39l-3.127 2.113v-10.176l3.127-2.113zM53.458 274.064l-4.184 2.643V266.53l4.184-2.642zM60.505 271.486l-5.24 1.586v-9.646l5.24-1.586zM68.435 270.032l-5.77 1.058v-9.647l5.77-1.057zM75.66 269.614l-5.77.418v-10.065l5.77-.528zM77.488 259.33h5.77v10.174h-5.77zM85.145 259.33h5.77v10.174h-5.77z"/></g><g><path opacity=".1" d="M47.805 289.577l-3.127 2.114v-10.174l3.127-2.114zM53.458 286.252l-4.184 2.643V278.72l4.184-2.644zM60.505 283.675l-5.24 1.586v-9.646l5.24-1.587zM68.435 282.22l-5.77 1.058v-9.647l5.77-1.056zM75.66 281.802l-5.77.42v-10.067l5.77-.528zM77.488 271.517h5.77v10.175h-5.77zM85.145 271.517h5.77v10.175h-5.77z"/></g></g><g fill="#060000"><path opacity=".1" d="M160.027 227.072l3.127 2.115v-10.175l-3.127-2.115zM154.375 223.747l4.184 2.643v-10.176l-4.185-2.643zM147.327 221.17l5.24 1.586v-9.647l-5.24-1.587zM139.397 219.717l5.77 1.056v-9.647l-5.77-1.057zM132.173 219.298l5.77.42V209.65l-5.77-.527zM124.575 209.013h5.77v10.175h-5.77zM116.917 209.013h5.77v10.175h-5.77z"/><g><path opacity=".1" d="M160.027 239.26l3.127 2.115V231.2l-3.127-2.115zM154.375 235.935l4.184 2.643v-10.175l-4.185-2.643zM147.327 233.358l5.24 1.585v-9.646l-5.24-1.586zM139.397 231.904l5.77 1.058v-9.648l-5.77-1.057zM132.173 231.486l5.77.418V221.84l-5.77-.53zM124.575 221.2h5.77v10.176h-5.77zM116.917 221.2h5.77v10.176h-5.77z"/></g><g><path opacity=".1" d="M160.027 251.53l3.127 2.114V243.47l-3.127-2.115zM154.375 248.205l4.184 2.642v-10.175l-4.185-2.644zM147.327 245.627l5.24 1.586v-9.646l-5.24-1.586zM139.397 244.174l5.77 1.057v-9.646l-5.77-1.057zM132.173 243.755l5.77.42v-10.067l-5.77-.527zM124.575 233.47h5.77v10.176h-5.77zM116.917 233.47h5.77v10.176h-5.77z"/></g><g><path opacity=".1" d="M160.027 263.82l3.127 2.114V255.76l-3.127-2.116zM154.375 260.494l4.184 2.643v-10.175l-4.185-2.643zM147.327 257.917l5.24 1.586v-9.647l-5.24-1.585zM139.397 256.463l5.77 1.058v-9.646l-5.77-1.057zM132.173 256.045l5.77.418v-10.065l-5.77-.528zM124.575 245.76h5.77v10.175h-5.77zM116.917 245.76h5.77v10.175h-5.77z"/></g><g><path opacity=".1" d="M160.027 276.09l3.127 2.114V268.03l-3.127-2.116zM154.375 272.764l4.184 2.642V265.23l-4.185-2.642zM147.327 270.187l5.24 1.586v-9.648l-5.24-1.585zM139.397 268.733l5.77 1.057v-9.646l-5.77-1.058zM132.173 268.314l5.77.42v-10.066l-5.77-.53zM124.575 258.03h5.77v10.174h-5.77zM116.917 258.03h5.77v10.174h-5.77z"/></g><g><path opacity=".1" d="M160.027 288.278l3.127 2.114v-10.176l-3.127-2.113zM154.375 284.952l4.184 2.643V277.42l-4.185-2.644zM147.327 282.375l5.24 1.586v-9.646l-5.24-1.585zM139.397 280.92l5.77 1.06v-9.65l-5.77-1.056zM132.173 280.503l5.77.418v-10.064l-5.77-.528zM124.575 270.218h5.77v10.175h-5.77zM116.917 270.218h5.77v10.175h-5.77z"/></g></g><path opacity=".3" fill="#FFF" d="M76.632 148.068v121.54a4.142 4.142 0 0 0 8.283 0V148.07h-8.283z"/><path opacity=".2" fill="#FFF" d="M123.915 204.77v57.06a4.14 4.14 0 0 0 8.283 0v-57.06h-8.283z"/><path opacity=".3" fill="#FFF" d="M66.595 151.26v90.5c0 1.703 1.03 3.084 2.297 3.084 1.268 0 2.296-1.38 2.296-3.084v-90.5h-4.593z"/><path fill="#BCBCBC" d="M46.698 151.012v5.533c7.58-12.003 44.854-11.055 44.854-11.055v-5.532s-37.273-.95-44.854 11.054z"/><path fill="#5B5B5B" d="M46.698 153.127v5.532c7.58-12.005 44.854-11.057 44.854-11.057v-5.533s-37.273-.947-44.854 11.057z"/><path opacity=".1" fill="#060000" d="M42.81 161.007v6.49c8.897-14.082 52.63-12.97 52.63-12.97v-6.493s-43.733-1.112-52.63 12.973zM87.525 284.776h30.812v7.363H87.525z"/><path fill="#A8A8A8" d="M87.525 282.662h30.812v7.363H87.525z"/><path fill="#BCBCBC" d="M42.81 158.364v6.492c8.897-14.083 52.63-12.972 52.63-12.972v-6.492s-43.733-1.112-52.63 12.972zM162.507 208.67v5.852c-7.77-12.698-45.972-11.695-45.972-11.695v-5.852s38.202-1.003 45.972 11.695z"/><path fill="#5B5B5B" d="M162.507 210.784v5.853c-7.77-12.698-45.972-11.696-45.972-11.696v-5.852s38.202-1.002 45.972 11.696z"/><path fill="#024F39" d="M91.443 286.542v20.952s-41.645-1.847-48.632-8.147v-6.314s49.553-10.537 49.827-9.755c.275.782-1.194 3.264-1.194 3.264z"/><path opacity=".3" fill="#060000" d="M42.81 295.147v6.49c8.897-14.082 52.63-12.97 52.63-12.97v-6.492s-43.733-1.112-52.63 12.972z"/><path fill="#A3A3A3" d="M89.972 285.27v22.732c0 .508 1.175.92 2.626.92 1.45 0 2.625-.412 2.625-.92v-22.73h-5.25z"/><path opacity=".1" fill="#060000" d="M89.972 285.27v.528h3.666v22.733c0 .12-.07.234-.188.338 1.03-.125 1.774-.462 1.774-.866v-22.73h-5.252z"/><path opacity=".2" fill="#FFF" d="M90.655 286.283h1.414v22.64h-1.415z"/><path fill="#A3A3A3" d="M80.632 284.597v22.73c0 .51 1.175.92 2.625.92s2.626-.41 2.626-.92v-22.73h-5.25z"/><path opacity=".1" fill="#060000" d="M80.632 284.597v.528h3.665v22.732c0 .12-.07.23-.188.337 1.028-.125 1.772-.463 1.772-.866v-22.73h-5.25z"/><path opacity=".2" fill="#FFF" d="M81.316 285.61h1.414v22.638h-1.414z"/><path fill="#A3A3A3" d="M72.264 284.127v22.73c0 .51 1.174.92 2.625.92 1.45 0 2.625-.41 2.625-.92v-22.73h-5.25z"/><path opacity=".1" fill="#060000" d="M72.264 284.127v.528h3.665v22.732c0 .12-.07.233-.19.337 1.03-.124 1.774-.463 1.774-.866v-22.73h-5.25z"/><path opacity=".2" fill="#FFF" d="M72.946 285.14h1.414v22.64h-1.414z"/><path fill="#A3A3A3" d="M64.588 283.205v22.733c0 .508.96.92 2.144.92 1.184 0 2.144-.412 2.144-.92v-22.733h-4.288z"/><path opacity=".1" fill="#060000" d="M64.588 283.205v.53h2.993v22.73c0 .12-.055.233-.153.338.84-.125 1.45-.463 1.45-.866v-22.733h-4.29z"/><path opacity=".2" fill="#FFF" d="M65.146 284.22H66.3v22.637h-1.154z"/><path fill="#A3A3A3" d="M58.074 286.98v18.293c0 .51.876.92 1.958.92s1.958-.412 1.958-.92v-18.827c-1.454.218-2.826.376-3.916.534z"/><path opacity=".1" fill="#060000" d="M60.807 286.615v19.187c0 .12-.053.233-.14.337.766-.125 1.32-.464 1.32-.867v-18.827c-.4.06-.795.116-1.18.17z"/><path opacity=".2" fill="#FFF" d="M58.583 286.91v19.284h1.053V286.77c-.367.046-.72.093-1.053.14z"/><path fill="#A3A3A3" d="M52.03 288.982v14.846c0 .508.875.92 1.957.92 1.08 0 1.958-.412 1.958-.92V287.44a26.92 26.92 0 0 0-3.916 1.542z"/><path opacity=".1" fill="#060000" d="M54.76 287.83v16.527a.53.53 0 0 1-.138.338c.767-.125 1.322-.463 1.322-.866V287.44c-.4.12-.793.247-1.183.387z"/><path opacity=".2" fill="#FFF" d="M52.538 288.735v16.014h1.055v-16.472c-.354.147-.707.297-1.055.457z"/><path fill="#A3A3A3" d="M46.516 292.07v10.063c0 .508.826.92 1.844.92s1.844-.412 1.844-.92v-12.217a87.667 87.667 0 0 0-3.688 2.155z"/><path opacity=".1" fill="#060000" d="M49.09 290.54v12.122c0 .12-.05.233-.133.338.723-.125 1.246-.462 1.246-.866v-12.217c-.373.203-.745.41-1.113.624z"/><path opacity=".2" fill="#FFF" d="M46.995 291.78v11.272h.992v-11.87l-.992.598z"/><path fill="#A3A3A3" d="M42.653 294.394v7.05c0 .305.527.552 1.176.552.648 0 1.174-.247 1.174-.552v-8.45c-.778.474-1.56.944-2.35 1.4z"/><path opacity=".1" fill="#060000" d="M44.295 293.423v8.338c0 .073-.03.14-.084.204.462-.075.795-.278.795-.52v-8.452c-.236.145-.473.287-.71.43z"/><path opacity=".2" fill="#FFF" d="M42.958 294.215v7.78h.634v-8.153c-.21.126-.42.25-.634.373z"/><path fill="#024F39" d="M115.695 286.542v20.952s41.646-1.847 48.633-8.147v-6.314c-7.015-9.036-44.25-11.32-44.525-10.537-.275.78-4.108 4.046-4.108 4.046z"/><path opacity=".3" fill="#060000" d="M165.108 293.57v5.815c-8.634-12.62-51.083-11.623-51.083-11.623v-5.816s42.45-.996 51.083 11.623z"/><path fill="#A3A3A3" d="M119 285.27v22.732c0 .508-1.142.92-2.548.92-1.406 0-2.545-.412-2.545-.92v-22.73H119z"/><path opacity=".1" fill="#060000" d="M119 285.27v.528h-3.556v22.733c0 .12.067.234.182.338-.998-.125-1.72-.462-1.72-.866v-22.73H119z"/><path opacity=".2" fill="#FFF" d="M116.965 286.283h1.372v22.64h-1.372z"/><path fill="#A3A3A3" d="M128.057 284.597v22.73c0 .51-1.14.92-2.546.92s-2.546-.41-2.546-.92v-22.73h5.093z"/><path opacity=".1" fill="#060000" d="M128.057 284.597v.528h-3.555v22.732c0 .12.068.23.183.337-1-.125-1.72-.463-1.72-.866v-22.73h5.092z"/><path opacity=".2" fill="#FFF" d="M126.022 285.61h1.37v22.638h-1.37z"/><path fill="#A3A3A3" d="M136.173 284.127v22.73c0 .51-1.14.92-2.546.92-1.407 0-2.546-.41-2.546-.92v-22.73h5.093z"/><path opacity=".1" fill="#060000" d="M136.173 284.127v.528h-3.555v22.732c0 .12.067.233.182.337-.998-.124-1.72-.463-1.72-.866v-22.73h5.093z"/><path opacity=".2" fill="#FFF" d="M134.14 285.14h1.37v22.64h-1.37z"/><path fill="#A3A3A3" d="M143.617 283.205v22.733c0 .508-.93.92-2.08.92s-2.08-.412-2.08-.92v-22.733h4.16z"/><path opacity=".1" fill="#060000" d="M143.617 283.205v.53h-2.903v22.73c0 .12.054.233.15.338-.818-.125-1.407-.463-1.407-.866v-22.733h4.16z"/><path opacity=".2" fill="#FFF" d="M141.956 284.22h1.12v22.637h-1.12z"/><path fill="#A3A3A3" d="M149.934 286.98v18.293c0 .51-.85.92-1.898.92s-1.898-.412-1.898-.92v-18.827c1.408.218 2.74.376 3.796.534z"/><path opacity=".1" fill="#060000" d="M147.284 286.615v19.187c0 .12.05.233.135.337-.745-.125-1.283-.464-1.283-.867v-18.827c.39.06.773.116 1.147.17z"/><path opacity=".2" fill="#FFF" d="M149.44 286.91v19.284h-1.022V286.77a91 91 0 0 1 1.022.14z"/><path fill="#A3A3A3" d="M155.797 288.982v14.846c0 .508-.85.92-1.9.92-1.046 0-1.898-.412-1.898-.92V287.44a25.66 25.66 0 0 1 3.797 1.542z"/><path opacity=".1" fill="#060000" d="M153.147 287.83v16.527c0 .12.05.234.135.338-.744-.125-1.283-.463-1.283-.866V287.44c.386.12.77.247 1.147.387z"/><path opacity=".2" fill="#FFF" d="M155.303 288.735v16.014h-1.022v-16.472c.344.147.686.297 1.023.457z"/><path fill="#A3A3A3" d="M161.145 292.07v10.063c0 .508-.8.92-1.79.92-.986 0-1.788-.412-1.788-.92v-12.217c1.21.68 2.395 1.412 3.578 2.155z"/><path opacity=".1" fill="#060000" d="M158.648 290.54v12.122c0 .12.047.233.128.338-.7-.125-1.208-.462-1.208-.866v-12.217c.362.203.723.41 1.08.624z"/><path opacity=".2" fill="#FFF" d="M160.68 291.78v11.272h-.963v-11.87l.962.598z"/><g><path fill="#A3A3A3" d="M164.89 294.394v7.05c0 .305-.51.552-1.14.552-.63 0-1.14-.247-1.14-.552v-8.45c.755.474 1.514.944 2.28 1.4z"/><path opacity=".1" fill="#060000" d="M163.298 293.423v8.338c0 .073.03.14.082.204-.448-.075-.77-.278-.77-.52v-8.452c.228.145.458.287.688.43z"/><path opacity=".2" fill="#FFF" d="M164.593 294.215v7.78h-.615v-8.153c.204.126.41.25.615.373z"/></g><path opacity=".1" fill="#060000" d="M165.108 292.51v5.818c-8.634-12.62-51.083-11.623-51.083-11.623v-5.816s42.45-.998 51.083 11.62zM165.017 216.918v6.492c-8.62-14.084-50.99-12.972-50.99-12.972v-6.49s42.37-1.113 50.99 12.97z"/><path fill="#BCBCBC" d="M165.017 214.804v6.492c-8.62-14.083-50.99-12.972-50.99-12.972v-6.49s42.37-1.114 50.99 12.97zM165.108 291.455v5.815c-8.634-12.62-51.083-11.623-51.083-11.623v-5.816s42.45-.995 51.083 11.625z"/><path opacity=".1" fill="#060000" d="M42.81 294.09v6.492c8.897-14.084 52.63-12.972 52.63-12.972v-6.492s-43.733-1.112-52.63 12.972z"/><path fill="#BCBCBC" d="M42.81 293.033v6.492c8.897-14.084 52.63-12.972 52.63-12.972v-6.492s-43.733-1.11-52.63 12.973z"/><path opacity=".2" fill="#060000" d="M312.42 218.644c8.656 58.443 23.313 74.068 23.313 74.068l-12.903.547-10.41-74.616z"/><g><path fill="#BCBCBC" d="M256.77 36.408l-12.34 9.675-.357 7.593 39.217 2.085.216-15.482z"/><path fill="#065C70" d="M256.77 38.79l-12.34 9.675-.357 7.593 39.217 2.085.216-15.482z"/><path fill="#1A84AD" d="M289.42 105.333l-36.47-2.978V42.81l36.47 2.976z"/><path fill="#117493" d="M252.95 42.81l-11.677 11.015v60.142l11.677-11.612"/><path fill="#E5E5E5" d="M252.91 42.81h1.273v59.845h-1.273zM245.938 108.97l-.636.6V50.03l.636-.595zM249.06 105.993l-.637.6v-59.54l.637-.595zM260.794 43.405h1.274v59.845h-1.274zM269.912 44.148h1.274v59.845h-1.274zM278.707 44.893h1.274v59.844h-1.273zM288.147 45.487h1.274v59.846h-1.273z"/><path fill="#E5E5E5" d="M289.42 75.113l-35.874-3.573v-.893l35.875 3.573zM241.068 82.854l12.478-11.314v-.893L241.068 81.96z"/><path opacity=".3" fill="#060000" d="M252.546 101.318l.404-.134-.04-3.37-11.43 15.96z"/><path fill="#1A84AD" d="M289.626 164.898l-38.313-4.17v-59.544l38.313 4.168z"/><path fill="#117493" d="M251.313 160.73l-9.834 12.207-.412-59.416 10.245-12.336"/><path fill="#E5E5E5" d="M252.546 161.03h-1.274l-.29-59.448.927-.333zM246.143 168.536l-.637.6v-60.745l.637-.536zM249.265 163.296l-.637.6v-59.604l.637-.596zM262.273 161.922l-1.274-.14V102.97h1.273zM271.45 162.814l-1.333-.04V103.25l1.333.135zM280.186 163.892l-1.274-.16v-59.275h1.274zM288.352 105.053h1.274v59.845h-1.274z"/><path fill="#E5E5E5" d="M289.626 134.678l-37.717-4.764v-.893l37.716 4.765zM289.626 138.55l-37.717-4.765v-.893l37.716 4.763zM289.626 130.808l-37.717-4.764v-.893l37.716 4.764zM241.273 142.42l10.636-12.506v-.893l-10.637 12.506z"/><path fill="#E5E5E5" d="M241.273 138.55l10.636-12.506v-.893l-10.637 12.505zM241.273 146.44l10.636-12.505v-.893l-10.637 12.504z"/><path fill="#2F5159" d="M289.626 107.81v-2.458l-37.717-4.103"/><g><path fill="#1A84AD" d="M290.65 223.438l-36.472-2.978v-59.546l36.47 2.978z"/><path fill="#117493" d="M254.178 160.914l-12.7 12.023 1.023 59.135 11.678-11.612"/><path fill="#E5E5E5" d="M254.138 160.914h1.274v59.846h-1.274zM247.167 227.076l-.638.6v-59.54l.637-.596zM250.288 224.098l-.637.6v-59.54l.638-.596zM262.022 161.51h1.274v59.845h-1.274zM271.14 162.253h1.274v59.845h-1.274zM279.935 162.997h1.274v59.845h-1.275zM289.375 163.593h1.274v59.845h-1.275z"/><path fill="#E5E5E5" d="M290.65 205.355l-35.875-3.572v-.893l35.874 3.572z"/><path fill="#E5E5E5" d="M242.296 213.097l12.48-11.314v-.893l-12.48 11.313zM290.65 185.904l-35.875-3.573v-.892l35.874 3.573z"/><path fill="#E5E5E5" d="M242.296 193.646l12.48-11.315v-.892l-12.48 11.313z"/></g><path fill="#2F5159" d="M251.313 160.73l-8.812 10.936-1.02 1.27 13.932-12.022z"/><path opacity=".3" fill="#FFF" d="M289.97 188.85l-35.195 11.91v-14.787l35.195-11.91zM289.97 195.702l-35.195 11.908v-3.39l35.195-11.908z"/><path fill="#0E7289" d="M293.883 295.448l-43.194-2.726V217.37l43.193 2.725z"/><path fill="#1A84AD" d="M250.69 217.37l-13.83 10.084v75.898l13.83-10.63"/><path fill="#E5E5E5" d="M250.64 217.37h1.51v75.626h-1.51zM242.384 298.78l-.755.548V223.98l.754-.544zM246.082 296.053l-.756.55v-75.348l.756-.546zM259.98 217.915h1.508v75.627h-1.51zM270.778 218.596h1.51v75.627h-1.51zM281.193 219.277h1.51v75.625h-1.51zM292.375 219.82h1.51v75.628h-1.51z"/><g><path fill="#E5E5E5" d="M292.695 245.32l-41.884-2.83v-.853l41.885 2.83z"/></g><g><path fill="#E5E5E5" d="M235.416 253.28l15.395-10.79v-.853l-15.394 10.79z"/></g></g><path opacity=".2" fill="#060000" d="M293.85 244.756l.072.037v-25.131h-1.51v.18l-1.725-.11V163.433h-1.023v-58.538h-.206V45.33h-.784v-1.145l-2.484 1.175-2.683-.218.038-2.64-.033-.005.033-2.377-26.737-3.87-12.34 9.674-.234 4.985-2.922 2.756v27.95l-.205.185v.895l.205-.186v30.604l-.205.247.22 32.008-.015.018v.894l.02-.027.185 26.524.874 50.512-5.493 4.005v23.96l-1.443 1.013v.85l1.443-1.01v51.085L250.68 292.6v.236h1.508v-.18l7.83.493v.232h1.508v-.137l9.29.586v.233h1.51v-.137l8.906.562v.256h1.508v-.16l9.673.61v.094h1.51v-49.642l-.072-.038z"/><path opacity=".3" fill="#060000" d="M272.15 257.806l-1.123-.09V233.31h-1.42v.174l-1.626-.106V178.698h-.963v-56.855h-.193V63.993h-.74v-1.11l-2.34 1.14-2.525-.21.034-2.565-.03-.006.03-2.308-25.182-3.76-11.623 9.397-.22 4.842-2.753 2.678v27.145l-.193.18v.868l.193-.18v29.724l-.193.24.208 31.086-.015.018v.868l.02-.025.173 25.76 3.793-4.856-2.83 3.623-.963 1.234.823 49.058-5.174 3.89v23.272l-1.36.982v.827l1.36-.982v49.613l12.98-10.287v.23h1.42v-.176l7.375.48v.226h1.42v-.133l8.75.57v.226h1.42v-.134l8.39.545v.248h1.422v-.155l9.11.592v.092h1.42V258.55l1.122.088v-.832zm-41.255-81.837l-1.89 2.418 1.89-2.42zm-4.83 6.18l2.863-3.665-2.864 3.665z"/><g><path fill="#BCBCBC" d="M230.29 52.284l-11.623 9.396-.335 7.375 36.935 2.024.205-15.037z"/><path fill="#700101" d="M230.29 54.597l-11.623 9.397-.335 7.374 36.935 2.025.205-15.038z"/><path fill="#D34646" d="M261.042 119.225l-34.35-2.892V58.5l34.35 2.893z"/><path fill="#BA2D2D" d="M226.692 58.5l-10.997 10.7v58.41l10.997-11.277"/><path fill="#E5E5E5" d="M226.655 58.5h1.2v58.123h-1.2zM220.09 122.758l-.6.583V65.515l.6-.578zM223.028 119.866l-.6.583V62.62l.6-.578zM234.08 59.08h1.2V117.2h-1.2zM242.668 59.802h1.2v58.122h-1.2zM250.95 60.523h1.2v58.123h-1.2zM259.842 61.102h1.2v58.123h-1.2z"/><path fill="#E5E5E5" d="M261.042 89.875l-33.788-3.47v-.868l33.788 3.47z"/><path fill="#E5E5E5" d="M215.502 97.393l11.752-10.99v-.866l-11.752 10.988z"/><path opacity=".3" fill="#060000" d="M226.312 115.325l.38-.13-.037-3.272-10.767 15.5z"/><path fill="#D34646" d="M261.235 177.075l-36.084-4.05v-57.83l36.085 4.048z"/><path fill="#BA2D2D" d="M224.806 173.208l-9.263 11.855-.386-57.706 9.65-11.982"/><path fill="#E5E5E5" d="M226.312 173.317h-1.2l-.273-57.735.872-.325zM220.282 180.608l-.6.583v-58.996l.6-.52zM223.22 175.52l-.598.583v-57.89l.6-.578zM235.473 174.185l-1.2-.135v-57.12h1.2zM244.116 175.052l-1.256-.04v-57.81l1.256.13zM252.343 176.098l-1.2-.156v-57.568h1.2zM260.035 118.952h1.2v58.123h-1.2z"/><path fill="#E5E5E5" d="M261.235 147.725l-35.523-4.626v-.87l35.523 4.628zM261.235 151.484l-35.523-4.626v-.868l35.523 4.627zM261.235 143.966l-35.523-4.627v-.868l35.523 4.627zM215.695 155.243l10.017-12.144v-.87l-10.017 12.145zM215.695 151.484l10.017-12.145v-.868l-10.017 12.145zM215.695 159.147l10.017-12.144v-.867l-10.017 12.144z"/><path fill="#700101" d="M261.235 121.63v-2.387l-35.523-3.986"/><g><path fill="#D34646" d="M262.2 233.93l-34.35-2.892v-57.83l34.35 2.89z"/><path fill="#BA2D2D" d="M227.85 173.207l-11.962 11.675.964 57.433 10.998-11.277"/><path fill="#E5E5E5" d="M227.81 173.207h1.2v58.123h-1.2zM221.246 237.463l-.6.584V180.22l.6-.58zM224.185 234.57l-.6.584v-57.826l.6-.58zM235.237 173.784h1.2v58.122h-1.2zM243.825 174.507h1.2v58.123h-1.2zM252.107 175.23h1.2v58.122h-1.2zM261 175.807h1.2v58.123H261z"/><path fill="#E5E5E5" d="M262.2 216.368l-33.79-3.47v-.868l33.79 3.47zM216.66 223.886l11.75-10.988v-.868l-11.75 10.99zM262.2 197.476l-33.79-3.47v-.867l33.79 3.47zM216.66 204.994l11.75-10.988v-.867l-11.75 10.987z"/></g><path fill="#700101" d="M225.15 173.026l-8.298 10.622-.964 1.234 13.122-11.675z"/><path opacity=".3" fill="#FFF" d="M260.035 146.858l-34.884 11.567v-14.363l34.885-11.565zM260.035 153.512l-34.884 11.566v-3.293l34.885-11.566zM261.56 200.338l-33.15 11.566v-14.362l33.15-11.566zM261.56 206.99l-33.15 11.568v-3.293l33.15-11.566zM260.303 80.472L226.49 96.966v-20.48l33.813-16.494zM260.303 89.96l-33.813 16.493v-4.694l33.813-16.495z"/><path fill="#BA2D2D" d="M265.245 303.867l-40.683-2.647v-73.184l40.683 2.648z"/><path fill="#D34646" d="M224.562 228.036l-13.025 9.795v73.713l13.025-10.323"/><path fill="#E5E5E5" d="M224.518 228.036h1.42v73.45h-1.42zM216.74 307.102l-.71.533v-73.178l.71-.53zM220.223 304.454l-.71.534v-73.18l.71-.528zM233.312 228.566h1.42v73.45h-1.42zM243.483 229.227h1.42v73.45h-1.42zM253.293 229.888h1.42v73.45h-1.42zM263.824 230.417h1.42v73.45h-1.42z"/><g><path fill="#E5E5E5" d="M266.366 255.74l-41.688-3.307v-.828l41.688 3.31z"/></g><g><path fill="#E5E5E5" d="M211.537 261.795l13.14-9.362v-.828l-13.14 9.363z"/></g><path opacity=".3" fill="#FFF" d="M264.534 265.213l-39.018 11.566v-14.363l39.018-11.566zM264.534 271.866l-39.018 11.567v-3.292l39.018-11.566z"/></g><path fill="#D34646" d="M298.697 223.24l-17.49-3.26 5.504 81.963 21.828 2.03z"/><path opacity=".2" fill="#060000" d="M298.697 223.24l-3.823 66.298-8.163 12.405 21.828 2.03z"/><path fill="#1A8091" d="M265.022 218.667l-3.47-2.314-14.17 4.916v80.674h26.314z"/><g fill="#060000"><path opacity=".1" d="M277.622 302.002h-29.896l1.414 5.19h29.188zM247.19 296.494h29.018l-.707-5.19h-28.31zM247.19 286.702h28.016l-.707-5.19h-27.31zM247.19 276.147h25.11l-.705-5.19H247.19zM247.19 266.613l23.643-.58-.707-5.19-22.936.58zM247.19 256.05l21.324-.578-.685-5.19-20.64 1.157zM247.19 246.51l19.07-1.737-.67-5.19-18.4 1.735zM247.19 236.34l16.642-1.734-.67-5.19-15.972 2.89z"/></g><path fill="#1A84AD" d="M267.5 301.944h31.546l-14.484-85.59h-22.625z"/><path opacity=".1" fill="#060000" d="M297.994 296.754h-24.46l1.156 5.19h23.883zM296.26 286.055h-28.893v5.19h29.47zM295.44 276.263h-29.825l1.157 5.19h29.245zM293.063 265.71h-28.026l1.156 5.19h27.448zM291.862 255.596h-27.404l1.157 5.19h26.825zM289.982 245.034h-26.068l.542 5.19h26.086zM288.15 234.335H263.25l.517 5.19H288.7zM286.163 224.167l-23.167-2.313 1.095 7.503h22.62z"/><path opacity=".3" fill="#FFF" d="M170.635 96.295h1.517c-.083.01-.168.017-.254.017h-22.72a2.12 2.12 0 0 1 0-4.24h30.795a4.196 4.196 0 0 0-.67-8.338h-6.22c.057-.023.11-.054.166-.08h-16.874a4.216 4.216 0 0 1 0-8.43h16.456a4.215 4.215 0 0 0-1.402-8.19h-33.287c-.122 0-.242.007-.362.016h-12.684a2.055 2.055 0 0 0-.632 4.01h3.332a2.17 2.17 0 0 1 0 4.34h-6.414c.026.007.053.017.078.02H97.388a2.093 2.093 0 0 0 0 4.186H99.2l-.036.008h5.16a2.096 2.096 0 0 1 0 4.193h-4.736a4.197 4.197 0 0 0 .777 8.32H125.038a2.09 2.09 0 0 1 0 4.183l-17.28.007a4.033 4.033 0 0 0 0 8.065h5.053c.105.016.21.026.316.026h5.307a2.092 2.092 0 0 0 .372 4.15h42.39a2.092 2.092 0 0 0 .372-4.15H141.49a1.955 1.955 0 0 1 0-3.91h15.06c-.01-.008-.02-.015-.034-.02h14.12a2.09 2.09 0 0 0 0-4.182zM54.332 212.298h1.094c-.06.008-.122.013-.183.013H38.858a1.528 1.528 0 0 1 0-3.055h22.208a3.026 3.026 0 0 0-.483-6.012H56.1c.04-.018.078-.04.117-.06h-12.17a3.04 3.04 0 0 1 0-6.08h11.868a3.04 3.04 0 0 0-1.01-5.905H30.898c-.09 0-.175.005-.262.012H21.49a1.482 1.482 0 0 0-.456 2.892h2.404a1.565 1.565 0 0 1 0 3.13h-4.625l.056.014H1.51a1.51 1.51 0 0 0 0 3.018h1.305a.138.138 0 0 0-.026.006h3.72a1.51 1.51 0 0 1 0 3.024H3.096a3.027 3.027 0 0 0 .56 6H21.45a1.51 1.51 0 0 1 0 3.017l-12.462.007a2.907 2.907 0 0 0 0 5.815h3.644c.075.01.15.02.228.02h3.826a1.51 1.51 0 0 0 .27 2.99h30.57a1.508 1.508 0 0 0 .266-2.99h-14.48a1.41 1.41 0 0 1 0-2.822h10.862l-.024-.015h10.183a1.508 1.508 0 0 0 0-3.017z"/><path fill="#AFAFAF" d="M261.552 214.618l23.71 1.735 1.194 7.785-22.453-1.43-16.62 5.79-.426-7.585z"/><g fill="#E5E5E5"><path d="M261.552 214.618l5.782 87.326h.994l-5.62-87.326zM285.263 216.353h-.87l13.882 85.59h1.157z"/></g><path opacity=".2" fill="#060000" d="M247.644 223.697c8.655 58.443 22.734 81.008 22.734 81.008l-22.734-6.393v-74.615z"/><path opacity=".2" fill="#060000" d="M385.375 296.163c-8.72-4.812-16.87-10.056-24.032-3.852-4.768-5.782-12.018-8.637-19.09-6.723-2.962.8-5.558 2.36-7.696 4.44-2.514-8.708-10.6-14.024-18.395-11.922-3.37.91-6.122 3.057-8.044 5.907-2.458-.8-5.097-.936-7.703-.233-3.06.82-5.628 2.67-7.522 5.145-8.104-6.754-18.563-9.638-28.826-6.868-3.735 1-7.14 2.69-10.167 4.9-7.375-4.575-16.132-6.23-24.726-3.902-8.587 2.314-15.484 8.174-19.846 15.898-5.45-3.433-11.913-4.702-18.284-2.99-3.07.83-5.83 2.29-8.234 4.21-3.737-1.79-7.945-2.32-12.096-1.198-2.96.8-5.552 2.358-7.69 4.44-2.518-8.708-10.605-14.025-18.398-11.918-3.363.91-6.12 3.052-8.047 5.9-2.45-.8-5.092-.933-7.7-.235-3.06.83-5.626 2.673-7.52 5.15-8.104-6.753-18.563-9.64-28.825-6.867-3.733 1-7.14 2.692-10.17 4.9-6.85-4.244-14.89 5.134-22.88 6.773v15.092h327.74l-1.85-26.047z"/><path fill="#FFF" d="M387.226 293.387c-9.456-4.812-20.302-3.58-28.068 2.625-5.17-5.783-13.033-8.638-20.702-6.723a19.5 19.5 0 0 0-8.346 4.44c-2.726-8.71-11.495-14.025-19.948-11.923-3.654.91-6.64 3.057-8.724 5.907-2.665-.8-5.526-.935-8.353-.233-3.318.824-6.104 2.67-8.158 5.147-8.788-6.754-20.13-9.638-31.26-6.868-4.05 1-7.744 2.69-11.026 4.9-7.996-4.576-17.494-6.23-26.813-3.903-9.312 2.315-16.792 8.174-21.522 15.898-5.91-3.433-12.92-4.702-19.828-2.99-3.33.83-6.322 2.292-8.93 4.21-4.053-1.79-8.616-2.32-13.117-1.198-3.21.8-6.02 2.36-8.34 4.44-2.73-8.707-11.502-14.025-19.953-11.917-3.647.91-6.636 3.052-8.727 5.9-2.658-.8-5.52-.933-8.35-.235a15.38 15.38 0 0 0-8.154 5.15c-8.79-6.753-20.132-9.64-31.26-6.867a34.633 34.633 0 0 0-11.03 4.9c-7.427-4.244-16.146-5.97-24.812-4.33v26.195h355.422v-32.526z"/><g><path fill="#C5EAFF" d="M132.522 128.03c0 2.61 2.01 4.725 4.496 4.725h26.44c4.583 0 8.298-3.9 8.298-8.716 0-4.815-3.716-8.717-8.297-8.717-.474 0-.932.043-1.386.127-1.87-2.978-5.09-4.944-8.738-4.944-4.715 0-8.943 3.297-10.257 7.795-.2-.015-.15-.057-.35-.057-3.122 0-5.755 2.178-6.614 5.167-2.05.434-3.594 2.34-3.594 4.62z"/><path fill="#C5EAFF" d="M180.457 129.27c0 1.925-1.535 3.485-3.43 3.485h-20.183c-3.497 0-6.333-2.878-6.333-6.432 0-3.55 2.837-6.43 6.334-6.43.36 0 .71.03 1.058.092 1.428-2.197 3.884-3.648 6.67-3.648 3.6 0 6.825 2.433 7.828 5.75.15-.01.113-.04.267-.04 2.383 0 4.392 1.607 5.048 3.81 1.563.323 2.742 1.728 2.742 3.413z"/></g><g><path fill="#C5EAFF" d="M315.434 89.035c0 1.554 1.198 2.813 2.678 2.813h15.75c2.728 0 4.942-2.323 4.942-5.192 0-2.868-2.214-5.19-4.943-5.19-.28 0-.553.024-.823.074-1.115-1.773-3.032-2.944-5.206-2.944-2.808 0-5.326 1.964-6.108 4.643-.118-.01-.09-.035-.21-.035-1.857 0-3.426 1.298-3.938 3.077-1.22.26-2.14 1.393-2.14 2.753z"/><path fill="#C5EAFF" d="M343.985 89.772c0 1.147-.914 2.076-2.043 2.076H329.92c-2.083 0-3.77-1.715-3.77-3.832 0-2.115 1.688-3.83 3.77-3.83.215 0 .423.018.63.055a4.736 4.736 0 0 1 3.973-2.172c2.145 0 4.066 1.45 4.663 3.426.09-.007.068-.025.16-.025 1.418 0 2.615.957 3.006 2.27a2.067 2.067 0 0 1 1.633 2.032z"/></g><g><path fill="#C5EAFF" d="M184.634 139.98c0 1.335 1.03 2.417 2.3 2.417h13.535c2.344 0 4.246-1.997 4.246-4.46 0-2.465-1.902-4.462-4.247-4.462-.243 0-.478.02-.71.064-.958-1.525-2.605-2.53-4.473-2.53-2.414 0-4.578 1.687-5.25 3.988-.1-.008-.076-.03-.18-.03-1.597 0-2.944 1.116-3.384 2.645-1.05.223-1.84 1.2-1.84 2.367z"/></g><g><path fill="#C5EAFF" d="M42.313 113.568c0 1.204.927 2.18 2.074 2.18h12.2c2.115 0 3.83-1.8 3.83-4.023 0-2.22-1.714-4.022-3.83-4.022-.217 0-.428.02-.638.058-.864-1.373-2.35-2.28-4.033-2.28-2.175 0-4.126 1.522-4.733 3.597-.09-.007-.068-.026-.16-.026-1.442 0-2.657 1.006-3.053 2.385-.945.2-1.657 1.08-1.657 2.133z"/></g><g><path fill="#C5EAFF" d="M201.888 79.22c0 1.97-1.57 3.567-3.51 3.567H177.72c-3.58 0-6.48-2.946-6.48-6.583 0-3.634 2.9-6.583 6.48-6.583.37 0 .727.034 1.082.097 1.46-2.25 3.975-3.734 6.826-3.734 3.684 0 6.986 2.49 8.012 5.887.157-.012.117-.043.273-.043 2.44 0 4.496 1.645 5.167 3.902 1.6.328 2.806 1.766 2.806 3.49z"/></g><g><path fill="#FCD22E" d="M163.088 25.656A33.067 33.067 0 0 1 145.848 44a33.05 33.05 0 0 1 17.24 18.34A33.045 33.045 0 0 1 180.335 44a33.062 33.062 0 0 1-17.247-18.344z"/><path fill="#FD7600" d="M163.088 34.76a16.653 16.653 0 0 1-8.694 9.24 16.586 16.586 0 0 1 8.694 9.237A16.604 16.604 0 0 1 171.77 44a16.667 16.667 0 0 1-8.682-9.24z"/></g><g><path fill="#FCD22E" d="M176.803 12.645a16.17 16.17 0 0 1-8.427 8.97 16.15 16.15 0 0 1 8.427 8.965 16.132 16.132 0 0 1 8.426-8.965 16.15 16.15 0 0 1-8.427-8.97z"/><path fill="#FD7600" d="M176.803 17.094a8.167 8.167 0 0 1-4.25 4.52 8.11 8.11 0 0 1 4.25 4.516 8.085 8.085 0 0 1 4.242-4.515 8.147 8.147 0 0 1-4.242-4.52z"/></g><g><path fill="#FCD22E" d="M147.498 7.44a23.32 23.32 0 0 1-12.163 12.94 23.323 23.323 0 0 1 12.163 12.943 23.315 23.315 0 0 1 12.168-12.943 23.3 23.3 0 0 1-12.168-12.94z"/><path fill="#FD7600" d="M147.498 13.865a11.76 11.76 0 0 1-6.133 6.516 11.698 11.698 0 0 1 6.133 6.516c1.1-2.9 3.315-5.252 6.127-6.515a11.755 11.755 0 0 1-6.127-6.515z"/></g><g><path fill="#FCD22E" d="M366.944 73.032a20.923 20.923 0 0 1-10.912 11.61 20.92 20.92 0 0 1 10.912 11.61 20.92 20.92 0 0 1 10.917-11.61 20.93 20.93 0 0 1-10.916-11.61z"/><path fill="#FD7600" d="M366.944 78.794a10.534 10.534 0 0 1-5.502 5.848 10.503 10.503 0 0 1 5.502 5.848 10.514 10.514 0 0 1 5.497-5.848 10.543 10.543 0 0 1-5.496-5.848z"/></g><g><path fill="#FCD22E" d="M309.628 45.285a14.607 14.607 0 0 1-7.615 8.104 14.6 14.6 0 0 1 7.615 8.1 14.58 14.58 0 0 1 7.613-8.1 14.59 14.59 0 0 1-7.612-8.105z"/><path fill="#FD7600" d="M309.628 49.305a7.37 7.37 0 0 1-3.84 4.084 7.33 7.33 0 0 1 3.84 4.08 7.313 7.313 0 0 1 3.832-4.08 7.358 7.358 0 0 1-3.832-4.085z"/></g><g><path fill="#FCD22E" d="M158.776 90.508a14.61 14.61 0 0 1-7.614 8.104 14.594 14.594 0 0 1 7.614 8.1 14.58 14.58 0 0 1 7.613-8.1 14.59 14.59 0 0 1-7.614-8.104z"/><path fill="#FD7600" d="M158.776 94.528a7.372 7.372 0 0 1-3.84 4.084 7.324 7.324 0 0 1 3.84 4.08 7.312 7.312 0 0 1 3.833-4.08 7.35 7.35 0 0 1-3.834-4.084z"/></g><g><path fill="#FCD22E" d="M51.366 118.896A14.607 14.607 0 0 1 43.75 127a14.603 14.603 0 0 1 7.616 8.1 14.58 14.58 0 0 1 7.613-8.1 14.59 14.59 0 0 1-7.614-8.104z"/><path fill="#FD7600" d="M51.366 122.915a7.372 7.372 0 0 1-3.84 4.084 7.324 7.324 0 0 1 3.84 4.08A7.315 7.315 0 0 1 55.2 127a7.354 7.354 0 0 1-3.834-4.085z"/></g><g><path fill="#FCD22E" d="M183.497 81.163a21.07 21.07 0 0 1-10.99 11.692 21.078 21.078 0 0 1 10.99 11.695 21.068 21.068 0 0 1 10.994-11.695 21.053 21.053 0 0 1-10.993-11.692z"/><path fill="#FD7600" d="M183.497 86.968c-.993 2.616-3 4.734-5.542 5.887a10.576 10.576 0 0 1 5.542 5.887 10.576 10.576 0 0 1 5.536-5.887 10.62 10.62 0 0 1-5.536-5.887z"/></g><g><path fill="#FCD22E" d="M201.103 121.34a21.073 21.073 0 0 1-10.99 11.69 21.082 21.082 0 0 1 10.99 11.696 21.065 21.065 0 0 1 10.994-11.695 21.053 21.053 0 0 1-10.994-11.69z"/><path fill="#FD7600" d="M201.103 127.145c-.993 2.616-3 4.734-5.542 5.887a10.576 10.576 0 0 1 5.543 5.887 10.576 10.576 0 0 1 5.536-5.888 10.626 10.626 0 0 1-5.537-5.887z"/></g><g><path fill="#FCD22E" d="M229.008 26.806a21.076 21.076 0 0 1-10.99 11.692 21.078 21.078 0 0 1 10.99 11.695 21.065 21.065 0 0 1 10.994-11.695 21.06 21.06 0 0 1-10.994-11.692z"/><path fill="#FD7600" d="M229.008 32.61c-.993 2.616-3 4.734-5.542 5.887a10.573 10.573 0 0 1 5.542 5.887 10.566 10.566 0 0 1 5.536-5.887 10.613 10.613 0 0 1-5.536-5.887z"/></g></svg>