<svg xmlns="http://www.w3.org/2000/svg" width="397" height="257.318" viewBox="0 0 397 257.318"><g opacity=".2"><path fill="#BABABA" d="M0 193.21l199.29 6.374L0 205.957z"/><path fill="#BABABA" d="M7.468 141.847l190.847 57.737L4.167 154.16zM28.912 94.42l169.403 105.164L22.54 105.46zM61.906 54.158l136.41 145.426L52.89 63.17z"/><path fill="#BABABA" d="M104.188 23.807l94.127 175.777L93.15 30.18z"/><path fill="#BABABA" d="M152.892 5.435l45.423 194.15L140.578 8.73zM204.69 0l-6.375 199.29L191.943 0zM256.048 8.732l-57.733 190.852 45.423-194.15z"/><path fill="#BABABA" d="M303.48 30.18L198.315 199.583 292.44 23.806zM343.74 63.17L198.316 199.585 334.728 54.156z"/><path fill="#BABABA" d="M374.093 105.457l-175.778 94.127L367.717 94.42z"/><path fill="#BABABA" d="M392.464 154.157l-194.15 45.427 190.854-57.737z"/><path fill="#BABABA" d="M397 205.955l-199.29-6.37L397 193.207z"/><path fill="#BABABA" d="M389.168 257.318l-190.853-57.734 194.15 45.423zM4.167 245.007l194.148-45.423L7.47 257.318z"/><path fill="#BABABA" d="M0 193.21l199.29 6.374L0 205.956z"/><path fill="#BABABA" d="M7.47 141.847l190.845 57.737L4.167 154.157zM28.912 94.42l169.403 105.164L22.54 105.458zM61.906 54.158l136.41 145.426L52.89 63.17z"/><path fill="#BABABA" d="M104.19 23.807l94.125 175.777L93.15 30.18z"/><path fill="#BABABA" d="M152.892 5.435l45.423 194.15-57.737-190.85zM204.69 0l-6.375 199.288L191.945 0z"/></g><path fill="#0CAA75" d="M190.167 82.3l8.296-38.874L206.76 82.3z"/><path opacity=".2" fill="#170000" d="M203.443 82.322l-4.98-38.896L206.76 82.3z"/><path opacity=".2" fill="#170000" d="M190.228 82.177l3.315.024 4.98-38.896"/><path fill="#C91E2B" d="M184.79 91.9h27.176v38.063H184.79z"/><path fill="#D3CBCB" d="M184.79 97.268h27.166v2.115H184.79z"/><path fill="#CECECE" d="M190.45 91.65v-9.987l3.885-5.205 3.89 5.205v9.986z"/><path fill="#C91E2B" d="M194.335 76.876l3.64 4.87V91.4H190.7v-9.654l3.635-4.87m0-.835l-4.136 5.54V91.9h8.275V81.58l-4.14-5.54z"/><path fill="#CECECE" d="M198.71 91.65v-9.987l3.89-5.205 3.887 5.205v9.986z"/><path fill="#C91E2B" d="M202.6 76.876l3.637 4.87V91.4h-7.276v-9.654l3.64-4.87m0-.835l-4.14 5.54V91.9h8.277V81.58l-4.136-5.54z"/><path fill="#CECECE" d="M206.72 91.65V81.64l2.495-5.037 2.5 5.036v10.01z"/><path fill="#C91E2B" d="M209.216 77.166l2.25 4.53V91.4h-4.494v-9.703l2.244-4.53m0-1.126l-2.745 5.54V91.9h5.495V81.58l-2.75-5.54z"/><path fill="#CECECE" d="M185.04 91.65V81.64l2.495-5.037 2.498 5.036v10.01z"/><path fill="#C91E2B" d="M187.535 77.166l2.248 4.53V91.4h-4.495v-9.703l2.247-4.53m0-1.126l-2.747 5.54V91.9h5.495V81.58l-2.748-5.54zM224.096 187.06H197.73v-51.43h21.858l4.508-7.62z"/><path opacity=".2" fill="#170000" d="M190.248 129.17h-5.46V81.427l2.735-5.296 2.725 5.297zM211.963 129.17h-5.457V81.427l2.733-5.296 2.723 5.297z"/><path fill="#C91E2B" d="M214.73 137.446h-16.764v-26.352h13.898l2.865-3.904z"/><path fill="#C91E2B" d="M182.024 137.446h16.762v-26.352H184.89l-2.866-3.904z"/><path fill="#C91E2B" d="M172.656 187.06h26.365v-51.43h-21.855l-4.51-7.62z"/><path fill="#A80C26" d="M177.222 186.287V179.4c-.98.02-1.804.61-2.108 1.423-.307-.813-1.133-1.402-2.113-1.423V186.286h-2.51V179.4c-.978.02-1.804.61-2.11 1.423-.303-.813-1.13-1.402-2.11-1.423V186.286h-2.512V179.4c-.98.02-1.805.61-2.108 1.423-.307-.813-1.132-1.402-2.113-1.423V186.286h-2.51V179.4c-.98.02-1.806.61-2.11 1.423-.305-.813-1.13-1.402-2.11-1.423V186.286h-2.51V179.4c-.98.02-1.808.61-2.11 1.423-.308-.813-1.133-1.402-2.112-1.423V186.286h-2.51V179.4c-.98.02-1.805.61-2.11 1.423-.305-.813-1.132-1.402-2.11-1.423V186.286h-2.513V179.4c-.98.02-1.806.61-2.11 1.423-.306-.813-1.13-1.402-2.11-1.423V186.286h-2.51V179.4c-.98.02-1.806.61-2.11 1.423-.305-.813-1.13-1.402-2.11-1.423V186.286h-.05v51.32h51.448v-51.32h-.058zM270.918 186.287V179.4c-.98.02-1.806.61-2.11 1.423-.307-.813-1.13-1.402-2.11-1.423V186.286h-2.51V179.4c-.98.02-1.807.61-2.112 1.423-.305-.813-1.13-1.402-2.11-1.423V186.286h-2.512V179.4c-.98.02-1.806.61-2.11 1.423-.305-.813-1.13-1.402-2.11-1.423V186.286h-2.51V179.4c-.98.02-1.806.61-2.11 1.423-.306-.813-1.13-1.402-2.11-1.423V186.286h-2.514V179.4c-.98.02-1.805.61-2.108 1.423-.308-.813-1.132-1.402-2.112-1.423V186.286h-2.51V179.4c-.98.02-1.807.61-2.11 1.423-.307-.813-1.132-1.402-2.11-1.423V186.286h-2.514V179.4c-.98.02-1.804.61-2.108 1.423-.308-.813-1.132-1.402-2.112-1.423V186.286h-2.51V179.4c-.98.02-1.806.61-2.11 1.423-.306-.813-1.13-1.402-2.11-1.423V186.286h-.048v51.32h51.446v-51.32h-.056z"/><path fill="#170000" d="M204.076 110.038c-4.066-1.692-5.604-7.6-5.792-9.412h-.044c-.19 1.813-1.726 7.72-5.792 9.412-4.747 1.975-6.12 7.825-6.12 11.472 0 3.267 9.876.682 11.934.108 2.057.574 11.934 3.16 11.934-.108 0-3.647-1.375-9.497-6.12-11.472z" opacity=".2"/><circle fill="#EDB22F" cx="198.301" cy="122.644" r="11.956"/><circle fill="#494949" cx="198.302" cy="122.644" r="10.248"/><path fill="#C91E2B" d="M189.45 165.21c-.627 0-1.14-.393-1.14-.878V150.37c0-.485.512-.88 1.14-.88h.422l.06-.3c.313-1.536 1.288-4.27 4.307-5.315 2.505-.863 3.813-3.316 4.386-4.975.573 1.66 1.883 4.113 4.386 4.975 3.02 1.045 3.994 3.78 4.306 5.316l.06.3h.422c.628 0 1.14.396 1.14.88v13.962c0 .485-.512.88-1.14.88h-18.35z"/><path fill="#FFF" d="M198.626 139.954c.73 1.634 2.06 3.515 4.263 4.274 2.842.984 3.764 3.578 4.06 5.036l.123.6h.727c.45 0 .764.267.764.505v13.96c0 .24-.313.505-.764.505h-18.35c-.45 0-.764-.266-.764-.504v-13.96c0-.24.314-.504.765-.504h.729l.12-.6c.298-1.46 1.22-4.054 4.062-5.037 2.207-.762 3.535-2.642 4.264-4.276m.017-2.484h-.035c-.147 1.165-1.34 4.963-4.49 6.05-2.842.982-4.115 3.442-4.552 5.595h-.115c-.836 0-1.514.562-1.514 1.254v13.96c0 .695.677 1.255 1.515 1.255h18.35c.837 0 1.514-.56 1.514-1.254v-13.96c0-.693-.677-1.254-1.514-1.254h-.114c-.438-2.152-1.71-4.613-4.55-5.596-3.154-1.086-4.344-4.885-4.493-6.05z"/><path fill="#C91E2B" d="M198.463 35.986l1.83 3.71 4.092.595-2.96 2.887.7 4.077-3.662-1.924-3.66 1.924.698-4.077-2.96-2.886 4.093-.595z"/><path fill="#494949" d="M200.45 152.654v-4.517a1.827 1.827 0 0 0-3.65 0v4.517h3.65z"/><path opacity=".3" fill="#170000" d="M184.556 147.766v-6.244a2.522 2.522 0 0 0-5.044 0v6.244h5.044zM217.09 147.766v-6.244a2.522 2.522 0 0 0-5.045 0v6.244h5.045z"/><path fill="#EDB22F" d="M198.784 122.076c0 .31-.25.563-.565.563a.563.563 0 0 1-.565-.564v-7.892a.564.564 0 0 1 1.13 0v7.893z"/><path fill="#EDB22F" d="M202.25 120.082c.178-.086.432.072.565.352.137.283.103.578-.075.664l-4.48 2.162c-.178.086-.432-.072-.567-.353-.136-.283-.102-.58.076-.663l4.48-2.162z"/><path opacity=".3" fill="#170000" d="M176.748 134.924l-4.092-6.913v59.05h4.092zM220.014 134.91v52.15h4.082v-59.05z"/><path opacity=".2" fill="#170000" d="M170.41 186.37h55.95v51.28h-55.95z"/><path opacity=".3" fill="#170000" d="M224.07 182.583v-7.453a2.283 2.283 0 0 0-2.11 1.54 2.295 2.295 0 0 0-2.11-1.54v7.453h-2.51v-7.453a2.286 2.286 0 0 0-2.112 1.54 2.29 2.29 0 0 0-2.11-1.54v7.453h-2.513v-7.453a2.286 2.286 0 0 0-2.11 1.54 2.29 2.29 0 0 0-2.11-1.54v7.453h-2.51v-7.453a2.287 2.287 0 0 0-2.11 1.54 2.29 2.29 0 0 0-2.112-1.54v7.453h-2.512v-7.453a2.283 2.283 0 0 0-2.107 1.54 2.292 2.292 0 0 0-2.112-1.54v7.453h-2.51v-7.453a2.29 2.29 0 0 0-2.11 1.54 2.287 2.287 0 0 0-2.11-1.54v7.453h-2.513v-7.453a2.283 2.283 0 0 0-2.108 1.54 2.293 2.293 0 0 0-2.113-1.54v7.453h-2.51v-7.453a2.288 2.288 0 0 0-2.11 1.54 2.29 2.29 0 0 0-2.112-1.54v7.453h-.048v53.927h51.446v-53.927h-.054z"/><path fill="#A80C26" d="M224.07 183.68v-7.453c-.98.022-1.806.66-2.11 1.54a2.296 2.296 0 0 0-2.11-1.54V183.68h-2.51v-7.453a2.29 2.29 0 0 0-2.112 1.54 2.29 2.29 0 0 0-2.11-1.54V183.68h-2.513v-7.453c-.98.022-1.805.66-2.11 1.54a2.292 2.292 0 0 0-2.11-1.54V183.68h-2.51v-7.453a2.29 2.29 0 0 0-2.11 1.54 2.29 2.29 0 0 0-2.112-1.54V183.68h-2.512v-7.453c-.978.022-1.804.66-2.107 1.54a2.293 2.293 0 0 0-2.112-1.54V183.68h-2.51v-7.453c-.98.022-1.804.66-2.11 1.54a2.29 2.29 0 0 0-2.11-1.54V183.68h-2.513v-7.453c-.98.022-1.804.66-2.108 1.54a2.294 2.294 0 0 0-2.113-1.54V183.68h-2.51v-7.453a2.29 2.29 0 0 0-2.11 1.54 2.29 2.29 0 0 0-2.112-1.54V183.68h-.048v53.927h51.446V183.68h-.054z"/><path opacity=".3" fill="#170000" d="M210.835 237.648v-26.253c0-6.562-5.316-11.883-11.884-11.883s-11.883 5.32-11.883 11.883v26.253h23.768z"/><path fill="#FF9517" d="M209.15 237.558v-25.245c0-5.63-4.564-10.2-10.2-10.2s-10.197 4.568-10.197 10.2v25.245h20.396z"/><path opacity=".3" fill="#170000" d="M198.95 202.114c-.027 0-.052.008-.08.01v35.433h10.278v-25.245c0-5.63-4.562-10.198-10.197-10.198z"/><circle opacity=".2" fill="#170000" cx="196.795" cy="220.975" r="1.22"/><circle opacity=".2" fill="#170000" cx="201.065" cy="220.975" r="1.22"/><g><path fill="#0CAA75" d="M110.274 138.562l6.995-15.083 6.99 15.082z"/><path opacity=".2" fill="#170000" d="M121.297 138.562l-4.028-15.083 6.99 15.082z"/><path opacity=".2" fill="#170000" d="M110.357 138.562h2.964l4.03-15.083"/><path fill="#088457" d="M110.342 148.83l-5.797 26.676h25.447l-5.797-26.675z"/><path fill="#A80C26" d="M104.64 175.184h25.444v23.182H104.64z"/><path fill="#C91E2B" d="M130.12 186.588h-25.518l-2.712-3.637v54.536h30.944V182.95zM108.91 138.304h16.718v17.28H108.91z"/><path opacity=".3" fill="#170000" d="M108.91 138.955h16.718v.85H108.91z"/><path fill="#0CAA75" d="M108.91 138.304h16.718v.85H108.91z"/><path fill="#D3CBCB" d="M104.64 179.693h25.444v3.22H104.64z"/><path opacity=".3" fill="#170000" d="M119.79 152.522v-6.242a2.522 2.522 0 0 0-5.044 0v6.242h5.043zM114.614 171.474v-4.505a1.82 1.82 0 0 0-3.642 0v4.504h3.642zM122.585 171.474v-4.505a1.82 1.82 0 0 0-3.64 0v4.504h3.64zM132.834 192.915v-9.964l-2.713 3.638h-25.518l-2.712-3.637v9.965z"/></g><g><path fill="#0CAA75" d="M273.02 138.562l6.995-15.083 6.992 15.082z"/><path opacity=".2" fill="#170000" d="M284.042 138.562l-4.027-15.083 6.992 15.082z"/><path opacity=".2" fill="#170000" d="M273.1 138.562h2.966l4.03-15.083"/><path fill="#088457" d="M273.087 148.83l-5.796 26.676h25.446l-5.794-26.675z"/><path fill="#A80C26" d="M267.385 175.184h25.443v23.182h-25.443z"/><path fill="#C91E2B" d="M292.866 186.588h-25.519l-2.713-3.637v54.536h30.942V182.95zM271.655 138.304h16.717v17.28h-16.717z"/><path opacity=".3" fill="#170000" d="M271.655 138.955h16.717v.85h-16.717z"/><path fill="#0CAA75" d="M271.655 138.304h16.717v.85h-16.717z"/><path fill="#D3CBCB" d="M267.385 179.693h25.443v3.22h-25.443z"/><path opacity=".3" fill="#170000" d="M282.534 152.522v-6.242a2.52 2.52 0 0 0-5.043 0v6.242h5.044zM277.36 171.474v-4.505a1.82 1.82 0 0 0-3.642 0v4.504h3.642zM285.33 171.474v-4.505a1.82 1.82 0 0 0-3.64 0v4.504h3.64zM295.578 192.915v-9.964l-2.712 3.638h-25.519l-2.713-3.637v9.965z"/></g><path opacity=".3" fill="#FFF" d="M202.854 195.762a1.95 1.95 0 0 1-1.95 1.952h-3.906a1.95 1.95 0 0 1-1.95-1.952v-7.482a1.95 1.95 0 0 1 1.95-1.953h3.905a1.95 1.95 0 0 1 1.95 1.953v7.482z"/><path fill="#FFF" d="M306.63 228.322c-5.607-2.954-12.038-2.197-16.643 1.61-3.065-3.548-7.728-5.3-12.275-4.125a11.425 11.425 0 0 0-4.948 2.725c-1.617-5.344-6.817-8.605-11.83-7.316-2.165.558-3.935 1.876-5.17 3.625a9.044 9.044 0 0 0-4.954-.142c-1.967.504-3.62 1.638-4.837 3.158-5.21-4.144-11.936-5.915-18.535-4.215a20.17 20.17 0 0 0-6.537 3.008c-4.74-2.807-10.372-3.823-15.9-2.394-5.52 1.42-9.954 5.016-12.76 9.755-3.502-2.107-7.66-2.886-11.755-1.834a14.81 14.81 0 0 0-5.295 2.582c-2.402-1.1-5.108-1.423-7.778-.734a11.417 11.417 0 0 0-4.944 2.725c-1.62-5.345-6.82-8.607-11.832-7.314-2.162.56-3.934 1.872-5.174 3.622a9.036 9.036 0 0 0-4.95-.146c-1.97.51-3.62 1.64-4.835 3.16-5.21-4.144-11.937-5.917-18.535-4.213-2.4.613-4.59 1.65-6.54 3.006-4.404-2.604-9.574-3.664-14.713-2.658v16.074h210.74v-19.96z"/><g><path fill="#C5EAFF" d="M245.36 104.446c0 3.498 2.696 6.332 6.025 6.332h35.445c6.14 0 11.12-5.23 11.12-11.684 0-6.453-4.98-11.683-11.12-11.683-.635 0-1.25.06-1.857.168-2.51-3.99-6.823-6.626-11.713-6.626-6.32 0-11.988 4.42-13.75 10.45-.266-.023-.2-.078-.468-.078-4.184 0-7.713 2.92-8.865 6.926-2.747.584-4.817 3.137-4.817 6.196z"/></g><g><path fill="#C5EAFF" d="M161.228 122.334c0 1.71-1.32 3.098-2.95 3.098h-17.342c-3.004 0-5.442-2.558-5.442-5.717 0-3.157 2.438-5.717 5.442-5.717.31 0 .61.028.91.083 1.226-1.952 3.336-3.242 5.73-3.242 3.093 0 5.866 2.163 6.727 5.112.13-.01.097-.038.23-.038 2.046 0 3.773 1.43 4.337 3.388 1.344.288 2.358 1.537 2.358 3.034z"/></g></svg>