<svg xmlns="http://www.w3.org/2000/svg" width="288.7" height="302.337" viewBox="0 0 288.7 302.337"><path fill="#BCBCBC" d="M287.744 118.042c-.505-.183-12.438-4.418-20.233 1.506-5.62 4.272-13.904 8.897-21.484 12.148.043-5.795.082-9.837.083-9.958.07-1.535.442-10.64-.518-18.5 2.497-.596 4.93-1.178 7.185-1.727 5.7-1.39 11.796-3.527 17.175-5.414 5.84-2.047 11.354-3.98 14.867-4.42a1.452 1.452 0 0 0-.36-2.88c-3.823.478-9.22 2.37-15.47 4.562-5.315 1.864-11.34 3.978-16.902 5.334-2.176.53-4.52 1.092-6.925 1.664-.61-3.43-1.55-6.36-2.98-7.912-4.24-4.594-36.284-32.64-43.023-38.528 1.5-1.747 3.067-3.793 4.85-6.378 5.862-8.497 10.77-15.052 16.11-15.73 6.677-.848 9.202-9.808 11.046-16.35l.32-1.132a1.45 1.45 0 0 0-2.79-.798l-.324 1.142c-1.532 5.437-3.847 13.653-8.62 14.26-6.532.83-11.852 7.858-18.13 16.96-1.622 2.353-3.062 4.24-4.438 5.86-2.333-2.802-8.673-8.594-21.413-8.905-12.67-.31-24.09-6.15-30.91-9.64-1.48-.755-2.756-1.408-3.744-1.843l-2.398-1.057c1.188-1.508 4.127-4.064 6.992-6.55 5.144-4.47 10.975-9.537 12.597-13.32a1.45 1.45 0 1 0-2.668-1.143c-1.36 3.172-7.168 8.217-11.834 12.27-4 3.477-6.662 5.83-7.798 7.548l-.847-.373-.643.385c-2.72 1.625-6.39 1.698-9.942 1.77-1.625.03-3.193.064-4.65.24 1.495-11.294.164-22.22-.444-27.202-.116-.957-.237-1.944-.244-2.257a1.452 1.452 0 0 0-2.81-.683c-.162.485-.118.896.174 3.29.613 5.024 1.98 16.24.3 27.535-4.487 1.497-5.883 2.044-12.497 7.49l-.964.794c-5.607 4.623-6.468 5.332-11.37 7.082-1.858.664-3.128.776-4.474.894-2.323.206-4.727.416-9.383 3.52-.024.017-.047.03-.07.046-8.45-12.068-24.298-31.59-25.064-32.53a1.45 1.45 0 1 0-2.252 1.83c.186.228 16.225 19.98 24.74 32.083-1.375.557-2.515.716-3.63.87-2.613.36-5.08.7-8.76 5.36-1.42 1.8-2.7 3.27-3.827 4.565-3.437 3.95-5.708 6.56-5.377 11.518.148 2.234.565 4.223.97 6.146.58 2.77 1.13 5.407.784 8.483-.95-.39-1.84-.75-2.672-1.083-3.51-1.394-4.947-4.522-6.61-8.145-1.533-3.335-3.27-7.114-6.936-10.105-3.01-2.453-5.436-5.27-7.577-7.758-3.133-3.64-5.84-6.78-9.384-7.794a1.45 1.45 0 0 0-.797 2.79c2.71.774 5.153 3.61 7.983 6.897 2.22 2.576 4.735 5.498 7.94 8.112 3.145 2.565 4.664 5.87 6.132 9.068 1.763 3.837 3.587 7.805 8.175 9.63 1 .397 2.1.845 3.282 1.332a60.04 60.04 0 0 0-.373 3.516c-.26 3.1-.466 5.548-2.717 10.3-.85 1.796-1.67 3.367-2.462 4.885-1.804 3.457-3.418 6.558-4.355 10.538-.242-.28-.523-.62-.79-.94-2.853-3.44-8.782-10.586-15.716-10.28-7.95.37-9.69 1.368-14.34 4.034-.436.25-.897.514-1.395.796-2.763 1.565-4.362 3.42-5.774 5.06-1.74 2.02-3.114 3.612-6.273 4.475a1.45 1.45 0 0 0 .763 2.8c4.014-1.095 5.89-3.274 7.708-5.38 1.32-1.53 2.683-3.114 5.007-4.43.502-.285.97-.552 1.407-.804 4.558-2.612 5.783-3.314 13.034-3.65 5.47-.273 10.793 6.153 13.348 9.234 1.148 1.384 1.768 2.125 2.447 2.324-.032.256-.064.51-.09.774l-.2 1.974c-.365 3.55-.687 6.705-.695 9.864-1.775 1.828-9.387 9.368-16.414 11.79-3.175 1.096-5.947 2.64-8.393 4-4.47 2.488-7.115 3.833-9.503 2.555a1.452 1.452 0 0 0-1.368 2.558c3.902 2.086 7.785-.075 12.283-2.578 2.34-1.303 4.994-2.78 7.927-3.792 6.102-2.104 12.347-7.48 15.635-10.613.144 1.553.384 3.144.756 4.816 1.245 5.6 1.203 8.554 1.15 12.296-.012.788-.023 1.603-.023 2.477 0 4.492.89 12.186 3.23 17.407-5.65 1.552-8.696 4.695-12.346 8.48-.946.98-1.925 1.996-3.016 3.052-3.846 3.73-5.958 8.372-7.998 12.86-1.45 3.193-2.822 6.208-4.698 8.552-.878 1.1-1.72 2.24-2.532 3.346-3.46 4.7-6.727 9.143-12.567 9.854a1.45 1.45 0 0 0 .35 2.88c7.084-.864 10.88-6.025 14.553-11.016.796-1.082 1.62-2.2 2.46-3.252 2.102-2.627 3.545-5.802 5.073-9.163 1.93-4.243 3.925-8.632 7.377-11.978a126.823 126.823 0 0 0 3.085-3.123c3.714-3.85 6.393-6.612 11.71-7.876 1.412 2.067 3.284 4.24 5.1 6.348l.9 1.045c-1.345 1.18-2.946 2.38-4.757 3.73-2.287 1.703-4.878 3.633-7.494 5.992a1.45 1.45 0 1 0 1.944 2.153c2.514-2.268 5.048-4.155 7.284-5.82 1.764-1.313 3.428-2.555 4.887-3.833 1.155 1.425 2.126 2.75 2.697 3.892.724 1.45 1.437 3.876 2.19 6.447 1.178 4.01 2.512 8.556 4.478 11.505.58.87 1.24 1.834 1.947 2.865l.04.057c-.43.014-.87.016-1.33 0-6.905-.24-8.606.96-11.5 3.48-1.14.995-2.56 2.232-4.862 3.648-3.6 2.214-4.344 3.108-5.142 4.318-.574.868-1.29 1.95-6.227 5.29-3.83 2.59-4.933 4.184-5.33 5.455-.51.05-1.375.102-2.392.162-.96.055-2.184.126-3.748.23a1.45 1.45 0 0 0 .193 2.896c1.554-.104 2.77-.174 3.723-.23 3.694-.214 4.572-.265 4.94-1.994.076-.36.31-1.456 4.24-4.114 5.415-3.664 6.268-4.955 7.02-6.095.5-.756.93-1.408 4.244-3.447 2.505-1.54 4.025-2.865 5.246-3.93 2.42-2.108 3.422-2.983 9.495-2.77a20.84 20.84 0 0 0 3.31-.14c2.618 3.88 5.365 8.19 6.828 11.85a24.067 24.067 0 0 0 2.28 4.327c-3.91 2.282-7.848 4.695-11.67 7.044-12.636 7.76-24.568 15.092-34.987 17.485a1.45 1.45 0 0 0 .652 2.828c10.882-2.5 23.012-9.952 35.855-17.84 3.895-2.394 7.91-4.855 11.878-7.165 1.33 1.652 2.772 3.147 4.194 4.62.837.866 1.704 1.763 2.53 2.675 1.944 2.145 4.144 5.595 6.072 9.18-1.537 2.076-2.968 4.805-4.226 9.07-.635 2.15-1.12 4.096-1.55 5.813-1.827 7.316-2.93 11.732-12.34 19.442a1.452 1.452 0 0 0 1.84 2.244c10.153-8.32 11.41-13.358 13.316-20.984.44-1.77.9-3.603 1.517-5.696.916-3.108 1.888-5.266 2.947-6.958 1.042 2.138 1.936 4.214 2.564 5.972 1.354 3.787 3.257 4.39 5.098 4.972 1.212.383 2.356.745 3.754 2.143 3.928 3.928 7.135 4.883 10.85 5.99l.592.176c.992.298 2.578.72 4.416 1.207 5.396 1.433 13.55 3.6 16.584 5.254 4.21 2.296 12.065 3.718 16.927 3.718.607 0 1.172-.02 1.684-.064 1.248-.102 2.84.456 4.562 1.046 2.08.716 4.436 1.526 6.978 1.526 2.742 0 5.18-.932 7.458-2.848a229.194 229.194 0 0 1 4.147-3.417c.864 1.62.82 3.844-.917 8.19-2.668 6.67-4.343 7.806-4.54 7.92a1.47 1.47 0 0 0-1.102 1.396 1.473 1.473 0 0 0 1.104 1.422c.062.03.34.184.833.685a1.45 1.45 0 0 0 2.066-2.038l-.1-.1c1.385-1.552 2.868-4.295 4.434-8.208 2.264-5.662 2.027-8.724.516-11.077 3.695-2.852 7.133-5.2 11.97-8.255l.33-.212c2.13 2.825 4.798 4.675 6.81 6.07.533.37 1.03.71 1.466 1.04a1.45 1.45 0 0 0 1.74-2.322 49.33 49.33 0 0 0-1.554-1.103c-1.907-1.32-4.215-2.924-6.04-5.296 2.594-1.8 4.51-3.38 6.252-4.817 1.904-1.57 3.702-3.052 6.09-4.587 5.48-3.52 15.27-12.843 17.418-15.852.396-.555 1.57-1.416 2.81-2.327 3.95-2.896 9.916-7.273 10.226-14.705.175-4.19.588-7.008.953-9.494.436-2.96.81-5.518.593-9.222l-.083-1.39c-.096-1.6-.2-3.354-.287-5.15 1.513 1.135 2.892 2.3 4.045 3.547 1.572 1.703 3.453 3.398 5.443 5.192 3.868 3.486 8.252 7.438 10.993 12.174 4.285 7.4 11.786 14.478 12.985 15.077a1.452 1.452 0 0 0 1.946-.648c.35-.7.08-1.546-.6-1.92-.878-.586-7.75-6.928-11.82-13.962-2.97-5.13-7.536-9.245-11.562-12.875-1.94-1.747-3.772-3.398-5.256-5.004-1.773-1.922-3.944-3.612-6.313-5.258-.097-3.817-.013-7.457.532-9.797.196-.84.406-1.68.617-2.52.122-.488.245-.98.366-1.474 2.472 3.27 6.508 7.933 12.337 14.247 1.17 1.27 2.667 3.064 4.398 5.145 5.026 6.038 11.91 14.306 18.13 18.304a1.446 1.446 0 0 0 2.005-.437 1.45 1.45 0 0 0-.437-2.005c-5.843-3.756-12.562-11.827-17.468-17.72-1.757-2.11-3.274-3.932-4.497-5.255-5.867-6.357-9.886-11-12.285-14.2a9.748 9.748 0 0 0-1.427-1.505c.47-2.45.753-5.012.554-7.788-.132-1.854-.164-8.79-.15-17.035.6.022 1.387.042 2.31.042 4.105 0 10.763-.39 14.385-2.68 4.498-2.844 16.617-3.91 22.355-1.966a1.45 1.45 0 1 0 .93-2.747c-6.597-2.235-19.596-1.05-24.838 2.263-3.44 2.175-11.315 2.34-15.137 2.188.02-6.515.06-13.543.102-19.395 8.11-3.367 17.194-8.378 23.265-12.993 6.527-4.96 17.38-1.127 17.488-1.088a1.45 1.45 0 0 0 1.857-.87 1.445 1.445 0 0 0-.868-1.85zm-55.688 36.887c.5 2.478.97 4.817.385 7.68-1.102 5.39-8.136 9.21-10.13 10.194-2.96-1.168-5.59-2.394-8.153-3.594-2.893-1.354-5.625-2.632-8.532-3.67-5.7-2.033-15.81-3.527-18.917-3.956-.232-.746-.463-1.495-.687-2.23a41.582 41.582 0 0 1-1.07-4.217c3.578-.78 8.066-2.294 12.745-3.875 2.398-.81 4.877-1.647 7.297-2.408 4.19-1.318 9.675-3.217 15.48-5.228 4.618-1.6 9.345-3.238 13.553-4.626a40.075 40.075 0 0 1-1.514 4.59c-1.81 4.598-1.12 8.025-.454 11.34zm-45.858 17.66c-5.89-2.94-16.34-11.106-19.404-13.582.267-.7.396-1.58.332-2.79a4.243 4.243 0 0 1 .004-.477c1.192.037 2.846.053 4.674.053 3.145 0 6.77-.045 9.29-.11.314-.01.65-.035.995-.07a44.72 44.72 0 0 0 1.157 4.586c1.394 4.574 2.748 8.855 4.004 10.928 0 .24-.207.676-1.052 1.462zm-25.513 44.314c2.37-.255 4.41-.606 5.86-.984-.514 2.36-.797 4.276-.923 5.94-1.725-1.388-3.402-3.078-4.937-4.956zm8.503-19.93c-.55 5.927-1.005 10.8-1.89 15.432-.13.1-.25.21-.338.348-.96.462-4.257 1.052-8.346 1.375-1.257-1.855-2.356-3.817-3.21-5.797-2.724-6.297-3.193-12.664-1.57-21.707.21.056.426.127.655.22.62.255 1.2.518 1.76.768 1.823.822 3.548 1.6 5.524 1.6 1.87 0 3.687-.683 5.718-2.145a32.115 32.115 0 0 1 2.885-1.855c-.503 4.405-.864 8.28-1.19 11.76zm-19.587 35.32a62.79 62.79 0 0 0-3.908-.736c-.594-.094-1.375-.195-2.28-.313-3.624-.47-10.78-1.4-13.838-3.353.787-1.416 1.403-2.847 2.036-4.318 1.154-2.68 2.347-5.45 4.79-8.543.225-.28.448-.59.67-.91 3.182 2.066 8.058 2.865 12.532 3.105v15.068zm-34.413 7.105a229.747 229.747 0 0 1-4.296-1.772c.3-.647.598-1.304.905-1.98 1.3-2.875 2.71-5.986 4.818-9.65.903.35 2.035.556 3.324.78 1.92.337 4.226.742 5.8 1.734-.425.582-.898 1.162-1.446 1.743-1.894 2.005-3.707 3.21-5.166 4.176-1.964 1.304-3.83 2.544-3.937 4.97zm-17.602-25.592l.353.548c.908 1.425 1.902 2.968 3.294 4.248a65.17 65.17 0 0 1-8.256 8.04c-1.508-5.42 2.292-10.41 4.61-12.836zM81.66 172.583c4.186-1.486 8.477-3.038 12.626-4.537l3.044-1.1c.074.055.154.103.24.143.753.815 1.168 5.4 1.418 8.154.282 3.114.548 6.057 1.21 7.78.55 1.424 2.02 3.113 3.917 4.948-2.25 2.243-7.773 7.703-13.126 12.65-2.768-1.504-6.847-15.186-9.33-28.04zm-18.534 3.193c-1.01-7.57 3.26-14.1 5.38-17.343l.184-.282a361.633 361.633 0 0 1 8.848 8.492c.437.913.757 2.567.94 3.985-5.576 1.965-10.942 3.79-15.352 5.15zm-15.75-47.338l.203-1.98c.038-.397.086-.78.14-1.158.805.01 1.89.047 3.353.14.59.036 1.022.04 1.345.04.165.332.412.798.814 1.424 1.9 2.957 6.8 8.84 11.737 9.942 4.543 1.015 6.877-.39 11.114-2.943.483-.29.996-.6 1.546-.926 3.42-2.026 5.747-1.058 9.604.545.928.386 1.96.813 3.083 1.224.578 3.868-.897 7.32-2.42 9.18-1.09 1.33-2.395 2.11-3.435 2.095-3.923-.062-12.828 4.638-16.206 7.788-7.487-6.83-16.668-14.573-21.56-16.327.04-2.81.336-5.694.68-9.042zm57.71-14.68c1.716 1.384 4.31 2.445 7.468 3.734 4.197 1.714 9.422 3.845 14.226 7.55l.382.295c-.076.125-.144.247-.23.377-2.26 3.48-3.646 5.097-5.997 6.9-3.1-1.058-14.805-4.708-20.732-1.675-1.33.68-2.31 1.638-2.927 2.855-1.795-.48-3.284-.898-4.344-1.226-.023-4.592 6.922-13.402 12.154-18.81zm57.826-14.168l.02-.037c.512.082 1.13.146 1.91.224 3.86.38 11.042 1.092 12.556 5.71 2.19 6.678 4.572 8.193 6.825 9.17.112.05.22.096.316.142-.063.57-.427 1.697-.682 2.483a.44.44 0 0 0-.006.02c-5.44 2.336-9.214 6.085-11.11 8.512-.824-1.16-1.457-2.342-2.032-3.423-1.207-2.266-2.345-4.406-4.725-4.406a3.87 3.87 0 0 0-.792.083c-1.03.21-3.002.36-5.625.435.747-7.954 1.85-15.927 3.344-18.915zm39.81 46.95c-1.995.644-4 1.314-5.957 1.974-4.57 1.545-8.95 3.023-12.313 3.768l-.023-.148c-.184-1.132-.392-2.416-.69-4.034-.335-1.812.114-3.634.51-5.24.14-.572.275-1.13.372-1.676 0-.005.004-.01.005-.016.285-1.243.797-2.486 1.34-3.803.553-1.347 1.125-2.737 1.446-4.157.573-2.542-.432-6.15-1.24-9.052a91.28 91.28 0 0 1-.408-1.5c-.194-.74.09-1.975.45-3.188a23.18 23.18 0 0 1 7.352-1.377 41.59 41.59 0 0 0 8.64-1.112c-.517 5.74-1.677 21.718.514 29.563zm-31.944 35.165a35.866 35.866 0 0 0-4.982 3.008c-1.513 1.09-2.792 1.597-4.022 1.597-1.354 0-2.67-.592-4.335-1.34-.587-.265-1.2-.54-1.853-.808a8.115 8.115 0 0 0-1.26-.405c.615-4.57.456-10.747.086-16.222.26-.082.53-.166.806-.25 2.738-.84 6.108-1.88 7.882-3.998.275.282.58.575.916.898 2.91 2.79 7.726 7.42 6.76 17.52zm-34.426 28.065c-2.28-1.913-4.81-3.558-7.268-5.044.85-1.95 1.614-3.87 2.3-5.706 3.32 2.62 6.06 4.745 7.406 5.783-.785 1.768-1.607 3.464-2.438 4.967zm-20.588 12.005c-1.404-.82-3.546-1.56-6.396-2.494-1.434-.47-2.797-.916-3.817-1.336.777-.97 1.507-1.91 2.21-2.817 1.14-1.475 2.22-2.868 3.3-4.102 1.18-1.35 2.61-3.052 4.125-4.856a712.48 712.48 0 0 1 3.655-4.33c1.684 1.216 3.714 2.406 5.91 3.692l.61.358c-1.746 3.747-3.786 7.48-6.125 10.73a97.563 97.563 0 0 0-3.47 5.155zm-15.38-8.978c-.217-.34-.43-.67-.645-.995 2.744-2.45 11.705-10.783 15.036-13.952.277.312.527.614.737.896.316.426.684.837 1.094 1.242-1.276 1.496-2.504 2.958-3.644 4.314-1.505 1.792-2.926 3.484-4.087 4.812-1.137 1.3-2.242 2.725-3.41 4.235-.75.968-1.533 1.977-2.374 3.02-1.074-1.022-1.903-2.308-2.707-3.573zm3.26-29.6c1.103-1.065 2.715-2.458 4.52-3.952 1.293 1.454 3.987 4.04 9.797 8.91-.278.46-.56.928-.842 1.4-.893 1.486-1.803 3.003-2.47 4.03-1.224-1.16-2.61-2.383-4.04-3.642-2.64-2.325-5.56-4.9-6.965-6.747zM70.365 155.75c2.52-2.21 10.748-6.882 14.042-6.828 1.99.04 4.06-1.115 5.733-3.157 1.802-2.197 3.41-5.845 3.182-10.05 4.833 1.39 14.3 3.736 21.856 5.537a.838.838 0 0 1 .042.01c-.262.762-.677 1.54-1.138 2.398-.43.8-.893 1.66-1.277 2.613-1.5.587-22.547 8.834-26.425 11.23-.694.43-1.445.87-2.203 1.313-2.452 1.437-4.82 2.828-6.093 4.288-1.73-1.69-4.488-4.36-7.718-7.354zm63.586-10.345c.135.853.252 1.607.356 2.297l-1.314-.587a4.045 4.045 0 0 0-1.29-.728c-1.45-.492-4.492-.65-8.586 3.8-2.702 2.936-4.44 5.1-5.59 6.533-.207.257-.414.515-.608.753a69.412 69.412 0 0 1-1.517-3.97c-1.292-3.77-.065-6.053 1.235-8.47.532-.988 1.072-2 1.413-3.1 9.486 2.243 13.82 3.173 15.902 3.472zm20.544-7.98c4.962.533 10.66 2.844 11.953 6.233.723 1.902-.144 4.474-.982 6.96-.687 2.037-1.335 3.96-1.24 5.752.057 1.09-.04 1.568-.365 1.98l-1.73-3.984c.65-.446 1.305-1.553 1.923-4.175.7-2.96 1.106-6.704-.923-7.72-.424-.21-1.236-.834-2.022-1.437-2.427-1.863-4.274-3.182-5.93-3.182-.428 0-.824.09-1.18.27-.086.042-.39.144-1.334.144-.456 0-.946-.02-1.45-.042-.574-.025-1.162-.05-1.735-.05-1.4 0-3.162.133-4.345 1.168-.103.09-.232.2-.38.32-.01.01-.025.02-.037.03-.81-.852-1.304-1.456-1.6-1.864.413-.21.783-.384 1.075-.51l.074-.032c.543-.27 1.542-.404 2.967-.404 1.806 0 4.117.21 7.262.546zm-.306 27.14c-.31-3.7-.672-6.8-.877-8.443a48.57 48.57 0 0 1 5.874-1.256l2.44 5.613c-.202.228-.406.484-.613.774-1.11 1.556-4.31 2.538-6.646 3.255l-.178.054zm-17.196 15.296c-1.368-1.762-3.24-3.102-5.21-4.316 3.753-3.043 8.408-8.86 10.066-10.996.166.042.324.09.5.128 1.753.38 3.326 1.227 4.72 1.994-1.26 1.882-5.608 8.234-10.076 13.19zm-3.64 3.64s-.002 0-.002.002c-.604.525-1.197.994-1.765 1.385-1.906 1.307-4.072 3.266-6.32 5.532-1.22-.994-2.398-1.96-3.526-2.897 2.462-4.002 5.417-8.513 7.435-10.166 2.335 1.384 4.492 2.77 5.79 4.642a34.38 34.38 0 0 1-1.61 1.5zm-1.52 4.827a136.23 136.23 0 0 1-1.847 5.896c-.83-.662-1.65-1.32-2.458-1.97 1.508-1.515 2.96-2.856 4.303-3.926zm-13.992 8.692c-.314-.425-.696-.872-1.112-1.33.668-.975 1.574-2.474 2.875-4.642.195-.325.4-.665.61-1.018.94.776 1.952 1.604 3.032 2.48a183.56 183.56 0 0 0-4.744 5.273 7.61 7.61 0 0 1-.66-.764zm16.833-45.978c.04.018.08.025.118.04.087.638.173 1.28.266 1.975.105.796.22 1.66.357 2.66.445 3.27 1.058 6.015 3.65 7.68-2.5 3.17-7.04 8.546-9.987 10.562-.91-.487-1.87-.934-2.808-1.366-1.42-.655-3.798-1.753-4.028-2.322a4.28 4.28 0 0 0-.076-.453c.843-1 2.007-3.064 4.31-7.265 1.933-3.528 5.17-9.433 6.246-10.118a3.046 3.046 0 0 0 1.405-1.64l.545.245zm-3.903-1.907c.406.137.61.42.63.624.005.064.003.09-.087.14-1.625.903-3.873 4.856-7.382 11.26-.998 1.82-2.15 3.923-3.005 5.338-.355-.81-.783-1.752-1.284-2.85-.458-1.006-.956-2.1-1.458-3.23.444-.442.944-1.06 1.604-1.88 1.127-1.403 2.83-3.522 5.463-6.386 2.526-2.748 4.508-3.36 5.52-3.017zm-11.416 21.425c.214 2.136 2.756 3.31 5.7 4.668.478.22.96.444 1.434.673-2.056 2.057-4.417 5.565-6.998 9.746-4.303-3.622-7.6-6.576-9.088-8.232 3.378-2.73 6.945-5.48 8.928-7 .012.054.02.104.024.146zm29.26-6.35c-.985-.543-2.13-1.17-3.417-1.678.987-1.27 2.257-3.158 3.195-5.452.094.003.184.01.28.01.565 0 1.167-.067 1.807-.19.218 1.792.567 4.912.86 8.54-.652-.094-1.66-.645-2.725-1.23zm-2.668-10.697a23.245 23.245 0 0 0-1.914-.672c-.635-.186-.486-1.705-.244-3.52.18-1.357.353-2.64.082-3.726-.12-.48.175-1.064.62-1.64 2.398 3.455 2.64 6.85 1.982 9.758-.17-.064-.34-.127-.526-.2zm.654-11.613c.003 0 .006-.004.01-.006.167-.14.316-.265.436-.37.342-.298 1.16-.448 2.435-.448.533 0 1.08.023 1.61.046.547.022 1.08.045 1.575.045 1.16 0 1.932-.124 2.55-.41.827.047 2.97 1.69 4.13 2.58.874.67 1.64 1.26 2.274 1.617.328 1.03-.29 5.302-1.08 6.827-1.812.147-5.744.802-9.266 1.924-.734.234-1.375.378-1.95.443.81-3.646.475-7.926-2.724-12.247zm-5.996-2.604c.46.676 1.12 1.46 2 2.388-1.095 1.256-1.99 2.852-1.55 4.613.137.55-.01 1.66-.14 2.638-.31 2.305-.774 5.786 2.3 6.69.62.182 1.16.39 1.685.594l.657.248c-1.07 2.433-2.563 4.284-3.365 5.174-2.702-.795-3.36-2.35-3.9-6.317-.137-.997-.25-1.857-.358-2.65-.348-2.61-.6-4.497-1.194-8.215-.294-1.836 1.75-3.747 3.866-5.164zm-24.873-.895a871.987 871.987 0 0 1-15.517-3.83c.33-.42.762-.767 1.308-1.045 3.788-1.94 11.648-.252 16.455 1.188-1.143.866-1.853 1.765-2.247 3.688zm-35.65 26.836c.48-.94 3.764-2.864 5.56-3.916.778-.456 1.55-.907 2.263-1.35 2.738-1.692 15.986-7.07 24.076-10.258-.1 1.387.063 2.945.675 4.73.417 1.215.896 2.46 1.4 3.696-1.21.312-2.862.853-5.147 1.626-4.06 1.376-9.67 3.403-15.61 5.55a2359.77 2359.77 0 0 1-12.027 4.323c-.21-1.426-.577-3.194-1.19-4.4zm35.12-4.392a276.132 276.132 0 0 0 1.8 4.007c.416.914.853 1.872 1.237 2.746-1.818 1.385-6.032 4.618-9.963 7.803-.2-.008-.402.024-.598.103a1.45 1.45 0 0 0-.88 1.102c-1.623 1.336-3.128 2.617-4.313 3.7-.26-1.47-.438-3.42-.61-5.324-.384-4.235-.72-7.325-1.652-9.077 6.6-2.37 12.757-4.533 14.978-5.06zm11.014 42.185c-1.986-1.164-3.91-2.29-5.476-3.4 1.57-1.805 3.18-3.61 4.765-5.29 1.178.947 2.342 1.878 3.468 2.773-.71 1.953-1.52 4.018-2.42 6.114l-.336-.198zm13.75-.982a762.365 762.365 0 0 1-7.552-5.897c1.83-5.283 2.9-9.457 3.23-10.81.25-.227.505-.46.758-.702 1.617 2.465 4.86 4.985 7.848 5.682-.785 2.41-2.366 7.067-4.284 11.728zm6.527-14.57a1.685 1.685 0 0 1-.708.13c-2.294 0-6.104-2.712-7.274-5.11 5.16-5.55 10.152-12.973 11.18-14.525.618.236 1.222.386 1.83.386l.03-.002c.347 5.394.473 11.342-.168 15.514-1.206.423-2.088 1.265-2.89 2.04-.646.626-1.257 1.217-2 1.565zm19.53-27.18l-.007-.006.008.007zm3.136-17.673c-.918-2.41-3.125-4.303-5.84-5.663 2.98-1.79 7.218-4.473 9.45-6.497.78 1.072 1.36 2.142 1.92 3.186 1.358 2.525 2.64 4.91 6.223 5.506.587.1.828.252.878.328.222.335-.113 1.69-.357 2.68-.444 1.798-.998 4.038-.546 6.465a169.055 169.055 0 0 1 .702 4.12c-.197.016-.39.03-.573.034-4.008.104-10.05.14-13.232.073.137-.427.284-.865.434-1.31.953-2.836 2.035-6.047.94-8.922zm13.795-19.234c.125.48.27 1 .422 1.545.68 2.45 1.616 5.807 1.203 7.636-.266 1.18-.768 2.4-1.3 3.69l-.232.573c-.46-.25-1.01-.43-1.66-.54-2.084-.347-2.815-1.55-4.14-4.017-.69-1.28-1.46-2.702-2.622-4.157 1.228-1.76 4.038-4.87 8.27-7.165-.123.854-.137 1.682.06 2.436zm-17.18-2.478a.975.975 0 0 1 .21-.024c.637 0 1.378 1.393 2.163 2.868.707 1.328 1.563 2.925 2.793 4.492-1.734 1.606-6.582 4.77-11.028 7.36a26.4 26.4 0 0 0-1.48-.417c.13-3.185.42-8.326.878-13.775 2.428-.065 5-.205 6.464-.503zm-10.22 13.726c-.25-.035-.502-.07-.75-.096a227.65 227.65 0 0 0-2.408-.247 1.448 1.448 0 0 0 0-1.08c-1.464-3.623-3.18-9.546-2.407-11.365.063-.146.118-.306.17-.47 1.034.04 2.934.082 5.198.082.316 0 .665 0 1.03-.003-.495 6.008-.75 11.26-.834 13.178zm-7.74-16.403a64.216 64.216 0 0 0-5.768-.28c-.99 0-1.932.038-2.847.094-2.767-5.656-5.47-12.364-6.023-22.668-.024-.452-.062-.885-.095-1.325 1.042 3.147 5.94 7.575 11.326 12.22 1.116.963 2.374 2.05 2.703 2.413.42 1.08.99 6.098.704 9.545zm-5.768 2.622a60.8 60.8 0 0 1 5.137.235c-1.113 3.585 1.628 10.96 2.427 12.973a37.165 37.165 0 0 0-2.376-.085c-.762 0-1.43.037-2.025.11.177-1.328-.096-3.383-1.743-7.278-.826-1.952-1.784-3.836-2.798-5.83-.018-.033-.034-.064-.05-.098.467-.015.94-.027 1.427-.027zm-3.964 1.438c.99 1.948 1.925 3.788 2.71 5.646 2.032 4.804 1.568 5.877 1.37 6.335-.083.19-.153.39-.202.596-1.337-2.23-4.627-5.252-11.136-10.358.018-.04.04-.087.055-.126.754-1.74 1.008-2.327 4.88-3.03.545-.1 1.124-.18 1.72-.25.203.402.403.798.603 1.19zm1.49 14.196c-2.2 1.382-4.736 3.46-5.52 6.02-2.532-.46-8.658-1.83-15.51-3.442.258-1.444.718-1.755 2.057-2.652.422-.282.9-.602 1.444-1.002 3.035-2.225 4.676-4.045 7.322-8.117.038-.058.065-.108.1-.166 3.84 3.016 8.956 7.226 10.107 9.36zm-33.33 53.457c.79.71 1.612 1.438 2.447 2.173 1.4 1.233 2.822 2.488 4.055 3.658-3.12 2.97-11.266 10.548-14.418 13.394l-.065-.146c-.935-2.13-2.145-4.87-4.67-6.858 5.246-4.877 10.52-10.097 12.65-12.22zm-2.604 30.31c.072.036.136.078.21.112 1.195.548 2.856 1.09 4.615 1.667 1.783.584 4.54 1.487 5.81 2.2-2.27 3.903-3.755 7.186-5.125 10.213-.314.695-.62 1.366-.924 2.026-6.265-2.758-11.77-5.553-13.815-7.255a67.42 67.42 0 0 0 9.23-8.963zm16.796 3.663c-.702-.123-1.627-.285-2.3-.466 1-1.602 2.138-3.308 3.455-5.14 2.41-3.348 4.5-7.134 6.287-10.925 2.39 1.454 4.812 3.058 6.94 4.89-.232.337-.464.66-.694.952-2.682 3.393-4.008 6.475-5.18 9.195-.546 1.27-1.065 2.464-1.676 3.618-2.047-1.284-4.65-1.743-6.83-2.125zm18.172-12.253c4.037-7.08 7.737-18.33 8.712-21.403a3.66 3.66 0 0 0 .4-.16c1.187-.552 2.04-1.38 2.793-2.11.063-.06.122-.115.18-.173-1.345 8.69-.705 15.302 2.045 21.664a38.082 38.082 0 0 0 2.537 4.835c-6.186.22-13.15-.3-16.667-2.653zm27.75-49.256c1.28 1.02 3.146 2.444 5.876 4.47 3.42 2.535 7.906 5.704 11.46 7.667-1.077.756-2.467 1.662-4.264 2.753-2.134 1.295-3.93 2.16-5.648 2.965.396-9.95-4.455-14.993-7.423-17.854zm53.164-21.525c-5.177 1.793-10.09 3.494-14.042 4.77-2.157-7.77-.686-25.24-.283-29.5 3.895-1.222 7.117-2.808 9.796-4.134 1.523-.752 2.84-1.403 4.016-1.86 3.49-1.358 12.706-3.61 21.64-5.745.425 1.38-.863 5.04-1.67 7.34-.755 2.144-1.468 4.168-1.718 5.903-.27 1.866-1.058 3.4-1.822 4.887-1.018 1.98-2.07 4.025-1.184 6.243.313.785.964 3.028.422 6.948-4.605 1.494-9.95 3.346-15.156 5.15zm17.428-13.174c-.378-.942.134-2.02 1.07-3.84.79-1.537 1.775-3.453 2.113-5.8.21-1.452.908-3.435 1.583-5.352.52-1.476 1.04-2.966 1.406-4.375.3 5.153.224 10.385.086 13.313-.006.58-.05 5.078-.094 11.233a69.204 69.204 0 0 1-4.842 1.707l-.564.175c.244-2.747 0-5.162-.758-7.06zm3.1-33.297c1.072 1.162 1.81 3.605 2.313 6.61-10.145 2.416-20.415 4.88-24.405 6.432-1.296.505-2.666 1.182-4.25 1.965-4.74 2.346-11.232 5.557-20.21 5.77-2.25.055-4.34.396-6.27.93.38-1.575.373-2.924-.897-3.663-.313-.182-.637-.322-.95-.458-1.375-.6-3.257-1.417-5.225-7.417-2.103-6.415-10.51-7.247-15.025-7.693-.24-.023-.495-.05-.746-.076C168.62 89.15 176.65 76.67 179.88 72.9a38.104 38.104 0 0 0 2.478-3.192c1.024-1.45 1.587-2.25 5.71-5.623l1.094-.893c3.12-2.546 5.572-4.553 8.047-7.128 6.517 5.7 38.744 33.912 42.84 38.35zm-96.513-58.62c6.58 3.364 18.83 9.63 32.163 9.955 12.304.3 17.882 6.067 19.523 8.188-2.43 2.543-4.828 4.505-7.896 7.01l-1.098.895c-4.428 3.623-5.11 4.59-6.243 6.195-.527.746-1.125 1.593-2.312 2.98-3.543 4.134-12.69 18.43-16.692 25.99-.24.453-.465.887-.666 1.29-1.753 3.506-2.927 12.18-3.675 20.26a157.51 157.51 0 0 1-5.963-.06c.36-4.29-.394-10.127-1.064-11.284-.302-.52-1.036-1.167-3.312-3.13-3.05-2.63-10.19-8.79-10.527-11.146-.09-.637-.045-.723.254-1.287 1.027-1.94 2.94-5.55.682-28.824-2.454-25.29-.966-28.052.438-30.037l2.797 1.233c.91.4 2.153 1.035 3.59 1.772zm-18.906-2c2.99-.06 6.292-.128 9.223-1.176-1.38 2.822-2.154 8.608-.03 30.485 2.174 22.406.4 25.756-.358 27.187-.276.52-.495.993-.583 1.602-1.162-10.444-4.734-17.312-7.42-22.452-1.02-1.958-1.905-3.648-2.537-5.265a101.7 101.7 0 0 0-1.056-2.567c-2.51-5.946-5.35-12.688-2.645-26.215.083-.42.163-.838.237-1.257 1.5-.268 3.294-.305 5.17-.342zM79.823 54.016c4.04-2.693 5.89-2.855 8.03-3.044 1.4-.122 2.985-.26 5.195-1.05 5.38-1.923 6.427-2.786 12.24-7.578l.96-.794c5.422-4.463 6.928-5.36 10.084-6.47-2.79 14.233.342 21.675 2.865 27.658.358.848.706 1.674 1.028 2.497.69 1.763 1.65 3.602 2.668 5.55 3.01 5.763 6.757 12.934 7.39 24.755.552 10.29 3.123 17.12 5.85 22.828-.297.044-.603.085-.888.137-4.736.86-5.824 2.117-6.776 4.178-5.09-3.903-10.48-6.105-14.814-7.874-1.942-.792-3.75-1.53-5.145-2.285-.314-.284-1.097-.956-2.398-1.873a2.116 2.116 0 0 1-.27-.533c-1.32-4.23-7.728-20.848-12.95-28.528-2.243-3.298-3.417-6.59-4.775-10.402-1.51-4.233-3.22-9.032-6.8-14.79a81.83 81.83 0 0 0-1.527-2.356c.01-.008.023-.015.034-.023zm-22.04 26.878c-.384-1.825-.78-3.712-.915-5.743-.25-3.764 1.29-5.537 4.67-9.42 1.15-1.32 2.454-2.818 3.918-4.672 2.955-3.743 4.602-3.97 6.88-4.285 1.346-.186 2.928-.408 4.91-1.31.6.89 1.14 1.717 1.604 2.464 3.415 5.494 5.07 10.137 6.53 14.233 1.365 3.833 2.655 7.454 5.107 11.06 4.003 5.886 9.194 18.296 11.6 24.91-3.345-1.883-8.053-4.08-14.322-6.027-11.007-3.42-21.28-7.676-28.778-10.783l-.487-.202c.604-3.904-.067-7.116-.72-10.225zm-5.5 32.07c.807-1.543 1.64-3.14 2.514-4.986 2.476-5.228 2.712-8.04 2.986-11.3.07-.833.142-1.685.255-2.61 7.538 3.122 17.81 7.37 28.868 10.806 7.55 2.347 12.74 5.08 15.9 7.077-3.39 3.534-11.834 12.932-12.695 19.615-.606-.24-1.19-.483-1.764-.722-4.038-1.68-7.526-3.13-12.196-.362-.557.33-1.076.643-1.564.94-4.058 2.442-5.577 3.356-8.985 2.595-3.698-.825-8.052-5.762-9.928-8.68a10.91 10.91 0 0 1-.775-1.395c-.553-1.176-1.167-1.37-2.276-1.363-.305.004-.724.01-1.366-.032a78.783 78.783 0 0 0-2.973-.136c.866-3.428 2.303-6.188 4.003-9.448zm-3.536 48.554c0-.86.01-1.66.022-2.437.054-3.775.1-7.036-1.217-12.966a35.316 35.316 0 0 1-.783-5.494c4.225 2.003 12.143 8.59 19.757 15.537-.137.214-.285.44-.446.688-2.363 3.613-7.152 10.946-5.76 19.767-2.778.795-4.997 1.32-6.39 1.45-.68.064-1.318.15-1.94.247-2.342-4.7-3.242-12.54-3.242-16.793zm4.964 19.492c.167-.02.32-.043.49-.06 1.504-.142 3.793-.67 6.63-1.47.368 3.08-.484 5.33-2.24 7.403-.254-.294-.51-.59-.766-.89-1.434-1.66-2.903-3.366-4.114-4.984zm18.384 33.218a285.33 285.33 0 0 1-1.927-2.835c-1.72-2.582-2.987-6.9-4.106-10.714-.79-2.698-1.538-5.247-2.378-6.928-.713-1.426-1.86-2.984-3.205-4.63 2.492-2.767 3.865-5.94 3.177-10.475 4.374-1.334 9.66-3.126 15.245-5.09.467 2.327 1.58 7.62 3.047 13.018 2.932 10.79 5.213 14.58 6.868 16.037-.432.39-.86.775-1.282 1.15-1.933 1.718-3.566 3.388-5.008 4.863-3.292 3.367-5.754 5.885-9.568 6.862l-.863-1.26zm2.573 3.79c4.02-1.32 6.748-4.106 9.933-7.363 1.477-1.51 3.004-3.073 4.86-4.724.64-.568 1.296-1.16 1.96-1.763 2.214 1.54 3.254 3.9 4.186 6.023.155.354.308.695.463 1.03-2.71 2.682-8.497 9.596-5.523 17.316a83.498 83.498 0 0 1-7.306 4.852c-.802-1.203-1.52-2.49-2.1-3.936-1.443-3.603-3.973-7.685-6.473-11.434zm16.66 24.542c-.858-.947-1.74-1.86-2.596-2.745-1.307-1.354-2.577-2.68-3.743-4.09a86.61 86.61 0 0 0 7.1-4.714c1.367 1.272 4.575 3.422 12.607 7.062.765.347 1.527.686 2.275 1.014-.824 1.62-1.72 3.187-2.833 4.775-1.77 2.524-3.43 4.113-5.034 5.65-.625.598-1.24 1.19-1.848 1.822-1.91-3.436-4.03-6.677-5.928-8.772zm13.963 22.236c-1.58-.5-2.372-.75-3.24-3.18-.784-2.198-1.97-4.872-3.35-7.577.757-.85 1.558-1.618 2.41-2.436 1.628-1.558 3.472-3.322 5.404-6.078 1.252-1.785 2.23-3.513 3.126-5.29a270.65 270.65 0 0 0 5.81 2.383c.066 1.404-.006 2.65-.088 4.02-.06.986-.122 2.006-.134 3.164-.005.487-.015.894-.023 1.243-.06 2.417-.002 2.645 1.57 6.053.162.35.316.67.458.968 1.243 2.594 1.374 2.866-1.73 7.148l-3.13 4.323a20.588 20.588 0 0 1-2.15-1.887c-1.902-1.898-3.582-2.43-4.933-2.857zm15.153 8.297l-.598-.178c-1.802-.537-3.408-1.02-5.01-1.83l3.016-4.165c3.762-5.192 3.742-6.462 1.998-10.104a69.33 69.33 0 0 1-.44-.93c-1.35-2.93-1.35-2.93-1.305-4.766.008-.36.02-.782.024-1.285.01-1.086.07-2.07.13-3.02.1-1.675.192-3.283.027-5.24 0-.02-.003-.04-.005-.06a25.11 25.11 0 0 0-.168-1.478c-.175-1.213.304-1.656 2.615-3.188 1.58-1.05 3.55-2.355 5.672-4.604a20.895 20.895 0 0 0 1.607-1.92c3.297 2.11 9.187 3.038 15.028 3.796.875.114 1.63.21 2.202.302 1.79.282 3.148.565 4.056.775-1.335 5.364-6 24.288-6.92 30.36a771.46 771.46 0 0 1-2.18 13.387c-3.903-1.61-10.44-3.35-15.424-4.674-1.813-.48-3.38-.896-4.327-1.18zm22.475 7.144c.426-2.476 1.5-8.8 2.326-14.24.227-1.497.698-3.84 1.297-6.59 2.345.767 6.912 2.355 9.712 3.955 3.437 1.964 3.215 6.096 2.423 9.216-.662 2.612-1.146 7.32-.017 10.537-.35.02-.718.035-1.122.035-4.176 0-10.73-1.153-14.618-2.913zm33.43 3.253c-1.73 1.458-3.56 2.167-5.588 2.167-2.058 0-4.08-.695-6.035-1.368a44.69 44.69 0 0 0-2.3-.742l-.003-.002c-1.44-.472-2.168-5.393-.934-10.253 1.47-5.79.122-10.21-3.796-12.45-3.165-1.808-8.17-3.524-10.52-4.283 2.163-9.584 5.243-21.88 5.286-22.054l.044-.174v-17.02l.43.003h.075c1.436 0 2.847-.045 4.202-.125 2.45 3.316 5.36 6.202 8.36 8.25.066 1.375.218 2.663.385 4.048.125 1.04.255 2.113.36 3.34.256 2.954 1.55 5.22 2.493 6.876.42.74.997 1.75.98 2.023-.002.002-.11.157-.622.376-.97.417-1.727.54-2.334.64-.78.127-1.663.27-2.13 1.16-.56 1.06-.138 1.957 1.433 5.29l.313.664c2.638 5.61 4.323 10.9 6.655 18.224.397 1.248.812 2.548 1.25 3.913 1.273 3.956 3.604 5.957 5.475 7.565.218.187.428.368.63.546a236.11 236.11 0 0 0-4.11 3.386zm6.414-5.203c-.33-.31-.68-.62-1.042-.93-1.76-1.513-3.58-3.077-4.603-6.253-.438-1.362-.853-2.66-1.248-3.904-2.367-7.428-4.077-12.794-6.796-18.577l-.313-.666c-.444-.944-.852-1.808-1.107-2.41a11.49 11.49 0 0 0 2.658-.776c1.19-.51 1.916-1.193 2.218-2.093.487-1.45-.294-2.822-1.2-4.41-.855-1.5-1.92-3.37-2.122-5.69a95.783 95.783 0 0 0-.37-3.435 108.64 108.64 0 0 1-.213-1.866c7.718 4.465 20.147 13.407 20.563 17.563.54 5.394 3.612 19.124 6.256 24.703-.12.078-.24.154-.365.233-4.913 3.102-8.49 5.554-12.315 8.51zm27.394-19.725c-2.535 1.63-4.396 3.164-6.367 4.79-1.735 1.43-3.516 2.896-5.91 4.565-2.287-5.12-5.267-17.947-5.808-23.367-.773-7.73-22.976-20.344-23.2-20.468-.143-.08-.287-.17-.432-.255.02-2.138.308-4.62 1.144-8.204 1.307-5.61 1.83-11.244 2.494-18.377.37-3.965.787-8.443 1.407-13.63.36-.172.72-.342 1.085-.513 1.924-.9 3.916-1.832 6.368-3.32 1.842-1.12 3.955-2.404 5.694-3.765 2.19 1.128 4.096 2.73 5.945 4.29 1.248 1.053 2.51 2.117 3.864 3.037.533 4.334 3.506 28.724 3.767 35.762.062 1.716.006 3.44-.05 5.106V224.296c-.194 5.85-.368 11.896 4.915 17.26 1.278 1.298 2.53 2.65 3.74 3.957 3.203 3.458 5.89 6.354 8.31 7.568-2.505 2.2-5.027 4.235-6.966 5.482zm20.083-18.077c-1.56 1.144-2.793 2.046-3.46 2.98-.885 1.24-3.7 4.143-6.952 7.165a.627.627 0 0 1-.454.163c-1.764-.053-5.31-3.878-8.434-7.255-1.226-1.322-2.494-2.69-3.804-4.02-3.78-3.84-4.216-8.016-4.145-12.725.847-.672 1.425-2.245 2.11-4.33.966-2.95 3.44-5.157 6.305-5.62 2.594-.42 5.004.67 6.783 3.07 2.396 3.237 7.236 4.268 14.38 3.066 2.863-.483 5.5-1.227 7.277-1.79a79.17 79.17 0 0 0-.567 6.808c-.25 6.04-5.33 9.766-9.04 12.487zm10.507-32.297l.082 1.386c.194 3.322-.123 5.6-.537 8.415-5.048 1.798-16.45 4.683-19.772.198-2.42-3.27-5.912-4.802-9.578-4.21-3.3.534-6.204 2.727-7.822 5.77-.005-.25-.006-.498-.016-.75-.24-6.472-2.63-26.547-3.53-33.942 1.505.614 3.152.978 5.02.93 7.73-.197 18.98 2.298 24.37 6.82 2.632 2.207 5.61 4.15 8.49 6.027.988.645 1.962 1.28 2.907 1.916.092 2.526.245 5.084.387 7.438zm-1.71-11.786c-2.807-1.83-5.71-3.725-8.208-5.82-6.14-5.15-18.13-7.704-26.31-7.496-4.032.092-6.828-2.26-10.074-4.998-1.73-1.457-3.508-2.95-5.578-4.152 1.207-1.418 1.714-2.87.877-4.267-.614-1.023-1.322-2.872-2.045-5.01 3.983.586 12.23 1.93 16.95 3.613 2.776.99 5.447 2.24 8.276 3.565 3.703 1.733 7.9 3.697 13.04 5.372 1.528.5 3.018.964 4.45 1.41 4.785 1.493 9.083 2.835 11.858 4.578-.225.982-.47 1.965-.72 2.963-.216.858-.43 1.712-.63 2.57-.51 2.19-.663 5.21-.64 8.484-.414-.27-.826-.54-1.246-.812zm4.115-22.014c.143 2.025.002 3.926-.29 5.788-2.985-1.64-6.972-2.887-11.58-4.323-1.423-.443-2.9-.904-4.418-1.4-.32-.104-.625-.21-.936-.317 3.304-1.98 8.292-5.755 9.354-10.943.704-3.438.152-6.182-.383-8.835-.61-3.034-1.188-5.9.31-9.702.917-2.328 1.59-4.577 2.02-6.692.65-.206 1.283-.404 1.892-.59a68.612 68.612 0 0 0 3.968-1.367c-.098 14.387-.192 34.856.062 38.38z"/><path opacity=".3" fill="#060000" d="M208.37 130.583c10.857-14.382 8-34.843-6.382-45.7-14.38-10.857-34.843-8-45.7 6.382a32.477 32.477 0 0 0-6.565 20.65l-.012-.007 1.134 40.723 39.476-10.066-.01-.008a32.49 32.49 0 0 0 18.06-11.973zM266.43 97.38c4.168-5.523 3.07-13.38-2.452-17.55s-13.38-3.072-17.55 2.45a12.474 12.474 0 0 0-2.52 7.93l-.005-.002.435 15.64 15.16-3.867-.004-.002a12.48 12.48 0 0 0 6.935-4.6zM68.408 173.17c3.195-4.232 2.354-10.253-1.878-13.448-4.232-3.195-10.253-2.354-13.448 1.878a9.556 9.556 0 0 0-1.932 6.077l-.003-.003.333 11.983 11.616-2.962-.003-.002a9.56 9.56 0 0 0 5.315-3.523zM112.764 250.424c3.195-4.232 2.354-10.253-1.878-13.448-4.232-3.195-10.253-2.354-13.448 1.878a9.556 9.556 0 0 0-1.932 6.077h-.003l.333 11.982 11.616-2.962-.003-.002a9.56 9.56 0 0 0 5.314-3.524zM160.26 200.273c4.268-5.65 3.145-13.692-2.507-17.96-5.65-4.266-13.692-3.143-17.96 2.51a12.77 12.77 0 0 0-2.58 8.114l-.004-.003.444 16.003 15.513-3.956-.004-.002a12.76 12.76 0 0 0 7.098-4.705zM218.902 260.514c4.267-5.65 3.144-13.692-2.508-17.96-5.65-4.266-13.692-3.143-17.96 2.51a12.77 12.77 0 0 0-2.58 8.114l-.004-.003.445 16.003 15.513-3.956-.004-.003a12.756 12.756 0 0 0 7.098-4.706zM101.213 49.514c4.267-5.65 3.144-13.692-2.508-17.96-5.65-4.266-13.692-3.143-17.96 2.51a12.77 12.77 0 0 0-2.58 8.114l-.004-.003.446 16.003 15.513-3.956-.005-.003a12.756 12.756 0 0 0 7.098-4.706zM260.548 181.9a8.873 8.873 0 0 0-1.735-12.427 8.873 8.873 0 0 0-14.214 7.35h-.004l.308 11.074 10.736-2.737-.003-.003a8.823 8.823 0 0 0 4.91-3.256z"/><path fill="#FF3827" d="M191.767 87.237c0-22.002-17.837-39.838-39.838-39.838s-39.84 17.835-39.84 39.837a39.66 39.66 0 0 0 8.794 24.954h-.018l31.062 38.852 31.062-38.85h-.017a39.66 39.66 0 0 0 8.794-24.955z"/><circle fill="#AF0706" cx="151.929" cy="87.237" r="28.224"/><path opacity=".2" fill="#060000" d="M167.867 68.07l-4.72 13.787-.663-1.592-7.3-12.195-22.114 31.11 18.148 16.246c.238.006.47.036.71.036 15.363 0 27.833-12.28 28.19-27.56l-12.25-19.832z"/><path opacity=".2" fill="#060000" d="M191.767 87.237c0-22.002-17.837-39.838-39.838-39.838V151.04l31.06-38.85h-.016a39.666 39.666 0 0 0 8.793-24.955z"/><path fill="#FFF" d="M133.07 88.716l22.77-20.646v10.544l12.027-10.544v30.508h-8.298V87.313L146.22 99.22V87.313L133.07 99.18V88.716z"/><path fill="#FF3827" d="M63.746 160.556c0-6.6-5.35-11.948-11.948-11.948s-11.948 5.35-11.948 11.948c0 2.834.988 5.436 2.637 7.484h-.005l9.316 11.652 9.316-11.652h-.005a11.897 11.897 0 0 0 2.636-7.484z"/><circle fill="#AF0706" cx="51.798" cy="160.556" r="8.465"/><path opacity=".2" fill="#060000" d="M56.578 154.807l-1.416 4.135-.2-.478-2.188-3.657-6.633 9.33 5.444 4.873c.072.002.14.01.213.01 4.607 0 8.348-3.683 8.455-8.265l-3.674-5.948z"/><path opacity=".2" fill="#060000" d="M63.746 160.556c0-6.6-5.35-11.948-11.948-11.948v31.084l9.316-11.652h-.005a11.897 11.897 0 0 0 2.636-7.484z"/><path fill="#FFF" d="M46.142 161l6.83-6.192v3.162l3.606-3.162v9.15h-2.49v-3.378l-4.002 3.57v-3.57l-3.944 3.56V161z"/><g><path fill="#FF3827" d="M256.43 168.076c0-6.6-5.35-11.948-11.948-11.948s-11.948 5.35-11.948 11.948c0 2.834.988 5.436 2.637 7.484h-.004l9.316 11.65 9.316-11.65h-.005a11.9 11.9 0 0 0 2.637-7.484z"/><circle fill="#AF0706" cx="244.482" cy="168.076" r="8.465"/><path opacity=".2" fill="#060000" d="M249.262 162.328l-1.416 4.134-.2-.477-2.188-3.657-6.633 9.33 5.443 4.873c.072.003.14.012.213.012 4.608 0 8.35-3.684 8.456-8.266l-3.674-5.948z"/><path opacity=".2" fill="#060000" d="M256.43 168.076c0-6.6-5.35-11.948-11.948-11.948v31.084l9.316-11.65h-.005a11.904 11.904 0 0 0 2.637-7.486z"/><path fill="#FFF" d="M238.826 168.52l6.83-6.192v3.162l3.606-3.162v9.15h-2.49v-3.38l-4.002 3.572v-3.57l-3.944 3.558v-3.14z"/></g><g><path fill="#FF3827" d="M108.585 237.51c0-6.6-5.35-11.95-11.948-11.95s-11.948 5.35-11.948 11.95c0 2.833.987 5.435 2.636 7.483h-.006l9.316 11.652 9.316-11.652h-.005a11.892 11.892 0 0 0 2.638-7.484z"/><circle fill="#AF0706" cx="96.637" cy="237.509" r="8.465"/><path opacity=".2" fill="#060000" d="M101.417 231.76L100 235.896l-.198-.478-2.19-3.657-6.632 9.33 5.443 4.873c.072.002.14.01.213.01 4.607 0 8.348-3.683 8.455-8.265l-3.673-5.947z"/><path opacity=".2" fill="#060000" d="M108.585 237.51c0-6.6-5.35-11.95-11.948-11.95v31.085l9.316-11.652h-.005a11.897 11.897 0 0 0 2.637-7.484z"/><path fill="#FFF" d="M90.98 237.953l6.83-6.192v3.163l3.606-3.162v9.15h-2.49v-3.378l-4.002 3.57v-3.57l-3.944 3.56v-3.14z"/></g><g><path fill="#FF3827" d="M213.586 242.624c0-9.314-7.55-16.864-16.864-16.864-9.313 0-16.864 7.55-16.864 16.864 0 4 1.396 7.672 3.722 10.562h-.007l13.15 16.446 13.148-16.446h-.006a16.787 16.787 0 0 0 3.722-10.562z"/><circle fill="#AF0706" cx="196.722" cy="242.624" r="11.947"/><path opacity=".2" fill="#060000" d="M203.47 234.51l-2 5.836-.28-.674-3.09-5.162-9.36 13.17 7.682 6.876c.1.002.2.016.3.016 6.504 0 11.783-5.2 11.934-11.666l-5.187-8.396z"/><path opacity=".2" fill="#060000" d="M213.586 242.624c0-9.314-7.55-16.864-16.864-16.864v43.873l13.15-16.446h-.008a16.792 16.792 0 0 0 3.722-10.563z"/><path fill="#FFF" d="M188.74 243.25l9.638-8.74v4.464l5.09-4.463v12.915h-3.512v-4.768l-5.65 5.04v-5.04l-5.567 5.022v-4.43z"/></g><g><path fill="#FF3827" d="M96.637 31.624c0-9.313-7.55-16.864-16.864-16.864-9.313 0-16.864 7.55-16.864 16.864 0 4 1.395 7.672 3.72 10.562h-.006l13.15 16.446L92.92 42.186h-.007a16.787 16.787 0 0 0 3.722-10.562z"/><circle fill="#AF0706" cx="79.773" cy="31.624" r="11.947"/><path opacity=".2" fill="#060000" d="M86.52 23.51l-1.998 5.836-.28-.674-3.09-5.162-9.362 13.17 7.682 6.876c.1.002.2.016.3.016 6.504 0 11.783-5.2 11.934-11.666L86.52 23.51z"/><path opacity=".2" fill="#060000" d="M96.637 31.624c0-9.313-7.55-16.864-16.864-16.864v43.873l13.15-16.446h-.008a16.792 16.792 0 0 0 3.722-10.563z"/><path fill="#FFF" d="M71.79 32.25l9.64-8.74v4.464l5.09-4.463v12.915h-3.513v-4.768l-5.65 5.04v-5.04L71.79 36.68v-4.43z"/></g><g><path fill="#FF3827" d="M260.977 80.2c0-9.11-7.385-16.494-16.495-16.494S227.987 71.09 227.987 80.2c0 3.913 1.365 7.505 3.64 10.332h-.006l12.862 16.086 12.86-16.086h-.006a16.417 16.417 0 0 0 3.64-10.33z"/><circle fill="#AF0706" cx="244.482" cy="80.201" r="11.686"/><path opacity=".2" fill="#060000" d="M251.08 72.265l-1.953 5.708-.275-.66-3.022-5.048-9.156 12.88 7.514 6.727c.1.003.195.016.294.016 6.36 0 11.524-5.085 11.672-11.41l-5.073-8.213z"/><path opacity=".2" fill="#060000" d="M260.977 80.2c0-9.11-7.385-16.494-16.495-16.494v42.912l12.86-16.086h-.006a16.417 16.417 0 0 0 3.64-10.33z"/><path fill="#FFF" d="M236.674 80.813l9.428-8.548v4.365l4.98-4.365v12.63h-3.437v-4.663l-5.527 4.93v-4.93l-5.444 4.913v-4.332z"/></g><g><path fill="#FF3827" d="M155.094 180.562c0-10.21-8.275-18.483-18.483-18.483s-18.482 8.273-18.482 18.482a18.4 18.4 0 0 0 4.08 11.577h-.01l14.413 18.024 14.414-18.025h-.008a18.404 18.404 0 0 0 4.078-11.578z"/><circle fill="#AF0706" cx="136.612" cy="180.562" r="13.095"/><path opacity=".2" fill="#060000" d="M144.006 171.67l-2.19 6.395-.308-.738-3.386-5.658-10.26 14.433 8.42 7.537c.11.004.218.018.33.018 7.127 0 12.913-5.698 13.078-12.786l-5.684-9.203z"/><path opacity=".2" fill="#060000" d="M155.094 180.562c0-10.21-8.275-18.483-18.483-18.483v48.085l14.414-18.025h-.008a18.41 18.41 0 0 0 4.078-11.578z"/><path fill="#FFF" d="M127.862 181.248l10.563-9.58v4.893l5.58-4.89v14.153h-3.85v-5.226l-6.193 5.523v-5.523l-6.1 5.505v-4.854z"/></g></svg>