<svg xmlns="http://www.w3.org/2000/svg" width="419.896" height="237.328" viewBox="0 0 419.896 237.328"><path opacity=".05" d="M410.44 150.267H303.488c-.38.05-.76.074-1.15.074h-58.743a9.577 9.577 0 0 1-9.58-9.577c0-5.293 4.287-9.582 9.58-9.582H382.82c9.033-1.453 15.933-9.282 15.933-18.726 0-10.475-8.493-18.967-18.97-18.967h-28.107c.25-.114.496-.247.743-.372h-76.282c-10.522 0-19.056-8.53-19.056-19.054 0-10.52 8.533-19.055 19.056-19.055h74.395c7.405-2.61 12.717-9.663 12.717-17.965 0-10.522-8.534-19.056-19.057-19.056H193.7c-.55 0-1.093.026-1.632.077h-57.35a9.292 9.292 0 0 0-9.294 9.293c0 4.132 2.702 7.628 6.435 8.834h15.073c5.417 0 9.81 4.393 9.81 9.81 0 5.417-4.393 9.81-9.81 9.81H117.93c.118.03.235.066.36.097H9.454C4.233 55.904 0 60.14 0 65.362s4.233 9.458 9.455 9.458h8.196c-.058.007-.11.026-.165.038h23.328a9.474 9.474 0 0 1 9.478 9.48c0 5.232-4.238 9.478-9.477 9.478h-21.41c-8.797 1.648-15.453 9.363-15.453 18.64 0 10.477 8.493 18.972 18.968 18.972h60.845l-.007.002h50.7c5.22 0 9.457 4.234 9.457 9.457 0 5.225-4.236 9.455-9.457 9.455l-78.115.037c-10.067 0-18.228 8.157-18.228 18.226 0 10.065 8.16 18.23 18.23 18.23h22.847c.464.068.94.115 1.43.115h23.987c-4.422.798-7.78 4.652-7.78 9.302a9.455 9.455 0 0 0 9.46 9.457h191.635a9.45 9.45 0 0 0 9.455-9.458c0-4.65-3.354-8.504-7.774-9.3h-90.768a8.837 8.837 0 0 1-8.84-8.84c0-4.88 3.958-8.84 8.84-8.84h68.085c-.05-.026-.1-.06-.152-.09h133.675c5.22 0 9.455-4.235 9.455-9.456-.002-5.228-4.237-9.46-9.457-9.46z"/><path fill="#575756" d="M306.087 72.02c-1.547-.85-2.703-2.358-4.2-3.368-1.364-.918-2.897-1.667-4.43-2.253-3.586-1.37-7.29-1.974-11.123-1.954-7.1.037-14.044 2.813-19.384 7.427-6.146 5.312-7.683 13.49-10.71 20.65-3.546 8.388-9.444 17.12-19.39 17.75-9.483.6-18.956-6.008-25.97-11.664-6.787-5.476-11.815-12.225-16.92-19.222-4.76-6.52-9.833-12.897-16.804-17.17-7.136-4.374-16.584-5.604-24.807-5.424-7.135.155-14.827 2.177-19.58 7.82-3.648 4.333-4.716 11.07-4.056 16.558 1.867 15.505 19.257 21.66 32.365 24.364 1.932.398 2.753-2.562.815-2.96-13.718-2.83-31.636-9.51-30.184-26.494 1.697-19.864 28.714-18.64 42.125-12.182 8.068 3.886 13.58 11.686 18.696 18.72 4.853 6.672 9.79 12.88 16.178 18.16 12.265 10.138 30.193 18.987 43.097 5.045 4.16-4.497 6.627-10.367 8.81-16.004 2.563-6.624 4.342-12.78 10.29-17.22 4.932-3.683 11.18-5.225 17.26-5.064 3.377.09 6.726.983 9.775 2.413 2.61 1.223 4.104 3.352 6.596 4.722 1.738.954 3.287-1.698 1.55-2.652z"/><path fill="#E2AD17" d="M304.957 67.51s-3.515 1.573-5.096 6.476c3.86 2.388 2.19 1.607 2.19 1.607s4.138-4.257 4.21-6.338c-1.012-1.53-1.303-1.744-1.303-1.744z"/><path fill="#FFC71A" d="M240.59 162.754c36.036-16.08 43.713-22.453 44.46-37.038l-4.946-4.856-.134.143-5.046-4.586c-14.525 1.543-20.458 9.557-34.55 46.415l-.025.04c.007-.01.01-.007.02-.01-.033.076.118.003.22-.108z"/><path fill="#E55400" d="M257.314 145.062c22.167-9.89 26.883-13.81 27.345-22.784l-3.04-2.986-.09.1-3.1-2.833c-8.936.95-12.585 5.883-21.253 28.554l-.01.02c.003-.002.003-.006.008-.006-.016.045.075.008.14-.066z"/><path opacity=".6" fill="#FFF" d="M266.605 135.228c12.32-5.504 14.95-7.68 15.206-12.666l-1.69-1.662-.05.047-1.724-1.57c-4.963.53-6.995 3.267-11.816 15.88v.01s0-.006 0 0c-.01.018.045-.008.075-.04z"/><path fill="#00A8E4" d="M308.205 107.237c.087.757 6.842 7.277 6.448 12.08-.332 4.043-21.306 22.006-26.002 24.368-2.74 1.072-3.655-.834-3.05-2.327 1.397-3.448 9.833-17.844 9.833-17.844l-2.63-.766 15.402-15.51z"/><path opacity=".2" d="M311.678 111.48c-3.713-4.108-3.434-3.897-3.473-4.243l-15.403 15.512 2.412.698c4.802-3.226 13.572-9.72 16.464-11.97z"/><path fill="#00A8E4" d="M292.56 92.265c-.758-.056-7.558-6.53-12.34-5.936-4.026.5-21.09 22.212-23.253 27.005-.955 2.783.987 3.616 2.455 2.95 3.385-1.542 17.414-10.575 17.414-10.575l.877 2.596 14.848-16.04z"/><path opacity=".2" d="M288.176 88.972c4.258 3.54 4.036 3.268 4.384 3.293l-14.85 16.04-.8-2.38c3.024-4.933 9.14-13.97 11.266-16.953z"/><path fill="#2D2D2D" d="M284.94 135.935c3.88-4.158 3.207-7.925 2.763-9.308v-.002a4.606 4.606 0 0 0-.205-.533c-.212-.838-.244-2.587 2.043-4.728 2.733-2.557-3.31-4.657-5.228-5.243-.714-1.87-3.227-7.758-5.588-4.855-1.992 2.447-3.75 2.52-4.595 2.36a5.578 5.578 0 0 0-.507-.153l-.023-.01v.005c-1.415-.35-5.214-.756-9.09 3.395.01.012.02.02.03.027a.608.608 0 0 0-.116.098c-1.128 1.21 2.523 6.45 8.155 11.71 5.63 5.256 11.112 8.538 12.242 7.333a.734.734 0 0 0 .09-.125l.027.027z"/><path fill="#464646" d="M286.188 134.596c3.883-4.157 3.21-7.925 2.766-9.307v-.002a4.42 4.42 0 0 0-.206-.534c-.212-.837-.246-2.586 2.043-4.73 2.733-2.554-3.31-4.654-5.23-5.24-.714-1.873-3.226-7.758-5.587-4.856-1.993 2.447-3.75 2.52-4.593 2.362a4.66 4.66 0 0 0-.508-.155c-.015-.008-.023-.01-.023-.01v.004c-1.416-.348-5.215-.756-9.09 3.396l.03.028a.565.565 0 0 0-.117.096c-1.128 1.208 2.522 6.454 8.155 11.71 5.633 5.26 11.115 8.54 12.243 7.33a.704.704 0 0 0 .09-.12c.01.01.02.017.028.026z"/><path fill="#FFC71A" d="M345.935 57.21l-1.503-1.402-3.645-3.4L339.284 51s-20.005.995-27.3 10.168c-7.295 9.17-22.168 27.533-34.647 47.233 3.68 3.434 6.203 5.7 7.74 7.052 1.456 1.443 3.888 3.803 7.568 7.237 18.794-13.803 36.375-29.64 45.025-37.547 8.647-7.907 8.265-27.934 8.265-27.934z"/><path opacity=".1" d="M345.888 57.472s-1.436 12.187-7.276 22.348c-4.684 8.148-18.665 15.808-48.47 40.51 1.673 1.586 2.066 1.83 2.675 2.497 18.795-13.802 36.157-29.515 44.807-37.422 8.648-7.906 8.264-27.933 8.264-27.933z"/><path opacity=".5" fill="#FFF" d="M340.687 52.523l.448-.403-.348.286-.47-.672s-19.558 1.67-26.853 10.844c-7.295 9.17-22.566 27.17-35.045 46.87 3.68 3.435 5.12 4.653 6.657 6.006 1.456 1.443-8.003-7.47-4.323-4.035 19.58-27.01 28.134-38.196 35.976-46.903 6.666-7.403 23.957-11.994 23.957-11.994z"/><circle opacity=".1" cx="326.553" cy="72.045" r="7.554"/><circle fill="#464646" cx="327.327" cy="71.215" r="7.554"/><circle fill="#94E6FF" cx="327.328" cy="71.215" r="6.101"/><path opacity=".5" fill="#FFF" d="M324.228 68.502a4.9 4.9 0 0 1 6.926-.24c.222.21.418.437.594.672a4.902 4.902 0 0 0-8.07-1.376 4.9 4.9 0 0 0-.354 6.258 4.9 4.9 0 0 1 .904-5.314z"/><circle opacity=".1" cx="311.494" cy="88.133" r="9.258"/><circle fill="#464646" cx="312.444" cy="87.116" r="9.258"/><circle fill="#94E6FF" cx="312.443" cy="87.116" r="7.478"/><path opacity=".5" fill="#FFF" d="M308.645 83.79a6.003 6.003 0 0 1 8.488-.292c.272.255.512.533.728.822a6.007 6.007 0 0 0-9.89-1.687 6.006 6.006 0 0 0-.434 7.67 6.005 6.005 0 0 1 1.11-6.512z"/><path fill="#575756" d="M277.067 107.882l16.093 15.022-3.68 3.943-16.094-15.02z"/><path opacity=".2" fill="#FFF" d="M276.407 114.635l-1.527-1.423 3.675-3.943 1.527 1.422z"/><path opacity=".1" d="M289.46 126.825l-3.197-2.986 3.68-3.94 3.196 2.984zM296.866 111.21c3.206-3.372 3.948-7.875 1.66-10.05-2.288-2.177-6.744-1.208-9.95 2.165a12.29 12.29 0 0 0-1.637 2.157c-4 5.296-14.16 18.797-16.524 22.565-1.033 1.082-1.27 2.535-.537 3.244.74.7 2.178.386 3.212-.702 0 0 18.413-14.52 22.722-18.398.02-.016.035-.035.05-.047.345-.29.682-.6 1.002-.932z"/><path fill="#00A8E4" d="M297.47 109.892c3.206-3.374 4.1-7.732 1.993-9.735-2.104-2.004-6.413-.893-9.618 2.48a13.447 13.447 0 0 0-1.656 2.142c-4.04 5.252-14.314 18.647-16.73 22.365-1.033 1.084-1.32 2.494-.644 3.142.682.646 2.073.284 3.107-.803 0 0 18.22-14.704 22.503-18.606.02-.014.034-.033.05-.047.34-.293.675-.603.995-.938z"/><path opacity=".3" fill="#FFF" d="M298.508 101.48c-1.33-1.263-5.157-.243-7.886 2.628-.55.58-2.742 3.504-3.162 4.108-3.55 4.366-12.58 15.502-14.766 18.54-.88.926-1.246 2.01-.82 2.42.43.406.555-.814 1.435-1.742 0 0 20.39-25.277 25.198-25.953z"/><path fill="#0AA1C9" d="M357.488 37.98a32.8 32.8 0 0 0-.505-.48c-4.692 5.026-15.942 14.213-15.942 14.213l1.678 1.622-.008.01.233.21.228.218.01-.006 1.734 1.56s8.39-11.853 13.084-16.88c-.234-.218-.395-.364-.51-.468z"/><path opacity=".3" fill="#FFF" d="M357.488 37.98a32.8 32.8 0 0 0-.505-.48c-4.692 5.026-13.177 12.753-13.177 12.753l.986.933s7.578-8.17 12.27-13.195c-.233-.216.54.093.426-.01z"/><path opacity=".1" d="M357.488 37.98c-.11-.108.51.28.275.06-4.692 5.025-13.704 16.263-13.704 16.263l-1.343-.968-.008.01.232.21.228.218.008-.006 1.735 1.56s8.39-11.853 13.084-16.88a33.51 33.51 0 0 0-.51-.468z"/><path fill="#00A8E4" d="M346.5 57.208a.633.633 0 0 1-.898.03l-6.324-5.9a.636.636 0 0 1-.03-.9l.11-.117a.636.636 0 0 1 .898-.03l6.32 5.902c.26.24.273.644.033.9l-.11.116z"/><path opacity=".2" d="M357.488 37.98a32.8 32.8 0 0 0-.505-.48c-.6.642-1.307 1.354-2.083 2.102.12.298.294.576.544.81.158.147.336.26.52.352.725-.86 1.412-1.65 2.034-2.315-.234-.22-.395-.367-.51-.47z"/><path fill="#00A8E4" d="M347.032 55.42a.534.534 0 0 1-.75.024l-5.26-4.91a.53.53 0 0 1-.027-.75l.09-.096a.532.532 0 0 1 .75-.027l5.26 4.912a.53.53 0 0 1 .026.75l-.088.098zM347.76 53.897a.465.465 0 0 1-.658.022l-4.617-4.31a.464.464 0 0 1-.022-.657l.08-.085a.464.464 0 0 1 .657-.022l4.615 4.31c.188.175.198.468.023.657l-.08.084z"/><path fill="#0AA1C9" d="M359.27 39.343a2.198 2.198 0 0 1-3.104.095c-.892-.835-.946-2.224-.12-3.104.82-.885 2.213-.925 3.103-.094.89.83.946 2.22.12 3.103z"/><path fill="#FFC71A" d="M67.77 237.09c60.13-27.678 72.883-38.517 73.853-62.99l-8.39-8.05-.224.24-8.554-7.595c-24.33 2.87-34.128 16.43-57.043 78.53l-.044.066c.014-.015.02-.014.032-.016-.053.128.2.007.367-.183z"/><path fill="#E55400" d="M95.477 207.09c36.987-17.023 44.822-23.688 45.42-38.752l-5.152-4.95-.15.164-5.256-4.687c-14.97 1.77-20.992 10.113-35.09 48.31l-.02.03c.007 0 .005-.006.015-.008-.026.082.128.015.232-.107z"/><path opacity=".6" fill="#FFF" d="M110.868 190.412c20.56-9.475 24.93-13.175 25.26-21.546l-2.87-2.753-.08.082-2.923-2.602c-8.316.986-11.668 5.62-19.513 26.865l-.002.018s0-.01.005 0c-.02.032.075-.01.123-.064z"/><path fill="#FF404A" d="M180.1 142.65c.16 1.267 3.325 19.796 2.758 27.862-.478 6.786-27.016 29.6-34.845 33.654-4.58 1.85-6.15-1.326-5.164-3.845 2.275-5.81 16.145-30.122 16.145-30.122l-4.428-1.23 25.532-26.317z"/><path opacity=".2" d="M181.576 152.685c-.69-5.2-1.402-9.45-1.478-10.033l-25.532 26.318 4.06 1.128c7.992-5.51 18.143-13.583 22.95-17.413z"/><path fill="#FF404A" d="M152.272 117.273c-1.274-.045-20.017-1.493-27.997-.187-6.714 1.1-26.992 29.62-30.31 37.792-1.422 4.73 1.886 6.002 4.303 4.788 5.577-2.8 28.51-18.845 28.51-18.845l1.633 4.295 23.862-27.842z"/><path opacity=".2" d="M142.146 116.726c5.24.21 9.54.527 10.126.548l-23.86 27.843-1.497-3.938c4.75-8.465 11.857-19.316 15.23-24.454z"/><path fill="#2D2D2D" d="M141.637 191.24c6.43-7.05 5.227-13.356 4.452-15.667l-.002-.003c-.16-.48-.3-.786-.352-.89-.373-1.4-.462-4.335 3.335-7.97 4.535-4.34-5.645-7.747-8.873-8.69-1.237-3.13-5.565-12.95-9.47-8.037-3.293 4.143-6.242 4.298-7.658 4.05a7.892 7.892 0 0 0-.855-.25l-.04-.017v.008c-2.38-.556-8.76-1.16-15.18 5.878l.05.043c-.07.05-.136.104-.19.166-1.87 2.052 4.355 10.774 13.905 19.483 9.55 8.71 18.81 14.107 20.68 12.058a1.11 1.11 0 0 0 .146-.204l.05.044z"/><path fill="#464646" d="M143.705 188.97c6.43-7.05 5.228-13.355 4.454-15.666l-.002-.003c-.16-.478-.3-.784-.352-.89-.373-1.4-.46-4.332 3.335-7.967 4.536-4.342-5.644-7.748-8.872-8.69-1.237-3.128-5.564-12.952-9.47-8.038-3.293 4.144-6.24 4.3-7.66 4.048a7.89 7.89 0 0 0-.853-.246l-.037-.02v.01c-2.38-.558-8.76-1.16-15.18 5.877l.048.043a1.12 1.12 0 0 0-.19.166c-1.87 2.05 4.355 10.772 13.905 19.48 9.552 8.71 18.81 14.11 20.68 12.06.057-.062.106-.132.147-.205l.048.043z"/><path fill="#CED309" d="M256.082 42.532l-2.55-2.326-6.178-5.634-2.55-2.325s-33.536 2.058-45.594 17.583c-12.057 15.526-50.317 62.092-70.862 95.376 6.24 5.69 10.515 9.44 13.12 11.678 2.47 2.39 6.594 6.302 12.834 11.992 31.256-23.518 74.108-65.896 88.46-79.327 14.353-13.436 13.32-47.018 13.32-47.018z"/><path opacity=".1" d="M256.082 42.532l-2.55-2.326-6.178-5.634-2.55-2.325s8.068 27.84-1.53 44.996c-7.7 13.76-32.07 44.613-93.147 87.28 2.84 2.63 3.503 3.036 4.54 4.138 31.256-23.517 73.744-65.68 88.095-79.11 14.353-13.436 13.32-47.018 13.32-47.018z"/><path opacity=".5" fill="#FFF" d="M256.082 42.532l-2.55-2.326-6.178-5.634-2.55-2.325s-31.025 4.394-43.083 19.92c-12.056 15.525-50.99 61.487-71.535 94.773 6.24 5.69 8.678 7.705 11.284 9.943 2.468 2.39-13.57-12.374-7.332-6.684 32.315-45.69 58.766-78.517 73.118-91.95 14.352-13.432 48.826-15.718 48.826-15.718z"/><path fill="#476800" d="M241.432 90.796c.458-.43.904-.85 1.33-1.247 14.354-13.436 13.32-47.018 13.32-47.018l-2.55-2.326-6.178-5.634-2.55-2.325s-33.536 2.058-45.594 17.583c-.357.464-.733.946-1.12 1.442 5.17 7.495 11.742 15.05 19.508 22.133 7.768 7.082 15.895 12.93 23.834 17.39z"/><path opacity=".3" d="M242.48 89.646l1.29-1.2c13.9-12.94 12.312-45.913 12.312-45.913l-2.55-2.326-6.178-5.634-2.55-2.325s-32.98 1.45-44.586 16.48c-.345.446-.706.913-1.08 1.394 5.22 7.442 11.817 14.968 19.584 22.05 7.767 7.084 15.868 12.96 23.758 17.474z"/><path fill="#BCBC08" d="M220.014 70.757c7.92 7.224 16.225 13.065 24.203 17.307 12.883-14.214 11.865-45.53 11.865-45.53l-2.55-2.327-6.178-5.634-2.55-2.325s-31.28 1.865-44.248 15.998c4.956 7.555 11.536 15.287 19.458 22.51z"/><path fill="#1296C4" d="M220.014 70.757c8.538 7.787 17.423 14.158 25.906 18.857 12.878-14.215 10.602-46.68 10.602-46.68l-2.748-2.508-6.66-6.074-2.75-2.506s-32.537.717-45.508 14.848c5.458 8.014 12.62 16.276 21.158 24.063z"/><path opacity=".1" d="M220.014 70.757c8.538 7.787 17.423 14.158 25.906 18.857 12.878-14.215 10.602-46.68 10.602-46.68l-2.748-2.508 1.016-.306-1.103-.31c1.208 4.736 1.893 54.892-33.673 30.947z"/><circle opacity=".1" cx="232.111" cy="57.492" r="11.557"/><circle fill="#464646" cx="233.662" cy="55.79" r="11.557"/><circle fill="#94E6FF" cx="233.663" cy="55.791" r="7.914"/><circle opacity=".1" cx="200.912" cy="91.704" r="15.325"/><circle fill="#464646" cx="202.464" cy="90.001" r="15.325"/><circle fill="#94E6FF" cx="202.464" cy="90.001" r="12.379"/><path opacity=".5" fill="#FFF" d="M196.11 84.57c3.7-4.058 9.988-4.346 14.046-.646.457.416.858.87 1.22 1.345a9.893 9.893 0 0 0-2.357-3.245c-4.058-3.7-10.346-3.41-14.046.646-3.283 3.6-3.418 8.954-.573 12.7a9.94 9.94 0 0 1 1.71-10.8zM230.057 53.16a6.808 6.808 0 0 1 9.618-.443c.312.284.587.595.835.922a6.81 6.81 0 0 0-11.23-1.78 6.808 6.808 0 0 0-.394 8.695 6.81 6.81 0 0 1 1.17-7.396z"/><circle opacity=".1" cx="182.865" cy="113.371" r="8.856"/><circle fill="#464646" cx="184.063" cy="112.059" r="8.856"/><circle fill="#94E6FF" cx="184.063" cy="112.059" r="6.041"/><path fill="#575756" d="M127.9 144.363l27.29 24.885-6.096 6.684-27.29-24.884z"/><path opacity=".2" fill="#FFF" d="M126.9 155.71l-2.588-2.362 6.097-6.682 2.587 2.36z"/><path opacity=".1" d="M149.042 175.882l-5.424-4.946 6.093-6.682 5.426 4.946zM161.156 149.537c5.312-5.722 6.47-13.284 2.59-16.892-3.88-3.606-11.335-1.895-16.646 3.823a20.687 20.687 0 0 0-2.706 3.653c-6.604 8.958-23.382 31.805-27.273 38.17-1.71 1.838-2.084 4.28-.837 5.453 1.256 1.16 3.662.604 5.376-1.243 0 0 30.6-24.714 37.753-31.302.034-.024.058-.06.083-.078a20.914 20.914 0 0 0 1.66-1.583z"/><path fill="#FF404A" d="M162.146 147.312c5.31-5.72 6.723-13.05 3.152-16.37-3.57-3.316-10.772-1.37-16.085 4.348a22.204 22.204 0 0 0-2.734 3.624c-6.68 8.89-23.648 31.558-27.626 37.843-1.71 1.84-2.166 4.208-1.02 5.285 1.156 1.068 3.48.435 5.195-1.41 0 0 30.27-25.02 37.38-31.65.034-.023.058-.057.084-.078.567-.5 1.123-1.024 1.652-1.592z"/><path opacity=".3" fill="#FFF" d="M163.722 133.185c-2.252-2.095-8.652-.307-13.176 4.56-.913.987-4.532 5.934-5.222 6.953-5.872 7.395-20.8 26.244-24.407 31.39-1.457 1.567-2.05 3.393-1.328 4.072.73.674.912-1.378 2.372-2.95 0 0 33.71-42.8 41.76-44.025z"/><path opacity=".5" fill="#FFF" d="M248.22 35.48l-2.2-2.01s-28.49.972-44.55 16.693c2.016 2.982 3.912 5.515 5.935 7.918 19.06-17.474 34.678-20.27 40.815-22.6zM180.805 109.773a4.66 4.66 0 0 1 6.58-.303c.214.195.403.407.572.632a4.658 4.658 0 0 0-7.685-1.217 4.654 4.654 0 0 0-.27 5.948 4.66 4.66 0 0 1 .803-5.06z"/><path opacity=".1" d="M200.23 48.787c-3.494 6.91 6.233 21.32 13.66 29.04 7.776 8.085 24.834 15.46 29.786 10.583-16.36-8.88-34.648-26.778-43.447-39.623z"/><path fill="#EF3A3A" d="M275.084 10.05c-.187-.178-.458-.43-.857-.794-7.772 8.52-26.462 24.15-26.462 24.15l2.844 2.69-.013.014.394.346.388.366.013-.015 2.94 2.586s13.845-20.048 21.616-28.57a47.68 47.68 0 0 0-.862-.773z"/><path opacity=".3" fill="#FFF" d="M275.084 10.05c-.187-.178-.458-.43-.857-.794-7.772 8.52-21.854 21.647-21.854 21.647l1.673 1.547s12.55-13.85 20.324-22.373c-.393-.36.908.143.714-.027z"/><path opacity=".1" d="M275.084 10.05c-.187-.178.863.46.464.098-7.772 8.522-22.668 27.544-22.668 27.544l-2.27-1.596-.013.015.394.347.388.366.013-.015 2.94 2.586s13.845-20.048 21.616-28.57c-.392-.36-.668-.604-.862-.774z"/><path fill="#FF5252" d="M257.03 42.517a1.067 1.067 0 0 1-1.51.07L244.8 32.81a1.068 1.068 0 0 1-.068-1.51l.18-.195a1.07 1.07 0 0 1 1.51-.07l10.718 9.776c.438.4.468 1.073.07 1.512l-.18.195z"/><path opacity=".2" d="M275.084 10.05c-.187-.178-.458-.43-.857-.794a98.405 98.405 0 0 1-3.453 3.567c.203.495.503.96.927 1.345.27.245.57.43.882.58a99.498 99.498 0 0 1 3.363-3.924c-.39-.36-.667-.604-.86-.774z"/><path fill="#FF5252" d="M257.886 39.504a.89.89 0 0 1-1.256.06l-8.92-8.134a.89.89 0 0 1-.058-1.256l.15-.165a.888.888 0 0 1 1.255-.06l8.92 8.136c.36.33.388.892.056 1.254l-.147.164zM259.077 36.94a.782.782 0 0 1-1.102.05l-7.828-7.14a.78.78 0 0 1-.05-1.1l.13-.146a.78.78 0 0 1 1.102-.05l7.827 7.137c.32.294.34.786.05 1.105l-.13.145z"/><ellipse transform="rotate(42.354 275.355 9.8)" fill="#EF3A3A" cx="275.366" cy="9.808" rx="3.702" ry="3.669"/><ellipse transform="rotate(60.818 275.513 7.796)" opacity=".5" fill="#FFF" cx="275.528" cy="7.801" rx="1.114" ry="1.313"/><ellipse transform="rotate(-137.8 163.278 104.317)" fill="#AAAA09" cx="163.273" cy="104.318" rx="4.843" ry="6.91"/><ellipse transform="rotate(-137.796 162.55 103.497)" fill="#C1B700" cx="162.558" cy="103.502" rx="4.059" ry="5.789"/><ellipse transform="rotate(-137.805 162.293 103.88)" opacity=".1" cx="162.302" cy="103.886" rx="2.025" ry="2.889"/><path fill="#FFD22D" d="M287.54 27.436c-2.075 5.253-6.255 9.5-11.55 11.803 5.294 2.296 9.475 6.544 11.55 11.795 2.075-5.25 6.254-9.5 11.55-11.796-5.296-2.303-9.475-6.552-11.55-11.804z"/><path fill="#FF7600" d="M287.54 33.293c-1.044 2.643-3.147 4.776-5.823 5.945 2.676 1.153 4.78 3.29 5.822 5.94 1.045-2.65 3.148-4.787 5.81-5.94-2.662-1.17-4.765-3.302-5.81-5.945z"/><path fill="#FFD22D" d="M99.928 34.79c-2.074 5.253-6.254 9.502-11.547 11.802 5.293 2.298 9.474 6.545 11.548 11.796 2.076-5.25 6.255-9.498 11.552-11.796-5.297-2.3-9.476-6.55-11.552-11.8z"/><path fill="#FF7600" d="M99.928 40.646c-1.043 2.645-3.146 4.776-5.822 5.945 2.676 1.154 4.78 3.294 5.822 5.94 1.045-2.646 3.15-4.786 5.812-5.94-2.662-1.167-4.766-3.3-5.812-5.944z"/><path fill="#FFD22D" d="M77.562 119.948c-1.265 3.203-3.812 5.793-7.038 7.194 3.226 1.4 5.773 3.99 7.038 7.19 1.266-3.2 3.813-5.79 7.042-7.19-3.23-1.4-5.776-3.99-7.042-7.194z"/><path fill="#FF7600" d="M77.562 123.52c-.636 1.61-1.918 2.91-3.55 3.623 1.632.704 2.914 2.01 3.55 3.62.637-1.61 1.92-2.916 3.543-3.62-1.623-.712-2.906-2.013-3.543-3.624z"/><path fill="#FFD22D" d="M268.896 167.28c-1.265 3.204-3.812 5.794-7.038 7.195 3.226 1.4 5.773 3.99 7.038 7.19 1.266-3.2 3.813-5.79 7.042-7.19-3.23-1.4-5.776-3.99-7.042-7.194z"/><path fill="#FF7600" d="M268.896 170.852c-.636 1.61-1.918 2.912-3.55 3.624 1.632.704 2.914 2.01 3.55 3.62.637-1.61 1.92-2.916 3.543-3.62-1.624-.712-2.907-2.013-3.544-3.624z"/><path fill="#FFD22D" d="M219.055 163.165c-1.265 3.203-3.812 5.793-7.038 7.194 3.226 1.4 5.773 3.99 7.038 7.19 1.266-3.2 3.813-5.79 7.042-7.19-3.23-1.402-5.777-3.992-7.042-7.195z"/><path fill="#FF7600" d="M219.055 166.735c-.636 1.61-1.918 2.912-3.55 3.624 1.632.703 2.914 2.008 3.55 3.62.637-1.612 1.92-2.917 3.543-3.62-1.623-.713-2.907-2.013-3.543-3.625z"/><path fill="#FFD22D" d="M311.93 156.455c-1.264 3.203-3.81 5.793-7.037 7.194 3.226 1.4 5.773 3.99 7.038 7.19 1.267-3.2 3.814-5.79 7.043-7.19-3.23-1.402-5.777-3.992-7.042-7.195z"/><path fill="#FF7600" d="M311.93 160.025c-.635 1.61-1.917 2.912-3.548 3.624 1.63.703 2.913 2.008 3.55 3.62.636-1.612 1.92-2.917 3.542-3.62-1.623-.712-2.907-2.013-3.543-3.625z"/><path fill="#FFD22D" d="M221 123.235c-2.103 5.328-6.342 9.636-11.71 11.97 5.37 2.33 9.607 6.64 11.71 11.965 2.106-5.325 6.345-9.634 11.717-11.964-5.372-2.335-9.61-6.643-11.716-11.97z"/><path fill="#FF7600" d="M221 129.175c-1.057 2.682-3.19 4.846-5.904 6.03 2.714 1.17 4.847 3.34 5.905 6.025 1.062-2.686 3.194-4.855 5.896-6.024-2.702-1.185-4.834-3.35-5.895-6.03z"/><path fill="#FFD22D" d="M373.93 58.295c-1.557 3.943-4.695 7.136-8.67 8.863 3.975 1.724 7.113 4.914 8.67 8.857 1.56-3.943 4.698-7.134 8.676-8.857-3.978-1.727-7.117-4.92-8.675-8.863z"/><path fill="#FF7600" d="M373.93 62.692c-.782 1.985-2.362 3.587-4.37 4.466 2.008.865 3.588 2.47 4.37 4.46.787-1.99 2.366-3.595 4.365-4.46-2-.88-3.578-2.48-4.364-4.466z"/><g><path fill="#FFD22D" d="M196.81 182.285c-1.916 4.853-5.778 8.78-10.67 10.907 4.892 2.12 8.755 6.047 10.67 10.9 1.92-4.854 5.782-8.78 10.676-10.9-4.894-2.126-8.757-6.054-10.675-10.907z"/><path fill="#FF7600" d="M196.81 187.696c-.962 2.443-2.907 4.414-5.38 5.496 2.473 1.064 4.418 3.04 5.38 5.488.968-2.448 2.912-4.424 5.372-5.488-2.46-1.082-4.404-3.052-5.37-5.496z"/></g><g><path fill="#FFD22D" d="M208.754 5.97c-1.006 2.547-3.033 4.607-5.6 5.723 2.566 1.115 4.594 3.176 5.6 5.723 1.007-2.547 3.034-4.607 5.604-5.723-2.57-1.116-4.597-3.176-5.604-5.724z"/><path fill="#FF7600" d="M208.754 8.81c-.505 1.282-1.526 2.316-2.824 2.883a5.263 5.263 0 0 1 2.824 2.883 5.277 5.277 0 0 1 2.82-2.883c-1.292-.567-2.312-1.6-2.82-2.884z"/></g><g><path fill="#FFD22D" d="M108.084 74.905c-2.892 7.325-8.72 13.25-16.102 16.455 7.38 3.206 13.21 9.13 16.102 16.453 2.895-7.322 8.724-13.247 16.11-16.453-7.386-3.206-13.215-9.13-16.11-16.455z"/><path fill="#FF7600" d="M108.084 83.07c-1.453 3.688-4.39 6.662-8.118 8.29 3.73 1.61 6.665 4.594 8.118 8.288 1.46-3.694 4.392-6.68 8.105-8.288-3.714-1.628-6.646-4.6-8.106-8.29z"/></g><g><path fill="#EBEBEB" d="M354.41 111.475c1.838 6.405-1.864 13.085-8.267 14.924-6.402 1.838-13.084-1.865-14.922-8.268-1.837-6.402 1.864-13.084 8.266-14.923 6.404-1.836 13.085 1.862 14.923 8.265z"/><path opacity=".2" d="M351.37 121.596c-6.403 1.837-13.085-1.863-14.923-8.266a12.018 12.018 0 0 1 1.186-9.404c-5.234 2.485-8.063 8.452-6.41 14.206 1.837 6.402 8.52 10.105 14.92 8.267a12.012 12.012 0 0 0 7.082-5.52c-.592.278-1.205.528-1.855.716z"/><ellipse opacity=".2" cx="345.196" cy="107.582" rx="1.905" ry="1.509"/><ellipse opacity=".2" cx="335.833" cy="113.851" rx="3.651" ry="2.891"/><ellipse opacity=".2" cx="349.799" cy="118.771" rx="1.428" ry="1.131"/><ellipse transform="rotate(17.408 340.225 123.56)" opacity=".2" cx="340.197" cy="123.533" rx="2.014" ry="1.365"/></g><path fill="#575756" d="M156.94 101.655l-1.817 2.593 5.663 1.247s2.395.02 2.783-1.44c.766-2.88-1.922-1.44-6.63-2.4z"/><circle fill="#00B5CE" cx="150.681" cy="16.449" r="16.051"/><path fill="#DADADA" d="M148.687 26.912c-21.342-7.638-37.06-18.263-35.1-23.733 1.958-5.468 20.846-3.708 42.186 3.934 21.344 7.64 37.057 18.266 35.1 23.734-1.96 5.467-20.848 3.71-42.186-3.936z"/><ellipse transform="rotate(109.694 152.23 17.015)" fill="#B4B5B5" cx="152.229" cy="17.015" rx="6.63" ry="36.603"/><path fill="#EDEDED" d="M151.596 20.18c-12.146-4.35-21.485-9.29-20.86-11.038.627-1.75 10.983.356 23.128 4.705 12.145 4.352 21.484 9.293 20.857 11.04-.623 1.75-10.98-.358-23.124-4.708z"/><path fill="#00B5CE" d="M136.46 8.997c-2.94 5.608-2.38 12.674 1.958 17.81 5.72 6.773 15.847 7.626 22.617 1.905a15.99 15.99 0 0 0 5.485-9.666c-8.773-6.188-20.994-9.574-30.06-10.05z"/><path opacity=".3" fill="#3C3C3B" d="M136.46 8.997c.658.035 1.34.09 2.03.154-1.22 4.845-.177 10.184 3.293 14.292 5.498 6.51 15.062 7.53 21.808 2.52-.73.99-1.574 1.92-2.556 2.75-6.77 5.72-16.898 4.867-22.617-1.907-4.338-5.134-4.896-12.2-1.957-17.808z"/><path opacity=".3" fill="#3C3C3B" d="M135.46 11.366c.27-.812.6-1.604 1-2.37 9.066.476 21.287 3.862 30.06 10.05a16.184 16.184 0 0 1-1.153 3.88c-10.734-8.58-22.864-10.948-29.907-11.56z"/><ellipse opacity=".3" fill="#3C3C3B" cx="152.39" cy="22.865" rx="3.686" ry="1.683"/><path opacity=".3" fill="#3C3C3B" d="M146.542 18.458c0 .62.825 1.12 1.842 1.12s1.844-.5 1.844-1.12c0-.622-.826-1.123-1.844-1.123s-1.842.5-1.842 1.123z"/></svg>