<svg xmlns="http://www.w3.org/2000/svg" width="358.961" height="292.571" viewBox="0 0 358.961 292.571"><path fill="#595959" d="M358.96 220.457c0 14.277-80.355 25.85-179.48 25.85C80.358 246.308 0 234.735 0 220.458s80.358-25.85 179.48-25.85c99.124-.002 179.48 11.572 179.48 25.85z"/><path fill="#62848C" d="M338.104 253.974v-70.19c0-5.1-4.13-9.238-9.232-9.238H41.23c-5.1 0-9.237 4.14-9.237 9.24v70.188h306.11z"/><path fill="#DADADA" d="M39.05 186.34h292.005v67.634H39.05z"/><path fill="#66A35D" d="M111.75 253.974v-92.438c0-.938-.746-1.692-1.688-1.692h-64.5c-.938 0-1.698.754-1.698 1.692v92.438h67.886z"/><path fill="#108200" d="M49.937 167.137h55.743v86.837H49.937z"/><path opacity=".2" d="M77.812 219.982c-12.525 0-22.692-6.94-22.692-15.498 0-8.57 10.167-15.518 22.692-15.518 12.512 0 22.67 6.947 22.67 15.518 0 8.56-10.158 15.498-22.67 15.498zM93.707 181.19c-3.77 0-6.838-2.094-6.838-4.674s3.066-4.684 6.837-4.684c3.783 0 6.845 2.104 6.845 4.684s-3.062 4.673-6.845 4.673zM61.956 181.19c-3.767 0-6.836-2.094-6.836-4.674s3.07-4.684 6.836-4.684c3.787 0 6.847 2.104 6.847 4.684s-3.06 4.673-6.847 4.673z"/><path fill="#66A35D" d="M183.426 253.974v-92.1a1.69 1.69 0 0 0-1.698-1.69h-64.5c-.93 0-1.694.753-1.694 1.69v92.1h67.892z"/><path fill="#108200" d="M121.61 167.477h55.735v86.497H121.61z"/><path opacity=".2" d="M149.478 220.32c-12.518 0-22.687-6.934-22.687-15.497 0-8.57 10.17-15.514 22.688-15.514 12.523 0 22.678 6.942 22.678 15.513 0 8.563-10.155 15.497-22.678 15.497zM165.385 181.526c-3.778 0-6.85-2.09-6.85-4.673 0-2.58 3.07-4.68 6.85-4.68 3.77 0 6.837 2.1 6.837 4.68 0 2.585-3.068 4.673-6.837 4.673zM133.627 181.526c-3.764 0-6.836-2.09-6.836-4.673 0-2.58 3.073-4.68 6.837-4.68 3.785 0 6.846 2.1 6.846 4.68 0 2.585-3.06 4.673-6.846 4.673z"/><path fill="#66A35D" d="M254.87 253.974v-92.438a1.69 1.69 0 0 0-1.698-1.692h-64.5c-.93 0-1.697.754-1.697 1.692v92.438h67.895z"/><path fill="#108200" d="M193.056 167.137h55.73v86.837h-55.73z"/><path opacity=".2" d="M220.922 219.982c-12.52 0-22.688-6.94-22.688-15.498 0-8.57 10.167-15.518 22.688-15.518 12.523 0 22.682 6.947 22.682 15.518 0 8.56-10.16 15.498-22.682 15.498zM236.82 181.19c-3.774 0-6.844-2.094-6.844-4.674s3.07-4.684 6.844-4.684c3.778 0 6.842 2.104 6.842 4.684s-3.063 4.673-6.842 4.673zM205.076 181.19c-3.774 0-6.842-2.094-6.842-4.674s3.067-4.684 6.842-4.684c3.784 0 6.848 2.104 6.848 4.684s-3.064 4.673-6.848 4.673z"/><path fill="#66A35D" d="M326.536 253.974v-92.1c0-.938-.755-1.69-1.696-1.69h-64.498c-.934 0-1.7.753-1.7 1.69v92.1h67.894z"/><path fill="#108200" d="M264.724 167.477h55.734v86.497h-55.734z"/><path opacity=".2" d="M292.59 220.32c-12.52 0-22.683-6.934-22.683-15.497 0-8.57 10.163-15.514 22.682-15.514 12.524 0 22.686 6.942 22.686 15.513 0 8.563-10.162 15.497-22.687 15.497zM308.494 181.526c-3.77 0-6.84-2.09-6.84-4.673 0-2.58 3.07-4.68 6.84-4.68s6.84 2.1 6.84 4.68c0 2.585-3.07 4.673-6.84 4.673zM276.745 181.526c-3.77 0-6.838-2.09-6.838-4.673 0-2.58 3.068-4.68 6.838-4.68 3.783 0 6.846 2.1 6.846 4.68 0 2.585-3.062 4.673-6.845 4.673z"/><path fill="#E0F4FB" d="M339.612 190.718c0 5.098-4.165 9.235-9.307 9.235H39.795c-5.144 0-9.3-4.137-9.3-9.235V75.144c0-5.094 4.156-9.23 9.3-9.23h290.51c5.143 0 9.308 4.136 9.308 9.23v115.574z"/><path opacity=".2" d="M39.05 193.794h292.005V228.9H39.05z"/><path opacity=".2" d="M39.05 180.183h292.005v27.224H39.05z"/><path fill="#575756" d="M140.4 89.127a6.693 6.693 0 0 1-6.688 6.69H67.207a6.69 6.69 0 0 1 0-13.38h66.504a6.696 6.696 0 0 1 6.69 6.69z"/><path fill="#62848C" d="M30.496 120.452v73.342c0 5.1 4.155 9.235 9.298 9.235h290.512c5.142 0 9.307-4.137 9.307-9.236v-73.342H30.496z"/><path fill="#AACED6" d="M30.496 117.375v73.344c0 5.097 4.155 9.234 9.298 9.234h290.512c5.142 0 9.307-4.137 9.307-9.235v-73.345H30.496z"/><path fill="#6F959B" d="M277.022 138.808c0 4.47-3.638 8.1-8.105 8.1a8.104 8.104 0 0 1 0-16.207c4.468 0 8.105 3.634 8.105 8.108zM303.02 138.808a8.103 8.103 0 1 1-16.208-.006 8.103 8.103 0 0 1 16.21.006zM328.518 138.808c0 4.47-3.634 8.1-8.104 8.1a8.103 8.103 0 0 1-8.104-8.1c0-4.474 3.627-8.107 8.104-8.107 4.47 0 8.104 3.634 8.104 8.108z"/><g fill="#6F959B"><path d="M277.022 161.252c0 4.48-3.638 8.104-8.105 8.104a8.102 8.102 0 0 1 0-16.204c4.468 0 8.105 3.63 8.105 8.1zM303.02 161.252a8.105 8.105 0 0 1-8.103 8.104 8.102 8.102 0 0 1 0-16.204c4.47 0 8.104 3.63 8.104 8.1zM328.518 161.252a8.106 8.106 0 0 1-8.104 8.104 8.102 8.102 0 0 1 0-16.204c4.47 0 8.104 3.63 8.104 8.1zM277.022 183.417c0 4.476-3.638 8.102-8.105 8.102a8.102 8.102 0 0 1-8.102-8.103 8.1 8.1 0 0 1 8.102-8.104c4.468 0 8.105 3.62 8.105 8.104zM303.02 183.417c0 4.476-3.632 8.102-8.103 8.102a8.1 8.1 0 0 1-8.103-8.103 8.098 8.098 0 0 1 8.103-8.104c4.47 0 8.104 3.62 8.104 8.104zM328.518 183.417c0 4.476-3.634 8.102-8.104 8.102a8.1 8.1 0 0 1-8.104-8.103 8.1 8.1 0 0 1 8.104-8.104c4.47 0 8.104 3.62 8.104 8.104z"/></g><path fill="#04BF8A" d="M277.022 136.933c0 4.47-3.638 8.1-8.105 8.1a8.104 8.104 0 0 1 0-16.207c4.468 0 8.105 3.632 8.105 8.107z"/><path opacity=".2" d="M127.528 65.596l14.933.317-10 27.545zM253.34 65.596l14.93.317-10 27.545z"/><path fill="#1985CE" d="M303.02 136.933a8.103 8.103 0 1 1-16.208-.006 8.103 8.103 0 0 1 16.21.006z"/><path fill="#FF5252" d="M328.518 136.933c0 4.47-3.634 8.1-8.104 8.1a8.103 8.103 0 0 1-8.104-8.1 8.106 8.106 0 0 1 8.104-8.107c4.47 0 8.104 3.632 8.104 8.107z"/><path opacity=".1" d="M339.612 79.363v-4.22c0-5.093-4.165-9.23-9.307-9.23H39.795c-5.144 0-9.3 4.137-9.3 9.23v4.22h309.117z"/><g fill="#EFEFEF"><path d="M277.022 159.377c0 4.48-3.638 8.104-8.105 8.104a8.102 8.102 0 0 1 0-16.204c4.468.002 8.105 3.63 8.105 8.1zM303.02 159.377a8.105 8.105 0 0 1-8.103 8.104 8.102 8.102 0 0 1 0-16.204c4.47.002 8.104 3.63 8.104 8.1zM328.518 159.377a8.106 8.106 0 0 1-8.104 8.104 8.102 8.102 0 0 1 0-16.204c4.47.002 8.104 3.63 8.104 8.1zM277.022 181.542c0 4.476-3.638 8.102-8.105 8.102a8.102 8.102 0 0 1-8.102-8.102 8.1 8.1 0 0 1 8.102-8.104c4.468 0 8.105 3.62 8.105 8.104zM303.02 181.542c0 4.476-3.632 8.102-8.103 8.102a8.1 8.1 0 0 1-8.103-8.102 8.098 8.098 0 0 1 8.103-8.104c4.47 0 8.104 3.62 8.104 8.104zM328.518 181.542c0 4.476-3.634 8.102-8.104 8.102a8.1 8.1 0 0 1-8.104-8.102 8.1 8.1 0 0 1 8.104-8.104c4.47 0 8.104 3.62 8.104 8.104z"/></g><path fill="#FFE4C0" d="M67.207 6.88h65.254v88.94H67.208z"/><path opacity=".05" d="M132.46 6.88L67.208 95.82h65.254z"/><path opacity=".2" d="M67.207 91.104h65.254v4.715H67.208z"/><g fill="#FFE4C0"><path d="M67.207 7.624L72.613 0l5.42 7.624zM78.034 7.624L83.44 0l5.418 7.624zM88.858 7.624L94.27 0l5.418 7.624zM99.688 7.624L105.1 0l5.42 7.624zM110.52 7.624L115.93 0l5.418 7.624z"/><path d="M121.348 7.624L126.76 0l5.41 7.624z"/></g><g opacity=".2"><path d="M125.21 82.74c0 1.113-.907 2.02-2.015 2.02h-46.73a2.024 2.024 0 0 1-2.017-2.02c0-1.112.91-2.02 2.018-2.02h46.73c1.107 0 2.015.907 2.015 2.02zM125.21 73.505c0 1.12-.907 2.027-2.015 2.027h-46.73a2.022 2.022 0 0 1 0-4.043h46.73c1.108 0 2.016.905 2.016 2.015zM125.21 64.28c0 1.115-.907 2.02-2.015 2.02h-46.73a2.024 2.024 0 0 1-2.017-2.02c0-1.116.91-2.02 2.018-2.02h46.73a2.02 2.02 0 0 1 2.015 2.02zM125.21 55.052a2.02 2.02 0 0 1-2.015 2.016h-46.73a2.023 2.023 0 0 1-2.017-2.016c0-1.115.91-2.02 2.018-2.02h46.73c1.107 0 2.015.905 2.015 2.02zM125.21 45.82a2.023 2.023 0 0 1-2.015 2.023h-46.73a2.025 2.025 0 0 1-2.017-2.023c0-1.11.91-2.018 2.018-2.018h46.73c1.107 0 2.015.906 2.015 2.018zM125.21 36.59a2.025 2.025 0 0 1-2.015 2.022h-46.73a2.027 2.027 0 0 1-2.017-2.022c0-1.11.91-2.02 2.018-2.02h46.73c1.107 0 2.015.91 2.015 2.02zM125.21 27.36a2.022 2.022 0 0 1-2.015 2.02h-46.73a2.024 2.024 0 0 1-2.017-2.02c0-1.112.91-2.018 2.018-2.018h46.73c1.107 0 2.015.906 2.015 2.02zM125.21 18.13a2.02 2.02 0 0 1-2.015 2.02h-46.73a2.023 2.023 0 0 1-2.017-2.02 2.02 2.02 0 0 1 2.018-2.014h46.73a2.02 2.02 0 0 1 2.015 2.013z"/></g><path fill="#AACED6" d="M238.823 59.765h19.77v33.693h-19.77z"/><path fill="#62848C" d="M238.823 59.765h19.77v9.415h-19.77z"/><g><path fill="#85B3BA" d="M241.117 151.49a3.78 3.78 0 0 1-3.794 3.785H223.67a3.783 3.783 0 0 1-3.79-3.784v-13.666a3.79 3.79 0 0 1 3.79-3.782h13.653c2.105 0 3.794 1.7 3.794 3.782v13.667zM207.413 151.49a3.774 3.774 0 0 1-3.778 3.785h-13.67a3.78 3.78 0 0 1-3.786-3.784v-13.666a3.787 3.787 0 0 1 3.784-3.782h13.67a3.78 3.78 0 0 1 3.78 3.782v13.667zM173.717 151.49a3.782 3.782 0 0 1-3.79 3.785H156.28a3.778 3.778 0 0 1-3.79-3.784v-13.666a3.784 3.784 0 0 1 3.79-3.782h13.648c2.094 0 3.79 1.7 3.79 3.782v13.667zM140.018 151.49a3.78 3.78 0 0 1-3.787 3.785h-13.653a3.78 3.78 0 0 1-3.79-3.784v-13.666a3.786 3.786 0 0 1 3.79-3.782h13.654c2.096 0 3.788 1.7 3.788 3.782v13.667zM106.322 151.49a3.79 3.79 0 0 1-3.79 3.785H88.866a3.775 3.775 0 0 1-3.78-3.784v-13.666a3.782 3.782 0 0 1 3.78-3.782h13.664c2.087 0 3.792 1.7 3.792 3.782v13.667zM72.623 151.49a3.79 3.79 0 0 1-3.788 3.785H55.162a3.773 3.773 0 0 1-3.774-3.784v-13.666a3.78 3.78 0 0 1 3.774-3.782h13.673c2.082 0 3.788 1.7 3.788 3.782v13.667zM241.117 180.09a3.783 3.783 0 0 1-3.794 3.782H223.67a3.787 3.787 0 0 1-3.79-3.783v-13.666a3.783 3.783 0 0 1 3.79-3.78h13.653a3.78 3.78 0 0 1 3.794 3.78v13.665zM207.413 180.09a3.778 3.778 0 0 1-3.778 3.782h-13.67a3.785 3.785 0 0 1-3.786-3.783v-13.666a3.78 3.78 0 0 1 3.784-3.78h13.67a3.773 3.773 0 0 1 3.78 3.78v13.665zM173.717 180.09a3.786 3.786 0 0 1-3.79 3.782H156.28a3.78 3.78 0 0 1-3.79-3.783v-13.666a3.777 3.777 0 0 1 3.79-3.78h13.648c2.094 0 3.79 1.688 3.79 3.78v13.665zM140.018 180.09a3.784 3.784 0 0 1-3.787 3.782h-13.653c-2.1 0-3.79-1.695-3.79-3.783v-13.666a3.78 3.78 0 0 1 3.79-3.78h13.654a3.78 3.78 0 0 1 3.788 3.78v13.665zM106.322 180.09a3.793 3.793 0 0 1-3.79 3.782H88.866a3.78 3.78 0 0 1-3.78-3.783v-13.666a3.775 3.775 0 0 1 3.78-3.78h13.664a3.79 3.79 0 0 1 3.792 3.78v13.665zM72.623 180.09a3.793 3.793 0 0 1-3.788 3.782H55.162a3.777 3.777 0 0 1-3.774-3.783v-13.666a3.773 3.773 0 0 1 3.774-3.78h13.673a3.79 3.79 0 0 1 3.788 3.78v13.665z"/><path fill="#85B3BA" d="M241.117 179.494a3.784 3.784 0 0 1-3.794 3.785H223.67a3.79 3.79 0 0 1-3.79-3.786V196.3a3.783 3.783 0 0 1 3.79-3.784h13.653a3.78 3.78 0 0 1 3.794 3.784v-16.806zM207.413 179.494a3.78 3.78 0 0 1-3.778 3.785h-13.67a3.787 3.787 0 0 1-3.786-3.786V196.3a3.78 3.78 0 0 1 3.784-3.784h13.67a3.774 3.774 0 0 1 3.78 3.784v-16.806zM173.717 179.494a3.788 3.788 0 0 1-3.79 3.785H156.28a3.783 3.783 0 0 1-3.79-3.786V196.3a3.778 3.778 0 0 1 3.79-3.784h13.648c2.094 0 3.79 1.69 3.79 3.784v-16.806zM140.018 179.494a3.785 3.785 0 0 1-3.787 3.785h-13.653c-2.1 0-3.79-1.698-3.79-3.786V196.3a3.78 3.78 0 0 1 3.79-3.784h13.654a3.78 3.78 0 0 1 3.788 3.784v-16.806zM106.322 179.494a3.794 3.794 0 0 1-3.79 3.785H88.866a3.78 3.78 0 0 1-3.78-3.786V196.3a3.776 3.776 0 0 1 3.78-3.784h13.664a3.79 3.79 0 0 1 3.792 3.784v-16.806zM72.623 179.494a3.794 3.794 0 0 1-3.788 3.785H55.162a3.78 3.78 0 0 1-3.774-3.786V196.3a3.774 3.774 0 0 1 3.774-3.784h13.673a3.79 3.79 0 0 1 3.788 3.784v-16.806z"/></g><path fill="#E0F4FB" d="M319.282 7.845c1.7 0 3.076 1.378 3.076 3.077V52.07a3.08 3.08 0 0 1-3.076 3.078H179.764a3.08 3.08 0 0 1-3.076-3.078V10.922c0-1.7 1.377-3.077 3.076-3.077h139.518m0-4.613H179.764c-4.24 0-7.69 3.45-7.69 7.69V52.07c0 4.242 3.45 7.695 7.69 7.695h139.52c4.233 0 7.687-3.453 7.687-7.695V10.922c0-4.24-3.453-7.69-7.688-7.69z"/><path fill="#3C3C3B" d="M324.708 55.81a3.177 3.177 0 0 1-3.177 3.176H177.51a3.174 3.174 0 0 1-3.174-3.176V13.34c0-1.756 1.42-3.18 3.174-3.18H321.53a3.178 3.178 0 0 1 3.178 3.18v42.47z"/><path fill="#85B3BA" d="M319.282 10.922c1.7 0 3.076 1.38 3.076 3.076v41.15a3.075 3.075 0 0 1-3.076 3.07H179.764a3.075 3.075 0 0 1-3.076-3.07v-41.15a3.078 3.078 0 0 1 3.076-3.075h139.518m0-4.614H179.764c-4.24 0-7.69 3.448-7.69 7.688v41.15c0 4.24 3.45 7.687 7.69 7.687h139.52c4.233 0 7.687-3.448 7.687-7.688V14c0-4.242-3.453-7.69-7.688-7.69z"/><g fill="#108200"><path d="M212.327 49.722v-22.83h-3.25v-3.29l6.502-3.25h3.286v29.37h-6.54zM241.383 20.352h6.534c1.775 0 3.312.648 4.58 1.935 1.28 1.294 1.92 2.83 1.92 4.606v16.29c0 1.773-.64 3.31-1.92 4.603-1.268 1.29-2.805 1.937-4.58 1.937h-6.534c-1.772 0-3.314-.643-4.6-1.923-1.287-1.277-1.94-2.82-1.94-4.616v-16.29c0-1.8.653-3.344 1.94-4.617 1.285-1.282 2.827-1.925 4.6-1.925zm6.502 5.95c-.476-1.797-1.56-2.7-3.254-2.7-.883 0-1.647.32-2.294.96-.633.64-.953 1.416-.953 2.33v11.084l6.502-11.673zm-6.423 17.425c.155.892.495 1.57 1.04 2.035.533.476 1.245.71 2.13.71.91 0 1.69-.327 2.333-.978.634-.655.952-1.424.952-2.312V32.105l-6.455 11.622zM270.438 20.352h6.53c1.777 0 3.312.648 4.587 1.935 1.278 1.294 1.92 2.83 1.92 4.606v16.29c0 1.773-.642 3.31-1.92 4.603-1.275 1.29-2.81 1.937-4.586 1.937h-6.532c-1.78 0-3.32-.643-4.61-1.923-1.285-1.277-1.928-2.82-1.928-4.616v-16.29c0-1.8.643-3.344 1.928-4.617 1.29-1.282 2.83-1.925 4.61-1.925zm6.498 5.95c-.474-1.797-1.56-2.7-3.245-2.7-.89 0-1.662.32-2.295.96-.64.64-.956 1.416-.956 2.33v11.084l6.496-11.673zm-6.423 17.425c.156.892.505 1.57 1.035 2.035.54.476 1.25.71 2.143.71.907 0 1.685-.327 2.32-.978.642-.655.96-1.424.96-2.312V32.105l-6.457 11.622zM299.487 20.352h6.536c1.775 0 3.302.648 4.586 1.935 1.277 1.294 1.918 2.83 1.918 4.606v16.29c0 1.773-.64 3.31-1.92 4.603-1.283 1.29-2.81 1.937-4.585 1.937h-6.536c-1.77 0-3.31-.643-4.6-1.923-1.294-1.277-1.935-2.82-1.935-4.616v-16.29c0-1.8.64-3.344 1.936-4.617 1.29-1.282 2.83-1.925 4.6-1.925zm6.492 5.95c-.467-1.797-1.548-2.7-3.243-2.7-.885 0-1.648.32-2.29.96-.643.64-.96 1.416-.96 2.33v11.084l6.492-11.673zm-6.42 17.425c.167.892.504 1.57 1.045 2.035.535.476 1.248.71 2.133.71.913 0 1.69-.327 2.327-.978.643-.655.96-1.424.96-2.312V32.105l-6.464 11.622z"/></g><path fill="#AACED6" d="M258.594 92.925c0 1.4-4.424 2.537-9.883 2.537-5.462 0-9.887-1.137-9.887-2.537 0-1.403 4.425-2.543 9.888-2.543 5.46 0 9.884 1.14 9.884 2.543zM43.864 125.845h204.923V196.3H43.864z"/><path fill="#F3F3F3" d="M179.48 246.307C80.357 246.307 0 234.734 0 220.457v72.114h358.96v-72.113c0 14.277-80.356 25.85-179.48 25.85z"/><g fill="#6F959B"><path d="M141.267 152.755a6.43 6.43 0 0 1-6.432 6.432H51.49a6.433 6.433 0 0 1-6.434-6.432V137.83c0-3.55 2.88-6.43 6.433-6.43h83.345a6.43 6.43 0 0 1 6.432 6.43v14.925zM141.267 187.455a6.43 6.43 0 0 1-6.432 6.43H51.49a6.432 6.432 0 0 1-6.434-6.43v-14.927c0-3.55 2.88-6.43 6.433-6.43h83.345a6.43 6.43 0 0 1 6.432 6.43v14.927zM243.535 152.755a6.432 6.432 0 0 1-6.433 6.432h-83.347c-3.55 0-6.43-2.88-6.43-6.432V137.83a6.43 6.43 0 0 1 6.43-6.43h83.347a6.43 6.43 0 0 1 6.433 6.43v14.925zM243.535 187.455a6.43 6.43 0 0 1-6.433 6.43h-83.347a6.43 6.43 0 0 1-6.43-6.43v-14.927a6.43 6.43 0 0 1 6.43-6.43h83.347a6.43 6.43 0 0 1 6.433 6.43v14.927z"/></g><path fill="#EFEFEF" d="M141.267 150.296a6.43 6.43 0 0 1-6.432 6.43H51.49a6.433 6.433 0 0 1-6.434-6.43V135.37c0-3.55 2.88-6.43 6.433-6.43h83.345a6.43 6.43 0 0 1 6.432 6.43v14.926zM141.267 184.995a6.43 6.43 0 0 1-6.432 6.43H51.49a6.432 6.432 0 0 1-6.434-6.43V170.07c0-3.552 2.88-6.43 6.433-6.43h83.345a6.43 6.43 0 0 1 6.432 6.43v14.925zM243.535 150.296a6.43 6.43 0 0 1-6.433 6.43h-83.347c-3.55 0-6.43-2.88-6.43-6.43V135.37c0-3.55 2.88-6.43 6.43-6.43h83.347a6.43 6.43 0 0 1 6.433 6.43v14.926zM243.535 184.995a6.43 6.43 0 0 1-6.433 6.43h-83.347a6.43 6.43 0 0 1-6.43-6.43V170.07a6.43 6.43 0 0 1 6.43-6.43h83.347a6.43 6.43 0 0 1 6.433 6.43v14.925z"/><g><path fill-rule="evenodd" clip-rule="evenodd" fill="#107DB0" d="M221.09 171.838c-2.017 0-3.61.535-4.83.78l-.376 3.062c.61-.29 2.532-.826 4.128-.875 1.594-.05 2.532.29 2.204 1.653-4.737 0-7.928.974-8.583 4.038-.938 5.255 4.83 5.11 7.13 2.823l-.282 1.263h4.22l1.83-8.367c.75-3.55-2.486-4.426-5.44-4.378zm.28 8.563c-.233 1.12-1.124 1.606-2.203 1.655-.937.048-1.782-.778-1.172-1.752.47-.827 1.782-1.02 2.58-1.02h1.03c-.093.387-.14.73-.235 1.118zM230.14 168.53l-3.49 16.054h4.287l3.536-16.055h-4.332zM210.443 168.578h-7.85l-3.48 16.006h4.56l1.176-5.303h3.242c3.196 0 5.83-1.944 6.534-5.254.8-3.745-1.927-5.448-4.183-5.448zm-.14 5.448c-.283 1.217-1.505 2.19-2.682 2.19h-2.113l.94-4.378h2.256c1.176 0 1.88.973 1.6 2.188z"/><path fill-rule="evenodd" clip-rule="evenodd" fill="#1B557D" d="M179.98 171.838c-1.99 0-3.568.535-4.727.78l-.37 3.062c.558-.29 2.456-.826 4.03-.875 1.576-.05 2.503.29 2.225 1.653-4.68 0-7.83.974-8.48 4.038-.926 5.255 4.772 5.11 6.996 2.823l-.277 1.263h4.217l1.807-8.367c.743-3.55-2.502-4.426-5.42-4.378zm.325 8.563c-.23 1.12-1.16 1.606-2.223 1.655-.927.048-1.716-.778-1.113-1.752.462-.827 1.76-1.02 2.502-1.02h1.064c-.092.387-.184.73-.23 1.118zM187.24 172.068h4.214l.68 7.454 4.125-7.454h4.35l-10.02 17.84h-4.71l3.08-5.245-1.72-12.595zM169.495 168.578h-7.87l-3.487 16.006h4.62l1.13-5.303h3.3c3.155 0 5.796-1.944 6.5-5.254.802-3.745-1.883-5.448-4.193-5.448zm-.14 5.448c-.283 1.217-1.462 2.19-2.64 2.19h-2.168l.99-4.378h2.262c1.13 0 1.883.973 1.554 2.188z"/><path fill="#1B557D" d="M235.398 170.604v-1.893h-.707v-.252h1.703v.253h-.71v1.894h-.285zM236.674 170.604v-2.146h.426l.51 1.52c.047.14.08.247.103.316.023-.077.063-.192.113-.344l.516-1.492h.382v2.146h-.272v-1.797l-.627 1.797h-.255l-.62-1.827v1.827h-.276z"/></g><g><path fill="#006EB6" d="M120.756 135.95h-1.503c-.286 0-.32.108-.33.33v10.487c0 .29.125.333.344.348h1.476c.203 0 .345-.042.345-.348V136.28c0-.283-.1-.33-.332-.33zm-20.65 0H98.6c-.283 0-.314.108-.327.33v10.487c0 .29.125.333.345.348h1.473c.207 0 .35-.042.35-.348V136.28c-.002-.283-.095-.33-.334-.33zm-4.81 13.94c-.948-.256-2.91-.938-3.432-2.725 2.83-1.06 3.51-3.797 3.51-5.678 0-3.418-2.026-5.796-5.016-5.796-2.753 0-5.062 2-5.062 5.92 0 2.566 1.187 5.207 4.32 5.714 1.295 3.05 5.442 3.53 5.758 3.53.444 0 .552-.287.552-.462 0-.346-.236-.41-.63-.502zm-4.968-3.83c-.206 0-1.313 0-2.105-1.313-.568-.967-.698-2.28-.698-3.26 0-1.06.146-2.323.698-3.21.54-.84 1.36-1.253 2.123-1.253.36 0 1.33.095 2.04 1.202.665 1.03.76 2.438.76 3.198.016.93-.08 2.26-.62 3.227-.566.995-1.423 1.41-2.198 1.41zm25.617-10.11h-1.075c-.22 0-.302.06-.364.316l-1.836 7.245-2.248-7.2c-.096-.3-.11-.33-.22-.36h-.602c-.173 0-.206.09-.284.316l-2.212 7.245-1.824-7.216c-.078-.334-.145-.346-.41-.346h-1.487c-.158 0-.304.048-.304.237 0 .06 0 .08.048.25l2.96 10.382c.08.254.163.297.446.297.235 0 .662 0 .71-.015.154-.013.188-.062.268-.297l2.12-6.745 2.262 6.76c.08.238.13.28.284.296h.78c.22 0 .266-.058.346-.31l2.916-10.368c.028-.156.044-.222.044-.284 0-.203-.142-.203-.32-.203z"/><path fill="#F29100" d="M77.583 148.37c-.226-.085-.246.18-.19.355.127.407.298.718.423.78.12.072.263-.095.17-.502-.04-.176-.173-.545-.403-.634zm-1.785.753l-.01-.006a.048.048 0 0 1-.018-.004c-.008-.003-.014-.007-.02-.008-.006 0-.012 0-.014-.002a.557.557 0 0 0-.437.062c-.266.182-.307.593-.09.92a.85.85 0 0 0 .4.31c.003 0 .01.004.014.004.007.003.014.003.02.005.007 0 .01.003.014.005.013.002.02.007.033.007.144.03.285.008.404-.072.27-.182.31-.59.09-.917a.79.79 0 0 0-.386-.305zm6.337 6.437c-.65-1.325-1.808-2.298-3.06-3.044-.434-.26-.924-.442-1.35-.582-.983-.32-1.935-.392-3.044-.582-.9-.154-1.612-.525-2.377-1.044-.396-.27-.722-.645-.994-1.04-.052-.08-.305-.39-.28-.495 0 0-.177.71.174 1.704-3.225-.144-6.052-1.933-7.347-4.1-2.384-3.99-1.543-8.824 1.635-10.958 3.177-2.138 8.02-.63 10.615 3.224 1.628 2.42 2.044 5.234 1.347 7.523-.005.018-.012.035-.018.052-1.378-1.003-2.637-.492-2.637-.492 1.38-.142 2.473.957 2.473.957.16.143.314.3.454.476.03.044.064.087.096.134.36.49.587 1.036.683 1.59 2.742-3.478 3.195-8.296.77-12.037-3.09-4.77-9.682-5.986-14.715-2.724-5.035 3.267-6.61 9.775-3.52 14.543 2.54 3.924 8.498 5.12 11.914 4.04 1.29-.407 5.712-.794 8.79 2.842 0 0 .266.304.41.65 0 0 .043.12.157.062.03-.014.117-.113-.175-.7z"/></g><g><g fill="#0071CE"><path d="M178.115 146.293l-.017.018a.714.714 0 0 1-.266.09c-.15.027-.354.04-.568.04h-3.494v-1.996h3.004c.282 0 .544.022.734.073.198.05.312.117.392.193.102.102.193.217.254.352.065.135.107.287.107.504 0 .398-.08.606-.145.727zm-.71-7.834h-3.936c-.128 0-.25.005-.386.02a1.554 1.554 0 0 0-.65.206c-.19.11-.368.305-.465.493-.15.288-.166.506-.182.694-.015.19-.013.367-.013.578v5.986c.002.25-.002.45.022.687.02.174.052.392.205.65.11.188.306.368.492.466.29.147.51.163.698.182.188.012.365.01.576.01h3.494c.372 0 .806-.017 1.276-.154.232-.07.48-.177.712-.343a2.05 2.05 0 0 0 .607-.675c.242-.438.4-1.01.397-1.694a3.14 3.14 0 0 0-.81-2.12c.19-.21.37-.463.512-.764.184-.385.298-.85.296-1.358.004-.684-.153-1.257-.396-1.693a2.077 2.077 0 0 0-.607-.676 2.646 2.646 0 0 0-1.058-.423 4.648 4.648 0 0 0-.786-.07zm-.138 1.993c.283-.002.553.024.7.072.073.02.115.045.132.058s.01.008.016.018c.066.12.146.328.148.727 0 .22-.042.372-.106.506-.063.134-.152.25-.254.35-.08.08-.194.145-.392.195-.19.05-.45.073-.735.072h-3.004v-1.996h3.494zM168.07 146.22c-.018.04-.035.07-.138.126a1.03 1.03 0 0 1-.445.093h-2.87c-.177 0-.35-.043-.447-.094-.1-.056-.118-.086-.135-.125-.188-.467-.414-1.326-.414-2.773s.227-2.308.415-2.774c.018-.04.035-.07.135-.126.098-.05.27-.094.447-.093h2.87c.177 0 .348.042.445.093.103.056.12.086.137.126.188.466.413 1.326.413 2.774s-.224 2.307-.414 2.774zm-.495-7.76h-3.045a2.96 2.96 0 0 0-1.267.31c-.438.22-.86.61-1.078 1.154-.3.746-.56 1.868-.56 3.522 0 1.653.26 2.775.56 3.522.218.543.64.933 1.078 1.154.442.223.904.31 1.355.312h2.87c.45 0 .913-.088 1.354-.312.438-.22.86-.61 1.077-1.154.3-.747.56-1.87.56-3.522 0-1.653-.26-2.776-.56-3.522a2.255 2.255 0 0 0-1.077-1.155 2.99 2.99 0 0 0-1.268-.31zM187.9 146.22c-.02.04-.036.07-.137.126-.1.05-.27.094-.448.093h-2.866c-.18 0-.35-.043-.447-.094-.104-.056-.12-.086-.14-.125-.187-.466-.414-1.326-.414-2.774s.226-2.308.414-2.774c.018-.04.034-.07.14-.125.096-.052.266-.095.442-.094h2.87c.176 0 .35.042.447.094.1.056.118.086.137.126.19.467.414 1.326.414 2.774s-.224 2.307-.414 2.774zm-.495-7.76h-3.045c-.425.01-.855.1-1.27.31-.437.22-.86.61-1.077 1.154-.3.746-.558 1.868-.558 3.522 0 1.653.257 2.775.558 3.522.218.543.64.933 1.078 1.154.443.223.908.31 1.358.312h2.866a2.98 2.98 0 0 0 1.356-.312c.436-.22.86-.61 1.078-1.154.3-.747.56-1.87.56-3.522 0-1.653-.26-2.776-.56-3.52a2.248 2.248 0 0 0-1.078-1.155c-.41-.208-.842-.3-1.265-.31zM154.144 140.453h3.626c.218 0 .428.038.55.09.13.06.152.094.175.134.127.252.26.643.263 1.27-.003.503-.103.808-.223 1.02-.178.307-.438.477-.765.596-.32.115-.68.14-.842.138h-.091l-.033-.003h-2.66v-3.244zm3.716-1.994h-4.03a4.474 4.474 0 0 0-.374.02 1.527 1.527 0 0 0-.65.207c-.19.11-.37.306-.468.492-.146.288-.162.508-.18.696-.01.18-.01.35-.01.548v8.01h1.993v-2.743h2.59c.042.002.108.005.194.005h.058l1.42 2.74h2.248l-1.675-3.23c.034-.02.07-.037.104-.058a3.236 3.236 0 0 0 1.187-1.19c.313-.547.487-1.226.485-2.007 0-.922-.21-1.652-.48-2.183-.27-.53-.73-.878-1.18-1.063a3.394 3.394 0 0 0-1.232-.245z"/></g><path fill="#EB0029" d="M236.248 143.863h-4.766v-.206c0-1.554.424-2.433.75-2.913a.563.563 0 0 1 .27-.195c.144-.06.35-.096.565-.094h1.604c.218 0 .42.035.564.094.146.06.223.122.272.196.322.478.74 1.346.742 2.888v.23zm1.98 3.775v-4.472c-.08-1.66-.583-2.824-1.08-3.542a2.557 2.557 0 0 0-1.183-.923 3.476 3.476 0 0 0-1.105-.226c0-.003-.004-.005-.008-.005h-1.966c-.007 0-.013 0-.013.004-.36.018-.73.08-1.1.227a2.53 2.53 0 0 0-1.178.92c-.545.79-1.102 2.11-1.098 4.038v3.843c0 .496.398.9.895.9h.196a.896.896 0 0 0 .894-.9v-1.648h4.768v1.655c0 .493.402.893.894.893h.2c.446 0 .817-.33.883-.762zm-31.37-9.17H204.888c-.005 0-.014 0-.014.006-.36.018-.73.08-1.1.227-.432.17-.87.468-1.18.92-.545.79-1.1 2.11-1.097 4.038v3.843c0 .496.398.9.893.9h.2a.896.896 0 0 0 .892-.9v-1.648h4.768v1.655c0 .493.4.893.895.893h.198c.495 0 .895-.4.895-.893v-3.875c.003-1.912-.545-3.225-1.09-4.01a2.54 2.54 0 0 0-1.183-.922 3.454 3.454 0 0 0-1.104-.227v-.004zm1.39 5.395h-4.767v-.206c.006-1.554.426-2.433.752-2.913a.546.546 0 0 1 .27-.195c.142-.06.35-.096.568-.094h1.59c.22-.002.43.035.574.093.147.06.223.122.274.196.322.478.737 1.344.74 2.888v.23zm18.343-1.322a2.82 2.82 0 0 0-.756-.102h-2.682c-.26.003-.505-.028-.644-.078-.15-.057-.157-.083-.174-.106-.084-.157-.174-.39-.177-.807.003-.417.093-.65.177-.806.017-.02.027-.05.174-.104.14-.05.382-.082.642-.08h3.867a.9.9 0 0 0 .903-.895v-1.092h-4.77c-.173 0-.354.006-.54.025-.505.057-1.004.204-1.413.506-.486.357-.778.914-.92 1.502-.003.022-.01.042-.013.065-.13.58-.13 1.188 0 1.77.016.063.03.123.048.184.14.492.38.957.772 1.285.457.385 1.05.557 1.647.604.147.01.287.015.42.015h2.36c.333 0 .673.152.757.474.09.34.09.695 0 1.035-.032.125-.072.22-.116.294a.373.373 0 0 1-.325.182h-4.354c-.495 0-.9.398-.9.895v.197c0 .496.405.895.9.895h4.355c.226 0 .48-.02.76-.1.277-.077.587-.23.847-.494.438-.436.893-1.257.882-2.386.01-1.13-.443-1.952-.882-2.386a1.897 1.897 0 0 0-.84-.493zm-8.92 0a2.83 2.83 0 0 0-.758-.102h-2.683a2.067 2.067 0 0 1-.644-.078c-.148-.057-.158-.083-.172-.106-.086-.157-.177-.39-.177-.807 0-.417.09-.65.177-.806.016-.02.024-.05.172-.104.14-.05.382-.082.642-.08h3.87a.9.9 0 0 0 .9-.895v-1.092h-4.77c-.17 0-.352.006-.538.025-.506.057-1.006.204-1.415.506-.486.357-.775.914-.916 1.502-.007.022-.014.042-.02.065a4.07 4.07 0 0 0 .052 1.954c.138.492.38.957.77 1.285.462.385 1.052.557 1.65.604.145.01.284.015.42.015h2.36c.333 0 .67.152.754.474.09.34.09.695.003 1.035-.033.125-.076.22-.118.294a.374.374 0 0 1-.326.182h-4.355c-.495 0-.9.398-.9.895v.197c0 .496.405.895.9.895h4.356c.226 0 .48-.02.757-.1.28-.077.59-.23.85-.496.44-.434.892-1.255.883-2.384.01-1.13-.446-1.952-.882-2.386a1.92 1.92 0 0 0-.843-.493zm-18.032 2.843c-.54-.77-1.26-1.43-1.854-1.932a.107.107 0 0 1-.02-.017c.32-.267.68-.584 1.026-.94.365-.374.72-.786 1-1.24.28-.456.516-.967.52-1.595v-.295c0-.494-.398-.894-.892-.894h-.496a.596.596 0 0 0-.597.595c0 .396-.015.808-.225 1.146-.028.046-.06.093-.095.142-.354.516-.976 1.11-1.498 1.544-.262.22-.5.402-.67.53l-.02.015h-1.467v-3.075c0-.494-.4-.895-.893-.895h-.2a.896.896 0 0 0-.892.896v8.164c0 .492.4.896.893.896h.2a.89.89 0 0 0 .892-.89v-3.104c.366-.003.737-.003 1.045-.003h.422c.3.224.825.632 1.325 1.11.348.332.676.698.893 1.02.225.322.3.592.292.65v.297c0 .494.397.895.893.895h.2a.897.897 0 0 0 .894-.895l-.003-.297c-.007-.735-.32-1.31-.672-1.827z"/></g><g><path fill="#EF7E20" d="M87.59 177.39l.293-1.2h46.18l-.29 1.19-46.183.01zm.47-1.914l.294-1.198h46.18l-.294 1.198H88.06zm.468-1.912l.294-1.2h46.18l-.294 1.2h-46.18zM61.332 183.126l.284-1.2H59.69l1.23 1.2h.412zm.455-1.912l.284-1.2h-4.345l1.23 1.2h2.832zm.454-1.913l.287-1.197H55.76l1.23 1.198h5.25zm.456-1.91l.287-1.2h-9.19l1.234 1.2h7.67zm.456-1.914l.286-1.198h-11.61l1.233 1.198h10.092zm.456-1.912l.286-1.2h-14.03l1.232 1.2h12.512z"/><path fill="#00549E" d="M83.288 183.126l1.623-1.55.835-3.473v-.01l-1.31-1.66-1.64.003.3-1.25.204-.16h.428l.162.185-.064.267h2.544l.313-1.33-1.096-1.78H82.7l-1.386 1.2h4.335l.428.712h-5.302l-.285 1.197h1.863l-.17.713H80.32l-.284 1.2h4.488l.555.714h-5.056l.92 1.198h3.843l-.17.714h-1.843l-.117.49-.205.16h-.43l-.162-.184.09-.36.027-.106H79.41l-.284 1.2h5.204l-.77.712h-4.48l.828 1.2h3.38zm-11.8 0l1.364-5.737h2.856l-.306.713H72.95l-.047 1.198h1.99l-.306.715h-1.71l-.047 1.2h1.245l-.304.712h-.968l-.046 1.2h1.18l2.445-5.738h1.902l-.17.713H76.25l-.285 1.198h1.86l-.17.715h-1.86l-.285 1.2h1.86l-.17.712h-1.86l-.286 1.2h2.535l2.275-9.563.285-1.2h-3.32l-.566 1.2h2.93l-.17.713H75.93l-.565 1.198h3.377l-.17.713H75.03l-.436.923v-4.747H71.67l-.284 1.2h2.534v.713h-2.704l-.285 1.198h2.99v.712h-3.16l-.285 1.2h1.705l-.17.715h-1.704l-.287 1.2h1.706l-.17.713H69.85l-.285 1.2h1.708l-.17.712h-1.71l-.283 1.2h2.38zm-3.497 0l.286-1.2.168-.712h.002l.285-1.2H66.42l.165-.713h2.123l.094-.395.4-1.684.247-1.032h-2.142l.166-.713h2.34l.288-1.198h-.002l.17-.713h.002l.285-1.2h-5.04l-.284 1.2h4.364l-.168.713H65.06l-.286 1.198H66.8l-.166.713h-2.03l-.285 1.2h4.17l-.17.714h-4.172l-.285 1.198h2.05l-.166.714h-2.053l-.286 1.2h4.367l-.17.712h-4.367l-.286 1.2h5.04zM88.796 183.043l1.05-3.847h3.02l-1.048 3.847h-.514l.943-3.407h-1.993l-.943 3.407h-.514zm4.08-1.61c.043-.686.277-1.24.7-1.666.423-.423.917-.636 1.482-.636.48 0 .858.156 1.14.47.283.312.406.73.373 1.255a2.484 2.484 0 0 1-.294 1.042c-.13.24-.285.445-.47.62-.185.174-.378.31-.583.402-.27.125-.55.188-.845.188-.31 0-.584-.073-.827-.22a1.303 1.303 0 0 1-.534-.615 1.78 1.78 0 0 1-.14-.84zm.504.025c-.016.226.02.434.1.622.083.19.212.338.392.443.177.107.368.162.574.162.197 0 .39-.048.573-.14.184-.096.352-.226.502-.393a2.04 2.04 0 0 0 .373-.617c.097-.244.152-.484.168-.72.024-.383-.062-.688-.263-.916a.978.978 0 0 0-.77-.342c-.403 0-.77.172-1.1.516-.33.345-.514.806-.55 1.384zm3.855-2.26h.512l-.342 1.208c-.05.183-.08.315-.087.403a.462.462 0 0 0 .15.365c.11.107.293.16.553.16.337 0 .707-.084 1.11-.253l.52-1.885h.51l-1.07 3.847h-.508l.422-1.527c-.387.16-.775.24-1.163.24-.343 0-.603-.086-.78-.254a.752.752 0 0 1-.245-.618c.01-.148.053-.357.126-.628l.295-1.06zm3.528 3.845l.928-3.407h-1.26l.12-.44h3.026l-.12.44h-1.252l-.928 3.407h-.513zm1.595 0l2.426-3.847h.606l.39 3.847h-.498l-.116-1.107h-1.556l-.688 1.107h-.564zm1.497-1.503h1.272l-.088-.964a11.338 11.338 0 0 1-.047-.958c-.103.22-.245.48-.434.784l-.705 1.138zm3.74 1.503l1.05-3.847h1.606c.28 0 .487.033.62.096a.697.697 0 0 1 .325.33c.08.154.116.328.104.52-.01.158-.054.32-.13.485a1.352 1.352 0 0 1-.586.647 1.366 1.366 0 0 1-.333.12c-.25.06-.5.087-.75.087h-.965l-.425 1.563h-.514zm1.06-1.998h.846c.33 0 .573-.034.73-.104a.95.95 0 0 0 .392-.324.894.894 0 0 0 .17-.46.555.555 0 0 0-.055-.31.397.397 0 0 0-.195-.175c-.086-.037-.258-.057-.512-.057h-.985l-.39 1.432zm2.708.388c.043-.686.276-1.24.7-1.666.422-.423.916-.636 1.48-.636.48 0 .86.156 1.142.47.282.312.407.73.373 1.255a2.512 2.512 0 0 1-.764 1.662c-.187.174-.38.31-.583.402-.27.125-.552.188-.846.188-.31 0-.583-.073-.825-.22a1.307 1.307 0 0 1-.538-.615 1.83 1.83 0 0 1-.14-.84zm.503.025c-.014.226.02.434.1.622.083.19.213.338.39.443.18.107.372.162.577.162.196 0 .388-.048.572-.14.186-.096.353-.226.503-.393a2.04 2.04 0 0 0 .373-.617c.098-.244.153-.484.17-.72.024-.383-.063-.688-.264-.916a.976.976 0 0 0-.772-.342c-.4 0-.767.172-1.097.516-.33.345-.513.806-.55 1.384zm6.23.23l.505.073c-.19.445-.446.782-.77 1.007-.32.228-.673.342-1.056.342-.47 0-.83-.144-1.085-.428-.255-.286-.367-.694-.334-1.226.045-.693.29-1.266.735-1.72.397-.403.872-.605 1.422-.605.408 0 .73.11.97.33.24.218.366.51.383.88l-.482.045c-.033-.28-.125-.486-.272-.624-.15-.136-.35-.205-.6-.205-.47 0-.865.21-1.18.628-.275.36-.43.787-.46 1.28-.026.397.052.698.23.907.182.208.428.312.74.312.266 0 .513-.087.74-.26.226-.172.398-.415.515-.733zm3.7 0l.506.073c-.19.445-.447.782-.77 1.007-.32.228-.675.342-1.058.342-.467 0-.827-.144-1.085-.428-.255-.286-.365-.694-.332-1.226.045-.693.29-1.266.735-1.72a1.92 1.92 0 0 1 1.42-.605c.407 0 .73.11.97.33.24.218.367.51.384.88l-.483.045c-.032-.28-.125-.486-.272-.624-.15-.136-.35-.205-.6-.205-.472 0-.865.21-1.182.628-.275.36-.43.787-.46 1.28-.025.397.052.698.232.907.18.208.428.312.74.312.264 0 .51-.087.736-.26.23-.172.4-.415.518-.733zm1.676-2.49h.49l-.816 2.953 2.826-2.953h.482l-1.07 3.847h-.487l.816-2.934-2.815 2.934h-.5l1.074-3.847zm3.664 0h.49l-.817 2.953 2.826-2.953h.482l-1.07 3.847h-.487l.817-2.934-2.815 2.934h-.5l1.074-3.847z"/></g></svg>