<?xml version="1.0" encoding="utf-8"?>
<!-- Generator: Adobe Illustrator 16.0.0, SVG Export Plug-In . SVG Version: 6.00 Build 0)  -->
<!DOCTYPE svg PUBLIC "-//W3C//DTD SVG 1.1//EN" "http://www.w3.org/Graphics/SVG/1.1/DTD/svg11.dtd">
<svg version="1.1" id="Layer_1" xmlns="http://www.w3.org/2000/svg" xmlns:xlink="http://www.w3.org/1999/xlink" x="0px" y="0px"
     width="67.563px" height="67.564px" viewBox="0 0 67.563 67.564" enable-background="new 0 0 67.563 67.564" xml:space="preserve">
<g>
    <g>
        <circle fill="#98D7FA" cx="34.115" cy="33.449" r="33.782"/>
        <path fill-rule="evenodd" clip-rule="evenodd" fill="#5FA642" d="M12.311,40.052c-0.186-0.077-0.444-0.13-0.616-0.151
            c-0.227-0.028-0.395-0.036-0.55,0c-0.459,0.135-0.49,0.615,0.757,1.365c0.335,0.445,0.941,0.852,1.516,0.629
            c0.334-0.947-0.36-1.523-1.106-1.781C12.311,40.052,12.316,40.071,12.311,40.052z"/>
        <path fill-rule="evenodd" clip-rule="evenodd" fill="#5FA642" d="M17.533,30.484c0.055,0.049,0.09,0.127,0.139,0.135h0.07
            c0.337,0.096,0.664-0.244,0.408-0.266C18.051,30.336,17.855,30.362,17.533,30.484z"/>
        <path fill-rule="evenodd" clip-rule="evenodd" fill="#5FA642" d="M25.357,27.535c-0.534,0.091-0.663,0.448,0.486,1.238
            c0.143-0.039,1.132-0.262,0.551,0.336C28.181,28.045,26.27,27.373,25.357,27.535z"/>
        <path fill-rule="evenodd" clip-rule="evenodd" fill="#5FA642" d="M25.357,19.904c1.924-0.782,2.367-5.846,0.076-5.697
            c-0.147,0-0.296,0.074-0.483,0.144C25.908,16.119,23.697,18.367,25.357,19.904z"/>
        <path fill-rule="evenodd" clip-rule="evenodd" fill="#5FA642" d="M47.43,24.099c0.152-1.056-1.527-1.833-2.284-1.791
            c-0.44,0.031-0.526,0.346,0.288,1.105C44.672,25.212,46.701,25.308,47.43,24.099z"/>
        <path fill-rule="evenodd" clip-rule="evenodd" fill="#5FA642" d="M30.24,10.916c0.555-0.259,0.82-1.179,0-1.179
            c-0.148-0.04-0.26-0.078-0.408-0.07c-0.148,0.005-0.297,0.057-0.405,0.07C27.805,10.06,28.299,12.749,30.24,10.916z"/>
        <path fill-rule="evenodd" clip-rule="evenodd" fill="#5FA642" d="M32.512,10.287c-2.346,0.297-4.713,2.563-2.531,4.807
            c1.563,1.951-2.256,5.932,1.368,6.955c1.438-3.218,5.374-5.768,4.401-9.69C35.343,10.684,33.928,10.108,32.512,10.287z"/>
        <path fill="#5FA642" d="M28.464,56.74c-3.475-2.308-5.989-5.839-9.902-7.559c-3.185-3.09-10.364-1.17-10.234-7.015
            c0.332-2.776-1.896-4.116-3.568-5.421c-1.286-4.296,6.55-5.876,6.663-1.17c2.58-0.135,3.484-4.635,6.463-5.285
            c1.534-1.332,5.686,0.099,4.184-2.62c1.484-1.411,5.839-1.362,3.709-4.663c-0.715-3.217-4.668-4.771-5.97-1.108
            c-3.579,0.959-2.136-6.806,1.506-5.771c2.641,0.153,2.28-2.143,0.682-2.88c0-0.113-0.036-0.176-0.136-0.075
            c-0.293-0.108-0.6-0.222-0.961-0.204c-3.57-1.973,3.573-7.003-1.159-8.596C14.547,8.807,6.627,15.787,3.456,22.308
            c-1.432,4.09-1.192,8.207-1.026,12.507c1.453,4.164,4.277,7.599,6.525,11.332c1.439,1.803,0.747,3.877,0.638,5.85
            c-0.038,0.013,0.018,0.06,0.018,0.069c-0.074,1.196,0.113,2.335,1.124,3.361c1.76,2.269,4.319,4.067,5.568,6.683
            c2.824,1.764,5.923,3.108,9.224,3.978c0.357-0.162,1.085-0.375,3.694-0.625v-0.071c0-0.78,3.607-1.923,5.391-3.244
            C37.576,58.565,31.441,55.703,28.464,56.74z"/>
        <path fill="#5FA642" d="M59.858,55.297c5.005-5.894,8.038-13.51,8.038-21.848c0-0.931-0.064-1.846-0.14-2.76
            c-0.024-0.228-0.041-0.458-0.067-0.684c-1.93,1.056-5.363-4.754-1.852-1.992c0.686-0.048,1.118-0.244,1.443-0.541
            c-0.406-2.117-0.955-4.168-1.727-6.125c-0.346-0.409-0.677-0.793-0.96-1.025c0.024-0.423-0.019-0.83-0.068-1.235
            c-0.018-0.022,0.021-0.052,0-0.074C59.02,7.681,47.396-0.146,33.955-0.146c-0.917,0-1.849,0.056-2.754,0.131
            c-0.47,0.101-0.988,0.162-1.518,0.21c-0.181,0.017-0.361,0.04-0.541,0.069c-1.896,0.266-3.709,0.598-5.489,1.162
            c4.646-0.34,9.413-0.219,13.602,1.86c1.107,3.558,7.736,0.068,7.417,4.045c0.053,0.058,0.152,0.149,0.209,0.215
            c-0.104,0.077,0.077,0.802,0.211,0.196c1.145,1.296,3.557,3.985,1.025,3.649c-3.355-0.459-2.482,6.15-0.066,7.351
            c2.303,1.239,3.598-1.249,1.232-2.472c-0.32-3.1,5.165,1.903,2.744,3.562c-0.096,0.066-0.174,0.144-0.268,0.213
            c0.11-0.444-0.159-0.025-0.151,0.075c-2.752,1.995-1.183,6.691-2.252,9.821c-1.906,4.23,4.767,2.366,3.771-0.964
            c-1.22-3.064,5.075-1.667,3.714-3.846c3.817,2.025,3.457-3.413,1.862-5.229c0.744-2.907,2.706,0.341,1.777,1.924
            c0.151,1.499,1.443,1.843,2.479,2.271c0.047,0.035,0.101,0.04,0.204,0.065c0.905,0.432,1.449,0.987,0.471,2.689
            c-1.121,3.781-4.924,3.99-8.031,3.291c-3.144,1.302-3.728,5.122-5.501,7.692c-1.759,3.212-3.222,7.945-0.063,10.786
            c3.023,2.902,6.498,0.384,9.004-1.58c4.804-0.625,5.244,5.033,2.881,7.913C59.897,55.088,59.877,55.188,59.858,55.297z"/>
    </g>
    <path opacity="0.3" d="M55.809,19.45H39.067v-5.609c0-0.426-0.347-0.772-0.772-0.772h-7.973c-0.426,0-0.771,0.346-0.771,0.772
        v5.609H12.423c-2.36,0-4.276,1.915-4.276,4.275v24.331c0,2.362,1.916,4.275,4.276,4.275h43.386c2.36,0,4.273-1.913,4.273-4.275
        V23.726C60.082,21.365,58.169,19.45,55.809,19.45z M40.064,22.8c1.005,0,1.82,0.814,1.82,1.819c0,1.003-0.815,1.819-1.82,1.819
        h-0.997v-3.624l0.731-0.014H40.064z M28.164,22.8h1.387v3.638h-1.387c-1.005,0-1.819-0.815-1.819-1.819
        C26.345,23.614,27.159,22.8,28.164,22.8z"/>
    <g>
        <path fill="#FF5148" d="M55.809,17.386H12.423c-2.36,0-4.276,1.915-4.276,4.276v24.33c0,2.363,1.916,4.275,4.276,4.275h43.386
            c2.36,0,4.273-1.913,4.273-4.275v-24.33C60.082,19.301,58.169,17.386,55.809,17.386z M40.064,24.374h-11.9
            c-1.005,0-1.819-0.815-1.819-1.819s0.814-1.819,1.819-1.819h11.9c1.005,0,1.82,0.815,1.82,1.819S41.069,24.374,40.064,24.374z"/>
        <path fill="#EFEFEF" d="M56.854,43.039c0,2.36-1.916,4.275-4.277,4.275H15.652c-2.361,0-4.275-1.915-4.275-4.275V32.132
            c0-2.36,1.914-4.274,4.275-4.274h36.924c2.361,0,4.277,1.914,4.277,4.274V43.039z"/>
        <g>
            <g>
                <path fill="#29353F" d="M25.182,32.68c-0.509-0.131-1.036,0.164-1.18,0.662l-1.5,5.23l-1.501-5.23
                    c-0.122-0.427-0.53-0.686-0.964-0.674c-0.435-0.012-0.843,0.248-0.965,0.674l-1.501,5.23l-1.501-5.23
                    c-0.141-0.498-0.67-0.793-1.178-0.662c-0.509,0.133-0.807,0.644-0.663,1.142l2.377,8.284c0.122,0.429,0.53,0.688,0.965,0.673
                    c0.435,0.016,0.843-0.244,0.966-0.673l1.5-5.231l1.501,5.231c0.122,0.429,0.529,0.688,0.964,0.673
                    c0.435,0.016,0.842-0.244,0.966-0.673l2.375-8.284C25.986,33.324,25.691,32.813,25.182,32.68z"/>
            </g>
            <g>
                <path fill="#29353F" d="M39.454,32.68c-0.509-0.131-1.036,0.164-1.18,0.662l-1.499,5.23l-1.502-5.23
                    c-0.123-0.427-0.53-0.686-0.965-0.674c-0.436-0.012-0.842,0.248-0.966,0.674l-1.5,5.23l-1.501-5.23
                    c-0.143-0.498-0.67-0.793-1.179-0.662c-0.509,0.133-0.804,0.644-0.662,1.142l2.376,8.284c0.122,0.429,0.531,0.688,0.966,0.673
                    c0.435,0.016,0.843-0.244,0.966-0.673l1.5-5.231l1.5,5.231c0.123,0.429,0.531,0.688,0.967,0.673
                    c0.434,0.016,0.842-0.244,0.964-0.673l2.376-8.284C40.259,33.324,39.962,32.813,39.454,32.68z"/>
            </g>
            <g>
                <path fill="#29353F" d="M53.339,32.68c-0.51-0.131-1.038,0.164-1.181,0.662l-1.499,5.23l-1.502-5.23
                    c-0.123-0.427-0.53-0.686-0.966-0.674c-0.435-0.012-0.842,0.248-0.964,0.674l-1.501,5.23l-1.5-5.23
                    c-0.143-0.498-0.672-0.793-1.179-0.662c-0.509,0.133-0.805,0.644-0.663,1.142l2.377,8.284c0.122,0.429,0.53,0.688,0.965,0.673
                    c0.434,0.016,0.843-0.244,0.965-0.673l1.5-5.231l1.502,5.231c0.121,0.429,0.53,0.688,0.966,0.673
                    c0.433,0.016,0.842-0.244,0.964-0.673l2.376-8.284C54.143,33.324,53.846,32.813,53.339,32.68z"/>
            </g>
        </g>
        <polygon opacity="0.4" points="38.361,20.762 39.799,20.736 40.595,17.386 37.812,17.399      "/>
        <path fill="#29353F" d="M39.067,24.378V11.777c0-0.426-0.347-0.771-0.772-0.771h-7.973c-0.426,0-0.771,0.346-0.771,0.771v12.601
            H39.067z"/>
        <path opacity="0.1" fill="#FFFFFF" d="M38.575,11.956c0,0.22-0.177,0.397-0.396,0.397h-7.768c-0.221,0-0.397-0.178-0.397-0.397
            l0,0c0-0.22,0.177-0.398,0.397-0.398h7.768C38.398,11.558,38.575,11.736,38.575,11.956L38.575,11.956z"/>
        <path opacity="0.1" d="M55.809,17.386L12.423,50.268h43.386c2.36,0,4.273-1.913,4.273-4.275v-24.33
            C60.082,19.301,58.169,17.386,55.809,17.386z"/>
    </g>
</g>
</svg>
