<?xml version="1.0" encoding="utf-8"?>
<!-- Generator: Adobe Illustrator 16.0.0, SVG Export Plug-In . SVG Version: 6.00 Build 0)  -->
<!DOCTYPE svg PUBLIC "-//W3C//DTD SVG 1.1//EN" "http://www.w3.org/Graphics/SVG/1.1/DTD/svg11.dtd">
<svg version="1.1" id="Layer_1" xmlns="http://www.w3.org/2000/svg" xmlns:xlink="http://www.w3.org/1999/xlink" x="0px" y="0px"
     width="97.414px" height="96px" viewBox="0 0 97.414 96" enable-background="new 0 0 97.414 96" xml:space="preserve">
<g>
    <path fill="#2686BC" d="M50.438,2.892c-2.472-2.47-6.476-2.47-8.946,0L0.021,38.039C0.137,42.032,3.394,72.18,7.413,72.18h77.103
        c4.022,0,7.276-30.147,7.393-34.141L50.438,2.892z"/>
    <g>
        <path fill="#048E52" d="M97.001,18.461c0.5,0.432,0.554,1.185,0.121,1.686L54.307,69.686c-0.432,0.498-1.185,0.554-1.685,0.121
            L38.873,57.926c-0.499-0.433-0.553-1.186-0.123-1.684L81.565,6.703c0.434-0.502,1.188-0.557,1.687-0.125L97.001,18.461z"/>
        <path fill="#12C47B" d="M96.097,17.68c0.499,0.432,0.553,1.186,0.121,1.687L53.402,68.905c-0.432,0.498-1.185,0.553-1.684,0.121
            L37.971,57.144c-0.499-0.432-0.557-1.186-0.125-1.684L80.661,5.921c0.432-0.501,1.188-0.555,1.687-0.123L96.097,17.68z"/>
        <g opacity="0.3">
            
                <rect x="77.713" y="12.351" transform="matrix(-0.6586 0.7525 -0.7525 -0.6586 140.7689 -33.9588)" fill="#2A0D00" width="0.749" height="5.206"/>
            <polygon fill="#2A0D00" points="79.847,8.971 80.335,8.404 85.326,12.752 84.837,13.318           "/>
            <polygon fill="#2A0D00" points="40.108,54.619 40.598,54.053 45.592,58.4 45.101,58.961           "/>
            
                <rect x="69.756" y="21.496" transform="matrix(-0.6554 0.7553 -0.7553 -0.6554 134.2924 -13.0689)" fill="#2A0D00" width="0.743" height="5.207"/>
            
                <rect x="74.252" y="16.7" transform="matrix(-0.6555 0.7552 -0.7552 -0.6555 138.6527 -23.2298)" fill="#2A0D00" width="0.745" height="6.617"/>
            
                <rect x="61.764" y="30.674" transform="matrix(-0.6578 0.7532 -0.7532 -0.6578 128.0752 8.3651)" fill="#2A0D00" width="0.747" height="5.21"/>
            
                <rect x="66.26" y="25.878" transform="matrix(-0.6564 0.7544 -0.7544 -0.6564 132.3897 -1.9252)" fill="#2A0D00" width="0.747" height="6.619"/>
            
                <rect x="53.803" y="39.82" transform="matrix(-0.6527 0.7576 -0.7576 -0.6527 121.679 29.0747)" fill="#2A0D00" width="0.745" height="5.212"/>
            
                <rect x="58.298" y="35.024" transform="matrix(-0.6574 0.7536 -0.7536 -0.6574 126.1227 19.3214)" fill="#2A0D00" width="0.741" height="6.617"/>
            
                <rect x="45.893" y="48.905" transform="matrix(-0.6536 0.7569 -0.7569 -0.6536 115.4911 50.1588)" fill="#2A0D00" width="0.747" height="5.21"/>
            
                <rect x="50.388" y="44.11" transform="matrix(-0.6612 0.7502 -0.7502 -0.6612 119.8979 40.6881)" fill="#2A0D00" width="0.746" height="6.617"/>
        </g>
    </g>
    <g>
        
            <rect x="25.964" y="21.435" transform="matrix(0.4224 -0.9064 0.9064 0.4224 -13.1694 75.3513)" opacity="0.2" fill="#3C3C3B" width="53.149" height="53.148"/>
        
            <rect x="24.266" y="21.902" transform="matrix(0.9064 0.4224 -0.4224 0.9064 25.234 -16.9381)" fill="#FFFFFF" width="53.15" height="53.149"/>
        
            <rect x="29.196" y="26.024" transform="matrix(0.9064 0.4224 -0.4224 0.9064 24.395 -17.5854)" fill="#CFF1FF" width="45.363" height="40.456"/>
        <polygon fill="#B17F4A" points="47.062,59.644 46.505,47.266 36.673,54.802       "/>
        <polygon fill="#008D36" points="62.826,73.67 58.273,46.921 34.869,60.64         "/>
        <polygon fill="#3AAA35" points="27.782,44.26 22.773,55.005 42.812,64.344 40.543,35.133      "/>
        <path fill="#F39200" d="M63.124,35.199c-2.695,5.778-0.193,12.649,5.586,15.341c1.846,0.861,3.802,1.188,5.703,1.05L80.98,37.5
            l-14.312-6.671C65.192,31.934,63.958,33.406,63.124,35.199z"/>
        <path fill="#76CEFF" d="M42.282,31.024c-0.424,0.971,0.008,2.099,0.967,2.515l10.215,4.462c1.77,0.773,3.838-0.057,4.623-1.854
            c0.78-1.793-0.016-3.876-1.784-4.647c-0.184-0.081-0.37-0.139-0.558-0.188c-0.239-1.426-1.163-2.698-2.57-3.314
            c-1.822-0.798-3.893-0.247-5.133,1.209c-0.073-0.039-0.148-0.08-0.225-0.114c-1.204-0.525-2.573-0.158-3.396,0.811
            C43.562,29.722,42.654,30.173,42.282,31.024z"/>
    </g>
    <path opacity="0.2" fill="#3C3C3B" d="M14.121,26.09l-7.38,4.048v38.436v0.129h6.569v-0.129l8.95-0.001v0.252l11.021-0.328
        l-4.416-38.359h0.044l-5.641-11.801L14.121,26.09z M13.36,30.138L13.36,30.138L13.36,30.138L13.36,30.138z"/>
    <g>
        
            <rect x="7.098" y="30.033" transform="matrix(-0.9929 0.1192 -0.1192 -0.9929 42.0583 95.9865)" fill="#FFD645" width="22.122" height="38.436"/>
        
            <rect x="7.16" y="30.96" transform="matrix(-0.9928 0.1195 -0.1195 -0.9928 26.8197 98.8774)" fill="#FF8A00" width="6.571" height="38.565"/>
        
            <rect x="22.576" y="29.107" transform="matrix(-0.9929 0.119 -0.119 -0.9929 57.3389 93.4767)" fill="#FFF2A2" width="6.605" height="38.688"/>
        <path fill="#FFE0A9" d="M12.313,0.372L4.886,31.488h0.006c0.218,1.811,1.862,3.104,3.677,2.887
            c1.812-0.217,3.105-1.863,2.889-3.676c0.297,2.479,2.546,4.246,5.025,3.948c2.478-0.297,4.244-2.548,3.948-5.024l0.008-0.002
            c0.212,1.771,1.821,3.035,3.59,2.821c1.77-0.212,3.034-1.82,2.823-3.591l0.043-0.006L12.313,0.372z"/>
        <path opacity="0.05" fill="#3C3C3B" d="M12.313,0.372L4.886,31.488h0.006c0.218,1.811,1.862,3.104,3.677,2.887
            c1.812-0.217,3.105-1.863,2.889-3.676C11.754,33.178,12.313,0.372,12.313,0.372z"/>
        <polygon fill="#3C3C3B" points="17.835,11.152 12.313,0.372 9.502,12.15      "/>
    </g>
    <path fill="#3BA1F4" d="M91.81,38.128L50.438,73.195c-2.472,2.471-6.476,2.471-8.946,0L0.117,38.128
        C0.055,38.516,0,38.904,0,39.308v49.279C0,92.681,3.318,96,7.413,96h77.103c4.095,0,7.414-3.319,7.414-7.413V39.308
        C91.93,38.904,91.873,38.516,91.81,38.128z"/>
    <path fill="#76CEFF" d="M50.438,53.648c-2.472-2.468-6.476-2.468-8.946,0L0.021,88.798C0.137,92.79,3.394,96,7.413,96h77.103
        c4.022,0,7.276-3.21,7.393-7.202L50.438,53.648z"/>
    <circle fill="#048E52" cx="85.326" cy="17.555" r="2.186"/>
    <circle fill="#FFFFFF" cx="85.666" cy="17.893" r="2.186"/>
</g>
</svg>
