<?xml version="1.0" encoding="utf-8"?>
<!-- Generator: Adobe Illustrator 16.0.0, SVG Export Plug-In . SVG Version: 6.00 Build 0)  -->
<!DOCTYPE svg PUBLIC "-//W3C//DTD SVG 1.1//EN" "http://www.w3.org/Graphics/SVG/1.1/DTD/svg11.dtd">
<svg version="1.1" id="Layer_1" xmlns="http://www.w3.org/2000/svg" xmlns:xlink="http://www.w3.org/1999/xlink" x="0px" y="0px"
     width="98.392px" height="75.071px" viewBox="0 0 98.392 75.071" enable-background="new 0 0 98.392 75.071" xml:space="preserve">
<image display="none" overflow="visible" width="1200" height="2171" xlink:href="../new_t/mailru4.jpg"  transform="matrix(1 0 0 1 -434.6025 -923.5723)">
</image>
<g>
    <polygon fill="#2FAC66" points="88.597,0 9.794,0 0,16.73 49.196,75.071 98.392,16.73     "/>
    <polygon fill="#12C47B" points="28.363,16.73 49.196,75.071 70.029,16.73     "/>
    <polygon fill="#49EA7F" points="28.363,16.73 49.196,75.071 0,16.73  "/>
    <polygon fill="#099358" points="98.392,16.73 49.196,75.071 69.768,16.73     "/>
    <polygon fill="#2FAC66" points="28.623,16.73 49.196,0 69.768,16.73  "/>
    <polygon fill="#49EA7F" points="28.363,16.73 49.196,0 9.794,0   "/>
    <polygon fill="#099358" points="88.539,0 49.138,0 69.712,16.73  "/>
    <polygon fill="#2FAC66" points="69.928,16.73 88.597,0 98.392,16.73  "/>
    <polygon fill="#2FAC66" points="28.464,16.73 9.794,0 0,16.73    "/>
    <polygon opacity="0.1" fill="#1D1D1B" points="88.539,0 49.138,0 49.138,75.071 49.139,75.071 98.335,16.73    "/>
    <path fill="#FFD42D" d="M28.361,5.132c-1.958,5.16-5.906,9.333-10.904,11.597c4.998,2.262,8.946,6.44,10.904,11.6
        c1.962-5.159,5.907-9.338,10.908-11.6C34.268,14.465,30.324,10.292,28.361,5.132z"/>
    <path fill="#FF7600" d="M28.361,10.886c-0.982,2.601-2.971,4.704-5.495,5.843c2.524,1.139,4.513,3.245,5.495,5.843
        c0.99-2.598,2.975-4.705,5.495-5.843C31.336,15.59,29.352,13.486,28.361,10.886z"/>
</g>
</svg>
