<?xml version="1.0" encoding="utf-8"?>
<!-- Generator: Adobe Illustrator 16.0.0, SVG Export Plug-In . SVG Version: 6.00 Build 0)  -->
<!DOCTYPE svg PUBLIC "-//W3C//DTD SVG 1.1//EN" "http://www.w3.org/Graphics/SVG/1.1/DTD/svg11.dtd">
<svg version="1.1" xmlns="http://www.w3.org/2000/svg" xmlns:xlink="http://www.w3.org/1999/xlink" x="0px" y="0px" width="57.93px"
	 height="57.93px" viewBox="0 0 57.93 57.93" enable-background="new 0 0 57.93 57.93" xml:space="preserve">
<g id="Layer_1">
</g>
<g id="Layer_2">
	<g>
		<path fill="#F28111" d="M48.319,0H9.609C4.304,0,0,4.303,0,9.61v38.71c0,5.307,4.304,9.609,9.609,9.609h38.71
			c5.307,0,9.61-4.303,9.61-9.609V9.61C57.93,4.303,53.626,0,48.319,0z M52.757,48.32c0.001,2.447-1.989,4.438-4.438,4.438H9.609
			c-2.448,0-4.438-1.99-4.438-4.438v-6.295h12.617c3.008,2.576,6.906,4.142,11.177,4.142s8.169-1.565,11.177-4.142h12.615V48.32z
			 M52.757,15.903H40.141c-3.008-2.576-6.906-4.141-11.176-4.141s-8.168,1.565-11.176,4.141H5.171V9.61
			c0-2.448,1.991-4.439,4.438-4.439h38.71c2.448,0,4.438,1.991,4.438,4.438V15.903z"/>
		<g>
			<path fill="#FFFFFF" d="M5.498,35.509V21.708h9.766v2.586H8.436v2.917h6.684v2.586H8.436v5.711H5.498z"/>
			<path fill="#FFFFFF" d="M25.108,35.509l-2.71-4.904h-2.152v4.904h-2.938V21.708h6.455c2.876,0,4.635,1.883,4.635,4.448
				c0,2.442-1.531,3.745-3.021,4.097l3.104,5.255H25.108z M25.398,26.156c0-1.158-0.891-1.862-2.069-1.862h-3.083v3.724h3.083
				C24.508,28.019,25.398,27.315,25.398,26.156z"/>
			<path fill="#FFFFFF" d="M30.607,35.509V21.708h9.766v2.586h-6.828v2.917h6.684v2.586h-6.684v3.125h6.828v2.586H30.607z"/>
			<path fill="#FFFFFF" d="M42.666,35.509V21.708h9.766v2.586h-6.828v2.917h6.684v2.586h-6.684v3.125h6.828v2.586H42.666z"/>
		</g>
	</g>
</g>
</svg>
