<?xml version="1.0" encoding="utf-8"?>
<!-- Generator: Adobe Illustrator 19.1.0, SVG Export Plug-In . SVG Version: 6.00 Build 0)  -->
<svg version="1.1" id="Layer_1" xmlns="http://www.w3.org/2000/svg" xmlns:xlink="http://www.w3.org/1999/xlink" x="0px" y="0px"
	 viewBox="0 0 54 54" style="enable-background:new 0 0 54 54;" xml:space="preserve">
<style type="text/css">
	.st0{fill:#EDB914;}
	.st1{opacity:0.2;fill:#3C3C3B;}
	.st2{fill:#C1910A;}
	.st3{fill:#004A54;}
	.st4{opacity:0.1;}
	.st5{fill:#46ACE1;}
	.st6{fill:#FF5046;}
	.st7{fill:#46B879;}
	.st8{opacity:0.2;}
	.st9{fill:#26844E;}
	.st10{fill:#FCD22F;}
	.st11{fill:#428BF4;}
	.st12{fill:#E3E3E3;}
	.st13{fill:#293E4C;}
	.st14{opacity:0.4;}
	.st15{fill:#5CD5FF;}
	.st16{fill:#CACACA;}
	.st17{fill:#FF5955;}
	.st18{fill:#FF5148;}
	.st19{fill:#FFFFFF;}
	.st20{opacity:0.2;fill:#FFFFFF;}
	.st21{opacity:0.2;enable-background:new    ;}
	.st22{fill:#85C457;}
	.st23{fill:#116FCE;}
	.st24{opacity:0.3;fill:none;stroke:#E3E3E3;stroke-width:2.126;stroke-linecap:round;stroke-miterlimit:10;}
	.st25{fill:#FFDB4A;}
	.st26{fill:#4B4B4B;}
	.st27{opacity:0.1;fill:#010000;}
	.st28{fill:#6FBC33;}
	.st29{fill:#AF890E;}
	.st30{fill:#76D9FC;}
	.st31{fill-rule:evenodd;clip-rule:evenodd;fill:#00A936;}
	.st32{fill:#00A936;}
	.st33{fill:#010000;}
	.st34{fill:#30261B;}
	.st35{fill:#FCD22E;}
	.st36{fill:#FD7600;}
	.st37{opacity:0.3;}
	.st38{fill:#F0F0F0;}
	.st39{fill:#B2C61E;}
	.st40{fill:#00B7F1;}
	.st41{opacity:0.2;fill:#010000;}
	.st42{opacity:0.3;fill:#010000;}
	.st43{fill:#0084FD;}
	.st44{fill:#F7534F;}
	.st45{fill:#54301D;}
	.st46{fill:#FFE4C0;}
	.st47{opacity:0.3;fill:#1E0E00;}
	.st48{opacity:0.2;fill:#1E0E00;}
	.st49{fill:#1E0E00;}
	.st50{opacity:0.1;fill:#1E0E00;}
	.st51{opacity:0.1;fill:#FFFFFF;}
	.st52{opacity:0.15;fill:#1E0E00;}
	.st53{fill:#78F1FF;}
	.st54{fill:#EFEFEF;}
	.st55{fill:#29353F;}
	.st56{fill:#9DD643;}
	.st57{fill:none;stroke:#293E4C;stroke-width:3;stroke-miterlimit:10;}
	.st58{opacity:0.15;enable-background:new    ;}
	.st59{fill:#0068BA;}
	.st60{fill:#EDEDED;}
	.st61{fill:#27C15A;}
	.st62{opacity:0.3;fill:#5B5B5B;}
	.st63{fill:#5B5B5B;}
	.st64{fill:#ECECEC;}
	.st65{fill:#FFD59B;}
	.st66{fill:#F7CC9A;}
	.st67{fill:#FF8080;}
	.st68{fill:#77503B;}
	.st69{fill:#513123;}
	.st70{opacity:0.5;fill:#FFFFFF;}
	.st71{fill:#70462D;}
	.st72{opacity:0.15;fill:#010101;}
	.st73{fill:#6D4735;}
	.st74{opacity:0.1;fill:#010101;}
	.st75{opacity:0.3;fill-rule:evenodd;clip-rule:evenodd;}
	.st76{fill-rule:evenodd;clip-rule:evenodd;fill:#073B44;}
	.st77{fill:#FFD79D;}
	.st78{opacity:0.29;}
	.st79{fill:#DDB890;}
	.st80{opacity:0.4;fill:#E9B980;}
	.st81{fill:#E9B980;}
	.st82{fill:#A0A0A0;}
</style>
<g>
	<path class="st13" d="M52.2,37.2c0,2-1.6,3.6-3.6,3.6H17.4c-2,0-3.6-1.6-3.6-3.6L12,9c0-2,3.5-5.5,5.5-5.5h31.1
		c2,0,3.6,1.6,3.6,3.6v22.1L52.2,37.2z"/>
	<path class="st14" d="M46,36.2V14.1c0-2-1.6-3.6-3.6-3.6H12.7l1.4,22.9h-0.3V37c0,2,1.6,3.6,3.6,3.6H46L46,36.2z"/>
	<path class="st15" d="M19.6,16.4c1,0,1.8,0.8,1.8,1.8c0,1-0.8,1.8-1.8,1.8c-1,0-1.8-0.8-1.8-1.8C17.8,17.2,18.6,16.4,19.6,16.4z"/>
	<path class="st15" d="M19.6,24.8c1,0,1.8,0.8,1.8,1.8c0,1-0.8,1.8-1.8,1.8c-1,0-1.8-0.8-1.8-1.8C17.8,25.6,18.6,24.8,19.6,24.8z"/>
	<path class="st15" d="M19.6,33.5c1,0,1.8,0.8,1.8,1.8c0,1-0.8,1.8-1.8,1.8c-1,0-1.8-0.8-1.8-1.8C17.8,34.2,18.6,33.5,19.6,33.5z"/>
	<path class="st16" d="M42.7,47.4c0,2-1.6,3.6-3.6,3.6H8c-2,0-3.6-1.6-3.6-3.6v-30c0-2,1.6-3.6,3.6-3.6h31.1c2,0,3.6,1.6,3.6,3.6
		v22.1L42.7,47.4z"/>
	<path class="st13" d="M40.3,36.9c0,2.1-1.7,3.8-3.8,3.8H10.1c-2.1,0-3.8-1.7-3.8-3.8l0,0c0-2.1,1.7-3.8,3.8-3.8h26.4
		C38.7,33.1,40.3,34.8,40.3,36.9L40.3,36.9z"/>
	<path class="st13" d="M40.3,28.5c0,2.1-1.7,3.8-3.8,3.8H10.1c-2.1,0-3.8-1.7-3.8-3.8l0,0c0-2.1,1.7-3.8,3.8-3.8h26.4
		C38.7,24.7,40.3,26.4,40.3,28.5L40.3,28.5z"/>
	<path class="st13" d="M40.3,20.1c0,2.1-1.7,3.8-3.8,3.8H10.1c-2.1,0-3.8-1.7-3.8-3.8l0,0c0-2.1,1.7-3.8,3.8-3.8h26.4
		C38.7,16.3,40.3,18,40.3,20.1L40.3,20.1z"/>
	<path class="st17" d="M10.2,18.3c1,0,1.8,0.8,1.8,1.8s-0.8,1.8-1.8,1.8c-1,0-1.8-0.8-1.8-1.8S9.2,18.3,10.2,18.3z"/>
	<path class="st18" d="M10.2,26.8c1,0,1.8,0.8,1.8,1.8c0,1-0.8,1.8-1.8,1.8c-1,0-1.8-0.8-1.8-1.8C8.4,27.6,9.2,26.8,10.2,26.8z"/>
	<path class="st15" d="M10.2,35.2c1,0,1.8,0.8,1.8,1.8c0,1-0.8,1.8-1.8,1.8c-1,0-1.8-0.8-1.8-1.8C8.4,36,9.2,35.2,10.2,35.2z"/>
	<g class="st8">
		<path class="st19" d="M36.7,19c0,0.3-0.2,0.6-0.4,0.6H15.2c-0.2,0-0.4-0.3-0.4-0.6l0,0c0-0.3,0.2-0.6,0.4-0.6h21.1
			C36.5,18.4,36.7,18.7,36.7,19L36.7,19z"/>
		<path class="st19" d="M36.7,21.2c0,0.3-0.2,0.6-0.4,0.6H15.2c-0.2,0-0.4-0.3-0.4-0.6l0,0c0-0.3,0.2-0.6,0.4-0.6h21.1
			C36.5,20.6,36.7,20.8,36.7,21.2L36.7,21.2z"/>
	</g>
	<g class="st8">
		<path class="st19" d="M36.7,27.4c0,0.3-0.2,0.6-0.4,0.6H15.2c-0.2,0-0.4-0.3-0.4-0.6l0,0c0-0.3,0.2-0.6,0.4-0.6h21.1
			C36.5,26.8,36.7,27.1,36.7,27.4L36.7,27.4z"/>
		<path class="st19" d="M36.7,29.6c0,0.3-0.2,0.6-0.4,0.6H15.2c-0.2,0-0.4-0.3-0.4-0.6l0,0c0-0.3,0.2-0.6,0.4-0.6h21.1
			C36.5,29,36.7,29.2,36.7,29.6L36.7,29.6z"/>
	</g>
	<g class="st8">
		<path class="st19" d="M36.7,35.8c0,0.3-0.2,0.6-0.4,0.6H15.2c-0.2,0-0.4-0.3-0.4-0.6l0,0c0-0.3,0.2-0.6,0.4-0.6h21.1
			C36.5,35.2,36.7,35.5,36.7,35.8L36.7,35.8z"/>
		<path class="st19" d="M36.7,38c0,0.3-0.2,0.6-0.4,0.6H15.2c-0.2,0-0.4-0.3-0.4-0.6l0,0c0-0.3,0.2-0.6,0.4-0.6h21.1
			C36.5,37.4,36.7,37.7,36.7,38L36.7,38z"/>
	</g>
	<path class="st13" d="M40.3,45.6c0,2.1-1.7,3.8-3.8,3.8H10.1c-2.1,0-3.8-1.7-3.8-3.8l0,0c0-2.1,1.7-3.8,3.8-3.8h26.4
		C38.7,41.8,40.3,43.5,40.3,45.6L40.3,45.6z"/>
	<path class="st15" d="M10.2,43.9c1,0,1.8,0.8,1.8,1.8c0,1-0.8,1.8-1.8,1.8c-1,0-1.8-0.8-1.8-1.8C8.4,44.6,9.2,43.9,10.2,43.9z"/>
	<g>
		<path class="st20" d="M36.7,44.5c0,0.3-0.2,0.6-0.4,0.6H15.2c-0.2,0-0.4-0.3-0.4-0.6l0,0c0-0.3,0.2-0.6,0.4-0.6h21.1
			C36.5,43.9,36.7,44.1,36.7,44.5L36.7,44.5z"/>
		<path class="st20" d="M36.7,46.7c0,0.3-0.2,0.6-0.4,0.6H15.2c-0.2,0-0.4-0.3-0.4-0.6l0,0c0-0.3,0.2-0.6,0.4-0.6h21.1
			C36.5,46.1,36.7,46.3,36.7,46.7L36.7,46.7z"/>
	</g>
	<path class="st21" d="M42.7,17.4v22.1l0,7.9c0,2-1.6,3.6-3.6,3.6H8L42.7,17.4z"/>
	<g>
		<path class="st22" d="M51.9,38.7l-5.6-9.9h0c-0.2-0.4-0.7-0.7-1.2-0.7c-0.5,0-1,0.3-1.2,0.7h0l-5.7,9.8C38,38.9,38,39.2,38,39.5
			c0,0.7,0.6,1.3,1.3,1.3l11.5,0c0.7,0,1.3-0.6,1.3-1.3C52.1,39.2,52,39,51.9,38.7z"/>
		<path class="st22" d="M42.6,35.2c0.1,0.5,0.1,1,0.1,1.5c0,8-6.5,14.4-14.4,14.4c-1,0-2-0.1-3-0.3h-1.9c2.5,1.7,5.5,2.7,8.8,2.7
			c8.7,0,15.7-7,15.7-15.7c0-0.9-0.1-1.8-0.2-2.7H42.6z"/>
	</g>
	<g>
		<path class="st22" d="M3.1,15.3l5.6,9.9h0c0.2,0.4,0.7,0.7,1.2,0.7c0.5,0,1-0.3,1.2-0.7h0l5.7-9.8c0.2-0.2,0.2-0.5,0.2-0.8
			c0-0.7-0.6-1.3-1.3-1.3l-11.5,0c-0.7,0-1.3,0.6-1.3,1.3C2.9,14.8,3,15.1,3.1,15.3z"/>
		<path class="st22" d="M26.7,2.9c0.5,0,1,0,1.5,0.1h3c-2.4-1.6-5.3-2.5-8.4-2.5c-8.7,0-15.7,7-15.7,15.7c0,0.9,0.1,1.8,0.2,2.7h5
			c-0.1-0.5-0.1-1-0.1-1.5C12.3,9.4,18.8,2.9,26.7,2.9z"/>
	</g>
</g>
</svg>
