<?xml version="1.0" encoding="utf-8"?>
<!-- Generator: Adobe Illustrator 16.0.0, SVG Export Plug-In . SVG Version: 6.00 Build 0)  -->
<!DOCTYPE svg PUBLIC "-//W3C//DTD SVG 1.1//EN" "http://www.w3.org/Graphics/SVG/1.1/DTD/svg11.dtd">
<svg version="1.1" id="Layer_1" xmlns="http://www.w3.org/2000/svg" xmlns:xlink="http://www.w3.org/1999/xlink" x="0px" y="0px"
	 width="127px" height="32.11px" viewBox="0 0 127 32.11" enable-background="new 0 0 127 32.11" xml:space="preserve">
<g>
	<path d="M46.117,8.624c-4.577,0-8.2,3.529-8.2,7.994c0,4.604,3.508,8.112,8.109,8.112c2.507,0,4.969-1.141,6.471-2.986
		c1.117-1.365,1.688-3.099,1.688-5.011C54.184,12.042,50.788,8.624,46.117,8.624L46.117,8.624z M46.072,9.716
		c3.326,0,5.423,2.756,5.423,7.153c0,4.1-2.143,6.765-5.445,6.765c-3.326,0-5.444-2.731-5.444-6.992
		C40.606,12.451,42.77,9.716,46.072,9.716L46.072,9.716z M59.756,13.386h-0.773c-1.32,0.249-2.027,0.34-3.372,0.456v0.683
		l0.48,0.045c1.183,0.112,1.502,0.525,1.502,1.891v10.546c0,1.232-0.41,1.8-1.411,1.891l-0.571,0.045v0.684h6.127v-0.684
		l-0.567-0.045c-1.005-0.091-1.415-0.658-1.415-1.891v-3.529c1.047,0.795,2.164,1.162,3.6,1.162c2.892,0,5.081-2.507,5.081-5.788
		c0-1.411-0.48-2.892-1.254-3.917c-0.819-1.072-2.23-1.754-3.711-1.754c-1.506,0-2.689,0.546-3.715,1.708V13.386z M59.756,16.026
		c0.956-1.274,1.846-1.821,3.008-1.821c2.027,0,3.348,1.937,3.348,4.919c0,2.598-1.411,4.488-3.323,4.488
		c-1.142,0-2.167-0.434-3.033-1.253V16.026z M79.692,21.425c-0.819,1.505-1.869,2.188-3.28,2.188c-1.617,0-2.801-0.818-3.417-2.346
		c-0.344-0.798-0.456-1.8-0.456-3.417h7.903c-0.021-1.323-0.319-2.143-1.068-3.008c-0.914-1.071-2.3-1.663-3.896-1.663
		c-3.12,0-5.375,2.346-5.375,5.627c0,1.526,0.567,3.053,1.502,4.1c1.026,1.163,2.416,1.733,4.125,1.733
		c2.094,0,3.554-0.868,4.713-2.85L79.692,21.425z M72.606,16.94c0.161-0.959,0.297-1.369,0.661-1.846
		c0.479-0.662,1.208-1.004,2.119-1.004c1.207,0,2.072,0.571,2.506,1.688c0.092,0.249,0.203,0.84,0.183,1.092v0.07H72.606z
		 M85.763,13.386H84.99c-1.414,0.273-2.167,0.364-3.441,0.456v0.683l0.546,0.045c1.163,0.091,1.506,0.525,1.506,1.891v5.354
		c0,1.253-0.41,1.775-1.415,1.891l-0.567,0.045v0.683h6.128V23.75l-0.57-0.045c-1.002-0.115-1.412-0.638-1.412-1.891v-5.627
		c1.412-1.278,2.756-1.916,4.03-1.916c1.254,0,1.937,0.798,1.937,2.28v5.263c0,1.253-0.409,1.775-1.411,1.891l-0.57,0.045v0.683
		h6.127V23.75l-0.567-0.045c-1.005-0.115-1.414-0.638-1.414-1.891v-5.627c0-1.891-1.296-3.008-3.438-3.008
		c-1.729,0-3.074,0.571-4.692,2.006V13.386z M104.511,21.905l-4.009-10.343c-0.112-0.294-0.203-0.708-0.203-0.935
		c0-0.364,0.249-0.704,0.613-0.819c0.298-0.112,0.524-0.158,1.345-0.182V8.918h-6.811v0.707c0.112,0.024,0.203,0.045,0.228,0.045
		c1.319,0.161,1.709,0.525,2.462,2.325l5.122,12.437h1.369l4.989-12.097c0.956-2.23,1.296-2.528,3.028-2.71V8.918h-6.082v0.707
		c1.457,0.07,2.094,0.5,2.094,1.39c0,0.252-0.091,0.616-0.227,0.956L104.511,21.905z M127,19.762l-0.707-0.295
		c-1.365,2.868-3.575,3.985-7.882,3.985c-1.025,0-1.638-0.046-2.916-0.183l10.661-13.508l-0.248-0.844h-11.278l-1.663,4.124
		l0.753,0.273c1.845-2.528,3.575-3.438,6.562-3.438c1.002,0,1.709,0.066,2.731,0.273l-10.729,13.574l0.435,0.707h12.643L127,19.762z
		 M127,19.762"/>
	<path d="M68.401,29.835l-0.207-0.095c-0.333,0.473-0.515,0.676-0.798,0.89c-0.417,0.312-0.896,0.486-1.341,0.486
		c-0.238,0-0.452-0.073-0.54-0.183c-0.056-0.073-0.087-0.217-0.087-0.438v-3.011c0-0.592,0.104-0.767,0.476-0.802l0.231-0.021
		v-0.227h-2.09v0.227l0.182,0.021c0.382,0.049,0.477,0.203,0.477,0.802v2.86c0,0.596-0.095,0.75-0.477,0.799l-0.182,0.024v0.224
		h3.771L68.401,29.835z M69.657,27.864h-0.249c-0.444,0.081-0.683,0.115-1.067,0.144v0.221l0.144,0.014
		c0.378,0.035,0.479,0.168,0.479,0.603v1.712c0,0.399-0.13,0.567-0.448,0.603l-0.182,0.018v0.217h1.95v-0.217l-0.175-0.018
		c-0.33-0.035-0.452-0.203-0.452-0.603V27.864z M69.321,26.631c-0.245,0-0.441,0.196-0.441,0.438c0,0.249,0.196,0.445,0.435,0.445
		c0.248,0,0.444-0.196,0.444-0.438C69.758,26.838,69.562,26.631,69.321,26.631L69.321,26.631z M71.867,27.864h-0.245
		c-0.451,0.088-0.693,0.115-1.1,0.144v0.221l0.172,0.014c0.375,0.028,0.483,0.168,0.483,0.603v1.712
		c0,0.399-0.133,0.567-0.452,0.603l-0.182,0.018v0.217H72.5v-0.217l-0.182-0.018c-0.319-0.035-0.452-0.203-0.452-0.603v-1.8
		c0.452-0.405,0.883-0.608,1.289-0.608c0.402,0,0.619,0.255,0.619,0.728v1.681c0,0.399-0.133,0.567-0.451,0.603l-0.183,0.018v0.217
		h1.957v-0.217l-0.182-0.018c-0.318-0.035-0.452-0.203-0.452-0.603v-1.8c0-0.602-0.413-0.959-1.099-0.959
		c-0.554,0-0.98,0.182-1.499,0.641V27.864z M78.609,31.393h1.327v-0.217l-0.183-0.018c-0.322-0.035-0.451-0.203-0.451-0.603v-2.692
		h-0.249c-0.378,0.088-0.525,0.102-1.1,0.144v0.221l0.176,0.014c0.371,0.028,0.479,0.168,0.479,0.603v1.625
		c-0.486,0.431-0.917,0.641-1.274,0.641c-0.459,0-0.662-0.249-0.662-0.802v-2.444h-0.245c-0.382,0.088-0.539,0.108-1.1,0.144v0.221
		l0.172,0.014c0.375,0.028,0.483,0.168,0.483,0.603v1.523c0,0.364,0.062,0.566,0.231,0.756c0.195,0.228,0.472,0.337,0.851,0.337
		c0.524,0,0.924-0.176,1.544-0.68V31.393z M82.482,29.363l0.63-0.676c0.396-0.389,0.613-0.512,1.093-0.606v-0.217h-1.533v0.217
		c0.266,0.035,0.325,0.067,0.325,0.189c0,0.053-0.028,0.115-0.073,0.175l-0.616,0.7l-0.578-0.7
		c-0.049-0.073-0.087-0.137-0.087-0.182c0-0.102,0.087-0.154,0.301-0.175l0.07-0.008v-0.217h-1.804v0.217
		c0.351,0.053,0.48,0.141,0.742,0.445l0.851,1.067l-0.924,1.044c-0.326,0.371-0.515,0.486-0.864,0.539v0.217h1.628v-0.217
		l-0.057-0.018c-0.314-0.042-0.431-0.115-0.431-0.259c0-0.074,0.053-0.176,0.133-0.263l0.726-0.816l0.658,0.918
		c0.042,0.06,0.07,0.144,0.07,0.195c0,0.141-0.088,0.189-0.435,0.242v0.217h2.017v-0.217c-0.396-0.066-0.525-0.154-0.848-0.539
		L82.482,29.363z M91.15,26.502h-0.242l-0.15,0.304c-0.431-0.325-0.875-0.466-1.502-0.466c-0.581,0-1.264,0.322-1.709,0.803
		c-0.444,0.473-0.686,1.113-0.686,1.796c0,1.457,1.1,2.549,2.569,2.549c0.942,0,1.685-0.413,2.221-1.254l-0.312-0.171
		c-0.21,0.312-0.356,0.473-0.595,0.647c-0.351,0.259-0.823,0.427-1.201,0.427c-0.451,0-0.977-0.237-1.288-0.588
		c-0.344-0.371-0.532-0.963-0.532-1.617c0-1.289,0.714-2.241,1.673-2.241c0.54,0,1.079,0.305,1.418,0.802
		c0.141,0.203,0.229,0.357,0.452,0.764H91.5L91.15,26.502z M93.961,27.797c-0.508,0-0.96,0.175-1.254,0.473
		c-0.305,0.322-0.508,0.857-0.508,1.369c0,1.1,0.708,1.821,1.789,1.821c1.058,0,1.772-0.729,1.772-1.808
		c0-0.473-0.169-0.952-0.438-1.288C95.015,28,94.529,27.797,93.961,27.797L93.961,27.797z M93.968,28.088
		c0.654,0,1.047,0.605,1.047,1.604c0,0.924-0.378,1.478-1.019,1.478c-0.669,0-1.055-0.564-1.055-1.544
		C92.942,28.694,93.348,28.088,93.968,28.088L93.968,28.088z M97.502,27.864h-0.246c-0.451,0.088-0.692,0.115-1.099,0.144v0.221
		l0.172,0.014c0.374,0.028,0.482,0.168,0.482,0.603v1.712c0,0.399-0.133,0.567-0.451,0.603l-0.183,0.018v0.217h1.958v-0.217
		l-0.183-0.018c-0.318-0.035-0.451-0.203-0.451-0.603v-1.8c0.451-0.405,0.882-0.608,1.288-0.608c0.402,0,0.62,0.255,0.62,0.728
		v1.681c0,0.399-0.134,0.567-0.452,0.603l-0.183,0.018v0.217h1.958v-0.217l-0.183-0.018c-0.318-0.035-0.451-0.203-0.451-0.603v-1.8
		c0-0.602-0.413-0.959-1.1-0.959c-0.553,0-0.98,0.182-1.498,0.641V27.864z M103.305,27.864h-1.04v-1.327h-0.276
		c0.007,0.896-0.315,1.296-1.025,1.327v0.238h0.609v2.44c0,0.357,0.101,0.581,0.336,0.729c0.188,0.115,0.451,0.189,0.707,0.189
		c0.427,0,0.763-0.169,1.025-0.512l-0.195-0.161c-0.249,0.287-0.417,0.382-0.634,0.382c-0.371,0-0.547-0.302-0.547-0.963v-2.104
		h1.04V27.864z M106.295,29.328c-0.872,0.095-0.907,0.102-1.229,0.182c-0.81,0.203-1.222,0.561-1.222,1.047
		c0,0.525,0.473,0.904,1.12,0.904c0.486,0,0.844-0.154,1.33-0.561c0.14,0.392,0.389,0.561,0.816,0.561
		c0.308,0,0.546-0.088,0.749-0.284l-0.137-0.189c-0.123,0.109-0.203,0.144-0.329,0.144c-0.15,0-0.283-0.08-0.34-0.202
		c-0.053-0.103-0.066-0.196-0.066-0.512v-1.541c0-0.438-0.115-0.665-0.417-0.829c-0.27-0.154-0.647-0.249-0.98-0.249
		c-0.314,0-0.707,0.088-0.997,0.21c-0.344,0.154-0.589,0.459-0.589,0.715c0,0.175,0.158,0.318,0.347,0.318
		c0.207,0,0.371-0.165,0.371-0.371l-0.007-0.203c0-0.21,0.329-0.378,0.735-0.378c0.519,0,0.844,0.255,0.844,0.654V29.328z
		 M106.295,30.571c-0.406,0.385-0.711,0.539-1.075,0.539c-0.35,0-0.634-0.277-0.634-0.627c0-0.486,0.609-0.809,1.709-0.903V30.571z
		 M109.282,27.864h-0.248c-0.445,0.081-0.683,0.115-1.068,0.144v0.221l0.144,0.014c0.379,0.035,0.479,0.168,0.479,0.603v1.712
		c0,0.399-0.129,0.567-0.447,0.603l-0.183,0.018v0.217h1.95v-0.217l-0.175-0.018c-0.329-0.035-0.452-0.203-0.452-0.603V27.864z
		 M108.946,26.631c-0.245,0-0.441,0.196-0.441,0.438c0,0.249,0.196,0.445,0.435,0.445c0.249,0,0.444-0.196,0.444-0.438
		C109.383,26.838,109.188,26.631,108.946,26.631L108.946,26.631z M111.493,27.864h-0.245c-0.452,0.088-0.693,0.115-1.1,0.144v0.221
		l0.172,0.014c0.374,0.028,0.482,0.168,0.482,0.603v1.712c0,0.399-0.133,0.567-0.451,0.603l-0.183,0.018v0.217h1.958v-0.217
		l-0.183-0.018c-0.318-0.035-0.451-0.203-0.451-0.603v-1.8c0.451-0.405,0.882-0.608,1.288-0.608c0.402,0,0.62,0.255,0.62,0.728
		v1.681c0,0.399-0.134,0.567-0.452,0.603l-0.182,0.018v0.217h1.957v-0.217l-0.182-0.018c-0.319-0.035-0.452-0.203-0.452-0.603v-1.8
		c0-0.602-0.413-0.959-1.1-0.959c-0.553,0-0.979,0.182-1.498,0.641V27.864z M118.14,30.434c-0.263,0.479-0.596,0.696-1.047,0.696
		c-0.519,0-0.896-0.263-1.093-0.749c-0.108-0.256-0.147-0.574-0.147-1.093h2.528c-0.007-0.42-0.102-0.683-0.343-0.959
		c-0.291-0.343-0.735-0.532-1.243-0.532c-0.998,0-1.72,0.75-1.72,1.796c0,0.49,0.183,0.978,0.479,1.313
		c0.329,0.371,0.774,0.554,1.317,0.554c0.672,0,1.138-0.277,1.509-0.911L118.14,30.434z M115.878,28.999
		c0.049-0.305,0.094-0.438,0.209-0.589c0.154-0.213,0.386-0.321,0.677-0.321c0.385,0,0.661,0.182,0.802,0.539
		c0.027,0.08,0.066,0.27,0.06,0.35v0.021H115.878z M120.081,27.864h-0.245c-0.452,0.088-0.693,0.115-1.1,0.144v0.221l0.172,0.014
		c0.374,0.028,0.483,0.168,0.483,0.603v1.712c0,0.399-0.134,0.567-0.452,0.603l-0.183,0.018v0.217h1.958v-0.217l-0.183-0.018
		c-0.318-0.035-0.451-0.203-0.451-0.603v-1.782c0.263-0.294,0.459-0.409,0.669-0.409c0.126,0,0.175,0.021,0.308,0.108
		c0.123,0.095,0.238,0.133,0.371,0.133c0.238,0,0.413-0.168,0.413-0.402c0-0.238-0.217-0.406-0.528-0.406
		c-0.168,0-0.344,0.035-0.519,0.115c-0.175,0.074-0.21,0.102-0.561,0.403c-0.021,0.021-0.08,0.069-0.153,0.129V27.864z
		 M124.837,27.892h-0.202l-0.074,0.263c-0.312-0.249-0.634-0.357-1.04-0.357c-0.742,0-1.334,0.466-1.334,1.064
		c0,0.455,0.315,0.725,1.086,0.924l0.931,0.231c0.364,0.095,0.532,0.249,0.532,0.479c0,0.379-0.405,0.673-0.938,0.673
		c-0.452,0-0.896-0.2-1.166-0.525c-0.13-0.154-0.203-0.298-0.305-0.574h-0.249l0.249,1.296h0.238l0.08-0.309
		c0.396,0.301,0.7,0.403,1.173,0.403c0.876,0,1.513-0.505,1.513-1.181c0-0.494-0.291-0.788-0.925-0.938l-1.012-0.248
		c-0.172-0.042-0.259-0.074-0.34-0.109c-0.14-0.073-0.228-0.202-0.228-0.35c0-0.312,0.309-0.546,0.735-0.546
		c0.554,0,1.033,0.35,1.274,0.924h0.234L124.837,27.892z M124.837,27.892"/>
	<path fill="#18381F" d="M32.015,31.578c1.355-0.458,1.535-1.648,1.535-1.648c-0.198,0.315-0.589,0.598-1.5,0.598
		c-1.05,0-2.486-0.387-4.272-1.146c-0.505,0.242-1.205,0.54-2.006,0.831c1.646,0.787,3.06,1.325,4.269,1.622
		C30.261,31.875,30.927,31.945,32.015,31.578"/>
	<g>
		<defs>
			<rect id="SVGID_1_" width="35.384" height="32.11"/>
		</defs>
		<clipPath id="SVGID_2_">
			<use xlink:href="#SVGID_1_"  overflow="visible"/>
		</clipPath>
		<path clip-path="url(#SVGID_2_)" fill="#D61D29" d="M19.85,2.057c0.004,0.005,0.01,0.01,0.014,0.016
			c-0.002-0.003-0.004-0.005-0.006-0.008C19.855,2.062,19.853,2.059,19.85,2.057"/>
		<path clip-path="url(#SVGID_2_)" fill="#206932" d="M21.344,2.167c0.582,0.539,0.893,1.195,1.056,1.673
			c-0.164-0.597-0.351-1.123-0.562-1.574c-0.883-1.878-2.083-2.272-2.936-2.272c-2.972,0-6.069,4.804-7.65,7.667
			c-2.329,4.217-4.205,9.24-4.942,13.208c-0.001,0.002-0.003,0.004-0.006,0.005c-0.111,0.704-0.208,1.42-0.288,2.102
			c0.001-0.002,0.002-0.002,0.003-0.002c-0.187,2.229,0.129,3.843,0.945,4.811c0.555,0.659,1.339,1.007,2.268,1.007
			c0.728,0,1.556-0.211,2.49-0.631c-1.797,0.756-3.097-1.06-3.097-1.06h0.001c-0.176-0.073-0.324-0.185-0.453-0.336
			c-0.382-0.453-0.93-1.692-0.421-4.943V21.82c0.001-0.005,0.083-0.537,0.152-0.95c0.086-0.508,0.277-1.186,0.277-1.186l0.001-0.002
			c-0.001,0-0.001,0.001-0.002,0.001c0.852-3.535,2.485-7.688,4.457-11.257c2.789-5.05,5.064-6.85,6.264-6.85
			c0.07,0,0.139,0.007,0.208,0.021c-0.021-0.003-0.035-0.006-0.035-0.006S20.294,1.197,21.344,2.167"/>
	</g>
	<path fill="#D61D29" d="M19.182,1.616c-0.019-0.005-0.037-0.011-0.051-0.014C19.148,1.605,19.165,1.611,19.182,1.616"/>
	<path fill="#8A1726" d="M19.131,1.602c-0.008-0.001-0.016-0.002-0.022-0.004C19.116,1.599,19.122,1.601,19.131,1.602"/>
	<path fill="#8A1726" d="M19.182,1.616c0.14,0.04,0.399,0.148,0.668,0.44C19.643,1.828,19.419,1.681,19.182,1.616"/>
	<path fill="#18381F" d="M23.1,8.405c-0.13-1.814-0.365-3.34-0.7-4.565c-0.163-0.478-0.474-1.134-1.056-1.673
		c-1.05-0.971-2.271-0.576-2.271-0.576s0.014,0.002,0.035,0.006c0.007,0.002,0.015,0.003,0.022,0.004
		c0.014,0.003,0.032,0.009,0.051,0.014c0.237,0.064,0.46,0.212,0.668,0.44c0.002,0.002,0.005,0.005,0.008,0.008
		c0.002,0.002,0.004,0.005,0.006,0.008c0.711,0.795,1.24,2.529,1.528,5.04C21.894,7.458,22.487,7.9,23.1,8.405"/>
	<polyline fill="#DBDAD7" points="19.303,24.687 19.29,24.688 19.299,24.689 19.303,24.687 	"/>
	<g>
		<defs>
			<rect id="SVGID_3_" width="35.384" height="32.11"/>
		</defs>
		<clipPath id="SVGID_4_">
			<use xlink:href="#SVGID_3_"  overflow="visible"/>
		</clipPath>
		<path clip-path="url(#SVGID_4_)" fill="#DBDAD7" d="M13.344,19.012c0.018,0.078,0.047,0.167,0.088,0.266
			C13.397,19.188,13.367,19.099,13.344,19.012"/>
		<path clip-path="url(#SVGID_4_)" fill="#206932" d="M29.145,24.62L29.145,24.62c0.009,0.063,0.014,0.121,0.014,0.171
			c-0.006,0.843-1.04,1.796-2.842,2.663c-0.084,0.045-0.189,0.095-0.319,0.149c-0.012,0.005-0.021,0.008-0.032,0.013
			c-0.191,0.087-0.39,0.172-0.596,0.256c-0.206,0.094-0.126,0.068-0.378,0.152c0,0-0.651,0.25-1.065,0.383
			c-0.472,0.151-1.009,0.309-1.009,0.309h-0.001c-0.015,0.005-0.032,0.01-0.046,0.014c-0.256,0.071-0.471,0.132-0.674,0.188
			c-0.016,0.005-0.031,0.008-0.046,0.013c-0.263,0.071-0.511,0.136-0.809,0.206c-0.003,0-0.007,0-0.011,0.001
			c-3.438,0.835-7.509,1.339-11.164,1.339c-4.48,0-7.708-0.788-8.428-2.03c0,0-0.817-0.852-0.548-2.257
			c0.248-1.296,0.702-1.86,0.771-1.94c-1.634,1.649-2.24,3.109-1.844,4.415c0.852,2.807,5.935,3.396,10.049,3.396
			c4.954,0,10.667-0.898,14.682-2.298c0.002,0.001,0.003,0.001,0.005,0.002c0.681-0.259,1.356-0.533,1.984-0.801
			c2.583-1.199,3.894-2.595,3.903-4.161c0.007-1.216-0.778-2.368-2.376-3.476C30.013,22.472,29.145,24.62,29.145,24.62"/>
	</g>
	<path fill="#D61D29" d="M16.186,22.761c0.002,0.006,0.004,0.011,0.007,0.017C16.19,22.772,16.188,22.767,16.186,22.761"/>
	<path fill="#1F6531" d="M22.751,20.348c-0.144-0.054-0.245-0.083-0.489-0.175c0-0.001,0-0.001,0.001-0.001
		c-0.394,0.32-0.893,0.685-1.255,0.942c-0.007,0.006-0.014,0.012-0.02,0.017c-0.171,0.777-0.356,1.402-0.544,1.9
		c0.002-0.002,0.004-0.005,0.004-0.005s-0.036,0.104-0.104,0.269c-0.044,0.108-0.101,0.243-0.172,0.396
		c-0.152,0.331-0.44,0.833-0.722,0.961c0,0.001,0,0.001,0,0.001c-0.343,0.191-2.01,0.721-3.175-1.703
		c-0.027-0.056-0.054-0.114-0.08-0.173c-0.002-0.006-0.004-0.011-0.007-0.017c-0.013-0.029-0.027-0.058-0.04-0.088
		c0.124,0.356,0.243,0.688,0.335,0.908c0.258,0.623,0.568,1.163,0.834,1.487c0.049,0.058,0.101,0.116,0.154,0.173
		c0.006,0.006,0.013,0.012,0.019,0.02c0.15,0.158,0.318,0.312,0.501,0.457c0.596,0.425,1.002,0.524,1.576,0.474
		c0.672-0.061,1.145-0.536,1.145-0.536s0,0,0-0.001C21.777,24.623,22.395,22.451,22.751,20.348"/>
	<g>
		<defs>
			<rect id="SVGID_5_" width="35.384" height="32.11"/>
		</defs>
		<clipPath id="SVGID_6_">
			<use xlink:href="#SVGID_5_"  overflow="visible"/>
		</clipPath>
		<path clip-path="url(#SVGID_6_)" fill="#206932" d="M17.247,17.048c-0.302-0.05-0.638-0.104-0.951-0.152
			c0.001,0.002,0.004,0.005,0.004,0.005c-0.048-0.009-0.098-0.018-0.15-0.026c-0.287-0.043-0.548-0.078-0.736-0.097
			c-0.544-0.054-1.054-0.051-1.448-0.004c-0.292,0.04-0.585,0.107-0.865,0.218c-0.053,0.025-0.105,0.048-0.159,0.074l-0.001,0.001
			c-0.056,0.023-0.108,0.051-0.16,0.078c-0.049,0.033-0.616,0.439-0.874,1.098c-0.269,0.688-0.092,1.176-0.092,1.176
			c0.37,1.46,1.977,3.097,3.576,4.42c-0.022,0.018-0.044,0.036-0.065,0.053c-0.104,0.085-0.205,0.168-0.307,0.248
			c0.273-0.218,0.439-0.344,0.826-0.712c0.002,0.013,0.005,0.025,0.008,0.037c-0.097-0.486-0.184-1.086-0.242-1.529
			c-0.618-0.562-1.081-1.054-1.425-1.479l-0.001,0.002c0,0-0.002-0.004-0.004-0.006c0.012,0.019,0.019,0.03,0.019,0.03
			s-0.028-0.037-0.074-0.1c-0.015-0.019-0.032-0.039-0.051-0.063c-0.001-0.002-0.002-0.003-0.003-0.004
			c-0.086-0.112-0.212-0.278-0.347-0.476c-0.018-0.026-0.036-0.055-0.053-0.083c-0.092-0.147-0.175-0.312-0.24-0.479
			c-0.041-0.099-0.07-0.188-0.088-0.266c-0.035-0.131-0.057-0.256-0.059-0.364c-0.006-0.404,0.648-1.831,3.801-1.595
			c0.105,0.009,0.213,0.018,0.325,0.029C17.356,17.071,17.3,17.059,17.247,17.048"/>
		<path clip-path="url(#SVGID_6_)" fill="#206932" d="M23.229,9.395c-0.617-0.501-1.237-0.979-1.806-1.405
			c-1.539-1.057-2.881-1.593-4.003-1.593c-0.897,0-1.667,0.347-2.225,1.002c-1.19,1.401-1.427,4.179-0.722,8.492
			c0.002,0.012,0.004,0.02,0.004,0.029c0.352,0.061,0.759,0.142,1.116,0.245c0.593,0.172,1.472,0.523,1.952,0.719
			c0.005,0.002,0.011,0.004,0.017,0.006c0.734-0.233,1.404-0.398,1.987-0.491h0c0,0,0.017-0.003,0.039-0.007
			c0.1-0.019,0.393-0.068,0.737-0.1c0.059-0.005,0.122-0.01,0.186-0.012c0.019-0.002,0.037-0.003,0.055-0.005
			c0.426-0.034,0.817-0.047,1.115,0.118c0.366,0.202,1.333,1.56-0.691,4.369c-0.019,0.025-0.041,0.056-0.065,0.086
			c0.015-0.017,0.03-0.033,0.045-0.05c0.008-0.01,0.018-0.019,0.025-0.029c0.401-0.458,0.853-0.986,1.089-1.293
			c0.412-0.539,0.726-1.082,0.872-1.476c0.1-0.312,0.169-0.655,0.19-1.038l0-0.006c0-0.002,0-0.003,0-0.004l0.003-0.047
			c0.002-0.021,0.003-0.043,0.004-0.064c-0.005-0.101-0.062-0.824-0.518-1.297c-0.512-0.532-0.974-0.666-0.974-0.666
			s-0.002-0.004-0.003-0.006c-0.329-0.095-0.708-0.143-1.136-0.143c-1.145,0-2.677,0.346-4.472,1.004
			c-0.005-0.032-0.011-0.065-0.016-0.098c-0.809-4.947-0.118-6.641,0.366-7.21c0.258-0.305,0.581-0.445,1.018-0.445
			c0.899,0,2.183,0.606,3.668,1.721c0.003,0.003,0.008,0.004,0.011,0.007c0.16,0.118,0.331,0.249,0.508,0.389v0v0
			c0,0,0.617,0.501,0.96,0.83c0.317,0.303,0.673,0.602,0.675,0.603v-0.001c0.123,0.119,0.246,0.24,0.368,0.363
			c0.019,0.019,0.032,0.034,0.05,0.051c5.733,5.62,11.072,14.801,10.018,17.72c-0.032,0.088-0.073,0.179-0.128,0.268
			c0,0-0.18,1.19-1.535,1.648c-1.088,0.367-1.754,0.298-1.975,0.257c0.747,0.184,1.416,0.275,2.01,0.275
			c2.005,0,2.801-1.039,3.116-1.91C36.776,25.743,29.094,14.451,23.229,9.395"/>
	</g>
	<path fill="#18381F" d="M22.751,20.348c0.094,0.035,0.188,0.071,0.283,0.106c5.083,1.922,5.997,3.457,6.11,4.165h0.001
		c0,0,0.868-2.147-0.78-3.295c-1.159-0.804-2.745-1.585-4.771-2.351c-0.036-0.014-0.063-0.024-0.089-0.033
		c-0.268,0.307-0.647,0.717-1.013,1.037c-0.07,0.062-0.149,0.127-0.23,0.194c-0.001,0-0.001,0-0.001,0.001
		C22.506,20.265,22.607,20.294,22.751,20.348"/>
	<path fill="#18381F" d="M23.926,28.407c0.415-0.133,1.065-0.383,1.065-0.383c-0.322-0.149-0.719-0.341-1.047-0.515
		c-1.141-0.61-2.225-1.23-3.235-1.854c0,0-0.473,0.476-1.145,0.536c-0.574,0.051-0.979-0.049-1.576-0.474
		c0.091,0.073,0.185,0.145,0.284,0.212c0.155,0.105,0.298,0.213,0.46,0.316c0.967,0.642,1.723,1.123,2.769,1.719
		c0.009,0.006,0.135,0.08,0.145,0.085l0.355,0.201c0.003-0.002,0.005-0.002,0.008-0.003c0.281,0.149,0.607,0.316,0.906,0.467
		c0,0,0,0-0.001,0h0.001C22.917,28.715,23.454,28.558,23.926,28.407"/>
	<path fill="#18381F" d="M15.019,24.139c-0.001,0.002-0.004,0.004-0.007,0.006l-0.001,0.001c-3.15,2.522-4.879,3.062-5.78,3.062
		c-0.233,0-0.433-0.035-0.605-0.107H8.625c0,0,1.3,1.815,3.097,1.06c1.314-0.59,2.839-1.598,4.604-3.042
		c0.007-0.005,0.013-0.01,0.019-0.015c-0.144-0.379-0.323-0.895-0.434-1.359c-0.013-0.055-0.025-0.114-0.038-0.174
		c-0.007-0.034-0.014-0.07-0.021-0.105c-0.003-0.012-0.005-0.024-0.008-0.037C15.458,23.795,15.292,23.921,15.019,24.139"/>
	<polyline fill="#8A1726" points="15.012,24.145 15.019,24.139 15.011,24.146 15.012,24.145 	"/>
	<path fill="#18381F" d="M21.607,10.096L21.607,10.096c0.021,0.371,0.042,0.791,0.052,1.113c0.021,0.738,0.043,2.446,0.007,3.663
		c-0.003,0-0.005-0.001-0.008-0.001c0.001,0.001,0.003,0.006,0.003,0.006s0.462,0.134,0.974,0.666
		c0.455,0.473,0.512,1.196,0.518,1.297c0.084-1.219,0.121-2.482,0.114-3.828c0,0,0,0,0.001-0.001
		c0.029-0.211-0.001-0.931-0.026-1.482c-0.001-0.001-0.358-0.3-0.675-0.603C22.224,10.597,21.607,10.096,21.607,10.096"/>
	<path fill="#18381F" d="M11.815,19.418c0,0-0.177-0.488,0.092-1.176c0.257-0.658,0.825-1.064,0.874-1.098
		c-0.009,0.005-0.021,0.008-0.03,0.014l-0.002,0.002c-1.461,0.713-2.99,1.559-4.566,2.521l-0.001,0.002c0,0-0.191,0.678-0.277,1.186
		c-0.069,0.413-0.151,0.945-0.152,0.95C9.145,20.927,10.504,20.123,11.815,19.418"/>
	<path fill="#18381F" d="M1.738,28.445L1.738,28.445c-0.045-0.079-0.081-0.159-0.106-0.243c-0.157-0.516-0.06-1.938,3.575-4.644
		c0.058-0.605,0.156-1.353,0.305-2.156c-1.486,1.008-2.668,1.955-3.55,2.846c-0.068,0.08-0.523,0.645-0.771,1.94
		C0.921,27.593,1.738,28.445,1.738,28.445"/>
	<polyline fill="#8A1726" points="19.29,24.688 19.287,24.687 19.288,24.688 19.29,24.688 	"/>
	<polyline fill="#18381F" points="19.299,26.481 19.303,26.479 19.29,26.48 19.299,26.481 	"/>
	<path fill="#18381F" d="M17.648,21.835c-0.419-1.042-0.822-2.526-0.968-3.085c1.019,0.168,2.571,0.497,3.162,0.623
		C19.201,20.136,18.193,21.243,17.648,21.835L17.648,21.835z M20.924,20.846c0.024-0.03,0.046-0.061,0.065-0.086
		c2.025-2.81,1.058-4.167,0.691-4.369c-0.298-0.165-0.689-0.152-1.115-0.118c-0.018,0.002-0.037,0.003-0.055,0.005
		c-0.064,0.002-0.127,0.007-0.186,0.012c-0.345,0.032-0.637,0.082-0.737,0.1c0.176-0.008,0.869-0.015,1.093,0.35
		c0.164,0.266,0.137,0.735-0.005,1.213c-0.724-0.224-2.655-0.804-3.238-0.866c-0.12-0.012-0.237-0.023-0.352-0.034
		c-3.152-0.236-3.807,1.19-3.801,1.595c0.001,0.108,0.023,0.233,0.059,0.364c0.023,0.087,0.053,0.176,0.088,0.266
		c0.016,0.039,0.034,0.079,0.054,0.122c0.055,0.125,0.117,0.246,0.186,0.357c0.018,0.028,0.035,0.057,0.053,0.083
		c0.134,0.197,0.26,0.363,0.347,0.476c0.001,0.001,0.002,0.002,0.003,0.004c0.019,0.024,0.036,0.045,0.051,0.063
		c0.046,0.062,0.074,0.1,0.074,0.1s-0.007-0.012-0.019-0.03c0.002,0.002,0.004,0.006,0.004,0.006l0.001-0.002
		c-0.003-0.004-0.006-0.008-0.01-0.011c-0.096-0.154-0.433-0.75-0.226-1.123c0.152-0.275,0.584-0.481,1.075-0.591
		c0.158,0.765,0.839,3.216,1.051,3.761c0.036,0.093,0.073,0.183,0.11,0.269c0.002,0.006,0.004,0.011,0.007,0.017
		c0.026,0.06,0.053,0.116,0.08,0.173c1.166,2.424,2.832,1.895,3.175,1.703c0,0,0,0,0-0.001c0.282-0.128,0.57-0.63,0.722-0.961
		c0.071-0.153,0.128-0.288,0.172-0.396c-0.149,0.236-0.42,0.577-0.741,0.587c-0.321,0.009-0.729-0.266-1.078-0.643
		c0.03-0.015,0.058-0.033,0.086-0.06c0.532-0.499,2.034-1.926,2.382-2.409c0.001-0.001,0.002-0.002,0.003-0.004
		c-0.008,0.011-0.018,0.02-0.025,0.029C20.955,20.813,20.939,20.83,20.924,20.846"/>
	<polyline fill="#18381F" points="19.288,26.48 19.29,26.48 19.287,26.479 19.288,26.48 	"/>
	<path fill="#18381F" d="M14.479,15.919c0.351,0.061,0.757,0.142,1.114,0.245c0.177,0.051,0.38,0.119,0.59,0.193
		c-0.112-0.54-0.273-1.386-0.345-2.09c-0.115-1.128-0.265-2.746-0.06-4.204s0.909-1.892,0.909-1.892s-2.369,0.195-2.55,2.225
		c-0.18,2.029,0.092,3.809,0.153,4.256C14.341,15.02,14.422,15.552,14.479,15.919"/>
</g>
</svg>
