<?xml version="1.0" encoding="utf-8"?>
<!-- Generator: Adobe Illustrator 16.0.0, SVG Export Plug-In . SVG Version: 6.00 Build 0)  -->
<!DOCTYPE svg PUBLIC "-//W3C//DTD SVG 1.1//EN" "http://www.w3.org/Graphics/SVG/1.1/DTD/svg11.dtd">
<svg version="1.1" id="Layer_1" xmlns="http://www.w3.org/2000/svg" xmlns:xlink="http://www.w3.org/1999/xlink" x="0px" y="0px"
	 width="61.798px" height="62.132px" viewBox="0 0 61.798 62.132" enable-background="new 0 0 61.798 62.132" xml:space="preserve">
<g>
	<path fill="#2F3F4D" d="M61.798,56.725c0,1.873-1.516,3.393-3.394,3.393H3.392C1.52,60.117,0,58.598,0,56.725l0,0
		c0-1.875,1.52-3.392,3.392-3.392h55.013C60.282,53.333,61.798,54.85,61.798,56.725L61.798,56.725z"/>
	<path fill="#7DCDF4" d="M46.108,59.654c0,1.37-1.107,2.478-2.476,2.478H18.164c-1.367,0-2.474-1.107-2.474-2.478v-5.86
		c0-1.368,1.106-2.476,2.474-2.476h25.468c1.366,0,2.476,1.107,2.476,2.476V59.654z"/>
	<path fill="#7DCDF4" d="M33.833,44.109c1.365,0,2.474,1.107,2.474,2.478v10.61c0,1.365-1.109,2.476-2.474,2.476h-5.869
		c-1.365,0-2.474-1.107-2.474-2.476v-10.61c0-1.37,1.109-2.478,2.474-2.478H33.833z"/>
	<rect x="25.49" y="44.109" opacity="0.1" fill="#12110B" enable-background="new    " width="10.817" height="5.308"/>
	<path fill="#4593C4" d="M61.754,41.34c0,3.196-2.592,5.788-5.789,5.788H5.851c-3.197,0-5.787-2.592-5.787-5.788V5.79
		C0.064,2.592,2.654,0,5.851,0h50.113c3.197,0,5.789,2.592,5.789,5.79v35.55H61.754z"/>
	<path fill="#2F3F4D" d="M57.902,37.161c0,3.348-2.713,6.061-6.062,6.061H9.265c-3.343,0-6.06-2.713-6.06-6.061l0,0
		c0-3.347,2.716-6.06,6.06-6.06h42.573C55.188,31.102,57.902,33.814,57.902,37.161L57.902,37.161z"/>
	<path fill="#2F3F4D" d="M57.902,23.628c0,3.347-2.713,6.059-6.062,6.059H9.265c-3.343,0-6.06-2.712-6.06-6.059l0,0
		c0-3.349,2.716-6.061,6.06-6.061h42.573C55.188,17.565,57.902,20.279,57.902,23.628L57.902,23.628z"/>
	<path fill="#2F3F4D" d="M57.902,10.091c0,3.347-2.713,6.06-6.062,6.06H9.265c-3.343,0-6.06-2.713-6.06-6.06l0,0
		c0-3.348,2.716-6.061,6.06-6.061h42.573C55.188,4.03,57.902,6.743,57.902,10.091L57.902,10.091z"/>
	<circle fill="#7DCDF4" cx="9.31" cy="10.09" r="2.825"/>
	<circle fill="#7DCDF4" cx="9.31" cy="23.725" r="2.824"/>
	<circle fill="#7DCDF4" cx="9.31" cy="37.228" r="2.824"/>
	<g>
		<path fill="#FFFFFF" d="M51.997,8.333c0,0.536-0.309,0.97-0.688,0.97H17.364c-0.38,0-0.689-0.434-0.689-0.97l0,0
			c0-0.534,0.309-0.97,0.689-0.97H51.31C51.688,7.363,51.997,7.799,51.997,8.333L51.997,8.333z"/>
		<path fill="#FFFFFF" d="M51.997,11.846c0,0.536-0.309,0.972-0.688,0.972H17.364c-0.38,0-0.689-0.436-0.689-0.972l0,0
			c0-0.534,0.309-0.968,0.689-0.968H51.31C51.688,10.878,51.997,11.312,51.997,11.846L51.997,11.846z"/>
	</g>
	<g>
		<path fill="#FFFFFF" d="M51.997,21.87c0,0.536-0.309,0.971-0.688,0.971H17.364c-0.38,0-0.689-0.434-0.689-0.971l0,0
			c0-0.538,0.309-0.972,0.689-0.972H51.31C51.688,20.898,51.997,21.332,51.997,21.87L51.997,21.87z"/>
		<path fill="#FFFFFF" d="M51.997,25.383c0,0.534-0.309,0.97-0.688,0.97H17.364c-0.38,0-0.689-0.434-0.689-0.97l0,0
			c0-0.538,0.309-0.972,0.689-0.972H51.31C51.688,24.411,51.997,24.845,51.997,25.383L51.997,25.383z"/>
	</g>
	<g>
		<path fill="#FFFFFF" d="M51.997,35.404c0,0.537-0.309,0.974-0.688,0.974H17.364c-0.38,0-0.689-0.437-0.689-0.974l0,0
			c0-0.536,0.309-0.97,0.689-0.97H51.31C51.688,34.437,51.997,34.87,51.997,35.404L51.997,35.404z"/>
		<path fill="#FFFFFF" d="M51.997,38.919c0,0.535-0.309,0.972-0.688,0.972H17.364c-0.38,0-0.689-0.434-0.689-0.972l0,0
			c0-0.536,0.309-0.972,0.689-0.972H51.31C51.688,37.949,51.997,38.385,51.997,38.919L51.997,38.919z"/>
	</g>
	<path opacity="0.1" fill="#12110B" enable-background="new    " d="M61.754,41.34c0,3.196-2.592,5.788-5.789,5.788H5.851L55.964,0
		c3.197,0,5.789,2.592,5.789,5.79v35.55H61.754z"/>
</g>
</svg>
