<?xml version="1.0" encoding="utf-8"?>
<!-- Generator: Adobe Illustrator 20.0.0, SVG Export Plug-In . SVG Version: 6.00 Build 0)  -->
<svg version="1.1" baseProfile="basic"
	 xmlns="http://www.w3.org/2000/svg" xmlns:xlink="http://www.w3.org/1999/xlink" x="0px" y="0px" width="63px" height="72px"
	 viewBox="0 0 63 72" xml:space="preserve">
<g>
	<g>
		<polygon fill="#FFE9C9" points="52.1,71.9 0.1,72 0,12.3 12.2,0.1 52,0 		"/>
		<g opacity="0.5">
			<g>
				<path fill="#FF9D03" d="M43.8,18.4c0,0.5-0.4,0.9-0.9,0.9L9.7,19.3c-0.5,0-0.9-0.4-0.9-0.9l0,0c0-0.5,0.4-0.9,0.9-0.9l33.2-0.1
					C43.4,17.5,43.8,17.9,43.8,18.4L43.8,18.4z"/>
				<path fill="#FF9D03" d="M43.8,23.7c0,0.5-0.4,0.9-0.9,0.9L9.8,24.6c-0.5,0-0.9-0.4-0.9-0.9l0,0c0-0.5,0.4-0.9,0.9-0.9l33.2-0.1
					C43.4,22.8,43.8,23.2,43.8,23.7L43.8,23.7z"/>
				<path fill="#FF9D03" d="M43.8,29c0,0.5-0.4,0.9-0.9,0.9L9.8,30c-0.5,0-0.9-0.4-0.9-0.9l0,0c0-0.5,0.4-0.9,0.9-0.9l33.2-0.1
					C43.4,28.2,43.8,28.5,43.8,29L43.8,29z"/>
				<path fill="#FF9D03" d="M43.8,34.4c0,0.5-0.4,0.9-0.9,0.9L9.8,35.3c-0.5,0-0.9-0.4-0.9-0.9l0,0c0-0.5,0.4-0.9,0.9-0.9l33.2-0.1
					C43.4,33.5,43.8,33.9,43.8,34.4L43.8,34.4z"/>
				<path fill="#FF9D03" d="M43.8,40.4c0,0.5-0.4,0.9-0.9,0.9L9.8,41.4c-0.5,0-0.9-0.4-0.9-0.9l0,0c0-0.5,0.4-0.9,0.9-0.9L43,39.6
					C43.4,39.6,43.8,40,43.8,40.4L43.8,40.4z"/>
			</g>
			<path fill="#FF9D03" d="M43.8,45.9c0,0.5-0.4,0.9-0.9,0.9L9.7,46.8c-0.5,0-0.9-0.4-0.9-0.9l0,0c0-0.5,0.4-0.9,0.9-0.9L42.9,45
				C43.4,45,43.8,45.4,43.8,45.9L43.8,45.9z"/>
			<path fill="#FF9D03" d="M43.8,51.2c0,0.5-0.4,0.9-0.9,0.9L9.7,52.1c-0.5,0-0.9-0.4-0.9-0.9l0,0c0-0.5,0.4-0.9,0.9-0.9l33.2-0.1
				C43.4,50.3,43.8,50.7,43.8,51.2L43.8,51.2z"/>
			<path fill="#FF9D03" d="M43.8,56.5c0,0.5-0.4,0.9-0.9,0.9L9.7,57.4c-0.5,0-0.9-0.4-0.9-0.9l0,0c0-0.5,0.4-0.9,0.9-0.9l33.2-0.1
				C43.4,55.6,43.8,56,43.8,56.5L43.8,56.5z"/>
			<path fill="#FF9D03" d="M43.8,61.8c0,0.5-0.4,0.9-0.9,0.9L9.8,62.7c-0.5,0-0.9-0.4-0.9-0.9l0,0c0-0.5,0.4-0.9,0.9-0.9l33.2-0.1
				C43.4,60.9,43.8,61.3,43.8,61.8L43.8,61.8z"/>
		</g>
		<polygon fill="#EDC096" points="12.2,12.3 0,12.3 12.2,0.1 		"/>
	</g>
	<g>
		<g>
			<line fill="none" stroke="#1A1A1A" stroke-width="2.2462" stroke-miterlimit="10" x1="19.2" y1="19.9" x2="19.2" y2="11.5"/>
			<line fill="none" stroke="#1A1A1A" stroke-width="2.2462" stroke-miterlimit="10" x1="19.2" y1="45.6" x2="19.2" y2="37.1"/>
		</g>
		<g>
			<line fill="none" stroke="#1A1A1A" stroke-width="2.2462" stroke-miterlimit="10" x1="10.6" y1="28.5" x2="2.1" y2="28.5"/>
			<line fill="none" stroke="#1A1A1A" stroke-width="2.2462" stroke-miterlimit="10" x1="36.2" y1="28.5" x2="27.8" y2="28.5"/>
		</g>
	</g>
	<g>
		<g>

				<ellipse transform="matrix(0.7074 -0.7068 0.7068 0.7074 -14.5497 21.9078)" opacity="0.2" fill="#3FA9F5" cx="19.2" cy="28.5" rx="17" ry="17"/>
			<path fill="#103754" d="M32.5,41.8c-7.3,7.3-19.3,7.3-26.6,0c-7.3-7.3-7.3-19.3,0-26.6c7.3-7.3,19.3-7.3,26.6,0
				C39.8,22.6,39.8,34.5,32.5,41.8z M8.4,17.7c-6,5.9-6,15.6,0,21.6c5.9,6,15.6,6,21.6,0c6-5.9,6-15.6,0-21.6
				C24,11.8,14.4,11.8,8.4,17.7z"/>
		</g>
		<g>
			<line fill="#103754" x1="31.2" y1="40.6" x2="43.3" y2="52.6"/>

				<rect x="35.5" y="38.1" transform="matrix(0.7074 -0.7068 0.7068 0.7074 -22.0447 39.9668)" fill="#103754" width="3.5" height="17"/>
		</g>
		<path fill="#F1A100" d="M61,70.4L61,70.4c-2,2-5.1,2-7,0.1L36.5,52.8c-1.9-1.9-1.9-5,0-6.9l0.1-0.1c1.9-1.9,5-1.9,6.9,0L61,63.4
			C63,65.3,63,68.4,61,70.4z"/>
		<path opacity="0.2" d="M36.5,45.8L36.5,45.8L61,70.4l0,0c1.9-1.9,1.9-5,0-6.9L43.5,45.8C41.6,43.9,38.5,43.9,36.5,45.8z"/>
		<g opacity="0.5">
			<path fill="#FFFFFF" d="M8.5,32.4c-1.5-4-0.6-8.7,2.6-12"/>
			<path fill="#FFFFFF" d="M9.8,33.7c-0.2,0.2-0.4,0.3-0.6,0.4c-0.9,0.3-1.9-0.1-2.3-1.1c-1.8-4.8-0.6-10.2,3-13.8
				c0.7-0.7,1.8-0.7,2.5,0c0.7,0.7,0.7,1.8,0,2.5c-2.6,2.6-3.5,6.6-2.2,10.1C10.4,32.5,10.2,33.2,9.8,33.7z"/>
		</g>
		<circle fill="#F54E41" cx="19.2" cy="28.5" r="2.5"/>
	</g>
</g>
<g>
</g>
<g>
</g>
<g>
</g>
<g>
</g>
<g>
</g>
<g>
</g>
<g>
</g>
<g>
</g>
<g>
</g>
<g>
</g>
<g>
</g>
<g>
</g>
<g>
</g>
<g>
</g>
<g>
</g>
</svg>
