<?xml version="1.0" encoding="utf-8"?>
<!-- Generator: Adobe Illustrator 16.0.0, SVG Export Plug-In . SVG Version: 6.00 Build 0)  -->
<!DOCTYPE svg PUBLIC "-//W3C//DTD SVG 1.1//EN" "http://www.w3.org/Graphics/SVG/1.1/DTD/svg11.dtd">
<svg version="1.1" id="Layer_1" xmlns="http://www.w3.org/2000/svg" xmlns:xlink="http://www.w3.org/1999/xlink" x="0px" y="0px"
	 width="131.03px" height="111.088px" viewBox="0 0 131.03 111.088" enable-background="new 0 0 131.03 111.088"
	 xml:space="preserve">
<g>
	<path fill="#60C0AF" d="M131.03,100.367c0,5.869-4.761,10.626-10.625,10.626H10.625c-5.867,0-6.8-4.755-6.8-10.626V10.628
		C3.826,4.762,4.759,0,10.625,0h109.779c5.865,0,10.625,4.762,10.625,10.628V100.367z"/>
	<path fill="#4C4C4C" d="M43.289,105.368H10.625c-2.757,0-4.999-2.241-4.999-5.001V10.628c0-2.753,2.242-4.996,4.999-4.996h32.664V0
		H10.625C4.759,0,0,4.762,0,10.628v89.739c0,5.869,4.759,10.626,10.611,10.649H35.16L43.289,105.368z"/>
	<polygon fill="#F2D9AD" points="71.433,110.993 11.747,111.017 41.695,59.24 	"/>
	<polygon fill="#282828" points="36.306,111.008 11.243,111.017 23.948,89.657 	"/>
	<polygon fill="#FFCC01" points="127.125,10.095 131.03,16.886 131.03,76.689 71.328,110.993 41.591,59.24 	"/>
	<polygon opacity="0.1" fill="#020000" enable-background="new    " points="131.03,56.322 131.03,76.689 71.168,111.088 
		62.566,95.75 	"/>
	<polygon opacity="0.1" fill="#FFFFFF" enable-background="new    " points="127.125,10.095 131.03,16.892 131.03,28.127 
		50.352,74.49 41.591,59.244 	"/>
	<path fill="#F2D9AD" d="M50.27,74.455c1.164-2.396,0.819-6.085-1.142-9.483c-1.96-3.395-4.982-5.536-7.645-5.728L50.27,74.455z"/>
	<path fill="#F2D9AD" d="M71.264,111.017c1.176-2.415,0.828-6.126-1.15-9.547c-1.975-3.421-5.014-5.578-7.694-5.764L71.264,111.017z
		"/>
	<path fill="#F2D9AD" d="M62.497,95.973c1.976-3.604,1.691-8.992-1.11-13.838c-2.8-4.85-7.329-7.788-11.433-7.881L62.497,95.973z"/>
	<path fill="#4C4C4C" d="M120.404,0H10.625C4.759,0,0,4.762,0,10.628v14.323h131.03V10.628C131.03,4.762,126.269,0,120.404,0z"/>
	<path fill="#FF5955" d="M17.967,12.626c0,2.82-2.29,5.104-5.115,5.104c-2.827,0-5.113-2.284-5.113-5.104
		c0-2.826,2.286-5.116,5.113-5.116C15.677,7.508,17.967,9.8,17.967,12.626z"/>
	<path fill="#43CEFF" d="M32.796,12.626c0,2.82-2.293,5.104-5.114,5.104c-2.824,0-5.113-2.284-5.113-5.104
		c0-2.826,2.29-5.116,5.113-5.116C30.503,7.508,32.796,9.8,32.796,12.626z"/>
	<path fill="#FFFFFF" d="M123.29,13.217c0,2.535-1.999,4.596-4.464,4.596H41.799c-2.463,0-4.463-2.061-4.463-4.596l0,0
		c0-2.54,1.998-4.599,4.463-4.599h77.027C121.289,8.618,123.29,10.677,123.29,13.217L123.29,13.217z"/>
	<path opacity="0.1" fill="#020000" enable-background="new    " d="M120.404,0H52.005l22.458,110.993h45.941
		c5.865,0,10.625-4.755,10.625-10.626V10.628C131.03,4.762,126.269,0,120.404,0z"/>
	<path opacity="0.1" fill="#020000" enable-background="new    " d="M70.114,101.47c-1.94-3.36-4.913-5.492-7.559-5.741
		l-50.914,15.143l59.623,0.146C72.44,108.602,72.092,104.891,70.114,101.47z"/>
</g>
</svg>
