<?xml version="1.0" encoding="utf-8"?>
<!-- Generator: Adobe Illustrator 16.0.0, SVG Export Plug-In . SVG Version: 6.00 Build 0)  -->
<!DOCTYPE svg PUBLIC "-//W3C//DTD SVG 1.1//EN" "http://www.w3.org/Graphics/SVG/1.1/DTD/svg11.dtd">
<svg version="1.1" xmlns="http://www.w3.org/2000/svg" xmlns:xlink="http://www.w3.org/1999/xlink" x="0px" y="0px"
	 width="77.666px" height="77.667px" viewBox="0 0 77.666 77.667" enable-background="new 0 0 77.666 77.667" xml:space="preserve">
<g id="Layer_2">
</g>
<g id="Layer_1">
	<g>
		<path fill="#EFEBDE" d="M67.596,38.06c0,18.369-14.895,33.263-33.265,33.263c-18.374,0-33.267-14.894-33.267-33.263
			c0-18.372,14.893-33.269,33.267-33.269C52.702,4.791,67.596,19.688,67.596,38.06z"/>
		<path fill="#004A54" d="M61.317,32.491l-3.15-0.248c-0.567-2.117-1.397-4.122-2.473-5.978l2.055-2.39
			c0.717-0.72,0.854-1.75,0.306-2.298l-6.679-6.679c-0.552-0.549-1.58-0.414-2.299,0.306l-2.398,2.049
			c-1.853-1.073-3.854-1.904-5.97-2.47l-0.246-3.148c0-1.017-0.631-1.838-1.408-1.838h-9.445c-0.778,0-1.411,0.821-1.411,1.838
			l-0.253,3.151c-2.113,0.565-4.113,1.396-5.962,2.469l-2.399-2.051c-0.716-0.72-1.747-0.854-2.295-0.306l-6.68,6.679
			c-0.552,0.548-0.413,1.578,0.305,2.298l2.047,2.403c-1.073,1.851-1.9,3.854-2.466,5.965l-3.151,0.247
			c-1.016,0-1.839,0.63-1.839,1.408v9.443c0,0.778,0.823,1.411,1.839,1.411l3.151,0.252c0.568,2.114,1.396,4.114,2.469,5.965
			l-2.05,2.396c-0.718,0.718-0.856,1.746-0.305,2.298l6.68,6.68c0.548,0.546,1.579,0.412,2.295-0.307l2.408-2.047
			c1.849,1.073,3.851,1.901,5.966,2.465l0.24,3.15c0,1.018,0.633,1.839,1.411,1.839h9.445c0.777,0,1.408-0.821,1.408-1.839
			l0.246-3.151c2.119-0.565,4.123-1.396,5.975-2.471l2.394,2.054c0.719,0.719,1.747,0.853,2.299,0.307l6.679-6.68
			c0.548-0.552,0.411-1.58-0.306-2.298l-2.048-2.398c1.071-1.854,1.901-3.858,2.468-5.977l3.148-0.238
			c1.018,0,1.84-0.633,1.84-1.411v-9.443C63.157,33.121,62.334,32.491,61.317,32.491z"/>
		<path fill="#EFEBDE" d="M44.089,38.06c0,5.389-4.37,9.753-9.76,9.753c-5.386,0-9.756-4.364-9.756-9.753
			c0-5.392,4.37-9.759,9.756-9.759C39.719,28.301,44.089,32.668,44.089,38.06z"/>
		<path fill="#FF5046" d="M39.79,38.06c0,3.011-2.446,5.453-5.458,5.453c-3.016,0-5.459-2.442-5.459-5.453
			c0-3.015,2.443-5.46,5.459-5.46C37.343,32.6,39.79,35.045,39.79,38.06z"/>
		<path opacity="0.3" d="M34.332,4.791c-0.104,0-0.205,0.006-0.306,0.01v66.517c0.101,0,0.201,0.005,0.306,0.005
			c18.37,0,33.265-14.894,33.265-33.263C67.596,19.688,52.702,4.791,34.332,4.791z"/>
		<g>
			<path fill="#FF5046" d="M76.166,36.267L64.321,15.355h-0.029c-0.475-0.908-1.413-1.533-2.511-1.533
				c-1.118-0.004-2.081,0.646-2.549,1.587h-0.006l-12.083,20.78c-0.328,0.46-0.523,1.023-0.523,1.632
				c-0.003,1.575,1.27,2.854,2.846,2.857l24.345,0.05c1.573,0.004,2.85-1.271,2.856-2.847
				C76.666,37.281,76.482,36.727,76.166,36.267z"/>
			<path fill="#FF5046" d="M55.123,25.91c1.02,3.049,1.574,6.312,1.574,9.704c0,16.918-13.716,30.634-30.635,30.634
				c-4.938,0-9.602-1.176-13.737-3.252c5.866,5.179,13.568,8.326,22.007,8.326c18.37,0,33.265-14.894,33.265-33.263
				c0-5.973-1.579-11.569-4.334-16.412L55.123,25.91z"/>
		</g>
	</g>
	<path fill="#390DFF" d="M38.867,63.171"/>
</g>
</svg>
