<?xml version="1.0" encoding="utf-8"?>
<!-- Generator: Adobe Illustrator 19.2.1, SVG Export Plug-In . SVG Version: 6.00 Build 0)  -->
<svg version="1.1" baseProfile="basic"
	 xmlns="http://www.w3.org/2000/svg" xmlns:xlink="http://www.w3.org/1999/xlink" x="0px" y="0px" width="56px" height="60px"
	 viewBox="0 0 56 60" xml:space="preserve">
<path fill="#069DFA" d="M55.5,21.8c0-5.9-1.1-10.8-2.9-14.8c-1.1,0.1-2.2,0.1-3.3,0.1c-9.1,0-17.1-2.8-21.5-7.1
	C23.3,4.3,15.3,7.1,6.2,7.1C5.1,7.1,4,7.1,2.9,7C1.1,11,0,15.9,0,21.8C0,42.1,16.9,60,27.8,60C39.4,60,55.5,42.1,55.5,21.8z"/>
<path opacity="0.1" fill="#010000" d="M52.5,7c-1.1,0.1-2.2,0.1-3.3,0.1c-9,0-17-2.8-21.5-7V60c11.8,0,27.7-18,27.7-38.2
	C55.5,15.9,54.4,11,52.5,7z"/>
<g>
	<path opacity="0.2" d="M40.2,19.9l3.2-3.2l-2.9-2.9L37.3,17c-5.6-4.3-13.5-4.3-19.1,0L15,13.9l-2.9,2.9l3.2,3.2
		c-4.3,5.6-4.3,13.4,0,19l-3.2,3.2L15,45l3.2-3.2c5.6,4.3,13.4,4.3,19,0l3.2,3.2l2.9-2.9l-3.2-3.2C44.5,33.3,44.5,25.5,40.2,19.9z"
		/>

		<ellipse transform="matrix(0.7071 -0.7071 0.7071 0.7071 -11.2091 27.6231)" fill="#FC2C38" cx="27.7" cy="27.3" rx="15.6" ry="15.6"/>

		<rect x="7.7" y="25.3" transform="matrix(0.7071 0.7071 -0.7071 0.7071 27.4911 -11.5845)" fill="#FC2C38" width="40" height="4.1"/>

		<rect x="7.7" y="25.3" transform="matrix(0.7071 -0.7071 0.7071 0.7071 -11.2091 27.6231)" fill="#FC2C38" width="40" height="4.1"/>

		<rect x="19" y="25.3" transform="matrix(0.7071 0.7071 -0.7071 0.7071 27.4911 -11.5845)" fill="#FFFFFF" width="17.4" height="4.1"/>

		<rect x="19" y="25.3" transform="matrix(0.7071 -0.7071 0.7071 0.7071 -11.2091 27.6231)" fill="#FFFFFF" width="17.4" height="4.1"/>
</g>
<g>
</g>
<g>
</g>
<g>
</g>
<g>
</g>
<g>
</g>
<g>
</g>
<g>
</g>
<g>
</g>
<g>
</g>
<g>
</g>
<g>
</g>
<g>
</g>
<g>
</g>
<g>
</g>
<g>
</g>
</svg>
