<?xml version="1.0" encoding="utf-8"?>
<!-- Generator: Adobe Illustrator 16.0.0, SVG Export Plug-In . SVG Version: 6.00 Build 0)  -->
<!DOCTYPE svg PUBLIC "-//W3C//DTD SVG 1.1//EN" "http://www.w3.org/Graphics/SVG/1.1/DTD/svg11.dtd">
<svg version="1.1" id="Layer_1" xmlns="http://www.w3.org/2000/svg" xmlns:xlink="http://www.w3.org/1999/xlink" x="0px" y="0px"
	 width="99.415px" height="77.84px" viewBox="0 0 99.415 77.84" enable-background="new 0 0 99.415 77.84" xml:space="preserve">
<g>
	<g>
		<g>
			<g>
				<path fill="#76D9FC" d="M21.481,77.84c1.357-1.924,2.158-4.271,2.158-6.805c0-6.528-5.292-11.82-11.819-11.82S0,64.507,0,71.035
					c0,2.534,0.801,4.881,2.158,6.805H21.481z"/>
				<path fill-rule="evenodd" clip-rule="evenodd" fill="#00A936" d="M4.19,73.345c-0.064-0.027-0.155-0.046-0.216-0.053
					c-0.079-0.011-0.137-0.012-0.191,0c-0.161,0.047-0.172,0.215,0.265,0.479c0.117,0.155,0.328,0.297,0.529,0.219
					c0.117-0.33-0.124-0.532-0.387-0.623C4.19,73.345,4.193,73.352,4.19,73.345z"/>
				<path fill-rule="evenodd" clip-rule="evenodd" fill="#00A936" d="M6.019,69.996c0.019,0.019,0.031,0.046,0.049,0.048h0.024
					c0.117,0.034,0.231-0.085,0.143-0.093C6.199,69.945,6.131,69.955,6.019,69.996z"/>
				<path fill-rule="evenodd" clip-rule="evenodd" fill="#00A936" d="M8.756,68.965c-0.187,0.031-0.232,0.156,0.171,0.434
					c0.048-0.014,0.396-0.091,0.191,0.117C9.743,69.144,9.075,68.909,8.756,68.965z"/>
				<path fill-rule="evenodd" clip-rule="evenodd" fill="#00A936" d="M8.756,66.295c0.673-0.273,0.827-2.044,0.026-1.994
					c-0.052,0-0.104,0.027-0.169,0.052C8.948,64.971,8.174,65.758,8.756,66.295z"/>
				<path fill-rule="evenodd" clip-rule="evenodd" fill="#00A936" d="M16.479,67.763c0.054-0.369-0.535-0.642-0.8-0.627
					c-0.154,0.012-0.183,0.122,0.102,0.388C15.514,68.152,16.223,68.187,16.479,67.763z"/>
				<path fill-rule="evenodd" clip-rule="evenodd" fill="#00A936" d="M10.465,63.149c0.193-0.089,0.285-0.411,0-0.411
					c-0.053-0.015-0.092-0.027-0.144-0.026c-0.053,0.003-0.104,0.021-0.141,0.026C9.612,62.851,9.784,63.792,10.465,63.149z"/>
				<path fill-rule="evenodd" clip-rule="evenodd" fill="#00A936" d="M11.259,62.931c-0.82,0.104-1.649,0.896-0.886,1.682
					c0.546,0.682-0.79,2.076,0.479,2.434c0.503-1.127,1.879-2.019,1.539-3.392C12.25,63.068,11.754,62.868,11.259,62.931z"/>
				<path fill="#00A936" d="M3.018,75.478c0.504,0.631,0.261,1.355,0.223,2.046c-0.014,0.006,0.006,0.021,0.006,0.025
					c-0.006,0.098-0.006,0.194,0,0.291h4.982c-0.562-0.505-1.141-0.988-1.851-1.301c-1.114-1.082-3.626-0.41-3.581-2.456
					c0.116-0.97-0.664-1.439-1.249-1.895c-0.45-1.504,2.292-2.057,2.332-0.411c0.902-0.047,1.22-1.621,2.262-1.849
					c0.536-0.466,1.988,0.035,1.463-0.916c0.519-0.495,2.042-0.478,1.298-1.632c-0.251-1.126-1.633-1.67-2.088-0.388
					c-1.254,0.335-0.747-2.381,0.526-2.02c0.924,0.054,0.799-0.749,0.238-1.008c0-0.04-0.012-0.062-0.048-0.025
					c-0.104-0.039-0.21-0.078-0.335-0.072c-1.249-0.69,1.25-2.449-0.406-3.008c-1.817,1.553-4.587,3.994-5.698,6.275
					c-0.5,1.433-0.416,2.872-0.358,4.376C1.242,72.97,2.23,74.171,3.018,75.478z"/>
				<path fill="#00A936" d="M12.918,60.48c0.387,1.244,2.707,0.023,2.596,1.416c0.018,0.02,0.053,0.051,0.072,0.074
					c-0.036,0.028,0.028,0.281,0.074,0.069c0.401,0.454,1.244,1.395,0.358,1.277c-1.173-0.162-0.869,2.151-0.021,2.571
					c0.804,0.433,1.258-0.438,0.429-0.864c-0.111-1.084,1.809,0.666,0.961,1.246c-0.033,0.024-0.062,0.051-0.093,0.074
					c0.037-0.154-0.057-0.008-0.053,0.026c-0.964,0.698-0.415,2.342-0.789,3.437c-0.667,1.48,1.668,0.828,1.32-0.337
					c-0.429-1.072,1.775-0.584,1.299-1.346c1.335,0.709,1.21-1.194,0.65-1.83c0.263-1.017,0.947,0.119,0.623,0.674
					c0.053,0.524,0.504,0.645,0.867,0.794c0.017,0.012,0.035,0.015,0.072,0.023c0.316,0.15,0.506,0.345,0.164,0.94
					c-0.392,1.323-1.723,1.396-2.811,1.151c-1.1,0.456-1.304,1.792-1.925,2.691c-0.615,1.124-1.127,2.779-0.021,3.773
					c1.057,1.017,2.271,0.134,3.149-0.553c1.334-0.173,1.704,1.038,1.387,2.05h0.248c1.36-1.924,2.163-4.27,2.163-6.805
					c0-0.326-0.023-0.646-0.049-0.966c-0.009-0.081-0.015-0.161-0.023-0.24c-0.677,0.37-1.878-1.663-0.649-0.696
					c0.241-0.016,0.394-0.086,0.506-0.188c-0.142-0.742-0.334-1.459-0.604-2.144c-0.121-0.143-0.236-0.277-0.337-0.358
					c0.01-0.147-0.006-0.29-0.024-0.432c-0.006-0.009,0.008-0.019,0-0.027c-1.927-3.965-5.993-6.702-10.695-6.702
					c-0.32,0-0.646,0.019-0.963,0.045c-0.165,0.035-0.348,0.057-0.532,0.073c-0.062,0.006-0.126,0.014-0.188,0.024
					c-0.664,0.093-1.298,0.209-1.921,0.407C9.784,59.712,11.453,59.753,12.918,60.48z"/>
				<g opacity="0.2">
					<path fill="#010000" d="M0.574,67.393C0.571,67.4,0.57,67.406,0.567,67.414c0.109-0.006,0.207-0.014,0.207-0.021H0.574z"/>
					<path fill="#010000" d="M1.803,71.189c0.014,1.32,0.21,2.59,0.556,3.774c-1.393-0.198-1.575-0.38-1.595-0.406
						c0.002,0.003,0.011,0.018,0.011,0.038H0.547c0.035,0.106,0.072,0.214,0.109,0.319c0.163,0.094,0.417,0.174,0.781,0.252
						c0.287,0.061,0.633,0.12,1.039,0.175c0.289,0.891,0.672,1.726,1.123,2.498h0.404c-0.457-0.754-0.843-1.575-1.14-2.449
						c0.303,0.037,0.631,0.069,0.987,0.102c1.034,0.096,2.236,0.17,3.544,0.218c0.124,0.749,0.283,1.459,0.469,2.13h0.368
						c-0.187-0.665-0.35-1.37-0.477-2.115c1.216,0.04,2.516,0.065,3.853,0.065v2.05h0.354v-2.05c1.339-0.001,2.64-0.025,3.855-0.066
						c-0.128,0.744-0.29,1.45-0.479,2.116h0.368c0.186-0.672,0.345-1.382,0.47-2.131c1.29-0.051,2.476-0.123,3.499-0.217
						c0.373-0.033,0.719-0.069,1.035-0.106c-0.297,0.877-0.686,1.7-1.144,2.454h0.411c0.451-0.774,0.831-1.613,1.119-2.504
						c0.385-0.055,0.717-0.11,0.991-0.169c0.509-0.11,0.806-0.224,0.936-0.369c0.023-0.068,0.047-0.133,0.068-0.202h-0.34
						c0-0.021,0.007-0.035,0.011-0.038c-0.02,0.026-0.199,0.202-1.549,0.399c0.347-1.183,0.54-2.45,0.555-3.768h1.801v-0.358H21.77
						c-0.018-1.332-0.221-2.609-0.577-3.802c1.363,0.196,1.543,0.376,1.562,0.4c-0.003-0.003-0.01-0.017-0.01-0.037h0.322
						c-0.025-0.077-0.053-0.154-0.079-0.229c-0.143-0.132-0.432-0.239-0.907-0.342c-0.278-0.059-0.615-0.117-1.008-0.168
						c-0.454-1.374-1.118-2.624-1.942-3.69c0.827,0.213,1.488,0.461,1.944,0.722c-0.182-0.226-0.367-0.447-0.565-0.662
						c-0.473-0.185-0.992-0.337-1.48-0.456c-0.089-0.022-0.179-0.042-0.27-0.064c-1.261-1.469-2.843-2.545-4.607-3.057
						c-0.754-0.151-1.534-0.23-2.331-0.23c-0.885,0-1.749,0.101-2.581,0.286C7.55,60.033,6.032,61.082,4.816,62.5
						c-0.095,0.023-0.19,0.044-0.282,0.066c-0.447,0.108-0.92,0.244-1.357,0.41c-0.192,0.205-0.375,0.417-0.552,0.634
						c0.45-0.235,1.065-0.458,1.819-0.652c-0.822,1.068-1.486,2.314-1.942,3.688c-0.416,0.054-0.772,0.113-1.064,0.176
						c-0.34,0.074-0.586,0.148-0.748,0.235c-0.035,0.093-0.066,0.187-0.095,0.28c0.334-0.079,0.925-0.192,1.788-0.314
						c-0.357,1.191-0.56,2.474-0.579,3.809H0.007C0.004,70.898,0,70.966,0,71.035c0,0.051,0.004,0.102,0.004,0.154H1.803z
						 M20.832,75.009c-0.396,0.05-0.871,0.101-1.444,0.151c-0.937,0.078-2.003,0.142-3.151,0.188
						c0.199-1.31,0.307-2.716,0.315-4.159h4.864C21.402,72.528,21.197,73.814,20.832,75.009z M21.415,70.831h-4.863
						c-0.011-1.457-0.123-2.871-0.329-4.19c1.152,0.045,2.221,0.109,3.157,0.188c0.565,0.049,1.036,0.101,1.427,0.149
						C21.183,68.182,21.396,69.479,21.415,70.831z M18.569,62.826c0.897,1.071,1.62,2.353,2.113,3.776
						c-0.311-0.039-0.647-0.072-1.017-0.107c-1.023-0.093-2.212-0.164-3.502-0.216c-0.229-1.331-0.556-2.56-0.971-3.62
						c-0.044-0.115-0.09-0.228-0.137-0.34C16.346,62.428,17.538,62.598,18.569,62.826z M18.172,62.379
						c-0.985-0.193-2.095-0.341-3.282-0.432c-0.513-1.104-1.109-1.906-1.755-2.369C15.051,59.901,16.789,60.905,18.172,62.379z
						 M11.962,59.473c0.919,0.096,1.795,0.95,2.522,2.444c-0.812-0.053-1.659-0.083-2.522-0.087V59.473z M11.962,62.189
						c0.926,0.003,1.83,0.037,2.696,0.1c0.071,0.162,0.14,0.328,0.208,0.503c0.398,1.017,0.714,2.195,0.938,3.474
						c-1.212-0.043-2.51-0.066-3.843-0.068V62.189z M11.962,66.557c1.353,0.003,2.672,0.027,3.902,0.071
						c0.209,1.318,0.323,2.738,0.333,4.203h-4.235V66.557z M11.962,71.189h4.235c-0.006,1.451-0.117,2.861-0.32,4.172
						c-1.235,0.045-2.559,0.07-3.915,0.07V71.189z M11.608,75.432c-1.355,0-2.679-0.025-3.912-0.069
						c-0.204-1.311-0.315-2.719-0.321-4.173h4.233V75.432z M11.608,70.831H7.375c0.009-1.465,0.123-2.888,0.334-4.206
						c1.231-0.043,2.55-0.067,3.899-0.068V70.831z M11.608,66.197c-1.331,0.001-2.628,0.024-3.839,0.067
						c0.223-1.28,0.537-2.456,0.937-3.473c0.067-0.176,0.138-0.343,0.21-0.504c0.863-0.062,1.77-0.096,2.692-0.099V66.197z
						 M11.608,61.83c-0.861,0.004-1.707,0.033-2.522,0.087c0.729-1.494,1.606-2.349,2.522-2.444V61.83z M10.438,59.578
						c-0.646,0.463-1.242,1.266-1.756,2.369c-1.185,0.091-2.293,0.233-3.279,0.43C6.786,60.904,8.522,59.9,10.438,59.578z
						 M5.004,62.824c1.031-0.228,2.225-0.398,3.514-0.505c-0.05,0.11-0.096,0.223-0.142,0.34c-0.411,1.061-0.739,2.285-0.968,3.619
						c-1.312,0.049-2.52,0.124-3.558,0.217c-0.345,0.033-0.664,0.065-0.96,0.1C3.385,65.174,4.109,63.893,5.004,62.824z
						 M2.768,66.97c0.38-0.046,0.832-0.093,1.371-0.141c0.951-0.081,2.037-0.144,3.212-0.189c-0.206,1.319-0.319,2.733-0.328,4.191
						H2.155C2.175,69.475,2.391,68.176,2.768,66.97z M7.022,71.189c0.007,1.446,0.115,2.85,0.314,4.161
						c-1.167-0.046-2.249-0.11-3.198-0.19c-0.551-0.05-1.01-0.098-1.396-0.145c-0.364-1.198-0.573-2.484-0.587-3.826H7.022z"/>
				</g>
			</g>
			<g>
				<path fill="#2579F2" d="M19.043,65.439H4.528c-0.79,0-1.431,0.641-1.431,1.431v8.139c0,0.791,0.641,1.431,1.431,1.431h14.515
					c0.79,0,1.429-0.64,1.429-1.431V66.87C20.472,66.08,19.833,65.439,19.043,65.439z M13.774,67.777H9.796
					c-0.338,0-0.61-0.273-0.61-0.61c0-0.334,0.272-0.607,0.61-0.607h3.979c0.338,0,0.609,0.273,0.609,0.607
					C14.384,67.504,14.112,67.777,13.774,67.777z"/>
				<path fill="#EFEFEF" d="M19.393,74.021c0,0.791-0.641,1.43-1.431,1.43H5.608c-0.79,0-1.431-0.639-1.431-1.43v-3.648
					c0-0.79,0.641-1.43,1.431-1.43h12.354c0.79,0,1.431,0.64,1.431,1.43V74.021z"/>
				<g>
					<g>
						<path fill="#29353F" d="M8.797,70.556c-0.17-0.044-0.345,0.056-0.395,0.222l-0.503,1.75l-0.501-1.75
							c-0.042-0.144-0.178-0.229-0.323-0.228c-0.146-0.002-0.282,0.084-0.321,0.228l-0.505,1.75l-0.5-1.75
							c-0.048-0.166-0.223-0.266-0.396-0.222c-0.171,0.044-0.269,0.216-0.221,0.382l0.796,2.771c0.038,0.144,0.177,0.229,0.32,0.226
							c0.146,0.004,0.283-0.082,0.325-0.226l0.501-1.75l0.503,1.75c0.041,0.144,0.178,0.229,0.321,0.226
							c0.146,0.004,0.283-0.082,0.322-0.226l0.795-2.771C9.066,70.771,8.966,70.6,8.797,70.556z"/>
					</g>
					<g>
						<path fill="#29353F" d="M13.57,70.556c-0.169-0.044-0.346,0.056-0.396,0.222l-0.499,1.75l-0.503-1.75
							c-0.041-0.144-0.179-0.229-0.323-0.228c-0.145-0.002-0.282,0.084-0.324,0.228l-0.501,1.75l-0.501-1.75
							c-0.049-0.166-0.225-0.266-0.395-0.222s-0.269,0.216-0.223,0.382l0.797,2.771c0.04,0.144,0.176,0.229,0.321,0.226
							c0.146,0.004,0.283-0.082,0.322-0.226l0.503-1.75l0.502,1.75c0.041,0.144,0.178,0.229,0.324,0.226
							c0.144,0.004,0.281-0.082,0.322-0.226l0.794-2.771C13.841,70.771,13.741,70.6,13.57,70.556z"/>
					</g>
					<g>
						<path fill="#29353F" d="M18.217,70.556c-0.171-0.044-0.347,0.056-0.395,0.222l-0.504,1.75l-0.5-1.75
							c-0.043-0.144-0.179-0.229-0.325-0.228c-0.145-0.002-0.28,0.084-0.322,0.228l-0.501,1.75l-0.502-1.75
							c-0.049-0.166-0.223-0.266-0.395-0.222c-0.17,0.044-0.269,0.216-0.222,0.382l0.795,2.771c0.042,0.144,0.178,0.229,0.323,0.226
							c0.145,0.004,0.281-0.082,0.323-0.226l0.5-1.75l0.504,1.75c0.04,0.144,0.178,0.229,0.321,0.226
							c0.146,0.004,0.283-0.082,0.324-0.226l0.796-2.771C18.486,70.771,18.388,70.6,18.217,70.556z"/>
					</g>
				</g>
				<polygon opacity="0.4" points="13.205,66.569 13.687,66.56 13.953,65.439 13.021,65.442 				"/>
				<path fill="#29353F" d="M13.441,67.777v-4.215c0-0.142-0.116-0.26-0.258-0.26h-2.668c-0.141,0-0.258,0.118-0.258,0.26v4.215
					H13.441z"/>
				<path opacity="0.1" fill="#FFFFFF" d="M13.277,63.623c0,0.072-0.06,0.13-0.132,0.13h-2.6c-0.073,0-0.133-0.058-0.133-0.13l0,0
					c0-0.074,0.06-0.135,0.133-0.135h2.6C13.218,63.488,13.277,63.549,13.277,63.623L13.277,63.623z"/>
				<path opacity="0.1" d="M19.043,65.439l-14.515,11h14.515c0.79,0,1.429-0.64,1.429-1.431V66.87
					C20.472,66.08,19.833,65.439,19.043,65.439z"/>
			</g>
		</g>
		<path opacity="0.3" d="M4.219,72.254c0.557,1.707,1.383,3.293,2.435,4.703l0.001,0.002c0.058,0.077,0.118,0.149,0.178,0.228
			c0.073,0.092,0.144,0.186,0.217,0.277c0.104,0.128,0.21,0.252,0.318,0.376h14.109c0.105-0.149,0.21-0.301,0.309-0.455v0.001
			c0.002-0.002,0.002-0.003,0.002-0.003c0.511-0.802,0.929-1.667,1.235-2.583c0-0.002,0.002-0.002,0.002-0.002
			c0.023-0.068,0.047-0.133,0.068-0.202h-0.001c0.032-0.104,0.062-0.212,0.093-0.317c0.013-0.046,0.025-0.093,0.04-0.138
			c0.031-0.117,0.06-0.234,0.089-0.352c0.017-0.067,0.031-0.135,0.046-0.203c0.023-0.104,0.046-0.21,0.065-0.315
			c0.017-0.084,0.031-0.169,0.045-0.254c0.017-0.094,0.033-0.188,0.046-0.285c0.015-0.099,0.026-0.198,0.038-0.298
			c0.009-0.086,0.021-0.171,0.03-0.256c0.012-0.12,0.019-0.238,0.026-0.359c0.004-0.068,0.011-0.137,0.014-0.208
			c0.01-0.19,0.016-0.383,0.016-0.575c0-1.272-0.203-2.496-0.575-3.643h0.002c-0.025-0.077-0.053-0.154-0.079-0.229
			c0-0.002-0.001-0.002-0.001-0.002c-0.441-1.272-1.092-2.444-1.914-3.478c0,0,0,0.001,0.002,0.001
			c-0.006-0.009-0.016-0.019-0.022-0.026c-0.074-0.094-0.148-0.185-0.228-0.275c-0.03-0.036-0.062-0.071-0.093-0.107
			c-0.069-0.08-0.14-0.16-0.211-0.239c-0.004-0.005-0.007-0.008-0.012-0.014h-0.001c-1.658-1.797-3.865-3.079-6.356-3.577l0,0
			c-0.003-0.001-0.007-0.001-0.008-0.001c-0.185-0.037-0.368-0.069-0.555-0.098c-0.061-0.009-0.122-0.016-0.183-0.022
			c-0.131-0.018-0.262-0.037-0.396-0.049c-0.103-0.012-0.21-0.018-0.314-0.024c-0.09-0.007-0.183-0.017-0.276-0.021
			c-0.198-0.01-0.397-0.015-0.6-0.015c-0.217,0-0.433,0.006-0.645,0.019c-0.034,0.001-0.066,0.005-0.1,0.007
			c-0.186,0.012-0.371,0.026-0.555,0.047c-0.017,0.002-0.034,0.004-0.052,0.007c-0.202,0.023-0.401,0.051-0.6,0.083
			c-0.001,0-0.001,0.002-0.003,0.002c-2.104,0.349-4.016,1.259-5.587,2.562c-0.023,0.067-0.049,0.134-0.07,0.201
			c-0.001,0.002-0.001,0.002-0.001,0.004c-0.514,1.587-0.795,3.28-0.795,5.039c0,1.718,0.268,3.374,0.758,4.93
			C4.186,72.161,4.203,72.207,4.219,72.254z"/>
		<g>
			<g>
				<path fill="#76D9FC" d="M32.964,77.84c2.46-2.862,3.95-6.583,3.95-10.654c0-9.036-7.324-16.362-16.361-16.362
					c-9.034,0-16.361,7.326-16.361,16.362c0,4.071,1.49,7.792,3.951,10.654H32.964z"/>
				<path fill-rule="evenodd" clip-rule="evenodd" fill="#00A936" d="M9.991,70.384c-0.088-0.038-0.213-0.063-0.297-0.074
					c-0.108-0.013-0.191-0.018-0.266,0c-0.223,0.065-0.237,0.299,0.367,0.663c0.161,0.213,0.454,0.41,0.733,0.304
					c0.161-0.46-0.175-0.738-0.538-0.863C9.991,70.384,9.995,70.393,9.991,70.384z"/>
				<path fill-rule="evenodd" clip-rule="evenodd" fill="#00A936" d="M12.522,65.749c0.026,0.023,0.044,0.062,0.066,0.066h0.034
					c0.163,0.045,0.322-0.118,0.199-0.129C12.773,65.678,12.678,65.69,12.522,65.749z"/>
				<path fill-rule="evenodd" clip-rule="evenodd" fill="#00A936" d="M16.312,64.32c-0.26,0.043-0.322,0.218,0.234,0.602
					c0.069-0.021,0.548-0.128,0.267,0.161C17.68,64.568,16.754,64.242,16.312,64.32z"/>
				<path fill-rule="evenodd" clip-rule="evenodd" fill="#00A936" d="M16.312,60.625c0.931-0.379,1.146-2.831,0.036-2.76
					c-0.071,0-0.144,0.037-0.234,0.069C16.578,58.791,15.508,59.882,16.312,60.625z"/>
				<path fill-rule="evenodd" clip-rule="evenodd" fill="#00A936" d="M27.002,62.656c0.075-0.512-0.74-0.888-1.106-0.866
					c-0.214,0.014-0.255,0.167,0.14,0.535C25.666,63.195,26.649,63.243,27.002,62.656z"/>
				<path fill-rule="evenodd" clip-rule="evenodd" fill="#00A936" d="M18.678,56.271c0.268-0.124,0.396-0.569,0-0.569
					c-0.073-0.019-0.127-0.038-0.2-0.035c-0.07,0.004-0.144,0.028-0.194,0.035C17.498,55.857,17.736,57.159,18.678,56.271z"/>
				<path fill-rule="evenodd" clip-rule="evenodd" fill="#00A936" d="M19.777,55.967c-1.137,0.144-2.283,1.241-1.227,2.329
					c0.756,0.943-1.093,2.872,0.663,3.367c0.696-1.559,2.603-2.794,2.13-4.693C21.148,56.159,20.462,55.881,19.777,55.967z"/>
				<path fill="#00A936" d="M8.368,73.335c0.696,0.873,0.361,1.879,0.308,2.833c-0.018,0.007,0.009,0.028,0.009,0.034
					C8.649,76.78,8.74,77.333,9.23,77.831c0.002,0.002,0.005,0.005,0.007,0.009h7.742c-1.286-1.059-2.392-2.347-3.959-3.036
					C11.479,73.309,8,74.238,8.064,71.406c0.16-1.344-0.92-1.992-1.729-2.625c-0.623-2.08,3.172-2.845,3.229-0.567
					c1.249-0.064,1.688-2.244,3.13-2.56c0.742-0.645,2.752,0.049,2.024-1.269c0.72-0.683,2.828-0.66,1.797-2.258
					c-0.346-1.559-2.261-2.311-2.891-0.536c-1.735,0.464-1.035-3.296,0.729-2.796c1.277,0.073,1.104-1.039,0.33-1.395
					c0-0.055-0.019-0.086-0.065-0.036c-0.143-0.054-0.292-0.109-0.467-0.099c-1.729-0.956,1.731-3.394-0.562-4.164
					c-2.515,2.148-6.35,5.527-7.886,8.688c-0.693,1.979-0.577,3.975-0.497,6.058C5.91,69.863,7.279,71.526,8.368,73.335z"/>
				<path fill="#00A936" d="M33.021,77.767c2.425-2.854,3.894-6.544,3.894-10.581c0-0.451-0.031-0.895-0.066-1.338
					c-0.012-0.11-0.021-0.221-0.033-0.329c-0.935,0.511-2.599-2.304-0.897-0.966c0.332-0.023,0.542-0.118,0.7-0.264
					c-0.197-1.024-0.464-2.018-0.837-2.965c-0.167-0.198-0.327-0.384-0.465-0.496c0.011-0.204-0.009-0.401-0.034-0.599
					c-0.007-0.011,0.01-0.024,0-0.036c-2.667-5.488-8.296-9.279-14.805-9.279c-0.446,0-0.896,0.028-1.335,0.063
					c-0.228,0.048-0.478,0.078-0.734,0.102c-0.087,0.008-0.175,0.02-0.263,0.033c-0.918,0.129-1.796,0.29-2.658,0.563
					c2.25-0.165,4.559-0.105,6.588,0.901c0.536,1.722,3.747,0.032,3.592,1.959c0.025,0.027,0.074,0.071,0.102,0.104
					c-0.051,0.038,0.037,0.39,0.1,0.095c0.557,0.629,1.725,1.931,0.499,1.769c-1.625-0.223-1.203,2.978-0.033,3.561
					c1.117,0.599,1.743-0.606,0.598-1.198c-0.155-1.5,2.502,0.923,1.329,1.726c-0.046,0.033-0.085,0.07-0.129,0.104
					c0.053-0.216-0.078-0.012-0.073,0.036c-1.334,0.967-0.572,3.241-1.093,4.757c-0.921,2.049,2.31,1.145,1.827-0.468
					c-0.59-1.484,2.459-0.808,1.799-1.861c1.85,0.98,1.676-1.654,0.901-2.533c0.361-1.408,1.312,0.164,0.862,0.933
					c0.072,0.726,0.697,0.892,1.2,1.099c0.024,0.018,0.049,0.019,0.099,0.032c0.438,0.208,0.702,0.478,0.229,1.302
					c-0.545,1.831-2.385,1.933-3.89,1.594c-1.524,0.631-1.806,2.48-2.665,3.726c-0.852,1.558-1.56,3.848-0.03,5.225
					c1.464,1.405,3.147,0.186,4.36-0.766c2.326-0.301,2.54,2.438,1.395,3.832C33.04,77.665,33.029,77.713,33.021,77.767z"/>
				<g opacity="0.2">
					<path fill="#010000" d="M4.986,62.143c-0.003,0.013-0.007,0.021-0.009,0.031c0.151-0.007,0.285-0.019,0.285-0.031H4.986z"/>
					<path fill="#010000" d="M34.371,75.938h-0.016c0,0.013-0.005,0.026-0.006,0.039C34.356,75.964,34.365,75.95,34.371,75.938z"/>
					<path fill="#010000" d="M6.688,67.398c0.019,1.829,0.289,3.586,0.769,5.228c-1.929-0.275-2.181-0.528-2.206-0.562
						c0.002,0.002,0.013,0.024,0.013,0.052H4.949c0.048,0.147,0.099,0.296,0.15,0.442c0.226,0.128,0.578,0.24,1.084,0.348
						c0.396,0.085,0.874,0.166,1.436,0.242c0.56,1.724,1.357,3.305,2.341,4.692h0.606c-1.008-1.356-1.83-2.916-2.41-4.626
						c0.418,0.052,0.875,0.098,1.366,0.142c1.433,0.132,3.097,0.233,4.906,0.304c0.252,1.506,0.597,2.912,1.021,4.181h0.518
						c-0.433-1.257-0.782-2.657-1.041-4.162c1.683,0.058,3.483,0.091,5.335,0.091v4.071h0.488v-4.071
						c1.854-0.002,3.653-0.033,5.337-0.094c-0.259,1.505-0.608,2.908-1.041,4.165h0.517c0.426-1.27,0.77-2.677,1.021-4.185
						c1.787-0.069,3.425-0.169,4.844-0.3c0.518-0.046,0.995-0.097,1.433-0.146c-0.58,1.712-1.404,3.273-2.415,4.631h0.607
						c0.983-1.392,1.784-2.975,2.345-4.701c0.531-0.074,0.991-0.153,1.371-0.233c0.704-0.151,1.113-0.31,1.295-0.51
						c0.031-0.095,0.062-0.185,0.095-0.28h-0.47c0-0.027,0.008-0.05,0.013-0.052c-0.026,0.034-0.272,0.28-2.143,0.552
						c0.48-1.637,0.748-3.392,0.768-5.217h2.492v-0.494h-2.492c-0.025-1.845-0.306-3.614-0.8-5.263
						c1.888,0.273,2.137,0.521,2.163,0.555c-0.005-0.005-0.015-0.024-0.015-0.054h0.445c-0.034-0.105-0.071-0.211-0.108-0.318
						c-0.197-0.181-0.598-0.329-1.255-0.471c-0.386-0.081-0.853-0.162-1.396-0.234c-0.629-1.9-1.547-3.63-2.689-5.108
						c1.146,0.295,2.061,0.64,2.692,1c-0.252-0.311-0.51-0.618-0.782-0.915c-0.654-0.258-1.374-0.467-2.05-0.632
						c-0.124-0.031-0.249-0.059-0.373-0.089c-1.744-2.034-3.937-3.522-6.379-4.232c-1.041-0.21-2.122-0.319-3.228-0.319
						c-1.226,0-2.42,0.14-3.572,0.396c-2.338,0.737-4.438,2.189-6.121,4.151c-0.132,0.031-0.264,0.062-0.392,0.093
						c-0.618,0.15-1.272,0.338-1.879,0.568c-0.265,0.281-0.519,0.575-0.764,0.877c0.624-0.326,1.476-0.635,2.519-0.904
						c-1.14,1.479-2.057,3.203-2.688,5.104c-0.577,0.076-1.069,0.158-1.472,0.244c-0.473,0.103-0.812,0.206-1.037,0.326
						c-0.049,0.129-0.093,0.258-0.132,0.388c0.462-0.109,1.28-0.268,2.477-0.437c-0.496,1.651-0.778,3.426-0.802,5.273H4.201
						c-0.004,0.093-0.01,0.186-0.01,0.281c0,0.072,0.005,0.141,0.006,0.213H6.688z M33.028,72.686
						c-0.548,0.07-1.205,0.14-1.999,0.21c-1.296,0.107-2.773,0.197-4.363,0.262c0.276-1.813,0.425-3.76,0.437-5.759h6.735
						C33.816,69.255,33.533,71.032,33.028,72.686z M33.836,66.904h-6.733c-0.015-2.018-0.17-3.976-0.454-5.802
						c1.596,0.062,3.073,0.151,4.369,0.263c0.784,0.067,1.435,0.137,1.975,0.204C33.514,63.237,33.81,65.031,33.836,66.904z
						 M29.896,55.823c1.244,1.482,2.243,3.256,2.928,5.227c-0.431-0.053-0.899-0.099-1.409-0.148
						c-1.416-0.126-3.061-0.228-4.848-0.299c-0.316-1.844-0.768-3.543-1.342-5.012c-0.062-0.158-0.125-0.314-0.191-0.469
						C26.816,55.271,28.468,55.507,29.896,55.823z M29.346,55.203c-1.365-0.267-2.9-0.471-4.541-0.598
						c-0.711-1.526-1.536-2.637-2.43-3.279C25.025,51.775,27.432,53.164,29.346,55.203z M20.75,51.181
						c1.271,0.134,2.484,1.315,3.493,3.386c-1.125-0.074-2.298-0.117-3.493-0.121V51.181z M20.75,54.942
						c1.282,0.004,2.533,0.051,3.73,0.137c0.101,0.224,0.196,0.455,0.292,0.695c0.551,1.409,0.986,3.039,1.296,4.81
						c-1.677-0.059-3.471-0.091-5.318-0.095V54.942z M20.75,60.985c1.873,0.005,3.698,0.039,5.402,0.1
						c0.29,1.824,0.447,3.792,0.461,5.819H20.75V60.985z M20.75,67.398h5.863c-0.009,2.011-0.162,3.962-0.444,5.776
						c-1.709,0.062-3.54,0.097-5.419,0.097V67.398z M20.262,73.271c-1.878,0-3.708-0.034-5.417-0.095
						c-0.281-1.813-0.436-3.766-0.444-5.778h5.861V73.271z M20.262,66.904H14.4c0.014-2.027,0.172-3.996,0.464-5.823
						c1.704-0.059,3.528-0.093,5.397-0.096V66.904z M20.262,60.489c-1.844,0.002-3.637,0.033-5.316,0.094
						c0.308-1.773,0.745-3.399,1.298-4.809c0.094-0.243,0.19-0.474,0.29-0.697c1.196-0.084,2.449-0.131,3.729-0.135V60.489z
						 M20.262,54.445c-1.194,0.004-2.364,0.044-3.492,0.121c1.011-2.07,2.224-3.252,3.492-3.386V54.445z M18.639,51.326
						c-0.893,0.643-1.718,1.753-2.43,3.279c-1.641,0.127-3.174,0.325-4.539,0.595C13.586,53.162,15.988,51.772,18.639,51.326z
						 M11.121,55.819c1.426-0.315,3.077-0.55,4.86-0.697c-0.067,0.152-0.132,0.308-0.193,0.469
						c-0.573,1.469-1.023,3.166-1.342,5.011c-1.815,0.066-3.485,0.171-4.924,0.3c-0.477,0.045-0.921,0.091-1.329,0.139
						C8.878,59.073,9.88,57.3,11.121,55.819z M8.023,61.56c0.524-0.064,1.15-0.13,1.896-0.194c1.316-0.112,2.822-0.201,4.445-0.266
						c-0.283,1.827-0.439,3.785-0.455,5.805H7.176C7.203,65.026,7.501,63.228,8.023,61.56z M13.91,67.398
						c0.011,2.003,0.162,3.945,0.438,5.76c-1.615-0.062-3.113-0.15-4.427-0.263c-0.763-0.067-1.398-0.133-1.934-0.201
						c-0.506-1.656-0.794-3.438-0.812-5.296H13.91z"/>
					<path fill="#010000" d="M7.43,76.957c0.226,0.304,0.467,0.597,0.713,0.883h1.341C8.611,77.568,7.916,77.269,7.43,76.957z"/>
					<path fill="#010000" d="M33.803,76.779c-0.481,0.375-1.27,0.738-2.305,1.061h1.436c0.016-0.007,0.033-0.014,0.05-0.021
						C33.269,77.483,33.544,77.136,33.803,76.779z"/>
				</g>
			</g>
			<g>
				<path fill="#EAC907" d="M30.551,59.438H10.459c-1.093,0-1.98,0.888-1.98,1.981v11.267c0,1.097,0.888,1.979,1.98,1.979h20.092
					c1.096,0,1.98-0.883,1.98-1.979V61.42C32.531,60.326,31.646,59.438,30.551,59.438z M23.259,62.675H17.75
					c-0.465,0-0.844-0.377-0.844-0.843c0-0.464,0.379-0.842,0.844-0.842h5.509c0.468,0,0.845,0.378,0.845,0.842
					C24.104,62.298,23.727,62.675,23.259,62.675z"/>
				<path fill="#EFEFEF" d="M31.034,71.319c0,1.093-0.886,1.979-1.979,1.979H11.955c-1.094,0-1.98-0.887-1.98-1.979v-5.052
					c0-1.092,0.887-1.979,1.98-1.979h17.101c1.093,0,1.979,0.887,1.979,1.979V71.319z"/>
				<g>
					<g>
						<path fill="#29353F" d="M16.368,66.523c-0.235-0.062-0.478,0.075-0.548,0.306l-0.692,2.421l-0.695-2.421
							c-0.058-0.198-0.246-0.317-0.446-0.312c-0.203-0.005-0.392,0.114-0.446,0.312l-0.697,2.421l-0.694-2.421
							c-0.065-0.23-0.309-0.368-0.546-0.306c-0.234,0.059-0.372,0.298-0.306,0.526l1.101,3.838c0.056,0.198,0.246,0.318,0.445,0.311
							c0.201,0.008,0.393-0.112,0.449-0.311l0.694-2.423l0.694,2.423c0.058,0.198,0.245,0.318,0.447,0.311
							c0.199,0.008,0.39-0.112,0.445-0.311l1.102-3.838C16.742,66.821,16.604,66.582,16.368,66.523z"/>
					</g>
					<g>
						<path fill="#29353F" d="M22.977,66.523c-0.235-0.062-0.48,0.075-0.546,0.306l-0.692,2.421l-0.697-2.421
							c-0.057-0.198-0.244-0.317-0.445-0.312c-0.201-0.005-0.391,0.114-0.449,0.312l-0.693,2.421l-0.694-2.421
							c-0.066-0.23-0.309-0.368-0.547-0.306c-0.235,0.059-0.372,0.298-0.308,0.526l1.103,3.838c0.058,0.198,0.245,0.318,0.446,0.311
							c0.2,0.008,0.391-0.112,0.446-0.311l0.696-2.423l0.695,2.423c0.055,0.198,0.244,0.318,0.447,0.311
							c0.197,0.008,0.389-0.112,0.446-0.311l1.099-3.838C23.351,66.821,23.213,66.582,22.977,66.523z"/>
					</g>
					<g>
						<path fill="#29353F" d="M29.409,66.523c-0.237-0.062-0.48,0.075-0.547,0.306l-0.696,2.421l-0.694-2.421
							c-0.058-0.198-0.245-0.317-0.448-0.312c-0.201-0.005-0.389,0.114-0.447,0.312l-0.693,2.421l-0.694-2.421
							c-0.065-0.23-0.31-0.368-0.548-0.306c-0.234,0.059-0.371,0.298-0.305,0.526l1.1,3.838c0.059,0.198,0.246,0.318,0.447,0.311
							c0.2,0.008,0.391-0.112,0.447-0.311l0.693-2.423l0.696,2.423c0.055,0.198,0.246,0.318,0.446,0.311
							c0.201,0.008,0.392-0.112,0.447-0.311l1.102-3.838C29.78,66.821,29.644,66.582,29.409,66.523z"/>
					</g>
				</g>
				<polygon opacity="0.4" points="22.471,61.004 23.139,60.99 23.507,59.438 22.217,59.445 				"/>
				<path fill="#29353F" d="M22.798,62.679v-5.837c0-0.195-0.161-0.358-0.355-0.358h-3.695c-0.193,0-0.356,0.163-0.356,0.358v5.837
					H22.798z"/>
				<path opacity="0.1" fill="#FFFFFF" d="M22.572,56.925c0,0.102-0.084,0.183-0.185,0.183H18.79c-0.103,0-0.183-0.081-0.183-0.183
					l0,0c0-0.102,0.08-0.186,0.183-0.186h3.598C22.488,56.739,22.572,56.823,22.572,56.925L22.572,56.925z"/>
				<path opacity="0.1" d="M30.551,59.438L10.459,74.666h20.092c1.096,0,1.98-0.883,1.98-1.979V61.42
					C32.531,60.326,31.646,59.438,30.551,59.438z"/>
			</g>
		</g>
		<path opacity="0.3" d="M11.848,75.752c0.001,0.003,0.002,0.004,0.002,0.006c0.072,0.094,0.148,0.186,0.221,0.281
			c0.083,0.106,0.167,0.216,0.253,0.321c0.145,0.18,0.294,0.355,0.445,0.529c0.005,0.005,0.008,0.009,0.013,0.014
			c0.279,0.322,0.572,0.634,0.874,0.937h19.308c0.007-0.007,0.013-0.014,0.019-0.02l0.002-0.001c0.007-0.008,0.013-0.017,0.02-0.024
			c0.135-0.158,0.266-0.319,0.395-0.481c0.004-0.004,0.007-0.01,0.011-0.014c0.132-0.168,0.262-0.337,0.387-0.51
			c0.003-0.004,0.006-0.006,0.008-0.011l-0.001,0.001c0.191-0.264,0.373-0.531,0.548-0.806v0.002
			c0.001-0.004,0.003-0.008,0.006-0.01c0.705-1.107,1.28-2.304,1.707-3.57l0.001-0.001c0.031-0.095,0.062-0.185,0.095-0.28h-0.002
			c0.045-0.144,0.086-0.29,0.127-0.435c0.02-0.066,0.039-0.133,0.057-0.199c0.044-0.158,0.084-0.32,0.123-0.48
			c0.022-0.095,0.044-0.189,0.065-0.286c0.031-0.144,0.062-0.289,0.09-0.435c0.021-0.117,0.042-0.234,0.062-0.352
			c0.021-0.131,0.044-0.262,0.062-0.395c0.02-0.137,0.036-0.275,0.054-0.415c0.014-0.117,0.028-0.233,0.039-0.352
			c0.017-0.166,0.026-0.333,0.038-0.5c0.006-0.096,0.016-0.189,0.021-0.283c0.011-0.265,0.02-0.53,0.02-0.799
			c0-1.76-0.281-3.454-0.795-5.043h0.001c-0.034-0.105-0.071-0.211-0.108-0.318c0,0,0-0.001-0.001-0.001
			c-0.61-1.76-1.513-3.384-2.649-4.813c0,0,0.002,0.001,0.003,0.001c-0.012-0.013-0.023-0.026-0.034-0.04
			c-0.104-0.128-0.206-0.254-0.313-0.38c-0.04-0.049-0.084-0.096-0.126-0.146c-0.096-0.11-0.19-0.22-0.289-0.328
			c-0.007-0.007-0.014-0.014-0.02-0.021c-0.001,0-0.001-0.001-0.004-0.001c-2.293-2.487-5.348-4.261-8.797-4.951
			c0,0-0.001,0-0.001-0.001c-0.027-0.005-0.053-0.008-0.077-0.014c-0.23-0.045-0.463-0.087-0.697-0.122
			c-0.104-0.015-0.208-0.025-0.311-0.039c-0.163-0.021-0.325-0.046-0.491-0.061c-0.159-0.018-0.319-0.025-0.48-0.037
			c-0.112-0.008-0.224-0.02-0.338-0.025c-0.276-0.014-0.552-0.021-0.833-0.021c-0.299,0-0.598,0.01-0.894,0.026
			c-0.043,0.001-0.085,0.006-0.128,0.009c-0.261,0.017-0.52,0.037-0.778,0.066c-0.019,0.001-0.038,0.005-0.057,0.007
			c-3.116,0.353-5.963,1.582-8.296,3.433C8.828,57.199,7.93,60.46,7.93,63.932C7.93,68.362,9.386,72.454,11.848,75.752
			L11.848,75.752z"/>
		<g>
			<g>
				<path fill="#76D9FC" d="M43.203,77.84c3.531-3.575,5.713-8.486,5.713-13.908c0-10.934-8.861-19.794-19.792-19.794
					c-10.932,0-19.795,8.86-19.795,19.794c0,5.422,2.182,10.333,5.714,13.908H43.203z"/>
				<path fill-rule="evenodd" clip-rule="evenodd" fill="#00A936" d="M16.348,67.8c-0.109-0.045-0.26-0.076-0.361-0.09
					c-0.132-0.016-0.232-0.02-0.322,0c-0.27,0.08-0.288,0.361,0.444,0.803c0.194,0.26,0.551,0.498,0.887,0.367
					c0.196-0.555-0.21-0.893-0.647-1.043C16.348,67.8,16.351,67.812,16.348,67.8z"/>
				<path fill-rule="evenodd" clip-rule="evenodd" fill="#00A936" d="M19.407,62.193c0.032,0.028,0.053,0.074,0.08,0.079h0.042
					c0.197,0.057,0.389-0.143,0.24-0.155C19.71,62.106,19.597,62.123,19.407,62.193z"/>
				<path fill-rule="evenodd" clip-rule="evenodd" fill="#00A936" d="M23.992,60.466c-0.313,0.054-0.389,0.264,0.284,0.726
					c0.083-0.022,0.663-0.153,0.323,0.197C25.645,60.764,24.526,60.37,23.992,60.466z"/>
				<path fill-rule="evenodd" clip-rule="evenodd" fill="#00A936" d="M23.992,55.994c1.126-0.458,1.386-3.424,0.044-3.337
					c-0.087,0-0.173,0.043-0.283,0.084C24.313,53.775,23.019,55.096,23.992,55.994z"/>
				<path fill-rule="evenodd" clip-rule="evenodd" fill="#00A936" d="M36.926,58.452c0.088-0.618-0.896-1.074-1.34-1.049
					c-0.258,0.018-0.309,0.203,0.169,0.647C35.309,59.104,36.497,59.161,36.926,58.452z"/>
				<path fill-rule="evenodd" clip-rule="evenodd" fill="#00A936" d="M26.854,50.728c0.324-0.151,0.479-0.69,0-0.69
					c-0.088-0.023-0.154-0.046-0.241-0.041c-0.086,0.004-0.174,0.034-0.235,0.041C25.426,50.228,25.713,51.802,26.854,50.728z"/>
				<path fill-rule="evenodd" clip-rule="evenodd" fill="#00A936" d="M28.184,50.359c-1.375,0.174-2.762,1.502-1.484,2.815
					c0.916,1.145-1.321,3.478,0.803,4.075c0.843-1.885,3.148-3.378,2.579-5.678C29.842,50.592,29.013,50.255,28.184,50.359z"/>
				<path fill="#00A936" d="M14.382,71.371c0.842,1.057,0.438,2.272,0.372,3.429c-0.021,0.007,0.011,0.034,0.011,0.039
					c-0.043,0.701,0.067,1.369,0.659,1.971c0.278,0.359,0.591,0.697,0.912,1.03h12.026c-0.835-0.38-1.844-0.507-2.551-0.261
					c-2.036-1.354-3.509-3.423-5.802-4.431c-1.866-1.811-6.072-0.685-5.997-4.11c0.194-1.626-1.11-2.411-2.09-3.177
					c-0.753-2.517,3.837-3.441,3.904-0.686c1.511-0.079,2.04-2.715,3.787-3.096c0.897-0.781,3.33,0.058,2.45-1.535
					c0.869-0.826,3.42-0.8,2.173-2.731c-0.418-1.885-2.734-2.796-3.498-0.649c-2.097,0.562-1.252-3.989,0.884-3.383
					c1.545,0.091,1.336-1.255,0.397-1.687c0-0.066-0.02-0.104-0.077-0.045c-0.174-0.063-0.354-0.131-0.564-0.119
					c-2.092-1.157,2.094-4.104-0.68-5.036c-3.042,2.599-7.683,6.688-9.54,10.509c-0.841,2.397-0.698,4.809-0.602,7.329
					C11.408,67.172,13.064,69.185,14.382,71.371z"/>
				<path fill="#00A936" d="M44.207,76.732c2.932-3.453,4.709-7.916,4.709-12.801c0-0.545-0.037-1.082-0.081-1.617
					c-0.013-0.134-0.024-0.269-0.039-0.401c-1.131,0.619-3.144-2.785-1.085-1.166c0.402-0.028,0.655-0.145,0.846-0.318
					c-0.238-1.239-0.56-2.442-1.014-3.588c-0.2-0.24-0.396-0.466-0.562-0.602c0.016-0.247-0.009-0.484-0.039-0.723
					c-0.01-0.013,0.012-0.031,0-0.044c-3.227-6.641-10.037-11.226-17.912-11.226c-0.537,0-1.083,0.033-1.612,0.077
					c-0.277,0.058-0.58,0.094-0.891,0.122c-0.105,0.01-0.212,0.022-0.317,0.04c-1.111,0.157-2.173,0.352-3.216,0.682
					c2.72-0.2,5.516-0.129,7.971,1.09c0.647,2.085,4.532,0.04,4.345,2.37c0.03,0.033,0.089,0.087,0.123,0.127
					c-0.062,0.044,0.044,0.47,0.122,0.113c0.672,0.761,2.084,2.336,0.603,2.139c-1.966-0.269-1.455,3.604-0.04,4.308
					c1.35,0.726,2.107-0.732,0.722-1.448c-0.188-1.816,3.028,1.115,1.608,2.088c-0.056,0.038-0.102,0.083-0.157,0.124
					c0.064-0.26-0.093-0.015-0.087,0.044c-1.614,1.169-0.694,3.921-1.319,5.755c-1.118,2.479,2.792,1.387,2.209-0.565
					c-0.715-1.795,2.973-0.977,2.174-2.252c2.238,1.186,2.027-2.001,1.092-3.065c0.437-1.703,1.588,0.199,1.042,1.127
					c0.088,0.879,0.845,1.081,1.453,1.331c0.027,0.02,0.059,0.023,0.118,0.038c0.531,0.254,0.851,0.578,0.277,1.576
					c-0.658,2.216-2.886,2.339-4.705,1.928c-1.844,0.764-2.186,3.001-3.225,4.507c-1.03,1.883-1.887,4.656-0.035,6.321
					c1.77,1.7,3.806,0.224,5.273-0.926c2.815-0.366,3.073,2.948,1.688,4.637C44.23,76.609,44.219,76.668,44.207,76.732z"/>
				<g opacity="0.2">
					<path fill="#010000" d="M10.291,57.832c-0.005,0.015-0.008,0.025-0.013,0.037c0.185-0.011,0.345-0.022,0.345-0.037H10.291z"/>
					<path fill="#010000" d="M45.841,74.52H45.82c0,0.017-0.005,0.031-0.007,0.047C45.823,74.551,45.833,74.536,45.841,74.52z"/>
					<path fill="#010000" d="M12.349,64.189c0.023,2.212,0.351,4.338,0.931,6.322c-2.333-0.332-2.639-0.637-2.669-0.68
						c0.003,0.004,0.013,0.031,0.013,0.063h-0.377c0.058,0.179,0.119,0.358,0.181,0.535c0.274,0.154,0.701,0.291,1.312,0.421
						c0.478,0.103,1.059,0.2,1.738,0.291c0.705,2.175,1.721,4.162,2.981,5.892c-1.403-0.382-2.494-0.821-3.211-1.282
						c0.294,0.397,0.608,0.777,0.933,1.151c0.854,0.357,1.826,0.646,2.73,0.867c0.044,0.01,0.09,0.021,0.135,0.033
						c0.01,0.012,0.021,0.023,0.03,0.036h3.427c-1.116-0.16-2.167-0.352-3.127-0.575c-1.373-1.74-2.484-3.783-3.251-6.039
						c0.508,0.062,1.06,0.117,1.654,0.17c1.734,0.16,3.746,0.283,5.937,0.368c0.373,2.236,0.914,4.29,1.6,6.076h0.637
						c-0.014-0.036-0.028-0.071-0.043-0.108c-0.682-1.738-1.215-3.754-1.592-5.945c2.035,0.068,4.215,0.11,6.455,0.11v5.943h0.59
						v-5.943c2.243-0.003,4.42-0.042,6.457-0.114c-0.377,2.193-0.912,4.208-1.592,5.949c-0.016,0.037-0.029,0.072-0.043,0.108h0.633
						c0.688-1.786,1.229-3.842,1.604-6.081c2.16-0.084,4.145-0.206,5.858-0.363c0.627-0.056,1.205-0.115,1.732-0.177
						c-0.765,2.252-1.87,4.294-3.244,6.033c-0.972,0.229-2.037,0.426-3.171,0.588h3.461c0.013-0.017,0.027-0.032,0.041-0.049
						c0.027-0.008,0.058-0.015,0.087-0.021c0.992-0.243,2.062-0.565,2.977-0.975c0.345-0.406,0.679-0.827,0.991-1.257
						c-0.683,0.531-1.876,1.044-3.466,1.481c1.255-1.729,2.271-3.716,2.976-5.887c0.643-0.09,1.198-0.185,1.658-0.282
						c0.853-0.185,1.349-0.376,1.566-0.617c0.037-0.114,0.078-0.224,0.115-0.339h-0.568c0-0.032,0.01-0.06,0.016-0.063
						c-0.032,0.043-0.33,0.341-2.592,0.669c0.58-1.981,0.904-4.104,0.928-6.312H48.8v-0.599h-3.015
						c-0.031-2.23-0.37-4.371-0.967-6.366c2.285,0.33,2.585,0.629,2.616,0.671c-0.006-0.005-0.018-0.029-0.018-0.063h0.538
						c-0.041-0.129-0.084-0.257-0.13-0.386c-0.239-0.22-0.722-0.399-1.519-0.569c-0.466-0.101-1.032-0.197-1.688-0.283
						c-0.762-2.301-1.871-4.393-3.254-6.181c1.388,0.357,2.492,0.772,3.256,1.21c-0.303-0.378-0.615-0.749-0.945-1.108
						c-0.792-0.311-1.662-0.563-2.479-0.764c-0.149-0.039-0.3-0.071-0.451-0.107c-2.109-2.461-4.762-4.261-7.717-5.12
						c-1.26-0.253-2.568-0.386-3.903-0.386c-1.483,0-2.928,0.168-4.321,0.478c-2.83,0.893-5.371,2.649-7.407,5.023
						c-0.159,0.037-0.319,0.073-0.475,0.112c-0.745,0.182-1.539,0.409-2.273,0.687c-0.32,0.342-0.627,0.697-0.923,1.061
						c0.756-0.394,1.786-0.766,3.048-1.092c-1.38,1.787-2.489,3.874-3.253,6.175c-0.699,0.091-1.294,0.189-1.781,0.296
						c-0.571,0.123-0.982,0.248-1.255,0.393c-0.058,0.157-0.11,0.313-0.16,0.469c0.561-0.132,1.551-0.321,2.996-0.527
						c-0.599,1.999-0.939,4.144-0.97,6.38H9.341c-0.005,0.112-0.012,0.224-0.012,0.341c0,0.086,0.006,0.171,0.007,0.258H12.349z
						 M44.215,70.585c-0.662,0.086-1.458,0.169-2.417,0.254c-1.568,0.13-3.355,0.239-5.28,0.318
						c0.336-2.194,0.515-4.549,0.527-6.968h8.149C45.17,66.435,44.827,68.585,44.215,70.585z M45.193,63.591h-8.148
						c-0.017-2.439-0.204-4.809-0.548-7.019c1.93,0.077,3.718,0.184,5.286,0.317c0.948,0.082,1.734,0.167,2.391,0.248
						C44.804,59.153,45.161,61.324,45.193,63.591z M40.427,50.187c1.503,1.793,2.714,3.938,3.539,6.322
						c-0.52-0.063-1.086-0.119-1.702-0.18c-1.714-0.153-3.703-0.276-5.866-0.36c-0.381-2.231-0.929-4.286-1.622-6.064
						c-0.074-0.192-0.153-0.38-0.232-0.568C36.701,49.519,38.699,49.803,40.427,50.187z M39.761,49.436
						c-1.651-0.323-3.51-0.569-5.495-0.723c-0.857-1.848-1.857-3.19-2.939-3.968C34.533,45.288,37.445,46.969,39.761,49.436z
						 M29.361,44.569c1.538,0.161,3.006,1.591,4.226,4.094c-1.361-0.088-2.779-0.14-4.226-0.146V44.569z M29.361,49.119
						c1.552,0.006,3.065,0.062,4.514,0.167c0.12,0.271,0.236,0.549,0.352,0.841c0.667,1.706,1.195,3.677,1.567,5.819
						c-2.028-0.073-4.198-0.11-6.433-0.115V49.119z M29.361,56.432c2.266,0.005,4.474,0.046,6.536,0.12
						c0.351,2.207,0.54,4.586,0.558,7.039h-7.094V56.432z M29.361,64.189h7.094c-0.012,2.433-0.195,4.793-0.538,6.987
						c-2.067,0.077-4.283,0.118-6.556,0.118V64.189z M28.771,71.295c-2.271,0-4.486-0.041-6.555-0.115
						c-0.341-2.195-0.527-4.556-0.538-6.99h7.093V71.295z M28.771,63.591h-7.093c0.017-2.453,0.207-4.834,0.561-7.044
						c2.062-0.072,4.271-0.112,6.532-0.115V63.591z M28.771,55.831c-2.233,0.003-4.4,0.041-6.433,0.111
						c0.372-2.144,0.901-4.109,1.569-5.815c0.114-0.294,0.23-0.573,0.351-0.843c1.448-0.103,2.966-0.159,4.513-0.165V55.831z
						 M28.771,48.518c-1.445,0.006-2.862,0.055-4.226,0.146c1.222-2.503,2.689-3.933,4.226-4.094V48.518z M26.808,44.745
						c-1.082,0.777-2.079,2.12-2.94,3.968c-1.984,0.153-3.839,0.394-5.491,0.72C20.694,46.965,23.602,45.286,26.808,44.745z
						 M17.71,50.181c1.727-0.381,3.724-0.665,5.882-0.845c-0.081,0.186-0.158,0.374-0.234,0.568
						c-0.691,1.778-1.238,3.829-1.621,6.062c-2.199,0.081-4.219,0.209-5.959,0.363c-0.576,0.056-1.112,0.111-1.607,0.168
						C14.999,54.117,16.212,51.972,17.71,50.181z M13.964,57.125c0.636-0.078,1.394-0.155,2.295-0.235
						c1.594-0.136,3.414-0.242,5.378-0.32c-0.344,2.21-0.531,4.58-0.549,7.021h-8.148C12.973,61.32,13.332,59.143,13.964,57.125z
						 M21.088,64.189c0.012,2.423,0.193,4.773,0.527,6.97c-1.954-0.078-3.766-0.185-5.356-0.32c-0.92-0.081-1.69-0.161-2.337-0.242
						c-0.612-2.003-0.959-4.159-0.982-6.407H21.088z"/>
				</g>
			</g>
			<g>
				<path fill="#FF5148" d="M41.221,54.562H16.912c-1.324,0-2.396,1.072-2.396,2.396v13.63c0,1.325,1.072,2.396,2.396,2.396h24.309
					c1.322,0,2.393-1.07,2.393-2.396v-13.63C43.613,55.634,42.543,54.562,41.221,54.562z M32.397,58.476h-6.665
					c-0.563,0-1.021-0.456-1.021-1.02c0-0.561,0.457-1.02,1.021-1.02h6.665c0.565,0,1.02,0.459,1.02,1.02
					C33.417,58.02,32.963,58.476,32.397,58.476z"/>
				<path fill="#EFEFEF" d="M41.804,68.933c0,1.324-1.073,2.395-2.396,2.395H18.721c-1.322,0-2.396-1.07-2.396-2.395v-6.111
					c0-1.321,1.074-2.394,2.396-2.394h20.688c1.322,0,2.396,1.072,2.396,2.394V68.933z"/>
				<g>
					<g>
						<path fill="#29353F" d="M24.06,63.13c-0.284-0.074-0.578,0.092-0.661,0.371l-0.839,2.93l-0.841-2.93
							c-0.069-0.239-0.298-0.386-0.541-0.379c-0.244-0.007-0.472,0.14-0.539,0.379l-0.843,2.93l-0.84-2.93
							c-0.08-0.279-0.375-0.445-0.661-0.371c-0.285,0.073-0.449,0.361-0.371,0.639l1.332,4.642c0.066,0.24,0.297,0.385,0.54,0.377
							c0.243,0.008,0.474-0.137,0.543-0.377l0.839-2.93l0.841,2.93c0.07,0.24,0.298,0.385,0.541,0.377
							c0.242,0.008,0.472-0.137,0.539-0.377l1.332-4.642C24.512,63.491,24.345,63.203,24.06,63.13z"/>
					</g>
					<g>
						<path fill="#29353F" d="M32.057,63.13c-0.285-0.074-0.582,0.092-0.662,0.371l-0.839,2.93l-0.841-2.93
							c-0.071-0.239-0.298-0.386-0.54-0.379c-0.243-0.007-0.473,0.14-0.543,0.379l-0.84,2.93l-0.841-2.93
							c-0.078-0.279-0.373-0.445-0.661-0.371c-0.284,0.073-0.449,0.361-0.371,0.639l1.332,4.642c0.07,0.24,0.299,0.385,0.541,0.377
							c0.243,0.008,0.473-0.137,0.54-0.377l0.843-2.93l0.84,2.93c0.066,0.24,0.298,0.385,0.541,0.377
							c0.241,0.008,0.472-0.137,0.541-0.377l1.33-4.642C32.508,63.491,32.341,63.203,32.057,63.13z"/>
					</g>
					<g>
						<path fill="#29353F" d="M39.837,63.13c-0.286-0.074-0.581,0.092-0.661,0.371l-0.843,2.93l-0.84-2.93
							c-0.07-0.239-0.298-0.386-0.544-0.379c-0.242-0.007-0.469,0.14-0.539,0.379l-0.84,2.93l-0.84-2.93
							c-0.081-0.279-0.374-0.445-0.662-0.371c-0.283,0.073-0.449,0.361-0.369,0.639l1.331,4.642c0.069,0.24,0.297,0.385,0.54,0.377
							c0.243,0.008,0.473-0.137,0.543-0.377l0.836-2.93l0.844,2.93c0.067,0.24,0.299,0.385,0.54,0.377
							c0.243,0.008,0.474-0.137,0.54-0.377l1.334-4.642C40.287,63.491,40.121,63.203,39.837,63.13z"/>
					</g>
				</g>
				<polygon opacity="0.4" points="31.442,56.452 32.25,56.437 32.697,54.562 31.136,54.568 				"/>
				<path fill="#29353F" d="M31.839,58.478v-7.059c0-0.238-0.194-0.436-0.432-0.436h-4.469c-0.234,0-0.432,0.197-0.432,0.436v7.059
					H31.839z"/>
				<path opacity="0.1" fill="#FFFFFF" d="M31.565,51.52c0,0.121-0.101,0.219-0.223,0.219h-4.352c-0.126,0-0.222-0.098-0.222-0.219
					l0,0c0-0.124,0.096-0.226,0.222-0.226h4.352C31.465,51.294,31.565,51.396,31.565,51.52L31.565,51.52z"/>
				<path opacity="0.1" d="M41.221,54.562L16.912,72.982h24.309c1.322,0,2.393-1.07,2.393-2.396v-13.63
					C43.613,55.634,42.543,54.562,41.221,54.562z"/>
			</g>
		</g>
	</g>
	<g>
		<g>
			<path fill="#76D9FC" d="M23.851,77.84h32.453c5.686-4.684,9.312-11.778,9.312-19.721c0-14.107-11.433-25.54-25.537-25.54
				c-14.105,0-25.541,11.433-25.541,25.54C14.537,66.062,18.163,73.156,23.851,77.84z"/>
			<path fill-rule="evenodd" clip-rule="evenodd" fill="#00A936" d="M23.592,63.11c-0.139-0.058-0.335-0.098-0.465-0.115
				c-0.172-0.021-0.3-0.026-0.416,0c-0.348,0.103-0.371,0.467,0.572,1.034c0.254,0.336,0.711,0.644,1.145,0.475
				c0.254-0.717-0.271-1.152-0.836-1.349C23.592,63.11,23.597,63.124,23.592,63.11z"/>
			<path fill-rule="evenodd" clip-rule="evenodd" fill="#00A936" d="M27.541,55.876c0.041,0.038,0.067,0.097,0.104,0.104h0.054
				c0.252,0.072,0.501-0.185,0.309-0.202C27.931,55.765,27.785,55.784,27.541,55.876z"/>
			<path fill-rule="evenodd" clip-rule="evenodd" fill="#00A936" d="M33.457,53.646c-0.405,0.07-0.503,0.341,0.366,0.938
				c0.107-0.029,0.854-0.197,0.416,0.256C35.59,54.032,34.146,53.525,33.457,53.646z"/>
			<path fill-rule="evenodd" clip-rule="evenodd" fill="#00A936" d="M33.457,47.877c1.453-0.59,1.787-4.419,0.056-4.306
				c-0.111,0-0.223,0.056-0.364,0.108C33.872,45.016,32.2,46.718,33.457,47.877z"/>
			<path fill-rule="evenodd" clip-rule="evenodd" fill="#00A936" d="M50.142,51.049c0.116-0.797-1.154-1.386-1.727-1.354
				c-0.333,0.023-0.398,0.262,0.218,0.836C48.058,51.89,49.592,51.963,50.142,51.049z"/>
			<path fill-rule="evenodd" clip-rule="evenodd" fill="#00A936" d="M37.148,41.083c0.419-0.195,0.618-0.892,0-0.892
				c-0.113-0.03-0.199-0.059-0.311-0.053c-0.112,0.004-0.225,0.044-0.306,0.053C35.307,40.437,35.678,42.47,37.148,41.083z"/>
			<path fill-rule="evenodd" clip-rule="evenodd" fill="#00A936" d="M38.864,40.607c-1.774,0.224-3.564,1.938-1.915,3.634
				c1.182,1.475-1.705,4.484,1.035,5.257c1.089-2.432,4.063-4.359,3.327-7.324C41.004,40.908,39.935,40.472,38.864,40.607z"/>
			<path fill="#00A936" d="M21.057,67.719c1.087,1.363,0.563,2.93,0.48,4.421c-0.029,0.011,0.014,0.048,0.014,0.054
				c-0.056,0.902,0.086,1.765,0.851,2.541c0.849,1.096,1.943,2.046,2.872,3.105h15.686c-0.539-1.665-3.495-2.692-5.154-2.115
				c-2.628-1.742-4.527-4.413-7.487-5.712c-2.407-2.338-7.837-0.885-7.737-5.305c0.252-2.098-1.434-3.112-2.696-4.098
				c-0.974-3.249,4.95-4.442,5.036-0.886c1.952-0.103,2.635-3.505,4.886-3.994c1.16-1.008,4.298,0.075,3.163-1.981
				c1.122-1.067,4.413-1.03,2.803-3.525c-0.54-2.431-3.528-3.605-4.511-0.838c-2.707,0.727-1.615-5.145,1.138-4.362
				c1.996,0.115,1.724-1.621,0.515-2.178c0-0.086-0.025-0.134-0.103-0.057c-0.221-0.083-0.452-0.169-0.726-0.154
				c-2.699-1.491,2.701-5.294-0.878-6.499c-3.926,3.354-9.911,8.631-12.309,13.56c-1.082,3.093-0.901,6.205-0.776,9.456
				C17.22,62.299,19.356,64.896,21.057,67.719z"/>
			<path fill="#00A936" d="M59.538,74.635c3.784-4.455,6.077-10.214,6.077-16.516c0-0.704-0.048-1.396-0.105-2.086
				c-0.018-0.173-0.03-0.348-0.051-0.519c-1.459,0.799-4.056-3.593-1.401-1.506c0.52-0.036,0.847-0.185,1.091-0.409
				c-0.307-1.601-0.721-3.152-1.305-4.63c-0.26-0.309-0.51-0.6-0.725-0.774c0.019-0.32-0.015-0.628-0.053-0.935
				c-0.013-0.016,0.014-0.039,0-0.057c-4.163-8.567-12.95-14.483-23.111-14.483c-0.692,0-1.396,0.042-2.082,0.099
				c-0.355,0.077-0.747,0.122-1.147,0.158c-0.136,0.014-0.273,0.03-0.408,0.053c-1.434,0.202-2.805,0.452-4.151,0.879
				c3.512-0.258,7.117-0.165,10.284,1.405c0.837,2.689,5.849,0.052,5.607,3.059c0.039,0.043,0.114,0.111,0.157,0.163
				c-0.078,0.058,0.059,0.606,0.159,0.148c0.866,0.98,2.688,3.013,0.775,2.76c-2.535-0.349-1.876,4.648-0.05,5.556
				c1.74,0.937,2.72-0.943,0.931-1.868c-0.241-2.343,3.906,1.44,2.076,2.693c-0.072,0.05-0.134,0.109-0.203,0.161
				c0.083-0.337-0.12-0.019-0.114,0.057c-2.081,1.509-0.895,5.059-1.703,7.425c-1.439,3.198,3.604,1.788,2.853-0.729
				c-0.924-2.317,3.836-1.262,2.806-2.907c2.887,1.53,2.613-2.582,1.408-3.955c0.563-2.197,2.047,0.258,1.346,1.457
				c0.112,1.132,1.088,1.393,1.873,1.715c0.036,0.026,0.076,0.031,0.154,0.05c0.684,0.326,1.096,0.746,0.356,2.033
				c-0.849,2.858-3.725,3.016-6.073,2.488c-2.377,0.984-2.818,3.871-4.157,5.814c-1.33,2.428-2.437,6.006-0.048,8.154
				c2.283,2.194,4.911,0.289,6.806-1.193c3.633-0.473,3.964,3.805,2.177,5.982C59.568,74.477,59.553,74.553,59.538,74.635z"/>
			<g opacity="0.2">
				<path fill="#010000" d="M15.778,50.247c-0.005,0.021-0.01,0.033-0.015,0.05c0.235-0.014,0.444-0.029,0.444-0.05H15.778z"/>
				<path fill="#010000" d="M61.646,71.78h-0.027c0,0.02-0.006,0.04-0.009,0.061C61.623,71.82,61.637,71.8,61.646,71.78z"/>
				<path fill="#010000" d="M18.432,58.451c0.03,2.854,0.453,5.598,1.202,8.159c-3.011-0.43-3.405-0.823-3.444-0.879
					c0.004,0.005,0.019,0.039,0.019,0.082h-0.489c0.075,0.231,0.155,0.464,0.234,0.691c0.354,0.199,0.904,0.375,1.691,0.543
					c0.617,0.131,1.365,0.259,2.242,0.376c0.912,2.805,2.223,5.369,3.847,7.602c-1.809-0.493-3.214-1.062-4.143-1.654
					c0.382,0.512,0.785,1.004,1.204,1.485c1.104,0.462,2.357,0.832,3.522,1.118c0.058,0.012,0.117,0.026,0.175,0.045
					c0.519,0.639,1.064,1.246,1.636,1.82h1.104c-0.521-0.488-1.026-1.003-1.507-1.547c2.191,0.45,4.687,0.79,7.366,1.005
					c0.081,0.185,0.163,0.364,0.247,0.542h0.846c-0.078-0.156-0.153-0.313-0.229-0.476c1.823,0.126,3.725,0.189,5.665,0.2v0.275
					h0.763v-0.275c1.944-0.011,3.845-0.078,5.669-0.204c-0.077,0.165-0.153,0.323-0.23,0.479h0.85
					c0.084-0.179,0.166-0.358,0.248-0.546c2.682-0.216,5.18-0.562,7.37-1.016c-0.483,0.55-0.992,1.068-1.519,1.562h1.106
					c0.575-0.579,1.126-1.193,1.648-1.839c0.036-0.01,0.074-0.021,0.111-0.026c1.279-0.312,2.663-0.729,3.841-1.257
					c0.444-0.526,0.875-1.067,1.28-1.623c-0.884,0.685-2.421,1.348-4.473,1.911c1.62-2.229,2.932-4.792,3.839-7.595
					c0.83-0.116,1.547-0.238,2.141-0.363c1.098-0.236,1.738-0.484,2.021-0.797c0.049-0.147,0.1-0.288,0.148-0.438H63.7
					c0-0.043,0.015-0.077,0.022-0.082c-0.043,0.056-0.428,0.439-3.346,0.863c0.749-2.556,1.167-5.295,1.198-8.144h3.89V57.68h-3.89
					c-0.04-2.878-0.478-5.641-1.25-8.215c2.95,0.426,3.336,0.812,3.377,0.865c-0.007-0.007-0.022-0.037-0.022-0.083h0.695
					c-0.054-0.165-0.111-0.331-0.168-0.496c-0.308-0.282-0.932-0.515-1.961-0.735c-0.6-0.128-1.328-0.254-2.178-0.365
					c-0.982-2.966-2.414-5.667-4.196-7.974c1.788,0.46,3.214,0.997,4.2,1.561c-0.392-0.487-0.793-0.967-1.221-1.428
					c-1.022-0.403-2.145-0.73-3.198-0.987c-0.192-0.048-0.39-0.093-0.583-0.139c-2.723-3.175-6.144-5.498-9.957-6.606
					c-1.628-0.327-3.312-0.498-5.035-0.498c-1.916,0-3.779,0.217-5.577,0.619c-3.65,1.149-6.93,3.416-9.558,6.479
					c-0.205,0.049-0.411,0.097-0.612,0.145c-0.961,0.233-1.984,0.528-2.931,0.886c-0.414,0.441-0.811,0.899-1.191,1.369
					c0.975-0.509,2.304-0.99,3.931-1.409c-1.779,2.307-3.211,4.999-4.196,7.966c-0.9,0.118-1.67,0.247-2.299,0.382
					c-0.735,0.16-1.266,0.321-1.617,0.509c-0.076,0.201-0.143,0.402-0.207,0.604c0.723-0.17,2-0.417,3.865-0.682
					c-0.771,2.579-1.212,5.348-1.251,8.232h-3.883c-0.005,0.145-0.015,0.289-0.015,0.439c0,0.111,0.007,0.221,0.01,0.332H18.432z
					 M55.1,75.305c-2.275,0.539-4.943,0.938-7.843,1.185c0.036-0.093,0.076-0.182,0.111-0.275c0.914-2.339,1.63-5.047,2.122-7.995
					c2.789-0.11,5.349-0.266,7.559-0.469c0.81-0.072,1.555-0.151,2.237-0.231C58.301,70.428,56.871,73.06,55.1,75.305z
					 M59.551,66.704c-0.856,0.11-1.883,0.219-3.122,0.328c-2.023,0.168-4.329,0.306-6.811,0.408c0.432-2.832,0.664-5.867,0.68-8.989
					h10.513C60.78,61.349,60.337,64.125,59.551,66.704z M60.81,57.68H50.298c-0.021-3.148-0.265-6.205-0.707-9.057
					c2.489,0.099,4.797,0.237,6.82,0.41c1.224,0.104,2.239,0.215,3.084,0.319C60.307,51.954,60.768,54.755,60.81,57.68z
					 M54.66,40.383c1.94,2.314,3.501,5.082,4.567,8.158c-0.671-0.082-1.401-0.154-2.197-0.23c-2.212-0.199-4.778-0.357-7.568-0.466
					c-0.492-2.878-1.198-5.531-2.094-7.824c-0.095-0.246-0.196-0.491-0.298-0.734C49.855,39.522,52.432,39.888,54.66,40.383z
					 M53.802,39.417c-2.131-0.419-4.528-0.736-7.091-0.934c-1.107-2.385-2.397-4.117-3.792-5.12
					C47.057,34.063,50.814,36.232,53.802,39.417z M40.384,33.137c1.984,0.207,3.878,2.053,5.451,5.283
					c-1.756-0.115-3.587-0.182-5.451-0.188V33.137z M40.384,39.008c1.999,0.006,3.954,0.08,5.823,0.214
					c0.154,0.35,0.305,0.71,0.454,1.086c0.86,2.2,1.541,4.743,2.022,7.508c-2.616-0.093-5.418-0.144-8.3-0.148V39.008z
					 M40.384,48.442c2.923,0.006,5.772,0.06,8.433,0.155c0.451,2.848,0.698,5.916,0.72,9.082h-9.152V48.442z M40.384,58.451h9.152
					c-0.013,3.138-0.255,6.186-0.694,9.016c-2.668,0.099-5.525,0.153-8.458,0.153V58.451z M40.384,68.396
					c2.893-0.004,5.703-0.054,8.33-0.146c-0.485,2.828-1.175,5.429-2.053,7.676c-0.086,0.219-0.168,0.426-0.257,0.634
					c-1.928,0.146-3.952,0.222-6.021,0.231V68.396z M24.918,75.32c-1.772-2.244-3.205-4.88-4.193-7.791
					c0.654,0.081,1.365,0.152,2.135,0.221c2.235,0.206,4.831,0.364,7.657,0.474c0.493,2.946,1.209,5.651,2.121,7.99
					c0.038,0.094,0.077,0.186,0.113,0.278C29.857,76.249,27.196,75.852,24.918,75.32z M39.621,76.79
					c-2.065-0.006-4.086-0.084-6.017-0.226c-0.087-0.206-0.173-0.421-0.257-0.64c-0.88-2.243-1.566-4.845-2.053-7.673
					c2.626,0.09,5.437,0.144,8.326,0.144V76.79z M39.621,67.62c-2.93,0-5.787-0.055-8.455-0.15c-0.44-2.831-0.68-5.876-0.693-9.019
					h9.148V67.62z M39.621,57.68h-9.148c0.021-3.166,0.267-6.237,0.722-9.09c2.66-0.092,5.51-0.146,8.427-0.147V57.68z
					 M39.621,47.667c-2.879,0.004-5.677,0.052-8.297,0.145c0.48-2.765,1.162-5.304,2.023-7.504c0.146-0.381,0.299-0.74,0.454-1.09
					c1.867-0.13,3.823-0.204,5.819-0.21V47.667z M39.621,38.231c-1.863,0.007-3.691,0.071-5.45,0.188
					c1.577-3.23,3.47-5.076,5.45-5.283V38.231z M37.089,33.363c-1.396,1.003-2.683,2.735-3.792,5.12
					c-2.562,0.197-4.956,0.507-7.088,0.928C29.2,36.229,32.951,34.06,37.089,33.363z M25.35,40.378
					c2.229-0.492,4.805-0.859,7.59-1.092c-0.104,0.239-0.204,0.483-0.302,0.734c-0.894,2.293-1.598,4.94-2.094,7.821
					c-2.835,0.105-5.442,0.268-7.688,0.469c-0.743,0.068-1.436,0.142-2.073,0.217C21.852,45.455,23.417,42.688,25.35,40.378z
					 M20.52,49.337c0.817-0.101,1.795-0.201,2.96-0.304c2.055-0.177,4.402-0.312,6.938-0.413c-0.445,2.853-0.688,5.907-0.709,9.06
					H19.195C19.238,54.748,19.703,51.941,20.52,49.337z M29.709,58.451c0.016,3.126,0.25,6.157,0.681,8.993
					c-2.521-0.101-4.858-0.237-6.91-0.412c-1.189-0.106-2.183-0.208-3.017-0.314c-0.79-2.584-1.238-5.364-1.268-8.267H29.709z"/>
			</g>
		</g>
		<g>
			<path fill="#2579F2" d="M55.684,46.028H24.322c-1.709,0-3.092,1.384-3.092,3.092v17.585c0,1.711,1.383,3.091,3.092,3.091h31.361
				c1.707,0,3.087-1.38,3.087-3.091V49.12C58.771,47.412,57.391,46.028,55.684,46.028z M44.3,51.08h-8.599
				c-0.727,0-1.317-0.591-1.317-1.317c0-0.724,0.591-1.313,1.317-1.313H44.3c0.731,0,1.317,0.59,1.317,1.313
				C45.617,50.489,45.031,51.08,44.3,51.08z"/>
			<path fill="#EFEFEF" d="M56.438,64.571c0,1.708-1.383,3.091-3.091,3.091H26.654c-1.707,0-3.092-1.383-3.092-3.091v-7.884
				c0-1.706,1.385-3.091,3.092-3.091h26.692c1.708,0,3.091,1.385,3.091,3.091V64.571z"/>
			<g>
				<g>
					<path fill="#29353F" d="M33.544,57.085c-0.367-0.096-0.747,0.119-0.854,0.479l-1.084,3.778l-1.082-3.778
						c-0.092-0.311-0.385-0.5-0.696-0.49c-0.318-0.01-0.611,0.18-0.697,0.49l-1.088,3.778l-1.084-3.778
						c-0.103-0.36-0.482-0.575-0.854-0.479c-0.367,0.095-0.579,0.466-0.476,0.824l1.717,5.988c0.086,0.31,0.383,0.496,0.696,0.488
						c0.313,0.008,0.609-0.179,0.7-0.488l1.085-3.781l1.083,3.781c0.09,0.31,0.384,0.496,0.695,0.488
						c0.314,0.008,0.612-0.179,0.698-0.488l1.717-5.988C34.127,57.551,33.912,57.18,33.544,57.085z"/>
				</g>
				<g>
					<path fill="#29353F" d="M43.859,57.085c-0.366-0.096-0.749,0.119-0.854,0.479l-1.08,3.778l-1.086-3.778
						c-0.091-0.311-0.385-0.5-0.697-0.49c-0.313-0.01-0.611,0.18-0.7,0.49l-1.085,3.778l-1.083-3.778
						c-0.103-0.36-0.482-0.575-0.854-0.479c-0.366,0.095-0.579,0.466-0.479,0.824l1.72,5.988c0.091,0.31,0.386,0.496,0.696,0.488
						c0.314,0.008,0.611-0.179,0.697-0.488l1.088-3.781l1.083,3.781c0.087,0.31,0.384,0.496,0.7,0.488
						c0.311,0.008,0.606-0.179,0.698-0.488l1.713-5.988C44.443,57.551,44.227,57.18,43.859,57.085z"/>
				</g>
				<g>
					<path fill="#29353F" d="M53.9,57.085c-0.37-0.096-0.75,0.119-0.854,0.479l-1.086,3.778l-1.085-3.778
						c-0.09-0.311-0.382-0.5-0.699-0.49c-0.313-0.01-0.607,0.18-0.698,0.49l-1.083,3.778l-1.084-3.778
						c-0.103-0.36-0.483-0.575-0.854-0.479c-0.366,0.095-0.579,0.466-0.477,0.824l1.717,5.988c0.091,0.31,0.385,0.496,0.697,0.488
						c0.314,0.008,0.609-0.179,0.7-0.488l1.081-3.781l1.088,3.781c0.085,0.31,0.382,0.496,0.696,0.488
						c0.313,0.008,0.609-0.179,0.697-0.488l1.72-5.988C54.479,57.551,54.267,57.18,53.9,57.085z"/>
				</g>
			</g>
			<polygon opacity="0.4" points="43.07,48.469 44.111,48.449 44.688,46.028 42.673,46.038 			"/>
			<path fill="#29353F" d="M43.58,51.081v-9.108c0-0.306-0.25-0.559-0.557-0.559h-5.765c-0.305,0-0.558,0.253-0.558,0.559v9.108
				H43.58z"/>
			<path opacity="0.1" fill="#FFFFFF" d="M43.227,42.104c0,0.156-0.13,0.281-0.287,0.281h-5.613c-0.16,0-0.288-0.125-0.288-0.281
				l0,0c0-0.16,0.128-0.29,0.288-0.29h5.613C43.097,41.814,43.227,41.944,43.227,42.104L43.227,42.104z"/>
			<path opacity="0.1" d="M55.684,46.028L24.322,69.796h31.361c1.707,0,3.087-1.38,3.087-3.091V49.12
				C58.771,47.412,57.391,46.028,55.684,46.028z"/>
		</g>
	</g>
	<path opacity="0.3" d="M23.552,60.453c0.032,0.101,0.067,0.199,0.102,0.301c1.201,3.688,2.987,7.115,5.259,10.161l-0.002-0.001
		c0.002,0.001,0.004,0.004,0.004,0.004c0.124,0.168,0.258,0.327,0.384,0.492c0.155,0.2,0.31,0.402,0.471,0.599
		c0.243,0.299,0.492,0.595,0.745,0.887c0.022,0.024,0.042,0.051,0.064,0.075c0,0,0.001,0,0.003,0.001
		c1.557,1.792,3.294,3.421,5.178,4.868h20.527c1.15-0.947,2.22-1.989,3.188-3.122c0.002,0,0.004,0,0.004,0
		c0.012-0.014,0.021-0.025,0.031-0.039c0.433-0.507,0.846-1.029,1.236-1.57c0.004-0.004,0.009-0.009,0.013-0.014
		c0,0-0.001,0-0.001,0.001c0.295-0.409,0.58-0.828,0.853-1.255l0,0c0.002-0.003,0.003-0.006,0.005-0.008
		c1.104-1.729,2.004-3.602,2.67-5.58c0,0,0-0.002,0.001-0.002c0.049-0.147,0.1-0.288,0.148-0.438h-0.002
		c0.07-0.227,0.136-0.456,0.199-0.687c0.029-0.099,0.059-0.198,0.086-0.298c0.068-0.252,0.131-0.505,0.191-0.758
		c0.035-0.147,0.069-0.294,0.103-0.439c0.049-0.228,0.098-0.454,0.141-0.683c0.034-0.181,0.066-0.363,0.097-0.546
		c0.035-0.205,0.07-0.41,0.099-0.618c0.031-0.214,0.057-0.428,0.083-0.643c0.021-0.186,0.045-0.369,0.062-0.555
		c0.024-0.258,0.042-0.517,0.06-0.775c0.009-0.149,0.022-0.298,0.031-0.448c0.02-0.413,0.031-0.828,0.031-1.245
		c0-2.748-0.44-5.392-1.242-7.872h0.002c-0.054-0.165-0.111-0.331-0.168-0.496c0,0-0.002-0.001-0.003-0.002
		c-0.953-2.749-2.362-5.282-4.136-7.514c0,0,0.002,0.001,0.004,0.002c-0.016-0.02-0.032-0.038-0.047-0.057
		c-0.162-0.201-0.324-0.4-0.491-0.596c-0.066-0.077-0.135-0.154-0.202-0.231c-0.149-0.173-0.299-0.347-0.456-0.517
		c-0.008-0.009-0.016-0.019-0.024-0.027c-0.001-0.002-0.002-0.002-0.002-0.002c-3.584-3.884-8.353-6.652-13.736-7.73l0,0
		c-0.006,0-0.012-0.001-0.018-0.002c-0.396-0.079-0.793-0.15-1.196-0.211c-0.13-0.02-0.262-0.032-0.394-0.05
		c-0.284-0.038-0.568-0.078-0.854-0.106c-0.225-0.023-0.453-0.036-0.678-0.052c-0.2-0.015-0.398-0.034-0.599-0.046
		c-0.43-0.02-0.862-0.031-1.297-0.031c-0.469,0-0.934,0.014-1.395,0.04c-0.072,0.003-0.142,0.011-0.214,0.015
		c-0.401,0.024-0.802,0.058-1.197,0.101c-0.04,0.005-0.077,0.011-0.115,0.016c-0.434,0.05-0.864,0.11-1.294,0.181
		c-0.002,0.001-0.006,0.001-0.006,0.001c-4.545,0.757-8.676,2.722-12.071,5.54c-0.049,0.146-0.106,0.288-0.152,0.435
		c-0.001,0.003-0.001,0.005-0.004,0.008c-1.109,3.431-1.716,7.088-1.716,10.889C21.914,53.514,22.489,57.091,23.552,60.453
		L23.552,60.453z"/>
	<g>
		<g>
			<path fill="#76D9FC" d="M37.417,77.84h43.061c8.404-6.463,13.821-16.617,13.821-28.037c0-19.525-15.826-35.355-35.351-35.355
				s-35.355,15.83-35.355,35.355C23.593,61.223,29.013,71.377,37.417,77.84z"/>
			<path fill-rule="evenodd" clip-rule="evenodd" fill="#00A936" d="M36.128,56.712c-0.193-0.081-0.464-0.135-0.644-0.159
				c-0.238-0.029-0.414-0.037-0.574,0c-0.483,0.142-0.516,0.645,0.791,1.431c0.35,0.465,0.984,0.891,1.585,0.658
				c0.349-0.993-0.376-1.596-1.158-1.866C36.128,56.712,36.135,56.731,36.128,56.712z"/>
			<path fill-rule="evenodd" clip-rule="evenodd" fill="#00A936" d="M41.594,46.698c0.057,0.051,0.096,0.134,0.146,0.142h0.074
				c0.352,0.1,0.693-0.255,0.427-0.278C42.135,46.544,41.933,46.57,41.594,46.698z"/>
			<path fill-rule="evenodd" clip-rule="evenodd" fill="#00A936" d="M49.784,43.611c-0.56,0.096-0.696,0.469,0.507,1.298
				c0.148-0.042,1.183-0.274,0.577,0.352C52.737,44.146,50.738,43.442,49.784,43.611z"/>
			<path fill-rule="evenodd" clip-rule="evenodd" fill="#00A936" d="M49.784,35.625c2.011-0.817,2.474-6.116,0.078-5.96
				c-0.154,0-0.311,0.077-0.507,0.151C50.358,31.664,48.045,34.019,49.784,35.625z"/>
			<path fill-rule="evenodd" clip-rule="evenodd" fill="#00A936" d="M72.881,40.016c0.161-1.104-1.6-1.919-2.391-1.873
				c-0.461,0.031-0.552,0.362,0.302,1.155C69.994,41.181,72.119,41.281,72.881,40.016z"/>
			<path fill-rule="evenodd" clip-rule="evenodd" fill="#00A936" d="M54.894,26.22c0.579-0.27,0.856-1.233,0-1.233
				c-0.156-0.04-0.275-0.081-0.43-0.074c-0.154,0.006-0.311,0.061-0.422,0.074C52.344,25.325,52.858,28.139,54.894,26.22z"/>
			<path fill-rule="evenodd" clip-rule="evenodd" fill="#00A936" d="M57.27,25.563c-2.456,0.308-4.933,2.682-2.651,5.029
				c1.637,2.04-2.36,6.208,1.434,7.277c1.505-3.368,5.625-6.036,4.605-10.142C60.232,25.977,58.751,25.374,57.27,25.563z"/>
			<path fill="#00A936" d="M32.618,63.09c1.505,1.887,0.78,4.058,0.665,6.121c-0.04,0.014,0.021,0.063,0.021,0.073
				c-0.079,1.25,0.118,2.443,1.176,3.517c1.369,1.768,3.201,3.263,4.591,5.039h21.221c0-2.729-4.723-4.548-7.259-3.665
				c-3.636-2.413-6.267-6.11-10.361-7.911c-3.333-3.233-10.848-1.224-10.71-7.34c0.346-2.905-1.985-4.308-3.735-5.673
				c-1.346-4.495,6.854-6.15,6.973-1.227c2.701-0.142,3.646-4.851,6.764-5.53c1.604-1.393,5.95,0.104,4.378-2.741
				c1.554-1.476,6.109-1.426,3.881-4.878c-0.749-3.368-4.885-4.994-6.247-1.161c-3.747,1.004-2.234-7.121,1.576-6.04
				c2.763,0.16,2.387-2.241,0.712-3.015c0-0.117-0.035-0.185-0.14-0.077c-0.308-0.114-0.629-0.233-1.007-0.214
				c-3.736-2.065,3.74-7.329-1.212-8.995c-5.436,4.641-13.723,11.945-17.041,18.77c-1.498,4.279-1.248,8.588-1.073,13.087
				C27.309,55.589,30.266,59.183,32.618,63.09z"/>
			<path fill="#00A936" d="M85.887,72.664c5.237-6.168,8.412-14.138,8.412-22.861c0-0.977-0.068-1.934-0.146-2.889
				c-0.024-0.239-0.043-0.48-0.069-0.717c-2.02,1.105-5.614-4.975-1.938-2.084c0.718-0.049,1.171-0.257,1.51-0.566
				c-0.425-2.216-0.999-4.362-1.807-6.409c-0.361-0.43-0.708-0.831-1.004-1.073c0.024-0.442-0.02-0.867-0.073-1.292
				c-0.017-0.023,0.021-0.055,0-0.079c-5.763-11.859-17.926-20.05-31.99-20.05c-0.961,0-1.937,0.061-2.883,0.14
				C55.405,14.888,54.862,14.95,54.31,15c-0.188,0.019-0.379,0.042-0.565,0.073c-1.984,0.279-3.882,0.625-5.745,1.216
				c4.859-0.356,9.851-0.228,14.235,1.946c1.156,3.723,8.096,0.071,7.76,4.234c0.055,0.059,0.16,0.154,0.22,0.224
				c-0.11,0.081,0.08,0.84,0.219,0.206c1.199,1.357,3.722,4.171,1.074,3.818c-3.511-0.479-2.599,6.438-0.07,7.692
				c2.411,1.298,3.766-1.306,1.29-2.585c-0.335-3.243,5.407,1.992,2.873,3.728c-0.1,0.069-0.184,0.15-0.281,0.224
				c0.116-0.466-0.167-0.026-0.158,0.078c-2.88,2.088-1.236,7.003-2.356,10.277c-1.995,4.428,4.987,2.476,3.946-1.008
				c-1.277-3.208,5.311-1.746,3.885-4.023c3.996,2.117,3.619-3.574,1.948-5.476c0.78-3.041,2.835,0.357,1.863,2.017
				c0.157,1.567,1.509,1.927,2.594,2.374c0.05,0.037,0.105,0.042,0.212,0.069c0.947,0.451,1.518,1.031,0.495,2.812
				c-1.176,3.957-5.153,4.176-8.406,3.444c-3.291,1.362-3.901,5.359-5.756,8.05c-1.842,3.362-3.371,8.313-0.063,11.288
				c3.16,3.037,6.796,0.4,9.419-1.653c5.026-0.652,5.488,5.268,3.015,8.28C85.927,72.445,85.906,72.551,85.887,72.664z"/>
			<g opacity="0.2">
				<path fill="#010000" d="M25.312,38.906c-0.009,0.027-0.015,0.046-0.021,0.068c0.326-0.018,0.615-0.041,0.615-0.068H25.312z"/>
				<path fill="#010000" d="M88.805,68.713h-0.037c0,0.028-0.008,0.055-0.012,0.082C88.772,68.768,88.792,68.741,88.805,68.713z"/>
				<path fill="#010000" d="M28.986,50.263c0.041,3.95,0.626,7.748,1.662,11.293c-4.167-0.593-4.711-1.139-4.767-1.215
					c0.004,0.007,0.025,0.053,0.025,0.112h-0.678c0.104,0.32,0.216,0.641,0.326,0.956c0.489,0.277,1.249,0.52,2.342,0.753
					c0.854,0.182,1.888,0.358,3.103,0.521c1.262,3.884,3.075,7.434,5.325,10.521c-2.504-0.682-4.451-1.467-5.734-2.29
					c0.527,0.708,1.088,1.39,1.666,2.057c1.528,0.638,3.261,1.152,4.876,1.549c0.08,0.018,0.163,0.035,0.243,0.06
					c0.943,1.166,1.952,2.256,3.022,3.261h1.59c-1.02-0.887-1.992-1.847-2.905-2.882c3.03,0.625,6.484,1.096,10.194,1.393
					c0.229,0.518,0.463,1.014,0.702,1.489h1.188c-0.236-0.446-0.468-0.908-0.693-1.397c2.524,0.175,5.156,0.264,7.842,0.278v1.119
					h1.056v-1.119c2.692-0.015,5.322-0.108,7.847-0.284c-0.227,0.491-0.459,0.955-0.694,1.403h1.192
					c0.24-0.477,0.477-0.974,0.705-1.492c3.711-0.302,7.168-0.778,10.201-1.409c-0.916,1.042-1.896,2.009-2.922,2.901h1.588
					c1.076-1.012,2.094-2.108,3.044-3.285c0.05-0.013,0.104-0.026,0.155-0.035c1.771-0.434,3.685-1.012,5.316-1.741
					c0.615-0.726,1.211-1.477,1.771-2.247c-1.222,0.95-3.349,1.867-6.192,2.648c2.243-3.087,4.059-6.637,5.316-10.515
					c1.147-0.16,2.141-0.33,2.961-0.503c1.522-0.328,2.407-0.672,2.798-1.104c0.068-0.202,0.139-0.396,0.206-0.604h-1.016
					c0-0.06,0.02-0.105,0.029-0.112c-0.06,0.076-0.591,0.606-4.63,1.195c1.037-3.54,1.614-7.331,1.657-11.273h5.386v-1.068h-5.386
					c-0.056-3.984-0.661-7.809-1.728-11.372c4.081,0.59,4.616,1.124,4.673,1.198c-0.01-0.009-0.032-0.052-0.032-0.114h0.966
					c-0.077-0.229-0.154-0.457-0.233-0.687c-0.428-0.393-1.292-0.712-2.717-1.019c-0.831-0.178-1.839-0.352-3.014-0.506
					c-1.359-4.108-3.341-7.844-5.811-11.038c2.478,0.637,4.451,1.381,5.816,2.161c-0.543-0.675-1.1-1.337-1.689-1.978
					c-1.415-0.558-2.969-1.01-4.429-1.366c-0.266-0.067-0.538-0.128-0.806-0.192c-3.77-4.395-8.504-7.61-13.784-9.144
					c-2.251-0.453-4.584-0.691-6.971-0.691c-2.649,0-5.23,0.303-7.718,0.856c-5.054,1.594-9.595,4.731-13.229,8.971
					c-0.285,0.068-0.571,0.133-0.847,0.2c-1.334,0.325-2.748,0.731-4.061,1.226c-0.572,0.611-1.121,1.246-1.646,1.895
					c1.348-0.703,3.188-1.369,5.439-1.95c-2.462,3.193-4.445,6.919-5.809,11.027c-1.248,0.164-2.311,0.342-3.181,0.529
					c-1.021,0.22-1.753,0.443-2.241,0.704c-0.104,0.279-0.197,0.557-0.285,0.836c1-0.234,2.768-0.577,5.352-0.942
					c-1.069,3.569-1.679,7.4-1.733,11.396h-5.375c-0.007,0.199-0.021,0.4-0.021,0.608c0,0.154,0.011,0.304,0.015,0.46H28.986z
					 M79.742,73.592c-3.149,0.746-6.841,1.297-10.856,1.64c0.05-0.128,0.106-0.251,0.155-0.383
					c1.265-3.235,2.256-6.986,2.938-11.065c3.861-0.154,7.401-0.369,10.463-0.647c1.121-0.104,2.152-0.212,3.096-0.321
					C84.173,66.841,82.197,70.486,79.742,73.592z M85.904,61.687c-1.186,0.15-2.606,0.303-4.322,0.452
					c-2.801,0.233-5.992,0.427-9.427,0.566c0.599-3.919,0.919-8.123,0.939-12.442h14.555C87.607,54.273,86.992,58.114,85.904,61.687
					z M87.646,49.194H73.095c-0.026-4.358-0.364-8.59-0.979-12.536c3.447,0.137,6.643,0.327,9.444,0.566
					c1.692,0.146,3.097,0.298,4.267,0.442C86.951,41.269,87.59,45.146,87.646,49.194z M79.134,25.251
					c2.687,3.203,4.848,7.036,6.323,11.294c-0.928-0.115-1.941-0.215-3.043-0.32c-3.06-0.274-6.613-0.492-10.476-0.645
					c-0.681-3.984-1.657-7.656-2.897-10.831c-0.133-0.342-0.272-0.68-0.414-1.014C72.482,24.06,76.05,24.566,79.134,25.251z
					 M77.945,23.912c-2.949-0.578-6.266-1.018-9.813-1.292c-1.534-3.299-3.317-5.697-5.25-7.084
					C68.611,16.504,73.812,19.505,77.945,23.912z M59.372,15.221c2.747,0.287,5.369,2.841,7.547,7.312
					c-2.431-0.159-4.964-0.252-7.547-0.26V15.221z M59.372,23.347c2.77,0.008,5.475,0.11,8.062,0.297
					c0.215,0.484,0.423,0.982,0.629,1.502c1.19,3.047,2.132,6.565,2.801,10.395c-3.624-0.129-7.5-0.197-11.491-0.206V23.347z
					 M59.372,36.406c4.046,0.01,7.99,0.083,11.673,0.215c0.625,3.943,0.967,8.19,0.996,12.573H59.372V36.406z M59.372,50.263h12.669
					c-0.019,4.343-0.35,8.56-0.961,12.479c-3.692,0.138-7.649,0.21-11.708,0.21V50.263z M59.372,64.026
					c4.006-0.003,7.895-0.073,11.532-0.202c-0.673,3.915-1.627,7.515-2.842,10.626c-0.12,0.302-0.233,0.59-0.355,0.876
					c-2.67,0.202-5.469,0.308-8.335,0.32V64.026z M37.964,73.614c-2.453-3.107-4.435-6.757-5.807-10.786
					c0.908,0.111,1.893,0.212,2.958,0.308c3.094,0.282,6.688,0.502,10.6,0.654c0.681,4.078,1.673,7.823,2.935,11.059
					c0.054,0.132,0.107,0.259,0.157,0.387C44.8,74.899,41.118,74.35,37.964,73.614z M58.316,75.646
					c-2.859-0.008-5.655-0.113-8.327-0.31c-0.12-0.288-0.24-0.585-0.357-0.887c-1.216-3.106-2.169-6.705-2.842-10.62
					c3.637,0.123,7.528,0.196,11.526,0.196V75.646z M58.316,62.952c-4.056,0-8.012-0.072-11.705-0.205
					c-0.606-3.92-0.939-8.136-0.959-12.484h12.664V62.952z M58.316,49.194H45.652c0.028-4.383,0.37-8.635,1.001-12.582
					c3.681-0.128,7.624-0.201,11.663-0.206V49.194z M58.316,35.334c-3.985,0.005-7.859,0.072-11.485,0.2
					c0.665-3.827,1.609-7.342,2.801-10.389c0.204-0.524,0.413-1.023,0.628-1.506c2.586-0.183,5.294-0.285,8.057-0.293V35.334z
					 M58.316,22.273c-2.579,0.008-5.11,0.097-7.545,0.26c2.183-4.472,4.804-7.025,7.545-7.312V22.273z M54.812,15.536
					c-1.932,1.387-3.714,3.785-5.25,7.084c-3.545,0.274-6.858,0.702-9.81,1.285C43.892,19.501,49.084,16.5,54.812,15.536z
					 M38.562,25.243c3.085-0.682,6.65-1.189,10.506-1.508c-0.146,0.329-0.283,0.666-0.419,1.014
					c-1.237,3.175-2.211,6.838-2.896,10.826c-3.926,0.146-7.535,0.37-10.643,0.649c-1.028,0.096-1.986,0.197-2.87,0.299
					C33.718,32.271,35.886,28.441,38.562,25.243z M31.874,37.645c1.134-0.137,2.487-0.277,4.098-0.42
					c2.847-0.242,6.097-0.433,9.604-0.572c-0.612,3.949-0.951,8.18-0.981,12.542H30.041C30.101,45.138,30.745,41.25,31.874,37.645z
					 M44.595,50.263c0.022,4.326,0.349,8.523,0.944,12.447c-3.491-0.138-6.727-0.328-9.566-0.571
					c-1.646-0.145-3.021-0.287-4.176-0.434c-1.094-3.577-1.715-7.427-1.756-11.442H44.595z"/>
			</g>
		</g>
		<g>
			<path fill="#EAC907" d="M80.552,33.065H37.137c-2.361,0-4.278,1.916-4.278,4.278v24.344c0,2.367,1.917,4.278,4.278,4.278h43.415
				c2.364,0,4.273-1.911,4.273-4.278V37.344C84.825,34.981,82.916,33.065,80.552,33.065z M64.795,40.059H52.89
				c-1.006,0-1.823-0.817-1.823-1.823c0-1.002,0.817-1.818,1.823-1.818h11.905c1.01,0,1.822,0.816,1.822,1.818
				C66.617,39.241,65.805,40.059,64.795,40.059z"/>
			<path fill="#EFEFEF" d="M81.594,58.733c0,2.366-1.914,4.277-4.277,4.277H40.367c-2.362,0-4.277-1.911-4.277-4.277V47.819
				c0-2.36,1.915-4.276,4.277-4.276h36.949c2.363,0,4.277,1.916,4.277,4.276V58.733z"/>
			<g>
				<g>
					<path fill="#29353F" d="M49.903,48.37c-0.507-0.133-1.033,0.164-1.181,0.664l-1.5,5.231l-1.501-5.231
						c-0.124-0.431-0.53-0.69-0.965-0.679c-0.438-0.012-0.843,0.248-0.963,0.679l-1.505,5.231l-1.502-5.231
						c-0.142-0.5-0.669-0.797-1.182-0.664c-0.507,0.131-0.802,0.645-0.658,1.141l2.376,8.289c0.121,0.431,0.53,0.688,0.966,0.675
						c0.433,0.014,0.844-0.244,0.968-0.675l1.5-5.233l1.501,5.233c0.125,0.431,0.53,0.688,0.965,0.675
						c0.434,0.014,0.844-0.244,0.964-0.675l2.378-8.289C50.711,49.015,50.412,48.501,49.903,48.37z"/>
				</g>
				<g>
					<path fill="#29353F" d="M64.184,48.37c-0.507-0.133-1.038,0.164-1.181,0.664l-1.496,5.231l-1.504-5.231
						c-0.125-0.431-0.531-0.69-0.964-0.679c-0.435-0.012-0.846,0.248-0.971,0.679l-1.5,5.231l-1.5-5.231
						c-0.143-0.5-0.669-0.797-1.181-0.664c-0.509,0.131-0.804,0.645-0.664,1.141l2.38,8.289c0.126,0.431,0.531,0.688,0.965,0.675
						c0.434,0.014,0.845-0.244,0.965-0.675l1.506-5.233l1.5,5.233c0.119,0.431,0.53,0.688,0.968,0.675
						c0.43,0.014,0.842-0.244,0.966-0.675l2.372-8.289C64.993,49.015,64.693,48.501,64.184,48.37z"/>
				</g>
				<g>
					<path fill="#29353F" d="M78.083,48.37c-0.514-0.133-1.039,0.164-1.182,0.664l-1.505,5.231l-1.501-5.231
						c-0.124-0.431-0.529-0.69-0.969-0.679c-0.434-0.012-0.841,0.248-0.966,0.679l-1.499,5.231l-1.5-5.231
						c-0.144-0.5-0.669-0.797-1.182-0.664c-0.507,0.131-0.803,0.645-0.66,1.141l2.378,8.289c0.124,0.431,0.53,0.688,0.964,0.675
						c0.435,0.014,0.844-0.244,0.97-0.675l1.495-5.233l1.505,5.233c0.12,0.431,0.53,0.688,0.965,0.675
						c0.434,0.014,0.845-0.244,0.965-0.675l2.382-8.289C78.886,49.015,78.591,48.501,78.083,48.37z"/>
				</g>
			</g>
			<polygon opacity="0.4" points="63.092,36.444 64.531,36.417 65.329,33.065 62.542,33.079 			"/>
			<path fill="#29353F" d="M63.798,40.062V27.452c0-0.425-0.349-0.774-0.771-0.774h-7.981c-0.421,0-0.771,0.35-0.771,0.774v12.609
				H63.798z"/>
			<path opacity="0.1" fill="#FFFFFF" d="M63.308,27.634c0,0.217-0.18,0.391-0.396,0.391h-7.772c-0.222,0-0.397-0.174-0.397-0.391
				l0,0c0-0.222,0.176-0.403,0.397-0.403h7.772C63.128,27.23,63.308,27.412,63.308,27.634L63.308,27.634z"/>
			<path opacity="0.1" d="M80.552,33.065l-43.415,32.9h43.415c2.364,0,4.273-1.911,4.273-4.278V37.344
				C84.825,34.981,82.916,33.065,80.552,33.065z"/>
		</g>
	</g>
	<path opacity="0.3" d="M40.134,68.313c0.004,0.004,0.007,0.007,0.009,0.01c0.154,0.205,0.317,0.403,0.475,0.607
		c0.181,0.232,0.359,0.467,0.547,0.695c0.312,0.388,0.637,0.767,0.961,1.144c0.01,0.01,0.018,0.021,0.027,0.03l0.001,0.001
		c2.31,2.657,4.943,5.02,7.837,7.039h30.475c1.948-1.498,3.736-3.194,5.335-5.06c0.001-0.001,0.003-0.001,0.005-0.002
		c0.014-0.018,0.028-0.035,0.044-0.053c0.29-0.342,0.574-0.689,0.852-1.041c0.008-0.01,0.015-0.02,0.023-0.028
		c0.285-0.362,0.563-0.729,0.835-1.102c0.006-0.007,0.012-0.017,0.018-0.023c-0.001,0.001-0.002,0.001-0.002,0.003
		c0.412-0.568,0.805-1.149,1.182-1.74v0.001c0.004-0.005,0.009-0.013,0.012-0.02c1.525-2.392,2.77-4.978,3.688-7.714
		c0.001-0.002,0.002-0.003,0.002-0.003c0.069-0.203,0.14-0.397,0.207-0.605h-0.004c0.099-0.312,0.186-0.624,0.275-0.938
		c0.04-0.145,0.083-0.286,0.122-0.43c0.092-0.345,0.18-0.69,0.263-1.039c0.049-0.205,0.097-0.411,0.143-0.618
		c0.069-0.311,0.134-0.623,0.194-0.937c0.049-0.253,0.093-0.507,0.135-0.76c0.049-0.284,0.096-0.567,0.137-0.854
		c0.043-0.297,0.079-0.596,0.113-0.896c0.03-0.254,0.062-0.507,0.088-0.762c0.034-0.358,0.059-0.72,0.082-1.082
		c0.013-0.203,0.032-0.406,0.042-0.611c0.027-0.572,0.044-1.146,0.044-1.725c0-3.804-0.608-7.464-1.719-10.896h0.005
		c-0.077-0.229-0.154-0.457-0.233-0.687c-0.001-0.001-0.005-0.003-0.005-0.003c-1.32-3.806-3.269-7.313-5.726-10.401
		c0.001,0,0.004,0.001,0.006,0.003c-0.024-0.029-0.049-0.059-0.073-0.087c-0.222-0.277-0.446-0.551-0.675-0.821
		c-0.091-0.105-0.184-0.21-0.274-0.315c-0.206-0.236-0.412-0.475-0.625-0.706c-0.013-0.016-0.028-0.032-0.042-0.048
		c-0.002-0.001-0.004-0.001-0.006-0.003c-4.957-5.374-11.56-9.208-19.01-10.697c-0.001-0.002-0.002-0.002-0.003-0.002
		c-0.055-0.011-0.111-0.02-0.167-0.03c-0.499-0.097-1-0.188-1.505-0.264c-0.224-0.033-0.449-0.056-0.672-0.085
		c-0.354-0.047-0.704-0.098-1.06-0.133c-0.345-0.034-0.693-0.054-1.039-0.078c-0.243-0.019-0.484-0.042-0.73-0.055
		c-0.596-0.03-1.194-0.047-1.798-0.047c-0.648,0-1.293,0.021-1.934,0.056c-0.092,0.005-0.182,0.014-0.274,0.021
		c-0.564,0.034-1.125,0.081-1.683,0.142c-0.042,0.004-0.083,0.011-0.126,0.016c-6.729,0.762-12.881,3.419-17.923,7.415
		c-3.396,6.129-5.339,13.171-5.339,20.674c0,9.576,3.148,18.416,8.467,25.543C40.135,68.313,40.135,68.313,40.134,68.313z"/>
	<g>
		<path fill="#76D9FC" d="M99.415,6.064C92.998,2.218,85.493,0,77.465,0c-23.62,0-42.771,19.148-42.771,42.771
			c0,14.515,7.232,27.337,18.289,35.069h46.433V6.064z"/>
		<path fill-rule="evenodd" clip-rule="evenodd" fill="#00A936" d="M49.858,51.13c-0.234-0.099-0.562-0.165-0.778-0.192
			c-0.289-0.035-0.503-0.044-0.696,0c-0.584,0.172-0.621,0.779,0.957,1.731c0.424,0.562,1.192,1.077,1.918,0.795
			c0.423-1.2-0.456-1.929-1.4-2.255C49.858,51.13,49.866,51.154,49.858,51.13z"/>
		<path fill-rule="evenodd" clip-rule="evenodd" fill="#00A936" d="M56.471,39.017c0.069,0.062,0.113,0.161,0.176,0.172h0.09
			c0.425,0.12,0.839-0.311,0.517-0.337C57.125,38.828,56.879,38.862,56.471,39.017z"/>
		<path fill-rule="evenodd" clip-rule="evenodd" fill="#00A936" d="M66.377,35.283c-0.676,0.113-0.84,0.567,0.615,1.567
			c0.18-0.05,1.431-0.33,0.697,0.426C69.95,35.929,67.532,35.078,66.377,35.283z"/>
		<path fill-rule="evenodd" clip-rule="evenodd" fill="#00A936" d="M66.377,25.621c2.434-0.989,2.995-7.399,0.097-7.212
			c-0.188,0-0.376,0.094-0.612,0.183C67.073,20.829,64.275,23.678,66.377,25.621z"/>
		<path fill-rule="evenodd" clip-rule="evenodd" fill="#00A936" d="M94.322,30.932c0.192-1.337-1.936-2.322-2.894-2.266
			c-0.558,0.038-0.667,0.438,0.365,1.398C90.83,32.342,93.399,32.463,94.322,30.932z"/>
		<path fill-rule="evenodd" clip-rule="evenodd" fill="#00A936" d="M72.559,14.242c0.702-0.327,1.039-1.492,0-1.492
			c-0.188-0.05-0.329-0.099-0.518-0.09c-0.188,0.007-0.376,0.073-0.512,0.09C69.476,13.159,70.099,16.562,72.559,14.242z"/>
		<path fill-rule="evenodd" clip-rule="evenodd" fill="#00A936" d="M75.435,13.446c-2.971,0.375-5.968,3.244-3.205,6.083
			c1.978,2.472-2.857,7.513,1.733,8.807c1.819-4.073,6.803-7.302,5.57-12.27C79.021,13.947,77.227,13.219,75.435,13.446z"/>
		<path fill="#00A936" d="M45.611,58.846c1.82,2.282,0.944,4.91,0.806,7.407c-0.048,0.017,0.022,0.075,0.022,0.087
			c-0.094,1.514,0.145,2.957,1.424,4.257c1.943,2.506,4.659,4.559,6.37,7.243h24.629c1.54-3.915-5.143-6.771-8.554-5.582
			c-4.398-2.921-7.581-7.393-12.537-9.571c-4.031-3.911-13.122-1.479-12.956-8.881c0.421-3.514-2.401-5.211-4.518-6.863
			c-1.628-5.438,8.291-7.438,8.437-1.482c3.267-0.17,4.41-5.868,8.182-6.69c1.941-1.687,7.199,0.126,5.298-3.317
			c1.879-1.785,7.39-1.724,4.693-5.901c-0.905-4.073-5.908-6.041-7.558-1.403c-4.531,1.215-2.703-8.618,1.908-7.308
			c3.343,0.194,2.888-2.713,0.861-3.646c0-0.145-0.045-0.224-0.171-0.097c-0.372-0.137-0.759-0.28-1.217-0.259
			c-4.521-2.497,4.523-8.865-1.468-10.88c-6.575,5.614-16.602,14.449-20.615,22.707c-1.813,5.178-1.51,10.39-1.3,15.834
			C39.188,49.772,42.766,54.12,45.611,58.846z"/>
		<path fill="#00A936" d="M99.415,35.035V6.396c-6.473-3.905-14.05-6.158-22.154-6.158c-1.16,0-2.339,0.07-3.487,0.166
			c-0.595,0.126-1.25,0.204-1.92,0.263c-0.229,0.024-0.459,0.052-0.685,0.09c-2.401,0.338-4.695,0.758-6.95,1.471
			c5.88-0.432,11.917-0.277,17.223,2.355c1.399,4.504,9.794,0.087,9.389,5.12c0.066,0.073,0.192,0.188,0.265,0.273
			c-0.134,0.098,0.097,1.017,0.265,0.248c1.45,1.641,4.504,5.046,1.3,4.62c-4.247-0.581-3.144,7.786-0.084,9.307
			c2.916,1.569,4.555-1.581,1.559-3.129c-0.405-3.925,6.541,2.41,3.477,4.511c-0.12,0.083-0.222,0.181-0.34,0.271
			c0.141-0.564-0.202-0.034-0.191,0.094c-3.485,2.526-1.497,8.472-2.851,12.435c-2.412,5.354,6.033,2.995,4.774-1.222
			C98.596,36.089,98.853,35.46,99.415,35.035z"/>
		<path fill="#00A936" d="M99.415,40.665c-1.801,2.2-2.639,5.331-4.243,7.659c-2.227,4.067-4.077,10.058-0.077,13.656
			c1.393,1.338,2.861,1.763,4.32,1.646V40.665z"/>
		<g opacity="0.2">
			<path fill="#010000" d="M36.773,29.589c-0.011,0.033-0.018,0.056-0.025,0.082c0.395-0.021,0.745-0.049,0.745-0.082H36.773z"/>
			<path fill="#010000" d="M99.415,72.221c-3.032,0.569-6.368,1.013-9.925,1.313c0.059-0.154,0.126-0.303,0.184-0.461
				c1.532-3.915,2.73-8.452,3.556-13.389c2.15-0.085,4.218-0.187,6.186-0.304v-1.3c-1.903,0.115-3.899,0.216-5.972,0.301
				c0.725-4.74,1.111-9.827,1.139-15.054h4.833v-1.292h-4.833c-0.034-5.272-0.442-10.391-1.186-15.166
				c2.092,0.083,4.103,0.184,6.019,0.298v-1.297c-1.982-0.118-4.066-0.222-6.232-0.306c-0.825-4.82-2.007-9.264-3.509-13.104
				c-0.158-0.414-0.327-0.821-0.498-1.228c3.67,0.31,7.116,0.759,10.239,1.339v-1.317c-3.304-0.604-6.956-1.068-10.84-1.368
				c-1.855-3.991-4.014-6.894-6.35-8.573c6.462,1.094,12.365,4.325,17.189,9.078V8.627c-3.942-3.644-8.526-6.342-13.516-7.791
				C83.176,0.288,80.353,0,77.465,0c-3.205,0-6.326,0.365-9.336,1.035c-6.113,1.928-11.607,5.724-16.005,10.853
				c-0.347,0.082-0.69,0.16-1.026,0.243c-1.61,0.392-3.323,0.884-4.912,1.481c-0.691,0.74-1.354,1.507-1.991,2.293
				c1.631-0.851,3.857-1.657,6.582-2.359c-2.979,3.863-5.379,8.37-7.027,13.342c-1.509,0.198-2.796,0.413-3.85,0.639
				c-1.233,0.266-2.12,0.538-2.711,0.853c-0.125,0.336-0.239,0.673-0.345,1.012c1.21-0.284,3.349-0.697,6.475-1.142
				c-1.294,4.318-2.031,8.955-2.097,13.787h-6.503c-0.009,0.242-0.025,0.484-0.025,0.734c0,0.188,0.014,0.37,0.017,0.558h6.508
				c0.049,4.781,0.757,9.373,2.013,13.662c-5.043-0.72-5.701-1.376-5.771-1.471c0.007,0.01,0.033,0.065,0.033,0.138h-0.818
				c0.124,0.388,0.259,0.773,0.392,1.155c0.594,0.336,1.514,0.63,2.833,0.911c1.035,0.221,2.286,0.433,3.755,0.63
				c1.525,4.7,3.721,8.992,6.442,12.729c-3.03-0.824-5.386-1.775-6.938-2.77c0.64,0.855,1.317,1.68,2.017,2.486
				c1.849,0.773,3.945,1.395,5.899,1.874c0.097,0.021,0.195,0.043,0.293,0.071c1.513,1.871,3.17,3.574,4.942,5.095h2.024
				c-1.747-1.37-3.39-2.92-4.901-4.635c3.667,0.756,7.847,1.325,12.333,1.685c0.464,1.056,0.95,2.038,1.454,2.95h1.465
				c-0.506-0.869-0.998-1.815-1.471-2.84c3.056,0.21,6.239,0.319,9.487,0.338v2.502h1.277v-2.502
				c3.256-0.019,6.44-0.132,9.493-0.345c-0.473,1.028-0.966,1.976-1.473,2.847h1.468c0.505-0.913,0.994-1.897,1.459-2.956
				c3.753-0.305,7.286-0.759,10.489-1.345V72.221z M72.461,1.314c-2.338,1.68-4.492,4.582-6.352,8.573
				c-4.289,0.331-8.297,0.85-11.868,1.555C59.251,6.113,65.532,2.482,72.461,1.314z M52.804,13.06
				c3.731-0.824,8.045-1.438,12.71-1.825c-0.176,0.4-0.344,0.809-0.507,1.228c-1.496,3.84-2.676,8.274-3.505,13.098
				c-4.749,0.177-9.113,0.449-12.873,0.785c-1.247,0.117-2.406,0.238-3.474,0.364C46.943,21.564,49.563,16.929,52.804,13.06z
				 M44.711,28.064c1.373-0.168,3.009-0.338,4.958-0.509c3.443-0.295,7.376-0.524,11.62-0.692
				c-0.742,4.776-1.151,9.895-1.187,15.173H42.494C42.566,37.127,43.345,32.424,44.711,28.064z M42.494,43.328h17.608
				c0.027,5.233,0.419,10.313,1.14,15.06c-4.222-0.167-8.137-0.397-11.573-0.69c-1.991-0.177-3.653-0.349-5.05-0.526
				C43.295,52.844,42.544,48.186,42.494,43.328z M52.08,71.58c-2.969-3.759-5.367-8.174-7.024-13.049
				c1.098,0.134,2.288,0.254,3.577,0.37c3.742,0.344,8.091,0.608,12.823,0.792c0.825,4.934,2.023,9.465,3.551,13.38
				c0.063,0.158,0.13,0.312,0.19,0.47C60.35,73.133,55.895,72.47,52.08,71.58z M76.701,74.039
				c-3.459-0.012-6.842-0.139-10.074-0.376c-0.146-0.348-0.289-0.707-0.432-1.072c-1.472-3.757-2.623-8.112-3.438-12.85
				c4.399,0.149,9.104,0.238,13.943,0.238V74.039z M76.701,58.681c-4.907,0-9.691-0.089-14.159-0.248
				c-0.735-4.742-1.139-9.844-1.163-15.104h15.322V58.681z M76.701,42.036H61.379c0.035-5.303,0.449-10.446,1.212-15.222
				c4.454-0.155,9.225-0.244,14.11-0.249V42.036z M76.701,25.268c-4.821,0.006-9.508,0.088-13.896,0.241
				c0.804-4.629,1.948-8.88,3.39-12.565c0.247-0.636,0.5-1.238,0.76-1.823c3.127-0.22,6.404-0.343,9.746-0.354V25.268z
				 M76.701,9.466c-3.12,0.012-6.182,0.118-9.127,0.314c2.641-5.409,5.81-8.498,9.127-8.846V9.466z M77.979,0.935
				c3.324,0.348,6.494,3.437,9.13,8.846c-2.941-0.191-6.007-0.303-9.13-0.314V0.935z M77.979,10.766
				c3.352,0.012,6.622,0.135,9.752,0.36c0.26,0.584,0.513,1.188,0.762,1.817c1.439,3.686,2.579,7.942,3.387,12.573
				c-4.383-0.156-9.072-0.239-13.9-0.249V10.766z M77.979,26.565c4.896,0.012,9.667,0.099,14.121,0.259
				c0.758,4.771,1.168,9.909,1.206,15.212H77.979V26.565z M77.979,43.328h15.327c-0.022,5.255-0.424,10.356-1.162,15.098
				c-4.467,0.166-9.255,0.255-14.165,0.255V43.328z M88.492,72.591c-0.145,0.365-0.282,0.713-0.431,1.06
				c-3.228,0.245-6.616,0.373-10.083,0.389v-14.06c4.846-0.004,9.551-0.089,13.95-0.244C91.117,64.473,89.962,68.827,88.492,72.591z
				"/>
			<path fill="#010000" d="M99.415,75.128c-0.981,0.966-2.002,1.875-3.068,2.712h2.026c0.354-0.303,0.699-0.616,1.042-0.935V75.128z
				"/>
		</g>
	</g>
	<path opacity="0.3" fill="#010000" d="M99.415,24.338H79.213v-6.79c0-0.514-0.42-0.938-0.933-0.938h-9.655
		c-0.508,0-0.933,0.424-0.933,0.938v6.79H46.96c-2.859,0-5.177,2.316-5.177,5.176v29.449c0,2.865,2.317,5.178,5.177,5.178h52.455
		V24.338z M67.692,32.798h-1.675c-1.217,0-2.206-0.989-2.206-2.205c0-1.213,0.989-2.201,2.206-2.201h1.675V32.798z M80.419,32.798
		h-1.206v-4.39l0.888-0.017h0.318c1.223,0,2.206,0.988,2.206,2.201C82.625,31.809,81.642,32.798,80.419,32.798z"/>
	<g>
		<path fill="#FF5148" d="M99.415,22.524H46.96c-2.859,0-5.177,2.317-5.177,5.175v29.45c0,2.865,2.317,5.177,5.177,5.177h52.455
			V22.524z M80.419,30.983H66.018c-1.217,0-2.206-0.988-2.206-2.206c0-1.211,0.989-2.2,2.206-2.2h14.401
			c1.223,0,2.206,0.989,2.206,2.2C82.625,29.995,81.642,30.983,80.419,30.983z"/>
		<path fill="#EFEFEF" d="M99.415,36.921c-0.948-1.054-2.317-1.722-3.849-1.722H50.868c-2.858,0-5.177,2.317-5.177,5.174v13.203
			c0,2.861,2.318,5.176,5.177,5.176h44.698c1.531,0,2.9-0.666,3.849-1.72V36.921z"/>
		<g>
			<g>
				<path fill="#29353F" d="M62.404,41.041c-0.614-0.163-1.251,0.197-1.429,0.801l-1.816,6.329l-1.814-6.329
					c-0.15-0.52-0.641-0.835-1.167-0.821c-0.53-0.014-1.021,0.302-1.167,0.821l-1.819,6.329l-1.815-6.329
					c-0.174-0.604-0.81-0.964-1.431-0.801c-0.613,0.155-0.97,0.777-0.798,1.378l2.876,10.029c0.146,0.52,0.643,0.833,1.168,0.815
					c0.524,0.018,1.021-0.296,1.173-0.815l1.813-6.332l1.815,6.332c0.151,0.52,0.643,0.833,1.166,0.815
					c0.526,0.018,1.023-0.296,1.168-0.815l2.876-10.029C63.382,41.818,63.02,41.196,62.404,41.041z"/>
			</g>
			<g>
				<path fill="#29353F" d="M79.682,41.041c-0.615-0.163-1.257,0.197-1.431,0.801l-1.81,6.329l-1.819-6.329
					c-0.15-0.52-0.643-0.835-1.167-0.821c-0.524-0.014-1.021,0.302-1.172,0.821l-1.815,6.329l-1.816-6.329
					c-0.171-0.604-0.808-0.964-1.428-0.801c-0.614,0.155-0.973,0.777-0.805,1.378l2.882,10.029c0.15,0.52,0.643,0.833,1.167,0.815
					c0.525,0.018,1.021-0.296,1.166-0.815l1.821-6.332l1.814,6.332c0.146,0.52,0.642,0.833,1.172,0.815
					c0.521,0.018,1.017-0.296,1.169-0.815l2.868-10.029C80.657,41.818,80.296,41.196,79.682,41.041z"/>
			</g>
			<g>
				<path fill="#29353F" d="M96.494,41.041c-0.619-0.163-1.257,0.197-1.429,0.801l-1.82,6.329l-1.815-6.329
					c-0.15-0.52-0.642-0.835-1.173-0.821c-0.524-0.014-1.016,0.302-1.166,0.821l-1.815,6.329l-1.814-6.329
					c-0.174-0.604-0.811-0.964-1.431-0.801c-0.613,0.155-0.971,0.777-0.798,1.378l2.876,10.029c0.15,0.52,0.642,0.833,1.167,0.815
					c0.524,0.018,1.022-0.296,1.172-0.815l1.81-6.332l1.82,6.332c0.146,0.52,0.642,0.833,1.168,0.815
					c0.524,0.018,1.021-0.296,1.166-0.815l2.882-10.029C97.467,41.818,97.109,41.196,96.494,41.041z"/>
			</g>
		</g>
		<polygon opacity="0.4" points="78.357,26.611 80.101,26.577 81.066,22.524 77.693,22.54 		"/>
		<path fill="#29353F" d="M79.213,30.986V15.734c0-0.514-0.42-0.938-0.933-0.938h-9.655c-0.508,0-0.933,0.425-0.933,0.938v15.252
			H79.213z"/>
		<path opacity="0.1" fill="#FFFFFF" d="M78.621,15.951c0,0.263-0.218,0.475-0.481,0.475h-9.403c-0.268,0-0.48-0.212-0.48-0.475l0,0
			c0-0.268,0.213-0.485,0.48-0.485h9.403C78.403,15.466,78.621,15.684,78.621,15.951L78.621,15.951z"/>
		<polygon opacity="0.1" points="99.415,22.575 46.96,62.326 99.415,62.326 		"/>
	</g>
</g>
</svg>
