<svg xmlns="http://www.w3.org/2000/svg" width="36" height="40" viewBox="0 0 36 40"><rect width="36" height="40" fill="none"/><path d="M36,35.044a1.975,1.975,0,0,1-1.978,1.975H1.975A1.975,1.975,0,0,1,0,35.044H0a1.975,1.975,0,0,1,1.975-1.976H34.022A1.974,1.974,0,0,1,36,35.044Z" fill="#293e4c"/><path d="M26.86,36.751a1.443,1.443,0,0,1-1.442,1.444H10.581A1.442,1.442,0,0,1,9.14,36.751V33.336a1.44,1.44,0,0,1,1.442-1.441H25.417a1.442,1.442,0,0,1,1.442,1.441v3.415Z" fill="#5cd5ff"/><path d="M19.709,27.7a1.443,1.443,0,0,1,1.442,1.442V35.32a1.443,1.443,0,0,1-1.442,1.442H16.294a1.442,1.442,0,0,1-1.442-1.442V29.138A1.442,1.442,0,0,1,16.294,27.7Z" fill="#5cd5ff"/><rect x="14.849" y="27.695" width="6.301" height="3.092" opacity="0.1" style="isolation:isolate"/><path d="M35.975,26.081A3.371,3.371,0,0,1,32.6,29.453H3.409A3.371,3.371,0,0,1,.037,26.081V5.373A3.372,3.372,0,0,1,3.409,2H32.6a3.372,3.372,0,0,1,3.371,3.373V26.081Z" fill="#4494c1"/><path d="M33.73,23.65a3.532,3.532,0,0,1-3.532,3.53H5.4a3.53,3.53,0,0,1-3.532-3.53h0A3.53,3.53,0,0,1,5.4,20.12H30.2a3.531,3.531,0,0,1,3.532,3.53Z" fill="#293e4c"/><path d="M33.73,15.763a3.531,3.531,0,0,1-3.532,3.53H5.4a3.53,3.53,0,0,1-3.531-3.53h0A3.532,3.532,0,0,1,5.4,12.233H30.2a3.532,3.532,0,0,1,3.532,3.53Z" fill="#293e4c"/><path d="M33.73,7.878a3.532,3.532,0,0,1-3.532,3.53H5.4a3.531,3.531,0,0,1-3.531-3.53h0A3.532,3.532,0,0,1,5.4,4.346H30.2a3.534,3.534,0,0,1,3.532,3.531Z" fill="#293e4c"/><path d="M5.423,6.232A1.646,1.646,0,1,1,3.779,7.878,1.646,1.646,0,0,1,5.423,6.232Z" fill="#ff5955"/><path d="M5.423,14.175A1.646,1.646,0,1,1,3.779,15.82a1.646,1.646,0,0,1,1.644-1.645Z" fill="#5cd5ff"/><circle cx="5.423" cy="23.686" r="1.645" fill="#5cd5ff"/><path d="M30.29,6.854c0,.312-.181.566-.4.566H10.115c-.221,0-.4-.253-.4-.566h0c0-.312.18-.565.4-.565H29.888c.221,0,.4.254.4.565Z" fill="#fff"/><path d="M30.29,8.9c0,.311-.181.566-.4.566H10.115c-.221,0-.4-.254-.4-.566h0c0-.312.18-.566.4-.566H29.888c.221,0,.4.253.4.566Z" fill="#fff"/><path d="M30.29,14.74c0,.312-.181.565-.4.565H10.115c-.221,0-.4-.253-.4-.565h0c0-.313.18-.566.4-.566H29.888c.221,0,.4.253.4.566Z" fill="#fff"/><path d="M30.29,16.787c0,.311-.181.564-.4.564H10.115c-.221,0-.4-.253-.4-.564h0c0-.313.18-.567.4-.567H29.888c.221,0,.4.254.4.567Z" fill="#fff"/><path d="M30.29,22.624c0,.314-.181.566-.4.566H10.115c-.221,0-.4-.253-.4-.566h0c0-.312.18-.566.4-.566H29.888c.221,0,.4.255.4.566Z" fill="#fff"/><path d="M30.29,24.672c0,.311-.181.566-.4.566H10.115c-.221,0-.4-.253-.4-.566h0c0-.312.18-.567.4-.567H29.888c.221,0,.4.255.4.567Z" fill="#fff"/><path d="M35.975,26.081A3.371,3.371,0,0,1,32.6,29.453H3.409L32.6,2a3.372,3.372,0,0,1,3.371,3.373V26.081Z" opacity="0.1" style="isolation:isolate"/></svg>
