<?xml version="1.0" encoding="utf-8"?>
<!-- Generator: Adobe Illustrator 16.0.0, SVG Export Plug-In . SVG Version: 6.00 Build 0)  -->
<!DOCTYPE svg PUBLIC "-//W3C//DTD SVG 1.1//EN" "http://www.w3.org/Graphics/SVG/1.1/DTD/svg11.dtd">
<svg version="1.1" id="Layer_1" xmlns="http://www.w3.org/2000/svg" xmlns:xlink="http://www.w3.org/1999/xlink" x="0px" y="0px"
	 width="71.999px" height="67.311px" viewBox="0 0 71.999 67.311" enable-background="new 0 0 71.999 67.311" xml:space="preserve">
<g>
	<g>
		<g>
			<path fill="#575756" d="M71.679,63.807c0,0-4.269-12.232-5.312-14.411c-1.04-2.178-2.243-3.087-3.79-3.791
				c-1.543-0.703-17.461-7.696-17.461-7.696l-9.117,0.7l-9.117-0.7c0,0-15.918,6.993-17.461,7.696
				c-1.546,0.704-2.749,1.613-3.792,3.791C4.587,51.574,0.32,63.807,0.32,63.807s-1.327,3.505,1.421,3.505h33.773h0.969h33.772
				C73.006,67.312,71.679,63.807,71.679,63.807"/>
			<polygon fill="#DADADA" points="44.771,67.312 50.129,40.034 35.529,46.997 20.993,40.034 26.867,67.312 			"/>
			<g>
				<path fill="#E9B990" d="M43.834,38.351c0,4.219-3.669,7.634-8.196,7.634s-8.198-3.415-8.198-7.634v-8.688
					c0-4.22,3.671-7.639,8.198-7.639s8.196,3.419,8.196,7.639V38.351z"/>
				<path fill="#FFC58F" d="M43.834,36.972c0,4.218-3.669,7.636-8.196,7.636s-8.198-3.418-8.198-7.636v-8.687
					c0-4.218,3.671-7.638,8.198-7.638s8.196,3.42,8.196,7.638V36.972z"/>
				<path fill="#FFD196" d="M48.927,17.916c-0.186-0.017-0.361,0.023-0.533,0.065C47.298,9.75,42.168,3.521,36,3.521
					c-10.712,0-11.297,6.229-12.397,14.461c-0.171-0.042-0.345-0.082-0.53-0.065c-0.953,0.071-1.669,0.899-1.597,1.854l0.354,4.83
					c0.072,0.95,0.902,1.669,1.854,1.598c0.068-0.004,0.121-0.039,0.185-0.051c1.504,7.439,6.36,12.897,12.131,12.897
					c5.769,0,10.621-5.458,12.131-12.897c0.064,0.012,0.117,0.047,0.185,0.051c0.951,0.071,1.782-0.647,1.849-1.598l0.36-4.83
					C50.596,18.815,49.878,17.987,48.927,17.916"/>
				<g>
					<path fill="#7C5947" d="M23.846,18.984c0,0.367-0.306,0.659-0.683,0.659s-0.683-0.292-0.683-0.659
						c0-0.363,0.305-0.656,0.683-0.656S23.846,18.621,23.846,18.984"/>
					<path fill="#7C5947" d="M49.52,18.984c0,0.367-0.306,0.659-0.684,0.659c-0.377,0-0.683-0.292-0.683-0.659
						c0-0.363,0.306-0.656,0.683-0.656C49.213,18.328,49.52,18.621,49.52,18.984"/>
					<path fill="#7C5947" d="M36,0c-7.471,0-13.52,5.25-13.52,11.725v7.26h1.366v-2.657c0-2.233,1.068-2.711,1.913-2.132
						c0,0,4.319,2.584,10.812,0c10.271-4.09,11.581,0.954,11.581,2.132v2.657h1.367v-7.26C49.52,5.25,43.465,0,36,0"/>
				</g>
			</g>
			<polygon fill="#FC762B" points="40.833,45.598 31.387,45.598 35.353,53.635 32.851,67.312 39.636,67.312 37.057,53.635 			"/>
			<polygon fill="#F6F6F6" points="45.06,36.567 50.143,39.889 43.474,53.057 35.561,45.598 			"/>
			<polygon fill="#F6F6F6" points="26.611,36.567 21.527,39.889 28.197,53.057 36.11,45.598 			"/>
			<path opacity="0.5" fill="#1D1D1B" d="M48.314,67.312c1.419-3.896,3.082-8.718,3.082-8.718l-0.842-4.585l2.433-1.217l1.87-10.482
				l-4.117-1.961l-6.662,26.963H48.314z"/>
			<path fill="#5E5E5E" d="M47.72,67.312c1.435-3.927,3.15-8.906,3.15-8.906l-0.841-4.586l2.433-1.216l1.87-10.481l-4.117-1.959
				l-6.709,27.148H47.72z"/>
			<path opacity="0.5" fill="#1D1D1B" d="M23.341,67.312c-1.419-3.896-3.082-8.718-3.082-8.718l0.842-4.585l-2.434-1.217
				l-1.87-10.482l4.117-1.961l6.663,26.963H23.341z"/>
			<path fill="#5E5E5E" d="M23.935,67.312c-1.434-3.927-3.15-8.906-3.15-8.906l0.842-4.586l-2.434-1.216l-1.871-10.481l4.118-1.959
				l6.708,27.148H23.935z"/>
		</g>
	</g>
	<path opacity="0.1" d="M71.679,63.807c0,0-4.269-12.232-5.312-14.411c-1.04-2.178-2.243-3.087-3.79-3.791
		c-0.875-0.398-6.368-2.817-10.963-4.84l-0.874-0.416l-0.007,0.029c-0.209-0.092-0.416-0.183-0.618-0.272l0.014-0.071l-0.08,0.038
		l0.093-0.184l-5.083-3.321l-1.226,1.166v-2.549c2.035-2.28,3.562-5.421,4.297-9.037c0.064,0.012,0.117,0.047,0.185,0.051
		c0.951,0.071,1.782-0.647,1.849-1.598l0.36-4.83c0.056-0.742-0.367-1.402-1.004-1.695v-6.351C49.52,5.25,43.465,0,36,0
		c-0.022,0-0.043,0.003-0.066,0.003v67.309h34.322C73.006,67.312,71.679,63.807,71.679,63.807z M48.152,16.327v0.198
		c-0.11-0.562-0.241-1.11-0.389-1.648C48.064,15.469,48.152,16.025,48.152,16.327z"/>
</g>
<path fill="#A0A0A0" d="M41.617,35.721l-0.419-0.908c8.803-4.062,8.833-10.746,8.831-11.028l1-0.015
	C51.034,24.078,51.037,31.373,41.617,35.721z"/>
<path fill="#575756" d="M51.637,25.223c-0.039,0.698-0.803,1.224-1.708,1.174l0,0c-0.905-0.051-1.606-0.656-1.568-1.355l0.32-5.787
	c0.039-0.697,0.803-1.223,1.708-1.172l0,0c0.905,0.05,1.606,0.656,1.568,1.354L51.637,25.223z"/>
<path fill="#575756" d="M42.885,34.398c0.295,0.501,0.27,1.065-0.059,1.258l-1.767,1.037c-0.328,0.194-0.833-0.057-1.128-0.559l0,0
	c-0.295-0.502-0.269-1.066,0.059-1.258l1.767-1.038C42.085,33.645,42.59,33.896,42.885,34.398L42.885,34.398z"/>
</svg>
