<?xml version="1.0" encoding="utf-8"?>
<!-- Generator: Adobe Illustrator 16.0.0, SVG Export Plug-In . SVG Version: 6.00 Build 0)  -->
<!DOCTYPE svg PUBLIC "-//W3C//DTD SVG 1.1//EN" "http://www.w3.org/Graphics/SVG/1.1/DTD/svg11.dtd">
<svg version="1.1" id="Layer_1" xmlns="http://www.w3.org/2000/svg" xmlns:xlink="http://www.w3.org/1999/xlink" x="0px" y="0px"
	 width="86.061px" height="94.264px" viewBox="0 0 86.061 94.264" enable-background="new 0 0 86.061 94.264" xml:space="preserve">
<g>
	<path fill="#0DB47E" d="M86.061,34.229c0-9.312-1.652-17.005-4.566-23.247c-1.656,0.13-3.341,0.203-5.056,0.203
		c-14.111,0-26.48-4.472-33.407-11.185C36.103,6.713,23.736,11.185,9.623,11.185c-1.714,0-3.4-0.073-5.056-0.203
		C1.651,17.224,0,24.917,0,34.229c0,31.905,26.168,60.035,43.031,60.035C61.083,94.264,86.061,66.134,86.061,34.229z"/>
	<g>
		<path fill="#FFFFFF" d="M60.281,69.467c0,1.544-1.25,2.796-2.795,2.796H28.573c-1.544,0-2.794-1.252-2.794-2.796V44.752
			c0-1.546,1.25-2.798,2.794-2.798h28.913c1.545,0,2.795,1.252,2.795,2.798V69.467z"/>
		<path fill="#FFFFFF" d="M43.029,70.57c-7.197,0-13.058-5.857-13.058-13.054V32.688c0-7.197,5.86-13.056,13.058-13.056
			c7.198,0,13.058,5.858,13.058,13.056v24.828C56.087,64.713,50.227,70.57,43.029,70.57z M43.029,25.229
			c-4.113,0-7.463,3.347-7.463,7.459v24.828c0,4.112,3.35,7.459,7.463,7.459c4.114,0,7.461-3.347,7.461-7.459V32.688
			C50.491,28.576,47.143,25.229,43.029,25.229z"/>
	</g>
	<g>
		<path fill="#0DB47E" d="M47.362,53.498c0,2.392-1.947,4.331-4.331,4.331c-2.391,0-4.33-1.939-4.33-4.331
			c0-2.393,1.939-4.328,4.33-4.328C45.415,49.17,47.362,51.105,47.362,53.498z"/>
		<path fill="#0DB47E" d="M45.193,64.503c0,1.194-0.967,2.163-2.166,2.163l0,0c-1.198,0-2.165-0.969-2.165-2.163V52.418
			c0-1.198,0.967-2.167,2.165-2.167l0,0c1.198,0,2.166,0.969,2.166,2.167V64.503z"/>
	</g>
	<path opacity="0.1" fill="#010000" d="M81.471,10.981c-1.656,0.13-3.341,0.203-5.056,0.203c-14.033,0-26.338-4.424-33.286-11.071
		V94.25c18.324,0,42.907-28.265,42.907-60.021C86.036,24.917,84.385,17.224,81.471,10.981z"/>
</g>
</svg>
