<?xml version="1.0" encoding="UTF-8" standalone="no"?>
<svg xmlns:rdf="http://www.w3.org/1999/02/22-rdf-syntax-ns#" xmlns="http://www.w3.org/2000/svg" version="1.1" xml:space="preserve" height="93.6" width="147" enable-background="new 0 0 412.408 229.413" y="0px" x="0px" xmlns:cc="http://creativecommons.org/ns#" xmlns:dc="http://purl.org/dc/elements/1.1/" viewBox="0 0 147.19001 93.644999">
<ellipse rx="168" ry="13" transform="matrix(.289 0 0 .42 24.7 -2.54)" cy="216" cx="244" fill="#e6e6e6"/><g transform="matrix(.839 0 0 .839 -2.92 0)"><rect height="81.1" width="73.3" y="20.3" x="80.4" fill="#3a383a"/><path fill="#5e5e5e" d="m78.5 19c0 1.93 1.56 3.49 3.49 3.49h71.8v-3.49-9.42-3.49h-71.8c-1.92 0-3.49 1.56-3.49 3.49v9.42z"/><rect height="1.31" width="27.1" y="13.7" x="113" fill="#fff"/><rect height="1.31" width="27.1" y="16.7" x="113" fill="#fff"/><circle d="m 94.939997,14.3 c 0,2.893972 -2.346028,5.24 -5.24,5.24 -2.893972,0 -5.24,-2.346028 -5.24,-5.24 0,-2.893972 2.346028,-5.2399996 5.24,-5.2399996 2.893972,0 5.24,2.3460276 5.24,5.2399996 z" transform="translate(11.9)" cy="14.3" cx="89.7" r="5.24" fill="#eb6159"/><path fill="#3a383a" d="m97.7 14.3c0 2.17 1.76 3.93 3.93 3.93s3.93-1.76 3.93-3.93-1.76-3.93-3.93-3.93-3.93 1.76-3.93 3.93z"/><path fill="#5e5e5e" d="m78.5 72.5c0 1.93 1.56 3.49 3.49 3.49h71.8v-3.49-9.42-3.49h-71.8c-1.92 0-3.49 1.56-3.49 3.49v9.42z"/><g fill="#fff"><rect y="64.1" width="27.1" x="113" height="1.31"/><rect y="67.2" width="27.1" x="113" height="1.31"/><rect y="70.2" width="27.1" x="113" height="1.31"/></g><circle d="m 94.939997,67.800003 c 0,2.893972 -2.346028,5.24 -5.24,5.24 -2.893972,0 -5.24,-2.346028 -5.24,-5.24 0,-2.893972 2.346028,-5.24 5.24,-5.24 2.893972,0 5.24,2.346028 5.24,5.24 z" transform="translate(11.9)" cy="67.8" cx="89.7" r="5.24" fill="#eb6159"/><path fill="#3a383a" d="m97.7 67.8c0 2.17 1.76 3.93 3.93 3.93s3.93-1.76 3.93-3.93-1.76-3.93-3.93-3.93c-2.17 0.001-3.93 1.76-3.93 3.93z"/><path fill="#5e5e5e" d="m78.5 90.4c0 1.93 1.56 3.49 3.49 3.49h71.8v-16.4h-71.8c-1.92 0-3.49 1.56-3.49 3.49v9.43z"/><g fill="#fff"><rect y="81.9" width="27.1" x="113" height="1.31"/><rect y="85.1" width="27.1" x="113" height="1.31"/><rect y="88.1" width="27.1" x="113" height="1.31"/></g><circle d="m 94.939997,85.699997 c 0,2.893972 -2.346028,5.24 -5.24,5.24 -2.893972,0 -5.24,-2.346028 -5.24,-5.24 0,-2.893972 2.346028,-5.24 5.24,-5.24 2.893972,0 5.24,2.346028 5.24,5.24 z" transform="translate(11.9)" cy="85.7" cx="89.7" r="5.24" fill="#eb6159"/><path fill="#3a383a" d="m97.7 85.7c0 2.17 1.76 3.93 3.93 3.93s3.93-1.76 3.93-3.93-1.76-3.93-3.93-3.93-3.93 1.76-3.93 3.93z"/><path fill="#5e5e5e" d="m154 106v-6.72-3.49h-71.8c-1.92 0-3.49 1.56-3.49 3.49v6.72h75.3z"/><rect height="1.31" width="27.1" y="99.8" x="113" fill="#fff"/><rect height="1.31" width="27.1" y="103" x="113" fill="#fff"/><path fill="#eb6159" d="m106 106c0.258-0.619 0.403-1.3 0.403-2.01 0-2.89-2.34-5.23-5.24-5.23-2.89 0-5.24 2.34-5.24 5.23 0 0.713 0.145 1.39 0.402 2.01h9.67z"/><path fill="#3a383a" d="m105 106c0.354-0.59 0.57-1.27 0.57-2.01 0-2.17-1.76-3.93-3.93-3.93s-3.93 1.76-3.93 3.93c0 0.737 0.217 1.42 0.57 2.01h6.72z"/><g fill="#14caf4"><circle d="m 91.519997,14.3 c 0,1.005158 -0.814842,1.82 -1.82,1.82 -1.005158,0 -1.82,-0.814842 -1.82,-1.82 0,-1.005158 0.814842,-1.82 1.82,-1.82 1.005158,0 1.82,0.814842 1.82,1.82 z" transform="translate(11.9)" cy="14.3" cx="89.7" r="1.82"/><path d="m103 67.8c0 1.01-0.817 1.82-1.82 1.82-1.01 0-1.82-0.814-1.82-1.82s0.813-1.82 1.82-1.82 1.82 0.813 1.82 1.82z"/><circle d="m 91.519997,85.699997 c 0,1.005158 -0.814842,1.82 -1.82,1.82 -1.005158,0 -1.82,-0.814842 -1.82,-1.82 0,-1.005158 0.814842,-1.82 1.82,-1.82 1.005158,0 1.82,0.814842 1.82,1.82 z" transform="translate(11.9)" cy="85.7" cx="89.7" r="1.82"/><circle d="m 91.519997,104 c 0,1.00516 -0.814842,1.82 -1.82,1.82 -1.005158,0 -1.82,-0.81484 -1.82,-1.82 0,-1.00516 0.814842,-1.82 1.82,-1.82 1.005158,0 1.82,0.81484 1.82,1.82 z" transform="translate(11.9)" cy="104" cx="89.7" r="1.82"/></g><rect opacity=".1" height="102" width="73.3" y="3.16" x="84.7" fill="#fff"/><polygon opacity=".3" points="155 10.8 155 0.575 87.9 0.575 87.9 4.68 76 4.68 76 106 87.9 106 87.9 10.8"/><polygon opacity=".2" transform="translate(3.47,1.3)" points="145 2.26 117 2.26 80.2 106 109 106" fill="#fff"/><polygon points="154 7.13 154 0 75.2 0 75.2 106 83.4 106 83.4 7.13" fill="#d8d8d8"/><polygon points="153 106 161 106 161 0 82.9 0 153 7.13" fill="#d8d8d8"/><polygon opacity=".1" points="153 7.13 153 106 161 106 161 0"/></g><g fill="#fcd22e" transform="translate(-.01 -.195)"><path d="m46.3 54.2c-0.4 0-23.3-3.9-23.3-3.9l1.9 2.53-11.4-0.916s2.54 2.51 1.81 2.39c-0.8-0.1-15.3 0.9-15.3 0.9l23.3 4.13-1.86-2.47 11.5 1.13-1.99-2.65 15.3-1.12z"/><path d="m41.9 69c-0.2 0-13.9-2.3-13.9-2.3l1.14 1.51-6.83-0.548s1.52 1.5 1.08 1.43c-0.433-0.0706-9.14 0.507-9.14 0.507l13.9 2.47-1.11-1.48 6.91 0.674-1.19-1.59 9.14-0.67z"/><path d="m41.9 39.4c-0.2 0-13.9-2.3-13.9-2.3l1.14 1.51-6.83-0.549s1.52 1.5 1.08 1.43c-0.433-0.0697-9.14 0.507-9.14 0.507l13.9 2.47-1.11-1.48 6.91 0.674-1.19-1.59 9.14-0.671z"/><path d="m51.5 81.1c-0.2 0-10.8-1.7-10.8-1.7l0.877 1.17-5.27-0.424s1.17 1.16 0.836 1.1c-0.333-0.0529-7.05 0.391-7.05 0.391l10.8 1.91-0.857-1.14 5.33 0.519-0.919-1.22 7.05-0.518z"/><path d="m51.5 27.3c-0.2 0-10.8-1.8-10.8-1.8l0.877 1.17-5.27-0.424s1.17 1.16 0.836 1.1c-0.333-0.0533-7.05 0.391-7.05 0.391l10.8 1.91-0.857-1.14 5.33 0.519-0.919-1.22 7.05-0.517z"/></g><path fill="#ccc" d="m70.7 14.3c0 1.01-0.823 1.84-1.84 1.84h-11.3c-1.02 0-1.84-0.827-1.84-1.84s0.821-1.84 1.84-1.84h11.3c1.02-0.00042 1.84 0.823 1.84 1.84z"/><rect opacity=".3" height="29.2" width="94.5" y="21.5" x="52.7"/><rect height="30" width="95.9" y="18.9" x="46.3" fill="#36aad8"/><g fill="#fff" transform="matrix(.292 0 0 .42 22.2 -.53)">
		<path d="m260 64.7c0 1.45-1.24 2.62-2.76 2.62h-57.9c-1.53 0-2.77-1.17-2.77-2.62s1.24-2.63 2.77-2.63h57.9c1.52 0 2.76 1.18 2.76 2.63z"/>
		<path d="m303 76.5c0 1.46-1.24 2.63-2.76 2.63h-101c-1.53 0-2.77-1.17-2.77-2.63 0-1.45 1.24-2.62 2.77-2.62h101c1.52-0.001 2.76 1.17 2.76 2.62z"/>
		<path d="m303 88.1c0 1.45-1.24 2.62-2.76 2.62h-101c-1.53 0-2.77-1.17-2.77-2.62s1.24-2.62 2.77-2.62h101c1.52 0 2.76 1.17 2.76 2.62z"/>
		<path d="m303 99.6c0 1.46-1.24 2.63-2.76 2.63h-101c-1.53 0-2.77-1.17-2.77-2.63 0-1.45 1.24-2.62 2.77-2.62h101c1.52 0 2.76 1.18 2.76 2.62z"/>
	</g><path fill="#fff" d="m141 48.9c0.543-0.292 1.07-0.607 1.57-0.947v-2.55c-0.826 0.679-1.73 1.28-2.71 1.79l-3.21-7.09 5.92-2.69v-1.81l-6.6 2.99-2.14-4.73 8.34-3.78c0.144 0.333 0.278 0.669 0.406 1v-3.69c-0.795-1.42-1.71-2.74-2.68-3.95l2.68-1.21v-3.28h-0.003-4.44c1.26 0.467 2.45 1.1 3.56 1.88l-2.9 1.31c-1.04-1.17-2.13-2.23-3.2-3.19h-2.47c1.3 1.12 2.73 2.41 4.12 3.89l-6.97 3.16-3.16-6.96c0.0802-0.0302 0.158-0.0575 0.236-0.0857h-4.44c-6.94 4.7-9.7 13.8-6.12 21.7 1.65 3.65 4.4 6.46 7.68 8.21h8.27c-1.55-1.34-3.3-2.93-4.92-4.8l7.33-3.32 3.21 7.09c-1.52 0.595-3.09 0.929-4.65 1.03h7.29zm-2.63-24.8c1.13 1.34 2.19 2.82 3.07 4.47l-8.3 3.76-2.2-4.86 7.43-3.37zm-6.73 8.91-8.3 3.76c-0.658-1.74-1.07-3.51-1.34-5.25l7.44-3.37 2.2 4.86zm-10-10.3c1.14-1.18 2.48-2.19 4.01-2.98l3.15 6.97-6.97 3.16c-0.261-2.63-0.219-5.1-0.191-7.14zm-1.65 2.03c-0.0197 1.81 0.0428 3.78 0.291 5.81l-2.9 1.31c0.266-2.55 1.17-5.01 2.61-7.13zm-2.69 8.97 3.23-1.46c0.302 1.73 0.755 3.48 1.42 5.21l-3.59 1.63c-0.69-1.76-1.03-3.58-1.06-5.37zm1.74 6.87 3.56-1.61c0.759 1.62 1.71 3.1 2.75 4.46l-3.07 1.39c-1.29-1.19-2.39-2.61-3.23-4.24zm11.3 8.15c-2.39-0.385-4.66-1.33-6.63-2.75l2.73-1.23c1.26 1.48 2.61 2.79 3.9 3.98zm-3.55-5.95c-1.04-1.35-1.99-2.83-2.75-4.45l8.34-3.78 2.14 4.73-7.74 3.5z"/><circle opacity=".2" cx="154" transform="matrix(.42 0 0 .42 -.01 -.53)" cy="84.8" r="25.2" fill="#444"/><circle cx="154" transform="matrix(.42 0 0 .42 -.01 -.53)" cy="82.8" r="25.2" fill="#eabc28"/><path opacity=".15" fill="#fff" d="m72.2 26.7c-4.49 4.32-10.9 10.5-15.2 14.7 1.93 2.07 4.67 3.36 7.72 3.36 5.84 0 10.6-4.73 10.6-10.6 0-2.93-1.19-5.58-3.11-7.49z"/><circle opacity=".2" cx="154" transform="matrix(.42 0 0 .42 -.01 -.53)" cy="82.8" r="17.3" fill="#444"/><path opacity=".2" fill="#444" d="m66.7 8.24h-14v4.2h0.765c1.18 0 0.784 1.01 0.0139 1.01-0.0155 0-0.0269 0.0017-0.0428 0.0017h-0.737v4.31h2.43c1.01 0.159 0.604 0.865 0.193 0.867h-2.63v0.334l-6.38-0.037v3.76h6.9c-1.07 4.6 2.77 8.62 5.85 11-0.127 0.469-0.2 0.958-0.2 1.47 0 3.12 2.53 5.65 5.65 5.65s5.65-2.53 5.65-5.65-2.53-5.65-5.65-5.65c-0.163 0-0.325 0.0109-0.484 0.0248-0.0794-0.814-0.168-1.81-0.271-3.05-0.9-10.5 7.5-8.6 7.8-13.5 0.3-4.93-4.9-4.87-4.9-4.87z"/><path fill="#fcd22e" d="m66.7 7.38h-48-5.14-1.23c-1.16 0-2.1 0.94-2.1 2.1s0.939 2.1 2.1 2.1h1.52c1.6 0 31.1-0.0025 39.6-0.0025 1.18 0 0.784 1.01 0.0139 1.01-0.0155 0-0.0269 0.0017-0.0428 0.0017h-30.5c-1.19 0-2.15 0.965-2.15 2.15 0 1.19 0.965 2.15 2.15 2.15h32.2c1.01 0.158 0.604 0.865 0.193 0.867h-26.4c-1.12 0-2.03 0.907-2.03 2.03s0.908 2.03 2.03 2.03h24.3c-1.07 4.6 2.77 8.62 5.85 11-0.127 0.468-0.2 0.958-0.2 1.47 0 3.12 2.53 5.65 5.65 5.65s5.65-2.53 5.65-5.65-2.53-5.65-5.65-5.65c-0.163 0-0.325 0.0109-0.484 0.0244-0.0794-0.814-0.168-1.81-0.271-3.05-1-10.6 7.4-8.6 7.7-13.6 0.3-4.9-4.9-4.83-4.9-4.83z"/><ellipse rx=".0980" ry=".0650" transform="matrix(.42 0 0 .42 -.01 -.53)" cy="45.4" cx="171" fill="#fcd22e"/><path opacity=".1" fill="#444" d="m69.1 37.6c-2.97 2.64-9.64 1.71-8.65-5.36-7.06-6.79-5.32-8.54-4.73-11.2-2.55 0-27.4-0.109-27.4-0.109s-1.28-0.27-1.27-1.92c-0.121 0.26-0.194 0.546-0.194 0.852 0 1.12 0.908 2.03 2.03 2.03h24.3c-1.07 4.6 2.77 8.62 5.85 11-0.127 0.468-0.2 0.958-0.2 1.47 0 3.12 2.53 5.65 5.65 5.65 1.9-0.00042 3.58-0.945 4.61-2.39z"/>
</svg>
