<?xml version="1.0" encoding="utf-8"?>
<!-- Generator: Adobe Illustrator 16.0.0, SVG Export Plug-In . SVG Version: 6.00 Build 0)  -->
<!DOCTYPE svg PUBLIC "-//W3C//DTD SVG 1.1//EN" "http://www.w3.org/Graphics/SVG/1.1/DTD/svg11.dtd">
<svg version="1.1" id="Layer_1" xmlns="http://www.w3.org/2000/svg" xmlns:xlink="http://www.w3.org/1999/xlink" x="0px" y="0px"
	 width="74.349px" height="74.626px" viewBox="0 0 74.349 74.626" enable-background="new 0 0 74.349 74.626" xml:space="preserve">
<g>
	<circle fill="#78F1FF" cx="37.174" cy="37.149" r="37.151"/>
	<path fill="#0082B7" d="M37.175,0.281C16.644,0.281,0,16.924,0,37.455c0,20.528,16.644,37.172,37.175,37.172
		c20.53,0,37.173-16.644,37.173-37.172C74.349,16.924,57.705,0.281,37.175,0.281z M67.665,49.579
		c-2.436,1.143-5.182,2.438-8.189,3.688c1.299-4.582,2.187-9.465,2.196-14.542h8.271C69.794,42.547,69.01,46.2,67.665,49.579z
		 M4.409,38.725h8.269c0.011,5.472,1.043,10.723,2.509,15.608c-2.845-1.089-5.5-2.26-7.912-3.375
		C5.575,47.203,4.575,43.073,4.409,38.725z M35.903,4.685v8.271c-5.076,0.013-9.96,0.897-14.539,2.196
		c1.249-3.005,2.543-5.756,3.687-8.191C28.428,5.616,32.082,4.832,35.903,4.685z M47.866,17.762c2.4,0.58,4.711,1.292,6.923,2.077
		c0.784,2.211,1.497,4.522,2.076,6.92C54.798,22.963,51.665,19.831,47.866,17.762z M38.444,13.019V4.685
		c3.823,0.146,7.476,0.931,10.854,2.276c1.212,2.582,2.592,5.519,3.91,8.739C48.592,14.292,43.631,13.269,38.444,13.019z
		 M28.2,16.934c-4.567,2-8.345,5.472-10.715,9.826c0.657-2.725,1.484-5.341,2.393-7.82C22.533,18.108,25.317,17.41,28.2,16.934z
		 M12.738,36.184H4.409c0.167-4.348,1.165-8.477,2.864-12.23c2.574-1.19,5.417-2.448,8.48-3.594
		C14.174,25.271,13.007,30.597,12.738,36.184z M16.654,46.43c2.256,5.151,6.394,9.289,11.547,11.544
		c-3.221-0.53-6.314-1.342-9.244-2.302C17.997,52.743,17.186,49.647,16.654,46.43z M35.903,61.954v8.269
		c-4.348-0.168-8.474-1.168-12.229-2.865c-1.114-2.414-2.287-5.067-3.375-7.914C25.183,60.911,30.431,61.941,35.903,61.954z
		 M38.444,61.892c5.587-0.268,10.914-1.436,15.826-3.015c-1.147,3.062-2.406,5.908-3.594,8.48
		c-3.756,1.697-7.883,2.697-12.232,2.865V61.892z M47.864,57.146c4.357-2.369,7.83-6.146,9.831-10.718
		c-0.477,2.884-1.176,5.668-2.007,8.325C53.208,55.66,50.59,56.488,47.864,57.146z M61.612,36.184
		c-0.25-5.188-1.275-10.149-2.683-14.762c3.219,1.318,6.156,2.697,8.736,3.909c1.345,3.379,2.129,7.032,2.277,10.854H61.612z
		 M65.163,20.354c-2.386-1.112-4.955-2.211-7.674-3.214c-1.001-2.719-2.104-5.289-3.217-7.674
		C58.711,12.181,62.444,15.915,65.163,20.354z M20.076,9.465c-1.025,2.199-2.04,4.553-2.976,7.036
		c-2.554,0.885-4.991,1.853-7.288,2.828C12.464,15.33,15.98,11.973,20.076,9.465z M9.814,55.582
		c2.101,0.891,4.316,1.778,6.633,2.601c0.822,2.317,1.711,4.535,2.601,6.634C15.387,62.387,12.245,59.245,9.814,55.582z
		 M55.299,64.819c0.973-2.298,1.945-4.734,2.829-7.291c2.481-0.935,4.837-1.949,7.034-2.974
		C62.654,58.649,59.297,62.166,55.299,64.819z"/>
	<circle fill="#0082B7" cx="37.174" cy="37.453" r="19.614"/>
	<rect x="24.984" y="46.327" fill="#0082B7" width="25.256" height="24.322"/>
	<path fill="#FFFFFF" d="M30.385,70.424c2.202,0.406,4.468,0.629,6.788,0.629c2.629,0,5.193-0.277,7.667-0.796V43.08H30.385V70.424z
		"/>
	<circle fill="#FFFFFF" cx="37.174" cy="37.453" r="16.913"/>
	<rect x="28.692" y="20.246" fill="#0082B7" width="16.964" height="20.265"/>
	<path opacity="0.1" fill="#060000" d="M37.613,0.011V74.29c20.313-0.237,36.712-16.769,36.712-37.14
		C74.325,16.779,57.926,0.248,37.613,0.011z"/>
</g>
</svg>
