<?xml version="1.0" encoding="utf-8"?>
<!-- Generator: Adobe Illustrator 16.0.0, SVG Export Plug-In . SVG Version: 6.00 Build 0)  -->
<!DOCTYPE svg PUBLIC "-//W3C//DTD SVG 1.1//EN" "http://www.w3.org/Graphics/SVG/1.1/DTD/svg11.dtd">
<svg version="1.1" id="Layer_1" xmlns="http://www.w3.org/2000/svg" xmlns:xlink="http://www.w3.org/1999/xlink" x="0px" y="0px"
	 width="74.627px" height="74.625px" viewBox="0 0 74.627 74.625" enable-background="new 0 0 74.627 74.625" xml:space="preserve">
<g>
	<circle fill="#78F1FF" cx="37.314" cy="37.311" r="36.093"/>
	<path fill="#0084FD" d="M37.314,0C16.706,0,0,16.706,0,37.312c0,20.606,16.706,37.312,37.314,37.312
		c20.607,0,37.313-16.706,37.313-37.312C74.627,16.706,57.921,0,37.314,0z M67.918,49.482c-2.445,1.146-5.202,2.447-8.22,3.701
		c1.304-4.598,2.194-9.499,2.204-14.595h8.301C70.055,42.423,69.269,46.091,67.918,49.482z M4.425,38.588h8.299
		c0.011,5.493,1.047,10.762,2.519,15.667c-2.856-1.095-5.521-2.27-7.942-3.389C5.596,47.096,4.592,42.952,4.425,38.588z
		 M36.038,4.42v8.303c-5.096,0.012-9.998,0.9-14.594,2.204c1.254-3.016,2.552-5.776,3.702-8.221
		C28.535,5.355,32.201,4.567,36.038,4.42z M48.044,17.547c2.41,0.581,4.729,1.297,6.949,2.084c0.787,2.22,1.502,4.539,2.083,6.946
		C55.003,22.767,51.858,19.622,48.044,17.547z M38.588,12.786V4.42c3.837,0.146,7.504,0.935,10.894,2.285
		c1.218,2.591,2.603,5.54,3.925,8.771C48.774,14.064,43.794,13.036,38.588,12.786z M28.305,16.715
		c-4.584,2.007-8.376,5.492-10.755,9.862c0.66-2.735,1.49-5.361,2.403-7.849C22.617,17.894,25.412,17.194,28.305,16.715z
		 M12.786,36.037H4.425c0.167-4.364,1.169-8.509,2.875-12.276c2.583-1.194,5.438-2.457,8.512-3.607
		C14.227,25.083,13.057,30.429,12.786,36.037z M16.717,46.322c2.265,5.169,6.418,9.325,11.59,11.587
		c-3.232-0.531-6.338-1.347-9.278-2.31C18.064,52.657,17.25,49.55,16.717,46.322z M36.038,61.905v8.299
		c-4.365-0.169-8.506-1.172-12.275-2.876c-1.119-2.423-2.296-5.086-3.389-7.943C25.277,60.857,30.545,61.892,36.038,61.905z
		 M38.588,61.842c5.608-0.269,10.955-1.441,15.885-3.026c-1.152,3.074-2.415,5.93-3.607,8.513
		c-3.771,1.704-7.912,2.707-12.277,2.876V61.842z M48.042,57.078c4.374-2.378,7.859-6.17,9.868-10.759
		c-0.479,2.894-1.18,5.688-2.015,8.355C53.407,55.586,50.779,56.418,48.042,57.078z M61.843,36.037
		c-0.251-5.208-1.28-10.188-2.693-14.817c3.23,1.322,6.178,2.707,8.769,3.922c1.35,3.392,2.136,7.059,2.285,10.895H61.843z
		 M65.406,20.147c-2.395-1.116-4.973-2.22-7.702-3.226c-1.005-2.729-2.112-5.308-3.229-7.703
		C58.931,11.945,62.677,15.693,65.406,20.147z M20.151,9.219c-1.029,2.207-2.047,4.57-2.987,7.062
		c-2.563,0.888-5.009,1.86-7.315,2.838C12.511,15.105,16.04,11.735,20.151,9.219z M9.851,55.508c2.108,0.895,4.333,1.785,6.659,2.61
		c0.825,2.326,1.717,4.552,2.61,6.659C15.444,62.339,12.29,59.185,9.851,55.508z M55.506,64.78c0.977-2.307,1.952-4.751,2.84-7.318
		c2.489-0.938,4.854-1.957,7.06-2.985C62.888,58.587,59.518,62.117,55.506,64.78z"/>
	<circle fill="#0084FD" cx="37.314" cy="37.312" r="19.687"/>
	<path fill="#FFFFFF" d="M51.649,34.056l-1.675-0.133c-0.3-1.124-0.742-2.188-1.313-3.174l1.09-1.269
		c0.382-0.382,0.454-0.931,0.163-1.221l-3.547-3.548c-0.293-0.292-0.839-0.22-1.22,0.163l-1.276,1.087
		c-0.983-0.569-2.047-1.01-3.172-1.311l-0.13-1.673c0-0.541-0.335-0.976-0.748-0.976h-5.017c-0.414,0-0.749,0.436-0.749,0.976
		l-0.134,1.675c-1.123,0.299-2.185,0.741-3.168,1.311l-1.275-1.089c-0.38-0.382-0.927-0.454-1.219-0.163l-3.548,3.548
		c-0.292,0.29-0.22,0.838,0.163,1.221l1.085,1.276c-0.568,0.984-1.009,2.046-1.309,3.169l-1.674,0.131
		c-0.54,0-0.977,0.334-0.977,0.747v5.017c0,0.413,0.437,0.749,0.977,0.749l1.675,0.134c0.301,1.122,0.741,2.185,1.311,3.168
		l-1.088,1.272c-0.383,0.382-0.455,0.929-0.163,1.221l3.548,3.547c0.292,0.292,0.838,0.22,1.219-0.162l1.279-1.085
		c0.982,0.568,2.047,1.009,3.172,1.308l0.126,1.675c0,0.54,0.335,0.977,0.749,0.977h5.017c0.413,0,0.748-0.437,0.748-0.977
		l0.132-1.676c1.125-0.3,2.188-0.742,3.174-1.312l1.271,1.09c0.38,0.382,0.927,0.454,1.22,0.162l3.547-3.547
		c0.292-0.292,0.22-0.839-0.163-1.221l-1.088-1.273c0.571-0.985,1.012-2.049,1.312-3.175l1.674-0.126
		c0.54,0,0.977-0.336,0.977-0.749v-5.017C52.626,34.391,52.189,34.056,51.649,34.056z"/>
	<path fill="#0084FD" d="M42.497,37.314c0,2.862-2.321,5.181-5.183,5.181s-5.182-2.319-5.182-5.181c0-2.865,2.32-5.184,5.182-5.184
		S42.497,34.45,42.497,37.314z"/>
</g>
</svg>
