<?xml version="1.0" encoding="utf-8"?>
<!-- Generator: Adobe Illustrator 16.0.0, SVG Export Plug-In . SVG Version: 6.00 Build 0)  -->
<!DOCTYPE svg PUBLIC "-//W3C//DTD SVG 1.1//EN" "http://www.w3.org/Graphics/SVG/1.1/DTD/svg11.dtd">
<svg version="1.1" id="Layer_1" xmlns="http://www.w3.org/2000/svg" xmlns:xlink="http://www.w3.org/1999/xlink" x="0px" y="0px"
	 width="40px" height="35.493px" viewBox="23.598 1.887 40 35.493" enable-background="new 23.598 1.887 40 35.493"
	 xml:space="preserve">
<g>
	<path fill="#DADEE5" d="M28.642,17.723L32.235,4.99c7.298-3.094,10.803-1.344,13.962,0.851l-3.591,12.711
		C39.445,16.369,35.466,15.563,28.642,17.723"/>
	<path fill="#DADEE5" d="M24.412,32.691l3.598-12.749c7.298-3.094,10.801-1.342,13.962,0.854l-3.591,12.708
		C35.22,31.325,31.7,30.845,24.412,32.691"/>
	<path fill="#DADEE5" d="M40.258,34.832l3.589-12.708c3.162,2.182,8.23,3.959,15.526,0.864l-3.596,12.733
		c-2.807,1.19-5.283,1.658-7.448,1.658C44.865,37.378,42.2,36.184,40.258,34.832"/>
	<path fill="#DADEE5" d="M44.482,19.876l3.589-12.709c3.162,2.183,8.231,3.959,15.526,0.867l-3.595,12.733
		c-2.806,1.19-5.281,1.658-7.448,1.658C49.091,22.424,46.426,21.227,44.482,19.876"/>
	
		<linearGradient id="SVGID_1_" gradientUnits="userSpaceOnUse" x1="-530.2173" y1="342.6958" x2="-529.9261" y2="342.6958" gradientTransform="matrix(-0.2588 0.9659 0.9659 0.2588 -413.8259 457.6415)">
		<stop  offset="0" style="stop-color:#C8AE00"/>
		<stop  offset="1" style="stop-color:#AC970E"/>
	</linearGradient>
	<path fill="url(#SVGID_1_)" d="M54.471,34.368c-0.036,0.067-0.102,0.106-0.123,0.118l-0.008,0.002c0,0-0.062,0.009-0.118-0.036
		c0.145-0.077,0.187-0.236,0.187-0.236S54.494,34.284,54.471,34.368L54.471,34.368z"/>
	<path fill="#C8AE00" d="M54.471,34.368c0.009-0.072-0.069-0.133-0.069-0.133l3.506-12.217c0,0,0.06,0.051,0.075,0.088
		L54.471,34.368L54.471,34.368z"/>
	
		<linearGradient id="SVGID_2_" gradientUnits="userSpaceOnUse" x1="-382.7373" y1="276.9419" x2="-382.5063" y2="276.9419" gradientTransform="matrix(0 1 1 0 -218.9966 404.6187)">
		<stop  offset="0" style="stop-color:#BAA300"/>
		<stop  offset="0.0056" style="stop-color:#BAA300"/>
		<stop  offset="1" style="stop-color:#C8AE00"/>
	</linearGradient>
	<path fill="url(#SVGID_2_)" d="M57.979,22.113c0,0-0.009-0.034-0.073-0.087c0.028-0.119,0.009-0.145,0.009-0.145l0.007,0.004
		C57.921,21.885,58.012,21.969,57.979,22.113L57.979,22.113z"/>
	
		<linearGradient id="SVGID_3_" gradientUnits="userSpaceOnUse" x1="-223.1196" y1="65.7173" x2="-222.837" y2="65.7173" gradientTransform="matrix(0.515 0.8572 0.8572 -0.515 115.9792 246.6658)">
		<stop  offset="0" style="stop-color:#EBC900"/>
		<stop  offset="0.0056" style="stop-color:#EBC900"/>
		<stop  offset="1" style="stop-color:#AC970E"/>
	</linearGradient>
	<path fill="url(#SVGID_3_)" d="M57.631,21.818c0,0-0.098-0.118-0.295-0.081c0.01-0.045,0.026-0.098,0.09-0.125
		c0.12-0.018,0.176,0.014,0.202,0.039l0.019,0.024C57.663,21.747,57.631,21.818,57.631,21.818L57.631,21.818z"/>
	
		<linearGradient id="SVGID_4_" gradientUnits="userSpaceOnUse" x1="-705.1118" y1="381.1392" x2="-704.9719" y2="381.1392" gradientTransform="matrix(-0.6428 0.766 0.766 0.6428 -687.3388 316.8536)">
		<stop  offset="0" style="stop-color:#EBC900"/>
		<stop  offset="0.0056" style="stop-color:#EBC900"/>
		<stop  offset="1" style="stop-color:#AC970E"/>
	</linearGradient>
	<path fill="url(#SVGID_4_)" d="M57.628,21.651l0.293,0.234c0.016,0.078-0.016,0.157-0.016,0.157l-0.291-0.234
		C57.614,21.809,57.645,21.721,57.628,21.651L57.628,21.651z"/>
	<polygon fill="#AC970E" points="54.088,34.012 57.614,21.792 57.911,22.028 54.41,34.242 54.396,34.275 	"/>
	
		<linearGradient id="SVGID_5_" gradientUnits="userSpaceOnUse" x1="-1106.2075" y1="126.897" x2="-1105.8905" y2="126.897" gradientTransform="matrix(-0.9976 -0.0698 -0.0698 0.9976 -1040.5776 -169.7223)">
		<stop  offset="0" style="stop-color:#BAA300"/>
		<stop  offset="1" style="stop-color:#EBC900"/>
	</linearGradient>
	<path fill="url(#SVGID_5_)" d="M53.916,34.23c0,0-0.141-0.126-0.114-0.311c0.188-0.052,0.312,0.069,0.312,0.069
		S54.078,34.161,53.916,34.23L53.916,34.23z"/>
	<path fill="#EBC900" d="M57.349,21.749c-7.423,2.529-10.838,1.017-14.041-1.139c0.008-0.028,0.027-0.076,0.006-0.128
		c3.203,2.155,6.744,3.626,14.112,1.13C57.37,21.651,57.362,21.703,57.349,21.749L57.349,21.749z"/>
	<polygon fill="#C8AE00" points="42.749,20.767 43.012,20.577 39.428,33.042 39.148,33.265 39.15,33.234 	"/>
	
		<linearGradient id="SVGID_6_" gradientUnits="userSpaceOnUse" x1="-1186.8018" y1="43.729" x2="-1186.4576" y2="43.729" gradientTransform="matrix(-0.9613 -0.2756 -0.2756 0.9613 -1087.3724 -342.2823)">
		<stop  offset="0" style="stop-color:#C8AE00"/>
		<stop  offset="0.1" style="stop-color:#C8AE00"/>
		<stop  offset="0.2" style="stop-color:#FFDD00"/>
		<stop  offset="0.35" style="stop-color:#FFDD00"/>
		<stop  offset="1" style="stop-color:#C8AE00"/>
	</linearGradient>
	<path fill="url(#SVGID_6_)" d="M39.734,33.102c-0.105-0.061-0.226-0.109-0.326-0.069l3.593-12.451
		c0.056-0.024,0.189-0.061,0.325,0.034L39.734,33.102L39.734,33.102z"/>
	
		<linearGradient id="SVGID_7_" gradientUnits="userSpaceOnUse" x1="-1147.3618" y1="51.9907" x2="-1147.0345" y2="51.9907" gradientTransform="matrix(-0.9613 -0.2756 -0.2756 0.9613 -1032.8314 -338.3126)">
		<stop  offset="0" style="stop-color:#AC970E"/>
		<stop  offset="1" style="stop-color:#FFDD00"/>
	</linearGradient>
	<path fill="url(#SVGID_7_)" d="M53.809,33.943l3.527-12.21l0.021-0.012c0.187-0.02,0.274,0.081,0.274,0.081l-3.518,12.191
		C54.113,33.994,53.967,33.877,53.809,33.943L53.809,33.943z"/>
	<path fill="#AC970E" d="M54.348,34.486c-7.248,3.097-11.897,1.191-15.098-0.964l0.033-0.03c3.203,2.157,8.13,3.952,14.939,0.945
		C54.279,34.483,54.348,34.486,54.348,34.486L54.348,34.486z"/>
	
		<linearGradient id="SVGID_8_" gradientUnits="userSpaceOnUse" x1="-603.3447" y1="361.9829" x2="-602.9564" y2="361.9829" gradientTransform="matrix(-0.4067 0.9135 0.9135 0.4067 -521.7964 437.9468)">
		<stop  offset="0" style="stop-color:#BAA300"/>
		<stop  offset="1" style="stop-color:#C8AE00"/>
	</linearGradient>
	<path fill="url(#SVGID_8_)" d="M54.113,33.991l0.297,0.251c0,0-0.039,0.145-0.202,0.218l-0.302-0.251
		C54.066,34.135,54.113,33.991,54.113,33.991L54.113,33.991z"/>
	
		<linearGradient id="SVGID_9_" gradientUnits="userSpaceOnUse" x1="-243.8418" y1="-382.9683" x2="-229.4668" y2="-382.9683" gradientTransform="matrix(1 0 0 -1 283.4219 -348.501)">
		<stop  offset="0" style="stop-color:#C8AE00"/>
		<stop  offset="0.4" style="stop-color:#FFDD00"/>
		<stop  offset="1" style="stop-color:#C8AE00"/>
	</linearGradient>
	<path fill="url(#SVGID_9_)" d="M53.844,33.915c-0.025,0.186,0.111,0.32,0.111,0.32c-7.391,3.056-11.176,1.224-14.375-0.945
		c0.056-0.039,0.084-0.072,0.12-0.204l0.053-0.002C43.056,35.118,47.284,36.725,53.844,33.915L53.844,33.915z"/>
	<path fill="#BAA300" d="M39.284,33.507l0.296-0.218c2.935,1.832,7.047,3.837,14.344,0.909l0.302,0.253
		C47.444,37.453,42.487,35.661,39.284,33.507L39.284,33.507z"/>
	<path fill="#C8AE00" d="M39.31,33.515l-0.034,0.023c0,0-0.195-0.107-0.125-0.305C39.167,33.429,39.31,33.515,39.31,33.515
		L39.31,33.515z"/>
	
		<linearGradient id="SVGID_10_" gradientUnits="userSpaceOnUse" x1="-1184.4736" y1="-262.0132" x2="-1184.129" y2="-262.0132" gradientTransform="matrix(-0.6691 -0.7431 -0.7431 0.6691 -947.7229 -671.4337)">
		<stop  offset="0" style="stop-color:#C8AE00"/>
		<stop  offset="0.1" style="stop-color:#C8AE00"/>
		<stop  offset="0.7" style="stop-color:#FFDD00"/>
		<stop  offset="1" style="stop-color:#C8AE00"/>
	</linearGradient>
	<path fill="url(#SVGID_10_)" d="M39.15,33.234l0.278-0.226c-0.015,0.201,0.182,0.277,0.182,0.277l-0.306,0.231
		C39.304,33.517,39.134,33.436,39.15,33.234L39.15,33.234z"/>
	
		<linearGradient id="SVGID_11_" gradientUnits="userSpaceOnUse" x1="-233.2051" y1="140.7378" x2="-232.866" y2="140.7378" gradientTransform="matrix(0.4848 0.8746 0.8746 -0.4848 29.4442 305.1417)">
		<stop  offset="0" style="stop-color:#C8AE00"/>
		<stop  offset="0.4" style="stop-color:#EBC900"/>
		<stop  offset="0.8" style="stop-color:#FFDD00"/>
		<stop  offset="1" style="stop-color:#C8AE00"/>
	</linearGradient>
	<path fill="url(#SVGID_11_)" d="M39.408,33.015c0.1-0.04,0.192,0.007,0.297,0.07c-0.037,0.129-0.059,0.173-0.115,0.216
		C39.524,33.261,39.391,33.181,39.408,33.015L39.408,33.015z"/>
	<g>
		<g>
			<defs>
				<path id="SVGID_12_" d="M43.315,20.61c3.2,2.154,6.67,3.648,14.041,1.111l-3.513,12.212c-6.484,2.849-10.859,1.138-14.141-0.845
					L43.315,20.61"/>
			</defs>
			<clipPath id="SVGID_13_">
				<use xlink:href="#SVGID_12_"  overflow="visible"/>
			</clipPath>
			
				<linearGradient id="SVGID_14_" gradientUnits="userSpaceOnUse" x1="-1148.1011" y1="47.2241" x2="-1134.2427" y2="47.2241" gradientTransform="matrix(-0.9613 -0.2756 -0.2756 0.9613 -1035.601 -332.2901)">
				<stop  offset="0" style="stop-color:#EBC900"/>
				<stop  offset="0.1667" style="stop-color:#FFDE00"/>
				<stop  offset="0.3333" style="stop-color:#FFE027"/>
				<stop  offset="0.625" style="stop-color:#EBC900"/>
				<stop  offset="1" style="stop-color:#BAA300"/>
			</linearGradient>
			<path clip-path="url(#SVGID_13_)" fill="url(#SVGID_14_)" d="M43.335,20.534c3.202,2.153,6.76,3.872,14.149,0.817l-3.642,12.58
				c-7.392,3.058-10.941,1.325-14.141-0.843L43.335,20.534L43.335,20.534z"/>
		</g>
	</g>
	<path fill="#EBC900" d="M43.046,20.499l-0.038,0.089l-0.264,0.19c0.018-0.08,0.221-0.227,0.283-0.27L43.046,20.499L43.046,20.499z"
		/>
	
		<linearGradient id="SVGID_15_" gradientUnits="userSpaceOnUse" x1="-1139.0107" y1="162.6226" x2="-1138.6812" y2="162.6226" gradientTransform="matrix(-0.9976 -0.0698 -0.0698 0.9976 -1081.5864 -221.1949)">
		<stop  offset="0" style="stop-color:#FFDE00"/>
		<stop  offset="0.2" style="stop-color:#FFDE00"/>
		<stop  offset="0.525" style="stop-color:#FFDD00"/>
		<stop  offset="1" style="stop-color:#C8AE00"/>
	</linearGradient>
	<path fill="url(#SVGID_15_)" d="M43.315,20.61c-0.147-0.086-0.268-0.033-0.322-0.009c0.009-0.026,0.039-0.097,0.039-0.097
		c0.12-0.074,0.173-0.074,0.284-0.022C43.336,20.537,43.324,20.577,43.315,20.61L43.315,20.61z"/>
	
		<linearGradient id="SVGID_16_" gradientUnits="userSpaceOnUse" x1="-530.2173" y1="342.6958" x2="-529.9261" y2="342.6958" gradientTransform="matrix(-0.2588 0.9659 0.9659 0.2588 -413.8259 457.6415)">
		<stop  offset="0" style="stop-color:#C8AE00"/>
		<stop  offset="1" style="stop-color:#AC970E"/>
	</linearGradient>
	<path fill="url(#SVGID_16_)" d="M54.471,34.368c-0.036,0.067-0.102,0.106-0.123,0.118l-0.008,0.002c0,0-0.062,0.009-0.118-0.036
		c0.145-0.077,0.187-0.236,0.187-0.236S54.494,34.284,54.471,34.368L54.471,34.368z"/>
	<path fill="#C8AE00" d="M54.471,34.368c0.009-0.072-0.069-0.133-0.069-0.133l3.506-12.217c0,0,0.06,0.051,0.075,0.088
		L54.471,34.368L54.471,34.368z"/>
	
		<linearGradient id="SVGID_17_" gradientUnits="userSpaceOnUse" x1="-382.7373" y1="276.9419" x2="-382.5063" y2="276.9419" gradientTransform="matrix(0 1 1 0 -218.9966 404.6187)">
		<stop  offset="0" style="stop-color:#BAA300"/>
		<stop  offset="0.0056" style="stop-color:#BAA300"/>
		<stop  offset="1" style="stop-color:#C8AE00"/>
	</linearGradient>
	<path fill="url(#SVGID_17_)" d="M57.979,22.113c0,0-0.009-0.034-0.073-0.087c0.028-0.119,0.009-0.145,0.009-0.145l0.007,0.004
		C57.921,21.885,58.012,21.969,57.979,22.113L57.979,22.113z"/>
	
		<linearGradient id="SVGID_18_" gradientUnits="userSpaceOnUse" x1="-223.1196" y1="65.7173" x2="-222.837" y2="65.7173" gradientTransform="matrix(0.515 0.8572 0.8572 -0.515 115.9792 246.6658)">
		<stop  offset="0" style="stop-color:#EBC900"/>
		<stop  offset="0.0056" style="stop-color:#EBC900"/>
		<stop  offset="1" style="stop-color:#AC970E"/>
	</linearGradient>
	<path fill="url(#SVGID_18_)" d="M57.631,21.818c0,0-0.098-0.118-0.295-0.081c0.01-0.045,0.026-0.098,0.09-0.125
		c0.12-0.018,0.176,0.014,0.202,0.039l0.019,0.024C57.663,21.747,57.631,21.818,57.631,21.818L57.631,21.818z"/>
	
		<linearGradient id="SVGID_19_" gradientUnits="userSpaceOnUse" x1="-705.1118" y1="381.1392" x2="-704.9719" y2="381.1392" gradientTransform="matrix(-0.6428 0.766 0.766 0.6428 -687.3388 316.8536)">
		<stop  offset="0" style="stop-color:#EBC900"/>
		<stop  offset="0.0056" style="stop-color:#EBC900"/>
		<stop  offset="1" style="stop-color:#AC970E"/>
	</linearGradient>
	<path fill="url(#SVGID_19_)" d="M57.628,21.651l0.293,0.234c0.016,0.078-0.016,0.157-0.016,0.157l-0.291-0.234
		C57.614,21.809,57.645,21.721,57.628,21.651L57.628,21.651z"/>
	<polygon fill="#AC970E" points="54.088,34.012 57.614,21.792 57.911,22.028 54.41,34.242 54.396,34.275 	"/>
	
		<linearGradient id="SVGID_20_" gradientUnits="userSpaceOnUse" x1="-1106.2075" y1="126.897" x2="-1105.8905" y2="126.897" gradientTransform="matrix(-0.9976 -0.0698 -0.0698 0.9976 -1040.5776 -169.7223)">
		<stop  offset="0" style="stop-color:#BAA300"/>
		<stop  offset="1" style="stop-color:#EBC900"/>
	</linearGradient>
	<path fill="url(#SVGID_20_)" d="M53.916,34.23c0,0-0.141-0.126-0.114-0.311c0.188-0.052,0.312,0.069,0.312,0.069
		S54.078,34.161,53.916,34.23L53.916,34.23z"/>
	<path fill="#EBC900" d="M57.349,21.749c-7.423,2.529-10.838,1.017-14.041-1.139c0.008-0.028,0.027-0.076,0.006-0.128
		c3.203,2.155,6.744,3.626,14.112,1.13C57.37,21.651,57.362,21.703,57.349,21.749L57.349,21.749z"/>
	<polygon fill="#C8AE00" points="42.749,20.767 43.012,20.577 39.428,33.042 39.148,33.265 39.15,33.234 	"/>
	
		<linearGradient id="SVGID_21_" gradientUnits="userSpaceOnUse" x1="-1186.8018" y1="43.729" x2="-1186.4576" y2="43.729" gradientTransform="matrix(-0.9613 -0.2756 -0.2756 0.9613 -1087.3724 -342.2823)">
		<stop  offset="0" style="stop-color:#C8AE00"/>
		<stop  offset="0.1" style="stop-color:#C8AE00"/>
		<stop  offset="0.2" style="stop-color:#FFDD00"/>
		<stop  offset="0.35" style="stop-color:#FFDD00"/>
		<stop  offset="1" style="stop-color:#C8AE00"/>
	</linearGradient>
	<path fill="url(#SVGID_21_)" d="M39.734,33.102c-0.105-0.061-0.226-0.109-0.326-0.069l3.593-12.451
		c0.056-0.024,0.189-0.061,0.325,0.034L39.734,33.102L39.734,33.102z"/>
	
		<linearGradient id="SVGID_22_" gradientUnits="userSpaceOnUse" x1="-1147.3618" y1="51.9907" x2="-1147.0345" y2="51.9907" gradientTransform="matrix(-0.9613 -0.2756 -0.2756 0.9613 -1032.8314 -338.3126)">
		<stop  offset="0" style="stop-color:#AC970E"/>
		<stop  offset="1" style="stop-color:#FFDD00"/>
	</linearGradient>
	<path fill="url(#SVGID_22_)" d="M53.809,33.943l3.527-12.21l0.021-0.012c0.187-0.02,0.274,0.081,0.274,0.081l-3.518,12.191
		C54.113,33.994,53.967,33.877,53.809,33.943L53.809,33.943z"/>
	<path fill="#AC970E" d="M54.348,34.486c-7.248,3.097-11.897,1.191-15.098-0.964l0.033-0.03c3.203,2.157,8.13,3.952,14.939,0.945
		C54.279,34.483,54.348,34.486,54.348,34.486L54.348,34.486z"/>
	
		<linearGradient id="SVGID_23_" gradientUnits="userSpaceOnUse" x1="-603.3447" y1="361.9829" x2="-602.9564" y2="361.9829" gradientTransform="matrix(-0.4067 0.9135 0.9135 0.4067 -521.7964 437.9468)">
		<stop  offset="0" style="stop-color:#BAA300"/>
		<stop  offset="1" style="stop-color:#C8AE00"/>
	</linearGradient>
	<path fill="url(#SVGID_23_)" d="M54.113,33.991l0.297,0.251c0,0-0.039,0.145-0.202,0.218l-0.302-0.251
		C54.066,34.135,54.113,33.991,54.113,33.991L54.113,33.991z"/>
	
		<linearGradient id="SVGID_24_" gradientUnits="userSpaceOnUse" x1="-243.8418" y1="-382.9683" x2="-229.4668" y2="-382.9683" gradientTransform="matrix(1 0 0 -1 283.4219 -348.501)">
		<stop  offset="0" style="stop-color:#C8AE00"/>
		<stop  offset="0.4" style="stop-color:#FFDD00"/>
		<stop  offset="1" style="stop-color:#C8AE00"/>
	</linearGradient>
	<path fill="url(#SVGID_24_)" d="M53.844,33.915c-0.025,0.186,0.111,0.32,0.111,0.32c-7.391,3.056-11.176,1.224-14.375-0.945
		c0.056-0.039,0.084-0.072,0.12-0.204l0.053-0.002C43.056,35.118,47.284,36.725,53.844,33.915L53.844,33.915z"/>
	<path fill="#BAA300" d="M39.284,33.507l0.296-0.218c2.935,1.832,7.047,3.837,14.344,0.909l0.302,0.253
		C47.444,37.453,42.487,35.661,39.284,33.507L39.284,33.507z"/>
	<path fill="#C8AE00" d="M39.31,33.515l-0.034,0.023c0,0-0.195-0.107-0.125-0.305C39.167,33.429,39.31,33.515,39.31,33.515
		L39.31,33.515z"/>
	
		<linearGradient id="SVGID_25_" gradientUnits="userSpaceOnUse" x1="-1184.4736" y1="-262.0132" x2="-1184.129" y2="-262.0132" gradientTransform="matrix(-0.6691 -0.7431 -0.7431 0.6691 -947.7229 -671.4337)">
		<stop  offset="0" style="stop-color:#C8AE00"/>
		<stop  offset="0.1" style="stop-color:#C8AE00"/>
		<stop  offset="0.7" style="stop-color:#FFDD00"/>
		<stop  offset="1" style="stop-color:#C8AE00"/>
	</linearGradient>
	<path fill="url(#SVGID_25_)" d="M39.15,33.234l0.278-0.226c-0.015,0.201,0.182,0.277,0.182,0.277l-0.306,0.231
		C39.304,33.517,39.134,33.436,39.15,33.234L39.15,33.234z"/>
	
		<linearGradient id="SVGID_26_" gradientUnits="userSpaceOnUse" x1="-233.2051" y1="140.7378" x2="-232.866" y2="140.7378" gradientTransform="matrix(0.4848 0.8746 0.8746 -0.4848 29.4442 305.1417)">
		<stop  offset="0" style="stop-color:#C8AE00"/>
		<stop  offset="0.4" style="stop-color:#EBC900"/>
		<stop  offset="0.8" style="stop-color:#FFDD00"/>
		<stop  offset="1" style="stop-color:#C8AE00"/>
	</linearGradient>
	<path fill="url(#SVGID_26_)" d="M39.408,33.015c0.1-0.04,0.192,0.007,0.297,0.07c-0.037,0.129-0.059,0.173-0.115,0.216
		C39.524,33.261,39.391,33.181,39.408,33.015L39.408,33.015z"/>
	<g>
		<g>
			<defs>
				<path id="SVGID_27_" d="M43.315,20.61c3.2,2.154,6.67,3.648,14.041,1.111l-3.513,12.212c-6.484,2.849-10.859,1.138-14.141-0.845
					L43.315,20.61"/>
			</defs>
			<clipPath id="SVGID_28_">
				<use xlink:href="#SVGID_27_"  overflow="visible"/>
			</clipPath>
			
				<linearGradient id="SVGID_29_" gradientUnits="userSpaceOnUse" x1="-1148.1011" y1="47.2241" x2="-1134.2427" y2="47.2241" gradientTransform="matrix(-0.9613 -0.2756 -0.2756 0.9613 -1035.601 -332.2901)">
				<stop  offset="0" style="stop-color:#EBC900"/>
				<stop  offset="0.1667" style="stop-color:#FFDE00"/>
				<stop  offset="0.3333" style="stop-color:#FFE027"/>
				<stop  offset="0.625" style="stop-color:#EBC900"/>
				<stop  offset="1" style="stop-color:#BAA300"/>
			</linearGradient>
			<path clip-path="url(#SVGID_28_)" fill="url(#SVGID_29_)" d="M43.335,20.534c3.202,2.153,6.76,3.872,14.149,0.817l-3.642,12.58
				c-7.392,3.058-10.941,1.325-14.141-0.843L43.335,20.534L43.335,20.534z"/>
		</g>
	</g>
	<path fill="#EBC900" d="M43.046,20.499l-0.038,0.089l-0.264,0.19c0.018-0.08,0.221-0.227,0.283-0.27L43.046,20.499L43.046,20.499z"
		/>
	
		<linearGradient id="SVGID_30_" gradientUnits="userSpaceOnUse" x1="-1139.0107" y1="162.6226" x2="-1138.6812" y2="162.6226" gradientTransform="matrix(-0.9976 -0.0698 -0.0698 0.9976 -1081.5864 -221.1949)">
		<stop  offset="0" style="stop-color:#FFDE00"/>
		<stop  offset="0.2" style="stop-color:#FFDE00"/>
		<stop  offset="0.525" style="stop-color:#FFDD00"/>
		<stop  offset="1" style="stop-color:#C8AE00"/>
	</linearGradient>
	<path fill="url(#SVGID_30_)" d="M43.315,20.61c-0.147-0.086-0.268-0.033-0.322-0.009c0.009-0.026,0.039-0.097,0.039-0.097
		c0.12-0.074,0.173-0.074,0.284-0.022C43.336,20.537,43.324,20.577,43.315,20.61L43.315,20.61z"/>
	<path fill="#244A99" d="M23.901,31.498c0.025,0.002,0.069-0.019,0.069-0.019c0.051,0.035,0.093,0.061,0.093,0.061
		S23.983,31.558,23.901,31.498L23.901,31.498z"/>
	<path fill="#244A99" d="M37.596,32.143c0,0,0.049,0.047,0.105,0.03l-0.223,0.13c-0.071,0.031-0.143-0.02-0.143-0.02L37.596,32.143
		L37.596,32.143z"/>
	<path fill="#244A99" d="M23.974,31.483c0,0-0.043,0.021-0.067,0.02l-0.243-0.186l-0.006-0.008c0.036,0.012,0.076,0.008,0.092,0.005
		L23.974,31.483L23.974,31.483z"/>
	<path fill="#2A5DA7" d="M37.72,31.962c0.025,0.02,0.052,0.037,0.077,0.088c-0.014,0.068-0.07,0.102-0.101,0.128
		c-0.046,0.009-0.108-0.035-0.108-0.035C37.623,32.117,37.684,32.072,37.72,31.962L37.72,31.962z"/>
	<polygon fill="#2A5DA7" points="27.268,18.578 27.268,18.581 27.195,18.581 27.195,18.578 	"/>
	<polygon fill="#2A5DA7" points="27.197,18.569 27.237,18.58 23.644,31.149 23.602,31.14 	"/>
	<path fill="#2A5DA7" d="M23.664,31.314c-0.047-0.038-0.078-0.109-0.062-0.173l0.044-0.018c-0.018,0.093,0.05,0.161,0.101,0.188
		C23.747,31.312,23.71,31.333,23.664,31.314L23.664,31.314z"/>
	
		<linearGradient id="SVGID_31_" gradientUnits="userSpaceOnUse" x1="-199.187" y1="-392.7954" x2="-185.1016" y2="-392.7954" gradientTransform="matrix(1 0 0 -1 222.8262 -362.0049)">
		<stop  offset="0" style="stop-color:#9AAEDA"/>
		<stop  offset="0.45" style="stop-color:#DEE4F3"/>
		<stop  offset="1" style="stop-color:#7695CC"/>
	</linearGradient>
	<path fill="url(#SVGID_31_)" d="M37.594,32.152c-3.206-2.155-6.53-3.808-13.843-0.835c-0.05-0.027-0.126-0.103-0.109-0.195
		c7.426-3.161,10.875-1.313,14.083,0.846C37.691,32.081,37.629,32.125,37.594,32.152L37.594,32.152z"/>
	<path fill="#244A99" d="M23.959,31.473c7.04-2.752,10.194-1.255,13.398,0.808c-1.92-1.234-3.895-2.223-6.621-2.24
		c-1.823-0.011-3.979,0.453-6.678,1.5C24.06,31.54,24.004,31.516,23.959,31.473L23.959,31.473z"/>
	<path fill="#2A5DA7" d="M37.597,32.15l-0.259,0.137c-3.204-2.063-6.448-3.491-13.364-0.806l-0.229-0.169
		C31.059,28.342,34.391,29.995,37.597,32.15L37.597,32.15z"/>
	<path fill="#244A99" d="M37.718,31.97l3.698-12.655c0.039,0.027,0.06,0.05,0.081,0.072l-3.701,12.672
		C37.775,32.003,37.718,31.97,37.718,31.97L37.718,31.97z"/>
	<path fill="#7695CC" d="M41.415,19.319c-3.203-2.17-6.817-3.742-14.186-0.734c0.02-0.062,0.034-0.093,0.034-0.093
		c7.4-3.06,10.974-1.437,14.178,0.735L41.415,19.319L41.415,19.319z"/>
	<g>
		<g>
			<defs>
				<path id="SVGID_32_" d="M37.722,31.972c-3.205-2.155-6.683-3.907-14.079-0.849l3.589-12.546
					c7.4-3.062,10.986-1.433,14.189,0.738L37.722,31.972"/>
			</defs>
			<clipPath id="SVGID_33_">
				<use xlink:href="#SVGID_32_"  overflow="visible"/>
			</clipPath>
			
				<linearGradient id="SVGID_34_" gradientUnits="userSpaceOnUse" x1="-1192.9556" y1="42.27" x2="-1179.1118" y2="42.27" gradientTransform="matrix(-0.9613 -0.2756 -0.2756 0.9613 -1095.9252 -342.7247)">
				<stop  offset="0" style="stop-color:#2A5DA7"/>
				<stop  offset="0.4" style="stop-color:#9AAEDA"/>
				<stop  offset="0.725" style="stop-color:#C3CEEA"/>
				<stop  offset="1" style="stop-color:#7695CC"/>
			</linearGradient>
			<path clip-path="url(#SVGID_33_)" fill="url(#SVGID_34_)" d="M37.725,32c-3.208-2.156-6.693-3.934-14.091-0.872l3.623-12.656
				c7.401-3.06,10.956-1.328,14.16,0.844L37.725,32L37.725,32z"/>
		</g>
	</g>
	<path fill="#244A99" d="M41.439,19.227l0.007,0.003c0.045,0.032,0.063,0.097,0.051,0.155l-0.002,0.008
		c-0.021-0.023-0.042-0.045-0.081-0.072L41.439,19.227L41.439,19.227z"/>
	
		<linearGradient id="SVGID_35_" gradientUnits="userSpaceOnUse" x1="-373.2373" y1="362.9868" x2="-373.1468" y2="362.9868" gradientTransform="matrix(0 1 1 0 -335.7559 391.728)">
		<stop  offset="0" style="stop-color:#9AAEDA"/>
		<stop  offset="1" style="stop-color:#2A5DA7"/>
	</linearGradient>
	<path fill="url(#SVGID_35_)" d="M27.236,18.581l-0.041-0.012c0.016-0.054,0.053-0.07,0.068-0.077l0.005-0.001
		C27.268,18.491,27.255,18.518,27.236,18.581L27.236,18.581z"/>
	<path fill="#244A99" d="M23.901,31.498c0.025,0.002,0.069-0.019,0.069-0.019c0.051,0.035,0.093,0.061,0.093,0.061
		S23.983,31.558,23.901,31.498L23.901,31.498z"/>
	<path fill="#244A99" d="M37.596,32.143c0,0,0.049,0.047,0.105,0.03l-0.223,0.13c-0.071,0.031-0.143-0.02-0.143-0.02L37.596,32.143
		L37.596,32.143z"/>
	<path fill="#244A99" d="M23.974,31.483c0,0-0.043,0.021-0.067,0.02l-0.243-0.186l-0.006-0.008c0.036,0.012,0.076,0.008,0.092,0.005
		L23.974,31.483L23.974,31.483z"/>
	<path fill="#2A5DA7" d="M37.72,31.962c0.025,0.02,0.052,0.037,0.077,0.088c-0.014,0.068-0.07,0.102-0.101,0.128
		c-0.046,0.009-0.108-0.035-0.108-0.035C37.623,32.117,37.684,32.072,37.72,31.962L37.72,31.962z"/>
	<polygon fill="#2A5DA7" points="27.268,18.578 27.268,18.581 27.195,18.581 27.195,18.578 	"/>
	<polygon fill="#2A5DA7" points="27.197,18.569 27.237,18.58 23.644,31.149 23.602,31.14 	"/>
	<path fill="#2A5DA7" d="M23.664,31.314c-0.047-0.038-0.078-0.109-0.062-0.173l0.044-0.018c-0.018,0.093,0.05,0.161,0.101,0.188
		C23.747,31.312,23.71,31.333,23.664,31.314L23.664,31.314z"/>
	
		<linearGradient id="SVGID_36_" gradientUnits="userSpaceOnUse" x1="-199.187" y1="-392.7954" x2="-185.1016" y2="-392.7954" gradientTransform="matrix(1 0 0 -1 222.8262 -362.0049)">
		<stop  offset="0" style="stop-color:#9AAEDA"/>
		<stop  offset="0.45" style="stop-color:#DEE4F3"/>
		<stop  offset="1" style="stop-color:#7695CC"/>
	</linearGradient>
	<path fill="url(#SVGID_36_)" d="M37.594,32.152c-3.206-2.155-6.53-3.808-13.843-0.835c-0.05-0.027-0.126-0.103-0.109-0.195
		c7.426-3.161,10.875-1.313,14.083,0.846C37.691,32.081,37.629,32.125,37.594,32.152L37.594,32.152z"/>
	<path fill="#244A99" d="M23.959,31.473c7.04-2.752,10.194-1.255,13.398,0.808c-1.92-1.234-3.895-2.223-6.621-2.24
		c-1.823-0.011-3.979,0.453-6.678,1.5C24.06,31.54,24.004,31.516,23.959,31.473L23.959,31.473z"/>
	<path fill="#2A5DA7" d="M37.597,32.15l-0.259,0.137c-3.204-2.063-6.448-3.491-13.364-0.806l-0.229-0.169
		C31.059,28.342,34.391,29.995,37.597,32.15L37.597,32.15z"/>
	<path fill="#244A99" d="M37.718,31.97l3.698-12.655c0.039,0.027,0.06,0.05,0.081,0.072l-3.701,12.672
		C37.775,32.003,37.718,31.97,37.718,31.97L37.718,31.97z"/>
	<path fill="#7695CC" d="M41.415,19.319c-3.203-2.17-6.817-3.742-14.186-0.734c0.02-0.062,0.034-0.093,0.034-0.093
		c7.4-3.06,10.974-1.437,14.178,0.735L41.415,19.319L41.415,19.319z"/>
	<g>
		<g>
			<defs>
				<path id="SVGID_37_" d="M37.722,31.972c-3.205-2.155-6.683-3.907-14.079-0.849l3.589-12.546
					c7.4-3.062,10.986-1.433,14.189,0.738L37.722,31.972"/>
			</defs>
			<clipPath id="SVGID_38_">
				<use xlink:href="#SVGID_37_"  overflow="visible"/>
			</clipPath>
			
				<linearGradient id="SVGID_39_" gradientUnits="userSpaceOnUse" x1="-1192.9556" y1="42.27" x2="-1179.1118" y2="42.27" gradientTransform="matrix(-0.9613 -0.2756 -0.2756 0.9613 -1095.9252 -342.7247)">
				<stop  offset="0" style="stop-color:#2A5DA7"/>
				<stop  offset="0.4" style="stop-color:#9AAEDA"/>
				<stop  offset="0.725" style="stop-color:#C3CEEA"/>
				<stop  offset="1" style="stop-color:#7695CC"/>
			</linearGradient>
			<path clip-path="url(#SVGID_38_)" fill="url(#SVGID_39_)" d="M37.725,32c-3.208-2.156-6.693-3.934-14.091-0.872l3.623-12.656
				c7.401-3.06,10.956-1.328,14.16,0.844L37.725,32L37.725,32z"/>
		</g>
	</g>
	<path fill="#244A99" d="M41.439,19.227l0.007,0.003c0.045,0.032,0.063,0.097,0.051,0.155l-0.002,0.008
		c-0.021-0.023-0.042-0.045-0.081-0.072L41.439,19.227L41.439,19.227z"/>
	
		<linearGradient id="SVGID_40_" gradientUnits="userSpaceOnUse" x1="-373.2373" y1="362.9868" x2="-373.1468" y2="362.9868" gradientTransform="matrix(0 1 1 0 -335.7559 391.728)">
		<stop  offset="0" style="stop-color:#9AAEDA"/>
		<stop  offset="1" style="stop-color:#2A5DA7"/>
	</linearGradient>
	<path fill="url(#SVGID_40_)" d="M27.236,18.581l-0.041-0.012c0.016-0.054,0.053-0.07,0.068-0.077l0.005-0.001
		C27.268,18.491,27.255,18.518,27.236,18.581L27.236,18.581z"/>
	<path fill="#AEC417" d="M61.721,6.609C54.34,9.662,50.789,7.951,47.59,5.798c0.008-0.028,0.021-0.083,0-0.136
		c3.199,2.153,6.82,3.886,14.201,0.833C61.742,6.542,61.742,6.565,61.721,6.609L61.721,6.609z"/>
	<polygon fill="#A0AC10" points="47.027,5.949 47.291,5.761 43.685,18.286 43.408,18.504 43.408,18.477 	"/>
	
		<linearGradient id="SVGID_41_" gradientUnits="userSpaceOnUse" x1="-1186.7178" y1="86.7681" x2="-1186.3687" y2="86.7681" gradientTransform="matrix(-0.9613 -0.2756 -0.2756 0.9613 -1071.1654 -398.3878)">
		<stop  offset="0" style="stop-color:#A0AC10"/>
		<stop  offset="0.1" style="stop-color:#A0AC10"/>
		<stop  offset="0.25" style="stop-color:#C3D236"/>
		<stop  offset="0.4045" style="stop-color:#C3D236"/>
		<stop  offset="1" style="stop-color:#A0AC10"/>
	</linearGradient>
	<path fill="url(#SVGID_41_)" d="M43.957,18.425c-0.111-0.063-0.194-0.188-0.294-0.149l3.615-12.508
		c0.055-0.025,0.195-0.072,0.326,0.031L43.957,18.425L43.957,18.425z"/>
	<path fill="#A0AC10" d="M47.325,5.681L47.287,5.77l-0.263,0.19c0.023-0.085,0.223-0.229,0.286-0.271L47.325,5.681L47.325,5.681z"/>
	
		<linearGradient id="SVGID_42_" gradientUnits="userSpaceOnUse" x1="-1129.9531" y1="204.8979" x2="-1129.6274" y2="204.8979" gradientTransform="matrix(-0.9976 -0.0698 -0.0698 0.9976 -1065.3218 -277.5602)">
		<stop  offset="0" style="stop-color:#AEC417"/>
		<stop  offset="0.2" style="stop-color:#C3D236"/>
		<stop  offset="0.525" style="stop-color:#C3D236"/>
		<stop  offset="1" style="stop-color:#A0AC10"/>
	</linearGradient>
	<path fill="url(#SVGID_42_)" d="M47.592,5.79c-0.137-0.083-0.261-0.044-0.316-0.019c0.01-0.027,0.034-0.082,0.034-0.082
		c0.12-0.076,0.171-0.079,0.282-0.026C47.605,5.705,47.611,5.745,47.592,5.79L47.592,5.79z"/>
	
		<linearGradient id="SVGID_43_" gradientUnits="userSpaceOnUse" x1="-193.1167" y1="33.4058" x2="-192.8354" y2="33.4058" gradientTransform="matrix(0.515 0.8572 0.8572 -0.515 132.5964 189.1892)">
		<stop  offset="0" style="stop-color:#AEC417"/>
		<stop  offset="1" style="stop-color:#7D8019"/>
	</linearGradient>
	<path fill="url(#SVGID_43_)" d="M61.995,6.702c0,0-0.081-0.114-0.279-0.077c0.018-0.048,0.018-0.09,0.075-0.128
		c0.121-0.018,0.176,0.013,0.202,0.038l0.019,0.025C62.028,6.629,61.995,6.702,61.995,6.702L61.995,6.702z"/>
	
		<linearGradient id="SVGID_44_" gradientUnits="userSpaceOnUse" x1="-664.8027" y1="399.0034" x2="-664.6602" y2="399.0034" gradientTransform="matrix(-0.6428 0.766 0.766 0.6428 -670.747 259.3771)">
		<stop  offset="0" style="stop-color:#A0AC10"/>
		<stop  offset="1" style="stop-color:#7D8019"/>
	</linearGradient>
	<path fill="url(#SVGID_44_)" d="M61.993,6.536l0.293,0.234c0.019,0.078-0.021,0.158-0.021,0.158l-0.292-0.235
		C61.973,6.692,62.008,6.604,61.993,6.536L61.993,6.536z"/>
	<polygon fill="#7D8019" points="58.329,19.252 61.979,6.675 62.276,6.912 58.608,19.497 	"/>
	<path fill="#8A9217" d="M58.678,19.588c0.009-0.072-0.067-0.131-0.067-0.131l3.661-12.556c0,0,0.061,0.053,0.076,0.089
		L58.678,19.588L58.678,19.588z"/>
	
		<linearGradient id="SVGID_45_" gradientUnits="userSpaceOnUse" x1="-340.3838" y1="264.7114" x2="-340.1533" y2="264.7114" gradientTransform="matrix(0 1 1 0 -202.3999 347.1489)">
		<stop  offset="0" style="stop-color:#A0AC10"/>
		<stop  offset="1" style="stop-color:#8A9217"/>
	</linearGradient>
	<path fill="url(#SVGID_45_)" d="M62.346,6.995c0,0-0.014-0.037-0.074-0.089c0.028-0.119,0.01-0.142,0.01-0.142l0.005,0.004
		C62.286,6.769,62.379,6.853,62.346,6.995L62.346,6.995z"/>
	<path fill="#7D8019" d="M58.555,19.706c-1.972,0.896-3.838,1.359-5.572,1.51c-2.995,0.34-5.415-0.312-7.393-1.283
		c-0.769-0.355-1.466-0.754-2.082-1.168l0.033-0.029c0.625,0.422,1.305,0.833,2.048,1.197c2.009,0.924,4.519,1.533,7.393,1.284
		c1.638-0.186,3.447-0.667,5.449-1.558C58.487,19.704,58.555,19.706,58.555,19.706L58.555,19.706z"/>
	
		<linearGradient id="SVGID_46_" gradientUnits="userSpaceOnUse" x1="-1097.2422" y1="168.978" x2="-1096.9243" y2="168.978" gradientTransform="matrix(-0.9976 -0.0698 -0.0698 0.9976 -1024.4556 -225.8356)">
		<stop  offset="0" style="stop-color:#8A9217"/>
		<stop  offset="1" style="stop-color:#A0AC10"/>
	</linearGradient>
	<path fill="url(#SVGID_46_)" d="M58.157,19.471c0,0-0.142-0.127-0.117-0.312c0.19-0.049,0.312,0.072,0.312,0.072
		S58.317,19.401,58.157,19.471L58.157,19.471z"/>
	
		<linearGradient id="SVGID_47_" gradientUnits="userSpaceOnUse" x1="-716.0312" y1="383.1528" x2="-715.7271" y2="383.1528" gradientTransform="matrix(-0.6691 0.7431 0.7431 0.6691 -705.2797 295.0181)">
		<stop  offset="0" style="stop-color:#8A9217"/>
		<stop  offset="1" style="stop-color:#7D8019"/>
	</linearGradient>
	<path fill="url(#SVGID_47_)" d="M58.353,19.231l0.265,0.232c0,0-0.039,0.145-0.199,0.215l-0.273-0.23
		C58.309,19.377,58.353,19.231,58.353,19.231L58.353,19.231z"/>
	
		<linearGradient id="SVGID_48_" gradientUnits="userSpaceOnUse" x1="-255.7041" y1="-424.1987" x2="-241.3208" y2="-424.1987" gradientTransform="matrix(1 0 0 -1 299.5181 -404.4492)">
		<stop  offset="0" style="stop-color:#A0AC10"/>
		<stop  offset="0.4" style="stop-color:#C3D236"/>
		<stop  offset="1" style="stop-color:#A0AC10"/>
	</linearGradient>
	<path fill="url(#SVGID_48_)" d="M58.086,19.157c-0.026,0.186,0.111,0.32,0.111,0.32c-7.384,3.053-11.188,1.257-14.383-0.908
		c0.057-0.043,0.066-0.043,0.103-0.172C47.109,20.563,51.941,22.079,58.086,19.157L58.086,19.157z"/>
	<path fill="#8A9217" d="M43.541,18.749l0.274-0.183c3.197,2.059,6.974,3.838,14.349,0.874l0.268,0.23
		C51.351,22.795,46.821,21.056,43.541,18.749L43.541,18.749z"/>
	<path fill="#8A9217" d="M58.678,19.588c-0.036,0.066-0.1,0.105-0.123,0.117l-0.007,0.002c0,0-0.05,0.006-0.117-0.037
		c0.143-0.078,0.185-0.236,0.185-0.236S58.699,19.504,58.678,19.588L58.678,19.588z"/>
	<path fill="#8A9217" d="M43.552,18.745l-0.034,0.027c0,0-0.179-0.098-0.11-0.295C43.423,18.671,43.552,18.745,43.552,18.745
		L43.552,18.745z"/>
	
		<linearGradient id="SVGID_49_" gradientUnits="userSpaceOnUse" x1="-1207.2437" y1="-225.5059" x2="-1206.9015" y2="-225.5059" gradientTransform="matrix(-0.6691 -0.7431 -0.7431 0.6691 -931.5823 -727.5327)">
		<stop  offset="0" style="stop-color:#8A9217"/>
		<stop  offset="0.1" style="stop-color:#8A9217"/>
		<stop  offset="0.65" style="stop-color:#AEC417"/>
		<stop  offset="1" style="stop-color:#A0AC10"/>
	</linearGradient>
	<path fill="url(#SVGID_49_)" d="M43.408,18.477l0.266-0.21c-0.016,0.202,0.159,0.286,0.159,0.286l-0.27,0.206
		C43.562,18.76,43.392,18.678,43.408,18.477L43.408,18.477z"/>
	
		<linearGradient id="SVGID_50_" gradientUnits="userSpaceOnUse" x1="-202.8457" y1="110.3521" x2="-202.5051" y2="110.3521" gradientTransform="matrix(0.4848 0.8746 0.8746 -0.4848 45.536 249.1281)">
		<stop  offset="0" style="stop-color:#A0AC10"/>
		<stop  offset="0.4045" style="stop-color:#AEC417"/>
		<stop  offset="0.8" style="stop-color:#A0AC10"/>
		<stop  offset="1" style="stop-color:#A0AC10"/>
	</linearGradient>
	<path fill="url(#SVGID_50_)" d="M43.666,18.267c0.092-0.027,0.174,0.066,0.285,0.152c-0.037,0.131-0.068,0.108-0.124,0.149
		C43.76,18.532,43.65,18.432,43.666,18.267L43.666,18.267z"/>
	
		<linearGradient id="SVGID_51_" gradientUnits="userSpaceOnUse" x1="-1147.2681" y1="95.5376" x2="-1146.9193" y2="95.5376" gradientTransform="matrix(-0.9613 -0.2756 -0.2756 0.9613 -1016.4252 -395.0826)">
		<stop  offset="0" style="stop-color:#7D8019"/>
		<stop  offset="1" style="stop-color:#AEC417"/>
	</linearGradient>
	<path fill="url(#SVGID_51_)" d="M58.05,19.184l3.655-12.57c0.197-0.037,0.293,0.075,0.293,0.075l-3.646,12.542
		C58.353,19.231,58.206,19.12,58.05,19.184L58.05,19.184z"/>
	
		<linearGradient id="SVGID_52_" gradientUnits="userSpaceOnUse" x1="-1148.0747" y1="90.1431" x2="-1134.2485" y2="90.1431" gradientTransform="matrix(-0.9613 -0.2756 -0.2756 0.9613 -1019.5189 -388.2603)">
		<stop  offset="0" style="stop-color:#A4BB11"/>
		<stop  offset="0.1667" style="stop-color:#C3D236"/>
		<stop  offset="0.3333" style="stop-color:#D0DB64"/>
		<stop  offset="0.6666" style="stop-color:#AEC417"/>
		<stop  offset="1" style="stop-color:#8A9217"/>
	</linearGradient>
	<path fill="url(#SVGID_52_)" d="M61.721,6.605C54.34,9.658,50.79,7.941,47.591,5.789L43.95,18.42
		c3.195,2.166,7.054,3.947,14.138,0.773L61.721,6.605L61.721,6.605z"/>
	<path fill="#AEC417" d="M61.721,6.609C54.34,9.662,50.789,7.951,47.59,5.798c0.008-0.028,0.021-0.083,0-0.136
		c3.199,2.153,6.82,3.886,14.201,0.833C61.742,6.542,61.742,6.565,61.721,6.609L61.721,6.609z"/>
	<polygon fill="#A0AC10" points="47.027,5.949 47.291,5.761 43.685,18.286 43.408,18.504 43.408,18.477 	"/>
	
		<linearGradient id="SVGID_53_" gradientUnits="userSpaceOnUse" x1="-1186.7178" y1="86.7681" x2="-1186.3687" y2="86.7681" gradientTransform="matrix(-0.9613 -0.2756 -0.2756 0.9613 -1071.1654 -398.3878)">
		<stop  offset="0" style="stop-color:#A0AC10"/>
		<stop  offset="0.1" style="stop-color:#A0AC10"/>
		<stop  offset="0.25" style="stop-color:#C3D236"/>
		<stop  offset="0.4045" style="stop-color:#C3D236"/>
		<stop  offset="1" style="stop-color:#A0AC10"/>
	</linearGradient>
	<path fill="url(#SVGID_53_)" d="M43.957,18.425c-0.111-0.063-0.194-0.188-0.294-0.149l3.615-12.508
		c0.055-0.025,0.195-0.072,0.326,0.031L43.957,18.425L43.957,18.425z"/>
	<path fill="#A0AC10" d="M47.325,5.681L47.287,5.77l-0.263,0.19c0.023-0.085,0.223-0.229,0.286-0.271L47.325,5.681L47.325,5.681z"/>
	
		<linearGradient id="SVGID_54_" gradientUnits="userSpaceOnUse" x1="-1129.9531" y1="204.8979" x2="-1129.6274" y2="204.8979" gradientTransform="matrix(-0.9976 -0.0698 -0.0698 0.9976 -1065.3218 -277.5602)">
		<stop  offset="0" style="stop-color:#AEC417"/>
		<stop  offset="0.2" style="stop-color:#C3D236"/>
		<stop  offset="0.525" style="stop-color:#C3D236"/>
		<stop  offset="1" style="stop-color:#A0AC10"/>
	</linearGradient>
	<path fill="url(#SVGID_54_)" d="M47.592,5.79c-0.137-0.083-0.261-0.044-0.316-0.019c0.01-0.027,0.034-0.082,0.034-0.082
		c0.12-0.076,0.171-0.079,0.282-0.026C47.605,5.705,47.611,5.745,47.592,5.79L47.592,5.79z"/>
	
		<linearGradient id="SVGID_55_" gradientUnits="userSpaceOnUse" x1="-193.1167" y1="33.4058" x2="-192.8354" y2="33.4058" gradientTransform="matrix(0.515 0.8572 0.8572 -0.515 132.5964 189.1892)">
		<stop  offset="0" style="stop-color:#AEC417"/>
		<stop  offset="1" style="stop-color:#7D8019"/>
	</linearGradient>
	<path fill="url(#SVGID_55_)" d="M61.995,6.702c0,0-0.081-0.114-0.279-0.077c0.018-0.048,0.018-0.09,0.075-0.128
		c0.121-0.018,0.176,0.013,0.202,0.038l0.019,0.025C62.028,6.629,61.995,6.702,61.995,6.702L61.995,6.702z"/>
	
		<linearGradient id="SVGID_56_" gradientUnits="userSpaceOnUse" x1="-664.8027" y1="399.0034" x2="-664.6602" y2="399.0034" gradientTransform="matrix(-0.6428 0.766 0.766 0.6428 -670.747 259.3771)">
		<stop  offset="0" style="stop-color:#A0AC10"/>
		<stop  offset="1" style="stop-color:#7D8019"/>
	</linearGradient>
	<path fill="url(#SVGID_56_)" d="M61.993,6.536l0.293,0.234c0.019,0.078-0.021,0.158-0.021,0.158l-0.292-0.235
		C61.973,6.692,62.008,6.604,61.993,6.536L61.993,6.536z"/>
	<polygon fill="#7D8019" points="58.329,19.252 61.979,6.675 62.276,6.912 58.608,19.497 	"/>
	<path fill="#8A9217" d="M58.678,19.588c0.009-0.072-0.067-0.131-0.067-0.131l3.661-12.556c0,0,0.061,0.053,0.076,0.089
		L58.678,19.588L58.678,19.588z"/>
	
		<linearGradient id="SVGID_57_" gradientUnits="userSpaceOnUse" x1="-340.3838" y1="264.7114" x2="-340.1533" y2="264.7114" gradientTransform="matrix(0 1 1 0 -202.3999 347.1489)">
		<stop  offset="0" style="stop-color:#A0AC10"/>
		<stop  offset="1" style="stop-color:#8A9217"/>
	</linearGradient>
	<path fill="url(#SVGID_57_)" d="M62.346,6.995c0,0-0.014-0.037-0.074-0.089c0.028-0.119,0.01-0.142,0.01-0.142l0.005,0.004
		C62.286,6.769,62.379,6.853,62.346,6.995L62.346,6.995z"/>
	<path fill="#7D8019" d="M58.555,19.706c-1.972,0.896-3.838,1.359-5.572,1.51c-2.995,0.34-5.415-0.312-7.393-1.283
		c-0.769-0.355-1.466-0.754-2.082-1.168l0.033-0.029c0.625,0.422,1.305,0.833,2.048,1.197c2.009,0.924,4.519,1.533,7.393,1.284
		c1.638-0.186,3.447-0.667,5.449-1.558C58.487,19.704,58.555,19.706,58.555,19.706L58.555,19.706z"/>
	
		<linearGradient id="SVGID_58_" gradientUnits="userSpaceOnUse" x1="-1097.2422" y1="168.978" x2="-1096.9243" y2="168.978" gradientTransform="matrix(-0.9976 -0.0698 -0.0698 0.9976 -1024.4556 -225.8356)">
		<stop  offset="0" style="stop-color:#8A9217"/>
		<stop  offset="1" style="stop-color:#A0AC10"/>
	</linearGradient>
	<path fill="url(#SVGID_58_)" d="M58.157,19.471c0,0-0.142-0.127-0.117-0.312c0.19-0.049,0.312,0.072,0.312,0.072
		S58.317,19.401,58.157,19.471L58.157,19.471z"/>
	
		<linearGradient id="SVGID_59_" gradientUnits="userSpaceOnUse" x1="-716.0312" y1="383.1528" x2="-715.7271" y2="383.1528" gradientTransform="matrix(-0.6691 0.7431 0.7431 0.6691 -705.2797 295.0181)">
		<stop  offset="0" style="stop-color:#8A9217"/>
		<stop  offset="1" style="stop-color:#7D8019"/>
	</linearGradient>
	<path fill="url(#SVGID_59_)" d="M58.353,19.231l0.265,0.232c0,0-0.039,0.145-0.199,0.215l-0.273-0.23
		C58.309,19.377,58.353,19.231,58.353,19.231L58.353,19.231z"/>
	
		<linearGradient id="SVGID_60_" gradientUnits="userSpaceOnUse" x1="-255.7041" y1="-424.1987" x2="-241.3208" y2="-424.1987" gradientTransform="matrix(1 0 0 -1 299.5181 -404.4492)">
		<stop  offset="0" style="stop-color:#A0AC10"/>
		<stop  offset="0.4" style="stop-color:#C3D236"/>
		<stop  offset="1" style="stop-color:#A0AC10"/>
	</linearGradient>
	<path fill="url(#SVGID_60_)" d="M58.086,19.157c-0.026,0.186,0.111,0.32,0.111,0.32c-7.384,3.053-11.188,1.257-14.383-0.908
		c0.057-0.043,0.066-0.043,0.103-0.172C47.109,20.563,51.941,22.079,58.086,19.157L58.086,19.157z"/>
	<path fill="#8A9217" d="M43.541,18.749l0.274-0.183c3.197,2.059,6.974,3.838,14.349,0.874l0.268,0.23
		C51.351,22.795,46.821,21.056,43.541,18.749L43.541,18.749z"/>
	<path fill="#8A9217" d="M58.678,19.588c-0.036,0.066-0.1,0.105-0.123,0.117l-0.007,0.002c0,0-0.05,0.006-0.117-0.037
		c0.143-0.078,0.185-0.236,0.185-0.236S58.699,19.504,58.678,19.588L58.678,19.588z"/>
	<path fill="#8A9217" d="M43.552,18.745l-0.034,0.027c0,0-0.179-0.098-0.11-0.295C43.423,18.671,43.552,18.745,43.552,18.745
		L43.552,18.745z"/>
	
		<linearGradient id="SVGID_61_" gradientUnits="userSpaceOnUse" x1="-1207.2437" y1="-225.5059" x2="-1206.9015" y2="-225.5059" gradientTransform="matrix(-0.6691 -0.7431 -0.7431 0.6691 -931.5823 -727.5327)">
		<stop  offset="0" style="stop-color:#8A9217"/>
		<stop  offset="0.1" style="stop-color:#8A9217"/>
		<stop  offset="0.65" style="stop-color:#AEC417"/>
		<stop  offset="1" style="stop-color:#A0AC10"/>
	</linearGradient>
	<path fill="url(#SVGID_61_)" d="M43.408,18.477l0.266-0.21c-0.016,0.202,0.159,0.286,0.159,0.286l-0.27,0.206
		C43.562,18.76,43.392,18.678,43.408,18.477L43.408,18.477z"/>
	
		<linearGradient id="SVGID_62_" gradientUnits="userSpaceOnUse" x1="-202.8457" y1="110.3521" x2="-202.5051" y2="110.3521" gradientTransform="matrix(0.4848 0.8746 0.8746 -0.4848 45.536 249.1281)">
		<stop  offset="0" style="stop-color:#A0AC10"/>
		<stop  offset="0.4045" style="stop-color:#AEC417"/>
		<stop  offset="0.8" style="stop-color:#A0AC10"/>
		<stop  offset="1" style="stop-color:#A0AC10"/>
	</linearGradient>
	<path fill="url(#SVGID_62_)" d="M43.666,18.267c0.092-0.027,0.174,0.066,0.285,0.152c-0.037,0.131-0.068,0.108-0.124,0.149
		C43.76,18.532,43.65,18.432,43.666,18.267L43.666,18.267z"/>
	
		<linearGradient id="SVGID_63_" gradientUnits="userSpaceOnUse" x1="-1147.2681" y1="95.5376" x2="-1146.9193" y2="95.5376" gradientTransform="matrix(-0.9613 -0.2756 -0.2756 0.9613 -1016.4252 -395.0826)">
		<stop  offset="0" style="stop-color:#7D8019"/>
		<stop  offset="1" style="stop-color:#AEC417"/>
	</linearGradient>
	<path fill="url(#SVGID_63_)" d="M58.05,19.184l3.655-12.57c0.197-0.037,0.293,0.075,0.293,0.075l-3.646,12.542
		C58.353,19.231,58.206,19.12,58.05,19.184L58.05,19.184z"/>
	
		<linearGradient id="SVGID_64_" gradientUnits="userSpaceOnUse" x1="-1148.0747" y1="90.1431" x2="-1134.2485" y2="90.1431" gradientTransform="matrix(-0.9613 -0.2756 -0.2756 0.9613 -1019.5189 -388.2603)">
		<stop  offset="0" style="stop-color:#A4BB11"/>
		<stop  offset="0.1667" style="stop-color:#C3D236"/>
		<stop  offset="0.3333" style="stop-color:#D0DB64"/>
		<stop  offset="0.6666" style="stop-color:#AEC417"/>
		<stop  offset="1" style="stop-color:#8A9217"/>
	</linearGradient>
	<path fill="url(#SVGID_64_)" d="M61.721,6.605C54.34,9.658,50.79,7.941,47.591,5.789L43.95,18.42
		c3.195,2.166,7.054,3.947,14.138,0.773L61.721,6.605L61.721,6.605z"/>
	<path fill="#CD660D" d="M41.904,17.211c-3.444-2.391-7.667-3.892-13.938-0.776l0.255,0.183c6.852-2.801,10.427-1.286,13.433,0.693
		L41.904,17.211L41.904,17.211z"/>
	<path fill="#AD650E" d="M42.025,17.025l3.639-12.566c0.041,0.027,0.06,0.052,0.08,0.076l-3.641,12.578
		C42.083,17.061,42.025,17.025,42.025,17.025L42.025,17.025z"/>
	<path fill="#AD650E" d="M28.225,16.613c1.166-0.479,2.246-0.833,3.248-1.077c0.243-0.059,0.458-0.111,0.716-0.161
		c0.236-0.047,0.47-0.094,0.696-0.127c0.358-0.055,0.704-0.099,1.042-0.125c0.289-0.022,0.569-0.04,0.844-0.041
		c0.266-0.002,0.525,0,0.78,0.014c0.226,0.014,0.447,0.029,0.665,0.055c0.184,0.021,0.363,0.043,0.542,0.074
		c0.375,0.064,0.739,0.144,1.09,0.245c1.416,0.4,2.675,1.082,3.832,1.854l-0.048-0.014l-0.026-0.012
		c-1.564-0.992-3.244-1.855-5.319-2.109c-2.122-0.261-4.595,0.104-7.926,1.427c0,0-0.077,0.032-0.107,0.038
		C28.225,16.657,28.23,16.637,28.225,16.613L28.225,16.613z"/>
	<path fill="#AD650E" d="M41.899,17.209c0,0,0.049,0.034,0.104,0.021l-0.229,0.102c-0.062,0.017-0.135-0.021-0.135-0.021
		L41.899,17.209L41.899,17.209z"/>
	<path fill="#AD650E" d="M28.228,16.615l0.024,0.039c-0.023,0.001-0.025,0.009-0.081-0.017l-0.027-0.017l-0.239-0.187l-0.021-0.018
		c0.032-0.001,0.057,0.013,0.074,0.01L28.228,16.615L28.228,16.615z"/>
	<path fill="#CD660D" d="M42.027,17.026c0.025,0.018,0.057,0.027,0.078,0.08c-0.014,0.068-0.071,0.102-0.103,0.126
		c-0.057,0.015-0.111-0.028-0.111-0.028C41.925,17.174,41.992,17.134,42.027,17.026L42.027,17.026z"/>
	<path fill="#CD6311" d="M45.689,4.376l0.003,0.003c0.046,0.032,0.064,0.096,0.051,0.155l-0.002,0.008
		c-0.021-0.024-0.034-0.048-0.075-0.077L45.689,4.376L45.689,4.376z"/>
	<path fill="#CD660D" d="M27.889,16.423c-0.034-0.026-0.069-0.133-0.051-0.197l0.049-0.017c-0.018,0.094,0.041,0.199,0.09,0.229
		C27.976,16.438,27.939,16.458,27.889,16.423L27.889,16.423z"/>
	
		<linearGradient id="SVGID_65_" gradientUnits="userSpaceOnUse" x1="-331.3359" y1="350.9722" x2="-331.245" y2="350.9722" gradientTransform="matrix(0 1 1 0 -319.4512 334.8726)">
		<stop  offset="0" style="stop-color:#F7AE3E"/>
		<stop  offset="1" style="stop-color:#CD660D"/>
	</linearGradient>
	<path fill="url(#SVGID_65_)" d="M31.525,3.627l-0.04-0.01c0.015-0.054,0.052-0.074,0.066-0.077l0.006-0.002
		C31.558,3.538,31.544,3.565,31.525,3.627L31.525,3.627z"/>
	
		<linearGradient id="SVGID_66_" gradientUnits="userSpaceOnUse" x1="-211.0522" y1="-434.9263" x2="-196.8965" y2="-434.9263" gradientTransform="matrix(1 0 0 -1 238.9253 -419.0889)">
		<stop  offset="0" style="stop-color:#F7AE3E"/>
		<stop  offset="0.25" style="stop-color:#F7AE3E"/>
		<stop  offset="0.475" style="stop-color:#F7DCBD"/>
		<stop  offset="0.525" style="stop-color:#F7DCBD"/>
		<stop  offset="0.75" style="stop-color:#F29120"/>
		<stop  offset="1" style="stop-color:#F29120"/>
	</linearGradient>
	<path fill="url(#SVGID_66_)" d="M41.898,17.21c-1.972-1.288-3.818-2.356-6.741-2.441c-2.137,0.043-3.777,0.314-7.185,1.668
		c-0.05-0.029-0.114-0.1-0.096-0.193c2.951-1.257,5.293-1.8,7.238-1.78c2.945,0.028,4.985,1.261,6.915,2.56
		C41.997,17.138,41.934,17.181,41.898,17.21L41.898,17.21z"/>
	<polygon fill="#CD660D" points="31.485,3.615 31.519,3.624 27.884,16.241 27.837,16.226 	"/>
	<path fill="#F29120" d="M45.667,4.474c-3.2-2.17-6.788-3.844-14.151-0.839c0.019-0.062,0.036-0.096,0.036-0.096
		c7.396-3.059,10.941-1.329,14.143,0.841L45.667,4.474L45.667,4.474z"/>
	
		<linearGradient id="SVGID_67_" gradientUnits="userSpaceOnUse" x1="-1192.9644" y1="85.5854" x2="-1179.1079" y2="85.5854" gradientTransform="matrix(-0.9613 -0.2756 -0.2756 0.9613 -1079.7416 -399.2291)">
		<stop  offset="0" style="stop-color:#C14E10"/>
		<stop  offset="0.4" style="stop-color:#F29120"/>
		<stop  offset="0.725" style="stop-color:#FACA8E"/>
		<stop  offset="1" style="stop-color:#F29120"/>
	</linearGradient>
	<path fill="url(#SVGID_67_)" d="M42.031,17.028c-1.931-1.299-4.006-2.512-6.955-2.535c-1.945-0.014-4.26,0.539-7.2,1.754
		l3.643-12.624c7.397-3.059,10.949-1.328,14.15,0.841L42.031,17.028L42.031,17.028z"/>
	<path fill="#CD660D" d="M41.904,17.211c-3.444-2.391-7.667-3.892-13.938-0.776l0.255,0.183c6.852-2.801,10.427-1.286,13.433,0.693
		L41.904,17.211L41.904,17.211z"/>
	<path fill="#AD650E" d="M42.025,17.025l3.639-12.566c0.041,0.027,0.06,0.052,0.08,0.076l-3.641,12.578
		C42.083,17.061,42.025,17.025,42.025,17.025L42.025,17.025z"/>
	<path fill="#AD650E" d="M28.225,16.613c1.166-0.479,2.246-0.833,3.248-1.077c0.243-0.059,0.458-0.111,0.716-0.161
		c0.236-0.047,0.47-0.094,0.696-0.127c0.358-0.055,0.704-0.099,1.042-0.125c0.289-0.022,0.569-0.04,0.844-0.041
		c0.266-0.002,0.525,0,0.78,0.014c0.226,0.014,0.447,0.029,0.665,0.055c0.184,0.021,0.363,0.043,0.542,0.074
		c0.375,0.064,0.739,0.144,1.09,0.245c1.416,0.4,2.675,1.082,3.832,1.854l-0.048-0.014l-0.026-0.012
		c-1.564-0.992-3.244-1.855-5.319-2.109c-2.122-0.261-4.595,0.104-7.926,1.427c0,0-0.077,0.032-0.107,0.038
		C28.225,16.657,28.23,16.637,28.225,16.613L28.225,16.613z"/>
	<path fill="#AD650E" d="M41.899,17.209c0,0,0.049,0.034,0.104,0.021l-0.229,0.102c-0.062,0.017-0.135-0.021-0.135-0.021
		L41.899,17.209L41.899,17.209z"/>
	<path fill="#AD650E" d="M28.228,16.615l0.024,0.039c-0.023,0.001-0.025,0.009-0.081-0.017l-0.027-0.017l-0.239-0.187l-0.021-0.018
		c0.032-0.001,0.057,0.013,0.074,0.01L28.228,16.615L28.228,16.615z"/>
	<path fill="#CD660D" d="M42.027,17.026c0.025,0.018,0.057,0.027,0.078,0.08c-0.014,0.068-0.071,0.102-0.103,0.126
		c-0.057,0.015-0.111-0.028-0.111-0.028C41.925,17.174,41.992,17.134,42.027,17.026L42.027,17.026z"/>
	<path fill="#CD6311" d="M45.689,4.376l0.003,0.003c0.046,0.032,0.064,0.096,0.051,0.155l-0.002,0.008
		c-0.021-0.024-0.034-0.048-0.075-0.077L45.689,4.376L45.689,4.376z"/>
	<path fill="#CD660D" d="M27.889,16.423c-0.034-0.026-0.069-0.133-0.051-0.197l0.049-0.017c-0.018,0.094,0.041,0.199,0.09,0.229
		C27.976,16.438,27.939,16.458,27.889,16.423L27.889,16.423z"/>
	
		<linearGradient id="SVGID_68_" gradientUnits="userSpaceOnUse" x1="-331.3359" y1="350.9722" x2="-331.245" y2="350.9722" gradientTransform="matrix(0 1 1 0 -319.4512 334.8726)">
		<stop  offset="0" style="stop-color:#F7AE3E"/>
		<stop  offset="1" style="stop-color:#CD660D"/>
	</linearGradient>
	<path fill="url(#SVGID_68_)" d="M31.525,3.627l-0.04-0.01c0.015-0.054,0.052-0.074,0.066-0.077l0.006-0.002
		C31.558,3.538,31.544,3.565,31.525,3.627L31.525,3.627z"/>
	
		<linearGradient id="SVGID_69_" gradientUnits="userSpaceOnUse" x1="-211.0522" y1="-434.9263" x2="-196.8965" y2="-434.9263" gradientTransform="matrix(1 0 0 -1 238.9253 -419.0889)">
		<stop  offset="0" style="stop-color:#F7AE3E"/>
		<stop  offset="0.25" style="stop-color:#F7AE3E"/>
		<stop  offset="0.475" style="stop-color:#F7DCBD"/>
		<stop  offset="0.525" style="stop-color:#F7DCBD"/>
		<stop  offset="0.75" style="stop-color:#F29120"/>
		<stop  offset="1" style="stop-color:#F29120"/>
	</linearGradient>
	<path fill="url(#SVGID_69_)" d="M41.898,17.21c-1.972-1.288-3.818-2.356-6.741-2.441c-2.137,0.043-3.777,0.314-7.185,1.668
		c-0.05-0.029-0.114-0.1-0.096-0.193c2.951-1.257,5.293-1.8,7.238-1.78c2.945,0.028,4.985,1.261,6.915,2.56
		C41.997,17.138,41.934,17.181,41.898,17.21L41.898,17.21z"/>
	<polygon fill="#CD660D" points="31.485,3.615 31.519,3.624 27.884,16.241 27.837,16.226 	"/>
	<path fill="#F29120" d="M45.667,4.474c-3.2-2.17-6.788-3.844-14.151-0.839c0.019-0.062,0.036-0.096,0.036-0.096
		c7.396-3.059,10.941-1.329,14.143,0.841L45.667,4.474L45.667,4.474z"/>
	
		<linearGradient id="SVGID_70_" gradientUnits="userSpaceOnUse" x1="-1192.9644" y1="85.5854" x2="-1179.1079" y2="85.5854" gradientTransform="matrix(-0.9613 -0.2756 -0.2756 0.9613 -1079.7416 -399.2291)">
		<stop  offset="0" style="stop-color:#C14E10"/>
		<stop  offset="0.4" style="stop-color:#F29120"/>
		<stop  offset="0.725" style="stop-color:#FACA8E"/>
		<stop  offset="1" style="stop-color:#F29120"/>
	</linearGradient>
	<path fill="url(#SVGID_70_)" d="M42.031,17.028c-1.931-1.299-4.006-2.512-6.955-2.535c-1.945-0.014-4.26,0.539-7.2,1.754
		l3.643-12.624c7.397-3.059,10.949-1.328,14.15,0.841L42.031,17.028L42.031,17.028z"/>
</g>
</svg>
