<?xml version="1.0" encoding="utf-8"?>
<!-- Generator: Adobe Illustrator 16.0.0, SVG Export Plug-In . SVG Version: 6.00 Build 0)  -->
<!DOCTYPE svg PUBLIC "-//W3C//DTD SVG 1.1//EN" "http://www.w3.org/Graphics/SVG/1.1/DTD/svg11.dtd">
<svg version="1.1" xmlns="http://www.w3.org/2000/svg" xmlns:xlink="http://www.w3.org/1999/xlink" x="0px" y="0px"
	 width="66.547px" height="37.741px" viewBox="0 0 66.547 37.741" enable-background="new 0 0 66.547 37.741" xml:space="preserve">
<g id="Layer_1">
</g>
<g id="Layer_2">
	<g>
		<path fill="#43C7EF" d="M66.547,29.732c0,4.426-3.416,8.008-7.623,8.008H14.071C6.3,37.741,0,31.124,0,22.958
			C0,14.797,6.3,8.176,14.071,8.176c0.806,0,1.583,0.074,2.353,0.209C19.601,3.338,25.055,0,31.246,0
			c7.994,0,15.167,5.597,17.398,13.223c0.33-0.025,0.253-0.094,0.592-0.094c5.294,0,9.757,3.696,11.215,8.761
			C63.926,22.63,66.547,25.86,66.547,29.732z"/>
	</g>
</g>
</svg>
