<?xml version="1.0" encoding="utf-8"?>
<!-- Generator: Adobe Illustrator 16.0.0, SVG Export Plug-In . SVG Version: 6.00 Build 0)  -->
<!DOCTYPE svg PUBLIC "-//W3C//DTD SVG 1.1//EN" "http://www.w3.org/Graphics/SVG/1.1/DTD/svg11.dtd">
<svg version="1.1" id="Layer_1" xmlns="http://www.w3.org/2000/svg" xmlns:xlink="http://www.w3.org/1999/xlink" x="0px" y="0px"
	 width="95.656px" height="81.027px" viewBox="0 0 95.656 81.027" enable-background="new 0 0 95.656 81.027" xml:space="preserve">
<g>
	<path fill="#FFD950" d="M95.656,73.271c0,4.284-3.473,7.757-7.757,7.757H7.757C3.473,81.027,0,77.555,0,73.271V7.757
		C0,3.473,3.473,0,7.757,0h80.142c4.284,0,7.757,3.473,7.757,7.757V73.271z"/>
	<path fill="#4B4B4B" d="M87.899,0H7.757C3.473,0,0,3.473,0,7.757V18.21h95.656V7.757C95.656,3.473,92.183,0,87.899,0z"/>
	<path fill="#FFFFFF" d="M13.117,9.214c0,2.058-1.672,3.726-3.734,3.726c-2.062,0-3.731-1.668-3.731-3.726
		c0-2.065,1.669-3.737,3.731-3.737C11.444,5.478,13.117,7.149,13.117,9.214z"/>
	<path fill="#FFFFFF" d="M23.943,9.214c0,2.058-1.674,3.726-3.734,3.726c-2.062,0-3.731-1.668-3.731-3.726
		c0-2.065,1.669-3.737,3.731-3.737C22.27,5.478,23.943,7.149,23.943,9.214z"/>
	<path fill="#FFFFFF" d="M90.006,9.646c0,1.851-1.458,3.354-3.259,3.354H30.515c-1.799,0-3.259-1.503-3.259-3.354l0,0
		c0-1.855,1.459-3.358,3.259-3.358h56.232C88.549,6.288,90.006,7.792,90.006,9.646L90.006,9.646z"/>
	<g>
		<rect x="9.075" y="47.804" fill="#FF5046" width="31.429" height="3.592"/>
		<rect x="56.418" y="47.881" fill="#FF5046" width="31.429" height="3.591"/>
		<polygon fill="#FF5046" points="53.452,65.578 46.586,31.598 45.192,25.157 43.156,31.476 37.045,50.256 40.461,51.365 
			44.443,39.129 49.929,66.29 		"/>
		<polygon fill="#FF5046" points="43.369,33.69 50.235,67.667 51.627,74.112 53.662,67.793 59.774,49.013 56.358,47.899 
			52.376,60.136 46.89,32.975 		"/>
	</g>
	<path opacity="0.1" fill="#010000" d="M87.899,0H37.965l16.398,81.027h33.535c4.284,0,7.757-3.473,7.757-7.757V7.757
		C95.656,3.473,92.183,0,87.899,0z"/>
</g>
</svg>
