<svg xmlns="http://www.w3.org/2000/svg" xmlns:xlink="http://www.w3.org/1999/xlink" viewBox="435 352 54 60">
  <defs>
    <style>
      .cls-1 {
        fill: #e7e7e7;
      }

      .cls-2 {
        clip-path: url(#clip-path);
      }

      .cls-3 {
        fill: none;
      }

      .cls-4 {
        fill: #fff;
      }

      .cls-5 {
        fill: #ea4335;
      }

      .cls-6 {
        fill: #fbbc05;
      }

      .cls-7 {
        fill: #4285f4;
      }

      .cls-8 {
        fill: #34a853;
      }
    </style>
    <clipPath id="clip-path">
      <rect id="_version_:_1.5.0_viewSource_:_x_:_0_y_:_0_width_:_36_height_:_40_resources_:_clipPaths_:_filters_:_gradients_:_masks_:_patterns_:_children_:_style_:_stroke_:_type_:_none_fill_:_type_:_none_name_:_type_:_shape_shape_:_type_:_rect_x_:_0_y_:_0_width_:_36_height_:_40_style_:_stroke_:_type_:_none_fill_:_type_:_solid_color_:_mode_:_RGB_value_:_r_:_255_g_:_255_b_:_255_name_:_type_:_shape_shape_:_type_:_path_path_:_M_12.369_2.005_A_18.473_18.473_0_0_0_1.96_11.119_a_18.171_18.171_0_0_0_-1.6_4.622_A_18.382_18.382_0_0_0_13.612_37.12_a_19.647_19.647_0_0_0_9.4_0.1_a_16.669_16.669_0_0_0_7.524_-3.91_a_16.686_16.686_0_0_0_4.651_-7.623_a_21.567_21.567_0_0_0_0.464_-9.756_H_18.37_V_23.1_H_28.383_a_8.649_8.649_0_0_1_-3.673_5.678_a_10.524_10.524_0_0_1_-4.049_1.6_a_12.11_12.11_0_0_1_-4.384_-0.01_A_10.873_10.873_0_0_1_12.189_28.6_a_11.359_11.359_0_0_1_-4.207_-5.639_a_11.147_11.147_0_0_1_0_-7.149_a_11.475_11.475_0_0_1_2.666_-4.335_A_10.8_10.8_0_0_1_21.53_8.641_a_9.886_9.886_0_0_1_3.959_2.33_l_3.377_-3.377_c_0.593_-0.6_1.215_-1.185_1.788_-1.807_A_17.9_17.9_0_0_0_24.74_2.124_A_18.533_18.533_0_0_0_12.369_2.005_Z_style_:_stroke_:_type_:_none_fill_:_type_:_solid_color_:_mode_:_RGB_value_:_r_:_234_g_:_67_b_:_53_name_:_type_:_shape_shape_:_type_:_path_path_:_M_12.369_2.005_a_18.6_18.6_0_0_1_12.373_0.109_a_17.857_17.857_0_0_1_5.915_3.663_c_-0.573_0.622_-1.195_1.2_-1.788_1.807_l_-3.377_3.377_a_10_10_0_0_0_-3.959_-2.33_a_10.843_10.843_0_0_0_-5.391_-0.217_a_10.974_10.974_0_0_0_-5.49_3.051_A_11.392_11.392_0_0_0_7.984_15.8_c_-2_-1.56_-4.01_-3.11_-6.024_-4.671_A_18.454_18.454_0_0_1_12.369_2.005_Z_style_:_stroke_:_type_:_none_fill_:_type_:_solid_color_:_mode_:_RGB_value_:_r_:_251_g_:_188_b_:_5_name_:_type_:_shape_shape_:_type_:_path_path_:_M_0.371_15.731_a_18.317_18.317_0_0_1_1.6_-4.622_c_2_1.561_4.009_3.11_6.024_4.671_a_11.08_11.08_0_0_0_0_7.149_Q_4.987_25.27_1.981_27.6_A_18.271_18.271_0_0_1_0.371_15.731_Z_style_:_stroke_:_type_:_none_fill_:_type_:_solid_color_:_mode_:_RGB_value_:_r_:_66_g_:_133_b_:_244_name_:_type_:_shape_shape_:_type_:_path_path_:_M_18.372_15.919_H_35.653_a_21.721_21.721_0_0_1_-0.464_9.756_A_16.686_16.686_0_0_1_30.538_33.3_L_24.7_28.766_a_8.649_8.649_0_0_0_3.673_-5.678_H_18.362_Q_18.377_19.5_18.372_15.919_Z_style_:_stroke_:_type_:_none_fill_:_type_:_solid_color_:_mode_:_RGB_value_:_r_:_52_g_:_168_b_:_83_name_:_type_:_shape_shape_:_type_:_path_path_:_M_1.96_27.61_q_3.007_-2.326_6.014_-4.671_a_11.412_11.412_0_0_0_4.207_5.639_a_10.942_10.942_0_0_0_4.088_1.768_a_11.908_11.908_0_0_0_4.384_0.01_a_10.511_10.511_0_0_0_4.049_-1.6_l_5.836_4.532_a_16.572_16.572_0_0_1_-7.524_3.91_a_19.657_19.657_0_0_1_-9.4_-0.1_a_18.142_18.142_0_0_1_-6.675_-3.367_A_18.483_18.483_0_0_1_1.96_27" data-name="{
	&quot;version&quot;: &quot;1.5.0&quot;,
	&quot;viewSource&quot;: {
		&quot;x&quot;: 0,
		&quot;y&quot;: 0,
		&quot;width&quot;: 36,
		&quot;height&quot;: 40
	},
	&quot;resources&quot;: {
		&quot;clipPaths&quot;: {},
		&quot;filters&quot;: {},
		&quot;gradients&quot;: {},
		&quot;masks&quot;: {},
		&quot;patterns&quot;: {}
	},
	&quot;children&quot;: [
		{
			&quot;style&quot;: {
				&quot;stroke&quot;: {
					&quot;type&quot;: &quot;none&quot;
				},
				&quot;fill&quot;: {
					&quot;type&quot;: &quot;none&quot;
				}
			},
			&quot;name&quot;: &quot;&quot;,
			&quot;type&quot;: &quot;shape&quot;,
			&quot;shape&quot;: {
				&quot;type&quot;: &quot;rect&quot;,
				&quot;x&quot;: 0,
				&quot;y&quot;: 0,
				&quot;width&quot;: 36,
				&quot;height&quot;: 40
			}
		},
		{
			&quot;style&quot;: {
				&quot;stroke&quot;: {
					&quot;type&quot;: &quot;none&quot;
				},
				&quot;fill&quot;: {
					&quot;type&quot;: &quot;solid&quot;,
					&quot;color&quot;: {
						&quot;mode&quot;: &quot;RGB&quot;,
						&quot;value&quot;: {
							&quot;r&quot;: 255,
							&quot;g&quot;: 255,
							&quot;b&quot;: 255
						}
					}
				}
			},
			&quot;name&quot;: &quot;&quot;,
			&quot;type&quot;: &quot;shape&quot;,
			&quot;shape&quot;: {
				&quot;type&quot;: &quot;path&quot;,
				&quot;path&quot;: &quot;M 12.369 2.005 A 18.473 18.473 0 0 0 1.96 11.119 a 18.171 18.171 0 0 0 -1.6 4.622 A 18.382 18.382 0 0 0 13.612 37.12 a 19.647 19.647 0 0 0 9.4 0.1 a 16.669 16.669 0 0 0 7.524 -3.91 a 16.686 16.686 0 0 0 4.651 -7.623 a 21.567 21.567 0 0 0 0.464 -9.756 H 18.37 V 23.1 H 28.383 a 8.649 8.649 0 0 1 -3.673 5.678 a 10.524 10.524 0 0 1 -4.049 1.6 a 12.11 12.11 0 0 1 -4.384 -0.01 A 10.873 10.873 0 0 1 12.189 28.6 a 11.359 11.359 0 0 1 -4.207 -5.639 a 11.147 11.147 0 0 1 0 -7.149 a 11.475 11.475 0 0 1 2.666 -4.335 A 10.8 10.8 0 0 1 21.53 8.641 a 9.886 9.886 0 0 1 3.959 2.33 l 3.377 -3.377 c 0.593 -0.6 1.215 -1.185 1.788 -1.807 A 17.9 17.9 0 0 0 24.74 2.124 A 18.533 18.533 0 0 0 12.369 2.005 Z&quot;
			}
		},
		{
			&quot;style&quot;: {
				&quot;stroke&quot;: {
					&quot;type&quot;: &quot;none&quot;
				},
				&quot;fill&quot;: {
					&quot;type&quot;: &quot;solid&quot;,
					&quot;color&quot;: {
						&quot;mode&quot;: &quot;RGB&quot;,
						&quot;value&quot;: {
							&quot;r&quot;: 234,
							&quot;g&quot;: 67,
							&quot;b&quot;: 53
						}
					}
				}
			},
			&quot;name&quot;: &quot;&quot;,
			&quot;type&quot;: &quot;shape&quot;,
			&quot;shape&quot;: {
				&quot;type&quot;: &quot;path&quot;,
				&quot;path&quot;: &quot;M 12.369 2.005 a 18.6 18.6 0 0 1 12.373 0.109 a 17.857 17.857 0 0 1 5.915 3.663 c -0.573 0.622 -1.195 1.2 -1.788 1.807 l -3.377 3.377 a 10 10 0 0 0 -3.959 -2.33 a 10.843 10.843 0 0 0 -5.391 -0.217 a 10.974 10.974 0 0 0 -5.49 3.051 A 11.392 11.392 0 0 0 7.984 15.8 c -2 -1.56 -4.01 -3.11 -6.024 -4.671 A 18.454 18.454 0 0 1 12.369 2.005 Z&quot;
			}
		},
		{
			&quot;style&quot;: {
				&quot;stroke&quot;: {
					&quot;type&quot;: &quot;none&quot;
				},
				&quot;fill&quot;: {
					&quot;type&quot;: &quot;solid&quot;,
					&quot;color&quot;: {
						&quot;mode&quot;: &quot;RGB&quot;,
						&quot;value&quot;: {
							&quot;r&quot;: 251,
							&quot;g&quot;: 188,
							&quot;b&quot;: 5
						}
					}
				}
			},
			&quot;name&quot;: &quot;&quot;,
			&quot;type&quot;: &quot;shape&quot;,
			&quot;shape&quot;: {
				&quot;type&quot;: &quot;path&quot;,
				&quot;path&quot;: &quot;M 0.371 15.731 a 18.317 18.317 0 0 1 1.6 -4.622 c 2 1.561 4.009 3.11 6.024 4.671 a 11.08 11.08 0 0 0 0 7.149 Q 4.987 25.27 1.981 27.6 A 18.271 18.271 0 0 1 0.371 15.731 Z&quot;
			}
		},
		{
			&quot;style&quot;: {
				&quot;stroke&quot;: {
					&quot;type&quot;: &quot;none&quot;
				},
				&quot;fill&quot;: {
					&quot;type&quot;: &quot;solid&quot;,
					&quot;color&quot;: {
						&quot;mode&quot;: &quot;RGB&quot;,
						&quot;value&quot;: {
							&quot;r&quot;: 66,
							&quot;g&quot;: 133,
							&quot;b&quot;: 244
						}
					}
				}
			},
			&quot;name&quot;: &quot;&quot;,
			&quot;type&quot;: &quot;shape&quot;,
			&quot;shape&quot;: {
				&quot;type&quot;: &quot;path&quot;,
				&quot;path&quot;: &quot;M 18.372 15.919 H 35.653 a 21.721 21.721 0 0 1 -0.464 9.756 A 16.686 16.686 0 0 1 30.538 33.3 L 24.7 28.766 a 8.649 8.649 0 0 0 3.673 -5.678 H 18.362 Q 18.377 19.5 18.372 15.919 Z&quot;
			}
		},
		{
			&quot;style&quot;: {
				&quot;stroke&quot;: {
					&quot;type&quot;: &quot;none&quot;
				},
				&quot;fill&quot;: {
					&quot;type&quot;: &quot;solid&quot;,
					&quot;color&quot;: {
						&quot;mode&quot;: &quot;RGB&quot;,
						&quot;value&quot;: {
							&quot;r&quot;: 52,
							&quot;g&quot;: 168,
							&quot;b&quot;: 83
						}
					}
				}
			},
			&quot;name&quot;: &quot;&quot;,
			&quot;type&quot;: &quot;shape&quot;,
			&quot;shape&quot;: {
				&quot;type&quot;: &quot;path&quot;,
				&quot;path&quot;: &quot;M 1.96 27.61 q 3.007 -2.326 6.014 -4.671 a 11.412 11.412 0 0 0 4.207 5.639 a 10.942 10.942 0 0 0 4.088 1.768 a 11.908 11.908 0 0 0 4.384 0.01 a 10.511 10.511 0 0 0 4.049 -1.6 l 5.836 4.532 a 16.572 16.572 0 0 1 -7.524 3.91 a 19.657 19.657 0 0 1 -9.4 -0.1 a 18.142 18.142 0 0 1 -6.675 -3.367 A 18.483 18.483 0 0 1 1.96 27" class="cls-1" width="54" height="60" rx="10" transform="translate(494 227)"/>
    </clipPath>
  </defs>
  <g id="Mask_Group_1" data-name="Mask Group 1" class="cls-2" transform="translate(-59 125)">
    <g id="G" data-name="G" transform="translate(494.006 227.006)">
      <rect id="Rectangle_1" data-name="Rectangle 1" class="cls-3" width="53.989" height="59.988"/>
      <path id="Path_1" data-name="Path 1" class="cls-4" d="M18.55,3.007A27.7,27.7,0,0,0,2.939,16.675a27.251,27.251,0,0,0-2.4,6.932A27.568,27.568,0,0,0,20.414,55.669a29.465,29.465,0,0,0,14.1.15A25,25,0,0,0,45.8,49.955,25.024,25.024,0,0,0,52.77,38.523a32.344,32.344,0,0,0,.7-14.631H27.55V34.643H42.566a12.971,12.971,0,0,1-5.508,8.515,15.783,15.783,0,0,1-6.072,2.4,18.162,18.162,0,0,1-6.575-.015,16.306,16.306,0,0,1-6.131-2.651,17.035,17.035,0,0,1-6.309-8.457,16.717,16.717,0,0,1,0-10.721,17.209,17.209,0,0,1,4-6.5,16.2,16.2,0,0,1,16.32-4.253,14.826,14.826,0,0,1,5.937,3.494l5.065-5.065c.889-.9,1.822-1.777,2.681-2.71A26.845,26.845,0,0,0,37.1,3.185,27.794,27.794,0,0,0,18.55,3.007Z"/>
      <path id="Path_2" data-name="Path 2" class="cls-5" d="M18.55,3.007a27.9,27.9,0,0,1,18.556.163,26.78,26.78,0,0,1,8.871,5.493c-.859.933-1.792,1.8-2.681,2.71l-5.065,5.065a15,15,0,0,0-5.937-3.494,16.261,16.261,0,0,0-8.085-.325,16.458,16.458,0,0,0-8.233,4.576,17.085,17.085,0,0,0-4,6.5c-3-2.34-6.014-4.664-9.034-7.005A27.676,27.676,0,0,1,18.55,3.007Z"/>
      <path id="Path_3" data-name="Path 3" class="cls-6" d="M.556,23.592a27.47,27.47,0,0,1,2.4-6.932c3,2.341,6.012,4.664,9.034,7.005a16.617,16.617,0,0,0,0,10.721Q7.479,37.9,2.971,41.392a27.4,27.4,0,0,1-2.415-17.8Z"/>
      <path id="Path_4" data-name="Path 4" class="cls-7" d="M27.553,23.874H53.469a32.575,32.575,0,0,1-.7,14.631A25.024,25.024,0,0,1,45.8,49.94l-8.755-6.8a12.971,12.971,0,0,0,5.508-8.515H27.538Q27.56,29.244,27.553,23.874Z"/>
      <path id="Path_5" data-name="Path 5" class="cls-8" d="M2.939,41.407q4.51-3.488,9.019-7.005a17.115,17.115,0,0,0,6.309,8.457A16.41,16.41,0,0,0,24.4,45.51a17.859,17.859,0,0,0,6.575.015,15.763,15.763,0,0,0,6.072-2.4l8.752,6.8a24.853,24.853,0,0,1-11.284,5.864,29.48,29.48,0,0,1-14.1-.15,27.208,27.208,0,0,1-10.011-5.05,27.719,27.719,0,0,1-7.467-9.18Z"/>
    </g>
  </g>
</svg>
