<?xml version="1.0" encoding="utf-8"?>
<!-- Generator: Adobe Illustrator 16.0.0, SVG Export Plug-In . SVG Version: 6.00 Build 0)  -->
<!DOCTYPE svg PUBLIC "-//W3C//DTD SVG 1.1//EN" "http://www.w3.org/Graphics/SVG/1.1/DTD/svg11.dtd">
<svg version="1.1" xmlns="http://www.w3.org/2000/svg" xmlns:xlink="http://www.w3.org/1999/xlink" x="0px" y="0px"
	 width="349.694px" height="365.922px" viewBox="0 0 349.694 365.922" enable-background="new 0 0 349.694 365.922"
	 xml:space="preserve">
<g id="Layer_1">
</g>
<g id="Layer_2">
	<g>
		<ellipse fill="#F3F3F3" cx="174.847" cy="330.115" rx="174.847" ry="35.808"/>
		<g>
			<circle fill="#76D9FC" cx="251.202" cy="168.316" r="70.844"/>
			<path fill="#0EA736" d="M266.659,227.719c-9.821-4.847-17.568-13.195-28.347-16.353c-9.337-6.985-27.396,0.445-29.031-14.826
				c-0.066-7.338-6.326-10.088-11.128-12.916c-4.788-10.766,15.095-17.517,16.963-5.293c6.683-1.225,7.522-13.255,15.054-15.964
				c3.55-3.984,14.854-1.645,10.02-8.232c3.394-4.169,14.762-5.519,8.09-13.4c-2.94-8.142-13.765-10.852-15.937-0.875
				c-8.994,3.713-7.846-16.999,2.001-15.537c6.926-0.5,5.215-6.356,0.788-7.736c-0.028-0.29-0.153-0.446-0.379-0.15
				c-0.792-0.189-1.631-0.372-2.565-0.204c-5.566-2.209-2.741-9.842-1.415-14.989h-2.429c-5.98,2.037-11.599,4.848-16.74,8.318
				c-9.012,11.576-17.846,25.373-21.712,36.887c-2.35,11.138-0.338,21.784,1.547,32.939c5.189,10.344,13.713,18.347,20.82,27.316
				c4.364,4.206,3.258,9.84,3.635,15.015c-0.087,0.052,0.072,0.171,0.072,0.18c0.206,3.15,1.083,6.052,4.076,8.379
				c0.807,0.806,1.659,1.806,2.538,2.855c6.676,2.953,13.889,4.91,21.454,5.666h14.334c8.878-0.892,17.27-3.422,24.872-7.288
				C279.079,227.45,271.135,225.484,266.659,227.719z"/>
			<path fill="#0EA736" d="M321.547,159.91c-2.856-24.177-17.888-44.618-38.795-55.035c-11.453-0.501-8.708,23.379,0.082,28.04
				c8.613,4.942,13.802-4.371,4.92-9.264c-0.896-11.807,19.441,7.76,10.075,13.817c-0.375,0.23-0.678,0.519-1.047,0.777
				c0.481-1.668-0.617-0.127-0.562,0.265c-10.676,7.303-5.18,25.298-9.568,37.08c-7.655,15.889,17.882,9.475,14.427-3.276
				c-4.321-11.767,19.441-5.815,14.492-14.24C317.977,159.438,319.949,159.977,321.547,159.91z"/>
			<g opacity="0.2">
				<path fill="#010000" d="M183.8,146.487c-0.012,0.047-0.03,0.09-0.045,0.138c0.657-0.037,1.239-0.083,1.239-0.138H183.8z"/>
				<path fill="#010000" d="M311.037,206.218h-0.084c0,0.054-0.014,0.107-0.017,0.16
					C310.97,206.325,311.005,206.272,311.037,206.218z"/>
				<path fill="#010000" d="M316.729,189.668c0-0.124,0.042-0.21,0.059-0.231c-0.115,0.154-1.183,1.215-9.272,2.394
					c2.071-7.094,3.232-14.684,3.319-22.586h10.788v-2.146H310.83c-0.111-7.978-1.323-15.643-3.46-22.787
					c8.179,1.184,9.253,2.254,9.363,2.406c-0.019-0.024-0.062-0.106-0.062-0.231h1.929c-0.147-0.458-0.306-0.915-0.464-1.371
					c-0.854-0.791-2.588-1.434-5.446-2.047c-1.664-0.359-3.681-0.7-6.032-1.021c-2.729-8.229-6.703-15.71-11.645-22.117
					c4.96,1.282,8.915,2.769,11.65,4.337c-1.081-1.358-2.203-2.682-3.38-3.96c-2.834-1.117-5.953-2.026-8.878-2.745
					c-0.529-0.129-1.076-0.254-1.621-0.376c-7.548-8.811-17.037-15.248-27.612-18.33c-4.518-0.904-9.186-1.385-13.969-1.385
					c-5.316,0-10.484,0.604-15.464,1.712c-10.138,3.196-19.229,9.485-26.514,17.983c-0.572,0.132-1.145,0.262-1.699,0.396
					c-2.675,0.654-5.507,1.473-8.136,2.46c-1.146,1.229-2.247,2.491-3.302,3.797c2.7-1.411,6.384-2.746,10.907-3.911
					c-4.938,6.403-8.915,13.874-11.645,22.097c-2.494,0.334-4.629,0.689-6.378,1.064c-2.042,0.439-3.509,0.893-4.495,1.406
					c-0.196,0.558-0.384,1.118-0.565,1.68c2.002-0.465,5.545-1.156,10.725-1.888c-2.145,7.153-3.36,14.834-3.475,22.832h-10.777
					c-0.006,0.406-0.029,0.81-0.029,1.217c0,0.313,0.018,0.617,0.023,0.929h10.78c0.085,7.916,1.253,15.523,3.331,22.625
					c-8.352-1.191-9.444-2.277-9.56-2.433c0.018,0.021,0.062,0.107,0.062,0.231h-1.357c0.205,0.645,0.426,1.276,0.647,1.908
					c0.982,0.555,2.513,1.041,4.692,1.511c1.713,0.37,3.791,0.719,6.221,1.046c2.527,7.774,6.163,14.894,10.67,21.083
					c-5.017-1.365-8.926-2.943-11.49-4.595c1.057,1.42,2.18,2.788,3.338,4.119c3.062,1.287,6.535,2.315,9.771,3.111
					c0.159,0.038,0.327,0.076,0.487,0.113c7.456,9.218,16.962,16.055,27.628,19.448c5.024,1.129,10.238,1.745,15.603,1.745
					c4.758,0,9.407-0.477,13.902-1.375c11.2-3.247,21.19-10.252,28.946-19.857c0.104-0.024,0.208-0.05,0.314-0.074
					c3.552-0.871,7.385-2.025,10.651-3.494c1.24-1.448,2.425-2.947,3.549-4.495c-2.447,1.905-6.708,3.741-12.405,5.308
					c4.499-6.188,8.126-13.309,10.652-21.076c2.303-0.318,4.288-0.654,5.931-1.007c3.053-0.656,4.826-1.344,5.609-2.216
					c0.135-0.398,0.28-0.798,0.407-1.203H316.729z M242.914,99.648c-3.872,2.786-7.446,7.591-10.525,14.202
					c-7.104,0.552-13.743,1.419-19.65,2.572C221.026,107.597,231.433,101.585,242.914,99.648z M210.353,119.107
					c6.184-1.362,13.331-2.381,21.045-3.023c-0.283,0.663-0.56,1.339-0.831,2.037c-2.482,6.357-4.436,13.705-5.805,21.686
					c-7.871,0.302-15.103,0.742-21.325,1.312c-2.068,0.185-3.986,0.383-5.75,0.592C200.644,133.188,204.979,125.519,210.353,119.107
					z M196.943,143.961c2.279-0.282,4.985-0.568,8.209-0.842c5.711-0.487,12.229-0.87,19.255-1.147
					c-1.237,7.906-1.905,16.389-1.965,25.127h-29.164C193.396,158.975,194.682,151.182,196.943,143.961z M193.276,169.245h29.164
					c0.045,8.667,0.692,17.081,1.894,24.939c-6.996-0.278-13.488-0.661-19.173-1.145c-3.299-0.285-6.057-0.574-8.371-0.862
					C194.6,185.008,193.363,177.291,193.276,169.245z M197.521,194.426c1.816,0.215,3.79,0.422,5.921,0.614
					c6.204,0.565,13.405,1.005,21.24,1.305c1.372,8.17,3.354,15.68,5.885,22.165c0.102,0.266,0.21,0.522,0.317,0.781
					c-8.028-0.681-15.413-1.784-21.731-3.254C204.231,209.818,200.261,202.497,197.521,194.426z M211.396,218.727
					c6.078,1.257,12.994,2.201,20.423,2.795c3.202,7.262,6.983,12.5,11.095,15.462C230.803,234.939,219.886,228.362,211.396,218.727
					z M249.94,237.609c-5.749-0.609-11.229-6.172-15.72-15.907c5.061,0.349,10.333,0.537,15.72,0.561V237.609z M249.94,220.116
					c-5.734-0.025-11.342-0.236-16.69-0.632c-0.244-0.574-0.483-1.163-0.718-1.765c-2.435-6.233-4.349-13.447-5.693-21.295
					c7.287,0.257,15.079,0.396,23.102,0.404V220.116z M249.94,194.677c-8.128-0.008-16.056-0.15-23.456-0.415
					c-1.223-7.86-1.885-16.31-1.927-25.018h25.383V194.677z M249.94,167.099h-25.383c0.056-8.783,0.742-17.298,2.001-25.205
					c7.383-0.264,15.281-0.405,23.382-0.416V167.099z M249.94,139.33c-7.992,0.011-15.756,0.146-23.019,0.396
					c1.336-7.661,3.225-14.704,5.61-20.812c0.409-1.046,0.827-2.049,1.253-3.018c5.188-0.372,10.61-0.572,16.155-0.594V139.33z
					 M249.94,113.155c-5.176,0.02-10.245,0.197-15.124,0.521c4.377-8.963,9.624-14.072,15.124-14.652V113.155z M308.714,167.099
					h-29.161c-0.058-8.735-0.731-17.213-1.962-25.115c6.898,0.276,13.306,0.657,18.922,1.136c3.386,0.289,6.203,0.588,8.554,0.886
					C307.318,151.211,308.6,158.99,308.714,167.099z M304.323,141.75c-1.862-0.224-3.891-0.437-6.091-0.632
					c-6.141-0.562-13.257-0.997-20.997-1.299c-1.369-7.987-3.323-15.34-5.806-21.699c-0.272-0.693-0.551-1.368-0.831-2.035
					c7.724,0.646,14.877,1.669,21.053,3.039C297.033,125.541,301.368,133.217,304.323,141.75z M289.27,116.441
					c-5.908-1.162-12.554-2.035-19.664-2.589c-3.074-6.612-6.651-11.418-10.525-14.204
					C270.571,101.587,280.98,107.607,289.27,116.441z M252.055,99.024c5.501,0.58,10.751,5.691,15.124,14.656
					c-4.882-0.325-9.949-0.505-15.124-0.525V99.024z M252.055,115.301c5.547,0.024,10.966,0.224,16.153,0.6
					c0.432,0.967,0.847,1.969,1.256,3.012c2.387,6.11,4.273,13.161,5.614,20.826c-7.263-0.255-15.027-0.396-23.023-0.409V115.301z
					 M252.055,141.478c8.104,0.015,16.008,0.159,23.384,0.422c1.259,7.907,1.941,16.419,1.999,25.199h-25.383V141.478z
					 M252.055,169.245h25.385c-0.043,8.706-0.703,17.151-1.929,25.009c-7.395,0.268-15.326,0.411-23.456,0.424V169.245z
					 M252.055,196.826c8.023-0.01,15.815-0.151,23.103-0.407c-1.347,7.849-3.261,15.062-5.693,21.301
					c-0.238,0.599-0.471,1.18-0.712,1.752c-5.352,0.402-10.958,0.616-16.697,0.642V196.826z M252.055,222.262
					c5.387-0.026,10.66-0.221,15.721-0.569c-4.489,9.742-9.97,15.305-15.721,15.916V222.262z M259.08,236.984
					c4.114-2.963,7.896-8.207,11.104-15.472c7.438-0.604,14.368-1.554,20.447-2.824C282.136,228.342,271.206,234.938,259.08,236.984
					z M292.87,215.996c-6.314,1.482-13.707,2.596-21.754,3.286c0.104-0.259,0.207-0.51,0.313-0.771
					c2.53-6.487,4.514-14.002,5.886-22.173c7.73-0.304,14.834-0.738,20.964-1.297c2.246-0.203,4.314-0.421,6.204-0.647
					C301.752,202.459,297.786,209.771,292.87,215.996z M305.213,192.141c-2.369,0.3-5.222,0.603-8.655,0.898
					c-5.613,0.474-12.005,0.856-18.892,1.13c1.196-7.85,1.844-16.264,1.887-24.925h29.166
					C308.631,177.279,307.397,184.986,305.213,192.141z"/>
			</g>
		</g>
		<path opacity="0.2" d="M249.94,105.994c0,0,12.896-7.908,12.722-6.911c-0.174,1,12.504,74.594,12.504,74.594l7.208-0.638
			l4.097,22.488l-14.637,15.266c0,0-22.127-8.97-22.388-9.598C249.185,200.567,249.94,105.994,249.94,105.994z"/>
		
			<rect x="29.148" y="50.912" transform="matrix(0.9884 -0.152 0.152 0.9884 -17.6825 23.5759)" fill="#FFEFD3" width="232.404" height="153.047"/>
		
			<rect x="28.649" y="68.729" transform="matrix(0.9884 -0.1521 0.1521 0.9884 -21.7559 6.1796)" fill="#EACEA0" width="1.707" height="153.048"/>
		
			<rect x="18.087" y="53.505" transform="matrix(0.9884 -0.152 0.152 0.9884 -6.8787 21.0587)" opacity="0.2" fill="#010000" width="232.404" height="4.024"/>
		
			<rect x="36.902" y="60.88" transform="matrix(0.9884 -0.152 0.152 0.9884 -18.4268 23.7491)" fill="#E28F3B" width="218.42" height="143.022"/>
		
			<rect x="37.154" y="64.187" transform="matrix(0.9884 -0.152 0.152 0.9884 -18.6738 23.8065)" fill="#F4B373" width="218.42" height="139.696"/>
		
			<rect x="116.025" y="187.383" transform="matrix(0.9884 -0.152 0.152 0.9884 -27.8222 32.4448)" fill="#6B6B6B" width="164.54" height="21.623"/>
		
			<rect x="116.968" y="198.24" transform="matrix(0.9884 -0.1519 0.1519 0.9884 -30.3773 20.3585)" opacity="0.2" fill="#010000" width="2.251" height="21.624"/>
		
			<rect x="35.794" y="208.427" transform="matrix(0.9884 -0.152 0.152 0.9884 -32.727 10.4323)" fill="#A8A8A8" width="32.131" height="21.624"/>
		
			<rect x="65.479" y="206.159" transform="matrix(0.9884 -0.1519 0.1519 0.9884 -32.177 12.6311)" opacity="0.2" fill="#010000" width="2.251" height="21.624"/>
		
			<rect x="114.454" y="184.788" transform="matrix(0.9884 -0.152 0.152 0.9884 -26.0646 32.0727)" opacity="0.2" fill="#010000" width="164.539" height="3.423"/>
		
			<rect x="34.223" y="207.309" transform="matrix(0.9884 -0.152 0.152 0.9884 -31.1842 10.0715)" opacity="0.2" fill="#010000" width="32.133" height="3.425"/>
		
			<rect x="114.455" y="184.788" transform="matrix(0.9884 -0.152 0.152 0.9884 -26.0645 32.0728)" fill="#919191" width="164.54" height="3.423"/>
		
			<rect x="34.023" y="206.012" transform="matrix(0.9884 -0.152 0.152 0.9884 -30.9894 10.0261)" fill="#919191" width="32.133" height="3.425"/>
		
			<rect x="60.667" y="113.472" transform="matrix(0.9884 -0.152 0.152 0.9884 -24.6777 14.9692)" fill="#F4F4F4" width="49.821" height="110.868"/>
		
			<rect x="116.222" y="76.452" transform="matrix(0.9884 -0.152 0.152 0.9884 -16.9449 28.8126)" fill="#F4F4F4" width="127.478" height="97.546"/>
		
			<rect x="119.868" y="173.402" transform="matrix(0.9884 -0.152 0.152 0.9884 -24.5607 30.5865)" fill="#FFEFD3" width="135.781" height="5.043"/>
		
			<rect x="119.428" y="80.53" transform="matrix(0.9884 -0.152 0.152 0.9884 -16.9451 28.8126)" fill="#9ACFD7" width="121.067" height="89.393"/>
		
			<rect x="64.669" y="120.155" transform="matrix(0.9884 -0.152 0.152 0.9884 -24.824 15.0028)" fill="#9ACFD7" width="42.119" height="99.465"/>
		<polygon opacity="0.2" fill="#FFFFFF" points="72.219,220.584 102.631,141.241 100.658,128.422 70.247,207.764 		"/>
		<polygon opacity="0.2" fill="#FFFFFF" points="69.1,200.31 99.513,120.969 98.983,117.532 79.513,120.526 63.326,162.762 		"/>
		
			<rect x="65.902" y="135.707" transform="matrix(0.988 -0.1542 0.1542 0.988 -26.8698 12.3957)" opacity="0.2" fill="#010000" width="1.191" height="87.513"/>
		<g opacity="0.2">
			<path d="M262.357,99.355l-21.546,3.314c0.024,0.242,0.054,0.487,0.093,0.731c1.067,6.944,6.766,11.83,12.726,10.913
				s9.927-7.288,8.858-14.231C262.45,99.836,262.406,99.594,262.357,99.355z"/>
			<path d="M219.226,105.988c0.023,0.243,0.054,0.488,0.092,0.733c1.068,6.944,6.767,11.828,12.727,10.912
				c5.961-0.917,9.928-7.288,8.86-14.232c-0.039-0.244-0.083-0.487-0.133-0.727L219.226,105.988z"/>
			<path d="M197.64,109.307c0.025,0.245,0.056,0.488,0.094,0.733c1.066,6.943,6.765,11.829,12.727,10.913
				c5.959-0.916,9.926-7.288,8.857-14.232c-0.038-0.245-0.082-0.487-0.131-0.728L197.64,109.307z"/>
			<path d="M176.05,112.822c-0.012-0.062-0.021-0.126-0.034-0.187l-21.546,3.312c0.025,0.243,0.055,0.488,0.093,0.732
				c1.068,6.943,6.766,11.829,12.728,10.912c5.49-0.844,9.285-6.32,9.014-12.605c1.571,6.18,6.89,10.352,12.438,9.499
				c5.96-0.916,9.928-7.287,8.859-14.231c-0.038-0.244-0.083-0.487-0.132-0.726L176.05,112.822z"/>
			<path d="M132.88,119.462c-0.013-0.063-0.022-0.125-0.034-0.189l-21.547,3.314c0.025,0.244,0.057,0.486,0.093,0.732
				c1.069,6.944,6.767,11.829,12.726,10.913c5.494-0.847,9.289-6.321,9.016-12.608c1.571,6.181,6.89,10.354,12.438,9.501
				c5.962-0.917,9.926-7.288,8.859-14.231c-0.038-0.245-0.082-0.487-0.131-0.727L132.88,119.462z"/>
			<path d="M89.71,126.101c-0.013-0.062-0.022-0.126-0.035-0.188l-21.546,3.314c0.024,0.242,0.055,0.486,0.094,0.73
				c1.066,6.944,6.766,11.83,12.726,10.914c5.49-0.845,9.286-6.32,9.016-12.608c1.571,6.18,6.889,10.354,12.436,9.502
				c5.962-0.919,9.928-7.289,8.859-14.233c-0.037-0.243-0.082-0.485-0.132-0.727L89.71,126.101z"/>
			<path d="M46.539,132.741c-0.013-0.063-0.021-0.125-0.034-0.189l-21.547,3.315c0.025,0.242,0.055,0.488,0.093,0.732
				c1.067,6.944,6.766,11.829,12.726,10.912c5.492-0.845,9.287-6.319,9.017-12.605c1.572,6.179,6.888,10.353,12.437,9.499
				c5.961-0.916,9.928-7.288,8.86-14.233c-0.039-0.243-0.083-0.484-0.134-0.726L46.539,132.741z"/>
		</g>
		<polygon opacity="0.2" fill="#FFFFFF" points="149.609,174.685 149.647,174.932 182.61,169.863 205.506,110.125 204.689,104.816 
			174.616,109.442 		"/>
		<polygon opacity="0.2" fill="#FFFFFF" points="201.022,167.031 220.382,116.52 217.337,96.717 189.722,168.769 		"/>
		<path opacity="0.2" d="M91.685,144.294l-0.967,0.528L75.43,130.908c-0.107-0.097-0.272-0.089-0.371,0.018
			c-0.097,0.107-0.088,0.271,0.018,0.369l15.156,13.793L71.807,155.17l3.152-19.799c0.023-0.143-0.074-0.276-0.217-0.3
			c-0.144-0.021-0.276,0.076-0.3,0.218l-3.217,20.198l-1.515,0.83l5.616,10.267l21.975-12.026L91.685,144.294z"/>
		<g>
			
				<rect x="70.008" y="149.038" transform="matrix(0.8773 -0.48 0.48 0.8773 -64.2173 58.6253)" fill="#FFEFD3" width="25.049" height="11.701"/>
			<circle fill="#E5BD7C" cx="70.283" cy="156.338" r="0.496"/>
			<circle fill="#E5BD7C" cx="90.514" cy="145.259" r="0.497"/>
			<g>
				<path fill="#828282" d="M79.08,156.151c0.121,0.315,0.209,0.629,0.271,0.988c0.069,0.334,0.099,0.69,0.104,1.04
					c-0.011,0.356-0.05,0.7-0.145,1.02c-0.103,0.324-0.261,0.619-0.462,0.896c-0.211,0.278-0.507,0.515-0.831,0.692
					c-0.231,0.127-0.444,0.213-0.662,0.248c-0.2,0.049-0.42,0.044-0.63-0.016c-0.192-0.051-0.384-0.154-0.563-0.313
					c-0.187-0.167-0.355-0.384-0.512-0.672c-0.132-0.219-0.25-0.453-0.359-0.733c-0.442-1.125-0.489-2.175-0.41-3.336l1.181-0.832
					c-0.151,1.446-0.062,2.498,0.245,3.343c0.709,2.033,2.184,2.155,1.965-0.248c-0.023-0.422-0.118-0.878-0.266-1.334
					c-0.151-0.484-0.338-0.922-0.585-1.355c-1.023-1.737-2.978-0.389-3.459,0.939c-0.209,0.621,0.062,1.322,0.62,1.627l-0.828,1.114
					c-0.76-1.011-0.742-2.076-0.321-2.988c0.937-2.034,3.909-3.237,5.258-0.943C78.825,155.534,78.965,155.808,79.08,156.151z"/>
				<path fill="#828282" d="M83.298,154.783c0.271,0.515,0.443,1.114,0.436,1.686c0.007,0.297-0.04,0.57-0.169,0.826
					c-0.119,0.294-0.341,0.551-0.65,0.719c-0.327,0.18-0.899,0.285-1.18,0.19l0.81,2.538l-1.124,0.614l-2.08-6.622l1.122-0.613
					l0.083,0.265C81.33,152.869,82.703,153.68,83.298,154.783z M80.686,154.814l0.897,2.884c0.606,0.279,0.934-0.129,0.994-0.639
					c0.038-0.309-0.019-0.735-0.156-1.154C82.147,155.061,81.362,153.514,80.686,154.814z"/>
				<path fill="#828282" d="M87.473,153.677c0.007,1.486-0.485,2.139-1.407,2.612c-1.53,0.774-2.594-1.113-2.499-2.699
					c0.091-1.27,1.018-2.035,1.68-1.901c0.586,0.104,0.925,0.704,0.942,1.306c0.003,0.856-0.53,1.471-1.229,1.819
					c0.22,0.378,0.605,0.746,1.039,0.726c0.771-0.05,1.154-0.879,1.189-1.704L87.473,153.677z M84.779,154.426
					c1.28-0.647,0.596-2.239,0.31-2.291c-0.225-0.03-0.493,0.312-0.532,0.924c-0.025,0.346,0.026,0.781,0.184,1.276
					C84.756,154.367,84.767,154.403,84.779,154.426z"/>
				<path fill="#828282" d="M91.911,151.217c0.302,2.216-1.747,3.595-2.533,1.326c-0.195-0.619-0.396-1.232-0.598-1.848
					c-0.326-1.011-1.043,0.231-0.938,1.124l0.945,2.918l-1.131,0.619l-1.374-4.421l1.089-0.597l0.209,0.662
					c0.327-1.443,1.857-2.237,2.505-0.264c0.35,1.092,0.239,0.778,0.596,1.846c0.361,1.076,1.086-0.282,0.918-1.195L91.911,151.217z
					"/>
			</g>
			<path fill="#727272" d="M70.555,156.367c-0.023,0.143-0.157,0.239-0.3,0.216l0,0c-0.142-0.022-0.239-0.157-0.218-0.299
				l3.433-21.542c0.021-0.144,0.156-0.241,0.298-0.219l0,0c0.143,0.024,0.24,0.156,0.217,0.301L70.555,156.367z"/>
			<path fill="#727272" d="M90.588,145.042c0.107,0.099,0.114,0.264,0.018,0.371l0,0c-0.098,0.105-0.262,0.114-0.369,0.017
				l-16.134-14.684c-0.105-0.098-0.114-0.262-0.018-0.368l0,0c0.099-0.107,0.263-0.114,0.37-0.019L90.588,145.042z"/>
		</g>
		
			<rect x="63.95" y="169.569" transform="matrix(0.9884 -0.1521 0.1521 0.9884 -26.2666 12.4153)" opacity="0.2" fill="#010000" width="8.142" height="16.67"/>
		
			<rect x="62.953" y="168.838" transform="matrix(0.9883 -0.1522 0.1522 0.9883 -26.1896 12.2677)" fill="#F4F4F4" width="8.141" height="16.67"/>
		
			<rect x="37.214" y="70.638" transform="matrix(0.9884 -0.152 0.152 0.9884 -11.1264 22.1262)" fill="#FFEFD3" width="203.871" height="26.391"/>
		<g>
			<g>
				<polygon fill="#15CC40" points="261.916,95.048 240.318,98.372 219.714,61.881 237.855,59.091 				"/>
			</g>
			<g>
				<polygon fill="#FFFFF3" points="240.318,98.372 218.721,101.693 201.572,64.671 219.714,61.881 				"/>
			</g>
			<g>
				<polygon fill="#15CC40" points="218.721,101.693 197.122,105.015 183.431,67.463 201.572,64.671 				"/>
			</g>
			<g>
				<polygon fill="#FFFFF3" points="197.122,105.015 175.522,108.336 165.29,70.252 183.431,67.463 				"/>
			</g>
			<g>
				<polygon fill="#15CC40" points="175.522,108.336 153.925,111.659 147.146,73.042 165.29,70.252 				"/>
			</g>
			<g>
				<polygon fill="#FFFFF3" points="153.925,111.659 132.327,114.98 129.006,75.833 147.146,73.042 				"/>
			</g>
			<g>
				<polygon fill="#15CC40" points="132.327,114.98 110.729,118.301 110.863,78.623 129.006,75.833 				"/>
			</g>
			<g>
				<polygon fill="#FFFFF3" points="110.729,118.301 89.131,121.624 92.723,81.413 110.863,78.623 				"/>
			</g>
			<g>
				<polygon fill="#15CC40" points="89.131,121.624 67.533,124.946 74.581,84.204 92.723,81.413 				"/>
			</g>
			<g>
				<polygon fill="#FFFFF3" points="67.533,124.946 45.936,128.267 56.438,86.994 74.581,84.204 				"/>
			</g>
			<g>
				<polygon fill="#15CC40" points="45.936,128.267 24.336,131.589 38.298,89.783 56.438,86.994 				"/>
			</g>
		</g>
		<g>
			<path fill="#15CC40" d="M240.266,98.046c0.025,0.244,0.055,0.488,0.092,0.733c1.067,6.943,6.768,11.829,12.726,10.913
				c5.962-0.917,9.928-7.289,8.862-14.232c-0.039-0.245-0.084-0.488-0.134-0.728L240.266,98.046z"/>
		</g>
		<g>
			<path fill="#FFFFF3" d="M218.681,101.367c0.025,0.244,0.056,0.487,0.093,0.732c1.068,6.943,6.765,11.829,12.726,10.912
				c5.962-0.915,9.926-7.288,8.858-14.231c-0.037-0.245-0.082-0.486-0.13-0.728L218.681,101.367z"/>
		</g>
		<g>
			<path fill="#15CC40" d="M197.096,104.688c0.024,0.242,0.054,0.485,0.092,0.732c1.067,6.942,6.767,11.828,12.727,10.911
				c5.961-0.917,9.928-7.289,8.859-14.232c-0.037-0.245-0.083-0.485-0.132-0.726L197.096,104.688z"/>
		</g>
		<g>
			<path fill="#FFFFF3" d="M175.378,108.22c0.024,0.243,0.056,0.486,0.092,0.731c1.067,6.944,6.766,11.829,12.727,10.913
				c5.96-0.916,9.926-7.289,8.858-14.233c-0.036-0.243-0.082-0.485-0.131-0.726L175.378,108.22z"/>
		</g>
		<g>
			<path fill="#15CC40" d="M153.925,111.327c0.026,0.243,0.055,0.485,0.094,0.732c1.067,6.943,6.766,11.829,12.726,10.911
				c5.959-0.916,9.927-7.288,8.859-14.231c-0.038-0.245-0.084-0.487-0.133-0.727L153.925,111.327z"/>
		</g>
		<g>
			<path fill="#FFFFF3" d="M132.206,114.86c0.026,0.242,0.057,0.488,0.093,0.732c1.069,6.943,6.767,11.829,12.726,10.911
				c5.963-0.916,9.929-7.289,8.86-14.231c-0.038-0.245-0.082-0.486-0.131-0.726L132.206,114.86z"/>
		</g>
		<g>
			<path fill="#15CC40" d="M110.755,117.965c0.025,0.244,0.055,0.488,0.093,0.732c1.066,6.943,6.765,11.828,12.724,10.913
				c5.963-0.917,9.93-7.288,8.861-14.231c-0.037-0.246-0.083-0.486-0.133-0.728L110.755,117.965z"/>
		</g>
		<g>
			<path fill="#FFFFF3" d="M89.036,121.499c0.025,0.245,0.056,0.487,0.094,0.732c1.067,6.943,6.765,11.83,12.725,10.913
				c5.962-0.917,9.928-7.289,8.859-14.233c-0.037-0.243-0.082-0.485-0.132-0.724L89.036,121.499z"/>
		</g>
		<g>
			<path fill="#15CC40" d="M67.585,124.604c0.024,0.245,0.053,0.488,0.092,0.734c1.068,6.941,6.766,11.827,12.727,10.911
				c5.959-0.916,9.926-7.289,8.858-14.232c-0.037-0.244-0.083-0.486-0.131-0.727L67.585,124.604z"/>
		</g>
		<g>
			<path fill="#FFFFF3" d="M45.865,128.14c0.024,0.241,0.057,0.485,0.093,0.731c1.069,6.943,6.766,11.827,12.726,10.91
				c5.963-0.917,9.928-7.287,8.861-14.231c-0.039-0.245-0.083-0.486-0.133-0.725L45.865,128.14z"/>
		</g>
		<g>
			<path fill="#15CC40" d="M24.413,131.245c0.024,0.243,0.055,0.488,0.092,0.731c1.067,6.945,6.767,11.83,12.728,10.913
				s9.927-7.289,8.859-14.231c-0.037-0.245-0.083-0.486-0.131-0.727L24.413,131.245z"/>
		</g>
		<g opacity="0.05">
			<path d="M261.679,94.946l-21.547,3.313c0.025,0.245,0.055,0.49,0.093,0.733c1.068,6.945,6.768,11.829,12.727,10.913
				c5.96-0.917,9.926-7.289,8.858-14.232C261.771,95.429,261.727,95.188,261.679,94.946z"/>
			<path d="M218.547,101.58c0.024,0.245,0.055,0.489,0.093,0.732c1.069,6.944,6.765,11.83,12.727,10.914
				c5.961-0.917,9.927-7.288,8.858-14.233c-0.038-0.243-0.083-0.485-0.132-0.727L218.547,101.58z"/>
			<path d="M196.961,104.9c0.025,0.244,0.057,0.487,0.094,0.732c1.069,6.943,6.765,11.83,12.727,10.913
				c5.96-0.917,9.928-7.289,8.858-14.233c-0.038-0.243-0.082-0.485-0.132-0.727L196.961,104.9z"/>
			<path d="M175.372,108.415c-0.014-0.063-0.023-0.127-0.034-0.188l-21.547,3.312c0.025,0.246,0.056,0.489,0.093,0.733
				c1.067,6.944,6.767,11.83,12.726,10.914c5.492-0.846,9.287-6.322,9.016-12.606c1.572,6.179,6.892,10.352,12.438,9.498
				c5.96-0.916,9.927-7.288,8.858-14.231c-0.038-0.245-0.084-0.487-0.132-0.727L175.372,108.415z"/>
			<path d="M132.2,115.053c-0.012-0.062-0.021-0.125-0.032-0.188l-21.549,3.313c0.026,0.244,0.057,0.487,0.094,0.732
				c1.068,6.944,6.767,11.829,12.726,10.914c5.493-0.846,9.289-6.322,9.017-12.61c1.571,6.181,6.889,10.356,12.437,9.503
				c5.962-0.916,9.928-7.289,8.86-14.232c-0.038-0.246-0.083-0.487-0.133-0.727L132.2,115.053z"/>
			<path d="M89.031,121.694c-0.014-0.064-0.022-0.128-0.035-0.189l-21.546,3.314c0.024,0.243,0.055,0.488,0.093,0.732
				c1.068,6.944,6.768,11.83,12.727,10.911c5.491-0.844,9.288-6.319,9.016-12.605c1.571,6.18,6.89,10.354,12.436,9.5
				c5.962-0.917,9.928-7.289,8.858-14.232c-0.035-0.244-0.082-0.485-0.131-0.726L89.031,121.694z"/>
			<path d="M45.861,128.332c-0.014-0.062-0.023-0.124-0.034-0.188l-21.547,3.313c0.023,0.244,0.055,0.489,0.091,0.732
				c1.069,6.944,6.768,11.83,12.728,10.914c5.492-0.846,9.286-6.319,9.016-12.607c1.572,6.18,6.889,10.354,12.437,9.502
				c5.961-0.918,9.928-7.291,8.859-14.233c-0.039-0.245-0.083-0.487-0.132-0.727L45.861,128.332z"/>
		</g>
		<path fill="#FFEFD3" d="M256.919,35.322l-1.921-12.5c-0.733-4.771-5.196-8.044-9.97-7.31L15.325,50.839
			c-4.771,0.734-8.044,5.196-7.311,9.969l1.923,12.499L256.919,35.322z"/>
		<path opacity="0.2" d="M219.264,21.108c1.335,8.688-4.626,16.816-13.317,18.153L60.195,61.679
			c-8.69,1.337-16.821-4.628-18.156-13.314l0,0c-1.338-8.692,4.626-16.821,13.316-18.159L201.107,7.789
			C209.796,6.454,217.928,12.414,219.264,21.108L219.264,21.108z"/>
		<path fill="#15CC40" d="M218.404,15.521c1.337,8.689-4.626,16.819-13.316,18.154L59.336,56.093
			c-8.691,1.335-16.819-4.626-18.156-13.316l0,0c-1.339-8.69,4.626-16.819,13.316-18.157L200.248,2.205
			C208.938,0.869,217.067,6.829,218.404,15.521L218.404,15.521z"/>
		<path fill="#FFFFF3" d="M205.396,35.672L59.644,58.087c-9.778,1.504-18.956-5.226-20.46-15.003
			c-1.502-9.775,5.227-18.956,15.005-20.459L199.94,0.21c9.778-1.505,18.953,5.228,20.458,15.004
			C221.902,24.991,215.172,34.168,205.396,35.672z M54.803,26.615c-7.578,1.166-12.795,8.277-11.629,15.856
			c1.165,7.576,8.277,12.791,15.855,11.626l145.753-22.416c7.577-1.164,12.793-8.276,11.628-15.854
			c-1.166-7.578-8.278-12.793-15.855-11.63L54.803,26.615z"/>
		<g>
			<path fill="#0BAD29" d="M59.244,41.87c-0.68-4.417,2.062-8.077,6.479-8.756c4.437-0.684,8.154,1.984,8.833,6.4
				s-2.064,8.076-6.502,8.758C63.639,48.95,59.923,46.285,59.244,41.87z M71.347,40.007c-0.421-2.746-2.496-4.541-5.198-4.126
				c-2.702,0.416-4.12,2.748-3.698,5.495c0.42,2.723,2.477,4.543,5.179,4.127C70.33,45.087,71.767,42.732,71.347,40.007z"/>
			<path fill="#0BAD29" d="M87.981,44.937l-8.455-8.481l1.469,9.557l-3.119,0.479l-2.255-14.652l3.209-0.494l8.203,8.161
				L85.619,30.3l3.118-0.479l2.255,14.653L87.981,44.937z"/>
			<path fill="#0BAD29" d="M93.889,44.03l-2.253-14.653l3.12-0.48l1.83,11.907l6.194-0.953l0.424,2.747L93.889,44.03z"/>
			<path fill="#0BAD29" d="M105.377,42.261l-2.253-14.651l3.119-0.48l2.253,14.652L105.377,42.261z"/>
			<path fill="#0BAD29" d="M121.502,39.782l-8.457-8.479l1.469,9.555l-3.117,0.48l-2.254-14.653l3.207-0.494l8.205,8.161
				l-1.418-9.206l3.121-0.479l2.254,14.652L121.502,39.782z"/>
			<path fill="#0BAD29" d="M127.409,38.874l-2.254-14.652l10.371-1.596l0.421,2.746l-7.249,1.115l0.476,3.098l7.097-1.09
				l0.421,2.743l-7.096,1.092l0.512,3.318l7.249-1.115l0.422,2.746L127.409,38.874z"/>
			<path fill="#0BAD29" d="M144.532,34.126l1.326-2.634c1.197,0.918,2.941,1.571,4.963,1.262c1.712-0.264,2.426-1.183,2.298-2.018
				c-0.4-2.593-8.561,0.483-9.409-5.029c-0.374-2.438,1.423-4.784,4.872-5.313c2.329-0.36,4.37,0.047,6.025,1.163l-1.383,2.551
				c-1.355-0.915-3.015-1.177-4.509-0.946c-1.341,0.205-1.996,0.912-1.859,1.793c0.357,2.327,8.531-0.526,9.372,4.944
				c0.413,2.681-1.188,4.993-5.144,5.604C148.274,35.935,146.106,35.301,144.532,34.126z"/>
			<path fill="#0BAD29" d="M169.059,32.469l-0.945-6.153l-6.922,1.065l0.946,6.151l-3.118,0.479l-2.254-14.652l3.118-0.479
				l0.887,5.755l6.921-1.065l-0.886-5.756l3.141-0.482l2.254,14.654L169.059,32.469z"/>
			<path fill="#0BAD29" d="M173.248,24.335c-0.68-4.417,2.062-8.076,6.479-8.756c4.437-0.682,8.152,1.984,8.832,6.399
				c0.679,4.416-2.063,8.077-6.502,8.761C177.644,31.417,173.928,28.75,173.248,24.335z M185.353,22.474
				c-0.422-2.746-2.499-4.541-5.2-4.126c-2.702,0.415-4.119,2.747-3.697,5.494c0.419,2.724,2.476,4.544,5.179,4.128
				C184.335,27.555,185.771,25.198,185.353,22.474z"/>
			<path fill="#0BAD29" d="M191.881,28.958l-2.255-14.652l6.856-1.057c3.184-0.488,5.251,1.396,5.646,3.967
				c0.393,2.549-1.032,4.995-4.195,5.48l-3.734,0.574L195,28.477L191.881,28.958z M198.944,17.708
				c-0.19-1.23-1.229-1.836-2.458-1.646l-3.316,0.51l0.606,3.955l3.319-0.51C198.324,19.827,199.129,18.916,198.944,17.708z"/>
		</g>
		<g>
			<path fill="#FFFFFF" d="M59.043,40.574c-0.679-4.417,2.064-8.077,6.48-8.756c4.438-0.682,8.152,1.983,8.832,6.399
				c0.681,4.416-2.063,8.077-6.501,8.76C63.439,47.655,59.723,44.988,59.043,40.574z M71.148,38.71
				c-0.421-2.746-2.497-4.54-5.199-4.124s-4.119,2.747-3.698,5.493c0.419,2.726,2.476,4.545,5.179,4.129
				C70.132,43.793,71.566,41.435,71.148,38.71z"/>
			<path fill="#FFFFFF" d="M87.783,43.641l-8.458-8.481l1.471,9.556l-3.119,0.479l-2.255-14.652l3.208-0.493l8.204,8.162
				l-1.415-9.206l3.119-0.479l2.255,14.653L87.783,43.641z"/>
			<path fill="#FFFFFF" d="M93.688,42.733L91.437,28.08l3.119-0.479l1.831,11.906l6.195-0.952l0.422,2.746L93.688,42.733z"/>
			<path fill="#FFFFFF" d="M105.177,40.966l-2.252-14.653l3.119-0.479l2.254,14.653L105.177,40.966z"/>
			<path fill="#FFFFFF" d="M121.302,38.485l-8.456-8.48l1.47,9.558l-3.119,0.479l-2.253-14.654l3.207-0.493l8.203,8.162
				l-1.415-9.206l3.119-0.479l2.255,14.653L121.302,38.485z"/>
			<path fill="#FFFFFF" d="M127.21,37.58l-2.254-14.654l10.37-1.595l0.423,2.745l-7.25,1.116l0.477,3.097l7.096-1.092l0.422,2.745
				l-7.097,1.092l0.512,3.318l7.249-1.114l0.422,2.744L127.21,37.58z"/>
			<path fill="#FFFFFF" d="M144.333,32.832l1.327-2.635c1.197,0.918,2.939,1.572,4.962,1.261c1.713-0.263,2.426-1.182,2.299-2.016
				c-0.399-2.594-8.562,0.482-9.41-5.031c-0.374-2.438,1.423-4.782,4.872-5.313c2.328-0.357,4.369,0.047,6.026,1.163l-1.384,2.553
				c-1.355-0.916-3.015-1.177-4.509-0.948c-1.341,0.208-1.996,0.914-1.86,1.794c0.357,2.328,8.531-0.526,9.373,4.943
				c0.413,2.682-1.188,4.996-5.144,5.604C148.075,34.639,145.907,34.006,144.333,32.832z"/>
			<path fill="#FFFFFF" d="M168.861,31.171l-0.948-6.151l-6.92,1.064l0.945,6.153l-3.118,0.479l-2.255-14.652l3.119-0.479
				l0.886,5.754l6.92-1.063l-0.885-5.756l3.142-0.482l2.254,14.653L168.861,31.171z"/>
			<path fill="#FFFFFF" d="M173.049,23.039c-0.679-4.415,2.062-8.074,6.479-8.754c4.438-0.682,8.153,1.982,8.833,6.399
				c0.679,4.415-2.064,8.077-6.502,8.76C177.443,30.122,173.729,27.455,173.049,23.039z M185.153,21.178
				c-0.422-2.747-2.498-4.542-5.199-4.126c-2.702,0.416-4.12,2.747-3.698,5.494c0.419,2.726,2.476,4.543,5.178,4.129
				C184.136,26.259,185.572,23.901,185.153,21.178z"/>
			<path fill="#FFFFFF" d="M191.682,27.662l-2.255-14.652l6.854-1.055c3.187-0.491,5.253,1.396,5.648,3.967
				c0.392,2.55-1.031,4.994-4.195,5.479L194,21.976l0.8,5.207L191.682,27.662z M198.745,16.413
				c-0.189-1.231-1.228-1.837-2.459-1.647l-3.315,0.509l0.606,3.958l3.317-0.513C198.125,18.53,198.931,17.62,198.745,16.413z"/>
		</g>
		<path opacity="0.2" d="M254.158,109.529c0,0,23.023-11.869,23.939-11.157c0.915,0.711,3.155,4.809,3.155,4.809l8.544,5.728
			l-24.863,31.632l-0.953-6.197l-51.434,61.933l-28.173,7.534L254.158,109.529z"/>
		<path fill="#FF4040" d="M309.082,318.359c-2.638,12.994-10.055,22.456-22.456,22.456H64.829
			c-12.401,0-20.031-10.124-22.456-22.456L22.127,210.981c0-12.401,30.301,3.522,42.702,3.522H299.83c12.4,0,27.737-12.401,27.737,0
			L309.082,318.359z"/>
		<path opacity="0.1" d="M309.082,313.496c-2.638,12.993-10.055,22.457-22.456,22.457H64.829c-12.401,0-20.031-10.124-22.456-22.457
			L22.609,208.678c-0.312,0.625-0.482,1.385-0.482,2.303l20.246,107.378c2.425,12.332,10.055,22.456,22.456,22.456h221.797
			c12.401,0,19.818-9.462,22.456-22.456l18.485-103.855c0-1.128-0.129-2.047-0.369-2.794L309.082,313.496z"/>
		<path opacity="0.2" d="M327.567,214.503c0-2.127-0.479-3.484-1.289-4.34c-3.531,0.946-7.165,1.699-10.602,1.699h-3.495
			c-4.013,1.338-8.335,2.641-12.352,2.641H64.829c-3.368,0-8.061-1.178-13.105-2.641h-0.846c-6.053,0-15.89-2.986-25.097-5.366
			c-2.274,0.501-3.654,1.848-3.654,4.484l3.37,17.884H149.77c5.555,8.384,15.803,14.029,27.557,14.029
			c11.757,0,22.005-5.646,27.558-14.029h120.127L327.567,214.503z"/>
		<path fill="#FF5252" d="M341.131,212.859c0,4.28-3.471,7.753-7.751,7.753H20.717c-4.282,0-7.752-3.473-7.752-7.753l-2.736-13.209
			c0-4.281,3.472-7.755,7.754-7.755h318.133c4.28,0,7.752,3.474,7.752,7.755L341.131,212.859z"/>
		<path opacity="0.2" fill="#FFFFFF" d="M17.982,195.527h318.133c3.554,0,6.519,2.405,7.434,5.668l0.318-1.545
			c0-4.281-3.472-7.755-7.752-7.755H17.982c-4.282,0-7.754,3.474-7.754,7.755l0.319,1.545
			C11.464,197.932,14.426,195.527,17.982,195.527z"/>
		<path opacity="0.2" d="M144.7,206.253c0,5.166,1.239,10.029,3.394,14.358h57.909c2.154-4.329,3.395-9.192,3.395-14.358
			c0-5.164-1.24-10.027-3.395-14.358h-57.909C145.939,196.226,144.7,201.089,144.7,206.253z"/>
		<circle fill="#FF5252" cx="177.048" cy="206.253" r="28.388"/>
		<path opacity="0.2" d="M199.111,206.253c0,12.185-9.878,22.066-22.062,22.066c-12.19,0-22.064-9.882-22.064-22.066
			s9.874-22.063,22.064-22.063C189.233,184.19,199.111,194.069,199.111,206.253z"/>
		<g opacity="0.3">
			<g>
				<path d="M303.858,266.215c0,3.039-2.466,5.502-5.505,5.502l0,0c-3.037,0-5.496-2.463-5.496-5.502v-24.646
					c0-3.039,2.459-5.501,5.496-5.501l0,0c3.039,0,5.505,2.462,5.505,5.501V266.215z"/>
			</g>
			<g>
				<path d="M281.401,266.215c0,3.039-2.466,5.502-5.502,5.502l0,0c-3.04,0-5.499-2.463-5.499-5.502v-24.646
					c0-3.039,2.459-5.501,5.499-5.501l0,0c3.036,0,5.502,2.462,5.502,5.501V266.215z"/>
			</g>
			<g>
				<path d="M258.945,266.215c0,3.039-2.464,5.502-5.504,5.502l0,0c-3.037,0-5.497-2.463-5.497-5.502v-24.646
					c0-3.039,2.46-5.501,5.497-5.501l0,0c3.04,0,5.504,2.462,5.504,5.501V266.215z"/>
			</g>
			<g>
				<path d="M236.49,266.215c0,3.039-2.467,5.502-5.505,5.502l0,0c-3.036,0-5.497-2.463-5.497-5.502v-24.646
					c0-3.039,2.461-5.501,5.497-5.501l0,0c3.038,0,5.505,2.462,5.505,5.501V266.215z"/>
			</g>
			<g>
				<path d="M214.033,266.215c0,3.039-2.466,5.502-5.502,5.502l0,0c-3.04,0-5.5-2.463-5.5-5.502v-24.646
					c0-3.039,2.46-5.501,5.5-5.501l0,0c3.036,0,5.502,2.462,5.502,5.501V266.215z"/>
			</g>
			<g>
				<path d="M191.577,266.215c0,3.039-2.464,5.502-5.505,5.502l0,0c-3.036,0-5.496-2.463-5.496-5.502v-24.646
					c0-3.039,2.46-5.501,5.496-5.501l0,0c3.041,0,5.505,2.462,5.505,5.501V266.215z"/>
			</g>
			<g>
				<path d="M169.122,266.215c0,3.039-2.468,5.502-5.505,5.502l0,0c-3.038,0-5.498-2.463-5.498-5.502v-24.646
					c0-3.039,2.46-5.501,5.498-5.501l0,0c3.037,0,5.505,2.462,5.505,5.501V266.215z"/>
			</g>
			<g>
				<path d="M146.665,266.215c0,3.039-2.466,5.502-5.503,5.502l0,0c-3.039,0-5.498-2.463-5.498-5.502v-24.646
					c0-3.039,2.459-5.501,5.498-5.501l0,0c3.037,0,5.503,2.462,5.503,5.501V266.215z"/>
			</g>
			<g>
				<path d="M124.209,266.215c0,3.039-2.466,5.502-5.505,5.502l0,0c-3.036,0-5.497-2.463-5.497-5.502v-24.646
					c0-3.039,2.461-5.501,5.497-5.501l0,0c3.039,0,5.505,2.462,5.505,5.501V266.215z"/>
			</g>
			<g>
				<path d="M101.751,266.215c0,3.039-2.465,5.502-5.502,5.502l0,0c-3.038,0-5.499-2.463-5.499-5.502v-24.646
					c0-3.039,2.461-5.501,5.499-5.501l0,0c3.037,0,5.502,2.462,5.502,5.501V266.215z"/>
			</g>
			<g>
				<path d="M79.297,266.215c0,3.039-2.466,5.502-5.503,5.502l0,0c-3.039,0-5.499-2.463-5.499-5.502v-24.646
					c0-3.039,2.46-5.501,5.499-5.501l0,0c3.037,0,5.503,2.462,5.503,5.501V266.215z"/>
			</g>
			<g>
				<path d="M56.84,266.215c0,3.039-2.465,5.502-5.504,5.502l0,0c-3.036,0-5.497-2.463-5.497-5.502v-24.646
					c0-3.039,2.461-5.501,5.497-5.501l0,0c3.039,0,5.504,2.462,5.504,5.501V266.215z"/>
			</g>
		</g>
		<g opacity="0.3">
			<g>
				<path d="M281.401,314.408c0,3.039-2.466,5.501-5.502,5.501l0,0c-3.04,0-5.499-2.462-5.499-5.501v-24.646
					c0-3.038,2.459-5.501,5.499-5.501l0,0c3.036,0,5.502,2.463,5.502,5.501V314.408z"/>
			</g>
			<g>
				<path d="M258.945,314.408c0,3.039-2.464,5.501-5.504,5.501l0,0c-3.037,0-5.497-2.462-5.497-5.501v-24.646
					c0-3.038,2.46-5.501,5.497-5.501l0,0c3.04,0,5.504,2.463,5.504,5.501V314.408z"/>
			</g>
			<g>
				<path d="M236.49,314.408c0,3.039-2.467,5.501-5.505,5.501l0,0c-3.036,0-5.497-2.462-5.497-5.501v-24.646
					c0-3.038,2.461-5.501,5.497-5.501l0,0c3.038,0,5.505,2.463,5.505,5.501V314.408z"/>
			</g>
			<g>
				<path d="M214.033,314.408c0,3.039-2.466,5.501-5.502,5.501l0,0c-3.04,0-5.5-2.462-5.5-5.501v-24.646
					c0-3.038,2.46-5.501,5.5-5.501l0,0c3.036,0,5.502,2.463,5.502,5.501V314.408z"/>
			</g>
			<g>
				<path d="M191.577,314.408c0,3.039-2.464,5.501-5.505,5.501l0,0c-3.036,0-5.496-2.462-5.496-5.501v-24.646
					c0-3.038,2.46-5.501,5.496-5.501l0,0c3.041,0,5.505,2.463,5.505,5.501V314.408z"/>
			</g>
			<g>
				<path d="M169.122,314.408c0,3.039-2.468,5.501-5.505,5.501l0,0c-3.038,0-5.498-2.462-5.498-5.501v-24.646
					c0-3.038,2.46-5.501,5.498-5.501l0,0c3.037,0,5.505,2.463,5.505,5.501V314.408z"/>
			</g>
			<g>
				<path d="M146.665,314.408c0,3.039-2.466,5.501-5.503,5.501l0,0c-3.039,0-5.498-2.462-5.498-5.501v-24.646
					c0-3.038,2.459-5.501,5.498-5.501l0,0c3.037,0,5.503,2.463,5.503,5.501V314.408z"/>
			</g>
			<g>
				<path d="M124.209,314.408c0,3.039-2.466,5.501-5.505,5.501l0,0c-3.036,0-5.497-2.462-5.497-5.501v-24.646
					c0-3.038,2.461-5.501,5.497-5.501l0,0c3.039,0,5.505,2.463,5.505,5.501V314.408z"/>
			</g>
			<g>
				<path d="M101.751,314.408c0,3.039-2.465,5.501-5.502,5.501l0,0c-3.038,0-5.499-2.462-5.499-5.501v-24.646
					c0-3.038,2.461-5.501,5.499-5.501l0,0c3.037,0,5.502,2.463,5.502,5.501V314.408z"/>
			</g>
			<g>
				<path d="M79.297,314.408c0,3.039-2.466,5.501-5.503,5.501l0,0c-3.039,0-5.499-2.462-5.499-5.501v-24.646
					c0-3.038,2.46-5.501,5.499-5.501l0,0c3.037,0,5.503,2.463,5.503,5.501V314.408z"/>
			</g>
		</g>
		<path opacity="0.1" d="M90.559,340.815h196.067c12.401,0,19.818-9.462,22.456-22.456l16.865-94.766
			C251.697,260.718,146.791,313.094,90.559,340.815z"/>
		<g>
			<path fill="#4D4756" d="M188.547,217.75c-5.729,6.937-15.99,7.914-22.926,2.189l0,0c-6.934-5.728-7.914-15.991-2.187-22.928
				L267.692,68.757c5.726-6.932,12.626-3.839,19.56,1.888l0,0c6.936,5.725,11.277,11.916,5.55,18.852L188.547,217.75z"/>
			<polygon opacity="0.2" points="193.368,199.473 180.468,188.822 267.35,81.607 280.246,92.258 			"/>
			<path fill="#FF5252" d="M184.658,211.402c-3.252,3.938-9.077,4.492-13.013,1.243c-3.938-3.253-4.495-9.078-1.243-13.014
				c3.252-3.938,9.077-4.492,13.016-1.24C187.351,201.641,187.909,207.465,184.658,211.402z"/>
		</g>
	</g>
</g>
</svg>
