<?xml version="1.0" encoding="UTF-8" standalone="no"?>
<svg xmlns:rdf="http://www.w3.org/1999/02/22-rdf-syntax-ns#" xmlns="http://www.w3.org/2000/svg" version="1.1" xml:space="preserve" height="89.8" width="105" enable-background="new 0 0 263.95 235.47" y="0px" x="0px" xmlns:cc="http://creativecommons.org/ns#" xmlns:dc="http://purl.org/dc/elements/1.1/" viewBox="0 0 105.26464 89.753639">
<g transform="translate(8.02 -145)">
	<g transform="matrix(1.13,0,0,1.13,-7.09,-30.6)">
		<ellipse d="m 264,221 c 0,7.78722 -55.96441,14.1 -125,14.1 -69.035594,0 -125,-6.31278 -125,-14.1 0,-7.78722 55.964406,-14.1 125,-14.1 69.03559,0 125,6.31278 125,14.1 z" rx="125" transform="matrix(.352 0 0 .48 -.6 122)" ry="14.1" cy="221" cx="139" fill="#ededed"/>
		<g fill="#878787" transform="matrix(.48 0 0 .48 -34.3 122)">
			<path d="m115 196c0 1.93-1.56 3.5-3.5 3.5h-10.1c-1.93 0-3.5-1.56-3.5-3.5v-98.9c0-1.93 1.56-3.5 3.5-3.5h10.1c1.93 0 3.5 1.57 3.5 3.5v98.9z"/>
			<path d="m250 196c0 1.93-1.56 3.5-3.5 3.5h-10.1c-1.93 0-3.5-1.56-3.5-3.5v-98.9c0-1.93 1.56-3.5 3.5-3.5h10.1c1.93 0 3.5 1.57 3.5 3.5v98.9z"/>
		</g>
		<path fill="#ededed" d="m81.7 156h-65.4c-0.927 0-1.68 0.75-1.68 1.68v42.6h0.000479v0.96c0 2.99 2.5 4.85 5.59 4.85h57.6c3.09 0 5.59-1.86 5.59-4.85v-0.96-11.6-31c0-0.927-0.75-1.68-1.68-1.68z"/>
		<path fill="#ededed" d="m83.3 227c0 0.926-0.751 1.68-1.68 1.68h-65.4c-0.927 0-1.68-0.751-1.68-1.68v-69.9c0-0.927 0.75-1.68 1.68-1.68h65.4c0.927 0 1.68 0.75 1.68 1.68v69.9z"/>
		<path opacity=".1" d="m81.7 157h-65.4c-0.927 0-1.68 0.751-1.68 1.68v42.6h0.000479v0.959c0 2.99 2.5 4.85 5.59 4.85h57.6c3.09 0 5.59-1.86 5.59-4.85v-0.959-11.6-31c0-0.926-0.75-1.68-1.68-1.68z"/>
		<path fill="#f6f6f6" d="m81.7 156h-65.4c-0.927 0-1.68 0.75-1.68 1.68v42.6h0.000479v0.96c0 2.99 2.5 4.85 5.59 4.85h57.6c3.09 0 5.59-1.86 5.59-4.85v-0.96-11.6-31c0-0.927-0.75-1.68-1.68-1.68z"/><g fill="#878787">
		<circle d="m 194.8,175 c 0,11.48752 -9.31248,20.8 -20.8,20.8 -11.48752,0 -20.8,-9.31248 -20.8,-20.8 0,-11.48752 9.31248,-20.8 20.8,-20.8 11.48752,0 20.8,9.31248 20.8,20.8 z" transform="matrix(.48 0 0 .48 -34.3 122)" cy="175" cx="174" r="20.8"/>
		<path d="m39.2 206h-19.7c-3.14 0-5.69-2.55-5.69-5.69h0.48c0 2.87 2.34 5.21 5.21 5.21h19.7v0.48z"/>
		<path d="m78.2 206h-19.7v-0.48h19.7c2.87 0 5.21-2.34 5.21-5.21h0.48c0 3.14-2.55 5.69-5.69 5.69z"/>
		</g><circle d="m 192.6,175 c 0,10.2725 -8.3275,18.6 -18.6,18.6 -10.2725,0 -18.6,-8.3275 -18.6,-18.6 0,-10.2725 8.3275,-18.6 18.6,-18.6 10.2725,0 18.6,8.3275 18.6,18.6 z" transform="matrix(.48 0 0 .48 -34.3 122)" cy="175" cx="174" r="18.6" fill="#50ceff"/>
		<circle d="m 190.3,175 c 0,9.00224 -7.29776,16.3 -16.3,16.3 -9.00224,0 -16.3,-7.29776 -16.3,-16.3 0,-9.00224 7.29776,-16.3 16.3,-16.3 9.00224,0 16.3,7.29776 16.3,16.3 z" transform="matrix(.48 0 0 .48 -34.3 122)" cy="175" cx="174" r="16.3" fill="#ededed"/>
		<rect height="1.68" width="68.9" y="222" x="14.4" fill="#50ceff"/>
		<rect opacity=".2" height=".374" width="68.9" y="222" x="14.4"/>
		<path opacity=".05" d="m19.4 156h-3.17c-0.927 0-1.68 0.75-1.68 1.68v69.9c0 0.926 0.75 1.68 1.68 1.68h3.17v-73.2z"/>
		<path opacity=".05" d="m78.5 156h3.17c0.927 0 1.68 0.75 1.68 1.68v69.9c0 0.926-0.751 1.68-1.68 1.68h-3.17v-73.2z"/>
		<g fill="#3dc2ea" transform="matrix(.48 0 0 .48 -34.3 122)">
			<path d="m174 185c-5.17 0-9.37-4.2-9.37-9.37 0-2.41 0.919-4.71 2.6-6.46 0.55-0.574 1.46-0.596 2.03-0.048 0.573 0.547 0.594 1.46 0.048 2.03-1.16 1.22-1.8 2.81-1.8 4.48 0 3.58 2.92 6.5 6.5 6.5s6.5-2.92 6.5-6.5c0-1.67-0.637-3.26-1.8-4.48-0.548-0.575-0.523-1.48 0.048-2.03 0.575-0.548 1.48-0.526 2.03 0.048 1.67 1.75 2.6 4.05 2.6 6.46 0 5.17-4.2 9.37-9.37 9.37z"/>
			<path d="m175 175c0 0.817-0.665 1.48-1.48 1.48-0.818 0-1.48-0.665-1.48-1.48v-9.48c0-0.819 0.662-1.48 1.48-1.48 0.817 0 1.48 0.665 1.48 1.48v9.48z"/>
		</g>
		<path opacity=".05" d="m43.4 211c3.06 3.06 8.01 3.06 11.1 0 3.06-3.06 3.06-8.01 0-11.1l-11.1 11z"/>
		<g fill="#878787" transform="matrix(.48 0 0 .48 -34.3 122)">
			<path d="m120 69.9v10.4c0 0.612 0.496 1.11 1.1 1.11 0.61 0 1.11-0.496 1.11-1.11v-10.4h-2.21z"/>
			<path d="m125 69.9v10.4c0 0.612 0.496 1.11 1.1 1.11 0.612 0 1.11-0.496 1.11-1.11v-10.4h-2.21z"/>
			<path d="m129 69.9v10.4c0 0.612 0.496 1.11 1.1 1.11 0.612 0 1.11-0.496 1.11-1.11v-10.4h-2.21z"/>
		</g>
		<g fill="#878787" transform="matrix(.48 0 0 .48 -34.3 122)">
			<path d="m217 69.9v10.4c0 0.612 0.498 1.11 1.11 1.11 0.61 0 1.11-0.496 1.11-1.11v-10.4h-2.21z"/>
			<path d="m221 69.9v10.4c0 0.612 0.498 1.11 1.11 1.11 0.611 0 1.11-0.496 1.11-1.11v-10.4h-2.22z"/>
			<path d="m226 69.9v10.4c0 0.612 0.495 1.11 1.11 1.11 0.611 0 1.11-0.496 1.11-1.11v-10.4h-2.21z"/>
		</g>
		<path opacity=".15" d="m14.6 226v1.11c0 0.926 0.75 1.68 1.68 1.68h3.17 59.1 3.17c0.927 0 1.68-0.751 1.68-1.68v-1.11h-68.8z"/>
		<path opacity=".15" d="m36 156v1.42c0 1.3 1.06 2.36 2.36 2.36h21.1c1.3 0 2.36-1.06 2.36-2.36v-1.42h-25.8z"/>
		<path opacity="0.03" d="m81.7 156-61.5 50.1h57.6c3.09 0 5.59-1.86 5.59-4.85v-0.96-11.6-31c0-0.927-0.75-1.68-1.68-1.68z"/>
	</g>
	<g transform="matrix(.48 0 0 .48 -101 140)">
			<path fill="#fcd22e" d="m220 47.9c3.78 9.97 11.4 18 21.1 22.4-9.65 4.36-17.3 12.4-21.1 22.4-3-9.9-11-18-21-22.4 9.66-4.37 17.3-12.4 21.1-22.4z"/>
			<path fill="#fd7600" d="m220 59c1.9 5.02 5.74 9.07 10.6 11.3-4.88 2.19-8.72 6.26-10.6 11.3-1.9-5.02-5.74-9.09-10.6-11.3 4.86-2.21 8.7-6.27 10.6-11.3z"/>
			<path fill="#fcd22e" d="m204 32c1.85 4.88 5.58 8.82 10.3 11-4.72 2.13-8.44 6.08-10.3 11-1.85-4.88-5.57-8.82-10.3-11 4.72-2.14 8.44-6.08 10.3-11z"/>
			<path fill="#fd7600" d="m204 37.5c0.932 2.45 2.81 4.44 5.19 5.52-2.38 1.07-4.26 3.06-5.19 5.52-0.926-2.46-2.8-4.44-5.18-5.52 2.38-1.08 4.26-3.07 5.18-5.52z"/>
			<path fill="#fcd22e" d="m239 25.7c2.67 7.03 8.05 12.7 14.9 15.8-6.81 3.08-12.2 8.78-14.9 15.8-2.67-7.03-8.05-12.7-14.9-15.8 6.81-3.08 12.2-8.78 14.9-15.8z"/>
			<path fill="#fd7600" d="m239 33.5c1.34 3.54 4.06 6.4 7.49 7.96-3.44 1.54-6.15 4.42-7.49 7.96-1.34-3.54-4.05-6.42-7.48-7.96 3.44-1.56 6.14-4.42 7.48-7.96z"/>
	</g>
</g>
</svg>
