<?xml version="1.0" encoding="utf-8"?>
<!-- Generator: Adobe Illustrator 16.0.0, SVG Export Plug-In . SVG Version: 6.00 Build 0)  -->
<!DOCTYPE svg PUBLIC "-//W3C//DTD SVG 1.1//EN" "http://www.w3.org/Graphics/SVG/1.1/DTD/svg11.dtd">
<svg version="1.1" id="Layer_1" xmlns="http://www.w3.org/2000/svg" xmlns:xlink="http://www.w3.org/1999/xlink" x="0px" y="0px"
	 width="25.666px" height="25.666px" viewBox="0 0 25.666 25.666" enable-background="new 0 0 25.666 25.666" xml:space="preserve">
<path fill="#2D8CD3" d="M12.833,0C5.748,0,0,5.747,0,12.833s5.748,12.833,12.833,12.833c7.078,0,12.833-5.747,12.833-12.833
	S19.911,0,12.833,0z M4.542,11.948c-0.717,0-1.298-0.581-1.298-1.299s0.581-1.298,1.298-1.298c0.71,0,1.29,0.58,1.29,1.298
	S5.252,11.948,4.542,11.948z M5.633,14.169c0-1.098,0.893-1.993,1.993-1.993c1.099,0,1.983,0.893,1.983,1.993
	c0,1.098-0.885,1.983-1.983,1.983C6.526,16.152,5.633,15.267,5.633,14.169z M11.169,21.176c-1.352,0-2.452-1.099-2.452-2.45
	s1.1-2.451,2.452-2.451c1.351,0,2.451,1.1,2.451,2.451S12.52,21.176,11.169,21.176z M14.764,16.152
	c-1.129,0-2.045-0.914-2.045-2.044c0-1.131,0.915-2.048,2.045-2.048c1.132,0,2.047,0.917,2.047,2.048S15.896,16.152,14.764,16.152z
	 M17.849,11.833c-0.817,0-1.472-0.665-1.472-1.473c0-0.811,0.655-1.468,1.472-1.468c0.809,0,1.466,0.657,1.466,1.468
	C19.315,11.168,18.658,11.833,17.849,11.833z M20.284,8.19c-0.588,0-1.06-0.473-1.06-1.061s0.472-1.069,1.06-1.069
	c0.589,0,1.068,0.481,1.068,1.069S20.874,8.19,20.284,8.19z"/>
</svg>
