<svg xmlns="http://www.w3.org/2000/svg" xmlns:xlink="http://www.w3.org/1999/xlink" viewBox="430 347 64.8 72">
  <defs>
    <style>
      .cls-1 {
        fill: #e7e7e7;
      }

      .cls-2 {
        clip-path: url(#clip-path);
      }

      .cls-3 {
        fill: none;
      }

      .cls-4 {
        fill: #ff8200;
      }

      .cls-5 {
        fill: #100030;
        opacity: 0.3;
      }

      .cls-6 {
        fill: #fff;
      }
    </style>
    <clipPath id="clip-path">
      <rect id="_version_:_1.5.0_viewSource_:_x_:_0_y_:_0_width_:_36_height_:_40_resources_:_clipPaths_:_filters_:_gradients_:_masks_:_patterns_:_children_:_style_:_stroke_:_type_:_none_fill_:_type_:_none_name_:_type_:_shape_shape_:_type_:_rect_x_:_0_y_:_0_width_:_36_height_:_40_style_:_stroke_:_type_:_none_fill_:_type_:_solid_color_:_mode_:_RGB_value_:_r_:_255_g_:_130_b_:_0_name_:_type_:_shape_shape_:_type_:_circle_cx_:_18_cy_:_20.003_r_:_18_style_:_stroke_:_type_:_none_fill_:_type_:_solid_color_:_mode_:_RGB_value_:_r_:_16_g_:_0_b_:_48_opacity_:_0.3_name_:_type_:_shape_shape_:_type_:_path_path_:_M_6.434_21.3_C_9.18_25.94_8.228_30.487_18_30.487_c_9.234_0_8.438_-6.557_11.566_-9.185_V_6.211_a_17.989_17.989_0_0_0_-23.133_0_Z_style_:_stroke_:_type_:_none_fill_:_type_:_solid_color_:_mode_:_RGB_value_:_r_:_255_g_:_255_b_:_255_name_:_type_:_shape_shape_:_type_:_path_path_:_M_18_8.437_a_11.566_11.566_0_1_0_8.179_3.387_A_11.566_11.566_0_0_0_18_8.437_Z_M_8.085_20.711_h_4.046_a_20.618_20.618_0_0_0_0.389_3.42_H_8.955_a_9.84_9.84_0_0_1_-0.87_-3.42_Z_m_10.722_-6.58_V_10.389_c_1.076_0.461_2.011_1.83_2.645_3.743_Z_m_3.077_1.615_a_19.908_19.908_0_0_1_0.41_3.353_H_18.807_V_15.746_Z_m_-4.69_-5.357_v_3.742_H_14.549_c_0.631_-1.913_1.568_-3.281_2.645_-3.743_Z_m_0_5.357_V_19.1_H_13.708_a_19.967_19.967_0_0_1_0.409_-3.353_Z_M_12.139_19.1_H_8.1_a_9.893_9.893_0_0_1_0.914_-3.353_h_3.533_a_20.492_20.492_0_0_0_-0.408_3.353_Z_m_1.56_1.612_h_3.494_v_3.42_h_-3.1_a_20.146_20.146_0_0_1_-0.39_-3.42_Z_m_3.494_5.033_v_3.874_c_-1.1_-0.473_-2.053_-1.893_-2.686_-3.874_Z_m_1.613_3.874_V_25.744_h_2.686_c_-0.634_1.981_-1.585_3.4_-2.686_3.874_Z_m_0_-5.488_V_20.71_H_22.3_a_20.323_20.323_0_0_1_-0.389_3.42_Z_m_5.062_-3.42_h_4.046_a_9.882_9.882_0_0_1_-0.869_3.42_H_23.48_a_20.619_20.619_0_0_0_0.389_-3.419_Z_M_23.861_19.1_a_20.793_20.793_0_0_0_-0.408_-3.353_h_3.533_A_9.86_9.86_0_0_1_27.9_19.1_Z_m_2.162_-4.966_H_23.04_a_11.627_11.627_0_0_0_-1.706_-3.5_a_9.955_9.955_0_0_1_4.689_3.5_Z_m_-11.353_-3.5_a_11.6_11.6_0_0_0_-1.706_3.5_H_9.977_a_9.948_9.948_0_0_1_4.693_-3.5_Z_M_9.884_25.744_h_3.04_a_11.779_11.779_0_0_0_1.744_3.628_a_9.969_9.969_0_0_1_-4.784_-3.628_Z_m_11.447_3.628_a_11.731_11.731_0_0_0_1.745_-3.628_h_3.04_a_9.965_9.965_0_0_1_-4.786_3" data-name="{
	&quot;version&quot;: &quot;1.5.0&quot;,
	&quot;viewSource&quot;: {
		&quot;x&quot;: 0,
		&quot;y&quot;: 0,
		&quot;width&quot;: 36,
		&quot;height&quot;: 40
	},
	&quot;resources&quot;: {
		&quot;clipPaths&quot;: {},
		&quot;filters&quot;: {},
		&quot;gradients&quot;: {},
		&quot;masks&quot;: {},
		&quot;patterns&quot;: {}
	},
	&quot;children&quot;: [
		{
			&quot;style&quot;: {
				&quot;stroke&quot;: {
					&quot;type&quot;: &quot;none&quot;
				},
				&quot;fill&quot;: {
					&quot;type&quot;: &quot;none&quot;
				}
			},
			&quot;name&quot;: &quot;&quot;,
			&quot;type&quot;: &quot;shape&quot;,
			&quot;shape&quot;: {
				&quot;type&quot;: &quot;rect&quot;,
				&quot;x&quot;: 0,
				&quot;y&quot;: 0,
				&quot;width&quot;: 36,
				&quot;height&quot;: 40
			}
		},
		{
			&quot;style&quot;: {
				&quot;stroke&quot;: {
					&quot;type&quot;: &quot;none&quot;
				},
				&quot;fill&quot;: {
					&quot;type&quot;: &quot;solid&quot;,
					&quot;color&quot;: {
						&quot;mode&quot;: &quot;RGB&quot;,
						&quot;value&quot;: {
							&quot;r&quot;: 255,
							&quot;g&quot;: 130,
							&quot;b&quot;: 0
						}
					}
				}
			},
			&quot;name&quot;: &quot;&quot;,
			&quot;type&quot;: &quot;shape&quot;,
			&quot;shape&quot;: {
				&quot;type&quot;: &quot;circle&quot;,
				&quot;cx&quot;: 18,
				&quot;cy&quot;: 20.003,
				&quot;r&quot;: 18
			}
		},
		{
			&quot;style&quot;: {
				&quot;stroke&quot;: {
					&quot;type&quot;: &quot;none&quot;
				},
				&quot;fill&quot;: {
					&quot;type&quot;: &quot;solid&quot;,
					&quot;color&quot;: {
						&quot;mode&quot;: &quot;RGB&quot;,
						&quot;value&quot;: {
							&quot;r&quot;: 16,
							&quot;g&quot;: 0,
							&quot;b&quot;: 48
						}
					}
				},
				&quot;opacity&quot;: 0.3
			},
			&quot;name&quot;: &quot;&quot;,
			&quot;type&quot;: &quot;shape&quot;,
			&quot;shape&quot;: {
				&quot;type&quot;: &quot;path&quot;,
				&quot;path&quot;: &quot;M 6.434 21.3 C 9.18 25.94 8.228 30.487 18 30.487 c 9.234 0 8.438 -6.557 11.566 -9.185 V 6.211 a 17.989 17.989 0 0 0 -23.133 0 Z&quot;
			}
		},
		{
			&quot;style&quot;: {
				&quot;stroke&quot;: {
					&quot;type&quot;: &quot;none&quot;
				},
				&quot;fill&quot;: {
					&quot;type&quot;: &quot;solid&quot;,
					&quot;color&quot;: {
						&quot;mode&quot;: &quot;RGB&quot;,
						&quot;value&quot;: {
							&quot;r&quot;: 255,
							&quot;g&quot;: 255,
							&quot;b&quot;: 255
						}
					}
				}
			},
			&quot;name&quot;: &quot;&quot;,
			&quot;type&quot;: &quot;shape&quot;,
			&quot;shape&quot;: {
				&quot;type&quot;: &quot;path&quot;,
				&quot;path&quot;: &quot;M 18 8.437 a 11.566 11.566 0 1 0 8.179 3.387 A 11.566 11.566 0 0 0 18 8.437 Z M 8.085 20.711 h 4.046 a 20.618 20.618 0 0 0 0.389 3.42 H 8.955 a 9.84 9.84 0 0 1 -0.87 -3.42 Z m 10.722 -6.58 V 10.389 c 1.076 0.461 2.011 1.83 2.645 3.743 Z m 3.077 1.615 a 19.908 19.908 0 0 1 0.41 3.353 H 18.807 V 15.746 Z m -4.69 -5.357 v 3.742 H 14.549 c 0.631 -1.913 1.568 -3.281 2.645 -3.743 Z m 0 5.357 V 19.1 H 13.708 a 19.967 19.967 0 0 1 0.409 -3.353 Z M 12.139 19.1 H 8.1 a 9.893 9.893 0 0 1 0.914 -3.353 h 3.533 a 20.492 20.492 0 0 0 -0.408 3.353 Z m 1.56 1.612 h 3.494 v 3.42 h -3.1 a 20.146 20.146 0 0 1 -0.39 -3.42 Z m 3.494 5.033 v 3.874 c -1.1 -0.473 -2.053 -1.893 -2.686 -3.874 Z m 1.613 3.874 V 25.744 h 2.686 c -0.634 1.981 -1.585 3.4 -2.686 3.874 Z m 0 -5.488 V 20.71 H 22.3 a 20.323 20.323 0 0 1 -0.389 3.42 Z m 5.062 -3.42 h 4.046 a 9.882 9.882 0 0 1 -0.869 3.42 H 23.48 a 20.619 20.619 0 0 0 0.389 -3.419 Z M 23.861 19.1 a 20.793 20.793 0 0 0 -0.408 -3.353 h 3.533 A 9.86 9.86 0 0 1 27.9 19.1 Z m 2.162 -4.966 H 23.04 a 11.627 11.627 0 0 0 -1.706 -3.5 a 9.955 9.955 0 0 1 4.689 3.5 Z m -11.353 -3.5 a 11.6 11.6 0 0 0 -1.706 3.5 H 9.977 a 9.948 9.948 0 0 1 4.693 -3.5 Z M 9.884 25.744 h 3.04 a 11.779 11.779 0 0 0 1.744 3.628 a 9.969 9.969 0 0 1 -4.784 -3.628 Z m 11.447 3.628 a 11.731 11.731 0 0 0 1.745 -3.628 h 3.04 a 9.965 9.965 0 0 1 -4.786 3" class="cls-1" width="64.8" height="72" rx="10" transform="translate(532 227)"/>
    </clipPath>
  </defs>
  <g id="Mask_Group_1" data-name="Mask Group 1" class="cls-2" transform="translate(-102 120)">
    <g id="domain" data-name="domain" transform="translate(532 227)">
      <rect id="Rectangle_1" data-name="Rectangle 1" class="cls-3" width="64.8" height="72"/>
      <circle id="Ellipse_1" data-name="Ellipse 1" class="cls-4" cx="32.4" cy="32.4" r="32.4" transform="translate(0 3.605)"/>
      <path id="Path_1" data-name="Path 1" class="cls-5" d="M11.581,38.34C16.524,46.692,14.81,54.877,32.4,54.877c16.621,0,15.188-11.8,20.819-16.533V11.18a32.38,32.38,0,0,0-41.639,0Z"/>
      <path id="Path_2" data-name="Path 2" class="cls-6" d="M32.4,15.187a20.819,20.819,0,1,0,14.722,6.1A20.818,20.818,0,0,0,32.4,15.187ZM14.553,37.28h7.283a37.112,37.112,0,0,0,.7,6.156H16.119a17.712,17.712,0,0,1-1.566-6.156Zm19.3-11.844V18.7c1.937.83,3.62,3.294,4.761,6.737Zm5.539,2.907a35.835,35.835,0,0,1,.738,6.035H33.853V28.343ZM30.949,18.7v6.736H26.188c1.136-3.443,2.822-5.906,4.761-6.737Zm0,9.643V34.38H24.674a35.941,35.941,0,0,1,.736-6.035Zm-9.1,6.037H14.58a17.807,17.807,0,0,1,1.645-6.035h6.359a36.886,36.886,0,0,0-.734,6.035Zm2.808,2.9h6.289v6.156h-5.58a36.262,36.262,0,0,1-.7-6.156Zm6.289,9.059v6.973c-1.98-.851-3.7-3.407-4.835-6.973Zm2.9,6.973V46.339h4.835c-1.141,3.566-2.853,6.12-4.835,6.973Zm0-9.878V37.278H40.14a36.581,36.581,0,0,1-.7,6.156Zm9.112-6.156h7.283a17.788,17.788,0,0,1-1.564,6.156H42.264a37.114,37.114,0,0,0,.7-6.154Zm-.013-2.9a37.427,37.427,0,0,0-.734-6.035h6.359A17.748,17.748,0,0,1,50.22,34.38Zm3.892-8.939H41.472a20.928,20.928,0,0,0-3.071-6.3,17.919,17.919,0,0,1,8.44,6.3Zm-20.435-6.3a20.88,20.88,0,0,0-3.071,6.3H17.959a17.906,17.906,0,0,1,8.447-6.3Zm-8.615,27.2h5.472A21.2,21.2,0,0,0,26.4,52.87a17.944,17.944,0,0,1-8.611-6.53Zm20.6,6.53a21.116,21.116,0,0,0,3.141-6.53h5.472a17.937,17.937,0,0,1-8.615,6.53Z"/>
    </g>
  </g>
</svg>
