<?xml version="1.0" encoding="utf-8"?>
<!-- Generator: Adobe Illustrator 16.0.0, SVG Export Plug-In . SVG Version: 6.00 Build 0)  -->
<!DOCTYPE svg PUBLIC "-//W3C//DTD SVG 1.1//EN" "http://www.w3.org/Graphics/SVG/1.1/DTD/svg11.dtd">
<svg version="1.1" xmlns="http://www.w3.org/2000/svg" xmlns:xlink="http://www.w3.org/1999/xlink" x="0px" y="0px"
	 width="168.576px" height="155.808px" viewBox="0 0 168.576 155.808" enable-background="new 0 0 168.576 155.808"
	 xml:space="preserve">
<g id="Layer_1">
</g>
<g id="Layer_2">
	<g>
		<g>
			<ellipse opacity="0.15" cx="84.288" cy="143.291" rx="84.288" ry="12.517"/>
			<polygon fill="#09893D" points="63.075,36.589 69.094,21.944 75.165,32.674 			"/>
			<g>
				<path fill="#CFEEFF" d="M152.13,140.916c0,1.67-1.351,3.024-3.022,3.024H19.836c-1.668,0-3.021-1.354-3.021-3.024V35.703
					c0-1.669,1.353-3.022,3.021-3.022h129.271c1.672,0,3.022,1.353,3.022,3.022V140.916z"/>
				<path fill="#444444" d="M152.13,44.774v-9.071c0-1.669-1.351-3.022-3.022-3.022H19.836c-1.668,0-3.021,1.353-3.021,3.022v9.071
					H152.13z"/>
				<path fill="#2CB740" d="M25.812,38.886c0,1.322-1.069,2.392-2.39,2.392c-1.324,0-2.396-1.069-2.396-2.392
					c0-1.317,1.071-2.391,2.396-2.391C24.742,36.495,25.812,37.568,25.812,38.886z"/>
				<path fill="#F16442" d="M33.104,38.886c0,1.322-1.072,2.392-2.395,2.392c-1.319,0-2.389-1.069-2.389-2.392
					c0-1.317,1.069-2.391,2.389-2.391C32.031,36.495,33.104,37.568,33.104,38.886z"/>
				<path fill="#FFFFFF" d="M147.141,38.783c0,1.3-1.055,2.352-2.354,2.352H38.804c-1.296,0-2.354-1.052-2.354-2.352l0,0
					c0-1.301,1.059-2.354,2.354-2.354h105.982C146.086,36.429,147.141,37.482,147.141,38.783L147.141,38.783z"/>
				<path fill="#F16442" d="M41.657,50.897c0,1.243-1.006,2.257-2.254,2.257H25.602c-1.248,0-2.253-1.014-2.253-2.257l0,0
					c0-1.243,1.005-2.251,2.253-2.251h13.802C40.651,48.646,41.657,49.654,41.657,50.897L41.657,50.897z"/>
				<path opacity="0.2" fill="#444444" d="M51.399,108.296c0,1.044-0.848,1.896-1.899,1.896H25.244c-1.05,0-1.896-0.852-1.896-1.896
					l0,0c0-1.046,0.846-1.897,1.896-1.897H49.5C50.552,106.398,51.399,107.25,51.399,108.296L51.399,108.296z"/>
				<path opacity="0.2" fill="#444444" d="M78.438,116.215c0,1.045-0.848,1.897-1.896,1.897H25.244c-1.05,0-1.896-0.853-1.896-1.897
					l0,0c0-1.049,0.846-1.897,1.896-1.897h51.298C77.591,114.317,78.438,115.166,78.438,116.215L78.438,116.215z"/>
				<g>
					<path fill="#FEB13C" d="M143.371,50.897c0,0.863-0.698,1.566-1.566,1.566h-9.576c-0.865,0-1.562-0.703-1.562-1.566l0,0
						c0-0.862,0.697-1.562,1.562-1.562h9.576C142.673,49.335,143.371,50.035,143.371,50.897L143.371,50.897z"/>
					<path fill="#FEB13C" d="M126.566,50.897c0,0.863-0.698,1.566-1.563,1.566h-9.578c-0.865,0-1.562-0.703-1.562-1.566l0,0
						c0-0.862,0.696-1.562,1.562-1.562h9.578C125.868,49.335,126.566,50.035,126.566,50.897L126.566,50.897z"/>
					<path fill="#FEB13C" d="M110.148,50.897c0,0.863-0.696,1.566-1.564,1.566h-9.578c-0.867,0-1.562-0.703-1.562-1.566l0,0
						c0-0.862,0.695-1.562,1.562-1.562h9.578C109.452,49.335,110.148,50.035,110.148,50.897L110.148,50.897z"/>
					<path fill="#FEB13C" d="M93.346,50.897c0,0.863-0.7,1.566-1.565,1.566h-9.579c-0.864,0-1.562-0.703-1.562-1.566l0,0
						c0-0.862,0.698-1.562,1.562-1.562h9.579C92.646,49.335,93.346,50.035,93.346,50.897L93.346,50.897z"/>
				</g>
				<ellipse fill="#FCD22E" cx="40.411" cy="56.027" rx="0.049" ry="0.032"/>
				<path fill="#19BDD8" d="M80.54,100.074c0,1.833-1.482,3.318-3.318,3.318H26.667c-1.831,0-3.318-1.485-3.318-3.318V60.525
					c0-1.831,1.487-3.321,3.318-3.321h50.555c1.836,0,3.318,1.49,3.318,3.321V100.074z"/>
				<path fill="#12C47B" d="M143.299,100.074c0,1.833-1.484,3.318-3.318,3.318H89.428c-1.831,0-3.32-1.485-3.32-3.318V60.525
					c0-1.831,1.489-3.321,3.32-3.321h50.553c1.834,0,3.318,1.49,3.318,3.321V100.074z"/>
				<path opacity="0.6" fill="#444444" d="M139.809,107.586c0-1.484-0.396-2.278-1.877-2.278h-12.885
					c-1.481,0-3.238,0.794-3.238,2.278v6.239c0,1.483,1.757,2.482,3.238,2.482h12.885c1.481,0,1.877-0.999,1.877-2.482V107.586z"/>
				<path fill="#EFD40F" d="M143.809,126.4c0-1.42-1.669-1.093-3.154-1.093H90.64c-1.487,0-1.831-0.328-1.831,1.093v6.314
					c0,1.418,0.344,1.593,1.831,1.593h50.015c1.485,0,3.154-0.175,3.154-1.593V126.4z"/>
				<path fill="#3E86C1" d="M75.809,76.522c0-1.303-0.469-3.215-1.885-3.215H29.387c-1.417,0-3.578,1.912-3.578,3.215v6.738
					c0,1.305,2.161,2.047,3.578,2.047h44.537c1.416,0,1.885-0.742,1.885-2.047V76.522z"/>
				<path fill="#EFD40F" d="M76.809,127.994c0-1.484-1.203-2.687-2.687-2.687H24.495c-1.483,0-2.687,1.203-2.687,2.687v6.627
					c0,1.484,1.203,2.687,2.687,2.687h49.627c1.483,0,2.687-1.203,2.687-2.687V127.994z"/>
				<path opacity="0.6" fill="#444444" d="M116.809,107.586c0-1.484-0.625-2.278-2.106-2.278h-12.885
					c-1.481,0-3.009,0.794-3.009,2.278v6.239c0,1.483,1.527,2.482,3.009,2.482h12.885c1.481,0,2.106-0.999,2.106-2.482V107.586z"/>
				<path opacity="0.2" fill="#444444" d="M101.809,82.602c0,1.232-1.359,2.706-2.808,2.706h-5.999
					c-1.448,0-2.193-1.474-2.193-2.706v-6.789c0-1.231,0.745-2.505,2.193-2.505h5.999c1.448,0,2.808,1.274,2.808,2.505V82.602z"/>
				<path opacity="0.2" fill="#444444" d="M102.809,70.055c0,1.244-1.008,2.252-2.252,2.252h-7.496
					c-1.244,0-2.252-1.008-2.252-2.252V62.56c0-1.244,1.008-2.252,2.252-2.252h7.496c1.244,0,2.252,1.008,2.252,2.252V70.055z"/>
				<path opacity="0.2" fill="#444444" d="M101.809,97.923c0,1.247-1.49,3.385-2.735,3.385h-6.937c-1.244,0-1.328-2.138-1.328-3.385
					v-6.936c0-1.243,0.084-2.68,1.328-2.68h6.937c1.245,0,2.735,1.437,2.735,2.68V97.923z"/>
				<path opacity="0.2" fill="#444444" d="M139.079,66.058c0,1.045-0.849,1.9-1.899,1.9h-31.584c-1.05,0-1.896-0.855-1.896-1.9l0,0
					c0-1.045,0.846-1.894,1.896-1.894h31.584C138.23,64.164,139.079,65.013,139.079,66.058L139.079,66.058z"/>
				<path opacity="0.2" fill="#444444" d="M139.079,80.48c0,1.045-0.849,1.897-1.899,1.897h-31.584c-1.05,0-1.896-0.853-1.896-1.897
					l0,0c0-1.048,0.846-1.896,1.896-1.896h31.584C138.23,78.585,139.079,79.433,139.079,80.48L139.079,80.48z"/>
				<path opacity="0.2" fill="#444444" d="M139.079,94.389c0,1.045-0.849,1.897-1.899,1.897h-31.584
					c-1.05,0-1.896-0.852-1.896-1.897l0,0c0-1.047,0.846-1.896,1.896-1.896h31.584C138.23,92.493,139.079,93.342,139.079,94.389
					L139.079,94.389z"/>
				<path opacity="0.2" fill="#444444" d="M52.838,62.548c0,0.963-0.779,1.744-1.742,1.744H28.834c-0.965,0-1.739-0.781-1.739-1.744
					l0,0c0-0.961,0.774-1.737,1.739-1.737h22.262C52.059,60.811,52.838,61.587,52.838,62.548L52.838,62.548z"/>
				<path opacity="0.2" fill="#444444" d="M77.654,69.817c0,0.961-0.776,1.745-1.74,1.745h-47.08c-0.965,0-1.739-0.784-1.739-1.745
					l0,0c0-0.958,0.774-1.74,1.739-1.74h47.08C76.878,68.077,77.654,68.86,77.654,69.817L77.654,69.817z"/>
				<path opacity="0.2" fill="#444444" d="M77.654,90.098c0,0.961-0.776,1.745-1.74,1.745h-47.08c-0.965,0-1.739-0.784-1.739-1.745
					l0,0c0-0.961,0.774-1.737,1.739-1.737h47.08C76.878,88.36,77.654,89.137,77.654,90.098L77.654,90.098z"/>
				<path opacity="0.2" fill="#444444" d="M77.654,96.861c0,0.957-0.776,1.74-1.74,1.74h-47.08c-0.965,0-1.739-0.783-1.739-1.74l0,0
					c0-0.961,0.774-1.742,1.739-1.742h47.08C76.878,95.119,77.654,95.9,77.654,96.861L77.654,96.861z"/>
			</g>
			<polygon opacity="0.3" fill="#4C4C4C" points="72.094,81.499 72.094,32.944 55.215,33.944 38.449,32.944 38.449,81.499 
				24.444,81.499 55.272,119.211 86.101,81.499 			"/>
			<g>
				<g>
					<rect x="35.449" y="21.944" fill="#09BA59" width="33.645" height="61.073"/>
					<polygon fill="#09BA59" points="83.101,78.499 52.272,116.211 21.444,78.499 					"/>
				</g>
				<polygon opacity="0.2" fill="#4C4C4C" points="69.094,78.499 69.094,21.944 52.215,21.944 52.215,78.499 52.215,83.018 
					52.215,116.139 52.272,116.211 83.101,78.499 				"/>
			</g>
		</g>
		<g>
			<g>
				<path fill="#FFD42D" d="M36.852,8.547c-2.291,6.032-6.902,10.914-12.744,13.56c5.842,2.642,10.453,7.525,12.744,13.558
					c2.29-6.032,6.903-10.916,12.748-13.558C43.755,19.461,39.142,14.579,36.852,8.547z"/>
				<path fill="#FF7600" d="M36.852,15.276c-1.15,3.038-3.479,5.493-6.426,6.83c2.947,1.327,5.275,3.791,6.426,6.828
					c1.153-3.037,3.474-5.501,6.42-6.828C40.325,20.77,38.005,18.314,36.852,15.276z"/>
			</g>
			<g>
				<path fill="#FFD42D" d="M43.895,0c-0.825,2.176-2.496,3.945-4.609,4.9c2.113,0.956,3.784,2.723,4.609,4.905
					c0.83-2.182,2.496-3.949,4.611-4.905C46.391,3.945,44.725,2.176,43.895,0z"/>
				<path fill="#FF7600" d="M43.895,2.43C43.48,3.531,42.639,4.417,41.573,4.9c1.065,0.48,1.907,1.374,2.321,2.467
					c0.42-1.093,1.258-1.987,2.32-2.467C45.152,4.417,44.314,3.531,43.895,2.43z"/>
			</g>
			<g>
				<path fill="#FFD42D" d="M24.104,1.308c-1.219,3.219-3.682,5.825-6.805,7.239c3.123,1.412,5.586,4.019,6.805,7.235
					c1.224-3.217,3.688-5.823,6.808-7.235C27.791,7.133,25.327,4.526,24.104,1.308z"/>
				<path fill="#FF7600" d="M24.104,4.902c-0.615,1.622-1.855,2.934-3.43,3.645c1.574,0.709,2.814,2.018,3.43,3.641
					c0.617-1.623,1.858-2.932,3.427-3.641C25.962,7.836,24.721,6.524,24.104,4.902z"/>
			</g>
		</g>
	</g>
</g>
</svg>
