<?xml version="1.0" encoding="utf-8"?>
<!-- Generator: Adobe Illustrator 16.0.0, SVG Export Plug-In . SVG Version: 6.00 Build 0)  -->
<!DOCTYPE svg PUBLIC "-//W3C//DTD SVG 1.1//EN" "http://www.w3.org/Graphics/SVG/1.1/DTD/svg11.dtd">
<svg version="1.1" id="Layer_1" xmlns="http://www.w3.org/2000/svg" xmlns:xlink="http://www.w3.org/1999/xlink" x="0px" y="0px"
	 width="55.046px" height="55.824px" viewBox="0 0 55.046 55.824" enable-background="new 0 0 55.046 55.824" xml:space="preserve">
<g>
	<g>
		<circle fill="#76E0E5" cx="30.009" cy="31.863" r="23.96"/>
		<polygon fill="#76E0E5" points="51.099,40.666 40.546,51.316 55.046,55.131 		"/>
	</g>
	<g>
		<circle fill="#0084FD" cx="25.037" cy="23.961" r="23.96"/>
		<polygon fill="#0084FD" points="3.947,32.764 14.5,43.414 0,47.229 		"/>
	</g>
	<path opacity="0.2" fill="#060000" d="M40.978,6.078L0.064,46.991L0,47.229l12.014-3.16c3.75,2.434,8.219,3.854,13.021,3.854
		c13.234,0,23.962-10.729,23.962-23.961C48.997,16.85,45.897,10.467,40.978,6.078z"/>
	<g>
		<circle fill="#FFFFFF" cx="19.397" cy="16.604" r="2.906"/>
		<circle fill="#FFFFFF" cx="31.149" cy="16.604" r="2.906"/>
		<path fill="#FFFFFF" d="M9.427,25.191c0.407,8.411,7.334,15.11,15.846,15.11c8.51,0,15.438-6.699,15.846-15.11H9.427z"/>
	</g>
</g>
</svg>
