<svg xmlns="http://www.w3.org/2000/svg" width="20.949" height="19.272" viewBox="0 0 20.949 19.272"><g fill="#C4C4C4"><path d="M18.164 0H2.78a2.783 2.783 0 0 0 0 5.565h15.384a2.784 2.784 0 0 0 2.785-2.782A2.786 2.786 0 0 0 18.163 0zM2.804 4.08a1.297 1.297 0 1 1 0-2.595 1.297 1.297 0 0 1 0 2.595zm15.116-.044H6.502c-.176 0-.317-.2-.317-.446 0-.245.142-.445.317-.445H17.92c.176 0 .318.2.318.445 0 .246-.142.446-.318.446zm0-1.614H6.502c-.176 0-.317-.2-.317-.445s.142-.445.317-.445H17.92c.176 0 .318.2.318.445s-.142.445-.318.445zM18.164 6.678H2.78a2.783 2.783 0 0 0 0 5.566h15.384c1.537 0 2.785-1.246 2.785-2.783S19.7 6.68 18.163 6.68zm-15.36 4.08a1.297 1.297 0 1 1 0-2.595 1.297 1.297 0 0 1 0 2.595zm15.116-.045H6.502c-.176 0-.317-.2-.317-.445 0-.246.142-.445.317-.445H17.92c.176 0 .318.2.318.445s-.142.445-.318.445zm0-1.613H6.502c-.176 0-.317-.2-.317-.445 0-.247.142-.446.317-.446H17.92c.176 0 .318.2.318.445s-.142.445-.318.445zM18.164 13.707H2.78a2.783 2.783 0 0 0 0 5.565h15.384a2.785 2.785 0 0 0 2.785-2.782 2.785 2.785 0 0 0-2.786-2.783zm-15.36 4.08a1.297 1.297 0 1 1 0-2.595 1.297 1.297 0 0 1 0 2.594zm15.116-.045H6.502c-.176 0-.317-.2-.317-.445 0-.246.142-.446.317-.446H17.92c.176 0 .318.2.318.447 0 .245-.142.445-.318.445zm0-1.613H6.502c-.176 0-.317-.2-.317-.447 0-.245.142-.446.317-.446H17.92c.176 0 .318.2.318.446s-.142.446-.318.446z"/></g></svg>