<svg xmlns="http://www.w3.org/2000/svg" width="65.876" height="50.599" viewBox="0 0 65.876 50.599"><g fill="#4288C5"><path d="M49.538 48.174s-2.95-8.454-3.672-9.958c-.72-1.508-1.55-2.134-2.618-2.622l-.218-.1c-.013-.004-.025-.01-.038-.016l-.253-.112c-1.91-.848-8.002-3.53-10.488-4.62l-.915-.4c0-.037.006-.07.006-.106v-2.497c1.604-1.798 2.81-4.274 3.386-7.125.05.01.092.04.145.04.75.057 1.405-.51 1.46-1.26l.28-3.808a1.358 1.358 0 0 0-.79-1.337V9.245C35.825 4.14 31.05 0 25.165 0c-5.89 0-10.66 4.14-10.66 9.245v5.008c-.502.23-.836.753-.793 1.337l.28 3.808c.057.75.71 1.316 1.463 1.26.053 0 .093-.03.143-.04.507 2.503 1.497 4.718 2.817 6.44V30.24c0 .035.006.068.006.103l-.913.402A3739.08 3739.08 0 0 0 6.673 35.52l-.164.073c-1.07.488-1.9 1.113-2.62 2.622C3.17 39.72.222 48.173.222 48.173s-.918 2.425.98 2.425h47.353c1.9 0 .984-2.424.984-2.424z"/><path d="M53.18 0C46.166 0 40.48 5.685 40.48 12.698c0 1.873.416 3.644 1.145 5.244l-2.337 8.722 8.776-2.35a12.64 12.64 0 0 0 5.113 1.08c7.01 0 12.696-5.686 12.696-12.695C65.876 5.684 60.19 0 53.18 0zm4.22 15.364v4.444h-2.888v.444a1.335 1.335 0 0 1-2.667 0v-8.444c-2.206 0-4-1.793-4-4a4.003 4.003 0 0 1 4-3.998h2.667a4.002 4.002 0 0 1 3.998 3.998c0 2.207-1.793 4-3.998 4v3.556H57.4z"/><path d="M56.733 7.808a2.224 2.224 0 0 0-2.22-2.222h-2.668a2.223 2.223 0 0 0 0 4.444h2.667c1.225 0 2.22-.995 2.22-2.222z"/></g></svg>