<svg xmlns="http://www.w3.org/2000/svg" width="56" height="47.811" viewBox="0 0 56 47.811"><g fill="#4288C5"><path d="M42.432 0H13.568c-1.8 0-3.262 1.46-3.262 3.262v27.286a3.263 3.263 0 0 0 3.262 3.263H42.43c1.802 0 3.263-1.46 3.263-3.262V3.262c0-1.8-1.46-3.262-3.26-3.262zM40.68 28H15.32a1.585 1.585 0 0 1 0-3.17H40.68a1.585 1.585 0 0 1 0 3.17zm0-6.34H15.32a1.585 1.585 0 0 1 0-3.17H40.68a1.585 1.585 0 0 1 0 3.17zm0-6.338H15.32a1.585 1.585 0 0 1 0-3.17H40.68a1.585 1.585 0 1 1 0 3.17zm0-6.34H15.32a1.585 1.585 0 0 1 0-3.17H40.68a1.585 1.585 0 0 1 0 3.17zM50.717 37.245H5.282a5.282 5.282 0 0 0 0 10.566h45.435a5.283 5.283 0 0 0 0-10.565zM9.39 43.393zm13.736 0zm14.79 0zm14.793 0a3.17 3.17 0 1 1-6.1-1.725 3.17 3.17 0 0 1 6.1 1.725z"/></g></svg>