<svg xmlns="http://www.w3.org/2000/svg" width="72.706" height="72.704" viewBox="0 0 72.706 72.704"><circle fill="#78F1FF" cx="36.354" cy="36.352" r="35.165"/><path fill="#0084FD" d="M36.354 0C16.276 0 0 16.276 0 36.354c0 20.075 16.276 36.35 36.354 36.35s36.353-16.275 36.353-36.35C72.707 16.276 56.43 0 36.354 0zM66.17 48.21c-2.382 1.116-5.066 2.382-8.008 3.603 1.27-4.478 2.138-9.252 2.146-14.217h8.087A31.92 31.92 0 0 1 66.17 48.21zM4.313 37.596H12.4c.01 5.35 1.018 10.483 2.45 15.263-2.78-1.066-5.378-2.213-7.737-3.302a31.91 31.91 0 0 1-2.8-11.96zM35.11 4.307v8.09c-4.964.01-9.74.876-14.22 2.146 1.223-2.94 2.488-5.627 3.607-8.01A31.956 31.956 0 0 1 35.11 4.307zm11.7 12.79a67.03 67.03 0 0 1 6.77 2.03 67.775 67.775 0 0 1 2.028 6.768 21.99 21.99 0 0 0-8.8-8.797zm-9.213-4.64v-8.15A31.95 31.95 0 0 1 48.21 6.534c1.185 2.526 2.534 5.397 3.822 8.546-4.51-1.377-9.365-2.38-14.435-2.624zm-10.02 3.828a21.99 21.99 0 0 0-10.48 9.61 69.716 69.716 0 0 1 2.343-7.648 59.673 59.673 0 0 1 8.137-1.962zM12.457 35.11H4.312a31.895 31.895 0 0 1 2.8-11.96c2.518-1.162 5.3-2.394 8.294-3.512-1.545 4.8-2.686 10.008-2.95 15.472zm3.83 10.02a21.97 21.97 0 0 0 11.29 11.29c-3.148-.518-6.173-1.313-9.04-2.25-.937-2.87-1.73-5.894-2.25-9.04zM35.11 60.312v8.085a31.938 31.938 0 0 1-11.96-2.8c-1.09-2.362-2.235-4.955-3.3-7.74 4.776 1.435 9.91 2.443 15.26 2.455zm2.487-.06c5.463-.264 10.672-1.405 15.476-2.95-1.123 2.993-2.354 5.777-3.515 8.293a31.966 31.966 0 0 1-11.96 2.8v-8.144zm9.21-4.642a21.983 21.983 0 0 0 9.614-10.482 60.274 60.274 0 0 1-1.963 8.14c-2.425.888-4.983 1.7-7.65 2.342zm13.445-20.5c-.246-5.075-1.248-9.925-2.625-14.437 3.147 1.288 6.02 2.637 8.544 3.823a31.94 31.94 0 0 1 2.226 10.613h-8.144zm3.472-15.48a98.23 98.23 0 0 0-7.505-3.144 97.035 97.035 0 0 0-3.147-7.503 32.188 32.188 0 0 1 10.65 10.646zM19.634 8.982a99.08 99.08 0 0 0-2.912 6.88c-2.498.864-4.88 1.81-7.126 2.764a32.19 32.19 0 0 1 10.037-9.644zM9.597 54.08c2.054.87 4.22 1.74 6.486 2.542a117.6 117.6 0 0 0 2.542 6.49 32.255 32.255 0 0 1-9.028-9.032zm44.478 9.034c.953-2.248 1.903-4.63 2.77-7.13a98.605 98.605 0 0 0 6.878-2.91 32.23 32.23 0 0 1-9.648 10.04z"/><circle fill="#0084FD" cx="36.354" cy="36.353" r="19.18"/><path fill="#FFF" d="M50.32 33.18l-1.632-.13a12.706 12.706 0 0 0-1.28-3.092l1.063-1.237c.373-.37.443-.906.16-1.187l-3.457-3.457c-.285-.284-.817-.213-1.188.16l-1.243 1.06a12.728 12.728 0 0 0-3.09-1.28l-.126-1.628c0-.53-.327-.952-.73-.952H33.91c-.404 0-.73.422-.73.952l-.13 1.63c-1.095.292-2.13.723-3.088 1.277l-1.242-1.06c-.37-.372-.902-.443-1.188-.16l-3.456 3.458c-.285.282-.215.817.158 1.188l1.058 1.246c-.554.957-.982 1.99-1.276 3.087l-1.63.127c-.526 0-.952.326-.952.73v4.888c0 .4.426.73.952.73l1.632.13a12.72 12.72 0 0 0 1.277 3.085l-1.06 1.24c-.374.37-.444.904-.16 1.19l3.457 3.456c.285.283.817.212 1.188-.16l1.247-1.058c.956.554 1.993.982 3.09 1.274l.122 1.632c0 .527.326.952.73.952h4.887c.4 0 .73-.425.73-.952l.128-1.633a12.733 12.733 0 0 0 3.092-1.277l1.238 1.062c.37.372.903.442 1.188.16l3.456-3.457c.283-.287.213-.82-.16-1.19l-1.06-1.24c.557-.96.985-1.998 1.28-3.094l1.63-.124c.525 0 .95-.328.95-.73V33.91c.002-.402-.423-.728-.95-.728z"/><path fill="#0084FD" d="M41.402 36.355a5.048 5.048 0 0 1-5.05 5.047 5.047 5.047 0 0 1-5.048-5.047c0-2.792 2.26-5.05 5.048-5.05 2.79 0 5.05 2.258 5.05 5.05z"/></svg>