<svg xmlns="http://www.w3.org/2000/svg" width="71.24" height="66.889" viewBox="0 0 71.24 66.889"><path fill="#00AB75" d="M65.488 63.684s-3.902-11.177-4.854-13.166c-.95-1.993-2.05-2.82-3.462-3.464-1.408-.64-15.956-7.032-15.956-7.032l-8.326.64-8.333-.64s-14.54 6.39-15.95 7.032c-1.413.644-2.512 1.472-3.464 3.464-.953 1.99-4.85 13.166-4.85 13.166S-.92 66.89 1.59 66.89h62.597c2.51 0 1.3-3.206 1.3-3.206"/><path fill="#E9B990" d="M41.434 39.975c0 4.396-3.827 7.958-8.544 7.958-4.72 0-8.545-3.562-8.545-7.958v-9.053c0-4.4 3.824-7.963 8.545-7.963 4.717 0 8.544 3.562 8.544 7.962v9.053z"/><path fill="#FFC58F" d="M41.434 38.538c0 4.394-3.827 7.96-8.544 7.96-4.72 0-8.545-3.566-8.545-7.96v-9.056c0-4.396 3.824-7.96 8.545-7.96 4.717 0 8.544 3.564 8.544 7.96v9.056z"/><path fill="#00D094" d="M58.57 47.89a7.593 7.593 0 0 0-1.398-.836c-1.14-.518-10.85-4.79-14.536-6.41-.527 5.212-4.664 9.288-9.746 9.288-5.084 0-9.223-4.075-9.747-9.288-3.688 1.62-13.397 5.892-14.537 6.41a7.52 7.52 0 0 0-1.398.836c3.69 2.932 6.382 10.245 6.697 19h37.969c.313-8.756 3.003-16.07 6.696-19"/><path fill="#FFD196" d="M46.742 18.675a1.732 1.732 0 0 0-.558.07C45.042 10.164 39.696 3.67 33.267 3.67c-11.165 0-11.774 6.492-12.923 15.075a1.72 1.72 0 0 0-.552-.07 1.805 1.805 0 0 0-1.665 1.93l.37 5.036c.075.994.94 1.742 1.934 1.668.07-.004.124-.042.19-.054C22.19 35.01 27.25 40.7 33.268 40.7c6.014 0 11.07-5.69 12.644-13.446.07.012.124.05.194.054a1.802 1.802 0 0 0 1.93-1.667l.372-5.034a1.804 1.804 0 0 0-1.664-1.93"/><g fill="#7C5947"><path d="M20.6 19.79c0 .382-.32.687-.714.687s-.71-.305-.71-.687c0-.38.317-.686.71-.686s.713.307.713.686M47.358 19.79c0 .382-.32.687-.713.687s-.713-.305-.713-.687c0-.38.32-.686.713-.686s.713.307.713.686"/><path d="M33.267 0C25.48 0 19.175 5.47 19.175 12.22v7.57H20.6v-2.772c0-2.327 1.11-2.826 1.993-2.22 0 0 4.5 2.694 11.27 0 10.706-4.264 12.07.995 12.07 2.22v2.772h1.426v-7.57C47.357 5.47 41.046 0 33.266 0"/></g><path fill="#FFCF36" d="M58.65 42.56l3.893 7.882 8.697 1.265-6.294 6.134 1.487 8.665-7.782-4.09-7.778 4.09 1.486-8.664-6.295-6.133 8.698-1.265z"/></svg>