<svg xmlns="http://www.w3.org/2000/svg" width="57.127" height="49.006" viewBox="0 0 57.127 49.006"><g fill="#4288C5"><path d="M57.127 15.99a2.754 2.754 0 0 1-2.755 2.754H25.605a2.756 2.756 0 0 1-2.756-2.755V2.79A2.756 2.756 0 0 1 25.604.037h28.767a2.755 2.755 0 0 1 2.755 2.755v13.2zM57.127 46.25a2.754 2.754 0 0 1-2.755 2.756H25.605a2.756 2.756 0 0 1-2.756-2.755V25.446a2.757 2.757 0 0 1 2.755-2.755h28.767a2.756 2.756 0 0 1 2.755 2.755V46.25zM19.066 46.25a2.754 2.754 0 0 1-2.754 2.756H2.755A2.755 2.755 0 0 1 0 46.25V2.755A2.755 2.755 0 0 1 2.755 0h13.558a2.754 2.754 0 0 1 2.754 2.754V46.25z"/></g></svg>