<svg xmlns="http://www.w3.org/2000/svg" width="50.75" height="41.435" viewBox="0 0 50.75 41.435"><g fill="#4288C5"><path d="M36.945 15.623c-2.24 0-3.076 2.214-3.076 5.083 0 2.868.835 5.107 3.075 5.107 2.215 0 3.055-2.24 3.055-5.107 0-2.87-.84-5.083-3.055-5.083zM22.746 21.195c-.135 0-.258.022-.39.03a13.953 13.953 0 0 1 2.224 4.05c.62-.426.965-1.06.965-1.77 0-1.377-1.025-2.31-2.8-2.31z"/><path d="M30.03 0C20.216 0 12.01 6.836 9.874 16.003a14.05 14.05 0 0 1 1.543-.09c2.055 0 4.002.456 5.758 1.255v-4.25h10.68v2.915h-7.37v3.444c.073.06.14.127.21.19.76-.656 1.91-1.14 3.22-1.14 2.634 0 4.987 1.89 4.987 5.038 0 2.465-1.37 4.242-3.616 4.99a13.893 13.893 0 0 1-3.84 11.2 20.582 20.582 0 0 0 8.588 1.88c11.44 0 20.72-9.274 20.72-20.716C50.75 9.275 41.47 0 30.03 0zm6.915 28.75c-4.45 0-6.434-4.033-6.434-8.044s1.983-8.02 6.435-8.02c4.43 0 6.438 4.01 6.438 8.02s-2.008 8.044-6.438 8.044z"/><g><path d="M14.2 27.06c-1.233 0-1.694 1.218-1.694 2.8s.46 2.813 1.695 2.813c1.222 0 1.685-1.233 1.685-2.814s-.463-2.8-1.684-2.8z"/><path d="M11.416 18.45C5.11 18.45 0 23.563 0 29.867c0 6.305 5.11 11.416 11.416 11.416 6.305 0 11.414-5.11 11.414-11.416 0-6.304-5.11-11.415-11.414-11.415zM9.37 34.14H7.548v-6.22L6.12 29.372l-1.04-1.094 2.697-2.71H9.37v8.57zm4.83.153c-2.452 0-3.544-2.223-3.544-4.434 0-2.21 1.092-4.42 3.545-4.42 2.442 0 3.548 2.21 3.548 4.42s-1.105 4.433-3.547 4.433z"/></g></g></svg>