<svg xmlns="http://www.w3.org/2000/svg" width="18.902" height="18.904" viewBox="0 0 18.902 18.904"><g fill="#C4C4C4"><path d="M17.34 4.214a9.49 9.49 0 0 0-2.956-2.836c.404.868.804 1.82 1.146 2.836h1.81zM12.948.656A9.405 9.405 0 0 0 9.818 0v4.214h4.658c-.485-1.342-1.05-2.544-1.528-3.558zM14.727 4.947h-4.91v4.137h5.727c-.082-1.46-.398-2.853-.817-4.137zM15.562 9.817H9.817v3.77h5.22c.316-1.19.523-2.455.525-3.77zM14.83 14.32H9.816v4.584a9.43 9.43 0 0 0 3.53-.826c.506-1.1 1.056-2.37 1.482-3.758zM15.997 13.586h1.965a9.38 9.38 0 0 0 .94-3.77h-2.386c0 1.31-.21 2.573-.52 3.77zM14.68 17.346a9.522 9.522 0 0 0 2.884-3.026h-1.77a29.962 29.962 0 0 1-1.115 3.026zM16.5 9.084h2.402a9.434 9.434 0 0 0-1.118-4.137h-2.02c.386 1.298.667 2.687.737 4.137zM3.14 4.947H1.12A9.408 9.408 0 0 0 0 9.084h2.4c.072-1.45.353-2.84.74-4.137zM1.337 14.32a9.52 9.52 0 0 0 2.888 3.026 29.4 29.4 0 0 1-1.113-3.026H1.337zM2.385 9.817H0a9.45 9.45 0 0 0 .94 3.77h1.966c-.31-1.198-.518-2.46-.52-3.77zM3.865 13.586h5.22v-3.77H3.34c.003 1.316.21 2.58.525 3.77zM9.085 14.32h-5.01c.425 1.39.975 2.66 1.482 3.758a9.42 9.42 0 0 0 3.527.826V14.32zM3.358 9.084h5.727V4.947h-4.91c-.416 1.284-.737 2.677-.817 4.137zM9.085 4.214V0a9.446 9.446 0 0 0-3.13.656C5.477 1.67 4.91 2.872 4.426 4.214h4.658zM4.52 1.377a9.517 9.517 0 0 0-2.956 2.837h1.808A27.32 27.32 0 0 1 4.52 1.377z"/></g></svg>