<svg xmlns="http://www.w3.org/2000/svg" width="61.457" height="53.323" viewBox="0 0 61.457 53.323"><g fill="#4288C5"><path d="M32.283 43.335c-.004.01 0 .016-.002.025a.674.674 0 0 1 .005-.015l-.002-.01z"/><path d="M60.807 31.026c-.79-1.742-1.773-3.39-3.08-4.836-.086-.094-.125-.248-.07-.363C61.022 19.13 61.14 11.65 58.897 4.6c-.492-1.555-1.043-3.103-1.72-4.6 0 .023.003.042.003.065-.008.102-.014.21-.02.312 0 .007.007.01.01.017.16 2.81-.065 5.756-.714 8.5-1.176 5.013-3.398 9.137-.756 14.12.176.334-.38.58-.555.25-1.732-3.267-1.98-6.1-.73-9.584a45.11 45.11 0 0 0 .633-1.925c-1.17 2.673-2.848 5.208-4.04 7.903a.4.4 0 0 1-.495.214c-2.744-.812-5.398-3.968-7.426-5.827-2.75-2.518-6.283-2.306-8.352.48-.393.53-2.156.452-2.775.55-.125.02-.28-.02-.36-.123-2.587-3.397-3.355-.087-4.513.845-1.297 1.04-2.445 1.86-3.605 3.1-2.213 2.368-3.32 5.21-6.05 7.24-1.54 1.144-3.618 1.772-5.677 1.83 1.21 2.126 1.828 4.446 1.242 7.05-.1.44-.85.377-.748-.07 1.438-6.392-4.57-10.317-7.497-15.264-1.97-3.33-3.605-6.918-4.412-10.676a9.856 9.856 0 0 1-.235-1.65c-.547 10.62.77 24.194 10.373 30.846.004-.003.008 0 .01-.003v.01c.47.325.934.652 1.44.94.337.19.118.598-.194.627.303 1.438-.418.407-.11 2.587.052.37.118 2.344 1.894 4.384.146.168.83 1.657.973 1.783 1.937 1.732 5.464 1.734 7.915 2.147 3.01.507 6.035.93 9.072 1.273 4.953.565 14.105 3.38 17.295-1.21 2.566-3.692 5.26-6.946 8.562-10.174 2.816-2.754 5.36-5.37 3.473-9.54zm-22.536-7.08c.073-1.782-.048-3.687.247-5.43.08-.48.258-.812.5-1.036.5-.294 1.275-.384 2.447-.035 2.324.89 5.266 3.382 5.975 4.053 2.546 2.408 4.685 7.067-.71 7.467-1.348.097-5.494.517-6.36-.756-.214-.313-.456-.65-.7-1.004-.39-.96-.842-2.105-1.4-3.26 0 .002 0 .002 0 0zm5.634 11.212c-.035.415-.182 1.023-.568 1.27-.963.614-1.768-.655-2.322-1.172a4.02 4.02 0 0 0-1.297-.854c-.64-.264-.947-.24-1.62-.21-1.817.083-.798-1.02.517-.93 1.215.084 2.52.663 3.525-.298.38-.364.448-.792.765-1.187.277-.34 2.08-1.52 2.234-.565-1.642.673-1.36 2.546-1.236 3.946zm-22.586-7.203c.088-.345.277-.69.502-1.034.723-.846 1.764-1.856 2.793-2.795.715-.575 1.412-1.105 1.922-1.55 1.918-1.665 4.473-4.645 7.264-2.998.368.218.7.485 1.02.767.096.114.15.19.15.19.035.006.074.032.11.044 1.02.983 1.806 2.254 2.452 3.584.094 1.172.738 2.3 1.438 3.334l.098.243c1.148 5.17-9.33 8.233-13.055 8.37-3.17.118-5.834-1.632-5.68-4.82.058-1.225.694-2.196.985-3.335zM34.615 49.4l.158-.45c7.615.297 16.754-6.035 16.754-6.035-7.75 10.748-16.912 6.485-16.912 6.485zM58.13 29.618c-.376-.42-1.02-.682-1.706-.816.016.042.05.068.05.117-.16 7.925-10.55 11.676-17.24 13.845-5.413 1.758-15.116 2.56-17.956-3.72a.324.324 0 0 1-.006-.26c-2.275.12-4.54.906-5.19 3.138-.13.45-.845.195-.716-.252 1.053-3.606 5.852-3.967 9.035-3.417.483.085.415.803-.07.72a14.43 14.43 0 0 0-2.345-.207c.98 2.137 2.764 3.483 5.014 4.197-.128-.206-.15-.46.052-.714.762-.962 1.9-2.404 1.676-3.675-.152-.85 1.01-1.106 1.44-.437a35.17 35.17 0 0 1 1.546 2.632c.48.925 1.02 1.85.504 2.82 6.943-.223 15.432-3.83 20.066-8.35-.15-.15-.244-.344-.195-.566.118-.547-.046-1.007-.27-1.52-.405-.93-.89-1.832-1.43-2.698-.313-.502.23-1.052.76-1.028 1.413.062 2.9.768 4.18 1.295.017.006.022.02.036.023a6.31 6.31 0 0 0 .348-1.894c.002-.063.043-.09.066-.135a5.57 5.57 0 0 0-1.293.03c-.486.077-.617-.635-.13-.712 1.356-.214 3.42.074 4.36 1.118.32.353-.264.82-.586.465z"/><path d="M35.512 29.56c.803-2.18-1.033-3.06-1.34-3.096-.467.49-.852 2.288 1.34 3.095zM42.49 27.013c.06-1.63-.305-2.59-1.455-2.52.242.316-.387 1.152 1.455 2.52z"/></g></svg>