<svg xmlns="http://www.w3.org/2000/svg" width="170.856" height="170.858" viewBox="0 0 170.856 170.858"><circle fill="#4CA7F2" cx="85.428" cy="85.429" r="85.428"/><circle fill="#1D8ECC" cx="85.428" cy="85.429" r="60.928"/><circle fill="#65BFFC" cx="85.428" cy="85.429" r="52.414"/><g fill="#FFF"><path d="M21.21 53.01c-3.014-1.888-3.794-5.443-1.908-8.457 1.896-3.028 5.434-3.88 8.447-1.995 3.014 1.886 3.793 5.44 1.897 8.47-1.886 3.013-5.423 3.866-8.437 1.98zm5.17-8.263c-1.874-1.173-4.034-.854-5.19.988-1.152 1.845-.484 3.91 1.39 5.084 1.858 1.163 4.023.87 5.178-.975 1.155-1.845.48-3.935-1.38-5.098zM28.877 41.186c-2.673-2.447-2.648-6.14-.26-8.747 1.753-1.918 3.81-2.07 5.454-1.693l-.673 2.306c-1.04-.28-2.315-.01-3.14.89-1.443 1.578-1.28 3.835.362 5.34s3.905 1.466 5.35-.11c.822-.9.99-2.186.608-3.206l2.226-.888c.51 1.616.562 3.68-1.19 5.595-2.388 2.608-6.064 2.958-8.737.51zM37.518 31.888c-2.144-2.838-1.604-6.438 1.233-8.58 2.853-2.155 6.462-1.69 8.606 1.148 2.143 2.837 1.603 6.438-1.248 8.593-2.837 2.14-6.448 1.676-8.59-1.162zm7.778-5.875c-1.334-1.765-3.465-2.238-5.2-.928-1.737 1.312-1.85 3.48-.518 5.247 1.322 1.75 3.45 2.248 5.188.937 1.736-1.313 1.852-3.507.53-5.257zM54.403 14.2l1.002 1.972-5.44 2.765.947 1.86 2.728-1.386c2.24-1.138 4.262-.24 5.183 1.57.922 1.814.468 3.97-1.785 5.115L52.07 28.62l-5.343-10.517 7.676-3.902zm-2.49 8.566l1.396 2.743 2.426-1.234c.867-.44 1.226-1.297.8-2.133-.43-.85-1.326-1.05-2.193-.61l-2.43 1.233zM60.534 11.808l1.165 4.025 2.887-.835c2.446-.708 4.292.58 4.862 2.55.573 1.988-.287 4.04-2.75 4.753l-5.3 1.536-3.278-11.33 2.412-.698zm1.78 6.15l.885 3.057 2.564-.743c.95-.274 1.496-1.06 1.22-2.01-.27-.934-1.154-1.322-2.105-1.048l-2.567.743zm9.143 2.967l-3.28-11.33 2.43-.703 3.278 11.33-2.428.703zM75.717 20.1L74.53 8.367l8.303-.842.223 2.2-5.806.587.25 2.48 5.684-.575.224 2.2-5.684.574.27 2.658 5.805-.587.222 2.2-8.305.84zM92.615 19.623l1.056-9.525-3.426-.38.244-2.198 9.35 1.038-.243 2.197-3.41-.378-1.056 9.525-2.515-.28zM107.498 22.663l-.164-2.12-4.873-1.354-1.25 1.725-2.76-.766 7.555-10.145 3.033.843 1.22 12.582-2.76-.767zm-.65-9.818l-3.13 4.398 3.545.985-.414-5.383zM110.79 23.785l4.99-10.687 4.998 2.335c2.323 1.084 2.855 3.246 1.98 5.12-.867 1.858-2.89 2.845-5.197 1.77l-2.723-1.272-1.773 3.798-2.275-1.063zm9.646-4.316c.418-.9 0-1.757-.896-2.176l-2.42-1.13-1.347 2.884 2.42 1.13c.896.418 1.83.172 2.243-.71zM120.306 28.312l6.722-9.696 2.064 1.432-4.344 6.265 8.835-3.15 2.123 1.47-6.723 9.696-2.063-1.432 4.505-6.497-9.128 3.293-1.99-1.38zM133.97 39.102l.856-.823c-2.26-2.784-2.52-5.48-.556-7.367 1.95-1.876 4.634-1.51 7.34.845l.867-.834 1.74 1.812-.866.833c2.248 2.796 2.52 5.48.556 7.368-1.963 1.887-4.646 1.52-7.34-.846l-.855.82-1.74-1.81zm2.475-2.38l3.546-3.408c-1.59-1.294-2.973-1.46-3.93-.54-.97.932-.846 2.31.385 3.948zm5.286-1.596l-3.545 3.406c1.576 1.308 2.974 1.486 3.944.554.97-.93.833-2.322-.4-3.96zM151.72 41.983l-3.577 2.184 1.566 2.565c1.325 2.174.568 4.292-1.183 5.36-1.765 1.08-3.972.79-5.308-1.4l-2.875-4.707 10.065-6.144 1.31 2.143zm-5.463 3.336l-2.717 1.656 1.39 2.278c.517.846 1.418 1.166 2.263.65.83-.506.97-1.463.455-2.307l-1.39-2.278zm-.458 9.598l10.064-6.145 1.317 2.158-10.063 6.146-1.318-2.158z"/></g><g fill="#FFF"><path d="M45.315 153.46l2.688-4.16-4.68-3.023-2.688 4.16-2.11-1.363 6.403-9.91 2.108 1.365-2.514 3.89 4.68 3.023 2.514-3.892 2.124 1.374-6.4 9.91-2.125-1.375zM58.23 159.662l.103-2.123-4.665-1.952-1.455 1.556-2.643-1.104 8.76-9.118 2.902 1.215-.36 12.63-2.642-1.105zm.582-9.82l-3.654 3.972 3.393 1.42.262-5.39zM67.092 161.833l1.27-1.832c.347.398.838.785 1.397.877.853.142 1.295-.143 1.89-.92l-2.888-9.155 2.808.466 1.852 6.652 3.92-5.692 2.81.466-6.357 8.603c-.95 1.294-2.133 2.154-4.208 1.81-1.066-.177-2.05-.717-2.495-1.274zM79.98 158.556c0-3.623 2.74-6.097 6.276-6.097 2.598 0 4.1 1.414 4.93 2.88l-2.156 1.06c-.494-.953-1.555-1.714-2.774-1.714-2.138 0-3.694 1.644-3.694 3.87 0 2.228 1.555 3.872 3.694 3.872 1.22 0 2.28-.742 2.774-1.714l2.156 1.044c-.85 1.467-2.333 2.897-4.932 2.897-3.533-.002-6.274-2.475-6.274-6.1zM93.01 162.298c1.165-.208 1.732-.956 1.552-4.085l-.38-6.058 8.254-1.472 2.07 11.614-2.49.443-1.682-9.436-3.535.63.248 4.014c.302 4.923-1.28 6.122-3.65 6.543l-.39-2.192zM106.797 161.054l.206-2.22c.497.177 1.115.27 1.646.078.813-.296 1.058-.762 1.193-1.732l-7.016-6.552 2.675-.973 4.883 4.88.615-6.884 2.674-.973-1.306 10.618c-.19 1.594-.798 2.924-2.774 3.646-1.012.367-2.136.38-2.797.114zM119.732 156.68l-5.673-10.335 7.31-4.015 1.063 1.936-5.112 2.808 4.61 8.397-2.198 1.21zM129.575 151.07l-7.266-9.29 1.978-1.546 4.694 6.004-.39-9.37 2.033-1.59 7.266 9.292-1.978 1.547-4.868-6.227.438 9.69-1.907 1.49z"/></g><path fill="#1D8ECC" d="M85.846 41.59l12.848 26.03 28.73 4.176-20.79 20.264 4.908 28.613-25.696-13.51-25.697 13.51 4.91-28.613-20.792-20.264 28.73-4.175z"/></svg>