<svg xmlns="http://www.w3.org/2000/svg" width="61.707" height="51.237" viewBox="0 0 61.707 51.237"><g fill="#4288C5"><path d="M33.994 37.857c0-2 .4-3.905 1.117-5.646l-2.45-1.077v.002c-.43-.19-.75-.33-.928-.407 0-.037.006-.07.006-.107V28.09c1.625-1.82 2.844-4.327 3.43-7.214.053.01.094.04.148.042a1.38 1.38 0 0 0 1.477-1.276l.287-3.857a1.38 1.38 0 0 0-.803-1.354V9.36c0-5.17-4.834-9.36-10.795-9.36C19.517 0 14.69 4.19 14.69 9.36v5.07a1.38 1.38 0 0 0-.806 1.355l.285 3.857c.056.76.718 1.333 1.48 1.276.054-.002.093-.03.144-.042.514 2.535 1.518 4.777 2.854 6.52V30.62c0 .036.006.07.006.104l-.926.407A3680.075 3680.075 0 0 0 6.59 36.04c-1.08.495-1.923 1.128-2.65 2.655C3.21 40.218.223 48.78.223 48.78s-.93 2.455.994 2.455h41.208c-4.983-2.395-8.432-7.477-8.432-13.378zM48.85 38.97a1.492 1.492 0 0 0-.748 2.785v2.517a.747.747 0 0 0 1.496 0v-2.516c.447-.26.75-.736.75-1.288 0-.827-.672-1.497-1.498-1.497zM48.85 30.695a2.58 2.58 0 0 0-2.578 2.578v3.203h5.156v-3.203a2.58 2.58 0 0 0-2.578-2.578z"/><path d="M48.852 25c-7.102 0-12.857 5.757-12.857 12.857s5.756 12.857 12.857 12.857c7.1 0 12.855-5.757 12.855-12.857S55.95 25 48.852 25zm5.962 20.986a.967.967 0 0 1-.967.966h-9.994a.967.967 0 0 1-.967-.966v-8.543c0-.533.434-.967.967-.967h.484v-3.203a4.52 4.52 0 0 1 4.512-4.513 4.52 4.52 0 0 1 4.513 4.513v3.203h.484c.533 0 .967.434.967.967v8.543z"/></g></svg>