<svg xmlns="http://www.w3.org/2000/svg" width="45.492" height="50.284" viewBox="0 0 45.492 50.284"><g fill="#4288C5"><path d="M33.783 48.533a1.75 1.75 0 0 1-1.75 1.75h-18a1.75 1.75 0 0 1-1.748-1.75V44.39c0-.966.78-1.75 1.748-1.75h18c.967 0 1.75.784 1.75 1.75v4.143z"/><path d="M25.107 37.546a1.75 1.75 0 0 1 1.748 1.75v7.5a1.75 1.75 0 0 1-1.748 1.75H20.96a1.75 1.75 0 0 1-1.75-1.75v-7.5c0-.967.784-1.75 1.75-1.75h4.147zM40.45 24.96H5.04a5.04 5.04 0 0 0 0 10.08h35.41A5.043 5.043 0 0 0 45.49 30a5.04 5.04 0 0 0-5.043-5.04zM5.077 32.402a2.35 2.35 0 1 1 0-4.7 2.35 2.35 0 0 1 0 4.7zm34.928-.135h-28.23c-.315 0-.573-.36-.573-.806s.258-.81.574-.81h28.23c.315.004.573.365.573.81 0 .444-.258.807-.574.807zm0-2.92h-28.23c-.315 0-.573-.362-.573-.81 0-.445.258-.808.574-.808h28.23c.315 0 .573.362.573.807 0 .447-.258.81-.574.81zM40.45 12.2H5.04a5.04 5.04 0 0 0 0 10.08h35.41a5.044 5.044 0 0 0 5.042-5.04c0-2.784-2.26-5.04-5.043-5.04zM5.077 19.644a2.347 2.347 0 0 1 0-4.696 2.35 2.35 0 0 1 0 4.696zm34.928-.133h-28.23c-.315 0-.573-.36-.573-.807s.258-.81.574-.81h28.23c.315.002.573.364.573.81 0 .443-.258.807-.574.807zm0-2.922h-28.23c-.315 0-.573-.362-.573-.81 0-.445.258-.807.574-.807h28.23c.315.002.573.363.573.808 0 .448-.258.81-.574.81zM40.45 0H5.04a5.04 5.04 0 0 0 0 10.08h35.41a5.043 5.043 0 0 0 5.042-5.04c0-2.785-2.26-5.04-5.043-5.04zM5.077 7.443a2.35 2.35 0 1 1 0-4.697 2.35 2.35 0 0 1 0 4.697zm34.928-.134h-28.23c-.315 0-.573-.363-.573-.81 0-.443.258-.808.574-.808h28.23c.315.002.573.364.573.81 0 .444-.258.807-.574.807zm0-2.923h-28.23c-.315 0-.573-.362-.573-.808 0-.448.258-.81.574-.81h28.23c.315.002.573.363.573.81s-.258.807-.574.807zM9.78 44.065H3.59a2.396 2.396 0 0 0 0 4.794h6.19v-4.795zM42.475 44.065h-6.188v4.794h6.188a2.396 2.396 0 0 0 2.398-2.397c0-1.327-1.072-2.4-2.398-2.398z"/></g></svg>