<svg xmlns="http://www.w3.org/2000/svg" width="58.035" height="48.911" viewBox="0 0 58.035 48.911"><g fill="#4288C5"><path d="M28.96 26.28l-1.38-.106a10.43 10.43 0 0 0-1.07-2.53l.857-1.008c.303-.306.355-.74.12-.973l-2.825-2.825c-.232-.232-.67-.175-.973.13l-1.02.864c-.782-.45-1.63-.804-2.524-1.043l-.102-1.47c0-.43-.268-.917-.598-.917h-3.992c-.328 0-.598.487-.598.916l-.105 1.402c-.892.237-1.74.623-2.52 1.077l-1.016-.85c-.305-.306-.738-.353-.97-.122l-2.824 2.83c-.232.232-.176.672.13.974l.862 1.018a10.43 10.43 0 0 0-1.04 2.524l-1.698.105c-.43 0-1.143.264-1.143.593v3.994c0 .33.714.598 1.144.598l1.516.106c.24.894.682 1.74 1.135 2.522l-.82 1.012c-.305.307-.34.74-.107.974l2.836 2.82c.232.236.672.178.975-.127l1.022-.86c.78.45 1.63.802 2.527 1.04l.1 1.658c0 .43.27 1.102.597 1.102h3.992c.33 0 .597-.67.597-1.102l.104-1.497c.896-.237 1.74-.67 2.528-1.125l1.012.828c.303.305.738.34.97.108l2.825-2.833c.232-.232.176-.673-.13-.977l-.864-1.017a10.37 10.37 0 0 0 1.044-2.528l1.43-.1c.43 0 .877-.27.877-.6v-3.993c-.002-.328-.45-.593-.88-.593zm-11.51 6.716a4.124 4.124 0 0 1 0-8.25 4.126 4.126 0 0 1 0 8.25z"/><path d="M53.355.02h-.13C53.16.02 53.096 0 53.024 0H4.68A4.682 4.682 0 0 0 0 4.68V44.203a4.694 4.694 0 0 0 4.672 4.69h37.85l.03.02h10.81a4.695 4.695 0 0 0 4.674-4.69V4.702a4.682 4.682 0 0 0-4.68-4.68zM18.408 3.796H52.33c1.084 0 1.965.907 1.965 2.025 0 1.117-.88 2.024-1.965 2.024H18.408c-1.086 0-1.967-.907-1.967-2.024s.882-2.025 1.968-2.025zm-6.22-.488a2.25 2.25 0 1 1 0 4.5 2.25 2.25 0 0 1-2.25-2.245 2.252 2.252 0 0 1 2.25-2.253zm-6.528 0a2.25 2.25 0 1 1 0 4.5 2.25 2.25 0 1 1 0-4.5zm49.897 40.915a2.203 2.203 0 0 1-2.2 2.203h-2.634l.03-.02H4.68c-1.215 0-2.2-.988-2.2-2.203V10.988h53.077v33.234z"/><path d="M40.506 39.587a3.36 3.36 0 0 1-6.722 0V18.983a3.36 3.36 0 0 1 3.36-3.36 3.363 3.363 0 0 1 3.362 3.36v20.604zM51.658 39.587a3.362 3.362 0 0 1-6.722 0V18.983a3.36 3.36 0 0 1 6.722 0v20.604z"/></g></svg>