<svg xmlns="http://www.w3.org/2000/svg" width="61.707" height="51.237" viewBox="0 0 61.707 51.237"><g fill="#4288C5"><path d="M33.992 37.857c0-2 .402-3.905 1.12-5.646l-2.454-1.077v.002c-.428-.188-.748-.33-.926-.407 0-.036.006-.07.006-.106V28.092c1.623-1.82 2.844-4.328 3.428-7.214.053.01.096.04.148.04a1.38 1.38 0 0 0 1.48-1.274l.284-3.858a1.378 1.378 0 0 0-.8-1.354v-5.07C36.277 4.192 31.44 0 25.48 0c-5.965 0-10.795 4.192-10.795 9.36v5.07a1.38 1.38 0 0 0-.803 1.355l.283 3.858c.06.76.72 1.333 1.482 1.275.052-.002.093-.03.144-.04.514 2.534 1.516 4.776 2.854 6.52v3.222c0 .036.004.07.004.105l-.926.407c-2.7 1.186-9.607 4.226-10.97 4.836l-.165.074c-1.08.494-1.923 1.127-2.65 2.654C3.21 40.22.223 48.78.223 48.78s-.93 2.456.992 2.456h41.208c-4.983-2.396-8.432-7.478-8.432-13.38zM50.16 35.21a2.953 2.953 0 1 0-2.384 5.404 2.953 2.953 0 0 0 2.384-5.404z"/><path d="M48.85 25c-7.1 0-12.857 5.757-12.857 12.857S41.75 50.713 48.85 50.713s12.857-5.757 12.857-12.856C61.707 30.757 55.95 25 48.85 25zm8.86 15.21l-1.155 2.614c-.096.215-.492.25-.773.126l-.99-.358c-.416.516-.893.97-1.414 1.352l.27.915c.112.287.024.59-.194.675l-2.668 1.033c-.22.086-.49-.074-.602-.36l-.414-.855a7.44 7.44 0 0 1-1.965-.03l-.47.874c-.124.282-.425.497-.64.4l-2.615-1.154c-.217-.095-.264-.464-.14-.747l.35-.965a7.427 7.427 0 0 1-1.355-1.414l-.916.273c-.288.11-.593.02-.677-.2l-1.04-2.668c-.085-.22.063-.494.35-.605l.837-.423c-.07-.645-.11-1.325-.008-1.98l-.95-.5c-.28-.125-.644-.494-.548-.71l1.154-2.613c.096-.214.613-.198.895-.073l1.115.414c.416-.516.89-.97 1.412-1.352l-.268-.92c-.113-.285-.023-.59.195-.674l2.67-1.042c.22-.084.494.063.605.352l.428.83c.64-.07 1.322-.115 1.977-.014l.508-.96c.125-.283.525-.424.742-.33l2.613 1.156c.217.095.164.39.04.672l-.42 1.142c.517.415.968.89 1.35 1.412l.917-.27c.285-.112.59-.022.676.196l1.033 2.667c.086.22-.072.49-.36.6l-.85.42c.073.643.08 1.31-.022 1.963l.89.475c.28.125.52.44.425.657z"/></g></svg>