<svg xmlns="http://www.w3.org/2000/svg" width="59.494" height="78.002" viewBox="0 0 59.494 78.002"><path fill="#323C3F" d="M50.438 72.887c0 1.17-.95 2.122-2.12 2.122H2.122A2.123 2.123 0 0 1 0 72.886V8.485c0-1.173.95-2.12 2.123-2.12h46.194c1.17 0 2.12.947 2.12 2.12v64.402z"/><path fill="#FFE4C0" d="M50.438 71.473c0 1.172-.95 2.123-2.12 2.123H2.122A2.124 2.124 0 0 1 0 71.473V7.07C0 5.9.95 4.95 2.123 4.95h46.194c1.17 0 2.12.95 2.12 2.12v64.403z"/><path fill="#FFCF36" d="M12.896 7.007L57.53 9.363l-3.392 64.28-44.634-2.356z"/><path fill="#FFE4C0" d="M50.438 70.06a2.12 2.12 0 0 1-2.12 2.12H2.122A2.122 2.122 0 0 1 0 70.06V5.655c0-1.17.95-2.12 2.123-2.12h46.194c1.17 0 2.12.95 2.12 2.12V70.06z"/><path opacity=".2" d="M54.945 52.32l-9.39-48.494-41.16 7.97L16.63 74.992l37.503-7.263z"/><path fill="#31BDDD" d="M2.954 11.667l41.162-7.97 12.236 63.197-41.162 7.97z"/><path opacity=".2" d="M42.754 9.116v61.066h6.127c1.173 0 2.122-.902 2.122-2.014V9.116h-8.248z"/><path fill="#FFE4C0" d="M50.438 67.938a2.12 2.12 0 0 1-2.12 2.12H2.122A2.123 2.123 0 0 1 0 67.94V3.535c0-1.17.95-2.12 2.123-2.12h46.194c1.17 0 2.12.95 2.12 2.12v64.403z"/><path fill="#323C3F" d="M50.438 66.523a2.12 2.12 0 0 1-2.12 2.12H2.122A2.12 2.12 0 0 1 0 66.524v-64.4C0 .948.95 0 2.123 0h46.194c1.17 0 2.12.95 2.12 2.122v64.4z"/><path fill="#323C3F" d="M3.184 74.64l-2.3-.65L0 72.518V65.74h3.184z"/><path opacity=".4" d="M42.632 0h3.358v75.01h-3.358z"/><path fill="#FFE4C0" d="M1.828 71.473c0 1.172.64 2.123 1.43 2.123h2.385c.79 0 1.43-.95 1.43-2.123v-.707c0-1.17-.64-2.12-1.43-2.12H3.26c-.79 0-1.432.95-1.432 2.12v.707z"/><path opacity=".4" d="M8.363 75.082l-1.817-1.19-1.925 1.19v-6.434h3.743z"/><path fill="#F7534F" d="M9.07 75.082l-1.818-1.19-1.924 1.19v-6.434h3.74z"/><path opacity=".2" d="M48.317 68.645H3.037s-.477.152-.83.708h46.11c1.17 0 2.12-.95 2.12-2.12v-.71c0 1.172-.95 2.122-2.12 2.122z"/><path fill="#89C602" d="M42.014 0h3.357v75.01h-3.356z"/><path opacity=".1" fill="#FFF" d="M43.693 0h1.678v75.01h-1.677z"/><path opacity=".1" d="M42.014 68.644h3.357v6.365h-3.356z"/><g><path fill="#CE7013" d="M46.854 75.115a4.214 4.214 0 0 1-5.328 2.67l-23.338-7.76a4.216 4.216 0 0 1-2.67-5.33l11.904-35.8a4.214 4.214 0 0 1 5.33-2.67l23.337 7.76a4.215 4.215 0 0 1 2.667 5.328L46.854 75.115z"/><path fill="#F98506" d="M47.375 73.548a4.214 4.214 0 0 1-5.328 2.67l-23.338-7.76a4.214 4.214 0 0 1-2.67-5.33l11.903-35.8a4.214 4.214 0 0 1 5.328-2.67l23.34 7.76a4.216 4.216 0 0 1 2.668 5.328L47.375 73.548z"/><g fill="#CE7013"><circle cx="28.383" cy="44.723" r="2.619"/><circle cx="35.273" cy="47.014" r="2.619"/><circle cx="42.157" cy="49.302" r="2.619"/><circle cx="49.048" cy="51.594" r="2.618"/><circle cx="26.2" cy="51.286" r="2.619"/><circle cx="33.091" cy="53.577" r="2.62"/><circle cx="39.975" cy="55.865" r="2.619"/><circle cx="46.866" cy="58.156" r="2.619"/><circle cx="24.027" cy="57.796" r="2.619"/><circle cx="30.918" cy="60.087" r="2.62"/><circle cx="37.801" cy="62.375" r="2.619"/><g><circle cx="21.853" cy="64.361" r="2.619"/><circle cx="28.744" cy="66.652" r="2.62"/><circle cx="35.628" cy="68.942" r="2.619"/></g><path d="M44.72 71.964a2.62 2.62 0 1 1-4.97-1.653l2.18-6.562a2.618 2.618 0 0 1 4.97 1.653l-2.18 6.56z"/></g><g fill="#E8E8E8"><circle cx="28.644" cy="43.939" r="2.619"/><circle cx="35.534" cy="46.23" r="2.619"/><circle cx="42.417" cy="48.519" r="2.619"/><circle cx="49.309" cy="50.81" r="2.618"/><circle cx="26.461" cy="50.502" r="2.619"/><circle cx="33.352" cy="52.793" r="2.619"/><circle cx="40.235" cy="55.082" r="2.619"/><circle cx="47.126" cy="57.373" r="2.619"/><circle cx="24.288" cy="57.013" r="2.619"/><circle cx="31.178" cy="59.304" r="2.62"/><circle cx="38.062" cy="61.592" r="2.619"/><g><circle cx="22.114" cy="63.578" r="2.619"/><circle cx="29.005" cy="65.869" r="2.619"/><circle cx="35.888" cy="68.157" r="2.619"/></g><path d="M44.98 71.18a2.62 2.62 0 1 1-4.97-1.653l2.18-6.56a2.618 2.618 0 0 1 4.97 1.652l-2.18 6.56z"/></g><path opacity=".2" d="M29.285 29.815l27.948 9.292-2.673 8.04-27.948-9.293z"/><path fill="#323C3F" d="M29.71 30.72l26.642 8.858-2.215 6.66-26.64-8.857z"/><path fill="#CE7013" d="M57.547 36.95a.567.567 0 0 1-.718.358l-5.822-1.936a.567.567 0 1 1 .358-1.077l5.822 1.936c.297.1.458.422.36.72zM48.35 33.892a.567.567 0 0 1-.717.36l-5.82-1.937a.568.568 0 1 1 .358-1.077l5.822 1.936c.296.1.456.42.358.718z"/></g></svg>