<svg xmlns="http://www.w3.org/2000/svg" width="53.137" height="54.339" viewBox="0 0 53.137 54.339"><path fill="#4288C5" d="M51.146 42.742l-8.375-8.376c5.06-8.766 3.864-20.152-3.632-27.65-8.955-8.953-23.47-8.953-32.424 0-8.953 8.953-8.953 23.47 0 32.424 7.055 7.057 17.557 8.525 26.076 4.463l8.75 8.748a6.792 6.792 0 0 0 9.605 0 6.79 6.79 0 0 0 0-9.608zM12.72 33.135c-5.638-5.637-5.638-14.777 0-20.414 5.636-5.638 14.776-5.638 20.413 0 5.64 5.638 5.64 14.778 0 20.415-5.637 5.636-14.778 5.64-20.414 0z"/></svg>