<svg xmlns="http://www.w3.org/2000/svg" width="57.93" height="57.93" viewBox="0 0 57.93 57.93"><g fill="#F49321"><path d="M9.61 52.76a4.444 4.444 0 0 1-4.44-4.44V9.61a4.443 4.443 0 0 1 4.44-4.438h38.71a4.443 4.443 0 0 1 4.438 4.438v38.71c0 2.448-1.99 4.44-4.438 4.44H9.61m0 5.17h38.71c5.307 0 9.61-4.303 9.61-9.61V9.61c0-5.307-4.303-9.61-9.61-9.61H9.61C4.302 0 0 4.304 0 9.61v38.71c0 5.307 4.303 9.61 9.61 9.61z"/><path d="M4.248 29.256h24.717v24.896H4.248zM28.932 4.36H53.65v24.895H28.93zM35.133 36.847A1.25 1.25 0 0 1 36.9 35.08l9.547 9.545a1.25 1.25 0 1 1-1.768 1.768l-9.547-9.546z"/><path d="M36.9 46.393a1.25 1.25 0 0 1-1.768-1.768l9.545-9.546a1.25 1.25 0 0 1 1.77 1.768L36.9 46.392z"/><g><path d="M9.984 17.93a1.25 1.25 0 0 1-.002-2.5h13.502a1.25 1.25 0 0 1 0 2.5h-13.5z"/><path d="M17.984 23.43a1.25 1.25 0 0 1-2.5 0V9.93a1.25 1.25 0 0 1 2.5 0v13.5z"/></g></g><path fill="#F3F3F3" d="M10.23 42.955a1.25 1.25 0 1 1 0-2.5h13.5c.69 0 1.252.56 1.252 1.25-.002.69-.56 1.25-1.25 1.25H10.23z"/><g fill="#F3F3F3"><path d="M35.04 14.796c-.692 0-1.25-.56-1.25-1.25s.558-1.25 1.25-1.25h13.5a1.25 1.25 0 0 1 0 2.5h-13.5zM35.04 20.818a1.25 1.25 0 0 1 0-2.5h13.5a1.25 1.25 0 0 1 0 2.5h-13.5z"/></g><circle fill="#F3F3F3" cx="16.981" cy="47.121" r="2.167"/><circle fill="#F3F3F3" cx="16.981" cy="36.287" r="2.167"/></svg>