<svg xmlns="http://www.w3.org/2000/svg" width="49.498" height="54.788" viewBox="0 0 49.498 54.788"><g fill="#4288C5"><path d="M6.75 18.76c1.624 0 3.14.456 4.437 1.236V4.436a4.438 4.438 0 0 0-8.875 0v15.56A8.574 8.574 0 0 1 6.75 18.76zM6.75 36.028a8.59 8.59 0 0 1-4.44-1.237v15.56a4.438 4.438 0 0 0 8.877 0V34.79A8.586 8.586 0 0 1 6.75 36.03z"/><circle cx="6.75" cy="27.394" r="6.75"/><path d="M24.75 30.26a8.58 8.58 0 0 1 4.437 1.237V4.437a4.438 4.438 0 1 0-8.876 0v27.06a8.59 8.59 0 0 1 4.44-1.238zM24.75 47.528a8.59 8.59 0 0 1-4.44-1.237v4.06a4.438 4.438 0 0 0 8.877 0v-4.06a8.59 8.59 0 0 1-4.438 1.238z"/><circle cx="24.749" cy="38.894" r="6.75"/><g><path d="M42.75 6.566a8.58 8.58 0 0 1 4.437 1.238V4.437a4.438 4.438 0 0 0-8.876 0v3.366a8.59 8.59 0 0 1 4.44-1.237zM42.75 23.836a8.59 8.59 0 0 1-4.44-1.237v27.75a4.438 4.438 0 0 0 8.877 0V22.6a8.58 8.58 0 0 1-4.438 1.238z"/></g><circle cx="42.749" cy="15.201" r="6.75"/></g></svg>