<svg xmlns="http://www.w3.org/2000/svg" width="70.731" height="70.87" viewBox="0 0 70.731 70.87"><g fill="#F4D30F"><path d="M28.776 43.665c0 .89-.716 1.61-1.605 1.61-.883 0-1.603-.72-1.603-1.61V28.452c0-.89.72-1.606 1.604-1.606a1.6 1.6 0 0 1 1.606 1.606v15.213z"/><path d="M37.04 46.318a1.602 1.602 0 0 1 .858 2.098 1.605 1.605 0 0 1-2.104.863l-9.246-3.967a1.6 1.6 0 0 1-.857-2.097 1.606 1.606 0 0 1 2.105-.862l9.244 3.964z"/><path d="M27.91 70.87C12.52 70.87 0 58.35 0 42.96s12.52-27.912 27.91-27.912 27.912 12.52 27.912 27.91S43.302 70.87 27.91 70.87zm0-50.24c-12.312 0-22.328 10.018-22.328 22.33S15.6 65.288 27.91 65.288c12.312 0 22.33-10.017 22.33-22.33S40.222 20.632 27.91 20.632z"/><path d="M63.95 28.49c3.452-.16 8.542-7.38 6.175-14.246-1.736 4.025-9.806 6.748-11.463 5.88C62.845 17.677 70.972 9.785 69.395 0 68.29 5.683 55.348 9.47 49.98 7.812c-.71 2.447-2.23 7.616-6.63 4.735-1.85-1.21.396-4.26 1.58-4.735-7.24 0-12.464.872-18.217 4.6.397-.015.796-.03 1.196-.03 16.86 0 30.577 13.717 30.577 30.577 0 1.802-.166 3.566-.467 5.284 5.553-6.687 6.734-12.972 7.11-14.783-1.518 2.092-6.548 2.27-6.864-1.26-.19-2.145 1.505-3.52 5.683-3.71z"/></g></svg>