<svg xmlns="http://www.w3.org/2000/svg" width="55.822" height="62.173" viewBox="0 0 55.822 62.173"><g fill="#0390D6"><path d="M30.13 53.427c-.73.073-1.47.11-2.22.11-12.31 0-22.328-10.016-22.328-22.328 0-7.872 4.104-14.792 10.276-18.77-.437-.432-.87-.867-1.327-1.285-.97-.883-1.843-1.8-2.688-2.734C4.688 13.48 0 21.8 0 31.21 0 46.6 12.52 59.12 27.91 59.12c1.39 0 2.756-.105 4.093-.303a132.912 132.912 0 0 1-1.874-5.39zM50.24 31.21c0 6.48-2.785 12.313-7.21 16.393a159.5 159.5 0 0 0 3.87 3.6c.068.063.14.118.21.178 5.35-5.08 8.712-12.227 8.712-20.17 0-15.39-12.52-27.91-27.91-27.91-.344 0-.682.013-1.022.025.23 1.85.41 3.71.61 5.567.136-.003.272-.01.41-.01 12.313 0 22.33 10.015 22.33 22.327z"/><path d="M30.166 12.753L19.123 6.377 30.166 0zM30.166 49.42l11.045 6.376-11.044 6.377z"/><circle cx="13.924" cy="10.345" r="2.825"/><circle cx="45.195" cy="49.419" r="2.825"/><g><path d="M15.665 25.85l.32-.167 6.526-3.396a.94.94 0 0 0-.98-.725l-5.993.467a.892.892 0 0 0-.82.98l.083.844c.05.5-.3.94-.774.977l-.864.068 1.312 13.262 1.155-11.95.035-.36z"/><path d="M30.226 19.397l-13.564 7.057-1.457 15.044 13.51-1.06 7.595-.596 4.855-.382 1.455-15.043z"/></g></g></svg>