<svg xmlns="http://www.w3.org/2000/svg" width="53.473" height="55.054" viewBox="0 0 53.473 55.054"><g fill="#4288C5"><path d="M27.482 29.046c0 .77-.62 1.39-1.387 1.39a1.388 1.388 0 0 1-1.385-1.39V15.91c0-.77.62-1.39 1.385-1.39.768 0 1.387.62 1.387 1.39v13.136z"/><path d="M34.62 31.338c.706.3 1.037 1.11.74 1.81a1.386 1.386 0 0 1-1.815.748L25.56 30.47a1.382 1.382 0 0 1-.74-1.812 1.386 1.386 0 0 1 1.815-.744l7.984 3.424z"/><path d="M26.734 52.54c-13.29 0-24.104-10.81-24.104-24.103 0-13.292 10.812-24.104 24.104-24.104S50.84 15.146 50.84 28.437c0 13.292-10.815 24.104-24.106 24.104zm0-43.388C16.1 9.152 7.45 17.806 7.45 28.437S16.1 47.72 26.735 47.72c10.634 0 19.283-8.65 19.283-19.283S37.367 9.152 26.734 9.152z"/><g><path d="M9.332 54.296a2.59 2.59 0 0 1-3.664-.002 2.59 2.59 0 0 1 0-3.663l5.496-5.496a2.592 2.592 0 0 1 3.664 0 2.59 2.59 0 0 1 0 3.664l-5.496 5.498zM47.804 50.63a2.59 2.59 0 0 1 0 3.664 2.59 2.59 0 0 1-3.665.002L38.642 48.8a2.59 2.59 0 0 1 0-3.665 2.593 2.593 0 0 1 3.665 0l5.496 5.496z"/></g><g><path d="M15.734 2.91c-.078-.082-.146-.17-.227-.25A9.085 9.085 0 0 0 2.66 15.508c.08.082.167.15.248.23L15.734 2.91zM37.738 2.91c.078-.082.146-.17.23-.25A9.084 9.084 0 0 1 50.812 15.51c-.082.08-.168.15-.25.228L37.738 2.91z"/></g></g></svg>