<svg xmlns="http://www.w3.org/2000/svg" width="57.929" height="57.929" viewBox="0 0 57.929 57.929"><g fill="#974F9E"><path d="M48.32 5.17a4.443 4.443 0 0 1 4.437 4.44v38.708c0 2.448-1.99 4.44-4.438 4.44H9.61a4.443 4.443 0 0 1-4.44-4.44V9.61a4.442 4.442 0 0 1 4.44-4.438h38.71m0-5.172H9.61C4.302 0 0 4.303 0 9.61v38.71c0 5.307 4.303 9.61 9.61 9.61h38.71c5.306 0 9.608-4.303 9.608-9.61V9.61c0-5.307-4.302-9.61-9.61-9.61z"/><path d="M28.964 11.786l5.257 10.65 11.756 1.71-8.507 8.29 2.008 11.707-10.514-5.527-10.514 5.527 2.01-11.707-8.508-8.29 11.755-1.71z"/></g></svg>