<svg xmlns="http://www.w3.org/2000/svg" width="68.914" height="51.117" viewBox="0 0 68.914 51.117"><g fill="#4288C5"><path d="M15.674 9.07a3.174 3.174 0 0 1-6.35 0V3.174A3.174 3.174 0 0 1 12.5 0a3.173 3.173 0 0 1 3.174 3.174V9.07zM60.76 9.07a3.174 3.174 0 0 1-6.35 0V3.174A3.174 3.174 0 0 1 57.585 0a3.173 3.173 0 0 1 3.174 3.174V9.07z"/><path d="M64.823 8.542H62.17v.93a4.584 4.584 0 0 1-9.17 0v-.93H17.084v.93a4.584 4.584 0 0 1-9.17 0v-.93H4.092A4.09 4.09 0 0 0 0 12.632v34.395a4.09 4.09 0 0 0 4.09 4.09h60.733a4.09 4.09 0 0 0 4.09-4.09V12.633a4.09 4.09 0 0 0-4.09-4.09zM35.31 43.7a2.356 2.356 0 0 1-2.358 2.357h-.137c-.413-1.174-1.338-3.775-1.613-4.35-.355-.745-.768-1.056-1.297-1.297a2.922 2.922 0 0 0-.107-.047l-.018-.01a1815.43 1815.43 0 0 0-5.32-2.344v.002c-.21-.09-.365-.16-.45-.198V36.52c.796-.89 1.392-2.116 1.677-3.528.027.005.047.02.074.02a.676.676 0 0 0 .724-.623l.14-1.886a.67.67 0 0 0-.392-.66v-2.48c0-2.53-2.365-4.58-5.28-4.58s-5.278 2.05-5.278 4.58v2.48a.676.676 0 0 0-.393.66l.14 1.887a.68.68 0 0 0 .725.625c.027 0 .047-.016.07-.02.252 1.238.742 2.335 1.396 3.187v1.577c0 .017.003.033.003.05-.086.04-.244.107-.453.2-1.32.58-4.697 2.065-5.363 2.364l-.082.036c-.53.24-.94.552-1.297 1.298-.275.573-1.2 3.175-1.612 4.35h-.14A2.357 2.357 0 0 1 6.31 43.7V19.415a2.358 2.358 0 0 1 2.356-2.357H32.95a2.357 2.357 0 0 1 2.358 2.357V43.7zM61 42.058H42.5a2.5 2.5 0 0 1 0-5H61a2.5 2.5 0 0 1 0 5zm0-8H42.5a2.5 2.5 0 0 1 0-5H61a2.5 2.5 0 0 1 0 5zm0-8H42.5a2.5 2.5 0 0 1 0-5H61a2.5 2.5 0 0 1 0 5z"/></g></svg>