<svg xmlns="http://www.w3.org/2000/svg" width="61.707" height="51.237" viewBox="0 0 61.707 51.237"><g fill="#4288C5"><path d="M33.993 37.857c0-2 .4-3.905 1.118-5.646l-2.45-1.077v.002l-.928-.407c0-.036.006-.07.006-.106V28.092c1.624-1.82 2.844-4.328 3.43-7.214.052.01.094.04.147.04a1.38 1.38 0 0 0 1.478-1.274l.286-3.858a1.38 1.38 0 0 0-.803-1.354v-5.07C36.277 4.192 31.442 0 25.482 0c-5.965 0-10.794 4.192-10.794 9.36v5.07a1.38 1.38 0 0 0-.804 1.355l.284 3.858c.058.76.72 1.333 1.48 1.275.055-.002.095-.03.146-.04.514 2.534 1.517 4.776 2.854 6.52v3.222c0 .036.005.07.005.105-.176.077-.497.217-.926.407a3526.413 3526.413 0 0 0-10.97 4.836l-.166.074c-1.08.494-1.923 1.127-2.65 2.654C3.21 40.22.223 48.78.223 48.78s-.93 2.456.993 2.456h41.208c-4.983-2.396-8.432-7.478-8.432-13.38zM52.322 34.854c-1.343 0-1.845 1.326-1.845 3.046 0 1.72.502 3.06 1.845 3.06 1.326 0 1.83-1.34 1.83-3.06s-.504-3.046-1.83-3.046z"/><path d="M49.292 25.49c-6.858 0-12.416 5.56-12.416 12.416s5.558 12.416 12.416 12.416c6.857 0 12.415-5.56 12.415-12.416S56.15 25.49 49.292 25.49zM47.07 42.553h-1.985V35.79l-1.553 1.58-1.13-1.19 2.934-2.948h1.733v9.32zm5.252.168c-2.67 0-3.856-2.417-3.856-4.82 0-2.403 1.188-4.807 3.856-4.807 2.655 0 3.857 2.404 3.857 4.807 0 2.403-1.202 4.82-3.858 4.82z"/></g></svg>