<svg xmlns="http://www.w3.org/2000/svg" width="22.309" height="37.905" viewBox="0 0 22.309 37.905"><g fill="#FEB13C"><ellipse cx="11.154" cy="11.42" rx="11.154" ry="11.423"/><path d="M10.634 11.654c-.004-.026-.01-.042-.015-.032-.006.01 0 .022.014.032z"/><path d="M15.696 12.022c-.044-.045-2.354-.09-3.842-.194a2.16 2.16 0 0 1 .018-.175c-.057.048-.285.09-.62.125-.332-.036-.56-.077-.618-.125.006.033.012.097.018.175-1.488.105-3.797.148-3.842.194-.14.14-5.275 4.742-5.275 4.742l2.47 3.34s2.62 2.404 2.62 7.213c3.182 0 4.127-.794 4.63-.834.5.04 1.796.102 4.978.102 0-4.81 2.27-6.48 2.27-6.48l2.47-3.34s-5.136-4.602-5.277-4.743z"/><path d="M11.886 11.622c-.005-.01-.008.005-.014.032.013-.01.02-.02.014-.032z"/></g><ellipse fill="#3C3C3B" cx="11.171" cy="35.543" rx="2.781" ry="2.362"/><ellipse fill="#FD813C" cx="11.164" cy="26.823" rx="3.532" ry="3.708"/><path fill="#C6C6C6" d="M6.38 26.833v7.18c0 1.315 1.11 2.895 2.968 2.895H12.7c1.856 0 3.755-1.58 3.755-2.895v-7.18H6.38z"/><path fill="#707070" d="M17.057 27.07c.08.38-.23.737-.7.802L6.3 29.284c-.466.066-.912-.186-.994-.56l-.02-.093c-.082-.375.23-.734.7-.8l10.054-1.41c.47-.065.914.185.996.563l.02.088zM17.057 32.608c.08.375-.23.734-.7.8L6.3 34.818c-.466.066-.912-.186-.994-.562l-.02-.09c-.082-.377.23-.735.7-.8l10.054-1.412c.47-.066.914.187.996.562l.02.092zM17.057 29.81c.08.376-.23.734-.7.802L6.3 32.024c-.466.065-.912-.187-.994-.563l-.02-.09c-.082-.377.23-.735.7-.8l10.054-1.413c.47-.064.914.188.996.562l.02.09z"/><g fill="#FD813C"><path d="M10.07 25.205a.525.525 0 0 1-.387.632l-.06.014a.52.52 0 0 1-.63-.384L5.92 12.84a.523.523 0 0 1 .387-.632l.06-.014A.526.526 0 0 1 7 12.58l3.07 12.625zM12.24 25.205a.525.525 0 0 0 .385.632l.06.014a.52.52 0 0 0 .63-.384L16.39 12.84a.524.524 0 0 0-.385-.63l-.06-.015a.527.527 0 0 0-.634.386l-3.07 12.625z"/></g><path fill="#FD813C" d="M15.68 13.082c-.774 0-.8-.665-1.02-1.25-.103-.282-.264-.807-.408-.807s-.323.524-.427.806c-.22.587-.458 1.252-1.08 1.252s-.863-.665-1.082-1.25c-.104-.282-.297-.807-.44-.807-.147 0-.34.524-.444.806-.22.587-.467 1.252-1.088 1.252-.622 0-.87-.665-1.088-1.25-.104-.282-.3-.807-.445-.807s-.465.524-.57.806c-.217.587-.434 1.252-1.21 1.252v-.685c.776 0 .464-.525.568-.807.22-.585.528-1.25 1.15-1.25.62 0 .9.664 1.118 1.25.104.282.316.807.46.807s.35-.525.454-.807c.218-.587.47-1.25 1.09-1.25s.87.664 1.088 1.25c.105.282.302.807.445.807.146 0 .34-.525.446-.807.217-.587.465-1.25 1.085-1.25s.802.666 1.02 1.25c.104.282.376.807.376.807v.685z"/><path opacity=".4" fill="#FFF" d="M10.512 3.897a.81.81 0 0 1 .81-.812c4.195 0 7.608 3.413 7.608 7.607a.812.812 0 0 1-1.624 0 5.99 5.99 0 0 0-5.984-5.984.81.81 0 0 1-.81-.81z"/></svg>