<svg xmlns="http://www.w3.org/2000/svg" width="168.576" height="148.808" viewBox="0 0 168.576 148.808"><ellipse opacity=".15" cx="84.288" cy="136.291" rx="84.288" ry="12.517"/><g fill="#878787"><path d="M51.02 118.02a2.673 2.673 0 0 1-2.674 2.673h-7.723a2.673 2.673 0 0 1-2.674-2.673V42.415a2.674 2.674 0 0 1 2.673-2.673h7.723a2.674 2.674 0 0 1 2.674 2.673v75.605zM154.088 118.02a2.673 2.673 0 0 1-2.676 2.673h-7.72a2.673 2.673 0 0 1-2.675-2.673V42.415a2.674 2.674 0 0 1 2.674-2.673h7.722a2.675 2.675 0 0 1 2.676 2.673v75.605z"/></g><path fill="#EDEDED" d="M148.146 21.783H43.89a2.672 2.672 0 0 0-2.673 2.674V93.93c0 4.76 3.99 7.726 8.912 7.726h91.778c4.922 0 8.91-2.967 8.91-7.727V24.457a2.672 2.672 0 0 0-2.672-2.675z"/><path fill="#EDEDED" d="M150.82 135.84a2.672 2.672 0 0 1-2.674 2.674H43.892a2.672 2.672 0 0 1-2.674-2.673V24.46a2.672 2.672 0 0 1 2.674-2.674h104.255a2.672 2.672 0 0 1 2.674 2.674V135.84z"/><path opacity=".1" d="M148.146 23.564H43.89a2.672 2.672 0 0 0-2.673 2.674v69.474c0 4.758 3.99 7.725 8.912 7.725h91.778c4.922 0 8.91-2.967 8.91-7.726V26.24a2.672 2.672 0 0 0-2.672-2.676z"/><path fill="#F6F6F6" d="M148.146 21.783H43.89a2.672 2.672 0 0 0-2.673 2.674V93.93c0 4.76 3.99 7.726 8.912 7.726h91.778c4.922 0 8.91-2.967 8.91-7.727V24.457a2.672 2.672 0 0 0-2.672-2.675z"/><path opacity=".03" d="M148.146 21.783L50.13 101.657h91.778c4.922 0 8.91-2.967 8.91-7.727V24.458a2.672 2.672 0 0 0-2.672-2.675z"/><path fill="#878787" d="M111.91 101.788c0 8.776-7.115 15.89-15.89 15.89-8.78 0-15.893-7.113-15.893-15.89 0-8.777 7.112-15.892 15.892-15.892 8.775 0 15.89 7.115 15.89 15.892z"/><path fill="#878787" d="M80.547 102.04H49.09c-5.003 0-9.072-4.07-9.072-9.073h.764c0 4.58 3.73 8.31 8.31 8.31h31.456v.762zM142.627 102.042H111.17v-.764h31.457c4.58 0 8.307-3.727 8.307-8.31h.765c-.002 5.004-4.07 9.074-9.073 9.074z"/><circle fill="#50CEFF" cx="96.019" cy="101.788" r="14.258"/><circle fill="#EDEDED" cx="96.02" cy="101.788" r="12.475"/><path fill="#50CEFF" d="M40.92 126.652h109.9v2.674H40.92z"/><path opacity=".2" d="M40.92 126.653h109.9v.597H40.92z"/><path opacity=".05" d="M48.94 21.783h-5.05a2.672 2.672 0 0 0-2.673 2.674V135.84a2.672 2.672 0 0 0 2.674 2.673h5.05V21.783zM143.098 21.783h5.05a2.672 2.672 0 0 1 2.673 2.674V135.84a2.672 2.672 0 0 1-2.673 2.673h-5.05V21.783z"/><path d="M119.843 61.708a5.196 5.196 0 0 1-5.196 5.196H84.065c-5.298 0-9.595-4.293-9.595-9.593 0-5.296 4.297-9.59 9.595-9.59.55 0 1.08.05 1.604.137 2.167-3.277 5.884-5.442 10.105-5.442 5.45 0 10.058 3.604 11.576 8.553.23-.02.46-.032.69-.032 3.608 0 6.654 2.394 7.647 5.68a5.196 5.196 0 0 1 4.156 5.092z" opacity=".2"/><path fill="#FFF" d="M119.843 62.888a5.195 5.195 0 0 1-5.196 5.195H84.065c-5.298 0-9.595-4.292-9.595-9.592 0-5.297 4.297-9.59 9.595-9.59.55 0 1.08.048 1.604.136 2.167-3.277 5.884-5.44 10.105-5.44 5.45 0 10.058 3.602 11.576 8.552.23-.02.46-.035.69-.035 3.608 0 6.654 2.396 7.647 5.682a5.197 5.197 0 0 1 4.156 5.093z" opacity=".6"/><path fill="#DADADA" d="M119.843 62.354a5.197 5.197 0 0 1-5.196 5.197H84.065c-5.298 0-9.595-4.293-9.595-9.592 0-5.298 4.297-9.59 9.595-9.59.55 0 1.08.047 1.604.135 2.167-3.277 5.884-5.442 10.105-5.442 5.45 0 10.058 3.605 11.576 8.554.23-.02.46-.032.69-.032 3.608 0 6.654 2.394 7.647 5.68a5.195 5.195 0 0 1 4.156 5.092z"/><g fill="#3DC2EA"><path d="M96.018 109.658c-3.95 0-7.165-3.213-7.165-7.166a7.12 7.12 0 0 1 1.983-4.942 1.102 1.102 0 0 1 1.555-.037c.44.42.454 1.114.038 1.554a4.94 4.94 0 0 0-1.377 3.425c0 2.74 2.23 4.968 4.968 4.968 2.74 0 4.97-2.23 4.97-4.968a4.928 4.928 0 0 0-1.378-3.425c-.418-.44-.4-1.135.037-1.554.44-.42 1.135-.4 1.555.037a7.136 7.136 0 0 1 1.983 4.942 7.173 7.173 0 0 1-7.167 7.166z"/><path d="M97.152 102.3a1.132 1.132 0 0 1-2.266 0v-7.25c0-.625.506-1.134 1.13-1.134.626 0 1.136.51 1.136 1.135v7.25z"/></g><path opacity=".05" d="M87.197 110.61c4.873 4.87 12.77 4.87 17.643 0s4.872-12.772 0-17.644L87.197 110.61z"/><path d="M106.12 54.612a5.554 5.554 0 0 0-7.604-.232l-.007-.01-6.604 6.508-.005-.004a3.108 3.108 0 0 1-4.256-.132 3.112 3.112 0 0 1 0-4.4 3.112 3.112 0 0 1 4.257-.13l.006-.005 1.81 1.836 1.787-1.67-1.976-2.002-.008.01a5.554 5.554 0 0 0-7.606 8.092 5.552 5.552 0 0 0 7.605.234l.007.01 6.604-6.51.005.005a3.11 3.11 0 1 1 0 4.664l-.004.004-1.857-1.854-1.75 1.71 1.986 1.98.006-.01a5.553 5.553 0 0 0 7.605-.233 5.56 5.56 0 0 0 0-7.858z" opacity=".3"/><g fill="#878787"><path d="M55.178 21.783v7.953a.848.848 0 0 0 1.694 0v-7.953h-1.694zM58.564 21.783v7.953a.847.847 0 0 0 1.692 0v-7.953h-1.692zM61.95 21.783v7.953a.847.847 0 0 0 1.693 0v-7.953H61.95z"/></g><g fill="#878787"><path d="M129.05 21.783v7.953a.848.848 0 0 0 1.693 0v-7.953h-1.692zM132.436 21.783v7.953c0 .468.38.848.846.848a.85.85 0 0 0 .848-.848v-7.953h-1.694zM135.82 21.783v7.953a.847.847 0 0 0 1.694 0v-7.953h-1.693z"/></g><path opacity=".15" d="M41.218 134.068v1.772a2.672 2.672 0 0 0 2.674 2.673h104.256a2.672 2.672 0 0 0 2.673-2.673v-1.772H41.22zM75.416 21.783v2.257a3.76 3.76 0 0 0 3.762 3.76h33.682a3.76 3.76 0 0 0 3.76-3.76v-2.257H75.416z"/><path opacity=".15" d="M72.576 133.308l17.94-59.702 57.63 64.908-63.858.324z"/><g><path fill="#CFEEFF" d="M90.516 137.014a1.82 1.82 0 0 1-1.82 1.824h-77.91a1.822 1.822 0 0 1-1.82-1.824V73.606a1.82 1.82 0 0 1 1.82-1.82h77.908a1.82 1.82 0 0 1 1.82 1.82v63.408z"/><path fill="#444" d="M90.516 79.073v-5.467a1.82 1.82 0 0 0-1.82-1.82h-77.91a1.82 1.82 0 0 0-1.82 1.82v5.467h81.55z"/><circle fill="#2CB740" cx="12.945" cy="75.524" r="1.442"/><circle fill="#F16442" cx="17.34" cy="75.524" r="1.441"/><path fill="#FFF" d="M87.51 75.462c0 .783-.637 1.417-1.42 1.417H22.217a1.42 1.42 0 0 1-1.42-1.418c0-.784.64-1.42 1.42-1.42H86.09c.783 0 1.42.636 1.42 1.42z"/><path fill="#F16442" d="M23.937 82.763c0 .75-.606 1.36-1.358 1.36h-8.32c-.752 0-1.357-.61-1.357-1.36 0-.75.605-1.356 1.357-1.356h8.318c.752 0 1.36.607 1.36 1.356z"/><path opacity=".2" fill="#444" d="M29.808 117.356c0 .628-.51 1.142-1.145 1.142H14.045a1.143 1.143 0 0 1 0-2.286h14.618c.634 0 1.145.513 1.145 1.144zM46.104 122.128c0 .63-.51 1.144-1.143 1.144H14.046a1.144 1.144 0 0 1-1.143-1.144c0-.632.51-1.144 1.143-1.144H44.96c.633 0 1.144.512 1.144 1.144z"/><g fill="#FEB13C"><path d="M85.237 82.763c0 .52-.42.944-.944.944h-5.77a.943.943 0 0 1-.942-.944c0-.52.42-.94.942-.94h5.77a.94.94 0 0 1 .945.94zM75.11 82.763c0 .52-.422.944-.943.944h-5.772a.943.943 0 0 1-.94-.944c0-.52.42-.94.94-.94h5.772c.52-.002.942.42.942.94zM65.215 82.763c0 .52-.42.944-.943.944H58.5a.942.942 0 0 1-.94-.944c0-.52.418-.94.94-.94h5.772a.94.94 0 0 1 .943.94zM55.088 82.763c0 .52-.422.944-.943.944h-5.773a.943.943 0 0 1-.94-.944c0-.52.42-.94.94-.94h5.773c.52-.002.943.42.943.94z"/></g><ellipse fill="#FCD22E" cx="23.186" cy="85.854" rx=".029" ry=".02"/><path fill="#19BDD8" d="M47.37 112.4a2 2 0 0 1-2 2H14.902a2 2 0 0 1-2-2V88.565c0-1.104.896-2 2-2H45.37a2 2 0 0 1 2 2V112.4z"/><path fill="#12C47B" d="M85.193 112.4a2 2 0 0 1-2 2H52.727c-1.104 0-2-.896-2-2V88.565c0-1.104.896-2 2-2h30.467c1.105 0 2 .897 2 2V112.4z"/><path opacity=".6" fill="#444" d="M83.076 116.928c0-.895-.225-1.62-1.117-1.62h-7.767c-.893 0-2.117.726-2.117 1.62v3.76c0 .895 1.225 1.62 2.117 1.62h7.766c.892 0 1.116-.726 1.116-1.62v-3.76z"/><path fill="#EFD40F" d="M85.076 128.267c0-.856-.58-.96-1.477-.96H53.456c-.896 0-1.38.104-1.38.96v3.805c0 .855.483 1.236 1.38 1.236H83.6c.896 0 1.477-.38 1.477-1.236v-3.805z"/><path fill="#3E86C1" d="M44.076 98.206c0-.785.16-1.898-.693-1.898H16.54c-.853 0-2.464 1.113-2.464 1.898v4.062c0 .786 1.61 1.04 2.465 1.04h26.843c.854 0 .693-.254.693-1.04v-4.062z"/><path fill="#EFD40F" d="M45.076 128.927a1.62 1.62 0 0 0-1.62-1.62h-29.76a1.62 1.62 0 0 0-1.62 1.62v3.762c0 .893.725 1.618 1.62 1.618h29.76a1.62 1.62 0 0 0 1.62-1.62v-3.76z"/><path opacity=".6" fill="#444" d="M69.076 116.928c0-.895-.225-1.62-1.117-1.62h-7.767c-.893 0-2.117.726-2.117 1.62v3.76c0 .895 1.225 1.62 2.117 1.62h7.766c.892 0 1.116-.726 1.116-1.62v-3.76z"/><path opacity=".2" fill="#444" d="M60.076 101.87c0 .742-.707 1.438-1.58 1.438H54.88c-.872 0-1.804-.695-1.804-1.438v-4.092c0-.742.932-1.47 1.805-1.47h3.616c.873 0 1.58.728 1.58 1.47v4.092zM60.076 93.95c0 .75-.607 1.357-1.357 1.357h-4.286c-.75 0-1.357-.608-1.357-1.357v-4.285c0-.75.607-1.357 1.357-1.357h4.285c.75 0 1.356.608 1.356 1.357v4.285zM60.076 111.104c0 .752-.786 2.204-1.536 2.204h-4.18c-.75 0-1.284-1.452-1.284-2.204v-4.18c0-.75.533-1.616 1.283-1.616h4.18c.75 0 1.536.867 1.536 1.616v4.18zM82.65 91.9c0 .63-.512 1.145-1.145 1.145H62.47A1.145 1.145 0 0 1 61.33 91.9c0-.63.51-1.142 1.143-1.142h19.036c.633 0 1.144.512 1.144 1.142zM82.65 100.592c0 .63-.512 1.144-1.145 1.144H62.47a1.144 1.144 0 0 1-1.142-1.144c0-.632.51-1.143 1.143-1.143h19.036c.633 0 1.144.51 1.144 1.142zM82.65 108.975c0 .63-.512 1.143-1.145 1.143H62.47a1.142 1.142 0 0 1 0-2.287h19.036c.633 0 1.144.513 1.144 1.145zM30.675 89.785c0 .58-.47 1.05-1.05 1.05H16.208c-.58 0-1.048-.47-1.048-1.05 0-.58.467-1.047 1.048-1.047h13.417c.58 0 1.05.468 1.05 1.047zM45.63 94.166c0 .58-.467 1.05-1.048 1.05H16.208a1.05 1.05 0 0 1-1.048-1.05c0-.577.467-1.05 1.048-1.05h28.374c.58 0 1.05.472 1.05 1.05zM45.63 106.388a1.05 1.05 0 0 1-1.048 1.052H16.208a1.05 1.05 0 0 1-1.048-1.052c0-.58.467-1.047 1.048-1.047h28.374c.58 0 1.05.47 1.05 1.048zM45.63 110.464a1.05 1.05 0 0 1-1.048 1.05H16.208c-.58 0-1.048-.472-1.048-1.05 0-.58.467-1.05 1.048-1.05h28.374c.58 0 1.05.47 1.05 1.05z"/></g><g><path fill="#FFD42D" d="M41.53 8.547a24.446 24.446 0 0 1-12.743 13.56A24.426 24.426 0 0 1 41.53 35.665a24.428 24.428 0 0 1 12.75-13.558 24.448 24.448 0 0 1-12.75-13.56z"/><path fill="#FF7600" d="M41.53 15.276a12.308 12.308 0 0 1-6.425 6.83 12.28 12.28 0 0 1 6.426 6.828 12.287 12.287 0 0 1 6.422-6.828 12.32 12.32 0 0 1-6.42-6.83z"/><path fill="#FFD42D" d="M48.574 0a8.83 8.83 0 0 1-4.61 4.9 8.822 8.822 0 0 1 4.61 4.905A8.844 8.844 0 0 1 53.186 4.9 8.85 8.85 0 0 1 48.574 0z"/><path fill="#FF7600" d="M48.574 2.43a4.435 4.435 0 0 1-2.32 2.47 4.446 4.446 0 0 1 2.32 2.468 4.473 4.473 0 0 1 2.32-2.467 4.468 4.468 0 0 1-2.32-2.47z"/><g><path fill="#FFD42D" d="M28.784 1.308a13.04 13.04 0 0 1-6.806 7.24 13.034 13.034 0 0 1 6.806 7.234 13.055 13.055 0 0 1 6.808-7.235 13.065 13.065 0 0 1-6.808-7.24z"/><path fill="#FF7600" d="M28.784 4.902a6.563 6.563 0 0 1-3.43 3.645 6.553 6.553 0 0 1 3.43 3.64 6.56 6.56 0 0 1 3.427-3.64 6.58 6.58 0 0 1-3.426-3.645z"/></g></g></svg>