<svg xmlns="http://www.w3.org/2000/svg" width="55.82" height="62.173" viewBox="0 0 55.82 62.173"><g fill="#4288C5"><path d="M30.13 53.428c-.73.072-1.472.11-2.22.11-12.312 0-22.328-10.016-22.328-22.33 0-7.87 4.104-14.79 10.275-18.767-.438-.432-.87-.868-1.328-1.286-.97-.883-1.845-1.8-2.69-2.734C4.688 13.478 0 21.802 0 31.21 0 46.6 12.52 59.12 27.91 59.12c1.39 0 2.756-.104 4.092-.302-.666-1.78-1.285-3.58-1.873-5.39zM50.238 31.21c0 6.48-2.783 12.314-7.21 16.393a159.4 159.4 0 0 0 3.87 3.6c.068.063.14.12.21.178 5.35-5.08 8.712-12.226 8.712-20.17C55.82 15.82 43.3 3.3 27.91 3.3c-.342 0-.682.013-1.02.025.23 1.85.41 3.71.608 5.566.14 0 .273-.01.412-.01 12.313 0 22.328 10.018 22.328 22.33z"/><path d="M30.166 12.753L19.12 6.376 30.167 0zM30.166 49.42l11.043 6.377-11.044 6.376z"/><circle cx="13.923" cy="10.346" r="2.825"/><circle cx="45.193" cy="49.419" r="2.824"/><g><path d="M15.664 25.85l.322-.166 6.523-3.396a.938.938 0 0 0-.98-.726l-5.995.467c-.5.038-.87.48-.82.98l.084.844c.048.5-.3.94-.776.978l-.863.066 1.313 13.262 1.156-11.95.034-.36z"/><path d="M30.225 19.398L16.66 26.455l-1.455 15.043 13.508-1.06 7.596-.596 4.854-.383 1.455-15.043z"/></g></g></svg>