<svg xmlns="http://www.w3.org/2000/svg" width="47.441" height="47.441" viewBox="0 0 47.441 47.441"><path fill="#4288C5" d="M23.72 0C10.62 0 0 10.62 0 23.72c0 13.102 10.62 23.722 23.72 23.722s23.722-10.62 23.722-23.72S36.822 0 23.722 0zM3.386 25.173h8.3a42.25 42.25 0 0 0 .798 7.013H5.17a20.292 20.292 0 0 1-1.785-7.013zm21.99-13.492V4.004c2.207.948 4.123 3.753 5.422 7.678h-5.422zm6.31 3.31c.454 2.11.743 4.43.843 6.876h-7.152V14.99h6.31zm-9.62-10.987v7.678h-5.423c1.3-3.924 3.217-6.73 5.424-7.677zm0 10.986v6.876h-7.15c.1-2.445.388-4.766.84-6.877h6.31zM11.7 21.865H3.415A20.29 20.29 0 0 1 5.29 14.99h7.247a42.123 42.123 0 0 0-.838 6.876zm3.2 3.307h7.166v7.013H15.7c-.444-2.157-.72-4.52-.8-7.013zm7.166 10.32v7.946c-2.258-.972-4.21-3.884-5.51-7.947h5.51zm3.31 7.946v-7.947h5.507c-1.3 4.063-3.25 6.975-5.508 7.946zm0-11.254v-7.013h7.16a41.607 41.607 0 0 1-.794 7.013h-6.367zm10.38-7.013h8.3a20.284 20.284 0 0 1-1.784 7.013H34.96c.44-2.198.718-4.55.796-7.013zm-.014-3.307a42.552 42.552 0 0 0-.838-6.877h7.246a20.24 20.24 0 0 1 1.873 6.876h-8.28zm4.432-10.185H34.05c-.89-2.847-2.085-5.293-3.5-7.174a20.425 20.425 0 0 1 9.624 7.175zM16.89 4.506c-1.413 1.88-2.61 4.328-3.5 7.175H7.267a20.424 20.424 0 0 1 9.625-7.175zM7.077 35.493h6.234c.898 2.96 2.12 5.502 3.576 7.442a20.426 20.426 0 0 1-9.81-7.442zm23.475 7.443c1.46-1.94 2.683-4.482 3.58-7.442h6.235a20.43 20.43 0 0 1-9.814 7.442z"/></svg>