<svg xmlns="http://www.w3.org/2000/svg" width="52.928" height="52.929" viewBox="0 0 52.928 52.929"><g fill="#4288C5"><path d="M44.148 4.725a4.06 4.06 0 0 1 4.055 4.056v35.37a4.06 4.06 0 0 1-4.055 4.055H8.778a4.06 4.06 0 0 1-4.054-4.055V8.78A4.06 4.06 0 0 1 8.78 4.724h35.368m0-4.724H8.778A8.78 8.78 0 0 0 0 8.78v35.37a8.78 8.78 0 0 0 8.78 8.778h35.368a8.78 8.78 0 0 0 8.78-8.78V8.78A8.78 8.78 0 0 0 44.147 0z"/><path d="M26.463 10.77l4.803 9.73 10.74 1.56-7.772 7.576 1.836 10.697-9.607-5.05-9.606 5.05 1.836-10.697-7.773-7.575 10.74-1.56z"/></g></svg>