<svg xmlns="http://www.w3.org/2000/svg" width="61.549" height="53.283" viewBox="0 0 61.549 53.283"><g fill="#4288C5"><path d="M26.11 35.773h4.503v-4.96h-5.07a29.28 29.28 0 0 0 .566 4.96zM26.775 21.265h3.838v-5.433c-1.56.672-2.92 2.657-3.838 5.433zM30.613 43.736v-5.623h-3.898c.92 2.875 2.3 4.936 3.898 5.623zM25.553 28.47h5.06V23.61h-4.466a29.02 29.02 0 0 0-.594 4.863zM23.268 30.812h-5.87a14.26 14.26 0 0 0 1.263 4.96h5.173a29.875 29.875 0 0 1-.565-4.96zM26.95 16.19a14.437 14.437 0 0 0-6.81 5.075h4.334c.63-2.015 1.477-3.745 2.477-5.075zM20.006 38.113a14.476 14.476 0 0 0 6.943 5.266c-1.03-1.372-1.896-3.17-2.532-5.267h-4.412zM23.87 23.608h-5.126a14.314 14.314 0 0 0-1.326 4.863h5.86a29.7 29.7 0 0 1 .593-4.862zM43.426 21.265a14.446 14.446 0 0 0-6.81-5.075c1 1.33 1.847 3.06 2.476 5.075h4.334zM40.29 28.47h5.858a14.27 14.27 0 0 0-1.326-4.862h-5.127c.32 1.52.522 3.156.594 4.863zM39.734 35.773h5.174c.7-1.53 1.14-3.203 1.262-4.96H40.3a29.982 29.982 0 0 1-.566 4.96z"/><path d="M56.498 5.436H36.623l.002-.002c-6.78 0-4.383-5.37-9.8-5.434H5.054C2.263 0 0 2.356 0 5.26v42.764c0 2.904 2.264 5.26 5.053 5.26h51.445c2.79 0 5.05-2.356 5.05-5.26v-37.33c0-2.907-2.26-5.258-5.05-5.258zm-24.715 41.13C22.516 46.566 15 39.053 15 29.783 15 20.515 22.516 13 31.783 13c9.27 0 16.783 7.515 16.783 16.783 0 9.27-7.513 16.783-16.783 16.783z"/><path d="M36.617 43.38a14.457 14.457 0 0 0 6.943-5.267h-4.41c-.636 2.096-1.502 3.895-2.533 5.266zM32.955 15.832v5.433h3.836c-.917-2.776-2.274-4.76-3.835-5.433zM37.418 23.608h-4.463v4.863h5.06c-.07-1.728-.275-3.37-.597-4.862zM38.02 30.812h-5.065v4.96h4.504c.31-1.524.507-3.2.56-4.96zM32.955 38.113v5.623c1.596-.688 2.975-2.748 3.896-5.623h-3.895z"/></g></svg>