<svg xmlns="http://www.w3.org/2000/svg" width="229.692" height="209.229" viewBox="0 0 229.692 209.229"><ellipse fill-rule="evenodd" clip-rule="evenodd" fill="#F4F4F4" cx="121.669" cy="194.41" rx="108.023" ry="14.818"/><path fill="#C4C4C4" d="M155.935 189.505c-19.132-.743-10.69-26.44-10.69-26.44l-21.156-.66-.016-.087-1.37.042-1.374-.042-.018.086-21.15.66s8.44 25.698-10.69 26.44c-19.132.744-.565 3.447-.565 3.447l33.8-.804 35.034 1.79s17.322-3.687-1.805-4.43z"/><path fill="#C4C4C4" d="M155.935 189.505c-19.132-.743-10.69-26.44-10.69-26.44l-21.156-.66-.016-.087-1.37.042-1.374-.042-.018.086-21.15.66s8.44 25.698-10.69 26.44c-19.132.744-.565 3.447-.565 3.447l33.8-.804 35.034 1.79s17.322-3.687-1.805-4.43z"/><path fill="#D8D8D8" d="M165.652 192.364c0 1.132-.935 2.046-2.09 2.046H81.836c-1.153 0-2.085-.914-2.085-2.046 0-1.132.932-2.05 2.085-2.05h81.73c1.153 0 2.087.917 2.087 2.05z"/><path opacity=".1" fill="#3C3C3B" d="M122.877 180.412c8.07 0 15.355-1.688 20.538-4.393-.282-6.52 1.83-12.955 1.83-12.955l-21.157-.66-.015-.086-1.37.04-1.374-.04-.02.085-21.15.66s2.07 6.316 1.834 12.774c5.2 2.81 12.632 4.572 20.883 4.572z"/><path fill-rule="evenodd" clip-rule="evenodd" fill="#EBEBEB" d="M218.017 168.477a5.966 5.966 0 0 1-5.964 5.968H31.288a5.967 5.967 0 0 1-5.967-5.968V39.195a5.968 5.968 0 0 1 5.968-5.967h180.765a5.966 5.966 0 0 1 5.964 5.967v129.282z"/><path fill-rule="evenodd" clip-rule="evenodd" fill="#464646" d="M218.017 149.456V39.196a5.966 5.966 0 0 0-5.964-5.968H31.288a5.968 5.968 0 0 0-5.967 5.967v110.26h192.697z"/><path fill-rule="evenodd" clip-rule="evenodd" fill="#777" d="M38.075 45.426h169.728v93.837H38.075z"/><path fill="#FCD22E" d="M25.024 16.427A29.8 29.8 0 0 1 9.477 32.965a29.803 29.803 0 0 1 15.547 16.54 29.8 29.8 0 0 1 15.553-16.54 29.794 29.794 0 0 1-15.553-16.538z"/><path fill="#FD7600" d="M25.024 24.632a15.03 15.03 0 0 1-7.837 8.333 14.983 14.983 0 0 1 7.837 8.333 14.99 14.99 0 0 1 7.828-8.333 15.045 15.045 0 0 1-7.828-8.333z"/><path fill="#FCD22E" d="M37.396 4.693a14.583 14.583 0 0 1-7.604 8.087 14.586 14.586 0 0 1 7.604 8.085 14.522 14.522 0 0 1 7.592-8.085 14.53 14.53 0 0 1-7.592-8.087z"/><path fill="#FD7600" d="M37.396 8.705a7.375 7.375 0 0 1-3.835 4.076 7.325 7.325 0 0 1 3.836 4.074 7.273 7.273 0 0 1 3.824-4.073 7.316 7.316 0 0 1-3.824-4.075z"/><g><path fill="#FCD22E" d="M10.964 0A21.032 21.032 0 0 1 0 11.67a21.016 21.016 0 0 1 10.964 11.668A21.02 21.02 0 0 1 21.94 11.67 21.038 21.038 0 0 1 10.963 0z"/><path fill="#FD7600" d="M10.964 5.794a10.606 10.606 0 0 1-5.527 5.876 10.536 10.536 0 0 1 5.527 5.874 10.556 10.556 0 0 1 5.527-5.874 10.626 10.626 0 0 1-5.526-5.876z"/></g><g><path fill="#EBF8FC" d="M38.563 58.67h168.963v80.59H38.563z"/><circle fill="#2CB740" cx="46.81" cy="52.611" r="2.988"/><path fill="#F16442" d="M58.9 52.61a2.987 2.987 0 0 1-5.973 0 2.987 2.987 0 0 1 2.982-2.985 2.99 2.99 0 0 1 2.99 2.986z"/><path fill="#FFF" d="M201.294 52.48a2.94 2.94 0 0 1-2.938 2.94H66.016a2.943 2.943 0 0 1-2.937-2.94 2.943 2.943 0 0 1 2.937-2.938h132.34a2.94 2.94 0 0 1 2.937 2.94z"/><path fill="#F16442" d="M69.582 67.61a2.817 2.817 0 0 1-2.815 2.817H49.533a2.815 2.815 0 0 1-2.812-2.817 2.81 2.81 0 0 1 2.813-2.812h17.233c1.56 0 2.816 1.26 2.816 2.812z"/><path opacity=".2" fill="#444" d="M81.743 139.26a2.367 2.367 0 0 0-2.367-2.35H49.088a2.363 2.363 0 0 0-2.364 2.35h35.02z"/><g fill="#FEB13C"><path d="M196.587 67.61a1.955 1.955 0 0 1-1.953 1.956h-11.96c-1.08 0-1.95-.88-1.95-1.955a1.95 1.95 0 0 1 1.95-1.95h11.96a1.95 1.95 0 0 1 1.953 1.95zM175.605 67.61a1.956 1.956 0 0 1-1.954 1.956h-11.96c-1.08 0-1.95-.88-1.95-1.955a1.95 1.95 0 0 1 1.95-1.95h11.96a1.95 1.95 0 0 1 1.955 1.95zM155.106 67.61a1.957 1.957 0 0 1-1.955 1.956h-11.96c-1.08 0-1.95-.88-1.95-1.955a1.95 1.95 0 0 1 1.95-1.95h11.96c1.083 0 1.956.873 1.956 1.95zM134.122 67.61a1.955 1.955 0 0 1-1.953 1.956h-11.962c-1.08 0-1.95-.88-1.95-1.955a1.95 1.95 0 0 1 1.95-1.95h11.96a1.95 1.95 0 0 1 1.954 1.95z"/></g><ellipse fill="#FCD22E" cx="68.026" cy="74.016" rx=".062" ry=".042"/><path fill="#19BDD8" d="M118.133 129.013a4.143 4.143 0 0 1-4.144 4.143H50.863a4.146 4.146 0 0 1-4.143-4.143V79.63a4.147 4.147 0 0 1 4.144-4.145h63.125a4.145 4.145 0 0 1 4.143 4.146v49.383z"/><path fill="#12C47B" d="M196.497 129.013a4.143 4.143 0 0 1-4.143 4.143H129.23a4.147 4.147 0 0 1-4.145-4.143V79.63a4.148 4.148 0 0 1 4.144-4.145h63.124a4.144 4.144 0 0 1 4.143 4.146v49.383z"/><path fill="#3E86C1" d="M114.192 98.74c0-1.63-1.8-2.28-3.777-2.28h-55.56c-1.978 0-3.663.65-3.663 2.28v9.277c0 1.627 1.686 3.44 3.662 3.44h55.56c1.978 0 3.778-1.813 3.778-3.44V98.74z"/><path opacity=".2" fill="#444" d="M144.192 108.647a2.81 2.81 0 0 1-2.81 2.81H133a2.81 2.81 0 0 1-2.81-2.81v-8.378a2.81 2.81 0 0 1 2.81-2.812h8.38a2.81 2.81 0 0 1 2.81 2.81v8.38zM144.192 91.647a2.81 2.81 0 0 1-2.81 2.81H133a2.81 2.81 0 0 1-2.81-2.81V83.27a2.81 2.81 0 0 1 2.81-2.81h8.38a2.81 2.81 0 0 1 2.81 2.81v8.377zM144.192 125.647a2.81 2.81 0 0 1-2.81 2.812H133a2.81 2.81 0 0 1-2.81-2.813v-8.377a2.81 2.81 0 0 1 2.81-2.812h8.38a2.81 2.81 0 0 1 2.81 2.812v8.377zM191.227 86.54a2.37 2.37 0 0 1-2.37 2.37H149.42a2.368 2.368 0 0 1-2.366-2.37 2.364 2.364 0 0 1 2.365-2.367h39.437c1.312 0 2.37 1.06 2.37 2.367zM191.227 104.547a2.37 2.37 0 0 1-2.37 2.372H149.42a2.367 2.367 0 0 1-2.366-2.373 2.363 2.363 0 0 1 2.365-2.365h39.437c1.312 0 2.37 1.06 2.37 2.365zM191.227 121.913a2.37 2.37 0 0 1-2.37 2.37H149.42a2.367 2.367 0 0 1-2.366-2.37 2.363 2.363 0 0 1 2.365-2.366h39.437c1.312 0 2.37 1.06 2.37 2.366zM83.542 82.158c0 1.2-.972 2.176-2.174 2.176h-27.8c-1.2 0-2.17-.978-2.17-2.176 0-1.2.97-2.17 2.17-2.17h27.8c1.202 0 2.174.97 2.174 2.17zM114.53 91.234a2.177 2.177 0 0 1-2.175 2.176H53.57c-1.202 0-2.173-.98-2.173-2.176 0-1.2.97-2.173 2.172-2.173h58.785c1.204 0 2.175.975 2.175 2.174zM114.53 116.557a2.178 2.178 0 0 1-2.175 2.178H53.57c-1.202 0-2.173-.98-2.173-2.178 0-1.2.97-2.17 2.172-2.17h58.785a2.17 2.17 0 0 1 2.175 2.17zM114.53 125a2.177 2.177 0 0 1-2.175 2.175H53.57c-1.202 0-2.173-.98-2.173-2.175 0-1.2.97-2.172 2.172-2.172h58.785A2.17 2.17 0 0 1 114.53 125z"/></g><path fill="#FCD22E" d="M137.375 88.785v22.282s4.793-5.246 4.827-5.073c.035.175 3.604 9.584 3.604 9.584l2.553-1.014-3.64-9.322 6.823.454-14.168-16.91z"/><path opacity=".1" fill-rule="evenodd" clip-rule="evenodd" fill="#FFF" d="M212.053 33.228H59.013c21.68 31.247 53.268 76.686 80.71 116.228h78.294V39.196a5.966 5.966 0 0 0-5.964-5.968z"/></svg>