<svg xmlns="http://www.w3.org/2000/svg" width="64.58" height="59.952" viewBox="0 0 64.58 59.952"><g fill="#4AA50F"><path d="M25.4 31.64h13.78c3.488 0 6.318-.75 6.318-4.237v-7.697c0-3.29-2.52-5.958-5.73-6.26-1.464 3.403-4.245 5.733-7.48 5.733-3.23 0-6.013-2.33-7.476-5.734-3.21.3-5.73 2.97-5.73 6.26v7.697c0 3.488 2.828 4.237 6.318 4.237z"/><ellipse cx="32.289" cy="8.12" rx="6.303" ry="8.12"/><g><path d="M4.564 59.952h9.953c2.52 0 4.564-.54 4.564-3.06V51.33c0-2.377-1.82-4.304-4.138-4.52-1.058 2.457-3.066 4.14-5.403 4.14-2.336 0-4.345-1.683-5.402-4.14C1.82 47.025 0 48.953 0 51.33v5.562c0 2.52 2.043 3.06 4.564 3.06z"/><ellipse cx="9.54" cy="42.961" rx="4.553" ry="5.866"/><path d="M27.312 59.952h9.954c2.52 0 4.564-.54 4.564-3.06V51.33c0-2.377-1.82-4.304-4.138-4.52-1.06 2.457-3.068 4.14-5.404 4.14s-4.344-1.683-5.4-4.14c-2.32.216-4.14 2.144-4.14 4.52v5.56c0 2.522 2.044 3.062 4.564 3.062z"/><ellipse cx="32.289" cy="42.961" rx="4.553" ry="5.866"/><g><path d="M50.062 59.952h9.953c2.52 0 4.564-.54 4.564-3.06V51.33c0-2.377-1.82-4.304-4.14-4.52-1.058 2.457-3.066 4.14-5.403 4.14-2.335 0-4.344-1.683-5.4-4.14-2.32.216-4.14 2.144-4.14 4.52v5.56c0 2.522 2.044 3.062 4.565 3.062z"/><ellipse cx="55.038" cy="42.961" rx="4.553" ry="5.866"/></g></g></g></svg>