<svg xmlns="http://www.w3.org/2000/svg" width="170.856" height="170.858" viewBox="0 0 170.856 170.858"><circle fill="#FBBD01" cx="85.428" cy="85.429" r="85.428"/><circle fill="#FAA700" cx="85.428" cy="85.429" r="60.928"/><g fill="#FFF"><path d="M56.975 25.527L52.558 14.88l5.602-2.323c2.027-.84 3.602.02 4.19 1.442.557 1.34.098 2.577-.822 3.2 1.206-.293 2.572.43 3.13 1.77.66 1.598.122 3.318-1.905 4.16l-5.778 2.397zM60.2 15.36c-.277-.672-.96-.97-1.728-.65l-2.84 1.18.96 2.313 2.84-1.18c.767-.316 1.047-.994.77-1.664zm2.01 4.253c-.278-.67-.995-1.046-1.89-.675L57.4 20.15l1.026 2.474 2.92-1.212c.863-.358 1.18-1.033.864-1.8zM65.365 15.952c-.792-3.455 1.28-6.414 4.65-7.188 2.477-.568 4.22.452 5.332 1.67l-1.824 1.48c-.68-.8-1.858-1.293-3.02-1.027-2.04.468-3.163 2.375-2.677 4.5.487 2.124 2.33 3.35 4.37 2.883 1.162-.268 2.012-1.206 2.27-2.24l2.284.52c-.487 1.585-1.59 3.275-4.068 3.844-3.37.774-6.524-.987-7.317-4.442zM78.413 19.094l-.797-11.5 8.14-.564.148 2.155-5.69.394.17 2.43 5.57-.385.147 2.155-5.57.385.182 2.604 5.69-.395.15 2.156-8.14.564zM88.075 18.564l.85-11.495 8.134.6-.16 2.154-5.688-.42-.69 9.34-2.447-.18zM97.276 17.21c1.18.128 1.927-.17 2.997-3.04L102.32 8.6l7.958 1.932-2.21 9.103 1.01.244-1.012 4.166-2.385-.58.502-2.065-6.986-1.694-.502 2.065-2.384-.578.966-3.98zm3.186.58l5.206 1.264 1.7-7.003-3.41-.827-1.357 3.69c-.535 1.47-1.274 2.393-2.138 2.877z"/><path d="M116.706 25.618l.142-2.073-4.522-2-1.454 1.494-2.562-1.132 8.74-8.746 2.814 1.244-.596 12.344-2.562-1.132zm.76-9.59l-3.65 3.813 3.288 1.454.36-5.265z"/></g><g fill="#FFF"><path d="M49.064 141.01l-1.323 1.768-4.885-3.653-1.25 1.672 2.45 1.83c2.01 1.504 2.103 3.715.885 5.344-1.218 1.628-3.35 2.177-5.374.663l-4.46-3.336 7.062-9.444 6.896 5.156zm-8.78 1.555l-1.844 2.464 2.18 1.63c.78.583 1.706.525 2.268-.226.57-.765.354-1.656-.424-2.237l-2.18-1.632zM45.044 152.357l5.56-10.406 7.362 3.933-1.04 1.95-5.15-2.75-1.174 2.202 5.04 2.69-1.042 1.95-5.04-2.69-1.258 2.356 5.148 2.75-1.042 1.95-7.364-3.933zM56.68 151.85c1.18-3.427 4.575-4.876 7.918-3.726 2.458.844 3.418 2.67 3.727 4.328l-2.384.302c-.157-1.063-.912-2.127-2.065-2.524-2.022-.695-4.028.353-4.753 2.46-.724 2.105.212 4.166 2.234 4.862 1.153.396 2.397.04 3.182-.72l1.7 1.69c-1.28 1.11-3.15 1.98-5.606 1.135-3.344-1.148-5.13-4.382-3.95-7.808zM76.16 162.946l1.463-9.47-5.505-.85-1.463 9.47-2.48-.383 1.8-11.655 10.484 1.62-1.8 11.655-2.5-.387zM81.6 161.564c1.184-.033 1.854-.688 2.14-3.81l.523-6.042 8.376-.23.324 11.785-2.527.07-.264-9.578-3.587.098-.35 4.006c-.43 4.91-2.173 5.86-4.576 5.927l-.06-2.226zM104.583 161.164l-1.113-1.81-4.953 1.022-.322 2.108-2.806.58 2.08-12.473 3.082-.636 6.836 10.63-2.805.58zm-5.064-8.433l-.774 5.343 3.6-.744-2.827-4.6zM112.123 158.8l-3.406-8.956-3.222 1.225-.785-2.065 8.79-3.343.786 2.066-3.206 1.218 3.405 8.956-2.362.9zM127.29 151.416l-2.495-4.276-4.812 2.804 2.494 4.277-2.168 1.266-5.94-10.187 2.167-1.267 2.334 4.002 4.812-2.806-2.333-4.003 2.183-1.274 5.94 10.188-2.184 1.276zM128.284 143.88c-2.327-2.686-2.03-6.313.657-8.64 2.7-2.338 6.333-2.115 8.66.572s2.03 6.314-.67 8.65c-2.687 2.33-6.32 2.106-8.646-.58zm7.365-6.378c-1.448-1.67-3.605-2-5.25-.578-1.645 1.425-1.612 3.595-.164 5.267 1.435 1.658 3.59 2.013 5.234.59 1.645-1.424 1.615-3.62.18-5.278z"/></g><g fill="#FFF"><path d="M40.15 98.58V70.776h19.674v5.21H46.068v5.877h13.465v5.21H46.068v11.503H40.15zM79.666 98.58l-5.46-9.88h-4.334v9.88h-5.92V70.776h13.006c5.793 0 9.336 3.792 9.336 8.962 0 4.917-3.084 7.543-6.086 8.252l6.253 10.586h-6.794zm.585-18.84c0-2.335-1.793-3.753-4.168-3.753h-6.21v7.502h6.21c2.375 0 4.17-1.417 4.17-3.75zM90.756 98.58V70.776h19.674v5.21H96.673v5.877h13.465v5.21H96.673v6.293h13.757v5.21H90.756zM115.057 98.58V70.776h19.675v5.21h-13.755v5.877h13.463v5.21h-13.463v6.293h13.755v5.21h-19.675z"/></g><g fill="#FBD12E"><path d="M36.125 104.48c7.648 19.774 26.832 33.805 49.303 33.805 22.473 0 41.656-14.03 49.304-33.805H36.125zM134.295 65.273C126.37 46.083 107.48 32.57 85.428 32.57c-22.052 0-40.942 13.51-48.866 32.703h97.733z"/></g><g fill="#FFF"><circle cx="12.749" cy="85.429" r="5.844"/><circle cx="158.106" cy="85.429" r="5.844"/></g></svg>