<svg xmlns="http://www.w3.org/2000/svg" width="68.692" height="81.52" viewBox="0 0 68.692 81.52"><path fill="#098CFA" d="M63.45 66.658a4.573 4.573 0 0 1-4.572 4.572H8.003a4.572 4.572 0 0 1-4.57-4.572V32.93a4.572 4.572 0 0 1 4.57-4.57h50.875a4.573 4.573 0 0 1 4.572 4.57V66.66z"/><path fill="#604303" d="M63.45 70.086a4.572 4.572 0 0 1-4.572 4.573H8.003a4.57 4.57 0 0 1-4.57-4.574V36.36a4.572 4.572 0 0 1 4.57-4.572h50.875a4.573 4.573 0 0 1 4.572 4.572v33.726z"/><path fill="#FFCE12" d="M0 36.202c0-4.478 3.632-7.844 8.11-7.844h8.404c4.48 0 8.065 3.366 8.065 7.844v21.045c0 4.48-3.586 8.267-8.066 8.267H8.11c-4.48 0-8.11-3.787-8.11-8.267V36.202z"/><path fill="#604303" d="M2.783 34.075a4.57 4.57 0 0 1 4.57-4.574h51.523c2.528 0 4.573 2.217 4.573 4.743v6.977c0 2.526-2.046-2.572-4.574-2.572H7.354a4.57 4.57 0 0 1-4.57-4.573z"/><path fill="#FF5955" d="M55.434 15.89a3.787 3.787 0 0 1 .53 5.33l-24.817 30.3a3.788 3.788 0 0 1-5.33.53L7.465 37.02a3.79 3.79 0 0 1-.532-5.332l24.817-30.3a3.785 3.785 0 0 1 5.328-.53L55.434 15.89z"/><path fill="#333" d="M8.408 37.79l29.35-35.84 5.167 4.23-29.35 35.842z"/><path fill="#FFF" d="M36.17 25.466c.4.328.46.918.13 1.32L21.097 45.354a.94.94 0 0 1-1.32.13l-2.1-1.72a.94.94 0 0 1-.132-1.32l15.204-18.565c.33-.4.922-.46 1.322-.132l2.1 1.72zM44.1 15.78c.403.328.462.92.133 1.32l-4.892 5.974a.94.94 0 0 1-1.32.13l-2.098-1.718a.94.94 0 0 1-.133-1.32l4.89-5.975c.33-.4.922-.458 1.324-.13l2.097 1.72z"/><path fill="#7FBC0A" d="M68.418 41.88a3.787 3.787 0 0 1-2.1 4.93L29.984 61.43a3.786 3.786 0 0 1-4.928-2.1L16.2 37.32a3.787 3.787 0 0 1 2.1-4.926l36.335-14.622a3.79 3.79 0 0 1 4.93 2.1l8.853 22.01z"/><path fill="#333" d="M16.655 38.452L59.63 21.16l2.493 6.193-42.975 17.293z"/><path fill="#FFF" d="M46.923 41.006a.938.938 0 0 1-.52 1.222L24.14 51.185a.937.937 0 0 1-1.22-.52l-1.016-2.516a.942.942 0 0 1 .52-1.223l22.263-8.957a.94.94 0 0 1 1.223.52l1.013 2.516zM58.538 36.333a.94.94 0 0 1-.52 1.222l-7.163 2.88a.937.937 0 0 1-1.22-.52L48.62 37.4a.94.94 0 0 1 .522-1.222l7.162-2.883a.942.942 0 0 1 1.222.52l1.012 2.518z"/><path fill="#603107" d="M55.448 40.363c0-.947-1.302-1.715-2.302-1.715H11.604c-.998 0-1.886.768-1.886 1.715V60.94c0 .946.888 1.716 1.886 1.716h41.543c1 0 2.302-.77 2.302-1.716V40.363z"/><path fill="#FFCE12" d="M60.02 76.944a4.574 4.574 0 0 1-4.572 4.575H4.573A4.573 4.573 0 0 1 0 76.943V43.22a4.574 4.574 0 0 1 4.573-4.572h50.875a4.573 4.573 0 0 1 4.573 4.572v33.724z"/><path opacity=".25" fill="#010000" d="M45.372 57.484l-1.666-.134a13.103 13.103 0 0 0-1.312-3.206l1.11-1.284c.386-.387.46-.94.166-1.233l-3.583-3.584c-.294-.296-.845-.223-1.23.163l-1.29 1.1a13.06 13.06 0 0 0-3.202-1.323l-.13-1.59c0-.545-.34-.885-.757-.885h-5.07c-.416 0-.756.34-.756.886l-.136 1.64c-1.135.304-2.21.725-3.2 1.3l-1.288-1.114c-.385-.386-.937-.465-1.232-.168l-3.583 3.58c-.297.295-.224.844.163 1.232l1.1 1.29a13.168 13.168 0 0 0-1.325 3.2l-1.71.13c-.543 0-1.004.34-1.004.756v5.07c0 .416.46.757 1.004.757l1.7.133a13.25 13.25 0 0 0 1.33 3.202l-1.097 1.286c-.386.387-.46.937-.163 1.23l3.585 3.587c.295.293.848.224 1.232-.163l1.29-1.1c.995.576 2.07 1.022 3.205 1.324l.13 1.755c0 .545.34 1.054.755 1.054h5.07c.417 0 .756-.51.756-1.053l.132-1.722a13.276 13.276 0 0 0 3.207-1.343l1.284 1.095c.386.386.938.454 1.232.16l3.585-3.587c.295-.295.222-.848-.162-1.233l-1.1-1.288c.575-.995 1.02-2.07 1.324-3.208l1.637-.128c.545 0 .93-.34.93-.757v-5.07c.002-.418-.384-.756-.928-.756zm-14.43 8.225a5.236 5.236 0 0 1 0-10.473 5.236 5.236 0 1 1 0 10.472z"/><path opacity=".1" fill="#010000" d="M55.448 38.647L4.573 81.52h50.875a4.574 4.574 0 0 0 4.573-4.575V43.22a4.573 4.573 0 0 0-4.572-4.573z"/></svg>