<svg xmlns="http://www.w3.org/2000/svg" width="168.576" height="155.808" viewBox="0 0 168.576 155.808"><ellipse opacity=".15" cx="84.288" cy="143.291" rx="84.288" ry="12.517"/><path fill="#09893D" d="M63.075 36.59l6.02-14.646 6.07 10.73z"/><path fill="#CFEEFF" d="M152.13 140.916c0 1.67-1.35 3.024-3.022 3.024H19.836a3.023 3.023 0 0 1-3.02-3.024V35.703a3.022 3.022 0 0 1 3.02-3.022h129.27a3.02 3.02 0 0 1 3.023 3.023v105.213z"/><path fill="#444" d="M152.13 44.774v-9.07a3.02 3.02 0 0 0-3.022-3.023H19.836a3.022 3.022 0 0 0-3.02 3.023v9.07H152.13z"/><path fill="#2CB740" d="M25.812 38.886a2.392 2.392 0 1 1-4.787 0 2.392 2.392 0 0 1 4.787 0z"/><path fill="#F16442" d="M33.104 38.886a2.393 2.393 0 1 1-2.395-2.39 2.395 2.395 0 0 1 2.394 2.39z"/><path fill="#FFF" d="M147.14 38.783c0 1.3-1.054 2.352-2.353 2.352H38.804a2.355 2.355 0 0 1-2.354-2.352c0-1.3 1.06-2.354 2.354-2.354h105.982c1.3 0 2.355 1.052 2.355 2.353z"/><path fill="#F16442" d="M41.657 50.897a2.256 2.256 0 0 1-2.254 2.257h-13.8a2.255 2.255 0 0 1-2.254-2.257 2.25 2.25 0 0 1 2.252-2.25h13.802a2.25 2.25 0 0 1 2.253 2.25z"/><path opacity=".2" fill="#444" d="M51.4 108.296a1.898 1.898 0 0 1-1.9 1.896H25.244a1.896 1.896 0 0 1 0-3.793H49.5c1.052-.002 1.9.85 1.9 1.896zM78.438 116.215a1.898 1.898 0 0 1-1.896 1.897H25.244a1.897 1.897 0 0 1-1.896-1.897c0-1.05.846-1.897 1.896-1.897h51.298c1.05 0 1.896.848 1.896 1.897z"/><g fill="#FEB13C"><path d="M143.37 50.897c0 .863-.697 1.566-1.565 1.566h-9.576a1.564 1.564 0 0 1-1.563-1.566 1.56 1.56 0 0 1 1.562-1.562h9.575c.868 0 1.566.7 1.566 1.562zM126.566 50.897c0 .863-.698 1.566-1.563 1.566h-9.578a1.564 1.564 0 0 1-1.562-1.566 1.56 1.56 0 0 1 1.562-1.562h9.578c.865 0 1.563.7 1.563 1.562zM110.148 50.897c0 .863-.696 1.566-1.564 1.566h-9.578a1.562 1.562 0 0 1-1.562-1.566 1.56 1.56 0 0 1 1.562-1.562h9.578c.868 0 1.564.7 1.564 1.562zM93.346 50.897c0 .863-.7 1.566-1.565 1.566h-9.578a1.564 1.564 0 0 1-1.562-1.566c0-.862.698-1.562 1.562-1.562h9.58c.864 0 1.564.7 1.564 1.562z"/></g><ellipse fill="#FCD22E" cx="40.411" cy="56.027" rx=".049" ry=".032"/><path fill="#19BDD8" d="M80.54 100.074a3.315 3.315 0 0 1-3.318 3.318H26.667a3.32 3.32 0 0 1-3.318-3.318v-39.55c0-1.83 1.486-3.32 3.317-3.32h50.555a3.32 3.32 0 0 1 3.318 3.32v39.55z"/><path fill="#12C47B" d="M143.3 100.074a3.317 3.317 0 0 1-3.32 3.318H89.43a3.32 3.32 0 0 1-3.32-3.318v-39.55c0-1.83 1.49-3.32 3.32-3.32h50.553a3.32 3.32 0 0 1 3.32 3.32v39.55z"/><path opacity=".6" fill="#444" d="M139.81 107.586c0-1.484-.397-2.278-1.878-2.278h-12.885c-1.48 0-3.238.794-3.238 2.278v6.24c0 1.482 1.756 2.48 3.237 2.48h12.885c1.48 0 1.877-.998 1.877-2.48v-6.24z"/><path fill="#EFD40F" d="M143.81 126.4c0-1.42-1.67-1.093-3.155-1.093H90.64c-1.487 0-1.83-.328-1.83 1.093v6.314c0 1.418.343 1.593 1.83 1.593h50.015c1.485 0 3.154-.175 3.154-1.593V126.4z"/><path fill="#3E86C1" d="M75.81 76.522c0-1.303-.47-3.215-1.886-3.215H29.387c-1.417 0-3.578 1.912-3.578 3.215v6.738c0 1.305 2.16 2.047 3.577 2.047h44.537c1.416 0 1.885-.742 1.885-2.047v-6.738z"/><path fill="#EFD40F" d="M76.81 127.994a2.687 2.687 0 0 0-2.688-2.687H24.495a2.688 2.688 0 0 0-2.687 2.687v6.627a2.687 2.687 0 0 0 2.687 2.688h49.627a2.688 2.688 0 0 0 2.687-2.687v-6.626z"/><path opacity=".6" fill="#444" d="M116.81 107.586c0-1.484-.626-2.278-2.107-2.278h-12.885c-1.48 0-3.01.794-3.01 2.278v6.24c0 1.482 1.528 2.48 3.01 2.48h12.885c1.48 0 2.106-.998 2.106-2.48v-6.24z"/><path opacity=".2" fill="#444" d="M101.81 82.602c0 1.232-1.36 2.706-2.81 2.706h-5.998c-1.448 0-2.193-1.474-2.193-2.706v-6.79c0-1.23.744-2.504 2.192-2.504h6c1.447 0 2.807 1.274 2.807 2.505v6.79zM102.81 70.055a2.252 2.252 0 0 1-2.253 2.252H93.06a2.252 2.252 0 0 1-2.25-2.252V62.56a2.252 2.252 0 0 1 2.25-2.252h7.497a2.252 2.252 0 0 1 2.252 2.252v7.495zM101.81 97.923c0 1.247-1.49 3.385-2.736 3.385h-6.937c-1.244 0-1.328-2.138-1.328-3.385v-6.936c0-1.243.083-2.68 1.327-2.68h6.937c1.245 0 2.735 1.437 2.735 2.68v6.936zM139.08 66.058c0 1.045-.85 1.9-1.9 1.9h-31.584a1.9 1.9 0 0 1-1.896-1.9c0-1.045.846-1.894 1.896-1.894h31.584c1.05 0 1.9.85 1.9 1.894zM139.08 80.48a1.9 1.9 0 0 1-1.9 1.897h-31.584a1.897 1.897 0 0 1-1.896-1.897c0-1.048.846-1.896 1.896-1.896h31.584c1.05 0 1.9.85 1.9 1.896zM139.08 94.39a1.9 1.9 0 0 1-1.9 1.896h-31.584a1.896 1.896 0 0 1-1.896-1.897c0-1.048.846-1.897 1.896-1.897h31.584c1.05 0 1.9.85 1.9 1.896zM52.838 62.548c0 .963-.78 1.744-1.742 1.744H28.834a1.74 1.74 0 0 1-1.74-1.744c0-.96.775-1.737 1.74-1.737h22.262c.963 0 1.742.777 1.742 1.738zM77.654 69.817c0 .96-.776 1.745-1.74 1.745h-47.08a1.74 1.74 0 0 1-1.74-1.745c0-.958.775-1.74 1.74-1.74h47.08c.964 0 1.74.783 1.74 1.74zM77.654 90.098c0 .96-.776 1.745-1.74 1.745h-47.08a1.74 1.74 0 0 1-1.74-1.745c0-.96.775-1.737 1.74-1.737h47.08c.964 0 1.74.777 1.74 1.738zM77.654 96.86a1.74 1.74 0 0 1-1.74 1.74h-47.08a1.74 1.74 0 0 1-1.74-1.74c0-.96.775-1.74 1.74-1.74h47.08c.964 0 1.74.78 1.74 1.74z"/><path opacity=".3" fill="#4C4C4C" d="M72.094 81.5V32.943l-16.88 1-16.765-1V81.5H24.443l30.828 37.71 30.83-37.71z"/><g><g fill="#09BA59"><path d="M35.45 21.944h33.644v61.073H35.45z"/><path d="M83.1 78.5l-30.828 37.71L21.444 78.5z"/></g><path opacity=".2" fill="#4C4C4C" d="M69.094 78.5V21.943h-16.88v94.193l.058.073 30.83-37.71z"/></g><g><path fill="#FFD42D" d="M36.852 8.547a24.446 24.446 0 0 1-12.744 13.56 24.426 24.426 0 0 1 12.744 13.558A24.423 24.423 0 0 1 49.6 22.107a24.44 24.44 0 0 1-12.748-13.56z"/><path fill="#FF7600" d="M36.852 15.276a12.31 12.31 0 0 1-6.426 6.83 12.282 12.282 0 0 1 6.426 6.828 12.282 12.282 0 0 1 6.42-6.828 12.308 12.308 0 0 1-6.42-6.83z"/><path fill="#FFD42D" d="M43.895 0a8.832 8.832 0 0 1-4.61 4.9 8.826 8.826 0 0 1 4.61 4.905 8.84 8.84 0 0 1 4.61-4.905 8.846 8.846 0 0 1-4.61-4.9z"/><path fill="#FF7600" d="M43.895 2.43a4.436 4.436 0 0 1-2.322 2.47 4.445 4.445 0 0 1 2.32 2.467 4.473 4.473 0 0 1 2.32-2.467 4.458 4.458 0 0 1-2.318-2.47z"/><g><path fill="#FFD42D" d="M24.104 1.308a13.033 13.033 0 0 1-6.805 7.24 13.03 13.03 0 0 1 6.804 7.234 13.058 13.058 0 0 1 6.808-7.235 13.062 13.062 0 0 1-6.808-7.24z"/><path fill="#FF7600" d="M24.104 4.902a6.558 6.558 0 0 1-3.43 3.645 6.548 6.548 0 0 1 3.43 3.64 6.562 6.562 0 0 1 3.427-3.64 6.58 6.58 0 0 1-3.426-3.645z"/></g></g></svg>