<svg xmlns="http://www.w3.org/2000/svg" width="61.707" height="51.237" viewBox="0 0 61.707 51.237"><g fill="#4288C5"><path d="M33.993 37.857c0-2 .4-3.905 1.118-5.646l-2.45-1.077v.002c-.43-.19-.75-.33-.928-.407 0-.037.006-.07.006-.107V28.09c1.624-1.82 2.844-4.327 3.43-7.214.052.01.094.04.147.042a1.38 1.38 0 0 0 1.478-1.276l.286-3.857a1.378 1.378 0 0 0-.803-1.354V9.36c0-5.17-4.835-9.36-10.795-9.36-5.965 0-10.794 4.19-10.794 9.36v5.07a1.38 1.38 0 0 0-.804 1.355l.284 3.857c.058.76.72 1.333 1.48 1.276.055-.002.095-.03.146-.042.514 2.535 1.517 4.777 2.854 6.52V30.62c0 .036.005.07.005.104l-.926.407A3783.352 3783.352 0 0 0 6.59 36.04c-1.08.495-1.923 1.128-2.65 2.655C3.21 40.218.223 48.78.223 48.78s-.93 2.455.993 2.455h41.208c-4.983-2.395-8.432-7.478-8.432-13.378z"/><path d="M48.85 25c-7.1 0-12.856 5.757-12.856 12.857S41.75 50.714 48.85 50.714s12.857-5.757 12.857-12.857S55.95 25 48.85 25zm-.04 21.47a1.928 1.928 0 0 1-1.905-1.906c0-1.035.87-1.905 1.905-1.905 1.034 0 1.904.87 1.904 1.904 0 1.035-.87 1.905-1.904 1.905zm1.01-6.797c0 .377.188.776.423.988l-2.562.753c-.493-.54-.775-1.246-.775-2.07 0-2.796 3.434-3.126 3.434-4.75 0-.728-.542-1.338-1.835-1.338-1.176 0-2.164.587-2.893 1.458l-1.904-2.14c1.246-1.457 3.127-2.28 5.15-2.28 3.032 0 4.89 1.527 4.89 3.714 0 3.433-3.928 3.69-3.928 5.666z"/></g></svg>