<svg xmlns="http://www.w3.org/2000/svg" width="51.929" height="51.93" viewBox="0 0 51.929 51.93"><g fill="#4288C5"><path d="M35.62 8.754H16.308a1.93 1.93 0 0 0 0 3.863H35.62a1.932 1.932 0 0 0 0-3.863zM16.307 43.648H35.62a1.93 1.93 0 0 0 0-3.863H16.308a1.93 1.93 0 0 0 0 3.863zM29.562 23.863c0-.985-.74-1.582-1.725-1.582h-2.654v3.166h2.654c.986 0 1.725-.615 1.725-1.583z"/><path d="M43.313 0h-34.7A8.615 8.615 0 0 0 0 8.615v34.7a8.614 8.614 0 0 0 8.614 8.615h34.7a8.614 8.614 0 0 0 8.614-8.614v-34.7A8.614 8.614 0 0 0 43.313 0zm3.98 43.316a3.983 3.983 0 0 1-3.98 3.978h-34.7a3.983 3.983 0 0 1-3.978-3.978V35.88h42.658v7.436zM9.403 20.083h2.848l3.254 9.02 3.236-9.02h2.85l-4.522 11.73h-3.13l-4.536-11.73zm13.283 11.73v-11.73h5.486c2.55 0 3.938 1.723 3.938 3.78 0 2.04-1.405 3.78-3.938 3.78h-2.988v4.168h-2.498zm10.556-8.336c0-1.952 1.688-3.57 4.448-3.57 1.865 0 3.412.563 4.572 1.637l-1.39 1.828c-.95-.88-2.216-1.284-3.41-1.284-1.074 0-1.67.475-1.67 1.18 0 1.863 6.733.614 6.733 4.993 0 2.147-1.53 3.765-4.695 3.765-2.25 0-3.87-.756-4.96-1.866l1.355-1.9a5.14 5.14 0 0 0 3.728 1.583c1.372 0 2.04-.633 2.04-1.3 0-2.077-6.75-.652-6.75-5.066zm14.05-7.547H4.636V8.615a3.983 3.983 0 0 1 3.98-3.98h34.698a3.983 3.983 0 0 1 3.98 3.98v7.315z"/></g></svg>