<svg xmlns="http://www.w3.org/2000/svg" width="65.693" height="53.351" viewBox="0 0 65.693 53.351"><g fill="#4288C5"><path d="M26.464 10.77l4.803 9.73 10.74 1.56-7.773 7.577 1.836 10.696-9.606-5.05-9.607 5.05 1.836-10.696-7.772-7.576 10.74-1.56z"/><path d="M38.596 48.204H8.78a4.06 4.06 0 0 1-4.056-4.055V8.78A4.06 4.06 0 0 1 8.78 4.724h35.368a4.06 4.06 0 0 1 4.055 4.056v16.507a16 16 0 0 1 4.49-.65c.08 0 .156.01.235.012V8.78A8.78 8.78 0 0 0 44.148 0H8.78A8.78 8.78 0 0 0 0 8.78v35.37a8.78 8.78 0 0 0 8.78 8.778h33.676a16.063 16.063 0 0 1-3.86-4.724z"/><path d="M43.746 31.402c-5.02 5.02-5.02 13.163 0 18.184 5.02 5.02 13.16 5.02 18.182 0 5.02-5.02 5.02-13.163 0-18.183s-13.162-5.02-18.182 0zm15.59 7.592a1.5 1.5 0 0 1 0 3h-5v5a1.5 1.5 0 0 1-3 0v-5h-5c-.828 0-1.5-.672-1.5-1.5s.672-1.5 1.5-1.5h5.002v-5a1.5 1.5 0 1 1 3 0v5h4.998z"/></g></svg>