<svg xmlns="http://www.w3.org/2000/svg" width="53.295" height="51" viewBox="0 0 53.295 51"><g fill="#4288C5"><path d="M5.62 39.633h42.058V51H5.618z"/><path d="M50.65 21.838h-1.355v4.27c.48.28.81.797.81 1.393 0 .896-.726 1.618-1.618 1.618H4.81a1.61 1.61 0 0 1-.808-3.01v-4.27H2.646A2.645 2.645 0 0 0 0 24.483v19.785a2.645 2.645 0 0 0 2.645 2.645h1.357v-8.896h45.293v8.896h1.355a2.645 2.645 0 0 0 2.645-2.645V24.482a2.645 2.645 0 0 0-2.645-2.644zM40.398 7.28h7.28L40.398 0z"/><path d="M38.297 8.898V0H5.62v27.5h42.058V8.898h-9.38zM11.147 5h23.5a1.5 1.5 0 0 1 0 3h-23.5a1.5 1.5 0 0 1 0-3zm31 17h-31a1.5 1.5 0 0 1 0-3h31a1.5 1.5 0 0 1 0 3zm0-7h-31a1.5 1.5 0 0 1 0-3h31a1.5 1.5 0 0 1 0 3z"/></g></svg>