<svg xmlns="http://www.w3.org/2000/svg" width="370.743" height="289.23" viewBox="0 0 370.743 289.23"><path fill="#76D9FC" d="M326.922 147.424c0 78.316-63.482 141.807-141.8 141.807-78.32 0-141.818-63.49-141.818-141.806 0-78.324 63.5-141.814 141.818-141.814 78.317 0 141.8 63.49 141.8 141.814z"/><path fill-rule="evenodd" clip-rule="evenodd" fill="#00A936" d="M93.584 175.142c-.78-.327-1.862-.545-2.584-.638-.952-.113-1.658-.147-2.31 0-1.93.568-2.06 2.584 3.18 5.736 1.403 1.864 3.95 3.572 6.36 2.64 1.4-3.98-1.512-6.4-4.646-7.48 0-.258.026-.18 0-.258zM115.51 134.976c.227.206.375.534.58.57h.296c1.413.4 2.786-1.025 1.715-1.12-.418-.072-1.236.036-2.59.55zM148.354 122.595c-2.244.38-2.784 1.882 2.04 5.2.6-.165 4.748-1.1 2.313 1.412 7.496-4.472-.523-7.292-4.353-6.612zM148.354 90.56c8.07-3.28 9.933-24.535.32-23.912-.62 0-1.245.31-2.033.604 4.024 7.42-5.254 16.86 1.714 23.31zM241.01 108.17c.64-4.433-6.414-7.698-9.59-7.515-1.852.13-2.212 1.452 1.208 4.64-3.196 7.548 5.323 7.952 8.382 2.874zM168.85 52.832c2.33-1.086 3.445-4.95 0-4.95-.624-.166-1.09-.328-1.716-.294-.62.02-1.244.24-1.698.294-6.808 1.36-4.74 12.644 3.413 4.95z"/><path fill-rule="evenodd" clip-rule="evenodd" fill="#00A936" d="M178.388 50.19c-9.85 1.246-19.788 10.762-10.628 20.176 6.56 8.19-9.473 24.906 5.744 29.194 6.037-13.508 22.56-24.21 18.472-40.68-1.705-7.023-7.65-9.44-13.588-8.69z"/><path fill="#00A936" d="M161.392 245.197c-14.584-9.69-25.14-24.517-41.567-31.736-13.365-12.973-43.508-4.908-42.962-29.447 1.394-11.65-7.96-17.28-14.98-22.756-5.396-18.034 27.497-24.667 27.972-4.917 10.832-.566 14.627-19.455 27.132-22.184 6.438-5.59 23.867.42 17.562-10.997 6.23-5.923 24.508-5.72 15.565-19.573-3-13.504-19.597-20.028-25.057-4.652-15.03 4.03-8.97-28.57 6.32-24.226 11.085.64 9.575-8.997 2.858-12.093 0-.474-.146-.737-.568-.314-1.23-.457-2.518-.933-4.032-.858-14.986-8.283 14.998-29.395-4.865-36.082-21.796 18.62-55.043 47.917-68.354 75.292-6.01 17.17-5.006 34.45-4.31 52.5 6.103 17.48 17.958 31.9 27.397 47.57 6.037 7.567 3.133 16.274 2.672 24.555-.16.055.074.254.074.292-.313 5.02.476 9.804 4.722 14.11 7.382 9.526 18.126 17.076 23.37 28.055 11.855 7.404 24.864 13.045 38.72 16.694 1.503-.68 4.554-1.576 15.508-2.62v-.298c0-3.274 15.146-8.075 22.63-13.615 12.446-15.04-13.31-27.06-25.808-22.7zM293.18 239.134c21.01-24.74 33.742-56.713 33.742-91.71 0-3.908-.27-7.75-.585-11.585-.1-.955-.17-1.924-.28-2.874-8.103 4.434-22.517-19.96-7.775-8.36 2.88-.2 4.692-1.025 6.057-2.272-1.702-8.886-4.01-17.498-7.245-25.71-1.45-1.72-2.843-3.332-4.03-4.304.1-1.775-.075-3.48-.29-5.184-.07-.09.087-.22 0-.312-23.116-47.57-71.91-80.426-128.33-80.426-3.848 0-7.76.236-11.56.55-1.972.42-4.15.678-6.37.878-.758.075-1.52.166-2.272.294-7.96 1.117-15.565 2.507-23.042 4.873 19.497-1.428 39.518-.917 57.1 7.81 4.645 14.933 32.474.29 31.134 16.983.218.24.64.624.878.902-.44.324.32 3.367.88.822 4.81 5.443 14.93 16.732 4.307 15.32-14.084-1.926-10.42 25.817-.276 30.857 9.667 5.202 15.102-5.24 5.17-10.374-1.344-13.01 21.684 7.99 11.525 14.954-.407.277-.737.603-1.13.896.467-1.865-.668-.108-.634.314-11.553 8.373-4.966 28.09-9.454 41.23-8 17.755 20.01 9.928 15.834-4.05-5.127-12.865 21.3-7 15.584-16.145 16.025 8.5 14.512-14.328 7.817-21.953 3.124-12.204 11.358 1.428 7.466 8.078.63 6.29 6.053 7.737 10.405 9.53.195.147.422.168.853.275 3.804 1.814 6.085 4.143 1.98 11.29-4.708 15.87-20.67 16.748-33.716 13.812-13.195 5.465-15.647 21.498-23.09 32.29-7.385 13.487-13.522 33.35-.264 45.28 12.688 12.184 27.272 1.61 37.793-6.632 20.164-2.62 22.014 21.126 12.092 33.218-.11.556-.193.976-.275 1.434z"/><g opacity=".2" fill="#010000"><path d="M50.2 103.718c-.036.11-.063.185-.09.272 1.31-.07 2.474-.162 2.474-.272H50.2zM304.89 223.284h-.158c0 .11-.025.22-.044.33.07-.11.15-.22.2-.33z"/><path d="M316.293 190.15c0-.236.077-.423.12-.454-.237.31-2.37 2.434-18.57 4.798 4.15-14.2 6.478-29.41 6.642-45.224h21.605v-4.286h-21.605c-.217-15.98-2.646-31.32-6.925-45.612 16.372 2.363 18.518 4.51 18.745 4.802-.045-.035-.13-.204-.13-.457h3.87c-.307-.917-.614-1.833-.938-2.75-1.704-1.578-5.176-2.86-10.89-4.086-3.338-.713-7.38-1.412-12.09-2.03-5.457-16.477-13.408-31.466-23.306-44.277 9.933 2.553 17.85 5.538 23.33 8.67-2.174-2.71-4.41-5.366-6.782-7.937-5.67-2.23-11.91-4.047-17.758-5.477-1.072-.277-2.16-.513-3.242-.77-15.117-17.63-34.112-30.53-55.285-36.684a141.9 141.9 0 0 0-27.962-2.77c-10.626 0-20.98 1.212-30.958 3.432-20.274 6.39-38.488 18.98-53.067 35.986-1.145.27-2.288.528-3.398.804-5.35 1.3-11.02 2.934-16.292 4.914-2.29 2.452-4.494 5-6.604 7.603 5.41-2.823 12.793-5.496 21.826-7.826C86.75 63.33 78.798 78.28 73.33 94.755c-5.006.658-9.273 1.37-12.766 2.123-4.088.88-7.028 1.778-8.987 2.82a77.15 77.15 0 0 0-1.146 3.355c4.017-.938 11.103-2.312 21.476-3.78-4.296 14.314-6.74 29.686-6.965 45.707H43.387c-.027.804-.082 1.61-.082 2.438 0 .62.044 1.224.055 1.847h21.576c.164 15.852 2.508 31.078 6.668 45.3-16.712-2.384-18.9-4.565-19.13-4.875a.94.94 0 0 1 .11.455h-2.71c.41 1.283.85 2.564 1.298 3.833 1.963 1.112 5.022 2.085 9.393 3.02 3.434.732 7.578 1.433 12.45 2.088 5.056 15.58 12.332 29.813 21.357 42.203-10.044-2.73-17.854-5.88-23.005-9.18 2.122 2.84 4.368 5.57 6.687 8.247 6.128 2.564 13.083 4.62 19.56 6.208.323.076.653.146.973.24 14.926 18.453 33.967 32.12 55.302 38.923 10.053 2.254 20.504 3.498 31.233 3.498 9.53 0 18.828-.952 27.833-2.746 22.43-6.507 42.422-20.54 57.945-39.77.2-.052.42-.105.63-.145 7.102-1.738 14.78-4.05 21.32-6.98a154.666 154.666 0 0 0 7.11-9.01c-4.9 3.81-13.438 7.488-24.84 10.622 9-12.384 16.273-26.62 21.322-42.18 4.603-.64 8.585-1.32 11.884-2.017 6.1-1.315 9.656-2.69 11.22-4.43.27-.81.552-1.597.82-2.423h-4.073zM168.528 9.97c-7.75 5.568-14.896 15.19-21.062 28.423-14.222 1.1-27.515 2.818-39.343 5.15 16.602-17.665 37.43-29.704 60.405-33.573zM103.35 48.913c12.377-2.732 26.68-4.768 42.14-6.05a104.517 104.517 0 0 0-1.68 4.07c-4.958 12.73-8.868 27.43-11.615 43.425-15.75.586-30.228 1.488-42.688 2.604-4.133.386-7.977.79-11.516 1.204 5.93-17.058 14.613-32.427 25.36-45.253zM76.52 98.66c4.553-.553 9.976-1.12 16.437-1.686 11.413-.974 24.46-1.74 38.53-2.292-2.462 15.835-3.818 32.804-3.936 50.304H69.166c.24-16.274 2.822-31.865 7.35-46.325zm-7.35 50.61h58.38c.092 17.356 1.39 34.195 3.786 49.935-14.003-.553-26.984-1.32-38.372-2.29-6.606-.584-12.122-1.157-16.75-1.742-4.39-14.35-6.88-29.794-7.045-45.902zm8.49 50.41c3.64.443 7.588.845 11.86 1.23 12.41 1.136 26.832 2.015 42.52 2.62 2.738 16.36 6.705 31.39 11.77 44.363.215.53.434 1.043.633 1.558-16.067-1.355-30.838-3.558-43.492-6.505-9.844-12.46-17.798-27.1-23.29-43.264zm27.776 48.654c12.165 2.51 26.02 4.394 40.897 5.586 6.395 14.53 13.965 25.01 22.198 30.95-24.242-4.102-46.094-17.26-63.094-36.536zm77.158 37.782c-11.506-1.21-22.474-12.348-31.465-31.828 10.136.696 20.692 1.062 31.465 1.115v30.713zm0-35.018c-11.47-.036-22.693-.458-33.405-1.245-.484-1.154-.968-2.35-1.43-3.556-4.88-12.458-8.702-26.9-11.404-42.605 14.588.497 30.19.792 46.24.792v46.614zm0-50.923c-16.27 0-32.14-.293-46.953-.823-2.44-15.724-3.77-32.637-3.86-50.08h50.813v50.903zm0-55.19H131.78c.12-17.575 1.493-34.634 4.02-50.465 14.772-.517 30.585-.81 46.79-.827v51.292zm0-55.594c-15.992.02-31.533.29-46.074.804 2.667-15.352 6.45-29.447 11.238-41.668.81-2.11 1.654-4.105 2.516-6.047a485.903 485.903 0 0 1 32.32-1.174V89.39zm0-52.39c-10.35.035-20.5.383-30.27 1.042 8.758-17.937 19.27-28.182 30.27-29.334v28.29zM300.24 144.984h-58.368c-.11-17.48-1.47-34.452-3.93-50.284 13.825.55 26.645 1.317 37.876 2.273 6.79.587 12.427 1.194 17.123 1.775 4.51 14.445 7.076 30 7.3 46.237zm-8.782-50.74c-3.73-.46-7.787-.863-12.203-1.283-12.278-1.1-26.524-1.982-42.02-2.586-2.74-15.98-6.66-30.712-11.634-43.444-.53-1.377-1.083-2.73-1.65-4.07 15.457 1.302 29.776 3.336 42.146 6.085 10.766 12.846 19.444 28.22 25.362 45.3zm-30.137-50.67c-11.827-2.322-25.13-4.083-39.358-5.18C215.805 25.16 208.65 15.538 200.9 9.97c22.985 3.887 43.838 15.926 60.42 33.605zM186.828 8.708c11.02 1.152 21.528 11.397 30.27 29.334A489.1 489.1 0 0 0 186.828 37V8.707zm0 32.597c11.104.038 21.952.443 32.33 1.194.864 1.938 1.697 3.937 2.522 6.025 4.78 12.222 8.557 26.333 11.232 41.686-14.53-.512-30.082-.787-46.086-.82V41.306zm0 52.39c16.226.035 32.047.328 46.816.858 2.512 15.815 3.875 32.857 3.998 50.433h-50.813V93.694zm0 55.576h50.814c-.075 17.425-1.403 34.34-3.852 50.062-14.81.55-30.685.844-46.962.844V149.27zm0 55.214c16.062-.016 31.663-.296 46.25-.81-2.695 15.707-6.523 30.146-11.397 42.622-.48 1.207-.938 2.365-1.428 3.52-10.704.81-21.936 1.228-33.425 1.28v-46.612zm0 50.92c10.792-.055 21.347-.44 31.47-1.14-8.986 19.503-19.955 30.643-31.47 31.852v-30.713zm14.072 29.465c8.228-5.94 15.802-16.42 22.225-30.968 14.882-1.21 28.756-3.117 40.922-5.645-16.998 19.316-38.887 32.51-63.148 36.612zm67.635-42.02c-12.635 2.99-27.442 5.207-43.55 6.582.2-.515.42-1.008.616-1.538 5.077-12.974 9.053-28.02 11.79-44.385 15.48-.62 29.694-1.482 41.974-2.6 4.49-.406 8.63-.845 12.417-1.283-5.47 16.144-13.405 30.767-23.245 43.223zm24.712-47.753c-4.75.61-10.456 1.212-17.33 1.818-11.24.932-24.036 1.704-37.82 2.27 2.402-15.72 3.684-32.58 3.775-49.914h58.38c-.175 16.09-2.637 31.503-7.005 45.827z"/></g><path opacity=".3" fill="#444" d="M299.975 64.236a5.007 5.007 0 0 0-.428-.02H88.66a4.93 4.93 0 0 0-4.928 4.933v171.637a4.93 4.93 0 0 0 4.928 4.933h198.65a142.33 142.33 0 0 0 17.167-21.723V70.84a143.177 143.177 0 0 0-4.502-6.604z"/><path fill="#EBF8FC" d="M295.745 230.307a4.928 4.928 0 0 1-4.93 4.932H79.924a4.93 4.93 0 0 1-4.927-4.933V58.67a4.933 4.933 0 0 1 4.927-4.936h210.89a4.93 4.93 0 0 1 4.93 4.935v171.637z"/><path fill="#444" d="M295.745 73.46V58.67a4.93 4.93 0 0 0-4.93-4.936H79.924a4.933 4.933 0 0 0-4.927 4.935v14.79h220.747z"/><circle fill="#2CB740" cx="85.772" cy="63.859" r="3.903"/><path fill="#F16442" d="M101.57 63.86c0 2.156-1.752 3.9-3.91 3.9a3.9 3.9 0 0 1 0-7.8 3.906 3.906 0 0 1 3.91 3.9z"/><path fill="#FFF" d="M287.604 63.69a3.84 3.84 0 0 1-3.84 3.837H110.866a3.845 3.845 0 0 1-3.838-3.838c0-2.122 1.73-3.842 3.838-3.842h172.897c2.118 0 3.84 1.72 3.84 3.84z"/><path fill="#F16442" d="M115.524 83.455a3.68 3.68 0 0 1-3.68 3.68H89.33a3.676 3.676 0 0 1-3.672-3.68 3.67 3.67 0 0 1 3.673-3.673h22.515a3.672 3.672 0 0 1 3.68 3.673z"/><path opacity=".2" fill="#444" d="M131.414 177.087a3.1 3.1 0 0 1-3.096 3.098h-39.57a3.096 3.096 0 0 1-3.09-3.098 3.09 3.09 0 0 1 3.09-3.092h39.57a3.092 3.092 0 0 1 3.096 3.092zM175.527 190.006a3.098 3.098 0 0 1-3.096 3.098H88.75a3.094 3.094 0 0 1-3.09-3.098c0-1.707 1.38-3.09 3.09-3.09h83.684a3.09 3.09 0 0 1 3.095 3.09z"/><g fill="#FEB13C"><path d="M281.453 83.456a2.554 2.554 0 0 1-2.553 2.554h-15.624a2.552 2.552 0 0 1-2.55-2.554c0-1.41 1.138-2.55 2.55-2.55H278.9a2.55 2.55 0 0 1 2.553 2.55zM254.04 83.456a2.554 2.554 0 0 1-2.552 2.554h-15.625a2.553 2.553 0 0 1-2.55-2.554c0-1.41 1.137-2.55 2.55-2.55h15.625a2.55 2.55 0 0 1 2.553 2.55zM227.26 83.456a2.556 2.556 0 0 1-2.555 2.554H209.08a2.553 2.553 0 0 1-2.55-2.554c0-1.41 1.138-2.55 2.55-2.55h15.625a2.55 2.55 0 0 1 2.555 2.55zM199.844 83.456a2.554 2.554 0 0 1-2.552 2.554h-15.625a2.554 2.554 0 0 1-2.552-2.554 2.55 2.55 0 0 1 2.552-2.55h15.625a2.548 2.548 0 0 1 2.552 2.55z"/></g><ellipse fill="#FCD22E" cx="113.491" cy="91.823" rx=".081" ry=".055"/><path fill="#19BDD8" d="M178.953 163.678a5.41 5.41 0 0 1-5.41 5.41H91.067a5.414 5.414 0 0 1-5.41-5.41v-64.52a5.417 5.417 0 0 1 5.41-5.415h82.474c2.99 0 5.41 2.427 5.41 5.416v64.518z"/><path fill="#12C47B" d="M281.336 163.678a5.412 5.412 0 0 1-5.412 5.41h-82.472a5.416 5.416 0 0 1-5.415-5.41v-64.52a5.42 5.42 0 0 1 5.415-5.415h82.472a5.415 5.415 0 0 1 5.412 5.416v64.518z"/><path opacity=".6" fill="#444" d="M277.424 178.027a4.382 4.382 0 0 0-4.382-4.382h-23.236a4.382 4.382 0 0 0-4.382 4.382v10.236a4.382 4.382 0 0 0 4.382 4.382h23.236a4.382 4.382 0 0 0 4.382-4.382v-10.236z"/><path fill="#EFD40F" d="M279.424 205.37c0-2.42.232-2.724-2.188-2.724h-82.57c-2.42 0-4.242.303-4.242 2.725v11.213c0 2.42 1.82 6.062 4.24 6.062h82.572c2.42 0 2.188-3.64 2.188-6.062V205.37z"/><path fill="#3E86C1" d="M172.424 123.986c0-2.126-.86-3.34-3.204-3.34H95.604c-2.342 0-5.18 1.214-5.18 3.34v11.683c0 2.125 2.838 3.976 5.18 3.976h73.615c2.342 0 3.203-1.85 3.203-3.977v-11.684z"/><path fill="#EFD40F" d="M177.424 206.613c0-2.42-1.366-3.967-3.785-3.967H91.185c-2.42 0-4.762 1.546-4.762 3.967v10.617c0 2.42 2.343 5.416 4.762 5.416h82.453c2.418 0 3.784-2.996 3.784-5.416v-10.617z"/><path opacity=".6" fill="#444" d="M240.424 178.28c0-2.42-1.165-4.634-3.698-4.634h-23.14c-2.533 0-5.162 2.215-5.162 4.635v10.452c0 2.42 2.63 4.914 5.16 4.914h23.142c2.533 0 3.698-2.494 3.698-4.914v-10.45z"/><path opacity=".2" fill="#444" d="M212.424 139.973a3.673 3.673 0 0 1-3.672 3.673h-11.656a3.673 3.673 0 0 1-3.672-3.673V128.32a3.673 3.673 0 0 1 3.672-3.674h11.656a3.673 3.673 0 0 1 3.672 3.673v11.653zM212.424 115.973a3.672 3.672 0 0 1-3.672 3.672h-11.656a3.672 3.672 0 0 1-3.672-3.672v-11.655a3.672 3.672 0 0 1 3.672-3.672h11.656a3.672 3.672 0 0 1 3.672 3.672v11.655zM212.424 160.97a3.673 3.673 0 0 1-3.672 3.675h-11.656a3.673 3.673 0 0 1-3.672-3.674v-11.65a3.673 3.673 0 0 1 3.672-3.674h11.656a3.673 3.673 0 0 1 3.672 3.674v11.65zM274.45 108.186a3.098 3.098 0 0 1-3.097 3.098h-51.525c-1.71 0-3.09-1.39-3.09-3.098a3.09 3.09 0 0 1 3.09-3.092h51.525a3.093 3.093 0 0 1 3.097 3.092zM274.45 131.712a3.098 3.098 0 0 1-3.097 3.098h-51.525c-1.71 0-3.09-1.39-3.09-3.098a3.09 3.09 0 0 1 3.09-3.09h51.525a3.094 3.094 0 0 1 3.097 3.09zM274.45 154.4a3.098 3.098 0 0 1-3.097 3.097h-51.525c-1.71 0-3.09-1.39-3.09-3.097a3.09 3.09 0 0 1 3.09-3.092h51.525a3.093 3.093 0 0 1 3.097 3.092zM133.762 102.462a2.842 2.842 0 0 1-2.84 2.842H94.604a2.84 2.84 0 0 1-2.84-2.842 2.836 2.836 0 0 1 2.84-2.837h36.317c1.572 0 2.842 1.27 2.842 2.837zM174.248 114.32a2.845 2.845 0 0 1-2.842 2.843H94.604a2.843 2.843 0 0 1-2.84-2.844 2.837 2.837 0 0 1 2.84-2.84h76.802a2.837 2.837 0 0 1 2.842 2.84zM174.248 147.403a2.845 2.845 0 0 1-2.842 2.844H94.604c-1.57 0-2.84-1.28-2.84-2.844a2.835 2.835 0 0 1 2.84-2.836h76.802a2.836 2.836 0 0 1 2.842 2.836zM174.248 158.433a2.845 2.845 0 0 1-2.842 2.843H94.604a2.843 2.843 0 0 1-2.84-2.843 2.836 2.836 0 0 1 2.84-2.837h76.802a2.835 2.835 0 0 1 2.842 2.837z"/><path fill="#FFD42D" d="M307.6 278.624c-13.72 0-35.846-12.933-49.64-21.978-29.81-19.55-65.442-49.528-100.333-84.417C122.74 137.34 92.76 101.71 73.21 71.895c-11.447-17.46-29.13-48.274-18.917-58.488 9.91-9.91 42.54 4.91 87.29 39.637l-1.072 1.38C97.183 20.8 64.62 5.554 55.53 14.646c-6.823 6.82.155 27.34 19.142 56.294 19.485 29.714 49.386 65.248 84.192 100.054 34.806 34.806 70.34 64.706 100.055 84.19 28.954 18.99 49.472 25.965 56.294 19.145 6.963-6.964-.397-28.063-20.193-57.887l1.457-.967c11.928 17.972 30.385 49.676 19.973 60.088-2.147 2.145-5.2 3.06-8.85 3.06z"/><path fill="#FFD42D" d="M63.143 278.625c-3.65 0-6.702-.915-8.85-3.06-10.412-10.413 8.047-42.118 19.976-60.09l1.454.966c-19.798 29.827-27.158 50.926-20.194 57.89 6.818 6.818 27.34-.157 56.295-19.145 29.715-19.486 65.25-49.386 100.055-84.192 34.806-34.806 64.706-70.34 84.19-100.055 18.987-28.956 25.966-49.475 19.145-56.295-9.09-9.087-41.65 6.153-84.977 39.78l-1.072-1.38C273.913 18.315 306.54 3.5 316.45 13.408c10.213 10.214-7.47 41.028-18.918 58.488-19.55 29.813-49.528 65.444-84.417 100.333-34.888 34.888-70.52 64.867-100.332 84.416-13.793 9.045-35.92 21.977-49.64 21.98z"/><path fill="#FFD42D" d="M295.878 176.09l-.267-1.725c45.952-7.143 73.386-18.313 73.387-29.88 0-9.645-19.444-19.22-53.344-26.268C280.863 110.982 234.593 107 185.37 107s-95.49 3.982-130.28 11.217c-33.9 7.048-53.344 16.622-53.344 26.27 0 11.566 27.434 22.736 73.386 29.878l-.27 1.726C27.287 168.695 0 157.177 0 144.488c0-10.705 19.438-20.643 54.732-27.98 34.904-7.26 81.3-11.255 130.64-11.255 49.338 0 95.733 3.996 130.638 11.254 35.295 7.338 54.732 17.275 54.733 27.98 0 12.69-27.29 24.208-74.865 31.605z"/><path opacity=".2" d="M161.26 145.097c.1-.31.193-.625.283-.94l.098-.346a31.96 31.96 0 0 0 .325-1.317c.054-.246.106-.492.153-.74.038-.203.072-.406.106-.61.04-.224.076-.448.11-.672.034-.237.06-.477.09-.715.024-.2.05-.4.07-.603.025-.286.046-.573.063-.862.01-.16.025-.323.033-.486.022-.454.035-.91.035-1.37 0-15.518-12.58-28.097-28.096-28.097-15.517 0-28.1 12.58-28.1 28.096 0 15.518 12.583 28.098 28.1 28.098 12.456 0 23.013-8.108 26.693-19.335.013-.033.026-.065.037-.098z"/><g><circle fill="#98D7FA" cx="129.289" cy="131.193" r="28.097"/><path fill-rule="evenodd" clip-rule="evenodd" fill="#5FA642" d="M111.153 136.687a2.186 2.186 0 0 0-.512-.126 1.356 1.356 0 0 0-.455 0c-.382.114-.407.514.63 1.137.277.37.78.708 1.26.522.277-.788-.3-1.266-.922-1.48 0-.053.006-.038 0-.053zM115.497 128.73c.046.04.075.104.116.11h.06c.28.08.552-.202.34-.22-.085-.014-.247.006-.516.11zM122.006 126.275c-.444.076-.553.374.405 1.03.12-.032.943-.216.458.28 1.486-.885-.104-1.445-.862-1.31zM122.006 119.93c1.602-.65 1.97-4.864.064-4.74-.123 0-.247.063-.403.12.797 1.47-1.042 3.34.34 4.62zM140.365 123.418c.125-.88-1.27-1.526-1.9-1.49-.367.025-.438.287.238.92-.634 1.496 1.056 1.575 1.662.57zM126.068 112.453c.46-.214.68-.98 0-.98-.125-.033-.217-.064-.342-.058-.122.004-.245.047-.336.06-1.35.266-.937 2.502.678.978z"/><path fill-rule="evenodd" clip-rule="evenodd" fill="#5FA642" d="M127.956 111.93c-1.95.247-3.92 2.13-2.104 3.997 1.3 1.622-1.876 4.934 1.14 5.785 1.194-2.677 4.468-4.797 3.658-8.06-.34-1.393-1.516-1.87-2.694-1.723z"/><path fill="#5FA642" d="M124.59 150.566c-2.89-1.92-4.98-4.856-8.235-6.287-2.65-2.57-8.62-.974-8.513-5.835.277-2.31-1.578-3.423-2.968-4.51-1.07-3.572 5.448-4.887 5.54-.973 2.147-.112 2.9-3.855 5.376-4.395 1.276-1.108 4.73.082 3.48-2.18 1.235-1.173 4.856-1.133 3.087-3.877-.597-2.676-3.885-3.97-4.968-.922-2.98.796-1.777-5.662 1.253-4.8 2.194.126 1.896-1.783.564-2.396 0-.094-.028-.147-.112-.063-.243-.09-.498-.185-.798-.17-2.97-1.64 2.972-5.825-.964-7.15-4.318 3.69-10.906 9.495-13.543 14.917-1.19 3.403-.993 6.827-.854 10.404 1.21 3.464 3.558 6.322 5.427 9.426 1.2 1.5.62 3.225.53 4.865-.032.015.016.05.016.06-.063.994.094 1.94.935 2.795 1.463 1.886 3.592 3.384 4.63 5.557a27.857 27.857 0 0 0 7.67 3.308c.3-.134.905-.312 3.075-.52v-.06c0-.645 3-1.597 4.483-2.696 2.466-2.98-2.64-5.362-5.114-4.498zM150.7 149.366c4.163-4.902 6.686-11.236 6.686-18.172 0-.773-.052-1.535-.115-2.295-.02-.19-.034-.38-.055-.57-1.606.88-4.462-3.954-1.54-1.655.57-.04.93-.204 1.2-.45-.34-1.76-.793-3.467-1.437-5.095-.287-.34-.562-.66-.8-.852.022-.352-.014-.69-.056-1.027-.015-.017.018-.043 0-.06-4.58-9.428-14.247-15.936-25.426-15.936-.763 0-1.538.045-2.29.11-.392.082-.823.134-1.263.172-.15.015-.3.034-.45.058-1.576.22-3.084.497-4.564.966 3.862-.283 7.826-.18 11.31 1.548.922 2.958 6.435.056 6.168 3.364.045.048.128.125.175.18-.088.064.065.667.176.163.95 1.078 2.957 3.315.852 3.035-2.79-.383-2.064 5.115-.056 6.114 1.916 1.03 2.993-1.04 1.025-2.057-.267-2.577 4.296 1.583 2.283 2.963-.08.056-.145.122-.223.177.093-.37-.133-.02-.126.063-2.29 1.66-.984 5.565-1.873 8.17-1.585 3.518 3.967 1.967 3.137-.802-1.014-2.55 4.222-1.388 3.09-3.2 3.175 1.684 2.874-2.84 1.548-4.35.62-2.416 2.252.285 1.48 1.6.125 1.247 1.198 1.534 2.06 1.89.04.03.085.032.17.052.755.36 1.206.822.393 2.237-.933 3.146-4.096 3.32-6.68 2.74-2.616 1.08-3.1 4.257-4.575 6.396-1.463 2.67-2.68 6.607-.053 8.97 2.515 2.415 5.403.32 7.488-1.314 3.995-.52 4.362 4.186 2.396 6.582-.02.11-.038.192-.053.284z"/><path opacity=".3" d="M147.332 119.552H133.41v-4.666a.644.644 0 0 0-.645-.642h-6.63a.643.643 0 0 0-.642.642v4.666h-14.245a3.558 3.558 0 0 0-3.558 3.556v20.237a3.557 3.557 0 0 0 3.558 3.554h36.083a3.553 3.553 0 0 0 3.556-3.555v-20.237a3.554 3.554 0 0 0-3.554-3.556zm-13.094 2.784a1.514 1.514 0 0 1 0 3.026h-.828v-3.014l.607-.012h.22zm-9.898 0h1.154v3.026h-1.154a1.512 1.512 0 0 1 0-3.026z"/><g><path fill="#FF5148" d="M147.332 117.833H111.25a3.56 3.56 0 0 0-3.56 3.558v20.236a3.558 3.558 0 0 0 3.56 3.557h36.082a3.555 3.555 0 0 0 3.555-3.557V121.39a3.556 3.556 0 0 0-3.555-3.557zm-13.094 5.813h-9.898a1.513 1.513 0 0 1 0-3.027h9.898a1.514 1.514 0 0 1 0 3.026z"/><path fill="#EFEFEF" d="M148.202 139.17a3.56 3.56 0 0 1-3.558 3.557h-30.71a3.556 3.556 0 0 1-3.556-3.558v-9.07a3.556 3.556 0 0 1 3.556-3.557h30.71a3.558 3.558 0 0 1 3.558 3.556v9.07z"/><path fill="#29353F" d="M121.86 130.555a.81.81 0 0 0-.982.55l-1.246 4.35-1.25-4.35c-.1-.355-.44-.57-.802-.56a.8.8 0 0 0-.803.56l-1.248 4.35-1.25-4.35a.806.806 0 0 0-.978-.55.76.76 0 0 0-.55.948l1.976 6.892c.1.356.44.572.802.56a.793.793 0 0 0 .804-.56l1.247-4.35 1.25 4.35a.79.79 0 0 0 .803.56c.36.012.7-.204.802-.56l1.977-6.892a.764.764 0 0 0-.553-.948zM133.73 130.555a.807.807 0 0 0-.98.55l-1.247 4.35-1.25-4.35c-.102-.355-.44-.57-.803-.56a.798.798 0 0 0-.802.56l-1.248 4.35-1.25-4.35a.806.806 0 0 0-.98-.55.763.763 0 0 0-.55.948l1.977 6.892c.1.356.44.572.804.56.363.012.7-.204.805-.56l1.246-4.35 1.25 4.35c.102.356.44.572.804.56.36.012.7-.204.8-.56l1.977-6.892a.763.763 0 0 0-.55-.948zM145.278 130.555a.81.81 0 0 0-.982.55l-1.245 4.35-1.25-4.35c-.1-.355-.44-.57-.8-.56-.363-.01-.702.205-.805.56l-1.248 4.35-1.248-4.35a.808.808 0 0 0-.98-.55.763.763 0 0 0-.552.948l1.977 6.892c.102.356.44.572.803.56.36.012.7-.204.803-.56l1.25-4.35 1.248 4.35c.1.356.44.572.804.56.358.012.7-.204.8-.56l1.977-6.892a.764.764 0 0 0-.552-.948z"/><path opacity=".4" d="M132.82 120.642l1.198-.022.662-2.787-2.315.012z"/><path fill="#29353F" d="M133.41 123.65v-10.48a.644.644 0 0 0-.645-.642h-6.63a.643.643 0 0 0-.642.642v10.48h7.916z"/><path opacity=".1" fill="#FFF" d="M133 113.318c0 .182-.148.33-.33.33h-6.46a.332.332 0 0 1 0-.662h6.46c.182 0 .33.15.33.332z"/><path opacity=".1" d="M147.332 117.833l-36.083 27.35h36.082a3.555 3.555 0 0 0 3.555-3.557V121.39a3.556 3.556 0 0 0-3.555-3.557z"/></g></g><g><path fill="#293E4C" d="M348.143 138.414a2.34 2.34 0 0 1-2.34 2.338h-37.94a2.338 2.338 0 0 1 0-4.677h37.94a2.337 2.337 0 0 1 2.34 2.34z"/><path fill="#5CD5FF" d="M337.322 140.434c0 .943-.767 1.71-1.71 1.71h-17.56a1.71 1.71 0 0 1-1.708-1.71v-4.042c0-.943.764-1.708 1.707-1.708h17.563c.942 0 1.71.764 1.71 1.708v4.042z"/><path fill="#5CD5FF" d="M328.854 129.714c.94 0 1.708.764 1.708 1.707v7.32a1.71 1.71 0 0 1-1.708 1.707h-4.045c-.942 0-1.708-.762-1.708-1.708v-7.32c0-.942.765-1.706 1.707-1.706h4.044z"/><path opacity=".1" d="M323.103 129.714h7.46v3.66h-7.46z"/><path fill="#4494C1" d="M348.112 127.803a3.992 3.992 0 0 1-3.993 3.992h-34.562a3.99 3.99 0 0 1-3.99-3.992v-24.517a3.99 3.99 0 0 1 3.99-3.992h34.56a3.994 3.994 0 0 1 3.994 3.992v24.517z"/><path fill="#293E4C" d="M345.456 124.922a4.182 4.182 0 0 1-4.182 4.18h-29.362a4.178 4.178 0 0 1 0-8.357h29.362a4.18 4.18 0 0 1 4.182 4.177zM345.456 115.588a4.18 4.18 0 0 1-4.182 4.178h-29.362a4.18 4.18 0 0 1 0-8.358h29.362a4.18 4.18 0 0 1 4.182 4.18zM345.456 106.252a4.182 4.182 0 0 1-4.182 4.18h-29.362a4.18 4.18 0 0 1 0-8.36h29.362a4.184 4.184 0 0 1 4.182 4.18z"/><circle fill="#FF5955" cx="311.943" cy="106.251" r="1.948"/><path fill="#5CD5FF" d="M311.943 113.708a1.948 1.948 0 0 1 0 3.896 1.948 1.948 0 0 1 0-3.896z"/><circle fill="#5CD5FF" cx="311.943" cy="124.968" r="1.947"/><g fill="#FFF"><path d="M341.383 105.042c0 .368-.213.668-.476.668H317.5c-.264 0-.477-.3-.477-.668 0-.37.213-.67.476-.67h23.407c.263 0 .476.3.476.67zM341.383 107.464c0 .37-.213.67-.476.67H317.5c-.264 0-.477-.3-.477-.67 0-.37.213-.67.476-.67h23.407c.263 0 .476.3.476.67z"/></g><g fill="#FFF"><path d="M341.383 114.375c0 .37-.213.67-.476.67H317.5c-.264 0-.477-.3-.477-.67 0-.37.213-.67.476-.67h23.407c.263 0 .476.3.476.67zM341.383 116.8c0 .367-.213.667-.476.667H317.5c-.264 0-.477-.3-.477-.668 0-.372.213-.672.476-.672h23.407c.263 0 .476.3.476.67z"/></g><g fill="#FFF"><path d="M341.383 123.71c0 .37-.213.67-.476.67H317.5c-.264 0-.477-.3-.477-.67 0-.37.213-.67.476-.67h23.407c.263.002.476.3.476.67zM341.383 126.135c0 .368-.213.668-.476.668H317.5c-.264 0-.477-.3-.477-.668 0-.37.213-.672.476-.672h23.407c.263.002.476.302.476.672z"/></g><path opacity=".1" d="M348.112 127.803a3.992 3.992 0 0 1-3.993 3.992h-34.562l34.56-32.5a3.994 3.994 0 0 1 3.994 3.992v24.516z"/></g><g><path fill="#FFD42D" d="M297.462 35.63A35.922 35.922 0 0 1 278.73 55.56a35.897 35.897 0 0 1 18.732 19.93 35.906 35.906 0 0 1 18.74-19.93 35.927 35.927 0 0 1-18.74-19.933z"/><path fill="#FF7600" d="M297.462 45.52c-1.688 4.465-5.11 8.076-9.444 10.042a18.03 18.03 0 0 1 9.444 10.04 18.064 18.064 0 0 1 9.44-10.04 18.123 18.123 0 0 1-9.44-10.04z"/><path fill="#FFD42D" d="M313.677 35.63a12.98 12.98 0 0 1-6.775 7.204c3.106 1.402 5.563 4 6.775 7.208a12.992 12.992 0 0 1 6.78-7.208 13.01 13.01 0 0 1-6.78-7.205z"/><path fill="#FF7600" d="M313.677 39.205a6.51 6.51 0 0 1-3.412 3.63 6.52 6.52 0 0 1 3.412 3.625 6.566 6.566 0 0 1 3.41-3.626 6.555 6.555 0 0 1-3.41-3.63z"/><g><path fill="#FFD42D" d="M278.727 24.99a19.167 19.167 0 0 1-10.004 10.64 19.168 19.168 0 0 1 10.004 10.637 19.183 19.183 0 0 1 10.005-10.638 19.18 19.18 0 0 1-10.005-10.64z"/><path fill="#FF7600" d="M278.727 30.272a9.655 9.655 0 0 1-5.044 5.357 9.642 9.642 0 0 1 5.044 5.354 9.64 9.64 0 0 1 5.037-5.355 9.663 9.663 0 0 1-5.037-5.358z"/></g></g><path opacity=".2" d="M168.684 235.907l.132-13.906a4.803 4.803 0 0 0-.073-.805l-.062.053a5.055 5.055 0 0 0-4.883-3.97l-52.672-.5a5.05 5.05 0 0 0-4.96 3.874l-.06-.052c-.047.264-.087.53-.088.805l-.14 14.502h62.807z"/><g><path fill="#3BA1F4" d="M161.755 214.21l-28.492 23.686a4.318 4.318 0 0 1-6.11-.058L99.12 213.612c-.047.264-.087.53-.088.805l-.32 33.667a5.063 5.063 0 0 0 5.015 5.11l52.67.504c2.8.026 5.09-2.22 5.116-5.017l.32-33.666a5.022 5.022 0 0 0-.075-.805z"/><path fill="#76CEFF" d="M133.39 224.544a4.316 4.316 0 0 0-6.108-.058l-28.56 23.74c.053 2.73 2.258 4.944 5.004 4.97l52.67.503c2.75.025 4.992-2.147 5.096-4.875l-28.1-24.28z"/><path opacity=".3" fill="#1D1D1B" d="M127.11 242.41c1.673 1.804 4.405 1.83 6.11.057l28.587-26.746c-.05-2.892-2.254-5.23-5-5.258l-52.67-.502c-2.75-.024-4.994 2.272-5.1 5.163l28.072 27.286z"/><path fill="#76CEFF" d="M127.143 238.944a4.324 4.324 0 0 0 6.11.058l28.56-23.74c-.053-2.73-2.256-4.943-5.003-4.97l-52.67-.5a5.055 5.055 0 0 0-5.098 4.872l28.1 24.28z"/></g><g><path fill="#098CFA" d="M285.182 265.586a3.506 3.506 0 0 1-3.507 3.507h-39.028a3.507 3.507 0 0 1-3.507-3.507v-25.874a3.507 3.507 0 0 1 3.507-3.506h39.028a3.507 3.507 0 0 1 3.507 3.506v25.874z"/><path fill="#604303" d="M285.182 268.216a3.505 3.505 0 0 1-3.507 3.507h-39.028a3.506 3.506 0 0 1-3.507-3.507v-25.872a3.506 3.506 0 0 1 3.507-3.508h39.028a3.506 3.506 0 0 1 3.507 3.508v25.872z"/><path fill="#FFCE12" d="M236.508 242.223c0-3.436 2.785-6.017 6.223-6.017h6.448c3.436 0 6.187 2.582 6.187 6.017v16.144c0 3.438-2.75 6.343-6.187 6.343h-6.447c-3.437 0-6.222-2.905-6.222-6.343v-16.144z"/><path fill="#604303" d="M238.643 240.59a3.506 3.506 0 0 1 3.507-3.508h39.524c1.94 0 3.508 1.7 3.508 3.638v5.35c0 1.94-1.568-1.972-3.508-1.972H242.15a3.506 3.506 0 0 1-3.507-3.508z"/><path fill="#FF5955" d="M279.03 226.64a2.903 2.903 0 0 1 .407 4.088L260.4 253.974a2.908 2.908 0 0 1-4.088.407l-14.08-11.53a2.906 2.906 0 0 1-.406-4.09l19.036-23.245a2.905 2.905 0 0 1 4.09-.407l14.08 11.533z"/><path fill="#333" d="M242.942 243.45l22.516-27.493 3.962 3.245-22.516 27.49z"/><path fill="#FFF" d="M264.254 233.987a.72.72 0 0 1 .1 1.013l-11.663 14.242a.72.72 0 0 1-1.013.1l-1.61-1.32a.72.72 0 0 1-.102-1.012l11.665-14.243a.722.722 0 0 1 1.014-.1l1.61 1.32zM270.338 226.554a.723.723 0 0 1 .102 1.015l-3.753 4.582a.72.72 0 0 1-1.015.1l-1.607-1.32a.716.716 0 0 1-.102-1.01l3.752-4.583a.72.72 0 0 1 1.015-.102l1.608 1.316z"/><path fill="#7FBC0A" d="M288.992 246.58c.6 1.49-.12 3.18-1.61 3.78l-27.872 11.215c-1.49.6-3.182-.12-3.78-1.61l-6.794-16.883c-.6-1.49.12-3.182 1.61-3.78l27.874-11.216c1.486-.6 3.18.12 3.778 1.61l6.794 16.883z"/><path fill="#333" d="M249.283 243.945l32.967-13.265 1.912 4.75-32.967 13.267z"/><path fill="#FFF" d="M272.503 245.91c.148.368-.03.788-.397.937l-17.08 6.87a.72.72 0 0 1-.936-.397l-.777-1.932a.723.723 0 0 1 .4-.938l17.075-6.87a.72.72 0 0 1 .938.4l.777 1.93zM281.413 242.323a.722.722 0 0 1-.4.938l-5.492 2.21a.72.72 0 0 1-.937-.398l-.776-1.93a.722.722 0 0 1 .398-.938l5.496-2.21a.723.723 0 0 1 .938.4l.775 1.93z"/><path fill="#603107" d="M279.043 245.414c0-.727-1-1.316-1.766-1.316h-31.87c-.765 0-1.444.59-1.444 1.316V261.2c0 .726.68 1.316 1.445 1.316h31.87c.766 0 1.765-.59 1.765-1.316v-15.786z"/><path fill="#FFCE12" d="M282.55 273.478c0 1.94-1.57 3.51-3.507 3.51h-39.027a3.508 3.508 0 0 1-3.508-3.51v-25.872a3.508 3.508 0 0 1 3.508-3.507h39.027a3.508 3.508 0 0 1 3.508 3.506v25.872z"/><path opacity=".25" fill="#010000" d="M271.313 258.55l-1.277-.103a10.018 10.018 0 0 0-1.008-2.46l.852-.984c.296-.297.354-.72.128-.947l-2.748-2.748c-.226-.23-.648-.172-.944.125l-.99.843a10.12 10.12 0 0 0-2.455-1.015l-.1-1.22c0-.418-.262-.677-.58-.677h-3.89c-.32 0-.58.26-.58.678l-.104 1.26c-.87.232-1.693.555-2.455.995l-.986-.854c-.296-.295-.72-.354-.945-.128l-2.75 2.746c-.228.226-.172.647.125.946l.843.99c-.44.76-.782 1.584-1.016 2.455l-1.312.1c-.417 0-.77.26-.77.58v3.89c0 .318.353.58.77.58l1.305.103c.234.87.58 1.693 1.02 2.456l-.84.986c-.3.296-.354.718-.125.945l2.747 2.752c.227.224.65.17.947-.125l.99-.844c.763.442 1.587.784 2.457 1.016l.1 1.346c0 .417.26.808.58.808h3.89c.32 0 .58-.39.58-.808l.102-1.322c.87-.234 1.698-.588 2.46-1.03l.985.84c.296.295.72.347.944.12l2.75-2.75c.23-.226.172-.65-.123-.946l-.844-.99a10.07 10.07 0 0 0 1.016-2.46l1.255-.096c.42 0 .714-.262.714-.58v-3.89c-.003-.324-.298-.583-.717-.583zm-11.07 6.308a4.017 4.017 0 0 1 0-8.034 4.016 4.016 0 0 1 0 8.034z"/><path opacity=".1" fill="#010000" d="M279.043 244.098l-39.027 32.888h39.027a3.507 3.507 0 0 0 3.508-3.51v-25.87a3.508 3.508 0 0 0-3.507-3.508z"/></g><g><path fill="#FF3827" d="M112.198 16.128C112.198 7.22 104.978 0 96.07 0c-8.906 0-16.128 7.22-16.128 16.128 0 3.825 1.335 7.337 3.56 10.102h-.007L96.07 41.958l12.574-15.728h-.006a16.052 16.052 0 0 0 3.56-10.102z"/><circle fill="#AF0706" cx="96.071" cy="16.128" r="11.427"/><path opacity=".2" fill="#060000" d="M103.312 12.236L95.424 11.2l.135 3.174-3.065-3.376-2.612 10.626 5.9 5.916c.097.002.19.015.287.015 6.22 0 11.27-4.97 11.41-11.157l-4.168-4.162z"/><g fill="#FFF"><path d="M92.495 10.998V21.7h-2.612V10.998h2.612zM100.145 10.998c.74 0 1.373.114 1.895.34s.943.526 1.273.898c.325.37.564.795.713 1.27a4.896 4.896 0 0 1 0 2.952c-.148.483-.388.91-.713 1.283-.33.372-.752.67-1.273.897-.52.225-1.154.338-1.895.338H97.4V21.7h-2.61V10.998h5.355zm-.718 5.852c.302 0 .59-.022.865-.07a1.93 1.93 0 0 0 .73-.27 1.46 1.46 0 0 0 .51-.565c.126-.245.19-.562.19-.958 0-.395-.064-.715-.19-.96a1.452 1.452 0 0 0-.51-.565 1.947 1.947 0 0 0-.73-.27 5.138 5.138 0 0 0-.865-.07H97.4v3.728h2.027z"/></g><path opacity=".2" fill="#060000" d="M112.198 16.128C112.198 7.22 104.978 0 96.07 0v41.958l12.574-15.728h-.006a16.052 16.052 0 0 0 3.56-10.102z"/></g></svg>