<svg xmlns="http://www.w3.org/2000/svg" width="18.176" height="16.703" viewBox="0 0 18.176 16.703"><g fill="#4CAF5E"><path d="M13.523 4.653v-.25a4.403 4.403 0 0 0-8.808 0v.25c1.253.455 2.77.723 4.403.723 1.637 0 3.153-.268 4.405-.723z"/><path d="M18.112 4.096a.633.633 0 0 0-.846-.297L14.44 5.16c-1.847.817-4.557 1.035-5.322 1.08-.803-.048-3.766-.282-5.605-1.208L.91 3.778A.634.634 0 0 0 .357 4.92l2.956 1.425c-.024.944-.002 2.278.186 3.676L.867 11.177a.632.632 0 0 0-.324.835c.14.322.513.467.833.327l2.35-1.033c.166.763.396 1.513.705 2.202l-2.62 1.98a.633.633 0 1 0 .762 1.012l2.48-1.872c.787 1.148 1.914 1.96 3.53 2.074V7.795a.537.537 0 0 1 1.075 0v8.907c1.595-.112 2.715-.903 3.5-2.027l2.447 1.848a.635.635 0 0 0 .764-1.013l-2.585-1.95c.317-.69.55-1.44.72-2.208L16.8 12.36c.32.14.694-.006.833-.325a.633.633 0 0 0-.324-.836l-2.577-1.13a23.13 23.13 0 0 0 .192-3.734l2.892-1.394a.633.633 0 0 0 .295-.846z"/></g></svg>