<svg xmlns="http://www.w3.org/2000/svg" width="61.707" height="51.236" viewBox="0 0 61.707 51.236"><g fill="#4288C5"><path d="M33.993 37.856c0-2 .4-3.905 1.118-5.646l-2.45-1.077c-.43-.188-.75-.33-.928-.406 0-.037.006-.07.006-.107V28.09c1.624-1.82 2.844-4.328 3.43-7.214.052.01.094.04.147.042a1.38 1.38 0 0 0 1.478-1.276l.286-3.857a1.38 1.38 0 0 0-.803-1.354V9.36c0-5.17-4.835-9.36-10.795-9.36-5.965 0-10.794 4.19-10.794 9.36v5.07c-.51.236-.847.764-.804 1.354l.284 3.857c.058.76.72 1.334 1.48 1.277.055 0 .095-.032.146-.042.514 2.535 1.517 4.777 2.854 6.52V30.62c0 .036.005.07.005.107-.176.077-.497.216-.926.407a3104.72 3104.72 0 0 0-10.97 4.836c-.067.028-.125.056-.166.073-1.08.495-1.923 1.128-2.65 2.655C3.21 40.22.224 48.78.224 48.78s-.93 2.456.993 2.456H42.427c-4.984-2.398-8.433-7.48-8.433-13.38z"/><path d="M48.85 25c-7.1 0-12.856 5.755-12.856 12.856 0 7.1 5.757 12.856 12.857 12.856s12.857-5.757 12.857-12.856C61.707 30.756 55.95 25 48.85 25zm5.656 16.39a1.5 1.5 0 0 1-2.12 2.122l-3.535-3.535-3.535 3.536a1.5 1.5 0 0 1-2.12-2.122l3.534-3.534-3.537-3.536a1.5 1.5 0 0 1 2.122-2.12l3.536 3.536 3.536-3.535a1.497 1.497 0 0 1 2.12 0 1.498 1.498 0 0 1 0 2.12l-3.534 3.536 3.534 3.535z"/></g></svg>