<svg xmlns="http://www.w3.org/2000/svg" width="47.255" height="44" viewBox="0 0 47.255 44"><g fill="#4288C5"><path d="M42.017 33.53H5.237a5.236 5.236 0 0 0 0 10.47h36.78a5.235 5.235 0 1 0 0-10.47zM5.275 41.262a2.44 2.44 0 1 1 .002-4.88 2.44 2.44 0 0 1-.002 4.88zm36.282-.14H12.233c-.328 0-.596-.376-.596-.838 0-.463.268-.84.596-.84h29.323c.328 0 .597.376.597.84 0 .46-.268.838-.596.838zm0-3.035H12.233c-.328 0-.596-.376-.596-.84 0-.463.268-.838.596-.838h29.323c.328 0 .597.376.597.838 0 .463-.268.84-.596.84zM42.017 0H5.237A5.237 5.237 0 0 0 0 5.234a5.236 5.236 0 0 0 5.236 5.235h36.78a5.235 5.235 0 1 0 0-10.47zM5.275 7.732a2.44 2.44 0 1 1 0-4.878 2.44 2.44 0 0 1 0 4.878zm36.282-.14H12.233c-.328 0-.596-.375-.596-.84 0-.46.268-.84.596-.84h29.323c.328.003.597.38.597.84 0 .462-.268.84-.596.84zm0-3.035H12.233c-.328 0-.596-.377-.596-.84s.268-.84.596-.84h29.323c.328.002.597.378.597.84 0 .463-.268.84-.596.84z"/><g><path d="M7.682 28.288l-2.472-4.47H3.25v4.47H.573V15.71h5.883c2.62 0 4.223 1.714 4.223 4.053 0 2.225-1.394 3.412-2.75 3.734l2.826 4.787H7.682zm.263-8.522c0-1.057-.81-1.696-1.887-1.696H3.25v3.393h2.81c1.075 0 1.885-.642 1.885-1.697zM12.692 28.288V15.712h8.898v2.357h-6.22v2.656h6.09v2.357h-6.09v2.847h6.22v2.357h-8.898zM32.356 28.288l-5.996-8.203v8.203h-2.677V15.712h2.752l5.826 7.9v-7.9h2.678v12.575h-2.582zM40.328 28.288v-10.22h-3.675v-2.356h10.03v2.357h-3.658v10.217h-2.697z"/></g></g></svg>