<svg xmlns="http://www.w3.org/2000/svg" width="61.707" height="51.237" viewBox="0 0 61.707 51.237"><g fill="#4288C5"><path d="M33.993 37.857c0-2 .4-3.905 1.118-5.646l-2.45-1.077v.002l-.928-.407c0-.036.006-.07.006-.106V28.092c1.624-1.82 2.844-4.328 3.43-7.214.052.01.094.04.147.04a1.38 1.38 0 0 0 1.478-1.274l.286-3.858a1.38 1.38 0 0 0-.803-1.354v-5.07C36.277 4.192 31.442 0 25.482 0c-5.965 0-10.794 4.192-10.794 9.36v5.07a1.38 1.38 0 0 0-.804 1.355l.284 3.858c.058.76.72 1.333 1.48 1.275.055-.002.095-.03.146-.04.514 2.534 1.517 4.776 2.854 6.52v3.222c0 .036.005.07.005.105-.176.077-.497.217-.926.407a3526.413 3526.413 0 0 0-10.97 4.836l-.166.074c-1.08.494-1.923 1.127-2.65 2.654C3.21 40.22.223 48.78.223 48.78s-.93 2.456.993 2.456h41.208c-4.983-2.396-8.432-7.478-8.432-13.38z"/><path d="M49.292 25.49c-6.858 0-12.416 5.56-12.416 12.416s5.558 12.416 12.416 12.416c6.857 0 12.415-5.56 12.415-12.416S56.15 25.49 49.292 25.49zm-5.585 18.747s.152-.66.356-1.466l1.08 1.08c-.79.22-1.436.387-1.436.387zm4.24-1.35c-.14.14-.846.382-1.642.624l-1.93-1.927c.228-.812.457-1.532.598-1.673l7.613-7.613 2.976 2.975-7.615 7.614zm9.168-9.168L56.1 34.732l-2.974-2.975 1.014-1.013a.898.898 0 0 1 1.27 0l1.703 1.702c.354.35.354.922.002 1.272zM48.543 3.237l2.73 5.533 6.106.887-4.42 4.307 1.044 6.08-5.46-2.87-5.462 2.87 1.043-6.08-4.418-4.307 6.105-.887z"/></g></svg>