<svg xmlns="http://www.w3.org/2000/svg" width="58.035" height="48.911" viewBox="0 0 58.035 48.911"><g fill="#4288C5"><path d="M53.355.02h-.13c-.067-.002-.13-.02-.2-.02H4.68A4.682 4.682 0 0 0 0 4.68V44.203a4.695 4.695 0 0 0 4.674 4.69h37.848l.03.02h10.81a4.693 4.693 0 0 0 4.673-4.69V4.703a4.68 4.68 0 0 0-4.68-4.68zM18.408 3.796H52.33c1.084 0 1.967.907 1.967 2.025 0 1.117-.88 2.024-1.967 2.024H18.408c-1.084 0-1.965-.908-1.965-2.024 0-1.117.88-2.025 1.965-2.025zm-6.217-.488a2.25 2.25 0 1 1 0 4.5 2.25 2.25 0 1 1 0-4.5zm-6.53 0a2.25 2.25 0 1 1 0 4.5 2.25 2.25 0 0 1 0-4.5zm49.897 40.915a2.203 2.203 0 0 1-2.2 2.203h-2.632l.03-.02H4.68c-1.215 0-2.2-.988-2.2-2.203V10.988h53.077v33.234z"/><path d="M6.018 13.79H27.61v13H6.018zM30.426 13.79h21.592v13H30.426zM6.018 29.79H27.61v13H6.018zM30.426 29.79h21.592v13H30.426z"/></g></svg>