<svg xmlns="http://www.w3.org/2000/svg" width="83.188" height="76.179" viewBox="0 0 83.188 76.179"><path opacity=".1" fill="#13120D" d="M69.816 25.568s12.997-6.067 12.997-6.785c0-.714-32.512-11.59-32.512-11.59l-9.082 6.525 28.598 11.85z"/><path fill="#EDD2AF" d="M69.816 25.568s12.997-6.067 12.997-6.785c0-.714-32.512-11.59-32.512-11.59l-9.082 6.525 28.598 11.85z"/><path fill="#9B764C" d="M12.996 25.72l28.598 16.508 28.597-16.51-28.596-11.85z"/><path fill="#EDD2AF" d="M12.996 25.568S0 19.5 0 18.783c0-.714 32.51-11.59 32.51-11.59l9.084 6.525-28.598 11.85z"/><circle fill="#98D7FA" cx="41.594" cy="26.363" r="26.364"/><path fill-rule="evenodd" clip-rule="evenodd" fill="#5FA642" d="M24.577 31.518a1.996 1.996 0 0 0-.48-.117 1.23 1.23 0 0 0-.43 0c-.357.105-.383.48.592 1.066.26.346.732.665 1.18.492.262-.74-.28-1.19-.862-1.39 0-.05.004-.035 0-.05zM28.653 24.05c.043.038.07.098.107.105h.055c.264.075.52-.19.32-.208-.078-.012-.23.008-.482.102zM34.76 21.748c-.418.072-.518.352.38.967.11-.03.882-.204.43.263 1.392-.832-.098-1.356-.81-1.23zM34.76 15.794c1.5-.61 1.847-4.562.06-4.447-.116 0-.23.057-.38.112.748 1.38-.976 3.133.32 4.334zM51.985 19.067c.118-.824-1.192-1.43-1.782-1.397-.344.024-.412.27.225.863-.596 1.403.988 1.478 1.557.534zM38.57 8.778c.433-.2.64-.92 0-.92-.116-.03-.203-.06-.32-.054-.114.003-.23.044-.315.054-1.266.253-.88 2.35.635.92z"/><path fill-rule="evenodd" clip-rule="evenodd" fill="#5FA642" d="M40.343 8.287c-1.83.232-3.68 2.002-1.976 3.75 1.22 1.524-1.76 4.63 1.067 5.43 1.123-2.513 4.194-4.502 3.436-7.564-.318-1.306-1.422-1.755-2.527-1.616z"/><path fill="#5FA642" d="M37.184 44.54c-2.712-1.8-4.674-4.556-7.73-5.898-2.483-2.412-8.087-.914-7.985-5.475.258-2.167-1.48-3.213-2.786-4.232-1.004-3.352 5.112-4.585 5.2-.913 2.014-.105 2.72-3.618 5.044-4.124 1.197-1.04 4.438.077 3.266-2.045 1.157-1.1 4.556-1.062 2.894-3.638-.558-2.51-3.644-3.724-4.66-.866-2.792.75-1.666-5.312 1.177-4.505 2.06.12 1.78-1.67.532-2.247 0-.088-.028-.138-.106-.06-.228-.084-.468-.172-.75-.16-2.785-1.54 2.79-5.465-.903-6.707-4.053 3.46-10.233 8.91-12.708 14-1.12 3.19-.932 6.404-.802 9.76 1.134 3.25 3.338 5.93 5.092 8.844 1.124 1.406.583 3.025.498 4.566-.03.01.014.046.014.053-.058.934.09 1.822.878 2.623 1.373 1.77 3.37 3.175 4.345 5.216a26.174 26.174 0 0 0 7.198 3.104c.28-.127.848-.292 2.884-.487v-.057c0-.607 2.815-1.5 4.207-2.53 2.31-2.797-2.477-5.032-4.8-4.222zM61.686 43.414c3.905-4.598 6.272-10.543 6.272-17.05 0-.726-.05-1.44-.11-2.154-.018-.177-.03-.356-.052-.534-1.506.825-4.185-3.71-1.445-1.554.536-.037.874-.19 1.128-.423-.317-1.65-.746-3.254-1.347-4.78-.27-.318-.528-.62-.75-.8a5.33 5.33 0 0 0-.052-.965c-.014-.016.016-.04 0-.058C61.03 6.254 51.958.147 41.468.147c-.715 0-1.44.042-2.148.1-.366.08-.77.127-1.184.165-.14.014-.282.03-.422.054-1.48.208-2.896.468-4.284.906 3.625-.265 7.346-.17 10.614 1.453.864 2.776 6.038.053 5.788 3.156.042.046.12.117.163.168-.08.062.06.627.165.154.894 1.01 2.776 3.11.8 2.848-2.618-.358-1.937 4.8-.052 5.737 1.798.966 2.808-.976.962-1.93-.25-2.42 4.032 1.485 2.142 2.78-.074.052-.135.113-.208.166.086-.346-.124-.02-.118.06-2.147 1.556-.924 5.222-1.758 7.664-1.487 3.302 3.72 1.848 2.942-.752-.952-2.392 3.96-1.3 2.898-3.002 2.98 1.58 2.698-2.664 1.454-4.08.58-2.27 2.11.265 1.387 1.5.116 1.17 1.126 1.44 1.934 1.772.036.027.08.03.16.05.706.337 1.13.77.367 2.1-.875 2.95-3.842 3.113-6.268 2.568-2.453 1.014-2.908 3.996-4.293 6.002-1.373 2.508-2.516 6.2-.05 8.418 2.36 2.266 5.07.3 7.027-1.233 3.748-.488 4.092 3.928 2.248 6.176-.02.105-.036.183-.05.268z"/><path fill="#D2B596" d="M12.996 25.72v35.054L40.842 76.18l29.35-15.406V25.72L41.593 42.227z"/><path opacity=".05" fill="#13120D" d="M40.842 76.18l29.35-15.406V25.72L41.593 42.227z"/><path opacity=".1" fill="#13120D" d="M41.124 42.8l-8.49 15.683-19.638-11.98-.185-5.45zM58.548 40.088c-.627.338-16.954 2.14-16.954 2.14l4.433 14.057L70.085 43.67 58.548 40.09z"/><path opacity=".3" fill="#13120D" d="M70.19 25.72S44.434 38.597 41.977 38.477C39.52 38.36 13.482 26 13.482 26s23.69 17.977 24.408 17.977c.716 0 3.704-1.75 3.704-1.75l1.675.556L70.19 25.72z"/><path fill="#EDD2AF" d="M12.996 25.72S0 33.936 0 34.653c0 .718 32.51 21.633 32.51 21.633l9.084-14.057-28.598-16.51z"/><path fill="#EDD2AF" d="M70.19 25.72s12.998 8.216 12.998 8.933c0 .718-32.51 21.633-32.51 21.633L41.593 42.23 70.19 25.72z"/></svg>