<svg xmlns="http://www.w3.org/2000/svg" width="16.922" height="12.996" viewBox="0 0 16.922 12.996"><g fill="#FFF"><circle cx="13.152" cy="11.477" r="1.519"/><circle cx="7.334" cy="11.477" r="1.519"/><path d="M16.342 1.556c-.407-.11-.817.1-.914.465L13.8 7.83H6.53L4.565.495A.648.648 0 0 0 4.21.078a.633.633 0 0 0-.257-.074H3.95C3.937.004 3.925 0 3.912 0H.688C.308 0 0 .34 0 .763c0 .422.307.763.688.763H3.26l1.97 7.337c.09.337.44.536.813.484.02.003.037.007.056.007h8.29l.03-.003c.316-.007.597-.196.675-.49l1.807-6.443c.097-.367-.154-.752-.56-.86z"/><circle cx="6.961" cy="3.383" r=".886"/><circle cx="10.067" cy="3.383" r=".886"/><circle cx="13.225" cy="3.383" r=".886"/><circle cx="8.49" cy="5.669" r=".886"/><circle cx="11.646" cy="5.669" r=".886"/></g></svg>