<svg xmlns="http://www.w3.org/2000/svg" width="17" height="17" viewBox="0 0 17 17"><path fill="#515151" d="M15 7h-1.35c-.07-.2-.15-.393-.24-.582l.953-.954a.998.998 0 0 0 0-1.413l-1.415-1.414a.998.998 0 0 0-1.413 0l-.954.954a5.917 5.917 0 0 0-.58-.24V2a1 1 0 0 0-1-1H7a1 1 0 0 0-1 1v1.35c-.2.07-.393.15-.582.24l-.954-.954a.998.998 0 0 0-1.413 0L1.637 4.05a.998.998 0 0 0 0 1.414l.953.954c-.09.19-.172.383-.242.582H1a1 1 0 0 0-1 1v2a1 1 0 0 0 1 1h1.348c.07.2.152.393.24.582l-.952.954a.998.998 0 0 0 0 1.413l1.415 1.414a.998.998 0 0 0 1.414 0l.953-.954c.19.09.384.17.583.242V16a1 1 0 0 0 1 1h2a1 1 0 0 0 1-1v-1.348c.198-.07.393-.15.582-.242l.953.954a.998.998 0 0 0 1.413 0l1.415-1.415a.998.998 0 0 0 0-1.414l-.953-.954c.09-.19.17-.383.24-.582H15a1 1 0 0 0 1-1V8a1 1 0 0 0-1-1zm-7 5a3 3 0 1 1 0-6 3 3 0 0 1 0 6z"/></svg>