<svg baseProfile="basic" xmlns="http://www.w3.org/2000/svg" xmlns:xlink="http://www.w3.org/1999/xlink" width="357" height="333" viewBox="0 0 357 333"><path opacity=".1" d="M356.5 322.6c0 5.7-79.8 10.3-178.2 10.3C79.8 332.9 0 328.3 0 322.6c0-5.7 79.8-10.3 178.2-10.3 98.5.1 178.3 4.7 178.3 10.3z"/><path fill="#C4C4C4" d="M231.3 317.4c-29.6-1.2-16.5-40.9-16.5-40.9l-32.8-1v-.1l-2.1.1-2.1-.1v.1l-32.7 1s13.1 39.8-16.6 40.9c-29.6 1.2-.9 5.3-.9 5.3l52.3-1.2 54.2 2.8c0-.1 26.8-5.8-2.8-6.9z"/><path fill="#C4C4C4" d="M231.3 317.4c-29.6-1.2-16.5-40.9-16.5-40.9l-32.8-1v-.1l-2.1.1-2.1-.1v.1l-32.7 1s13.1 39.8-16.6 40.9c-29.6 1.2-.9 5.3-.9 5.3l52.3-1.2 54.2 2.8c0-.1 26.8-5.8-2.8-6.9z"/><path fill="#D8D8D8" d="M246.3 321.8c0 1.8-1.4 3.2-3.2 3.2H116.6c-1.8 0-3.2-1.4-3.2-3.2 0-1.8 1.4-3.2 3.2-3.2h126.5c1.8 0 3.2 1.5 3.2 3.2z"/><path opacity=".1" fill="#3C3C3B" d="M180.1 303.3c12.5 0 23.8-2.6 31.8-6.8-.4-10.1 2.8-20.1 2.8-20.1l-32.8-1v-.1l-2.1.1-2.1-.1v.1l-32.7 1s3.2 9.8 2.8 19.8c8 4.4 19.5 7.1 32.3 7.1z"/><path fill-rule="evenodd" clip-rule="evenodd" fill="#EBEBEB" d="M327.4 284.8c0 5.1-4.1 9.2-9.2 9.2H38.3c-5.1 0-9.2-4.1-9.2-9.2V84.7c0-5.1 4.1-9.2 9.2-9.2h279.8c5.1 0 9.2 4.1 9.2 9.2v200.1z"/><path fill-rule="evenodd" clip-rule="evenodd" fill="#464646" d="M327.4 255.4V84.7c0-5.1-4.1-9.2-9.2-9.2H38.3c-5.1 0-9.2 4.1-9.2 9.2v170.7h298.3z"/><path fill-rule="evenodd" clip-rule="evenodd" fill="#98D7FA" d="M48.8 94.3h262.8v145.3H48.8z"/><defs><path id="a" d="M48.8 94.3h262.8v145.3H48.8z"/></defs><clipPath id="b"><use xlink:href="#a" overflow="visible"/></clipPath><g clip-path="url(#b)"><path fill="#EDEDED" d="M325.6 47.2H45.8c-1.5 1.2-2.5 3.1-2.5 5.1v221.6h282.3V47.2z"/><g opacity=".4"><g opacity=".4"><path d="M138.3 233.3c0 1.1-.9 2-2 2H62.1c-1.1 0-2-.9-2-2s.9-2 2-2h74.1c1.2-.1 2.1.8 2.1 2zM138.3 225.2c0 1.1-.9 2-2 2H62.1c-1.1 0-2-.9-2-2s.9-2 2-2h74.1c1.2-.1 2.1.8 2.1 2zM138.3 217c0 1.1-.9 2-2 2H62.1c-1.1 0-2-.9-2-2s.9-2 2-2h74.1c1.2 0 2.1.9 2.1 2zM138.3 208.9c0 1.1-.9 2-2 2H62.1c-1.1 0-2-.9-2-2s.9-2 2-2h74.1c1.2 0 2.1.9 2.1 2zM138.3 200.8c0 1.1-.9 2-2 2H62.1c-1.1 0-2-.9-2-2s.9-2 2-2h74.1c1.2 0 2.1.9 2.1 2zM138.3 192.7c0 1.1-.9 2-2 2H62.1c-1.1 0-2-.9-2-2s.9-2 2-2h74.1c1.2 0 2.1.9 2.1 2zM138.3 184.6c0 1.1-.9 2-2 2H62.1c-1.1 0-2-.9-2-2s.9-2 2-2h74.1c1.2 0 2.1.9 2.1 2z"/></g><path d="M138.3 265.4c0 1.1-.9 2-2 2H62.1c-1.1 0-2-.9-2-2s.9-2 2-2h74.1c1.2 0 2.1.9 2.1 2zM138.3 257.3c0 1.1-.9 2-2 2H62.1c-1.1 0-2-.9-2-2s.9-2 2-2h74.1c1.2 0 2.1.9 2.1 2zM138.3 249.2c0 1.1-.9 2-2 2H62.1c-1.1 0-2-.9-2-2s.9-2 2-2h74.1c1.2 0 2.1.9 2.1 2zM138.3 241.1c0 1.1-.9 2-2 2H62.1c-1.1 0-2-.9-2-2s.9-2 2-2h74.1c1.2 0 2.1.9 2.1 2z" opacity=".4"/></g><g opacity=".4"><g opacity=".4"><path d="M231.7 233.3c0 1.1-.9 2-2 2h-74.1c-1.1 0-2-.9-2-2s.9-2 2-2h74.1c1.1-.1 2 .8 2 2zM231.7 225.2c0 1.1-.9 2-2 2h-74.1c-1.1 0-2-.9-2-2s.9-2 2-2h74.1c1.1-.1 2 .8 2 2zM231.7 217c0 1.1-.9 2-2 2h-74.1c-1.1 0-2-.9-2-2s.9-2 2-2h74.1c1.1 0 2 .9 2 2zM231.7 208.9c0 1.1-.9 2-2 2h-74.1c-1.1 0-2-.9-2-2s.9-2 2-2h74.1c1.1 0 2 .9 2 2zM231.7 200.8c0 1.1-.9 2-2 2h-74.1c-1.1 0-2-.9-2-2s.9-2 2-2h74.1c1.1 0 2 .9 2 2zM231.7 192.7c0 1.1-.9 2-2 2h-74.1c-1.1 0-2-.9-2-2s.9-2 2-2h74.1c1.1 0 2 .9 2 2zM231.7 184.6c0 1.1-.9 2-2 2h-74.1c-1.1 0-2-.9-2-2s.9-2 2-2h74.1c1.1 0 2 .9 2 2z"/></g><path d="M231.7 265.4c0 1.1-.9 2-2 2h-74.1c-1.1 0-2-.9-2-2s.9-2 2-2h74.1c1.1 0 2 .9 2 2zM231.7 257.3c0 1.1-.9 2-2 2h-74.1c-1.1 0-2-.9-2-2s.9-2 2-2h74.1c1.1 0 2 .9 2 2zM231.7 249.2c0 1.1-.9 2-2 2h-74.1c-1.1 0-2-.9-2-2s.9-2 2-2h74.1c1.1 0 2 .9 2 2zM231.7 241.1c0 1.1-.9 2-2 2h-74.1c-1.1 0-2-.9-2-2s.9-2 2-2h74.1c1.1 0 2 .9 2 2z" opacity=".4"/></g><g opacity=".4"><g opacity=".4"><path d="M325.4 233.3c0 1.1-.9 2-2 2h-74.1c-1.1 0-2-.9-2-2s.9-2 2-2h74.1c1.1-.1 2 .8 2 2zM325.4 225.2c0 1.1-.9 2-2 2h-74.1c-1.1 0-2-.9-2-2s.9-2 2-2h74.1c1.1-.1 2 .8 2 2zM325.4 217c0 1.1-.9 2-2 2h-74.1c-1.1 0-2-.9-2-2s.9-2 2-2h74.1c1.1 0 2 .9 2 2zM325.4 208.9c0 1.1-.9 2-2 2h-74.1c-1.1 0-2-.9-2-2s.9-2 2-2h74.1c1.1 0 2 .9 2 2zM325.4 200.8c0 1.1-.9 2-2 2h-74.1c-1.1 0-2-.9-2-2s.9-2 2-2h74.1c1.1 0 2 .9 2 2zM325.4 192.7c0 1.1-.9 2-2 2h-74.1c-1.1 0-2-.9-2-2s.9-2 2-2h74.1c1.1 0 2 .9 2 2zM325.4 184.6c0 1.1-.9 2-2 2h-74.1c-1.1 0-2-.9-2-2s.9-2 2-2h74.1c1.1 0 2 .9 2 2z"/></g><path d="M325.4 265.4c0 1.1-.9 2-2 2h-74.1c-1.1 0-2-.9-2-2s.9-2 2-2h74.1c1.1 0 2 .9 2 2zM325.4 257.3c0 1.1-.9 2-2 2h-74.1c-1.1 0-2-.9-2-2s.9-2 2-2h74.1c1.1 0 2 .9 2 2zM325.4 249.2c0 1.1-.9 2-2 2h-74.1c-1.1 0-2-.9-2-2s.9-2 2-2h74.1c1.1 0 2 .9 2 2zM325.4 241.1c0 1.1-.9 2-2 2h-74.1c-1.1 0-2-.9-2-2s.9-2 2-2h74.1c1.1 0 2 .9 2 2z" opacity=".4"/></g><path opacity=".3" d="M321.9 159.5c1.2-.7 2.4-1.4 3.5-2.1v-5.7c-1.8 1.5-3.9 2.9-6.1 4l-7.2-15.8 13.2-6v-4l-14.8 6.7-4.8-10.6 18.7-8.4c.3.7.6 1.5.9 2.2v-8.2c-1.8-3.2-3.8-6.1-6-8.8l6-2.7v-7.3h-9.9c2.8 1 5.5 2.4 8 4.2l-6.5 2.9c-2.3-2.6-4.8-5-7.1-7.1h-5.5c2.9 2.5 6.1 5.4 9.2 8.7l-15.6 7-7.1-15.5c.2-.1.4-.1.5-.2h-9.9c-15.5 10.5-21.7 30.9-13.7 48.4 3.7 8.1 9.8 14.4 17.2 18.3h18.5c-3.5-3-7.4-6.5-11-10.7l16.4-7.4 7.2 15.8c-3.4 1.3-6.9 2.1-10.4 2.3h16.3zm-5.9-55.2c2.5 3 4.9 6.3 6.9 10l-18.6 8.4-4.9-10.8 16.6-7.6zm-15 19.9l-18.6 8.4c-1.5-3.9-2.4-7.8-3-11.7l16.6-7.5 5 10.8zm-22.5-23.1c2.5-2.6 5.5-4.9 9-6.7l7.1 15.5-15.6 7c-.6-5.7-.5-11.2-.5-15.8zm-3.7 4.5c0 4 .1 8.4.6 13l-6.5 2.9c.7-5.7 2.7-11.1 5.9-15.9zm-6 20.1l7.2-3.3c.7 3.9 1.7 7.8 3.2 11.6l-8 3.6c-1.5-3.9-2.3-7.9-2.4-11.9zm3.9 15.3l8-3.6c1.7 3.6 3.8 6.9 6.1 9.9l-6.9 3.1c-2.8-2.6-5.3-5.8-7.2-9.4zm25.2 18.2c-5.3-.9-10.4-3-14.8-6.1l6.1-2.8c2.8 3.3 5.9 6.2 8.7 8.9zm-7.9-13.3c-2.3-3-4.4-6.3-6.1-9.9l18.7-8.4 4.8 10.5-17.4 7.8z"/><ellipse fill="#FCD22E" cx="95.1" cy="96.8" rx=".1" ry=".1"/><path opacity=".3" d="M58.6 164.1h267v4.3h-267zM58.6 84.1h267v4.3h-267z"/><g opacity=".1"><path d="M60.1 130.3h21.5v31.6H60.1zM85 117.9h21.5v43.9H85zM133.3 111.6h21.5v50.3h-21.5zM109.2 134.9h21.5v27h-21.5z"/><g><path d="M157.6 121.7h21.5v40.1h-21.5zM182.5 105.9H204v55.9h-21.5zM230.8 97.8h21.5v64.1h-21.5zM206.7 127.6h21.5v34.2h-21.5z"/></g></g><path fill="#9D9D9C" d="M219.9 105.1l4.6 7.1-46.6 30.8-7.6-12.8 20.9-13.1 4.8 7 18.4-24.5-31.2 5.7 4.1 6-20.5 12.9-6.8-11.4h-.1l-.3-.6-20.7 13.7-8.9-14.2h-.1l-.3-.5-60.6 38 4.1 5.8 54.3-34 5.5 8.8-41.5 27.4 1.9 3.9h8.8l35.3-24 6.4 10.2 4.4-3.2 15.3-9.6 12.1 20.5 4.9-3.7 48.7-32.2 5.4 8.3 20.7-29.1-35.4 6.8zm-74.1 32l-2.6-4.2 13.6-9.2 2.8 4.8-13.8 8.6z"/></g><defs><path id="c" d="M48.8 45.1h262.8v194.5H48.8z"/></defs><clipPath id="d"><use xlink:href="#c" overflow="visible"/></clipPath><g clip-path="url(#d)"><path fill="#3F271B" d="M167.2 78.7c-8.9-2.8-5.3-.4-11.3 10.3-4.3 7.8-31.6-9.1-30.5 13.5.4 7.6 9.7 28-.1 37.3-15.1 14.5-3 26-6.4 36.3-1.9 5.6-6.1 6.3-6.1 6.3s2.4.1 7.8-1.1c5.4-1.1 8.2-9.2 8.2-9.2s-8.3 11.5-2.2 19.7c11.9 16.2 38.9 9.6 38.9 9.6s10.1-13.8 13.5-20.1c5.4-10.4-19.9-17.3-26.2-29.7-6.6-13.1-10.1-31.6 4.9-50.5 14.4-18.2 18.7-24.7 18.7-24.7s3.6-6.4 11 7.4c7.3 13.8 4.4 21.3 4.4 21.3s9.1-6.6 12.8-9.1c3.7-2.6 3.7-4.3 3.7-4.3s12.8 11.6 11.9 16.3c-.9 4.7-.1 18.3 2.8 29.4 2.9 11.2-20.9 25.7-21.3 29-.4 3.3-4.2 14.8-4.2 14.8s9.4 10.8 10.8 7.9c1.4-2.9 1 .1-.3 4.5-.1.4 26.1 14.3 26.1 14.3s6.5-5.2 7.1-14.3c.7-10.7-7.1-17.6-7.1-17.6s4.2-1 8.4 3c2.5 2.3 2.9 5 3.8 8.6 0 0 3.2-1.9 7-14.2 6.9-22.2-14.7-42.8-9.1-54.6 5.6-11.8-26.7-20.5-29.3-25.3-2.6-4.8-8.2 11.5-22 1.7-12.9-9.1 20.2-15.8-2.2-19.3-16.2-2.5-23.5 2.8-23.5 2.8z"/><path fill="#FFD69D" d="M168.1 151.1h37.5v56.3h-37.5z"/><path fill="#FFD69D" d="M213.2 184.7c-4.4-2.8-12.9-8.8-28.8-8.8s-24.5 5.9-28.8 8.8c-2.8 1.9-1.1 3.7 2.9 5.2-.7 1.4-1.1 2.9-1.1 4.5 0 8.9 12.1 16.2 27.1 16.2s27.1-7.3 27.1-16.2c0-1.6-.4-3.1-1.1-4.5 4-1.5 5.6-3.3 2.7-5.2z"/><path opacity=".2" fill="#010000" d="M209 156.7h-46.4v7.1c5.5 8.5 15.8 13.6 23.4 13.6 7.5 0 18.5-5 23-13.2v-7.5z"/><path fill="#FFCE99" d="M229.9 117c0 32.6-26 59-43.8 59-17.9 0-43.8-26.4-43.8-59s19.6-59 43.8-59c24.2 0 43.8 26.4 43.8 59z"/><ellipse transform="rotate(-60.777 215.123 137.408)" fill="#F27D82" cx="215.1" cy="137.4" rx="8.6" ry="9"/><ellipse transform="rotate(-60.777 157.688 137.407)" fill="#F27D82" cx="157.7" cy="137.4" rx="8.6" ry="9"/><path fill="#FFD69D" d="M146.8 125.9c.1 1.9-1.3 3.5-3.2 3.6h-.4c-1.9.1-3.5-1.3-3.6-3.2l-.9-14.8c-.1-1.9 1.3-3.5 3.2-3.6h.4c1.9-.1 3.5 1.3 3.6 3.2l.9 14.8z"/><path opacity=".15" fill="#020303" d="M217.3 110.3c-.4 0-.7-.2-1-.5-1.9-2.6-4.6-4.3-7.8-4.9-3.2-.5-6.3.2-9 2.1-.5.4-1.3.3-1.7-.3-.4-.5-.3-1.3.3-1.7 3.1-2.2 6.9-3.1 10.7-2.5 3.8.6 7.1 2.7 9.4 5.8.4.5.3 1.3-.3 1.7-.1.2-.3.3-.6.3zM154.1 110.3c-.2 0-.5-.1-.7-.2-.5-.4-.7-1.1-.3-1.7 2.2-3.1 5.6-5.2 9.4-5.8 3.8-.6 7.6.3 10.7 2.5.5.4.7 1.1.3 1.7-.4.5-1.1.7-1.7.3-2.6-1.9-5.8-2.6-9-2.1s-5.9 2.2-7.8 4.9c-.2.2-.5.4-.9.4z"/><ellipse opacity=".15" fill="#020303" cx="186.4" cy="165.7" rx="5.4" ry=".7"/><path fill="#F27D82" d="M202.9 148.8c0 5.2-7.5 13.1-16.6 13.1-9 0-16.4-7.5-16.4-12.7 0-1.3 7.3-.8 16.4-.8 9.1 0 16.6-1 16.6.4z"/><path fill="#FFF" d="M202.2 149.3c0 4.7-7.2 10.3-15.9 10.3s-15.7-5.2-15.7-9.9c0-1.2 7 .8 15.7.8s15.9-2.5 15.9-1.2z"/><path fill="#3F271B" d="M174.1 49.7C144 45 123.3 75.8 124.5 98.4c.4 7.6 8.5 37.8 14.2 37.3 17.3-1.5-5.6-23.5 14.1-38.1C170.9 84 177 72.4 177 72.4s2.7-2.4 10.2 11.4c7.5 13.8 3 25.1 3 25.1s6.9-8 8.5-14c2.5-8.8 3.1-12.6 3.1-12.6s14.4 3.2 21.1 20c4.1 10.3-.3 18.5 2.6 29.7 3 11.2 15.3-5.5 21.1-17.2 5.7-11.8 6-30.1-8.1-39.9-13.2-9.1-8.6-22.4-29.6-29.5-16.1-5.5-34.8 4.3-34.8 4.3z"/><path fill="#FF4D4D" d="M252.8 245.1l-4.3-18.9c0-28.4-14.7-32.6-34.1-43l-27.3 24.4-31.3-24.4c-16.9 8.8-35 15.7-35 44.1l-2.6 18.9s27.9 7.2 69.4 7.2c41.5 0 65.2-8.3 65.2-8.3z"/><path fill="#FFF" d="M152.7 115.2c2.5 4.2 6.6 7.2 11.5 7.8 4.9.6 9.5-1.3 13-4.7-2.5-4.2-6.6-7.1-11.5-7.8-4.9-.6-9.5 1.3-13 4.7z"/><path fill="#0A9365" d="M165.7 112.3c4.4.6 8.2 3 10.7 6.6.3-.2.5-.4.8-.7-2.5-4.2-6.6-7.1-11.5-7.8-4.9-.6-9.5 1.3-13 4.7.2.4.5.8.8 1.1 3.3-2.8 7.7-4.4 12.2-3.9z"/><path fill="#FFF" d="M216.6 115.2c-2.5 4.4-6.6 7.4-11.5 8.1-4.9.6-9.5-1.3-13-4.9 2.5-4.3 6.6-7.4 11.5-8.1 4.9-.6 9.5 1.3 13 4.9z"/><path fill="#0A9365" d="M203.6 112.2c-4.4.6-8.2 3.2-10.7 6.9-.3-.2-.5-.5-.8-.7 2.5-4.3 6.6-7.4 11.5-8.1 4.9-.6 9.5 1.3 13 4.9-.2.4-.5.8-.8 1.2-3.3-3.2-7.7-4.8-12.2-4.2z"/><circle fill="#0C7BBF" cx="166.3" cy="118.2" r="3.3"/><circle fill="#FFF" cx="165.3" cy="117.2" r=".8"/><circle fill="#0C7BBF" cx="205" cy="118.2" r="3.3"/><circle fill="#FFF" cx="203.9" cy="117.2" r=".8"/><g opacity=".1"><circle cx="242" cy="184.6" r="1.1"/><circle cx="246.7" cy="184.6" r="1.1"/><circle cx="244.3" cy="188" r="1.1"/></g><g opacity=".1"><circle cx="246.3" cy="188.1" r="1.1"/><circle cx="251.1" cy="188.1" r="1.1"/><circle cx="248.7" cy="191.6" r="1.1"/></g><path opacity=".15" fill="#020303" d="M252.7 167.7c-.3.2-.7.2-1 0-2.5-1.3-5.4-1.6-8.2-.7-2.7.9-5 2.7-6.3 5.3-.3.5-.9.7-1.5.5-.5-.3-.7-.9-.5-1.4 1.6-3.1 4.3-5.3 7.6-6.3s6.8-.7 9.8.9c.5.3.7.9.5 1.4-.1.1-.2.2-.4.3z"/><ellipse fill="#F27D82" cx="185.6" cy="138.8" rx="4.6" ry="1.2"/></g><path fill="#77513B" d="M80.6.8h9.7v238.8h-9.7z"/><path opacity=".1" d="M236 73l-4-3.1c0-.1-7-12.3-7.1-12.4-4.2-4-19.9 1.8-27.8-1.6h16-66.4c-5.2 4-10.7 9.3-12.3 12.4-.4.9-3.8 2.6-4 4.6H236zM83.6 75.5h9.7v164.2h-9.7z"/><path fill="#C91E2B" d="M294.6 59.3H80V0h214.6l-12 30.6z"/><g fill="#FFF"><path d="M123.2 42.9V24.2l-7.5 18.7h-2.5l-7.5-18.7v18.7H100V16.2h8l6.5 16.2 6.5-16.2h8v26.7h-5.8zM140 16.2v9.5h6.8c5.8 0 9 4 9 8.6 0 4.7-3.2 8.6-9 8.6h-12.5V16.2h5.7zm0 14.5v7.2h6.1c2.2 0 3.9-1.4 3.9-3.6s-1.7-3.6-3.9-3.6H140zm18 12.2V16.2h5.7v26.7H158z"/></g><g><path fill="#FFF" d="M251.1 32.8l-9 .4.1 3.1 13.2-.5c.4 0 .9.3.9.9l.1 3.4c0 .4-.3.9-.9.9l-13.2.5.2 5.1c0 .4-.3.9-.9.9l-4.3.2c-.4 0-.9-.3-.9-.9l-.2-5.1-5.8.2c-.4 0-.9-.3-.9-.9l-.1-3.4c0-.4.3-.9.9-.9l5.9-.2-.1-3.1-5.9.2c-.4 0-.9-.3-.9-.9l-.2-3.9c0-.4.3-.9.9-.9l5.9-.2-.7-16.5c0-.4.3-.9.9-.9l14.1-.6c7.1-.3 12.1 4.2 12.4 11 .3 6.6-4.4 11.8-11.5 12.1zm-1.3-17.4l-8.4.3.5 11.8 8.4-.3c3.7-.2 6.1-2.6 5.9-6.2-.1-3.6-2.7-5.8-6.4-5.6z"/></g><path opacity=".1" d="M180.4 25.7L207.2 59H246l-29.5-36.3z"/><g><path fill="#FFF" d="M197.3 44.1l-12.7-12.3c-.2-.1-4.7-4.2-4.7-9.1 0-6 3.7-9.6 9.8-9.6 3.6 0 6.9 2.8 8.5 4.4 1.6-1.6 5-4.4 8.5-4.4 6.1 0 9.8 3.6 9.8 9.6 0 4.9-4.5 9-4.7 9.2l-12.7 12.2c-.2.2-.6.4-.9.4s-.6-.2-.9-.4z"/></g></svg>