<svg baseProfile="basic" xmlns="http://www.w3.org/2000/svg" width="274" height="348" viewBox="0 0 274 348"><path fill="#F6F6F6" d="M273.5 284c0 8.9-7.2 16.2-16.2 16.2H16.2C7.2 300.2 0 293 0 284V83.6c0-8.9 7.2-16.2 16.2-16.2h241.1c8.9 0 16.2 7.2 16.2 16.2V284z"/><path fill="#464646" d="M273.5 103.1V83.6c0-8.9-7.2-16.2-16.2-16.2H16.2C7.2 67.4 0 74.7 0 83.6V103h273.5z"/><path fill="#46B3DB" d="M0 188.8V284c0 8.9 7.2 16.2 16.2 16.2h241.1c8.9 0 16.2-7.2 16.2-16.2V143.6l-30.5 21-46.3 51.4-39.8-33.1-53 56.3-56.3-29.5L0 188.8z"/><path fill="#FFF" d="M261.5 87.6c0 3.8-3.1 6.9-6.9 6.9h-183c-3.8 0-6.9-3.1-6.9-6.9 0-3.8 3.1-6.9 6.9-6.9h183c3.9 0 6.9 3.1 6.9 6.9z"/><circle fill="#EB4444" cx="21.1" cy="87.8" r="7.7"/><circle fill="#00B05A" cx="47" cy="87.8" r="7.7"/><path opacity=".15" d="M45.4 204.6v96h55.2V239l-54.7-30.8zM157.6 208.3v92.3h40.3v-81.4l-39.8-32.6z"/><path fill="#C91E2B" d="M0 189.9l.1-10.7 48.7 24.7 3.1 11.6z"/><path fill="#C91E2B" d="M38.293 206.86l4.524-7.43 64.236 39.103-4.524 7.43z"/><path fill="#FFB138" d="M151.738 185.365l5.538-6.71 44.73 36.924-5.538 6.708zM273.7 147.4v-10.1L239.8 163l5.6 6.6z"/><path fill="#FFB138" d="M94.548 239.5l62.024-60.003 6.05 6.252-62.025 60.004zM192.635 218.952l52.75-60.013 6.534 5.743-52.75 60.013z"/><ellipse transform="rotate(-3.032 45.93 208.103)" fill="#FFB138" cx="45.9" cy="208.1" rx="12.1" ry="12.1"/><circle fill="#FFB138" cx="158.1" cy="186.5" r="12.1"/><circle fill="#FFB138" cx="100" cy="238.7" r="12.1"/><circle fill="#FFB138" cx="245.7" cy="163.7" r="12.1"/><circle fill="#FFB138" cx="198.3" cy="215.7" r="12.1"/><path opacity=".2" d="M87.5 296.1c13-.5 24.9-4.8 34.8-11.8l1.5 1.5c.1.1.1.2.2.2.2.2.4.2.6.3l4.6 4.6c-2 3-2.9 5.7-2.5 7.5l37.9-1.5-16.5-16.7-.1.1h-.1c-.1-.2-.3-.5-.4-.7-1.5-1.5-5-.7-8.8 1.8l-6.1-6.2c11.3-12.2 18-28.7 17.3-46.6-1.4-35.8-31.5-63.7-67.3-62.3-35.8 1.4-63.7 31.5-62.3 67.3 1.3 36 31.4 63.9 67.2 62.5z"/><path fill="#515151" d="M142.1 275c-2.6-1.5-8.5 1.1-13.6 6.3-5.2 5.1-7.9 11-6.4 13.6l-.1.1 50.9 51.3.1-.1c.1.2.2.4.4.5 2.3 2.3 8.6-.4 14.2-5.9s8.2-11.8 6-14.1c-.2-.2-.3-.3-.5-.4l.1-.1-51.1-51.2z"/><path opacity=".15" d="M142.1 274.9c-1.3-.7-3.3-.4-5.6.6l56.8 57.2c1.2-2.7 1.3-4.9.2-6.1-.2-.2-.3-.3-.5-.4l.1-.1-51-51.2z"/><path opacity=".15" fill="#FFF" d="M181.2 345.6c1.7-1 3.5-2.3 5.2-3.9L132 286.8l-4.6 4.5 53.8 54.3z"/><path fill="#333" d="M141.5 274.3c2.2 2.2-.6 8.4-6.2 14-5.6 5.5-11.9 8.2-14 6-2.2-2.2.6-8.4 6.2-14 5.6-5.5 11.9-8.2 14-6z"/><path fill="#A7A7A7" d="M120.1 263.4c-1.2-.7-4 .5-6.4 2.9-2.4 2.4-3.7 5.2-3 6.4l15.3 15.4c.1.1.1.2.2.2 1.1 1.1 4.1-.2 6.7-2.8 2.6-2.6 3.9-5.6 2.8-6.6-.1-.1-.2-.1-.2-.2l-15.4-15.3z"/><path opacity=".15" d="M112 255.5c-1.2-.7-4 .5-6.4 2.9-2.4 2.4-3.7 5.2-3 6.4l15.3 15.4c0 .1.1.2.2.2 1.1 1.1 4-.2 6.7-2.8 2.6-2.6 3.9-5.6 2.8-6.6-.1-.1-.2-.1-.2-.2L112 255.5z"/><ellipse transform="matrix(.9993 -.03828 .03828 .9993 -8.585 3.192)" fill="#A7A7A7" cx="79.1" cy="225.8" rx="64.9" ry="64.9"/><ellipse transform="matrix(.9993 -.03828 .03828 .9993 -8.586 3.192)" fill="#EDEDED" cx="79.1" cy="225.8" rx="56.7" ry="56.7"/><path fill="#289CC9" d="M132.3 206.3l-48 31.8-7-10.6 3.8-2.5-51.5-26.8c-4.9 8.8-7.6 19-7.2 29.8 1.2 31.3 27.5 55.7 58.8 54.5 31.3-1.2 55.7-27.5 54.5-58.8-.2-6.2-1.4-12-3.4-17.4z"/><path opacity=".1" d="M89.5 234.5l-5.3 3.5-7-10.6 3.8-2.5-51.5-26.8c-4.9 8.8-7.6 19-7.1 29.8 1.2 31.3 27.4 55.7 58.7 54.5 3.5-.1 6.6-.6 10.1-1.3l-1.7-46.6z"/><path fill="#C91E2B" d="M36.6 187.7L93 217l34.2-22.6c2.3 3.6 4.1 7.5 5.5 11.6l-48.4 32-7-10.6 3.8-2.5L29.3 198c2.1-3.7 4.5-7.1 7.3-10.3z"/><path fill="#FFB138" d="M93 217l34.2-22.6c2.3 3.6 4.1 7.5 5.5 11.6l-48.4 32-7-10.6 3.8-2.5"/><ellipse transform="scale(.99996) rotate(-5.226 89.19 222.47)" fill="#FFB138" cx="89.2" cy="222.5" rx="17.9" ry="17.9"/><ellipse transform="rotate(-34.905 63.31 210.066)" opacity=".15" fill="#FFF" cx="63.3" cy="210.1" rx="33.9" ry="20.2"/><path fill="#C91E2B" d="M149.3 2.6c-44.7 11.3-71.7 56.6-60.5 101.3 2.8 11.1 7.7 21.2 14.3 29.8l-6 44.3 41.6-17.1c15.8 6.3 33.7 7.9 51.5 3.5 44.7-11.3 71.7-56.6 60.5-101.3-11.4-44.7-56.8-71.8-101.4-60.5z"/><g fill="#FFF"><path d="M124.6 51h5.1v10.8c1.1-.1 1.9-.4 2.3-.9.4-.5 1-1.8 1.9-3.9 1.1-2.7 2.1-4.4 3.2-5.1 1.1-.7 2.8-1 5.1-1h.7v3.8h-.7c-1 0-1.8.1-2.3.4-.5.3-.9.7-1.2 1.2-.3.5-.7 1.6-1.3 3.3-.3.9-.6 1.6-1 2.2s-1 1.1-1.9 1.7c1.1.3 2.1 1 2.8 2 .7 1 1.6 2.4 2.4 4.1l3.5 7h-6l-3-6.6c0-.1-.1-.3-.3-.5-.1-.1-.3-.5-.6-1.2-.7-1.2-1.2-2-1.6-2.3-.4-.3-1.1-.5-1.9-.5v11.1h-5.1V51zM144.8 51h5.7l5.9 13.2 5-13.2h5.3l-8.6 19.3c-.9 2.1-1.9 3.7-2.9 4.8-1 1.1-2.2 1.6-3.8 1.6-1.5 0-2.7-.1-3.5-.3v-3.8c.7 0 1.4.1 2 .1 1.2 0 2-.2 2.5-.6s1-1.4 1.5-2.8L144.8 51zM169.8 76.4V51h8.2c3.1 0 5.1.1 6.1.4 1.5.4 2.7 1.2 3.6 2.5s1.5 2.9 1.5 4.9c0 1.6-.3 2.9-.8 3.9-.6 1.1-1.3 1.9-2.2 2.5-.9.6-1.8 1-2.7 1.2-1.2.2-3 .4-5.3.4h-3.3v9.6h-5.1zm5.1-21.1v7.2h2.8c2 0 3.4-.1 4-.4.7-.3 1.2-.7 1.6-1.2.4-.6.6-1.2.6-2 0-.9-.3-1.7-.8-2.3-.5-.6-1.2-1-2.1-1.1-.6-.1-1.8-.2-3.7-.2h-2.4zM209.1 67l5 1.6c-.8 2.8-2 4.8-3.8 6.2s-4 2-6.7 2c-3.4 0-6.1-1.2-8.3-3.4-2.2-2.3-3.3-5.4-3.3-9.4 0-4.2 1.1-7.5 3.3-9.8s5-3.5 8.6-3.5c3.1 0 5.6.9 7.6 2.7 1.2 1.1 2 2.6 2.6 4.7l-5.1 1.2c-.3-1.3-.9-2.4-1.9-3.1-1-.8-2.1-1.1-3.5-1.1-1.9 0-3.4.7-4.6 2s-1.8 3.5-1.8 6.6c0 3.2.6 5.5 1.7 6.8 1.2 1.4 2.7 2 4.5 2 1.4 0 2.5-.4 3.5-1.3s1.7-2.3 2.2-4.2zM110.7 108.8V83.5h8.2c3.1 0 5.1.1 6.1.4 1.5.4 2.7 1.2 3.6 2.5s1.5 2.9 1.5 4.9c0 1.6-.3 2.9-.8 3.9-.6 1.1-1.3 1.9-2.2 2.5-.9.6-1.8 1-2.7 1.2-1.2.2-3 .4-5.3.4h-3.3v9.6h-5.1zm5.2-21V95h2.8c2 0 3.4-.1 4-.4.7-.3 1.2-.7 1.6-1.2.4-.6.6-1.2.6-2 0-.9-.3-1.7-.8-2.3-.5-.6-1.2-1-2.1-1.1-.6-.1-1.8-.2-3.7-.2h-2.4zM131.7 83.5h5.7l5.9 13.2 5-13.2h5.3l-8.6 19.3c-.9 2.1-1.9 3.7-2.9 4.8-1 1.1-2.2 1.6-3.8 1.6-1.5 0-2.7-.1-3.5-.3v-3.8c.7 0 1.4.1 2 .1 1.2 0 2-.2 2.5-.6s1-1.4 1.5-2.8l-9.1-18.3zM156.7 83.5h18.9v4.3h-13.8v5.9h6.8c1.9 0 3.5.2 4.7.7 1.2.5 2.3 1.3 3.2 2.6.9 1.2 1.3 2.7 1.3 4.4 0 1.7-.4 3.2-1.3 4.4s-1.9 2.1-3 2.5c-1.1.4-2.8.7-4.8.7h-12V83.5zm5.1 21.1h5c1.6 0 2.7-.1 3.4-.2s1.2-.5 1.7-1.1c.5-.6.7-1.2.7-2 0-1.2-.4-2-1.3-2.6-.8-.5-2.3-.8-4.3-.8h-5.2v6.7zM183.4 83.5h17.8v25.3H196v-21h-7.6v10.8c0 3.1-.1 5.3-.3 6.5-.2 1.2-.7 2.2-1.5 2.9-.8.7-2.1 1-3.8 1-.6 0-1.7-.1-3.3-.2v-4h1.1c1.1 0 1.8-.1 2.2-.4.4-.3.6-1 .6-2.1V83.5zM221.9 108.8V98.3h-1c-1.6 0-2.8.2-3.4.7-.7.5-1.8 1.9-3.4 4.3l-3.7 5.5h-6.1l3.1-4.9c1.2-2 2.2-3.3 2.9-4.1.7-.8 1.6-1.5 2.7-2.1-2.4-.4-4.1-1.2-5.1-2.5s-1.6-2.8-1.6-4.6c0-1.5.4-2.9 1.2-4.1.8-1.2 1.8-2 3.1-2.4 1.3-.4 3.2-.6 5.7-.6H227v25.3h-5.1zm0-21h-4c-2 0-3.4 0-4 .1-.6.1-1.2.4-1.7.9s-.7 1.2-.7 2.1c0 .9.2 1.6.7 2.1.4.5 1 .9 1.7 1s2.1.2 4.2.2h3.8v-6.4z"/></g></svg>