<svg baseProfile="basic" xmlns="http://www.w3.org/2000/svg" width="278" height="400" viewBox="0 0 278 400"><ellipse fill="#E6E6E6" cx="175.4" cy="382.4" rx="91.7" ry="17"/><path fill="#FDDBA4" d="M225.8 135.5c-.2 2-1.9 3.4-3.9 3.3h-.4c-2-.2-3.5-1.9-3.3-3.9l1.5-15.7c.2-2 1.9-3.4 3.9-3.3h.4c2 .2 3.4 1.9 3.3 3.9l-1.5 15.7zM127 135.5c.2 2 1.9 3.4 3.9 3.3h.4c2-.2 3.4-1.9 3.3-3.9l-1.5-15.7c-.2-2-1.9-3.4-3.9-3.3h-.4c-2 .2-3.4 1.9-3.3 3.9l1.5 15.7z"/><path fill="#FDDBA4" d="M176.2 58H175c-28.1 0-50.8 30.6-50.8 68.4 3 21.1 9.7 45.7 16.1 52.2 9.8 9.8 25.6 15.1 34.5 12.9.1 0 .2.1.2.1v.1s-.1 0 0 0v-.1s.6-.1.8-.1c8.9 2.2 25.1-3.1 34.9-12.9 6.4-6.4 13.2-31.1 16.2-52.2.1-37.8-22.6-68.4-50.7-68.4z"/><path fill="#FF8080" d="M161.5 145.1c0 6-4.8 10.8-10.8 10.8s-10.8-4.8-10.8-10.8 4.8-10.8 10.8-10.8 10.8 4.9 10.8 10.8zM211.3 145.1c0 6-4.8 10.8-10.8 10.8s-10.8-4.8-10.8-10.8 4.8-10.8 10.8-10.8 10.8 4.9 10.8 10.8z"/><path fill="#FFF" d="M208.3 124.3c0 2.4-4.9 4.3-11 4.3-6 0-11-1.9-11-4.3s4.9-4.3 11-4.3 11 1.9 11 4.3M163.2 124.3c0 2.4-4.9 4.3-11 4.3-6 0-11-1.9-11-4.3s4.9-4.3 11-4.3 11 1.9 11 4.3"/><path opacity=".2" fill="#14120E" d="M181.8 146.9c0 2.8-2.5 5.1-5.5 5.1h-.1c-3 0-5.5-2.3-5.5-5.1v-23.1c0-2.8 2.5-5.1 5.5-5.1h.1c3 0 5.5 2.3 5.5 5.1v23.1z"/><path fill="#FFF" d="M153.9 123.2c0 .4-.4.8-.8.8-.5 0-.8-.4-.8-.8s.4-.8.8-.8.8.4.8.8"/><path fill="#422902" d="M200.2 124.3c0 1.7-1.4 3.1-3.1 3.1s-3.1-1.4-3.1-3.1 1.4-3.1 3.1-3.1 3.1 1.4 3.1 3.1"/><path fill="#FFF" d="M196.8 123.1c0 .5-.4.9-.9.9s-.9-.4-.9-.9.4-.9.9-.9c.5-.1.9.3.9.9"/><path fill="#422902" d="M155.3 124.3c0 1.7-1.4 3.1-3.1 3.1-1.7 0-3.1-1.4-3.1-3.1s1.4-3.1 3.1-3.1 3.1 1.4 3.1 3.1"/><path fill="#FFF" d="M152 123.1c0 .5-.4.9-.9.9s-.9-.4-.9-.9.4-.9.9-.9c.4-.1.9.3.9.9"/><path opacity=".3" d="M200.6 78.3c-9.6-4.5-21.1-5.1-31.5-3.7-7.2.9-14.1 3.1-20.8 5.6-1.2.4-7.7 2.5-6.4 4.6 1.7 2.7 4 4.9 5.3 7.8.7 1.6.5 3.2-.3 4.4 1.2-.7 2.6-1.2 4.2-1.7-5.2 4.3-6 6.6-6.2 8.1 4-2 10-4.8 19.7-4 .2 0 33.6-.3 39.6-6.8 1-1.1 2.3-.8 3.6.2.1-1.5.2-2.9.3-4.4 0-.5.1-1 .3-1.4-1.3-3.6-5.3-6.3-7.8-8.7z"/><path fill="#422902" d="M163.2 113.6c0 1.3-1.3 2.4-2.8 2.3l-17.3-.4c-1.5 0-2.7-1.1-2.7-2.5 0-1.3 1.3-2.4 2.8-2.3l17.3.4c1.5.1 2.7 1.2 2.7 2.5zM211.6 113.6c0 1.3-1.3 2.4-2.8 2.3l-17.3-.4c-1.5 0-2.7-1.1-2.7-2.5 0-1.3 1.3-2.4 2.8-2.3l17.3.4c1.5.1 2.8 1.2 2.7 2.5z"/><path opacity=".2" fill="#010000" d="M133.3 171.4c0 16.7 29.9 32.8 42.8 32.8h.4c13.3 0 44.5-19.4 44.5-36V150c0-11.5-17.1 7.1-40.2 7.1h-3.3c-25.9 0-43.9-19.8-44.3-8.4l.1 22.7z"/><path fill="#77503B" d="M200.6 76.6c-9.6-4.5-21.1-5.1-31.5-3.7-7.2.9-14.1 3.1-20.8 5.6-1.2.4-7.7 2.5-6.4 4.6 1.7 2.7 4 4.9 5.3 7.8.7 1.6.5 3.2-.3 4.4 1.2-.7 2.6-1.2 4.2-1.7-5.2 4.3-6 6.6-6.2 8.1 4-2 10-4.8 19.7-4 .2 0 33.6-.3 39.6-6.8 1-1.1 2.3-.8 3.6.2.1-1.5.2-2.9.3-4.4 0-.5.1-1 .3-1.4-1.3-3.5-5.3-6.2-7.8-8.7z"/><path fill="#289CC9" d="M260.3 195.9c-17.7-35.5-15.2-47.9-15.2-60 0-6.6-.1-10-.1-11.6 0-.7-.4-1.3-.4-2 0-38-30.7-68.9-68.7-69.7h-1c-38 .8-68.2 31.7-68.2 69.7 0 .7 0 1.3.1 2v11.6c0 12.1 2.5 24.5-15.2 60s-17.4 64.2-17.4 64.2c0 43.8 29.4 115.1 29.4 115.1 19.5 19.5 65.7 19.1 72.1 18.9 6.4.2 52.8.6 72.3-18.9 0 0 29.6-71.4 29.6-115.1.1 0 .5-28.7-17.3-64.2zm-84.4-15.7c-26.1-.2-47.2-21.4-47.2-47.6 0-26.1 21.1-47.4 47.2-47.6 26.1.2 47.3 21.4 47.3 47.6S202 180 175.9 180.2z"/><path opacity=".3" d="M188.6 112.8c-3 .9-5.4 1.6-7.3 2-4.3 1-5.3 1-9.6 0-1.9-.5-4.4-1.1-7.3-2-7.9-2.5-23.8-2.6-36.4.3l.4 5.6s2.3-.8 3.5 6.6c1.2 7.4 2.2 17.6 19.2 17.9 17 .2 20.5-15.2 21.4-17.4.9-2.2 1.2-3.9 2.2-4.3 1.3-.6 2.4-.6 3.7 0 1.1.5 1.3 2.1 2.2 4.3.9 2.2 4.4 17.6 21.4 17.4 16.9-.2 18-10.5 19.2-17.9 1.2-7.4 3.5-6.6 3.5-6.6l.4-5.6c-12.6-2.8-28.5-2.7-36.5-.3zm-20.9 15.8c-3.5 10.6-11.2 12.9-17.5 12.6-6-.2-10.3-2-13.3-7.3-2.2-3.9-3.4-9.1-1.7-13.8 1.2-3.5 4.6-5.1 8-5.9 5.2-1.2 15-1 19.9 1.3 4 1.8 7.1 5.6 4.6 13.1zm48.3 5.3c-3 5.4-7.4 7.1-13.3 7.3-6.2.2-14-2.1-17.5-12.6-2.5-7.6.6-11.3 4.6-13.1 4.9-2.3 14.6-2.5 19.9-1.3 3.5.8 6.8 2.4 8.1 5.9 1.6 4.7.4 9.9-1.8 13.8z"/><path fill="#5E5E5E" d="M174.1 312.9h2.4v81.3h-2.4z"/><path opacity=".2" fill="#201600" d="M210.6 306.1c-58.4 20.8-84.4 22.4-92.4 22.2-2 0-4.1-.1-6.1 0-5.8.2-18.3-.4-27-7.3l-3.8-14.2s12.8 13.8 28.8 14.3c15.9.6 35.4-.6 98.4-15.3"/><path fill="#FDDBA4" d="M143.7 162.2h62.4v64.6h-62.4z"/><path fill="#E4E4E4" d="M175.3 205L133 179.8l14.1 99.4H203.7l14-99.4z"/><path opacity=".2" fill="#201600" d="M140.1 277.3C137.4 269.7 123 238 123 238l9.8-16.1-12.7-3.5 8.4-34.8 3.8-1.8 29.2 95.5-17.6-3.5-3.8 3.5z"/><path fill="#1D89AA" d="M140.9 274.8c-2.7-7.6-17.1-39.3-17.1-39.3l9.8-16.1-12.7-3.5 8.4-34.8 3.8-1.8 29.2 95.5-17.6-3.5-3.8 3.5z"/><path opacity=".2" fill="#201600" d="M210.8 276.5c2.7-7.6 17.1-39.3 17.1-39.3l-9.8-16.1 12.7-3.5-8.4-34.8-3.8-1.8-28.4 95.5L207 273l3.8 3.5z"/><path fill="#1D89AA" d="M209.9 274.8c2.7-7.6 17.1-39.3 17.1-39.3l-9.8-16.1 12.7-3.5-8.4-34.8-3.8-1.8-28.4 95.5 16.8-3.5 3.8 3.5z"/><path fill="#C43D23" d="M193.7 196.2H157l15.6 22.1-7.9 56.5h21.4l-7.9-56.5z"/><path opacity=".1" d="M207.6 174.3l10.1 5-19.8 44.7-22.2-27.8z"/><path fill="#FFF" d="M207.6 174.3l10.2 4.7-19.6 38.6-22.5-21.4z"/><path opacity=".1" d="M143.9 175.5l-10.6 5.7 19.5 42.8 22.9-27.8z"/><path fill="#FFF" d="M143.2 174.3L133 179l19.5 38.6 22.6-21.4z"/><path opacity=".2" fill="#201600" d="M124.1 267.9s12.3-3.6 13.7-4.4 7.8 5.7 8 6.2 3.5 11.8 3.5 11.8L124.2 270l-.1-2.1z"/><path fill="#FDDBA4" d="M140.6 265.3c-1.9-1-9.2 4.6-21.1 4.3-12-.3-11.9 23.8-11 23.8.8 0 38.2-2.8 38.2-2.8l-6.1-25.3z"/><path opacity=".3" fill="#201600" d="M135.2 271.8c-4.3 0-7.8 3.5-7.8 7.8s3.5 7.8 7.8 7.8 7.8-3.5 7.8-7.8-3.5-7.8-7.8-7.8z"/><path opacity=".2" fill="#201600" d="M131.9 292.3s-2.9-.5-5.8-.3-8-1.3-8.5-1.9 14.6-.3 14.6-.3l-.3 2.5z"/><path fill="#FDDBA4" d="M134.8 287.9c-.7.2.8 3.4.2 3.3-9.8-1.7-14.7 2.1-19.7-2.6 1.6-3.5 10-3 10-3s10.1 2.1 9.5 2.3z"/><path fill="#F7BB26" d="M137.4 265.8s-5 1.8-5.3 1.9-2.2 23-2.2 23l8.4.3-.9-25.2z"/><path opacity=".2" fill="#201600" d="M141.4 267.3h-5.2s.1-.3-1.5.2-4 23.2-5.6 23.3c7.1.2 7 1 10.5-.3 3.4-1.3 1.8-23.2 1.8-23.2z"/><g opacity=".2" fill="#201600"><path d="M275.5 282.9l-.9 5.3c1-3 .9-5.3.9-5.3zM251.9 304.3c-24.5 4.1-53.2-3.6-66.7-4.4-7.5-.4-23.3-1-35.8-1.3l-11.6-9.8-6.9.6-.1.2-.9 8.3h.1c.8.3 1.6.4 2.5.4 8.7 1.2 57.1 7.8 69.9 9.6 0 0 23.3 12.2 48.7 6.5 21.1-5.8 22.5-20.1 22.5-20.1l1-5.9c-1.8 5.3-7.1 13.2-22.7 15.9z"/></g><path fill="#F7BB26" d="M142.1 278.7c0 4.3-3.5 7.8-7.8 7.8s-7.8-3.5-7.8-7.8 3.5-7.8 7.8-7.8 7.8 3.5 7.8 7.8z"/><circle fill="#FFD47D" cx="134.3" cy="278.7" r="6.4"/><path fill="#289CC9" d="M195.6 269.5l-60.2-6.6-4 34.2 64.5-1.9z"/><path opacity=".1" d="M247.8 258.8l-10.8 9.3c-.1-.1-.2-.2-.3-.4l15.8-13.6c1.5-1.3 1.6-3.6.2-5.1-1.4-1.5-3.7-1.7-5.2-.4l-15.9 13.7c-.1-.1-.2-.2-.3-.4l-.1-.1 18.3-15.7c1.5-1.3 1.6-3.6.2-5.1-1.4-1.5-3.7-1.7-5.2-.4l-19.8 17-.6.6c-.3-.1-.5-.3-.6-.6l14.8-12.8c1.5-1.3 1.6-3.6.2-5.1-1.4-1.5-3.7-1.7-5.2-.4l-14.9 12.9c-.3.3-.6.6-.8 1l-1.2.9-7.4 6.4c-5.6 4.9-13.5 17.4-7.7 23.7s23 4.1 28.6-.8l7.4-6.4c.6-.5 1-1 1.4-1.5l13.8-11.9c1.4-1.2 1.5-3.4.2-4.8-1.4-1-3.5-1.2-4.9 0z"/><path fill="#FDDBA4" d="M229.5 285.6c-5.7 4.7-23 6.6-28.6.1s2.6-18.8 8.3-23.5l9.6-8.1c3-2.5 3.3-.1 5.7 2 1.1 1-4.2 5.5 3.5 3.7 1.6-.4 2.2 2.7 3.4 4.1.9 1.1 1.8 2.1 2.7 3 1.5 1.6 2.8 3.1 3.8 4.5 1.9 2.8 2.3 5.3-.9 7.9l-7.5 6.3z"/><path fill="#FDDBA4" d="M238.8 247c1.5-1.3 1.7-3.5.3-5.1-1.3-1.5-3.6-1.8-5.2-.5l-15.2 12.5c-1.5 1.3-1.7 3.5-.3 5.1 1.3 1.5 3.6 1.8 5.2.5l15.2-12.5zM249.9 248.4c1.5-1.3 1.7-3.5.3-5.1-1.3-1.5-3.6-1.8-5.2-.5l-20.2 16.5c-1.5 1.3-1.7 3.5-.3 5.1 1.3 1.5 3.6 1.8 5.2.5l20.2-16.5zM252.7 256.5c1.5-1.3 1.7-3.5.3-5.1-1.3-1.5-3.6-1.8-5.2-.5l-18.7 15.3c-1.5 1.3-1.7 3.5-.3 5.1 1.3 1.5 3.6 1.8 5.2.5l18.7-15.3zM252.4 266.3c1.4-1.2 1.6-3.3.3-4.8-1.3-1.4-3.4-1.7-4.9-.5l-14.7 12.1c-1.4 1.2-1.6 3.3-.3 4.8 1.3 1.4 3.4 1.7 4.9.5l14.7-12.1z"/><path opacity=".1" d="M234.8 242.3c-1.2.9-.8 2.2.2 3.4.9 1.2 2.1 1.9 3.3.9 1.2-.9 1.4-2.7.5-3.9-1.1-1.1-2.9-1.3-4-.4z"/><g opacity=".1"><path d="M230.1 246c-.1.1-.1.3 0 .4l3 3.8c.1.1.3.1.4 0 .1-.1.1-.3 0-.4l-3-3.8c-.2-.1-.3-.1-.4 0zM229.2 246.7c-.1.1-.1.3 0 .4l3 3.8c.1.1.3.1.4 0 .1-.1.1-.3 0-.4l-3-3.8c-.2-.1-.3-.1-.4 0zM228.2 247.6c-.1.1-.1.3 0 .4l3 3.8c.1.1.3.1.4 0 .1-.1.1-.3 0-.4l-3-3.8c-.2-.1-.3-.1-.4 0z"/></g><path opacity=".1" d="M245.4 244c-1.2.9-.8 2.2.2 3.4.9 1.2 2.1 1.9 3.3.9 1.2-.9 1.4-2.7.5-3.9-1-1.1-2.8-1.3-4-.4z"/><g opacity=".1"><path d="M240.8 247.7c-.1.1-.1.3 0 .4l3 3.8c.1.1.3.1.4 0 .1-.1.1-.3 0-.4l-3-3.8c-.2-.1-.3-.1-.4 0zM239.8 248.4c-.1.1-.1.3 0 .4l3 3.8c.1.1.3.1.4 0 .1-.1.1-.3 0-.4l-3-3.8c-.1 0-.2-.1-.4 0zM238.8 249.3c-.1.1-.1.3 0 .4l3 3.8c.1.1.3.1.4 0 .1-.1.1-.3 0-.4l-3-3.8c-.1-.1-.2-.1-.4 0z"/></g><path opacity=".1" d="M248.5 251.8c-1.2.9-.8 2.2.2 3.4.9 1.2 2.1 1.9 3.3.9 1.2-.9 1.4-2.7.5-3.9-1-1.1-2.8-1.3-4-.4z"/><g opacity=".1"><path d="M243.8 255.5c-.1.1-.1.3 0 .4l3 3.8c.1.1.3.1.4 0 .1-.1.1-.3 0-.4l-3-3.8c-.1-.1-.2-.1-.4 0zM242.9 256.2c-.1.1-.1.3 0 .4l3 3.8c.1.1.3.1.4 0 .1-.1.1-.3 0-.4l-3-3.8c-.1-.1-.3-.1-.4 0zM241.9 257.1c-.1.1-.1.3 0 .4l3 3.8c.1.1.3.1.4 0 .1-.1.1-.3 0-.4l-3-3.8c-.1-.1-.3-.1-.4 0z"/></g><path opacity=".1" d="M248.5 262c-1.1.9-.7 2 .1 3.1.8 1.1 1.9 1.7 2.9.9 1.1-.8 1.3-2.4.4-3.5-.7-1.1-2.3-1.3-3.4-.5z"/><g opacity=".1"><path d="M244.3 265.4c-.1.1-.1.2 0 .3l2.7 3.5c.1.1.2.1.3 0 .1-.1.1-.2 0-.3l-2.7-3.5c0-.1-.2-.1-.3 0zM243.5 266c-.1.1-.1.2 0 .3l2.7 3.5c.1.1.2.1.3 0 .1-.1.1-.2 0-.3l-2.7-3.5c-.1-.1-.2-.1-.3 0zM242.6 266.8c-.1.1-.1.2 0 .3l2.7 3.5c.1.1.2.1.3 0 .1-.1.1-.2 0-.3l-2.7-3.5c-.1-.1-.2-.1-.3 0z"/></g><path opacity=".2" fill="#201600" d="M250.7 267.3s-19.8 3.8-35.4 2.4c-15.6-1.3-15.4-1-19-.2-3.5.7 14.4 6.7 14.4 6.7l40-8.9z"/><path fill="#289CC9" d="M188.6 275.6l7-6.2s31.3 3.7 44.8-.2 32.6-2.7 32.6-2.7-32.5 32.8-44.2 32.8c-25.5.3-40.2-23.7-40.2-23.7z"/><path opacity=".3" fill="#201600" d="M141.5 293.1c0 1.7-1.4 3.1-3.1 3.1-1.7 0-3.1-1.4-3.1-3.1s1.4-3.1 3.1-3.1c1.8.1 3.1 1.4 3.1 3.1z"/><path fill="#238CAD" d="M131.4 297.1s37.5-2 48.6-.7c11.2 1.3 48.5 6.9 59.2 6.7 10.8-.2 22.9-4.3 26.7-7.2 3.7-2.8 1.9-5 3.7-8.6 1.9-3.6 5.2-4.9 5.7-10 .5-5.2 2.4-17.2 2.4-17.2s-1.4 19.9-3 28.4c0 0-1.7 10.2-19.7 16.5-14.4 5-42.6 1.7-69.7-2-27.2-3.6-53.9-5.9-53.9-5.9z"/><circle opacity=".3" fill="#201600" cx="147.5" cy="294.2" r="3.1"/><path opacity=".3" fill="#201600" d="M160.2 295.2c0 1.7-1.4 3.1-3.1 3.1s-3.1-1.4-3.1-3.1 1.4-3.1 3.1-3.1 3.1 1.4 3.1 3.1z"/><path fill="#48443E" d="M141.5 292.3c0 1.7-1.4 3.1-3.1 3.1-1.7 0-3.1-1.4-3.1-3.1s1.4-3.1 3.1-3.1c1.8 0 3.1 1.4 3.1 3.1z"/><circle fill="#48443E" cx="147.5" cy="293.3" r="3.1"/><path fill="#48443E" d="M160.2 294.3c0 1.7-1.4 3.1-3.1 3.1s-3.1-1.4-3.1-3.1 1.4-3.1 3.1-3.1 3.1 1.4 3.1 3.1z"/><path fill="#77513B" d="M129.3 169.4c0 18 32.3 36.7 46.2 36.7h.4c14.3 0 48-23.5 48-41.5v-19.5c0-12.4-18.4 12-43.3 12H177c-28 0-47.4-23-47.8-10.6l.1 22.9z"/><path fill="#FFF" d="M195.4 157.8c0 6.2-8.7 11.2-19.5 11.2s-19.5-5-19.5-11.2 8.7-.7 19.5-.7c10.7 0 19.5-5.5 19.5.7"/><path fill="#63402E" d="M182 145.4c-2.4 0-4.5.5-5.8 1.3-1.3-.8-3.2-1.3-5.6-1.3-25.7 10.3-41.6-11.3-41.6-11.3v1c0 23.1 29.2 24.9 43.2 22.7 1.5-.2 2.8-.8 3.8-1.6 1 .8 2.8 1.4 4.3 1.6 13.9 2.2 43.7.4 43.7-22.7v-1c-.1-.1-16.4 21.6-42 11.3z"/><path fill="#FF8080" d="M180.9 144.4c0 3-2.5 5.5-5.5 5.5h-.1c-3 0-5.5-2.5-5.5-5.5v-24.6c0-3 2.5-5.5 5.5-5.5h.1c3 0 5.5 2.5 5.5 5.5v24.6z"/><g><path fill="#EDEDED" d="M134.6 113.5c0 .6-1.3 1.1-3 1.1s-3.1-.4-3.1-1 1.4-1.1 3-1.1c1.7 0 3.1.4 3.1 1M222.5 113.5c0 .6-1.3 1.1-3 1.1s-3.1-.4-3.1-1 1.4-1.1 3-1.1c1.8 0 3.1.4 3.1 1"/><path fill="#073B44" d="M187.5 110.7c-3 .9-5.4 1.6-7.3 2-4.3 1-5.3 1-9.6 0-1.9-.5-4.4-1.1-7.3-2-8.1-2.4-24-2.5-36.5.4l.4 5.6s2.3-.8 3.5 6.5c1.2 7.4 2.2 17.7 19.2 17.9s20.5-15.2 21.4-17.4 1.2-3.9 2.2-4.3c1.3-.6 2.4-.6 3.7 0 1.1.5 1.3 2.1 2.2 4.3s4.4 17.6 21.4 17.4c16.9-.2 18-10.5 19.2-17.9 1.2-7.4 3.5-6.5 3.5-6.5l.4-5.6c-12.5-2.9-28.4-2.8-36.4-.4zm-58.7 3.1c0-.5 1.1-.9 2.5-.9 1.4-.1 2.5.2 2.5.6 0 .4-1.1.8-2.5.9-1.4.1-2.5-.2-2.5-.6zm37.8 12.7c-3.5 10.5-11.3 12.8-17.5 12.6-6-.2-10.3-1.9-13.3-7.3-2.2-3.8-3.4-9-1.7-13.8 1.2-3.5 4.5-5.1 8-5.9 5.2-1.1 15-.9 19.9 1.3 4 1.8 7.1 5.5 4.6 13.1zm48.3 5.3c-3 5.4-7.4 7.1-13.3 7.3-6.2.2-14-2.1-17.5-12.6-2.5-7.6.6-11.3 4.6-13.1 4.9-2.2 14.6-2.4 19.8-1.3 3.5.8 6.8 2.4 8.1 5.9 1.7 4.8.5 10-1.7 13.8zm4.5-17.4c-1.3-.1-2.4-.5-2.4-.9s1.1-.7 2.4-.6c1.3 0 2.4.4 2.5.9 0 .4-1.1.7-2.5.6z"/></g><path opacity=".2" fill="#201600" d="M124.1 267.9l-3.5-27.3s-1 38.2-2.7 49.6c0 0 3.8 1.8 3.8 1.3s-.9-21.9 2.4-22.3v-1.3z"/><path fill="#289CC9" d="M120.2 254.1s.7 20.5-2.3 36.1c0 0 9.4-.7 14.7-1l-4.7 15.2-35.9-6.2 13.1-43.5 15.1-.6z"/><path fill="#238CAD" d="M82.3 311.3s9.4 9.5 19.2 11.3 49.3 1.8 99.2-15l-4.9-.8s-44.1 12.9-67.9 13.7-37.1-7.4-48.4-20.7c.1.1 2.2 9.1 2.8 11.5z"/><path fill-opacity=".2" d="M188.6 65c-13.7-13.7 16.3-7.9 36.4 16.2 10.1 12.1 13.1 33.6 13.8 44.1 1.8 29-2.2 28.4 21.4 89.3 8 20.6 10.6 42.9 7.5 64.8-6 42.5-23.5 89.7-25.6 94.9-.1.2-.2.5-.2.8-.1 1-1.6 4.3-15 7.6-2.2.6-4.2-1.5-3.6-3.7 5.6-20.3 25.7-99.9 15.4-149.3-12-57.1-12.7-28.9-12.1-83.3.6-66.6-20.6-64-38-81.4z"/><path fill="#FFF" fill-opacity=".5" d="M112.7 331.4c3.8 1.7 7.9-1.5 7.2-5.5-5.5-31-9.3-68.4-3.5-96.3 4.1-19.6 6.9-29.1 8.7-35.4 1.2-4.2-.2-8.7-3.6-11.4h-.1c-5.6-4.5-14-2.1-16.4 4.6-4 11.4-9.7 26.2-17.7 46.2-7 20.2-2 52 5.4 80.2 1.5 5.6 5.1 10.3 10.2 13.1 3.2 1.7 6.6 3.1 9.8 4.5z"/><path fill="#1A6582" d="M114.7 101.7s3.4-19.3 26.1-34.4C163.5 52.2 186 57.1 186 57.1v8.5s-19.6-3.5-41.1 9.4c-18.5 11.1-24.3 32.1-24.1 32l-6.1-5.3z"/><g><ellipse transform="rotate(-23.96 126.598 45.908)" fill="#D18103" cx="126.6" cy="45.9" rx="45.2" ry="45.2"/><ellipse transform="rotate(-23.96 124.814 45.22)" fill="#FF9D03" cx="124.8" cy="45.2" rx="45.2" ry="45.2"/><ellipse transform="rotate(-23.96 124.816 45.22)" fill="#FFB138" cx="124.8" cy="45.2" rx="41.3" ry="41.3"/><path opacity=".4" d="M89.9 63.2c-9.3-20.9.1-45.4 21-54.7 9.9-4.4 20.7-4.6 30.2-1.4-10.2-4.4-22.1-4.6-33.1.2C87.1 16.6 77.7 41.1 87 62c4.9 11 14 18.8 24.5 22.4-9.3-3.9-17.2-11.3-21.6-21.2z"/><path fill="#FFF" d="M133.8 48.6l-10.3 4.6 1.6 3.6 15.2-6.7c.5-.2 1.2-.1 1.5.6l1.7 3.9c.2.5.1 1.2-.6 1.5l-15.2 6.7 2.6 5.8c.2.5.1 1.2-.6 1.5l-4.9 2.2c-.5.2-1.2.1-1.5-.6l-2.6-5.8-6.7 3c-.5.2-1.2.1-1.5-.6l-1.7-3.9c-.2-.5-.1-1.2.6-1.5l6.8-3-1.6-3.6-6.8 3c-.5.2-1.2.1-1.5-.6l-2-4.5c-.2-.5-.1-1.2.6-1.5l6.8-3-8.4-18.9c-.2-.5-.1-1.2.6-1.5l16.2-7.2c8.1-3.6 16-.7 19.4 7 3.5 7.8.4 15.9-7.7 19.5zM124.3 29l-9.6 4.3 6 13.5 9.6-4.3c4.2-1.9 5.9-5.8 4-9.9-1.8-4.2-5.7-5.5-10-3.6z"/><path opacity=".1" fill="#FFF" d="M141.3 7.4c-10.2-4.5-22.3-4.8-33.3.1C87.2 16.8 77.8 41.2 87 62c4.6 10.3 12.9 17.8 22.6 21.6 0 0-12.8-24.9-1.7-47.2 10.1-20.2 33.4-29 33.4-29z"/></g><path fill="#289CC9" d="M128 108.9s4.4-6.8 27.1-21.9C177.7 71.9 186 71 186 71v-5.4s-19.6-3.5-41.1 9.4c-18.5 11.1-24.3 32.1-24.1 32l7.2 1.9z"/><g><ellipse transform="rotate(-53.066 29.106 74.548)" fill="#D18103" cx="29.1" cy="74.5" rx="28.9" ry="28.9"/><ellipse transform="rotate(-53.066 28.935 73.336)" fill="#FF9D03" cx="28.9" cy="73.3" rx="28.9" ry="28.9"/><ellipse transform="rotate(-53.066 28.936 73.336)" fill="#FFB138" cx="28.9" cy="73.3" rx="26.4" ry="26.4"/><path opacity=".4" d="M8 59.4c8.8-11.7 25.4-14.1 37.2-5.3 5.6 4.2 9 10.1 10.2 16.5-.7-7.1-4.3-13.9-10.4-18.5-11.7-8.8-28.3-6.4-37.2 5.3-4.7 6.1-6.2 13.6-5 20.7-.6-6.5 1-13.1 5.2-18.7z"/><path fill="#FFF" d="M29.8 79.4L24 75.1l-1.5 2 8.5 6.4c.3.2.4.6.1 1l-1.6 2.2c-.2.3-.6.4-1 .1L20 80.4l-2.4 3.2c-.2.3-.6.4-1 .1l-2.7-2.1c-.3-.2-.4-.6-.1-1l2.4-3.2-3.7-2.8c-.3-.2-.4-.6-.1-1l1.6-2.2c.2-.3.6-.4 1-.1l3.8 2.9 1.5-2-3.8-2.9c-.3-.2-.4-.6-.1-1l1.9-2.5c.2-.3.6-.4 1-.1l3.8 2.9L31 58c.2-.3.6-.4 1-.1l9.1 6.8c4.5 3.4 5.4 8.7 2.1 13.1-3.3 4.3-8.8 5-13.4 1.6zM37.9 68l-5.4-4-5.7 7.5 5.4 4.1c2.4 1.8 5.1 1.5 6.8-.8 1.7-2.4 1.2-5-1.1-6.8z"/><path opacity=".1" fill="#FFF" d="M55.2 70.8c-.7-7.1-4.3-13.9-10.4-18.6-11.7-8.8-28.2-6.4-37 5.2-4.3 5.8-5.9 12.7-5.1 19.4 0 0 9.9-14.9 25.9-15.6 14.4-.7 26.6 9.6 26.6 9.6z"/></g></svg>