<svg xmlns="http://www.w3.org/2000/svg" width="115" height="105" viewBox="0 0 115 105"><title>посадочная для ROBO SSL</title><ellipse cx="71.247" cy="96.5" rx="42.134" ry="8.5" opacity="0.1"/><path d="M113.4,36.6c0-9.685-1.718-17.685-4.748-24.178-1.722.134-3.475.21-5.259.21C88.724,12.631,75.859,7.982,68.656,1c-7.2,6.982-20.066,11.631-34.742,11.631-1.784,0-3.537-.076-5.259-.21-3.033,6.493-4.748,14.493-4.748,24.178,0,33.179,27.212,62.431,44.749,62.431C87.429,99.03,113.4,69.777,113.4,36.6Z" fill="#06b57e"/><path d="M53.622,44.631H83.689A2.907,2.907,0,0,1,86.6,47.538v25.7a2.908,2.908,0,0,1-2.908,2.908H53.621a2.907,2.907,0,0,1-2.907-2.907v-25.7A2.908,2.908,0,0,1,53.622,44.631Z" fill="#fff"/><path d="M68.655,74.389A13.593,13.593,0,0,1,55.075,60.815V34.995a13.579,13.579,0,0,1,27.159,0V60.815A13.593,13.593,0,0,1,68.655,74.389Zm0-47.152a7.77,7.77,0,0,0-7.761,7.757V60.815a7.76,7.76,0,0,0,15.52,0V34.995A7.768,7.768,0,0,0,68.655,27.237Z" fill="#fff"/><path d="M73.161,56.635a4.5,4.5,0,1,1-4.5-4.5A4.511,4.511,0,0,1,73.161,56.635Z" fill="#06b57e"/><path d="M70.9,68.082a2.249,2.249,0,0,1-2.253,2.247h0A2.249,2.249,0,0,1,66.4,68.082V55.513a2.249,2.249,0,0,1,2.251-2.253h0A2.249,2.249,0,0,1,70.9,55.513Z" fill="#06b57e"/><path d="M108.631,12.421c-1.722.134-3.475.21-5.259.21-14.592,0-27.388-4.6-34.615-11.513v97.9c19.056,0,44.623-29.395,44.623-62.419C113.381,26.913,111.662,18.913,108.631,12.421Z" fill="#010000" opacity="0.1"/><path d="M1.533,43.2l14.9,17.176a2.705,2.705,0,0,0,3.817.272l30.78-26.693a2.694,2.694,0,0,0,.761-1.09,2.154,2.154,0,0,0,.33-.988L53.3,15.211a2.171,2.171,0,0,0-2.01-2.318L34.63,11.709a2.161,2.161,0,0,0-1.879.851c-.056.042-.112.083-.165.129L1.806,39.382A2.708,2.708,0,0,0,1.533,43.2ZM43.185,22.1a3.461,3.461,0,1,1,4.882.347A3.46,3.46,0,0,1,43.185,22.1Z" fill="#464646" opacity="0.2" style="isolation:isolate"/><path d="M.661,42.328,15.558,59.5a2.705,2.705,0,0,0,3.817.272l30.78-26.693a2.694,2.694,0,0,0,.761-1.09,2.146,2.146,0,0,0,.33-.988l1.186-16.666a2.171,2.171,0,0,0-2.01-2.318L33.758,10.837a2.161,2.161,0,0,0-1.879.851c-.056.042-.112.083-.165.129L.934,38.509A2.708,2.708,0,0,0,.661,42.328Zm41.651-21.1a3.461,3.461,0,1,1,4.882.347A3.46,3.46,0,0,1,42.312,21.23Z" fill="#ff3e3e"/><g opacity="0.2"><rect x="29.683" y="13.343" width="0.788" height="1.182" transform="translate(-1.789 23.063) rotate(-40.844)"/><path d="M44.008,30.6l.6-.516,1.538,1.774-.6.514Zm-3.076-3.548.6-.516,1.538,1.774-.6.516Zm-3.075-3.547.6-.516,1.538,1.774-.595.516ZM34.78,19.961l.6-.516,1.538,1.774-.6.516ZM31.7,16.414,32.3,15.9l1.539,1.774-.6.516Z"/><polygon points="47.859 35.042 48.454 34.526 47.679 33.634 47.084 34.149 47.859 35.042"/></g><path d="M.934,38.509s31.2-3.146,48.466-4.771L19.375,59.776a2.705,2.705,0,0,1-3.817-.272L.661,42.328A2.708,2.708,0,0,1,.934,38.509Z" fill="#464646" opacity="0.1" style="isolation:isolate"/><path d="M15.7,50.9,9.629,43.912l4.943-4.293,1.137,1.309-3.456,3,1.282,1.477,3.383-2.938,1.137,1.309-3.383,2.938,2.51,2.891Z" fill="#fff"/><path d="M25.624,42.276,22.1,40.985l-1.089.946,2.156,2.482L21.676,45.7l-6.067-6.986,3.268-2.838a2.882,2.882,0,0,1,4.3.214,2.656,2.656,0,0,1,.272,3.4l3.881,1.3ZM21.66,37.415a1.256,1.256,0,0,0-1.866-.033l-1.561,1.355,1.637,1.885,1.561-1.355A1.256,1.256,0,0,0,21.66,37.415Z" fill="#fff"/><path d="M28.409,39.857l-6.067-6.986,4.943-4.293,1.137,1.309-3.456,3,1.282,1.477,3.383-2.938,1.137,1.309-3.383,2.938,1.373,1.582,3.456-3,1.137,1.309Z" fill="#fff"/><path d="M34.514,34.555l-6.067-6.986,4.943-4.293,1.137,1.309-3.456,3,1.282,1.477,3.383-2.938,1.137,1.309-3.383,2.938,1.373,1.581,3.456-3,1.137,1.309Z" fill="#fff"/><path d="M59.314,7.625C57.892,8.338,56.4,9,54.837,9.609a43.323,43.323,0,0,0-3.43,2.7,4.6,4.6,0,0,1,.378.332l.23.3a44,44,0,0,1,5.32-3.975c.67-.43,1.342-.825,2.011-1.206C59.338,7.715,59.321,7.671,59.314,7.625Z" fill="#464646" opacity="0.2" style="isolation:isolate"/><path d="M73.834,4.206A2.573,2.573,0,0,0,72.472,3.2c-.032.342-.063.624-.109.888a1.631,1.631,0,0,1,.737.591c1.266,1.982-2.658,7.479-10.519,12.5-5,3.2-10.1,5.183-13.311,5.183a2.905,2.905,0,0,1-2.452-.89c-.556-.872-.109-2.4,1.218-4.273a5.709,5.709,0,0,0-.745-.458c-1.535,2.188-1.968,4.011-1.208,5.2.548.859,1.62,1.293,3.186,1.293,3.365,0,8.646-2.038,13.781-5.32C70.832,12.94,75.569,6.919,73.834,4.206Z" fill="#464646" opacity="0.2" style="isolation:isolate"/><path d="M56.463,8.1A38.789,38.789,0,0,1,65.855,3.6c.455-.361,1.2-.954,1.612-1.292A35.819,35.819,0,0,0,55.993,7.359a44.359,44.359,0,0,0-6.049,4.6c.455.077.88.167,1.078.211A44.015,44.015,0,0,1,56.463,8.1Z" fill="#6b6b6b"/><path d="M72.961,3.333c-.548-.858-1.621-1.294-3.187-1.294,0,0,.806.625,1.322,1.031a1.875,1.875,0,0,1,1.131.733c1.266,1.982-2.658,7.479-10.519,12.5-5,3.2-10.1,5.183-13.312,5.183a2.906,2.906,0,0,1-2.452-.89c-.556-.872-.109-2.4,1.218-4.273a5.709,5.709,0,0,0-.745-.458c-1.535,2.188-1.968,4.011-1.208,5.2.548.859,1.62,1.293,3.186,1.293,3.365,0,8.646-2.038,13.782-5.32C69.959,12.067,74.7,6.047,72.961,3.333Z" fill="#6b6b6b"/></svg>