<svg xmlns="http://www.w3.org/2000/svg" width="130" height="105" viewBox="0 0 130 105"><title>посадочная для ROBO VPS</title><ellipse cx="66.106" cy="96.14" rx="53.919" ry="8.86" opacity="0.1"/><path d="M25.2,64.1H18.6A12.371,12.371,0,0,1,6.245,51.745V29.793A12.369,12.369,0,0,1,18.6,17.44h6.6A12.369,12.369,0,0,1,37.559,29.793V51.745A12.371,12.371,0,0,1,25.2,64.1ZM18.6,21.329a8.476,8.476,0,0,0-8.468,8.464V51.745A8.475,8.475,0,0,0,18.6,60.207h6.6a8.473,8.473,0,0,0,8.468-8.462V29.793A8.475,8.475,0,0,0,25.2,21.329Z" fill="#0298bf"/><path d="M10.135,33.885v3.363s-3.564,1.259-3.793,2.414,0-4.495,0-4.495Z" opacity="0.1"/><path d="M16.03,63.826s-4.14-1.511-5.223-2.5V55.157s1.925,4.011,5.223,4.651" opacity="0.1"/><path d="M18.956,92.01H12.363A12.372,12.372,0,0,1,0,79.661V43.819A12.371,12.371,0,0,1,12.363,31.468h6.592A12.369,12.369,0,0,1,31.316,43.819V79.661A12.37,12.37,0,0,1,18.956,92.01ZM12.363,35.358a8.473,8.473,0,0,0-8.47,8.461V79.661a8.477,8.477,0,0,0,8.47,8.463h6.592a8.477,8.477,0,0,0,8.47-8.463V43.819a8.473,8.473,0,0,0-8.47-8.461Z" fill="#ff9b48"/><path d="M29.646,78.632h-13.4a4.727,4.727,0,0,1-4.724-4.723V51.083a4.727,4.727,0,0,1,4.724-4.721h13.4a4.729,4.729,0,0,1,4.724,4.721V73.909A4.729,4.729,0,0,1,29.646,78.632Zm-13.4-28.381a.833.833,0,0,0-.834.832V73.909a.834.834,0,0,0,.834.834h13.4a.836.836,0,0,0,.834-.834V51.083a.835.835,0,0,0-.834-.832Z" fill="#6fbc73"/><path d="M19.64,15.079h4.49A2.321,2.321,0,0,1,26.451,17.4v4.182A2.322,2.322,0,0,1,24.129,23.9H19.64a2.321,2.321,0,0,1-2.321-2.321V17.4A2.321,2.321,0,0,1,19.64,15.079Z" fill="#cecece"/><path d="M17.34,21.8a2.315,2.315,0,0,0,2.3,2.1h4.49a2.313,2.313,0,0,0,2.3-2.1Z" opacity="0.1"/><rect x="17.319" y="17.401" width="9.132" height="1.314" fill="#fff" opacity="0.3"/><rect x="20.067" y="15.079" width="2.55" height="9.03" opacity="0.1"/><path d="M19.64,29.473h4.49a2.321,2.321,0,0,1,2.321,2.321v4.181A2.322,2.322,0,0,1,24.129,38.3H19.64a2.321,2.321,0,0,1-2.321-2.321V31.794A2.321,2.321,0,0,1,19.64,29.473Z" fill="#cecece"/><path d="M17.34,36.2a2.314,2.314,0,0,0,2.3,2.1h4.49a2.312,2.312,0,0,0,2.3-2.1Z" opacity="0.1"/><rect x="17.319" y="31.795" width="9.132" height="1.316" fill="#fff" opacity="0.3"/><rect x="20.067" y="29.473" width="2.55" height="9.033" opacity="0.1"/><path d="M19.64,43.8h4.49a2.321,2.321,0,0,1,2.321,2.321V50.3a2.322,2.322,0,0,1-2.322,2.322H19.64A2.321,2.321,0,0,1,17.319,50.3V46.121A2.321,2.321,0,0,1,19.64,43.8Z" fill="#cecece"/><path d="M17.34,50.524a2.314,2.314,0,0,0,2.3,2.1h4.49a2.312,2.312,0,0,0,2.3-2.1Z" opacity="0.1"/><rect x="17.319" y="46.122" width="9.132" height="1.316" fill="#fff" opacity="0.3"/><rect x="20.067" y="43.8" width="2.55" height="9.03" opacity="0.1"/><path d="M19.638,57.359H24.13a2.321,2.321,0,0,1,2.321,2.321v4.184a2.318,2.318,0,0,1-2.318,2.318h-4.5a2.318,2.318,0,0,1-2.318-2.318V59.678a2.319,2.319,0,0,1,2.319-2.319Z" fill="#cecece"/><path d="M17.34,64.083a2.314,2.314,0,0,0,2.3,2.1h4.49a2.312,2.312,0,0,0,2.3-2.1Z" opacity="0.1"/><rect x="17.319" y="59.677" width="9.132" height="1.316" fill="#fff" opacity="0.3"/><rect x="20.067" y="57.359" width="2.55" height="9.029" opacity="0.1"/><path d="M19.64,72.173h4.49a2.321,2.321,0,0,1,2.321,2.321v4.179A2.322,2.322,0,0,1,24.129,81H19.64a2.321,2.321,0,0,1-2.321-2.321v-4.18A2.321,2.321,0,0,1,19.64,72.173Z" fill="#cecece"/><path d="M17.34,78.9a2.314,2.314,0,0,0,2.3,2.1h4.49a2.312,2.312,0,0,0,2.3-2.1Z" opacity="0.1"/><rect x="17.319" y="74.495" width="9.132" height="1.314" fill="#fff" opacity="0.3"/><rect x="20.067" y="72.173" width="2.55" height="9.029" opacity="0.1"/><path d="M19.638,86.307H24.13a2.321,2.321,0,0,1,2.321,2.321V92.81a2.322,2.322,0,0,1-2.322,2.322H19.64a2.321,2.321,0,0,1-2.321-2.321V88.627A2.319,2.319,0,0,1,19.638,86.307Z" fill="#cecece"/><path d="M17.34,93.031a2.314,2.314,0,0,0,2.3,2.1h4.49a2.312,2.312,0,0,0,2.3-2.1Z" opacity="0.1"/><rect x="17.319" y="88.629" width="9.132" height="1.316" fill="#fff" opacity="0.3"/><rect x="20.067" y="86.307" width="2.55" height="9.032" opacity="0.1"/><path d="M104.807,46.321H111.4A12.371,12.371,0,0,1,123.76,58.674V80.628A12.369,12.369,0,0,1,111.4,92.977h-6.595a12.37,12.37,0,0,1-12.363-12.35V58.674A12.372,12.372,0,0,1,104.807,46.321ZM111.4,89.089a8.473,8.473,0,0,0,8.465-8.462V58.674A8.474,8.474,0,0,0,111.4,50.21h-6.595a8.479,8.479,0,0,0-8.473,8.464V80.628a8.478,8.478,0,0,0,8.473,8.462Z" fill="#0298bf"/><path d="M119.867,76.53V73.174s3.569-1.26,3.793-2.418,0,4.493,0,4.493Z" opacity="0.1"/><path d="M113.973,46.592s4.14,1.509,5.223,2.506v6.164s-1.925-4.014-5.223-4.654" opacity="0.1"/><path d="M111.05,18.408h6.595A12.37,12.37,0,0,1,130,30.759V66.6a12.371,12.371,0,0,1-12.356,12.352H111.05A12.372,12.372,0,0,1,98.686,66.6V30.759A12.371,12.371,0,0,1,111.05,18.408Zm6.595,56.654A8.474,8.474,0,0,0,126.11,66.6V30.759a8.473,8.473,0,0,0-8.465-8.462H111.05a8.474,8.474,0,0,0-8.47,8.462V66.6a8.475,8.475,0,0,0,8.47,8.463Z" fill="#ff9b48"/><path d="M100.356,31.787h13.4a4.726,4.726,0,0,1,4.724,4.721V59.333a4.727,4.727,0,0,1-4.724,4.723h-13.4a4.727,4.727,0,0,1-4.722-4.723V36.508A4.725,4.725,0,0,1,100.356,31.787Zm13.4,28.381a.834.834,0,0,0,.834-.836V36.508a.831.831,0,0,0-.834-.832h-13.4a.831.831,0,0,0-.831.832V59.333a.833.833,0,0,0,.831.836Z" fill="#6fbc73"/><path d="M103.549,88.835a2.322,2.322,0,0,1,2.326-2.319h4.487a2.319,2.319,0,0,1,2.323,2.319v4.182a2.322,2.322,0,0,1-2.323,2.322h-4.487a2.324,2.324,0,0,1-2.326-2.322Z" fill="#cecece"/><path d="M112.663,88.616a2.309,2.309,0,0,0-2.3-2.1h-4.487a2.313,2.313,0,0,0-2.3,2.1Z" opacity="0.1"/><rect x="103.549" y="91.702" width="9.137" height="1.315" fill="#fff" opacity="0.3"/><rect x="107.386" y="86.31" width="2.55" height="9.029" opacity="0.1"/><path d="M105.87,72.122h4.493a2.323,2.323,0,0,1,2.323,2.323v4.177a2.323,2.323,0,0,1-2.323,2.323H105.87a2.321,2.321,0,0,1-2.321-2.321V74.442A2.321,2.321,0,0,1,105.87,72.122Z" fill="#cecece"/><path d="M112.663,74.225a2.311,2.311,0,0,0-2.3-2.1h-4.487a2.315,2.315,0,0,0-2.3,2.1Z" opacity="0.1"/><rect x="103.549" y="77.309" width="9.137" height="1.315" fill="#fff" opacity="0.3"/><rect x="107.386" y="71.914" width="2.55" height="9.032" opacity="0.1"/><path d="M103.549,60.114a2.323,2.323,0,0,1,2.326-2.319h4.487a2.32,2.32,0,0,1,2.323,2.319V64.3a2.32,2.32,0,0,1-2.323,2.319h-4.487a2.323,2.323,0,0,1-2.326-2.319Z" fill="#cecece"/><path d="M112.663,59.9a2.31,2.31,0,0,0-2.3-2.1h-4.487a2.314,2.314,0,0,0-2.3,2.1Z" opacity="0.1"/><rect x="103.549" y="62.982" width="9.137" height="1.315" fill="#fff" opacity="0.3"/><rect x="107.386" y="57.587" width="2.55" height="9.03" opacity="0.1"/><path d="M103.549,46.557a2.323,2.323,0,0,1,2.326-2.322h4.487a2.321,2.321,0,0,1,2.323,2.322v4.182a2.32,2.32,0,0,1-2.323,2.319h-4.487a2.322,2.322,0,0,1-2.326-2.319Z" fill="#cecece"/><path d="M112.663,46.338a2.312,2.312,0,0,0-2.3-2.1h-4.487a2.316,2.316,0,0,0-2.3,2.1Z" opacity="0.1"/><rect x="103.549" y="49.423" width="9.137" height="1.316" fill="#fff" opacity="0.3"/><rect x="107.386" y="44.031" width="2.55" height="9.028" opacity="0.1"/><path d="M103.549,31.742a2.324,2.324,0,0,1,2.326-2.321h4.487a2.321,2.321,0,0,1,2.323,2.321v4.185a2.321,2.321,0,0,1-2.323,2.319h-4.487a2.323,2.323,0,0,1-2.326-2.319Z" fill="#cecece"/><path d="M112.663,31.524a2.311,2.311,0,0,0-2.3-2.1h-4.487a2.315,2.315,0,0,0-2.3,2.1Z" opacity="0.1"/><rect x="103.549" y="34.61" width="9.137" height="1.316" fill="#fff" opacity="0.3"/><rect x="107.386" y="29.216" width="2.55" height="9.03" opacity="0.1"/><path d="M103.549,17.605a2.325,2.325,0,0,1,2.326-2.321h4.487a2.323,2.323,0,0,1,2.323,2.321v4.183a2.321,2.321,0,0,1-2.323,2.321h-4.487a2.324,2.324,0,0,1-2.326-2.321Z" fill="#cecece"/><path d="M112.663,17.387a2.313,2.313,0,0,0-2.3-2.1h-4.487a2.317,2.317,0,0,0-2.3,2.1Z" opacity="0.1"/><rect x="103.549" y="20.476" width="9.137" height="1.313" fill="#fff" opacity="0.3"/><rect x="107.386" y="15.079" width="2.55" height="9.03" opacity="0.1"/><rect x="23.305" y="78.87" width="8.704" height="8.656" transform="translate(-58.583 67.403) rotate(-61.233)" fill="#5e5e5e"/><rect x="23.305" y="64.485" width="8.704" height="8.657" transform="translate(-45.975 59.951) rotate(-61.241)" fill="#5e5e5e"/><rect x="23.305" y="50.229" width="8.703" height="8.656" transform="translate(-33.477 52.545) rotate(-61.233)" fill="#5e5e5e"/><rect x="23.305" y="36.111" width="8.704" height="8.657" transform="translate(-21.101 45.222) rotate(-61.233)" fill="#5e5e5e"/><rect x="23.305" y="21.927" width="8.704" height="8.657" transform="translate(-8.667 37.866) rotate(-61.238)" fill="#5e5e5e"/><rect x="99.018" y="21.903" width="8.655" height="8.703" transform="translate(0.121 52.982) rotate(-28.771)" fill="#5e5e5e"/><rect x="99.018" y="36.286" width="8.656" height="8.706" transform="translate(-6.803 54.75) rotate(-28.767)" fill="#5e5e5e"/><rect x="99.018" y="50.544" width="8.655" height="8.704" transform="translate(-13.664 56.509) rotate(-28.767)" fill="#5e5e5e"/><rect x="99.018" y="64.661" width="8.655" height="8.705" transform="translate(-20.458 58.252) rotate(-28.767)" fill="#5e5e5e"/><rect x="99.018" y="78.845" width="8.655" height="8.704" transform="translate(-27.284 60.002) rotate(-28.767)" fill="#5e5e5e"/><rect x="27.009" y="24.109" width="72.379" height="64.517" fill="#5e5e5e"/><path d="M23.95,12.793h83.1a2.779,2.779,0,0,1,2.779,2.779v7.5a2.777,2.777,0,0,1-2.777,2.777H23.95a2.776,2.776,0,0,1-2.776-2.776v-7.5a2.776,2.776,0,0,1,2.776-2.776Z" fill="#3a383a"/><circle cx="66.094" cy="16.03" r="0.604" fill="#fff"/><circle cx="68.286" cy="16.03" r="0.604" fill="#fff"/><circle cx="70.48" cy="16.03" r="0.603" fill="#fff"/><circle cx="72.675" cy="16.03" r="0.604" fill="#fff"/><circle cx="74.87" cy="16.03" r="0.604" fill="#fff"/><circle cx="77.064" cy="16.03" r="0.603" fill="#fff"/><circle cx="79.257" cy="16.03" r="0.604" fill="#fff"/><circle cx="81.452" cy="16.03" r="0.604" fill="#fff"/><circle cx="83.646" cy="16.03" r="0.603" fill="#fff"/><circle cx="85.84" cy="16.03" r="0.603" fill="#fff"/><circle cx="88.033" cy="16.03" r="0.603" fill="#fff"/><circle cx="90.228" cy="16.03" r="0.603" fill="#fff"/><circle cx="92.421" cy="16.03" r="0.603" fill="#fff"/><circle cx="94.616" cy="16.03" r="0.603" fill="#fff"/><circle cx="96.812" cy="16.03" r="0.604" fill="#fff"/><circle cx="99.005" cy="16.03" r="0.603" fill="#fff"/><circle cx="101.2" cy="16.03" r="0.604" fill="#fff"/><circle cx="103.393" cy="16.03" r="0.603" fill="#fff"/><circle cx="105.587" cy="16.03" r="0.603" fill="#fff"/><circle cx="64.886" cy="17.674" r="0.603" fill="#fff"/><circle cx="67.078" cy="17.674" r="0.603" fill="#fff"/><circle cx="69.274" cy="17.674" r="0.602" fill="#fff"/><circle cx="71.467" cy="17.674" r="0.603" fill="#fff"/><circle cx="73.663" cy="17.674" r="0.603" fill="#fff"/><circle cx="75.856" cy="17.674" r="0.603" fill="#fff"/><circle cx="78.049" cy="17.674" r="0.602" fill="#fff"/><circle cx="80.245" cy="17.674" r="0.602" fill="#fff"/><circle cx="82.439" cy="17.674" r="0.602" fill="#fff"/><circle cx="84.633" cy="17.674" r="0.603" fill="#fff"/><circle cx="86.827" cy="17.674" r="0.602" fill="#fff"/><circle cx="89.02" cy="17.674" r="0.603" fill="#fff"/><circle cx="91.216" cy="17.674" r="0.603" fill="#fff"/><circle cx="93.41" cy="17.674" r="0.603" fill="#fff"/><circle cx="95.604" cy="17.674" r="0.605" fill="#fff"/><circle cx="97.799" cy="17.674" r="0.602" fill="#fff"/><circle cx="99.991" cy="17.674" r="0.603" fill="#fff"/><circle cx="102.187" cy="17.674" r="0.602" fill="#fff"/><circle cx="104.381" cy="17.674" r="0.603" fill="#fff"/><circle cx="66.094" cy="19.318" r="0.604" fill="#fff"/><circle cx="68.286" cy="19.318" r="0.604" fill="#fff"/><circle cx="70.48" cy="19.318" r="0.603" fill="#fff"/><circle cx="72.675" cy="19.318" r="0.604" fill="#fff"/><circle cx="74.87" cy="19.318" r="0.604" fill="#fff"/><circle cx="77.064" cy="19.318" r="0.603" fill="#fff"/><circle cx="79.257" cy="19.318" r="0.604" fill="#fff"/><circle cx="81.452" cy="19.318" r="0.604" fill="#fff"/><circle cx="83.646" cy="19.318" r="0.603" fill="#fff"/><circle cx="85.84" cy="19.318" r="0.603" fill="#fff"/><circle cx="88.033" cy="19.318" r="0.603" fill="#fff"/><circle cx="90.228" cy="19.318" r="0.603" fill="#fff"/><circle cx="92.421" cy="19.318" r="0.603" fill="#fff"/><circle cx="94.616" cy="19.318" r="0.603" fill="#fff"/><circle cx="96.812" cy="19.318" r="0.604" fill="#fff"/><circle cx="99.005" cy="19.318" r="0.603" fill="#fff"/><circle cx="101.2" cy="19.318" r="0.604" fill="#fff"/><circle cx="103.393" cy="19.318" r="0.603" fill="#fff"/><circle cx="105.587" cy="19.318" r="0.603" fill="#fff"/><circle cx="66.094" cy="22.607" r="0.604" fill="#fff"/><circle cx="68.286" cy="22.607" r="0.604" fill="#fff"/><circle cx="70.48" cy="22.607" r="0.603" fill="#fff"/><circle cx="72.675" cy="22.607" r="0.604" fill="#fff"/><circle cx="74.87" cy="22.607" r="0.604" fill="#fff"/><circle cx="77.064" cy="22.607" r="0.603" fill="#fff"/><circle cx="79.257" cy="22.607" r="0.604" fill="#fff"/><circle cx="81.452" cy="22.607" r="0.604" fill="#fff"/><circle cx="83.646" cy="22.607" r="0.603" fill="#fff"/><circle cx="85.84" cy="22.607" r="0.603" fill="#fff"/><circle cx="88.033" cy="22.607" r="0.603" fill="#fff"/><circle cx="90.228" cy="22.607" r="0.603" fill="#fff"/><circle cx="92.421" cy="22.607" r="0.603" fill="#fff"/><circle cx="94.616" cy="22.607" r="0.603" fill="#fff"/><circle cx="96.812" cy="22.607" r="0.604" fill="#fff"/><circle cx="99.005" cy="22.607" r="0.603" fill="#fff"/><circle cx="101.2" cy="22.607" r="0.604" fill="#fff"/><circle cx="103.393" cy="22.607" r="0.603" fill="#fff"/><circle cx="105.587" cy="22.607" r="0.603" fill="#fff"/><circle cx="64.886" cy="20.964" r="0.603" fill="#fff"/><circle cx="106.794" cy="17.674" r="0.605" fill="#fff"/><circle cx="106.794" cy="20.964" r="0.604" fill="#fff"/><circle cx="67.078" cy="20.964" r="0.603" fill="#fff"/><circle cx="69.274" cy="20.964" r="0.603" fill="#fff"/><circle cx="71.467" cy="20.964" r="0.603" fill="#fff"/><circle cx="73.663" cy="20.964" r="0.603" fill="#fff"/><circle cx="75.856" cy="20.964" r="0.603" fill="#fff"/><circle cx="78.049" cy="20.964" r="0.603" fill="#fff"/><circle cx="80.245" cy="20.964" r="0.603" fill="#fff"/><circle cx="82.439" cy="20.964" r="0.603" fill="#fff"/><circle cx="84.633" cy="20.964" r="0.603" fill="#fff"/><circle cx="86.827" cy="20.964" r="0.603" fill="#fff"/><circle cx="89.02" cy="20.964" r="0.603" fill="#fff"/><circle cx="91.216" cy="20.964" r="0.603" fill="#fff"/><circle cx="93.41" cy="20.964" r="0.603" fill="#fff"/><circle cx="95.604" cy="20.964" r="0.604" fill="#fff"/><circle cx="97.799" cy="20.964" r="0.603" fill="#fff"/><circle cx="99.991" cy="20.964" r="0.603" fill="#fff"/><circle cx="102.187" cy="20.964" r="0.602" fill="#fff"/><circle cx="104.381" cy="20.964" r="0.603" fill="#fff"/><rect x="39.239" y="16.349" width="21.539" height="1.041" fill="#fff"/><rect x="39.239" y="18.829" width="21.539" height="1.04" fill="#fff"/><rect x="39.239" y="21.25" width="21.539" height="1.039" fill="#fff"/><ellipse cx="30.136" cy="19.319" rx="4.17" ry="4.165" fill="#eb6159"/><circle cx="30.135" cy="19.318" r="3.126" fill="#3a383a"/><path d="M23.95,27h83.1a2.779,2.779,0,0,1,2.779,2.779v7.5a2.778,2.778,0,0,1-2.778,2.778H23.95a2.776,2.776,0,0,1-2.776-2.776v-7.5A2.776,2.776,0,0,1,23.95,27Z" fill="#3a383a"/><circle cx="66.094" cy="30.236" r="0.604" fill="#fff"/><circle cx="68.286" cy="30.236" r="0.604" fill="#fff"/><circle cx="70.48" cy="30.236" r="0.603" fill="#fff"/><circle cx="72.675" cy="30.236" r="0.604" fill="#fff"/><circle cx="74.87" cy="30.236" r="0.604" fill="#fff"/><circle cx="77.064" cy="30.236" r="0.603" fill="#fff"/><circle cx="79.257" cy="30.236" r="0.604" fill="#fff"/><circle cx="81.452" cy="30.236" r="0.604" fill="#fff"/><circle cx="83.646" cy="30.236" r="0.603" fill="#fff"/><circle cx="85.84" cy="30.236" r="0.603" fill="#fff"/><circle cx="88.033" cy="30.236" r="0.603" fill="#fff"/><circle cx="90.228" cy="30.236" r="0.603" fill="#fff"/><circle cx="92.421" cy="30.236" r="0.603" fill="#fff"/><circle cx="94.616" cy="30.236" r="0.603" fill="#fff"/><circle cx="96.812" cy="30.236" r="0.603" fill="#fff"/><circle cx="99.005" cy="30.236" r="0.603" fill="#fff"/><circle cx="101.2" cy="30.236" r="0.604" fill="#fff"/><circle cx="103.393" cy="30.236" r="0.603" fill="#fff"/><circle cx="105.587" cy="30.236" r="0.603" fill="#fff"/><circle cx="64.886" cy="31.881" r="0.603" fill="#fff"/><circle cx="67.078" cy="31.881" r="0.603" fill="#fff"/><circle cx="69.274" cy="31.881" r="0.603" fill="#fff"/><circle cx="71.467" cy="31.881" r="0.603" fill="#fff"/><circle cx="73.663" cy="31.881" r="0.603" fill="#fff"/><circle cx="75.856" cy="31.881" r="0.603" fill="#fff"/><circle cx="78.049" cy="31.881" r="0.603" fill="#fff"/><circle cx="80.245" cy="31.881" r="0.603" fill="#fff"/><circle cx="82.439" cy="31.881" r="0.603" fill="#fff"/><circle cx="84.633" cy="31.881" r="0.603" fill="#fff"/><circle cx="86.827" cy="31.881" r="0.603" fill="#fff"/><circle cx="89.02" cy="31.881" r="0.603" fill="#fff"/><circle cx="91.216" cy="31.881" r="0.603" fill="#fff"/><circle cx="93.41" cy="31.881" r="0.603" fill="#fff"/><circle cx="95.604" cy="31.881" r="0.604" fill="#fff"/><circle cx="97.799" cy="31.881" r="0.603" fill="#fff"/><circle cx="99.991" cy="31.881" r="0.603" fill="#fff"/><circle cx="102.187" cy="31.881" r="0.602" fill="#fff"/><circle cx="104.381" cy="31.881" r="0.603" fill="#fff"/><circle cx="66.094" cy="33.526" r="0.604" fill="#fff"/><circle cx="68.286" cy="33.526" r="0.604" fill="#fff"/><circle cx="70.48" cy="33.526" r="0.603" fill="#fff"/><circle cx="72.675" cy="33.526" r="0.604" fill="#fff"/><circle cx="74.87" cy="33.526" r="0.604" fill="#fff"/><circle cx="77.064" cy="33.526" r="0.603" fill="#fff"/><circle cx="79.257" cy="33.526" r="0.604" fill="#fff"/><circle cx="81.452" cy="33.526" r="0.604" fill="#fff"/><circle cx="83.646" cy="33.526" r="0.603" fill="#fff"/><circle cx="85.84" cy="33.526" r="0.603" fill="#fff"/><circle cx="88.033" cy="33.526" r="0.603" fill="#fff"/><circle cx="90.228" cy="33.526" r="0.603" fill="#fff"/><circle cx="92.421" cy="33.526" r="0.603" fill="#fff"/><circle cx="94.616" cy="33.526" r="0.603" fill="#fff"/><circle cx="96.812" cy="33.526" r="0.603" fill="#fff"/><circle cx="99.005" cy="33.526" r="0.603" fill="#fff"/><circle cx="101.2" cy="33.526" r="0.604" fill="#fff"/><circle cx="103.393" cy="33.526" r="0.603" fill="#fff"/><circle cx="105.587" cy="33.526" r="0.603" fill="#fff"/><circle cx="66.094" cy="36.815" r="0.604" fill="#fff"/><circle cx="68.286" cy="36.815" r="0.604" fill="#fff"/><circle cx="70.48" cy="36.815" r="0.603" fill="#fff"/><circle cx="72.675" cy="36.815" r="0.604" fill="#fff"/><circle cx="74.87" cy="36.815" r="0.604" fill="#fff"/><circle cx="77.064" cy="36.815" r="0.603" fill="#fff"/><circle cx="79.257" cy="36.815" r="0.604" fill="#fff"/><circle cx="81.452" cy="36.815" r="0.604" fill="#fff"/><circle cx="83.646" cy="36.815" r="0.603" fill="#fff"/><circle cx="85.84" cy="36.815" r="0.603" fill="#fff"/><circle cx="88.033" cy="36.815" r="0.603" fill="#fff"/><circle cx="90.228" cy="36.815" r="0.603" fill="#fff"/><circle cx="92.421" cy="36.815" r="0.603" fill="#fff"/><circle cx="94.616" cy="36.815" r="0.603" fill="#fff"/><circle cx="96.812" cy="36.815" r="0.604" fill="#fff"/><circle cx="99.005" cy="36.815" r="0.603" fill="#fff"/><circle cx="101.2" cy="36.815" r="0.604" fill="#fff"/><circle cx="103.393" cy="36.815" r="0.603" fill="#fff"/><circle cx="105.587" cy="36.815" r="0.603" fill="#fff"/><circle cx="64.886" cy="35.169" r="0.603" fill="#fff"/><circle cx="106.794" cy="31.881" r="0.604" fill="#fff"/><circle cx="106.794" cy="35.169" r="0.604" fill="#fff"/><circle cx="67.078" cy="35.169" r="0.603" fill="#fff"/><circle cx="69.274" cy="35.169" r="0.603" fill="#fff"/><circle cx="71.467" cy="35.169" r="0.603" fill="#fff"/><circle cx="73.663" cy="35.169" r="0.603" fill="#fff"/><circle cx="75.856" cy="35.169" r="0.603" fill="#fff"/><circle cx="78.049" cy="35.169" r="0.603" fill="#fff"/><circle cx="80.245" cy="35.169" r="0.603" fill="#fff"/><circle cx="82.439" cy="35.169" r="0.603" fill="#fff"/><circle cx="84.633" cy="35.169" r="0.603" fill="#fff"/><circle cx="86.827" cy="35.169" r="0.603" fill="#fff"/><circle cx="89.02" cy="35.169" r="0.603" fill="#fff"/><circle cx="91.216" cy="35.169" r="0.603" fill="#fff"/><circle cx="93.41" cy="35.169" r="0.603" fill="#fff"/><circle cx="95.604" cy="35.169" r="0.604" fill="#fff"/><circle cx="97.799" cy="35.169" r="0.603" fill="#fff"/><circle cx="99.991" cy="35.169" r="0.603" fill="#fff"/><circle cx="102.187" cy="35.169" r="0.602" fill="#fff"/><circle cx="104.381" cy="35.169" r="0.603" fill="#fff"/><rect x="39.239" y="30.558" width="21.539" height="1.039" fill="#fff"/><rect x="39.239" y="33.034" width="21.539" height="1.044" fill="#fff"/><rect x="39.239" y="35.454" width="21.539" height="1.044" fill="#fff"/><circle cx="30.136" cy="33.526" r="4.17" fill="#eb6159"/><circle cx="30.135" cy="33.525" r="3.126" fill="#3a383a"/><path d="M23.954,41.187h83.1a2.779,2.779,0,0,1,2.779,2.779v7.5a2.776,2.776,0,0,1-2.776,2.776H23.95a2.776,2.776,0,0,1-2.776-2.776v-7.5A2.781,2.781,0,0,1,23.954,41.187Z" fill="#3a383a"/><circle cx="66.094" cy="44.424" r="0.604" fill="#fff"/><circle cx="68.286" cy="44.424" r="0.604" fill="#fff"/><circle cx="70.48" cy="44.424" r="0.603" fill="#fff"/><circle cx="72.675" cy="44.424" r="0.604" fill="#fff"/><circle cx="74.87" cy="44.424" r="0.604" fill="#fff"/><circle cx="77.064" cy="44.424" r="0.603" fill="#fff"/><circle cx="79.257" cy="44.424" r="0.604" fill="#fff"/><circle cx="81.452" cy="44.424" r="0.604" fill="#fff"/><circle cx="83.646" cy="44.424" r="0.603" fill="#fff"/><circle cx="85.84" cy="44.424" r="0.603" fill="#fff"/><circle cx="88.033" cy="44.424" r="0.603" fill="#fff"/><circle cx="90.228" cy="44.424" r="0.603" fill="#fff"/><circle cx="92.421" cy="44.424" r="0.603" fill="#fff"/><circle cx="94.616" cy="44.424" r="0.603" fill="#fff"/><circle cx="96.812" cy="44.424" r="0.603" fill="#fff"/><circle cx="99.005" cy="44.424" r="0.603" fill="#fff"/><circle cx="101.2" cy="44.424" r="0.604" fill="#fff"/><circle cx="103.393" cy="44.424" r="0.603" fill="#fff"/><circle cx="105.587" cy="44.424" r="0.603" fill="#fff"/><circle cx="64.886" cy="46.067" r="0.603" fill="#fff"/><circle cx="67.078" cy="46.067" r="0.603" fill="#fff"/><circle cx="69.274" cy="46.067" r="0.602" fill="#fff"/><circle cx="71.467" cy="46.067" r="0.603" fill="#fff"/><circle cx="73.663" cy="46.067" r="0.603" fill="#fff"/><circle cx="75.856" cy="46.067" r="0.603" fill="#fff"/><circle cx="78.049" cy="46.067" r="0.602" fill="#fff"/><circle cx="80.245" cy="46.067" r="0.602" fill="#fff"/><circle cx="82.439" cy="46.067" r="0.602" fill="#fff"/><circle cx="84.633" cy="46.067" r="0.603" fill="#fff"/><circle cx="86.827" cy="46.067" r="0.602" fill="#fff"/><circle cx="89.02" cy="46.067" r="0.603" fill="#fff"/><circle cx="91.216" cy="46.067" r="0.603" fill="#fff"/><circle cx="93.41" cy="46.067" r="0.603" fill="#fff"/><circle cx="95.604" cy="46.067" r="0.605" fill="#fff"/><circle cx="97.799" cy="46.067" r="0.602" fill="#fff"/><circle cx="99.991" cy="46.067" r="0.603" fill="#fff"/><circle cx="102.187" cy="46.067" r="0.602" fill="#fff"/><circle cx="104.381" cy="46.067" r="0.603" fill="#fff"/><circle cx="66.094" cy="47.713" r="0.605" fill="#fff"/><circle cx="68.286" cy="47.713" r="0.605" fill="#fff"/><circle cx="70.48" cy="47.713" r="0.602" fill="#fff"/><circle cx="72.675" cy="47.713" r="0.605" fill="#fff"/><circle cx="74.87" cy="47.713" r="0.605" fill="#fff"/><circle cx="77.064" cy="47.713" r="0.602" fill="#fff"/><circle cx="79.257" cy="47.713" r="0.605" fill="#fff"/><circle cx="81.452" cy="47.713" r="0.605" fill="#fff"/><circle cx="83.646" cy="47.713" r="0.602" fill="#fff"/><circle cx="85.84" cy="47.713" r="0.602" fill="#fff"/><circle cx="88.033" cy="47.713" r="0.602" fill="#fff"/><circle cx="90.228" cy="47.713" r="0.602" fill="#fff"/><circle cx="92.421" cy="47.713" r="0.602" fill="#fff"/><circle cx="94.616" cy="47.713" r="0.602" fill="#fff"/><circle cx="96.812" cy="47.713" r="0.603" fill="#fff"/><circle cx="99.005" cy="47.713" r="0.602" fill="#fff"/><circle cx="101.2" cy="47.713" r="0.605" fill="#fff"/><circle cx="103.393" cy="47.713" r="0.602" fill="#fff"/><circle cx="105.587" cy="47.713" r="0.602" fill="#fff"/><circle cx="66.094" cy="51.002" r="0.604" fill="#fff"/><circle cx="68.286" cy="51.002" r="0.604" fill="#fff"/><circle cx="70.48" cy="51.002" r="0.603" fill="#fff"/><circle cx="72.675" cy="51.002" r="0.604" fill="#fff"/><circle cx="74.87" cy="51.002" r="0.604" fill="#fff"/><circle cx="77.064" cy="51.002" r="0.603" fill="#fff"/><circle cx="79.257" cy="51.002" r="0.604" fill="#fff"/><circle cx="81.452" cy="51.002" r="0.604" fill="#fff"/><circle cx="83.646" cy="51.002" r="0.603" fill="#fff"/><circle cx="85.84" cy="51.002" r="0.603" fill="#fff"/><circle cx="88.033" cy="51.002" r="0.603" fill="#fff"/><circle cx="90.228" cy="51.002" r="0.603" fill="#fff"/><circle cx="92.421" cy="51.002" r="0.603" fill="#fff"/><circle cx="94.616" cy="51.002" r="0.603" fill="#fff"/><circle cx="96.812" cy="51.002" r="0.603" fill="#fff"/><circle cx="99.005" cy="51.002" r="0.603" fill="#fff"/><circle cx="101.2" cy="51.002" r="0.604" fill="#fff"/><circle cx="103.393" cy="51.002" r="0.603" fill="#fff"/><circle cx="105.587" cy="51.002" r="0.603" fill="#fff"/><circle cx="64.886" cy="49.357" r="0.603" fill="#fff"/><circle cx="106.794" cy="46.067" r="0.605" fill="#fff"/><circle cx="106.794" cy="49.357" r="0.605" fill="#fff"/><circle cx="67.078" cy="49.357" r="0.603" fill="#fff"/><circle cx="69.274" cy="49.357" r="0.602" fill="#fff"/><circle cx="71.467" cy="49.357" r="0.603" fill="#fff"/><circle cx="73.663" cy="49.357" r="0.603" fill="#fff"/><circle cx="75.856" cy="49.357" r="0.603" fill="#fff"/><circle cx="78.049" cy="49.357" r="0.602" fill="#fff"/><circle cx="80.245" cy="49.357" r="0.602" fill="#fff"/><circle cx="82.439" cy="49.357" r="0.602" fill="#fff"/><circle cx="84.633" cy="49.357" r="0.603" fill="#fff"/><circle cx="86.827" cy="49.357" r="0.602" fill="#fff"/><circle cx="89.02" cy="49.357" r="0.603" fill="#fff"/><circle cx="91.216" cy="49.357" r="0.603" fill="#fff"/><circle cx="93.41" cy="49.357" r="0.603" fill="#fff"/><circle cx="95.604" cy="49.357" r="0.605" fill="#fff"/><circle cx="97.799" cy="49.357" r="0.602" fill="#fff"/><circle cx="99.991" cy="49.357" r="0.603" fill="#fff"/><circle cx="102.187" cy="49.357" r="0.602" fill="#fff"/><circle cx="104.381" cy="49.357" r="0.603" fill="#fff"/><rect x="39.239" y="44.743" width="21.539" height="1.04" fill="#fff"/><rect x="39.239" y="47.223" width="21.539" height="1.04" fill="#fff"/><rect x="39.239" y="49.643" width="21.539" height="1.04" fill="#fff"/><circle cx="30.136" cy="47.712" r="4.17" fill="#eb6159"/><circle cx="30.135" cy="47.713" r="3.126" fill="#3a383a"/><path d="M23.952,55.352h83.1a2.779,2.779,0,0,1,2.779,2.779v7.5a2.777,2.777,0,0,1-2.777,2.777H23.95a2.776,2.776,0,0,1-2.776-2.776v-7.5a2.778,2.778,0,0,1,2.778-2.778Z" fill="#3a383a"/><circle cx="66.094" cy="58.588" r="0.604" fill="#fff"/><circle cx="68.286" cy="58.588" r="0.604" fill="#fff"/><circle cx="70.48" cy="58.588" r="0.603" fill="#fff"/><circle cx="72.675" cy="58.588" r="0.604" fill="#fff"/><circle cx="74.87" cy="58.588" r="0.604" fill="#fff"/><circle cx="77.064" cy="58.588" r="0.603" fill="#fff"/><circle cx="79.257" cy="58.588" r="0.604" fill="#fff"/><circle cx="81.452" cy="58.588" r="0.604" fill="#fff"/><circle cx="83.646" cy="58.588" r="0.603" fill="#fff"/><circle cx="85.84" cy="58.588" r="0.603" fill="#fff"/><circle cx="88.033" cy="58.588" r="0.603" fill="#fff"/><circle cx="90.228" cy="58.588" r="0.603" fill="#fff"/><circle cx="92.421" cy="58.588" r="0.603" fill="#fff"/><circle cx="94.616" cy="58.588" r="0.603" fill="#fff"/><circle cx="96.812" cy="58.588" r="0.603" fill="#fff"/><circle cx="99.005" cy="58.588" r="0.603" fill="#fff"/><circle cx="101.2" cy="58.588" r="0.604" fill="#fff"/><circle cx="103.393" cy="58.588" r="0.603" fill="#fff"/><circle cx="105.587" cy="58.588" r="0.603" fill="#fff"/><circle cx="64.886" cy="60.233" r="0.603" fill="#fff"/><circle cx="67.078" cy="60.233" r="0.603" fill="#fff"/><circle cx="69.274" cy="60.233" r="0.602" fill="#fff"/><circle cx="71.467" cy="60.233" r="0.603" fill="#fff"/><circle cx="73.663" cy="60.233" r="0.603" fill="#fff"/><circle cx="75.856" cy="60.233" r="0.603" fill="#fff"/><circle cx="78.049" cy="60.233" r="0.602" fill="#fff"/><circle cx="80.245" cy="60.233" r="0.602" fill="#fff"/><circle cx="82.439" cy="60.233" r="0.602" fill="#fff"/><circle cx="84.633" cy="60.233" r="0.603" fill="#fff"/><circle cx="86.827" cy="60.233" r="0.602" fill="#fff"/><circle cx="89.02" cy="60.233" r="0.603" fill="#fff"/><circle cx="91.216" cy="60.233" r="0.603" fill="#fff"/><circle cx="93.41" cy="60.233" r="0.603" fill="#fff"/><circle cx="95.604" cy="60.233" r="0.605" fill="#fff"/><circle cx="97.799" cy="60.233" r="0.602" fill="#fff"/><circle cx="99.991" cy="60.233" r="0.603" fill="#fff"/><circle cx="102.187" cy="60.233" r="0.602" fill="#fff"/><circle cx="104.381" cy="60.233" r="0.603" fill="#fff"/><circle cx="66.094" cy="61.878" r="0.604" fill="#fff"/><circle cx="68.286" cy="61.878" r="0.604" fill="#fff"/><circle cx="70.48" cy="61.878" r="0.603" fill="#fff"/><circle cx="72.675" cy="61.878" r="0.604" fill="#fff"/><circle cx="74.87" cy="61.878" r="0.604" fill="#fff"/><circle cx="77.064" cy="61.878" r="0.603" fill="#fff"/><circle cx="79.257" cy="61.878" r="0.604" fill="#fff"/><circle cx="81.452" cy="61.878" r="0.604" fill="#fff"/><circle cx="83.646" cy="61.878" r="0.603" fill="#fff"/><circle cx="85.84" cy="61.878" r="0.603" fill="#fff"/><circle cx="88.033" cy="61.878" r="0.603" fill="#fff"/><circle cx="90.228" cy="61.878" r="0.603" fill="#fff"/><circle cx="92.421" cy="61.878" r="0.603" fill="#fff"/><circle cx="94.616" cy="61.878" r="0.603" fill="#fff"/><circle cx="96.812" cy="61.878" r="0.604" fill="#fff"/><circle cx="99.005" cy="61.878" r="0.603" fill="#fff"/><circle cx="101.2" cy="61.878" r="0.604" fill="#fff"/><circle cx="103.393" cy="61.878" r="0.603" fill="#fff"/><circle cx="105.587" cy="61.878" r="0.603" fill="#fff"/><circle cx="66.094" cy="65.167" r="0.605" fill="#fff"/><circle cx="68.286" cy="65.167" r="0.605" fill="#fff"/><circle cx="70.48" cy="65.167" r="0.603" fill="#fff"/><circle cx="72.675" cy="65.167" r="0.605" fill="#fff"/><circle cx="74.87" cy="65.167" r="0.605" fill="#fff"/><circle cx="77.064" cy="65.167" r="0.602" fill="#fff"/><circle cx="79.257" cy="65.167" r="0.605" fill="#fff"/><circle cx="81.452" cy="65.167" r="0.605" fill="#fff"/><circle cx="83.646" cy="65.167" r="0.603" fill="#fff"/><circle cx="85.84" cy="65.167" r="0.603" fill="#fff"/><circle cx="88.033" cy="65.167" r="0.603" fill="#fff"/><circle cx="90.228" cy="65.167" r="0.603" fill="#fff"/><circle cx="92.421" cy="65.167" r="0.603" fill="#fff"/><circle cx="94.616" cy="65.167" r="0.603" fill="#fff"/><circle cx="96.812" cy="65.167" r="0.603" fill="#fff"/><circle cx="99.005" cy="65.167" r="0.603" fill="#fff"/><circle cx="101.2" cy="65.167" r="0.605" fill="#fff"/><circle cx="103.393" cy="65.167" r="0.603" fill="#fff"/><circle cx="105.587" cy="65.167" r="0.602" fill="#fff"/><circle cx="64.886" cy="63.523" r="0.603" fill="#fff"/><circle cx="106.794" cy="60.233" r="0.605" fill="#fff"/><circle cx="106.794" cy="63.523" r="0.604" fill="#fff"/><circle cx="67.078" cy="63.523" r="0.603" fill="#fff"/><circle cx="69.274" cy="63.523" r="0.603" fill="#fff"/><circle cx="71.467" cy="63.523" r="0.603" fill="#fff"/><circle cx="73.663" cy="63.523" r="0.603" fill="#fff"/><circle cx="75.856" cy="63.523" r="0.603" fill="#fff"/><circle cx="78.049" cy="63.523" r="0.603" fill="#fff"/><circle cx="80.245" cy="63.523" r="0.603" fill="#fff"/><circle cx="82.439" cy="63.523" r="0.603" fill="#fff"/><circle cx="84.633" cy="63.523" r="0.603" fill="#fff"/><circle cx="86.827" cy="63.523" r="0.603" fill="#fff"/><circle cx="89.02" cy="63.523" r="0.603" fill="#fff"/><circle cx="91.216" cy="63.523" r="0.603" fill="#fff"/><circle cx="93.41" cy="63.523" r="0.603" fill="#fff"/><circle cx="95.604" cy="63.523" r="0.604" fill="#fff"/><circle cx="97.799" cy="63.523" r="0.603" fill="#fff"/><circle cx="99.991" cy="63.523" r="0.603" fill="#fff"/><circle cx="102.187" cy="63.523" r="0.602" fill="#fff"/><circle cx="104.381" cy="63.523" r="0.603" fill="#fff"/><rect x="39.239" y="58.907" width="21.539" height="1.043" fill="#fff"/><rect x="39.239" y="61.388" width="21.539" height="1.04" fill="#fff"/><rect x="39.239" y="63.807" width="21.539" height="1.041" fill="#fff"/><circle cx="30.136" cy="61.878" r="4.17" fill="#eb6159"/><circle cx="30.135" cy="61.877" r="3.126" fill="#3a383a"/><path d="M23.95,69.558h83.1a2.779,2.779,0,0,1,2.779,2.779v7.5a2.777,2.777,0,0,1-2.777,2.777H23.95a2.776,2.776,0,0,1-2.776-2.776v-7.5a2.776,2.776,0,0,1,2.776-2.776Z" fill="#3a383a"/><circle cx="66.094" cy="72.795" r="0.604" fill="#fff"/><circle cx="68.286" cy="72.795" r="0.604" fill="#fff"/><circle cx="70.48" cy="72.795" r="0.603" fill="#fff"/><circle cx="72.675" cy="72.795" r="0.604" fill="#fff"/><circle cx="74.87" cy="72.795" r="0.604" fill="#fff"/><circle cx="77.064" cy="72.795" r="0.603" fill="#fff"/><circle cx="79.257" cy="72.795" r="0.604" fill="#fff"/><circle cx="81.452" cy="72.795" r="0.604" fill="#fff"/><circle cx="83.646" cy="72.795" r="0.603" fill="#fff"/><circle cx="85.84" cy="72.795" r="0.603" fill="#fff"/><circle cx="88.033" cy="72.795" r="0.603" fill="#fff"/><circle cx="90.228" cy="72.795" r="0.603" fill="#fff"/><circle cx="92.421" cy="72.795" r="0.603" fill="#fff"/><circle cx="94.616" cy="72.795" r="0.603" fill="#fff"/><circle cx="96.812" cy="72.795" r="0.603" fill="#fff"/><circle cx="99.005" cy="72.795" r="0.603" fill="#fff"/><circle cx="101.2" cy="72.795" r="0.604" fill="#fff"/><circle cx="103.393" cy="72.795" r="0.603" fill="#fff"/><circle cx="105.587" cy="72.795" r="0.603" fill="#fff"/><circle cx="64.886" cy="74.44" r="0.603" fill="#fff"/><circle cx="67.078" cy="74.44" r="0.603" fill="#fff"/><circle cx="69.274" cy="74.44" r="0.602" fill="#fff"/><circle cx="71.467" cy="74.44" r="0.603" fill="#fff"/><circle cx="73.663" cy="74.44" r="0.603" fill="#fff"/><circle cx="75.856" cy="74.44" r="0.603" fill="#fff"/><circle cx="78.049" cy="74.44" r="0.602" fill="#fff"/><circle cx="80.245" cy="74.44" r="0.602" fill="#fff"/><circle cx="82.439" cy="74.44" r="0.602" fill="#fff"/><circle cx="84.633" cy="74.44" r="0.603" fill="#fff"/><circle cx="86.827" cy="74.44" r="0.602" fill="#fff"/><circle cx="89.02" cy="74.44" r="0.603" fill="#fff"/><circle cx="91.216" cy="74.44" r="0.603" fill="#fff"/><circle cx="93.41" cy="74.44" r="0.603" fill="#fff"/><circle cx="95.604" cy="74.44" r="0.605" fill="#fff"/><circle cx="97.799" cy="74.44" r="0.602" fill="#fff"/><circle cx="99.991" cy="74.44" r="0.603" fill="#fff"/><circle cx="102.187" cy="74.44" r="0.602" fill="#fff"/><circle cx="104.381" cy="74.44" r="0.603" fill="#fff"/><circle cx="66.094" cy="76.084" r="0.605" fill="#fff"/><circle cx="68.286" cy="76.084" r="0.605" fill="#fff"/><circle cx="70.48" cy="76.084" r="0.602" fill="#fff"/><circle cx="72.675" cy="76.084" r="0.605" fill="#fff"/><circle cx="74.87" cy="76.084" r="0.605" fill="#fff"/><circle cx="77.064" cy="76.084" r="0.602" fill="#fff"/><circle cx="79.257" cy="76.084" r="0.605" fill="#fff"/><circle cx="81.452" cy="76.084" r="0.605" fill="#fff"/><circle cx="83.646" cy="76.084" r="0.602" fill="#fff"/><circle cx="85.84" cy="76.084" r="0.602" fill="#fff"/><circle cx="88.033" cy="76.084" r="0.602" fill="#fff"/><circle cx="90.228" cy="76.084" r="0.602" fill="#fff"/><circle cx="92.421" cy="76.084" r="0.602" fill="#fff"/><circle cx="94.616" cy="76.084" r="0.602" fill="#fff"/><circle cx="96.812" cy="76.084" r="0.603" fill="#fff"/><circle cx="99.005" cy="76.084" r="0.602" fill="#fff"/><circle cx="101.2" cy="76.084" r="0.605" fill="#fff"/><circle cx="103.393" cy="76.084" r="0.602" fill="#fff"/><circle cx="105.587" cy="76.084" r="0.602" fill="#fff"/><circle cx="66.094" cy="79.373" r="0.604" fill="#fff"/><circle cx="68.286" cy="79.373" r="0.604" fill="#fff"/><circle cx="70.48" cy="79.373" r="0.603" fill="#fff"/><circle cx="72.675" cy="79.373" r="0.604" fill="#fff"/><circle cx="74.87" cy="79.373" r="0.604" fill="#fff"/><circle cx="77.064" cy="79.373" r="0.603" fill="#fff"/><circle cx="79.257" cy="79.373" r="0.604" fill="#fff"/><circle cx="81.452" cy="79.373" r="0.604" fill="#fff"/><circle cx="83.646" cy="79.373" r="0.603" fill="#fff"/><circle cx="85.84" cy="79.373" r="0.603" fill="#fff"/><circle cx="88.033" cy="79.373" r="0.603" fill="#fff"/><circle cx="90.228" cy="79.373" r="0.603" fill="#fff"/><circle cx="92.421" cy="79.373" r="0.603" fill="#fff"/><circle cx="94.616" cy="79.373" r="0.603" fill="#fff"/><circle cx="96.812" cy="79.373" r="0.603" fill="#fff"/><circle cx="99.005" cy="79.373" r="0.603" fill="#fff"/><circle cx="101.2" cy="79.373" r="0.604" fill="#fff"/><circle cx="103.393" cy="79.373" r="0.603" fill="#fff"/><circle cx="105.587" cy="79.373" r="0.603" fill="#fff"/><circle cx="64.886" cy="77.73" r="0.603" fill="#fff"/><circle cx="106.794" cy="74.44" r="0.605" fill="#fff"/><circle cx="106.794" cy="77.73" r="0.604" fill="#fff"/><circle cx="67.078" cy="77.73" r="0.603" fill="#fff"/><circle cx="69.274" cy="77.73" r="0.603" fill="#fff"/><circle cx="71.467" cy="77.73" r="0.603" fill="#fff"/><circle cx="73.663" cy="77.73" r="0.603" fill="#fff"/><circle cx="75.856" cy="77.73" r="0.603" fill="#fff"/><circle cx="78.049" cy="77.73" r="0.603" fill="#fff"/><circle cx="80.245" cy="77.73" r="0.603" fill="#fff"/><circle cx="82.439" cy="77.73" r="0.603" fill="#fff"/><circle cx="84.633" cy="77.73" r="0.603" fill="#fff"/><circle cx="86.827" cy="77.73" r="0.603" fill="#fff"/><circle cx="89.02" cy="77.73" r="0.603" fill="#fff"/><circle cx="91.216" cy="77.73" r="0.603" fill="#fff"/><circle cx="93.41" cy="77.73" r="0.603" fill="#fff"/><circle cx="95.604" cy="77.73" r="0.604" fill="#fff"/><circle cx="97.799" cy="77.73" r="0.603" fill="#fff"/><circle cx="99.991" cy="77.73" r="0.603" fill="#fff"/><circle cx="102.187" cy="77.73" r="0.603" fill="#fff"/><circle cx="104.381" cy="77.73" r="0.603" fill="#fff"/><rect x="39.239" y="73.114" width="21.539" height="1.041" fill="#fff"/><rect x="39.239" y="75.593" width="21.539" height="1.041" fill="#fff"/><rect x="39.239" y="78.015" width="21.539" height="1.039" fill="#fff"/><circle cx="30.136" cy="76.084" r="4.17" fill="#eb6159"/><circle cx="30.135" cy="76.084" r="3.126" fill="#3a383a"/><path d="M23.95,83.746h83.1a2.779,2.779,0,0,1,2.779,2.779v7.5a2.777,2.777,0,0,1-2.777,2.777H23.95a2.776,2.776,0,0,1-2.776-2.776v-7.5a2.776,2.776,0,0,1,2.776-2.776Z" fill="#3a383a"/><circle cx="66.094" cy="86.983" r="0.605" fill="#fff"/><circle cx="68.286" cy="86.983" r="0.605" fill="#fff"/><circle cx="70.48" cy="86.983" r="0.603" fill="#fff"/><circle cx="72.675" cy="86.983" r="0.605" fill="#fff"/><circle cx="74.87" cy="86.983" r="0.605" fill="#fff"/><circle cx="77.064" cy="86.983" r="0.602" fill="#fff"/><circle cx="79.257" cy="86.983" r="0.605" fill="#fff"/><circle cx="81.452" cy="86.983" r="0.605" fill="#fff"/><circle cx="83.646" cy="86.983" r="0.603" fill="#fff"/><circle cx="85.84" cy="86.983" r="0.603" fill="#fff"/><circle cx="88.033" cy="86.983" r="0.603" fill="#fff"/><circle cx="90.228" cy="86.983" r="0.603" fill="#fff"/><circle cx="92.421" cy="86.983" r="0.603" fill="#fff"/><circle cx="94.616" cy="86.983" r="0.603" fill="#fff"/><circle cx="96.812" cy="86.983" r="0.603" fill="#fff"/><circle cx="99.005" cy="86.983" r="0.603" fill="#fff"/><circle cx="101.2" cy="86.983" r="0.605" fill="#fff"/><circle cx="103.393" cy="86.983" r="0.603" fill="#fff"/><circle cx="105.587" cy="86.983" r="0.602" fill="#fff"/><circle cx="64.886" cy="88.627" r="0.603" fill="#fff"/><circle cx="67.078" cy="88.627" r="0.603" fill="#fff"/><circle cx="69.274" cy="88.627" r="0.603" fill="#fff"/><circle cx="71.467" cy="88.627" r="0.603" fill="#fff"/><circle cx="73.663" cy="88.627" r="0.603" fill="#fff"/><circle cx="75.856" cy="88.627" r="0.603" fill="#fff"/><circle cx="78.049" cy="88.627" r="0.603" fill="#fff"/><circle cx="80.245" cy="88.627" r="0.603" fill="#fff"/><circle cx="82.439" cy="88.627" r="0.603" fill="#fff"/><circle cx="84.633" cy="88.627" r="0.603" fill="#fff"/><circle cx="86.827" cy="88.627" r="0.603" fill="#fff"/><circle cx="89.02" cy="88.627" r="0.603" fill="#fff"/><circle cx="91.216" cy="88.627" r="0.603" fill="#fff"/><circle cx="93.41" cy="88.627" r="0.603" fill="#fff"/><circle cx="95.604" cy="88.627" r="0.604" fill="#fff"/><circle cx="97.799" cy="88.627" r="0.603" fill="#fff"/><circle cx="99.991" cy="88.627" r="0.603" fill="#fff"/><circle cx="102.187" cy="88.627" r="0.603" fill="#fff"/><circle cx="104.381" cy="88.627" r="0.603" fill="#fff"/><circle cx="66.094" cy="90.273" r="0.604" fill="#fff"/><circle cx="68.286" cy="90.273" r="0.604" fill="#fff"/><circle cx="70.48" cy="90.273" r="0.603" fill="#fff"/><circle cx="72.675" cy="90.273" r="0.604" fill="#fff"/><circle cx="74.87" cy="90.273" r="0.604" fill="#fff"/><circle cx="77.064" cy="90.273" r="0.603" fill="#fff"/><circle cx="79.257" cy="90.273" r="0.604" fill="#fff"/><circle cx="81.452" cy="90.273" r="0.604" fill="#fff"/><circle cx="83.646" cy="90.273" r="0.603" fill="#fff"/><circle cx="85.84" cy="90.273" r="0.603" fill="#fff"/><circle cx="88.033" cy="90.273" r="0.603" fill="#fff"/><circle cx="90.228" cy="90.273" r="0.603" fill="#fff"/><circle cx="92.421" cy="90.273" r="0.603" fill="#fff"/><circle cx="94.616" cy="90.273" r="0.603" fill="#fff"/><circle cx="96.812" cy="90.273" r="0.603" fill="#fff"/><circle cx="99.005" cy="90.273" r="0.603" fill="#fff"/><circle cx="101.2" cy="90.273" r="0.604" fill="#fff"/><circle cx="103.393" cy="90.273" r="0.603" fill="#fff"/><circle cx="105.587" cy="90.273" r="0.603" fill="#fff"/><circle cx="66.094" cy="93.561" r="0.605" fill="#fff"/><circle cx="68.286" cy="93.561" r="0.605" fill="#fff"/><circle cx="70.48" cy="93.561" r="0.603" fill="#fff"/><circle cx="72.675" cy="93.561" r="0.605" fill="#fff"/><circle cx="74.87" cy="93.561" r="0.605" fill="#fff"/><circle cx="77.064" cy="93.561" r="0.602" fill="#fff"/><circle cx="79.257" cy="93.561" r="0.605" fill="#fff"/><circle cx="81.452" cy="93.561" r="0.605" fill="#fff"/><circle cx="83.646" cy="93.561" r="0.603" fill="#fff"/><circle cx="85.84" cy="93.561" r="0.603" fill="#fff"/><circle cx="88.033" cy="93.561" r="0.603" fill="#fff"/><circle cx="90.228" cy="93.561" r="0.603" fill="#fff"/><circle cx="92.421" cy="93.561" r="0.603" fill="#fff"/><circle cx="94.616" cy="93.561" r="0.603" fill="#fff"/><circle cx="96.812" cy="93.561" r="0.603" fill="#fff"/><circle cx="99.005" cy="93.561" r="0.603" fill="#fff"/><circle cx="101.2" cy="93.561" r="0.605" fill="#fff"/><circle cx="103.393" cy="93.561" r="0.603" fill="#fff"/><circle cx="105.587" cy="93.561" r="0.602" fill="#fff"/><circle cx="64.886" cy="91.916" r="0.603" fill="#fff"/><circle cx="106.794" cy="88.627" r="0.604" fill="#fff"/><circle cx="106.794" cy="91.916" r="0.604" fill="#fff"/><circle cx="67.078" cy="91.916" r="0.603" fill="#fff"/><circle cx="69.274" cy="91.916" r="0.603" fill="#fff"/><circle cx="71.467" cy="91.916" r="0.603" fill="#fff"/><circle cx="73.663" cy="91.916" r="0.603" fill="#fff"/><circle cx="75.856" cy="91.916" r="0.603" fill="#fff"/><circle cx="78.049" cy="91.916" r="0.603" fill="#fff"/><circle cx="80.245" cy="91.916" r="0.603" fill="#fff"/><circle cx="82.439" cy="91.916" r="0.603" fill="#fff"/><circle cx="84.633" cy="91.916" r="0.603" fill="#fff"/><circle cx="86.827" cy="91.916" r="0.603" fill="#fff"/><circle cx="89.02" cy="91.916" r="0.603" fill="#fff"/><circle cx="91.216" cy="91.916" r="0.603" fill="#fff"/><circle cx="93.41" cy="91.916" r="0.603" fill="#fff"/><circle cx="95.604" cy="91.916" r="0.604" fill="#fff"/><circle cx="97.799" cy="91.916" r="0.603" fill="#fff"/><circle cx="99.991" cy="91.916" r="0.603" fill="#fff"/><circle cx="102.187" cy="91.916" r="0.603" fill="#fff"/><circle cx="104.381" cy="91.916" r="0.603" fill="#fff"/><rect x="39.239" y="87.304" width="21.539" height="1.04" fill="#fff"/><rect x="39.239" y="89.784" width="21.539" height="1.041" fill="#fff"/><rect x="39.239" y="92.201" width="21.539" height="1.04" fill="#fff"/><ellipse cx="30.136" cy="90.272" rx="4.17" ry="4.165" fill="#eb6159"/><circle cx="30.135" cy="90.272" r="3.126" fill="#3a383a"/><path d="M69.737,42.345a.788.788,0,0,1-.79.787H54.054a.786.786,0,0,1-.787-.787h0a.789.789,0,0,1,.787-.789H68.947a.791.791,0,0,1,.79.789Z" fill="#010000" opacity="0.1"/><ellipse cx="70.659" cy="29.324" rx="25.892" ry="25.874" opacity="0.2"/><ellipse cx="67.206" cy="25.874" rx="25.892" ry="25.874" fill="#ff3e3e"/><path d="M59.875,23.855l1.887-2.421a6.773,6.773,0,0,0,4.691,1.937c2.065,0,3.213-.892,3.213-2.166,0-1.351-1.045-1.962-3.416-1.962-.715,0-1.862.025-2.117.051V16.033c.306.025,1.479.025,2.117.025,1.887,0,3.136-.561,3.136-1.809,0-1.351-1.377-2.013-3.162-2.013a6.119,6.119,0,0,0-4.309,1.758L60.1,11.726a8.374,8.374,0,0,1,6.5-2.7c3.978,0,6.426,1.784,6.426,4.612a4.171,4.171,0,0,1-3.723,3.874,4.266,4.266,0,0,1,3.978,4.077c0,2.93-2.627,4.994-6.706,4.994A8.5,8.5,0,0,1,59.875,23.855Z" fill="#fff"/><path d="M61.212,39.01V32.845L58.659,39.01H58.2l-2.57-6.165V39.01h-1.22V31.153h1.61l2.408,5.823,2.375-5.823h1.627V39.01Z" fill="#fff"/><path d="M64.42,35.073a3.929,3.929,0,0,1,3.872-4.115c2.374,0,3.773,1.854,3.773,4.213v.309h-6.36a2.768,2.768,0,0,0,2.83,2.716,3.433,3.433,0,0,0,2.424-.992l.586.8a4.268,4.268,0,0,1-3.123,1.2A3.9,3.9,0,0,1,64.42,35.073Zm3.855-3.106a2.621,2.621,0,0,0-2.57,2.619h5.156A2.546,2.546,0,0,0,68.275,31.967Z" fill="#fff"/><path d="M73.581,35.073a3.881,3.881,0,0,1,3.92-4.115,3.362,3.362,0,0,1,2.879,1.367l-.813.748a2.329,2.329,0,0,0-2-1.025,2.737,2.737,0,0,0-2.717,3.025,2.751,2.751,0,0,0,2.717,3.042,2.368,2.368,0,0,0,2-1.025l.813.749A3.363,3.363,0,0,1,77.5,39.205,3.886,3.886,0,0,1,73.581,35.073Z" fill="#fff"/><path d="M81.846,38.278a.9.9,0,1,1,.895.895A.9.9,0,0,1,81.846,38.278Z" fill="#fff"/></svg>