<svg baseProfile="basic" xmlns="http://www.w3.org/2000/svg" xmlns:xlink="http://www.w3.org/1999/xlink" width="340" height="300" viewBox="0 0 340 300"><defs><path id="a" d="M0 0h340v300H0z"/></defs><clipPath id="b"><use xlink:href="#a" overflow="visible"/></clipPath><g clip-path="url(#b)"><path fill="#76D9FC" d="M435.4 326c0 119.5-96.9 216.4-216.4 216.4S2.5 445.6 2.5 326c0-119.5 96.9-216.4 216.5-216.4S435.4 206.5 435.4 326z"/><path fill-rule="evenodd" clip-rule="evenodd" fill="#00A936" d="M79.3 368.3c-1.2-.5-2.8-.8-3.9-1-1.5-.2-2.5-.2-3.5 0-2.9.9-3.1 3.9 4.8 8.8 2.1 2.8 6 5.5 9.7 4 2.1-6.1-2.3-9.8-7.1-11.4v-.4zM112.8 307c.3.3.6.8.9.9h.5c2.2.6 4.3-1.6 2.6-1.7-.7-.1-2 .1-4 .8zM162.9 288.1c-3.4.6-4.3 2.9 3.1 7.9.9-.2 7.2-1.7 3.5 2.2 11.5-6.8-.8-11.1-6.6-10.1zM162.9 239.3c12.3-5 15.2-37.5.5-36.5-.9 0-1.9.5-3.1.9 6.1 11.3-8.1 25.7 2.6 35.6zM304.3 266.1c1-6.8-9.8-11.7-14.6-11.5-2.8.2-3.4 2.2 1.8 7.1-4.9 11.6 8.1 12.2 12.8 4.4zM194.2 181.7c3.6-1.7 5.3-7.6 0-7.6-1-.3-1.7-.5-2.6-.4-.9 0-1.9.4-2.6.4-10.4 2.1-7.3 19.3 5.2 7.6z"/><path fill-rule="evenodd" clip-rule="evenodd" fill="#00A936" d="M208.7 177.6c-15 1.9-30.2 16.4-16.2 30.8 10 12.5-14.5 38 8.8 44.6 9.2-20.6 34.4-37 28.2-62.1-2.6-10.7-11.7-14.4-20.8-13.3z"/><path fill="#00A936" d="M182.8 475.3c-22.3-14.8-38.4-37.4-63.4-48.4C99 407.1 53 419.4 53.8 382c2.1-17.8-12.2-26.4-22.9-34.7-8.2-27.5 42-37.7 42.7-7.5 16.5-.9 22.3-29.7 41.4-33.9 9.8-8.5 36.4.6 26.8-16.8 9.5-9 37.4-8.7 23.8-29.9-4.6-20.6-29.9-30.6-38.2-7.1-22.9 6.1-13.7-43.6 9.6-37 16.9 1 14.6-13.7 4.4-18.5 0-.7-.2-1.1-.9-.5-1.9-.7-3.8-1.4-6.2-1.3-22.9-12.6 22.9-44.9-7.4-55.1-33.3 28.4-84 73.1-104.3 114.9-9.2 26.2-7.6 52.6-6.6 80.1 9.3 26.7 27.4 48.7 41.8 72.6 9.2 11.6 4.8 24.8 4.1 37.5-.2.1.1.4.1.4-.5 7.7.7 15 7.2 21.5 11.3 14.5 27.7 26.1 35.7 42.8 18.1 11.3 37.9 19.9 59.1 25.5 2.3-1 6.9-2.4 23.7-4v-.4c0-5 23.1-12.3 34.5-20.8 19-22.8-20.3-41.2-39.4-34.5zM385.1 466c32.1-37.8 51.5-86.6 51.5-140 0-6-.4-11.8-.9-17.7-.2-1.5-.3-2.9-.4-4.4-12.4 6.8-34.4-30.5-11.9-12.8 4.4-.3 7.2-1.6 9.2-3.5-2.6-13.6-6.1-26.7-11.1-39.2-2.2-2.6-4.3-5.1-6.1-6.6.2-2.7-.1-5.3-.4-7.9-.1-.1.1-.3 0-.5-35.3-72.6-109.8-122.8-195.9-122.8-5.9 0-11.8.4-17.6.8-3 .6-6.3 1-9.7 1.3-1.2.1-2.3.3-3.5.4-12.1 1.7-23.8 3.8-35.2 7.4 29.8-2.2 60.3-1.4 87.1 11.9 7.1 22.8 49.6.4 47.5 25.9.3.4 1 1 1.3 1.4-.7.5.5 5.1 1.3 1.3 7.3 8.3 22.8 25.5 6.6 23.4-21.5-2.9-15.9 39.4-.4 47.1 14.8 7.9 23-8 7.9-15.8-2-19.9 33.1 12.2 17.6 22.8-.6.4-1.1.9-1.7 1.4.7-2.8-1-.2-1 .5-17.6 12.8-7.6 42.9-14.4 62.9-12.2 27.1 30.5 15.2 24.2-6.2-7.8-19.6 32.5-10.7 23.8-24.6 24.5 13 22.1-21.9 11.9-33.5 4.8-18.6 17.3 2.2 11.4 12.3 1 9.6 9.2 11.8 15.9 14.5.3.2.6.3 1.3.4 5.8 2.8 9.3 6.3 3 17.2-7.2 24.2-31.5 25.6-51.5 21.1-20.1 8.3-23.9 32.8-35.2 49.3-11.3 20.6-20.6 50.9-.4 69.1 19.4 18.6 41.6 2.5 57.7-10.1 30.8-4 33.6 32.2 18.5 50.7-.2 1.2-.3 1.8-.4 2.5z"/><g opacity=".2" fill="#010000"><path d="M13.1 259.3c-.1.2-.1.3-.1.4 2-.1 3.8-.2 3.8-.4h-3.7zM401.8 441.8h-.2c0 .2 0 .3-.1.5.1-.1.2-.3.3-.5z"/><path d="M419.2 391.3c0-.4.1-.6.2-.7-.4.5-3.6 3.7-28.3 7.3 6.3-21.7 9.9-44.9 10.1-69h33v-6.5h-33c-.3-24.4-4-47.8-10.6-69.6 25 3.6 28.3 6.9 28.6 7.3-.1-.1-.2-.3-.2-.7h5.9c-.5-1.4-.9-2.8-1.4-4.2-2.6-2.4-7.9-4.4-16.6-6.2-5.1-1.1-11.3-2.2-18.4-3.1-8.3-25.1-20.5-48-35.6-67.6 15.2 3.9 27.2 8.5 35.6 13.2-3.3-4.1-6.7-8.2-10.3-12.1-8.7-3.4-18.2-6.2-27.1-8.4-1.6-.4-3.3-.8-4.9-1.2-23.1-26.9-52.1-46.6-84.4-56-13.8-2.8-28.1-4.2-42.7-4.2-16.2 0-32 1.8-47.3 5.2-30.9 9.8-58.7 29-81 54.9-1.7.4-3.5.8-5.2 1.2-8.2 2-16.8 4.5-24.9 7.5-3.5 3.7-6.9 7.6-10.1 11.6 8.3-4.3 19.5-8.4 33.3-11.9-15.1 19.6-27.2 42.4-35.6 67.5-7.6 1-14.2 2.1-19.5 3.2-6.2 1.3-10.7 2.7-13.7 4.3-.6 1.7-1.2 3.4-1.7 5.1 6.1-1.4 16.9-3.5 32.8-5.8-6.6 21.9-10.3 45.3-10.6 69.8H2.7c0 1.2-.1 2.5-.1 3.7 0 .9.1 1.9.1 2.8h32.9c.3 24.2 3.8 47.4 10.2 69.1-25.5-3.6-28.8-7-29.2-7.4 0 .1.2.3.2.7h-4.1c.6 2 1.3 3.9 2 5.9 3 1.7 7.7 3.2 14.3 4.6 5.2 1.1 11.6 2.2 19 3.2 7.7 23.8 18.8 45.5 32.6 64.4-15.3-4.2-27.3-9-35.1-14 3.2 4.3 6.7 8.5 10.2 12.6 9.4 3.9 20 7 29.9 9.5.5.1 1 .2 1.5.4 22.8 28.2 51.8 49 84.4 59.4 15.3 3.4 31.3 5.3 47.7 5.3 14.5 0 28.7-1.5 42.5-4.2 34.2-9.9 64.8-31.4 88.4-60.7.3-.1.6-.2 1-.2 10.8-2.7 22.6-6.2 32.5-10.7 3.8-4.4 7.4-9 10.9-13.8-7.5 5.8-20.5 11.4-37.9 16.2 13.7-18.9 24.8-40.6 32.5-64.4 7-1 13.1-2 18.1-3.1 9.3-2 14.7-4.1 17.1-6.8.4-1.2.8-2.4 1.2-3.7h-6.3zM193.7 116.2c-11.8 8.5-22.7 23.2-32.2 43.4-21.7 1.7-42 4.3-60 7.9 25.3-27 57.1-45.3 92.2-51.3zm-99.5 59.5c18.9-4.2 40.7-7.3 64.3-9.2-.9 2-1.7 4.1-2.6 6.2-7.6 19.4-13.5 41.9-17.7 66.3-24 .9-46.1 2.3-65.2 4-6.3.6-12.2 1.2-17.6 1.8 9.1-26.1 22.4-49.5 38.8-69.1zm-41 75.9c6.9-.8 15.2-1.7 25.1-2.6 17.4-1.5 37.3-2.7 58.8-3.5-3.8 24.2-5.8 50.1-6 76.8H42c.4-24.8 4.3-48.6 11.2-70.7zM42 328.9h89.1c.1 26.5 2.1 52.2 5.8 76.2-21.4-.8-41.2-2-58.6-3.5-10.1-.9-18.5-1.8-25.6-2.7-6.6-21.9-10.4-45.5-10.7-70zm13 76.9c5.6.7 11.6 1.3 18.1 1.9 18.9 1.7 41 3.1 64.9 4 4.2 25 10.2 47.9 18 67.7.3.8.7 1.6 1 2.4-24.5-2.1-47.1-5.4-66.4-9.9-15.1-19.1-27.2-41.4-35.6-66.1zm42.4 74.3c18.6 3.8 39.7 6.7 62.4 8.5 9.8 22.2 21.3 38.2 33.9 47.2-37-6.2-70.4-26.3-96.3-55.7zm117.7 57.6c-17.6-1.8-34.3-18.8-48-48.6 15.5 1.1 31.6 1.6 48 1.7v46.9zm0-53.4c-17.5-.1-34.6-.7-51-1.9-.7-1.8-1.5-3.6-2.2-5.4-7.5-19-13.3-41.1-17.4-65 22.3.8 46.1 1.2 70.6 1.2v71.1zm0-77.7c-24.8 0-49.1-.4-71.7-1.3-3.7-24-5.8-49.8-5.9-76.4h77.6v77.7zm0-84.3h-77.6c.2-26.8 2.3-52.9 6.1-77 22.5-.8 46.7-1.2 71.4-1.3v78.3zm0-84.8c-24.4 0-48.1.4-70.3 1.2 4.1-23.4 9.8-44.9 17.2-63.6 1.2-3.2 2.5-6.3 3.8-9.2 15.8-1.1 32.4-1.7 49.3-1.8v73.4zm0-80c-15.8.1-31.3.6-46.2 1.6 13.4-27.4 29.4-43 46.2-44.8v43.2zm179.6 164.8h-89.1c-.2-26.7-2.2-52.6-6-76.7 21.1.8 40.7 2 57.8 3.5 10.4.9 19 1.8 26.1 2.7 7 22 10.9 45.7 11.2 70.5zm-13.4-77.4c-5.7-.7-11.9-1.3-18.6-2-18.7-1.7-40.5-3-64.1-3.9-4.2-24.4-10.2-46.9-17.8-66.3-.8-2.1-1.7-4.2-2.5-6.2 23.6 2 45.5 5.1 64.3 9.3 16.4 19.5 29.7 43 38.7 69.1zm-46-77.4c-18.1-3.5-38.4-6.2-60.1-7.9-9.4-20.2-20.3-34.9-32.1-43.4 35.1 6 66.9 24.4 92.2 51.3zm-113.7-53.2c16.8 1.8 32.9 17.4 46.2 44.8-14.9-1-30.4-1.5-46.2-1.6v-43.2zm0 49.8c16.9.1 33.5.7 49.3 1.8 1.3 3 2.6 6 3.8 9.2 7.3 18.7 13.1 40.2 17.1 63.6-22.2-.8-45.9-1.2-70.3-1.2v-73.4zm0 79.9c24.8.1 48.9.5 71.5 1.3 3.8 24.1 5.9 50.2 6.1 77h-77.6V244zm0 84.9h77.6c-.1 26.6-2.1 52.4-5.9 76.4-22.6.8-46.8 1.3-71.7 1.3v-77.7zm0 84.2c24.5 0 48.3-.5 70.6-1.2-4.1 24-10 46-17.4 65.1-.7 1.8-1.4 3.6-2.2 5.4-16.3 1.2-33.5 1.9-51 2v-71.3zm0 77.7c16.5-.1 32.6-.7 48-1.7-13.7 29.8-30.5 46.8-48 48.6v-46.9zm21.5 45c12.6-9.1 24.1-25.1 33.9-47.3 22.7-1.8 43.9-4.8 62.5-8.6-26 29.5-59.4 49.7-96.4 55.9zm103.2-64.1c-19.3 4.6-41.9 7.9-66.5 10 .3-.8.6-1.5.9-2.3 7.7-19.8 13.8-42.8 18-67.7 23.6-.9 45.3-2.3 64.1-4 6.9-.6 13.2-1.3 19-2-8.4 24.7-20.5 47-35.5 66zm37.7-72.9c-7.2.9-16 1.8-26.4 2.8-17.2 1.4-36.7 2.6-57.7 3.5 3.7-24 5.6-49.7 5.8-76.2h89.1c-.3 24.5-4.1 48-10.8 69.9z"/></g></g><g clip-path="url(#b)"><path fill="#7F7F7F" d="M184.7 161.7l2.4-.7 29.5-14.2s61.9 4.9 67.9 5.1c6.1.2 11.2 1.5 17.4 7 5.3 4.7 24.8 41.2 31.3 48.9l-112.7 44.6-35.8-90.7z"/><path fill="#7F7E7C" d="M302.5 161.2l-30.2 22c6.3 15.6 4.6 28.5 21 36.6-6.1 4.1 11.5 33.2-3.7 28.4l12.9 1c11.9 3.5 11.8-.4 21.2 1.7 25.4 5.8 31.5.7 34.3-7.7 8-24-12.3-38.6-55.5-82z"/><path opacity=".1" fill="#010000" d="M308.4 245.3c1.8 1.2 37.4 8.2 41.9 1.2 4.6-7.1 12.2-4.8 1-28-6.1-12.6-15.8-28.7-32-37.5-17-9.2-14.8-16.9-27.9-24-13.1-7.1-41.1 2.4-52.6 1.7s-1.6-4-1.6-4-.2-2.9.3-3.7l3.2-2.7s37.6 4.1 43.7 4.3c6.1.2 11.2 1.5 17.4 7 .8.7 2 2.3 3.4 4.4 41.3 41.4 60.6 55.7 52.7 79.3-2.8 8.3-8.9 13.5-34.3 7.6-1.1-.3-2.1-.5-3-.6-13.3-.8-30.1-5.1-32.5-.3-16-6.3 4.7-5.6 4.7-5.6s13.8-.3 15.6.9z"/><path opacity=".2" fill="#010000" d="M289.9 216.1c-.7 0 20.2 1.4 20.2 1.4s-22.5-20.4-27.7-25.5c2.9 6.6 7.7 11 7.7 14.3 0 3.3 8.2 3.7 9.4 5.8 1.3 2.2-8 4.1-9.6 4z"/><path fill="#7F7E7C" d="M118 214.5h173.9V345H118z"/><path fill="#7F7F7F" d="M222.3 161.7l-2.4-.7-29.5-14.2s-61.9 1-67.9 1.1c-6.1.2-11.2 1.5-17.4 7-5.3 4.7-24.8 45.1-31.3 52.9l112.7 44.6 35.8-90.7z"/><path fill="#137EBF" d="M199.2 168.5h5.2l48 20.5s25.9 16.5 20.8 29.2c-5 12.7-26.7 39.1-33.6 50.8-6.8 11.7-25.3 39.6-32.4 42.5-7.1 2.9-59.6-58.7-66.9-78.7-7.3-20 2.8-38.9 5.2-41.7 2.4-2.7 53.7-22.6 53.7-22.6z"/><g opacity=".3" fill="#010000"><path opacity=".1" d="M206.1 247.1c.2 14.8-18.3 12.9-34.6 16.6-16.3 3.7 2.6 5.7 3.5 4.9.9-.8 33.5 1.7 31.1-21.5z"/><path opacity=".1" d="M206.3 247.1c-.2 14.8 18.3 12.9 34.6 16.6 16.3 3.7-2.6 5.7-3.5 4.9-.9-.8-33.5 1.7-31.1-21.5z"/></g><g opacity=".3" fill="#010000"><path opacity=".1" d="M206.1 269.6c.2 14.8-18.3 12.9-34.6 16.6-16.3 3.7 2.6 5.7 3.5 4.9.9-.8 33.5 1.6 31.1-21.5z"/><path opacity=".1" d="M206.3 269.6c-.2 14.8 18.3 12.9 34.6 16.6 16.3 3.7-2.6 5.7-3.5 4.9-.9-.8-33.5 1.6-31.1-21.5z"/></g><path opacity=".2" fill="#010000" d="M205.5 169.8l53.7 38.6s1.9 19.7-2.4 24c-16.8 16.6-29.7 29.3-49.6 60.5-8.2 12.8-4.7 46.3-4.7 46.3l60-13.8 9.8-101.2-15.6-75-51.2 20.6z"/><path opacity=".1" fill="#010000" d="M204 224.9c.2 16-24.6 13.9-46.5 17.9-21.9 4 3.5 6.1 4.7 5.3 1.2-.9 45 1.7 41.8-23.2z"/><path opacity=".1" fill="#010000" d="M204.3 224.9c-.2 16 24.6 13.9 46.5 17.9 21.9 4-3.5 6.1-4.7 5.3-1.2-.9-45 1.7-41.8-23.2z"/><path fill="#FDDBA4" d="M167 128.5h74.3v39.2H167z"/><g fill="#FFF"><path d="M178.5 216.1l.7-.4 14.9-7.8c-.2-1-1.2-1.7-2.2-1.7l-13.7 1.1c-1.1.1-2 1.1-1.9 2.2l.2 1.9c.1 1.1-.7 2.2-1.8 2.2l-2 .2 3 30.3 2.6-27.3.2-.7zM193.7 224.2h-3.6v4.4h3.6c1.4 0 2.4-.8 2.4-2.2 0-1.4-1-2.2-2.4-2.2z"/><path d="M210.9 200.8l-31 16.1-3.3 34.4 30.8-2.4 17.3-1.4 11.1-.9 3.3-34.4-28.2-11.4zm-14.4 36.5l-3.5-5.7h-2.9v5.7h-3.5v-16.2h7.6c3.4 0 5.4 2.2 5.4 5.2 0 2.9-1.4 4.4-3.2 4.8l4 6.2h-3.9zm17.5-13.1h-8v3.4h7.1v3H206v3.7h8v3h-11.5v-16.2H214v3.1zm17.5 10.4c-1.7 1.9-4 3.1-6.9 3.1-4.7 0-8.6-3.3-8.6-8.4 0-5.1 3.9-8.4 8.6-8.4 3.4 0 5.5 1.7 6.7 3.6l-2.9 1.6c-.7-1.2-2.1-2.1-3.8-2.1-2.9 0-5.1 2.3-5.1 5.3 0 3.1 2.1 5.3 5.1 5.3 1.4 0 2.8-.6 3.5-1.2v-1.7h-4.3v-3.1h7.7v6z"/></g><path fill="#E4E4E4" d="M206.2 169.5l56.9 38.6s2.1 19.7-2.5 23.9c-17.8 16.6-31.5 29.3-52.6 60.5-8.7 12.8-5 46.3-5 46.3l63.6-13.8L277 223.8 260.7 150l-16.6-6.5-37.9 26z"/><path fill="#F2F2F2" d="M217.4 293.3c21.1-31.2 34.8-43.9 52.6-60.5 4.5-4.2 2.5-23.9 2.5-23.9l-56.9-38.6 34.5-23.7-6-2.4-38 26 56.9 38.6s2.1 19.7-2.5 23.9c-17.8 16.6-31.5 29.3-52.6 60.5-8.7 12.8-5 46.3-5 46.3l9.3-2c-.6-7.3-2.1-33.2 5.2-44.2z"/><path opacity=".2" fill="#010000" d="M205.6 169.8l-55 38.6s-2 19.7 2.4 24c17.2 16.6 30.5 29.3 50.8 60.5 8.4 12.8 3.1 46.3 3.1 46.3l-59.6-13.8-10-101.2 15.9-75 52.4 20.6z"/><path fill="#E4E4E4" d="M203.8 169.8l-56.9 38.6s-2 19.7 2.5 24c17.8 16.6 31.5 29.3 52.6 60.5 8.7 12.8 5 46.3 5 46.3l-63.6-13.8L133 224.1l16.5-75 54.3 20.7z"/><path fill="#F2F2F2" d="M202 293.7c-21.1-31.2-34.8-43.9-52.6-60.5-4.5-4.2-2.5-24-2.5-24l56.9-38.6-54.3-20.7-.6 2.7 46.3 17.6-56.9 38.6s-2.1 19.7 2.5 23.9c17.8 16.6 31.5 29.3 52.6 60.5 7.6 11.2 5.7 38.1 5.1 44.7l8.5 1.8c0 .2 3.6-33.2-5-46z"/><path fill="#034D7A" d="M224 168.8l-41.3-1s5.5 14.9 13.9 19.6c8.4 4.7 22.8-.9 27.4-16.5"/><path opacity=".1" fill="#010000" d="M279.7 289.1c3.6-10.8 14.3-73.8 14.3-73.8l-16.7-13.6 10.1-8.4-24.4-41.6-11.3-4.4 11.8 75.6L250 328.6l19.5-2.9 10.2-36.6z"/><path fill="#5E5E5E" d="M277.5 286.5c3.6-10.7 14.3-73.8 14.3-73.8L275 199.1l10.1-8.4-24.4-41.7-9.2-3 15.2 74.2-12.2 108.2 12.6-5.4 10.4-36.5z"/><path opacity=".1" d="M241.8 142.4l11.7 5.8-22.8 51.6-25.7-32.1z"/><path fill="#EDEDED" d="M241.1 141.3l11.4 5.3-22.5 45.5-26-24.8z"/><path opacity=".1" d="M168 143.9l-12 6.5 21.9 49.4 25.6-32.1z"/><path fill="#F7C981" d="M248.2 98.1c-.2 1.8-1.8 3.2-3.6 3h-.4c-1.8-.2-3.2-1.8-3-3.6l1.3-14.4c.2-1.8 1.8-3.2 3.6-3h.4c1.8.2 3.2 1.8 3 3.6l-1.3 14.4zM159.3 98.1c.2 1.8 1.8 3.2 3.6 3h.4c1.8-.2 3.2-1.8 3-3.6L164.9 83c-.2-1.8-1.8-3.2-3.6-3h-.4c-1.8.2-3.2 1.8-3 3.6l1.4 14.5z"/><path fill="#FFD380" d="M204.5 32h-1c-23.6 0-42.8 25.8-42.8 57.6 2.5 17.7 8.1 38.5 13.6 43.9 8.3 8.3 21.6 12.7 29.1 10.8.1 0 .2 0 .2.1v.1-.1s.5 0 .6-.1c7.5 1.9 21.1-2.6 29.4-10.8 5.4-5.4 11.1-26.2 13.6-43.9 0-31.8-19.1-57.6-42.7-57.6z"/><path fill="#FF8080" d="M191 107c0 5.5-4.5 10-9.9 10-5.5 0-9.9-4.5-9.9-10s4.5-9.9 9.9-9.9 9.9 4.4 9.9 9.9zM236.9 107c0 5.5-4.5 10-10 10s-9.9-4.5-9.9-10 4.5-9.9 9.9-9.9c5.5 0 10 4.4 10 9.9z"/><path fill="#FFF" d="M234.1 87.8c0 2.2-4.5 3.9-10.1 3.9s-10.1-1.8-10.1-3.9c0-2.2 4.5-3.9 10.1-3.9s10.1 1.8 10.1 3.9M192.5 87.8c0 2.2-4.5 3.9-10.1 3.9s-10.1-1.8-10.1-3.9c0-2.2 4.5-3.9 10.1-3.9s10.1 1.8 10.1 3.9"/><path opacity=".2" fill="#14120E" d="M209.7 108.6c0 2.6-2.3 4.7-5.1 4.7h-.1c-2.8 0-5.1-2.1-5.1-4.7V87.4c0-2.6 2.3-4.7 5.1-4.7h.1c2.8 0 5.1 2.1 5.1 4.7v21.2z"/><g opacity=".1" fill="#010000"><path d="M164 87.4c-1.6-9.4 7-30.9 8.1-32.5 5.3 2.5 16 3.1 17.8 1.5 4.3 3.2 15 10.9 30.5 1.6 6.8-4.3 13-4.1 14.1-3.9 1.1.2 9 21.6 9 34.7 1.3 1.1 2.1 2.6 2.1 2.6s3.7-43.4-.5-47.5c-4.3-4.1-11.1-10.4-19.1-13.8-8-3.4-10.7-9.1-10.7-10.7-.9 4.8-.5 7.8-.2 8.4-6.4-4.8-10.4-11.6-10.2-15.8-5.5-.1-17.3 9-19.4 11.9-3.4-.4-20.2 12.8-23.2 18.7-3 5.9-1.4 44.4 0 47.1.3-.9.9-1.9 1.7-2.3z"/><path d="M236.9 50.1c-3.4-6.9-11.7 0-21.3 0-9.8 0-40.2-1.4-43.4 5.6 13.2 8.2 30.4 7.3 34.3 7.2 1.4.5 2.4 1.6 1.3 3.9-2 4.3-6.1 1.8-4.8-.6-3.1 1.9-.4 6.6 5.1 4.9 3.2-1 5.8-5 6.6-8.6h.5c8.2-.8 13.2 1.9 16.6 3.7-.2-1.4-.9-3.5-5.3-7.5 6.7 2.2 9 6.7 10.8 10.2-.1-1.4 1.6-10.6 1.6-10.6s-3.2-9.7-2-8.2z"/></g><g fill="#77513B"><path d="M164 85.4c-1.6-9.4 7-30.9 8.1-32.5 5.3 2.5 16 3.1 17.8 1.5 4.3 3.2 15 10.9 30.5 1.6 6.8-4.3 13-4.1 14.1-3.9 1.1.2 9 21.6 9 34.8 1.3 1.2 2.1 2.6 2.1 2.6s3.7-43.4-.5-47.5c-4.3-4.1-11.1-10.4-19.1-13.8-8-3.4-10.7-9.1-10.7-10.7-.9 4.8-.5 7.8-.2 8.4-6.4-4.8-10.4-11.6-10.2-15.8-5.5-.1-17.3 9-19.4 11.9-3.4-.4-20.2 12.8-23.2 18.7-3 5.9-1.4 44.4 0 47.1.3-.9.9-2 1.7-2.4z"/><path d="M236.9 48.1c-3.4-6.9-11.7 0-21.3 0-9.8 0-40.2-1.4-43.4 5.6 13.2 8.2 30.4 7.3 34.3 7.2 1.4.5 2.4 1.6 1.3 3.9-2 4.3-6.1 1.8-4.8-.6-3.1 1.9-.4 6.6 5.1 4.9 3.2-1 5.8-5 6.6-8.6h.5c8.2-.8 13.2 1.9 16.6 3.7-.2-1.3-.9-3.5-5.3-7.5 6.7 2.2 9 6.7 10.8 10.2-.1-1.4 1.6-10.6 1.6-10.6s-3.2-9.7-2-8.2z"/></g><path fill="#FFF" d="M183.9 86.9c0 .4-.3.7-.7.7-.4 0-.7-.3-.7-.7s.3-.7.7-.7c.4-.1.7.3.7.7"/><path fill="#422902" d="M226.6 87.8c0 1.6-1.3 2.9-2.9 2.9-1.6 0-2.9-1.3-2.9-2.9 0-1.6 1.3-2.9 2.9-2.9 1.6.1 2.9 1.4 2.9 2.9"/><path fill="#FFF" d="M223.5 86.7c0 .5-.4.9-.9.9s-.9-.4-.9-.9.4-.9.9-.9.9.4.9.9"/><path fill="#422902" d="M185.3 87.8c0 1.6-1.3 2.9-2.9 2.9-1.6 0-2.9-1.3-2.9-2.9 0-1.6 1.3-2.9 2.9-2.9 1.6.1 2.9 1.4 2.9 2.9"/><path fill="#FFF" d="M182.2 86.7c0 .5-.4.9-.9.9s-.9-.4-.9-.9.4-.9.9-.9.9.4.9.9"/><path fill="#422902" d="M192.4 79.2c-.2 1.2-1.4 2-2.8 1.8l-15.7-2.3c-1.4-.2-2.4-1.3-2.2-2.5.2-1.2 1.4-2 2.8-1.8l15.7 2.3c1.4.2 2.4 1.3 2.2 2.5zM237 76.4c.1 1.2-.9 2.3-2.3 2.5l-15.8 2c-1.4.2-2.7-.7-2.8-1.9-.1-1.2.9-2.3 2.2-2.5l15.8-2c1.5-.2 2.8.7 2.9 1.9z"/><path opacity=".2" fill="#010000" d="M165 130.5c0 15.3 27.5 29.6 39.4 29.6h.3c12.2 0 39.7-16.6 39.7-31.9v-16.7c3.2-10.5-14.5 5.3-35.7 5.3h-3.1c-23.8 0-40.4-17.9-40.7-7.4l.1 21.1z"/><path fill="#77513B" d="M165 128.1c0 15.3 27.5 30.4 39.4 30.4h.3c12.2 0 39.7-18.3 39.7-33.6v-16.7c3.2-10.5-14.5 8.5-35.7 8.5h-3.1c-23.8 0-40.4-19.1-40.7-8.6l.1 20z"/><path fill="#FFF" d="M220.6 119c0 7.2-7.1 13.1-15.9 13.1s-16-5.9-16-13.1 7.1-.8 16-.8c8.8 0 15.9-6.4 15.9.8"/><g fill="#63402E"><path d="M244.7 98.8s-13.5 18.5-35.3 9.7c-9.7 0-8.5 9.4-1.5 10.5 11.9 1.9 37 .4 36.8-19.3"/><path d="M164.6 98.8s13.5 18.5 35.3 9.7c9.7 0 8.5 9.4 1.5 10.5-11.9 1.9-37 .4-36.8-19.3"/></g><path fill="#FF8080" d="M209.7 106.4c0 2.8-2.3 5.1-5.1 5.1h-.1c-2.8 0-5.1-2.3-5.1-5.1V83.7c0-2.8 2.3-5.1 5.1-5.1h.1c2.8 0 5.1 2.3 5.1 5.1v22.7z"/><path opacity=".3" fill-rule="evenodd" clip-rule="evenodd" d="M216 77.3c-2.7.9-5 1.5-6.8 1.9-4 1-4.9 1-8.9 0-1.8-.4-4-1-6.8-1.9-7.3-2.3-21.9-2.4-33.4.3l.3 5.2s2.2-.8 3.2 6c1.1 6.8 2 16.2 17.6 16.5 15.6.2 18.8-14 19.7-16 .9-2 1.1-3.6 2-4 1.2-.6 2.2-.6 3.4 0 1 .4 1.2 1.9 2 4 .9 2 4.1 16.2 19.7 16 15.6-.2 16.6-9.7 17.6-16.5 1.1-6.8 3.2-6 3.2-6l.3-5.2c-11.2-2.7-25.8-2.6-33.1-.3zm-19.3 14.5c-3.2 9.7-10.3 11.8-16.1 11.6-5.5-.2-9.5-1.8-12.3-6.8-2-3.6-3.1-8.4-1.6-12.7 1.1-3.2 4.2-4.7 7.4-5.4 4.8-1.1 13.8-.9 18.3 1.2 3.7 1.7 6.6 5.2 4.3 12.1zm44.5 4.9c-2.8 4.9-6.8 6.6-12.3 6.8-5.7.2-12.9-1.9-16.1-11.6-2.3-7 .6-10.4 4.2-12.1 4.5-2.1 13.5-2.3 18.3-1.2 3.2.7 6.3 2.2 7.4 5.4 1.6 4.3.5 9.1-1.5 12.7z"/><path fill="#EDEDED" d="M167.3 77.9c0 .5-1.2 1-2.8 1-1.6 0-2.8-.4-2.8-.9s1.2-1 2.8-1c1.5 0 2.8.4 2.8.9M248.2 77.9c0 .5-1.2 1-2.8 1-1.6 0-2.8-.4-2.8-.9s1.2-1 2.8-1c1.6 0 2.8.4 2.8.9"/><path fill-rule="evenodd" clip-rule="evenodd" fill="#073B44" d="M160.1 75.7l.3 5.2s2.2-.7 3.2 6c1.1 6.8 2 16.2 17.6 16.5 15.6.2 18.8-14 19.7-16 .9-2 1.1-3.6 2-4 1.2-.6 2.2-.6 3.4 0 1 .4 1.2 1.9 2 4 .9 2 4.1 16.2 19.7 16 15.6-.2 16.6-9.7 17.6-16.5 1.1-6.8 3.2-6 3.2-6l.3-5.2c-11.5-2.7-26.1-2.6-33.5-.3-2.7.8-5 1.5-6.8 1.9-4 1-4.9 1-8.9 0-1.8-.4-4-1-6.8-1.9-6.8-2.3-21.5-2.4-33 .3m14.1.9c-3.2.7-6.3 2.2-7.4 5.4-1.6 4.4-.4 9.2 1.6 12.7 2.8 4.9 6.8 6.6 12.3 6.8 5.7.2 12.9-1.9 16.1-11.6 2.3-7-.6-10.4-4.2-12.1-4.6-2.1-13.6-2.2-18.4-1.2m61.1 0c3.2.7 6.3 2.2 7.4 5.4 1.5 4.4.4 9.2-1.6 12.7-2.8 4.9-6.8 6.6-12.3 6.8-5.7.2-12.9-1.9-16.1-11.6-2.3-7 .6-10.4 4.2-12.1 4.7-2.1 13.6-2.2 18.4-1.2m10 .7c-1.2-.1-2.3.2-2.3.6 0 .4 1 .8 2.3.8 1.2.1 2.3-.2 2.3-.6 0-.4-1-.7-2.3-.8m-81.1 0c1.2-.1 2.3.2 2.3.6 0 .4-1 .8-2.3.8-1.2.1-2.3-.2-2.3-.6 0-.4 1.1-.7 2.3-.8"/><path opacity=".2" d="M202 306.3c-1.2 0-2.2-1-2.2-2.2 0-1.2 1-2.1 2.3-2.1 1.2 0 2.2 1 2.2 2.2 0 1.2-1.1 2.1-2.3 2.1z"/><path fill="#086333" d="M202.2 306.1c-1.2 0-2.2-1-2.2-2.2 0-1.2 1-2.1 2.3-2.1 1.2 0 2.2 1 2.2 2.1 0 1.3-1 2.2-2.3 2.2z"/><path fill="#3F9DFF" d="M202.4 306.1c-1.2 0-2.2-1-2.2-2.2 0-1.2 1-2.1 2.3-2.1 1.2 0 2.2 1 2.2 2.1 0 1.3-1.1 2.2-2.3 2.2z"/><path opacity=".2" fill="#FFF" d="M202.4 305.7c-1 0-1.8-.8-1.8-1.8s.9-1.7 1.9-1.7c1 0 1.8.8 1.8 1.7 0 1.1-.9 1.8-1.9 1.8z"/><g opacity=".25"><ellipse cx="203.1" cy="303.3" rx=".4" ry=".3"/><ellipse cx="203.1" cy="304.6" rx=".4" ry=".3"/><ellipse cx="201.7" cy="303.3" rx=".4" ry=".3"/><ellipse cx="201.7" cy="304.6" rx=".4" ry=".3"/></g><path opacity=".25" d="M201.7 304.8l.6-.5.6.5c.1.1.2.1.2 0 .1-.1.1-.2 0-.2l-.6-.5.6-.6c.1-.1.1-.2 0-.2-.1-.1-.2-.1-.2 0l-.6.5-.6-.5c-.1-.1-.2-.1-.3 0-.1.1-.1.2 0 .2l.6.6-.6.5c-.1.1-.1.2 0 .2.1.1.2.1.3 0z"/><path fill="#FF7A6C" d="M201.8 304.8l.6-.5.6.5c.1.1.2.1.3 0 .1-.1.1-.2 0-.2l-.6-.6.6-.6c.1-.1.1-.2 0-.2-.1-.1-.2-.1-.3 0l-.6.6-.6-.6c-.1-.1-.2-.1-.3 0-.1.1-.1.2 0 .2l.6.6-.6.6c-.1.1-.1.2 0 .2h.3z"/><path opacity=".2" d="M176.2 267.6c-1.2 0-2.2-1-2.2-2.1 0-1.2 1-2.1 2.3-2.1 1.2 0 2.2 1 2.2 2.1 0 1.2-1.1 2.2-2.3 2.1z"/><path fill="#086333" d="M176.4 267.4c-1.2 0-2.2-1-2.2-2.2 0-1.2 1-2.1 2.3-2.1 1.3 0 2.2 1 2.2 2.1 0 1.3-1 2.2-2.3 2.2z"/><path fill="#3F9DFF" d="M176.6 267.4c-1.2 0-2.2-1-2.2-2.2 0-1.2 1-2.1 2.3-2.1 1.2 0 2.2 1 2.2 2.1 0 1.3-1 2.2-2.3 2.2z"/><path opacity=".2" fill="#FFF" d="M176.6 267c-1 0-1.8-.8-1.8-1.7 0-1 .9-1.7 1.9-1.7 1 0 1.8.8 1.8 1.7 0 1-.9 1.7-1.9 1.7z"/><g opacity=".25"><path d="M177.3 265c-.2 0-.4-.2-.4-.3 0-.2.2-.3.4-.3s.4.1.4.3c-.1.1-.2.3-.4.3z"/><ellipse cx="177.3" cy="266" rx=".4" ry=".3"/><path d="M175.9 265c-.2 0-.4-.2-.4-.3 0-.2.2-.3.4-.3s.4.1.4.3c-.1.1-.2.3-.4.3zM175.9 266.3c-.2 0-.4-.2-.4-.3 0-.2.2-.3.4-.3s.4.1.4.3c-.1.1-.2.3-.4.3z"/></g><path opacity=".25" d="M175.9 266.1l.6-.5.6.5c.1.1.2.1.3 0 .1-.1.1-.2 0-.2l-.6-.6.6-.6c.1-.1.1-.2 0-.2-.1-.1-.2-.1-.3 0l-.6.5-.6-.5c-.1-.1-.2-.1-.2 0-.1.1-.1.2 0 .2l.6.6-.6.6c-.1.1-.1.2 0 .2 0 .1.1.1.2 0z"/><path fill="#FF7A6C" d="M176 266.1l.6-.6.6.6c.1.1.2.1.3 0 .1-.1.1-.2 0-.2l-.6-.6.6-.6c.1-.1.1-.2 0-.2-.1-.1-.2-.1-.3 0l-.6.6-.6-.6c-.1-.1-.2-.1-.2 0-.1.1-.1.2 0 .2l.6.6-.6.6c-.1.1-.1.2 0 .2 0 .1.1.1.2 0z"/><path fill="#7F7E7C" d="M104.5 157.3l30.2 26c-6.3 15.6-4.6 28.5-21 36.6 6.1 4.1-11.5 33.2 3.7 28.4l-12.9 1c-11.9 3.5-11.8-.4-21.2 1.7-25.4 5.8-31.5.7-34.3-7.7-8.1-24.1 12.3-42.6 55.5-86z"/><path opacity=".1" fill="#010000" d="M98.5 245.3c-1.8 1.2-37.4 8.2-41.9 1.2-4.6-7.1-12.2-4.8-1-28 6.1-12.6 15.8-28.7 32-37.5 17-9.2 14.8-20.9 27.9-28 13.1-7.1 41.1 6.4 52.6 5.7 11.5-.7 1.6-4 1.6-4s.2-2.9-.3-3.7l-3.2-2.7s-37.6.1-43.7.3c-6.1.2-11.2 1.5-17.4 7-.8.7-2 2.3-3.4 4.5-41.3 41.4-60.6 59.7-52.7 83.2 2.8 8.3 8.9 13.5 34.3 7.6 1.1-.3 2.1-.5 3-.6 13.3-.8 30.1-5.1 32.5-.3 16-6.3-4.7-5.6-4.7-5.6s-13.8-.3-15.6.9z"/><path fill="#5E5E5E" d="M132.5 286.5c-3.6-10.7-14.3-73.8-14.3-73.8l16.7-13.6-10.1-8.4 24.4-41.7 7.1-2.1-13.1 73.3 12.1 108.2-12.6-5.4-10.2-36.5z"/><path opacity=".1" fill="#010000" d="M130.3 289.1c-3.6-10.8-14.3-73.8-14.3-73.8l16.7-13.6-10.1-8.4 24.4-41.6 11.3-4.4-11.8 75.6L160 328.6l-19.5-2.9-10.2-36.6z"/><path fill="#EDEDED" d="M167.3 142.1L155 147l23.1 45.1 26-24.7z"/><path opacity=".3" fill="#010000" d="M212.4 187.4l-4.7 11.2s-72.2-5.8-87.5-50.3c38 .5 27.6 2.7 27.6 2.7s23.2 24.2 34 31c11 6.8 30.6 5.4 30.6 5.4z"/><path fill="#005695" d="M99.2 113.5c-.6-.7 1.1-7.8 2.7-21 13.3 2 20 7.8 20.8 9.3 24.3 44.6 67.7 81.6 78.3 85.1 7.4 2.5 11.8-.9 11.8-.9s3.7 13-7.2 12.5c-10.8-.3-47.7-16.5-106.4-85z"/><path opacity=".15" fill="#010000" d="M234.7 268.1c-.1.2-.5.2-.8 0l-3.1-2.1c-.3-.2-.5-.6-.3-.8.1-.2.5-.2.8 0l3.1 2.1c.3.2.4.6.3.8z"/><path opacity=".1" fill="#010000" d="M213.2 187.4c-4.6 15.2-12 6.8-41.1-8.7s-59.3-59.3-64.8-68.8-5.3-17.4-5.3-17.4c-1.6 13.1-3.3 20.2-2.7 21 58.6 68.6 95.6 84.7 106.5 85.1 8.7.4 8-7.9 7.4-11.2z"/><g><path fill="#E8B170" d="M257.6 212.8l-1.2.5 1 4.3-3.4 4.5v3.7l-2.1 5.2.4 3.9-2.4 4 5.7 6.4 3-2.9 16.3-20z"/><g fill="#E8B170"><path d="M266 206.3c-1.7-.8-4 .5-5.2 2.9-1.2 2.4-.7 5.1 1 5.9l17.2 8.3c1.7.8 4-.5 5.2-2.9 1.2-2.4.7-5-.9-5.9l-17.3-8.3"/><path d="M252.9 218.4c-.9 1.1.1 3.3 2.3 4.9 2.1 1.7 4.5 2.2 5.4 1.1l8.8-10.9c.9-1.1-.1-3.3-2.3-4.9-2.1-1.7-4.5-2.1-5.4-1.1l-8.8 10.9"/></g><path fill="#E4E4E4" d="M289.7 248.1s10.6.4 13.6.7c3.9-2.7 8.7-22.6 1-31.6-7-.5-12.3-2-12.3-2l-2.3 32.9z"/><ellipse transform="rotate(-86.106 290.864 231.644)" fill="#3F3F3F" cx="290.9" cy="231.6" rx="16.5" ry="7.9"/><g fill="#FFD380"><path d="M281.9 246.2c8 .8 11.3-1.7 14.5-7 2.4-4 3.8-11.3 1.5-17-.6-1.6-2.7-2.6-5.4-4.2s-4.4-1.4-12-4.1c-7.6-2.7-16.6-2.6-17.2 17.5-.3 9.5.1 12.9 8.1 13.7l10.5 1.1z"/><path d="M246.5 219.2c-2.1-.2-3.7-2-3.5-4.2.2-2.1 2-3.7 4.2-3.5l27 1.4c2.1.2 3.7 2 3.5 4.2-.2 2.1-2 3.7-4.2 3.5l-27-1.4zM246.1 227.4c-2.1-.2-3.7-2-3.5-4.2.2-2.1 2-3.7 4.2-3.5l23.4 1.3c2.1.2 3.7 2 3.5 4.2-.2 2.1-2 3.7-4.2 3.5l-23.4-1.3zM248.1 236c-2.1-.1-3.7-2-3.6-4.1.1-2.1 2-3.7 4.1-3.6l23.1 1c2.1.1 3.7 2 3.6 4.1-.1 2.1-2 3.7-4.1 3.6l-23.1-1zM252 244c-2-.2-3.5-1.9-3.3-3.9.2-2 1.9-3.5 3.9-3.3l20.6 1.5c2 .2 3.5 1.9 3.3 3.9-.2 2-1.9 3.5-3.9 3.3L252 244z"/><path d="M260.29 240.21l1.693-25.443 9.48.63-1.694 25.445z"/><path d="M255.99 241.426l.373-5.587 9.48.63-.374 5.588z"/></g><path opacity=".1" fill="#010000" d="M292 215h-.1c3.4 2 5.6 8.7 5.1 16.6-.6 9-4.6 16.1-8.9 15.9.5.3 1.1.5 1.7.5 4.4.3 8.4-6.9 9-16 .6-9-2.5-17-6.8-17z"/><path opacity=".2" fill="#010000" d="M298.2 235l-3.3 6.5s-1.5 3.5 3.6 3.7c5.1.1 7.2.1 7.2.1s2-4 1.9-7.8c0-2.5-9.4-2.5-9.4-2.5z"/><path fill="#E4E4E4" d="M299.1 232.8s-2 5.4-3.7 7.6c-.8 1-1 3.4 3.6 3.7 5.1.3 7.3-.5 7.3-.5s1.9-3.8 1.7-8.1c0-2.2-8.9-2.7-8.9-2.7z"/><path opacity=".2" d="M299.6 241.8c-.9.5-2.1.2-2.5-.7-.5-.9-.1-2 .8-2.5s2-.2 2.5.7c.5.9.1 2-.8 2.5z"/><path fill="#086333" d="M299.7 241.6c-.9.5-2.1.2-2.5-.7-.5-.9-.1-2 .8-2.5s2.1-.2 2.5.7c.5.9.1 2-.8 2.5z"/><path fill="#3F9DFF" d="M299.8 241.5c-.9.5-2.1.2-2.5-.7-.5-.9-.1-2 .8-2.5s2.1-.2 2.5.7c.5.9.1 2-.8 2.5z"/><path opacity=".2" fill="#FFF" d="M299.6 241.2c-.8.4-1.7.2-2.1-.5-.4-.7-.1-1.6.7-2 .8-.4 1.7-.2 2.1.6.4.6.1 1.5-.7 1.9z"/><path d="M299.3 239.4c-.1.1-.3 0-.4-.1-.1-.1 0-.3.1-.4.1-.1.3 0 .4.1.1.1 0 .3-.1.4zM299.8 240.4c-.1.1-.3 0-.4-.1-.1-.1 0-.3.1-.4.2-.1.3 0 .4.1.1.1.1.3-.1.4zM298.2 240c-.1.1-.3 0-.4-.1-.1-.1 0-.3.1-.4.1-.1.3 0 .4.1.1.1.1.3-.1.4zM298.8 241c-.2.1-.3 0-.4-.1-.1-.1 0-.3.1-.4.1-.1.3 0 .4.1.1.1 0 .3-.1.4z"/><path opacity=".25" d="M298.7 240.8l.2-.7.7.2c.1 0 .2 0 .2-.1s0-.2-.1-.2l-.7-.2.2-.6c0-.1 0-.2-.1-.2s-.2 0-.2.1l-.2.6-.7-.2c-.1 0-.2 0-.2.1s0 .2.1.2l.7.2-.2.6c0 .1 0 .2.1.2.1.2.2.1.2 0z"/><path fill="#FF7A6C" d="M298.8 240.8l.2-.6.7.2c.1 0 .2 0 .2-.1s0-.2-.1-.2l-.7-.2.2-.6c0-.1 0-.2-.1-.2s-.2 0-.2.1l-.2.7-.7-.2c-.1 0-.2 0-.2.1s0 .2.1.2l.7.2-.2.6c0 .1 0 .1.1.2l.2-.2z"/><path opacity=".2" fill="#010000" d="M302.6 217.1c3.4 1.9 4.8 8 4.3 15.9-.6 9-3.6 15.8-8 15.6.5.3 2.7.2 4.4.3 2.8-2.8 4.4-6.4 5-15.5.7-9.1-2.7-17.3-5.7-16.3z"/></g><path opacity=".2" fill="#010000" d="M121.1 216.9c.7 0-20.2 1.4-20.2 1.4s22.5-20.4 27.7-25.5c-2.9 6.6-7.7 11-7.7 14.3 0 3.3-8.2 3.7-9.4 5.8-1.3 2.2 8 4.1 9.6 4z"/><g><path fill="#E8B170" d="M155.7 212.8l1.2.5-2.7 4.3 1.8 4.5v3.7l3.8 5.2.4 3.9 2.8 4-5.5 6.4-2.9-2.9-16.2-20z"/><g fill="#E8B170"><path d="M147.3 206.3c1.7-.8 4 .5 5.2 2.9 1.2 2.4.7 5.1-1 5.9l-17.2 8.3c-1.7.8-4-.5-5.2-2.9-1.2-2.4-.7-5 1-5.9l17.2-8.3"/><path d="M160.4 218.4c.9 1.1-.1 3.3-2.3 4.9-2.1 1.7-4.5 2.2-5.4 1.1l-8.8-10.9c-.9-1.1.1-3.3 2.3-4.9 2.1-1.7 4.5-2.1 5.4-1.1l8.8 10.9"/></g><path fill="#E4E4E4" d="M123.6 248.1s-10.6.4-13.6.7c-3.9-2.7-8.7-22.6-1-31.6 7-.5 12.3-2 12.3-2l2.3 32.9z"/><ellipse transform="rotate(-3.895 122.44 231.647)" fill="#3F3F3F" cx="122.4" cy="231.6" rx="7.9" ry="16.5"/><g fill="#FFD380"><path d="M131.4 246.2c-8 .8-11.3-1.7-14.5-7-2.4-4-3.8-11.3-1.5-17 .7-1.6 2.7-2.6 5.4-4.2s4.4-1.4 12-4.1c7.6-2.7 16.6-2.6 17.2 17.5.3 9.5-.1 12.9-8.1 13.7l-10.5 1.1z"/><path d="M166.8 219.2c2.1-.2 3.7-2 3.5-4.2-.2-2.1-2-3.7-4.2-3.5l-27 1.4c-2.1.2-3.7 2-3.5 4.2.2 2.1 2 3.7 4.2 3.5l27-1.4zM167.2 227.4c2.1-.2 3.7-2 3.5-4.2-.2-2.1-2-3.7-4.2-3.5l-23.4 1.3c-2.1.2-3.7 2-3.5 4.2.2 2.1 2 3.7 4.2 3.5l23.4-1.3zM165.2 236c2.1-.1 3.7-2 3.6-4.1-.1-2.1-2-3.7-4.1-3.6l-23.1 1c-2.1.1-3.7 2-3.6 4.1.1 2.1 2 3.7 4.1 3.6l23.1-1zM161.3 244c2-.2 3.5-1.9 3.3-3.9-.2-2-1.9-3.5-3.9-3.3l-20.5 1.5c-2 .2-3.5 1.9-3.3 3.9.2 2 1.9 3.5 3.9 3.3l20.5-1.5z"/><path d="M141.86 215.347l9.48-.63 1.693 25.443-9.48.63z"/><path d="M147.53 236.52l9.48-.63.37 5.587-9.478.632z"/></g><path opacity=".1" fill="#010000" d="M121.3 215h.1c-3.4 2-5.6 8.7-5.1 16.6.6 9 4.6 16.1 8.9 15.9-.5.3-1.1.5-1.7.5-4.4.3-8.4-6.9-9-16-.6-9 2.5-17 6.8-17z"/><path opacity=".2" fill="#010000" d="M115.1 235l3.3 6.5s1.5 3.5-3.6 3.7c-5.1.1-7.2.1-7.2.1s-2-4-1.9-7.8c0-2.5 9.4-2.5 9.4-2.5z"/><path fill="#E4E4E4" d="M114.2 232.8s2 5.4 3.7 7.6c.8 1 1 3.4-3.6 3.7-5.1.3-7.3-.5-7.3-.5s-1.9-3.8-1.7-8.1c0-2.2 8.9-2.7 8.9-2.7z"/><path opacity=".2" d="M113.7 241.8c.9.5 2.1.2 2.5-.7.5-.9.1-2-.8-2.5s-2-.2-2.5.7c-.5.9-.1 2 .8 2.5z"/><path fill="#086333" d="M113.6 241.6c.9.5 2.1.2 2.5-.7.5-.9.1-2-.8-2.5s-2.1-.2-2.5.7c-.4.9-.1 2 .8 2.5z"/><path fill="#3F9DFF" d="M113.5 241.5c.9.5 2.1.2 2.5-.7.5-.9.1-2-.8-2.5s-2.1-.2-2.5.7c-.5.9-.1 2 .8 2.5z"/><path opacity=".2" fill="#FFF" d="M113.7 241.2c.8.4 1.7.2 2.1-.5.4-.7.1-1.6-.7-2-.8-.4-1.7-.2-2.1.6-.4.6-.1 1.5.7 1.9z"/><path d="M114 239.4c.1.1.3 0 .4-.1.1-.1 0-.3-.1-.4-.2-.1-.3 0-.4.1-.1.1 0 .3.1.4zM113.5 240.4c.1.1.3 0 .4-.1.1-.1 0-.3-.1-.4-.2-.1-.3 0-.4.1-.1.1-.1.3.1.4zM115.1 240c.1.1.3 0 .4-.1.1-.1 0-.3-.1-.4-.1-.1-.3 0-.4.1-.1.1-.1.3.1.4zM114.5 241c.1.1.3 0 .4-.1.1-.1 0-.3-.1-.4-.1-.1-.3 0-.4.1-.1.1 0 .3.1.4z"/><path opacity=".25" d="M114.6 240.8l-.2-.7-.7.2c-.1 0-.2 0-.2-.1s0-.2.1-.2l.7-.2-.2-.6c0-.1 0-.2.1-.2s.2 0 .2.1l.2.6.7-.2c.1 0 .2 0 .2.1s0 .2-.1.2l-.7.2.2.6c0 .1 0 .2-.1.2-.1.2-.2.1-.2 0z"/><path fill="#FF7A6C" d="M114.5 240.8l-.2-.6-.7.2c-.1 0-.2 0-.2-.1s0-.2.1-.2l.7-.2-.2-.6c0-.1 0-.2.1-.2s.2 0 .2.1l.2.7.7-.2c.1 0 .2 0 .2.1s0 .2-.1.2l-.7.2.2.6c0 .1 0 .1-.1.2l-.2-.2z"/><path opacity=".2" fill="#010000" d="M110.7 217.1c-3.4 1.9-4.8 8-4.3 15.9.6 9 3.6 15.8 8 15.6-.5.3-2.7.2-4.4.3-2.8-2.8-4.4-6.4-5-15.5-.7-9.1 2.7-17.3 5.7-16.3z"/></g></g></svg>