<svg xmlns="http://www.w3.org/2000/svg" width="76.485" height="70.154" viewBox="0 0 76.485 70.154"><path fill="#1F3233" d="M76.18 66.438s-4.07-11.657-5.063-13.734c-.99-2.076-2.138-2.94-3.608-3.61-.358-.164-1.528-.683-3.09-1.372a6999.47 6999.47 0 0 0-12.073-5.315v.002c-.585-.26-1.02-.45-1.264-.557 0-.048.008-.095.008-.144v-3.442c2.214-2.48 3.874-5.895 4.67-9.828.072.014.13.055.202.06a1.88 1.88 0 0 0 2.013-1.74l.388-5.25a1.872 1.872 0 0 0-1.064-1.834v-6.928C57.296 5.706 50.715 0 42.597 0 34.478 0 27.9 5.706 27.9 12.746v6.908a1.873 1.873 0 0 0-1.117 1.854l.385 5.25a1.887 1.887 0 0 0 2.017 1.74c.073-.005.13-.046.2-.06.698 3.452 2.063 6.505 3.882 8.878v4.39c0 .048.007.095.008.143-.635.28-2.642 1.16-5.054 2.223a4351.346 4351.346 0 0 0-10.064 4.438l-.334.15c-.062.026-.126.055-.183.08l-.43.19a1.19 1.19 0 0 1-.064.03l-.293.13c-1.474.672-2.62 1.536-3.614 3.612-.993 2.078-5.06 13.736-5.06 13.736S6.916 69.78 9.534 69.78H74.823c2.62 0 1.356-3.342 1.356-3.342zM55.74 17.16c.047.22.067.408.07.55l-.07-.55zm-26.26-.426c-.02.127-.037.253-.055.38a4.84 4.84 0 0 1 .055-.38z"/><g fill="#FF4040"><path d="M75.946 48.507l-5.064-8.94h-.012a1.21 1.21 0 0 0-2.164.024h-.002l-5.167 8.886c-.14.197-.223.438-.225.696 0 .675.545 1.223 1.218 1.225l10.41.02a1.22 1.22 0 0 0 1.006-1.91z"/><path d="M66.95 44.08c.434 1.303.672 2.7.672 4.148 0 7.234-5.864 13.1-13.1 13.1-2.112 0-4.105-.503-5.873-1.392a14.174 14.174 0 0 0 9.41 3.562c7.854 0 14.223-6.37 14.223-14.225 0-2.552-.676-4.946-1.854-7.017l-3.48 1.823z"/></g><path fill="#3BA1F4" d="M68.305 66.812s-4.07-11.657-5.063-13.734c-.99-2.076-2.138-2.94-3.608-3.61-1.47-.67-16.644-7.337-16.644-7.337l-8.685.67-8.69-.67s-15.167 6.667-16.637 7.337c-1.474.67-2.62 1.535-3.614 3.61C4.37 55.156.304 66.813.304 66.813s-1.263 3.342 1.355 3.342H66.948c2.62 0 1.355-3.342 1.355-3.342"/><path fill="#E9B990" d="M43.215 42.083c0 4.585-3.99 8.3-8.91 8.3-4.924 0-8.913-3.715-8.913-8.3v-9.44c0-4.592 3.99-8.307 8.913-8.307 4.92 0 8.91 3.715 8.91 8.306v9.44z"/><path fill="#FFC58F" d="M43.215 40.585c0 4.583-3.99 8.302-8.91 8.302-4.924 0-8.913-3.72-8.913-8.302V31.14c0-4.585 3.99-8.302 8.913-8.302 4.92 0 8.91 3.717 8.91 8.3v9.447z"/><path opacity=".5" fill="#FFF" d="M61.09 50.34a7.767 7.767 0 0 0-1.46-.873c-1.186-.54-11.313-4.997-15.16-6.687-.55 5.435-4.863 9.687-10.165 9.687-5.304 0-9.618-4.252-10.165-9.687-3.848 1.69-13.975 6.146-15.163 6.687a7.8 7.8 0 0 0-1.46.872c3.85 3.057 6.657 10.684 6.987 19.814H54.104c.33-9.13 3.137-16.758 6.987-19.815"/><path fill="#EAB386" d="M43.215 42.083c0 4.585-3.99 8.3-8.91 8.3-4.924 0-8.913-3.715-8.913-8.3v-9.44c0-4.592 3.99-8.307 8.913-8.307 4.92 0 8.91 3.715 8.91 8.306v9.44z"/><path fill="#FFC58F" d="M43.215 40.585c0 4.583-3.99 8.302-8.91 8.302-4.924 0-8.913-3.72-8.913-8.302V31.14c0-4.585 3.99-8.302 8.913-8.302 4.92 0 8.91 3.717 8.91 8.3v9.447z"/><path fill="#FFD196" d="M48.752 19.867c-.2-.016-.393.027-.58.073-1.192-8.95-1.06-15.23-13.475-15.724-11.635-.462-12.28 6.773-13.475 15.724-.187-.046-.376-.09-.577-.073a1.88 1.88 0 0 0-1.736 2.017l.384 5.25a1.887 1.887 0 0 0 2.017 1.74c.074-.005.13-.046.202-.06 1.634 8.09 6.914 14.023 13.187 14.023 6.272 0 11.548-5.933 13.187-14.023.07.014.13.055.2.06a1.88 1.88 0 0 0 2.014-1.74l.39-5.25a1.88 1.88 0 0 0-1.738-2.017"/><path fill="#724430" d="M49.422 13.12c0-7.04-6.58-12.745-14.7-12.745S20.026 6.08 20.026 13.12v7.787c-.007.042-.025.08-.025.124 0 .4.332.717.743.717.41 0 .742-.317.742-.716l-.003-.015h.03v-2.893c0-2.427 1.16-2.947 2.08-2.314 0 0 4.695 2.81 11.755 0 11.167-4.447 12.59 1.037 12.59 2.314v2.787c-.01.04-.026.077-.026.12 0 .398.333.716.745.716.408 0 .74-.317.74-.716l-.002-.016h.03V13.12z"/><path opacity=".1" d="M68.18 66.438s-4.07-11.657-5.063-13.734c-.99-2.076-2.138-2.94-3.608-3.61-.358-.164-1.528-.683-3.09-1.372a6999.47 6999.47 0 0 0-12.073-5.315v.002c-.585-.26-1.02-.45-1.264-.557 0-.048.008-.095.008-.144v-3.442c2.214-2.48 3.874-5.895 4.67-9.828.072.014.13.055.202.06a1.88 1.88 0 0 0 2.013-1.74l.388-5.25a1.872 1.872 0 0 0-1.064-1.834v-6.928C49.296 5.706 42.715 0 34.6 0c-.043 0-.083.005-.125.005V69.78h32.349c2.62 0 1.356-3.342 1.356-3.342zM47.81 17.71l-.07-.55c.047.22.067.408.07.55z"/><g fill="#FF4040"><path d="M41.016 48.95l5.064 8.94h.01a1.21 1.21 0 0 0 2.166-.022h.002l5.167-8.885a1.22 1.22 0 0 0 .225-.698c0-.674-.545-1.22-1.218-1.223l-10.41-.02a1.22 1.22 0 0 0-1.006 1.91z"/><path d="M50.012 53.38a13.125 13.125 0 0 1-.672-4.15c0-7.234 5.864-13.1 13.1-13.1 2.112 0 4.105.504 5.873 1.393a14.17 14.17 0 0 0-9.41-3.562c-7.855 0-14.224 6.37-14.224 14.227 0 2.552.675 4.946 1.853 7.017l3.48-1.824z"/></g></svg>