<svg xmlns="http://www.w3.org/2000/svg" width="55.561" height="69.533" viewBox="0 0 55.561 69.533"><path fill="#FFE4C0" d="M50.615 0a4.944 4.944 0 0 1 4.945 4.947v59.64a4.945 4.945 0 0 1-4.945 4.946H4.947A4.947 4.947 0 0 1 0 64.586v-49.1L15.486 0h35.13z"/><path opacity=".2" fill="#3C3C3B" d="M0 15.485l13.768-1.202L0 27.783z"/><path fill="#AF967B" d="M10.54 15.485H0L15.486 0v10.537a4.947 4.947 0 0 1-4.947 4.948z"/><path opacity=".3" d="M21.814 16.578h28.428v3.464H21.814zM21.814 7.742h28.428v3.463H21.814zM6.603 59.977h18.245v3.463H6.603zM6.603 51.14h18.245v3.464H6.603zM6.603 25.037h43.64V28.5H6.603zM6.603 33.43h43.64v3.462H6.603zM6.603 42.332h43.64v3.464H6.603z"/><path fill="#FF4040" d="M32.282 63.724l-5.233-11.12a.798.798 0 1 1 1.445-.68l3.787 8.05 4.51-9.585 4.512 9.586 4.515-9.584 5.24 11.12a.798.798 0 1 1-1.446.678l-3.795-8.05-4.516 9.584-4.512-9.583-4.51 9.584z"/></svg>