<svg xmlns="http://www.w3.org/2000/svg" width="76.674" height="63.427" viewBox="0 0 76.674 63.427"><path fill="#FFC81A" d="M67.862 58.574V28.91c.036-.025.067-.053.104-.08a3.79 3.79 0 0 0 .41-.322c.092-.077.18-.156.266-.24l.097-.105a4.403 4.403 0 0 0 .297-.344c.744-.944 1.16-2.156 1.14-3.505v-.012a6.55 6.55 0 0 0-.07-.915l-3.49-21.895h-.095A1.63 1.63 0 0 0 64.906 0H13.892a1.64 1.64 0 0 0-1.632 1.646v.137c0 .353.11.677.3.945l-2.078 10.33-2.078 10.33c-.347 1.72.02 3.28.887 4.436l.022.03c.082.11.172.212.264.314l.088.098c.08.087.17.168.26.247.045.04.092.084.14.125.082.068.168.133.257.197.022.015.04.033.063.048v29.693A2.422 2.422 0 0 0 8.1 60.99a2.435 2.435 0 0 0 2.433 2.437h57.18a2.436 2.436 0 0 0 2.433-2.436 2.428 2.428 0 0 0-2.284-2.416z"/><path fill="#F2E0B8" d="M2.284 15.66h57.48v44.723H2.283z"/><path fill="#58595B" d="M10.216 21.215H26.64V55.27H10.215z"/><path fill="#98D7FA" d="M12.568 40.033h11.72v12.612h-11.72zM12.568 23.836h11.72V36.45h-11.72z"/><path fill="#58595B" d="M31.066 20.917h23.31v23.626h-23.31z"/><path fill="#98D7FA" d="M33.06 22.937h19.322v19.585H33.06z"/><path fill="#98D7FA" d="M34.366 24.26h16.708V41.2H34.366z"/><path opacity=".2" d="M59.764 60.383L2.284 23.885h57.48z"/><g fill="#FF4040"><path d="M76.472 48.737L71.71 40.33h-.012a1.138 1.138 0 0 0-2.034.023h-.002l-4.86 8.354c-.13.186-.208.41-.21.654 0 .636.512 1.15 1.145 1.15l9.79.02a1.145 1.145 0 0 0 .945-1.793z"/><path d="M68.013 44.575a12.35 12.35 0 0 1 .633 3.9c0 6.803-5.517 12.318-12.32 12.318-1.986 0-3.86-.473-5.522-1.31a13.328 13.328 0 0 0 8.85 3.35c7.388 0 13.376-5.99 13.376-13.376 0-2.4-.636-4.65-1.745-6.6l-3.272 1.718z"/><g><path d="M42.956 49.153l4.764 8.41h.01a1.14 1.14 0 0 0 2.035-.024h.002l4.86-8.355c.13-.186.208-.41.21-.655a1.15 1.15 0 0 0-1.145-1.15l-9.79-.02a1.144 1.144 0 0 0-.946 1.793z"/><path d="M51.416 53.32a12.354 12.354 0 0 1-.633-3.904c0-6.804 5.516-12.317 12.32-12.317 1.986 0 3.86.474 5.522 1.308a13.322 13.322 0 0 0-8.85-3.35c-7.387 0-13.376 5.987-13.376 13.377 0 2.4.636 4.652 1.743 6.6l3.273-1.716z"/></g></g><path opacity=".2" d="M2.284 30.792a6.394 6.394 0 0 0 3.17.838 6.44 6.44 0 0 0 6.438-6.425 6.44 6.44 0 0 0 12.84.683 6.44 6.44 0 0 0 12.81-.08 6.44 6.44 0 0 0 12.73.613 6.44 6.44 0 0 0 6.32 5.21 6.42 6.42 0 0 0 3.17-.838V13.86H2.283v16.932z"/><path fill="#5FA642" d="M4.71 1.493L.306 23.388c-.715 3.558 1.59 6.443 5.146 6.443s6.81-2.884 7.27-6.442l2.814-21.896H4.71z"/><path fill="#FFE394" d="M15.535 1.493L12.72 23.388c-.457 3.558 2.055 6.443 5.613 6.443 3.558 0 6.6-2.884 6.8-6.442l1.23-21.896H15.534z"/><path fill="#5FA642" d="M26.295 1.493L25.057 23.39c-.2 3.557 2.52 6.442 6.078 6.442a6.318 6.318 0 0 0 6.337-6.443l-.35-21.897H26.296z"/><path fill="#FFE394" d="M37.07 1.493l.34 21.896c.058 3.557 2.985 6.442 6.543 6.442s6.187-2.885 5.872-6.443l-1.93-21.897H37.07z"/><path fill="#5FA642" d="M47.692 1.493l1.9 21.896c.31 3.557 3.443 6.442 7 6.442 3.558 0 5.98-2.885 5.414-6.443L58.52 1.492H47.692z"/><path fill="#58595B" d="M62.046 60.99a2.435 2.435 0 0 1-2.433 2.437H2.435A2.437 2.437 0 0 1 0 60.99a2.436 2.436 0 0 1 2.435-2.433h57.18a2.435 2.435 0 0 1 2.43 2.434z"/><path opacity=".1" d="M60.36 13.057L58.52 1.493H4.71L2.383 13.057z"/><g opacity=".1"><path d="M.194 24.303c-.183 3.125 2.013 5.528 5.26 5.528 3.243 0 6.23-2.402 7.076-5.527H.194zM12.675 24.303c.044 3.125 2.41 5.528 5.658 5.528 3.245 0 6.057-2.402 6.677-5.527H12.675zM25.078 24.303c.268 3.125 2.81 5.528 6.057 5.528a6.305 6.305 0 0 0 6.276-5.527H25.08zM37.5 24.303c.495 3.125 3.206 5.528 6.453 5.528 3.144 0 5.558-2.253 5.863-5.232.823 2.98 3.633 5.233 6.777 5.233 3.245 0 5.54-2.402 5.486-5.527H37.5z"/></g><path fill="#578C3B" d="M58.517 1.646c0-.91-.723-1.646-1.62-1.646H6.3c-.896 0-1.617.737-1.617 1.646v.137c0 .908.722 1.646 1.618 1.646h50.597c.897 0 1.62-.738 1.62-1.647v-.137z"/></svg>