<svg xmlns="http://www.w3.org/2000/svg" width="141.107" height="133.755" viewBox="0 0 141.107 133.755"><path fill="#F4F4F4" d="M141.013 106.32a7.943 7.943 0 0 1-7.943 7.942H14.714a7.943 7.943 0 0 1-7.942-7.943V7.943A7.943 7.943 0 0 1 14.714 0H133.07a7.944 7.944 0 0 1 7.942 7.944v98.375z"/><path fill="#18B357" d="M141.013 17.48V7.945A7.944 7.944 0 0 0 133.07 0H14.714a7.943 7.943 0 0 0-7.942 7.944v9.537h134.24z"/><path fill="#FF7600" d="M6.77 82.687v23.633a7.943 7.943 0 0 0 7.943 7.943h118.355a7.943 7.943 0 0 0 7.943-7.943V56.668l-14.946-8.943L103.3 72.93 83.784 56.668 57.767 84.312 30.12 69.85 6.77 82.687z"/><path fill="#FFF" d="M135.146 9.886a3.39 3.39 0 0 1-3.39 3.39H41.913a3.39 3.39 0 0 1-3.39-3.39 3.39 3.39 0 0 1 3.39-3.39h89.844a3.39 3.39 0 0 1 3.39 3.39z"/><circle fill="#FFD22D" cx="17.111" cy="10.021" r="3.794"/><circle fill="#2B5B66" cx="29.849" cy="10.021" r="3.795"/><g fill="#133B75"><path d="M37.28 27.096l-1.647.182c-.04-.34-.145-.59-.314-.75-.17-.16-.39-.242-.66-.242-.358 0-.662.162-.91.484-.247.322-.403.993-.468 2.014.423-.5.95-.75 1.578-.75.71 0 1.316.27 1.823.81.506.54.76 1.238.76 2.093 0 .907-.268 1.635-.8 2.184-.53.55-1.215.823-2.05.823-.895 0-1.63-.348-2.208-1.043-.575-.695-.863-1.836-.863-3.42 0-1.625.3-2.796.9-3.514s1.38-1.076 2.34-1.076c.674 0 1.23.188 1.673.565s.723.923.844 1.64zm-3.853 3.707c0 .553.127.98.38 1.28.255.3.546.45.872.45a.992.992 0 0 0 .785-.37c.21-.245.314-.648.314-1.21 0-.575-.114-.998-.34-1.266a1.06 1.06 0 0 0-.848-.402c-.325 0-.602.128-.827.384s-.338.633-.338 1.133zM42.038 31.438l1.645-.2c.053.42.193.74.424.962.23.223.508.333.834.333.352 0 .647-.133.887-.4.24-.265.36-.624.36-1.075 0-.427-.115-.766-.345-1.016a1.1 1.1 0 0 0-.84-.375 2.96 2.96 0 0 0-.782.127l.188-1.385c.46.01.81-.09 1.053-.3.242-.212.363-.493.363-.844 0-.3-.09-.536-.266-.714-.178-.178-.413-.267-.708-.267-.29 0-.54.102-.744.303-.206.2-.33.496-.375.883l-1.565-.265c.108-.536.272-.965.493-1.285.22-.32.525-.572.92-.756a3.077 3.077 0 0 1 1.32-.275c.834 0 1.503.265 2.008.797.415.436.622.928.622 1.476 0 .778-.425 1.4-1.275 1.862.508.11.914.354 1.22.732.303.38.454.836.454 1.372 0 .777-.283 1.44-.852 1.99-.568.547-1.276.82-2.123.82-.802 0-1.467-.23-1.995-.69s-.835-1.066-.92-1.812zM53.458 33.79h-1.7v-6.404a5.855 5.855 0 0 1-2.194 1.288v-1.542c.443-.145.926-.42 1.445-.825.52-.405.876-.878 1.07-1.418h1.378v8.9zM56.158 31.74l1.644-.182c.04.335.146.583.315.744.17.16.394.24.672.24.35 0 .647-.16.894-.482.245-.322.403-.992.472-2.008-.428.496-.962.744-1.604.744-.696 0-1.298-.27-1.804-.808s-.76-1.238-.76-2.102c0-.898.268-1.623.802-2.174.534-.55 1.215-.825 2.04-.825.9 0 1.638.348 2.214 1.043.577.695.865 1.84.865 3.432 0 1.62-.302 2.79-.902 3.508s-1.383 1.076-2.347 1.076c-.692 0-1.252-.185-1.68-.554-.428-.367-.7-.918-.822-1.652zm3.846-3.713c0-.55-.126-.974-.378-1.276-.252-.3-.543-.452-.874-.452a.983.983 0 0 0-.784.372c-.206.247-.31.653-.31 1.218 0 .573.112.993.338 1.26.226.27.508.403.847.403.327 0 .602-.128.825-.386.225-.258.336-.637.336-1.137zM76.31 30.53l1.735.55c-.266.97-.708 1.688-1.327 2.156-.62.47-1.404.705-2.355.705-1.177 0-2.145-.4-2.902-1.206-.757-.804-1.136-1.903-1.136-3.298 0-1.476.38-2.622 1.143-3.438s1.764-1.225 3.006-1.225c1.084 0 1.965.32 2.643.962.402.38.705.923.906 1.633l-1.77.423c-.105-.458-.324-.82-.657-1.087-.332-.267-.736-.4-1.212-.4-.657 0-1.19.236-1.6.708s-.614 1.237-.614 2.293c0 1.12.2 1.92.604 2.395.402.477.927.714 1.572.714.476 0 .885-.15 1.228-.453.34-.305.586-.78.736-1.43zM87.39 33.79h-1.946l-.774-2.014h-3.543l-.732 2.014h-1.898l3.453-8.865h1.893l3.548 8.865zm-3.295-3.508l-1.222-3.29-1.197 3.29h2.42zM88.487 24.925h1.676v5.902l3.592-5.902h1.784v8.865h-1.677v-5.787l-3.586 5.787h-1.79v-8.865zm4.597-2.207h.828c-.05.548-.24.98-.577 1.29-.337.313-.773.47-1.31.47s-.974-.156-1.31-.47-.53-.742-.577-1.29h.828c.028.286.128.503.303.65.172.146.424.22.755.22.33 0 .582-.073.756-.22.174-.147.276-.364.304-.65zM99.484 33.79v-7.365h-2.63v-1.5h7.044v1.5h-2.624v7.365h-1.79zM104.507 29.412c0-.903.135-1.66.405-2.273.2-.453.477-.858.825-1.217.35-.36.73-.625 1.146-.8.552-.232 1.188-.35 1.91-.35 1.307 0 2.352.405 3.135 1.216.785.81 1.178 1.937 1.178 3.38 0 1.43-.39 2.55-1.168 3.358-.777.81-1.817 1.213-3.12 1.213-1.318 0-2.366-.4-3.145-1.206-.777-.803-1.166-1.91-1.166-3.322zm1.845-.06c0 1.004.23 1.765.695 2.282.464.52 1.052.777 1.766.777s1.3-.256 1.757-.77c.457-.515.687-1.285.687-2.313 0-1.016-.223-1.773-.67-2.273-.444-.5-1.036-.75-1.773-.75s-1.332.253-1.784.76c-.453.504-.678 1.268-.678 2.288zM114.633 24.925h3.544c.7 0 1.224.03 1.568.088s.653.18.926.366c.272.184.5.43.68.74.183.308.273.653.273 1.036 0 .415-.11.796-.336 1.143a2.065 2.065 0 0 1-.91.78c.54.156.956.425 1.246.804s.436.824.436 1.336c0 .403-.095.796-.282 1.177s-.443.686-.77.913c-.323.228-.724.367-1.2.42-.297.032-1.017.053-2.157.06h-3.017v-8.865zm1.79 1.475v2.05h1.172c.698 0 1.132-.01 1.3-.03.308-.036.55-.142.724-.317.175-.175.263-.406.263-.692 0-.273-.076-.496-.227-.667-.15-.172-.376-.275-.675-.312-.178-.02-.687-.03-1.53-.03h-1.027zm0 3.526v2.37h1.656c.645 0 1.054-.018 1.227-.054.267-.05.483-.167.65-.354.167-.188.25-.438.25-.753 0-.267-.063-.492-.192-.678s-.315-.32-.56-.405-.772-.127-1.587-.127h-1.445z"/></g><path opacity=".15" d="M29.036 67.323v47.143H56.14V84.23L29.307 69.11zM84.123 69.162v45.304h19.785V74.472L84.395 58.497z"/><path fill="#9B9B9A" d="M6.777 85.84l.035-4.846 23.89-14.027 1.54 3.964z"/><path fill="#9B9B9A" d="M25.57 68.426l2.21-3.634 31.513 19.183-2.212 3.633zM81.23 57.865l2.71-3.28 21.968 18.134L103.2 76zM141.107 55.702v4.964l-16.614-12.604 2.722-3.27z"/><path fill="#9B9B9A" d="M56.118 87.503l-2.957-3.057 30.443-29.45 2.957 3.055zM104.5 77.174l-3.195-2.81 25.887-29.45 3.195 2.81z"/><circle fill="#427EEA" cx="29.314" cy="69.044" r="5.962"/><circle fill="#009DE1" cx="84.392" cy="58.422" r="5.963"/><circle fill="#32B47C" cx="55.869" cy="84.043" r="5.962"/><circle fill="#EDC93C" cx="126.457" cy="47.25" r="5.962"/><circle fill="#FF4A4A" cx="104.112" cy="72.795" r="5.962"/><path opacity=".2" d="M34.655 106.938a31.68 31.68 0 0 0 17.3-5.117l.693.756.017-.014a.63.63 0 0 0 .084.122c.07.078.168.128.276.162l2.17 2.362c-1.022 1.427-1.534 2.76-1.375 3.646h18.632l-7.79-8.483-.036.032c-.01-.008-.027-.01-.038-.016a1.135 1.135 0 0 0-.204-.333c-.71-.77-2.428-.428-4.36.718l-2.88-3.138c5.772-5.762 9.344-13.727 9.344-22.526 0-17.58-14.25-31.83-31.832-31.83-17.58 0-31.83 14.25-31.83 31.83s14.25 31.832 31.83 31.832z"/><path fill="#00A083" d="M61.802 97.58c-1.246-.787-4.168.393-6.807 2.815-2.64 2.424-4.06 5.234-3.38 6.545l-.035.027 23.98 26.107.032-.03c.05.096.11.185.183.265 1.062 1.153 4.22-.014 7.05-2.616 2.834-2.6 4.267-5.65 3.204-6.807a1.15 1.15 0 0 0-.25-.202l.035-.03L61.838 97.55l-.036.03z"/><path opacity=".15" d="M61.838 97.55l-.036.03c-.597-.378-1.584-.3-2.735.15l26.765 29.136c.627-1.28.746-2.383.198-2.98a1.15 1.15 0 0 0-.248-.2l.034-.03L61.838 97.55z"/><path opacity=".15" fill="#FFF" d="M79.672 132.948c.85-.44 1.754-1.05 2.643-1.8L56.632 103.19l-2.33 2.14 25.37 27.618z"/><ellipse transform="rotate(-42.564 56.422 101.95)" fill="#06806A" cx="56.422" cy="101.949" rx="6.976" ry="2.742"/><path fill="#D8D8D8" d="M51.263 91.518c-.586-.37-1.96.185-3.203 1.325-1.243 1.143-1.914 2.466-1.595 3.082l-.014.014 7.217 7.855.017-.012a.63.63 0 0 0 .084.122c.503.546 1.99-.006 3.32-1.23 1.335-1.224 2.01-2.66 1.51-3.205a.865.865 0 0 0-.114-.096l.015-.014-7.218-7.858-.02.016z"/><path opacity=".15" d="M47.42 87.474c-.584-.372-1.96.184-3.202 1.325-1.244 1.14-1.914 2.464-1.595 3.08l-.015.015 7.217 7.857.017-.014a.56.56 0 0 0 .083.122c.502.547 1.99-.006 3.322-1.23 1.334-1.223 2.01-2.658 1.508-3.205a.606.606 0 0 0-.115-.094l.016-.017-7.217-7.854-.02.014z"/><circle fill="#00A083" cx="31.832" cy="72.283" r="31.832"/><circle fill="#EBEBEB" cx="31.832" cy="72.283" r="27.816"/><path fill="#FF7600" d="M36.42 71.71S21.796 81.787 10.19 89.753c5.1 6.31 12.897 10.348 21.643 10.348 11.86 0 21.983-7.427 25.983-17.883L36.42 71.71z"/><path opacity=".15" d="M36.42 99.716c8.865-1.473 16.31-7.134 20.235-14.882-8.797-5.5-20.234-13.123-20.234-13.123v28.006z"/><path fill="#9B9B9A" d="M11.707 91.474L38.81 75.606l17.182 10.46a27.626 27.626 0 0 0 2.49-5.81l-24.32-14.804-3.255 5.342 1.917 1.168-24.865 14.6a27.912 27.912 0 0 0 3.747 4.912z"/><circle fill="#133B75" cx="36.419" cy="71.709" r="8.77"/><ellipse transform="rotate(57.29 24.4 64.273)" opacity=".15" fill="#FFF" cx="24.4" cy="64.271" rx="9.912" ry="16.63"/></svg>