<svg xmlns="http://www.w3.org/2000/svg" width="159.042" height="134.918" viewBox="0 0 159.042 134.918"><ellipse fill="#F4F4F4" cx="92.148" cy="130.336" rx="46.386" ry="4.582"/><path fill="#C4C4C4" d="M115.85 128c-13.233-.514-7.395-18.288-7.395-18.288l-14.633-.457-.01-.06-.95.03-.95-.03-.01.06-14.632.457s5.84 17.774-7.394 18.288c-13.233.516-.39 2.384-.39 2.384l23.375-.556 24.235 1.236c.002 0 11.986-2.548-1.244-3.064z"/><path fill="#C4C4C4" d="M115.85 128c-13.233-.514-7.395-18.288-7.395-18.288l-14.633-.457-.01-.06-.95.03-.95-.03-.01.06-14.632.457s5.84 17.774-7.394 18.288c-13.233.516-.39 2.384-.39 2.384l23.375-.556 24.235 1.236c.002 0 11.986-2.548-1.244-3.064z"/><path fill="#D8D8D8" d="M122.57 129.977c0 .783-.646 1.417-1.445 1.417h-56.53a1.43 1.43 0 0 1-1.44-1.417 1.43 1.43 0 0 1 1.44-1.416h56.53c.8 0 1.445.634 1.445 1.417z"/><path opacity=".1" fill="#3C3C3B" d="M92.982 121.71c5.585 0 10.623-1.167 14.208-3.038-.197-4.51 1.265-8.96 1.265-8.96l-14.633-.457-.01-.06-.95.03-.95-.03-.01.06-14.632.457s1.433 4.368 1.268 8.836c3.6 1.944 8.736 3.163 14.444 3.163z"/><path fill-rule="evenodd" clip-rule="evenodd" fill="#EBEBEB" d="M158.79 113.455a4.125 4.125 0 0 1-4.126 4.126H29.634a4.127 4.127 0 0 1-4.127-4.125V30.107a4.128 4.128 0 0 1 4.127-4.127h125.03a4.127 4.127 0 0 1 4.125 4.127v83.348z"/><path fill-rule="evenodd" clip-rule="evenodd" fill="#464646" d="M158.79 100.3V30.106a4.127 4.127 0 0 0-4.126-4.127H29.634a4.128 4.128 0 0 0-4.127 4.127v70.19H158.79z"/><path fill-rule="evenodd" clip-rule="evenodd" fill="#64BBFF" d="M33.45 34.416h117.396V93.4H33.45z"/><path fill="#0096DF" d="M97.304 103.685c-.41.24-.863.418-1.345.512a2.118 2.118 0 0 0-3.604 1.93 6.01 6.01 0 0 1-4.36-2.21 2.117 2.117 0 0 0 .655 2.823 2.082 2.082 0 0 1-.957-.264v.025c0 1.026.73 1.882 1.696 2.075a2.12 2.12 0 0 1-.956.036c.27.842 1.05 1.452 1.976 1.47a4.243 4.243 0 0 1-3.13.875c.936.6 2.047.95 3.242.95 3.89 0 6.018-3.223 6.018-6.018 0-.092 0-.184-.006-.273.413-.3.772-.67 1.055-1.094-.38.168-.788.282-1.216.332.436-.258.77-.674.93-1.167z"/><path fill="#464646" d="M36.637 39.784H147.66v19.542H36.637z"/><g fill="#64BBFF"><path d="M51.353 54.135h-1.78v-6.712a6.143 6.143 0 0 1-2.302 1.35V47.16c.466-.152.97-.44 1.516-.865s.92-.92 1.122-1.486h1.445v9.328zM57.905 51.745l1.774-.184c.05.402.2.72.448.955.25.234.537.352.862.352.372 0 .687-.15.944-.453s.387-.757.387-1.365c0-.572-.127-1-.383-1.285s-.588-.428-.998-.428c-.512 0-.97.227-1.376.68l-1.445-.21.912-4.836h4.71v1.668h-3.36l-.28 1.578c.397-.2.804-.298 1.218-.298.79 0 1.46.287 2.01.86.55.576.823 1.32.823 2.238 0 .765-.222 1.447-.665 2.047-.604.82-1.443 1.23-2.516 1.23-.858 0-1.56-.23-2.1-.69-.538-.46-.86-1.08-.967-1.858zM65.254 51.745l1.774-.184c.05.402.2.72.45.955.25.234.536.352.86.352.373 0 .688-.15.945-.453s.387-.757.387-1.365c0-.572-.128-1-.384-1.285s-.588-.428-.998-.428c-.51 0-.97.227-1.375.68l-1.445-.21.913-4.836h4.71v1.668h-3.36l-.278 1.578c.397-.2.803-.298 1.216-.298.79 0 1.46.287 2.01.86.55.576.824 1.32.824 2.238 0 .765-.222 1.447-.665 2.047-.604.82-1.443 1.23-2.516 1.23-.857 0-1.557-.23-2.098-.69-.54-.46-.863-1.08-.968-1.858zM74.104 49.122c-.46-.194-.796-.462-1.005-.802s-.314-.713-.314-1.12c0-.69.24-1.264.726-1.716.483-.452 1.17-.68 2.062-.68.883 0 1.568.228 2.057.68s.733 1.024.733 1.717c0 .433-.112.815-.336 1.15a2.14 2.14 0 0 1-.944.772c.516.207.907.51 1.176.906.267.396.4.855.4 1.375 0 .857-.273 1.555-.82 2.092-.547.536-1.274.805-2.183.805-.846 0-1.55-.222-2.11-.666-.664-.523-.995-1.242-.995-2.154 0-.503.124-.965.374-1.385.248-.42.64-.745 1.178-.973zm.202 2.187c0 .49.126.87.377 1.145.252.275.565.412.94.412.37 0 .673-.132.914-.396.24-.263.36-.644.36-1.143 0-.435-.122-.785-.367-1.05s-.556-.395-.932-.395c-.435 0-.76.15-.974.45a1.66 1.66 0 0 0-.318.977zm.165-3.982c0 .355.102.632.302.83.2.2.468.298.802.298.338 0 .608-.1.812-.3.203-.2.304-.48.304-.834 0-.334-.1-.602-.3-.802-.2-.2-.467-.302-.796-.302-.343 0-.615.102-.817.305-.205.204-.306.47-.306.805zM89.997 50.72l1.82.576c-.28 1.014-.744 1.767-1.393 2.26s-1.47.737-2.468.737c-1.234 0-2.248-.42-3.043-1.264-.794-.845-1.19-1.997-1.19-3.46 0-1.545.398-2.746 1.197-3.602s1.85-1.283 3.15-1.283c1.136 0 2.06.336 2.77 1.008.422.396.738.968.95 1.71l-1.857.444c-.11-.48-.34-.86-.688-1.14-.35-.28-.77-.42-1.27-.42-.69 0-1.248.248-1.677.742-.43.493-.644 1.294-.644 2.4 0 1.175.21 2.012.633 2.51.423.5.973.748 1.648.748.5 0 .928-.158 1.287-.475.36-.316.62-.814.775-1.494zM101.61 54.135h-2.04l-.81-2.11h-3.715l-.767 2.11h-1.99l3.62-9.29h1.982l3.72 9.29zm-3.453-3.676l-1.28-3.448-1.254 3.447h2.534zM102.762 44.844h1.756v6.186l3.764-6.186h1.87v9.29h-1.756V48.07l-3.758 6.065h-1.876v-9.29zm4.816-2.314h.868c-.05.575-.252 1.026-.605 1.354-.352.327-.81.49-1.37.49-.563 0-1.02-.163-1.373-.49-.353-.327-.554-.778-.604-1.354h.868c.03.3.136.527.317.682s.446.23.792.23c.346 0 .61-.076.792-.23s.287-.38.316-.682zM114.286 54.135v-7.72h-2.757v-1.57h7.382v1.57h-2.75v7.72h-1.876zM119.55 49.546c0-.946.14-1.74.424-2.383.212-.473.5-.897.865-1.273s.765-.655 1.2-.837c.58-.245 1.246-.367 2.003-.367 1.37 0 2.464.425 3.286 1.273.82.85 1.23 2.03 1.23 3.542 0 1.5-.407 2.674-1.223 3.52-.815.85-1.905 1.272-3.27 1.272-1.382 0-2.48-.42-3.296-1.264-.813-.844-1.22-2.005-1.22-3.484zm1.932-.063c0 1.052.243 1.85.73 2.392.485.543 1.102.814 1.85.814s1.36-.27 1.84-.81.72-1.346.72-2.423c0-1.065-.232-1.86-.7-2.383-.466-.524-1.087-.786-1.86-.786-.772 0-1.396.265-1.868.795-.475.53-.712 1.33-.712 2.4zM130.16 44.844h3.715c.735 0 1.284.03 1.645.092.36.062.685.19.97.384s.523.453.713.776c.19.323.285.686.285 1.087 0 .436-.117.834-.352 1.197a2.17 2.17 0 0 1-.953.818c.565.164 1 .445 1.305.843.305.397.457.865.457 1.4 0 .424-.1.834-.295 1.233s-.465.72-.805.957c-.34.24-.76.386-1.258.44-.313.034-1.067.055-2.263.063h-3.163v-9.29zm1.877 1.547v2.15h1.23c.73 0 1.185-.012 1.362-.033.32-.038.572-.148.756-.333.184-.184.275-.425.275-.726 0-.287-.08-.52-.236-.7-.158-.18-.394-.288-.706-.326-.187-.02-.72-.03-1.604-.03h-1.077zm0 3.695v2.484h1.737c.676 0 1.104-.02 1.286-.058.278-.05.506-.175.682-.37.174-.197.263-.46.263-.79 0-.28-.067-.516-.203-.71s-.33-.336-.586-.425c-.257-.088-.81-.133-1.664-.133h-1.515z"/></g><path opacity=".4" fill-rule="evenodd" clip-rule="evenodd" d="M147.695 37.207c0 .594-.48 1.074-1.073 1.074H37.315a1.072 1.072 0 0 1 0-2.147h109.307c.593 0 1.073.48 1.073 1.074z"/><path opacity=".3" d="M37.745 62.762h36.507v12.67H37.745zM37.745 86.92h36.507v2.363H37.745zM37.745 90.465h36.507v2.36H37.745zM77.26 62.977h31.353v2.362H77.26zM77.26 90.413h70.222v2.362H77.26zM77.26 86.413h70.222v2.362H77.26zM77.26 82.413h70.222v2.362H77.26zM77.26 78.413h70.222v2.362H77.26zM77.26 74.413h70.222v2.362H77.26zM77.26 70.413h70.222v2.362H77.26zM77.26 66.413h70.222v2.362H77.26zM37.425 79.19h18.897v4.295H37.425zM60.51 79.19H74.25v4.295H60.51z"/><path fill="#FA2942" d="M24.334 13.543h130.332v1H24.334z"/><path fill="#FA2942" d="M158.672 13.527h-2.907l2.464-1.547a.37.37 0 0 0-.395-.627l-2.317 1.455 1.343-2.384a.37.37 0 0 0-.645-.363l-1.365 2.426V9.704a.37.37 0 0 0-.74 0v2.765l-1.344-2.417a.372.372 0 0 0-.503-.145.37.37 0 0 0-.143.504l1.33 2.392-2.31-1.468a.37.37 0 0 0-.397.623l2.465 1.567h-2.922a.37.37 0 0 0 0 .74h2.907l-2.46 1.544a.37.37 0 1 0 .392.627l2.316-1.453-1.342 2.383a.37.37 0 0 0 .645.363l1.365-2.424v2.783a.37.37 0 0 0 .74 0v-2.77l1.344 2.42a.37.37 0 0 0 .648-.36l-1.33-2.39 2.31 1.468a.37.37 0 0 0 .398-.625l-2.468-1.567h2.922a.37.37 0 0 0 0-.74zM13.625 24.168h1v71.5h-1z"/><path fill="#FA2942" d="M14.64 99.672v-2.906l1.547 2.463a.37.37 0 0 0 .627-.393l-1.455-2.32 2.383 1.345a.37.37 0 0 0 .363-.645L15.68 95.85h2.783a.37.37 0 0 0 0-.74h-2.765l2.416-1.344a.37.37 0 0 0-.36-.645l-2.392 1.328 1.468-2.31a.37.37 0 0 0-.623-.397L14.64 94.21v-2.924a.37.37 0 0 0-.74 0v2.908l-1.544-2.46a.37.37 0 1 0-.627.392l1.453 2.316L10.8 93.1a.37.37 0 0 0-.363.645l2.424 1.365H10.08a.37.37 0 0 0 0 .74h2.768l-2.418 1.344a.372.372 0 0 0-.144.504c.1.18.323.244.503.145l2.39-1.33-1.467 2.31a.368.368 0 0 0 .113.51c.173.11.4.06.51-.112l1.568-2.466v2.92c0 .205.167.37.37.37s.37-.167.37-.372z"/><path fill="#6D6C6C" d="M28.168 16.168a2 2 0 0 1-2 2H2a2 2 0 0 1-2-2V12a2 2 0 0 1 2-2h24.168a2 2 0 0 1 2 2v4.168z"/><path fill="#6D6C6C" d="M16.168 0a2 2 0 0 1 2 2v24.168a2 2 0 0 1-2 2H12a2 2 0 0 1-2-2V2a2 2 0 0 1 2-2h4.168z"/><circle fill="#13A8A4" cx="14.084" cy="14.084" r="12.5"/><path fill="#444" d="M6.418 7.584H22.25v4.332H6.418z"/><circle fill="#FCCE3F" cx="8.792" cy="16.168" r="1.917"/><circle fill="#FCCE3F" cx="14.292" cy="16.168" r="1.917"/><circle fill="#FCCE3F" cx="19.959" cy="16.168" r="1.916"/><path fill="#FA2942" d="M8.584 10.71a.418.418 0 0 1-.834 0v-2a.417.417 0 0 1 .834 0v2zM10.084 10.71a.418.418 0 0 1-.834 0v-2a.417.417 0 0 1 .834 0v2zM11.584 10.71a.418.418 0 0 1-.834 0v-2a.417.417 0 0 1 .834 0v2zM13.084 10.71a.418.418 0 0 1-.834 0v-2a.417.417 0 0 1 .834 0v2z"/></svg>