<svg xmlns="http://www.w3.org/2000/svg" width="139.582" height="122.709" viewBox="0 0 139.582 122.709"><path fill="#ABD579" d="M3.94 0C5.12 0 6.038.42 6.7 1.258c.79.994 1.184 2.642 1.184 4.944 0 2.297-.397 3.948-1.192 4.952-.657.828-1.573 1.242-2.75 1.242-1.18 0-2.133-.453-2.856-1.362C.36 10.127 0 8.508 0 6.178c0-2.285.397-3.932 1.192-4.936C1.85.414 2.766 0 3.942 0zm0 1.93c-.28 0-.53.09-.752.27-.22.18-.393.5-.514.965-.16.6-.24 1.614-.24 3.038 0 1.425.072 2.403.216 2.936.144.532.324.887.542 1.063.22.177.468.266.75.266.28 0 .532-.092.753-.272.22-.178.392-.5.514-.964.16-.596.24-1.606.24-3.03 0-1.425-.072-2.403-.217-2.937-.143-.533-.324-.89-.542-1.07a1.152 1.152 0 0 0-.75-.268zM15.564 12.19h-2.327V3.42a8.055 8.055 0 0 1-3.006 1.764V3.07c.608-.197 1.268-.574 1.98-1.13.713-.553 1.202-1.2 1.466-1.94h1.89v12.19zM24.23 12.19h-2.326V3.42a8.06 8.06 0 0 1-3.007 1.764V3.07c.607-.197 1.267-.574 1.98-1.13.712-.553 1.2-1.2 1.466-1.94h1.888v12.19zM32.897 12.19H30.57V3.42a8.06 8.06 0 0 1-3.007 1.764V3.07c.607-.197 1.268-.574 1.98-1.13s1.2-1.2 1.466-1.94h1.888v12.19zM40.48 0c1.175 0 2.094.42 2.757 1.258.788.994 1.183 2.642 1.183 4.944 0 2.297-.397 3.948-1.192 4.952-.657.828-1.573 1.242-2.75 1.242-1.18 0-2.133-.453-2.856-1.362-.724-.907-1.085-2.526-1.085-4.856 0-2.285.397-3.932 1.192-4.936C38.385.414 39.3 0 40.48 0zm0 1.93c-.282 0-.534.09-.755.27-.22.18-.393.5-.513.965-.16.6-.24 1.614-.24 3.038 0 1.425.07 2.403.214 2.936.145.532.325.887.544 1.063.217.177.468.266.75.266.28 0 .53-.092.752-.272.22-.178.392-.5.515-.964.16-.596.24-1.606.24-3.03 0-1.425-.074-2.403-.217-2.937-.144-.532-.324-.89-.542-1.068-.22-.18-.47-.27-.75-.27zM52.1 12.19h-2.326V3.42a8.043 8.043 0 0 1-3.007 1.764V3.07c.608-.197 1.27-.574 1.98-1.13.712-.553 1.2-1.2 1.466-1.94H52.1v12.19zM60.767 12.19H58.44V3.42a8.055 8.055 0 0 1-3.006 1.764V3.07c.607-.197 1.268-.574 1.98-1.13s1.2-1.2 1.464-1.94h1.888v12.19zM68.348 0c1.176 0 2.096.42 2.758 1.258.79.994 1.184 2.643 1.184 4.944 0 2.297-.396 3.948-1.19 4.952-.658.828-1.575 1.242-2.75 1.242-1.182 0-2.135-.453-2.857-1.362-.724-.907-1.085-2.526-1.085-4.856 0-2.285.397-3.932 1.192-4.936C66.256.414 67.17 0 68.348 0zm0 1.93c-.28 0-.532.09-.753.27-.222.18-.393.5-.514.965-.158.6-.24 1.614-.24 3.038 0 1.425.072 2.403.216 2.936.145.532.324.887.544 1.063.217.177.468.266.748.266.28 0 .533-.092.754-.272.22-.178.392-.5.514-.964.16-.596.24-1.606.24-3.03 0-1.425-.072-2.403-.216-2.937-.145-.532-.324-.89-.543-1.068a1.15 1.15 0 0 0-.75-.27zM77.95 0c1.175 0 2.095.42 2.757 1.258.79.994 1.185 2.643 1.185 4.944 0 2.297-.396 3.948-1.192 4.952-.657.828-1.574 1.242-2.75 1.242-1.182 0-2.134-.453-2.855-1.362-.724-.907-1.086-2.526-1.086-4.856 0-2.285.396-3.932 1.192-4.936C75.858.414 76.772 0 77.95 0zm0 1.93c-.282 0-.533.09-.754.27-.22.18-.393.5-.514.965-.16.6-.24 1.614-.24 3.038 0 1.425.072 2.403.216 2.936.143.532.324.887.542 1.063.22.177.468.266.75.266.28 0 .532-.092.753-.272.222-.178.392-.5.514-.964.16-.596.24-1.606.24-3.03 0-1.425-.072-2.403-.215-2.937-.145-.532-.325-.89-.543-1.068a1.15 1.15 0 0 0-.75-.27zM89.572 12.19h-2.327V3.42a8.047 8.047 0 0 1-3.006 1.764V3.07c.607-.197 1.267-.574 1.978-1.13s1.2-1.2 1.466-1.94h1.888v12.19zM98.238 12.19H95.91V3.42a8.043 8.043 0 0 1-3.006 1.764V3.07c.608-.197 1.268-.574 1.98-1.13S96.085.74 96.35 0h1.89v12.19zM106.904 12.19h-2.327V3.42a8.047 8.047 0 0 1-3.006 1.764V3.07c.61-.197 1.27-.574 1.98-1.13s1.2-1.2 1.466-1.94h1.888v12.19zM114.485 0c1.177 0 2.097.42 2.76 1.258.79.994 1.183 2.643 1.183 4.944 0 2.297-.396 3.948-1.192 4.952-.657.828-1.573 1.242-2.75 1.242-1.18 0-2.134-.453-2.855-1.362-.723-.907-1.084-2.526-1.084-4.856 0-2.285.397-3.932 1.192-4.936C112.395.414 113.31 0 114.485 0zm0 1.93c-.28 0-.532.09-.752.27-.22.18-.393.5-.514.965-.16.6-.242 1.614-.242 3.038 0 1.425.072 2.403.216 2.936.144.532.323.887.543 1.063.216.177.468.266.748.266.282 0 .534-.092.755-.272.22-.178.39-.5.513-.964.16-.596.24-1.606.24-3.03 0-1.425-.07-2.403-.216-2.937-.144-.532-.324-.89-.542-1.068a1.146 1.146 0 0 0-.75-.27zM124.088 0c1.176 0 2.095.42 2.758 1.258.79.994 1.185 2.643 1.185 4.944 0 2.297-.395 3.948-1.19 4.952-.658.828-1.575 1.242-2.75 1.242-1.183 0-2.136-.453-2.857-1.362-.724-.907-1.086-2.526-1.086-4.856 0-2.285.398-3.932 1.193-4.936C121.996.414 122.912 0 124.088 0zm0 1.93c-.28 0-.532.09-.753.27-.22.18-.393.5-.514.965-.16.6-.24 1.614-.24 3.038 0 1.425.072 2.403.216 2.936.144.532.324.887.543 1.063.217.177.467.266.748.266.282 0 .533-.092.755-.272.22-.178.39-.5.513-.964.16-.596.24-1.606.24-3.03 0-1.425-.072-2.403-.216-2.937-.144-.532-.324-.89-.542-1.068-.22-.18-.468-.27-.75-.27zM133.69 0c1.176 0 2.095.42 2.758 1.258.79.994 1.184 2.643 1.184 4.944 0 2.297-.397 3.948-1.192 4.952-.657.828-1.573 1.242-2.75 1.242-1.18 0-2.133-.453-2.857-1.362-.722-.907-1.084-2.526-1.084-4.856 0-2.285.396-3.932 1.192-4.936C131.598.414 132.514 0 133.69 0zm0 1.93c-.28 0-.533.09-.754.27-.22.18-.392.5-.513.965-.16.6-.24 1.614-.24 3.038 0 1.425.07 2.403.215 2.936.144.532.323.887.543 1.063.218.177.47.266.75.266s.533-.092.754-.272c.22-.178.392-.5.513-.964.16-.596.24-1.606.24-3.03 0-1.425-.07-2.403-.216-2.937-.142-.532-.322-.89-.54-1.068a1.15 1.15 0 0 0-.75-.27zM3.94 18.385c1.178 0 2.097.42 2.76 1.26.79.993 1.184 2.643 1.184 4.942 0 2.298-.397 3.948-1.192 4.954-.657.828-1.573 1.242-2.75 1.242-1.18 0-2.133-.454-2.856-1.362C.36 28.513 0 26.893 0 24.562c0-2.285.397-3.93 1.192-4.935.658-.827 1.574-1.242 2.75-1.242zm0 1.928c-.28 0-.53.09-.752.27-.22.18-.393.502-.514.966-.16.6-.24 1.614-.24 3.037 0 1.426.072 2.403.216 2.938.144.53.324.888.542 1.063.22.177.468.265.75.265.28 0 .532-.09.753-.27.22-.18.392-.5.514-.964.16-.597.24-1.607.24-3.033 0-1.423-.072-2.4-.217-2.936-.144-.53-.324-.888-.542-1.066a1.144 1.144 0 0 0-.75-.27zM100.11 30.575h-2.327v-8.77a8.026 8.026 0 0 1-3.007 1.764v-2.113c.607-.198 1.268-.575 1.98-1.13.71-.556 1.2-1.202 1.466-1.942h1.888v12.19zM107.69 18.385c1.177 0 2.096.42 2.76 1.26.79.993 1.183 2.643 1.183 4.942 0 2.298-.396 3.948-1.19 4.954-.658.828-1.575 1.242-2.75 1.242-1.183 0-2.135-.454-2.857-1.362-.725-.907-1.087-2.527-1.087-4.857 0-2.285.397-3.93 1.193-4.935.657-.828 1.573-1.243 2.748-1.243zm0 1.928c-.28 0-.53.09-.752.27-.222.18-.393.502-.514.966-.16.6-.24 1.614-.24 3.037 0 1.426.07 2.403.215 2.938.143.53.323.888.542 1.063.218.177.468.265.75.265.28 0 .53-.09.753-.27.22-.18.392-.5.514-.964.16-.597.238-1.607.238-3.033 0-1.423-.072-2.4-.215-2.936-.144-.53-.325-.888-.543-1.066a1.14 1.14 0 0 0-.75-.27zM80.078 30.575h-2.326v-8.77a8.026 8.026 0 0 1-3.007 1.764v-2.113c.607-.198 1.268-.575 1.98-1.13.71-.556 1.2-1.202 1.466-1.942h1.888v12.19zM87.66 18.385c1.176 0 2.095.42 2.758 1.26.79.993 1.184 2.643 1.184 4.942 0 2.298-.396 3.948-1.19 4.954-.658.828-1.575 1.242-2.75 1.242-1.183 0-2.135-.454-2.857-1.362-.726-.907-1.086-2.527-1.086-4.857 0-2.285.396-3.93 1.192-4.935.656-.828 1.572-1.243 2.748-1.243zm0 1.928c-.28 0-.532.09-.753.27-.222.18-.393.502-.514.966-.16.6-.24 1.614-.24 3.037 0 1.426.07 2.403.215 2.938.144.53.324.888.543 1.063.22.177.47.265.75.265.282 0 .532-.09.754-.27.22-.18.392-.5.514-.964.16-.597.24-1.607.24-3.033 0-1.423-.073-2.4-.216-2.936-.144-.53-.325-.888-.543-1.066a1.143 1.143 0 0 0-.75-.27zM68.313 18.385c1.176 0 2.095.42 2.758 1.26.79.993 1.185 2.643 1.185 4.942 0 2.298-.396 3.948-1.19 4.954-.658.828-1.575 1.242-2.75 1.242-1.183 0-2.135-.454-2.857-1.362-.725-.907-1.086-2.527-1.086-4.857 0-2.285.397-3.93 1.193-4.935.657-.828 1.573-1.243 2.748-1.243zm0 1.928c-.28 0-.532.09-.753.27-.222.18-.393.502-.514.966-.16.6-.24 1.614-.24 3.037 0 1.426.07 2.403.215 2.938.144.53.325.888.544 1.063.218.177.468.265.75.265.28 0 .53-.09.753-.27.22-.18.392-.5.514-.964.16-.597.24-1.607.24-3.033 0-1.423-.072-2.4-.215-2.936-.144-.53-.325-.888-.543-1.066a1.14 1.14 0 0 0-.75-.27zM119.313 30.575h-2.327v-8.77a8.026 8.026 0 0 1-3.005 1.764v-2.113c.608-.198 1.268-.575 1.98-1.13.712-.556 1.2-1.202 1.466-1.942h1.888v12.19zM127.98 30.575h-2.326v-8.77a8.034 8.034 0 0 1-3.007 1.764v-2.113c.607-.198 1.267-.575 1.98-1.13.71-.556 1.2-1.202 1.465-1.942h1.888v12.19zM136.646 30.575h-2.326v-8.77a8.038 8.038 0 0 1-3.006 1.764v-2.113c.607-.198 1.268-.575 1.98-1.13.71-.556 1.2-1.202 1.464-1.942h1.888v12.19zM3.94 36.77c1.178 0 2.097.42 2.76 1.26.79.993 1.184 2.642 1.184 4.943 0 2.298-.397 3.948-1.192 4.953-.657.827-1.573 1.242-2.75 1.242-1.18 0-2.133-.455-2.856-1.362C.36 46.896 0 45.276 0 42.948c0-2.286.397-3.932 1.192-4.936.658-.827 1.574-1.24 2.75-1.24zm0 1.93c-.28 0-.53.09-.752.27s-.393.5-.514.964c-.16.602-.24 1.615-.24 3.04 0 1.424.072 2.402.216 2.936.144.532.324.887.542 1.064.22.177.468.265.75.265.28 0 .532-.09.753-.27s.392-.502.514-.965c.16-.597.24-1.607.24-3.032 0-1.424-.072-2.402-.217-2.934-.144-.535-.324-.892-.542-1.07a1.142 1.142 0 0 0-.75-.27zM100.11 48.96h-2.327v-8.77a8.05 8.05 0 0 1-3.007 1.765v-2.112c.607-.2 1.268-.576 1.98-1.13s1.2-1.203 1.466-1.942h1.888v12.19zM91.11 48.96h-2.327v-8.77a8.05 8.05 0 0 1-3.007 1.765v-2.112c.607-.2 1.268-.576 1.98-1.13s1.2-1.203 1.466-1.942h1.888v12.19zM107.69 36.77c1.177 0 2.096.42 2.76 1.26.79.993 1.183 2.642 1.183 4.943 0 2.298-.396 3.948-1.19 4.953-.658.827-1.575 1.242-2.75 1.242-1.183 0-2.135-.455-2.857-1.362-.725-.908-1.087-2.528-1.087-4.857 0-2.287.397-3.933 1.193-4.937.657-.828 1.573-1.242 2.748-1.242zm0 1.93c-.28 0-.53.09-.752.27-.222.18-.393.5-.514.964-.16.602-.24 1.615-.24 3.04 0 1.424.07 2.402.215 2.936.143.532.323.887.542 1.064.218.177.468.265.75.265.28 0 .53-.09.753-.27.22-.18.392-.502.514-.965.16-.597.238-1.607.238-3.032 0-1.424-.072-2.402-.215-2.934-.144-.535-.325-.892-.543-1.07s-.466-.27-.75-.27zM117.294 36.77c1.176 0 2.095.42 2.757 1.26.79.993 1.186 2.642 1.186 4.943 0 2.298-.397 3.948-1.192 4.953-.657.827-1.573 1.242-2.75 1.242-1.18 0-2.133-.455-2.856-1.362-.724-.908-1.085-2.528-1.085-4.857 0-2.287.396-3.933 1.192-4.937.656-.828 1.572-1.242 2.75-1.242zm0 1.93c-.28 0-.533.09-.755.27-.22.18-.392.5-.513.964-.16.602-.24 1.615-.24 3.04 0 1.424.07 2.402.214 2.936.146.532.325.887.545 1.064.217.177.468.265.75.265.28 0 .53-.09.752-.27.222-.18.393-.502.515-.965.158-.597.24-1.607.24-3.032 0-1.424-.073-2.402-.217-2.934-.143-.535-.324-.892-.543-1.07a1.142 1.142 0 0 0-.748-.27zM126.895 36.77c1.177 0 2.097.42 2.758 1.26.79.993 1.185 2.642 1.185 4.943 0 2.298-.396 3.948-1.19 4.953-.658.827-1.575 1.242-2.752 1.242-1.18 0-2.134-.455-2.855-1.362-.723-.908-1.085-2.528-1.085-4.857 0-2.287.398-3.933 1.193-4.937.656-.828 1.57-1.242 2.747-1.242zm0 1.93c-.28 0-.53.09-.752.27-.222.18-.395.5-.515.964-.16.602-.24 1.615-.24 3.04 0 1.424.072 2.402.216 2.936.143.532.324.887.543 1.064.218.177.468.265.748.265.282 0 .534-.09.755-.27s.39-.502.513-.965c.16-.597.24-1.607.24-3.032 0-1.424-.07-2.402-.215-2.934-.145-.535-.324-.892-.543-1.07a1.144 1.144 0 0 0-.75-.27zM138.518 48.96h-2.326v-8.77a8.06 8.06 0 0 1-3.007 1.765v-2.112c.608-.2 1.268-.576 1.98-1.13s1.2-1.203 1.465-1.942h1.888v12.19zM3.94 55.155c1.178 0 2.097.42 2.76 1.26.79.993 1.184 2.642 1.184 4.943 0 2.297-.397 3.948-1.192 4.952-.657.828-1.573 1.243-2.75 1.243-1.18 0-2.133-.455-2.856-1.363C.36 65.283 0 63.664 0 61.334c0-2.286.397-3.93 1.192-4.936.658-.83 1.574-1.243 2.75-1.243zm0 1.93c-.28 0-.53.09-.752.27-.22.18-.393.5-.514.965-.16.602-.24 1.615-.24 3.04 0 1.424.072 2.4.216 2.936.144.533.324.887.542 1.063.22.176.468.264.75.264.28 0 .532-.09.753-.27.22-.178.392-.5.514-.964.16-.597.24-1.606.24-3.03 0-1.425-.072-2.404-.217-2.937-.144-.532-.324-.89-.542-1.068a1.143 1.143 0 0 0-.75-.27zM13.544 55.155c1.176 0 2.095.42 2.758 1.26.79.993 1.184 2.642 1.184 4.943 0 2.297-.396 3.948-1.19 4.952-.66.828-1.575 1.243-2.75 1.243-1.183 0-2.136-.455-2.857-1.363-.726-.907-1.087-2.526-1.087-4.856 0-2.286.396-3.93 1.192-4.936.657-.83 1.573-1.243 2.75-1.243zm0 1.93c-.28 0-.532.09-.755.27-.22.18-.392.5-.514.965-.16.602-.24 1.615-.24 3.04 0 1.424.072 2.4.215 2.936.146.533.326.887.545 1.063.218.176.468.264.75.264s.53-.09.753-.27c.22-.178.392-.5.514-.964.16-.597.24-1.606.24-3.03 0-1.425-.073-2.404-.216-2.937-.145-.532-.325-.89-.543-1.068-.22-.18-.468-.27-.75-.27zM25.166 67.347H22.84v-8.77a8.016 8.016 0 0 1-3.008 1.763v-2.112c.608-.198 1.27-.576 1.98-1.13.712-.556 1.2-1.202 1.466-1.942h1.888v12.19zM32.746 55.155c1.177 0 2.097.42 2.76 1.26.79.993 1.184 2.642 1.184 4.943 0 2.297-.396 3.948-1.193 4.952-.655.828-1.573 1.243-2.75 1.243-1.18 0-2.133-.455-2.854-1.363-.724-.907-1.086-2.526-1.086-4.856 0-2.286.397-3.93 1.192-4.936.656-.83 1.57-1.243 2.746-1.243zm0 1.93c-.28 0-.53.09-.75.27-.223.18-.395.5-.516.965-.16.602-.24 1.615-.24 3.04 0 1.424.072 2.4.215 2.936.144.533.325.887.543 1.063.22.176.468.264.748.264.283 0 .534-.09.756-.27.22-.178.39-.5.513-.964.16-.597.24-1.606.24-3.03 0-1.425-.072-2.404-.216-2.937s-.324-.89-.544-1.068a1.14 1.14 0 0 0-.75-.27zM42.35 55.155c1.176 0 2.095.42 2.758 1.26.79.993 1.185 2.642 1.185 4.943 0 2.297-.396 3.948-1.193 4.952-.656.828-1.573 1.243-2.75 1.243-1.18 0-2.133-.455-2.855-1.363-.724-.907-1.086-2.526-1.086-4.856 0-2.286.397-3.93 1.192-4.936.656-.83 1.572-1.243 2.748-1.243zm0 1.93c-.28 0-.532.09-.753.27-.22.18-.394.5-.515.965-.16.602-.24 1.615-.24 3.04 0 1.424.072 2.4.216 2.936.144.533.324.887.543 1.063.218.176.47.264.75.264.282 0 .533-.09.754-.27.222-.178.392-.5.514-.964.16-.597.24-1.606.24-3.03 0-1.425-.072-2.404-.217-2.937-.142-.532-.322-.89-.54-1.068-.22-.18-.468-.27-.75-.27zM51.95 55.155c1.178 0 2.097.42 2.76 1.26.788.993 1.184 2.642 1.184 4.943 0 2.297-.397 3.948-1.192 4.952-.657.828-1.573 1.243-2.75 1.243-1.18 0-2.134-.455-2.856-1.363-.724-.907-1.085-2.526-1.085-4.856 0-2.286.398-3.93 1.194-4.936.656-.83 1.57-1.243 2.747-1.243zm0 1.93c-.28 0-.53.09-.752.27-.22.18-.393.5-.514.965-.16.602-.24 1.615-.24 3.04 0 1.424.07 2.4.216 2.936.144.533.323.887.543 1.063.217.176.468.264.748.264.283 0 .535-.09.755-.27.222-.178.392-.5.514-.964.16-.597.24-1.606.24-3.03 0-1.425-.072-2.404-.217-2.937-.144-.532-.323-.89-.542-1.068a1.145 1.145 0 0 0-.75-.27zM61.554 55.155c1.176 0 2.095.42 2.758 1.26.79.993 1.185 2.642 1.185 4.943 0 2.297-.397 3.948-1.192 4.952-.658.828-1.574 1.243-2.75 1.243-1.183 0-2.134-.455-2.856-1.363-.725-.907-1.087-2.526-1.087-4.856 0-2.286.397-3.93 1.194-4.936.655-.83 1.57-1.243 2.747-1.243zm0 1.93c-.28 0-.532.09-.754.27-.222.18-.392.5-.513.965-.16.602-.24 1.615-.24 3.04 0 1.424.07 2.4.216 2.936.143.533.323.887.542 1.063.218.176.468.264.75.264.28 0 .532-.09.754-.27.22-.178.39-.5.512-.964.16-.597.24-1.606.24-3.03 0-1.425-.072-2.404-.216-2.937s-.324-.89-.542-1.068c-.22-.18-.468-.27-.75-.27zM71.155 55.155c1.176 0 2.095.42 2.757 1.26.79.993 1.185 2.642 1.185 4.943 0 2.297-.397 3.948-1.192 4.952-.658.828-1.573 1.243-2.75 1.243-1.18 0-2.133-.455-2.856-1.363-.725-.907-1.086-2.526-1.086-4.856 0-2.286.397-3.93 1.193-4.936.655-.83 1.572-1.243 2.748-1.243zm0 1.93c-.282 0-.534.09-.754.27-.22.18-.39.5-.512.965-.16.602-.24 1.615-.24 3.04 0 1.424.07 2.4.215 2.936.144.533.323.887.543 1.063.217.176.467.264.75.264.28 0 .532-.09.752-.27.222-.178.393-.5.515-.964.16-.597.24-1.606.24-3.03 0-1.425-.073-2.404-.217-2.937-.143-.532-.323-.89-.54-1.068a1.145 1.145 0 0 0-.75-.27zM80.757 55.155c1.177 0 2.096.42 2.758 1.26.79.993 1.184 2.642 1.184 4.943 0 2.297-.397 3.948-1.192 4.952-.657.828-1.573 1.243-2.75 1.243-1.182 0-2.134-.455-2.856-1.363-.724-.907-1.085-2.526-1.085-4.856 0-2.286.397-3.93 1.192-4.936.654-.83 1.57-1.243 2.747-1.243zm0 1.93c-.28 0-.532.09-.753.27-.222.18-.393.5-.514.965-.16.602-.242 1.615-.242 3.04 0 1.424.073 2.4.217 2.936.144.533.324.887.544 1.063.216.176.467.264.747.264.282 0 .532-.09.754-.27.222-.178.393-.5.515-.964.16-.597.24-1.606.24-3.03 0-1.425-.072-2.404-.216-2.937s-.325-.89-.544-1.068a1.14 1.14 0 0 0-.75-.27zM92.38 67.347h-2.327v-8.77a8.028 8.028 0 0 1-3.006 1.763v-2.112c.607-.198 1.268-.576 1.98-1.13s1.2-1.202 1.464-1.942h1.89v12.19zM101.046 67.347H98.72v-8.77a8.032 8.032 0 0 1-3.007 1.763v-2.112c.607-.198 1.268-.576 1.98-1.13s1.2-1.202 1.465-1.942h1.888v12.19zM109.712 67.347h-2.326v-8.77a8.04 8.04 0 0 1-3.007 1.763v-2.112c.606-.198 1.267-.576 1.978-1.13s1.2-1.202 1.465-1.942h1.89v12.19zM117.294 55.155c1.176 0 2.095.42 2.757 1.26.79.993 1.186 2.642 1.186 4.943 0 2.297-.397 3.948-1.192 4.952-.657.828-1.573 1.243-2.75 1.243-1.18 0-2.133-.455-2.856-1.363-.724-.907-1.085-2.526-1.085-4.856 0-2.286.396-3.93 1.192-4.936.656-.83 1.572-1.243 2.75-1.243zm0 1.93c-.28 0-.533.09-.755.27-.22.18-.392.5-.513.965-.16.602-.24 1.615-.24 3.04 0 1.424.07 2.4.214 2.936.146.533.325.887.545 1.063.217.176.468.264.75.264.28 0 .53-.09.752-.27.222-.178.393-.5.515-.964.158-.597.24-1.606.24-3.03 0-1.425-.073-2.404-.217-2.937-.143-.532-.324-.89-.543-1.068a1.143 1.143 0 0 0-.748-.27zM128.916 67.347h-2.327v-8.77a8.016 8.016 0 0 1-3.008 1.763v-2.112c.608-.198 1.27-.576 1.98-1.13s1.2-1.202 1.466-1.942h1.888v12.19zM137.582 67.347h-2.327v-8.77a8.016 8.016 0 0 1-3.007 1.763v-2.112c.61-.198 1.27-.576 1.98-1.13s1.2-1.202 1.466-1.942h1.888v12.19zM3.94 73.54c1.178 0 2.097.42 2.76 1.26.79.993 1.184 2.643 1.184 4.943 0 2.298-.397 3.948-1.192 4.953-.657.827-1.573 1.242-2.75 1.242-1.18 0-2.133-.454-2.856-1.362S0 82.05 0 79.72c0-2.286.397-3.93 1.192-4.937.658-.828 1.574-1.242 2.75-1.242zm0 1.93c-.28 0-.53.09-.752.27s-.393.5-.514.966c-.16.602-.24 1.614-.24 3.038 0 1.425.072 2.403.216 2.937s.324.888.542 1.065c.22.176.468.264.75.264.28 0 .532-.09.753-.27s.392-.5.514-.964c.16-.596.24-1.607.24-3.032 0-1.424-.072-2.402-.217-2.935-.144-.534-.324-.892-.542-1.07a1.147 1.147 0 0 0-.75-.27zM15.564 85.73h-2.327v-8.77a8.043 8.043 0 0 1-3.006 1.765v-2.112c.608-.2 1.268-.574 1.98-1.13.712-.556 1.2-1.203 1.465-1.942h1.89v12.19zM24.23 85.73h-2.326v-8.77a8.047 8.047 0 0 1-3.007 1.765v-2.112c.607-.2 1.267-.574 1.98-1.13.71-.556 1.2-1.203 1.465-1.942h1.888v12.19zM31.812 73.54c1.177 0 2.096.42 2.758 1.26.79.993 1.185 2.643 1.185 4.943 0 2.298-.396 3.948-1.19 4.953-.658.827-1.575 1.242-2.752 1.242-1.18 0-2.134-.454-2.856-1.362-.724-.908-1.085-2.527-1.085-4.857 0-2.286.397-3.93 1.193-4.937.656-.828 1.57-1.242 2.747-1.242zm0 1.93c-.28 0-.53.09-.752.27-.222.18-.393.5-.515.966-.16.602-.24 1.614-.24 3.038 0 1.425.072 2.403.216 2.937s.325.888.544 1.065c.218.176.468.264.748.264.282 0 .533-.09.755-.27.22-.18.39-.5.514-.964.16-.596.24-1.607.24-3.032 0-1.424-.073-2.402-.215-2.935-.145-.534-.325-.892-.543-1.07a1.15 1.15 0 0 0-.75-.27zM41.414 73.54c1.176 0 2.096.42 2.758 1.26.79.993 1.185 2.643 1.185 4.943 0 2.298-.397 3.948-1.192 4.953-.657.827-1.574 1.242-2.75 1.242-1.18 0-2.134-.454-2.856-1.362-.725-.908-1.086-2.527-1.086-4.857 0-2.286.397-3.93 1.19-4.937.658-.828 1.574-1.242 2.75-1.242zm0 1.93c-.28 0-.532.09-.753.27s-.392.5-.513.966c-.16.602-.24 1.614-.24 3.038 0 1.425.072 2.403.214 2.937.146.534.326.888.546 1.065.217.176.467.264.748.264.282 0 .533-.09.754-.27.222-.18.392-.5.514-.964.16-.596.24-1.607.24-3.032 0-1.424-.072-2.402-.217-2.935-.143-.534-.323-.892-.54-1.07a1.15 1.15 0 0 0-.75-.27zM51.016 73.54c1.177 0 2.097.42 2.758 1.26.79.993 1.184 2.643 1.184 4.943 0 2.298-.396 3.948-1.19 4.953-.657.827-1.574 1.242-2.75 1.242-1.182 0-2.135-.454-2.857-1.362s-1.083-2.527-1.083-4.857c0-2.286.397-3.93 1.192-4.937.655-.828 1.57-1.242 2.746-1.242zm0 1.93c-.28 0-.532.09-.752.27-.222.18-.394.5-.516.966-.158.602-.24 1.614-.24 3.038 0 1.425.073 2.403.217 2.937s.324.888.543 1.065c.217.176.468.264.748.264.282 0 .534-.09.755-.27s.392-.5.514-.964c.16-.596.24-1.607.24-3.032 0-1.424-.07-2.402-.215-2.935-.146-.534-.325-.892-.544-1.07a1.15 1.15 0 0 0-.75-.27zM62.64 85.73h-2.327v-8.77a8.047 8.047 0 0 1-3.007 1.765v-2.112c.606-.2 1.268-.574 1.98-1.13.71-.556 1.2-1.203 1.465-1.942h1.89v12.19zM70.22 73.54c1.176 0 2.095.42 2.758 1.26.79.993 1.184 2.643 1.184 4.943 0 2.298-.396 3.948-1.192 4.953-.657.827-1.573 1.242-2.75 1.242-1.182 0-2.133-.454-2.856-1.362-.723-.908-1.085-2.527-1.085-4.857 0-2.286.397-3.93 1.192-4.937.656-.828 1.57-1.242 2.748-1.242zm0 1.93c-.28 0-.533.09-.754.27-.22.18-.392.5-.513.966-.16.602-.24 1.614-.24 3.038 0 1.425.07 2.403.215 2.937.144.534.323.888.543 1.065.218.176.47.264.75.264s.533-.09.754-.27.392-.5.514-.964c.16-.596.24-1.607.24-3.032 0-1.424-.072-2.402-.217-2.935-.142-.534-.322-.892-.54-1.07a1.148 1.148 0 0 0-.75-.27zM79.82 73.54c1.176 0 2.097.42 2.758 1.26.79.993 1.186 2.643 1.186 4.943 0 2.298-.397 3.948-1.192 4.953-.657.827-1.575 1.242-2.75 1.242-1.182 0-2.134-.454-2.856-1.362-.724-.908-1.086-2.527-1.086-4.857 0-2.286.398-3.93 1.194-4.937.655-.828 1.572-1.242 2.747-1.242zm0 1.93c-.28 0-.53.09-.752.27-.222.18-.393.5-.514.966-.16.602-.24 1.614-.24 3.038 0 1.425.07 2.403.216 2.937.143.534.323.888.542 1.065.217.176.467.264.75.264s.532-.09.753-.27.392-.5.514-.964c.158-.596.238-1.607.238-3.032 0-1.424-.07-2.402-.215-2.935-.144-.534-.324-.892-.542-1.07s-.466-.27-.75-.27zM91.443 85.73h-2.325v-8.77a8.063 8.063 0 0 1-3.007 1.765v-2.112c.608-.2 1.27-.574 1.98-1.13.712-.556 1.2-1.203 1.465-1.942h1.888v12.19zM100.11 85.73h-2.327v-8.77a8.04 8.04 0 0 1-3.007 1.765v-2.112c.607-.2 1.268-.574 1.98-1.13.71-.556 1.2-1.203 1.466-1.942h1.888v12.19zM107.69 73.54c1.177 0 2.096.42 2.76 1.26.79.993 1.183 2.643 1.183 4.943 0 2.298-.396 3.948-1.19 4.953-.658.827-1.575 1.242-2.75 1.242-1.183 0-2.135-.454-2.857-1.362-.725-.908-1.087-2.527-1.087-4.857 0-2.286.397-3.93 1.193-4.937.657-.828 1.573-1.242 2.748-1.242zm0 1.93c-.28 0-.53.09-.752.27-.222.18-.393.5-.514.966-.16.602-.24 1.614-.24 3.038 0 1.425.07 2.403.215 2.937s.323.888.542 1.065c.218.176.468.264.75.264.28 0 .53-.09.753-.27.22-.18.392-.5.514-.964.16-.596.238-1.607.238-3.032 0-1.424-.072-2.402-.215-2.935-.144-.534-.325-.892-.543-1.07s-.466-.27-.75-.27zM119.313 85.73h-2.327v-8.77a8.04 8.04 0 0 1-3.005 1.765v-2.112c.608-.2 1.268-.574 1.98-1.13.712-.556 1.2-1.203 1.466-1.942h1.888v12.19zM126.895 73.54c1.177 0 2.097.42 2.758 1.26.79.993 1.185 2.643 1.185 4.943 0 2.298-.396 3.948-1.19 4.953-.658.827-1.575 1.242-2.752 1.242-1.18 0-2.134-.454-2.855-1.362-.723-.908-1.085-2.527-1.085-4.857 0-2.286.398-3.93 1.193-4.937.656-.828 1.57-1.242 2.747-1.242zm0 1.93c-.28 0-.53.09-.752.27-.222.18-.395.5-.515.966-.16.602-.24 1.614-.24 3.038 0 1.425.072 2.403.216 2.937.143.534.324.888.543 1.065.218.176.468.264.748.264.282 0 .534-.09.755-.27s.39-.5.513-.964c.16-.596.24-1.607.24-3.032 0-1.424-.07-2.402-.215-2.935-.145-.534-.324-.892-.543-1.07a1.15 1.15 0 0 0-.75-.27zM138.518 85.73h-2.326v-8.77a8.047 8.047 0 0 1-3.007 1.765v-2.112c.608-.2 1.268-.574 1.98-1.13.71-.556 1.2-1.203 1.465-1.942h1.888v12.19zM3.94 91.926c1.178 0 2.097.42 2.76 1.26.79.993 1.184 2.643 1.184 4.943 0 2.296-.397 3.948-1.192 4.95-.657.83-1.573 1.244-2.75 1.244-1.18 0-2.133-.453-2.856-1.363C.36 102.054 0 100.436 0 98.105c0-2.285.397-3.93 1.192-4.937.658-.827 1.574-1.24 2.75-1.24zm0 1.93c-.28 0-.53.09-.752.27s-.393.5-.514.964c-.16.602-.24 1.615-.24 3.04s.072 2.4.216 2.937c.144.53.324.886.542 1.062.22.176.468.264.75.264.28 0 .532-.09.753-.27s.392-.5.514-.964c.16-.596.24-1.607.24-3.03s-.072-2.403-.217-2.937c-.144-.533-.324-.89-.542-1.068a1.143 1.143 0 0 0-.75-.27zM15.564 104.117h-2.327v-8.77a8.043 8.043 0 0 1-3.006 1.764V95c.608-.197 1.268-.575 1.98-1.13.712-.555 1.2-1.202 1.465-1.942h1.89v12.19zM24.23 104.117h-2.326v-8.77a8.047 8.047 0 0 1-3.007 1.764V95c.607-.197 1.267-.575 1.98-1.13.71-.555 1.2-1.202 1.465-1.942h1.888v12.19zM32.897 104.117H30.57v-8.77a8.047 8.047 0 0 1-3.007 1.764V95c.607-.197 1.268-.575 1.98-1.13s1.2-1.202 1.465-1.942h1.89v12.19zM40.48 91.926c1.175 0 2.094.42 2.757 1.26.79.993 1.184 2.643 1.184 4.943 0 2.296-.396 3.948-1.19 4.95-.658.83-1.574 1.244-2.75 1.244-1.182 0-2.134-.453-2.857-1.363-.724-.907-1.085-2.525-1.085-4.855 0-2.285.397-3.93 1.192-4.937.656-.828 1.572-1.242 2.75-1.242zm0 1.93c-.282 0-.534.09-.755.27s-.393.5-.513.964c-.16.602-.24 1.615-.24 3.04s.07 2.4.214 2.937c.145.53.325.886.544 1.062.217.176.468.264.75.264.28 0 .53-.09.752-.27s.392-.5.515-.964c.16-.596.24-1.607.24-3.03s-.074-2.403-.217-2.937c-.144-.533-.324-.89-.542-1.068-.22-.18-.47-.27-.75-.27zM52.1 104.117h-2.326v-8.77a8.032 8.032 0 0 1-3.007 1.764V95c.608-.197 1.27-.575 1.98-1.13.712-.555 1.2-1.202 1.466-1.942H52.1v12.19zM60.767 104.117H58.44v-8.77a8.043 8.043 0 0 1-3.006 1.764V95c.607-.197 1.268-.575 1.98-1.13s1.2-1.202 1.464-1.942h1.888v12.19zM68.348 91.926c1.176 0 2.096.42 2.758 1.26.79.993 1.184 2.643 1.184 4.943 0 2.296-.396 3.948-1.19 4.95-.658.83-1.575 1.244-2.75 1.244-1.182 0-2.135-.453-2.857-1.363-.724-.907-1.085-2.525-1.085-4.855 0-2.285.397-3.93 1.192-4.937.656-.828 1.57-1.242 2.748-1.242zm0 1.93c-.28 0-.532.09-.753.27-.222.18-.393.5-.514.964-.158.602-.24 1.615-.24 3.04s.072 2.4.216 2.937c.145.53.324.886.544 1.062.217.176.468.264.748.264.28 0 .533-.09.754-.27s.392-.5.514-.964c.16-.596.24-1.607.24-3.03s-.072-2.403-.216-2.937c-.145-.533-.324-.89-.543-1.068a1.144 1.144 0 0 0-.75-.27zM77.95 91.926c1.175 0 2.095.42 2.757 1.26.79.993 1.185 2.643 1.185 4.943 0 2.296-.396 3.948-1.192 4.95-.657.83-1.574 1.244-2.75 1.244-1.182 0-2.134-.453-2.855-1.363-.724-.907-1.086-2.525-1.086-4.855 0-2.285.396-3.93 1.192-4.937.656-.828 1.57-1.242 2.747-1.242zm0 1.93c-.282 0-.533.09-.754.27s-.393.5-.514.964c-.16.602-.24 1.615-.24 3.04s.072 2.4.216 2.937c.143.53.324.886.542 1.062.22.176.468.264.75.264.28 0 .532-.09.753-.27.222-.18.392-.5.514-.964.16-.596.24-1.607.24-3.03s-.072-2.403-.215-2.937c-.145-.533-.325-.89-.543-1.068s-.47-.27-.75-.27zM89.572 104.117h-2.327v-8.77a8.036 8.036 0 0 1-3.006 1.764V95c.607-.197 1.267-.575 1.978-1.13s1.2-1.202 1.466-1.942h1.888v12.19zM98.238 104.117H95.91v-8.77a8.032 8.032 0 0 1-3.006 1.764V95c.608-.197 1.268-.575 1.98-1.13s1.2-1.202 1.466-1.942h1.888v12.19zM106.82 91.926c1.175 0 2.094.42 2.757 1.26.79.993 1.185 2.643 1.185 4.943 0 2.296-.396 3.948-1.192 4.95-.657.83-1.574 1.244-2.75 1.244-1.182 0-2.134-.453-2.856-1.363-.724-.907-1.085-2.525-1.085-4.855 0-2.285.396-3.93 1.19-4.937.658-.828 1.574-1.242 2.75-1.242zm0 1.93c-.283 0-.533.09-.755.27-.22.18-.392.5-.513.964-.16.602-.24 1.615-.24 3.04s.07 2.4.215 2.937c.144.53.324.886.543 1.062.217.176.467.264.75.264s.532-.09.753-.27c.222-.18.392-.5.514-.964.16-.596.24-1.607.24-3.03s-.072-2.403-.217-2.937c-.143-.533-.323-.89-.54-1.068a1.143 1.143 0 0 0-.75-.27zM117.422 91.926c1.176 0 2.095.42 2.758 1.26.79.993 1.184 2.643 1.184 4.943 0 2.296-.396 3.948-1.192 4.95-.657.83-1.573 1.244-2.75 1.244-1.18 0-2.134-.453-2.856-1.363-.723-.907-1.085-2.525-1.085-4.855 0-2.285.4-3.93 1.194-4.937.656-.828 1.57-1.242 2.748-1.242zm0 1.93c-.28 0-.533.09-.754.27-.22.18-.392.5-.513.964-.16.602-.24 1.615-.24 3.04s.07 2.4.215 2.937c.144.53.323.886.543 1.062.217.176.468.264.75.264s.532-.09.753-.27.392-.5.513-.964c.16-.596.24-1.607.24-3.03s-.072-2.403-.217-2.937c-.144-.533-.323-.89-.542-1.068a1.144 1.144 0 0 0-.748-.27zM127.023 91.926c1.176 0 2.095.42 2.758 1.26.79.993 1.186 2.643 1.186 4.943 0 2.296-.397 3.948-1.192 4.95-.657.83-1.574 1.244-2.75 1.244-1.182 0-2.134-.453-2.856-1.363-.725-.907-1.086-2.525-1.086-4.855 0-2.285.397-3.93 1.194-4.937.656-.828 1.572-1.242 2.747-1.242zm0 1.93c-.28 0-.532.09-.753.27-.222.18-.393.5-.514.964-.16.602-.24 1.615-.24 3.04s.07 2.4.216 2.937c.143.53.323.886.542 1.062.218.176.468.264.75.264.28 0 .532-.09.754-.27.22-.18.39-.5.513-.964.16-.596.24-1.607.24-3.03s-.07-2.403-.215-2.937-.324-.89-.542-1.068-.467-.27-.75-.27zM138.646 104.117h-2.326v-8.77a8.05 8.05 0 0 1-3.006 1.764V95c.607-.197 1.268-.575 1.98-1.13s1.2-1.202 1.464-1.942h1.888v12.19zM3.94 110.31c1.178 0 2.097.42 2.76 1.26.79.995 1.184 2.644 1.184 4.945 0 2.296-.397 3.948-1.192 4.952-.657.828-1.573 1.242-2.75 1.242-1.18 0-2.133-.455-2.856-1.364C.36 120.438 0 118.82 0 116.49c0-2.285.397-3.932 1.192-4.937.658-.828 1.574-1.242 2.75-1.242zm0 1.93c-.28 0-.53.09-.752.27s-.393.5-.514.965c-.16.602-.24 1.616-.24 3.04s.072 2.403.216 2.937c.144.532.324.887.542 1.062.22.178.468.265.75.265.28 0 .532-.09.753-.27.22-.18.392-.5.514-.965.16-.596.24-1.606.24-3.03s-.072-2.403-.217-2.937c-.144-.532-.324-.89-.542-1.068a1.142 1.142 0 0 0-.75-.27zM13.544 110.31c1.176 0 2.095.42 2.758 1.26.79.995 1.184 2.644 1.184 4.945 0 2.296-.396 3.948-1.19 4.952-.66.828-1.575 1.242-2.75 1.242-1.183 0-2.136-.455-2.857-1.364-.726-.907-1.087-2.526-1.087-4.855 0-2.284.396-3.93 1.192-4.936.657-.83 1.573-1.243 2.75-1.243zm0 1.93c-.28 0-.532.09-.755.27-.22.18-.392.5-.514.965-.16.602-.24 1.616-.24 3.04s.072 2.403.215 2.937c.146.532.326.887.545 1.062.218.178.468.265.75.265s.53-.09.753-.27c.22-.18.392-.5.514-.965.16-.596.24-1.606.24-3.03s-.073-2.403-.216-2.937c-.145-.532-.325-.89-.543-1.068-.22-.18-.468-.27-.75-.27zM25.166 122.502H22.84v-8.77a8.016 8.016 0 0 1-3.008 1.764v-2.11c.608-.2 1.27-.577 1.98-1.132.712-.555 1.2-1.202 1.466-1.943h1.888v12.192zM32.746 110.31c1.177 0 2.097.42 2.76 1.26.79.995 1.184 2.644 1.184 4.945 0 2.296-.396 3.948-1.193 4.952-.655.828-1.573 1.242-2.75 1.242-1.18 0-2.133-.455-2.854-1.364-.724-.907-1.086-2.526-1.086-4.855 0-2.284.397-3.93 1.192-4.936.656-.83 1.57-1.243 2.746-1.243zm0 1.93c-.28 0-.53.09-.75.27-.223.18-.395.5-.516.965-.16.602-.24 1.616-.24 3.04s.072 2.403.215 2.937c.144.532.325.887.543 1.062.22.178.468.265.748.265.283 0 .534-.09.756-.27.22-.18.39-.5.513-.965.16-.596.24-1.606.24-3.03s-.072-2.403-.216-2.937c-.145-.532-.324-.89-.544-1.068a1.14 1.14 0 0 0-.75-.27zM42.35 110.31c1.176 0 2.095.42 2.758 1.26.79.995 1.185 2.644 1.185 4.945 0 2.296-.396 3.948-1.193 4.952-.656.828-1.573 1.242-2.75 1.242-1.18 0-2.133-.455-2.855-1.364-.724-.907-1.086-2.526-1.086-4.855 0-2.284.397-3.93 1.192-4.936.656-.83 1.572-1.243 2.748-1.243zm0 1.93c-.28 0-.532.09-.753.27s-.394.5-.515.965c-.16.602-.24 1.616-.24 3.04s.072 2.403.216 2.937c.144.532.324.887.543 1.062.218.178.47.265.75.265.282 0 .533-.09.754-.27.222-.18.392-.5.514-.965.16-.596.24-1.606.24-3.03s-.072-2.403-.217-2.937c-.142-.532-.322-.89-.54-1.068-.22-.18-.468-.27-.75-.27zM51.95 110.31c1.178 0 2.097.42 2.76 1.26.788.995 1.184 2.644 1.184 4.945 0 2.296-.397 3.948-1.192 4.952-.657.828-1.573 1.242-2.75 1.242-1.18 0-2.134-.455-2.856-1.364-.724-.907-1.085-2.526-1.085-4.855 0-2.284.398-3.93 1.194-4.936.656-.83 1.57-1.243 2.747-1.243zm0 1.93c-.28 0-.53.09-.752.27s-.393.5-.514.965c-.16.602-.24 1.616-.24 3.04s.07 2.403.216 2.937c.144.532.323.887.543 1.062.217.178.468.265.748.265.283 0 .535-.09.755-.27.222-.18.392-.5.514-.965.16-.596.24-1.606.24-3.03s-.072-2.403-.217-2.937c-.144-.532-.323-.89-.542-1.068a1.144 1.144 0 0 0-.75-.27zM61.554 110.31c1.176 0 2.095.42 2.758 1.26.79.995 1.185 2.644 1.185 4.945 0 2.296-.397 3.948-1.192 4.952-.658.828-1.574 1.242-2.75 1.242-1.183 0-2.134-.455-2.856-1.364-.725-.907-1.087-2.526-1.087-4.855 0-2.284.397-3.93 1.194-4.936.655-.83 1.57-1.243 2.747-1.243zm0 1.93c-.28 0-.532.09-.754.27s-.392.5-.513.965c-.16.602-.24 1.616-.24 3.04s.07 2.403.216 2.937c.143.532.323.887.542 1.062.218.178.468.265.75.265.28 0 .532-.09.754-.27.22-.18.39-.5.512-.965.16-.596.24-1.606.24-3.03s-.072-2.403-.216-2.937c-.144-.532-.324-.89-.542-1.068-.22-.18-.468-.27-.75-.27zM71.155 110.31c1.176 0 2.095.42 2.757 1.26.79.995 1.185 2.644 1.185 4.945 0 2.296-.397 3.948-1.192 4.952-.658.828-1.573 1.242-2.75 1.242-1.18 0-2.133-.455-2.856-1.364-.725-.907-1.086-2.526-1.086-4.855 0-2.284.397-3.93 1.193-4.936.655-.83 1.572-1.243 2.748-1.243zm0 1.93c-.282 0-.534.09-.754.27-.22.18-.39.5-.512.965-.16.602-.24 1.616-.24 3.04s.07 2.403.215 2.937c.144.532.323.887.543 1.062.217.178.467.265.75.265.28 0 .532-.09.752-.27.222-.18.393-.5.515-.965.16-.596.24-1.606.24-3.03s-.073-2.403-.217-2.937c-.143-.532-.323-.89-.54-1.068a1.144 1.144 0 0 0-.75-.27zM80.757 110.31c1.177 0 2.096.42 2.758 1.26.79.995 1.184 2.644 1.184 4.945 0 2.296-.397 3.948-1.192 4.952-.657.828-1.573 1.242-2.75 1.242-1.182 0-2.134-.455-2.856-1.364-.724-.907-1.085-2.526-1.085-4.855 0-2.284.397-3.93 1.192-4.936.654-.83 1.57-1.243 2.747-1.243zm0 1.93c-.28 0-.532.09-.753.27-.222.18-.393.5-.514.965-.16.602-.242 1.616-.242 3.04s.073 2.403.217 2.937c.144.532.324.887.544 1.062.216.178.467.265.747.265.282 0 .532-.09.754-.27.222-.18.393-.5.515-.965.16-.596.24-1.606.24-3.03s-.072-2.403-.216-2.937c-.145-.532-.325-.89-.544-1.068a1.14 1.14 0 0 0-.75-.27zM92.38 122.502h-2.327v-8.77a8.028 8.028 0 0 1-3.006 1.764v-2.11c.607-.2 1.268-.577 1.98-1.132s1.2-1.202 1.464-1.943h1.89v12.192zM101.046 122.502H98.72v-8.77a8.032 8.032 0 0 1-3.007 1.764v-2.11c.607-.2 1.268-.577 1.98-1.132s1.2-1.202 1.465-1.943h1.888v12.192zM109.712 122.502h-2.326v-8.77a8.04 8.04 0 0 1-3.007 1.764v-2.11c.606-.2 1.267-.577 1.978-1.132s1.2-1.202 1.465-1.943h1.89v12.192zM118.294 110.31c1.176 0 2.095.42 2.757 1.26.79.995 1.186 2.644 1.186 4.945 0 2.296-.397 3.948-1.192 4.952-.657.828-1.573 1.242-2.75 1.242-1.18 0-2.133-.455-2.856-1.364-.724-.907-1.085-2.526-1.085-4.855 0-2.284.396-3.93 1.192-4.936.656-.83 1.572-1.243 2.75-1.243zm0 1.93c-.28 0-.533.09-.755.27-.22.18-.392.5-.513.965-.16.602-.24 1.616-.24 3.04s.07 2.403.214 2.937c.146.532.325.887.545 1.062.217.178.468.265.75.265.28 0 .53-.09.752-.27.222-.18.393-.5.515-.965.158-.596.24-1.606.24-3.03s-.073-2.403-.217-2.937c-.143-.532-.324-.89-.543-1.068a1.142 1.142 0 0 0-.748-.27zM130.916 122.502h-2.327v-8.77a8.016 8.016 0 0 1-3.008 1.764v-2.11c.608-.2 1.27-.577 1.98-1.132s1.2-1.202 1.466-1.943h1.888v12.192zM139.582 122.502h-2.327v-8.77a8.016 8.016 0 0 1-3.007 1.764v-2.11c.61-.2 1.27-.577 1.98-1.132s1.2-1.202 1.466-1.943h1.888v12.192z"/><g fill="#613668"><path d="M12.42 27.274l2.18-.264c.07.556.257.98.562 1.274s.673.44 1.106.44a1.52 1.52 0 0 0 1.174-.528c.318-.354.478-.83.478-1.428 0-.566-.152-1.016-.457-1.347s-.676-.496-1.114-.496c-.29 0-.635.057-1.035.168l.248-1.836c.61.017 1.074-.116 1.396-.396.32-.28.48-.653.48-1.118 0-.396-.118-.71-.354-.946s-.548-.353-.938-.353a1.36 1.36 0 0 0-.986.4c-.272.268-.438.658-.497 1.17l-2.076-.352c.143-.71.36-1.278.652-1.703.29-.425.697-.76 1.218-1.002.52-.243 1.105-.364 1.752-.364 1.106 0 1.994.354 2.662 1.06.55.576.825 1.228.825 1.955 0 1.032-.564 1.855-1.692 2.47.674.145 1.212.468 1.614.97.405.503.606 1.11.606 1.82 0 1.03-.377 1.91-1.13 2.638-.754.727-1.692 1.09-2.814 1.09-1.063 0-1.945-.306-2.646-.918-.7-.61-1.107-1.41-1.22-2.4zM27.56 30.394h-2.253v-8.49a7.764 7.764 0 0 1-2.91 1.708v-2.045c.588-.192 1.227-.557 1.916-1.094s1.162-1.164 1.42-1.88h1.827v11.8zM41.58 30.394H39.33v-8.49a7.764 7.764 0 0 1-2.91 1.708v-2.045c.588-.192 1.227-.557 1.916-1.094s1.162-1.164 1.42-1.88h1.827v11.8zM52.745 21.52l-2.18.24c-.055-.45-.194-.78-.418-.995-.225-.214-.516-.32-.874-.32-.476 0-.878.214-1.207.642-.328.428-.535 1.317-.62 2.67.56-.663 1.257-.995 2.09-.995.942 0 1.748.358 2.42 1.075.67.716 1.005 1.64 1.005 2.773 0 1.203-.352 2.167-1.057 2.895-.706.727-1.61 1.09-2.718 1.09-1.188 0-2.162-.46-2.927-1.383s-1.146-2.434-1.146-4.533c0-2.155.398-3.708 1.194-4.66.797-.95 1.83-1.426 3.104-1.426.893 0 1.63.25 2.217.75.585.498.958 1.223 1.118 2.175zm-5.107 4.913c0 .732.17 1.298.505 1.696.337.397.722.596 1.155.596.417 0 .764-.162 1.042-.488.277-.326.417-.86.417-1.604 0-.765-.15-1.324-.45-1.68-.3-.355-.673-.533-1.12-.533-.435 0-.8.17-1.1.51-.3.34-.45.84-.45 1.503zM54.44 27.37l2.245-.23c.062.507.254.91.57 1.205.313.297.678.445 1.09.445.47 0 .867-.19 1.193-.573s.49-.958.49-1.728c0-.723-.162-1.264-.486-1.624-.323-.36-.744-.542-1.263-.542-.647 0-1.228.286-1.74.858l-1.828-.265 1.154-6.117h5.957v2.108h-4.25l-.352 1.996a3.41 3.41 0 0 1 1.54-.377c1 0 1.847.364 2.54 1.09.696.728 1.044 1.67 1.044 2.83 0 .97-.28 1.83-.842 2.59-.765 1.037-1.825 1.556-3.183 1.556-1.087 0-1.97-.29-2.655-.874-.683-.582-1.09-1.366-1.225-2.35zM20.517 43.457l2.3.73c-.352 1.282-.938 2.234-1.76 2.857-.82.622-1.86.934-3.122.934-1.562 0-2.843-.533-3.848-1.6-1.005-1.065-1.51-2.523-1.51-4.373 0-1.956.508-3.476 1.518-4.558s2.338-1.623 3.983-1.623c1.438 0 2.606.425 3.504 1.274.535.502.936 1.224 1.203 2.164l-2.35.562c-.14-.61-.43-1.09-.87-1.443-.44-.352-.976-.527-1.606-.527-.872 0-1.58.312-2.12.938-.544.626-.815 1.64-.815 3.04 0 1.485.268 2.544.802 3.174.534.63 1.23.946 2.085.946.63 0 1.173-.2 1.626-.6.454-.402.78-1.033.98-1.893zM35.207 47.778h-2.58l-1.027-2.67h-4.698l-.97 2.67h-2.518l4.578-11.753h2.51l4.705 11.753zm-4.37-4.65l-1.618-4.36-1.59 4.36h3.208zM36.662 36.025h2.22v7.824l4.764-7.825h2.364v11.753h-2.22v-7.673l-4.755 7.673h-2.373V36.025zm6.093-2.926h1.1c-.065.727-.32 1.297-.767 1.71s-1.025.622-1.735.622c-.71 0-1.29-.207-1.736-.62s-.702-.985-.766-1.713h1.1c.037.38.17.666.4.86.23.196.564.293 1.003.293.437 0 .77-.097 1.002-.292.23-.194.363-.48.4-.86zM51.24 47.778v-9.765h-3.486v-1.988h9.34v1.988h-3.48v9.765h-2.373zM57.9 41.974c0-1.197.178-2.202.537-3.015a5.523 5.523 0 0 1 1.094-1.612c.464-.476.97-.828 1.52-1.058.733-.31 1.577-.465 2.534-.465 1.732 0 3.117.537 4.157 1.61 1.04 1.075 1.56 2.57 1.56 4.482 0 1.897-.516 3.382-1.547 4.453-1.03 1.072-2.41 1.607-4.137 1.607-1.748 0-3.138-.533-4.17-1.6-1.03-1.064-1.546-2.532-1.546-4.403zm2.446-.08c0 1.33.307 2.34.922 3.026.614.688 1.395 1.03 2.34 1.03s1.724-.34 2.33-1.022c.606-.68.91-1.703.91-3.066 0-1.347-.296-2.352-.887-3.014-.59-.663-1.374-.994-2.352-.994-.98 0-1.767.335-2.365 1.006s-.897 1.682-.897 3.034zM71.324 36.025h4.698c.93 0 1.624.04 2.08.116s.866.24 1.228.485c.36.246.66.573.9.982.242.41.362.867.362 1.375 0 .55-.148 1.056-.445 1.516-.297.46-.7.804-1.206 1.034.717.208 1.267.563 1.652 1.066.385.502.577 1.093.577 1.77 0 .535-.125 1.055-.374 1.56a3.13 3.13 0 0 1-1.02 1.21c-.43.304-.96.49-1.59.56-.396.042-1.35.068-2.862.08h-4V36.024zm2.373 1.956v2.72h1.556c.925 0 1.5-.015 1.724-.04.406-.05.726-.19.958-.422s.35-.538.35-.918c0-.363-.1-.66-.302-.886-.2-.228-.498-.365-.894-.413-.236-.025-.912-.04-2.03-.04h-1.363zm0 4.675v3.143h2.197c.854 0 1.397-.023 1.627-.072.355-.063.642-.22.863-.47.222-.247.333-.58.333-.997 0-.354-.086-.653-.257-.898a1.45 1.45 0 0 0-.742-.538c-.324-.11-1.025-.168-2.104-.168h-1.917z"/></g></svg>