<svg xmlns="http://www.w3.org/2000/svg" width="178.337" height="160.502" viewBox="0 0 178.337 160.502"><circle fill="#402256" cx="94.868" cy="71.434" r="71"/><ellipse fill="#18B357" cx="96.202" cy="116.434" rx="59.667" ry="22.668"/><ellipse opacity=".1" cx="95.202" cy="106.768" rx="36.854" ry="4.334"/><g fill="#73D9FF"><path d="M59.92 98.56c.716-3.634-6.813-31.313-7.32-32.742-.35-.993 4.4-2.618 4.64-1.13.24 1.485 5.618 29.655 7.854 32.6 1.985 2.615 3.66 3.76-.284 5.36.032.087-1.8.55-1.808.508-4.818.453-3.73-1.334-3.083-4.597z"/><path d="M57.33 76.513c1.188-1.59 4.832-16.032 4.972-16.798.098-.53 2.474-.44 2.208.306-.262.746-4.923 15.033-4.713 16.83.188 1.592.608 2.44-1.43 2.48-.01.047-.887-.067-.88-.09-2.116-.657-1.227-1.306-.157-2.727zM54.364 63.19c1.658-1.714 8.17-18.42 8.455-19.312.194-.625 3.02-.157 2.59.694-.425.85-8.133 17.216-8.147 19.393-.017 1.932.358 3.002-2.08 2.748-.016.054-1.05-.21-1.033-.242-2.435-1.098-1.276-1.74.214-3.28z"/><path d="M60.535 48.357c-.454-.766-6.344-4.982-6.666-5.187-.23-.14.4-1.034.686-.785.283.246 5.85 4.822 6.745 5.094.795.237 1.295.24.813 1.028.02.015-.25.328-.257.32-.83.686-.916.217-1.32-.47zM72.973 49.993c-1.127-.173-10.112 1.416-10.577 1.52-.328.076-.69-.988-.21-1.034.477-.05 9.55-1.155 10.552-1.643.89-.436 1.304-.805 1.684.08.028-.005.116.402.103.404-.01 1.078-.545.83-1.552.673zM67.166 67.72c-.74.04-6.11 2.757-6.383 2.916-.19.113-.608-.693-.313-.807.29-.116 5.8-2.456 6.343-3.012.482-.493.677-.858 1.073-.203.018-.01.145.31.137.314.182.872-.197.756-.857.79zM53.278 71.157c-1.133-2.027-16.026-13.552-16.85-14.11-.573-.39 1.054-2.633 1.774-1.963.72.668 14.775 13.087 17.053 13.88 2.02.705 3.292.77 2.042 2.756.05.034-.643.818-.666.8-2.134 1.676-2.34.46-3.352-1.363zM57.474 83.988c-.8-1.433-11.324-9.575-11.906-9.973-.405-.274.745-1.86 1.254-1.386.51.47 10.442 9.246 12.05 9.81 1.427.496 2.326.542 1.443 1.943.036.026-.454.58-.47.565-1.51 1.19-1.655.328-2.37-.96z"/><path d="M45.095 61.265c1.172-.98 4.053-12.175 4.15-12.783.063-.425 2.645.404 2.413.96-.23.552-4.226 11.292-3.864 12.894.32 1.422.838 2.275-1.366 1.67-.004.035-.965-.337-.957-.355-2.342-1.23-1.425-1.506-.375-2.385zM40.057 53.684a5.2 5.2 0 0 1-4.034 6.15 5.2 5.2 0 0 1-2.117-10.185 5.198 5.198 0 0 1 6.15 4.034zM48.104 71.934a3.295 3.295 0 0 1-6.452 1.34 3.295 3.295 0 1 1 6.452-1.34z"/><path d="M52.99 48.602a3.294 3.294 0 1 1-6.45 1.34 3.296 3.296 0 0 1 2.555-3.895 3.29 3.29 0 0 1 3.895 2.555zM55.54 41.694a2.514 2.514 0 0 1-4.923 1.025 2.514 2.514 0 0 1 4.923-1.025zM70.45 39.303a5.116 5.116 0 0 1-10.017 2.083 5.116 5.116 0 1 1 10.017-2.083h.002zM69.992 66.688a2.088 2.088 0 1 1-3.95 1.35v.002a2.088 2.088 0 1 1 3.95-1.35v-.002zM66.335 58.165a2.674 2.674 0 0 1-1.665 3.398c-1.4.48-2.92-.266-3.397-1.666a2.67 2.67 0 0 1 1.664-3.396 2.68 2.68 0 0 1 3.398 1.665zM76.282 49.043a2.514 2.514 0 0 1-4.923 1.024 2.516 2.516 0 0 1 1.948-2.974 2.516 2.516 0 0 1 2.974 1.95z"/></g><g fill="#52B4CF"><path d="M143.583 102.412c-.4-2.19 3.807-18.88 4.09-19.74.195-.6-2.46-1.58-2.593-.683-.135.895-3.14 17.88-4.39 19.655-1.11 1.576-2.047 2.266.158 3.23-.018.054 1.007.333 1.01.308 2.695.274 2.086-.804 1.725-2.77z"/><path d="M145.03 89.12c-.665-.96-2.702-9.667-2.78-10.128-.054-.32-1.382-.266-1.233.184.146.45 2.752 9.063 2.635 10.146-.105.96-.34 1.472.798 1.496.006.028.496-.04.492-.054 1.182-.396.686-.787.087-1.645zM146.687 81.088c-.927-1.034-4.567-11.105-4.726-11.645-.107-.376-1.687-.094-1.447.42.238.512 4.546 10.38 4.555 11.69.01 1.166-.2 1.812 1.162 1.658.01.033.586-.127.577-.145 1.36-.663.713-1.047-.12-1.977z"/><path d="M143.238 72.145c.254-.46 3.545-3.004 3.726-3.127.127-.086-.225-.624-.384-.474-.158.147-3.27 2.907-3.77 3.07-.445.145-.724.147-.454.62-.01.01.14.2.143.194.463.414.512.13.738-.283zM136.287 73.13c.63-.103 5.65.855 5.91.917.185.046.388-.596.118-.624-.266-.028-5.337-.696-5.897-.99-.497-.262-.73-.484-.94.05-.017-.004-.065.242-.058.244.005.648.304.498.867.404zM139.532 83.818c.414.023 3.414 1.662 3.567 1.758.105.068.34-.418.174-.486-.162-.07-3.24-1.48-3.545-1.815-.27-.297-.38-.518-.6-.122a.84.84 0 0 0-.077.19c-.102.524.11.455.48.475zM147.294 85.89c.633-1.222 8.957-8.17 9.417-8.507.32-.235-.588-1.587-.99-1.184-.403.402-8.258 7.89-9.53 8.368-1.13.425-1.84.465-1.142 1.662-.028.02.36.493.372.48 1.193 1.013 1.31.28 1.874-.82zM144.95 93.627c.445-.863 6.328-5.773 6.653-6.013.227-.165-.417-1.12-.7-.836-.286.284-5.837 5.575-6.736 5.915-.796.3-1.3.327-.806 1.172-.02.016.255.35.264.34.844.717.924.198 1.325-.578z"/><path d="M151.867 79.926c-.654-.59-2.265-7.34-2.32-7.707-.034-.257-1.477.243-1.348.577s2.36 6.81 2.16 7.774c-.18.858-.47 1.373.763 1.008.002.02.54-.203.534-.213 1.31-.743.798-.91.21-1.44zM154.684 75.354c-.327 1.696.682 3.356 2.255 3.71 1.57.352 3.11-.736 3.437-2.434.327-1.695-.683-3.357-2.256-3.708-1.57-.353-3.11.736-3.436 2.432zM150.186 86.36c-.207 1.07.433 2.124 1.43 2.348.995.224 1.97-.466 2.177-1.54.207-1.074-.433-2.126-1.428-2.35-.996-.223-1.97.466-2.18 1.54z"/><path d="M147.454 72.29c-.207 1.075.432 2.126 1.428 2.35.995.224 1.97-.466 2.178-1.54.207-1.073-.433-2.125-1.428-2.35-.995-.224-1.972.467-2.178 1.54zM146.03 68.127c-.16.82.33 1.622 1.09 1.793.76.17 1.503-.355 1.66-1.176.158-.82-.33-1.622-1.09-1.793-.758-.17-1.502.357-1.66 1.177zM137.696 66.686c-.322 1.667.67 3.3 2.217 3.646 1.547.347 3.06-.724 3.38-2.392.322-1.667-.67-3.3-2.217-3.647-1.546-.348-3.058.727-3.38 2.393zM137.95 83.195c-.208.658.118 1.375.73 1.6.608.225 1.273-.125 1.48-.784.21-.656-.115-1.373-.726-1.598-.61-.224-1.274.126-1.483.783zM139.996 78.06c-.268.842.15 1.76.93 2.047.783.288 1.634-.16 1.9-1.005.27-.842-.147-1.76-.93-2.048-.78-.288-1.63.16-1.9 1.005zM134.437 72.56c-.158.817.33 1.62 1.09 1.79.76.17 1.504-.355 1.662-1.175.157-.82-.33-1.622-1.09-1.793-.76-.17-1.505.357-1.663 1.177z"/></g><g fill="#73D9FF"><path d="M118.85 96.475c-.517-4.443 11.093-36.85 11.832-38.51.513-1.153-5.01-3.635-5.436-1.873-.43 1.76-9.513 34.992-12.464 38.28-2.617 2.92-4.73 4.106-.167 6.47-.045.1 2.102.86 2.113.81 5.72 1.08 4.584-1.188 4.12-5.177z"/><path d="M124.022 70.283c-1.27-2.04-4.265-19.79-4.356-20.723-.067-.652-2.915-.808-2.67.118.243.925 4.468 18.6 4.046 20.735-.375 1.89-.96 2.864 1.473 3.14.01.056 1.068.017 1.062-.01 2.59-.553 1.59-1.434.445-3.26zM128.82 54.615c-1.818-2.244-8.027-23.028-8.28-24.134-.175-.77-3.596-.52-3.162.546.43 1.067 8.094 21.58 7.91 24.197-.164 2.32-.714 3.567 2.225 3.53.013.066 1.272-.137 1.256-.176 3.013-1.05 1.687-1.946.05-3.962z"/><path d="M122.848 36.115c.616-.87 8.05-5.28 8.456-5.486.285-.147-.38-1.29-.748-1.02-.36.26-7.445 5.138-8.54 5.366-.972.195-1.57.144-1.067 1.146-.025.015.264.423.274.412.926.914 1.074.362 1.624-.42zM107.83 36.7c1.36-.085 11.95 2.82 12.496 3 .385.126.92-1.11.347-1.222-.562-.11-11.302-2.45-12.454-3.143-1.023-.624-1.483-1.114-2.02-.092-.036-.01-.18.47-.162.475-.09 1.295.57 1.055 1.792.98zM113.097 58.63c.88.13 7.04 3.992 7.353 4.214.218.155.79-.766.45-.934-.335-.172-6.7-3.594-7.296-4.324-.53-.642-.728-1.105-1.263-.362-.02-.01-.202.358-.192.362-.302 1.027.16.932.95 1.045zM129.37 64.303c1.545-2.308 20.43-14.49 21.47-15.072.72-.404-1.016-3.276-1.937-2.554-.926.722-18.894 14.076-21.69 14.77-2.478.626-4.008.563-2.7 3.087-.063.033.69 1.055.72 1.033 2.394 2.25 2.755.815 4.138-1.263zM123.145 79.246c1.09-1.63 14.438-10.238 15.17-10.65.512-.285-.715-2.318-1.367-1.805-.654.51-13.354 9.944-15.33 10.442-1.747.437-2.828.395-1.904 2.173-.048.026.486.75.507.733 1.692 1.59 1.946.576 2.925-.892z"/><path d="M140.082 53.333c-1.308-1.306-3.694-15.072-3.753-15.815-.037-.516-3.2.195-2.977.884.223.69 3.985 14.032 3.403 15.915-.52 1.673-1.218 2.64 1.477 2.16 0 .043 1.185-.3 1.175-.317 2.918-1.222 1.85-1.654.674-2.827zM146.82 44.786c-.966 3.315.933 6.82 4.24 7.837a6.147 6.147 0 0 0 7.734-4.162c.964-3.312-.935-6.822-4.244-7.834a6.143 6.143 0 0 0-7.73 4.16zM135.48 65.81c-.61 2.1.594 4.32 2.687 4.965a3.89 3.89 0 0 0 4.897-2.634c.61-2.097-.593-4.32-2.686-4.962a3.89 3.89 0 0 0-4.9 2.633z"/><path d="M131.84 37.245c-.61 2.1.59 4.32 2.686 4.962a3.89 3.89 0 0 0 4.898-2.634c.61-2.096-.595-4.32-2.686-4.964a3.893 3.893 0 0 0-4.898 2.635zM129.443 28.668a3.08 3.08 0 0 0 2.052 3.79 2.972 2.972 0 0 0 3.738-2.015 3.076 3.076 0 0 0-2.05-3.786 2.975 2.975 0 0 0-3.74 2.01zM111.85 24.137c-.947 3.257.917 6.706 4.172 7.71a6.047 6.047 0 0 0 7.604-4.095c.947-3.255-.918-6.71-4.17-7.706a6.042 6.042 0 0 0-7.605 4.09zM109.814 57.074a2.555 2.555 0 0 0 1.304 3.333c1.27.57 2.745.004 3.29-1.268a2.543 2.543 0 0 0-1.3-3.328 2.474 2.474 0 0 0-3.294 1.262zM114.99 47.25c-.705 1.625.043 3.537 1.668 4.265a3.166 3.166 0 0 0 4.22-1.622c.706-1.625-.04-3.533-1.67-4.266a3.17 3.17 0 0 0-4.22 1.622zM103.96 35.188a3.077 3.077 0 0 0 2.053 3.787c1.6.49 3.27-.41 3.738-2.01a3.08 3.08 0 0 0-2.05-3.79 2.973 2.973 0 0 0-3.74 2.013z"/></g><path fill="#1C1C1C" d="M120.67 101.87a6.542 6.542 0 0 1-6.545 6.54h-37.3a6.54 6.54 0 0 1-6.542-6.54V6.54c0-3.61 2.93-6.54 6.54-6.54h37.302a6.544 6.544 0 0 1 6.545 6.54v95.33z"/><path fill="#FAD210" d="M114.125.4c3.388 0 6.145 2.754 6.145 6.14v95.33a6.15 6.15 0 0 1-6.145 6.142h-37.3a6.15 6.15 0 0 1-6.142-6.143V6.54A6.148 6.148 0 0 1 76.823.4h37.302m0-.4h-37.3a6.542 6.542 0 0 0-6.542 6.54v95.33a6.54 6.54 0 0 0 6.54 6.54h37.302a6.542 6.542 0 0 0 6.545-6.54V6.54c0-3.61-2.93-6.54-6.545-6.54z"/><path fill="#FAD210" d="M117.617 93.342c0 .6-.487 1.09-1.093 1.09H74.428c-.602 0-1.092-.49-1.092-1.09v-75.48c0-.6.49-1.087 1.092-1.087h42.097a1.09 1.09 0 0 1 1.093 1.088v75.48z"/><path fill="#1D1D1B" d="M96.596 4.86a1.118 1.118 0 0 1-2.238 0 1.12 1.12 0 0 1 2.238 0z"/><path fill="#575756" d="M100.497 9.436c0 .605-.494 1.09-1.1 1.09h-7.845a1.093 1.093 0 0 1-1.096-1.09 1.1 1.1 0 0 1 1.096-1.096h7.846a1.1 1.1 0 0 1 1.1 1.096z"/><path opacity=".15" fill="#FFF" d="M70.435 101.87V6.54A6.54 6.54 0 0 1 76.975 0h37.3l-43.84 101.87z"/><path fill="#595959" d="M99.947 101.334c0 2.475-2 4.47-4.466 4.47a4.467 4.467 0 0 1-4.474-4.47 4.475 4.475 0 0 1 4.475-4.473 4.47 4.47 0 0 1 4.467 4.474z"/><g fill="#402256"><path d="M77.33 56.61l1.38-.168c.044.352.162.62.355.807.192.185.425.278.7.278a.96.96 0 0 0 .742-.335c.2-.224.302-.524.302-.903 0-.358-.097-.643-.29-.853a.923.923 0 0 0-.705-.314c-.183 0-.4.036-.655.106l.158-1.162c.386.01.68-.073.883-.25s.306-.415.306-.71c0-.25-.074-.448-.224-.598-.148-.148-.347-.223-.594-.223a.857.857 0 0 0-.623.253c-.173.17-.277.416-.315.74l-1.313-.223c.092-.45.23-.81.413-1.078.184-.27.44-.48.77-.635s.7-.23 1.11-.23c.7 0 1.26.223 1.684.67.348.364.522.777.522 1.237 0 .652-.357 1.174-1.07 1.562.426.09.767.296 1.02.613.257.318.384.702.384 1.15 0 .654-.238 1.21-.715 1.67s-1.07.69-1.78.69c-.673 0-1.23-.193-1.674-.58-.442-.385-.7-.892-.77-1.518zM83.18 56.67l1.42-.146c.04.32.16.576.36.764.198.188.43.28.69.28a.96.96 0 0 0 .755-.36c.207-.243.31-.607.31-1.095 0-.456-.103-.8-.307-1.027a1.024 1.024 0 0 0-.8-.342c-.41 0-.775.18-1.1.543l-1.157-.168.73-3.87h3.77v1.333h-2.687l-.224 1.263a2.17 2.17 0 0 1 .974-.238c.632 0 1.168.23 1.607.69s.66 1.057.66 1.79a2.69 2.69 0 0 1-.532 1.64c-.483.655-1.156.983-2.014.983-.687 0-1.246-.184-1.68-.552-.432-.37-.69-.865-.774-1.487zM89.205 57.157h1.426v1.02c0 .413-.034.738-.105.977a1.46 1.46 0 0 1-.403.642c-.198.19-.45.34-.754.447l-.278-.59c.287-.094.492-.224.612-.39.123-.166.188-.393.194-.68h-.69v-1.426zM94.232 51.116c.72 0 1.284.257 1.69.77.482.61.725 1.62.725 3.03 0 1.406-.243 2.417-.73 3.033-.402.506-.964.76-1.685.76-.724 0-1.307-.278-1.75-.835-.442-.556-.664-1.548-.664-2.975 0-1.4.243-2.408.73-3.023.403-.508.965-.76 1.684-.76zm0 1.182a.71.71 0 0 0-.46.165c-.137.11-.24.307-.315.59-.1.37-.147.99-.147 1.862 0 .873.044 1.473.132 1.8s.198.543.332.65a.712.712 0 0 0 .46.163.72.72 0 0 0 .46-.165c.136-.11.24-.308.315-.59.097-.366.146-.985.146-1.858 0-.872-.044-1.472-.132-1.798s-.2-.545-.333-.654a.698.698 0 0 0-.458-.165zM97.55 56.61l1.38-.168c.044.352.162.62.355.807a.97.97 0 0 0 .7.278.96.96 0 0 0 .742-.335c.2-.224.302-.524.302-.903 0-.358-.097-.643-.29-.853a.923.923 0 0 0-.705-.314c-.183 0-.4.036-.654.106l.158-1.162c.386.01.68-.073.883-.25s.306-.415.306-.71c0-.25-.074-.448-.224-.598-.148-.148-.347-.223-.594-.223a.857.857 0 0 0-.623.253c-.173.17-.277.416-.315.74l-1.313-.223c.092-.45.23-.81.413-1.078.185-.27.44-.48.77-.635s.7-.23 1.11-.23c.7 0 1.26.223 1.684.67.348.364.522.777.522 1.237 0 .652-.357 1.174-1.07 1.562.426.09.767.296 1.02.613.257.318.384.702.384 1.15 0 .654-.238 1.21-.715 1.67s-1.07.69-1.78.69c-.673 0-1.23-.193-1.674-.58-.442-.385-.7-.892-.77-1.518zM106.275 52.982c0-.666.146-1.16.44-1.48.29-.322.687-.482 1.188-.482.518 0 .922.16 1.215.48.29.318.438.813.438 1.482 0 .667-.147 1.16-.438 1.48-.293.322-.69.483-1.19.483-.517 0-.922-.16-1.214-.48-.292-.32-.44-.813-.44-1.483zm1.112-.01c0 .484.056.81.167.975.085.122.2.183.35.183.153 0 .272-.06.355-.183.107-.165.162-.49.162-.974s-.055-.807-.163-.97a.403.403 0 0 0-.355-.187c-.15 0-.266.06-.35.183-.113.164-.168.49-.168.973zm1.602 5.895h-1.056l3.962-7.848h1.024l-3.93 7.847zm2.303-1.953c0-.666.146-1.16.438-1.48s.693-.482 1.2-.482c.51 0 .913.16 1.205.48.293.322.438.816.438 1.482 0 .67-.146 1.165-.438 1.486-.292.32-.688.48-1.19.48-.517 0-.92-.16-1.214-.48s-.437-.816-.437-1.486zm1.11-.005c0 .482.056.806.168.968a.4.4 0 0 0 .35.188c.153 0 .27-.06.352-.183.11-.165.167-.49.167-.974s-.055-.81-.163-.976c-.085-.12-.203-.183-.355-.183s-.27.063-.35.184c-.113.167-.17.492-.17.975z"/></g><path fill="#FFD22D" d="M54.474 19.713c-1.412 3.577-4.26 6.47-7.863 8.038 3.605 1.565 6.452 4.46 7.864 8.035 1.414-3.575 4.262-6.47 7.87-8.034-3.61-1.566-6.456-4.46-7.87-8.037z"/><path fill="#FF7600" d="M54.474 23.703c-.71 1.8-2.143 3.255-3.964 4.048 1.82.786 3.255 2.246 3.964 4.05.713-1.804 2.146-3.264 3.962-4.05-1.817-.792-3.25-2.248-3.962-4.047z"/><path fill="#FFD22D" d="M44.475 86.38c-.943 2.39-2.847 4.322-5.254 5.37 2.408 1.046 4.312 2.98 5.255 5.368.944-2.39 2.847-4.322 5.258-5.368-2.412-1.048-4.314-2.98-5.258-5.37z"/><path fill="#FF7600" d="M44.475 89.046c-.474 1.202-1.432 2.175-2.648 2.704a4.93 4.93 0 0 1 2.648 2.705 4.956 4.956 0 0 1 2.646-2.705c-1.212-.53-2.17-1.502-2.645-2.704z"/><path fill="#FFD22D" d="M153.142 57.047c-.943 2.39-2.847 4.322-5.254 5.37 2.407 1.046 4.31 2.98 5.254 5.368.944-2.39 2.847-4.322 5.258-5.368-2.412-1.048-4.314-2.98-5.258-5.37z"/><path fill="#FF7600" d="M153.142 59.713c-.474 1.202-1.432 2.175-2.65 2.704a4.93 4.93 0 0 1 2.65 2.705 4.953 4.953 0 0 1 2.646-2.705 4.967 4.967 0 0 1-2.646-2.704z"/><g><path fill="#FFD22D" d="M33.89 72.73c-.592 1.5-1.786 2.713-3.297 3.37 1.51.656 2.705 1.87 3.297 3.368.592-1.5 1.786-2.712 3.3-3.367-1.514-.657-2.71-1.87-3.3-3.37z"/><path fill="#FF7600" d="M33.89 74.403a3.12 3.12 0 0 1-1.662 1.698 3.09 3.09 0 0 1 1.662 1.697c.3-.757.9-1.368 1.66-1.696a3.12 3.12 0 0 1-1.66-1.697z"/></g><path fill="#ECF9FF" d="M103.085 132.834c-4.04-.542-7.052-3.763-7.51-7.63a8.705 8.705 0 0 1-8.645-.223 11.924 11.924 0 0 1-15.006 3.71c-.315.223-.643.428-.978.618-.017.19-.037.38-.062.57-.908 6.772-7.133 11.526-13.906 10.618a12.323 12.323 0 0 1-7.464-3.9c-.47.14-.973.19-1.49.12a3.57 3.57 0 0 1-3.036-2.906 9.246 9.246 0 0 1-2.16-1.698 6.798 6.798 0 0 1-4.708 1.1 6.787 6.787 0 0 1-.82-.167 9.127 9.127 0 0 1-6.71 1.75 9.14 9.14 0 0 1-6.974-4.99 8.7 8.7 0 0 1-1.677-1.63 8.672 8.672 0 0 1-1.727-6.67 8.682 8.682 0 0 1 3.34-7.327c2.918-2.27 6.822-2.384 9.815-.59a6.715 6.715 0 0 1 6.333-2.714 6.69 6.69 0 0 1 2.864 1.095 5.255 5.255 0 0 1 8.916-2.753 5.228 5.228 0 0 1 2.66-.337 5.226 5.226 0 0 1 2.83 1.315 11.892 11.892 0 0 1 9.708-3.096c1.34.18 2.594.577 3.738 1.148a11.887 11.887 0 0 1 8.412-2.044 11.873 11.873 0 0 1 7.57 4.18 8.698 8.698 0 0 1 6.22-1.546c4.037.542 7.05 3.763 7.51 7.63a8.698 8.698 0 0 1 5.28-.963c4.786.643 8.145 5.04 7.503 9.825a8.74 8.74 0 0 1-9.825 7.504z"/><path fill="#FFF" d="M168.035 140.23c-4.79-.01-8.796-4.16-9.925-9.758-1.693 1.538-3.765 2.45-6.01 2.447-1.46-.003-2.846-.395-4.102-1.09-2.37 5.573-7.03 9.36-12.39 9.35a11.412 11.412 0 0 1-4.535-.957c-.334.385-.682.752-1.044 1.095.01.284.016.567.015.853-.017 10.138-6.54 18.347-14.576 18.333-3.543-.006-6.783-1.615-9.3-4.277a3.453 3.453 0 0 1-1.72.466c-1.867-.003-3.447-1.55-3.985-3.683a10.602 10.602 0 0 1-2.78-2.075c-1.42 1.577-3.277 2.54-5.318 2.538-.334 0-.658-.036-.98-.086-1.948 2.406-4.613 3.89-7.554 3.886-3.706-.006-6.965-2.38-8.895-5.98a10.78 10.78 0 0 1-2.207-2.07c-2.087-2.596-3.094-6.045-3.036-9.473-.59-4.01.326-8.304 2.768-11.43 3.05-3.91 7.586-4.84 11.35-2.783 1.34-3.12 3.957-5.234 6.965-5.23 1.262.004 2.448.385 3.505 1.05.156-4.142 2.865-7.444 6.184-7.44 1.43.004 2.74.624 3.785 1.652.903-.646 1.943-1.016 3.052-1.014 1.302 0 2.507.513 3.502 1.38 2.577-3.94 6.476-6.455 10.84-6.448 1.587.003 3.11.344 4.533.96 2.5-2.89 5.834-4.655 9.49-4.65 3.655.008 6.978 1.778 9.47 4.67 1.84-2.16 4.3-3.49 7.01-3.485 4.79.008 8.797 4.155 9.93 9.755 1.69-1.537 3.76-2.452 6.005-2.447 5.678.01 10.27 5.825 10.257 12.988-.016 7.16-4.626 12.96-10.305 12.95z"/><path fill="#FFF" d="M85.33 150.412c-4.13-1.578-6.504-5.727-6.024-9.922a9.413 9.413 0 0 1-5.813-.3 9.408 9.408 0 0 1-3.254-2.09 12.923 12.923 0 0 1-16.764.178c-.388.156-.782.29-1.185.407-.063.195-.132.392-.206.587-2.646 6.92-10.398 10.386-17.32 7.74a13.326 13.326 0 0 1-6.904-5.973 3.856 3.856 0 0 1-1.602-.247 3.868 3.868 0 0 1-2.48-3.824 10.03 10.03 0 0 1-1.86-2.33 7.38 7.38 0 0 1-5.24-.01c-.286-.11-.558-.24-.823-.382a9.9 9.9 0 0 1-7.518.176 9.915 9.915 0 0 1-6.115-7.004 9.423 9.423 0 0 1-1.363-2.14 9.395 9.395 0 0 1-.16-7.466 9.418 9.418 0 0 1 5.35-6.902c3.645-1.67 7.793-.814 10.504 1.824a7.282 7.282 0 0 1 7.36-1.287 7.225 7.225 0 0 1 2.747 1.866 5.703 5.703 0 0 1 7.262-3.053 5.68 5.68 0 0 1 2.834 2.37 5.673 5.673 0 0 1 2.893.308 5.675 5.675 0 0 1 2.66 2.094 12.895 12.895 0 0 1 11.013-.85 12.85 12.85 0 0 1 3.658 2.145 12.887 12.887 0 0 1 9.388-.063 12.88 12.88 0 0 1 6.95 6.296 9.428 9.428 0 0 1 6.946-.08c4.126 1.575 6.503 5.724 6.024 9.92a9.432 9.432 0 0 1 5.812.3c4.892 1.87 7.34 7.348 5.47 12.237a9.48 9.48 0 0 1-12.24 5.472z"/></svg>