<svg xmlns="http://www.w3.org/2000/svg" width="148.376" height="115.808" viewBox="0 0 148.376 115.808"><path fill="#858585" d="M99.667 19.563v-3.158c.054 0 9.38 0 9.624-.002a4.508 4.508 0 0 0 4.392-4.538h3.157a7.653 7.653 0 0 1-7.492 7.695c-.09.003-9.585.003-9.68.003zM116.84 37.59h-3.158c0-2.48-1.94-4.474-4.418-4.54h-9.597v-3.158c.096 0 9.59 0 9.684.003a7.653 7.653 0 0 1 7.49 7.694z"/><path fill="#B0B0B0" d="M148.376 6.415c0 .453-.414.82-.925.82h-8.312c-.51 0-.925-.367-.925-.82V5.8c0-.452.414-.818.925-.818h8.313c.512 0 .926.366.926.82v.613z"/><path fill="#EBC300" d="M138.788 2.13h6.52v7.956h-6.52z"/><path fill="#858585" d="M116.84 11.997h-3.158c0-4.245 3.452-7.698 7.697-7.698v3.157a4.545 4.545 0 0 0-4.54 4.54z"/><path opacity=".3" fill="#FFF" d="M138.788 3.663h6.52v2.59h-6.52z"/><path fill="#05CF74" d="M140.108 10.375a.767.767 0 0 1-.768.767h-17.545a.766.766 0 0 1-.766-.767V1.84c0-.423.342-.766.765-.766h17.545c.424 0 .768.343.768.767v8.535z"/><path opacity=".4" fill="#3C3C3B" d="M121.03 8.937v1.438c0 .424.343.767.766.767h17.545a.767.767 0 0 0 .77-.767V8.937h-19.08z"/><path opacity=".2" fill="#FFF" d="M120.984 2.917h19.048V7.26h-19.048z"/><path fill="#858585" d="M121.38 45.157c-4.246 0-7.698-3.453-7.698-7.698h3.157a4.545 4.545 0 0 0 4.54 4.54v3.157zM102.233 23.05h21.91v3.157h-21.91z"/><path fill="#B0B0B0" d="M148.376 44.016c0 .453-.414.82-.925.82h-8.312c-.51 0-.925-.367-.925-.82v-.613c0-.453.414-.82.925-.82h8.313c.512 0 .926.367.926.82v.613z"/><path fill="#EBC300" d="M138.788 39.73h6.52v7.958h-6.52z"/><path opacity=".3" fill="#FFF" d="M138.788 41.264h6.52v2.59h-6.52z"/><path fill="#05CF74" d="M140.108 47.976a.767.767 0 0 1-.768.767h-17.545a.766.766 0 0 1-.766-.767v-8.533c0-.424.342-.767.765-.767h17.545c.424 0 .768.343.768.767v8.533z"/><path opacity=".4" fill="#3C3C3B" d="M121.03 46.54v1.437c0 .424.343.767.766.767h17.545a.767.767 0 0 0 .77-.767V46.54h-19.08z"/><path opacity=".2" fill="#FFF" d="M120.984 40.518h19.048v4.343h-19.048z"/><path fill="#B0B0B0" d="M148.376 25.265c0 .452-.414.82-.925.82h-8.312c-.51 0-.925-.368-.925-.82v-.614c0-.45.414-.818.925-.818h8.313c.512 0 .926.367.926.82v.613z"/><path fill="#EBC300" d="M138.788 20.98h6.52v7.957h-6.52z"/><path opacity=".3" fill="#FFF" d="M138.788 22.513h6.52v2.59h-6.52z"/><path fill="#05CF74" d="M140.108 29.224a.768.768 0 0 1-.768.768h-17.545a.767.767 0 0 1-.766-.768v-8.532c0-.424.342-.767.765-.767h17.545c.424 0 .768.343.768.767v8.532z"/><path opacity=".4" fill="#3C3C3B" d="M121.03 27.787v1.438c0 .424.343.768.766.768h17.545a.768.768 0 0 0 .77-.768v-1.438h-19.08z"/><path opacity=".2" fill="#FFF" d="M120.984 21.767h19.048v4.342h-19.048z"/><g><path fill="#B0B0B0" d="M148.376 6.415c0 .453-.414.82-.925.82h-8.312c-.51 0-.925-.367-.925-.82V5.8c0-.452.414-.818.925-.818h8.313c.512 0 .926.366.926.82v.613z"/><path fill="#EBC300" d="M138.788 2.13h6.52v7.956h-6.52z"/><path fill="#858585" d="M116.84 11.997h-3.158c0-4.245 3.452-7.698 7.697-7.698v3.157a4.545 4.545 0 0 0-4.54 4.54z"/><path opacity=".3" fill="#FFF" d="M138.788 3.663h6.52v2.59h-6.52z"/><path fill="#05CF74" d="M140.108 10.375a.767.767 0 0 1-.768.767h-17.545a.766.766 0 0 1-.766-.767V1.84c0-.423.342-.766.765-.766h17.545c.424 0 .768.343.768.767v8.535z"/><path opacity=".4" fill="#3C3C3B" d="M121.03 8.937v1.438c0 .424.343.767.766.767h17.545a.767.767 0 0 0 .77-.767V8.937h-19.08z"/><path opacity=".2" fill="#FFF" d="M120.984 2.917h19.048V7.26h-19.048z"/><path fill="#858585" d="M121.38 45.157c-4.246 0-7.698-3.453-7.698-7.698h3.157a4.545 4.545 0 0 0 4.54 4.54v3.157zM102.233 23.05h21.91v3.157h-21.91z"/><path fill="#B0B0B0" d="M148.376 44.016c0 .453-.414.82-.925.82h-8.312c-.51 0-.925-.367-.925-.82v-.613c0-.453.414-.82.925-.82h8.313c.512 0 .926.367.926.82v.613z"/><path fill="#EBC300" d="M138.788 39.73h6.52v7.958h-6.52z"/><path opacity=".3" fill="#FFF" d="M138.788 41.264h6.52v2.59h-6.52z"/><path fill="#05CF74" d="M140.108 47.976a.767.767 0 0 1-.768.767h-17.545a.766.766 0 0 1-.766-.767v-8.533c0-.424.342-.767.765-.767h17.545c.424 0 .768.343.768.767v8.533z"/><path opacity=".4" fill="#3C3C3B" d="M121.03 46.54v1.437c0 .424.343.767.766.767h17.545a.767.767 0 0 0 .77-.767V46.54h-19.08z"/><path opacity=".2" fill="#FFF" d="M120.984 40.518h19.048v4.343h-19.048z"/><path fill="#B0B0B0" d="M148.376 25.265c0 .452-.414.82-.925.82h-8.312c-.51 0-.925-.368-.925-.82v-.614c0-.45.414-.818.925-.818h8.313c.512 0 .926.367.926.82v.613z"/><path fill="#EBC300" d="M138.788 20.98h6.52v7.957h-6.52z"/><path opacity=".3" fill="#FFF" d="M138.788 22.513h6.52v2.59h-6.52z"/><path fill="#05CF74" d="M140.108 29.224a.768.768 0 0 1-.768.768h-17.545a.767.767 0 0 1-.766-.768v-8.532c0-.424.342-.767.765-.767h17.545c.424 0 .768.343.768.767v8.532z"/><path opacity=".4" fill="#3C3C3B" d="M121.03 27.787v1.438c0 .424.343.768.766.768h17.545a.768.768 0 0 0 .77-.768v-1.438h-19.08z"/><path opacity=".2" fill="#FFF" d="M120.984 21.767h19.048v4.342h-19.048z"/></g><g><path fill="#858585" d="M48.71 19.563v-3.158c-.055 0-9.38 0-9.625-.002-2.45-.065-4.39-2.057-4.39-4.538h-3.158a7.653 7.653 0 0 0 7.49 7.695c.092.003 9.586.003 9.682.003zM31.537 37.59h3.157c0-2.48 1.94-4.474 4.418-4.54h9.597v-3.158c-.097 0-9.59 0-9.685.003a7.652 7.652 0 0 0-7.488 7.694z"/><path fill="#B0B0B0" d="M0 6.415c0 .453.414.82.925.82h8.313c.51 0 .925-.367.925-.82V5.8c0-.452-.414-.818-.925-.818H.925c-.51 0-.925.366-.925.82v.613z"/><path fill="#EBC300" d="M3.068 2.13h6.52v7.956h-6.52z"/><path fill="#858585" d="M31.537 11.997h3.157c0-4.245-3.453-7.698-7.697-7.698v3.157a4.545 4.545 0 0 1 4.54 4.54z"/><path opacity=".3" fill="#FFF" d="M3.068 3.663h6.52v2.59h-6.52z"/><path fill="#05CF74" d="M8.268 10.375c0 .424.344.767.768.767H26.58a.766.766 0 0 0 .766-.767V1.84a.766.766 0 0 0-.766-.766H9.035a.767.767 0 0 0-.768.767v8.535z"/><path opacity=".4" fill="#3C3C3B" d="M27.346 8.937v1.438a.766.766 0 0 1-.766.767H9.035a.767.767 0 0 1-.768-.767V8.937h19.08z"/><path opacity=".2" fill="#FFF" d="M8.344 2.917h19.048V7.26H8.344z"/><path fill="#858585" d="M26.997 45.157c4.244 0 7.697-3.453 7.697-7.698h-3.157a4.545 4.545 0 0 1-4.54 4.54v3.157zM24.233 23.05h21.91v3.157h-21.91z"/><path fill="#B0B0B0" d="M0 44.016c0 .453.414.82.925.82h8.313c.51 0 .925-.367.925-.82v-.613c0-.453-.414-.82-.925-.82H.925c-.51 0-.925.367-.925.82v.613z"/><path fill="#EBC300" d="M3.068 39.73h6.52v7.958h-6.52z"/><path opacity=".3" fill="#FFF" d="M3.068 41.264h6.52v2.59h-6.52z"/><path fill="#05CF74" d="M8.268 47.976c0 .424.344.767.768.767H26.58a.766.766 0 0 0 .766-.767v-8.533a.766.766 0 0 0-.766-.767H9.035a.767.767 0 0 0-.768.767v8.533z"/><path opacity=".4" fill="#3C3C3B" d="M27.346 46.54v1.437a.766.766 0 0 1-.766.767H9.035a.767.767 0 0 1-.768-.767V46.54h19.08z"/><path opacity=".2" fill="#FFF" d="M8.344 40.518h19.048v4.343H8.344z"/><path fill="#B0B0B0" d="M0 25.265c0 .452.414.82.925.82h8.313c.51 0 .925-.368.925-.82v-.614c0-.45-.414-.818-.925-.818H.925c-.51 0-.925.367-.925.82v.613z"/><path fill="#EBC300" d="M3.068 20.98h6.52v7.957h-6.52z"/><path opacity=".3" fill="#FFF" d="M3.068 22.513h6.52v2.59h-6.52z"/><path fill="#05CF74" d="M8.268 29.224c0 .424.344.768.768.768H26.58a.767.767 0 0 0 .766-.768v-8.532a.766.766 0 0 0-.766-.767H9.035a.767.767 0 0 0-.768.767v8.532z"/><path opacity=".4" fill="#3C3C3B" d="M27.346 27.787v1.438a.767.767 0 0 1-.766.768H9.035a.768.768 0 0 1-.768-.768v-1.438h19.08z"/><path opacity=".2" fill="#FFF" d="M8.344 21.767h19.048v4.342H8.344z"/><g><path fill="#B0B0B0" d="M0 6.415c0 .453.414.82.925.82h8.313c.51 0 .925-.367.925-.82V5.8c0-.452-.414-.818-.925-.818H.925c-.51 0-.925.366-.925.82v.613z"/><path fill="#EBC300" d="M3.068 2.13h6.52v7.956h-6.52z"/><path fill="#858585" d="M31.537 11.997h3.157c0-4.245-3.453-7.698-7.697-7.698v3.157a4.545 4.545 0 0 1 4.54 4.54z"/><path opacity=".3" fill="#FFF" d="M3.068 3.663h6.52v2.59h-6.52z"/><path fill="#05CF74" d="M8.268 10.375c0 .424.344.767.768.767H26.58a.766.766 0 0 0 .766-.767V1.84a.766.766 0 0 0-.766-.766H9.035a.767.767 0 0 0-.768.767v8.535z"/><path opacity=".4" fill="#3C3C3B" d="M27.346 8.937v1.438a.766.766 0 0 1-.766.767H9.035a.767.767 0 0 1-.768-.767V8.937h19.08z"/><path opacity=".2" fill="#FFF" d="M8.344 2.917h19.048V7.26H8.344z"/><path fill="#858585" d="M26.997 45.157c4.244 0 7.697-3.453 7.697-7.698h-3.157a4.545 4.545 0 0 1-4.54 4.54v3.157zM24.233 23.05h21.91v3.157h-21.91z"/><path fill="#B0B0B0" d="M0 44.016c0 .453.414.82.925.82h8.313c.51 0 .925-.367.925-.82v-.613c0-.453-.414-.82-.925-.82H.925c-.51 0-.925.367-.925.82v.613z"/><path fill="#EBC300" d="M3.068 39.73h6.52v7.958h-6.52z"/><path opacity=".3" fill="#FFF" d="M3.068 41.264h6.52v2.59h-6.52z"/><path fill="#05CF74" d="M8.268 47.976c0 .424.344.767.768.767H26.58a.766.766 0 0 0 .766-.767v-8.533a.766.766 0 0 0-.766-.767H9.035a.767.767 0 0 0-.768.767v8.533z"/><path opacity=".4" fill="#3C3C3B" d="M27.346 46.54v1.437a.766.766 0 0 1-.766.767H9.035a.767.767 0 0 1-.768-.767V46.54h19.08z"/><path opacity=".2" fill="#FFF" d="M8.344 40.518h19.048v4.343H8.344z"/><path fill="#B0B0B0" d="M0 25.265c0 .452.414.82.925.82h8.313c.51 0 .925-.368.925-.82v-.614c0-.45-.414-.818-.925-.818H.925c-.51 0-.925.367-.925.82v.613z"/><path fill="#EBC300" d="M3.068 20.98h6.52v7.957h-6.52z"/><path opacity=".3" fill="#FFF" d="M3.068 22.513h6.52v2.59h-6.52z"/><path fill="#05CF74" d="M8.268 29.224c0 .424.344.768.768.768H26.58a.767.767 0 0 0 .766-.768v-8.532a.766.766 0 0 0-.766-.767H9.035a.767.767 0 0 0-.768.767v8.532z"/><path opacity=".4" fill="#3C3C3B" d="M27.346 27.787v1.438a.767.767 0 0 1-.766.768H9.035a.768.768 0 0 1-.768-.768v-1.438h19.08z"/><path opacity=".2" fill="#FFF" d="M8.344 21.767h19.048v4.342H8.344z"/></g></g><ellipse fill="#F4F4F4" cx="72.856" cy="109.61" rx="49.588" ry="6.198"/><path fill="#585757" d="M129.912 67.258c-.614-1.02-3.066-4.495-12.263-11.853-7.77-9.4-8.38-10.218-9.4-22.072C105.1 1.278 79.102-.034 74.274 0 69.45-.034 43.453 1.277 40.302 33.333c-1.02 11.854-1.634 12.672-9.4 22.072-9.196 7.357-11.65 10.83-12.263 11.853-.614 1.023-6.336 8.584 3.065 5.52 7.356-4.293 9.196-4.496 11.035-4.293 1.84.204-1.634 13.08 9.196 25.138 10.832 12.058 18.6 15.124 30.45 14.92.7-.013 3.074-.013 3.775 0 11.855.204 19.62-2.862 30.45-14.92 10.833-12.06 7.358-24.934 9.198-25.138 1.84-.203 3.68 0 11.035 4.292 9.404 3.065 3.68-4.495 3.07-5.52z"/><path fill="#575756" d="M129.912 67.258c-.614-1.02-3.066-4.495-12.263-11.853-7.77-9.4-8.38-10.218-9.4-22.072C105.1 1.278 79.102-.034 74.274 0 69.45-.034 43.453 1.277 40.302 33.333c-1.02 11.854-1.634 12.672-9.4 22.072-9.196 7.357-11.65 10.83-12.263 11.853-.614 1.023-6.336 8.584 3.065 5.52 7.356-4.293 9.196-4.496 11.035-4.293 1.84.204-1.634 13.08 9.196 25.138 10.832 12.058 18.6 15.124 30.45 14.92.7-.013 3.074-.013 3.775 0 11.855.204 19.62-2.862 30.45-14.92 10.833-12.06 7.358-24.934 9.198-25.138 1.84-.203 3.68 0 11.035 4.292 9.404 3.065 3.68-4.495 3.07-5.52z"/><path fill="#3C3C3B" d="M126.795 66.664c-.577-.9-2.895-3.965-11.575-10.456-7.332-8.292-7.91-9.014-8.874-19.472C103.372 8.458 78.833 7.3 74.276 7.33 69.718 7.3 45.18 8.46 42.205 36.737c-.965 10.458-1.542 11.18-8.874 19.472-8.682 6.49-10.998 9.556-11.577 10.456-.578.903-5.98 7.573 2.896 4.87 6.945-3.788 5.877-3.03 7.61-2.853 1.737.182-1.54 14.346 8.684 24.982 10.226 10.638 20.362 9.6 31.552 9.42.66-.01 2.9-.01 3.562 0 11.19.18 21.325-.653 31.552-11.29 7.56-7.864 8.675-24.144 7.747-24.047 1.733-.18 1.6 0 8.545 3.787 8.875 2.705 3.472-3.965 2.893-4.868z"/><path fill="#D5D5D5" d="M74.387 45.673c-20.07 0-36.34 16.562-36.34 36.99 0 2.704.287 5.34.828 7.878a33.476 33.476 0 0 0 3.062 3.978c10.832 12.057 18.6 15.122 30.45 14.918.7-.01 3.074-.01 3.775 0 11.854.204 19.62-2.86 30.45-14.918a33.215 33.215 0 0 0 3.39-4.475c.476-2.384.726-4.853.726-7.38 0-20.428-16.27-36.99-36.34-36.99z"/><circle fill="#1D1D1B" cx="62.292" cy="35.173" r="12.262"/><circle fill="#E33029" cx="62.292" cy="35.173" r="6.712"/><circle fill="#1D1D1B" cx="85.182" cy="35.173" r="12.262"/><circle fill="#B8E500" cx="85.183" cy="35.173" r="4.028"/><path opacity=".2" d="M74.475 42.512c0-.016-.002-.025-.002-.025l-.197.01-.196-.01-.002.025c-2.22.16-12.943 1.233-9.822 6.924C67.73 55.77 72.636 59.45 74.27 59.45l.007-.002.008.002c1.635 0 6.54-3.68 10.014-10.014 3.117-5.69-7.606-6.765-9.825-6.924z"/><path fill="#FFD601" d="M74.475 40.512c0-.016-.002-.025-.002-.025l-.197.01-.196-.01-.002.025c-2.22.16-12.943 1.233-9.822 6.924C67.73 53.77 72.636 57.45 74.27 57.45l.007-.002.008.002c1.635 0 6.54-3.68 10.014-10.014 3.117-5.69-7.606-6.765-9.825-6.924z"/><path opacity=".1" d="M72.2 101.707c0-8.612-9.306-15.596-20.785-15.596-11.48 0-20.788 6.984-20.788 15.597 0 .362.02.722.052 1.078-.02.17-.053.338-.053.514a4.774 4.774 0 0 0 4.775 4.772h32.024A4.773 4.773 0 0 0 72.2 103.3c0-.177-.033-.344-.052-.515.037-.357.053-.716.053-1.078z"/><path fill="#FFD601" d="M71.307 103.496C71.307 94.884 62 87.9 50.52 87.9s-20.787 6.983-20.787 15.596c0 .362.02.722.052 1.08-.02.17-.052.337-.052.512a4.774 4.774 0 0 0 4.774 4.774h32.026a4.774 4.774 0 0 0 4.773-4.774c0-.175-.033-.342-.052-.513.035-.358.053-.717.053-1.08z"/><path opacity=".1" d="M118.255 101.707c0-8.612-9.306-15.596-20.786-15.596S76.68 93.095 76.68 101.708c0 .362.02.722.052 1.078-.02.17-.052.338-.052.514a4.774 4.774 0 0 0 4.774 4.772h32.025a4.773 4.773 0 0 0 4.774-4.773c0-.177-.032-.344-.05-.515a11.7 11.7 0 0 0 .05-1.078z"/><path fill="#FFD601" d="M119.15 103.496c0-8.612-9.307-15.595-20.786-15.595-11.482 0-20.787 6.983-20.787 15.596 0 .362.017.722.05 1.08-.018.17-.05.337-.05.512a4.774 4.774 0 0 0 4.774 4.774h32.025a4.775 4.775 0 0 0 4.775-4.774c0-.175-.034-.342-.053-.513.035-.358.054-.717.054-1.08z"/><path opacity=".1" d="M74.475 40.512c0-.016-.002-.025-.002-.025l-.197.01h-.017V57.45h.01l.006-.002.008.002c1.635 0 6.54-3.68 10.014-10.014 3.12-5.69-7.604-6.765-9.823-6.924z"/><path fill="#C4C4C4" d="M38.048 82.665c0 .63.02 1.258.05 1.882h72.584c.03-.624.047-1.25.047-1.882a37.31 37.31 0 0 0-4.988-18.695H43.034a37.307 37.307 0 0 0-4.986 18.695z"/><g fill="#3C3C3B"><path d="M50.03 76.986l1.963-.238c.062.5.23.884.506 1.148s.606.396.996.396c.42 0 .77-.158 1.06-.477.285-.317.43-.746.43-1.285 0-.51-.14-.915-.413-1.214s-.61-.448-1.004-.448c-.26 0-.57.05-.933.152l.224-1.654c.55.015.97-.104 1.258-.357s.433-.59.433-1.01c0-.355-.104-.64-.316-.852s-.493-.317-.845-.317c-.348 0-.644.12-.89.362-.245.24-.395.592-.447 1.054l-1.87-.317c.13-.642.325-1.153.588-1.536a2.64 2.64 0 0 1 1.1-.902c.47-.22.994-.33 1.577-.33.997 0 1.796.32 2.398.954.495.52.744 1.108.744 1.763 0 .93-.51 1.67-1.525 2.224.606.13 1.092.422 1.455.874.363.453.546 1 .546 1.64 0 .93-.34 1.722-1.02 2.377s-1.523.982-2.534.982c-.96 0-1.753-.275-2.384-.827s-.998-1.274-1.1-2.164zM63.522 79.795h-2.03v-7.65a6.99 6.99 0 0 1-2.622 1.54V71.84c.53-.173 1.105-.502 1.727-.985.62-.484 1.048-1.05 1.278-1.694h1.647v10.632zM66.94 77.766h2.028v1.45c0 .59-.05 1.052-.15 1.392-.103.34-.294.645-.575.914-.282.27-.64.48-1.073.636l-.397-.838c.41-.135.7-.32.874-.557.174-.236.266-.56.274-.968h-.98v-2.03zM77.542 71.8l-1.965.216c-.048-.404-.173-.703-.375-.896-.202-.193-.465-.29-.788-.29-.43 0-.79.193-1.087.578-.296.386-.482 1.188-.56 2.406.506-.598 1.134-.896 1.885-.896.848 0 1.574.323 2.18.97.603.644.905 1.477.905 2.498 0 1.083-.318 1.952-.953 2.607-.636.655-1.452.982-2.45.982-1.068 0-1.947-.415-2.636-1.246-.69-.832-1.032-2.193-1.032-4.086 0-1.94.358-3.34 1.076-4.196.717-.857 1.648-1.286 2.795-1.286.804 0 1.47.226 1.997.676s.863 1.104 1.008 1.96zm-4.602 4.427c0 .66.152 1.17.455 1.527.304.36.65.538 1.04.538.376 0 .69-.146.94-.44.25-.293.375-.775.375-1.444 0-.688-.135-1.193-.404-1.514-.27-.32-.607-.48-1.012-.48-.39 0-.72.153-.99.46-.27.304-.404.756-.404 1.353zM78.937 77.347l1.965-.217c.048.4.173.695.375.888.203.193.47.29.802.29.418 0 .774-.193 1.068-.578.294-.386.48-1.186.563-2.398-.51.592-1.147.89-1.913.89-.833 0-1.552-.323-2.156-.966s-.905-1.48-.905-2.51c0-1.074.318-1.94.957-2.597.638-.658 1.45-.987 2.438-.987 1.074 0 1.955.415 2.644 1.246.69.83 1.033 2.196 1.033 4.1 0 1.935-.358 3.33-1.076 4.188-.717.856-1.65 1.285-2.802 1.285-.828 0-1.498-.22-2.008-.66-.512-.442-.84-1.1-.983-1.976zm4.593-4.435c0-.655-.15-1.163-.45-1.524s-.65-.54-1.045-.54a1.17 1.17 0 0 0-.936.442c-.25.297-.373.782-.373 1.456 0 .684.135 1.186.404 1.506.272.32.608.48 1.013.48.39 0 .72-.154.986-.462.266-.31.4-.762.4-1.358zM91.245 71.82c0-.947.21-1.65.625-2.108.417-.457.98-.686 1.694-.686.735 0 1.313.228 1.73.683.416.454.624 1.158.624 2.11 0 .95-.208 1.652-.625 2.11-.416.457-.98.687-1.693.687-.737 0-1.313-.228-1.73-.683-.416-.455-.625-1.16-.625-2.113zm1.582-.014c0 .688.08 1.15.238 1.387.12.174.287.26.5.26a.578.578 0 0 0 .504-.26c.153-.235.23-.698.23-1.387s-.077-1.148-.23-1.38a.575.575 0 0 0-.506-.267.575.575 0 0 0-.5.26c-.157.236-.237.698-.237 1.386zM95.11 80.2h-1.503l5.642-11.174h1.458L95.11 80.2zm3.28-2.782c0-.948.208-1.65.624-2.108.417-.458.986-.687 1.71-.687.726 0 1.298.23 1.714.687.417.457.625 1.16.625 2.108 0 .954-.208 1.66-.625 2.117-.416.457-.98.686-1.693.686-.737 0-1.313-.228-1.73-.685-.417-.457-.625-1.162-.625-2.117zm1.582-.006c0 .688.078 1.148.238 1.38a.57.57 0 0 0 .498.268.56.56 0 0 0 .498-.26c.16-.236.238-.7.238-1.388s-.077-1.15-.23-1.387c-.12-.174-.29-.26-.506-.26s-.383.086-.498.26c-.16.236-.238.698-.238 1.387z"/></g></svg>