<svg xmlns="http://www.w3.org/2000/svg" width="148.754" height="132.662" viewBox="0 0 148.754 132.662"><path fill="#9FBA50" d="M74.206 31.372C79.62 26.822 87.726 5.92 88.84 3.21c.775-1.882 8.91 1.268 7.38 3.76C94.695 9.455 83.2 28.56 82.45 35.553c-.664 6.204.083 9.868-6.98 7.615-.067.168-3.007-1.286-2.96-1.36-6.778-4.973-3.167-6.357 1.696-10.438z"/><circle fill="#9FBA50" cx="90.216" cy="11.299" r="11.296"/><path fill="#FFF" d="M92.422 6.953c5.017 2.77 8.048 6.915 6.754 9.252-1.292 2.342-6.415 1.993-11.433-.775-5.022-2.773-8.044-6.917-6.755-9.26 1.294-2.342 6.415-1.994 11.434.783z"/><path fill="#00452F" d="M93.32 14.148a3.857 3.857 0 0 1-6.746-3.742 3.85 3.85 0 0 1 5.242-1.502 3.853 3.853 0 0 1 1.505 5.244z"/><path opacity=".5" fill="#FFF" d="M89.472 12.993c-.448.552-.32 1.412.298 1.9.616.5 1.482.45 1.93-.105.45-.557.318-1.418-.298-1.913-.614-.496-1.48-.44-1.93.118z"/><path opacity=".3" fill="#3C3C3B" d="M139.622 38.722l-47.195-9.985c-.182-.038-.363-.057-.543-.086a7.627 7.627 0 0 0-.703-.184l-7.778-1.647a7.67 7.67 0 0 0-9.093 5.92l-2.1 9.913-.03.15L60.114 99.83l-2.098 9.914-.032.15a7.674 7.674 0 0 0 5.917 9.096l7.78 1.645c.25.055.5.09.75.12.167.042.33.097.5.132l47.194 9.984c6.22 1.317 12.333-2.66 13.65-8.88l.03-.148 2.097-9.91 10.473-49.5.032-.148 2.097-9.914c1.317-6.223-2.66-12.333-8.88-13.648z"/><path fill="#D7E896" d="M138.667 37.768l-47.195-9.985c-.182-.038-.362-.057-.543-.087a7.957 7.957 0 0 0-.704-.184l-7.78-1.647a7.67 7.67 0 0 0-9.093 5.92l-2.097 9.913-.032.15L59.16 98.876l-2.098 9.914-.032.15a7.674 7.674 0 0 0 5.917 9.096l7.78 1.644c.25.057.5.09.75.12.166.043.328.098.5.133l47.193 9.984c6.222 1.316 12.333-2.66 13.65-8.88l.03-.15 2.097-9.91 10.472-49.5.03-.147 2.098-9.914c1.317-6.223-2.66-12.332-8.88-13.648z"/><path opacity=".3" fill="#3C3C3B" d="M137.713 36.813l-47.195-9.985c-.182-.038-.363-.057-.543-.087a8.72 8.72 0 0 0-.703-.184l-7.78-1.646a7.67 7.67 0 0 0-9.093 5.92l-2.1 9.913-.03.15-12.065 57.03-2.098 9.913-.032.15a7.674 7.674 0 0 0 5.917 9.096l7.78 1.644c.25.056.5.09.75.12.166.043.33.098.5.133l47.193 9.983c6.22 1.316 12.333-2.66 13.65-8.88l.03-.15 2.098-9.91 10.472-49.5.032-.147 2.097-9.914c1.316-6.223-2.66-12.333-8.88-13.65z"/><path fill="#D7E896" d="M136.758 35.86l-47.195-9.986c-.182-.038-.362-.058-.543-.087a7.96 7.96 0 0 0-.703-.185l-7.78-1.646a7.67 7.67 0 0 0-9.093 5.92l-2.098 9.913-.03.15L57.25 96.966l-2.097 9.914-.032.15a7.674 7.674 0 0 0 5.918 9.097l7.78 1.645c.25.055.5.09.75.12.166.043.33.097.5.132l47.192 9.984c6.222 1.317 12.334-2.66 13.65-8.88l.03-.148 2.098-9.91 10.472-49.5.032-.148 2.097-9.915c1.316-6.222-2.66-12.332-8.882-13.648z"/><g fill="#464646"><path d="M90.525 43.262l-.34 1.565-5.907-1.284c.19-.577.506-1.096.94-1.557.435-.46 1.22-1.025 2.354-1.696.914-.543 1.482-.922 1.71-1.136.308-.298.498-.616.572-.956.082-.376.043-.687-.115-.933-.158-.245-.415-.407-.772-.484-.35-.075-.654-.03-.908.136-.255.167-.45.493-.59.98l-1.642-.534c.302-.906.76-1.504 1.375-1.793.616-.29 1.32-.35 2.11-.177.868.188 1.5.57 1.894 1.146.394.574.516 1.21.365 1.905a3.11 3.11 0 0 1-.458 1.084c-.22.327-.526.653-.92.978-.26.216-.71.51-1.347.883-.638.372-1.045.623-1.22.753-.178.128-.328.26-.448.392l3.345.727zM97.478 44.773l-.34 1.564-5.906-1.283a4.146 4.146 0 0 1 .94-1.557c.436-.46 1.22-1.026 2.354-1.696.914-.542 1.483-.92 1.71-1.136.308-.297.5-.615.573-.955.08-.377.042-.688-.116-.934-.157-.246-.415-.407-.77-.484-.354-.077-.656-.03-.91.135-.254.167-.45.493-.59.978l-1.642-.532c.3-.906.76-1.504 1.375-1.793.616-.29 1.32-.35 2.11-.176.868.188 1.5.57 1.894 1.146.394.575.516 1.21.365 1.906a3.092 3.092 0 0 1-.458 1.084c-.22.327-.525.653-.918.98-.263.214-.71.508-1.35.88-.637.373-1.044.623-1.22.753a2.86 2.86 0 0 0-.448.393l3.346.727zM102.414 45.356l1.67.175c-.032.34.02.61.152.806.133.196.337.324.613.385.348.077.678-.02.992-.286.312-.267.614-.896.9-1.89-.53.4-1.113.53-1.75.393-.69-.15-1.23-.547-1.616-1.19-.386-.643-.484-1.392-.3-2.247.195-.892.615-1.553 1.264-1.983.648-.43 1.38-.558 2.2-.38.894.194 1.55.698 1.972 1.513s.46 2.01.117 3.59c-.35 1.607-.9 2.703-1.65 3.284-.75.583-1.603.77-2.56.562-.687-.15-1.203-.453-1.547-.91-.345-.46-.498-1.067-.46-1.82zm4.615-2.853c.117-.544.083-.993-.102-1.347-.184-.354-.442-.567-.77-.64a.994.994 0 0 0-.856.2c-.26.2-.45.582-.572 1.142-.123.568-.102 1.01.064 1.323.167.316.417.51.753.583.323.07.625.002.902-.206.278-.207.47-.56.58-1.054zM112.194 49.61l.384-1.77-3.6-.78.322-1.477 5.028-4.755 1.415.308-1.212 5.578 1.093.237-.322 1.482-1.09-.237-.386 1.77-1.63-.354zm.707-3.25l.654-3.005-2.673 2.565 2.02.44zM119.15 51.122l.383-1.77-3.6-.78.322-1.477 5.028-4.755 1.415.308-1.212 5.578 1.092.237-.322 1.48-1.092-.236-.384 1.77-1.63-.355zm.706-3.25l.653-3.005-2.675 2.565 2.02.44zM88.366 54.666l1.602.92c-.472.902-1.065 1.52-1.78 1.853-.715.332-1.544.395-2.49.19-1.167-.254-2.04-.86-2.617-1.822-.578-.96-.716-2.134-.415-3.517.318-1.463.943-2.518 1.874-3.163.93-.645 2.012-.834 3.244-.566 1.075.234 1.88.743 2.414 1.524.317.463.5 1.067.547 1.814l-1.848.038c-.005-.48-.144-.886-.417-1.22-.273-.337-.645-.556-1.117-.658-.65-.142-1.23-.023-1.74.356-.506.38-.874 1.094-1.1 2.14-.243 1.113-.214 1.948.082 2.507.298.56.766.908 1.406 1.048.473.103.91.04 1.316-.186.406-.225.753-.644 1.04-1.256zM98.655 60.288l-1.932-.42-.333-2.164-3.515-.764-1.16 1.84-1.884-.41 5.338-8.048 1.877.408 1.61 9.558zM96.142 56.1l-.503-3.526-1.897 3.005 2.4.52zM101.654 51.732l1.662.36-1.272 5.855 4.835-5.08 1.768.385-1.91 8.793-1.662-.36 1.248-5.74-4.804 4.966-1.775-.384 1.91-8.794zm5.034-1.198l.82.18c-.166.532-.448.917-.85 1.154s-.87.298-1.4.183c-.532-.114-.93-.363-1.197-.746-.266-.382-.364-.85-.295-1.404l.822.18c-.034.288.02.524.16.708.14.184.375.31.703.382s.594.053.797-.056.35-.302.44-.58zM110.65 62.895l1.587-7.305-2.608-.566.322-1.488 6.986 1.52-.323 1.486-2.603-.565-1.587 7.306-1.776-.388zM116.573 59.635c.195-.896.493-1.618.892-2.168a4.233 4.233 0 0 1 1.082-1.027c.423-.28.86-.462 1.308-.544.598-.112 1.255-.093 1.97.063 1.297.28 2.246.908 2.85 1.88.603.973.748 2.176.438 3.606-.31 1.42-.936 2.446-1.882 3.08-.944.635-2.063.812-3.355.53-1.308-.284-2.26-.91-2.86-1.874-.598-.965-.746-2.147-.442-3.547zm1.843.338c-.217.996-.15 1.8.198 2.414.348.613.876.998 1.583 1.15.708.154 1.343.025 1.908-.385.564-.412.958-1.127 1.18-2.146.218-1.008.16-1.808-.173-2.4-.335-.59-.868-.966-1.6-1.125-.732-.157-1.376-.035-1.932.37-.556.404-.945 1.11-1.164 2.123zM127.584 57.368l3.515.764c.694.15 1.206.293 1.536.425.33.133.608.32.84.562.228.24.4.535.513.88.113.346.13.708.046 1.088-.09.412-.282.766-.58 1.06a2.117 2.117 0 0 1-1.07.58c.502.27.856.626 1.062 1.065.207.438.255.91.145 1.42-.087.398-.265.768-.534 1.105a2.404 2.404 0 0 1-.96.74c-.37.155-.797.208-1.28.157-.304-.032-1.02-.167-2.155-.405l-2.992-.65 1.91-8.792zm.697 5.346l-.51 2.35 1.644.358c.64.14 1.05.21 1.23.21.273.01.513-.06.72-.21.206-.15.343-.38.41-.692.058-.265.043-.502-.045-.714s-.245-.386-.47-.522c-.223-.137-.738-.292-1.545-.468l-1.434-.312zm.76-3.497l-.44 2.033 1.162.253c.692.15 1.125.233 1.297.25.31.03.572-.022.784-.16.21-.134.348-.345.41-.63.06-.27.032-.508-.08-.71-.114-.203-.313-.355-.602-.454-.172-.06-.676-.18-1.512-.36l-1.02-.223z"/></g><path fill="#FFE78B" d="M93.092 106.745c1.032 5.738-2.785 11.23-8.526 12.262-5.737 1.03-11.228-2.788-12.26-8.526-1.03-5.74 2.788-11.228 8.524-12.258 5.74-1.033 11.23 2.786 12.262 8.523z"/><path opacity=".3" d="M59.65 56.018l74.62 16.155-.605 2.8-74.62-16.155zM57.98 64.13l74.622 16.155-.606 2.8-74.62-16.156zM55.595 72.003l74.62 16.155-.605 2.8L54.99 74.8zM54.163 79.704l74.622 16.155-.606 2.8-74.623-16.156zM51.54 88.772l74.62 16.155-.606 2.798-74.62-16.155z"/><path opacity=".3" fill="#3C3C3B" d="M69.212 22.408l-50.82 9.133c-.197.036-.382.09-.574.134-.255.02-.514.054-.77.1L8.67 33.28a8.21 8.21 0 0 0-6.63 9.537L3.96 53.49l.03.162 11.035 61.41 1.918 10.676.03.16a8.213 8.213 0 0 0 9.535 6.633l8.377-1.505c.27-.048.533-.11.79-.184.185-.022.367-.036.55-.07l50.82-9.132c6.7-1.204 11.156-7.61 9.953-14.31l-.03-.16-1.917-10.673-9.578-53.3-.03-.16-1.917-10.676c-1.205-6.702-7.61-11.156-14.31-9.952z"/><path opacity=".3" d="M49.632 97.36l74.62 16.154-.606 2.8-74.62-16.155z"/><path fill="#FFE78B" d="M93.198 107.334l-19.73 3.546-2.257-12.56 19.73-3.546z"/><path fill="#1563A8" d="M67.303 21.453l-50.82 9.134c-.197.035-.382.09-.574.133-.256.02-.514.054-.772.1L6.76 32.325A8.21 8.21 0 0 0 .13 41.86l1.92 10.676.028.16 11.036 61.41 1.918 10.677.03.162a8.214 8.214 0 0 0 9.534 6.632l8.377-1.506a8.43 8.43 0 0 0 .79-.183c.185-.024.367-.037.55-.07l50.82-9.133c6.7-1.204 11.157-7.61 9.953-14.31l-.03-.16L93.14 95.54l-9.58-53.3-.027-.16-1.92-10.675c-1.203-6.7-7.61-11.155-14.31-9.952z"/><path fill="#FFE78B" d="M93.307 106.688l-.75-4.17c-.13.307-.28.604-.435.9a12.35 12.35 0 0 1-8.564 6.358l-61.445 11.05c-.544.097-1.038.3-1.49.56a4.61 4.61 0 0 0-2.248 4.813 4.627 4.627 0 0 0 5.375 3.737l61.76-11.098-.005-.04a10.544 10.544 0 0 0 7.88-11.505l.03-.005-.102-.567c0-.006 0-.013-.002-.018l-.003-.017z"/><g><g fill="#FFF"><path d="M79.547 60.71l3.064-.533s-4.308 8.736-4.655 9.45c-.117.228-.306.487-.374.782-.17.736-.2 2.29-.2 2.29l-2.8.52s.155-1.645-.013-2.473c-.146-.726-.648-1.387-.99-2.077-.34-.702-.887-2.097-.887-2.097l2.88-.518.68 1.518 3.297-6.862z"/><path d="M74.04 63.38c.627.24 1.313 2.054 1.313 2.054s-2.95.576-4.56.865l-1.388.248-.368 7.65-2.58.465s.17-8.273.29-9.79c.038-.49.772-.54 1.985-.757l1.94-.348c1.253-.224 2.688-.65 3.37-.39zM64.756 66.777c.542 1.126.416 4.024.416 4.024s-3.28.534-5.063.91c-.555.118-1.236.16-1.355.45-.17.405.25.906.565 1.095.36.216.97.138 1.19.127 1.49-.078 4.51-.76 4.51-.76l-.11 2.426s-4.262.99-6.505.864c-.442-.025-.878-.16-1.2-.398-.087-.066-.17-.164-.256-.243a2.664 2.664 0 0 1-.383-.46c-.727-1.224-.63-3.83-.332-5.272.034-.167.076-.38.13-.56.064-.23.11-.48.168-.622.042-.093.102-.164.144-.255.05-.108.11-.215.167-.31.156-.266.353-.47.585-.723.776-.83 2.306-1.645 4.29-1.795.75-.057 1.904.008 2.58.664.18.176.32.563.456.84zm-2.088 2.338s-.005-.482-.458-.968c-.387-.41-.683-.468-1.483-.35-2.256.332-1.914 1.986-1.914 1.986l3.855-.668zM52.575 67.01l2.5-.464s-.205 6.866-.336 10.223c-1.08.192-1.992.356-2.88.517-2.012.362-3.76.935-4.782-.37-.99-1.268-.698-3.694-.646-5.317.034-1.148.122-3.497.122-3.497l2.59-.49s-.1 3.65-.09 5.464c.004.65-.114 1.283.204 1.708.304.4.622.376 1.58.227.302-.047 1.29-.23 1.29-.23l.447-7.77zM44.53 69.582c.66 2.028-.025 4.52-.422 6.652.782-.068 1.442-.27 1.5-.223.065.066-.086 2.477-.284 2.52-.61.123-2.63.505-3.477.657-2.757.495-5.305 1.138-6.866.005-.635-.462-1.176-1.352-1.386-2.01-.35-1.09-.387-2.36-.308-3.428.07-.96.215-1.883.528-2.76.795-2.23 2.54-4.094 5.983-4.354.667-.05 1.66.067 2.307.303.046.018.21.103.245.118.887.365 1.827 1.442 2.18 2.522zm-2.816 4.3c.095-.98.297-2.057.096-2.887-.212-.89-1.113-1.572-1.63-1.655-1.555-.254-2.796.714-3.233 1.4-.566.89-.645 1.823-.674 3.095-.02.943 0 1.932.464 2.584.823 1.145 2.637.534 4.646.186.156-.852.24-1.793.33-2.724zM29.44 71.168c.89-.16 1.72-.296 2.695-.473-.03.79-.042 1.68-.083 2.462-.925.168-1.854.334-2.78.5.066-.872.082-1.726.168-2.49zM29.298 74.37l2.68-.48c-.002 2.002-.134 5.257-.286 7.53-.096 1.427-.145 2.464-.936 3.35-.073.077-.125.057-.18.134-.142.19-.894.52-1.32.647-.693.204-1.505.28-2.377.42.08-.874.156-1.917.224-2.697 2.165-.124 1.858-2.134 1.922-4.137.036-1.158.216-4.295.272-4.765zM23.952 80.56l-.032.157c-.636 2.082-2.16 3.563-4.625 4.06a7.356 7.356 0 0 1-3.086-.058c-1.68-.42-3.22-1.482-4.183-2.735-1.38-1.797-2.06-4.523-.302-6.965.033-.007-.18.49-.146.483l-.024.202c-.672 5.077 4.796 8.348 9.304 7.05 1.086-.31 2.384-1.17 3.092-2.196zM23.056 74.53c-.105.446-1 1.41-1.44 1.587-1.74.712-3.05.063-3.835-.806a4.962 4.962 0 0 1-.402-.59c-.38-.76-.488-1.988.102-2.743-.104.636-.012 1.332.18 1.762.118.26.41.696.668.96.47.475.733.566 1.265.768.24.09.492.153.597.165.48.053 1.505.232 2.866-1.103z"/><path d="M20.814 79.073c1.156-.2 2.267-.957 2.846-1.846-.34 1.702-1.968 3.048-4.453 3.16-2.084.094-4.39-1.606-4.957-3.62-.415-1.466-.054-2.45.61-3.686-.2.62-.23 1.077-.21 1.36.257 3.286 3.578 5.08 6.164 4.633z"/></g></g><path opacity=".3" fill="#3C3C3B" d="M83.238 120.875l-6.34 1.14-17.81-99.09 6.34-1.138z"/><path fill="#F5B134" d="M85.365 120.548l-6.34 1.14L61.215 22.6l6.34-1.14z"/><path opacity=".2" fill="#3C3C3B" d="M85.482 120.627l-6.34 1.14-1.918-10.675 6.34-1.14z"/></svg>