<svg xmlns="http://www.w3.org/2000/svg" width="143.806" height="130.721" viewBox="0 0 143.806 130.721"><path fill="#EBEBEB" d="M91.783 19.683c1.616-3.392 1.933-6.46 8.4-6.46h37.162a6.46 6.46 0 0 1 6.46 6.46v14.7a6.462 6.462 0 0 1-6.46 6.463h-37.162c-3.568 0-13.57-2.894-13.57-6.462l5.17-14.7z"/><path opacity=".1" fill="#585757" d="M115.3 19.683c-1.617-3.392-1.933-6.46-8.4-6.46H69.74a6.46 6.46 0 0 0-6.463 6.46v14.7a6.462 6.462 0 0 0 6.462 6.463h37.16c3.57 0 13.57-2.894 13.57-6.462l-5.17-14.7z"/><path fill="#C4C4C4" d="M114.445 19.683c-1.615-3.392-1.932-6.46-8.4-6.46h-37.16a6.46 6.46 0 0 0-6.462 6.46v14.7a6.462 6.462 0 0 0 6.46 6.463h37.162c3.57 0 13.57-2.894 13.57-6.462l-5.17-14.7z"/><path opacity=".15" d="M84.236 19.683c-1.616-3.392-1.068-6.46-7.536-6.46H39.54a6.46 6.46 0 0 0-6.462 6.46v14.7a6.462 6.462 0 0 0 6.462 6.463H76.7c3.57 0 12.705-2.894 12.705-6.462l-5.17-14.7z"/><path fill="#585757" d="M143.806 95.355a7.367 7.367 0 0 1-7.367 7.367H38.714a7.368 7.368 0 0 1-7.367-7.367V29.55a7.366 7.366 0 0 1 7.367-7.365h97.725a7.367 7.367 0 0 1 7.367 7.365v65.805z"/><path fill="#585757" d="M83.37 19.683c-1.614-3.392-1.93-6.46-8.4-6.46H37.81a6.46 6.46 0 0 0-6.462 6.46v14.7a6.463 6.463 0 0 0 6.462 6.463h37.16c3.57 0 13.57-2.894 13.57-6.462l-5.17-14.7z"/><path fill="#464646" d="M33.385 96.285a4.516 4.516 0 0 0 4.517 4.515h99.352a4.515 4.515 0 0 0 4.516-4.515V28.62a4.516 4.516 0 0 0-4.516-4.514H37.902a4.516 4.516 0 0 0-4.517 4.515v67.665z"/><path opacity=".15" d="M79.65 18.266a2.307 2.307 0 0 1-4.612 0 2.306 2.306 0 0 1 4.612 0zM111.79 18.266a2.307 2.307 0 0 1-2.306 2.307 2.308 2.308 0 0 1-2.307-2.307 2.307 2.307 0 0 1 4.613 0zM140.615 18.266a2.306 2.306 0 0 1-4.612 0 2.307 2.307 0 0 1 4.612 0z"/><path opacity=".15" d="M137.345 13.223H37.81a6.46 6.46 0 0 0-6.462 6.46v75.673a7.367 7.367 0 0 0 7.367 7.367h97.725c4.068 0 7.367-3.3 7.367-7.367V19.683a6.46 6.46 0 0 0-6.462-6.46z"/><path fill="#EBEBEB" d="M79.025 34.692c1.87-3.922 2.234-7.472 9.715-7.472h42.973a7.473 7.473 0 0 1 7.473 7.472v17a7.474 7.474 0 0 1-7.473 7.474H88.74c-4.127 0-15.693-3.347-15.693-7.473l5.978-17z"/><path opacity=".1" fill="#585757" d="M106.47 34.692c-1.87-3.922-2.234-7.472-9.715-7.472H53.782a7.473 7.473 0 0 0-7.473 7.472v17a7.474 7.474 0 0 0 7.472 7.474h42.973c4.127 0 15.693-3.347 15.693-7.473l-5.978-17z"/><path fill="#C4C4C4" d="M105.482 34.692c-1.868-3.922-2.235-7.472-9.715-7.472H52.794a7.473 7.473 0 0 0-7.473 7.472v17a7.474 7.474 0 0 0 7.474 7.474h42.973c4.128 0 15.692-3.347 15.692-7.473l-5.978-17z"/><path opacity=".15" d="M70.547 34.692c-1.87-3.922-1.234-7.472-8.715-7.472H18.86a7.473 7.473 0 0 0-7.474 7.472v17a7.474 7.474 0 0 0 7.473 7.474H61.83c4.127 0 14.693-3.347 14.693-7.473l-5.978-17z"/><path fill="#585757" d="M139.436 122.202a8.52 8.52 0 0 1-8.52 8.52H17.907a8.518 8.518 0 0 1-8.52-8.52V46.104a8.52 8.52 0 0 1 8.52-8.518h113.01a8.518 8.518 0 0 1 8.52 8.518v76.098z"/><path fill="#585757" d="M69.547 34.692c-1.87-3.922-2.234-7.472-9.715-7.472H16.86a7.473 7.473 0 0 0-7.474 7.472v17a7.474 7.474 0 0 0 7.473 7.474H59.83c4.127 0 15.693-3.347 15.693-7.473l-5.978-17z"/><path fill="#464646" d="M11.742 123.277a5.222 5.222 0 0 0 5.223 5.222h114.893a5.22 5.22 0 0 0 5.222-5.223V45.03a5.222 5.222 0 0 0-5.222-5.223H16.965a5.223 5.223 0 0 0-5.223 5.222v78.247z"/><path fill="#FF7600" d="M65.244 33.055a2.667 2.667 0 0 1-5.334 0 2.667 2.667 0 0 1 5.334 0zM102.41 33.055a2.667 2.667 0 0 1-5.334 0 2.668 2.668 0 0 1 5.334 0zM135.745 33.055a2.667 2.667 0 0 1-5.334 0 2.668 2.668 0 0 1 5.334 0z"/><g fill="#009DE1"><path d="M22.513 58.743l-5.89-2.56v-1.42l5.89-2.548v1.67l-4.107 1.57 4.107 1.63v1.658zM24.582 57.507l-.428-4.36v-2.015h1.78v2.016l-.42 4.36h-.932zm-.358 2.215v-1.646h1.646v1.646h-1.646zM27.94 51.132h3.17c.714 0 1.258.055 1.633.164.504.148.936.412 1.295.79s.633.844.82 1.393.28 1.225.28 2.03c0 .706-.087 1.315-.263 1.827-.215.625-.52 1.13-.92 1.518-.3.293-.707.52-1.22.686-.382.122-.894.183-1.535.183h-3.263v-8.59zm1.733 1.453v5.69h1.295c.484 0 .834-.028 1.05-.083.28-.07.514-.19.7-.357s.336-.444.453-.83.177-.908.177-1.572-.06-1.174-.176-1.53-.28-.632-.49-.83-.48-.335-.804-.405c-.242-.055-.717-.082-1.424-.082h-.78zM36.26 55.48c0-.876.13-1.61.392-2.204a4.05 4.05 0 0 1 .8-1.178 3.335 3.335 0 0 1 1.11-.773c.535-.227 1.152-.34 1.852-.34 1.266 0 2.278.393 3.038 1.178.76.785 1.14 1.877 1.14 3.275 0 1.387-.377 2.472-1.13 3.255s-1.763 1.175-3.024 1.175c-1.278 0-2.293-.39-3.047-1.17s-1.13-1.85-1.13-3.22zm1.786-.06c0 .974.225 1.71.674 2.213s1.02.753 1.71.753 1.26-.25 1.703-.747c.443-.5.665-1.246.665-2.242 0-.984-.216-1.72-.647-2.203s-1.004-.727-1.72-.727-1.29.245-1.728.735c-.437.49-.656 1.23-.656 2.218zM51.44 56.563l1.683.533c-.258.938-.687 1.634-1.286 2.09s-1.36.682-2.282.682c-1.14 0-2.078-.39-2.812-1.17s-1.102-1.844-1.102-3.195c0-1.43.37-2.54 1.108-3.33s1.71-1.188 2.912-1.188c1.05 0 1.905.31 2.56.932.392.367.685.895.88 1.582l-1.717.41c-.102-.446-.313-.798-.636-1.056s-.714-.387-1.175-.387c-.637 0-1.153.23-1.55.686s-.595 1.197-.595 2.22c0 1.087.195 1.86.586 2.32s.898.692 1.523.692c.46 0 .858-.146 1.19-.44s.57-.753.715-1.382zM56.544 59.722v-7.137h-2.55v-1.453h6.828v1.453H58.28v7.137h-1.736zM64.197 59.722v-3.615l-3.146-4.975h2.034l2.02 3.398 1.98-3.398h2l-3.16 4.986v3.604h-1.727zM69.945 59.722v-8.59h2.783c1.055 0 1.742.043 2.062.13.492.128.904.408 1.236.84s.498.99.498 1.673c0 .527-.096.97-.287 1.33s-.435.642-.73.847-.594.34-.898.407c-.415.08-1.015.122-1.8.122h-1.13v3.24h-1.735zm1.734-7.137v2.438h.948c.684 0 1.14-.045 1.37-.135s.412-.23.543-.422c.132-.19.197-.414.197-.668 0-.312-.092-.57-.275-.773s-.416-.33-.697-.38c-.207-.04-.623-.06-1.248-.06h-.838zM77.95 59.722v-8.59h6.368v1.453h-4.635v1.904h4.312v1.446h-4.312v2.338h4.8v1.447h-6.534zM85.636 58.75v-1.66l4.113-1.616-4.114-1.6v-1.646l5.895 2.55v1.405l-5.894 2.566z"/></g><g fill="#FF5B00"><path d="M22.852 73.743l-5.89-2.56v-1.42l5.89-2.548v1.67l-4.108 1.57 4.108 1.63v1.658zM24.293 74.722v-8.59h1.734v3.38h3.398v-3.38h1.734v8.59h-1.735v-3.756h-3.398v3.756h-1.734zM34.887 74.722v-7.137h-2.55v-1.453h6.827v1.453H36.62v7.137h-1.733zM40.26 74.722v-8.59h2.596l1.56 5.86 1.54-5.86h2.602v8.59h-1.61V67.96l-1.706 6.762h-1.67l-1.7-6.762v6.762H40.26zM50.326 74.722v-8.52h1.735v7.072h4.313v1.447h-6.047zM57.293 73.75v-1.66l4.113-1.616-4.113-1.6v-1.646l5.895 2.55v1.405l-5.895 2.566z"/></g><g fill="#FFF"><path d="M23.4 107.244l-5.89-2.56v-1.42l5.89-2.548v1.67l-4.107 1.57 4.107 1.63v1.658zM28.685 108.223H27.04v-6.205c-.603.562-1.312.98-2.128 1.248v-1.494c.43-.14.897-.407 1.4-.8s.85-.85 1.038-1.374h1.336v8.625zM36.724 101.736l-1.594.176c-.04-.328-.14-.57-.305-.727-.164-.156-.376-.234-.638-.234-.348 0-.642.157-.882.47s-.392.963-.454 1.95c.41-.483.92-.726 1.53-.726.688 0 1.276.262 1.767.785s.735 1.198.735 2.026c0 .88-.258 1.584-.773 2.115s-1.18.798-1.987.798c-.867 0-1.58-.337-2.14-1.01s-.837-1.78-.837-3.314c0-1.574.29-2.71.873-3.404s1.337-1.043 2.266-1.043c.653 0 1.193.183 1.62.548s.7.896.818 1.59zm-3.732 3.592c0 .535.123.948.37 1.24s.526.436.842.436c.305 0 .56-.12.762-.357s.305-.63.305-1.172c0-.56-.11-.968-.327-1.228a1.03 1.03 0 0 0-.82-.39c-.316 0-.584.124-.803.372s-.328.614-.328 1.098zM43.937 99.598c.832 0 1.482.297 1.95.89.56.704.84 1.87.84 3.5 0 1.624-.282 2.792-.845 3.503-.465.587-1.113.88-1.945.88-.836 0-1.51-.32-2.02-.964s-.77-1.788-.77-3.437c0-1.618.282-2.782.845-3.493.465-.586 1.113-.88 1.945-.88zm0 1.365c-.2 0-.377.063-.533.19s-.277.354-.363.683c-.112.426-.17 1.143-.17 2.15s.052 1.7.154 2.077.23.628.384.753.33.188.53.188.377-.063.533-.19.278-.354.364-.683c.113-.42.17-1.136.17-2.144s-.05-1.7-.152-2.077c-.102-.378-.23-.63-.384-.757s-.332-.19-.53-.19zM47.828 101.28v-1.53h5.63v1.195c-.464.457-.937 1.113-1.417 1.97s-.846 1.764-1.098 2.727-.376 1.823-.372 2.58h-1.588c.027-1.187.272-2.397.735-3.632s1.08-2.338 1.854-3.31H47.83zM57.73 108.223v-1.73h-3.516v-1.44l3.727-5.455h1.384v5.45h1.066v1.446h-1.066v1.73H57.73zm0-3.176v-2.936l-1.975 2.937h1.975zM70.368 105.064l1.682.533c-.258.938-.687 1.634-1.286 2.09s-1.36.682-2.282.682c-1.14 0-2.078-.39-2.812-1.17s-1.102-1.845-1.102-3.196c0-1.43.37-2.54 1.107-3.33s1.71-1.188 2.912-1.188c1.05 0 1.904.31 2.56.932.392.367.685.895.88 1.582l-1.717.41c-.102-.445-.313-.797-.636-1.055s-.714-.387-1.175-.387c-.638 0-1.154.23-1.55.686s-.596 1.197-.596 2.22c0 1.087.195 1.86.586 2.32s.898.692 1.523.692c.46 0 .857-.146 1.19-.44s.57-.753.715-1.382zM80.986 108.223H79.1l-.75-1.95h-3.435l-.71 1.95h-1.84l3.347-8.59h1.834l3.44 8.59zm-3.194-3.4l-1.184-3.187-1.16 3.188h2.344zM81.93 99.633h1.622v5.72l3.48-5.72h1.73v8.59h-1.624v-5.607l-3.475 5.607H81.93v-8.59zm4.452-2.14h.803c-.047.532-.234.95-.56 1.252-.326.303-.75.454-1.27.454s-.94-.152-1.268-.455-.513-.72-.56-1.25h.803c.027.276.125.486.293.63s.412.213.732.213.564-.07.732-.214.268-.353.295-.63zM92.464 108.223v-7.137h-2.55v-1.453h6.827v1.453H94.2v7.137h-1.734zM97.21 103.98c0-.875.13-1.61.393-2.203.195-.438.462-.83.8-1.178s.708-.606 1.11-.774c.535-.227 1.152-.34 1.852-.34 1.266 0 2.278.393 3.038 1.178.76.785 1.14 1.877 1.14 3.275 0 1.386-.377 2.47-1.13 3.254-.754.783-1.762 1.175-3.024 1.175-1.278 0-2.294-.39-3.048-1.17s-1.132-1.852-1.132-3.22zm1.788-.058c0 .973.225 1.71.674 2.212.45.502 1.02.753 1.71.753s1.26-.25 1.703-.747.665-1.245.665-2.24c0-.985-.216-1.72-.647-2.204s-1.005-.727-1.72-.727-1.29.244-1.73.734-.655 1.23-.655 2.218zM106.902 99.633h3.434c.68 0 1.187.028 1.52.085s.634.175.897.354.483.42.66.718c.175.3.263.634.263 1.005 0 .402-.108.77-.325 1.107s-.51.588-.88.756c.522.152.925.412 1.206.78s.422.798.422 1.294c0 .39-.09.77-.272 1.14s-.43.664-.744.885-.702.356-1.163.407c-.29.03-.987.05-2.093.06h-2.923v-8.59zm1.734 1.43v1.985h1.137c.676 0 1.095-.01 1.26-.03.296-.034.53-.137.7-.307s.255-.393.255-.67c0-.266-.073-.48-.22-.647s-.364-.267-.653-.302c-.172-.02-.666-.028-1.482-.028h-.997zm0 3.416v2.296h1.605c.626 0 1.022-.018 1.19-.053.258-.047.468-.16.63-.343s.243-.425.243-.73c0-.257-.062-.476-.188-.655s-.306-.31-.542-.393-.75-.123-1.54-.123h-1.397zM115.245 107.25v-1.658l4.114-1.617-4.115-1.6v-1.646l5.895 2.548v1.406l-5.895 2.566z"/></g><path fill="#FFF" d="M17.078 79.97h1.25v14.25h-1.25z"/><g><path fill="#FFD22D" d="M14.68 16c-2.026 5.135-6.114 9.287-11.288 11.54 5.174 2.245 9.262 6.4 11.29 11.532 2.03-5.133 6.117-9.287 11.295-11.533C20.8 25.286 16.712 21.134 14.68 16z"/><path fill="#FF7600" d="M14.68 21.73c-1.016 2.58-3.075 4.67-5.69 5.81 2.615 1.127 4.674 3.223 5.69 5.81 1.025-2.587 3.082-4.683 5.69-5.81-2.608-1.14-4.665-3.23-5.69-5.81z"/></g><g><path fill="#FFD22D" d="M27.182 0c-1.412 3.577-4.26 6.47-7.863 8.038 3.603 1.564 6.45 4.46 7.862 8.034 1.415-3.575 4.262-6.47 7.87-8.034C31.443 6.47 28.596 3.578 27.18 0z"/><path fill="#FF7600" d="M27.182 3.99c-.71 1.8-2.143 3.255-3.963 4.048 1.82.785 3.253 2.245 3.962 4.048.713-1.803 2.146-3.263 3.962-4.048-1.816-.793-3.248-2.25-3.962-4.048z"/></g><g><path fill="#FFD22D" d="M4.683 5.75C3.843 7.88 2.146 9.604 0 10.537c2.146.932 3.843 2.656 4.683 4.785.843-2.13 2.538-3.854 4.687-4.785C7.22 9.604 5.526 7.88 4.683 5.75z"/><path fill="#FF7600" d="M4.683 8.127a4.422 4.422 0 0 1-2.36 2.41 4.398 4.398 0 0 1 2.36 2.41 4.414 4.414 0 0 1 2.36-2.41 4.44 4.44 0 0 1-2.36-2.41z"/></g></svg>