<svg xmlns="http://www.w3.org/2000/svg" width="106.028" height="145.247" viewBox="0 0 106.028 145.247"><ellipse fill="#EBEBEB" cx="51.78" cy="139.856" rx="53.014" ry="6.626"/><path fill="#E33029" d="M53.138 27.837s21.68-.976 33.17 20.814H51.295s-6.613-.217-12.25 7.807c-1.625 3.36-3.36 6.83-1.41 13.658-2.817-4.77-14.96-25.91-14.96-25.91s8.565-15.5 30.464-16.368z"/><path fill="#FBD700" d="M85.18 83.16s-9.997 19.263-34.614 18.315l17.513-30.32s3.493-5.618-.633-14.513c-2.098-3.09-4.234-6.325-11.124-8.05 5.54-.056 29.918.002 29.918.002s9.14 15.17-1.06 34.567z"/><path fill="#66B24B" d="M21.248 83.307S9.566 65.015 22.696 44.17l17.5 30.33s3.118 5.836 12.884 6.71c3.723-.272 7.595-.504 12.535-5.605-2.723 4.823-14.964 25.905-14.964 25.905s-17.706.33-29.402-18.203z"/><path fill="#61A948" d="M50.566 101.654L55.49 81.1s5.416-.422 9.954-5.4c-2.816 4.954-14.878 25.954-14.878 25.954z"/><circle fill="#FFF" cx="53.047" cy="64.973" r="16.405"/><circle fill="#009DE1" cx="53.047" cy="64.973" r="13.659"/><path fill="#EC0" d="M86.24 48.594L65.96 54.54s-3.06-4.487-9.638-5.95c5.7-.018 29.918.004 29.918.004z"/><path fill="#D72F27" d="M37.24 69.377c-2.85-4.936-14.566-25.17-14.566-25.17L37.7 59.066s-1.545 3.177-.96 7.713l.5 2.597z"/><path fill="#CA322B" d="M18.975 92.917s12.107 24.48 3.685 35.53c-8.423 11.057 6.316 14.478 19.213 12.635 12.897-1.842 13.423-3.947 11.318-27.372-1.635-18.205-21.394-20.672-30.12-20.867-2.5-.056-4.095.074-4.095.074z"/><path opacity=".1" d="M29.857 141.17c-3.28-1.568-5.597-4.37-3.144-10.34 4.372-10.637-3.206-35.7-2.914-36.136 0 0-1.042 1.227-2.686 3.17 3.04 7.736 7.604 22.632 1.546 30.583-5.755 7.553-.696 11.54 7.197 12.723z"/><path opacity=".2" d="M80.738 79.783c-.853 0-24.78-.554-27.8 11.198-3.02-11.75-26.946-11.197-27.798-11.197-11.757 0-2.044 20.29-1.022 25.584 1.02 5.294 14.824 5.514 24.28 8.38 2.278.69 3.69.775 4.54.302.85.473 2.264.39 4.542-.302 9.457-2.867 23.26-3.087 24.28-8.38 1.022-5.295 10.735-25.585-1.022-25.585z"/><path fill="#F4F4F4" d="M50.465 102.563s7.87 27.686 4.372 35.264c-3.498 7.577-9.617 6.12-9.617-.875s3.206-18.943 1.75-29.726c-1.46-10.783 1.455-9.325 3.495-4.663z"/><path opacity=".1" d="M73.27 33.238a37.156 37.156 0 0 1 6.343 20.823c0 20.62-16.714 37.335-37.333 37.335-7.71 0-14.874-2.34-20.822-6.345 6.705 9.96 18.08 16.51 30.988 16.51 20.62 0 37.333-16.715 37.333-37.333 0-12.908-6.552-24.285-16.51-30.99z"/><path opacity=".1" d="M48.522 102.298l.12.265s5.175 18.21 5.265 29.135c-.604 6.192-3.227 7.877-9.705 9.007-.498-.965-.806-2.216-.806-3.753 0-6.994 3.206-18.943 1.75-29.726-.653-4.825-.428-7.193.2-7.927a20.346 20.346 0 0 1 3.176 2.998z"/><path opacity=".2" d="M24.942 84.406c.93 0 29.112-.66 28.338 14.336-.772 14.997 4.64 22.496-4.894 19.63-9.533-2.868-22.59-3.088-23.62-8.382-1.03-5.294-11.676-25.584.176-25.584z"/><path fill="#F4F4F4" d="M24.312 81.783c.95 0 29.74-.66 28.95 14.336-.788 14.996 4.74 22.495-5 19.628s-23.95-3.087-25.002-8.38c-1.053-5.295-11.055-25.585 1.052-25.585z"/><path fill="#858585" d="M46.174 89.045a.706.706 0 1 1 .907 1.08l-3.703 3.106a.706.706 0 0 1-.906-1.08l3.702-3.105zM29.855 91.415a.705.705 0 0 1 .993.086c.25.3.21.745-.087.995l-3.7 3.105a.705.705 0 1 1-.906-1.08l3.7-3.105zM44.324 105.3a.704.704 0 1 1 .906 1.08l-3.702 3.106a.706.706 0 0 1-.993-.086.706.706 0 0 1 .087-.994l3.702-3.106zM48.844 120.78a.704.704 0 1 1 1.4.143l-.49 4.807a.706.706 0 0 1-.772.63.706.706 0 0 1-.63-.773l.492-4.808zM50.15 135.033a.706.706 0 0 1 .92-.385c.36.15.533.562.384.922l-1.84 4.47a.705.705 0 0 1-.92.382.706.706 0 0 1-.383-.92l1.84-4.47zM29.585 105.037a.705.705 0 1 1 .907 1.08l-3.702 3.106a.704.704 0 0 1-.907-1.078l3.702-3.108z"/><path opacity=".2" d="M79.1 112.568c.504-.494.853-1.058 1.01-1.71.1-.406.266-.91.475-1.48.22-.323.39-.67.48-1.05.048-.198.114-.424.188-.662 1.598-3.917 4.226-9.71 4.86-14.353 1.123-5.26.613-9.826-4.967-10.07-.916-.04-28.662-1.903-28.543 12.81.003.343 0 .678-.004 1.013-.07.498-.114 1.01-.11 1.554.005.6-.003 1.183-.015 1.757-.404 6.2-1.605 10.655-1.405 13.167-.15 1.313-.196 2.372-.03 3.17-1.823 7.66-3.273 16.296-1.742 20.094 1.626 4.036 4.084 5.585 6.067 5.114 1.576.48 3.087-.19 4.015-1.846.712.157 1.47.312 2.284.465 12.362 2.35 26.728-.376 19.075-11.552-2.962-4.326-2.864-10.49-1.64-16.42z"/><path fill="#CA322B" d="M86.903 92.917s-12.107 24.48-3.685 35.53c8.423 11.057-6.316 14.478-19.212 12.635-12.897-1.842-13.423-3.947-11.318-27.372 1.636-18.205 21.395-20.672 30.12-20.867 2.502-.056 4.095.074 4.095.074z"/><path opacity=".1" d="M57.282 102.298l-.12.265s-5.175 18.21-5.265 29.135c.604 6.192 3.227 7.877 9.705 9.007.498-.965.806-2.216.806-3.753 0-6.994-3.206-18.943-1.75-29.726.653-4.825.428-7.193-.2-7.927a20.435 20.435 0 0 0-3.176 2.998zM76.02 141.17c3.28-1.568 5.598-4.37 3.145-10.34-4.372-10.637 3.206-35.7 2.914-36.136 0 0 1.04 1.227 2.683 3.17-3.04 7.736-7.604 22.632-1.545 30.583 5.755 7.553.697 11.54-7.197 12.723z"/><path fill="#F4F4F4" d="M55.414 102.563s-7.87 27.686-4.372 35.264c3.497 7.577 9.617 6.12 9.617-.875s-3.207-18.943-1.75-29.726c1.458-10.783-1.456-9.325-3.496-4.663z"/><path opacity=".2" d="M81.042 84.406c-.933 0-29.217-.66-28.44 14.336.774 14.997-4.656 22.496 4.91 19.63 9.567-2.868 22.67-3.088 23.704-8.382 1.035-5.294 11.72-25.584-.174-25.584z"/><path fill="#F4F4F4" d="M81.567 81.783c-.95 0-29.74-.66-28.95 14.336.787 14.996-4.74 22.495 5 19.628s23.95-3.087 25.002-8.38c1.052-5.295 11.054-25.585-1.053-25.585z"/><path fill="#858585" d="M59.705 89.045a.706.706 0 1 0-.907 1.08L62.5 93.23c.298.252.743.212.994-.084.25-.3.21-.744-.087-.994l-3.702-3.107zM76.023 91.415a.705.705 0 1 0-.906 1.08L78.82 95.6a.705.705 0 1 0 .906-1.08l-3.703-3.105zM61.555 105.3a.705.705 0 1 0-.907 1.08l3.703 3.106c.3.25.744.21.994-.086.25-.3.21-.743-.087-.994l-3.702-3.106zM57.035 120.78a.704.704 0 1 0-1.402.143l.492 4.807c.04.387.385.67.772.63a.706.706 0 0 0 .63-.773l-.492-4.808zM55.727 135.033a.705.705 0 0 0-.92-.385.706.706 0 0 0-.382.922l1.84 4.47a.706.706 0 0 0 1.303-.537l-1.84-4.47zM76.293 105.037a.705.705 0 1 0-.906 1.08l3.702 3.106a.704.704 0 0 0 .907-1.078l-3.704-3.108z"/><path opacity=".2" d="M68.113 82.73s6.274 25.386-43.667 38c-2.333 4.665-.166 6.5-4 11 22.334 1.165 63-12.335 62.834-49.5-4.667-1.5-15.167.5-15.167.5z"/><path fill="#C9EB5F" d="M66.946 82.395s8.44 23.72-41.5 36.334c-2.333 4.665-.166 6.5-4 11 22.334 1.165 61.833-14.335 61.667-48.17-4.667-1.5-16.167.835-16.167.835z"/><g fill="#494949"><path d="M48.128 121.63c-.22-.485-.33-.73-.55-1.22a61.52 61.52 0 0 1-2.743 1.172l-.417-1.033c.524-2.036.746-3.05 1.112-5.073.396-.18.594-.27.985-.457l1.806 3.81c.323-.15.482-.228.8-.386l.495 1.008c-.324.16-.485.236-.812.39l.572 1.212c-.496.234-.745.35-1.247.577zm-1.012-2.24c-.374-.83-.562-1.243-.937-2.07a59.497 59.497 0 0 1-.574 2.73c.607-.258.91-.39 1.51-.66zM53.27 119.06l-.643-1.173a62.675 62.675 0 0 1-2.633 1.38l-.498-1a59.56 59.56 0 0 0 .707-5.138c.38-.21.566-.315.94-.53l2.1 3.658c.308-.176.46-.265.765-.444l.57.964c-.312.182-.465.272-.777.452.268.466.397.696.664 1.16-.473.273-.713.405-1.194.67zm-1.182-2.154l-1.095-1.99a59.418 59.418 0 0 1-.353 2.765c.583-.302.872-.46 1.448-.774zM55.403 116.356c.475-.29.713-.436 1.183-.732l.487.77c.198.312.324.578.377.795.054.218.042.45-.037.7-.08.248-.225.496-.438.738-.206-.118-.307-.18-.512-.303.203-.22.314-.43.34-.62.026-.188-.026-.396-.155-.62-.232.147-.35.22-.583.36l-.662-1.09zM57.253 112.42c-.015-.02-.682.06-.946-.055a1.432 1.432 0 0 1-.637-.538 1.617 1.617 0 0 1-.238-1.32c.112-.466.433-.876.958-1.248.52-.367 1.015-.527 1.492-.477.478.05.87.27 1.166.668.185.247.283.517.292.81s-.245.865-.245.865c.017.024.767-.113 1.1-.007.335.106.616.305.84.603.368.49.5 1.016.382 1.583-.12.564-.477 1.06-1.067 1.477-.548.387-1.1.572-1.646.557-.644-.02-1.143-.31-1.5-.855a1.834 1.834 0 0 1-.305-.984c-.01-.358.353-1.077.353-1.077zm1.01 1.207c.198.287.434.46.706.508a.987.987 0 0 0 .77-.176.96.96 0 0 0 .42-.646c.042-.265-.043-.54-.253-.828-.18-.254-.405-.402-.667-.444a.975.975 0 0 0-.744.18c-.27.19-.413.418-.425.687-.012.268.052.51.193.717zm-1.506-2.422c.144.21.316.33.52.362.206.03.41-.024.616-.168.208-.147.33-.323.37-.53.04-.203-.016-.406-.164-.613a.778.778 0 0 0-.516-.338c-.204-.032-.404.022-.602.16-.206.146-.33.32-.37.522a.792.792 0 0 0 .145.603zM60.54 106.094c.503-.412 1.04-.566 1.618-.46.688.122 1.456.65 2.29 1.596.83.942 1.253 1.774 1.25 2.505-.002.604-.282 1.14-.832 1.595-.555.458-1.166.626-1.816.505-.65-.12-1.36-.692-2.14-1.7-.767-.99-1.137-1.84-1.13-2.55.008-.585.26-1.076.76-1.49zm.675.817c-.123.102-.2.228-.234.383-.033.155.003.353.108.593.136.312.45.776.938 1.383.49.605.858 1 1.107 1.17.25.175.457.257.62.25a.72.72 0 0 0 .44-.173.736.736 0 0 0 .25-.402c.04-.16.004-.36-.104-.602-.14-.308-.46-.764-.964-1.356-.503-.597-.882-.98-1.132-1.148-.25-.174-.455-.258-.61-.254a.633.633 0 0 0-.42.155zM65.917 103.506c-.417-.425-.63-.838-.644-1.227-.014-.395.14-.745.456-1.07.326-.333.683-.5 1.072-.497.39.002.807.21 1.243.618.435.406.663.81.68 1.207.02.398-.138.77-.47 1.112-.345.35-.72.52-1.117.514-.397-.008-.804-.23-1.22-.658zm.724-.732c.308.306.55.474.73.502.13.02.25-.02.347-.12.1-.1.14-.224.115-.354-.033-.174-.21-.413-.52-.713-.312-.3-.553-.464-.726-.495a.38.38 0 0 0-.347.116.37.37 0 0 0-.11.344c.033.173.203.414.51.72zm4.854 2.564c-.29.305-.437.457-.73.757-.9-3.093-1.418-4.603-2.577-7.532.245-.28.367-.418.608-.7 1.205 2.905 1.747 4.403 2.7 7.475zm.258-2.855c-.444-.398-.678-.795-.708-1.195-.03-.402.114-.782.428-1.15.317-.37.672-.572 1.072-.606.4-.034.833.136 1.294.513.463.38.715.77.75 1.18.037.406-.11.802-.435 1.186-.336.394-.712.606-1.12.635-.408.025-.834-.163-1.28-.562zm.714-.818c.326.28.58.432.762.443a.418.418 0 0 0 .354-.156.406.406 0 0 0 .1-.37c-.04-.18-.228-.408-.558-.687-.33-.278-.59-.43-.768-.44a.403.403 0 0 0-.347.154.39.39 0 0 0-.095.36c.042.18.224.41.55.695z"/></g><path fill="#9FBA50" d="M26.675 12.262c-.11-2.153-3.698-7.97-4.152-8.738-.315-.534 1.947-1.932 2.27-1.102.325.828 2.854 7.137 4.415 8.605 1.386 1.303 2.414 1.795.567 3.098.03.047-.866.494-.875.47-2.456.732-2.127-.4-2.225-2.333z"/><circle fill="#9FBA50" cx="24.742" cy="4.678" r="3.443"/><ellipse transform="rotate(-113.98 24.692 4.69)" fill="#FFF" cx="24.692" cy="4.69" rx="1.475" ry="3.165"/><circle fill="#00452F" cx="24.586" cy="4.791" r="1.437"/><ellipse transform="rotate(166 23.987 4.58)" opacity=".5" fill="#FFF" cx="23.987" cy="4.581" rx=".436" ry=".394"/><path fill="#B8E500" d="M28.137 12.8c-2.572.712-33.34 9.747-2.152 26.526.702-.375 1.35-.718 1.97-1.05l1.216 2.597 19.477-9.12-1.224-2.614c.766-.315 1.578-.647 2.467-1.01C56.97-6.567 30.33 11.28 28.137 12.8z"/><g opacity=".05"><path d="M32.966 36.72c-.564.425-1.148.864-1.783 1.345C5.16 28.955 16.96 18.615 24.61 13.96c-8.01 3-24.282 11.563 1.375 25.366.702-.375 1.35-.718 1.97-1.05l1.216 2.597 5.016-2.348-1.22-1.804z"/></g><path opacity=".2" d="M21.326 36.583a65.99 65.99 0 0 0 4.66 2.743c.7-.375 1.348-.718 1.97-1.05l1.215 2.597 19.477-9.12-1.224-2.614c.766-.315 1.578-.647 2.467-1.01.396-1.94.68-3.71.877-5.333l-29.44 13.786z"/><path opacity=".1" d="M28.285 12.698l10.98 23.45 9.382-4.394-1.224-2.615c.766-.315 1.578-.647 2.467-1.01C56.84-5.927 31.3 10.64 28.285 12.7z"/><path fill="#C9EB5F" d="M55.518 26.945a3.935 3.935 0 0 1-1.895 5.23l-26.838 12.57a3.935 3.935 0 0 1-5.23-1.895l-.224-.475a3.935 3.935 0 0 1 1.896-5.232l26.84-12.568a3.936 3.936 0 0 1 5.23 1.895l.222.475z"/><ellipse transform="rotate(-25.096 33.264 23.03)" fill="#9FBA50" cx="33.268" cy="23.029" rx="3.016" ry="5.114"/><ellipse transform="rotate(-25.082 33.268 23.03)" opacity=".1" cx="33.267" cy="23.029" rx="1.624" ry="2.754"/><path opacity=".1" d="M22.82 44.354c1.122.81 2.624 1.018 3.964.39l26.84-12.567c1.338-.627 2.14-1.916 2.238-3.295L22.82 44.354z"/><ellipse transform="rotate(-166.426 17.258 23.936)" opacity=".2" fill="#FFF" cx="17.258" cy="23.937" rx="2.164" ry="4.033"/></svg>