<svg xmlns="http://www.w3.org/2000/svg" width="178.326" height="184.308" viewBox="0 0 178.326 184.308"><path fill="#EBEBEB" d="M55.69 149.086c3.93-1.06 6.432-4.873 6.3-9.082 1.68.715 3.552.907 5.392.412a8.093 8.093 0 0 0 3.16-1.674c2.998 3.422 7.538 5.075 11.935 3.892a11.003 11.003 0 0 0 3.537-1.674c.347.2.702.38 1.064.544.045.203.094.405.148.605 1.93 7.166 8.835 11.538 15.425 9.763 2.906-.783 5.26-2.634 6.82-5.07.49.097.997.087 1.5-.048 1.532-.413 2.535-1.854 2.575-3.48.73-.59 1.37-1.288 1.89-2.078 1.46.804 3.167 1.078 4.84.626a6.35 6.35 0 0 0 .79-.274c2.053 1.273 4.52 1.735 6.93 1.086 3.04-.818 5.266-3.213 6.168-6.185a8.734 8.734 0 0 0 1.42-1.947c1.222-2.296 1.395-4.956.7-7.367-.274-2.965-1.836-5.8-4.43-7.478-3.244-2.094-7.14-1.753-9.84.526-1.688-1.91-4.235-2.834-6.702-2.17a6.24 6.24 0 0 0-2.676 1.516c-.912-2.896-3.758-4.637-6.48-3.902-1.172.315-2.13 1.042-2.794 2a4.898 4.898 0 0 0-2.694-.05 4.944 4.944 0 0 0-2.612 1.748c-2.86-2.222-6.533-3.143-10.11-2.178-1.304.35-2.49.926-3.54 1.674-2.6-1.493-5.667-2.01-8.667-1.202-2.997.808-5.388 2.79-6.884 5.383-1.918-1.123-4.188-1.524-6.41-.925-3.93 1.06-6.433 4.872-6.302 9.08-1.678-.714-3.55-.905-5.39-.41-4.657 1.255-7.324 6.378-5.96 11.44 1.366 5.064 6.245 8.152 10.9 6.898z"/><path fill="#BADB6C" d="M121.316 70.04c-8.595.018-15.123-6.895-14.896 1.557l-1.85 59.425 31.558 15.91 1.16-61.636c-.222-8.445-7.37-15.275-15.972-15.255z"/><path fill="#BADB6C" d="M101.456 70.125c-.082 12.546 2.623 18.31 15.09 18.18v4.35c12.464-.128 21.635-10.4 21.715-22.95l.106-16.56c.078-12.543-9.042-9.83-21.51-9.7-12.466.13-15.735-2.56-15.818 9.987l.418 16.693z"/><path fill="#BADB6C" d="M132.114 16.524c.472-3.27 3.208-5.595 6.11-5.19 2.906.41 4.876 3.39 4.404 6.662l-4.583 32.824c-.472 3.272-3.207 5.594-6.11 5.188-2.906-.402-4.874-3.385-4.398-6.658l4.577-32.826zM103.162 14.373c-.375-3.286 1.684-6.232 4.593-6.573 2.913-.344 5.575 2.04 5.95 5.325l5.223 43.52c.375 3.284-1.684 6.228-4.594 6.57-2.91.346-5.575-2.04-5.947-5.324l-5.225-43.517z"/><path opacity=".3" fill="#70462D" d="M137.017 81.332c-7.878 3.07-15.77.613-17.627-5.48-1.86-6.096 3.022-13.523 10.9-16.59 7.88-3.067 15.77-.613 17.63 5.482 1.855 6.094-3.025 13.522-10.903 16.588z"/><path opacity=".1" fill="#020202" d="M105.495 97.69l.05 40.23 31.808-.11-.05-40.23z"/><path fill="#BADB6C" d="M120.678 83.427c-3.974-5.273-1.482-14.067 5.565-19.643 3.972-3.14 8.543-4.59 12.488-4.312l12.682-16.25c1.99-2.55 5.628-2.944 8.13-.876 2.5 2.064 2.914 5.807.923 8.356l-7.097 9.097c-3.714 6.425-2.57 6.175-5.74 13.236-.122.273-.25.535-.378.8-1.133 3.258-3.39 6.486-6.618 9.042-7.047 5.575-15.98 5.82-19.954.55z"/><path fill="#ADBA86" d="M102.09 141.91l-.09-40.23 40.768-.09.09 40.23z"/><path opacity=".1" fill="#020202" d="M109.158 101.75l-.15 39.672-7.6-.018.586-39.727z"/><ellipse transform="rotate(173.514 108.576 16.78)" fill="#BADB6C" cx="108.577" cy="16.784" rx="7.25" ry="10.375"/><ellipse transform="rotate(-174.623 137.15 20.397)" fill="#BADB6C" cx="137.148" cy="20.394" rx="7.25" ry="9.75"/><ellipse transform="rotate(-149.803 154.222 46.996)" fill="#BADB6C" cx="154.22" cy="47" rx="7.25" ry="9.749"/><ellipse transform="rotate(8.27 77.038 23.896)" fill="#BADB6C" cx="77.058" cy="23.908" rx="6.046" ry="8.915"/><path fill="#BADB6C" d="M58.52 70.04c8.595.018 15.124-6.895 14.897 1.557l1.85 59.425-31.558 15.91-1.162-61.636C42.77 76.85 49.92 70.02 58.52 70.04z"/><path fill="#BADB6C" d="M78.382 70.125c.082 12.546-2.623 18.31-15.09 18.18v4.35c-12.464-.128-22.635-10.4-22.715-22.95l-.105-16.56c-.078-12.543 10.042-9.83 22.51-9.7 12.467.13 15.736-2.56 15.82 9.987l-.42 16.693z"/><path fill="#BADB6C" d="M48.626 15.442c-.273-3.294-2.864-5.78-5.786-5.55-2.924.232-5.07 3.086-4.798 6.382l2.59 33.042c.272 3.294 2.86 5.778 5.784 5.548 2.925-.226 5.07-3.085 4.793-6.38l-2.584-33.042zM65.725 7.366c0-3.308-2.38-6.002-5.308-6.01-2.933-.013-5.31 2.656-5.31 5.963l-.262 43.83c0 3.306 2.378 5.997 5.31 6.01 2.93.013 5.307-2.658 5.305-5.965l.265-43.83z"/><path opacity=".3" fill="#70462D" d="M42.82 81.332c7.878 3.07 15.77.613 17.628-5.48 1.86-6.096-3.022-13.523-10.9-16.59-7.88-3.067-15.77-.613-17.63 5.482-1.855 6.094 3.025 13.522 10.903 16.588z"/><path fill="#BADB6C" d="M82.545 21.51c.396-3.284-1.638-6.243-4.545-6.607-2.91-.365-5.59 2-5.988 5.28l-5.12 40.304c-.396 3.28 1.64 6.24 4.546 6.604 2.907.366 5.59-1.997 5.987-5.28l5.12-40.3z"/><path opacity=".1" fill="#020202" d="M74.343 97.69l-.05 40.23-31.808-.11.05-40.23z"/><path fill="#BADB6C" d="M59.16 83.427c3.974-5.273 1.482-14.067-5.565-19.643-3.97-3.14-8.542-4.59-12.488-4.312l-12.68-16.25c-1.99-2.55-5.63-2.943-8.13-.875-2.502 2.064-2.915 5.807-.924 8.356L26.47 59.8c3.714 6.426 2.57 6.176 5.74 13.237.122.273.25.535.378.8 1.133 3.258 3.39 6.486 6.618 9.042 7.047 5.573 15.98 5.818 19.954.547z"/><path fill="#ADBA86" d="M36.985 141.812l.088-40.23 40.768.09-.087 40.23z"/><path opacity=".1" fill="#020202" d="M70.68 101.75l.15 39.672 7.6-.018-.586-39.727z"/><ellipse fill="#BADB6C" cx="60.617" cy="10.375" rx="7.25" ry="10.375"/><ellipse transform="rotate(-1.897 43.413 19.02)" fill="#BADB6C" cx="43.367" cy="19" rx="7.25" ry="9.749"/><ellipse transform="rotate(-30.197 25.615 46.996)" fill="#BADB6C" cx="25.617" cy="47" rx="7.25" ry="9.749"/><circle fill="#FFF" cx="52.842" cy="43.192" r="1.993"/><circle fill="#FFF" cx="67.294" cy="43.192" r="1.767"/><circle fill="#FFF" cx="110.362" cy="43.466" r=".799"/><circle fill="#FFF" cx="122.555" cy="43.444" r=".701"/><circle fill="#FFF" cx="134.606" cy="43.263" r=".792"/><path fill="#FFF" d="M93 174.23c4.125-1.58 6.5-5.728 6.022-9.923 1.858.495 3.88.44 5.813-.3a9.408 9.408 0 0 0 3.254-2.09 12.923 12.923 0 0 0 16.763.178c.387.156.783.29 1.184.407.065.195.133.392.207.587 2.646 6.92 10.398 10.385 17.32 7.738a13.334 13.334 0 0 0 6.905-5.972c.53.03 1.073-.044 1.6-.246a3.87 3.87 0 0 0 2.482-3.824 10.026 10.026 0 0 0 1.858-2.328c1.633.61 3.483.66 5.24-.012.288-.11.56-.24.825-.38a9.896 9.896 0 0 0 7.517.175 9.912 9.912 0 0 0 6.115-7.003c.535-.636 1-1.346 1.363-2.14a9.395 9.395 0 0 0 .16-7.466 9.416 9.416 0 0 0-5.35-6.9c-3.645-1.67-7.793-.815-10.504 1.823a7.283 7.283 0 0 0-7.36-1.287 7.24 7.24 0 0 0-2.748 1.867 5.702 5.702 0 0 0-7.26-3.053 5.68 5.68 0 0 0-2.835 2.37 5.67 5.67 0 0 0-2.892.308 5.675 5.675 0 0 0-2.66 2.093 12.896 12.896 0 0 0-11.013-.848 12.87 12.87 0 0 0-3.66 2.144 12.887 12.887 0 0 0-9.386-.062 12.885 12.885 0 0 0-6.948 6.296 9.428 9.428 0 0 0-6.947-.08c-4.126 1.575-6.503 5.724-6.025 9.92a9.432 9.432 0 0 0-5.812.3c-4.89 1.87-7.34 7.348-5.47 12.237a9.48 9.48 0 0 0 12.24 5.472z"/><path fill="#ECF9FF" d="M38.72 152.41c5.55 0 10.194-3.8 11.513-8.936a11.83 11.83 0 0 0 6.953 2.256c1.69 0 3.297-.357 4.752-.993 2.732 5.116 8.123 8.6 14.33 8.6 1.837 0 3.602-.312 5.25-.874.385.354.79.69 1.207 1.007-.012.26-.02.52-.02.782 0 9.3 7.537 16.842 16.842 16.842 4.1 0 7.855-1.473 10.776-3.91.607.273 1.28.43 1.988.43a4.86 4.86 0 0 0 4.625-3.372 12.59 12.59 0 0 0 3.223-1.9 9.26 9.26 0 0 0 6.15 2.337c.387 0 .765-.03 1.14-.077a12.422 12.422 0 0 0 8.735 3.576c4.292 0 8.07-2.173 10.312-5.475a11.832 11.832 0 0 0 2.558-1.896 11.797 11.797 0 0 0 3.536-8.687c.69-3.677-.36-7.62-3.183-10.49-3.525-3.594-8.773-4.452-13.136-2.573a9.145 9.145 0 0 0-8.054-4.81 9.11 9.11 0 0 0-4.06.96c-.174-3.802-3.303-6.834-7.147-6.834a7.12 7.12 0 0 0-4.387 1.508 7.113 7.113 0 0 0-3.53-.936 7.12 7.12 0 0 0-4.058 1.263c-2.976-3.62-7.484-5.933-12.537-5.933-1.838 0-3.604.31-5.25.873a16.18 16.18 0 0 0-10.98-4.28 16.17 16.17 0 0 0-10.973 4.27 11.846 11.846 0 0 0-8.11-3.21c-5.548 0-10.196 3.8-11.515 8.936a11.83 11.83 0 0 0-6.95-2.254c-6.575 0-11.902 5.327-11.902 11.9 0 6.572 5.328 11.9 11.903 11.9z"/><path fill="#FFF" d="M12.972 163.945c6.046 0 11.11-4.143 12.547-9.74a12.925 12.925 0 0 0 12.758 1.376c2.977 5.577 8.852 9.372 15.617 9.372 2.003 0 3.926-.338 5.722-.95.42.385.86.752 1.315 1.096-.013.282-.02.566-.02.852 0 10.137 8.215 18.356 18.355 18.356a18.25 18.25 0 0 0 11.744-4.263c.664.3 1.396.47 2.168.47a5.298 5.298 0 0 0 5.04-3.676 13.722 13.722 0 0 0 3.514-2.07 10.086 10.086 0 0 0 6.704 2.546c.42 0 .832-.034 1.24-.083a13.543 13.543 0 0 0 9.522 3.897c4.677 0 8.795-2.368 11.24-5.966a12.87 12.87 0 0 0 2.788-2.067c2.64-2.592 3.92-6.038 3.853-9.466.75-4.008-.394-8.304-3.468-11.435-3.843-3.914-9.563-4.85-14.317-2.803a9.966 9.966 0 0 0-8.78-5.24c-1.59 0-3.09.38-4.425 1.044-.188-4.143-3.6-7.45-7.788-7.45a7.76 7.76 0 0 0-4.78 1.646 7.76 7.76 0 0 0-3.848-1.02 7.76 7.76 0 0 0-4.422 1.376c-3.244-3.946-8.158-6.468-13.665-6.468-2.004 0-3.928.34-5.725.953a17.625 17.625 0 0 0-11.967-4.665c-4.61 0-8.81 1.766-11.958 4.652a12.91 12.91 0 0 0-8.84-3.497c-6.045 0-11.11 4.14-12.55 9.737a12.89 12.89 0 0 0-7.575-2.457C5.806 138.003 0 143.813 0 150.975c0 7.164 5.806 12.97 12.972 12.97z"/><g><path opacity=".2" d="M78.242 39.25h-27.04a5 5 0 0 0-5 5v2.476c-1.842.467-3.21 2.12-3.21 4.106v4.5a4.24 4.24 0 0 0 3.21 4.106v2.478a5 5 0 0 0 5 5h27.04V39.25zM141.867 46.79v-2.54a5 5 0 0 0-5-5h-35.875v27.666h35.875a5 5 0 0 0 5-5v-2.543c1.733-.535 3-2.13 3-4.04v-4.5c0-1.91-1.267-3.507-3-4.042z"/></g><g><path fill="#FF4945" d="M42.992 52.332a4.25 4.25 0 0 0 4.25 4.25 4.25 4.25 0 0 0 4.25-4.25v-4.5a4.25 4.25 0 0 0-8.5 0v4.5zM136.367 52.332a4.25 4.25 0 0 0 8.5 0v-4.5a4.25 4.25 0 0 0-8.5 0v4.5z"/><path fill="#5B5B5B" d="M141.867 58.916a5 5 0 0 1-5 5H51.2a5 5 0 0 1-5-5V41.25a5 5 0 0 1 5-5h85.668a5 5 0 0 1 5 5v17.666z"/></g><path opacity=".5" fill="#ADADAD" d="M139.742 55.457a5 5 0 0 1-5 5h-62a5 5 0 0 1-5-5v-12.25a5 5 0 0 1 5-5h62a5 5 0 0 1 5 5v12.25z"/><path fill="#111" d="M139.742 56.332a5 5 0 0 1-5 5h-62a5 5 0 0 1-5-5v-12.25a5 5 0 0 1 5-5h62a5 5 0 0 1 5 5v12.25z"/><g fill="#FF4343"><path d="M81.253 57.654h-2.89V46.76a9.944 9.944 0 0 1-3.735 2.19V46.33c.754-.247 1.573-.715 2.458-1.404.885-.69 1.492-1.493 1.82-2.412h2.347v15.142zM85.615 53.776l2.88-.3c.084.652.327 1.17.73 1.55.406.38.872.57 1.4.57.604 0 1.115-.245 1.533-.735s.628-1.228.628-2.216c0-.926-.208-1.62-.623-2.083s-.955-.693-1.62-.693c-.83 0-1.574.366-2.232 1.1l-2.344-.34 1.48-7.848h7.645v2.704h-5.45l-.454 2.562a4.375 4.375 0 0 1 1.975-.483c1.284 0 2.37.467 3.263 1.4.89.932 1.337 2.142 1.337 3.63 0 1.24-.36 2.35-1.08 3.323-.98 1.33-2.342 1.995-4.084 1.995-1.393 0-2.527-.372-3.405-1.12-.878-.747-1.403-1.752-1.575-3.014zM103.206 54.167l2.798-.31c.068.57.247.992.535 1.267.287.274.668.41 1.14.41.598 0 1.105-.273 1.524-.822.418-.55.685-1.687.802-3.415-.727.844-1.635 1.266-2.726 1.266-1.187 0-2.21-.458-3.07-1.374-.86-.916-1.292-2.107-1.292-3.575 0-1.53.455-2.763 1.363-3.698.91-.937 2.067-1.404 3.473-1.404 1.53 0 2.785.592 3.765 1.774.98 1.183 1.47 3.13 1.47 5.838 0 2.757-.51 4.746-1.532 5.967s-2.353 1.83-3.99 1.83c-1.18 0-2.134-.312-2.86-.94-.728-.63-1.194-1.567-1.4-2.815zm6.543-6.316c0-.932-.215-1.655-.644-2.17-.43-.514-.924-.77-1.486-.77-.535 0-.98.21-1.333.632s-.53 1.113-.53 2.073c0 .974.19 1.688.576 2.145.384.456.864.685 1.44.685.555 0 1.023-.22 1.404-.66.382-.44.572-1.084.572-1.934zM124.655 46.267l-2.798.31c-.068-.577-.247-1.002-.535-1.276-.29-.273-.663-.41-1.122-.41-.61 0-1.127.273-1.548.822-.422.55-.688 1.69-.797 3.426.72-.85 1.614-1.275 2.685-1.275 1.207 0 2.24.46 3.102 1.378.86.92 1.29 2.106 1.29 3.56 0 1.544-.452 2.782-1.357 3.715-.905.933-2.067 1.398-3.487 1.398-1.523 0-2.774-.59-3.755-1.774-.98-1.184-1.47-3.123-1.47-5.818 0-2.764.51-4.756 1.532-5.977s2.35-1.83 3.98-1.83c1.147 0 2.095.32 2.845.96.75.64 1.23 1.57 1.435 2.792zm-6.553 6.305c0 .94.216 1.665.648 2.176s.926.767 1.48.767c.536 0 .98-.21 1.338-.628.357-.418.535-1.104.535-2.057 0-.98-.192-1.7-.576-2.155s-.864-.685-1.44-.685c-.556 0-1.025.218-1.41.653-.383.436-.575 1.08-.575 1.93zM136.34 54.97v2.685H126.21a6.98 6.98 0 0 1 .988-2.886c.55-.91 1.632-2.115 3.25-3.617 1.304-1.214 2.103-2.036 2.397-2.47.397-.596.597-1.186.597-1.77 0-.644-.173-1.14-.52-1.485-.347-.346-.825-.52-1.435-.52-.604 0-1.083.182-1.44.546-.357.363-.562.967-.618 1.81l-2.88-.287c.17-1.592.71-2.733 1.615-3.426s2.037-1.038 3.395-1.038c1.488 0 2.657.4 3.508 1.203.85.803 1.276 1.8 1.276 2.994a5.21 5.21 0 0 1-.364 1.937c-.244.614-.63 1.257-1.157 1.93-.35.445-.982 1.087-1.894 1.923-.912.837-1.49 1.393-1.733 1.667-.244.274-.44.542-.59.803h5.738z"/></g><g><path fill="#00C0CE" d="M65.325 42.27c0 .76-.615 1.375-1.375 1.375H51.2a1.375 1.375 0 0 1 0-2.75h12.75c.76 0 1.375.615 1.375 1.375zM65.325 47.02c0 .76-.615 1.375-1.375 1.375H51.2a1.375 1.375 0 0 1 0-2.75h12.75c.76 0 1.375.615 1.375 1.375zM65.325 51.77c0 .76-.615 1.375-1.375 1.375H51.2a1.375 1.375 0 0 1 0-2.75h12.75c.76 0 1.375.615 1.375 1.375z"/><circle fill="#F2C50B" cx="51.825" cy="57.27" r="2"/><circle fill="#F2C50B" cx="57.325" cy="57.27" r="2"/><circle fill="#F2C50B" cx="62.95" cy="57.27" r="2"/></g></svg>