<svg xmlns="http://www.w3.org/2000/svg" width="151.028" height="124.542" viewBox="0 0 151.028 124.542"><path fill="#E0E0E0" d="M116.337 3.133c-3.325 3.323-3.958 8.28-1.984 12.272L97.41 32.348c-12.428-10.173-30.398-10.173-42.833-.003L37.632 15.4c1.974-3.994 1.345-8.944-1.98-12.27-4.175-4.174-10.94-4.174-15.115.003-4.172 4.173-4.172 10.937 0 15.108 3.328 3.33 8.28 3.956 12.275 1.982l16.942 16.94c-10.17 12.434-10.17 30.406 0 42.838L32.806 96.947c-3.99-1.975-8.94-1.34-12.263 1.98-4.178 4.172-4.178 10.938-.003 15.114 4.175 4.173 10.94 4.173 15.112-.002 3.325-3.32 3.954-8.276 1.98-12.27L54.577 84.82c12.43 10.172 30.4 10.173 42.83 0l16.946 16.95c-1.974 3.99-1.34 8.942 1.984 12.268 4.17 4.175 10.937 4.175 15.112 0 4.174-4.173 4.174-10.94-.004-15.112-3.325-3.324-8.28-3.954-12.27-1.98l-16.944-16.945c10.17-12.427 10.17-30.4.003-42.83l16.94-16.94c3.997 1.967 8.945 1.34 12.273-1.988 4.175-4.172 4.175-10.936 0-15.11-4.17-4.176-10.936-4.176-15.11 0zM93.515 76.108c-9.675 9.675-25.368 9.67-35.043 0-9.678-9.682-9.675-25.37 0-35.043 9.678-9.68 25.365-9.68 35.043 0 9.672 9.674 9.678 25.366 0 35.043z"/><circle fill="#E0E0E0" cx="75.994" cy="59.194" r="51.569"/><circle fill="#F2F2F2" cx="75.994" cy="59.194" r="48.105"/><path fill="#694670" d="M130.247 52.36l-13.927 24.4 20.78 11.86 13.928-24.398-13.374-.262z"/><path fill="#37293A" d="M124.878 67.854l-8.558 8.905 6.688 4.393z"/><path fill="#694670" d="M20.78 52.36l13.928 24.4-20.78 11.86L0 64.22l13.374-.262z"/><path fill="#37293A" d="M26.15 67.854l8.558 8.905-6.688 4.393z"/><path fill="#613668" d="M75.5 124.542c30.016 0 55.974-17.32 68.462-42.502L124.85 67.854c-7.83 19.59-26.967 33.437-49.35 33.437S33.978 87.444 26.15 67.855L7.037 82.04c12.49 25.182 38.447 42.502 68.463 42.502z"/><g fill="#FFF"><path d="M31.975 100.823l1.43-1.39-2.83-2.91 1.19-1.16 7.514-1.312 1.112 1.145-4.507 4.39.858.882-1.196 1.167-.86-.884-1.428 1.393-1.285-1.32zm2.627-2.557l2.43-2.363-4.02.73 1.59 1.633zM43.098 103.33c-.292-.446-.43-.883-.414-1.308.018-.427.146-.82.388-1.178.412-.614.968-.978 1.665-1.09.698-.113 1.44.096 2.232.626.78.525 1.254 1.134 1.417 1.825.163.69.04 1.343-.374 1.957a2.16 2.16 0 0 1-.983.82c-.397.164-.83.203-1.295.12.334.49.5.99.503 1.502 0 .512-.153.997-.462 1.458-.51.76-1.168 1.215-1.97 1.364-.806.15-1.61-.045-2.415-.586-.747-.503-1.24-1.118-1.474-1.846-.275-.858-.142-1.692.4-2.5.302-.446.685-.782 1.157-1.006s1.014-.275 1.625-.16zm-1.122 2.058c-.29.435-.41.85-.348 1.24.06.394.255.702.588.926.325.22.674.283 1.045.192.37-.09.705-.356 1-.798.26-.386.36-.77.3-1.148a1.297 1.297 0 0 0-.59-.905c-.386-.26-.762-.32-1.13-.18a1.755 1.755 0 0 0-.864.673zm2.514-3.428c-.21.314-.286.62-.228.914.06.297.237.542.533.742.3.2.6.272.9.216.297-.058.553-.244.763-.558.2-.296.27-.593.21-.89-.057-.298-.232-.544-.525-.74-.303-.204-.604-.275-.905-.217-.3.06-.55.236-.748.533zM52.503 112.745l-.772 1.588-5.99-2.914a4.596 4.596 0 0 1 1.412-1.423c.586-.38 1.574-.78 2.963-1.203 1.12-.345 1.828-.602 2.127-.77.407-.24.693-.53.862-.876.185-.382.225-.724.12-1.027-.106-.304-.34-.545-.7-.72-.357-.174-.693-.205-1.008-.093-.316.112-.61.41-.885.894l-1.62-.997c.558-.893 1.205-1.412 1.94-1.562.733-.147 1.503-.027 2.306.36.88.43 1.456 1.005 1.728 1.723.273.72.236 1.432-.106 2.137-.195.402-.454.75-.774 1.043-.32.292-.734.562-1.24.808-.333.163-.892.362-1.672.595-.78.23-1.28.395-1.504.486a3.35 3.35 0 0 0-.58.305l3.395 1.65zM56.915 110.557c-.403-.35-.654-.732-.755-1.147a2.242 2.242 0 0 1 .054-1.238c.23-.703.664-1.204 1.305-1.502.64-.297 1.412-.3 2.316-.004.896.293 1.517.75 1.863 1.37.344.62.402 1.282.17 1.985a2.146 2.146 0 0 1-.722 1.057 2.262 2.262 0 0 1-1.21.47c.452.38.75.815.89 1.307a2.56 2.56 0 0 1-.046 1.53c-.284.87-.794 1.485-1.526 1.85-.734.362-1.56.394-2.483.092-.857-.278-1.5-.737-1.92-1.375-.5-.75-.598-1.59-.295-2.515.165-.51.445-.937.837-1.28.394-.345.9-.545 1.52-.598zm-.52 2.286c-.162.498-.16.927.003 1.287.164.363.438.606.818.73.373.123.725.09 1.058-.1.332-.187.58-.534.746-1.04.144-.44.135-.837-.025-1.186a1.3 1.3 0 0 0-.814-.71c-.44-.146-.82-.1-1.135.133s-.533.53-.65.886zm1.487-3.984c-.118.358-.108.672.03.94.14.268.376.457.715.568.343.11.65.1.923-.037.272-.136.467-.384.583-.743.11-.34.1-.644-.04-.914s-.373-.46-.707-.568c-.347-.113-.657-.1-.93.037-.27.14-.463.378-.574.717zM77.25 115.64l1.928.658c-.32 1.075-.833 1.867-1.537 2.38-.702.51-1.586.753-2.65.73-1.316-.03-2.39-.504-3.216-1.42-.828-.92-1.227-2.157-1.192-3.718.036-1.65.49-2.923 1.362-3.817s2.002-1.327 3.392-1.297c1.212.027 2.19.406 2.93 1.14.442.434.768 1.05.976 1.85l-1.993.43c-.106-.517-.343-.928-.708-1.233s-.813-.464-1.346-.477c-.735-.017-1.338.235-1.806.753-.47.517-.718 1.366-.743 2.546-.026 1.255.18 2.152.62 2.693.437.54 1.02.82 1.74.836.533.01.993-.147 1.384-.478.39-.33.677-.856.86-1.578zM90.396 117.787l-2.153.33-1.197-2.097-3.918.6-.468 2.352-2.1.32 2.317-10.387 2.094-.32 5.426 9.202zm-4.24-3.32l-1.907-3.43-.768 3.84 2.675-.41zM89.29 107.792l1.773-.606 2.142 6.245 1.66-7.55 1.888-.645 3.216 9.382-1.774.606-2.1-6.123-1.695 7.425-1.893.65-3.216-9.383zm4.063-4.002l.877-.3c.147.597.1 1.122-.143 1.575-.243.45-.648.776-1.216.97-.566.194-1.084.19-1.554-.02-.47-.208-.83-.594-1.08-1.156l.877-.303c.134.294.318.486.556.58.235.092.53.078.878-.042s.59-.29.72-.508c.13-.218.16-.484.085-.797zM104.712 112.28l-3.905-7.256-2.592 1.396-.795-1.478 6.94-3.736.794 1.477-2.584 1.393 3.905 7.255-1.763.95zM107.412 105.27c-.618-.798-1.018-1.562-1.198-2.29-.13-.536-.165-1.084-.102-1.64s.22-1.052.467-1.49c.328-.585.81-1.124 1.45-1.618 1.156-.895 2.357-1.25 3.605-1.07 1.248.18 2.367.908 3.355 2.187.98 1.265 1.402 2.52 1.267 3.77s-.78 2.316-1.93 3.208c-1.168.902-2.37 1.264-3.61 1.085-1.237-.18-2.34-.894-3.305-2.143zm1.59-1.316c.688.89 1.413 1.402 2.178 1.543.764.143 1.463-.032 2.094-.52.63-.49.974-1.117 1.027-1.886.053-.767-.272-1.605-.975-2.516-.695-.898-1.412-1.416-2.148-1.554-.736-.138-1.43.047-2.083.55-.653.507-1.006 1.137-1.06 1.894s.27 1.59.968 2.49zM112.55 94.75l2.633-2.965c.522-.587.934-1.003 1.24-1.247.305-.244.636-.41.993-.5.357-.09.732-.097 1.125-.02.394.077.75.26 1.07.543.348.31.583.687.707 1.132s.115.89-.024 1.34c.532-.334 1.066-.482 1.6-.443.53.038 1.01.248 1.44.628.337.3.595.67.774 1.11.18.438.242.88.192 1.32-.052.44-.232.88-.543 1.315-.194.273-.712.89-1.553 1.85l-2.243 2.523-7.41-6.587zm2.563-.4l1.714 1.522.872-.98c.517-.584.83-.953.94-1.11.196-.282.287-.563.27-.84-.015-.277-.143-.522-.383-.734-.228-.204-.472-.306-.727-.308-.256 0-.51.11-.76.332-.15.134-.537.553-1.163 1.258l-.764.86zm2.948 2.62l1.983 1.76 1.23-1.384c.48-.54.77-.895.87-1.068.155-.26.217-.526.186-.806-.034-.28-.18-.536-.444-.77a1.306 1.306 0 0 0-.71-.342 1.23 1.23 0 0 0-.756.167c-.25.14-.68.552-1.284 1.232l-1.075 1.21z"/></g><path fill="#E0E0E0" d="M101.764 69.212A15.942 15.942 0 0 0 98.26 58.62a16.136 16.136 0 0 0 3.463-11.118c3.673-1.84 6.157-5.648 6.157-9.946 0-6.13-4.986-11.115-11.116-11.115-4.265 0-8.06 2.46-9.912 6.098-.395-.03-.792-.044-1.19-.044a15.985 15.985 0 0 0-10.012 3.5 16.05 16.05 0 0 0-10.52-3.498 11.065 11.065 0 0 0-9.906-6.055c-6.126 0-11.113 4.985-11.115 11.115 0 4.05 2.134 7.636 5.462 9.584a16.092 16.092 0 0 0 3.425 11.486 16.217 16.217 0 0 0-3.465 10.944 11.067 11.067 0 0 0-5.494 9.6c0 2.97 1.155 5.76 3.254 7.86a11.04 11.04 0 0 0 7.858 3.254h.003c4.08-.003 7.697-2.176 9.634-5.555.28.014.562.02.843.02 3.686 0 7.177-1.236 10.018-3.503a15.98 15.98 0 0 0 10.012 3.498c.51 0 1.02-.024 1.524-.072 1.938 3.385 5.59 5.61 9.655 5.61 6.127 0 11.112-4.985 11.112-11.113 0-4.295-2.502-8.12-6.188-9.958z"/><path fill="#77BA1F" d="M57.79 58.62l-1.093-1.094c-3.396-3.394-4.446-8.245-3.16-12.543-3.393-.77-5.93-3.803-5.93-7.43a7.615 7.615 0 0 1 15.127-1.233 12.608 12.608 0 0 1 11.81 3.36l.437.438-5.62 5.616-.434-.437a4.67 4.67 0 0 0-6.604.002c-1.83 1.828-1.827 4.794-.01 6.61l1.1 1.098 5.62 5.613 5.942 5.94-5.615 5.62-5.947-5.944-5.622-5.615"/><path fill="#F5B134" d="M64.075 52.34l5.95-5.94 5.617-5.613 1.097-1.096a12.614 12.614 0 0 1 12.483-3.185 7.615 7.615 0 1 1 8.545 8.6 12.603 12.603 0 0 1-3.203 12.415l-.437.438-5.613-5.62.433-.436a4.66 4.66 0 1 0-6.594-6.593l-1.095 1.093-5.62 5.614-5.945 5.94-5.62-5.616"/><g><path fill="#F5323F" d="M89.376 80.688A12.612 12.612 0 0 1 76.74 77.55l-.43-.427 5.612-5.623.43.434a4.675 4.675 0 0 0 6.608.002 4.66 4.66 0 0 0-.014-6.598l-1.096-1.1-5.615-5.618-5.934-5.94 5.62-5.613 5.93 5.935 5.61 5.62 1.104 1.103a12.6 12.6 0 0 1 3.342 11.906 7.616 7.616 0 0 1 6.542 7.54 7.614 7.614 0 0 1-15.072 1.518"/><path fill="#3E8CDC" d="M87.187 64.905l-5.928 5.933-5.618 5.62-1.1 1.104c-3.245 3.244-7.817 4.348-11.97 3.316a7.622 7.622 0 0 1-7.423 5.906 7.612 7.612 0 0 1-7.613-7.613c0-3.6 2.498-6.618 5.855-7.41-1.063-4.17.037-8.78 3.303-12.043l.43-.43 5.618 5.614-.434.433a4.67 4.67 0 0 0 .002 6.604 4.676 4.676 0 0 0 6.61.006l1.1-1.1 5.615-5.616 5.93-5.94 5.62 5.618"/></g></svg>