<svg xmlns="http://www.w3.org/2000/svg" width="35.224" height="35.225" viewBox="42.667 -41.15 35.224 35.225"><g fill="#FFF"><path d="M60.28-41.15c-9.727 0-17.612 7.886-17.612 17.61 0 9.728 7.887 17.614 17.612 17.614 9.727 0 17.61-7.887 17.61-17.613 0-9.724-7.883-17.61-17.61-17.61zm9.2 25.574c-1.882 1.472-4.677.04-4.66-2.104l-.018-.7c-1.312 1.3-3.055 2.06-4.955 2.06-3.754 0-7.057-3.305-7.057-7.057 0-3.792 3.303-7.133 7.057-7.133 1.9 0 3.688.84 4.998 2.154v.005c0-.633.424-1.108 1.015-1.108h.15c.92 0 1.11.872 1.11 1.15l.005 9.813c-.065.644.663.975 1.065.562 1.576-1.62 3.462-8.326-.98-12.213-4.138-3.622-9.692-3.025-12.645-.99-3.14 2.166-5.148 6.96-3.196 11.46 2.127 4.91 8.215 6.375 11.833 4.915 1.832-.74 2.678 1.736.774 2.545C61.1-10.99 53.1-11.11 49.36-17.588c-2.523-4.373-2.39-12.068 4.31-16.054 5.124-3.05 11.88-2.204 15.954 2.05 4.26 4.447 4.01 12.777-.143 16.016z"/><path d="M59.927-28.053h-.093c-2.844 0-4.42 2.236-4.42 4.775 0 2.844 1.906 4.64 4.407 4.64 2.79 0 4.624-2.042 4.758-4.458l-.007-.556c-.14-2.747-2.178-4.4-4.643-4.4z"/></g></svg>