<svg xmlns="http://www.w3.org/2000/svg" width="35.224" height="35.225" viewBox="-47.168 -1.062 35.224 35.225"><g fill="#FFF"><path d="M-36.226 7.88c1.084-.81 2.25-1.288 3.233-1.4-.864-.598-2.783-.005-3.794.75-1.08.808-2.264 2.478-1.77 3.518.362-.96 1.18-2.007 2.33-2.868zM-33.615 11.31l5.413 7.24c.54.598 3.174.73 4.174-.142l-6.367-8.54c-.97.126-2.104.607-3.167 1.398l-.053.044zM-34.333 10.398c1.1-.823 2.284-1.31 3.275-1.412l-1.217-1.634c-.974.126-2.114.603-3.183 1.397-1.204.897-2.043 2.01-2.374 3l1.154 1.546c.355-.965 1.182-2.028 2.345-2.898z"/><path d="M-29.555-1.062c-9.727 0-17.612 7.886-17.612 17.61 0 9.728 7.887 17.614 17.612 17.614 9.727 0 17.61-7.887 17.61-17.613 0-9.726-7.884-17.612-17.61-17.612zm6.09 28.322a1.22 1.22 0 0 1-.205-.09l-6.49-2.792-9.616-12.87c-.964-1.292.03-3.662 2.225-5.304 2.19-1.638 4.75-1.92 5.715-.63l9.602 12.832 1.267 9.93-2.498-1.076z"/><path d="M-23.675 18.884c-.706.527-2.52 1.19-4.143.552.33 1.707-.71 3.396-1.078 3.965l4.883 2.213a1.873 1.873 0 0 1 1.266-.943l-.838-5.664-.09-.122zM-28.635 18.875l-5.398-7.226c-.958.824-1.625 1.77-1.908 2.633l6.54 8.753c1.59-2.054.765-4.16.765-4.16z"/></g></svg>