<svg xmlns="http://www.w3.org/2000/svg" width="35.225" height="35.227" viewBox="0 0 35.225 35.227"><path fill="#FFF" d="M17.613 0C7.887 0 0 7.885 0 17.612c0 9.726 7.887 17.613 17.612 17.613 9.727 0 17.61-7.888 17.61-17.613C35.225 7.885 27.34 0 17.613 0zm7.565 25.562h-.114c-1.228-.202-2.064-1.068-2.777-1.872-.404-.453-1.02-1.48-1.76-1.36-1.045.168-.525 1.955-.962 2.722-.353.62-1.855.508-2.89.396-3.272-.347-4.94-2.092-6.407-3.968-1.565-2.004-2.785-4.104-3.91-6.406-.365-.746-.852-1.57-.852-2.493.53-.433 1.395-.283 2.267-.283.74 0 1.896-.163 2.438.113.322.164.647 1.033.908 1.588a20.542 20.542 0 0 0 1.87 3.23c.314.45.796 1.305 1.36 1.19.548-.11.6-1.46.623-2.325.03-.98 0-2.2-.282-2.72-.267-.492-.754-.502-1.248-.794.41-.827 1.536-.91 2.893-.91 1.14 0 2.73-.125 3.174.625.452.766.142 2.144.113 3.174-.033 1.16-.232 2.358.566 2.892.616-.066.946-.665 1.305-1.134.782-1.024 1.268-1.912 1.87-3.23.25-.543.517-1.474.966-1.645.684-.26 1.774-.058 2.777-.058.82 0 2.288-.227 2.552.342.22.47-.425 1.656-.624 1.982-.76 1.243-1.504 2.037-2.323 3.117-.328.432-1.004 1.123-.964 1.812.03.524.558.927.964 1.304.88.816 1.497 1.414 2.21 2.324.27.344.85 1.086.794 1.53-.17 1.39-3.432.52-4.532.854z"/></svg>