<svg xmlns="http://www.w3.org/2000/svg" width="35.224" height="35.225" viewBox="-5.529 -84.15 35.224 35.225"><path fill="#FFF" d="M12.083-84.15c-9.728 0-17.612 7.885-17.612 17.61 0 9.73 7.887 17.614 17.613 17.614 9.726 0 17.61-7.887 17.61-17.613.002-9.724-7.883-17.61-17.61-17.61zm9.356 13.707c.01.18.014.36.014.545 0 5.588-4.255 12.032-12.033 12.032-2.39 0-4.61-.697-6.483-1.897a8.485 8.485 0 0 0 6.26-1.75 4.22 4.22 0 0 1-3.95-2.937c.258.052.52.073.797.073.386 0 .758-.05 1.11-.146a4.233 4.233 0 0 1-3.392-4.146v-.05a4.242 4.242 0 0 0 1.92.526 4.22 4.22 0 0 1-1.883-3.52c0-.776.21-1.502.57-2.126a12.008 12.008 0 0 0 8.717 4.418 4.227 4.227 0 0 1 4.12-5.19c1.217 0 2.312.513 3.085 1.333a8.47 8.47 0 0 0 2.687-1.024 4.243 4.243 0 0 1-1.86 2.34 8.475 8.475 0 0 0 2.43-.665 8.646 8.646 0 0 1-2.11 2.187z"/></svg>