<svg xmlns="http://www.w3.org/2000/svg" width="35.224" height="35.225" viewBox="-48.084 -85.943 35.224 35.225"><g fill="#FFF"><path d="M-32.277-64.537c-2.475-.025-4.572 1.564-4.572 3.41 0 1.88 1.79 3.446 4.264 3.446 3.48 0 4.69-1.47 4.69-3.355 0-.227-.027-.447-.08-.663-.27-1.063-1.353-1.646-2.698-2.583a5.548 5.548 0 0 0-1.603-.257zM-32.977-76.557c-1.66-.047-2.773 1.62-2.483 3.802.284 2.182 1.862 3.706 3.525 3.756 1.66.05 2.615-1.353 2.33-3.535-.288-2.18-1.71-3.972-3.372-4.022z"/><path d="M-30.472-85.943c-9.727 0-17.61 7.885-17.61 17.61 0 9.73 7.885 17.614 17.61 17.614 9.727 0 17.612-7.886 17.612-17.612 0-9.725-7.885-17.61-17.612-17.61zm3.34 13.314c0 1.363-.755 2.46-1.82 3.295-1.04.812-1.238 1.153-1.238 1.842 0 .59 1.242 1.47 1.816 1.896 1.99 1.49 2.392 2.432 2.392 4.298 0 2.333-2.51 4.648-6.592 4.648-3.58 0-6.603-1.458-6.603-3.784 0-2.366 2.505-4.83 6.088-4.83.393 0 .748-.01 1.12-.01-.49-.478-.887-.89-.887-1.605 0-.43.136-.84.33-1.205a7.777 7.777 0 0 1-.6.026c-2.94 0-4.653-2.065-4.653-4.657 0-2.537 2.606-4.844 5.735-4.844h6.16l-1.375 1.443h-1.618c1.138.66 1.746 2.002 1.746 3.488zm8.85-.38h-2.846v2.843h-1.42v-2.842h-2.843v-1.42h2.842v-2.844h1.42v2.845h2.845v1.42z"/></g></svg>