<svg baseProfile="basic" xmlns="http://www.w3.org/2000/svg" width="50" height="50" viewBox="0 0 50 50"><g fill="#F60"><path d="M20.3 30.8c0 .6-.5 1.1-1.1 1.1-.6 0-1.1-.5-1.1-1.1V20.1c0-.6.5-1.1 1.1-1.1.6 0 1.1.5 1.1 1.1v10.7z"/><path d="M26.2 32.7c.6.2.9.9.6 1.5-.2.6-.9.9-1.5.6L18.8 32c-.6-.2-.9-.9-.6-1.5.2-.6.9-.9 1.5-.6l6.5 2.8z"/><path d="M19.7 50C8.8 50 0 41.2 0 30.3c0-10.9 8.8-19.7 19.7-19.7 10.9 0 19.7 8.8 19.7 19.7.1 10.9-8.8 19.7-19.7 19.7zm0-35.4c-8.7 0-15.8 7.1-15.8 15.8 0 8.7 7.1 15.8 15.8 15.8 8.7 0 15.8-7.1 15.8-15.8 0-8.8-7.1-15.8-15.8-15.8z"/></g><path fill="#F60" d="M45.2 20.1c2.4-.1 6-5.2 4.4-10-1.2 2.8-6.9 4.8-8.1 4.1 3-1.7 8.7-7.3 7.6-14.2-.8 4-9.9 6.7-13.7 5.5-.5 1.7-1.6 5.4-4.7 3.3-1.3-.9.3-3 1.1-3.3-5.1 0-8.8.6-12.9 3.2h.8c11.9 0 21.6 9.7 21.6 21.6 0 1.3-.1 2.5-.3 3.7 3.9-4.7 4.8-9.2 5-10.4-1.1 1.5-4.6 1.6-4.9-.9 0-1.5 1.2-2.5 4.1-2.6z"/></svg>