<svg baseProfile="basic" xmlns="http://www.w3.org/2000/svg" xmlns:xlink="http://www.w3.org/1999/xlink" width="996" height="312" viewBox="0 0 996 312"><defs><path id="a" d="M0 0h996v312H0z"/></defs><clipPath id="b"><use xlink:href="#a" overflow="visible"/></clipPath><g clip-path="url(#b)"><g opacity=".5"><path opacity=".2" fill="#2B9EB9" d="M262.8 0c-9 43.5-13.7 88.5-13.7 134.6 0 61.4 8.4 120.9 24 177.4H996V0H262.8z"/><path fill="#2B9EB9" d="M701.1 0c-24.7 38.9-39 85.1-39 134.6 0 69.2 27.9 131.9 73.1 177.4h260.7V0H701.1z"/><path opacity=".7" fill="#2B9EB9" d="M575.1 0c-16.6 41.6-25.7 87.1-25.7 134.6 0 64.4 16.7 124.9 46.1 177.4H996V0H575.1z"/><path opacity=".4" fill="#2B9EB9" d="M475.1 0C462 42.6 455 87.8 455 134.6c0 62.9 12.7 122.8 35.6 177.4H996V0H475.1z"/><path fill="none" d="M373.4 0C362.7 43.1 357 88.2 357 134.6c0 62 10.2 121.7 28.9 177.4H996V0H373.4z"/></g><g opacity=".2" fill="#FFF"><circle cx="730.6" cy="139.2" r="75.7"/><circle cx="614.3" cy="40.8" r="37.9"/><circle cx="560.3" cy="298.3" r="37.9"/><path d="M722.96 161.412L570.8 309.182l-21.11-21.737 152.16-147.77zM718.206 152.01l-119.6-104.78 19.967-22.793 119.6 104.78z"/><circle cx="813.9" cy="-6.8" r="37.9"/><path d="M724.46 116.363l80.2-137.297L830.824-5.65l-80.2 137.296z"/><circle cx="851.8" cy="234.6" r="37.9"/><path d="M739.735 131.632l127.215 95.384-18.177 24.243-127.215-95.385z"/></g><path fill="#76D9FC" d="M758.3 217.6c0 81-65.6 146.6-146.6 146.6s-146.6-65.6-146.6-146.6S530.8 71 611.7 71c81 0 146.6 65.6 146.6 146.6z"/><path fill-rule="evenodd" clip-rule="evenodd" fill="#00A936" d="M517 246.3c-.8-.3-1.9-.6-2.7-.7-1-.1-1.7-.2-2.4 0-2 .6-2.1 2.7 3.3 5.9 1.5 1.9 4.1 3.7 6.6 2.7 1.4-4.1-1.6-6.6-4.8-7.7 0-.2.1-.2 0-.2zM539.7 204.9c.2.2.4.8.6.8h.3c1.5 0 2.9-1.1 1.8-1.2-.4-.2-1.3-.1-2.7.4zM573.7 191.9c-2.3.4-2.9 1.9 2.1 5.4.6-.2 4.9-1.1 2.4 1.5 7.7-4.7-.6-7.6-4.5-6.9zM573.7 158.8c8.3-3.4 10.3-25.4.3-24.7-.6 0-1.3.3-2.1.6 4.2 7.7-5.4 17.4 1.8 24.1zM669.5 177c.7-4.6-6.6-8-9.9-7.8-1.9.1-2.3 1.5 1.3 4.8-3.4 7.8 5.4 8.3 8.6 3zM594.9 119.8c2.4-1.1 3.6-5.1 0-5.1-.6-.2-1.1-.3-1.8-.3-.6 0-1.3.2-1.8.3-7 1.4-4.9 13 3.6 5.1z"/><path fill-rule="evenodd" clip-rule="evenodd" fill="#00A936" d="M604.7 117.1c-10.2 1.3-20.5 11.1-11 20.9 6.8 8.5-9.8 25.8 5.9 30.2 6.2-14 23.3-25 19.1-42.1-1.7-7.3-7.8-9.8-14-9z"/><path fill="#00A936" d="M587.2 318.7c-15.1-10-26-25.3-43-32.8-13.8-13.4-45-5.1-44.4-30.5 1.4-12-8.2-17.9-15.5-23.5-5.6-18.6 28.4-25.5 28.9-5.1 11.2-.6 15.1-20.1 28.1-22.9 6.7-5.8 24.7.4 18.2-11.4 6.4-6.1 25.3-5.9 16.1-20.2-3.1-14-20.3-20.7-25.9-4.8-15.5 4.2-9.3-29.5 6.5-25.1 11.5.7 9.9-9.3 3-12.5 0-.5-.2-.8-.6-.3-1.3-.5-2.6-1-4.2-.9-15.5-8.6 15.5-30.4-5-37.3-22.5 19.2-56.9 49.5-70.7 77.9-6.2 17.8-5.2 35.6-4.5 54.3 6.3 18.1 18.6 33 28.3 49.2 6.2 7.8 3.2 16.8 2.8 25.4-.2.1.1.3.1.3-.3 5.2.5 10.1 4.9 14.6 7.6 9.8 18.7 17.7 24.2 29 12.3 7.7 25.7 13.5 40 17.3 1.6-.7 5.1-1.6 16-2.7v-.3c0-3.4 15.7-8.3 23.5-14.1 12.7-15.7-13.9-28.1-26.8-23.6zM723.4 312c21.7-25.6 34.9-58.6 34.9-94.8 0-4-.3-8-.6-12l-.3-3c-8.4 4.6-23.3-20.6-8-8.6 3-.2 4.9-1.1 6.3-2.4-1.8-9.2-4.1-18.1-7.5-26.6-1.5-1.8-2.9-3.4-4.2-4.5.1-1.8-.1-3.6-.3-5.4-.1-.1.1-.2 0-.3-23.9-49.2-74.4-83.2-132.7-83.2-4 0-8 .2-12 .6-2 .4-4.3.7-6.6.9-.8.1-1.6.2-2.3.3-8.2 1.2-16.1 2.6-23.8 5 20.2-1.5 40.9-.9 59 8.1 4.8 15.4 33.6.3 32.2 17.6.2.2.7.6.9.9-.5.3.3 3.5.9.9 5 5.6 15.4 17.3 4.5 15.8-14.6-2-10.8 26.7-.3 31.9 10 5.4 15.6-5.4 5.3-10.7-1.4-13.5 22.4 8.3 11.9 15.5l-1.2.9c.5-1.9-.7-.1-.7.3-11.9 8.7-5.1 29-9.8 42.6-8.3 18.4 20.7 10.3 16.4-4.2-5.3-13.3 22-7.2 16.1-16.7 16.6 8.8 15-14.8 8.1-22.7 3.2-12.6 11.7 1.5 7.7 8.4.7 6.5 6.3 8 10.8 9.9.2.2.4.2.9.3 3.9 1.9 6.3 4.3 2 11.7-4.9 16.4-21.4 17.3-34.9 14.3-13.6 5.7-16.2 22.2-23.9 33.4-7.6 13.9-14 34.5-.3 46.8 13.1 12.6 28.2 1.7 39.1-6.9 20.8-2.7 22.8 21.8 12.5 34.3.1.7 0 1.1-.1 1.6z"/><g opacity=".2" fill="#010000"><path d="M472.2 171.9c0 1.1-.1.2-.1.3 1.4-.1 2.6.8 2.6-.3h-2.5zM735.5 296h-.2v.3c.1 0 .2-.2.2-.3z"/><path d="M747.3 261.3l.1-.2c-.2.3-2.5 2.8-19.2 5.3 4.3-14.7 6.7-30.1 6.9-46.5h22v-4.4h-22c-.2-17.4-2.7-32.6-7.2-47.4 16.9 2.4 19.1 4.3 19.4 4.6 0 0-.1.2-.1-.8h4c-.3 0-.6-1.6-1-2.6-1.8-1.6-5.4-2.8-11.3-4.1-3.5-.7-7.6-1.4-12.5-2-5.6-17-13.9-32.5-24.1-45.7 10.3 2.6 18.5 5.7 24.1 9-2.2-2.8-4.6-5.5-7-8.2-5.9-2.3-12.3-4.2-18.4-5.7-1.1-.3-2.2-.5-3.4-.8-15.6-18.2-35.3-31.6-57.2-37.9-9.3-1.9-19-2.9-28.9-2.9-11 0-21.7 1.3-32 3.5-21 6.6-39.8 19.6-54.9 37.2-1.2.3-2.4.5-3.5.8-5.5 1.3-11.4 3-16.8 5.1-2.4 2.5-4.6 5.2-6.8 7.9 5.6-2.9 13.2-5.7 22.6-8.1-10.2 13.2-18.4 28.7-24.1 45.7-5.2.7-9.6 1.4-13.2 2.2-4.2.9-7.3 1.8-9.3 2.9-.4 1.2-.8 2.3-1.2 3.5 4.2-1 11.5-2.2 22.2-3.7-4.4 14.8-7 30-7.2 47.5H465s-.1 1.6-.1 2.5c0 .6 0 .8.1 1.9h22.3c.2 16.4 2.6 32 6.9 46.7-17.3-2.5-19.5-5.1-19.8-5.4l.1.1h-2.8c.4 2.2.9 2.9 1.3 4.2 2 1.1 5.2 2.3 9.7 3.2 3.5.8 7.8 1.5 12.9 2.2 5.2 16.1 12.8 30.9 22.1 43.7-10.4-2.8-18.5-6.1-23.8-9.5 2.2 2.9 4.5 5.8 6.9 8.5 6.3 2.7 13.5 4.8 20.2 6.4.3.1.7.2 1 .2 15.4 19.1 35.1 33.2 57.2 40.2 10.4 2.3 21.2 3.6 32.3 3.6 9.9 0 19.5-1 28.8-2.8 23.2-6.7 43.9-21.2 59.9-41.1.2-.1.4-.1.7-.2 7.3-1.8 15.3-4.2 22-7.2 2.6-3 5-6.1 7.4-9.3-5.1 3.9-13.9 7.7-25.7 11 9.3-12.8 16.8-27.5 22-43.6 4.8-.7 8.9-1.4 12.3-2.1 6.3-1.4 10-3 11.6-4.8.3-.8.6-1.7.8-2.8h-4zM594.5 75.5c-8 5.8-15.4 15.7-21.8 29.4-14.7 1.1-28.4 2.9-40.7 5.3 17.2-18.3 38.8-30.7 62.5-34.7zm-67.4 40.2c12.8-2.8 27.6-4.9 43.6-6.3-.6 1.4-1.2 2.8-1.7 4.2-5.1 13.2-9.2 28.4-12 44.9-16.3.6-31.3 1.5-44.1 2.7-4.3.4-8.2.8-11.9 1.2 6-17.5 15-33.4 26.1-46.7zm-27.7 51.7c4.7-.6 10.3-1.3 17-1.8 11.8-1 25.3-1.6 39.8-2.2-2.5 16.4-3.9 33.6-4.1 52.2h-60.4c.3-17.6 3-33.3 7.7-48.2zm-7.6 52.4h60.4c.1 17.4 1.4 35.2 3.9 51.5-14.5-.6-27.9-1.5-39.7-2.5-6.8-.6-12.5-1.1-17.3-1.7-4.6-14.8-7.1-30.9-7.3-47.3zm8.8 51.8c3.8.5 7.8.9 12.3 1.3 12.8 1.2 27.7 2.1 44 2.7 2.8 16.9 6.9 32.5 12.2 45.9.2.5.4 1.1.7 1.6-16.6-1.4-31.9-3.7-45-6.7-10.3-12.9-18.5-28.1-24.2-44.8zm28.7 50.3c12.6 2.6 26.9 4.5 42.3 5.8 6.6 15 14.4 25.9 23 32-25.1-4.2-47.7-17.8-65.3-37.8zm79.6 39.1c-12-1.3-23.2-12.8-32.5-32.9 10.5.7 21.6 1.1 32.5 1.2V361zm0-36.2c-12 0-23.4-.5-34.4-1.3-.5-1.2-.9-2.4-1.4-3.7-5-12.9-9.1-27.8-11.9-44.1 15.1.5 31.4.8 47.7.8v48.3zm0-52.7c-16.4 0-33.1-.1-48.4-.7-2.5-16.3-3.8-34.2-3.9-51.6h52.3v52.3zm0-56.6h-52.3c.1-18.5 1.4-36 4-52.4 15.3-.5 31.9-1 48.3-1.1v53.5zm0-57.9c-16.4 0-32.5.3-47.5.8 2.8-15.9 6.7-30.4 11.7-43.1.8-2.2 1.6-4.2 2.5-6.3 10.7-.8 22.4-1.2 33.3-1.2v49.8zm0-54.2c-10.9 0-21.2.4-31.3 1.1 9.1-18.5 20.4-29.1 31.3-30.3v29.2zm121.8 112.1h-60.4c-.1-18.5-1.5-35.8-4.1-52.2 14.3.6 27.6 1.3 39.2 2.2 7 .6 12.9 1.4 17.7 2 4.7 14.9 7.4 30.5 7.6 48zm-9.1-52.9c-3.9-.5-8.1-.9-12.6-1.3-12.7-1.1-27.4-2-43.4-2.7-2.8-16.5-6.9-31.8-12-44.9-.5-1.4-1.1-2.8-1.7-4.2 16 1.3 30.8 3.4 43.6 6.3 11.1 13.2 20 29.1 26.1 46.8zm-31.1-52.4c-12.2-2.4-26-4.2-40.7-5.4-6.4-13.6-13.8-23.6-21.8-29.3 23.8 4 45.3 16.4 62.5 34.7zm-77.3-36c12 1.2 22.3 11.8 31.3 30.3-10.1-.7-20.4-1-31.3-1.1V74.2zm0 33.7c12 0 22.8.5 33.5 1.2.9 2 1.8 4.1 2.7 6.2 4.9 12.6 8.8 27.2 11.5 43.1-15-.5-31.4-.8-47.7-.8v-49.7zm0 54.1c17.4 0 33.3.5 48.5 1.1 2.6 16.4 4.1 33.8 4.3 52.3h-52.8V162zm0 57.8H666c-.1 17.4-1.6 35.3-4.1 51.6-15.3.6-31.2.7-48.7.7v-52.3zm0 56.8c16.4 0 32.9-.3 47.9-.8-2.8 16.2-6.7 31.2-11.7 44.1-.5 1.2-1.1 2.4-1.6 3.6-11.1.8-22.7 1.3-34.6 1.3v-48.2zm0 52.6c10.9-.1 22.1-.5 32.5-1.2-9.3 20.2-20.5 31.7-32.5 32.9v-31.7zm14.8 30.5c8.5-6.1 16.3-17 23-32 15.4-1.3 29.7-3.2 42.3-5.8-17.6 19.9-40.2 33.6-65.3 37.8zm69.9-43.4c-13.1 3.1-28.4 5.4-45 6.8.2-.5.4-1 .6-1.6 5.2-13.4 9.4-29 12.2-45.9 16-.6 30.7-1.5 43.4-2.7 4.6-.4 8.9-.9 12.8-1.3-5.6 16.7-13.8 31.8-24 44.7zm25.6-49.2c-4.9.6-10.8 1.2-17.9 1.8-11.6 1-24.9 1.9-39.1 2.5 2.5-16.3 3.8-34 3.9-51.5h60.4c-.2 16.3-2.8 32.3-7.3 47.2z"/></g><path fill="#FFD42D" d="M755.6 350.2c-16.4 0-42.9-15.5-59.4-26.3-35.7-23.4-78.3-59.3-120.1-101-41.8-41.8-77.6-84.4-101-120.1-13.7-20.9-34.9-57.8-22.6-70 11.9-11.9 50.9 5.9 104.5 47.4l-1.3 1.7C503.8 41.7 464.9 23.4 454 34.3c-8.2 8.2.2 32.7 22.9 67.4 23.3 35.6 59.1 78.1 100.8 119.8 41.7 41.7 84.2 77.4 119.8 100.8 34.7 22.7 59.2 31.1 67.4 22.9 8.3-8.3 2.5-30-21.2-65.7l1.7-1.2c14.3 21.5 33.4 55.9 20.9 68.3-2.7 2.5-6.3 3.6-10.7 3.6z"/><path fill="#FFD42D" d="M463 350.2c-4.4 0-8-1.1-10.6-3.7-12.5-12.5 9.6-50.4 23.9-71.9l1.7 1.2c-23.7 35.7-32.5 61-24.2 69.3 8.2 8.2 32.7-.2 67.4-22.9 35.6-23.3 78.1-59.1 119.8-100.8 41.7-41.7 77.4-84.2 100.8-119.8 22.7-34.7 31.1-59.2 22.9-67.4-10.9-10.9-49.8 7.4-101.7 47.6l-1.3-1.6c53.6-41.6 92.6-59.3 104.5-47.4 12.2 12.2-8.9 49.1-22.6 70-23.4 35.7-59.3 78.3-101 120.1-41.8 41.8-84.4 77.6-120.1 101-16.6 10.9-43.1 26.3-59.5 26.3z"/><g><path fill="#293E4C" d="M523.7 81.8c-.6 1.5-2.5 2.7-4 2.1l-45.3-17.6c-1.5-.6-2.2-2.7-1.6-4.2.6-1.5 2.5-2.7 4-2.1l45.3 17.6c1.6.5 2.2 2.6 1.6 4.2z"/><path fill="#5CD5FF" d="M510 79.2c-.4 1.1-1.7 1.7-2.8 1.2l-21.1-8.2c-1.1-.4-1.7-1.7-1.2-2.8l1.8-4.7c.4-1.1 1.7-1.7 2.8-1.2l21.1 8.2c1.1.4 1.7 1.7 1.2 2.8l-1.8 4.7z"/><path fill="#5CD5FF" d="M504.9 62.1c1.1.4 2.2 2.1 1.8 3.2l-3.4 8.7c-.4 1.1-2.1 1-3.3.6l-4.8-1.9c-1.1-.4-2.4-1.5-2-2.6l3.4-8.7c.4-1.1 2.4-1.6 3.5-1.2l4.8 1.9z"/><path opacity=".1" d="M505.516 68.243l-10.068-3.906 1.953-5.034 10.07 3.906z"/><path fill="#4494C1" d="M528.4 68.9c-1 2.6-3.7 3.9-6.3 2.9l-41.2-16c-2.6-1-3.8-3.7-2.8-6.4l11.4-29.3c1-2.6 3.9-4.4 6.5-3.4l41.2 16c2.6 1 3.6 4.3 2.5 6.9l-11.3 29.3z"/><path fill="#293E4C" d="M526.6 64.8c-1.1 2.8-4.2 4.2-6.9 3.1l-35-13.6c-2.8-1.1-4.1-4.2-3-7 1.1-2.8 4.2-4.2 6.9-3.1l35 13.6c2.8 1.1 4.1 4.2 3 7zM531 53.5c-1.1 2.8-4.2 4.2-6.9 3.1l-35-13.6c-2.8-1.1-4.1-4.2-3-7 1.1-2.8 4.2-4.2 6.9-3.1l35 13.6c2.8 1.1 4.1 4.2 3 7zM535.4 42.2c-1.1 2.8-4.2 4.2-6.9 3.1l-35-13.6c-2.8-1.1-4.1-4.2-3-7 1.1-2.8 4.2-4.2 6.9-3.1l35 13.6c2.7 1.1 4.1 4.2 3 7z"/><path fill="#FF5955" d="M496.4 24.2c1.3.5 1.9 1.9 1.4 3.2-.5 1.3-1.9 1.9-3.2 1.4-1.3-.5-1.9-1.9-1.4-3.2.5-1.3 1.9-1.9 3.2-1.4z"/><path fill="#5CD5FF" d="M492 35.4c1.3.5 1.9 1.9 1.4 3.2-.5 1.3-1.9 1.9-3.2 1.4-1.3-.5-1.9-1.9-1.4-3.2.5-1.3 2-1.9 3.2-1.4zM487.7 46.5c1.3.5 1.9 1.9 1.4 3.2-.5 1.3-1.9 1.9-3.2 1.4-1.3-.5-1.9-1.9-1.4-3.2.5-1.2 1.9-1.9 3.2-1.4z"/><g fill="#FFF"><path d="M522.5 61c-.2.4-.5.5-.8.4l-27.9-10.8c-.3-.1-.5-.4-.3-.9.2-.4.5-.5.8-.4l27.9 10.8c.3.2.5.5.3.9zM521.5 63.5c-.2.4-.5.5-.8.4l-27.9-10.8c-.3-.1-.5-.4-.3-.8s.5-.5.8-.4l27.9 10.8c.3.1.5.4.3.8z"/></g><g fill="#FFF"><path d="M526.5 50c-.2.4-.5.5-.8.4l-27.9-10.8c-.3-.1-.5-.4-.3-.9.2-.4.5-.5.8-.4l27.9 10.8c.3.2.5.5.3.9zM525.5 52.5c-.2.4-.5.5-.8.4l-27.9-10.8c-.3-.1-.5-.4-.3-.8s.5-.5.8-.4l27.9 10.8c.3.1.5.4.3.8z"/></g><g fill="#FFF"><path d="M531 39c-.2.4-.5.5-.8.4l-27.9-10.8c-.3-.1-.5-.4-.3-.9.2-.4.5-.5.8-.4l27.9 10.8c.3.2.5.5.3.9zM530 41.5c-.2.4-.5.5-.8.4l-27.9-10.8c-.3-.1-.5-.4-.3-.8s.5-.5.8-.4l27.9 10.8c.3.1.5.4.3.8z"/></g><path opacity=".1" d="M528.4 68.9c-1 2.6-3.7 3.9-6.3 2.9l-41.2-16L537 33c2.6 1 3.8 4 2.8 6.6l-11.4 29.3z"/></g><g><path fill="#FFD42D" d="M749.9 76.4c-3.5 9.3-10.7 16.9-19.7 21 9 4.1 16.2 11.7 19.7 21 3.5-9.3 10.7-16.9 19.7-21-9-4.1-16.2-11.7-19.7-21z"/><path fill="#FF7600" d="M749.9 86.8c-1.8 4.7-5.4 8.5-9.9 10.6 4.6 2.1 8.2 5.9 9.9 10.6 1.8-4.7 5.4-8.5 9.9-10.6-4.6-2.1-8.1-5.9-9.9-10.6z"/><path fill="#FFD42D" d="M766.9 76.4c-1.3 3.4-3.9 6.1-7.1 7.6 3.3 1.5 5.9 4.2 7.1 7.6 1.3-3.4 3.9-6.1 7.1-7.6-3.2-1.5-5.8-4.3-7.1-7.6z"/><path fill="#FF7600" d="M766.9 80.1c-.6 1.7-1.9 3.1-3.6 3.8 1.7.7 3 2.1 3.6 3.8.6-1.7 1.9-3.1 3.6-3.8-1.6-.7-2.9-2.1-3.6-3.8z"/><g><path fill="#FFD42D" d="M730.1 65.2c-1.9 5-5.7 9-10.5 11.2 4.8 2.2 8.7 6.2 10.5 11.2 1.9-5 5.7-9 10.5-11.2-4.8-2.2-8.6-6.2-10.5-11.2z"/><path fill="#FF7600" d="M730.1 70.7c-1 2.5-2.9 4.5-5.3 5.6 2.4 1.1 4.4 3.1 5.3 5.6 1-2.5 2.9-4.5 5.3-5.6-2.4-1-4.3-3.1-5.3-5.6z"/></g></g><path fill="#FFD42D" d="M765.7 156.2c-41.8-8.7-97.3-13.5-156.4-13.5-59.1 0-114.6 4.8-156.4 13.5-42.2 8.8-65.5 20.7-65.5 33.5 0 14.1 28.2 27 77.8 35.9 0-.7-.1-1.4-.1-2.1-47.6-8.6-75.7-20.9-75.7-33.7 0-11.5 23.3-23 63.8-31.4 41.6-8.7 97-13.4 155.9-13.4 58.9 0 114.3 4.8 155.9 13.4 40.6 8.4 63.8 19.9 63.8 31.4 0 12.4-26.2 24.3-70.9 32.8 0 .7 0 1.4-.1 2.1 46.7-8.8 73-21.3 73-35 .4-12.8-22.9-24.7-65.1-33.5z"/><g><path fill="#5B5B5B" d="M455.5 211c2.2 3.3 1.4 7.7-1.9 10l-28.1 19c-3.3 2.2-7.7 1.4-10-1.9l-42.4-62.5c-2.2-3.3-1.4-7.7 1.9-10l28.1-19.1c3.3-2.2 7.7-1.4 10 1.9l42.4 62.6z"/><path fill="#00CE93" d="M379.88 177.307l32.368-21.935 36.577 53.973-32.367 21.935z"/><path fill="#FFF" d="M439 223.4c1.1 1.6.7 3.7-.9 4.8-1.6 1.1-3.7.7-4.8-.9-1.1-1.6-.7-3.7.9-4.8 1.6-1.1 3.7-.7 4.8.9z"/><g fill="#FF5046"><path d="M468 154.8c10 14.7 6.1 34.8-8.6 44.8s-34.8 6.1-44.8-8.6-6.1-34.8 8.6-44.8c14.8-10 34.8-6.1 44.8 8.6z"/><path d="M424.5 198.6l19.8 3.9-13.3 15.2z"/></g><path fill="#FFF" d="M442.2 177l-4.9-4.4-8.8-13 6.4-4.4 8.8 13 2.2 6.3-3.7 2.5z"/><circle fill="#FFF" cx="449.5" cy="183.8" r="4.6"/><path opacity=".2" fill="#060000" d="M445.6 140.9l-14.7 76.4.1.3 11-12.6c6-.1 12.1-1.9 17.4-5.5 14.7-10 18.6-30 8.6-44.8-5.4-7.8-13.6-12.6-22.4-13.8z"/></g><path opacity=".1" d="M685.2 199.6c3.9-.3 7.2 2.6 7.5 6.5l6.6 84.4c.3 3.9-2.6 7.2-6.5 7.5l-64.6 5c-3.9.3-7.2-2.6-7.5-6.5l-5.4-69.5 20.2-23.6 49.7-3.8z"/><g><path fill="#19BDD8" d="M654.6 170.7c3.9-.3 7.2 2.6 7.5 6.5l6.6 84.4c.3 3.9-2.6 7.2-6.5 7.5l-64.6 5c-3.9.3-7.2-2.6-7.5-6.5l-5.4-69.5 20.2-23.6 49.7-3.8z"/><path opacity=".2" fill="#3C3C3B" d="M584.7 198.2L604 195l-17.9 20.6z"/><path fill="#008593" d="M599.6 197l-14.9 1.2 20.2-23.6 1.2 14.9c.3 3.9-2.6 7.2-6.5 7.5z"/><g fill="#FFF"><path d="M655.403 199.146l-40.28 3.13-.38-4.884 40.28-3.13zM654.466 186.737l-40.28 3.13-.38-4.884 40.28-3.13zM656.304 211.127l-61.714 4.798-.38-4.885 61.714-4.798zM657.257 223.078l-61.715 4.798-.38-4.885 61.715-4.797zM658.216 235.68l-61.715 4.797-.38-4.885 61.716-4.798zM659.16 247.536l-61.713 4.797-.38-4.885 61.714-4.798zM660.034 258.906l-61.715 4.798-.38-4.886 61.714-4.797z"/></g></g></g></svg>