<svg baseProfile="basic" xmlns="http://www.w3.org/2000/svg" width="50" height="49" viewBox="0 0 50 49"><path fill="#5B5B5B" d="M22.4 0H3.9C1.7 0 0 1.7 0 3.9V45c0 2.2 1.7 3.9 3.9 3.9h18.5c2.2 0 3.9-1.7 3.9-3.9V3.9c0-2.2-1.7-3.9-3.9-3.9zm1.4 42.2H2.5V6.7h21.3v35.5z"/><circle fill="#FFF" cx="13.2" cy="45.5" r="1.9"/><g fill="#FF5046"><circle cx="31.6" cy="23.5" r="17.5"/><path d="M16.1 29.9l7.7 7.8-10.6 2.8z"/></g><path fill="#FFF" d="M30.7 25.7l-.9-3.5v-8.5H34v8.5l-.9 3.5h-2.4z"/><circle fill="#FFF" cx="31.9" cy="30.9" r="2.5"/></svg>