<svg baseProfile="basic" xmlns="http://www.w3.org/2000/svg" width="62" height="46" viewBox="0 0 62 46"><path fill="#EB4444" d="M21.3 28.6l6.4-6.4c.8-.8.8-2.1 0-2.9-.8-.8-2.1-.8-2.9 0l-6.4 6.4-6.4-6.4c-.8-.8-2.1-.8-2.9 0-.8.8-.8 2.1 0 2.9l6.4 6.4L9.1 35c-.8.8-.8 2.1 0 2.9.8.8 2.1.8 2.9 0l6.4-6.4 6.4 6.4c.8.8 2.1.8 2.9 0 .8-.8.8-2.1 0-2.9l-6.4-6.4z"/><g fill="#00D094"><path d="M14 8.1c0 1.6-1.3 2.8-2.8 2.8-1.6 0-2.8-1.3-2.8-2.8V2.8C8.3 1.3 9.6 0 11.2 0 12.7 0 14 1.3 14 2.8v5.3zM54.7 8.1c0 1.6-1.3 2.8-2.8 2.8-1.6 0-2.8-1.3-2.8-2.8V2.8c0-1.6 1.3-2.8 2.8-2.8 1.6 0 2.8 1.3 2.8 2.8v5.3z"/><path d="M58.3 8H56v.8c0 2.3-1.8 4.1-4.1 4.1s-4.1-1.8-4.1-4.1V8H15.2v.8c0 2.3-1.8 4.1-4.1 4.1S7 11.1 7 8.8V8H3.7C1.6 8 0 9.6 0 11.7v30.7c0 2 1.6 3.6 3.7 3.6h54.7c2 0 3.7-1.6 3.7-3.6V11.7C62 9.6 60.4 8 58.3 8zM7.9 41.5h-.2c-1.2 0-2.1-.9-2.1-2.1V17.7c0-1.2.9-2.1 2.1-2.1h21.7c1.2 0 2.1.9 2.1 2.1v21.7c0 1.2-.9 2.1-2.1 2.1h-.1M54.9 37.9H38.4c-1.2 0-2.2-1-2.2-2.2 0-1.2 1-2.2 2.2-2.2h16.5c1.2 0 2.2 1 2.2 2.2.1 1.2-.9 2.2-2.2 2.2zm0-7.1H38.4c-1.2 0-2.2-1-2.2-2.2 0-1.2 1-2.2 2.2-2.2h16.5c1.2 0 2.2 1 2.2 2.2.1 1.2-.9 2.2-2.2 2.2zm0-7.2H38.4c-1.2 0-2.2-1-2.2-2.2 0-1.2 1-2.2 2.2-2.2h16.5c1.2 0 2.2 1 2.2 2.2.1 1.2-.9 2.2-2.2 2.2z"/></g></svg>