<svg baseProfile="basic" xmlns="http://www.w3.org/2000/svg" width="63" height="50" viewBox="0 0 63 50"><circle fill="#19BDD8" cx="20.9" cy="24.1" r="9.9"/><circle fill="#19BDD8" cx="36.2" cy="11.2" r="5"/><circle fill="#19BDD8" cx="43.2" cy="45" r="5"/><path fill="#19BDD8" d="M24.655 24.155L44.6 43.523l-2.788 2.87-19.944-19.37zM19.912 22.87l15.72-13.774 2.637 3.01-15.722 13.772z"/><circle fill="#19BDD8" cx="9.9" cy="5" r="5"/><path fill="#19BDD8" d="M18.207 23.143L7.665 5.096l3.454-2.018 10.54 18.047z"/><circle fill="#19BDD8" cx="5" cy="36.7" r="5"/><path fill="#F60" d="M59 50H23c-2.2 0-4-1.8-4-4V31c0-2.2 1.8-4 4-4h36c2.2 0 4 1.8 4 4v15c0 2.2-1.8 4-4 4z"/><g fill="#FFF"><path d="M32.8 44.3l-3.9-10h2.4l2.8 7.7 2.8-7.7h2.4l-3.9 10h-2.6zM40.3 44.3v-10h2.1v10h-2.1zM44.4 44.3v-10H49c2.2 0 3.4 1.5 3.4 3.2 0 1.7-1.2 3.2-3.4 3.2h-2.5v3.6h-2.1zm5.8-6.8c0-.8-.6-1.4-1.5-1.4h-2.3v2.7h2.3c.9.1 1.5-.5 1.5-1.3z"/></g><path fill="#19BDD8" d="M22.08 26.35L5.356 38.89l-2.4-3.2L19.68 23.15z"/></svg>