<svg xmlns="http://www.w3.org/2000/svg" width="48.385" height="54.667" viewBox="0 0 48.385 54.667"><path fill="#FF5736" d="M48.385 52.242a2.425 2.425 0 0 1-2.425 2.424H25.01a2.425 2.425 0 0 1-2.426-2.424V10.34a2.425 2.425 0 0 1 2.425-2.425h20.95a2.425 2.425 0 0 1 2.425 2.424V52.24z"/><path fill="#FFF" d="M25.115 14.987h20.738v32.276H25.115zM41.043 11.656a.748.748 0 0 1-.748.748h-9.408a.748.748 0 0 1 0-1.497h9.407a.75.75 0 0 1 .748.75z"/><circle fill="#FFF" cx="35.484" cy="50.835" r="2.245"/><g><path fill="#FF5736" d="M30.17 51.832a2.836 2.836 0 0 1-2.836 2.835h-24.5A2.836 2.836 0 0 1 0 51.832V2.834A2.835 2.835 0 0 1 2.835 0h24.5a2.835 2.835 0 0 1 2.834 2.834v48.998z"/><path fill="#FFF" d="M2.96 8.27h24.25v37.74H2.96zM21.584 4.375a.875.875 0 0 1-.875.875h-11a.875.875 0 0 1 0-1.75h11c.482 0 .874.39.874.875z"/><circle fill="#FFF" cx="15.084" cy="50.187" r="2.625"/></g></svg>