<svg xmlns="http://www.w3.org/2000/svg" width="22.333" height="23" viewBox="0 0 22.333 23"><path fill="#00AAF1" d="M20.784 13.64a9.88 9.88 0 0 0 .225-2.087c0-5.363-4.353-9.713-9.72-9.713-.566 0-1.12.05-1.66.143A5.632 5.632 0 0 0 1 6.75c0 1.042.28 2.017.774 2.853a9.59 9.59 0 0 0-.195 1.95c0 5.368 4.346 9.72 9.71 9.72.607 0 1.206-.057 1.783-.164a5.637 5.637 0 0 0 7.71-7.468z"/><path fill="#FFF" d="M16.58 12.306a3.32 3.32 0 0 0-1.103-1.164c-.456-.3-1.017-.556-1.665-.765a22.94 22.94 0 0 0-2.154-.56 33.098 33.098 0 0 1-1.342-.333c-.26-.07-.522-.17-.774-.298a1.72 1.72 0 0 1-.573-.434.835.835 0 0 1-.187-.55c0-.353.19-.647.587-.908.42-.275.98-.41 1.672-.41.743 0 1.28.122 1.608.37.33.252.62.61.862 1.066.208.363.398.617.584.78.204.18.49.27.854.27a1.37 1.37 0 0 0 1.02-.428c.27-.278.402-.6.402-.955 0-.366-.104-.74-.304-1.12-.2-.374-.523-.732-.953-1.072-.428-.33-.972-.604-1.612-.8-.64-.2-1.406-.305-2.275-.305-1.088 0-2.05.152-2.86.45-.824.306-1.46.753-1.898 1.32a3.19 3.19 0 0 0-.665 1.986c0 .776.214 1.432.634 1.96.412.517.978.933 1.68 1.234.686.285 1.54.54 2.55.76.743.152 1.34.304 1.78.442.422.128.765.318 1.028.565.246.232.367.525.367.9 0 .477-.232.864-.71 1.19-.49.336-1.145.505-1.938.505-.583 0-1.056-.084-1.404-.25-.345-.16-.615-.37-.804-.62-.2-.258-.387-.59-.556-.985-.154-.362-.352-.647-.577-.84a1.304 1.304 0 0 0-.875-.303c-.41 0-.76.13-1.03.385a1.26 1.26 0 0 0-.413.936c0 .574.21 1.173.625 1.77.412.59.95 1.076 1.608 1.428.917.488 2.093.733 3.492.733 1.163 0 2.19-.18 3.045-.534.867-.36 1.532-.864 1.983-1.507.457-.646.688-1.38.688-2.185 0-.675-.133-1.252-.4-1.724z"/></svg>