<svg baseProfile="basic" xmlns="http://www.w3.org/2000/svg" width="48" height="48" viewBox="0 0 48 48"><circle fill="#FF8200" cx="24" cy="24" r="24"/><path opacity=".3" fill="#100030" d="M8.6 25.7C12.2 31.9 11 38 24 38c12.3 0 11.3-8.7 15.4-12.2V5.6C35.3 2.1 29.9 0 24 0S12.7 2.1 8.6 5.6v20.1z"/><path fill="#FFF" d="M24 8.6C15.5 8.6 8.6 15.5 8.6 24S15.5 39.4 24 39.4 39.4 32.5 39.4 24 32.5 8.6 24 8.6zM10.8 24.9h5.4c.1 1.6.2 3.1.5 4.6h-4.8c-.6-1.4-1-2.9-1.1-4.6zm14.3-8.7v-5c1.4.6 2.7 2.4 3.5 5h-3.5zm4.1 2.1c.3 1.4.5 2.9.5 4.5h-4.6v-4.5h4.1zm-6.3-7.1v5h-3.5c.8-2.6 2.1-4.4 3.5-5zm0 7.1v4.5h-4.6c.1-1.6.3-3.1.5-4.5h4.1zm-6.7 4.5h-5.4c.1-1.6.6-3.1 1.2-4.5h4.7c-.3 1.4-.5 2.9-.5 4.5zm2.1 2.1H23v4.6h-4.1c-.4-1.4-.6-2.9-.6-4.6zm4.6 6.8v5.2c-1.5-.6-2.7-2.5-3.6-5.2h3.6zm2.2 5.1v-5.2h3.6c-.9 2.7-2.2 4.6-3.6 5.2zm0-7.3v-4.6h4.7c-.1 1.6-.2 3.2-.5 4.6h-4.2zm6.7-4.6h5.4c-.1 1.6-.5 3.2-1.2 4.6h-4.8c.4-1.4.6-3 .6-4.6zm0-2.1c-.1-1.6-.3-3.1-.5-4.5H36c.7 1.4 1.1 2.9 1.2 4.5h-5.4zm2.9-6.6h-4c-.6-1.8-1.4-3.4-2.3-4.7 2.6.9 4.7 2.5 6.3 4.7zm-15.1-4.7c-.9 1.2-1.7 2.8-2.3 4.7h-4c1.6-2.2 3.7-3.8 6.3-4.7zm-6.4 20.2h4.1c.6 1.9 1.4 3.6 2.3 4.8-2.6-.9-4.9-2.6-6.4-4.8zm15.2 4.8c.9-1.3 1.7-2.9 2.3-4.8h4.1c-1.5 2.2-3.8 3.9-6.4 4.8z"/></svg>