<svg xmlns="http://www.w3.org/2000/svg" width="22.333" height="23" viewBox="0 0 22.333 23"><circle fill="#919191" cx="11.167" cy="11.758" r="9.034"/><path fill="#FFF" d="M11.166 4.558a7.2 7.2 0 0 0-7.2 7.2 7.2 7.2 0 0 0 14.4 0 7.2 7.2 0 0 0-7.2-7.2zm0 13.1a5.9 5.9 0 0 1-5.898-5.9 5.9 5.9 0 0 1 11.798 0 5.9 5.9 0 0 1-5.9 5.9z"/><path fill="#FFF" d="M11.073 7.063c-.244 0-.442.2-.442.443v4.205c0 .01.005.015.005.024a.44.44 0 0 0 .267.43l2.556 1.096a.44.44 0 0 0 .58-.236.447.447 0 0 0-.238-.58l-2.283-.98V7.506a.444.444 0 0 0-.444-.443z"/></svg>