<svg xmlns="http://www.w3.org/2000/svg" width="22.333" height="23" viewBox="0 0 22.333 23"><path fill="#21D320" d="M20.047 11.332a2.63 2.63 0 0 0-2.39-2.62 2.636 2.636 0 0 0-.163-3.544 2.628 2.628 0 0 0-3.544-.158 2.634 2.634 0 0 0-2.618-2.395 2.636 2.636 0 0 0-2.62 2.395 2.63 2.63 0 0 0-3.704 3.703 2.63 2.63 0 0 0 0 5.24 2.625 2.625 0 0 0 .16 3.54 2.623 2.623 0 0 0 3.542.16 2.634 2.634 0 0 0 2.62 2.396 2.632 2.632 0 0 0 2.618-2.396 2.627 2.627 0 0 0 3.544-.158c.97-.97 1.023-2.51.162-3.543a2.633 2.633 0 0 0 2.39-2.62z"/><circle fill="#FFF" cx="11.331" cy="11.332" r="3.331"/></svg>