<?xml version="1.0" encoding="utf-8"?>
<!-- Generator: Adobe Illustrator 21.0.0, SVG Export Plug-In . SVG Version: 6.00 Build 0)  -->
<svg version="1.1" baseProfile="basic" id="Слой_1"
	 xmlns="http://www.w3.org/2000/svg" xmlns:xlink="http://www.w3.org/1999/xlink" x="0px" y="0px" width="149.3px" height="149.3px"
	 viewBox="0 0 149.3 149.3" xml:space="preserve">
<g id="Layer_1">
</g>
<g id="Layer_2">
	<g>
		<path fill="#DBDBDB" d="M74.7,0C33.4,0,0,33.4,0,74.7s33.4,74.7,74.7,74.7s74.7-33.4,74.7-74.7S115.9,0,74.7,0z M74.7,142.7
			c-37.6,0-68-30.4-68-68s30.4-68,68-68c37.6,0,68,30.4,68,68S112.2,142.7,74.7,142.7z"/>
		<g>
			<path fill="#DBDBDB" d="M56.6,50.1c-1.4-1.4-3.4-1.7-4.4-0.6l-3.8,3.8c-1,1-0.8,3,0.6,4.4l10.1,10.1c1.4,1.4,3.4,1.7,4.4,0.6
				l3.8-3.8c1-1,0.8-3-0.6-4.4L56.6,50.1z"/>
			<path fill="#DBDBDB" d="M90.6,84c-1.4-1.4-3.4-1.7-4.4-0.6l-3.8,3.8c-1,1-0.8,3,0.6,4.4l10.1,10.1c1.4,1.4,3.4,1.7,4.4,0.6
				l3.8-3.8c1-1,0.8-3-0.6-4.4L90.6,84z"/>
			<path fill="#DBDBDB" d="M74.7,13.5c-33.8,0-61.2,27.4-61.2,61.2c0,33.8,27.4,61.2,61.2,61.2c33.8,0,61.2-27.4,61.2-61.2
				C135.9,40.9,108.5,13.5,74.7,13.5z M110.7,104.2l-7.5,7.5c-4.2,4.2-10.9,4.2-15.1,0L73,96.6c-4.2-4.2-4.2-10.9,0-15.1l-3.8-3.8
				c-4.2,4.2-10.9,4.2-15.1,0L39,62.7c-4.2-4.2-4.2-10.9,0-15.1l7.5-7.5c4.2-4.2,10.9-4.2,15.1,0l15.1,15.1c4.2,4.2,4.2,10.9,0,15.1
				l3.8,3.8c4.2-4.2,10.9-4.2,15.1,0l15.1,15.1C114.9,93.2,114.9,100,110.7,104.2z"/>
		</g>
	</g>
</g>
</svg>
