<svg baseProfile="basic" xmlns="http://www.w3.org/2000/svg" width="308" height="260" viewBox="0 0 308 260"><ellipse fill="#E2E2E2" cx="153.7" cy="221.8" rx="152.7" ry="14.2"/><path fill="#74D7FA" d="M223.2 114.7c0 61.6-50 111.6-111.6 111.6C50 226.3 0 176.3 0 114.7 0 53 50 3.1 111.6 3.1c61.7 0 111.6 49.9 111.6 111.6z"/><path fill-rule="evenodd" clip-rule="evenodd" fill="#0EA736" d="M39.6 136.5c-.6-.3-1.5-.4-2-.5-.8-.1-1.3-.1-1.8 0-1.5.4-1.6 2 2.5 4.5 1.1 1.5 3.1 2.8 5 2.1 1.1-3.1-1.2-5-3.7-5.9v-.2zM56.8 104.9c.2.2.3.4.5.4h.2c1.1.3 2.2-.8 1.3-.9-.3 0-.9.1-2 .5zM82.7 95.1c-1.8.3-2.2 1.5 1.6 4.1.5-.1 3.7-.9 1.8 1.1 5.9-3.5-.4-5.7-3.4-5.2zM82.7 69.9c6.4-2.6 7.8-19.3.3-18.8-.5 0-1 .2-1.6.5 3.1 5.8-4.2 13.3 1.3 18.3zM155.6 83.8c.5-3.5-5-6.1-7.6-5.9-1.5.1-1.7 1.1 1 3.7-2.5 5.9 4.2 6.2 6.6 2.2zM98.8 40.2c1.8-.9 2.7-3.9 0-3.9-.5-.1-.9-.3-1.3-.2-.5 0-1 .2-1.3.2-5.4 1.1-3.8 10 2.6 3.9z"/><path fill-rule="evenodd" clip-rule="evenodd" fill="#0EA736" d="M106.3 38.2c-7.8 1-15.6 8.5-8.4 15.9 5.2 6.5-7.5 19.6 4.5 23 4.8-10.6 17.8-19.1 14.5-32-1.2-5.6-5.9-7.5-10.6-6.9z"/><path fill="#0EA736" d="M92.9 191.6c-11.5-7.6-19.8-19.3-32.7-25-10.5-10.2-34.2-3.9-33.8-23.2 1.1-9.2-6.3-13.6-11.8-17.9-4.2-14.2 21.6-19.4 22-3.9 8.5-.4 11.5-15.3 21.4-17.5 5.1-4.4 18.8.3 13.8-8.7 4.9-4.7 19.3-4.5 12.3-15.4-2.4-10.6-15.4-15.8-19.7-3.7-11.8 3.2-7.1-22.5 5-19.1 8.7.5 7.5-7.1 2.2-9.5 0-.4-.1-.6-.4-.2-1-.4-2-.7-3.2-.7-11.8-6.5 11.8-23.1-3.8-28.4C47 33.3 20.8 56.3 10.3 77.9 5.6 91.4 6.4 105 6.9 119.2c4.8 13.8 14.1 25.1 21.6 37.4 4.8 6 2.5 12.8 2.1 19.3-.1 0 .1.2.1.2-.2 3.9.4 7.7 3.7 11.1 5.8 7.5 14.3 13.4 18.4 22.1 9.3 5.8 19.6 10.3 30.5 13.1 1.2-.5 3.6-1.2 12.2-2.1v-.2c0-2.6 11.9-6.4 17.8-10.7 9.8-11.7-10.5-21.2-20.4-17.8zM196.7 186.9c16.5-19.5 26.6-44.6 26.6-72.2 0-3.1-.2-6.1-.5-9.1-.1-.7-.1-1.5-.2-2.3-6.4 3.5-17.7-15.7-6.1-6.6 2.3-.2 3.7-.8 4.8-1.8-1.3-7-3.2-13.8-5.7-20.2-1.1-1.4-2.2-2.6-3.2-3.4.1-1.4-.1-2.7-.2-4.1-.1-.1.1-.2 0-.2-18.2-37.4-56.6-63.3-101-63.3-3 0-6.1.2-9.1.4-1.5.3-3.3.5-5 .7-.6.1-1.2.1-1.8.2C89 5.9 83 7 77.2 8.8c15.2-1 31-.6 44.8 6.2 3.7 11.8 25.6.2 24.5 13.4l.7.7c-.3.3.2 2.7.7.6 3.8 4.3 11.8 13.2 3.4 12.1-11.1-1.5-8.2 20.3-.2 24.3 7.6 4.1 11.9-4.1 4.1-8.2-1.1-10.2 17.1 6.3 9.1 11.8-.3.2-.6.5-.9.7.4-1.5-.5-.1-.5.2-9.1 6.6-3.9 22.1-7.4 32.5-6.3 14 15.7 7.8 12.5-3.2-4-10.1 16.8-5.5 12.3-12.7 12.6 6.7 11.4-11.3 6.2-17.3 2.5-9.6 8.9 1.1 5.9 6.4.5 4.9 4.8 6.1 8.2 7.5.2.1.3.1.7.2 3 1.4 4.8 3.3 1.6 8.9-3.7 12.5-16.3 13.2-26.5 10.9-10.4 4.3-12.3 16.9-18.2 25.4-5.8 10.6-10.6 26.2-.2 35.6 10 9.6 21.5 1.3 29.7-5.2 15.9-2.1 17.3 16.6 9.5 26.1-.4.5-.5.8-.5 1.2z"/><g opacity=".2" fill="#010000"><path d="M5.4 80.3c0 .1 0 .1-.1.2 1-.1 1.9-.1 1.9-.2H5.4zM205.9 174.4h-.1v.3c0-.1 0-.2.1-.3z"/><path d="M214.9 148.3c0-.2.1-.3.1-.4-.2.2-1.9 1.9-14.6 3.8 3.3-11.2 5.1-23.1 5.2-35.6h17v-3.4h-17c-.2-12.6-2.1-24.6-5.4-35.9 12.9 1.9 14.6 3.5 14.8 3.8 0 0-.1-.2-.1-.4h3c-.2-.7-.5-1.4-.7-2.2-1.3-1.2-4.1-2.3-8.6-3.2-2.6-.6-5.8-1.1-9.5-1.6-4.3-13-10.6-24.8-18.3-34.8 7.8 2 14 4.4 18.4 6.8-1.7-2.1-3.5-4.2-5.3-6.2-4.5-1.8-9.4-3.2-14-4.3-.8-.2-1.7-.4-2.6-.6-11.9-13.9-26.9-24-43.5-28.9-7.1-1.4-14.5-2.2-22-2.2-8.4 0-16.5 1-24.4 2.7-16 5-30.3 14.9-41.8 28.3l-2.7.6c-4.2 1-8.7 2.3-12.8 3.9-1.8 1.9-3.5 3.9-5.2 6 4.3-2.2 10.1-4.3 17.2-6.2-7.8 10.1-14 21.9-18.3 34.8-3.9.5-7.3 1.1-10 1.7-3.2.7-5.5 1.4-7.1 2.2-.3.9-.6 1.8-.9 2.6 3.2-.7 8.7-1.8 16.9-3-3.4 11.3-5.3 23.4-5.5 36H.2c0 .6-.1 1.3-.1 1.9v1.5h17c.1 12.5 2 24.5 5.3 35.7-13.2-1.9-14.9-3.6-15.1-3.8 0 0 .1.2.1.4H5.2c.3 1 .7 2 1 3 1.5.9 4 1.6 7.4 2.4 2.7.6 6 1.1 9.8 1.6 4 12.3 9.7 23.5 16.8 33.2-7.9-2.1-14.1-4.6-18.1-7.2 1.7 2.2 3.4 4.4 5.3 6.5 4.8 2 10.3 3.6 15.4 4.9.3.1.5.1.8.2 11.7 14.5 26.7 25.3 43.5 30.6 7.9 1.8 16.1 2.8 24.6 2.8 7.5 0 14.8-.8 21.9-2.2 17.7-5.1 33.4-16.2 45.6-31.3.2 0 .3-.1.5-.1 5.6-1.4 11.6-3.2 16.8-5.5 2-2.3 3.8-4.7 5.6-7.1-3.9 3-10.6 5.9-19.5 8.4 7.1-9.7 12.8-21 16.8-33.2 3.6-.5 6.8-1 9.4-1.6 4.8-1 7.6-2.1 8.8-3.5.2-.6.4-1.3.6-1.9h-3.3zM98.6 6.5c-6.1 4.4-11.7 12-16.6 22.4-11.2.9-21.7 2.2-31 4.1C64.1 19 80.5 9.5 98.6 6.5zM47.3 37.1c9.7-2.1 21-3.7 33.2-4.8-.5 1-.9 2.1-1.3 3.2-3.9 10-7 21.6-9.1 34.2-12.4.5-23.8 1.2-33.6 2-3.3.3-6.3.6-9.1 1C32 59.3 38.8 47.2 47.3 37.1zM26.1 76.3c3.6-.4 7.9-.9 12.9-1.3 9-.8 19.3-1.4 30.3-1.8-1.9 12.5-3 25.8-3.1 39.6h-46c.3-12.8 2.4-25.1 5.9-36.5zm-5.7 39.8h46c.1 13.7 1.1 26.9 3 39.3-11-.4-21.2-1-30.2-1.8-5.2-.5-9.5-.9-13.2-1.4-3.6-11.2-5.5-23.4-5.6-36.1zm6.6 39.7c2.9.3 6 .7 9.3 1 9.8.9 21.1 1.6 33.5 2.1 2.2 12.9 5.3 24.7 9.3 34.9.2.4.3.8.5 1.2-12.7-1.1-24.3-2.8-34.2-5.1-7.8-9.8-14-21.4-18.4-34.1zm21.9 38.3c9.6 2 20.5 3.5 32.2 4.4 5 11.4 11 19.7 17.5 24.4-19.1-3.3-36.3-13.6-49.7-28.8zm60.7 29.8c-9.1-1-17.7-9.7-24.8-25.1 8 .6 16.3.8 24.8.9v24.2zm0-27.6c-9 0-17.9-.4-26.3-1-.4-.9-.8-1.8-1.1-2.8-3.8-9.8-6.9-21.2-9-33.5 11.5.4 23.8.6 36.4.6v36.7zm0-40.1c-12.8 0-25.3-.2-37-.6-1.9-12.4-3-25.7-3-39.4h40v40zm0-43.4h-40c.1-13.8 1.2-27.3 3.2-39.7 11.6-.4 24.1-.6 36.8-.6v40.3zm0-43.8c-12.6 0-24.8.2-36.3.6 2.1-12.1 5.1-23.2 8.8-32.8.6-1.7 1.3-3.2 2-4.8 8.2-.6 16.7-.9 25.4-.9V69zm0-41.2c-8.2 0-16.1.3-23.8.8C92.7 14.5 101 6.4 109.6 5.5v22.3zm92.6 85h-45.9c-.1-13.8-1.2-27.1-3.1-39.6 10.9.4 21 1 29.8 1.8 5.3.5 9.8.9 13.5 1.4 3.5 11.3 5.6 23.6 5.7 36.4zm-6.9-40c-2.9-.4-6.1-.7-9.6-1-9.7-.9-20.9-1.6-33.1-2-2.2-12.6-5.2-24.2-9.2-34.2-.4-1.1-.9-2.1-1.3-3.2 12.2 1 23.4 2.6 33.2 4.8 8.5 10.1 15.4 22.2 20 35.6zM171.6 33c-9.3-1.8-19.8-3.2-31-4.1-4.8-10.4-10.5-18-16.6-22.4C142.1 9.6 158.5 19 171.6 33zM113 5.5c8.7.9 16.9 9 23.8 23.1-7.7-.5-15.7-.8-23.8-.8V5.5zm0 25.7c8.7 0 17.3.3 25.4.9.7 1.5 1.3 3.1 2 4.7 3.8 9.6 6.7 20.7 8.8 32.8-11.4-.3-23.6-.6-36.2-.6V31.2zm0 41.2c12.8 0 25.2.3 36.9.7 2 12.4 3 25.9 3.1 39.7h-40V72.4zm0 43.7h40c-.1 13.7-1.1 27-3 39.4-11.7.4-24.2.7-37 .7v-40.1zm0 43.5c12.6 0 24.9-.2 36.4-.6-2.1 12.4-5.1 23.7-9 33.5-.4 1-.7 1.9-1.1 2.8-8.4.6-17.3 1-26.3 1v-36.7zm0 40.1c8.5 0 16.8-.3 24.8-.9-7.1 15.3-15.7 24.1-24.8 25.1v-24.2zm11 23.2c6.5-4.7 12.4-12.9 17.5-24.4 11.7-1 22.6-2.5 32.2-4.4-13.3 15.2-30.6 25.5-49.7 28.8zm53.3-33.1c-9.9 2.4-21.6 4.1-34.3 5.2.2-.4.3-.8.5-1.2 4-10.2 7.1-22.1 9.3-34.9 12.2-.5 23.4-1.2 33-2 3.5-.3 6.8-.7 9.8-1-4.3 12.6-10.6 24.1-18.3 33.9zm19.4-37.6c-3.7.5-8.2 1-13.6 1.4-8.9.7-18.9 1.3-29.8 1.8 1.9-12.4 2.9-25.6 3-39.3h46c-.2 12.7-2.1 24.8-5.6 36.1z"/></g><g fill="#878787"><path d="M140.5 155.9c0 1.4-1.1 2.5-2.5 2.5h-7.2c-1.4 0-2.5-1.1-2.5-2.5V85.5c0-1.4 1.1-2.5 2.5-2.5h7.2c1.4 0 2.5 1.1 2.5 2.5v70.4zM222.3 155.9c0 1.4-1.1 2.5-2.5 2.5h-7.2c-1.4 0-2.5-1.1-2.5-2.5V85.5c0-1.4 1.1-2.5 2.5-2.5h7.2c1.4 0 2.5 1.1 2.5 2.5v70.4z"/></g><path fill="#EDEDED" d="M216.7 56.3h-82.8c-1.4 0-2.5 1.1-2.5 2.5V133.4c0 4.4 3.7 7.2 8.3 7.2h71.2c4.6 0 8.3-2.8 8.3-7.2V58.8c0-1.4-1.1-2.5-2.5-2.5z"/><path fill="#4C4C4C" d="M219.2 221.6c0 1.4-1.1 2.5-2.5 2.5h-82.8c-1.4 0-2.5-1.1-2.5-2.5V58.8c0-1.4 1.1-2.5 2.5-2.5h82.8c1.4 0 2.5 1.1 2.5 2.5v162.8z"/><circle opacity=".1" cx="175.3" cy="140.8" r="17.7"/><path opacity=".1" d="M216.7 60.1h-82.8c-1.4 0-2.5 1.1-2.5 2.5V137.2c0 4.4 3.7 7.2 8.3 7.2h71.2c4.6 0 8.3-2.8 8.3-7.2V62.6c0-1.4-1.1-2.5-2.5-2.5z"/><path fill="#5E5E5E" d="M216.7 56.3h-82.8c-1.4 0-2.5 1.1-2.5 2.5V133.4c0 4.4 3.7 7.2 8.3 7.2h71.2c4.6 0 8.3-2.8 8.3-7.2V58.8c0-1.4-1.1-2.5-2.5-2.5z"/><path fill="#50CEFF" d="M192.6 110.8h-28.5c-5.5 0-10-4.5-10-10s4.5-10 10-10h1c2.3-3.1 6-5 9.9-5 5.2 0 9.7 3.2 11.6 7.9 3.5.1 6.6 2.2 7.8 5.5 2.4.8 4.1 3.1 4.1 5.7.1 3.3-2.6 5.9-5.9 5.9zM164.2 93c-4.3 0-7.8 3.5-7.8 7.8s3.5 7.8 7.8 7.8h28.5c2.1 0 3.7-1.7 3.7-3.7 0-1.8-1.3-3.3-3-3.7l-.7-.1-.2-.6c-.9-2.9-3.6-4.7-6.6-4.5h-.9l-.3-.9c-1.3-4.3-5.2-7.2-9.7-7.2-3.4 0-6.6 1.7-8.5 4.6l-.4.6-.7-.1h-1.2z"/><circle fill="#878787" cx="175.3" cy="140.8" r="14.8"/><path fill="#878787" d="M160.9 141h-22.2c-4.7 0-8.4-3.8-8.4-8.4h.7c0 4.3 3.5 7.7 7.7 7.7h22.2v.7zM211.6 141h-22.2v-.7h22.2c4.3 0 7.7-3.5 7.7-7.7h.7c0 4.6-3.8 8.4-8.4 8.4z"/><circle fill="#50CEFF" cx="175.3" cy="140.8" r="13.3"/><circle fill="#727272" cx="175.3" cy="140.8" r="11.6"/><path opacity=".1" d="M138.6 56.3h-4.7c-1.4 0-2.5 1.1-2.5 2.5v162.8c0 1.4 1.1 2.5 2.5 2.5h4.7V56.3zM212 56.3h4.7c1.4 0 2.5 1.1 2.5 2.5v162.8c0 1.4-1.1 2.5-2.5 2.5H212V56.3z"/><g fill="#3DC2EA"><path d="M175.3 148.1c-3.7 0-6.7-3-6.7-6.7 0-1.7.7-3.4 1.8-4.6.4-.4 1-.4 1.4 0 .4.4.4 1 0 1.4-.8.9-1.3 2-1.3 3.2 0 2.6 2.1 4.6 4.6 4.6 2.6 0 4.6-2.1 4.6-4.6 0-1.2-.5-2.3-1.3-3.2-.4-.4-.4-1.1 0-1.4.4-.4 1.1-.4 1.4 0 1.2 1.2 1.8 2.9 1.8 4.6.4 3.7-2.6 6.7-6.3 6.7z"/><path d="M176.4 141.2c0 .6-.5 1.1-1.1 1.1-.6 0-1.1-.5-1.1-1.1v-6.8c0-.6.5-1.1 1.1-1.1.6 0 1.1.5 1.1 1.1v6.8z"/></g><path opacity=".05" d="M167.1 149c4.5 4.5 11.9 4.5 16.4 0 4.5-4.5 4.5-11.9 0-16.4L167.1 149z"/><path fill="#50CEFF" d="M184.7 97.6c-1.9-1.9-5-2-7.1-.2l-6.1 6.1c-1.1 1-2.9 1-4-.1s-1.1-3 0-4.1c1.1-1.1 2.8-1.1 4-.1l1.7 1.7 1.7-1.6-1.8-1.9c-2-1.8-5.1-1.7-7.1.2-2 2-2 5.3 0 7.3 1.9 1.9 5 2 7.1.2l6.2-6.1c1.1-1 2.9-1 4 .1s1.1 3 0 4.1c-1.1 1.1-2.8 1.1-4 .1l-1.7-1.7-1.6 1.6 1.8 1.8c2 1.8 5.1 1.7 7.1-.2 1.8-1.9 1.8-5.2-.2-7.2z"/><g fill="#4C4C4C"><path d="M144.4 56.3v7.4c0 .4.4.8.8.8s.8-.4.8-.8v-7.4h-1.6zM147.5 56.3v7.4c0 .4.4.8.8.8s.8-.4.8-.8v-7.4h-1.6zM150.7 56.3v7.4c0 .4.4.8.8.8s.8-.4.8-.8v-7.4h-1.6z"/></g><g fill="#4C4C4C"><path d="M198.9 56.3v7.4c0 .4.4.8.8.8s.8-.4.8-.8v-7.4h-1.6zM202.1 56.3v7.4c0 .4.4.8.8.8s.8-.4.8-.8v-7.4h-1.6zM205.2 56.3v7.4c0 .4.4.8.8.8s.8-.4.8-.8v-7.4h-1.6z"/></g><path opacity=".15" d="M131.4 219.9v1.7c0 1.4 1.1 2.5 2.5 2.5H216.7c1.4 0 2.5-1.1 2.5-2.5v-1.7h-87.8zM156.1 56.3v2.1c0 1.9 1.6 3.5 3.5 3.5h4.8v.9c0 1.1.9 2 2 2h17.8c1.1 0 2-.9 2-2v-.9h4.8c1.9 0 3.5-1.6 3.5-3.5v-2.1h-38.4z"/><path fill="#878787" d="M172.9 154h4.7v70h-4.7z"/><path fill="#50CEFF" d="M174.4 153.3h1.7v70.8h-1.7z"/><path opacity=".2" d="M219.8 83h-.6V58.8c0-1.4-1.1-2.5-2.5-2.5H133.9c-1.4 0-2.5 1.1-2.5 2.5V83h-.6c-1.4 0-2.5 1.1-2.5 2.5v70.4c0 1.4 1.1 2.5 2.5 2.5h.6V221.7c0 1.4 1.1 2.5 2.5 2.5h82.8c1.4 0 2.5-1.1 2.5-2.5V158.4h.6c1.4 0 2.5-1.1 2.5-2.5V85.5c0-1.4-1.2-2.5-2.5-2.5z"/><g><g fill="#878787"><path d="M186.4 142.4c0 1.7-1.4 3.1-3.1 3.1h-9c-1.7 0-3.1-1.4-3.1-3.1v-88c0-1.7 1.4-3.1 3.1-3.1h9c1.7 0 3.1 1.4 3.1 3.1v88zM288.5 142.4c0 1.7-1.4 3.1-3.1 3.1h-9c-1.7 0-3.1-1.4-3.1-3.1v-88c0-1.7 1.4-3.1 3.1-3.1h9c1.7 0 3.1 1.4 3.1 3.1v88z"/></g><path fill="#EDEDED" d="M281.6 18H178.1c-1.7 0-3.1 1.4-3.1 3.1v93.3c0 5.5 4.6 9 10.4 9h89c5.7 0 10.4-3.5 10.4-9V21.1c-.1-1.7-1.5-3.1-3.2-3.1z"/><path fill="#4C4C4C" d="M284.7 220.9c0 1.7-1.4 3.1-3.1 3.1H178.2c-1.7 0-3.1-1.4-3.1-3.1V21.1c0-1.7 1.4-3.1 3.1-3.1h103.5c1.7 0 3.1 1.4 3.1 3.1v199.8z"/><circle opacity=".1" cx="229.9" cy="123.5" r="22.1"/><path opacity=".1" d="M281.6 22.7H178.1c-1.7 0-3.1 1.4-3.1 3.1v93.3c0 5.5 4.6 9 10.4 9h89c5.7 0 10.4-3.5 10.4-9V25.9c-.1-1.8-1.5-3.2-3.2-3.2z"/><path fill="#5E5E5E" d="M281.6 18H178.1c-1.7 0-3.1 1.4-3.1 3.1v93.3c0 5.5 4.6 9 10.4 9h89c5.7 0 10.4-3.5 10.4-9V21.1c-.1-1.7-1.5-3.1-3.2-3.1z"/><path fill="#50CEFF" d="M251.5 85.8H216c-6.8 0-12.3-5.5-12.3-12.3 0-7.2 6.3-13 13.6-12.2 2.9-3.9 7.4-6.2 12.3-6.2 6.4 0 12 3.9 14.2 9.9 4.4 0 8.3 2.7 9.8 6.8 3 .9 5.1 3.7 5.1 6.9 0 3.9-3.2 7.1-7.2 7.1zM216 63.5c-5.5 0-10 4.5-10 10s4.5 10 10 10h35.6c2.7 0 4.9-2.2 4.9-4.9 0-2.3-1.7-4.4-3.9-4.8l-.7-.1-.2-.6c-1.1-3.5-4.2-5.8-7.8-5.8h-.7l-.9.1-.3-.9c-1.7-5.5-6.7-9.2-12.4-9.2-4.4 0-8.4 2.2-10.8 5.8l-.4.6-.7-.1c-.6-.1-1.2-.1-1.7-.1z"/><circle fill="#878787" cx="229.9" cy="123.5" r="18.5"/><path fill="#878787" d="M211.9 123.8h-27.7c-5.8 0-10.6-4.7-10.6-10.6h.9c0 5.3 4.3 9.7 9.7 9.7h27.7v.9zM275.2 123.8h-27.7v-.9h27.7c5.3 0 9.7-4.3 9.7-9.7h.9c-.1 5.9-4.8 10.6-10.6 10.6z"/><circle fill="#50CEFF" cx="229.9" cy="123.5" r="16.6"/><circle fill="#727272" cx="229.9" cy="123.5" r="14.5"/><path opacity=".1" d="M184 18h-5.9c-1.7 0-3.1 1.4-3.1 3.1v199.8c0 1.7 1.4 3.1 3.1 3.1h5.9V18zM275.7 18h5.9c1.7 0 3.1 1.4 3.1 3.1v199.8c0 1.7-1.4 3.1-3.1 3.1h-5.9V18z"/><g fill="#3DC2EA"><path d="M229.9 132.6c-4.6 0-8.3-3.7-8.3-8.3 0-2.1.8-4.2 2.3-5.7.5-.5 1.3-.5 1.8 0s.5 1.3 0 1.8c-1 1.1-1.6 2.5-1.6 4 0 3.2 2.6 5.8 5.8 5.8 3.2 0 5.8-2.6 5.8-5.8 0-1.5-.6-2.9-1.6-4-.5-.5-.5-1.3 0-1.8s1.3-.5 1.8 0c1.5 1.6 2.3 3.6 2.3 5.7 0 4.6-3.7 8.3-8.3 8.3z"/><path d="M231.2 124.1c0 .7-.6 1.3-1.3 1.3-.7 0-1.3-.6-1.3-1.3v-8.4c0-.7.6-1.3 1.3-1.3.7 0 1.3.6 1.3 1.3v8.4z"/></g><path opacity=".05" d="M219.6 133.7c5.7 5.7 14.9 5.7 20.5 0 5.7-5.7 5.7-14.8 0-20.5l-20.5 20.5z"/><path fill="#50CEFF" d="M241.6 69.5c-2.4-2.4-6.3-2.5-8.8-.3l-7.7 7.6c-1.4 1.3-3.6 1.2-5-.2a3.62 3.62 0 0 1 0-5.1c1.4-1.4 3.5-1.4 5-.2l2.1 2.1 2.1-1.9-2.3-2.3c-2.5-2.2-6.4-2.2-8.8.3-2.5 2.5-2.5 6.6 0 9.1 2.4 2.4 6.3 2.5 8.8.3l7.7-7.6c1.4-1.3 3.6-1.2 4.9.2 1.4 1.4 1.4 3.7 0 5.1-1.4 1.4-3.5 1.4-4.9.2l-2.2-2.2-2 2 2.3 2.3c2.5 2.2 6.4 2.2 8.8-.3 2.6-2.5 2.6-6.6 0-9.1z"/><g fill="#4C4C4C"><path d="M191.3 18v9.3c0 .5.4 1 1 1 .5 0 1-.4 1-1V18h-2zM195.2 18v9.3c0 .5.4 1 1 1 .5 0 1-.4 1-1V18h-2zM199.2 18v9.3c0 .5.4 1 1 1 .5 0 1-.4 1-1V18h-2z"/></g><g fill="#4C4C4C"><path d="M259.4 18v9.3c0 .5.4 1 1 1 .5 0 1-.4 1-1V18h-2zM263.3 18v9.3c0 .5.4 1 1 1 .5 0 1-.4 1-1V18h-2zM267.3 18v9.3c0 .5.4 1 1 1 .5 0 1-.4 1-1V18h-2z"/></g><path opacity=".15" d="M175 218.8v2.1c0 1.7 1.4 3.1 3.1 3.1H281.6c1.7 0 3.1-1.4 3.1-3.1v-2.1H175zM205.9 18v2.6c0 2.4 2 4.4 4.4 4.4h6v1.1c0 1.4 1.1 2.5 2.5 2.5H241c1.4 0 2.5-1.1 2.5-2.5V25h6c2.4 0 4.4-2 4.4-4.4V18h-48z"/><path fill="#878787" d="M226.9 140.1h5.9V224h-5.9z"/><path fill="#50CEFF" d="M228.8 139.1h2.1V224h-2.1z"/><path opacity=".04" fill="#FFF" d="M281.6 18h-52.3c-1.7 0 45.1 105.3 45.1 105.3 5.7 0 10.4-3.5 10.4-9V21.1c-.1-1.7-1.5-3.1-3.2-3.1z"/></g><g><path fill="#FCD22E" d="M43.6 20.7c3.5 9.3 10.6 16.8 19.6 20.8-9 4.1-16.1 11.6-19.6 20.8-3.5-9.2-10.6-16.7-19.5-20.8 8.9-4.1 16-11.6 19.5-20.8z"/><path fill="#FD7600" d="M43.6 31c1.8 4.7 5.3 8.4 9.9 10.5-4.5 2-8.1 5.8-9.9 10.5-1.8-4.7-5.3-8.5-9.9-10.5 4.6-2.1 8.2-5.8 9.9-10.5z"/><path fill="#FCD22E" d="M28.1 5.9c1.7 4.5 5.2 8.2 9.6 10.2-4.4 2-7.8 5.6-9.6 10.2-1.7-4.5-5.2-8.2-9.6-10.2 4.4-2 7.9-5.7 9.6-10.2z"/><path fill="#FD7600" d="M28.1 11c.9 2.3 2.6 4.1 4.8 5.1-2.2 1-4 2.8-4.8 5.1-.9-2.3-2.6-4.1-4.8-5.1 2.2-1 3.9-2.9 4.8-5.1z"/><g><path fill="#FCD22E" d="M61.3 0c2.5 6.5 7.5 11.8 13.8 14.7-6.3 2.9-11.3 8.2-13.8 14.7-2.5-6.5-7.5-11.8-13.8-14.7C53.9 11.8 58.9 6.5 61.3 0z"/><path fill="#FD7600" d="M61.3 7.3c1.2 3.3 3.8 5.9 7 7.4-3.2 1.4-5.7 4.1-7 7.4-1.2-3.3-3.8-6-7-7.4 3.3-1.5 5.8-4.1 7-7.4z"/></g></g><path opacity=".1" d="M178.2 224.1h103.5c1.7 0 3.1-1.4 3.1-3.1v-43l-60.5-60.5-49.2 13V221c-.1 1.7 1.3 3.1 3.1 3.1z"/><g><path fill="#06B57E" d="M222.8 142c0-18.2-3.2-33.2-8.9-45.4-3.2.3-6.5.4-9.9.4-27.6 0-51.7-8.7-65.3-21.9C125.2 88.3 101 97 73.5 97c-3.4 0-6.6-.1-9.9-.4-5.7 12.2-8.9 27.2-8.9 45.4 0 62.3 51.1 117.3 84.1 117.3 35.2.1 84-54.9 84-117.3z"/><g fill="#FFF"><path d="M172.5 210.9c0 3-2.4 5.5-5.5 5.5h-56.5c-3 0-5.5-2.4-5.5-5.5v-48.3c0-3 2.4-5.5 5.5-5.5H167c3 0 5.5 2.4 5.5 5.5v48.3z"/><path d="M138.7 213c-14.1 0-25.5-11.4-25.5-25.5V139c0-14.1 11.5-25.5 25.5-25.5 14.1 0 25.5 11.4 25.5 25.5v48.5c.1 14.1-11.4 25.5-25.5 25.5zm0-88.6c-8 0-14.6 6.5-14.6 14.6v48.5c0 8 6.5 14.6 14.6 14.6 8 0 14.6-6.5 14.6-14.6V139c0-8-6.5-14.6-14.6-14.6z"/></g><g fill="#06B57E"><path d="M147.2 179.7c0 4.7-3.8 8.5-8.5 8.5s-8.5-3.8-8.5-8.5 3.8-8.5 8.5-8.5 8.5 3.8 8.5 8.5z"/><path d="M143 201.2c0 2.3-1.9 4.2-4.2 4.2-2.3 0-4.2-1.9-4.2-4.2v-23.6c0-2.3 1.9-4.2 4.2-4.2 2.3 0 4.2 1.9 4.2 4.2v23.6z"/></g><path opacity=".1" fill="#010000" d="M213.9 96.6c-3.2.3-6.5.4-9.9.4-27.4 0-51.5-8.6-65-21.6v184c35.8 0 83.9-55.2 83.9-117.3-.1-18.3-3.3-33.3-9-45.5z"/></g><g><path opacity=".2" fill="#464646" d="M36 139.5l22.7 26.2c1.5 1.7 4.1 1.9 5.8.4l46.9-40.6c.5-.5.9-1 1.2-1.7.3-.4.5-.9.5-1.5l1.8-25.4c.1-1.8-1.2-3.4-3.1-3.5l-25.4-1.8c-1.2-.1-2.2.4-2.9 1.3-.1.1-.2.1-.3.2l-46.9 40.6c-1.6 1.5-1.8 4.1-.3 5.8zm63.5-32.1c-1.9-2.2-1.7-5.5.5-7.4 2.2-1.9 5.5-1.7 7.4.5 1.9 2.2 1.7 5.5-.5 7.4-2.2 1.9-5.5 1.7-7.4-.5z"/><path fill="#FF3E3E" d="M34.7 138.2l22.7 26.2c1.5 1.7 4.1 1.9 5.8.4l46.9-40.6c.5-.5.9-1 1.2-1.7.3-.4.5-.9.5-1.5l1.8-25.4c.1-1.8-1.2-3.4-3.1-3.5l-25.4-1.8c-1.2-.1-2.2.4-2.9 1.3-.1.1-.2.1-.3.2L35 132.4c-1.6 1.5-1.8 4.1-.3 5.8zm63.4-32.1c-1.9-2.2-1.7-5.5.5-7.4 2.2-1.9 5.5-1.7 7.4.5 1.9 2.2 1.7 5.5-.5 7.4-2.1 1.9-5.5 1.6-7.4-.5z"/><g opacity=".2"><path d="M78.43 94.615l.907-.785 1.177 1.362-.908.785zM100.7 120.3l.9-.8 2.3 2.7-.9.8-2.3-2.7zm-4.7-5.4l.9-.8 2.3 2.7-.9.8-2.3-2.7zm-4.7-5.4l.9-.8 2.3 2.7-.9.8-2.3-2.7zm-4.6-5.4l.9-.8 2.3 2.7-.9.8-2.3-2.7zM82 98.7l.9-.8 2.3 2.7-.9.8-2.3-2.7zM106.6 127.1l.9-.8-1.2-1.4-.9.8z"/></g><path opacity=".1" fill="#464646" d="M35.1 132.4s47.5-4.8 73.8-7.3l-45.7 39.6c-1.7 1.5-4.3 1.3-5.8-.4l-22.7-26.2c-1.5-1.6-1.3-4.2.4-5.7z"/><g fill="#FFF"><path d="M57.6 151.2l-9.2-10.6 7.5-6.5 1.7 2-5.3 4.6 2 2.2 5.2-4.5 1.7 2-5.2 4.5 3.8 4.4-2.2 1.9zM72.7 138.1l-5.4-2-1.7 1.4 3.3 3.8-2.3 2-9.2-10.6 5-4.3c2.2-1.9 4.8-1.7 6.6.3 1.6 1.9 1.3 3.9.4 5.2l5.9 2-2.6 2.2zm-6-7.4c-.8-.9-1.9-.8-2.8-.1l-2.4 2.1 2.5 2.9 2.4-2.1c.8-.8 1-1.9.3-2.8zM77 134.4l-9.2-10.6 7.5-6.5 1.7 2-5.3 4.6 2 2.2 5.2-4.5 1.7 2-5.2 4.5 2.1 2.4 5.3-4.6 1.7 2-7.5 6.5zM86.2 126.3L77 115.7l7.5-6.5 1.7 2-5.3 4.6 2 2.2 5.2-4.5 1.7 2-5.2 4.5 2.1 2.4 5.3-4.6 1.7 2-7.5 6.5z"/></g><path opacity=".2" fill="#464646" d="M124 85.3c-2.2 1.1-4.4 2.1-6.8 3-1.9 1.3-3.6 2.7-5.2 4.1.2.2.4.3.6.5l.4.5c2.4-2.1 5.1-4.1 8.1-6.1 1-.7 2-1.3 3.1-1.8-.2 0-.2-.1-.2-.2zM146.1 80.1c-.5-.7-1.2-1.2-2.1-1.5 0 .5-.1.9-.2 1.4.5.2.9.5 1.1.9 1.9 3-4 11.4-16 19-7.6 4.9-15.4 7.9-20.3 7.9-1.3 0-3-.2-3.7-1.4-.8-1.3-.2-3.7 1.9-6.5-.3-.2-.8-.5-1.1-.7-2.3 3.3-3 6.1-1.8 7.9.8 1.3 2.5 2 4.9 2 5.1 0 13.2-3.1 21-8.1 11.8-7.6 19-16.7 16.3-20.9z"/><g fill="#6B6B6B"><path d="M119.7 86c5-3.2 10-5.6 14.3-6.8.7-.5 1.8-1.5 2.5-2-4.9 1-11.3 3.7-17.5 7.7-3.4 2.2-6.6 4.6-9.2 7 .7.1 1.3.3 1.6.3 2.4-2.1 5.2-4.2 8.3-6.2zM144.8 78.8c-.8-1.3-2.5-2-4.9-2 0 0 1.2 1 2 1.6.7.2 1.3.5 1.7 1.1 1.9 3-4 11.4-16 19-7.6 4.9-15.4 7.9-20.3 7.9-1.3 0-3-.2-3.7-1.4-.8-1.3-.2-3.7 1.9-6.5-.3-.2-.8-.5-1.1-.7-2.3 3.3-3 6.1-1.8 7.9.8 1.3 2.5 2 4.9 2 5.1 0 13.2-3.1 21-8.1 11.7-7.5 18.9-16.7 16.3-20.8z"/></g></g></svg>