<svg xmlns="http://www.w3.org/2000/svg" height="225" width="190" viewBox="0 0 190 224.94642"><path fill="#80cef1" d="M190.35 4.99C177.66 1.75 164.97 0 152.28 0c-77.973 0-141 63.45-141 142.41 0 31.02 9.983 59.784 26.93 83.05h152.28V5.5z"/><g fill-rule="evenodd" clip-rule="evenodd" fill="#18a538"><path d="M61.053 169.2c-.78-.327-1.86-.544-2.58-.64-.952-.11-1.664-.147-2.313 0-1.93.57-2.058 2.594 3.173 5.74 1.404 1.86 3.948 3.566 6.36 2.635 1.4-3.976-1.51-6.4-4.64-7.473 0-.256.027-.18 0-.256zM82.908 129.438c.227.206.376.532.578.568h.3c1.41.405 2.792-1.025 1.72-1.116-.42-.075-1.237.035-2.594.548zM115.76 117.03c-2.24.382-2.79 1.89 2.045 5.203.598-.164 4.752-1.097 2.313 1.41 7.5-4.47-.522-7.29-4.357-6.613zM115.76 85.023c8.08-3.285 9.927-24.534.32-23.97-.62 0-1.247.312-2.03.605 4.033 7.416-5.26 16.92 1.72 23.265zM136.347 47.235c2.326-1.086 3.44-4.95 0-4.95-.625-.163-1.09-.328-1.72-.29-.62.02-1.245.237-1.706.29-6.81 1.36-4.737 12.65 3.413 4.95z"/><path d="M145.23 44.556c-9.856 1.245-19.74 10.758-10.63 20.163 6.57 8.19-9.477 24.956 5.75 29.186 6.036-13.508 22.56-24.252 18.472-40.75-1.706-7.02-7.656-9.446-13.592-8.685z"/></g><path fill="#18a538" d="M46.953 194.58c6.035 7.572 3.13 16.215 2.68 24.534-.162.054.072.254.072.292-.103 1.678-.08 3.313.147 4.92h61.194c-7.332-5.64-14.664-12.69-23.83-16.92-13.394-12.69-43.568-4.23-43.004-28.2 1.41-12.69-7.896-18.33-14.946-23.97-5.358-17.483 27.495-24.11 27.918-4.23 10.83-.567 14.664-19.457 27.072-22.136 6.444-5.598 23.83.424 17.625-10.998 6.233-5.922 24.535-5.71 15.51-19.6-3.002-13.507-19.598-20.02-25.097-4.652-15.087 4.032-8.968-28.623 6.317-24.252 11.082.638 9.574-8.996 2.862-12.098 0-.475-.147-.733-.567-.312-1.23-.456-2.524-.934-4.032-.86-14.805-8.46 15.228-29.47-4.653-36.237C70.365 38.474 37.23 67.8 23.835 95.156c-6.007 17.202-5.006 34.404-4.315 52.452 6.105 17.484 17.907 31.866 27.354 47.517zM190.35 5.696C177.66 2.326 164.97.508 152.28.508c-3.85 0-7.755.235-11.562.55-1.974.42-4.145.676-6.373.88-.76.073-1.523.16-2.27.293-7.967 1.12-15.51 2.51-22.983 4.88 19.458-1.425 39.48-.917 57.105 7.81 3.045 9.772 16.074 6.88 24.252 8.39V5.685z"/><g opacity=".2" fill="#010100"><path d="M17.625 98.136c-.034.107-.062.183-.087.272 1.308-.07 2.467-.165 2.467-.272h-2.383z"/><path d="M190.35 194.58c-11.492.314-23.547.48-35.673.48v-50.9h35.673v-4.287h-35.673V88.55c12.225.028 24.252.2 35.673.508v-4.314a1452.964 1452.964 0 0 0-35.673-.505V36.157c11.097.037 21.996.44 32.29 1.194a168.65 168.65 0 0 1 2.523 6.035c.29.742.564 1.51.85 2.27V33.292l-.565-.047c-6.162-13.24-13.31-22.842-21.01-28.482 7.46 1.262 14.665 3.398 21.574 6.29V6.44c-2.82-1.17-7.05-2.27-9.87-3.2-8.46-1.805-18.33-2.763-28.2-2.763S131.54 1.685 121.67 3.903C101.368 10.29 83.038 22.938 68.515 40c-1.144.274-2.284.532-3.398.804-5.358 1.303-11.027 2.933-16.356 4.92a146.318 146.318 0 0 0-6.598 7.6c5.414-2.82 12.79-5.498 21.855-7.825-9.884 12.816-17.766 27.776-23.265 44.273-5.006.662-9.278 1.374-12.775 2.13-4.09.88-7.036 1.776-8.996 2.82a74.722 74.722 0 0 0-1.145 3.355c4.02-.936 11.11-2.312 21.432-3.78-4.09 14.242-6.627 29.61-6.768 45.685H10.925c-.027.807-.083 1.608-.083 2.44 0 .62.046 1.228.056 1.847H32.47c.165 15.792 2.51 31.02 6.67 45.26-16.78-2.382-18.894-4.568-19.176-4.878.03.03.11.217.11.453h-2.708c.405 1.284.852 2.566 1.298 3.835 1.96 1.114 5.02 2.087 9.39 3.017 3.44.735 7.572 1.44 12.45 2.087a155.487 155.487 0 0 0 14.24 31.443h4.98c-5.88-9.433-10.83-19.74-14.524-30.88 3.638.444 7.586.846 11.858 1.23 12.408 1.137 26.79 2.017 42.582 2.623 1.593 9.49 3.61 18.47 5.992 26.93h4.414c-2.426-8.374-4.456-17.342-6.092-26.79 14.523.5 30.174.794 46.248.794v26.085h4.23v-26.086a1405.68 1405.68 0 0 0 35.673-.485v-4.302zM153.69 2.82c11.026 1.153 21.573 11.393 30.315 29.328a483.064 483.064 0 0 0-30.315-1.045V2.763zm-17.766 1.255c-7.755 5.57-14.805 15.228-21.01 28.482a334.746 334.746 0 0 0-39.338 5.076c16.638-17.625 37.365-29.75 60.348-33.558zM70.782 42.99c12.38-2.735 26.65-4.765 42.16-6.048a106.98 106.98 0 0 0-1.68 4.075c-4.962 12.732-8.868 27.495-11.617 43.428-15.792.588-30.174 1.48-42.723 2.608-4.132.388-7.98.79-11.52 1.21 5.922-17.06 14.664-32.43 25.38-45.26zM60.39 191.04c-6.613-.586-12.126-1.155-16.78-1.748-4.384-14.382-6.88-29.75-7.05-45.966h58.375c.093 17.343 1.39 34.263 3.78 49.914-14.002-.556-26.932-1.322-38.353-2.298zm34.545-51.887H36.56c.244-16.215 2.82-31.866 7.362-46.39 4.554-.552 9.982-1.117 16.497-1.69 11.42-.97 24.533-1.735 38.492-2.285-2.468 15.792-3.822 32.853-3.934 50.337zm54.99 55.272c-16.215 0-32.148-.295-46.953-.824-2.44-15.79-3.764-32.71-3.863-50.054h50.76v50.9zm0-55.272h-50.76c.12-17.625 1.495-34.686 4.02-50.478 14.804-.513 30.596-.804 46.81-.824v51.325zm0-55.554c-15.933.02-31.584.29-46.107.805 2.665-15.37 6.444-29.47 11.238-41.736.81-2.116 1.664-4.104 2.51-6.05a484.31 484.31 0 0 1 32.29-1.17v48.08zm0-52.453c-9.73.14-19.88.423-29.75 1.128 8.882-17.907 19.316-28.2 29.75-29.328v28.34z"/></g><g transform="matrix(1.4 0 0 1.4 0 0)"><path fill="#e0e0e0" d="M135 26.5H43a4 4 0 0 0-4 4v129h96v-133z"/><path fill="#d3d3d3" d="M38.7 42.1h96v5.82h-96z"/><path fill="#444" d="M135 26.5H43a4 4 0 0 0-4 4v12h96v-16z"/><circle cy="34.7" cx="47.5" r="3.17" fill="#2cb740"/><path fill="#f16442" d="M60.3 34.7c0 1.75-1.42 3.16-3.17 3.16-1.74 0-3.16-1.42-3.16-3.16a3.16 3.16 0 0 1 3.16-3.16 3.17 3.17 0 0 1 3.17 3.16z"/><path fill="#fff" d="M135 31.3H65.7c-1.74 0-3.16 1.42-3.16 3.17s1.43 3.16 3.16 3.16H135V31.3z"/><ellipse cx="70" rx=".066" ry=".044" cy="57.4" fill="#fcd22e"/><path fill="#444" d="M113 67.3a.887.887 0 0 1-.89.885h-64.6a.886.886 0 0 1 0-1.774h64.6c.492.002.89.4.89.89zM113 63.7c0 .49-.397.888-.89.888h-64.6a.886.886 0 0 1 0-1.775h64.6c.492 0 .89.398.89.887zM113 60.2a.89.89 0 0 1-.89.887h-64.6a.887.887 0 0 1 0-1.775h64.6c.492 0 .89.397.89.888zM76 55.7c0 .772-.63 1.4-1.4 1.4H48a1.4 1.4 0 0 1 0-2.8h26.6c.777 0 1.41.628 1.41 1.4z"/><circle cy="55.7" cx="42.7" r="1.5" fill="#444"/><path fill="#bfbfbf" d="M113 99.4a.888.888 0 0 1-.89.886h-64.6a.887.887 0 0 1 0-1.776h64.6c.492 0 .89.4.89.89zM113 95.9a.89.89 0 0 1-.89.89h-64.6a.887.887 0 0 1 0-1.775h64.6c.492 0 .89.398.89.885zM113 92.3a.89.89 0 0 1-.89.887h-64.6a.887.887 0 0 1 0-1.775h64.6c.492 0 .89.398.89.888z"/><path fill="#a0a0a0" d="M76 87.8c0 .772-.63 1.4-1.4 1.4H48a1.4 1.4 0 0 1 0-2.8h26.6c.777 0 1.41.628 1.41 1.4z"/><circle cy="87.8" cx="42.7" r="1.5" fill="#a0a0a0"/><g><path fill="#bfbfbf" d="M113 116a.887.887 0 0 1-.89.885h-64.6a.886.886 0 0 1 0-1.774h64.6c.492 0 .89.398.89.89zM113 112c0 .49-.397.888-.89.888h-64.6a.886.886 0 0 1 0-1.775h64.6c.492 0 .89.4.89.887zM113 108a.89.89 0 0 1-.89.887h-64.6a.887.887 0 0 1 0-1.775h64.6c.492 0 .89.398.89.888z"/><path fill="#a0a0a0" d="M76 104c0 .772-.63 1.4-1.4 1.4H48a1.4 1.4 0 0 1 0-2.8h26.6c.777 0 1.41.627 1.41 1.4z"/><circle cy="104" cx="42.7" r="1.5" fill="#a0a0a0"/></g><g><path fill="#bfbfbf" d="M113 136a.887.887 0 0 1-.89.885h-64.6a.886.886 0 0 1-.886-.885c0-.49.397-.89.887-.89h64.6c.492 0 .89.4.89.89zM113 133c0 .49-.397.888-.89.888h-64.6a.886.886 0 0 1 0-1.775h64.6c.492 0 .89.398.89.887zM113 129a.89.89 0 0 1-.89.887h-64.6a.887.887 0 0 1 0-1.775h64.6c.492 0 .89.397.89.888z"/><path fill="#a0a0a0" d="M76 125c0 .772-.63 1.4-1.4 1.4H48a1.4 1.4 0 0 1 0-2.8h26.6c.777 0 1.41.628 1.41 1.4z"/><circle cy="125" cx="42.7" r="1.5" fill="#a0a0a0"/></g><path fill="#bfbfbf" d="M70.6 72.3h19.2v12.6H70.6z"/><g><path fill="#bfbfbf" d="M113 156a.887.887 0 0 1-.89.885h-64.6a.886.886 0 0 1 0-1.774h64.6c.492 0 .89.4.89.89zM113 152c0 .49-.397.888-.89.888h-64.6a.886.886 0 0 1 0-1.775h64.6c.492 0 .89.4.89.887zM113 149a.89.89 0 0 1-.89.887h-64.6a.887.887 0 0 1 0-1.775h64.6c.492 0 .89.398.89.888z"/><path fill="#a0a0a0" d="M76 144c0 .772-.63 1.4-1.4 1.4H48a1.4 1.4 0 0 1 0-2.8h26.6c.777 0 1.41.627 1.41 1.4z"/><circle cy="144" cx="42.7" r="1.5" fill="#a0a0a0"/></g><g><path fill="#06b57e" d="M78.4 90.7c0-8.49-1.5-15.5-4.16-21.2a58.5 58.5 0 0 1-4.61.187c-12.9 0-24.1-4.08-30.4-10.2-6.3 6.1-17.6 10.2-30.4 10.2-1.59 0-3.13-.1-4.64-.2-2.66 5.7-4.16 12.7-4.16 21.2 0 29.1 23.8 54.7 39.2 54.7 16.5 0 39.2-25.6 39.2-54.7z"/><g fill="#fff"><path d="M54.9 123c0 1.41-1.14 2.55-2.55 2.55h-26.4c-1.41 0-2.55-1.14-2.55-2.55v-22.5c0-1.41 1.14-2.55 2.55-2.55h26.4c1.41 0 2.55 1.14 2.55 2.55V123z"/><path d="M39.2 124c-6.56 0-11.9-5.34-11.9-11.9V89.5c0-6.56 5.34-11.9 11.9-11.9s11.9 5.34 11.9 11.9v22.6c0 6.56-5.34 11.9-11.9 11.9zm0-41.3c-3.75 0-6.8 3.05-6.8 6.8v22.6c0 3.75 3.05 6.8 6.8 6.8s6.8-3.05 6.8-6.8V89.5c0-3.75-3.05-6.8-6.8-6.8z"/></g><g fill="#06b57e"><path d="M43.2 108c0 2.18-1.78 3.95-3.95 3.95-2.18 0-3.95-1.77-3.95-3.95s1.77-3.95 3.95-3.95c2.17 0 3.95 1.77 3.95 3.95z"/><path d="M41.2 118a1.97 1.97 0 0 1-3.94 0v-11c0-1.09.882-1.98 1.97-1.98s1.97.882 1.97 1.98v11z"/></g><path opacity=".1" fill="#010000" d="M74.3 69.5c-1.51.12-3.05.187-4.61.187-12.8 0-24-4.03-30.3-10.1v85.8c16.7 0 39.1-25.8 39.1-54.7 0-8.49-1.51-15.5-4.16-21.2z"/></g><g fill="#bfbfbf"><path d="M93.7 72.3h19.2v12.6H93.7zM120 51.3h15.2v42H120zM120 99.6h15.2v22.2H120z"/></g></g></svg>