<svg baseProfile="basic" xmlns="http://www.w3.org/2000/svg" xmlns:xlink="http://www.w3.org/1999/xlink" width="386" height="313" viewBox="0 0 386 313"><path fill="#F4F4F4" d="M387.6 301.8c0 6.2-86.8 11.1-193.8 11.1-107 0-193.8-5-193.8-11.1 0-6.2 86.8-11.1 193.8-11.1 107-.1 193.8 4.9 193.8 11.1z"/><path fill="#C4C4C4" d="M251.5 296.1c-32.2-1.3-18-44.5-18-44.5l-35.6-1.1v-.1l-2.3.1-2.3-.1v.1l-35.6 1.1s14.2 43.3-18 44.5c-32.2 1.3-.9 5.8-.9 5.8l56.9-1.4 59 3c-.2 0 29-6.2-3.2-7.4z"/><path fill="#C4C4C4" d="M251.5 296.1c-32.2-1.3-18-44.5-18-44.5l-35.6-1.1v-.1l-2.3.1-2.3-.1v.1l-35.6 1.1s14.2 43.3-18 44.5c-32.2 1.3-.9 5.8-.9 5.8l56.9-1.4 59 3c-.2 0 29-6.2-3.2-7.4z"/><path fill="#D8D8D8" d="M267.8 300.9c0 1.9-1.6 3.4-3.5 3.4H126.7c-1.9 0-3.5-1.5-3.5-3.4s1.6-3.4 3.5-3.4h137.6c1.9-.1 3.5 1.5 3.5 3.4z"/><path opacity=".1" fill="#3C3C3B" d="M195.8 280.8c13.6 0 25.8-2.8 34.6-7.4-.5-11 3.1-21.8 3.1-21.8l-35.6-1.1v-.1l-2.3.1-2.3-.1v.1l-35.6 1.1s3.5 10.6 3.1 21.5c8.6 4.7 21.1 7.7 35 7.7z"/><path fill-rule="evenodd" clip-rule="evenodd" fill="#EBEBEB" d="M355.9 260.7c0 5.5-4.5 10-10 10H41.7c-5.5 0-10-4.5-10-10V43.1c0-5.5 4.5-10 10-10h304.2c5.5 0 10 4.5 10 10v217.6z"/><path fill-rule="evenodd" clip-rule="evenodd" fill="#464646" d="M355.9 228.7V43.1c0-5.5-4.5-10-10-10H41.7c-5.5 0-10 4.5-10 10v185.6h324.2z"/><path fill-rule="evenodd" clip-rule="evenodd" fill="#98D7FA" d="M53.1 53.6h285.7v157.9H53.1z"/><path fill-rule="evenodd" clip-rule="evenodd" fill="#0088C5" d="M53.1 53.6h285.7V60H53.1z"/><defs><path id="a" d="M53.1 0h285.7v211.5H53.1z"/></defs><clipPath id="b"><use xlink:href="#a" overflow="visible"/></clipPath><g clip-path="url(#b)"><ellipse fill="#E6E6E6" cx="123.3" cy="240" rx="59.3" ry="11.1"/><g fill="#DDD"><path d="M123.7 47.6c-16.9.2-30.5 13.9-30.5 30.8s13.6 30.6 30.5 30.8c16.9-.2 30.6-13.9 30.6-30.8 0-17-13.8-30.7-30.6-30.8z"/><path d="M178.4 119.3c-11.5-22.9-9.9-31.1-9.9-38.9 0-4.3 0-6.5-.1-7.5 0-.5-.1-.8-.1-1.3 0-24.6-18.7-44.6-44.3-45.2h-1c-24.6.7-44.1 20.6-44.1 45.3v8.8c0 7.9 1.6 15.9-9.9 38.9S57.8 161 57.8 161c0 28.3 19.1 74.5 19.1 74.5 12.6 12.6 42.5 12.3 46.7 12.3 4.2.1 34.2.4 46.8-12.3 0 0 19.2-46.2 19.2-74.5 0-.2.2-18.7-11.2-41.7z"/></g><path fill-opacity=".2" d="M131.9 34.5c-8.9-8.9 10.5-5.1 23.6 10.5 6.5 7.9 8.5 21.8 9 28.6 1.2 18.7-1.5 18.4 13.8 57.8 5.2 13.3 6.9 27.8 4.8 42-3.9 27.5-15.2 58.1-16.5 61.4-.1.2-.1.4-.1.5-.1.6-1 2.7-9.7 4.9-1.5.4-2.7-1-2.4-2.4 3.6-13.2 16.6-64.6 10-96.7-7.8-36.9-8.2-18.6-7.9-53.9.4-43.1-13.3-41.4-24.6-52.7z"/><path opacity=".8" fill="#FFF" d="M82.7 207c2.5 1.1 5.1-.9 4.7-3.6-3.6-20.1-6-44.3-2.3-62.3 2.7-12.7 4.5-18.8 5.7-22.9.8-2.7-.2-5.7-2.4-7.4-3.7-2.9-9.1-1.4-10.6 3-2.7 7.4-6.3 17-11.4 29.9-4.5 13.1-1.3 33.6 3.5 51.9.9 3.6 3.3 6.7 6.6 8.5 2 1.1 4.2 2 6.2 2.9zM93.9 45c-5.8 6.9-8 18.5-8.7 25.9-.1.6.2 1.4.6 1.8 1.2 1.3 2.9 2.1 4.3 2.7 1.5.5 3.1-.5 3.2-2.1 2.4-29 13-31.3 24-38.8 10.6-7-10.3-5.1-23.4 10.5z"/><g><ellipse fill="#E6E6E6" cx="264.6" cy="240" rx="59.3" ry="11.1"/><g fill="#C43D23"><path d="M264.8 47.6c-16.9.2-30.5 13.9-30.5 30.8s13.6 30.6 30.5 30.8c16.9-.2 30.6-13.9 30.6-30.8.1-17-13.6-30.7-30.6-30.8z"/><path d="M319.6 119.3c-11.5-22.9-9.9-31.1-9.9-38.9 0-4.3 0-6.5-.1-7.5 0-.5.2-.8.2-1.3 0-24.6-20.3-44.6-44.1-45.2h-1c-25.6.5-44.3 20.5-44.3 45.2 0 .5-.1.8-.1 1.3 0 1.1-.1 3.2-.1 7.5 0 7.9 1.6 15.9-9.9 38.9-11.5 22.9-11.2 41.6-11.2 41.6 0 28.3 19 74.5 19 74.5 12.6 12.6 42.5 12.3 46.7 12.3 4.2.1 34.2.4 46.8-12.3 0 0 19.2-46.2 19.2-74.5.1-.1.2-18.6-11.2-41.6z"/></g><path fill-opacity=".2" d="M273.2 34.5c-8.9-8.9 10.5-5.1 23.6 10.5 6.5 7.9 8.5 21.8 9 28.6 1.2 18.7-1.5 18.4 13.8 57.8 5.2 13.3 6.9 27.8 4.8 42-3.9 27.5-15.2 58.1-16.5 61.4-.1.2-.1.4-.1.5-.1.6-1 2.7-9.7 4.9-1.5.4-2.7-1-2.4-2.4 3.6-13.2 16.6-64.6 10-96.7-7.8-36.9-8.2-18.6-7.9-53.9.3-43.1-13.4-41.4-24.6-52.7z"/><path fill="#FFF" fill-opacity=".5" d="M224 207c2.5 1.1 5.1-.9 4.7-3.6-3.6-20.1-6-44.3-2.3-62.3 2.7-12.7 4.5-18.8 5.7-22.9.8-2.7-.2-5.7-2.4-7.4-3.7-2.9-9.1-1.4-10.6 3-2.7 7.4-6.3 17-11.4 29.9-4.5 13.1-1.3 33.6 3.5 51.9.9 3.6 3.3 6.7 6.6 8.5 1.9 1.1 4.2 2 6.2 2.9zM235.1 45c-5.8 6.9-8 18.5-8.7 25.9-.1.6.2 1.4.6 1.8 1.2 1.3 2.9 2.1 4.3 2.7 1.5.5 3.1-.5 3.2-2.1 2.4-29 13-31.3 24-38.8 10.6-7-10.3-5.1-23.4 10.5z"/></g><path opacity=".15" d="M285.6 246.2c.9-3.7 1.8-7.6 2.7-11.3.3-1.1.4-1.7.4-1.7.5-2.3.9-4.6 1.3-6.9.4-1.4.5-2.6.5-3.3 1.4-8.1 2.1-16 2.1-23.1 0 0 .4-28-16.9-62.5-17.3-34.6-14.9-46.7-14.9-58.5 0-6.5-.1-9.7-.1-11.3 0-.6-.3-1.3-.3-1.9 0-13.4-4-26-10.8-36.5-2.8.9-7.2 3.4-7.2 3.4s-94.2 1.2-98-.7c-3.8-1.9-7.5-3.2-7.5-3.2-7 10.8-10.8 23.1-10.8 37 0 .6.1 1.3.1 1.9v11.3c0 11.8 2.5 24-14.8 58.5s-16.9 62.5-16.9 62.5c0 11.6 2.1 25.1 5.2 38.8 0 0 0 .2.1.4.5 2.3 1.1 4.6 1.6 6.9 0 0 4.4.7 7.1 1 2.8.3 166 .6 170 .2 4-.5 7.1-1 7.1-1z"/><g><ellipse fill="#E6E6E6" cx="190.5" cy="305.2" rx="83.8" ry="15.5"/><path fill="#3F271B" d="M178.2 43.1c-7.3-2.2-4.3-.3-9.2 8.3-3.5 6.3-25.7-7.4-24.8 11 .3 6.2 7.9 22.8-.1 30.4-12.3 11.8-2.4 21.2-5.2 29.5-1.5 4.6-4.9 5.1-4.9 5.1s2 .1 6.4-.9c4.4-.9 6.6-7.5 6.6-7.5s-6.7 9.4-1.8 16c9.7 13.2 31.7 7.8 31.7 7.8s8.3-11.2 10.9-16.4c4.4-8.4-16.2-14.1-21.3-24.1-5.4-10.6-8.2-25.7 4-41.1 11.8-14.8 15.2-20.1 15.2-20.1s3-5.2 8.9 6.1 3.6 17.3 3.6 17.3 7.4-5.3 10.5-7.4c3-2.1 3-3.5 3-3.5s10.4 9.5 9.7 13.3c-.8 3.8-.1 14.9 2.3 24s-17 20.9-17.3 23.6c-.3 2.7-3.4 12.1-3.4 12.1s7.6 8.8 8.8 6.4c1.1-2.3.8.1-.3 3.6-.1.4 21.2 11.7 21.2 11.7s5.3-4.2 5.7-11.7c.5-8.7-5.7-14.3-5.7-14.3s3.4-.8 6.9 2.4c2 1.9 2.4 4.1 3.1 7 0 0 2.6-1.5 5.7-11.6 5.6-18.1-12-34.8-7.4-44.4 4.5-9.6-21.7-16.7-23.8-20.6-2.1-3.9-6.7 9.3-17.9 1.4-10.5-7.4 16.5-12.9-1.8-15.7-13.4-1.9-19.3 2.3-19.3 2.3z"/><path fill="#FFD69D" d="M180 101.8h30.7v42.4H180z"/><path opacity=".2" fill="#010000" d="M213.6 109.1h-30.7v3.3c0 6.9 9.3 11.1 15.6 11.1 6.1 0 15.2-4 15.2-10.7v-3.7z"/><path fill="#FFCE99" d="M229.3 74.4c0 26.5-21.2 48-35.6 48-14.5 0-35.6-21.5-35.6-48s15.9-48 35.6-48c19.6 0 35.6 21.4 35.6 48z"/><path fill="#F27D82" d="M223.6 94.5c-1.9 3.4-6.3 4.5-9.8 2.5-3.5-2-4.9-6.3-3-9.7 1.9-3.4 6.3-4.5 9.8-2.5 3.6 2 4.9 6.3 3 9.7zM176.9 94.5c-1.9 3.4-6.3 4.5-9.8 2.5-3.5-2-4.9-6.3-3-9.7 1.9-3.4 6.3-4.5 9.8-2.5 3.5 2 4.9 6.3 3 9.7z"/><path fill="#FFD69D" d="M161.6 81.6c.1 1.5-1.1 2.8-2.6 2.9h-.3c-1.5.1-2.8-1.1-2.9-2.6l-.8-12c-.1-1.5 1.1-2.8 2.6-2.9h.3c1.5-.1 2.8 1.1 2.9 2.6l.8 12z"/><path opacity=".15" fill="#020303" d="M219 68.9c-.3 0-.6-.1-.8-.4a9.65 9.65 0 0 0-6.3-3.9c-2.6-.4-5.2.2-7.3 1.7-.4.3-1 .2-1.4-.2-.3-.4-.2-1 .2-1.4 2.6-1.8 5.7-2.5 8.7-2 3.1.5 5.8 2.2 7.6 4.7.3.4.2 1-.2 1.4-.1 0-.3.1-.5.1zM167.6 68.9c-.2 0-.4-.1-.6-.2-.4-.3-.5-.9-.2-1.4 1.8-2.5 4.5-4.2 7.6-4.7 3.1-.5 6.2.2 8.7 2 .4.3.5.9.2 1.4-.3.4-.9.5-1.4.2-2.1-1.5-4.7-2.1-7.3-1.7-2.6.4-4.8 1.8-6.4 3.9 0 .4-.3.5-.6.5zM198.3 114c0 .3-2 .5-4.4.5-2.4 0-4.4-.2-4.4-.5s2-.5 4.4-.5c2.4 0 4.4.2 4.4.5z"/><path fill="#F27D82" d="M207.3 100.2c0 4.2-6.1 10.6-13.5 10.6s-13.3-6.1-13.3-10.3c0-1.1 6-.7 13.3-.7 7.4.1 13.5-.7 13.5.4z"/><path fill="#FFF" d="M206.7 100.6c0 3.9-5.9 8.4-12.9 8.4-7.1 0-12.8-4.2-12.8-8.1 0-1 5.7.7 12.8.7 7.1 0 12.9-2 12.9-1z"/><path fill="#3F271B" d="M183.8 19.6c-24.5-3.8-41.3 21.2-40.4 39.6.3 6.2 6.9 30.7 11.5 30.4 14.1-1.2-4.6-19.1 11.4-31 14.9-11 19.8-20.5 19.8-20.5s2.2-2 8.3 9.3c6.1 11.2 2.5 20.4 2.5 20.4s5.6-6.5 6.9-11.4c2-7.2 2.6-10.3 2.6-10.3s11.7 2.6 17.2 16.3c3.4 8.4-.3 15 2.1 24.1 2.4 9.1 12.5-4.5 17.1-14 4.7-9.6 4.9-24.5-6.6-32.4-10.8-7.4-7-18.2-24.1-24-13-4.5-28.3 3.5-28.3 3.5z"/><path fill="#FFF" d="M166.5 72.9c2.1 3.4 5.4 5.8 9.3 6.3 4 .5 7.7-1 10.5-3.8-2.1-3.4-5.4-5.8-9.3-6.3-4-.5-7.7 1-10.5 3.8z"/><path fill="#0A9365" d="M177 70.6c3.6.4 6.7 2.5 8.7 5.4l.6-.6c-2.1-3.4-5.4-5.8-9.3-6.3-4-.5-7.7 1-10.5 3.8l.6.9c2.7-2.4 6.2-3.7 9.9-3.2z"/><path fill="#FFF" d="M218.4 72.9c-2.1 3.5-5.4 6-9.3 6.6-4 .5-7.8-1.1-10.5-4 2.1-3.5 5.4-6 9.3-6.6 3.9-.5 7.7 1 10.5 4z"/><path fill="#0A9365" d="M207.9 70.4c-3.6.5-6.6 2.6-8.7 5.6l-.6-.6c2.1-3.5 5.4-6 9.3-6.6 4-.5 7.8 1.1 10.5 4l-.6.9c-2.7-2.4-6.2-3.8-9.9-3.3z"/><circle fill="#0C7BBF" cx="177.3" cy="75.2" r="2.7"/><path fill="#FFF" d="M177.1 74.4c0 .4-.3.6-.6.6s-.6-.3-.6-.6c0-.4.3-.6.6-.6s.6.2.6.6z"/><g><path fill="#0C7BBF" d="M211.5 75.2c0 1.5-1.2 2.7-2.7 2.7-1.5 0-2.7-1.2-2.7-2.7 0-1.5 1.2-2.7 2.7-2.7 1.5 0 2.7 1.2 2.7 2.7z"/><path fill="#FFF" d="M208.6 74.4c0 .4-.3.6-.6.6-.4 0-.6-.3-.6-.6 0-.4.3-.6.6-.6.3-.1.6.2.6.6z"/></g><path fill="#F27D82" d="M197.8 92.4c0 .7-1.8 1.2-4.1 1.2s-4.1-.5-4.1-1.2 1.8-1.2 4.1-1.2c2.3.1 4.1.6 4.1 1.2z"/><path fill="#289CC9" d="M270.5 134c-16.2-32.5-13.9-43.8-13.9-54.9 0-6-.1-9.1-.1-10.6 0-.6-.4-1.2-.4-1.8 0-34.7-28.1-63-62.8-63.7h-1c-34.7.7-62.3 29-62.3 63.7 0 .6 0 1.2.1 1.8v10.6c0 11.1 2.3 22.4-13.9 54.9s-15.9 58.7-15.9 58.7c0 40 26.9 105.2 26.9 105.2 17.8 17.8 60.1 17.5 65.9 17.3 5.9.2 48.3.5 66.1-17.3 0 0 27.1-65.3 27.1-105.2.2 0 .5-26.3-15.8-58.7zm-77.1-14.4c-23.9-.2-43.2-19.6-43.2-43.5s19.3-43.3 43.2-43.5c23.9.2 43.2 19.6 43.2 43.5s-19.4 43.3-43.2 43.5z"/><path fill-opacity=".2" d="M211.7 15C199.2 2.5 226.6 7.8 245 29.9c9.2 11.1 12 30.7 12.6 40.3 1.6 26.5-2 26 19.6 81.6 7.3 18.8 9.7 39.2 6.9 59.2-5.5 38.9-21.5 82-23.4 86.8-.1.2-.2.5-.2.7-.1.9-1.5 3.9-13.7 6.9-2 .5-3.8-1.4-3.3-3.4 5.1-18.6 23.5-91.3 14.1-136.5-11-52.2-11.6-26.4-11.1-76.2.5-60.7-18.9-58.3-34.8-74.3z"/><path fill="#FFF" fill-opacity=".5" d="M142.3 258.6c3.5 1.6 7.2-1.4 6.6-5-5-28.3-8.5-62.5-3.2-88 3.7-17.9 6.3-26.6 8-32.4 1.1-3.8-.2-8-3.3-10.4h-.1c-5.1-4.1-12.8-1.9-15 4.2-3.7 10.4-8.9 24-16.2 42.2-6.4 18.5-1.8 47.5 4.9 73.3 1.4 5.1 4.7 9.4 9.3 12 3 1.5 6.1 2.8 9 4.1zM158 29.9c-8.1 9.8-11.2 26.1-12.3 36.5-.1 1 .2 1.9.9 2.7 1.6 1.7 4.1 3 6 3.7 2.1.7 4.4-.7 4.6-2.9 3.4-40.9 18.3-44.2 34-54.7C206 5.1 176.4 7.8 158 29.9z"/><g fill="#FFF"><path d="M245.5 258.2h.2c.3.1.7.1 1 0h.2c.3 0 .5-.1.8-.2.1 0 .2-.1.3-.1.3-.1.6-.2 1-.4 1.6-.8 2.6-3 2.6-4.9-.4-.1-.8-.2-1.1-.3H249.6c-.1 0-.2 0-.3.1-.2 0-.4.1-.7.2-.1 0-.2.1-.3.1-.3.1-.6.3-1 .5-2.1.8-3 2.7-2.8 4.6.3.2.7.3 1 .4zM234.6 273.6c.4.4.8.7 1.3 1 .1.1.2.1.3.2.4.3.9.5 1.3.6.5.2.9.2 1.4.3h.4c.5 0 1 0 1.6-.1 1.6-.3 2.6-1.1 3.8-2.3-1.4-1.3-2.9-1.8-5-2-2.2-.1-3.7 1.1-5.1 2.3zM236.8 251c.1.1.3.1.4.2.3.2.5.3.8.4.2.1.3.1.5.2s.5.2.8.2c.2 0 .4.1.6.1.4.1.7.1 1.1.2.1-2.6-.5-4.6-2.6-6.2-.3-.3-.6-.5-.9-.7-.1-.1-.2-.1-.3-.2-.2-.1-.4-.2-.7-.3-.1 0-.2-.1-.4-.1-.2-.1-.5-.1-.7-.2-.1 0-.2 0-.3-.1-.4-.1-.7-.1-1.2-.1.1 2 .5 3.7 1.9 5.6.2.5.6.7 1 1z"/><path d="M242.5 259.4c1.5-6.2 1.3-10.9-1-15.7 1.5 5.1 1.6 9.7.1 14.7-2.6 8.2-7.2 13.5-13.1 14.4l.2 1.1c5.4-.4 11.6-5.8 13.8-14.5z"/><path d="M232.7 264.3l.2.2c.3.2.7.4 1.1.5h.2c.3.1.7.1 1 .1h.4c.4 0 .8-.1 1.3-.2.4-1.6-.3-3.3-1.3-4.7-.2-.2-.3-.4-.5-.5-.1-.1-.1-.1-.2-.1-.1-.1-.2-.2-.4-.3-.1 0-.2-.1-.2-.1-.1-.1-.2-.1-.4-.2-.1 0-.2-.1-.3-.1-.1 0-.3-.1-.4-.1h-1.5c-.4 0-.8.1-1.3.2-.2 1.5.2 3.2 1.3 4.4.4.3.7.6 1 .9zM236.9 220.4h-.2c-.3-.1-.7-.1-1 0h-.2c-.3 0-.5.1-.8.2-.1 0-.2.1-.3.1-.3.1-.6.2-1 .4-1.6.8-2.6 3-2.6 4.9.4.1.8.2 1.1.3H232.8c.1 0 .2 0 .3-.1.2 0 .4-.1.7-.2.1 0 .2-.1.3-.1.3-.1.6-.3 1-.5 2.1-.8 3-2.7 2.8-4.6-.3-.2-.7-.4-1-.4zM247.8 205c-.4-.4-.8-.7-1.3-1-.1-.1-.2-.1-.3-.2-.4-.3-.9-.5-1.3-.6-.5-.2-.9-.2-1.4-.3h-.4c-.5 0-1 0-1.6.1-1.6.3-2.6 1.1-3.8 2.3 1.4 1.3 2.9 1.8 5 2 2.2 0 3.7-1.1 5.1-2.3zM245.6 227.6c-.1-.1-.3-.1-.4-.2-.3-.2-.5-.3-.8-.4-.2-.1-.3-.1-.5-.2s-.5-.2-.8-.2c-.2 0-.4-.1-.6-.1-.4-.1-.7-.1-1.1-.2-.1 2.6.5 4.6 2.6 6.2.3.3.6.5.9.7.1.1.2.1.3.2.2.1.4.2.7.3.1 0 .2.1.4.1.2.1.5.1.7.2.1 0 .2 0 .3.1.4.1.7.1 1.2.1-.1-2-.5-3.7-1.9-5.6-.2-.5-.6-.8-1-1z"/><path d="M239.9 219.1c-1.5 6.2-1.3 10.9 1 15.7-1.5-5.1-1.6-9.7-.1-14.7 2.6-8.2 7.2-13.5 13.1-14.4l-.2-1.1c-5.4.4-11.6 5.9-13.8 14.5z"/><path d="M249.7 214.2l-.2-.2c-.3-.2-.7-.4-1.1-.5h-.2c-.3-.1-.7-.1-1-.1h-.4c-.4 0-.8.1-1.3.2-.4 1.6.3 3.3 1.3 4.7.2.2.3.4.5.5.1.1.1.1.2.1.1.1.2.2.4.3.1 0 .2.1.2.1.1.1.2.1.4.2.1 0 .2.1.3.1.1 0 .3.1.4.1h1.5c.4 0 .8-.1 1.3-.2.2-1.5-.2-3.2-1.3-4.4-.4-.3-.7-.6-1-.9z"/></g><g fill="#FFF"><path d="M246.5 171.3h.2l.9-.3c.1 0 .1-.1.2-.1.2-.1.5-.3.7-.5l.2-.2c.3-.2.5-.5.8-.7 1.2-1.4 1.4-3.7.7-5.6-.4 0-.8.1-1.1.2-.1 0-.2.1-.2.1-.2.1-.5.2-.7.3-.1 0-.2.1-.3.2-.2.1-.4.3-.5.4-.1.1-.2.1-.2.2-.2.2-.5.5-.7.8-1.7 1.5-1.9 3.6-1 5.3.3 0 .6 0 1-.1zM241.7 189.6c.5.2 1 .4 1.6.5.1 0 .3.1.4.1.5.1 1 .1 1.5.1s1-.1 1.4-.3c.1 0 .2-.1.3-.1.5-.2.9-.4 1.4-.7 1.4-.8 2-1.9 2.7-3.5-1.7-.8-3.4-.6-5.4-.1-2 .8-3 2.3-3.9 4zM235.7 167.7c.1 0 .3 0 .4.1.3.1.6.1.9.1h1.3c.2 0 .4-.1.6-.1.4-.1.7-.1 1.1-.2-.8-2.4-2.1-4.2-4.7-4.9-.4-.2-.8-.2-1.1-.3h-1.4c-.2 0-.5.1-.7.1-.1 0-.2 0-.3.1-.4.1-.7.2-1.1.3.8 1.8 1.8 3.3 3.7 4.6.5 0 .9.1 1.3.2z"/><path d="M244.1 173.6c-.8-6.3-2.7-10.6-6.6-14.3 3.2 4.3 4.9 8.5 5.3 13.7.5 8.6-2 15.2-7.1 18.1l.6.9c5-2.3 8.8-9.6 7.8-18.4z"/><path d="M236.7 181.6c.1 0 .2.1.3.1.4.1.8.1 1.2.1h.2c.3 0 .7-.1 1-.2.1 0 .2-.1.3-.1.4-.2.8-.4 1.1-.7-.2-1.6-1.4-3-2.9-4-.2-.1-.4-.2-.7-.3-.1 0-.2 0-.2-.1-.1 0-.3-.1-.4-.1h-1c-.1 0-.3 0-.4.1-.1 0-.2 0-.2.1-.3.1-.7.2-1 .4-.1 0-.1.1-.2.1-.4.2-.7.4-1.1.6.4 1.5 1.3 2.9 2.8 3.6.4.1.8.2 1.2.4zM225 139h-.2l-.9.3c-.1 0-.1.1-.2.1-.2.1-.5.3-.7.5l-.2.2c-.3.2-.5.5-.8.7-1.2 1.4-1.4 3.7-.7 5.6.4 0 .8-.1 1.1-.2.1 0 .2-.1.2-.1.2-.1.5-.2.7-.3.1 0 .2-.1.3-.2.2-.1.4-.3.5-.4.1-.1.2-.1.2-.2.2-.2.5-.5.7-.8 1.7-1.5 1.9-3.6 1-5.3-.3.1-.7.1-1 .1zM229.7 120.8c-.5-.2-1-.4-1.6-.5-.1 0-.3-.1-.4-.1-.5-.1-1-.1-1.5-.1s-1 .1-1.4.3c-.1 0-.2.1-.3.1-.5.2-.9.4-1.4.7-1.4.8-2 1.9-2.7 3.5 1.7.8 3.4.6 5.4.1 2-.8 3-2.4 3.9-4zM235.7 142.7c-.1 0-.3 0-.4-.1-.3-.1-.6-.1-.9-.1h-1.3c-.2 0-.4.1-.6.1-.4.1-.7.1-1.1.2.8 2.4 2.1 4.2 4.7 4.9.4.2.8.2 1.1.3h1.4c.2 0 .5-.1.7-.1.1 0 .2 0 .3-.1.4-.1.7-.2 1.1-.3-.8-1.8-1.8-3.3-3.7-4.6-.4 0-.9-.1-1.3-.2z"/><path d="M227.3 136.8c.8 6.3 2.7 10.6 6.6 14.3-3.2-4.3-4.9-8.5-5.3-13.7-.5-8.6 2-15.2 7.1-18.1l-.6-.9c-4.9 2.2-8.8 9.5-7.8 18.4z"/><path d="M234.7 128.8c-.1 0-.2-.1-.3-.1-.4-.1-.8-.1-1.2-.1h-.2c-.3 0-.7.1-1 .2-.1 0-.2.1-.3.1-.4.2-.8.4-1.1.7.2 1.6 1.4 3 2.9 4 .2.1.4.2.7.3.1 0 .2 0 .2.1.1 0 .3.1.4.1h1c.1 0 .3 0 .4-.1.1 0 .2 0 .2-.1.3-.1.7-.2 1-.4.1 0 .1-.1.2-.1.4-.2.7-.4 1.1-.6-.4-1.5-1.3-2.9-2.8-3.6-.3-.1-.8-.3-1.2-.4z"/></g></g></g></svg>