<svg baseProfile="basic" xmlns="http://www.w3.org/2000/svg" width="295" height="130" viewBox="0 0 295 130"><path fill="#0088C5" d="M71.4 124.2c0 .5-.3.8-1.1.8s-1.3-.3-1.3-.9v-6.7c-.1-1-.6-1-1.6-1h-5.2v6.3c0 1.5-1.4 2.4-2 2.4-.5 0-.4-.9-.4-.9v-14.4c0-.6.5-.9 1.3-.9s1.1.3 1.1.8v4.6c.1 1.1.6 1.1 1.6 1.1H69v-4.1c0-1.5 1.4-2.4 2-2.4.4 0 .4.9.4.9v14.4zM75.4 113c-1.8 4.9 4.7 10.4 5.1 10.4.8-.1 2.1-1.6 2.5-2.7 1.6-4.6-4.8-10.5-5.1-10.5-.9.2-2.1 1.8-2.5 2.8m-2.1 4.1c.1-6.1 4.8-8.1 5.7-8.2.3 0 5.8 1.5 5.7 7.9-.1 6.5-5 8.2-5.4 8.2-.4.1-6.1-1.8-6-7.9M92.5 119.6c-1.1-1.9-3-3-4-3.2v7c0 .4.1.6.3.8.1.1.4.1.8.1h1.7c2.5.1 2.7-2.2 1.2-4.7m-4-4.3c.6 0 3.1-2.5 3.1-4.9 0-.9-1.1-.8-2-.8H89c-.3 0-.5.2-.5.6v5.1zm7.6 7.5c0 1.5-1.4 2.2-3.9 2.2h-4.9c-.8 0-1.2-.3-1.2-.9v-14.7c0-.4.2-.6.7-.6H92c1.5 0 1.8.4 1.8 1.4 0 .6-.5 2-1.7 3.4-1.4 1.5-2.8 2.2-2.8 2.2 1.2.5 2.8 1.1 4.1 2.3 1.9 1.7 2.7 3.6 2.7 4.7M108.9 124.2s-.1.9.4.9c.6 0 2-.9 2-2.4v-12.9c0-.6-.5-.9-1.3-.9s-1.1.3-1.1.8v14.5zm-4.5-4.6c-1.1-1.9-3-3-4-3.2v7c0 .4.1.6.3.7.1.1.4.2.8.2h1.7c2.4.1 2.6-2.2 1.2-4.7m3.6 3.2c0 1.5-1.4 2.3-3.9 2.3h-4.8c-.8 0-1.2-.3-1.2-.9v-14.4c0-.6.5-.9 1.2-.9.8 0 1.1.3 1.1.8v5.7c1.4.6 3.2 1.2 4.9 2.6 1.9 1.8 2.7 3.6 2.7 4.8M117.2 106.5c0-.4.2-.8.6-1 .2-.1.4-.1.5-.1.1 0 .4 0 .6.2.2.2.2.5 0 .6l-.2.1c-.2.1-.4.3-.4.6s.2 1 1.5 1 1.5-.7 1.5-1c0-.3-.2-.5-.4-.6l-.3-.1c-.1 0-.1-.4 0-.6.2-.2.5-.2.6-.2.3 0 .6.1.8.4.2.2.3.5.3.8 0 .5-.5 1.8-2.6 1.8s-2.5-1.4-2.5-1.9m8.1 17.7s.1.9-.4.9c-.6 0-2-.9-2-2.4v-7.3c-.2.6-.8 2.8-2.6 5.4-2 2.9-4.3 4.3-5.1 4.3h-.3c-.8 0-1.3-.3-1.3-.9v-12.9c0-1.5 1.4-2.4 2-2.4.5 0 .4.9.4.9v12.7s2-.1 4.2-3.1c2.5-3.4 2.7-6.1 2.7-8.9v-.8c0-.6.5-.9 1.3-.9s1.1.3 1.1.8v14.6zM136.9 124.1h8l-4.4-11.6c-.8 2-2.5 7.4-3.6 11.6m12.3 1.3c0 .9-.3 3-.5 3.4-.2.7-.7.8-1.4.8-.8 0-1.1-.3-1-.8.1-.6.4-2.4.4-3.3 0-.3-.2-.4-.7-.4h-9.8c-.5 0-.7.1-.7.4 0 .9.3 2.7.4 3.3.1.5-.2.8-1 .8-.7 0-1.2 0-1.4-.8-.1-.4-.4-2.5-.4-3.4 0-.7.5-1.3 1.5-1.3h.2c.1-.5.6-1.8 1.6-4.2.5-1.1 3-6.9 3.6-8 .5-1.1-.6-1.9-1.3-2-.5-.1-.7-.3-.7-.6s.7-.4 2.1-.4c1 0 2 .5 2.6 1.8 1.7 3.8 4.3 11.5 5 13.4h.2c.8 0 1.3.6 1.3 1.3M152.7 113c-1.8 4.9 4.7 10.4 5.1 10.4.8-.1 2.1-1.6 2.5-2.7 1.6-4.6-4.8-10.5-5.2-10.5-.8.2-2 1.8-2.4 2.8m-2.1 4.1c.1-6.1 4.8-8.1 5.7-8.2.3 0 5.8 1.5 5.7 7.9-.1 6.5-5 8.2-5.4 8.2-.4.1-6.1-1.8-6-7.9M178.4 124.2s.1.9-.4.9c-.6 0-2-.9-2-2.4v-10.3c-.5 4.5-1.8 12.7-4.9 12.7-3.1 0-4.4-8.2-4.9-12.7v10.3c0 1.5-1.4 2.4-2 2.4-.5 0-.4-.9-.4-.9v-14.4c0-.5.4-.8 1.1-.9h1c.2 0 .7.2.8.7 0 0 1.4 12.2 4.3 12.2 3 0 4.3-12.2 4.3-12.2.1-.5.6-.7.8-.7h1c.8 0 1.1.3 1.1.8l.2 14.5zM191 121c-1.5 3.1-4.3 4-4.6 4.1-.5 0-6.1-1.8-6-8 .1-6.1 4.8-8.1 5.7-8.2.2 0 2.7.4 4.3 3.2 0 0 .3.6-.1 1.3-.4.5-.4.6-.8 1.2s-.9-.5-1.6-1.5c-1.3-1.9-2.8-2.8-3-2.7-.7.1-2 1.7-2.4 2.8-.3.8-.4 1.6-.3 2.4h5.1c.4 0 .7.1.8.3.1.1.2.5.2.8.1 1.2 0 1.3-.2 1.3-.1 0-.4-.2-.6-.5-.7-.9-1.2-.9-1.9-.9h-3.1c.9 3.7 4.9 7 5.2 7 .8-.1 1.9-1.3 2.3-2.5 0-.1.1-.7.7-.7.7-.2.3.6.3.6M204.6 124.2c0 .5-.3.8-1.1.8s-1.3-.3-1.3-.9v-6.7c-.1-1-.6-1-1.6-1h-5.2v6.3c0 1.5-1.4 2.4-2 2.4-.5 0-.4-.9-.4-.9v-14.4c0-.6.5-.9 1.3-.9s1.1.3 1.1.8v4.6c.1 1.1.6 1.1 1.6 1.1h5.2v-4.1c0-1.5 1.4-2.4 2-2.4.5 0 .4.9.4.9v14.4zM219.8 109.6h-1.6c-.4 0-.7 0-.8.1-.2.1-.3.4-.3.8v7.1c1-.2 2.9-1.3 4-3.2 1.4-2.5 1.2-4.8-1.3-4.8m4.9 1.6c0 1.1-.8 3-2.7 4.7-1.7 1.4-3.5 2-4.9 2.6v4.2c0 1.5-1.4 2.4-1.9 2.4s-.4-.8-.4-.8v-14.5c0-.6.4-.9 1.3-.9h4.8c2.4 0 3.8.8 3.8 2.3M238.9 109.6c-.6 1.9-3.2 9.8-5 13.7-.6 1.3-1.6 1.8-2.6 1.8-1.4 0-2.1-.1-2.1-.4 0-.3.2-.5.7-.5.5-.1 1.1-.5 1.4-1 .1-.3 1.3-3.5 1.3-3.5l-2.8-5.6c-1.2-2.6-1.9-3.8-3.1-4-.5-.1-.6-.4-.6-.6 0-.3.7-.4 2.1-.4 1 0 1.5.5 2.1 1.8.2.4 2.8 7.6 2.8 7.6l3.2-8.8c.1-.4.3-.7 1.1-.7s1.6.2 1.5.6M252.5 124.2c0 .5-.3.8-1.1.8s-1.3-.3-1.3-.9v-6.7c-.1-1-.6-1-1.6-1h-5.2v6.3c0 1.5-1.4 2.4-2 2.4-.5 0-.4-.9-.4-.9v-14.4c0-.6.5-.9 1.3-.9s1.1.3 1.1.8v4.6c.1 1.1.6 1.1 1.6 1.1h5.2v-4.1c0-1.5 1.4-2.4 2-2.4.5 0 .4.9.4.9v14.4zM265 121c-1.5 3.1-4.3 4-4.6 4.1-.5 0-6.1-1.8-6-8 .1-6.1 4.8-8.1 5.7-8.2.2 0 2.7.4 4.3 3.2 0 0 .3.6-.1 1.3-.4.5-.4.6-.8 1.2s-.9-.5-1.6-1.5c-1.3-1.9-2.8-2.8-3-2.7-.7.1-2 1.7-2.4 2.8-.3.8-.4 1.6-.3 2.4h5.1c.4 0 .7.1.8.3.1.1.2.5.2.8.1 1.2 0 1.3-.2 1.3-.1 0-.4-.2-.6-.5-.7-.9-1.2-.9-1.9-.9h-3.1c.9 3.7 4.9 7 5.2 7 .8-.1 1.9-1.3 2.3-2.5 0-.1.1-.7.7-.7.7-.2.3.6.3.6M279.8 110.7c0 2.3-.2 2.8-.6 2.8-.2 0-.6-.6-.9-1.4-.7-1.8-1-2.6-2.3-2.6h-.5c-.5 0-.9.1-1 .3-.1.2-.2.6-.2 1.1v11.7c0 1.5-1.4 2.4-2 2.4-.4 0-.4-.9-.4-.9V111c0-.5-.1-.9-.2-1.1-.2-.2-.5-.3-1-.3h-.5c-1.3 0-1.6.8-2.3 2.6-.3.7-.6 1.4-.9 1.4-.4 0-.6-.5-.6-2.8 0-.6.1-1.1.2-1.3.2-.3.6-.5 1.2-.5h10.4c.6 0 1 .2 1.2.5.3.1.4.6.4 1.2M287.1 112.5c-.8 2-1.8 4.9-2.8 8.9 0 0 1.1.4 2.8-.7 1.6-1.1 1.9-3.2 1.9-3.2l-1.9-5zm6.7 12.6h-1.4c-.4 0-.8-.3-1-1l-2-5.3s-.1 2.1-2.5 4.4c-1.6 1.6-4.1 1.9-4.9 1.9-.5 0-.8-.2-.8-.6 0-.4.5-1.9 1.6-4.5.5-1.1 3.1-6.9 3.6-8 .5-1-.6-1.9-1.3-2-.5-.1-.7-.3-.7-.5 0-.3.7-.4 2.1-.4 1 0 2 .5 2.6 1.8 2 4.4 5.2 14 5.2 14 0 .1-.2.2-.5.2"/><path fill="#005F9B" d="M121.7 27.3l-.5-.2-.5-.2c-.2.1-.4.2-.5.3h1.1l.4.1zM156.5 24.2c-.4.3-.8.6-1.3.9-.1.1-.3.1-.4.2-.3.1-.6.3-1 .4-.2.1-.4.1-.6.1-.3.1-.6.1-1 .2h-2c0-.2-.1-.4-.1-.6-.4-2.8 0-5 2.2-6.5.4-.3.8-.5 1.1-.7.1-.1.2-.1.4-.1.3-.1.5-.2.8-.3.1 0 .3-.1.4-.1.3 0 .6-.1.9-.1h1.9c.1 2.2-.1 4.1-1.1 6 0 .2-.1.4-.2.6m4.8-3.9c-2-3.9-4.7-7-7.9-9.3-4.3 1.9-8.6 3.8-12.9 5.9l5.8 9.5 2.3 3.8c4.7-2 9.5-3.9 14.3-5.7-.2-.7-.4-1.5-.7-2.2-.3-.7-.6-1.3-.9-2M198 5.4h1.8c1.5 0 5.8 1.6 6.2 5.5v.7c2.8-.6 5.6-1.2 8.4-1.7.6-.6 1.2-1.1 1.8-1.6 1.8-1.5 3.6-2.4 5.6-2.7.3-.2.6-.5.9-.7V2H198v3.4zM258 0c-8.1 0-16.3 1.6-23.5 4.8-1.9.8-3.7 1.8-5.5 2.9 1.5-.2 3-.3 4.5-.5.6-.2 1.3-.4 2-.5.9 0 1.8 0 2.6.2.9-.1 1.8-.1 2.6-.2 3.1-.2 6.1-.3 9.2-.4.7-.1 1.3-.3 2-.3v.3h4c2.6-2 6-2.3 10.2-2.3 1.8 0 8.5.9 8.9 3.6 4.5.5 9.1 1.3 13.6 2.2C283.7 4.1 274.2 0 258 0M165.7 10.1l-7.2-1.3c-.1 0-.2.1-.4.2l3.7 1.3 3.9-.2zM166.3 20.3l1.1.6 2.1 1.2c.4-.1.8-.3 1.1-.4l-2.8-.9-1.5-.5z"/><path fill="#005F9B" d="M151.2 24.7l1.8-1.9 1.7-1.8 1.9-2.1-3 2zM162.8 7.1c2 .7 3.5 1.9 5.1 3.3-.5.4-1 .7-1.5 1-.1.1-.3.1-.4.2-.5.2-1 .4-1.6.6-.4.1-.8.1-1.2.1h-1c-.6-.1-1.3-.2-1.9-.4-1.4-.4-2.6-1.1-3.7-2.1-.4.2-.8.3-1.2.5 3.2 2.4 5.8 5.6 7.5 9.4.3.8.6 1.5.9 2.3l.6 2.1c.9-.4 1.9-.7 2.8-1-.6-.4-1.1-1-1.5-1.5-.5-.7-1-1.4-1.3-2.2.3-.3.7-.4 1.1-.6.1 0 .3 0 .4-.1.3-.1.5-.1.8-.1h1.3c.5.1 1 .1 1.5.2.9.2 1.8.5 2.6 1 .5.3.9.6 1.3 1 2.2-.7 4.4-1.5 6.6-2.2l-.5-.8-7.6-12.4h8.3V2h-3.4c-4.9 1.6-9.5 3.3-14 5.1M54.7 71.4l.6 1.7.5 1.4 2.5 2.7.4.4-.4-.6-2.2-3.8-1.2-2-.6-1-.3-.5.3.8zM129 22.5c-2.3 1.2-4.5 2.3-6.8 3.5.4.6.6 1.3.7 2.1-.4.3-.8.5-1.2.7-.1 0-.2.1-.2.1l-1.2.3H118.6c-.4 0-.8-.1-1.3-.2-.1 0-.2-.1-.3-.1-7.7 4.2-15.2 8.6-22.6 13.1v6c-.1 4.4-.3 7.7-.8 9.9 4.8-2.8 9.7-5.5 14.6-8.2H106.9c-.3 0-.6-.1-.9-.2-.2 0-.3-.1-.5-.1l-.9-.3c-.1-.1-.3-.1-.4-.2-.4-.2-.9-.4-1.3-.7-1.4-.9-2.4-2-3-3.4-.5-1-.8-2.1-.9-3.4h1.3c.3 0 .5 0 .8.1.3 0 .7.1 1 .2.2 0 .4.1.7.2.4.1.7.3 1 .4.1 0 .2.1.3.1.1 0 .1 0 .2.1l1.5.9c1.8 1.8 2.7 3.8 3 6.1.7-.4 1.5-.8 2.2-1.2.3-3.1-.2-6-1.8-8.9-.2-.5-.5-.9-.8-1.4.4.4.7.8 1.1 1.2 2 2.5 2.9 5.2 2.9 8.4.4-.2.9-.5 1.3-.7.5-2.2 1.4-3.9 3.5-4.5.7-.1 1.3-.2 2-.2h1.2c.4.1.9.2 1.3.3.1 0 .2.1.3.1 2.9-1.5 5.9-2.9 8.8-4.3.1-1 .1-1.9.1-2.9 0-1.6-.1-3.3-.3-4.9-.3-2.7-.8-5.4-1.6-8"/><path fill="#005F9B" d="M100.9 42.9l-.3-.3.3.4.7.8 2.1 2.7 3.2 1.7.5.3-.3-.3-5.3-4.5z"/><g fill="#005F9B"><path d="M54.7 76.2c-.9-1.1-1.5-2.2-1.7-3.3 0-.2 0-.3-.1-.5-.1-.9-.1-1.9 0-2.9-1.3.9-2.6 1.8-3.8 2.7-.5.4-1 .7-1.5 1.1V80c1.6 1.1 3 2.4 4.4 3.8 2.3-1.5 4.7-3.1 7.1-4.6-1.9-.7-3.2-1.3-4.4-3M65.2 65.2c0-1.4-.1-2.7-.2-4-3.6 2.4-7.1 4.9-10.5 7.3 1 .4 1.8.9 2.6 1.5.7.6 1.3 1.3 1.8 2.1.2.5.4 1 .5 1.5.5 1.9.5 3.5.3 5.3 1.1-.7 2.1-1.4 3.2-2.1.3-.8.7-1.7.9-2.6.4-1.4.8-2.8 1-4.3.2-.9.3-1.8.3-2.6.1-.8.1-1.5.1-2.1M39.2 80.5l-.9-.3c-1.8 1.3-3.6 2.7-5.4 4-3.5 2.6-6.9 5.1-10.2 7.7-.8 2.3-2.9 4-5.5 4.2-1.1.8-2.1 1.6-3.1 2.4-3 2.3-6 4.6-8.9 6.8.1 3.2.8 6.3 2 9.1.1 0 .1-.1.2-.2 12.6-8.7 26.4-18.3 41-28l-.7-.7c-2.5-2.2-5.4-3.9-8.5-5M73.8 68.2c-.1 0-.2 0-.3.1-.3.1-.6.1-.9.2-.1 0-.2 0-.2.1H71.2c-.3 0-.6-.1-.9-.1-.1 0-.3 0-.4-.1-.4-.1-.9-.3-1.3-.6v-.1c.4-2.4 2.1-4.5 4.2-5.1.4-.1.9-.2 1.3-.2H75.7c.4 0 .8.1 1.2.3.1 0 .2.1.2.1.4.2.8.4 1.2.7-.3 2.5-2 4.3-4.5 4.7m8.6-13.1c-.4-1.5-.7-3.1-.8-5C76.3 53.6 71 57 65.8 60.6c.2 1 .3 2 .4 3v3.8c-.1 1-.1 2.1-.3 3.2-.1.9-.3 1.8-.5 2.6l-.3 1.2c-.1.4-.2.8-.3 1.1 5.4-3.4 10.9-6.9 16.6-10.3V61c.5.6 1 1.2 1.5 1.7.3.4.6.7.9 1 .9-.5 1.8-1.1 2.7-1.6-1.8-1.2-3.2-3.6-4.1-7"/></g><path fill="#005F9B" d="M74.1 64.5h-.5l-3.2 2.1-.1.1.1-.1 3.5-1.1 2.6-.9.5-.2h-.4z"/><path fill="#0088C5" d="M246.3 29.4H245c-.3 0-.5 0-.8-.1-.3 0-.6-.1-1-.2-.2 0-.4-.1-.6-.1-.3-.1-.6-.2-.9-.4-.1-.1-.3-.1-.5-.2-.4-.2-.9-.5-1.3-.9-.4-.5-.6-.9-.9-1.4-.8-1.6-1.1-3.2-1.1-5.1H239.7c.3 0 .6.1.9.1.1 0 .3.1.4.1.3.1.5.2.8.3.1 0 .2.1.4.1.4.2.7.4 1.1.7 1.7 1 2.5 2.3 2.9 3.8.2 1 .2 2.1.1 3.3m-15.2-3.2c-.9 1-2.1 1.8-3.3 2.1-.5.1-.9.2-1.4.2H224.8c-.4 0-.8-.1-1.1-.3-.1 0-.1-.1-.2-.1-.4-.2-.7-.4-1.1-.7.1-.5.4-.9.6-1.3 1-1.8 2.6-3.1 4.8-3.4l1.5-.3H230.5c.3 0 .6.1.9.1.1 0 .3 0 .4.1.4.1.8.3 1.2.6-.4 1.1-1.1 2.1-1.9 3m21-19c-1.6.3-3.1.8-4.6 1.4-5 2.2-8.9 6.1-11.2 11.7-.9 2.1-1.3 4-1.4 5.8-.1 2.3.4 4.5 1.4 6.8-1.7-2.1-2.5-4.3-2.5-6.8-.1-2 .3-4.1 1.1-6.5 1.9-5.2 5.5-9.3 10.2-11.7 1.5-.7 3.1-1.3 4.8-1.7-3.1 0-6.1.2-9.2.4-.9.1-1.8.1-2.6.2 1.4.2 2.5.6 3.5 1.6-1.6 1.7-3 2.7-4.8 3.4-.7.2-1.3.3-2 .4h-1.1c-.4 0-.8 0-1.2-.1h-.1c-.5-.1-1.1-.3-1.6-.5-.1-.1-.3-.1-.4-.2-.5-.3-1-.6-1.5-1 1.4-1.3 2.7-2.5 4.5-3.2-1.5.1-3 .3-4.5.5-.1.1-.3.2-.4.3-1.6 1-3.1 2.1-4.5 3.3-4.5 3.9-7.9 8.9-9.7 14.9-.8 2.6-1.2 5.3-1.4 8.3 11.9-.9 24.3-.8 37 .7-.1-3.3-.1-6.3 0-9 .3-7.6 1.2-12.6 2.8-15.9.8-1.8 1.9-3 3.1-4h-4l.3.9z"/><path fill="#0088C5" d="M223.9 26.6l3.4-.2.5-.2 3.2-1.9-5.8 1.9z"/><g fill="#0088C5"><path d="M86.8 75v3.5c1.9-1 3.9-2 5.8-3.1-2-.7-4-1.6-5.8-2.8V75zM278.2 20.9c-1.8 0-3.1 1.4-3.1 3 0 .9.3 1.7.9 2.3.6.5 1.3.9 2.2.9.8 0 1.5-.3 2.1-.9.6-.6 1-1.4 1-2.3 0-1.6-1.4-3-3.1-3"/></g><path fill="#0088C5" d="M239.8 8.5l-8.7 1.6 3.7.1z"/><g fill="#0088C5"><path d="M51 89.2c-.8-1.1-1.7-2.1-2.7-3-14.6 9.7-28.4 19.3-41 28-.1.1-.1.1-.2.1.2.5.4 1 .7 1.4 15.5-5.1 31-12.3 46.7-20.3-.7-1.9-1.7-3.8-2.8-5.5-.3-.1-.5-.4-.7-.7M284.4 25.7c-.6 0-1.4-.1-1.8-.4 0-.1-.3-.3-.4-.3-.1 0-.1 0-.1.1 0 .3.4.3.6.4.5 0 .9.3 1.3.6.9.7 1.5 1.8 1.5 2.8 0 2-1.6 3.7-3.4 3.7-2.1 0-3.7-1.7-3.7-3.8v-.6c0-.1 0-.4-.1-.4s-.3.3-.3.4c0 .1.1.4.1.6 0 .7-.3 1.6-.6 2.3-.9.9-2 1.6-3 1.6-2 0-3.7-1.7-3.7-3.8 0-1 .4-1.8 1.3-2.6.1 0 .2-.1.2-.1.4-.3 1-.6 1.5-.7.1 0 .6-.1.6-.4h-.1c-.3 0-1 .4-2.1.4-2 0-3.6-1.6-3.6-3.6 0-1.8 1.6-3.6 3.6-3.6 2.6 0 3.1 2.4 3.7 2.4 0 0 .1 0 .1-.1 0-.3-1.3-1.1-1.3-3 0-.3.1-.6.1-.9.4-1.5 1.9-2.5 3.4-2.5 1.9 0 3.6 1.6 3.6 3.4 0 .3-.1.7-.2 1.1-.2.6-.5 1.2-.8 1.5-.1.1-.3.3-.1.6.1 0 .4-.3.4-.4.2-.6.8-1 1.5-1.3.5-.2 1.1-.4 1.6-.4 1.4 0 2.6.7 3.2 1.8.2.5.4 1 .4 1.6-.1 1.8-1.4 3.6-3.4 3.6m9.2-3.4c-.1-4.4-1.5-8.8-4.9-12.6-4.5-.9-9.1-1.6-13.6-2.2v.2c0 .8-1.7 1.6-2.3 1.8-2.7 1.3-5 2.7-6.7 4.5-2.4 2.5-3.8 5.6-3.8 10.1 0 .6.1 1.2.2 1.8 1 7.4 7.4 12.7 15 12.7 8.3 0 14.5-4.9 15.8-12.7.2-1 .3-2 .3-3.1v-.5"/></g><path fill="#0088C5" d="M242.5 24.3l-3.4-2 2.5 2.4L243 26l.1.2 2.1 1.9-1.4-1.9z"/><g fill="#0088C5"><path d="M64 78c-1.5 3.8-3.7 6.8-6.3 9-.7.5-1.3 1.1-2 1.5 1 1.6 1.9 3.3 2.6 5.1l6.9-3.6c-1.9-.1-3.6-.5-5.1-1.7 1.3-1.7 2.4-2.8 4.3-3.4.6-.2 1.2-.3 1.9-.4h.4c.6 0 1.2 0 1.8.1h.1c.6.1 1.1.3 1.7.5.2.1.3.1.4.2.5.3 1.1.6 1.6.9 3.1-1.6 6.1-3.3 9.2-4.9V65.1c-5.6 3.4-11.1 6.8-16.6 10.3-.3.9-.6 1.8-.9 2.6"/><path d="M62.8 76.7c-1.1.7-2.2 1.4-3.2 2.1 0 .2 0 .3-.1.5-.2-.1-.3-.1-.5-.2-2.4 1.5-4.8 3.1-7.1 4.6 1 1 1.9 2.1 2.7 3.2 3.6-2 6.4-5.5 8.2-10.2M173.5 22.6l-3-.9c-.4.1-.8.3-1.1.4l.7.4 3.4.1zM206.1 11.5c0 1.3-.4 2.8-1.5 4.5l-6 10.1-4.8 8-1.8 3c1.9-.3 3.8-.7 5.7-1l6-10.1 4.8-8.1c1.7-2.9 3.7-5.9 6-8.2-2.8.7-5.6 1.2-8.4 1.8M116.7 62.3c-.6.2-1.2.3-1.8.4h-1.1c-.3 0-.6 0-1-.1h-.2c-.6-.1-1.2-.3-1.7-.5-.1-.1-.3-.1-.4-.2-.6-.3-1.2-.6-1.7-1 1.6-2 3.1-3.3 5.8-3.8 2.6 0 4.8.1 6.8 1.3-1.4 1.9-2.7 3.1-4.7 3.9m5.3-19.7c.4.2.8.4 1.2.7-.3 2.4-1.7 4.1-4.1 4.8-.5.2-.9.3-1.3.4h-1.1c-.4 0-.8-.1-1.1-.2-.2 0-.3-.1-.5-.1-.5-.2-1-.4-1.4-.7 0-.3.1-.5.1-.7-.4.2-.9.5-1.3.7 0 1.1-.1 2.3-.3 3.6-1.3 7.4-6.7 12.6-14.5 13.7l-.6-1.3c7-1.4 11.8-6 13.6-13.2.2-.7.3-1.4.3-2-.7.4-1.5.8-2.2 1.2v.3H107.6h.7c-4.9 2.7-9.8 5.4-14.6 8.2-.8 3.8-2.3 5-4.4 5-1 0-1.9-.3-2.7-.9-.9.5-1.8 1.1-2.7 1.6 4.5 4.7 9.8 7.4 16.6 7.6 7.6-3.9 15.4-7.8 23.3-11.4 4.3-6 6.6-13.7 7-21.7-2.9 1.5-5.9 2.9-8.8 4.4M170.6 39.4l-2.7-1.5L171 41l2.4.3c.2-.1.5-.1.7-.2l-2-1-1.5-.7z"/></g><path fill="#0088C5" d="M115.3 46.6l6.1-2.2.7-.2h-.6l-2.8.1-3.4 2.3zM66.5 86.4l-4 1.5-.5.2.7-.1 7.2-1.4h.4-.3zM173.2 20.8c.8.7 1.4 1.6 1.8 2.7-.3.3-.7.5-1 .7-.1 0-.1.1-.2.1-.3.2-.7.2-1.1.3h-1.6c-.4 0-.9-.1-1.4-.2-.9-.2-1.8-.7-2.7-1.4-.9.3-1.9.7-2.8 1 .7 3.4.2 6.3-1.8 9 .9-2.9 1.1-5.6.4-8.5-4.8 1.8-9.5 3.7-14.3 5.7l9.6 15.8c3.8-1.3 7.6-2.5 11.4-3.6-1.8-1-2.9-2.6-3.5-5.2.7-.3 1.3-.5 1.9-.6.2 0 .4-.1.5-.1.4-.1.8-.1 1.2-.1.3 0 .6 0 1 .1h.5c.5.1 1 .2 1.6.4 1.4.9 2.4 2.3 3 3.8l3.6-.9c0-.2 0-.3.1-.5.6-4.8-.6-8.5-3.3-11.9 3.6 2.7 4.8 6.4 4.6 12.1 3.4-.8 6.9-1.6 10.4-2.2l-11.5-18.7c-2 .7-4.2 1.4-6.4 2.2M110.9 60.8l.4-.1 7.4-1.5.5-.1h-.4l-3.7-.1-3.9 1.7zM106.7 23.4l.5-.4-.5.3-3.2 1.7-2.9 3.2-.5.7.4-.4zM53 69.5l.3-1.5c.4.1.8.3 1.1.4 3.5-2.4 7-4.9 10.5-7.3-.3-2.1-.8-4.2-1.5-6.3-.7.6-1.4 1.1-2.1 1.7.9 1.4 1.3 2.9 1.6 4.5H61.1c-.3 0-.6 0-.9-.1-.2 0-.3-.1-.4-.1l-.9-.3c-.1 0-.3-.1-.4-.1-.4-.2-.8-.4-1.2-.7-3.2 2.6-6.5 5.1-9.7 7.6v5.9c.5-.4 1-.7 1.5-1.1 1.3-.7 2.6-1.7 3.9-2.6"/><path fill="#0088C5" d="M61.5 59.8l-.5-.4-1.6-1.3c-.1.1-.3.2-.4.4l2.1 1.1.4.2zM81.4 40.7c-5.9 4.6-11.7 9.3-17.5 13.8.2.4.3.7.5 1.1.7 1.6 1.1 3.3 1.4 5 5.2-3.5 10.4-7 15.8-10.5-.1-1.2-.2-2.5-.2-3.9v-5.5zM120.6 26.9L115 25h-.1l.1.1 3.2 2.1 1.8.1c.3-.2.4-.3.6-.4"/><path fill="#0088C5" d="M113.1 23.9c.5-.3.9-.5 1.3-.6.2 0 .3-.1.4-.1.3-.1.6-.1.9-.1H116.9c.4.1.9.2 1.4.3 1.8.3 3.1 1.3 3.9 2.6 2.3-1.2 4.5-2.4 6.8-3.5-.5-1.7-1.2-3.4-1.9-5.1-1-2.2-2.2-4.3-3.6-6.2l-.9-1.2c-3.8 2.6-7.6 5.3-11.3 8 .2.7.4 1.5.6 2.3.3 1.4.4 2.7.3 3.9-.1 3.6-1.4 6.6-4.2 9.4 1.8-3 2.7-5.8 2.7-8.8 0-1.2-.1-2.5-.5-3.9-.2-.6-.3-1.3-.6-1.9-1.2.9-2.4 1.7-3.6 2.6.2 0 .4-.1.6-.1H108.4c-.3 1.8-.8 3.4-1.9 5-.3.5-.8 1-1.2 1.5l-1.5.9c-.2.1-.3.1-.5.2-.3.1-.7.3-1 .4-.2.1-.4.1-.7.1-.3.1-.6.1-1 .2-.2 0-.5 0-.8.1h-1.3c.1-1.3.4-2.4.8-3.4-1.7 1.3-3.4 2.5-5.1 3.8V42c7.4-4.5 14.9-8.9 22.6-13.1-1.7-.7-3.3-2.7-3.7-5M147.7 8.1c-1.1-.4-2.2-.7-3.3-.9V6c1.8.2 3.6.6 5.3 1.2 2 .7 3.9 1.7 5.6 3 .4-.2.8-.3 1.2-.5-.5-.4-.9-.8-1.4-1.3 1.4-1.4 3.4-1.7 6-1.7.6.1 1.2.2 1.7.4 4.6-1.8 9.1-3.5 13.8-5.1h-41.7c-1.8 1.1-3.5 2.3-5.3 3.4h3.9l4.4 7.2 2.6 4.3c4.3-2 8.6-4 12.9-5.9-1.8-1.2-3.7-2.2-5.7-2.9M23 90c0 .7-.1 1.3-.3 1.9 3.3-2.5 6.7-5.1 10.2-7.7 1.8-1.3 3.6-2.7 5.4-4-1.8-.6-3.7-1-5.7-1.1-3.5 2.6-7 5.2-10.4 7.7A6.207 6.207 0 1 1 23 90"/><path fill="#0088C5" d="M158.6 8.8l-1.7-.3 1.3.4c.1 0 .2 0 .4-.1M17.1 96h-.4c-1 0-2-.3-2.9-.7-.7-.4-1.3-.9-1.9-1.5-2 1.3-4 2.7-6 3.9-.2.8-.4 1.7-.6 2.5v.2c-.2 1.3-.3 2.6-.3 3.9v.9c3-2.2 6-4.5 9-6.8 1-.8 2.1-1.6 3.1-2.4"/><path fill="#004C83" d="M41.1 64.1c-1.5-.1-3-.1-4.4-.1-1.3 0-2.6 0-3.8.2-2.2.2-4.4.5-6.4 1-1.9.4-3.8 1-5.5 1.7-.9.3-1.7.7-2.6 1.1-3.6 1.7-6.7 4-9.4 6.6-2.7 2.7-4.8 5.8-6.3 9.2C1.5 86.5.6 89.5.2 92.6c-.1.9-.2 1.8-.3 2.8.1-1 .3-2 .5-2.9.9-3.5 2.4-6.5 4.5-9 4.3-5.9 12.2-11.8 26.8-12 1.9 0 3.9 0 6.1.2 1.3 0 2.7.1 4.2.2h.7V64.2h-.1c-.5 0-1 0-1.5-.1M109.8 9.4l-.8-.2.5.2 4.1 1.5 3.4-.1h.4l-.4-.1z"/><g fill="#004C83"><path d="M117.7 12.1c-.1.1-.3.1-.4.2-.6.2-1.1.4-1.7.6-.4.1-.8.1-1.2.1h-.9c-.6-.1-1.2-.2-1.9-.4-1.7-.5-2.8-1.5-3.9-3-.1-.1-.2-.3-.3-.4 1.1-.9 2.3-1.3 3.6-1.5.9-.1 1.8-.2 2.8-.2 2.7.4 4.3 2 5.8 3.7-.8.3-1.3.6-1.9.9m-1.3-7.8c-2.5-1.7-5.3-2.9-8.4-3.6-2.8 2.1-5.7 4.2-8.5 6.4 2.5.6 4.8 1.7 6.6 3.2 2.4 2 4.2 4.6 5.1 7.7 3.7-2.7 7.5-5.3 11.3-8-.9-1.1-1.8-2.1-2.8-3.1-1-.9-2.1-1.8-3.3-2.6"/><path d="M104.4 11.4c-1.8-1.4-3.9-2.5-6.3-3.1-1.5 1.1-3 2.3-4.5 3.4.6 1.5.8 3.5.9 5.8.1 2 .1 4.2.1 6.5v6.5c1.7-1.3 3.4-2.6 5.1-3.8.6-1.5 1.6-2.7 3.3-3.7.4-.3.8-.5 1.2-.7.1-.1.3-.1.4-.1l.9-.3c.1 0 .3-.1.4-.1h.3c1.2-.9 2.4-1.8 3.6-2.6-1.2-3.3-3-5.9-5.4-7.8"/></g><path fill="#004C83" d="M65.7 38.8l-.5-.4.6.6 2.8 3.2 3.3 1.8.4.2-.4-.4z"/><g><path fill="#004C83" d="M54.9 54.4l-.5-.4.5.6.7.8 2.1 2.4 1.1.6c.1-.1.3-.2.4-.4L56 55.3l-1.1-.9zM125.6 2v3.4h4c1.7-1.1 3.5-2.3 5.3-3.4h-9.3zM15.9 83.6c.3 0 .6-.1.9-.1 2.3 0 4.4 1.3 5.4 3.2 3.5-2.5 6.9-5 10.4-7.7-.7-.1-1.3-.1-2-.1-5.5.1-10.5 1.8-14.7 4.7M10.6 88.6c-2.1 2.7-3.7 5.8-4.6 9.1l6-3.9c-.9-1.1-1.5-2.5-1.5-4 0-.4.1-.8.1-1.2"/><path fill="#004C83" d="M72.6 45.5H72c-.3 0-.6 0-.9-.1h-.5l-.9-.3c-.1 0-.3-.1-.4-.1-.4-.2-.8-.4-1.2-.7-2.7-1.5-3.7-3.7-4.1-6.5 0-.2-.1-.4-.1-.6h2.2c.3 0 .7.1 1 .2.2 0 .4.1.7.1.3.1.7.2 1 .4.2.1.3.1.5.2.5.2 1 .5 1.5.9 1.5 1.6 2.2 3.1 2.7 4.7.2.6.3 1.2.4 1.8h-1.3m3-18.1c-.5.2-1 .3-1.5.4h-.2c-.4.2-.8.2-1.2.2-3.6 2.9-7.2 5.7-10.8 8.5 0 .8.1 1.6.2 2.4.4 2.9 1.3 5.7 2.5 8.6-1.7-2.6-2.8-5.2-3.4-8-.2-.7-.3-1.5-.4-2.2-4.5 3.5-8.9 6.9-13.3 10.3V67.5c3.2-2.5 6.4-5.1 9.7-7.6-1.5-.8-2.5-2-3.2-3.3-.5-1.1-.8-2.4-1-3.8h1.3c.2 0 .5 0 .7.1.3 0 .7.1 1 .2.2 0 .4.1.6.1.4.1.7.2 1 .4.2.1.3.1.5.2.5.2 1 .5 1.5.9.6.7 1.1 1.3 1.5 2 .7-.6 1.4-1.1 2.1-1.7-.4-1.2-.9-2.4-1.4-3.7.7 1.1 1.3 2.2 1.9 3.3 5.7-4.6 11.6-9.2 17.5-13.9V24c0-1 0-2 .1-3-2 1.6-4.1 3.2-6.1 4.8.3.6.4 1.1.4 1.6"/><path fill="#EE2346" d="M287.7 68l.9.3-.9-.3M183.8 45.1c.5-.2 1-.4 1.5-.5.2 0 .3-.1.5-.1.4-.1.7-.2 1.1-.3.2 0 .3-.1.5-.1.4-.1.8-.1 1.2-.1h.3c.5 0 1 0 1.5.1-1.1 2.4-2.3 4.1-4 5.5-.4.3-.8.5-1.2.7-.1.1-.2.1-.3.2-.3.2-.7.3-1 .5-.1 0-.2.1-.2.1-.4.2-.8.3-1.2.4h-.3c-.3.1-.7.1-1 .1h-.3c-.2 0-.5 0-.7-.1h-.4c-.4-.1-.7-.2-1.1-.3 1.2-2.7 2.5-4.6 5.1-6.1m1.9 11.4l8.2-13.8 3.8-6.4.1-.1c-1.9.3-3.8.6-5.7 1l-.1.1-.4.7-.3-.5-.1-.1c-3.5.7-7 1.4-10.4 2.2V39.9c-.3 6.8-3.4 12.6-10.8 16.5l-.7-1.3c6.4-3.7 9.1-7.4 10.2-15V40l-3.6.9v.1c.2.5.3 1.1.4 1.6-.6.3-1.1.4-1.6.6-.2 0-.3.1-.5.1-.3.1-.7.1-1 .1H172c-.4-.1-.8-.2-1.3-.3-.3-.1-.6-.2-.9-.4-.1 0-.1-.1-.1-.1-3.8 1.1-7.6 2.3-11.4 3.6l.1.1 8.4 13.9c6.1-1.6 12.4-2.8 18.9-3.7M239.4 49H237.6c-.1-2.4.6-4.5 1.9-6.4.4-.4.9-.7 1.4-.9.2-.1.3-.1.5-.2.3-.2.6-.3 1-.4.2-.1.4-.1.6-.2.3-.1.6-.1 1-.2.2 0 .5 0 .8-.1h1.3c.1 3.1-.7 5.3-2.8 6.8-.4.3-.8.5-1.1.7-.1.1-.3.1-.4.2-.3.1-.6.2-.8.3-.2.1-.3.1-.5.1-.5.2-.8.2-1.1.3m-17.3-6.4c.3-.3.7-.5 1.1-.7.1 0 .2-.1.3-.1.4-.2.8-.3 1.2-.3h1.3c.7 0 1.4.1 2.1.2 2.4.7 3.6 2.7 4.6 5.3-.4.3-.8.5-1.3.7-.1 0-.3.1-.5.1-.3.1-.7.1-1.1.2H228.6l-1.5-.3c-2.4-1.1-4.1-2.6-5-5.1m-3.7 12c6.3.1 12.7.6 19.2 1.3-1.2-1.6-2.2-3.5-2.9-5.5-1.8-5.4-1.6-9.4 1.4-13.2-1.7 4.1-1.8 8 0 12.4 1.1 2.6 2.5 4.8 4.2 6.7 4.3.6 8.7 1.3 13.1 2.1-2.2-4.4-2.6-10.3-2.9-15.9-.1-2.6-.2-5.1-.3-7.3-12.8-1.5-25.1-1.6-37-.7v.1c0 .5-.1 1-.1 1.5 0 7.1 1.8 13.3 5.3 18.5z"/><path fill="#EE2346" d="M174.8 41.6l-.6-.3-.1-.1c-.2.1-.5.1-.7.2h.3l1.1.2zM290.8 48.5c-2.2 4.7-5.2 8.8-8.9 11.9-1.8 1.5-3.9 2.7-6.1 3.7 1.7.5 3.3 1 5 1.6 1.6-.9 3.1-2 4.5-3.2.8-.7 1.6-1.4 2.3-2.2 1.4-1.5 2.7-3.2 3.9-5.1.9-1.5 1.8-3.1 2.6-4.8l-3.3-1.9z"/></g><path fill="#EE2346" d="M184.5 46.8l-3.9 3.4 7.6-4.7z"/><g><path fill="#EE2346" d="M119.2 72.4c-1.4.8-2.8 1.5-4.3 2.1-3.9 1.6-8.2 2.4-12.7 2.4-3.3 0-6.4-.5-9.3-1.4-.1 0-.1 0-.2-.1-1.9 1-3.9 2-5.8 3.1V80c4.2.9 8.9 1.9 14.2 2.9 2.4-1.1 4.9-2.2 7.4-3.2 5.1-2.2 10.3-4.3 15.5-6.4l-4.8-.9"/></g><path fill="#EE2346" d="M244.8 41.9l-5.7 5.9 3.1-2z"/><g fill="#EE2346"><path d="M55.8 100.4c-.3-1.7-.7-3.2-1.3-4.8 0-.1 0-.1-.1-.2-15.8 8-31.2 15.2-46.7 20.3 0 0 0 .1.1.1 1.1 2.1 2.4 4.1 4 5.8 14.8-4.8 29.4-11.1 44.3-17.9-.1-1-.2-2.1-.3-3.3 0 .1 0 .1 0 0M101.3 71.4c4.3 0 8.2-.9 11.5-2.4 4.4-1.9 8-5 10.7-8.8.1-.1.1-.2.2-.3-7.9 3.6-15.7 7.5-23.3 11.4h.3c.3 0 .5.1.6.1"/></g><path fill="#EE2346" d="M227 43.6l-3.4-.1 7.1 2.4z"/><g><path fill="#EE2346" d="M72.3 86.3l-.1.1c-1.5 1.7-3.1 3.2-5.7 3.6h-1.3l-6.9 3.6c0 .1 0 .1.1.2.8 2.1 1.4 4.4 1.8 6.8v.1h3.2c6-2.8 12-5.7 18.1-8.5V81.3c-3.1 1.6-6.1 3.3-9.2 4.9v.1M134.3 85.9c-.7 0-1.3-.2-1.8-.6-2 .5-4.1 1-6.2 1.5 0 .2 0 .3.1.5 0 .3 0 .5.1.8.2 1.1.5 2.1.9 3 2-.3 4-.7 6-1-.1-.2-.1-.5-.2-.7 0-.1-.1-.3-.1-.4v-.1c0-.9.4-1.6 1.1-2.2.4-.3 1.1-.7 1.6-.9.1 0 .6-.1.6-.4h-.1c-.3 0-.9.5-2 .5M166.6 80.6c-.2.2-.3.5-.5.7-1.4 2.1-2.8 4-4.2 5.6l-.3.3c1.6-.1 3.1-.1 4.6-.2 1.2-1.5 2.4-3.1 3.5-4.8.3-.4.6-.9.9-1.3.6-.8 1.1-1.7 1.7-2.5-1.6.2-3.1.3-4.7.5-.2.6-.6 1.1-1 1.7M148.2 81.9c.1.3.1.6.1.9 0 .4-.1.9-.3 1.3-.4 1.1-1.3 2-2.6 2-.6 0-1.3-.1-1.7-.4 0-.1-.3-.3-.4-.3s-.1 0-.1.1c0 .3.4.3.6.4 1.2.1 2.2 1.2 2.5 2.4 2-.2 3.9-.4 5.9-.6.3-.8.6-1.7.7-2.7 0-.4.1-.8.1-1.3 0-1-.1-1.9-.3-2.7-1.5.4-3 .7-4.5.9M137 84.2v.2c0 1.7 1.1 2.8 2.8 2.8.5 0 1-.2 1.4-.4.9-.5 1.5-1.4 1.5-2.4 0-.5-.2-.9-.4-1.3-1.8.4-3.5.8-5.3 1.1M193.9 80.3c-5.1.6-10.5.9-16.2.9-.6.9-1.1 1.7-1.7 2.6-.7 1.1-1.5 2.2-2.3 3.3 25.3.1 47.5 4.4 67 12.1 1.2-.3 2.4-.7 3.6-1 1.4-.4 2.8-.9 4.2-1.4 5-1.8 9.8-4.1 14.7-6.9-16-6.7-33.9-11.1-54.7-12.3-4.7 1.1-9.5 2.1-14.6 2.7M140 88.4c0-.1 0-.4-.1-.4s-.3.3-.3.4c0 .1.1.4.1.6v.2h.3v-.8z"/><path fill="#C40F3D" d="M265 76.7c3.6 1.2 7.3 2.5 11 3.9 1.2-1 2.3-2 3.5-3.1 3.1-2.8 6.1-5.9 9.1-9.3l-.9-.3c-6 4.8-13.6 7.7-22.7 8.8M173 70.2c-.1.2-.2.3-.3.5 1.7-.3 3.4-.6 5.1-.8.2-.3.3-.5.5-.8l7.4-12.5c-6.4.9-12.7 2.1-18.9 3.5l6.2 10.1z"/></g><path fill="#C40F3D" d="M229 58.4l8.6 1.7-4.5-1.8z"/><g><path fill="#C40F3D" d="M238.2 61.3c-.1.1-.2.1-.4.2-.5.2-1.1.4-1.6.5h-.2c-.3 0-.6.1-.9.1H234c-.6-.1-1.2-.2-1.9-.4-2-.6-3.6-2-5.3-3.8 1.7-1.1 4-1.3 6.5-1.3 2.7.6 4.6 1.9 6.4 3.8-.4.3-.9.6-1.5.9m37.6 2.7c-2.8 1.1-5.8 1.8-9.2 1.8h-.4c-1.5 0-2.8-.2-4-.4-2.6-.6-4.6-1.7-6.2-3.2-1.1-1.1-2-2.3-2.7-3.7-4.4-.9-8.8-1.6-13.1-2.1 2.4 2.6 5.3 4.6 8.7 5.7 1 .3 2 .6 3 .8l-.3 1.3c-2.8-.3-5.3-1.2-7.6-2.5-2.6-1.4-4.8-3.4-6.5-5.7-6.5-.8-12.9-1.2-19.2-1.3 3.5 5.2 8.5 9.3 14.7 12.1 6 2.8 13.2 4.3 21.3 4.5.7 0 1.3.1 2 .1 1.4 0 2.8-.1 4.2-.1 7.5-.4 14.4-2.1 20.2-5.6-1.6-.6-3.2-1.2-4.9-1.7M81.4 92c-6.1 2.8-12.1 5.7-18.1 8.5h17.4c2.7-1.1 5.4-2.3 8.2-3.4h-7.5V92zM134.3 73.7c-3 1.2-5.4 3.3-6.8 6.1-.5.9-.8 1.9-1 3 1.8-.6 3.5-1.2 5.3-1.8.1-.1.1-.2.2-.3.6-.8 1.4-1.3 2.4-1.3.5 0 1 .1 1.3.3.4-.1.7-.2 1.1-.3v-.5c0-1.9 1.4-3.1 3.1-3.1 1.3 0 2.4.8 2.9 1.9l6.6-1.8c-2.4-2.1-5.8-3.3-9.3-3.3-2.1-.1-4.1.3-5.8 1.1M56.1 103.9c-14.8 6.8-29.5 13.1-44.3 17.9 1.2 1.3 2.4 2.4 3.8 3.4 11.4-3.1 23.1-7.4 35.2-12.2 1.5-.6 2.9-1.1 4.4-1.7v-.1c0-.1 0-.2.1-.2.5-2.1.8-4.2.8-6.4v-.1-.6M108.4 79.8c-2.5 1.1-4.9 2.1-7.4 3.2 4.9 1 10.2 2 15.9 3.1 1.2-.4 2.4-.9 3.6-1.3.1-1.8.5-3.6 1.2-5.2 1-2.2 2.5-4.2 4.4-5.8-.7-.2-1.5-.3-2.2-.4-5.2 2-10.4 4.1-15.5 6.4M289.5 66.4c-.6.5-1.2 1-1.9 1.5l.9.3c.4-.5.9-1 1.3-1.5l-.3-.3"/><path fill="#840715" d="M131.2 82.7c0-.6.2-1.2.6-1.7-1.8.6-3.5 1.2-5.3 1.8-.1.7-.2 1.5-.2 2.2 0 .6.1 1.2.2 1.8 2.1-.5 4.1-1 6.2-1.5-1-.6-1.5-1.5-1.5-2.6M177.7 69.9c-1.7.2-3.4.5-5.1.8-1.8 3-3.4 5.7-5 8.2 1.6-.2 3.2-.4 4.7-.5 2.1-2.9 3.9-5.9 5.4-8.5M142.3 83.1c0-.1-.1-.1-.1-.2-.5-.7-1.3-1.2-2.3-1.2-.5 0-1 .2-1.4.4-.8.4-1.3 1.2-1.4 2.1 1.7-.3 3.4-.7 5.2-1.1M137.7 81.7s.1 0 .1-.1c0-.3-.9-.9-1.1-2.2-.4.1-.7.2-1.1.3 1.3.7 1.7 2 2.1 2M142.4 81.3c.4-.8 1.8-1.6 2.8-1.6 1.4 0 2.6.9 3 2.2 1.5-.3 2.9-.5 4.4-.8-.4-1.4-1-2.6-1.8-3.7-.5-.6-1-1.1-1.6-1.7l-6.6 1.8c.2.4.3.8.3 1.3 0 .6-.3 1.8-.9 2.3-.1.1-.3.3-.1.6.2 0 .5-.2.5-.4M172.3 88.8c-.7 1-1.4 1.9-2.1 2.7-.5.6-1 1.3-1.5 1.9-.6.7-1.2 1.3-1.9 2l-1.2 1.2c8.1 1.8 16.1 3.4 24.2 4.5 1.4.2 2.7.3 4.1.5 8.2.9 16.3 1.3 24.3.9 7.6-.4 15.1-1.4 22.5-3.4-19.5-7.7-41.7-12-67-12.1-.5.6-.9 1.2-1.4 1.8M166.3 87.1c-1.5 0-3.1.1-4.6.2-.8.9-1.6 1.7-2.4 2.5l-.4.4c-.7.6-1.4 1.2-2 1.7-.2.2-.4.3-.6.5-.5.4-1 .8-1.5 1.1-.3.2-.6.4-.8.5-2 1.2-3.7 1.7-5.4 1.7-.9 0-1.8-.3-1.8-1.3 0-.7.6-1.2 1.4-1.9.1-.1.2-.2.4-.3.4-.3.9-.7 1.4-1.1.9-.8 1.8-1.8 2.4-3.2-1.9.2-3.9.3-5.9.6.1.2.1.5.1.7 0 1-.5 1.9-1.2 2.5-.1 0-.1.1-.2.1-.5.4-1.1.6-1.7.6-1.2 0-2.2-.7-2.7-1.7 0 0 0-.1-.1-.1-.2-.4-.4-.9-.5-1.5h-.3c0 .4-.1.8-.2 1.2 0 .1 0 .1-.1.2 0 .1-.1.3-.1.4-.8.8-1.8 1.4-2.7 1.4-1.5 0-2.7-1-3.1-2.3-2 .3-4 .6-6 1 2.3 5.4 7.7 8.9 13.9 9.3.5 0 1 .1 1.5.1.4 0 .7-.1 1-.1 5.7-.2 10.4-2.2 14.6-5.4.1 0 .1-.1.2-.1 1.2-1 2.5-2 3.6-3.1.4-.4.8-.9 1.2-1.3.3-.3.6-.6.8-.9.5-.6 1-1.2 1.6-1.9-.1-.1.1-.3.2-.5M15.6 125.1c4.2 3.1 9.4 4.9 15 4.9 11.7 0 21.6-8 24.6-18.7-1.4.5-2.9 1.1-4.4 1.7-12.1 4.8-23.8 9-35.2 12.1M265 76.7c-1.2.1-2.5.3-3.8.4-1.6.1-3.1.2-4.8.2-1 0-2-.1-3.1-.1-2.6-.1-5.2-.3-7.7-.7-7-1.1-13.2-3.2-18.6-6.2-5.6 2.9-11.9 5.4-18.8 7.3 20.8 1.2 38.7 5.6 54.7 12.3 4.4-2.6 8.7-5.6 12.9-9.1-3.5-1.6-7.2-2.9-10.8-4.1M120.5 85.2v-.4c-1.2.4-2.4.9-3.6 1.3 1.2.2 2.4.5 3.7.7V86c0-.2-.1-.5-.1-.8M89 97.1c-2.7 1.1-5.5 2.3-8.2 3.4H92V97l-3 .1z"/><path fill="#D1D3D4" d="M47.6 6.1V16.7C53 11.6 58.4 6.4 63.8 1.1c-.6 0-1.1.1-1.7.1-3.5.2-6.9.4-10.4.5-3.8.2-7.6.3-11.5.3H40v3.4h7.5l.1.7zM56.1 37c-.4.3-.7.5-1.1.7-.1.1-.2.1-.3.2-.3.1-.5.3-.8.3-.1 0-.2.1-.4.1-.3.1-.6.1-.9.1h-.4c-.4 0-.8 0-1.3-.1v-.7c-.1-2.2.8-4.5 2.5-5.7.4-.3.7-.5 1.1-.6.1-.1.2-.1.3-.2.3-.1.6-.3.9-.3.1 0 .1 0 .2-.1.4-.1.8-.1 1.2-.1h.3c.4 0 .9.1 1.4.3v.2c.5 2.3-.3 4.6-2.7 5.9M99.6 7.1c2.8-2.1 5.6-4.3 8.5-6.4-2-.5-4.1-.7-6.3-.7-2 0-3.8.1-5.4.4-7.4 1.3-12 5.5-16.6 12.8V.3c-.6 0-1.2 0-1.8.1-3.3 3.2-6.5 6.4-9.8 9.6l-.2.2c.1.1.2.1.3.2-1.1 1.2-2.2 2.3-3.6 3C59 19 53.3 24.6 47.6 30.1v17.6c4.4-3.4 8.8-6.8 13.3-10.3-.3-2.4-.3-5 0-7.8 0-.3 0-.5.1-.8C62.3 18 69 10.5 75.5 9.2l.4 1.3c-6.6 1.9-11.2 8.3-13.3 17.7-.1.6-.2 1.1-.3 1.7-.4 2.3-.5 4.5-.3 6.7 3.6-2.8 7.2-5.7 10.8-8.5H72.5h-1c-.2 0-.3-.1-.5-.1-.1 0-.2-.1-.3-.1-.2-.1-.3-.2-.5-.3-.1-.1-.2-.1-.3-.1-.2-.2-.5-.4-.7-.6-.7-.8-1.3-1.7-1.8-2.6-.4-1-.7-2-.5-3 .5-.3 1-.4 1.5-.5.2 0 .3 0 .4-.1h1.4l.9.3c.1.1.3.1.4.2.1 0 .2.1.3.2.5.3.9.6 1.3 1 1.1.9 1.8 2.2 2.1 3.6 2-1.6 4.1-3.2 6.1-4.8.6-7.9 3.5-12.4 7.8-12.4 2.2 0 3.5 1.1 4.2 3 1.5-1.1 3-2.3 4.5-3.4-.2-.3-.6-.4-1-.4l.4-1.3c.8.1 1.6.2 2.4.4"/></g><path fill="#D1D3D4" d="M69.4 22.5l-.5-.4-.5-.5.3.5.4.7 1.1 1.8 3.6 1.8h.1-.1zM57.1 32.6l-2.3.9-1.6 2.3-.6.9 4.9-4 .5-.4-.5.2z"/><g><path fill="#E4E5E6" d="M66.7.9c-.5 0-1.1.1-1.7.1-.4 0-.8 0-1.2.1C58.4 6.4 53 11.6 47.6 16.7v13.4c5.7-5.4 11.4-11 17.2-16.7-.7.3-1.4.6-2.2.7-.7 0-1.3 0-2-.1-1.7-.2-3.1-.6-4.4-1.6 1.3-1.7 2.4-2.8 4.3-3.4.6-.2 1.3-.3 1.9-.4h.4c.6 0 1.2 0 1.8.1.6.1 1.1.3 1.7.6.1.1.3.1.4.2.4.2.9.5 1.3.7h.1c.1 0 .1-.1.2-.2 3.2-3.2 6.5-6.4 9.8-9.6-3.9.1-7.6.3-11.4.5"/></g><path fill="#E4E5E6" d="M62.5 10.5l-4 1.5-.5.2.7-.1 7.3-1.4h.4l-.4-.1z"/></svg>