<svg baseProfile="basic" xmlns="http://www.w3.org/2000/svg" width="423" height="307" viewBox="0 0 423 307"><path fill="#289CC9" d="M422.4 129.1v-1.4l-.3-1.9-.7-2.9-.3-2.2-1.3-1.2-1.8-1.8-1.2-.5-.7-2.5.6-1.2v-1.2l1.5-.2v-.8l-2-.5-.6-.6-1.2-.4-1.4-2.1-.5-2.8.7-1.5 1.2-.8.8-.6-.5-1.2-1.4-1.1-2.4.3-1-1-1.3-.3-1.5-2.4-.4-1.7 1.4-.4.6-1.3-1.4-1.4h-1.1l-.7.7-1.8-.4-1.8-1.2-.3-1.6-1.8-1.8-.5 1-.7.7v.6l.5 1.2h-1.9l-1.1-1.1-1.9-1-.2-1.5-.3-1.9-1.3-1.3-1-1-.8-.8-1-1.7.8-.8v-1.8h.8l1.3-1.3-1.3-.6v-1.3l-.8-2 .8-.1 1 1 1.3.6V73l-1.2-1.8v-1l.6-1.9-.8-.8 1.5-2.1.9-2.1 1.7-.6 1.2.6 1.2-1-.8-.8-1.2-1.3-.7-2.8v-2l-1.3-1.2-.7-2.1-.3-2.2-.6-1.9-.4-1.9v-2.5l-.5-2.2-1.2-1.8.5-.5-1.6-1.1.4-.6h1.5l.9-1.9 1.4-.6v-1.5l-1-1-.5-1.2-1.1.8-.8-.6-.9.1-.7.7h-1.2l-.3.7h-1.2v-1l-1.5.1-.8.1-1-.1-.4.7-.9.9h-1.5l-.8.6v1.3l-.9.3-.7-.7 1.1-1.3h-.8l-1.2.5.5-1.1 1.5-.6h1l1.1-1.8-.3-1.6-.6-2-1.1-1.1-1.1-1.1-.6.6-.1-1.3h-1l-1.5.4-.9-.9v-.9l-1.2-.2.4-.4.6-.3-.5-.5.1-.7.7.4.8.6h1.3l.9-.7.9.7 1.1-1.1V19l-.5-1 1.2-1.7h1.3l1 .4 1.5-.5.8-1.7 1.5-1.6 1.6-.1.6-1.8-1.2-.3V10h1.5l-.5-1.1V8l-.8 1-.8.2-.9-1.4-1.3-1.3v.7l-1.9-.6-.8.8-1.2-.2 1.6-1V4.7s.4-1.2 0-.8c-.4.4-1.5.4-1.5.4l.8-1.6-.7-.7-.9-.8s.4-1.6 0-1.2c-.4.4-1.6.8-1.6.8l-1.2 1.7h-.5l-1.7.6-1 1-.7 1-.1 1.2-.8-.1v.6l1.1.3-1.3.9-.4 1.2 1.2.3 1.9.1 1.7-.3v.8l-1.7.9-.9.9-1.4-1.1-1.6.5-1.1-1.1-1 .6-1.5.7-1.2 1.3-2.4.7-1.2 1.8-1.7.7-1.4 1.4-1.4 1.4-1.5.9-2.1.9-1.1 1.1-2.4 2.4-2.1 2-.6 2-1.2 1.7-.4 1.2.4 1.2h-1l-1.1.6-.1 1.5-1.2.6-.3 1.3v.8h1.4l.4 1 1.7-.3 2.4 1 .8.1.4 1.1-.3 1.1-1.4.3-1.5.7-1.1.4h-1.6l-1-1 1-1-1.3-1.3-.7.7-.8 1.4 1 1.4-.3.8.7.7-.5 1.9-1.7 1.2v1.4l-.9.9h-1l-.6 1.2V53l-1.3 1.3v1l.7.7h-1.4l-1.2 1-1.7.8-1.9-1.9-.9-.9-1.9.1-2.3.3-1.3 1.6-1.5 1.5-1.7 2.6v2l-1.4 1.7-1.3 1.3-1.7-.1-1.3-.7-1.9 1s.4 1.8.2 1.6c-.2-.2-1.3-1.4-1.3-1.4l-1 1.1h-1.5s-.9-.3-.5-.8 1-1.2 1-1.2l-1.2-.9-2.1.9-1.5.7-.6 1.7-.3 1 .4 2.2v1.3l-1.2 1.1.3-2.7-1.3-.4-1 1-1.2.6.5-1.9s1.3-.5 1.3-.9-.3-.7-.3-.7l-2 .9-2.6 1-.6 1.6-1.9 1h-1.3l-.9.9 1.5.9.2 1-1.5 1.4v1.5l.8.6.7-1.8.5.4v1.5l1.2.6 1 1 .5.3-1 1-1.3-.1-.8.8-.6.6 1.6.7v1l-1.5-.4-1.3.1-1.8.4-1 1.8.3 1.8H289l-1.5.4-1-1-1.7-.2v1.2l.9.9v1l.4 1 .7 2.3-.1 1.3-1.6-.8-.6.6-1.5-.3-1-.7-1.4-1.4h-1.4v-1.1s-.6-1-.6-.6c0 .3-.8.7-.8.7l-1-1 .6-.6.9-.3V89l-.7-.7-1.3.8v-1.3l-.8-.8h-.8l.6-1.7-1.7-.6-.5.5-1.5-1.2s-.1.7-.7.7c-.5 0-.5 1.3-.5 1.3l-.6.4-.6-.6-.6.1-.3.8-1.1-.8-.7-.7-.9.7-.8-.8-.2.8-.3 1.6 1 1.6.2 1.4s.3 1.2 0 1.2-1.9.3-1.9.3l-1.5 1.2-1.5.6-.8-1.3-.2.8-.1.6h-2.1l-1.1-1.1.5-.5-.5-.8-2.1.6-2.6.5-1.7.9-1.3 1.3-.7.7 1 .9h-1l-.8-1.2v-1.4l-.7-.7-.9 1.2-.3.8-1.4-.6-1.2-.3h-.8l-1 .1.1 1.1-.1.6.8.1.5.5-.7 1.3-1.1.4-1.2 1s-.2 1.2-.8 1.2c-.6 0-1.7.3-1.7.3l-1.2.8.3 1.4-1.2.6.3-1.2.3-1.8 1.1-1.1.5-1.6 1.7-.4.4-2.1 1-1 .4-1.9v-.7l1.4-1.7.8-.8.7-1.4.7-1v-1.4l.8-.8-.9-1.5-1.4-.8-.6-.6 1.4.3.1-1.5-.9-.9-.7-.7-.5.6-.8-.7-.7-1.4-.8-.8-1.1.5-.8-.8-1.4 1h-1.4l-1.5.8.6.6-.3 1.2s-1.1-.5-1.5-.5-.3-.9-.3-.9l.9-.9-1-1h-1l-.4.4-2.2-.1.9-1.2 1.1-1.1-.3-1.4-1 .1-1.4-.8-1.1 1.2-1.2.9-1 2.6-.3 1.1v1.7l.6.4.1 1.2h-.5l-1.6.5h-1.5l.4.8.8.6.6.8-1.4-.3-1.4.3-.2 1.1-2.1-.1-.9.9v-1l.7-1.2-1.2.2-.3.8-1.5.2-1.8.4-.7.7 1.2.4-.4.5-1.9.6-.7.7-2.6.4-.7.7-1.9.7-.8 1.6-1.9-.1.1 1 1 .1-1 .8-.7 1 .6.6-.4.9.6.6-.8.2s0-1-.5-.5l-.8.8.7.7.8.3.7 1-.7.7h-1.3l-1.8.8h-3v.4l-1.7-.6H190l-1.4 1.2.3 1.7.6.6-.6 1.4-.4 1.7.6.6 1 1.6 1.3.5-.1 1 .8 1-.3 1.1h-1.9l-1.2-1.2-.4-.5.5-1.4-1.8-1-.9-.9-1.1.2-1.4-.3-.8.8.1.8.3.9-.8.8-1.1-1.1-.7-.7-1.5 1 .5 1.5 1 1v.6l1.2.6.8.8.4 1.1v.8l-1.2-1.1-1.1-1.1-1.1.7-.8-.7-1.5-1.1v-2.9l1.2-1.2.3-1.8v-2l.3-1.5H178l-.5 1 .5 1.2-.6 1.5-.8 1.3h-1.5l-1.7 1.7-1.1 1.1 1 1-.2 1.4.4 1.3.5 1.5-1.4 1.4-.6 1.8-1 1.5.2 2.2-.8.8.2 1.3h1.2l.6.8 1-.5.8-.8 1 1 1.7.6.6.6.9.8.7 1.4-.5 1.1.4 1.3-.4.9-1.1.3.1 1.2v.8l.6.6 1.6.5v1l-1.6-.3-1.2-1.5v-1l-.1-1.7 1.1-1.1-.8-2.1-.7-.7-.4-1.3-1.6.2H173l-.9.9-.9.9.1 1.3.3 1.5-.4 1.7-.9.9-1.1 1.1-.6.6v1.5l-1.4.8-1.7.5-.4.4h-.9s-1 .4-.7.7c.3.3-.2 1.2-.2 1.2H162l-.8-1.2-1.2.1-1.4-1-1-.5-1-1.6v-1.3l1 .3.7.7 1.1.7 1-.7 1.7.3 1-.6 1-1.5 1.8-1.8 1.5-.4.3-2.6 1.5-1.2.2-1.1-1.2-1.2-.5-1.8.6-1.3.8-2.6.5-3 1.4-2.1.3-1.9.4-2.4-1.2-1 .6-1.8 2-2 .3-2.5.7-.7-.6-2.4H172l-.8-.8h-1.7l-.8-1.2-1.3.7-.8 1.7-.7 1.7-.9 2-1.2 1.2-.5.5-1.5.7-1.4.5-.8 1-.5 1.4.9.3v1l-.6.8-.3 1.7v1.1l-1.4.7-.7.7.7 1.5 1.3.9-.3 1.9.8 1.8 1.1.3-1.6 1.5v1.5l-1.4.8-1-1.5v-1.4l-1.2-1.6-1.1-1.7-1.6-1.6-.5-1.1-.6.8-1.1 1.1.7.6.1.5.5.2v2.4V122.4l-.5-.2-.1-.5-.7-.6.4-.4.7-.7.6-.8-.3-.7-1.3-1.3-1.6-1.6-1.4-1.8-.6.6-1.3-1.3-1.1.3-1.2.6.2 2-.3 1.7-1.3.2v1.1l-1.4-.3-.6.6-.1 1.3-1.3-1.1v-1.2l1.1-.8.2-1-.7-.7-1.8.6H136l-.7.7-2.1-2.1-2-.4-2.1.9H128l-1.6-1.5 1-.3.4-1.2h1.3l-.5-1.8h-1.2l-2.2.7v1.2h-.7l-.8-1.4h-1.5l-2.6-.3-1.5.3-2.7-.5.3 1.1-1.7-.8-1.8.4v1.2l-1.7.8-1.5-.7-1.6-.4v-1.4l-.6-1.7v-1.8l2.2-.8 1.5.3 1 1 .6-.6.4-1.2v-2.4l-1.2-1.8-1.6-1.6-.4-.9h-1.2l.3 1.7v1.7l-1.7 1v1.1l-1.8.9-.6 1.2v1.7l-1.4 2-1.7.3-1.2 1.2-.9 1.1V112l1-1-1.2-1.8-.8-.8h-1.3l-1.9.6-1.7-.9-2 .8-2.1-.3-.1 2.4-1.2 1 .5 1.2-.6.6-2-.6-.8-1.6-1.2-1.2-.4-2-.4-3.1h-1.2l-1.2 1.2v1.2l-.1 1.5.9.9-.3 1.7-1.7 1.2-1.5-1.5-1.4-1.4 1-1.8-1-3.3 1.3-1.3.5-2.5 1.4-1.4 1.7-.5 1-2.1.3-1.5-1-1 .8-.8v-1.8l-.3-1.5.7-.7.4-1.2 1 1-.8.8-.3 1.6 1 .4.5 2.6.9 1.5.5 1.4.6 1.5 1.3 1.3v1.9l1.3 1.3 2 1.1 1.9.7 2.1-.4h1.9l1.8-1.8 1.2-2.1.3-2.5.1-1.5-1.2-1.2v-2.1l-.4-1 .3-1.7v-2l-.6-1.9-1.1-1.1v-1.6l-1-.5v-1.5l-.9-.9-1.2-.6v-1.3l-.3-1.3.7-.7.8.8.8.5-.3-1.2v-1.1l-1.7-.1-1.2.1.3-1.5-1.2.8-1-1h-1.2l-2-.8-2.9 1.5-2.2 1.1v3.7l-1 1.8h-3.5l-2.1 2.1-.2 1.3-2.6 4.8-1.2-.6-2.4 1.9-1 .2v2.4l-1.2.5V97L66 98.3h-1.9l-.5 4.6v1.8l-2.9 1-9.2.1h-6.3l.9 1 1.5.6-.3.3-1.1.3v2.4l1.2 1.1.1 2-.8.8-.6-1.4-.6-1.2-1.5-.5-1-1-1.2-.6-.6.6-.3 1-1.9-.4-1.4.8-1.6-.1-1.2 1.6-1.5.6-.1 1-.8.9-1.7.1-.7.8v1.5l-1.7 1-1.1.3.3 1.2-.8 1.4-1.3 1.3-.2 1 .6 1.4 1 1-.3 1.1-.4 1 1.3.3 1.2 1.1v2.4l-1.3 1.1-.5 1-1.4.4-.6 1.5-.8 1.8-.4 1.7.1 1.2-.7.5 1 1-.4 1.5-.3 1.4-1.3.4-1.4-.5-.4-1-.8-.8-1 .1-.3 1.2-.9 1-1.3 1.3-.6 1.1.6 1 .7.7.9-.8.6.9.8.8 1 .1.8.8.6 1.4-.1 1.1-.5 1.9-.6.6h-.8l-.4 1-.7.6.8 1.2.8 1.4v1.5l-.7 1.5-.9 1 .3 1 1 .8.5 1.6 1.5 1.2 1.3 1 .4 2.1-.4 1.5 1.1 1.2 1 .6.4 1.6.2.2.9 1v1.5l1.2.6-.6.7-.5 1.2-2.6.3.1 1.1-1-.1-1 1 .3 1.5-1 .6-1.5 1.5-1.7-1.8-1.1-1.2-1.2.5-1.3-.6-1.5.7-1 1.1.8.3.8.8 1.2.3.8.6-.3 1.2-1.2-.5-1.6-.2-1-.4-.6.6-.8-.8-.8-.6-.4.2-.3.9.6 1-.2 1.7-1-.3h-.9l-1.6.1-1.2.5-.5 1-1-.3-1.1-1.4-.8.1-.8.8.3 1.4-.4 1.2.6 1.1.8.8-.1 2.1.7 1 .6 1.2.3 2.4-.2 3.2.6 1.7.9-.1.7 1 .6.7.8.1.3 1.4 1 1.6.5 1.7 1.5 1 1 .5.6 1.6 1.2 1-.3 1.4 1 .9.3 2.2 1 1 1.5.2.9.9.2.7 1.2.1.3 1.2 1 1.1-.4 1.2-.6 1 1 1.2.6 1.5v.9l1.1.8.1 1.7.8 2.3.2 1.3 1.5.3 1.6-.6 1.1.5 1.7-.8-.1-2.2.3-1.8-.4-2.4v-1.9l1.5-2.5.7-.6v-.5l.8-.8.3-1.2.3-1.3-.4-1.3-.7-.7v-1.1l.7-.7.8.2 1.5-.4h1.3l1.2-1.4 1-.4v-1l1.2.2.5.5 1 .3s-.1.5.5.5c.7 0 1.5-.1 1.5-.1h2.4l1.2-.1.7-.7-.9-.9-.6-1.2-.1-1.2 1 .1.7.8.7-.7V214l-.4-2.4.3-1.8-.8-.8-1.3-1.2-.9-.6.9-.9.4-1.8-1-1-.4-1.4 1.1-.8.9-.9 1.2.1 1.2-.5v-1.2l.9-.9 1.1-1.1h1.4l.9-.7.5-1.1H54l.7.7-.5 1.4v1.4l1 1 1.7.3.1-1.3.9-.9.3-.8h3.1l.7-1h1.5l1.4.8 1.6-.6.9-.9 1.7.3.5 1.4v1.3h1l1.7-.3.9.9.5 1.2 1.7.6 1 1.2.3 1.9.7 1.8.6 1.2-.8.8v1.1h.9l.8-1.4 1.2 1 .8 1.6 1.2.3h.9l1.6-.8 1.2.6 1.3 1 .5 1 1.3-.5h1.6l.9.9v1.8l1 1 .3.8 1.4 1.4h1.2l.7-.7h.7l.6 1.1.8.8 1.6-.1h1.5l.9-.9 1-1.3-1-1-.3-1.2-.7-.7-1-1-.4-1 .6-1.5 1.4.3 1.2-.3.5-1.2-.5-1.7 1.2-.5 1.8-.1 1.2 1.2h1l.9-.9-.9-.9-1.1-.6-.8-.5 1-1-.5-1 .5-1.5h1.5l1.6.8 1.1 1 1.2-.3 1.7.3 2.4-.1 1.6.5h1.2l1.3.7 1.4-.3.8-.8h.7l1.8.9h1.9l1.5-.3 1.2.7 1.5-.4h1.7l.8-1.2-.2-2.1-2.7-1.7.2-1.3-.9-.1-.4-.9.4.9.9.1-.2 1.3 2.7 1.7.2 2.1 1.5.1 1.4.8h1.7l.6 1.2h1.2l1 .5.6 1.7-.3 1v1.3l-.9.9.4 1.2 1.5.4 1.4-.8 1 1-.4 1.6 1.4.4.8-.8 1.2.8h1.4v1l-1.7.8-.4 1.9h1.2l1.5-.7.8 1.1 1.7-.9 1.9-.6 1.1-1.1h1.1l1.5-.1 1-1h1.2l.3 1-.8 1.1h-1v1.2l1.2.5.9.9.8 1.7.8.8.8-.4-.8.4 1.2 1.2.8 2.8v2.3l1.1 1v1.7l1.2 2.1.3 1.8.5 1.6.9 1.8 1.5-.3.8-1.6 1.1-.3.8.9v1l.8.8.8.8 1.5-.3.7.7 1.7-.3.9-.9h1.8l.8.8 1.3.6 1 .9.3 1.7 1.2.8.6 1.2 1.5.9v1.7l1.9.5 1.7.6 1.8-.7 1.1-1.1.4 1.4.8 1.4.6 1 2 .3.9-.9 1.7-1 2.1.1 1.1-1.1 1.6-.4.3-1.5h1.4l1.4-1.4 2.3-1.5h1.8l.5-1.5h1.5l1.2-1.2 1.5.7 1.2 1.2 1.9-.8 1.6.5 1.3 1.3 1.1 1.1 2 .7 1.4.4 1.9-.3 1.9.5h3.3l1.6-1.6 1.6-1.1v-1.7l-1.2-1.2v-1.6l-.9-1 .3-1.8.9-.9.9-1.8 1.1-1.1.8-.8 1.6 1.2h2.7l1.4 1.3 2-.5h1.7l1.8.7 1.3 1.3 1 2.1 1.1 1.1 1.7.7 2.5.2 1.7-.5 1.8-.4 1.6-1.6h2l3.2-.5 1 .6 2.4.3h2.6l1 1 .6 1 1.9.6 2.1-.3h2.8l2-.6h2.2l.9-.9 1.7-1.7 2.2-1 1.6-1.1 1.2-1.2.6-2 2.5-2.5 1.7-.8 1.3.5 1.5.8 1.9-1.1 1.4-.8 1.9.3 2.6.2 2.3-.8 1.4-1.4.9-2.2 1.5-.4v-1.9l-.6-.6-1-2 .8-1.9V214l.4-3 .6-1.2-.6-2.2-1-1-.9-.9-1.1.9-.8-1 .6-1.4.8-2.3 1.1-1.1 2.2-1.3 1.1-1.1 2.4-1.7h1.7l1.6-.6 2.1.3 1.7-.9h1.5l2.8.3.8.8 1.4.6.6 1.5 1.5.4 1.1 1.1 1.6 1.2.7 1.7 1.7.3s1.3 1 1.3 1.3c0 .3 1.2 1 1.2 1l1 1 .9 1.7 2.1.4 2.1-.8.8-.8h1.9l2-.3 1.3.3 1.6.4.8-.8 1.5.4.9.9 1.1 1v1.6l1 .3 1.3.8h1.3l.3-1.2 1.2-.4 1.5-.8 1.5-1.2-.6-1.7 1.2-1.6 1.1-1.8.4-1.4 1.7-.9h1.2l.3.9 1 1 .9.9v1.5l-1 1 1.4 1.5.3 1.5.8 1.3-.3 1.1 1 1.3.1 1.6.7 1.5-.6 1.5 1.1 1.7-.6 1.2-1 1-1.1-.4-1.1.6-1 1v1.4l-.8.8-.9.9v1.4l1.2.4 1.3 1.3.6 1.6.8.8 1.5 1.5.7 1.6v1.4l-.8 1.7-.5 1.6.6.6 1.3.1v-1.8l.6-.6.4-1.4-.3-1.2.3-1.7v-.7l.9.9.6.6v-1.3l.5-1.2.5.5v.9l1 .4 1.5-.8 1.7-.7h.9l1-1.9.9-1.9 1.4-2.3v-1.6l.1-3.3-.4-2.6.4-2.5v-6l.4-1.4v-2.6l-.4-2.7-.4-2-.6-2.2-.8-2 .1-2.6-.8-2.5.4-2.5V186l-1.1-1.1-1.3-2-.3-1-1-1.7-1.4-1.4-.3-1.2-.7-.7-1.8-1.8-1.4-2-.9-2.8-.2-2.6-.7-1.3-.7-.7-1.3.2-1-1-.3-.9h-2.4l.4-.8.5-.5.7-.7-.9-.9s-1 .4-1.3.4c-.3 0-1.9.3-1.9.3l-.7-.7-1.5-.2h-1.8l-1.5.3-.8.8-1.2.7.8 1.4.6 1.2.7.7-.2 1.1-.8-.6-.5.4-.8 1v.7l-1.4.6v-2.1l-.4-.4-.4.1-.8-.6v-.7l-.8.8v1l1 .4v1.1l-.7.7-.8-.8-.7-1.2v-.9l-.8-.4-.7-.7-1 1-.9.9h-1.1l-.8.8h-1.1l-.6-1.4.6-1.5V164l1-1.7v-1.9l.6-2.4V154.4l-.7-.8v-2.4l.4-1.7v-4.4l.8-1.4-1-1-.6-1.6.3-2.2 1-1-1.1-2.2.2-2.3 1.2-2.4 1.2-1.2 1.1-1.9 1-1 1.6-1.6h1.6l1.2-.8-.4-.4-.6-.9.8-.8h.8l1-.9 1.1-1.1-.4-1.5 1.5.6.9-1-.8-.8-.3-1.3.3-1 .9-.9 1.1-.3 1-1.2 1.9-.9v-.6l1.3-.2 1.2-.5.5.5-1.1.4-.3.9v.9s.9.3.6.6c-.3.3 1.3-.1 1.3-.1l.5-1.3v-1.5l1.3-.6.2-1-.5-2.4 2.1-.3V105l1.1-.3.1-1.3h-1l-.6.6-.8.7-.9.1-1-1v-.8l-1.1-1.1-.4-2.7v-2.1l-1.2-1.9.2-1.9-1.2-.8-.1-3 .8-.9.6-2.3V85h1.9l.6-1.7-.6-1.5 1.9 1.8.6 1.2.7.7 1 1v-1.7l1.2.6.6 1.4.5-1.6-.1-2.6-.7-1.7v-2.2l-.9-.9.7-.9.6.1.1-.9h-1.4l-1.1-1.1-1.2-1.2-.8-.8.4-1.1v-1.5l1.5-.8 1.1-1.1.5.5-1.3 1.2v1.6l1.5.9 1 1.2.8.8.9.3h.9l.9 1.7.8.8v2.2l-.5 1.7.1 1.4.8.7.8 2.6.7 1.7.6 2.1.6 2.3 1.3 1.7.8 2.6.3 2.2.7 2.1-.5.5-.6.6.7 1.1-.5 1-.6.6v.6l1.3.3 1.2 1.7.2 1.6 1 1v1.5l1.4 1.5 2 2s.6 1.4.9 1.7l1.9 1.2 1.9 1 3 .9 1.4.3 1.2.8.8 1 2.6 1.4 2.3 1 2.4 1.1 1.2 1.2h1.4l1 1 1.3.7h2l-.2 1z"/><path fill="#0CAA75" d="M188.9 90l9.3-43.9 9.4 43.9z"/><path opacity=".2" fill="#170000" d="M203.9 90l-5.7-43.9 9.4 43.9z"/><path opacity=".2" fill="#170000" d="M188.9 89.9h3.8l5.6-43.9"/><path fill="#C91E2B" d="M182.8 100.8h30.7v43h-30.7z"/><path fill="#D3CBCB" d="M182.8 106.9h30.7v2.4h-30.7z"/><path fill="#CECECE" d="M189.9 99.9V89.5l3.7-5 3.7 5v10.4z"/><path fill="#C91E2B" d="M193.6 86.1l2.7 3.7v9.1h-5.5v-9.1l2.8-3.7m0-3.2l-4.7 6.2v11.6h9.3V89.2l-4.6-6.3z"/><path fill="#CECECE" d="M199.2 99.9V89.5l3.7-5 3.7 5v10.4z"/><path fill="#C91E2B" d="M202.9 86.1l2.8 3.7v9.1h-5.5v-9.1l2.7-3.7m0-3.2l-4.7 6.2v11.6h9.3V89.2l-4.6-6.3z"/><path fill="#CECECE" d="M208.2 99.9V89.4l2.2-4.3 2.1 4.3v10.5z"/><path fill="#C91E2B" d="M210.4 87.2l1.2 2.4v9.3h-2.4v-9.3l1.2-2.4m0-4.3l-3.1 6.2v11.6h6.2V89.2l-3.1-6.3z"/><path fill="#CECECE" d="M183.8 99.9V89.4l2.1-4.3 2.1 4.3v10.5z"/><path fill="#C91E2B" d="M185.9 87.2l1.2 2.4v9.3h-2.4v-9.3l1.2-2.4m0-4.3l-3.1 6.2v11.6h6.2V89.2l-3.1-6.3zM227.2 208.2h-29.8v-58h24.7l5.1-8.6z"/><path opacity=".2" fill="#170000" d="M189 142.9h-6.2V89l3.1-6 3.1 6zM213.5 142.9h-6.2V89l3.1-6 3.1 6z"/><path fill="#C91E2B" d="M216.6 152.2h-18.9v-29.7h15.7l3.2-4.4z"/><path fill="#C91E2B" d="M179.7 152.2h18.9v-29.7h-15.7l-3.2-4.4z"/><path fill="#C91E2B" d="M169.1 208.2h29.8v-58h-24.7l-5.1-8.6z"/><path fill="#A80C26" d="M174.3 207.3v-7.8c-1.1 0-2 .7-2.4 1.6-.3-.9-1.3-1.6-2.4-1.6v7.8h-2.8v-7.8c-1.1 0-2 .7-2.4 1.6-.3-.9-1.3-1.6-2.4-1.6v7.8h-2.8v-7.8c-1.1 0-2 .7-2.4 1.6-.3-.9-1.3-1.6-2.4-1.6v7.8h-2.8v-7.8c-1.1 0-2 .7-2.4 1.6-.3-.9-1.3-1.6-2.4-1.6v7.8h-2.8v-7.8c-1.1 0-2 .7-2.4 1.6-.4-.9-1.3-1.6-2.4-1.6v7.8h-2.8v-7.8c-1.1 0-2 .7-2.4 1.6-.3-.9-1.3-1.6-2.4-1.6v7.8h-2.8v-7.8c-1.1 0-2 .7-2.4 1.6-.3-.9-1.3-1.6-2.4-1.6v7.8h-2.8v-7.8c-1.1 0-2 .7-2.4 1.6-.3-.9-1.3-1.6-2.4-1.6v7.8h-.1v57.9h58.1v-57.9zM280 207.3v-7.8c-1.1 0-2 .7-2.4 1.6-.3-.9-1.3-1.6-2.4-1.6v7.8h-2.8v-7.8c-1.1 0-2 .7-2.4 1.6-.3-.9-1.3-1.6-2.4-1.6v7.8h-2.8v-7.8c-1.1 0-2 .7-2.4 1.6-.3-.9-1.3-1.6-2.4-1.6v7.8h-2.8v-7.8c-1.1 0-2 .7-2.4 1.6-.3-.9-1.3-1.6-2.4-1.6v7.8h-2.8v-7.8c-1.1 0-2 .7-2.4 1.6-.3-.9-1.3-1.6-2.4-1.6v7.8H242v-7.8c-1.1 0-2 .7-2.4 1.6-.3-.9-1.3-1.6-2.4-1.6v7.8h-2.8v-7.8c-1.1 0-2 .7-2.4 1.6-.3-.9-1.3-1.6-2.4-1.6v7.8h-2.8v-7.8c-1.1 0-2 .7-2.4 1.6-.3-.9-1.3-1.6-2.4-1.6v65.7h58.1l-.1-57.9z"/><path fill="#170000" d="M204.6 121.3c-4.6-1.9-6.3-8.6-6.5-10.6h-.1c-.2 2-1.9 8.7-6.5 10.6-5.4 2.2-6.9 8.8-6.9 12.9 0 3.7 11.1.8 13.5.1 2.3.6 13.5 3.6 13.5-.1-.1-4.1-1.7-10.7-7-12.9z" opacity=".2"/><circle fill="#EDB22F" cx="198.1" cy="135.5" r="13.5"/><path fill="#494949" d="M209.6 135.5c0 6.4-5.2 11.6-11.6 11.6-6.4 0-11.6-5.2-11.6-11.6 0-6.4 5.2-11.6 11.6-11.6 6.4.1 11.6 5.2 11.6 11.6z"/><path fill="#C91E2B" d="M188.1 182.5c-.1 0-.2 0-.3-.1v-15.6s.1-.1.3-.1h1.3l.2-1.2c.3-1.5 1.3-4.2 4.2-5.2 2.2-.8 3.7-2.4 4.6-4.1.9 1.7 2.4 3.3 4.6 4.1 2.9 1 3.9 3.7 4.2 5.2l.2 1.2h1.3c.1 0 .2 0 .3.1v15.6s-.1.1-.3.1h-20.6z"/><path fill="#FFF" d="M198.4 158.9c1 1.2 2.4 2.3 4.1 2.9 2.1.7 3 2.7 3.3 4.2l.5 2.3h1.3v12.8h-18.4v-12.8h1.3l.5-2.3c.3-1.5 1.1-3.4 3.3-4.2 1.7-.6 3.1-1.7 4.1-2.9m0-6.7c-.2 1.3-1.5 5.6-5.1 6.8-3.2 1.1-4.6 3.9-5.1 6.3h-.1c-.9 0-1.7.6-1.7 1.4v15.7c0 .8.8 1.4 1.7 1.4h20.7c.9 0 1.7-.6 1.7-1.4v-15.7c0-.8-.8-1.4-1.7-1.4h-.1c-.5-2.4-1.9-5.2-5.1-6.3-3.7-1.1-5-5.4-5.2-6.8z"/><path fill="#C91E2B" d="M198.2 37.7l2.1 4.2 4.6.7-3.3 3.2.8 4.6-4.2-2.1-4.1 2.1.8-4.6-3.3-3.2 4.6-.7z"/><path fill="#494949" d="M200.5 169.4v-5.1c0-1.1-.9-2.1-2.1-2.1-1.1 0-2.1.9-2.1 2.1v5.1h4.2z"/><path opacity=".3" fill="#170000" d="M182.5 163.9v-7c0-1.6-1.3-2.8-2.8-2.8-1.6 0-2.8 1.3-2.8 2.8v7h5.6zM219.3 163.9v-7c0-1.6-1.3-2.8-2.8-2.8-1.6 0-2.8 1.3-2.8 2.8v7h5.6z"/><path fill="#EDB22F" d="M198.6 134.9c0 .4-.3.6-.6.6-.4 0-.6-.3-.6-.6V126c0-.4.3-.6.6-.6.4 0 .6.3.6.6v8.9z"/><path fill="#EDB22F" d="M202.5 132.6c.2-.1.5.1.6.4.2.3.1.7-.1.7l-5.1 2.4c-.2.1-.5-.1-.6-.4-.1-.3-.1-.7.1-.8l5.1-2.3z"/><path opacity=".3" fill="#170000" d="M173.7 149.4l-4.6-7.8v66.6h4.6zM222.5 149.4v58.8h4.7v-66.6z"/><path opacity=".2" fill="#170000" d="M166.6 207.4h63.1v57.9h-63.1z"/><path opacity=".3" fill="#170000" d="M227.1 203.2v-8.3c-1.1 0-2 .7-2.4 1.7-.3-1-1.3-1.7-2.4-1.7v8.3h-2.8v-8.3c-1.1 0-2 .7-2.4 1.7-.3-1-1.3-1.7-2.4-1.7v8.3h-2.8v-8.3c-1.1 0-2 .7-2.4 1.7-.3-1-1.3-1.7-2.4-1.7v8.3h-2.8v-8.3c-1.1 0-2 .7-2.4 1.7-.3-1-1.3-1.7-2.4-1.7v8.3h-2.8v-8.3c-1.1 0-2 .7-2.4 1.7-.3-1-1.3-1.7-2.4-1.7v8.3h-2.8v-8.3c-1.1 0-2 .7-2.4 1.7-.3-1-1.3-1.7-2.4-1.7v8.3h-2.8v-8.3c-1.1 0-2 .7-2.4 1.7-.3-1-1.3-1.7-2.4-1.7v8.3H174v-8.3c-1.1 0-2 .7-2.4 1.7-.3-1-1.3-1.7-2.4-1.7v8.3h-.1V264h58v-60.8z"/><path fill="#A80C26" d="M227.1 204.4V196c-1.1 0-2 .7-2.4 1.7-.3-1-1.3-1.7-2.4-1.7v8.3h-2.8V196c-1.1 0-2 .7-2.4 1.7-.3-1-1.3-1.7-2.4-1.7v8.3h-2.8V196c-1.1 0-2 .7-2.4 1.7-.3-1-1.3-1.7-2.4-1.7v8.3h-2.8V196c-1.1 0-2 .7-2.4 1.7-.3-1-1.3-1.7-2.4-1.7v8.3h-2.8V196c-1.1 0-2 .7-2.4 1.7-.3-1-1.3-1.7-2.4-1.7v8.3h-2.8V196c-1.1 0-2 .7-2.4 1.7-.3-1-1.3-1.7-2.4-1.7v8.3h-2.8V196c-1.1 0-2 .7-2.4 1.7-.3-1-1.3-1.7-2.4-1.7v8.3H174V196c-1.1 0-2 .7-2.4 1.7-.3-1-1.3-1.7-2.4-1.7v8.3h-.1v60.8h58v-60.7z"/><path opacity=".3" fill="#170000" d="M212.2 265.3v-29.6c0-7.4-6-13.4-13.4-13.4s-13.4 6-13.4 13.4v29.6h26.8z"/><path fill="#FF9517" d="M210.3 265.2v-28.5c0-6.4-5.2-11.5-11.5-11.5-6.4 0-11.5 5.2-11.5 11.5v28.5h23z"/><path opacity=".3" fill="#170000" d="M198.8 225.2s-.1 0 0 0l-.1 40h11.6v-28.5c0-6.3-5.2-11.5-11.5-11.5z"/><path opacity=".2" fill="#170000" d="M197.7 246.5c0 .8-.6 1.4-1.4 1.4-.8 0-1.4-.6-1.4-1.4 0-.8.6-1.4 1.4-1.4.8 0 1.4.6 1.4 1.4zM202.5 246.5c0 .8-.6 1.4-1.4 1.4-.8 0-1.4-.6-1.4-1.4 0-.8.6-1.4 1.4-1.4.8 0 1.4.6 1.4 1.4z"/><g><path fill="#0CAA75" d="M98.7 153.5l7.9-17 7.9 17z"/><path opacity=".2" fill="#170000" d="M111.2 153.5l-4.6-17 7.9 17z"/><path opacity=".2" fill="#170000" d="M98.8 153.5h3.4l4.5-17"/><path fill="#088457" d="M98.8 165.1l-6.5 30.1H121l-6.6-30.1z"/><path fill="#A80C26" d="M92.4 194.8h28.7V221H92.4z"/><path fill="#C91E2B" d="M121.1 207.7H92.3l-3-4.1v61.5h34.9v-61.5zM97.2 153.2h18.9v19.5H97.2z"/><path opacity=".3" fill="#170000" d="M97.2 153.9h18.9v1H97.2z"/><path fill="#0CAA75" d="M97.2 153.2h18.9v1H97.2z"/><path fill="#D3CBCB" d="M92.4 199.9h28.7v3.6H92.4z"/><path opacity=".3" fill="#170000" d="M109.5 169.2v-7c0-1.6-1.3-2.8-2.8-2.8-1.6 0-2.9 1.3-2.9 2.8v7h5.7zM103.6 190.6v-5.1c0-1.1-.9-2.1-2.1-2.1-1.1 0-2.1.9-2.1 2.1v5.1h4.2zM112.6 190.6v-5.1c0-1.1-.9-2.1-2.1-2.1-1.1 0-2.1.9-2.1 2.1v5.1h4.2zM124.2 214.8v-11.2l-3.1 4.1H92.3l-3-4.1v11.2z"/></g><g><path fill="#0CAA75" d="M282.4 153.5l7.9-17 7.8 17z"/><path opacity=".2" fill="#170000" d="M294.8 153.5l-4.5-17 7.8 17zM282.5 153.5h3.3l4.5-17"/><path fill="#088457" d="M282.4 165.1l-6.5 30.1h28.7l-6.5-30.1z"/><path fill="#A80C26" d="M276 194.8h28.7V221H276z"/><path fill="#C91E2B" d="M304.8 207.7H276l-3.1-4.1v61.5h34.9v-61.5zM280.8 153.2h18.9v19.5h-18.9z"/><path opacity=".3" fill="#170000" d="M280.8 153.9h18.9v1h-18.9z"/><path fill="#0CAA75" d="M280.8 153.2h18.9v1h-18.9z"/><path fill="#D3CBCB" d="M276 199.9h28.7v3.6H276z"/><path opacity=".3" fill="#170000" d="M293.1 169.2v-7c0-1.6-1.3-2.8-2.8-2.8-1.6 0-2.8 1.3-2.8 2.8v7h5.6zM287.3 190.6v-5.1c0-1.1-.9-2.1-2.1-2.1-1.1 0-2.1.9-2.1 2.1v5.1h4.2zM296.3 190.6v-5.1c0-1.1-.9-2.1-2-2.1s-2.1.9-2.1 2.1v5.1h4.1zM307.8 214.8v-11.2l-3 4.1H276l-3.1-4.1v11.2z"/></g><path opacity=".3" fill="#FFF" d="M203.2 218c0 1.2-1 2.2-2.2 2.2h-4.4c-1.2 0-2.2-1-2.2-2.2v-8.4c0-1.2 1-2.2 2.2-2.2h4.4c1.2 0 2.2 1 2.2 2.2v8.4z"/><path fill="#FFF" d="M320.3 254.8c-6.3-3.3-13.6-2.5-18.8 1.8-3.5-4-8.7-6-13.9-4.7-2.1.6-4 1.6-5.6 3.1-1.8-6-7.7-9.7-13.3-8.3-2.4.6-4.4 2.1-5.8 4.1-1.8-.6-3.7-.6-5.6-.2-2.2.6-4.1 1.8-5.5 3.6-5.9-4.7-13.5-6.7-20.9-4.8-2.7.7-5.2 1.9-7.4 3.4-5.3-3.2-11.7-4.3-17.9-2.7-6.2 1.6-11.2 5.7-14.4 11-4-2.4-8.6-3.3-13.3-2.1-2.2.6-4.2 1.6-6 2.9-2.7-1.2-5.8-1.6-8.8-.8-2.1.6-4 1.6-5.6 3.1-1.8-6-7.7-9.7-13.3-8.3-2.4.6-4.4 2.1-5.8 4.1-1.8-.6-3.7-.6-5.6-.2-2.2.6-4.1 1.9-5.4 3.6-5.9-4.7-13.5-6.7-20.9-4.8-2.7.7-5.2 1.9-7.4 3.4-5-2.9-10.8-4.1-16.6-3v18.1h237.8v-22.3z"/><g><path fill="#E6E6E6" d="M302.1 141.8l3.1.2 25.9-2s44.7 19.5 49 21.5c4.3 2 7.8 4.6 10.7 10.7 2.5 5.2 5.2 42 7.6 50.2H302v-80.6z"/><path fill="#E6E6E6" d="M307 141.8l-2.2.2-25.4-2s-44.4 19.5-48.8 21.5c-4.3 2-7.7 4.6-10.6 10.7-2.5 5.2-5 42-7.5 50.2H307v-80.6z"/><path fill="#E6E6E6" d="M237.5 201H378v97.2H237.5z"/><path fill="#FDDBA4" d="M302.1 169.2v-27.4l3.1.2 25.9-2s11.2 4.8 15.5 6.8"/><path fill="#FDDBA4" d="M307 170.8v-29l-2.2.2-25.4-2s-9.9 4.8-14.2 6.8"/><path fill="#FDDBA4" d="M275.4 130h59.4v61.5h-59.4z"/><path fill="#E4E4E4" d="M305.5 170.8l-40.3-24 13.3 94.7h54l13.3-94.7z"/><path fill="#FDDBA4" d="M343 104.9c-.1 1.5-1.5 2.6-3 2.5h-.3c-1.5-.1-2.6-1.5-2.5-3l1.1-11.9c.1-1.5 1.5-2.6 3-2.5h.3c1.5.1 2.6 1.5 2.5 3l-1.1 11.9zM268.1 104.9c.1 1.5 1.5 2.6 3 2.5h.3c1.5-.1 2.6-1.5 2.5-3l-1.1-11.9c-.1-1.5-1.5-2.6-3-2.5h-.3c-1.5.1-2.6 1.5-2.5 3l1.1 11.9z"/><path fill="#FDDBA4" d="M305.4 50.4h-.8c-19.5 0-35.3 21.3-35.3 47.6 2.1 14.6 6.7 31.8 11.2 36.3 6.8 6.8 17.8 10.5 24 9 .1 0 .1 0 .1.1v.1-.1s.4 0 .5-.1c6.2 1.6 17.4-2.1 24.2-9 4.5-4.5 9.2-21.6 11.3-36.3 0-26.3-15.7-47.6-35.2-47.6z"/><path fill="#FF8080" d="M294.2 112.2c0 4.5-3.7 8.2-8.2 8.2-4.5 0-8.2-3.7-8.2-8.2 0-4.5 3.7-8.2 8.2-8.2 4.6 0 8.2 3.7 8.2 8.2zM332.1 112.2c0 4.5-3.7 8.2-8.2 8.2-4.5 0-8.2-3.7-8.2-8.2 0-4.5 3.7-8.2 8.2-8.2 4.5 0 8.2 3.7 8.2 8.2z"/><path fill="#FFF" d="M329.8 96.4c0 1.8-3.7 3.2-8.3 3.2-4.6 0-8.3-1.5-8.3-3.2 0-1.8 3.7-3.2 8.3-3.2 4.6 0 8.3 1.4 8.3 3.2M295.5 96.4c0 1.8-3.7 3.2-8.3 3.2-4.6 0-8.3-1.5-8.3-3.2 0-1.8 3.7-3.2 8.3-3.2 4.6 0 8.3 1.4 8.3 3.2"/><path opacity=".2" fill="#14120E" d="M309.7 113.6c0 2.2-1.9 3.9-4.2 3.9h-.1c-2.3 0-4.2-1.8-4.2-3.9V96.1c0-2.2 1.9-3.9 4.2-3.9h.1c2.3 0 4.2 1.8 4.2 3.9v17.5z"/><path fill="#FFF" d="M288.4 95.6c0 .3-.3.6-.6.6s-.6-.3-.6-.6.3-.6.6-.6c.4 0 .6.3.6.6"/><path fill="#422902" d="M323.7 96.4c0 1.3-1.1 2.4-2.4 2.4s-2.4-1.1-2.4-2.4c0-1.3 1.1-2.4 2.4-2.4s2.4 1.1 2.4 2.4"/><path fill="#FFF" d="M321.1 95.5c0 .4-.3.7-.7.7-.4 0-.7-.3-.7-.7 0-.4.3-.7.7-.7.4 0 .7.3.7.7"/><path fill="#422902" d="M289.6 96.4c0 1.3-1 2.4-2.4 2.4-1.3 0-2.4-1.1-2.4-2.4 0-1.3 1.1-2.4 2.4-2.4 1.3.1 2.4 1.1 2.4 2.4"/><path fill="#FFF" d="M287 95.5c0 .4-.3.7-.7.7-.4 0-.7-.3-.7-.7 0-.4.3-.7.7-.7.4 0 .7.3.7.7"/><path fill="#422902" d="M295.5 88.3c0 1-1 1.8-2.1 1.8l-13.1-.3c-1.2 0-2.1-.9-2-1.9 0-1 1-1.8 2.1-1.8l13.1.3c1.1 0 2 .9 2 1.9zM332.3 88.3c0 1-1 1.8-2.1 1.8l-13.2-.4c-1.2 0-2.1-.9-2.1-1.9 0-1 1-1.8 2.1-1.8l13.1.3c1.3.1 2.2 1 2.2 2z"/><path opacity=".1" fill="#010000" d="M272.2 95.6c-1.3-7.4 5.8-24.4 6.6-25.7 4.4 2 13.2 2.5 14.7 1.2 3.5 2.5 12.4 8.6 25.2 1.3 5.6-3.4 10.7-3.2 11.6-3.1.9.1 7.4 17 7.4 27.4 1.1.9 1.7 2 1.7 2s3.1-34.2-.4-37.5c-3.5-3.2-9.2-8.2-15.8-10.9-6.6-2.7-8.8-7.2-8.8-8.5-.7 3.8-.4 6.2-.1 6.6-5.3-3.8-8.6-9.1-8.4-12.5-4.5-.1-14.2 7.1-16 9.4-2.8-.3-16.6 10.1-19.1 14.8-2.5 4.6-1.2 35.1 0 37.2.2-.6.8-1.4 1.4-1.7z"/><path fill="#77513B" d="M272 94.4c-1.3-7.8 5.8-25.5 6.7-26.8 4.4 2.1 13.2 2.6 14.7 1.2 3.5 2.7 12.4 9 25.2 1.3 5.6-3.5 10.7-3.4 11.6-3.2.9.1 7.5 17.8 7.5 28.7 1.1 1 1.7 2.1 1.7 2.1s3.1-35.8-.4-39.2c-3.5-3.4-9.2-8.6-15.8-11.4-6.6-2.8-8.8-7.5-8.8-8.8-.7 4-.4 6.5-.1 6.9-5.3-4-8.6-9.6-8.4-13-4.5-.1-14.3 7.4-16 9.8-2.8-.3-16.6 10.6-19.1 15.5s-1.2 36.7 0 38.9c0-.8.5-1.6 1.2-2z"/><path opacity=".2" fill="#010000" d="M272.8 131.3c0 12.7 22.7 24.1 32.5 24.1h.3c10.1 0 32.5-13 32.5-25.7V116c3.3-8.7-11.7 3.5-29.2 3.5h-2.5c-19.6 0-33.3-14.5-33.6-5.8v17.6z"/><path fill="#77513B" d="M272.8 130c0 12.6 22.7 25.4 32.5 25.4h.3c10.1 0 32.5-15.7 32.5-28.4v-13.7c3.3-8.7-11.7 6.2-29.2 6.2h-2.5c-19.6 0-33.3-15.2-33.6-6.5v17z"/><path fill="#FFF" d="M319.2 122.2c0 4.4-6.1 7.9-13.7 7.9s-13.7-3.5-13.7-7.9 6.1-.5 13.7-.5 13.7-3.9 13.7.5"/><path fill="#CCC" d="M305.1 272.9h2.3v25.3h-2.3z"/><path opacity=".2" fill="#201600" d="M256.7 230.7s11.7-3.4 13-4.2c1.3-.8 7.4 5.4 7.6 5.9.2.5 3.3 11.3 3.3 11.3l-23.9-10.9v-2.1z"/><g fill="#63402E"><path d="M338.6 105.5s-11.1 15.2-29.2 8c-8 0-7 7.8-1.2 8.7 9.8 1.5 30.5.3 30.4-15.9"/><path d="M272.5 105.5s11.1 15.2 29.2 8c8 0 7 7.8 1.2 8.7-9.8 1.5-30.5.3-30.4-15.9"/></g><path fill="#FF8080" d="M309.7 111.7c0 2.3-1.9 4.2-4.2 4.2h-.1c-2.3 0-4.2-1.9-4.2-4.2V93c0-2.3 1.9-4.2 4.2-4.2h.1c2.3 0 4.2 1.9 4.2 4.2v18.7z"/><path fill="#FDDBA4" d="M272.4 228.2c-1.8-.9-8.8 4.4-20.1 4.1-11.4-.3-11.3 22.6-10.5 22.6.8 0 36.4-2.7 36.4-2.7l-5.8-24z"/><path opacity=".3" fill-rule="evenodd" clip-rule="evenodd" d="M314.8 87.7c-2.3.7-4.1 1.2-5.6 1.5-3.3.8-4 .8-7.3 0-1.5-.4-3.3-.8-5.6-1.5-6-1.9-18.1-2-27.6.3l.3 4.3s1.8-.6 2.7 5c.9 5.6 1.7 13.4 14.6 13.6 12.9.2 15.5-11.5 16.2-13.2.7-1.7.9-2.9 1.7-3.3 1-.4 1.8-.4 2.8 0 .8.4 1 1.6 1.7 3.3.7 1.7 3.4 13.4 16.2 13.2 12.9-.2 13.7-8 14.6-13.6.9-5.6 2.7-5 2.7-5l.3-4.3c-9.5-2.2-21.6-2.1-27.7-.3zm-15.8 12c-2.6 8-8.5 9.8-13.3 9.6-4.5-.2-7.8-1.5-10.1-5.6-1.7-3-2.6-6.9-1.3-10.5.9-2.6 3.5-3.9 6.1-4.5 4-.9 11.4-.7 15.1 1 3 1.4 5.3 4.3 3.5 10zm36.7 4.1c-2.3 4.1-5.6 5.4-10.1 5.6-4.7.2-10.6-1.6-13.3-9.6-1.9-5.7.5-8.6 3.5-10 3.7-1.7 11.1-1.9 15.1-1 2.6.6 5.2 1.8 6.1 4.5 1.2 3.5.3 7.5-1.3 10.5z"/><path opacity=".2" fill="#201600" d="M384.6 298.1c1-2.4 1-5 .1-7.3-.5-3-2.5-5.6-5.4-6.9-3.7-1.7-7.8-.8-10.6 1.8-2-1.7-4.8-2.3-7.4-1.3-1.1.4-2 1.1-2.8 1.9-1.2-2.8-4.4-4.2-7.3-3.1-1.2.5-2.2 1.3-2.9 2.4-1-.1-1.9-.1-2.9.3-1.1.4-2 1.2-2.7 2.1-3.3-1.9-7.3-2.3-11.1-.9-1.4.5-2.6 1.3-3.7 2.2-2.9-1.2-6.3-1.3-9.5-.1s-5.6 3.5-7 6.3c-2.2-.9-4.6-1-7-.1-1.5.6-2.7 1.5-3.7 2.6h83.9z"/><path opacity=".2" fill="#201600" d="M332.4 298.1c-1.8-1.7-4.4-2.7-7.2-2.6-1.5.1-3 .5-4.3 1.1-.4-3.7-3.8-6.6-7.9-6.4-1.7.1-3.3.7-4.6 1.7-1.1-.5-2.4-.8-3.8-.8-1.6.1-3.1.6-4.2 1.4-3.3-3.4-8.2-5.5-13.5-5.3-1.9.1-3.8.5-5.5 1.1-3.2-2.5-7.3-3.9-11.8-3.7-4.5.2-8.5 2-11.4 4.7-2.3-1.9-5.4-2.9-8.7-2.8-5.9.3-10.6 4.2-11.8 9.4-2.1-1.3-4.7-2-7.5-1.9-3.5.2-6.5 1.6-8.7 3.8h110.9z"/><path fill="#FFF" d="M314 306.3c-1.5-4.6-4.7-7.7-8.4-7.4-2 .1-3.9 1.3-5.4 3.1-1.3-1-2.8-1.5-4.4-1.4-1.9.1-3.6 1.1-5 2.6-3.9-6.2-9.6-10-15.9-9.6-2.3.1-4.5.8-6.5 2-3.7-4.5-8.6-7.1-13.9-6.8-5.2.3-9.9 3.6-13.4 8.5-2.7-3.4-6.3-5.3-10.2-5.1-6.1.4-11.2 6.2-13.2 14.1H314z"/><path fill="#FFF" d="M227.1 298.1c-1.2-.3-2.4-.4-3.7-.4-.9 0-1.7.2-2.5.4h6.2zM393.3 306.3c.3-2.7 0-5.4-.7-7.9-.6-4.8-2.8-9.2-6.1-11.4-4.1-2.7-8.9-1.3-12 3-2.2-2.8-5.4-3.8-8.4-2.1-1.2.7-2.3 1.8-3.1 3.1-1.4-4.6-5-6.8-8.3-5-1.4.8-2.5 2.2-3.2 3.9-1.1-.2-2.2-.1-3.3.5-1.3.7-2.3 1.9-3 3.4-3.7-3-8.3-3.8-12.5-1.4-1.6.9-3 2.1-4.2 3.5-3.3-1.9-7.1-2.1-10.7-.1-3.6 2-6.3 5.8-7.9 10.4-2.4-1.4-5.2-1.6-7.9-.1-.1.1-.2.1-.4.2h91.7z"/><g fill="#515151"><path d="M274.7 88.2c0 .4-1 .8-2.3.8-1.3 0-2.3-.3-2.3-.7 0-.4 1-.8 2.3-.8 1.2 0 2.3.3 2.3.7M341.5 88.2c0 .4-1 .8-2.3.8-1.3 0-2.3-.3-2.3-.7 0-.4 1-.8 2.3-.8 1.2 0 2.3.3 2.3.7"/><path fill-rule="evenodd" clip-rule="evenodd" d="M268.8 86.4l.3 4.3s1.8-.6 2.7 5c.9 5.6 1.7 13.4 14.6 13.6 12.9.2 15.5-11.5 16.2-13.2.7-1.7.9-2.9 1.7-3.3 1-.5 1.8-.5 2.8 0 .8.4 1 1.6 1.7 3.3.7 1.7 3.4 13.4 16.2 13.2 12.9-.2 13.7-8 14.6-13.6.9-5.6 2.7-5 2.7-5l.3-4.3c-9.5-2.2-21.6-2.1-27.6-.3-2.3.7-4.1 1.2-5.6 1.5-3.3.8-4 .8-7.3 0-1.5-.3-3.3-.9-5.6-1.5-6.2-1.8-18.2-1.9-27.7.3m11.6.8c-2.6.6-5.2 1.8-6.1 4.5-1.3 3.6-.4 7.6 1.3 10.5 2.3 4.1 5.6 5.4 10.1 5.6 4.7.2 10.6-1.6 13.3-9.6 1.9-5.7-.5-8.6-3.5-10-3.7-1.8-11.1-1.9-15.1-1m50.4 0c2.6.6 5.2 1.8 6.1 4.5 1.3 3.6.4 7.6-1.3 10.5-2.3 4.1-5.6 5.4-10.1 5.6-4.7.2-10.6-1.6-13.3-9.6-1.9-5.7.5-8.6 3.5-10 3.8-1.8 11.2-1.9 15.1-1m8.3.5c-1-.1-1.9.2-1.9.5s.8.6 1.9.7c1 .1 1.9-.2 1.9-.5-.1-.3-.9-.6-1.9-.7m-67 0c1-.1 1.9.2 1.9.5s-.8.6-1.9.7c-1 .1-1.9-.2-1.9-.5.1-.3.9-.6 1.9-.7"/></g><path opacity=".2" fill="#201600" d="M249.5 287.1c-15.7 0-43.7-4.9-36.1-50.4 2-11.6 1.5-19.6 5.8-41.6l34.4 3.8c-.1 20.7 3.1 27.8 3 33.3-1 .2-2.2.3-3.1.3-1.7 0-.9 3.4-1.2 5.3-.9 7.3-2.9 12.5-1.8 16.1 1.4.6 4.7 1.9 21.5 0 18.2-2.1 24.8-5.5 60.3-15.5l28.2 22.6c-37.1 17-67.5 22.1-88.2 24.2-5.1.4-18.3 1.9-22.8 1.9z"/><path fill="#E6E6E6" d="M247.1 283.8c-15.7 0-43.7-4.9-36.1-50.4 2-11.6 1.5-19.6 5.8-41.6l37.5-1.6c1.9 19.6-4 51.3-6.1 60.3 1.4.6 4.7 1.9 21.5 0 18.2-2.1 24.8-5.5 60.3-15.5l28.2 22.6c-37.1 17-67.5 22.1-88.2 24.2-5.2.5-18.4 2-22.9 2z"/><path fill="#201600" d="M222.4 270.1c-6.3-5.9-7.7-9.8-6.7-29.4.5-10.1-1.5-26.2 1.6-34.6 3.1-8.4 1-22.4 7.7-33.9 4.9-8.4 32.9-21.2 43.9-27.5-13.4 5.9-35.2 15.5-38.2 16.9-4.3 2-7.7 4.6-10.6 10.7-1.1 2.2-2.2 10.4-3.2 19.6-4.3 22-3.8 30-5.8 41.6-7.7 45.6 20.3 50.4 36.1 50.4 4.5 0 17.7-1.5 22.9-2 17-1.7 40.7-5.5 69.2-16.2.2-.7.3-1.4.5-2.1-3.9.9-8.4 2.1-13.9 3.7-62.7 18.7-88.4 17-103.5 2.8z" opacity=".1"/><path opacity=".2" fill="#201600" d="M264.1 254s-2.8-.5-5.6-.3-7.6-1.3-8.1-1.9c-.5-.6 13.9-.3 13.9-.3l-.2 2.5z"/><path fill="#FDDBA4" d="M266.8 249.8c-.7.2.8 3.3.2 3.2-9.3-1.6-14 2-18.8-2.5 1.5-3.4 9.5-2.8 9.5-2.8s9.7 1.9 9.1 2.1z"/><path opacity=".2" fill="#201600" d="M360.1 273.8c-12 0-26.9-1.8-45.8-4-14.4-1.7-33.1-7.5-52-9.1l2.5-9.4c19.5 1.7 39.1-19.4 53.8-17.7 15.5 1.8 27.7 3.2 37.2 3.6 7.1.3 10.8-.2 12.6-.5.1-2-6.4-4.4-8.1-11.8-2.1-9.4-4.1-12-2.1-36.1l32.4-12.5c8.3 23.9 10.8 33.5 12.9 45.3 1.9 10.8 3.3 26.6-6.3 38.5-9.7 12.1-25.4 13.6-36.4 13.7h-.7z"/><path fill="#E6E6E6" d="M361.7 268.6c-11.8 0-26.1-1.8-43.4-4-15.7-2-33.5-4.3-54.7-6.1l3.4-32.2c22 1.9 40.8 3.7 56.1 5.7 17.4 2.2 36.8 1.2 44.5 0-9.3-11.9-9.1-37.5-8.2-51.4l31.7-8.5c16.6 47.7 18.6 67.3 5.4 83.6-7.9 9.7-19.2 12.9-34.8 12.9z"/><path opacity=".1" fill="#201600" d="M391.5 173.6c-.2-.6-.3-1.1-.5-1.4-2.9-6.1-6.3-8.7-10.6-10.7s-14-8.1-30.8-13.5c17.6 9.8 14.9 7.1 32.5 22.2 15.7 13.4 15.4 41 15.9 50.2.5 9.1 6.2 18.9 0 25.9s-.4 10-12.6 14.5-23.6 5-53.3 0c-29.7-5-61.3-2.7-66.9-2.1 20.5 1.8 37.8 4 53.2 5.9 17.3 2.2 31.6 4 43.4 4 15.6 0 26.8-3.2 34.7-12.9 13-16.1 11.1-35.4-5-82.1z"/><path opacity=".1" d="M374.5 222.1l-10.3 8.9c-.1-.1-.2-.2-.3-.4l15-13c1.4-1.2 1.5-3.4.2-4.8s-3.5-1.6-4.9-.4l-15.1 13-.3-.3-.1-.1 17.4-15c1.4-1.2 1.5-3.4.2-4.8s-3.5-1.6-4.9-.4L352.5 221c-.2.2-.4.4-.5.6-.3-.1-.5-.3-.5-.5l14.1-12.2c1.4-1.2 1.5-3.4.2-4.8s-3.5-1.6-4.9-.4L346.6 216c-.3.3-.6.6-.7 1-.4.2-.8.5-1.2.9l-7 6.1c-5.3 4.6-12.9 16.6-7.4 22.6s22 3.9 27.3-.8l7-6.1c.5-.5 1-.9 1.3-1.4L379 227c1.3-1.2 1.4-3.2.2-4.6-1.3-1.3-3.3-1.5-4.7-.3z"/><path fill="#FDDBA4" d="M357.1 247.5c-5.4 4.5-21.9 6.3-27.3.1-5.3-6.2 2.5-17.9 7.9-22.4l9.1-7.8c2.9-2.4 3.2-.1 5.5 1.9 1.1.9-4 5.2 3.3 3.6 1.6-.3 2.1 2.5 3.2 3.9.9 1 1.8 2 2.6 2.9 1.4 1.5 2.7 3 3.6 4.3 1.8 2.7 2.2 5.1-.8 7.6l-7.1 5.9z"/><path fill="#FDDBA4" d="M366 210.8c1.4-1.2 1.6-3.4.3-4.8-1.3-1.5-3.5-1.7-4.9-.5l-14.5 11.9c-1.4 1.2-1.6 3.4-.3 4.8 1.3 1.5 3.5 1.7 4.9.5l14.5-11.9zM376.5 212.2c1.4-1.2 1.6-3.4.3-4.8-1.3-1.5-3.5-1.7-4.9-.5l-19.2 15.8c-1.4 1.2-1.6 3.4-.3 4.8 1.3 1.5 3.5 1.7 4.9.5l19.2-15.8zM379.2 219.9c1.4-1.2 1.6-3.4.3-4.8-1.3-1.5-3.5-1.7-4.9-.5l-17.8 14.6c-1.4 1.2-1.6 3.4-.3 4.8 1.3 1.5 3.5 1.7 4.9.5l17.8-14.6zM379 229.2c1.4-1.1 1.5-3.2.3-4.5-1.2-1.4-3.3-1.6-4.6-.5l-14 11.5c-1.4 1.1-1.5 3.2-.3 4.5 1.2 1.4 3.3 1.6 4.6.5l14-11.5z"/><path opacity=".1" d="M362.1 206.3c-1.1.9-.7 2.1.2 3.2.9 1.1 2 1.8 3.1.9s1.3-2.6.4-3.7-2.5-1.3-3.7-.4z"/><g opacity=".1"><path d="M357.6 209.8c-.1.1-.1.2 0 .4l2.9 3.7c.1.1.2.1.4 0 .1-.1.1-.2 0-.4l-2.9-3.7c-.1 0-.2-.1-.4 0zM356.8 210.5c-.1.1-.1.2 0 .4l2.9 3.7c.1.1.2.1.4 0 .1-.1.1-.2 0-.4l-2.9-3.7c-.1-.1-.3-.1-.4 0zM355.8 211.3c-.1.1-.1.2 0 .4l2.9 3.7c.1.1.2.1.4 0 .1-.1.1-.2 0-.4l-2.9-3.7h-.4z"/></g><path opacity=".1" d="M372.3 208c-1.1.9-.7 2.1.2 3.2.9 1.1 2 1.8 3.1.9s1.3-2.6.4-3.7-2.5-1.3-3.7-.4z"/><g opacity=".1"><path d="M367.8 211.5c-.1.1-.1.2 0 .4l2.9 3.7c.1.1.2.1.4 0 .1-.1.1-.2 0-.4l-2.9-3.7c-.1-.1-.2-.1-.4 0zM367 212.2c-.1.1-.1.2 0 .4l2.9 3.7c.1.1.2.1.4 0 .1-.1.1-.2 0-.4l-2.9-3.7c-.2-.1-.3-.1-.4 0zM366 213c-.1.1-.1.2 0 .4l2.9 3.7c.1.1.2.1.4 0 .1-.1.1-.2 0-.4l-2.9-3.7c-.1-.1-.3-.1-.4 0z"/></g><g><path opacity=".1" d="M375.3 215.4c-1.1.9-.7 2.1.2 3.2.9 1.1 2 1.8 3.1.9s1.3-2.6.4-3.7c-1-1.1-2.6-1.3-3.7-.4z"/><g opacity=".1"><path d="M370.8 218.9c-.1.1-.1.2 0 .4l2.9 3.7c.1.1.2.1.4 0 .1-.1.1-.2 0-.4l-2.9-3.7c-.2-.1-.3-.1-.4 0zM369.9 219.6c-.1.1-.1.2 0 .4l2.9 3.7c.1.1.2.1.4 0 .1-.1.1-.2 0-.4l-2.9-3.7c-.1-.1-.3-.1-.4 0zM369 220.4c-.1.1-.1.2 0 .4l2.9 3.7c.1.1.2.1.4 0 .1-.1.1-.2 0-.4l-2.9-3.7c-.2-.1-.3-.1-.4 0z"/></g></g><g><path opacity=".1" d="M375.3 225.1c-1 .8-.7 1.9.1 2.9.8 1 1.8 1.6 2.8.8 1-.8 1.2-2.3.4-3.3-.8-1-2.3-1.2-3.3-.4z"/><g opacity=".1"><path d="M371.2 228.3c-.1.1-.1.2 0 .3l2.6 3.3c.1.1.2.1.3 0 .1-.1.1-.2 0-.3l-2.6-3.3c0-.1-.2-.1-.3 0zM370.4 228.9c-.1.1-.1.2 0 .3l2.6 3.3c.1.1.2.1.3 0 .1-.1.1-.2 0-.3l-2.6-3.3s-.2-.1-.3 0zM369.6 229.7c-.1.1-.1.2 0 .3l2.6 3.3c.1.1.2.1.3 0 .1-.1.1-.2 0-.3l-2.6-3.3c-.1-.1-.2-.1-.3 0z"/></g></g><path opacity=".2" fill="#201600" d="M377.3 230.1s-18.9 3.6-33.7 2.3c-14.8-1.3-14.7-.9-18.1-.2-3.4.7 13.8 6.4 13.8 6.4l38-8.5z"/><path fill="#E6E6E6" d="M318.2 238.1l6.7-5.9s29.8 3.5 42.7-.2c12.8-3.7 31-2.6 31-2.6s-31 31.2-42.1 31.3c-24.4.2-38.3-22.6-38.3-22.6z"/><path opacity=".2" fill="#201600" d="M250.6 248.5s-2.1.8-2.3 1.9c1.7 1.6 2.1 1.5 2.1 1.5s.1-2.9.2-3.4z"/><path fill="#C43D23" d="M305.5 170.8l-40.3-24-6.3 3.2 42 29.2h10.2l40.4-30.1-5.7-2.3z"/></g><path fill="#C43D23" d="M311.9 170.6h11.4v33.7h-11.4z"/><path fill="#FFF" d="M315.2 173.9h4.9v4.9h-4.9zM315.2 182h4.9v4.9h-4.9zM315.2 190.2h4.9v4.9h-4.9z"/></svg>