<svg baseProfile="basic" xmlns="http://www.w3.org/2000/svg" width="352" height="297" viewBox="0 0 352 297"><path fill="#F2F2F2" d="M.2 33.9h351.7v214.7H.2z"/><path fill="#464646" d="M352 34.6V13.8C352 6.6 346.6 0 339.4 0h-327C5.3 0 .3 6.6.3 13.8v20.9H352v-.1z"/><path fill="#FF555A" d="M27.6 19.4c0 3.8-3.1 7-7 7-3.8 0-7-3.1-7-7 0-3.8 3.1-7 7-7 3.9.1 7 3.2 7 7z"/><path fill="#09A5B5" d="M51.5 19.4c0 3.8-3.1 7-7 7-3.8 0-7-3.1-7-7 0-3.8 3.1-7 7-7 3.9.1 7 3.2 7 7z"/><path fill="#FFFFFD" d="M336 21.1c0 3.8-2.6 5.6-6.4 5.6H74.2c-3.8 0-7.2-1.7-7.2-5.6v-2.4c0-3.8 3.4-8 7.2-8h255.4c3.8 0 6.4 4.2 6.4 8v2.4z"/><g opacity=".5" fill="#999"><path d="M124.7 83.5v-10l-4.1 10h-1.9l-4.2-10v10h-4.1V68h5.3l3.8 9.2 3.7-9.2h5.4v15.5h-3.9zM131.8 75.8c0-4.4 3.1-8.1 8.2-8.1s8.2 3.7 8.2 8.1c0 4.4-3.1 8.1-8.2 8.1s-8.2-3.7-8.2-8.1zm12.2 0c0-2.4-1.4-4.5-4-4.5s-3.9 2.1-3.9 4.5 1.4 4.5 3.9 4.5 4-2.1 4-4.5zM151.2 83.5V68h4.1v9.3l6.4-9.3h4.1v15.5h-4.1v-9.7l-6.6 9.7h-3.9zm7.3-17c-2.3 0-4.3-1.1-5.6-2.8l1.8-1.5c.9 1.2 2.2 2 3.8 2 1.6 0 2.9-.7 3.8-2l1.8 1.5c-1.3 1.7-3.3 2.8-5.6 2.8zM168.8 75.8c0-4.7 3.4-8.1 8.2-8.1 3.2 0 5.1 1.4 6.1 2.8l-2.7 2.5c-.7-1.1-1.9-1.7-3.3-1.7-2.5 0-4.2 1.8-4.2 4.5s1.7 4.5 4.2 4.5c1.4 0 2.5-.6 3.3-1.7l2.7 2.5c-1 1.4-2.9 2.8-6.1 2.8-4.8 0-8.2-3.4-8.2-8.1zM195 83.5v-1.6c-1.1 1.2-2.9 2-4.9 2-2.5 0-5.4-1.7-5.4-5.1 0-3.6 2.9-5 5.4-5 2 0 3.9.7 4.9 1.9v-2.1c0-1.6-1.3-2.6-3.4-2.6-1.7 0-3.2.6-4.5 1.8l-1.5-2.7c1.9-1.7 4.3-2.4 6.8-2.4 3.5 0 6.8 1.4 6.8 5.9v10H195zm0-3.7v-1.9c-.7-.9-2-1.3-3.3-1.3-1.6 0-2.9.8-2.9 2.3 0 1.4 1.3 2.3 2.9 2.3 1.3-.1 2.6-.5 3.3-1.4zM203.1 83.5V68h4.1v9.3l6.4-9.3h4.1v15.5h-4.1v-9.7l-6.6 9.7h-3.9zm7.3-17c-2.3 0-4.3-1.1-5.6-2.8l1.8-1.5c.9 1.2 2.2 2 3.8 2 1.6 0 2.9-.7 3.8-2l1.8 1.5c-1.3 1.7-3.3 2.8-5.6 2.8zM224.5 83.5V71.6h-4.3V68h12.7v3.6h-4.3v11.9h-4.1zM235 81.3c0-1.4 1.2-2.6 2.6-2.6s2.6 1.2 2.6 2.6c0 1.4-1.2 2.6-2.6 2.6s-2.6-1.2-2.6-2.6zM247.7 81.5v7.9h-4.1V68h4.1v2c1.2-1.5 2.9-2.3 4.8-2.3 4 0 6.8 2.9 6.8 8.1 0 5.2-2.9 8.1-6.8 8.1-1.8 0-3.5-.8-4.8-2.4zm7.4-5.7c0-2.7-1.6-4.5-3.9-4.5-1.3 0-2.8.8-3.5 1.8v5.5c.7 1 2.2 1.8 3.5 1.8 2.4-.1 3.9-2 3.9-4.6zM262.4 85.9c.4.2.9.3 1.3.3 1.1 0 1.8-.3 2.1-1.1l.6-1.3-6.3-15.8h4.4l4 10.8 4-10.8h4.4l-7.3 18c-1.2 2.9-3.2 3.7-5.9 3.7-.5 0-1.5-.1-2-.2l.7-3.6zM277.7 75.8c0-4.7 3.4-8.1 8.2-8.1 3.2 0 5.1 1.4 6.1 2.8l-2.7 2.5c-.7-1.1-1.9-1.7-3.3-1.7-2.5 0-4.2 1.8-4.2 4.5s1.7 4.5 4.2 4.5c1.4 0 2.5-.6 3.3-1.7l2.7 2.5c-1 1.4-2.9 2.8-6.1 2.8-4.7 0-8.2-3.4-8.2-8.1z"/></g><g opacity=".5" fill="#999"><path d="M124.7 116.5v-10l-4.1 10h-1.9l-4.2-10v10h-4.1V101h5.3l3.8 9.2 3.7-9.2h5.4v15.5h-3.9zM142.1 116.5v-1.6c-1.1 1.2-2.9 2-4.9 2-2.5 0-5.4-1.7-5.4-5.1 0-3.6 2.9-5 5.4-5 2 0 3.9.7 4.9 1.9v-2.1c0-1.6-1.3-2.6-3.4-2.6-1.7 0-3.2.6-4.5 1.8l-1.5-2.7c1.9-1.7 4.3-2.4 6.8-2.4 3.5 0 6.8 1.4 6.8 5.9v10h-4.2zm0-3.7v-1.9c-.7-.9-2-1.3-3.3-1.3-1.6 0-2.9.8-2.9 2.3 0 1.4 1.3 2.3 2.9 2.3 1.3-.1 2.6-.5 3.3-1.4zM162.1 104.6h-7.9v11.9h-4.1V101H162v3.6zM174 116.5v-1.6c-1.1 1.2-2.9 2-4.9 2-2.5 0-5.4-1.7-5.4-5.1 0-3.6 2.9-5 5.4-5 2 0 3.9.7 4.9 1.9v-2.1c0-1.6-1.3-2.6-3.4-2.6-1.7 0-3.2.6-4.5 1.8l-1.5-2.7c1.9-1.7 4.3-2.4 6.8-2.4 3.5 0 6.8 1.4 6.8 5.9v10H174zm0-3.7v-1.9c-.7-.9-2-1.3-3.3-1.3-1.6 0-2.9.8-2.9 2.3 0 1.4 1.3 2.3 2.9 2.3 1.4-.1 2.6-.5 3.3-1.4zM180.5 114.4l1.9-2.5c1.4 1.2 3.5 1.8 5.3 1.8 2.1 0 3.2-.7 3.2-1.7 0-1.2-1.3-1.7-3.5-1.7h-3.2v-3.1h3.2c2.1 0 3.2-.6 3.2-1.7 0-.9-1.3-1.6-3.1-1.6-2 0-3.6.6-4.8 1.8l-2-2.4c1.5-1.5 3.7-2.6 6.6-2.6 4.8 0 7.6 1.6 7.6 4.2 0 2-2 3.3-4 3.6 1.9.1 4.4 1.3 4.4 3.7 0 2.7-2.8 4.6-7.5 4.6-3.3.1-5.8-.9-7.3-2.4zM198.2 116.5V101h4.1v9.3l6.4-9.3h4.1v15.5h-4.1v-9.7l-6.6 9.7h-3.9zM216.8 116.5V101h4.1v5.7h6.4V101h4.1v15.5h-4.1v-6.2h-6.4v6.2h-4.1zM234.8 114.3c0-1.4 1.2-2.6 2.6-2.6s2.6 1.2 2.6 2.6c0 1.4-1.2 2.6-2.6 2.6s-2.6-1.2-2.6-2.6zM247.6 114.5v7.9h-4.1V101h4.1v2c1.2-1.5 2.9-2.3 4.8-2.3 4 0 6.8 2.9 6.8 8.1 0 5.2-2.9 8.1-6.8 8.1-1.9 0-3.6-.8-4.8-2.4zm7.4-5.7c0-2.7-1.6-4.5-3.9-4.5-1.3 0-2.8.8-3.5 1.8v5.5c.7 1 2.2 1.8 3.5 1.8 2.3-.1 3.9-2 3.9-4.6zM262.3 118.9c.4.2.9.3 1.3.3 1.1 0 1.8-.3 2.1-1.1l.6-1.3L260 101h4.4l4 10.8 4-10.8h4.4l-7.3 18c-1.2 2.9-3.2 3.7-5.9 3.7-.5 0-1.5-.1-2-.2l.7-3.6zM277.6 108.8c0-4.7 3.4-8.1 8.2-8.1 3.2 0 5.1 1.4 6.1 2.8l-2.7 2.5c-.7-1.1-1.9-1.7-3.3-1.7-2.5 0-4.2 1.8-4.2 4.5s1.7 4.5 4.2 4.5c1.4 0 2.5-.6 3.3-1.7l2.7 2.5c-1 1.4-2.9 2.8-6.1 2.8-4.8 0-8.2-3.4-8.2-8.1z"/></g><g fill="#333"><path d="M119.9 138v-7.9h4.1v7.8c1-1.5 2.5-2.3 4.1-2.3 3.4 0 5.9 2.9 5.9 8.1 0 5.2-2.5 8.1-5.9 8.1-1.6 0-3-.8-4.1-2.4v7.9h-4.1v-7.9c-1 1.5-2.5 2.4-4.1 2.4-3.4 0-5.9-2.9-5.9-8.1s2.5-8.1 5.9-8.1c1.6.1 3 .8 4.1 2.4zm-5.9 5.8c0 2.7 1.3 4.5 3.1 4.5 1.1 0 2.2-.8 2.8-1.8V141c-.5-1-1.8-1.8-2.8-1.8-1.8.1-3.1 1.9-3.1 4.6zm15.9 0c0-2.7-1.3-4.5-3.1-4.5-1 0-2.2.8-2.8 1.8v5.5c.5 1 1.8 1.8 2.8 1.8 1.8-.1 3.1-2 3.1-4.6zM136.4 143.8c0-4.4 3.1-8.1 8.2-8.1s8.2 3.7 8.2 8.1c0 4.4-3.1 8.1-8.2 8.1s-8.2-3.7-8.2-8.1zm12.2 0c0-2.4-1.4-4.5-4-4.5-2.5 0-3.9 2.1-3.9 4.5s1.4 4.5 3.9 4.5 4-2.1 4-4.5zM159.9 149.5v7.9h-4.1V136h4.1v2c1.2-1.5 2.9-2.3 4.8-2.3 4 0 6.8 2.9 6.8 8.1 0 5.2-2.9 8.1-6.8 8.1-1.9 0-3.6-.8-4.8-2.4zm7.4-5.7c0-2.7-1.6-4.5-3.9-4.5-1.3 0-2.8.8-3.5 1.8v5.5c.7 1 2.2 1.8 3.5 1.8 2.3-.1 3.9-2 3.9-4.6zM174.5 153.9c.4.2.9.3 1.3.3 1.1 0 1.8-.3 2.1-1.1l.6-1.3-6.3-15.7h4.4l4 10.8 4-10.8h4.4l-7.3 18c-1.2 2.9-3.2 3.7-5.9 3.7-.5 0-1.5-.1-2-.2l.7-3.7zM205.1 151.5v-10l-4.1 10h-1.9l-4.2-10v10h-4.1V136h5.3l3.8 9.2 3.7-9.2h5.4v15.5h-3.9zM212.7 149.3c0-1.4 1.2-2.6 2.6-2.6s2.6 1.2 2.6 2.6c0 1.4-1.2 2.6-2.6 2.6s-2.6-1.2-2.6-2.6zM225.4 149.5v7.9h-4.1V136h4.1v2c1.2-1.5 2.9-2.3 4.8-2.3 4 0 6.8 2.9 6.8 8.1 0 5.2-2.9 8.1-6.8 8.1-1.8 0-3.5-.8-4.8-2.4zm7.4-5.7c0-2.7-1.6-4.5-3.9-4.5-1.3 0-2.8.8-3.5 1.8v5.5c.7 1 2.2 1.8 3.5 1.8 2.3-.1 3.9-2 3.9-4.6zM240.1 153.9c.4.2.9.3 1.3.3 1.1 0 1.8-.3 2.1-1.1l.6-1.3-6.3-15.7h4.4l4 10.8 4-10.8h4.4l-7.3 18c-1.2 2.9-3.2 3.7-5.9 3.7-.5 0-1.5-.1-2-.2l.7-3.7zM255.4 143.8c0-4.7 3.4-8.1 8.2-8.1 3.2 0 5.1 1.4 6.1 2.8L267 141c-.7-1.1-1.9-1.7-3.3-1.7-2.5 0-4.2 1.8-4.2 4.5s1.7 4.5 4.2 4.5c1.4 0 2.5-.6 3.3-1.7l2.7 2.5c-1 1.4-2.9 2.8-6.1 2.8-4.7 0-8.2-3.4-8.2-8.1z"/></g><g opacity=".5" fill="#999"><path d="M120.1 186.5l-3.5-5.2-3.6 5.2h-4.5l5.5-7.9-5.2-7.5h4.5l3.2 4.8 3.2-4.8h4.5l-5.2 7.5 5.5 7.9h-4.4zM125.7 178.8c0-4.4 3.1-8.1 8.2-8.1s8.2 3.7 8.2 8.1c0 4.4-3.1 8.1-8.2 8.1-5.2 0-8.2-3.7-8.2-8.1zm12.1 0c0-2.4-1.4-4.5-4-4.5s-3.9 2.1-3.9 4.5 1.4 4.5 3.9 4.5 4-2.1 4-4.5zM144 178.8c0-4.7 3.4-8.1 8.2-8.1 3.2 0 5.1 1.4 6.1 2.8l-2.7 2.5c-.7-1.1-1.9-1.7-3.3-1.7-2.5 0-4.2 1.8-4.2 4.5s1.7 4.5 4.2 4.5c1.4 0 2.5-.6 3.3-1.7l2.7 2.5c-1 1.4-2.9 2.8-6.1 2.8-4.8 0-8.2-3.4-8.2-8.1zM163.8 186.5v-11.9h-4.3V171h12.7v3.6h-4.3v11.9h-4.1zM174.8 186.5V171h4.1v9.3l6.4-9.3h4.1v15.5h-4.1v-9.7l-6.6 9.7h-3.9zM193.4 186.5V171h4.1v5.7h6.4V171h4.1v15.5h-4.1v-6.2h-6.4v6.2h-4.1zM223.9 174.6H216v11.9h-4.1V171h11.9v3.6zM225.9 184.3c0-1.4 1.2-2.6 2.6-2.6s2.6 1.2 2.6 2.6c0 1.4-1.2 2.6-2.6 2.6s-2.6-1.2-2.6-2.6zM238.7 184.5v7.9h-4.1V171h4.1v2c1.2-1.5 2.9-2.3 4.8-2.3 4 0 6.8 2.9 6.8 8.1 0 5.2-2.9 8.1-6.8 8.1-1.9 0-3.5-.8-4.8-2.4zm7.4-5.7c0-2.7-1.6-4.5-3.9-4.5-1.3 0-2.8.8-3.5 1.8v5.5c.7 1 2.2 1.8 3.5 1.8 2.3-.1 3.9-2 3.9-4.6zM253.4 188.9c.4.2.9.3 1.3.3 1.1 0 1.8-.3 2.1-1.1l.6-1.3-6.3-15.7h4.4l4 10.8 4-10.8h4.4l-7.3 18c-1.2 2.9-3.2 3.7-5.9 3.7-.5 0-1.5-.1-2-.2l.7-3.7zM268.7 178.8c0-4.7 3.4-8.1 8.2-8.1 3.2 0 5.1 1.4 6.1 2.8l-2.7 2.5c-.7-1.1-1.9-1.7-3.3-1.7-2.5 0-4.2 1.8-4.2 4.5s1.7 4.5 4.2 4.5c1.4 0 2.5-.6 3.3-1.7l2.7 2.5c-1 1.4-2.9 2.8-6.1 2.8-4.8 0-8.2-3.4-8.2-8.1z"/></g><path opacity=".5" fill="#999" d="M23.4 203h305.4v30.6H23.4z"/><g opacity=".5" fill="#999"><path d="M38 152.6L35.4 142l-2.6 10.6h-4.6l-4.9-17h4.9l2.6 11.3 2.9-11.3h3.4L40 147l2.5-11.3h4.9l-4.9 17-4.5-.1zM62.7 152.6L60.1 142l-2.6 10.6h-4.6l-4.9-17h5l2.6 11.3 2.9-11.3h3.4l2.9 11.3 2.5-11.3h4.9l-4.9 17h-4.6zM87.4 152.6L84.8 142l-2.6 10.6h-4.6l-4.9-17h4.9l2.6 11.3 2.9-11.3h3.4l2.9 11.3 2.5-11.3h4.9l-4.9 17h-4.5zM96.8 150.5c0-1.3 1.1-2.4 2.4-2.4s2.4 1.1 2.4 2.4c0 1.3-1.1 2.4-2.4 2.4s-2.4-1.1-2.4-2.4z"/></g><g opacity=".5" fill="#999"><path d="M38 117l-2.6-10.6-2.5 10.6h-4.6l-4.9-17h4.9l2.6 11.3 2.9-11.3h3.4l2.9 11.3 2.5-11.3h4.9l-4.9 17H38zM62.7 117l-2.6-10.6-2.5 10.6H53l-4.9-17H53l2.6 11.3 2.9-11.3h3.4l2.9 11.3 2.5-11.3h4.9l-4.9 17h-4.6zM87.4 117l-2.6-10.6-2.6 10.6h-4.6l-4.9-17h4.9l2.6 11.3 2.9-11.3h3.4l2.9 11.3 2.5-11.3h4.9L92 117h-4.6zM96.8 114.9c0-1.3 1.1-2.4 2.4-2.4s2.4 1.1 2.4 2.4-1.1 2.4-2.4 2.4-2.4-1.1-2.4-2.4z"/></g><g opacity=".5" fill="#999"><path d="M38 83.5l-2.6-10.6-2.6 10.6h-4.6l-4.9-17h4.9l2.6 11.3 2.9-11.3h3.4L40 77.9l2.5-11.3h4.9l-4.9 17-4.5-.1zM62.7 83.5l-2.6-10.6-2.6 10.6h-4.6l-4.9-17h5l2.6 11.3 2.9-11.3h3.4l2.9 11.3 2.5-11.3h4.9l-4.9 17h-4.6zM87.4 83.5l-2.6-10.6-2.6 10.6h-4.6l-4.9-17h4.9l2.6 11.3 2.9-11.3h3.4l2.9 11.3 2.5-11.3h4.9l-4.9 17h-4.5zM96.8 81.4c0-1.3 1.1-2.4 2.4-2.4s2.4 1.1 2.4 2.4-1.1 2.4-2.4 2.4-2.4-1.1-2.4-2.4z"/></g><g opacity=".5" fill="#999"><path d="M38 187.2l-2.6-10.6-2.6 10.6h-4.6l-4.9-17h4.9l2.6 11.3 2.9-11.3h3.4l2.9 11.3 2.5-11.3h4.9l-4.9 17H38zM62.7 187.2l-2.6-10.6-2.6 10.6h-4.6l-4.9-17h5l2.6 11.3 2.9-11.3h3.4l2.9 11.3 2.5-11.3h4.9l-4.9 17h-4.6zM87.4 187.2l-2.6-10.6-2.6 10.6h-4.6l-4.9-17h4.9l2.6 11.3 2.9-11.3h3.4l2.9 11.3 2.5-11.3h4.9l-4.9 17h-4.5zM96.8 185.1c0-1.3 1.1-2.4 2.4-2.4s2.4 1.1 2.4 2.4c0 1.3-1.1 2.4-2.4 2.4s-2.4-1.1-2.4-2.4z"/></g><g fill="#00A936"><path d="M320.3 150.2c.2.3-.5 1-.8 1.2l-.6 1.5c-.3.2-1.1 0-1.3-.3l-6.2-8.6c-.2-.3-.2-.8.2-1.1l1.5-1.1c.3-.2.8-.2 1.1.2l6.1 8.2z"/><path d="M316.6 150c-.3.3-.4.8-.1 1.1l1.5 1.6c.3.3.8.4 1.1.1l10.6-13.2c.3-.3.4-.8.1-1.1l-1.6-1.4c-.3-.3-.8-.4-1.1-.1l-10.5 13z"/></g><g fill="#00A936"><path d="M320.3 114.2c.2.3-.5 1-.8 1.2l-.6 1.5c-.3.2-1.1 0-1.3-.3l-6.2-8.6c-.2-.3-.2-.8.2-1.1l1.5-1.1c.3-.2.8-.2 1.1.2l6.1 8.2z"/><path d="M316.6 114c-.3.3-.4.8-.1 1.1l1.5 1.6c.3.3.8.4 1.1.1l10.6-13.2c.3-.3.4-.8.1-1.1l-1.6-1.4c-.3-.3-.8-.4-1.1-.1l-10.5 13z"/></g><g fill="#00A936"><path d="M320.3 81.2c.2.3-.5 1-.8 1.2l-.6 1.5c-.3.2-1.1 0-1.3-.3l-6.2-8.6c-.2-.3-.2-.8.2-1.1l1.5-1.1c.3-.2.8-.2 1.1.2l6.1 8.2z"/><path d="M316.6 81c-.3.3-.4.8-.1 1.1l1.5 1.6c.3.3.8.4 1.1.1l10.6-13.2c.3-.3.4-.8.1-1.1l-1.6-1.4c-.3-.3-.8-.4-1.1-.1l-10.5 13z"/></g><g fill="#00A936"><path d="M320.3 183.2c.2.3-.5 1-.8 1.2l-.6 1.5c-.3.2-1.1 0-1.3-.3l-6.2-8.6c-.2-.3-.2-.8.2-1.1l1.5-1.1c.3-.2.8-.2 1.1.2l6.1 8.2z"/><path d="M316.6 183c-.3.3-.4.8-.1 1.1l1.5 1.6c.3.3.8.4 1.1.1l10.6-13.2c.3-.3.4-.8.1-1.1l-1.6-1.4c-.3-.3-.8-.4-1.1-.1l-10.5 13z"/></g><path opacity=".2" d="M254.9 209.4c0-6.2-4.7-11.2-10.9-11.3-6.2 0-11 5-11 11.2v.2h-.3l-.1-6c0-6.2-5-11.2-11.2-11.3-5.3 0-9.8 3.7-11 8.7-1.1-5-5.6-8.7-10.9-8.8-5.4 0-9.9 3.7-11 8.8l-.3.1.2-51.9c0-6.2-5-11.2-11.2-11.3-6.2 0-11.2 5-11.3 11.2l-.2 64.5-9.1 5.1c-3.8 2.1-4.4 8.2-1.4 13.6.1.1.1.2.2.4l10.3 24.6c1.5 22.7 20.8 35.8 44.3 35.9 23.7.1 43.2-13.1 44.6-36.1h.1v-2.3-6.5-.4l.2-38.4z"/><g opacity=".2"><path d="M175.4 106.9c0 .8-.6 1.4-1.4 1.4-.8 0-1.4-.6-1.4-1.4V87.6c0-.8.6-1.4 1.4-1.4.8 0 1.4.6 1.4 1.4v19.3zM175.4 79.2c0 .8-.6 1.4-1.4 1.4-.8 0-1.4-.6-1.4-1.4v-9.1c0-.8.6-1.4 1.4-1.4.8 0 1.4.6 1.4 1.4v9.1zM130.3 147.6c.8 0 1.4.6 1.4 1.4 0 .8-.6 1.4-1.4 1.4h-19.4c-.8 0-1.4-.6-1.4-1.4 0-.8.6-1.4 1.4-1.4h19.4zM102.5 147.6c.8 0 1.4.6 1.4 1.4 0 .8-.6 1.4-1.4 1.4h-9.1c-.8 0-1.4-.6-1.4-1.4 0-.8.6-1.4 1.4-1.4h9.1zM204.2 119.8c-.5.5-1.4.5-2 0-.6-.5-.6-1.4 0-2l13.7-13.7c.5-.5 1.4-.5 2 0 .5.5.5 1.4 0 2l-13.7 13.7zM141.8 178.2c.5-.6 1.4-.6 2 0 .5.5.5 1.4 0 2l-13.7 13.7c-.5.5-1.4.5-2 0-.6-.6-.6-1.4 0-2l13.7-13.7zM143.8 117.8c.5.5.5 1.4 0 2-.5.5-1.4.5-2 0l-13.7-13.7c-.5-.6-.5-1.4 0-2 .5-.6 1.4-.5 2 0l13.7 13.7z"/></g><g><path fill="#FFDA22" d="M173.3 104.8c0 .8-.6 1.4-1.4 1.4-.8 0-1.4-.6-1.4-1.4V85.4c0-.8.6-1.4 1.4-1.4.8 0 1.4.6 1.4 1.4v19.4z"/><path fill="#FF7800" d="M173.3 77c0 .8-.6 1.4-1.4 1.4-.8 0-1.4-.6-1.4-1.4v-9.1c0-.8.6-1.4 1.4-1.4.8 0 1.4.6 1.4 1.4V77z"/><path fill="#FFDA22" d="M128.2 145.5c.8 0 1.4.6 1.4 1.4 0 .8-.6 1.4-1.4 1.4h-19.4c-.8 0-1.4-.6-1.4-1.4 0-.8.6-1.4 1.4-1.4h19.4z"/><path fill="#FF7800" d="M100.4 145.5c.8 0 1.4.6 1.4 1.4 0 .8-.6 1.4-1.4 1.4h-9.1c-.8 0-1.4-.6-1.4-1.4 0-.8.6-1.4 1.4-1.4h9.1zM202 117.7c-.5.5-1.4.5-2 0-.6-.5-.6-1.4 0-2l13.7-13.7c.5-.5 1.4-.5 2 0 .5.5.5 1.4 0 2L202 117.7zM139.7 176.1c.5-.6 1.4-.6 2 0 .5.5.5 1.4 0 2L128 191.8c-.5.5-1.4.5-2 0-.6-.6-.6-1.4 0-2l13.7-13.7zM141.6 115.7c.5.5.5 1.4 0 2-.5.5-1.4.5-2 0L126 104c-.5-.6-.5-1.4 0-2 .5-.6 1.4-.5 2 0l13.6 13.7z"/></g><path opacity=".4" fill="#FFF" d="M279.6.2H12.3C5.2.2 0 7.1 0 14.3v234.9h44.5L279.6.2z"/><g><path fill="#E8C08B" d="M189.6 265.4c1.7 4-1.6 9.2-7.3 11.6-5.7 2.4-11.7 1.1-13.4-2.9l-17-40.6c-1.7-4 1.6-9.2 7.3-11.6 5.7-2.4 11.7-1.1 13.4 2.9l17 40.6z"/><path fill="#E8C08B" d="M192.4 200.2c3.8-2.1 9.3.5 12.3 5.9s2.4 11.5-1.4 13.6L165 241.2c-3.8 2.1-9.3-.5-12.3-6-3-5.4-2.4-11.5 1.4-13.6l38.3-21.4z"/><g fill="#FDDBA4"><path d="M185.5 235.6c0 6.2-5.1 11.2-11.3 11.2-6.2 0-11.2-5.1-11.2-11.3l.3-83.5c0-6.2 5.1-11.2 11.3-11.2 6.2 0 11.2 5.1 11.2 11.3l-.3 83.5z"/><path d="M207.8 269.1c0 6.2-5.1 11.2-11.3 11.2-6.2 0-11.2-5.1-11.2-11.2l.2-62.8c0-6.2 5.1-11.2 11.3-11.2 6.2 0 11.2 5.1 11.2 11.3l-.2 62.7z"/><path d="M229.7 269.1c0 6.2-5.1 11.2-11.3 11.2-6.2 0-11.2-5.1-11.2-11.2l.2-62.8c0-6.2 5.1-11.2 11.3-11.2 6.2 0 11.2 5.1 11.2 11.3l-.2 62.7z"/><path d="M252.1 260c-13.8 7.6-5.1 11.2-11.3 11.2v-3.5c-6.2 0-11.2-1.6-11.2-7.8l.2-47.8c0-6.2 5.1-11.2 11.2-11.2 6.2 0 11.2 5.1 11.2 11.3l-.1 47.8z"/><path d="M252.2 257.5c-.1 24.6-20.1 38.8-44.7 38.7-24.6-.1-44.5-14.4-44.4-39l.1-21.6c.1-24.6 20.1-29.2 44.7-29.1 24.6.1 44.5 20.1 44.4 44.7l-.1 6.3z"/></g><path opacity=".4" fill="#B29076" d="M182.4 152.4c0 4.4-3.6 5.7-8 5.7s-8-1.3-8-5.7 3.6-7.7 8-7.7 8 3.3 8 7.7z"/><g opacity=".4" fill="#70462D"><path opacity=".3" d="M182.3 182.3c0 .4-.3.8-.8.8l-14.2-.1c-.4 0-.8-.3-.8-.8 0-.4.3-.8.8-.7l14.2.1c.5-.1.8.2.8.7zM182.3 185.6c0 .4-.3.8-.8.8h-14.2c-.4 0-.8-.4-.8-.8s.3-.7.8-.7l14.2.1c.5-.2.8.2.8.6zM182.1 189.4c0 .4-.4.8-.8.8l-14.2-.1c-.4 0-.8-.4-.8-.8s.3-.7.8-.7l14.2.1c.5 0 .8.3.8.7z"/></g></g></svg>