<?xml version="1.0" encoding="utf-8"?>
<!-- Generator: Adobe Illustrator 21.0.2, SVG Export Plug-In . SVG Version: 6.00 Build 0)  -->
<svg version="1.1" baseProfile="basic"
	 xmlns="http://www.w3.org/2000/svg" xmlns:xlink="http://www.w3.org/1999/xlink" x="0px" y="0px" width="47px" height="54px"
	 viewBox="0 0 47 54" xml:space="preserve">
<g>
	<path fill="#48C7BE" d="M2,31.6v19.1C2,52.5,3.4,54,5.3,54H41c1.8,0,3.3-1.5,3.3-3.3V31.6H2z"/>
	<path fill="#48C7BE" d="M46.3,29.6c0,1.7-1.4,3.1-3.1,3.1H3.1c-1.7,0-3.1-1.4-3.1-3.1V22c0-1.7,1.4-3.1,3.1-3.1h40.1
		c1.7,0,3.1,1.4,3.1,3.1C46.3,22,46.3,29.6,46.3,29.6z"/>
	<rect x="17.2" y="18.9" fill="#FF6600" width="10.8" height="35.1"/>
	<rect x="2" y="32.5" opacity="0.1" width="42.4" height="2.6"/>
	<g>
		<path fill="#FF6600" d="M32.4,0c-4.8,0-8.6,3.8-8.6,8.6v8.6h8.6c4.8,0,8.6-3.8,8.6-8.6S37.2,0,32.4,0z M32.4,13.3h-4.7V8.6
			c0-2.6,2.1-4.7,4.7-4.7s4.7,2.1,4.7,4.7C37.1,11.2,35,13.3,32.4,13.3z"/>
		<path fill="#FF6600" d="M4.7,8.6c0,4.8,3.8,8.6,8.6,8.6h8.6V8.6C21.9,3.8,18,0,13.3,0C8.6,0,4.7,3.8,4.7,8.6z M8.6,8.6
			c0-2.6,2.1-4.7,4.7-4.7s4.7,2.1,4.7,4.7v4.7h-4.7C10.7,13.3,8.6,11.2,8.6,8.6z"/>
	</g>
</g>
<g>
</g>
<g>
</g>
<g>
</g>
<g>
</g>
<g>
</g>
<g>
</g>
<g>
</g>
<g>
</g>
<g>
</g>
<g>
</g>
<g>
</g>
<g>
</g>
<g>
</g>
<g>
</g>
<g>
</g>
</svg>
