<svg xmlns="http://www.w3.org/2000/svg" xmlns:xlink="http://www.w3.org/1999/xlink" width="156" height="128" viewBox="0 0 156 128"><defs><clipPath id="a"><rect width="156" height="128" fill="none"/></clipPath></defs><title>Хостинг ещё больше</title><g clip-path="url(#a)"><rect x="24.73" y="44.513" width="25.093" height="6.745" rx="3.1" ry="3.1" fill="#fff"/><rect x="46.184" y="58.004" width="31.578" height="6.745" rx="3.1" ry="3.1" fill="#fff"/><rect x="63.595" y="70.971" width="20.336" height="6.745" rx="3.373" ry="3.373" fill="#fff"/><rect x="10.583" y="58.004" width="29.23" height="6.745" rx="3.1" ry="3.1" fill="#fff" opacity="0.8"/><rect x="-3.189" y="44.513" width="20.798" height="6.745" rx="3.1" ry="3.1" fill="#fff" opacity="0.8"/><rect x="86.956" y="78.793" width="11.336" height="6.745" rx="3.373" ry="3.373" fill="#fff"/><path d="M18.832,28.939c28.643-.234,35.6-2.245,40.332-11.73l-1.879-4.666-.131.055L55.128,8.083C45.017,4.891,38.743,8.5,18.667,28.928l-.028.019c.007,0,.01,0,.015,0C18.61,28.989,18.733,28.984,18.832,28.939Z" fill="#ffc71a"/><path d="M35.095,22.026c17.617-.143,21.894-1.381,24.806-7.217l-1.152-2.87-.09.039L57.418,9.193c-6.22-1.961-10.08.26-22.43,12.826l-.013.01.008,0C34.959,22.054,35.031,22.057,35.095,22.026Z" fill="#e55400"/><path d="M44.131,18.181c9.795-.084,12.176-.768,13.795-4.012l-.644-1.6-.046.018-.69-1.547c-3.456-1.087-5.6.143-12.472,7.133l0,.007s0-.005,0,0S44.1,18.194,44.131,18.181Z" fill="#fff" opacity="0.6"/><path d="M56.123,23.975c3.79-1.639,4.435-4.341,4.541-5.39h0v0a3.147,3.147,0,0,0,.018-.413c.1-.618.589-1.792,2.732-2.553,2.561-.907-.85-4.059-1.957-5.007.068-1.452.106-6.1-2.308-4.851-2.036,1.05-3.227.586-3.742.235a3.522,3.522,0,0,0-.292-.249.07.07,0,0,1-.013-.013v.005c-.839-.644-3.25-2.017-7.032-.381a.135.135,0,0,0,.011.026.421.421,0,0,0-.1.033c-1.1.476-.2,5.024,2.025,10.157s4.914,8.907,6.015,8.433a.528.528,0,0,0,.1-.056A.155.155,0,0,0,56.123,23.975Z" fill="#2d2d2d"/><path d="M83.139,9.918l-18.656,8.14a8,8,0,0,1-10.5-4.122h0A8,8,0,0,1,58.1,3.432L61.515,2.17C77.134-3.749,94.226,7.7,94.226,7.7,95.981,11.727,87.161,8.163,83.139,9.918Z" fill="gray"/><path d="M60.013,5.392c-1.814.816-2.9.4-3.384.077a3.3,3.3,0,0,0-.292-.251L56.323,5.2v0c-.841-.641-3.251-2.015-7.034-.378l.012.026a.5.5,0,0,0-.105.031c-1.1.476-.2,5.025,2.025,10.158s4.915,8.909,6.016,8.431a.507.507,0,0,0,.1-.054l.011.024c3.79-1.637,4.436-4.34,4.54-5.388v0a3.168,3.168,0,0,0,.019-.414c.1-.583.552-1.656,2.4-2.415Z" fill="#464646"/><rect x="58.449" y="3.159" width="3.914" height="15.981" transform="translate(0.538 24.898) rotate(-23.391)" fill="#575756"/><rect x="56.163" y="5.107" width="3.914" height="1.515" transform="translate(2.472 23.629) rotate(-23.467)" fill="#fff" opacity="0.2"/><path d="M77.265,2.387c-8.537-1.188-13.805.538-13.805.538L59.616,4.392l.6,1.391,3.807-1.462c.015-.006,4.671-1.673,13.24-.881A48.74,48.74,0,0,1,89.838,6.323,37.6,37.6,0,0,0,77.265,2.387Z" fill="#fff" opacity="0.2"/><path d="M87.5,4.033a54.376,54.376,0,0,1,9.262,4.679c1.993,4.569-8.024.521-12.592,2.514L56.148,27.468c-2.182.952.17-4.173.2-6.775A55.424,55.424,0,0,1,87.5,4.033Z" opacity="0.1"/><path d="M133.165,126.618c-4.241-28.328-3.342-35.514,5.289-41.669l4.9,1.128-.034.138,4.776,1.3c4.732,9.488,2.146,16.249-14.9,39.269l-.015.031c0-.008,0-.009,0-.015C133.151,126.845,133.136,126.722,133.165,126.618Z" fill="#ffc71a"/><path d="M137.454,109.474c-2.61-17.424-2.055-21.841,3.255-25.628l3.015.69-.025.095,2.944.791c2.909,5.838,1.317,10-9.166,24.158l-.007.014s0-.005,0-.008C137.447,109.613,137.433,109.542,137.454,109.474Z" fill="#e55400"/><path d="M139.841,99.948C138.395,90.261,138.7,87.8,141.649,85.7l1.677.387-.01.048,1.636.44c1.614,3.244.733,5.557-5.1,13.433l-.007,0s0,0,0,0S139.832,99.979,139.841,99.948Z" fill="#fff" opacity="0.6"/><path d="M132.245,89.008c1.028-4,3.6-5.058,4.614-5.327h0a3.147,3.147,0,0,1,.405-.083c.595-.2,1.678-.861,2.095-3.1.5-2.671,4.142.206,5.251,1.151,1.423-.294,6.006-1.056,5.152,1.522-.719,2.175-.075,3.279.352,3.733a3.522,3.522,0,0,1,.292.25.07.07,0,0,0,.015.01l0,0c.767.728,2.5,2.895,1.474,6.887a.135.135,0,0,1-.027-.007.421.421,0,0,1-.016.108c-.3,1.163-4.932.978-10.349-.414s-9.566-3.463-9.269-4.624a.528.528,0,0,1,.041-.1A.155.155,0,0,1,132.245,89.008Z" fill="#2d2d2d"/><path d="M141.911,60.129l-5.127,19.7a8,8,0,0,0,5.712,9.732h0a8,8,0,0,0,9.732-5.712l.713-3.569c3.408-16.352-10.574-31.445-10.574-31.445C138.119,47.727,143.017,55.882,141.911,60.129Z" fill="#666"/><path d="M149.993,82.264c-.522,1.919.054,2.929.452,3.355a3.3,3.3,0,0,1,.293.25l.016.011h0c.764.73,2.5,2.9,1.472,6.889l-.028-.007a.5.5,0,0,1-.015.109c-.3,1.162-4.933.978-10.349-.414s-9.567-3.464-9.267-4.626a.507.507,0,0,1,.038-.1l-.025-.007c1.025-4,3.594-5.059,4.613-5.326h0a3.168,3.168,0,0,1,.406-.083c.561-.186,1.549-.8,2.01-2.75Z" fill="#464646"/><rect x="142.287" y="74.785" width="3.914" height="15.981" transform="translate(28.181 201.886) rotate(-75.592)" fill="#575756"/><rect x="147.865" y="83.45" width="3.914" height="1.515" transform="translate(30.821 208.209) rotate(-75.517)" fill="#fff" opacity="0.2"/><path d="M150.267,64.755c2.507,8.247,1.625,13.72,1.625,13.72l-.849,4.026-1.468-.377.849-3.988c0-.016.923-4.875-1.2-13.215a48.74,48.74,0,0,0-4.811-11.97A37.6,37.6,0,0,1,150.267,64.755Z" fill="#fff" opacity="0.2"/><path d="M146.905,54.628a54.376,54.376,0,0,0-6.068-8.417c-4.824-1.256.739,8.006-.517,12.83L128.654,89.258c-.6,2.3,4.1-.819,6.661-1.256A55.424,55.424,0,0,0,146.905,54.628Z" opacity="0.2"/><polygon points="90.959 15.756 93.365 12.939 93.776 18.163 90.959 15.756" fill="#77cea6"/><polygon points="93.365 12.939 90.959 15.756 90.549 10.533 93.365 12.939" fill="#010000" opacity="0.25"/><rect x="87.128" y="10.778" width="0.623" height="9.377" transform="translate(18.884 71.901) rotate(-49.492)" fill="#fff"/><rect x="85.738" y="12.405" width="0.623" height="9.377" transform="translate(17.159 71.415) rotate(-49.492)" fill="#fff"/><rect x="84.349" y="14.032" width="0.622" height="9.377" transform="translate(15.435 70.928) rotate(-49.492)" fill="#fff"/><rect x="82.907" y="15.718" width="0.623" height="9.377" transform="translate(13.648 70.424) rotate(-49.492)" fill="#fff"/><rect x="78.44" y="14.782" width="7.121" height="0.622" transform="translate(17.261 67.635) rotate(-49.492)" fill="#fff"/><rect x="80.541" y="16.576" width="7.121" height="0.623" transform="translate(16.633 69.862) rotate(-49.492)" fill="#fff"/><rect x="85.097" y="20.469" width="7.121" height="0.622" transform="translate(15.27 74.69) rotate(-49.492)" fill="#fff"/><path d="M134.43,84.7A49.013,49.013,0,0,0,59.919,21.044Z" fill="#666"/><path d="M132.213,82.491c15.2-18.648,13.151-47.3-5.709-63.415S79.019,5.41,62.975,23.339Z" fill="none" stroke="#e6e6e6" stroke-miterlimit="10" stroke-width="1.443" opacity="0.3"/><path d="M132.213,82.491A45.544,45.544,0,0,0,62.975,23.339Z" fill="none" stroke="#4d4d4d" stroke-miterlimit="10" stroke-width="1.443"/><path d="M129.394,79.133A41.22,41.22,0,0,0,66.731,25.6Z" fill="#333"/><path d="M128.144,80.6A41.22,41.22,0,0,0,65.481,27.061Z" fill="#f2f2f2"/><path d="M97.342,53.79l38.966,11.618a41.73,41.73,0,0,0-18.457-46.159Z" fill="#8cc63f"/><path d="M118.628,68.67A26.234,26.234,0,0,0,78.746,34.6Z" fill="#010000" opacity="0.1"/><path d="M101.427,66A13.5,13.5,0,1,0,85.594,52.47Z" fill="#ff3939"/><path d="M98.564,55.325,128.38,80.8a41.036,41.036,0,0,0,9.34-26.518Z" fill="#ffcc03"/><path d="M96.007,65.276a13.492,13.492,0,0,0,13.919-1.8l19.391,2.238-14.509-10.6a13.5,13.5,0,0,0-25.352-8.294Z" fill="#010000" opacity="0.2"/><polygon points="109.27 48.68 130.158 63.944 104.458 60.978 109.27 48.68" fill="#ff3939"/><polygon points="105.546 54.265 130.158 63.944 104.458 60.978 105.546 54.265" fill="#010000" opacity="0.2"/><path d="M95.75,64.554a13.5,13.5,0,1,0-6.964-19.625Z" fill="#ff3939"/><path d="M91.526,52.649l1.485,4.183a8.885,8.885,0,1,0-1.485-4.183Z" fill="#010000" opacity="0.2"/><g opacity="0.3"><path d="M119.342,72.92h.34a.507.507,0,0,1,.507.507v4.58a.509.509,0,0,1-.509.509h-.339a.509.509,0,0,1-.509-.509V73.429A.509.509,0,0,1,119.342,72.92Z" transform="translate(-20.896 93.092) rotate(-39.411)" fill="#010000"/><path d="M126.489,64.534h.338a.509.509,0,0,1,.509.509v4.578a.508.508,0,0,1-.508.508h-.341a.507.507,0,0,1-.507-.507V65.043a.509.509,0,0,1,.509-.509Z" transform="translate(4.227 142.074) rotate(-59.398)" fill="#010000"/><path d="M130.338,54.208h.337a.509.509,0,0,1,.509.509V59.3a.508.508,0,0,1-.508.508h-.34a.508.508,0,0,1-.508-.508V54.718a.511.511,0,0,1,.511-.511Z" transform="translate(50.82 175.038) rotate(-79.572)" fill="#010000"/><path d="M128.3,45.31h4.578a.509.509,0,0,1,.509.509v.339a.509.509,0,0,1-.509.509H128.3a.508.508,0,0,1-.508-.508V45.82A.51.51,0,0,1,128.3,45.31Z" transform="translate(-5.818 22.291) rotate(-9.545)" fill="#010000"/><path d="M125.242,37.323a.51.51,0,0,1-.694-.193l-.168-.3a.506.506,0,0,1,.192-.692l3.985-2.255a.509.509,0,0,1,.693.191l.167.3a.507.507,0,0,1-.192.694Z" fill="#010000"/><path d="M118.979,29.213c-.184.212-.435.157-.648-.025l-.206-.176c-.214-.183-.752-.663-.2-.564l2.973-3.48a.393.393,0,0,1,.616-.023l.259.221c.213.182.3.428.119.642Z" fill="#010000"/><path d="M108.092,20.852h4.578a.509.509,0,0,1,.509.509v.34a.507.507,0,0,1-.507.507h-4.581a.508.508,0,0,1-.508-.508v-.34A.509.509,0,0,1,108.092,20.852Z" transform="translate(51.695 117.465) rotate(-69.582)" fill="#010000"/><path d="M97.256,18.856h4.581a.507.507,0,0,1,.507.507V19.7a.508.508,0,0,1-.508.508H97.257a.509.509,0,0,1-.509-.509v-.338a.508.508,0,0,1,.508-.508Z" transform="translate(79.391 118.955) rotate(-89.643)" fill="#010000"/><path d="M88.51,18.566h.339a.509.509,0,0,1,.509.509v4.58a.508.508,0,0,1-.508.508h-.34A.508.508,0,0,1,88,23.655v-4.58a.508.508,0,0,1,.508-.508Z" transform="translate(-2.036 30.91) rotate(-19.552)" fill="#010000"/><path d="M78.926,24h.339a.508.508,0,0,1,.508.508v4.58a.508.508,0,0,1-.508.508h-.339a.51.51,0,0,1-.51-.51V24.512A.509.509,0,0,1,78.926,24Z" transform="translate(0.985 56.349) rotate(-39.439)" fill="#010000"/><path d="M71.78,32.39h.338a.509.509,0,0,1,.509.509v4.579a.509.509,0,0,1-.509.509h-.34a.507.507,0,0,1-.507-.507V32.9a.51.51,0,0,1,.51-.51Z" transform="translate(5.158 79.39) rotate(-59.559)" fill="#010000"/><path d="M119.342,72.92h.34a.507.507,0,0,1,.507.507v4.579a.509.509,0,0,1-.509.509h-.338a.509.509,0,0,1-.509-.509V73.429a.509.509,0,0,1,.509-.509Z" transform="translate(-20.892 93.127) rotate(-39.425)" fill="#010000"/><path d="M126.491,64.533h.338a.508.508,0,0,1,.508.508v4.58a.508.508,0,0,1-.508.508h-.341a.507.507,0,0,1-.507-.507V65.043A.51.51,0,0,1,126.491,64.533Z" transform="translate(4.437 142.416) rotate(-59.559)" fill="#010000"/><path d="M130.336,54.208h.338a.509.509,0,0,1,.509.509V59.3a.508.508,0,0,1-.508.508h-.34a.508.508,0,0,1-.508-.508V54.716a.509.509,0,0,1,.509-.509Z" transform="matrix(0.181, -0.983, 0.983, 0.181, 50.82, 175.038)" fill="#010000"/><rect x="127.791" y="45.31" width="5.596" height="1.356" rx="0.509" ry="0.509" transform="translate(-5.777 22.055) rotate(-9.446)" fill="#010000"/><path d="M124.61,34.927h4.579a.508.508,0,0,1,.508.508v.342a.507.507,0,0,1-.507.507H124.61a.509.509,0,0,1-.509-.509v-.34A.508.508,0,0,1,124.61,34.927Z" transform="translate(-1.108 66.997) rotate(-29.452)" fill="#010000"/><path d="M118.979,29.212c-.184.214-.434.158-.648-.024l-.258-.22c-.214-.183-.7-.619-.153-.52l2.973-3.48c-.183-.526.453-.163.666.02l.234.2c.214.182.289.418.106.631Z" fill="#010000"/><path d="M108.093,20.851h4.578a.508.508,0,0,1,.508.508V21.7a.51.51,0,0,1-.51.51H108.09a.507.507,0,0,1-.507-.507v-.339a.51.51,0,0,1,.51-.51Z" transform="translate(51.695 117.464) rotate(-69.582)" fill="#010000"/><path d="M97.257,18.856h4.578a.509.509,0,0,1,.509.509V19.7a.509.509,0,0,1-.509.509H97.256a.509.509,0,0,1-.509-.509v-.338a.51.51,0,0,1,.51-.51Z" transform="translate(79.218 118.92) rotate(-89.543)" fill="#010000"/><path d="M88.51,18.566h.339a.508.508,0,0,1,.508.508v4.581a.508.508,0,0,1-.508.508h-.338a.51.51,0,0,1-.51-.51V19.076A.509.509,0,0,1,88.51,18.566Z" transform="translate(-2.03 30.974) rotate(-19.593)" fill="#010000"/><path d="M78.926,24h.34a.508.508,0,0,1,.508.508v4.579a.509.509,0,0,1-.509.509h-.339a.508.508,0,0,1-.508-.508V24.512A.509.509,0,0,1,78.926,24Z" transform="translate(0.977 56.329) rotate(-39.425)" fill="#010000"/><path d="M71.779,32.39h.339a.509.509,0,0,1,.509.509v4.579a.508.508,0,0,1-.508.508H71.78a.509.509,0,0,1-.509-.509V32.9A.508.508,0,0,1,71.779,32.39Z" transform="translate(5.046 79.22) rotate(-59.412)" fill="#010000"/><path d="M119.342,72.92h.338a.51.51,0,0,1,.51.51v4.578a.508.508,0,0,1-.508.508h-.34a.509.509,0,0,1-.509-.509V73.429A.509.509,0,0,1,119.342,72.92Z" transform="translate(-20.892 93.127) rotate(-39.425)" fill="#010000"/><path d="M126.489,64.533h.337a.51.51,0,0,1,.51.51V69.62a.509.509,0,0,1-.509.509h-.34a.508.508,0,0,1-.508-.508V65.042a.509.509,0,0,1,.509-.509Z" transform="translate(4.246 142.104) rotate(-59.412)" fill="#010000"/><path d="M130.336,54.207h.341a.508.508,0,0,1,.508.508V59.3a.508.508,0,0,1-.508.508h-.34a.51.51,0,0,1-.51-.51V54.716a.509.509,0,0,1,.509-.509Z" transform="translate(50.614 174.898) rotate(-79.472)" fill="#010000"/><path d="M128.3,45.309h4.577a.51.51,0,0,1,.51.51v.338a.51.51,0,0,1-.51.51H128.3a.508.508,0,0,1-.508-.508v-.34a.509.509,0,0,1,.509-.509Z" transform="translate(-5.802 22.203) rotate(-9.508)" fill="#010000"/><path d="M124.61,34.927h4.577a.51.51,0,0,1,.51.51v.338a.509.509,0,0,1-.509.509h-4.577a.51.51,0,0,1-.51-.51v-.339a.508.508,0,0,1,.508-.508Z" transform="translate(-1.099 67.032) rotate(-29.468)" fill="#010000"/><path d="M119.1,29.28c-.389.037-.554.09-.767-.093l-.258-.22c-.214-.183-.4-.53-.213-.745l3.091-3.2c.182-.214.345-.262.558-.079l.259.221c.213.182.191.349.008.563Z" fill="#010000"/><rect x="107.582" y="20.851" width="5.596" height="1.356" rx="0.509" ry="0.509" transform="translate(51.661 117.443) rotate(-69.561)" fill="#010000"/><path d="M97.256,18.856h4.578a.509.509,0,0,1,.509.509v.34a.508.508,0,0,1-.508.508H97.256a.509.509,0,0,1-.509-.509v-.338a.51.51,0,0,1,.51-.51Z" transform="translate(79.218 118.92) rotate(-89.543)" fill="#010000"/><path d="M88.511,18.566h.338a.508.508,0,0,1,.508.508v4.58a.509.509,0,0,1-.509.509H88.51a.51.51,0,0,1-.51-.51V19.077a.51.51,0,0,1,.51-.51Z" transform="translate(-2.014 31.122) rotate(-19.686)" fill="#010000"/><path d="M78.925,24h.341a.508.508,0,0,1,.508.508v4.58a.508.508,0,0,1-.508.508h-.34a.509.509,0,0,1-.509-.509v-4.58A.508.508,0,0,1,78.925,24Z" transform="translate(1.067 56.567) rotate(-39.599)" fill="#010000"/><path d="M71.779,32.39h.338a.511.511,0,0,1,.511.511v4.577a.509.509,0,0,1-.509.509h-.341a.507.507,0,0,1-.507-.507V32.9a.508.508,0,0,1,.508-.508Z" transform="translate(5.045 79.22) rotate(-59.412)" fill="#010000"/><rect x="118.834" y="72.92" width="1.357" height="5.596" rx="0.509" ry="0.509" transform="matrix(0.772, -0.635, 0.635, 0.772, -20.887, 93.162)" fill="#010000"/><path d="M126.489,64.533h.339a.508.508,0,0,1,.508.508V69.62a.508.508,0,0,1-.508.508h-.34a.508.508,0,0,1-.508-.508V65.042a.509.509,0,0,1,.509-.509Z" transform="translate(4.419 142.385) rotate(-59.544)" fill="#010000"/><path d="M130.337,54.207h.339a.508.508,0,0,1,.508.508V59.3a.508.508,0,0,1-.508.508h-.339a.51.51,0,0,1-.51-.51V54.717A.51.51,0,0,1,130.337,54.207Z" transform="translate(50.821 175.038) rotate(-79.572)" fill="#010000"/><path d="M128.3,45.309h4.58a.508.508,0,0,1,.508.508v.339a.509.509,0,0,1-.509.509H128.3a.509.509,0,0,1-.509-.509v-.34a.508.508,0,0,1,.508-.508Z" transform="translate(-5.792 22.143) rotate(-9.483)" fill="#010000"/><path d="M125.24,37.322a.507.507,0,0,1-.693-.191l-.166-.3a.507.507,0,0,1,.191-.693l3.986-2.254a.509.509,0,0,1,.693.191l.167.3a.508.508,0,0,1-.192.693Z" fill="#010000"/><path d="M118.458,29.3a.44.44,0,0,1-.655.07l-.325-.278a.534.534,0,0,1-.117-.73l3.09-3.617a.583.583,0,0,1,.777-.043l.325.278a.49.49,0,0,1,0,.7Z" fill="#010000"/></g><rect x="45.269" y="49.801" width="98" height="12.945" rx="6.473" ry="6.473" transform="translate(59.148 -47.745) rotate(40.508)" fill="#666"/><rect x="47.432" y="50.413" width="98" height="6.658" transform="translate(58.022 -49.757) rotate(40.508)" fill="#7a7a7a"/></g></svg>