<?xml version="1.0" encoding="utf-8"?>
<!-- Generator: Adobe Illustrator 21.0.2, SVG Export Plug-In . SVG Version: 6.00 Build 0)  -->
<svg version="1.1" baseProfile="basic"
	 xmlns="http://www.w3.org/2000/svg" xmlns:xlink="http://www.w3.org/1999/xlink" x="0px" y="0px" width="60px" height="53px"
	 viewBox="0 0 60 53" xml:space="preserve">
<circle fill="#FF9D03" cx="25.3" cy="27.7" r="25.3"/>
<path fill="#FFFFFF" d="M29.4,31.5h-6.9v2.4h10.3c0.4,0,0.6,0.3,0.7,0.6c0,0,0,0,0,0v2.6c0,0.4-0.3,0.6-0.6,0.7c0,0,0,0,0,0H22.5
	v3.9c0,0.4-0.3,0.6-0.6,0.7c0,0,0,0,0,0h-3.4c-0.4,0-0.6-0.3-0.7-0.6c0,0,0,0,0,0v-3.9h-4.6c-0.4,0-0.6-0.3-0.7-0.6c0,0,0,0,0,0
	v-2.6c0-0.4,0.3-0.6,0.6-0.7c0,0,0,0,0,0h4.6v-2.4h-4.6c-0.4,0-0.6-0.3-0.7-0.6c0,0,0,0,0,0v-3c0-0.4,0.3-0.6,0.6-0.7c0,0,0,0,0,0
	h4.6V14.4c0-0.4,0.3-0.6,0.6-0.7c0,0,0,0,0,0h11c5.4,0,9.2,3.7,9.2,8.9S34.8,31.5,29.4,31.5z M29,18h-6.5v9.1H29
	c2.9,0,4.8-1.8,4.8-4.6c0.1-2.4-1.8-4.5-4.3-4.6C29.3,18,29.2,18,29,18L29,18z"/>
<path opacity="0.1" d="M25.3,2.5c13.9,0,25.3,11.3,25.3,25.3S39.2,53,25.3,53"/>
<path opacity="0.1" d="M40.6,23.4c-0.9,0.7-2.3,0.6-3-0.3c-0.3-0.4-0.6-0.8-0.7-1.4L34.3,4.5c9.1,3.8,15.5,12.8,15.5,23.3
	C49.8,39.3,42,49,31.4,52l1.4-1.1c1.5-0.8,2.9-1.7,4.2-2.7c8.4-6.8,11.2-18.2,7.2-27.8L40.6,23.4z"/>
<g>
	<path fill="#00B05A" d="M57.6,8L40.4,0.2c-0.7-0.3-1.6-0.3-2.3,0.2c-0.7,0.5-1,1.4-0.9,2.1l2,18.8c0,0.6,0.3,1,0.6,1.4
		c0.7,0.9,2.1,1.2,3,0.5l3.8-2.8c3.5,9.8,0.3,21.1-8.4,27.4c-1.3,1-2.8,1.8-4.3,2.5l-2.6,1.9c5-0.2,10.1-1.8,14.5-5
		c10.3-7.6,13.5-21.1,8.2-32.3l4.3-3.1c0.9-0.7,1.2-2.1,0.5-3C58.4,8.5,58.1,8.3,57.6,8z"/>
	<g opacity="0.2">
		<path fill="#FFFFFF" d="M59.1,10c-0.1,0.6-0.3,1.2-0.9,1.6l-4.3,3.1c0,0.1,0.1,0.2,0.1,0.3l4.2-3C58.8,11.5,59.1,10.7,59.1,10z"/>
		<path fill="#FFFFFF" d="M45.7,46.9c-0.1,0.1-0.1,0.1-0.2,0.1c8.3-11.8,7.7-29.9-2.8-44.2c-0.6-0.8-1.2-1.7-2-2.5l-0.3-0.2
			c-0.7-0.3-1.6-0.3-2.3,0.2c-0.7,0.5-1,1.4-0.9,2.1l2,18.8c0,0.6,0.3,1,0.6,1.4c0.7,0.9,2.1,1.2,3,0.5l3.8-2.8
			c3.5,9.8,0.3,21.1-8.4,27.4c-1.3,1-2.8,1.8-4.3,2.5l-2.6,1.9c5-0.2,10.1-1.8,14.5-5c7.1-5.2,10.8-13.3,10.7-21.5
			C56.4,33.9,52.7,41.8,45.7,46.9z"/>
	</g>
</g>
<g>
</g>
<g>
</g>
<g>
</g>
<g>
</g>
<g>
</g>
<g>
</g>
<g>
</g>
<g>
</g>
<g>
</g>
<g>
</g>
<g>
</g>
<g>
</g>
<g>
</g>
<g>
</g>
<g>
</g>
</svg>
