<svg xmlns="http://www.w3.org/2000/svg" xmlns:xlink="http://www.w3.org/1999/xlink" width="150" height="60" viewBox="0 0 150 60"><defs><clipPath id="a"><rect width="150" height="60" fill="none"/></clipPath></defs><title>Хостинг больше</title><g clip-path="url(#a)"><polygon points="56.043 24.872 56.043 21.167 59.748 24.872 56.043 24.872" fill="#77cea6"/><polygon points="56.043 21.167 56.043 24.872 52.339 21.167 56.043 21.167" fill="#010000" opacity="0.25"/><rect x="48.49" y="26.626" width="9.377" height="0.623" fill="#fff"/><rect x="48.49" y="28.766" width="9.377" height="0.623" fill="#fff"/><rect x="48.49" y="30.907" width="9.377" height="0.622" fill="#fff"/><rect x="48.49" y="33.124" width="9.377" height="0.623" fill="#fff"/><rect x="48.49" y="26.626" width="0.622" height="7.121" fill="#fff"/><rect x="51.252" y="26.626" width="0.623" height="7.121" fill="#fff"/><rect x="57.245" y="26.626" width="0.622" height="7.121" fill="#fff"/><path d="M133.878,49.055a49.013,49.013,0,0,0-98,0Z" fill="#666"/><path d="M130.757,48.814C130.2,24.761,110.029,4.307,85.224,4.307S40.244,24.761,39.692,48.814Z" fill="none" stroke="#e6e6e6" stroke-miterlimit="10" stroke-width="1.443" opacity="0.3"/><path d="M130.757,48.814a45.544,45.544,0,0,0-91.065,0Z" fill="none" stroke="#4d4d4d" stroke-miterlimit="10" stroke-width="1.443"/><path d="M126.433,48.093a41.22,41.22,0,0,0-82.418,0Z" fill="#333"/><path d="M126.433,50.017a41.22,41.22,0,0,0-82.418,0Z" fill="#f2f2f2"/><path d="M85.6,49.643l37.173-16.478A41.73,41.73,0,0,0,78.758,10.059Z" fill="#8cc63f"/><path d="M111.451,47.131a26.234,26.234,0,0,0-52.454,0Z" fill="#010000" opacity="0.1"/><path d="M95.636,56.271a13.5,13.5,0,1,0-20.824,0Z" fill="#ff3939"/><path d="M87.528,50.017h39.216A41.036,41.036,0,0,0,116.62,23.788Z" fill="#ffcc03"/><path d="M98.778,52.78a13.492,13.492,0,0,0-1.1-13.992L100.9,19.535,89.575,33.489a13.5,13.5,0,0,0-9.565,24.9Z" fill="#010000" opacity="0.2"/><polygon points="82.873 38.695 99.173 18.605 94.912 44.123 82.873 38.695" fill="#ff3939"/><polygon points="88.263 42.697 99.173 18.605 94.912 44.123 88.263 42.697" fill="#010000" opacity="0.2"/><path d="M98.043,53a13.5,13.5,0,1,0-19.952,5.963Z" fill="#ff3939"/><path d="M85.941,56.617l4.253-1.271a8.885,8.885,0,1,0-4.253,1.271Z" fill="#010000" opacity="0.2"/><g opacity="0.3"><path d="M116.531,49.117h.338a.51.51,0,0,1,.51.51V54.2a.508.508,0,0,1-.508.508h-.341a.508.508,0,0,1-.508-.508V49.626a.509.509,0,0,1,.509-.509Z" transform="translate(45.16 157.726) rotate(-79.919)" fill="#010000"/><path d="M114.4,40.218h4.576a.509.509,0,0,1,.509.509v.339a.509.509,0,0,1-.509.509H114.4a.51.51,0,0,1-.51-.51v-.337A.51.51,0,0,1,114.4,40.218Z" transform="translate(-5.296 20.685) rotate(-9.907)" fill="#010000"/><path d="M110.617,29.869h4.577a.509.509,0,0,1,.509.509v.34a.508.508,0,0,1-.508.508h-4.58a.51.51,0,0,1-.51-.51V30.38a.511.511,0,0,1,.511-.511Z" transform="translate(-0.105 60.704) rotate(-30.08)" fill="#010000"/><rect x="103.014" y="21.437" width="5.596" height="1.357" rx="0.509" ry="0.509" transform="translate(20.918 89.035) rotate(-50.053)" fill="#010000"/><path d="M96.118,19a.51.51,0,0,1-.653.3l-.319-.116a.506.506,0,0,1-.3-.651l1.565-4.3a.509.509,0,0,1,.651-.3l.319.117a.507.507,0,0,1,.3.652Z" fill="#010000"/><path d="M86.088,16.9c0,.281-.228.4-.509.4h-.272c-.282,0-1-.016-.521-.3V12.43c0-.281.172-.418.453-.418h.34c.28,0,.508.129.507.411Z" fill="#010000"/><path d="M74.392,13.848h.337a.509.509,0,0,1,.509.509v4.578a.509.509,0,0,1-.509.509h-.339a.509.509,0,0,1-.509-.509V14.358a.51.51,0,0,1,.51-.51Z" transform="translate(-1.181 26.624) rotate(-20.09)" fill="#010000"/><path d="M64.855,19.369H65.2a.507.507,0,0,1,.507.507v4.58a.509.509,0,0,1-.509.509h-.339a.508.508,0,0,1-.508-.508V19.877A.508.508,0,0,1,64.855,19.369Z" transform="translate(1.03 47.152) rotate(-40.151)" fill="#010000"/><path d="M57.783,27.819h.339a.509.509,0,0,1,.509.509v4.58a.508.508,0,0,1-.508.508h-.34a.508.508,0,0,1-.508-.508v-4.58A.508.508,0,0,1,57.783,27.819Z" transform="translate(2.498 65.555) rotate(-60.06)" fill="#010000"/><path d="M54.028,38.177h.34a.508.508,0,0,1,.508.508v4.58a.508.508,0,0,1-.508.508h-.34a.508.508,0,0,1-.508-.508V38.686a.509.509,0,0,1,.509-.509Z" transform="translate(4.391 87.188) rotate(-79.947)" fill="#010000"/><path d="M51.922,51.317H56.5a.508.508,0,0,1,.508.508v.34a.508.508,0,0,1-.508.508h-4.58a.507.507,0,0,1-.507-.507v-.34a.508.508,0,0,1,.508-.508Z" transform="translate(-8.254 10.276) rotate(-10.067)" fill="#010000"/><path d="M116.531,49.117h.338a.509.509,0,0,1,.509.509V54.2a.508.508,0,0,1-.508.508h-.34a.509.509,0,0,1-.509-.509V49.626A.509.509,0,0,1,116.531,49.117Z" transform="translate(45.186 157.744) rotate(-79.933)" fill="#010000"/><path d="M114.4,40.218h4.578a.508.508,0,0,1,.508.508v.34a.508.508,0,0,1-.508.508H114.4a.509.509,0,0,1-.509-.509v-.337a.509.509,0,0,1,.509-.509Z" transform="translate(-5.352 21.026) rotate(-10.067)" fill="#010000"/><path d="M110.617,29.869h4.578a.509.509,0,0,1,.509.509v.337a.51.51,0,0,1-.51.51h-4.577a.51.51,0,0,1-.51-.51v-.335A.51.51,0,0,1,110.617,29.869Z" transform="translate(-0.105 60.704) rotate(-30.08)" fill="#010000"/><path d="M103.522,21.437H108.1a.509.509,0,0,1,.509.509v.338a.509.509,0,0,1-.509.509h-4.579a.508.508,0,0,1-.508-.508v-.34a.509.509,0,0,1,.509-.509Z" transform="translate(20.802 88.888) rotate(-49.954)" fill="#010000"/><path d="M93.972,15.94h4.579a.508.508,0,0,1,.508.508v.339a.509.509,0,0,1-.509.509H93.973a.509.509,0,0,1-.509-.509v-.34a.508.508,0,0,1,.508-.508Z" transform="translate(47.663 101.357) rotate(-69.96)" fill="#010000"/><path d="M86.087,16.9c0,.282-.227.4-.508.4h-.339c-.282,0-.935-.015-.454-.3V12.43c-.481-.281.239-.418.52-.418h.307c.281,0,.491.13.49.411Z" fill="#010000"/><path d="M74.392,13.848h.338a.508.508,0,0,1,.508.508v4.58a.508.508,0,0,1-.508.508h-.341a.507.507,0,0,1-.507-.507V14.358A.51.51,0,0,1,74.392,13.848Z" transform="translate(-1.181 26.624) rotate(-20.09)" fill="#010000"/><path d="M64.856,19.369h.338a.509.509,0,0,1,.509.509v4.578a.509.509,0,0,1-.509.509h-.338a.509.509,0,0,1-.509-.509V19.879a.51.51,0,0,1,.51-.51Z" transform="translate(0.986 47.041) rotate(-40.051)" fill="#010000"/><path d="M57.784,27.819h.338a.508.508,0,0,1,.508.508v4.581a.508.508,0,0,1-.508.508h-.338a.51.51,0,0,1-.51-.51V28.328a.509.509,0,0,1,.509-.509Z" transform="translate(2.522 65.594) rotate(-60.101)" fill="#010000"/><path d="M54.028,38.177h.339a.509.509,0,0,1,.509.509v4.579a.508.508,0,0,1-.508.508h-.34a.508.508,0,0,1-.508-.508V38.686a.509.509,0,0,1,.509-.509Z" transform="translate(4.379 87.176) rotate(-79.933)" fill="#010000"/><path d="M51.922,51.316H56.5a.51.51,0,0,1,.51.51v.338a.508.508,0,0,1-.508.508H51.921a.507.507,0,0,1-.507-.507v-.34a.508.508,0,0,1,.508-.508Z" transform="translate(-8.147 10.117) rotate(-9.921)" fill="#010000"/><path d="M116.531,49.117h.338a.51.51,0,0,1,.51.51V54.2a.508.508,0,0,1-.508.508h-.34a.509.509,0,0,1-.509-.509V49.625a.509.509,0,0,1,.509-.509Z" transform="translate(45.186 157.744) rotate(-79.933)" fill="#010000"/><path d="M114.4,40.218h4.577a.51.51,0,0,1,.51.51v.338a.508.508,0,0,1-.508.508H114.4a.509.509,0,0,1-.509-.509v-.339A.508.508,0,0,1,114.4,40.218Z" transform="translate(-5.301 20.715) rotate(-9.921)" fill="#010000"/><path d="M110.616,29.868h4.579a.508.508,0,0,1,.508.508v.342a.508.508,0,0,1-.508.508h-4.58a.509.509,0,0,1-.509-.509v-.339a.509.509,0,0,1,.509-.509Z" transform="translate(-0.157 60.506) rotate(-29.98)" fill="#010000"/><path d="M103.522,21.437H108.1a.51.51,0,0,1,.51.51v.338a.509.509,0,0,1-.509.509h-4.579a.508.508,0,0,1-.508-.508v-.34A.509.509,0,0,1,103.522,21.437Z" transform="translate(20.875 88.98) rotate(-50.016)" fill="#010000"/><path d="M93.973,15.94H98.55a.51.51,0,0,1,.51.51v.338a.509.509,0,0,1-.509.509H93.974a.51.51,0,0,1-.51-.51v-.338a.509.509,0,0,1,.509-.509Z" transform="translate(47.687 101.371) rotate(-69.976)" fill="#010000"/><path d="M86.222,16.876c-.272.281-.363.428-.644.428h-.339c-.282,0-.645-.146-.645-.428l.272-4.441c0-.281.092-.423.373-.423h.34c.28,0,.372.141.372.423Z" fill="#010000"/><path d="M74.39,13.848h.339a.509.509,0,0,1,.509.509v4.579a.509.509,0,0,1-.509.509h-.339a.507.507,0,0,1-.507-.507V14.356a.509.509,0,0,1,.509-.509Z" transform="translate(-1.185 26.597) rotate(-20.069)" fill="#010000"/><path d="M64.856,19.369h.339a.509.509,0,0,1,.509.509v4.579a.508.508,0,0,1-.508.508h-.339a.509.509,0,0,1-.509-.509V19.879A.51.51,0,0,1,64.856,19.369Z" transform="translate(0.986 47.041) rotate(-40.051)" fill="#010000"/><path d="M57.785,27.819h.336a.51.51,0,0,1,.51.51v4.579a.508.508,0,0,1-.508.508h-.339a.51.51,0,0,1-.51-.51V28.329a.51.51,0,0,1,.51-.51Z" transform="translate(2.58 65.685) rotate(-60.194)" fill="#010000"/><path d="M54.027,38.178h.341a.508.508,0,0,1,.508.508v4.579a.509.509,0,0,1-.509.509h-.338a.51.51,0,0,1-.51-.51V38.685A.508.508,0,0,1,54.027,38.178Z" transform="translate(4.52 87.328) rotate(-80.107)" fill="#010000"/><path d="M51.923,51.316H56.5a.511.511,0,0,1,.511.511v.337a.509.509,0,0,1-.509.509h-4.58a.507.507,0,0,1-.507-.507v-.34a.509.509,0,0,1,.509-.509Z" transform="translate(-8.147 10.117) rotate(-9.921)" fill="#010000"/><path d="M116.531,49.116h.341a.508.508,0,0,1,.508.508V54.2a.509.509,0,0,1-.509.509h-.339a.509.509,0,0,1-.509-.509V49.625a.509.509,0,0,1,.509-.509Z" transform="translate(45.213 157.761) rotate(-79.947)" fill="#010000"/><path d="M114.4,40.218h4.58a.508.508,0,0,1,.508.508v.339a.509.509,0,0,1-.509.509H114.4a.508.508,0,0,1-.508-.508v-.34a.508.508,0,0,1,.508-.508Z" transform="translate(-5.347 20.996) rotate(-10.053)" fill="#010000"/><path d="M110.615,29.868h4.579a.509.509,0,0,1,.509.509v.339a.509.509,0,0,1-.509.509h-4.578a.51.51,0,0,1-.51-.51v-.338A.509.509,0,0,1,110.615,29.868Z" transform="matrix(0.865, -0.501, 0.501, 0.865, -0.105, 60.703)" fill="#010000"/><path d="M103.521,21.437h4.58a.509.509,0,0,1,.509.509v.339a.509.509,0,0,1-.509.509h-4.578a.509.509,0,0,1-.509-.509v-.34A.508.508,0,0,1,103.521,21.437Z" transform="translate(20.845 88.942) rotate(-49.991)" fill="#010000"/><path d="M96.115,19a.507.507,0,0,1-.651.3l-.319-.117a.507.507,0,0,1-.3-.651l1.566-4.3a.509.509,0,0,1,.651-.3l.319.117a.508.508,0,0,1,.3.652Z" fill="#010000"/><path d="M85.748,17.307a.44.44,0,0,1-.453.479h-.428a.534.534,0,0,1-.563-.479V12.55a.583.583,0,0,1,.563-.537h.428a.49.49,0,0,1,.453.537Z" fill="#010000"/></g><rect x="35.878" y="47.055" width="98" height="12.945" rx="6.473" ry="6.473" fill="#666"/><rect x="35.878" y="46.869" width="98" height="6.658" fill="#7a7a7a"/><rect x="8.785" y="19.262" width="25.093" height="6.745" rx="3.1" ry="3.1" fill="#fff"/><rect x="-4.521" y="32.753" width="31.578" height="6.745" rx="3.1" ry="3.1" fill="#fff"/><rect x="5.851" y="46.244" width="20.336" height="6.745" rx="3.373" ry="3.373" fill="#fff"/><rect x="-19.134" y="19.262" width="20.798" height="6.745" rx="3.1" ry="3.1" fill="#fff" opacity="0.8"/><rect x="29.056" y="7.787" width="11.336" height="6.745" rx="3.373" ry="3.373" fill="#fff"/></g></svg>