<svg xmlns="http://www.w3.org/2000/svg" width="284.616" height="237.441" viewBox="0 0 284.616 237.441"><ellipse fill="#F2F2F2" cx="138.205" cy="222.207" rx="138.205" ry="15.234"/><circle fill="#E73D33" cx="171.557" cy="113.059" r="112.533"/><path fill="#FFE9C9" d="M180.928 86.396l39.988-69.582c-14.8-7.604-31.576-11.898-49.36-11.898s-34.56 4.294-49.36 11.897l40.66 70.75c-7.5 3.316-13.16 10.027-15.03 18.19L75.16 63.988c-7.51 14.73-11.748 31.403-11.748 49.07 0 17.776 4.287 34.547 11.886 49.34l73.306-42.128a26.407 26.407 0 0 0 15.72 16.076l-41.974 73.04c14.76 7.552 31.486 11.818 49.205 11.818 17.72 0 34.446-4.264 49.206-11.818l-41.412-72.06c8.194-1.865 14.933-7.546 18.248-15.078l70.137 40.305c7.648-14.832 11.967-31.66 11.967-49.496 0-17.73-4.265-34.46-11.824-49.225l-69.293 39.822a26.388 26.388 0 0 0-17.655-17.26z"/><path opacity=".1" fill="#444" d="M171.555 0c-62.44 0-113.06 50.62-113.06 113.06 0 62.444 50.62 113.06 113.06 113.06 62.442 0 113.062-50.615 113.062-113.06C284.617 50.62 233.997 0 171.555 0zm0 216.21c-56.968 0-103.15-46.182-103.15-103.15 0-56.966 46.183-103.15 103.15-103.15 56.97 0 103.15 46.185 103.15 103.15 0 56.968-46.182 103.15-103.15 103.15z"/><path fill="#FFF" d="M224.926 113.06c0 29.476-23.894 53.372-53.37 53.372-29.477 0-53.37-23.896-53.37-53.373 0-29.474 23.894-53.37 53.37-53.37s53.37 23.896 53.37 53.37z"/><path opacity=".1" fill="#444" d="M171.555 34.41c-43.437 0-78.65 35.213-78.65 78.65 0 43.437 35.214 78.65 78.65 78.65 43.44 0 78.65-35.213 78.65-78.65 0-43.437-35.21-78.65-78.65-78.65zm0 132.022c-29.476 0-53.368-23.896-53.368-53.373 0-29.474 23.893-53.37 53.368-53.37 29.478 0 53.37 23.896 53.37 53.37 0 29.476-23.893 53.372-53.37 53.372z"/><g><g fill="#878787"><path d="M38.165 199.53a3.496 3.496 0 0 1-3.497 3.498H24.566a3.496 3.496 0 0 1-3.495-3.497v-98.886a3.496 3.496 0 0 1 3.496-3.496h10.102a3.497 3.497 0 0 1 3.497 3.496v98.887zM172.975 199.53a3.497 3.497 0 0 1-3.5 3.498h-10.098a3.496 3.496 0 0 1-3.497-3.497v-98.886a3.497 3.497 0 0 1 3.497-3.496h10.1c1.932 0 3.498 1.566 3.498 3.496v98.887z"/></g><path fill="#EDEDED" d="M165.203 73.658H28.84a3.495 3.495 0 0 0-3.495 3.497v90.868c0 6.226 5.22 10.107 11.655 10.107h120.045c6.438 0 11.653-3.882 11.653-10.106V77.154a3.494 3.494 0 0 0-3.495-3.496z"/><path fill="#EDEDED" d="M168.702 222.84a3.495 3.495 0 0 1-3.497 3.497H28.843a3.495 3.495 0 0 1-3.497-3.496V77.156a3.496 3.496 0 0 1 3.497-3.497h136.362a3.496 3.496 0 0 1 3.497 3.497V222.84z"/><path opacity=".1" d="M165.203 75.988H28.84a3.495 3.495 0 0 0-3.495 3.497v90.87c0 6.224 5.22 10.105 11.655 10.105h120.045c6.438 0 11.653-3.882 11.653-10.106V79.484a3.494 3.494 0 0 0-3.495-3.496z"/><path fill="#F6F6F6" d="M165.203 73.658H28.84a3.495 3.495 0 0 0-3.495 3.497v90.868c0 6.226 5.22 10.107 11.655 10.107h120.045c6.438 0 11.653-3.882 11.653-10.106V77.154a3.494 3.494 0 0 0-3.495-3.496z"/><path opacity=".03" d="M165.203 73.658L37 178.13h120.045c6.438 0 11.653-3.882 11.653-10.106V77.154a3.494 3.494 0 0 0-3.495-3.496z"/><path fill="#878787" d="M117.81 178.3c0 11.48-9.31 20.786-20.785 20.786-11.482 0-20.786-9.305-20.786-20.785 0-11.478 9.303-20.784 20.785-20.784 11.476 0 20.785 9.306 20.785 20.785z"/><path fill="#878787" d="M76.786 178.63H35.643c-6.545 0-11.867-5.323-11.867-11.866h1c0 5.99 4.875 10.866 10.867 10.866h41.144v1zM157.984 178.633H116.84v-1h41.145c5.99 0 10.865-4.875 10.865-10.866h1c0 6.543-5.323 11.866-11.866 11.866z"/><circle fill="#50CEFF" cx="97.023" cy="178.301" r="18.649"/><circle fill="#EDEDED" cx="97.024" cy="178.301" r="16.317"/><path fill="#50CEFF" d="M24.957 210.822h143.745v3.497H24.957z"/><path opacity=".2" d="M24.957 210.822h143.745v.78H24.957z"/><path opacity=".05" d="M35.446 73.658h-6.604a3.495 3.495 0 0 0-3.497 3.497v145.687a3.495 3.495 0 0 0 3.497 3.496h6.604V73.658zM158.6 73.658h6.605a3.496 3.496 0 0 1 3.497 3.497v145.687a3.495 3.495 0 0 1-3.497 3.496H158.6V73.658z"/><path d="M128.184 125.88a6.795 6.795 0 0 1-6.797 6.795H81.39c-6.932 0-12.55-5.616-12.55-12.546s5.618-12.547 12.55-12.547c.717 0 1.412.064 2.098.18 2.835-4.29 7.697-7.12 13.218-7.12 7.13 0 13.157 4.713 15.143 11.187.3-.025.597-.04.9-.04 4.72 0 8.703 3.128 10 7.428a6.8 6.8 0 0 1 5.434 6.66z" opacity=".2"/><path fill="#FFF" d="M128.184 127.42a6.796 6.796 0 0 1-6.797 6.797H81.39c-6.932 0-12.55-5.614-12.55-12.546 0-6.928 5.618-12.544 12.55-12.544.717 0 1.412.062 2.098.178 2.835-4.287 7.697-7.117 13.218-7.117 7.13 0 13.157 4.71 15.143 11.187.3-.025.597-.044.9-.044 4.72 0 8.703 3.134 10 7.432a6.795 6.795 0 0 1 5.434 6.66z" opacity=".6"/><path fill="#DADADA" d="M128.184 126.723a6.797 6.797 0 0 1-6.797 6.798H81.39c-6.932 0-12.55-5.616-12.55-12.546s5.618-12.545 12.55-12.545c.717 0 1.412.06 2.098.177 2.835-4.287 7.697-7.118 13.218-7.118 7.13 0 13.157 4.712 15.143 11.186.3-.026.597-.042.9-.042 4.72 0 8.703 3.132 10 7.43a6.795 6.795 0 0 1 5.434 6.66z"/><g fill="#3DC2EA"><path d="M97.02 188.596c-5.165 0-9.37-4.203-9.37-9.373 0-2.413.92-4.712 2.594-6.464a1.44 1.44 0 0 1 2.033-.05 1.44 1.44 0 0 1 .047 2.033 6.475 6.475 0 0 0-1.8 4.48c0 3.583 2.915 6.498 6.497 6.498 3.587 0 6.5-2.914 6.5-6.498 0-1.67-.636-3.264-1.8-4.48a1.436 1.436 0 0 1 2.08-1.984 9.33 9.33 0 0 1 2.595 6.465c0 5.17-4.205 9.373-9.374 9.373z"/><path d="M98.504 178.973a1.48 1.48 0 0 1-2.96 0v-9.485c0-.82.66-1.484 1.478-1.484s1.482.665 1.482 1.484v9.485z"/></g><path opacity=".05" d="M85.485 189.84c6.373 6.372 16.702 6.372 23.075 0 6.373-6.373 6.373-16.704 0-23.076L85.485 189.84z"/><path d="M110.236 116.6a7.265 7.265 0 0 0-9.947-.307l-.01-.013-8.638 8.513-.005-.006a4.066 4.066 0 0 1-5.568-.172 4.073 4.073 0 0 1 0-5.755 4.07 4.07 0 0 1 5.567-.17l.005-.007 2.367 2.4 2.338-2.185-2.585-2.62-.01.014a7.264 7.264 0 0 0-9.947.306 7.273 7.273 0 0 0 0 10.28 7.265 7.265 0 0 0 9.947.306l.01.01 8.637-8.51.007.005a4.067 4.067 0 1 1 0 6.097l-.007.006-2.43-2.424-2.29 2.236 2.6 2.588.01-.01a7.265 7.265 0 0 0 9.946-.307 7.268 7.268 0 0 0 0-10.278z" opacity=".3"/><g fill="#878787"><path d="M43.605 73.658V84.06a1.107 1.107 0 0 0 2.213 0V73.66h-2.213zM48.034 73.658V84.06a1.106 1.106 0 0 0 2.212 0V73.66h-2.212zM52.46 73.658V84.06a1.108 1.108 0 0 0 2.215 0V73.66H52.46z"/></g><g fill="#878787"><path d="M140.227 73.658V84.06c0 .613.5 1.11 1.107 1.11a1.11 1.11 0 0 0 1.107-1.11V73.66h-2.213zM144.654 73.658V84.06a1.11 1.11 0 0 0 1.106 1.11 1.11 1.11 0 0 0 1.108-1.11V73.66h-2.214zM149.082 73.658V84.06a1.108 1.108 0 0 0 2.214 0V73.66h-2.214z"/></g><path opacity=".15" d="M25.346 220.523v2.318a3.495 3.495 0 0 0 3.497 3.497h136.363a3.495 3.495 0 0 0 3.497-3.496v-2.317H25.346zM70.075 73.658v2.952a4.92 4.92 0 0 0 4.92 4.918h44.054a4.92 4.92 0 0 0 4.918-4.918v-2.952H70.075z"/></g><g><path fill="#FCD22E" d="M182.09 43.61a16.764 16.764 0 0 1-8.737 9.298 16.744 16.744 0 0 1 8.737 9.295 16.724 16.724 0 0 1 8.735-9.295 16.74 16.74 0 0 1-8.735-9.3z"/><path fill="#FD7600" d="M182.09 48.223a8.46 8.46 0 0 1-4.406 4.686 8.405 8.405 0 0 1 4.406 4.68 8.39 8.39 0 0 1 4.398-4.68 8.44 8.44 0 0 1-4.398-4.687z"/><g><path fill="#FCD22E" d="M167.87 57.1c-3.21 8.463-9.684 15.306-17.872 19.016A34.267 34.267 0 0 1 167.87 95.13a34.26 34.26 0 0 1 17.883-19.014A34.277 34.277 0 0 1 167.87 57.1z"/><path fill="#FD7600" d="M167.87 66.537a17.267 17.267 0 0 1-9.013 9.58 17.2 17.2 0 0 1 9.014 9.576 17.22 17.22 0 0 1 9.003-9.577 17.29 17.29 0 0 1-9.002-9.58z"/><g><path fill="#FCD22E" d="M151.707 38.214a24.185 24.185 0 0 1-12.61 13.416 24.18 24.18 0 0 1 12.61 13.417A24.172 24.172 0 0 1 164.32 51.63a24.173 24.173 0 0 1-12.613-13.416z"/><path fill="#FD7600" d="M151.707 44.875a12.19 12.19 0 0 1-6.357 6.755 12.125 12.125 0 0 1 6.357 6.754 12.133 12.133 0 0 1 6.352-6.754 12.198 12.198 0 0 1-6.353-6.755z"/></g></g></g></svg>