<svg xmlns="http://www.w3.org/2000/svg" width="32" height="42.57" viewBox="0 0 32 42.57"><g fill="#D77900"><path d="M24.9 27.778l-.247 2.737-2.494-1.154-.812 2.626-2.2-1.647-.892 1.598 6.14 10.632 2.093-5.153 5.51.762-5.84-10.115zM12.852 30.34l-2.2 1.646-.81-2.625-2.495 1.155-.248-2.737-1.26.287L0 38.18l5.51-.763 2.095 5.153 6.14-10.632zM16 7.527c-4.41 0-8 3.59-8 8s3.59 8 8 8 8-3.59 8-8-3.59-8-8-8z"/><path d="M29.586 16.955l2.026-1.428-2.026-1.428 1.686-1.82-2.28-.974 1.272-2.13-2.432-.48.8-2.346-2.48.036.296-2.46-2.417.55-.223-2.47-2.25 1.04L20.825.68 18.84 2.165 17.632 0 16 1.866 14.368 0 13.16 2.165 11.176.68l-.732 2.368-2.25-1.04-.224 2.467-2.417-.55.295 2.46-2.48-.035.8 2.347-2.43.48 1.27 2.13-2.28.974 1.687 1.82L.39 15.526l2.025 1.428L.73 18.773l2.278.976-1.27 2.127 2.43.48-.8 2.346 2.48-.036-.295 2.46 2.417-.55.224 2.47 2.25-1.042.732 2.368 1.984-1.486 1.208 2.165L16 29.188l1.632 1.866 1.208-2.165 1.984 1.485.732-2.368 2.25 1.04.224-2.468 2.417.55-.295-2.46 2.48.035-.8-2.346 2.43-.48-1.27-2.13 2.28-.975-1.686-1.82zM16 25.527c-5.514 0-10-4.486-10-10s4.486-10 10-10 10 4.486 10 10-4.486 10-10 10z"/></g></svg>