<svg baseProfile="basic" xmlns="http://www.w3.org/2000/svg" width="84" height="68" viewBox="-390 315 84 68"><circle fill="#C7C8CA" cx="-356.2" cy="348.8" r="33.8"/><circle fill="#FFF" cx="-356.2" cy="348.8" r="32.2"/><circle fill="#2588C7" cx="-356.2" cy="348.8" r="30.7"/><circle fill="#FFF" cx="-323" cy="330" r="15"/><circle fill="#094863" cx="-323" cy="330" r="12"/><path fill="#FFF" d="M-326.8 334.8v-1.7c4.1-3 5.3-4.1 5.3-5.3 0-.9-.8-1.3-1.6-1.3-1.1 0-2 .5-2.7 1.2l-1.2-1.4c1-1.1 2.5-1.6 3.9-1.6 2.1 0 3.8 1.2 3.8 3.2 0 1.7-1.4 3.2-4 5.1h4.1v1.9h-7.6zM-341.4 343h-28.5c-2.3 0-4.2-1.9-4.2-4.2v-.5c0-2.3 1.9-4.2 4.2-4.2h28.5c2.3 0 4.2 1.9 4.2 4.2v.5c0 2.3-1.9 4.2-4.2 4.2z"/><circle fill="#2588C7" cx="-368.5" cy="338.5" r="2.5"/><path fill="#2588C7" d="M-343 338h-20c-.5 0-1-.5-1-1s.5-1 1-1h20c.5 0 1 .5 1 1s-.5 1-1 1zM-343 341h-20c-.5 0-1-.5-1-1s.5-1 1-1h20c.5 0 1 .5 1 1s-.5 1-1 1z"/><path fill="#FFF" d="M-341.4 354h-28.5c-2.3 0-4.2-1.9-4.2-4.2v-.5c0-2.3 1.9-4.2 4.2-4.2h28.5c2.3 0 4.2 1.9 4.2 4.2v.5c0 2.3-1.9 4.2-4.2 4.2z"/><circle fill="#2588C7" cx="-368.5" cy="349.5" r="2.5"/><path fill="#2588C7" d="M-343 349h-20c-.5 0-1-.5-1-1s.5-1 1-1h20c.5 0 1 .5 1 1s-.5 1-1 1zM-343 352h-20c-.5 0-1-.5-1-1s.5-1 1-1h20c.5 0 1 .5 1 1s-.5 1-1 1z"/><path fill="#FFF" d="M-341.4 365h-28.5c-2.3 0-4.2-1.9-4.2-4.2v-.5c0-2.3 1.9-4.2 4.2-4.2h28.5c2.3 0 4.2 1.9 4.2 4.2v.5c0 2.3-1.9 4.2-4.2 4.2z"/><circle fill="#2588C7" cx="-368.5" cy="360.5" r="2.5"/><path fill="#2588C7" d="M-343 360h-20c-.5 0-1-.5-1-1s.5-1 1-1h20c.5 0 1 .5 1 1s-.5 1-1 1zM-343 363h-20c-.5 0-1-.5-1-1s.5-1 1-1h20c.5 0 1 .5 1 1s-.5 1-1 1z"/></svg>