<svg baseProfile="basic" xmlns="http://www.w3.org/2000/svg" width="30" height="30" viewBox="0 0 30 30"><path fill="#47A800" d="M15 2.3L17.4 0l1.5 3 3-1.5.5 3.3 3.3-.5-.5 3.3 3.3.5-1.5 3 3 1.5-2.3 2.4 2.3 2.4-3 1.5 1.5 3-3.3.5.5 3.3-3.3-.5-.5 3.3-3-1.5-1.5 3-2.4-2.3-2.4 2.3-1.5-3-3 1.5-.5-3.3-3.3.5.5-3.3-3.3-.5 1.5-3-3-1.5L2.3 15 0 12.6l3-1.5-1.5-3 3.3-.5-.5-3.3 3.3.5.5-3.3 3 1.5 1.5-3z"/><path fill="#FFF" d="M22.7 13.2c0 .7-.2 1.2-.6 1.7.1.3.2.6.2.9 0 .6-.1 1.1-.5 1.6.1.4.1.9 0 1.3s-.3.8-.6 1.1c.1.9-.1 1.5-.6 2.1-.5.6-1.2.9-2.3.9h-1.5c-.5 0-1.1-.1-1.7-.2-.6-.1-1.1-.2-1.4-.3-.3-.1-.8-.3-1.4-.5-.9-.3-1.5-.5-1.8-.5-.2 0-2.4-.1-2.5-.2s-.2-.3-.2-.5v-7.4c0-.2.1-.4.2-.5.1-.1 2.3-.2 2.5-.2.2 0 .5-.2.9-.7.4-.4.8-.9 1.2-1.4.5-.7.9-1.1 1.2-1.4.1-.1.3-.3.4-.6.1-.2.2-.4.2-.6 0-.1.1-.4.2-.7.1-.3.1-.5.1-.7 0-.2.1-.4.2-.6.1-.2.2-.4.4-.6.1-.1.3-.2.5-.2.4 0 .7 0 .9.1.3.1.5.2.7.3.2.1.3.3.5.5.1.2.2.4.3.5.1.2.1.3.1.6 0 .2.1.4.1.5v.4c0 .3 0 .6-.1.9-.1.3-.1.5-.2.7l-.3.6s-.1.1-.1.2-.1.2-.1.3c0 .1-.1.2-.1.3h3.2c.6 0 1.1.2 1.5.7.3.5.5 1 .5 1.6z"/></svg>