<svg xmlns="http://www.w3.org/2000/svg" width="234.074" height="225.736" viewBox="0 0 234.074 225.736"><ellipse fill="#F2F2F2" cx="117.038" cy="209.25" rx="117.037" ry="16.487"/><path fill="#76D9FC" d="M224.527 107.78c0 59.522-48.248 107.774-107.77 107.774S8.97 167.302 8.97 107.78C8.97 48.254 57.235 0 116.757 0c59.522 0 107.77 48.254 107.77 107.78z"/><path fill-rule="evenodd" clip-rule="evenodd" fill="#00A936" d="M47.187 128.848c-.592-.25-1.416-.417-1.966-.486-.72-.085-1.26-.11-1.75 0-1.47.433-1.57 1.965 2.413 4.36 1.066 1.416 3.003 2.714 4.834 2.005 1.062-3.022-1.148-4.862-3.53-5.683 0-.196.02-.138 0-.196zM63.85 98.32c.173.156.287.405.44.432h.227c1.074.305 2.118-.778 1.304-.848-.32-.057-.94.026-1.97.416zM88.814 88.91c-1.71.29-2.118 1.432 1.55 3.95.453-.122 3.607-.833 1.755 1.074 5.698-3.397-.397-5.54-3.306-5.023zM88.814 64.563c6.13-2.492 7.55-18.648.24-18.173-.47 0-.944.235-1.545.458 3.058 5.64-3.993 12.815 1.304 17.715zM159.232 77.947c.486-3.368-4.877-5.85-7.288-5.71-1.408.098-1.68 1.103.917 3.524-2.427 5.738 4.05 6.046 6.372 2.187zM104.39 35.89c1.77-.825 2.617-3.76 0-3.76-.476-.127-.828-.25-1.304-.225-.472.015-.945.182-1.292.224-5.174 1.03-3.602 9.606 2.596 3.76z"/><path fill-rule="evenodd" clip-rule="evenodd" fill="#00A936" d="M111.638 33.882c-7.484.946-15.037 8.178-8.076 15.334 4.985 6.225-7.197 18.928 4.364 22.188 4.59-10.267 17.145-18.4 14.04-30.918-1.296-5.337-5.816-7.174-10.328-6.604z"/><path fill="#00A936" d="M98.72 182.09c-11.083-7.366-19.104-18.635-31.59-24.12-10.16-9.862-33.067-3.732-32.653-22.382 1.06-8.854-6.05-13.132-11.385-17.295-4.103-13.705 20.898-18.747 21.26-3.735 8.23-.43 11.114-14.787 20.617-16.86 4.895-4.25 18.142.318 13.35-8.358 4.734-4.5 18.626-4.347 11.83-14.876-2.278-10.263-14.893-15.22-19.044-3.535-11.423 3.06-6.816-21.714 4.802-18.414 8.428.487 7.28-6.836 2.178-9.19 0-.36-.112-.56-.434-.24-.935-.346-1.915-.708-3.065-.65-11.39-6.295 11.4-22.34-3.698-27.423-16.57 14.15-41.835 36.417-51.953 57.224-4.567 13.05-3.805 26.183-3.274 39.9 4.64 13.284 13.646 24.244 20.822 36.154 4.587 5.75 2.383 12.368 2.03 18.663-.12.042.06.194.06.22-.238 3.817.36 7.453 3.586 10.727 5.612 7.238 13.778 12.977 17.765 21.32a106.816 106.816 0 0 0 29.427 12.69c1.14-.518 3.458-1.2 11.786-1.994v-.225c0-2.488 11.51-6.137 17.2-10.347 9.455-11.43-10.118-20.566-19.617-17.254zM199.46 177.48c15.968-18.8 25.646-43.1 25.646-69.7 0-2.968-.207-5.89-.445-8.805-.075-.725-.13-1.46-.215-2.184-6.157 3.37-17.112-15.168-5.905-6.353 2.188-.152 3.565-.778 4.602-1.726-1.294-6.752-3.05-13.298-5.51-19.54-1.098-1.308-2.157-2.532-3.06-3.27.077-1.35-.06-2.647-.22-3.94-.054-.07.066-.168 0-.237C196.783 25.57 159.698.6 116.82.6c-2.928 0-5.896.177-8.79.416-1.495.32-3.154.516-4.84.67-.574.055-1.155.124-1.726.222-6.05.85-11.83 1.906-17.513 3.705 14.818-1.085 30.035-.7 43.396 5.934 3.532 11.35 24.682.22 23.663 12.907.166.183.485.475.667.685-.336.248.245 2.56.67.625 3.652 4.137 11.347 12.717 3.27 11.644-10.703-1.465-7.92 19.62-.207 23.45 7.346 3.954 11.478-3.982 3.93-7.884-1.02-9.89 16.48 6.073 8.757 11.364-.306.21-.56.46-.858.68.356-1.416-.508-.08-.48.242-8.78 6.363-3.772 21.347-7.187 31.333-6.08 13.496 15.21 7.547 12.035-3.08-3.895-9.774 16.19-5.318 11.846-12.267 12.18 6.46 11.027-10.89 5.94-16.686 2.373-9.274 8.634 1.088 5.673 6.14.48 4.78 4.604 5.88 7.907 7.244.15.112.323.128.65.21 2.89 1.377 4.623 3.146 1.503 8.577-3.576 12.062-15.707 12.73-25.624 10.5-10.028 4.154-11.892 16.338-17.548 24.54-5.612 10.25-10.277 25.347-.2 34.413 9.644 9.26 20.726 1.225 28.72-5.04 15.327-1.992 16.732 16.057 9.195 25.247-.083.42-.147.74-.21 1.088z"/><g opacity=".2" fill="#010000"><path d="M14.215 74.562c-.027.085-.05.142-.07.208.998-.053 1.882-.123 1.882-.208h-1.812zM207.78 165.435h-.116c0 .084-.02.167-.036.25.055-.083.112-.166.15-.25z"/><path d="M216.448 140.253c0-.18.06-.32.09-.346-.18.236-1.798 1.85-14.114 3.647 3.156-10.792 4.925-22.353 5.05-34.37h16.42v-3.258h-16.42c-.165-12.145-2.013-23.803-5.264-34.666 12.443 1.796 14.073 3.427 14.247 3.65-.034-.028-.098-.157-.098-.35h2.94c-.233-.695-.47-1.392-.714-2.088-1.296-1.197-3.934-2.174-8.276-3.106-2.537-.542-5.608-1.074-9.187-1.543-4.15-12.523-10.192-23.915-17.716-33.65 7.55 1.938 13.566 4.207 17.73 6.588-1.65-2.06-3.348-4.078-5.153-6.03-4.308-1.697-9.053-3.078-13.496-4.165-.813-.208-1.64-.388-2.462-.583-11.49-13.4-25.928-23.202-42.02-27.88a107.914 107.914 0 0 0-44.778.504c-15.41 4.857-29.252 14.426-40.332 27.35-.87.205-1.74.402-2.583.61-4.064.99-8.38 2.23-12.382 3.736a110.134 110.134 0 0 0-5.02 5.778c4.11-2.146 9.725-4.178 16.588-5.947C41.993 43.87 35.95 55.23 31.792 67.755c-3.805.5-7.047 1.04-9.7 1.613-3.108.67-5.343 1.353-6.83 2.145-.315.85-.602 1.7-.874 2.55 3.053-.713 8.44-1.756 16.322-2.872-3.264 10.88-5.12 22.563-5.29 34.738H9.034c-.02.61-.063 1.225-.063 1.853 0 .473.037.932.043 1.405h16.4c.125 12.048 1.906 23.62 5.068 34.43-12.702-1.812-14.363-3.47-14.54-3.707.02.025.086.167.086.346h-2.062c.31.976.647 1.95.987 2.913 1.493.847 3.818 1.586 7.142 2.296 2.608.557 5.76 1.09 9.463 1.586 3.84 11.84 9.37 22.658 16.23 32.073-7.634-2.077-13.57-4.47-17.486-6.977 1.612 2.158 3.32 4.234 5.083 6.27 4.658 1.947 9.944 3.51 14.865 4.717.245.058.495.112.737.184 11.347 14.024 25.815 24.412 42.03 29.58 7.643 1.714 15.586 2.658 23.74 2.658 7.242 0 14.31-.723 21.152-2.086 17.05-4.945 32.244-15.612 44.04-30.225.148-.04.318-.082.478-.112 5.398-1.32 11.23-3.077 16.204-5.305 1.88-2.212 3.69-4.498 5.4-6.85-3.72 2.897-10.215 5.694-18.877 8.077 6.84-9.414 12.368-20.234 16.206-32.06 3.498-.486 6.524-1.003 9.03-1.532 4.636-1 7.338-2.045 8.527-3.368.205-.614.417-1.213.622-1.84h-3.092zM104.146 3.313c-5.893 4.232-11.323 11.545-16.01 21.603-10.807.835-20.91 2.142-29.9 3.915 12.618-13.425 28.446-22.575 45.91-25.517zM54.61 32.91c9.405-2.077 20.276-3.623 32.022-4.598a81.294 81.294 0 0 0-1.275 3.094c-3.766 9.676-6.74 20.847-8.828 33.004-11.97.444-22.976 1.13-32.444 1.98-3.142.293-6.062.6-8.75.916C39.84 54.34 46.44 42.66 54.608 32.91zM34.214 70.72c3.458-.42 7.582-.852 12.492-1.282 8.676-.74 18.592-1.32 29.285-1.742-1.87 12.035-2.904 24.93-2.993 38.23H28.63c.182-12.366 2.143-24.217 5.585-35.206zm-5.585 38.464H73c.068 13.19 1.06 25.99 2.874 37.95-10.64-.42-20.505-1.003-29.16-1.74-5.023-.444-9.215-.88-12.73-1.322-3.338-10.907-5.23-22.645-5.354-34.888zm6.456 38.313c2.762.335 5.764.642 9.01.934 9.432.865 20.394 1.533 32.317 1.993 2.08 12.435 5.094 23.855 8.944 33.716.163.4.328.793.48 1.184-12.21-1.03-23.44-2.706-33.055-4.945-7.48-9.472-13.524-20.6-17.696-32.883zm21.105 36.976c9.248 1.907 19.774 3.34 31.085 4.246 4.857 11.04 10.61 19.008 16.87 23.52-18.423-3.116-35.033-13.116-47.954-27.767zm58.642 28.716c-8.743-.92-17.08-9.387-23.91-24.19 7.7.528 15.726.806 23.91.846v23.343zm0-26.616a362.238 362.238 0 0 1-25.387-.947 93.71 93.71 0 0 1-1.088-2.7c-3.71-9.47-6.614-20.445-8.666-32.38 11.087.377 22.945.602 35.142.602v35.424zm0-38.7c-12.365 0-24.424-.224-35.684-.627-1.853-11.95-2.867-24.805-2.933-38.062h38.616v38.688zm0-41.947H76.216c.09-13.357 1.136-26.32 3.055-38.355a1064.1 1064.1 0 0 1 35.563-.627v38.982zm0-42.252c-12.154.013-23.966.22-35.017.61 2.027-11.668 4.902-22.38 8.542-31.67.615-1.602 1.258-3.118 1.91-4.595 7.883-.556 16.14-.862 24.564-.893v36.548zm0-39.818c-7.865.026-15.578.29-23.004.793 6.656-13.633 14.642-21.42 23.004-22.296v21.503zm89.416 82.07h-44.36c-.085-13.286-1.114-26.185-2.987-38.217 10.51.418 20.253 1.002 28.788 1.728 5.16.447 9.443.908 13.012 1.35 3.43 10.976 5.38 22.8 5.548 35.14zm-6.676-38.56c-2.832-.354-5.918-.66-9.274-.98-9.332-.834-20.158-1.504-31.935-1.964-2.082-12.144-5.062-23.34-8.84-33.018a92.53 92.53 0 0 0-1.26-3.094c11.75.99 22.635 2.536 32.032 4.626 8.185 9.764 14.782 21.448 19.277 34.43zm-22.9-38.513c-8.99-1.764-19.1-3.103-29.914-3.938-4.68-10.058-10.12-17.37-16.01-21.603 17.47 2.956 33.316 12.104 45.923 25.54zm-56.62-26.5c8.376.876 16.36 8.664 23.007 22.296a370.143 370.143 0 0 0-23.007-.793V2.354zm0 24.773c8.44.03 16.685.336 24.573.908.655 1.475 1.29 2.992 1.915 4.58 3.633 9.29 6.506 20.014 8.537 31.682-11.044-.39-22.86-.6-35.024-.623V27.127zm0 39.818c12.33.028 24.357.25 35.583.653 1.906 12.02 2.944 24.972 3.037 38.33h-38.62V66.944zm0 42.24h38.62c-.057 13.242-1.07 26.097-2.927 38.046-11.26.42-23.32.642-35.692.642v-38.688zm0 41.963c12.206-.013 24.063-.225 35.15-.616-2.046 11.938-4.96 22.91-8.662 32.394-.362.917-.71 1.797-1.087 2.674-8.133.615-16.668.934-25.4.974v-35.426zm0 38.697c8.204-.04 16.226-.333 23.92-.863-6.83 14.82-15.168 23.287-23.92 24.207v-23.345zm10.696 22.396c6.252-4.513 12.008-12.48 16.89-23.535 11.312-.92 21.856-2.37 31.103-4.29-12.922 14.68-29.554 24.71-47.992 27.826zm51.403-31.935c-9.602 2.274-20.854 3.957-33.096 5.003.152-.393.32-.768.468-1.17 3.857-9.86 6.878-21.295 8.958-33.732 11.763-.47 22.567-1.126 31.902-1.976 3.41-.31 6.56-.642 9.436-.974-4.16 12.27-10.188 23.383-17.667 32.85zm18.782-36.292c-3.607.463-7.945.92-13.168 1.38-8.546.71-18.27 1.296-28.746 1.728 1.828-11.947 2.8-24.76 2.87-37.936h44.368c-.133 12.228-2 23.942-5.324 34.83z"/></g><g><path fill="#3A383A" d="M86.375 89.042h95.382v105.454H86.375z"/><path fill="#5E5E5E" d="M83.873 87.34a4.538 4.538 0 0 0 4.537 4.538h93.347V75.083v-4.538H88.41a4.537 4.537 0 0 0-4.537 4.538V87.34z"/><path fill="#FFF" d="M154.286 78.52c0 .55.44.99.987.99.544 0 .984-.44.984-.99 0-.54-.44-.98-.984-.98a.984.984 0 0 0-.987.98zM157.87 78.52c0 .55.442.99.987.99s.98-.44.98-.99c0-.54-.436-.98-.98-.98s-.987.44-.987.98zM161.456 78.52a.984.984 0 1 0 .983-.982.983.983 0 0 0-.984.983zM165.036 78.52a.986.986 0 0 0 1.97 0 .986.986 0 0 0-1.97 0zM168.623 78.52a.986.986 0 0 0 1.97 0 .987.987 0 0 0-.987-.98.98.98 0 0 0-.983.98zM172.204 78.52a.985.985 0 1 0 1.97.007.985.985 0 0 0-1.97-.006zM175.79 78.52a.985.985 0 1 0 1.97.007.985.985 0 0 0-1.97-.006zM179.375 78.52a.984.984 0 0 0 1.968 0 .984.984 0 0 0-1.968 0z"/><circle fill="#FFF" cx="157.244" cy="81.211" r=".986"/><circle fill="#FFF" cx="160.826" cy="81.211" r=".987"/><circle fill="#FFF" cx="164.41" cy="81.211" r=".984"/><path fill="#FFF" d="M167.008 81.21a.984.984 0 0 0 1.968 0 .982.982 0 0 0-.983-.984.986.986 0 0 0-.985.985z"/><circle fill="#FFF" cx="171.58" cy="81.211" r=".985"/><circle fill="#FFF" cx="175.162" cy="81.211" r=".986"/><circle fill="#FFF" cx="178.747" cy="81.211" r=".986"/><path fill="#FFF" d="M156.258 86.585a.985.985 0 1 0 1.97.005.985.985 0 0 0-1.97-.005zM159.84 86.585a.986.986 0 1 0 1.974.004.986.986 0 0 0-1.975-.004zM163.426 86.585a.984.984 0 0 0 1.968 0 .984.984 0 0 0-1.968 0zM167.008 86.585c0 .547.442.988.985.988.547 0 .983-.44.983-.988a.983.983 0 0 0-.983-.985.986.986 0 0 0-.985.985zM170.595 86.585a.984.984 0 0 0 1.97 0 .984.984 0 0 0-1.97 0zM174.176 86.585a.986.986 0 1 0 1.973.003.986.986 0 0 0-1.974-.003zM177.76 86.585a.987.987 0 1 0 .985-.985.984.984 0 0 0-.984.985zM154.286 83.9a.986.986 0 1 0 1.97 0 .986.986 0 0 0-1.97 0z"/><circle fill="#FFF" cx="158.854" cy="83.899" r=".984"/><circle fill="#FFF" cx="162.441" cy="83.899" r=".985"/><circle fill="#FFF" cx="166.022" cy="83.899" r=".986"/><circle fill="#FFF" cx="169.609" cy="83.899" r=".986"/><circle fill="#FFF" cx="173.19" cy="83.899" r=".986"/><circle fill="#FFF" cx="176.775" cy="83.899" r=".986"/><circle fill="#FFF" cx="180.359" cy="83.899" r=".984"/><path fill="#FFF" d="M113.38 80.413h35.183v1.7H113.38zM113.38 84.365h35.183v1.7H113.38z"/><path fill="#EB6159" d="M91.704 81.21a6.81 6.81 0 0 0 13.62 0c0-3.76-3.048-6.808-6.812-6.808a6.81 6.81 0 0 0-6.808 6.81z"/><path fill="#3A383A" d="M93.406 81.21a5.106 5.106 0 1 0 10.213 0 5.106 5.106 0 0 0-10.214 0z"/><path fill="#5E5E5E" d="M83.873 110.56a4.54 4.54 0 0 0 4.537 4.54h93.347V98.305v-4.54H88.41a4.54 4.54 0 0 0-4.537 4.54v12.257z"/><circle fill="#FFF" cx="157.244" cy="99.057" r=".986"/><circle fill="#FFF" cx="160.826" cy="99.057" r=".987"/><circle fill="#FFF" cx="164.41" cy="99.057" r=".984"/><path fill="#FFF" d="M167.008 99.057a.985.985 0 1 0 1.97-.002.985.985 0 0 0-1.97.002z"/><circle fill="#FFF" cx="171.58" cy="99.057" r=".985"/><circle fill="#FFF" cx="175.162" cy="99.057" r=".986"/><circle fill="#FFF" cx="178.747" cy="99.057" r=".986"/><path fill="#FFF" d="M154.286 101.745c0 .543.44.984.987.984a.985.985 0 1 0-.987-.984z"/><circle fill="#FFF" cx="158.854" cy="101.745" r=".984"/><circle fill="#FFF" cx="162.441" cy="101.745" r=".985"/><circle fill="#FFF" cx="166.022" cy="101.745" r=".986"/><path fill="#FFF" d="M168.623 101.745a.987.987 0 1 0 1.97-.005.987.987 0 0 0-1.97.004z"/><circle fill="#FFF" cx="173.19" cy="101.745" r=".986"/><circle fill="#FFF" cx="176.775" cy="101.745" r=".986"/><circle fill="#FFF" cx="180.359" cy="101.745" r=".984"/><circle fill="#FFF" cx="157.244" cy="104.434" r=".986"/><circle fill="#FFF" cx="160.826" cy="104.434" r=".987"/><circle fill="#FFF" cx="164.41" cy="104.434" r=".984"/><path fill="#FFF" d="M167.008 104.434c0 .543.442.985.985.985a.98.98 0 0 0 .983-.986.985.985 0 0 0-1.968 0z"/><circle fill="#FFF" cx="171.58" cy="104.434" r=".985"/><circle fill="#FFF" cx="175.162" cy="104.434" r=".986"/><circle fill="#FFF" cx="178.747" cy="104.434" r=".986"/><path fill="#FFF" d="M156.258 109.806a.986.986 0 1 0 1.97.002.986.986 0 0 0-1.97-.002zM159.84 109.806a.986.986 0 0 0 1.972 0 .987.987 0 0 0-1.973 0zM163.426 109.806c0 .548.44.987.984.987.546 0 .984-.44.984-.987a.983.983 0 0 0-1.968 0zM167.008 109.806a.985.985 0 1 0 1.97.004.985.985 0 0 0-1.97-.004zM170.595 109.806a.985.985 0 1 0 1.97.004.985.985 0 0 0-1.97-.004zM174.176 109.806a.985.985 0 0 0 1.972 0 .985.985 0 0 0-1.972 0zM177.76 109.806a.986.986 0 1 0 1.97.003.986.986 0 0 0-1.97-.003zM154.286 107.12a.985.985 0 1 0 .987-.985.984.984 0 0 0-.987.984zM157.87 107.12c0 .545.442.987.987.987s.98-.442.98-.988c0-.544-.436-.985-.98-.985s-.987.44-.987.984zM161.456 107.12a.984.984 0 0 0 1.97 0 .984.984 0 1 0-1.97 0zM165.036 107.12a.985.985 0 1 0 .986-.984.986.986 0 0 0-.986.983zM168.623 107.12c0 .545.437.987.983.987a.987.987 0 1 0-.983-.988zM172.204 107.12a.986.986 0 1 0 .987-.985.985.985 0 0 0-.986.984zM175.79 107.12a.986.986 0 1 0 .985-.985.984.984 0 0 0-.986.984zM179.375 107.12a.984.984 0 0 0 1.968 0 .984.984 0 0 0-1.968 0zM113.38 99.576h35.183v1.702H113.38zM113.38 103.633h35.183v1.7H113.38zM113.38 107.586h35.183v1.7H113.38z"/><path fill="#EB6159" d="M91.704 104.434a6.81 6.81 0 0 0 13.62 0 6.81 6.81 0 0 0-6.812-6.81 6.808 6.808 0 0 0-6.808 6.81z"/><path fill="#3A383A" d="M93.406 104.434a5.105 5.105 0 0 0 5.105 5.104 5.106 5.106 0 0 0 0-10.212 5.107 5.107 0 0 0-5.104 5.108z"/><path fill="#5E5E5E" d="M83.873 133.75a4.537 4.537 0 0 0 4.537 4.538h93.347v-16.794-4.54H88.41a4.538 4.538 0 0 0-4.537 4.54v12.258z"/><circle fill="#FFF" cx="157.244" cy="122.247" r=".986"/><circle fill="#FFF" cx="160.826" cy="122.247" r=".987"/><circle fill="#FFF" cx="164.41" cy="122.247" r=".984"/><path fill="#FFF" d="M167.008 122.247c0 .543.442.985.985.985a.98.98 0 0 0 .983-.985.984.984 0 0 0-1.968 0z"/><circle fill="#FFF" cx="171.58" cy="122.247" r=".985"/><circle fill="#FFF" cx="175.162" cy="122.247" r=".986"/><circle fill="#FFF" cx="178.747" cy="122.247" r=".986"/><path fill="#FFF" d="M154.286 124.935a.985.985 0 0 0 1.97 0c0-.546-.44-.99-.983-.99a.988.988 0 0 0-.987.99z"/><circle fill="#FFF" cx="158.854" cy="124.935" r=".984"/><path fill="#FFF" d="M161.456 124.935a.986.986 0 0 0 1.97 0c-.002-.547-.442-.99-.988-.99a.986.986 0 0 0-.984.99z"/><circle fill="#FFF" cx="166.022" cy="124.935" r=".986"/><path fill="#FFF" d="M168.623 124.935c0 .542.437.984.983.984a.988.988 0 0 0 0-1.975.985.985 0 0 0-.983.99z"/><circle fill="#FFF" cx="173.19" cy="124.935" r=".986"/><circle fill="#FFF" cx="176.775" cy="124.935" r=".986"/><path fill="#FFF" d="M179.375 124.935a.983.983 0 0 0 1.968 0c0-.546-.44-.99-.985-.99s-.983.444-.983.99zM156.258 127.623a.984.984 0 1 0 1.97-.003.984.984 0 0 0-1.97.003zM159.84 127.623a.987.987 0 0 0 1.972 0 .987.987 0 0 0-1.973 0zM163.426 127.623a.983.983 0 0 0 1.968 0 .983.983 0 0 0-1.968 0zM167.008 127.623a.985.985 0 1 0 1.97-.004.985.985 0 0 0-1.97.003zM170.595 127.623a.986.986 0 1 0 1.97-.005.986.986 0 0 0-1.97.005zM174.176 127.623a.985.985 0 1 0 1.97-.004.985.985 0 0 0-1.97.003zM177.76 127.623a.986.986 0 1 0 1.97-.006.986.986 0 0 0-1.97.006z"/><circle fill="#FFF" cx="157.244" cy="132.997" r=".986"/><circle fill="#FFF" cx="160.826" cy="132.997" r=".987"/><circle fill="#FFF" cx="164.41" cy="132.997" r=".984"/><path fill="#FFF" d="M167.008 132.997a.985.985 0 1 0 1.97.002.985.985 0 0 0-1.97-.003z"/><circle fill="#FFF" cx="171.58" cy="132.997" r=".985"/><circle fill="#FFF" cx="175.162" cy="132.997" r=".986"/><circle fill="#FFF" cx="178.747" cy="132.997" r=".986"/><path fill="#FFF" d="M154.286 130.31c0 .543.44.983.987.983a.984.984 0 0 0 0-1.97.984.984 0 0 0-.987.987zM157.87 130.31a.985.985 0 1 0 1.97-.004.985.985 0 0 0-1.97.004zM161.456 130.31c0 .543.438.983.983.983a.984.984 0 0 0 0-1.97.983.983 0 0 0-.984.987zM165.036 130.31a.985.985 0 1 0 1.97-.005.985.985 0 0 0-1.97.005zM168.623 130.31a.986.986 0 0 0 1.97 0 .986.986 0 0 0-1.97 0zM172.204 130.31c0 .543.44.983.987.983.546 0 .985-.44.985-.983a.985.985 0 0 0-1.97 0zM175.79 130.31c0 .543.44.983.985.983a.984.984 0 0 0 0-1.97.985.985 0 0 0-.986.987zM179.375 130.31a.983.983 0 1 0 .983-.986.982.982 0 0 0-.983.986zM113.38 122.768h35.183v1.7H113.38zM113.38 126.822h35.183v1.7H113.38zM113.38 130.772h35.183v1.702H113.38z"/><path fill="#EB6159" d="M91.704 127.623a6.808 6.808 0 0 0 6.808 6.808 6.808 6.808 0 0 0 6.81-6.807 6.81 6.81 0 0 0-6.81-6.81 6.81 6.81 0 0 0-6.808 6.81z"/><path fill="#3A383A" d="M93.406 127.623a5.107 5.107 0 1 0 10.214-.002 5.107 5.107 0 0 0-10.214.003z"/><path fill="#5E5E5E" d="M83.873 156.903a4.538 4.538 0 0 0 4.537 4.538h93.347V144.646v-4.538H88.41a4.538 4.538 0 0 0-4.537 4.538v12.258z"/><circle fill="#FFF" cx="157.244" cy="145.398" r=".986"/><circle fill="#FFF" cx="160.826" cy="145.398" r=".987"/><circle fill="#FFF" cx="164.41" cy="145.398" r=".984"/><path fill="#FFF" d="M167.008 145.398a.984.984 0 1 0 1.967 0 .984.984 0 0 0-1.967 0z"/><circle fill="#FFF" cx="171.58" cy="145.398" r=".985"/><circle fill="#FFF" cx="175.162" cy="145.398" r=".986"/><circle fill="#FFF" cx="178.747" cy="145.398" r=".986"/><path fill="#FFF" d="M154.286 148.083c0 .547.44.986.987.986a.985.985 0 1 0-.987-.986zM157.87 148.083a.985.985 0 1 0 1.97.002.985.985 0 0 0-1.97-.002z"/><circle fill="#FFF" cx="162.441" cy="148.083" r=".985"/><circle fill="#FFF" cx="166.022" cy="148.083" r=".986"/><circle fill="#FFF" cx="169.609" cy="148.083" r=".986"/><circle fill="#FFF" cx="173.19" cy="148.083" r=".986"/><circle fill="#FFF" cx="176.775" cy="148.083" r=".986"/><circle fill="#FFF" cx="180.359" cy="148.083" r=".984"/><circle fill="#FFF" cx="157.244" cy="150.773" r=".986"/><circle fill="#FFF" cx="160.826" cy="150.773" r=".987"/><circle fill="#FFF" cx="164.41" cy="150.773" r=".984"/><path fill="#FFF" d="M167.008 150.773z"/><circle fill="#FFF" cx="171.58" cy="150.773" r=".985"/><circle fill="#FFF" cx="175.162" cy="150.773" r=".986"/><circle fill="#FFF" cx="178.747" cy="150.773" r=".986"/><circle fill="#FFF" cx="157.244" cy="156.148" r=".986"/><circle fill="#FFF" cx="160.826" cy="156.148" r=".987"/><circle fill="#FFF" cx="164.41" cy="156.148" r=".984"/><path fill="#FFF" d="M167.008 156.148a.985.985 0 1 0 1.97.002.985.985 0 0 0-1.97-.002z"/><circle fill="#FFF" cx="171.58" cy="156.148" r=".985"/><circle fill="#FFF" cx="175.162" cy="156.148" r=".986"/><circle fill="#FFF" cx="178.747" cy="156.148" r=".986"/><path fill="#FFF" d="M154.286 153.46a.986.986 0 1 0 1.972.002.986.986 0 0 0-1.972-.002zM157.87 153.46c0 .544.442.987.987.987s.98-.442.98-.987c0-.544-.436-.985-.98-.985s-.987.442-.987.985z"/><circle fill="#FFF" cx="162.441" cy="153.46" r=".985"/><circle fill="#FFF" cx="166.022" cy="153.46" r=".986"/><circle fill="#FFF" cx="169.609" cy="153.46" r=".986"/><circle fill="#FFF" cx="173.19" cy="153.46" r=".986"/><circle fill="#FFF" cx="176.775" cy="153.46" r=".986"/><circle fill="#FFF" cx="180.359" cy="153.46" r=".984"/><path fill="#FFF" d="M113.38 145.92h35.183v1.7H113.38zM113.38 149.973h35.183v1.702H113.38zM113.38 153.927h35.183v1.7H113.38z"/><path fill="#EB6159" d="M91.704 150.773c0 3.76 3.048 6.81 6.808 6.81a6.808 6.808 0 0 0 0-13.618 6.81 6.81 0 0 0-6.808 6.808z"/><path fill="#3A383A" d="M93.406 150.773a5.107 5.107 0 1 0 10.214.002 5.107 5.107 0 0 0-10.214-.002z"/><path fill="#5E5E5E" d="M83.873 180.124a4.54 4.54 0 0 0 4.537 4.54h93.347v-21.338H88.41a4.54 4.54 0 0 0-4.537 4.542v12.256z"/><circle fill="#FFF" cx="157.244" cy="168.619" r=".986"/><circle fill="#FFF" cx="160.826" cy="168.619" r=".987"/><circle fill="#FFF" cx="164.41" cy="168.619" r=".984"/><path fill="#FFF" d="M167.008 168.62a.985.985 0 1 0 1.97-.003.985.985 0 0 0-1.97.002z"/><circle fill="#FFF" cx="171.58" cy="168.619" r=".985"/><circle fill="#FFF" cx="175.162" cy="168.619" r=".986"/><circle fill="#FFF" cx="178.747" cy="168.619" r=".986"/><path fill="#FFF" d="M154.286 171.306c0 .544.44.984.987.984a.983.983 0 0 0 0-1.97.985.985 0 0 0-.987.986z"/><circle fill="#FFF" cx="158.854" cy="171.306" r=".984"/><circle fill="#FFF" cx="162.441" cy="171.306" r=".985"/><circle fill="#FFF" cx="166.022" cy="171.306" r=".986"/><circle fill="#FFF" cx="169.609" cy="171.306" r=".986"/><circle fill="#FFF" cx="173.19" cy="171.306" r=".986"/><circle fill="#FFF" cx="176.775" cy="171.306" r=".986"/><circle fill="#FFF" cx="180.359" cy="171.306" r=".984"/><circle fill="#FFF" cx="157.244" cy="173.996" r=".986"/><circle fill="#FFF" cx="160.826" cy="173.996" r=".987"/><circle fill="#FFF" cx="164.41" cy="173.996" r=".984"/><path fill="#FFF" d="M167.008 173.996a.985.985 0 1 0 .985-.985.984.984 0 0 0-.985.986z"/><circle fill="#FFF" cx="171.58" cy="173.996" r=".985"/><circle fill="#FFF" cx="175.162" cy="173.996" r=".986"/><circle fill="#FFF" cx="178.747" cy="173.996" r=".986"/><circle fill="#FFF" cx="157.244" cy="179.371" r=".986"/><circle fill="#FFF" cx="160.826" cy="179.371" r=".987"/><circle fill="#FFF" cx="164.41" cy="179.371" r=".984"/><path fill="#FFF" d="M167.008 179.37a.985.985 0 1 0 .985-.984.985.985 0 0 0-.985.985z"/><circle fill="#FFF" cx="171.58" cy="179.371" r=".985"/><circle fill="#FFF" cx="175.162" cy="179.371" r=".986"/><circle fill="#FFF" cx="178.747" cy="179.371" r=".986"/><path fill="#FFF" d="M154.286 176.683a.985.985 0 0 0 1.97 0 .986.986 0 0 0-1.97 0z"/><circle fill="#FFF" cx="158.854" cy="176.683" r=".984"/><circle fill="#FFF" cx="162.441" cy="176.683" r=".985"/><circle fill="#FFF" cx="166.022" cy="176.683" r=".986"/><circle fill="#FFF" cx="169.609" cy="176.683" r=".986"/><circle fill="#FFF" cx="173.19" cy="176.683" r=".986"/><circle fill="#FFF" cx="176.775" cy="176.683" r=".986"/><circle fill="#FFF" cx="180.359" cy="176.683" r=".984"/><path fill="#FFF" d="M113.38 169.142h35.183v1.7H113.38zM113.38 173.195h35.183v1.7H113.38zM113.38 177.147h35.183v1.702H113.38z"/><path fill="#EB6159" d="M91.704 173.996a6.81 6.81 0 0 0 13.62 0 6.81 6.81 0 0 0-13.62 0z"/><path fill="#3A383A" d="M93.406 173.996a5.105 5.105 0 0 0 5.105 5.104 5.104 5.104 0 0 0 0-10.21 5.104 5.104 0 0 0-5.104 5.106z"/><path fill="#5E5E5E" d="M83.873 203.314a4.535 4.535 0 0 0 4.537 4.537h93.347V191.057v-4.54H88.41a4.538 4.538 0 0 0-4.537 4.54v12.258z"/><circle fill="#FFF" cx="157.244" cy="191.806" r=".986"/><circle fill="#FFF" cx="160.826" cy="191.806" r=".987"/><circle fill="#FFF" cx="164.41" cy="191.806" r=".984"/><path fill="#FFF" d="M167.008 191.806c0 .547.442.987.985.987a.98.98 0 0 0 .983-.987.985.985 0 0 0-1.968 0z"/><circle fill="#FFF" cx="171.58" cy="191.806" r=".985"/><circle fill="#FFF" cx="175.162" cy="191.806" r=".986"/><circle fill="#FFF" cx="178.747" cy="191.806" r=".986"/><path fill="#FFF" d="M154.286 194.496c0 .545.44.983.987.983a.982.982 0 0 0 .984-.984.986.986 0 1 0-1.97 0z"/><circle fill="#FFF" cx="158.854" cy="194.496" r=".984"/><circle fill="#FFF" cx="162.441" cy="194.496" r=".985"/><circle fill="#FFF" cx="166.022" cy="194.496" r=".986"/><path fill="#FFF" d="M168.623 194.496a.98.98 0 0 0 .983.983.985.985 0 0 0 0-1.97.984.984 0 0 0-.983.986z"/><circle fill="#FFF" cx="173.19" cy="194.496" r=".986"/><circle fill="#FFF" cx="176.775" cy="194.496" r=".986"/><circle fill="#FFF" cx="180.359" cy="194.496" r=".984"/><circle fill="#FFF" cx="157.244" cy="197.185" r=".986"/><circle fill="#FFF" cx="160.826" cy="197.185" r=".987"/><circle fill="#FFF" cx="164.41" cy="197.185" r=".984"/><path fill="#FFF" d="M167.008 197.185a.984.984 0 1 0 1.968-.002.984.984 0 0 0-1.968.002z"/><circle fill="#FFF" cx="171.58" cy="197.185" r=".985"/><circle fill="#FFF" cx="175.162" cy="197.185" r=".986"/><circle fill="#FFF" cx="178.747" cy="197.185" r=".986"/><circle fill="#FFF" cx="157.244" cy="202.559" r=".986"/><circle fill="#FFF" cx="160.826" cy="202.559" r=".987"/><circle fill="#FFF" cx="164.41" cy="202.559" r=".984"/><path fill="#FFF" d="M167.008 202.56a.984.984 0 1 0 1.967 0 .984.984 0 0 0-1.967 0z"/><circle fill="#FFF" cx="171.58" cy="202.559" r=".985"/><circle fill="#FFF" cx="175.162" cy="202.559" r=".986"/><circle fill="#FFF" cx="178.747" cy="202.559" r=".986"/><path fill="#FFF" d="M154.286 199.873c0 .543.44.983.987.983a.987.987 0 1 0-.987-.983z"/><circle fill="#FFF" cx="158.854" cy="199.873" r=".984"/><path fill="#FFF" d="M161.456 199.873c0 .543.438.983.983.983.545 0 .985-.44.985-.983a.987.987 0 0 0-.986-.988.986.986 0 0 0-.984.988z"/><circle fill="#FFF" cx="166.022" cy="199.873" r=".986"/><path fill="#FFF" d="M168.623 199.873a.986.986 0 1 0 1.97-.006.986.986 0 0 0-1.97.006z"/><circle fill="#FFF" cx="173.19" cy="199.873" r=".986"/><circle fill="#FFF" cx="176.775" cy="199.873" r=".986"/><circle fill="#FFF" cx="180.359" cy="199.873" r=".984"/><path fill="#FFF" d="M113.38 192.33h35.183v1.7H113.38zM113.38 196.385h35.183v1.7H113.38zM113.38 200.336h35.183v1.7H113.38z"/><path fill="#EB6159" d="M91.704 197.185a6.81 6.81 0 1 0 6.808-6.808 6.806 6.806 0 0 0-6.808 6.808z"/><path fill="#3A383A" d="M93.406 197.185a5.107 5.107 0 1 0 10.212 0 5.107 5.107 0 0 0-10.21 0z"/><circle fill="#14CAF4" cx="98.513" cy="81.211" r="2.37"/><circle fill="#14CAF4" cx="98.513" cy="104.396" r="2.37"/><circle fill="#14CAF4" cx="98.513" cy="127.606" r="2.37"/><path fill="#14CAF4" d="M100.883 150.792a2.368 2.368 0 0 1-2.37 2.367 2.37 2.37 0 1 1 2.37-2.367z"/><circle fill="#14CAF4" cx="98.513" cy="174.031" r="2.37"/><circle fill="#14CAF4" cx="98.513" cy="197.214" r="2.37"/><path opacity=".2" fill="#FFF" d="M133.582 214.69h-8.346L178.03 65.523h3.727v13.14z"/><path opacity=".1" fill="#FFF" d="M86.396 67.533h95.36v144.533h-95.36z"/><path opacity=".3" d="M96.124 63.333v5.34H80.627v144.69h15.497V76.624h87.288v-13.29z"/><path opacity=".2" fill="#FFF" d="M117.927 214.69H80.882l53.004-149.167h37.042z"/><path fill="#D8D8D8" d="M181.757 207.204h-91.44V71.858h91.44v-9.275H79.66v153.892h102.097z"/><path fill="#D8D8D8" d="M181.143 71.858v135.346h-91.44l-9.27 9.27H191.8V62.585H89.702z"/><path opacity=".1" d="M181.143 71.858v135.346h-91.44l-9.27 9.27H191.8V62.585z"/><path opacity=".2" d="M107.214 147.622l47.417-45.058 28.782 113.534-71.656.378z"/><g><g fill="#878787"><path d="M55.287 196.78a2.66 2.66 0 0 1-2.66 2.66H44.94a2.66 2.66 0 0 1-2.662-2.66v-75.257a2.662 2.662 0 0 1 2.66-2.66h7.69a2.66 2.66 0 0 1 2.66 2.66v75.256zM157.883 196.78a2.66 2.66 0 0 1-2.664 2.66h-7.685a2.66 2.66 0 0 1-2.662-2.66v-75.257a2.66 2.66 0 0 1 2.662-2.66h7.684a2.662 2.662 0 0 1 2.663 2.66v75.256z"/></g><path fill="#EDEDED" d="M151.97 100.986H48.19a2.66 2.66 0 0 0-2.66 2.66v67.632h.002v1.523c0 4.737 3.97 7.692 8.87 7.692h91.357c4.898 0 8.868-2.955 8.868-7.69v-69.155c0-1.47-1.19-2.66-2.66-2.66z"/><path fill="#EDEDED" d="M154.63 214.52a2.66 2.66 0 0 1-2.66 2.66H48.193a2.66 2.66 0 0 1-2.66-2.66V103.646a2.66 2.66 0 0 1 2.66-2.66H151.97a2.66 2.66 0 0 1 2.66 2.66V214.52z"/><path opacity=".1" d="M151.97 102.758H48.19a2.66 2.66 0 0 0-2.66 2.66v67.634h.002v1.522c0 4.736 3.97 7.69 8.87 7.69h91.357c4.898 0 8.868-2.954 8.868-7.69V105.42a2.66 2.66 0 0 0-2.66-2.662z"/><path fill="#F6F6F6" d="M151.97 100.986H48.19a2.66 2.66 0 0 0-2.66 2.66v67.632h.002v1.523c0 4.737 3.97 7.692 8.87 7.692h91.357c4.898 0 8.868-2.955 8.868-7.69v-69.155c0-1.47-1.19-2.66-2.66-2.66z"/><path opacity=".03" d="M151.97 100.986L54.4 180.492h91.358c4.9 0 8.87-2.955 8.87-7.69v-69.155a2.66 2.66 0 0 0-2.66-2.66z"/><circle fill="#878787" cx="100.082" cy="180.623" r="15.819"/><path fill="#878787" d="M84.68 180.873H53.368c-4.98 0-9.03-4.05-9.03-9.03h.76c0 4.56 3.71 8.27 8.27 8.27H84.68v.76zM146.475 180.875h-31.312v-.762h31.312c4.56 0 8.27-3.71 8.27-8.27h.76c0 4.98-4.05 9.032-9.03 9.032z"/><circle fill="#50CEFF" cx="100.081" cy="180.623" r="14.192"/><circle fill="#EDEDED" cx="100.082" cy="180.623" r="12.417"/><path fill="#50CEFF" d="M45.236 205.373H154.63v2.66H45.237z"/><path opacity=".2" d="M45.236 205.373H154.63v.594H45.237z"/><path opacity=".05" d="M53.22 100.986h-5.027a2.66 2.66 0 0 0-2.66 2.66V214.52a2.66 2.66 0 0 0 2.66 2.66h5.026V100.986zM146.943 100.986h5.027a2.66 2.66 0 0 1 2.66 2.66V214.52a2.66 2.66 0 0 1-2.66 2.66h-5.027V100.986z"/><path d="M123.796 140.728a5.17 5.17 0 0 1-5.173 5.172h-30.44c-5.274 0-9.55-4.274-9.55-9.548 0-5.273 4.275-9.548 9.55-9.548.546 0 1.075.05 1.597.137 2.158-3.262 5.857-5.416 10.06-5.416 5.427 0 10.013 3.587 11.524 8.513.23-.02.455-.03.687-.03 3.592 0 6.623 2.382 7.61 5.653a5.172 5.172 0 0 1 4.136 5.068z" opacity=".2"/><path fill="#FFF" d="M123.796 141.9a5.172 5.172 0 0 1-5.173 5.173h-30.44c-5.274 0-9.55-4.272-9.55-9.547 0-5.273 4.275-9.547 9.55-9.547a9.56 9.56 0 0 1 1.597.134 12.042 12.042 0 0 1 10.06-5.416c5.427 0 10.013 3.585 11.524 8.513.23-.02.455-.032.687-.032 3.592 0 6.623 2.385 7.61 5.656a5.17 5.17 0 0 1 4.136 5.067z" opacity=".6"/><path fill="#DADADA" d="M123.796 141.37a5.172 5.172 0 0 1-5.173 5.173h-30.44c-5.274 0-9.55-4.275-9.55-9.55 0-5.27 4.275-9.546 9.55-9.546a9.56 9.56 0 0 1 1.597.136c2.158-3.263 5.857-5.417 10.06-5.417 5.427 0 10.013 3.587 11.524 8.514.23-.02.455-.032.687-.032 3.592 0 6.623 2.384 7.61 5.654a5.172 5.172 0 0 1 4.136 5.068z"/><g fill="#3DC2EA"><path d="M100.08 188.458c-3.932 0-7.132-3.2-7.132-7.134a7.08 7.08 0 0 1 1.975-4.92 1.095 1.095 0 0 1 1.583 1.51 4.92 4.92 0 0 0-1.37 3.41 4.952 4.952 0 0 0 4.944 4.946 4.95 4.95 0 0 0 4.946-4.946c0-1.27-.484-2.483-1.37-3.41a1.093 1.093 0 0 1 1.582-1.51 7.097 7.097 0 0 1 1.976 4.92c0 3.933-3.2 7.133-7.134 7.133z"/><path d="M101.21 181.134a1.128 1.128 0 0 1-2.256 0v-7.22c0-.623.503-1.13 1.126-1.13.623 0 1.13.507 1.13 1.13v7.22z"/></g><path opacity=".05" d="M91.3 189.403c4.85 4.85 12.712 4.85 17.562 0 4.85-4.85 4.85-12.71 0-17.56L91.3 189.402z"/><path d="M110.137 133.665a5.528 5.528 0 0 0-7.57-.232l-.007-.01-6.573 6.48-.004-.005a3.096 3.096 0 1 1 0-4.64l.004-.006 1.8 1.828 1.78-1.664-1.966-1.993-.006.01a5.53 5.53 0 0 0-7.57.232 5.53 5.53 0 0 0 7.57 8.056l.007.008 6.574-6.48.005.006a3.094 3.094 0 0 1 4.234 4.51 3.092 3.092 0 0 1-4.235.13l-.006.005-1.85-1.844-1.743 1.703 1.98 1.97.007-.01a5.53 5.53 0 0 0 7.57-8.055z" opacity=".3"/><g fill="#878787"><path d="M59.428 100.986v7.917a.844.844 0 0 0 1.685 0v-7.917H59.43zM62.8 100.986v7.917a.843.843 0 0 0 1.683 0v-7.917H62.8zM66.166 100.986v7.917a.843.843 0 0 0 1.687 0v-7.917h-1.688z"/></g><g fill="#878787"><path d="M132.96 100.986v7.917a.844.844 0 0 0 1.686 0v-7.917h-1.685zM136.33 100.986v7.917a.844.844 0 0 0 1.686 0v-7.917h-1.686zM139.7 100.986v7.917a.844.844 0 0 0 1.685 0v-7.917H139.7z"/></g><path opacity=".15" d="M45.532 212.755v1.764a2.66 2.66 0 0 0 2.66 2.66H151.97a2.66 2.66 0 0 0 2.66-2.66v-1.765H45.532zM79.572 100.986v2.247a3.745 3.745 0 0 0 3.744 3.743h33.527a3.744 3.744 0 0 0 3.743-3.743v-2.247H79.572z"/></g></g></svg>