<svg xmlns="http://www.w3.org/2000/svg" width="167.289" height="194.401" viewBox="0 0 167.289 194.401"><ellipse fill="#D8D8D8" cx="83.646" cy="181.864" rx="83.645" ry="12.537"/><g fill="#878787"><path d="M99.018 134.035a1.84 1.84 0 0 1-1.842 1.842h-5.322a1.84 1.84 0 0 1-1.84-1.842V81.94c0-1.015.823-1.84 1.84-1.84h5.322c1.018 0 1.842.825 1.842 1.84v52.095zM159.5 134.035c0 1.02-.825 1.842-1.844 1.842h-5.32a1.84 1.84 0 0 1-1.842-1.842V81.94c0-1.015.824-1.84 1.84-1.84h5.322c1.02 0 1.844.825 1.844 1.84v52.095z"/></g><path fill="#EDEDED" d="M155.405 60.35h-61.3a1.84 1.84 0 0 0-1.842 1.843v55.245c0 3.278 2.75 5.322 6.14 5.322h52.703c3.393 0 6.14-2.044 6.14-5.322V62.193a1.84 1.84 0 0 0-1.84-1.843z"/><path fill="#4C4C4C" d="M157.248 182.654a1.84 1.84 0 0 1-1.84 1.84H94.105a1.84 1.84 0 0 1-1.843-1.84V62.194c0-1.02.824-1.844 1.843-1.844h61.3a1.84 1.84 0 0 1 1.842 1.843v120.46z"/><circle opacity=".1" cx="124.756" cy="122.851" r="13.083"/><path opacity=".1" d="M155.405 63.158h-61.3a1.84 1.84 0 0 0-1.842 1.84v55.248c0 3.28 2.75 5.324 6.14 5.324h52.703c3.393 0 6.14-2.045 6.14-5.325V65a1.84 1.84 0 0 0-1.84-1.842z"/><path fill="#5E5E5E" d="M155.405 60.35h-61.3a1.84 1.84 0 0 0-1.842 1.843v55.245c0 3.278 2.75 5.322 6.14 5.322h52.703c3.393 0 6.14-2.044 6.14-5.322V62.193a1.84 1.84 0 0 0-1.84-1.843z"/><path fill="#50CEFF" d="M137.59 100.692h-21.07c-4.1 0-7.434-3.334-7.434-7.433 0-4.1 3.335-7.433 7.434-7.433.24 0 .48.012.72.036a9.145 9.145 0 0 1 7.35-3.69c3.84 0 7.2 2.333 8.556 5.87a6.285 6.285 0 0 1 5.8 4.055 4.416 4.416 0 0 1 3.05 4.19 4.41 4.41 0 0 1-4.405 4.404zm-21.07-13.218a5.794 5.794 0 0 0-5.788 5.786 5.794 5.794 0 0 0 5.788 5.787h21.07a2.76 2.76 0 0 0 2.76-2.757 2.763 2.763 0 0 0-2.204-2.702l-.48-.098-.145-.47c-.64-2.124-2.687-3.49-4.888-3.31l-.66.052-.193-.633a7.478 7.478 0 0 0-7.19-5.31 7.508 7.508 0 0 0-6.277 3.38l-.296.447-.528-.09a5.567 5.567 0 0 0-.97-.083z"/><circle fill="#878787" cx="124.756" cy="122.851" r="10.95"/><path fill="#878787" d="M114.095 123.024H97.688a6.258 6.258 0 0 1-6.25-6.25h.525a5.732 5.732 0 0 0 5.725 5.724h16.406v.526zM151.602 123.026h-16.407v-.527h16.407a5.732 5.732 0 0 0 5.726-5.724h.526a6.258 6.258 0 0 1-6.252 6.25z"/><circle fill="#50CEFF" cx="124.755" cy="122.851" r="9.825"/><circle fill="#727272" cx="124.756" cy="122.851" r="8.596"/><path opacity=".1" d="M97.585 60.35h-3.48c-1.018 0-1.842.824-1.842 1.843v120.46a1.84 1.84 0 0 0 1.843 1.842h3.48V60.35zM151.927 60.35h3.48a1.84 1.84 0 0 1 1.84 1.843v120.46a1.84 1.84 0 0 1-1.84 1.842h-3.48V60.35z"/><g fill="#3DC2EA"><path d="M124.756 128.274a4.943 4.943 0 0 1-4.938-4.937c0-1.27.483-2.482 1.367-3.406a.756.756 0 0 1 1.095 1.046 3.41 3.41 0 0 0-.95 2.36c0 1.888 1.537 3.424 3.425 3.424s3.424-1.536 3.424-3.423c0-.88-.337-1.72-.95-2.36a.76.76 0 0 1 .024-1.072.76.76 0 0 1 1.07.026 4.916 4.916 0 0 1 1.368 3.407 4.94 4.94 0 0 1-4.936 4.937z"/><path d="M125.536 123.206a.78.78 0 0 1-1.56 0v-4.998c0-.43.35-.782.78-.782.43 0 .78.35.78.782v4.998z"/></g><path opacity=".05" d="M118.678 128.93a8.595 8.595 0 0 0 12.157 0c3.355-3.358 3.355-8.8 0-12.156l-12.157 12.155z"/><path fill="#50CEFF" d="M131.717 90.873a3.827 3.827 0 0 0-5.24-.16l-.005-.007-4.55 4.484-.003-.003a2.143 2.143 0 1 1 0-3.213l.002-.003 1.246 1.267 1.232-1.15-1.36-1.38-.007.006a3.826 3.826 0 0 0-5.24.16 3.83 3.83 0 0 0 0 5.416 3.826 3.826 0 0 0 5.24.16l.006.007 4.55-4.484.002.003a2.143 2.143 0 1 1 0 3.213l-.003.002-1.28-1.277-1.207 1.18 1.37 1.363.003-.006a3.828 3.828 0 0 0 5.24-5.58z"/><g fill="#4C4C4C"><path d="M101.883 60.35v5.48a.584.584 0 0 0 1.167 0v-5.48h-1.167zM104.216 60.35v5.48a.584.584 0 0 0 1.166 0v-5.48h-1.166zM106.548 60.35v5.48a.584.584 0 0 0 1.167 0v-5.48h-1.167z"/></g><g fill="#4C4C4C"><path d="M142.247 60.35v5.48a.584.584 0 0 0 1.168 0v-5.48h-1.168zM144.58 60.35v5.48a.585.585 0 0 0 1.167 0v-5.48h-1.167zM146.913 60.35v5.48a.584.584 0 0 0 1.167 0v-5.48h-1.167z"/></g><path opacity=".15" d="M92.264 181.434v1.22a1.84 1.84 0 0 0 1.843 1.842h61.3a1.84 1.84 0 0 0 1.842-1.84v-1.222H92.263zM110.56 60.35v1.555a2.59 2.59 0 0 0 2.592 2.59h3.55v.667c0 .812.657 1.47 1.47 1.47h13.168c.812 0 1.47-.658 1.47-1.47v-.666h3.55c1.432 0 2.593-1.16 2.593-2.59V60.35H110.56z"/><path fill="#878787" d="M123 132.674h3.51v51.82H123z"/><path fill="#50CEFF" d="M124.127 132.118h1.26v52.377h-1.26z"/><path opacity=".2" d="M157.656 80.1h-.408V62.192a1.84 1.84 0 0 0-1.84-1.843H94.102a1.84 1.84 0 0 0-1.842 1.843V80.1h-.41c-1.017 0-1.84.825-1.84 1.84v52.095a1.84 1.84 0 0 0 1.84 1.842h.41v46.777a1.84 1.84 0 0 0 1.843 1.842h61.303a1.84 1.84 0 0 0 1.84-1.84v-46.779h.41c1.018 0 1.843-.824 1.843-1.842V81.94a1.843 1.843 0 0 0-1.844-1.84z"/><g><g fill="#878787"><path d="M16.907 134.035a1.84 1.84 0 0 1-1.842 1.842H9.743a1.84 1.84 0 0 1-1.842-1.842V81.94c0-1.015.825-1.84 1.843-1.84h5.322c1.018 0 1.842.825 1.842 1.84v52.095zM77.39 134.035a1.84 1.84 0 0 1-1.844 1.842h-5.32a1.84 1.84 0 0 1-1.842-1.842V81.94c0-1.015.824-1.84 1.84-1.84h5.322c1.018 0 1.843.825 1.843 1.84v52.095z"/></g><path fill="#EDEDED" d="M73.295 60.35h-61.3a1.84 1.84 0 0 0-1.842 1.843v55.245c0 3.278 2.75 5.322 6.14 5.322h52.704c3.392 0 6.14-2.044 6.14-5.322V62.193a1.84 1.84 0 0 0-1.842-1.843z"/><path fill="#4C4C4C" d="M75.138 182.654a1.84 1.84 0 0 1-1.842 1.84h-61.3a1.84 1.84 0 0 1-1.843-1.84V62.194c0-1.02.824-1.844 1.843-1.844h61.3a1.84 1.84 0 0 1 1.842 1.843v120.46z"/><circle opacity=".1" cx="42.646" cy="122.851" r="13.084"/><path opacity=".1" d="M73.295 63.158h-61.3a1.84 1.84 0 0 0-1.842 1.84v55.248c0 3.28 2.75 5.324 6.14 5.324h52.704c3.392 0 6.14-2.045 6.14-5.325V65a1.84 1.84 0 0 0-1.842-1.842z"/><path fill="#5E5E5E" d="M73.295 60.35h-61.3a1.84 1.84 0 0 0-1.842 1.843v55.245c0 3.278 2.75 5.322 6.14 5.322h52.704c3.392 0 6.14-2.044 6.14-5.322V62.193a1.84 1.84 0 0 0-1.842-1.843z"/><path fill="#50CEFF" d="M55.48 100.692H34.41c-4.1 0-7.435-3.334-7.435-7.433 0-4.1 3.335-7.433 7.434-7.433.24 0 .478.012.72.036a9.143 9.143 0 0 1 7.35-3.69 9.11 9.11 0 0 1 8.555 5.87 6.286 6.286 0 0 1 5.8 4.055 4.417 4.417 0 0 1 3.05 4.19 4.41 4.41 0 0 1-4.406 4.404zM34.41 87.474a5.794 5.794 0 0 0-5.79 5.786 5.794 5.794 0 0 0 5.79 5.787h21.07a2.76 2.76 0 0 0 2.758-2.757 2.763 2.763 0 0 0-2.204-2.702l-.482-.098-.142-.47c-.64-2.124-2.686-3.49-4.89-3.31l-.66.052-.193-.633a7.477 7.477 0 0 0-7.188-5.31 7.51 7.51 0 0 0-6.28 3.38l-.294.447-.528-.09a5.567 5.567 0 0 0-.97-.083z"/><circle fill="#878787" cx="42.646" cy="122.851" r="10.949"/><path fill="#878787" d="M31.984 123.024H15.577a6.26 6.26 0 0 1-6.25-6.25h.525a5.732 5.732 0 0 0 5.725 5.724h16.407v.526zM69.49 123.026H53.086v-.527H69.49a5.73 5.73 0 0 0 5.726-5.724h.527a6.26 6.26 0 0 1-6.252 6.25z"/><circle fill="#50CEFF" cx="42.646" cy="122.851" r="9.824"/><circle fill="#727272" cx="42.646" cy="122.851" r="8.596"/><path opacity=".1" d="M15.474 60.35h-3.478c-1.02 0-1.843.824-1.843 1.843v120.46a1.84 1.84 0 0 0 1.843 1.842h3.478V60.35zM69.816 60.35h3.48a1.84 1.84 0 0 1 1.84 1.843v120.46a1.84 1.84 0 0 1-1.84 1.842h-3.48V60.35z"/><g fill="#3DC2EA"><path d="M42.646 128.274a4.943 4.943 0 0 1-4.938-4.937c0-1.27.484-2.482 1.366-3.406a.758.758 0 0 1 1.096 1.046c-.612.64-.95 1.48-.95 2.36a3.427 3.427 0 0 0 3.425 3.424 3.427 3.427 0 0 0 3.423-3.423c0-.88-.335-1.72-.948-2.36a.76.76 0 0 1 .024-1.072.76.76 0 0 1 1.07.026 4.916 4.916 0 0 1 1.368 3.407 4.94 4.94 0 0 1-4.936 4.937z"/><path d="M43.425 123.206a.78.78 0 0 1-1.56 0v-4.998c0-.43.35-.782.78-.782.43 0 .78.35.78.782v4.998z"/></g><path opacity=".05" d="M36.566 128.93a8.595 8.595 0 0 0 12.157 0c3.356-3.358 3.356-8.8 0-12.156L36.566 128.93z"/><path fill="#50CEFF" d="M49.605 90.873a3.826 3.826 0 0 0-5.24-.16l-.005-.007-4.55 4.484-.003-.003a2.142 2.142 0 0 1-2.933-3.123 2.144 2.144 0 0 1 2.933-.09l.004-.003 1.247 1.267 1.232-1.15-1.362-1.38-.006.006a3.827 3.827 0 0 0-5.24 5.576 3.827 3.827 0 0 0 5.24.16l.006.007 4.55-4.484.003.003a2.143 2.143 0 1 1 0 3.213l-.002.002-1.28-1.277-1.206 1.18 1.368 1.363.005-.006a3.827 3.827 0 0 0 5.24-.162 3.83 3.83 0 0 0 0-5.417z"/><g fill="#4C4C4C"><path d="M19.772 60.35v5.48a.584.584 0 0 0 1.166 0v-5.48h-1.166zM22.105 60.35v5.48a.584.584 0 0 0 1.166 0v-5.48h-1.165zM24.438 60.35v5.48a.584.584 0 0 0 1.167 0v-5.48h-1.167z"/></g><g fill="#4C4C4C"><path d="M60.137 60.35v5.48a.585.585 0 0 0 1.167 0v-5.48h-1.167zM62.47 60.35v5.48a.584.584 0 0 0 1.167 0v-5.48H62.47zM64.803 60.35v5.48a.583.583 0 0 0 1.166 0v-5.48h-1.167z"/></g><path opacity=".15" d="M10.153 181.434v1.22a1.84 1.84 0 0 0 1.843 1.842h61.301a1.84 1.84 0 0 0 1.84-1.84v-1.222H10.154zM28.45 60.35v1.555a2.59 2.59 0 0 0 2.59 2.59h3.55v.667c0 .812.658 1.47 1.47 1.47h13.17c.812 0 1.47-.658 1.47-1.47v-.666h3.55a2.592 2.592 0 0 0 2.59-2.59V60.35H28.45z"/><path fill="#878787" d="M40.892 132.674h3.51v51.82h-3.51z"/><path fill="#50CEFF" d="M42.017 132.118h1.26v52.377h-1.26z"/><path opacity=".2" d="M75.546 80.1h-.408V62.192a1.84 1.84 0 0 0-1.842-1.843H11.993a1.84 1.84 0 0 0-1.84 1.843V80.1h-.41A1.842 1.842 0 0 0 7.9 81.94v52.095a1.84 1.84 0 0 0 1.842 1.842h.41v46.777a1.84 1.84 0 0 0 1.843 1.842h61.302a1.84 1.84 0 0 0 1.84-1.84v-46.779h.41a1.842 1.842 0 0 0 1.842-1.842V81.94a1.842 1.842 0 0 0-1.842-1.84z"/></g><path opacity=".2" d="M116.673 182.964L127.72 60.35l28.87 124.278-34.134-.132zM52.78 182.964L41.732 60.35l-28.87 124.278 34.134-.132z"/><g><g fill="#878787"><path d="M52.03 124.095a2.3 2.3 0 0 1-2.3 2.3h-6.646a2.3 2.3 0 0 1-2.3-2.3v-65.06a2.3 2.3 0 0 1 2.3-2.3h6.646a2.3 2.3 0 0 1 2.3 2.3v65.06zM127.567 124.095a2.3 2.3 0 0 1-2.302 2.3h-6.645a2.3 2.3 0 0 1-2.3-2.3v-65.06a2.3 2.3 0 0 1 2.3-2.3h6.645a2.3 2.3 0 0 1 2.302 2.3v65.06z"/></g><path fill="#EDEDED" d="M122.455 32.07h-76.56a2.3 2.3 0 0 0-2.3 2.3v68.995c0 4.096 3.434 6.65 7.67 6.65h65.82c4.236 0 7.67-2.554 7.67-6.65V34.37c0-1.272-1.03-2.3-2.3-2.3z"/><path fill="#4C4C4C" d="M124.756 182.196a2.3 2.3 0 0 1-2.3 2.3h-76.56a2.3 2.3 0 0 1-2.3-2.3V34.37a2.3 2.3 0 0 1 2.3-2.3h76.56a2.3 2.3 0 0 1 2.3 2.3v147.826z"/><path opacity=".1" d="M100.517 110.126c0 9.024-7.316 16.34-16.34 16.34-9.027 0-16.34-7.315-16.34-16.34s7.312-16.34 16.34-16.34c9.023 0 16.34 7.316 16.34 16.34z"/><path opacity=".1" d="M122.455 35.575h-76.56a2.3 2.3 0 0 0-2.3 2.3v68.997c0 4.096 3.434 6.65 7.67 6.65h65.82c4.236 0 7.67-2.554 7.67-6.65V37.876c0-1.27-1.03-2.3-2.3-2.3z"/><path fill="#5E5E5E" d="M122.455 32.07h-76.56a2.3 2.3 0 0 0-2.3 2.3v68.995c0 4.096 3.434 6.65 7.67 6.65h65.82c4.236 0 7.67-2.554 7.67-6.65V34.37c0-1.272-1.03-2.3-2.3-2.3z"/><path fill="#50CEFF" d="M100.206 82.248H73.89c-5.006 0-9.08-4.072-9.08-9.078 0-5.335 4.64-9.62 10.074-9.022a11.224 11.224 0 0 1 9.084-4.62c4.756 0 8.916 2.92 10.543 7.332h.013c3.26 0 6.104 2 7.218 5.023a5.314 5.314 0 0 1 3.76 5.07 5.303 5.303 0 0 1-5.294 5.295zM73.89 65.738c-4.1 0-7.434 3.333-7.434 7.432 0 4.097 3.335 7.43 7.434 7.43h26.316a3.652 3.652 0 0 0 3.648-3.648 3.658 3.658 0 0 0-2.916-3.575l-.48-.097-.144-.47A6.014 6.014 0 0 0 94 68.53l-.663.056-.194-.636a9.545 9.545 0 0 0-9.175-6.777 9.585 9.585 0 0 0-8.01 4.313l-.295.445-.527-.087a7.714 7.714 0 0 0-1.246-.105z"/><circle fill="#878787" cx="84.176" cy="110.126" r="13.675"/><path fill="#878787" d="M70.862 110.343h-20.49c-4.306 0-7.81-3.502-7.81-7.807h.66c0 3.94 3.206 7.15 7.148 7.15h20.49v.657zM117.704 110.345h-20.49v-.658h20.49c3.94 0 7.15-3.207 7.15-7.15h.657c.002 4.305-3.5 7.808-7.806 7.808z"/><circle fill="#50CEFF" cx="84.176" cy="110.126" r="12.27"/><circle fill="#727272" cx="84.177" cy="110.126" r="10.734"/><path opacity=".1" d="M50.242 32.07h-4.345a2.3 2.3 0 0 0-2.3 2.3v147.826a2.3 2.3 0 0 0 2.3 2.3h4.345V32.07zM118.11 32.07h4.346a2.3 2.3 0 0 1 2.3 2.3v147.826a2.3 2.3 0 0 1-2.3 2.3h-4.346V32.07z"/><g fill="#3DC2EA"><path d="M84.176 116.9a6.173 6.173 0 0 1-6.166-6.166c0-1.588.604-3.1 1.707-4.253a.945.945 0 0 1 1.368 1.306 4.255 4.255 0 0 0-1.185 2.948 4.28 4.28 0 0 0 4.275 4.275 4.28 4.28 0 0 0 4.275-4.276c0-1.1-.42-2.148-1.185-2.948a.946.946 0 1 1 1.368-1.305 6.135 6.135 0 0 1 1.708 4.252 6.17 6.17 0 0 1-6.164 6.166z"/><path d="M85.15 110.57a.975.975 0 0 1-1.95 0v-6.24c0-.54.437-.98.975-.98.537 0 .975.44.975.98v6.24z"/></g><path opacity=".05" d="M76.585 117.718c4.193 4.192 10.99 4.192 15.182 0 4.192-4.193 4.192-10.99 0-15.182l-15.182 15.182z"/><path fill="#50CEFF" d="M92.87 70.19a4.78 4.78 0 0 0-6.545-.202l-.006-.008-5.685 5.6-.003-.003c-1.05.93-2.66.894-3.663-.113a2.68 2.68 0 0 1 0-3.787 2.678 2.678 0 0 1 3.662-.113l.003-.003 1.558 1.58 1.538-1.437-1.698-1.723-.007.008a4.782 4.782 0 0 0-6.545.2 4.78 4.78 0 0 0 6.545 6.965l.007.01 5.683-5.602.003.004a2.677 2.677 0 1 1 0 4.013l-.003.004-1.6-1.595-1.507 1.473 1.71 1.704.007-.008a4.778 4.778 0 0 0 6.544-.202 4.785 4.785 0 0 0 0-6.763z"/><g fill="#4C4C4C"><path d="M55.61 32.07v6.843a.728.728 0 0 0 1.457 0V32.07H55.61zM58.524 32.07v6.843a.727.727 0 0 0 1.456 0V32.07h-1.456zM61.436 32.07v6.843a.73.73 0 0 0 1.458 0V32.07h-1.458z"/></g><g fill="#4C4C4C"><path d="M106.02 32.07v6.843a.73.73 0 0 0 1.46 0V32.07h-1.46zM108.935 32.07v6.843a.73.73 0 0 0 1.458 0V32.07h-1.458zM111.85 32.07v6.843a.728.728 0 0 0 1.456 0V32.07h-1.457z"/></g><path opacity=".15" d="M43.597 180.67v1.525a2.3 2.3 0 0 0 2.3 2.3H122.46a2.3 2.3 0 0 0 2.3-2.3v-1.525h-81.16zM66.446 32.07v1.94a3.237 3.237 0 0 0 3.237 3.237h4.433v.83c0 1.015.82 1.837 1.836 1.837h16.446a1.835 1.835 0 0 0 1.836-1.836v-.83h4.433a3.236 3.236 0 0 0 3.236-3.237v-1.94H66.446z"/><path fill="#878787" d="M81.985 122.396h4.382v62.1h-4.382z"/><path fill="#50CEFF" d="M83.39 121.7h1.572v62.796h-1.57z"/><path opacity=".04" fill="#FFF" d="M122.455 32.07H83.75c-1.27 0 33.337 77.945 33.337 77.945 4.235 0 7.668-2.554 7.668-6.65V34.37a2.3 2.3 0 0 0-2.3-2.3z"/></g><g fill="#8AE1FF"><path d="M136.89 42.566a1.234 1.234 0 0 1-1.233-1.234 20.61 20.61 0 0 0-6.075-14.67 20.613 20.613 0 0 0-14.67-6.078 1.234 1.234 0 0 1 0-2.47c6.2 0 12.03 2.417 16.415 6.8s6.8 10.216 6.8 16.417c-.002.683-.555 1.236-1.236 1.236z"/><path d="M145.697 42.986a1.234 1.234 0 0 1-1.234-1.235c0-16.526-13.446-29.972-29.974-29.972a1.234 1.234 0 0 1 0-2.468c17.887 0 32.44 14.553 32.44 32.44.002.683-.55 1.236-1.233 1.236z"/><path d="M155.008 44.457a1.233 1.233 0 0 1-1.234-1.234c0-22.472-18.283-40.753-40.755-40.753a1.235 1.235 0 0 1 0-2.47c23.833 0 43.223 19.39 43.223 43.222 0 .682-.553 1.235-1.235 1.235z"/></g><g><path fill="#FCD22E" d="M44.95 15.65a27.3 27.3 0 0 0 14.23 15.14 27.282 27.282 0 0 0-14.23 15.14 27.273 27.273 0 0 0-14.236-15.14A27.283 27.283 0 0 0 44.95 15.65z"/><path fill="#FD7600" d="M44.95 23.164a13.738 13.738 0 0 0 7.176 7.626 13.69 13.69 0 0 0-7.177 7.624 13.706 13.706 0 0 0-7.168-7.624 13.76 13.76 0 0 0 7.167-7.626z"/><path fill="#FCD22E" d="M33.63 4.91a13.34 13.34 0 0 0 6.955 7.404 13.323 13.323 0 0 0-6.956 7.4 13.32 13.32 0 0 0-6.955-7.4A13.328 13.328 0 0 0 33.63 4.91z"/><path fill="#FD7600" d="M33.63 8.583c.63 1.66 1.898 3 3.508 3.73a6.7 6.7 0 0 0-3.51 3.728 6.68 6.68 0 0 0-3.5-3.726 6.717 6.717 0 0 0 3.5-3.73z"/><g><path fill="#FCD22E" d="M57.817.615a19.25 19.25 0 0 0 10.04 10.68 19.255 19.255 0 0 0-10.04 10.684 19.24 19.24 0 0 0-10.042-10.684A19.23 19.23 0 0 0 57.817.616z"/><path fill="#FD7600" d="M57.817 5.917a9.706 9.706 0 0 0 5.063 5.378 9.66 9.66 0 0 0-5.063 5.377 9.647 9.647 0 0 0-5.057-5.377 9.696 9.696 0 0 0 5.057-5.378z"/></g></g></svg>