<svg xmlns="http://www.w3.org/2000/svg" width="82.865" height="82.065" viewBox="0 0 82.865 82.065"><path fill="#FBD12E" d="M82.865 41.033c0 1.927-3.247 3.6-3.51 5.455-.27 1.9 2.37 4.417 1.843 6.222-.54 1.834-4.125 2.525-4.91 4.24-.793 1.734 1.028 4.897.004 6.487-1.03 1.6-4.667 1.25-5.908 2.682-1.244 1.434-.384 4.983-1.818 6.226-1.432 1.242-4.823-.11-6.422.92-1.59 1.023-1.76 4.67-3.495 5.464-1.716.785-4.586-1.47-6.42-.932-1.805.53-3.002 3.98-4.9 4.25-1.855.265-3.97-2.708-5.897-2.708s-4.042 2.973-5.896 2.708c-1.9-.27-3.097-3.72-4.902-4.25-1.834-.538-4.704 1.716-6.42.932-1.733-.794-1.904-4.442-3.494-5.465-1.598-1.03-4.99.323-6.42-.92-1.436-1.242-.575-4.792-1.82-6.226-1.24-1.433-4.877-1.084-5.907-2.683-1.023-1.59.797-4.753.004-6.487-.785-1.714-4.372-2.406-4.91-4.24-.528-1.804 2.113-4.32 1.843-6.22C3.246 44.633 0 42.96 0 41.032s3.246-3.602 3.51-5.454c.27-1.902-2.37-4.42-1.84-6.223.537-1.834 4.124-2.526 4.908-4.24.793-1.734-1.028-4.898-.004-6.488 1.03-1.6 4.666-1.252 5.907-2.683 1.245-1.435.385-4.984 1.82-6.227 1.432-1.242 4.822.11 6.42-.92 1.59-1.023 1.762-4.67 3.497-5.464 1.714-.785 4.583 1.47 6.42.93 1.803-.528 3-3.98 4.9-4.25 1.854-.264 3.97 2.71 5.896 2.71 1.926 0 4.042-2.974 5.896-2.71 1.898.272 3.096 3.723 4.9 4.25 1.834.54 4.705-1.715 6.42-.93 1.733.793 1.904 4.44 3.494 5.465 1.6 1.03 4.99-.322 6.422.92 1.434 1.243.575 4.792 1.818 6.227 1.242 1.432 4.876 1.083 5.907 2.683 1.024 1.59-.796 4.753-.003 6.487.785 1.714 4.37 2.406 4.91 4.24.528 1.804-2.113 4.32-1.843 6.22.264 1.854 3.51 3.53 3.51 5.456z"/><circle fill="#44A8E0" cx="41.433" cy="41.033" r="34.695"/><circle fill="#FBD12E" cx="41.432" cy="41.033" r="21.09"/><g fill="#FFF"><path d="M17.285 46.335l-6.022.702-.496-4.26 1.128-.132.348 2.98 4.894-.572.148 1.282zM17.094 37.876l-1.053.292-.2 2.59.993.46-.113 1.47-5.86-2.81.124-1.61 6.224-1.86-.114 1.468zm-4.886 1.297l2.527 1.145.146-1.885-2.672.74zM17.353 36.196l-5.79-1.796.84-2.708c.39-1.26 1.454-1.68 2.47-1.366 1.006.312 1.65 1.273 1.263 2.523l-.458 1.475 2.057.638-.382 1.233zm-2.872-4.61c-.485-.152-.893.12-1.044.607l-.406 1.31 1.562.486.406-1.313c.15-.486-.04-.944-.517-1.092zM20.747 28.023l-1.08-.165-1.244 2.28.718.828-.704 1.293-4.198-4.962.774-1.42 6.44.853-.705 1.293zm-4.99-.817l1.837 2.08.905-1.66-2.743-.42zM24.433 23.525l-1.872-1.722-1.937 2.106 1.872 1.72-.874.95-4.458-4.103.874-.95 1.752 1.612 1.938-2.107-1.752-1.612.88-.956 4.46 4.104-.88.957zM27.162 21.28l-2.79-4.06-1.46 1.004-.642-.936 3.984-2.737.644.938-1.453.998 2.788 4.06-1.07.735zM30.116 19.277l-2.24-5.633 1.2-.478 1.447 3.64 1.16-4.677 1.234-.493 2.24 5.634-1.2.478-1.5-3.774-1.184 4.843-1.157.46zM35.735 17.132l1.023-2.478c-.67-.06-1.417-.532-1.568-1.594-.16-1.114.487-2.043 1.738-2.222l2.807-.4.857 6-1.277.18-.305-2.13-.927.132-.883 2.3-1.465.212zm3.115-3.77l-.232-1.618-1.34.193c-.512.073-.855.433-.783.938.072.503.503.754 1.016.68l1.34-.192zM43.67 16.47l1.024-5.974 3.144.54c1.137.195 1.595 1.02 1.458 1.817-.13.752-.68 1.174-1.265 1.194.62.208 1.024.913.896 1.666-.153.896-.877 1.51-2.015 1.314l-3.24-.556zm3.988-1.16c.064-.375-.15-.744-.65-.83l-1.64-.28-.238 1.387 1.64.28c.483.085.814-.126.888-.556zm.302-2.455c.064-.376-.156-.7-.586-.774l-1.595-.272-.224 1.3 1.595.273c.43.074.745-.15.81-.525zM50.2 14.59c.736-1.674 2.486-2.335 4.16-1.6 1.68.738 2.378 2.474 1.643 4.147s-2.485 2.334-4.166 1.596c-1.674-.735-2.37-2.47-1.636-4.144zm4.587 2.014c.457-1.04.135-2.115-.89-2.565-1.023-.45-2.024.042-2.48 1.083-.455 1.032-.145 2.11.88 2.56 1.023.45 2.037-.047 2.49-1.08zM55.396 19.353l1.06-.28c.067.6.52 1.265.99 1.623.637.484 1.2.512 1.474.15.292-.384.083-.815-.64-1.366l-.976-.742.688-.904.977.743c.57.434 1.104.588 1.373.234.292-.382 0-.9-.548-1.32-.47-.356-1.103-.562-1.69-.496l-.024-1.035c.728-.145 1.663.052 2.51.696 1.128.858 1.523 1.958.914 2.762-.462.608-1.286.61-1.885.302.445.42.79 1.287.24 2.01-.633.832-1.91.785-3.06-.09-.892-.677-1.38-1.583-1.404-2.287zM59.322 23.513l4.634-3.907 2.056 2.438c.745.883.562 1.81-.056 2.33-.583.492-1.277.46-1.736.098.34.558.194 1.358-.39 1.85-.695.585-1.643.59-2.387-.293l-2.12-2.517zm3.797 1.683c.29-.246.366-.665.038-1.054l-1.072-1.27-1.077.907 1.07 1.27c.317.375.706.428 1.04.146zm1.813-1.683c.292-.246.332-.636.05-.97L63.94 21.31l-1.007.85 1.042 1.236c.282.333.666.365.958.12zM62.906 27.946l5.37-2.808 1.314 2.513c.61 1.168.153 2.216-.79 2.71-.933.487-2.067.26-2.672-.9l-.716-1.37-1.908.998-.598-1.142zm5.286 1.246c.45-.236.548-.717.312-1.168l-.636-1.215-1.45.756.636 1.216c.237.45.695.64 1.138.41zM66.257 36.134l.882-.644-.726-2.497-1.093-.08-.41-1.415 6.478.563.45 1.555-5.172 3.933-.41-1.414zm4.118-2.936l-2.77-.182.527 1.816 2.243-1.634zM66.622 38.653l4.91-.422-.153-1.765 1.13-.098.416 4.818-1.132.098-.152-1.758-4.91.422-.11-1.294zM66.44 45.82l1.062-.26.283-2.583-.98-.492.16-1.464 5.773 2.992-.176 1.608-6.282 1.664.16-1.464zm4.926-1.144l-2.49-1.223-.206 1.88 2.696-.657z"/></g><g fill="#FFF"><path d="M21.25 60.2c1.308-1.51 3.344-1.553 4.817-.277 1.084.938 1.2 2.07 1.017 2.982l-1.282-.337c.14-.576-.03-1.276-.538-1.717-.892-.77-2.134-.647-2.938.28-.805.93-.75 2.176.142 2.948a1.74 1.74 0 0 0 1.776.287l.522 1.214c-.883.304-2.02.365-3.103-.573-1.474-1.276-1.722-3.296-.413-4.807zM25.388 67.66l2.95-5.793 2.71 1.38c1.258.64 1.51 1.84.993 2.858-.512 1.007-1.645 1.512-2.895.876l-1.476-.75-1.05 2.058-1.232-.628zm5.394-2.196c.248-.486.033-.967-.453-1.215l-1.312-.67-.796 1.563 1.31.668c.488.25 1.007.13 1.25-.346zM31.765 70.598l1.59-6.305 4.46 1.125-.297 1.182-3.12-.787-.335 1.333 3.053.77-.298 1.183-3.053-.772-.36 1.428 3.12.787-.3 1.182-4.46-1.127zM37.914 70.947c.664-.084 1.035-.345 1.25-2.06l.4-3.32 4.62.026-.03 5.284.584.003-.015 2.417-1.384-.008.006-1.2-4.055-.024-.006 1.2-1.384-.01.014-2.31zm1.823-.097l3.02.02.025-4.067-1.98-.01-.265 2.2c-.102.877-.39 1.48-.8 1.857zM45.52 68.696c-.514-1.93.595-3.638 2.48-4.14 1.383-.367 2.384.174 3.035.837l-1 .87c-.397-.437-1.07-.692-1.72-.52-1.14.304-1.737 1.4-1.42 2.587.315 1.186 1.377 1.842 2.517 1.538a1.74 1.74 0 0 0 1.236-1.306l1.297.25c-.244.902-.832 1.876-2.217 2.244-1.885.5-3.696-.43-4.21-2.36zM55.298 68.756l-2.503-4.653-1.674.9-.576-1.074 4.567-2.457.577 1.073-1.665.896 2.503 4.653-1.227.66zM59.708 66.14l-4.294-4.88L57.982 59c.93-.818 1.927-.644 2.5.008.54.615.52 1.36.143 1.86.59-.376 1.453-.238 1.993.377.644.73.67 1.75-.26 2.566l-2.65 2.33zm-.126-6.016c-.27-.307-.69-.34-1.04-.03l-1.304 1.145.934 1.06 1.303-1.146c.35-.31.378-.723.107-1.03zm1.846 1.907c-.27-.306-.722-.377-1.132-.017l-1.34 1.18 1 1.133 1.34-1.18c.393-.345.44-.764.132-1.115z"/></g><g fill="#44A8E0"><path d="M27.606 46.1v-7.87l-1.61 1.672-1.226-1.29 3.123-3.14h1.864V46.1h-2.15zM31.207 40.795c0-2.74 1.13-5.48 3.76-5.48 2.645 0 3.76 2.74 3.76 5.48 0 2.725-1.1 5.497-3.76 5.497-2.63 0-3.76-2.772-3.76-5.497zm5.353 0c0-2.055-.35-3.585-1.593-3.585-1.227 0-1.578 1.53-1.578 3.585 0 2.04.35 3.6 1.577 3.6 1.242 0 1.593-1.56 1.593-3.6zM39.76 40.795c0-2.74 1.132-5.48 3.76-5.48 2.646 0 3.76 2.74 3.76 5.48 0 2.725-1.098 5.497-3.76 5.497-2.628 0-3.76-2.772-3.76-5.497zm5.354 0c0-2.055-.35-3.585-1.593-3.585-1.226 0-1.576 1.53-1.576 3.585 0 2.04.35 3.6 1.577 3.6 1.244 0 1.594-1.56 1.594-3.6zM48.173 37.975c0-1.498.94-2.66 2.374-2.66 1.466 0 2.406 1.162 2.406 2.66 0 1.48-.94 2.63-2.406 2.63-1.435 0-2.374-1.15-2.374-2.63zm3.44 0c0-.908-.43-1.465-1.066-1.465-.62 0-1.05.557-1.05 1.465 0 .877.43 1.45 1.05 1.45.637 0 1.067-.573 1.067-1.45zM49.862 46.1l5.625-10.627h1.004L50.864 46.1H49.86zm3.522-2.437c0-1.498.94-2.66 2.39-2.66 1.434 0 2.374 1.162 2.374 2.66 0 1.482-.94 2.63-2.374 2.63-1.45 0-2.39-1.148-2.39-2.63zm3.442 0c0-.908-.43-1.465-1.052-1.465-.637 0-1.067.558-1.067 1.465 0 .876.43 1.45 1.067 1.45.622 0 1.052-.574 1.052-1.45z"/></g><g fill="#44A8E0"><path d="M55.667 31.692c-3.044-4.63-8.28-7.688-14.235-7.688s-11.19 3.058-14.236 7.688h28.47zM27.196 50.374c3.044 4.63 8.282 7.688 14.236 7.688 5.954 0 11.192-3.058 14.235-7.688h-28.47z"/></g><circle fill="#FFF" cx="16.665" cy="54.828" r="2.03"/><circle fill="#FFF" cx="65.807" cy="54.828" r="2.031"/><path opacity=".1" d="M79.354 46.487c.264-1.854 3.51-3.528 3.51-5.455s-3.247-3.602-3.51-5.455c-.27-1.9 2.37-4.417 1.843-6.22-.54-1.835-4.125-2.527-4.91-4.24-.793-1.735 1.028-4.898.004-6.488-1.03-1.6-4.665-1.252-5.906-2.684-1.243-1.434-.384-4.983-1.818-6.226-1.432-1.242-4.823.11-6.422-.92L20.72 73.266c1.59 1.023 1.762 4.67 3.496 5.465 1.715.785 4.584-1.47 6.42-.932 1.804.53 3 3.98 4.9 4.25 1.855.265 3.97-2.708 5.897-2.708 1.926 0 4.042 2.973 5.896 2.708 1.898-.27 3.096-3.72 4.9-4.25 1.834-.538 4.704 1.716 6.42.932 1.733-.793 1.904-4.44 3.494-5.465 1.6-1.03 4.99.323 6.422-.92 1.434-1.242.574-4.79 1.818-6.226 1.24-1.432 4.877-1.084 5.908-2.683 1.023-1.59-.797-4.753-.004-6.487.785-1.715 4.372-2.406 4.91-4.24.528-1.805-2.114-4.322-1.844-6.223z"/></svg>