<svg xmlns="http://www.w3.org/2000/svg" width="312.431" height="206.937" viewBox="0 0 312.431 206.937"><ellipse fill="#F2F2F2" cx="166.469" cy="190.958" rx="144.945" ry="15.978"/><path fill="#FFF4D7" d="M299.588 189.675a5.294 5.294 0 0 1-5.293 5.298H67.755a5.297 5.297 0 0 1-5.295-5.298V5.3c0-2.928 2.37-5.3 5.294-5.3h226.54a5.294 5.294 0 0 1 5.294 5.3v184.375z"/><path fill="#444" d="M299.588 21.19V5.3c0-2.928-2.366-5.3-5.293-5.3H67.755a5.298 5.298 0 0 0-5.295 5.3v15.89h237.128z"/><circle fill="#2CB740" cx="74.035" cy="10.875" r="4.193"/><path fill="#F16442" d="M91.003 10.875a4.194 4.194 0 0 1-8.385 0 4.19 4.19 0 0 1 4.188-4.19 4.195 4.195 0 0 1 4.197 4.19z"/><path fill="#FFF" d="M290.844 10.625a4.194 4.194 0 0 1-4.193 4.192H97.83a4.198 4.198 0 0 1-4.193-4.192A4.2 4.2 0 0 1 97.83 6.43h188.82a4.194 4.194 0 0 1 4.194 4.195z"/><path opacity=".2" fill="#444" d="M106.988 31.924a2.72 2.72 0 0 0 2.717 2.715h180.672a2.713 2.713 0 0 0 0-5.427H109.705a2.717 2.717 0 0 0-2.717 2.71z"/><path fill="#CCC" d="M101.066 31.924a3.955 3.955 0 0 1-3.954 3.953H72.928a3.95 3.95 0 0 1-3.947-3.953 3.945 3.945 0 0 1 3.948-3.946h24.185a3.95 3.95 0 0 1 3.953 3.946z"/><path opacity=".3" d="M62.46 47.34h228.384v62.78H62.46z"/><path fill="#FF4848" d="M48.764 41.766H287.3v64.355H48.765z"/><path opacity=".2" fill="#444" d="M69.666 159.088h69.602v28.724H69.666zM147.24 159.088h69.605v28.724H147.24zM223.493 159.088h69.6v28.724h-69.6z"/><path fill="#444" d="M217.528 118.97c0 1.305-1.118 2.364-2.488 2.364H71.474c-1.376 0-2.493-1.06-2.493-2.364 0-1.312 1.118-2.373 2.494-2.373H215.04c1.37 0 2.488 1.062 2.488 2.373zM217.528 129.55c0 1.308-1.118 2.368-2.488 2.368H71.474c-1.376 0-2.493-1.06-2.493-2.37s1.118-2.367 2.494-2.367H215.04c1.37.002 2.488 1.058 2.488 2.37zM217.528 139.988c0 1.307-1.118 2.364-2.488 2.364H71.474c-1.376 0-2.493-1.057-2.493-2.364 0-1.306 1.118-2.364 2.494-2.364H215.04c1.37 0 2.488 1.058 2.488 2.364zM217.528 150.416c0 1.31-1.118 2.37-2.488 2.37H71.474c-1.376 0-2.493-1.06-2.493-2.37 0-1.306 1.118-2.366 2.494-2.366H215.04c1.37 0 2.488 1.06 2.488 2.366z"/><path fill="#FFF" d="M183.495 58.365c0 1.31-1.116 2.365-2.49 2.365H128.81c-1.378 0-2.495-1.056-2.495-2.365 0-1.306 1.117-2.372 2.495-2.372h52.196c1.373 0 2.49 1.066 2.49 2.372zM222.783 68.946c0 1.312-1.117 2.37-2.49 2.37H128.81c-1.378 0-2.495-1.058-2.495-2.37 0-1.31 1.117-2.366 2.495-2.366h91.482c1.374 0 2.49 1.057 2.49 2.366zM222.783 79.386c0 1.31-1.117 2.364-2.49 2.364H128.81c-1.378 0-2.495-1.054-2.495-2.364 0-1.306 1.117-2.364 2.495-2.364h91.482c1.374 0 2.49 1.058 2.49 2.364zM222.783 89.812c0 1.313-1.117 2.37-2.49 2.37H128.81c-1.378 0-2.495-1.057-2.495-2.37 0-1.304 1.117-2.366 2.495-2.366h91.482c1.374 0 2.49 1.062 2.49 2.366z"/><path fill="#444" d="M293.093 118.97c0 1.305-1.14 2.364-2.534 2.364h-63.485c-1.397 0-2.532-1.06-2.532-2.364 0-1.312 1.135-2.373 2.532-2.373h63.484c1.394 0 2.533 1.062 2.533 2.373zM293.093 129.55c0 1.308-1.14 2.368-2.534 2.368h-63.485c-1.397 0-2.532-1.06-2.532-2.37s1.135-2.367 2.532-2.367h63.484c1.394.002 2.533 1.058 2.533 2.37zM293.093 139.988c0 1.307-1.14 2.364-2.534 2.364h-63.485c-1.397 0-2.532-1.057-2.532-2.364 0-1.306 1.135-2.364 2.532-2.364h63.484c1.394 0 2.533 1.058 2.533 2.364zM293.093 150.416c0 1.31-1.14 2.37-2.534 2.37h-63.485c-1.397 0-2.532-1.06-2.532-2.37 0-1.306 1.135-2.366 2.532-2.366h63.484c1.394 0 2.533 1.06 2.533 2.366z"/><path fill="#FFF" d="M283.96 106.08a38.223 38.223 0 0 0 3.364-2.032v-5.485a33.353 33.353 0 0 1-5.818 3.848l-6.897-15.22 12.715-5.768v-3.877l-14.178 6.42-4.604-10.155 17.91-8.116c.31.716.6 1.436.872 2.157v-7.914a60.926 60.926 0 0 0-5.756-8.478l5.755-2.608v-7.046h-9.545c2.7 1 5.27 2.354 7.64 4.026l-6.23 2.822c-2.24-2.51-4.576-4.792-6.865-6.848h-5.307c2.785 2.4 5.864 5.167 8.846 8.353L260.9 56.94l-6.778-14.952c.17-.066.338-.124.504-.184h-9.537c-14.896 10.08-20.815 29.71-13.14 46.648a37.472 37.472 0 0 0 16.487 17.627H266.2c-3.335-2.887-7.077-6.286-10.56-10.296l15.744-7.135 6.896 15.22a33.175 33.175 0 0 1-9.98 2.21h15.66zm-5.64-53.15c2.432 2.874 4.702 6.058 6.586 9.585l-17.823 8.07-4.722-10.423 15.96-7.233zm-14.46 19.12l-17.82 8.076c-1.413-3.737-2.305-7.544-2.868-11.27l15.965-7.232 4.724 10.425zm-21.558-22.193a32.998 32.998 0 0 1 8.603-6.408l6.77 14.954-14.964 6.78c-.558-5.644-.468-10.947-.408-15.327zm-3.542 4.354c-.043 3.88.09 8.11.625 12.48l-6.223 2.82a33.366 33.366 0 0 1 5.598-15.3zm-5.77 19.26l6.938-3.144c.646 3.71 1.62 7.48 3.05 11.182l-7.713 3.5a32.932 32.932 0 0 1-2.275-11.537zm3.73 14.758l7.642-3.46c1.63 3.48 3.664 6.66 5.893 9.57l-6.598 2.99a33.013 33.013 0 0 1-6.937-9.1zm24.218 17.5a33.39 33.39 0 0 1-14.227-5.9l5.855-2.65c2.71 3.17 5.607 6 8.373 8.55zm-7.618-12.78c-2.233-2.892-4.268-6.07-5.908-9.563l17.912-8.114 4.604 10.157-16.608 7.52z"/><path fill="#FCD22E" d="M303.27 7.063a17.58 17.58 0 0 1-9.164 9.752 17.566 17.566 0 0 1 9.163 9.75 17.542 17.542 0 0 1 9.16-9.75 17.55 17.55 0 0 1-9.16-9.752z"/><path fill="#FD7600" d="M303.27 11.9a8.88 8.88 0 0 1-4.62 4.915 8.83 8.83 0 0 1 4.62 4.91 8.79 8.79 0 0 1 4.61-4.91 8.842 8.842 0 0 1-4.61-4.914z"/><path fill="#FCD22E" d="M288.357 21.21a35.96 35.96 0 0 1-18.747 19.944 35.947 35.947 0 0 1 18.747 19.942 35.914 35.914 0 0 1 18.753-19.942 35.936 35.936 0 0 1-18.753-19.943z"/><path fill="#FD7600" d="M288.357 31.108a18.113 18.113 0 0 1-9.455 10.046 18.043 18.043 0 0 1 9.455 10.044 18.054 18.054 0 0 1 9.438-10.044 18.127 18.127 0 0 1-9.438-10.046z"/><path fill="#FCD22E" d="M271.404 1.405a25.363 25.363 0 0 1-13.226 14.07 25.362 25.362 0 0 1 13.226 14.07 25.35 25.35 0 0 1 13.23-14.07 25.355 25.355 0 0 1-13.23-14.07z"/><path fill="#FD7600" d="M271.404 8.39a12.782 12.782 0 0 1-6.67 7.085 12.717 12.717 0 0 1 6.67 7.083 12.72 12.72 0 0 1 6.662-7.083 12.797 12.797 0 0 1-6.662-7.084z"/><circle opacity=".2" fill="#444" cx="88.272" cy="76.483" r="22.692"/><circle fill="#EABC28" cx="88.272" cy="74.619" r="22.692"/><path opacity=".15" fill="#FFF" d="M104.276 58.537c-9.632 9.275-23.384 22.623-32.572 31.55 4.14 4.433 10.024 7.222 16.568 7.222 12.532 0 22.692-10.16 22.692-22.69a22.606 22.606 0 0 0-6.688-16.083z"/><circle opacity=".2" fill="#444" cx="88.272" cy="74.619" r="15.625"/><path opacity=".2" fill="#444" d="M92.476 18.828H62.46v9.008h1.643c2.535 0 1.683 2.177.03 2.177-.033 0-.06.003-.093.003h-1.58v9.25h5.223c2.16.34 1.298 1.856.413 1.862H62.46v.717l-13.696-.08v8.064h14.804c-2.292 9.866 5.938 18.51 12.552 23.66a12.102 12.102 0 0 0-.427 3.146c0 6.694 5.427 12.122 12.12 12.122s12.122-5.427 12.122-12.122-5.427-12.12-12.12-12.12c-.352 0-.696.022-1.04.052-.17-1.748-.36-3.89-.58-6.547-1.867-22.376 16.138-18.18 16.888-28.82.74-10.512-10.607-10.372-10.607-10.372z"/><path fill="#FCD22E" d="M92.476 16.963H4.506a4.507 4.507 0 0 0 0 9.013H7.77c3.434 0 37.97-.005 56.333-.005 2.535 0 1.683 2.178.03 2.178-.033 0-.06.004-.093.004H27.312a4.626 4.626 0 0 0 0 9.25h40.37c2.16.34 1.298 1.855.413 1.86h-28a4.35 4.35 0 0 0 0 8.703h23.473c-2.292 9.867 5.938 18.51 12.552 23.66a12.088 12.088 0 0 0-.427 3.147c0 6.695 5.427 12.122 12.12 12.122s12.122-5.427 12.122-12.122c0-6.694-5.427-12.122-12.12-12.122-.352 0-.696.023-1.04.053-.17-1.747-.36-3.89-.58-6.547-1.867-22.378 16.138-18.182 16.888-28.82.74-10.512-10.607-10.373-10.607-10.373z"/><ellipse fill="#FCD22E" cx="103.811" cy="40.914" rx=".087" ry=".058"/><path opacity=".1" fill="#444" d="M97.7 81.768c-6.366 5.678-20.686 3.678-18.562-11.507C63.986 55.69 67.715 51.93 68.98 46.135c-5.477 0-30.103-.233-30.103-.233s-2.75-.578-2.722-4.115a4.3 4.3 0 0 0-.414 1.83 4.35 4.35 0 0 0 4.354 4.35h23.473c-2.292 9.868 5.938 18.51 12.552 23.662a12.088 12.088 0 0 0-.428 3.146c0 6.695 5.427 12.122 12.12 12.122 4.088 0 7.694-2.028 9.89-5.127z"/></svg>