<svg xmlns="http://www.w3.org/2000/svg" xmlns:xlink="http://www.w3.org/1999/xlink" width="127" height="32.11" viewBox="0 0 127 32.11"><path d="M46.117 8.624c-4.577 0-8.2 3.53-8.2 7.994 0 4.604 3.508 8.112 8.11 8.112 2.506 0 4.968-1.14 6.47-2.986 1.117-1.365 1.688-3.1 1.688-5.01 0-4.692-3.397-8.11-8.068-8.11zm-.045 1.092c3.326 0 5.423 2.756 5.423 7.153 0 4.1-2.143 6.764-5.445 6.764-3.326 0-5.444-2.73-5.444-6.992 0-4.19 2.164-6.926 5.466-6.926zm13.684 3.67h-.773c-1.32.25-2.027.34-3.372.456v.683l.48.045c1.184.112 1.503.525 1.503 1.89v10.547c0 1.232-.41 1.8-1.41 1.89l-.572.046v.684h6.128v-.684l-.567-.045c-1.004-.09-1.414-.658-1.414-1.89v-3.53c1.047.795 2.164 1.162 3.6 1.162 2.892 0 5.08-2.507 5.08-5.788 0-1.41-.48-2.892-1.253-3.917-.82-1.072-2.23-1.754-3.71-1.754-1.507 0-2.69.547-3.716 1.71v-1.504zm0 2.64c.956-1.274 1.846-1.82 3.008-1.82 2.027 0 3.348 1.936 3.348 4.918 0 2.598-1.41 4.488-3.323 4.488-1.143 0-2.168-.434-3.034-1.253v-6.334zm19.936 5.4c-.82 1.504-1.87 2.187-3.28 2.187-1.617 0-2.8-.818-3.417-2.346-.344-.798-.456-1.8-.456-3.417h7.902c-.02-1.323-.32-2.143-1.068-3.008-.914-1.07-2.3-1.663-3.896-1.663-3.12 0-5.375 2.345-5.375 5.626 0 1.526.567 3.053 1.502 4.1 1.026 1.163 2.416 1.733 4.125 1.733 2.094 0 3.554-.87 4.713-2.85l-.75-.365zm-7.086-4.486c.16-.96.297-1.37.66-1.846.48-.662 1.21-1.004 2.12-1.004 1.207 0 2.072.57 2.506 1.688.092.25.203.84.183 1.092v.07h-5.47zm13.157-3.554h-.773a24.938 24.938 0 0 1-3.44.456v.683l.545.045c1.163.09 1.506.525 1.506 1.89v5.355c0 1.253-.41 1.775-1.414 1.89l-.567.046v.684h6.127v-.684l-.57-.045c-1.002-.115-1.412-.638-1.412-1.89v-5.628c1.412-1.278 2.756-1.916 4.03-1.916 1.254 0 1.937.8 1.937 2.28v5.264c0 1.253-.41 1.775-1.41 1.89l-.57.046v.683h6.126v-.683l-.567-.045c-1.004-.115-1.413-.638-1.413-1.89v-5.628c0-1.89-1.296-3.008-3.438-3.008-1.73 0-3.075.57-4.693 2.005v-1.8zm18.748 8.52l-4.008-10.344c-.112-.294-.203-.708-.203-.935 0-.364.248-.704.612-.82.298-.11.524-.157 1.345-.18v-.71h-6.81v.708c.11.024.202.045.227.045 1.32.16 1.71.525 2.462 2.325l5.122 12.437h1.37l4.988-12.097c.956-2.23 1.296-2.528 3.028-2.71v-.707h-6.082v.707c1.457.07 2.094.5 2.094 1.39 0 .252-.09.616-.227.956l-3.92 9.935zM127 19.76l-.707-.295c-1.365 2.868-3.575 3.985-7.882 3.985-1.024 0-1.637-.046-2.915-.183l10.66-13.51-.247-.843H114.63l-1.663 4.124.753.274c1.845-2.528 3.575-3.438 6.562-3.438 1.002 0 1.71.066 2.73.273l-10.728 13.573.435.707h12.642L127 19.762zm0 0"/><path d="M68.4 29.835l-.206-.095c-.333.473-.515.676-.798.89-.417.312-.896.486-1.34.486-.24 0-.453-.073-.54-.183-.057-.073-.088-.217-.088-.438v-3.01c0-.593.104-.768.476-.803l.23-.02v-.228h-2.09v.227l.183.022c.382.05.477.203.477.802v2.86c0 .596-.095.75-.477.8l-.182.023v.224h3.77l.586-1.555zm1.257-1.97h-.25a8.87 8.87 0 0 1-1.066.143v.22l.145.015c.378.035.48.168.48.603v1.712c0 .4-.13.567-.45.603l-.18.02v.216h1.95v-.217l-.176-.02c-.33-.034-.453-.202-.453-.602v-2.694zm-.336-1.234a.44.44 0 0 0-.44.44.44.44 0 0 0 .88.006.448.448 0 0 0-.44-.445zm2.547 1.234h-.245c-.45.088-.693.115-1.1.144v.22l.172.015c.375.028.483.168.483.603v1.712c0 .4-.133.567-.452.603l-.182.02v.216H72.5v-.217l-.182-.02c-.32-.034-.452-.202-.452-.602v-1.8c.452-.405.883-.608 1.29-.608.4 0 .618.255.618.728v1.68c0 .4-.133.568-.45.604l-.184.018v.217h1.957v-.217l-.182-.018c-.318-.035-.452-.203-.452-.603v-1.8c0-.603-.413-.96-1.1-.96-.553 0-.98.182-1.498.64v-.576zm6.742 3.53h1.326v-.218l-.183-.018c-.322-.035-.45-.203-.45-.603v-2.692h-.25c-.378.088-.525.102-1.1.144v.22l.176.015c.37.028.478.168.478.603v1.625c-.486.43-.917.64-1.274.64-.46 0-.662-.248-.662-.8v-2.445h-.245c-.382.088-.54.108-1.1.144v.22l.172.014c.374.028.482.168.482.603v1.523c0 .364.062.566.23.756.196.228.473.337.852.337.524 0 .924-.176 1.544-.68v.61zm3.872-2.03l.63-.677c.396-.39.613-.512 1.093-.606v-.216h-1.533v.217c.266.036.325.068.325.19a.313.313 0 0 1-.073.175l-.616.7-.578-.7c-.05-.073-.087-.137-.087-.182 0-.102.087-.154.3-.175l.07-.008v-.217H80.21v.217c.35.053.48.14.742.445l.85 1.067-.923 1.044c-.327.37-.516.486-.865.54v.216h1.628v-.217l-.057-.018c-.314-.042-.43-.115-.43-.26 0-.073.052-.175.132-.262l.726-.816.658.917c.042.06.07.144.07.195 0 .14-.088.19-.435.242v.217h2.017v-.216c-.396-.066-.525-.154-.848-.54l-.994-1.27zM91.15 26.5h-.242l-.15.304c-.43-.325-.875-.466-1.502-.466-.58 0-1.264.322-1.71.803a2.607 2.607 0 0 0-.685 1.796c0 1.456 1.1 2.548 2.57 2.548.942 0 1.685-.413 2.22-1.254l-.31-.17c-.21.31-.357.472-.596.646-.35.26-.823.427-1.2.427-.452 0-.978-.237-1.29-.588-.343-.372-.53-.964-.53-1.618 0-1.29.713-2.24 1.672-2.24.54 0 1.08.304 1.418.8.14.204.23.358.452.765h.234l-.35-1.755zm2.81 1.295c-.507 0-.96.175-1.253.473-.305.322-.508.857-.508 1.37 0 1.1.707 1.82 1.788 1.82 1.058 0 1.772-.73 1.772-1.808 0-.473-.17-.952-.438-1.288-.307-.364-.793-.567-1.36-.567zm.008.29c.654 0 1.047.606 1.047 1.605 0 .924-.378 1.478-1.02 1.478-.668 0-1.054-.564-1.054-1.544.002-.932.408-1.538 1.028-1.538zm3.534-.223h-.246a7.76 7.76 0 0 1-1.1.144v.22l.173.015c.373.028.48.168.48.603v1.712c0 .4-.132.567-.45.603l-.183.02v.216h1.958v-.217l-.183-.02c-.318-.034-.45-.202-.45-.602v-1.8c.45-.405.88-.608 1.287-.608.4 0 .62.255.62.728v1.68c0 .4-.135.568-.453.604l-.183.018v.217h1.958v-.217l-.183-.018c-.32-.035-.452-.203-.452-.603v-1.8c0-.603-.413-.96-1.1-.96-.553 0-.98.182-1.498.64v-.576zm5.803 0h-1.04v-1.327h-.276c.006.896-.316 1.296-1.026 1.327v.238h.61v2.44c0 .357.1.58.335.73.187.114.45.188.706.188.427 0 .763-.17 1.025-.512l-.194-.16c-.25.286-.417.38-.634.38-.37 0-.547-.3-.547-.962v-2.104h1.04v-.238zm2.99 1.464c-.872.095-.907.102-1.23.182-.81.203-1.22.56-1.22 1.047 0 .525.472.904 1.12.904.485 0 .843-.153 1.33-.56.14.392.388.56.815.56.308 0 .546-.087.75-.283l-.138-.19c-.123.11-.203.145-.33.145a.37.37 0 0 1-.34-.202c-.052-.103-.065-.196-.065-.512v-1.54c0-.44-.115-.666-.417-.83a2.1 2.1 0 0 0-.98-.25c-.314 0-.707.09-.997.21-.344.155-.59.46-.59.716 0 .175.16.318.348.318a.37.37 0 0 0 .372-.37l-.007-.204c0-.21.33-.378.735-.378.52 0 .844.255.844.654v.584zm0 1.243c-.406.386-.71.54-1.075.54a.628.628 0 0 1-.634-.627c0-.486.61-.81 1.71-.903v.99zm2.987-2.706h-.248c-.445.08-.683.115-1.068.144v.22l.144.015c.38.035.48.168.48.603v1.712c0 .4-.13.567-.448.603l-.183.02v.216h1.95v-.217l-.176-.02c-.33-.034-.452-.202-.452-.602v-2.694zm-.336-1.233a.44.44 0 0 0-.44.44.44.44 0 0 0 .878.006.447.447 0 0 0-.438-.445zm2.547 1.234h-.245a7.79 7.79 0 0 1-1.1.144v.22l.172.015c.374.028.482.168.482.603v1.712c0 .4-.133.567-.45.603l-.184.02v.216h1.958v-.217l-.183-.02c-.318-.034-.45-.202-.45-.602v-1.8c.45-.405.88-.608 1.287-.608.402 0 .62.255.62.728v1.68c0 .4-.134.568-.452.604l-.182.018v.217h1.957v-.217l-.182-.018c-.318-.035-.45-.203-.45-.603v-1.8c0-.603-.414-.96-1.1-.96-.554 0-.98.182-1.5.64v-.576zm6.647 2.57c-.263.48-.596.696-1.047.696-.52 0-.896-.263-1.093-.75-.108-.255-.147-.573-.147-1.092h2.528c-.006-.42-.1-.683-.342-.96-.29-.342-.735-.53-1.243-.53-.998 0-1.72.75-1.72 1.795 0 .49.183.978.48 1.313.328.37.773.554 1.316.554.673 0 1.14-.277 1.51-.91l-.24-.116zM115.878 29c.05-.306.094-.44.21-.59.153-.213.385-.32.676-.32.385 0 .66.18.802.538.027.08.066.27.06.35v.02h-1.748zm4.203-1.136h-.244a7.79 7.79 0 0 1-1.1.144v.22l.172.015c.374.028.483.168.483.603v1.712c0 .4-.133.567-.45.603l-.184.02v.216h1.958v-.217l-.183-.02c-.317-.034-.45-.202-.45-.602v-1.782c.263-.294.46-.41.67-.41.125 0 .174.022.307.11a.574.574 0 0 0 .37.132c.24 0 .414-.168.414-.402 0-.238-.216-.406-.527-.406-.168 0-.344.035-.52.115-.174.074-.21.102-.56.403-.02.02-.08.07-.153.13v-.584zm4.757.028h-.202l-.074.263a1.565 1.565 0 0 0-1.04-.357c-.74 0-1.333.466-1.333 1.064 0 .455.315.725 1.086.924l.93.23c.365.096.533.25.533.48 0 .38-.405.673-.938.673-.452 0-.896-.2-1.166-.526-.13-.154-.203-.298-.305-.574h-.25l.25 1.296h.238l.08-.31c.396.302.7.404 1.173.404.876 0 1.513-.505 1.513-1.18 0-.495-.29-.79-.924-.94l-1.012-.247a1.947 1.947 0 0 1-.34-.11.397.397 0 0 1-.228-.35c0-.31.31-.545.735-.545.555 0 1.034.35 1.275.924h.234l-.233-1.12zm0 0"/><path fill="#18381F" d="M32.015 31.578c1.355-.458 1.535-1.648 1.535-1.648-.198.315-.59.598-1.5.598-1.05 0-2.486-.387-4.272-1.146-.505.242-1.205.54-2.006.83 1.646.788 3.06 1.326 4.27 1.623.22.04.885.11 1.973-.257"/><defs><path id="a" d="M0 0h35.384v32.11H0z"/></defs><clipPath id="b"><use xlink:href="#a" overflow="visible"/></clipPath><path clip-path="url(#b)" fill="#D61D29" d="M19.85 2.057l.014.016-.006-.008-.008-.008"/><path clip-path="url(#b)" fill="#206932" d="M21.344 2.167c.582.54.893 1.195 1.056 1.673a9.96 9.96 0 0 0-.562-1.574C20.955.388 19.755-.006 18.902-.006c-2.972 0-6.07 4.804-7.65 7.667-2.33 4.218-4.205 9.24-4.942 13.21a.01.01 0 0 1-.006.004c-.11.704-.208 1.42-.288 2.102 0-.002.002-.002.003-.002-.188 2.23.128 3.843.944 4.81.555.66 1.34 1.008 2.268 1.008.728 0 1.556-.21 2.49-.63-1.797.755-3.097-1.06-3.097-1.06a1.187 1.187 0 0 1-.452-.337c-.382-.453-.93-1.692-.42-4.943v-.002c0-.005.082-.537.15-.95a14 14 0 0 1 .278-1.186l.002-.002H8.18c.852-3.534 2.485-7.687 4.457-11.256 2.79-5.05 5.064-6.85 6.264-6.85.07 0 .14.007.21.02a.568.568 0 0 1-.036-.005s1.22-.393 2.27.577"/><path fill="#D61D29" d="M19.182 1.616l-.05-.014c.016.003.033.01.05.014"/><path fill="#8A1726" d="M19.13 1.602c-.007 0-.015-.002-.02-.004.006 0 .012.003.02.004M19.182 1.616c.14.04.4.148.668.44-.207-.228-.43-.375-.668-.44"/><path fill="#18381F" d="M23.1 8.405c-.13-1.814-.365-3.34-.7-4.565-.163-.478-.474-1.134-1.056-1.673-1.05-.97-2.27-.576-2.27-.576l.034.007.022.004.05.015c.238.064.46.212.67.44 0 .002.004.005.007.008a.055.055 0 0 1 .006.008c.71.796 1.24 2.53 1.528 5.04.504.348 1.097.79 1.71 1.295"/><path fill="#DBDAD7" d="M19.303 24.687h-.013l.01.002.003-.003"/><defs><path id="c" d="M0 0h35.384v32.11H0z"/></defs><clipPath id="d"><use xlink:href="#c" overflow="visible"/></clipPath><path clip-path="url(#d)" fill="#DBDAD7" d="M13.344 19.012"/><path clip-path="url(#d)" fill="#206932" d="M29.145 24.62c.01.063.014.12.014.17-.007.844-1.04 1.797-2.843 2.664a3.62 3.62 0 0 1-.32.15l-.03.012c-.192.087-.39.172-.597.256-.206.094-.126.068-.378.152 0 0-.65.25-1.065.383-.472.15-1.01.31-1.01.31l-.046.013c-.255.07-.47.132-.673.188l-.046.013c-.262.072-.51.137-.808.207h-.01c-3.44.836-7.51 1.34-11.165 1.34-4.48 0-7.708-.788-8.428-2.03 0 0-.818-.852-.55-2.257.25-1.296.703-1.86.772-1.94C.328 25.9-.278 27.36.118 28.665c.852 2.807 5.935 3.396 10.05 3.396 4.953 0 10.666-.897 14.68-2.297.003 0 .004 0 .006.002.68-.26 1.356-.533 1.984-.8 2.583-1.2 3.894-2.596 3.903-4.162.008-1.216-.777-2.368-2.375-3.476 1.648 1.145.78 3.293.78 3.293"/><path fill="#D61D29" d="M16.186 22.76"/><path fill="#1F6531" d="M22.75 20.348c-.143-.054-.244-.083-.488-.175-.393.32-.892.684-1.254.94l-.02.018c-.17.778-.356 1.403-.544 1.9.002 0 .004-.004.004-.004s-.036.104-.104.27c-.044.107-.1.242-.172.395-.152.332-.44.834-.722.962-.343.192-2.01.722-3.175-1.702a5.59 5.59 0 0 1-.087-.19l-.04-.088c.124.356.243.688.335.908.258.623.568 1.163.834 1.487.05.058.1.116.154.173a4.818 4.818 0 0 0 .52.477c.597.425 1.003.524 1.577.474.672-.06 1.145-.535 1.145-.535 1.065-1.032 1.683-3.204 2.04-5.307"/><defs><path id="e" d="M0 0h35.384v32.11H0z"/></defs><clipPath id="f"><use xlink:href="#e" overflow="visible"/></clipPath><path clip-path="url(#f)" fill="#206932" d="M17.247 17.048c-.302-.05-.638-.104-.95-.152 0 .002.003.005.003.005a16.743 16.743 0 0 0-.886-.123 6.925 6.925 0 0 0-1.448-.003 3.71 3.71 0 0 0-.865.218l-.158.074c-.057.024-.11.052-.16.08-.05.032-.617.438-.875 1.097-.27.688-.092 1.176-.092 1.176.37 1.46 1.977 3.096 3.576 4.42l-.064.052c-.104.085-.205.168-.307.248.272-.218.438-.344.825-.712a25.113 25.113 0 0 1-.234-1.492 13.616 13.616 0 0 1-1.425-1.48v.003l-.005-.007.02.03-.074-.1-.05-.063-.004-.004a10.29 10.29 0 0 1-.347-.476 2.897 2.897 0 0 1-.38-.828 1.57 1.57 0 0 1-.06-.364c-.006-.404.648-1.83 3.8-1.595.106.01.214.018.326.03l-.163-.035"/><path clip-path="url(#f)" fill="#206932" d="M23.23 9.395c-.618-.5-1.238-.98-1.807-1.405-1.54-1.057-2.88-1.593-4.003-1.593-.897 0-1.667.347-2.225 1.002-1.19 1.4-1.427 4.178-.722 8.49.002.013.004.02.004.03.352.06.76.142 1.116.245.593.172 1.472.523 1.952.72.005 0 .01.003.017.005a13.966 13.966 0 0 1 1.987-.49l.038-.008a8.7 8.7 0 0 1 .737-.1c.06-.005.122-.01.186-.012l.056-.005c.426-.034.817-.047 1.115.118.367.202 1.334 1.56-.69 4.37-.02.024-.04.055-.065.085l.045-.05c.008-.01.018-.02.025-.03.4-.457.853-.985 1.09-1.292.41-.54.725-1.082.87-1.476.1-.312.17-.655.19-1.038v-.006-.004l.004-.047.003-.064c-.005-.1-.062-.823-.518-1.296-.512-.532-.974-.666-.974-.666l-.002-.006a4.105 4.105 0 0 0-1.136-.143c-1.145 0-2.677.345-4.472 1.003l-.016-.098c-.81-4.947-.118-6.64.366-7.21.258-.305.58-.445 1.018-.445.9 0 2.183.606 3.668 1.72.003.004.008.005.01.008.16.118.332.25.51.39 0 0 .616.5.96.83.316.302.672.6.674.602.123.118.246.24.368.362.02.02.032.034.05.05 5.733 5.62 11.072 14.802 10.018 17.72a1.45 1.45 0 0 1-.128.27s-.18 1.19-1.535 1.647c-1.088.366-1.754.297-1.975.256.747.184 1.416.275 2.01.275 2.005 0 2.8-1.038 3.116-1.91 1.612-4.457-6.07-15.75-11.935-20.805"/><path fill="#18381F" d="M22.75 20.348l.284.106c5.083 1.922 5.997 3.457 6.11 4.165 0 0 .87-2.148-.78-3.296-1.158-.804-2.744-1.585-4.77-2.35a2.46 2.46 0 0 0-.09-.034c-.267.307-.646.717-1.012 1.037-.07.062-.15.127-.23.194v.002c.244.093.345.122.49.176M23.926 28.407c.415-.133 1.065-.383 1.065-.383-.32-.15-.718-.34-1.046-.515a59.95 59.95 0 0 1-3.235-1.855s-.474.476-1.146.536c-.574.052-.98-.048-1.576-.473.09.073.185.145.284.212.155.104.298.212.46.315a43.86 43.86 0 0 0 2.914 1.804l.355.2.01-.003c.28.15.606.316.905.467.002 0 .54-.156 1.01-.307M15.02 24.14c-.002 0-.005.003-.008.005-3.15 2.523-4.88 3.063-5.78 3.063-.234 0-.434-.035-.606-.107 0 0 1.3 1.816 3.096 1.06 1.314-.59 2.84-1.597 4.604-3.04l.02-.016c-.145-.38-.324-.895-.435-1.36l-.037-.173-.02-.104-.01-.037c-.385.365-.55.49-.824.71"/><path fill="#8A1726" d="M15.012 24.145l.007-.006-.01.006h.002"/><path fill="#18381F" d="M21.607 10.096c.02.37.042.79.052 1.113.02.737.042 2.445.006 3.662h-.008l.003.005s.463.134.975.666c.455.473.512 1.196.518 1.297.084-1.22.12-2.482.114-3.828.03-.212 0-.932-.025-1.483 0-.002-.358-.3-.675-.604-.343-.33-.96-.83-.96-.83M11.815 19.418s-.177-.488.092-1.176c.257-.658.825-1.064.874-1.098-.008.005-.02.008-.03.014v.002c-1.462.713-2.99 1.56-4.567 2.52v.003s-.192.678-.278 1.186c-.07.412-.15.944-.152.95a61.948 61.948 0 0 1 4.062-2.402M1.738 28.445c-.045-.08-.08-.16-.106-.243-.157-.516-.06-1.938 3.575-4.644a25.22 25.22 0 0 1 .305-2.156c-1.486 1.008-2.668 1.955-3.55 2.846-.068.08-.523.645-.77 1.94-.27 1.405.546 2.257.546 2.257"/><path fill="#8A1726" d="M19.29 24.688h-.003.003"/><path fill="#18381F" d="M19.3 26.48h.003-.013.01M17.648 21.835c-.42-1.042-.822-2.526-.968-3.085 1.02.168 2.57.497 3.162.623-.64.763-1.65 1.87-2.194 2.462zm3.276-.99l.065-.085c2.024-2.81 1.057-4.167.69-4.37-.298-.164-.69-.15-1.115-.117l-.055.005a3.492 3.492 0 0 0-.186.012 9.085 9.085 0 0 0-.737.1c.176-.008.87-.015 1.093.35.164.266.137.735-.005 1.213-.724-.224-2.655-.804-3.238-.866l-.352-.034c-3.152-.236-3.807 1.19-3.8 1.595 0 .108.022.233.058.364a2.505 2.505 0 0 0 .142.388c.055.125.117.246.186.357.02.028.036.057.054.083.134.197.26.363.347.476a3.273 3.273 0 0 0 .054.067l.075.1-.02-.03.004.006v-.003a.052.052 0 0 0-.01-.01c-.095-.155-.432-.75-.225-1.124.15-.275.583-.48 1.074-.59.158.764.84 3.215 1.05 3.76a7.874 7.874 0 0 0 .118.286c.026.06.053.115.08.172 1.166 2.424 2.832 1.895 3.175 1.703.282-.13.57-.63.722-.962.07-.153.127-.288.17-.396-.148.236-.42.577-.74.587-.32.01-.73-.266-1.078-.643a.335.335 0 0 0 .086-.06c.532-.498 2.034-1.925 2.382-2.408l.003-.004c-.008.01-.018.02-.025.03l-.044.048M19.288 26.48h.002-.003M14.48 15.92c.35.06.756.14 1.113.244.177.05.38.12.59.193a22.546 22.546 0 0 1-.345-2.09c-.115-1.128-.265-2.746-.06-4.204s.91-1.892.91-1.892-2.37.196-2.55 2.226c-.18 2.03.09 3.81.152 4.256.05.368.132.9.19 1.267"/></svg>