<svg xmlns="http://www.w3.org/2000/svg" width="20" height="18.153" viewBox="0 0 20 18.153"><g fill="#CCC"><path d="M18.096 17.852c.766-.258.868-.932.868-.932-.112.18-.333.338-.848.338-.594 0-1.405-.22-2.415-.647-.284.138-.68.307-1.133.47.93.446 1.73.75 2.412.918.124.023.5.062 1.116-.146M11.22 1.166l.008.008-.003-.004-.005-.004"/><path d="M12.064 1.23c.33.303.505.674.597.944a5.512 5.512 0 0 0-.317-.89C11.843.224 11.166 0 10.683 0c-1.68 0-3.43 2.715-4.323 4.333-1.316 2.384-2.377 5.223-2.793 7.465l-.003.003c-.064.4-.12.804-.165 1.19v-.002c-.104 1.26.075 2.172.536 2.72.313.372.757.568 1.282.568.412 0 .88-.12 1.408-.356-1.016.427-1.75-.6-1.75-.6a.676.676 0 0 1-.256-.19c-.215-.255-.525-.955-.238-2.793 0-.004.047-.305.086-.537.05-.287.157-.67.157-.67v-.002c.48-1.997 1.404-4.345 2.518-6.362C8.72 1.912 10.005.894 10.683.894c.04 0 .08.004.118.012l-.02-.003s.69-.223 1.284.326"/><path d="M10.842.917L10.814.91c.01 0 .02.004.028.007M10.814.91L10.8.906c.005 0 .01 0 .014.002M10.842.917"/><path d="M13.057 4.754c-.074-1.025-.207-1.888-.396-2.58a2.296 2.296 0 0 0-.596-.945C11.47.68 10.78.902 10.78.902l.02.003c.005 0 .01 0 .014.002l.028.008a.81.81 0 0 1 .378.25l.004.003.003.003c.402.45.7 1.43.864 2.85.285.196.62.446.967.73M10.91 13.957h-.007.008M16.474 13.92a.715.715 0 0 1 .008.096c-.004.477-.588 1.015-1.606 1.505a2.025 2.025 0 0 1-.2.093 7.58 7.58 0 0 1-.336.145c-.116.054-.07.04-.214.087 0 0-.368.14-.602.216-.267.087-.57.176-.57.176l-.026.007-.38.106-.027.006a12.5 12.5 0 0 1-.456.117h-.006a27.952 27.952 0 0 1-6.31.757c-2.532 0-4.357-.445-4.764-1.147 0 0-.462-.48-.31-1.275.14-.732.397-1.052.436-1.097-.923.933-1.266 1.76-1.042 2.496.48 1.586 3.354 1.92 5.68 1.92 2.8 0 6.03-.51 8.298-1.3 0 0 .002 0 .003.002.383-.146.765-.302 1.12-.453 1.46-.678 2.2-1.467 2.207-2.352.004-.688-.44-1.34-1.344-1.965.93.647.44 1.86.44 1.86"/><path d="M9.15 12.87l.003.008-.004-.01"/><path d="M12.86 11.505c-.082-.03-.14-.047-.277-.1-.222.18-.505.387-.71.532l-.01.01c-.097.44-.202.792-.308 1.074l.002-.002s-.02.06-.06.152a3.926 3.926 0 0 1-.097.224c-.086.188-.25.47-.408.543-.194.108-1.136.408-1.795-.962a3.096 3.096 0 0 1-.045-.098c0-.003-.002-.006-.004-.01l-.022-.05c.07.202.138.39.19.514.145.354.32.66.47.842l.088.098.01.01c.085.09.18.177.283.26.337.24.566.297.89.268.38-.034.648-.303.648-.303.604-.584.953-1.812 1.154-3M9.75 9.64c-.17-.028-.362-.06-.54-.086.002 0 .003.003.003.003a10.47 10.47 0 0 0-.5-.07 3.984 3.984 0 0 0-.82-.002c-.164.022-.33.06-.488.122l-.09.042c-.032.012-.062.028-.09.043-.03.02-.35.25-.495.62-.152.39-.052.666-.052.666.21.824 1.117 1.75 2.02 2.497l-.036.03-.173.14c.153-.123.248-.194.466-.402 0 .007.003.014.004.02a14.07 14.07 0 0 1-.137-.863 7.73 7.73 0 0 1-.805-.835s-.002 0-.003-.003c.007.01.01.018.01.018l-.04-.058a2.188 2.188 0 0 1-.03-.036v-.002a5.17 5.17 0 0 1-.227-.316 1.716 1.716 0 0 1-.186-.42.876.876 0 0 1-.033-.207c-.004-.228.366-1.034 2.147-.9.06.004.12.01.183.016-.03-.008-.06-.014-.09-.02"/><path d="M13.13 5.313c-.35-.283-.7-.553-1.02-.794-.87-.6-1.63-.9-2.264-.9a1.6 1.6 0 0 0-1.257.565c-.674.792-.808 2.362-.41 4.8.002.007.003.01.003.016.2.035.43.082.63.14.336.097.833.295 1.104.407l.01.003a7.89 7.89 0 0 1 1.123-.277s.01 0 .022-.004c.056-.012.222-.04.417-.058l.104-.007.03-.003c.242-.02.463-.027.63.066.208.114.755.88-.39 2.47l-.037.048c.008-.01.017-.02.026-.028l.014-.016c.227-.26.482-.56.615-.73.232-.306.41-.613.493-.835.056-.176.095-.37.107-.587v-.004-.002l.002-.026.002-.037c-.003-.056-.035-.464-.292-.73-.29-.302-.55-.377-.55-.377l-.003-.004c-.185-.054-.4-.08-.64-.08-.648 0-1.515.194-2.53.567 0-.02-.003-.038-.006-.057-.458-2.796-.067-3.754.207-4.075.147-.172.33-.252.577-.252.508 0 1.234.343 2.073.973a10.266 10.266 0 0 1 .294.224s.348.284.543.47c.18.17.38.34.38.34l.21.205.027.03c3.24 3.175 6.258 8.365 5.663 10.015a.83.83 0 0 1-.072.15s-.103.675-.868.933c-.615.208-.99.17-1.116.146.423.103.802.155 1.138.155 1.133 0 1.583-.588 1.76-1.08.91-2.52-3.434-8.904-6.748-11.762"/><path d="M12.86 11.505l.16.06c2.872 1.087 3.39 1.954 3.452 2.354 0 0 .49-1.215-.44-1.863-.655-.454-1.55-.896-2.696-1.33-.02-.006-.036-.013-.05-.018-.15.172-.366.404-.572.585l-.13.11c.137.053.194.07.275.1M13.524 16.06c.234-.075.602-.216.602-.216a14.648 14.648 0 0 1-.592-.29 34.953 34.953 0 0 1-1.83-1.05s-.266.27-.646.304c-.324.03-.554-.027-.89-.268.05.04.103.082.16.12.088.06.17.12.26.18a25.158 25.158 0 0 0 1.647 1.02l.2.112h.005c.16.083.343.178.512.263.002 0 .305-.09.572-.175M8.49 13.647c-.002 0-.003.002-.005.004-1.78 1.427-2.758 1.73-3.267 1.73a.878.878 0 0 1-.342-.06s.735 1.025 1.75.6c.743-.334 1.604-.904 2.603-1.72l.01-.01a6.58 6.58 0 0 1-.245-.768l-.022-.1a3.18 3.18 0 0 1-.012-.06l-.003-.02c-.22.21-.313.282-.468.405"/><path d="M8.485 13.65l.004-.003-.005.004M12.213 5.71c.012.21.024.446.03.628.01.417.024 1.382.003 2.07h-.004l.002.004s.26.075.55.376c.258.267.29.676.293.732.047-.688.068-1.402.064-2.164.018-.12 0-.526-.014-.837 0 0-.202-.17-.38-.342-.194-.185-.543-.47-.543-.47M6.68 10.98s-.1-.277.05-.666c.147-.372.467-.6.495-.62l-.018.008c-.827.404-1.69.882-2.582 1.426 0 0-.108.385-.157.672-.04.232-.085.533-.086.536.787-.504 1.556-.96 2.297-1.357M.983 16.08a.675.675 0 0 1-.06-.137c-.09-.29-.035-1.095 2.02-2.624.033-.344.088-.766.172-1.22-.84.57-1.508 1.104-2.007 1.608-.04.045-.295.364-.436 1.097-.15.795.31 1.276.31 1.276M10.908 14.97h.003-.007.005M9.976 12.346c-.237-.59-.465-1.43-.547-1.744.575.095 1.453.28 1.787.353-.364.43-.934 1.056-1.24 1.39zm1.85-.56c.015-.018.027-.034.038-.05 1.145-1.587.598-2.354.39-2.468-.167-.093-.388-.086-.63-.066l-.03.003a4.724 4.724 0 0 0-.522.064c.098-.005.49-.01.617.198.092.15.077.416-.003.685-.41-.126-1.5-.454-1.83-.49a5.157 5.157 0 0 0-.2-.02c-1.78-.133-2.15.674-2.147.9a.87.87 0 0 0 .033.208 1.242 1.242 0 0 0 .08.218 1.675 1.675 0 0 0 .136.25c.075.11.146.204.195.268v.002l.03.036.042.057-.01-.017v.004h.002a.043.043 0 0 0-.007-.008c-.054-.088-.245-.425-.127-.636.086-.155.33-.272.607-.333.09.433.474 1.817.594 2.126.02.053.04.103.062.152 0 .003 0 .006.003.01l.045.097c.66 1.37 1.6 1.07 1.795.962.16-.072.322-.355.408-.543.042-.086.074-.162.1-.224-.085.133-.24.326-.42.33-.18.007-.412-.148-.61-.362a.206.206 0 0 0 .05-.033c.3-.282 1.15-1.09 1.346-1.36v-.003c-.003.005-.01.01-.013.016l-.026.028M8.184 9c.198.035.428.082.63.14.1.03.215.067.333.11a12.69 12.69 0 0 1-.194-1.183c-.065-.638-.15-1.552-.034-2.375.115-.824.513-1.07.513-1.07s-1.34.11-1.44 1.258c-.104 1.146.05 2.153.085 2.405.028.208.074.51.106.716"/></g></svg>