<svg baseProfile="basic" xmlns="http://www.w3.org/2000/svg" width="56" height="60" viewBox="0 0 56 60"><path fill="#069DFA" d="M55.5 21.8c0-5.9-1.1-10.8-2.9-14.8-1.1.1-2.2.1-3.3.1-9.1 0-17.1-2.8-21.5-7.1-4.5 4.3-12.5 7.1-21.6 7.1-1.1 0-2.2 0-3.3-.1C1.1 11 0 15.9 0 21.8 0 42.1 16.9 60 27.8 60c11.6 0 27.7-17.9 27.7-38.2z"/><path opacity=".1" fill="#010000" d="M52.5 7c-1.1.1-2.2.1-3.3.1-9 0-17-2.8-21.5-7V60c11.8 0 27.7-18 27.7-38.2.1-5.9-1-10.8-2.9-14.8z"/><path opacity=".2" d="M40.2 19.9l3.2-3.2-2.9-2.9-3.2 3.2c-5.6-4.3-13.5-4.3-19.1 0L15 13.9l-2.9 2.9 3.2 3.2c-4.3 5.6-4.3 13.4 0 19l-3.2 3.2L15 45l3.2-3.2c5.6 4.3 13.4 4.3 19 0l3.2 3.2 2.9-2.9-3.2-3.2c4.4-5.6 4.4-13.4.1-19z"/><ellipse transform="rotate(-45 27.74 27.343)" fill="#FC2C38" cx="27.7" cy="27.3" rx="15.6" ry="15.6"/><path fill="#FC2C38" d="M15.046 11.75L43.33 40.034l-2.9 2.9-28.283-28.285z"/><path fill="#FC2C38" d="M12.125 40.068L40.41 11.784l2.898 2.9-28.284 28.283z"/><path fill="#FFF" d="M23.036 19.74L35.34 32.044l-2.9 2.9-12.303-12.305z"/><path fill="#FFF" d="M20.115 32.078L32.42 19.774l2.898 2.9-12.303 12.303z"/></svg>