<svg xmlns="http://www.w3.org/2000/svg" width="289.89" height="249.165" viewBox="0 0 289.89 249.165"><ellipse fill="#F2F2F2" cx="144.945" cy="232.617" rx="144.945" ry="15.977"/><path fill="#3A383A" d="M83.203 40.93h147.56v163.143H83.204z"/><path fill="#5E5E5E" d="M79.332 38.298a7.02 7.02 0 0 0 7.02 7.02h144.412V19.336v-7.02H86.354a7.02 7.02 0 0 0-7.022 7.02v18.963z"/><path fill="#FFF" d="M188.265 24.655c0 .848.68 1.528 1.525 1.528a1.523 1.523 0 0 0 0-3.047c-.845 0-1.525.683-1.525 1.52zM193.81 24.655c0 .848.685 1.528 1.527 1.528s1.52-.68 1.52-1.528c0-.836-.677-1.52-1.52-1.52s-1.527.684-1.527 1.52zM199.357 24.655a1.523 1.523 0 1 0 1.52-1.52 1.52 1.52 0 0 0-1.52 1.52zM204.896 24.655a1.525 1.525 0 0 0 3.048 0 1.525 1.525 0 1 0-3.048 0zM210.444 24.655a1.525 1.525 0 0 0 3.05 0 1.526 1.526 0 1 0-3.05 0zM215.984 24.655c0 .848.682 1.528 1.527 1.528a1.523 1.523 0 0 0 0-3.047c-.844 0-1.526.683-1.526 1.52zM221.53 24.655a1.526 1.526 0 0 0 3.05 0 1.525 1.525 0 1 0-3.05 0zM227.078 24.655a1.523 1.523 0 1 0 1.52-1.52 1.52 1.52 0 0 0-1.52 1.52zM191.314 28.817c0 .84.684 1.527 1.523 1.527.844 0 1.525-.687 1.525-1.527a1.524 1.524 0 0 0-3.048 0zM196.855 28.817c0 .84.687 1.527 1.527 1.527a1.526 1.526 0 1 0-1.527-1.527zM202.403 28.817c0 .84.68 1.527 1.524 1.527s1.52-.687 1.52-1.527a1.523 1.523 0 0 0-3.045 0zM207.945 28.817a1.522 1.522 0 0 0 3.046 0 1.52 1.52 0 0 0-1.52-1.524c-.84 0-1.525.682-1.525 1.524zM213.494 28.817c0 .84.68 1.527 1.52 1.527a1.526 1.526 0 0 0 0-3.05c-.84 0-1.52.68-1.52 1.523zM219.036 28.817c0 .84.682 1.527 1.527 1.527a1.526 1.526 0 0 0 0-3.05c-.845 0-1.527.68-1.527 1.523zM224.582 28.817c0 .84.678 1.527 1.523 1.527a1.526 1.526 0 0 0 0-3.05 1.52 1.52 0 0 0-1.523 1.523zM191.314 37.13a1.524 1.524 0 0 0 3.048 0 1.525 1.525 0 0 0-3.048 0zM196.855 37.13a1.527 1.527 0 1 0 3.054.006 1.527 1.527 0 0 0-3.054-.006zM202.403 37.13c0 .848.68 1.53 1.524 1.53s1.52-.682 1.52-1.53a1.52 1.52 0 0 0-3.044 0zM207.945 37.13c0 .848.685 1.53 1.525 1.53a1.52 1.52 0 0 0 1.52-1.53 1.52 1.52 0 0 0-1.52-1.523c-.84 0-1.525.684-1.525 1.523zM213.494 37.13a1.524 1.524 0 0 0 3.048 0 1.523 1.523 0 0 0-3.048 0zM219.036 37.13a1.523 1.523 0 0 0 3.048 0 1.523 1.523 0 0 0-3.048 0zM224.582 37.13c0 .848.678 1.53 1.523 1.53a1.526 1.526 0 0 0 0-3.053c-.845 0-1.523.684-1.523 1.523z"/><circle fill="#FFF" cx="189.79" cy="32.975" r="1.525"/><path fill="#FFF" d="M193.81 32.975c0 .84.685 1.526 1.527 1.526s1.52-.684 1.52-1.525a1.522 1.522 0 0 0-3.047 0z"/><circle fill="#FFF" cx="200.88" cy="32.975" r="1.523"/><path fill="#FFF" d="M204.896 32.975c0 .84.685 1.526 1.524 1.526.847 0 1.524-.684 1.524-1.525a1.524 1.524 0 0 0-3.048 0zM210.444 32.975c0 .84.676 1.526 1.522 1.526.843 0 1.527-.684 1.527-1.525s-.685-1.527-1.527-1.527c-.846 0-1.522.685-1.522 1.527zM215.984 32.975a1.527 1.527 0 1 0 3.053 0 1.527 1.527 0 0 0-3.053 0z"/><circle fill="#FFF" cx="223.056" cy="32.975" r="1.526"/><circle fill="#FFF" cx="228.601" cy="32.975" r="1.523"/><path fill="#FFF" d="M124.98 27.582h54.43v2.628h-54.43zM124.98 33.695h54.43v2.63h-54.43z"/><path fill="#EB6159" d="M91.447 28.817c0 5.82 4.716 10.536 10.532 10.536 5.82 0 10.535-4.716 10.535-10.536 0-5.817-4.715-10.532-10.536-10.532-5.817 0-10.533 4.715-10.533 10.532z"/><path fill="#3A383A" d="M94.082 28.817a7.9 7.9 0 0 0 7.897 7.9c4.367 0 7.902-3.537 7.902-7.9a7.9 7.9 0 0 0-15.8 0z"/><path fill="#5E5E5E" d="M79.332 74.222a7.023 7.023 0 0 0 7.02 7.024h144.412V55.262v-7.024H86.354a7.023 7.023 0 0 0-7.022 7.023v18.962z"/><path fill="#FFF" d="M191.314 56.426a1.524 1.524 0 1 0 1.523-1.526c-.84 0-1.523.68-1.523 1.526zM196.855 56.426c0 .84.687 1.522 1.527 1.522a1.524 1.524 0 0 0 0-3.048c-.84 0-1.527.68-1.527 1.526zM202.403 56.426a1.522 1.522 0 0 0 3.045 0c0-.845-.678-1.526-1.52-1.526s-1.525.68-1.525 1.526zM207.945 56.426c0 .84.685 1.522 1.525 1.522.846 0 1.52-.68 1.52-1.522a1.52 1.52 0 0 0-1.52-1.526c-.84 0-1.525.68-1.525 1.526zM213.494 56.426a1.524 1.524 0 1 0 1.52-1.526c-.84 0-1.52.68-1.52 1.526zM219.036 56.426c0 .84.682 1.522 1.527 1.522.84 0 1.52-.68 1.52-1.522a1.523 1.523 0 1 0-3.048 0zM224.582 56.426a1.524 1.524 0 1 0 1.523-1.526 1.52 1.52 0 0 0-1.523 1.526z"/><circle fill="#FFF" cx="189.79" cy="60.583" r="1.525"/><path fill="#FFF" d="M193.81 60.583c0 .84.685 1.522 1.527 1.522s1.52-.68 1.52-1.522c0-.843-.677-1.525-1.52-1.525s-1.527.682-1.527 1.525z"/><circle fill="#FFF" cx="200.88" cy="60.583" r="1.523"/><path fill="#FFF" d="M204.896 60.583a1.524 1.524 0 1 0 1.524-1.525c-.84 0-1.524.682-1.524 1.525zM210.444 60.583a1.524 1.524 0 1 0 1.522-1.525 1.52 1.52 0 0 0-1.522 1.525zM215.984 60.583c0 .84.682 1.522 1.527 1.522a1.523 1.523 0 0 0 0-3.047c-.844 0-1.526.682-1.526 1.525z"/><circle fill="#FFF" cx="223.056" cy="60.583" r="1.526"/><circle fill="#FFF" cx="228.601" cy="60.583" r="1.523"/><path fill="#FFF" d="M191.314 64.743a1.525 1.525 0 1 0 3.05-.004 1.525 1.525 0 0 0-3.05.003zM196.855 64.743a1.528 1.528 0 0 0 3.054 0 1.527 1.527 0 0 0-3.054 0zM202.403 64.743a1.523 1.523 0 1 0 3.047 0 1.523 1.523 0 0 0-3.047 0zM207.945 64.743c0 .84.685 1.523 1.525 1.523a1.52 1.52 0 0 0 1.52-1.523 1.52 1.52 0 0 0-1.52-1.525c-.84 0-1.525.68-1.525 1.525zM213.494 64.743c0 .84.68 1.523 1.52 1.523.844 0 1.528-.683 1.528-1.523 0-.844-.685-1.525-1.527-1.525-.84 0-1.52.68-1.52 1.525zM219.036 64.743a1.525 1.525 0 1 0 3.05-.003 1.525 1.525 0 0 0-3.05.003zM224.582 64.743c0 .84.678 1.523 1.523 1.523.84 0 1.525-.683 1.525-1.523 0-.844-.685-1.525-1.525-1.525a1.52 1.52 0 0 0-1.523 1.525zM191.314 73.055a1.524 1.524 0 1 0 3.048.006 1.524 1.524 0 0 0-3.048-.005zM196.855 73.055a1.527 1.527 0 0 0 3.054 0 1.526 1.526 0 0 0-3.055 0zM202.403 73.055a1.522 1.522 0 0 0 3.045 0c0-.84-.678-1.522-1.52-1.522s-1.525.683-1.525 1.522zM207.945 73.055c0 .847.685 1.527 1.525 1.527.846 0 1.52-.68 1.52-1.527a1.52 1.52 0 0 0-1.52-1.522c-.84 0-1.525.683-1.525 1.522zM213.494 73.055c0 .847.68 1.527 1.52 1.527a1.525 1.525 0 1 0-1.52-1.527zM219.036 73.055a1.524 1.524 0 0 0 3.048 0 1.524 1.524 0 0 0-3.048 0zM224.582 73.055a1.524 1.524 0 1 0 3.047.005 1.524 1.524 0 0 0-3.047-.005zM188.265 68.896zM193.81 68.896c0 .845.685 1.53 1.527 1.53s1.52-.685 1.52-1.53c0-.84-.677-1.523-1.52-1.523s-1.527.685-1.527 1.523zM199.357 68.896a1.523 1.523 0 0 0 3.045 0 1.523 1.523 0 0 0-3.045 0zM204.896 68.896c0 .845.685 1.53 1.524 1.53.847 0 1.524-.685 1.524-1.53 0-.84-.678-1.523-1.524-1.523-.84 0-1.524.685-1.524 1.523zM210.444 68.896c0 .845.676 1.53 1.522 1.53a1.527 1.527 0 0 0 0-3.052c-.846 0-1.522.684-1.522 1.522zM215.984 68.896zM221.53 68.896c0 .845.684 1.53 1.526 1.53a1.527 1.527 0 1 0-1.527-1.53zM227.078 68.896a1.523 1.523 0 0 0 3.045 0 1.523 1.523 0 0 0-3.045 0zM124.98 57.23h54.43v2.632h-54.43zM124.98 63.504h54.43v2.628h-54.43zM124.98 69.62h54.43v2.63h-54.43z"/><path fill="#EB6159" d="M91.447 64.743c0 5.817 4.716 10.536 10.532 10.536 5.82 0 10.535-4.72 10.535-10.537 0-5.822-4.715-10.537-10.536-10.537-5.817 0-10.533 4.715-10.533 10.537z"/><path fill="#3A383A" d="M94.082 64.743a7.898 7.898 0 0 0 7.897 7.897 7.898 7.898 0 0 0 7.902-7.897 7.9 7.9 0 0 0-7.903-7.902 7.9 7.9 0 0 0-7.898 7.903z"/><path fill="#5E5E5E" d="M79.332 110.1a7.02 7.02 0 0 0 7.02 7.02h144.412V91.134v-7.02H86.354a7.022 7.022 0 0 0-7.022 7.02V110.1z"/><circle fill="#FFF" cx="192.839" cy="92.3" r="1.524"/><circle fill="#FFF" cx="198.383" cy="92.3" r="1.527"/><circle fill="#FFF" cx="203.926" cy="92.3" r="1.523"/><path fill="#FFF" d="M207.945 92.3c0 .84.685 1.523 1.525 1.523a1.52 1.52 0 0 0 1.52-1.523 1.52 1.52 0 0 0-1.52-1.526c-.84 0-1.525.684-1.525 1.526zM213.494 92.3c0 .84.68 1.523 1.52 1.523.844 0 1.528-.683 1.528-1.523a1.524 1.524 0 0 0-3.048 0zM219.036 92.3a1.524 1.524 0 1 0 3.048-.002 1.524 1.524 0 0 0-3.048.002zM224.582 92.3c0 .84.678 1.523 1.523 1.523a1.526 1.526 0 0 0 0-3.05c-.845 0-1.523.685-1.523 1.527zM188.265 96.46a1.525 1.525 0 0 0 3.05 0c0-.846-.682-1.532-1.525-1.532-.845 0-1.525.686-1.525 1.53zM193.81 96.46c0 .837.685 1.522 1.527 1.522s1.52-.685 1.52-1.523a1.523 1.523 0 0 0-3.047 0zM199.357 96.46a1.522 1.522 0 0 0 3.045 0c0-.846-.682-1.532-1.524-1.532-.843 0-1.52.686-1.52 1.53zM204.896 96.46c0 .837.685 1.522 1.524 1.522.847 0 1.524-.685 1.524-1.523 0-.846-.678-1.532-1.524-1.532a1.53 1.53 0 0 0-1.524 1.53zM210.444 96.46a1.52 1.52 0 0 0 1.522 1.522 1.527 1.527 0 0 0 0-3.054c-.846 0-1.522.686-1.522 1.53zM215.984 96.46zM221.53 96.46c0 .837.684 1.522 1.526 1.522a1.527 1.527 0 0 0 0-3.054 1.53 1.53 0 0 0-1.527 1.53zM227.078 96.46a1.522 1.522 0 0 0 3.045 0c0-.846-.682-1.532-1.524-1.532-.844 0-1.522.686-1.522 1.53zM191.314 100.618a1.523 1.523 0 1 0 1.523-1.526c-.84 0-1.523.68-1.523 1.526zM196.855 100.618c0 .84.687 1.52 1.527 1.52.843 0 1.527-.68 1.527-1.52 0-.846-.686-1.526-1.528-1.526-.84 0-1.527.68-1.527 1.526zM202.403 100.618a1.522 1.522 0 0 0 3.045 0 1.522 1.522 0 0 0-3.045 0zM207.945 100.618c0 .84.685 1.52 1.525 1.52.846 0 1.52-.68 1.52-1.52a1.524 1.524 0 1 0-3.046 0zM213.494 100.618c0 .84.68 1.52 1.52 1.52.844 0 1.528-.68 1.528-1.52 0-.846-.685-1.526-1.527-1.526-.84 0-1.52.68-1.52 1.526zM219.036 100.618c0 .84.682 1.52 1.527 1.52.84 0 1.52-.68 1.52-1.52a1.52 1.52 0 0 0-1.52-1.526c-.845 0-1.527.68-1.527 1.526zM224.582 100.618a1.524 1.524 0 1 0 1.523-1.526 1.52 1.52 0 0 0-1.523 1.526z"/><circle fill="#FFF" cx="192.839" cy="108.931" r="1.524"/><circle fill="#FFF" cx="198.383" cy="108.931" r="1.527"/><circle fill="#FFF" cx="203.926" cy="108.931" r="1.523"/><path fill="#FFF" d="M207.945 108.93c0 .845.685 1.526 1.525 1.526.846 0 1.52-.68 1.52-1.525 0-.84-.675-1.52-1.52-1.52-.84 0-1.525.68-1.525 1.52z"/><circle fill="#FFF" cx="215.019" cy="108.931" r="1.524"/><path fill="#FFF" d="M219.036 108.93a1.524 1.524 0 1 0 3.048.003 1.524 1.524 0 0 0-3.048-.002zM224.582 108.93a1.525 1.525 0 1 0 3.047 0 1.525 1.525 0 0 0-3.047 0zM188.265 104.775c0 .84.68 1.52 1.525 1.52a1.523 1.523 0 0 0 0-3.047c-.845 0-1.525.682-1.525 1.527zM193.81 104.775c0 .84.685 1.52 1.527 1.52s1.52-.68 1.52-1.52c0-.845-.677-1.526-1.52-1.526s-1.527.68-1.527 1.525zM199.357 104.775a1.522 1.522 0 0 0 3.045 0 1.523 1.523 0 1 0-3.045 0zM204.896 104.775a1.524 1.524 0 1 0 3.048-.006 1.524 1.524 0 0 0-3.048.005zM210.444 104.775c0 .84.676 1.52 1.522 1.52a1.524 1.524 0 1 0-1.522-1.52zM215.984 104.775c0 .84.682 1.52 1.527 1.52a1.523 1.523 0 0 0 0-3.047c-.844 0-1.526.682-1.526 1.527zM221.53 104.775c0 .84.684 1.52 1.526 1.52a1.524 1.524 0 0 0 0-3.046c-.842 0-1.527.68-1.527 1.525zM227.078 104.775a1.522 1.522 0 0 0 3.045 0 1.523 1.523 0 1 0-3.045 0zM124.98 93.107h54.43v2.63h-54.43zM124.98 99.378h54.43v2.632h-54.43zM124.98 105.49h54.43v2.633h-54.43z"/><path fill="#EB6159" d="M91.447 100.618c0 5.817 4.716 10.533 10.532 10.533 5.82 0 10.535-4.714 10.535-10.532 0-5.82-4.715-10.536-10.536-10.536-5.817 0-10.533 4.714-10.533 10.536z"/><path fill="#3A383A" d="M94.082 100.618c0 4.36 3.536 7.9 7.897 7.9a7.9 7.9 0 0 0 0-15.8 7.898 7.898 0 0 0-7.898 7.9z"/><path fill="#5E5E5E" d="M79.332 145.916a7.022 7.022 0 0 0 7.02 7.02h144.412V126.953v-7.02H86.354a7.023 7.023 0 0 0-7.022 7.02v18.964z"/><path fill="#FFF" d="M191.314 128.116c0 .844.684 1.522 1.523 1.522a1.52 1.52 0 0 0 0-3.043 1.52 1.52 0 0 0-1.523 1.52zM196.855 128.116c0 .844.687 1.522 1.527 1.522a1.523 1.523 0 0 0 0-3.043c-.84 0-1.527.678-1.527 1.52zM202.403 128.116c0 .844.68 1.522 1.524 1.522s1.52-.678 1.52-1.522c0-.843-.677-1.52-1.52-1.52s-1.524.677-1.524 1.52zM207.945 128.116c0 .844.685 1.522 1.525 1.522.846 0 1.52-.678 1.52-1.522 0-.843-.675-1.52-1.52-1.52-.84 0-1.525.677-1.525 1.52zM213.494 128.116c0 .844.68 1.522 1.52 1.522a1.523 1.523 0 0 0 0-3.043c-.84 0-1.52.678-1.52 1.52zM219.036 128.116a1.52 1.52 0 0 0 1.527 1.522c.84 0 1.52-.678 1.52-1.522 0-.843-.68-1.52-1.52-1.52a1.52 1.52 0 0 0-1.527 1.52zM224.582 128.116c0 .844.678 1.522 1.523 1.522a1.522 1.522 0 0 0 0-3.043c-.845 0-1.523.678-1.523 1.52zM188.265 132.27c0 .847.68 1.526 1.525 1.526a1.523 1.523 0 0 0 0-3.047c-.845 0-1.525.684-1.525 1.523zM193.81 132.27c0 .847.685 1.526 1.527 1.526s1.52-.68 1.52-1.525c0-.838-.677-1.52-1.52-1.52s-1.527.682-1.527 1.52zM199.357 132.27a1.522 1.522 0 0 0 3.045 0c0-.838-.682-1.52-1.524-1.52a1.52 1.52 0 0 0-1.52 1.52zM204.896 132.27a1.524 1.524 0 1 0 3.048.003 1.524 1.524 0 0 0-3.048-.002zM210.444 132.27c0 .847.676 1.526 1.522 1.526a1.524 1.524 0 1 0-1.522-1.525zM215.984 132.27c0 .847.682 1.526 1.527 1.526a1.523 1.523 0 0 0 0-3.047c-.844 0-1.526.684-1.526 1.523zM221.53 132.27c0 .847.684 1.526 1.526 1.526a1.524 1.524 0 0 0 0-3.047c-.842 0-1.527.682-1.527 1.52zM227.078 132.27a1.522 1.522 0 0 0 3.045 0c0-.838-.682-1.52-1.524-1.52a1.52 1.52 0 0 0-1.522 1.52z"/><circle fill="#FFF" cx="192.839" cy="136.433" r="1.524"/><circle fill="#FFF" cx="198.383" cy="136.433" r="1.527"/><circle fill="#FFF" cx="203.926" cy="136.433" r="1.523"/><path fill="#FFF" d="M207.945 136.433c0 .842.685 1.523 1.525 1.523.846 0 1.52-.68 1.52-1.523a1.52 1.52 0 0 0-1.52-1.525c-.84 0-1.525.684-1.525 1.525zM213.494 136.433a1.525 1.525 0 1 0 3.047-.003 1.525 1.525 0 0 0-3.047.003zM219.036 136.433a1.523 1.523 0 1 0 3.047 0 1.523 1.523 0 0 0-3.047 0zM224.582 136.433a1.524 1.524 0 1 0 3.048-.002 1.524 1.524 0 0 0-3.048.002zM191.314 144.747a1.524 1.524 0 1 0 3.05.003 1.524 1.524 0 0 0-3.05-.003zM196.855 144.747a1.527 1.527 0 0 0 3.054 0 1.527 1.527 0 0 0-3.055 0zM202.403 144.747a1.523 1.523 0 0 0 3.045 0 1.522 1.522 0 0 0-3.045 0zM207.945 144.747c0 .845.685 1.526 1.525 1.526a1.52 1.52 0 0 0 1.52-1.526 1.52 1.52 0 0 0-1.52-1.524c-.84 0-1.525.684-1.525 1.524zM213.494 144.747c0 .845.68 1.526 1.52 1.526a1.526 1.526 0 0 0 0-3.05c-.84 0-1.52.684-1.52 1.524zM219.036 144.747a1.524 1.524 0 0 0 3.048 0 1.524 1.524 0 0 0-3.048 0zM224.582 144.747a1.52 1.52 0 0 0 1.523 1.526 1.526 1.526 0 0 0 0-3.05c-.845 0-1.523.684-1.523 1.524z"/><circle fill="#FFF" cx="189.79" cy="140.59" r="1.525"/><path fill="#FFF" d="M193.81 140.59c0 .842.685 1.526 1.527 1.526s1.52-.685 1.52-1.526c0-.842-.677-1.525-1.52-1.525s-1.527.683-1.527 1.525z"/><circle fill="#FFF" cx="200.88" cy="140.59" r="1.523"/><path fill="#FFF" d="M204.896 140.59c0 .842.685 1.526 1.524 1.526.847 0 1.524-.685 1.524-1.526 0-.842-.678-1.525-1.524-1.525-.84 0-1.524.683-1.524 1.525zM210.444 140.59a1.52 1.52 0 0 0 1.522 1.526c.843 0 1.527-.685 1.527-1.526 0-.842-.685-1.525-1.527-1.525a1.52 1.52 0 0 0-1.522 1.525zM215.984 140.59a1.526 1.526 0 1 0 3.052 0 1.526 1.526 0 0 0-3.052 0z"/><circle fill="#FFF" cx="223.056" cy="140.59" r="1.526"/><circle fill="#FFF" cx="228.601" cy="140.59" r="1.523"/><path fill="#FFF" d="M124.98 128.922h54.43v2.633h-54.43zM124.98 135.195h54.43v2.632h-54.43zM124.98 141.312h54.43v2.63h-54.43z"/><path fill="#EB6159" d="M91.447 136.433c0 5.818 4.716 10.533 10.532 10.533 5.82 0 10.535-4.715 10.535-10.533 0-5.817-4.715-10.533-10.536-10.533-5.817 0-10.533 4.716-10.533 10.533z"/><path fill="#3A383A" d="M94.082 136.433a7.9 7.9 0 0 0 15.8 0c0-4.365-3.536-7.9-7.904-7.9a7.898 7.898 0 0 0-7.898 7.9z"/><path fill="#5E5E5E" d="M79.332 181.838a7.023 7.023 0 0 0 7.02 7.023h144.412v-33.01H86.354a7.025 7.025 0 0 0-7.022 7.026v18.962z"/><circle fill="#FFF" cx="192.839" cy="164.041" r="1.524"/><circle fill="#FFF" cx="198.383" cy="164.041" r="1.527"/><circle fill="#FFF" cx="203.926" cy="164.041" r="1.523"/><path fill="#FFF" d="M207.945 164.04c0 .843.685 1.524 1.525 1.524.846 0 1.52-.68 1.52-1.523a1.52 1.52 0 0 0-1.52-1.524c-.84 0-1.525.682-1.525 1.525zM213.494 164.04a1.525 1.525 0 1 0 1.52-1.525c-.84 0-1.52.683-1.52 1.526zM219.036 164.04a1.523 1.523 0 0 0 3.048 0 1.524 1.524 0 1 0-3.048 0zM224.582 164.04a1.524 1.524 0 1 0 1.523-1.525 1.52 1.52 0 0 0-1.523 1.526z"/><circle fill="#FFF" cx="189.79" cy="168.197" r="1.525"/><path fill="#FFF" d="M193.81 168.197c0 .843.685 1.523 1.527 1.523s1.52-.68 1.52-1.523c0-.84-.677-1.523-1.52-1.523s-1.527.683-1.527 1.523z"/><circle fill="#FFF" cx="200.88" cy="168.197" r="1.523"/><path fill="#FFF" d="M204.896 168.197a1.524 1.524 0 1 0 1.524-1.523c-.84 0-1.524.683-1.524 1.523zM210.444 168.197c0 .843.676 1.523 1.522 1.523.843 0 1.527-.68 1.527-1.523 0-.84-.685-1.523-1.527-1.523a1.52 1.52 0 0 0-1.522 1.523zM215.984 168.197c0 .843.682 1.523 1.527 1.523a1.524 1.524 0 0 0 0-3.046c-.844 0-1.526.683-1.526 1.523z"/><circle fill="#FFF" cx="223.056" cy="168.197" r="1.526"/><circle fill="#FFF" cx="228.601" cy="168.197" r="1.523"/><circle fill="#FFF" cx="192.839" cy="172.358" r="1.524"/><circle fill="#FFF" cx="198.383" cy="172.358" r="1.527"/><circle fill="#FFF" cx="203.926" cy="172.358" r="1.523"/><path fill="#FFF" d="M207.945 172.358c0 .842.685 1.523 1.525 1.523.846 0 1.52-.68 1.52-1.522 0-.843-.675-1.524-1.52-1.524-.84 0-1.525.68-1.525 1.524zM213.494 172.358a1.525 1.525 0 1 0 1.52-1.524c-.84 0-1.52.682-1.52 1.525zM219.036 172.358a1.523 1.523 0 1 0 1.527-1.524c-.845 0-1.527.68-1.527 1.524zM224.582 172.358a1.524 1.524 0 1 0 1.523-1.524 1.52 1.52 0 0 0-1.523 1.525zM191.314 180.673a1.525 1.525 0 1 0 3.05.005 1.525 1.525 0 0 0-3.05-.005zM196.855 180.673a1.527 1.527 0 0 0 3.054 0 1.527 1.527 0 0 0-3.055 0zM202.403 180.673a1.523 1.523 0 0 0 3.045 0 1.522 1.522 0 0 0-3.045 0zM207.945 180.673c0 .846.685 1.527 1.525 1.527.846 0 1.52-.68 1.52-1.527a1.52 1.52 0 0 0-1.52-1.524c-.84 0-1.525.683-1.525 1.523zM213.494 180.673c0 .846.68 1.527 1.52 1.527a1.526 1.526 0 0 0 0-3.05c-.84 0-1.52.683-1.52 1.523zM219.036 180.673a1.524 1.524 0 0 0 3.048 0 1.524 1.524 0 0 0-3.048 0zM224.582 180.673a1.525 1.525 0 1 0 3.046.004 1.525 1.525 0 0 0-3.046-.004z"/><circle fill="#FFF" cx="189.79" cy="176.516" r="1.525"/><path fill="#FFF" d="M193.81 176.516c0 .84.685 1.524 1.527 1.524s1.52-.684 1.52-1.524c0-.842-.677-1.527-1.52-1.527s-1.527.684-1.527 1.526z"/><circle fill="#FFF" cx="200.88" cy="176.516" r="1.523"/><path fill="#FFF" d="M204.896 176.516c0 .84.685 1.524 1.524 1.524.847 0 1.524-.684 1.524-1.524a1.524 1.524 0 0 0-3.048 0zM210.444 176.516c0 .84.676 1.524 1.522 1.524.843 0 1.527-.684 1.527-1.524a1.53 1.53 0 0 0-1.527-1.527c-.846 0-1.522.684-1.522 1.526zM215.984 176.516a1.526 1.526 0 1 0 3.05-.003 1.526 1.526 0 0 0-3.05.003z"/><circle fill="#FFF" cx="223.056" cy="176.516" r="1.526"/><circle fill="#FFF" cx="228.601" cy="176.516" r="1.523"/><path fill="#FFF" d="M124.98 164.85h54.43v2.63h-54.43zM124.98 171.12h54.43v2.63h-54.43zM124.98 177.233h54.43v2.634h-54.43z"/><path fill="#EB6159" d="M91.447 172.358c0 5.817 4.716 10.535 10.532 10.535 5.82 0 10.535-4.717 10.535-10.535 0-5.818-4.715-10.536-10.536-10.536-5.817 0-10.533 4.718-10.533 10.536z"/><path fill="#3A383A" d="M94.082 172.358a7.897 7.897 0 0 0 7.897 7.897 7.898 7.898 0 0 0 0-15.796 7.897 7.897 0 0 0-7.898 7.898z"/><path fill="#5E5E5E" d="M79.332 217.715a7.02 7.02 0 0 0 7.02 7.02h144.412V198.75v-7.022H86.354a7.022 7.022 0 0 0-7.022 7.022v18.965z"/><circle fill="#FFF" cx="192.839" cy="199.912" r="1.524"/><circle fill="#FFF" cx="198.383" cy="199.912" r="1.527"/><path fill="#FFF" d="M202.403 199.912a1.523 1.523 0 0 0 3.045 0 1.523 1.523 0 0 0-3.045 0zM207.945 199.912c0 .846.685 1.527 1.525 1.527.846 0 1.52-.682 1.52-1.528 0-.842-.675-1.523-1.52-1.523-.84 0-1.525.68-1.525 1.522z"/><circle fill="#FFF" cx="215.019" cy="199.912" r="1.524"/><path fill="#FFF" d="M219.036 199.912a1.524 1.524 0 0 0 3.048 0 1.523 1.523 0 0 0-3.048 0zM224.582 199.912a1.525 1.525 0 1 0 3.046.004 1.525 1.525 0 0 0-3.046-.005z"/><circle fill="#FFF" cx="189.79" cy="204.073" r="1.525"/><path fill="#FFF" d="M193.81 204.073c0 .843.685 1.52 1.527 1.52s1.52-.678 1.52-1.52a1.522 1.522 0 0 0-3.047 0zM199.357 204.073c0 .843.678 1.52 1.52 1.52a1.52 1.52 0 0 0 1.525-1.52 1.523 1.523 0 1 0-3.045 0zM204.896 204.073c0 .843.685 1.52 1.524 1.52a1.524 1.524 0 1 0-1.524-1.52zM210.444 204.073c0 .843.676 1.52 1.522 1.52a1.523 1.523 0 0 0 0-3.047c-.846 0-1.522.686-1.522 1.527zM215.984 204.073c0 .843.682 1.52 1.527 1.52a1.52 1.52 0 0 0 1.525-1.52 1.526 1.526 0 1 0-3.05 0z"/><circle fill="#FFF" cx="223.056" cy="204.073" r="1.526"/><path fill="#FFF" d="M227.078 204.073c0 .843.678 1.52 1.52 1.52a1.52 1.52 0 0 0 1.525-1.52 1.523 1.523 0 1 0-3.045 0zM191.314 208.233c0 .843.684 1.52 1.523 1.52a1.52 1.52 0 0 0 1.525-1.52 1.525 1.525 0 1 0-3.048 0zM196.855 208.233c0 .843.687 1.52 1.527 1.52a1.522 1.522 0 0 0 0-3.044c-.84-.002-1.527.683-1.527 1.523zM202.403 208.233c0 .843.68 1.52 1.524 1.52s1.52-.677 1.52-1.52a1.522 1.522 0 0 0-3.044 0zM207.945 208.233c0 .843.685 1.52 1.525 1.52.846 0 1.52-.677 1.52-1.52a1.52 1.52 0 0 0-1.52-1.524c-.84-.002-1.525.683-1.525 1.523zM213.494 208.233c0 .843.68 1.52 1.52 1.52a1.522 1.522 0 0 0 0-3.044c-.84-.002-1.52.683-1.52 1.523zM219.036 208.233c0 .843.682 1.52 1.527 1.52.84 0 1.52-.677 1.52-1.52a1.524 1.524 0 1 0-3.047 0zM224.582 208.233c0 .843.678 1.52 1.523 1.52a1.522 1.522 0 0 0 0-3.044 1.52 1.52 0 0 0-1.523 1.523z"/><circle fill="#FFF" cx="192.839" cy="216.548" r="1.524"/><ellipse fill="#FFF" cx="198.383" cy="216.548" rx="1.527" ry="1.522"/><circle fill="#FFF" cx="203.926" cy="216.548" r="1.523"/><path fill="#FFF" d="M207.945 216.548a1.523 1.523 0 0 0 3.046 0c0-.84-.675-1.52-1.52-1.52-.84-.002-1.525.68-1.525 1.52z"/><circle fill="#FFF" cx="215.019" cy="216.548" r="1.524"/><path fill="#FFF" d="M219.036 216.548c0 .843.682 1.522 1.527 1.522a1.52 1.52 0 0 0 0-3.043c-.845 0-1.527.68-1.527 1.52zM224.582 216.548c0 .843.678 1.522 1.523 1.522.84 0 1.525-.68 1.525-1.522a1.524 1.524 0 1 0-3.048 0z"/><circle fill="#FFF" cx="189.79" cy="212.39" r="1.525"/><path fill="#FFF" d="M193.81 212.39c0 .84.685 1.522 1.527 1.522s1.52-.68 1.52-1.522a1.523 1.523 0 0 0-3.047 0zM199.357 212.39a1.522 1.522 0 0 0 3.045 0c0-.84-.682-1.527-1.524-1.527-.843 0-1.52.687-1.52 1.527zM204.896 212.39a1.524 1.524 0 1 0 3.05-.005 1.524 1.524 0 0 0-3.05.005zM210.444 212.39a1.524 1.524 0 1 0 3.05-.005 1.524 1.524 0 0 0-3.05.005zM215.984 212.39c0 .84.682 1.522 1.527 1.522a1.52 1.52 0 0 0 1.525-1.522c0-.84-.68-1.527-1.524-1.527s-1.526.687-1.526 1.527z"/><circle fill="#FFF" cx="223.056" cy="212.39" r="1.526"/><path fill="#FFF" d="M227.078 212.39a1.522 1.522 0 0 0 3.045 0c0-.84-.682-1.527-1.524-1.527-.844 0-1.522.687-1.522 1.527zM124.98 200.722h54.43v2.63h-54.43zM124.98 206.996h54.43v2.63h-54.43zM124.98 213.108h54.43v2.63h-54.43z"/><path fill="#EB6159" d="M91.447 208.233c0 5.82 4.716 10.538 10.532 10.538 5.82 0 10.535-4.718 10.535-10.537 0-5.822-4.715-10.532-10.536-10.532-5.817 0-10.533 4.71-10.533 10.533z"/><path fill="#3A383A" d="M94.082 208.233c0 4.36 3.536 7.902 7.897 7.902a7.902 7.902 0 0 0 7.902-7.902 7.9 7.9 0 0 0-7.903-7.902 7.9 7.9 0 0 0-7.898 7.903z"/><path fill="#14CAF4" d="M105.648 28.817a3.67 3.67 0 0 1-3.665 3.67 3.666 3.666 0 0 1 0-7.335 3.665 3.665 0 0 1 3.665 3.665zM105.648 64.684a3.668 3.668 0 1 1-3.665-3.668 3.665 3.665 0 0 1 3.665 3.668zM105.648 100.59a3.665 3.665 0 0 1-3.665 3.667 3.666 3.666 0 0 1 0-7.334 3.668 3.668 0 0 1 3.665 3.668zM105.648 136.46a3.665 3.665 0 0 1-3.665 3.662 3.666 3.666 0 0 1 0-7.33 3.665 3.665 0 0 1 3.665 3.668zM105.648 172.412a3.67 3.67 0 0 1-3.665 3.667 3.67 3.67 0 0 1 0-7.337 3.668 3.668 0 0 1 3.665 3.67zM105.648 208.277a3.666 3.666 0 0 1-3.665 3.667 3.667 3.667 0 0 1 0-7.335 3.666 3.666 0 0 1 3.665 3.667z"/><path opacity=".2" fill="#FFF" d="M156.235 235.314h-12.91L224.997 4.547h5.766v20.326z"/><path opacity=".1" fill="#FFF" d="M83.236 7.656h147.527v223.6H83.236z"/><path opacity=".3" d="M98.285 1.158v8.26H74.312v223.844h23.973V21.718h135.04V1.158z"/><path opacity=".2" fill="#FFF" d="M132.015 235.314h-57.31l82-230.767h57.305z"/><path fill="#D8D8D8" d="M230.764 223.732H89.304V14.347h141.46V0H72.816v238.076h157.948z"/><path fill="#D8D8D8" d="M229.814 14.347v209.385H88.352l-14.34 14.344H246.3V0H88.35z"/><path opacity=".1" d="M229.814 14.347v209.385H88.352l-14.34 14.344H246.3V0z"/><g><path fill="#65935F" d="M140.99 233.85a1.555 1.555 0 0 1-2.186.195L31.97 144.675a1.547 1.547 0 0 1-.196-2.183l37.84-45.236a1.55 1.55 0 0 1 2.185-.195l106.838 89.365c.658.553.742 1.527.192 2.187l-37.84 45.238z"/><path fill="#095B02" d="M72.153 104.606l99.55 83.275-32.69 39.083-99.552-83.275z"/><path fill="#65935F" d="M114.244 173.03c-7.348 8.78-18.174 11.834-24.18 6.81-6.01-5.026-4.92-16.217 2.43-25.003 7.348-8.786 18.17-11.834 24.18-6.81 6.007 5.024 4.918 16.218-2.43 25.002zM74.996 121.244c-2.216 2.646-5.48 3.57-7.29 2.055-1.813-1.516-1.484-4.896.732-7.543 2.213-2.646 5.48-3.565 7.29-2.05 1.813 1.515 1.483 4.888-.732 7.537zM160.473 192.742c-2.213 2.65-5.48 3.568-7.29 2.054-1.814-1.518-1.483-4.895.73-7.54 2.215-2.65 5.48-3.572 7.293-2.055 1.81 1.516 1.48 4.894-.733 7.542zM56.373 143.508c-2.217 2.65-5.48 3.567-7.288 2.053-1.812-1.516-1.484-4.89.73-7.536 2.216-2.65 5.482-3.57 7.292-2.055 1.81 1.514 1.483 4.888-.734 7.538z"/><ellipse transform="rotate(39.924 138.562 212.266)" fill="#65935F" cx="138.569" cy="212.263" rx="4.276" ry="6.252"/><path opacity=".3" fill="#010000" d="M143.63 243.818l30.074-50.727a1.547 1.547 0 0 0-.545-2.125L53.345 119.932a1.55 1.55 0 0 0-2.123.544l-30.076 50.73a1.55 1.55 0 0 0 .543 2.127l119.814 71.03c.738.437 1.69.19 2.126-.545z"/><g><path fill="#65935F" d="M149.145 240.407a1.554 1.554 0 0 1-2.054.776L20.194 183.756a1.55 1.55 0 0 1-.773-2.055l24.316-53.727a1.547 1.547 0 0 1 2.05-.774l126.898 57.427a1.55 1.55 0 0 1 .774 2.05l-24.313 53.73z"/><path fill="#095B02" d="M48.157 134.387l118.258 53.515-21.01 46.424L27.15 180.81z"/><path fill="#65935F" d="M107.06 188.995c-4.722 10.433-14.333 16.278-21.466 13.05-7.14-3.23-9.094-14.303-4.37-24.738 4.724-10.44 14.33-16.276 21.468-13.046 7.135 3.227 9.088 14.3 4.367 24.735zM55.357 149.64c-1.425 3.142-4.322 4.91-6.474 3.935-2.153-.975-2.74-4.315-1.316-7.46 1.423-3.145 4.323-4.91 6.472-3.934 2.153.974 2.74 4.315 1.317 7.46zM156.88 195.585c-1.42 3.145-4.323 4.91-6.473 3.935-2.153-.975-2.74-4.316-1.316-7.464 1.423-3.146 4.323-4.907 6.473-3.932 2.152.972 2.74 4.314 1.318 7.46zM43.388 176.085c-1.425 3.145-4.32 4.903-6.47 3.93-2.15-.973-2.74-4.312-1.32-7.458 1.424-3.146 4.325-4.906 6.475-3.932 2.152.974 2.74 4.31 1.315 7.46zM144.912 222.03c-1.42 3.146-4.322 4.906-6.473 3.93-2.15-.972-2.74-4.312-1.32-7.456 1.427-3.148 4.322-4.908 6.476-3.938 2.152.975 2.742 4.317 1.316 7.465z"/></g><path opacity=".3" fill="#010000" d="M158.512 247.966l13.477-57.414a1.548 1.548 0 0 0-1.158-1.863L35.228 156.862a1.55 1.55 0 0 0-1.86 1.157L19.89 215.434a1.55 1.55 0 0 0 1.156 1.866l135.607 31.82a1.545 1.545 0 0 0 1.86-1.154z"/><g><path fill="#65935F" d="M160.473 245.926a1.555 1.555 0 0 1-1.758 1.314L20.897 227.045a1.548 1.548 0 0 1-1.31-1.76l8.55-58.353a1.55 1.55 0 0 1 1.76-1.312l137.814 20.195a1.55 1.55 0 0 1 1.31 1.762l-8.547 58.35z"/><path fill="#095B02" d="M34.15 171.866l128.42 18.82-7.39 50.41-128.417-18.82z"/><path fill="#65935F" d="M105.837 208.12c-1.66 11.328-9.286 19.597-17.032 18.46-7.753-1.132-12.686-11.237-11.025-22.57 1.66-11.336 9.287-19.602 17.037-18.46 7.747 1.13 12.68 11.237 11.02 22.57zM45.286 184.555c-.502 3.41-2.8 5.91-5.138 5.563-2.338-.344-3.824-3.392-3.324-6.806.502-3.417 2.8-5.91 5.137-5.568 2.34.342 3.824 3.392 3.326 6.81zM155.543 200.708c-.498 3.412-2.8 5.91-5.136 5.568-2.34-.342-3.824-3.396-3.323-6.81.5-3.415 2.8-5.91 5.135-5.566 2.336.343 3.82 3.392 3.323 6.808z"/><ellipse transform="rotate(8.35 36.866 212.605)" fill="#65935F" cx="36.845" cy="212.652" rx="4.276" ry="6.252"/><path fill="#65935F" d="M151.335 229.43c-.497 3.415-2.8 5.903-5.136 5.563-2.337-.342-3.826-3.387-3.327-6.804.503-3.42 2.802-5.91 5.136-5.57 2.338.342 3.826 3.392 3.325 6.81z"/></g><g><path fill="#FFC32C" d="M99.16 237.442c-4.087 8.595-14.366 12.262-22.97 8.17-8.59-4.086-12.242-14.378-8.155-22.972s14.37-12.247 22.96-8.162c8.605 4.092 12.253 14.37 8.166 22.964z"/><path opacity=".2" fill="#1D1D1B" d="M77.368 243.136c-7.21-3.43-10.288-12.09-6.853-19.315 3.43-7.215 12.088-10.286 19.3-6.855 7.22 3.434 10.306 12.088 6.875 19.304-3.435 7.223-12.1 10.3-19.322 6.866zm11.777-24.764c-6.432-3.058-14.162-.308-17.22 6.12-3.064 6.445-.313 14.167 6.118 17.225 6.44 3.063 14.165.325 17.23-6.12 3.057-6.43.313-14.162-6.128-17.225z"/><path fill="#1D1D1B" d="M79.39 237.295l.877-1.847c-1.053-.54-2-1.39-2.425-2.153l1.026-1.02a5.477 5.477 0 0 0 2.27 2.042c1.31.62 2.542.294 3.04-.757.483-1.013.066-1.98-1.03-3.172-1.528-1.628-2.284-3.026-1.524-4.624.727-1.528 2.365-2.16 4.184-1.64l.882-1.854 1.138.542-.847 1.78c1.09.562 1.7 1.216 2.08 1.79l-1.027.982c-.288-.39-.845-1.16-2.023-1.72-1.412-.67-2.35-.08-2.7.655-.452.953-.004 1.754 1.286 3.17 1.523 1.68 2.03 3.09 1.254 4.725-.69 1.45-2.357 2.326-4.394 1.73l-.913 1.918-1.154-.548z" opacity=".2"/><path opacity=".2" fill="#FFF" d="M99.393 223.172L68.68 238.674a17.125 17.125 0 0 0 7.51 6.94c8.605 4.09 18.884.423 22.972-8.172a17.186 17.186 0 0 0 .23-14.27z"/></g><g><path fill="#FFC32C" d="M61.062 219.156c-3.215 6.76-11.303 9.648-18.072 6.428-6.76-3.214-9.63-11.312-6.416-18.073 3.216-6.76 11.306-9.634 18.064-6.42 6.77 3.22 9.64 11.305 6.424 18.066z"/><path opacity=".2" fill="#1D1D1B" d="M43.917 223.635c-5.673-2.698-8.095-9.51-5.392-15.197 2.7-5.678 9.512-8.093 15.185-5.396 5.683 2.703 8.108 9.51 5.408 15.188-2.703 5.686-9.517 8.107-15.2 5.405zm9.266-19.483c-5.06-2.406-11.144-.243-13.548 4.814-2.41 5.07-.245 11.146 4.813 13.552 5.068 2.41 11.145.255 13.556-4.816 2.404-5.057.247-11.14-4.82-13.55z"/><path fill="#1D1D1B" d="M45.51 219.038l.69-1.454c-.832-.418-1.577-1.09-1.912-1.69l.81-.805c.36.59.976 1.22 1.786 1.606 1.03.49 2 .23 2.392-.594.38-.8.052-1.56-.81-2.498-1.205-1.28-1.8-2.38-1.202-3.635.573-1.206 1.863-1.704 3.293-1.29l.694-1.46.897.425-.667 1.404c.856.44 1.336.952 1.636 1.403l-.81.774c-.224-.31-.663-.913-1.59-1.354-1.112-.53-1.85-.064-2.124.513-.356.75-.005 1.38 1.01 2.497 1.197 1.323 1.6 2.43.988 3.715-.543 1.142-1.855 1.834-3.457 1.36l-.72 1.51-.904-.43z" opacity=".2"/><path opacity=".2" fill="#FFF" d="M61.247 207.93l-24.164 12.196a13.478 13.478 0 0 0 5.907 5.458c6.77 3.22 14.857.333 18.072-6.428a13.506 13.506 0 0 0 .185-11.227z"/></g><g><path fill="#FFC32C" d="M80.58 198.113a8.323 8.323 0 0 1-6.926 9.52c-4.533.712-8.8-2.392-9.51-6.928a8.322 8.322 0 0 1 16.438-2.592z"/><path opacity=".2" fill="#1D1D1B" d="M73.448 206.326c-3.808.6-7.392-2.014-7.993-5.827a7 7 0 0 1 5.818-8c3.812-.598 7.405 2.01 8.004 5.82.602 3.812-2.015 7.404-5.83 8.006zm-2.06-13.08c-3.394.538-5.722 3.74-5.19 7.134a6.244 6.244 0 0 0 7.135 5.194 6.244 6.244 0 0 0 5.196-7.137c-.536-3.39-3.737-5.726-7.14-5.19z"/><path fill="#1D1D1B" d="M72.666 203.442l-.155-.97c-.565.072-1.176-.01-1.55-.195l.128-.688c.386.17.918.28 1.46.19.693-.11 1.092-.574 1.007-1.13-.088-.534-.515-.808-1.277-.984-1.054-.23-1.735-.58-1.867-1.423-.128-.807.354-1.504 1.22-1.794l-.154-.98.603-.097.147.943c.587-.078 1.01.02 1.315.145l-.144.675c-.222-.078-.65-.232-1.275-.133-.745.118-.955.61-.894.993.08.505.476.703 1.372.915 1.066.257 1.653.678 1.79 1.54.122.765-.306 1.57-1.278 1.886l.158 1.014-.606.092z" opacity=".2"/><path opacity=".2" fill="#FFF" d="M76.783 192.362l-8.008 14.552a8.262 8.262 0 0 0 4.88.72 8.322 8.322 0 0 0 3.128-15.272z"/></g></g><g><path fill="#FCD22E" d="M148.922 152.658a18.42 18.42 0 0 0 9.596 10.213 18.404 18.404 0 0 0-9.596 10.21 18.367 18.367 0 0 0-9.594-10.21 18.384 18.384 0 0 0 9.594-10.212z"/><path fill="#FD7600" d="M148.922 157.726a9.304 9.304 0 0 0 4.838 5.146 9.25 9.25 0 0 0-4.838 5.142 9.204 9.204 0 0 0-4.83-5.142 9.262 9.262 0 0 0 4.83-5.146z"/><g><path fill="#FCD22E" d="M164.537 167.475c3.53 9.294 10.64 16.81 19.633 20.885a37.646 37.646 0 0 0-19.633 20.884 37.613 37.613 0 0 0-19.64-20.884 37.628 37.628 0 0 0 19.64-20.885z"/><path fill="#FD7600" d="M164.537 177.84a18.976 18.976 0 0 0 9.902 10.52 18.902 18.902 0 0 0-9.903 10.518 18.91 18.91 0 0 0-9.884-10.518 18.976 18.976 0 0 0 9.884-10.52z"/><g><path fill="#FCD22E" d="M182.29 146.733a26.57 26.57 0 0 0 13.85 14.735 26.567 26.567 0 0 0-13.85 14.736 26.543 26.543 0 0 0-13.853-14.736 26.55 26.55 0 0 0 13.854-14.735z"/><path fill="#FD7600" d="M182.29 154.05a13.39 13.39 0 0 0 6.985 7.418 13.323 13.323 0 0 0-6.984 7.418 13.324 13.324 0 0 0-6.976-7.418 13.392 13.392 0 0 0 6.977-7.42z"/></g></g></g></svg>