<svg xmlns="http://www.w3.org/2000/svg" width="82.865" height="82.065" viewBox="0 0 82.865 82.065"><path fill="#FBD12E" d="M82.865 41.033c0 1.927-3.246 3.6-3.51 5.455-.27 1.9 2.37 4.417 1.843 6.222-.54 1.834-4.125 2.525-4.91 4.24-.793 1.734 1.028 4.897.004 6.487-1.03 1.6-4.667 1.25-5.908 2.682-1.244 1.434-.384 4.983-1.818 6.226-1.43 1.242-4.822-.11-6.42.92-1.59 1.023-1.762 4.67-3.497 5.464-1.716.785-4.586-1.47-6.42-.932-1.804.53-3 3.98-4.9 4.25-1.854.265-3.97-2.708-5.897-2.708-1.926 0-4.042 2.973-5.896 2.708-1.9-.27-3.097-3.72-4.9-4.25-1.836-.538-4.706 1.716-6.42.932-1.735-.794-1.907-4.442-3.496-5.465-1.6-1.03-4.99.323-6.42-.92-1.436-1.242-.576-4.792-1.82-6.226-1.24-1.433-4.877-1.084-5.907-2.683-1.023-1.59.797-4.753.004-6.487-.784-1.714-4.372-2.406-4.91-4.24-.53-1.804 2.113-4.32 1.842-6.22C3.246 44.633 0 42.96 0 41.032s3.247-3.602 3.51-5.454c.27-1.902-2.37-4.42-1.842-6.223.538-1.834 4.125-2.526 4.91-4.24.792-1.734-1.028-4.898-.004-6.488 1.03-1.6 4.666-1.252 5.907-2.683 1.245-1.435.385-4.984 1.82-6.227 1.432-1.242 4.822.11 6.42-.92 1.59-1.023 1.762-4.67 3.497-5.464 1.714-.785 4.584 1.47 6.42.93 1.803-.528 3-3.98 4.9-4.25 1.854-.264 3.97 2.71 5.896 2.71 1.927 0 4.042-2.974 5.896-2.71 1.9.272 3.097 3.723 4.9 4.25 1.835.54 4.705-1.715 6.42-.93 1.733.793 1.904 4.44 3.495 5.465 1.6 1.03 4.99-.322 6.422.92 1.434 1.243.574 4.792 1.818 6.227 1.242 1.432 4.877 1.083 5.907 2.683 1.023 1.59-.798 4.753-.004 6.487.785 1.714 4.372 2.406 4.91 4.24.528 1.804-2.113 4.32-1.843 6.22.264 1.854 3.51 3.53 3.51 5.456z"/><circle fill="#E54545" cx="41.432" cy="41.033" r="34.695"/><circle fill="#FBD12E" cx="41.432" cy="41.033" r="21.09"/><g fill="#FFF"><path d="M17.792 50.38l-.945-.402c.295-.484.342-1.238.2-1.774-.193-.725-.594-1.07-1.006-.96-.436.117-.53.557-.31 1.38l.294 1.114-1.03.273-.296-1.11c-.172-.652-.48-1.074-.883-.967-.436.116-.52.668-.353 1.294.143.536.49 1.05.965 1.34l-.58.78c-.62-.31-1.2-.996-1.455-1.96-.34-1.286 0-2.33.914-2.572.692-.184 1.303.29 1.57.862-.09-.568.155-1.41.98-1.628.947-.252 1.867.518 2.214 1.828.27 1.015.11 1.967-.278 2.5zM17.075 41.126l-.945.397.12 2.436.98.31.067 1.38-5.79-1.918-.074-1.516 5.573-2.47.07 1.38zm-4.394 1.788l2.49.766-.088-1.772-2.4 1.006zM18.33 33.708l-4.463-1.204-.7 2.593L17.63 36.3l-.316 1.17-5.49-1.482 1.332-4.94 5.49 1.482-.317 1.178zM19.003 31.797L13.95 29.18l1.852-3.575.947.49-1.295 2.5 1.068.553L17.79 26.7l.947.49-1.267 2.448 1.144.592 1.294-2.5.947.49-1.852 3.577zM21.22 27.66l-4.438-3.56 1.666-2.076c.773-.964 1.848-.967 2.625-.342.772.62 1.004 1.68.235 2.638l-.907 1.13 1.578 1.266-.758.944zm-.92-5.014c-.373-.3-.823-.2-1.122.17l-.806 1.006 1.198.96.806-1.004c.3-.372.29-.84-.076-1.132zM24.45 23.807l-3.68-4.337 3.068-2.604.69.812-2.146 1.82.778.918 2.1-1.782.69.812-2.1 1.782.833.982 2.146-1.82.69.81-3.07 2.607zM31.5 18.973l-1.115-2.11-2.376 1.252 1.114 2.11-1.07.567-2.655-5.03 1.07-.565 1.043 1.976 2.375-1.255-1.042-1.975 1.078-.57 2.655 5.03-1.08.57zM32.358 15.417c-.41-1.665.517-3.156 2.182-3.565 1.673-.41 3.184.483 3.592 2.148.408 1.665-.516 3.156-2.19 3.567-1.665.41-3.175-.485-3.584-2.15zm4.564-1.12c-.254-1.035-1.108-1.65-2.127-1.4s-1.482 1.188-1.228 2.224c.252 1.028 1.1 1.654 2.12 1.405 1.017-.252 1.487-1.2 1.235-2.228zM39.058 13.928c-.007-1.75 1.31-2.948 3.015-2.955 1.253-.005 1.98.674 2.385 1.38l-1.04.516c-.24-.46-.752-.825-1.34-.822-1.033.004-1.78.8-1.775 1.875.004 1.075.758 1.865 1.79 1.86.59-.002 1.1-.362 1.336-.832l1.04.5c-.405.71-1.12 1.404-2.373 1.41-1.705.004-3.032-1.184-3.04-2.932zM50.478 18.276l-.75-2.41-1.98 1.567-1.378-.425 2.832-2.18-1.034-3.218 1.377.424.675 2.243 1.803-1.48 1.395.43-2.665 2.07 1.11 3.405-1.385-.426zM53.02 16.114c.855-1.485 2.555-1.922 4.04-1.066 1.493.86 1.965 2.55 1.11 4.036-.857 1.484-2.557 1.923-4.05 1.062-1.485-.856-1.957-2.547-1.1-4.032zm4.07 2.347c.532-.922.342-1.957-.567-2.48-.91-.525-1.893-.167-2.425.756-.528.917-.35 1.955.56 2.48s1.904.16 2.432-.755zM58.895 19.68c1.206-1.267 2.986-1.218 4.22-.042.908.866.962 1.86.764 2.648l-1.107-.348c.145-.498.028-1.116-.4-1.522-.746-.71-1.836-.656-2.577.123-.74.776-.746 1.87 0 2.58a1.53 1.53 0 0 0 1.542.326l.406 1.082c-.785.23-1.78.236-2.688-.63-1.236-1.177-1.368-2.954-.16-4.22zM61.812 26.934l3.804-2.628-.946-1.37.877-.605 2.58 3.735-.876.606-.94-1.36-3.804 2.628-.694-1.004zM63.702 29.702l5.26-2.165.462 1.12-3.4 1.4 4.403 1.037.474 1.15-5.26 2.167-.46-1.12 3.524-1.45-4.558-1.058-.444-1.08zM66.444 39.036l2.36-.36-.405-2.656-2.36.36-.184-1.197 5.623-.858.182 1.197-2.208.337.405 2.655 2.207-.337.184 1.206-5.622.858-.184-1.206zM66.592 41.07l5.68.34-.243 4.02-1.065-.064.17-2.81-4.615-.278.072-1.21zM65.417 48.942l1.02-.107.587-2.368-.85-.58.334-1.34 4.992 3.506-.366 1.473-6.05.758.333-1.342zm4.724-.444l-2.162-1.45-.427 1.72 2.59-.27z"/></g><g fill="#FFF"><path d="M21.04 63.894l3.804-4.934 2.596 2c.94.725.958 1.695.45 2.354-.478.62-1.182.74-1.723.475.462.486.49 1.32.012 1.943-.572.74-1.523.95-2.463.225l-2.678-2.064zm4.18.865c.24-.312.223-.75-.19-1.07l-1.355-1.043-.884 1.146 1.355 1.044c.398.31.8.277 1.074-.078zm1.455-2.088c.24-.31.194-.71-.16-.985l-1.317-1.016-.827 1.074 1.318 1.016c.354.275.748.223.987-.088zM32.64 70.394l-.437-2.492-.918-.316-.72 2.093-1.255-.433 2.027-5.89 2.755.95c1.227.42 1.702 1.483 1.325 2.578-.36 1.042-1.204 1.374-1.892 1.305l.553 2.7-1.438-.496zm1.498-3.95c.17-.495-.107-.925-.61-1.1l-1.315-.452-.547 1.59 1.315.452c.504.174.988.004 1.158-.49zM35.87 71.224l.724-6.188 4.378.513-.136 1.158-3.06-.358-.154 1.308 2.997.35-.137 1.16-2.996-.35-.165 1.4 3.062.358-.136 1.16-4.38-.512zM41.57 68.73c-.23-1.957 1.11-3.375 2.92-3.586 1.29-.152 2.172.402 2.722 1.082l-1.025.722c-.33-.403-.9-.713-1.56-.635-1.124.13-1.84 1.09-1.702 2.26.137 1.168 1.055 1.936 2.177 1.804.547-.064 1.04-.366 1.262-.628l-.087-.743-1.633.19-.136-1.15 2.95-.345.28 2.375c-.55.78-1.376 1.347-2.5 1.48-1.806.21-3.44-.878-3.667-2.827zM49.175 69.996a.766.766 0 0 1 .507-.942.765.765 0 0 1 .942.506.764.764 0 0 1-.507.942.765.765 0 0 1-.942-.506zM55.61 68.154l-2.068-1.457-.874.424.966 1.992-1.193.58-2.72-5.605 2.623-1.272c1.167-.567 2.252-.148 2.76.893.48.99.115 1.823-.42 2.26l2.296 1.52-1.37.666zM53.88 64.3c-.228-.47-.73-.582-1.208-.35l-1.25.608.732 1.513 1.252-.607c.48-.233.703-.693.474-1.164zM57.03 64.535l-2.4-2.875 1.032-.863 2.373 2.84c.557.666 1.327.8 2.066.184.738-.616.736-1.393.18-2.06l-2.374-2.84 1.04-.867 2.396 2.868c.995 1.19.97 2.588-.486 3.804-1.457 1.217-2.842.987-3.825-.19z"/></g><path fill="#FFF" d="M67.302 58.367l-1.765-.598-1.495 1.113.024-1.864-1.522-1.078 1.78-.552.554-1.78 1.077 1.52 1.863-.023-1.115 1.495zM17.173 58.78l1.766-.6 1.493 1.115-.024-1.863 1.52-1.077-1.78-.553-.552-1.78-1.077 1.52-1.863-.022 1.115 1.494z"/><g fill="#E54545"><path d="M23.892 45.297v-8.395h3.474c1.498 0 2.215.994 2.215 2.14 0 1.058-.578 1.737-1.346 1.926.855.138 1.485 1.02 1.485 2.064 0 1.27-.718 2.265-2.242 2.265h-3.586zm3.964-5.966c0-.565-.29-.956-.893-.956h-1.385V40.3h1.385c.604 0 .893-.39.893-.97zm.14 3.462c0-.58-.328-1.032-.97-1.032H25.58v2.064h1.446c.63 0 .97-.377.97-1.032zM30.575 41.105c0-2.492 1.31-4.342 3.5-4.342 2.202 0 3.51 1.85 3.51 4.342 0 2.505-1.31 4.343-3.51 4.343-2.19 0-3.5-1.837-3.5-4.343zm5.286 0c0-1.624-.628-2.844-1.786-2.844-1.145 0-1.762 1.222-1.762 2.845 0 1.6.617 2.844 1.762 2.844 1.158 0 1.787-1.246 1.787-2.845zM43.287 45.297l-2.857-4.96v4.96h-1.686v-8.395h1.71l2.745 4.782v-4.782h1.698v8.395h-1.61zM46.37 42.402v-5.5h1.7v5.513c0 .994.502 1.548 1.396 1.548.88 0 1.384-.554 1.384-1.548v-5.513h1.7v5.5c0 1.938-1.196 3.046-3.084 3.046-1.9 0-3.096-1.108-3.096-3.046zM53.493 44.366l.83-1.297a2.75 2.75 0 0 0 2.028.893c.744 0 1.147-.416 1.147-.93 0-1.474-3.75-.97-3.75-3.815 0-1.322 1.03-2.455 2.768-2.455 1.02 0 1.9.327 2.542.932l-.805 1.26a2.58 2.58 0 0 0-1.8-.706c-.604 0-.98.34-.98.855 0 1.31 3.737.956 3.737 3.788 0 1.473-1.007 2.555-2.845 2.555-1.273 0-2.205-.415-2.872-1.082z"/></g><path fill="#E54545" d="M41.306 23.362l8.672 5.58 8.673 5.58H23.963l8.672-5.58zM41.306 58.89l-8.672-5.58-8.672-5.58H58.65l-8.672 5.58z"/><path opacity=".1" d="M79.34 46.487c.265-1.854 3.51-3.528 3.51-5.455s-3.245-3.602-3.51-5.455c-.27-1.9 2.372-4.417 1.843-6.22-.54-1.835-4.125-2.527-4.91-4.24-.793-1.735 1.028-4.898.004-6.488-1.03-1.6-4.666-1.252-5.908-2.684-1.245-1.435-.385-4.984-1.82-6.227-1.43-1.243-4.822.11-6.42-.92L20.706 73.265c1.59 1.023 1.762 4.67 3.496 5.465 1.714.785 4.584-1.47 6.42-.932 1.803.53 3 3.98 4.9 4.25 1.854.265 3.97-2.708 5.896-2.708s4.04 2.973 5.895 2.708c1.9-.27 3.097-3.72 4.9-4.25 1.836-.538 4.706 1.716 6.42.932 1.734-.793 1.905-4.44 3.496-5.465 1.6-1.03 4.992.323 6.423-.92 1.434-1.242.574-4.79 1.817-6.226 1.242-1.432 4.878-1.084 5.908-2.683 1.023-1.59-.798-4.753-.004-6.487.785-1.715 4.372-2.406 4.91-4.24.528-1.805-2.114-4.322-1.844-6.223z"/></svg>