<svg baseProfile="basic" xmlns="http://www.w3.org/2000/svg" width="56" height="60" viewBox="0 0 56 60"><path fill="#FFCE12" d="M54.8 21.8c0-5.9-1-10.8-2.9-14.8-1.1.1-2.1.1-3.2.1-9 0-16.9-2.8-21.3-7.1C23 4.3 15.1 7.1 6.1 7.1 5 7.1 4 7.1 2.9 7 1.1 11 0 15.9 0 21.8 0 42.1 16.7 60 27.4 60c11.5 0 27.4-17.9 27.4-38.2z"/><path fill="#36875A" d="M44 45.5c0 1-.8 1.8-1.8 1.8H12.7c-1 0-1.8-.8-1.8-1.8s.8-1.8 1.8-1.8h29.5c1-.1 1.8.8 1.8 1.8z"/><path fill="#31D880" d="M35.6 47c0 .7-.6 1.3-1.3 1.3H20.6c-.7 0-1.3-.6-1.3-1.3v-3.1c0-.7.6-1.3 1.3-1.3h13.6c.7 0 1.3.6 1.3 1.3V47z"/><path fill="#31D880" d="M29 38.7c.7 0 1.3.6 1.3 1.3v5.7c0 .7-.6 1.3-1.3 1.3h-3.1c-.7 0-1.3-.6-1.3-1.3V40c0-.7.6-1.3 1.3-1.3H29z"/><path opacity=".2" fill="#010000" d="M51.9 7c-1.1.1-2.1.1-3.2.1-8.9 0-16.8-2.8-21.2-7V60c11.7 0 27.3-18 27.3-38.2 0-5.9-1.1-10.8-2.9-14.8z"/><path fill="#36875A" d="M41.5 14.6c-.2-1.4-1.4-2.6-2.8-2.6H16.2c-1.4 0-2.7 1.1-2.8 2.6l-2.8 20.5c-.2 2.1 1 3.9 2.7 3.9h28.2c1.8 0 3-1.8 2.7-3.9l-2.7-20.5z"/><path fill="#31D880" d="M44.4 36.3c0 1.8-1.4 3.2-3.2 3.2H13.7c-1.8 0-3.2-1.4-3.2-3.2 0-1.8 1.4-3.2 3.2-3.2h27.6c1.7 0 3.1 1.4 3.1 3.2z"/><ellipse fill="#36875A" cx="14.6" cy="36.4" rx="1.7" ry="1.7"/><path opacity=".25" fill="#010000" d="M44.3 35.4v-.3l-2.8-20.5c-.2-1.4-1.4-2.6-2.8-2.6H27.5v21.1l-4 6.4h17.8c1.8 0 3.2-1.4 3.2-3.2-.1-.3-.1-.6-.2-.9z"/></svg>