<svg baseProfile="basic" xmlns="http://www.w3.org/2000/svg" width="172" height="172" viewBox="0 0 172 172"><ellipse fill="#76D9FC" cx="85.8" cy="86" rx="85.8" ry="86"/><path fill-rule="evenodd" clip-rule="evenodd" fill="#00A936" d="M30.4 102.8c-.5-.2-1.1-.3-1.6-.4-.6-.1-1-.1-1.4 0-1.2.3-1.2 1.6 1.9 3.5.8 1.1 2.4 2.2 3.8 1.6.8-2.4-.9-3.9-2.8-4.5.1-.2.1-.1.1-.2zM43.7 78.5c.1.1.2.3.4.3h.2c.9.2 1.7-.6 1-.7-.3 0-.8 0-1.6.4zM63.5 70.9c-1.4.2-1.7 1.1 1.2 3.2.4-.1 2.9-.7 1.4.9 4.6-2.8-.2-4.5-2.6-4.1zM63.5 51.5c4.9-2 6-14.9.2-14.5-.4 0-.8.2-1.2.4 2.4 4.5-3.2 10.2 1 14.1zM119.6 62.2c.4-2.7-3.9-4.7-5.8-4.6-1.1.1-1.3.9.7 2.8-1.9 4.6 3.2 4.9 5.1 1.8zM75.9 28.6c1.4-.7 2.1-3 0-3-.4-.1-.7-.2-1-.2-.4 0-.8.1-1 .2-4.1.9-2.9 7.7 2 3z"/><path fill-rule="evenodd" clip-rule="evenodd" fill="#00A936" d="M81.7 27c-6 .8-12 6.5-6.4 12.2 4 5-5.7 15.1 3.5 17.7 3.7-8.2 13.6-14.7 11.2-24.7-1.1-4.2-4.7-5.6-8.3-5.2z"/><path fill="#00A936" d="M71.4 145.3c-8.8-5.9-15.2-14.9-25.1-19.2-8.1-7.9-26.3-3-26-17.9.8-7.1-4.8-10.5-9.1-13.8-3.3-10.9 16.6-15 16.9-3 6.6-.3 8.9-11.8 16.5-13.4 3.9-3.4 14.4.3 10.6-6.7 3.8-3.6 14.8-3.5 9.4-11.9-1.8-8.2-11.9-12.1-15.2-2.8-9 2.4-5.4-17.3 3.9-14.7 6.7.4 5.8-5.5 1.7-7.3 0-.3-.1-.4-.3-.2-.7-.3-1.5-.6-2.4-.5-9.1-5 9.1-17.8-2.9-21.9C36.1 23.3 16 41 7.9 57.6 4.3 68 4.9 78.5 5.3 89.4 9 100 16.2 108.7 21.9 118.2c3.7 4.6 1.9 9.9 1.6 14.9-.1 0 0 .2 0 .2-.2 3 .3 5.9 2.9 8.6 4.5 5.8 11 10.4 14.1 17 7.2 4.5 15 7.9 23.4 10.1.9-.4 2.8-1 9.4-1.6v-.2c0-2 9.2-4.9 13.7-8.3 7.6-9-8-16.2-15.6-13.6zM151.6 141.6c12.7-15 20.4-34.4 20.4-55.6 0-2.4-.2-4.7-.4-7-.1-.6-.1-1.2-.2-1.7-4.9 2.7-13.6-12.1-4.7-5.1 1.7-.1 2.8-.6 3.7-1.4-1-5.4-2.4-10.6-4.4-15.6-.9-1-1.7-2-2.4-2.6.1-1.1 0-2.1-.2-3.1 0-.1.1-.1 0-.2C149.4 20.5 119.9.5 85.8.5c-2.3 0-4.7.1-7 .3-1.2.3-2.5.4-3.9.5-.5 0-.9.1-1.4.2-4.8.7-9.4 1.5-13.9 3 11.8-.9 23.9-.6 34.5 4.7 2.8 9.1 19.6.2 18.8 10.3l.5.5c-.3.2.2 2 .5.5 2.9 3.3 9 10.1 2.6 9.3-8.5-1.2-6.3 15.7-.2 18.7 5.8 3.2 9.1-3.2 3.1-6.3-.8-7.9 13.1 4.8 7 9.1-.2.2-.4.4-.7.5.3-1.1-.4-.1-.4.2-7 5.1-3 17-5.7 25-4.8 10.8 12.1 6 9.6-2.5-3.1-7.8 12.9-4.2 9.4-9.8 9.7 5.2 8.8-8.7 4.7-13.3 1.9-7.4 6.9.9 4.5 4.9.4 3.8 3.7 4.7 6.3 5.8.1.1.3.1.5.2 2.3 1.1 3.7 2.5 1.2 6.8-2.8 9.6-12.5 10.2-20.4 8.4-8 3.3-9.5 13-14 19.6-4.5 8.2-8.2 20.2-.2 27.5 7.7 7.4 16.5 1 22.9-4 12.2-1.6 13.3 12.8 7.3 20.1.3.4.2.6.2.9z"/><g opacity=".2" fill="#010000"><path d="M4.2 59.5c0 .1 0 .1-.1.2.8 0 1.5-.1 1.5-.2H4.2zM158.2 132c-.1.1-.1.1-.1.2 0-.1.1-.1.1-.2z"/><path d="M165.1 111.9c0-.1 0-.3.1-.3-.1.2-1.4 1.5-11.2 2.9 2.5-8.6 3.9-17.8 4-27.4h13v-2.6h-13c-.1-9.7-1.6-19-4.2-27.7 9.9 1.4 11.2 2.7 11.3 2.9 0 0-.1-.1-.1-.3h2.3c-.2-.6-.4-1.1-.6-1.7-1-1-3.1-1.7-6.6-2.5-2-.4-4.5-.9-7.3-1.2-3.3-10-8.1-19.1-14.1-26.9 6 1.5 10.8 3.4 14.1 5.3-1.3-1.6-2.7-3.3-4.1-4.8-3.4-1.4-7.2-2.5-10.7-3.3-.6-.2-1.3-.3-2-.5-9-10.6-20.5-18.4-33.3-22.1C97.2.6 91.6 0 85.8 0c-6.4 0-12.7.7-18.7 2.1C54.8 6 43.8 13.6 35 23.9c-.7.2-1.4.3-2.1.5-3.2.8-6.7 1.8-9.9 3-1.4 1.5-2.7 3-4 4.6 3.3-1.7 7.7-3.3 13.2-4.7-6 7.8-10.8 16.8-14.1 26.8-3 .4-5.6.8-7.7 1.3-2.4.5-4.2 1-5.4 1.7-.2.7-.5 1.4-.7 2 2.4-.6 6.7-1.4 13-2.3-2.6 8.7-4.1 18-4.2 27.7H.1C0 85 0 85.5 0 86v1.1h13.1c.1 9.6 1.5 18.8 4 27.5-10.1-1.4-11.4-2.8-11.6-3 0 0 .1.1.1.3H4c.2.8.5 1.6.8 2.3 1.2.7 3 1.3 5.7 1.8 2.1.4 4.6.9 7.5 1.3 3.1 9.4 7.5 18.1 12.9 25.6-6.1-1.7-10.8-3.6-13.9-5.6 1.3 1.7 2.6 3.4 4 5 3.7 1.6 7.9 2.8 11.8 3.8.2 0 .4.1.6.1 9 11.2 20.5 19.5 33.4 23.6 6.1 1.4 12.4 2.1 18.9 2.1 5.8 0 11.4-.6 16.8-1.7 13.6-3.9 25.7-12.5 35-24.1.1 0 .3-.1.4-.1 4.3-1.1 8.9-2.5 12.9-4.2 1.5-1.8 2.9-3.6 4.3-5.5-3 2.3-8.1 4.5-15 6.4 5.4-7.5 9.8-16.1 12.9-25.6 2.8-.4 5.2-.8 7.2-1.2 3.7-.8 5.8-1.6 6.8-2.7.2-.5.3-1 .5-1.5h-2.4zM75.7 2.6C71 6 66.7 11.8 63 19.8c-8.6.7-16.6 1.7-23.8 3.1C49.2 12.3 61.8 5 75.7 2.6zM36.3 26.3c7.5-1.7 16.1-2.9 25.5-3.7-.3.8-.7 1.6-1 2.5-3 7.7-5.4 16.6-7 26.3-9.5.4-18.3.9-25.8 1.6-2.5.2-4.8.5-7 .7 3.6-10.3 8.8-19.7 15.3-27.4zM20.1 56.4c2.8-.3 6-.7 9.9-1 6.9-.6 14.8-1.1 23.3-1.4-1.5 9.6-2.3 19.9-2.3 30.5H15.6c.2-9.8 1.8-19.3 4.5-28.1zm-4.5 30.7H51c.1 10.5.8 20.7 2.3 30.3-8.5-.3-16.3-.8-23.2-1.4-4-.4-7.3-.7-10.1-1.1-2.8-8.6-4.3-18-4.4-27.8zm5.2 30.6c2.2.3 4.6.5 7.2.7 7.5.7 16.2 1.2 25.7 1.6 1.7 9.9 4.1 19 7.1 26.9.1.3.3.6.4.9-9.7-.8-18.7-2.2-26.3-3.9-6-7.5-10.8-16.4-14.1-26.2zm16.8 29.5c7.4 1.5 15.7 2.7 24.7 3.4 3.9 8.8 8.4 15.2 13.4 18.8-14.6-2.5-27.8-10.5-38.1-22.2zm46.6 22.9c-7-.7-13.6-7.5-19-19.3 6.1.4 12.5.6 19 .7v18.6zm0-21.2c-6.9 0-13.7-.3-20.2-.8-.3-.7-.6-1.4-.9-2.2-3-7.6-5.3-16.3-6.9-25.8 8.8.3 18.3.5 28 .5v28.3zm0-30.9c-9.8 0-19.4-.2-28.4-.5-1.5-9.5-2.3-19.8-2.3-30.4h30.7V118zm0-33.5H53.5c.1-10.7.9-21 2.4-30.6 8.9-.3 18.5-.5 28.3-.5v31.1zm0-33.7c-9.7 0-19.1.2-27.9.5 1.7-9.3 4-17.9 6.9-25.3.5-1.3 1-2.5 1.5-3.7 6.3-.4 12.8-.7 19.5-.7v29.2zm0-31.8c-6.3 0-12.4.2-18.3.6 5.3-10.8 11.7-17 18.3-17.7V19zm71.2 65.5h-35.3c-.1-10.6-.9-20.9-2.4-30.5 8.4.3 16.1.8 22.9 1.4 4.1.4 7.5.7 10.4 1.1 2.7 8.7 4.3 18.2 4.4 28zm-5.3-30.7c-2.3-.3-4.7-.5-7.4-.8-7.4-.7-16-1.2-25.4-1.6-1.7-9.7-4-18.6-7-26.3-.3-.8-.7-1.7-1-2.5 9.3.8 18 2 25.5 3.7 6.5 7.8 11.7 17.1 15.3 27.5zM131.9 23c-7.2-1.4-15.2-2.5-23.8-3.1-3.7-8-8.1-13.9-12.7-17.2 13.8 2.3 26.4 9.6 36.5 20.3zM86.8 1.9c6.7.7 13 6.9 18.3 17.8-5.9-.4-12-.6-18.3-.6V1.9zm0 19.7c6.7 0 13.3.3 19.6.7.5 1.2 1 2.4 1.5 3.7 2.9 7.4 5.2 16 6.8 25.3-8.8-.3-18.2-.5-27.9-.5V21.6zm0 31.8c9.8 0 19.4.2 28.3.5 1.5 9.6 2.3 19.9 2.4 30.6H86.8V53.4zm0 33.7h30.7c0 10.6-.8 20.8-2.3 30.4-9 .3-18.6.5-28.4.5V87.1zm0 33.5c9.7 0 19.2-.2 28-.5-1.6 9.5-3.9 18.3-6.9 25.8l-.9 2.1c-6.5.5-13.3.7-20.2.8v-28.2zm0 30.9c6.5 0 12.9-.3 19-.7-5.4 11.8-12.1 18.6-19 19.3v-18.6zm8.5 17.9c5-3.6 9.6-10 13.4-18.8 9-.7 17.4-1.9 24.7-3.4-10.2 11.7-23.4 19.7-38.1 22.2zm40.9-25.5c-7.6 1.8-16.6 3.2-26.3 4 .1-.3.3-.6.4-.9 3.1-7.9 5.5-17 7.1-26.9 9.4-.4 18-.9 25.4-1.6 2.7-.2 5.2-.5 7.5-.8-3.3 9.8-8.1 18.6-14.1 26.2zm15-29c-2.9.4-6.3.7-10.5 1.1-6.8.6-14.5 1-22.9 1.4 1.5-9.5 2.2-19.8 2.3-30.3h35.3c-.1 9.8-1.6 19.1-4.2 27.8z"/></g><path opacity=".2" d="M95.4.5l10.5 10.4c11.6 11.4 11.7 46.2.4 57.9h-.1l3 2.5-14.3 17.5.6-.1-.3.1v.1h-.3l-6.3-.1c-.2 0-.5-.1-.8-.1l-10.6.3v.1L63 72.1l-.5-.5-20.7 17.2 23.1-19.4h-.1-.1C53.1 58 53.2 23.1 64.5 11.5L75.1.7C44.1 4.5 18.2 25 6.6 52.9c1.1 17.5 7.8 34.7 20.1 48.6l3.5-3 2.2 3L45 116.3l3.9-3.1c.2 6 3 11.5 7.9 14.8l-.9 1.6c-1.3 2.1-.7 4.9 1.4 6.2 2.1 1.3 4.9.7 6.2-1.4l.3-.5c0 .2.1.4.2.6l-.5.8c-1.3 2.1-.7 4.9 1.4 6.2 2.1 1.3 4.9.7 6.2-1.4l.1-.1.6.4-.6.9c-1.3 2.1-.7 4.9 1.4 6.2 2.1 1.3 4.9.7 6.2-1.4l.7-1.1.6.4-.3.5c-1.3 2.1-.7 4.9 1.4 6.2 2.1 1.3 4.9.7 6.2-1.4l.4-.6 1.1.7c2.3 1.3 5.2.6 6.5-1.6 1.3-2.2.6-5-1.5-6.4l.7-.5 4.5 2.9c2.4 1.5 5.5.7 6.9-1.6 1.5-2.4.7-5.5-1.6-6.9l-.8-.5c.2-.2.5-.4.7-.6l3.4 2.1c2.4 1.4 5.5.6 6.9-1.8 1.4-2.3.7-5.2-1.4-6.7l.7-.5c2.3 1.1 5.2.3 6.5-1.9.9-1.5.9-3.2.2-4.7.3-.5.5-1.1.7-1.6h-.1c0-1.3 1.2-2.8 1.5-4.3h.1s.6-1 .5-3.9l4 3.2L142 97.2l3.6 2.9c11.9-14.1 18.1-31.2 18.7-48.6-12-27.5-38-47.5-68.9-51z"/><path fill="#E9B980" d="M118.2 112.3c9.4-6.3 11.2-20 4.1-30.5S101.9 68 92.5 74.3l-12.4 8.4c-9.4 6.4-5.5 15.7 1.6 26.2s1.7 29 11 22.6l25.5-19.2z"/><path opacity=".15" d="M90.4 84.1s34.9 19.2 34.6 19.9c-.3.7-23.6 23.7-30.8 25.7-7.1 2.1-12-27.1-12-27.1l8.2-18.5z"/><path fill="#FDDBA4" d="M56.3 115.2c-9.9-5.5-13-18.9-6.9-30 6.1-11.1 19.1-15.7 29-10.2l3.1 2.8c9.9 5.5 20.7 12.7 7.1 35.7-6.5 10.9-9.3 14.4-19.2 8.9l-13.1-7.2z"/><path fill="#FDDBA4" d="M116.6 113c2.6 1.5 5.9.5 7.4-2.1s.5-6-2.1-7.4L89 84c-2.6-1.5-5.9-.5-7.4 2.1-1.4 2.6-.5 6 2.1 7.4l32.9 19.5zM110.7 123c2.6 1.5 5.9.5 7.4-2.1 1.4-2.6.5-6-2.1-7.4L87.4 96.7c-2.6-1.5-5.9-.5-7.4 2.2-1.4 2.6-.5 6 2.1 7.4l28.6 16.7zM101.7 131.5c2.6 1.5 5.9.6 7.4-2s.6-5.9-2-7.4l-28-16.8c-2.6-1.5-5.9-.6-7.4 2s-.6 6 2 7.4l28 16.8zM90.8 138c2.5 1.4 5.6.5 7-2 1.4-2.5.5-5.6-2-7l-25.4-14.2c-2.5-1.4-5.6-.5-7 2-1.4 2.5-.5 5.6 2 7L90.8 138z"/><path fill="#FDDBA4" d="M84.1 127.1l-11.7-6.6 17.8-31.4 11.7 6.6z"/><path fill="#FDDBA4" d="M90.9 133.8l-11.6-6.6 3.9-6.9 11.6 6.7zM89.7 78.2c.1 1.5-.9 2.8-2.1 2.9l-21 1c-1.2.1-2.3-1.1-2.3-2.7l-.2-3.8c-.1-1.5.9-2.8 2.1-2.9l21-1c1.2-.1 2.3 1.1 2.3 2.7l.2 3.8z"/><path fill="#E9B980" d="M71.1 127.2c-1.4 2.3-4.3 3.1-6.7 1.8-2.3-1.4-3.1-4.3-1.8-6.7l6.2-10.8c1.3-2.3 4.3-3.1 6.7-1.8 2.3 1.4 3.1 4.3 1.8 6.7l-6.2 10.8z"/><path opacity=".15" d="M85.4 73.2c-.6 0-1.1.1-1.6.2-2.2-.3-4.6.7-5.8 2.8l-5 8.9c-1.6 2.7-.7 6.2 2.1 7.8 2.7 1.6 6.2.7 7.8-2.1l3.1-5.5h.1l5.4-.3s-3.1-6.9-5.2-12l-.9.2z"/><path fill="#E9B980" d="M79.7 133.4c-1.4 2.3-4.3 3.1-6.7 1.8-2.3-1.4-3.1-4.3-1.8-6.7l6.2-10.8c1.4-2.3 4.3-3.1 6.7-1.8 2.3 1.4 3.1 4.3 1.8 6.7l-6.2 10.8zM89.2 138c-1.4 2.3-4.3 3.1-6.7 1.8-2.3-1.4-3.1-4.3-1.8-6.7l4.3-7.6c1.4-2.3 4.3-3.1 6.7-1.8 2.3 1.4 3.1 4.3 1.8 6.7l-4.3 7.6zM62.7 121.2c-1.4 2.3-4.3 3.1-6.7 1.8-2.3-1.4-3.1-4.3-1.8-6.7l4.3-7.6c1.3-2.3 4.3-3.1 6.7-1.8 2.3 1.4 3.1 4.3 1.8 6.7l-4.3 7.6zM82.7 89.7c-1.6 2.7-5.1 3.7-7.8 2.1s-3.7-5.1-2.1-7.8l5-8.9c1.6-2.7 5.1-3.7 7.8-2.1s3.7 5.1 2.1 7.8l-5 8.9z"/><path fill="#E9B980" d="M112.9 76.9c.2 3.4-3.4 6.3-8 6.5l-19 .9c-4.6.2-8.4-2.3-8.5-5.7-.2-3.4 3.4-6.3 8-6.5l19-.9c4.5-.2 8.3 2.4 8.5 5.7z"/><path opacity=".15" d="M98.2 70.2c-.6.7-2.4 1.7-2.4 1.7l-1-.3 31.5 27.6s1.5-2.7-1.1-11.8c-2.6-9-27-17.2-27-17.2z"/><path fill="#FFB6B6" d="M146 78.2l-14.9 20.1-36.2-27 14.9-20.1z"/><path opacity=".15" d="M72.6 71.4c.7.6 2.5.4 2.5.4l1 .7-28.9 30.4s-2-3.1 0-11.9c2.2-9.1 25.4-19.6 25.4-19.6z"/><path fill="#BDDDFF" d="M25.7 83.7l16.7 18.7L76 72.2 59.3 53.5z"/><path fill="#FDDBA4" d="M65 108c1.7 1.1 2.2 3.2 1.1 4.7-1 1.5-2.9 1-4.6-.1-1.7-1.1-2.4-2.3-1.4-3.8 1.1-1.5 3.2-1.9 4.9-.8zM75.1 110.7c1.7 1.1 2.2 3.2 1.1 4.7-1 1.5-2.9 1-4.6-.1-1.7-1.1-2.4-2.3-1.4-3.8 1.1-1.5 3.3-1.9 4.9-.8zM83.6 116.9c1.7 1.1 2.2 3.2 1.1 4.7-1 1.5-2.9 1-4.6-.1-1.7-1.1-2.4-2.3-1.4-3.8s3.2-1.9 4.9-.8zM91.7 125c1.7 1.1 2.2 3.2 1.1 4.7-1 1.5-2.9 1-4.6-.1-1.7-1.1-2.4-2.3-1.4-3.8s3.2-1.9 4.9-.8z"/><ellipse transform="rotate(-2.638 40.777 89.846) scale(.99996)" opacity=".15" cx="40.8" cy="89.9" rx="3.1" ry="3.1"/><ellipse transform="matrix(.9989 -.04594 .04594 .9989 -4.036 1.965)" fill="#2679B2" cx="40.7" cy="88.8" rx="3.1" ry="3.1"/><path opacity=".15" d="M130.4 92.4c-.4.5-1 .6-1.5.2l-3.9-2.9c-.5-.4-.6-1-.2-1.5l2.9-3.9c.4-.5 1-.6 1.5-.2l3.9 2.9c.5.4.6 1 .2 1.5l-2.9 3.9z"/><path fill="#FFDE76" d="M130.4 91.4c-.4.5-1 .6-1.5.2l-3.9-2.9c-.5-.4-.6-1-.2-1.5l2.9-3.9c.4-.5 1-.6 1.5-.2l3.9 2.9c.5.4.6 1 .2 1.5l-2.9 3.9z"/><path opacity=".15" d="M59.3 53.5L25.7 83.7l2.9 3.2 31.2-32.8zM109.8 51.2l-1 1.4 34.4 29.5 2.8-3.9z"/><path fill="#1D89AA" d="M106.9 49l43.2 32.2c6.9-8.7 11.8-18.3 14.8-28.4C154 26.7 130.7 7.2 102.3 1.6l2.5 2.3c13 11.9 14 32 2.1 45.1 0-.1 0-.1 0 0z"/><path fill="#289CC9" d="M101.7 1.5l2.6 2.4c12.9 11.8 13.8 32 2 44.9h-.1L139.9 74c8.9-11.2 14.2-24.4 15.8-37.8-12.6-17.8-31.8-30.5-54-34.7z"/><path fill="#35C3EF" d="M104.2 3.9c12.9 11.8 13.8 32 2 44.9l12.9 9.6c11.3-13.7 14-31.9 8.3-47.7-7.9-4.4-16.6-7.6-25.8-9.3l2.6 2.5z"/><path fill="#FFF2A2" d="M61.9 3.4C34.5 11.3 12.8 32.6 4.1 59.7c4 9.9 9.9 19.3 17.6 27.4l40-36.1s-.1 0-.1-.1C48.7 39.1 47.7 19 59.6 6l2.3-2.6z"/><path fill="#FFD645" d="M61.9 3.4C40.4 9.6 22.4 24.1 11.4 43.1c2.9 13.2 9.3 25.7 19.1 36L61.7 51c-13-11.9-14-32-2.1-45l2.3-2.6z"/><path fill="#D6B13C" d="M61.9 3.4C52.9 6 44.5 10 37 15.3c-4.1 16.2.3 34 12.7 46.5l12-10.8c-13-11.9-14-32-2.1-45l2.3-2.6z"/><ellipse fill="none" cx="85.8" cy="86" rx="85.8" ry="86"/></svg>