<svg id="Слой_1" xmlns="http://www.w3.org/2000/svg" viewBox="0 0 51 51"><style>.st0{fill:#4e79b8}</style><path id="XMLID_58_" class="st0" d="M39 26.2c0 4.3-3.5 7.9-7.9 7.9H20.8c-4.3 0-7.9-3.5-7.9-7.9V12.8c0-4.3 3.5-7.9 7.9-7.9h10.3c4.3 0 7.9 3.5 7.9 7.9v13.4z"/><path id="XMLID_57_" class="st0" d="M31 0h8v39.1h-8z"/><path id="XMLID_56_" class="st0" d="M51 12c0 1.7-1.3 3-3 3H19c-1.7 0-3-1.3-3-3s1.3-3 3-3h29c1.7 0 3 1.3 3 3z"/><path id="XMLID_55_" class="st0" d="M51 27.1c0 1.7-1.3 3-3 3H23c-1.7 0-3-1.3-3-3s1.3-3 3-3h25c1.7-.1 3 1.2 3 3z"/><path id="XMLID_54_" class="st0" d="M29 46.1H13.3c-4.5 0-8.3-3.7-8.3-8.3v-9.5c0-4.5 3.7-6.3 8.3-6.3H29v-6H12C5.4 16 0 21.4 0 28v11c0 6.6 5.4 12 12 12h17v-4.9z"/><path id="XMLID_53_" class="st0" d="M10 15h5v9h-5z"/></svg>