<svg id="Слой_1" xmlns="http://www.w3.org/2000/svg" viewBox="0 0 61 55"><style>.st0{fill:#4e79b8}.st1{fill:#FFF}.st2{opacity:.2;enable-background:new}</style><path class="st0" d="M13.3 28.4C6 28.4 0 34.3 0 41.7 0 49 5.9 55 13.3 55c7.3 0 13.3-5.9 13.3-13.3-.1-7.4-6-13.3-13.3-13.3zm.8 20.2v3h-2v-2.9c-1 0-2.5-.4-3.3-1l.6-1.5c.8.5 2 .9 3.2.9 1.6 0 2.6-.9 2.6-2.2 0-1.2-.9-2-2.5-2.6-2.3-.9-3.8-1.9-3.8-3.8 0-1.8 1.2-3.2 3.2-3.6v-2.5h2v2.4c1 0 2.1.4 2.7.8l-.6 1.4c-.5-.3-1.4-.7-2.8-.7-1.7 0-2.4 1-2.4 1.9 0 1.1.8 1.7 2.7 2.5 2.3.9 3.6 2.1 3.6 4s-1.2 3.6-3.2 3.9z"/><path id="XMLID_84_" class="st0" d="M61 14.2c0-1.1-.9-2-2-2H14.3c-1.1 0-2 .9-2 2v12.9c.4 0 .8-.1 1.2-.1 8 0 14.5 6.5 14.5 14.5 0 2-.4 4-1.2 5.7H59c1.1 0 2-.9 2-2v-31z"/><path id="XMLID_83_" class="st1" d="M36.3 20.4c0 .8-.6 1.4-1.4 1.4H20.7c-.8 0-1.4-.6-1.4-1.4 0-.8.6-1.4 1.4-1.4h14.2c.7 0 1.4.6 1.4 1.4z"/><path id="XMLID_82_" class="st2" d="M33.4 12.2l3.2.1-2.1 5.9z"/><path id="XMLID_81_" class="st0" d="M20.7 1.5h13.9v18.9H20.7z"/><path id="XMLID_80_" class="st0" d="M20.7 1.6L21.8 0 23 1.6z"/><path id="XMLID_79_" class="st0" d="M23 1.6L24.2 0l1.1 1.6z"/><path id="XMLID_78_" class="st0" d="M25.3 1.6L26.5 0l1.1 1.6z"/><path id="XMLID_77_" class="st0" d="M27.6 1.6L28.8 0l1.1 1.6z"/><path id="XMLID_76_" class="st0" d="M29.9 1.6L31.1 0l1.1 1.6z"/><path id="XMLID_75_" class="st0" d="M32.2 1.6L33.4 0l1.1 1.6z"/><g><path id="XMLID_74_" class="st1" d="M57.1 31.1c0 .4-.4.8-.8.8h-2.9c-.4 0-.8-.4-.8-.8v-2.9c0-.4.4-.8.8-.8h2.9c.4 0 .8.4.8.8v2.9z"/><path id="XMLID_73_" class="st1" d="M49.9 31.1c0 .4-.4.8-.8.8h-2.9c-.4 0-.8-.4-.8-.8v-2.9c0-.4.4-.8.8-.8h2.9c.4 0 .8.4.8.8v2.9z"/><path id="XMLID_72_" class="st1" d="M42.7 31.1c0 .4-.4.8-.8.8H39c-.4 0-.8-.4-.8-.8v-2.9c0-.4.4-.8.8-.8h2.9c.4 0 .8.4.8.8v2.9z"/><path id="XMLID_58_" class="st1" d="M57.1 37.2c0 .4-.4.8-.8.8h-2.9c-.4 0-.8-.4-.8-.8v-2.9c0-.4.4-.8.8-.8h2.9c.4 0 .8.4.8.8v2.9z"/><path id="XMLID_57_" class="st1" d="M49.9 37.2c0 .4-.4.8-.8.8h-2.9c-.4 0-.8-.4-.8-.8v-2.9c0-.4.4-.8.8-.8h2.9c.4 0 .8.4.8.8v2.9z"/><path id="XMLID_56_" class="st1" d="M42.7 37.2c0 .4-.4.8-.8.8H39c-.4 0-.8-.4-.8-.8v-2.9c0-.4.4-.8.8-.8h2.9c.4 0 .8.4.8.8v2.9z"/><path id="XMLID_55_" class="st1" d="M57.1 43.5c0 .4-.4.8-.8.8h-2.9c-.4 0-.8-.4-.8-.8v-2.9c0-.4.4-.8.8-.8h2.9c.4 0 .8.4.8.8v2.9z"/><path id="XMLID_54_" class="st1" d="M49.9 43.5c0 .4-.4.8-.8.8h-2.9c-.4 0-.8-.4-.8-.8v-2.9c0-.4.4-.8.8-.8h2.9c.4 0 .8.4.8.8v2.9z"/><path id="XMLID_53_" class="st1" d="M42.7 43.5c0 .4-.4.8-.8.8H39c-.4 0-.8-.4-.8-.8v-2.9c0-.4.4-.8.8-.8h2.9c.4 0 .8.4.8.8v2.9z"/></g></svg>