<svg id="Слой_1" xmlns="http://www.w3.org/2000/svg" viewBox="0 0 46 48"><style>.st0{fill:#4e79b8}</style><path class="st0" d="M25.5 10.2c-3.2 8.4-9.7 15.2-18 18.9 8.2 3.7 14.7 10.5 18 18.9 3.2-8.4 9.7-15.2 18-18.9-8.3-3.7-14.8-10.5-18-18.9zm0 28.4c-1.6-4.2-4.9-7.7-9.1-9.5 4.2-1.9 7.4-5.3 9.1-9.5 1.6 4.2 4.9 7.7 9 9.5-4.1 1.8-7.4 5.3-9 9.5zm14-33.7c-1.2 3-3.5 5.5-6.5 6.8 3 1.3 5.3 3.8 6.5 6.8 1.2-3 3.5-5.5 6.5-6.8-3-1.3-5.3-3.8-6.5-6.8zm0 10.3c-.6-1.5-1.8-2.8-3.3-3.4 1.5-.7 2.7-1.9 3.3-3.4.6 1.5 1.8 2.8 3.3 3.4-1.5.6-2.7 1.9-3.3 3.4zM9.6 0C7.9 4.5 4.4 8.1 0 10.1c4.4 2 7.9 5.6 9.6 10.1 1.7-4.5 5.2-8.1 9.6-10.1-4.4-2-7.9-5.6-9.6-10.1zm0 15.2c-.9-2.3-2.6-4.1-4.8-5.1 2.2-1 4-2.8 4.8-5.1.9 2.3 2.6 4.1 4.8 5.1-2.2 1-3.9 2.8-4.8 5.1z"/></svg>