<svg id="Слой_1" xmlns="http://www.w3.org/2000/svg" viewBox="0 0 82 51"><style>.st0{fill:#4e79b8}</style><g id="XMLID_54_"><path id="XMLID_57_" class="st0" d="M49.3 48.6s-3-8.5-3.7-10c-.7-1.5-1.6-2.2-2.6-2.6-.1 0-.1-.1-.2-.1s-.2-.1-.3-.1c-1.9-.9-8-3.6-10.5-4.7-.4-.2-.7-.3-.9-.4V28c1.6-1.8 2.8-4.3 3.4-7.2h.1c.8.1 1.4-.5 1.5-1.3l.3-3.8c0-.6-.3-1.1-.8-1.3v-5C35.6 4.3 30.8.1 25 .1S14.4 4.3 14.4 9.4v5c-.5.2-.8.8-.8 1.3l.3 3.8c.1.8.7 1.3 1.5 1.3h.1c.5 2.5 1.5 4.8 2.8 6.5V30.6c-.2.1-.5.2-.9.4-2.7 1.2-9.5 4.2-10.8 4.8-.1 0-.1.1-.2.1-1.1.5-1.9 1.1-2.6 2.6-.7 1.5-3.7 10-3.7 10s-.9 2.4 1 2.4h47.3c1.9.1.9-2.3.9-2.3z"/><path id="XMLID_56_" class="st0" d="M81.9 49.5s-1.9-5.3-2.3-6.3c-.5-1-1-1.4-1.7-1.7 0 0-.1 0-.1-.1 0 0-.1 0-.2-.1-1.2-.5-5-2.2-6.5-2.9-.3-.1-.5-.2-.6-.3v-1.7c1-1.1 1.8-2.7 2.1-4.5h.1c.5 0 .9-.3.9-.8l.2-2.4c0-.4-.2-.7-.5-.8v-3.2c0-3.2-3-5.8-6.6-5.8-3.7 0-6.6 2.6-6.6 5.8v3.2c-.3.1-.5.5-.5.8l.2 2.4c0 .5.4.8.9.8h.1c.3 1.6.9 3 1.8 4.1v1.3c.3.1.6.3.8.3.1 0 .2.1.2.1.1 0 .1.1.2.1.9.4 1.7 1 2.3 2.3.6 1.3 3.2 8.7 3.2 8.7s.8 2.1-.9 2.1h13c1 .1.5-1.4.5-1.4z"/><path id="XMLID_55_" class="st0" d="M67.5 49s-2.4-6.8-3-8.1c-.6-1.2-1.3-1.7-2.1-2.1 0 0-.1 0-.2-.1-.1 0-.1-.1-.2-.1-1.5-.7-6.4-2.9-8.4-3.7-.3-.2-.6-.3-.7-.3v-2.1c1.3-1.5 2.3-3.5 2.7-5.8h.1c.6 0 1.1-.4 1.2-1l.2-3.1c0-.5-.2-.9-.6-1.1v-4.1c0-4.1-3.9-7.5-8.5-7.5-4.8 0-8.5 3.4-8.5 7.5v4.1c-.4.2-.7.6-.6 1.1l.2 3.1c0 .6.6 1.1 1.2 1h.1c.4 2 1.2 3.8 2.3 5.2v2.4c.4.2.8.3 1.1.5.1 0 .2.1.3.1.1 0 .2.1.2.1 1.1.5 2 1.2 2.8 2.8.8 1.6 3.9 10.6 3.9 10.6s1 2.6-1 2.6h16.9c1.3 0 .6-2 .6-2z"/></g></svg>