<svg xmlns="http://www.w3.org/2000/svg" width="165.416" height="95.358" viewBox="-94.869 26.398 165.416 95.358"><path fill="#D1AD82" d="M54.142 66.322l-79.37-38.754a6.02 6.02 0 0 0-.42-.178 4.696 4.696 0 0 0-4.41-.736l-34.25 11.776a4.706 4.706 0 0 0-2.92 5.978l11.78 34.25a4.65 4.65 0 0 0 1.242 1.886 5.857 5.857 0 0 0 2.202 1.862l79.372 38.753a5.868 5.868 0 0 0 7.847-2.7L56.84 74.17a5.868 5.868 0 0 0-2.698-7.848zm-106.36-9.672a7.5 7.5 0 0 1-3.45-10.033 7.503 7.503 0 1 1 3.45 10.033z"/><g opacity=".5"><path d="M-10.244 60.852l.233-2.2-4.73-2.31-1.607 1.53-2.68-1.308 9.652-8.947 2.944 1.438-1.135 13.105-2.68-1.308zm1.196-10.167l-4.037 3.906 3.44 1.68.597-5.585zM.008 65.857l-1.185-6.046-1.36.607-1.655 3.39-2.348-1.147 5.385-11.03 2.348 1.147-2.406 4.928 6.31-3.022 2.893 1.412-6.908 3.037 1.82 8.138L.01 65.857zM12.543 71.978l-8.565-4.183 5.385-11.03 2.347 1.147-4.376 8.962 5.21 2.543 4.376-8.962 2.364 1.154-4.376 8.962.993.485-2 4.1-2.35-1.145.993-2.034zM16.265 73.794l5.385-11.03 2.348 1.146-3.48 7.127 8.59-4.632 2.413 1.18-5.384 11.028-2.347-1.146 3.608-7.392-8.87 4.825-2.263-1.106zM27.84 79.446l4.53-2.99c-1.052-.862-1.767-2.5-.814-4.452 1-2.05 3.14-2.87 5.44-1.746l5.16 2.52-5.386 11.03-2.35-1.147 1.915-3.918-1.703-.832-4.096 2.854-2.696-1.318zm9.503-2.772l1.454-2.977-2.464-1.203c-.942-.46-1.928-.245-2.38.68-.453.927-.016 1.836.926 2.297l2.463 1.204z"/></g><g opacity=".5"><path d="M-30.034 79.794l3.716-1.763c.643 2.013 2.082 3.655 4.124 4.652 2.306 1.125 4.26.453 5.03-1.122.84-1.722.125-3.516-2.09-4.6-1.606-.782-3.147-.957-4.855-.418l-2.52-2.17 5.458-11.175 13.364 6.525-1.78 3.647-9.22-4.503-2.323 4.756c1.39-.478 3.307-.41 5.086.46 3.297 1.61 5.09 5.41 3.167 9.35-2.023 4.145-6.384 5.23-11.08 2.938-3.387-1.65-5.296-3.955-6.077-6.576zM-9.238 81.095c2.45-5.02 7.38-8.827 12.953-6.106C9.26 77.695 9.32 83.94 6.87 88.96S-.557 97.8-6.1 95.092c-5.573-2.72-5.588-8.98-3.138-13.998zm11.875 5.798c1.752-3.59 2.055-6.874-.717-8.228-2.8-1.367-5.204.892-6.957 4.48-1.752 3.59-2.07 6.903.73 8.27 2.773 1.355 5.192-.934 6.944-4.522zM6.91 101.012l21.933-13.394L31.06 88.7 9.1 102.08l-2.187-1.068zm4.217-16.333c1.34-2.744 4.35-3.95 7.325-2.496 3.005 1.467 3.906 4.58 2.566 7.324-1.325 2.713-4.292 3.83-7.296 2.363-2.976-1.452-3.92-4.478-2.595-7.19zm7.236 3.532c.798-1.634.305-3.068-1.037-3.723-1.313-.643-2.776-.164-3.574 1.47-.74 1.518-.233 2.994 1.08 3.636 1.343.654 2.79.133 3.53-1.384zm-1.6 12.082c1.34-2.743 4.35-3.947 7.325-2.494s3.906 4.582 2.566 7.324c-1.325 2.714-4.334 3.846-7.31 2.393-2.976-1.454-3.906-4.51-2.58-7.223zm7.267 3.548c.784-1.604.275-3.08-1.067-3.736-1.342-.656-2.79-.134-3.573 1.47-.77 1.577-.276 3.01 1.065 3.665 1.342.656 2.806.177 3.575-1.398z"/></g><g opacity=".2"><path d="M-20.822 29.57l1.534.748-1.124 2.303-1.534-.748zM-42.743 78.354l-1.535-.75 2.233-4.573 1.535.75-2.233 4.574zm4.466-9.146l-1.535-.75 2.233-4.573 1.535.75-2.232 4.573zm4.465-9.147l-1.534-.748 2.233-4.574 1.535.75-2.234 4.573zm4.467-9.146l-1.535-.75 2.233-4.574 1.534.75-2.232 4.574zm4.466-9.147l-1.534-.75 2.233-4.572 1.533.75-2.232 4.572zM-46.51 82.175l1.536.75-1.124 2.302-1.535-.75z"/></g><path opacity=".1" fill="#464646" d="M54.142 66.322S-12.983 77.137-50.056 83.357l77.423 37.803a5.868 5.868 0 0 0 7.847-2.698L56.84 74.17a5.868 5.868 0 0 0-2.698-7.848z"/><g><path fill="#FCD22E" d="M52.417 51.94a27.062 27.062 0 0 1-14.115 15.02 27.053 27.053 0 0 1 14.115 15.02A27.062 27.062 0 0 1 66.54 66.96a27.068 27.068 0 0 1-14.123-15.02z"/><path fill="#FD7600" d="M52.417 59.396A13.627 13.627 0 0 1 45.3 66.96a13.58 13.58 0 0 1 7.117 7.564 13.61 13.61 0 0 1 7.11-7.564 13.652 13.652 0 0 1-7.11-7.564z"/><path fill="#FCD22E" d="M63.648 41.29a13.237 13.237 0 0 1-6.9 7.343 13.218 13.218 0 0 1 6.9 7.34 13.203 13.203 0 0 1 6.9-7.34 13.228 13.228 0 0 1-6.9-7.344z"/><path fill="#FD7600" d="M63.648 44.93a6.683 6.683 0 0 1-3.48 3.703 6.632 6.632 0 0 1 3.48 3.696 6.612 6.612 0 0 1 3.474-3.697 6.66 6.66 0 0 1-3.474-3.703z"/><g><path fill="#FCD22E" d="M39.652 37.026a19.094 19.094 0 0 1-9.96 10.595 19.1 19.1 0 0 1 9.96 10.6 19.098 19.098 0 0 1 9.962-10.6 19.086 19.086 0 0 1-9.962-10.594z"/><path fill="#FD7600" d="M39.652 42.288a9.625 9.625 0 0 1-5.022 5.333 9.586 9.586 0 0 1 5.022 5.337 9.585 9.585 0 0 1 5.016-5.336 9.624 9.624 0 0 1-5.016-5.332z"/></g></g><g fill="#6B6B6B"><path d="M-60.523 37.13c-3.258-1.15-6.95-1.803-10.863-1.803-11.917 0-21.81 6.022-23.482 13.84h1.89C-91.26 42.37-82.234 37.17-71.385 37.17c2.79 0 5.454.347 7.91.973l2.953-1.016zM-51.33 42.875c-.534.19-1.162.452-1.746.793 2.26 2.256 3.58 4.952 3.58 7.846 0 7.72-9.355 14.03-21.023 14.33v1.844c12.688-.313 22.87-7.446 22.87-16.174 0-3.174-1.353-6.137-3.68-8.64z"/></g></svg>