<svg baseProfile="basic" xmlns="http://www.w3.org/2000/svg" width="26" height="25" viewBox="0 0 26 25"><path fill="#53B246" d="M24.5 19.2c1-1.8 1.5-3.9 1.5-6.1 0-7.2-5.8-13-12.9-13S.2 5.8.2 13c0 2.2.5 4.3 1.5 6.1h22.8z"/><path fill="#FFF" d="M21.5 19.2c1.2-1.7 2-3.8 2-6.1 0-5.8-4.6-10.4-10.3-10.4S2.7 7.3 2.7 13c0 2.3.7 4.4 2 6.1h16.8z"/><path fill="#FF3939" d="M21.5 19.2c1.2-1.7 2-3.8 2-6.1 0-3.6-1.8-6.8-4.6-8.7L8.2 19.2h13.3z"/><path fill="#231F20" d="M13 10.9l8.4-3.8-7 6.4z"/><ellipse fill="#231F20" cx="13.1" cy="13" rx="2.8" ry="2.8"/><path fill="#53B246" d="M0 13v8.7C0 23.5 1.5 25 3.3 25h19.5c1.8 0 3.3-1.5 3.3-3.3V13H0z"/><path opacity=".13" d="M26 13c0-4.4-2.2-8.3-5.6-10.7L4 25h18.8c1.8 0 3.3-1.5 3.3-3.3L26 13z"/><g fill="#FFF"><path d="M10 20.9l.6-.9c.5.5 1.2.9 2.1.9.9 0 1.3-.5 1.3-.9 0-.6-.7-.8-1.5-1-1.1-.3-2.3-.6-2.3-2 0-1.1 1-2 2.4-2 1 0 1.9.3 2.5.9l-.7.9c-.5-.5-1.2-.8-1.9-.8s-1.1.3-1.1.8.7.7 1.5.9c1.1.3 2.4.6 2.4 2.1 0 1.1-.8 2.1-2.5 2.1-1.3.1-2.2-.3-2.8-1zM16.5 22v-7h2.4c2.1 0 3.4 1.4 3.4 3.5S21 22 18.9 22h-2.4zm4.7-3.5c0-1.4-.8-2.4-2.3-2.4h-1.3v4.8h1.3c1.5 0 2.3-1.1 2.3-2.4zM4 20.9l.6-.9c.5.5 1.2.9 2.1.9 1 0 1.3-.4 1.3-.9 0-.6-.7-.8-1.5-1-1.1-.3-2.3-.6-2.3-2 0-1.1 1-2 2.4-2 1 0 1.9.3 2.5.9l-.7.9c-.5-.5-1.2-.8-1.9-.8s-1.1.3-1.1.8.7.7 1.5.9c1.1.3 2.4.6 2.4 2.1C9.2 21 8.4 22 6.7 22c-1.2 0-2.1-.4-2.7-1.1z"/></g></svg>