<svg xmlns="http://www.w3.org/2000/svg" width="19.021" height="23.676" viewBox="0 0 19.021 23.676"><path fill="#D70751" d="M16.812 10.132c.023.64-.187.95-.376 1.5l-.34.17c-.28.542.026.344-.174.775-.437.388-1.324 1.214-1.608 1.29-.208-.005.14-.246.186-.34-.584.4-.47.603-1.362.846l-.026-.058c-2.203 1.036-5.263-1.018-5.222-3.82-.024.18-.067.134-.116.206-.115-1.44.664-2.888 1.98-3.48 1.285-.636 2.792-.375 3.713.483-.506-.662-1.513-1.365-2.707-1.3-1.168.02-2.26.762-2.627 1.57-.6.376-.668 1.452-.93 1.65-.35 2.58.66 3.694 2.373 5.006.27.18.076.208.112.347a4.672 4.672 0 0 1-1.518-1.16c.227.333.473.655.79.91-.537-.183-1.253-1.3-1.462-1.345.924 1.654 3.75 2.9 5.23 2.282-.686.025-1.555.015-2.325-.27-.323-.166-.762-.51-.684-.575 2.018.753 4.103.57 5.85-.83.445-.347.93-.936 1.07-.943-.21.318.037.153-.125.434.442-.714-.192-.29.458-1.233l.24.33c-.09-.592.736-1.31.652-2.25.19-.286.212.31.01.97.28-.732.074-.85.146-1.454.08.203.18.42.232.633-.182-.707.187-1.19.277-1.602-.09-.04-.28.312-.324-.523.006-.36.1-.188.137-.277-.072-.042-.258-.32-.372-.853.083-.126.22.324.334.343-.072-.424-.196-.747-.202-1.072-.328-.684-.116.092-.382-.293-.348-1.088.29-.253.333-.747.53.766.83 1.952.97 2.444a9.87 9.87 0 0 0-.486-1.742c.16.067-.258-1.233.21-.37-.5-1.84-2.137-3.554-3.643-4.36.184.17.417.382.333.414-.75-.445-.617-.48-.725-.668-.61-.25-.65.02-1.054 0-1.15-.61-1.372-.545-2.43-.927l.048.226c-.762-.254-.888.097-1.71 0-.05-.038.262-.14.52-.18-.735.097-.7-.145-1.42.026C8.84.188 9.03.105 9.218 0c-.6.035-1.435.35-1.178.063-.98.438-2.72 1.052-3.696 1.967l-.03-.204c-.448.536-1.952 1.604-2.072 2.3l-.12.027c-.232.395-.383.84-.567 1.246-.305.52-.447.2-.403.28C.554 6.897.257 7.917 0 8.754c.183.273.004 1.647.074 2.748-.3 5.432 3.812 10.707 8.308 11.924.66.236 1.64.227 2.472.25-.983-.28-1.11-.148-2.068-.482-.69-.325-.842-.697-1.332-1.122l.193.343c-.96-.34-.56-.42-1.34-.668l.208-.27c-.31-.024-.824-.524-.964-.802l-.34.013c-.408-.504-.626-.868-.61-1.15l-.11.196c-.125-.214-1.504-1.893-.79-1.502-.132-.12-.31-.197-.5-.547l.146-.165c-.346-.444-.635-1.012-.614-1.202.185.248.312.295.438.337-.87-2.16-.92-.12-1.577-2.197l.14-.012c-.108-.16-.173-.335-.26-.507l.062-.604c-.626-.724-.175-3.08-.085-4.37.063-.526.523-1.085.873-1.96l-.213-.04c.407-.71 2.327-2.854 3.216-2.744.432-.542-.084-.003-.17-.14.947-.978 1.245-.69 1.884-.867.688-.408-.59.16-.265-.156 1.19-.304.844-.69 2.397-.846.164.094-.38.146-.517.267.992-.486 3.14-.376 4.533.27 1.62.755 3.437 2.99 3.508 5.094l.082.023c-.04.835.128 1.803-.166 2.69l.2-.42"/></svg>