<svg xmlns="http://www.w3.org/2000/svg" width="23.964" height="23.964" viewBox="0 0 23.964 23.964"><path fill="#DD4814" d="M23.964 11.982c0 6.616-5.364 11.98-11.982 11.98S0 18.6 0 11.983 5.364 0 11.982 0s11.982 5.365 11.982 11.982z"/><path fill="#FFF" d="M3.834 10.382a1.6 1.6 0 1 0 0 3.2 1.6 1.6 0 0 0 0-3.2zm11.42 7.27a1.6 1.6 0 0 0 1.6 2.77c.767-.44 1.028-1.42.586-2.184s-1.42-1.027-2.185-.586zm-7.945-5.67c0-1.582.784-2.98 1.986-3.824l-1.17-1.96a6.967 6.967 0 0 0-2.874 4.042c.506.41.83 1.04.83 1.742s-.324 1.33-.83 1.74a6.96 6.96 0 0 0 2.874 4.04l1.17-1.958a4.665 4.665 0 0 1-1.987-3.822zM11.98 7.31a4.673 4.673 0 0 1 4.654 4.258l2.28-.033a6.926 6.926 0 0 0-2.065-4.508 2.244 2.244 0 0 1-3.01-1.74 6.97 6.97 0 0 0-4.936.466l1.11 1.99a4.635 4.635 0 0 1 1.968-.434zm0 9.345c-.703 0-1.37-.157-1.97-.436l-1.11 1.99a6.91 6.91 0 0 0 4.936.468 2.243 2.243 0 0 1 3.012-1.74 6.93 6.93 0 0 0 2.064-4.51l-2.28-.032a4.67 4.67 0 0 1-4.652 4.26zm3.273-10.343a1.6 1.6 0 1 0 0 0z"/></svg>