<svg xmlns="http://www.w3.org/2000/svg" width="42" height="24" viewBox="0 0 42 24"><path fill="#06B57E" d="M38 0H17.167v24H38a4 4 0 0 0 4-4V4a4 4 0 0 0-4-4z"/><path fill="#FFDA50" d="M18 0H4a4 4 0 0 0-4 4v16a4 4 0 0 0 4 4h14V0z"/><path fill="#06B57E" d="M14.042 10.616h-.48V7.454C13.565 5 11.553 3 9.088 3 6.62 3 4.61 5 4.61 7.454v3.162h-.477c-.53 0-.96.426-.96.955v8.432c0 .524.43.953.96.953h9.91c.53 0 .958-.43.958-.953v-8.43a.956.956 0 0 0-.958-.956zm-4.125 5.36v2.667a.793.793 0 0 1-1.588 0v-2.668a1.585 1.585 0 0 1 .795-2.956c.874 0 1.588.708 1.588 1.587 0 .585-.323 1.09-.796 1.368zm1.727-5.36H6.53V7.454A2.553 2.553 0 0 1 9.086 4.91c1.41 0 2.557 1.14 2.557 2.544v3.162z"/><g fill="#FFF"><path d="M20.456 19.873l.588-.756a3.38 3.38 0 0 0 2.52 1.14c1.426 0 1.882-.768 1.882-1.38 0-2.062-4.737-.923-4.737-3.777 0-1.32 1.174-2.22 2.746-2.22 1.223 0 2.17.408 2.842 1.116l-.6.73c-.6-.66-1.44-.96-2.314-.96-.96 0-1.643.517-1.643 1.272 0 1.8 4.738.768 4.738 3.754 0 1.164-.792 2.35-2.95 2.35-1.393.002-2.413-.526-3.072-1.27zM27.488 19.873l.588-.756a3.38 3.38 0 0 0 2.52 1.14c1.426 0 1.882-.768 1.882-1.38 0-2.062-4.737-.923-4.737-3.777 0-1.32 1.176-2.22 2.748-2.22 1.223 0 2.17.408 2.842 1.116l-.6.73c-.6-.66-1.44-.96-2.314-.96-.96 0-1.643.517-1.643 1.272 0 1.8 4.737.768 4.737 3.754 0 1.164-.792 2.35-2.95 2.35-1.393.002-2.413-.526-3.072-1.27zM35 21v-8h.996v7.112h3.718V21H35z"/></g><g fill="#FFF"><path d="M20.15 11V6h-.958v-.793h.96v-.443c0-1.188.646-1.883 1.678-1.883.456 0 .863.108 1.223.444l-.372.588a1.058 1.058 0 0 0-.72-.288c-.587 0-.91.408-.91 1.14v.443h1.174V6H21.05v5h-.9zM23.295 11V5.207h.9v.936c.467-.61 1.14-1.056 1.93-1.056v.924a1.586 1.586 0 0 0-.36-.035c-.552 0-1.307.456-1.57.924V11h-.9zM26.92 8.098c0-1.68 1.2-3.034 2.853-3.034 1.75 0 2.783 1.367 2.783 3.106v.228h-4.69c.073 1.092.84 2.003 2.088 2.003.66 0 1.33-.263 1.787-.73l.433.588c-.576.575-1.355.887-2.303.887-1.716 0-2.95-1.237-2.95-3.047zm2.842-2.29c-1.235 0-1.847 1.043-1.895 1.93h3.802c-.013-.864-.59-1.93-1.908-1.93zM33.675 8.098c0-1.68 1.2-3.034 2.854-3.034 1.75 0 2.782 1.367 2.782 3.106v.228h-4.69c.073 1.092.84 2.003 2.088 2.003.66 0 1.33-.263 1.787-.73l.432.588c-.577.575-1.356.887-2.304.887-1.716 0-2.95-1.237-2.95-3.047zm2.843-2.29c-1.235 0-1.847 1.043-1.895 1.93h3.802c-.012-.864-.588-1.93-1.907-1.93z"/></g><path opacity=".06" d="M38.903.11L3 24h35a4 4 0 0 0 4-4V4A3.996 3.996 0 0 0 38.903.11z"/></svg>