<svg baseProfile="basic" xmlns="http://www.w3.org/2000/svg" width="35" height="25" viewBox="0 0 35 25"><path fill="#38BDD4" d="M28.2 25H9c-3.4 0-6-2.6-6-6s2.6-6 6-6h19.2c3.4 0 6 2.6 6 6s-2.6 6-6 6z"/><g fill="#FFF"><path d="M17 22v-2.5h-2.7V22H13v-6h1.2v2.4H17V16h1.2v6H17zM19 22v-6h2.3c1.8 0 3.1 1.2 3.1 3s-1.3 3-3.1 3H19zm4.1-3c0-1.1-.6-1.9-1.8-1.9h-1.1v3.8h1.1c1.1 0 1.8-.9 1.8-1.9zM25 22v-6h2.3c1.8 0 3.1 1.2 3.1 3s-1.3 3-3.1 3H25zm4.1-3c0-1.1-.6-1.9-1.8-1.9h-1.1v3.8h1.1c1.1 0 1.8-.9 1.8-1.9z"/></g><path fill="#53B246" d="M28.2 12H9c-3.4 0-6-2.6-6-6s2.6-6 6-6h19.2c3.4 0 6 2.6 6 6s-2.6 6-6 6z"/><path fill="#FFF" d="M25 8.9V3.1h2.2c1.8 0 3 1.2 3 2.9s-1.2 2.9-3 2.9H25zM29 6c0-1-.6-1.8-1.8-1.8h-1v3.6h1C28.3 7.8 29 7 29 6z"/><path opacity=".1" d="M28.2 13h-9.6L7 24.6c.6.3 1.3.4 2 .4h19.2c3.4 0 6-2.6 6-6s-2.6-6-6-6zM30.7 0l-12 12h8.9c3.6 0 6.4-2.8 6.4-6.4 0-2.4-1.4-4.5-3.3-5.6z"/><path opacity=".2" d="M14 13.5c0 3.6-2.9 6.5-6.5 6.5S1 17.1 1 13.5 3.9 7 7.5 7 14 9.9 14 13.5z"/><path fill="#FF3E3E" d="M13 12.5c0 3.6-2.9 6.5-6.5 6.5S0 16.1 0 12.5 2.9 6 6.5 6 13 8.9 13 12.5z"/><path fill="#FFF" d="M7 16.5H6v-8h1v8z"/><path fill="#FFF" d="M10.5 13h-8v-1h8v1z"/><g fill="#FFF"><path d="M13.3 8.2l.6-.9c.4.4 1.2.8 2 .8s1.1-.3 1.1-.7c0-.5-.6-.6-1.3-.8-1-.2-2.2-.5-2.2-1.8 0-.9.8-1.8 2.3-1.8 1 0 1.7.3 2.3.8l-.5.9c-.3-.4-1-.7-1.7-.7s-1.1.3-1.1.7c0 .4.6.5 1.3.7 1 .2 2.2.5 2.2 1.9 0 1-.9 1.8-2.4 1.8-1.1 0-2-.3-2.6-.9zM19 8.2l.6-.9c.4.4 1.2.8 2 .8s1.1-.3 1.1-.8-.6-.6-1.3-.8c-1-.2-2.2-.5-2.2-1.8 0-.9.8-1.8 2.3-1.8 1 0 1.7.3 2.3.8l-.5.9c-.3-.4-1-.7-1.7-.7s-1.1.3-1.1.7c0 .4.6.5 1.3.7 1 .2 2.2.5 2.2 1.9 0 1-.9 1.8-2.4 1.8-1.1.1-2-.2-2.6-.8z"/></g></svg>