<svg xmlns="http://www.w3.org/2000/svg" width="27.997" height="27.997" viewBox="0 0 27.997 27.997"><path fill-rule="evenodd" clip-rule="evenodd" fill="#FFF" d="M4.04 4.04h5.92L14 0l4.04 4.04h5.92v5.92l4.038 4.038-4.04 4.04v5.92h-5.92L14 28l-4.04-4.04H4.04v-5.92L0 13.998l4.04-4.04V4.04zm9.47 9.47v-.627l.49.49.487-.49v.628h.626l-.488.488.488.488h-.626v.626L14 14.625l-.49.487v-.626h-.626l.488-.488-.488-.487h.627z"/><path fill="#EFA620" d="M15.044 16.436v6.966h2.786l2.088-2.09-4.874-4.876zm3.55 6.965H23.4v-4.805l-2.09 2.088-5.64-5.64h-.626v.625l5.64 5.642-2.09 2.09zm2.717-3.482l2.09-2.088v-2.786h-6.964l4.875 4.874zm-4.038-15.88L13.998.767 10.725 4.04h2.785v8.077l.488.49.488-.49V4.04h2.786z"/><path fill="#9CCD29" d="M17.272 23.96l-3.274 3.27-3.273-3.27h2.785v-8.08l.488-.49.488.49v8.08h2.786zm-4.32-12.4V4.597H10.17l-2.09 2.09 4.875 4.875zm-3.55-6.964H4.597v4.807l2.09-2.09 5.64 5.64h.626v-.626l-5.64-5.64 2.09-2.09zM6.686 8.08l-2.09 2.088v2.785h6.965L6.687 8.08z"/><path fill="#922297" d="M15.044 11.56V4.6l2.786-.004 2.088 2.09-4.874 4.875zm3.55-6.964H23.4v4.807l-2.09-2.09-5.64 5.64h-.626v-.626l5.64-5.64-2.09-2.09zm2.717 3.483l2.09 2.088v2.785h-6.964L21.31 8.08zM4.04 10.724L.766 13.998l3.274 3.274v-2.786h8.08l.486-.488-.487-.487H4.04v-2.785z"/><path fill="#272377" d="M9.402 23.4H4.597v-4.805l2.09 2.088 5.64-5.64h.626v.625l-5.64 5.642 2.09 2.09zM6.686 19.92l-2.09-2.088v-2.786h6.965l-4.874 4.874zm6.267-3.482v6.966h-2.785l-2.09-2.09 4.875-4.876zm11.005-5.71l3.273 3.272-3.272 3.274v-2.786h-8.08l-.487-.488.49-.487h8.078v-2.785z"/></svg>