<svg xmlns="http://www.w3.org/2000/svg" width="49.869" height="48.377" viewBox="0 0 49.869 48.377"><path fill="#19BDD8" d="M35.214 0a3.44 3.44 0 0 1 3.442 3.44v41.494c0 1.9-1.54 3.442-3.442 3.442H3.442A3.44 3.44 0 0 1 0 44.936V10.77L10.773 0h24.44z"/><path opacity=".2" fill="#3C3C3B" d="M0 10.772l9.578-.834L0 19.33z"/><path fill="#008593" d="M7.33 10.772H0L10.773 0v7.33a3.44 3.44 0 0 1-3.442 3.442z"/><g fill="#FFF"><path d="M14.73 11.534h19.778v2.41h-19.78zM14.73 5.386h19.778v2.41h-19.78zM4.146 17.42h30.362v2.41H4.146zM4.146 23.26h30.362v2.407H4.146zM4.146 29.452h30.362v2.41H4.146zM4.146 35.29h30.362v2.41H4.146zM4.146 40.913h30.362v2.41H4.146z"/></g><path opacity=".1" fill="#3C3C3B" d="M33.442 8.008l-9.2-1.27L0 30.667v14.634c0 1.904 1.872 3.075 3.773 3.075h31.773c1.9 0 3.754-1.17 3.754-3.075V9.982c-4.01-1.19-5.858-1.974-5.858-1.974z"/><g fill="#FEB13C"><ellipse cx="35.67" cy="14.597" rx="14.199" ry="14.541"/><path d="M35.007 14.895c-.005-.036-.013-.054-.018-.042-.008.015 0 .028.017.042z"/><path d="M41.45 15.362c-.055-.056-2.993-.113-4.89-.246.008-.1.016-.18.023-.222-.073.06-.364.112-.788.157-.424-.044-.715-.097-.79-.156.008.04.016.122.024.222-1.897.133-4.836.19-4.892.246-.18.18-6.717 6.037-6.717 6.037l3.147 4.25s2.89 2.126 2.89 8.25c4.05 0 5.698-.08 6.337-.13.64.05 2.286.13 6.336.13 0-6.124 2.89-8.25 2.89-8.25l3.147-4.25c.002 0-6.535-5.858-6.716-6.038z"/><path d="M36.602 14.853c-.007-.012-.012.006-.018.042.016-.014.025-.027.018-.042z"/></g><ellipse fill="#3C3C3B" cx="35.691" cy="45.307" rx="3.541" ry="3.006"/><ellipse fill="#FD813C" cx="35.683" cy="34.204" rx="4.496" ry="4.721"/><path fill="#E2E2E2" d="M30.433 33.858v9.5c0 1.674.575 3.5 2.937 3.5h4.27c2.362 0 4.793-1.826 4.793-3.5v-9.5h-12z"/><path fill="#707070" d="M43.184 34.52c.103.48-.295.937-.89 1.02L29.49 37.337c-.595.086-1.164-.236-1.267-.715l-.025-.117c-.103-.48.294-.934.892-1.018l12.8-1.797c.595-.083 1.163.236 1.267.717l.024.114zM43.184 41.568c.103.48-.295.935-.89 1.017l-12.802 1.8c-.595.08-1.164-.24-1.267-.718l-.025-.115c-.103-.48.294-.938.892-1.02l12.8-1.797c.595-.084 1.163.237 1.267.717l.024.116zM43.184 38.01c.103.476-.295.933-.89 1.02L29.49 40.825c-.595.082-1.164-.237-1.267-.717l-.025-.117c-.103-.48.294-.936.892-1.02l12.8-1.797c.595-.083 1.163.238 1.267.716l.024.117z"/><g fill="#FD813C"><path d="M34.29 32.143a.67.67 0 0 1-.492.805l-.076.02a.665.665 0 0 1-.804-.49l-3.91-16.072a.668.668 0 0 1 .49-.806l.076-.018a.668.668 0 0 1 .806.49l3.91 16.07zM37.05 32.143a.667.667 0 0 0 .492.805l.076.02a.665.665 0 0 0 .804-.49l3.91-16.072a.666.666 0 0 0-.49-.806l-.076-.018a.667.667 0 0 0-.805.49l-3.91 16.07z"/></g><path fill="#FD813C" d="M41.602 16.712c-.79 0-1.104-.846-1.38-1.594-.135-.358-.383-1.025-.565-1.025-.185 0-.433.667-.565 1.025-.278.748-.594 1.594-1.384 1.594-.79 0-1.107-.846-1.384-1.594-.134-.358-.382-1.025-.565-1.025-.185 0-.434.667-.566 1.025-.277.748-.593 1.594-1.385 1.594s-1.107-.846-1.385-1.594c-.134-.358-.383-1.025-.568-1.025s-.435.668-.568 1.026c-.28.746-.596 1.592-1.386 1.592v-.873c.186 0 .434-.667.567-1.026.28-.746.595-1.594 1.386-1.594s1.107.848 1.385 1.594c.134.358.383 1.025.567 1.025.185 0 .433-.668.567-1.026.278-.746.592-1.594 1.383-1.594.79 0 1.105.848 1.382 1.594.133.358.382 1.025.566 1.025s.432-.668.565-1.026c.278-.746.594-1.594 1.385-1.594.79 0 1.104.848 1.382 1.594.133.36.38 1.025.563 1.025v.872z"/><path opacity=".4" fill="#FFF" d="M34.85 5.02c0-.57.463-1.032 1.034-1.032 5.34 0 9.684 4.344 9.684 9.683a1.034 1.034 0 0 1-2.065 0c0-4.2-3.418-7.618-7.618-7.618A1.034 1.034 0 0 1 34.85 5.02z"/></svg>