<svg xmlns="http://www.w3.org/2000/svg" width="59.25" height="51.313" viewBox="0 0 59.25 51.313"><g fill="#3BA4CB"><path d="M10.94 22.778a2.167 2.167 0 0 0 3.632 2.363L28.753 3.35A2.167 2.167 0 0 0 25.12.986l-14.18 21.79zM49.085 22.778a2.167 2.167 0 0 1-3.632 2.363L31.276 3.35A2.167 2.167 0 0 1 34.907.986l14.177 21.79z"/><path d="M56.708 21.23h-6.84l.474.73c.535.82.718 1.8.515 2.76a3.65 3.65 0 0 1-1.588 2.314 3.66 3.66 0 0 1-5.073-1.074l-3.077-4.73H18.906L15.83 25.96a3.656 3.656 0 0 1-3.076 1.67c-.71 0-1.4-.205-1.998-.594A3.65 3.65 0 0 1 9.17 24.72c-.204-.96-.02-1.94.513-2.76l.475-.73H2.542a2.54 2.54 0 0 0 0 5.083H4.3L9.54 48.397c1.167 2.666 2.843 2.916 4.5 2.916H45.21c1.656 0 3.332-.25 4.5-2.916l5.242-22.084h1.757a2.54 2.54 0 0 0-.002-5.082zm-39.136 25.1a2.464 2.464 0 0 1-2.894-1.935l-1.976-9.967a2.462 2.462 0 0 1 4.83-.957l1.977 9.967a2.465 2.465 0 0 1-1.938 2.893zm9.98-2.395a2.462 2.462 0 0 1-4.922 0v-10.16a2.462 2.462 0 0 1 4.923 0v10.16zm8.99 0a2.462 2.462 0 0 1-4.925 0v-10.16a2.463 2.463 0 0 1 4.924 0v10.16zm10.006-9.506l-1.977 9.966a2.464 2.464 0 0 1-2.893 1.936 2.464 2.464 0 0 1-1.936-2.893l1.978-9.968a2.463 2.463 0 0 1 4.83.957z"/></g></svg>