<svg xmlns="http://www.w3.org/2000/svg" width="71.704" height="71.704" viewBox="0 0 71.704 71.704"><circle fill="#39A5CB" cx="35.852" cy="35.852" r="35.852"/><path opacity=".15" d="M68.315 20.632a35.93 35.93 0 0 0-6.385-9.37c-1.448.32-2.79 1.127-3.678 2.377l-20.04 28.71L27.356 27.5c-1.944-2.61-5.977-3.196-8.582-1.245-2.706 2.023-3.26 5.87-1.252 8.562l15.91 21.78a6.147 6.147 0 0 0 4.907 2.452c1.33 0 2.604-.426 3.665-1.22a5.946 5.946 0 0 0 1.637-1.84l24.61-35.262c.024-.03.042-.064.063-.096z"/><path fill="#FFC245" d="M63.812 8.184c-2.668-1.896-6.655-1.224-8.56 1.457l-20.04 28.71L24.356 23.5c-1.944-2.61-5.977-3.196-8.582-1.245-2.706 2.023-3.26 5.87-1.252 8.562l15.91 21.78a6.147 6.147 0 0 0 4.907 2.452c1.33 0 2.604-.426 3.665-1.22a5.946 5.946 0 0 0 1.637-1.84l24.61-35.262c1.963-2.748 1.313-6.58-1.44-8.544z"/></svg>