<svg xmlns="http://www.w3.org/2000/svg" width="80.083" height="59.391" viewBox="0 0 80.083 59.391"><g fill="#FF6464"><path d="M52.24 43.922H7.84V5.682h54.723V8.99h7.84V2.88c0-1.59-1.29-2.88-2.88-2.88H2.88C1.29 0 0 1.29 0 2.88v43.843c0 1.59 1.29 2.88 2.88 2.88h49.36v-5.68zm-48.16-17.2a1.92 1.92 0 1 1 0-3.84 1.92 1.92 0 0 1 0 3.84z"/><path d="M77.203 12.028h-19.04a2.88 2.88 0 0 0-2.88 2.88V56.51a2.88 2.88 0 0 0 2.88 2.88h19.04a2.88 2.88 0 0 0 2.88-2.88V14.908a2.88 2.88 0 0 0-2.88-2.88zm-13.84 2.88h8.64a.8.8 0 0 1 0 1.6h-8.64a.8.8 0 0 1 0-1.6zm4.32 42.242zm9.2-4.64h-18.4V18.108h18.4V52.51z"/></g></svg>