<svg xmlns="http://www.w3.org/2000/svg" width="73.406" height="90.206" viewBox="0 0 73.406 90.206"><path fill="#A0A0A0" d="M59.553 63.156H56.67a1.25 1.25 0 0 1 0-2.5h2.883c1.217 0 2.416-.192 3.56-.57a1.25 1.25 0 0 1 .785 2.374c-1.4.462-2.86.696-4.345.696zm-11.762 0h-6.904a1.25 1.25 0 0 1 0-2.5h6.905a1.25 1.25 0 0 1 0 2.5zm-15.782 0h-6.905a1.25 1.25 0 0 1 0-2.5h6.905a1.25 1.25 0 0 1 0 2.5zm-15.28-2.38c-.253 0-.51-.078-.73-.238a13.868 13.868 0 0 1-4.665-5.862 1.25 1.25 0 0 1 2.305-.97 11.374 11.374 0 0 0 3.825 4.805 1.25 1.25 0 0 1-.734 2.264zm53.585-3.66a1.25 1.25 0 0 1-1.065-1.902 11.33 11.33 0 0 0 1.658-5.912c0-.69.56-1.276 1.25-1.276s1.25.533 1.25 1.224v.052c0 2.552-.7 5.047-2.025 7.215a1.25 1.25 0 0 1-1.067.6zM11.5 46.696c-.69 0-1.25-.56-1.25-1.25V38.54a1.25 1.25 0 0 1 2.5 0v6.906c0 .69-.56 1.25-1.25 1.25zm60.656-5.074c-.69 0-1.25-.56-1.25-1.25v-6.905a1.25 1.25 0 0 1 2.5 0v6.905c0 .69-.56 1.25-1.25 1.25zM11.5 30.912c-.69 0-1.25-.56-1.25-1.25V22.76a1.25 1.25 0 0 1 2.5 0v6.905c0 .69-.56 1.25-1.25 1.25zm60.656-5.073c-.69 0-1.25-.56-1.25-1.25v-6.906a1.25 1.25 0 0 1 2.5 0v6.905c0 .69-.56 1.25-1.25 1.25zM11.5 15.116a1.24 1.24 0 0 1-1.25-1.237v-.026c0-2.543.695-5.03 2.01-7.19.36-.59 1.13-.776 1.72-.42.59.36.775 1.13.417 1.72a11.328 11.328 0 0 0-1.646 5.89c0 .69-.56 1.263-1.25 1.263zm59.664-4.926c-.487 0-.95-.285-1.152-.762a11.383 11.383 0 0 0-3.836-4.798 1.25 1.25 0 1 1 1.46-2.03 13.885 13.885 0 0 1 4.68 5.852 1.25 1.25 0 0 1-1.152 1.74zM20.126 3.14a1.25 1.25 0 0 1-.394-2.436A13.82 13.82 0 0 1 24.102 0h2.858a1.25 1.25 0 0 1 0 2.5h-2.856a11.34 11.34 0 0 0-3.584.577c-.13.043-.264.064-.394.064zm38.4-.64h-6.904a1.25 1.25 0 0 1 0-2.5h6.905a1.25 1.25 0 0 1 0 2.5zm-15.782 0H35.84a1.25 1.25 0 0 1 0-2.5h6.904a1.25 1.25 0 0 1 0 2.5z"/><path fill="#03AF59" d="M60.656 61.29c0 6.96-5.644 12.603-12.604 12.603H12.604C5.644 73.893 0 68.25 0 61.29V25.84c0-6.96 5.644-12.604 12.604-12.604h35.45c6.96 0 12.603 5.643 12.603 12.604v35.45z"/><path fill="#FFCC03" d="M20.37 32.624c0-3.13 2.22-4.412 4.932-2.847l18.95 10.94c2.71 1.566 2.71 4.127 0 5.693L25.3 57.35c-2.712 1.565-4.93.285-4.93-2.847v-21.88z"/><path opacity=".1" d="M29.492 48.395l1.758 25.498h11.795l-.026-.056 6.36-.015a12.512 12.512 0 0 0 3.66-.958l-23.548-24.47z"/><path fill="#424242" d="M25.492 48.395l2.45 35.543s7.07-8.895 7.144-8.622c.074.273 6.803 14.89 6.803 14.89l3.958-1.9-6.83-14.47 10.936-.026-24.462-25.415z"/></svg>