<svg xmlns="http://www.w3.org/2000/svg" width="56.176" height="56.059" viewBox="0 0 56.176 56.059"><g fill="#4AC6BF"><path d="M20.833 0C9.328 0 0 9.327 0 20.833s9.328 20.833 20.833 20.833 20.833-9.327 20.833-20.833S32.34 0 20.833 0zm0 35.166C12.917 35.166 6.5 28.75 6.5 20.833S12.917 6.5 20.833 6.5s14.333 6.417 14.333 14.333-6.416 14.333-14.333 14.333zM55.477 47.708L40.737 33.63a23.78 23.78 0 0 1-7.627 7.44c.066.084.134.166.213.24l14.78 14.117c.794.76 1.948.846 2.575.19l5.105-5.345c.627-.655.49-1.803-.306-2.564z"/></g></svg>