<svg xmlns="http://www.w3.org/2000/svg" width="212.836" height="48.685" viewBox="0 0 212.836 48.685"><path fill="#363636" d="M128.693 43.48h2.313v4.66h-2.313zM152.422 32.074c-.09-1.025-.355-1.93-.793-2.715a6.05 6.05 0 0 0-1.702-1.948c-.696-.513-1.506-.904-2.427-1.176a10.49 10.49 0 0 0-2.97-.408c-1.45 0-2.737.294-3.855.882a8.503 8.503 0 0 0-2.812 2.354 10.68 10.68 0 0 0-1.723 3.35 12.81 12.81 0 0 0-.59 3.87c0 1.57.18 3.017.544 4.344.363 1.328.92 2.482 1.678 3.462a7.81 7.81 0 0 0 2.81 2.286c1.12.543 2.436.814 3.95.814 1.086 0 2.092-.18 3.014-.543a8.092 8.092 0 0 0 2.45-1.494 7.74 7.74 0 0 0 1.747-2.286c.453-.89.756-1.863.907-2.92h1.723c-.18 1.39-.567 2.626-1.156 3.713-.59 1.087-1.316 2-2.178 2.738a9.21 9.21 0 0 1-2.948 1.697c-1.105.39-2.29.59-3.56.59-1.906 0-3.532-.34-4.877-1.02-1.347-.68-2.45-1.59-3.31-2.738-.864-1.145-1.498-2.466-1.907-3.96a17.693 17.693 0 0 1-.612-4.683c0-1.63.234-3.17.704-4.617.467-1.45 1.156-2.716 2.063-3.803a9.81 9.81 0 0 1 3.356-2.58c1.33-.633 2.857-.95 4.582-.95 1.27 0 2.455.16 3.56.477a9.2 9.2 0 0 1 2.948 1.426 7.545 7.545 0 0 1 2.11 2.398c.543.967.875 2.114.997 3.44h-1.725zM156.867 36.51c0-1.66.233-3.222.704-4.684.47-1.464 1.157-2.753 2.064-3.87a9.77 9.77 0 0 1 3.357-2.648c1.33-.648 2.857-.973 4.582-.973 1.723 0 3.25.325 4.58.973a9.803 9.803 0 0 1 3.358 2.648c.907 1.116 1.594 2.405 2.063 3.87.47 1.462.703 3.024.703 4.683 0 1.66-.234 3.228-.703 4.706-.47 1.48-1.156 2.77-2.063 3.87a9.91 9.91 0 0 1-3.358 2.625c-1.33.65-2.857.974-4.58.974-1.724 0-3.25-.325-4.58-.973a9.878 9.878 0 0 1-3.358-2.624c-.908-1.1-1.595-2.39-2.063-3.87-.47-1.478-.703-3.047-.703-4.707m1.724 0c0 1.387.197 2.723.59 4.004.392 1.284.967 2.42 1.723 3.417a8.374 8.374 0 0 0 2.812 2.376c1.118.59 2.404.884 3.855.884s2.735-.294 3.855-.884a8.384 8.384 0 0 0 2.812-2.375c.756-.995 1.33-2.132 1.723-3.416.393-1.28.59-2.618.59-4.005 0-1.388-.197-2.724-.59-4.006s-.967-2.42-1.723-3.417a8.396 8.396 0 0 0-2.812-2.375c-1.12-.59-2.404-.883-3.855-.883s-2.738.293-3.855.882a8.376 8.376 0 0 0-2.812 2.375 10.83 10.83 0 0 0-1.723 3.417 13.602 13.602 0 0 0-.59 4.005M181.904 24.878h1.724v4.75h.09c.182-.722.5-1.408.953-2.058a7.357 7.357 0 0 1 1.656-1.697 7.825 7.825 0 0 1 2.176-1.13 7.785 7.785 0 0 1 2.518-.41c1.118 0 2.086.144 2.902.43.817.287 1.51.666 2.087 1.132a5.608 5.608 0 0 1 1.36 1.583c.332.59.56 1.185.68 1.788h.09c.696-1.6 1.626-2.82 2.79-3.666 1.165-.845 2.7-1.268 4.604-1.268 1.058 0 2.033.158 2.927.476.892.315 1.662.8 2.313 1.447.65.65 1.158 1.47 1.52 2.467.363.995.544 2.172.544 3.53v15.885h-1.723V32.21c0-1.48-.227-2.64-.68-3.485-.454-.845-.99-1.485-1.61-1.924-.62-.436-1.24-.707-1.86-.813-.62-.105-1.096-.158-1.43-.158-1.058 0-2.033.18-2.924.54a6.19 6.19 0 0 0-2.313 1.63c-.65.724-1.157 1.623-1.52 2.692-.363 1.07-.543 2.3-.543 3.688v13.758h-1.724V32.21c0-1.448-.22-2.602-.658-3.462-.438-.86-.952-1.5-1.542-1.924-.59-.422-1.194-.694-1.814-.813-.62-.12-1.11-.18-1.475-.18-.815 0-1.662.165-2.54.497a7.154 7.154 0 0 0-2.403 1.538c-.727.695-1.315 1.585-1.77 2.67-.454 1.088-.68 2.37-.68 3.848V48.14h-1.723V24.88z"/><path fill="#FDCA05" d="M71.297.905c-2.47 1.293-3.39 3.48-3.39 9.514 0 0 1.25-1.21 3.105-1.883 1.353-.49 2.506-1.235 3.175-1.724 2.087-1.53 2.41-3.497 2.41-6.81 0 0-3.402-.092-5.3.902"/><path fill="#363636" d="M56.652 2.318c-2.014 1.776-2.603 4.605-2.603 4.605L47.38 32.755l-5.545-21.14c-.54-2.25-1.514-5.028-3.054-6.907-1.962-2.393-5.95-2.543-6.375-2.543-.425 0-4.414.15-6.376 2.543-1.54 1.88-2.514 4.658-3.054 6.906l-5.545 21.14-6.668-25.83s-.588-2.83-2.603-4.606C4.896-.56 0 .056 0 .056L12.767 48.33s4.213.305 6.32-.77c2.768-1.41 4.086-2.5 5.76-9.068 1.495-5.856 5.67-23.057 6.06-24.282.193-.605.437-2.05 1.5-2.05 1.086 0 1.31 1.444 1.5 2.05.382 1.226 4.564 18.425 6.06 24.282 1.675 6.568 2.993 7.657 5.76 9.068 2.108 1.075 6.32.77 6.32.77L64.815.056s-4.898-.616-8.163 2.262M76.593 7.938s-.8 1.234-2.62 2.254c-1.17.654-2.294 1.098-3.5 1.676-2.018.968-2.565 2.047-2.565 3.694v32.772s3.222.406 5.33-.668c2.712-1.383 3.335-2.715 3.36-8.72V9.685h-.005V7.94zM108.42 24.31L124.62.215s-6.837-1.163-10.224 1.918c-2.166 1.972-4.59 5.518-4.59 5.518l-5.96 8.594c-.288.447-.667.932-1.27.932-.605 0-.984-.485-1.273-.932l-5.96-8.593s-2.423-3.544-4.59-5.517C87.37-.947 80.532.215 80.532.215l16.2 24.095-16.157 24.02s7.12.9 10.505-2.182c2.167-1.972 4.264-5.177 4.264-5.177l5.96-8.592c.29-.447.668-.933 1.272-.933s.983.486 1.272.933l5.96 8.593s2.22 3.207 4.386 5.178c3.386 3.082 10.382 2.183 10.382 2.183L108.42 24.31z"/></svg>