<svg xmlns="http://www.w3.org/2000/svg" width="68.792" height="43.129" viewBox="0 0 68.792 43.129"><g fill="#70CB6A"><path d="M35.596 16.194a2.344 2.344 0 0 1-1.675-.7c-7.65-7.714-17.374-3.4-17.783-3.214a2.363 2.363 0 0 1-3.127-1.156A2.356 2.356 0 0 1 14.153 8c4.493-2.093 15.104-3.91 23.12 4.175a2.358 2.358 0 0 1-1.677 4.02z"/><path d="M16.55 13.19a3.35 3.35 0 0 1-.892.25 5.66 5.66 0 0 1-6.286 2.54c-3.027-.796-4.834-3.894-4.037-6.92S9.23 4.224 12.258 5.02c1.057.277 1.96.84 2.66 1.578 1.166-.434 2.898-.94 5.063-1.203A10.463 10.463 0 0 0 13.49.347C7.88-1.127 2.138 2.22.662 7.828c-1.14 4.332.604 8.736 4.04 11.2-.007.022-.02.042-.026.065L.11 36.427c-.496 1.89.723 3.848 2.727 4.377 2.003.525 4.03-.578 4.528-2.47l.597-2.267 3.47-2.023a.625.625 0 0 0 .225-.852l-2.024-3.47.027-.105 3.47-2.023a.624.624 0 0 0 .225-.852l-2.023-3.47.598-2.27c.006-.023.005-.047.01-.07 4.203-.453 7.89-3.426 9.03-7.756.104-.39.177-.777.234-1.166-2.69.294-4.556 1.137-4.653 1.18zM68.092 19.915L60.015 8.122l.56.02a3.584 3.584 0 0 0 .242-7.164l-26.655-.9a3.555 3.555 0 0 0-2.216.694 3.55 3.55 0 0 0-1.44 1.81l-1.25 3.577c2.1.64 4.3 1.68 6.437 3.308l.748-2.14 16.235.546 9.217 13.46-21.59 14.784-9.217-13.457 2.227-6.376c-.032-.03-.07-.053-.102-.084-1.808-1.824-3.872-3.064-6.16-3.725l-5.337 15.283a3.58 3.58 0 0 0 2.202 4.564 3.582 3.582 0 0 0 4.564-2.2l.184-.528 8.077 11.793a4 4 0 0 0 5.562 1.04l24.75-16.952a4 4 0 0 0 1.04-5.56z"/></g></svg>