<svg xmlns="http://www.w3.org/2000/svg" width="69.442" height="87.676" viewBox="0 0 69.442 87.676"><path fill="#48C7BE" d="M2.916 47.496V82.7a4.975 4.975 0 0 0 4.975 4.976h53.662a4.975 4.975 0 0 0 4.975-4.976V47.496H2.917z"/><path fill="#48C7BE" d="M69.442 44.373a4.552 4.552 0 0 1-4.55 4.552H4.55A4.552 4.552 0 0 1 0 44.373V33.017a4.55 4.55 0 0 1 4.55-4.55h60.34a4.55 4.55 0 0 1 4.552 4.55v11.356z"/><path fill="#F97D3F" d="M25.734 28.466h16.188v59.21H25.734z"/><path opacity=".1" d="M2.916 48.924h63.61v3.81H2.916z"/><g fill="#F97D3F"><path d="M48.586 0c-7.14 0-12.93 5.79-12.93 12.93v12.928h12.93c7.14 0 12.93-5.788 12.93-12.93C61.516 5.79 55.728 0 48.586 0zm0 19.987H41.53V12.93a7.057 7.057 0 0 1 14.113 0 7.057 7.057 0 0 1-7.057 7.057zM6.974 12.93c0 7.14 5.79 12.928 12.93 12.928h12.93v-12.93C32.833 5.79 27.043 0 19.903 0 12.76 0 6.973 5.79 6.973 12.93zm5.873 0a7.057 7.057 0 0 1 14.113 0v7.057h-7.057a7.056 7.056 0 0 1-7.056-7.058z"/></g></svg>