<svg xmlns="http://www.w3.org/2000/svg" width="85.83" height="45.246" viewBox="0 0 85.83 45.246"><g fill="#CACACA"><path d="M45.287 20.883H40.08v6.294h5.207c1.993 0 3.496-1.188 3.496-3.146s-1.504-3.147-3.496-3.147z"/><path d="M83.098 11.027H22.132a2.73 2.73 0 0 0-2.73 2.73v2.24a23.916 23.916 0 0 1-11.77 11.675c5.186 2.344 9.366 6.512 11.77 11.673v3.17a2.73 2.73 0 0 0 2.73 2.73h60.966a2.732 2.732 0 0 0 2.73-2.73V13.758a2.732 2.732 0 0 0-2.73-2.733zM13.813 27.673A12.046 12.046 0 0 0 20.1 20.99a12.07 12.07 0 0 0 6.278 6.683 12.014 12.014 0 0 0-6.28 6.68 11.98 11.98 0 0 0-6.285-6.68zm14.52 12.542c-1.54 0-2.832-1.292-2.832-2.83s1.294-2.832 2.833-2.832 2.832 1.294 2.832 2.83c0 1.54-1.294 2.832-2.832 2.832zm19.96-.385l-4.58-8.285H40.08v8.285h-4.966V16.515H46.02c4.86 0 7.83 3.18 7.83 7.516 0 4.125-2.586 6.328-5.1 6.922l5.242 8.88h-5.7zm30.342-9.332c0 5.802-3.426 9.752-10.522 9.752S57.59 36.265 57.59 30.533V16.515h5.035v13.843c0 3.25 1.89 5.49 5.488 5.49 3.602 0 5.454-2.24 5.454-5.49V16.515h5.068v13.983zM6.775 9.335A13 13 0 0 1 0 16.545c3.104 1.402 5.56 4.002 6.775 7.21a12.99 12.99 0 0 1 6.78-7.21 13.02 13.02 0 0 1-6.78-7.21zm0 10.84a6.495 6.495 0 0 0-3.417-3.63 6.548 6.548 0 0 0 3.417-3.634 6.573 6.573 0 0 0 3.414 3.636 6.52 6.52 0 0 0-3.415 3.63zM17.217 0a10.376 10.376 0 0 1-5.412 5.76 10.376 10.376 0 0 1 5.412 5.762 10.39 10.39 0 0 1 5.416-5.76A10.386 10.386 0 0 1 17.217 0zm0 8.66a5.206 5.206 0 0 0-2.73-2.9 5.228 5.228 0 0 0 2.73-2.9 5.242 5.242 0 0 0 2.727 2.9 5.22 5.22 0 0 0-2.727 2.9zM28.396 0a5.79 5.79 0 0 1-3.024 3.22 5.798 5.798 0 0 1 3.024 3.22 5.8 5.8 0 0 1 3.026-3.22A5.8 5.8 0 0 1 28.396 0zm0 4.84a2.913 2.913 0 0 0-1.525-1.62 2.92 2.92 0 0 0 1.526-1.623c.273.72.825 1.304 1.523 1.622a2.92 2.92 0 0 0-1.524 1.62zM34.613 4.446a4.727 4.727 0 0 1-2.47 2.63 4.733 4.733 0 0 1 2.47 2.628 4.732 4.732 0 0 1 2.472-2.63 4.725 4.725 0 0 1-2.472-2.628zm0 3.952a2.382 2.382 0 0 0-1.246-1.323 2.395 2.395 0 0 0 1.246-1.323 2.396 2.396 0 0 0 1.245 1.323 2.39 2.39 0 0 0-1.245 1.323z"/></g></svg>