<svg xmlns="http://www.w3.org/2000/svg" width="36" height="40" viewBox="0 0 36 40"><title>Двухфакторная</title><rect width="36" height="40" fill="none"/><path d="M18.189,8.711v0a3.544,3.544,0,0,0-3.542,3.535v4.389H21.73V12.248A3.542,3.542,0,0,0,18.189,8.711Z" fill="#ccc"/><path d="M18.19,20.057a2.044,2.044,0,0,0-1.026,3.819v3.449a1.025,1.025,0,0,0,2.05,0V23.877a2.044,2.044,0,0,0-1.023-3.82Z" fill="#ccc"/><path d="M18.451,1.451A17.518,17.518,0,0,0,2.609,26.511L0,36.047,8.884,33.7A17.545,17.545,0,1,0,18.451,1.451Zm7.927,28.224A1.325,1.325,0,0,1,25.053,31H11.327A1.327,1.327,0,0,1,10,29.673V17.963a1.325,1.325,0,0,1,1.325-1.326h.665V12.246a6.2,6.2,0,0,1,12.4,0v4.392h.664a1.327,1.327,0,0,1,1.327,1.327Z" fill="#ccc"/></svg>