<svg xmlns="http://www.w3.org/2000/svg" viewBox="444 362 36 40">
  <defs>
    <style>
      .cls-1 {
        fill: none;
      }

      .cls-2 {
        fill: #ccc;
      }
    </style>
  </defs>
  <g transform="translate(444 362)">
    <rect id="Rectangle_1989" data-name="Rectangle 1989" class="cls-1" width="36" height="40"/>
    <path id="Path_1571" data-name="Path 1571" class="cls-2" d="M27.565,17.376h-.908v-6a8.469,8.469,0,1,0-16.938,0v6H8.811A1.811,1.811,0,0,0,7,19.187v16A1.813,1.813,0,0,0,8.813,37H27.568a1.81,1.81,0,0,0,1.81-1.81v-16a1.813,1.813,0,0,0-1.813-1.814Zm-7.977,9.892v4.71a1.4,1.4,0,1,1-2.8,0V27.266a2.809,2.809,0,1,1,2.8,0Zm3.44-9.892H13.349v-6a4.842,4.842,0,0,1,4.84-4.829h0a4.84,4.84,0,0,1,4.839,4.832Z"/>
  </g>
</svg>
