<svg xmlns="http://www.w3.org/2000/svg" width="36" height="40" viewBox="0 0 36 40"><title>Базовая анкета</title><rect width="36" height="40" fill="none"/><polygon points="2 8.94 9.86 8.18 2 15.91 2 8.94" fill="#393938" opacity="0.2" style="isolation:isolate"/><path d="M8,8.94H2L10.81,0V6.09A2.91,2.91,0,0,1,8,8.94Z" fill="#7e7e7e"/><path d="M30.84,0h-20L2,8.94V37.08A2.94,2.94,0,0,0,4.85,40h26a2.84,2.84,0,0,0,2.85-2.85V2.85A2.84,2.84,0,0,0,30.84,0ZM27.64,31.51H7.51c-.81,0-.42-1-.42-1s1.25-3.59,1.56-4.23a2.07,2.07,0,0,1,1.11-1.11l.07,0,4.6-2,.39-.17s0,0,0,0V21.5a6.69,6.69,0,0,1-1.2-2.74l-.06,0a.58.58,0,0,1-.62-.54l-.12-1.62a.58.58,0,0,1,.34-.57V13.93c0-2.17,2-3.93,4.53-3.93s4.53,1.76,4.53,3.93v2.13a.58.58,0,0,1,.34.57l-.12,1.62a.58.58,0,0,1-.62.54l-.06,0a6.49,6.49,0,0,1-1.44,3v1.06s0,0,0,0l.39.17h0l4.46,2,.11,0h0l.09,0a2.07,2.07,0,0,1,1.11,1.11c.31.64,1.56,4.23,1.56,4.23S28.44,31.51,27.64,31.51Z" fill="#ccc"/><polygon points="2 8.94 9.86 8.18 2 15.91 2 8.94" fill="#393938" opacity="0.2" style="isolation:isolate"/><path d="M8,8.94H2L10.81,0V6.09A2.91,2.91,0,0,1,8,8.94Z" fill="#7e7e7e"/></svg>