<svg xmlns="http://www.w3.org/2000/svg" width="36" height="40" viewBox="0 0 36 40"><title>пароль</title><rect width="36" height="40" fill="none"/><path d="M31.338,3.636A10.379,10.379,0,0,0,15,15.59l-2.086,2.4a.406.406,0,0,0,.1.562l.679.591L10,23.393a.345.345,0,0,0-.081-.011l-4.167.291a.356.356,0,0,0-.332.38l.289,4.166a.334.334,0,0,0,.016.057l-2.84.2a.262.262,0,0,0-.244.28l.2,2.869-.643.74a1.679,1.679,0,0,0-.354,1.67l1.835,4.8A.971.971,0,0,0,5,38.573L18.367,23.207l.653.569a.411.411,0,0,0,.572.021l2.051-2.358a10.38,10.38,0,0,0,9.7-17.8Zm-2.961,7.411a2.772,2.772,0,1,1-.271-3.911A2.771,2.771,0,0,1,28.378,11.048Z" fill="#ccc"/></svg>