<svg xmlns="http://www.w3.org/2000/svg" viewBox="444 362 36 40">
  <defs>
    <style>
      .cls-1 {
        fill: none;
      }

      .cls-2 {
        fill: #ccc;
      }
    </style>
  </defs>
  <g transform="translate(444 362)">
    <rect id="Rectangle_1990" data-name="Rectangle 1990" class="cls-1" width="36" height="40"/>
    <path id="Path_1572" data-name="Path 1572" class="cls-2" d="M32.867,34.045s-1.779-5.1-2.214-6a2.936,2.936,0,0,0-1.578-1.581l-.131-.06-.023-.01-.153-.068c-1.151-.511-4.824-2.128-6.323-2.786h0l-.552-.242V21.727a9.2,9.2,0,0,0,2.041-4.3.578.578,0,0,0,.088.024.821.821,0,0,0,.88-.76l.17-2.3a.819.819,0,0,0-.477-.806V10.574C24.6,7.5,21.72,5,18.172,5s-6.427,2.5-6.427,5.574v3.019a.822.822,0,0,0-.478.806l.169,2.3a.824.824,0,0,0,.882.76.521.521,0,0,0,.086-.024,9.484,9.484,0,0,0,1.7,3.882V23.3l-.551.242h0c-1.609.707-5.721,2.516-6.532,2.879l-.1.044A2.937,2.937,0,0,0,5.345,28.04c-.435.907-2.211,6-2.211,6S2.581,35.5,3.725,35.5H32.274C33.419,35.507,32.867,34.045,32.867,34.045Z"/>
  </g>
</svg>
