<svg baseProfile="basic" xmlns="http://www.w3.org/2000/svg" width="162" height="120" viewBox="0 0 162 120"><ellipse opacity=".2" fill="#444" cx="81.1" cy="113.8" rx="80.8" ry="6.2"/><path fill="#FFF" d="M150 109.9c0 1.7-1.4 3.1-3.1 3.1H15c-1.7 0-3.1-1.4-3.1-3.1V3.1C11.9 1.4 13.3 0 15 0h131.9c1.7 0 3.1 1.4 3.1 3.1v106.8z"/><path fill="#444" d="M150 12.3V3.1c0-1.7-1.4-3.1-3.1-3.1H15c-1.7 0-3.1 1.4-3.1 3.1v9.2H150z"/><ellipse fill="#2CB740" cx="18.7" cy="6.3" rx="2.4" ry="2.4"/><ellipse fill="#F16442" cx="26.1" cy="6.3" rx="2.4" ry="2.4"/><path fill="#FFF" d="M144.9 6.2c0 1.3-1.1 2.4-2.4 2.4h-110c-1.3 0-2.4-1.1-2.4-2.4 0-1.3 1.1-2.4 2.4-2.4h109.9c1.4-.1 2.5 1 2.5 2.4z"/><path opacity=".2" fill="#444" d="M37.9 18.5c0 .9.7 1.6 1.6 1.6h105.2c.9 0 1.6-.7 1.6-1.6 0-.9-.7-1.6-1.6-1.6H39.5c-.9 0-1.6.7-1.6 1.6z"/><path fill="#CCC" d="M34.4 18.5c0 1.3-1 2.3-2.3 2.3H18c-1.3 0-2.3-1-2.3-2.3 0-1.3 1-2.3 2.3-2.3h14.1c1.3 0 2.3 1 2.3 2.3z"/><path fill="#06C98C" d="M14.7 24.2h128.2v37.3H14.7z"/><path fill="#FFCC03" d="M16.1 92.2h40.5v16.6H16.1z"/><path fill="#F60" d="M61.3 92.2h40.5v16.6H61.3z"/><path fill="#EB4444" d="M105.7 92.2h40.5v16.6h-40.5z"/><g opacity=".2" fill="#444"><path d="M102.2 69c0 .8-.6 1.4-1.4 1.4H17.2c-.8 0-1.5-.6-1.5-1.4 0-.8.7-1.4 1.5-1.4h83.6c.8 0 1.4.6 1.4 1.4zM102.2 75.1c0 .8-.6 1.4-1.4 1.4H17.2c-.8 0-1.5-.6-1.5-1.4 0-.8.7-1.4 1.5-1.4h83.6c.8 0 1.4.6 1.4 1.4zM102.2 81.1c0 .8-.6 1.4-1.4 1.4H17.2c-.8 0-1.5-.6-1.5-1.4 0-.8.7-1.4 1.5-1.4h83.6c.8.1 1.4.7 1.4 1.4zM102.2 87.2c0 .8-.6 1.4-1.4 1.4H17.2c-.8 0-1.5-.6-1.5-1.4 0-.8.7-1.4 1.5-1.4h83.6c.8 0 1.4.6 1.4 1.4z"/></g><g fill="#FFF"><path d="M78.7 33.8c0 .8-.6 1.4-1.4 1.4H46.8c-.8 0-1.5-.6-1.5-1.4 0-.8.6-1.4 1.5-1.4h30.4c.8.1 1.5.7 1.5 1.4zM101.5 40c0 .8-.7 1.4-1.4 1.4H46.8c-.8 0-1.5-.6-1.5-1.4 0-.8.6-1.4 1.5-1.4h53.3c.8 0 1.4.6 1.4 1.4zM101.5 46c0 .8-.7 1.4-1.4 1.4H46.8c-.8 0-1.5-.6-1.5-1.4 0-.8.6-1.4 1.5-1.4h53.3c.8 0 1.4.7 1.4 1.4zM101.5 52.1c0 .8-.7 1.4-1.4 1.4H46.8c-.8 0-1.5-.6-1.5-1.4 0-.8.6-1.4 1.5-1.4h53.3c.8 0 1.4.6 1.4 1.4z"/></g><g opacity=".2" fill="#444"><path d="M146.2 69c0 .8-.7 1.4-1.5 1.4h-37c-.8 0-1.5-.6-1.5-1.4 0-.8.7-1.4 1.5-1.4h37c.8 0 1.5.6 1.5 1.4zM146.2 75.1c0 .8-.7 1.4-1.5 1.4h-37c-.8 0-1.5-.6-1.5-1.4 0-.8.7-1.4 1.5-1.4h37c.8 0 1.5.6 1.5 1.4zM146.2 81.1c0 .8-.7 1.4-1.5 1.4h-37c-.8 0-1.5-.6-1.5-1.4 0-.8.7-1.4 1.5-1.4h37c.8.1 1.5.7 1.5 1.4zM146.2 87.2c0 .8-.7 1.4-1.5 1.4h-37c-.8 0-1.5-.6-1.5-1.4 0-.8.7-1.4 1.5-1.4h37c.8 0 1.5.6 1.5 1.4z"/></g><path fill="#FFF" d="M141.1 61.5c.7-.4 1.3-.8 2-1.2v-3.2c-1 .8-2.2 1.6-3.4 2.2l-4-8.8 7.4-3.3V45l-8.3 3.7-2.7-5.9 10.4-4.7c.2.4.3.8.5 1.2v-4.6c-1-1.8-2.1-3.4-3.3-4.9l3.3-1.5v-4.1h-5.6c1.6.6 3.1 1.4 4.4 2.3l-3.6 1.6c-1.3-1.5-2.7-2.8-4-4h-3.1c1.6 1.4 3.4 3 5.1 4.8l-8.7 3.9-3.9-8.7c.1 0 .2-.1.3-.1h-5.6c-8.7 5.8-12.1 17.2-7.7 27 2.1 4.5 5.5 8 9.6 10.2h10.3c-1.9-1.7-4.1-3.6-6.1-6l9.2-4.1 4 8.8c-1.9.7-3.9 1.2-5.8 1.3h9.3zm-3.3-30.8c1.4 1.7 2.7 3.5 3.8 5.6L131.2 41l-2.8-6 9.4-4.3zm-8.4 11.1L119 46.4c-.8-2.2-1.3-4.4-1.7-6.5l9.3-4.2 2.8 6.1zm-12.6-12.9c1.4-1.5 3.1-2.7 5-3.7l3.9 8.7-8.7 3.9c-.2-3.3-.2-6.4-.2-8.9zm-2 2.5c0 2.2.1 4.7.4 7.2l-3.6 1.6c.3-3.1 1.4-6.1 3.2-8.8zm-3.4 11.2l4-1.8c.4 2.1.9 4.3 1.8 6.5l-4.5 2c-.8-2.2-1.2-4.5-1.3-6.7zm2.2 8.5l4.4-2c1 2 2.1 3.9 3.4 5.5l-3.8 1.7c-1.6-1.4-3-3.1-4-5.2zm14.1 10.2c-3-.5-5.8-1.7-8.3-3.4l3.4-1.5c1.6 1.8 3.3 3.4 4.9 4.9zm-4.4-7.4c-1.3-1.7-2.5-3.5-3.4-5.5l10.4-4.7 2.7 5.9-9.7 4.3z"/><path fill="#7E7E7E" d="M21.4 22l10.8-10.7L42.9 22z"/><path opacity=".1" d="M12 91.4L34.1 113H147c1.7 0 3-.8 3-2.5v-.6L62.5 22.3 21 26.2l-9 30.5v34.7z"/><path fill="#7E7E7E" d="M54.9 84H10.3C4.6 84 0 79.4 0 73.7V29.2c0-5.7 4.6-10.3 10.3-10.3h44.6c5.7 0 10.3 4.6 10.3 10.3v44.6c0 5.6-4.7 10.2-10.3 10.2z"/><g fill="#FFF"><path d="M47.2 70.5c0 1.3-1.1 2.4-2.4 2.4H20.4c-1.3 0-2.4-1.1-2.4-2.4V49.6c0-1.3 1.1-2.4 2.4-2.4h24.5c1.3 0 2.4 1.1 2.4 2.4v20.9z"/><path d="M32.6 71.4c-6.1 0-11.1-5-11.1-11.1v-21c0-6.1 5-11.1 11.1-11.1s11.1 5 11.1 11.1v21c0 6.2-5 11.1-11.1 11.1zm0-38.4c-3.5 0-6.3 2.8-6.3 6.3v21c0 3.5 2.8 6.3 6.3 6.3s6.3-2.8 6.3-6.3v-21c0-3.4-2.8-6.3-6.3-6.3z"/></g><g fill="#7E7E7E"><path d="M36.3 57c0 2-1.6 3.7-3.7 3.7-2 0-3.7-1.6-3.7-3.7 0-2 1.6-3.7 3.7-3.7 2 0 3.7 1.7 3.7 3.7z"/><path d="M34.5 66.3c0 1-.8 1.8-1.8 1.8s-1.8-.8-1.8-1.8V56.1c0-1 .8-1.8 1.8-1.8s1.8.8 1.8 1.8v10.2z"/></g></svg>