<svg xmlns="http://www.w3.org/2000/svg" width="24" height="24" viewBox="0 0 24 24"><title>Joomla</title><rect width="24" height="24" fill="none"/><path d="M4.964,12.087l-.423-.423A4.873,4.873,0,0,1,3.319,6.815,2.944,2.944,0,1,1,6.875,3.467a4.872,4.872,0,0,1,4.564,1.3l.169.169L9.436,7.105l-.168-.169A1.808,1.808,0,0,0,6.711,9.493l.425.424,2.172,2.17,2.3,2.3-2.17,2.172-2.3-2.3L4.964,12.087" fill="#fff"/><path d="M7.393,9.659l2.3-2.3,2.172-2.17.424-.423a4.876,4.876,0,0,1,4.826-1.232,2.943,2.943,0,1,1,3.3,3.324,4.874,4.874,0,0,1-1.238,4.8l-.169.17L16.84,9.658l.167-.168a1.8,1.8,0,1,0-2.549-2.549l-.424.423-2.172,2.17-2.3,2.3L7.393,9.659" fill="#fff"/><path d="M17.173,20.616A4.876,4.876,0,0,1,12.288,19.4l-.166-.166,2.17-2.173.167.167a1.8,1.8,0,1,0,2.549-2.55l-.424-.425-2.17-2.172-2.293-2.3,2.172-2.17,2.292,2.293,2.169,2.172.426.427a4.871,4.871,0,0,1,1.292,4.6,2.943,2.943,0,1,1-3.3,3.5" fill="#fff"/><path d="M16.326,14.516,14.035,16.81l-2.171,2.172-.425.426A4.873,4.873,0,0,1,6.812,20.69a2.944,2.944,0,1,1-3.548-3.524A4.871,4.871,0,0,1,4.54,12.51l.166-.166,2.172,2.17-.168.167a1.807,1.807,0,0,0,2.556,2.555l.425-.426,2.17-2.171,2.293-2.3,2.171,2.172" fill="#fff"/></svg>