<svg xmlns="http://www.w3.org/2000/svg" width="24" height="24" viewBox="0 0 24 24"><title>Ecwid</title><rect width="24" height="24" fill="none"/><path d="M20.993,12.243c.819-2.491,2.1-7.954,2.585-9.9C24.006.627,24.286-.013,23.515,0c-.647.011-2.3.168-2.636,1.528-.568,2.272-1.925,7.5-2.422,9.167a2.857,2.857,0,0,1-3.172,2.223c-1.275.009-1.977-.089-1.977-1.058-.406-.008-1.033,0-1.322,0s-.915-.007-1.322,0c0,1.02-.7,1.058-1.976,1.058a2.689,2.689,0,0,1-2.912-1.912c-.367-1.211-1.284-4.344-1.753-6A2.476,2.476,0,0,0,1.359,3.257c-.781,0-.719.124-.268,1.751S2.53,10.268,3.221,12.7A4.674,4.674,0,0,0,7.8,15.927h2.556c1.161,0,1.571-.5,1.633-.655.063.158.51.655,1.673.655h2.478A5.07,5.07,0,0,0,20.993,12.243Z" fill="#fff"/><circle cx="8.108" cy="4.714" r="1.211" fill="#fff"/><circle cx="12.043" cy="4.714" r="1.211" fill="#fff"/><circle cx="16.03" cy="4.714" r="1.211" fill="#fff"/><circle cx="8.108" cy="9.076" r="1.211" fill="#fff"/><circle cx="12.043" cy="9.076" r="1.211" fill="#fff"/><circle cx="16.03" cy="9.076" r="1.211" fill="#fff"/><path d="M2.426,16.594a2.427,2.427,0,1,0,2.428,2.428A2.428,2.428,0,0,0,2.426,16.594Zm0,3.3a.871.871,0,1,1,.871-.871A.871.871,0,0,1,2.426,19.893Z" fill="#fff"/><path d="M21.573,16.563A2.428,2.428,0,1,0,24,18.992,2.429,2.429,0,0,0,21.573,16.563Zm0,3.3a.871.871,0,1,1,.871-.869A.87.87,0,0,1,21.573,19.861Z" fill="#fff"/></svg>