<svg xmlns="http://www.w3.org/2000/svg" width="24" height="24" viewBox="0 0 24 24"><title>Бесплатная парковка</title><rect width="24" height="24" fill="none"/><path d="M19.161,4.258A5.24,5.24,0,0,0,16.281,2.3a23.479,23.479,0,0,0-4.8-.3H5V22H9.038V14.455h2.634a23.085,23.085,0,0,0,4.187-.286,5.828,5.828,0,0,0,2.095-.949,5.485,5.485,0,0,0,1.7-1.971,6.527,6.527,0,0,0,.668-3.1A6.212,6.212,0,0,0,19.161,4.258ZM15.7,9.762a2.648,2.648,0,0,1-1.264.983,10.413,10.413,0,0,1-3.191.314H9.038V5.383h1.95a19.457,19.457,0,0,1,2.906.137,2.8,2.8,0,0,1,1.624.886,2.585,2.585,0,0,1,.64,1.8A2.69,2.69,0,0,1,15.7,9.762Z" fill="#fff"/></svg>