<svg xmlns="http://www.w3.org/2000/svg" width="24" height="24" viewBox="0 0 24 24"><title>WP</title><rect width="24" height="24" fill="none"/><path d="M12,0A12,12,0,1,0,24,12,12,12,0,0,0,12,0Zm0,23.455A11.455,11.455,0,1,1,23.455,12,11.455,11.455,0,0,1,12,23.455Z" fill="#fff"/><path d="M2.66,7.841h.087L7.58,21.166H7.536a10.208,10.208,0,0,1-4.747-4.7,11.047,11.047,0,0,1-1-4.485A10.914,10.914,0,0,1,2.66,7.841Z" fill="#fff"/><path d="M12.022,1.788a10,10,0,0,1,6.881,2.7v.043l-.131-.043q-1.219,0-1.7,1.481v.391a5.9,5.9,0,0,0,1.219,2.7,5.4,5.4,0,0,1,.611,2.526,15.871,15.871,0,0,1-1.089,4.224l-.7,2.4a27.705,27.705,0,0,1-1.132-3.266L13.373,7.188h.042q1.526,0,1.525-.392v-.13c-.058-.2-.161-.32-.306-.349l-2.83.131L8.93,6.316a.429.429,0,0,0-.216.392H8.669q0,.478,1.263.48l.217.044,1.568,4.4L9.5,18.292H9.453l-3.7-11.06V7.188H5.8q1.48,0,1.479-.348V6.709a.424.424,0,0,0-.3-.392l-3.31.13H3.488V6.359A10.974,10.974,0,0,1,5.535,4.1,10.2,10.2,0,0,1,12.022,1.788Z" fill="#fff"/><path d="M12.153,12.849a28.615,28.615,0,0,1,1.219,3.266l2.047,5.53h-.043a10.656,10.656,0,0,1-3.4.567A9.322,9.322,0,0,1,9.1,21.775Z" fill="#fff"/><path d="M20.906,7.1h.087a10.908,10.908,0,0,1,1.219,4.92,10.094,10.094,0,0,1-3.485,7.665,11.482,11.482,0,0,1-1.567,1.132h-.043v-.043l3.57-10.408a9.555,9.555,0,0,0,.306-2.22Z" fill="#fff"/></svg>