<svg xmlns="http://www.w3.org/2000/svg" width="24" height="24" viewBox="0 0 24 24"><title>SSL</title><rect width="24" height="24" fill="none"/><path d="M11.956,12.521a1.1,1.1,0,0,0-.552,2.05v1.853a.551.551,0,1,0,1.1,0V14.572a1.1,1.1,0,0,0-.55-2.051Z" fill="#fff"/><path d="M11.956,6.424a1.9,1.9,0,0,0-1.9,1.9v2.36h3.8V8.323A1.9,1.9,0,0,0,11.956,6.424Z" fill="#fff"/><path d="M21.75,2.8c-.421.031-.851.05-1.288.05-3.592,0-6.742-1.138-8.506-2.847C10.192,1.71,7.043,2.848,3.45,2.848c-.437,0-.866-.019-1.288-.05A13.864,13.864,0,0,0,1,8.716C1,16.84,7.661,24,11.956,24c4.6,0,10.957-7.161,10.957-15.285A13.862,13.862,0,0,0,21.75,2.8Zm-5.4,14.89a.712.712,0,0,1-.712.712H8.274a.712.712,0,0,1-.711-.712V11.394a.712.712,0,0,1,.711-.712h.357V8.323a3.325,3.325,0,0,1,6.649,0v2.36h.357a.712.712,0,0,1,.712.712Z" fill="#fff"/></svg>