<svg xmlns="http://www.w3.org/2000/svg" width="24" height="24" viewBox="0 0 24 24"><title>G</title><rect width="24" height="24" fill="none"/><path d="M22.548,11.943a13.45,13.45,0,0,0-.2-2.01H12v.006h0v.713q0,1.787-.005,3.574H12v.006h5.99A5.179,5.179,0,0,1,15.8,17.623l0,0a6.3,6.3,0,0,1-2.424.958,7.132,7.132,0,0,1-2.625-.006,6.554,6.554,0,0,1-2.448-1.059,6.828,6.828,0,0,1-2.468-3.245c-.014-.04-.032-.079-.046-.119l0-.01.01-.008a6.635,6.635,0,0,1,0-4.278,6.87,6.87,0,0,1,1.59-2.581,6.467,6.467,0,0,1,6.516-1.7,5.92,5.92,0,0,1,2.371,1.4l2.022-2.022c.355-.361.727-.71,1.07-1.082l0,0,0,0a10.692,10.692,0,0,0-3.542-2.193A11.138,11.138,0,0,0,8.407,1.6,10.556,10.556,0,0,0,7.422,2,11.1,11.1,0,0,0,2.174,7.059a10.882,10.882,0,0,0-.958,2.767,11.007,11.007,0,0,0,7.935,12.8,11.765,11.765,0,0,0,5.629.059,9.706,9.706,0,0,0,7.29-6.906A12.519,12.519,0,0,0,22.548,11.943Z" fill="#fff"/></svg>