<svg xmlns="http://www.w3.org/2000/svg" width="24" height="24" viewBox="0 0 24 24"><title>Платная парковка</title><rect width="24" height="24" fill="none"/><path d="M19.772,2H4.228A2.228,2.228,0,0,0,2,4.228V19.773A2.228,2.228,0,0,0,4.228,22H19.772A2.228,2.228,0,0,0,22,19.773V4.228A2.228,2.228,0,0,0,19.772,2Zm-2.5,9.462a3.93,3.93,0,0,1-1.217,1.412,4.175,4.175,0,0,1-1.5.68,16.541,16.541,0,0,1-3,.205H9.667v5.405H6.774V4.836h4.642a16.821,16.821,0,0,1,3.44.215,3.754,3.754,0,0,1,2.063,1.4,4.45,4.45,0,0,1,.831,2.79A4.676,4.676,0,0,1,17.271,11.462Z" fill="#fff"/><path d="M13.145,7.358a13.933,13.933,0,0,0-2.082-.1h-1.4v4.066H11.25a7.461,7.461,0,0,0,2.286-.225,1.9,1.9,0,0,0,.905-.7,1.926,1.926,0,0,0,.326-1.114,1.852,1.852,0,0,0-.459-1.29A2,2,0,0,0,13.145,7.358Z" fill="#fff"/></svg>