<svg xmlns="http://www.w3.org/2000/svg" width="143.807" height="130.721" viewBox="0 0 143.807 130.721"><path fill="#EBEBEB" d="M91.783 19.683c1.616-3.392 1.933-6.46 8.4-6.46h37.16a6.462 6.462 0 0 1 6.463 6.46v14.7a6.463 6.463 0 0 1-6.462 6.463h-37.16c-3.57 0-13.57-2.894-13.57-6.462l5.17-14.7z"/><path opacity=".1" fill="#585757" d="M115.3 19.683c-1.616-3.392-1.933-6.46-8.4-6.46H69.74a6.462 6.462 0 0 0-6.463 6.46v14.7a6.462 6.462 0 0 0 6.462 6.463h37.16c3.57 0 13.57-2.894 13.57-6.462l-5.17-14.7z"/><path fill="#C4C4C4" d="M114.445 19.683c-1.615-3.392-1.932-6.46-8.4-6.46h-37.16a6.46 6.46 0 0 0-6.462 6.46v14.7a6.462 6.462 0 0 0 6.46 6.463h37.162c3.57 0 13.57-2.894 13.57-6.462l-5.17-14.7z"/><path opacity=".15" d="M84.236 19.683c-1.616-3.392-1.068-6.46-7.536-6.46H39.54a6.462 6.462 0 0 0-6.462 6.46v14.7a6.462 6.462 0 0 0 6.462 6.463H76.7c3.57 0 12.705-2.894 12.705-6.462l-5.17-14.7z"/><path fill="#585757" d="M143.807 95.356c0 4.068-3.3 7.365-7.367 7.365H38.715a7.366 7.366 0 0 1-7.367-7.364V29.55a7.366 7.366 0 0 1 7.367-7.365h97.725a7.367 7.367 0 0 1 7.367 7.365v65.806z"/><path fill="#585757" d="M83.37 19.683c-1.614-3.392-1.93-6.46-8.4-6.46H37.81a6.462 6.462 0 0 0-6.462 6.46v14.7a6.463 6.463 0 0 0 6.462 6.463h37.16c3.57 0 13.57-2.894 13.57-6.462l-5.17-14.7z"/><path fill="#464646" d="M33.385 96.286a4.515 4.515 0 0 0 4.517 4.514h99.352a4.515 4.515 0 0 0 4.516-4.514V28.62a4.516 4.516 0 0 0-4.516-4.514H37.902a4.516 4.516 0 0 0-4.517 4.515v67.666z"/><path opacity=".15" d="M79.65 18.266a2.307 2.307 0 0 1-4.612 0 2.306 2.306 0 0 1 4.612 0zM111.79 18.266a2.307 2.307 0 0 1-2.306 2.307 2.308 2.308 0 0 1-2.307-2.307 2.307 2.307 0 0 1 4.613 0zM140.615 18.266a2.307 2.307 0 0 1-4.613 0 2.307 2.307 0 0 1 4.613 0z"/><path opacity=".15" d="M137.345 13.222H37.81a6.462 6.462 0 0 0-6.462 6.46v75.674a7.366 7.366 0 0 0 7.367 7.365h97.725a7.366 7.366 0 0 0 7.367-7.364V19.683c0-3.57-2.894-6.46-6.462-6.46z"/><path fill="#EBEBEB" d="M79.025 34.692c1.87-3.922 2.234-7.472 9.715-7.472h42.973a7.473 7.473 0 0 1 7.473 7.472v17a7.474 7.474 0 0 1-7.473 7.474H88.74c-4.127 0-15.693-3.347-15.693-7.473l5.978-17z"/><path opacity=".1" fill="#585757" d="M106.47 34.692c-1.87-3.922-2.234-7.472-9.715-7.472H53.782a7.473 7.473 0 0 0-7.473 7.472v17a7.474 7.474 0 0 0 7.472 7.474h42.973c4.127 0 15.693-3.347 15.693-7.473l-5.978-17z"/><path fill="#C4C4C4" d="M105.482 34.692c-1.868-3.922-2.235-7.472-9.715-7.472H52.794a7.473 7.473 0 0 0-7.473 7.472v17a7.474 7.474 0 0 0 7.474 7.474h42.973c4.128 0 15.692-3.347 15.692-7.473l-5.978-17z"/><path opacity=".15" d="M70.547 34.692c-1.87-3.922-1.234-7.472-8.715-7.472H18.86a7.473 7.473 0 0 0-7.474 7.472v17a7.474 7.474 0 0 0 7.473 7.474H61.83c4.127 0 14.693-3.347 14.693-7.473l-5.978-17z"/><path fill="#585757" d="M139.436 122.202a8.52 8.52 0 0 1-8.52 8.52H17.907a8.52 8.52 0 0 1-8.52-8.52V46.104a8.52 8.52 0 0 1 8.52-8.518h113.01a8.518 8.518 0 0 1 8.52 8.518v76.098z"/><path fill="#585757" d="M69.547 34.692c-1.87-3.922-2.234-7.472-9.715-7.472H16.86a7.473 7.473 0 0 0-7.474 7.472v17a7.474 7.474 0 0 0 7.473 7.474H59.83c4.127 0 15.693-3.347 15.693-7.473l-5.978-17z"/><path fill="#464646" d="M11.742 123.278a5.22 5.22 0 0 0 5.223 5.22h114.893a5.22 5.22 0 0 0 5.222-5.22v-78.25a5.222 5.222 0 0 0-5.222-5.22H16.965a5.223 5.223 0 0 0-5.223 5.22v78.25z"/><path fill="#77BA1F" d="M65.245 33.054a2.667 2.667 0 0 1-5.334 0 2.668 2.668 0 0 1 5.334 0zM102.41 33.054a2.667 2.667 0 0 1-5.334 0 2.668 2.668 0 0 1 5.334 0zM135.745 33.054a2.667 2.667 0 0 1-5.334 0 2.668 2.668 0 0 1 5.334 0z"/><g fill="#77BA1F"><path d="M22.513 58.743l-5.89-2.56v-1.42l5.89-2.548v1.67l-4.107 1.57 4.107 1.63v1.658zM24.582 57.507l-.428-4.36v-2.015h1.78v2.016l-.42 4.36h-.932zm-.358 2.215v-1.646h1.646v1.646h-1.646zM27.94 51.132h3.17c.714 0 1.26.055 1.634.164.504.148.936.412 1.295.79s.632.844.82 1.393.28 1.225.28 2.03c0 .706-.088 1.315-.264 1.827-.215.625-.52 1.13-.92 1.518-.3.293-.707.52-1.22.686-.382.122-.894.183-1.534.183h-3.264v-8.59zm1.733 1.453v5.69h1.295c.484 0 .834-.028 1.05-.083.28-.07.514-.19.7-.357s.336-.444.453-.83.177-.908.177-1.572-.06-1.174-.176-1.53-.28-.632-.49-.83-.48-.335-.804-.405c-.242-.055-.717-.082-1.424-.082h-.78zM36.26 55.48c0-.876.13-1.61.392-2.204.195-.438.462-.83.8-1.178s.708-.605 1.11-.773c.535-.227 1.152-.34 1.852-.34 1.266 0 2.278.393 3.038 1.178s1.14 1.877 1.14 3.275c0 1.387-.377 2.472-1.13 3.255s-1.763 1.175-3.024 1.175c-1.278 0-2.293-.39-3.047-1.17s-1.13-1.85-1.13-3.22zm1.786-.06c0 .974.225 1.71.674 2.213s1.02.753 1.71.753 1.26-.25 1.703-.747.665-1.246.665-2.242c0-.984-.216-1.72-.647-2.203s-1.004-.727-1.72-.727-1.29.245-1.728.735-.656 1.23-.656 2.218zM51.44 56.563l1.683.533c-.258.938-.687 1.634-1.286 2.09s-1.36.682-2.282.682c-1.14 0-2.078-.39-2.812-1.17s-1.102-1.844-1.102-3.195c0-1.43.37-2.54 1.108-3.33s1.71-1.188 2.912-1.188c1.05 0 1.904.31 2.56.932.392.367.685.895.88 1.582l-1.717.41c-.102-.446-.313-.798-.636-1.056s-.714-.387-1.175-.387c-.637 0-1.153.23-1.55.686s-.595 1.197-.595 2.22c0 1.087.195 1.86.586 2.32s.898.692 1.523.692c.46 0 .857-.146 1.19-.44s.57-.753.715-1.382zM56.544 59.722v-7.137h-2.55v-1.453h6.827v1.453H58.28v7.137h-1.734zM64.197 59.722v-3.615l-3.146-4.975h2.034l2.02 3.398 1.98-3.398h2l-3.16 4.986v3.604h-1.727zM69.945 59.722v-8.59h2.783c1.055 0 1.742.043 2.062.13.492.128.904.408 1.236.84s.498.99.498 1.673c0 .527-.096.97-.287 1.33s-.435.642-.73.847-.594.34-.898.407c-.415.08-1.015.122-1.8.122h-1.13v3.24h-1.735zm1.734-7.137v2.438h.948c.684 0 1.14-.045 1.37-.135s.412-.23.543-.422.197-.414.197-.668c0-.312-.092-.57-.275-.773s-.416-.33-.697-.38c-.207-.04-.623-.06-1.248-.06h-.838zM77.95 59.722v-8.59h6.368v1.453h-4.635v1.904h4.312v1.446h-4.312v2.338h4.8v1.447h-6.534zM85.636 58.75v-1.66l4.113-1.616-4.114-1.6v-1.646l5.895 2.55v1.405l-5.894 2.566z"/></g><g fill="#F5B134"><path d="M22.853 73.743l-5.89-2.56v-1.42l5.89-2.547v1.67l-4.107 1.57 4.107 1.63v1.657zM24.294 74.72v-8.588h1.734v3.38h3.398v-3.38h1.734v8.59h-1.734v-3.757h-3.398v3.756h-1.734zM34.888 74.72v-7.135h-2.55v-1.453h6.827v1.453h-2.543v7.136h-1.734zM40.26 74.72v-8.588h2.597l1.56 5.86 1.54-5.86h2.602v8.59h-1.612V67.96l-1.705 6.76h-1.67l-1.7-6.76v6.76h-1.612zM50.327 74.72v-8.518h1.734v7.072h4.313v1.447h-6.046zM57.294 73.75v-1.66l4.113-1.617-4.113-1.6V67.23l5.895 2.548v1.406l-5.896 2.567z"/></g><g fill="#FFF"><path d="M23.4 107.245l-5.89-2.56v-1.42l5.89-2.548v1.67l-4.108 1.57 4.107 1.63v1.658zM24.47 101.28v-1.53h5.632v1.195c-.465.457-.938 1.113-1.418 1.97s-.847 1.765-1.1 2.728-.375 1.822-.37 2.58h-1.59c.028-1.188.273-2.398.736-3.633s1.08-2.338 1.854-3.31H24.47zM36.724 101.737l-1.594.176c-.04-.328-.14-.57-.305-.727s-.377-.234-.64-.234c-.347 0-.64.156-.88.47s-.393.962-.455 1.95c.41-.484.92-.727 1.53-.727.687 0 1.275.262 1.766.785s.735 1.2.735 2.027c0 .88-.257 1.584-.772 2.115s-1.178.797-1.986.797c-.867 0-1.58-.337-2.14-1.01s-.837-1.78-.837-3.315c0-1.574.29-2.71.873-3.404s1.338-1.042 2.268-1.042c.652 0 1.192.184 1.62.55s.7.894.818 1.59zm-3.733 3.592c0 .534.124.948.37 1.24s.527.435.844.435c.305 0 .56-.12.762-.357s.305-.63.305-1.172c0-.56-.108-.967-.327-1.227s-.492-.392-.82-.392c-.316 0-.584.125-.803.373s-.33.614-.33 1.1zM41.188 106.237l1.594-.176c.04.325.14.565.305.722s.38.234.65.234c.34 0 .63-.156.867-.47s.39-.96.457-1.944c-.413.48-.93.72-1.552.72-.676 0-1.26-.26-1.75-.78s-.734-1.2-.734-2.037c0-.87.26-1.572.776-2.105s1.177-.8 1.978-.8c.87 0 1.586.337 2.145 1.01s.838 1.782.838 3.325c0 1.57-.29 2.703-.872 3.398s-1.34 1.043-2.273 1.043c-.672 0-1.215-.178-1.63-.535s-.68-.892-.797-1.603zm3.727-3.598c0-.532-.122-.944-.366-1.237s-.527-.44-.848-.44c-.305 0-.558.122-.76.362s-.3.633-.3 1.18c0 .555.108.963.327 1.223s.49.39.82.39c.315 0 .582-.126.8-.376s.325-.618.325-1.103zM49.24 103.588c-.427-.18-.736-.426-.93-.74s-.29-.66-.29-1.035c0-.64.224-1.17.67-1.588.448-.418 1.084-.627 1.908-.627.816 0 1.45.21 1.9.627s.678.947.678 1.588c0 .398-.104.754-.31 1.064s-.5.547-.874.71c.477.192.84.472 1.087.84s.37.79.37 1.27c0 .793-.252 1.438-.758 1.934s-1.18.745-2.02.745c-.78 0-1.43-.205-1.95-.615-.613-.484-.92-1.148-.92-1.992 0-.465.115-.89.346-1.28s.595-.69 1.09-.9zm.187 2.022c0 .453.116.807.35 1.06s.52.382.87.382c.34 0 .62-.12.843-.365s.334-.598.334-1.06c0-.4-.113-.724-.34-.968s-.514-.368-.86-.368c-.403 0-.703.14-.9.416s-.297.578-.297.902zm.152-3.68c0 .328.092.584.277.768s.433.275.74.275c.313 0 .563-.092.75-.277s.282-.443.282-.77c0-.31-.094-.556-.28-.74s-.43-.28-.734-.28c-.316 0-.568.094-.756.28s-.28.436-.28.744zM54.524 106.014l1.64-.17c.048.37.187.666.417.883s.497.324.798.324c.343 0 .635-.138.873-.417s.358-.7.358-1.264c0-.528-.118-.923-.354-1.187s-.544-.396-.923-.396c-.472 0-.895.21-1.27.627l-1.336-.193.844-4.47h4.354v1.54h-3.105l-.258 1.46a2.483 2.483 0 0 1 1.124-.275c.73 0 1.35.266 1.857.797s.763 1.22.763 2.068a3.11 3.11 0 0 1-.615 1.893c-.56.758-1.334 1.137-2.326 1.137-.793 0-1.44-.213-1.94-.64s-.8-.997-.898-1.716zM70.368 105.065l1.682.533c-.258.938-.687 1.635-1.287 2.09-.6.455-1.36.682-2.282.682-1.14 0-2.077-.39-2.81-1.168s-1.103-1.846-1.103-3.197c0-1.43.37-2.54 1.107-3.33s1.71-1.188 2.912-1.188c1.05 0 1.904.31 2.56.932.392.366.685.894.88 1.58l-1.717.41c-.103-.444-.314-.796-.637-1.054s-.714-.387-1.175-.387c-.637 0-1.153.228-1.55.685s-.595 1.197-.595 2.22c0 1.087.195 1.86.586 2.32s.897.692 1.522.692c.46 0 .857-.146 1.19-.44s.572-.753.716-1.382zM80.985 108.223h-1.887l-.75-1.95h-3.434l-.71 1.95h-1.84l3.347-8.59h1.835l3.44 8.59zm-3.193-3.398l-1.184-3.188-1.16 3.188h2.344zM81.93 99.633h1.622v5.72l3.48-5.72h1.73v8.59h-1.624v-5.607l-3.475 5.607H81.93v-8.59zm4.452-2.138h.803c-.047.53-.233.95-.56 1.252s-.75.453-1.27.453-.94-.15-1.268-.453-.513-.72-.56-1.252h.803c.027.277.125.488.293.63s.412.214.732.214.564-.07.732-.214.267-.354.295-.63zM92.464 108.223v-7.137h-2.55v-1.453h6.827v1.453H94.2v7.137h-1.734zM97.21 103.98c0-.874.13-1.608.393-2.202.195-.438.462-.83.8-1.178s.708-.605 1.11-.773c.535-.227 1.152-.34 1.852-.34 1.266 0 2.278.393 3.038 1.178s1.14 1.877 1.14 3.275c0 1.387-.377 2.473-1.13 3.256s-1.763 1.174-3.024 1.174c-1.278 0-2.294-.39-3.048-1.168s-1.132-1.854-1.132-3.22zm1.787-.058c0 .973.224 1.71.674 2.213.45.502 1.02.752 1.712.752s1.26-.248 1.702-.746.665-1.245.665-2.24c0-.985-.217-1.72-.648-2.204s-1.005-.727-1.72-.727c-.715 0-1.29.245-1.73.735s-.655 1.23-.655 2.217zM106.9 99.633h3.435c.68 0 1.187.03 1.52.086s.634.173.897.353.483.42.66.72.263.632.263 1.003c0 .402-.108.77-.325 1.107s-.51.588-.882.756c.523.15.926.41 1.207.778s.42.8.42 1.295c0 .39-.09.77-.27 1.14s-.43.665-.745.886-.702.354-1.163.405c-.29.03-.986.05-2.092.06H106.9v-8.592zm1.736 1.43v1.986h1.137c.676 0 1.096-.01 1.26-.03.297-.035.53-.137.7-.307s.255-.395.255-.672c0-.265-.073-.48-.22-.645s-.364-.268-.653-.303c-.172-.02-.666-.03-1.482-.03h-.997zm0 3.416v2.296h1.605c.626 0 1.022-.018 1.19-.053.258-.047.468-.16.63-.342s.243-.425.243-.73c0-.257-.062-.476-.188-.655s-.306-.31-.542-.393-.75-.123-1.538-.123h-1.4zM115.245 107.25v-1.658l4.113-1.617-4.113-1.6v-1.646l5.895 2.548v1.406l-5.895 2.566z"/></g><path fill="#FFF" d="M17.078 79.97h1.25v14.25h-1.25z"/><g><path fill="#FFD22D" d="M14.682 16c-2.027 5.135-6.115 9.287-11.29 11.54 5.175 2.245 9.263 6.4 11.29 11.532 2.03-5.133 6.117-9.287 11.296-11.533-5.18-2.253-9.266-6.405-11.296-11.54z"/><path fill="#FF7600" d="M14.682 21.73c-1.018 2.58-3.076 4.67-5.69 5.81 2.614 1.127 4.673 3.223 5.69 5.81 1.023-2.587 3.08-4.683 5.688-5.81-2.608-1.14-4.665-3.23-5.688-5.81z"/></g><g><path fill="#FFD22D" d="M27.183 0c-1.412 3.577-4.26 6.47-7.864 8.038 3.603 1.564 6.45 4.46 7.863 8.034 1.415-3.575 4.26-6.47 7.87-8.034-3.61-1.568-6.456-4.46-7.87-8.038z"/><path fill="#FF7600" d="M27.183 3.99c-.71 1.8-2.143 3.255-3.964 4.048 1.82.785 3.254 2.245 3.963 4.048.713-1.803 2.146-3.263 3.962-4.048-1.817-.793-3.25-2.25-3.962-4.048z"/></g><g><path fill="#FFD22D" d="M4.684 5.75C3.844 7.88 2.146 9.604 0 10.537c2.146.932 3.843 2.656 4.684 4.785.842-2.13 2.538-3.854 4.687-4.785C7.22 9.604 5.527 7.88 4.685 5.75z"/><path fill="#FF7600" d="M4.684 8.127c-.422 1.07-1.276 1.938-2.36 2.41a4.403 4.403 0 0 1 2.36 2.41 4.414 4.414 0 0 1 2.36-2.41 4.435 4.435 0 0 1-2.36-2.41z"/></g></svg>