<svg xmlns="http://www.w3.org/2000/svg" width="141.107" height="133.754" viewBox="0 0 141.107 133.754"><path fill="#F4F4F4" d="M141.013 106.32a7.942 7.942 0 0 1-7.943 7.942H14.714a7.942 7.942 0 0 1-7.942-7.943V7.943A7.943 7.943 0 0 1 14.714 0H133.07a7.944 7.944 0 0 1 7.942 7.944v98.375z"/><path fill="#FF5B00" d="M141.013 17.48V7.945A7.944 7.944 0 0 0 133.07 0H14.714a7.943 7.943 0 0 0-7.942 7.944v9.537h134.24z"/><path fill="#ABD579" d="M6.77 82.686v23.633a7.942 7.942 0 0 0 7.943 7.942h118.355a7.942 7.942 0 0 0 7.943-7.943V56.667l-14.946-8.943L103.3 72.93 83.784 56.668 57.767 84.313 30.12 69.85 6.77 82.686z"/><path fill="#FFF" d="M135.146 9.886a3.39 3.39 0 0 1-3.39 3.39H41.913a3.39 3.39 0 0 1-3.39-3.39 3.39 3.39 0 0 1 3.39-3.39h89.844a3.39 3.39 0 0 1 3.39 3.39z"/><circle fill="#FFD22D" cx="17.111" cy="10.021" r="3.794"/><circle fill="#2B5B66" cx="29.85" cy="10.021" r="3.795"/><g fill="#555658"><path d="M22.46 32.438l1.646-.2c.053.42.193.74.424.962.23.223.508.333.834.333.35 0 .646-.133.886-.4.24-.265.36-.624.36-1.075 0-.427-.115-.766-.345-1.016a1.1 1.1 0 0 0-.84-.375c-.22 0-.48.042-.78.127l.187-1.385c.46.01.81-.09 1.053-.3.24-.212.362-.493.362-.844 0-.3-.09-.536-.266-.714-.177-.178-.412-.267-.707-.267-.29 0-.538.102-.743.303-.206.2-.33.496-.375.883l-1.566-.265c.107-.536.27-.965.492-1.285.218-.32.524-.572.918-.756a3.077 3.077 0 0 1 1.32-.275c.835 0 1.504.265 2.01.797.414.436.62.928.62 1.476 0 .778-.424 1.4-1.274 1.862.508.11.914.354 1.22.732.303.38.455.836.455 1.372 0 .777-.283 1.44-.852 1.99-.568.547-1.276.82-2.123.82-.802 0-1.467-.23-1.995-.69s-.835-1.066-.92-1.812zM29.57 32.74l1.644-.182c.04.335.146.583.314.744.17.16.394.24.672.24.35 0 .648-.16.895-.482s.403-.992.472-2.008c-.428.496-.962.744-1.603.744-.697 0-1.3-.27-1.805-.808s-.76-1.238-.76-2.102c0-.898.267-1.623.8-2.174.535-.55 1.216-.825 2.042-.825.898 0 1.637.348 2.213 1.043.577.695.865 1.84.865 3.432 0 1.62-.3 2.79-.9 3.508s-1.384 1.076-2.348 1.076c-.693 0-1.253-.185-1.68-.554-.428-.367-.702-.918-.823-1.652zm3.845-3.713c0-.55-.126-.974-.378-1.276-.252-.3-.543-.452-.874-.452a.98.98 0 0 0-.783.372c-.207.247-.31.653-.31 1.218 0 .573.11.993.337 1.26.226.27.508.403.847.403.327 0 .602-.128.825-.386.224-.258.335-.637.335-1.137zM40.05 32.438l1.644-.2c.053.42.193.74.424.962.23.223.508.333.834.333.35 0 .646-.133.886-.4.24-.265.36-.624.36-1.075 0-.427-.115-.766-.345-1.016a1.1 1.1 0 0 0-.84-.375c-.22 0-.48.042-.78.127l.187-1.385c.46.01.81-.09 1.053-.3.24-.212.362-.493.362-.844 0-.3-.09-.536-.266-.714-.18-.178-.414-.267-.71-.267-.29 0-.537.102-.742.303-.206.2-.33.496-.375.883l-1.566-.265c.108-.536.272-.965.493-1.285.22-.32.525-.572.92-.756a3.077 3.077 0 0 1 1.32-.275c.834 0 1.503.265 2.008.797.415.436.622.928.622 1.476 0 .778-.425 1.4-1.275 1.862.508.11.914.354 1.22.732.303.38.455.836.455 1.372 0 .777-.284 1.44-.853 1.99-.568.547-1.276.82-2.123.82-.802 0-1.467-.23-1.995-.69s-.837-1.066-.92-1.812zM49.993 25.89c.858 0 1.53.306 2.014.918.576.726.865 1.93.865 3.61 0 1.677-.29 2.883-.87 3.616-.48.604-1.15.907-2.01.907-.86 0-1.558-.33-2.085-.994-.528-.663-.792-1.845-.792-3.547 0-1.67.29-2.87.87-3.605.48-.604 1.15-.906 2.008-.906zm0 1.408a.848.848 0 0 0-.55.196c-.162.13-.287.366-.375.704-.117.44-.176 1.18-.176 2.22s.053 1.755.157 2.144c.103.39.236.648.395.777s.342.192.547.192a.85.85 0 0 0 .55-.196c.162-.13.287-.366.375-.705.117-.434.176-1.172.176-2.212s-.053-1.755-.157-2.144c-.104-.39-.237-.65-.396-.78s-.34-.196-.547-.196zM55.59 30.007c-.44-.186-.76-.44-.96-.765-.2-.325-.3-.68-.3-1.067 0-.66.23-1.208.693-1.64.462-.43 1.118-.646 1.97-.646.84 0 1.495.215 1.96.646.467.43.7.978.7 1.64 0 .41-.107.775-.32 1.097a2.03 2.03 0 0 1-.902.734c.493.197.867.485 1.123.864s.384.817.384 1.313c0 .818-.26 1.483-.783 1.996-.52.51-1.216.767-2.083.767-.806 0-1.477-.212-2.013-.635-.633-.5-.95-1.186-.95-2.057 0-.48.12-.92.357-1.32.238-.4.613-.71 1.125-.928zm.192 2.086c0 .468.12.833.36 1.095s.54.394.897.394c.35 0 .64-.126.87-.378s.345-.616.345-1.092c0-.415-.117-.75-.35-1a1.16 1.16 0 0 0-.89-.38c-.416 0-.726.145-.93.43a1.58 1.58 0 0 0-.303.93zm.157-3.797c0 .338.095.603.286.792s.447.284.766.284c.322 0 .58-.096.773-.287s.29-.457.29-.796c0-.32-.096-.574-.287-.766s-.444-.287-.76-.287c-.325 0-.585.097-.78.29-.192.194-.29.45-.29.77zM70.755 31.53l1.735.55c-.266.97-.708 1.688-1.327 2.156-.62.47-1.404.705-2.355.705-1.177 0-2.145-.4-2.902-1.206-.758-.804-1.137-1.903-1.137-3.298 0-1.476.38-2.622 1.142-3.438s1.764-1.225 3.006-1.225c1.084 0 1.965.32 2.643.962.403.38.706.923.907 1.633l-1.77.423c-.105-.458-.324-.82-.657-1.087-.332-.267-.736-.4-1.212-.4-.657 0-1.19.236-1.6.708s-.614 1.237-.614 2.293c0 1.12.202 1.92.605 2.395.4.477.926.714 1.57.714.477 0 .886-.15 1.23-.453.34-.305.585-.78.735-1.43zM81.837 34.79H79.89l-.774-2.014h-3.543l-.733 2.014h-1.898l3.453-8.865h1.893l3.55 8.865zm-3.296-3.508l-1.22-3.29-1.198 3.29h2.42zM82.934 25.925h1.676v5.902l3.592-5.902h1.784v8.865H88.31v-5.787l-3.586 5.787h-1.79v-8.865zm4.596-2.207h.828c-.05.548-.24.98-.577 1.29-.336.313-.772.47-1.31.47s-.972-.156-1.31-.47c-.335-.31-.528-.742-.576-1.29h.828c.028.286.13.503.303.65.173.146.425.22.756.22.33 0 .583-.073.757-.22.173-.147.275-.364.303-.65zM93.93 34.79v-7.365H91.3v-1.5h7.045v1.5H95.72v7.365h-1.79zM98.952 30.412c0-.903.135-1.66.405-2.273.2-.453.477-.858.825-1.217.35-.36.73-.625 1.146-.8.552-.232 1.188-.35 1.91-.35 1.307 0 2.352.405 3.136 1.216s1.177 1.937 1.177 3.38c0 1.43-.39 2.55-1.167 3.358-.777.81-1.817 1.213-3.12 1.213-1.318 0-2.366-.4-3.145-1.206-.777-.803-1.166-1.91-1.166-3.322zm1.845-.06c0 1.004.23 1.765.695 2.282.464.52 1.052.777 1.766.777s1.3-.256 1.757-.77c.457-.515.687-1.285.687-2.313 0-1.016-.223-1.773-.67-2.273-.444-.5-1.036-.75-1.773-.75s-1.333.253-1.785.76c-.453.504-.678 1.268-.678 2.288zM109.078 25.925h3.544c.7 0 1.224.03 1.568.088s.653.18.926.366c.27.184.5.43.68.74.182.308.272.653.272 1.036 0 .415-.11.796-.336 1.143a2.065 2.065 0 0 1-.91.78c.54.156.956.425 1.246.804s.436.824.436 1.336c0 .403-.094.796-.28 1.177s-.444.686-.77.913c-.324.228-.725.367-1.2.42-.298.032-1.018.053-2.158.06h-3.018v-8.865zm1.79 1.475v2.05h1.173c.698 0 1.132-.01 1.3-.03.308-.036.55-.142.724-.317.176-.175.264-.406.264-.692 0-.273-.076-.496-.227-.667-.15-.172-.375-.275-.674-.312-.178-.02-.688-.03-1.53-.03h-1.028zm0 3.526v2.37h1.656c.646 0 1.055-.018 1.228-.054.267-.05.483-.167.65-.354.167-.188.25-.438.25-.753 0-.267-.063-.492-.192-.678s-.315-.32-.56-.405-.772-.127-1.587-.127h-1.445z"/></g><path opacity=".15" d="M29.036 67.323v47.142H56.14V84.23L29.307 69.11zM84.123 69.163v45.302h19.785V74.47L84.395 58.498z"/><path fill="#9B9B9A" d="M6.777 85.838l.035-4.843 23.89-14.028 1.54 3.963z"/><path fill="#9B9B9A" d="M25.57 68.426l2.212-3.635 31.516 19.18-2.212 3.636zM81.232 57.864l2.707-3.28 21.965 18.137-2.708 3.28zM141.107 55.702v4.964l-16.614-12.604 2.722-3.27z"/><path fill="#9B9B9A" d="M56.118 87.503l-2.958-3.056 30.444-29.453 2.957 3.057zM104.5 77.174l-3.195-2.81 25.887-29.45 3.196 2.81z"/><circle fill="#427EEA" cx="29.314" cy="69.044" r="5.962"/><circle fill="#009DE1" cx="84.392" cy="58.422" r="5.962"/><circle fill="#32B47C" cx="55.869" cy="84.043" r="5.962"/><circle fill="#EDC93C" cx="126.457" cy="47.249" r="5.962"/><circle fill="#FF4A4A" cx="104.112" cy="72.795" r="5.962"/><path opacity=".2" d="M34.655 106.938a31.68 31.68 0 0 0 17.3-5.117l.693.757.017-.014c.023.043.05.084.084.12.07.08.168.13.276.163l2.17 2.36c-1.022 1.43-1.534 2.763-1.375 3.65h18.632l-7.79-8.485-.036.032c-.01-.008-.027-.008-.038-.016a1.135 1.135 0 0 0-.203-.332c-.71-.77-2.43-.43-4.36.717l-2.88-3.138c5.77-5.762 9.343-13.727 9.343-22.525 0-17.58-14.25-31.832-31.832-31.832-17.58 0-31.83 14.252-31.83 31.832-.002 17.58 14.25 31.83 31.83 31.83z"/><path fill="#00A083" d="M61.803 97.58c-1.247-.788-4.168.394-6.808 2.815-2.64 2.424-4.06 5.234-3.38 6.545l-.035.027 23.98 26.107.033-.03c.05.097.108.185.182.265 1.062 1.153 4.22-.013 7.05-2.616 2.834-2.6 4.267-5.648 3.204-6.807a1.175 1.175 0 0 0-.25-.2l.035-.03L61.838 97.55l-.035.03z"/><path opacity=".15" d="M61.838 97.55l-.035.028c-.598-.377-1.584-.3-2.736.15l26.765 29.137c.627-1.28.746-2.383.198-2.98a1.175 1.175 0 0 0-.248-.2l.034-.03L61.838 97.55z"/><path opacity=".15" fill="#FFF" d="M79.672 132.948c.85-.44 1.754-1.05 2.643-1.8L56.632 103.19l-2.33 2.14 25.37 27.618z"/><ellipse transform="rotate(-42.557 56.423 101.953)" fill="#06806A" cx="56.422" cy="101.949" rx="6.976" ry="2.742"/><path fill="#D8D8D8" d="M51.263 91.518c-.586-.37-1.96.184-3.203 1.324-1.243 1.143-1.914 2.467-1.595 3.082l-.014.014 7.217 7.857.017-.012c.023.043.05.084.084.12.503.548 1.99-.005 3.32-1.23 1.335-1.222 2.01-2.66 1.51-3.204a.865.865 0 0 0-.114-.097l.015-.014-7.22-7.86-.017.018z"/><path opacity=".15" d="M47.42 87.473c-.584-.37-1.96.184-3.2 1.326-1.246 1.14-1.915 2.464-1.597 3.08l-.015.015 7.217 7.857.017-.014c.022.043.05.084.083.12.503.548 1.99-.005 3.322-1.228 1.334-1.225 2.01-2.66 1.508-3.207a.613.613 0 0 0-.115-.094l.016-.02-7.217-7.854-.02.017z"/><circle fill="#00A083" cx="31.832" cy="72.284" r="31.832"/><circle fill="#EBEBEB" cx="31.832" cy="72.284" r="27.816"/><path fill="#ABD579" d="M36.42 71.71S21.796 81.784 10.19 89.75c5.1 6.31 12.897 10.35 21.643 10.35 11.86 0 21.983-7.428 25.983-17.883L36.42 71.71z"/><path opacity=".15" d="M36.42 99.715c8.865-1.473 16.31-7.133 20.235-14.883C47.858 79.334 36.42 71.71 36.42 71.71v28.005z"/><path fill="#9B9B9A" d="M11.707 91.473L38.81 75.606l17.182 10.46a27.67 27.67 0 0 0 2.49-5.81l-24.32-14.804-3.255 5.34 1.917 1.17L7.96 86.56a27.875 27.875 0 0 0 3.747 4.91z"/><circle fill="#133B75" cx="36.42" cy="71.708" r="8.77"/><ellipse transform="rotate(57.29 24.4 64.272)" opacity=".15" fill="#FFF" cx="24.4" cy="64.27" rx="9.911" ry="16.63"/></svg>