<svg xmlns="http://www.w3.org/2000/svg" width="160.459" height="87.435" viewBox="0 0 160.459 87.435"><path fill="#515151" d="M111.75 47.777V44.62l9.624-.003a4.51 4.51 0 0 0 4.39-4.538h3.158a7.653 7.653 0 0 1-7.49 7.694c-.092.003-9.586.003-9.682.003z"/><path fill="#B0B0B0" d="M160.46 34.63c0 .452-.415.818-.926.818h-8.313c-.51 0-.924-.366-.924-.82v-.612c0-.453.414-.82.925-.82h8.314c.51 0 .925.367.925.82v.613z"/><path fill="#EBC300" d="M150.87 30.344h6.52V38.3h-6.52z"/><path fill="#515151" d="M128.922 40.21h-3.157c0-4.244 3.453-7.697 7.697-7.697v3.158a4.545 4.545 0 0 0-4.54 4.54z"/><path opacity=".3" fill="#FFF" d="M150.87 31.877h6.52v2.59h-6.52z"/><path fill="#DB4545" d="M152.19 38.59a.767.767 0 0 1-.767.766h-17.545a.766.766 0 0 1-.766-.767v-8.534c0-.424.343-.767.766-.767h17.545c.424 0 .768.342.768.766v8.533z"/><path opacity=".4" fill="#3C3C3B" d="M133.113 37.15v1.44c0 .423.343.766.766.766h17.544a.767.767 0 0 0 .768-.767v-1.44h-19.08z"/><path opacity=".2" fill="#FFF" d="M133.067 31.13h19.048v4.344h-19.048z"/><path fill="#515151" d="M128.922 65.804h-3.157c0-2.48-1.94-4.473-4.418-4.538h-9.597v-3.16c.096 0 9.59 0 9.684.004a7.652 7.652 0 0 1 7.488 7.694z"/><path fill="#515151" d="M133.462 73.37c-4.244 0-7.697-3.452-7.697-7.697h3.157a4.545 4.545 0 0 0 4.54 4.54v3.158zM114.316 51.265h21.91v3.157h-21.91z"/><path fill="#B0B0B0" d="M160.46 72.23c0 .453-.415.82-.926.82h-8.313c-.51 0-.924-.367-.924-.82v-.613c0-.453.414-.82.925-.82h8.314c.51 0 .925.367.925.82v.613z"/><path fill="#EBC300" d="M150.87 67.945h6.52v7.957h-6.52z"/><path opacity=".3" fill="#FFF" d="M150.87 69.48h6.52v2.59h-6.52z"/><path fill="#DB4545" d="M152.19 76.19a.767.767 0 0 1-.767.767h-17.545a.766.766 0 0 1-.766-.767v-8.533c0-.424.343-.767.766-.767h17.545c.424 0 .768.343.768.767v8.533z"/><path opacity=".4" fill="#3C3C3B" d="M133.113 74.753v1.438c0 .425.343.768.766.768h17.544a.767.767 0 0 0 .768-.767v-1.437h-19.08z"/><path opacity=".2" fill="#FFF" d="M133.067 68.732h19.048v4.343h-19.048z"/><path fill="#B0B0B0" d="M160.46 53.48c0 .45-.415.818-.926.818h-8.313c-.51 0-.924-.367-.924-.82v-.613c0-.452.414-.82.925-.82h8.314c.51 0 .925.368.925.82v.614z"/><path fill="#EBC300" d="M150.87 49.194h6.52v7.957h-6.52z"/><path opacity=".3" fill="#FFF" d="M150.87 50.728h6.52v2.59h-6.52z"/><path fill="#DB4545" d="M152.19 57.438a.768.768 0 0 1-.767.768h-17.545a.767.767 0 0 1-.766-.768v-8.532c0-.424.343-.767.766-.767h17.545c.424 0 .768.342.768.766v8.532z"/><path opacity=".4" fill="#3C3C3B" d="M133.113 56v1.44c0 .423.343.767.766.767h17.544a.768.768 0 0 0 .768-.768V56h-19.08z"/><path opacity=".2" fill="#FFF" d="M133.067 49.98h19.048v4.343h-19.048z"/><g><path fill="#515151" d="M48.71 47.777V44.62l-9.625-.003a4.51 4.51 0 0 1-4.39-4.538h-3.158a7.653 7.653 0 0 0 7.49 7.694c.092.003 9.586.003 9.682.003z"/><path fill="#B0B0B0" d="M0 34.63c0 .452.414.818.925.818h8.313c.51 0 .925-.366.925-.82v-.612c0-.453-.414-.82-.925-.82H.925c-.51 0-.925.366-.925.82v.613z"/><path fill="#EBC300" d="M3.068 30.344h6.52V38.3h-6.52z"/><path fill="#515151" d="M31.537 40.21h3.157c0-4.244-3.453-7.697-7.697-7.697v3.158a4.545 4.545 0 0 1 4.54 4.54z"/><path opacity=".3" fill="#FFF" d="M3.068 31.877h6.52v2.59h-6.52z"/><path fill="#DB4545" d="M8.268 38.59c0 .423.344.766.768.766H26.58a.766.766 0 0 0 .766-.767v-8.534a.766.766 0 0 0-.766-.767H9.035a.767.767 0 0 0-.768.766v8.533z"/><path opacity=".4" fill="#3C3C3B" d="M27.346 37.15v1.44a.766.766 0 0 1-.766.766H9.035a.767.767 0 0 1-.768-.767v-1.44h19.08z"/><path opacity=".2" fill="#FFF" d="M8.344 31.13h19.048v4.344H8.344z"/><path fill="#515151" d="M31.537 65.804h3.157c0-2.48 1.94-4.473 4.418-4.538h9.597v-3.16c-.097 0-9.59 0-9.685.004a7.652 7.652 0 0 0-7.488 7.694z"/><path fill="#515151" d="M26.997 73.37c4.244 0 7.697-3.452 7.697-7.697h-3.157a4.545 4.545 0 0 1-4.54 4.54v3.158zM24.233 51.265h21.91v3.157h-21.91z"/><path fill="#B0B0B0" d="M0 72.23c0 .453.414.82.925.82h8.313c.51 0 .925-.367.925-.82v-.613c0-.453-.414-.82-.925-.82H.925c-.51 0-.925.367-.925.82v.613z"/><path fill="#EBC300" d="M3.068 67.945h6.52v7.957h-6.52z"/><path opacity=".3" fill="#FFF" d="M3.068 69.48h6.52v2.59h-6.52z"/><path fill="#DB4545" d="M8.268 76.19c0 .424.344.767.768.767H26.58a.766.766 0 0 0 .766-.767v-8.533a.766.766 0 0 0-.766-.767H9.035a.767.767 0 0 0-.768.767v8.533z"/><path opacity=".4" fill="#3C3C3B" d="M27.346 74.753v1.438a.766.766 0 0 1-.766.768H9.035a.767.767 0 0 1-.768-.767v-1.437h19.08z"/><path opacity=".2" fill="#FFF" d="M8.344 68.732h19.048v4.343H8.344z"/><path fill="#B0B0B0" d="M0 53.48c0 .45.414.818.925.818h8.313c.51 0 .925-.367.925-.82v-.613c0-.452-.414-.82-.925-.82H.925c-.51 0-.925.368-.925.82v.614z"/><path fill="#EBC300" d="M3.068 49.194h6.52v7.957h-6.52z"/><path opacity=".3" fill="#FFF" d="M3.068 50.728h6.52v2.59h-6.52z"/><path fill="#DB4545" d="M8.268 57.438c0 .424.344.768.768.768H26.58a.767.767 0 0 0 .766-.768v-8.532a.766.766 0 0 0-.766-.767H9.035a.767.767 0 0 0-.768.766v8.532z"/><path opacity=".4" fill="#3C3C3B" d="M27.346 56v1.44a.767.767 0 0 1-.766.767H9.035a.768.768 0 0 1-.768-.768V56h19.08z"/><path opacity=".2" fill="#FFF" d="M8.344 49.98h19.048v4.343H8.344z"/></g><g fill="#CA322B"><path d="M65.918 49.267v1.396h-5.27c.058-.527.23-1.027.514-1.5s.85-1.1 1.69-1.88c.678-.632 1.093-1.06 1.246-1.284.207-.312.31-.618.31-.92 0-.337-.09-.593-.27-.774-.18-.18-.43-.27-.746-.27-.313 0-.563.094-.75.283-.184.188-.29.503-.32.94l-1.497-.15c.09-.826.37-1.42.84-1.78.47-.36 1.06-.54 1.766-.54.774 0 1.383.21 1.824.625.442.418.664.938.664 1.557 0 .354-.063.69-.19 1.01a4.13 4.13 0 0 1-.602 1.002c-.182.232-.51.564-.984 1s-.774.725-.9.867-.23.282-.31.417h2.986zM72.026 44.743l-1.455.16c-.034-.3-.127-.52-.277-.664-.15-.144-.344-.214-.583-.214-.317 0-.585.143-.805.428s-.357.88-.415 1.78c.375-.442.84-.663 1.396-.663.628 0 1.165.24 1.612.718.448.48.672 1.096.672 1.852 0 .8-.235 1.445-.706 1.93-.47.486-1.075.73-1.813.73-.79 0-1.44-.31-1.95-.925s-.767-1.623-.767-3.023c0-1.438.267-2.475.798-3.11s1.222-.95 2.07-.95c.596 0 1.09.166 1.48.5s.64.816.746 1.45zM68.62 48.02c0 .49.11.868.336 1.134s.48.398.77.398c.28 0 .51-.11.696-.326.186-.22.278-.574.278-1.07 0-.51-.1-.885-.3-1.12a.942.942 0 0 0-.75-.356.936.936 0 0 0-.73.34c-.2.225-.3.56-.3 1zM73.31 49.16h1.504v1.075c0 .436-.037.78-.112 1.03a1.54 1.54 0 0 1-.425.677c-.21.2-.474.355-.795.47l-.294-.62c.303-.1.52-.236.647-.412.128-.174.195-.414.203-.717h-.728V49.16zM79.916 50.663h-1.503V45a5.184 5.184 0 0 1-1.942 1.138v-1.363c.394-.13.82-.37 1.28-.73.46-.357.775-.775.946-1.254h1.22v7.873zM82.194 48.85l1.455-.16c.035.296.128.517.277.66s.348.212.594.212c.312 0 .575-.143.793-.428.217-.285.356-.877.417-1.775-.378.437-.85.657-1.418.657-.616 0-1.148-.238-1.597-.715-.447-.477-.67-1.096-.67-1.86 0-.794.235-1.435.708-1.92.473-.49 1.074-.73 1.805-.73.796 0 1.448.306 1.958.92s.765 1.628.765 3.038c0 1.432-.265 2.467-.796 3.102s-1.223.95-2.075.95c-.614 0-1.11-.16-1.488-.487s-.62-.816-.728-1.464zm3.403-3.285c0-.484-.11-.86-.334-1.13-.224-.267-.48-.4-.773-.4-.278 0-.51.11-.692.33-.184.22-.275.58-.275 1.077 0 .508.1.88.3 1.115.2.238.45.355.748.355.29 0 .533-.113.73-.342s.297-.56.297-1.005zM91.31 44.76c0-.704.153-1.224.462-1.563.31-.338.727-.508 1.255-.508.545 0 .973.167 1.28.505.31.336.463.857.463 1.564 0 .7-.154 1.222-.462 1.56-.31.34-.728.51-1.255.51-.546 0-.973-.17-1.28-.506-.31-.34-.464-.86-.464-1.565zm1.17-.013c0 .51.06.854.177 1.027.09.13.212.193.37.193a.43.43 0 0 0 .373-.193c.114-.174.17-.518.17-1.027s-.056-.85-.17-1.02a.428.428 0 0 0-.374-.198.427.427 0 0 0-.37.19c-.117.176-.176.517-.176 1.027zm1.69 6.217h-1.11l4.176-8.275h1.08l-4.145 8.274zm2.43-2.06c0-.702.154-1.224.462-1.562.31-.34.73-.51 1.266-.51.538 0 .962.17 1.27.51.31.338.464.86.464 1.56 0 .708-.154 1.23-.463 1.57-.31.337-.728.507-1.256.507-.545 0-.973-.17-1.28-.51-.31-.338-.464-.86-.464-1.567zm1.17-.007c0 .512.06.852.178 1.023.09.13.212.197.37.197.16 0 .282-.064.368-.193.117-.174.177-.516.177-1.027 0-.51-.058-.852-.172-1.025-.088-.13-.213-.193-.373-.193s-.283.063-.37.192c-.118.174-.176.516-.176 1.025z"/></g><g><path fill="#CA322B" d="M51.668 0s-37.635 12.556-7.925 43.76c6.305-14.36 14.602-20.953 9.215-24.785C48.412 15.742 46.764 9.7 51.668 0z"/><path opacity=".1" d="M51.643.054c.008-.018.015-.035.025-.054 0 0-37.635 12.556-7.925 43.76a78.794 78.794 0 0 1 1.83-3.87c-22.2-22.395.1-36.612 6.07-39.836z"/><path fill="#CA322B" d="M108.79 0s37.635 12.556 7.925 43.76c-6.305-14.36-14.602-20.953-9.215-24.785 4.546-3.233 6.194-9.276 1.29-18.975z"/><path opacity=".1" d="M108.815.054C108.807.036 108.8.02 108.79 0c0 0 37.635 12.556 7.925 43.76a78.794 78.794 0 0 0-1.83-3.87c22.2-22.395-.1-36.612-6.07-39.836z"/></g><path fill="#CA322B" d="M80.23 7.227c-22.15 0-40.105 17.955-40.105 40.104S58.08 87.436 80.23 87.436s40.103-17.956 40.103-40.104S102.378 7.228 80.23 7.228zm0 63.478c-12.91 0-23.375-10.467-23.375-23.375 0-12.91 10.465-23.374 23.374-23.374s23.373 10.465 23.373 23.374c0 12.908-10.464 23.375-23.374 23.375z"/><path opacity=".1" fill="#3C3C3B" d="M108.79 0l.025.054c4.647 9.224 3.353 15.128-.717 18.453C101.01 11.654 91.41 7.393 80.81 7.24v16.73c12.64.31 22.793 10.646 22.793 23.36 0 12.712-10.152 23.05-22.792 23.36v16.73c21.88-.312 39.523-18.137 39.523-40.09 0-2.37-.218-4.687-.61-6.944C143.687 11.65 108.79 0 108.79 0z"/></svg>