<svg xmlns="http://www.w3.org/2000/svg" width="106.028" height="141.144" viewBox="0 0 106.028 141.144"><ellipse fill="#EBEBEB" cx="53.014" cy="134.518" rx="53.014" ry="6.626"/><path fill="#E33029" d="M54.372 22.5s21.68-.977 33.17 20.813H52.53s-6.613-.218-12.25 7.806c-1.625 3.36-3.36 6.83-1.41 13.657-2.817-4.77-14.96-25.91-14.96-25.91s8.566-15.5 30.464-16.368z"/><path fill="#FBD700" d="M86.415 77.822S76.417 97.084 51.8 96.136l17.513-30.32s3.494-5.618-.632-14.513c-2.098-3.09-4.233-6.325-11.124-8.05 5.542-.056 29.918.002 29.918.002s9.14 15.17-1.06 34.567z"/><path fill="#66B24B" d="M22.482 77.97S10.8 59.676 23.93 38.832l17.5 30.328s3.118 5.837 12.884 6.71c3.723-.27 7.595-.503 12.535-5.605C64.125 75.09 51.884 96.17 51.884 96.17s-17.706.332-29.403-18.2z"/><path fill="#61A948" d="M51.8 96.315l4.925-20.553s5.416-.423 9.953-5.402C63.862 75.315 51.8 96.315 51.8 96.315z"/><circle fill="#FFF" cx="54.281" cy="59.635" r="16.405"/><circle fill="#009DE1" cx="54.281" cy="59.635" r="13.659"/><path fill="#EC0" d="M87.475 43.256l-20.28 5.947s-3.06-4.488-9.638-5.95c5.7-.02 29.918.003 29.918.003z"/><path fill="#D72F27" d="M38.475 64.04c-2.85-4.937-14.565-25.172-14.565-25.172L38.934 53.73s-1.544 3.176-.958 7.712l.5 2.597z"/><path fill="#CA322B" d="M20.21 87.578s12.106 24.478 3.684 35.53c-8.423 11.057 6.316 14.478 19.213 12.635 12.897-1.842 13.423-3.947 11.318-27.372C52.79 90.167 33.03 87.7 24.305 87.505c-2.5-.056-4.096.074-4.096.074z"/><path opacity=".1" d="M31.092 135.832c-3.28-1.568-5.597-4.37-3.144-10.34 4.372-10.637-3.206-35.7-2.914-36.136l-2.685 3.17c3.04 7.736 7.603 22.632 1.544 30.583-5.754 7.552-.696 11.54 7.198 12.722z"/><path opacity=".2" d="M81.973 74.444c-.853 0-24.78-.555-27.8 11.198-3.02-11.753-26.946-11.198-27.798-11.198-11.757 0-2.044 20.29-1.022 25.584 1.02 5.294 14.824 5.514 24.28 8.38 2.278.69 3.69.775 4.54.302.85.474 2.264.39 4.542-.3 9.457-2.868 23.26-3.088 24.28-8.382s10.734-25.584-1.022-25.584z"/><path fill="#F4F4F4" d="M51.7 97.225s7.87 27.686 4.372 35.264c-3.498 7.576-9.617 6.118-9.617-.876s3.206-18.943 1.75-29.726c-1.46-10.784 1.455-9.326 3.495-4.663z"/><path opacity=".1" d="M74.503 27.9a37.156 37.156 0 0 1 6.344 20.822c0 20.618-16.714 37.333-37.333 37.333-7.71 0-14.874-2.34-20.822-6.344 6.705 9.96 18.08 16.51 30.99 16.51 20.618 0 37.332-16.714 37.332-37.332 0-12.908-6.552-24.284-16.51-30.99z"/><path opacity=".1" d="M49.757 96.96l.12.265s5.175 18.21 5.265 29.135c-.604 6.192-3.227 7.877-9.705 9.007-.498-.965-.806-2.216-.806-3.753 0-6.994 3.207-18.943 1.75-29.726-.652-4.825-.427-7.193.2-7.927a20.435 20.435 0 0 1 3.177 3z"/><path opacity=".2" d="M26.176 79.067c.93 0 29.112-.66 28.34 14.336-.773 14.997 4.637 22.496-4.895 19.63-9.532-2.868-22.588-3.088-23.618-8.382-1.03-5.293-11.677-25.583.174-25.583z"/><path fill="#F4F4F4" d="M25.546 76.444c.95 0 29.74-.66 28.95 14.336-.788 14.997 4.74 22.496-5 19.63s-23.95-3.088-25.002-8.382c-1.053-5.294-11.055-25.584 1.052-25.584z"/><path fill="#858585" d="M47.41 83.707a.706.706 0 1 1 .907 1.08l-3.704 3.106a.704.704 0 1 1-.905-1.08l3.7-3.106zM31.09 86.076a.705.705 0 0 1 .993.086c.25.3.21.744-.087.994l-3.702 3.105a.705.705 0 1 1-.906-1.08l3.703-3.104zM45.56 99.962a.704.704 0 1 1 .906 1.08l-3.703 3.105a.706.706 0 0 1-.993-.086.706.706 0 0 1 .087-.994l3.702-3.106zM50.08 115.44a.704.704 0 1 1 1.4.143l-.49 4.808a.706.706 0 0 1-.773.632.706.706 0 0 1-.63-.774l.492-4.808zM51.386 129.694a.706.706 0 0 1 .92-.385c.36.148.532.56.383.92l-1.842 4.47a.706.706 0 0 1-1.303-.537l1.84-4.47zM30.82 99.698a.705.705 0 1 1 .907 1.08l-3.703 3.106a.705.705 0 0 1-.907-1.08L30.82 99.7z"/><path opacity=".2" d="M80.335 107.23c.503-.495.852-1.06 1.01-1.71.098-.407.265-.912.474-1.48.22-.324.388-.67.48-1.05.048-.2.113-.425.187-.663 1.598-3.917 4.226-9.71 4.862-14.353 1.12-5.26.61-9.826-4.97-10.07-.915-.04-28.66-1.903-28.542 12.81.003.343 0 .678-.004 1.013-.07.498-.113 1.01-.108 1.554.004.6-.003 1.184-.016 1.758-.403 6.2-1.605 10.655-1.404 13.167-.152 1.313-.197 2.372-.03 3.17-1.823 7.66-3.274 16.296-1.743 20.094 1.626 4.035 4.084 5.584 6.067 5.113 1.576.48 3.087-.192 4.015-1.846.712.157 1.47.312 2.284.465 12.36 2.35 26.727-.377 19.074-11.553-2.96-4.327-2.864-10.49-1.64-16.42z"/><path fill="#CA322B" d="M88.138 87.578s-12.108 24.478-3.685 35.53c8.423 11.057-6.316 14.478-19.213 12.635-12.897-1.842-13.423-3.947-11.318-27.372 1.636-18.204 21.395-20.67 30.12-20.866 2.502-.056 4.096.074 4.096.074z"/><path opacity=".1" d="M58.517 96.96l-.12.265s-5.175 18.21-5.265 29.135c.604 6.192 3.227 7.877 9.705 9.007.498-.965.806-2.216.806-3.753 0-6.994-3.206-18.943-1.75-29.726.653-4.825.428-7.193-.2-7.927a20.39 20.39 0 0 0-3.176 3zM77.256 135.832c3.28-1.568 5.597-4.37 3.144-10.34-4.372-10.637 3.206-35.7 2.914-36.136l2.684 3.17c-3.04 7.736-7.604 22.632-1.545 30.583 5.755 7.552.696 11.54-7.197 12.722z"/><path fill="#F4F4F4" d="M56.648 97.225s-7.87 27.686-4.372 35.264c3.497 7.576 9.617 6.118 9.617-.876s-3.206-18.943-1.75-29.726c1.46-10.784-1.455-9.326-3.495-4.663z"/><path opacity=".2" d="M82.276 79.067c-.933 0-29.217-.66-28.44 14.336.774 14.997-4.656 22.496 4.91 19.63 9.567-2.868 22.67-3.088 23.705-8.382 1.035-5.293 11.72-25.583-.174-25.583z"/><path fill="#F4F4F4" d="M82.8 76.444c-.948 0-29.74-.66-28.95 14.336.79 14.997-4.738 22.496 5 19.63s23.952-3.088 25.003-8.382c1.054-5.294 11.056-25.584-1.052-25.584z"/><path fill="#858585" d="M60.94 83.707a.706.706 0 1 0-.907 1.08l3.702 3.106a.705.705 0 0 0 .906-1.08l-3.702-3.106zM77.258 86.076a.705.705 0 1 0-.906 1.08l3.702 3.105a.705.705 0 1 0 .906-1.08l-3.702-3.104zM62.79 99.962a.705.705 0 1 0-.907 1.08l3.702 3.105c.298.25.743.21.993-.086.25-.3.21-.743-.087-.994l-3.7-3.106zM58.27 115.44a.705.705 0 1 0-1.402.143l.49 4.808c.04.388.386.67.773.632a.706.706 0 0 0 .63-.774l-.49-4.808zM56.96 129.694a.705.705 0 0 0-.918-.385.706.706 0 0 0-.383.92l1.84 4.47a.706.706 0 0 0 1.303-.537l-1.842-4.47zM77.528 99.698a.705.705 0 1 0-.907 1.08l3.702 3.106a.705.705 0 0 0 .907-1.08L77.528 99.7z"/><g><path opacity=".2" d="M80.324 33.162l-1.99-2.05C71.64 28.37 59.627 23.26 51.277 21.82l-.31 6.15.287.036-.166.153 24.237 7.56.84.603 4.16-3.158z"/><path fill="#FF7E00" d="M70.733 17.673c.81.272 17.188-.55 17.188-.55L72.716 28.394l-1.982-10.722zM65.615 15.953c-.81-.27-13.366-10.82-13.366-10.82L57.56 23.3l8.055-7.347z"/><path fill="#089704" d="M64.383 21.89c-.415-.777-2.913-17.775-2.913-17.775l-7.5 17.877 10.413-.1zM67.61 22.975c.8-.368 13.06-12.408 13.06-12.408l-4.822 18.778-8.237-6.37z"/><path fill="#FFB802" d="M87.922 17.122L74.245 21.7 73.16 2.9 59.576 16.997l-7.308-11.86-2.02 22.326.288.035-.167.152 25.794 8.668-.054-.288z"/><path fill="#DE9900" d="M87.922 17.122L74.245 21.7 73.16 2.9l-.252.26-9.683 28.813 12.94 4.347-.055-.288z"/><ellipse transform="rotate(18.576 66.56 22.067)" fill="#089704" cx="66.553" cy="22.069" rx="2.903" ry="3.116"/><path opacity=".1" d="M50.576 23.854l-.327 3.61.286.035-.167.152 25.794 8.668-.054-.288 1.858-2.972z"/><path fill="#FFD22D" d="M74.118 0c-.833 1.065-2.024 1.754-3.292 1.916.912.897 1.444 2.166 1.465 3.52.835-1.066 2.025-1.756 3.295-1.92C74.672 2.62 74.14 1.352 74.118 0z"/><path fill="#FF7600" d="M73.665 1.35a2.54 2.54 0 0 1-1.66.964c.462.452.73 1.092.74 1.772a2.54 2.54 0 0 1 1.66-.967 2.536 2.536 0 0 1-.74-1.77z"/></g><path opacity=".2" d="M69.348 77.39s6.274 25.388-43.667 38c-2.332 4.666-.166 6.5-4 11 22.334 1.167 63-12.333 62.834-49.5-4.666-1.5-15.166.5-15.166.5z"/><path fill="#0B7CB3" d="M68.18 77.057s8.44 23.72-41.5 36.333c-2.332 4.666-.166 6.5-4 11 22.334 1.167 61.834-14.334 61.668-48.167-4.667-1.5-16.167.834-16.167.834z"/><g><g fill="#FFF"><path d="M49.057 116.066l-.516-1.222c-1.1.466-1.66.686-2.785 1.102l-.383-1.037a51.653 51.653 0 0 0 1.26-5.004c.398-.17.596-.254.99-.43l1.708 3.814c.325-.146.487-.22.81-.37l.467 1.007c-.33.153-.494.23-.824.376.217.484.325.728.542 1.21-.505.228-.76.34-1.268.553zm-.95-2.245c-.35-.828-.527-1.242-.877-2.072a51.515 51.515 0 0 1-.653 2.697c.615-.242.923-.366 1.53-.624zM55.46 111.596l.582 1.02a55.555 55.555 0 0 1-4.427 2.304 2.93 2.93 0 0 1-.11-1.346c.068-.474.31-1.175.688-2.106.306-.75.463-1.244.493-1.474.04-.315-.005-.588-.125-.81-.133-.25-.306-.402-.516-.462s-.435-.024-.68.104c-.24.126-.397.294-.47.51s-.034.494.11.834c-.496.193-.747.284-1.245.467-.23-.66-.225-1.216.005-1.667.23-.45.61-.81 1.143-1.088.584-.306 1.12-.4 1.623-.278.504.12.887.403 1.145.856.147.258.24.532.273.82.034.29.016.622-.058 1-.05.25-.174.636-.383 1.163-.21.527-.344.873-.393 1.032-.05.16-.08.31-.094.443.99-.51 1.478-.773 2.44-1.322zM56.458 110.91c.48-.284.717-.43 1.19-.725.192.307.29.46.48.767.194.312.317.574.368.792.05.216.035.45-.048.697a2.11 2.11 0 0 1-.45.733c-.205-.12-.306-.18-.51-.302.21-.22.325-.425.354-.613.03-.19-.02-.395-.147-.615-.235.143-.352.216-.59.355-.257-.434-.388-.652-.647-1.087zM58.327 109.18c.417-.34.623-.514 1.03-.86.21.233.44.365.69.395s.485-.033.706-.188a.975.975 0 0 0 .42-.665c.044-.274-.035-.55-.23-.82-.188-.258-.41-.406-.667-.45a.925.925 0 0 0-.71.162 2.62 2.62 0 0 0-.457.433l-.46-.93c.3-.198.48-.42.545-.657a.772.772 0 0 0-.135-.675.712.712 0 0 0-.475-.312c-.188-.028-.372.024-.557.153a.8.8 0 0 0-.342.507c-.045.214 0 .448.132.706-.447.206-.672.308-1.12.506-.147-.38-.216-.716-.208-1.007.01-.292.097-.577.267-.855.17-.28.405-.52.706-.73.514-.36 1.036-.496 1.577-.407.445.074.793.27 1.038.596.348.463.02 1.706.02 1.706.017.016.74-.217 1.102-.138.364.08.667.275.908.592.35.46.465.996.33 1.605-.135.606-.496 1.122-1.076 1.528-.55.386-1.11.556-1.665.513a1.927 1.927 0 0 1-1.37-.71zM62.718 103.76c-.017-.02-.67.12-.943.028a1.423 1.423 0 0 1-.674-.48 1.597 1.597 0 0 1-.34-1.284c.074-.47.356-.902.846-1.313.485-.407.96-.61 1.437-.603.476.007.88.188 1.21.554.204.228.324.485.358.774.035.29-.17.88-.17.88.02.022.753-.184 1.093-.11.34.074.636.245.884.518.408.45.583.963.512 1.535s-.386 1.1-.942 1.568c-.516.435-1.054.668-1.598.7-.643.038-1.16-.205-1.56-.716-.22-.282-.345-.6-.38-.952-.035-.353.268-1.097.268-1.097zm1.098 1.105c.22.27.466.42.743.444a1 1 0 0 0 .755-.248c.22-.186.343-.414.364-.68s-.087-.53-.32-.798c-.202-.233-.434-.356-.7-.377a.977.977 0 0 0-.723.246c-.254.212-.376.45-.367.72.008.268.09.5.246.692zm-1.687-2.263c.16.195.34.3.545.312.205.013.405-.06.597-.222.194-.163.3-.35.324-.556s-.05-.406-.215-.596a.753.753 0 0 0-.538-.287c-.205-.013-.396.06-.58.217-.19.16-.3.34-.324.546a.77.77 0 0 0 .19.586zM66.918 98.047c-.42-.414-.64-.816-.658-1.203-.02-.39.126-.742.433-1.07.318-.34.667-.512 1.055-.52.388-.007.803.185 1.247.58.44.392.676.783.702 1.18.026.396-.123.772-.448 1.12-.337.36-.708.54-1.104.54-.396 0-.805-.21-1.228-.627zm.71-.743c.31.295.553.457.73.48.132.017.25-.024.345-.127a.384.384 0 0 0 .11-.354c-.036-.172-.217-.406-.532-.697s-.558-.448-.73-.474a.372.372 0 0 0-.343.123.373.373 0 0 0-.1.343c.034.173.21.41.52.706zm4.877 2.42c-.285.315-.428.47-.718.78-.944-3.063-1.49-4.55-2.72-7.426.237-.283.353-.428.585-.716 1.28 2.85 1.853 4.325 2.853 7.363zm.204-2.858c-.452-.38-.695-.77-.734-1.17-.04-.398.093-.783.397-1.16.305-.38.654-.595 1.052-.644.397-.05.83.102 1.3.46.472.36.734.743.78 1.15s-.09.808-.406 1.2c-.327.408-.697.633-1.103.676-.406.044-.835-.128-1.288-.512zm.69-.844c.332.27.59.41.77.417a.415.415 0 0 0 .348-.17.41.41 0 0 0 .094-.37c-.046-.178-.24-.403-.575-.67-.336-.264-.597-.403-.775-.41-.134-.006-.247.054-.34.168a.398.398 0 0 0-.086.366c.046.176.232.398.564.668z"/></g></g></svg>