<svg xmlns="http://www.w3.org/2000/svg" width="178.337" height="160.502" viewBox="0 0 178.337 160.502"><circle fill="#2B5B66" cx="94.868" cy="71.434" r="71"/><circle fill="#FFC85C" cx="61.497" cy="52.523" r="27.789"/><ellipse fill="#18B357" cx="96.202" cy="116.434" rx="59.667" ry="22.667"/><ellipse opacity=".1" cx="95.202" cy="106.767" rx="36.854" ry="4.334"/><circle fill="#FFDA89" cx="51.07" cy="85.411" r="12.489"/><path fill="#A88350" d="M57.812 104.91a.47.47 0 0 1-.31.588l-.228.07a.47.47 0 0 1-.588-.313l-5.374-17.453a.472.472 0 0 1 .312-.59l.226-.068a.47.47 0 0 1 .588.312l5.374 17.453z"/><path fill="#A88350" d="M52.218 87.15c.23.126.313.413.19.642l-.115.206a.47.47 0 0 1-.638.188l-6.932-3.78a.473.473 0 0 1-.188-.64l.113-.206a.472.472 0 0 1 .64-.188l6.93 3.78z"/><path fill="#A88350" d="M50.424 86.025a.472.472 0 0 1-.48.462l-.236-.006a.47.47 0 0 1-.462-.48l.166-7.892a.47.47 0 0 1 .48-.46l.236.004c.26.006.466.222.46.48l-.164 7.893zM46.822 84.706c.128-.052.312.1.41.34l.092.22c.1.24.075.477-.052.53l-3.87 1.6c-.13.053-.313-.1-.412-.34l-.09-.22c-.1-.24-.077-.478.05-.53l3.872-1.6zM53.13 80.902a.47.47 0 0 1 .298-.593l.225-.077a.472.472 0 0 1 .596.3l2.476 7.464a.472.472 0 0 1-.3.596l-.223.074a.472.472 0 0 1-.595-.3l-2.48-7.465z"/><path fill="#A88350" d="M57.203 79.73c.09-.132.337-.122.552.022l.196.133c.217.146.318.37.23.505l-2.72 4.033c-.09.133-.337.122-.554-.022l-.194-.13c-.217-.146-.32-.373-.23-.506l2.72-4.033zM59.083 83.9c.203-.263.536-.348.742-.188l.186.146c.207.16.208.5.004.765l-6.19 7.98c-.205.262-.537.346-.742.187l-.187-.145c-.205-.16-.207-.503-.004-.766l6.193-7.98zM49.02 93.124c-.168-.103-.192-.368-.056-.59l.124-.2c.136-.22.383-.316.55-.213l5.09 3.137c.168.104.192.367.056.588l-.123.2c-.136.223-.383.318-.55.215l-5.09-3.136z"/><path fill="#826235" d="M75.702 51.58l-.38-.3c-.423-.328-1.106-.153-1.523.386l-5.345 6.885-1.98-5.972 5.468-8.114c.185-.274-.023-.737-.466-1.036l-.403-.272c-.44-.297-.95-.315-1.132-.044l-4.43 6.565-1.634-4.922a.968.968 0 0 0-1.222-.613l-.46.156a.964.964 0 0 0-.615 1.217l5.087 15.32.008.01-4.246 5.47-2.24-7.27a.952.952 0 0 0-.478-.708l-3.74-2.04c.027-.088.058-.174.06-.27l.34-16.195a.97.97 0 0 0-.946-.986l-.483-.01a.966.966 0 0 0-.987.945l-.32 15.24-8.14-4.438a.966.966 0 0 0-1.313.387l-.232.425a.97.97 0 0 0 .39 1.31l2.495 1.363-6.134 2.534c-.26.108-.308.597-.103 1.09l.185.45c.202.492.58.804.844.696l7.938-3.283 8.445 4.604 4.02 13.063-7.606-4.688c-.345-.213-.853-.015-1.13.438l-.255.41c-.282.453-.23.998.115 1.208l9.954 6.137 5.774 18.757a.966.966 0 0 0 1.207.64l.465-.142a.964.964 0 0 0 .638-1.207l-7.89-25.635L75.71 53.15c.417-.542.416-1.244-.008-1.57z"/><path fill="#0B853D" d="M83.35 76.188l63.927-45.977-26.254 74.24z"/><path opacity=".1" d="M105.358 94.453l42.057-65.232-26.255 74.24z"/><circle fill="#FFAE5C" cx="140.397" cy="79.545" r="15.615"/><path fill="#A88350" d="M136.184 104.992a.59.59 0 0 1-.692.462l-.29-.06a.588.588 0 0 1-.46-.692l4.497-22.385a.59.59 0 0 1 .694-.462l.288.06a.59.59 0 0 1 .462.692l-4.5 22.385z"/><path fill="#A88350" d="M140.62 82.143c.18.273.1.64-.173.815l-.248.16a.586.586 0 0 1-.814-.175l-5.364-8.284a.59.59 0 0 1 .174-.817l.248-.16a.59.59 0 0 1 .815.176l5.36 8.283z"/><path fill="#A88350" d="M139.32 79.835a.59.59 0 0 1-.805.22l-.255-.146a.588.588 0 0 1-.22-.804l4.886-8.576a.59.59 0 0 1 .804-.22l.256.147c.282.16.38.52.22.803l-4.886 8.575zM136.148 76.238c.172.02.284.295.25.62l-.03.292c-.036.323-.202.57-.374.553l-5.208-.55c-.172-.018-.283-.295-.25-.617l.032-.294c.034-.323.2-.57.373-.554l5.208.55zM145.348 75.817a.59.59 0 0 1 .683-.474l.292.05a.59.59 0 0 1 .477.684l-1.73 9.682a.59.59 0 0 1-.683.475l-.29-.052a.59.59 0 0 1-.477-.683l1.728-9.683z"/><path fill="#A88350" d="M150.522 76.96c.178-.095.444.064.594.353l.137.262c.15.29.128.598-.05.69l-5.393 2.812c-.18.093-.444-.065-.596-.354l-.136-.26c-.15-.29-.13-.6.05-.69l5.394-2.814zM150.104 82.66c.38-.166.797-.06.927.237l.12.27c.13.3-.072.675-.453.843l-11.56 5.078c-.382.168-.797.062-.928-.236l-.12-.27c-.13-.298.073-.675.453-.843l11.56-5.08zM133.546 86.8c-.123-.214.008-.52.29-.68l.256-.147c.28-.162.61-.12.73.094l3.725 6.48c.123.212-.006.517-.29.68l-.254.146c-.282.162-.61.12-.732-.094l-3.724-6.48z"/><path fill="#1C1C1C" d="M120.67 101.87a6.542 6.542 0 0 1-6.545 6.54h-37.3a6.54 6.54 0 0 1-6.54-6.54V6.54A6.54 6.54 0 0 1 76.824 0h37.3a6.544 6.544 0 0 1 6.545 6.54v95.33z"/><path fill="#F55" d="M114.125.4c3.388 0 6.145 2.754 6.145 6.14v95.33a6.15 6.15 0 0 1-6.145 6.142h-37.3a6.15 6.15 0 0 1-6.142-6.143V6.54A6.148 6.148 0 0 1 76.825.4h37.3m0-.4h-37.3a6.54 6.54 0 0 0-6.54 6.54v95.33a6.54 6.54 0 0 0 6.54 6.54h37.3a6.542 6.542 0 0 0 6.545-6.54V6.54c0-3.61-2.93-6.54-6.545-6.54z"/><path fill="#FF5F5F" d="M117.617 93.342c0 .6-.487 1.09-1.093 1.09H74.428c-.602 0-1.092-.49-1.092-1.09v-75.48c0-.6.49-1.087 1.092-1.087h42.097a1.09 1.09 0 0 1 1.093 1.088v75.48z"/><path fill="#1D1D1B" d="M96.596 4.86a1.118 1.118 0 0 1-2.238 0 1.12 1.12 0 0 1 2.238 0z"/><path fill="#575756" d="M100.497 9.436c0 .605-.494 1.09-1.1 1.09h-7.845a1.093 1.093 0 0 1-1.096-1.09 1.1 1.1 0 0 1 1.096-1.096h7.846a1.1 1.1 0 0 1 1.1 1.096z"/><path opacity=".15" fill="#FFF" d="M70.435 101.87V6.54A6.54 6.54 0 0 1 76.975 0h37.3l-43.84 101.87z"/><path fill="#595959" d="M99.947 101.334c0 2.475-2 4.47-4.466 4.47a4.467 4.467 0 0 1-4.474-4.47 4.475 4.475 0 0 1 4.475-4.473 4.47 4.47 0 0 1 4.467 4.474z"/><g fill="#FFF"><path d="M80.176 58.583v-1.496H77.13V55.84l3.228-4.724h1.197v4.718h.924v1.253h-.925v1.496h-1.38zm0-2.75v-2.54l-1.71 2.54h1.71zM85.953 58.583v-1.496H82.91V55.84l3.227-4.724h1.197v4.718h.922v1.253h-.922v1.496h-1.38zm0-2.75v-2.54l-1.71 2.54h1.71zM89.205 57.157h1.426v1.02c0 .413-.034.738-.106.977a1.45 1.45 0 0 1-.402.642c-.2.19-.45.34-.754.447l-.28-.59c.288-.094.493-.224.614-.39.123-.166.188-.393.193-.68h-.69v-1.426zM91.77 56.61l1.382-.168c.043.352.162.62.355.807.19.185.426.278.7.278a.96.96 0 0 0 .74-.335c.202-.224.304-.524.304-.903 0-.358-.095-.643-.288-.853a.924.924 0 0 0-.705-.314c-.184 0-.4.036-.654.106l.156-1.162c.386.01.68-.073.882-.25s.305-.415.305-.71c0-.25-.074-.448-.224-.598-.147-.148-.347-.223-.593-.223a.853.853 0 0 0-.623.253c-.174.17-.277.416-.316.74l-1.31-.223c.09-.45.228-.81.41-1.078.187-.27.442-.48.772-.635s.7-.23 1.11-.23c.698 0 1.26.223 1.683.67.348.364.523.777.523 1.237 0 .652-.357 1.174-1.07 1.562.426.09.766.296 1.02.613.257.318.384.702.384 1.15 0 .654-.24 1.21-.715 1.67-.477.46-1.07.69-1.78.69-.673 0-1.23-.193-1.675-.58-.442-.385-.698-.892-.77-1.518zM102.43 52.968l-1.38.152c-.034-.284-.122-.494-.265-.63a.767.767 0 0 0-.553-.202c-.3 0-.555.135-.764.405-.207.27-.338.834-.393 1.69.354-.42.797-.63 1.324-.63.595 0 1.104.227 1.527.68.425.453.638 1.038.638 1.755 0 .76-.223 1.37-.67 1.83-.445.46-1.02.69-1.72.69-.75 0-1.368-.29-1.85-.874-.485-.584-.728-1.54-.728-2.87 0-1.36.252-2.344.756-2.946.504-.602 1.158-.902 1.963-.902.564 0 1.033.158 1.402.474.374.316.61.775.71 1.378zm-3.233 3.11c0 .462.106.82.32 1.072.213.252.456.378.73.378a.834.834 0 0 0 .66-.31c.176-.207.264-.545.264-1.015 0-.483-.095-.838-.284-1.062a.887.887 0 0 0-.71-.337c-.274 0-.505.107-.694.322s-.285.533-.285.952zM106.275 52.982c0-.666.146-1.16.44-1.48.29-.322.687-.482 1.188-.482.518 0 .922.16 1.215.48.29.318.438.813.438 1.482 0 .667-.146 1.16-.438 1.48-.293.322-.69.483-1.19.483-.517 0-.923-.16-1.214-.48-.292-.32-.44-.813-.44-1.483zm1.112-.01c0 .484.055.81.166.975.086.122.2.183.352.183.15 0 .27-.06.354-.183.108-.165.163-.49.163-.974s-.055-.807-.164-.97a.403.403 0 0 0-.355-.187c-.15 0-.266.06-.352.183-.112.164-.166.49-.166.973zm1.6 5.895h-1.054l3.963-7.848h1.023l-3.932 7.847zm2.306-1.953c0-.666.145-1.16.438-1.48s.694-.482 1.2-.482c.512 0 .914.16 1.205.48.293.322.44.816.44 1.482 0 .67-.147 1.165-.44 1.486-.29.32-.688.48-1.19.48-.517 0-.92-.16-1.214-.48s-.437-.816-.437-1.486zm1.11-.005c0 .482.056.806.167.968a.4.4 0 0 0 .35.188.4.4 0 0 0 .352-.183c.11-.165.166-.49.166-.974s-.053-.81-.162-.976c-.084-.12-.203-.183-.355-.183s-.267.063-.35.184c-.11.167-.168.492-.168.975z"/></g><path fill="#ECF9FF" d="M103.085 132.834c-4.04-.542-7.05-3.763-7.508-7.63a8.705 8.705 0 0 1-8.646-.223 11.923 11.923 0 0 1-15.007 3.71c-.315.223-.643.428-.978.617-.017.19-.036.38-.062.572-.908 6.77-7.133 11.524-13.906 10.616a12.323 12.323 0 0 1-7.464-3.9c-.47.14-.973.19-1.49.12a3.57 3.57 0 0 1-3.036-2.907 9.216 9.216 0 0 1-2.16-1.698 6.798 6.798 0 0 1-4.708 1.1 6.787 6.787 0 0 1-.82-.167 9.127 9.127 0 0 1-6.71 1.75 9.138 9.138 0 0 1-6.973-4.99 8.707 8.707 0 0 1-1.678-1.63 8.672 8.672 0 0 1-1.727-6.67 8.682 8.682 0 0 1 3.34-7.327c2.918-2.27 6.822-2.384 9.815-.59a6.716 6.716 0 0 1 6.334-2.714c1.062.143 2.03.53 2.862 1.095a5.255 5.255 0 0 1 8.916-2.753 5.228 5.228 0 0 1 2.66-.337 5.226 5.226 0 0 1 2.83 1.315 11.892 11.892 0 0 1 9.708-3.096c1.34.18 2.594.577 3.738 1.148a11.887 11.887 0 0 1 8.412-2.044 11.87 11.87 0 0 1 7.57 4.18 8.698 8.698 0 0 1 6.22-1.546c4.037.542 7.05 3.763 7.51 7.63a8.7 8.7 0 0 1 5.28-.963c4.786.643 8.145 5.04 7.503 9.825a8.74 8.74 0 0 1-9.825 7.504z"/><path fill="#FFF" d="M168.036 140.23c-4.79-.01-8.797-4.16-9.926-9.758-1.693 1.538-3.765 2.45-6.01 2.447-1.46-.003-2.846-.395-4.102-1.09-2.37 5.573-7.03 9.36-12.39 9.35a11.403 11.403 0 0 1-4.534-.957c-.334.385-.683.752-1.045 1.095.01.283.016.567.015.853-.017 10.138-6.54 18.347-14.576 18.333-3.543-.006-6.783-1.615-9.3-4.277a3.452 3.452 0 0 1-1.72.466c-1.867-.003-3.447-1.55-3.985-3.683a10.602 10.602 0 0 1-2.78-2.075c-1.42 1.577-3.277 2.54-5.318 2.538-.333 0-.658-.036-.98-.086-1.948 2.406-4.613 3.89-7.554 3.886-3.706-.006-6.965-2.38-8.895-5.98a10.78 10.78 0 0 1-2.207-2.07c-2.087-2.596-3.094-6.045-3.036-9.473-.59-4.01.326-8.304 2.768-11.43 3.05-3.91 7.586-4.84 11.35-2.783 1.34-3.12 3.957-5.234 6.965-5.23 1.262.003 2.448.385 3.505 1.05.156-4.142 2.865-7.444 6.184-7.44 1.43.004 2.74.624 3.785 1.652.903-.646 1.943-1.016 3.052-1.014 1.302 0 2.507.513 3.502 1.38 2.577-3.94 6.476-6.455 10.84-6.448 1.587.003 3.11.344 4.533.96 2.5-2.89 5.834-4.655 9.49-4.65 3.655.008 6.978 1.778 9.47 4.67 1.84-2.16 4.3-3.49 7.01-3.485 4.79.008 8.797 4.155 9.93 9.755 1.69-1.537 3.76-2.452 6.005-2.447 5.678.01 10.27 5.825 10.257 12.988-.015 7.16-4.626 12.96-10.304 12.95z"/><path fill="#FFF" d="M85.33 150.412c-4.128-1.578-6.503-5.727-6.024-9.922a9.413 9.413 0 0 1-5.813-.3 9.408 9.408 0 0 1-3.254-2.09 12.923 12.923 0 0 1-16.764.178c-.388.155-.782.29-1.185.407-.063.195-.132.392-.206.587-2.646 6.92-10.398 10.386-17.32 7.74a13.326 13.326 0 0 1-6.904-5.973 3.858 3.858 0 0 1-4.082-4.07 10.04 10.04 0 0 1-1.86-2.33 7.373 7.373 0 0 1-5.24-.01c-.286-.11-.558-.24-.823-.382a9.9 9.9 0 0 1-7.518.176 9.917 9.917 0 0 1-6.115-7.004 9.423 9.423 0 0 1-1.363-2.14 9.395 9.395 0 0 1-.16-7.466 9.418 9.418 0 0 1 5.35-6.902c3.645-1.67 7.793-.815 10.504 1.824a7.283 7.283 0 0 1 7.36-1.287 7.24 7.24 0 0 1 2.748 1.866 5.702 5.702 0 0 1 7.26-3.053 5.68 5.68 0 0 1 2.834 2.37 5.673 5.673 0 0 1 2.893.308 5.675 5.675 0 0 1 2.66 2.094 12.895 12.895 0 0 1 11.013-.85 12.85 12.85 0 0 1 3.658 2.145 12.887 12.887 0 0 1 9.388-.063 12.887 12.887 0 0 1 6.95 6.297 9.428 9.428 0 0 1 6.946-.08c4.126 1.575 6.503 5.724 6.024 9.92a9.432 9.432 0 0 1 5.812.3c4.892 1.87 7.34 7.348 5.47 12.237a9.48 9.48 0 0 1-12.24 5.472z"/></svg>