<svg xmlns="http://www.w3.org/2000/svg" width="178.326" height="187.626" viewBox="0 0 178.326 187.626"><path fill="#B08E76" d="M20.374 52.788c1.44 1.516 3.392.495 5.28-1.302 1.896-1.8 3.016-3.697 1.574-5.21-1.44-1.515-7.93-5.79-9.82-3.995-1.89 1.8 1.528 8.998 2.966 10.508zM39.05 18.575c.23 1.875 2.2 2.182 4.538 1.89 2.344-.29 4.178-1.067 3.94-2.94-.23-1.876-2.654-8.47-4.992-8.18-2.34.29-3.722 7.36-3.487 9.23zM55.922 9.715c.026 1.89 1.948 2.41 4.305 2.376 2.362-.032 4.27-.603 4.24-2.492-.025-1.89-1.713-8.71-4.068-8.676-2.358.034-4.506 6.91-4.478 8.793zM72.82 23.128c-.325 1.86 1.468 2.728 3.79 3.13 2.327.405 4.308.196 4.628-1.665.324-1.862-.073-8.877-2.394-9.278-2.323-.403-5.704 5.956-6.025 7.813zM96.89 28.322c.4 1.846 2.386 1.977 4.69 1.48 2.308-.5 4.065-1.44 3.662-3.285-.4-1.847-3.402-8.2-5.704-7.698-2.304.496-3.05 7.66-2.648 9.502zM109.253 15.284c.293 1.865 2.27 2.108 4.598 1.742 2.334-.37 4.142-1.206 3.844-3.07-.293-1.867-2.93-8.38-5.257-8.01-2.33.365-3.48 7.475-3.184 9.338zM124.12 8.947c.094 1.886 2.033 2.34 4.387 2.224 2.36-.117 4.246-.756 4.15-2.643-.093-1.887-2.02-8.644-4.373-8.525-2.353.115-4.258 7.06-4.163 8.945zM138.362 19.2c-.228 1.875 1.606 2.65 3.945 2.937 2.345.283 4.313-.026 4.538-1.9.23-1.876-.523-8.862-2.862-9.145-2.34-.287-5.395 6.237-5.62 8.11zM159.813 46.183c-1.02 1.59.295 3.084 2.277 4.358 1.99 1.275 3.896 1.852 4.913.26 1.02-1.59 3.38-8.208 1.396-9.478-1.983-1.275-7.57 3.273-8.587 4.86z"/><path fill="#EBEBEB" d="M55.69 152.405c3.93-1.06 6.432-4.873 6.3-9.082 1.68.715 3.552.907 5.392.41a8.078 8.078 0 0 0 3.16-1.672c2.998 3.423 7.538 5.076 11.935 3.893a11.024 11.024 0 0 0 3.537-1.674c.347.198.702.38 1.064.543.045.203.094.405.148.605 1.93 7.167 8.835 11.54 15.425 9.764 2.906-.783 5.26-2.634 6.822-5.07.488.097.996.087 1.498-.048 1.533-.413 2.536-1.854 2.576-3.48.73-.59 1.37-1.288 1.89-2.078 1.46.804 3.167 1.078 4.84.626a6.35 6.35 0 0 0 .79-.274c2.053 1.274 4.52 1.736 6.93 1.087 3.04-.818 5.266-3.213 6.168-6.185a8.718 8.718 0 0 0 1.42-1.95c1.222-2.294 1.395-4.954.7-7.365-.274-2.965-1.836-5.802-4.43-7.478-3.244-2.094-7.14-1.753-9.84.526-1.688-1.91-4.235-2.834-6.702-2.17a6.24 6.24 0 0 0-2.677 1.516c-.912-2.897-3.758-4.638-6.48-3.904-1.172.316-2.13 1.043-2.794 2a4.907 4.907 0 0 0-2.693-.048 4.944 4.944 0 0 0-2.612 1.747c-2.86-2.222-6.533-3.143-10.11-2.178-1.304.35-2.49.926-3.54 1.674-2.6-1.492-5.667-2.01-8.667-1.2-2.996.807-5.388 2.79-6.884 5.382-1.918-1.123-4.188-1.524-6.41-.925-3.93 1.06-6.433 4.872-6.302 9.08-1.68-.714-3.55-.905-5.39-.41-4.658 1.254-7.325 6.377-5.96 11.44 1.364 5.064 6.243 8.152 10.9 6.898z"/><path fill="#D1B39A" d="M120.067 73.36c-8.595.017-15.124-6.896-14.896 1.556l-1.85 59.425 31.56 15.91 1.16-61.635c-.223-8.446-7.373-15.276-15.973-15.255z"/><path fill="#D1B39A" d="M100.796 73.11c-.004 12.45 9.99 22.498 22.317 22.445 12.328-.05 22.322-10.184 22.325-22.633l.003-16.432c0-12.446-9.992-9.815-22.32-9.763-12.33.052-22.32-2.492-22.325 9.955v16.43z"/><path fill="#D1B39A" d="M137.54 19.48c.278-3.294 2.872-5.775 5.793-5.542 2.924.236 5.066 3.095 4.79 6.39l-2.64 33.038c-.278 3.293-2.872 5.775-5.794 5.54-2.925-.23-5.064-3.094-4.784-6.387l2.633-33.04zM123.012 9.235c0-3.307 2.38-6 5.307-6.01 2.933-.012 5.308 2.656 5.308 5.964l.262 43.83c0 3.305-2.378 5.997-5.31 6.01-2.93.012-5.307-2.66-5.305-5.966l-.263-43.83z"/><path opacity=".3" fill="#70462D" d="M143.016 84.65c-7.878 3.07-15.77.614-17.627-5.48-1.86-6.095 3.022-13.522 10.9-16.59 7.878-3.066 15.768-.612 17.628 5.483 1.856 6.094-3.023 13.52-10.902 16.588z"/><path fill="#D1B39A" d="M108.37 15.25c-.274-3.297 1.868-6.18 4.788-6.435 2.92-.256 5.51 2.205 5.787 5.5l3.62 40.465c.274 3.295-1.87 6.175-4.788 6.43-2.92.26-5.512-2.203-5.787-5.498l-3.62-40.463zM126.677 86.746c-3.974-5.273-1.482-14.067 5.565-19.643 3.972-3.14 8.543-4.59 12.488-4.312l12.682-16.25c1.99-2.55 5.628-2.943 8.128-.875 2.503 2.064 2.915 5.807.925 8.356l-7.098 9.098c-3.714 6.426-2.568 6.176-5.74 13.237-.122.273-.25.535-.378.8-1.133 3.258-3.392 6.486-6.62 9.042-7.046 5.575-15.98 5.82-19.953.55z"/><path fill="#E0E0E0" d="M100.84 145.23l-.09-40.23 40.768-.09.09 40.23z"/><path fill="#D1B39A" d="M96.077 27.69c-.523-3.067 1.252-5.942 3.97-6.42 2.717-.477 5.343 1.623 5.87 4.69l5.542 31.5c.525 3.065-1.254 5.94-3.97 6.416-2.716.477-5.345-1.623-5.87-4.69L96.077 27.69zM58.52 73.36c8.595.017 15.124-6.896 14.897 1.556l1.85 59.425-31.558 15.91-1.162-61.635C42.77 80.17 49.92 73.34 58.52 73.36z"/><path fill="#D1B39A" d="M78.382 73.443c.082 12.547-2.623 18.312-15.09 18.182v4.35c-12.464-.13-22.635-10.402-22.715-22.95l-.105-16.56c-.078-12.544 10.042-9.83 22.51-9.7 12.467.13 15.736-2.56 15.82 9.986l-.42 16.693z"/><path fill="#D1B39A" d="M48.626 18.76c-.273-3.293-2.864-5.778-5.786-5.55-2.924.232-5.07 3.087-4.798 6.383l2.59 33.042c.272 3.294 2.86 5.778 5.784 5.548 2.925-.226 5.07-3.085 4.793-6.38L48.625 18.76zM65.725 10.685c0-3.308-2.38-6.002-5.308-6.01-2.933-.013-5.31 2.656-5.31 5.963l-.26 43.832c-.002 3.305 2.377 5.996 5.308 6.01 2.93.012 5.308-2.66 5.306-5.966l.265-43.83z"/><path opacity=".3" fill="#70462D" d="M42.82 84.65c7.878 3.07 15.77.614 17.628-5.48 1.86-6.095-3.022-13.522-10.9-16.59-7.88-3.066-15.77-.612-17.63 5.483-1.855 6.094 3.025 13.52 10.903 16.588z"/><path fill="#D1B39A" d="M82.545 24.828c.396-3.283-1.638-6.242-4.545-6.606-2.91-.365-5.59 2-5.988 5.28l-5.12 40.304c-.397 3.28 1.638 6.24 4.545 6.604 2.907.365 5.59-1.998 5.987-5.28l5.12-40.302zM59.16 86.746c3.974-5.273 1.482-14.067-5.565-19.643-3.97-3.14-8.542-4.59-12.488-4.312l-12.68-16.25c-1.99-2.55-5.63-2.942-8.13-.874-2.502 2.064-2.915 5.807-.924 8.356l7.097 9.097c3.714 6.425 2.57 6.175 5.74 13.236.122.273.25.535.378.8 1.133 3.258 3.39 6.486 6.618 9.042 7.047 5.574 15.98 5.82 19.954.548z"/><path fill="#E0E0E0" d="M36.985 145.13l.088-40.23 40.768.09-.087 40.23z"/><circle fill="#FFF" cx="52.842" cy="46.511" r="1.993"/><circle fill="#FFF" cx="67.294" cy="46.511" r="1.767"/><circle fill="#FFF" cx="110.362" cy="46.785" r=".799"/><circle fill="#FFF" cx="122.555" cy="46.763" r=".701"/><circle fill="#FFF" cx="134.606" cy="46.582" r=".792"/><path fill="#FFF" d="M93 177.547c4.125-1.578 6.5-5.727 6.022-9.922 1.858.495 3.88.44 5.813-.3a9.408 9.408 0 0 0 3.254-2.09 12.923 12.923 0 0 0 16.763.178c.387.155.783.29 1.184.407.065.195.133.392.208.587 2.646 6.92 10.398 10.386 17.32 7.74a13.334 13.334 0 0 0 6.904-5.973c.53.03 1.073-.044 1.6-.246a3.87 3.87 0 0 0 2.482-3.824 10.04 10.04 0 0 0 1.86-2.33c1.63.612 3.482.662 5.24-.01.286-.11.558-.24.823-.38a9.896 9.896 0 0 0 7.517.175 9.912 9.912 0 0 0 6.115-7.005c.535-.636 1-1.346 1.363-2.14a9.395 9.395 0 0 0 .16-7.466 9.416 9.416 0 0 0-5.35-6.903c-3.645-1.67-7.793-.815-10.504 1.824a7.283 7.283 0 0 0-7.36-1.286 7.24 7.24 0 0 0-2.748 1.867 5.702 5.702 0 0 0-7.26-3.052 5.676 5.676 0 0 0-2.834 2.37 5.67 5.67 0 0 0-2.892.308 5.675 5.675 0 0 0-2.66 2.093 12.896 12.896 0 0 0-11.014-.85 12.87 12.87 0 0 0-3.66 2.144 12.887 12.887 0 0 0-9.386-.062 12.894 12.894 0 0 0-6.95 6.297 9.428 9.428 0 0 0-6.946-.082c-4.126 1.576-6.503 5.725-6.025 9.92a9.432 9.432 0 0 0-5.81.3c-4.892 1.87-7.34 7.35-5.47 12.238a9.478 9.478 0 0 0 12.24 5.47z"/><path opacity=".2" d="M131.77 41.883c-4.254.86-7.228 4.514-7.44 8.683a9.233 9.233 0 0 0-9.178.837c-2.892-3.528-7.572-5.384-12.334-4.424-1.41.284-2.716.798-3.893 1.486-.35-.213-.712-.41-1.083-.59a15.078 15.078 0 0 0-.107-.606c-1.448-7.183-8.406-11.84-15.545-10.4a13.063 13.063 0 0 0-7.658 4.687 3.777 3.777 0 0 0-1.593-.025 3.81 3.81 0 0 0-3.024 3.32 9.798 9.798 0 0 0-2.177 1.967 7.22 7.22 0 0 0-5.086-.855c-.295.06-.58.142-.86.234a9.7 9.7 0 0 0-7.262-1.41c-3.292.664-5.853 2.927-7.058 5.823a9.237 9.237 0 0 0-1.668 1.86c-1.488 2.21-1.895 4.835-1.36 7.255.043 2.947 1.464 5.828 4.076 7.61a9.22 9.22 0 0 0 10.48-.046 7.15 7.15 0 0 0 6.928 2.465 7.08 7.08 0 0 0 2.967-1.367c.724 2.908 3.598 4.768 6.547 4.173a5.548 5.548 0 0 0 3.13-1.845c.892.296 1.87.373 2.854.176a5.537 5.537 0 0 0 2.916-1.604c2.848 2.336 6.667 3.425 10.545 2.643a12.586 12.586 0 0 0 3.893-1.488 12.606 12.606 0 0 0 9.09 1.606c3.247-.654 5.95-2.5 7.755-4.994a9.24 9.24 0 0 0 6.722 1.225c4.257-.858 7.23-4.51 7.444-8.68a9.218 9.218 0 0 0 5.683.664c5.045-1.017 8.304-5.956 7.28-11.032-1.024-5.075-5.94-8.364-10.986-7.35z"/><path fill="#ECF9FF" d="M126.77 35.883c-4.254.86-7.228 4.514-7.44 8.683a9.233 9.233 0 0 0-9.178.837c-2.892-3.528-7.572-5.384-12.334-4.424-1.41.284-2.716.798-3.893 1.486-.35-.213-.712-.41-1.083-.59a15.078 15.078 0 0 0-.107-.606c-1.448-7.183-8.406-11.84-15.545-10.4a13.063 13.063 0 0 0-7.658 4.687 3.777 3.777 0 0 0-1.593-.025 3.81 3.81 0 0 0-3.024 3.32 9.798 9.798 0 0 0-2.177 1.967 7.22 7.22 0 0 0-5.086-.855c-.295.06-.58.142-.86.234a9.7 9.7 0 0 0-7.262-1.41c-3.292.664-5.853 2.927-7.058 5.823a9.237 9.237 0 0 0-1.668 1.86c-1.488 2.21-1.895 4.835-1.36 7.255.043 2.947 1.464 5.828 4.076 7.61a9.22 9.22 0 0 0 10.48-.046 7.15 7.15 0 0 0 6.928 2.465 7.08 7.08 0 0 0 2.967-1.367c.724 2.908 3.598 4.768 6.547 4.173a5.548 5.548 0 0 0 3.13-1.845c.892.296 1.87.373 2.854.176a5.537 5.537 0 0 0 2.916-1.604c2.848 2.336 6.667 3.425 10.545 2.643a12.586 12.586 0 0 0 3.893-1.488 12.606 12.606 0 0 0 9.09 1.606c3.247-.654 5.95-2.5 7.755-4.994a9.24 9.24 0 0 0 6.722 1.225c4.257-.858 7.23-4.51 7.444-8.68a9.218 9.218 0 0 0 5.683.664c5.045-1.017 8.304-5.956 7.28-11.032-1.024-5.075-5.94-8.364-10.986-7.35z"/><path fill="#FFF" d="M131.77 39.883c-4.254.86-7.228 4.514-7.44 8.683a9.233 9.233 0 0 0-9.178.837c-2.892-3.528-7.572-5.384-12.334-4.424-1.41.284-2.716.798-3.893 1.486-.35-.213-.712-.41-1.083-.59a15.078 15.078 0 0 0-.107-.606c-1.448-7.183-8.406-11.84-15.545-10.4a13.063 13.063 0 0 0-7.658 4.687 3.777 3.777 0 0 0-1.593-.025 3.81 3.81 0 0 0-3.024 3.32 9.798 9.798 0 0 0-2.177 1.967 7.22 7.22 0 0 0-5.086-.855c-.295.06-.58.142-.86.234a9.7 9.7 0 0 0-7.262-1.41c-3.292.664-5.853 2.927-7.058 5.823a9.237 9.237 0 0 0-1.668 1.86c-1.488 2.21-1.895 4.835-1.36 7.255.043 2.947 1.464 5.828 4.076 7.61a9.22 9.22 0 0 0 10.48-.046 7.15 7.15 0 0 0 6.928 2.465 7.08 7.08 0 0 0 2.967-1.367c.724 2.908 3.598 4.768 6.547 4.173a5.548 5.548 0 0 0 3.13-1.845c.892.296 1.87.373 2.854.176a5.537 5.537 0 0 0 2.916-1.604c2.848 2.336 6.667 3.425 10.545 2.643a12.586 12.586 0 0 0 3.893-1.488 12.606 12.606 0 0 0 9.09 1.606c3.247-.654 5.95-2.5 7.755-4.994a9.24 9.24 0 0 0 6.722 1.225c4.257-.858 7.23-4.51 7.444-8.68a9.218 9.218 0 0 0 5.683.664c5.045-1.017 8.304-5.956 7.28-11.032-1.024-5.075-5.94-8.364-10.986-7.35z"/><path fill="#FFF" d="M121.117 44.083l-.022-.012c-.028-.183-.06-.363-.096-.544-1.3-6.446-7.545-10.626-13.953-9.335a11.71 11.71 0 0 0-6.873 4.21 3.404 3.404 0 0 0-1.43-.024 3.42 3.42 0 0 0-2.713 2.98 8.775 8.775 0 0 0-1.953 1.765 6.478 6.478 0 0 0-4.564-.765c-.265.053-.52.127-.773.21a8.708 8.708 0 0 0-6.516-1.265c-2.955.597-5.253 2.627-6.335 5.227a8.314 8.314 0 0 0-1.498 1.67 8.372 8.372 0 0 0-1.22 6.51 8.386 8.386 0 0 0 3.658 6.83 8.28 8.28 0 0 0 9.405-.04 6.42 6.42 0 0 0 6.218 2.212 6.354 6.354 0 0 0 2.663-1.23c.65 2.61 3.23 4.28 5.875 3.746a4.98 4.98 0 0 0 2.81-1.655 4.993 4.993 0 0 0 5.18-1.28c2.554 2.097 5.982 3.073 9.462 2.37.946-.19 1.84-.495 2.672-.895V44.083z"/><g fill="#009DE1"><path d="M59.856 49.375V46.69h9.886v2.1c-.816.8-1.646 1.953-2.49 3.455s-1.485 3.1-1.928 4.79-.66 3.2-.653 4.53h-2.787c.048-2.085.48-4.21 1.29-6.378.814-2.167 1.9-4.104 3.257-5.812h-6.574zM71.573 49.375V46.69h9.886v2.1c-.817.8-1.647 1.953-2.49 3.455s-1.486 3.1-1.93 4.79-.66 3.2-.652 4.53H73.6c.048-2.085.48-4.21 1.29-6.378.814-2.167 1.9-4.104 3.257-5.812h-6.574zM98.937 50.177l-2.798.31c-.07-.577-.248-1.002-.536-1.276s-.662-.41-1.122-.41c-.61 0-1.126.273-1.548.822-.422.55-.688 1.69-.797 3.426.72-.85 1.615-1.275 2.685-1.275 1.207 0 2.24.46 3.102 1.378.86.92 1.29 2.106 1.29 3.56 0 1.544-.452 2.782-1.357 3.715s-2.068 1.398-3.487 1.398c-1.523 0-2.775-.59-3.755-1.774-.98-1.184-1.47-3.123-1.47-5.818 0-2.764.51-4.756 1.532-5.977s2.35-1.83 3.98-1.83c1.147 0 2.095.32 2.846.96s1.228 1.572 1.434 2.792zm-6.553 6.306c0 .94.216 1.665.648 2.176.433.51.926.766 1.482.766.535 0 .98-.21 1.337-.628.358-.418.536-1.104.536-2.057 0-.98-.192-1.698-.576-2.154s-.864-.685-1.44-.685c-.556 0-1.025.22-1.41.654s-.576 1.078-.576 1.93zM110.624 58.88v2.685H100.49a6.98 6.98 0 0 1 .988-2.886c.55-.91 1.632-2.115 3.25-3.617 1.304-1.214 2.103-2.036 2.397-2.47.398-.596.597-1.186.597-1.77 0-.644-.173-1.14-.52-1.485-.346-.346-.825-.52-1.435-.52-.604 0-1.083.182-1.44.546-.357.363-.562.967-.617 1.81l-2.88-.287c.17-1.592.71-2.733 1.615-3.426s2.037-1.038 3.395-1.038c1.488 0 2.657.4 3.508 1.203.85.803 1.276 1.8 1.276 2.994a5.21 5.21 0 0 1-.365 1.937c-.245.614-.63 1.257-1.158 1.93-.35.445-.98 1.087-1.893 1.923-.913.837-1.49 1.393-1.734 1.667s-.44.542-.59.803h5.738zM117.464 46.422c1.46 0 2.603.52 3.426 1.563.98 1.234 1.47 3.28 1.47 6.142 0 2.853-.493 4.903-1.48 6.15-.816 1.03-1.955 1.544-3.416 1.544-1.468 0-2.65-.562-3.55-1.69-.897-1.13-1.347-3.14-1.347-6.034 0-2.84.494-4.883 1.48-6.13.818-1.03 1.956-1.544 3.417-1.544zm0 2.397c-.35 0-.662.11-.936.334s-.487.622-.638 1.198c-.2.747-.298 2.006-.298 3.775s.09 2.985.268 3.646c.178.662.403 1.103.674 1.322.27.22.58.33.93.33.35 0 .663-.112.938-.335.274-.224.487-.623.638-1.2.2-.74.298-1.994.298-3.764s-.09-2.985-.268-3.646c-.178-.662-.403-1.104-.674-1.327s-.582-.334-.932-.334z"/></g><path opacity=".34" fill="#999" d="M140.765 104.997c-.117-.543.12-8.074-.237-7.71-.353.362-5.312 5.806-5.312 5.806L132.5 97.83l-2.3 3.628-1.182-8.164-5.376 7.53-2.834-2.722s-.732 3.447-.732 3.084c0-.362-2.07-8.345-2.543-9.617-.473-1.27-5.7 8.98-5.7 8.98s-4.724-2.27-4.607-2.54c.12-.27-2.48 3.176-2.48 3.176l-1.652.182-.708 2.54-1.89 1.452 40.27-.363z"/><path fill="#E0E0E0" d="M141.732 105.995c-.123-.543.12-8.074-.243-7.713-.364.363-5.46 5.807-5.46 5.807l-2.79-5.263-3.396 3.63-1.214-8.528-4.486 7.892-2.91-2.72s-2.306 3.81-2.306 3.446-1.092-8.71-1.577-9.98c-.484-1.27-5.337 8.982-5.337 8.982s-4.852-2.27-4.73-2.54c.122-.272-2.548 3.175-2.548 3.175l-1.698.182-.728 2.54-1.94 1.45 41.362-.362z"/><path opacity=".34" fill="#999" d="M76.765 104.997c-.114-.543.116-8.074-.23-7.71-.345.362-5.18 5.806-5.18 5.806l-2.65-5.264-2.242 3.628-1.153-8.164-5.243 7.53-2.764-2.722s-.713 3.447-.713 3.084c0-.362-2.018-8.345-2.48-9.617-.46-1.27-5.557 8.98-5.557 8.98s-4.607-2.27-4.493-2.54c.116-.27-2.417 3.176-2.417 3.176l-1.612.182-.69 2.54-1.843 1.452 39.268-.363z"/><path fill="#E0E0E0" d="M77.732 105.995c-.123-.543.12-8.074-.243-7.713-.364.363-5.46 5.807-5.46 5.807l-2.79-5.263-3.396 3.63-1.214-8.528-4.486 7.892-2.91-2.722s-2.305 3.81-2.305 3.447-1.093-8.71-1.578-9.98c-.485-1.27-5.338 8.982-5.338 8.982s-4.852-2.27-4.73-2.542c.122-.27-2.548 3.176-2.548 3.176l-1.698.182-.728 2.54-1.94 1.45 41.362-.36z"/><path opacity=".34" fill="#999" d="M100.74 106.01l.09 39.23 7.6-.017-1.09-46.228zM70.74 105.51l.09 39.23 7.6-.017-1.09-46.228z"/><path fill="#ECF9FF" d="M38.72 155.73c5.548 0 10.194-3.8 11.513-8.937a11.83 11.83 0 0 0 6.953 2.256c1.69 0 3.297-.358 4.752-.994 2.732 5.116 8.123 8.6 14.33 8.6 1.837 0 3.602-.312 5.25-.874.385.354.79.69 1.207 1.007-.012.258-.02.52-.02.78 0 9.3 7.538 16.843 16.842 16.843 4.1 0 7.855-1.473 10.776-3.91.607.273 1.28.43 1.988.43a4.86 4.86 0 0 0 4.625-3.372 12.614 12.614 0 0 0 3.224-1.898 9.258 9.258 0 0 0 6.15 2.336c.385 0 .763-.03 1.137-.076a12.422 12.422 0 0 0 8.736 3.576c4.292 0 8.07-2.172 10.312-5.474a11.862 11.862 0 0 0 2.56-1.896 11.8 11.8 0 0 0 3.534-8.686c.69-3.677-.36-7.62-3.182-10.49-3.526-3.594-8.774-4.452-13.136-2.573a9.145 9.145 0 0 0-8.055-4.81 9.11 9.11 0 0 0-4.06.96c-.174-3.803-3.303-6.835-7.147-6.835a7.12 7.12 0 0 0-4.386 1.508 7.113 7.113 0 0 0-3.53-.936 7.12 7.12 0 0 0-4.058 1.263c-2.976-3.62-7.484-5.934-12.537-5.934-1.84 0-3.605.31-5.252.873a16.18 16.18 0 0 0-10.98-4.28 16.17 16.17 0 0 0-10.972 4.27 11.846 11.846 0 0 0-8.11-3.21c-5.548 0-10.196 3.8-11.515 8.935a11.83 11.83 0 0 0-6.95-2.254c-6.575 0-11.902 5.328-11.902 11.9 0 6.573 5.328 11.9 11.903 11.9z"/><path fill="#FFF" d="M12.972 167.264c6.046 0 11.11-4.143 12.547-9.74a12.925 12.925 0 0 0 12.758 1.376c2.977 5.577 8.852 9.372 15.617 9.372 2.003 0 3.926-.338 5.722-.95.42.385.86.752 1.315 1.096-.013.283-.02.567-.02.853 0 10.138 8.215 18.357 18.355 18.357 4.47 0 8.562-1.604 11.745-4.263.662.3 1.394.47 2.167.47a5.298 5.298 0 0 0 5.04-3.676 13.722 13.722 0 0 0 3.513-2.07 10.086 10.086 0 0 0 6.704 2.547c.42 0 .832-.034 1.24-.083a13.543 13.543 0 0 0 9.522 3.897c4.676 0 8.794-2.37 11.238-5.967a12.87 12.87 0 0 0 2.79-2.067c2.64-2.592 3.918-6.038 3.852-9.466.752-4.01-.393-8.305-3.467-11.436-3.843-3.914-9.563-4.85-14.317-2.803a9.966 9.966 0 0 0-8.78-5.24c-1.59 0-3.09.382-4.425 1.045-.187-4.143-3.598-7.45-7.787-7.45a7.76 7.76 0 0 0-4.78 1.646 7.76 7.76 0 0 0-3.848-1.02 7.76 7.76 0 0 0-4.422 1.377c-3.244-3.946-8.158-6.468-13.665-6.468-2.004 0-3.928.338-5.725.952a17.625 17.625 0 0 0-11.967-4.665c-4.61 0-8.81 1.765-11.958 4.652a12.91 12.91 0 0 0-8.84-3.498c-6.045 0-11.11 4.14-12.55 9.737a12.89 12.89 0 0 0-7.574-2.458C5.806 141.322 0 147.13 0 154.292c0 7.166 5.806 12.972 12.972 12.972z"/></svg>