<svg xmlns="http://www.w3.org/2000/svg" width="133.748" height="139.082" viewBox="0 0 133.748 139.082"><ellipse fill="#F4F4F4" cx="67.106" cy="134.502" rx="46.386" ry="4.58"/><path fill="#C4C4C4" d="M90.81 132.166c-13.235-.514-7.397-18.29-7.397-18.29l-14.633-.456-.01-.06-.95.03-.95-.03-.01.06-14.632.457s5.84 17.775-7.394 18.29c-13.233.515-.39 2.382-.39 2.382l23.375-.556 24.233 1.236c.002 0 11.986-2.548-1.244-3.064z"/><path fill="#C4C4C4" d="M90.81 132.166c-13.235-.514-7.397-18.29-7.397-18.29l-14.633-.456-.01-.06-.95.03-.95-.03-.01.06-14.632.457s5.84 17.775-7.394 18.29c-13.233.515-.39 2.382-.39 2.382l23.375-.556 24.233 1.236c.002 0 11.986-2.548-1.244-3.064z"/><path fill="#D8D8D8" d="M97.528 134.143c0 .783-.646 1.416-1.444 1.416h-56.53c-.797 0-1.442-.634-1.442-1.417a1.43 1.43 0 0 1 1.44-1.416h56.532c.798 0 1.444.632 1.444 1.416z"/><path opacity=".1" fill="#3C3C3B" d="M67.94 125.875c5.585 0 10.623-1.166 14.208-3.037-.197-4.512 1.265-8.96 1.265-8.96l-14.633-.458-.01-.06-.95.03-.95-.03-.01.06-14.632.457s1.433 4.37 1.268 8.836c3.6 1.945 8.736 3.162 14.444 3.162z"/><path fill-rule="evenodd" clip-rule="evenodd" fill="#EBEBEB" d="M133.748 117.62a4.125 4.125 0 0 1-4.126 4.126H4.592a4.126 4.126 0 0 1-4.127-4.125V34.274a4.127 4.127 0 0 1 4.127-4.127h125.03a4.127 4.127 0 0 1 4.126 4.127v83.348z"/><path fill-rule="evenodd" clip-rule="evenodd" fill="#464646" d="M133.748 104.465V34.273a4.127 4.127 0 0 0-4.126-4.127H4.592a4.127 4.127 0 0 0-4.127 4.127v70.19h133.283z"/><path fill-rule="evenodd" clip-rule="evenodd" fill="#64BBFF" d="M8.408 38.582h117.396v58.982H8.408z"/><path fill="#0096DF" d="M72.262 107.85c-.41.242-.863.418-1.345.512a2.12 2.12 0 0 0-1.543-.666 2.115 2.115 0 0 0-2.06 2.595 6.005 6.005 0 0 1-4.36-2.208 2.116 2.116 0 0 0 .655 2.824 2.082 2.082 0 0 1-.96-.264v.025c0 1.025.73 1.88 1.697 2.074a2.082 2.082 0 0 1-.955.035c.27.843 1.05 1.452 1.976 1.47a4.238 4.238 0 0 1-3.13.875 5.97 5.97 0 0 0 3.242.95c3.89 0 6.018-3.222 6.018-6.017 0-.092 0-.184-.006-.273.413-.3.772-.67 1.055-1.094-.38.168-.787.28-1.215.332.436-.258.77-.674.93-1.168z"/><path fill="#464646" d="M11.595 43.95h111.023V63.49H11.595z"/><g fill="#64BBFF"><path d="M23.28 53.287c-.46-.193-.795-.46-1.004-.8s-.314-.714-.314-1.12c0-.693.242-1.266.727-1.717.48-.453 1.17-.68 2.06-.68.884 0 1.57.227 2.058.68.488.45.732 1.023.732 1.717 0 .432-.113.814-.336 1.15-.225.336-.54.592-.945.77.515.207.907.51 1.175.906s.402.855.402 1.375c0 .857-.273 1.555-.82 2.092s-1.275.805-2.184.805c-.846 0-1.55-.22-2.11-.666-.663-.524-.995-1.243-.995-2.155 0-.502.125-.965.375-1.385.248-.42.64-.744 1.177-.973zm.203 2.188c0 .49.125.87.377 1.146s.564.413.94.413c.368 0 .673-.133.913-.396s.36-.645.36-1.145c0-.434-.122-.785-.366-1.05a1.22 1.22 0 0 0-.932-.395c-.436 0-.76.15-.973.45-.213.3-.32.626-.32.978zm.164-3.98c0 .354.102.63.3.83.202.198.47.296.804.296.34 0 .608-.1.812-.3.203-.2.305-.48.305-.832 0-.334-.1-.602-.3-.803s-.468-.3-.796-.3c-.343 0-.614.1-.817.304s-.306.47-.306.804zM36.33 58.3v-1.868h-3.804v-1.56l4.03-5.9h1.497v5.894h1.152v1.566h-1.152v1.87H36.33zm0-3.435V51.69l-2.138 3.175h2.137zM40.187 50.79v-1.653h6.09v1.293c-.504.494-1.014 1.203-1.533 2.13s-.916 1.907-1.19 2.948c-.27 1.043-.405 1.973-.4 2.793h-1.718c.03-1.284.295-2.593.795-3.93s1.17-2.528 2.007-3.58h-4.05zM53.548 56.646V58.3h-6.242c.066-.625.27-1.22.607-1.777.338-.56 1.006-1.303 2.004-2.23.803-.747 1.295-1.253 1.477-1.52.244-.367.367-.73.367-1.09 0-.396-.106-.7-.32-.916-.212-.213-.507-.32-.884-.32-.37 0-.666.113-.887.336-.22.225-.347.596-.382 1.115l-1.773-.176c.105-.98.438-1.684.994-2.11.558-.427 1.255-.642 2.09-.642.917 0 1.638.248 2.163.742.523.494.785 1.11.785 1.844 0 .418-.076.816-.225 1.195-.15.38-.39.774-.713 1.19-.217.274-.605.67-1.166 1.185-.562.516-.918.857-1.068 1.027-.15.168-.27.334-.365.494h3.538zM64.954 54.885l1.82.576c-.28 1.015-.744 1.77-1.393 2.26s-1.47.74-2.466.74c-1.234 0-2.248-.423-3.043-1.265-.794-.844-1.19-1.996-1.19-3.46 0-1.544.398-2.745 1.197-3.6s1.85-1.284 3.15-1.284c1.137 0 2.06.337 2.77 1.01.422.395.738.966.95 1.71l-1.856.443c-.108-.482-.34-.86-.687-1.14-.35-.28-.77-.42-1.27-.42-.69 0-1.247.247-1.677.74s-.643 1.296-.643 2.403c0 1.174.21 2.012.633 2.51s.973.748 1.648.748a1.88 1.88 0 0 0 1.287-.475c.36-.318.618-.816.774-1.495zM76.57 58.3h-2.042l-.81-2.11H70l-.766 2.11h-1.99l3.62-9.29h1.98l3.723 9.29zm-3.456-3.675l-1.28-3.447-1.253 3.447h2.534zM77.72 49.01h1.756v6.186l3.764-6.186h1.87v9.29h-1.757v-6.065L79.595 58.3H77.72v-9.29zm4.816-2.315h.867c-.05.576-.252 1.027-.605 1.354-.352.327-.81.49-1.37.49s-1.02-.163-1.374-.49c-.352-.327-.553-.778-.604-1.355h.867c.03.3.135.527.316.682s.447.232.793.232.61-.08.793-.233.287-.38.316-.682zM89.243 58.3v-7.718h-2.756V49.01h7.383v1.572h-2.752v7.72h-1.875zM94.507 53.71c0-.944.14-1.74.424-2.382.214-.473.5-.896.866-1.273a3.632 3.632 0 0 1 1.2-.836c.58-.247 1.247-.368 2.005-.368 1.37 0 2.464.424 3.286 1.273s1.232 2.03 1.232 3.543c0 1.5-.408 2.674-1.223 3.52-.816.848-1.906 1.27-3.27 1.27-1.383 0-2.48-.42-3.297-1.263-.813-.843-1.22-2.004-1.22-3.484zm1.933-.062c0 1.053.242 1.85.73 2.393s1.1.815 1.85.815 1.36-.27 1.84-.81c.48-.538.72-1.345.72-2.423 0-1.064-.232-1.86-.7-2.383s-1.087-.786-1.86-.786-1.396.264-1.87.795c-.473.53-.71 1.33-.71 2.398zM105.118 49.01h3.715c.734 0 1.283.03 1.645.092s.684.19.97.383c.284.195.522.453.712.777.19.322.285.686.285 1.086 0 .436-.117.834-.352 1.197-.234.365-.55.637-.953.818.566.164 1.002.445 1.305.844.305.396.457.863.457 1.4 0 .422-.098.832-.295 1.232-.195.397-.465.718-.805.956s-.76.385-1.258.44c-.312.034-1.066.054-2.262.063h-3.164v-9.29zm1.877 1.547v2.148h1.23c.73 0 1.185-.012 1.362-.033.32-.037.574-.148.758-.332s.275-.426.275-.727c0-.287-.08-.52-.238-.7s-.393-.288-.705-.325c-.188-.02-.72-.03-1.604-.03h-1.078zm0 3.693v2.484h1.736c.677 0 1.106-.018 1.288-.057a1.17 1.17 0 0 0 .682-.37c.174-.196.262-.46.262-.79 0-.28-.066-.516-.203-.71a1.15 1.15 0 0 0-.587-.425c-.256-.088-.81-.133-1.664-.133h-1.515z"/></g><path opacity=".4" fill-rule="evenodd" clip-rule="evenodd" d="M122.653 41.373c0 .594-.48 1.074-1.073 1.074H12.273c-.593 0-1.073-.48-1.073-1.074 0-.594.48-1.074 1.073-1.074H121.58c.593 0 1.073.48 1.073 1.073z"/><path opacity=".3" d="M12.703 66.928H49.21v12.67H12.703zM12.703 91.086H49.21v2.363H12.703zM12.703 94.63H49.21v2.362H12.703zM52.217 67.143H83.57v2.36H52.218zM52.217 94.578h70.223v2.363H52.217zM52.217 90.578h70.223v2.363H52.217zM52.217 86.578h70.223v2.363H52.217zM52.217 82.578h70.223v2.363H52.217zM52.217 78.578h70.223v2.363H52.217zM52.217 74.578h70.223v2.363H52.217zM52.217 70.578h70.223v2.363H52.217zM12.383 83.355H31.28v4.295H12.383zM35.467 83.355H49.21v4.295H35.467z"/><path fill="#FFED27" d="M11.736 18.96h121.446v6.68H11.736z"/><path fill="#464646" d="M131.545 18.96h1.638v6.68h-1.638z"/><path opacity=".2" d="M25.432 18.96h1.638v6.68h-1.638z"/><g opacity=".3"><path d="M129.823 22.398h.894v3.258h-.894zM123.938 22.398h.894v3.258h-.894zM118.054 22.398h.893v3.258h-.893zM112.168 22.398h.894v3.258h-.894zM106.283 22.398h.893v3.258h-.893zM100.397 22.398h.893v3.258h-.893zM94.512 22.398h.894v3.258h-.894zM88.627 22.398h.893v3.258h-.893zM82.74 22.398h.895v3.258h-.894zM76.855 22.398h.894v3.258h-.895zM70.972 22.398h.893v3.258h-.893zM65.085 22.398h.894v3.258h-.895zM59.2 22.398h.894v3.258H59.2zM53.315 22.398h.893v3.258h-.893zM47.43 22.398h.893v3.258h-.894zM41.545 22.398h.894v3.258h-.895zM35.66 22.398h.892v3.258h-.893zM29.773 22.398h.894v3.258h-.894zM23.89 22.398h.892v3.258h-.893zM18.003 22.398h.894v3.258h-.894zM12.117 22.398h.895v3.258h-.895z"/></g><path fill="#499704" d="M28.575 16.137a3.113 3.113 0 0 1-3.113 3.113h-3.424a3.113 3.113 0 0 1-3.113-3.113v-2.023A3.112 3.112 0 0 1 22.038 11h3.424a3.112 3.112 0 0 1 3.113 3.114v2.023z"/><path fill="#FF9315" d="M13.002 0C5.822 0 0 5.82 0 13.002s5.82 13.002 13.002 13.002h13.003V13.002C26.005 5.82 20.183 0 13.002 0z"/><path opacity=".2" d="M13.752 24.504C6.572 24.504.75 18.684.75 11.502c0-1.768.355-3.45.994-4.986A12.93 12.93 0 0 0 0 13.002c0 7.182 5.82 13.002 13.002 13.002h13.003v-1.5H13.752z"/><circle opacity=".6" fill="#FFF" cx="13.578" cy="13.578" r="6.904"/><path opacity=".3" d="M0 13.002c0 2.303.604 4.463 1.655 6.34C3.105 17.472 4 14.988 4 12.25c0-2.412-.694-4.627-1.85-6.4A12.932 12.932 0 0 0 0 13.002z"/></svg>