<svg xmlns="http://www.w3.org/2000/svg" width="148.754" height="111.404" viewBox="0 0 148.754 111.404"><path opacity=".3" fill="#3C3C3B" d="M139.622 17.464L92.426 7.48c-.182-.04-.363-.058-.543-.087a7.63 7.63 0 0 0-.703-.186L83.4 5.56a7.67 7.67 0 0 0-9.092 5.92l-2.098 9.915-.03.148-12.066 57.03-2.098 9.914-.032.15a7.674 7.674 0 0 0 5.917 9.096l7.78 1.645c.25.055.5.09.75.12.167.042.33.097.5.132l47.194 9.984c6.22 1.316 12.333-2.66 13.65-8.88l.03-.15 2.097-9.91 10.473-49.5.032-.147 2.097-9.914c1.317-6.223-2.66-12.333-8.88-13.65z"/><path fill="#FFE78B" d="M138.667 16.51L91.472 6.525c-.182-.037-.362-.057-.543-.086a7.624 7.624 0 0 0-.704-.184l-7.78-1.648a7.67 7.67 0 0 0-9.093 5.92l-2.097 9.914-.032.15L59.16 77.618l-2.098 9.914-.032.15a7.674 7.674 0 0 0 5.917 9.096l7.78 1.645c.25.055.5.09.75.12.166.042.33.097.5.132l47.193 9.984c6.222 1.315 12.333-2.66 13.65-8.88l.03-.15 2.097-9.91 10.472-49.5.03-.148 2.098-9.914c1.317-6.22-2.66-12.33-8.88-13.647z"/><path opacity=".3" fill="#3C3C3B" d="M137.713 15.556L90.518 5.57c-.182-.038-.363-.056-.543-.087a8.32 8.32 0 0 0-.703-.184l-7.78-1.647a7.67 7.67 0 0 0-9.092 5.92l-2.098 9.912-.03.15-12.067 57.03-2.098 9.914-.032.15a7.675 7.675 0 0 0 5.917 9.095l7.78 1.643c.25.057.5.092.75.12.166.044.33.1.5.134l47.193 9.984c6.22 1.316 12.333-2.66 13.65-8.88l.03-.15 2.097-9.91 10.472-49.5.032-.147 2.097-9.915c1.317-6.224-2.66-12.333-8.88-13.65z"/><path fill="#FFE78B" d="M136.758 14.603L89.563 4.616c-.182-.037-.362-.056-.543-.086a8.325 8.325 0 0 0-.703-.186l-7.78-1.646a7.67 7.67 0 0 0-9.093 5.92l-2.097 9.914-.032.15L57.25 75.71l-2.097 9.914-.032.15a7.674 7.674 0 0 0 5.918 9.096l7.78 1.645c.25.055.5.09.75.12.166.042.33.097.5.132l47.193 9.984c6.223 1.317 12.335-2.66 13.65-8.88l.03-.148 2.098-9.91 10.472-49.5.03-.148 2.098-9.914c1.318-6.222-2.658-12.333-8.88-13.647z"/><g fill="#464646"><path d="M88.805 23.27l-1.685-.364 1.38-6.352c-.74.44-1.56.71-2.456.805l.333-1.53c.47-.05 1.01-.22 1.61-.508.605-.29 1.06-.682 1.37-1.176l1.366.297-1.918 8.828zM95.082 24.636l-1.685-.367 1.38-6.353c-.742.44-1.56.71-2.456.805l.334-1.53c.47-.048 1.01-.216 1.61-.507.604-.29 1.06-.682 1.368-1.176l1.368.296-1.918 8.83zM100.2 20.778c-.397-.277-.658-.6-.786-.965a2.03 2.03 0 0 1-.067-1.123c.143-.656.49-1.146 1.04-1.477.55-.328 1.248-.4 2.092-.217.834.182 1.436.537 1.805 1.064.37.53.48 1.12.34 1.777a1.974 1.974 0 0 1-.555 1.02c-.28.27-.632.45-1.053.533.446.303.755.668.927 1.1.172.432.205.893.098 1.385-.177.81-.58 1.414-1.208 1.81-.627.396-1.372.5-2.23.313-.8-.174-1.42-.53-1.862-1.064-.52-.63-.685-1.38-.497-2.244a2.57 2.57 0 0 1 .637-1.232c.325-.348.763-.572 1.317-.68zm-.258 2.112c-.1.465-.062.852.12 1.164.182.31.45.506.806.584.348.074.662.012.946-.188.282-.2.475-.537.577-1.01.09-.41.046-.768-.13-1.066-.18-.3-.446-.49-.8-.566-.413-.09-.75-.016-1.015.225-.263.24-.43.525-.503.857zm.974-3.733c-.073.336-.035.62.114.848.148.23.38.38.7.447.318.068.595.03.828-.12.233-.145.386-.388.46-.724.067-.316.028-.59-.122-.822-.148-.23-.378-.38-.69-.447-.324-.07-.603-.032-.836.118-.233.15-.386.383-.454.7zM114.245 27.16l-.34 1.565-5.907-1.283c.192-.578.506-1.096.94-1.557s1.22-1.027 2.355-1.697c.914-.543 1.482-.922 1.71-1.137.307-.296.498-.614.572-.954.082-.375.043-.686-.115-.932-.157-.246-.414-.408-.77-.484-.353-.078-.656-.03-.91.135-.254.166-.45.492-.59.977l-1.642-.53c.302-.907.76-1.505 1.376-1.794.615-.29 1.318-.35 2.11-.176.867.188 1.498.57 1.893 1.146.394.574.516 1.21.365 1.906a3.11 3.11 0 0 1-.458 1.084c-.22.326-.526.652-.92.98-.26.214-.71.51-1.347.88-.638.373-1.045.623-1.222.752a2.85 2.85 0 0 0-.446.393l3.345.728zM115.645 26.976l1.67.174c-.03.34.02.61.152.807.133.195.337.324.613.383.35.076.68-.02.993-.287.312-.266.613-.896.9-1.89-.53.4-1.113.532-1.75.394-.692-.15-1.23-.547-1.616-1.19-.386-.642-.484-1.392-.3-2.247.195-.893.615-1.553 1.264-1.984.648-.43 1.383-.557 2.202-.38.893.196 1.548.7 1.972 1.515.42.813.46 2.01.117 3.59-.348 1.606-.898 2.702-1.647 3.284-.75.582-1.604.77-2.56.562-.688-.15-1.204-.453-1.548-.912-.346-.46-.5-1.065-.46-1.818zm4.614-2.854c.117-.545.084-.994-.1-1.348-.186-.354-.442-.566-.77-.64a.998.998 0 0 0-.856.202c-.26.2-.45.582-.572 1.14-.123.57-.103 1.01.064 1.325.167.315.417.51.753.58.322.07.624.005.9-.204.278-.206.47-.558.58-1.054zM122.57 28.165l1.673.158c-.04.426.033.775.213 1.045.18.268.432.438.756.508.347.076.668.008.964-.203.296-.213.49-.543.59-.99.09-.424.05-.785-.124-1.082a1.108 1.108 0 0 0-.752-.552 2.993 2.993 0 0 0-.8-.043l.483-1.332c.453.11.822.088 1.107-.07.287-.158.466-.412.542-.76.064-.295.028-.55-.11-.764-.138-.216-.353-.355-.645-.42-.287-.06-.555-.015-.803.142s-.435.42-.562.795l-1.495-.602c.223-.508.48-.898.765-1.168.287-.27.645-.455 1.074-.553.43-.096.886-.094 1.37.012.828.18 1.434.588 1.82 1.227.317.52.417 1.053.3 1.598-.168.772-.724 1.296-1.667 1.57.478.22.83.548 1.05.99.22.442.27.93.156 1.46-.168.77-.592 1.367-1.275 1.79-.68.42-1.442.54-2.282.356-.795-.172-1.405-.545-1.83-1.117-.423-.57-.596-1.235-.52-1.995zM88.367 33.41l1.602.92c-.473.9-1.066 1.52-1.78 1.853-.716.332-1.545.396-2.49.19-1.168-.253-2.04-.86-2.62-1.82s-.716-2.136-.415-3.52c.318-1.462.943-2.517 1.874-3.163.93-.645 2.013-.834 3.244-.566 1.075.234 1.88.742 2.414 1.523.317.463.5 1.068.547 1.814l-1.848.04c-.005-.48-.144-.887-.417-1.22-.273-.337-.645-.556-1.116-.66-.65-.14-1.23-.022-1.74.358-.507.38-.875 1.094-1.102 2.14-.242 1.112-.213 1.948.083 2.507.298.56.766.906 1.406 1.047.473.102.91.04 1.316-.186s.753-.644 1.04-1.257zM98.655 39.032l-1.932-.42-.333-2.164-3.515-.764-1.16 1.84-1.884-.41 5.338-8.05 1.877.41 1.61 9.558zm-2.512-4.19l-.503-3.524-1.896 3.004 2.4.52zM101.654 30.476l1.662.36-1.272 5.855 4.835-5.08 1.768.386-1.91 8.793-1.662-.362 1.248-5.74-4.804 4.967-1.775-.385 1.91-8.794zm5.034-1.198l.82.178c-.165.533-.448.918-.85 1.156-.4.236-.87.297-1.4.182-.532-.115-.93-.363-1.197-.746-.266-.383-.364-.852-.295-1.404l.822.178c-.033.29.02.525.16.71.14.183.375.31.703.382.328.07.594.053.797-.057.205-.108.352-.3.44-.58zM110.65 41.638l1.587-7.305-2.608-.566.322-1.488 6.986 1.52-.323 1.485-2.603-.564-1.588 7.306-1.775-.388zM116.574 38.378c.195-.895.493-1.617.89-2.168a4.25 4.25 0 0 1 1.083-1.027c.423-.28.86-.46 1.308-.543.598-.113 1.255-.094 1.97.062 1.297.28 2.246.91 2.85 1.883.603.97.748 2.174.438 3.605-.31 1.418-.936 2.445-1.882 3.08-.944.635-2.063.81-3.355.53-1.308-.284-2.26-.91-2.86-1.874-.598-.966-.745-2.148-.44-3.548zm1.842.338c-.217.996-.15 1.8.198 2.414.35.613.877.998 1.584 1.152.708.152 1.343.023 1.908-.387.564-.412.958-1.127 1.18-2.146.218-1.01.16-1.808-.173-2.4-.335-.59-.868-.966-1.6-1.126-.73-.158-1.376-.035-1.932.37-.556.403-.944 1.11-1.164 2.122zM127.585 36.112l3.515.764c.695.15 1.207.293 1.537.424.33.133.608.32.84.562.228.242.4.537.512.88.114.347.13.71.046 1.09-.09.41-.282.765-.58 1.06a2.106 2.106 0 0 1-1.07.578c.503.273.856.627 1.063 1.066.206.44.254.912.144 1.42a2.672 2.672 0 0 1-.534 1.105 2.398 2.398 0 0 1-.958.74c-.37.157-.798.21-1.28.16-.305-.034-1.022-.17-2.156-.407l-2.992-.65 1.91-8.79zm.696 5.346l-.51 2.35 1.644.357c.64.14 1.05.21 1.23.21.273.01.513-.06.72-.21.206-.15.343-.38.41-.69a1.18 1.18 0 0 0-.045-.716 1.11 1.11 0 0 0-.468-.522c-.224-.137-.74-.293-1.547-.47l-1.434-.31zm.76-3.498l-.44 2.033 1.162.254c.692.15 1.125.232 1.297.25.31.03.572-.023.784-.16.21-.135.348-.346.41-.63.06-.27.032-.51-.08-.712-.114-.2-.313-.354-.602-.453-.172-.06-.676-.178-1.512-.36l-1.02-.222z"/></g><path fill="#FFE78B" d="M93.092 85.487c1.032 5.738-2.785 11.23-8.526 12.262-5.737 1.03-11.228-2.788-12.26-8.526-1.03-5.74 2.788-11.23 8.524-12.26 5.74-1.03 11.23 2.787 12.262 8.523z"/><path opacity=".3" d="M59.65 34.76l74.62 16.156-.605 2.8-74.62-16.155zM57.98 42.873l74.62 16.155-.605 2.8-74.62-16.156zM55.594 50.746l74.62 16.155-.605 2.8-74.622-16.155zM54.163 58.447l74.62 16.155-.605 2.8-74.62-16.155zM51.54 67.513l74.62 16.155-.605 2.797-74.62-16.155z"/><path opacity=".3" fill="#3C3C3B" d="M69.212 1.15l-50.82 9.134c-.197.035-.382.09-.574.133-.255.02-.513.053-.77.1L8.67 12.023a8.21 8.21 0 0 0-6.63 9.537l1.92 10.674.028.162 11.036 61.408 1.918 10.678.03.16a8.214 8.214 0 0 0 9.534 6.633l8.377-1.506c.27-.05.533-.112.79-.185.185-.023.367-.037.55-.07l50.82-9.133c6.7-1.205 11.157-7.61 9.953-14.31l-.03-.16L95.05 75.24l-9.58-53.303-.03-.158-1.917-10.677C82.318 4.4 75.913-.054 69.213 1.15z"/><path opacity=".3" d="M49.63 76.1l74.622 16.156-.606 2.8L49.026 78.9z"/><path fill="#FFE78B" d="M93.2 86.072l-19.728 3.546-2.258-12.56 19.73-3.546z"/><path fill="#1563A8" d="M67.303.196L16.483 9.33c-.197.034-.382.09-.574.132-.256.02-.514.055-.772.102L6.76 11.067a8.21 8.21 0 0 0-6.63 9.537l1.92 10.674.028.162 11.036 61.41 1.918 10.676.03.16c.802 4.467 5.072 7.436 9.534 6.633l8.377-1.507c.27-.047.533-.11.79-.184.185-.024.367-.038.55-.07l50.82-9.134c6.7-1.203 11.157-7.61 9.953-14.31l-.03-.16-1.916-10.672-9.58-53.3-.027-.16-1.92-10.677c-1.203-6.7-7.61-11.154-14.31-9.95z"/><path fill="#FFE78B" d="M93.307 85.43l-.75-4.17c-.13.308-.28.605-.435.9a12.34 12.34 0 0 1-8.564 6.36L22.113 99.567c-.544.098-1.038.3-1.49.562a4.61 4.61 0 0 0-2.248 4.812 4.627 4.627 0 0 0 5.375 3.738l61.762-11.098-.007-.04a10.546 10.546 0 0 0 7.88-11.505l.03-.004-.102-.568c0-.006 0-.012-.002-.018l-.003-.016z"/><path opacity=".2" fill="#3C3C3B" d="M85.233 98.62l-6.34 1.14-1.918-10.675 6.34-1.14z"/><g fill="#FFF"><path d="M79.546 40.083l3.064-.533s-4.306 8.736-4.655 9.45c-.117.228-.307.487-.374.782-.17.736-.2 2.29-.2 2.29l-2.8.52s.155-1.644-.013-2.474c-.146-.725-.647-1.385-.99-2.076-.34-.7-.887-2.096-.887-2.096l2.88-.518.682 1.518 3.294-6.863z"/><path d="M74.04 42.753c.628.238 1.313 2.054 1.313 2.054s-2.95.575-4.556.866l-1.392.248-.37 7.65-2.58.466s.172-8.273.293-9.79c.036-.49.77-.54 1.984-.757.597-.108 1.45-.26 1.938-.35 1.255-.223 2.69-.65 3.37-.387zM64.757 46.15c.542 1.126.415 4.024.415 4.024s-3.278.533-5.06.91c-.557.117-1.237.16-1.357.447-.168.407.252.91.564 1.1.358.214.97.136 1.192.124 1.487-.078 4.508-.762 4.508-.762l-.11 2.428s-4.262.992-6.506.865c-.44-.025-.878-.158-1.2-.398-.087-.068-.17-.164-.256-.245a2.617 2.617 0 0 1-.382-.46c-.727-1.223-.63-3.83-.332-5.27.034-.17.075-.38.13-.563.064-.228.108-.48.168-.62.042-.094.1-.164.144-.256.05-.107.11-.217.165-.312.16-.264.355-.47.59-.723.775-.83 2.305-1.644 4.29-1.794.75-.057 1.903.007 2.58.662.18.177.32.564.457.843zm-2.088 2.34s-.008-.485-.46-.97c-.386-.408-.683-.47-1.483-.352-2.255.334-1.913 1.988-1.913 1.988l3.855-.667zM52.573 46.384l2.5-.465s-.205 6.866-.336 10.222c-1.08.193-1.99.356-2.88.518-2.01.36-3.76.933-4.78-.37-.99-1.27-.7-3.694-.647-5.317.035-1.15.123-3.498.123-3.498l2.59-.49s-.102 3.652-.09 5.465c.003.65-.114 1.283.202 1.707.305.4.625.377 1.58.23.303-.05 1.292-.233 1.292-.233l.446-7.77zM44.53 48.954c.66 2.03-.026 4.52-.42 6.652.78-.066 1.44-.27 1.5-.223.063.066-.09 2.477-.286 2.518-.61.126-2.632.507-3.477.66-2.758.495-5.305 1.138-6.867.005-.634-.46-1.174-1.352-1.385-2.01-.35-1.09-.385-2.36-.31-3.43.07-.957.216-1.88.53-2.758.796-2.23 2.54-4.094 5.982-4.354.668-.05 1.66.066 2.308.3.045.02.208.105.244.12.887.365 1.83 1.44 2.18 2.52zm-2.817 4.3c.096-.978.297-2.056.098-2.886-.21-.89-1.113-1.572-1.63-1.654-1.555-.254-2.795.712-3.232 1.4-.568.89-.646 1.822-.674 3.094-.022.943 0 1.932.464 2.584.823 1.145 2.637.535 4.646.186.155-.852.24-1.79.33-2.723zM29.44 50.54c.888-.16 1.72-.295 2.693-.473-.028.79-.04 1.682-.083 2.463-.924.168-1.853.334-2.78.5.067-.87.084-1.726.17-2.49zM29.297 53.743l2.68-.48c0 2.002-.133 5.256-.286 7.53-.095 1.427-.142 2.464-.933 3.35-.073.077-.126.057-.183.134-.14.19-.89.52-1.32.646-.692.205-1.503.28-2.375.42.08-.873.155-1.916.224-2.697 2.163-.125 1.858-2.135 1.923-4.137.035-1.16.216-4.296.27-4.767zM23.952 59.93l-.03.16c-.638 2.083-2.163 3.563-4.626 4.06a7.33 7.33 0 0 1-3.087-.06c-1.68-.417-3.22-1.478-4.182-2.733-1.38-1.798-2.06-4.52-.3-6.965.03-.006-.18.49-.147.484l-.023.2c-.67 5.08 4.795 8.35 9.305 7.052 1.082-.31 2.383-1.172 3.09-2.197zM23.056 53.903c-.106.445-1 1.408-1.44 1.588-1.74.712-3.052.062-3.833-.806a4.512 4.512 0 0 1-.406-.592c-.38-.76-.487-1.988.102-2.742-.105.635-.013 1.33.18 1.762.116.26.407.697.666.96.473.474.733.565 1.265.77.242.09.493.15.598.163.48.053 1.506.232 2.868-1.102z"/><path d="M20.814 58.446c1.157-.2 2.268-.957 2.846-1.846-.34 1.703-1.97 3.047-4.453 3.158-2.084.095-4.39-1.605-4.957-3.62-.415-1.464-.055-2.45.608-3.685-.197.62-.227 1.076-.208 1.358.255 3.29 3.577 5.085 6.164 4.636z"/></g><path opacity=".3" fill="#3C3C3B" d="M83.243 99.612l-6.34 1.14-17.82-99.088 6.34-1.14z"/><path fill="#F5323F" d="M85.37 99.287l-6.34 1.14L61.207 1.34 67.55.2z"/></svg>