<svg xmlns="http://www.w3.org/2000/svg" width="151.028" height="116.917" viewBox="0 0 151.028 116.917"><circle fill="#E0E0E0" cx="75.994" cy="51.569" r="51.569"/><circle fill="#F2F2F2" cx="75.994" cy="51.569" r="48.105"/><path fill="#1B709C" d="M130.247 44.736L116.32 69.134l20.78 11.86 13.928-24.397-13.374-.262z"/><path fill="#0D5A7C" d="M124.878 60.228l-8.558 8.906 6.688 4.395z"/><path fill="#1B709C" d="M20.78 44.736L34.71 69.134l-20.78 11.86L0 56.597l13.374-.262z"/><path fill="#0D5A7C" d="M26.15 60.228l8.558 8.906-6.688 4.395z"/><path fill="#2C85C2" d="M75.5 116.917c30.016 0 55.974-17.32 68.462-42.502L124.85 60.228c-7.83 19.59-26.967 33.438-49.35 33.438S33.978 79.818 26.15 60.228L7.037 74.416c12.49 25.18 38.447 42.5 68.463 42.5z"/><g fill="#FFF"><path d="M36.186 94.935l-1.234 1.262-4.766-4.656a4.583 4.583 0 0 1 1.792-.903c.675-.174 1.74-.244 3.19-.205 1.17.027 1.924.008 2.262-.06.46-.1.826-.284 1.094-.558.296-.305.443-.617.44-.94-.005-.32-.15-.622-.438-.903-.283-.276-.592-.41-.927-.403-.336.008-.71.195-1.124.566l-1.222-1.46c.81-.667 1.59-.956 2.333-.866.745.09 1.436.447 2.075 1.07.7.686 1.066 1.412 1.098 2.18.03.768-.23 1.432-.776 1.994a3.476 3.476 0 0 1-1.063.745c-.395.176-.872.3-1.43.373-.37.05-.96.06-1.774.035-.814-.025-1.34-.03-1.58-.012-.242.02-.458.054-.647.106l2.696 2.64zM46.21 95.394l-1.6-.928c.187-.332.26-.627.214-.885-.045-.257-.19-.474-.432-.653-.324-.238-.704-.295-1.142-.17-.438.125-1.023.627-1.758 1.502.712-.17 1.352-.046 1.918.372.638.47 1.005 1.117 1.103 1.94.096.82-.14 1.618-.707 2.388-.603.816-1.325 1.293-2.17 1.434s-1.64-.066-2.39-.62c-.807-.595-1.238-1.397-1.295-2.407-.057-1.008.442-2.225 1.494-3.65 1.08-1.463 2.128-2.318 3.146-2.564 1.017-.248 1.957-.053 2.82.586.607.446.983.985 1.13 1.618.148.632.038 1.31-.33 2.036zm-5.93.78c-.367.495-.535.964-.506 1.4.03.442.19.77.485.987.282.208.598.272.95.19.354-.082.715-.375 1.087-.88.384-.52.562-.974.538-1.366a1.193 1.193 0 0 0-.495-.924 1.194 1.194 0 0 0-1.002-.205c-.372.082-.726.347-1.058.798zM50.61 97.384l.733-1.605 5.916 2.694-.573 1.256c-.708.258-1.52.72-2.432 1.39-.915.67-1.735 1.448-2.46 2.34-.726.892-1.267 1.735-1.627 2.534l-1.667-.762c.598-1.234 1.436-2.39 2.513-3.463a13.98 13.98 0 0 1 3.533-2.593l-3.935-1.793zM58.668 109.154l.57-1.912-3.89-1.162.478-1.596 5.927-4.8 1.53.456-1.804 6.027 1.18.354-.48 1.603-1.18-.354-.57 1.91-1.762-.526zm1.05-3.514l.97-3.246-3.154 2.594 2.183.652zM66.993 110.98l.31-1.973-4.01-.63.257-1.642 5.224-5.557 1.578.246-.974 6.217 1.217.19-.26 1.65-1.215-.19-.31 1.972-1.817-.282zm.57-3.625l.522-3.348-2.776 2.996 2.252.352zM82.703 107.685l1.98.475c-.217 1.1-.653 1.938-1.305 2.512-.653.574-1.51.9-2.57.977-1.313.097-2.426-.274-3.337-1.108-.91-.836-1.422-2.033-1.536-3.59-.12-1.645.212-2.955.995-3.928.783-.973 1.868-1.51 3.253-1.61 1.21-.09 2.22.196 3.027.856.48.39.862.973 1.145 1.75l-1.942.615c-.154-.504-.428-.89-.82-1.16-.393-.27-.855-.385-1.386-.348-.733.053-1.31.36-1.727.92-.42.56-.585 1.428-.498 2.605.09 1.252.38 2.125.87 2.625.487.498 1.09.72 1.81.666.532-.037.977-.24 1.334-.605s.592-.917.707-1.653zM95.98 108.587l-2.113.53-1.39-1.972-3.844.965-.245 2.385-2.06.518 1.33-10.56 2.053-.515 6.27 8.65zm-4.533-2.904l-2.222-3.236-.402 3.895 2.624-.66zM93.926 98.748l1.708-.77 2.716 6.02.946-7.673 1.82-.822 4.08 9.04-1.71.772-2.663-5.902-.992 7.55-1.825.825-4.08-9.04zm3.67-4.366l.845-.38c.205.58.206 1.106.006 1.58-.198.474-.572.835-1.118 1.08-.548.247-1.064.29-1.55.126-.49-.164-.882-.514-1.183-1.05l.844-.382c.16.28.362.453.607.523.244.07.535.028.873-.124.337-.152.56-.342.668-.574.11-.227.11-.495.008-.8zM109.694 101.773l-4.565-6.857-2.45 1.63-.93-1.395 6.56-4.366.93 1.396-2.444 1.627 4.566 6.857-1.668 1.11zM111.732 94.54c-.69-.737-1.16-1.458-1.407-2.165a4.67 4.67 0 0 1-.255-1.625c.01-.56.12-1.068.327-1.527.272-.613.703-1.195 1.293-1.746 1.067-1 2.23-1.467 3.49-1.404 1.26.062 2.442.684 3.544 1.863 1.094 1.168 1.632 2.38 1.614 3.635-.018 1.257-.558 2.382-1.622 3.378-1.077 1.006-2.24 1.48-3.49 1.416-1.252-.064-2.415-.67-3.494-1.823zm1.46-1.458c.767.82 1.538 1.266 2.312 1.334s1.454-.17 2.036-.715c.583-.544.865-1.202.846-1.972-.02-.77-.42-1.574-1.208-2.414-.776-.83-1.537-1.28-2.283-1.348-.746-.066-1.42.182-2.024.744-.6.564-.894 1.225-.875 1.984.02.76.418 1.556 1.197 2.388zM115.86 83.587l2.344-3.197c.464-.633.837-1.084 1.117-1.357.283-.27.596-.47.943-.592s.72-.163 1.118-.124c.4.04.77.19 1.116.44.375.276.646.63.81 1.06.166.432.198.877.102 1.338.5-.385 1.016-.58 1.55-.594.534-.01 1.03.154 1.494.494.363.266.655.61.875 1.03.22.42.325.854.315 1.296-.01.443-.148.898-.415 1.36-.168.292-.626.954-1.374 1.99l-1.996 2.72-7.997-5.863zm2.515-.638l1.85 1.354.776-1.057c.462-.63.74-1.027.834-1.193.17-.3.234-.588.19-.86-.04-.276-.19-.507-.45-.698-.246-.18-.498-.26-.752-.236-.255.023-.497.158-.727.402-.137.146-.483.602-1.04 1.36l-.68.927zm3.18 2.33l2.14 1.57 1.096-1.495c.427-.582.682-.963.764-1.145.132-.27.17-.545.11-.82-.058-.273-.228-.518-.513-.725-.24-.176-.486-.268-.738-.273s-.497.072-.735.238c-.237.162-.625.613-1.165 1.346l-.956 1.305z"/></g><path fill="#E0E0E0" d="M101.764 61.587a15.94 15.94 0 0 0-3.504-10.592 16.136 16.136 0 0 0 3.463-11.118c3.673-1.84 6.157-5.648 6.157-9.946 0-6.128-4.986-11.114-11.116-11.114-4.265 0-8.06 2.46-9.912 6.097-.395-.03-.792-.044-1.19-.044a15.985 15.985 0 0 0-10.012 3.498 16.05 16.05 0 0 0-10.52-3.497 11.068 11.068 0 0 0-9.906-6.055c-6.126 0-11.112 4.985-11.115 11.115 0 4.05 2.134 7.636 5.462 9.584A16.092 16.092 0 0 0 52.997 51a16.217 16.217 0 0 0-3.465 10.945 11.068 11.068 0 0 0-5.494 9.6c0 2.97 1.155 5.76 3.254 7.86s4.89 3.255 7.858 3.255h.003c4.08-.004 7.697-2.178 9.634-5.555.28.014.562.02.843.02a15.97 15.97 0 0 0 10.018-3.503A15.98 15.98 0 0 0 85.66 77.12c.51 0 1.02-.023 1.524-.072 1.938 3.385 5.59 5.61 9.655 5.61 6.126 0 11.11-4.985 11.11-11.112 0-4.296-2.5-8.12-6.186-9.96z"/><path fill="#77BA1F" d="M57.79 50.996L56.698 49.9c-3.396-3.393-4.446-8.244-3.16-12.543a7.62 7.62 0 0 1-5.93-7.428 7.618 7.618 0 0 1 7.616-7.616 7.618 7.618 0 0 1 7.513 6.382 12.61 12.61 0 0 1 11.808 3.36l.438.437-5.62 5.616-.435-.438a4.67 4.67 0 0 0-6.604.002c-1.83 1.83-1.827 4.795-.01 6.61l1.1 1.1 5.62 5.612 5.942 5.94-5.615 5.62-5.946-5.944-5.623-5.616"/><path fill="#F5B134" d="M64.075 44.716l5.95-5.94 5.617-5.614 1.097-1.096a12.614 12.614 0 0 1 12.483-3.186 7.615 7.615 0 1 1 8.545 8.6 12.603 12.603 0 0 1-3.203 12.414l-.437.44-5.613-5.62.433-.437a4.66 4.66 0 1 0-6.594-6.593l-1.095 1.094-5.62 5.614-5.945 5.94-5.62-5.616"/><g><path fill="#F5323F" d="M89.376 73.064a12.614 12.614 0 0 1-12.637-3.137l-.43-.427 5.614-5.623.43.434a4.675 4.675 0 0 0 6.608.003 4.66 4.66 0 0 0-.014-6.598l-1.096-1.1-5.615-5.62-5.934-5.938 5.62-5.614 5.93 5.935 5.61 5.62 1.104 1.103A12.605 12.605 0 0 1 97.91 64.01a7.616 7.616 0 0 1 6.54 7.54 7.612 7.612 0 0 1-7.61 7.612 7.617 7.617 0 0 1-7.464-6.096"/><path fill="#3E8CDC" d="M87.187 57.28l-5.928 5.933-5.618 5.62-1.1 1.105c-3.245 3.244-7.817 4.348-11.97 3.316a7.623 7.623 0 0 1-7.423 5.906 7.612 7.612 0 0 1-7.613-7.613c0-3.6 2.498-6.62 5.855-7.41-1.063-4.172.037-8.782 3.303-12.044l.43-.43 5.618 5.615-.434.432a4.67 4.67 0 0 0 .002 6.604 4.676 4.676 0 0 0 6.61.006l1.1-1.1 5.615-5.617 5.932-5.94 5.617 5.618"/></g></svg>