<svg baseProfile="basic" xmlns="http://www.w3.org/2000/svg" width="248" height="51" viewBox="0 0 248 51"><path fill="#F60" d="M248 36H0V0h248l-6 19z"/><path fill="#D25C0E" d="M0 36h12v15z"/><g fill="#FFF"><path d="M20.5 10.7h11.4V25H29V13.1h-5.6V25h-2.9V10.7zM34.2 19.7c0-.9.2-1.8.7-2.6s1.1-1.5 1.9-2 1.7-.7 2.8-.7c1.6 0 2.9.5 3.9 1.5s1.5 2.3 1.5 3.9-.5 2.9-1.5 3.9-2.3 1.5-3.8 1.5c-1 0-1.9-.2-2.7-.6s-1.5-1.1-2-1.9-.8-1.8-.8-3zm2.8.1c0 1 .2 1.8.7 2.4s1.1.8 1.8.8 1.3-.3 1.8-.8.7-1.3.7-2.4c0-1-.2-1.8-.7-2.3s-1.1-.8-1.8-.8-1.3.3-1.8.8-.7 1.3-.7 2.3zM47.3 14.6h9.2V25h-2.7v-8.1H50v4.7c0 1.2-.1 2-.4 2.5s-.6.7-.9.9-.9.2-1.6.2c-.4 0-1-.1-1.7-.2v-2h1.2c.4 0 .6-.1.7-.4s.1-.9.1-2v-6zM57.7 14.6h2.9l2.5 7.4 2.4-7.4h2.8l-3.7 10-.6 1.8c-.2.6-.5 1.1-.7 1.4s-.5.6-.8.8-.6.4-1 .5-.9.2-1.4.2c-.5 0-1-.1-1.6-.2l-.2-2.1c.4.1.8.1 1.2.1.6 0 1.1-.2 1.4-.6s.5-.9.7-1.4l-3.9-10.5zM69.8 14.6h2.8v2.5c0 .6.1 1 .2 1.3s.3.5.6.7.7.3 1.2.3 1-.1 1.6-.3v-4.4H79V25h-2.7v-4.1c-1.1.3-1.9.4-2.4.4-.8 0-1.6-.2-2.3-.5s-1.1-.8-1.4-1.4-.4-1.3-.4-2.3v-2.5zM81.6 14.6h2.6v6.5l4.2-6.5h2.7V25h-2.6v-6.6L84.3 25h-2.6V14.6zM92.8 14.6h9.4v2.2h-3.3V25h-2.7v-8.2h-3.3v-2.2zM103.9 14.6h2.7v4.3h2.8c1.1 0 1.9.1 2.5.2s1.1.5 1.4 1 .6 1.1.6 1.8c0 1-.3 1.8-1 2.3s-1.7.8-3.1.8h-5.9V14.6zm2.7 8.7h2.6c.8 0 1.3-.1 1.5-.4s.3-.6.3-.9c0-.5-.2-.8-.6-1s-1.1-.3-2.1-.3h-1.8v2.6zM121.7 14.6h6c1.2 0 2.2.2 2.8.7s.9 1.1.9 2c0 .6-.2 1.1-.5 1.5s-.8.7-1.3.9c.7.2 1.3.5 1.6 1s.5 1 .5 1.6c0 .8-.3 1.5-.9 2s-1.5.8-2.6.8h-6.5V14.6zm2.7 4.3h1.8c.9 0 1.5-.1 1.9-.3s.6-.6.6-1-.2-.7-.5-.9-1-.3-1.9-.3h-1.8v2.5zm0 4.3h2.2c.8 0 1.4-.1 1.7-.3s.5-.5.5-1-.2-.9-.6-1-1.2-.3-2.4-.3h-1.4v2.6zM139.4 14.6h9.2V25h-2.7v-8.2h-3.7V25h-2.7V14.6zM150.9 19.7c0-.9.2-1.8.7-2.6s1.1-1.5 1.9-2 1.7-.7 2.8-.7c1.6 0 2.9.5 3.9 1.5s1.5 2.3 1.5 3.9-.5 2.9-1.5 3.9-2.3 1.5-3.8 1.5c-1 0-1.9-.2-2.7-.6s-1.5-1.1-2-1.9-.8-1.8-.8-3zm2.9.1c0 1 .2 1.8.7 2.4s1.1.8 1.8.8 1.3-.3 1.8-.8.7-1.3.7-2.4c0-1-.2-1.8-.7-2.3s-1.1-.8-1.8-.8-1.3.3-1.8.8-.7 1.3-.7 2.3zM172.1 25h-7.9v2.7H162v-5h1.1c.5-.5.9-1.3 1.2-2.4s.5-3 .5-5.7h8.4v8.1h1.1v5h-2.2V25zm-1.6-2.2v-5.9h-3.3c-.1 2.9-.6 4.8-1.4 5.9h4.7zM178.3 17.8l-2.5-.4c.3-1 .8-1.7 1.4-2.2s1.7-.7 3-.7c1.2 0 2.1.1 2.7.4s1 .7 1.3 1.1.4 1.3.4 2.5v3.2c0 .9 0 1.6.1 2s.3.9.5 1.4h-2.7c-.1-.2-.2-.5-.3-.8 0-.2-.1-.3-.1-.3-.5.5-1 .8-1.5 1s-1.1.3-1.7.3c-1.1 0-1.9-.3-2.5-.9s-.9-1.3-.9-2.2c0-.6.1-1.1.4-1.6s.7-.8 1.2-1.1 1.2-.5 2.2-.6c1.3-.2 2.2-.5 2.7-.7V18c0-.5-.1-.9-.4-1.1s-.8-.3-1.5-.3c-.5 0-.9.1-1.1.3s-.6.4-.7.9zm3.6 2.2c-.4.1-.9.3-1.7.4s-1.3.3-1.5.5c-.4.3-.5.6-.5 1s.1.7.4 1 .7.4 1.1.4c.5 0 1-.2 1.4-.5.3-.2.5-.5.7-.9.1-.2.1-.7.1-1.3V20zM187.3 14.6h2.6v1.5c.3-.5.8-.9 1.3-1.3s1.2-.5 1.9-.5c1.2 0 2.2.5 3.1 1.4s1.3 2.3 1.3 3.9c0 1.7-.4 3.1-1.3 4s-1.9 1.4-3.1 1.4c-.6 0-1.1-.1-1.6-.3s-1-.6-1.5-1.2v5.2h-2.7V14.6zm2.7 5c0 1.2.2 2 .7 2.6s1 .8 1.7.8c.6 0 1.2-.3 1.6-.8s.6-1.3.6-2.5c0-1.1-.2-1.9-.7-2.4s-1-.8-1.6-.8c-.7 0-1.2.3-1.7.8s-.6 1.3-.6 2.3zM198.9 19.7c0-.9.2-1.8.7-2.6s1.1-1.5 1.9-2 1.7-.7 2.8-.7c1.6 0 2.9.5 3.9 1.5s1.5 2.3 1.5 3.9-.5 2.9-1.5 3.9-2.3 1.5-3.8 1.5c-1 0-1.9-.2-2.7-.6s-1.5-1.1-2-1.9-.8-1.8-.8-3zm2.8.1c0 1 .2 1.8.7 2.4s1.1.8 1.8.8 1.3-.3 1.8-.8.7-1.3.7-2.4c0-1-.2-1.8-.7-2.3s-1.1-.8-1.8-.8-1.3.3-1.8.8-.7 1.3-.7 2.3zM211.7 14.6h2.7v4.2c.5-.1.8-.2 1-.4s.4-.7.7-1.5c.4-1 .7-1.7 1.2-2s1-.4 1.6-.4h1.1v1.8c-.7 0-1.2.1-1.4.2-.2.1-.4.6-.7 1.3-.3 1-.8 1.5-1.4 1.8.9.2 1.6 1 2.2 2.3 0 .1.1.1.1.2l1.5 2.9h-2.9l-1.4-3c-.3-.6-.5-1-.7-1.2s-.5-.3-.9-.3V25h-2.7V14.6zM222.9 21.3l-.7-7.3v-3.4h3V14l-.7 7.3h-1.6zm-.6 3.7v-2.7h2.7V25h-2.7z"/></g></svg>