<svg xmlns="http://www.w3.org/2000/svg" width="74.789" height="108.752" viewBox="0 0 74.789 108.752"><path fill="#76D9FC" d="M74.79.002C33.473.07 0 33.58 0 74.907c0 12.18 2.91 23.678 8.067 33.845H74.79V.002z"/><path fill-rule="evenodd" clip-rule="evenodd" fill="#00A936" d="M26.56 89.55c-.41-.17-.98-.286-1.363-.336-.505-.06-.878-.08-1.222 0-1.02.302-1.087 1.365 1.68 3.028.742.99 2.086 1.888 3.36 1.395.74-2.1-.8-3.38-2.455-3.95 0-.136.014-.095 0-.136zM38.142 68.335c.12.107.198.283.305.3h.158c.747.213 1.47-.54.906-.59-.22-.04-.653.017-1.368.29zM55.493 61.792c-1.186.2-1.47 1 1.076 2.75.315-.092 2.508-.58 1.223.746 3.956-2.365-.275-3.855-2.3-3.496zM55.493 44.873c4.264-1.733 5.248-12.962.17-12.632-.332 0-.66.167-1.078.32 2.127 3.92-2.776 8.902.908 12.313zM66.318 24.94c1.23-.57 1.82-2.614 0-2.614-.326-.085-.576-.173-.904-.155-.33.012-.66.13-.9.156-3.596.716-2.502 6.68 1.804 2.615z"/><path fill-rule="evenodd" clip-rule="evenodd" fill="#00A936" d="M74.79 23.855c-1.065-.37-2.25-.458-3.434-.31-5.203.66-10.454 5.685-5.614 10.66 3.465 4.327-5 13.155 3.034 15.42 1.4-3.134 3.868-5.98 6.013-8.925V23.855z"/><path fill="#00A936" d="M19.12 103.066c1.436 1.798 1.912 3.718 1.982 5.686H39.16c-7.527-5.388-21.708-2.275-21.433-14.515.737-6.153-4.206-9.127-7.913-12.024-2.85-9.522 14.522-13.028 14.775-2.593 5.72-.3 7.725-10.275 14.33-11.72 3.404-2.953 12.608.223 9.28-5.808 3.29-3.13 12.947-3.018 8.22-10.34-1.582-7.133-10.353-10.58-13.236-2.46-7.935 2.132-4.737-15.088 3.34-12.793 5.857.335 5.06-4.756 1.508-6.39 0-.25-.075-.386-.298-.164-.647-.244-1.33-.497-2.13-.457-7.92-4.378 7.923-15.526-2.57-19.06-11.513 9.836-29.08 25.312-36.108 39.773C3.75 59.27 4.28 68.4 4.65 77.937c3.223 9.235 9.487 16.852 14.47 25.13zM74.79.42c-.08 0-.156-.005-.234-.005-2.035 0-4.102.123-6.11.288-1.04.227-2.19.357-3.362.468a14.57 14.57 0 0 0-1.2.154c-4.208.59-8.22 1.325-12.17 2.574 7.758-.57 15.672-.556 23.075 1.456V.42z"/><g opacity=".2" fill="#010000"><path d="M3.643 51.822c-.018.055-.033.095-.046.144.69-.037 1.308-.09 1.308-.144H3.643z"/><path d="M74.79 108.752V0c-5.57.01-11 .646-16.23 1.808C47.85 5.185 38.23 11.834 30.53 20.818c-.604.145-1.208.283-1.793.426-2.828.688-5.825 1.55-8.606 2.594a79.03 79.03 0 0 0-3.493 4.016c2.858-1.49 6.76-2.902 11.53-4.132-5.217 6.767-9.42 14.665-12.31 23.366-2.64.35-4.896.727-6.742 1.123-2.157.467-3.71.94-4.748 1.492-.217.59-.416 1.18-.603 1.77 2.118-.49 5.864-1.22 11.343-1.994-2.27 7.56-3.56 15.68-3.68 24.144H.042c-.014.42-.04.848-.04 1.285 0 .33.022.652.026.98h11.4c.086 8.368 1.325 16.413 3.52 23.928-8.825-1.26-9.983-2.412-10.103-2.577.014.022.06.117.06.243H3.47a64 64 0 0 0 .686 2.022c1.035.59 2.65 1.102 4.96 1.596 1.815.39 4.002.757 6.58 1.103a82.84 82.84 0 0 0 2.442 6.552h2.42a80.053 80.053 0 0 1-2.41-6.238c1.922.23 4.008.446 6.263.647 6.56.604 14.178 1.072 22.462 1.384.238 1.427.502 2.82.775 4.208h2.282a144.126 144.126 0 0 1-.777-4.12c7.705.26 15.947.42 24.425.42v3.7h1.21zm-1.212-35.13H46.736c.065-9.287.79-18.297 2.125-26.658 7.802-.273 16.156-.43 24.717-.437V73.62zm0-29.37c-8.45.012-16.657.155-24.34.424 1.412-8.107 3.407-15.556 5.94-22.008a70.1 70.1 0 0 1 1.326-3.197 257.85 257.85 0 0 1 17.074-.617V44.25zm0-27.674c-5.47.018-10.833.203-15.99.553 4.626-9.478 10.178-14.887 15.99-15.495v14.943zM66.148 2.3c-4.093 2.944-7.868 8.025-11.124 15.016-7.513.58-14.537 1.488-20.784 2.716 8.77-9.328 19.77-15.687 31.91-17.73zM31.72 22.87c6.54-1.443 14.094-2.515 22.26-3.19-.307.692-.6 1.408-.887 2.145-2.618 6.728-4.683 14.492-6.135 22.94-8.317.313-15.968.784-22.548 1.373-2.184.208-4.214.418-6.084.64 3.133-9.012 7.72-17.132 13.396-23.907zm-5.488 78.18c-3.49-.306-6.403-.607-8.847-.916-2.32-7.58-3.637-15.74-3.722-24.246H44.5c.05 9.16.736 18.06 2 26.374-7.395-.292-14.253-.697-20.27-1.21zM44.5 73.62H13.662c.126-8.597 1.492-16.836 3.883-24.47 2.403-.29 5.27-.59 8.682-.89 6.03-.513 12.923-.92 20.354-1.21-1.298 8.36-2.015 17.326-2.08 26.57zm4.275 28.718c-1.288-8.303-1.99-17.238-2.04-26.45H73.58v26.887a696.16 696.16 0 0 1-24.803-.437z"/></g><path opacity=".3" d="M26.735 37.99L13.82 32.65l-4.9 76.102H31.49z"/><g><path fill="#00447D" d="M74.79 6.09H19.18a5.792 5.792 0 0 0-5.792 5.792v96.64h61.4V6.09z"/><path opacity=".2" d="M18.79 6.09h56v102.43h-56z"/><path fill="#005DA3" d="M74.79 5.613H21.87c-1.036 0-1.877.756-1.877 1.688v101.22H74.79V5.614z"/><path opacity=".15" d="M64.743 64.375c.112-.093.218-.192.312-.306.025-.028.045-.067.068-.098.068-.09.137-.18.192-.28.043-.074.073-.16.106-.24.028-.063.063-.122.084-.19.05-.15.085-.31.105-.477l2.86-25.067c.02-.165.02-.326.008-.487-.01-.09-.032-.177-.05-.265-.013-.064-.018-.13-.035-.195a2.404 2.404 0 0 0-.137-.34c-.012-.03-.02-.06-.033-.086a2.21 2.21 0 0 0-.234-.368l-.01-.015a2.43 2.43 0 0 0-1.536-.907c-.013 0-.024-.005-.038-.008l-.002.003c-.022-.004-.042-.013-.065-.016l-8.83-1.008-13.904-4.976a2.126 2.126 0 0 0-.375-.095l.015.034a2.398 2.398 0 0 0-.88.063l-2.978-2.728a2.353 2.353 0 0 0-.28-.214v.038a2.21 2.21 0 0 0-2.72.426L20.843 43.558a2.207 2.207 0 0 0-.185 2.745l-.036.004c.075.09.147.183.237.262l10.467 9.583c.108.21.352.393.665.56.197.13.41.226.634.287.237.09.488.18.738.264.042.018.08.043.125.06l1.61.575 8.765 3.136c.484.256.9.45 1.27.607a2.432 2.432 0 0 0 1.415 1.344l-.027.023c.124.035.248.067.38.082l16.024 1.83a2.41 2.41 0 0 0 1.807-.534l.013-.013z"/><path fill="#DADADA" d="M40.03 23.763l-.617 16.18a1.89 1.89 0 0 1-1.804 1.972l-16.063 2.042c.074.095.146.185.236.263l10.853 9.937a2.21 2.21 0 0 0 3.126-.14l15.543-16.98c.823-.902.76-2.3-.14-3.125l-10.853-9.936a1.932 1.932 0 0 0-.282-.213z"/><path opacity=".3" fill="#1D1D1B" d="M34.557 35.5a1.814 1.814 0 0 0-1.804 1.968l-.16 16.636c.956.832 2.36.796 3.17-.087l15.542-16.98c.812-.89.718-2.288-.19-3.17L34.556 35.5z"/><path fill="#EDEDED" d="M35.11 36.003a1.886 1.886 0 0 0-1.804 1.97l-.618 16.22a2.21 2.21 0 0 0 3.074-.176l15.543-16.98a2.212 2.212 0 0 0-.095-3.082l-16.1 2.048z"/><path opacity=".3" fill="#1D1D1B" d="M38.52 42.743a1.81 1.81 0 0 0 1.8-1.97l.163-16.64c-.956-.824-2.36-.794-3.172.093l-15.54 16.98c-.812.888-.717 2.29.19 3.168l16.56-1.63z"/><path fill="#EDEDED" d="M37.966 42.238a1.887 1.887 0 0 0 1.803-1.97l.617-16.22a2.212 2.212 0 0 0-3.077.178l-15.54 16.98c-.812.888-.76 2.25.097 3.08l16.1-2.048z"/><path fill="#FF3827" d="M33.417 30.45l-.58 5.284-5.21 1.04a.822.822 0 0 0 .08 1.123l4.197 3.84a.817.817 0 0 0 1.16-.05l.244-.267-4.057-3.716L33.9 36.7l.586-4.718 4.06 3.715.245-.266a.82.82 0 0 0-.053-1.16l-4.196-3.84a.822.822 0 0 0-1.123.02z"/><path opacity=".2" fill="#010005" d="M50.955 59.423c.1-.087.606.883.692.776.04-.05.068-.105.105-.153.054-.08.11-.152.156-.234a2.62 2.62 0 0 0 .187-.45l7.235-24.12c.047-.16.077-.318.093-.477.004-.065-.003-.122-.003-.187.003-.096.008-.19-.003-.284-.007-.085-.03-.163-.046-.244-.017-.068-.023-.142-.043-.21-.032-.105-.08-.204-.125-.303-.017-.04-.03-.08-.048-.117a2.52 2.52 0 0 0-.225-.345 2.372 2.372 0 0 0-1.135-.817c-.01-.002-.016-.007-.024-.01-.02-.004-.04-.018-.06-.025L42.29 27.6a2.26 2.26 0 0 0-.38-.074l.017.035a2.424 2.424 0 0 0-2.477 1.717L32.212 53.4c-.328 1.102 2.86 1.606 3.817 2.15l-.913-1.058c.115.057 2.242.77 2.366.807L48.6 58.944c.808.24 2.124 2.084 2.727 1.582.012-.016-.387-1.094-.372-1.104z"/><path fill="#DADADA" d="M44.158 26.604l6.23 16.583a2.065 2.065 0 0 1-.986 2.75l-15.34 8.866a2.3 2.3 0 0 0 .35.168l15.158 5.424a2.42 2.42 0 0 0 3.095-1.466l8.486-23.71a2.42 2.42 0 0 0-1.463-3.096L44.532 26.7a2.188 2.188 0 0 0-.374-.096z"/><path opacity=".3" fill="#1D1D1B" d="M43.604 40.762a1.99 1.99 0 0 0-.986 2.752l6.885 16.85c1.316.43 2.717-.195 3.16-1.435l8.487-23.712c.443-1.238-.244-2.61-1.532-3.116l-16.014 8.66z"/><path fill="#EDEDED" d="M44.376 41.037a2.063 2.063 0 0 0-.985 2.75l6.247 16.623a2.417 2.417 0 0 0 3.027-1.48l8.486-23.712a2.418 2.418 0 0 0-1.4-3.066l-15.374 8.885z"/><path opacity=".3" fill="#1D1D1B" d="M50.67 46.393a1.983 1.983 0 0 0 .984-2.75L44.77 26.79c-1.312-.43-2.718.197-3.16 1.436l-8.49 23.712c-.44 1.236.248 2.61 1.535 3.112l16.015-8.657z"/><path fill="#EDEDED" d="M49.898 46.12a2.066 2.066 0 0 0 .985-2.75l-6.245-16.627a2.42 2.42 0 0 0-3.03 1.482l-8.487 23.712a2.424 2.424 0 0 0 1.403 3.068l15.375-8.886z"/><path fill="#E20613" d="M39.4 38.02l-.528 1.476c-.518 1.445.144 3.064 2.282 3.833 1.28.454 2.44.2 3.283-.693l2.87 3.256c.093.106.203.073.242-.027l.326-.918c.028-.08.022-.14-.034-.19l-2.868-3.046.233-.648 3.51 1.26c.04.014.1-.008.12-.06l.286-.804c.03-.075 0-.115-.064-.138l-9.485-3.392c-.086-.034-.143.004-.175.09zm4.978 2.744l-.194.547c-.302.85-1.222 1.455-2.777.898-1.62-.58-2.003-1.59-1.72-2.378l.234-.66 4.458 1.594z"/><path opacity=".2" fill-rule="evenodd" clip-rule="evenodd" fill="#010005" d="M68.07 34.804a2.397 2.397 0 0 0-.145-.364c-.01-.02-.014-.042-.026-.064a2.427 2.427 0 0 0-1.803-1.293c-.004 0-.01-.004-.015-.004-.024-.004-.044-.012-.067-.014l-16.023-1.83a2.292 2.292 0 0 0-.388-.007l.02.032a2.417 2.417 0 0 0-2.137 2.128L44.79 58.685c4.032 2.13 3.643.373 5.063.873l-1.135.46c.12.037 1.104-.93 1.235-.915l12.54 1.644c.677.077 1.425 2.076 1.913 1.676.01-.013.02-.02.03-.032.106-.084.205-.18.293-.285.034-.04.06-.088.093-.133.058-.08.118-.156.167-.244.05-.09.087-.188.126-.286.02-.048.047-.094.063-.144.05-.152.084-.31.103-.48l2.862-25.065c.02-.166.02-.328.007-.488-.01-.103-.033-.2-.056-.297-.01-.054-.012-.112-.027-.164z"/><path fill="#DADADA" d="M50.854 30.847L60.717 45.6c.71.9.563 2.2-.332 2.91l-12.94 12.15a2.6 2.6 0 0 0 .38.082l16.025 1.832a2.43 2.43 0 0 0 2.683-2.136l2.863-25.068a2.425 2.425 0 0 0-2.134-2.688l-16.022-1.83c-.13-.017-.26-.01-.386-.005z"/><path opacity=".3" fill="#1D1D1B" d="M53.547 44.782a1.99 1.99 0 0 0-.333 2.91L63.78 62.555c1.38.12 2.604-.812 2.753-2.118l2.863-25.068c.15-1.312-.833-2.493-2.205-2.69L53.548 44.783z"/><path fill="#EDEDED" d="M54.362 44.877a2.067 2.067 0 0 0-.333 2.907l9.887 14.79a2.423 2.423 0 0 0 2.616-2.136l2.863-25.068a2.425 2.425 0 0 0-2.066-2.675L54.362 44.877z"/><path opacity=".3" fill="#1D1D1B" d="M61.726 48.663a1.988 1.988 0 0 0 .332-2.91L51.492 30.888c-1.377-.118-2.606.812-2.755 2.12l-2.863 25.067c-.15 1.312.835 2.496 2.206 2.69l13.646-12.102z"/><path fill="#EDEDED" d="M60.91 48.57a2.07 2.07 0 0 0 .33-2.91l-9.885-14.79a2.424 2.424 0 0 0-2.618 2.137l-2.863 25.068a2.42 2.42 0 0 0 2.066 2.672L60.91 48.57z"/><path fill="#0275BC" d="M49.485 48.637c1.203 2.675 4.074 3.058 5.82 2.3 2.58-1.12 2.972-4.106 2.637-5.234-.22-.746-1.183-.538-.985.18.39 1.416-.42 3.63-2.347 4.213-1.768.54-3.474-.418-4.15-1.685-.633-1.194-.62-3.296.914-4.687 1.645-1.495 4.072-.5 4.61.16.136.168-.02.424-.255.373l-3.673-.42c-.104-.014-.438.02-.478.365l-.007.058c-.025.22.134.398.37.427-.55.432-.94 1.065-1.02 1.775-.162 1.403.945 2.783 2.363 2.947 1.402.16 2.78-.932 2.942-2.336a2.624 2.624 0 0 0-.56-1.94l.265.022c.8.1 1.458-.885.988-1.65-1.032-1.693-4.136-2.145-5.982-.744-1.766 1.34-2.374 3.83-1.453 5.88zm5.877-1.656c-.107.937-.862 1.572-1.926 1.45-.95-.11-1.715-.795-1.594-1.86l.003-.035c.107-.92.812-1.61 1.845-1.546l.21.02c.896.154 1.58.928 1.462 1.97z"/><path opacity=".1" d="M74.79 22.87a5.812 5.812 0 0 0-.638-.038H36.967a5.74 5.74 0 0 0 0 11.478h4.49c.458 1.576 1.73 2.715 3.235 2.715h21.734c1.504 0 2.78-1.14 3.235-2.715h4.492c.215 0 .428-.014.637-.037V22.87z"/><path fill="#00447D" d="M41.275 30.147H69.84v1.438c0 2.204-1.528 3.99-3.415 3.99H44.692c-1.886 0-3.417-1.786-3.417-3.99v-1.438z"/><path opacity=".2" d="M69.277 33.78c.357-.628.564-1.382.564-2.194v-1.438H41.276v1.438c0 .812.21 1.566.565 2.193h27.437z"/><path fill="#00447D" d="M74.79 21.42a5.812 5.812 0 0 0-.638-.037H36.967a5.74 5.74 0 0 0 0 11.48h37.186c.215 0 .428-.015.637-.038V21.42z"/><path fill="#0077BF" d="M74.79 15.863H30.493c-1.2 0-2.173.973-2.173 2.17v7.42a2.17 2.17 0 0 0 2.174 2.174H74.79V15.863z"/><path fill="#0064AB" d="M74.79 19.324c-.132-.01-.263-.02-.396-.02h-37.67c-3.27 0-5.922 2.735-5.922 6.114v2.208H74.79v-8.302z"/><path opacity=".2" fill="#FFF" d="M74.79 21.383H35.696a1.13 1.13 0 0 0 0 2.264H74.79v-2.264z"/><path opacity=".1" fill="#FFF" d="M74.79 29.07c-.025-.003-.044-.016-.07-.016H36.4c-.604 0-1.09.49-1.09 1.093 0 .604.486 1.09 1.09 1.09H74.72c.025 0 .045-.012.07-.014V29.07z"/><g opacity=".7" fill="#00447D"><path d="M26.557 108.52V73.148a.766.766 0 0 0-1.533 0v35.373h1.533zM33.23 108.52V82.73a.767.767 0 0 0-1.534 0v25.79h1.534z"/></g><g><path fill="#0071C4" d="M71.84 94.99c0 1.2-.974 2.173-2.172 2.173H43.122a2.173 2.173 0 0 1-2.172-2.172V81.718c0-1.198.974-2.17 2.172-2.17h26.546c1.2 0 2.17.972 2.17 2.17V94.99z"/><path fill="#00447D" d="M69.668 97.606H43.122a2.618 2.618 0 0 1-2.615-2.615V81.718a2.617 2.617 0 0 1 2.615-2.613h26.546a2.618 2.618 0 0 1 2.615 2.613V94.99a2.618 2.618 0 0 1-2.615 2.616zM43.122 79.99a1.73 1.73 0 0 0-1.73 1.727V94.99c0 .954.776 1.73 1.73 1.73h26.546a1.73 1.73 0 0 0 1.73-1.73V81.718a1.73 1.73 0 0 0-1.73-1.727H43.122z"/></g><path opacity=".2" fill="#FFF" d="M66.892 84.012c0 .6-.486 1.085-1.086 1.085H46.742c-.6 0-1.085-.485-1.085-1.085 0-.598.487-1.085 1.085-1.085h19.064c.6 0 1.086.487 1.086 1.085zM66.892 88.355c0 .598-.486 1.085-1.086 1.085H46.742a1.086 1.086 0 0 1 0-2.17h19.064c.6 0 1.086.486 1.086 1.085zM66.892 92.834c0 .6-.486 1.086-1.086 1.086H46.742a1.087 1.087 0 0 1 0-2.174h19.064c.6 0 1.086.487 1.086 1.088z"/><path opacity=".1" fill="#FFF" d="M74.79 6.814H24.66a1.448 1.448 0 0 0 0 2.895H74.79V6.813z"/><path opacity=".2" d="M15.01 108.52V7.87a5.763 5.763 0 0 0-1.62 4.012v96.64h1.62z"/><path opacity=".1" d="M74.79 32.122l-47.71 76.4h47.71z"/></g></svg>