<svg xmlns="http://www.w3.org/2000/svg" width="76.698" height="108.771" viewBox="0 0 76.698 108.771"><path fill="#76D9FC" d="M76.388.002C35.072.07 1.598 33.58 1.598 74.907c0 12.18 2.91 23.678 8.068 33.845h66.722V.002z"/><path fill-rule="evenodd" clip-rule="evenodd" fill="#00A936" d="M28.158 89.55c-.41-.17-.98-.286-1.363-.336-.505-.06-.878-.08-1.222 0-1.02.302-1.087 1.365 1.68 3.028.742.99 2.086 1.888 3.36 1.395.74-2.1-.8-3.38-2.455-3.95 0-.136.015-.095 0-.136zM39.74 68.335c.12.107.198.283.305.3h.158c.747.213 1.47-.54.906-.59-.22-.04-.654.017-1.37.29zM57.092 61.792c-1.186.2-1.47 1 1.076 2.75.316-.092 2.51-.58 1.224.746 3.956-2.365-.276-3.855-2.3-3.496zM57.092 44.873c4.264-1.733 5.248-12.962.17-12.632-.332 0-.66.167-1.078.32 2.127 3.92-2.776 8.902.908 12.313zM67.917 24.94c1.23-.57 1.82-2.614 0-2.614-.326-.085-.576-.173-.904-.155-.33.012-.66.13-.9.156-3.596.716-2.502 6.68 1.804 2.615z"/><path fill-rule="evenodd" clip-rule="evenodd" fill="#00A936" d="M76.388 23.855c-1.064-.37-2.25-.458-3.433-.31-5.203.66-10.454 5.685-5.614 10.66 3.466 4.327-5 13.155 3.035 15.42 1.4-3.134 3.868-5.98 6.013-8.925V23.855z"/><path fill="#00A936" d="M20.72 103.066c1.435 1.798 1.91 3.718 1.98 5.686h18.06c-7.528-5.388-21.71-2.275-21.434-14.515.737-6.153-4.206-9.127-7.913-12.024-2.85-9.522 14.522-13.028 14.775-2.593 5.72-.3 7.726-10.275 14.332-11.72 3.403-2.953 12.607.223 9.278-5.808 3.29-3.13 12.948-3.018 8.22-10.34-1.58-7.133-10.352-10.58-13.235-2.46-7.935 2.132-4.737-15.088 3.34-12.793 5.857.335 5.06-4.756 1.508-6.39 0-.25-.074-.386-.297-.164-.647-.244-1.33-.497-2.13-.457-7.92-4.378 7.923-15.526-2.57-19.06-11.513 9.838-29.08 25.314-36.11 39.775C5.35 59.27 5.88 68.4 6.25 77.935c3.223 9.237 9.488 16.854 14.472 25.13zM76.388.42c-.078 0-.155-.005-.233-.005-2.035 0-4.102.123-6.11.288-1.04.227-2.19.357-3.362.468a14.57 14.57 0 0 0-1.2.154c-4.208.59-8.22 1.325-12.17 2.574 7.758-.57 15.672-.556 23.075 1.456V.42z"/><g opacity=".2" fill="#010000"><path d="M5.24 51.822c-.017.055-.032.095-.045.144.69-.037 1.308-.09 1.308-.144H5.24z"/><path d="M76.388 108.752V0C70.818.01 65.39.646 60.16 1.808c-10.71 3.377-20.333 10.026-28.033 19.01-.604.146-1.208.284-1.793.427-2.828.688-5.825 1.55-8.606 2.594a79.03 79.03 0 0 0-3.492 4.015c2.858-1.49 6.76-2.902 11.53-4.132-5.217 6.767-9.42 14.665-12.31 23.366-2.64.35-4.896.726-6.742 1.122-2.157.466-3.71.94-4.748 1.49-.217.592-.416 1.182-.603 1.77 2.118-.49 5.864-1.22 11.343-1.993-2.27 7.56-3.56 15.68-3.68 24.143H1.64c-.015.422-.04.85-.04 1.286 0 .328.02.65.025.98h11.4c.086 8.367 1.325 16.412 3.52 23.927-8.825-1.26-9.983-2.412-10.103-2.577.014.022.06.117.06.243H5.07a64 64 0 0 0 .685 2.02c1.035.59 2.65 1.103 4.96 1.597 1.815.39 4.002.757 6.58 1.103a82.84 82.84 0 0 0 2.442 6.55h2.42a80.053 80.053 0 0 1-2.41-6.237c1.922.23 4.008.446 6.263.647 6.558.603 14.177 1.07 22.46 1.383.24 1.427.503 2.82.776 4.208h2.282a144.126 144.126 0 0 1-.776-4.12c7.705.26 15.947.42 24.425.42v3.7h1.21zm-1.21-35.13H48.334c.065-9.287.79-18.297 2.125-26.658 7.8-.273 16.155-.43 24.716-.437V73.62zm0-29.37c-8.45.012-16.658.155-24.34.424 1.41-8.107 3.406-15.556 5.94-22.008a70.1 70.1 0 0 1 1.325-3.197 257.85 257.85 0 0 1 17.074-.617V44.25zm0-27.674c-5.472.018-10.834.203-15.99.553 4.625-9.478 10.177-14.887 15.99-15.495v14.943zM67.747 2.3c-4.094 2.944-7.87 8.025-11.125 15.016-7.513.58-14.537 1.488-20.784 2.716 8.77-9.328 19.77-15.687 31.908-17.73zm-34.43 20.57c6.54-1.443 14.093-2.515 22.26-3.19-.308.692-.6 1.408-.888 2.145-2.62 6.728-4.684 14.492-6.136 22.94-8.317.313-15.968.784-22.548 1.373-2.184.208-4.214.418-6.084.64 3.132-9.012 7.72-17.132 13.396-23.907zm-5.49 78.18c-3.488-.306-6.402-.607-8.846-.916-2.32-7.58-3.637-15.74-3.722-24.246H46.1c.048 9.16.735 18.06 2 26.374-7.396-.292-14.254-.697-20.27-1.21zM46.1 73.62H15.26c.126-8.597 1.492-16.836 3.883-24.47 2.403-.29 5.27-.59 8.682-.89 6.03-.513 12.923-.92 20.354-1.21-1.3 8.36-2.016 17.326-2.08 26.57zm4.276 28.718c-1.288-8.303-1.99-17.238-2.04-26.45h26.843v26.887c-8.598 0-16.976-.155-24.803-.437z"/></g><g><path fill-rule="evenodd" clip-rule="evenodd" fill="#00A936" d="M29.78 100.845c-.41-.173-.978-.285-1.358-.335-.503-.058-.874-.08-1.216 0-1.016.3-1.084 1.36 1.67 3.018.74.984 2.08 1.88 3.348 1.388.737-2.09-.796-3.365-2.444-3.935 0-.135.014-.093 0-.135zM41.314 79.717c.12.107.196.28.303.3h.158c.745.21 1.464-.54.902-.588-.22-.04-.65.018-1.363.287zM58.594 73.2c-1.18.202-1.465.995 1.073 2.737.313-.088 2.498-.577 1.217.744 3.94-2.35-.275-3.835-2.29-3.48zM58.594 56.353c4.247-1.728 5.227-12.91.17-12.582-.33 0-.657.166-1.072.32 2.116 3.9-2.766 8.866.902 12.263zM69.375 36.502c1.225-.568 1.812-2.604 0-2.604-.326-.084-.574-.173-.9-.153-.328.01-.655.128-.896.153-3.583.713-2.494 6.652 1.795 2.604z"/><path fill-rule="evenodd" clip-rule="evenodd" fill="#00A936" d="M76.698 35.142a8.157 8.157 0 0 0-2.306-.028c-5.183.656-10.412 5.66-5.59 10.614 3.45 4.312-4.982 13.1 3.02 15.356 1.158-2.588 3.045-4.98 4.875-7.395V35.14z"/><path fill="#C6C6C6" d="M8.357 99.744a.583.583 0 1 1-.9.742L.134 91.61a.584.584 0 0 1 .078-.823.586.586 0 0 1 .823.08l7.32 8.877z"/><path fill="#C6C6C6" d="M3.57 91.317a.667.667 0 0 1-.09.94l-1.16.954a.668.668 0 0 1-.94-.088L.187 91.674a.667.667 0 0 1 .09-.94l1.16-.956a.668.668 0 0 1 .938.09l1.196 1.45z"/><path fill="#9D9D9C" d="M9.306 99.18a.42.42 0 0 1-.057.59l-1.095.903a.42.42 0 0 1-.592-.057l-.568-.688a.42.42 0 0 1 .057-.59l1.094-.905a.422.422 0 0 1 .592.058l.568.69z"/><path fill="#CEAD84" d="M28.873 64.838l-4.763 3.93-1.305-1.583 4.762-3.93z"/><path opacity=".2" d="M9.043 98.86l-.305-.37a.422.422 0 0 0-.592-.058l-1.094.904a.42.42 0 0 0-.057.59l.305.37 1.743-1.436z"/><path fill="#C6C6C6" d="M39.276 76.125a1.262 1.262 0 0 1-.17 1.776l-1.986 1.64c-.537.44-.38-.42-.822-.957l-2.207-2.676c-.442-.537-1.318-.546-.782-.99l1.986-1.637a1.262 1.262 0 0 1 1.775.17l2.206 2.675z"/><path opacity=".2" d="M38.206 74.83l-1.138-1.38a1.262 1.262 0 0 0-1.775-.17l-1.986 1.638c-.537.443.34.452.783.99l1.137 1.377 2.98-2.456z"/><path fill="#C6C6C6" d="M9.16 100.115a.78.78 0 0 0 1.1.105l1.232-1.015c.333-.274-.21-.282-.485-.614l-1.37-1.658c-.273-.334-.176-.867-.51-.593l-1.23 1.015a.78.78 0 0 0-.105 1.102l1.368 1.658z"/><path opacity=".2" d="M8.496 99.31l-.705-.853a.782.782 0 0 1 .106-1.102l1.23-1.016c.334-.275.237.258.51.592l.706.854-1.846 1.524z"/><path fill="#445258" d="M39.07 78.93a1.262 1.262 0 0 1-.17 1.776l-25.26 20.836a1.26 1.26 0 0 1-1.775-.17l-4.727-5.73a1.26 1.26 0 0 1 .17-1.774L32.57 73.03a1.26 1.26 0 0 1 1.776.17l4.726 5.73z"/><path fill="#445258" d="M19.604 108.77h17.973l13.41-11.06a1.26 1.26 0 0 0 .17-1.776L38.226 80.26a1.26 1.26 0 0 0-1.775-.17L13.32 99.174a1.26 1.26 0 0 0-.17 1.774l6.454 7.824z"/><path opacity=".3" d="M10.84 100.13l1.024 1.24c.443.54 1.24.615 1.776.172L38.9 80.706c.536-.443.612-1.24.17-1.776l-1.026-1.243L10.84 100.13z"/><path opacity=".4" d="M34.566 73.47l-.223-.27a1.262 1.262 0 0 0-1.775-.17L7.31 93.87a1.258 1.258 0 0 0-.17 1.772l.222.272L34.566 73.47z"/><path fill="#E84343" d="M19.604 108.77h16.65L50.45 97.06a1.258 1.258 0 0 0 .17-1.774L37.69 79.612a1.26 1.26 0 0 0-1.774-.17l-23.13 19.082a1.26 1.26 0 0 0-.172 1.774l6.99 8.473z"/><path fill="#FF625A" d="M19.603 108.77H32.95l16.162-13.33a1.258 1.258 0 0 0 .17-1.775L36.354 77.99a1.26 1.26 0 0 0-1.775-.17L11.446 96.904a1.26 1.26 0 0 0-.17 1.774l8.326 10.094z"/><path opacity=".13" fill="#FFF" d="M34.58 77.82L11.446 96.904a1.26 1.26 0 0 0-.17 1.774l4.882 5.918 25.076-20.687-4.882-5.92a1.26 1.26 0 0 0-1.775-.167z"/><path fill="#445258" d="M30.063 108.77L46.97 94.825 40.104 86.5l-21.186 17.477 3.955 4.794z"/><path fill="#FFF" d="M40.894 96.51a.988.988 0 0 1-.134 1.39l-10.592 8.737a.99.99 0 0 1-1.39-.132.99.99 0 0 1 .132-1.393l10.59-8.736a.99.99 0 0 1 1.394.133z"/><circle fill="#FFF" cx="41.715" cy="91.856" r=".988"/><circle fill="#FFF" cx="39.191" cy="93.937" r=".988"/><circle fill="#FFF" cx="36.668" cy="96.019" r=".988"/><circle fill="#FFF" cx="34.145" cy="98.1" r=".988"/><circle fill="#FFF" cx="31.622" cy="100.182" r=".988"/><circle fill="#FFF" cx="29.099" cy="102.262" r=".988"/><circle fill="#FFF" cx="26.576" cy="104.345" r=".988"/><circle fill="#FFF" cx="24.052" cy="106.425" r=".988"/><circle fill="#FFF" cx="38.805" cy="90.899" r=".988"/><circle fill="#FFF" cx="36.282" cy="92.98" r=".988"/><circle fill="#FFF" cx="33.759" cy="95.062" r=".988"/><circle fill="#FFF" cx="31.236" cy="97.143" r=".987"/><circle fill="#FFF" cx="28.713" cy="99.226" r=".988"/><circle fill="#FFF" cx="26.189" cy="101.306" r=".987"/><circle fill="#FFF" cx="23.667" cy="103.387" r=".988"/><circle fill="#FFF" cx="42.404" cy="95.262" r=".987"/><circle fill="#FFF" cx="27.265" cy="107.75" r=".988"/><path fill="#1D1D1B" d="M33.605 76.34a.788.788 0 0 1-.106 1.108L11.286 95.77a.787.787 0 0 1-1.11-.105.786.786 0 0 1 .107-1.108l22.213-18.323a.784.784 0 0 1 1.108.105z"/><path fill="#445258" d="M18.192 91.135l-.342 6c3.67.317 7.46-.745 10.525-3.274s4.83-6.048 5.217-9.71l-5.958-.804-9.442 7.79z"/><path opacity=".2" d="M27.728 93.077c-2.846 2.347-6.353 3.387-9.83 3.207l-.048.852c3.67.316 7.46-.746 10.525-3.275s4.83-6.048 5.217-9.71l-.847-.114c-.484 3.447-2.17 6.693-5.017 9.04z"/><path fill="#FFE4C0" d="M2.895 80.546c1.12-.922 2.81-.72 3.775.45l-4.052 3.345 9.15 11.094L32.916 77.99l-10.9-13.215-19.12 15.77z"/><path fill="#FFE4C0" d="M2.895 80.546c-1.12.924-1.243 2.622-.277 3.795l4.052-3.343c-.966-1.172-2.656-1.373-3.775-.45z"/><path opacity=".2" d="M11.332 94.904l21.145-17.442.435.53-21.144 17.44z"/><path fill="#FFE4C0" d="M22.014 64.778l2.026-1.67 1.605 1.944-2.026 1.672z"/><path fill="#CEAD84" d="M24.073 63.146a2.626 2.626 0 0 0-.354 3.697l4.05-3.344a2.627 2.627 0 0 0-3.697-.354z"/><path fill="#FFE4C0" d="M19.504 88.992l.75.91a.925.925 0 0 0 1.3.126l4.354-3.593a.925.925 0 0 0 .125-1.3l-.75-.91-5.78 4.767z"/><path opacity=".2" d="M19.504 88.992l.75.91a.925.925 0 0 0 1.3.126l4.354-3.593a.925.925 0 0 0 .125-1.3l-.75-.91-5.78 4.767zM3.662 91.468a.673.673 0 0 0-.092-.15L2.375 89.87a.668.668 0 0 0-.94-.09l-1.158.956a.665.665 0 0 0-.167.82l3.552-.088z"/><path opacity=".3" d="M14.035 81.803a.422.422 0 0 1-.057.592L8.142 87.21a.42.42 0 0 1-.59-.058l-3.646-4.42a.42.42 0 0 1 .056-.59L9.8 77.326a.422.422 0 0 1 .59.058l3.645 4.42zM20.462 69.24a.422.422 0 0 1-.057.593l-8.234 6.793a.422.422 0 0 1-.59-.058l-.12-.142a.423.423 0 0 1 .058-.593l8.234-6.792a.42.42 0 0 1 .592.058l.118.142zM23.978 70.006a.42.42 0 0 1-.057.592l-9.99 8.243a.422.422 0 0 1-.593-.056l-.117-.143a.42.42 0 0 1 .058-.59l9.99-8.243a.42.42 0 0 1 .593.057l.118.142zM25.79 72.12a.42.42 0 0 1-.057.592l-9.99 8.242a.42.42 0 0 1-.594-.057l-.118-.142a.422.422 0 0 1 .057-.592l9.99-8.242a.42.42 0 0 1 .592.058l.118.143zM27.366 74.112a.42.42 0 0 1-.057.592L9.765 89.18a.423.423 0 0 1-.592-.06l-.118-.142a.42.42 0 0 1 .057-.592l17.545-14.472a.42.42 0 0 1 .592.056l.116.142zM29.06 76.166a.423.423 0 0 1-.056.594L11.46 91.232a.42.42 0 0 1-.592-.058l-.117-.143a.42.42 0 0 1 .058-.59l17.545-14.473a.42.42 0 0 1 .59.057l.118.142z"/><path opacity=".4" fill="#444" d="M56.958 76.854l-3.124-1.14a.416.416 0 0 0-.262-.47l-4.197-1.53a.415.415 0 0 0-.51.203L15.455 61.73l.004-.015-10.82.044 8.25 7L45.59 80.69l-.017.04.7.257.015-.043.012.005a.417.417 0 0 0 .262.468l4.197 1.53a.42.42 0 0 0 .48-.15l3.124 1.14c.32.118.652.126.96.053.046-.01.09-.026.134-.04.043-.015.087-.028.13-.046.075-.03.147-.07.217-.11l.02-.012a1.67 1.67 0 0 0 .708-.853l1.43-3.92a1.683 1.683 0 0 0-1.005-2.156z"/><path fill="#FC9142" d="M49.806 72.523l-2.564 7.028-34.35-12.534 2.563-7.028z"/><path opacity=".2" d="M48.042 77.48l-.76 2.088L12.884 67.02l.76-2.085z"/><path opacity=".2" fill="#FFF" d="M49.884 72.555l-.765 2.098-34.433-12.568.765-2.098z"/><path fill="#FFE0A9" d="M4.64 60.02l8.25 7a1.12 1.12 0 0 0 .767-2.102 1.528 1.528 0 1 0 1.047-2.872v-.002a1.09 1.09 0 1 0 .75-2.052l.005-.014-10.82.043z"/><path opacity=".05" fill="#3C3C3B" d="M4.64 60.02l8.25 7a1.12 1.12 0 0 0 .767-2.102c.793.29-9.018-4.897-9.018-4.897z"/><path fill="#3C3C3B" d="M8.735 60.006l-4.096.015 3.122 2.652z"/><path fill="#FF839E" d="M56.533 81.19a1.683 1.683 0 0 1-2.157 1.004l-5.48-2a1.68 1.68 0 0 1-1.004-2.156l1.43-3.918a1.68 1.68 0 0 1 2.155-1.003l5.48 2a1.68 1.68 0 0 1 1.006 2.155l-1.43 3.917z"/><path opacity=".1" fill="#3C3C3B" d="M56.43 81.388L51 79.408l-.504 1.383 3.867 1.412a1.68 1.68 0 0 0 2.064-.814z"/><path fill="#DADADA" d="M51.302 80.96a.42.42 0 0 1-.54.25l-4.197-1.53a.42.42 0 0 1-.25-.54l2.522-6.91a.42.42 0 0 1 .54-.253l4.196 1.53c.22.08.33.322.25.54l-2.52 6.913z"/><g opacity=".3"><path fill="#3C3C3B" d="M50.89 80.545a.276.276 0 1 1-.518-.188l2.353-6.447a.276.276 0 1 1 .52.19l-2.355 6.445zM50.023 80.23a.277.277 0 0 1-.355.164.278.278 0 0 1-.165-.354l2.35-6.445a.274.274 0 0 1 .355-.164c.143.053.218.21.166.354l-2.35 6.445zM49.152 79.912a.275.275 0 0 1-.354.163.276.276 0 0 1-.165-.353l2.352-6.446a.277.277 0 0 1 .354-.164c.143.052.216.21.164.353l-2.352 6.447zM48.283 79.595a.278.278 0 0 1-.354.164.278.278 0 0 1-.166-.355l2.352-6.446a.277.277 0 0 1 .52.19l-2.353 6.445zM47.414 79.277a.276.276 0 0 1-.354.165.278.278 0 0 1-.166-.354l2.352-6.446a.275.275 0 0 1 .354-.163c.143.05.217.21.166.353l-2.352 6.444z"/></g><path opacity=".3" fill="#FFF" d="M56.618 77.993a.42.42 0 0 1-.252-.54.947.947 0 0 0-.562-1.21.42.42 0 1 1 .29-.79 1.787 1.787 0 0 1 1.064 2.29.42.42 0 0 1-.54.25z"/><path opacity=".3" fill="#3C3C3B" d="M48.843 72.205l-2.57 7.048-.698-.255 2.57-7.048z"/><path fill="#00AA59" d="M40.354 63.395c.12.182.07.427-.112.546l-8.685 5.718a.393.393 0 0 1-.545-.112l-9.116-13.848a.393.393 0 0 1 .113-.545l8.684-5.718a.394.394 0 0 1 .545.112l9.114 13.848z"/><path opacity=".7" d="M23.152 54.398l2.604-1.713 9.547 14.505-2.603 1.714z"/><path opacity=".3" d="M30.88 49.718l-4.94 3.252-2.603 1.715-1.142.75a.393.393 0 0 0-.112.546l6.038 9.174a5.086 5.086 0 0 0 2.005-.774l5.49-3.612a5.07 5.07 0 0 0 1.732-1.938l-5.92-8.996a.395.395 0 0 0-.548-.116z"/><path fill="#323C3F" d="M35.513 51.342c.31.47.18 1.103-.29 1.413l-12.303 8.1a1.02 1.02 0 0 1-1.413-.293L10.414 43.71c-.31-.47-.18-1.104.292-1.412l12.3-8.1c.472-.31 1.105-.18 1.414.29l11.093 16.854z"/><path d="M36.508 52.853a5.098 5.098 0 0 1-1.456 7.062l-5.488 3.613a5.1 5.1 0 0 1-7.062-1.455l-1.69-2.567a5.1 5.1 0 0 1 1.456-7.062l5.49-3.613a5.098 5.098 0 0 1 7.06 1.456l1.69 2.567z"/><path fill="#323C3F" d="M35.947 52a5.1 5.1 0 0 1-1.455 7.063l-5.49 3.614a5.1 5.1 0 0 1-7.06-1.456l-1.69-2.565a5.1 5.1 0 0 1 1.455-7.062l5.488-3.614a5.1 5.1 0 0 1 7.062 1.455L35.947 52z"/><path fill="#EDEDED" d="M29.253 45.42c.104.156.07.36-.074.457l-10.19 6.706c-.144.095-.343.044-.447-.112l-4.387-6.665c-.103-.156-.07-.36.074-.455l10.188-6.706c.145-.096.345-.045.45.112l4.385 6.663z"/><ellipse transform="rotate(-33.382 32.5 53.663)" fill="#FFF" cx="32.5" cy="53.664" rx="1.351" ry=".949"/><ellipse transform="rotate(-33.353 28.764 56.12)" fill="#FFF" cx="28.766" cy="56.122" rx="1.35" ry=".95"/><ellipse transform="rotate(-33.366 25.035 58.582)" fill="#FFF" cx="25.032" cy="58.581" rx="1.35" ry=".949"/><ellipse transform="rotate(-33.36 34.05 56.02)" fill="#27C66D" cx="34.048" cy="56.016" rx="1.35" ry=".949"/><ellipse transform="rotate(-33.374 30.315 58.474)" fill="#F2CF49" cx="30.314" cy="58.474" rx="1.35" ry=".95"/><ellipse transform="rotate(-33.36 26.583 60.936)" fill="#F83C3A" cx="26.581" cy="60.932" rx="1.35" ry=".95"/><ellipse transform="rotate(-33.358 30.83 51.128)" fill="#FFF" cx="30.833" cy="51.132" rx="1.351" ry=".949"/><ellipse transform="rotate(-33.366 27.102 53.592)" fill="#FFF" cx="27.1" cy="53.59" rx="1.35" ry=".95"/><ellipse transform="rotate(-33.353 23.364 56.045)" fill="#FFF" cx="23.366" cy="56.048" rx="1.35" ry=".95"/><ellipse transform="rotate(-33.366 29.256 48.734)" fill="#FFF" cx="29.254" cy="48.733" rx="1.35" ry=".95"/><ellipse transform="rotate(-33.366 25.522 51.192)" fill="#FFF" cx="25.52" cy="51.191" rx="1.35" ry=".95"/><ellipse transform="rotate(-33.374 21.786 53.65)" fill="#FFF" cx="21.786" cy="53.649" rx="1.351" ry=".95"/><path fill="#575756" d="M23.734 36.19a1.15 1.15 0 0 1-.33 1.595l-9.562 6.296a1.152 1.152 0 0 1-1.596-.326 1.154 1.154 0 0 1 .33-1.596l9.563-6.296a1.152 1.152 0 0 1 1.594.328z"/><path fill="#FFE4C0" d="M8.022 35.238l9.385-6.178 5.822 8.844-9.386 6.178z"/><path opacity=".05" d="M17.404 29.06l-3.562 15.02 9.384-6.177z"/><path opacity=".2" d="M13.395 43.404l9.384-6.18.445.678-9.384 6.18z"/><path fill="#FFE4C0" d="M8.09 35.343l.056-1.608 1.5.583zM9.647 34.318l.056-1.607 1.5.584zM11.203 33.294l.058-1.608 1.5.583z"/><path fill="#FFE4C0" d="M12.76 32.27l.057-1.61 1.5.584zM14.318 31.244l.057-1.608 1.5.582zM15.875 30.218l.058-1.61 1.5.585z"/><path d="M20.047 35.345c.106.16.06.376-.1.48l-6.72 4.425a.348.348 0 0 1-.48-.1.347.347 0 0 1 .1-.48l6.72-4.425a.35.35 0 0 1 .48.1zM19.174 34.018c.105.16.06.376-.1.48l-6.72 4.425a.347.347 0 0 1-.48-.1.35.35 0 0 1 .1-.482l6.718-4.423a.35.35 0 0 1 .482.1zM18.3 32.69c.105.16.06.377-.1.482l-6.718 4.423a.348.348 0 1 1-.382-.58l6.72-4.424a.347.347 0 0 1 .48.1zM17.426 31.363c.106.16.06.377-.1.48l-6.72 4.425a.347.347 0 0 1-.48-.1.347.347 0 0 1 .1-.48l6.72-4.424a.35.35 0 0 1 .48.1z" opacity=".4"/><path d="M27.273 44.143a.44.44 0 0 1-.126.612l-8.562 5.638a.444.444 0 0 1-.613-.13.44.44 0 0 1 .125-.61l8.562-5.637a.443.443 0 0 1 .613.127zM26.16 42.45a.443.443 0 0 1-.126.614L17.47 48.7a.443.443 0 0 1-.487-.74l8.564-5.636a.444.444 0 0 1 .613.127zM25.046 40.76a.442.442 0 0 1-.125.613l-8.56 5.637a.442.442 0 1 1-.487-.738l8.562-5.638a.44.44 0 0 1 .61.127z" opacity=".2"/><path opacity=".3" fill="#444" d="M76.698 30.438H27.91c-1.193 0-5.776 77.42-5.776 77.42 0 .326.35.634.874.912h53.69V30.438z"/><path fill="#F4D9C1" d="M76.698 30.438h-46.63c-1.192 0-2.16.97-2.16 2.163v75.258c0 .326.078.634.208.912h48.582V30.438z"/><path fill="#444" d="M76.698 30.438h-46.63c-1.192 0-2.16.97-2.16 2.163v6.486h48.79v-8.648z"/><circle fill="#2CB740" cx="32.632" cy="34.878" r="1.711"/><circle fill="#F16442" cx="37.847" cy="34.878" r="1.71"/><path fill="#FFF" d="M76.698 33.064H42.344c-.94 0-1.71.765-1.71 1.71 0 .946.77 1.712 1.71 1.712h34.354v-3.422z"/><path opacity=".2" fill="#444" d="M76.698 42.36H47.19c-.61 0-1.108.497-1.108 1.108 0 .612.5 1.108 1.11 1.108h29.506V42.36zM43.665 43.47c0 .888-.72 1.613-1.613 1.613H32.18c-.89 0-1.61-.726-1.61-1.614 0-.89.72-1.61 1.61-1.61h9.872c.892-.002 1.613.72 1.613 1.61z"/><g opacity=".2" fill="#444"><path d="M76.698 50.23h-26.76c-.54 0-.976.415-.976.928 0 .51.438.926.975.926h26.76V50.23zM76.698 54.372h-26.76c-.54 0-.976.412-.976.925 0 .514.438.93.975.93h26.76V54.37zM76.698 58.458h-26.76c-.54 0-.976.413-.976.925s.438.926.975.926h26.76v-1.852zM76.698 62.538h-26.76c-.54 0-.976.414-.976.926s.438.928.975.928h26.76v-1.854z"/></g><g opacity=".2" fill="#444"><path d="M76.698 68.436H31.896c-.538 0-.976.414-.976.927 0 .51.438.927.976.927h44.802v-1.854zM76.698 72.577H31.896c-.538 0-.976.412-.976.926 0 .513.438.927.976.927h44.802v-1.853zM76.698 76.663H31.896c-.538 0-.976.414-.976.925 0 .512.438.926.976.926h44.802v-1.85zM76.698 80.743H31.896c-.538 0-.976.415-.976.926 0 .513.438.927.976.927h44.802v-1.854z"/></g><path opacity=".2" fill="#444" d="M76.698 84.752H31.896c-.538 0-.976.416-.976.93 0 .51.438.925.976.925h44.802v-1.855zM76.698 88.895H31.896c-.538 0-.976.414-.976.927 0 .51.438.926.976.926h44.802v-1.853zM76.698 92.98H31.896c-.538 0-.976.414-.976.926s.438.926.976.926h44.802v-1.85zM76.698 97.06H31.896c-.538 0-.976.417-.976.928 0 .514.438.928.976.928h44.802V97.06zM76.698 101.235H31.896c-.538 0-.976.412-.976.926 0 .513.438.928.976.928h44.802v-1.853zM76.698 105.32H31.896c-.538 0-.976.415-.976.926s.438.926.976.926h44.802v-1.852z"/><ellipse fill="#FCD22E" cx="44.785" cy="47.139" rx=".035" ry=".024"/><path opacity=".2" fill="#444" d="M45.89 63.936c0 .587-.476 1.063-1.063 1.063H31.984a1.064 1.064 0 0 1-1.063-1.064v-12.68c0-.588.478-1.065 1.064-1.065h12.843c.587 0 1.064.48 1.064 1.066v12.68z"/><path opacity=".3" fill="#444" d="M76.698 30.438H50.685c-1.193 0-5.776 77.42-5.776 77.42 0 .326.35.634.873.912H76.7V30.438z"/><path fill="#EDEDED" d="M76.698 30.263H52.88a2.237 2.237 0 0 0-2.234 2.238v76.27h26.052V30.264z"/><path fill="#444" d="M76.698 30.263H52.88a2.237 2.237 0 0 0-2.234 2.238v6.71h26.052v-8.947z"/><path fill="#2CB740" d="M57.302 34.855z"/><circle fill="#F16442" cx="60.927" cy="34.855" r="1.77"/><path fill="#FFF" d="M76.698 32.977h-11.12c-.972 0-1.77.793-1.77 1.77 0 .98.798 1.772 1.77 1.772h11.12v-3.543z"/><path opacity=".2" fill="#444" d="M76.698 42.598h-6.105c-.632 0-1.148.51-1.148 1.145a1.15 1.15 0 0 0 1.148 1.146h6.105v-2.292zM66.944 43.742c0 .92-.745 1.67-1.668 1.67H55.063a1.67 1.67 0 0 1-1.667-1.67c0-.92.745-1.665 1.667-1.665h10.213c.923 0 1.668.746 1.668 1.665z"/><path fill="#98CC0A" d="M50.646 47.896h26.052v27.176H50.646z"/><path opacity=".2" fill="#444" d="M53.688 97.435h23.01v11.336H53.69zM76.698 79.493H54.452c-.583 0-1.056.448-1.056 1 0 .55.473 1 1.056 1h22.246v-2zM76.698 83.962H54.452c-.583 0-1.056.445-1.056 1 0 .553.473 1 1.056 1h22.246v-2zM76.698 88.374H54.452c-.583 0-1.056.445-1.056.996 0 .553.473.997 1.056.997h22.246v-1.993zM76.698 92.773H54.452c-.583 0-1.056.45-1.056.998 0 .56.473 1.003 1.056 1.003h22.246v-2z"/><path opacity=".8" fill="#FFF" d="M76.698 55.344H58.343c-.51 0-.924.396-.924.88 0 .483.414.874.923.874h18.355v-1.754z"/><g opacity=".8" fill="#FFF"><path d="M76.698 59.542H58.343c-.51 0-.924.393-.924.876s.414.878.923.878h18.355v-1.754zM76.698 63.405H58.343c-.51 0-.924.39-.924.874s.414.874.923.874h18.355v-1.75zM76.698 67.265H58.343c-.51 0-.924.392-.924.87 0 .487.414.877.923.877h18.355v-1.747z"/></g><ellipse fill="#FCD22E" cx="68.104" cy="47.539" rx=".037" ry=".025"/></g></svg>