<svg baseProfile="basic" xmlns="http://www.w3.org/2000/svg" xmlns:xlink="http://www.w3.org/1999/xlink" width="270" height="194" viewBox="0 0 270 194"><defs><path id="a" d="M0 0h270v194H0z"/></defs><clipPath id="b"><use xlink:href="#a" overflow="visible"/></clipPath><g clip-path="url(#b)"><path fill="#B5261B" d="M324.7 54s-8.3-.4-18.7.9 7.8 34.9 7.8 34.9l16.8-11.6-5.9-24.2z"/><path fill="#8C0000" d="M61.8 180.1s13.4-.7 21.2-3.3c7.8-2.6-5.9-17.2-5.9-17.2l-16.8 3.9 1.5 16.6z"/><path fill="#76D9FC" d="M320.9 98c0 74.6-60.4 135-135 135s-135-60.4-135-135 60.5-135 135-135 135 60.5 135 135z"/><path fill-rule="evenodd" clip-rule="evenodd" fill="#00A936" d="M98.7 124.4c-.7-.3-1.8-.5-2.5-.6-.9-.1-1.6-.1-2.2 0-1.8.5-2 2.5 3 5.5 1.3 1.8 3.8 3.4 6.1 2.5 1.3-3.8-1.4-6.1-4.4-7.1 0-.3.1-.2 0-.3zM119.6 86.2c.2.2.4.5.6.5h.3c1.3.4 2.7-1 1.6-1.1-.4 0-1.2.1-2.5.6zM150.9 74.4c-2.1.4-2.7 1.8 1.9 4.9.6-.2 4.5-1 2.2 1.3 7.1-4.2-.5-6.9-4.1-6.2zM150.9 43.9c7.7-3.1 9.5-23.4.3-22.8-.6 0-1.2.3-1.9.6 3.8 7.1-5.1 16.1 1.6 22.2zM239.1 60.7c.6-4.2-6.1-7.3-9.1-7.2-1.8.1-2.1 1.4 1.2 4.4-3.2 7.2 5 7.6 7.9 2.8zM170.4 8c2.2-1 3.3-4.7 0-4.7-.6-.2-1-.3-1.6-.3-.6 0-1.2.2-1.6.3-6.6 1.3-4.6 12 3.2 4.7z"/><path fill-rule="evenodd" clip-rule="evenodd" fill="#00A936" d="M179.5 5.5c-9.4 1.2-18.8 10.2-10.1 19.2 6.2 7.8-9 23.7 5.5 27.8 5.7-12.9 21.5-23 17.6-38.7-1.7-6.7-7.4-9-13-8.3z"/><path fill="#00A936" d="M163.3 191.1c-13.9-9.2-23.9-23.3-39.6-30.2-12.7-12.3-41.4-4.7-40.9-28 1.3-11.1-7.6-16.4-14.3-21.7-5.1-17.2 26.2-23.5 26.6-4.7 10.4-.5 14-18.5 25.9-21.1 6.1-5.3 22.7.4 16.7-10.5 5.9-5.6 23.3-5.4 14.8-18.6-2.9-12.9-18.7-19.1-23.9-4.4-14.3 3.8-8.5-27.2 6-23.1 10.6.6 9.1-8.6 2.7-11.5 0-.5-.1-.7-.5-.3-1.2-.4-2.4-.9-3.8-.8-14.3-7.9 14.3-28-4.6-34.3C107.7-.4 76 27.5 63.3 53.5c-5.7 16.3-4.8 32.8-4.1 50 5.8 16.6 17.1 30.4 26.1 45.3 5.7 7.2 3 15.5 2.5 23.4-.2.1.1.2.1.3-.3 4.8.5 9.3 4.5 13.4 7 9.1 17.3 16.3 22.3 26.7 11.3 7 23.7 12.4 36.9 15.9 1.4-.6 4.3-1.5 14.8-2.5v-.3c0-3.1 14.4-7.7 21.5-13 11.8-14.3-12.7-25.7-24.6-21.6zM289.5 185.3c20-23.6 32.1-54 32.1-87.3 0-3.7-.3-7.4-.6-11l-.3-2.7c-7.7 4.2-21.4-19-7.4-8 2.7-.2 4.5-1 5.8-2.2-1.6-8.5-3.8-16.7-6.9-24.5-1.4-1.6-2.7-3.2-3.8-4.1.1-1.7-.1-3.3-.3-4.9-.1-.1.1-.2 0-.3-22-45.3-68.5-76.6-122.2-76.6-3.7 0-7.4.2-11 .5-1.9.4-4 .6-6.1.8-.7.1-1.4.2-2.2.3-7.6 1.1-14.8 2.4-21.9 4.6 18.6-1.4 37.6-.9 54.4 7.4 4.4 14.2 30.9.3 29.6 16.2.2.2.6.6.8.9-.4.3.3 3.2.8.8 4.6 5.2 14.2 15.9 4.1 14.6-13.4-1.8-9.9 24.6-.3 29.4 9.2 5 14.4-5 4.9-9.9-1.3-12.4 20.6 7.6 11 14.2-.4.3-.7.6-1.1.9.4-1.8-.6-.1-.6.3-11 8-4.7 26.7-9 39.2-7.6 16.9 19 9.5 15.1-3.9-4.9-12.2 20.3-6.7 14.8-15.4 15.3 8.1 13.8-13.6 7.4-20.9 3-11.6 10.8 1.4 7.1 7.7.6 6 5.8 7.4 9.9 9.1.2.1.4.2.8.3 3.6 1.7 5.8 3.9 1.9 10.7-4.5 15.1-19.7 15.9-32.1 13.2-12.6 5.2-14.9 20.5-22 30.7-7 12.8-12.9 31.7-.3 43.1 12.1 11.6 26 1.5 36-6.3 19.2-2.5 21 20.1 11.5 31.6.2.7.1 1.1.1 1.5z"/><g opacity=".2" fill="#010000"><path d="M57.4 56.4c0 .1-.1.2-.1.3 1.2-.1 2.4-.2 2.4-.3h-2.3zM299.9 170.3h-.2v.3c.1-.1.1-.2.2-.3z"/><path d="M310.7 138.7c0-.2.1-.4.1-.4-.2.3-2.3 2.3-17.7 4.6 4-13.5 6.2-28 6.3-43.1H320v-4.1h-20.6c-.2-15.2-2.5-29.8-6.6-43.4 15.6 2.2 17.6 4.3 17.8 4.6 0 0-.1-.2-.1-.4h3.7c-.3-.9-.6-1.7-.9-2.6-1.6-1.5-4.9-2.7-10.4-3.9-3.2-.7-7-1.3-11.5-1.9-5.2-15.7-12.8-30-22.2-42.1 9.5 2.4 17 5.3 22.2 8.3-2.1-2.6-4.2-5.1-6.5-7.6-5.4-2.1-11.3-3.9-16.9-5.2-1-.3-2.1-.5-3.1-.7-14.4-16.8-32.5-29.1-52.6-34.9-8.6-1.7-17.5-2.6-26.6-2.6-10.1 0-20 1.2-29.5 3.3-19.3 6.1-36.6 18.1-50.5 34.3-1.1.3-2.2.5-3.2.8-4.9.9-10.4 2.4-15.4 4.3-2.2 2.3-4.3 4.8-6.3 7.2C86 10.5 93 8 101.6 5.8c-9.4 12.2-17 26.4-22.2 42.1-4.8.6-8.8 1.3-12.1 2-3.9.8-6.7 1.7-8.6 2.7-.4 1.1-.7 2.1-1.1 3.2 3.8-.9 10.6-2.2 20.4-3.6-4.1 13.6-6.4 28.3-6.6 43.5H50.9c0 .8-.1 1.5-.1 2.3 0 .6 0 1.2.1 1.8h20.5c.2 15.1 2.4 29.6 6.3 43.1-15.9-2.3-18-4.3-18.2-4.6 0 0 .1.2.1.4H57l1.2 3.6c1.9 1.1 4.8 2 8.9 2.9 3.3.7 7.2 1.4 11.9 2 4.8 14.8 11.7 28.4 20.3 40.2-9.6-2.6-17-5.6-21.9-8.7 2 2.7 4.2 5.3 6.4 7.9 5.8 2.4 12.5 4.4 18.6 5.9.3.1.6.1.9.2 14.2 17.6 32.3 30.6 52.6 37.1 9.6 2.1 19.5 3.3 29.7 3.3 9.1 0 17.9-.9 26.5-2.6 21.4-6.2 40.4-19.6 55.2-37.9.2 0 .4-.1.6-.1 6.8-1.7 14.1-3.9 20.3-6.6 2.4-2.8 4.6-5.6 6.8-8.6-4.7 3.6-12.8 7.1-23.6 10.1 8.6-11.8 15.5-25.3 20.3-40.2 4.4-.6 8.2-1.3 11.3-1.9 5.8-1.3 9.2-2.6 10.7-4.2.3-.8.5-1.5.8-2.3h-3.8zM170.1-32.8c-7.4 5.3-14.2 14.5-20.1 27.1-13.5 1-26.2 2.7-37.5 4.9 15.9-16.9 35.7-28.3 57.6-32zM108 4.3c11.8-2.6 25.4-4.5 40.1-5.8-.5 1.3-1.1 2.5-1.6 3.9-4.7 12.1-8.4 26.1-11.1 41.3-15 .6-28.8 1.4-40.6 2.5-3.9.4-7.6.8-11 1.1 5.7-16.2 14-30.8 24.2-43zM82.5 51.6c4.3-.5 9.5-1.1 15.6-1.6 10.9-.9 23.3-1.7 36.7-2.2-2.3 15.1-3.6 31.2-3.7 47.9H75.5c.2-15.5 2.7-30.3 7-44.1zm-7 48.2h55.6c.1 16.5 1.3 32.6 3.6 47.5-13.3-.5-25.7-1.3-36.5-2.2-6.3-.6-11.5-1.1-15.9-1.7-4.3-13.6-6.7-28.3-6.8-43.6zm8.1 48c3.5.4 7.2.8 11.3 1.2 11.8 1.1 25.5 1.9 40.5 2.5 2.6 15.6 6.4 29.9 11.2 42.2l.6 1.5c-15.3-1.3-29.4-3.4-41.4-6.2-9.4-11.9-17-25.8-22.2-41.2zm26.4 46.3c11.6 2.4 24.8 4.2 38.9 5.3 6.1 13.8 13.3 23.8 21.1 29.5-23-3.9-43.8-16.5-60-34.8zm73.5 36c-11-1.2-21.4-11.8-30-30.3 9.6.7 19.7 1 30 1.1v29.2zm0-33.4c-10.9 0-21.6-.4-31.8-1.2-.5-1.1-.9-2.2-1.4-3.4-4.6-11.9-8.3-25.6-10.9-40.6 13.9.5 28.7.8 44 .8v44.4zm0-48.4c-15.5 0-30.6-.3-44.7-.8-2.3-15-3.6-31.1-3.7-47.7h48.4v48.5zm0-52.6h-48.4c.1-16.7 1.4-33 3.8-48 14.1-.5 29.1-.8 44.5-.8v48.8zm0-52.9c-15.2 0-30 .3-43.9.8 2.5-14.6 6.1-28 10.7-39.7.8-2 1.6-3.9 2.4-5.8 9.9-.7 20.2-1.1 30.8-1.1v45.8zm0-49.9c-9.9 0-19.5.4-28.8 1C163-23.2 173-32.9 183.5-34v26.9zm112 102.8h-55.6c-.1-16.6-1.4-32.8-3.7-47.9 13.2.5 25.4 1.3 36.1 2.2 6.5.6 11.8 1.1 16.3 1.7 4.2 13.7 6.6 28.6 6.9 44zm-8.4-48.3c-3.5-.4-7.4-.8-11.6-1.2-11.7-1-25.3-1.9-40-2.5-2.6-15.2-6.3-29.2-11.1-41.4-.5-1.3-1-2.6-1.6-3.9 14.7 1.2 28.3 3.2 40.1 5.8 10.3 12.3 18.6 26.9 24.2 43.2zM258.4-.8c-11.3-2.2-23.9-3.9-37.5-4.9-5.9-12.6-12.7-21.8-20.1-27.1 22 3.7 41.8 15.1 57.6 32zM187.5-34C198-32.9 208-23.2 216.3-6.1c-9.3-.6-19-1-28.8-1V-34zm0 31c10.6 0 20.9.4 30.8 1.1.8 1.8 1.6 3.7 2.4 5.7 4.5 11.6 8.1 25.1 10.7 39.7-13.8-.5-28.6-.7-43.9-.8V-3zm0 49.9c15.4 0 30.5.3 44.6.8 2.4 15.1 3.7 31.3 3.8 48h-48.4V46.9zm0 52.9h48.4c-.1 16.6-1.3 32.7-3.7 47.7-14.1.5-29.2.8-44.7.8V99.8zm0 52.6c15.3 0 30.1-.3 44-.8-2.6 15-6.2 28.7-10.9 40.6-.5 1.1-.9 2.3-1.4 3.3-10.2.8-20.9 1.2-31.8 1.2v-44.3zm0 48.4c10.3-.1 20.3-.4 30-1.1-8.6 18.6-19 29.2-30 30.3v-29.2zm13.4 28.1c7.8-5.7 15-15.6 21.2-29.5 14.2-1.2 27.4-3 39-5.4-16.3 18.4-37.1 31-60.2 34.9zm64.4-40c-12 2.8-26.1 5-41.5 6.3l.6-1.5c4.8-12.4 8.6-26.7 11.2-42.3 14.7-.6 28.3-1.4 40-2.5 4.3-.4 8.2-.8 11.8-1.2-5.2 15.4-12.8 29.3-22.1 41.2zm23.5-45.5c-4.5.6-10 1.2-16.5 1.7-10.7.9-22.9 1.6-36 2.2 2.3-15 3.5-31 3.6-47.5h55.6c-.2 15.3-2.5 30-6.7 43.6z"/></g><path opacity=".1" d="M80.9 181.6s82.8-38.8 124.2-51.7C246.5 117 321.5 104 321.5 104l-3.9-40.1-8.2-20.4s-60.8 40.8-96.6 52.7C162.3 113 74.4 173.8 74.4 173.8l5.2 7.8"/><g><path fill="#D52B1E" d="M209.9 129.3s52.4-9 121.9-26c.1-1.8.1-3.7.1-5.5 0-15.4-2.6-30.1-7.3-43.9C242.9 77.8 197 80.8 197 80.8l12.9 48.5z"/><path opacity=".2" d="M209.9 129.3l48.4-8.7-20.7-46.2-39.9 8z"/><path fill="#8C0000" d="M209.9 129.3l35.1-17.8-22-45.2-28.5 12.9z"/><path fill="#D52B1E" d="M61.8 180.1c81.6-36.4 184.1-69.1 184.1-69.1l-22-45.1s-103.8 37.3-181.3 69.7c3.6 16.1 10.3 31.2 19.2 44.5z"/><path opacity=".1" fill="#FFF" d="M58.4 174.8L223.9 65.9s-103.8 37.3-181.3 69.7c3.2 14 8.6 27.2 15.8 39.2z"/><path opacity=".1" d="M332 97.8c0-10.3-1.2-20.4-3.4-30.1L261.5 119c6.7-1.3 12.4-2.5 17.3-3.5 15.9-3.5 33.8-7.5 53.1-12.2 0-1.8.1-3.6.1-5.5z"/></g><path opacity=".2" d="M213.2 39.6H64.4L45.9 71.2l92.9 110.2 92.9-110.2z"/><g><path fill="#069DFA" d="M191.9 27.9H43.1L24.6 59.5l92.9 110.2 92.9-110.2z"/><path opacity=".8" fill="#FFF" d="M78.2 59.5l39.3 110.2 39.4-110.2z"/><path opacity=".9" fill="#FFF" d="M78.2 59.4l39.3 110.2L24.6 59.4z"/><path opacity=".7" fill="#FFF" d="M210.4 59.5l-92.9 110.2 38.9-110.2z"/><path opacity=".9" fill="#FFF" d="M78.7 59.5l38.8-31.6 38.9 31.6z"/><path opacity=".8" fill="#FFF" d="M78.2 59.5l39.3-31.6H43.1z"/><path opacity=".7" fill="#FFF" d="M191.8 27.9h-74.4l38.9 31.6z"/><path opacity=".6" fill="#FFF" d="M156.7 59.5l35.2-31.6 18.5 31.6z"/><path fill="#FFF" d="M78.4 59.5L43.1 27.9 24.6 59.5z"/><path opacity=".1" fill="#1D1D1B" d="M191.8 27.9h-74.4v141.8l92.9-110.2z"/><path fill="#FFD42D" d="M65.7 13.6C62 23.4 54.6 31.3 45.1 35.5c9.4 4.3 16.9 12.2 20.6 21.9 3.7-9.7 11.2-17.6 20.6-21.9-9.4-4.2-16.9-12.1-20.6-21.9z"/><path fill="#FF7600" d="M65.7 24.5c-1.8 4.9-5.6 8.9-10.4 11 4.8 2.2 8.5 6.1 10.4 11 1.9-4.9 5.6-8.9 10.4-11-4.7-2.1-8.5-6.1-10.4-11z"/></g></g></svg>