<svg baseProfile="basic" xmlns="http://www.w3.org/2000/svg" xmlns:xlink="http://www.w3.org/1999/xlink" width="110" height="120" viewBox="0 0 110 120"><defs><path id="a" d="M0 0h110v120H0z"/></defs><clipPath id="b"><use xlink:href="#a" overflow="visible"/></clipPath><g clip-path="url(#b)"><path fill="#B5261B" d="M153.7 46.7s-4.1-.2-9.3.5c-5.1.6 3.8 17.3 3.8 17.3l8.3-5.8-2.8-12z"/><path fill="#8C0000" d="M23.6 109.1s6.6-.3 10.5-1.6c3.8-1.3-2.9-8.5-2.9-8.5l-8.3 1.9.7 8.2z"/><circle fill="#76D9FC" cx="85" cy="68.5" r="66.8"/><path fill-rule="evenodd" clip-rule="evenodd" fill="#00A936" d="M41.9 81.6c-.4-.2-.9-.3-1.2-.3-.4-.1-.8-.1-1.1 0-.9.3-1 1.2 1.5 2.7.7.9 1.9 1.7 3 1.2.7-1.9-.7-3-2.2-3.5v-.1zM52.2 62.6c.1.1.2.3.3.3h.1c.7.2 1.3-.5.8-.5-.2 0-.6 0-1.2.2zM67.7 56.8c-1.1.2-1.3.9 1 2.4.3-.1 2.2-.5 1.1.7 3.4-2.1-.3-3.4-2.1-3.1zM67.7 41.7c3.8-1.5 4.7-11.6.2-11.3-.3 0-.6.1-1 .3 1.8 3.5-2.5 8 .8 11zM111.3 50c.3-2.1-3-3.6-4.5-3.5-.9.1-1 .7.6 2.2-1.6 3.5 2.5 3.7 3.9 1.3zM77.3 24c1.1-.5 1.6-2.3 0-2.3-.3-.1-.5-.2-.8-.1-.3 0-.6.1-.8.1-3.2.6-2.2 5.9 1.6 2.3z"/><path fill-rule="evenodd" clip-rule="evenodd" fill="#00A936" d="M81.8 22.7c-4.6.6-9.3 5.1-5 9.5 3.1 3.9-4.5 11.7 2.7 13.8 2.8-6.4 10.6-11.4 8.7-19.2-.8-3.3-3.6-4.4-6.4-4.1z"/><path fill="#00A936" d="M73.8 114.6C66.9 110 62 103 54.2 99.6c-6.3-6.1-20.5-2.3-20.2-13.9.7-5.5-3.8-8.1-7.1-10.7-2.5-8.5 13-11.6 13.2-2.3 5.1-.3 6.9-9.2 12.8-10.5 3-2.6 11.2.2 8.3-5.2 2.9-2.8 11.5-2.7 7.3-9.2-1.4-6.4-9.2-9.4-11.8-2.2-7.1 1.9-4.2-13.5 3-11.4 5.2.3 4.5-4.2 1.3-5.7 0-.2-.1-.3-.3-.1-.6-.2-1.2-.4-1.9-.4-7.1-3.9 7.1-13.8-2.3-17-10.3 8.8-25.9 22.6-32.2 35.5-2.8 8.1-2.4 16.2-2 24.7 2.9 8.2 8.5 15 12.9 22.4 2.8 3.6 1.5 7.7 1.3 11.6-.1 0 0 .1 0 .1-.1 2.4.2 4.6 2.2 6.6 3.5 4.5 8.5 8 11 13.2 5.6 3.5 11.7 6.1 18.2 7.9.7-.3 2.1-.7 7.3-1.2v-.1c0-1.5 7.1-3.8 10.7-6.4 5.9-7.1-6.2-12.8-12.1-10.7zM136.2 111.7c9.9-11.7 15.9-26.7 15.9-43.2 0-1.8-.1-3.7-.3-5.5 0-.4-.1-.9-.1-1.4-3.8 2.1-10.6-9.4-3.7-3.9 1.4-.1 2.2-.5 2.9-1.1-.8-4.2-1.9-8.2-3.4-12.1-.7-.8-1.3-1.6-1.9-2 0-.8 0-1.6-.1-2.4V40C134.6 17.6 111.6 2.1 85 2.1c-1.8 0-3.7.1-5.4.3-.9.2-2 .3-3 .4-.4 0-.7.1-1.1.1-3.7.5-7.3 1.2-10.9 2.3 9.2-.7 18.6-.4 26.9 3.7 2.2 7 15.3.1 14.7 8l.4.4c-.2.2.2 1.6.4.4 2.3 2.6 7 7.9 2 7.2-6.6-.9-4.9 12.2-.1 14.5 4.6 2.5 7.1-2.5 2.4-4.9-.6-6.1 10.2 3.8 5.4 7-.2.1-.3.3-.5.4.2-.9-.3-.1-.3.1-5.4 3.9-2.3 13.2-4.5 19.4-3.8 8.4 9.4 4.7 7.5-1.9-2.4-6.1 10-3.3 7.3-7.6 7.5 4 6.8-6.7 3.7-10.3 1.5-5.7 5.4.7 3.5 3.8.3 3 2.9 3.6 4.9 4.5.1.1.2.1.4.1 1.8.9 2.9 2 .9 5.3-2.2 7.5-9.7 7.9-15.9 6.5-6.2 2.6-7.4 10.1-10.9 15.2-3.5 6.4-6.4 15.7-.1 21.3 6 5.7 12.8.8 17.8-3.1 9.5-1.2 10.4 10 5.7 15.6.1.5.1.7 0 .9z"/><g opacity=".2" fill="#010000"><path d="M21.4 47.9v.1c.6 0 1.2-.1 1.2-.1h-1.2zM141.4 104.2c-.1.1-.1.1-.1.2 0 0 .1-.1.1-.2z"/><path d="M146.8 88.6c0-.1 0-.2.1-.2-.1.1-1.1 1.1-8.7 2.3 2-6.7 3.1-13.9 3.1-21.3h10.2v-2h-10.2c-.1-7.5-1.2-14.8-3.3-21.5 7.7 1.1 8.7 2.1 8.8 2.3 0 0-.1-.1-.1-.2h1.8c-.1-.4-.3-.9-.4-1.3-.8-.7-2.4-1.3-5.1-1.9-1.6-.3-3.5-.7-5.7-1-2.6-7.8-6.3-14.8-11-20.9 4.7 1.2 8.4 2.6 11 4.1-1-1.3-2.1-2.5-3.2-3.7-2.7-1.1-5.6-1.9-8.4-2.6-.5-.1-1-.2-1.5-.4C117.1 12 108.1 5.9 98.1 3c-4.2-.8-8.6-1.3-13.1-1.3-5 0-9.9.6-14.6 1.6-9.6 3-18.1 8.9-25 17-.5.1-1.1.2-1.6.4-2.5.6-5.2 1.4-7.7 2.3-1.1 1.1-2.1 2.3-3.1 3.5 2.5-1.3 6-2.6 10.3-3.7-4.7 6-8.4 13.1-11 20.8-2.4.3-4.4.6-6 1-1.9.4-3.3.8-4.2 1.3-.2.5-.4 1.1-.5 1.6 1.9-.4 5.2-1.1 10.1-1.8-2 6.7-3.2 14-3.3 21.5H18.2v2h10.2c.1 7.5 1.2 14.6 3.1 21.3-7.9-1.1-8.9-2.2-9-2.3 0 0 .1.1.1.2h-1.3l.6 1.8c.9.5 2.4 1 4.4 1.4 1.6.3 3.6.7 5.9 1 2.4 7.3 5.8 14 10.1 19.9-4.7-1.3-8.4-2.8-10.8-4.3 1 1.3 2.1 2.6 3.1 3.9 2.9 1.2 6.2 2.2 9.2 2.9.2 0 .3.1.5.1 7 8.7 16 15.1 26.1 18.3 4.7 1.1 9.7 1.6 14.7 1.6 4.5 0 8.9-.4 13.1-1.3 10.6-3.1 20-9.7 27.3-18.7.1 0 .2 0 .3-.1 3.3-.8 7-1.9 10-3.3 1.2-1.4 2.3-2.8 3.3-4.2-2.3 1.8-6.3 3.5-11.7 5 4.2-5.8 7.7-12.5 10-19.9 2.2-.3 4-.6 5.6-.9 2.9-.6 4.5-1.3 5.3-2.1.1-.4.3-.8.4-1.1h-1.9zM77.2 3.8c-3.7 2.6-7 7.2-9.9 13.4-6.7.5-13 1.3-18.5 2.4 7.7-8.3 17.5-14 28.4-15.8zM46.5 22.1c5.8-1.3 12.6-2.2 19.8-2.9-.3.6-.5 1.3-.8 1.9-2.3 6-4.2 12.9-5.5 20.5-7.4.3-14.2.7-20.1 1.2-1.9.2-3.8.4-5.4.6 2.8-8 6.9-15.3 12-21.3zM33.8 45.5c2.1-.3 4.7-.5 7.7-.8 5.4-.5 11.5-.8 18.2-1.1-1.2 7.5-1.8 15.5-1.9 23.7H30.4c.1-7.6 1.3-14.9 3.4-21.8zm-3.4 23.9h27.5c0 8.2.7 16.1 1.8 23.5-6.6-.3-12.7-.6-18.1-1.1-3.1-.3-5.7-.5-7.9-.8-2.1-6.8-3.3-14-3.3-21.6zm4 23.7c1.7.2 3.6.4 5.6.6 5.8.5 12.6.9 20 1.2 1.3 7.7 3.2 14.8 5.5 20.9.1.2.2.5.3.7-7.6-.6-14.5-1.7-20.5-3.1-4.6-5.8-8.4-12.7-10.9-20.3zm13 22.9c5.7 1.2 12.3 2.1 19.3 2.6 3 6.8 6.6 11.8 10.5 14.6-11.5-1.9-21.8-8.1-29.8-17.2zm36.4 17.8c-5.4-.6-10.6-5.8-14.8-15 4.8.3 9.7.5 14.8.5v14.5zm0-16.5c-5.4 0-10.7-.2-15.7-.6-.2-.5-.5-1.1-.7-1.7-2.3-5.9-4.1-12.7-5.4-20.1 6.9.2 14.2.4 21.8.4v22zm0-23.9c-7.7 0-15.1-.1-22.1-.4-1.1-7.4-1.8-15.4-1.8-23.6h23.9v24zm0-26h-24c.1-8.3.7-16.3 1.9-23.8 7-.2 14.4-.4 22-.4v24.2zm0-26.2c-7.5 0-14.9.1-21.7.4 1.3-7.2 3-13.9 5.3-19.6.4-1 .8-1.9 1.2-2.8 4.9-.3 10-.5 15.2-.6v22.6zm0-24.7c-4.9 0-9.7.2-14.3.5 4.1-8.4 9.1-13.3 14.3-13.8v13.3zm55.4 50.9h-27.5c-.1-8.2-.7-16.2-1.9-23.7 6.5.3 12.6.6 17.8 1.1 3.2.3 5.9.6 8.1.8 2.2 6.8 3.4 14.1 3.5 21.8zm-4.1-23.9c-1.8-.2-3.7-.4-5.7-.6-5.8-.5-12.5-.9-19.8-1.2-1.3-7.5-3.1-14.5-5.5-20.5-.2-.6-.5-1.3-.8-1.9 7.3.6 14 1.6 19.9 2.9 5 6 9.1 13.2 11.9 21.3zm-14.2-23.9c-5.6-1.1-11.8-1.9-18.5-2.4-2.9-6.2-6.3-10.8-9.9-13.4 10.7 1.8 20.6 7.5 28.4 15.8zM85.8 3.2C91 3.7 95.9 8.5 100 17c-4.6-.3-9.4-.5-14.3-.5V3.2zm0 15.3c5.2 0 10.3.2 15.2.6.4.9.8 1.9 1.2 2.8 2.3 5.8 4 12.4 5.3 19.6-6.8-.2-14.2-.4-21.7-.4V18.5zm0 24.7c7.6 0 15.1.2 22.1.4 1.2 7.5 1.8 15.5 1.9 23.8h-24V43.2zm0 26.2h23.9c0 8.2-.7 16.2-1.8 23.6-7 .3-14.5.4-22.1.4v-24zm0 26c7.6 0 14.9-.1 21.8-.4-1.3 7.4-3.1 14.2-5.4 20.1-.2.6-.4 1.1-.7 1.7-5 .4-10.3.6-15.7.6v-22zm0 24c5.1 0 10.1-.2 14.8-.5-4.2 9.2-9.4 14.4-14.8 15v-14.5zm6.6 13.9c3.9-2.8 7.4-7.7 10.5-14.6 7-.6 13.5-1.5 19.3-2.7-8.1 9.1-18.4 15.3-29.8 17.3zm31.9-19.8c-6 1.4-12.9 2.5-20.5 3.1.1-.2.2-.5.3-.7 2.4-6.1 4.3-13.2 5.6-20.9 7.3-.3 14-.7 19.8-1.2 2.1-.2 4.1-.4 5.8-.6-2.7 7.5-6.4 14.4-11 20.3zM135.9 91c-2.2.3-4.9.6-8.2.9-5.3.4-11.3.8-17.8 1.1 1.1-7.4 1.7-15.3 1.8-23.5h27.5c-.1 7.5-1.2 14.7-3.3 21.5z"/></g><path opacity=".1" d="M33 109.9s41-19.2 61.5-25.6c20.5-6.4 57.6-12.8 57.6-12.8l-1.9-19.8-4.1-10.1S116 61.8 98.3 67.7C73.4 76 29.8 106 29.8 106l2.6 3.8"/><g><path fill="#D52B1E" d="M96.9 84s25.9-4.5 60.3-12.9c0-.9.1-1.8.1-2.7 0-7.6-1.3-14.9-3.6-21.7C113.2 58.5 90.5 60 90.5 60l6.4 24z"/><path opacity=".2" d="M96.9 84l23.9-4.3-10.2-22.9-19.8 4z"/><path fill="#8C0000" d="M96.9 84l17.3-8.8-10.8-22.4-14.1 6.4z"/><path fill="#D52B1E" d="M23.6 109.1c40.4-18 91.1-34.2 91.1-34.2l-10.9-22.3S52.4 71.1 14.1 87.1c1.8 8 5.1 15.4 9.5 22z"/><path opacity=".1" fill="#FFF" d="M21.9 106.5l81.9-53.9S52.4 71.1 14.1 87.1c1.5 6.9 4.2 13.5 7.8 19.4z"/><path opacity=".1" d="M157.3 68.4c0-5.1-.6-10.1-1.7-14.9l-33.2 25.4c3.3-.7 6.1-1.2 8.6-1.7 7.9-1.7 16.7-3.7 26.3-6.1v-2.7z"/></g><path opacity=".2" d="M98.5 39.6H24.8l-9.1 15.7 46 54.5 45.9-54.5z"/><g><path fill="#069DFA" d="M88 33.8H14.3L5.2 49.5l46 54.5 45.9-54.5z"/><path opacity=".8" fill="#FFF" d="M31.7 49.5L51.2 104l19.4-54.5z"/><path opacity=".9" fill="#FFF" d="M31.7 49.4l19.5 54.5-46-54.5z"/><path opacity=".7" fill="#FFF" d="M97.1 49.5L51.2 104l19.2-54.5z"/><path opacity=".9" fill="#FFF" d="M31.9 49.5l19.3-15.7 19.2 15.7z"/><path opacity=".8" fill="#FFF" d="M31.7 49.5l19.5-15.7H14.3z"/><path opacity=".7" fill="#FFF" d="M87.9 33.8H51.1l19.2 15.7z"/><path opacity=".6" fill="#FFF" d="M70.5 49.5L88 33.8l9.1 15.7z"/><path fill="#FFF" d="M31.8 49.5L14.3 33.8 5.2 49.5z"/><path opacity=".1" fill="#1D1D1B" d="M89.3 33.8H52.5V104l45.9-54.5z"/><path fill="#FFD42D" d="M25.5 26.7c-1.8 4.8-5.5 8.7-10.2 10.8 4.7 2.1 8.4 6 10.2 10.8 1.8-4.8 5.5-8.7 10.2-10.8-4.7-2-8.3-5.9-10.2-10.8z"/><path fill="#FF7600" d="M25.5 32.1c-.9 2.4-2.8 4.4-5.1 5.5 2.4 1.1 4.2 3 5.1 5.5.9-2.4 2.8-4.4 5.1-5.5-2.3-1.1-4.1-3-5.1-5.5z"/></g></g></svg>