<svg xmlns="http://www.w3.org/2000/svg" width="82.774" height="65.011" viewBox="0 0 82.774 65.011"><path fill="#2AB9FF" d="M68.488 18.95v-.012h-.24c-.372-.025-.744-.057-1.122-.057-.38 0-.75.032-1.125.058H14.5V65.01h65.554a2.722 2.722 0 0 0 2.723-2.72V34.528c0-8.182-6.286-14.887-14.287-15.577z"/><path opacity=".2" fill="#3C3C3B" d="M23.325 60.435v4.576H80.05a2.722 2.722 0 0 0 2.724-2.72v-1.855h-59.45z"/><path opacity=".3" fill="#FFF" d="M17.797 32.762h64.866c-.46-4.11-2.52-7.723-5.533-10.236H17.797v10.236z"/><path fill="#0460A5" d="M2.72 64.636A2.348 2.348 0 0 1 .375 62.29V34.53c0-8.422 6.85-15.273 15.272-15.273 8.42 0 15.27 6.852 15.27 15.272v27.76a2.35 2.35 0 0 1-2.345 2.346H2.72z"/><path fill="#48C7F9" d="M15.647 19.632c8.214 0 14.896 6.683 14.896 14.897V62.29c0 1.086-.884 1.97-1.97 1.97H2.72a1.973 1.973 0 0 1-1.97-1.97V34.528c0-8.214 6.683-14.896 14.897-14.896m0-.75C7.007 18.882 0 25.887 0 34.53V62.29a2.718 2.718 0 0 0 2.72 2.72h25.852a2.72 2.72 0 0 0 2.72-2.72V34.528c0-8.64-7.004-15.646-15.645-15.646z"/><path fill="#2AB9FF" d="M25.642 51.956c0 .787-.638 1.433-1.426 1.433H7.076a1.43 1.43 0 0 1 0-2.86h17.14c.788-.002 1.426.64 1.426 1.426zM25.642 46.19a1.43 1.43 0 0 1-1.426 1.434H7.076a1.43 1.43 0 0 1 0-2.86h17.14c.788.002 1.426.642 1.426 1.426zM25.642 57.744c0 .788-.638 1.427-1.426 1.427H7.076c-.788 0-1.428-.638-1.428-1.426 0-.787.64-1.43 1.428-1.43h17.14a1.43 1.43 0 0 1 1.426 1.43z"/><path fill="#E82E41" d="M44.602 43.704a3.75 3.75 0 0 1-3.734 3.756 3.738 3.738 0 0 1-3.76-3.73 3.744 3.744 0 0 1 3.725-3.765 3.76 3.76 0 0 1 3.77 3.74z"/><path opacity=".2" fill="#3C3C3B" d="M54.828 18.91H41.646c-.805 0-1.458.65-1.458 1.457v20.761c0 .098.013.194.03.29A3.738 3.738 0 0 0 41.91 48.5a3.75 3.75 0 0 0 3.734-3.758 3.75 3.75 0 0 0-2.075-3.322c.017-.096.03-.194.03-.296v-12.12h1.948c-.717.335 9.28 0 9.28 0 .806 0 1.455-.648 1.455-1.458v-8.64h-1.455z"/><path fill="#E82E41" d="M42.558 40.085a1.71 1.71 0 0 1-1.706 1.71c-.94 0-1.705-.766-1.705-1.71v-28.01c0-.943.764-1.707 1.705-1.707.94 0 1.706.764 1.706 1.706v28.01z"/><path fill="#0460A5" d="M42.593 43.71a1.742 1.742 0 0 1-3.484.01 1.75 1.75 0 0 1 1.73-1.75c.964-.002 1.752.774 1.753 1.74z"/><g fill="#0460A5"><path d="M78.285 54.938a2.263 2.263 0 1 1-4.526.002 2.263 2.263 0 0 1 4.525-.002zM70.76 54.938a2.262 2.262 0 0 1-4.527 0 2.263 2.263 0 0 1 4.526 0zM62.73 54.938a2.26 2.26 0 0 1-4.524 0 2.262 2.262 0 0 1 4.524 0zM55.207 54.938a2.263 2.263 0 1 1-4.527 0 2.263 2.263 0 0 1 4.527 0zM47.438 54.938a2.262 2.262 0 1 1-4.525.003 2.262 2.262 0 0 1 4.525-.002zM39.914 54.938a2.262 2.262 0 0 1-2.265 2.264 2.262 2.262 0 0 1 0-4.526 2.264 2.264 0 0 1 2.264 2.262z"/></g><path fill="#E82E41" d="M55.243 26.506c0 .81-.65 1.458-1.457 1.458H40.604a1.455 1.455 0 0 1-1.458-1.458V11.37c0-.807.652-1.46 1.458-1.46h13.182c.807 0 1.457.653 1.457 1.46v15.136z"/><path opacity=".1" fill="#3C3C3B" d="M55.243 26.506c0 .81-.65 1.458-1.457 1.458 0 0-9.996.335-9.28 0 .717-.333 10.737-16.595 10.737-16.595v15.136z"/><path fill="#FFD42D" d="M54.554 3.957a13.366 13.366 0 0 1-6.965 7.412 13.352 13.352 0 0 1 6.964 7.41 13.346 13.346 0 0 1 6.97-7.41 13.363 13.363 0 0 1-6.97-7.413z"/><path fill="#FF7600" d="M54.554 7.635a6.726 6.726 0 0 1-3.512 3.734 6.704 6.704 0 0 1 3.512 3.73 6.707 6.707 0 0 1 3.512-3.73 6.736 6.736 0 0 1-3.512-3.735z"/><path fill="#FFD42D" d="M60.583 3.957a4.83 4.83 0 0 1-2.518 2.68 4.816 4.816 0 0 1 2.518 2.68 4.832 4.832 0 0 1 2.522-2.68 4.85 4.85 0 0 1-2.522-2.68z"/><path fill="#FF7600" d="M60.583 5.287a2.428 2.428 0 0 1-1.27 1.35c.584.263 1.043.75 1.27 1.347a2.44 2.44 0 0 1 1.27-1.347 2.443 2.443 0 0 1-1.27-1.35z"/><g><path fill="#FFD42D" d="M47.587 0a7.12 7.12 0 0 1-3.72 3.957 7.12 7.12 0 0 1 3.72 3.955 7.134 7.134 0 0 1 3.72-3.955A7.135 7.135 0 0 1 47.588 0z"/><path fill="#FF7600" d="M47.587 1.964a3.583 3.583 0 0 1-1.876 1.993 3.58 3.58 0 0 1 1.877 1.99 3.596 3.596 0 0 1 1.873-1.99 3.605 3.605 0 0 1-1.873-1.993z"/></g><circle fill="#2AB9FF" cx="15.646" cy="33.071" r="4.116"/></svg>