<svg xmlns="http://www.w3.org/2000/svg" width="226.792" height="46.748" viewBox="-16.922 25.692 226.792 46.748"><g fill="#231F20"><path d="M106.713 62.32a2.53 2.53 0 1 1-2.528 2.53 2.53 2.53 0 0 1 2.528-2.53zM131.926 26.942c0-.348-.114-.637-.463-.637H113.86c-.23 0-.464.29-.464.637v39.443c0 .29.117.64.464.64h3.428c.348 0 .463-.29.463-.64v-36.13h9.82v36.13c0 .292.114.642.464.642h3.428c.35 0 .465-.29.465-.64V26.94zM144.838 42.36c2.576 0 4.92 3.924 4.92 11.07 0 5.682-1.523 10.777-4.102 10.777-2.693 0-5.037-3.926-5.037-11.07 0-5.682 1.523-10.777 4.218-10.777zm.235 25.304c5.973 0 8.96-7.85 8.96-15.642 0-7.79-3.75-13.12-8.728-13.12-5.973 0-8.96 7.85-8.96 15.64 0 7.79 3.75 13.122 8.728 13.122zM168.583 51.85c-1.17.763-2.637 1.288-3.867 1.288-1.348 0-2.75-.527-2.75-3.28v-9.956c0-.295-.178-.354-.412-.354h-3.336c-.354 0-.47.118-.47.354v10.95c0 4.452 2.81 5.977 5.27 5.977 1.873 0 3.925-.647 5.565-1.876V66.55c0 .294.117.47.352.47h3.457c.232 0 .408-.176.408-.47V39.96c0-.293-.118-.412-.408-.412h-3.342c-.293 0-.467.178-.467.412v11.89zM175.868 39.548c-.236 0-.412.118-.412.412v2.752c0 .178.117.41.412.41h5.738V66.61c0 .29.116.41.352.41h3.516c.173 0 .348-.12.348-.41V43.122h5.622c.298 0 .353-.234.353-.41V39.96c0-.294-.115-.412-.353-.412h-15.576zM197.456 43.827c.178.408.408.467.7.292 1.115-.704 2.755-1.757 3.983-1.757 1.407 0 2.167.762 2.753 2.05.53 1.23.7 2.93.7 4.744v.585c-.99-.585-2.866-1.054-3.806-1.054-4.86 0-7.556 4.687-7.556 9.606 0 5.506 3.164 9.373 6.855 9.373 2.047 0 3.922-1.173 5.152-2.754l.7 1.758c.12.294.235.352.528.352h1.99c.178 0 .412-.12.412-.408V51.09c0-3.75-.295-6.676-1.29-8.61-1.23-2.4-3.456-3.572-5.915-3.572-1.756 0-4.275.646-5.976 1.406-.644.233-.584.703-.41 1.113l1.18 2.4zm8.14 18.858c-.994.996-2.11 1.465-3.16 1.465-.997 0-1.877-.47-2.52-1.347-.765-1.173-1.112-2.812-1.112-4.686 0-2.988 1.112-5.976 3.336-5.976 1.114 0 2.463.294 3.455 1.23v9.315zM23 39.403h-3.42c-.273 0-.437.22-.437.387v10.534H12.8V39.79c0-.275-.11-.387-.386-.387h-3.42c-.275 0-.44.166-.44.387v26.803c0 .275.11.442.386.442h3.475c.222 0 .387-.167.387-.442V53.8h6.343v12.797c0 .272.164.44.438.44h3.42c.276 0 .386-.222.386-.44V39.792a.382.382 0 0 0-.39-.39zM100.623 65.27l-.44-1.872c-.055-.168-.11-.223-.275-.223-.277 0-1.766.607-3.917.607-4.188 0-6.232-4.027-6.232-10.426 0-5.625 1.71-11.194 4.58-11.194.77 0 1.71.22 3.2 1.6.162.166.274.22.438.22.165 0 .333-.11.498-.388l1.49-2.425a.885.885 0 0 0 .164-.498c0-.22-.22-.386-.55-.55-2.262-1.16-3.807-1.38-5.13-1.38-5.184 0-9.212 6.178-9.212 15.83 0 8.327 3.86 13.127 9.376 13.127 2.32 0 4.8-1.106 5.793-1.82a.553.553 0 0 0 .218-.61zM76.743 51.87l6.617-12.08c.11-.167.056-.385-.165-.385h-3.253c-.937 0-1.27.33-1.6 1.048L73.38 50.765c-.276.608-.553.994-.83 1.16V39.79c0-.22-.11-.384-.332-.384h-3.583c-.164 0-.332.163-.332.385v26.86c0 .165.112.385.332.385h3.583c.222 0 .333-.167.333-.386V52.805c.167.11.276.274.387.497l6.287 12.904c.333.66.83.828 1.546.828h3.53c.222 0 .274-.224.164-.386l-7.72-14.78zM45.323 63.562h-.663c-.828 0-1.05-.332-1.05-.994V39.79c0-.275-.11-.384-.332-.384H32.25c-.274 0-.44.163-.44.385v1.986c0 6.672-.384 15.275-3.917 21.785h-1.21c-.332 0-.442.167-.442.44v8.055c0 .276.222.385.387.385h2.648c.607 0 .827-.44.827-.828v-4.577h11.8v5.02c0 .22.166.386.387.386h2.81c.333 0 .662-.274.662-.827v-7.61c0-.275-.164-.44-.44-.44zm-5.958 0h-7.998c2.814-4.797 3.916-10.203 4.303-16.82.11-1.434.165-2.924.165-3.86h3.53v20.68zM56.574 38.744c-5.957 0-8.604 7.5-8.604 15.663 0 8.328 3.75 13.292 9.266 13.292 2.702 0 5.073-1.05 6.285-1.82.223-.11.277-.275.223-.497l-.44-1.876c-.056-.22-.165-.33-.44-.33-.222 0-1.82.605-4.083.605-4.247 0-6.232-3.696-6.232-8.55v-1.306s2.153.256 3.42.256h8.052v-2.315c-.002-8.546-3.034-13.123-7.446-13.123zm-.607 11.968c-1.267 0-3.253.22-3.253.22s0-.827.11-1.71c.496-4.688 1.654-7.06 3.585-7.06 1.764 0 2.867 2.426 3.14 6.675.056.883.056 1.876.056 1.876h-3.64z"/></g><path fill="#EC1C24" d="M2.27 25.692h-6.29c-6.175 0-11.415 4.688-11.415 13.79 0 5.46 2.54 9.485 7.06 11.47l-8.437 15.224c-.274.495 0 .882.442.882h3.915c.33 0 .552-.11.66-.387l7.67-14.942h2.757V66.67c0 .168.163.388.384.388h3.42c.332 0 .44-.166.44-.44V26.246c0-.387-.22-.553-.605-.553zm-3.64 22.502h-2.317c-3.64 0-7.168-2.645-7.168-9.264 0-6.895 3.307-9.707 6.67-9.707h2.816v18.97z"/></svg>