<svg xmlns="http://www.w3.org/2000/svg" width="67.687" height="57.631" viewBox="0 0 67.687 57.631"><path fill="#D2ECFF" d="M67.687 52.143a5.49 5.49 0 0 1-5.49 5.49H5.49A5.49 5.49 0 0 1 0 52.142V5.785A5.49 5.49 0 0 1 5.49.297h56.707a5.49 5.49 0 0 1 5.49 5.488v46.358z"/><path fill="#3C3C3B" d="M62.07 0L5.62.094a5.47 5.47 0 0 0-5.455 5.48l.014 7.372 67.377-.112-.012-7.372A5.47 5.47 0 0 0 62.07 0z"/><path fill="#FF5050" d="M9.28 6.817A2.638 2.638 0 0 1 6.64 9.452a2.638 2.638 0 0 1-2.64-2.635 2.642 2.642 0 1 1 5.283 0z"/><path fill="#157FFF" d="M16.942 6.817A2.64 2.64 0 0 1 14.3 9.452a2.64 2.64 0 1 1 2.642-2.635z"/><path fill="#FFF" d="M63.69 7.123c0 1.31-1.032 2.374-2.308 2.374H21.594c-1.274 0-2.308-1.064-2.308-2.374 0-1.312 1.033-2.376 2.308-2.376h39.79c1.274 0 2.305 1.063 2.305 2.376z"/><path fill="#048E52" d="M56.356 46.544c0 .453-.366.82-.817.82h-44.9a.818.818 0 0 1-.818-.82v-12.46c0-.453.366-.82.818-.82h44.9c.45 0 .816.368.816.82v12.46z"/><path fill="#12C47B" d="M56.356 45.27c0 .453-.366.82-.817.82h-44.9a.818.818 0 0 1-.818-.82V32.81a.82.82 0 0 1 .818-.82h44.9a.82.82 0 0 1 .816.82v12.46z"/><path opacity=".1" fill="#3C3C3B" d="M9.82 40.314v4.955c0 .453.367.82.82.82h44.898c.45 0 .817-.367.817-.82v-4.956H9.82z"/><path fill="#F9D84B" d="M37.232 20.833l5.622 5.622-9.726 9.727-5.623-5.622z"/><path fill="#FFF2A2" d="M24.2 33.86c-4.905 4.908-4.905 12.865 0 17.772 4.91 4.908 12.867 4.906 17.773 0 4.91-4.907 4.91-12.863 0-17.77l-8.885-8.886L24.2 33.86z"/><path fill="#FFD645" d="M25.89 35.545c-3.98 3.977-3.98 10.425 0 14.4 3.974 3.978 10.425 3.978 14.4 0 3.977-3.976 3.977-10.423 0-14.4l-7.2-7.202-7.2 7.202z"/><path fill="#FF8A00" d="M28.155 37.812a6.976 6.976 0 0 0 0 9.868 6.975 6.975 0 0 0 9.868-.002 6.977 6.977 0 0 0 0-9.866l-4.935-4.935-4.933 4.935z"/><path fill="#12C47B" d="M29.823 39.482a4.618 4.618 0 0 0 0 6.527 4.616 4.616 0 1 0 6.53-6.527l-3.265-3.265-3.265 3.264z"/><path fill="#12C47B" d="M29.823 39.482a4.618 4.618 0 0 0 0 6.527 4.616 4.616 0 1 0 6.53-6.527l-3.265-3.265-3.265 3.264z"/><path fill="#FFD645" d="M37.57 20.49l5.623 5.622L33.21 36.1l-5.623-5.62z"/><path fill="#FF8A00" d="M41.526 24.442l1.67 1.67-10.022 10.02-1.67-1.67z"/><path fill="#FFF2A2" d="M37.567 20.49l1.678 1.676-10.043 10.057-1.678-1.676z"/><path opacity=".2" fill="#3C3C3B" d="M38.903 30.402l-6.027 6.025-5.62-5.623 6.025-6.025z"/><path opacity=".2" fill="#3C3C3B" d="M25.184 32.878l1.5-1.5H30.28l.85 2.984z"/><path fill="#FFD645" d="M38.994 30.88l-5.62 5.623-10.013-10.01 5.62-5.622z"/><path fill="#FF8A00" d="M35.154 34.945l-1.668 1.668L23.36 26.49l1.67-1.67z"/><path fill="#FFF2A2" d="M39.187 31.077l-1.678 1.677-10.204-10.212 1.678-1.676z"/><path fill="#FFE0A9" d="M18.553 16.047l4.81 10.443v-.003a1.188 1.188 0 1 0 1.68-1.68 1.628 1.628 0 0 0 2.297 0 1.626 1.626 0 0 0 0-2.297h.003a1.16 1.16 0 1 0 1.64-1.643l.012-.01-10.442-4.81z"/><path opacity=".05" fill="#3C3C3B" d="M18.553 16.047l4.81 10.443v-.003a1.188 1.188 0 1 0 1.68-1.68c.633.633-6.49-8.76-6.49-8.76z"/><path fill="#3C3C3B" d="M22.504 17.87l-3.95-1.823L20.37 20z"/><path fill="#FF839E" d="M46.988 19.87c.7.697.7 1.83 0 2.524l-4.382 4.385c-.7.697-1.83.697-2.528 0l-3.133-3.135a1.785 1.785 0 0 1 0-2.526l4.383-4.385a1.79 1.79 0 0 1 2.527 0l3.133 3.134z"/><path opacity=".1" fill="#3C3C3B" d="M47.13 20.057l-4.34 4.34 1.106 1.106 3.092-3.093a1.78 1.78 0 0 0 .142-2.353z"/><path opacity=".3" fill="#3C3C3B" d="M44.795 24.592l-3.613 3.61-5.66-5.663 3.615-3.61z"/><path fill="#DADADA" d="M44.423 24.804a.448.448 0 0 1 0 .632l-3.358 3.358a.448.448 0 0 1-.632 0l-5.528-5.53a.448.448 0 0 1 0-.63l3.357-3.358a.45.45 0 0 1 .633 0l5.528 5.528z"/><g opacity=".3"><path fill="#3C3C3B" d="M43.838 25.015c.113.112.113.3 0 .414a.293.293 0 0 1-.414 0l-5.154-5.155a.29.29 0 0 1 0-.413.292.292 0 0 1 .414 0l5.154 5.153zM43.142 25.71c.115.112.115.3 0 .414a.29.29 0 0 1-.413 0l-5.157-5.154a.3.3 0 0 1 0-.415.292.292 0 0 1 .416 0l5.152 5.154zM42.447 26.404c.114.113.114.3 0 .414a.296.296 0 0 1-.415 0l-5.152-5.154a.29.29 0 0 1 0-.413.287.287 0 0 1 .415 0l5.152 5.154zM41.754 27.1a.294.294 0 0 1-.416.415l-5.154-5.155a.294.294 0 0 1 0-.413.29.29 0 0 1 .414 0l5.156 5.152zM41.058 27.793c.115.116.115.3 0 .415a.295.295 0 0 1-.415 0l-5.153-5.153a.293.293 0 1 1 .415-.414l5.153 5.153z"/></g><path opacity=".3" fill="#FFF" d="M43.947 18.354a.447.447 0 0 1-.633 0 1 1 0 0 0-1.42 0 .446.446 0 1 1-.63-.633 1.9 1.9 0 0 1 2.683 0 .45.45 0 0 1 0 .634z"/><path fill="#048E52" d="M49.44 33.018h.514v3.57h-.514zM53.58 33.032h.514v4.54h-.515zM12.09 32.885h.514l-.018 4.54-.51-.005z"/><path fill="#12C47B" d="M21.552 33.033c-.042.135-1.864 13.056-1.864 13.056h16.584l-2.982-9.67-4.366-4.43h-7.33l-.042 1.043z"/><path fill="#048E52" d="M41.135 32.988h.51v.542l-.51-.542zM45.267 33.004h.51v4.537h-.51zM32.776 35.95l.513.47-.002.113-.512-.002zM24.47 32.93h.51V36.5h-.51zM28.607 32.943h.51v4.537h-.51zM16.21 32.9h.51v3.572h-.51zM20.833 37.454l-.51-.006.052-4.536.51.006zM13.722 46.09h19.632v1.273H13.722z"/><path fill="#048E52" d="M33.424 47.364s1.898-.18 2.848-1.275h-2.918l-.143 1.2-.118.073h.332z"/><path opacity=".2" fill="#3C3C3B" d="M36.353 39.482l-7.43-7.492H27.48l7.988 7.777a4.616 4.616 0 0 1 0 6.527c-.424.425-.913.74-1.433.964a4.56 4.56 0 0 0 2.317-1.25 4.617 4.617 0 0 0 0-6.526z"/><path opacity=".1" fill="#3C3C3B" d="M37 40.314h-2.51l1.778 5.765c.027-.027.06-.043.084-.07A4.606 4.606 0 0 0 37 40.313zM36.27 46.09v-.01l-.013.01zM29.177 40.314h-8.674c-.424 2.995-.815 5.774-.815 5.774H29.92c-.03-.03-.066-.05-.097-.08-1.546-1.545-1.755-3.912-.646-5.694z"/><path opacity=".1" fill="#3C3C3B" d="M29.177 40.314a4.612 4.612 0 0 0 .646 5.695c.03.03.067.048.098.08h6.337c.004-.004.01-.007.012-.01l-1.78-5.765h-5.313z"/></svg>