<svg xmlns="http://www.w3.org/2000/svg" width="53.382" height="60.409" viewBox="0 0 53.382 60.409"><path fill="#A1BCC9" d="M43.906 0a4.29 4.29 0 0 1 4.29 4.29v51.735c0 2.37-1.342-4.954-1.29 4.292H4.29A4.29 4.29 0 0 1 0 56.025V13.433L13.433 0h30.473z"/><path opacity=".15" fill="#3C3C3B" d="M0 13.433l11.94-1.042L0 24.103z"/><path fill="#68828C" d="M9.14 13.433H0L13.433 0v9.14a4.29 4.29 0 0 1-4.292 4.293z"/><path fill="#FFF" d="M5.727 33.722h37.855v3.004H5.727zM5.727 40.002h37.855v3.004H5.727zM5.727 46.01h37.855v3.005H5.727zM5.727 51.762H45.34v3.004H5.726zM4.716 25.76c0 2.64 2.11 4.776 4.708 4.776h27.714c4.8 0 8.692-3.946 8.692-8.817 0-4.87-3.893-8.82-8.692-8.82-.495 0-.98.05-1.456.126-1.962-3.012-5.33-4.997-9.157-4.997-4.938 0-9.115 3.308-10.493 7.858a7.55 7.55 0 0 0-.622-.033c-3.27 0-6.03 2.204-6.93 5.225-2.146.442-3.764 2.372-3.764 4.68z"/><path opacity=".15" fill="#3C3C3B" d="M43.906 0a4.29 4.29 0 0 1 4.29 4.29v51.735c0 2.37-1.342-4.954-1.29 4.292H4.29L43.907 0z"/><path fill="#FF8A00" d="M40.87 9.63h11.966v34.48H40.87z"/><path fill="#C16502" d="M49.266 9.628h3.556v34.55h-3.556z"/><path fill="#FFA852" d="M40.854 9.562h3.57v34.616h-3.57z"/><path fill="#FFE0A9" d="M46.826 60.41l5.995-16.232h-.004a1.788 1.788 0 0 0-3.575 0 2.444 2.444 0 0 0-4.887 0h-.004c0-.964-.782-1.746-1.75-1.746-.963 0-1.746.782-1.746 1.746h-.022l5.994 16.23z"/><path opacity=".05" fill="#3C3C3B" d="M46.826 60.41l5.995-16.232h-.004a1.788 1.788 0 0 0-3.575 0c0-1.35-2.414 16.23-2.414 16.23z"/><path fill="#3C3C3B" d="M44.556 54.264l2.27 6.145 2.27-6.146z"/><path fill="#FF839E" d="M50.188.093a2.69 2.69 0 0 1 2.69 2.69v9.33a2.69 2.69 0 0 1-2.69 2.69H43.52a2.69 2.69 0 0 1-2.69-2.69v-9.33a2.69 2.69 0 0 1 2.69-2.69h6.668z"/><path opacity=".1" fill="#3C3C3B" d="M50.54.144V9.38h2.353V2.797A2.68 2.68 0 0 0 50.54.144z"/><path opacity=".3" fill="#3C3C3B" d="M40.83 7.452h12.05v7.688H40.83z"/><path fill="#DADADA" d="M52.71 8.08c.372 0 .672.3.672.67v7.145c0 .37-.3.673-.672.673H40.942a.673.673 0 0 1-.673-.673V8.75c0-.37.3-.67.672-.67H52.71z"/><g opacity=".3"><path fill="#3C3C3B" d="M52.312 8.923a.44.44 0 0 1 .44.44c0 .243-.198.442-.44.442h-10.97a.44.44 0 0 1 0-.882h10.97zM52.312 10.4c.242 0 .44.2.44.442a.44.44 0 0 1-.44.44h-10.97a.44.44 0 0 1 0-.882h10.97zM52.312 11.88a.44.44 0 0 1 0 .882h-10.97a.442.442 0 0 1 0-.882h10.97zM52.312 13.36a.44.44 0 0 1 0 .88h-10.97a.44.44 0 0 1 0-.88h10.97zM52.312 14.84a.44.44 0 0 1 .44.442c0 .242-.198.44-.44.44h-10.97a.44.44 0 0 1 0-.882h10.97z"/></g><path opacity=".3" fill="#FFF" d="M45.34 1.72c0 .37-.302.67-.674.67-.832 0-1.51.68-1.51 1.513a.672.672 0 0 1-1.346 0 2.86 2.86 0 0 1 2.855-2.857c.373 0 .674.302.674.673z"/></svg>