<svg xmlns="http://www.w3.org/2000/svg" width="72.478" height="56.651" viewBox="0 0 72.478 56.651"><path fill="#FF643F" d="M24.093 4.557C22.09 3.887 18.43 3.44 14.25 3.44c-4.185 0-7.84.447-9.85 1.115A5.864 5.864 0 0 0 0 10.232v39.895a5.853 5.853 0 0 0 5.498 5.842c1.992.413 5.205.68 8.826.68 3.68 0 6.937-.274 8.924-.7a5.854 5.854 0 0 0 5.248-5.824V10.232c0-2.733-1.87-5.03-4.403-5.675z"/><path fill="#010005" d="M25.71 7.82c-.907-.758-5.693-1.337-11.46-1.337-5.77 0-10.555.58-11.464 1.337a3.52 3.52 0 0 0-2.043 3.195V46.614c0 2.56 1.64 4.734 3.926 5.53 1.43.578 5.178.99 9.58.99 4.397 0 8.145-.413 9.576-.99a5.854 5.854 0 0 0 3.93-5.53V11.015a3.515 3.515 0 0 0-2.047-3.195z"/><path fill="#B8B7B4" d="M18.2 7.782c0 .245-.195.44-.44.44h-7.023a.437.437 0 0 1 0-.876h7.024c.245 0 .44.195.44.436z"/><path opacity=".15" fill="#FFF" d="M25.71 7.82c-.907-.758-5.693-1.337-11.46-1.337-5.77 0-10.555.58-11.464 1.337a3.52 3.52 0 0 0-2.043 3.195V47.847S15.197 24.292 25.71 7.82z"/><path opacity=".4" fill="#010005" d="M24.093 4.557c-1.335-.448-3.41-.788-5.876-.97-.13.356-.213.74-.213 1.144v48.424a3.317 3.317 0 0 0 2.493 3.207 26.83 26.83 0 0 0 2.75-.41 5.854 5.854 0 0 0 5.25-5.823V10.232c0-2.733-1.87-5.03-4.404-5.675z"/><path fill="#FFF" d="M25.29 56.12a3.676 3.676 0 0 1-3.67-3.674V4.02A3.675 3.675 0 0 1 25.29.35h18.95a3.678 3.678 0 0 1 3.674 3.67v48.426a3.678 3.678 0 0 1-3.675 3.673H25.29z"/><path fill="#706F6F" d="M44.24.7a3.324 3.324 0 0 1 3.324 3.32v48.426a3.324 3.324 0 0 1-3.325 3.323H25.29a3.322 3.322 0 0 1-3.32-3.324V4.02A3.322 3.322 0 0 1 25.29.7h18.95m0-.7H25.29a4.025 4.025 0 0 0-4.02 4.02v48.426a4.027 4.027 0 0 0 4.02 4.023h18.95a4.028 4.028 0 0 0 4.024-4.024V4.02A4.027 4.027 0 0 0 44.24 0z"/><path fill="#3BA1F4" d="M46.012 47.986a.553.553 0 0 1-.554.554H24.075a.555.555 0 0 1-.556-.554V9.648c0-.308.247-.555.555-.555h21.383c.308 0 .554.248.554.555v38.338z"/><path fill="#B2B2B2" d="M37.037 51.862a2.268 2.268 0 0 1-2.27 2.27 2.268 2.268 0 0 1-2.27-2.27 2.27 2.27 0 0 1 4.54 0z"/><circle fill="#1D1D1B" cx="34.767" cy="3.169" r=".568"/><path fill="#575756" d="M37.316 5.492a.557.557 0 0 1-.558.555h-3.984a.557.557 0 0 1 0-1.11h3.984c.306 0 .558.248.558.555z"/><path opacity=".15" fill="#FFF" d="M21.97 52.446V4.02A3.322 3.322 0 0 1 25.29.7h18.95L21.97 52.446z"/><path opacity=".4" fill="#010005" d="M67.98 3.615H40.714a.53.53 0 0 0-.53.53v51.803c0 .292.234.528.53.528H67.98a.527.527 0 0 0 .528-.528V4.144c0-.29-.235-.53-.528-.53z"/><path fill="#FFD645" d="M72.478 55.948a.53.53 0 0 1-.53.528h-27.27a.53.53 0 0 1-.53-.528V4.144c0-.29.238-.53.53-.53h27.27a.53.53 0 0 1 .53.53v51.804z"/><path d="M71.552 52.638c0 1.096-.89 1.985-1.986 1.985H47.063c-1.1 0-1.987-.89-1.987-1.985V7.453c0-1.096.89-1.985 1.987-1.985h22.502c1.096 0 1.986.89 1.986 1.985v45.185z"/><path opacity=".15" fill="#FFF" d="M45.076 52.638V7.453c0-1.096.89-1.985 1.987-1.985h22.502c1.096 0-24.49 48.266-24.49 47.17z"/><path fill="#575756" d="M62.296 5.744a.274.274 0 0 1-.275.275h-7.503a.275.275 0 0 1 0-.55h7.504c.154-.002.276.122.276.274z"/><circle fill="#706F6F" cx="48.781" cy="7.409" r=".75"/><g fill="#FFF"><path opacity=".7" d="M56.91 50.435h1.23v1.23h-1.23zM58.486 50.435h1.23v1.23h-1.23zM56.91 51.97h1.23v1.23h-1.23zM58.486 51.97h1.23v1.23h-1.23z"/></g></svg>