<svg xmlns="http://www.w3.org/2000/svg" width="64.682" height="62" viewBox="0 0 64.682 62"><ellipse fill="#EDEDED" cx="31.099" cy="31.055" rx="31.1" ry="30.945"/><path fill="#DADADA" d="M8.784 52.604a31.232 31.232 0 0 0 8.618 6.235h27.393a31.222 31.222 0 0 0 8.62-6.236H8.784z"/><path fill="#3BA1F4" d="M54.628 7.224a2.89 2.89 0 0 0-2.887-2.896H10.46a2.893 2.893 0 0 0-2.89 2.896L1.584 49.816c0 1.603 12.026 2.684 13.622 2.684h10.918v1.275h12.16V52.5h8.713c1.595 0 13.622-1.08 13.622-2.684l-5.99-42.592z"/><path opacity=".1" fill="#1D1D1B" d="M54.628 7.224a2.89 2.89 0 0 0-2.887-2.896H38.28L1.584 49.816c0 1.603 12.026 2.684 13.622 2.684h10.918v1.275h12.16V52.5h8.713c1.595 0 13.622-1.08 13.622-2.684l-5.99-42.592z"/><path fill="#FFF" d="M11.332 31.343c0 2.526 2.027 4.57 4.526 4.57h26.65c4.614 0 8.357-3.774 8.357-8.437 0-4.658-3.743-8.438-8.358-8.438-.476 0-.942.047-1.4.12-1.887-2.882-5.124-4.782-8.806-4.782-4.747 0-8.764 3.166-10.09 7.52a6.938 6.938 0 0 0-.6-.03c-3.144 0-5.798 2.108-6.663 4.998-2.06.424-3.615 2.27-3.615 4.48z"/><path opacity=".1" fill="#1D1D1B" d="M4.617 47.65l5.438-43.282A2.887 2.887 0 0 0 7.57 7.224L1.583 49.816c0 .54 1.363 1.02 3.23 1.42l-.196-3.586zM57.582 47.65L52.145 4.368a2.885 2.885 0 0 1 2.483 2.855l5.988 42.593c0 .54-1.364 1.02-3.23 1.42l.196-3.586z"/><path fill="#035984" d="M60.616 53.343c0 1.956-1.58 3.54-3.53 3.54H5.114a3.534 3.534 0 0 1-3.53-3.54V49.82c0-1.956 1.58-3.542 3.53-3.542h51.973c1.95 0 3.53 1.586 3.53 3.54v3.525z"/><path fill="#FF5050" d="M10.576 51.58c0 1.094-.892 1.98-1.99 1.98-1.1 0-1.99-.888-1.99-1.98 0-1.094.893-1.98 1.99-1.98 1.1 0 1.99.886 1.99 1.98z"/><path opacity=".3" fill="#1D1D1B" d="M55.866 51.58c0 .814-.662 1.473-1.48 1.473H14.502c-.816 0-1.48-.658-1.48-1.472s.664-1.473 1.48-1.473h39.882c.82 0 1.48.66 1.48 1.474z"/></svg>