<svg xmlns="http://www.w3.org/2000/svg" width="57.466" height="61.558" viewBox="0 0 57.466 61.558"><path fill="#157FFF" d="M47.273 50.58a5.63 5.63 0 0 0 7.858 1.27 5.63 5.63 0 0 0 1.27-7.86L39.33 20.354a5.627 5.627 0 0 0-7.858-1.268 5.626 5.626 0 0 0-1.267 7.86L47.273 50.58z"/><path fill="#157FFF" d="M42.964 48.954a.975.975 0 0 0 .808 1.12l6.577 1.06a.978.978 0 0 0 1.12-.81l1.06-6.58a.978.978 0 0 0-.81-1.118l-6.577-1.06a.978.978 0 0 0-1.12.806l-1.06 6.582z"/><path fill="#157FFF" d="M39.31 43.895a.976.976 0 0 0 .808 1.118l6.58 1.06a.974.974 0 0 0 1.117-.807l1.062-6.58a.978.978 0 0 0-.808-1.118l-6.58-1.06a.977.977 0 0 0-1.12.806l-1.06 6.58z"/><path fill="#FF643F" d="M1.1 43.856a5.63 5.63 0 0 0 1.188 7.87 5.632 5.632 0 0 0 7.873-1.187l17.31-23.464a5.624 5.624 0 0 0-1.19-7.867 5.623 5.623 0 0 0-7.87 1.187L1.1 43.857z"/><path opacity=".3" fill="#1D1D1B" d="M45.088 33.122a.985.985 0 0 0-1.377-.223.99.99 0 0 0-.222 1.378L55.77 51.282c.515-.506.91-1.09 1.19-1.724L45.09 33.122z"/><path fill="#FF643F" d="M1.338 39.254a.98.98 0 0 0-.82 1.112l.993 6.587a.977.977 0 0 0 1.113.82l6.59-.993c.53-.08.897-.58.82-1.114l-.996-6.586a.98.98 0 0 0-1.11-.822l-6.59.996z"/><path fill="#FF643F" d="M5.042 34.233a.972.972 0 0 0-.818 1.11l.993 6.59a.974.974 0 0 0 1.11.817l6.59-.992a.98.98 0 0 0 .82-1.11l-.997-6.59a.976.976 0 0 0-1.11-.82l-6.588.995z"/><path opacity=".3" fill="#1D1D1B" d="M14.534 25.657c3.154 4.502 8.383 7.445 14.3 7.445 5.925 0 11.16-2.95 14.314-7.463-3.322-4.24-4.674-4.668-14.314-4.668s-10.426-.576-14.3 4.685z"/><circle fill="#F9D84B" cx="28.834" cy="15.651" r="15.651"/><path fill="#F9D84B" d="M20.328 51.698a1.018 1.018 0 0 0 0 1.437l4.907 4.906a1.016 1.016 0 0 0 1.436 0l4.907-4.905a1.018 1.018 0 0 0 0-1.437l-4.906-4.906a1.016 1.016 0 0 0-1.435 0l-4.907 4.906z"/><path fill="#F9D84B" d="M20.328 45.202a1.015 1.015 0 0 0 0 1.435l4.907 4.907a1.015 1.015 0 0 0 1.436 0l4.907-4.907a1.015 1.015 0 0 0 0-1.435l-4.906-4.906a1.016 1.016 0 0 0-1.435 0l-4.907 4.906z"/><path fill="#F9D84B" d="M22.974 55.698a5.858 5.858 0 0 0 11.717 0v-30.35c0-3.237-2.62-5.86-5.856-5.86a5.86 5.86 0 0 0-5.86 5.86v30.35z"/><path opacity=".2" fill="#1D1D1B" d="M29.138.016v61.51c3.09-.158 5.554-2.695 5.554-5.827V30.16c5.74-2.322 9.794-7.937 9.794-14.508C44.486 7.11 37.64.18 29.138.016z"/><circle fill="#BF8E36" cx="28.833" cy="9.092" r="4.613"/><circle fill="#FFF" cx="28.833" cy="9.693" r="4.613"/><path opacity=".3" fill="#1D1D1B" d="M30.167 34.913c-.568 0-1.03.46-1.03 1.028v25.586a5.773 5.773 0 0 0 2.056-.472V35.94c0-.566-.46-1.027-1.026-1.027zM17.443 36.012a.98.98 0 0 0-.21-1.38.987.987 0 0 0-1.38.21L3.06 52.185a5.584 5.584 0 0 0 2.015.593L17.443 36.01z"/></svg>