<svg xmlns="http://www.w3.org/2000/svg" width="96.41" height="58.413" viewBox="101.804 11.105 96.41 58.413"><path fill="#3BA1F4" d="M183.1 25.77l-29.94 24.893a4.54 4.54 0 0 1-6.422-.06l-29.463-25.46c-.05.276-.092.556-.094.845l-.337 35.38a5.32 5.32 0 0 0 5.27 5.37l55.352.53a5.323 5.323 0 0 0 5.375-5.27l.336-35.38c.005-.29-.034-.57-.076-.85z"/><path fill="#76CEFF" d="M153.292 36.63a4.536 4.536 0 0 0-6.42-.06l-30.014 24.947a5.313 5.313 0 0 0 5.258 5.22l55.35.53a5.31 5.31 0 0 0 5.354-5.12L153.292 36.63z"/><path opacity=".3" fill="#1D1D1B" d="M146.69 55.404c1.76 1.898 4.632 1.927 6.422.062l30.043-28.107c-.052-3.042-2.368-5.5-5.254-5.527l-55.352-.527c-2.89-.026-5.247 2.388-5.357 5.424l29.5 28.674z"/><path fill="#76CEFF" d="M146.726 51.763a4.543 4.543 0 0 0 6.42.06l30.012-24.948c-.053-2.87-2.37-5.195-5.256-5.223l-55.352-.527a5.31 5.31 0 0 0-5.355 5.12l29.53 25.518z"/><path opacity=".3" fill="#1D1D1B" d="M198.068 44.652l-8.873-.085c.73 4.316-.586 8.903-3.948 12.204-5.452 5.35-14.214 5.264-19.562-.185l-25.12-26.03c-8.756-8.922-23.08-9.06-32.002-.305-4.354 4.27-6.598 9.87-6.756 15.52l8.79.083c.137-3.398 1.503-6.754 4.122-9.325 5.458-5.356 14.214-5.273 19.568.187l9.485 9.663 15.63 16.36c8.754 8.92 23.08 9.057 32.005.305 5.093-4.993 7.31-11.805 6.66-18.39z"/><path fill="#E82E41" d="M191.738 28.592a22.46 22.46 0 0 0-11.227-6.224 5.326 5.326 0 0 1 2.523 3.457l.066-.055c.04.28.08.558.075.847l-.058 6.234a13.747 13.747 0 0 1 2.336 1.9c5.356 5.453 5.275 14.21-.186 19.57-5.45 5.35-14.214 5.265-19.562-.186l-25.122-26.03c-8.753-8.923-23.078-9.06-32-.306-8.92 8.75-9.057 23.084-.306 32.002 3.167 3.226 7.067 5.253 11.173 6.168-1.572-.937-2.627-2.642-2.61-4.603l.058-5.85c-.826-.54-1.623-1.137-2.344-1.87-5.352-5.463-5.268-14.22.186-19.572 5.457-5.354 14.216-5.27 19.567.188l9.485 9.664 15.63 16.36c8.758 8.92 23.082 9.058 32.006.305 8.927-8.746 9.062-23.08.31-31.998z"/><path opacity=".3" fill="#1D1D1B" d="M116.843 61.367l.057-5.85c-.826-.54-1.623-1.137-2.344-1.87-.147-.15-.275-.31-.412-.465l-.078 8.157a5.27 5.27 0 0 0 1.052 3.195 23.017 23.017 0 0 0 4.335 1.434c-1.572-.938-2.628-2.642-2.61-4.603zM183.033 25.824l.066-.055c.04.278.08.557.075.846l-.058 6.234a13.747 13.747 0 0 1 2.336 1.9c.228.23.432.475.64.722l.083-8.828a5.26 5.26 0 0 0-.077-.847l-.065.053a5.304 5.304 0 0 0-.85-1.895 22.878 22.878 0 0 0-4.674-1.59 5.332 5.332 0 0 1 2.523 3.46z"/><path fill="#FFD42D" d="M141.87 18.56a16.965 16.965 0 0 1-8.935 9.326 16.946 16.946 0 0 1 8.755 9.492 16.94 16.94 0 0 1 8.934-9.325 16.952 16.952 0 0 1-8.754-9.493z"/><path fill="#FF7600" d="M141.825 23.23a8.536 8.536 0 0 1-4.506 4.698 8.5 8.5 0 0 1 4.414 4.78 8.525 8.525 0 0 1 4.5-4.697 8.54 8.54 0 0 1-4.41-4.78z"/><path fill="#FFD42D" d="M154.317 14.418a12.634 12.634 0 0 1-6.655 6.947 12.63 12.63 0 0 1 6.523 7.072 12.608 12.608 0 0 1 6.654-6.948 12.617 12.617 0 0 1-6.523-7.072z"/><path fill="#FF7600" d="M154.282 17.897a6.35 6.35 0 0 1-3.355 3.498c1.52.7 2.71 1.986 3.29 3.564a6.346 6.346 0 0 1 3.35-3.5 6.38 6.38 0 0 1-3.285-3.563z"/><g><path fill="#FFD42D" d="M136.25 11.105a7.612 7.612 0 0 1-4.012 4.188 7.62 7.62 0 0 1 3.933 4.262 7.6 7.6 0 0 1 4.012-4.187 7.612 7.612 0 0 1-3.933-4.263z"/><path fill="#FF7600" d="M136.228 13.202a3.826 3.826 0 0 1-2.02 2.11 3.807 3.807 0 0 1 1.98 2.146 3.823 3.823 0 0 1 2.02-2.11 3.846 3.846 0 0 1-1.98-2.146z"/></g></svg>