<svg xmlns="http://www.w3.org/2000/svg" width="64.842" height="66.98" viewBox="0 0 64.842 66.98"><path fill="#2686BC" d="M35.575 1.307a4.463 4.463 0 0 0-6.31 0L.015 26.1c.082 2.814 2.38 5.08 5.214 5.08H59.61c2.838 0 5.133-2.266 5.215-5.08L35.575 1.306z"/><path fill="#EDEDED" d="M60.574 8.32a2.972 2.972 0 0 0-2.976-2.974H7.238A2.973 2.973 0 0 0 4.267 8.32v52.993a2.973 2.973 0 0 0 2.973 2.975H57.6a2.973 2.973 0 0 0 2.976-2.975L60.574 8.32z"/><path fill="#3BA1F4" d="M64.757 26.16L35.575 50.897a4.463 4.463 0 0 1-6.31 0L.083 26.16a5.213 5.213 0 0 0-.083.833v34.76a5.23 5.23 0 0 0 5.23 5.228H59.61a5.23 5.23 0 0 0 5.23-5.228v-34.76c0-.283-.04-.557-.085-.83z"/><path fill="#FF643F" d="M4.267 10.644h56.308v18.13H4.267z"/><path fill="#76CEFF" d="M35.575 37.108a4.464 4.464 0 0 0-6.31 0L.015 61.9c.082 2.815 2.38 5.08 5.214 5.08H59.61c2.838 0 5.133-2.265 5.215-5.08L35.575 37.108z"/><g fill="#FFF"><path d="M11.652 25.922v-12.06h8.267v2.04h-5.833v2.855h5.034v2.04h-5.033v5.124h-2.435zM21.934 25.922v-12.06h5.125c1.288 0 2.224.11 2.808.326s1.052.602 1.403 1.155c.352.555.527 1.188.527 1.9 0 .904-.266 1.652-.798 2.24-.533.59-1.328.962-2.387 1.115.527.308.96.645 1.304 1.012.343.368.805 1.02 1.386 1.958l1.472 2.353h-2.912l-1.76-2.623c-.625-.938-1.053-1.528-1.283-1.772s-.474-.41-.732-.502c-.258-.09-.667-.136-1.226-.136h-.494v5.034h-2.434zm2.435-6.96h1.8c1.168 0 1.897-.048 2.188-.146s.52-.27.683-.51c.166-.242.248-.543.248-.905 0-.405-.108-.732-.325-.982-.216-.25-.522-.406-.917-.473-.197-.027-.79-.04-1.777-.04h-1.9v3.058zM34.09 25.922v-12.06h8.942v2.04h-6.507v2.674h6.054v2.032h-6.055v3.282h6.737v2.03h-9.17zM45.327 25.922v-12.06h8.94v2.04h-6.506v2.674h6.055v2.032H47.76v3.282H54.5v2.03h-9.17z"/></g><path opacity=".1" fill="#1D1D1B" d="M64.784 26.426c.01-.11.037-.215.042-.326l-4.252-3.604V8.32a2.972 2.972 0 0 0-2.976-2.974H40.342l-4.767-4.04A4.448 4.448 0 0 0 32.42 0v66.98h27.192c.356 0 .705-.035 1.04-.104.167-.033.317-.098.477-.146.163-.05.335-.086.49-.153.23-.095.438-.22.647-.342.072-.047.157-.078.23-.127a5.28 5.28 0 0 0 .715-.576c.015-.015.03-.024.043-.04a5.19 5.19 0 0 0 1.59-3.74v-34.76c-.003-.194-.035-.38-.06-.566z"/></svg>