<svg xmlns="http://www.w3.org/2000/svg" width="89" height="60" viewBox="0 0 89 60">
  <g>
    <rect x="16.25" y="8.125" width="72.5" height="51.875" rx="7.5" ry="7.5" fill="#3c3c3b"/>
    <rect x="8.125" y="8.125" width="75" height="51.875" rx="7.5" ry="7.5" fill="#266aa1"/>
    <path d="M75.625,8.125H49.535L17.612,60H75.625a7.522,7.522,0,0,0,7.5-7.5V15.625A7.522,7.522,0,0,0,75.625,8.125Z" opacity="0.1"/>
    <rect y="8.125" width="77.5" height="51.875" rx="7.5" ry="7.5" fill="#3ba1f4"/>
    <rect x="6.25" y="21.25" width="38.125" height="31.875" rx="3.75" ry="3.75" fill="#fff"/>
    <path d="M31.434,25.623,25.357,47.239,23.75,53.125H40.67a3.761,3.761,0,0,0,3.75-3.75V45.827Z" opacity="0.1"/>
    <g>
      <path d="M40.77,51.688s-1.746-5.014-2.172-5.905a2.866,2.866,0,0,0-1.547-1.553c-.63-.289-7.136-3.155-7.136-3.155l-3.723.287-3.726-.287s-6.5,2.866-7.133,3.155a2.884,2.884,0,0,0-1.551,1.553c-.424.892-2.169,5.905-2.169,5.905s-.17.591-.364,1.437H41.132c-.231-.99-.362-1.437-.362-1.437" fill="#00ab75"/>
      <path d="M30.012,41.054a3.829,3.829,0,0,1-7.641,0V36.993a3.829,3.829,0,0,1,7.641,0Z" fill="#e9b990"/>
      <path d="M30.012,40.409a3.829,3.829,0,0,1-7.641,0V36.347a3.829,3.829,0,0,1,7.641,0Z" fill="#ffc58f"/>
      <path d="M37.676,44.6a3.256,3.256,0,0,0-.627-.374c-.508-.234-4.851-2.151-6.5-2.877a4.363,4.363,0,0,1-8.717,0c-1.649.726-5.99,2.643-6.5,2.877a3.272,3.272,0,0,0-.627.374c1.651,1.316,2.853,4.594,3,8.522H34.681c.141-3.927,1.344-7.206,2.995-8.522" fill="#00d094"/>
      <path d="M32.385,31.5a.8.8,0,0,0-.247.032c-.512-3.849-2.9-6.761-5.778-6.761-4.992,0-5.264,2.912-5.778,6.761a.777.777,0,0,0-.993.836l.166,2.258a.81.81,0,0,0,.865.746.4.4,0,0,0,.085-.026c.7,3.48,2.965,6.032,5.655,6.032s4.952-2.551,5.654-6.032a.392.392,0,0,0,.085.026.805.805,0,0,0,.863-.746l.168-2.258a.81.81,0,0,0-.745-.868" fill="#ffd196"/>
      <path d="M20.695,32a.318.318,0,1,1-.318-.308.313.313,0,0,1,.318.308" fill="#724430"/>
      <path d="M32.66,32a.318.318,0,1,1-.318-.308A.312.312,0,0,1,32.66,32" fill="#724430"/>
      <path d="M26.36,23.125c-3.48,0-6.3,2.453-6.3,5.481V32h.636V30.755c0-1.041.5-1.266.892-.994a5.92,5.92,0,0,0,5.039,0c4.787-1.912,5.4.446,5.4.994V32h.636V28.606a4.958,4.958,0,0,0-1.013-2.982,6.572,6.572,0,0,0-5.287-2.5" fill="#724430"/>
    </g>
    <rect x="48.75" y="29.375" width="20.625" height="3.75" rx="1.875" ry="1.875" fill="#fff" opacity="0.5"/>
    <rect x="48.75" y="21.875" width="20.625" height="3.75" rx="1.875" ry="1.875" fill="#fff"/>
    <rect x="48.75" y="36.875" width="20.625" height="3.75" rx="1.875" ry="1.875" fill="#fff" opacity="0.5"/>
    <circle cx="16.875" cy="13.75" r="4.375" fill="#fff"/>
    <rect x="13.75" width="6.25" height="16.25" rx="3.125" ry="3.125" fill="#7f8787"/>
    <path d="M20,13.125v-10A3.134,3.134,0,0,0,16.875,0V16.25A3.134,3.134,0,0,0,20,13.125Z" opacity="0.2"/>
    <circle cx="60.625" cy="13.75" r="4.375" fill="#fff"/>
    <rect x="57.5" width="6.25" height="16.25" rx="3.125" ry="3.125" fill="#7f8787"/>
    <path d="M63.75,13.125v-10A3.134,3.134,0,0,0,60.625,0V16.25A3.134,3.134,0,0,0,63.75,13.125Z" opacity="0.2"/>
    <path d="M70,8.125H52.035L20.112,60H70a7.522,7.522,0,0,0,7.5-7.5V15.625A7.522,7.522,0,0,0,70,8.125Z" opacity="0.1"/>
  </g>
</svg>
