<svg xmlns="http://www.w3.org/2000/svg" width="65.583" height="50.039" viewBox="0 0 65.583 50.039"><path fill="#2FAC66" d="M59.054 0H6.53L0 11.152 32.792 50.04l32.79-38.888z"/><path fill="#12C47B" d="M18.906 11.152L32.792 50.04 46.678 11.15z"/><path fill="#49EA7F" d="M18.906 11.152L32.792 50.04 0 11.15z"/><path fill="#099358" d="M65.583 11.152L32.793 50.04l13.71-38.888z"/><path fill="#2FAC66" d="M19.08 11.152L32.79 0l13.71 11.152z"/><path fill="#49EA7F" d="M18.906 11.152L32.792 0H6.53z"/><path fill="#099358" d="M59.015 0H32.753l13.714 11.152z"/><path fill="#2FAC66" d="M46.61 11.152L59.054 0l6.53 11.152zM18.973 11.152L6.53 0 0 11.152z"/><path opacity=".1" fill="#1D1D1B" d="M59.015 0H32.753v50.04L65.546 11.15z"/><path fill="#FFD42D" d="M18.904 3.42a13.93 13.93 0 0 1-7.268 7.73 13.933 13.933 0 0 1 7.268 7.732 13.942 13.942 0 0 1 7.27-7.732 13.94 13.94 0 0 1-7.27-7.73z"/><path fill="#FF7600" d="M18.904 7.256a6.99 6.99 0 0 1-3.663 3.895 7 7 0 0 1 3.664 3.896 7.025 7.025 0 0 1 3.663-3.895 7.022 7.022 0 0 1-3.663-3.894z"/></svg>