<svg xmlns="http://www.w3.org/2000/svg" width="221.779" height="46.087" viewBox="0 0 221.779 46.087"><path fill-rule="evenodd" clip-rule="evenodd" fill="#FFA930" d="M23.186 9.568c3.67 0 7.122 1.623 9.656 4.164v.01c0-1.22.82-2.14 1.96-2.14l.288-.002c1.783 0 2.15 1.686 2.15 2.22l.008 18.965c-.126 1.242 1.28 1.883 2.06 1.086 3.047-3.128 6.69-16.086-1.892-23.595-7.998-7-18.73-5.847-24.436-1.913-6.066 4.184-9.95 13.446-6.178 22.145 4.11 9.488 15.874 12.317 22.864 9.493 3.54-1.428 5.177 3.358 1.5 4.92-5.557 2.367-21.02 2.128-28.242-10.383-4.88-8.45-4.62-23.314 8.323-31.016 9.9-5.892 22.956-4.262 30.828 3.96 8.23 8.596 7.748 24.69-.278 30.946-3.636 2.842-9.037.077-9.003-4.066l-.037-1.354c-2.532 2.513-5.9 3.98-9.572 3.98-7.254 0-13.636-6.382-13.636-13.635 0-7.325 6.382-13.782 13.636-13.782zm9.127 13.257c-.272-5.31-4.215-8.505-8.976-8.505h-.18c-5.494 0-8.54 4.32-8.54 9.23 0 5.493 3.685 8.965 8.52 8.965 5.39 0 8.93-3.947 9.188-8.618l-.012-1.072zM165.016 37.205c-.016 1.174-1.243 2.376-3.024 2.376-1.798 0-2.917-1.31-2.917-2.472l.003-2.007c.02-1.205 1.138-2.46 2.96-2.46 1.994 0 2.984 1.345 2.984 2.608l-.006 1.957z"/><path fill="#FFF" d="M135.006 4.29c0 1.238-1.24 2.254-3.02 2.254-1.796 0-2.915-1.23-2.915-2.39l.002-1.594c.02-1.208 1.074-2.56 2.897-2.56 1.993 0 3.036 1.293 3.036 2.56v1.73zM81.333 8.85c-3.645-.053-6.437 2.064-8.16 3.473-1.912-2.048-4.358-3.298-6.875-3.455-2.652-.164-5.14.73-6.72 2.015-.555-1.285-1.285-2.04-2.537-2.04-1.368 0-2.826 1.172-2.826 3.08s.017 24.778.017 24.778c0 1.426 1.216 2.866 2.95 2.866 1.913 0 2.97-1.46 2.97-2.875V18.314c0-1.788 3.06-3.906 5.644-3.872 1.65.024 3.613 1.65 3.613 4.22l.016 18.077c0 1.596 1.607 2.82 3.066 2.82 1.733 0 3.046-1.312 3.046-2.804V18.487c0-2.24 3.4-4.115 5.73-3.994 1.823.097 3.437 2.085 3.437 3.994v18.24c0 1.578 1.483 2.83 3.082 2.83 1.404 0 3.028-.93 3.028-2.856V18.54c.02-6.667-6.563-9.777-9.48-9.69zM132.01 8.834c-1.778.007-2.927 1.465-2.93 2.946l.007 24.893c-.013 1.653 1.295 2.884 2.913 2.884 1.844 0 3.022-1.442 3.022-3.013l.013-24.722c0-1.463-1.476-2.993-3.024-2.988zM121.677 8.84c-1.67 0-2.853 1.336-2.853 2.64v1.017c-2.638-2.246-6.055-3.64-9.744-3.646-8.118-.01-15.307 6.827-15.307 15.382 0 7.844 6.85 15.333 15.307 15.333 3.42 0 7.1-1.314 9.715-3.547l.008.727c0 1.392 1.103 2.82 2.914 2.82 2.06 0 2.98-1.645 2.98-2.942V11.64c.022-1.174-1.267-2.796-3.02-2.8zM109.162 33.88c-5.35 0-9.686-4.334-9.686-9.68 0-5.35 4.336-9.683 9.686-9.683s9.687 4.334 9.687 9.682c0 5.347-4.338 9.68-9.688 9.68zM152.392 33.62c-3.77-.004-7.13-2.903-7.13-7.175l.006-23.666c-.005-1.635-1.338-2.78-2.97-2.78-1.894.007-2.985 1.4-2.985 2.78v23.688c-.023 7.35 6.057 13.112 12.975 13.112 2.055 0 3.045-1.666 3.045-3.08 0-1.344-1.062-2.88-2.94-2.88z"/><path fill-rule="evenodd" clip-rule="evenodd" fill="#FFA930" d="M184.47 8.83c-8.292.036-15.365 7.343-15.324 15.386v12.537c0 1.632 1.335 2.828 2.743 2.828 1.675 0 2.976-1.235 2.976-2.742V24.11c-.004-4.556 3.977-9.586 9.567-9.56 1.818.008 3.014-1.372 3.004-2.9-.006-1.22-.883-2.827-2.968-2.82zM218.906 8.83c-1.764 0-2.898 1.445-2.898 2.776v12.617c0 4.868-4.1 9.624-9.803 9.624-4.66 0-9.6-4.044-9.6-9.535V11.674c0-1.325-.995-2.844-2.97-2.844-1.394 0-2.817 1.17-2.817 2.79v12.594c0 8.158 7.29 15.34 15.37 15.34 8.82 0 15.59-7.563 15.59-15.302V11.614c0-1.417-1.168-2.784-2.872-2.784z"/></svg>