<svg xmlns="http://www.w3.org/2000/svg" width="55.059" height="67.577" viewBox="0 0 55.059 67.577"><path fill="#1D1D1B" d="M43.642 60.467a3.883 3.883 0 0 1-3.885 3.882H3.882A3.88 3.88 0 0 1 0 60.466V3.882A3.882 3.882 0 0 1 3.882 0h35.875a3.885 3.885 0 0 1 3.885 3.882v56.585z"/><path fill="#3BA1F4" d="M41.83 56.16c0 .357-.29.647-.647.647H2.46a.648.648 0 0 1-.648-.647V7.54c0-.358.29-.648.648-.648h38.722c.357 0 .646.29.646.648v48.62z"/><circle fill="#C6C6C6" cx="21.821" cy="60.126" r="1.79"/><circle fill="#3C3C3B" cx="21.821" cy="3.669" r=".578"/><path opacity=".3" fill="#FFF" d="M0 53.31V3.883A3.882 3.882 0 0 1 3.88 0h37.667L0 53.31z"/><path opacity=".2" d="M33.224 29.035c-1.443-.48-4.077-.803-7.083-.803-3.01 0-5.642.32-7.087.802a4.22 4.22 0 0 0-3.167 4.085v28.707c0 2.24 1.75 4.07 3.956 4.204 1.435.298 3.746.49 6.353.49 2.647 0 4.99-.197 6.42-.504a4.212 4.212 0 0 0 3.778-4.19V33.12a4.216 4.216 0 0 0-3.17-4.085z"/><path fill="#FF643F" d="M35.176 29.035c-1.443-.48-4.077-.803-7.083-.803-3.01 0-5.642.32-7.087.802a4.218 4.218 0 0 0-3.167 4.085v28.707c0 2.24 1.75 4.07 3.955 4.204 1.435.298 3.746.49 6.353.49 2.647 0 4.99-.197 6.42-.504a4.212 4.212 0 0 0 3.778-4.19V33.12a4.218 4.218 0 0 0-3.17-4.085z"/><path fill="#010005" d="M36.337 31.384c-.65-.545-4.095-.962-8.245-.962-4.152 0-7.596.417-8.25.962a2.533 2.533 0 0 0-1.47 2.298V59.3a4.21 4.21 0 0 0 2.825 3.98c1.03.415 3.727.712 6.895.712 3.164 0 5.86-.297 6.892-.713a4.213 4.213 0 0 0 2.826-3.98V33.682a2.53 2.53 0 0 0-1.473-2.298z"/><path fill="#B8B7B4" d="M30.935 31.356c0 .176-.14.317-.316.317h-5.056a.315.315 0 0 1-.316-.317c0-.173.14-.314.316-.314h5.055c.173 0 .315.14.315.314z"/><path fill="#12C47B" d="M20.032 34.266h16.306V59.58H20.032z"/><path opacity=".15" fill="#FFF" d="M36.337 31.384c-.65-.545-4.095-.962-8.245-.962-4.152 0-7.596.417-8.25.962a2.533 2.533 0 0 0-1.47 2.298V60.186s10.4-16.95 17.965-28.802z"/><path opacity=".2" d="M35.176 29.035c-1.305-.436-3.588-.737-6.238-.79v38.27c2.318-.035 4.344-.22 5.63-.498a4.212 4.212 0 0 0 3.776-4.19V33.12a4.214 4.214 0 0 0-3.168-4.085z"/><path fill="#FFD645" d="M55.06 67.126a.45.45 0 0 1-.453.45H31.343a.452.452 0 0 1-.454-.45V22.93c0-.25.202-.453.453-.453h23.264c.25 0 .452.203.452.452v44.196z"/><path d="M54.27 64.303c0 .936-.762 1.694-1.695 1.694h-19.2a1.693 1.693 0 0 1-1.694-1.694V25.75c0-.934.76-1.69 1.695-1.69h19.2c.933 0 1.693.757 1.693 1.69v38.553z"/><path fill="#00A7B9" d="M33.182 29.59h19.586v30.877H33.182z"/><path opacity=".15" fill="#FFF" d="M31.68 64.303V25.75c0-.934.76-1.69 1.695-1.69h19.2c.933 0-20.894 41.18-20.894 40.243z"/><path fill="#575756" d="M46.373 24.293c0 .13-.105.235-.236.235h-6.4a.235.235 0 0 1-.236-.235c0-.13.107-.234.236-.234h6.4c.132 0 .237.104.237.233z"/><circle fill="#706F6F" cx="34.842" cy="25.714" r=".64"/><g fill="#FFF"><path opacity=".7" d="M41.777 62.422h1.05v1.05h-1.05zM43.123 62.422h1.048v1.05h-1.047zM41.777 63.733h1.05v1.05h-1.05zM43.123 63.733h1.048v1.05h-1.047z"/></g></svg>