<svg xmlns="http://www.w3.org/2000/svg" width="69.278" height="67.473" viewBox="0 0 69.278 67.473"><path fill="#575756" d="M66.005 58.783A5.417 5.417 0 0 1 60.59 64.2H8.69a5.417 5.417 0 0 1-5.417-5.417V8.688A5.417 5.417 0 0 1 8.69 3.273h51.9a5.417 5.417 0 0 1 5.415 5.415v50.095z"/><path fill="#136ABF" d="M60.59 3.273a5.417 5.417 0 0 1 5.415 5.415v50.095A5.417 5.417 0 0 1 60.59 64.2H8.69a5.417 5.417 0 0 1-5.417-5.417V8.688A5.417 5.417 0 0 1 8.69 3.273h51.9m0-3.273H8.69C3.897 0 0 3.898 0 8.688v50.095c0 4.79 3.898 8.69 8.69 8.69h51.9c4.79 0 8.688-3.9 8.688-8.69V8.688c0-4.79-3.898-8.688-8.69-8.688z"/><path fill="#9D9D9C" d="M68.4 57.09c0 2.99-2.395 4.064-5.354 4.064H5.724C2.764 61.154.37 60.08.37 57.09l4.635-16.5c0-2.99-2.24 10.238.72 10.238h57.32c2.96 0 1.396-12.148 1.396-9.157l3.96 15.42z"/><path fill="#FFF" d="M63.34 30.51a4.06 4.06 0 0 1-4.062 4.06H9.183a4.06 4.06 0 0 1-4.06-4.06V10.918a4.06 4.06 0 0 1 4.06-4.063h50.095a4.06 4.06 0 0 1 4.06 4.063V30.51z"/><g fill="#FF5050"><path d="M13.484 40.905l5.793-.703c.184 1.477.682 2.606 1.492 3.39.808.778 1.788 1.17 2.938 1.17 1.234 0 2.275-.47 3.12-1.406.847-.938 1.267-2.2 1.267-3.793 0-1.504-.404-2.696-1.213-3.58-.81-.878-1.797-1.32-2.96-1.32-.77 0-1.683.15-2.75.45l.66-4.878c1.62.04 2.854-.31 3.708-1.056.852-.747 1.277-1.738 1.277-2.974 0-1.05-.312-1.888-.938-2.515-.626-.622-1.458-.936-2.49-.936-1.026 0-1.897.356-2.622 1.066s-1.166 1.747-1.322 3.108l-5.516-.937c.383-1.887.96-3.395 1.734-4.523.773-1.13 1.855-2.018 3.24-2.663 1.383-.647 2.936-.97 4.652-.97 2.94 0 5.297.936 7.074 2.81 1.463 1.536 2.193 3.267 2.193 5.2 0 2.74-1.498 4.927-4.496 6.56 1.79.385 3.22 1.243 4.295 2.578 1.07 1.334 1.605 2.947 1.605 4.835 0 2.743-1 5.078-3.002 7.01-2.002 1.93-4.494 2.897-7.48 2.897-2.823 0-5.167-.813-7.026-2.44-1.86-1.624-2.94-3.75-3.236-6.38zM53.276 49.19H47.29V26.636c-2.188 2.042-4.766 3.555-7.734 4.534v-5.433c1.564-.51 3.26-1.48 5.092-2.907s3.09-3.09 3.77-4.993h4.858V49.19z"/></g><path fill="#FFF" d="M68.312 56.33c.465 2.102-1.326 3.813-4.002 3.82l-59.752.16c-2.676.007-4.484-1.705-4.04-3.823L4.39 37.983c.443-2.118 2.62-3.835 4.863-3.835h50.095c2.244 0 4.438 1.704 4.902 3.81l4.062 18.372z"/><path fill="#FF5050" d="M47.29 34.148l1.432 14.134 6.61-.01-2.056-14.124zM21.09 35.055c1.097-.28 2.026-.422 2.796-.422 1.17 0 2.137.416 2.91 1.244.783.83 1.148 1.953 1.092 3.37-.06 1.498-.555 2.69-1.492 3.573-.95.884-2.092 1.325-3.418 1.326-1.236.002-2.256-.364-3.053-1.098-.79-.737-1.205-1.802-1.252-3.193l-6.137.668c-.05 2.478.822 4.483 2.643 6.012 1.858 1.53 4.37 2.295 7.5 2.29 3.308-.006 6.1-.92 8.337-2.74 2.184-1.82 3.25-4.02 3.238-6.6-.008-1.778-.56-3.296-1.637-4.552a7.343 7.343 0 0 0-.793-.785h-10.52l-.216.907z"/><path opacity=".15" fill="#1D1D1B" d="M68.312 56.33c.465 2.102-1.326 3.813-4.002 3.82l-59.752.16c-2.676.007-4.484-1.705-4.04-3.823L4.39 37.983c.443-2.118 2.62-3.835 4.863-3.835h50.095c2.244 0 4.438 1.704 4.902 3.81l4.062 18.372z"/><path fill="#878787" d="M12.892 36.826a1.565 1.565 0 0 1-3.13 0V31.41a1.565 1.565 0 0 1 3.13 0v5.416z"/><path fill="#B2B2B2" d="M10.933 29.924c-.67.178-1.172.76-1.172 1.485v5.416c0 .724.503 1.308 1.173 1.483v-8.386z"/><path fill="#878787" d="M59.237 36.826a1.565 1.565 0 0 1-3.13 0V31.41c0-.866.7-1.566 1.566-1.566.865 0 1.564.7 1.564 1.565v5.416z"/><path fill="#B2B2B2" d="M57.278 29.924c-.668.178-1.172.76-1.172 1.485v5.416c0 .724.504 1.308 1.172 1.483v-8.386z"/></svg>