<svg xmlns="http://www.w3.org/2000/svg" width="178.317" height="67.649" viewBox="0 0 178.317 67.649"><path d="M95.405 17.045c-.2-2.61-1.873-3.748-4.65-3.748-2.476 0-4.016 1.104-4.016 2.844 0 2.143 1.672 2.51 4.918 3.246 2.81.637 6.39 1.506 6.39 5.086 0 3.146-2.743 5.286-6.825 5.286-4.415 0-6.958-2.208-7.06-6.156h2.04c0 2.877 1.908 4.416 5.087 4.416 2.81 0 4.684-1.338 4.684-3.345 0-2.41-2.91-2.944-4.718-3.38-2.81-.67-6.624-1.104-6.624-4.885 0-3.01 2.41-4.85 6.324-4.85 3.78 0 6.49 1.806 6.49 5.486h-2.04zM108.154 29.792c-4.784 0-7.896-3.513-7.896-8.967 0-5.453 3.244-9.268 7.862-9.268 5.085 0 7.56 4.216 7.56 8.967v.602H102.4c0 3.613 1.673 6.96 5.82 6.96 2.743 0 4.583-1.54 5.253-4.518h2.04c-.734 3.816-3.31 6.224-7.36 6.224zm-.1-16.494c-3.746 0-5.253 2.91-5.654 6.123h11.174c-.235-3.813-2.308-6.122-5.52-6.122zM125.72 29.725c-4.817 0-7.962-3.512-7.962-8.933 0-5.62 3.178-9.267 8.03-9.267 3.98 0 6.59 2.208 7.058 5.922h-2.142c-.534-2.71-2.24-4.182-4.884-4.182-3.612 0-5.89 2.877-5.89 7.36 0 4.483 2.21 7.36 5.69 7.36 2.876 0 4.815-1.806 5.25-4.917h2.11c-.568 3.913-3.11 6.657-7.26 6.657zM149.81 29.224h-1.94v-3.18c-1.237 2.41-3.145 3.68-6.056 3.68-3.58 0-5.922-2.073-5.922-6.255V12.025H138v10.54c0 3.378 1.038 5.32 4.35 5.32 3.446 0 5.387-2.878 5.387-6.358v-9.502h2.074v17.198zM162.692 13.9c-.234 0-.434-.033-.568-.033-2.576 0-4.816 1.605-5.486 4.08-.268 1.04-.402 2.042-.402 4.25v7.026h-2.073V12.026h1.974v4.115c1.438-3.144 3.078-4.314 6.557-4.382V13.9zM170.79 29.792c-4.783 0-7.896-3.513-7.896-8.967 0-5.453 3.246-9.268 7.863-9.268 5.085 0 7.56 4.216 7.56 8.967v.602h-13.28c0 3.613 1.673 6.96 5.82 6.96 2.744 0 4.584-1.54 5.253-4.518h2.042c-.737 3.816-3.313 6.224-7.362 6.224zm-.1-16.494c-3.747 0-5.254 2.91-5.654 6.123h11.174c-.234-3.813-2.31-6.122-5.52-6.122z"/><g fill="#2588C7"><path d="M94.17 45.347c-.792.27-2.292.638-3.79.638-2.072 0-3.572-.522-4.617-1.533-1.045-.976-1.617-2.46-1.6-4.126.017-3.774 2.76-5.93 6.484-5.93 1.468 0 2.598.284 3.152.554l-.54 2.057c-.624-.27-1.397-.488-2.644-.488-2.142 0-3.76 1.212-3.76 3.67 0 2.344 1.466 3.726 3.573 3.726.59 0 1.06-.068 1.263-.17V41.37H89.94v-2.005h4.23v5.982zM96.143 33.906h2.56V45.87h-2.56V33.906zM108.914 41.658c0 3.013-2.142 4.396-4.35 4.396-2.408 0-4.26-1.583-4.26-4.245 0-2.664 1.752-4.366 4.395-4.366 2.528 0 4.214 1.737 4.214 4.214zm-5.966.08c0 1.418.59 2.48 1.686 2.48.994 0 1.635-.995 1.635-2.48 0-1.228-.477-2.474-1.636-2.474-1.232 0-1.686 1.263-1.686 2.474zM110.43 45.87c.032-.54.065-1.534.065-2.462v-9.5h2.562v4.7h.034c.49-.708 1.347-1.163 2.495-1.163 1.97 0 3.418 1.637 3.4 4.164 0 2.965-1.887 4.445-3.772 4.445-.96 0-1.886-.353-2.477-1.33h-.032l-.104 1.146h-2.17zm2.627-3.506c0 .17.018.32.05.454.17.694.757 1.212 1.498 1.212 1.098 0 1.77-.84 1.77-2.322 0-1.282-.57-2.293-1.77-2.293-.688 0-1.328.522-1.497 1.264-.033.15-.05.3-.05.47v1.214zM125.254 45.87l-.15-.825h-.05c-.54.655-1.38 1.008-2.36 1.008-1.667 0-2.66-1.213-2.66-2.527 0-2.14 1.918-3.168 4.834-3.15v-.12c0-.438-.235-1.06-1.498-1.06-.845 0-1.736.287-2.277.62l-.47-1.65c.572-.318 1.7-.723 3.2-.723 2.747 0 3.623 1.62 3.623 3.556v2.86c0 .796.034 1.552.117 2.01h-2.31zm-.304-3.892c-1.347-.018-2.392.3-2.392 1.296 0 .655.44.98 1.013.98a1.4 1.4 0 0 0 1.33-.947c.034-.137.05-.285.05-.44v-.89zM129.467 33.906h2.562V45.87h-2.563V33.906zM134.27 43.224c.69.353 1.75.706 2.847.706 1.18 0 1.804-.486 1.804-1.23 0-.706-.54-1.11-1.902-1.6-1.89-.654-3.12-1.702-3.12-3.35 0-1.94 1.618-3.422 4.296-3.422 1.282 0 2.225.27 2.9.574l-.572 2.07a5.456 5.456 0 0 0-2.378-.54c-1.112 0-1.65.506-1.65 1.097 0 .725.64 1.045 2.106 1.6 2.004.744 2.95 1.787 2.95 3.39 0 1.9-1.47 3.518-4.585 3.518-1.297 0-2.58-.336-3.217-.69l.52-2.124zM145.842 35.337c0 .71-.538 1.284-1.38 1.284-.81 0-1.348-.573-1.33-1.283-.018-.74.52-1.297 1.346-1.297.826 0 1.348.558 1.364 1.297zM143.2 45.87v-8.24h2.56v8.24h-2.56zM155.683 37.63a34.13 34.13 0 0 0-.068 2.444v4.597c0 1.585-.32 2.884-1.245 3.71-.91.773-2.142 1.01-3.354 1.01-1.076 0-2.223-.22-2.964-.64l.503-1.937a5.074 5.074 0 0 0 2.394.626c1.213 0 2.142-.66 2.142-2.178v-.537h-.034c-.49.688-1.282 1.076-2.225 1.076-2.04 0-3.488-1.65-3.488-4.026 0-2.646 1.717-4.33 3.74-4.33 1.128 0 1.835.488 2.256 1.163h.037l.083-.978h2.223zm-2.627 3.35c0-.168-.02-.334-.052-.47-.186-.673-.674-1.127-1.382-1.127-.928 0-1.684.84-1.684 2.34 0 1.23.604 2.192 1.684 2.192.657 0 1.18-.44 1.348-1.047.067-.184.086-.453.086-.673V40.98zM157.67 40.258c0-1.03-.033-1.903-.067-2.63h2.225l.117 1.13h.05c.335-.52 1.18-1.314 2.546-1.314 1.685 0 2.95 1.112 2.95 3.538v4.888h-2.56v-4.568c0-1.06-.374-1.785-1.3-1.785-.707 0-1.13.49-1.3.96-.065.152-.098.404-.098.64v4.752h-2.562v-5.612z"/></g><g fill="#2588C7"><path d="M84.993 54.71c.285-.404.756-.588 1.24-.588 1.014 0 1.675.78 1.675 1.96 0 1.217-.684 2.025-1.72 2.025-.514 0-.968-.176-1.24-.617v.514h-.785v-5.227h.83v1.932zm-.03 1.41c0 .813.404 1.312 1.058 1.312.633 0 1.043-.53 1.043-1.336 0-.8-.403-1.307-1.042-1.307-.66-.007-1.057.5-1.057 1.33zM90.574 57.932c-.27.727-.477 1.52-1.41 1.52a3.96 3.96 0 0 1-.578-.044v-.706c.227.044.337.052.44.052.426 0 .535-.528.646-.858l-1.454-3.678h.918l1.014 2.79.954-2.79h.873l-1.403 3.714z"/><g><path d="M100.513 58.69c-.786 0-1.547-.1-2.284-.3-.72-.193-1.346-.465-1.88-.814-.552-.356-.974-.76-1.265-1.208-.31-.476-.465-.968-.465-1.48 0-.51.155-1.006.465-1.48.146-.225.324-.437.538-.637.214-.2.456-.39.728-.57a6.816 6.816 0 0 1 1.88-.815 8.763 8.763 0 0 1 2.283-.29c1.028 0 1.984.155 2.867.467.427.15.816.332 1.172.543.353.213.662.45.924.712l-1.47.618c-.39-.388-.888-.688-1.5-.9s-1.275-.318-1.993-.318c-.572 0-1.11.07-1.614.21A4.81 4.81 0 0 0 97.58 53a2.99 2.99 0 0 0-.888.848 1.83 1.83 0 0 0-.327 1.04c0 .368.11.714.327 1.04.22.325.514.61.888.852a4.67 4.67 0 0 0 1.317.577c.503.14 1.04.21 1.613.21.417 0 .82-.038 1.21-.112a5.342 5.342 0 0 0 1.075-.323 4.44 4.44 0 0 0 .88-.496 2.78 2.78 0 0 0 .634-.644h-4.162v-1.124h6.287c0 .057-.003.122-.01.197a1.026 1.026 0 0 1-.035.216l-.06.245c-.105.437-.33.848-.675 1.236-.346.388-.78.73-1.303 1.022a7.24 7.24 0 0 1-1.798.673 8.717 8.717 0 0 1-2.043.235zM110.48 54.137l-1.92 4.553-1.69-.29 3.13-7.393 4.16 5.35L118.31 51l3.155 7.41-1.688.29-1.95-4.573-3.667 4.74-3.68-4.73zM127.985 58.69c-.795 0-1.562-.1-2.3-.3-.698-.187-1.323-.458-1.876-.814s-.977-.76-1.268-1.208c-.31-.476-.466-.968-.466-1.48 0-.51.155-1.006.466-1.48.29-.45.714-.853 1.267-1.21a6.61 6.61 0 0 1 1.876-.813c.737-.2 1.504-.3 2.3-.3.795 0 1.56.1 2.298.3.7.187 1.325.46 1.88.814.552.355.973.758 1.264 1.208.31.474.466.97.466 1.48 0 .513-.155 1.005-.466 1.48-.29.45-.712.853-1.265 1.208a6.637 6.637 0 0 1-1.88.815c-.735.2-1.502.3-2.298.3zm0-6.483c-.572 0-1.11.07-1.614.21-.504.142-.945.334-1.324.577s-.676.527-.894.854c-.22.324-.33.67-.33 1.04 0 .368.11.714.33 1.04a3 3 0 0 0 .894.852 4.8 4.8 0 0 0 1.325.577c.505.14 1.043.21 1.615.21s1.11-.07 1.616-.21c.506-.14.946-.333 1.324-.577a3.02 3.02 0 0 0 .896-.853c.218-.324.327-.67.327-1.04 0-.368-.11-.715-.327-1.04a3.037 3.037 0 0 0-.896-.853c-.378-.244-.818-.436-1.323-.576s-1.042-.21-1.615-.21z"/></g></g><circle fill="#C7C8CA" cx="33.824" cy="33.825" r="33.824"/><circle fill="#FFF" cx="33.825" cy="33.825" r="32.169"/><circle fill="#2588C7" cx="33.823" cy="33.825" r="30.749"/><path fill="#FFF" d="M46.493 30.573h-2.62V23.63c0-5.54-4.508-10.05-10.05-10.05s-10.047 4.51-10.047 10.05v6.943h-2.623c-.743 0-1.346.603-1.346 1.346v17.825c0 .744.603 1.346 1.346 1.346h25.34c.742 0 1.346-.6 1.346-1.345V31.92c0-.744-.605-1.347-1.347-1.347zM25.905 23.63c0-4.367 3.552-7.92 7.92-7.92s7.918 3.553 7.918 7.92v6.943H25.905V23.63z"/><g fill="#2588C7"><circle cx="33.823" cy="37.491" r="3.133"/><path d="M35.243 46.035a1.42 1.42 0 0 1-2.838 0V40.18a1.42 1.42 0 0 1 2.838 0v5.855z"/></g><g><path fill="#094863" d="M76.83 4.828c-.963-1.412-5.324-2.63-11.887-2.63-6.565 0-11.146 1.15-11.886 2.63-.007.014.008.03.01.044h-.01v20.343l11.886 8.275 11.886-8.275V4.872h-.01c0-.015.017-.03.01-.044z"/><path fill="#FFF" d="M64.943 2.2c6.562 0 10.924 1.216 11.886 2.628.007.013-.01.03-.01.044h.01v20.343L64.942 33.49l-11.886-8.275V4.872h.01c-.002-.015-.017-.03-.01-.044.74-1.478 5.32-2.63 11.886-2.63m0-1.418c-2.46 0-10.117.207-12.606 2.673h-.688l-.008 1.035-.154.308.15.347v20.813l.61.425 11.885 8.276.81.565.812-.564L77.64 26.38l.608-.424V5.17l.206-.43-.206-.325v-.962h-.753C74.807.983 67.312.78 64.943.78z"/></g><g fill="#FFF"><path d="M56.45 19.246c.192.123.466.238.818.348.354.108.754.162 1.204.162.57 0 1.037-.13 1.394-.39.357-.258.538-.667.538-1.223 0-.368-.103-.688-.308-.96a3.77 3.77 0 0 0-.766-.758c-.31-.23-.638-.458-.988-.68a7.79 7.79 0 0 1-.99-.734 3.744 3.744 0 0 1-.766-.926c-.205-.35-.306-.768-.306-1.26 0-.79.258-1.377.773-1.76.517-.38 1.188-.573 2.016-.573.51 0 .963.044 1.363.13.398.084.72.192.965.325l-.367.933c-.184-.104-.446-.198-.788-.282a4.976 4.976 0 0 0-1.19-.127c-.55 0-.958.124-1.225.373a1.23 1.23 0 0 0-.398.94c0 .33.1.624.306.877s.46.495.767.72c.308.228.637.456.99.688.352.23.68.487.987.77.306.282.562.603.766.96.205.36.307.785.307 1.274 0 .83-.266 1.48-.797 1.952-.532.472-1.283.706-2.253.706-.613 0-1.116-.05-1.51-.155a4.14 4.14 0 0 1-.943-.353l.4-.976zM63.01 19.246c.192.123.467.238.82.348a4.1 4.1 0 0 0 1.202.162c.572 0 1.037-.13 1.394-.39.358-.258.538-.667.538-1.223 0-.368-.103-.688-.308-.96a3.77 3.77 0 0 0-.766-.758c-.308-.23-.638-.458-.988-.68a7.78 7.78 0 0 1-.99-.734c-.306-.268-.56-.577-.766-.926s-.305-.768-.305-1.26c0-.79.26-1.377.773-1.76.517-.38 1.19-.573 2.016-.573.51 0 .964.044 1.363.13.398.084.72.192.965.325l-.367.933c-.184-.104-.447-.198-.788-.282a4.962 4.962 0 0 0-1.188-.127c-.552 0-.96.124-1.226.373-.266.25-.398.563-.398.94 0 .33.102.624.306.877.205.254.46.495.767.72.308.228.637.456.99.688.352.23.68.487.987.77.305.282.562.603.766.96.205.36.307.785.307 1.274 0 .83-.266 1.48-.797 1.952s-1.282.706-2.253.706c-.612 0-1.116-.05-1.51-.155a4.095 4.095 0 0 1-.942-.353l.4-.976zM74.81 20.56h-5.165v-9.898h1.15v8.924h4.015v.975z"/></g><path fill="#C7C8CA" d="M78.82 5.678h1.22v60.67h-1.22z"/></svg>