<svg xmlns="http://www.w3.org/2000/svg" width="98" height="72" viewBox="0 0 98 72"><title>b-icon_paytypes_pbank</title><rect width="98" height="72" fill="none"/><path d="M69.5,4.9A4.4813,4.4813,0,0,1,74,9.4V63.5A4.4813,4.4813,0,0,1,69.5,68h-41A4.6329,4.6329,0,0,1,24,63.4V19L37.9,4.9Z" fill="#06afc9"/><polygon points="24 19 36.4 17.8 24 30 24 19" fill="#3c3c3b" opacity="0.2" style="isolation:isolate"/><path d="M33.5,19H24L37.9,4.9v9.6A4.5965,4.5965,0,0,1,33.5,19Z" fill="#046b7a"/><path d="M53.35,41.3h-8v2.8h11.8a.7887.7887,0,0,1,.8.8v3a.7887.7887,0,0,1-.8.8H45.35v4.5a.7887.7887,0,0,1-.8.8h-3.8a.7887.7887,0,0,1-.8-.8V48.7h-5.2a.7887.7887,0,0,1-.8-.8v-3a.7887.7887,0,0,1,.8-.8h5.3V41.3h-5.3a.7887.7887,0,0,1-.8-.8V37a.7887.7887,0,0,1,.8-.8h5.3V21.5a.7887.7887,0,0,1,.8-.8h12.6c6.3,0,10.6,4.2,10.6,10.2S59.65,41.3,53.35,41.3Zm-.5-15.5h-7.5V36.3h7.5c3.3,0,5.5-2.1,5.5-5.3S56.15,25.8,52.85,25.8Z" fill="#fff"/></svg>