<svg xmlns="http://www.w3.org/2000/svg" width="98" height="72" viewBox="0 0 98 72"><title>b-icon_paytypes_cash</title><rect width="98" height="72" fill="none"/><rect x="34.6716" y="29.5491" width="56.2015" height="22.3006" transform="translate(-2.236 77.7226) rotate(-62.6201)" fill="#f9e8c7"/><circle cx="78.8679" cy="23.2893" r="2.8001" transform="translate(21.9171 82.6117) rotate(-62.6201)" fill="#9b857a"/><path d="M68.3653,26.113a70.3043,70.3043,0,0,0-8.6-3.9l-4.7,9a75.37,75.37,0,0,0,8.1,4.8,78.6344,78.6344,0,0,0,11.9,5l4.2-8.1A74.0281,74.0281,0,0,0,68.3653,26.113Z" fill="#d18f71"/><rect x="48.6368" y="31.9714" width="25.6007" height="22.3006" transform="translate(-5.1082 77.8453) rotate(-62.6201)" fill="#d18f71" opacity="0.63" style="isolation:isolate"/><path d="M63.0653,21.013l1.2-2.4a.67.67,0,0,1,.8-.3h0a.67.67,0,0,1,.3.8l-1.2,2.4a.67.67,0,0,1-.8.3h0A.63.63,0,0,1,63.0653,21.013Z" fill="#d18f71"/><path d="M64.7653,21.813l1.2-2.4a.67.67,0,0,1,.8-.3h0a.67.67,0,0,1,.3.8l-1.2,2.4a.67.67,0,0,1-.8.3h0A.5034.5034,0,0,1,64.7653,21.813Z" fill="#d18f71"/><polygon points="62.665 57.313 67.665 34.013 68.065 32.313 69.065 27.613 71.865 14.613 50.065 9.913 47.265 22.613 46.165 27.613 45.765 29.613 40.765 52.613 38.165 64.913 59.965 69.613 62.665 57.313" fill="#2b2928" opacity="0.2" style="isolation:isolate"/><rect x="25.6983" y="26.38" width="56.1998" height="22.2999" transform="matrix(0.1557, -0.9878, 0.9878, 0.1557, 8.3494, 84.8286)" fill="#f9e8c7"/><circle cx="63.5942" cy="15.9899" r="2.8" transform="translate(37.8976 76.319) rotate(-81.0426)" fill="#9b857a"/><path d="M54.4653,21.913a82.52,82.52,0,0,0-9.4-.9l-1.6,10.1a73.9741,73.9741,0,0,0,9.2,2,77.3144,77.3144,0,0,0,12.9,1l1.4-9A66.5512,66.5512,0,0,0,54.4653,21.913Z" fill="#d18f71"/><rect x="40.564" y="29.1199" width="25.5999" height="22.2999" transform="translate(5.2764 86.7129) rotate(-81.0426)" fill="#d18f71" opacity="0.63" style="isolation:isolate"/><path d="M47.8653,18.813l.5-2.6c.1-.3.4-.6.7-.5h0c.3,0,.5.3.5.7l-.4,2.6c-.1.3-.4.6-.7.5h0C48.0653,19.513,47.8653,19.213,47.8653,18.813Z" fill="#d18f71"/><path d="M49.6653,19.013l.4-2.6c.1-.3.4-.6.7-.5h0a.5764.5764,0,0,1,.6.6l-.4,2.6c-.1.3-.4.6-.7.5h0A.5764.5764,0,0,1,49.6653,19.013Z" fill="#d18f71"/><polygon points="58.265 53.713 56.165 29.913 56.065 28.213 55.565 23.513 54.465 10.213 32.165 12.113 33.365 25.113 33.765 30.113 33.965 32.213 36.065 55.613 37.065 68.213 59.365 66.213 58.265 53.713" fill="#2b2928" opacity="0.2" style="isolation:isolate"/><rect x="32.8061" y="9.3173" width="22.3005" height="56.2012" transform="translate(-4.9082 6.685) rotate(-8.2387)" fill="#f9e8c7"/><circle cx="46.9629" cy="13.9087" r="2.8001" transform="translate(-1.5084 6.8732) rotate(-8.2387)" fill="#9b857a"/><path d="M40.0653,22.313a76.2105,76.2105,0,0,0-9.3,1.9l1.5,10.1a81.3314,81.3314,0,0,0,9.4-.8,71.3727,71.3727,0,0,0,12.6-2.9l-1.3-9.1A75.4578,75.4578,0,0,0,40.0653,22.313Z" fill="#d18f71"/><rect x="33.2619" y="27.3071" width="22.3005" height="25.6005" transform="translate(-5.2889 6.778) rotate(-8.2387)" fill="#d18f71" opacity="0.63" style="isolation:isolate"/><path d="M32.8653,21.313l-.4-2.7a.752.752,0,0,1,.5-.7h0a.752.752,0,0,1,.7.5l.4,2.7a.752.752,0,0,1-.5.7h0C33.1653,21.813,32.8653,21.613,32.8653,21.313Z" fill="#d18f71"/><path d="M34.5653,20.913l-.4-2.7a.752.752,0,0,1,.5-.7h0a.752.752,0,0,1,.7.5l.4,2.7a.752.752,0,0,1-.5.7h0C34.9653,21.513,34.6653,21.213,34.5653,20.913Z" fill="#d18f71"/><polygon points="53.665 52.813 44.165 30.913 43.465 29.313 41.565 25.013 36.265 12.713 15.765 21.613 20.965 33.513 22.965 38.213 23.765 40.113 33.165 61.713 50.465 65.513 58.665 64.313 53.665 52.813" fill="#2b2928" opacity="0.2" style="isolation:isolate"/><rect x="23.8263" y="13.7836" width="22.3003" height="56.2009" transform="translate(-15.0746 20.1466) rotate(-26.6599)" fill="#f9e8c7"/><circle cx="30.3452" cy="18.6016" r="2.8" transform="translate(-5.1203 15.5933) rotate(-26.6599)" fill="#9b857a"/><path d="M26.4653,28.813a77.2811,77.2811,0,0,0-8.2,4.7l4.6,9.1a69.8727,69.8727,0,0,0,8.7-3.8,83.19,83.19,0,0,0,11.1-6.7l-4.1-8.2A71.4407,71.4407,0,0,0,26.4653,28.813Z" fill="#d18f71"/><rect x="25.0557" y="31.4993" width="22.3004" height="25.6004" transform="translate(-16.0277 20.955) rotate(-26.6599)" fill="#d18f71" opacity="0.63" style="isolation:isolate"/><path d="M19.2653,29.813l-1.6-3.2a.8408.8408,0,0,1,.4-1.1h0a.8408.8408,0,0,1,1.1.4l1.6,3.2a.8408.8408,0,0,1-.4,1.1h0A.8408.8408,0,0,1,19.2653,29.813Z" fill="#d18f71"/><path d="M21.9653,28.413l-1.6-3.2a.8408.8408,0,0,1,.4-1.1h0a.8408.8408,0,0,1,1.1.4l1.6,3.2a.8408.8408,0,0,1-.4,1.1h0A.8408.8408,0,0,1,21.9653,28.413Z" fill="#d18f71"/></svg>