<svg xmlns="http://www.w3.org/2000/svg" width="98" height="72" viewBox="0 0 98 72"><title>b-icon_paytypes_sbank-online</title><rect width="98" height="72" fill="none"/><path d="M71.4,20.05a16.9647,16.9647,0,0,0-1-1.4c-.2-.2-.3-.4-.5-.6l-.3-.3-31.4,18-15.1-8.8a14.62,14.62,0,0,0-.5,2c-.1.3-.1.6-.2.9l15.9,9.2Z" fill="#2c9e36"/><path d="M62.5,11.65a31.824,31.824,0,0,0-3.2-1.6l-21,12.1-9.4-5.4c-.6.8-1.3,1.5-1.8,2.3l11.3,6.5Z" fill="#2c9e36"/><path d="M67.6,15.45a23.1254,23.1254,0,0,0-2.4-2L38.3,28.95l-12.8-7.4c-.5.9-.9,1.7-1.3,2.6l14.2,8.2Z" fill="#2c9e36"/><path d="M25.6,48.55a26.894,26.894,0,0,0,7.7,8.4,25.8057,25.8057,0,0,0,6.8,3.5,20.2457,20.2457,0,0,0,3.3.9,39.34,39.34,0,0,0,4.8.6h1.5a24.5184,24.5184,0,0,0,2.7-.2,29.0212,29.0212,0,0,0,10.7-3.7,26.554,26.554,0,0,0,7.9-7.4,26.1787,26.1787,0,0,0,4.5-10.4l.3-1.5a23.0791,23.0791,0,0,0,.3-3.7v-.7a20.4139,20.4139,0,0,0-.3-3.4,23.3122,23.3122,0,0,0-2.7-8.2L38.3,42.55,22,33.15a6.602,6.602,0,0,0-.1,1.4,31.5339,31.5339,0,0,0,.4,5.3A26.1521,26.1521,0,0,0,25.6,48.55Z" fill="#2c9e36"/></svg>