<svg xmlns="http://www.w3.org/2000/svg" width="98" height="72" viewBox="0 0 98 72"><title>b-icon_paytypes_paypal</title><rect width="98" height="72" fill="none"/><path d="M61.6,52.1H56a.8485.8485,0,0,0-.8.7L53,67.1a.4724.4724,0,0,0,.5.5h2.9a.4724.4724,0,0,0,.5-.5l.6-4.1a.8485.8485,0,0,1,.8-.7H60c3.7,0,5.8-1.8,6.4-5.3a4.1919,4.1919,0,0,0-.7-3.6A5.7332,5.7332,0,0,0,61.6,52.1Zm.6,5.3c-.3,2-1.8,2-3.3,2h-.8l.6-3.8a.4575.4575,0,0,1,.5-.4h.4c1,0,2,0,2.5.6A2.6221,2.6221,0,0,1,62.2,57.4Z" fill="#009bde"/><path d="M21.6,52.1H16a.8485.8485,0,0,0-.8.7L13,67.1a.4724.4724,0,0,0,.5.5h2.7a.8485.8485,0,0,0,.8-.7l.6-3.9a.8485.8485,0,0,1,.8-.7h1.8c3.7,0,5.8-1.8,6.4-5.3a4.1919,4.1919,0,0,0-.7-3.6A6.6789,6.6789,0,0,0,21.6,52.1Zm.7,5.3c-.3,2-1.8,2-3.3,2h-.9l.6-3.8a.4575.4575,0,0,1,.5-.4h.4c1,0,2,0,2.5.6A2.4944,2.4944,0,0,1,22.3,57.4Z" fill="#002f87"/><path d="M38.4,57.3H35.7a.6644.6644,0,0,0-.5.4l-.1.7-.2-.3A4.0349,4.0349,0,0,0,31.7,57a6.1185,6.1185,0,0,0-6,5.4,4.7725,4.7725,0,0,0,1,4.1,4.12,4.12,0,0,0,3.4,1.4,5.1017,5.1017,0,0,0,3.7-1.5l-.1.7a.4724.4724,0,0,0,.5.5h2.4a.8485.8485,0,0,0,.8-.7l1.4-9.2C38.9,57.5,38.7,57.3,38.4,57.3Zm-3.8,5.2a3.0964,3.0964,0,0,1-3,2.6,2.4811,2.4811,0,0,1-1.8-.7,2.3724,2.3724,0,0,1-.4-1.9,3.0188,3.0188,0,0,1,3-2.6,2.481,2.481,0,0,1,1.8.7A2.1164,2.1164,0,0,1,34.6,62.5Z" fill="#002f87"/><path d="M78.3,57.3H75.6a.6644.6644,0,0,0-.5.4l-.1.7-.2-.3c-.5-.8-1.8-1.1-3.1-1.1a6.1185,6.1185,0,0,0-6,5.4,4.7725,4.7725,0,0,0,1,4.1,4.12,4.12,0,0,0,3.4,1.4,5.1017,5.1017,0,0,0,3.7-1.5l-.1.7a.4724.4724,0,0,0,.5.5h2.4a.8486.8486,0,0,0,.8-.7l1.4-9.2A.4575.4575,0,0,0,78.3,57.3Zm-3.7,5.2a3.0964,3.0964,0,0,1-3,2.6,2.4811,2.4811,0,0,1-1.8-.7,2.3724,2.3724,0,0,1-.4-1.9,3.0188,3.0188,0,0,1,3-2.6,2.481,2.481,0,0,1,1.8.7A2.9806,2.9806,0,0,1,74.6,62.5Z" fill="#009bde"/><path d="M52.7,57.3H50a.6047.6047,0,0,0-.6.3l-3.7,5.5L44,57.8a.8579.8579,0,0,0-.7-.6H40.7a.4406.4406,0,0,0-.4.6l3,8.7-2.8,3.9a.4489.4489,0,0,0,.4.7h2.7a.6047.6047,0,0,0,.6-.3L53,58A.4141.4141,0,0,0,52.7,57.3Z" fill="#002f87"/><path d="M81.5,52.5,79.2,67.1a.4724.4724,0,0,0,.5.5H82a.8486.8486,0,0,0,.8-.7L85,52.7a.4724.4724,0,0,0-.5-.5H81.9C81.7,52.1,81.5,52.3,81.5,52.5Z" fill="#009bde"/><path d="M65.093,12.1c.6-3.7,0-6.2-2-8.5-2.2-2.5-6.1-3.6-11.2-3.6h-14.8a2.2321,2.2321,0,0,0-2.1,1.8l-6.1,39a1.3165,1.3165,0,0,0,1.3,1.5h9.1l-.6,4a1.1087,1.1087,0,0,0,1.1,1.3h7.7a1.8313,1.8313,0,0,0,1.8-1.6l.1-.4,1.4-9.2.1-.5a1.8313,1.8313,0,0,1,1.8-1.6h1.1c7.4,0,13.3-3,15-11.8.7-3.7.3-6.7-1.5-8.8a5.9626,5.9626,0,0,0-2.2-1.6h0" fill="#009bde"/><path d="M65.093,12.1c.6-3.7,0-6.2-2-8.5-2.2-2.5-6.1-3.6-11.2-3.6h-14.8a2.2321,2.2321,0,0,0-2.1,1.8l-6.1,39a1.3165,1.3165,0,0,0,1.3,1.5h9.1l2.3-14.5-.1.5a2.148,2.148,0,0,1,2.1-1.8h4.3c8.5,0,15.2-3.5,17.1-13.4,0-.5.1-.8.1-1" fill="#022169"/><path d="M43.993,12.1a2.0675,2.0675,0,0,1,1-1.4,1.8839,1.8839,0,0,1,.8-.2h11.6a22.5256,22.5256,0,0,1,3.8.3c.3.1.7.1,1,.2s.6.1.9.2c.1,0,.3.1.4.1a7.7406,7.7406,0,0,1,1.6.7c.6-3.7,0-6.2-2-8.5-2.2-2.4-6.1-3.5-11.2-3.5h-14.8a2.2321,2.2321,0,0,0-2.1,1.8l-6.1,39a1.3165,1.3165,0,0,0,1.3,1.5h9.1l2.3-14.5Z" fill="#002f87"/></svg>