<svg xmlns="http://www.w3.org/2000/svg" width="98" height="72" viewBox="0 0 98 72"><title>b-icon_paytypes_bindings</title><rect width="98" height="72" fill="none"/><path d="M80,62H18a6.0176,6.0176,0,0,1-6-6V16a6.0176,6.0176,0,0,1,6-6H80a6.0176,6.0176,0,0,1,6,6V56A6.0176,6.0176,0,0,1,80,62Z" fill="#8c2e78"/><path d="M79.1,42.7h-14a2.0059,2.0059,0,0,1-2-2v-10a2.0059,2.0059,0,0,1,2-2h14a2.0059,2.0059,0,0,1,2,2v10A2.0059,2.0059,0,0,1,79.1,42.7Z" fill="#b53c9b"/><g opacity="0.2"><path d="M22.1,46.4V41.6L21,42.7l-.8-.8,2.1-2.1h1.2v6.7H22.1Z"/><path d="M24.6,46.4V45.3c2.7-2,3.5-2.7,3.5-3.5,0-.6-.5-.9-1.1-.9a2.3417,2.3417,0,0,0-1.8.8l-.8-.9A3.143,3.143,0,0,1,27,39.7a2.226,2.226,0,0,1,2.5,2.1c0,1.1-.9,2.1-2.7,3.4h2.7v1.2Z"/><path d="M30.3,45.5l.7-1a2.6885,2.6885,0,0,0,1.8.8c.8,0,1.3-.3,1.3-.8s-.4-.8-1.3-.8H32V42.4h.8c.7,0,1.2-.2,1.2-.7s-.5-.8-1.2-.8a2.342,2.342,0,0,0-1.7.7l-.7-.9a3.2723,3.2723,0,0,1,2.5-1.1c1.6,0,2.5.7,2.5,1.8a1.6124,1.6124,0,0,1-1.5,1.5,1.7181,1.7181,0,0,1,1.6,1.6c0,1.1-1,2-2.6,2A3.3,3.3,0,0,1,30.3,45.5Z"/><path d="M39.4,46.4V45H36.2V43.9l2.6-4.2h2v4h.9V45h-.9v1.4Zm0-5.4-1.8,2.8h1.8Z"/><path d="M45,45.5l.8-1a2.41,2.41,0,0,0,1.8.7c.8,0,1.2-.4,1.2-1s-.4-1-1.2-1a2.3893,2.3893,0,0,0-1.4.5l-1-.3V39.6h4.6V41H46.6v1.6a2.2915,2.2915,0,0,1,1.5-.6,2.0753,2.0753,0,0,1,2.1,2.2c0,1.4-1.1,2.3-2.7,2.3A3.04,3.04,0,0,1,45,45.5Z"/><path d="M51,43.1c0-2,1.1-3.4,3.1-3.4a3.2209,3.2209,0,0,1,2,.7l-.6,1.1a1.901,1.901,0,0,0-1.3-.5,1.74,1.74,0,0,0-1.7,1.9V43a2.3737,2.3737,0,0,1,1.7-.9,2.1785,2.1785,0,0,1,2.3,2.2A2.3169,2.3169,0,0,1,54,46.6C51.8,46.5,51,45,51,43.1Zm3.9,1.2c0-.7-.6-1-1.2-1a1.6125,1.6125,0,0,0-1.3.6c.1.6.4,1.3,1.3,1.3A.9517.9517,0,0,0,54.9,44.3Z"/><path d="M57.9,46.4,60.3,41H56.9V39.8h5v1l-2.5,5.7H57.9Z"/><path d="M62.5,44.7A1.9012,1.9012,0,0,1,63.9,43c-.7-.3-1.3-.7-1.3-1.6,0-1.3,1.3-1.8,2.6-1.8,1.2,0,2.6.5,2.6,1.8A1.81,1.81,0,0,1,66.5,43a1.9013,1.9013,0,0,1,1.4,1.7c0,1.2-1.3,1.8-2.7,1.8S62.5,45.9,62.5,44.7Zm3.9-.2c0-.6-.8-.8-1.2-.9-.4.1-1.2.3-1.2.9,0,.5.5.8,1.2.8S66.4,45,66.4,44.5Zm-.1-2.9c0-.5-.5-.8-1.1-.8-.7,0-1.1.3-1.1.8s.7.7,1.1.8C65.6,42.4,66.3,42.1,66.3,41.6Z"/></g><path d="M22.1,45.4V40.6L21,41.7l-.8-.8,2.1-2.1h1.2v6.7H22.1Z" fill="#fff"/><path d="M24.6,45.4V44.3c2.7-2,3.5-2.7,3.5-3.5,0-.6-.5-.9-1.1-.9a2.3417,2.3417,0,0,0-1.8.8l-.8-.9A3.143,3.143,0,0,1,27,38.7a2.226,2.226,0,0,1,2.5,2.1c0,1.1-.9,2.1-2.7,3.4h2.7v1.2Z" fill="#fff"/><path d="M30.3,44.5l.7-1a2.6885,2.6885,0,0,0,1.8.8c.8,0,1.3-.3,1.3-.8s-.4-.8-1.3-.8H32V41.4h.8c.7,0,1.2-.2,1.2-.7s-.5-.8-1.2-.8a2.342,2.342,0,0,0-1.7.7l-.7-.9a3.2723,3.2723,0,0,1,2.5-1.1c1.6,0,2.5.7,2.5,1.8a1.6124,1.6124,0,0,1-1.5,1.5,1.7181,1.7181,0,0,1,1.6,1.6c0,1.1-1,2-2.6,2A3.3,3.3,0,0,1,30.3,44.5Z" fill="#fff"/><path d="M39.4,45.4V44H36.2V42.9l2.6-4.2h2v4h.9V44h-.9v1.4Zm0-5.4-1.8,2.8h1.8Z" fill="#fff"/><path d="M45,44.5l.8-1a2.41,2.41,0,0,0,1.8.7c.8,0,1.2-.4,1.2-1s-.4-1-1.2-1a2.3893,2.3893,0,0,0-1.4.5l-1-.3V38.6h4.6V40H46.6v1.6a2.2915,2.2915,0,0,1,1.5-.6,2.0753,2.0753,0,0,1,2.1,2.2c0,1.4-1.1,2.3-2.7,2.3A3.04,3.04,0,0,1,45,44.5Z" fill="#fff"/><path d="M51,42.1c0-2,1.1-3.4,3.1-3.4a3.2209,3.2209,0,0,1,2,.7l-.6,1.1a1.901,1.901,0,0,0-1.3-.5,1.74,1.74,0,0,0-1.7,1.9V42a2.3737,2.3737,0,0,1,1.7-.9,2.1785,2.1785,0,0,1,2.3,2.2A2.3169,2.3169,0,0,1,54,45.6C51.8,45.5,51,44,51,42.1Zm3.9,1.2c0-.7-.6-1-1.2-1a1.6125,1.6125,0,0,0-1.3.6c.1.6.4,1.3,1.3,1.3A.9517.9517,0,0,0,54.9,43.3Z" fill="#fff"/><path d="M57.9,45.4,60.3,40H56.9V38.8h5v1l-2.5,5.7H57.9Z" fill="#fff"/><path d="M62.5,43.7A1.9012,1.9012,0,0,1,63.9,42c-.7-.3-1.3-.7-1.3-1.6,0-1.3,1.3-1.8,2.6-1.8,1.2,0,2.6.5,2.6,1.8A1.81,1.81,0,0,1,66.5,42a1.9013,1.9013,0,0,1,1.4,1.7c0,1.2-1.3,1.8-2.7,1.8S62.5,44.9,62.5,43.7Zm3.9-.2c0-.6-.8-.8-1.2-.9-.4.1-1.2.3-1.2.9,0,.5.5.8,1.2.8S66.4,44,66.4,43.5Zm-.1-2.9c0-.5-.5-.8-1.1-.8-.7,0-1.1.3-1.1.8s.7.7,1.1.8C65.6,41.4,66.3,41.1,66.3,40.6Z" fill="#fff"/><path d="M26,62H80a6.0176,6.0176,0,0,0,6-6V16a6.0176,6.0176,0,0,0-6-6H60.2Z" opacity="0.1" style="isolation:isolate"/><path d="M86,56V16a6.1028,6.1028,0,0,0-4.8-5.9L47,62H80A6.0176,6.0176,0,0,0,86,56Z" opacity="0.2" style="isolation:isolate"/></svg>