<svg xmlns="http://www.w3.org/2000/svg" width="98" height="72" viewBox="0 0 98 72"><title>b-icon_paytypes_prepay</title><rect width="98" height="72" fill="none"/><ellipse cx="38.4" cy="17.3" rx="16.4" ry="7.7" fill="#515151"/><path d="M38.4,49.6A31.0239,31.0239,0,0,1,23,45.9a4.49,4.49,0,0,0-1,2.7c0,4.3,7.3,7.7,16.4,7.7h1.3a7.267,7.267,0,0,1-.4-2.5,7.8713,7.8713,0,0,1,1.2-4.2Z" fill="#515151"/><path d="M59.6,55.7A31.0239,31.0239,0,0,1,44.2,52a4.49,4.49,0,0,0-1,2.7c0,4.3,7.3,7.7,16.4,7.7S76,58.8,76,54.6a5.0029,5.0029,0,0,0-1-2.7A30.7383,30.7383,0,0,1,59.6,55.7Z" fill="#515151"/><path d="M23.2,35.3A4.3587,4.3587,0,0,0,22,38.2c0,4.3,7.3,7.7,16.4,7.7h1.3a7.267,7.267,0,0,1-.4-2.5,7.5985,7.5985,0,0,1,1.5-4.5c-.8,0-1.5.1-2.3.1A30.3529,30.3529,0,0,1,23.2,35.3Z" fill="#515151"/><path d="M59.6,45.2a31.6047,31.6047,0,0,1-15.2-3.6,4.3587,4.3587,0,0,0-1.2,2.9c0,4.3,7.3,7.7,16.4,7.7S76,48.8,76,44.5a4.3587,4.3587,0,0,0-1.2-2.9C70.9,43.9,65.6,45.2,59.6,45.2Z" fill="#515151"/><path d="M38.4,35.3h1.3a7.267,7.267,0,0,1-.4-2.5,7.8713,7.8713,0,0,1,1.2-4.2c-.7,0-1.4.1-2.1.1A31.0239,31.0239,0,0,1,23,25a4.49,4.49,0,0,0-1,2.7C22,31.9,29.3,35.3,38.4,35.3Z" fill="#515151"/><ellipse cx="59.6" cy="33.9" rx="16.4" ry="7.7" fill="#515151"/></svg>