<svg xmlns="http://www.w3.org/2000/svg" width="98" height="72" viewBox="0 0 98 72"><title>b-icon_paytypes_osmp-purse</title><rect width="98" height="72" fill="none"/><path d="M65.6488,43.3848c-.6-.2-.6.5-.5.9a3.5986,3.5986,0,0,0,1.1,2c.3.2.7-.2.4-1.3A2.0395,2.0395,0,0,0,65.6488,43.3848Zm-4.4,1.9h-.2a1.1628,1.1628,0,0,0-1,.2,1.5892,1.5892,0,0,0-.2,2.3,2.5394,2.5394,0,0,0,1,.8h.2a1.1628,1.1628,0,0,0,1-.2,1.5892,1.5892,0,0,0,.2-2.3A1.8909,1.8909,0,0,0,61.2488,45.2848Zm15.8,16.1a18.2138,18.2138,0,0,0-7.7-7.6,25.1849,25.1849,0,0,0-3.4-1.5,56.7978,56.7978,0,0,0-7.6-1.5,14.2541,14.2541,0,0,1-5.9-2.6,10.3031,10.3031,0,0,1-2.5-2.6c-.1-.2-.8-1-.7-1.2a8.98,8.98,0,0,0,.4,4.3c-8.1-.4-15.1-4.8-18.4-10.3-6-10-3.9-22.1,4.1-27.4,7.9-5.3,20.1-1.6,26.6,8.1,4.1,6.1,5.1,13.1,3.4,18.8v.1a7.1355,7.1355,0,0,0-6.6-1.2c3.5-.4,6.2,2.4,6.2,2.4a11.985,11.985,0,0,1,1.1,1.2c.1.1.2.2.2.3a8.849,8.849,0,0,1,1.7,4c6.9-8.7,8-20.8,1.9-30.1-7.7-11.9-24.2-15-36.8-6.8-12.5,8.1-16.5,24.4-8.7,36.4,6.4,9.8,21.3,12.8,29.8,10.1a22.12,22.12,0,0,1,22,7.1,6.2613,6.2613,0,0,1,1,1.6.31.31,0,0,0,.4.2C77.6488,63.0848,77.8488,62.8848,77.0488,61.3848Z" fill="#e08b44"/></svg>