<svg xmlns="http://www.w3.org/2000/svg" width="98" height="72" viewBox="0 0 98 72"><title>b-icon_paytypes_WM</title><rect width="98" height="72" fill="none"/><path d="M48.9,9a27.603,27.603,0,0,1,11.8,2.7c.6.3,1.1.6,1.7.9l-2.5,2.2L56.2,11l-6.3,5.6-3.7-4.1L34.5,23.1,42,31.4,39,34l7.4,8.3-2.9,2.6L54,56.7l6.3-5.8,5.4,6.2c-1.1.8-2.3,1.6-3.5,2.4A26.98,26.98,0,1,1,48.9,9Z" fill="#4e79b8"/><polygon points="44 34.3 50.4 28.5 56.2 34.9 49.8 40.7 44 34.3" fill="#4e79b8"/><polygon points="48.5 45.4 54.9 39.6 60.7 46 54.3 51.8 48.5 45.4" fill="#4e79b8"/><polygon points="39.4 23.3 45.8 17.5 51.6 24 45.2 29.7 39.4 23.3" fill="#4e79b8"/><polygon points="51.2 20.2 56 15.9 60.3 20.7 55.5 25 51.2 20.2" fill="#4e79b8"/><polygon points="59.7 40.1 64.5 35.7 68.8 40.6 64 44.9 59.7 40.1" fill="#4e79b8"/><polygon points="63.9 49.8 68.7 45.5 73 50.3 68.2 54.6 63.9 49.8" fill="#4e79b8"/><polygon points="65.8 27.5 69 24.6 71.9 27.8 68.7 30.7 65.8 27.5" fill="#4e79b8"/><polygon points="61.7 18 64.9 15.1 67.8 18.3 64.6 21.2 61.7 18" fill="#4e79b8"/><polygon points="69.9 37 73.1 34.2 76 37.4 72.8 40.3 69.9 37" fill="#4e79b8"/><polygon points="55.6 29.9 60.4 25.6 64.7 30.4 59.9 34.7 55.6 29.9" fill="#4e79b8"/></svg>