<svg xmlns="http://www.w3.org/2000/svg" width="98" height="72" viewBox="0 0 98 72"><title>b-icon_paytypes_euroset</title><rect width="98" height="72" fill="none"/><path d="M65.724,43.4v1.4h4.3a1.4987,1.4987,0,0,1,1.6,1.5,1.4462,1.4462,0,0,1-1.6,1.5h-5.8a1.68,1.68,0,0,1-1.8-1.8V37.9a1.68,1.68,0,0,1,1.8-1.8h5.8a1.5031,1.5031,0,1,1,0,3h-4.2v1.3h3.5a1.4,1.4,0,1,1,0,2.8h-3A.8454.8454,0,0,1,65.724,43.4Z" fill="#050608"/><path d="M8.124,43.4v1.4h4.3a1.4987,1.4987,0,0,1,1.6,1.5,1.4172,1.4172,0,0,1-1.5,1.5h-5.9a1.6055,1.6055,0,0,1-1.7-1.8V37.8a1.6275,1.6275,0,0,1,1.7-1.7h5.9a1.5,1.5,0,1,1,0,3h-4.3v1.3h3.3a1.394,1.394,0,0,1,1.5,1.4,1.3415,1.3415,0,0,1-1.5,1.4h-2.8A.8454.8454,0,0,1,8.124,43.4Z" fill="#050608"/><path d="M56.824,48a6.19,6.19,0,0,1-6.1-4.3,6.0374,6.0374,0,0,1,5.2-7.6,6.9766,6.9766,0,0,1,4,.7,1.8281,1.8281,0,0,1,1,1.8,1.6522,1.6522,0,0,1-2.4,1.2,10.3746,10.3746,0,0,0-1-.4,2.7546,2.7546,0,0,0-3,1,3.0149,3.0149,0,0,0,0,3.4,2.813,2.813,0,0,0,3,1c.3-.1.6-.3.9-.4a1.6487,1.6487,0,0,1,2.2.5,1.6829,1.6829,0,0,1-.6,2.3A5.4523,5.4523,0,0,1,56.824,48Z" fill="#050608"/><path d="M75.924,39.2h-2a1.5031,1.5031,0,1,1,0-3h7.4a1.5031,1.5031,0,1,1,0,3h-1.9v7a1.7028,1.7028,0,1,1-3.4,0V39.9A1.4827,1.4827,0,0,1,75.924,39.2Z" fill="#050608"/><path d="M47.624,37.7a6.4027,6.4027,0,0,0-5.6-1.6,5.93,5.93,0,0,0-5,7.4,6.1109,6.1109,0,0,0,6.2,4.5c.5-.1.9-.1,1.4-.2a5.5511,5.5511,0,0,0,4.6-4.2A5.739,5.739,0,0,0,47.624,37.7Zm-4.5,7.1a2.8,2.8,0,0,1,0-5.6,2.6533,2.6533,0,0,1,2.7,2.8A2.5981,2.5981,0,0,1,43.124,44.8Z" fill="#050608"/><path d="M24.124,42.2a3.4579,3.4579,0,0,0-1.2-.7,2.6808,2.6808,0,0,0,1.3-2.9,2.5448,2.5448,0,0,0-2.2-2.1,1.7018,1.7018,0,0,0-.7-.1c-1.5,0-3.1-.1-4.6-.1a1.6052,1.6052,0,0,0-1.6,1.7v8.2a1.6055,1.6055,0,0,0,1.8,1.7h3.8a4.5918,4.5918,0,0,0,2.8-.8C25.124,45.9,25.424,43.4,24.124,42.2Zm-5.6-3.2h1.6c.5.1.8.4.8.8a.9625.9625,0,0,1-.7,1h-1.7Zm2.1,6.1h-2.1V43h2.1c.6,0,.9.5.9,1.1S21.224,45.1,20.624,45.1Z" fill="#050608"/><path d="M36.024,39.9a4.0258,4.0258,0,0,0-4-3.7c-1.4-.1-2.8,0-4.2,0a1.58,1.58,0,0,0-1.6,1.6v8.6a1.6508,1.6508,0,0,0,3.3-.1V44.7h2a9.8525,9.8525,0,0,0,1.7-.2A4.3055,4.3055,0,0,0,36.024,39.9Zm-3.4.8a1.1313,1.1313,0,0,1-1.2,1.1h-1.8V39.1a14.7188,14.7188,0,0,1,2.1,0C32.324,39.2,32.724,39.8,32.624,40.7Z" fill="#050608"/><path d="M92.824,42.4a3.662,3.662,0,0,0-3.6-2.6h-2.2V37.7a1.6275,1.6275,0,0,0-1.7-1.7,1.6855,1.6855,0,0,0-1.7,1.7v8.4a1.6275,1.6275,0,0,0,1.7,1.7h3.8a3.75,3.75,0,0,0,2.5-.8A4.2028,4.2028,0,0,0,92.824,42.4Zm-4,2.5h-1.9V42.5h1.9a1.0481,1.0481,0,0,1,.9,1.2A.9375.9375,0,0,1,88.824,44.9Z" fill="#050608"/></svg>