<svg xmlns="http://www.w3.org/2000/svg" width="98" height="72" viewBox="0 0 98 72"><title>b-icon_paytypes_alfaclick-paybyclick</title><rect width="98" height="72" fill="none"/><path d="M49,4c4.4,0,5.7,3.1,6.9,6.2.5,1.3,11.8,32.3,12.1,33.2a.5971.5971,0,0,1-.4.8c-.4.2-6.3,2.4-6.6,2.6a.68.68,0,0,1-.8-.4c-.1-.3-2.6-7.1-2.8-7.8H40.6c-.3.8-2.7,7.5-2.9,7.8a.68.68,0,0,1-.8.4c-.3-.1-6.3-2.4-6.6-2.6a.68.68,0,0,1-.4-.8c.5-1.1,11.7-31.6,12.3-33.2C43.3,7.2,44.7,4,49,4ZM29.1,59.5a.6687.6687,0,0,0-.6.7v7.2a.6452.6452,0,0,0,.6.6H68.9a.6687.6687,0,0,0,.6-.7V60.1a.6687.6687,0,0,0-.6-.7H29.1M49,14.1l-5.7,17H54.7L49,14.1Z" fill="#e52713"/></svg>