<svg xmlns="http://www.w3.org/2000/svg" width="98" height="72" viewBox="0 0 98 72"><title>b-icon_paytypes_bankforeign</title><rect width="98" height="72" fill="none"/><path d="M69.5,4.9A4.4813,4.4813,0,0,1,74,9.4V63.5A4.4813,4.4813,0,0,1,69.5,68h-41A4.6329,4.6329,0,0,1,24,63.4V19L37.9,4.9Z" fill="#06c98c"/><polygon points="24 19 36.4 17.8 24 30 24 19" fill="#3c3c3b" opacity="0.2" style="isolation:isolate"/><path d="M33.5,19H24L37.9,4.9v9.6A4.5965,4.5965,0,0,1,33.5,19Z" fill="#04875e"/><path d="M60.8373,52.2a.7155.7155,0,0,1-.5.9,18.1487,18.1487,0,0,1-5.1.8,15.3761,15.3761,0,0,1-15.2-11.3h-2.1a.86.86,0,0,1-.8-.8V39.2a.7887.7887,0,0,1,.8-.8h1.5V35.9h-1.5a.7887.7887,0,0,1-.8-.8V32.4a.7887.7887,0,0,1,.8-.8h2.3a15.6061,15.6061,0,0,1,15.1-10.9,21.8255,21.8255,0,0,1,4.5.5.6644.6644,0,0,1,.5.4,1.2684,1.2684,0,0,1,.1.6l-1,3.7a.7155.7155,0,0,1-.9.5,15.4466,15.4466,0,0,0-3.3-.4,9.4455,9.4455,0,0,0-8.8,5.6h11a.8643.8643,0,0,1,.6.3,1.4213,1.4213,0,0,1,.2.6l-.6,2.7a.76.76,0,0,1-.8.6h-11.5a20.7772,20.7772,0,0,0,0,2.5h10.8a.8643.8643,0,0,1,.6.3.6613.6613,0,0,1,.1.6l-.5,2.7a.73.73,0,0,1-.7.6h-9.1a9.4374,9.4374,0,0,0,8.9,6,12.4283,12.4283,0,0,0,3.7-.6c.2-.1.4,0,.6,0a.9984.9984,0,0,1,.4.5Z" fill="#fff"/></svg>