<svg xmlns="http://www.w3.org/2000/svg" width="98" height="72" viewBox="0 0 98 72"><title>b-icon_paytypes_WMbill</title><rect width="98" height="72" fill="none"/><path d="M69.5,4.9A4.4813,4.4813,0,0,1,74,9.4V63.5A4.4813,4.4813,0,0,1,69.5,68h-41A4.6329,4.6329,0,0,1,24,63.4V19L37.9,4.9Z" fill="#4e79b8"/><polygon points="24 19 36.4 17.8 24 30 24 19" fill="#3c3c3b" opacity="0.2" style="isolation:isolate"/><path d="M33.5,19H24L37.9,4.9v9.6A4.5965,4.5965,0,0,1,33.5,19Z" fill="#7bb1e0"/><path d="M50.3,19.6a19.057,19.057,0,0,1,7.9,1.8c.4.2.7.4,1.1.6l-1.7,1.5-2.5-2.6L51,24.7l-2.5-2.8L40.7,29l5,5.5-2,1.7,4.9,5.5-2,1.7,7,7.9,4.2-3.9,3.6,4.1A14.31,14.31,0,0,1,59,53.1a17.4994,17.4994,0,0,1-8.8,2.3,17.9,17.9,0,1,1,.1-35.8Z" fill="#fff"/><polygon points="47 36.4 51.3 32.6 55.1 36.9 50.9 40.7 47 36.4" fill="#fff"/><polygon points="50.1 43.8 54.3 40 58.2 44.3 53.9 48.1 50.1 43.8" fill="#fff"/><polygon points="44 29.1 48.2 25.3 52.1 29.6 47.8 33.4 44 29.1" fill="#fff"/><polygon points="51.8 27.1 55 24.2 57.9 27.4 54.7 30.3 51.8 27.1" fill="#fff"/><polygon points="57.5 40.3 60.7 37.4 63.6 40.6 60.4 43.5 57.5 40.3" fill="#fff"/><polygon points="60.3 46.8 63.5 43.9 66.4 47.1 63.2 50 60.3 46.8" fill="#fff"/><polygon points="61.6 31.9 63.7 30 65.6 32.1 63.5 34.1 61.6 31.9" fill="#fff"/><polygon points="58.9 25.6 61 23.6 62.9 25.8 60.8 27.7 58.9 25.6" fill="#fff"/><polygon points="64.3 38.3 66.5 36.4 68.4 38.5 66.2 40.4 64.3 38.3" fill="#fff"/><polygon points="54.8 33.5 58 30.6 60.8 33.8 57.6 36.7 54.8 33.5" fill="#fff"/></svg>