<svg xmlns="http://www.w3.org/2000/svg" width="98" height="72" viewBox="0 0 98 72"><title>b-icon_paytypes_rbkmoney</title><rect width="98" height="72" fill="none"/><path d="M38.3,18.25a7.17,7.17,0,0,0-7.2-7.2,7.0859,7.0859,0,0,0-7.1,7.2v17.4a7.2,7.2,0,1,0,14.4,0V18.25Z" fill="#585551"/><path d="M56.1,35.95a7.2,7.2,0,0,0-14.4,0v17.8a7.2,7.2,0,0,0,14.4,0Z" fill="#81b05c"/><path d="M74,18.25a7.2,7.2,0,0,0-14.4,0v35.5a7.2,7.2,0,0,0,14.4,0Z" fill="#81b05c"/><circle cx="31.2" cy="53.75" r="7.2" fill="#81b05c"/><path d="M56.1,18.25a7.2,7.2,0,0,0-14.4,0v.2a7.2,7.2,0,0,0,14.4,0Z" fill="#585551"/></svg>