<svg xmlns="http://www.w3.org/2000/svg" width="98" height="72" viewBox="0 0 98 72"><title>b-icon_paytypes_osmp-mobile</title><rect width="98" height="72" fill="none"/><path d="M54.1,60.2a4.6529,4.6529,0,0,1-4.6,4.6H27.6A4.6529,4.6529,0,0,1,23,60.2V11.6A4.6529,4.6529,0,0,1,27.6,7H49.5a4.5877,4.5877,0,0,1,4.6,4.6Z" fill="#5b5b5b"/><rect x="26" y="14.9" width="25.1" height="42" fill="#00ce93"/><circle cx="38.6" cy="60.8" r="2.2" fill="#fff"/><circle cx="60.3" cy="34.8" r="20.7" fill="#0084fd"/><polygon points="42 42.4 51.1 51.6 38.6 54.9 42 42.4" fill="#0084fd"/><path d="M63.9,38.1H57.8v2.1h9.1a.6452.6452,0,0,1,.6.6v2.3a.6452.6452,0,0,1-.6.6H57.8v3.5a.6452.6452,0,0,1-.6.6h-3a.6452.6452,0,0,1-.6-.6V43.7h-4a.6452.6452,0,0,1-.6-.6V40.8a.6452.6452,0,0,1,.6-.6h4V38.1h-4a.6452.6452,0,0,1-.6-.6V34.8a.6452.6452,0,0,1,.6-.6h4V23a.6452.6452,0,0,1,.6-.6h9.7c4.8,0,8.1,3.2,8.1,7.9C72,34.9,68.7,38.1,63.9,38.1Zm-.4-11.9H57.7v8.1h5.8a3.8872,3.8872,0,0,0,4.2-4C67.8,27.8,66.1,26.2,63.5,26.2Z" fill="#fff"/><path d="M74.1,19.3,38.6,54.7l-.1.2L49,52.2A20.7672,20.7672,0,0,0,81,34.8,20.83,20.83,0,0,0,74.1,19.3Z" fill="#060000" opacity="0.2" style="isolation:isolate"/></svg>