<?xml version="1.0" encoding="utf-8"?>
<!-- Generator: Adobe Illustrator 21.0.2, SVG Export Plug-In . SVG Version: 6.00 Build 0)  -->
<svg version="1.1" baseProfile="basic" id="Слой_1"
	 xmlns="http://www.w3.org/2000/svg" xmlns:xlink="http://www.w3.org/1999/xlink" x="0px" y="0px" width="74px" height="88px"
	 viewBox="0 0 74 88" xml:space="preserve">
<g id="Layer_1">
</g>
<g id="Layer_1_1_">
</g>
<path fill="#B83C9D" d="M68,52H6c-3.3,0-6-2.7-6-6V6c0-3.3,2.7-6,6-6h62c3.3,0,6,2.7,6,6v40C74,49.3,71.3,52,68,52z"/>
<rect y="11" fill="#333333" width="74" height="14"/>
<path opacity="0.1" d="M14,52h54c3.3,0,6-2.7,6-6V6c0-3.3-2.7-6-6-6H48.2L14,52z"/>
<path opacity="0.2" d="M74,46V6c0-2.9-2.1-5.3-4.8-5.9L35,52h33C71.3,52,74,49.3,74,46z"/>
<g opacity="0.5">
	<path fill="#FFFFFF" d="M46.5,12.7c-13.3,0-24,10.8-24,24s10.8,24,24,24s24-10.8,24-24S59.8,12.7,46.5,12.7z M46.5,55.8
		c-10.5,0-19.1-8.5-19.1-19.1c0.1-10.6,8.6-19.1,19.1-19.1s19.1,8.5,19.1,19.1C65.6,47.2,57.1,55.8,46.5,55.8z"/>
	<path fill="#FFFFFF" d="M46.5,22.6c-7.8,0-14.2,6.4-14.2,14.2s6.4,14.2,14.2,14.2s14.2-6.4,14.2-14.2S54.3,22.6,46.5,22.6z
		 M46.5,45.2c-4.6,0-8.4-3.8-8.4-8.4s3.8-8.4,8.4-8.4s8.4,3.8,8.4,8.4S51.1,45.2,46.5,45.2z"/>
</g>
<path opacity="0.2" d="M42.7,41v38.5c0,0,8.3-9.1,8.3-8.8c0.1,0.3,6.2,16.6,6.2,16.6l4.4-1.8l-6.3-16.1l11.8,0.8L42.7,41z"/>
<path fill="#FFCC03" d="M46.2,35.3v38.5c0,0,8.3-9.1,8.3-8.8c0.1,0.3,6.2,16.6,6.2,16.6l4.4-1.8l-6.3-16.1l11.8,0.8L46.2,35.3z"/>
</svg>
