<svg xmlns="http://www.w3.org/2000/svg" width="98" height="72" viewBox="0 0 98 72"><title>b-icon_paytypes_rapida</title><rect width="98" height="72" fill="none"/><path d="M80.854,9.25c-8.8-7.5-26.1-1.7-38.7,13.1s-15.6,32.8-6.8,40.4c8.8,7.5,26.2,1.7,38.8-13.1C86.654,34.85,89.754,16.75,80.854,9.25Zm-7.6,39.6c-8.4,9.9-19.2,16-28.2,16a13.4011,13.4011,0,0,1-9-3c-8.4-7.1-5.2-24.5,6.9-38.8,8.4-9.8,19.2-16,28.2-16a13.4011,13.4011,0,0,1,9,3C88.554,17.25,85.454,34.65,73.254,48.85Z" fill="#0a4595"/><polygon points="26.954 28.25 28.054 24.35 76.254 24.35 75.054 28.25 26.954 28.25" fill="#f46721"/><polygon points="12.054 35.95 13.154 32.05 61.254 32.05 60.154 35.95 12.054 35.95" fill="#f46721"/><polygon points="17.554 43.65 18.654 39.85 66.854 39.85 65.654 43.65 17.554 43.65" fill="#f46721"/></svg>