<svg xmlns="http://www.w3.org/2000/svg" width="15.405" height="72" viewBox="0 0 15.405 72"><path fill="#45D300" d="M0 0h15.405v72H0z"/><g fill="#FFF"><path d="M10.377 67.08H5.773v-2.152c0-1 .676-1.547 1.483-1.547.8 0 1.484.554 1.484 1.548V66.1h1.636v.98zm-3.12-2.698c-.386 0-.62.29-.62.678v1.04H7.88v-1.04c0-.387-.243-.678-.623-.678zM10.377 61.74H5.773v-3.255h.863v2.276h.973v-2.228h.862v2.23h1.042v-2.277h.862v3.256zM10.377 53.953l-1.843 1.395.428.358h1.415v.98H5.773v-.98H7.83l-2.057-1.628v-1.21l2.16 1.83 2.443-1.952v1.207zM8.08 51.81c-1.39 0-2.383-1.014-2.383-2.4 0-1.396.994-2.41 2.382-2.41 1.386 0 2.38 1.015 2.38 2.41 0 1.386-.994 2.4-2.38 2.4zm0-3.802c-.864 0-1.513.552-1.513 1.4 0 .85.648 1.395 1.512 1.395.854 0 1.51-.545 1.51-1.394 0-.85-.655-1.402-1.51-1.402zM10.377 41.274H7.154l3.223 1.3V43l-3.223 1.297h3.223v.98H5.773v-1.373l2.782-1.118-2.782-1.118v-1.38h4.604v.986zM10.377 38.346H5.773v-3.258h.863v2.278h.973v-2.23h.862v2.23h1.042v-2.278h.862v3.258zM10.377 30.136H8.444v2.174h1.933v.98H5.773v-.98H7.58v-2.174H5.774v-.986h4.604v.986zM9.59 27.49c-.062-.47-.248-.732-1.463-.878l-2.354-.27v-3.27h3.74v-.414h1.712v.98h-.85v2.87h.85v.98H9.59zm-.075-1.29v-2.142H6.637v1.4l1.56.18c.62.07 1.048.27 1.318.56zM10.13 21.475l-.788-.372c.13-.16.248-.373.248-.595 0-.338-.138-.488-.476-.67l-3.34 1.7v-1.113l2.442-1.138-2.443-1.146v-1.11l3.72 1.898c.56.283.967.684.967 1.505 0 .42-.146.836-.33 1.042zM10.377 15.57H5.773v-3.257h.863v2.276h.973v-2.23h.862v2.23h1.042v-2.277h.862v3.256zM10.377 6.512H7.154l3.223 1.298v.428L7.154 9.534h3.223v.98H5.773V9.14l2.782-1.118-2.782-1.12v-1.38h4.604v.988z"/></g></svg>