<svg xmlns="http://www.w3.org/2000/svg" viewBox="-103 -7500 47.999 48">
  <defs>
    <style>
      .cls-1 {
        fill: #974f9e;
      }
    </style>
  </defs>
  <g id="b-icon_regpanel_own-plans" transform="translate(-103 -7500)">
    <g id="Group_400" data-name="Group 400">
      <path id="Path_1590" data-name="Path 1590" class="cls-1" d="M40.037,4.285a3.682,3.682,0,0,1,3.677,3.677V40.036a3.681,3.681,0,0,1-3.677,3.678H7.962a3.681,3.681,0,0,1-3.677-3.678V7.963A3.681,3.681,0,0,1,7.962,4.286H40.037m0-4.286H7.962A7.963,7.963,0,0,0,0,7.963V40.037A7.963,7.963,0,0,0,7.962,48H40.037A7.962,7.962,0,0,0,48,40.037V7.963A7.962,7.962,0,0,0,40.037,0Z"/>
      <path id="Path_1591" data-name="Path 1591" class="cls-1" d="M26.048,11.786,30.4,20.611l9.74,1.415L33.1,28.9l1.665,9.7-8.712-4.58L17.336,38.6,19,28.9l-7.049-6.87,9.74-1.415Z" transform="translate(-2.049 -2.02)"/>
    </g>
  </g>
</svg>
