<svg xmlns="http://www.w3.org/2000/svg" viewBox="-601 -8415 24 24">
  <defs>
    <style>
      .cls-1 {
        fill: none;
      }

      .cls-2 {
        fill: #fff;
      }
    </style>
  </defs>
  <g id="CloudVPS" transform="translate(-601 -8415)">
    <rect id="Rectangle_2023" data-name="Rectangle 2023" class="cls-1" width="24" height="24"/>
    <rect id="Rectangle_2024" data-name="Rectangle 2024" class="cls-2" width="2.2" height="6.7" transform="translate(10.8 13)"/>
    <rect id="Rectangle_2025" data-name="Rectangle 2025" class="cls-2" width="19.8" height="2.2" transform="translate(2 18.6)"/>
    <circle id="Ellipse_414" data-name="Ellipse 414" class="cls-2" cx="3.3" cy="3.3" r="3.3" transform="translate(8.6 16.4)"/>
    <path id="Path_1605" data-name="Path 1605" class="cls-2" d="M19.6,1H4.2A2.161,2.161,0,0,0,2,3.2V12a2.161,2.161,0,0,0,2.2,2.2H19.6A2.161,2.161,0,0,0,21.8,12V3.2A2.161,2.161,0,0,0,19.6,1ZM18.167,12.06H7.383A3.471,3.471,0,0,1,4,8.506,3.472,3.472,0,0,1,7.383,4.952,3.26,3.26,0,0,1,7.949,5a4.22,4.22,0,0,1,3.564-2.016A4.435,4.435,0,0,1,15.7,6.166c.079-.006.061-.023.142-.023a2.841,2.841,0,0,1,2.7,2.106A1.9,1.9,0,0,1,20,10.135a1.881,1.881,0,0,1-1.833,1.925Z"/>
  </g>
</svg>
