<svg xmlns="http://www.w3.org/2000/svg" viewBox="-103 -7375 48 46.271">
  <defs>
    <style>
      .cls-1 {
        fill: #ffc245;
      }
    </style>
  </defs>
  <g id="b-icon_wix_feature-social" transform="translate(-103 -7375)">
    <g id="Group_401" data-name="Group 401" transform="translate(-0.001 0.001)">
      <path id="Path_1592" data-name="Path 1592" class="cls-1" d="M6.154,12.057a2.9,2.9,0,0,1,2.9-2.9H39.153l-1.816-7.26A2.5,2.5,0,0,0,34.308.076L1.892,8.185a2.5,2.5,0,0,0-1.817,3.03L5.886,34.442a2.485,2.485,0,0,0,.267.635V12.057Z" transform="translate(0.001 -0.001)"/>
      <path id="Path_1593" data-name="Path 1593" class="cls-1" d="M47.26,14.065H13.013a2.5,2.5,0,0,0-2.5,2.5V40.5a2.5,2.5,0,0,0,2.5,2.5h8.3l5.209,5.621L31.728,43H47.26a2.5,2.5,0,0,0,2.5-2.5V16.563A2.5,2.5,0,0,0,47.26,14.065ZM46.245,39.228H30.809L26.52,43.857,22.23,39.228h-8.2V17.842H46.246V39.228Z" transform="translate(-1.758 -2.353)"/>
    </g>
  </g>
</svg>
