<svg xmlns="http://www.w3.org/2000/svg" viewBox="486 -5949 36 40"><defs><style>.a{fill:none;}.b{fill:#cecece;}</style></defs><g transform="translate(486 -5949)"><rect class="a" width="36" height="40"/><path class="b" d="M32.663,2H3.337A3.334,3.334,0,0,0,0,5.337V34.129a3.334,3.334,0,0,0,3.337,3.337H32.663A3.334,3.334,0,0,0,36,34.129V5.337A3.334,3.334,0,0,0,32.663,2ZM4.566,8.673A2.107,2.107,0,1,1,6.673,6.566,2.107,2.107,0,0,1,4.566,8.673ZM21.626,26.05v8.386a17.556,17.556,0,0,1-6.837.079V26.248A8,8,0,0,1,13.988,12v8.366h8.024V12a8,8,0,0,1-.386,14.05ZM31.259,8.5h-20.9a1.993,1.993,0,0,1-1.93-2.11,1.993,1.993,0,0,1,1.932-2.107h20.9A2.109,2.109,0,0,1,33.19,6.39,1.993,1.993,0,0,1,31.259,8.5Z"/></g></svg>