<svg xmlns="http://www.w3.org/2000/svg" viewBox="-103 -7740 48 48">
  <defs>
    <style>
      .cls-1 {
        fill: #ff9d03;
      }

      .cls-2 {
        fill: #fff;
      }
    </style>
  </defs>
  <g id="b-reselling-program__icon_type_tariffs" transform="translate(-103 -7740)">
    <g id="Group_398" data-name="Group 398">
      <path id="Path_1585" data-name="Path 1585" class="cls-1" d="M24,0A24,24,0,1,0,48,24,24,24,0,0,0,24,0Zm0,45.857A21.857,21.857,0,1,1,45.857,24,21.857,21.857,0,0,1,24,45.857Z"/>
      <circle id="Ellipse_378" data-name="Ellipse 378" class="cls-1" cx="19.672" cy="19.672" r="19.672" transform="translate(4.328 4.328)"/>
    </g>
    <path id="Path_1586" data-name="Path 1586" class="cls-2" d="M32.684,32.764l-6.109,0-.005,2.135,9,.051a.609.609,0,0,1,.609.629l-.023,2.305a.609.609,0,0,1-.629.609l-9-.051v3.444a.609.609,0,0,1-.629.609h-2.91a.609.609,0,0,1-.609-.629V38.417H18.4a.609.609,0,0,1-.609-.629l.023-2.305a.609.609,0,0,1,.629-.609l4.027.022.005-2.135-4.027-.022a.609.609,0,0,1-.609-.629l.007-2.668a.609.609,0,0,1,.629-.609l4.027.022.025-11.2a.609.609,0,0,1,.629-.609l9.605.025c4.8.013,8.068,3.2,8.045,7.757A7.69,7.69,0,0,1,32.684,32.764Zm-.36-11.794h-5.7L26.6,28.975h5.7c2.5-.01,4.2-1.563,4.169-4.011.039-2.478-1.6-3.985-4.149-4Z" transform="translate(-5.592 -5.356)"/>
  </g>
</svg>
