<svg xmlns="http://www.w3.org/2000/svg" width="151.406" height="60.407" viewBox="0 0 151.406 60.407"><path fill="#C6C5C5" d="M34.173 58.09l-29.73 2.317L0 15.523l2.363-.185c1.302-.102 2.255-1.304 2.12-2.672l-.23-2.312A2.444 2.444 0 0 1 6.5 7.67l16.4-1.274a2.57 2.57 0 0 1 2.74 2.292L25.866 11l.247 2.49 8.405-.656 31.083.477 3.104 37.554-5.656 4.977-28.877 2.25z"/><path fill="#066BC6" d="M45.646 0L8.576 19.286l-3.98 41.12 36.918-2.898 20.76-1.63 13.27-1.043 3.976-41.118z"/><path fill="#FFF" d="M28.32 43.706l-4.228-6.89h-3.44v6.89h-4.126V24.32h9.068c4.04 0 6.51 2.645 6.51 6.248 0 3.43-1.733 5.26-3.825 5.755l4.776 7.382H28.32zm-.43-13.138c0-1.626-1.25-2.615-2.905-2.615h-4.33v5.23h4.33c1.655.002 2.906-.987 2.906-2.615zM35.634 43.706V24.32h13.72v3.633H39.76v4.098h8.555v3.633H39.76v4.39h9.593v3.632h-13.72zM51.65 34.027C51.65 27.895 56.3 24 61.97 24c4.04 0 6.567 2.035 8.02 4.332l-3.43 1.86c-.87-1.367-2.527-2.53-4.59-2.53-3.52 0-6.076 2.704-6.076 6.365 0 3.663 2.558 6.366 6.075 6.366 1.714 0 3.343-.757 4.126-1.484v-2.07H60.98v-3.656h9.24v7.237c-1.974 2.21-4.735 3.663-8.252 3.663-5.667 0-10.318-3.952-10.318-10.056z"/><g><path d="M80.278 41.647c0-1.278 1.074-2.35 2.353-2.35 1.277 0 2.35 1.072 2.35 2.35 0 1.277-1.072 2.35-2.35 2.35-1.277 0-2.352-1.073-2.352-2.35zM87.334 34.012c0-5.95 4.5-10.015 10.305-10.015 4.266 0 6.734 2.322 8.098 4.73l-3.54 1.743c-.813-1.567-2.556-2.815-4.56-2.815-3.512 0-6.064 2.7-6.064 6.357 0 3.658 2.553 6.356 6.065 6.356 2.002 0 3.744-1.22 4.557-2.815l3.54 1.713c-1.393 2.41-3.83 4.76-8.098 4.76-5.807 0-10.306-4.063-10.306-10.014zM107.28 34.012c0-5.835 4.267-10.015 10.102-10.015 5.862 0 10.13 4.18 10.13 10.015 0 5.834-4.268 10.015-10.13 10.015-5.835 0-10.102-4.18-10.102-10.015zm15.994 0c0-3.628-2.322-6.357-5.893-6.357-3.57 0-5.862 2.73-5.862 6.357 0 3.6 2.292 6.356 5.863 6.356 3.572 0 5.894-2.757 5.894-6.356zM147.256 43.678V30.123L141.8 43.68H140l-5.458-13.557V43.68h-4.12V24.316h5.775l4.702 11.698 4.7-11.698h5.806v19.36h-4.15z"/></g></svg>