<svg baseProfile="basic" xmlns="http://www.w3.org/2000/svg" width="256" height="72" viewBox="0 0 256 72"><path fill="#C6C5C5" d="M40.7 69.2L5.3 72 0 18.5l2.8-.2c1.6-.1 2.7-1.6 2.5-3.2L5 12.3c-.2-1.6 1-3.1 2.7-3.2l19.5-1.5c1.6-.1 3.1 1.1 3.3 2.7l.3 2.8.3 3 10-.8 37.1.6 3.7 44.8-6.7 5.9-34.5 2.6z"/><path fill="#066BC6" d="M54.4 0L10.2 23 5.5 72l44-3.5 24.7-1.9L90 65.4l4.8-49.1z"/><path fill="#FFF" d="M33.8 52.1l-5-8.2h-4.1v8.2h-4.9V29h10.8c4.8 0 7.8 3.2 7.8 7.4 0 4.1-2.1 6.3-4.6 6.9l5.7 8.8h-5.7zm-.6-15.7c0-1.9-1.5-3.1-3.5-3.1h-5.2v6.2h5.2c2.1.1 3.5-1.1 3.5-3.1zM42.5 52.1V29h16.4v4.3H47.4v4.9h10.2v4.3H47.4v5.2h11.4V52H42.5zM61.6 40.6c0-7.3 5.5-12 12.3-12 4.8 0 7.8 2.4 9.6 5.2L79.3 36c-1-1.6-3-3-5.5-3-4.2 0-7.2 3.2-7.2 7.6 0 4.4 3 7.6 7.2 7.6 2 0 4-.9 4.9-1.8v-2.5h-6.1v-4.4h11v8.6c-2.4 2.6-5.6 4.4-9.8 4.4-6.7 0-12.2-4.7-12.2-11.9z"/><path d="M95.7 49.7c0-1.5 1.3-2.8 2.8-2.8 1.5 0 2.8 1.3 2.8 2.8 0 1.5-1.3 2.8-2.8 2.8-1.5 0-2.8-1.3-2.8-2.8zM119.3 52.1l-5.5-8.2h-3.6v8.2h-4.9V29H116c4.8 0 7.8 3.2 7.8 7.4 0 4.1-2.6 6.3-5.1 6.9l6.2 8.8h-5.6zm-.5-15.7c0-1.9-1.5-3.1-3.5-3.1h-5.2v6.2h5.2c2 .1 3.5-1.1 3.5-3.1zM127.5 42.9V29h5v13.7c0 3.2 1.4 5.4 4.9 5.4s4.9-2.2 4.9-5.4V29h5v13.9c0 5.8-2.9 9.7-9.9 9.7-7-.1-9.9-4-9.9-9.7zM176.6 24.7c1.1-.1 1.7-.6 2-3.4l.6-5.4h7.5v8.6h1v3.9h-2.3v-2h-6.6v2h-2.3v-3.7zm3-.2h4.9v-6.6h-3.2l-.4 3.6c-.2 1.4-.7 2.4-1.3 3zM189.5 21.2c0-3.2 2.3-5.5 5.5-5.5s5.5 2.3 5.5 5.5-2.3 5.5-5.5 5.5-5.5-2.3-5.5-5.5zm8.7 0c0-2-1.3-3.5-3.2-3.5-2 0-3.2 1.5-3.2 3.5s1.3 3.5 3.2 3.5c1.9 0 3.2-1.5 3.2-3.5zM212.3 26.5v-7.4l-3 7.4h-1l-3-7.4v7.4H203V15.9h3.2l2.6 6.4 2.6-6.4h3.2v10.6h-2.3zM217.6 26.5V15.9h7.5v2h-5.2v2.2h5.1v2h-5.1v2.4h5.2v2h-7.5zM235 26.5v-4.4h-5v4.4h-2.3V15.9h2.3v4.2h5v-4.2h2.3v10.6H235zM242.6 15.9v3.8h2.7c2.3 0 3.6 1.6 3.6 3.4 0 1.9-1.3 3.4-3.6 3.4h-5V15.9h2.3zm0 5.8v2.9h2.4c.9 0 1.6-.5 1.6-1.4 0-.9-.7-1.4-1.6-1.4h-2.4zm7.1 4.8V15.9h2.3v10.6h-2.3zM184.1 46l-2.6-3.9-2.7 3.9h-2.7l3.8-5.4-3.6-5.2h2.7l2.4 3.6 2.4-3.6h2.7l-3.6 5.1 3.8 5.4h-2.6zM187.8 40.7c0-3.2 2.3-5.5 5.5-5.5s5.5 2.3 5.5 5.5-2.3 5.5-5.5 5.5-5.5-2.3-5.5-5.5zm8.7 0c0-2-1.3-3.5-3.2-3.5-2 0-3.2 1.5-3.2 3.5s1.3 3.5 3.2 3.5c2 0 3.2-1.5 3.2-3.5zM200.9 40.7c0-3.3 2.5-5.5 5.6-5.5 2.3 0 3.7 1.3 4.4 2.6l-1.9 1c-.4-.9-1.4-1.5-2.5-1.5-1.9 0-3.3 1.5-3.3 3.5s1.4 3.5 3.3 3.5c1.1 0 2-.7 2.5-1.5l1.9.9c-.8 1.3-2.1 2.6-4.4 2.6-3.2-.1-5.6-2.3-5.6-5.6zM215.7 46v-8.6h-3.1v-2h8.4v2h-3V46h-2.3zM223.4 46V35.4h2.3v6.8l4.9-6.8h2.3V46h-2.3v-7.1l-5 7.1h-2.2zM243.2 46v-4.4h-5V46h-2.3V35.4h2.3v4.2h5v-4.2h2.3V46h-2.3zM248.5 46V35.4h7.5v2h-5.2V46h-2.3zM184.5 65.5v-8.6h-5v8.6h-2.3V55h9.5v10.6h-2.2zM189.3 60.3c0-3.2 2.3-5.5 5.5-5.5s5.5 2.3 5.5 5.5-2.3 5.5-5.5 5.5c-3.2-.1-5.5-2.4-5.5-5.5zm8.7 0c0-2-1.3-3.5-3.2-3.5s-3.2 1.5-3.2 3.5 1.3 3.5 3.2 3.5 3.2-1.6 3.2-3.5zM204.5 57.9c0 1.4.7 1.9 1.9 1.9.8 0 1.5-.1 2-.3V55h2.3v10.6h-2.3v-4.1c-.7.2-1.5.3-2.3.3-2.7 0-3.9-1.6-3.9-3.9v-3h2.3v3zM216.2 65.5v-8.6h-3.1v-2h8.4v2h-3.1v8.6h-2.2zM230.2 65.5l-.7-1.8H225l-.7 1.8h-2.6l4.1-10.6h2.8l4.1 10.6h-2.5zm-2.9-8.3l-1.7 4.6h3.3l-1.6-4.6z"/></svg>