<svg xmlns="http://www.w3.org/2000/svg" width="151.41" height="60.408" viewBox="0 0 151.41 60.408"><path fill="#C6C5C5" d="M34.173 58.09l-29.73 2.318L0 15.523l2.362-.185c1.303-.102 2.256-1.303 2.12-2.672l-.23-2.312A2.445 2.445 0 0 1 6.5 7.67l16.4-1.274a2.57 2.57 0 0 1 2.74 2.292L25.866 11l.246 2.49 8.405-.655 31.084.476 3.104 37.555-5.656 4.977-28.877 2.248z"/><path fill="#066BC6" d="M45.646 0L8.576 19.287l-3.98 41.12 36.918-2.897 20.76-1.63 13.27-1.043 3.976-41.12z"/><path fill="#FFF" d="M28.32 43.706l-4.228-6.89h-3.44v6.89h-4.126V24.32h9.068c4.04 0 6.51 2.645 6.51 6.25 0 3.428-1.732 5.26-3.825 5.753l4.776 7.382H28.32zm-.43-13.137c0-1.628-1.25-2.617-2.905-2.617h-4.33v5.23h4.33c1.655.002 2.906-.986 2.906-2.614zM35.634 43.706V24.32h13.72v3.633H39.76v4.098h8.555v3.635H39.76v4.39h9.593v3.632h-13.72zM51.65 34.028C51.65 27.895 56.3 24 61.97 24c4.04 0 6.567 2.035 8.02 4.332l-3.43 1.86c-.87-1.366-2.527-2.53-4.592-2.53-3.518 0-6.075 2.704-6.075 6.366s2.56 6.365 6.075 6.365c1.715 0 3.344-.756 4.127-1.483v-2.07H60.98v-3.655h9.24v7.237c-1.974 2.208-4.735 3.663-8.252 3.663-5.667 0-10.318-3.953-10.318-10.057z"/><g><path d="M80.278 41.66c0-1.278 1.073-2.35 2.352-2.35s2.352 1.07 2.352 2.35c0 1.278-1.073 2.355-2.352 2.355s-2.352-1.077-2.352-2.354zM87.392 35.974v-11.64h4.18v11.493c0 2.7 1.567 4.555 4.56 4.555 2.988 0 4.526-1.855 4.526-4.555V24.333h4.208v11.61c0 4.817-2.844 8.1-8.735 8.1-5.892 0-8.738-3.312-8.738-8.07zM121.066 43.692l-1.188-3.28h-8.303l-1.22 3.28h-4.703l7.49-19.36h5.167l7.458 19.36h-4.702zm-5.338-15.24l-3.02 8.332h6.037l-3.017-8.33z"/></g></svg>