<svg baseProfile="basic" xmlns="http://www.w3.org/2000/svg" width="23" height="14" viewBox="0 0 23 14"><g fill="#FFF"><path d="M21 0H2C.9 0 0 .9 0 2v10c0 1.1.9 2 2 2h19c1.1 0 2-.9 2-2V2c0-1.1-.9-2-2-2zm1 11.1c0 1.1-.9 1.9-1.9 1.9H2.9c-1 0-1.9-.9-1.9-1.9V2.9C1 1.9 1.9 1 2.9 1h17.2c1 0 1.9.9 1.9 1.9v8.2z"/><path d="M3 9h3v2H3zM17 9h3v2h-3zM7 9h9v2H7zM3 6h2v2H3zM3 3h2v2H3zM6 6h2v2H6zM9 6h2v2H9zM12 6h2v2h-2zM6 3h2v2H6zM9 3h2v2H9zM12 3h2v2h-2zM15 3h2v2h-2z"/><path d="M18 4v2h-3v2h5V3h-2z"/></g></svg>