<?xml version="1.0" encoding="utf-8"?>
<!-- Generator: Adobe Illustrator 19.2.1, SVG Export Plug-In . SVG Version: 6.00 Build 0)  -->
<svg version="1.1" baseProfile="basic" id="Слой_1"
	 xmlns="http://www.w3.org/2000/svg" xmlns:xlink="http://www.w3.org/1999/xlink" x="0px" y="0px" width="48px" height="48px"
	 viewBox="0 0 48 48" xml:space="preserve">
<g id="Layer_1">
</g>
<g id="Layer_2">
	<g>
		<path fill="#EB4444" d="M24,0C10.7,0,0,10.7,0,24s10.7,24,24,24s24-10.7,24-24S37.3,0,24,0z M24,45.9C11.9,45.9,2.1,36.1,2.1,24
			S11.9,2.1,24,2.1c12.1,0,21.9,9.8,21.9,21.9S36.1,45.9,24,45.9z"/>
		<circle fill="#EB4444" cx="24" cy="24" r="19.7"/>
	</g>
</g>
<path fill="#FFFFFF" d="M34.7,32.7c0,0-1.3-3.7-1.6-4.3c-0.3-0.7-0.7-0.9-1.1-1.1c0,0-0.1,0-0.1,0c0,0,0,0,0,0c0,0-0.1,0-0.1,0
	c-0.8-0.4-3.5-1.5-4.6-2v0c-0.2-0.1-0.3-0.1-0.4-0.2c0,0,0,0,0,0v-0.5v-0.6c0.7-0.8,1.2-1.9,1.5-3.1c0,0,0,0,0.1,0
	c0.3,0,0.6-0.2,0.6-0.5l0.1-1.7c0-0.3-0.1-0.5-0.3-0.6v-2.2c0-2.2-2.1-4-4.6-4c-2.6,0-4.6,1.8-4.6,4v2.2c-0.2,0.1-0.4,0.3-0.3,0.6
	l0.1,1.7c0,0.3,0.3,0.6,0.6,0.5c0,0,0,0,0.1,0c0.2,1.1,0.7,2.1,1.2,2.8v0.9v0.5c0,0,0,0,0,0c-0.1,0-0.2,0.1-0.4,0.2l0,0
	c-1.2,0.5-4.1,1.8-4.7,2.1c0,0-0.1,0-0.1,0c-0.5,0.2-0.8,0.5-1.1,1.1c-0.3,0.7-1.6,4.3-1.6,4.3s-0.4,1.1,0.4,1.1h4.1h6.1h0.3h6.1
	h4.1C35.1,33.7,34.7,32.7,34.7,32.7z"/>
</svg>
