<svg xmlns="http://www.w3.org/2000/svg" width="234" height="315" viewBox="0 0 234 315"><path opacity=".4" fill="#73CDFF" d="M93.017 198.816h1.81c-.1.014-.2.02-.303.02H67.417c-1.397 0-2.53-1.157-2.53-2.585s1.133-2.584 2.53-2.584h36.742c2.384-.393 4.205-2.504 4.205-5.052 0-2.827-2.242-5.12-5.007-5.12H95.94c.067-.03.13-.064.196-.1H76.003c-2.776 0-5.028-2.3-5.028-5.14s2.252-5.142 5.028-5.142h19.634c1.955-.706 3.355-2.608 3.355-4.85 0-2.838-2.25-5.14-5.028-5.14H54.25c-.146 0-.29.007-.432.02H38.682c-1.354 0-2.452 1.123-2.452 2.508a2.5 2.5 0 0 0 1.7 2.384h3.976c1.43 0 2.588 1.185 2.588 2.646 0 1.463-1.158 2.647-2.588 2.647h-7.654c.03.008.062.02.095.025H5.624c-1.378 0-2.495 1.143-2.495 2.552 0 1.41 1.116 2.553 2.494 2.553h2.163l-.043.008H13.9c1.382 0 2.5 1.146 2.5 2.56s-1.118 2.558-2.5 2.558H8.25c-2.322.444-4.078 2.526-4.078 5.03 0 2.825 2.24 5.118 5.006 5.118H38.613c1.38 0 2.496 1.145 2.496 2.553 0 1.41-1.118 2.553-2.497 2.553l-20.615.01c-2.657 0-4.81 2.2-4.81 4.918s2.153 4.917 4.81 4.917h6.03c.123.022.25.034.376.034h6.332c-1.167.214-2.053 1.253-2.053 2.51 0 1.408 1.117 2.55 2.496 2.55h50.574c1.377 0 2.496-1.142 2.496-2.55 0-1.257-.886-2.296-2.053-2.51H58.242c-1.288 0-2.333-1.068-2.333-2.386s1.043-2.385 2.332-2.385h17.97c-.014-.01-.027-.018-.04-.024h16.845c1.377 0 2.495-1.144 2.495-2.553s-1.118-2.55-2.495-2.55z"/><path fill="#4FA9ED" d="M43.945 187.554l-7.658 9.177-11.606-2.192-3.945-11.372 8.297-7.346 10.968.36z"/><path opacity=".2" fill="#333" d="M29.308 176.033c.354-.503-8.395 7.646-8.395 7.646l1.065 3.07 11.257 1.67 8.208-8.08-.103-.295.246-.216-1.33-3.832-10.948.035z"/><path fill="#4FA9ED" d="M29.21 175.756c.356-.503-9.047 7.633-9.047 7.633l1.065 3.072 11.65 1.274 8.708-7.907-1.427-4.11-10.95.036z"/><path fill="#5FB3FF" d="M20.163 183.39l.063.182c2.625-.012 11.42.382 11.42.382l8.503-8.265.01.03-11.043-.057c.356-.502-8.954 7.726-8.954 7.726z"/><path opacity=".2" fill="#333" d="M40.16 175.72l-8.514 8.233 4.64 12.778 7.66-9.176-2.605-7.51.247-.215z"/><path fill="#FF3C00" d="M28.218 195.168l-2.507-8.165-.206-.073-1.075-3.262 8.508-7.974 2.126.02-7.933 8.147 1.105 3.367c.013.044.172-.025.185.02 1.15 3.503 2.61 8.49 2.642 8.496.054.012-2.844-.575-2.844-.575z"/><path opacity=".2" fill="#333" d="M25.722 187.042l2.7.205.157.48-2.773-.414-.067-.21"/><path fill="#FF3C00" d="M24.643 179.422l10.016 1.586 1.52 3.73-.214.233 3.24 8.31 1.61-1.94-2.806-8.13.188-.303-1.527-3.795-10.458-1.058z"/><path opacity=".2" fill="#333" d="M36.2 185.5l-.234-.53 2.044-1.76.134.38z"/><path fill="#D63509" d="M30.35 178.972s-12.786-7.076-11.252.223c1.533 7.3 6.966 2.253 11.038.78.742-.27.213-1.003.213-1.003zm-2.344.618c-2.487.9-5.805 3.982-6.743-.476-.935-4.458 6.873-.137 6.873-.137s.325.448-.13.613z"/><path fill="#D63509" d="M30.396 179.83s14.33-2.727 9.4-7.6-7.01 2.777-9.717 6.65c-.497.71.316.95.316.95zm1.672-2.045c1.655-2.364 2.926-7.04 5.938-4.062 3.01 2.977-5.743 4.644-5.743 4.644s-.496-.148-.195-.582z"/><path opacity=".2" fill="#333" d="M28.853 179.863c-.154.087.07 1.963-1.07 2.992-1.143 1.03 1.4.074 2.147.116.748.042.497-3.24.198-3.57-.297-.33-1.275.463-1.275.463z"/><path fill="#D63509" d="M28.546 180.036c-.154.088.07 1.965-1.072 2.992-1.14 1.03 1.402.075 2.15.116.748.042.496-3.24.198-3.57-.3-.33-1.276.462-1.276.462z"/><path opacity=".2" fill="#333" d="M30.2 179.72s1.493 1.457 1.758 1.956c.264.497 2.915-.317 2.614-1.095-.3-.776-3.468-1.19-3.468-1.19l-.903.33z"/><path fill="#D63509" d="M30.324 179.548s1.493 1.458 1.757 1.957c.265.498 2.917-.317 2.617-1.095-.3-.776-3.47-1.19-3.47-1.19l-.903.328z"/><path fill="#C42A06" d="M28.3 178.97s2.645-1.803 3.397-.95c.754.852-.144 1.574-.503 1.807-.36.234-.985.43-1.354.418-.37-.012-1.51-.567-1.54-1.275z"/><path fill="#76D9FC" d="M109.507 238.146c0 30.354-24.066 54.963-53.756 54.963S1.988 268.5 1.988 238.145c0-30.356 24.073-54.965 53.764-54.965 29.69 0 53.757 24.61 53.757 54.966z"/><path fill-rule="evenodd" clip-rule="evenodd" fill="#00A936" d="M21.048 248.89a4.065 4.065 0 0 0-.98-.248c-.36-.043-.628-.057-.875 0-.732.22-.78 1.002 1.205 2.223.532.724 1.498 1.385 2.412 1.024.53-1.543-.573-2.48-1.76-2.9-.002-.1.008-.07-.002-.1zM29.36 233.32c.086.08.142.207.22.222h.112c.536.155 1.056-.397.65-.434-.16-.028-.468.014-.983.213zM41.812 228.522c-.85.147-1.056.73.773 2.015.227-.063 1.8-.426.876.547 2.843-1.732-.197-2.826-1.648-2.562zM41.812 216.105c3.06-1.27 3.765-9.51.122-9.268-.235 0-.472.12-.77.234 1.523 2.88-1.995 6.537.648 9.035zM76.938 222.932c.242-1.718-2.433-2.983-3.637-2.913-.7.05-.837.562.46 1.797-1.212 2.925 2.017 3.082 3.178 1.115zM49.582 201.483c.883-.422 1.306-1.92 0-1.92-.237-.062-.414-.126-.65-.112-.235.01-.472.093-.645.114-2.58.527-1.797 4.9 1.295 1.92z"/><path fill-rule="evenodd" clip-rule="evenodd" fill="#00A936" d="M53.197 200.46c-3.734.482-7.502 4.17-4.03 7.82 2.49 3.174-3.59 9.652 2.18 11.313 2.288-5.235 8.55-9.383 7.002-15.767-.648-2.722-2.902-3.657-5.153-3.367z"/><path fill="#00A936" d="M46.754 276.04c-5.53-3.755-9.53-9.5-15.758-12.3-5.067-5.028-16.494-1.902-16.287-11.413.527-4.517-3.02-6.697-5.68-8.82-2.046-6.99 10.425-9.56 10.604-1.904 4.106-.22 5.545-7.54 10.286-8.6 2.44-2.167 9.05.163 6.66-4.262 2.36-2.293 9.29-2.216 5.9-7.585-1.138-5.234-7.43-7.763-9.5-1.804-5.697 1.563-3.4-11.07 2.396-9.39 4.202.25 3.63-3.484 1.084-4.686 0-.184-.056-.286-.215-.12-.466-.18-.955-.363-1.53-.335-5.68-3.21 5.687-11.393-1.843-13.984-8.264 7.216-20.867 18.57-25.914 29.182-2.28 6.656-1.897 13.354-1.633 20.35 2.313 6.773 6.807 12.363 10.385 18.437 2.29 2.933 1.188 6.308 1.014 9.518-.062.02.028.1.028.112-.118 1.946.18 3.8 1.79 5.47 2.8 3.69 6.873 6.618 8.86 10.873a52.656 52.656 0 0 0 14.68 6.47c.568-.262 1.725-.61 5.878-1.015v-.114c0-1.272 5.742-3.132 8.58-5.28 4.715-5.83-5.048-10.488-9.786-8.8zM96.714 273.69c7.965-9.588 12.792-21.98 12.792-35.545 0-1.514-.103-3.004-.223-4.49-.038-.37-.065-.744-.107-1.113-3.07 1.72-8.536-7.736-2.946-3.24 1.09-.077 1.778-.397 2.296-.88-.645-3.445-1.52-6.783-2.747-9.967-.55-.666-1.078-1.29-1.528-1.667.038-.688-.03-1.35-.11-2.01-.027-.035.033-.085 0-.12-8.763-18.438-27.26-31.173-48.65-31.173-1.458 0-2.94.092-4.383.213-.747.164-1.574.263-2.415.342a11.35 11.35 0 0 0-.862.113c-3.017.433-5.9.972-8.734 1.89 7.39-.555 14.98-.356 21.644 3.026 1.762 5.786 12.31.11 11.804 6.58.083.094.242.243.333.35-.166.127.123 1.307.334.32 1.823 2.11 5.66 6.484 1.633 5.937-5.34-.747-3.95 10.007-.104 11.96 3.664 2.017 5.725-2.03 1.96-4.02-.51-5.043 8.22 3.096 4.368 5.795-.152.107-.278.234-.426.348.177-.724-.253-.042-.24.122-4.38 3.245-1.882 10.887-3.584 15.98-3.033 6.88 7.585 3.848 6.002-1.57-1.943-4.986 8.076-2.714 5.908-6.258 6.075 3.295 5.5-5.552 2.964-8.51 1.184-4.728 4.306.556 2.83 3.133.24 2.438 2.295 2.998 3.945 3.694.074.058.16.066.323.106 1.44.704 2.306 1.605.75 4.375-1.785 6.153-7.836 6.493-12.782 5.356-5 2.118-5.93 8.332-8.753 12.515-2.8 5.23-5.126 12.927-.1 17.55 4.81 4.723 10.34.625 14.327-2.57 7.645-1.015 8.346 8.19 4.584 12.876-.04.216-.072.378-.104.555z"/><g opacity=".2" fill="#010000"><path d="M4.602 221.206c-.015.043-.024.07-.034.104.497-.026.938-.062.938-.104h-.904zM101.153 267.548h-.06c0 .043-.01.085-.017.128.028-.043.058-.085.077-.128z"/><path d="M105.477 254.706c0-.09.028-.164.045-.177-.09.12-.898.943-7.04 1.86 1.574-5.505 2.456-11.4 2.518-17.53h8.19v-1.66H101c-.083-6.193-1.003-12.14-2.625-17.678 6.206.915 7.02 1.747 7.106 1.86-.016-.014-.048-.08-.048-.177h1.466a69.87 69.87 0 0 0-.354-1.065c-.646-.612-1.963-1.11-4.128-1.585a57.215 57.215 0 0 0-4.583-.786c-2.07-6.388-5.084-12.197-8.836-17.162 3.766.99 6.767 2.146 8.843 3.36a56.854 56.854 0 0 0-2.57-3.076c-2.15-.865-4.515-1.57-6.732-2.124-.406-.105-.818-.197-1.23-.298-5.73-6.832-12.93-11.832-20.957-14.218a52.684 52.684 0 0 0-22.336.257c-7.686 2.476-14.59 7.355-20.118 13.946-.434.105-.867.206-1.288.312-2.028.505-4.18 1.138-6.176 1.905a55.39 55.39 0 0 0-2.504 2.947c2.05-1.095 4.85-2.13 8.274-3.033-3.744 4.965-6.76 10.76-8.832 17.146-1.896.256-3.516.53-4.838.822-1.55.342-2.665.69-3.408 1.095-.157.433-.3.866-.435 1.3 1.52-.363 4.207-.896 8.14-1.465-1.628 5.548-2.555 11.507-2.64 17.715H2.018c-.01.312-.03.625-.03.945 0 .24.016.475.02.716h8.18a66.278 66.278 0 0 0 2.528 17.56c-6.336-.925-7.165-1.77-7.25-1.89a.38.38 0 0 1 .04.176h-1.03c.157.497.324.994.494 1.486.744.432 1.903.81 3.56 1.17 1.302.284 2.874.556 4.72.81 1.918 6.038 4.676 11.555 8.097 16.357-3.808-1.06-6.77-2.28-8.722-3.56a57.966 57.966 0 0 0 2.535 3.197c2.323.992 4.96 1.79 7.415 2.406.123.03.248.057.368.092 5.66 7.153 12.877 12.45 20.966 15.086a52.916 52.916 0 0 0 11.84 1.357c3.612 0 7.137-.37 10.55-1.063 8.503-2.523 16.083-7.963 21.968-15.414.075-.02.16-.042.238-.057 2.693-.675 5.604-1.57 8.083-2.706a59.948 59.948 0 0 0 2.695-3.493c-1.86 1.478-5.096 2.903-9.418 4.117 3.412-4.798 6.17-10.316 8.083-16.347a65.753 65.753 0 0 0 4.505-.782c2.312-.51 3.66-1.042 4.254-1.716.1-.313.207-.62.31-.94h-1.543zM49.46 184.87c-2.94 2.158-5.648 5.888-7.986 11.017-5.392.426-10.43 1.092-14.915 1.996 6.294-6.846 14.19-11.513 22.9-13.013zm-24.71 15.094c4.692-1.06 10.114-1.848 15.974-2.346-.22.513-.43 1.04-.637 1.578-1.88 4.935-3.362 10.632-4.403 16.832-5.97.227-11.46.576-16.183 1.01-1.566.148-3.023.305-4.365.466 2.25-6.61 5.54-12.568 9.615-17.54zm-10.172 19.282c1.726-.215 3.782-.435 6.23-.653 4.328-.378 9.275-.675 14.608-.89-.934 6.14-1.448 12.714-1.492 19.497H11.79c.092-6.306 1.072-12.35 2.788-17.954zM11.79 238.86h22.135c.035 6.73.526 13.255 1.434 19.355-5.31-.214-10.23-.512-14.547-.888a168.512 168.512 0 0 1-6.35-.674 64.31 64.31 0 0 1-2.672-17.792zm3.22 19.54c1.38.17 2.877.326 4.497.476 4.705.44 10.172.78 16.12 1.017 1.037 6.34 2.54 12.165 4.46 17.194.083.205.165.404.24.604-6.09-.525-11.69-1.38-16.487-2.52-3.733-4.83-6.748-10.505-8.83-16.77zm10.53 18.858c4.612.972 9.864 1.703 15.505 2.165 2.423 5.63 5.293 9.693 8.415 11.995-9.19-1.59-17.475-6.69-23.92-14.16zM54.79 291.9c-4.36-.468-8.52-4.785-11.927-12.336 3.842.27 7.844.412 11.928.433V291.9zm0-13.572a177.41 177.41 0 0 1-12.663-.482c-.184-.447-.367-.91-.542-1.378-1.85-4.828-3.3-10.426-4.323-16.514 5.53.193 11.444.308 17.53.308v18.066zm0-19.736a491.4 491.4 0 0 1-17.8-.32c-.923-6.094-1.428-12.65-1.462-19.41H54.79v19.73zm0-21.392H35.53c.045-6.812.567-13.423 1.524-19.56 5.6-.2 11.595-.312 17.74-.32v19.88zm0-21.548a501.37 501.37 0 0 0-17.466.312c1.01-5.95 2.445-11.414 4.26-16.15.308-.817.628-1.59.954-2.344 3.932-.284 8.05-.44 12.253-.455v18.637zm0-20.305c-3.923.014-7.77.148-11.475.404 3.32-6.95 7.304-10.923 11.476-11.37v10.967zM99.393 237.2H77.264c-.04-6.775-.557-13.353-1.49-19.49 5.24.215 10.102.51 14.358.883 2.574.228 4.71.463 6.49.688 1.71 5.6 2.684 11.627 2.77 17.92zm-3.33-19.665c-1.415-.18-2.953-.336-4.626-.498-4.655-.427-10.056-.77-15.93-1.002-1.038-6.194-2.524-11.904-4.41-16.84a53.962 53.962 0 0 0-.626-1.577c5.86.505 11.29 1.293 15.978 2.358 4.08 4.98 7.37 10.938 9.614 17.56zm-11.425-19.64c-4.484-.9-9.527-1.582-14.922-2.008-2.334-5.13-5.046-8.858-7.984-11.017 8.715 1.507 16.62 6.174 22.907 13.026zm-28.24-13.514c4.177.447 8.16 4.42 11.475 11.37-3.7-.248-7.55-.39-11.476-.403V184.38zm0 12.635c4.208.015 8.32.17 12.256.463.327.753.643 1.527.955 2.336 1.813 4.736 3.245 10.207 4.26 16.157a518.646 518.646 0 0 0-17.472-.317v-18.638zm0 20.306c6.15.015 12.148.128 17.748.333.95 6.13 1.47 12.734 1.515 19.547H56.396v-19.88zm0 21.54H75.66c-.03 6.755-.533 13.31-1.46 19.404a473.43 473.43 0 0 1-17.804.327v-19.73zm0 21.402a502.266 502.266 0 0 0 17.532-.314c-1.022 6.088-2.474 11.686-4.322 16.52-.18.47-.354.918-.54 1.364-4.058.314-8.316.477-12.67.497V260.26zm0 19.735c4.09-.02 8.092-.17 11.93-.44-3.408 7.56-7.565 11.876-11.93 12.344v-11.903zm5.334 11.42c3.12-2.3 5.99-6.363 8.427-12 5.642-.47 10.9-1.21 15.514-2.19-6.444 7.487-14.74 12.6-23.94 14.19zm25.642-16.285c-4.79 1.16-10.403 2.018-16.51 2.55.077-.198.16-.39.235-.595 1.924-5.03 3.43-10.86 4.468-17.203 5.868-.24 11.257-.575 15.913-1.008 1.7-.157 3.27-.327 4.706-.497-2.074 6.257-5.082 11.924-8.812 16.752zm9.367-18.508c-1.8.236-3.964.47-6.57.703-4.26.362-9.112.66-14.338.88.91-6.092 1.397-12.626 1.432-19.346h22.132c-.067 6.238-1 12.21-2.657 17.764z"/></g><path opacity=".4" fill="#73CDFF" d="M219.883 190.383h-21.145c-1.82 0-3.297-1.51-3.297-3.373 0-1.86 1.477-3.37 3.298-3.37h21.145v-7.22h-8.18c-1.973 0-3.573-1.638-3.573-3.654 0-2.02 1.6-3.653 3.574-3.653h8.18v-15.75c-1.9-1.304-3.15-3.52-3.15-6.034s1.25-4.73 3.15-6.035v-15.352h-26.79c-.207 0-.41.01-.61.028H171.09c-1.913 0-3.465 1.587-3.465 3.545 0 1.577 1.007 2.91 2.4 3.37h5.623c2.02 0 3.66 1.675 3.66 3.74 0 2.067-1.64 3.742-3.66 3.742H164.83c.044.01.09.026.134.036h-40.597c-1.947 0-3.527 1.614-3.527 3.606 0 1.992 1.58 3.605 3.527 3.605h3.056l-.062.014h8.703c1.953 0 3.536 1.62 3.536 3.615 0 1.997-1.584 3.615-3.537 3.615h-7.986c-3.282.628-5.764 3.572-5.764 7.108 0 3.995 3.167 7.235 7.075 7.235H170.993c1.95 0 3.527 1.617 3.527 3.608 0 1.99-1.58 3.607-3.527 3.607l-29.138.013c-3.755 0-6.8 3.112-6.8 6.952s3.044 6.952 6.8 6.952h8.522c.174.027.352.046.533.046h8.95c-1.65.302-2.902 1.77-2.902 3.545 0 1.993 1.58 3.607 3.527 3.607h59.397v-7.15z"/><path opacity=".4" fill="#73CDFF" d="M222.99 271.17h-26.498c-2.283 0-4.132-1.895-4.132-4.228s1.85-4.224 4.132-4.224h26.5v-9.048h-10.25c-2.475 0-4.48-2.05-4.48-4.58 0-2.528 2.005-4.578 4.48-4.578h10.25v-19.735a9.152 9.152 0 0 1-3.946-7.563 9.152 9.152 0 0 1 3.945-7.562v-19.238H189.42c-.257 0-.51.013-.764.035h-26.81c-2.398 0-4.343 1.986-4.343 4.44 0 1.977 1.264 3.646 3.01 4.224h7.045c2.532 0 4.585 2.1 4.585 4.688 0 2.59-2.053 4.688-4.585 4.688H154c.055.014.11.033.167.046h-50.875c-2.44 0-4.42 2.023-4.42 4.52 0 2.498 1.98 4.52 4.42 4.52h3.83c-.026.005-.05.013-.077.018h10.906c2.448 0 4.432 2.03 4.432 4.53 0 2.503-1.984 4.532-4.43 4.532h-10.01c-4.112.787-7.223 4.476-7.223 8.908 0 5.007 3.968 9.066 8.865 9.066h28.442v.002h23.697c2.442 0 4.42 2.024 4.42 4.52s-1.978 4.52-4.42 4.52l-36.515.017c-4.708 0-8.523 3.898-8.523 8.71s3.815 8.713 8.522 8.713h10.678c.22.035.44.058.668.058h11.214c-2.066.38-3.636 2.223-3.636 4.444 0 2.498 1.98 4.52 4.42 4.52h74.437v-8.965z"/><ellipse fill="#E9514B" cx="194.102" cy="138.771" rx="18.07" ry="18.474"/><ellipse fill="#FBFBFB" cx="194.114" cy="138.722" rx="14.343" ry="14.664"/><ellipse fill="#E9514B" cx="194.102" cy="138.799" rx="10.691" ry="10.93"/><ellipse fill="#FBFBFB" cx="194.102" cy="138.798" rx="6.293" ry="6.436"/><ellipse fill="#E9514B" cx="194.102" cy="138.799" rx="3.412" ry="3.488"/><path opacity=".3" fill="#000100" d="M204.88 128.622l-11.105 10.49 11.99 13.766c3.916-3.39 6.407-8.448 6.407-14.105 0-2.85-.634-5.55-1.76-7.96l-1.448-1.446-4.083-.745z"/><path fill="#FFD600" d="M194.587 138.85c0 .242-.193.438-.427.438a.433.433 0 0 1-.43-.437c0-.243.192-.44.43-.44.234 0 .427.196.427.44z"/><path fill="#FFD600" d="M205.79 127.666l.126.465.436.18-11.978 10.915-.562-.643z"/><path fill="#4FB272" d="M205.055 124.882l.844 3.21-4.28 3.897-.845-3.21z"/><path fill="#009B54" d="M208.964 129.366l-3.023-1.228-4.277 3.9 3.022 1.227z"/><g><path fill="#FF643B" d="M166.494 202.008c7.476 13.818 2.58 31.214-10.935 38.856-13.516 7.643-30.533 2.636-38.006-11.18-7.476-13.82-2.577-31.215 10.936-38.857 13.514-7.64 30.53-2.635 38.004 11.18z"/><path opacity=".24" fill="#FFF" d="M134.106 206.205c-5.383 4.23-11.402 5.456-13.444 2.738-2.044-2.717.664-8.348 6.044-12.58 5.382-4.228 11.4-5.457 13.446-2.737 2.044 2.717-.664 8.348-6.046 12.58z"/><path fill="#C52902" d="M138.466 209.27a30.14 30.14 0 0 0 14.59-19.686 25.487 25.487 0 0 0-1.762-.705 28.18 28.18 0 0 1-13.72 18.74c-7.328 4.146-15.652 4.582-22.82 1.918a30.2 30.2 0 0 0-.354 1.904c7.59 2.708 16.343 2.195 24.066-2.172zM145.44 222.16a30.148 30.148 0 0 0-14.59 19.69c.58.254 1.168.49 1.763.703a28.186 28.186 0 0 1 13.72-18.742c7.33-4.145 15.653-4.58 22.82-1.918.138-.63.256-1.265.354-1.903-7.59-2.71-16.344-2.196-24.066 2.17z"/><path fill="#C52902" d="M156.083 240.13l-1.662.94-26.673-49.307 1.663-.94z"/><path fill="#C52902" d="M165.57 201.46l.92 1.7-48.23 27.27-.92-1.698z"/></g><g><path fill="#3A383A" d="M181.775 284.566l-42.908-3.734 4.037-48.5 42.91 3.732z"/><path fill="#5E5E5E" d="M141.843 231.45c-.096 1.153.74 2.168 1.87 2.266l41.992 3.653.173-2.09.47-5.636.173-2.086-41.99-3.655c-1.13-.098-2.12.757-2.217 1.91l-.47 5.636z"/><path fill="#FFF" d="M173.858 230.15a.45.45 0 0 0 .405.493c.246.02.46-.164.48-.417a.45.45 0 0 0-.405-.49.448.448 0 0 0-.48.414zM175.47 230.29c-.02.253.16.473.407.494a.446.446 0 0 0 .48-.417c.02-.248-.16-.47-.405-.49s-.462.165-.482.413zM177.083 230.43c-.02.253.16.473.405.494.246.02.46-.163.48-.417a.45.45 0 0 0-.405-.49.445.445 0 0 0-.48.413zM178.694 230.57c-.02.253.16.473.406.494.245.02.46-.164.48-.417a.45.45 0 0 0-.406-.49.447.447 0 0 0-.48.413zM180.307 230.71c-.02.254.16.474.405.495a.45.45 0 0 0 .482-.417.452.452 0 0 0-.407-.49.446.446 0 0 0-.48.413zM181.918 230.85c-.02.254.16.474.406.495.245.02.46-.163.48-.417a.45.45 0 0 0-.404-.49.446.446 0 0 0-.482.413zM183.53 230.99a.45.45 0 0 0 .407.495c.245.02.46-.164.48-.417a.45.45 0 0 0-.406-.49.447.447 0 0 0-.48.413zM185.143 231.132c-.02.253.16.473.406.493.243.02.458-.163.478-.416a.45.45 0 0 0-.404-.49.448.448 0 0 0-.48.412z"/><ellipse transform="rotate(-175.032 175.09 231.516)" fill="#FFF" cx="175.085" cy="231.504" rx=".445" ry=".454"/><ellipse transform="rotate(-175.032 176.706 231.653)" fill="#FFF" cx="176.696" cy="231.645" rx=".446" ry=".455"/><ellipse transform="rotate(-175.026 178.312 231.794)" fill="#FFF" cx="178.309" cy="231.785" rx=".445" ry=".455"/><ellipse transform="rotate(-175.026 179.924 231.935)" fill="#FFF" cx="179.92" cy="231.925" rx=".445" ry=".454"/><ellipse transform="rotate(-174.963 181.54 232.075)" fill="#FFF" cx="181.534" cy="232.065" rx=".445" ry=".456"/><ellipse transform="rotate(-174.975 183.135 232.198)" fill="#FFF" cx="183.146" cy="232.206" rx=".446" ry=".455"/><ellipse transform="rotate(-175.026 184.76 232.356)" fill="#FFF" cx="184.758" cy="232.346" rx=".445" ry=".454"/><ellipse transform="rotate(-175.09 174.886 233.98)" fill="#FFF" cx="174.879" cy="233.976" rx=".445" ry=".456"/><ellipse transform="rotate(-175.037 176.496 234.13)" fill="#FFF" cx="176.491" cy="234.116" rx=".446" ry=".455"/><ellipse transform="rotate(-175.07 178.107 234.257)" fill="#FFF" cx="178.103" cy="234.256" rx=".445" ry=".457"/><ellipse transform="rotate(-175.003 179.72 234.395)" fill="#FFF" cx="179.715" cy="234.396" rx=".444" ry=".457"/><ellipse transform="rotate(-175.026 181.332 234.547)" fill="#FFF" cx="181.328" cy="234.537" rx=".445" ry=".455"/><ellipse transform="rotate(-174.968 182.953 234.686)" fill="#FFF" cx="182.94" cy="234.678" rx=".446" ry=".456"/><ellipse transform="rotate(-175.026 184.556 234.827)" fill="#FFF" cx="184.552" cy="234.817" rx=".445" ry=".456"/><ellipse transform="rotate(-175.026 174.104 232.668)" fill="#FFF" cx="174.095" cy="232.663" rx=".445" ry=".456"/><ellipse transform="rotate(-175.09 175.714 232.808)" fill="#FFF" cx="175.707" cy="232.803" rx=".445" ry=".456"/><ellipse transform="rotate(-174.963 177.326 232.953)" fill="#FFF" cx="177.32" cy="232.943" rx=".445" ry=".456"/><ellipse transform="rotate(-175.095 178.94 233.09)" fill="#FFF" cx="178.932" cy="233.083" rx=".445" ry=".457"/><ellipse transform="rotate(-175.032 180.55 233.235)" fill="#FFF" cx="180.544" cy="233.223" rx=".445" ry=".455"/><ellipse transform="rotate(-174.968 182.168 233.372)" fill="#FFF" cx="182.156" cy="233.364" rx=".446" ry=".456"/><ellipse transform="rotate(-175.032 183.78 233.512)" fill="#FFF" cx="183.768" cy="233.503" rx=".446" ry=".456"/><ellipse transform="rotate(-175.02 185.39 233.647)" fill="#FFF" cx="185.38" cy="233.644" rx=".445" ry=".455"/><path fill="#FFF" d="M171.157 231.582l-15.826-1.378.07-.78 15.825 1.377zM155.166 232.02l15.828 1.376.065-.78-15.83-1.378z"/><path fill="#EB6159" d="M145.6 228.938c-.143 1.73 1.11 3.25 2.803 3.398 1.692.146 3.18-1.136 3.324-2.865s-1.11-3.25-2.802-3.398c-1.692-.146-3.18 1.137-3.324 2.866z"/><path fill="#3A383A" d="M146.367 229.006c-.107 1.297.833 2.438 2.102 2.548 1.27.11 2.385-.853 2.493-2.147.108-1.3-.832-2.44-2.103-2.55-1.27-.112-2.384.85-2.493 2.15z"/><path fill="#5E5E5E" d="M140.955 242.13c-.096 1.154.74 2.168 1.87 2.267l41.99 3.653.175-2.088.47-5.637c.096-1.154.172-2.09.172-2.09l-41.992-3.653c-1.127-.097-2.12.758-2.216 1.91l-.47 5.638z"/><ellipse transform="rotate(-175.095 174.41 239.72)" fill="#FFF" cx="174.402" cy="239.711" rx=".445" ry=".455"/><ellipse transform="rotate(-175.032 176.023 239.86)" fill="#FFF" cx="176.013" cy="239.852" rx=".446" ry=".454"/><ellipse transform="rotate(-175.026 177.63 240.002)" fill="#FFF" cx="177.626" cy="239.992" rx=".445" ry=".455"/><ellipse transform="rotate(-175.02 179.24 240.14)" fill="#FFF" cx="179.237" cy="240.132" rx=".444" ry=".455"/><ellipse transform="rotate(-174.957 180.86 240.276)" fill="#FFF" cx="180.851" cy="240.272" rx=".445" ry=".455"/><ellipse transform="rotate(-175.095 182.47 240.42)" fill="#FFF" cx="182.462" cy="240.413" rx=".445" ry=".455"/><ellipse transform="rotate(-175.02 184.083 240.557)" fill="#FFF" cx="184.075" cy="240.553" rx=".445" ry=".454"/><ellipse transform="rotate(-175.026 173.42 240.876)" fill="#FFF" cx="173.412" cy="240.87" rx=".445" ry=".454"/><path fill="#FFF" d="M174.58 240.972c-.02.25.162.47.407.492a.447.447 0 0 0 .48-.415.45.45 0 0 0-.405-.493.45.45 0 0 0-.482.415z"/><ellipse transform="rotate(-174.963 176.642 241.16)" fill="#FFF" cx="176.637" cy="241.15" rx=".445" ry=".455"/><ellipse transform="rotate(-175.032 178.253 241.303)" fill="#FFF" cx="178.248" cy="241.291" rx=".445" ry=".454"/><ellipse transform="rotate(-175.032 179.872 241.44)" fill="#FFF" cx="179.861" cy="241.431" rx=".446" ry=".454"/><ellipse transform="rotate(-175.032 181.483 241.58)" fill="#FFF" cx="181.472" cy="241.572" rx=".446" ry=".453"/><ellipse transform="rotate(-174.968 183.098 241.72)" fill="#FFF" cx="183.085" cy="241.712" rx=".446" ry=".454"/><ellipse transform="rotate(-174.957 184.7 241.86)" fill="#FFF" cx="184.697" cy="241.853" rx=".444" ry=".454"/><ellipse transform="rotate(-175.026 174.205 242.19)" fill="#FFF" cx="174.196" cy="242.184" rx=".445" ry=".453"/><ellipse transform="rotate(-175.032 175.812 242.337)" fill="#FFF" cx="175.807" cy="242.325" rx=".445" ry=".453"/><ellipse transform="rotate(-175.09 177.42 242.475)" fill="#FFF" cx="177.42" cy="242.465" rx=".445" ry=".455"/><ellipse transform="rotate(-175.003 179.038 242.604)" fill="#FFF" cx="179.032" cy="242.605" rx=".444" ry=".454"/><ellipse transform="rotate(-175.026 180.65 242.755)" fill="#FFF" cx="180.645" cy="242.745" rx=".445" ry=".455"/><ellipse transform="rotate(-174.968 182.27 242.894)" fill="#FFF" cx="182.256" cy="242.886" rx=".446" ry=".454"/><ellipse transform="rotate(-175.02 183.877 243.03)" fill="#FFF" cx="183.869" cy="243.026" rx=".445" ry=".453"/><ellipse transform="rotate(-175.026 174 244.662)" fill="#FFF" cx="173.99" cy="244.656" rx=".445" ry=".455"/><ellipse transform="rotate(-175.037 175.607 244.81)" fill="#FFF" cx="175.602" cy="244.795" rx=".446" ry=".456"/><ellipse transform="rotate(-175.07 177.218 244.936)" fill="#FFF" cx="177.214" cy="244.936" rx=".445" ry=".456"/><ellipse transform="rotate(-175.02 178.828 245.084)" fill="#FFF" cx="178.826" cy="245.077" rx=".444" ry=".456"/><ellipse transform="rotate(-175.02 180.448 245.22)" fill="#FFF" cx="180.439" cy="245.216" rx=".445" ry=".456"/><ellipse transform="rotate(-175.032 182.056 245.37)" fill="#FFF" cx="182.051" cy="245.357" rx=".445" ry=".455"/><ellipse transform="rotate(-175.02 183.672 245.5)" fill="#FFF" cx="183.663" cy="245.498" rx=".445" ry=".456"/><ellipse transform="rotate(-174.963 173.217 243.35)" fill="#FFF" cx="173.206" cy="243.343" rx=".445" ry=".457"/><path fill="#FFF" d="M174.375 243.443c-.02.252.162.473.407.494s.458-.165.48-.416a.452.452 0 0 0-.404-.492.45.45 0 0 0-.483.415z"/><ellipse transform="rotate(-175.026 176.434 243.633)" fill="#FFF" cx="176.431" cy="243.623" rx=".445" ry=".456"/><ellipse transform="rotate(-175.032 178.047 243.776)" fill="#FFF" cx="178.042" cy="243.763" rx=".445" ry=".457"/><ellipse transform="rotate(-174.968 179.668 243.912)" fill="#FFF" cx="179.656" cy="243.903" rx=".446" ry=".456"/><ellipse transform="rotate(-175.032 181.27 244.056)" fill="#FFF" cx="181.266" cy="244.043" rx=".445" ry=".457"/><ellipse transform="rotate(-175.037 182.885 244.2)" fill="#FFF" cx="182.879" cy="244.184" rx=".446" ry=".457"/><ellipse transform="rotate(-175.026 184.495 244.334)" fill="#FFF" cx="184.491" cy="244.324" rx=".445" ry=".457"/><path fill="#FFF" d="M170.424 240.397l-15.828-1.378.068-.783 15.828 1.378zM154.428 240.88l15.828 1.378.065-.78-15.826-1.378zM154.277 242.7l15.828 1.376.065-.78-15.828-1.38z"/><path fill="#EB6159" d="M144.712 239.62c-.144 1.728 1.11 3.25 2.803 3.396 1.692.147 3.18-1.135 3.323-2.864.145-1.73-1.11-3.253-2.802-3.4-1.69-.147-3.18 1.137-3.324 2.867z"/><path fill="#3A383A" d="M145.48 239.686c-.11 1.297.83 2.438 2.1 2.548 1.27.11 2.386-.852 2.494-2.147.108-1.3-.832-2.44-2.103-2.55-1.268-.112-2.384.85-2.49 2.15z"/><path fill="#5E5E5E" d="M140.067 252.796c-.096 1.153.74 2.167 1.868 2.266l41.993 3.653.173-2.087.47-5.638.174-2.088-41.992-3.654c-1.128-.097-2.12.758-2.216 1.91l-.47 5.638z"/><ellipse transform="rotate(-175.095 173.516 250.39)" fill="#FFF" cx="173.514" cy="250.377" rx=".445" ry=".455"/><ellipse transform="rotate(-175.037 175.13 250.533)" fill="#FFF" cx="175.126" cy="250.517" rx=".446" ry=".454"/><ellipse transform="rotate(-175.026 176.74 250.667)" fill="#FFF" cx="176.738" cy="250.657" rx=".445" ry=".455"/><ellipse transform="rotate(-175.07 178.348 250.803)" fill="#FFF" cx="178.349" cy="250.798" rx=".444" ry=".455"/><ellipse transform="rotate(-175.026 179.973 250.944)" fill="#FFF" cx="179.963" cy="250.938" rx=".445" ry=".454"/><ellipse transform="rotate(-175.032 181.585 251.087)" fill="#FFF" cx="181.575" cy="251.078" rx=".446" ry=".455"/><ellipse transform="rotate(-175.09 183.188 251.228)" fill="#FFF" cx="183.187" cy="251.218" rx=".445" ry=".456"/><ellipse transform="rotate(-174.968 172.53 251.55)" fill="#FFF" cx="172.524" cy="251.536" rx=".445" ry=".454"/><ellipse transform="rotate(-175.07 174.14 251.678)" fill="#FFF" cx="174.136" cy="251.677" rx=".445" ry=".454"/><ellipse transform="rotate(-174.968 175.755 251.83)" fill="#FFF" cx="175.749" cy="251.816" rx=".445" ry=".455"/><ellipse transform="rotate(-174.963 177.372 251.963)" fill="#FFF" cx="177.36" cy="251.957" rx=".445" ry=".454"/><ellipse transform="rotate(-175.095 178.975 252.11)" fill="#FFF" cx="178.973" cy="252.098" rx=".445" ry=".454"/><ellipse transform="rotate(-175.032 180.595 252.247)" fill="#FFF" cx="180.584" cy="252.238" rx=".446" ry=".453"/><ellipse transform="rotate(-174.968 182.204 252.39)" fill="#FFF" cx="182.197" cy="252.378" rx=".445" ry=".454"/><ellipse transform="rotate(-175.07 183.814 252.52)" fill="#FFF" cx="183.809" cy="252.519" rx=".445" ry=".455"/><ellipse transform="rotate(-174.957 173.32 252.854)" fill="#FFF" cx="173.308" cy="252.85" rx=".445" ry=".454"/><ellipse transform="rotate(-175.032 174.924 253.003)" fill="#FFF" cx="174.92" cy="252.99" rx=".445" ry=".454"/><ellipse transform="rotate(-175.02 176.54 253.134)" fill="#FFF" cx="176.532" cy="253.13" rx=".445" ry=".454"/><ellipse transform="rotate(-175.02 178.146 253.278)" fill="#FFF" cx="178.144" cy="253.27" rx=".444" ry=".454"/><ellipse transform="rotate(-175.137 179.754 253.417)" fill="#FFF" cx="179.758" cy="253.411" rx=".445" ry=".453"/><ellipse transform="rotate(-175.032 181.373 253.564)" fill="#FFF" cx="181.368" cy="253.551" rx=".445" ry=".453"/><ellipse transform="rotate(-175.026 182.985 253.7)" fill="#FFF" cx="182.981" cy="253.691" rx=".445" ry=".454"/><ellipse transform="rotate(-174.963 173.114 255.33)" fill="#FFF" cx="173.103" cy="255.322" rx=".445" ry=".455"/><ellipse transform="rotate(-175.032 174.724 255.47)" fill="#FFF" cx="174.714" cy="255.461" rx=".446" ry=".455"/><ellipse transform="rotate(-175.07 176.33 255.6)" fill="#FFF" cx="176.326" cy="255.602" rx=".444" ry=".455"/><ellipse transform="rotate(-175.02 177.947 255.747)" fill="#FFF" cx="177.938" cy="255.743" rx=".445" ry=".455"/><ellipse transform="rotate(-175.026 179.555 255.893)" fill="#FFF" cx="179.552" cy="255.882" rx=".445" ry=".455"/><ellipse transform="rotate(-175.032 181.168 256.036)" fill="#FFF" cx="181.163" cy="256.023" rx=".445" ry=".454"/><ellipse transform="rotate(-175.026 182.78 256.174)" fill="#FFF" cx="182.775" cy="256.164" rx=".445" ry=".455"/><ellipse transform="rotate(-174.963 172.324 254.018)" fill="#FFF" cx="172.319" cy="254.008" rx=".445" ry=".454"/><ellipse transform="rotate(-175.02 173.94 254.152)" fill="#FFF" cx="173.93" cy="254.148" rx=".445" ry=".453"/><ellipse transform="rotate(-175.026 175.552 254.294)" fill="#FFF" cx="175.543" cy="254.288" rx=".445" ry=".453"/><ellipse transform="rotate(-174.963 177.166 254.435)" fill="#FFF" cx="177.154" cy="254.429" rx=".445" ry=".454"/><ellipse transform="rotate(-175.032 178.778 254.578)" fill="#FFF" cx="178.768" cy="254.569" rx=".446" ry=".453"/><ellipse transform="rotate(-175.095 180.386 254.718)" fill="#FFF" cx="180.378" cy="254.709" rx=".445" ry=".453"/><ellipse transform="rotate(-175.032 181.996 254.862)" fill="#FFF" cx="181.991" cy="254.849" rx=".445" ry=".454"/><ellipse transform="rotate(-175.026 183.607 255)" fill="#FFF" cx="183.603" cy="254.989" rx=".445" ry=".454"/><path fill="#FFF" d="M153.696 249.682l15.828 1.377.065-.784-15.83-1.377zM153.54 251.548l15.83 1.376.064-.782-15.828-1.377zM169.23 254.746l-15.827-1.378.068-.783 15.83 1.378z"/><path fill="#EB6159" d="M143.824 250.284c-.144 1.73 1.11 3.252 2.802 3.397 1.692.15 3.18-1.134 3.325-2.863.145-1.73-1.11-3.25-2.802-3.4-1.69-.145-3.18 1.137-3.324 2.867z"/><path fill="#3A383A" d="M144.59 250.35c-.108 1.3.833 2.44 2.1 2.55 1.272.11 2.387-.852 2.495-2.148s-.832-2.44-2.103-2.55c-1.268-.11-2.383.852-2.492 2.15z"/><path fill="#5E5E5E" d="M139.18 263.444c-.096 1.152.74 2.167 1.868 2.266l41.993 3.652s.08-.934.174-2.086l.47-5.638.173-2.09-41.992-3.65c-1.128-.1-2.12.756-2.215 1.908l-.47 5.638z"/><ellipse transform="rotate(-175.09 172.634 261.03)" fill="#FFF" cx="172.627" cy="261.024" rx=".445" ry=".456"/><ellipse transform="rotate(-175.037 174.244 261.18)" fill="#FFF" cx="174.24" cy="261.165" rx=".446" ry=".456"/><ellipse transform="rotate(-174.963 175.857 261.315)" fill="#FFF" cx="175.851" cy="261.305" rx=".445" ry=".456"/><ellipse transform="rotate(-175.07 177.468 261.446)" fill="#FFF" cx="177.463" cy="261.445" rx=".445" ry=".456"/><ellipse transform="rotate(-174.968 179.083 261.6)" fill="#FFF" cx="179.077" cy="261.586" rx=".445" ry=".456"/><ellipse transform="rotate(-175.032 180.7 261.735)" fill="#FFF" cx="180.688" cy="261.725" rx=".446" ry=".456"/><ellipse transform="rotate(-175.032 182.305 261.88)" fill="#FFF" cx="182.301" cy="261.866" rx=".445" ry=".455"/><ellipse transform="rotate(-175.026 171.647 262.19)" fill="#FFF" cx="171.638" cy="262.183" rx=".445" ry=".454"/><ellipse transform="rotate(-175.07 173.254 262.324)" fill="#FFF" cx="173.25" cy="262.323" rx=".445" ry=".455"/><ellipse transform="rotate(-175.09 174.87 262.47)" fill="#FFF" cx="174.862" cy="262.464" rx=".445" ry=".456"/><ellipse transform="rotate(-174.963 176.48 262.614)" fill="#FFF" cx="176.474" cy="262.604" rx=".445" ry=".455"/><ellipse transform="rotate(-175.095 178.095 262.753)" fill="#FFF" cx="178.087" cy="262.744" rx=".445" ry=".455"/><ellipse transform="rotate(-175.032 179.703 262.898)" fill="#FFF" cx="179.698" cy="262.884" rx=".445" ry=".456"/><ellipse transform="rotate(-174.968 181.317 263.038)" fill="#FFF" cx="181.311" cy="263.024" rx=".445" ry=".455"/><ellipse transform="rotate(-175.09 182.924 263.176)" fill="#FFF" cx="182.923" cy="263.165" rx=".445" ry=".456"/><ellipse transform="rotate(-174.963 172.434 263.504)" fill="#FFF" cx="172.422" cy="263.497" rx=".445" ry=".455"/><ellipse transform="rotate(-175.032 174.037 263.65)" fill="#FFF" cx="174.033" cy="263.637" rx=".445" ry=".454"/><ellipse transform="rotate(-174.938 175.653 263.777)" fill="#FFF" cx="175.646" cy="263.778" rx=".444" ry=".454"/><ellipse transform="rotate(-175.02 177.26 263.926)" fill="#FFF" cx="177.258" cy="263.917" rx=".444" ry=".454"/><ellipse transform="rotate(-175.09 178.878 264.065)" fill="#FFF" cx="178.871" cy="264.059" rx=".445" ry=".454"/><ellipse transform="rotate(-175.026 180.492 264.206)" fill="#FFF" cx="180.482" cy="264.199" rx=".445" ry=".454"/><ellipse transform="rotate(-174.963 182.1 264.35)" fill="#FFF" cx="182.095" cy="264.339" rx=".445" ry=".454"/><ellipse transform="rotate(-174.963 172.22 265.98)" fill="#FFF" cx="172.216" cy="265.97" rx=".445" ry=".455"/><ellipse transform="rotate(-174.968 173.84 266.12)" fill="#FFF" cx="173.828" cy="266.109" rx=".446" ry=".456"/><ellipse transform="rotate(-175.07 175.438 266.255)" fill="#FFF" cx="175.44" cy="266.25" rx=".444" ry=".454"/><ellipse transform="rotate(-175.02 177.054 266.398)" fill="#FFF" cx="177.052" cy="266.39" rx=".444" ry=".455"/><ellipse transform="rotate(-174.963 178.677 266.537)" fill="#FFF" cx="178.665" cy="266.53" rx=".445" ry=".456"/><ellipse transform="rotate(-175.026 180.287 266.677)" fill="#FFF" cx="180.277" cy="266.67" rx=".445" ry=".455"/><ellipse transform="rotate(-174.963 181.894 266.823)" fill="#FFF" cx="181.889" cy="266.812" rx=".445" ry=".455"/><ellipse transform="rotate(-174.963 171.444 264.663)" fill="#FFF" cx="171.432" cy="264.656" rx=".445" ry=".457"/><ellipse transform="rotate(-175.026 173.047 264.807)" fill="#FFF" cx="173.044" cy="264.796" rx=".445" ry=".455"/><ellipse transform="rotate(-175.095 174.658 264.95)" fill="#FFF" cx="174.656" cy="264.937" rx=".445" ry=".456"/><ellipse transform="rotate(-174.963 176.28 265.084)" fill="#FFF" cx="176.269" cy="265.077" rx=".445" ry=".457"/><ellipse transform="rotate(-175.037 177.886 265.234)" fill="#FFF" cx="177.881" cy="265.217" rx=".446" ry=".456"/><ellipse transform="rotate(-175.095 179.5 265.367)" fill="#FFF" cx="179.492" cy="265.357" rx=".445" ry=".456"/><ellipse transform="rotate(-174.968 181.112 265.512)" fill="#FFF" cx="181.105" cy="265.498" rx=".445" ry=".456"/><ellipse transform="rotate(-175.026 182.72 265.65)" fill="#FFF" cx="182.717" cy="265.638" rx=".445" ry=".455"/><path fill="#FFF" d="M152.81 260.33l15.827 1.377.066-.782-15.828-1.377zM152.655 262.195l15.827 1.378.065-.784-15.828-1.378zM152.503 264.013l15.828 1.377.066-.782-15.828-1.377z"/><path fill="#EB6159" d="M142.938 260.933c-.144 1.73 1.112 3.25 2.803 3.396 1.692.147 3.18-1.136 3.325-2.865s-1.11-3.25-2.803-3.397c-1.692-.147-3.18 1.135-3.324 2.865z"/><path fill="#3A383A" d="M143.704 261c-.108 1.297.833 2.437 2.1 2.548 1.272.11 2.387-.85 2.495-2.15.107-1.297-.833-2.437-2.103-2.55-1.27-.11-2.385.853-2.493 2.15z"/><path fill="#5E5E5E" d="M138.29 274.124c-.094 1.154.742 2.168 1.87 2.267l41.992 3.655.817-9.814-41.993-3.652c-1.128-.1-2.12.756-2.216 1.91l-.47 5.636z"/><ellipse transform="rotate(-174.968 171.745 271.72)" fill="#FFF" cx="171.739" cy="271.705" rx=".445" ry=".454"/><ellipse transform="rotate(-175.037 173.355 271.862)" fill="#FFF" cx="173.35" cy="271.845" rx=".446" ry=".455"/><ellipse transform="rotate(-174.957 174.966 271.994)" fill="#FFF" cx="174.962" cy="271.985" rx=".444" ry=".454"/><ellipse transform="rotate(-175.07 176.58 272.127)" fill="#FFF" cx="176.574" cy="272.126" rx=".445" ry=".454"/><ellipse transform="rotate(-174.957 178.198 272.27)" fill="#FFF" cx="178.188" cy="272.267" rx=".445" ry=".454"/><ellipse transform="rotate(-174.963 179.81 272.413)" fill="#FFF" cx="179.799" cy="272.406" rx=".445" ry=".455"/><ellipse transform="rotate(-175.095 181.413 272.56)" fill="#FFF" cx="181.412" cy="272.547" rx=".445" ry=".454"/><ellipse transform="rotate(-175.026 170.752 272.874)" fill="#FFF" cx="170.749" cy="272.863" rx=".445" ry=".455"/><ellipse transform="rotate(-175.026 172.364 273.014)" fill="#FFF" cx="172.361" cy="273.002" rx=".445" ry=".455"/><ellipse transform="rotate(-175.026 173.976 273.155)" fill="#FFF" cx="173.973" cy="273.144" rx=".445" ry=".455"/><ellipse transform="rotate(-175.026 175.588 273.295)" fill="#FFF" cx="175.585" cy="273.284" rx=".445" ry=".455"/><ellipse transform="rotate(-175.032 177.202 273.438)" fill="#FFF" cx="177.198" cy="273.424" rx=".445" ry=".454"/><ellipse transform="rotate(-174.963 178.82 273.572)" fill="#FFF" cx="178.809" cy="273.564" rx=".445" ry=".456"/><ellipse transform="rotate(-175.032 180.426 273.72)" fill="#FFF" cx="180.422" cy="273.705" rx=".445" ry=".454"/><ellipse transform="rotate(-175.07 182.038 273.846)" fill="#FFF" cx="182.034" cy="273.845" rx=".445" ry=".455"/><ellipse transform="rotate(-175.032 171.536 274.19)" fill="#FFF" cx="171.532" cy="274.177" rx=".445" ry=".455"/><ellipse transform="rotate(-174.975 173.133 274.307)" fill="#FFF" cx="173.144" cy="274.317" rx=".446" ry=".455"/><ellipse transform="rotate(-175.026 174.76 274.47)" fill="#FFF" cx="174.757" cy="274.458" rx=".445" ry=".456"/><ellipse transform="rotate(-175.02 176.377 274.603)" fill="#FFF" cx="176.368" cy="274.598" rx=".445" ry=".455"/><ellipse transform="rotate(-175.026 177.985 274.75)" fill="#FFF" cx="177.982" cy="274.739" rx=".445" ry=".454"/><ellipse transform="rotate(-175.032 179.598 274.892)" fill="#FFF" cx="179.594" cy="274.878" rx=".445" ry=".456"/><ellipse transform="rotate(-174.963 181.21 275.03)" fill="#FFF" cx="181.206" cy="275.019" rx=".445" ry=".455"/><ellipse transform="rotate(-175.032 171.33 276.663)" fill="#FFF" cx="171.327" cy="276.649" rx=".445" ry=".455"/><path fill="#FFF" d="M172.495 276.75a.452.452 0 0 0 .406.494c.247.02.462-.164.482-.415a.45.45 0 0 0-.405-.492.446.446 0 0 0-.482.412z"/><ellipse transform="rotate(-175.026 174.554 276.94)" fill="#FFF" cx="174.551" cy="276.93" rx=".445" ry=".456"/><path fill="#FFF" d="M175.72 277.03c-.02.253.16.473.406.494.245.02.46-.164.48-.417a.45.45 0 0 0-.405-.49.448.448 0 0 0-.48.414z"/><ellipse transform="rotate(-175.026 177.78 277.222)" fill="#FFF" cx="177.777" cy="277.21" rx=".445" ry=".456"/><ellipse transform="rotate(-175.032 179.39 277.364)" fill="#FFF" cx="179.387" cy="277.35" rx=".445" ry=".456"/><path fill="#FFF" d="M180.557 277.452a.45.45 0 0 0 .405.493c.246.02.46-.164.48-.416a.45.45 0 0 0-.404-.49.447.447 0 0 0-.48.412z"/><ellipse transform="rotate(-175.09 170.544 275.347)" fill="#FFF" cx="170.543" cy="275.336" rx=".445" ry=".456"/><path fill="#FFF" d="M171.71 275.438c-.02.25.163.472.408.494a.448.448 0 0 0 .48-.417.45.45 0 0 0-.405-.492.45.45 0 0 0-.482.415z"/><ellipse transform="rotate(-175.026 173.777 275.624)" fill="#FFF" cx="173.768" cy="275.617" rx=".445" ry=".456"/><path fill="#FFF" d="M174.936 275.718c-.02.252.16.472.406.494a.45.45 0 0 0 .48-.417.453.453 0 0 0-.406-.49.448.448 0 0 0-.48.413z"/><ellipse transform="rotate(-175.037 176.997 275.914)" fill="#FFF" cx="176.992" cy="275.897" rx=".446" ry=".456"/><ellipse transform="rotate(-175.095 178.605 276.05)" fill="#FFF" cx="178.603" cy="276.037" rx=".445" ry=".456"/><ellipse transform="rotate(-174.975 180.204 276.168)" fill="#FFF" cx="180.216" cy="276.178" rx=".446" ry=".457"/><ellipse transform="rotate(-175.02 181.837 276.322)" fill="#FFF" cx="181.828" cy="276.318" rx=".445" ry=".456"/><path fill="#FFF" d="M151.92 271.01l15.83 1.378.063-.783-15.828-1.377zM151.766 272.876l15.827 1.378.066-.785-15.83-1.38zM151.614 274.693l15.828 1.377.065-.783-15.828-1.377z"/><path fill="#EB6159" d="M142.048 271.612c-.144 1.73 1.11 3.252 2.803 3.398 1.693.147 3.18-1.136 3.325-2.866.144-1.73-1.11-3.25-2.804-3.397-1.69-.147-3.178 1.136-3.322 2.865z"/><path fill="#3A383A" d="M142.815 271.678c-.108 1.3.832 2.438 2.102 2.55 1.27.11 2.386-.85 2.493-2.15.108-1.295-.832-2.436-2.102-2.548-1.27-.11-2.385.85-2.493 2.148z"/><path fill="#5E5E5E" d="M137.403 284.79c-.096 1.154.74 2.168 1.87 2.266l41.99 3.654s.08-.935.175-2.088l.47-5.64.174-2.086-41.992-3.653c-1.127-.1-2.12.756-2.216 1.91l-.47 5.638z"/><ellipse transform="rotate(-174.963 170.863 282.378)" fill="#FFF" cx="170.851" cy="282.37" rx=".445" ry=".455"/><ellipse transform="rotate(-175.1 172.464 282.527)" fill="#FFF" cx="172.462" cy="282.511" rx=".446" ry=".455"/><ellipse transform="rotate(-175.02 174.084 282.656)" fill="#FFF" cx="174.075" cy="282.651" rx=".445" ry=".455"/><ellipse transform="rotate(-175.02 175.695 282.795)" fill="#FFF" cx="175.687" cy="282.791" rx=".445" ry=".455"/><ellipse transform="rotate(-175.026 177.31 282.94)" fill="#FFF" cx="177.3" cy="282.931" rx=".445" ry=".456"/><ellipse transform="rotate(-174.968 178.918 283.087)" fill="#FFF" cx="178.912" cy="283.072" rx=".445" ry=".455"/><ellipse transform="rotate(-175.032 180.528 283.226)" fill="#FFF" cx="180.524" cy="283.211" rx=".445" ry=".455"/><ellipse transform="rotate(-175.095 169.862 283.543)" fill="#FFF" cx="169.861" cy="283.529" rx=".445" ry=".455"/><path fill="#FFF" d="M171.03 283.63c-.02.25.16.47.406.492.244.02.458-.163.48-.414s-.16-.472-.405-.493-.46.166-.48.415z"/><ellipse transform="rotate(-175.026 173.088 283.822)" fill="#FFF" cx="173.085" cy="283.81" rx=".445" ry=".454"/><ellipse transform="rotate(-175.09 174.705 283.957)" fill="#FFF" cx="174.698" cy="283.95" rx=".445" ry=".455"/><ellipse transform="rotate(-175.026 176.32 284.098)" fill="#FFF" cx="176.31" cy="284.09" rx=".445" ry=".453"/><ellipse transform="rotate(-175.026 177.925 284.243)" fill="#FFF" cx="177.922" cy="284.231" rx=".445" ry=".454"/><ellipse transform="rotate(-175.095 179.535 284.385)" fill="#FFF" cx="179.534" cy="284.371" rx=".445" ry=".454"/><ellipse transform="rotate(-175.02 181.155 284.516)" fill="#FFF" cx="181.146" cy="284.511" rx=".445" ry=".453"/><ellipse transform="rotate(-175.032 170.648 284.857)" fill="#FFF" cx="170.645" cy="284.842" rx=".445" ry=".454"/><ellipse transform="rotate(-175.032 172.267 284.993)" fill="#FFF" cx="172.257" cy="284.983" rx=".446" ry=".453"/><ellipse transform="rotate(-175.07 173.873 285.124)" fill="#FFF" cx="173.869" cy="285.123" rx=".445" ry=".454"/><ellipse transform="rotate(-174.957 175.492 285.27)" fill="#FFF" cx="175.48" cy="285.264" rx=".445" ry=".454"/><ellipse transform="rotate(-174.968 177.1 285.418)" fill="#FFF" cx="177.094" cy="285.403" rx=".445" ry=".454"/><ellipse transform="rotate(-175.095 178.714 285.554)" fill="#FFF" cx="178.706" cy="285.544" rx=".445" ry=".455"/><ellipse transform="rotate(-175.032 180.322 285.7)" fill="#FFF" cx="180.318" cy="285.684" rx=".445" ry=".454"/><ellipse transform="rotate(-175.09 170.446 287.323)" fill="#FFF" cx="170.439" cy="287.315" rx=".445" ry=".454"/><ellipse transform="rotate(-174.968 172.064 287.467)" fill="#FFF" cx="172.051" cy="287.456" rx=".446" ry=".454"/><ellipse transform="rotate(-175.02 173.672 287.6)" fill="#FFF" cx="173.663" cy="287.596" rx=".445" ry=".454"/><ellipse transform="rotate(-175.07 175.28 287.736)" fill="#FFF" cx="175.275" cy="287.736" rx=".444" ry=".454"/><ellipse transform="rotate(-175.09 176.896 287.884)" fill="#FFF" cx="176.889" cy="287.877" rx=".445" ry=".454"/><ellipse transform="rotate(-175.032 178.504 288.032)" fill="#FFF" cx="178.5" cy="288.017" rx=".445" ry=".453"/><ellipse transform="rotate(-175.09 180.113 288.168)" fill="#FFF" cx="180.113" cy="288.157" rx=".445" ry=".454"/><ellipse transform="rotate(-175.026 169.665 286.01)" fill="#FFF" cx="169.655" cy="286.002" rx=".445" ry=".453"/><ellipse transform="rotate(-174.963 171.272 286.154)" fill="#FFF" cx="171.267" cy="286.143" rx=".445" ry=".455"/><ellipse transform="rotate(-175.032 172.883 286.297)" fill="#FFF" cx="172.88" cy="286.283" rx=".445" ry=".454"/><ellipse transform="rotate(-175.026 174.502 286.43)" fill="#FFF" cx="174.492" cy="286.423" rx=".445" ry=".453"/><ellipse transform="rotate(-174.968 176.117 286.574)" fill="#FFF" cx="176.104" cy="286.563" rx=".446" ry=".454"/><ellipse transform="rotate(-175.032 177.727 286.714)" fill="#FFF" cx="177.716" cy="286.704" rx=".446" ry=".453"/><ellipse transform="rotate(-175.032 179.34 286.855)" fill="#FFF" cx="179.328" cy="286.844" rx=".446" ry=".454"/><ellipse transform="rotate(-174.957 180.95 286.99)" fill="#FFF" cx="180.94" cy="286.984" rx=".445" ry=".454"/><path fill="#FFF" d="M151.033 281.675l15.828 1.377.065-.78-15.827-1.38zM150.877 283.54l15.83 1.378.064-.782-15.828-1.378zM150.726 285.356l15.828 1.378.065-.78-15.83-1.378z"/><path fill="#EB6159" d="M141.16 282.277c-.143 1.73 1.112 3.253 2.804 3.4 1.692.146 3.18-1.137 3.324-2.868.144-1.73-1.11-3.25-2.803-3.397-1.692-.148-3.18 1.136-3.324 2.864z"/><path fill="#3A383A" d="M141.928 282.344c-.108 1.297.832 2.438 2.1 2.55 1.272.11 2.386-.854 2.495-2.15.107-1.297-.833-2.437-2.102-2.548-1.27-.11-2.384.85-2.492 2.148z"/><path fill="#14CAF4" d="M149.73 229.298c-.05.602-.568 1.05-1.155.998a1.09 1.09 0 0 1-.977-1.184c.05-.603.568-1.05 1.158-.997.588.05 1.026.58.975 1.183zM148.844 239.96c-.05.604-.57 1.05-1.157 1a1.09 1.09 0 0 1-.977-1.185c.05-.604.57-1.05 1.16-.998.586.052 1.024.58.974 1.184zM147.955 250.635a1.08 1.08 0 0 1-1.157 1 1.09 1.09 0 0 1-.977-1.185 1.08 1.08 0 0 1 1.16-.998c.587.05 1.024.582.975 1.183zM147.067 261.3c-.05.6-.568 1.048-1.156.997a1.09 1.09 0 0 1-.976-1.184c.05-.603.57-1.05 1.158-.998.59.05 1.025.58.975 1.185zM146.177 271.987a1.077 1.077 0 0 1-1.157.997c-.59-.05-1.026-.58-.977-1.183a1.08 1.08 0 0 1 1.16-.997 1.09 1.09 0 0 1 .974 1.184zM145.29 282.65c-.05.602-.57 1.05-1.157.997a1.088 1.088 0 0 1-.977-1.183 1.08 1.08 0 0 1 1.16-1 1.09 1.09 0 0 1 .974 1.185z"/><path opacity=".2" fill="#FFF" d="M159.33 291.968l-3.753-.325 29.46-66.54 1.676.144-.503 6.043z"/><path opacity=".1" fill="#FFF" d="M181.103 292.648l-42.9-3.733 5.534-66.476 42.9 3.732z"/><path opacity=".3" d="M148.274 220.888l-.203 2.456-6.97-.607-5.54 66.547 6.97.608L147.767 227l39.267 3.417.51-6.113z"/><path opacity=".2" fill="#FFF" d="M152.288 291.355l-16.665-1.45 29.555-66.532 16.665 1.45z"/><path fill="#D8D8D8" d="M181.29 290.41l-41.135-3.58 5.18-62.248 41.136 3.58.355-4.266-45.928-3.997-5.892 70.78 45.93 3.996z"/><path fill="#D8D8D8" d="M186.194 228.137l-5.182 62.25-41.134-3.58-4.525 3.903 50.098 4.36 5.893-70.78-45.928-3.997z"/><path opacity=".1" d="M186.194 228.137l-5.182 62.25-41.134-3.58-4.525 3.903 50.098 4.36 5.893-70.78z"/></g><g><path fill="#344C5B" d="M192.874 231.46c-.577 1.15-1.957 1.607-3.082 1.018L145.4 209.25c-1.126-.59-1.572-2-.996-3.15l31.675-63.273c.575-1.153 1.954-1.608 3.08-1.02l44.392 23.23c1.125.588 1.57 1.998.995 3.148l-31.673 63.276z"/><path fill="#FFE4C0" d="M193.57 230.07c-.577 1.152-1.957 1.608-3.083 1.02l-44.393-23.23c-1.125-.588-1.57-2-.995-3.152l31.673-63.273c.576-1.15 1.956-1.606 3.082-1.017l44.392 23.228c1.126.59 1.57 2.002.996 3.15L193.57 230.07z"/><path fill="#F28916" d="M196.062 234.063l-41.735-24.754 34.87-61.455 41.734 24.754z"/><path fill="#FFE4C0" d="M194.265 228.682c-.577 1.15-1.957 1.606-3.083 1.02l-44.392-23.23c-1.126-.59-1.57-2-.995-3.15l31.674-63.275a2.27 2.27 0 0 1 3.082-1.02l44.392 23.23c1.125.588 1.57 2 .995 3.15l-31.675 63.275z"/><path opacity=".2" d="M207.318 213.52l14.828-52.368-43.475-12.866-19.32 68.242 39.61 11.722z"/><path fill="#31BDDD" d="M201.505 228.543l-43.475-12.866 19.32-68.243 43.476 12.866z"/><path opacity=".2" d="M216.852 164.942l-30.033 59.996 5.888 3.08c1.125.592 2.48.183 3.027-.91l29.044-58.018-7.928-4.148z"/><path fill="#FFE4C0" d="M195.308 226.598c-.577 1.15-1.956 1.606-3.082 1.017l-44.392-23.23c-1.125-.587-1.57-1.998-.995-3.15l31.673-63.272a2.268 2.268 0 0 1 3.083-1.017l44.392 23.228c1.126.588 1.57 2 .995 3.15l-31.675 63.274z"/><path fill="#344C5B" d="M196.003 225.21c-.577 1.15-1.956 1.604-3.082 1.017L148.53 203c-1.127-.592-1.573-2.002-.997-3.152l31.674-63.275c.576-1.15 1.956-1.607 3.082-1.018l44.392 23.23c1.125.588 1.57 2 .994 3.15l-31.673 63.274z"/><path fill="#344C5B" d="M146.6 209.42l-1.89-1.793-.124-1.892 3.332-6.656 3.058 1.598z"/><path opacity=".4" d="M187.556 231.308l-3.228-1.69 36.89-73.694 3.228 1.688z"/><path fill="#FFE4C0" d="M146.855 205.628c-.576 1.15-.428 2.406.332 2.804l2.29 1.2c.76.395 1.843-.216 2.418-1.367l.348-.693c.576-1.15.428-2.406-.33-2.805l-2.29-1.198c-.76-.397-1.843.215-2.42 1.364l-.348.694z"/><path opacity=".4" d="M151.36 212.46l-1.16-2.082-2.435.2 3.164-6.32 3.595 1.882z"/><path fill="#F7534F" d="M152.04 212.815l-1.162-2.083-2.434.202 3.165-6.322 3.593 1.88z"/><path opacity=".2" d="M192.92 226.227l-43.513-22.77s-.532-.09-1.144.277l44.31 23.186c1.126.59 2.504.135 3.08-1.017l.35-.694a2.268 2.268 0 0 1-3.082 1.017z"/><path fill="#89C602" d="M186.96 230.997l-3.227-1.69 36.89-73.694 3.23 1.69z"/><path opacity=".1" fill="#FFF" d="M186.96 230.997l-1.613-.844 36.89-73.695 1.615.845z"/><path opacity=".1" d="M186.96 230.997l-3.227-1.69 3.13-6.25 3.228 1.688z"/></g><g opacity=".3"><path d="M191.974 229.222c-.758-2.422.334-4.882 2.905-5.723 2.595-.85 4.88.506 5.64 2.928.75 2.397-.368 4.778-2.964 5.627-2.57.84-4.83-.436-5.582-2.833zm6.25-2.045c-.45-1.442-1.55-2.02-2.708-1.64-1.134.37-1.725 1.5-1.273 2.942.42 1.34 1.55 1.936 2.685 1.564 1.16-.378 1.716-1.526 1.297-2.867zm.475 14.303l5.36-20.697 1.915-.627-5.385 20.706-1.89.618zm5.394-6.11c-.758-2.422.334-4.882 2.905-5.722 2.57-.84 4.88.506 5.637 2.928.75 2.396-.383 4.812-2.954 5.653-2.57.84-4.84-.463-5.59-2.86zm6.275-2.052c-.444-1.416-1.575-2.013-2.734-1.633-1.16.38-1.717 1.526-1.274 2.942.436 1.393 1.533 1.97 2.692 1.592 1.16-.38 1.75-1.51 1.315-2.902z"/></g><path opacity=".3" d="M223.126 251.43l-15.684-50.134c-.595-1.9-2.58-2.946-4.437-2.34l-20.458 6.69c-1.857.608-2.88 2.64-2.287 4.538l15.684 50.133c.594 1.9 2.582 2.947 4.438 2.34l20.456-6.69c1.86-.607 2.882-2.64 2.288-4.537zM58.592 183.485l5.705 13.423 31.753 5.336-12.333-12.608c-5.022-5.135-25.125-6.15-25.125-6.15z"/><g><path fill="#F5883C" d="M208.763 253.357c.42 1.346-.305 2.783-1.62 3.213s-2.72-.312-3.14-1.656c-.42-1.345.304-2.78 1.62-3.212 1.313-.43 2.72.312 3.14 1.655z"/><path fill="#757575" d="M220.205 250.434c.594 1.898-.428 3.93-2.287 4.538l-20.457 6.69c-1.855.607-3.843-.44-4.437-2.34l-15.684-50.133c-.595-1.9.43-3.932 2.286-4.54l20.457-6.688c1.857-.607 3.843.44 4.438 2.34l15.685 50.132z"/><path fill="#EBEBEB" d="M217.17 246l-24.19 7.91-12.382-39.58 24.19-7.91z"/><path fill="#161616" d="M208.405 252.875c.667 1.095.34 2.534-.732 3.216a2.254 2.254 0 0 1-3.145-.746c-.667-1.095-.34-2.535.73-3.217a2.256 2.256 0 0 1 3.147.748z"/><path opacity=".1" fill="#FFF" d="M206.112 256.19l.936-4.11a2.03 2.03 0 0 0-1.674.233c-.97.618-1.266 1.922-.662 2.913.322.532.84.865 1.4.963z"/><path fill="#161616" d="M195.177 204.698a.703.703 0 0 1-.444.88l-4.07 1.33a.682.682 0 0 1-.86-.452.703.703 0 0 1 .444-.88l4.07-1.332a.68.68 0 0 1 .86.454zM188.828 206.774a.744.744 0 0 1-.47.93.724.724 0 0 1-.913-.478.748.748 0 0 1 .47-.935.727.727 0 0 1 .913.484z"/><g><path fill="#3C87C8" d="M189.053 228.226c-.758-2.42.333-4.88 2.905-5.722 2.596-.85 4.882.506 5.64 2.928.75 2.397-.367 4.778-2.963 5.627-2.572.84-4.832-.437-5.582-2.834zm6.25-2.044c-.45-1.443-1.548-2.02-2.708-1.642-1.134.372-1.725 1.5-1.273 2.944.42 1.34 1.55 1.937 2.685 1.565 1.158-.38 1.716-1.528 1.297-2.868zm.475 14.303l5.36-20.698 1.916-.627-5.385 20.707-1.892.618zm5.394-6.11c-.757-2.423.334-4.882 2.906-5.723 2.57-.84 4.88.506 5.638 2.93.75 2.395-.383 4.81-2.954 5.652-2.57.84-4.84-.463-5.59-2.86zm6.276-2.052c-.443-1.417-1.574-2.013-2.733-1.634-1.16.378-1.717 1.526-1.274 2.942.436 1.392 1.534 1.97 2.693 1.59s1.75-1.507 1.315-2.9z"/></g></g><path opacity=".3" d="M148.372 258.087l2.606-.93-5.183-9.634-13.876-40.716-1.13.402v-.002l-4.12 1.467-1.265-3.71c-2.115-6.207-8.04-9.95-14.165-9.482a13.542 13.542 0 0 0-5.43.763c-7.238 2.58-11.076 10.697-8.554 18.098l1.462 4.29-6.42 2.287 13.878 40.727 2.502 8.93.42 1.5.564-.2 37.358-13.308 1.352-.483zm-27.685-52.09l1.46 4.29-18.905 6.735-1.265-3.712c-1.98-5.808 1.033-12.18 6.712-14.203a10.683 10.683 0 0 1 2.528-.556c4.188.336 8 3.138 9.47 7.447z"/><g><path fill="#432918" d="M126.27 216.87a1.49 1.49 0 0 1-1.906-.94l-3.733-10.954c-1.978-5.807-8.208-8.886-13.888-6.863-5.68 2.024-8.692 8.395-6.712 14.203l3.733 10.953c.272.797-.142 1.672-.922 1.95a1.492 1.492 0 0 1-1.904-.943l-3.733-10.954c-2.522-7.4 1.314-15.52 8.554-18.1 7.238-2.577 15.18 1.345 17.7 8.746l3.734 10.953c.272.797-.14 1.67-.92 1.948z"/><path fill="#937150" d="M149.03 256.163l-40.182 14.314-17.365-50.955 38.49-13.71 13.875 40.715z"/><path fill="#EACDA9" d="M145.074 257.572l-37.358 13.31-17.366-50.956 38.49-13.712 13.877 40.717z"/><path fill="#CCAF93" d="M146.206 257.17l-39.055 13.91-2.922-10.437 38.49-13.712z"/><path opacity=".05" d="M146.425 257.092l-38.71 13.79 8.916-14.31 12.21-50.358 13.877 40.717z"/><path fill="#432918" d="M102.96 222.908c.48 1.412-.25 2.956-1.632 3.45-1.382.492-2.894-.255-3.375-1.666-.482-1.414.25-2.96 1.63-3.45 1.383-.493 2.894.253 3.376 1.666zM126.387 214.562c.482 1.413-.25 2.96-1.63 3.45-1.382.492-2.894-.254-3.374-1.666-.482-1.413.25-2.96 1.63-3.45 1.382-.494 2.893.253 3.374 1.666z"/><g opacity=".2"><path d="M120.766 209.092l2.408 7.064c.27.798 1.125 1.22 1.905.94s1.19-1.15.92-1.948l-2.408-7.064-2.826 1.008zM97.337 217.437l2.407 7.065c.273.8 1.126 1.22 1.906.94s1.193-1.148.92-1.948l-2.407-7.064-2.826 1.007z"/></g><path fill="#937150" d="M124.376 216.897a1.49 1.49 0 0 1-1.904-.94L118.738 205c-1.98-5.806-8.21-8.886-13.89-6.86-5.68 2.022-8.692 8.395-6.713 14.203l3.733 10.953c.27.797-.14 1.67-.92 1.947a1.49 1.49 0 0 1-1.905-.94L95.31 213.35c-2.52-7.4 1.316-15.52 8.554-18.1 7.238-2.578 15.18 1.346 17.702 8.745l3.733 10.955c.27.798-.142 1.67-.924 1.947z"/><path opacity=".1" d="M146.206 257.17l-.564-4.323 3.316 3.34z"/><path opacity=".1" d="M106.73 269.582l.42 1.5 39.056-13.913-.5-1.47z"/><path opacity=".3" d="M113.205 222.66l7.083 7.123 9.752-1.93-4.436 9.088 4.808 8.89-9.825-1.506-6.782 7.42-1.635-10.016-9-4.3 8.814-4.687z"/></g><path opacity=".3" d="M79.458 227.517l.012-.013-.246-.244-.002-.002-.002-.002-7.073-7.018-.556-.55c-4.596 4.842-10.994 4.94-15.73.242-4.737-4.7-4.834-11.24-.237-16.084l-.63-.626-6.73-6.677-.012.013c-.08-.083-.15-.174-.233-.257-5.368-5.325-13.973-5.16-19.22.37l-7.58 7.986 9.965 9.885-28.308 29.83 31.206 30.958 1.918-2.02 26.39-27.807 9.47 9.396 7.58-7.985c5.165-5.442 5.14-14.047.02-19.393z"/><path fill="#2D77AD" d="M38.706 221.948l7.578-7.985c5.25-5.53 5.152-14.33-.214-19.653-5.367-5.325-13.973-5.16-19.222.37l-7.58 7.986 19.438 19.282zM69.91 252.905l7.58-7.984c5.248-5.53 5.15-14.328-.215-19.653-5.368-5.324-13.973-5.158-19.22.372l-7.58 7.984 19.435 19.28z"/><path fill="#FFD658" d="M72.07 250.63l-50.64-50.24-2.16 2.276 50.64 50.24z"/><path fill="#3C87C8" d="M70.2 218.247c-4.597 4.844-12.162 4.96-16.9.26s-4.85-12.435-.254-17.277l-6.73-6.677-45.39 47.825 31.207 30.96 45.39-47.825-7.323-7.266z"/><path fill="#FFD658" d="M32.132 273.337L.926 242.377l1.918-2.02 31.206 30.96zM53.913 217.94c-4.737-4.7-4.834-11.24-.237-16.085l-2.103-2.087c-5.405 5.695-5.273 14.794.298 20.32a13.84 13.84 0 0 0 19.876-.306l-2.103-2.087c-4.597 4.845-10.994 4.943-15.73.244z"/><g><path fill="#4FA9ED" d="M134.924 177.127l-9.21 8.557-11.854-3.876-2.643-12.434 9.636-6.553 11.427 1.873z"/><path opacity=".2" fill="#333" d="M121.114 163.08c.437-.478-9.777 6.854-9.777 6.854l.714 3.357 11.558 3.28 9.64-7.33-.07-.324.285-.19-.89-4.19-11.46-1.456z"/><path fill="#4FA9ED" d="M121.048 162.775c.438-.476-10.46 6.753-10.46 6.753l.715 3.357 12.02 2.925 10.14-7.085-.954-4.492-11.462-1.458z"/><path fill="#5FB3FF" d="M110.588 169.528l.043.2c2.75.344 11.898 1.957 11.898 1.957l9.972-7.488.008.036-11.544-1.565c.437-.478-10.376 6.86-10.376 6.86z"/><path opacity=".2" fill="#333" d="M132.508 164.233l-9.98 7.453 3.185 13.998 9.21-8.557-1.745-8.21.285-.19z"/><path fill="#FF3C00" d="M117.478 182.947l-1.558-8.882-.205-.105-.698-3.557 9.94-7.18 2.22.31-9.36 7.44.713 3.67c.01.05.185-.002.195.048.744 3.822 1.62 9.238 1.655 9.25.053.017-2.902-.993-2.902-.993z"/><path opacity=".2" fill="#333" d="M115.93 174.11l2.796.58.1.52-2.846-.808-.042-.23"/><path fill="#FF3C00" d="M115.793 165.99l10.27 3.024 1.103 4.11-.254.213 2.307 9.134 1.938-1.81-1.877-8.89.237-.287-1.102-4.178-10.803-2.533z"/><path opacity=".2" fill="#333" d="M127.09 173.924l-.178-.587 2.37-1.566.09.42z"/><path fill="#D63509" d="M121.82 166.298s-12.45-9.146-11.8-1.303c.653 7.844 6.996 3.308 11.445 2.32.815-.18.356-1.017.356-1.017zm-2.53.326c-2.72.603-6.593 3.372-6.99-1.417-.398-4.79 7.206.795 7.206.795s.28.512-.217.622z"/><path fill="#D63509" d="M121.757 167.2s15.346-.9 10.827-6.668c-4.52-5.77-7.697 1.95-11.035 5.632-.61.673.207 1.036.207 1.036zm2.016-1.91c2.04-2.25 3.98-6.964 6.74-3.44 2.76 3.525-6.613 4.075-6.613 4.075s-.5-.223-.127-.635z"/><path opacity=".2" fill="#333" d="M120.14 167.025c-.173.07-.184 2.064-1.512 2.982-1.327.92 1.457.27 2.234.416.776.145.94-3.323.672-3.708-.27-.385-1.395.31-1.395.31z"/><path fill="#D63509" d="M119.795 167.164c-.172.07-.183 2.064-1.51 2.985-1.328.92 1.455.27 2.232.413.777.146.94-3.324.673-3.71-.268-.383-1.395.31-1.395.31z"/><path opacity=".2" fill="#333" d="M121.568 167.058s1.37 1.73 1.58 2.285c.213.558 3.094.066 2.88-.786-.213-.854-3.474-1.72-3.474-1.72l-.986.22z"/><path fill="#D63509" d="M121.72 166.896s1.37 1.73 1.58 2.285c.213.56 3.093.068 2.88-.785-.212-.854-3.473-1.72-3.473-1.72l-.988.22z"/><path fill="#C42A06" d="M119.675 166.016s3.002-1.525 3.68-.53c.676.992-.357 1.626-.763 1.82-.406.195-1.086.315-1.472.253-.384-.064-1.504-.8-1.445-1.544z"/></g><g><path fill="#F2AC30" d="M102.077 172.656l-11.492 23.49-25.64 1.57-14.15-21.92 13.77-19.956 23.363-5.104z"/><path opacity=".2" fill="#333" d="M65.257 156.14c.495-1.25-13.824 20.645-13.824 20.645l3.823 5.92 24.637-2.493 13.212-21.454-.372-.574.41-.583-4.766-7.383-23.12 5.924z"/><path fill="#F2AC30" d="M64.91 155.604c.497-1.25-15.213 20.966-15.213 20.966l3.822 5.92 25.266-3.53 14.357-21.36-5.11-7.92-23.122 5.924z"/><path fill="#FFBD39" d="M49.697 176.57l.23.354c5.537-1.43 24.325-5.3 24.325-5.3l13.74-22.007.04.062-23.364 5.78c.494-1.25-14.97 21.11-14.97 21.11z"/><path opacity=".2" fill="#333" d="M88.032 149.68l-13.78 21.945 16.333 24.522 11.492-23.49-9.344-14.474.41-.583z"/><path fill="#FF3C00" d="M72.74 197.152l-9.473-15.91-.472-.046-3.937-6.317 13.9-21.397 4.502-1.09-12.596 21.45s1.76 2.84 4.05 6.524c.054.09.353-.146.408-.058 4.218 6.788 9.852 16.546 9.925 16.54l-6.307.302z"/><path opacity=".2" fill="#333" d="M63.313 181.318l5.81-1.007.573.93-6.068.606-.25-.41"/><path fill="#FF3C00" d="M57.133 165.794l21.977-2.003 5.118 7.072-.333.606 11.095 15.824 2.41-4.962-10.085-15.68.24-.738-5.163-7.202-22.642 3.356z"/><path opacity=".2" fill="#333" d="M84.665 172.46l-.77-.992 3.42-4.817.475.734z"/><path fill="#D63509" d="M68.963 161.794s-30.633-8.118-23.66 6.483c6.97 14.602 15.87 1.037 23.718-4.253 1.436-.967-.057-2.23-.057-2.23zm-4.633 2.558c-4.796 3.23-10.23 11.516-14.488 2.6-4.26-8.92 14.45-3.963 14.45-3.963s.91.77.038 1.362z"/><path fill="#D63509" d="M69.5 163.58s28.885-13.416 15.978-21.082c-12.905-7.666-13.393 9.62-17.135 19.248-.683 1.762 1.156 1.835 1.156 1.835zm2.49-5.212c2.285-5.882 2.58-16.438 10.467-11.758 7.883 4.683-9.762 12.883-9.762 12.883s-1.123-.047-.706-1.125z"/><path opacity=".2" fill="#333" d="M66.256 164.478c-.28.264 1.152 4.11-.732 6.896-1.887 2.78 2.998-.593 4.6-.906 1.6-.312-.613-7.114-1.41-7.65-.797-.537-2.458 1.66-2.458 1.66z"/><path fill="#D63509" d="M65.696 165.007c-.28.266 1.155 4.113-.73 6.897-1.886 2.78 3-.59 4.6-.904 1.6-.312-.61-7.114-1.407-7.653-.8-.535-2.464 1.66-2.464 1.66z"/><path opacity=".2" fill="#333" d="M69.03 163.45s3.897 2.287 4.71 3.195c.815.912 6-2.23 4.97-3.71-1.032-1.478-7.94-.66-7.94-.66l-1.74 1.174z"/><path fill="#D63509" d="M69.203 163.024s3.9 2.285 4.714 3.194c.814.912 6-2.228 4.97-3.708-1.033-1.48-7.94-.66-7.94-.66l-1.744 1.174z"/><path fill="#C42A06" d="M64.63 162.888s4.665-5.223 6.693-3.825c2.03 1.395.498 3.4-.14 4.087-.64.684-1.863 1.433-2.65 1.604-.785.177-3.477-.39-3.904-1.866z"/></g><g><path fill="#F2AC30" d="M112.144 150.658l-7.794.706-4.494-6.55 3.3-7.25 7.26.464 5.028 5.38z"/><path opacity=".2" fill="#333" d="M110.452 138.26c.396-.07-7.444-.37-7.444-.37l-.89 1.96 4.566 6.134 7.552.077.086-.188.214.014 1.11-2.44-5.194-5.186z"/><path fill="#F2AC30" d="M110.533 138.08c.396-.066-7.748-.684-7.748-.684l-.89 1.96 4.93 6.134 7.712.395 1.192-2.62-5.197-5.184z"/><path fill="#FFBD39" d="M102.785 137.396l-.053.117c1.247 1.24 5.23 5.603 5.23 5.603l7.776.13-.01.02-5.198-5.27c.397-.07-7.745-.6-7.745-.6z"/><path opacity=".2" fill="#333" d="M115.73 143.266l-7.77-.15-3.61 8.248 7.794-.706 2.18-4.787.213.015z"/><path fill="#FF3C00" d="M101.244 146.793l2.523-5.052-.063-.133.973-2.052 7.647.267.995 1.02-7.454.087-1.007 2.115c-.016.027.092.07.08.1-1.05 2.2-2.625 5.254-2.612 5.272l-1.084-1.624z"/><path opacity=".2" fill="#333" d="M103.755 141.765l1.184 1.38-.145.3-1.124-1.512.066-.132"/><path fill="#FF3C00" d="M106.706 137.646l4.018 5.508-.976 2.487-.207.008-2.24 5.47 1.643-.153 2.366-5.18.225-.054 1.002-2.518-4.467-5.467z"/><path opacity=".2" fill="#333" d="M109.413 146.01l.128-.362 1.77.138-.11.243z"/><path fill="#D63509" d="M109.61 140.145s-2.833-9.42-5.424-5.238c-2.59 4.18 2.272 4.374 4.868 5.61.474.224.556-.372.556-.372zm-1.39-.82c-1.584-.757-4.554-.874-2.972-3.428 1.582-2.554 3.313 3.2 3.313 3.2s-.05.364-.34.228z"/><path fill="#D63509" d="M109.242 140.572s8.017 5.516 7.9.87-4.58-2.016-7.62-1.47c-.555.1-.28.6-.28.6zm1.72-.173c1.857-.334 4.582-1.94 4.655.896.07 2.84-4.828-.53-4.828-.53s-.168-.305.172-.367z"/><path opacity=".2" fill="#333" d="M108.497 139.854c-.11-.03-.86.963-1.866.908-1.005-.057.63.7.965 1.074.335.375 1.707-1.298 1.716-1.595.01-.296-.813-.386-.813-.386z"/><path fill="#D63509" d="M108.273 139.792c-.112-.032-.86.963-1.867.906-1.005-.055.63.702.965 1.075.336.375 1.708-1.297 1.717-1.594.01-.3-.814-.388-.814-.388z"/><path opacity=".2" fill="#333" d="M109.2 140.427s.043 1.398-.058 1.76c-.1.36 1.524 1.234 1.734.724.21-.508-1.1-2.21-1.1-2.21l-.575-.273z"/><path fill="#D63509" d="M109.336 140.404s.043 1.398-.058 1.76c-.1.362 1.524 1.235 1.735.726.21-.51-1.1-2.21-1.1-2.21l-.577-.276z"/><path fill="#C42A06" d="M108.64 139.17s2.07.403 2.04 1.164c-.03.76-.783.676-1.06.615-.274-.062-.66-.267-.83-.447-.17-.18-.456-.984-.15-1.333z"/></g><path fill="#FFCB2F" d="M8.425 256.45h211.622v53.228H8.425z"/><path opacity=".3" d="M213.116 155.62a2.32 2.32 0 0 0 .14-.348c.02-.065.034-.133.05-.2.012-.056.025-.11.032-.166.018-.114.024-.228.024-.342v-.02c-.003-.5-.157-1.002-.488-1.42l-3.483-4.39a2.195 2.195 0 0 0-3.134-.333l-3.423 2.84a.54.54 0 0 0-.71-.02l-4.6 3.814a.567.567 0 0 0-.116.73l-36.604 30.363-.013-.016-7.316 12.61 5.14-1.786 8.438-2.932 35.828-29.718.038.05.767-.637-.04-.048.016-.012a.54.54 0 0 0 .712.02l4.6-3.814a.567.567 0 0 0 .153-.658l3.422-2.84c.243-.2.428-.448.563-.715.002 0 .003-.005.006-.01zm-50.488 32.81z"/><g><path fill="#27B3D8" d="M201.48 160.852l-6.247-7.874-37.637 31.216 6.248 7.875z"/><path opacity=".2" d="M201.527 160.813l-1.856-2.337-37.68 31.254 1.854 2.34z"/><path opacity=".2" fill="#FFF" d="M197.185 155.255l-1.866-2.35-37.724 31.29 1.865 2.35z"/><path fill="#FFE0A9" d="M150.267 196.79l13.578-4.72v-.005c.634-.526.73-1.48.215-2.13a1.458 1.458 0 0 0-2.083-.223c.867-.72 1-2.024.296-2.914a2 2 0 0 0-2.85-.304h-.002c.622-.518.717-1.45.214-2.084a1.427 1.427 0 0 0-2.037-.217l-.013-.017-7.317 12.613z"/><path opacity=".05" fill="#3C3C3B" d="M150.267 196.79l13.578-4.72v-.005c.634-.526.73-1.48.215-2.13a1.458 1.458 0 0 0-2.083-.223c.866-.72-11.71 7.077-11.71 7.077z"/><path fill="#3C3C3B" d="M153.037 192.015l-2.77 4.774 5.14-1.788z"/><path fill="#FF839E" d="M209.667 151.19c.776.977.63 2.413-.33 3.205l-6.003 4.98a2.197 2.197 0 0 1-3.136-.333l-3.482-4.39a2.314 2.314 0 0 1 .327-3.206l6.005-4.98a2.195 2.195 0 0 1 3.135.333l3.484 4.39z"/><path opacity=".1" fill="#3C3C3B" d="M209.82 151.447l-5.947 4.93 1.23 1.552 4.235-3.515c.882-.73 1.065-2.007.48-2.968z"/><path fill="#DADADA" d="M205.843 157.11a.577.577 0 0 1-.08.803l-4.6 3.814a.55.55 0 0 1-.784-.083l-6.145-7.745a.575.575 0 0 1 .082-.8l4.598-3.815c.24-.2.59-.16.785.082l6.143 7.744z"/><g opacity=".3"><path fill="#3C3C3B" d="M205.092 157.3a.38.38 0 0 1-.054.527.362.362 0 0 1-.514-.056l-5.73-7.22a.38.38 0 0 1 .055-.526.362.362 0 0 1 .513.055l5.73 7.22zM204.14 158.09a.38.38 0 0 1-.053.526.363.363 0 0 1-.515-.056l-5.73-7.22a.38.38 0 0 1 .055-.525.36.36 0 0 1 .515.054l5.728 7.22zM203.188 158.88a.377.377 0 0 1-.054.525.36.36 0 0 1-.514-.055l-5.73-7.22a.38.38 0 0 1 .055-.525.36.36 0 0 1 .514.055l5.728 7.22zM202.236 159.67a.38.38 0 0 1-.054.524.36.36 0 0 1-.515-.054l-5.728-7.22a.38.38 0 0 1 .053-.527.36.36 0 0 1 .513.056l5.73 7.22zM201.284 160.46a.38.38 0 0 1-.055.524.36.36 0 0 1-.515-.053l-5.73-7.22a.38.38 0 0 1 .056-.525.36.36 0 0 1 .515.055l5.73 7.22z"/></g><path opacity=".3" fill="#FFF" d="M206.09 148.866a.548.548 0 0 1-.785-.085 1.237 1.237 0 0 0-1.76-.187.55.55 0 0 1-.786-.084.58.58 0 0 1 .082-.803 2.336 2.336 0 0 1 3.33.355.58.58 0 0 1-.083.804z"/><path opacity=".3" fill="#3C3C3B" d="M200.476 161.766l-6.264-7.894-.765.634 6.263 7.893z"/></g><path fill="#FFCB2F" d="M218 15.93V299.07H16V15.93h202M234 0H0v315h234V0z"/><g><path d="M30.64 48.63V30.21h9.74c3.523 0 5.326 2.234 5.326 4.693 0 2.32-1.443 3.867-3.19 4.227 1.97.302 3.55 2.21 3.55 4.53 0 2.76-1.858 4.97-5.38 4.97H30.64zm11.043-13.036c0-1.16-.832-2.018-2.164-2.018h-4.94v4.006h4.94c1.33 0 2.163-.827 2.163-1.988zm.362 7.512c0-1.16-.833-2.155-2.387-2.155H34.58v4.283h5.078c1.5 0 2.387-.8 2.387-2.127zM48.146 39.432c0-5.66 4.3-9.527 9.85-9.527 4.078 0 6.436 2.21 7.74 4.503l-3.384 1.658c-.777-1.494-2.442-2.682-4.356-2.682-3.357 0-5.8 2.57-5.8 6.048 0 3.48 2.442 6.05 5.8 6.05 1.914 0 3.58-1.16 4.356-2.68l3.384 1.63c-1.33 2.29-3.662 4.53-7.74 4.53-5.55 0-9.85-3.867-9.85-9.53zM68.09 48.63V30.21h13.095v3.45H72.03v3.894h8.96v3.453h-8.96v4.17h9.155v3.453H68.09zM90.477 39.432c0-5.66 4.3-9.527 9.848-9.527 4.08 0 6.438 2.21 7.74 4.503l-3.384 1.658c-.775-1.494-2.44-2.682-4.355-2.682-3.356 0-5.798 2.57-5.798 6.048 0 3.48 2.442 6.05 5.798 6.05 1.915 0 3.58-1.16 4.356-2.68l3.386 1.63c-1.332 2.29-3.662 4.53-7.74 4.53-5.55 0-9.85-3.867-9.85-9.53zM121.41 48.63l-5.606-7.374-1.442 1.713v5.66h-3.94V30.21h3.94v8.228l6.547-8.23h4.854l-7.352 8.645 7.852 9.777h-4.855zM128.064 48.63V30.21h3.94v11.9l8.573-11.9h4.05v18.42h-3.94V36.285l-8.822 12.345h-3.8zM147.178 45.48c1.886-.247 2.94-.992 3.523-5.854l1.083-9.417h13.15v14.967h1.665v6.85h-3.94V48.63h-11.54v3.397h-3.94V45.48zm5.188-.303h8.6V33.66h-5.632l-.72 6.242c-.278 2.488-1.083 4.2-2.248 5.275zM179.885 48.63l-5.604-7.374-1.442 1.713v5.66h-3.94V30.21h3.94v8.228l6.548-8.23h4.855l-7.35 8.645 7.85 9.777h-4.855zM186.542 48.63V30.21h3.94v11.9l8.572-11.9h4.05v18.42h-3.938V36.285l-8.823 12.345h-3.8z"/></g><path fill="#FFCB2F" d="M28.392 57.816h176.962v29.718H28.392z"/><g><path d="M30.503 110.262V96.714h7.163c2.59 0 3.917 1.646 3.917 3.453 0 1.707-1.062 2.844-2.346 3.11 1.448.22 2.61 1.623 2.61 3.33 0 2.03-1.365 3.654-3.957 3.654h-7.387zm8.122-9.586c0-.854-.612-1.483-1.592-1.483H33.4v2.945h3.632c.98 0 1.593-.61 1.593-1.462zm.265 5.523c0-.855-.613-1.585-1.755-1.585H33.4v3.148h3.734c1.102 0 1.756-.588 1.756-1.564zM48.6 103.498c0-4.083 3-7.008 7.1-7.008 4.122 0 7.122 2.925 7.122 7.008s-3 7.01-7.122 7.01c-4.102 0-7.1-2.927-7.1-7.01zm11.242 0c0-2.54-1.633-4.448-4.143-4.448s-4.122 1.908-4.122 4.448c0 2.52 1.612 4.448 4.12 4.448 2.51 0 4.144-1.927 4.144-4.448zM64.043 107.946c1.388-.183 2.164-.73 2.592-4.305l.795-6.927h9.67v11.01h1.225v5.038H75.43v-2.5h-8.49v2.5h-2.897v-4.814zm3.816-.22h6.324v-8.473h-4.142l-.53 4.592c-.204 1.828-.796 3.086-1.653 3.88zM89.342 110.262v-5.688h-6.428v5.688h-2.896V96.714h2.896v5.322h6.428v-5.322h2.917v13.548H89.34zM94.278 103.498c0-4.083 3-7.008 7.1-7.008 4.123 0 7.122 2.925 7.122 7.008s-3 7.01-7.12 7.01c-4.103 0-7.102-2.927-7.102-7.01zm11.243 0c0-2.54-1.632-4.448-4.14-4.448-2.51 0-4.123 1.908-4.123 4.448 0 2.52 1.612 4.448 4.122 4.448 2.508 0 4.14-1.927 4.14-4.448zM122.373 110.262v-9.486l-3.835 9.486h-1.265l-3.836-9.486v9.486h-2.897V96.714h4.06l3.306 8.187 3.306-8.186h4.08v13.548h-2.92zM145.04 110.262v-9.486l-3.837 9.486h-1.265l-3.837-9.486v9.486h-2.896V96.714h4.06l3.306 8.187 3.305-8.186h4.082v13.548h-2.918zM150.648 110.262V96.714h9.63v2.54h-6.733v2.864h6.59v2.537h-6.59v3.07h6.733v2.536h-9.63zM161.89 103.498c0-4.164 3.16-7.008 7.242-7.008 3 0 4.733 1.623 5.692 3.312l-2.49 1.217c-.57-1.095-1.795-1.97-3.202-1.97-2.47 0-4.265 1.89-4.265 4.448 0 2.562 1.795 4.448 4.265 4.448 1.407 0 2.632-.853 3.203-1.97l2.49 1.198c-.98 1.688-2.694 3.332-5.693 3.332-4.08 0-7.243-2.844-7.243-7.008zM179.7 110.262v-11.01h-3.98v-2.538h10.855v2.54h-3.958v11.008H179.7zM188.43 110.262V96.714h9.632v2.54h-6.734v2.864h6.59v2.537h-6.59v3.07h6.734v2.536h-9.63zM199.958 108.84a1.65 1.65 0 0 1 1.633-1.644c.898 0 1.653.75 1.653 1.644 0 .873-.755 1.625-1.652 1.625-.898 0-1.632-.752-1.632-1.625zm.49-2.986l-.428-9.14h3.122l-.408 9.14h-2.286z"/></g><g fill="#FFF"><path d="M40.68 73.825c0-3.358 2.365-6.204 6.282-6.204 3.943 0 6.308 2.847 6.308 6.205 0 3.39-2.365 6.23-6.308 6.23-3.917.002-6.283-2.84-6.283-6.23zm9.34 0c0-1.84-1.11-3.433-3.057-3.433s-3.03 1.594-3.03 3.433c0 1.867 1.083 3.46 3.03 3.46s3.056-1.593 3.056-3.46zM57.778 79.764v-9.127H54.45v-2.723h9.81v2.723H60.93v9.127h-3.154zM80.594 79.764v-9.127h-4.93v9.127h-3.13v-11.85h11.19v11.85h-3.13zM93.97 79.764v-1.227c-.81.957-2.216 1.52-3.768 1.52-1.897 0-4.14-1.273-4.14-3.923 0-2.772 2.242-3.828 4.14-3.828 1.577 0 2.982.516 3.77 1.446v-1.594c0-1.2-1.036-1.986-2.612-1.986-1.282 0-2.464.465-3.475 1.398l-1.183-2.084c1.454-1.277 3.327-1.865 5.2-1.865 2.71 0 5.2 1.08 5.2 4.488v7.655h-3.13zm0-2.846v-1.47c-.516-.69-1.5-1.034-2.512-1.034-1.232 0-2.243.64-2.243 1.792 0 1.104 1.01 1.742 2.243 1.742 1.01 0 1.996-.344 2.513-1.03zM103.334 78.242v6.035h-3.13V67.914h3.13v1.496c.912-1.152 2.218-1.79 3.672-1.79 3.056 0 5.273 2.258 5.273 6.205 0 3.95-2.218 6.23-5.274 6.23-1.404.002-2.71-.586-3.672-1.813zm5.693-4.417c0-2.035-1.208-3.433-3.006-3.433-1.01 0-2.167.59-2.686 1.35v4.193c.518.736 1.675 1.35 2.687 1.35 1.8 0 3.007-1.396 3.007-3.46zM116.762 79.764v-9.127h-3.327v-2.723h9.808v2.723h-3.327v9.127h-3.154zM125.212 79.764v-11.85h3.13v4.392h4.928v-4.392h3.13v11.85h-3.13V75.03h-4.93v4.734h-3.128zM138.738 73.825c0-3.433 2.538-6.204 6.16-6.204 3.55 0 5.963 2.65 5.963 6.525v.688h-8.845c.197 1.495 1.404 2.745 3.425 2.745 1.01 0 2.415-.438 3.18-1.177l1.378 2.014c-1.183 1.08-3.055 1.643-4.903 1.643-3.62 0-6.357-2.426-6.357-6.232zm3.598-7.382a1.658 1.658 0 0 1-1.676-1.667c0-.91.74-1.646 1.676-1.646.912 0 1.65.736 1.65 1.646 0 .93-.738 1.667-1.65 1.667zm2.562 3.656c-1.946 0-2.784 1.447-2.932 2.623h5.865c-.073-1.13-.862-2.624-2.932-2.624zm2.637-3.657a1.673 1.673 0 0 1-1.675-1.667c0-.91.763-1.646 1.675-1.646s1.675.736 1.675 1.646c0 .93-.763 1.667-1.675 1.667zM156.256 78.242v6.035h-3.13V67.914h3.13v1.496c.91-1.152 2.218-1.79 3.67-1.79 3.057 0 5.274 2.258 5.274 6.205 0 3.95-2.217 6.23-5.273 6.23-1.403.002-2.71-.586-3.67-1.813zm5.693-4.417c0-2.035-1.21-3.433-3.007-3.433-1.012 0-2.17.59-2.687 1.35v4.193c.517.736 1.675 1.35 2.687 1.35 1.797 0 3.006-1.396 3.006-3.46zM166.727 73.825c0-3.358 2.366-6.204 6.283-6.204 3.943 0 6.308 2.847 6.308 6.205 0 3.39-2.365 6.23-6.308 6.23-3.917.002-6.283-2.84-6.283-6.23zm9.34 0c0-1.84-1.11-3.433-3.057-3.433-1.947 0-3.03 1.594-3.03 3.433 0 1.867 1.083 3.46 3.03 3.46 1.947 0 3.056-1.593 3.056-3.46zM181.632 79.764v-11.85h7.54c2.416 0 3.648 1.447 3.648 3.043 0 1.422-.912 2.38-2.02 2.696 1.305.295 2.266 1.473 2.266 2.9 0 1.786-1.282 3.21-3.67 3.21h-7.764zm8.01-8.292c0-.588-.42-1.005-1.11-1.005h-3.77v1.985h3.77c.69 0 1.11-.44 1.11-.98zm.22 4.635c0-.59-.443-1.102-1.23-1.102h-3.87v2.208h3.87c.763 0 1.23-.417 1.23-1.106z"/></g><g><path fill="#FFD42D" d="M47.785 136.803a26.194 26.194 0 0 0 13.613 14.547 26.164 26.164 0 0 0-13.613 14.545 26.15 26.15 0 0 0-13.61-14.545 26.18 26.18 0 0 0 13.61-14.547z"/><path fill="#FF7600" d="M47.785 144.02a13.193 13.193 0 0 0 6.858 7.33 13.15 13.15 0 0 0-6.858 7.326 13.15 13.15 0 0 0-6.854-7.326 13.193 13.193 0 0 0 6.855-7.33z"/><path fill="#FFD42D" d="M55.12 122.274a13.29 13.29 0 0 0 6.923 7.396 13.326 13.326 0 0 0-6.923 7.4 13.335 13.335 0 0 0-6.922-7.4 13.297 13.297 0 0 0 6.922-7.396z"/><path fill="#FF7600" d="M55.12 125.946a6.69 6.69 0 0 0 3.488 3.725 6.694 6.694 0 0 0-3.488 3.732 6.697 6.697 0 0 0-3.486-3.73 6.7 6.7 0 0 0 3.486-3.726z"/><g><path fill="#FFD42D" d="M32.66 126.453a16.367 16.367 0 0 0 8.52 9.107 16.413 16.413 0 0 0-8.52 9.108 16.4 16.4 0 0 0-8.524-9.108 16.357 16.357 0 0 0 8.523-9.107z"/><path fill="#FF7600" d="M32.66 130.973a8.254 8.254 0 0 0 4.293 4.588 8.25 8.25 0 0 0-4.294 4.594 8.247 8.247 0 0 0-4.293-4.593 8.25 8.25 0 0 0 4.292-4.587z"/></g></g><g><path fill="#FFD42D" d="M105.212 151.74a11.14 11.14 0 0 0 5.79 6.19 11.124 11.124 0 0 0-5.79 6.186 11.12 11.12 0 0 0-5.79-6.187 11.122 11.122 0 0 0 5.79-6.19z"/><path fill="#FF7600" d="M105.212 154.81a5.615 5.615 0 0 0 2.918 3.12 5.592 5.592 0 0 0-2.918 3.115 5.587 5.587 0 0 0-2.915-3.115 5.613 5.613 0 0 0 2.915-3.12z"/></g><g><path fill="#FFD42D" d="M114.4 184.947a17.025 17.025 0 0 0 8.848 9.457 16.997 16.997 0 0 0-8.85 9.454 16.986 16.986 0 0 0-8.847-9.454 17.01 17.01 0 0 0 8.85-9.457z"/><path fill="#FF7600" d="M114.4 189.638a8.593 8.593 0 0 0 4.457 4.767 8.552 8.552 0 0 0-4.458 4.76 8.545 8.545 0 0 0-4.457-4.76 8.58 8.58 0 0 0 4.456-4.767z"/></g><g><path fill="#FFD42D" d="M147.59 159.43a19.826 19.826 0 0 1-10.307 11.012 19.807 19.807 0 0 1 10.307 11.013c1.85-4.9 5.58-8.865 10.305-11.013a19.813 19.813 0 0 1-10.305-11.013z"/><path fill="#FF7600" d="M147.59 164.893a9.987 9.987 0 0 1-5.193 5.55 9.955 9.955 0 0 1 5.193 5.546 9.952 9.952 0 0 1 5.19-5.548 9.987 9.987 0 0 1-5.19-5.55z"/><path fill="#FFD42D" d="M142.037 148.43c-.94 2.49-2.84 4.51-5.24 5.6 2.4 1.096 4.3 3.113 5.24 5.604a10.1 10.1 0 0 1 5.24-5.604 10.07 10.07 0 0 1-5.24-5.6z"/><path fill="#FF7600" d="M142.037 151.21a5.06 5.06 0 0 1-2.64 2.82 5.062 5.062 0 0 1 2.64 2.824 5.068 5.068 0 0 1 2.64-2.825 5.065 5.065 0 0 1-2.64-2.82z"/><g><path fill="#FFD42D" d="M159.04 151.593a12.39 12.39 0 0 1-6.45 6.896 12.43 12.43 0 0 1 6.45 6.895 12.423 12.423 0 0 1 6.454-6.896 12.394 12.394 0 0 1-6.453-6.897z"/><path fill="#FF7600" d="M159.04 155.015a6.25 6.25 0 0 1-3.25 3.474 6.247 6.247 0 0 1 3.25 3.476 6.246 6.246 0 0 1 3.25-3.477 6.25 6.25 0 0 1-3.25-3.475z"/></g></g><g><path fill="#FFF" d="M116.84 278.65l.383-.2 7.787-4.07a1.12 1.12 0 0 0-1.172-.87l-7.15.56a1.07 1.07 0 0 0-.98 1.177l.1 1.014c.06.602-.358 1.128-.925 1.173l-1.032.08 1.568 15.91 1.38-14.336.04-.436z"/><g fill="#FFF"><path d="M124.77 282.898h-1.89v2.296h1.89c.725 0 1.27-.434 1.27-1.15 0-.712-.546-1.146-1.27-1.146z"/><path d="M133.793 270.63l-16.188 8.464-1.738 18.047 16.12-1.27 9.066-.716 5.794-.458 1.736-18.045-14.79-6.02zm-7.565 19.182l-1.846-3.022h-1.502v3.022h-1.802v-8.508h3.958c1.764 0 2.843 1.162 2.843 2.74 0 1.507-.757 2.312-1.67 2.528l2.085 3.24h-2.067zm9.184-6.914h-4.19v1.798h3.735v1.594h-3.734v1.927h4.19v1.595h-5.992v-8.508h5.992v1.594zm9.112 5.472c-.863.97-2.067 1.607-3.604 1.607-2.475 0-4.505-1.734-4.505-4.414 0-2.69 2.03-4.4 4.505-4.4 1.764 0 2.868.894 3.503 1.9l-1.5.817a2.387 2.387 0 0 0-2.003-1.11c-1.535 0-2.652 1.187-2.652 2.793 0 1.607 1.117 2.795 2.652 2.795.75 0 1.46-.333 1.802-.65v-.91h-2.233v-1.604h4.034v3.176z"/></g><path fill="#FFF" d="M148.916 288.92c0-.562.47-1.034 1.027-1.034.56 0 1.03.473 1.03 1.033s-.47 1.033-1.03 1.033a1.044 1.044 0 0 1-1.027-1.034zM157.556 289.812l-2.027-3.022h-1.32v3.022h-1.803v-8.508h3.96c1.764 0 2.842 1.162 2.842 2.74 0 1.507-.94 2.312-1.854 2.528l2.268 3.24h-2.068zm-.187-5.768c0-.712-.547-1.146-1.27-1.146h-1.89v2.296h1.89c.722 0 1.27-.433 1.27-1.15zM160.567 286.42v-5.116h1.83v5.052c0 1.185.5 2.003 1.81 2.003 1.307 0 1.797-.82 1.797-2.004v-5.052h1.84v5.102c0 2.118-1.063 3.56-3.638 3.56-2.577 0-3.64-1.455-3.64-3.546z"/><g fill="#FFF"><path d="M64.846 288.462l.865-1.406c.552.52 1.685 1.043 2.628 1.043.865 0 1.274-.35 1.274-.823 0-1.266-4.515-.237-4.515-3.24 0-1.283 1.117-2.404 3.115-2.404 1.29 0 2.312.442 3.067 1.043l-.803 1.375c-.456-.488-1.32-.884-2.25-.884-.723 0-1.195.332-1.195.76 0 1.138 4.5.188 4.5 3.272 0 1.392-1.18 2.45-3.288 2.45-1.322 0-2.596-.442-3.398-1.186zM77.938 289.46l-2.014-2.942-.913.98v1.96h-1.998v-10.547h2v6.31l2.878-3.398h2.454l-3.004 3.463 3.1 4.175h-2.502zM81.23 279.797c0-.664.55-1.187 1.195-1.187.66 0 1.195.522 1.195 1.187S83.085 281 82.425 281a1.21 1.21 0 0 1-1.195-1.203zm.205 9.662v-7.64h1.998v7.64h-1.998zM90.64 289.46v-.98c-.6.758-1.432 1.17-2.345 1.17-1.92 0-3.367-1.456-3.367-4.002 0-2.498 1.432-4.016 3.367-4.016.896 0 1.746.395 2.344 1.17v-3.89h2.013v10.547H90.64zm0-2.468v-2.705c-.33-.505-1.055-.87-1.73-.87-1.134 0-1.92.902-1.92 2.23 0 1.312.786 2.214 1.92 2.214.675 0 1.4-.362 1.73-.868zM99.564 289.46l-2.014-2.942-.912.98v1.96h-2v-10.547h2v6.31l2.88-3.398h2.453l-3.004 3.463 3.1 4.175h-2.502zM102.855 279.797c0-.664.55-1.187 1.196-1.187.662 0 1.196.522 1.196 1.187S104.71 281 104.05 281a1.21 1.21 0 0 1-1.195-1.203zm.205 9.662v-7.64h2v7.64h-2z"/></g><ellipse fill="#FFF" cx="108.774" cy="288.331" rx="1.128" ry="1.134"/></g><g opacity=".3"><path d="M56.79 233.42c-.233-3.798-3.322-6.72-6.996-6.715v-.016l-11.677.66v-.01c-2.056.002-3.787-1.635-3.916-3.76-.133-2.21 1.51-4.115 3.672-4.253 2.08-.135 3.882 1.418 4.136 3.503h.008l.18 3.32 3.084-.09-.197-3.622h-.015c-.452-3.728-3.672-6.497-7.387-6.26-3.863.246-6.8 3.646-6.558 7.6.23 3.797 3.32 6.72 6.995 6.714v.014l11.677-.657v.008c2.057-.002 3.787 1.632 3.918 3.76.134 2.21-1.51 4.116-3.67 4.252-2.082.135-3.883-1.417-4.137-3.503h-.01l-.21-3.376-3.08.16.225 3.608h.014c.453 3.727 3.67 6.496 7.387 6.26 3.864-.244 6.8-3.648 6.56-7.597z"/></g></svg>