<?xml version="1.0" encoding="utf-8"?>
<!-- Generator: Adobe Illustrator 20.1.0, SVG Export Plug-In . SVG Version: 6.00 Build 0)  -->
<svg version="1.1" baseProfile="basic" id="Слой_1"
	 xmlns="http://www.w3.org/2000/svg" xmlns:xlink="http://www.w3.org/1999/xlink" x="0px" y="0px" width="95px" height="80px"
	 viewBox="0 0 95 80" xml:space="preserve">
<g>
	<rect x="3.2" y="15.8" fill="#00D094" width="87.6" height="60.5"/>
	<g>
		<path fill="#5B5B5B" d="M86.8,0H7.7C3.4,0,0,3.4,0,7.7V18v54.4C0,76.6,3.4,80,7.7,80h79.1c4.2,0,7.7-3.4,7.7-7.7V18V7.7
			C94.4,3.4,91,0,86.8,0z M30.1,6.2h55.5c1.8,0,3.2,1.5,3.2,3.3c0,1.8-1.4,3.3-3.2,3.3H30.1c-1.8,0-3.2-1.5-3.2-3.3
			C26.9,7.7,28.4,6.2,30.1,6.2z M20,5.4c2,0,3.7,1.6,3.7,3.7c0,2-1.7,3.7-3.7,3.7c-2,0-3.7-1.6-3.7-3.7C16.3,7.1,17.9,5.4,20,5.4z
			 M9.3,5.4c2,0,3.7,1.6,3.7,3.7c0,2-1.7,3.7-3.7,3.7c-2,0-3.7-1.6-3.7-3.7C5.6,7.1,7.2,5.4,9.3,5.4z M90.6,72.3
			c0,2.1-1.7,3.8-3.8,3.8H7.7c-2.1,0-3.8-1.7-3.8-3.8V18h86.7V72.3z"/>
	</g>
	<g opacity="0.2">
		<path fill="#060000" d="M94.4,72.3V40.1L70.1,15.8l-12,14.4v0L13.1,73l7,7h66.7C91,80,94.4,76.6,94.4,72.3z"/>
	</g>
	<g>
		<g>
			<circle fill="#0084FD" cx="48" cy="40.7" r="33.3"/>
			<polygon fill="#0084FD" points="18.6,52.9 33.3,67.7 13.1,73 			"/>
		</g>
		<g>
			<g>
				<circle fill="#FFFFFF" cx="28.3" cy="34.3" r="3.9"/>
			</g>
			<g>
				<circle fill="#FFFFFF" cx="67.6" cy="34.3" r="3.9"/>
			</g>
		</g>
		<path fill="#FFFFFF" d="M27.2,44.7C28.1,55.4,37,63.8,48,63.8s19.9-8.4,20.8-19.1H27.2z"/>
		<path opacity="0.1" fill="#060000" d="M70.1,15.8L13.2,72.7L13.1,73l16.7-4.4C35.1,72,41.3,74,48,74c18.4,0,33.3-14.9,33.3-33.3
			C81.3,30.8,77,21.9,70.1,15.8z"/>
	</g>
</g>
<g>
</g>
<g>
</g>
<g>
</g>
<g>
</g>
<g>
</g>
<g>
</g>
<g>
</g>
<g>
</g>
<g>
</g>
<g>
</g>
<g>
</g>
<g>
</g>
<g>
</g>
<g>
</g>
<g>
</g>
</svg>
