<?xml version="1.0" encoding="utf-8"?>
<!-- Generator: Adobe Illustrator 20.0.0, SVG Export Plug-In . SVG Version: 6.00 Build 0)  -->
<svg version="1.1" baseProfile="basic" id="Слой_1"
	 xmlns="http://www.w3.org/2000/svg" xmlns:xlink="http://www.w3.org/1999/xlink" x="0px" y="0px" width="75px" height="64px"
	 viewBox="0 0 75 64" xml:space="preserve">
<g>
	<g>
		<path fill="#41BCF4" d="M75.4,57.9c0,3.4-2.7,6.1-6.1,6.1H6.1C2.7,64,0,61.3,0,57.9V6.2c0-3.4,2.7-6.1,6.1-6.1h63.2
			c3.4,0,6.1,2.7,6.1,6.1V57.9z"/>
	</g>
	<g>
		<path fill="#FF5046" d="M69.3,0H6.1C2.7,0,0,2.7,0,6.1v8.2h75.4V6.1C75.4,2.7,72.7,0,69.3,0z"/>
	</g>
	<g>
		<g>
			<circle fill="#FFFFFF" cx="16.1" cy="7.7" r="2.9"/>
		</g>
		<g>
			<path fill="#FFFFFF" d="M11.2,7.5c0,1.6-1.3,2.9-2.9,2.9c-1.6,0-2.9-1.3-2.9-2.9c0-1.6,1.3-2.9,2.9-2.9
				C9.9,4.5,11.2,5.9,11.2,7.5z"/>
		</g>
	</g>
	<g>
		<path fill="#FFFFFF" d="M70.1,7.6c0,1.5-1.2,2.6-2.6,2.6H23.2c-1.4,0-2.6-1.2-2.6-2.6l0,0c0-1.5,1.1-2.6,2.6-2.6h44.3
			C69,5,70.1,6.1,70.1,7.6L70.1,7.6z"/>
	</g>
	<g opacity="0.5">
		<g>
			<path d="M59.8,53.5h-6.2v-3.9h6.2V53.5z M47.3,53.5h-6.2v-3.9h6.2V53.5z M34.8,53.5h-4c-0.9,0-1.9-0.1-2.8-0.4l1.2-3.7
				c0.5,0.2,1,0.2,1.6,0.2h4V53.5z M22.4,47.8c-0.4-1.1-0.6-2.2-0.6-3.3c0-1.5,0.4-3,1.1-4.4l3.4,1.9c-0.4,0.8-0.6,1.6-0.6,2.5
				c0,0.7,0.1,1.3,0.4,1.9L22.4,47.8z M29.8,39.5l-0.7-3.8c0.5-0.1,1.1-0.2,1.7-0.2h4.9v3.9h-4.9c0,0,0,0,0,0
				C30.4,39.4,30.1,39.4,29.8,39.5z M44.9,39.4h-6.3v-3.9h6.3V39.4z M51.9,36.1l-3-2.5c0.8-0.9,1.2-2.1,1.2-3.3c0-0.3,0-0.6-0.1-1
				l3.8-0.7c0.1,0.6,0.2,1.1,0.2,1.7C53.9,32.5,53.2,34.5,51.9,36.1z M47.4,25.8c-0.7-0.4-1.6-0.6-2.5-0.6h-2.7v-3.9h2.7
				c1.5,0,3,0.4,4.3,1.1L47.4,25.8z M36,25.2h-6.2v-3.9H36V25.2z M23.5,25.2h-6.2v-3.9h6.2V25.2z"/>
		</g>
		<g>
			<polygon points="57.2,58.2 55,56 59.6,51.5 54.5,46.4 56.7,44.2 64,51.5 			"/>
		</g>
	</g>
	<g>
		<g>
			<path fill="#FFFFFF" d="M58.8,52.5h-6.2v-3.9h6.2V52.5z M46.3,52.5H40v-3.9h6.2V52.5z M33.8,52.5h-4c-0.9,0-1.9-0.1-2.8-0.4
				l1.2-3.7c0.5,0.2,1,0.2,1.6,0.2h4V52.5z M21.4,46.8c-0.4-1.1-0.6-2.2-0.6-3.3c0-1.5,0.4-3,1.1-4.4l3.4,1.9
				c-0.4,0.8-0.6,1.6-0.6,2.5c0,0.7,0.1,1.3,0.4,1.9L21.4,46.8z M28.8,38.4l-0.7-3.8c0.5-0.1,1.1-0.2,1.7-0.2h4.9v3.9h-4.9
				c0,0,0,0,0,0C29.4,38.4,29.1,38.4,28.8,38.4z M43.9,38.4h-6.3v-3.9h6.3V38.4z M50.8,35.1l-3-2.5c0.8-0.9,1.2-2.1,1.2-3.3
				c0-0.3,0-0.6-0.1-1l3.8-0.7c0.1,0.6,0.2,1.1,0.2,1.7C52.9,31.4,52.2,33.5,50.8,35.1z M46.4,24.8c-0.7-0.4-1.6-0.6-2.5-0.6h-2.7
				v-3.9h2.7c1.5,0,3,0.4,4.3,1.1L46.4,24.8z M34.9,24.2h-6.2v-3.9h6.2V24.2z M22.5,24.2h-6.2v-3.9h6.2V24.2z"/>
		</g>
		<g>
			<polygon fill="#FFFFFF" points="56.2,57.2 54,55 58.5,50.5 53.5,45.4 55.7,43.2 63,50.5 			"/>
		</g>
	</g>
</g>
<g>
</g>
<g>
</g>
<g>
</g>
<g>
</g>
<g>
</g>
<g>
</g>
<g>
</g>
<g>
</g>
<g>
</g>
<g>
</g>
<g>
</g>
<g>
</g>
<g>
</g>
<g>
</g>
<g>
</g>
</svg>
