<?xml version="1.0" encoding="utf-8"?>
<!-- Generator: Adobe Illustrator 20.0.0, SVG Export Plug-In . SVG Version: 6.00 Build 0)  -->
<svg version="1.1" id="Слой_1" xmlns="http://www.w3.org/2000/svg" xmlns:xlink="http://www.w3.org/1999/xlink" x="0px" y="0px"
	 width="64px" height="64px" viewBox="0 0 64 64" enable-background="new 0 0 64 64" xml:space="preserve">
<g>
	<path fill="#F8A200" d="M33.8,0v30.2H64C64,13.5,50.5,0,33.8,0z"/>
	<path fill="#0084FD" d="M30.2,3.5C13.5,3.5,0,17.1,0,33.8C0,50.5,13.5,64,30.2,64c16.7,0,30.2-13.5,30.2-30.2H30.2V3.5z"/>
	<g>
		<defs>
			<circle id="SVGID_1_" cx="30.2" cy="33.8" r="30.2"/>
		</defs>
		<clipPath id="SVGID_2_">
			<use xlink:href="#SVGID_1_"  overflow="visible"/>
		</clipPath>
		<g clip-path="url(#SVGID_2_)">
			<g>
				<g>
					<g>
						<path fill="#575756" d="M58.4,61.2c0,0-3.4-9.6-4.2-11.4c-0.8-1.7-1.8-2.4-3-3c-1.2-0.6-13.8-6.1-13.8-6.1l-7.2,0.6L23,40.8
							c0,0-12.6,5.5-13.8,6.1c-1.2,0.6-2.2,1.3-3,3c-0.8,1.7-4.2,11.4-4.2,11.4S1.1,64,3.2,64h26.6h0.8h26.6
							C59.4,64,58.4,61.2,58.4,61.2"/>
						<polygon fill="#DADADA" points="37.2,64 41.4,42.5 29.9,48 18.4,42.5 23,64 						"/>
						<g>
							<path fill="#E9B990" d="M36.4,41.2c0,3.3-2.9,6-6.5,6c-3.6,0-6.5-2.7-6.5-6v-6.9c0-3.3,2.9-6,6.5-6c3.6,0,6.5,2.7,6.5,6V41.2
								z"/>
							<path fill="#FFC58F" d="M36.4,40.1c0,3.3-2.9,6-6.5,6c-3.6,0-6.5-2.7-6.5-6v-6.9c0-3.3,2.9-6,6.5-6c3.6,0,6.5,2.7,6.5,6V40.1
								z"/>
							<path fill="#FFD196" d="M40.4,25c-0.1,0-0.3,0-0.4,0.1c-0.9-6.5-4.9-11.4-9.8-11.4c-8.5,0-8.9,4.9-9.8,11.4
								c-0.1,0-0.3-0.1-0.4-0.1c-0.8,0.1-1.3,0.7-1.3,1.5l0.3,3.8c0.1,0.8,0.7,1.3,1.5,1.3c0.1,0,0.1,0,0.1,0
								c1.2,5.9,5,10.2,9.6,10.2c4.5,0,8.4-4.3,9.6-10.2c0,0,0.1,0,0.1,0c0.8,0.1,1.4-0.5,1.5-1.3l0.3-3.8
								C41.8,25.7,41.2,25.1,40.4,25"/>
							<g>
								<path fill="#7C5947" d="M20.7,25.9c0,0.3-0.2,0.5-0.5,0.5c-0.3,0-0.5-0.2-0.5-0.5c0-0.3,0.2-0.5,0.5-0.5
									C20.4,25.4,20.7,25.6,20.7,25.9"/>
								<path fill="#7C5947" d="M40.9,25.9c0,0.3-0.2,0.5-0.5,0.5c-0.3,0-0.5-0.2-0.5-0.5c0-0.3,0.2-0.5,0.5-0.5
									C40.7,25.4,40.9,25.6,40.9,25.9"/>
								<path fill="#7C5947" d="M30.2,10.9c-5.9,0-10.7,4.1-10.7,9.2v5.7h1.1v-2.1c0-1.8,0.8-2.1,1.5-1.7c0,0,3.4,2,8.5,0
									c8.1-3.2,9.1,0.8,9.1,1.7v2.1h1.1v-5.7C40.9,15,36.1,10.9,30.2,10.9"/>
							</g>
						</g>
						<polygon fill="#FC762B" points="34.1,46.9 26.6,46.9 29.7,53.2 27.8,64 33.1,64 31.1,53.2 						"/>
						<polygon fill="#F6F6F6" points="37.4,39.7 41.4,42.4 36.1,52.8 29.9,46.9 						"/>
						<polygon fill="#F6F6F6" points="22.8,39.7 18.8,42.4 24.1,52.8 30.3,46.9 						"/>
						<path opacity="0.5" fill="#1D1D1B" d="M40,64c1.1-3.1,2.4-6.9,2.4-6.9l-0.7-3.6l1.9-1l1.5-8.3l-3.3-1.5L36.6,64H40z"/>
						<path fill="#5E5E5E" d="M39.5,64c1.1-3.1,2.5-7,2.5-7l-0.7-3.6l1.9-1l1.5-8.3l-3.2-1.5L36.2,64H39.5z"/>
						<path opacity="0.5" fill="#1D1D1B" d="M20.3,64c-1.1-3.1-2.4-6.9-2.4-6.9l0.7-3.6l-1.9-1l-1.5-8.3l3.2-1.5L23.6,64H20.3z"/>
						<path fill="#5E5E5E" d="M20.7,64c-1.1-3.1-2.5-7-2.5-7l0.7-3.6l-1.9-1l-1.5-8.3l3.2-1.5L24,64H20.7z"/>
					</g>
				</g>
				<path opacity="0.1" d="M58.4,61.2c0,0-3.4-9.6-4.2-11.4c-0.8-1.7-1.8-2.4-3-3c-0.7-0.3-5-2.2-8.6-3.8l-0.7-0.3l0,0
					c-0.2-0.1-0.3-0.1-0.5-0.2l0-0.1l-0.1,0l0.1-0.1l-4-2.6l-1,0.9v-2c1.6-1.8,2.8-4.3,3.4-7.1c0,0,0.1,0,0.1,0
					c0.8,0.1,1.4-0.5,1.5-1.3l0.3-3.8c0-0.6-0.3-1.1-0.8-1.3v-5c0-5.1-4.8-9.2-10.7-9.2c0,0,0,0-0.1,0V64h27.1
					C59.4,64,58.4,61.2,58.4,61.2z M39.8,23.8v0.2c-0.1-0.4-0.2-0.9-0.3-1.3C39.8,23.1,39.8,23.5,39.8,23.8z"/>
			</g>
		</g>
	</g>
</g>
<g>
</g>
<g>
</g>
<g>
</g>
<g>
</g>
<g>
</g>
<g>
</g>
<g>
</g>
<g>
</g>
<g>
</g>
<g>
</g>
<g>
</g>
<g>
</g>
<g>
</g>
<g>
</g>
<g>
</g>
</svg>
