<?xml version="1.0" encoding="utf-8"?>
<!-- Generator: Adobe Illustrator 20.0.0, SVG Export Plug-In . SVG Version: 6.00 Build 0)  -->
<svg version="1.1" baseProfile="basic" id="Слой_1"
	 xmlns="http://www.w3.org/2000/svg" xmlns:xlink="http://www.w3.org/1999/xlink" x="0px" y="0px" width="34px" height="34px"
	 viewBox="0 0 34 34" xml:space="preserve">
<g>
	<path fill="#F7C200" d="M12.7,12h11.9c0.6,0,1.1-0.5,1.1-1.2c0-0.6-0.5-1.2-1.1-1.2H12.7c-0.6,0-1.1,0.5-1.1,1.2
		C11.6,11.5,12.1,12,12.7,12z"/>
	<circle fill="#F7C200" cx="9.4" cy="10.9" r="1.2"/>
	<path fill="#F7C200" d="M17,0C7.6,0,0,7.6,0,17s7.6,17,17,17s17-7.6,17-17S26.4,0,17,0z M27.3,23.8c0,1.1-0.9,1.9-1.9,1.9H8.7
		c-1.1,0-1.9-0.9-1.9-1.9V10.2c0-1.1,0.9-1.9,1.9-1.9h16.7c1.1,0,1.9,0.9,1.9,1.9V23.8z"/>
</g>
</svg>
