<?xml version="1.0" encoding="utf-8"?>
<!-- Generator: Adobe Illustrator 20.1.0, SVG Export Plug-In . SVG Version: 6.00 Build 0)  -->
<svg version="1.1" baseProfile="basic" id="Слой_1"
	 xmlns="http://www.w3.org/2000/svg" xmlns:xlink="http://www.w3.org/1999/xlink" x="0px" y="0px" width="66px" height="65px"
	 viewBox="0 0 66 65" xml:space="preserve">
<g>
	<g>
		<path fill="#00D094" d="M39.2,48.1c-0.9,1.7-3,2.4-4.7,1.6L1.9,33.2c-1.7-0.9-2.4-3-1.6-4.7L13.8,1.9c0.9-1.7,3-2.4,4.7-1.6
			L51,16.8c1.7,0.9,2.4,3,1.6,4.7L39.2,48.1z"/>
		<path fill="#4B4B4B" d="M51,16.8L18.5,0.4c-1.7-0.9-3.9-0.2-4.7,1.6l-2.1,4.2l38.8,19.6l2.1-4.2C53.5,19.8,52.8,17.7,51,16.8z"/>
		<ellipse transform="matrix(0.4508 -0.8926 0.8926 0.4508 5.5323 17.8868)" fill="#FFFFFF" cx="17.3" cy="4.4" rx="1.7" ry="1.7"/>
		<ellipse transform="matrix(0.4508 -0.8926 0.8926 0.4508 5.9645 23.0244)" fill="#FFFFFF" cx="21.7" cy="6.7" rx="1.7" ry="1.7"/>
		<path fill="#FFFFFF" d="M49.9,21.1c-0.4,0.8-1.3,1.1-2,0.7L25.1,10.3c-0.7-0.4-1-1.3-0.6-2l0,0c0.4-0.8,1.3-1.1,2-0.7l22.8,11.5
			C50,19.5,50.3,20.4,49.9,21.1L49.9,21.1z"/>
		<path opacity="0.2" fill="#010000" d="M51,16.8L30.8,6.6l-9.9,36.2l13.6,6.9c1.7,0.9,3.9,0.2,4.7-1.6l13.4-26.6
			C53.5,19.8,52.8,17.7,51,16.8z"/>
	</g>
	<g>
		<path fill="#FFDA50" d="M47.4,54c0,1.9-1.6,3.5-3.5,3.5L7.5,57.3c-1.9,0-3.5-1.6-3.5-3.5L4.1,24c0-1.9,1.6-3.5,3.5-3.5L44,20.7
			c1.9,0,3.5,1.6,3.5,3.5L47.4,54z"/>
		<path fill="#4B4B4B" d="M44,20.7L7.6,20.5c-1.9,0-3.5,1.6-3.5,3.5l0,4.7L47.5,29l0-4.7C47.6,22.3,46,20.7,44,20.7z"/>
		
			<ellipse transform="matrix(3.980977e-03 -1 1 3.980977e-03 -16.3817 32.9761)" fill="#FFFFFF" cx="8.4" cy="24.7" rx="1.7" ry="1.7"/>
		
			<ellipse transform="matrix(3.981095e-03 -1 1 3.981095e-03 -11.5013 37.915)" fill="#FFFFFF" cx="13.3" cy="24.7" rx="1.7" ry="1.7"/>
		<path fill="#FFFFFF" d="M45,25.1c0,0.8-0.7,1.5-1.5,1.5L18,26.5c-0.8,0-1.5-0.7-1.5-1.5l0,0c0-0.8,0.7-1.5,1.5-1.5l25.5,0.1
			C44.3,23.5,45,24.2,45,25.1L45,25.1z"/>
		<path opacity="0.2" fill="#010000" d="M44,20.7l-22.7-0.1l7.3,36.8l15.2,0.1c1.9,0,3.5-1.6,3.5-3.5l0.1-29.8
			C47.6,22.3,46,20.7,44,20.7z"/>
	</g>
	<g>
		<g>
			<path fill="#41BCF4" d="M34.6,52v7.9c0,2.8,7,5.1,15.7,5.1S66,62.7,66,59.9V52H34.6z"/>
			<path fill="#0F5EB5" d="M34.6,45.7v7.9c0,2.8,7,5.1,15.7,5.1S66,56.4,66,53.6v-7.9H34.6z"/>
			<path fill="#41BCF4" d="M34.6,44v7.9c0,2.8,7,5.1,15.7,5.1S66,54.7,66,51.9V44H34.6z"/>
			<path fill="#0F5EB5" d="M34.6,38.3v6.9c0,2.8,7,5.1,15.7,5.1S66,48.1,66,45.2v-6.9H34.6z"/>
			<path fill="#41BCF4" d="M34.6,36.6v6.9c0,2.8,7,5.1,15.7,5.1S66,46.3,66,43.5v-6.9H34.6z"/>
			<ellipse fill="#89D3F9" cx="50.3" cy="36.6" rx="15.7" ry="5.1"/>
		</g>
		<path opacity="0.2" d="M50.3,41.7V65C59,65,66,62.7,66,59.9v-7.3V52v-0.1v-7.1v-0.5V44v-0.5v-6.1v-0.8C66,39.4,59,41.7,50.3,41.7z
			"/>
	</g>
</g>
<g>
</g>
<g>
</g>
<g>
</g>
<g>
</g>
<g>
</g>
<g>
</g>
<g>
</g>
<g>
</g>
<g>
</g>
<g>
</g>
<g>
</g>
<g>
</g>
<g>
</g>
<g>
</g>
<g>
</g>
</svg>
