<?xml version="1.0" encoding="utf-8"?>
<!-- Generator: Adobe Illustrator 20.1.0, SVG Export Plug-In . SVG Version: 6.00 Build 0)  -->
<svg version="1.1" id="Слой_1" xmlns="http://www.w3.org/2000/svg" xmlns:xlink="http://www.w3.org/1999/xlink" x="0px" y="0px"
	 width="75px" height="64px" viewBox="0 0 75 64" enable-background="new 0 0 75 64" xml:space="preserve">
<g>
	<g>
		<path fill="#00D094" d="M74.7,57.2c0,3.3-2.7,6.1-6.1,6.1H6.1c-3.3,0-6.1-2.7-6.1-6.1V6.1C0,2.7,2.7,0,6.1,0h62.6
			c3.3,0,6.1,2.7,6.1,6.1V57.2z"/>
		<path fill="#4B4B4B" d="M68.7,0H6.1C2.7,0,0,2.7,0,6.1v8.2h74.7V6.1C74.7,2.7,72,0,68.7,0z"/>
		<circle fill="#FFFFFF" cx="7.3" cy="7.2" r="2.9"/>
		<circle fill="#FFFFFF" cx="15.8" cy="7.2" r="2.9"/>
		<path fill="#FFFFFF" d="M70.3,7.5c0,1.4-1.1,2.6-2.5,2.6H23.8c-1.4,0-2.5-1.2-2.5-2.6l0,0c0-1.4,1.1-2.6,2.5-2.6h43.9
			C69.2,4.9,70.3,6.1,70.3,7.5L70.3,7.5z"/>
		<path opacity="0.1" fill="#010000" d="M68.7,0h-39l12.8,63.3h26.2c3.3,0,6.1-2.7,6.1-6.1V6.1C74.7,2.7,72,0,68.7,0z"/>
	</g>
	<g opacity="0.2">
		<path fill="#010000" d="M53.1,33.5v25.3c0,0,5.5-6,5.5-5.8c0,0.2,4.1,10.9,4.1,10.9l2.9-1.2l-4.1-10.6l7.8,0.5L53.1,33.5z"/>
		<path fill="#010000" d="M48.5,35.7c0-0.8-0.6-1.4-1.4-1.4h-8c-0.8,0-1.4,0.6-1.4,1.4c0,0.8,0.6,1.4,1.4,1.4h8
			C47.8,37.1,48.5,36.5,48.5,35.7z"/>
		<path fill="#010000" d="M68.7,34.3h-8c-0.8,0-1.4,0.6-1.4,1.4c0,0.8,0.6,1.4,1.4,1.4h8c0.8,0,1.4-0.6,1.4-1.4
			C70.1,34.9,69.5,34.3,68.7,34.3z"/>
		<path fill="#010000" d="M55.3,28.9v-8c0-0.8-0.6-1.4-1.4-1.4c-0.8,0-1.4,0.6-1.4,1.4v8c0,0.8,0.6,1.4,1.4,1.4
			C54.7,30.3,55.3,29.7,55.3,28.9z"/>
		<path fill="#010000" d="M58.7,32.3c0.4,0,0.7-0.1,1-0.4l5.7-5.7c0.6-0.6,0.6-1.5,0-2c-0.6-0.6-1.5-0.6-2,0l-5.7,5.7
			c-0.6,0.6-0.6,1.5,0,2C58,32.2,58.3,32.3,58.7,32.3z"/>
		<path fill="#010000" d="M48,39.5l-5.7,5.6c-0.6,0.6-0.6,1.5,0,2c0.3,0.3,0.6,0.4,1,0.4s0.7-0.1,1-0.4l5.7-5.6c0.6-0.6,0.6-1.5,0-2
			C49.5,38.9,48.6,38.9,48,39.5z"/>
		<path fill="#010000" d="M48,31.9c0.3,0.3,0.6,0.4,1,0.4s0.7-0.1,1-0.4c0.6-0.6,0.6-1.5,0-2l-5.6-5.6c-0.6-0.6-1.5-0.6-2,0
			c-0.6,0.6-0.6,1.5,0,2L48,31.9z"/>
	</g>
	<g>
		<path fill="#FFFFFF" d="M55,31.6V57c0,0,5.5-6,5.5-5.8c0,0.2,4.1,10.9,4.1,10.9l2.9-1.2l-4.1-10.6l7.8,0.5L55,31.6z"/>
		<g>
			<g>
				<path fill="#FCD22E" d="M49,35.2h-8c-0.8,0-1.4-0.6-1.4-1.4c0-0.8,0.6-1.4,1.4-1.4h8c0.8,0,1.4,0.6,1.4,1.4
					C50.4,34.6,49.7,35.2,49,35.2z"/>
			</g>
			<g>
				<path fill="#FCD22E" d="M70.6,35.2h-8c-0.8,0-1.4-0.6-1.4-1.4c0-0.8,0.6-1.4,1.4-1.4h8c0.8,0,1.4,0.6,1.4,1.4
					C72,34.6,71.4,35.2,70.6,35.2z"/>
			</g>
			<g>
				<path fill="#FCD22E" d="M55.8,28.4c-0.8,0-1.4-0.6-1.4-1.4v-8c0-0.8,0.6-1.4,1.4-1.4s1.4,0.6,1.4,1.4v8
					C57.2,27.7,56.6,28.4,55.8,28.4z"/>
			</g>
			<g>
				<path fill="#FCD22E" d="M60.6,30.4c-0.4,0-0.7-0.1-1-0.4c-0.6-0.6-0.6-1.5,0-2l5.7-5.7c0.6-0.6,1.5-0.6,2,0c0.6,0.6,0.6,1.5,0,2
					L61.6,30C61.4,30.2,61,30.4,60.6,30.4z"/>
			</g>
			<g>
				<path fill="#FCD22E" d="M45.3,45.7c-0.4,0-0.7-0.1-1-0.4c-0.6-0.6-0.6-1.5,0-2l5.7-5.6c0.6-0.6,1.5-0.6,2,0c0.6,0.6,0.6,1.5,0,2
					l-5.7,5.6C46,45.6,45.7,45.7,45.3,45.7z"/>
			</g>
			<g>
				<path fill="#FCD22E" d="M51,30.4c-0.4,0-0.7-0.1-1-0.4l-5.6-5.6c-0.6-0.6-0.6-1.5,0-2c0.6-0.6,1.5-0.6,2,0l5.6,5.6
					c0.6,0.6,0.6,1.5,0,2C51.7,30.2,51.3,30.4,51,30.4z"/>
			</g>
		</g>
	</g>
</g>
<g>
</g>
<g>
</g>
<g>
</g>
<g>
</g>
<g>
</g>
<g>
</g>
<g>
</g>
<g>
</g>
<g>
</g>
<g>
</g>
<g>
</g>
<g>
</g>
<g>
</g>
<g>
</g>
<g>
</g>
</svg>
