<?xml version="1.0" encoding="utf-8"?>
<!-- Generator: Adobe Illustrator 20.1.0, SVG Export Plug-In . SVG Version: 6.00 Build 0)  -->
<svg version="1.1" baseProfile="basic" id="Слой_1"
	 xmlns="http://www.w3.org/2000/svg" xmlns:xlink="http://www.w3.org/1999/xlink" x="0px" y="0px" width="66px" height="54px"
	 viewBox="0 0 66 54" xml:space="preserve">
<g>
	<g>
		<path fill="#41BCF4" d="M0,32.9v12.8C0,50.3,11.4,54,25.4,54s25.4-3.7,25.4-8.3V32.9H0z"/>
		<path fill="#0F5EB5" d="M0,22.1v12.8c0,4.6,11.4,8.3,25.4,8.3s25.4-3.7,25.4-8.3V22.1H0z"/>
		<path fill="#41BCF4" d="M0,19.9v12.8C0,37.3,11.4,41,25.4,41s25.4-3.7,25.4-8.3V19.9H0z"/>
		<path fill="#0F5EB5" d="M0,10.5v10.8c0,4.6,11.4,8.3,25.4,8.3s25.4-3.7,25.4-8.3V10.5H0z"/>
		<path fill="#41BCF4" d="M0,8.3v10.8c0,4.6,11.4,8.3,25.4,8.3s25.4-3.7,25.4-8.3V8.3H0z"/>
		<ellipse fill="#89D3F9" cx="25.4" cy="8.3" rx="25.4" ry="8.3"/>
	</g>
	<path opacity="0.1" d="M25.4,16.6V54c14.1,0,25.4-3.7,25.4-8.3V33.9v-1v-0.2V21.1v-0.8v-0.4v-0.8V9.5V8.3
		C50.9,12.8,39.5,16.6,25.4,16.6z"/>
	<g>
		<circle fill="#0F5EB5" cx="50.8" cy="38.8" r="15.3"/>
		<g>
			<path fill="#FFFFFF" d="M48.5,30.8c0-1.2,1-2.2,2.2-2.2c1.2,0,2.2,1,2.2,2.2c0,1.2-1,2.2-2.2,2.2C49.5,33.1,48.5,32.1,48.5,30.8z
				 M48.9,48.9V34.6h3.7v14.3H48.9z"/>
		</g>
	</g>
</g>
<g>
</g>
<g>
</g>
<g>
</g>
<g>
</g>
<g>
</g>
<g>
</g>
<g>
</g>
<g>
</g>
<g>
</g>
<g>
</g>
<g>
</g>
<g>
</g>
<g>
</g>
<g>
</g>
<g>
</g>
</svg>
