<?xml version="1.0" encoding="utf-8"?>
<!-- Generator: Adobe Illustrator 20.1.0, SVG Export Plug-In . SVG Version: 6.00 Build 0)  -->
<svg version="1.1" baseProfile="basic" id="Слой_1"
	 xmlns="http://www.w3.org/2000/svg" xmlns:xlink="http://www.w3.org/1999/xlink" x="0px" y="0px" width="64px" height="60px"
	 viewBox="0 0 64 60" xml:space="preserve">
<g>
	<polygon fill="#808080" points="0,17.5 32,7 64,17.5 	"/>
	<g>
		<path fill="#FF6600" d="M56.9,4c-0.4-2.3-2.4-4-4.8-4H32.2c-2.3,0-4.4,1.7-4.8,4l0,0c-0.3,1.7-1.6,3.1-3.2,3.7c-0.1,0,0,0.1,0,0.1
			l33.4,7.3v-4.5c0-1.9-0.2-3.7-0.5-5.5L56.9,4z"/>
		<path fill="#FFC41E" d="M50.8,42.8H13.2c-3.8,0-6.8-3-6.8-6.8V13.8c0-3.8,3-6.8,6.8-6.8h37.6c3.8,0,6.8,3,6.8,6.8V36
			C57.6,39.8,54.6,42.8,50.8,42.8z"/>
	</g>
	<g>
		<rect y="17" fill="#CCCCCC" width="64" height="37.2"/>
		<path fill="#B3B3B3" d="M44.6,52.4H19.4c-1.7,0-3.1-1.4-3.1-3.1v-6c0-1.7,1.4-3.1,3.1-3.1h25.2c1.7,0,3.1,1.4,3.1,3.1v6
			C47.7,51,46.3,52.4,44.6,52.4z"/>
		<polygon opacity="0.1" points="58,17 20.9,54.2 64,54.2 64,17 		"/>
		<g>
			<path fill="#808080" d="M39.5,60H24.5c-3.7,0-6.7-3-6.7-6.7v-6.8c0-1.5,1.2-2.8,2.8-2.8c1.5,0,2.8,1.3,2.8,2.8v6.8
				c0,0.6,0.5,1.1,1.1,1.1h15.1c0.6,0,1.1-0.5,1.1-1.1v-6.8c0-1.5,1.2-2.8,2.8-2.8c1.5,0,2.8,1.3,2.8,2.8v6.8
				C46.3,57,43.2,60,39.5,60z"/>
		</g>
	</g>
</g>
<g>
</g>
<g>
</g>
<g>
</g>
<g>
</g>
<g>
</g>
<g>
</g>
<g>
</g>
<g>
</g>
<g>
</g>
<g>
</g>
<g>
</g>
<g>
</g>
<g>
</g>
<g>
</g>
<g>
</g>
</svg>
