<?xml version="1.0" encoding="utf-8"?>
<!-- Generator: Adobe Illustrator 20.0.0, SVG Export Plug-In . SVG Version: 6.00 Build 0)  -->
<svg version="1.1" baseProfile="basic" id="Слой_1"
	 xmlns="http://www.w3.org/2000/svg" xmlns:xlink="http://www.w3.org/1999/xlink" x="0px" y="0px" width="54px" height="65px"
	 viewBox="0 0 54 65" xml:space="preserve">
<g>
	<g>
		<path fill="#562908" d="M25.7,13.4l1.6,0.9c0,0,0.7-2,0.7-7.3c-2.7,1.5-2.6-1.8-2.6-1.8l-1.6,0.1l-3.9,4.7l0.8,0.5l0,0l-0.8-0.5
			L17,16.5l0.4,2c0,0,3.3-2.4,3.2,0.7c4.7-2.6,6.6-4.9,6.6-4.9L25.7,13.4L25.7,13.4z"/>
		<path fill="#875431" d="M16.6,19.7c-0.4,0.7-1.4,1-2.1,0.5L9,17c-0.7-0.4-1-1.4-0.5-2.1l8.4-14.1c0.4-0.7,1.4-1,2.1-0.5l5.4,3.2
			c0.7,0.4,1,1.4,0.5,2.1L16.6,19.7z"/>
		<path fill="#562908" d="M36.3,19.7L34,18.3c0,0,1.4-1.5,6.1-4.1c0,3.1,2.8,1.4,2.8,1.4l0.7,1.5l-2.3,5.6l-0.7-0.4l0,0l0.7,0.4
			l-4.4,5.7l-2,0.6c0,0,0.5-4-2.2-2.5c0-5.4,1.2-8.2,1.2-8.2L36.3,19.7L36.3,19.7z"/>
		<path fill-rule="evenodd" clip-rule="evenodd" fill="#562908" d="M0.6,55.9c-1.3,2.1-0.6,4.8,1.5,6.1l1.6,1
			c2.1,1.3,4.8,0.6,6.1-1.5l14.7-24.8c1.3-2.1,0.1-4-2.1-5.2l-1.6-1c-2.1-1.3-4.3-1.4-5.6,0.7L0.6,55.9z"/>
		<path fill-rule="evenodd" clip-rule="evenodd" fill="#D3A30B" d="M27.7,25.9l-4.4,7.3c-0.6,1-1.6,0.4-2.8-0.4
			c-1.2-0.7-2.2-1.3-1.6-2.3l4.4-7.3L27.7,25.9z"/>
		<path opacity="0.2" fill="#FFFFFF" d="M2.5,56.2c-0.3,0.5-0.2,1.2,0.3,1.5l0,0c0.5,0.3,1.1,0.1,1.5-0.4l13.2-22.2
			c0.3-0.5,0.2-1.2-0.3-1.5l0,0c-0.5-0.3-1.1-0.1-1.5,0.4L2.5,56.2z"/>
		
			<rect x="21.7" y="10.8" transform="matrix(0.5107 -0.8597 0.8597 0.5107 -0.886 34.0728)" fill="#FFCE12" width="15.6" height="14.1"/>
		
			<rect x="24.8" y="16.3" transform="matrix(0.5107 -0.8597 0.8597 0.5107 -7.2149 33.9545)" opacity="0.1" fill="#010000" width="2.8" height="14.1"/>
		
			<rect x="30.2" y="7.3" transform="matrix(0.5107 -0.8597 0.8597 0.5107 3.1539 34.1482)" opacity="0.3" fill="#FFFFFF" width="2.8" height="14.1"/>
		<path fill="#875431" d="M34,30.1c-0.4,0.7-0.2,1.7,0.5,2.1l5.4,3.2c0.7,0.4,1.7,0.2,2.1-0.5l8.4-14.1c0.4-0.7,0.2-1.7-0.5-2.1
			l-5.4-3.2c-0.7-0.4-1.7-0.2-2.1,0.5L34,30.1z"/>
	</g>
	<g>
		<ellipse fill="#00D094" cx="39.5" cy="50.3" rx="14.5" ry="14.7"/>
		<polygon fill="#FFFFFF" points="49.4,45.8 45.3,42.4 37.5,52.1 32.5,48 29.2,52.1 38.1,59.4 		"/>
	</g>
</g>
<g>
</g>
<g>
</g>
<g>
</g>
<g>
</g>
<g>
</g>
<g>
</g>
<g>
</g>
<g>
</g>
<g>
</g>
<g>
</g>
<g>
</g>
<g>
</g>
<g>
</g>
<g>
</g>
<g>
</g>
</svg>
