<?xml version="1.0" encoding="utf-8"?>
<!-- Generator: Adobe Illustrator 20.0.0, SVG Export Plug-In . SVG Version: 6.00 Build 0)  -->
<svg version="1.1" baseProfile="basic" id="Слой_1"
	 xmlns="http://www.w3.org/2000/svg" xmlns:xlink="http://www.w3.org/1999/xlink" x="0px" y="0px" width="81px" height="62px"
	 viewBox="0 0 81 62" xml:space="preserve">
<g>
	<g>
		<g>
			<rect x="4.2" y="46.6" fill="#FFFFFF" width="69.4" height="13.1"/>
			<path fill="#323C3F" d="M71.6,44.2H8.9c-4.9,0-8.9,4-8.9,8.9C0,58,4,62,8.9,62h62.7c4.9,0,8.9-4,8.9-8.9
				C80.5,48.2,76.5,44.2,71.6,44.2z M9,57.3c-2.3,0-4.2-1.9-4.2-4.2C4.8,50.9,6.7,49,9,49c2.3,0,4.2,1.9,4.2,4.2
				C13.1,55.5,11.3,57.3,9,57.3z M70.8,57.1h-50c-0.6,0-1-0.6-1-1.4c0-0.8,0.5-1.4,1-1.4h50c0.6,0,1,0.6,1,1.4
				C71.8,56.5,71.4,57.1,70.8,57.1z M70.8,51.9h-50c-0.6,0-1-0.6-1-1.4c0-0.8,0.5-1.4,1-1.4h50c0.6,0,1,0.6,1,1.4
				C71.8,51.3,71.4,51.9,70.8,51.9z"/>
		</g>
		<g>
			<rect x="4.2" y="24.5" fill="#FFFFFF" width="69.4" height="13.1"/>
			<path fill="#323C3F" d="M71.6,22.1H8.9C4,22.1,0,26.1,0,31c0,4.9,4,8.9,8.9,8.9h62.7c4.9,0,8.9-4,8.9-8.9
				C80.5,26.1,76.5,22.1,71.6,22.1z M9,35.3c-2.3,0-4.2-1.9-4.2-4.2c0-2.3,1.9-4.2,4.2-4.2c2.3,0,4.2,1.9,4.2,4.2
				C13.1,33.4,11.3,35.3,9,35.3z M70.8,35h-50c-0.6,0-1-0.6-1-1.4c0-0.8,0.5-1.4,1-1.4h50c0.6,0,1,0.6,1,1.4
				C71.8,34.4,71.4,35,70.8,35z M70.8,29.8h-50c-0.6,0-1-0.6-1-1.4c0-0.8,0.5-1.4,1-1.4h50c0.6,0,1,0.6,1,1.4
				C71.8,29.2,71.4,29.8,70.8,29.8z"/>
		</g>
		<g>
			<rect x="4.2" y="2.9" fill="#FFFFFF" width="69.4" height="13.1"/>
			<path fill="#323C3F" d="M71.6,0H8.9C4,0,0,4,0,8.9c0,4.9,4,8.9,8.9,8.9h62.7c4.9,0,8.9-4,8.9-8.9C80.5,4,76.5,0,71.6,0z M9,13.2
				c-2.3,0-4.2-1.9-4.2-4.2c0-2.3,1.9-4.2,4.2-4.2c2.3,0,4.2,1.9,4.2,4.2C13.1,11.3,11.3,13.2,9,13.2z M70.8,12.9h-50
				c-0.6,0-1-0.6-1-1.4c0-0.8,0.5-1.4,1-1.4h50c0.6,0,1,0.6,1,1.4C71.8,12.3,71.4,12.9,70.8,12.9z M70.8,7.8h-50c-0.6,0-1-0.6-1-1.4
				c0-0.8,0.5-1.4,1-1.4h50c0.6,0,1,0.6,1,1.4C71.8,7.1,71.4,7.8,70.8,7.8z"/>
		</g>
	</g>
	<g>
		<path fill="#FF3827" d="M63.6,24c0-12.9-10.4-23.3-23.3-23.3C27.4,0.6,16.9,11.1,16.9,24c0,5.5,1.9,10.6,5.1,14.6h0l18.2,22.8
			l18.2-22.8h0C61.7,34.6,63.6,29.5,63.6,24z"/>
		<circle fill="#AF0706" cx="40.3" cy="24" r="16.5"/>
		<g>
			<path fill="#FFFFFF" d="M37.5,14.7c0-1.5,1.2-2.7,2.7-2.7c1.5,0,2.7,1.2,2.7,2.7s-1.2,2.7-2.7,2.7C38.8,17.4,37.5,16.2,37.5,14.7
				z M38,36.5V19.3h4.5v17.2H38z"/>
		</g>
		<path opacity="0.2" fill="#060000" d="M63.6,24c0-12.9-10.4-23.3-23.3-23.3v60.7l18.2-22.8h0C61.7,34.6,63.6,29.5,63.6,24z"/>
	</g>
</g>
<g>
</g>
<g>
</g>
<g>
</g>
<g>
</g>
<g>
</g>
<g>
</g>
<g>
</g>
<g>
</g>
<g>
</g>
<g>
</g>
<g>
</g>
<g>
</g>
<g>
</g>
<g>
</g>
<g>
</g>
</svg>
