<?xml version="1.0" encoding="utf-8"?>
<!-- Generator: Adobe Illustrator 20.1.0, SVG Export Plug-In . SVG Version: 6.00 Build 0)  -->
<svg version="1.1" baseProfile="basic" id="Слой_1"
	 xmlns="http://www.w3.org/2000/svg" xmlns:xlink="http://www.w3.org/1999/xlink" x="0px" y="0px" width="75px" height="70px"
	 viewBox="0 0 75 70" xml:space="preserve">
<g>
	<path fill="#FF5046" d="M68.8,9L6.2,9C2.8,9,0,11.8,0,15.2l0,48.3c0,3.4,2.8,6.2,6.2,6.2l62.6,0c3.4,0,6.2-2.8,6.2-6.2l0-48.3
		C75,11.8,72.2,9,68.8,9z M46.1,19.1l-17.2,0c-1.5,0-2.6-1.2-2.6-2.6c0-1.4,1.2-2.6,2.6-2.6l17.2,0c1.5,0,2.6,1.2,2.6,2.6
		C48.7,17.9,47.5,19.1,46.1,19.1z"/>
	<path fill="#F2F2F2" d="M71,56.7c0,3.5-2.8,6.3-6.3,6.3l-54.4,0C6.8,63,4,60.2,4,56.7l0-23.4c0-3.5,2.8-6.3,6.3-6.3l54.4,0
		c3.5,0,6.3,2.8,6.3,6.3L71,56.7z"/>
	<polygon opacity="0.4" points="43.7,13.9 45.8,13.8 47,9 42.9,9 	"/>
	<path fill="#29353F" d="M44.7,19.4l0-18.2c0-0.6-0.5-1.1-1.1-1.1L32.1,0C31.5,0,31,0.5,31,1.1l0,18.2L44.7,19.4z"/>
	<path opacity="0.1" fill="#FFFFFF" d="M44,1.4C44,1.7,43.8,2,43.5,2l-11.2,0c-0.3,0-0.6-0.3-0.6-0.6l0,0c0-0.3,0.3-0.6,0.6-0.6
		l11.2,0C43.8,0.8,44,1.1,44,1.4L44,1.4z"/>
	<path fill="#F7C200" d="M51.2,57.7c0,0-1.6-4.7-2-5.5c-0.4-0.8-0.9-1.2-1.4-1.5c0,0-0.1,0-0.1-0.1c0,0,0,0,0,0c0,0-0.1,0-0.1-0.1
		c-1.1-0.5-4.4-2-5.8-2.6v0c-0.2-0.1-0.4-0.2-0.5-0.2c0,0,0,0,0-0.1v-0.6v-0.8c0.9-1,1.6-2.4,1.9-3.9c0,0,0.1,0,0.1,0
		c0.4,0,0.8-0.3,0.8-0.7l0.2-2.1c0-0.3-0.2-0.6-0.4-0.7v-2.8c0-2.8-2.6-5.1-5.9-5.1c-3.3,0-5.9,2.3-5.9,5.1v2.8
		c-0.3,0.1-0.5,0.4-0.4,0.7l0.2,2.1c0,0.4,0.4,0.7,0.8,0.7c0,0,0.1,0,0.1,0c0.3,1.4,0.8,2.6,1.6,3.6v1.2v0.6c0,0,0,0,0,0.1
		c-0.1,0-0.3,0.1-0.5,0.2l0,0c-1.5,0.6-5.2,2.3-6,2.6c0,0-0.1,0-0.1,0c-0.6,0.3-1.1,0.6-1.4,1.5c-0.4,0.8-2,5.5-2,5.5
		S23.4,59,24.5,59h5.2h7.8h0.4h7.8h5.2C51.7,59,51.2,57.7,51.2,57.7z"/>
	<path opacity="0.1" d="M68.8,9L6.2,69.6l62.6,0c3.4,0,6.2-2.8,6.2-6.2l0-48.3C75,11.8,72.2,9,68.8,9z"/>
</g>
<g>
</g>
<g>
</g>
<g>
</g>
<g>
</g>
<g>
</g>
<g>
</g>
<g>
</g>
<g>
</g>
<g>
</g>
<g>
</g>
<g>
</g>
<g>
</g>
<g>
</g>
<g>
</g>
<g>
</g>
</svg>
