<?xml version="1.0" encoding="utf-8"?>
<!-- Generator: Adobe Illustrator 20.0.0, SVG Export Plug-In . SVG Version: 6.00 Build 0)  -->
<svg version="1.1" baseProfile="basic" id="Слой_1"
	 xmlns="http://www.w3.org/2000/svg" xmlns:xlink="http://www.w3.org/1999/xlink" x="0px" y="0px" width="34px" height="34px"
	 viewBox="0 0 34 34" xml:space="preserve">
<path fill="#FF8A00" d="M17,0C7.6,0,0,7.6,0,17c0,9.4,7.6,17,17,17s17-7.6,17-17C34,7.6,26.4,0,17,0z M27.3,20.1
	c0,0.8-0.9,1.4-1.9,1.3c0,0,0,0,0,0c-0.8,1.8-2.1,3.9-4.7,5.9c0.2,0.5,0.1,1-0.2,1.2l-2.2,1.3c-0.3,0.2-0.8,0-1.2-0.4
	c0,0-0.1,0-0.1,0l-0.4-0.9c0,0,0,0,0,0c-0.1-0.4,0-0.9,0.3-1l2.2-1.3c0.3-0.2,0.7-0.1,1,0.2c2.3-1.8,3.6-3.7,4.3-5.3
	c-0.5-0.3-0.8-0.7-0.8-1.3l0.4-6.6c0-0.5,0.4-1,1-1.2c-0.5-3.9-3.9-7-8-7c-4,0-7.4,3-7.9,6.9c0.7,0.2,1.2,0.7,1.2,1.3l0.4,6.6
	c0,0.8-0.8,1.5-1.8,1.5c-1,0.1-1.9-0.5-1.9-1.3l-0.4-6.6c0-0.6,0.4-1.1,1-1.4c0.5-4.7,4.5-8.4,9.4-8.4c4.8,0,8.8,3.6,9.4,8.3
	c0.8,0.2,1.3,0.8,1.3,1.5L27.3,20.1z"/>
</svg>
