<?xml version="1.0" encoding="utf-8"?>
<!-- Generator: Adobe Illustrator 20.0.0, SVG Export Plug-In . SVG Version: 6.00 Build 0)  -->
<svg version="1.1" baseProfile="basic" id="Слой_1"
	 xmlns="http://www.w3.org/2000/svg" xmlns:xlink="http://www.w3.org/1999/xlink" x="0px" y="0px" width="34px" height="34px"
	 viewBox="0 0 34 34" xml:space="preserve">
<path fill="#FB461F" d="M17,0C7.6,0,0,7.6,0,17c0,9.4,7.6,17,17,17c9.4,0,17-7.6,17-17C34,7.6,26.4,0,17,0z M9.8,22.5
	c-0.1,0.2-0.2,0.8-0.1,1.4H7.9H5.5c-0.5,0-0.3-0.6-0.3-0.6s0.8-2.2,0.9-2.5c0.2-0.4,0.4-0.5,0.7-0.7c0,0,0,0,0.1,0l0,0
	c0,0,0,0,0.1,0c0.5-0.2,2-0.9,2.7-1.2c0.1,0,0.2-0.1,0.2-0.1c0,0,0,0,0,0v-0.3v-0.4C9.5,17.6,9.2,17,9,16.3c0,0,0,0,0,0
	c-0.2,0-0.4-0.1-0.4-0.3l-0.1-1c0-0.1,0.1-0.3,0.2-0.3v-1.3c0-1.3,1.2-2.4,2.7-2.4c1.5,0,2.7,1.1,2.7,2.4v1.3
	c0.1,0.1,0.2,0.2,0.2,0.3l-0.1,1c0,0.2-0.2,0.3-0.4,0.3c0,0,0,0,0,0c0,0.2-0.1,0.4-0.2,0.6c-0.4,0.2-0.7,0.3-0.8,0.4
	c0,0-0.1,0-0.1,0c-0.5,0.2-1.2,0.6-1.7,1.7C10.9,19.5,10.1,21.8,9.8,22.5z M27.9,23.9h-3.2h-4.8h-0.2h-4.8h-3.2
	c-0.6,0-0.3-0.8-0.3-0.8s1-2.9,1.3-3.4c0.2-0.5,0.5-0.7,0.9-0.9c0,0,0,0,0.1,0c0.5-0.2,2.8-1.2,3.7-1.6c0.1-0.1,0.3-0.1,0.3-0.1
	c0,0,0,0,0,0v-0.4v-0.7c-0.5-0.6-0.8-1.3-1-2.2c0,0,0,0,0,0c-0.3,0-0.5-0.2-0.5-0.4L16,12c0-0.2,0.1-0.4,0.3-0.5V9.8
	c0-1.7,1.6-3.2,3.6-3.2c2,0,3.6,1.4,3.6,3.2v1.7c0.2,0.1,0.3,0.3,0.3,0.5l-0.1,1.3c0,0.3-0.2,0.5-0.5,0.4c0,0,0,0-0.1,0
	c-0.2,1-0.6,1.8-1.2,2.4v0.5V17c0,0,0,0,0,0c0.1,0,0.2,0.1,0.3,0.1v0c0.8,0.4,2.9,1.3,3.6,1.6c0,0,0.1,0,0.1,0c0,0,0,0,0,0
	c0,0,0.1,0,0.1,0c0.4,0.2,0.6,0.4,0.9,0.9c0.2,0.5,1.3,3.4,1.3,3.4S28.6,23.9,27.9,23.9z"/>
</svg>
