<?xml version="1.0" encoding="utf-8"?>
<!-- Generator: Adobe Illustrator 20.1.0, SVG Export Plug-In . SVG Version: 6.00 Build 0)  -->
<svg version="1.1" baseProfile="basic" id="Слой_1"
	 xmlns="http://www.w3.org/2000/svg" xmlns:xlink="http://www.w3.org/1999/xlink" x="0px" y="0px" width="97px" height="92px"
	 viewBox="0 0 97 92" xml:space="preserve">
<g>
	<path fill="#FFE4C0" d="M65.5,0c3.5,0,6.4,2.9,6.4,6.4v77.2c0,3.5-2.9,6.4-6.4,6.4H6.4C2.9,90,0,87.1,0,83.6V20L20,0H65.5z"/>
	<polygon opacity="0.1" fill="#3C3C3B" points="0,20 17.8,18.5 0,36 	"/>
	<path fill="#E5B376" d="M13.6,20H0L20,0v13.6C20,17.2,17.2,20,13.6,20z"/>
	<path fill="#7C5947" d="M10.8,79h50.9c1.2,0,2.2-1,2.2-2.2v0c0-1.2-1-2.2-2.2-2.2H10.8c-1.2,0-2.2,1-2.2,2.2v0
		C8.5,78,9.5,79,10.8,79z"/>
	<g>
		<path fill="#00AB75" d="M63.6,64.9c0,0-3.2-9.2-4-10.8c-0.8-1.6-1.7-2.3-2.9-2.9c-1.2-0.5-13.1-5.8-13.1-5.8l-6.9,0.5l-6.9-0.5
			c0,0-12,5.3-13.1,5.8c-1.2,0.5-2.1,1.2-2.9,2.9c-0.8,1.6-4,10.8-4,10.8s-1,2.6,1.1,2.6h25.4h0.7h25.4
			C64.6,67.5,63.6,64.9,63.6,64.9"/>
		<path fill="#E9B990" d="M43.8,45.4c0,3.6-3.2,6.5-7,6.5c-3.9,0-7-2.9-7-6.5v-7.5c0-3.6,3.1-6.6,7-6.6c3.9,0,7,2.9,7,6.6V45.4z"/>
		<path fill="#FFC58F" d="M43.8,44.2c0,3.6-3.2,6.6-7,6.6c-3.9,0-7-2.9-7-6.6v-7.4c0-3.6,3.1-6.6,7-6.6c3.9,0,7,2.9,7,6.6V44.2z"/>
		<path fill="#00D094" d="M57.9,51.9c-0.4-0.3-0.7-0.5-1.2-0.7c-0.9-0.4-8.9-3.9-12-5.3c-0.4,4.3-3.8,7.6-8,7.6
			c-4.2,0-7.6-3.4-8-7.6c-3,1.3-11,4.8-12,5.3c-0.4,0.2-0.8,0.4-1.2,0.7c3,2.4,5.3,8.4,5.5,15.6h15.3h0.7h15.3
			C52.7,60.3,54.9,54.3,57.9,51.9"/>
		<path fill="#FFD196" d="M48.2,27.9c-0.2,0-0.3,0-0.5,0.1c-0.9-7.1-5.3-12.4-10.6-12.4c-9.2,0-9.7,5.3-10.6,12.4
			c-0.1,0-0.3-0.1-0.5-0.1c-0.8,0.1-1.4,0.8-1.4,1.6l0.3,4.1c0.1,0.8,0.8,1.4,1.6,1.4c0.1,0,0.1,0,0.2,0C28,41.3,32.1,46,37.1,46
			c5,0,9.1-4.7,10.4-11.1c0,0,0.1,0,0.2,0c0.8,0.1,1.5-0.6,1.6-1.4l0.3-4.1C49.6,28.6,49,27.9,48.2,27.9"/>
		<g>
			<path fill="#7C5947" d="M26.7,28.8c0,0.3-0.3,0.6-0.6,0.6c-0.3,0-0.6-0.3-0.6-0.6c0-0.3,0.3-0.6,0.6-0.6
				C26.4,28.2,26.7,28.5,26.7,28.8"/>
			<path fill="#7C5947" d="M48.7,28.8c0,0.3-0.3,0.6-0.6,0.6c-0.3,0-0.6-0.3-0.6-0.6c0-0.3,0.3-0.6,0.6-0.6
				C48.4,28.2,48.7,28.5,48.7,28.8"/>
			<path fill="#7C5947" d="M37.1,12.5c-6.4,0-11.6,4.5-11.6,10.1v6.2h1.2v-2.3c0-1.9,0.9-2.3,1.6-1.8c0,0,3.7,2.2,9.3,0
				c8.8-3.5,9.9,0.8,9.9,1.8v2.3h1.2v-6.2C48.7,17,43.5,12.5,37.1,12.5"/>
		</g>
	</g>
</g>
<g>
	<g>
		
			<ellipse transform="matrix(0.7074 -0.7068 0.7068 0.7074 -11.5984 35.1165)" opacity="0.1" fill="#3FA9F5" cx="36.6" cy="31.6" rx="23.8" ry="23.8"/>
		<path fill="#103754" d="M55.2,50.1c-10.2,10.2-26.9,10.2-37.1,0C7.8,39.9,7.8,23.2,18.1,13C28.3,2.8,45,2.8,55.2,13
			C65.4,23.3,65.4,39.9,55.2,50.1z M21.6,16.5c-8.3,8.3-8.3,21.8,0,30.1c8.3,8.3,21.8,8.3,30.1,0c8.3-8.3,8.3-21.8,0-30.1
			C43.4,8.2,29.9,8.2,21.6,16.5z"/>
	</g>
	<g>
		<line fill="#103754" x1="53.4" y1="48.4" x2="70.2" y2="65.2"/>
		
			<rect x="59.3" y="44.9" transform="matrix(0.7074 -0.7068 0.7068 0.7074 -22.0522 60.304)" fill="#103754" width="5" height="23.8"/>
	</g>
	<path fill="#F1A100" d="M95,89.9L95,89.9c-2.8,2.8-7.1,2.8-9.8,0.1L60.7,65.5c-2.7-2.7-2.7-7,0-9.7l0.1-0.1c2.7-2.7,7-2.7,9.7,0
		L95,80.2C97.7,82.9,97.7,87.2,95,89.9z"/>
	<path fill="#E08A00" d="M60.8,55.7L60.8,55.7L94.9,90l0,0c2.7-2.7,2.7-7,0-9.7L70.5,55.7C67.8,53,63.5,53,60.8,55.7z"/>
	<g opacity="0.5">
		<path fill="#FFFFFF" d="M21.7,37c-2.1-5.6-0.8-12.2,3.7-16.7"/>
		<path fill="#FFFFFF" d="M23.5,38.8c-0.2,0.2-0.5,0.4-0.9,0.6c-1.3,0.5-2.7-0.2-3.2-1.5c-2.4-6.7-0.8-14.2,4.3-19.3
			c1-1,2.5-1,3.5,0c1,1,1,2.5,0,3.5c-3.7,3.7-4.9,9.2-3.1,14.1C24.4,37.1,24.2,38.1,23.5,38.8z"/>
	</g>
</g>
<g>
</g>
<g>
</g>
<g>
</g>
<g>
</g>
<g>
</g>
<g>
</g>
<g>
</g>
<g>
</g>
<g>
</g>
<g>
</g>
<g>
</g>
<g>
</g>
<g>
</g>
<g>
</g>
<g>
</g>
</svg>
