<?xml version="1.0" encoding="utf-8"?>
<!-- Generator: Adobe Illustrator 20.1.0, SVG Export Plug-In . SVG Version: 6.00 Build 0)  -->
<svg version="1.1" baseProfile="basic" id="Слой_1"
	 xmlns="http://www.w3.org/2000/svg" xmlns:xlink="http://www.w3.org/1999/xlink" x="0px" y="0px" width="90px" height="90px"
	 viewBox="0 0 90 90" xml:space="preserve">
<g>
	<g>
		<path fill="#FFD800" d="M89.8,41.4C88,18.2,68.6,0,45,0C20.1,0,0,20.1,0,45c0,24.5,19.6,44.4,44,45c0.3,0,0.7,0,1,0
			c24.9,0,45-20.1,45-45C90,43.8,89.9,42.6,89.8,41.4z"/>
		<path opacity="0.2" d="M90,45c0-1.2-0.1-2.4-0.2-3.6L71,22.5l-2.5,6.6l0.3-8.1l-5.4-1.3l-6,14.1l6.7,6.7l-2.6,6.9L39.1,25l1.1,2.5
			l-6.8,8.2L15.8,28l12.4,12.4l-3.3,2.8l22.9,22.9l-2.2,1.5l-6.6-6.6L30.7,63l-0.4-0.3l-0.4,0.4l-2.1,0.5l0.8,1l-3.7,4l3.8,3.8
			l-2.1,0L44,90c0.3,0,0.7,0,1,0C69.9,90,90,69.9,90,45z"/>
	</g>
	<g>
		<g>
			<path fill="#FFFFFF" d="M35.8,77.9c8,0.3,18.7-9.5,18.7-9.5s4.1-3.4,8.6-9.2c4.3-5.6,4-5.6,7-10.6c0,0,6.9-12.7,4.8-20.4
				C71,19.5,65,20.1,65,20.1l-4.1,16.1c3,2.5,1.2,6.4,0.3,7.8c-0.8,1.2-4.9,6.6-6.2,8.3c0,0-6,7.3-7.1,8.5c-1.1,1.2-4.5,3.9-7.7,1.6
				l-14.7,7.8C25.5,70.2,26.4,76.2,35.8,77.9z"/>
			<path fill="#FFFFFF" d="M39.1,61.1c-1.3-1.3-2.9-2.2-4.6-2.5l-9.2,4.9c-0.7,1.6-0.9,3.5-0.5,5.2L39.1,61.1z"/>
			<path fill="#FFFFFF" d="M59.4,35.4l4-15.6c-1.8,0-3.5,0.6-5,1.7l-2.6,10.1C56.6,33.1,57.8,34.5,59.4,35.4z"/>
		</g>
		<g>
			<path fill="#FFFFFF" d="M36.8,26.3c1.3-1.6,2.9-1.2,3.6,0.9L46,43c0.7,2.1-0.4,3.5-2.6,3.2l-16.6-2.1c-2.2-0.3-2.9-1.8-1.6-3.4
				L36.8,26.3z"/>
			<path fill="#FFFFFF" d="M34,29.7c2.2,1.8,2.5,4.9,0.8,7.1l0,0c-1.8,2.2-4.9,2.5-7.1,0.8L15.8,28c-2.2-1.8-2.5-4.9-0.8-7.1l0,0
				c1.8-2.2,4.9-2.5,7.1-0.8L34,29.7z"/>
		</g>
	</g>
</g>
<g>
</g>
<g>
</g>
<g>
</g>
<g>
</g>
<g>
</g>
<g>
</g>
<g>
</g>
<g>
</g>
<g>
</g>
<g>
</g>
<g>
</g>
<g>
</g>
<g>
</g>
<g>
</g>
<g>
</g>
</svg>
