<?xml version="1.0" encoding="utf-8"?>
<!-- Generator: Adobe Illustrator 20.1.0, SVG Export Plug-In . SVG Version: 6.00 Build 0)  -->
<svg version="1.1" baseProfile="basic" id="Слой_1"
	 xmlns="http://www.w3.org/2000/svg" xmlns:xlink="http://www.w3.org/1999/xlink" x="0px" y="0px" width="65px" height="65px"
	 viewBox="0 0 65 65" xml:space="preserve">
<g>
	<circle fill="#22AF72" cx="32.5" cy="32.5" r="32.5"/>
	<path opacity="0.2" fill="#060000" d="M65,33.7l-3.6-3.6l-1.8,0.3l-5.8-5.8l2.9,9.4l-2.9-0.4l-2.7,3.2l-7.4-7.4h-3.1l-8.1-8.1
		l-0.3,13.1l-4.1,5l-9.3-9.3l-1.5,0.6l-6.2-6.2l0.5,7.2l0.4,0.4l-0.9,1.1l-1.8,0.8l0.6,0.7l-3.5,4.2l25.1,25.1l0,0.8
		c0.3,0,0.6,0,0.9,0C50.1,65,64.4,51.1,65,33.7z"/>
	<g>
		<polygon fill="#FCD22E" points="32.5,21.3 35.9,28.2 43.6,29.3 38.1,34.8 39.4,42.4 32.5,38.8 25.6,42.4 26.9,34.8 21.4,29.3 
			29.1,28.2 		"/>
		<polygon fill="#FCD22E" points="11.2,24.6 13.6,29.4 18.8,30.1 15,33.8 15.9,39.1 11.2,36.6 6.5,39.1 7.4,33.8 3.6,30.1 8.9,29.4 
					"/>
		<polygon fill="#FCD22E" points="53.8,24.6 56.1,29.4 61.4,30.1 57.6,33.8 58.5,39.1 53.8,36.6 49.1,39.1 50,33.8 46.2,30.1 
			51.4,29.4 		"/>
	</g>
</g>
<g>
</g>
<g>
</g>
<g>
</g>
<g>
</g>
<g>
</g>
<g>
</g>
<g>
</g>
<g>
</g>
<g>
</g>
<g>
</g>
<g>
</g>
<g>
</g>
<g>
</g>
<g>
</g>
<g>
</g>
</svg>
