<?xml version="1.0" encoding="utf-8"?>
<!-- Generator: Adobe Illustrator 20.0.0, SVG Export Plug-In . SVG Version: 6.00 Build 0)  -->
<svg version="1.1" baseProfile="basic" id="Слой_1"
	 xmlns="http://www.w3.org/2000/svg" xmlns:xlink="http://www.w3.org/1999/xlink" x="0px" y="0px" width="62px" height="62px"
	 viewBox="0 0 62 62" xml:space="preserve">
<g>
	<path fill="#FB461F" d="M28.8,20.2c1.5,0,2.8-0.7,3.7-1.7V27c0,1.4,1.2,2.6,2.6,2.6h9.4c-1,0.9-1.7,2.2-1.7,3.7
		c0,2.7,2.2,4.9,4.9,4.9c2.7,0,4.9-2.2,4.9-4.9c0-1.5-0.7-2.8-1.7-3.7h8.5c1.4,0,2.6-1.2,2.6-2.6V2.6C62,1.2,60.8,0,59.4,0H35.1
		c-1.4,0-2.6,1.2-2.6,2.6V12c-0.9-1-2.2-1.7-3.7-1.7c-2.7,0-4.9,2.2-4.9,4.9C23.9,18,26.1,20.2,28.8,20.2z"/>
	<path opacity="0.7" fill="#FF8A00" d="M28.8,39.8c0.2,0,0.5,0,0.7,0V35c0-0.4-0.1-0.7-0.2-1c-0.3-0.6-0.8-1.1-1.4-1.4
		c-0.3-0.1-0.7-0.2-1-0.2h-9.4c1-0.9,1.7-2.2,1.7-3.7c0-2.7-2.2-4.9-4.9-4.9c-2.7,0-4.9,2.2-4.9,4.9c0,1.5,0.7,2.8,1.7,3.7H2.6
		c-0.2,0-0.4,0-0.5,0.1c-0.2,0-0.3,0.1-0.5,0.2c-0.3,0.1-0.6,0.3-0.8,0.6C0.3,33.7,0,34.3,0,35v24.4c0,0.5,0.2,1,0.4,1.5
		c0.1,0.1,0.2,0.3,0.3,0.4c0.2,0.2,0.5,0.4,0.8,0.6c0.2,0.1,0.3,0.1,0.5,0.2C2.3,62,2.4,62,2.6,62h24.3c0.4,0,0.7-0.1,1-0.2
		c0.5-0.2,0.9-0.5,1.1-0.9c0.1-0.2,0.2-0.4,0.3-0.6c0.1-0.3,0.2-0.6,0.2-0.9v-3.8c-0.2,0-0.5,0-0.7,0c-4.4,0-7.9-3.6-7.9-7.9
		S24.4,39.8,28.8,39.8z"/>
	<path fill="#FDC314" d="M59.4,32.4h-3.8c0,0.2,0,0.5,0,0.7c0,4.4-3.5,7.9-7.9,7.9s-7.9-3.6-7.9-7.9c0-0.2,0-0.5,0-0.7h-4.8
		c-1.4,0-2.6,1.2-2.6,2.6v9.6c-0.9-1-2.2-1.7-3.7-1.7c-2.7,0-4.9,2.2-4.9,4.9s2.2,4.9,4.9,4.9c1.5,0,2.8-0.7,3.7-1.7v8.3
		c0,1.4,1.2,2.6,2.6,2.6h24.3c1.4,0,2.6-1.2,2.6-2.6V35C62,33.6,60.8,32.4,59.4,32.4z"/>
	<g opacity="0.7">
		<path fill="#FDC314" d="M20.9,15.3c0-4.4,3.5-7.9,7.9-7.9c0.2,0,0.5,0,0.7,0V2.6c0-1.1-0.7-2.1-1.7-2.4C27.5,0.1,27.2,0,26.9,0
			H2.6C2,0,1.4,0.2,0.9,0.6C0.4,1.1,0,1.8,0,2.6V27c0,0.4,0.1,0.8,0.3,1.1c0.4,0.9,1.3,1.5,2.3,1.5h3.8c0-0.2,0-0.5,0-0.7
			c0-4.4,3.5-7.9,7.9-7.9s7.9,3.6,7.9,7.9c0,0.2,0,0.5,0,0.7h4.8c0.8,0,1.6-0.4,2.1-1c0.3-0.4,0.6-1,0.6-1.6v-3.8
			c-0.2,0-0.5,0-0.7,0C24.4,23.2,20.9,19.6,20.9,15.3z"/>
	</g>
</g>
<g>
</g>
<g>
</g>
<g>
</g>
<g>
</g>
<g>
</g>
<g>
</g>
<g>
</g>
<g>
</g>
<g>
</g>
<g>
</g>
<g>
</g>
<g>
</g>
<g>
</g>
<g>
</g>
<g>
</g>
</svg>
