<svg baseProfile="basic" xmlns="http://www.w3.org/2000/svg" width="92" height="100" viewBox="0 0 92 100"><path fill="#D9D9D9" d="M92 36.3c0-9.9-1.8-18-4.9-24.7-1.8.1-3.6.2-5.4.2C66.6 11.9 53.4 7.1 46 0c-7.4 7.1-20.6 11.9-35.7 11.9-1.8 0-3.6-.1-5.4-.2C1.8 18.3 0 26.4 0 36.3 0 70.2 28 100 46 100c19.3 0 46-29.8 46-63.7z"/><path fill="#00AB75" d="M70.6 64.8s-3-8.6-3.7-10.1c-.7-1.5-1.6-2.2-2.7-2.7s-12.3-5.4-12.3-5.4l-6.4.5-6.4-.5S27.9 51.5 26.8 52c-1.1.5-1.9 1.1-2.7 2.7-.7 1.5-3.7 10.1-3.7 10.1s-.9 2.5 1 2.5H69.5c2 0 1.1-2.5 1.1-2.5"/><path fill="#E9B990" d="M52.1 46.6c0 3.4-2.9 6.1-6.6 6.1-3.6 0-6.6-2.7-6.6-6.1v-7c0-3.4 2.9-6.1 6.6-6.1 3.6 0 6.6 2.7 6.6 6.1v7z"/><path fill="#FFC58F" d="M52.1 45.5c0 3.4-2.9 6.1-6.6 6.1-3.6 0-6.6-2.7-6.6-6.1v-7c0-3.4 2.9-6.1 6.6-6.1 3.6 0 6.6 2.7 6.6 6.1v7z"/><path fill="#00D094" d="M65.3 52.7c-.3-.2-.7-.5-1.1-.6-.9-.4-8.3-3.7-11.2-4.9-.4 4-3.6 7.1-7.5 7.1s-7.1-3.1-7.5-7.1c-2.8 1.2-10.3 4.5-11.2 4.9-.4.2-.7.4-1.1.6 2.8 2.3 4.9 7.9 5.2 14.6h29.3c.2-6.7 2.2-12.4 5.1-14.6"/><path fill="#FFD196" d="M56.2 30.2c-.1 0-.3 0-.4.1-.9-6.6-5-11.6-9.9-11.6-8.6 0-9.1 5-9.9 11.6-.1 0-.3-.1-.4-.1-.8.1-1.3.7-1.3 1.5l.3 3.9c.1.8.7 1.3 1.5 1.3h.1c1.2 6 5.1 10.3 9.7 10.3s8.5-4.4 9.7-10.3h.1c.8.1 1.4-.5 1.5-1.3l.3-3.9c0-.8-.6-1.4-1.3-1.5"/><path fill="#724430" d="M36.1 31.1c0 .3-.2.5-.5.5s-.5-.2-.5-.5.2-.5.5-.5c.2 0 .5.2.5.5M56.6 31.1c0 .3-.2.5-.5.5s-.5-.2-.5-.5.2-.5.5-.5.5.2.5.5"/><path fill="#724430" d="M45.8 15.9c-6 0-10.8 4.2-10.8 9.4v5.8h1.1V29c0-1.8.9-2.2 1.5-1.7 0 0 3.5 2.1 8.7 0 8.2-3.3 9.3.8 9.3 1.7v2.1h1.1v-5.8c-.1-5.2-4.9-9.4-10.9-9.4"/><g><circle fill="#0084FD" cx="59.1" cy="60.3" r="15"/><path opacity=".2" d="M70.4 56.8l-4.1-3.4-8.1 9.8-5-4.1-3.4 4.1 9.1 7.4z"/><path fill="#FFF" d="M69.8 55.5l-4.2-3.4-8 9.8-5-4.1-3.4 4.2 9 7.4z"/></g><path opacity=".1" fill="#010000" d="M87.1 11.7c-1.8.1-3.6.2-5.4.2-15 0-28.2-4.7-35.6-11.7V100C65.7 100 92 70 92 36.3c0-9.9-1.8-18-4.9-24.6z"/></svg>