<svg baseProfile="basic" xmlns="http://www.w3.org/2000/svg" width="92" height="100" viewBox="0 0 92 100"><path fill="#D9D9D9" d="M92 36.3c0-9.9-1.8-18-4.9-24.7-1.8.1-3.6.2-5.4.2C66.6 11.9 53.4 7.1 46 0c-7.4 7.1-20.6 11.9-35.7 11.9-1.8 0-3.6-.1-5.4-.2C1.8 18.3 0 26.4 0 36.3 0 70.2 28 100 46 100c19.3 0 46-29.8 46-63.7z"/><path fill="#06C98C" d="M67.7 24.6H26.4c-2.5 0-4.5 2-4.5 4.5v32c0 2.5 2 4.5 4.5 4.5h1.2l-2.7 7.9 21.6-7.9h21.2c2.5 0 4.5-2 4.5-4.5v-32c0-2.5-2-4.5-4.5-4.5z"/><circle opacity=".1" cx="34.8" cy="50.1" r="4.2"/><circle opacity=".1" cx="49" cy="50.1" r="4.2"/><circle opacity=".1" cx="63.1" cy="50.1" r="4.2"/><circle fill="#FFF" cx="33.7" cy="47.9" r="4.2"/><circle fill="#FFF" cx="47.9" cy="47.9" r="4.2"/><circle fill="#FFF" cx="62" cy="47.9" r="4.2"/><path opacity=".1" fill="#010000" d="M87.1 11.7c-1.8.1-3.6.2-5.4.2-15 0-28.2-4.7-35.6-11.7V100C65.7 100 92 70 92 36.3c0-9.9-1.8-18-4.9-24.6z"/></svg>