<svg baseProfile="basic" xmlns="http://www.w3.org/2000/svg" width="92" height="100" viewBox="0 0 92 100"><path fill="#D9D9D9" d="M92 36.3c0-9.9-1.8-18-4.9-24.7-1.8.1-3.6.2-5.4.2C66.6 11.9 53.4 7.1 46 0c-7.4 7.1-20.6 11.9-35.7 11.9-1.8 0-3.6-.1-5.4-.2C1.8 18.3 0 26.4 0 36.3 0 70.2 28 100 46 100c19.3 0 46-29.8 46-63.7z"/><path fill="#5B5B5B" d="M55.9 72.3c0 2.4-2 4.4-4.4 4.4H30.7c-2.4 0-4.4-2-4.4-4.4V26.1c0-2.4 2-4.4 4.4-4.4h20.8c2.4 0 4.4 2 4.4 4.4v46.2z"/><path fill="#00CE93" d="M29.2 29.3h23.9v39.9H29.2z"/><circle fill="#FFF" cx="41.2" cy="72.9" r="2.1"/><g fill="#0084FD"><circle cx="61.7" cy="48.1" r="19.7"/><path d="M44.4 55.4l8.7 8.7-11.9 3.1z"/></g><g fill="#FFF"><path d="M75.5 41.4c0 .9-.7 1.6-1.6 1.6H49.7c-.9 0-1.6-.7-1.6-1.6 0-.9.7-1.6 1.6-1.6h24.2c.8-.1 1.6.7 1.6 1.6zM75.5 48.1c0 .9-.7 1.6-1.6 1.6H49.7c-.9 0-1.6-.7-1.6-1.6 0-.9.7-1.6 1.6-1.6h24.2c.8 0 1.6.7 1.6 1.6zM75.5 54.9c0 .9-.7 1.6-1.6 1.6H49.7c-.9 0-1.6-.7-1.6-1.6 0-.9.7-1.6 1.6-1.6h24.2c.8-.1 1.6.7 1.6 1.6z"/></g><path opacity=".2" fill="#060000" d="M74.9 33.4L41.2 67l-.1.2 9.9-2.6c3.1 2 6.8 3.2 10.7 3.2 10.9 0 19.7-8.8 19.7-19.7 0-5.8-2.5-11.1-6.5-14.7z"/><path opacity=".1" fill="#010000" d="M87.1 11.7c-1.8.1-3.6.2-5.4.2-15 0-28.2-4.7-35.6-11.7V100C65.7 100 92 70 92 36.3c0-9.9-1.8-18-4.9-24.6z"/></svg>