<svg baseProfile="basic" xmlns="http://www.w3.org/2000/svg" width="92" height="100" viewBox="0 0 92 100"><path fill="#D9D9D9" d="M92 35.9c-.1-9.9-1.9-18-5.1-24.6-1.8.2-3.6.2-5.4.3-15.1.1-28.4-4.5-35.8-11.6-7.3 7.2-20.5 12.1-35.6 12.2-1.8 0-3.6 0-5.4-.2C1.6 18.7-.1 26.8 0 36.7c.3 33.8 28.6 63.4 46.6 63.3 19.3-.2 45.7-30.3 45.4-64.1z"/><path fill="#3BA1F4" d="M73.9 30.4L49.1 51.7c-1.5 1.5-3.9 1.5-5.4 0l-25.1-21c0 .2-.1.5-.1.7l.2 29.7c0 2.5 2 4.5 4.5 4.4l46.5-.3c2.5 0 4.5-2 4.4-4.5L73.9 31v-.6z"/><path fill="#76CEFF" d="M49.2 40.9c-1.5-1.5-3.9-1.5-5.4 0L19.1 62.2c.1 2.4 2.1 4.3 4.5 4.3l46.3-.3c2.4 0 4.4-2 4.4-4.4L49.2 40.9z"/><path opacity=".3" fill="#1D1D1B" d="M43.7 55.8c1.5 1.6 3.9 1.6 5.4 0l24.8-24c-.1-2.6-2.1-4.6-4.5-4.6l-46.4.3c-2.4 0-4.4 2.1-4.4 4.6l25.1 23.7z"/><path fill="#76CEFF" d="M43.7 52.7c1.5 1.5 3.9 1.5 5.4 0l24.8-21.4c-.1-2.4-2.1-4.3-4.5-4.3l-46.4.3c-2.4 0-4.4 2-4.4 4.4l25.1 21z"/><path opacity=".1" fill="#010000" d="M86.9 11.3c-1.8.2-3.6.2-5.4.3-15 .1-28.2-4.4-35.7-11.4l.9 99.9c19.6-.3 45.6-30.5 45.3-64.2-.1-9.9-2-18-5.1-24.6z"/></svg>