<?xml version="1.0" encoding="utf-8"?>
<svg version="1.1" baseProfile="basic" id="promotions-guarantee"
     xmlns="http://www.w3.org/2000/svg" xmlns:xlink="http://www.w3.org/1999/xlink" x="0px" y="0px" width="130px" height="128px"
     viewBox="0 0 130 128" xml:space="preserve">
<polygon fill="#9B0A20" points="106.7,109.9 121.1,100.5 106.7,93.6 "/>
<polygon fill="#9B0A20" points="22.3,109.9 8.4,100.5 21.3,95.8 "/>
<path fill="#8C2E78" d="M129.2,64c0,3-5.1,5.6-5.5,8.5c-0.4,3,3.7,6.9,2.9,9.7c-0.8,2.9-6.4,3.9-7.7,6.6c-1.2,2.7,1.6,7.6,0,10.1
    c-1.6,2.5-7.3,2-9.2,4.2c-1.9,2.2-0.6,7.8-2.8,9.7c-2.2,1.9-7.5-0.2-10,1.4c-2.5,1.6-2.7,7.3-5.5,8.5c-2.7,1.2-7.2-2.3-10-1.5
    c-2.8,0.8-4.7,6.2-7.6,6.6c-2.9,0.4-6.2-4.2-9.2-4.2c-3,0-6.3,4.6-9.2,4.2c-3-0.4-4.8-5.8-7.6-6.6c-2.9-0.8-7.3,2.7-10,1.5
    c-2.7-1.2-3-6.9-5.4-8.5c-2.5-1.6-7.8,0.5-10-1.4c-2.2-1.9-0.9-7.5-2.8-9.7c-1.9-2.2-7.6-1.7-9.2-4.2c-1.6-2.5,1.2-7.4,0-10.1
    c-1.2-2.7-6.8-3.8-7.7-6.6c-0.8-2.8,3.3-6.7,2.9-9.7C5.1,69.6,0,67,0,64c0-3,5.1-5.6,5.5-8.5c0.4-3-3.7-6.9-2.9-9.7
    c0.8-2.9,6.4-3.9,7.7-6.6c1.2-2.7-1.6-7.6,0-10.1c1.6-2.5,7.3-2,9.2-4.2c1.9-2.2,0.6-7.8,2.8-9.7c2.2-1.9,7.5,0.2,10-1.4
    c2.5-1.6,2.7-7.3,5.5-8.5c2.7-1.2,7.2,2.3,10,1.5c2.8-0.8,4.7-6.2,7.6-6.6c2.9-0.4,6.2,4.2,9.2,4.2c3,0,6.3-4.6,9.2-4.2
    c3,0.4,4.8,5.8,7.6,6.6c2.9,0.8,7.3-2.7,10-1.5c2.7,1.2,3,6.9,5.5,8.5c2.5,1.6,7.8-0.5,10,1.4c2.2,1.9,0.9,7.5,2.8,9.7
    c1.9,2.2,7.6,1.7,9.2,4.2c1.6,2.5-1.2,7.4,0,10.1c1.2,2.7,6.8,3.8,7.7,6.6c0.8,2.8-3.3,6.7-2.9,9.7C124.2,58.4,129.2,61,129.2,64z"
    />
<circle fill="#FBD12E" cx="64.6" cy="64" r="52.1"/>
<circle fill="#8C2E78" cx="64.6" cy="64" r="37.1"/>
<path opacity="5.000000e-02" d="M32.3,114.3c2.5,1.6,2.7,7.3,5.4,8.5c2.7,1.2,7.2-2.3,10-1.5c2.8,0.8,4.7,6.2,7.6,6.6
    c2.9,0.4,6.2-4.2,9.2-4.2c3,0,6.3,4.6,9.2,4.2c3-0.4,4.8-5.8,7.6-6.6c2.9-0.8,7.3,2.7,10,1.5c2.7-1.2,3-6.9,5.5-8.5
    c2.5-1.6,7.8,0.5,10-1.4c2.2-1.9,0.9-7.5,2.8-9.7c1.9-2.2,7.6-1.7,9.2-4.2c1.6-2.5-1.2-7.4,0-10.1c1.2-2.7,6.8-3.8,7.7-6.6
    c0.8-2.8-3.3-6.7-2.9-9.7c0.4-2.9,5.5-5.5,5.5-8.5c0-3-5.1-5.6-5.5-8.5c-0.4-3,3.7-6.9,2.9-9.7c-0.8-2.9-6.4-3.9-7.7-6.6
    c-1.2-2.7,1.6-7.6,0-10.1c-1.6-2.5-7.3-2-9.2-4.2c-1.9-2.2-0.6-7.8-2.8-9.7l-84.6,97.7C24.5,114.8,29.8,112.7,32.3,114.3z"/>
<g opacity="0.72">
    <path fill="#FFFFFF" d="M39,51.5c0-6.6,4.7-11.8,11.9-11.8c7.2,0,12,5.2,12,11.8c0,6.5-4.7,11.5-12,11.5C43.7,63,39,58,39,51.5z
         M56.4,51.5c0-3.9-2.3-6.3-5.6-6.3c-3.2,0-5.6,2.3-5.6,6.3c0,3.7,2.4,6.1,5.6,6.1C54.1,57.5,56.4,55.1,56.4,51.5z M46.3,87.3
        l30-46.9h5.3l-30,46.9H46.3z M64.8,76.5c0-6.6,4.7-11.8,11.9-11.8c7.2,0,12,5.2,12,11.8c0,6.5-4.8,11.6-12,11.6
        C69.5,88.1,64.8,83.1,64.8,76.5z M82.3,76.5c0-3.9-2.4-6.3-5.6-6.3s-5.6,2.4-5.6,6.3c0,3.8,2.3,6.1,5.6,6.1S82.3,80.3,82.3,76.5z"
        />
</g>
<path opacity="0.15" d="M97,89.9c0-2.2-0.5-4.7-5-4.7c-2.7,0-11.7,0-18.4,0c-4.5,0-8,0-8,0h-1.6c0,0-2.6,0-6.2,0
    c-6.8,0-17.3,0-20.3,0c-4.6,0-5,2.5-5,4.7c0,2.2-0.3,4.4-4.2,4.4c-2.6,0-10.6,0-15.7,0c0,0,0,0.8,0,1.2c0,3.1,0.3,5.8,0.8,8.8
    c5,0,12.4,0,14.9,0c3.9,0,4.2,5.2,4.2,7.4c0,2.2,0.5,4.7,5,4.7c3,0,13.4,0,20.3,0c3.6,0,6.2,0,6.2,0h1.6c0,0,3.5,0,8,0
    c6.7,0,15.7,0,18.4,0c4.6,0,5-2.5,5-4.7c0-2.2,0.3-7.4,4.2-7.4c2.4,0,9.6,0,14.7,0c0.5-3,0.8-5.8,0.8-8.8c0-0.5,0-1.2,0-1.2
    c-5,0-12.9,0-15.4,0C97.3,94.3,97,92.1,97,89.9z"/>
<path fill="#FC3F3F" d="M101.2,90.2c-3.9,0-4.2-5.7-4.2-7.9s-0.5-4.2-5-4.2c-2.7,0-11.7,0-18.4,0c-4.5,0-8,0-8,0h-1.6
    c0,0-2.6,0-6.2,0c-6.8,0-17.3,0-20.3,0c-4.6,0-5,2-5,4.2s-0.3,7.9-4.2,7.9c-3.9,0-20.3,0-20.3,0v11.1c0,0,16.4,0,20.3,0
    c3.9,0,4.2,5.7,4.2,7.9c0,2.2,0.5,4.2,5,4.2c3,0,13.4,0,20.3,0c3.6,0,6.2,0,6.2,0h1.6c0,0,3.5,0,8,0c6.7,0,15.7,0,18.4,0
    c4.6,0,5-2,5-4.2c0-2.2,0.3-7.9,4.2-7.9c3.9,0,19.3,0,19.3,0V90.2C120.6,90.2,105.1,90.2,101.2,90.2z"/>
<g>
    <path fill="#FFFFFF" d="M44.4,92.5v-3.9H40v3.9h-2v-9.2h2v3.6h4.4v-3.6h2v9.2H44.4z"/>
    <path fill="#FFFFFF" d="M48.2,92.5v-9.2h2v6l4.3-6h2v9.2h-2v-6.2l-4.4,6.2H48.2z"/>
    <path fill="#FFFFFF" d="M57.7,91.2l1-1.3c0.6,0.7,1.8,1.1,2.7,1.1c1.2,0,1.9-0.5,1.9-1.2c0-0.7-0.7-1.1-2-1.1h-1.9V87h1.9
        c1.1,0,1.9-0.3,1.9-1c0-0.7-0.8-1.1-1.9-1.1c-0.9,0-1.9,0.3-2.5,1l-1-1.2c0.7-0.8,2.1-1.5,3.7-1.5c2.2,0,3.7,1,3.7,2.5
        c0,1.2-1,1.9-2,2.1c0.9,0.1,2.1,0.8,2.1,2.2c0,1.6-1.6,2.7-3.8,2.7C59.8,92.7,58.3,92,57.7,91.2z"/>
    <path fill="#FFFFFF" d="M72.2,92.5l-2.8-3.7l-0.7,0.9v2.8h-2v-9.2h2v4.1l3.3-4.1h2.4l-3.7,4.3l3.9,4.9H72.2z"/>
    <path fill="#FFFFFF" d="M75.6,92.5v-9.2h2v6l4.3-6h2v9.2h-2v-6.2l-4.4,6.2H75.6z"/>
    <path fill="#FFFFFF" d="M85.6,92.5v-9.2h6.5V85h-4.6v2h4.5v1.7h-4.5v2.1h4.6v1.7H85.6z"/>
    <path fill="#FFFFFF" d="M48.3,107.7h-9.9V95h2.7v10.4h6V95h2.7v10.4H51v4.7h-2.7V107.7z"/>
    <path fill="#FFFFFF" d="M52.6,107.7V95h9v2.4h-6.3v2.7h6.2v2.4h-6.2v2.9h6.3v2.4H52.6z"/>
    <path fill="#FFFFFF" d="M72.5,107.7v-5.3h-6v5.3h-2.7V95h2.7v5h6v-5h2.7v12.7H72.5z"/>
    <path fill="#FFFFFF" d="M80.4,95v4.5h3.2c2.8,0,4.3,1.9,4.3,4.1c0,2.2-1.5,4.1-4.3,4.1h-6V95H80.4z M80.4,101.9v3.4h2.9
        c1.1,0,1.9-0.6,1.9-1.7c0-1.1-0.8-1.7-1.9-1.7H80.4z M89,107.7V95h2.7v12.7H89z"/>
</g>
<g>
    <ellipse transform="matrix(0.9165 -0.4 0.4 0.9165 -20.7877 31.3521)" fill="none" cx="64.7" cy="65.5" rx="45.3" ry="45.3"/>
    <path fill="#8C2E78" d="M26,34.1l1.3,0.9l-2.2,3l6,4.2L30,43.8l-7.3-5.1L26,34.1z"/>
    <path fill="#8C2E78" d="M37.5,34.9l-1.9-1l-2.3,2.3l1,2l-1.4,1.4L28.8,31l1.6-1.6l8.5,4.1L37.5,34.9z M34.2,33.1
        c-1.8-0.9-2.8-1.5-3-1.6c-0.2-0.1-0.4-0.2-0.5-0.3c0.3,0.5,0.9,1.6,1.9,3.5L34.2,33.1z"/>
    <path fill="#8C2E78" d="M40.9,24.9c0.5,0.8,0.7,1.6,0.5,2.3c-0.2,0.8-0.8,1.4-1.7,2.1l-0.7,0.5l1.8,2.6l-1.6,1.1l-5-7.3l2.3-1.6
        c0.9-0.6,1.7-0.9,2.4-0.8C39.8,23.7,40.4,24.1,40.9,24.9z M38.2,28.4l0.5-0.4c0.5-0.3,0.8-0.7,0.9-1c0.1-0.4,0-0.7-0.2-1.1
        c-0.2-0.4-0.5-0.6-0.9-0.6c-0.3,0-0.7,0.1-1.1,0.4l-0.7,0.5L38.2,28.4z"/>
    <path fill="#8C2E78" d="M50.2,27.3l-1.5-1.7l-2.9,1.3l0.3,2.2L44.2,30l-0.8-9.4l2.1-1l6.6,6.8L50.2,27.3z M47.6,24.4
        c-1.3-1.5-2.1-2.3-2.3-2.5s-0.3-0.4-0.4-0.5c0.1,0.5,0.3,1.9,0.6,4L47.6,24.4z"/>
    <path fill="#8C2E78" d="M59.4,24.8l-1.8,0.4l-0.8-3.7l-3.4,0.8l0.8,3.7l-1.8,0.4l-1.9-8.7l1.8-0.4l0.8,3.4l3.4-0.8l-0.8-3.4
        l1.8-0.4L59.4,24.8z"/>
    <path fill="#8C2E78" d="M64.2,24.6l-1.9,0.1l-0.3-7.3l-2.4,0.1l-0.1-1.6l6.7-0.2l0.1,1.6L64,17.3L64.2,24.6z"/>
    <path fill="#8C2E78" d="M68.6,15.8l1.7,0.3l-0.7,4.2l-0.2,1.1l-0.3,1.3l0,0l5.1-6l2.2,0.4l-1.4,8.8l-1.7-0.3l0.7-4.2
        c0.1-0.6,0.3-1.4,0.5-2.5l0,0l-5.1,6.1l-2.2-0.4L68.6,15.8z"/>
    <path fill="#8C2E78" d="M84.2,22.7c-0.3,0.9-0.9,1.5-1.6,1.7c-0.7,0.3-1.6,0.2-2.7-0.2L79.2,24l-1.1,3l-1.8-0.7l3.1-8.3l2.7,1
        c1,0.4,1.7,0.9,2.1,1.5C84.5,21.1,84.6,21.8,84.2,22.7z M79.8,22.5l0.6,0.2c0.5,0.2,1,0.2,1.3,0.1s0.6-0.4,0.8-0.8
        c0.2-0.4,0.2-0.8,0-1c-0.2-0.3-0.5-0.5-1-0.7L80.7,20L79.8,22.5z"/>
    <path fill="#8C2E78" d="M93.5,24.7l-5.6,4c-0.7,0.5-1.3,0.8-1.7,1c-0.4,0.1-0.9,0.2-1.3,0.1c-0.4-0.1-0.9-0.2-1.4-0.5
        c-0.4-0.3-0.8-0.5-1.1-0.9l0.8-1.4c0.2,0.3,0.6,0.6,1,0.9c0.3,0.2,0.6,0.2,0.8,0.2c0.3,0,0.5-0.2,0.9-0.4l0.6-7.1l1.7,1L87.6,27
        l0.1,0l0.2-0.2l3.9-3.1L93.5,24.7z"/>
    <path fill="#8C2E78" d="M93.1,36l-3.9-3.3l5.7-6.8l3.9,3.3l-1,1.2l-2.5-2.1l-1.3,1.5l2.3,1.9l-1,1.2L93.1,31l-1.5,1.8l2.5,2.1
        L93.1,36z"/>
    <path fill="#8C2E78" d="M96.2,39.5l4.2-6l0,0c-1.1,0.9-1.8,1.5-2.2,1.8L95,37.9l-1-1.3l7-5.5l1.6,2l-4.1,5.8l0,0l6.7-2.4l1.6,2
        l-7,5.5l-1.1-1.4l3.3-2.6c0.2-0.1,0.3-0.3,0.5-0.4c0.2-0.2,0.8-0.6,1.7-1.2l0,0l-6.9,2.5L96.2,39.5z"/>
</g>
</svg>
