<svg xmlns="http://www.w3.org/2000/svg" xmlns:xlink="http://www.w3.org/1999/xlink" width="320" height="120" viewBox="0 0 320 120">
  <defs>
    <clipPath id="a">
      <rect width="320" height="120" fill="none"/>
    </clipPath>
  </defs>
  <g clip-path="url(#a)">
    <g>
      <path d="M137.536,107.317a4.447,4.447,0,0,1,4.134-4.679h0a4.4,4.4,0,0,1,4.133,4.645l.111,25.806a4.445,4.445,0,0,1-4.135,4.676h0a4.39,4.39,0,0,1-4.128-4.642Z" fill="#ffd27c"/>
      <path d="M128.452,99.031a4.445,4.445,0,0,1,4.132-4.68h0A4.4,4.4,0,0,1,136.717,99l.2,34.13a4.443,4.443,0,0,1-4.133,4.677h0a4.4,4.4,0,0,1-4.131-4.644Z" fill="#ffd27c"/>
      <path d="M80.175,107.314a4.444,4.444,0,0,0-4.133-4.679h0a4.4,4.4,0,0,0-4.133,4.645L71.8,133.087a4.443,4.443,0,0,0,4.132,4.677h0a4.39,4.39,0,0,0,4.129-4.642Z" fill="#ffd27c"/>
      <path d="M89.261,99.03a4.447,4.447,0,0,0-4.132-4.681h0A4.4,4.4,0,0,0,81,98.994l-.206,34.13a4.443,4.443,0,0,0,4.133,4.677h0a4.4,4.4,0,0,0,4.133-4.644Z" fill="#ffd27c"/>
      <g>
        <path d="M181.934,81.912A72.671,72.671,0,1,1,109.273,9.237,72.667,72.667,0,0,1,181.934,81.912Z" fill="#76d9fc"/>
        <path d="M62.359,96.112a5.674,5.674,0,0,0-1.324-.327,3.507,3.507,0,0,0-1.183,0c-.989.291-1.056,1.324,1.627,2.94.72.956,2.025,1.83,3.26,1.352.718-2.038-.774-3.278-2.381-3.832C62.359,96.112,62.373,96.152,62.359,96.112Z" fill="#00a936"/>
        <path d="M73.6,75.528c.117.106.192.273.3.291h.152c.724.205,1.428-.525.879-.573A2.94,2.94,0,0,0,73.6,75.528Z" fill="#00a936"/>
        <path d="M90.428,69.185c-1.151.195-1.427.963,1.046,2.663.306-.083,2.433-.563,1.185.724C96.5,70.282,92.389,68.835,90.428,69.185Z" fill="#00a936"/>
        <path d="M90.429,52.769c4.136-1.681,5.09-12.574.165-12.254a3.273,3.273,0,0,0-1.043.31C91.613,44.627,86.857,49.465,90.429,52.769Z" fill="#00a936"/>
        <path d="M137.91,61.795c.328-2.272-3.287-3.945-4.916-3.851-.948.066-1.133.744.619,2.377C131.976,64.189,136.342,64.4,137.91,61.795Z" fill="#00a936"/>
        <path d="M100.932,33.436c1.194-.557,1.766-2.536,0-2.536a2.618,2.618,0,0,0-.88-.151,8.181,8.181,0,0,0-.871.151C95.693,31.6,96.754,37.378,100.932,33.436Z" fill="#00a936"/>
        <path d="M105.82,32.083c-5.049.638-10.141,5.513-5.447,10.339,3.362,4.2-4.855,12.762,2.943,14.961,3.094-6.923,11.561-12.405,9.467-20.846C111.91,32.936,108.862,31.7,105.82,32.083Z" fill="#00a936"/>
        <path d="M97.106,132.012c-7.473-4.966-12.883-12.564-21.3-16.264-6.849-6.649-22.3-2.516-22.015-15.091.715-5.97-4.079-8.855-7.675-11.661-2.767-9.241,14.091-12.64,14.333-2.518,5.551-.29,7.5-9.971,13.9-11.369,3.3-2.864,12.232.216,9-5.634,3.193-3.034,12.56-2.931,7.978-10.03-1.536-6.92-10.042-10.264-12.84-2.384-7.7,2.064-4.6-14.641,3.239-12.415,5.681.329,4.908-4.61,1.466-6.2,0-.243-.076-.377-.291-.161a5.072,5.072,0,0,0-2.067-.44c-7.68-4.245,7.686-15.062-2.493-18.49C67.175,28.9,50.137,43.911,43.315,57.939c-3.081,8.8-2.566,17.655-2.208,26.9,3.127,8.958,9.2,16.347,14.038,24.378,3.094,3.877,1.606,8.339,1.369,12.584-.082.028.038.13.038.149a8.749,8.749,0,0,0,2.418,7.231c3.783,4.881,9.29,8.75,11.977,14.376a72.04,72.04,0,0,0,19.841,8.556c.77-.349,2.333-.807,7.946-1.344v-.152c0-1.678,7.762-4.137,11.6-6.976C116.708,135.939,103.511,129.778,97.106,132.012Z" fill="#00a936"/>
        <path d="M164.64,128.908a72.342,72.342,0,0,0,17.294-47c0-2-.138-3.971-.3-5.936-.051-.49-.088-.985-.144-1.473-4.153,2.272-11.538-10.229-3.984-4.284a4.812,4.812,0,0,0,3.1-1.164A73.569,73.569,0,0,0,176.9,55.879a18.358,18.358,0,0,0-2.064-2.205,14.6,14.6,0,0,0-.148-2.657c-.036-.047.044-.113,0-.16A73.119,73.119,0,0,0,108.924,9.64c-1.972,0-3.976.12-5.926.281a28.078,28.078,0,0,1-3.263.451c-.389.038-.778.085-1.165.151a71.837,71.837,0,0,0-11.808,2.5c9.991-.732,20.25-.469,29.259,4,2.381,7.652,16.64.148,15.955,8.7.111.123.328.32.449.463-.226.167.165,1.726.452.421,2.464,2.79,7.65,8.575,2.206,7.851-7.217-.987-5.34,13.229-.141,15.813,4.953,2.666,7.738-2.685,2.649-5.316-.687-6.667,11.112,4.1,5.905,7.663-.208.142-.377.31-.578.459.239-.956-.343-.055-.324.162-5.921,4.29-2.545,14.394-4.846,21.127-4.1,9.1,10.253,5.088,8.114-2.075-2.626-6.592,10.916-3.587,7.987-8.273,8.212,4.357,7.437-7.342,4.006-11.249,1.6-6.254,5.821.732,3.825,4.14.324,3.223,3.1,3.964,5.332,4.884a1.215,1.215,0,0,0,.437.14c1.949.931,3.117,2.123,1.015,5.785-2.413,8.133-10.593,8.582-17.278,7.078-6.761,2.8-8.018,11.016-11.834,16.547-3.784,6.911-6.93,17.09-.136,23.2,6.5,6.244,13.977.826,19.367-3.4,10.334-1.343,11.281,10.827,6.2,17.023C164.724,128.459,164.682,128.674,164.64,128.908Z" fill="#00a936"/>
        <g opacity="0.2">
          <path d="M40.129,59.508c-.02.058-.033.095-.046.14a4.871,4.871,0,0,0,1.267-.14Z" fill="#010000"/>
          <path d="M176.487,103.807a.373.373,0,0,1,.061-.232c-.122.159-1.214,1.248-9.517,2.459a85.733,85.733,0,0,0,3.405-23.174h11.071v-2.2H170.435a85.553,85.553,0,0,0-3.547-23.374c8.389,1.212,9.488,2.311,9.6,2.461a.347.347,0,0,1-.066-.235h1.983c-.156-.469-.314-.939-.48-1.409-.874-.808-2.653-1.466-5.581-2.095-1.711-.365-3.78-.724-6.194-1.041a76.416,76.416,0,0,0-11.943-22.69,49.994,49.994,0,0,1,11.953,4.444c-1.113-1.39-2.258-2.749-3.474-4.068a72.418,72.418,0,0,0-9.1-2.808c-.549-.141-1.107-.262-1.661-.393a59.477,59.477,0,0,0-28.33-18.8,72.771,72.771,0,0,0-30.193.338,59.758,59.758,0,0,0-27.2,18.44c-.587.138-1.172.27-1.742.411a73.736,73.736,0,0,0-8.349,2.518c-1.173,1.257-2.3,2.563-3.385,3.9a53.938,53.938,0,0,1,11.185-4.01A76.65,76.65,0,0,0,51.982,54.917c-2.565.337-4.752.7-6.541,1.087a18.744,18.744,0,0,0-4.606,1.446c-.212.572-.4,1.145-.587,1.719,2.058-.481,5.69-1.184,11.005-1.936a85.656,85.656,0,0,0-3.57,23.422H36.635c-.014.412-.042.826-.042,1.249,0,.319.023.627.028.947H47.679a85.866,85.866,0,0,0,3.416,23.215c-8.564-1.222-9.686-2.34-9.8-2.5a.458.458,0,0,1,.057.232h-1.39c.21.658.437,1.314.665,1.965a17.864,17.864,0,0,0,4.814,1.548q2.64.564,6.38,1.071A77.171,77.171,0,0,0,62.761,130.01a44.3,44.3,0,0,1-11.789-4.7c1.088,1.454,2.238,2.854,3.427,4.226a69.57,69.57,0,0,0,10.023,3.181c.165.039.334.075.5.122a60.365,60.365,0,0,0,28.339,19.948,72.651,72.651,0,0,0,30.268.387c11.494-3.334,21.74-10.526,29.695-20.378.1-.027.215-.055.322-.074a65.991,65.991,0,0,0,10.927-3.577c1.266-1.492,2.488-3.033,3.643-4.618-2.512,1.953-6.889,3.838-12.73,5.444a77.453,77.453,0,0,0,10.928-21.615c2.359-.329,4.4-.677,6.09-1.033,3.126-.674,4.949-1.378,5.75-2.27.137-.415.282-.818.42-1.242ZM100.769,11.47c-3.973,2.854-7.634,7.785-10.795,14.565a175.059,175.059,0,0,0-20.161,2.64C78.321,19.622,88.995,13.453,100.769,11.47Zm-33.4,19.955a164.884,164.884,0,0,1,21.593-3.1q-.445,1.017-.86,2.086a116,116,0,0,0-5.953,22.254c-8.071.3-15.49.761-21.876,1.333q-3.178.3-5.9.616A73.9,73.9,0,0,1,67.367,31.425ZM53.615,56.918c2.333-.283,5.111-.573,8.423-.864,5.848-.5,12.535-.89,19.745-1.174a176.3,176.3,0,0,0-2.018,25.777H49.847A83.626,83.626,0,0,1,53.615,56.918ZM49.847,82.853H79.766A177.221,177.221,0,0,0,81.7,108.443c-7.176-.283-13.828-.678-19.663-1.175-3.385-.3-6.211-.593-8.584-.893A83.268,83.268,0,0,1,49.847,82.853ZM54.2,108.685c1.864.227,3.888.433,6.076.63,6.36.582,13.751,1.033,21.789,1.344a115.477,115.477,0,0,0,6.032,22.734c.11.27.222.534.323.8a158.74,158.74,0,0,1-22.288-3.335A74.3,74.3,0,0,1,54.2,108.685Zm14.231,24.934a173.6,173.6,0,0,0,20.959,2.863c3.276,7.446,7.156,12.818,11.375,15.861C88.339,150.239,77.142,143.5,68.429,133.619Zm39.539,19.363c-5.9-.62-11.517-6.329-16.124-16.312,5.194.357,10.6.544,16.124.572Zm0-17.945c-5.878-.019-11.629-.236-17.118-.639-.248-.591-.5-1.2-.733-1.822a112.831,112.831,0,0,1-5.843-21.833c7.475.255,15.47.407,23.695.407Zm0-26.1c-8.338,0-16.47-.151-24.061-.423a174.459,174.459,0,0,1-1.976-25.664h26.038Zm0-28.282H81.934A172.6,172.6,0,0,1,84,54.8c7.57-.263,15.673-.413,23.977-.422Zm0-28.49c-8.2.009-16.159.148-23.611.41a111.261,111.261,0,0,1,5.76-21.353c.415-1.081.848-2.1,1.289-3.1,5.314-.375,10.883-.581,16.562-.6Zm0-26.847c-5.3.017-10.506.2-15.512.534,4.488-9.192,9.874-14.443,15.513-15.032Zm60.286,55.339H138.35a175.65,175.65,0,0,0-2.013-25.769c7.086.283,13.655.675,19.409,1.166,3.479.3,6.367.612,8.776.91A83.4,83.4,0,0,1,168.261,80.662Zm-4.5-26c-1.911-.238-3.991-.443-6.254-.659-6.292-.564-13.591-1.017-21.532-1.326a115.38,115.38,0,0,0-5.961-22.263c-.273-.706-.555-1.4-.847-2.086a164.883,164.883,0,0,1,21.6,3.12A73.65,73.65,0,0,1,163.762,54.661ZM148.32,28.693a176.386,176.386,0,0,0-20.17-2.657c-3.155-6.781-6.821-11.712-10.793-14.566C129.136,13.464,139.821,19.634,148.32,28.693Zm-38.174-17.87c5.647.591,11.031,5.842,15.512,15.034-5-.329-10.207-.517-15.512-.536Zm0,16.7c5.69.02,11.249.227,16.568.613.442.994.869,2.018,1.291,3.087a111.84,111.84,0,0,1,5.756,21.362c-7.447-.262-15.415-.4-23.616-.421Zm0,26.847c8.314.019,16.423.169,23.992.441a173.607,173.607,0,0,1,2.047,25.844h-26.04Zm0,28.481h26.04a172.91,172.91,0,0,1-1.975,25.653c-7.591.282-15.724.431-24.066.431Zm0,28.294c8.23-.008,16.226-.152,23.7-.414A113.148,113.148,0,0,1,128,132.578c-.245.619-.48,1.212-.732,1.8-5.484.415-11.24.63-17.128.657Zm0,26.092c5.531-.027,10.94-.224,16.127-.581-4.606,9.994-10.227,15.7-16.128,16.321Zm7.21,15.1c4.216-3.043,8.1-8.414,11.39-15.869a173.484,173.484,0,0,0,20.969-2.892C141,143.481,129.783,150.241,117.35,152.344Zm34.66-21.532a156.322,156.322,0,0,1-22.315,3.372c.1-.265.216-.518.316-.788a115.191,115.191,0,0,0,6.042-22.745c7.931-.317,15.217-.759,21.51-1.331,2.3-.209,4.422-.433,6.361-.657A74.068,74.068,0,0,1,152.011,130.812Zm12.665-24.47c-2.433.313-5.358.621-8.88.931-5.759.477-12.318.872-19.382,1.163a176.543,176.543,0,0,0,1.936-25.579h29.918A83.651,83.651,0,0,1,164.675,106.342Z" fill="#010000"/>
        </g>
      </g>
      <path d="M52.04,128.664c7.312,9.649,19.162,21.056,30.327,26.085,0,0,30.035-48.434,41.018-63.12,10.254-13.712,43.931-52.662,43.931-52.662A83.628,83.628,0,0,0,135.67,16.83Z" fill="#010000" opacity="0.2" style="isolation: isolate"/>
      <path d="M51.312,125.749a72.918,72.918,0,0,0,28.141,22.441L164.4,34.594a72.787,72.787,0,0,0-29.458-20.679Z" fill="#ffdd03"/>
      <path d="M51.312,125.749,164.4,34.594a72.787,72.787,0,0,0-29.458-20.679Z" fill="#fff" opacity="0.1" style="isolation: isolate"/>
      <path d="M158.744,42.16l5.658-7.565a72.787,72.787,0,0,0-29.458-20.679l-7.109,9.506A82.511,82.511,0,0,1,158.744,42.16Z" fill="#fff" opacity="0.3" style="isolation: isolate"/>
      <path d="M170.329,42.528a72.9,72.9,0,0,1,1.909,16.6c0,1.042-.027,2.077-.071,3.108,0,.119-.008.238-.014.356-.047,1-.117,1.987-.2,2.973-.012.128-.022.257-.034.385q-.14,1.508-.342,3l-.029.205a72.683,72.683,0,0,1-68.332,62.549l-.2.007c-.533.025-1.068.047-1.605.06q-.917.023-1.839.023c-.675,0-1.347-.011-2.017-.029l-.216-.009a72.572,72.572,0,0,1-56.055-29.228l0-.006h0c-.966-1.294-1.879-2.628-2.758-3.987a72.356,72.356,0,0,0,12.453,26.768h0l0,.006a72.571,72.571,0,0,0,56.055,29.228c.072,0,.143.007.216.008.67.018,1.342.029,2.017.029q.923,0,1.838-.023c.538-.014,1.072-.035,1.606-.06l.2-.007a72.682,72.682,0,0,0,68.331-62.549l.029-.205q.2-1.49.342-3c.012-.128.022-.257.034-.385q.13-1.479.2-2.973c0-.118.009-.238.013-.356.044-1.031.072-2.066.072-3.108A72.288,72.288,0,0,0,170.329,42.528Z" fill="#010000" opacity="0.2" style="isolation: isolate"/>
      <ellipse cx="149.343" cy="20.23" rx="1.078" ry="2.177" transform="translate(71.249 149.125) rotate(-66.503)" fill="#fff" opacity="0.1" style="isolation: isolate"/>
      <g>
        <path d="M88.609,118.882a3.145,3.145,0,1,1,4.4-.67A3.182,3.182,0,0,1,88.609,118.882Z" fill="#00b05a"/>
        <path d="M88.778,107.387a9.511,9.511,0,0,1-2.016-13.829,8.73,8.73,0,0,1,7.116-3.968l.529,4.391a4.548,4.548,0,0,0-3.974,1.992c-1.773,2.409-1.266,5.386,1.36,7.32s5.652,1.556,7.425-.852a4.742,4.742,0,0,0,.722-4.386l4.32-.821c.67,2.037.633,4.9-1.645,8A9.523,9.523,0,0,1,88.778,107.387Z" fill="#00b05a"/>
        <path d="M100.264,91.789a9.922,9.922,0,1,1,13.814-2.125A9.5,9.5,0,0,1,100.264,91.789Zm8.728-11.851c-2.347-1.728-5.414-1.816-7.232.654s-.8,5.341,1.544,7.068c2.378,1.75,5.421,1.87,7.24-.6S111.369,81.689,108.992,79.938Z" fill="#00b05a"/>
        <path d="M135.55,59.72,126.012,52.7c-1.406-1.035-2.866-1.147-4.063.479a4.972,4.972,0,0,0-.551,4.416L131.59,65.1l-2.947,4L119.1,62.076c-1.405-1.035-2.865-1.145-4.063.479a5.033,5.033,0,0,0-.522,4.437l10.163,7.484-2.924,3.971-15.1-11.121,2.924-3.971,1.969,1.45a8.2,8.2,0,0,1,1.293-6.666c1.635-2.22,3.7-2.867,5.836-2.163a7.959,7.959,0,0,1,1.072-7.217c2.049-2.782,4.739-3.357,7.833-1.079L138.5,55.718Z" fill="#00b05a"/>
      </g>
    </g>
    <ellipse cx="98.663" cy="127.375" rx="56.382" ry="10.209" opacity="0.1"/>
    <g>
      <ellipse cx="67.332" cy="94.283" rx="59.045" ry="59.161" opacity="0.2"/>
      <ellipse cx="59.044" cy="90.352" rx="59.045" ry="59.161" fill="#ff3e3e"/>
      <g>
        <path d="M16.224,102.939,21.109,96.8a14.855,14.855,0,0,0,10.946,4.523c4.886,0,7.669-2.788,7.669-6.135,0-3.655-2.722-6.134-7.422-6.134a11.825,11.825,0,0,0-8.658,3.346l-6.122-1.611V67.062H45.847v7.745H26.3v10.1a13.067,13.067,0,0,1,9.091-3.47A12.906,12.906,0,0,1,48.63,94.822c0,8.8-6.556,14.313-16.513,14.313C24.943,109.136,19.749,106.781,16.224,102.939Z" fill="#fff"/>
        <path d="M52.9,87.758c0-10.658,5.257-21.316,17.069-21.316,11.75,0,17.068,10.658,17.068,21.316s-5.318,21.378-17.068,21.378C58.156,109.136,52.9,98.416,52.9,87.758Zm25.171,0c0-7.622-2.227-13.509-8.1-13.509-5.937,0-8.164,5.887-8.164,13.509s2.227,13.57,8.164,13.57C75.844,101.328,78.07,95.38,78.07,87.758Z" fill="#fff"/>
        <path d="M89.914,93.286a5.02,5.02,0,0,1,10.04,0,5.022,5.022,0,0,1-10.04,0Zm7.345,0a2.349,2.349,0,1,0-2.34,2.553A2.347,2.347,0,0,0,97.259,93.286Zm-4.265,15.106L105.61,88.6h2.251l-12.646,19.8Zm7.789-4.541a5.022,5.022,0,1,1,5,4.9A4.765,4.765,0,0,1,100.783,103.852Zm7.375,0a2.371,2.371,0,1,0-4.71,0,2.365,2.365,0,1,0,4.71,0Z" fill="#fff"/>
      </g>
    </g>
    <g>
      <g>
        <path d="M87.4,35.882A19.774,19.774,0,0,1,77.082,46.858,19.761,19.761,0,0,1,87.4,57.832,19.776,19.776,0,0,1,97.715,46.858,19.788,19.788,0,0,1,87.4,35.882Z" fill="#fcd22e"/>
        <path d="M87.4,41.329a9.966,9.966,0,0,1-5.2,5.529,9.912,9.912,0,0,1,5.2,5.527,9.935,9.935,0,0,1,5.2-5.527A9.989,9.989,0,0,1,87.4,41.329Z" fill="#fd7600"/>
      </g>
      <g>
        <path d="M95.6,28.1a9.676,9.676,0,0,1-5.041,5.367A9.656,9.656,0,0,1,95.6,38.828a9.644,9.644,0,0,1,5.041-5.363A9.664,9.664,0,0,1,95.6,28.1Z" fill="#fcd22e"/>
        <path d="M95.6,30.759a4.886,4.886,0,0,1-2.544,2.706,4.846,4.846,0,0,1,2.544,2.7,4.839,4.839,0,0,1,2.538-2.7A4.88,4.88,0,0,1,95.6,30.759Z" fill="#fd7600"/>
      </g>
      <g>
        <path d="M78.07,24.984a13.961,13.961,0,0,1-7.279,7.743A13.953,13.953,0,0,1,78.07,40.47a13.935,13.935,0,0,1,7.278-7.743A13.942,13.942,0,0,1,78.07,24.984Z" fill="#fcd22e"/>
        <path d="M78.07,28.828a7.05,7.05,0,0,1-3.67,3.9,7.012,7.012,0,0,1,3.67,3.9,7.007,7.007,0,0,1,3.664-3.9A7.045,7.045,0,0,1,78.07,28.828Z" fill="#fd7600"/>
      </g>
    </g>
    <g>
      <g>
        <rect x="192.061" y="41.853" width="94.912" height="104.932" fill="#3a383a"/>
        <path d="M189.571,40.159a4.516,4.516,0,0,0,4.516,4.516h92.886V23.447H194.087a4.516,4.516,0,0,0-4.516,4.516Z" fill="#5e5e5e"/>
        <circle cx="260.618" cy="31.385" r="0.981" fill="#fff"/>
        <circle cx="264.185" cy="31.385" r="0.98" fill="#fff"/>
        <circle cx="267.751" cy="31.385" r="0.98" fill="#fff"/>
        <circle cx="271.316" cy="31.385" r="0.98" fill="#fff"/>
        <circle cx="274.883" cy="31.385" r="0.98" fill="#fff"/>
        <circle cx="278.448" cy="31.385" r="0.981" fill="#fff"/>
        <circle cx="282.015" cy="31.385" r="0.981" fill="#fff"/>
        <circle cx="285.581" cy="31.385" r="0.98" fill="#fff"/>
        <circle cx="262.579" cy="34.061" r="0.981" fill="#fff"/>
        <circle cx="266.145" cy="34.061" r="0.981" fill="#fff"/>
        <circle cx="269.711" cy="34.061" r="0.981" fill="#fff"/>
        <circle cx="273.276" cy="34.061" r="0.98" fill="#fff"/>
        <circle cx="276.844" cy="34.061" r="0.981" fill="#fff"/>
        <circle cx="280.411" cy="34.061" r="0.981" fill="#fff"/>
        <circle cx="283.976" cy="34.061" r="0.981" fill="#fff"/>
        <circle cx="262.579" cy="39.41" r="0.981" fill="#fff"/>
        <circle cx="266.145" cy="39.41" r="0.982" fill="#fff"/>
        <circle cx="269.711" cy="39.41" r="0.981" fill="#fff"/>
        <circle cx="273.276" cy="39.41" r="0.98" fill="#fff"/>
        <circle cx="276.844" cy="39.41" r="0.981" fill="#fff"/>
        <circle cx="280.411" cy="39.41" r="0.981" fill="#fff"/>
        <circle cx="283.976" cy="39.41" r="0.981" fill="#fff"/>
        <circle cx="260.618" cy="36.735" r="0.981" fill="#fff"/>
        <circle cx="264.185" cy="36.735" r="0.98" fill="#fff"/>
        <circle cx="267.751" cy="36.735" r="0.98" fill="#fff"/>
        <circle cx="271.316" cy="36.735" r="0.981" fill="#fff"/>
        <circle cx="274.883" cy="36.735" r="0.981" fill="#fff"/>
        <circle cx="278.448" cy="36.735" r="0.982" fill="#fff"/>
        <circle cx="282.015" cy="36.735" r="0.982" fill="#fff"/>
        <circle cx="285.581" cy="36.735" r="0.98" fill="#fff"/>
        <rect x="218.932" y="33.267" width="35.009" height="1.69" fill="#fff"/>
        <rect x="218.932" y="37.198" width="35.009" height="1.692" fill="#fff"/>
        <circle cx="204.139" cy="34.061" r="6.776" fill="#eb6159"/>
        <circle cx="204.139" cy="34.061" r="5.082" fill="#3a383a"/>
        <path d="M189.571,63.266a4.516,4.516,0,0,0,4.516,4.517h92.886V46.553H194.087a4.516,4.516,0,0,0-4.516,4.517Z" fill="#5e5e5e"/>
        <circle cx="262.579" cy="51.818" r="0.981" fill="#fff"/>
        <circle cx="266.145" cy="51.818" r="0.981" fill="#fff"/>
        <circle cx="269.711" cy="51.818" r="0.98" fill="#fff"/>
        <circle cx="273.276" cy="51.818" r="0.98" fill="#fff"/>
        <circle cx="276.844" cy="51.818" r="0.981" fill="#fff"/>
        <circle cx="280.411" cy="51.818" r="0.981" fill="#fff"/>
        <circle cx="283.976" cy="51.818" r="0.98" fill="#fff"/>
        <circle cx="260.618" cy="54.492" r="0.981" fill="#fff"/>
        <circle cx="264.184" cy="54.492" r="0.98" fill="#fff"/>
        <circle cx="267.751" cy="54.492" r="0.98" fill="#fff"/>
        <circle cx="271.316" cy="54.492" r="0.98" fill="#fff"/>
        <circle cx="274.883" cy="54.492" r="0.98" fill="#fff"/>
        <circle cx="278.448" cy="54.492" r="0.981" fill="#fff"/>
        <circle cx="282.015" cy="54.492" r="0.981" fill="#fff"/>
        <circle cx="285.581" cy="54.492" r="0.98" fill="#fff"/>
        <circle cx="262.579" cy="57.169" r="0.98" fill="#fff"/>
        <circle cx="266.144" cy="57.169" r="0.981" fill="#fff"/>
        <circle cx="269.711" cy="57.169" r="0.98" fill="#fff"/>
        <circle cx="273.276" cy="57.169" r="0.98" fill="#fff"/>
        <circle cx="276.844" cy="57.169" r="0.98" fill="#fff"/>
        <circle cx="280.41" cy="57.169" r="0.981" fill="#fff"/>
        <circle cx="283.976" cy="57.169" r="0.98" fill="#fff"/>
        <circle cx="262.579" cy="62.516" r="0.981" fill="#fff"/>
        <circle cx="266.144" cy="62.516" r="0.981" fill="#fff"/>
        <circle cx="269.711" cy="62.516" r="0.98" fill="#fff"/>
        <circle cx="273.276" cy="62.516" r="0.98" fill="#fff"/>
        <circle cx="276.844" cy="62.516" r="0.981" fill="#fff"/>
        <circle cx="280.41" cy="62.516" r="0.981" fill="#fff"/>
        <circle cx="283.976" cy="62.516" r="0.98" fill="#fff"/>
        <circle cx="260.618" cy="59.841" r="0.981" fill="#fff"/>
        <circle cx="264.184" cy="59.841" r="0.981" fill="#fff"/>
        <circle cx="267.751" cy="59.841" r="0.981" fill="#fff"/>
        <circle cx="271.316" cy="59.841" r="0.981" fill="#fff"/>
        <circle cx="274.883" cy="59.841" r="0.981" fill="#fff"/>
        <circle cx="278.448" cy="59.841" r="0.981" fill="#fff"/>
        <circle cx="282.015" cy="59.841" r="0.982" fill="#fff"/>
        <circle cx="285.581" cy="59.841" r="0.981" fill="#fff"/>
        <rect x="218.932" y="52.336" width="35.009" height="1.694" fill="#fff"/>
        <rect x="218.932" y="56.371" width="35.009" height="1.692" fill="#fff"/>
        <rect x="218.932" y="60.306" width="35.009" height="1.692" fill="#fff"/>
        <circle cx="204.139" cy="57.168" r="6.776" fill="#eb6159"/>
        <circle cx="204.139" cy="57.168" r="5.081" fill="#3a383a"/>
        <path d="M189.571,86.342a4.515,4.515,0,0,0,4.516,4.515h92.886V69.628H194.087a4.516,4.516,0,0,0-4.516,4.516Z" fill="#5e5e5e"/>
        <circle cx="262.579" cy="74.893" r="0.981" fill="#fff"/>
        <circle cx="266.144" cy="74.893" r="0.981" fill="#fff"/>
        <circle cx="269.711" cy="74.893" r="0.98" fill="#fff"/>
        <circle cx="273.276" cy="74.893" r="0.98" fill="#fff"/>
        <circle cx="276.843" cy="74.893" r="0.981" fill="#fff"/>
        <circle cx="280.41" cy="74.893" r="0.981" fill="#fff"/>
        <circle cx="283.976" cy="74.893" r="0.98" fill="#fff"/>
        <circle cx="260.618" cy="77.568" r="0.981" fill="#fff"/>
        <circle cx="264.184" cy="77.568" r="0.98" fill="#fff"/>
        <circle cx="267.751" cy="77.568" r="0.98" fill="#fff"/>
        <circle cx="271.316" cy="77.568" r="0.981" fill="#fff"/>
        <circle cx="274.883" cy="77.568" r="0.981" fill="#fff"/>
        <circle cx="278.448" cy="77.568" r="0.982" fill="#fff"/>
        <circle cx="282.015" cy="77.568" r="0.982" fill="#fff"/>
        <circle cx="285.581" cy="77.568" r="0.98" fill="#fff"/>
        <circle cx="262.579" cy="80.242" r="0.98" fill="#fff"/>
        <circle cx="266.144" cy="80.242" r="0.981" fill="#fff"/>
        <circle cx="269.711" cy="80.242" r="0.98" fill="#fff"/>
        <circle cx="273.276" cy="80.242" r="0.98" fill="#fff"/>
        <circle cx="276.843" cy="80.242" r="0.98" fill="#fff"/>
        <circle cx="280.41" cy="80.242" r="0.981" fill="#fff"/>
        <circle cx="283.976" cy="80.242" r="0.98" fill="#fff"/>
        <circle cx="262.579" cy="85.591" r="0.98" fill="#fff"/>
        <circle cx="266.144" cy="85.591" r="0.981" fill="#fff"/>
        <circle cx="269.711" cy="85.591" r="0.98" fill="#fff"/>
        <circle cx="273.276" cy="85.591" r="0.98" fill="#fff"/>
        <circle cx="276.843" cy="85.591" r="0.98" fill="#fff"/>
        <circle cx="280.41" cy="85.591" r="0.981" fill="#fff"/>
        <circle cx="283.976" cy="85.591" r="0.98" fill="#fff"/>
        <circle cx="260.618" cy="82.916" r="0.981" fill="#fff"/>
        <circle cx="264.184" cy="82.916" r="0.98" fill="#fff"/>
        <circle cx="267.751" cy="82.916" r="0.98" fill="#fff"/>
        <circle cx="271.316" cy="82.916" r="0.98" fill="#fff"/>
        <circle cx="274.883" cy="82.916" r="0.98" fill="#fff"/>
        <circle cx="278.448" cy="82.916" r="0.981" fill="#fff"/>
        <circle cx="282.015" cy="82.916" r="0.981" fill="#fff"/>
        <circle cx="285.581" cy="82.916" r="0.98" fill="#fff"/>
        <rect x="218.932" y="75.412" width="35.009" height="1.692" fill="#fff"/>
        <rect x="218.932" y="79.445" width="35.009" height="1.694" fill="#fff"/>
        <rect x="218.932" y="83.378" width="35.009" height="1.693" fill="#fff"/>
        <circle cx="204.138" cy="80.243" r="6.776" fill="#eb6159"/>
        <circle cx="204.139" cy="80.243" r="5.082" fill="#3a383a"/>
        <path d="M189.571,109.379a4.516,4.516,0,0,0,4.516,4.516h92.886V92.665H194.087a4.516,4.516,0,0,0-4.516,4.516Z" fill="#5e5e5e"/>
        <circle cx="262.579" cy="97.931" r="0.98" fill="#fff"/>
        <circle cx="266.144" cy="97.931" r="0.982" fill="#fff"/>
        <circle cx="269.711" cy="97.931" r="0.979" fill="#fff"/>
        <circle cx="273.276" cy="97.931" r="0.979" fill="#fff"/>
        <circle cx="276.843" cy="97.931" r="0.98" fill="#fff"/>
        <circle cx="280.41" cy="97.931" r="0.981" fill="#fff"/>
        <circle cx="283.976" cy="97.931" r="0.979" fill="#fff"/>
        <circle cx="260.618" cy="100.604" r="0.981" fill="#fff"/>
        <circle cx="264.184" cy="100.604" r="0.98" fill="#fff"/>
        <circle cx="267.751" cy="100.604" r="0.98" fill="#fff"/>
        <circle cx="271.316" cy="100.604" r="0.98" fill="#fff"/>
        <circle cx="274.883" cy="100.604" r="0.98" fill="#fff"/>
        <circle cx="278.448" cy="100.604" r="0.981" fill="#fff"/>
        <circle cx="282.015" cy="100.604" r="0.981" fill="#fff"/>
        <circle cx="285.581" cy="100.604" r="0.98" fill="#fff"/>
        <circle cx="262.579" cy="103.279" r="0.981" fill="#fff"/>
        <circle cx="266.144" cy="103.279" r="0.981" fill="#fff"/>
        <circle cx="269.711" cy="103.279" r="0.98" fill="#fff"/>
        <circle cx="273.276" cy="103.279" r="0.98" fill="#fff"/>
        <circle cx="276.843" cy="103.279" r="0.981" fill="#fff"/>
        <circle cx="280.41" cy="103.279" r="0.981" fill="#fff"/>
        <circle cx="283.976" cy="103.279" r="0.98" fill="#fff"/>
        <circle cx="262.579" cy="108.628" r="0.981" fill="#fff"/>
        <circle cx="266.144" cy="108.628" r="0.981" fill="#fff"/>
        <circle cx="269.711" cy="108.628" r="0.981" fill="#fff"/>
        <circle cx="273.276" cy="108.628" r="0.98" fill="#fff"/>
        <circle cx="276.843" cy="108.628" r="0.981" fill="#fff"/>
        <circle cx="280.41" cy="108.628" r="0.981" fill="#fff"/>
        <circle cx="283.976" cy="108.628" r="0.981" fill="#fff"/>
        <circle cx="260.618" cy="105.954" r="0.981" fill="#fff"/>
        <circle cx="264.184" cy="105.954" r="0.981" fill="#fff"/>
        <circle cx="267.751" cy="105.954" r="0.981" fill="#fff"/>
        <circle cx="271.316" cy="105.954" r="0.981" fill="#fff"/>
        <circle cx="274.883" cy="105.954" r="0.981" fill="#fff"/>
        <circle cx="278.448" cy="105.954" r="0.981" fill="#fff"/>
        <circle cx="282.015" cy="105.954" r="0.982" fill="#fff"/>
        <circle cx="285.581" cy="105.954" r="0.981" fill="#fff"/>
        <rect x="218.932" y="98.449" width="35.009" height="1.693" fill="#fff"/>
        <rect x="218.932" y="102.484" width="35.009" height="1.694" fill="#fff"/>
        <rect x="218.932" y="106.418" width="35.009" height="1.691" fill="#fff"/>
        <circle cx="204.138" cy="103.28" r="6.775" fill="#eb6159"/>
        <circle cx="204.139" cy="103.28" r="5.082" fill="#3a383a"/>
        <path d="M189.571,132.484A4.517,4.517,0,0,0,194.087,137h92.886V115.77H194.087a4.518,4.518,0,0,0-4.516,4.519Z" fill="#5e5e5e"/>
        <circle cx="204.138" cy="126.386" r="6.776" fill="#eb6159"/>
        <circle cx="204.14" cy="34.061" r="2.359" fill="#14caf4"/>
        <circle cx="204.14" cy="57.131" r="2.359" fill="#14caf4"/>
        <circle cx="204.14" cy="80.226" r="2.359" fill="#14caf4"/>
        <circle cx="204.14" cy="103.296" r="2.358" fill="#14caf4"/>
      </g>
      <polygon points="239.035 166.88 230.731 166.88 283.264 18.45 286.973 18.45 286.973 31.525 239.035 166.88" fill="#fff" opacity="0.2"/>
      <rect x="192.083" y="20.45" width="94.89" height="143.819" fill="#fff" opacity="0.1"/>
      <polygon points="201.762 16.27 201.762 21.584 186.343 21.584 186.343 165.56 201.762 165.56 201.762 29.495 288.62 29.495 288.62 16.27 201.762 16.27" opacity="0.3"/>
      <polygon points="223.456 166.88 186.595 166.88 239.337 18.45 276.197 18.45 223.456 166.88" fill="#fff" opacity="0.2"/>
      <polygon points="286.972 159.431 195.985 159.431 195.985 24.754 286.973 24.754 286.973 15.526 185.38 15.526 185.38 168.656 286.972 168.656 286.972 159.431" fill="#d8d8d8"/>
      <polygon points="286.361 24.754 286.361 159.431 195.373 159.431 186.149 168.656 296.965 168.656 296.965 15.526 195.373 15.526 286.361 24.754" fill="#d8d8d8"/>
      <polygon points="286.361 24.754 286.361 159.431 195.373 159.431 186.149 168.656 296.965 168.656 296.965 15.526 286.361 24.754" opacity="0.1"/>
    </g>
    <polygon points="192 93 172 93 172 73 164 73 164 93 143 93 143 102 164 102 164 119 172 119 172 102 192 102 192 93" opacity="0.2"/>
    <polygon points="187 86 167 86 167 66 159 66 159 86 138 86 138 95 159 95 159 112 167 112 167 95 187 95 187 86" fill="#ff3e3e"/>
  </g>
</svg>
