<?xml version="1.0" encoding="utf-8"?>
<!-- Generator: Adobe Illustrator 21.1.0, SVG Export Plug-In . SVG Version: 6.00 Build 0)  -->
<svg version="1.1" baseProfile="basic" id="Слой_1"
	 xmlns="http://www.w3.org/2000/svg" xmlns:xlink="http://www.w3.org/1999/xlink" x="0px" y="0px" width="152px" height="96px"
	 viewBox="0 0 152 96" xml:space="preserve">
<g>
	<g>
		<g>
			<g>
				<g>
					<path fill="#C6C5C5" d="M41.8,71.1L5.4,73.9L0,19l2.9-0.2c1.6-0.1,2.8-1.6,2.6-3.3l-0.3-2.8C5,11,6.3,9.5,8,9.4L28,7.8
						c1.7-0.1,3.2,1.1,3.4,2.8l0.3,2.8l0.3,3l10.3-0.8l38,0.6l3.8,46l-6.9,6.1L41.8,71.1z"/>
				</g>
			</g>
		</g>
		<g>
			<g>
				<g>
					<polygon fill="#066BC6" points="55.9,0 10.5,23.6 5.6,73.9 50.8,70.4 76.2,68.4 92.5,67.1 97.3,16.8 					"/>
				</g>
			</g>
		</g>
	</g>
	<g>
		<g>
			<path fill="#FFFFFF" d="M34.7,53.5l-5.2-8.4h-4.2v8.4h-5.1V29.8h11.1c4.9,0,8,3.2,8,7.6c0,4.2-2.1,6.4-4.7,7l5.8,9H34.7z
				 M34.1,37.4c0-2-1.5-3.2-3.6-3.2h-5.3v6.4h5.3C32.6,40.6,34.1,39.4,34.1,37.4z"/>
		</g>
		<g>
			<path fill="#FFFFFF" d="M43.6,53.5V29.8h16.8v4.4H48.7v5h10.5v4.4H48.7V49h11.7v4.4H43.6z"/>
		</g>
		<g>
			<path fill="#FFFFFF" d="M63.2,41.6c0-7.5,5.7-12.3,12.6-12.3c4.9,0,8,2.5,9.8,5.3l-4.2,2.3c-1.1-1.7-3.1-3.1-5.6-3.1
				c-4.3,0-7.4,3.3-7.4,7.8c0,4.5,3.1,7.8,7.4,7.8c2.1,0,4.1-0.9,5.1-1.8v-2.5h-6.3v-4.5h11.3v8.9c-2.4,2.7-5.8,4.5-10.1,4.5
				C68.9,54,63.2,49.1,63.2,41.6z"/>
		</g>
	</g>
	<g>
		<g>
			<path d="M98.3,51c0-1.6,1.3-2.9,2.9-2.9c1.6,0,2.9,1.3,2.9,2.9c0,1.6-1.3,2.9-2.9,2.9C99.6,53.9,98.3,52.6,98.3,51z"/>
		</g>
		<g>
			<path d="M122.5,53.5l-5.7-8.4h-3.7v8.4H108V29.8h11.1c4.9,0,8,3.2,8,7.6c0,4.2-2.6,6.4-5.2,7l6.4,9H122.5z M121.9,37.4
				c0-2-1.5-3.2-3.6-3.2h-5.3v6.4h5.3C120.4,40.6,121.9,39.4,121.9,37.4z"/>
		</g>
		<g>
			<path d="M130.9,44V29.8h5.1v14.1c0,3.3,1.4,5.6,5.1,5.6c3.7,0,5-2.3,5-5.6V29.8h5.2V44c0,5.9-3,9.9-10.2,9.9
				C133.9,53.9,130.9,49.9,130.9,44z"/>
		</g>
	</g>
</g>
<g>
	<path d="M19.5,90.7c0,0,0,0,1.6,0c1.5,0,2.4-0.8,2.4-2c0-1.1-0.9-2-2-2h-3.8L17,84.9h4.7c2.2,0,3.8,1.6,3.8,3.8
		c0,1.6-1,2.9-2.5,3.5l2.9,3.7h-2.3L19.5,90.7z"/>
	<path d="M27.6,84.9c0.3,0.5,0.6,1.1,0.8,1.8h2.8v9.2h1.9v-9.2h3.6v-1.8H27.6z"/>
	<path d="M11.9,89.2l3,6.7H17l-4.9-11c0,0-1.3,2.8-1.5,3.4C11.1,88,11.5,88.2,11.9,89.2z"/>
	<circle fill="#CC00CC" cx="8.8" cy="94.6" r="1.4"/>
</g>
<g>
	<path d="M48.8,93.4h-5l-1,2.4h-1.3L46.2,85h0.2l4.7,10.8h-1.3L48.8,93.4z M44.2,92.4h4.2l-2.1-4.9h-0.1L44.2,92.4z"/>
	<path d="M57.6,93.5l-3.9-5.2c0,0,0,0,0,0v7.4h-1.2V85h0.3c1.6,2.3,3.4,4.5,5,6.8c1.6-2.3,3.3-4.5,5-6.8H63v10.8h-1.2
		c0-2.6,0-5,0-7.6l0,0l-3.9,5.3H57.6z"/>
	<path d="M71.4,90c1.5,0.4,2,1.6,2,2.7c0,1.8-1.4,3.1-3.3,3.1h-4.4V85.1h4c1.8,0,3.1,0.9,3.1,2.6C72.8,88.5,72.3,89.5,71.4,90
		L71.4,90z M66.9,89.6h2.6c0.7,0,2-0.3,2-1.7c0-1-0.7-1.7-1.9-1.7h-2.7V89.6z M69.6,90.6h-2.7v4.1h2.9c1.9,0,2.3-1.2,2.3-2.1
		C72.1,91.4,71.1,90.6,69.6,90.6z"/>
	<path d="M81.7,93.4h-5l-1,2.4h-1.3L79.2,85h0.2l4.7,10.8h-1.3L81.7,93.4z M77.1,92.4h4.2l-2.1-4.9h-0.1L77.1,92.4z"/>
	<path d="M84.8,93.8c1.2,0.8,2.3,1,3.1,1c1.4,0,2.5-0.5,2.5-1.8c0-2.9-5.4-2.3-5.4-5.4c0-1.9,1.6-2.7,3.2-2.7c0.9,0,1.9,0.1,2.8,0.7
		v1.2c-0.9-0.6-1.9-0.8-2.6-0.8c-1.1,0-2.1,0.4-2.1,1.6c0,2.1,5.4,1.7,5.4,5.3c0,2-1.5,3-3.6,3c-1,0-2.2-0.2-3.3-0.9V93.8z"/>
	<path d="M92.9,93.8c1.2,0.8,2.3,1,3.1,1c1.4,0,2.5-0.5,2.5-1.8c0-2.9-5.4-2.3-5.4-5.4c0-1.9,1.6-2.7,3.2-2.7c0.9,0,1.9,0.1,2.8,0.7
		v1.2c-0.9-0.6-1.9-0.8-2.6-0.8c-1.1,0-2.1,0.4-2.1,1.6c0,2.1,5.4,1.7,5.4,5.3c0,2-1.5,3-3.6,3c-1,0-2.2-0.2-3.3-0.9V93.8z"/>
	<path d="M107.9,93.4h-5l-1,2.4h-1.3l4.7-10.8h0.2l4.7,10.8h-1.3L107.9,93.4z M103.3,92.4h4.2l-2.1-4.9h-0.1L103.3,92.4z"/>
	<path d="M111.7,95.8V85.1h3.6c3.3,0,5.2,2.1,5.2,5.3c0,3.1-1.9,5.4-5.1,5.4H111.7z M115.4,86.2H113v8.5h2.5c2.6,0,3.8-1.8,3.8-4.3
		C119.4,88.1,118.1,86.2,115.4,86.2z"/>
	<path d="M122.3,90.5c0-3.1,2.5-5.5,5.6-5.5c3.2,0,5.5,2.4,5.5,5.5c0,3.1-2.3,5.5-5.5,5.5C124.4,95.9,122.3,93.6,122.3,90.5z
		 M123.7,90.5c0,2.5,1.6,4.4,4.2,4.4c2.6,0,4.2-2,4.2-4.4c0-2.4-1.7-4.4-4.2-4.4C125.4,86.1,123.7,88,123.7,90.5z"/>
	<path d="M143,88.4c0,1.5-1,2.9-2.9,3.4l3.5,4H142c-1.3-1.5-2.5-3-3.8-4.5v-0.2c2.4-0.1,3.5-1.3,3.5-2.6c0-1.5-1.1-2.4-2.6-2.4h-2.3
		v9.6h-1.3V85.1h3.8C141.1,85.1,143,86.2,143,88.4z"/>
</g>
<g>
</g>
<g>
</g>
<g>
</g>
<g>
</g>
<g>
</g>
<g>
</g>
<g>
</g>
<g>
</g>
<g>
</g>
<g>
</g>
<g>
</g>
<g>
</g>
<g>
</g>
<g>
</g>
<g>
</g>
</svg>
