<svg xmlns="http://www.w3.org/2000/svg" width="99.415" height="77.84" viewBox="0 0 99.415 77.84"><path fill="#76D9FC" d="M21.48 77.84a11.768 11.768 0 0 0 2.16-6.805c0-6.528-5.293-11.82-11.82-11.82S0 64.507 0 71.035c0 2.534.8 4.88 2.158 6.805H21.48z"/><path fill-rule="evenodd" clip-rule="evenodd" fill="#00A936" d="M4.19 73.345a.884.884 0 0 0-.216-.053.528.528 0 0 0-.19 0c-.162.047-.173.215.264.48.117.154.328.296.53.218.116-.33-.125-.532-.388-.623 0-.022.003-.015 0-.022zM6.02 69.996c.018.02.03.046.048.048h.024c.117.034.23-.085.143-.093a.495.495 0 0 0-.216.046zM8.756 68.965c-.187.03-.232.156.17.434.05-.015.397-.092.192.116.625-.372-.043-.607-.362-.55zM8.756 66.295c.673-.273.827-2.044.026-1.994-.052 0-.104.028-.17.053.336.618-.438 1.405.144 1.942zM16.48 67.763c.053-.37-.536-.642-.8-.627-.155.012-.184.122.1.388-.266.628.443.663.7.24zM10.465 63.15c.193-.09.285-.412 0-.412-.053-.015-.092-.027-.144-.026-.052.003-.103.02-.14.026-.568.113-.396 1.054.285.41z"/><path fill-rule="evenodd" clip-rule="evenodd" fill="#00A936" d="M11.26 62.93c-.82.105-1.65.897-.887 1.683.546.682-.79 2.076.48 2.434.502-1.127 1.878-2.02 1.538-3.392-.14-.587-.636-.787-1.13-.724z"/><path fill="#00A936" d="M3.018 75.478c.504.63.26 1.355.223 2.046-.013.006.007.02.007.025a2.354 2.354 0 0 0 0 .29H8.23c-.563-.505-1.142-.988-1.852-1.3-1.114-1.083-3.626-.41-3.58-2.457.115-.97-.665-1.44-1.25-1.895-.45-1.504 2.292-2.057 2.332-.41.902-.048 1.22-1.622 2.262-1.85.536-.466 1.988.035 1.463-.916.52-.495 2.042-.478 1.298-1.632-.25-1.126-1.633-1.67-2.088-.388-1.254.335-.747-2.38.526-2.02.925.054.8-.75.24-1.008 0-.04-.013-.062-.05-.025a.817.817 0 0 0-.334-.073c-1.25-.69 1.25-2.45-.406-3.008-1.817 1.552-4.587 3.993-5.698 6.274-.5 1.433-.416 2.872-.358 4.376.508 1.46 1.496 2.66 2.284 3.968zM12.918 60.48c.387 1.244 2.707.023 2.596 1.416.018.02.053.05.072.074-.036.028.028.28.074.07.4.453 1.244 1.394.358 1.276-1.173-.162-.87 2.15-.02 2.57.803.434 1.257-.437.428-.863-.11-1.084 1.81.666.96 1.246-.032.023-.06.05-.092.073.037-.154-.057-.008-.053.026-.963.697-.414 2.34-.788 3.436-.667 1.48 1.668.828 1.32-.337-.43-1.073 1.775-.585 1.3-1.347 1.334.71 1.21-1.194.65-1.83.262-1.017.946.12.622.674.053.524.504.645.867.794.018.013.036.016.073.024.316.15.506.345.164.94-.392 1.323-1.723 1.396-2.81 1.15-1.1.457-1.305 1.793-1.926 2.692-.614 1.124-1.126 2.78-.02 3.773 1.057 1.016 2.27.133 3.15-.554 1.333-.173 1.703 1.038 1.386 2.05h.248a11.748 11.748 0 0 0 2.163-6.805c0-.325-.023-.645-.05-.965l-.022-.24c-.677.37-1.878-1.663-.65-.696.242-.017.395-.087.507-.19a11.953 11.953 0 0 0-.604-2.143 2.867 2.867 0 0 0-.337-.358c.01-.148-.005-.29-.023-.433-.006-.01.008-.02 0-.027-1.927-3.965-5.993-6.702-10.695-6.702-.32 0-.646.02-.963.045a4.492 4.492 0 0 1-.533.073 3.018 3.018 0 0 0-.188.024c-.665.093-1.3.21-1.922.407 1.626-.115 3.295-.074 4.76.653z"/><g opacity=".2" fill="#010000"><path d="M.574 67.393l-.007.02c.11-.005.207-.013.207-.02h-.2z"/><path d="M1.803 71.19c.014 1.32.21 2.59.556 3.773-1.394-.198-1.576-.38-1.596-.406.002.003.01.018.01.038H.548c.035.106.072.214.11.32.162.093.416.173.78.25.287.062.633.12 1.04.176.288.892.67 1.727 1.122 2.5h.403a12.465 12.465 0 0 1-1.14-2.45c.303.037.63.07.987.102a64.72 64.72 0 0 0 3.544.218c.124.75.283 1.46.47 2.13h.367c-.186-.665-.35-1.37-.476-2.115a117.7 117.7 0 0 0 3.853.065v2.05h.354v-2.05c1.34 0 2.64-.025 3.856-.066-.128.744-.29 1.45-.48 2.116h.37a20.85 20.85 0 0 0 .47-2.13c1.29-.052 2.475-.124 3.498-.218.373-.033.72-.07 1.035-.106-.298.877-.687 1.7-1.145 2.454h.41c.452-.774.832-1.613 1.12-2.504.385-.055.717-.11.99-.17.51-.11.807-.223.937-.368.023-.068.047-.133.068-.202h-.34c0-.02.007-.035.01-.038-.02.026-.198.202-1.548.4.347-1.184.54-2.45.555-3.77h1.8v-.357H21.77a13.947 13.947 0 0 0-.577-3.8c1.363.195 1.543.375 1.562.4a.062.062 0 0 1-.01-.038h.322c-.025-.077-.053-.154-.08-.23-.142-.13-.43-.238-.906-.34-.277-.06-.614-.118-1.007-.17a12.393 12.393 0 0 0-1.942-3.69c.828.214 1.49.462 1.945.723a13.078 13.078 0 0 0-.565-.662 11.858 11.858 0 0 0-1.48-.456l-.27-.064c-1.26-1.47-2.843-2.545-4.607-3.057a11.866 11.866 0 0 0-4.912.056c-1.69.53-3.208 1.58-4.424 2.998l-.282.066c-.447.108-.92.244-1.357.41-.192.205-.375.417-.552.634.45-.235 1.065-.458 1.82-.652A12.5 12.5 0 0 0 2.5 66.646c-.416.054-.772.113-1.064.176-.34.074-.586.148-.748.235a5.13 5.13 0 0 0-.095.28c.334-.08.925-.192 1.788-.314a13.97 13.97 0 0 0-.58 3.81H.008c-.003.065-.007.133-.007.202 0 .05.004.102.004.154h1.8zm19.03 3.82c-.397.05-.872.1-1.445.15-.937.078-2.003.142-3.15.188.198-1.31.306-2.716.314-4.16h4.864a13.565 13.565 0 0 1-.584 3.82zm.582-4.18h-4.863a28.72 28.72 0 0 0-.33-4.19c1.153.046 2.222.11 3.158.19.565.048 1.036.1 1.427.148.376 1.204.59 2.5.608 3.853zm-2.846-8.004a11.994 11.994 0 0 1 2.112 3.776c-.31-.04-.647-.072-1.017-.107a71.324 71.324 0 0 0-3.502-.216c-.23-1.332-.556-2.56-.97-3.62-.045-.116-.09-.23-.138-.34 1.29.108 2.483.278 3.514.506zm-.398-.447a28.624 28.624 0 0 0-3.282-.433c-.513-1.104-1.11-1.906-1.755-2.37 1.916.324 3.654 1.328 5.037 2.802zm-6.21-2.907c.92.096 1.795.95 2.522 2.444a41.844 41.844 0 0 0-2.522-.087v-2.357zm0 2.716c.926.002 1.83.036 2.696.1.07.16.14.327.208.502.398 1.017.714 2.195.938 3.474a114.11 114.11 0 0 0-3.843-.068v-4.01zm0 4.367c1.353.003 2.672.027 3.902.07.21 1.32.323 2.74.333 4.204h-4.235v-4.273zm0 4.632h4.235a28.2 28.2 0 0 1-.32 4.17c-1.235.046-2.56.07-3.915.07v-4.24zm-.354 4.242c-1.355 0-2.68-.025-3.912-.07a28.045 28.045 0 0 1-.32-4.172h4.232v4.242zm0-4.6H7.375c.01-1.466.123-2.89.334-4.207 1.23-.043 2.55-.067 3.898-.068v4.274zm0-4.635c-1.33 0-2.628.024-3.84.067.224-1.28.538-2.456.938-3.473a9.57 9.57 0 0 1 .21-.503c.863-.062 1.77-.096 2.692-.1v4.01zm0-4.367c-.86.004-1.707.033-2.522.087.73-1.494 1.606-2.35 2.522-2.444v2.357zm-1.17-2.252c-.646.463-1.242 1.266-1.756 2.37a27.81 27.81 0 0 0-3.28.43c1.384-1.474 3.12-2.478 5.036-2.8zm-5.434 3.246c1.03-.228 2.225-.398 3.514-.505-.05.11-.096.222-.142.34-.41 1.06-.74 2.284-.968 3.618a69.68 69.68 0 0 0-3.558.217c-.345.033-.664.065-.96.1a12.05 12.05 0 0 1 2.114-3.77zM2.768 66.97c.38-.046.832-.093 1.37-.14a70.11 70.11 0 0 1 3.213-.19 28.45 28.45 0 0 0-.327 4.19H2.155a13.61 13.61 0 0 1 .613-3.86zm4.254 4.22c.007 1.445.115 2.85.314 4.16a72.815 72.815 0 0 1-3.198-.19c-.55-.05-1.01-.098-1.396-.145a13.644 13.644 0 0 1-.587-3.826h4.867z"/></g><g><path fill="#2579F2" d="M19.043 65.44H4.528c-.79 0-1.43.64-1.43 1.43v8.14c0 .79.64 1.43 1.43 1.43h14.515c.79 0 1.43-.64 1.43-1.43v-8.14c0-.79-.64-1.43-1.43-1.43zm-5.27 2.337H9.797a.61.61 0 0 1 0-1.217h3.98a.608.608 0 1 1-.002 1.217z"/><path fill="#EFEFEF" d="M19.393 74.02c0 .792-.64 1.43-1.43 1.43H5.607c-.79 0-1.43-.638-1.43-1.43v-3.647c0-.79.64-1.43 1.43-1.43h12.354c.79 0 1.43.64 1.43 1.43v3.648z"/><path fill="#29353F" d="M8.797 70.556a.328.328 0 0 0-.395.222l-.503 1.75-.502-1.75a.326.326 0 0 0-.323-.228.32.32 0 0 0-.32.228l-.506 1.75-.5-1.75a.327.327 0 0 0-.397-.222.306.306 0 0 0-.22.382l.795 2.77c.038.145.177.23.32.227a.323.323 0 0 0 .325-.226l.5-1.75.504 1.75a.32.32 0 0 0 .32.225.317.317 0 0 0 .323-.226l.795-2.772a.303.303 0 0 0-.218-.382zM13.57 70.556a.33.33 0 0 0-.396.222l-.5 1.75-.502-1.75a.326.326 0 0 0-.323-.228.326.326 0 0 0-.325.228l-.5 1.75-.502-1.75c-.05-.166-.225-.266-.395-.222s-.27.216-.223.382l.797 2.77c.04.145.176.23.32.227a.317.317 0 0 0 .323-.226l.503-1.75.502 1.75c.04.143.178.228.324.225a.32.32 0 0 0 .322-.226l.794-2.772a.303.303 0 0 0-.22-.382zM18.217 70.556a.327.327 0 0 0-.395.222l-.504 1.75-.5-1.75a.33.33 0 0 0-.325-.228.324.324 0 0 0-.322.228l-.5 1.75-.502-1.75a.327.327 0 0 0-.395-.222.308.308 0 0 0-.222.382l.796 2.77c.042.145.178.23.323.227a.32.32 0 0 0 .322-.226l.5-1.75.504 1.75a.32.32 0 0 0 .32.225.32.32 0 0 0 .325-.226l.797-2.772a.304.304 0 0 0-.22-.382z"/><path opacity=".4" d="M13.205 66.57l.482-.01.266-1.12-.932.002z"/><path fill="#29353F" d="M13.44 67.777v-4.215a.26.26 0 0 0-.257-.26h-2.668a.26.26 0 0 0-.258.26v4.215h3.184z"/><path opacity=".1" fill="#FFF" d="M13.277 63.623a.13.13 0 0 1-.132.13h-2.6a.132.132 0 0 1-.133-.13c0-.074.06-.135.133-.135h2.6c.073 0 .132.06.132.135z"/><path opacity=".1" d="M19.043 65.44l-14.515 11h14.515c.79 0 1.43-.64 1.43-1.432V66.87c0-.79-.64-1.43-1.43-1.43z"/></g><path opacity=".3" d="M4.22 72.254a16.335 16.335 0 0 0 2.434 4.703v.002c.06.076.12.148.18.227.072.092.143.186.216.277.104.128.21.252.318.376h14.11c.104-.15.21-.3.308-.455.002 0 .002-.002.002-.002.51-.802.93-1.667 1.235-2.583 0-.002.002-.002.002-.002.023-.068.047-.133.068-.202.03-.104.06-.212.092-.317.013-.047.025-.094.04-.14l.09-.35.045-.204a8.37 8.37 0 0 0 .065-.315c.017-.083.03-.168.045-.253.017-.094.033-.188.046-.285.015-.1.026-.198.038-.298l.03-.256c.012-.12.02-.238.026-.36l.014-.207a11.788 11.788 0 0 0-.56-4.218h.003c-.025-.076-.053-.153-.08-.228v-.002c-.44-1.272-1.092-2.444-1.914-3.478h.002l-.022-.025a5.932 5.932 0 0 0-.228-.276l-.093-.107-.21-.24-.013-.013h-.002a11.797 11.797 0 0 0-6.356-3.577h-.008c-.185-.038-.368-.07-.555-.1a3.803 3.803 0 0 0-.184-.02c-.13-.02-.262-.038-.396-.05-.103-.012-.21-.018-.314-.024-.09-.007-.183-.017-.276-.02a11.864 11.864 0 0 0-1.245.003c-.034 0-.066.005-.1.007-.186.012-.37.026-.555.047l-.052.007c-.202.023-.4.05-.6.083 0 0 0 .002-.003.002a11.763 11.763 0 0 0-5.587 2.562c-.023.067-.05.134-.07.2v.005a16.388 16.388 0 0 0-.037 9.97l.048.134z"/><g><path fill="#76D9FC" d="M32.964 77.84a16.29 16.29 0 0 0 3.95-10.654c0-9.036-7.324-16.362-16.36-16.362-9.035 0-16.362 7.326-16.362 16.362 0 4.07 1.49 7.792 3.95 10.654h24.822z"/><path fill-rule="evenodd" clip-rule="evenodd" fill="#00A936" d="M9.99 70.384a1.242 1.242 0 0 0-.296-.074.76.76 0 0 0-.266 0c-.223.065-.237.3.367.663.16.213.454.41.733.304.16-.46-.175-.738-.538-.863 0-.03.005-.02 0-.03zM12.522 65.75c.026.022.044.06.066.065h.034c.163.045.322-.118.2-.13-.05-.007-.144.005-.3.064zM16.312 64.32c-.26.043-.322.218.234.602.07-.02.548-.128.267.16.867-.514-.06-.84-.5-.762zM16.312 60.625c.93-.38 1.146-2.83.036-2.76-.07 0-.144.037-.234.07.464.856-.606 1.947.198 2.69zM27.002 62.656c.075-.512-.74-.888-1.106-.866-.214.014-.255.167.14.535-.37.87.613.918.966.33zM18.678 56.27c.268-.123.396-.568 0-.568-.073-.02-.127-.038-.2-.035-.07.004-.144.028-.194.035-.786.155-.548 1.457.394.57z"/><path fill-rule="evenodd" clip-rule="evenodd" fill="#00A936" d="M19.777 55.967c-1.137.144-2.283 1.24-1.227 2.33.756.942-1.093 2.87.663 3.366.696-1.56 2.603-2.794 2.13-4.693-.195-.81-.88-1.09-1.566-1.003z"/><path fill="#00A936" d="M8.368 73.335c.696.873.36 1.88.308 2.833-.018.007.01.028.01.034-.037.578.054 1.13.544 1.63a.035.035 0 0 1 .007.008h7.742c-1.287-1.06-2.393-2.347-3.96-3.036-1.54-1.495-5.02-.566-4.956-3.398.16-1.344-.92-1.992-1.73-2.625-.622-2.08 3.173-2.844 3.23-.566 1.25-.064 1.688-2.244 3.13-2.56.742-.645 2.752.05 2.024-1.27.72-.682 2.828-.66 1.797-2.257-.346-1.56-2.26-2.31-2.89-.536-1.736.465-1.036-3.295.728-2.795 1.277.073 1.104-1.04.33-1.395 0-.055-.02-.086-.065-.036-.143-.054-.292-.11-.467-.1-1.728-.955 1.732-3.393-.56-4.163-2.516 2.15-6.35 5.528-7.887 8.69-.693 1.978-.577 3.974-.497 6.057.704 2.016 2.073 3.68 3.162 5.488zM33.02 77.767a16.284 16.284 0 0 0 3.895-10.58c0-.452-.03-.896-.066-1.34-.013-.11-.022-.22-.034-.328-.935.51-2.6-2.305-.897-.967.33-.023.54-.118.7-.264a16.66 16.66 0 0 0-.838-2.966c-.167-.198-.327-.384-.465-.496.01-.204-.01-.4-.034-.6-.007-.01.01-.023 0-.035-2.667-5.488-8.296-9.28-14.805-9.28-.446 0-.896.03-1.335.064a6.627 6.627 0 0 1-.734.102c-.088.007-.176.02-.264.032-.918.13-1.796.29-2.658.563 2.25-.165 4.56-.105 6.588.9.536 1.723 3.747.033 3.592 1.96.025.027.074.07.102.104-.05.037.037.39.1.094.557.63 1.725 1.93.5 1.77-1.626-.224-1.204 2.977-.034 3.56 1.117.6 1.743-.606.598-1.198-.155-1.5 2.502.923 1.33 1.726-.047.033-.086.07-.13.104.053-.216-.078-.012-.073.036-1.333.967-.57 3.24-1.092 4.757-.92 2.048 2.31 1.144 1.827-.47-.59-1.483 2.46-.807 1.8-1.86 1.85.98 1.675-1.654.9-2.533.36-1.408 1.312.164.862.933.072.726.697.892 1.2 1.1.024.017.05.018.1.03.437.21.7.48.228 1.303-.545 1.83-2.385 1.933-3.89 1.594-1.524.63-1.806 2.48-2.665 3.726-.852 1.558-1.56 3.848-.03 5.225 1.464 1.405 3.147.186 4.36-.766 2.326-.3 2.54 2.438 1.395 3.832-.015.06-.026.11-.034.163z"/><g opacity=".2" fill="#010000"><path d="M4.986 62.143c-.003.013-.007.02-.01.03.152-.006.286-.018.286-.03h-.276zM34.37 75.938h-.015c0 .013-.005.026-.006.04l.02-.04z"/><path d="M6.688 67.398c.02 1.83.29 3.586.77 5.228-1.93-.275-2.182-.528-2.207-.562a.104.104 0 0 1 .014.052H4.95c.047.147.098.296.15.442.225.128.577.24 1.083.348.396.085.874.166 1.436.242a17.392 17.392 0 0 0 2.34 4.692h.606a16.795 16.795 0 0 1-2.41-4.626c.418.052.875.098 1.366.142a95.43 95.43 0 0 0 4.906.304 27.66 27.66 0 0 0 1.02 4.18h.52a26.805 26.805 0 0 1-1.042-4.16c1.683.057 3.483.09 5.335.09v4.07h.49v-4.07c1.853-.002 3.652-.033 5.336-.094a26.846 26.846 0 0 1-1.04 4.165h.516a27.33 27.33 0 0 0 1.02-4.184c1.788-.07 3.426-.17 4.845-.3a62.24 62.24 0 0 0 1.433-.146 16.756 16.756 0 0 1-2.415 4.63h.607a17.56 17.56 0 0 0 2.345-4.7c.53-.074.99-.153 1.37-.233.705-.15 1.114-.31 1.296-.51.03-.095.062-.185.095-.28h-.47c0-.027.008-.05.013-.052-.025.034-.27.28-2.142.552.48-1.637.748-3.392.768-5.217h2.492v-.494h-2.492a19.243 19.243 0 0 0-.8-5.263c1.888.273 2.137.52 2.163.555-.006-.005-.016-.024-.016-.054h.445c-.035-.105-.072-.21-.11-.318-.196-.18-.597-.33-1.254-.47-.386-.082-.853-.163-1.396-.235-.63-1.9-1.547-3.63-2.69-5.107 1.147.295 2.062.64 2.693 1-.252-.31-.51-.618-.782-.915a16.105 16.105 0 0 0-2.05-.632l-.372-.09c-1.744-2.033-3.937-3.52-6.38-4.23-1.04-.21-2.12-.32-3.227-.32-1.225 0-2.42.14-3.57.396-2.34.737-4.44 2.19-6.122 4.15l-.392.094c-.618.15-1.272.338-1.88.568-.264.28-.518.575-.763.877.624-.325 1.476-.634 2.52-.903a17.26 17.26 0 0 0-2.69 5.104c-.576.077-1.068.16-1.47.245-.474.103-.813.206-1.038.326a5.72 5.72 0 0 0-.132.39c.462-.11 1.28-.27 2.477-.438a19.2 19.2 0 0 0-.802 5.273H4.2c-.003.093-.01.186-.01.28 0 .073.006.142.007.214h2.49zm26.34 5.288c-.548.07-1.205.14-2 .21-1.295.107-2.772.197-4.362.262a40.13 40.13 0 0 0 .437-5.76h6.735a18.86 18.86 0 0 1-.81 5.288zm.808-5.782h-6.733a39.905 39.905 0 0 0-.454-5.802c1.595.062 3.072.15 4.368.263a51.98 51.98 0 0 1 1.975.204 18.76 18.76 0 0 1 .843 5.334zm-3.94-11.08c1.244 1.48 2.243 3.255 2.928 5.226-.43-.053-.9-.1-1.41-.148-1.415-.126-3.06-.228-4.847-.3-.316-1.843-.768-3.542-1.342-5.01a17.676 17.676 0 0 0-.19-.47c1.78.15 3.433.385 4.86.7zm-.55-.62a39.96 39.96 0 0 0-4.54-.6c-.712-1.525-1.537-2.636-2.43-3.278 2.65.45 5.056 1.838 6.97 3.877zM20.75 51.18c1.27.135 2.484 1.316 3.493 3.387a56.258 56.258 0 0 0-3.493-.12V51.18zm0 3.762c1.282.004 2.533.05 3.73.137.1.223.196.454.292.694.55 1.41.986 3.04 1.296 4.81-1.677-.06-3.47-.09-5.318-.095V54.94zm0 6.043c1.873.005 3.698.04 5.402.1a39.04 39.04 0 0 1 .46 5.82H20.75v-5.92zm0 6.413h5.863a38.97 38.97 0 0 1-.444 5.776c-1.71.062-3.54.097-5.42.097V67.4zm-.488 5.873c-1.878 0-3.708-.033-5.417-.094a38.977 38.977 0 0 1-.444-5.778h5.862v5.873zm0-6.366H14.4c.014-2.027.172-3.996.464-5.823 1.704-.058 3.528-.092 5.397-.095v5.92zm0-6.415c-1.844 0-3.637.032-5.316.093.308-1.773.745-3.4 1.298-4.81.094-.242.19-.473.29-.696 1.196-.084 2.45-.13 3.73-.135v5.547zm0-6.045a54.09 54.09 0 0 0-3.492.12c1.01-2.07 2.224-3.25 3.492-3.385v3.265zm-1.623-3.12c-.894.644-1.72 1.754-2.43 3.28-1.642.127-3.175.325-4.54.595 1.916-2.038 4.318-3.428 6.97-3.874zm-7.52 4.494c1.427-.316 3.078-.55 4.86-.698a9.555 9.555 0 0 0-.192.47c-.573 1.468-1.023 3.165-1.342 5.01-1.815.066-3.485.17-4.924.3-.477.045-.92.09-1.33.14.686-1.97 1.688-3.742 2.93-5.223zm-3.097 5.74c.524-.064 1.15-.13 1.896-.194 1.315-.112 2.82-.2 4.444-.266a40.215 40.215 0 0 0-.455 5.805H7.175c.027-1.88.325-3.677.847-5.345zm5.887 5.838c.01 2.003.162 3.945.438 5.76a95.115 95.115 0 0 1-4.427-.263 51.137 51.137 0 0 1-1.933-.2 18.744 18.744 0 0 1-.812-5.297h6.735zM7.43 76.957c.226.304.467.597.713.883h1.34c-.872-.272-1.567-.57-2.053-.883zM33.803 76.78c-.48.374-1.27.737-2.305 1.06h1.436l.05-.02c.285-.337.56-.684.82-1.04z"/></g><g><path fill="#EAC907" d="M30.55 59.438H10.46c-1.094 0-1.98.888-1.98 1.98v11.268c0 1.097.887 1.98 1.98 1.98h20.09c1.097 0 1.98-.884 1.98-1.98V61.42a1.98 1.98 0 0 0-1.98-1.982zm-7.29 3.237h-5.51a.844.844 0 0 1-.844-.843c0-.464.38-.842.844-.842h5.51a.843.843 0 0 1 0 1.685z"/><path fill="#EFEFEF" d="M31.034 71.32a1.98 1.98 0 0 1-1.98 1.978h-17.1a1.98 1.98 0 0 1-1.98-1.98v-5.05a1.98 1.98 0 0 1 1.98-1.98h17.102a1.98 1.98 0 0 1 1.98 1.98v5.05z"/><path fill="#29353F" d="M16.368 66.523a.454.454 0 0 0-.548.306l-.692 2.42-.695-2.42a.445.445 0 0 0-.446-.313.44.44 0 0 0-.446.312l-.696 2.42-.694-2.42a.45.45 0 0 0-.546-.307.423.423 0 0 0-.306.526l1.1 3.837a.44.44 0 0 0 .446.31.44.44 0 0 0 .45-.31l.693-2.423.694 2.423a.442.442 0 0 0 .448.31c.2.01.39-.11.445-.31l1.102-3.838a.42.42 0 0 0-.307-.527zM22.977 66.523a.45.45 0 0 0-.546.306l-.69 2.42-.698-2.42a.442.442 0 0 0-.445-.313.448.448 0 0 0-.45.312l-.692 2.42-.694-2.42a.45.45 0 0 0-.546-.307.425.425 0 0 0-.308.526l1.103 3.837a.44.44 0 0 0 .445.31c.2.01.39-.11.446-.31l.697-2.423.695 2.423a.438.438 0 0 0 .447.31.44.44 0 0 0 .445-.31l1.1-3.838a.42.42 0 0 0-.308-.527zM29.41 66.523a.45.45 0 0 0-.548.306l-.696 2.42-.694-2.42a.445.445 0 0 0-.448-.313.445.445 0 0 0-.447.312l-.693 2.42-.694-2.42a.45.45 0 0 0-.548-.307.422.422 0 0 0-.305.526l1.1 3.837c.06.198.246.318.447.31a.44.44 0 0 0 .447-.31l.694-2.423.696 2.423a.44.44 0 0 0 .446.31c.2.01.392-.11.447-.31l1.102-3.838a.423.423 0 0 0-.306-.527z"/><path opacity=".4" d="M22.47 61.004l.67-.014.367-1.552-1.29.007z"/><path fill="#29353F" d="M22.798 62.68V56.84a.36.36 0 0 0-.355-.358h-3.695a.36.36 0 0 0-.356.358v5.837h4.406z"/><path opacity=".1" fill="#FFF" d="M22.572 56.925a.184.184 0 0 1-.185.183H18.79a.18.18 0 0 1-.183-.183c0-.102.08-.186.183-.186h3.598c.1 0 .184.083.184.185z"/><path opacity=".1" d="M30.55 59.438L10.46 74.666h20.09c1.097 0 1.98-.883 1.98-1.98V61.42a1.98 1.98 0 0 0-1.98-1.982z"/></g></g><path opacity=".3" d="M11.848 75.752l.002.006c.072.094.148.186.22.28.084.107.168.217.254.322.145.18.294.355.445.53l.012.013c.28.322.572.634.874.937h19.308l.02-.02.02-.025c.136-.158.267-.32.396-.48l.01-.015c.133-.168.263-.337.388-.51l.008-.01c.19-.264.372-.53.547-.806v.002a16.402 16.402 0 0 0 1.713-3.58c.03-.096.062-.186.095-.28h-.002c.045-.145.086-.29.127-.436a15.327 15.327 0 0 0 .18-.68 19.676 19.676 0 0 0 .155-.72l.062-.352c.02-.13.044-.262.062-.395.02-.137.036-.275.054-.415.014-.117.028-.233.04-.352.016-.166.025-.333.037-.5.006-.096.016-.19.02-.283a16.356 16.356 0 0 0-.775-5.842h.002A16.332 16.332 0 0 0 10.56 82.478 16.332 16.332 0 0 0 33.37 57.01a.652.652 0 0 1-.035-.04c-.104-.128-.206-.254-.313-.38-.04-.05-.084-.096-.126-.146-.096-.11-.19-.22-.29-.328a.387.387 0 0 1-.02-.02s0-.002-.003-.002a16.323 16.323 0 0 0-8.797-4.95v-.002c-.028-.005-.054-.008-.078-.014-.23-.045-.463-.087-.697-.122-.103-.015-.207-.025-.31-.04-.163-.02-.325-.045-.49-.06-.16-.018-.32-.025-.48-.037-.113-.01-.225-.02-.34-.026a16.392 16.392 0 0 0-1.726.005c-.043 0-.085.005-.128.008-.26.017-.52.037-.778.066-.02 0-.038.005-.057.007a16.273 16.273 0 0 0-8.295 3.434 19.618 19.618 0 0 0-2.475 9.568 19.69 19.69 0 0 0 3.918 11.82z"/><g><path fill="#76D9FC" d="M43.203 77.84a19.73 19.73 0 0 0 5.713-13.908c0-10.934-8.86-19.794-19.792-19.794-10.932 0-19.795 8.86-19.795 19.794a19.726 19.726 0 0 0 5.713 13.908h28.16z"/><path fill-rule="evenodd" clip-rule="evenodd" fill="#00A936" d="M16.348 67.8a1.643 1.643 0 0 0-.36-.09.958.958 0 0 0-.323 0c-.27.08-.288.36.444.803.193.26.55.498.886.367.196-.555-.21-.893-.647-1.043-.002-.037 0-.025-.002-.037zM19.407 62.193c.032.028.053.074.08.08h.042c.196.056.388-.144.24-.156-.06-.01-.173.006-.363.076zM23.992 60.466c-.313.054-.39.264.284.726.083-.022.663-.153.323.197 1.045-.626-.074-1.02-.608-.924zM23.992 55.994c1.126-.458 1.386-3.424.044-3.337-.087 0-.173.043-.283.084.56 1.035-.734 2.356.24 3.254zM36.926 58.452c.088-.618-.896-1.074-1.34-1.05-.258.02-.31.204.17.648-.447 1.054.74 1.11 1.17.402zM26.854 50.728c.324-.15.48-.69 0-.69-.088-.023-.154-.046-.24-.04-.087.003-.175.033-.236.04-.952.19-.665 1.764.476.69z"/><path fill-rule="evenodd" clip-rule="evenodd" fill="#00A936" d="M28.184 50.36c-1.375.173-2.762 1.5-1.484 2.814.916 1.145-1.32 3.478.803 4.075.843-1.886 3.148-3.38 2.58-5.68-.24-.978-1.07-1.315-1.9-1.21z"/><path fill="#00A936" d="M14.382 71.37c.842 1.058.438 2.273.372 3.43-.02.007.01.034.01.04-.042.7.068 1.368.66 1.97.278.36.59.697.912 1.03h12.026c-.835-.38-1.844-.507-2.55-.26-2.037-1.355-3.51-3.424-5.803-4.432-1.867-1.81-6.073-.685-5.998-4.11.194-1.626-1.11-2.41-2.09-3.177-.753-2.516 3.837-3.44 3.904-.685 1.51-.08 2.04-2.715 3.787-3.096.897-.782 3.33.057 2.45-1.536.87-.826 3.42-.8 2.173-2.73-.418-1.886-2.734-2.797-3.498-.65-2.097.562-1.252-3.99.884-3.383 1.545.092 1.336-1.254.397-1.686 0-.066-.02-.104-.078-.045-.174-.064-.354-.132-.564-.12-2.092-1.157 2.094-4.104-.68-5.036-3.042 2.6-7.683 6.688-9.54 10.51-.84 2.396-.698 4.808-.602 7.328.852 2.44 2.508 4.453 3.826 6.64zM44.207 76.732a19.707 19.707 0 0 0 4.71-12.8c0-.546-.038-1.083-.082-1.618-.013-.134-.024-.27-.04-.4-1.13.618-3.143-2.786-1.084-1.167.403-.028.656-.145.847-.318-.238-1.24-.56-2.443-1.014-3.59-.2-.24-.396-.465-.562-.6a3.778 3.778 0 0 0-.038-.724c-.01-.013.012-.03 0-.044-3.227-6.64-10.037-11.226-17.912-11.226-.537 0-1.083.033-1.612.077-.277.058-.58.094-.89.122a4.29 4.29 0 0 0-.318.04c-1.11.157-2.173.352-3.216.682 2.72-.2 5.516-.13 7.97 1.09.648 2.085 4.533.04 4.346 2.37.03.033.09.087.123.127-.062.044.044.47.122.113.672.76 2.084 2.336.603 2.14-1.966-.27-1.455 3.603-.04 4.307 1.35.726 2.107-.732.722-1.448-.188-1.816 3.028 1.115 1.608 2.088-.056.038-.102.083-.157.124.065-.26-.092-.015-.086.044-1.614 1.17-.694 3.92-1.32 5.755-1.117 2.48 2.793 1.387 2.21-.565-.715-1.795 2.973-.977 2.174-2.252 2.238 1.186 2.027-2 1.092-3.065.437-1.703 1.588.2 1.042 1.127.088.88.845 1.08 1.453 1.33.027.02.06.024.118.04.53.253.85.577.277 1.575-.658 2.216-2.886 2.34-4.705 1.928-1.844.764-2.186 3-3.225 4.507-1.03 1.883-1.887 4.656-.035 6.32 1.77 1.7 3.806.225 5.273-.925 2.815-.366 3.073 2.948 1.688 4.637l-.04.198z"/><g opacity=".2" fill="#010000"><path d="M10.29 57.832c-.004.015-.007.025-.012.037.185-.012.345-.023.345-.038h-.332zM45.84 74.52h-.02c0 .017-.005.03-.007.047.01-.016.02-.03.028-.047z"/><path d="M12.35 64.19a23.4 23.4 0 0 0 .93 6.32c-2.333-.33-2.64-.636-2.67-.68.004.005.014.032.014.064h-.377c.058.18.12.358.18.535.275.153.702.29 1.313.42.478.103 1.06.2 1.738.29a21.003 21.003 0 0 0 2.98 5.893c-1.402-.382-2.493-.82-3.21-1.282.294.398.608.778.933 1.152.855.357 1.827.646 2.73.867.045.01.09.02.136.032l.03.036h3.427a37.343 37.343 0 0 1-3.127-.575c-1.373-1.74-2.484-3.783-3.25-6.04.507.063 1.06.118 1.653.17 1.733.16 3.745.284 5.936.37.373 2.235.914 4.29 1.6 6.075h.637a8.055 8.055 0 0 0-.043-.108c-.682-1.738-1.215-3.754-1.592-5.945 2.035.068 4.215.11 6.455.11v5.943h.59v-5.943c2.243-.003 4.42-.042 6.457-.114-.377 2.194-.912 4.21-1.592 5.95-.016.037-.03.072-.043.108h.633c.688-1.786 1.23-3.842 1.604-6.08 2.16-.085 4.145-.207 5.858-.364a62.51 62.51 0 0 0 1.732-.177c-.765 2.252-1.87 4.294-3.244 6.033-.972.23-2.037.426-3.17.588h3.46c.013-.017.027-.032.04-.05l.088-.02c.992-.243 2.062-.565 2.977-.975.345-.406.68-.827.99-1.257-.682.53-1.875 1.044-3.465 1.48a21.137 21.137 0 0 0 2.976-5.886c.643-.09 1.198-.185 1.658-.282.853-.185 1.35-.376 1.566-.617.037-.113.078-.223.115-.338h-.568c0-.032.01-.06.016-.063-.03.042-.33.34-2.59.668.58-1.98.903-4.104.927-6.312H48.8v-.6h-3.015c-.03-2.23-.37-4.37-.967-6.365 2.285.33 2.585.63 2.616.672-.006-.005-.018-.03-.018-.063h.538a11.67 11.67 0 0 0-.13-.387c-.24-.22-.722-.4-1.52-.57-.465-.1-1.03-.196-1.687-.282-.762-2.3-1.87-4.392-3.254-6.18 1.388.357 2.492.772 3.256 1.21a21.51 21.51 0 0 0-.946-1.108 19.962 19.962 0 0 0-2.48-.764c-.148-.04-.3-.07-.45-.107-2.11-2.46-4.762-4.26-7.717-5.12a19.832 19.832 0 0 0-8.224.093c-2.83.893-5.37 2.65-7.407 5.023-.16.037-.32.073-.475.112-.744.182-1.538.41-2.272.687-.32.342-.627.697-.923 1.06.756-.393 1.786-.765 3.048-1.09-1.38 1.786-2.49 3.873-3.253 6.174-.7.09-1.294.188-1.78.295-.572.123-.983.248-1.256.393-.058.157-.11.313-.16.47.56-.133 1.55-.322 2.996-.528-.6 2-.94 4.144-.97 6.38H9.34c-.004.112-.01.224-.01.34 0 .087.005.172.006.26h3.013zm31.865 6.395c-.662.086-1.458.17-2.417.254-1.568.13-3.355.238-5.28.317a47.91 47.91 0 0 0 .527-6.968h8.15a22.674 22.674 0 0 1-.98 6.395zm.978-6.994h-8.148a48.095 48.095 0 0 0-.548-7.018c1.93.077 3.718.184 5.286.317a65.82 65.82 0 0 1 2.39.247c.63 2.016.988 4.187 1.02 6.454zm-4.766-13.403c1.503 1.793 2.714 3.938 3.54 6.322-.52-.064-1.087-.12-1.703-.18a119.098 119.098 0 0 0-5.866-.36c-.38-2.232-.93-4.287-1.622-6.065-.074-.192-.153-.38-.232-.568 2.157.182 4.155.466 5.883.85zm-.666-.75c-1.65-.324-3.51-.57-5.494-.724-.857-1.848-1.857-3.19-2.94-3.968 3.207.543 6.12 2.224 8.435 4.69zm-10.4-4.868c1.54.16 3.007 1.59 4.227 4.093-1.36-.088-2.78-.14-4.226-.146V44.57zm0 4.55a66.2 66.2 0 0 1 4.515.166c.12.27.236.55.352.84.667 1.707 1.195 3.678 1.567 5.82-2.028-.073-4.198-.11-6.433-.115v-6.71zm0 7.312c2.267.005 4.475.046 6.537.12.35 2.207.54 4.586.558 7.04H29.36v-7.16zm0 7.757h7.095a47.03 47.03 0 0 1-.538 6.986c-2.067.077-4.283.118-6.556.118V64.19zm-.59 7.105c-2.27 0-4.485-.04-6.554-.115a47.205 47.205 0 0 1-.538-6.99h7.093v7.105zm0-7.704H21.68c.017-2.452.207-4.833.56-7.043 2.063-.072 4.272-.112 6.533-.115v7.16zm0-7.76c-2.232.004-4.4.042-6.432.112.372-2.144.9-4.11 1.57-5.815.113-.294.23-.573.35-.843a67.61 67.61 0 0 1 4.513-.165v6.71zm0-7.312a67.928 67.928 0 0 0-4.225.146c1.222-2.503 2.69-3.933 4.226-4.094v3.948zm-1.962-3.773c-1.082.777-2.08 2.12-2.94 3.968-1.984.153-3.84.394-5.49.72 2.316-2.468 5.224-4.147 8.43-4.688zM17.71 50.18c1.727-.38 3.724-.664 5.882-.844a16.4 16.4 0 0 0-.234.568c-.69 1.778-1.238 3.83-1.62 6.062-2.2.08-4.22.21-5.96.363-.576.055-1.112.11-1.607.167.83-2.38 2.042-4.525 3.54-6.316zm-3.746 6.945a70.434 70.434 0 0 1 2.295-.235 120.83 120.83 0 0 1 5.377-.32c-.344 2.21-.53 4.58-.55 7.02H12.94c.033-2.27.392-4.447 1.024-6.465zm7.124 7.064c.012 2.422.193 4.772.527 6.97a121.786 121.786 0 0 1-5.356-.32c-.92-.082-1.69-.162-2.338-.243a22.722 22.722 0 0 1-.982-6.407h8.148z"/></g><g><path fill="#FF5148" d="M41.22 54.562H16.913a2.395 2.395 0 0 0-2.396 2.396v13.63a2.394 2.394 0 0 0 2.396 2.396h24.31a2.393 2.393 0 0 0 2.392-2.396v-13.63a2.394 2.394 0 0 0-2.393-2.396zm-8.823 3.914h-6.665a1.02 1.02 0 0 1 0-2.04h6.665a1.02 1.02 0 0 1 0 2.04z"/><path fill="#EFEFEF" d="M41.804 68.933a2.395 2.395 0 0 1-2.396 2.395H18.72a2.395 2.395 0 0 1-2.395-2.395v-6.11a2.397 2.397 0 0 1 2.396-2.395h20.69a2.396 2.396 0 0 1 2.395 2.394v6.11z"/><path fill="#29353F" d="M24.06 63.13a.548.548 0 0 0-.66.37l-.84 2.93-.84-2.93a.54.54 0 0 0-.542-.378.534.534 0 0 0-.54.38l-.842 2.93-.84-2.93a.545.545 0 0 0-.66-.372.515.515 0 0 0-.372.64l1.332 4.64c.066.24.297.386.54.378a.538.538 0 0 0 .543-.377l.838-2.93.84 2.93c.07.24.3.386.542.378a.532.532 0 0 0 .54-.377l1.33-4.64a.513.513 0 0 0-.37-.64zM32.057 63.13a.547.547 0 0 0-.662.37l-.84 2.93-.84-2.93a.54.54 0 0 0-.54-.378.542.542 0 0 0-.543.38l-.84 2.93-.84-2.93a.543.543 0 0 0-.662-.372.515.515 0 0 0-.37.64l1.33 4.64c.07.24.3.386.542.378a.532.532 0 0 0 .54-.377l.843-2.93.84 2.93c.066.24.298.386.54.378a.537.537 0 0 0 .542-.377l1.33-4.64a.513.513 0 0 0-.37-.64zM39.837 63.13a.545.545 0 0 0-.66.37l-.844 2.93-.84-2.93a.54.54 0 0 0-.544-.378.538.538 0 0 0-.54.38l-.84 2.93-.84-2.93a.546.546 0 0 0-.662-.372.514.514 0 0 0-.37.64l1.332 4.64c.07.24.297.386.54.378a.538.538 0 0 0 .543-.377l.836-2.93.843 2.93c.067.24.3.386.54.378a.532.532 0 0 0 .54-.377l1.334-4.64a.513.513 0 0 0-.37-.64z"/><path opacity=".4" d="M31.442 56.452l.808-.015.447-1.875-1.56.006z"/><path fill="#29353F" d="M31.84 58.478v-7.06a.436.436 0 0 0-.433-.435h-4.47a.438.438 0 0 0-.43.436v7.058h5.332z"/><path opacity=".1" fill="#FFF" d="M31.565 51.52c0 .12-.1.22-.223.22H26.99a.218.218 0 0 1-.222-.22c0-.124.096-.226.222-.226h4.352c.123 0 .223.102.223.226z"/><path opacity=".1" d="M41.22 54.562l-24.308 18.42h24.31a2.393 2.393 0 0 0 2.392-2.396v-13.63a2.394 2.394 0 0 0-2.393-2.394z"/></g></g><g><path fill="#76D9FC" d="M23.85 77.84h32.454c5.686-4.684 9.312-11.778 9.312-19.72 0-14.108-11.433-25.54-25.537-25.54-14.106 0-25.542 11.432-25.542 25.54 0 7.942 3.625 15.036 9.313 19.72z"/><path fill-rule="evenodd" clip-rule="evenodd" fill="#00A936" d="M23.592 63.11a2.037 2.037 0 0 0-.465-.115c-.172-.02-.3-.026-.416 0-.347.103-.37.467.573 1.034.254.335.71.643 1.145.474.254-.717-.27-1.152-.836-1.35 0-.044.005-.03 0-.044zM27.54 55.876c.042.038.068.097.105.104h.054c.25.072.5-.185.308-.202-.077-.013-.223.006-.467.098zM33.457 53.646c-.405.07-.503.34.366.938.107-.03.854-.197.416.256 1.35-.808-.094-1.315-.783-1.194zM33.457 47.877c1.453-.59 1.787-4.42.056-4.306-.11 0-.223.057-.364.11.722 1.336-.95 3.038.307 4.197zM50.142 51.05c.116-.798-1.154-1.387-1.727-1.355-.333.023-.398.262.218.836-.575 1.36.96 1.433 1.51.52zM37.148 41.083c.42-.195.618-.892 0-.892-.113-.03-.2-.058-.31-.052-.113.004-.226.044-.307.053-1.223.247-.852 2.28.618.893z"/><path fill-rule="evenodd" clip-rule="evenodd" fill="#00A936" d="M38.864 40.607c-1.774.224-3.564 1.938-1.915 3.634 1.18 1.476-1.706 4.485 1.034 5.258 1.09-2.432 4.063-4.36 3.327-7.324-.306-1.266-1.375-1.702-2.446-1.567z"/><path fill="#00A936" d="M21.057 67.72c1.087 1.362.563 2.93.48 4.42-.03.01.014.048.014.054-.055.902.087 1.765.852 2.54.85 1.097 1.943 2.047 2.872 3.106H40.96c-.54-1.665-3.495-2.692-5.154-2.115-2.628-1.742-4.527-4.413-7.487-5.712-2.408-2.338-7.838-.885-7.738-5.305.252-2.098-1.434-3.112-2.696-4.098-.974-3.25 4.95-4.442 5.036-.886 1.952-.103 2.635-3.505 4.886-3.994 1.16-1.008 4.298.075 3.163-1.98 1.123-1.068 4.414-1.03 2.804-3.526-.54-2.43-3.528-3.605-4.51-.838-2.708.727-1.616-5.145 1.137-4.362 1.997.115 1.725-1.62.516-2.178 0-.086-.025-.134-.103-.057-.22-.084-.452-.17-.726-.155-2.7-1.49 2.7-5.294-.878-6.5-3.927 3.355-9.912 8.632-12.31 13.56-1.082 3.094-.9 6.206-.776 9.457 1.096 3.147 3.232 5.744 4.933 8.567zM59.538 74.635c3.784-4.455 6.077-10.214 6.077-16.516 0-.705-.048-1.397-.105-2.087-.018-.173-.03-.348-.05-.52-1.46.8-4.057-3.592-1.402-1.505.52-.036.847-.185 1.09-.41-.306-1.6-.72-3.15-1.304-4.63-.26-.308-.51-.6-.725-.773.018-.32-.016-.628-.054-.935-.013-.016.014-.04 0-.057-4.163-8.567-12.95-14.483-23.11-14.483-.693 0-1.397.042-2.083.1a9.56 9.56 0 0 1-1.147.157c-.136.014-.273.03-.408.053-1.434.202-2.805.452-4.15.88 3.51-.26 7.116-.166 10.283 1.404.838 2.69 5.85.052 5.608 3.06.04.042.114.11.157.162-.078.058.06.606.16.148.865.98 2.687 3.013.774 2.76-2.536-.35-1.877 4.648-.05 5.556 1.74.937 2.72-.943.93-1.868-.24-2.343 3.906 1.44 2.076 2.693-.072.05-.134.11-.203.16.083-.336-.12-.018-.114.058-2.082 1.51-.896 5.06-1.704 7.425-1.44 3.198 3.604 1.788 2.853-.73-.925-2.316 3.835-1.26 2.805-2.906 2.887 1.53 2.613-2.582 1.408-3.955.563-2.197 2.047.258 1.346 1.457.11 1.132 1.087 1.393 1.872 1.715.036.025.076.03.154.05.684.325 1.096.745.356 2.032-.85 2.858-3.725 3.016-6.073 2.488-2.378.984-2.82 3.87-4.158 5.814-1.33 2.428-2.437 6.006-.048 8.154 2.283 2.194 4.91.29 6.806-1.193 3.633-.473 3.964 3.805 2.177 5.982l-.05.258z"/><g opacity=".2" fill="#010000"><path d="M15.778 50.247l-.015.05c.235-.014.444-.03.444-.05h-.43zM61.646 71.78h-.027c0 .02-.007.04-.01.06.013-.02.027-.04.036-.06z"/><path d="M18.432 58.45a30.2 30.2 0 0 0 1.202 8.16c-3.01-.43-3.405-.823-3.444-.88.004.006.02.04.02.083h-.49c.075.23.155.464.234.69.354.2.904.376 1.69.544.618.13 1.366.26 2.243.376.912 2.805 2.223 5.37 3.847 7.602-1.81-.493-3.214-1.062-4.143-1.654a25.25 25.25 0 0 0 1.205 1.486c1.104.462 2.357.832 3.522 1.118.058.012.117.026.175.045.52.638 1.064 1.245 1.636 1.82h1.104a22.968 22.968 0 0 1-1.507-1.548c2.19.45 4.687.79 7.366 1.005.082.185.164.364.248.542h.846a19.228 19.228 0 0 1-.23-.477c1.824.126 3.726.19 5.666.2v.275h.763v-.275a89.957 89.957 0 0 0 5.67-.204l-.23.478h.85c.083-.18.165-.358.247-.546 2.682-.216 5.18-.562 7.37-1.016a22.43 22.43 0 0 1-1.52 1.562h1.107a24.16 24.16 0 0 0 1.648-1.84c.036-.01.074-.02.11-.025 1.28-.312 2.664-.73 3.842-1.257.444-.526.875-1.067 1.28-1.623-.884.685-2.42 1.348-4.473 1.91a27.125 27.125 0 0 0 3.84-7.594 32.33 32.33 0 0 0 2.14-.364c1.098-.236 1.738-.484 2.02-.797.05-.148.1-.29.15-.44H63.7c0-.042.015-.076.022-.08-.043.055-.428.438-3.346.862a30.128 30.128 0 0 0 1.198-8.144h3.89v-.768h-3.89a30.05 30.05 0 0 0-1.25-8.215c2.95.426 3.336.812 3.377.865-.006-.007-.02-.037-.02-.083h.694c-.054-.165-.11-.33-.168-.496-.308-.28-.932-.514-1.96-.734-.6-.128-1.33-.254-2.18-.365-.98-2.965-2.413-5.666-4.195-7.973 1.79.46 3.215.997 4.2 1.56a26.595 26.595 0 0 0-1.22-1.427c-1.022-.403-2.145-.73-3.198-.987-.192-.048-.39-.093-.583-.14-2.724-3.174-6.145-5.497-9.958-6.605a25.55 25.55 0 0 0-10.612.12c-3.65 1.15-6.93 3.417-9.558 6.48-.205.05-.41.097-.612.145-.96.233-1.984.528-2.93.886-.415.44-.812.898-1.192 1.368.975-.51 2.304-.99 3.93-1.41-1.778 2.308-3.21 5-4.195 7.967-.9.118-1.67.247-2.3.382-.734.16-1.265.32-1.616.51-.076.2-.143.4-.207.603.723-.17 2-.417 3.865-.682a30.168 30.168 0 0 0-1.25 8.232H14.55c-.004.145-.014.29-.014.44 0 .11.007.22.01.33h3.886zM55.1 75.306c-2.275.54-4.943.938-7.843 1.185.036-.093.076-.182.11-.275.915-2.34 1.63-5.047 2.123-7.995 2.79-.11 5.35-.266 7.56-.47a79.74 79.74 0 0 0 2.236-.23c-.985 2.908-2.415 5.54-4.186 7.785zm4.45-8.6c-.855.11-1.882.218-3.12.327-2.024.168-4.33.306-6.812.408.432-2.832.664-5.867.68-8.99H60.81a29.382 29.382 0 0 1-1.26 8.254zm1.26-9.025H50.298a62.186 62.186 0 0 0-.707-9.057c2.49.1 4.798.237 6.82.41 1.225.104 2.24.215 3.085.32a29.362 29.362 0 0 1 1.315 8.327zm-6.15-17.297c1.94 2.314 3.5 5.082 4.567 8.158a85.54 85.54 0 0 0-2.197-.23c-2.212-.198-4.778-.356-7.568-.465-.492-2.878-1.198-5.53-2.094-7.824-.095-.245-.196-.49-.298-.733 2.785.235 5.362.6 7.59 1.096zm-.858-.966c-2.13-.42-4.528-.736-7.09-.934-1.108-2.385-2.398-4.117-3.793-5.12 4.137.7 7.894 2.87 10.882 6.054zm-13.418-6.28c1.984.207 3.878 2.053 5.45 5.283a88.024 88.024 0 0 0-5.45-.188v-5.095zm0 5.87c2 .007 3.954.08 5.823.215.154.35.305.71.454 1.086.86 2.2 1.542 4.743 2.023 7.508a244.955 244.955 0 0 0-8.3-.148v-8.66zm0 9.435c2.923.006 5.772.06 8.433.155.45 2.848.698 5.916.72 9.082h-9.152V48.44zm0 10.01h9.152a60.842 60.842 0 0 1-.694 9.015c-2.668.1-5.525.153-8.458.153v-9.17zm0 9.944c2.893-.004 5.703-.054 8.33-.146-.485 2.828-1.175 5.43-2.053 7.676-.085.22-.167.426-.256.634a85.045 85.045 0 0 1-6.02.23v-8.394zM24.918 75.32c-1.772-2.244-3.205-4.88-4.193-7.79.654.08 1.365.15 2.135.22 2.235.206 4.83.364 7.657.474.493 2.946 1.21 5.65 2.12 7.99.04.094.078.186.114.278-2.893-.243-5.554-.64-7.832-1.172zm14.703 1.47a85.755 85.755 0 0 1-6.016-.226c-.087-.206-.173-.42-.257-.64-.88-2.243-1.566-4.845-2.053-7.673 2.626.09 5.437.145 8.326.145v8.395zm0-9.17c-2.93 0-5.786-.055-8.454-.15a60.71 60.71 0 0 1-.693-9.02h9.148v9.17zm0-9.94h-9.147c.02-3.166.267-6.237.722-9.09 2.66-.092 5.51-.146 8.427-.147v9.237zm0-10.013c-2.878.004-5.676.052-8.296.145.48-2.765 1.162-5.304 2.023-7.504.146-.38.3-.74.454-1.09a87.903 87.903 0 0 1 5.82-.21v8.66zm0-9.436c-1.862.008-3.69.072-5.45.19 1.578-3.23 3.47-5.077 5.45-5.284v5.095zm-2.53-4.867c-1.397 1.003-2.684 2.735-3.793 5.12-2.562.197-4.956.507-7.088.928 2.99-3.18 6.74-5.35 10.88-6.047zm-11.74 7.015c2.23-.492 4.805-.86 7.59-1.092-.104.24-.204.483-.302.734-.894 2.293-1.598 4.94-2.094 7.82a149.71 149.71 0 0 0-7.688.47c-.743.068-1.436.142-2.073.217 1.07-3.072 2.634-5.84 4.567-8.15zm-4.83 8.96c.817-.102 1.795-.202 2.96-.305 2.055-.177 4.402-.312 6.938-.413a61.762 61.762 0 0 0-.71 9.06H19.196a29.3 29.3 0 0 1 1.325-8.343zm9.19 9.113a62.28 62.28 0 0 0 .68 8.994c-2.52-.1-4.858-.237-6.91-.412a82.828 82.828 0 0 1-3.017-.314 29.302 29.302 0 0 1-1.268-8.267H29.71z"/></g><g><path fill="#2579F2" d="M55.684 46.028H24.322a3.09 3.09 0 0 0-3.092 3.092v17.585c0 1.71 1.383 3.09 3.092 3.09h31.36a3.085 3.085 0 0 0 3.088-3.09V49.12a3.086 3.086 0 0 0-3.086-3.092zM44.3 51.08h-8.6c-.726 0-1.316-.59-1.316-1.317 0-.724.59-1.313 1.317-1.313h8.6a1.314 1.314 0 0 1 0 2.63z"/><path fill="#EFEFEF" d="M56.438 64.57a3.09 3.09 0 0 1-3.09 3.092H26.653a3.09 3.09 0 0 1-3.092-3.09v-7.885a3.093 3.093 0 0 1 3.092-3.09h26.692a3.09 3.09 0 0 1 3.09 3.09v7.884z"/><path fill="#29353F" d="M33.544 57.085a.707.707 0 0 0-.854.48l-1.084 3.777-1.082-3.778a.694.694 0 0 0-.696-.49.686.686 0 0 0-.697.49l-1.087 3.778-1.084-3.778a.703.703 0 0 0-.855-.48.66.66 0 0 0-.476.825l1.716 5.987c.086.31.383.496.696.488a.7.7 0 0 0 .7-.488l1.085-3.78 1.083 3.78c.09.31.384.496.695.488.314.008.612-.18.698-.488l1.717-5.988a.658.658 0 0 0-.476-.825zM43.86 57.085a.707.707 0 0 0-.855.48l-1.08 3.777-1.086-3.778a.694.694 0 0 0-.698-.49.696.696 0 0 0-.7.49l-1.085 3.778-1.083-3.778a.703.703 0 0 0-.854-.48.666.666 0 0 0-.48.825l1.72 5.987c.092.31.387.496.697.488.314.008.61-.18.697-.488l1.088-3.78 1.083 3.78c.087.31.384.496.7.488a.7.7 0 0 0 .698-.488l1.713-5.988a.658.658 0 0 0-.477-.825zM53.9 57.085a.704.704 0 0 0-.854.48L51.96 61.34l-1.085-3.778a.692.692 0 0 0-.7-.49.696.696 0 0 0-.697.49l-1.083 3.778-1.084-3.778a.703.703 0 0 0-.853-.48.664.664 0 0 0-.477.825l1.717 5.987c.09.31.385.496.697.488a.7.7 0 0 0 .7-.488l1.08-3.78 1.09 3.78c.084.31.38.496.695.488.312.008.608-.18.696-.488l1.72-5.988a.66.66 0 0 0-.476-.825z"/><path opacity=".4" d="M43.07 48.47l1.04-.02.578-2.422-2.015.01z"/><path fill="#29353F" d="M43.58 51.08v-9.107a.56.56 0 0 0-.557-.56h-5.765a.562.562 0 0 0-.558.56v9.108h6.88z"/><path opacity=".1" fill="#FFF" d="M43.227 42.104c0 .156-.13.28-.287.28h-5.613a.283.283 0 0 1-.288-.28c0-.16.127-.29.287-.29h5.613a.29.29 0 0 1 .287.29z"/><path opacity=".1" d="M55.684 46.028L24.322 69.796h31.36a3.085 3.085 0 0 0 3.088-3.09V49.12a3.086 3.086 0 0 0-3.086-3.092z"/></g></g><path opacity=".3" d="M23.552 60.453c.032.1.067.2.102.3a35.245 35.245 0 0 0 5.26 10.162h-.003c.003 0 .005.003.005.003.124.168.258.327.384.492.154.2.31.402.47.6.243.298.492.594.745.886.022.024.042.05.064.075l.002.002a35.51 35.51 0 0 0 5.178 4.868h20.527c1.15-.947 2.22-1.99 3.188-3.122h.004a24.288 24.288 0 0 0 1.28-1.623h-.002c.295-.408.58-.827.853-1.254l.006-.007a25.473 25.473 0 0 0 2.67-5.58v-.002c.05-.146.1-.287.15-.437h-.003c.07-.227.136-.456.2-.687.028-.1.058-.198.085-.298.068-.252.13-.505.19-.758.036-.147.07-.294.104-.44.05-.227.098-.453.14-.682.035-.18.067-.363.098-.546.035-.205.07-.41.1-.618.03-.214.056-.428.082-.643.02-.185.045-.368.062-.554.024-.258.042-.517.06-.775.01-.148.022-.297.03-.447a25.537 25.537 0 0 0-1.21-9.117h.002c-.054-.165-.11-.33-.168-.496 0 0-.002 0-.003-.002a25.5 25.5 0 0 0-4.136-7.514l.003.002-.047-.057c-.162-.202-.324-.4-.49-.597l-.203-.23c-.15-.174-.3-.348-.456-.518-.008-.01-.016-.02-.024-.027 0-.002-.002-.002-.002-.002a25.507 25.507 0 0 0-13.735-7.73c-.006 0-.012 0-.018-.002-.396-.08-.793-.15-1.196-.21-.13-.02-.26-.033-.393-.05-.284-.04-.568-.08-.854-.107-.225-.023-.453-.036-.678-.052-.2-.015-.398-.034-.6-.046a24.766 24.766 0 0 0-2.692.01c-.072 0-.142.01-.214.013-.4.024-.802.058-1.197.1l-.115.017c-.434.05-.864.11-1.294.18-.002.002-.006.002-.006.002a25.43 25.43 0 0 0-12.07 5.54c-.05.146-.107.288-.153.435 0 .003 0 .005-.004.008a35.338 35.338 0 0 0-1.715 10.89c0 3.71.574 7.286 1.637 10.648z"/><g><path fill="#76D9FC" d="M37.417 77.84h43.06C88.883 71.377 94.3 61.223 94.3 49.803c0-19.525-15.827-35.355-35.352-35.355s-35.355 15.83-35.355 35.355c0 11.42 5.42 21.574 13.824 28.037z"/><path fill-rule="evenodd" clip-rule="evenodd" fill="#00A936" d="M36.128 56.712a2.816 2.816 0 0 0-.644-.16c-.238-.028-.414-.036-.574 0-.483.143-.516.646.79 1.432.35.465.985.89 1.586.658.35-.993-.376-1.596-1.158-1.866 0-.064.007-.045 0-.064zM41.594 46.698c.057.05.096.134.146.142h.074c.352.1.693-.255.427-.278-.105-.018-.307.008-.646.136zM49.784 43.61c-.56.097-.696.47.507 1.3.15-.043 1.184-.275.578.35 1.87-1.114-.13-1.818-1.084-1.65zM49.784 35.625c2.01-.817 2.474-6.116.078-5.96-.154 0-.31.077-.507.15 1.003 1.85-1.31 4.204.43 5.81zM72.88 40.016c.162-1.104-1.6-1.92-2.39-1.873-.46.03-.552.362.302 1.155-.798 1.883 1.327 1.983 2.09.718zM54.894 26.22c.58-.27.856-1.233 0-1.233-.156-.04-.275-.08-.43-.074-.154.006-.31.06-.422.074-1.698.338-1.184 3.152.852 1.233z"/><path fill-rule="evenodd" clip-rule="evenodd" fill="#00A936" d="M57.27 25.563c-2.456.308-4.933 2.682-2.65 5.03 1.636 2.04-2.36 6.207 1.433 7.276 1.505-3.37 5.625-6.037 4.605-10.143-.426-1.75-1.907-2.353-3.388-2.164z"/><path fill="#00A936" d="M32.618 63.09c1.505 1.887.78 4.058.665 6.12-.04.015.02.064.02.074-.078 1.25.12 2.443 1.177 3.517 1.37 1.77 3.2 3.264 4.59 5.04h21.222c0-2.73-4.723-4.548-7.26-3.665-3.635-2.413-6.266-6.11-10.36-7.91-3.333-3.234-10.848-1.225-10.71-7.34.346-2.906-1.985-4.31-3.735-5.674-1.346-4.494 6.854-6.15 6.973-1.226 2.7-.142 3.646-4.85 6.764-5.53 1.604-1.393 5.95.104 4.378-2.74 1.554-1.477 6.11-1.427 3.88-4.88-.748-3.367-4.884-4.993-6.246-1.16-3.747 1.004-2.234-7.12 1.576-6.04 2.763.16 2.387-2.24.712-3.015 0-.118-.035-.186-.14-.078-.308-.114-.63-.233-1.007-.214-3.736-2.065 3.74-7.33-1.212-8.995-5.436 4.64-13.723 11.945-17.04 18.77-1.5 4.28-1.25 8.588-1.074 13.087 1.52 4.36 4.476 7.953 6.828 11.86zM85.887 72.664c5.237-6.168 8.412-14.138 8.412-22.86 0-.978-.07-1.935-.147-2.89-.024-.24-.043-.48-.07-.717-2.02 1.105-5.613-4.975-1.937-2.084.718-.05 1.17-.257 1.51-.566-.425-2.216-1-4.362-1.807-6.41-.362-.43-.71-.83-1.005-1.072.024-.442-.02-.867-.073-1.292-.017-.023.02-.055 0-.08-5.763-11.858-17.926-20.05-31.99-20.05-.96 0-1.937.062-2.883.14-.495.105-1.038.167-1.59.217a8.9 8.9 0 0 0-.565.073c-1.984.28-3.882.625-5.745 1.216 4.86-.357 9.85-.23 14.235 1.945 1.156 3.723 8.096.07 7.76 4.234.055.058.16.153.22.223-.11.08.08.84.22.206 1.198 1.356 3.72 4.17 1.073 3.817-3.51-.48-2.6 6.438-.07 7.692 2.41 1.297 3.766-1.307 1.29-2.586-.335-3.243 5.407 1.992 2.873 3.728-.1.07-.183.15-.28.224.116-.466-.167-.026-.158.078-2.88 2.088-1.236 7.003-2.356 10.277-1.995 4.43 4.987 2.477 3.946-1.007-1.277-3.208 5.31-1.746 3.885-4.023 3.996 2.117 3.62-3.574 1.948-5.476.78-3.04 2.835.357 1.863 2.017.157 1.568 1.51 1.928 2.594 2.375.05.037.105.042.212.07.947.45 1.518 1.03.495 2.81-1.177 3.958-5.154 4.177-8.407 3.445-3.29 1.362-3.9 5.36-5.756 8.05-1.842 3.362-3.37 8.313-.063 11.288 3.16 3.037 6.796.4 9.42-1.653 5.025-.652 5.487 5.268 3.014 8.28a6.81 6.81 0 0 0-.07.36z"/><g opacity=".2" fill="#010000"><path d="M25.312 38.906a1.21 1.21 0 0 0-.02.068c.325-.018.614-.04.614-.068h-.594zM88.805 68.713h-.037c0 .028-.008.055-.012.082.016-.027.036-.054.05-.082z"/><path d="M28.986 50.263a41.81 41.81 0 0 0 1.662 11.293c-4.167-.593-4.71-1.14-4.767-1.215a.26.26 0 0 1 .026.113h-.678c.104.32.216.64.326.956.49.276 1.25.52 2.342.752a41.75 41.75 0 0 0 3.103.52c1.26 3.885 3.074 7.435 5.324 10.522-2.504-.682-4.45-1.467-5.734-2.29.527.708 1.088 1.39 1.666 2.057 1.528.64 3.26 1.153 4.876 1.55.08.018.163.035.243.06a32.56 32.56 0 0 0 3.022 3.26h1.59a30.97 30.97 0 0 1-2.905-2.88c3.03.624 6.484 1.095 10.194 1.392.23.518.463 1.014.702 1.49h1.188a27.986 27.986 0 0 1-.693-1.398c2.524.175 5.156.264 7.842.278v1.12h1.056v-1.12c2.693-.015 5.323-.108 7.848-.284-.227.49-.46.955-.694 1.403h1.192c.24-.476.477-.973.705-1.49 3.712-.303 7.17-.78 10.202-1.41a30.756 30.756 0 0 1-2.922 2.9h1.588a32.72 32.72 0 0 0 3.044-3.284c.05-.013.104-.026.155-.035 1.77-.433 3.685-1.01 5.316-1.74a38.752 38.752 0 0 0 1.77-2.247c-1.22.95-3.348 1.867-6.19 2.648 2.242-3.086 4.058-6.636 5.315-10.514a44.22 44.22 0 0 0 2.96-.503c1.523-.328 2.408-.672 2.8-1.104.067-.203.138-.397.205-.605h-1.016c0-.06.02-.105.03-.112-.06.076-.592.606-4.63 1.195a41.72 41.72 0 0 0 1.656-11.273h5.386v-1.068h-5.387a41.685 41.685 0 0 0-1.728-11.372c4.08.59 4.616 1.124 4.673 1.198-.01-.01-.032-.052-.032-.114h.966c-.077-.23-.154-.458-.233-.688-.43-.393-1.293-.712-2.718-1.02a38.37 38.37 0 0 0-3.014-.505c-1.36-4.108-3.34-7.844-5.81-11.038 2.477.636 4.45 1.38 5.815 2.16a39.53 39.53 0 0 0-1.69-1.978c-1.414-.558-2.968-1.01-4.428-1.366-.266-.067-.538-.128-.806-.192-3.77-4.395-8.505-7.61-13.785-9.144a35.32 35.32 0 0 0-14.69.165c-5.053 1.594-9.594 4.73-13.228 8.97-.285.07-.57.134-.847.2-1.334.326-2.748.732-4.06 1.227a34.78 34.78 0 0 0-1.647 1.895c1.348-.703 3.188-1.37 5.44-1.95-2.463 3.193-4.446 6.92-5.81 11.027a40.64 40.64 0 0 0-3.18.53c-1.022.22-1.754.442-2.242.703-.103.28-.196.557-.284.836 1-.234 2.768-.577 5.352-.942a41.67 41.67 0 0 0-1.733 11.397H23.61c-.007.2-.02.4-.02.608 0 .154.01.304.014.46h5.382zm50.756 23.33c-3.15.745-6.84 1.296-10.856 1.64.05-.13.106-.252.155-.384 1.266-3.236 2.257-6.987 2.94-11.066 3.86-.154 7.4-.37 10.462-.647 1.12-.104 2.152-.212 3.096-.32-1.365 4.024-3.34 7.67-5.796 10.775zm6.162-11.906c-1.186.15-2.606.303-4.322.452-2.8.232-5.992.426-9.427.565.6-3.92.92-8.123.94-12.442h14.554a40.664 40.664 0 0 1-1.746 11.424zm1.742-12.493h-14.55c-.027-4.358-.365-8.59-.98-12.536 3.447.137 6.643.327 9.444.566 1.692.146 3.097.298 4.267.442a40.58 40.58 0 0 1 1.82 11.528zM79.134 25.25c2.687 3.204 4.848 7.037 6.323 11.295a110.7 110.7 0 0 0-3.043-.32c-3.06-.274-6.613-.492-10.476-.645-.68-3.984-1.657-7.656-2.897-10.83-.132-.343-.27-.68-.413-1.015 3.855.325 7.423.83 10.507 1.516zm-1.19-1.338c-2.948-.578-6.265-1.018-9.812-1.292-1.534-3.3-3.317-5.697-5.25-7.084 5.73.968 10.93 3.97 15.063 8.376zm-18.572-8.69c2.747.286 5.37 2.84 7.547 7.31a121.74 121.74 0 0 0-7.548-.26v-7.05zm0 8.125c2.77.008 5.475.11 8.062.297.215.484.423.982.63 1.502 1.19 3.047 2.13 6.565 2.8 10.395-3.624-.128-7.5-.196-11.49-.205V23.347zm0 13.06c4.046.01 7.99.082 11.673.214.625 3.944.967 8.19.996 12.574H59.373V36.406zm0 13.856h12.67c-.02 4.343-.35 8.56-.962 12.48-3.692.137-7.65.21-11.708.21v-12.69zm0 13.763a334.64 334.64 0 0 0 11.532-.202c-.673 3.915-1.627 7.515-2.842 10.626-.12.302-.233.59-.355.876a117.5 117.5 0 0 1-8.335.32v-11.62zm-21.408 9.588c-2.453-3.107-4.435-6.757-5.807-10.786.908.11 1.893.212 2.958.308 3.094.282 6.688.502 10.6.654.68 4.078 1.673 7.823 2.935 11.06.054.13.107.258.157.386-4.007-.337-7.69-.886-10.843-1.622zm20.352 2.032c-2.86-.008-5.655-.113-8.327-.31-.12-.288-.24-.585-.358-.887-1.216-3.107-2.17-6.706-2.842-10.62 3.637.122 7.528.195 11.526.195v11.62zm0-12.694c-4.056 0-8.012-.072-11.705-.205-.605-3.92-.938-8.136-.958-12.484h12.664v12.69zm0-13.758H45.652c.028-4.383.37-8.635 1-12.582 3.682-.128 7.625-.2 11.664-.206v12.788zm0-13.86c-3.985.005-7.86.072-11.485.2.666-3.827 1.61-7.342 2.802-10.39a34.22 34.22 0 0 1 .628-1.505c2.586-.184 5.294-.286 8.057-.294v11.988zm0-13.06c-2.58.007-5.11.096-7.545.26 2.184-4.473 4.805-7.026 7.546-7.313v7.053zm-3.504-6.738c-1.932 1.387-3.714 3.785-5.25 7.084-3.545.274-6.858.702-9.81 1.285 4.14-4.404 9.332-7.405 15.06-8.37zm-16.25 9.707c3.085-.682 6.65-1.19 10.506-1.508-.146.33-.283.666-.42 1.014-1.236 3.174-2.21 6.837-2.895 10.825-3.926.146-7.535.37-10.643.65-1.028.095-1.986.196-2.87.298 1.478-4.252 3.646-8.082 6.322-11.28zm-6.688 12.402c1.134-.137 2.487-.277 4.098-.42 2.847-.242 6.097-.433 9.604-.572-.612 3.95-.95 8.18-.98 12.542H30.04c.06-4.057.705-7.945 1.834-11.55zm12.72 12.618c.023 4.326.35 8.523.945 12.447-3.492-.138-6.728-.328-9.567-.57-1.646-.146-3.02-.288-4.176-.435a40.536 40.536 0 0 1-1.756-11.442h14.555z"/></g><g><path fill="#EAC907" d="M80.552 33.065H37.137a4.28 4.28 0 0 0-4.278 4.278v24.344a4.276 4.276 0 0 0 4.277 4.278h43.415a4.27 4.27 0 0 0 4.273-4.278V37.344c0-2.363-1.91-4.28-4.273-4.28zM64.795 40.06H52.89a1.824 1.824 0 0 1-1.823-1.824c0-1.002.817-1.818 1.823-1.818h11.905a1.82 1.82 0 0 1 0 3.64z"/><path fill="#EFEFEF" d="M81.594 58.733a4.274 4.274 0 0 1-4.277 4.277h-36.95a4.275 4.275 0 0 1-4.277-4.277V47.82a4.278 4.278 0 0 1 4.277-4.277h36.95a4.277 4.277 0 0 1 4.276 4.276v10.913z"/><path fill="#29353F" d="M49.903 48.37a.977.977 0 0 0-1.18.664l-1.5 5.23-1.502-5.23c-.123-.43-.53-.69-.964-.68-.438-.01-.843.25-.963.68l-1.505 5.23-1.502-5.23a.973.973 0 0 0-1.182-.664.915.915 0 0 0-.658 1.14l2.376 8.29c.12.43.53.688.966.675.433.014.844-.244.968-.675l1.5-5.233 1.5 5.233c.126.43.53.688.966.675.434.014.844-.244.964-.675l2.378-8.29a.913.913 0 0 0-.66-1.14zM64.184 48.37a.975.975 0 0 0-1.18.664l-1.497 5.23-1.504-5.23c-.125-.43-.53-.69-.964-.68-.436-.01-.847.25-.972.68l-1.5 5.23-1.5-5.23a.973.973 0 0 0-1.18-.664.92.92 0 0 0-.665 1.14l2.38 8.29c.126.43.53.688.965.675.434.014.845-.244.965-.675l1.506-5.233 1.5 5.233c.118.43.53.688.967.675.43.014.842-.244.966-.675l2.372-8.29a.912.912 0 0 0-.66-1.14zM78.083 48.37a.973.973 0 0 0-1.182.664l-1.504 5.23-1.5-5.23c-.125-.43-.53-.69-.97-.68-.434-.01-.84.25-.966.68l-1.5 5.23-1.5-5.23a.974.974 0 0 0-1.18-.664.917.917 0 0 0-.66 1.14l2.377 8.29c.124.43.53.688.964.675.436.014.845-.244.97-.675l1.496-5.233L74.43 57.8c.12.43.53.688.966.675.434.014.845-.244.965-.675l2.383-8.29a.916.916 0 0 0-.66-1.14z"/><path opacity=".4" d="M63.092 36.444l1.44-.027.797-3.352-2.788.014z"/><path fill="#29353F" d="M63.798 40.062v-12.61a.777.777 0 0 0-.77-.774h-7.982c-.42 0-.77.35-.77.774v12.61h9.522z"/><path opacity=".1" fill="#FFF" d="M63.308 27.634c0 .217-.18.39-.396.39H55.14a.392.392 0 0 1-.397-.39.4.4 0 0 1 .397-.403h7.772a.4.4 0 0 1 .396.404z"/><path opacity=".1" d="M80.552 33.065l-43.415 32.9h43.415a4.27 4.27 0 0 0 4.273-4.278V37.344c0-2.363-1.91-4.28-4.273-4.28z"/></g></g><path opacity=".3" d="M40.134 68.313l.01.01c.153.205.316.403.474.607.18.232.36.467.547.695.312.388.637.767.96 1.144l.028.03a42.93 42.93 0 0 0 7.838 7.04h30.476a35.63 35.63 0 0 0 5.335-5.06l.006-.003.044-.053c.29-.342.574-.69.852-1.04l.023-.03c.285-.36.563-.728.835-1.1.006-.008.012-.018.018-.024 0 0-.002 0-.002.003a35.23 35.23 0 0 0 1.182-1.74 35.142 35.142 0 0 0-66.632-22.37A35.142 35.142 0 0 0 92.46 61.057c.07-.203.14-.397.207-.605h-.004c.1-.312.186-.624.275-.938.04-.145.083-.286.122-.43a39.45 39.45 0 0 0 .6-2.594c.05-.253.093-.507.135-.76.05-.284.096-.567.137-.854.043-.297.08-.596.113-.896.03-.254.062-.507.088-.762.034-.358.06-.72.082-1.082.013-.203.032-.406.042-.61a35.315 35.315 0 0 0-1.675-12.62h.006c-.077-.23-.154-.46-.233-.69l-.005-.002a35.257 35.257 0 0 0-5.727-10.4s.004 0 .006.002a6.69 6.69 0 0 0-.074-.087 38.22 38.22 0 0 0-.675-.822l-.273-.315c-.206-.236-.412-.475-.625-.706l-.042-.048-.006-.004c-4.957-5.374-11.56-9.208-19.01-10.697 0-.003-.002-.003-.003-.003l-.166-.03c-.5-.097-1-.188-1.505-.264-.225-.033-.45-.056-.673-.085-.354-.047-.704-.098-1.06-.133-.345-.034-.693-.054-1.04-.078-.242-.02-.483-.042-.73-.055a35.713 35.713 0 0 0-1.797-.047c-.648 0-1.293.02-1.934.056-.092.006-.182.015-.274.022-.564.034-1.125.08-1.683.142-.043.004-.084.01-.127.016a35.192 35.192 0 0 0-17.923 7.415 42.516 42.516 0 0 0-5.34 20.674A42.556 42.556 0 0 0 40.14 68.31h-.004z"/><g><path fill="#76D9FC" d="M99.415 6.064A42.556 42.556 0 0 0 77.465 0c-23.62 0-42.77 19.148-42.77 42.77 0 14.516 7.23 27.338 18.288 35.07h46.433V6.064z"/><path fill-rule="evenodd" clip-rule="evenodd" fill="#00A936" d="M49.858 51.13a3.272 3.272 0 0 0-.778-.192c-.29-.035-.503-.044-.696 0-.584.172-.62.78.957 1.73.425.563 1.193 1.078 1.92.796.422-1.2-.457-1.93-1.4-2.255-.002-.08.006-.056-.002-.08zM56.47 39.017c.07.062.114.16.177.172h.09c.425.12.84-.312.517-.338-.13-.024-.375.01-.783.165zM66.377 35.283c-.676.113-.84.567.615 1.567.18-.05 1.43-.33.697.426 2.26-1.347-.158-2.198-1.313-1.993zM66.377 25.62c2.434-.988 2.995-7.398.097-7.21-.188 0-.376.093-.612.182 1.21 2.237-1.587 5.086.515 7.03zM94.322 30.932c.192-1.337-1.936-2.322-2.894-2.266-.558.038-.667.438.365 1.398-.963 2.278 1.606 2.4 2.53.868zM72.56 14.242c.7-.327 1.038-1.492 0-1.492-.19-.05-.33-.1-.52-.09-.187.007-.375.073-.51.09-2.054.41-1.43 3.812 1.03 1.492z"/><path fill-rule="evenodd" clip-rule="evenodd" fill="#00A936" d="M75.435 13.446c-2.97.375-5.968 3.244-3.205 6.083 1.978 2.47-2.857 7.512 1.733 8.806 1.82-4.073 6.803-7.302 5.57-12.27-.512-2.12-2.306-2.847-4.098-2.62z"/><path fill="#00A936" d="M45.61 58.846c1.82 2.282.945 4.91.807 7.407-.048.017.022.075.022.087-.095 1.514.144 2.957 1.423 4.257 1.943 2.506 4.66 4.56 6.37 7.243h24.63c1.54-3.915-5.144-6.77-8.555-5.582-4.398-2.92-7.58-7.393-12.537-9.57-4.03-3.912-13.12-1.48-12.955-8.882.42-3.514-2.4-5.21-4.518-6.863-1.628-5.438 8.29-7.438 8.437-1.482 3.267-.17 4.41-5.867 8.182-6.69 1.94-1.686 7.2.127 5.298-3.316 1.88-1.785 7.39-1.724 4.693-5.9C66.002 25.48 61 23.51 59.35 28.15c-4.532 1.215-2.704-8.618 1.907-7.308 3.343.194 2.888-2.713.86-3.646 0-.145-.044-.224-.17-.097-.372-.138-.76-.28-1.217-.26-4.52-2.497 4.523-8.865-1.468-10.88-6.575 5.614-16.602 14.45-20.615 22.707-1.813 5.178-1.51 10.39-1.3 15.834 1.84 5.272 5.42 9.62 8.264 14.346zM99.415 35.035V6.395A42.746 42.746 0 0 0 77.26.24c-1.16 0-2.338.07-3.486.166-.595.126-1.25.204-1.92.263-.23.024-.46.052-.685.09-2.402.338-4.696.758-6.95 1.47 5.88-.43 11.916-.276 17.222 2.356 1.4 4.504 9.794.087 9.39 5.12.065.073.19.188.264.273-.134.098.097 1.017.265.248 1.45 1.64 4.505 5.046 1.3 4.62-4.246-.58-3.143 7.786-.083 9.307 2.916 1.57 4.555-1.58 1.56-3.128-.406-3.925 6.54 2.41 3.476 4.51-.12.084-.222.182-.34.272.14-.564-.202-.034-.19.094-3.486 2.526-1.498 8.472-2.852 12.435-2.41 5.354 6.034 2.995 4.775-1.222-.41-1.02-.152-1.65.41-2.075zM99.415 40.665c-1.8 2.2-2.64 5.33-4.243 7.66-2.227 4.066-4.077 10.057-.077 13.655 1.393 1.338 2.86 1.763 4.32 1.646v-22.96z"/><g opacity=".2" fill="#010000"><path d="M36.773 29.59l-.025.08c.395-.02.745-.048.745-.08h-.72z"/><path d="M99.415 72.22c-3.032.57-6.368 1.014-9.925 1.314.06-.154.126-.303.184-.46 1.532-3.916 2.73-8.453 3.556-13.39 2.15-.085 4.218-.187 6.186-.304v-1.3c-1.903.115-3.9.216-5.972.3.725-4.74 1.11-9.826 1.14-15.053h4.832v-1.292h-4.833c-.034-5.272-.442-10.39-1.186-15.166 2.092.082 4.103.183 6.02.297V25.87a301.778 301.778 0 0 0-6.233-.306c-.825-4.82-2.007-9.264-3.51-13.104a39.88 39.88 0 0 0-.497-1.228c3.67.31 7.116.76 10.24 1.34v-1.318c-3.305-.604-6.957-1.068-10.84-1.368-1.856-3.99-4.015-6.894-6.35-8.573 6.46 1.094 12.364 4.325 17.188 9.078V8.628C95.473 4.983 90.89 2.285 85.9.837a42.736 42.736 0 0 0-17.77.198C62.015 2.963 56.52 6.76 52.123 11.888c-.347.082-.69.16-1.026.243-1.61.393-3.323.885-4.912 1.482a43.35 43.35 0 0 0-1.99 2.293c1.63-.85 3.856-1.657 6.58-2.36C47.8 17.41 45.4 21.916 43.75 26.89c-1.51.198-2.796.413-3.85.64-1.233.265-2.12.537-2.71.852-.126.336-.24.673-.346 1.012 1.21-.284 3.35-.697 6.475-1.142a50.428 50.428 0 0 0-2.098 13.787H34.72c-.01.242-.026.484-.026.734 0 .19.014.37.017.56h6.51a50.44 50.44 0 0 0 2.012 13.66c-5.043-.72-5.7-1.375-5.77-1.47.006.01.032.065.032.138h-.818c.124.388.26.773.392 1.155.594.336 1.514.63 2.833.91 1.036.222 2.287.434 3.756.63 1.525 4.7 3.72 8.993 6.442 12.73-3.03-.824-5.386-1.775-6.938-2.77.64.855 1.317 1.68 2.017 2.486 1.85.772 3.945 1.394 5.9 1.873.096.02.194.043.292.07a39.17 39.17 0 0 0 4.94 5.096h2.025a36.817 36.817 0 0 1-4.9-4.636c3.666.756 7.846 1.325 12.332 1.685.464 1.055.95 2.037 1.454 2.95h1.466a33.734 33.734 0 0 1-1.47-2.84c3.055.21 6.238.318 9.486.337v2.502h1.277v-2.503c3.255-.02 6.44-.132 9.492-.345A33.457 33.457 0 0 1 86 77.84h1.467a36.04 36.04 0 0 0 1.46-2.957c3.752-.305 7.285-.76 10.488-1.345V72.22zM72.46 1.315c-2.337 1.68-4.49 4.582-6.35 8.573-4.29.33-8.298.85-11.87 1.555 5.01-5.33 11.292-8.96 18.22-10.128zM52.805 13.06c3.73-.824 8.045-1.438 12.71-1.825-.176.4-.344.81-.507 1.228-1.496 3.84-2.676 8.274-3.505 13.098-4.75.178-9.113.45-12.873.786-1.248.117-2.407.238-3.475.364 1.788-5.146 4.408-9.78 7.65-13.65zM44.71 28.064c1.374-.168 3.01-.338 4.96-.51 3.442-.294 7.375-.523 11.62-.69-.743 4.775-1.152 9.894-1.188 15.172H42.494c.072-4.91.85-9.612 2.217-13.972zm-2.216 15.264h17.608c.027 5.233.42 10.313 1.14 15.06-4.222-.167-8.137-.397-11.573-.69-1.992-.177-3.654-.35-5.05-.526a49.047 49.047 0 0 1-2.126-13.844zM52.08 71.58c-2.97-3.76-5.367-8.174-7.024-13.05 1.098.135 2.288.255 3.577.37 3.742.345 8.09.61 12.823.793.825 4.934 2.023 9.465 3.55 13.38.064.158.13.312.19.47-4.846-.41-9.3-1.073-13.116-1.963zm24.62 2.46a145.2 145.2 0 0 1-10.073-.377 48.73 48.73 0 0 1-.432-1.072c-1.472-3.756-2.623-8.11-3.438-12.85 4.4.15 9.104.24 13.943.24v14.06zm0-15.36c-4.906 0-9.69-.088-14.158-.247-.735-4.742-1.14-9.844-1.163-15.104H76.7v15.35zm0-16.644H61.38c.034-5.303.448-10.446 1.21-15.222 4.455-.155 9.226-.244 14.11-.25v15.472zm0-16.768c-4.82.006-9.507.088-13.895.24.804-4.628 1.948-8.88 3.39-12.564.247-.636.5-1.238.76-1.823 3.127-.22 6.404-.342 9.746-.353v14.5zm0-15.802c-3.12.012-6.18.118-9.126.314 2.64-5.41 5.81-8.498 9.127-8.846v8.532zm1.28-8.53c3.323.347 6.493 3.436 9.13 8.845-2.942-.19-6.008-.302-9.13-.313V.935zm0 9.83c3.35.012 6.62.135 9.75.36.26.584.514 1.188.763 1.817 1.44 3.686 2.58 7.942 3.387 12.573-4.383-.156-9.072-.24-13.9-.25v-14.5zm0 15.8c4.895.01 9.666.098 14.12.258.758 4.77 1.168 9.91 1.206 15.212H77.98v-15.47zm0 16.762h15.326c-.022 5.255-.424 10.356-1.162 15.098-4.467.166-9.255.255-14.165.255V43.33zM88.49 72.59c-.145.366-.282.714-.43 1.06a142.58 142.58 0 0 1-10.084.39V59.98c4.846-.004 9.55-.09 13.95-.244-.81 4.737-1.966 9.09-3.436 12.855zM99.415 75.128a36.57 36.57 0 0 1-3.068 2.712h2.026c.354-.303.7-.616 1.042-.935v-1.777z"/></g></g><path opacity=".3" fill="#010000" d="M99.415 24.338H79.213v-6.79a.94.94 0 0 0-.933-.938h-9.655a.943.943 0 0 0-.933.938v6.79H46.96a5.176 5.176 0 0 0-5.177 5.176v29.45a5.174 5.174 0 0 0 5.177 5.177h52.455V24.34zm-31.723 8.46h-1.675a2.208 2.208 0 0 1-2.206-2.205c0-1.213.99-2.2 2.207-2.2h1.675v4.405zm12.727 0h-1.207v-4.39l.888-.017h.32a2.204 2.204 0 0 1 0 4.407z"/><g><path fill="#FF5148" d="M99.415 22.524H46.96a5.176 5.176 0 0 0-5.177 5.175v29.45a5.173 5.173 0 0 0 5.177 5.176h52.455V22.524zm-18.996 8.46H66.017a2.207 2.207 0 0 1-2.206-2.207c0-1.21.99-2.2 2.206-2.2h14.4a2.203 2.203 0 0 1 0 4.406z"/><path fill="#EFEFEF" d="M99.415 36.92a5.16 5.16 0 0 0-3.85-1.72H50.87a5.177 5.177 0 0 0-5.177 5.173v13.203a5.175 5.175 0 0 0 5.178 5.176h44.698c1.53 0 2.9-.666 3.85-1.72v-20.11z"/><path fill="#29353F" d="M62.404 41.04a1.18 1.18 0 0 0-1.43.802l-1.815 6.33-1.815-6.33c-.15-.52-.64-.835-1.167-.82-.53-.015-1.02.3-1.167.82l-1.818 6.33-1.815-6.33a1.176 1.176 0 0 0-1.43-.8c-.614.154-.97.776-.8 1.377l2.877 10.028c.146.52.643.833 1.168.815.524.018 1.02-.296 1.173-.815l1.813-6.332 1.815 6.332c.15.52.643.833 1.166.815.525.018 1.022-.296 1.167-.815l2.876-10.03a1.1 1.1 0 0 0-.8-1.377zM79.682 41.04a1.18 1.18 0 0 0-1.43.802l-1.81 6.33-1.82-6.33c-.15-.52-.643-.835-1.167-.82-.524-.015-1.02.3-1.172.82l-1.815 6.33-1.816-6.33a1.172 1.172 0 0 0-1.428-.8 1.112 1.112 0 0 0-.805 1.377l2.88 10.028c.15.52.644.833 1.168.815.525.018 1.02-.296 1.166-.815l1.82-6.332 1.815 6.332c.145.52.64.833 1.17.815.522.018 1.018-.296 1.17-.815l2.868-10.03c.18-.6-.182-1.222-.796-1.377zM96.494 41.04a1.174 1.174 0 0 0-1.43.802l-1.82 6.33-1.814-6.33c-.15-.52-.642-.835-1.173-.82-.524-.015-1.016.3-1.166.82l-1.814 6.33-1.814-6.33a1.177 1.177 0 0 0-1.43-.8c-.614.154-.972.776-.8 1.377l2.877 10.028c.15.52.64.833 1.166.815.524.018 1.022-.296 1.172-.815l1.81-6.332 1.82 6.332c.146.52.642.833 1.168.815.524.018 1.02-.296 1.166-.815l2.882-10.03a1.104 1.104 0 0 0-.8-1.377z"/><path opacity=".4" d="M78.357 26.61l1.744-.033.966-4.053-3.373.016z"/><path fill="#29353F" d="M79.213 30.986V15.734a.94.94 0 0 0-.933-.938h-9.655a.944.944 0 0 0-.933.938v15.252h11.52z"/><path opacity=".1" fill="#FFF" d="M78.62 15.95a.48.48 0 0 1-.48.476h-9.403a.475.475 0 0 1-.48-.475.48.48 0 0 1 .48-.484h9.403c.263 0 .48.218.48.485z"/><path opacity=".1" d="M99.415 22.575L46.96 62.325h52.455z"/></g></svg>