<svg xmlns="http://www.w3.org/2000/svg" width="83.701" height="60.583" viewBox="0 0 83.701 60.583"><path fill="#CE2121" d="M7.7 23.688l-2.832-4 11-6.5.666 8.166zM80.868 36.854l2.833 4-11 6.5-.665-8.166zM7.868 36.854l-2.834 4 11 6.5.667-8.166z"/><path fill="#76D9FC" d="M24.73 60.583h37.987c10.117-6.336 16.85-17.576 16.85-30.394 0-12.683-6.59-23.817-16.524-30.19H24.406c-9.938 6.373-16.53 17.508-16.53 30.19 0 12.816 6.735 24.057 16.854 30.393z"/><path fill="#00A936" d="M20.586 37.195a2.682 2.682 0 0 0-.653-.16c-.24-.03-.42-.04-.583 0-.49.144-.52.652.802 1.447.354.472 1 .904 1.607.668.353-1.006-.383-1.614-1.175-1.89 0-.065.008-.043 0-.065zM26.128 27.04c.058.054.095.138.147.146h.076c.357.104.703-.258.433-.283-.107-.018-.312.01-.655.138zM34.43 23.912c-.564.098-.704.476.517 1.314.15-.04 1.2-.277.584.357 1.895-1.13-.132-1.843-1.1-1.67zM34.43 15.816c2.04-.83 2.51-6.203.08-6.045-.155 0-.313.08-.513.153 1.016 1.876-1.328 4.264.434 5.893zM57.853 20.268c.16-1.12-1.623-1.947-2.426-1.9-.467.033-.56.367.307 1.172-.81 1.907 1.343 2.01 2.12.728zM39.612 6.278c.587-.274.87-1.25 0-1.25-.158-.042-.277-.083-.436-.075-.157.006-.314.062-.428.074-1.72.344-1.2 3.198.864 1.25z"/><path fill="#00A936" d="M42.02 5.61c-2.49.315-5 2.72-2.686 5.1 1.658 2.07-2.394 6.296 1.453 7.38 1.526-3.414 5.702-6.118 4.67-10.28-.43-1.78-1.935-2.39-3.436-2.2zM17.027 43.663c1.524 1.91.792 4.112.675 6.207-.04.014.02.062.02.07-.08 1.272.12 2.48 1.193 3.568 1.86 2.402 4.57 4.308 5.898 7.074h19.475c3.032-3.773-3.42-6.774-6.562-5.682-3.688-2.447-6.354-6.197-10.508-8.02-3.38-3.28-10.998-1.24-10.86-7.443.354-2.944-2.01-4.367-3.785-5.752-1.364-4.56 6.95-6.236 7.07-1.244 2.74-.143 3.698-4.915 6.857-5.604 1.628-1.414 6.034.105 4.44-2.78 1.575-1.497 6.193-1.446 3.934-4.948-.758-3.413-4.953-5.06-6.334-1.176-3.798 1.02-2.266-7.22 1.598-6.123 2.802.162 2.42-2.274.724-3.058 0-.12-.037-.187-.145-.08-.31-.115-.636-.234-1.02-.217-3.38-1.867 2.288-6.318-.023-8.455h-1.98C22.2 4.72 14.405 11.76 11.193 18.367c-1.52 4.338-1.265 8.707-1.088 13.27 1.54 4.42 4.538 8.065 6.923 12.026zM79.6 26.533c-2.05 1.12-5.693-5.043-1.966-2.11.73-.053 1.188-.263 1.53-.577-.43-2.245-1.012-4.422-1.83-6.498-.367-.436-.72-.842-1.02-1.088.024-.45-.02-.88-.074-1.312-.02-.02.02-.055 0-.078A36.258 36.258 0 0 0 62.845 0h-13.13c2.44.418 5.693-.427 5.46 2.475.055.062.16.158.22.23-.11.08.083.85.225.205 1.215 1.377 3.774 4.23 1.09 3.873-3.562-.486-2.636 6.527-.07 7.8 2.443 1.315 3.816-1.324 1.307-2.62-.34-3.29 5.48 2.02 2.913 3.778-.103.07-.187.154-.285.23.117-.474-.168-.028-.16.077-2.92 2.117-1.255 7.1-2.39 10.42-2.02 4.49 5.06 2.512 4.003-1.023-1.297-3.25 5.385-1.768 3.938-4.078 4.052 2.148 3.668-3.623 1.976-5.55.79-3.085 2.873.36 1.89 2.042.158 1.59 1.528 1.955 2.63 2.41.048.036.105.04.214.068.96.458 1.54 1.047.5 2.853-1.19 4.012-5.225 4.232-8.52 3.49-3.336 1.383-3.956 5.434-5.836 8.162-1.867 3.41-3.418 8.43-.066 11.447 3.206 3.08 6.893.404 9.552-1.678 5.097-.666 5.564 5.34 3.056 8.396-.026.14-.047.246-.067.363 5.31-6.253 8.528-14.335 8.528-23.182 0-.99-.068-1.96-.146-2.93-.033-.24-.05-.483-.078-.725z"/><g opacity=".2" fill="#010000"><path d="M9.62 19.14l-.022.07c.332-.02.625-.04.625-.07H9.62zM73.997 49.36h-.038c0 .032-.01.06-.013.087a.553.553 0 0 0 .05-.086z"/><path d="M13.345 30.656a42.2 42.2 0 0 0 1.687 11.447c-4.227-.6-4.78-1.15-4.834-1.23a.26.26 0 0 1 .025.116h-.686c.104.323.217.645.328.966.497.28 1.27.527 2.375.765.868.187 1.916.36 3.147.527 1.278 3.94 3.117 7.537 5.398 10.67-2.538-.692-4.513-1.487-5.814-2.32a37.49 37.49 0 0 0 1.69 2.083c1.55.647 3.31 1.166 4.945 1.57.082.02.164.036.245.06 1.617 2 3.435 3.76 5.398 5.273h1.803a30.614 30.614 0 0 1-5.47-4.887c3.075.633 6.578 1.107 10.338 1.41a28.76 28.76 0 0 0 1.808 3.477h1.26a25.623 25.623 0 0 1-1.853-3.385c2.562.178 5.23.27 7.95.283v3.103h1.07V57.48c2.73-.013 5.397-.108 7.958-.286a26.114 26.114 0 0 1-1.855 3.39h1.263a28.852 28.852 0 0 0 1.812-3.48c3.763-.308 7.27-.79 10.345-1.43a30.507 30.507 0 0 1-5.486 4.91h1.8a32.304 32.304 0 0 0 5.418-5.298 2.29 2.29 0 0 1 .158-.037c1.795-.44 3.735-1.023 5.39-1.765a39.74 39.74 0 0 0 1.797-2.277c-1.24.96-3.396 1.894-6.278 2.687 2.274-3.133 4.114-6.73 5.39-10.662a45.617 45.617 0 0 0 3.003-.512c1.542-.33 2.44-.68 2.837-1.118.07-.205.14-.402.208-.61h-1.03c0-.062.02-.11.03-.115-.062.076-.6.614-4.695 1.21a42.3 42.3 0 0 0 1.682-11.43h5.46V29.57H73.9a42.223 42.223 0 0 0-1.752-11.527c4.138.598 4.68 1.14 4.737 1.215-.01-.01-.034-.052-.034-.117h.98l-.235-.694c-.433-.398-1.31-.723-2.753-1.032a38.774 38.774 0 0 0-3.056-.514c-1.378-4.165-3.39-7.952-5.893-11.192 2.51.646 4.514 1.4 5.896 2.192a38.675 38.675 0 0 0-1.714-2.006c-1.434-.565-3.01-1.022-4.49-1.384-.27-.07-.546-.13-.818-.195A32.256 32.256 0 0 0 60.278 0h-1.813a30.282 30.282 0 0 1 4.52 3.938c-2.99-.587-6.353-1.032-9.95-1.31A28.512 28.512 0 0 0 51.646 0h-1.268c.493.77.974 1.602 1.43 2.54-2.466-.16-5.034-.255-7.65-.264V0h-1.07v2.276c-2.616.01-5.18.097-7.65.263.455-.938.936-1.77 1.43-2.54H35.6c-.483.803-.95 1.674-1.395 2.63-3.594.276-6.954.71-9.945 1.302A30.433 30.433 0 0 1 28.778 0h-1.822a32.122 32.122 0 0 0-4.47 4.306c-.29.07-.58.134-.86.204-1.35.327-2.786.74-4.117 1.24-.58.62-1.137 1.264-1.67 1.922 1.367-.714 3.232-1.39 5.516-1.977-2.497 3.236-4.506 7.016-5.89 11.18a41.058 41.058 0 0 0-3.226.538c-1.034.224-1.777.45-2.27.714-.105.28-.202.564-.29.848 1.013-.238 2.807-.585 5.426-.956a42.25 42.25 0 0 0-1.758 11.55h-5.45c-.007.206-.02.41-.02.62 0 .156.01.31.013.467h5.455zM64.808 54.31c-3.192.757-6.937 1.315-11.007 1.663.05-.13.107-.254.157-.39 1.283-3.28 2.29-7.08 2.98-11.22 3.913-.154 7.505-.374 10.61-.654 1.134-.105 2.18-.216 3.137-.327-1.384 4.082-3.388 7.776-5.876 10.926zm6.247-12.072c-1.202.154-2.643.308-4.38.46-2.842.235-6.078.432-9.56.573.605-3.973.93-8.232.953-12.614h14.757a41.138 41.138 0 0 1-1.77 11.582zm1.768-12.668H58.068c-.028-4.416-.37-8.706-.993-12.71 3.495.14 6.734.333 9.574.575 1.715.148 3.14.303 4.327.45a41.177 41.177 0 0 1 1.846 11.685zm-8.63-24.273c2.72 3.247 4.913 7.133 6.41 11.45-.942-.116-1.97-.22-3.085-.326-3.104-.276-6.705-.498-10.623-.65-.69-4.04-1.682-7.764-2.938-10.982-.134-.348-.275-.69-.418-1.03 3.907.33 7.523.843 10.652 1.54zm-20.04-1.933c2.81.01 5.55.112 8.175.303.218.49.43.995.637 1.522 1.208 3.09 2.163 6.656 2.84 10.536-3.674-.13-7.604-.2-11.65-.21V3.365zm0 13.243c4.104.01 8.104.084 11.836.217.632 3.998.978 8.305 1.01 12.746H44.154V16.607zm0 14.05H57c-.02 4.403-.356 8.678-.974 12.65-3.745.142-7.756.216-11.872.216V30.656zm0 13.956c4.063-.004 8.005-.075 11.692-.204-.68 3.968-1.647 7.617-2.88 10.77a38.4 38.4 0 0 1-.36.89 118.97 118.97 0 0 1-8.45.325V44.613zm-21.705 9.72c-2.488-3.15-4.498-6.85-5.887-10.935.92.11 1.92.213 2.998.312 3.137.285 6.782.508 10.748.66.69 4.137 1.695 7.934 2.977 11.215.054.135.11.264.16.395-4.064-.345-7.798-.9-10.995-1.647zm20.635 2.062c-2.9-.01-5.734-.117-8.443-.316a31.6 31.6 0 0 1-.36-.898c-1.234-3.147-2.2-6.8-2.883-10.77 3.688.126 7.632.202 11.688.202l-.002 11.78zm0-12.872c-4.112 0-8.123-.074-11.867-.21-.617-3.975-.955-8.25-.976-12.657h12.843v12.867zm0-13.953H30.24c.032-4.44.378-8.752 1.018-12.755 3.732-.13 7.73-.204 11.826-.208V29.57zM34.28 5.19a30.96 30.96 0 0 1 .635-1.528c2.62-.186 5.367-.29 8.168-.298v12.153c-4.04.006-7.968.074-11.646.205.674-3.88 1.632-7.443 2.842-10.533zm-11.225.098c3.127-.692 6.743-1.204 10.652-1.53a27.2 27.2 0 0 0-.425 1.03c-1.253 3.218-2.242 6.933-2.938 10.976-3.98.148-7.64.376-10.79.657-1.044.1-2.016.2-2.91.307 1.5-4.312 3.695-8.198 6.41-11.44zm-6.783 12.574a129.7 129.7 0 0 1 4.155-.427c2.886-.246 6.184-.438 9.74-.578-.623 4.002-.965 8.293-.995 12.713H14.414c.06-4.11.713-8.052 1.858-11.708zm12.9 12.794c.02 4.388.35 8.644.956 12.623-3.54-.142-6.82-.337-9.7-.58-1.67-.15-3.063-.296-4.232-.44a41.12 41.12 0 0 1-1.78-11.604H29.17z"/></g><path opacity=".2" d="M7.876 30.19c0 4.777.945 9.33 2.645 13.497h66.406a35.76 35.76 0 0 0 .773-2.082c0-.002.002-.003.003-.004.07-.204.14-.4.208-.61h-.003c.1-.315.188-.636.28-.954.04-.146.08-.29.122-.434a36.29 36.29 0 0 0 .41-1.682 31.78 31.78 0 0 0 .334-1.72c.05-.288.1-.575.14-.866.044-.3.08-.604.116-.907.03-.257.062-.515.088-.772.034-.36.06-.73.082-1.095.014-.207.032-.414.043-.622a35.8 35.8 0 0 0-.754-9.25H8.673a35.933 35.933 0 0 0-.797 7.5z"/><path fill="#FC3A3A" d="M4.868 19.688H83.7v21H4.87z"/><g fill="#FFF"><path d="M9.98 34.95c0-.767.645-1.412 1.413-1.412s1.413.646 1.413 1.413-.645 1.413-1.413 1.413-1.413-.645-1.413-1.412zM21.35 36.17l-2.284-4.133h-1.814v4.134h-2.477V24.54h5.442c2.424 0 3.907 1.586 3.907 3.75 0 2.057-1.29 3.155-2.546 3.452l2.616 4.43H21.35zm.245-7.88c0-.98-.75-1.57-1.744-1.57h-2.598v3.14h2.6c.994-.002 1.743-.595 1.743-1.57zM25.988 31.532V24.54H28.5v6.905c0 1.622.942 2.738 2.738 2.738s2.72-1.116 2.72-2.738V24.54h2.53v6.976c0 2.895-1.71 4.865-5.25 4.865s-5.25-1.988-5.25-4.848zM47.717 35.16l1.1-1.9c.627.593 1.29.906 2.32.906 1.917 0 2.91-1.604 2.91-3.278v-.262c-.558.784-1.726 1.5-3 1.5-2.092 0-3.976-1.31-3.976-3.785 0-2.267 1.815-3.993 4.466-3.993 3.523 0 5.006 2.72 5.006 6.018 0 3.506-1.97 6-5.406 6-1.413-.002-2.6-.473-3.42-1.205zm6.313-6.244c-.104-1.115-.732-2.37-2.37-2.37-1.327 0-2.06.905-2.06 1.708 0 1.22 1.064 1.744 2.145 1.744.873 0 1.727-.402 2.285-1.082zM58.32 35.16l1.097-1.9c.63.593 1.29.906 2.32.906 1.918 0 2.912-1.604 2.912-3.278v-.262c-.56.784-1.728 1.5-3 1.5-2.093 0-3.977-1.31-3.977-3.785 0-2.267 1.813-3.993 4.465-3.993 3.522 0 5.005 2.72 5.005 6.018 0 3.506-1.97 6-5.406 6-1.412-.002-2.598-.473-3.418-1.205zm6.312-6.244c-.104-1.115-.732-2.37-2.37-2.37-1.327 0-2.06.905-2.06 1.708 0 1.22 1.064 1.744 2.146 1.744.872 0 1.726-.402 2.284-1.082zM71.277 31.05h3.587c2.06 0 3.45-1.07 3.45-3.223 0-2.062-1.39-3.1-3.42-3.1H70.24v5.43h-1.12v.867h1.12v.745h-1.12v.865h1.12v3.125h1.038v-3.125h6.355v-.865h-6.355v-.72zm0-5.423h3.403c1.56 0 2.596.696 2.596 2.277 0 1.643-1.205 2.264-2.7 2.264h-3.298v-4.54z"/><circle cx="41.855" cy="29.973" r="1.849"/></g><g><path fill="#FCD22E" d="M8.975 13.682A10.685 10.685 0 0 1 3.4 19.614a10.69 10.69 0 0 1 5.575 5.933 10.69 10.69 0 0 1 5.578-5.933 10.685 10.685 0 0 1-5.578-5.932z"/><path fill="#FD7600" d="M8.975 16.625a5.388 5.388 0 0 1-2.81 2.988 5.372 5.372 0 0 1 2.81 2.988 5.377 5.377 0 0 1 2.807-2.987 5.39 5.39 0 0 1-2.807-2.988z"/><path fill="#FCD22E" d="M13.41 9.475a5.223 5.223 0 0 1-2.725 2.9 5.226 5.226 0 0 1 2.726 2.898 5.217 5.217 0 0 1 2.724-2.9 5.21 5.21 0 0 1-2.723-2.898z"/><path fill="#FD7600" d="M13.41 10.913a2.646 2.646 0 0 1-1.373 1.46 2.63 2.63 0 0 1 1.374 1.462 2.616 2.616 0 0 1 1.374-1.46 2.625 2.625 0 0 1-1.373-1.462z"/><g><path fill="#FCD22E" d="M3.932 7.79A7.554 7.554 0 0 1 0 11.978a7.533 7.533 0 0 1 3.932 4.185 7.54 7.54 0 0 1 3.938-4.185A7.55 7.55 0 0 1 3.932 7.79z"/><path fill="#FD7600" d="M3.932 9.867a3.793 3.793 0 0 1-1.98 2.11 3.765 3.765 0 0 1 1.98 2.105 3.79 3.79 0 0 1 1.98-2.106 3.813 3.813 0 0 1-1.98-2.11z"/></g></g></svg>