<svg xmlns="http://www.w3.org/2000/svg" xmlns:xlink="http://www.w3.org/1999/xlink" width="320" height="120" viewBox="0 0 320 120">
  <defs>
    <clipPath id="a">
      <rect width="320" height="120" fill="none"/>
    </clipPath>
  </defs>
  <g clip-path="url(#a)">
    <g>
      <path d="M137.536,107.317a4.447,4.447,0,0,1,4.134-4.679h0a4.4,4.4,0,0,1,4.133,4.645l.111,25.806a4.445,4.445,0,0,1-4.135,4.676h0a4.39,4.39,0,0,1-4.128-4.642Z" fill="#ffd27c"/>
      <path d="M128.452,99.031a4.445,4.445,0,0,1,4.132-4.68h0A4.4,4.4,0,0,1,136.717,99l.2,34.13a4.443,4.443,0,0,1-4.133,4.677h0a4.4,4.4,0,0,1-4.131-4.644Z" fill="#ffd27c"/>
      <path d="M80.175,107.314a4.444,4.444,0,0,0-4.133-4.679h0a4.4,4.4,0,0,0-4.133,4.645L71.8,133.087a4.443,4.443,0,0,0,4.132,4.677h0a4.39,4.39,0,0,0,4.129-4.642Z" fill="#ffd27c"/>
      <path d="M89.261,99.03a4.447,4.447,0,0,0-4.132-4.681h0A4.4,4.4,0,0,0,81,98.994l-.206,34.13a4.443,4.443,0,0,0,4.133,4.677h0a4.4,4.4,0,0,0,4.133-4.644Z" fill="#ffd27c"/>
      <g>
        <path d="M181.934,81.912A72.671,72.671,0,1,1,109.273,9.237,72.667,72.667,0,0,1,181.934,81.912Z" fill="#76d9fc"/>
        <path d="M62.359,96.112a5.674,5.674,0,0,0-1.324-.327,3.507,3.507,0,0,0-1.183,0c-.989.291-1.056,1.324,1.627,2.94.72.956,2.025,1.83,3.26,1.352.718-2.038-.774-3.278-2.381-3.832C62.359,96.112,62.373,96.152,62.359,96.112Z" fill="#00a936"/>
        <path d="M73.6,75.528c.117.106.192.273.3.291h.152c.724.205,1.428-.525.879-.573A2.94,2.94,0,0,0,73.6,75.528Z" fill="#00a936"/>
        <path d="M90.428,69.185c-1.151.195-1.427.963,1.046,2.663.306-.083,2.433-.563,1.185.724C96.5,70.282,92.389,68.835,90.428,69.185Z" fill="#00a936"/>
        <path d="M90.429,52.769c4.136-1.681,5.09-12.574.165-12.254a3.273,3.273,0,0,0-1.043.31C91.613,44.627,86.857,49.465,90.429,52.769Z" fill="#00a936"/>
        <path d="M137.91,61.795c.328-2.272-3.287-3.945-4.916-3.851-.948.066-1.133.744.619,2.377C131.976,64.189,136.342,64.4,137.91,61.795Z" fill="#00a936"/>
        <path d="M100.932,33.436c1.194-.557,1.766-2.536,0-2.536a2.618,2.618,0,0,0-.88-.151,8.181,8.181,0,0,0-.871.151C95.693,31.6,96.754,37.378,100.932,33.436Z" fill="#00a936"/>
        <path d="M105.82,32.083c-5.049.638-10.141,5.513-5.447,10.339,3.362,4.2-4.855,12.762,2.943,14.961,3.094-6.923,11.561-12.405,9.467-20.846C111.91,32.936,108.862,31.7,105.82,32.083Z" fill="#00a936"/>
        <path d="M97.106,132.012c-7.473-4.966-12.883-12.564-21.3-16.264-6.849-6.649-22.3-2.516-22.015-15.091.715-5.97-4.079-8.855-7.675-11.661-2.767-9.241,14.091-12.64,14.333-2.518,5.551-.29,7.5-9.971,13.9-11.369,3.3-2.864,12.232.216,9-5.634,3.193-3.034,12.56-2.931,7.978-10.03-1.536-6.92-10.042-10.264-12.84-2.384-7.7,2.064-4.6-14.641,3.239-12.415,5.681.329,4.908-4.61,1.466-6.2,0-.243-.076-.377-.291-.161a5.072,5.072,0,0,0-2.067-.44c-7.68-4.245,7.686-15.062-2.493-18.49C67.175,28.9,50.137,43.911,43.315,57.939c-3.081,8.8-2.566,17.655-2.208,26.9,3.127,8.958,9.2,16.347,14.038,24.378,3.094,3.877,1.606,8.339,1.369,12.584-.082.028.038.13.038.149a8.749,8.749,0,0,0,2.418,7.231c3.783,4.881,9.29,8.75,11.977,14.376a72.04,72.04,0,0,0,19.841,8.556c.77-.349,2.333-.807,7.946-1.344v-.152c0-1.678,7.762-4.137,11.6-6.976C116.708,135.939,103.511,129.778,97.106,132.012Z" fill="#00a936"/>
        <path d="M164.64,128.908a72.342,72.342,0,0,0,17.294-47c0-2-.138-3.971-.3-5.936-.051-.49-.088-.985-.144-1.473-4.153,2.272-11.538-10.229-3.984-4.284a4.812,4.812,0,0,0,3.1-1.164A73.569,73.569,0,0,0,176.9,55.879a18.358,18.358,0,0,0-2.064-2.205,14.6,14.6,0,0,0-.148-2.657c-.036-.047.044-.113,0-.16A73.119,73.119,0,0,0,108.924,9.64c-1.972,0-3.976.12-5.926.281a28.078,28.078,0,0,1-3.263.451c-.389.038-.778.085-1.165.151a71.837,71.837,0,0,0-11.808,2.5c9.991-.732,20.25-.469,29.259,4,2.381,7.652,16.64.148,15.955,8.7.111.123.328.32.449.463-.226.167.165,1.726.452.421,2.464,2.79,7.65,8.575,2.206,7.851-7.217-.987-5.34,13.229-.141,15.813,4.953,2.666,7.738-2.685,2.649-5.316-.687-6.667,11.112,4.1,5.905,7.663-.208.142-.377.31-.578.459.239-.956-.343-.055-.324.162-5.921,4.29-2.545,14.394-4.846,21.127-4.1,9.1,10.253,5.088,8.114-2.075-2.626-6.592,10.916-3.587,7.987-8.273,8.212,4.357,7.437-7.342,4.006-11.249,1.6-6.254,5.821.732,3.825,4.14.324,3.223,3.1,3.964,5.332,4.884a1.215,1.215,0,0,0,.437.14c1.949.931,3.117,2.123,1.015,5.785-2.413,8.133-10.593,8.582-17.278,7.078-6.761,2.8-8.018,11.016-11.834,16.547-3.784,6.911-6.93,17.09-.136,23.2,6.5,6.244,13.977.826,19.367-3.4,10.334-1.343,11.281,10.827,6.2,17.023C164.724,128.459,164.682,128.674,164.64,128.908Z" fill="#00a936"/>
        <g opacity="0.2">
          <path d="M40.129,59.508c-.02.058-.033.095-.046.14a4.871,4.871,0,0,0,1.267-.14Z" fill="#010000"/>
          <path d="M176.487,103.807a.373.373,0,0,1,.061-.232c-.122.159-1.214,1.248-9.517,2.459a85.733,85.733,0,0,0,3.405-23.174h11.071v-2.2H170.435a85.553,85.553,0,0,0-3.547-23.374c8.389,1.212,9.488,2.311,9.6,2.461a.347.347,0,0,1-.066-.235h1.983c-.156-.469-.314-.939-.48-1.409-.874-.808-2.653-1.466-5.581-2.095-1.711-.365-3.78-.724-6.194-1.041a76.416,76.416,0,0,0-11.943-22.69,49.994,49.994,0,0,1,11.953,4.444c-1.113-1.39-2.258-2.749-3.474-4.068a72.418,72.418,0,0,0-9.1-2.808c-.549-.141-1.107-.262-1.661-.393a59.477,59.477,0,0,0-28.33-18.8,72.771,72.771,0,0,0-30.193.338,59.758,59.758,0,0,0-27.2,18.44c-.587.138-1.172.27-1.742.411a73.736,73.736,0,0,0-8.349,2.518c-1.173,1.257-2.3,2.563-3.385,3.9a53.938,53.938,0,0,1,11.185-4.01A76.65,76.65,0,0,0,51.982,54.917c-2.565.337-4.752.7-6.541,1.087a18.744,18.744,0,0,0-4.606,1.446c-.212.572-.4,1.145-.587,1.719,2.058-.481,5.69-1.184,11.005-1.936a85.656,85.656,0,0,0-3.57,23.422H36.635c-.014.412-.042.826-.042,1.249,0,.319.023.627.028.947H47.679a85.866,85.866,0,0,0,3.416,23.215c-8.564-1.222-9.686-2.34-9.8-2.5a.458.458,0,0,1,.057.232h-1.39c.21.658.437,1.314.665,1.965a17.864,17.864,0,0,0,4.814,1.548q2.64.564,6.38,1.071A77.171,77.171,0,0,0,62.761,130.01a44.3,44.3,0,0,1-11.789-4.7c1.088,1.454,2.238,2.854,3.427,4.226a69.57,69.57,0,0,0,10.023,3.181c.165.039.334.075.5.122a60.365,60.365,0,0,0,28.339,19.948,72.651,72.651,0,0,0,30.268.387c11.494-3.334,21.74-10.526,29.695-20.378.1-.027.215-.055.322-.074a65.991,65.991,0,0,0,10.927-3.577c1.266-1.492,2.488-3.033,3.643-4.618-2.512,1.953-6.889,3.838-12.73,5.444a77.453,77.453,0,0,0,10.928-21.615c2.359-.329,4.4-.677,6.09-1.033,3.126-.674,4.949-1.378,5.75-2.27.137-.415.282-.818.42-1.242ZM100.769,11.47c-3.973,2.854-7.634,7.785-10.795,14.565a175.059,175.059,0,0,0-20.161,2.64C78.321,19.622,88.995,13.453,100.769,11.47Zm-33.4,19.955a164.884,164.884,0,0,1,21.593-3.1q-.445,1.017-.86,2.086a116,116,0,0,0-5.953,22.254c-8.071.3-15.49.761-21.876,1.333q-3.178.3-5.9.616A73.9,73.9,0,0,1,67.367,31.425ZM53.615,56.918c2.333-.283,5.111-.573,8.423-.864,5.848-.5,12.535-.89,19.745-1.174a176.3,176.3,0,0,0-2.018,25.777H49.847A83.626,83.626,0,0,1,53.615,56.918ZM49.847,82.853H79.766A177.221,177.221,0,0,0,81.7,108.443c-7.176-.283-13.828-.678-19.663-1.175-3.385-.3-6.211-.593-8.584-.893A83.268,83.268,0,0,1,49.847,82.853ZM54.2,108.685c1.864.227,3.888.433,6.076.63,6.36.582,13.751,1.033,21.789,1.344a115.477,115.477,0,0,0,6.032,22.734c.11.27.222.534.323.8a158.74,158.74,0,0,1-22.288-3.335A74.3,74.3,0,0,1,54.2,108.685Zm14.231,24.934a173.6,173.6,0,0,0,20.959,2.863c3.276,7.446,7.156,12.818,11.375,15.861C88.339,150.239,77.142,143.5,68.429,133.619Zm39.539,19.363c-5.9-.62-11.517-6.329-16.124-16.312,5.194.357,10.6.544,16.124.572Zm0-17.945c-5.878-.019-11.629-.236-17.118-.639-.248-.591-.5-1.2-.733-1.822a112.831,112.831,0,0,1-5.843-21.833c7.475.255,15.47.407,23.695.407Zm0-26.1c-8.338,0-16.47-.151-24.061-.423a174.459,174.459,0,0,1-1.976-25.664h26.038Zm0-28.282H81.934A172.6,172.6,0,0,1,84,54.8c7.57-.263,15.673-.413,23.977-.422Zm0-28.49c-8.2.009-16.159.148-23.611.41a111.261,111.261,0,0,1,5.76-21.353c.415-1.081.848-2.1,1.289-3.1,5.314-.375,10.883-.581,16.562-.6Zm0-26.847c-5.3.017-10.506.2-15.512.534,4.488-9.192,9.874-14.443,15.513-15.032Zm60.286,55.339H138.35a175.65,175.65,0,0,0-2.013-25.769c7.086.283,13.655.675,19.409,1.166,3.479.3,6.367.612,8.776.91A83.4,83.4,0,0,1,168.261,80.662Zm-4.5-26c-1.911-.238-3.991-.443-6.254-.659-6.292-.564-13.591-1.017-21.532-1.326a115.38,115.38,0,0,0-5.961-22.263c-.273-.706-.555-1.4-.847-2.086a164.883,164.883,0,0,1,21.6,3.12A73.65,73.65,0,0,1,163.762,54.661ZM148.32,28.693a176.386,176.386,0,0,0-20.17-2.657c-3.155-6.781-6.821-11.712-10.793-14.566C129.136,13.464,139.821,19.634,148.32,28.693Zm-38.174-17.87c5.647.591,11.031,5.842,15.512,15.034-5-.329-10.207-.517-15.512-.536Zm0,16.7c5.69.02,11.249.227,16.568.613.442.994.869,2.018,1.291,3.087a111.84,111.84,0,0,1,5.756,21.362c-7.447-.262-15.415-.4-23.616-.421Zm0,26.847c8.314.019,16.423.169,23.992.441a173.607,173.607,0,0,1,2.047,25.844h-26.04Zm0,28.481h26.04a172.91,172.91,0,0,1-1.975,25.653c-7.591.282-15.724.431-24.066.431Zm0,28.294c8.23-.008,16.226-.152,23.7-.414A113.148,113.148,0,0,1,128,132.578c-.245.619-.48,1.212-.732,1.8-5.484.415-11.24.63-17.128.657Zm0,26.092c5.531-.027,10.94-.224,16.127-.581-4.606,9.994-10.227,15.7-16.128,16.321Zm7.21,15.1c4.216-3.043,8.1-8.414,11.39-15.869a173.484,173.484,0,0,0,20.969-2.892C141,143.481,129.783,150.241,117.35,152.344Zm34.66-21.532a156.322,156.322,0,0,1-22.315,3.372c.1-.265.216-.518.316-.788a115.191,115.191,0,0,0,6.042-22.745c7.931-.317,15.217-.759,21.51-1.331,2.3-.209,4.422-.433,6.361-.657A74.068,74.068,0,0,1,152.011,130.812Zm12.665-24.47c-2.433.313-5.358.621-8.88.931-5.759.477-12.318.872-19.382,1.163a176.543,176.543,0,0,0,1.936-25.579h29.918A83.651,83.651,0,0,1,164.675,106.342Z" fill="#010000"/>
        </g>
      </g>
      <path d="M52.04,128.664c7.312,9.649,19.162,21.056,30.327,26.085,0,0,30.035-48.434,41.018-63.12,10.254-13.712,43.931-52.662,43.931-52.662A83.628,83.628,0,0,0,135.67,16.83Z" fill="#010000" opacity="0.2" style="isolation: isolate"/>
      <path d="M51.312,125.749a72.918,72.918,0,0,0,28.141,22.441L164.4,34.594a72.787,72.787,0,0,0-29.458-20.679Z" fill="#ffdd03"/>
      <path d="M51.312,125.749,164.4,34.594a72.787,72.787,0,0,0-29.458-20.679Z" fill="#fff" opacity="0.1" style="isolation: isolate"/>
      <path d="M158.744,42.16l5.658-7.565a72.787,72.787,0,0,0-29.458-20.679l-7.109,9.506A82.511,82.511,0,0,1,158.744,42.16Z" fill="#fff" opacity="0.3" style="isolation: isolate"/>
      <path d="M170.329,42.528a72.9,72.9,0,0,1,1.909,16.6c0,1.042-.027,2.077-.071,3.108,0,.119-.008.238-.014.356-.047,1-.117,1.987-.2,2.973-.012.128-.022.257-.034.385q-.14,1.508-.342,3l-.029.205a72.683,72.683,0,0,1-68.332,62.549l-.2.007c-.533.025-1.068.047-1.605.06q-.917.023-1.839.023c-.675,0-1.347-.011-2.017-.029l-.216-.009a72.572,72.572,0,0,1-56.055-29.228l0-.006h0c-.966-1.294-1.879-2.628-2.758-3.987a72.356,72.356,0,0,0,12.453,26.768h0l0,.006a72.571,72.571,0,0,0,56.055,29.228c.072,0,.143.007.216.008.67.018,1.342.029,2.017.029q.923,0,1.838-.023c.538-.014,1.072-.035,1.606-.06l.2-.007a72.682,72.682,0,0,0,68.331-62.549l.029-.205q.2-1.49.342-3c.012-.128.022-.257.034-.385q.13-1.479.2-2.973c0-.118.009-.238.013-.356.044-1.031.072-2.066.072-3.108A72.288,72.288,0,0,0,170.329,42.528Z" fill="#010000" opacity="0.2" style="isolation: isolate"/>
      <ellipse cx="149.343" cy="20.23" rx="1.078" ry="2.177" transform="translate(71.249 149.125) rotate(-66.503)" fill="#fff" opacity="0.1" style="isolation: isolate"/>
      <g>
        <path d="M88.609,118.882a3.145,3.145,0,1,1,4.4-.67A3.182,3.182,0,0,1,88.609,118.882Z" fill="#00b05a"/>
        <path d="M88.778,107.387a9.511,9.511,0,0,1-2.016-13.829,8.73,8.73,0,0,1,7.116-3.968l.529,4.391a4.548,4.548,0,0,0-3.974,1.992c-1.773,2.409-1.266,5.386,1.36,7.32s5.652,1.556,7.425-.852a4.742,4.742,0,0,0,.722-4.386l4.32-.821c.67,2.037.633,4.9-1.645,8A9.523,9.523,0,0,1,88.778,107.387Z" fill="#00b05a"/>
        <path d="M100.264,91.789a9.922,9.922,0,1,1,13.814-2.125A9.5,9.5,0,0,1,100.264,91.789Zm8.728-11.851c-2.347-1.728-5.414-1.816-7.232.654s-.8,5.341,1.544,7.068c2.378,1.75,5.421,1.87,7.24-.6S111.369,81.689,108.992,79.938Z" fill="#00b05a"/>
        <path d="M135.55,59.72,126.012,52.7c-1.406-1.035-2.866-1.147-4.063.479a4.972,4.972,0,0,0-.551,4.416L131.59,65.1l-2.947,4L119.1,62.076c-1.405-1.035-2.865-1.145-4.063.479a5.033,5.033,0,0,0-.522,4.437l10.163,7.484-2.924,3.971-15.1-11.121,2.924-3.971,1.969,1.45a8.2,8.2,0,0,1,1.293-6.666c1.635-2.22,3.7-2.867,5.836-2.163a7.959,7.959,0,0,1,1.072-7.217c2.049-2.782,4.739-3.357,7.833-1.079L138.5,55.718Z" fill="#00b05a"/>
      </g>
    </g>
    <g>
      <path d="M170.436,64.455s4.82,9.575,8.228,14.582c3.408,5.055,8.812,1.75,8.812,1.75l4.041-20.269Z" fill="#a02016"/>
      <g>
        <path d="M310.847,69.79a68.546,68.546,0,1,1-88.306-39.965A68.409,68.409,0,0,1,310.847,69.79Z" fill="#74d7fa"/>
        <path d="M213.062,100.1c.139.054.261.177.358.159l.136-.052c.707-.057,1.086-.935.585-.795A2.746,2.746,0,0,0,213.062,100.1Z" fill="#0ea736" fill-rule="evenodd"/>
        <path d="M225.817,88.921c-.95.555-.939,1.324,1.809,2,.243-.177,1.963-1.3,1.286.244C231.542,87.875,227.435,87.963,225.817,88.921Z" fill="#0ea736" fill-rule="evenodd"/>
        <path d="M220.364,74.45c3.095-2.854.318-12.773-3.925-10.857a3.111,3.111,0,0,0-.818.619C218.705,66.879,216.113,72.721,220.364,74.45Z" fill="#0ea736" fill-rule="evenodd"/>
        <path d="M265.288,66.658c-.465-2.112-4.212-2.386-5.619-1.763-.815.372-.752,1.03,1.337,1.888C260.844,70.737,264.769,69.471,265.288,66.658Z" fill="#0ea736" fill-rule="evenodd"/>
        <path d="M223.216,53.922c.868-.885.716-2.821-.842-2.235a2.465,2.465,0,0,0-.826.159,7.384,7.384,0,0,0-.72.422C217.978,54.037,220.836,58.784,223.216,53.922Z" fill="#0ea736" fill-rule="evenodd"/>
        <path d="M227.083,51.109c-4.246,2.236-7.123,8.222-1.376,10.92,4.364,2.584-.046,12.86,7.569,12.211.433-7.127,6.087-14.769,1.435-21.516C232.743,49.842,229.64,49.76,227.083,51.109Z" fill="#0ea736" fill-rule="evenodd"/>
        <path d="M252.587,142.092c-8.25-1.9-15.549-6.8-24.211-7.273-8.257-3.589-20.524,5.176-24.453-6-1.354-5.5-6.544-6.451-10.652-7.735-5.513-7.229,8.242-15.816,11.82-6.973,4.8-2.1,3.305-11.277,8.5-14.635,1.961-3.62,10.871-3.865,6.076-7.952,1.811-3.734,10.116-6.748,3.711-11.488-3.655-5.591-12.277-5.717-12.13,2.158-6.113,4.374-8.921-11.382-1.263-12.017,5.125-1.594,2.8-5.692-.765-5.95-.081-.214-.191-.307-.31-.045a4.789,4.789,0,0,0-1.971.3c-8.192-1.195,1.782-15.828-8.345-15.472-6.694,12.115-16.75,31-18.113,45.631.2,8.777,3.6,16.413,6.987,24.448,5.737,6.86,13.557,11.36,20.494,16.833,4.021,2.393,4.189,6.819,5.391,10.64-.064.052.077.1.083.119a8.241,8.241,0,0,0,4.538,5.573c4.962,3.048,11.111,4.633,15.352,8.7a68.007,68.007,0,0,0,20.361.962c.565-.562,1.794-1.486,6.573-3.82l-.05-.134c-.557-1.479,5.479-6.223,7.922-10C271.2,139.051,257.5,138,252.587,142.092Z" fill="#0ea736"/>
        <path d="M311.19,116.955a68.027,68.027,0,0,0-.343-47.165c-.664-1.764-1.443-3.456-2.237-5.133-.208-.415-.406-.84-.617-1.251-2.911,3.379-13.584-5.19-4.939-2.455a4.55,4.55,0,0,0,2.353-2.055,69.389,69.389,0,0,0-7.656-10.384,17.261,17.261,0,0,0-2.556-1.26,13.779,13.779,0,0,0-1.012-2.293c-.048-.029,0-.114-.053-.14A69.07,69.07,0,0,0,222.367,30.3c-1.741.654-3.47,1.425-5.138,2.213a26.756,26.756,0,0,1-2.73,1.48c-.331.162-.662.332-.979.518a67.8,67.8,0,0,0-9.6,6.118c8.58-3.957,17.726-7.13,27.166-6.176,4.644,5.957,14.744-5.387,16.979,2.382.141.07.4.171.553.257-.144.224.718,1.467.537.223,3.1,1.642,9.606,5.022,4.557,6.189-6.7,1.524-.319,13.434,5.129,13.987,5.26.707,5.941-4.934.574-5.565-2.823-5.649,11.172-.075,7.76,4.8-.136.194-.23.4-.358.6-.107-.924-.321.063-.232.248-3.8,5.747,2.535,13.534,2.739,20.233-.6,9.38,10.746,1.086,6.476-4.521-4.508-4.941,8.447-6.782,4.3-9.942,8.7,1.118,4.128-8.939-.2-11.245-.664-6.044,5.384-1.285,4.754,2.382,1.356,2.732,4.057,2.465,6.331,2.536a1.142,1.142,0,0,0,.433-.021c2.03.173,3.457.837,2.816,4.763.572,7.97-6.5,11.078-12.9,11.971-5.04,4.711-3.422,12.371-4.951,18.512-1.046,7.347-.442,17.362,7.588,20.5,7.815,3.349,12.616-3.906,15.972-9.417,8.679-4.612,13.558,5.8,11.127,12.952C311.116,116.53,311.15,116.734,311.19,116.955Z" fill="#0ea736"/>
        <g opacity="0.2">
          <path d="M178.189,97.074c0,.056,0,.094.006.138a4.517,4.517,0,0,0,1.072-.543Z" fill="#010000"/>
          <path d="M313.79,107.8l-.07.028a1.006,1.006,0,0,1,.035.156A1.488,1.488,0,0,0,313.79,107.8Z" fill="#010000"/>
          <path d="M313.312,90.9a.362.362,0,0,1-.025-.225c-.054.181-.657,1.5-7.586,5.324a80.77,80.77,0,0,0-4.693-21.558l9.776-3.672-.731-1.937L300.278,72.5a80.576,80.576,0,0,0-10.9-19.429c7.812-1.713,9.147-1.109,9.3-1.015a.334.334,0,0,1-.137-.185l1.75-.657q-.44-.545-.89-1.083c-1.039-.423-2.83-.412-5.625.005-1.631.244-3.577.615-5.815,1.135A72.053,72.053,0,0,0,269.88,35.233a47.139,47.139,0,0,1,12.031-.048c-1.445-.855-2.907-1.676-4.419-2.433a68.282,68.282,0,0,0-8.967.543c-.531.06-1.065.137-1.6.2a56.193,56.193,0,0,0-31.262-7.177,68.775,68.775,0,0,0-26.55,10.313,56.277,56.277,0,0,0-17.887,25.276c-.471.317-.944.628-1.4.94a69.919,69.919,0,0,0-6.536,4.989c-.618,1.5-1.182,3.024-1.695,4.557a50.951,50.951,0,0,1,8.544-7.244A72.084,72.084,0,0,0,187.129,89.1c-2.153,1.148-3.963,2.2-5.415,3.129a17.6,17.6,0,0,0-3.586,2.8c0,.574.023,1.144.052,1.709,1.657-1.1,4.63-2.931,9.074-5.358a80.554,80.554,0,0,0,4.629,21.831l-9.755,3.664c.125.368.238.743.379,1.116.106.281.229.545.34.825l9.763-3.666a80.835,80.835,0,0,0,10.73,19.33c-7.968,1.764-9.329,1.151-9.487,1.049a.423.423,0,0,1,.128.187l-1.226.46c.4.51.822,1.015,1.241,1.512a16.923,16.923,0,0,0,4.764-.232q2.517-.379,5.989-1.172A72.728,72.728,0,0,0,221.6,151.718a41.785,41.785,0,0,1-11.974-.237c1.444.922,2.925,1.774,4.43,2.59a65.909,65.909,0,0,0,9.908-.52c.158-.02.32-.044.48-.056a57.031,57.031,0,0,0,31.651,8.184,68.627,68.627,0,0,0,26.856-9.7c9.043-6.752,15.7-16.491,19.449-27.813.082-.059.174-.121.262-.172a62.082,62.082,0,0,0,8.458-6.779c.625-1.735,1.191-3.5,1.683-5.278-1.57,2.553-4.806,5.668-9.431,9.021a72.858,72.858,0,0,0,2.468-22.679c1.974-1.072,3.66-2.055,5.034-2.931,2.536-1.631,3.911-2.857,4.323-3.91-.016-.41-.022-.813-.043-1.233ZM215.774,34.614c-2.56,3.834-4.154,9.394-4.694,16.419a165.63,165.63,0,0,0-16.924,9.013C198.66,49.245,206.035,40.266,215.774,34.614ZM192.909,63.283a155.93,155.93,0,0,1,18.038-9.894c-.037.7-.059,1.4-.066,2.124a109.1,109.1,0,0,0,2.136,21.593c-7.027,2.941-13.425,5.808-18.875,8.43q-2.7,1.315-5,2.5A69.467,69.467,0,0,1,192.909,63.283Zm-3.674,27.034c1.966-1.022,4.325-2.2,7.151-3.555,5-2.379,10.773-4.943,17.047-7.583a165.777,165.777,0,0,0,6.781,23.392l-26.419,9.922A78.639,78.639,0,0,1,189.235,90.317Zm5.29,24.113,26.419-9.922a166.976,166.976,0,0,0,10.212,21.915c-6.429,2.13-12.434,3.988-17.752,5.486-3.089.859-5.683,1.538-7.876,2.06A78.5,78.5,0,0,1,194.525,114.431ZM206.95,135.76q2.581-.629,5.575-1.46c5.81-1.6,12.486-3.65,19.687-6.042a108.735,108.735,0,0,0,12.88,18.041c.187.2.372.4.55.6a149.758,149.758,0,0,1-20.788,4.452A70.033,70.033,0,0,1,206.95,135.76Zm20.85,17.259a164.289,164.289,0,0,0,19.458-4.426c5.367,5.477,10.577,8.926,15.314,10.209C250.9,161.067,238.774,158.837,227.8,153.018Zm41.347,3.954c-5.413,1.411-12.272-1.759-19.656-9.032,4.7-1.407,9.543-3.036,14.427-4.841Zm-5.962-15.818c-5.2,1.933-10.346,3.65-15.327,5.114-.415-.438-.838-.9-1.253-1.363A106.283,106.283,0,0,1,234.192,127.6c6.685-2.255,13.8-4.773,21.059-7.5Zm-8.668-23.006c-7.361,2.766-14.594,5.331-21.387,7.608a164.237,164.237,0,0,1-10.27-21.968l22.991-8.635Zm-9.394-24.933-22.992,8.636a162.235,162.235,0,0,1-6.773-23.481c6.6-2.743,13.7-5.562,21.033-8.325ZM235.657,68.1c-7.235,2.727-14.22,5.491-20.712,8.194a104.572,104.572,0,0,1-2.008-20.734c.007-1.09.05-2.135.108-3.159,4.569-2.093,9.417-4.123,14.426-6.023Zm-8.918-23.667c-4.678,1.775-9.213,3.658-13.52,5.616.91-9.593,3.922-16.007,8.7-18.4Zm71.62,28.787-26.412,9.92a165.608,165.608,0,0,0-10.34-22.046c6.35-2.1,12.283-3.933,17.526-5.41,3.173-.889,5.827-1.573,8.051-2.108A78.485,78.485,0,0,1,298.359,73.221ZM285.747,51.794c-1.767.425-3.672.933-5.741,1.494-5.743,1.59-12.339,3.613-19.453,5.973a108.726,108.726,0,0,0-12.661-17.649q-.711-.8-1.441-1.558a156.125,156.125,0,0,1,20.108-4.414A69.509,69.509,0,0,1,285.747,51.794ZM263.484,34.025a166.263,166.263,0,0,0-18.693,4.347c-5.039-4.931-9.913-8.061-14.37-9.261C241.485,26.961,252.969,28.857,263.484,34.025Zm-39.645-3.091c5.184-1.352,11.682,1.49,18.692,8.108-4.525,1.368-9.185,2.929-13.876,4.673Zm5.549,14.726c5.032-1.87,10.009-3.531,14.834-4.956.719.731,1.437,1.492,2.167,2.3a105.357,105.357,0,0,1,12.178,16.922c-6.662,2.239-13.746,4.757-20.993,7.461Zm8.919,23.666c7.347-2.741,14.556-5.3,21.331-7.568a163.493,163.493,0,0,1,10.393,22.1L247.038,92.5Zm9.46,25.108L270.761,85.8a162.644,162.644,0,0,1,6.781,23.268c-6.611,2.767-13.742,5.6-21.108,8.363Zm9.4,24.942c7.265-2.737,14.278-5.516,20.79-8.225a106.445,106.445,0,0,1,2.1,21.191c-.011.627-.021,1.226-.048,1.833-4.705,2.183-9.716,4.281-14.906,6.259Zm8.668,23c4.874-1.859,9.586-3.826,14.047-5.862-.747,10.337-3.814,17.233-8.818,19.736Zm11.383,10.92c2.713-4.082,4.356-10.1,4.786-17.767a163.737,163.737,0,0,0,17.556-9.505C295.158,137.643,287.5,147.323,277.218,153.3Zm23.453-30.477A147.508,147.508,0,0,1,282.085,133.2c0-.266.019-.526.018-.8a108.373,108.373,0,0,0-2.222-22.053c6.9-2.911,13.184-5.717,18.551-8.308,1.963-.946,3.761-1.848,5.4-2.69A69.658,69.658,0,0,1,300.671,122.823Zm3.051-25.772c-2.044,1.083-4.525,2.324-7.53,3.766-4.928,2.331-10.586,4.855-16.728,7.453a166.351,166.351,0,0,0-6.788-23.19l26.417-9.922A78.524,78.524,0,0,1,303.723,97.05Z" fill="#010000"/>
        </g>
      </g>
      <g>
        <path d="M313.872,117.343c-10.76-10.936-35.644-37.189-35.644-37.189L266.154,96.1s25.353,23.075,41.712,38.483Z" fill="#fff"/>
        <path d="M307.866,134.581c-16.5-15.554-39.959-41.351-39.959-41.351l-12.074,15.943s19.377,20.706,40.021,39.128Z" fill="#0039a6"/>
        <path d="M257.585,106.839l-12.074,15.943s17.11,17.831,37.169,35.912l8.3-5.394,4.871-5C273.993,129.49,257.585,106.839,257.585,106.839Z" fill="#d52b1e"/>
        <polygon points="245.559 122.782 259.24 137.121 283.146 85.404 274.187 76.898 245.559 122.782" opacity="0.2" style="isolation: isolate"/>
        <polygon points="245.511 122.831 259.727 129.441 268.54 111.457 258.169 104.215 245.511 122.831" fill="#8c0000"/>
        <path d="M227.5,106.451a359.7,359.7,0,0,1,32.572,23.136l5.112-10.5Z" fill="#fff" opacity="0.1" style="isolation: isolate"/>
        <path d="M208.509,24.6a79.993,79.993,0,0,0-17.771,11.908c34.422,18.567,84.326,62.41,84.326,62.41l8.764-17.984S239.863,45.013,208.509,24.6Z" fill="#fff"/>
        <path d="M267.566,114.227l8.764-17.984s-52.436-42.773-83.6-61.486A80.445,80.445,0,0,0,179.2,49.1C210.8,63.921,235.627,88.078,267.566,114.227Z" fill="#0039a6"/>
        <path d="M170.436,64.455c34.227,16.526,89.243,65.569,89.243,65.569l8.764-17.984s-57.694-47.779-87.88-64.646A80.133,80.133,0,0,0,170.436,64.455Z" fill="#d52b1e"/>
        <path d="M205,26.446c-16.748,8.312-29.407,26.1-34.568,38.01,35.2,19.539,56.818,38.5,56.818,38.5Z" fill="#fff" opacity="0.1" style="isolation: isolate"/>
      </g>
    </g>
    <ellipse cx="98.663" cy="127.375" rx="56.382" ry="10.209" opacity="0.1"/>
    <g>
      <ellipse cx="67.332" cy="94.283" rx="59.045" ry="59.161" opacity="0.2"/>
      <ellipse cx="59.044" cy="90.352" rx="59.045" ry="59.161" fill="#ff3e3e"/>
      <g>
        <path d="M16.224,102.939,21.109,96.8a14.855,14.855,0,0,0,10.946,4.523c4.886,0,7.669-2.788,7.669-6.135,0-3.655-2.722-6.134-7.422-6.134a11.825,11.825,0,0,0-8.658,3.346l-6.122-1.611V67.062H45.847v7.745H26.3v10.1a13.067,13.067,0,0,1,9.091-3.47A12.906,12.906,0,0,1,48.63,94.822c0,8.8-6.556,14.313-16.513,14.313C24.943,109.136,19.749,106.781,16.224,102.939Z" fill="#fff"/>
        <path d="M52.9,87.758c0-10.658,5.257-21.316,17.069-21.316,11.75,0,17.068,10.658,17.068,21.316s-5.318,21.378-17.068,21.378C58.156,109.136,52.9,98.416,52.9,87.758Zm25.171,0c0-7.622-2.227-13.509-8.1-13.509-5.937,0-8.164,5.887-8.164,13.509s2.227,13.57,8.164,13.57C75.844,101.328,78.07,95.38,78.07,87.758Z" fill="#fff"/>
        <path d="M89.914,93.286a5.02,5.02,0,0,1,10.04,0,5.022,5.022,0,0,1-10.04,0Zm7.345,0a2.349,2.349,0,1,0-2.34,2.553A2.347,2.347,0,0,0,97.259,93.286Zm-4.265,15.106L105.61,88.6h2.251l-12.646,19.8Zm7.789-4.541a5.022,5.022,0,1,1,5,4.9A4.765,4.765,0,0,1,100.783,103.852Zm7.375,0a2.371,2.371,0,1,0-4.71,0,2.365,2.365,0,1,0,4.71,0Z" fill="#fff"/>
      </g>
    </g>
    <g>
      <g>
        <path d="M87.4,35.882A19.774,19.774,0,0,1,77.082,46.858,19.761,19.761,0,0,1,87.4,57.832,19.776,19.776,0,0,1,97.715,46.858,19.788,19.788,0,0,1,87.4,35.882Z" fill="#fcd22e"/>
        <path d="M87.4,41.329a9.966,9.966,0,0,1-5.2,5.529,9.912,9.912,0,0,1,5.2,5.527,9.935,9.935,0,0,1,5.2-5.527A9.989,9.989,0,0,1,87.4,41.329Z" fill="#fd7600"/>
      </g>
      <g>
        <path d="M95.6,28.1a9.676,9.676,0,0,1-5.041,5.367A9.656,9.656,0,0,1,95.6,38.828a9.644,9.644,0,0,1,5.041-5.363A9.664,9.664,0,0,1,95.6,28.1Z" fill="#fcd22e"/>
        <path d="M95.6,30.759a4.886,4.886,0,0,1-2.544,2.706,4.846,4.846,0,0,1,2.544,2.7,4.839,4.839,0,0,1,2.538-2.7A4.88,4.88,0,0,1,95.6,30.759Z" fill="#fd7600"/>
      </g>
      <g>
        <path d="M78.07,24.984a13.961,13.961,0,0,1-7.279,7.743A13.953,13.953,0,0,1,78.07,40.47a13.935,13.935,0,0,1,7.278-7.743A13.942,13.942,0,0,1,78.07,24.984Z" fill="#fcd22e"/>
        <path d="M78.07,28.828a7.05,7.05,0,0,1-3.67,3.9,7.012,7.012,0,0,1,3.67,3.9,7.007,7.007,0,0,1,3.664-3.9A7.045,7.045,0,0,1,78.07,28.828Z" fill="#fd7600"/>
      </g>
    </g>
    <polygon points="192 92 172 92 172 72 164 72 164 92 143 92 143 101 164 101 164 118 172 118 172 101 192 101 192 92" opacity="0.2"/>
    <polygon points="187 85 167 85 167 65 159 65 159 85 138 85 138 94 159 94 159 111 167 111 167 94 187 94 187 85" fill="#ff3e3e"/>
  </g>
</svg>
