<svg xmlns="http://www.w3.org/2000/svg" width="82.804" height="60.583" viewBox="0 0 82.804 60.583"><path fill="#CE2121" d="M79.97 36.854l2.834 4-11 6.5-.666-8.166zM6.97 36.854l-2.833 4 11 6.5.667-8.166z"/><path fill="#76D9FC" d="M23.833 60.583H61.82c10.117-6.336 16.85-17.576 16.85-30.394 0-12.682-6.59-23.817-16.526-30.19H23.51C13.57 6.373 6.98 17.508 6.98 30.19c0 12.817 6.734 24.057 16.853 30.393z"/><path fill-rule="evenodd" clip-rule="evenodd" fill="#00A936" d="M19.69 37.195a2.733 2.733 0 0 0-.654-.162c-.24-.03-.42-.04-.583 0-.49.145-.52.654.802 1.45.355.47 1 .903 1.608.667.354-1.006-.382-1.615-1.174-1.89 0-.065.006-.043 0-.065zM25.23 27.04c.06.054.096.138.148.146h.076c.356.104.702-.258.432-.283-.107-.018-.312.01-.655.138zM33.534 23.912c-.566.098-.705.476.515 1.314.15-.04 1.198-.277.583.357 1.895-1.13-.132-1.843-1.1-1.67zM33.534 15.816c2.04-.83 2.51-6.203.08-6.045-.156 0-.315.08-.514.153 1.016 1.876-1.328 4.264.434 5.893zM56.955 20.268c.16-1.12-1.622-1.947-2.425-1.9-.467.033-.56.367.306 1.172-.81 1.907 1.344 2.01 2.12.728zM38.715 6.278c.587-.274.87-1.25 0-1.25-.158-.042-.277-.083-.435-.075-.157.006-.315.062-.428.074-1.72.344-1.2 3.198.863 1.25z"/><path fill-rule="evenodd" clip-rule="evenodd" fill="#00A936" d="M41.125 5.61c-2.49.315-5 2.72-2.687 5.1 1.658 2.07-2.394 6.296 1.453 7.38 1.527-3.414 5.703-6.118 4.67-10.28-.43-1.78-1.934-2.39-3.435-2.2z"/><path fill="#00A936" d="M16.13 43.662c1.525 1.912.792 4.113.675 6.207-.04.013.02.06.02.07-.08 1.27.12 2.48 1.193 3.57 1.86 2.4 4.57 4.306 5.898 7.072H43.39c3.033-3.773-3.418-6.774-6.56-5.68-3.69-2.448-6.355-6.198-10.51-8.022-3.378-3.28-10.997-1.24-10.858-7.443.353-2.945-2.012-4.367-3.786-5.752-1.364-4.56 6.95-6.236 7.07-1.244 2.74-.142 3.698-4.915 6.857-5.604 1.628-1.414 6.034.105 4.44-2.78 1.575-1.497 6.193-1.446 3.934-4.948-.758-3.413-4.953-5.06-6.334-1.176-3.798 1.02-2.266-7.22 1.598-6.123 2.803.162 2.422-2.274.724-3.058 0-.12-.037-.187-.144-.08-.31-.115-.636-.234-1.02-.217C25.42 6.588 31.09 2.137 28.778 0h-1.98c-5.495 4.72-13.29 11.76-16.503 18.367-1.52 4.338-1.265 8.707-1.088 13.27 1.54 4.42 4.54 8.064 6.924 12.025zM78.702 26.533c-2.048 1.12-5.693-5.043-1.965-2.11.728-.053 1.187-.263 1.53-.577-.43-2.245-1.012-4.422-1.83-6.498-.367-.436-.72-.842-1.02-1.088.025-.45-.02-.88-.074-1.31-.018-.023.02-.056 0-.08A36.255 36.255 0 0 0 61.948 0h-13.13c2.438.418 5.693-.427 5.46 2.475.054.062.16.158.22.23-.11.08.082.85.224.205 1.215 1.377 3.774 4.23 1.09 3.873-3.56-.486-2.636 6.527-.07 7.8 2.443 1.315 3.816-1.324 1.306-2.62-.34-3.29 5.482 2.02 2.913 3.778-.1.07-.185.154-.284.23.118-.474-.168-.028-.16.077-2.92 2.117-1.255 7.1-2.39 10.42-2.02 4.49 5.06 2.512 4.003-1.023-1.297-3.25 5.384-1.768 3.938-4.078 4.052 2.148 3.668-3.623 1.975-5.55.79-3.085 2.873.36 1.89 2.042.158 1.59 1.528 1.955 2.63 2.41.048.036.105.04.214.068.96.458 1.54 1.047.5 2.853-1.19 4.012-5.225 4.232-8.52 3.49-3.337 1.383-3.957 5.434-5.837 8.162-1.867 3.41-3.418 8.43-.066 11.447 3.206 3.08 6.892.405 9.552-1.677 5.097-.666 5.564 5.34 3.056 8.395l-.068.363c5.31-6.253 8.528-14.335 8.528-23.18 0-.99-.068-1.962-.146-2.93-.03-.242-.047-.485-.074-.727z"/><g opacity=".2" fill="#010000"><path d="M8.723 19.14l-.023.07c.332-.02.625-.04.625-.07h-.602zM73.1 49.36h-.038c0 .032-.008.06-.012.087.018-.027.037-.054.05-.086z"/><path d="M12.448 30.656c.04 4.004.633 7.854 1.686 11.447-4.226-.6-4.78-1.152-4.834-1.23a.25.25 0 0 1 .026.116H8.64c.104.323.217.645.328.966.497.28 1.27.527 2.375.764.868.186 1.916.36 3.148.527 1.28 3.94 3.118 7.537 5.4 10.67-2.54-.693-4.514-1.488-5.815-2.322.536.72 1.104 1.406 1.69 2.084 1.548.647 3.308 1.165 4.944 1.57.08.02.163.036.244.06 1.617 2 3.435 3.76 5.398 5.272h1.803a30.5 30.5 0 0 1-5.47-4.886c3.074.633 6.577 1.107 10.337 1.41a28.593 28.593 0 0 0 1.808 3.476h1.26a25.788 25.788 0 0 1-1.853-3.384c2.56.178 5.23.27 7.95.283v3.102h1.07v-3.1c2.73-.015 5.398-.11 7.958-.288a25.914 25.914 0 0 1-1.856 3.388h1.26a28.635 28.635 0 0 0 1.813-3.48c3.763-.306 7.27-.788 10.345-1.427a30.507 30.507 0 0 1-5.487 4.907h1.803a32.26 32.26 0 0 0 5.417-5.296c.05-.014.106-.027.158-.037 1.795-.44 3.736-1.024 5.39-1.765a39.74 39.74 0 0 0 1.797-2.277c-1.24.96-3.396 1.893-6.278 2.686 2.274-3.133 4.114-6.73 5.388-10.662a45.617 45.617 0 0 0 3.004-.512c1.54-.332 2.44-.68 2.836-1.12.07-.204.14-.4.208-.61h-1.03c0-.06.02-.11.03-.115-.062.076-.6.615-4.695 1.21A42.292 42.292 0 0 0 73 30.656h5.46V29.57H73a42.146 42.146 0 0 0-1.752-11.527c4.138.598 4.68 1.14 4.738 1.215-.01-.01-.034-.052-.034-.117h.98l-.236-.694c-.433-.398-1.31-.723-2.753-1.032a38.774 38.774 0 0 0-3.056-.514c-1.378-4.165-3.39-7.952-5.892-11.192 2.51.646 4.513 1.4 5.896 2.192a38.675 38.675 0 0 0-1.712-2.006c-1.434-.565-3.01-1.022-4.49-1.384-.27-.07-.546-.13-.818-.195A32.194 32.194 0 0 0 59.382 0h-1.814a30.282 30.282 0 0 1 4.52 3.938c-2.99-.587-6.353-1.032-9.95-1.31A28.27 28.27 0 0 0 50.747 0H49.48c.493.77.973 1.602 1.43 2.54a125.16 125.16 0 0 0-7.652-.264V0h-1.07v2.276c-2.615.01-5.18.097-7.65.263.456-.938.937-1.77 1.43-2.54h-1.265c-.483.803-.95 1.674-1.395 2.63-3.594.276-6.954.71-9.945 1.302A30.426 30.426 0 0 1 27.88 0h-1.822a32.122 32.122 0 0 0-4.47 4.306c-.29.07-.58.134-.86.204-1.35.327-2.786.74-4.117 1.24-.578.62-1.135 1.264-1.668 1.922 1.367-.714 3.232-1.39 5.516-1.977-2.497 3.236-4.506 7.016-5.89 11.18a41.058 41.058 0 0 0-3.226.538c-1.034.224-1.777.45-2.27.714-.105.28-.202.564-.29.848 1.013-.238 2.806-.585 5.426-.956a42.25 42.25 0 0 0-1.758 11.55H7c-.007.206-.02.41-.02.62 0 .156.01.31.013.467h5.455zM63.91 54.31c-3.192.757-6.936 1.315-11.006 1.663.05-.13.106-.254.156-.39 1.283-3.28 2.29-7.08 2.98-11.218 3.913-.156 7.505-.375 10.61-.656 1.135-.105 2.18-.216 3.137-.327-1.384 4.082-3.388 7.775-5.876 10.926zm6.248-12.072a114.52 114.52 0 0 1-4.38.46c-2.842.235-6.078.43-9.56.573.606-3.972.93-8.233.953-12.614H71.93a41.144 41.144 0 0 1-1.77 11.582zm1.768-12.668H57.17c-.027-4.416-.37-8.706-.992-12.71 3.495.14 6.734.333 9.574.575 1.716.148 3.142.303 4.33.45a41.212 41.212 0 0 1 1.844 11.685zm-8.63-24.273c2.72 3.247 4.913 7.133 6.41 11.45-.942-.116-1.97-.22-3.085-.326-3.103-.276-6.704-.498-10.62-.65-.692-4.04-1.683-7.764-2.94-10.982-.134-.348-.275-.69-.418-1.03 3.908.33 7.525.843 10.653 1.54zm-20.04-1.933c2.81.01 5.55.112 8.175.303.22.49.43.995.638 1.522 1.208 3.09 2.163 6.656 2.84 10.536-3.674-.13-7.604-.2-11.65-.21V3.365zm0 13.243c4.104.01 8.104.084 11.836.217.633 3.998.98 8.305 1.01 12.746H43.258V16.607zm0 14.05h12.847c-.02 4.403-.356 8.677-.974 12.65-3.746.142-7.757.216-11.873.216V30.656zm0 13.956c4.063-.004 8.005-.076 11.693-.205-.682 3.97-1.65 7.62-2.882 10.77-.12.308-.236.6-.36.892-2.705.205-5.545.31-8.45.324v-11.78zm-21.705 9.72c-2.487-3.15-4.497-6.85-5.886-10.935.92.11 1.918.213 2.997.31 3.138.286 6.783.51 10.75.66.69 4.138 1.694 7.935 2.975 11.216.054.135.11.264.16.395-4.063-.345-7.797-.902-10.994-1.648zm20.637 2.062c-2.9-.01-5.734-.117-8.443-.316a33.55 33.55 0 0 1-.36-.9c-1.235-3.147-2.2-6.798-2.884-10.767 3.688.125 7.632.2 11.688.2v11.782zm0-12.872c-4.112 0-8.123-.074-11.867-.21-.617-3.974-.955-8.25-.976-12.657h12.843v12.867zm0-13.953H29.344c.03-4.44.377-8.752 1.017-12.755 3.733-.13 7.73-.204 11.827-.208V29.57zM33.382 5.19a30.96 30.96 0 0 1 .636-1.528c2.62-.186 5.367-.29 8.168-.298v12.153c-4.04.006-7.968.074-11.646.205.674-3.88 1.632-7.443 2.842-10.533zm-11.224.098c3.127-.692 6.743-1.204 10.652-1.53a27.2 27.2 0 0 0-.425 1.03c-1.253 3.218-2.242 6.933-2.937 10.976-3.98.148-7.64.376-10.79.657-1.044.1-2.016.2-2.91.307 1.498-4.312 3.694-8.198 6.41-11.44zm-6.783 12.574a129.7 129.7 0 0 1 4.155-.427c2.886-.246 6.183-.438 9.74-.578-.623 4.002-.965 8.293-.995 12.713H13.517c.06-4.11.713-8.052 1.858-11.708zm12.9 12.794c.02 4.387.35 8.643.956 12.623-3.54-.142-6.82-.337-9.7-.58-1.668-.15-3.062-.296-4.232-.442a41.118 41.118 0 0 1-1.78-11.602h14.756z"/></g><circle opacity=".2" cx="42.949" cy="30.291" r="23.667"/><circle fill="#1973F7" cx="42.949" cy="30.291" r="21.167"/><path opacity=".2" d="M6.98 30.19c0 4.777.944 9.33 2.644 13.497H76.03a35.49 35.49 0 0 0 .772-2.082c0-.002.003-.003.004-.004.07-.204.14-.4.208-.61h-.004c.1-.315.188-.636.28-.955l.122-.433a37.06 37.06 0 0 0 .746-3.402c.048-.287.097-.575.138-.865.044-.3.08-.604.116-.908.03-.257.063-.514.088-.772.035-.362.06-.73.083-1.095.013-.207.032-.414.042-.622a35.8 35.8 0 0 0-.754-9.25H7.775a35.933 35.933 0 0 0-.797 7.5z"/><path fill="#FC3A3A" d="M3.97 19.688h78.834v21H3.97z"/><g fill="#FFF"><path d="M26.587 35.325c0-.85.713-1.562 1.56-1.562s1.562.713 1.562 1.562c0 .848-.714 1.56-1.562 1.56s-1.56-.712-1.56-1.56zM31.888 36.674V23.82H37.9c2.795 0 4.318 1.888 4.318 4.143 0 2.235-1.542 4.144-4.317 4.144h-3.275v4.567h-2.737zm7.535-8.71c0-1.08-.81-1.735-1.89-1.735h-2.91v3.468h2.91c1.08 0 1.89-.676 1.89-1.735zM49.506 36.674v-1.29c-3.893-.33-6.206-2.16-6.206-5.128 0-2.948 2.312-4.78 6.206-5.126v-1.31h2.736v1.31c3.893.347 6.206 2.158 6.206 5.126 0 2.97-2.312 4.8-6.206 5.127v1.29h-2.736zm0-3.738v-5.358c-2.216.27-3.392 1.233-3.392 2.68 0 1.463 1.176 2.407 3.392 2.678zm2.736-5.36v5.36c2.216-.252 3.41-1.216 3.41-2.68 0-1.464-1.194-2.408-3.41-2.68z"/></g><g><path fill="#FCD22E" d="M17.062 13.99a20.315 20.315 0 0 1-10.6 11.277 20.324 20.324 0 0 1 10.6 11.278 20.32 20.32 0 0 1 10.604-11.278A20.314 20.314 0 0 1 17.062 13.99z"/><path fill="#FD7600" d="M17.062 19.586a10.25 10.25 0 0 1-5.34 5.682 10.21 10.21 0 0 1 5.34 5.68 10.226 10.226 0 0 1 5.337-5.68 10.256 10.256 0 0 1-5.338-5.682z"/><path fill="#FCD22E" d="M25.496 5.992a9.938 9.938 0 0 1-5.183 5.512 9.943 9.943 0 0 1 5.183 5.513 9.926 9.926 0 0 1 5.177-5.513 9.914 9.914 0 0 1-5.177-5.512z"/><path fill="#FD7600" d="M25.496 8.727a5.03 5.03 0 0 1-2.612 2.777 4.996 4.996 0 0 1 2.612 2.777 4.974 4.974 0 0 1 2.61-2.776 5.003 5.003 0 0 1-2.61-2.777z"/><g><path fill="#FCD22E" d="M7.475 2.79A14.35 14.35 0 0 1 0 10.75a14.33 14.33 0 0 1 7.475 7.956 14.336 14.336 0 0 1 7.484-7.956A14.356 14.356 0 0 1 7.474 2.79z"/><path fill="#FD7600" d="M7.475 6.738a7.22 7.22 0 0 1-3.77 4.01 7.174 7.174 0 0 1 3.77 4.005 7.21 7.21 0 0 1 3.767-4.005 7.25 7.25 0 0 1-3.767-4.01z"/></g></g></svg>