<svg xmlns="http://www.w3.org/2000/svg" width="323.579" height="230.586" viewBox="0 0 323.579 230.586"><path fill="#76D9FC" d="M69.795 230.586a38.213 38.213 0 0 0 7.014-22.11c0-21.213-17.193-38.407-38.403-38.407C17.195 170.067 0 187.262 0 208.474a38.213 38.213 0 0 0 7.015 22.11h62.78z"/><path fill-rule="evenodd" clip-rule="evenodd" fill="#00A936" d="M13.616 215.98a3.01 3.01 0 0 0-.7-.173c-.258-.03-.45-.038-.624 0-.524.153-.56.7.86 1.554.38.507 1.068.968 1.72.715.38-1.077-.406-1.73-1.256-2.025 0-.07.007-.048 0-.07zM19.554 205.102c.062.058.103.146.158.155h.08c.38.107.754-.278.465-.303-.116-.018-.337.012-.703.148zM28.45 201.748c-.607.104-.755.51.552 1.41.16-.046 1.284-.297.624.384 2.032-1.213-.14-1.976-1.176-1.794zM28.45 193.073c2.186-.888 2.688-6.643.085-6.476-.167 0-.336.083-.55.164 1.09 2.01-1.423 4.568.465 6.313zM53.542 197.844c.175-1.202-1.736-2.087-2.598-2.036-.5.034-.6.395.327 1.258-.864 2.042 1.443 2.152 2.272.778zM34.002 182.854c.628-.292.93-1.338 0-1.338-.172-.044-.298-.088-.467-.08-.17.004-.34.064-.458.08-1.845.367-1.287 3.423.925 1.338z"/><path fill-rule="evenodd" clip-rule="evenodd" fill="#00A936" d="M36.582 182.142c-2.667.338-5.36 2.914-2.878 5.465 1.775 2.216-2.566 6.744 1.556 7.906 1.635-3.66 6.108-6.558 5.004-11.018-.463-1.902-2.072-2.558-3.682-2.353z"/><path fill="#00A936" d="M9.804 222.91c1.636 2.05.85 4.404.723 6.648-.046.016.02.07.02.078-.02.32-.02.637.002.95h16.188c-1.827-1.643-3.707-3.213-6.016-4.228-3.62-3.516-11.784-1.33-11.635-7.977.38-3.153-2.156-4.68-4.057-6.16-1.464-4.885 7.445-6.68 7.575-1.333 2.934-.155 3.962-5.27 7.346-6.008 1.745-1.515 6.465.112 4.758-2.98 1.688-1.603 6.638-1.55 4.216-5.3-.813-3.657-5.305-5.425-6.784-1.26-4.072 1.09-2.43-7.736 1.712-6.56 3 .172 2.593-2.44.775-3.276 0-.13-.04-.2-.156-.084-.333-.125-.68-.253-1.09-.233-4.06-2.244 4.062-7.96-1.32-9.772-5.902 5.044-14.904 12.978-18.51 20.39-1.63 4.65-1.356 9.332-1.166 14.22 1.65 4.735 4.863 8.638 7.42 12.885zM41.975 174.184c1.258 4.04 8.794.076 8.432 4.6.06.06.174.166.236.242-.117.088.09.91.24.224 1.303 1.475 4.042 4.53 1.166 4.148-3.813-.52-2.822 6.992-.074 8.356 2.616 1.408 4.088-1.42 1.397-2.81-.362-3.52 5.875 2.165 3.12 4.05-.106.076-.198.164-.303.242.124-.504-.18-.028-.172.085-3.13 2.27-1.345 7.61-2.56 11.168-2.168 4.81 5.417 2.688 4.286-1.096-1.388-3.484 5.77-1.897 4.22-4.372 4.34 2.302 3.932-3.883 2.117-5.947.85-3.303 3.08.388 2.026 2.19.168 1.704 1.636 2.093 2.816 2.58.053.038.114.046.232.075 1.027.49 1.646 1.12.535 3.056-1.277 4.298-5.602 4.535-9.132 3.74-3.577 1.482-4.24 5.822-6.255 8.747-2 3.65-3.663 9.03-.07 12.262 3.436 3.3 7.383.435 10.235-1.796 4.337-.562 5.536 3.373 4.504 6.66h.807a38.178 38.178 0 0 0 7.026-22.112c0-1.06-.073-2.1-.158-3.138-.027-.26-.046-.52-.075-.778-2.195 1.2-6.1-5.405-2.107-2.264.78-.054 1.274-.277 1.642-.615-.463-2.408-1.087-4.74-1.963-6.964-.392-.466-.767-.903-1.093-1.167.03-.48-.02-.943-.076-1.403-.02-.025.02-.06 0-.085-6.264-12.885-19.476-21.78-34.755-21.78-1.04 0-2.1.062-3.13.147a14.53 14.53 0 0 1-1.727.238c-.203.02-.41.044-.612.078-2.156.303-4.217.68-6.24 1.322 5.28-.386 10.703-.25 15.465 2.116z"/><g opacity=".2" fill="#010000"><path d="M1.867 196.638l-.024.073c.355-.018.67-.042.67-.072h-.646z"/><path d="M5.856 208.975a45.457 45.457 0 0 0 1.807 12.27c-4.527-.647-5.117-1.24-5.18-1.32.007.007.03.057.03.12h-.736c.113.35.233.696.352 1.04.533.3 1.36.563 2.543.816.93.2 2.054.39 3.374.568a41.558 41.558 0 0 0 3.648 8.118h1.315a40.294 40.294 0 0 1-3.706-7.96c.984.12 2.054.23 3.21.332 3.36.31 7.266.548 11.515.71.405 2.43.922 4.737 1.523 6.918h1.195a67.542 67.542 0 0 1-1.55-6.873c3.95.134 8.176.214 12.52.214v6.66h1.148v-6.66c4.35-.004 8.575-.08 12.526-.22a67.22 67.22 0 0 1-1.553 6.88h1.193a67.81 67.81 0 0 0 1.526-6.925c4.19-.167 8.04-.4 11.367-.704 1.216-.108 2.337-.228 3.363-.348a40.216 40.216 0 0 1-3.714 7.976h1.334a41.544 41.544 0 0 0 3.64-8.14 47.605 47.605 0 0 0 3.22-.546c1.652-.356 2.616-.727 3.04-1.2.072-.22.148-.43.222-.656h-1.104c0-.063.02-.113.033-.12-.066.08-.643.657-5.03 1.298a45.35 45.35 0 0 0 1.802-12.247h5.85v-1.162h-5.85c-.06-4.327-.72-8.48-1.878-12.353 4.435.64 5.016 1.223 5.077 1.302-.01-.01-.036-.056-.036-.124h1.05a40.853 40.853 0 0 0-.254-.745c-.464-.428-1.4-.775-2.948-1.106-.904-.192-2-.383-3.277-.55-1.475-4.462-3.63-8.522-6.31-11.99 2.69.69 4.835 1.497 6.317 2.346a41.83 41.83 0 0 0-1.836-2.15c-1.537-.603-3.224-1.094-4.81-1.482-.29-.07-.586-.137-.878-.207-4.094-4.774-9.237-8.27-14.972-9.933a38.463 38.463 0 0 0-15.958.18c-5.49 1.728-10.422 5.14-14.372 9.745-.31.073-.62.144-.92.216-1.447.354-2.986.795-4.41 1.334a38.875 38.875 0 0 0-1.79 2.06c1.464-.766 3.463-1.49 5.912-2.12-2.676 3.47-4.83 7.518-6.312 11.98-1.354.177-2.51.37-3.456.574-1.106.24-1.902.482-2.433.765-.113.302-.215.604-.31.908 1.085-.255 3.005-.625 5.812-1.02a45.308 45.308 0 0 0-1.883 12.375H.023c-.01.216-.023.434-.023.66 0 .167.01.33.013.5h5.843zm61.833 12.41c-1.29.165-2.833.328-4.693.493-3.045.254-6.512.46-10.244.614.65-4.257 1-8.823 1.023-13.518h15.81a44.143 44.143 0 0 1-1.897 12.41zm1.893-13.573H53.776c-.03-4.733-.396-9.328-1.064-13.616 3.742.146 7.214.355 10.257.613 1.84.16 3.366.325 4.635.48a44.083 44.083 0 0 1 1.978 12.522zm-9.247-26.008c2.916 3.48 5.265 7.643 6.868 12.27-1.01-.127-2.107-.234-3.305-.35-3.326-.3-7.188-.535-11.38-.7-.742-4.325-1.805-8.317-3.15-11.765a32.188 32.188 0 0 0-.45-1.104c4.19.353 8.063.905 11.416 1.648zm-1.293-1.454c-3.202-.63-6.807-1.107-10.66-1.402-1.667-3.586-3.605-6.192-5.702-7.7 6.223 1.054 11.872 4.315 16.363 9.102zm-20.176-9.444c2.985.312 5.833 3.087 8.197 7.944-2.642-.172-5.393-.27-8.197-.283v-7.66zm0 8.827c3.008.012 5.947.12 8.758.324.232.524.458 1.067.68 1.634 1.294 3.308 2.32 7.132 3.044 11.29a373.21 373.21 0 0 0-12.482-.224v-13.023zm0 14.192c4.395.007 8.68.087 12.68.23.68 4.283 1.05 8.897 1.084 13.657H38.868v-13.887zm0 15.05H52.63c-.02 4.72-.38 9.3-1.043 13.556-4.012.15-8.312.23-12.72.23v-13.785zM37.72 222.76c-4.406 0-8.703-.08-12.713-.223-.662-4.26-1.023-8.838-1.046-13.562h13.76v13.786zm0-14.948H23.96c.033-4.76.403-9.38 1.09-13.666 4-.14 8.28-.22 12.67-.222v13.888zm0-15.055c-4.33.005-8.538.08-12.478.218.725-4.158 1.748-7.977 3.045-11.283.22-.572.447-1.114.682-1.64a131.79 131.79 0 0 1 8.75-.318v13.023zm0-14.19c-2.802.012-5.55.105-8.196.283 2.37-4.857 5.22-7.632 8.195-7.944v7.66zm-3.808-7.32c-2.098 1.508-4.034 4.114-5.703 7.7-3.852.295-7.452.76-10.657 1.395 4.497-4.784 10.137-8.045 16.36-9.094zM16.26 181.796c3.35-.74 7.227-1.292 11.414-1.64-.157.358-.31.726-.457 1.104-1.34 3.446-2.4 7.426-3.145 11.76a227.6 227.6 0 0 0-11.562.704c-1.12.104-2.157.214-3.118.327 1.607-4.62 3.96-8.78 6.868-12.255zM8.994 195.27c1.23-.152 2.702-.305 4.45-.46 3.094-.263 6.624-.47 10.437-.62-.664 4.29-1.033 8.886-1.063 13.623H7.005a44.055 44.055 0 0 1 1.99-12.544zm13.822 13.705c.02 4.7.375 9.26 1.022 13.523-3.792-.15-7.31-.36-10.392-.62a124.41 124.41 0 0 1-4.535-.472 44.022 44.022 0 0 1-1.906-12.432h15.812z"/></g><g><path fill="#2579F2" d="M61.875 190.293h-47.16c-2.57 0-4.65 2.08-4.65 4.648v26.446c0 2.57 2.08 4.646 4.65 4.646h47.16a4.64 4.64 0 0 0 4.643-4.646V194.94a4.644 4.644 0 0 0-4.643-4.647zm-17.12 7.597h-12.93a1.98 1.98 0 0 1-1.98-1.98 1.98 1.98 0 0 1 1.98-1.977h12.93a1.98 1.98 0 0 1 0 3.957z"/><path fill="#EFEFEF" d="M63.01 218.178a4.645 4.645 0 0 1-4.65 4.646H18.223a4.646 4.646 0 0 1-4.65-4.646V206.32a4.648 4.648 0 0 1 4.65-4.645H58.36c2.57 0 4.65 2.08 4.65 4.645v11.858z"/><path fill="#29353F" d="M28.58 206.92a1.06 1.06 0 0 0-1.282.72l-1.63 5.683-1.63-5.683c-.136-.468-.576-.75-1.048-.738-.477-.012-.918.27-1.047.738l-1.636 5.683-1.628-5.683a1.06 1.06 0 0 0-1.287-.72.99.99 0 0 0-.715 1.238l2.583 9.006c.128.467.578.745 1.047.732.47.013.917-.266 1.055-.732l1.628-5.687 1.63 5.687c.136.467.58.745 1.048.732.47.013.918-.266 1.048-.732l2.582-9.006a.99.99 0 0 0-.717-1.238zM44.094 206.92a1.063 1.063 0 0 0-1.285.72l-1.623 5.683-1.635-5.683c-.135-.468-.578-.75-1.048-.738-.472-.012-.917.27-1.053.738l-1.63 5.683-1.627-5.683a1.06 1.06 0 0 0-1.285-.72 1 1 0 0 0-.723 1.238l2.59 9.006c.133.467.576.745 1.044.732.473.013.92-.266 1.05-.732l1.634-5.687 1.63 5.687c.132.467.577.745 1.053.732.468.013.913-.266 1.05-.732l2.576-9.006a.99.99 0 0 0-.72-1.238zM59.19 206.92a1.055 1.055 0 0 0-1.28.72l-1.637 5.683-1.628-5.683c-.137-.468-.576-.75-1.054-.738-.47-.012-.913.27-1.048.738l-1.63 5.683-1.63-5.683a1.056 1.056 0 0 0-1.28-.72.993.993 0 0 0-.72 1.238l2.582 9.006c.138.467.578.745 1.05.732.47.013.916-.266 1.052-.732l1.625-5.687 1.636 5.687c.13.467.576.745 1.047.732.473.013.918-.266 1.05-.732l2.587-9.006a.992.992 0 0 0-.72-1.238z"/><path opacity=".4" d="M42.907 193.964l1.564-.03.868-3.64-3.03.013z"/><path fill="#29353F" d="M43.676 197.892v-13.696a.845.845 0 0 0-.84-.843h-8.67a.847.847 0 0 0-.837.843v13.696h10.346z"/><path opacity=".1" fill="#FFF" d="M43.14 184.392a.427.427 0 0 1-.428.424h-8.444a.427.427 0 0 1-.432-.424c0-.24.192-.435.432-.435h8.444c.234 0 .43.193.43.435z"/><path opacity=".1" d="M61.875 190.293l-47.16 35.74h47.16a4.64 4.64 0 0 0 4.643-4.646v-26.445a4.644 4.644 0 0 0-4.643-4.65z"/></g><path opacity=".3" d="M13.707 212.435a53.1 53.1 0 0 0 7.914 15.288c.187.25.386.49.576.738.236.303.47.606.708.903.337.414.682.82 1.03 1.223H69.78c.345-.486.686-.975 1.006-1.48v.003a38.188 38.188 0 0 0 4.02-8.404c0-.003.005-.006.007-.006.072-.22.148-.432.222-.657h-.002c.105-.34.2-.686.3-1.03l.128-.45c.104-.377.2-.758.29-1.14a34.37 34.37 0 0 0 .51-2.507c.053-.307.104-.616.148-.93.047-.32.084-.643.123-.967.032-.28.07-.556.097-.833.037-.388.063-.775.088-1.168.014-.224.036-.446.047-.674a38.314 38.314 0 0 0-1.82-13.71h.004a40.853 40.853 0 0 0-.254-.744l-.005-.004a38.228 38.228 0 0 0-6.22-11.3.015.015 0 0 0 .007.003 1.494 1.494 0 0 0-.07-.083 29.01 29.01 0 0 0-.74-.896l-.303-.35c-.226-.26-.45-.52-.687-.774l-.036-.044h-.005c-5.388-5.84-12.56-10.005-20.653-11.624h-.002c-.008-.002-.02-.002-.025-.004a36.76 36.76 0 0 0-1.8-.317c-.195-.028-.395-.05-.59-.074-.43-.057-.855-.12-1.288-.16-.338-.036-.68-.056-1.02-.078-.3-.022-.6-.05-.9-.068a40.713 40.713 0 0 0-1.95-.048c-.704 0-1.403.02-2.097.058-.108.007-.213.018-.317.024a38.17 38.17 0 0 0-1.805.152l-.17.02c-.655.075-1.303.166-1.946.273l-.012.002c-6.835 1.136-13.046 4.092-18.15 8.33-.077.218-.16.434-.23.65-.004.008-.004.01-.004.013a53.06 53.06 0 0 0-2.583 16.374c0 5.582.868 10.962 2.462 16.018.047.15.1.3.152.45z"/><g><path fill="#76D9FC" d="M107.107 230.586c7.993-9.303 12.834-21.392 12.834-34.618 0-29.362-23.795-53.165-53.157-53.165-29.358 0-53.165 23.803-53.165 53.165 0 13.227 4.843 25.315 12.84 34.618h80.65z"/><path fill-rule="evenodd" clip-rule="evenodd" fill="#00A936" d="M32.466 206.358c-.29-.123-.696-.204-.967-.24-.357-.04-.623-.054-.866 0-.724.213-.77.97 1.19 2.153.526.697 1.48 1.338 2.385.988.523-1.49-.565-2.397-1.744-2.806 0-.094.012-.065 0-.094zM40.688 191.3c.087.078.143.2.217.214h.113c.527.15 1.043-.383.643-.418-.16-.03-.465.013-.972.205zM53 186.658c-.84.142-1.043.705.765 1.95.226-.062 1.78-.412.87.53 2.808-1.677-.198-2.734-1.634-2.48zM53 174.65c3.027-1.23 3.726-9.198.12-8.965-.23 0-.466.116-.762.227 1.508 2.78-1.97 6.322.643 8.737zM87.735 181.252c.24-1.662-2.405-2.886-3.595-2.817-.694.047-.83.545.454 1.738-1.198 2.83 1.997 2.982 3.14 1.08zM60.686 160.505c.872-.406 1.29-1.854 0-1.854-.234-.06-.41-.12-.645-.11-.23.01-.468.09-.635.11-2.55.51-1.777 4.742 1.28 1.855z"/><path fill-rule="evenodd" clip-rule="evenodd" fill="#00A936" d="M64.26 159.516c-3.693.467-7.42 4.034-3.984 7.566 2.458 3.066-3.55 9.333 2.153 10.942 2.264-5.063 8.457-9.077 6.924-15.252-.64-2.632-2.867-3.54-5.094-3.256z"/><path fill="#00A936" d="M27.19 215.948c2.262 2.837 1.173 6.103 1 9.205-.06.022.028.096.028.11-.115 1.88.18 3.675 1.77 5.29.01.012.02.022.027.032H55.17c-4.183-3.437-7.77-7.625-12.866-9.864-5.01-4.86-16.312-1.838-16.104-11.038.52-4.368-2.985-6.477-5.617-8.53-2.024-6.76 10.307-9.244 10.488-1.843 4.06-.214 5.482-7.294 10.17-8.317 2.413-2.094 8.946.156 6.583-4.122 2.335-2.22 9.187-2.145 5.834-7.336-1.123-5.063-7.343-7.51-9.393-1.743-5.634 1.51-3.36-10.708 2.37-9.082 4.155.24 3.59-3.374 1.07-4.534 0-.176-.055-.276-.21-.116-.464-.172-.946-.352-1.514-.32-5.617-3.107 5.624-11.023-1.824-13.53-8.172 6.98-20.633 17.964-25.625 28.228-2.25 6.436-1.874 12.915-1.612 19.68 2.287 6.552 6.734 11.957 10.27 17.832zM107.294 230.347c7.876-9.274 12.647-21.26 12.647-34.38 0-1.465-.1-2.906-.216-4.344-.038-.358-.066-.72-.107-1.075-3.036 1.66-8.442-7.482-2.913-3.136 1.078-.075 1.76-.383 2.27-.853-.64-3.33-1.502-6.56-2.716-9.638-.544-.644-1.064-1.25-1.51-1.614.037-.664-.03-1.304-.11-1.942-.024-.035.033-.083 0-.118-8.666-17.833-26.958-30.15-48.106-30.15-1.445 0-2.91.09-4.334.208-.74.156-1.556.252-2.39.328-.28.027-.57.062-.85.11-2.985.418-5.837.94-8.64 1.827 7.31-.534 14.812-.343 21.406 2.93 1.74 5.598 12.175.107 11.67 6.365.082.09.24.233.33.337-.166.123.12 1.266.328.31 1.804 2.042 5.598 6.27 1.617 5.745-5.282-.725-3.91 9.676-.107 11.566 3.627 1.948 5.662-1.965 1.94-3.89-.504-4.876 8.13 2.995 4.318 5.606-.147.103-.274.226-.42.336.173-.7-.25-.04-.237.116-4.332 3.14-1.86 10.53-3.545 15.456-2.997 6.657 7.5 3.722 5.935-1.518-1.92-4.824 7.986-2.625 5.842-6.05 6.01 3.186 5.445-5.374 2.93-8.232 1.175-4.574 4.263.537 2.803 3.03.234 2.356 2.267 2.897 3.898 3.572.077.056.16.062.32.104 1.425.68 2.28 1.552.742 4.23-1.768 5.95-7.75 6.28-12.64 5.18-4.948 2.047-5.866 8.056-8.655 12.104-2.768 5.056-5.07 12.502-.097 16.975 4.754 4.565 10.222.602 14.164-2.486 7.56-.98 8.255 7.922 4.533 12.45-.038.21-.07.37-.1.54z"/><g opacity=".2" fill="#010000"><path d="M16.204 179.582c-.014.042-.023.07-.032.104.493-.026.927-.062.927-.104h-.896zM111.682 224.404h-.056c0 .043-.013.083-.018.125.025-.043.053-.083.074-.126z"/><path d="M21.73 196.66c.06 5.94.938 11.65 2.497 16.982-6.267-.894-7.085-1.713-7.17-1.827.01.01.04.08.04.17H16.08c.155.48.322.963.488 1.436.736.418 1.88.785 3.52 1.133 1.287.276 2.843.54 4.67.785 1.818 5.604 4.41 10.737 7.606 15.248h1.966c-3.272-4.406-5.943-9.475-7.832-15.03 1.363.168 2.845.32 4.444.462 4.655.425 10.058.754 15.943.982.816 4.896 1.937 9.465 3.318 13.586h1.68c-1.406-4.08-2.54-8.635-3.383-13.525 5.47.188 11.32.3 17.335.3v13.227h1.586V217.36a506.98 506.98 0 0 0 17.342-.306c-.84 4.89-1.976 9.447-3.383 13.532h1.677c1.385-4.123 2.503-8.697 3.32-13.595 5.807-.228 11.13-.552 15.736-.973 1.685-.153 3.235-.317 4.655-.48-1.886 5.565-4.558 10.637-7.844 15.05h1.972c3.197-4.52 5.8-9.664 7.62-15.277 1.726-.24 3.22-.494 4.453-.757 2.287-.492 3.62-1.007 4.208-1.66.102-.302.204-.597.308-.907h-1.528c0-.09.03-.16.045-.17-.09.114-.887.913-6.96 1.797 1.557-5.32 2.425-11.023 2.49-16.953h8.1v-1.605h-8.1c-.083-5.992-.993-11.743-2.6-17.102 6.138.89 6.944 1.692 7.03 1.803-.018-.013-.05-.08-.05-.173h1.45c-.112-.343-.232-.687-.35-1.03-.643-.592-1.943-1.072-4.085-1.533a58.788 58.788 0 0 0-4.53-.762c-2.045-6.176-5.025-11.793-8.74-16.598 3.726.958 6.695 2.076 8.747 3.25a58.052 58.052 0 0 0-2.542-2.976c-2.125-.836-4.463-1.517-6.657-2.053-.4-.1-.81-.19-1.215-.288-5.665-6.61-12.786-11.443-20.726-13.75a53.03 53.03 0 0 0-10.482-1.04c-3.983 0-7.864.455-11.606 1.288-7.6 2.396-14.425 7.114-19.894 13.49-.428.104-.856.2-1.273.3-2.005.488-4.135 1.1-6.106 1.846-.86.916-1.685 1.87-2.478 2.85 2.027-1.06 4.795-2.062 8.183-2.936-3.706 4.804-6.686 10.405-8.737 16.585-1.875.246-3.473.513-4.784.794-1.536.33-2.635.668-3.37 1.06-.154.416-.298.835-.43 1.256 1.505-.353 4.163-.867 8.05-1.417a62.688 62.688 0 0 0-2.607 17.135H13.65c-.01.3-.03.604-.03.914 0 .23.015.457.02.69h8.09zm85.588 17.178c-1.78.228-3.918.456-6.496.682-4.214.352-9.012.64-14.18.853.9-5.892 1.382-12.217 1.417-18.713h21.885c-.066 6.03-.988 11.807-2.627 17.178zm2.624-18.784H88.06c-.042-6.554-.55-12.918-1.474-18.852 5.183.205 9.986.492 14.2.853 2.546.22 4.658.445 6.417.664 1.69 5.416 2.652 11.246 2.74 17.334zM97.14 159.047c4.038 4.818 7.288 10.583 9.508 16.983a180.77 180.77 0 0 0-4.573-.48c-4.604-.412-9.947-.74-15.754-.97-1.024-5.992-2.494-11.514-4.36-16.287a50.007 50.007 0 0 0-.62-1.524c5.795.488 11.16 1.25 15.8 2.277zm-1.79-2.013c-4.434-.868-9.42-1.53-14.756-1.94-2.308-4.962-4.99-8.57-7.895-10.656 8.614 1.456 16.434 5.97 22.65 12.596zm-27.93-13.07c4.13.434 8.075 4.27 11.35 11-3.654-.24-7.465-.382-11.35-.394v-10.606zm0 12.222c4.167.013 8.233.164 12.125.447.322.727.636 1.477.943 2.26 1.793 4.58 3.208 9.87 4.215 15.626a527.052 527.052 0 0 0-17.282-.31v-18.024zm0 19.637c6.086.014 12.018.125 17.555.323.94 5.93 1.452 12.317 1.5 18.907H67.42v-19.23zm0 20.836h19.054c-.028 6.53-.528 12.87-1.444 18.768-5.553.205-11.505.314-17.608.314V196.66zm-1.585 19.082c-6.1 0-12.05-.11-17.6-.308-.915-5.895-1.416-12.234-1.446-18.775h19.045v19.082zm0-20.688H46.79c.042-6.59.557-12.984 1.505-18.92 5.536-.192 11.466-.303 17.54-.31v19.23zm0-20.844a514.16 514.16 0 0 0-17.273.302c1-5.757 2.42-11.04 4.213-15.62.308-.79.622-1.54.945-2.268 3.89-.274 7.96-.426 12.115-.438v18.024zm0-19.64c-3.88.012-7.684.145-11.347.393 3.282-6.728 7.223-10.565 11.347-11v10.607zm-5.27-10.132c-2.907 2.087-5.586 5.694-7.897 10.655-5.33.41-10.313 1.056-14.75 1.93 6.225-6.622 14.034-11.133 22.646-12.585zM36.13 159.036c4.638-1.024 10-1.79 15.797-2.268a38.096 38.096 0 0 0-.63 1.524c-1.858 4.773-3.324 10.284-4.355 16.282-5.902.216-11.33.556-16.002.974-1.55.146-2.99.298-4.317.45 2.222-6.39 5.48-12.152 9.508-16.962zm-10.06 18.652c1.705-.208 3.738-.42 6.162-.633 4.278-.365 9.17-.65 14.443-.86-.922 5.937-1.43 12.3-1.476 18.86H23.312c.09-6.103 1.06-11.95 2.756-17.367zm19.13 18.97c.032 6.508.522 12.822 1.42 18.72-5.25-.207-10.115-.494-14.386-.858-2.477-.22-4.544-.43-6.28-.652a61.01 61.01 0 0 1-2.64-17.208H45.2zM24.14 227.717a52.915 52.915 0 0 0 2.32 2.87h4.355c-2.833-.885-5.094-1.858-6.675-2.87zM109.834 227.14c-1.565 1.217-4.127 2.397-7.49 3.446h4.664c.053-.023.11-.043.162-.066a57.812 57.812 0 0 0 2.664-3.38z"/></g><g><path fill="#EAC907" d="M99.27 170.798H33.984a6.438 6.438 0 0 0-6.434 6.437v36.606a6.43 6.43 0 0 0 6.433 6.435H99.27a6.422 6.422 0 0 0 6.427-6.434v-36.605a6.43 6.43 0 0 0-6.426-6.437zm-23.695 10.515h-17.9a2.74 2.74 0 0 1-2.74-2.74 2.74 2.74 0 0 1 2.74-2.735h17.9a2.737 2.737 0 0 1 0 5.475z"/><path fill="#EFEFEF" d="M100.838 209.397a6.43 6.43 0 0 1-6.432 6.433H38.844a6.432 6.432 0 0 1-6.435-6.433v-16.41c0-3.55 2.88-6.43 6.434-6.43h55.562a6.43 6.43 0 0 1 6.432 6.43v16.41z"/><path fill="#29353F" d="M53.184 193.815a1.468 1.468 0 0 0-1.777.997l-2.253 7.865-2.26-7.865c-.187-.647-.798-1.036-1.45-1.02-.66-.017-1.27.372-1.448 1.02l-2.264 7.865-2.257-7.865a1.46 1.46 0 0 0-1.775-.997 1.374 1.374 0 0 0-.993 1.714l3.573 12.468c.182.644.8 1.03 1.452 1.012.65.02 1.27-.368 1.456-1.012l2.256-7.873 2.257 7.873c.19.644.8 1.03 1.454 1.012.65.02 1.268-.368 1.448-1.012l3.576-12.47a1.37 1.37 0 0 0-.994-1.713zM74.658 193.815a1.465 1.465 0 0 0-1.777.997l-2.248 7.865-2.263-7.865c-.188-.647-.797-1.036-1.452-1.02-.65-.017-1.268.372-1.457 1.02l-2.255 7.865-2.255-7.865a1.46 1.46 0 0 0-1.774-.997 1.38 1.38 0 0 0-1 1.714l3.58 12.468c.188.644.798 1.03 1.45 1.012.653.02 1.27-.368 1.45-1.012l2.262-7.873 2.26 7.873c.178.644.798 1.03 1.454 1.012.646.02 1.265-.368 1.45-1.012l3.57-12.47a1.37 1.37 0 0 0-.994-1.713zM95.558 193.815a1.46 1.46 0 0 0-1.776.997l-2.264 7.865-2.255-7.865c-.188-.647-.798-1.036-1.46-1.02-.65-.017-1.262.372-1.448 1.02l-2.257 7.865-2.255-7.865a1.464 1.464 0 0 0-1.778-.997 1.376 1.376 0 0 0-.992 1.714l3.575 12.468c.187.644.797 1.03 1.45 1.012.654.02 1.27-.368 1.457-1.012l2.248-7.873 2.263 7.873c.18.644.8 1.03 1.452 1.012.654.02 1.27-.368 1.45-1.012l3.582-12.47a1.374 1.374 0 0 0-.992-1.713z"/><path opacity=".4" d="M73.014 175.88l2.167-.042 1.2-5.04-4.192.02z"/><path fill="#29353F" d="M74.077 181.32v-18.96a1.17 1.17 0 0 0-1.16-1.167h-12c-.635 0-1.16.53-1.16 1.166v18.96h14.32z"/><path opacity=".1" fill="#FFF" d="M73.34 162.63c0 .327-.27.59-.6.59H61.055a.597.597 0 0 1 0-1.193h11.688c.328 0 .6.27.6.603z"/><path opacity=".1" d="M99.27 170.798l-65.286 49.477H99.27a6.422 6.422 0 0 0 6.428-6.434v-36.605c0-3.554-2.873-6.437-6.427-6.437z"/></g></g><path opacity=".3" d="M38.492 223.805l.012.016c.232.31.478.606.714.913.272.35.543.702.823 1.046.47.582.957 1.152 1.448 1.72.013.014.024.03.04.044a63.75 63.75 0 0 0 2.837 3.043h62.74c.02-.02.04-.043.058-.064l.007-.002a4.4 4.4 0 0 0 .063-.08c.438-.512.864-1.035 1.282-1.563l.034-.044c.43-.544.85-1.095 1.257-1.656.01-.01.017-.022.026-.035-.002 0-.002.004-.004.004.618-.854 1.21-1.728 1.777-2.617v.002l.018-.03a53.018 53.018 0 0 0 5.548-11.6c0-.003.002-.004.005-.006.102-.303.204-.598.308-.908h-.006c.146-.468.28-.94.414-1.414.06-.215.125-.43.184-.645.14-.52.27-1.04.396-1.562.075-.31.146-.62.216-.932.104-.468.198-.938.29-1.408.073-.38.14-.762.204-1.144.07-.426.145-.854.204-1.282.064-.446.117-.897.173-1.35.046-.38.094-.76.13-1.143.052-.54.088-1.082.125-1.627.02-.308.048-.612.062-.922a53.2 53.2 0 0 0-2.517-18.98h.005c-.112-.34-.232-.685-.35-1.03-.003 0-.005-.004-.008-.006a52.994 52.994 0 0 0-8.61-15.64l.01.005a6.874 6.874 0 0 0-.11-.132c-.332-.417-.67-.828-1.016-1.232-.134-.16-.274-.317-.412-.477-.308-.357-.62-.715-.937-1.063l-.065-.073s-.004-.002-.01-.002c-7.452-8.083-17.38-13.846-28.583-16.09h-.006c-.083-.017-.168-.027-.25-.045a55.8 55.8 0 0 0-2.266-.398c-.333-.05-.673-.085-1.01-.128-.528-.07-1.056-.146-1.594-.198-.517-.053-1.04-.083-1.562-.12-.364-.026-.728-.062-1.097-.08a52.692 52.692 0 0 0-5.61.013c-.138.007-.275.02-.414.03-.848.054-1.69.123-2.53.215-.062.006-.124.017-.187.022-10.122 1.146-19.372 5.14-26.953 11.153a63.914 63.914 0 0 0-8.028 31.088c0 14.398 4.732 27.692 12.73 38.41h-.003z"/><g><path fill="#76D9FC" d="M140.376 230.586c11.475-11.616 18.564-27.574 18.564-45.19 0-35.525-28.79-64.318-64.31-64.318s-64.32 28.793-64.32 64.317c0 17.617 7.092 33.575 18.568 45.19h91.498z"/><path fill-rule="evenodd" clip-rule="evenodd" fill="#00A936" d="M53.113 197.964c-.353-.147-.844-.247-1.17-.29-.432-.052-.753-.065-1.048 0-.876.26-.934 1.173 1.44 2.605.637.843 1.794 1.618 2.886 1.194.636-1.804-.683-2.9-2.107-3.39 0-.12.015-.083 0-.12zM63.06 179.747c.103.094.17.244.26.26h.138c.64.18 1.26-.466.778-.507-.194-.035-.564.018-1.177.247zM77.957 174.133c-1.018.173-1.265.854.923 2.358.27-.073 2.153-.498 1.05.642 3.398-2.028-.238-3.308-1.973-3zM77.957 159.606c3.658-1.49 4.502-11.13.144-10.847-.28 0-.562.14-.92.272 1.822 3.365-2.386 7.65.777 10.574zM119.98 167.59c.288-2.01-2.912-3.49-4.352-3.405-.838.057-1.002.657.55 2.103-1.45 3.423 2.413 3.607 3.8 1.303zM87.252 142.493c1.056-.492 1.56-2.244 0-2.244-.282-.076-.497-.15-.78-.136-.28.01-.564.108-.77.135-3.088.614-2.152 5.733 1.55 2.243z"/><path fill-rule="evenodd" clip-rule="evenodd" fill="#00A936" d="M91.574 141.296c-4.467.564-8.974 4.88-4.82 9.15 2.976 3.715-4.295 11.296 2.606 13.24 2.74-6.126 10.232-10.98 8.38-18.45-.774-3.186-3.47-4.28-6.166-3.94z"/><path fill="#00A936" d="M46.73 209.568c2.735 3.433 1.418 7.383 1.21 11.138-.074.024.034.115.034.13-.14 2.276.217 4.447 2.14 6.403.904 1.164 1.92 2.263 2.966 3.346h39.077c-2.716-1.232-5.994-1.65-8.287-.85-6.618-4.394-11.4-11.118-18.854-14.394-6.062-5.882-19.732-2.226-19.484-13.355.63-5.283-3.61-7.836-6.793-10.32-2.448-8.18 12.467-11.186 12.685-2.23 4.914-.255 6.632-8.82 12.304-10.06 2.92-2.534 10.824.19 7.965-4.986 2.824-2.686 11.112-2.596 7.06-8.876-1.36-6.125-8.886-9.083-11.364-2.108-6.813 1.826-4.067-12.96 2.867-10.99 5.026.292 4.344-4.08 1.296-5.483 0-.215-.063-.334-.256-.145-.56-.205-1.142-.422-1.83-.387-6.797-3.756 6.805-13.33-2.207-16.363-9.886 8.443-24.963 21.73-31 34.148-2.73 7.786-2.27 15.62-1.953 23.812 2.762 7.925 8.142 14.465 12.422 21.57zM143.64 226.987c9.525-11.22 15.3-25.72 15.3-41.593 0-1.77-.12-3.516-.264-5.254-.043-.435-.077-.873-.127-1.305-3.675 2.012-10.215-9.05-3.527-3.792 1.308-.09 2.13-.466 2.748-1.03-.77-4.028-1.818-7.937-3.288-11.66-.655-.78-1.286-1.51-1.827-1.952.047-.805-.034-1.575-.13-2.35-.032-.04.037-.1 0-.142-10.483-21.576-32.614-36.475-58.202-36.475-1.744 0-3.52.106-5.24.25-.898.19-1.884.304-2.89.395-.345.036-.692.076-1.032.135-3.61.51-7.06 1.14-10.45 2.212 8.84-.648 17.924-.416 25.9 3.542 2.103 6.772 14.727.13 14.117 7.7.1.11.29.283.4.412-.202.145.143 1.525.396.37 2.18 2.47 6.772 7.59 1.954 6.947-6.388-.872-4.728 11.71-.126 13.995 4.387 2.36 6.85-2.375 2.346-4.703-.61-5.904 9.837 3.622 5.226 6.78-.18.124-.332.273-.51.406.21-.846-.304-.05-.286.142-5.242 3.8-2.253 12.74-4.288 18.7-3.63 8.053 9.072 4.502 7.18-1.837-2.324-5.833 9.66-3.175 7.065-7.317 7.272 3.85 6.585-6.5 3.546-9.958 1.418-5.535 5.155.646 3.388 3.662.285 2.853 2.742 3.51 4.72 4.322.09.064.19.076.384.123 1.727.82 2.762 1.88.9 5.12-2.136 7.2-9.376 7.597-15.29 6.267-5.988 2.478-7.1 9.747-10.474 14.643-3.35 6.115-6.132 15.126-.117 20.537 5.753 5.524 12.367.73 17.138-3.01 9.147-1.188 9.985 9.583 5.482 15.067-.047.252-.085.44-.12.65z"/><g opacity=".2" fill="#010000"><path d="M33.438 165.572l-.04.124c.596-.034 1.12-.073 1.12-.124h-1.08zM148.95 219.798h-.07c0 .052-.015.103-.02.152.032-.05.064-.1.09-.152z"/><path d="M40.12 186.232c.076 7.188 1.14 14.097 3.027 20.544-7.582-1.08-8.574-2.07-8.675-2.21a.43.43 0 0 1 .046.207h-1.23c.19.58.39 1.162.592 1.735.89.505 2.276.948 4.26 1.37 1.556.333 3.436.65 5.646.947 2.295 7.067 5.594 13.523 9.688 19.143-4.558-1.24-8.1-2.67-10.435-4.164a64.61 64.61 0 0 0 3.033 3.738c2.777 1.162 5.933 2.098 8.87 2.817.145.033.294.066.44.108.032.04.065.077.097.116h11.135c-3.63-.52-7.04-1.144-10.16-1.87-4.463-5.652-8.07-12.29-10.563-19.62 1.65.2 3.443.38 5.378.555 5.63.516 12.168.915 19.285 1.19 1.215 7.266 2.972 13.942 5.2 19.744h2.07c-.048-.118-.096-.23-.142-.35-2.215-5.65-3.946-12.2-5.173-19.322a623.06 623.06 0 0 0 20.97.357v19.313h1.922V211.27c7.287-.007 14.36-.135 20.98-.366-1.226 7.122-2.962 13.67-5.173 19.33-.048.12-.096.232-.142.35h2.062c2.234-5.802 3.99-12.486 5.205-19.757 7.022-.278 13.467-.67 19.036-1.18 2.04-.184 3.915-.38 5.633-.58-2.483 7.323-6.08 13.956-10.543 19.604-3.154.75-6.616 1.385-10.302 1.913h11.244c.044-.054.09-.104.133-.158.088-.025.188-.05.28-.067 3.224-.79 6.704-1.838 9.673-3.167a70.766 70.766 0 0 0 3.224-4.084c-2.22 1.728-6.094 3.396-11.263 4.815 4.077-5.615 7.38-12.07 9.667-19.128 2.088-.29 3.894-.6 5.39-.915 2.77-.598 4.38-1.22 5.09-2.007.122-.368.25-.726.372-1.1h-1.85c0-.108.037-.193.055-.206-.106.14-1.075 1.104-8.423 2.174 1.887-6.44 2.94-13.338 3.017-20.51h9.796v-1.943h-9.797c-.104-7.247-1.204-14.205-3.144-20.688 7.423 1.072 8.397 2.047 8.5 2.18-.02-.016-.058-.093-.058-.208h1.753c-.136-.418-.277-.83-.422-1.25-.776-.713-2.35-1.297-4.94-1.852a69.912 69.912 0 0 0-5.482-.923c-2.474-7.47-6.08-14.27-10.572-20.08 4.507 1.16 8.1 2.513 10.58 3.933a68.35 68.35 0 0 0-3.074-3.6c-2.57-1.012-5.4-1.835-8.054-2.482-.485-.125-.98-.232-1.47-.353-6.854-7.994-15.47-13.845-25.074-16.634a64.278 64.278 0 0 0-12.682-1.257c-4.82 0-9.515.548-14.04 1.555-9.195 2.9-17.454 8.606-24.068 16.32-.52.124-1.037.242-1.542.367-2.423.588-5 1.33-7.387 2.23a64.064 64.064 0 0 0-2.995 3.447c2.452-1.282 5.8-2.492 9.898-3.55-4.48 5.81-8.088 12.588-10.568 20.062-2.27.297-4.205.62-5.79.963-1.853.4-3.187.806-4.075 1.277a35.1 35.1 0 0 0-.52 1.523c1.82-.428 5.037-1.047 9.737-1.714-1.946 6.492-3.056 13.462-3.152 20.73h-9.78c-.012.362-.037.728-.037 1.105 0 .28.02.555.026.838h9.785zm103.548 20.782c-2.154.277-4.74.552-7.857.825-5.098.423-10.903.772-17.153 1.03 1.09-7.13 1.672-14.777 1.712-22.638h26.478c-.08 7.297-1.197 14.286-3.18 20.782zm3.174-22.726h-26.474c-.05-7.928-.664-15.625-1.782-22.806 6.27.25 12.082.596 17.178 1.03 3.08.267 5.637.543 7.765.805 2.046 6.553 3.208 13.606 3.312 20.97zm-15.487-43.557c4.884 5.826 8.817 12.8 11.5 20.547-1.688-.21-3.53-.392-5.533-.584-5.568-.5-12.03-.898-19.058-1.17-1.24-7.25-3.02-13.932-5.274-19.706a60.322 60.322 0 0 0-.75-1.846c7.012.593 13.503 1.513 19.115 2.76zm-2.164-2.436c-5.364-1.05-11.4-1.852-17.853-2.35-2.79-6.002-6.038-10.364-9.55-12.89 10.422 1.762 19.883 7.222 27.404 15.24zM95.403 122.48c4.997.524 9.766 5.17 13.73 13.304a224.482 224.482 0 0 0-13.73-.472v-12.83zm0 14.786c5.04.018 9.958.202 14.664.54.392.88.77 1.786 1.143 2.735 2.167 5.543 3.882 11.944 5.095 18.906a633.348 633.348 0 0 0-20.902-.374v-21.806zm0 23.76c7.36.014 14.537.148 21.235.39 1.138 7.172 1.757 14.9 1.813 22.872H95.402v-23.263zm0 25.206h23.05c-.036 7.902-.64 15.573-1.75 22.702-6.718.252-13.915.385-21.3.385V186.23zm-1.92 23.087c-7.38 0-14.576-.134-21.294-.375-1.108-7.132-1.713-14.803-1.75-22.713h23.043v23.087zm0-25.032H70.438c.053-7.972.673-15.707 1.82-22.888a632.14 632.14 0 0 1 21.22-.375v23.263zm0-25.216c-7.253.01-14.297.133-20.898.365 1.21-6.964 2.928-13.354 5.1-18.896.37-.958.748-1.862 1.142-2.74 4.703-.332 9.63-.517 14.656-.534v21.806zm0-23.76a217.84 217.84 0 0 0-13.73.472c3.973-8.133 8.74-12.78 13.73-13.303v12.832zm-6.378-12.257c-3.516 2.525-6.756 6.888-9.554 12.89-6.447.498-12.477 1.28-17.845 2.338 7.534-8.014 16.98-13.473 27.4-15.228zm-29.56 17.66c5.612-1.236 12.1-2.16 19.113-2.743-.264.6-.516 1.214-.764 1.846-2.248 5.774-4.022 12.44-5.267 19.694-7.145.264-13.71.676-19.362 1.182-1.873.177-3.616.36-5.223.545 2.692-7.736 6.634-14.708 11.504-20.525zm-12.17 22.562a233.76 233.76 0 0 1 7.456-.766c5.176-.44 11.093-.784 17.474-1.04-1.115 7.185-1.73 14.882-1.785 22.817H42.04c.107-7.38 1.278-14.45 3.33-21.01zm23.145 22.955c.04 7.872.63 15.508 1.716 22.646-6.35-.25-12.238-.598-17.405-1.04-2.992-.266-5.494-.522-7.593-.79a73.644 73.644 0 0 1-3.194-20.816H68.52z"/></g><g><path fill="#FF5148" d="M133.934 154.947H54.95a7.782 7.782 0 0 0-7.783 7.783v44.287a7.778 7.778 0 0 0 7.784 7.785h78.983a7.77 7.77 0 0 0 7.773-7.785V162.73c0-4.298-3.474-7.783-7.772-7.783zm-28.668 12.72H83.61a3.317 3.317 0 0 1-3.317-3.314 3.318 3.318 0 0 1 3.318-3.31h21.655a3.312 3.312 0 1 1 0 6.625z"/><path fill="#EFEFEF" d="M135.83 201.643a7.778 7.778 0 0 1-7.783 7.782h-67.22a7.78 7.78 0 0 1-7.784-7.782V181.79c0-4.295 3.487-7.78 7.785-7.78h67.22a7.78 7.78 0 0 1 7.78 7.78v19.853z"/><path fill="#29353F" d="M78.176 182.792a1.776 1.776 0 0 0-2.15 1.205l-2.727 9.52-2.73-9.52c-.226-.78-.968-1.255-1.756-1.233-.798-.02-1.535.452-1.754 1.233l-2.736 9.52-2.73-9.52c-.26-.908-1.22-1.448-2.15-1.205a1.665 1.665 0 0 0-1.2 2.074l4.323 15.08c.22.78.967 1.252 1.758 1.227.788.025 1.536-.445 1.763-1.227l2.728-9.52 2.73 9.52c.228.78.966 1.252 1.755 1.227.79.025 1.536-.445 1.754-1.227l4.327-15.08a1.66 1.66 0 0 0-1.204-2.074zM104.157 182.792c-.923-.243-1.89.297-2.15 1.205l-2.722 9.52-2.735-9.52c-.23-.78-.967-1.255-1.756-1.233-.79-.02-1.534.452-1.764 1.233l-2.73 9.52-2.728-9.52c-.26-.908-1.217-1.448-2.148-1.205a1.672 1.672 0 0 0-1.208 2.074l4.33 15.08c.228.78.97 1.252 1.755 1.227.792.025 1.538-.445 1.756-1.227l2.738-9.52 2.73 9.52c.216.78.965 1.252 1.76 1.227.782.025 1.53-.445 1.757-1.227l4.318-15.08c.268-.903-.277-1.838-1.2-2.074zM129.44 182.792c-.933-.243-1.89.297-2.15 1.205l-2.737 9.52-2.73-9.52c-.227-.78-.963-1.255-1.762-1.233-.788-.02-1.526.452-1.755 1.233l-2.73 9.52-2.728-9.52c-.26-.908-1.217-1.448-2.15-1.205a1.663 1.663 0 0 0-1.2 2.074l4.324 15.08c.23.78.968 1.252 1.756 1.227.79.025 1.537-.445 1.764-1.227l2.72-9.52 2.74 9.52c.218.78.966 1.252 1.753 1.227.792.025 1.537-.445 1.754-1.227l4.334-15.08a1.664 1.664 0 0 0-1.2-2.074z"/><path opacity=".4" d="M102.165 161.093l2.623-.05 1.452-6.096-5.072.026z"/><path fill="#29353F" d="M103.453 167.674v-22.937c0-.773-.633-1.41-1.404-1.41H87.53c-.764 0-1.403.637-1.403 1.41v22.937h17.326z"/><path opacity=".1" fill="#FFF" d="M102.563 145.065a.72.72 0 0 1-.724.712H87.7a.712.712 0 0 1-.722-.712c0-.403.315-.732.72-.732h14.142c.394 0 .723.33.723.732z"/><path opacity=".1" d="M133.934 154.947l-78.982 59.855h78.982a7.77 7.77 0 0 0 7.773-7.785V162.73c0-4.298-3.475-7.783-7.773-7.783z"/></g></g><g><path fill="#76D9FC" d="M77.496 230.586h105.446c18.475-15.22 30.255-38.272 30.255-64.076 0-45.838-37.148-82.988-82.975-82.988-45.83 0-82.988 37.15-82.988 82.988 0 25.803 11.784 48.857 30.262 64.076z"/><path fill-rule="evenodd" clip-rule="evenodd" fill="#00A936" d="M76.656 182.726c-.454-.19-1.09-.317-1.513-.374-.557-.066-.973-.084-1.35 0-1.132.335-1.205 1.516 1.857 3.36.824 1.09 2.31 2.088 3.72 1.543.823-2.33-.88-3.743-2.715-4.38 0-.15.016-.103 0-.15zM89.485 159.22c.134.125.22.315.34.336H90c.822.233 1.63-.6 1.004-.654-.25-.043-.727.023-1.52.32zM108.708 151.976c-1.313.225-1.633 1.103 1.19 3.044.348-.097 2.778-.643 1.354.83 4.388-2.62-.303-4.27-2.544-3.874zM108.708 133.232c4.72-1.92 5.808-14.36.184-13.994-.36 0-.727.18-1.187.354 2.355 4.342-3.08 9.87 1.003 13.64zM162.924 143.537c.376-2.594-3.753-4.505-5.612-4.397-1.08.074-1.294.85.71 2.713-1.874 4.418 3.114 4.655 4.902 1.684zM120.702 111.153c1.36-.634 2.01-2.896 0-2.896-.367-.096-.642-.19-1.006-.172-.365.013-.73.14-.992.172-3.985.796-2.777 7.4 1.998 2.896z"/><path fill-rule="evenodd" clip-rule="evenodd" fill="#00A936" d="M126.278 109.608c-5.764.73-11.58 6.3-6.218 11.808 3.836 4.79-5.545 14.57 3.362 17.083 3.533-7.903 13.198-14.167 10.81-23.805-1-4.112-4.475-5.527-7.954-5.087z"/><path fill="#00A936" d="M68.417 197.698c3.532 4.43 1.832 9.52 1.562 14.367-.097.034.046.15.046.17-.184 2.94.278 5.737 2.76 8.26 2.76 3.56 6.318 6.65 9.332 10.09h50.968c-1.75-5.41-11.356-8.746-16.75-6.87-8.536-5.663-14.71-14.343-24.324-18.562-7.822-7.595-25.463-2.874-25.14-17.235.817-6.817-4.66-10.11-8.765-13.312-3.16-10.556 16.088-14.437 16.367-2.88 6.34-.33 8.56-11.387 15.873-12.98 3.77-3.272 13.967.244 10.28-6.435 3.646-3.467 14.338-3.347 9.105-11.453-1.756-7.9-11.464-11.72-14.66-2.723-8.793 2.358-5.247-16.717 3.698-14.175 6.487.374 5.604-5.267 1.674-7.077 0-.28-.085-.434-.33-.184-.724-.27-1.476-.548-2.364-.504-8.768-4.847 8.78-17.202-2.848-21.114-12.756 10.896-32.205 28.04-39.996 44.06-3.52 10.046-2.93 20.158-2.52 30.72 3.566 10.23 10.507 18.663 16.03 27.836zM193.453 220.172c12.293-14.476 19.744-33.188 19.744-53.662 0-2.29-.155-4.537-.342-6.78-.058-.56-.1-1.128-.164-1.684-4.74 2.596-13.177-11.678-4.55-4.892 1.686-.116 2.753-.602 3.544-1.33-.997-5.2-2.344-10.24-4.24-15.044-.845-1.006-1.66-1.95-2.356-2.52.06-1.037-.045-2.036-.17-3.033-.04-.052.048-.127 0-.183-13.527-27.838-42.08-47.06-75.094-47.06-2.253 0-4.54.135-6.765.318-1.156.248-2.43.397-3.73.515-.44.044-.89.098-1.327.17-4.658.656-9.112 1.47-13.486 2.855 11.41-.836 23.123-.536 33.414 4.568 2.72 8.738 19.003.17 18.218 9.938.13.138.375.362.513.528-.254.188.19 1.97.52.48 2.812 3.186 8.735 9.79 2.52 8.965-8.24-1.126-6.1 15.108-.162 18.057 5.656 3.044 8.836-3.066 3.022-6.068-.783-7.614 12.692 4.675 6.745 8.748-.23.163-.432.355-.66.524.273-1.093-.39-.062-.368.183-6.763 4.902-2.906 16.438-5.533 24.126-4.68 10.393 11.707 5.812 9.266-2.368-3-7.527 12.465-4.097 9.116-9.445 9.38 4.975 8.494-8.387 4.575-12.847 1.833-7.142 6.65.835 4.374 4.728.367 3.683 3.538 4.525 6.085 5.577.118.085.248.098.502.16 2.222 1.06 3.56 2.425 1.158 6.605-2.76 9.286-12.1 9.802-19.73 8.085-7.727 3.198-9.16 12.577-13.513 18.894-4.32 7.89-7.915 19.513-.152 26.493 7.42 7.133 15.955.942 22.114-3.88 11.8-1.532 12.88 12.364 7.072 19.44-.063.323-.11.57-.16.84z"/><g opacity=".2" fill="#010000"><path d="M51.27 140.932c-.02.065-.036.107-.05.16.765-.043 1.443-.095 1.443-.16H51.27zM200.304 210.896h-.088c0 .065-.02.133-.03.198.043-.066.087-.133.118-.198z"/><path d="M59.89 167.59c.098 9.274 1.472 18.187 3.903 26.507-9.78-1.394-11.06-2.673-11.19-2.854.01.017.06.127.06.266h-1.59c.246.753.508 1.504.764 2.243 1.15.65 2.938 1.22 5.495 1.766 2.01.426 4.437.842 7.288 1.22 2.96 9.118 7.217 17.448 12.497 24.7-5.878-1.6-10.446-3.446-13.463-5.374a84.09 84.09 0 0 0 3.916 4.824c3.585 1.5 7.655 2.707 11.444 3.638.188.04.38.083.568.14a77.894 77.894 0 0 0 5.312 5.92h3.59a73.426 73.426 0 0 1-4.894-5.03c7.116 1.467 15.222 2.57 23.93 3.27.265.6.532 1.184.804 1.76h2.748c-.25-.51-.498-1.017-.742-1.546 5.925.41 12.104.617 18.41.654v.892h2.475v-.892a294.237 294.237 0 0 0 18.42-.666 73.226 73.226 0 0 1-.748 1.558h2.76c.27-.58.543-1.167.81-1.77 8.712-.704 16.827-1.827 23.946-3.307a72.928 72.928 0 0 1-4.937 5.077h3.596a77.502 77.502 0 0 0 5.354-5.976 4.06 4.06 0 0 1 .363-.082c4.157-1.02 8.65-2.373 12.478-4.086a92.79 92.79 0 0 0 4.16-5.274c-2.867 2.227-7.863 4.38-14.533 6.212 5.266-7.243 9.524-15.574 12.476-24.68 2.695-.375 5.027-.772 6.954-1.18 3.57-.77 5.65-1.573 6.568-2.59.156-.478.323-.936.48-1.42h-2.385c0-.14.046-.25.07-.267-.142.18-1.39 1.426-10.868 2.808 2.43-8.307 3.79-17.205 3.89-26.46h12.64v-2.51h-12.64c-.13-9.352-1.552-18.327-4.058-26.69 9.58 1.38 10.838 2.638 10.97 2.812a.45.45 0 0 1-.076-.27h2.265c-.177-.536-.36-1.074-.544-1.61-1.003-.924-3.032-1.674-6.374-2.39-1.952-.418-4.318-.827-7.077-1.19-3.19-9.64-7.844-18.41-13.637-25.908 5.812 1.495 10.445 3.24 13.65 5.072-1.272-1.583-2.58-3.14-3.966-4.642-3.32-1.307-6.968-2.37-10.394-3.206-.625-.16-1.265-.3-1.894-.45-8.848-10.317-19.962-17.866-32.354-21.465a82.883 82.883 0 0 0-16.36-1.62 83.13 83.13 0 0 0-18.122 2.008c-11.86 3.74-22.517 11.105-31.052 21.058-.667.16-1.338.312-1.988.47-3.126.76-6.45 1.718-9.53 2.878a84.16 84.16 0 0 0-3.865 4.45c3.164-1.653 7.483-3.22 12.77-4.58-5.78 7.493-10.434 16.24-13.635 25.884-2.926.385-5.424.802-7.47 1.242-2.393.517-4.112 1.043-5.257 1.65a39.538 39.538 0 0 0-.67 1.965c2.35-.552 6.498-1.352 12.563-2.212-2.51 8.377-3.94 17.37-4.067 26.745H47.28c-.016.473-.046.94-.046 1.43 0 .36.02.716.03 1.08H59.89zm119.14 54.757c-7.393 1.754-16.06 3.045-25.483 3.852.117-.302.25-.59.36-.897 2.972-7.6 5.3-16.398 6.898-25.976 9.06-.36 17.378-.866 24.562-1.524 2.63-.234 5.05-.492 7.268-.75-3.204 9.45-7.846 18.004-13.604 25.294zm14.463-27.944c-2.78.357-6.118.71-10.14 1.067-6.578.544-14.07.994-22.133 1.324 1.404-9.2 2.156-19.064 2.21-29.206h34.158c-.098 9.414-1.538 18.433-4.095 26.815zm4.09-29.324h-34.152c-.066-10.23-.858-20.16-2.3-29.424 8.09.32 15.59.77 22.164 1.33 3.975.34 7.272.696 10.02 1.037 2.64 8.454 4.137 17.555 4.27 27.056zm-19.978-56.2c6.303 7.52 11.374 16.513 14.84 26.506-2.18-.267-4.557-.5-7.142-.75-7.185-.644-15.524-1.158-24.59-1.51-1.6-9.353-3.893-17.975-6.806-25.426a75.474 75.474 0 0 0-.97-2.38c9.054.76 17.425 1.952 24.668 3.56zm-2.793-3.144c-6.92-1.36-14.71-2.39-23.034-3.03-3.602-7.746-7.79-13.375-12.322-16.633 13.445 2.274 25.65 9.32 35.356 19.663zm-43.597-20.4c6.45.67 12.603 6.666 17.715 17.166a286.922 286.922 0 0 0-17.715-.613V85.334zm0 19.073c6.5.02 12.852.26 18.923.697a97 97 0 0 1 1.477 3.526c2.793 7.15 5.005 15.41 6.574 24.396a807.292 807.292 0 0 0-26.975-.483V104.41zm0 30.656c9.5.02 18.76.192 27.4.503 1.467 9.254 2.268 19.224 2.338 29.51h-29.738v-30.014zm0 32.523h29.738c-.042 10.195-.824 20.093-2.254 29.29-8.67.322-17.958.496-27.485.496V167.59zm0 32.306c9.403-.01 18.53-.174 27.068-.475-1.58 9.19-3.818 17.642-6.67 24.94-.277.71-.547 1.385-.835 2.062-6.265.475-12.84.722-19.563.75v-27.276zm-50.25 22.506c-5.76-7.294-10.414-15.86-13.626-25.316 2.126.26 4.437.493 6.937.716 7.26.67 15.698 1.182 24.88 1.536 1.6 9.574 3.926 18.365 6.89 25.964.125.308.256.604.37.908-9.405-.794-18.05-2.084-25.452-3.808zm47.774 4.772c-6.714-.02-13.28-.27-19.55-.73a70.893 70.893 0 0 1-.835-2.08c-2.86-7.29-5.093-15.74-6.67-24.93 8.53.29 17.665.463 27.054.463v27.277zm0-29.798c-9.522 0-18.806-.174-27.475-.485-1.43-9.198-2.21-19.094-2.256-29.3h29.728v29.786zm0-32.297H99.01c.067-10.286.87-20.27 2.348-29.532 8.644-.3 17.9-.472 27.382-.48v30.01zm0-32.533c-9.357.01-18.45.17-26.963.47 1.562-8.983 3.777-17.23 6.578-24.383.475-1.234.97-2.403 1.473-3.54a286.318 286.318 0 0 1 18.91-.685v28.137zm0-30.658a280.99 280.99 0 0 0-17.712.612c5.123-10.5 11.273-16.495 17.71-17.167v16.554zm-8.23-15.817c-4.534 3.258-8.717 8.887-12.323 16.633-8.322.64-16.1 1.647-23.026 3.014 9.72-10.338 21.906-17.383 35.35-19.647zM82.368 108.86c7.243-1.6 15.61-2.79 24.662-3.54-.34.772-.667 1.565-.985 2.38-2.9 7.45-5.188 16.053-6.798 25.414-9.215.342-17.686.87-24.98 1.522-2.416.225-4.665.46-6.736.704 3.47-9.98 8.556-18.974 14.838-26.48zM66.67 137.975c2.66-.326 5.836-.656 9.617-.988 6.68-.57 14.31-1.017 22.547-1.342-1.44 9.266-2.234 19.197-2.302 29.436H62.367c.14-9.523 1.653-18.645 4.303-27.106zm29.862 29.615c.05 10.156.812 20.006 2.212 29.22-8.193-.326-15.79-.774-22.453-1.34-3.864-.345-7.09-.677-9.8-1.02-2.567-8.397-4.025-17.434-4.123-26.86h34.165z"/></g><g><path fill="#2579F2" d="M180.928 127.223H79.025a10.042 10.042 0 0 0-10.044 10.044v57.14a10.035 10.035 0 0 0 10.045 10.043h101.902c5.55 0 10.034-4.485 10.034-10.042v-57.14c.002-5.55-4.483-10.045-10.032-10.045zm-36.99 16.414h-27.937a4.282 4.282 0 0 1-4.277-4.28A4.277 4.277 0 0 1 116 135.09h27.94a4.272 4.272 0 0 1 4.28 4.268c.002 2.36-1.906 4.28-4.28 4.28z"/><path fill="#EFEFEF" d="M183.378 187.472c0 5.552-4.493 10.04-10.042 10.04h-86.73c-5.547 0-10.044-4.488-10.044-10.04v-25.617c0-5.54 4.497-10.04 10.044-10.04h86.73c5.548 0 10.04 4.5 10.04 10.04v25.617z"/><path fill="#29353F" d="M108.99 163.148a2.297 2.297 0 0 0-2.772 1.557l-3.522 12.28-3.52-12.28c-.295-1.01-1.245-1.62-2.263-1.595-1.03-.026-1.984.584-2.265 1.595l-3.533 12.28-3.52-12.28c-.337-1.17-1.57-1.868-2.776-1.557a2.148 2.148 0 0 0-1.548 2.677l5.58 19.456c.28 1.01 1.246 1.617 2.264 1.588 1.018.03 1.98-.578 2.274-1.587l3.523-12.283 3.52 12.284c.293 1.01 1.248 1.617 2.263 1.588 1.02.03 1.985-.578 2.266-1.587l5.58-19.455c.343-1.164-.356-2.37-1.55-2.677zM142.51 163.148c-1.19-.312-2.435.387-2.774 1.557l-3.507 12.28-3.534-12.28c-.29-1.01-1.247-1.62-2.263-1.595-1.02-.026-1.983.584-2.275 1.595l-3.523 12.28-3.52-12.28c-.337-1.17-1.57-1.868-2.773-1.557a2.164 2.164 0 0 0-1.56 2.677l5.59 19.456c.293 1.01 1.248 1.617 2.263 1.588 1.02.03 1.985-.578 2.267-1.587l3.532-12.283 3.52 12.284c.284 1.01 1.246 1.617 2.276 1.588 1.01.03 1.972-.578 2.266-1.587l5.567-19.455c.344-1.164-.358-2.37-1.554-2.677zM175.135 163.148c-1.203-.312-2.438.387-2.773 1.557l-3.53 12.28-3.525-12.28c-.29-1.01-1.242-1.62-2.273-1.595-1.018-.026-1.972.584-2.265 1.595l-3.523 12.28-3.52-12.28c-.334-1.17-1.568-1.868-2.773-1.557a2.15 2.15 0 0 0-1.55 2.677l5.58 19.456c.295 1.01 1.25 1.617 2.264 1.588 1.02.03 1.982-.578 2.275-1.587l3.512-12.283 3.534 12.284c.278 1.01 1.24 1.617 2.263 1.588 1.018.03 1.98-.578 2.265-1.587l5.59-19.455a2.154 2.154 0 0 0-1.553-2.677z"/><path opacity=".4" d="M139.945 135.154l3.38-.064 1.876-7.867-6.547.032z"/><path fill="#29353F" d="M141.603 143.64v-29.593c0-.995-.812-1.82-1.81-1.82H121.06a1.83 1.83 0 0 0-1.81 1.82v29.594h22.353z"/><path opacity=".1" fill="#FFF" d="M140.453 114.472c0 .51-.423.918-.93.918h-18.246a.92.92 0 0 1-.933-.918c0-.52.413-.94.933-.94h18.245c.508-.002.93.418.93.94z"/><path opacity=".1" d="M180.928 127.223L79.025 204.45h101.902c5.55 0 10.034-4.486 10.034-10.043v-57.14c.002-5.548-4.483-10.044-10.032-10.044z"/></g></g><path opacity=".3" d="M76.52 174.093c.106.326.223.647.333.974a114.498 114.498 0 0 0 17.088 33.02c0-.003-.002-.003-.002-.003.003.006.008.01.01.015.404.54.835 1.06 1.247 1.595.508.65 1.01 1.308 1.53 1.946.79.976 1.6 1.933 2.42 2.88.07.08.14.164.207.245l.01.003a115.47 115.47 0 0 0 16.826 15.82h66.697a83.373 83.373 0 0 0 10.363-10.143c.004 0 .01 0 .01-.003.037-.043.07-.084.104-.127a82.398 82.398 0 0 0 4.017-5.1c.012-.016.026-.03.038-.048-.003 0-.005 0-.006.004a82.593 82.593 0 0 0 2.773-4.078v.002c.007-.01.01-.02.015-.025a82.565 82.565 0 0 0 8.674-18.134c.002 0 .005-.005.008-.007.156-.478.323-.936.48-1.42h-.006c.23-.736.438-1.483.648-2.23.093-.322.188-.646.277-.97.224-.817.43-1.64.626-2.464.113-.476.225-.952.33-1.43.16-.735.314-1.472.457-2.214.112-.588.217-1.18.315-1.772a81.87 81.87 0 0 0 .323-2.012c.1-.692.183-1.39.266-2.088.07-.602.147-1.197.204-1.803.08-.834.137-1.675.194-2.518.03-.485.076-.97.1-1.458a82.853 82.853 0 0 0-3.934-29.622h.01c-.178-.536-.36-1.074-.545-1.61-.003-.002-.01-.004-.012-.01a82.77 82.77 0 0 0-13.44-24.41c.005 0 .01.002.015.004-.05-.062-.104-.124-.154-.186a84.29 84.29 0 0 0-1.595-1.933c-.215-.255-.437-.503-.654-.755a69.164 69.164 0 0 0-1.484-1.677l-.08-.092-.01-.004c-11.64-12.618-27.138-21.616-44.628-25.116h-.002l-.056-.01a80.046 80.046 0 0 0-3.887-.683c-.424-.063-.853-.105-1.28-.163-.924-.123-1.845-.254-2.78-.347-.728-.074-1.467-.114-2.2-.168-.647-.05-1.292-.112-1.944-.147a86.634 86.634 0 0 0-4.214-.105c-1.522 0-3.033.048-4.533.13-.233.01-.46.036-.69.05-1.306.08-2.605.19-3.895.328-.125.014-.247.034-.37.05-1.413.16-2.813.356-4.205.586-.008.003-.02.004-.024.005-14.767 2.46-28.188 8.842-39.22 18-.16.474-.343.936-.496 1.41l-.008.026a114.72 114.72 0 0 0-5.578 35.377c0 12.065 1.87 23.69 5.317 34.613z"/><g><path fill="#76D9FC" d="M121.578 230.586H261.49c27.306-21 44.907-53.993 44.907-91.103 0-63.443-51.42-114.873-114.86-114.873S76.66 76.04 76.66 139.483c0 37.11 17.608 70.104 44.918 91.103z"/><path fill-rule="evenodd" clip-rule="evenodd" fill="#00A936" d="M117.39 161.936c-.632-.266-1.51-.44-2.093-.517-.772-.095-1.347-.12-1.87 0-1.564.46-1.67 2.092 2.574 4.647 1.137 1.51 3.198 2.892 5.152 2.138 1.133-3.225-1.223-5.184-3.764-6.062 0-.207.024-.144 0-.207zM135.15 129.4c.184.167.306.432.47.46h.24c1.143.324 2.256-.83 1.39-.905-.345-.06-1.002.03-2.1.444zM161.758 119.37c-1.816.308-2.26 1.524 1.65 4.214.48-.134 3.844-.89 1.874 1.144 6.073-3.624-.424-5.908-3.524-5.357zM161.758 93.42c6.536-2.655 8.042-19.872.257-19.366-.503 0-1.008.25-1.646.49 3.256 6.005-4.262 13.656 1.388 18.877zM236.807 107.686c.52-3.59-5.197-6.232-7.768-6.084-1.497.1-1.793 1.175.98 3.755-2.59 6.115 4.31 6.443 6.787 2.33zM178.36 62.862c1.884-.88 2.786-4.01 0-4.01-.508-.133-.89-.265-1.395-.24-.502.02-1.01.195-1.37.24-5.515 1.1-3.846 10.24 2.766 4.01z"/><path fill-rule="evenodd" clip-rule="evenodd" fill="#00A936" d="M186.08 60.724c-7.977 1.004-16.026 8.717-8.608 16.342 5.312 6.633-7.672 20.173 4.655 23.648 4.89-10.94 18.272-19.612 14.963-32.95-1.38-5.695-6.194-7.653-11.01-7.04z"/><path fill="#00A936" d="M105.982 182.658c4.89 6.13 2.537 13.184 2.163 19.89-.13.046.063.208.063.237-.252 4.062.386 7.94 3.824 11.43 4.447 5.74 10.403 10.598 14.913 16.37H195.9c-.004-8.865-15.347-14.775-23.585-11.908-11.814-7.842-20.36-19.856-33.67-25.704-10.828-10.506-35.245-3.976-34.8-23.852 1.13-9.437-6.45-13.996-12.135-18.43-4.372-14.608 22.27-19.98 22.66-3.985 8.772-.46 11.843-15.76 21.972-17.97 5.216-4.526 19.337.34 14.23-8.905 5.045-4.797 19.85-4.634 12.606-15.854-2.43-10.94-15.87-16.225-20.296-3.767-12.174 3.258-7.263-23.146 5.12-19.63 8.977.52 7.756-7.285 2.315-9.794 0-.384-.12-.6-.458-.254-1-.368-2.043-.757-3.27-.693-12.14-6.71 12.15-23.814-3.94-29.23-17.66 15.08-44.587 38.813-55.37 60.99-4.87 13.904-4.053 27.903-3.488 42.523 4.942 14.16 14.55 25.84 22.19 38.535zM279.067 213.77c17.017-20.04 27.33-45.938 27.33-74.286 0-3.168-.22-6.28-.473-9.384-.08-.775-.14-1.56-.23-2.33-6.56 3.593-18.24-16.163-6.294-6.77 2.33-.16 3.803-.834 4.904-1.843-1.38-7.196-3.245-14.172-5.87-20.824-1.173-1.393-2.302-2.7-3.264-3.486.083-1.436-.06-2.818-.235-4.197-.056-.076.07-.18 0-.256-18.725-38.533-58.25-65.146-103.947-65.146-3.12 0-6.29.193-9.365.45-1.6.34-3.36.544-5.16.705-.61.062-1.23.137-1.84.24-6.447.906-12.61 2.03-18.664 3.95 15.788-1.16 32.004-.742 46.254 6.324 3.756 12.097 26.304.23 25.215 13.756.175.193.52.505.71.73-.356.264.26 2.73.712.665 3.896 4.412 12.093 13.554 3.49 12.412-11.408-1.56-8.443 20.912-.227 24.995 7.834 4.213 12.233-4.246 4.188-8.403-1.085-10.54 17.568 6.473 9.333 12.11-.32.23-.593.492-.91.73.376-1.514-.54-.09-.513.252-9.36 6.785-4.02 22.755-7.658 33.396-6.48 14.386 16.208 8.042 12.825-3.28-4.152-10.42 17.252-5.668 12.618-13.07 12.988 6.882 11.764-11.61 6.334-17.788 2.536-9.882 9.208 1.16 6.053 6.547.51 5.094 4.9 6.264 8.427 7.717.163.12.342.137.69.224 3.08 1.47 4.93 3.355 1.604 9.144-3.818 12.856-16.744 13.566-27.31 11.19-10.694 4.427-12.68 17.41-18.703 26.157-5.984 10.922-10.955 27.012-.21 36.677 10.272 9.867 22.086 1.302 30.606-5.375 16.336-2.117 17.833 17.118 9.794 26.91-.084.443-.153.787-.217 1.158z"/><g opacity=".2" fill="#010000"><path d="M82.246 104.08c-.028.09-.047.15-.068.222 1.062-.057 2-.13 2-.222h-1.932zM288.55 200.93h-.122c0 .09-.026.18-.036.27.054-.092.117-.18.16-.27z"/><path d="M94.186 140.98c.13 12.84 2.03 25.174 5.4 36.694-13.54-1.93-15.312-3.7-15.492-3.95a.804.804 0 0 1 .085.368h-2.202c.34 1.04.698 2.082 1.058 3.104 1.59.9 4.062 1.692 7.607 2.447 2.776.592 6.14 1.164 10.084 1.69 4.098 12.62 9.99 24.152 17.303 34.188-8.136-2.214-14.465-4.768-18.634-7.438 1.717 2.302 3.538 4.515 5.413 6.68 4.966 2.076 10.598 3.745 15.845 5.035.26.058.526.115.787.19a106.41 106.41 0 0 0 9.82 10.598h5.167c-3.313-2.88-6.474-6-9.44-9.363 9.85 2.03 21.072 3.56 33.125 4.524a104.79 104.79 0 0 0 2.28 4.84h3.858a94.66 94.66 0 0 1-2.25-4.54c8.204.566 16.755.854 25.482.904v3.635h3.43v-3.635c8.745-.05 17.295-.354 25.495-.923a94.488 94.488 0 0 1-2.257 4.558h3.872c.782-1.55 1.55-3.163 2.293-4.85 12.06-.98 23.293-2.53 33.15-4.578a100.41 100.41 0 0 1-9.496 9.428h5.16a106.206 106.206 0 0 0 9.887-10.673 5.85 5.85 0 0 1 .504-.115c5.757-1.412 11.974-3.287 17.273-5.658a123.786 123.786 0 0 0 5.758-7.3c-3.97 3.086-10.88 6.064-20.117 8.603 7.287-10.03 13.184-21.564 17.27-34.164 3.73-.523 6.957-1.072 9.626-1.636 4.944-1.067 7.82-2.18 9.09-3.59.22-.655.447-1.29.666-1.962h-3.3c0-.193.065-.345.097-.368-.194.25-1.92 1.975-15.042 3.886 3.365-11.5 5.245-23.82 5.383-36.63h17.5v-3.472h-17.5c-.18-12.946-2.146-25.373-5.613-36.95 13.26 1.915 15 3.655 15.183 3.894-.034-.03-.104-.167-.104-.372h3.136c-.246-.742-.5-1.485-.757-2.228-1.387-1.276-4.196-2.316-8.824-3.31-2.703-.578-5.98-1.145-9.793-1.647C277.04 83.55 270.6 71.41 262.577 61.03c8.048 2.07 14.462 4.49 18.895 7.023-1.762-2.192-3.573-4.346-5.49-6.428-4.594-1.81-9.644-3.28-14.387-4.438-.865-.22-1.75-.414-2.622-.625-12.245-14.28-27.63-24.726-44.784-29.71a114.632 114.632 0 0 0-22.65-2.243c-8.61 0-16.995.98-25.08 2.778-16.42 5.178-31.172 15.373-42.984 29.147-.927.223-1.854.432-2.75.65-4.334 1.056-8.933 2.378-13.197 3.984a115.738 115.738 0 0 0-5.35 6.155c4.38-2.286 10.36-4.45 17.68-6.337-8.005 10.377-14.445 22.48-18.88 35.832-4.05.53-7.506 1.11-10.335 1.72-3.315.712-5.693 1.44-7.28 2.286-.335.906-.64 1.808-.927 2.716 3.25-.763 8.993-1.872 17.39-3.062-3.476 11.598-5.455 24.047-5.632 37.026h-17.47c-.02.648-.065 1.303-.065 1.975 0 .504.035.992.046 1.5h17.48zm164.916 75.8c-10.232 2.425-22.228 4.22-35.274 5.33.162-.416.345-.816.5-1.243 4.113-10.512 7.334-22.7 9.547-35.955 12.545-.5 24.052-1.197 34-2.104 3.64-.332 6.99-.688 10.058-1.04-4.435 13.08-10.855 24.923-18.83 35.012zm20.02-38.68c-3.85.49-8.47.98-14.04 1.473-9.103.756-19.47 1.38-30.633 1.838 1.943-12.73 2.984-26.39 3.055-40.428h47.29c-.138 13.03-2.136 25.51-5.673 37.117zm5.666-40.59h-47.283c-.09-14.162-1.187-27.91-3.182-40.732 11.198.443 21.58 1.063 30.682 1.84 5.5.475 10.064.968 13.867 1.437 3.653 11.7 5.73 24.3 5.916 37.454zm-27.66-77.8c8.726 10.41 15.747 22.864 20.544 36.697-3.018-.375-6.308-.7-9.887-1.042-9.944-.89-21.486-1.6-34.04-2.09-2.21-12.95-5.386-24.88-9.418-35.194a100.84 100.84 0 0 0-1.342-3.294c12.528 1.055 24.12 2.7 34.142 4.925zm-3.864-4.348c-9.582-1.88-20.36-3.308-31.887-4.197-4.985-10.72-10.78-18.514-17.058-23.022 18.614 3.146 35.51 12.9 48.944 27.22zm-60.35-28.245c8.926.938 17.445 9.233 24.522 23.765a396.03 396.03 0 0 0-24.52-.846v-22.92zm0 26.406c9 .028 17.788.36 26.193.968.7 1.57 1.374 3.19 2.043 4.88 3.87 9.9 6.93 21.333 9.1 33.77-11.773-.417-24.367-.64-37.335-.666v-38.95zm0 42.437c13.147.03 25.966.27 37.927.696 2.035 12.812 3.142 26.612 3.24 40.853h-41.165V95.96zm0 45.02h41.167c-.06 14.112-1.142 27.813-3.12 40.55-12 .445-24.858.683-38.045.683V140.98zm0 44.72c13.016-.01 25.65-.238 37.47-.655-2.187 12.724-5.285 24.42-9.233 34.527-.387.98-.754 1.915-1.153 2.85-8.674.654-17.77.996-27.08 1.04V185.7zm-69.56 31.157c-7.97-10.097-14.41-21.955-18.865-35.048 2.948.36 6.146.686 9.606.997 10.055.92 21.73 1.63 34.442 2.126 2.214 13.25 5.436 25.422 9.536 35.934.174.427.35.84.512 1.258-13.018-1.094-24.983-2.88-35.233-5.268zm66.13 6.604c-9.29-.028-18.376-.37-27.057-1.01-.392-.933-.78-1.897-1.16-2.878-3.953-10.092-7.048-21.786-9.235-34.51 11.815.4 24.458.638 37.453.638v37.76zm0-41.247c-13.177 0-26.03-.237-38.03-.664-1.974-12.742-3.057-26.44-3.122-40.568h41.153v41.23zm0-44.704h-41.152c.096-14.24 1.207-28.056 3.256-40.882 11.96-.417 24.77-.655 37.897-.668v41.55zm0-45.036c-12.95.016-25.536.234-37.32.647 2.16-12.432 5.23-23.85 9.104-33.75.663-1.706 1.34-3.326 2.04-4.895 8.4-.593 17.2-.924 26.178-.952v38.95zm0-42.438c-8.382.028-16.603.312-24.516.846 7.092-14.53 15.608-22.827 24.517-23.765v22.92zm-11.388-21.893c-6.277 4.51-12.064 12.303-17.062 23.022-11.518.89-22.282 2.282-31.872 4.172 13.45-14.31 30.326-24.06 48.934-27.194zm-52.794 31.542c10.02-2.212 21.606-3.862 34.134-4.898a81.316 81.316 0 0 0-1.36 3.295c-4.02 10.314-7.185 22.22-9.413 35.176-12.756.475-24.48 1.206-34.578 2.108a429.73 429.73 0 0 0-9.327.976c4.8-13.817 11.842-26.266 20.544-36.657zm-21.738 40.298c3.685-.447 8.08-.905 13.314-1.367 9.248-.79 19.81-1.407 31.21-1.857-1.99 12.828-3.09 26.576-3.19 40.75H97.61c.196-13.183 2.287-25.814 5.954-37.527zM144.9 140.98c.07 14.06 1.128 27.698 3.065 40.445-11.343-.45-21.854-1.068-31.08-1.854-5.352-.472-9.82-.935-13.57-1.41-3.554-11.623-5.57-24.13-5.705-37.18h47.29z"/></g><g><path fill="#EAC907" d="M261.73 85.103H120.667c-7.676 0-13.9 6.226-13.9 13.903v79.097c0 7.695 6.225 13.903 13.9 13.903H261.73c7.683 0 13.89-6.208 13.89-13.903V99.006c0-7.678-6.207-13.903-13.89-13.903zm-51.197 22.722h-38.68a5.926 5.926 0 0 1-5.924-5.925c0-3.254 2.652-5.908 5.923-5.908h38.68a5.912 5.912 0 0 1 5.922 5.908 5.916 5.916 0 0 1-5.922 5.925z"/><path fill="#EFEFEF" d="M265.12 168.504c0 7.687-6.223 13.9-13.9 13.9H131.166c-7.68 0-13.902-6.214-13.902-13.9v-35.462c0-7.668 6.224-13.894 13.902-13.894H251.22c7.678 0 13.9 6.226 13.9 13.894v35.462z"/><path fill="#29353F" d="M162.148 134.832a3.178 3.178 0 0 0-3.84 2.157l-4.87 16.997-4.878-16.998c-.404-1.4-1.723-2.242-3.136-2.206-1.422-.036-2.74.806-3.127 2.205l-4.893 16.997-4.876-16.998c-.464-1.625-2.175-2.59-3.84-2.158a2.973 2.973 0 0 0-2.142 3.707l7.722 26.935c.392 1.396 1.724 2.233 3.136 2.19 1.41.043 2.743-.795 3.147-2.19l4.873-17.007 4.878 17.007c.406 1.396 1.725 2.233 3.137 2.19 1.408.043 2.744-.795 3.13-2.19l7.728-26.936c.477-1.614-.492-3.285-2.147-3.708zM208.55 134.832c-1.648-.432-3.372.533-3.84 2.157l-4.858 16.997-4.89-16.998c-.404-1.4-1.723-2.242-3.133-2.206-1.41-.036-2.744.806-3.15 2.205l-4.874 16.997-4.875-16.998c-.463-1.625-2.173-2.59-3.834-2.158a2.993 2.993 0 0 0-2.16 3.707l7.734 26.935c.408 1.396 1.728 2.233 3.136 2.19 1.41.043 2.744-.795 3.133-2.19l4.89-17.007 4.877 17.007c.39 1.396 1.725 2.233 3.146 2.19 1.396.043 2.73-.795 3.136-2.19l7.71-26.936c.477-1.614-.495-3.285-2.15-3.708zM253.708 134.832c-1.664-.432-3.374.533-3.838 2.157l-4.89 16.997-4.874-16.998c-.403-1.4-1.724-2.242-3.15-2.206-1.41-.036-2.732.806-3.135 2.205l-4.874 16.997-4.872-16.998c-.465-1.625-2.175-2.59-3.84-2.158a2.98 2.98 0 0 0-2.146 3.707l7.725 26.935c.403 1.396 1.726 2.233 3.133 2.19 1.413.043 2.746-.795 3.153-2.19l4.854-17.007 4.89 17.007c.39 1.396 1.726 2.233 3.136 2.19 1.41.043 2.746-.795 3.136-2.19l7.737-26.936c.466-1.614-.494-3.285-2.145-3.708z"/><path opacity=".4" d="M205 96.083l4.678-.09 2.593-10.89-9.055.045z"/><path fill="#29353F" d="M207.294 107.834v-40.97c0-1.377-1.13-2.518-2.504-2.518h-25.934c-1.366 0-2.504 1.14-2.504 2.52v40.968h30.942z"/><path opacity=".1" fill="#FFF" d="M205.703 67.45c0 .707-.586 1.274-1.29 1.274h-25.255c-.72 0-1.29-.567-1.29-1.273 0-.716.57-1.304 1.29-1.304h25.254c.705 0 1.29.588 1.29 1.305z"/><path opacity=".1" d="M261.73 85.103L120.667 192.006H261.73c7.683 0 13.89-6.208 13.89-13.903V99.006c0-7.678-6.207-13.903-13.89-13.903z"/></g></g><path opacity=".3" d="M130.407 199.633c.01.01.018.02.025.03.5.67 1.03 1.313 1.54 1.975.59.755 1.173 1.518 1.78 2.262a141.544 141.544 0 0 0 3.123 3.712c.03.032.057.067.085.1a139.423 139.423 0 0 0 25.47 22.875h99.02a115.712 115.712 0 0 0 17.334-16.44c.004 0 .01-.003.014-.006l.142-.17c.946-1.11 1.867-2.24 2.77-3.38l.075-.098a114.695 114.695 0 0 0 2.714-3.577l.056-.074c-.002.004-.006.005-.008.007a116.547 116.547 0 0 0 3.846-5.653l-.002.006c.013-.02.024-.043.038-.063a114.342 114.342 0 0 0 11.98-25.067l.014-.012c.22-.656.447-1.29.666-1.963h-.01c.317-1.01.6-2.03.892-3.052.134-.465.27-.93.396-1.396.304-1.118.585-2.244.856-3.375a114.85 114.85 0 0 0 1.093-5.053c.157-.82.3-1.645.44-2.47.154-.923.31-1.844.443-2.772.14-.966.254-1.94.37-2.913.097-.824.202-1.644.28-2.472.114-1.165.19-2.34.27-3.516.04-.663.103-1.32.134-1.99.09-1.857.143-3.723.143-5.603a114.82 114.82 0 0 0-5.583-35.403h.014c-.246-.74-.5-1.484-.757-2.227-.004-.005-.012-.01-.016-.014a114.566 114.566 0 0 0-18.603-33.796c.006.002.014.005.02.01-.077-.096-.157-.19-.236-.285-.72-.9-1.45-1.786-2.195-2.663-.294-.345-.595-.685-.892-1.027-.67-.77-1.338-1.542-2.03-2.296l-.137-.157a.064.064 0 0 1-.017-.006c-16.107-17.46-37.56-29.917-61.765-34.762l-.012-.003c-.18-.038-.363-.06-.543-.097-1.62-.316-3.25-.612-4.893-.86-.722-.107-1.456-.18-2.182-.275-1.146-.15-2.287-.315-3.443-.43-1.118-.112-2.25-.177-3.376-.257-.793-.057-1.576-.136-2.372-.177a115.587 115.587 0 0 0-5.842-.15c-2.108 0-4.202.065-6.282.18-.3.015-.594.048-.893.067-1.835.113-3.656.264-5.468.462-.135.013-.27.033-.406.05-21.87 2.475-41.855 11.106-58.236 24.095-11.035 19.912-17.348 42.797-17.348 67.174 0 31.112 10.23 59.836 27.507 82.995 0 0 0-.002-.003-.002z"/><g><path fill="#76D9FC" d="M323.58 0H176.127c-38.157 24.773-63.4 67.755-63.4 116.638 0 47.16 23.5 88.826 59.427 113.948H323.58V0z"/><path fill-rule="evenodd" clip-rule="evenodd" fill="#00A936" d="M162 143.8c-.76-.32-1.822-.534-2.53-.625-.934-.112-1.63-.145-2.262 0-1.894.558-2.02 2.533 3.113 5.622 1.375 1.826 3.872 3.502 6.234 2.585 1.37-3.898-1.48-6.268-4.554-7.326 0-.255.028-.177 0-.255zM183.487 104.438c.225.203.37.523.57.558h.293c1.38.393 2.725-1.006 1.677-1.093-.414-.075-1.212.035-2.54.535zM215.677 92.307c-2.198.373-2.73 1.844 1.998 5.097.582-.162 4.65-1.078 2.266 1.385 7.347-4.384-.51-7.148-4.263-6.483zM215.677 60.915c7.907-3.215 9.73-24.045.312-23.434-.61 0-1.222.304-1.993.59 3.94 7.273-5.15 16.527 1.68 22.845zM306.475 78.17c.627-4.344-6.288-7.544-9.4-7.363-1.812.127-2.167 1.422 1.187 4.545-3.133 7.397 5.215 7.794 8.213 2.818zM235.764 23.94c2.28-1.064 3.37-4.85 0-4.85-.612-.16-1.074-.32-1.686-.29-.608.022-1.222.238-1.66.29-6.674 1.33-4.65 12.39 3.346 4.85z"/><path fill-rule="evenodd" clip-rule="evenodd" fill="#00A936" d="M245.104 21.355c-9.65 1.218-19.39 10.544-10.415 19.767 6.426 8.027-9.284 24.408 5.63 28.612 5.918-13.236 22.105-23.725 18.102-39.867-1.67-6.883-7.494-9.25-13.318-8.512z"/><path fill="#00A936" d="M228.452 212.448c-14.295-9.49-24.634-24.022-40.736-31.097-13.1-12.712-42.64-4.81-42.1-28.856 1.367-11.42-7.803-16.935-14.68-22.303-5.29-17.67 26.942-24.168 27.413-4.814 10.613-.555 14.33-19.067 26.582-21.74 6.31-5.478 23.392.41 17.214-10.775 6.104-5.803 24.013-5.603 15.252-19.18-2.94-13.233-19.2-19.626-24.557-4.558-14.724 3.947-8.783-28 6.197-23.742 10.862.63 9.385-8.813 2.802-11.848 0-.468-.145-.725-.557-.31-1.21-.448-2.467-.914-3.954-.842-12.898-7.127 8.19-23.952.335-32.38h-8.575c-21.275 18.295-51.155 45.392-63.512 70.806-5.895 16.827-4.906 33.76-4.223 51.45 5.976 17.13 17.6 31.258 26.846 46.615 5.916 7.417 3.07 15.95 2.618 24.064-.155.054.076.247.076.284-.306 4.917.467 9.606 4.626 13.83 6.31 8.145 15.136 14.816 20.697 23.536h80.025c5.003-12.72-16.71-21.997-27.79-18.136zM323.58 91.116V0h-46.155c8.787.646 18.503-.725 17.704 9.196.212.236.624.61.86.885-.434.317.313 3.3.86.806 4.712 5.333 14.63 16.396 4.22 15.015-13.8-1.887-10.213 25.3-.27 30.238 9.475 5.1 14.8-5.135 5.063-10.164-1.314-12.752 21.254 7.83 11.295 14.654-.39.27-.72.59-1.104.878.457-1.83-.654-.108-.62.308-11.325 8.207-4.866 27.526-9.264 40.4-7.838 17.402 19.605 9.73 15.516-3.966-1.453-3.647-.318-5.757 1.893-7.132zM323.58 109.164c-6.232 7.17-8.97 17.725-14.34 25.518-7.238 13.216-13.25 32.68-.256 44.37 4.704 4.52 9.674 5.837 14.595 5.298v-75.186z"/><g opacity=".2" fill="#010000"><path d="M119.485 73.808c-.033.11-.06.18-.086.266 1.285-.068 2.423-.156 2.423-.266h-2.338zM323.58 6.204A123.06 123.06 0 0 0 316.41 0h-6.887a116.782 116.782 0 0 1 14.056 11.99V6.204z"/><path d="M323.58 212.225c-9.998 1.898-21.033 3.372-32.808 4.375.193-.505.412-.987.602-1.504 4.975-12.72 8.874-27.46 11.552-43.498a1010.49 1010.49 0 0 0 20.653-1.023v-4.223c-6.35.386-13.024.725-19.96 1.01 2.353-15.404 3.61-31.927 3.697-48.91h16.262v-4.203h-16.263c-.108-17.13-1.437-33.763-3.85-49.278a956.29 956.29 0 0 1 20.11 1.003V61.76c-6.605-.4-13.565-.744-20.806-1.025-2.68-15.664-6.52-30.1-11.397-42.577a126.72 126.72 0 0 0-1.62-3.987c12.144 1.024 23.532 2.52 33.825 4.455v-4.28c-10.88-2.013-22.938-3.56-35.773-4.552A110.317 110.317 0 0 0 282.663 0h-4.854c1.802 2.856 3.55 6 5.228 9.446a482.33 482.33 0 0 0-29.666-1.02V0h-4.15v8.424c-10.14.036-20.085.38-29.658 1.02C221.246 6 222.996 2.855 224.8 0h-4.85c-1.78 3-3.5 6.26-5.147 9.792-13.932 1.076-26.96 2.762-38.56 5.05 5.21-5.543 10.85-10.512 16.84-14.842h-6.887a124.748 124.748 0 0 0-16.836 16.292c-1.12.267-2.24.52-3.33.79-5.236 1.27-10.802 2.87-15.962 4.813a140.812 140.812 0 0 0-6.47 7.45c5.298-2.766 12.53-5.386 21.386-7.667-9.682 12.553-17.474 27.198-22.836 43.35-4.9.645-9.083 1.343-12.505 2.08-4.01.863-6.89 1.74-8.81 2.765a72.026 72.026 0 0 0-1.12 3.29c3.932-.924 10.882-2.267 21.038-3.71-4.202 14.032-6.6 29.094-6.813 44.795h-21.13c-.025.787-.08 1.577-.08 2.39 0 .61.042 1.202.055 1.812h21.146c.16 15.532 2.458 30.456 6.537 44.39-16.383-2.335-18.525-4.473-18.745-4.776.02.03.104.213.104.447h-2.66c.406 1.26.843 2.515 1.277 3.756 1.924 1.09 4.918 2.045 9.204 2.957 3.362.718 7.427 1.406 12.2 2.047 4.957 15.27 12.088 29.22 20.93 41.36-9.842-2.678-17.5-5.77-22.543-8.997 2.078 2.78 4.282 5.457 6.555 8.078 6.006 2.515 12.82 4.533 19.167 6.088.314.074.637.144.952.237a127.236 127.236 0 0 0 16.06 16.55h6.58a119.94 119.94 0 0 1-15.927-15.058c11.915 2.456 25.494 4.305 40.074 5.474 1.51 3.43 3.088 6.624 4.724 9.586h4.76a108.76 108.76 0 0 1-4.778-9.227c9.928.684 20.274 1.037 30.828 1.095v8.13h4.15v-8.13c10.578-.058 20.92-.428 30.845-1.116a109.087 109.087 0 0 1-4.785 9.246h4.77a119.374 119.374 0 0 0 4.74-9.602c12.408-1.01 24.083-2.52 34.636-4.47v-4.29zM171.57 20.1c12.126-2.677 26.14-4.673 41.3-5.93a101.928 101.928 0 0 0-1.65 3.987c-4.858 12.478-8.692 26.883-11.386 42.558-15.434.572-29.617 1.458-41.832 2.552-4.046.38-7.813.774-11.285 1.18C152.53 47.73 161.045 32.67 171.57 20.1zm-26.298 48.75c4.464-.54 9.777-1.095 16.11-1.65 11.19-.957 23.97-1.703 37.757-2.248-2.408 15.52-3.737 32.15-3.853 49.297h-57.21c.232-15.95 2.762-31.23 7.197-45.4zm-7.198 49.6h57.21c.088 17.005 1.363 33.507 3.708 48.932-13.722-.543-26.442-1.293-37.605-2.245-6.47-.574-11.877-1.133-16.413-1.707-4.3-14.06-6.742-29.196-6.9-44.98zm31.144 91.796c-9.646-12.213-17.438-26.56-22.824-42.4 3.565.437 7.436.827 11.622 1.205 12.162 1.115 26.29 1.978 41.666 2.572 2.683 16.03 6.576 30.755 11.537 43.474.212.517.426 1.018.62 1.526-15.748-1.33-30.223-3.486-42.62-6.376zm80.003 7.99c-11.24-.037-22.232-.45-32.733-1.222-.477-1.13-.943-2.3-1.402-3.484-4.784-12.208-8.526-26.36-11.173-41.75a1348.6 1348.6 0 0 0 45.31.773v45.682zm0-49.902c-15.944 0-31.492-.29-46.008-.808-2.393-15.41-3.7-31.984-3.78-49.076h49.788v49.884zm0-54.086h-49.788c.116-17.225 1.46-33.94 3.938-49.456 14.473-.505 29.97-.79 45.85-.808v50.264zm0-54.483c-15.666.02-30.895.286-45.15.787 2.612-15.044 6.326-28.855 11.015-40.832.8-2.065 1.62-4.022 2.468-5.924a476.22 476.22 0 0 1 31.668-1.15v47.12zm4.15-47.12c10.885.037 21.517.437 31.687 1.17.845 1.897 1.664 3.86 2.47 5.905 4.682 11.977 8.385 25.807 11.01 40.854-14.243-.508-29.478-.775-45.167-.81v-47.12zm0 51.34c15.905.035 31.41.32 45.883.84 2.46 15.5 3.796 32.198 3.918 49.423h-49.802V63.984zm0 54.465h49.8c-.072 17.072-1.378 33.647-3.775 49.055-14.516.54-30.07.83-46.025.83V118.45zm34.157 95.08a133.335 133.335 0 0 1-1.397 3.446c-10.488.792-21.498 1.206-32.76 1.26v-45.683a1334.21 1334.21 0 0 0 45.327-.792c-2.642 15.39-6.393 29.542-11.17 41.77zM323.58 221.224c-3.357 3.346-6.86 6.487-10.525 9.362h6.583a114.65 114.65 0 0 0 3.94-3.56v-5.802z"/></g></g><path opacity=".3" fill="#010000" d="M323.58 56.762c-.114-.002-.225-.018-.338-.018h-65.86V34.682c0-1.67-1.364-3.048-3.033-3.048h-31.37c-1.653 0-3.03 1.38-3.03 3.048v22.062h-67.366c-9.29 0-16.82 7.53-16.82 16.817v95.692c0 9.308 7.53 16.82 16.82 16.82h170.66c.112 0 .223-.016.336-.018V56.762zm-103.63 27.47h-5.443a7.17 7.17 0 0 1-7.168-7.167c0-3.937 3.21-7.15 7.167-7.15h5.442v14.316zm41.35 0h-3.92V69.97l2.887-.054h1.032c3.974 0 7.167 3.213 7.167 7.15a7.16 7.16 0 0 1-7.168 7.165z"/><g><path fill="#FF5148" d="M323.58 50.867c-.114-.002-.225-.018-.338-.018h-170.66c-9.29 0-16.818 7.53-16.818 16.816v95.69c0 9.31 7.53 16.82 16.82 16.82H323.24c.113 0 .224-.015.337-.017V50.866zm-62.28 27.47h-46.793a7.17 7.17 0 0 1-7.168-7.166c0-3.935 3.21-7.147 7.167-7.147H261.3c3.974 0 7.167 3.213 7.167 7.148a7.16 7.16 0 0 1-7.168 7.167z"/><path fill="#EFEFEF" d="M323.58 98.26c-3.085-3.795-7.785-6.224-13.06-6.224H165.285c-9.29 0-16.823 7.53-16.823 16.812v42.9c0 9.3 7.534 16.818 16.824 16.818H310.52c5.274 0 9.975-2.426 13.06-6.22V98.26z"/><path fill="#29353F" d="M202.766 111.016c-1.996-.528-4.064.643-4.643 2.604l-5.898 20.564-5.897-20.564c-.488-1.688-2.084-2.713-3.79-2.668-1.724-.045-3.32.98-3.792 2.668l-5.914 20.564-5.897-20.564c-.564-1.96-2.632-3.132-4.646-2.604a3.596 3.596 0 0 0-2.597 4.48l9.346 32.587c.47 1.688 2.085 2.705 3.793 2.65 1.704.055 3.32-.963 3.81-2.65l5.896-20.574 5.896 20.573c.49 1.688 2.088 2.705 3.79 2.65 1.708.055 3.324-.963 3.792-2.65l9.347-32.588c.577-1.95-.6-3.972-2.6-4.48zM258.904 111.016c-1.996-.528-4.083.643-4.647 2.604l-5.878 20.564-5.915-20.564c-.49-1.688-2.088-2.713-3.79-2.668-1.708-.045-3.32.98-3.81 2.668l-5.9 20.564-5.896-20.564c-.562-1.96-2.63-3.132-4.644-2.604a3.616 3.616 0 0 0-2.614 4.48l9.363 32.587c.49 1.688 2.088 2.705 3.79 2.65 1.71.055 3.32-.963 3.792-2.65l5.917-20.574 5.897 20.573c.47 1.688 2.085 2.705 3.81 2.65 1.687.055 3.303-.963 3.794-2.65l9.323-32.588c.58-1.95-.598-3.972-2.593-4.48zM313.534 111.016c-2.014-.528-4.083.643-4.643 2.604l-5.917 20.564-5.896-20.564c-.488-1.688-2.085-2.713-3.81-2.668-1.705-.045-3.3.98-3.792 2.668l-5.897 20.564-5.895-20.564c-.564-1.96-2.633-3.132-4.647-2.604-1.994.508-3.155 2.53-2.594 4.48l9.344 32.587c.49 1.688 2.087 2.705 3.792 2.65 1.706.055 3.32-.963 3.81-2.65l5.88-20.574 5.916 20.573c.472 1.688 2.086 2.705 3.79 2.65 1.708.055 3.32-.963 3.792-2.65l9.363-32.588c.56-1.95-.6-3.972-2.596-4.48z"/><path opacity=".4" d="M254.603 64.13l5.664-.108 3.137-13.172-10.958.053z"/><path fill="#29353F" d="M257.38 78.348v-49.56c0-1.67-1.362-3.05-3.03-3.05h-31.37c-1.653 0-3.03 1.38-3.03 3.05v49.56h37.43z"/><path opacity=".1" fill="#FFF" d="M255.458 29.496c0 .85-.71 1.542-1.562 1.542H223.34c-.87 0-1.558-.69-1.558-1.542 0-.87.688-1.58 1.558-1.58h30.556c.852 0 1.562.71 1.562 1.58z"/><path opacity=".1" d="M323.58 50.867c-.114-.002-.225-.018-.338-.018l-170.66 129.33h170.66c.113 0 .224-.017.337-.02V50.868z"/></g></svg>