<svg xmlns="http://www.w3.org/2000/svg" width="24" height="24" viewBox="0 0 24 24"><title>Вывести средства</title><rect width="24" height="24" fill="none"/><path d="M11,10.2c0-.5-.5-.9-1.3-1.2A11.88,11.88,0,0,1,6,9.6a9.37,9.37,0,0,1-3.7-.7c-.8.4-1.3.8-1.3,1.3,0,1,2.2,1.8,5,1.8S11,11.2,11,10.2Z" fill="#515151"/><path d="M6,8.3c2.8,0,5-.8,5-1.8,0-.5-.5-.9-1.3-1.2A9.53,9.53,0,0,1,6,5.9a9.53,9.53,0,0,1-3.7-.6C1.5,5.6,1,6,1,6.5,1,7.5,3.2,8.3,6,8.3Z" fill="#515151"/><ellipse cx="6" cy="2.8" rx="5" ry="1.8" fill="#515151"/><polygon points="19 14 19 5 13 5 13 14 7.9 14 15.9 23.1 23.9 14 19 14" fill="#515151"/></svg>