<svg xmlns="http://www.w3.org/2000/svg" width="24" height="24" viewBox="0 0 24 24"><title>Сбросить пароль</title><rect width="24" height="24" fill="none"/><path d="M22.36,12.08A11,11,0,0,0,12.2,1.28V0L8,2.48,12.2,5V3.44a8.45,8.45,0,0,1,8,8.56,8.69,8.69,0,0,1-2.56,6.24h0v.08h0a1,1,0,0,0-.24.72,1.09,1.09,0,0,0,1.12,1.12.87.87,0,0,0,.8-.56A10.51,10.51,0,0,0,22.36,12.08Z" fill="#575756"/><path d="M12.2,20.64h.24c-.32,0-.48.08-.72.08a8.71,8.71,0,0,1-8.64-8.64,8.75,8.75,0,0,1,4-7.28h0a1,1,0,0,0,.4-.8A1.09,1.09,0,0,0,6.36,2.88a1.42,1.42,0,0,0-.8.32h0A11,11,0,0,0,1,12.08a10.65,10.65,0,0,0,10.56,10.8h.64V24l4.24-2.48L12.2,19Z" fill="#575756"/><path d="M15.75,10.56V9.31a3.75,3.75,0,0,0-7.5,0v1.25A1.25,1.25,0,0,0,7,11.81v4.38a1.25,1.25,0,0,0,1.25,1.25h7.5A1.25,1.25,0,0,0,17,16.19V11.81A1.25,1.25,0,0,0,15.75,10.56Zm-3.12,3.19v1.81a.63.63,0,0,1-1.25,0V13.75a1,1,0,0,1-.31-.69.94.94,0,0,1,1.88,0A1,1,0,0,1,12.63,13.75Zm1.25-3.19H10.13V9.44a1.88,1.88,0,1,1,3.75,0Z" fill="#515151"/></svg>