<svg xmlns="http://www.w3.org/2000/svg" width="24" height="24" viewBox="0 0 24 24"><title>Удалить</title><rect width="24" height="24" fill="none"/><path d="M6.273,8.364V18.545a2.546,2.546,0,0,0,2.545,2.545h6.364a2.546,2.546,0,0,0,2.545-2.545V8.364Zm3.818,10.182H8.818V10.909h1.273Zm2.545,0H11.364V10.909h1.273Zm2.545,0H13.909V10.909h1.273Z" fill="#515151"/><path d="M19,5.818a1.272,1.272,0,0,1-1.273,1.273H6.273A1.272,1.272,0,0,1,5,5.818H5A1.272,1.272,0,0,1,6.273,4.545H17.727A1.272,1.272,0,0,1,19,5.818Z" fill="#515151"/><path d="M12,2A3.182,3.182,0,0,0,8.818,5.182h6.364A3.182,3.182,0,0,0,12,2Z" fill="#515151"/></svg>