<svg xmlns="http://www.w3.org/2000/svg" width="78" height="78" viewBox="0 0 78 78"><g fill="#0068BA"><path d="M30.247 46.044c-.748 0-1.093.506-1.093 1.392v3.395c0 .863.345 1.335 1.093 1.335.68 0 1.06-.46 1.06-1.334v-3.37c-.002-.887-.38-1.416-1.06-1.416zM32.453 36.618c.36 0 .675-.286.675-.84v-2.727c0-.552-.316-.876-.675-.876-.33 0-.646.324-.646.877v2.73c0 .552.316.838.646.838z"/><path d="M73.052 40.745l3.99-3.777-4.364-3.34 3.12-4.526-4.965-2.36 2.11-5.075-5.347-1.277 1.01-5.402-5.496-.138-.137-5.495-5.402 1.01-1.276-5.348-5.075 2.11-2.36-4.963-4.526 3.12-3.34-4.367-3.78 3.993-4.174-3.576-2.866 4.69-4.826-2.63L23.52 8.58 18.252 7.01l-.71 5.45-5.48-.44.44 5.48-5.452.71 1.568 5.268-5.185 1.828 2.63 4.828-4.69 2.866 3.575 4.176-3.99 3.777 4.364 3.34-3.12 4.526 4.965 2.36-2.11 5.076 5.346 1.277-1.01 5.402 5.496.137.136 5.495 5.404-1.01 1.275 5.348 5.075-2.11 2.36 4.963 4.525-3.12 3.34 4.367 3.78-3.993 4.174 3.576 2.865-4.69 4.828 2.63 1.828-5.184 5.27 1.567.71-5.448 5.477.438-.438-5.478 5.45-.712-1.568-5.267 5.183-1.828-2.63-4.828 4.692-2.866-3.575-4.175zM39.35 70.38c-17.378 0-31.467-14.088-31.467-31.466S21.973 7.447 39.35 7.447c17.38 0 31.467 14.09 31.467 31.467S56.73 70.38 39.35 70.38z"/><path d="M56.305 38.59c0-.838-.295-1.31-.896-1.31H54.37v2.63h1.037c.6 0 .895-.365.895-1.32z"/><path d="M39.35 10.27c-15.82 0-28.642 12.826-28.642 28.643 0 15.82 12.823 28.642 28.642 28.642 15.818 0 28.642-12.823 28.642-28.642 0-15.817-12.824-28.642-28.642-28.642zm13.406 22.34h2.984c1.498 0 2.1.99 2.1 2.075 0 .813-.437 1.722-1.145 1.863.838.342 1.262.944 1.262 2.053 0 1.476-.637 2.525-1.946 2.525h-3.254V32.61zm-22.01.25c0-1.163.89-1.792 1.707-1.792.862 0 1.738.648 1.738 1.792v3.09c0 1.144-.875 1.773-1.737 1.773-.818 0-1.708-.61-1.708-1.773v-3.09zm0 5.856h3.502v1.125h-3.503v-1.124zm-6.45 11.136h-1.38v3.383h-1.577v-8.307h2.98c1.345 0 2.185 1.093 2.185 2.428 0 1.37-.864 2.496-2.21 2.496zm.146-19.185h-.015c.215 1.354.244 3.72.244 5.112v4.882h-1.837v-13.77h2.125l2.872 10.013h.014c-.215-1.545-.244-3.567-.244-5.13V26.89h1.838v13.772h-2.125l-2.87-9.995zm8.474 19.967c0 2.117-1.07 2.796-2.67 2.796-1.575 0-2.703-.7-2.703-2.796V47.62c0-2.094 1.127-2.842 2.704-2.842 1.6 0 2.67.725 2.67 2.842v3.014zm6.113-3.002h-1.577v-.185c0-1.047-.265-1.403-.932-1.403-.666 0-.954.356-.954 1.403v3.28c0 1.08.276 1.437.943 1.437.632 0 .942-.368.942-1.438v-.45h1.576v.357c0 1.508-.54 2.796-2.508 2.796-2.07 0-2.566-1.3-2.566-2.773v-3.025c0-1.944.875-2.854 2.59-2.854 1.61 0 2.484.91 2.484 2.438v.416zm6.112 0h-1.576v-.185c0-1.047-.265-1.403-.933-1.403-.667 0-.954.356-.954 1.403v3.28c0 1.08.274 1.437.942 1.437.633 0 .943-.368.943-1.438v-.45h1.576v.357c0 1.508-.54 2.796-2.508 2.796-2.07 0-2.565-1.3-2.565-2.773v-3.025c0-1.944.875-2.854 2.59-2.854 1.61 0 2.484.91 2.484 2.438v.416zm.238-6.903h-4.366V25.48h-5.56v-3.032h.58c3.65 0 5.628-1.75 6.174-3.875h3.172V40.73zm6.15 12.504h-1.473v-3.14c0-1.267.035-2.142.196-2.89h-.012l-2.3 6.03h-1.703v-8.308h1.473v3.106c0 .99-.046 2.243-.195 2.934h.012l2.3-6.04h1.703v8.308zm6.446 0h-1.473v-3.14c0-1.267.035-2.142.196-2.89h-.013l-2.3 6.03h-1.704v-8.308h1.473v3.106c0 .99-.046 2.243-.195 2.934h.013l2.3-6.04h1.703v8.308z"/><path d="M23.71 46.16h-.795v2.46h.794c.793 0 1.184-.448 1.184-1.242 0-.782-.39-1.22-1.185-1.22zM56.223 34.91c0-.72-.248-1.085-.98-1.085h-.87v2.24h.848c.708 0 1.003-.424 1.003-1.155z"/></g></svg>