<svg xmlns="http://www.w3.org/2000/svg" width="78" height="78" viewBox="0 0 78 78"><g fill="#0068BA"><path d="M73.052 40.745l3.99-3.777-4.364-3.34 3.12-4.526-4.965-2.36 2.11-5.075-5.348-1.277 1.01-5.402-5.496-.138-.138-5.495-5.402 1.01-1.276-5.348-5.075 2.11-2.36-4.963-4.525 3.12-3.34-4.367-3.78 3.993-4.175-3.576-2.866 4.69-4.826-2.63L23.52 8.58 18.252 7.01l-.71 5.45-5.48-.44.44 5.48-5.452.71 1.568 5.268-5.185 1.828 2.63 4.828-4.69 2.866 3.575 4.176-3.99 3.777 4.364 3.34-3.12 4.525 4.965 2.36-2.11 5.075 5.346 1.277-1.01 5.402 5.496.137.136 5.495 5.404-1.008 1.275 5.346 5.075-2.11 2.36 4.964 4.525-3.12 3.34 4.367 3.78-3.993 4.174 3.577 2.865-4.69 4.827 2.63 1.828-5.184 5.27 1.567.71-5.45 5.478.44-.438-5.48 5.45-.712-1.567-5.267 5.183-1.827-2.63-4.828 4.692-2.866-3.576-4.175zM39.35 70.38c-17.378 0-31.467-14.088-31.467-31.466S21.973 7.447 39.35 7.447c17.38 0 31.466 14.09 31.466 31.467S56.73 70.38 39.35 70.38z"/><path d="M30.08 36.618c.358 0 .674-.286.674-.84v-2.727c0-.552-.316-.876-.675-.876-.33 0-.647.324-.647.877v2.73c0 .552.316.838.646.838zM54.17 50.927h1.606l-.73-4.46zM23.157 46.68h-1.182v2.733h1.22c.652 0 1.29-.318 1.29-1.407 0-1.05-.518-1.327-1.328-1.327z"/><path d="M39.35 10.27c-15.82 0-28.642 12.826-28.642 28.643 0 15.82 12.823 28.642 28.642 28.642 15.818 0 28.642-12.822 28.642-28.642 0-15.817-12.824-28.642-28.642-28.642zm12.718 21.696h1.775l2.398 6.296h.013c-.18-.97-.203-2.243-.203-3.226v-3.07h1.535v8.66H55.81l-2.398-6.286H53.4c.18.84.203 2.34.203 3.214v3.07h-1.535v-8.658zM33.08 22.448h.58c3.65 0 5.628-1.75 6.174-3.875h3.172v22.155H38.64v-15.25h-5.56v-3.03zM28.37 32.86c0-1.163.89-1.792 1.71-1.792.86 0 1.737.648 1.737 1.792v3.09c0 1.144-.876 1.773-1.738 1.773-.82 0-1.71-.61-1.71-1.773v-3.09zm0 5.856h3.504v1.125H28.37v-1.124zM26.65 54.843H24.83c-.358-.292-.438-.956-.438-1.566v-1.102c0-.73-.252-1.395-1.088-1.395h-1.328v4.062h-1.82v-9.585h3.785c1.475 0 2.404 1.103 2.404 2.482 0 1.42-.598 2.15-1.447 2.27 1.05.212 1.314 1.022 1.314 1.712v1.222c0 .876.014 1.606.44 1.606v.293zm.415-14.18h-2.125l-2.87-9.996h-.016c.215 1.354.244 3.72.244 5.112v4.882h-1.838v-13.77h2.125l2.872 10.013h.014c-.216-1.545-.245-3.567-.245-5.13V26.89h1.838v13.772zm6.605 11.605c0 1.726-.903 2.748-3.027 2.748-2.11 0-3.04-.996-3.04-2.748v-7.01h1.82v6.744c0 1.05.358 1.553 1.22 1.553.904 0 1.21-.478 1.21-1.553v-6.744h1.818v7.01zm4.22 2.8c-2.032 0-3.067-1.182-3.067-3.146v-.37h1.74v.37c0 1.34.638 1.687 1.328 1.687.69 0 1.075-.48 1.075-1.076 0-.624-.318-.996-.996-1.434l-1.62-1.062c-.955-.624-1.433-1.434-1.433-2.47 0-1.58 1.168-2.48 2.828-2.48 1.818 0 2.84.98 2.84 2.906v.292h-1.738v-.106c0-1.168-.425-1.633-1.142-1.633-.518 0-.97.278-.97.81 0 .57.227.837.612 1.09l1.858 1.233c1.01.677 1.632 1.26 1.632 2.695 0 1.685-1.035 2.693-2.947 2.693zm6.94 0c-2.032 0-3.067-1.182-3.067-3.146v-.37h1.74v.37c0 1.34.637 1.687 1.327 1.687s1.075-.48 1.075-1.076c0-.624-.318-.996-.995-1.434l-1.62-1.062c-.955-.624-1.434-1.434-1.434-2.47 0-1.58 1.168-2.48 2.828-2.48 1.82 0 2.842.98 2.842 2.906v.292h-1.74v-.106c0-1.168-.424-1.633-1.14-1.633-.52 0-.97.278-.97.81 0 .57.226.837.61 1.09l1.858 1.233c1.01.677 1.633 1.26 1.633 2.695 0 1.685-1.034 2.693-2.946 2.693zm5.864-.225h-1.818v-9.585h1.818v9.585zm.175-14.218h-1.643v-8.66h1.643v8.66zm5.586 14.218l-.45-2.496h-2.06l-.57 2.496h-1.95l2.43-9.585h2.44l2.125 9.585h-1.965z"/></g></svg>