<svg xmlns="http://www.w3.org/2000/svg" width="32.646" height="32.77" viewBox="583.717 -75.529 32.646 32.77"><g fill="#64B2F9"><path d="M601.553-69.182c-.736 0-1.487.076-2.243.226-1.255.28-2.363.88-3.475 1.493-3.66 1.794-5.992 5.558-5.67 9.632l1.78-.518c-.216-2.873.563-5.425 2.355-7.508 1.09 5.786 3.443 11.043 6.946 15.834.32.02.63.04.938.04.31 0 .618-.02.932-.082-1.235-1.244-2.22-2.58-3.218-3.92 1.525-.694 3.07-1.41 4.45-2.384-.187-.466-.322-.974-.56-1.39-1.452 1.1-2.956 2.053-4.562 2.77-.747-1.12-1.39-2.27-2.012-3.433v-.114c1.71-.695 3.358-1.556 4.894-2.685-.27-.498-.56-1.016-.86-1.462-1.442 1.12-2.925 2.158-4.48 2.987h-.155a34.647 34.647 0 0 1-2.24-6.272 11.94 11.94 0 0 1 1.68-1.565l1.723-.488c4.333 4.862 7.153 10.38 8.698 16.352.405-.403.768-.84.86-1.378-.3-.842-.517-1.702-.9-2.5-.197-.59-.582-1.14-.706-1.72a35.966 35.966 0 0 0 3.286-2.73 4.33 4.33 0 0 0-.56-2.05h-.08a32.43 32.43 0 0 1-3.434 3.326c-.644-1.045-1.235-2.115-1.938-3.14 1.2-.914 2.363-2.013 3.43-3.173-.382-.5-.88-1.03-1.45-1.224-.913 1.018-1.938 2.084-2.986 2.945-1.265-1.606-2.633-3.204-4.147-4.666a9.366 9.366 0 0 1 2.02-.21c.7 0 1.4.072 2.012.21 3.567.644 7.04 4.147 7.61 7.725.76 4.002-.673 7.684-3.95 10.12a10.7 10.7 0 0 1-3.63.635c-2.655 0-5.29-.99-7.08-3.03 1.243-.207 2.427-.582 3.62-.963-.18-.302-.397-.584-.53-.903-3.296 1.323-6.888 2.086-10.675 2.086-.455 0-.914-.013-1.375-.034 1.29.165 2.606.237 3.932.237.838 0 1.68-.03 2.52-.08.88 1.098 2 1.978 3.142 2.61 1.302.725 2.92 1.087 4.548 1.087 1.937 0 3.89-.512 5.344-1.53a10.407 10.407 0 0 0 4.322-3.475c2.096-2.677 2.416-7.094.86-10.12l-.672-1.157c-1.963-2.902-4.998-4.415-8.315-4.415"/><path d="M595.608-59.137c-2.883 1.346-5.993 2.165-9.333 2.426a44.962 44.962 0 0 0 3.962-.113c.218 1.315.665 2.55 1.38 3.658.746-.144 1.493-.27 2.196-.487-.63-.84-1.077-1.772-1.41-2.758-.05-.238-.228-.52-.08-.747 1.283-.238 2.538-.53 3.73-.974l-.445-1.007"/></g><g fill="#0032CC"><path d="M583.717-60.22v2.72h.82v-.76h2.997v.76h.823v-2.72h-.823v.764h-2.998v-.763h-.82M584.87-65.448c-.16.313-.26.63-.298.946-.037.315-.01.61.082.885.093.284.247.543.463.78s.486.436.814.604c.35.18.687.29 1.007.324.32.037.62.007.894-.086.277-.093.527-.245.752-.458.224-.214.415-.474.572-.78a3.54 3.54 0 0 0 .222-.5 3.803 3.803 0 0 0 .154-.776l.023-.364-.985-.51-.057.11c.02.074.038.164.06.272.02.11.032.223.04.34.01.14 0 .283-.024.43a1.5 1.5 0 0 1-.417.79 1.122 1.122 0 0 1-.413.264c-.156.058-.34.08-.552.063a1.878 1.878 0 0 1-.703-.224 1.958 1.958 0 0 1-.576-.426 1.306 1.306 0 0 1-.283-.48 1.19 1.19 0 0 1-.04-.494 1.425 1.425 0 0 1 .407-.81c.1-.098.206-.18.318-.253.11-.068.216-.127.317-.174.1-.047.186-.085.257-.114l.062-.122-1-.516c-.075.056-.16.124-.255.2-.098.08-.193.17-.293.276a3.685 3.685 0 0 0-.546.804M589.472-71.295l-1 .946 1.943 4.55.877-.83-.408-.903 1.246-1.18.877.46.898-.85-4.433-2.192m1.035 2.946l-.727-1.597 1.554.815-.827.783M597.615-75.304l-1.043.347.84 2.52-2.445-1.986-1.36.452 1.466 4.402 1.043-.347-1.006-3.023 2.873 2.4 1.097-.364-1.465-4.402M605.61-75.05l-1.09-.124-.303 2.64-1.38-2.832-1.423-.163-.527 4.61 1.09.126.364-3.165 1.595 3.39 1.147.13.53-4.61"/></g><path fill="#0032CC" d="M589.668-47.22l-.435-.476.32-.638-.79-.867-.654.27-.424-.466 2.938-1.13.422.464-1.378 2.843zm.124-1.586l.532-1.03-1.07.44.538.59zM592.594-46.844l-.51-.237a.4.4 0 0 0 .04-.28.388.388 0 0 0-.162-.216c-.115-.08-.234-.105-.358-.074s-.25.14-.38.325c-.147.206-.215.376-.205.51s.07.24.188.323a.38.38 0 0 0 .267.077c.09-.01.19-.068.298-.173l.397.395c-.192.174-.393.268-.6.28-.208.012-.423-.06-.647-.218-.254-.18-.4-.403-.438-.67-.038-.266.042-.54.24-.825.203-.287.437-.457.7-.51s.525.01.784.193c.21.15.347.313.408.492.06.18.053.38-.024.606zM594.635-45.79l-.544-.143c.03-.108.027-.202-.01-.28s-.1-.14-.196-.185a.422.422 0 0 0-.365-.01c-.118.053-.224.182-.32.387-.105.228-.143.407-.11.537.033.13.114.225.244.285a.375.375 0 0 0 .276.028c.087-.026.175-.1.263-.223l.46.318c-.16.205-.34.333-.542.38-.2.05-.425.016-.673-.1-.282-.13-.465-.325-.55-.58-.085-.256-.054-.54.093-.855.148-.317.348-.526.598-.625.25-.1.52-.082.806.052.235.11.397.247.49.413.09.165.118.365.08.6zM594.97-44.03l-.517-.226.854-1.946.48.21-.122.276c.14-.095.25-.15.334-.162s.166 0 .25.035a.73.73 0 0 1 .296.246l-.356.38a.5.5 0 0 0-.205-.19.32.32 0 0 0-.21-.022.436.436 0 0 0-.212.165c-.074.09-.185.302-.33.633l-.264.602zM597.502-43.813l.527.212c-.114.184-.26.312-.434.384s-.376.083-.604.033c-.36-.08-.602-.255-.725-.528-.096-.22-.11-.473-.05-.76.075-.345.224-.595.446-.75a.917.917 0 0 1 .746-.145c.308.067.53.223.663.465.135.243.15.574.052.993l-1.375-.3c-.032.164-.016.3.05.41a.42.42 0 0 0 .287.204c.086.02.163.01.232-.023.068-.033.13-.1.182-.197zm.152-.548c.03-.16.016-.29-.044-.39a.388.388 0 0 0-.258-.188.392.392 0 0 0-.326.066.512.512 0 0 0-.192.33l.82.18zM600.55-42.808h-.52v-.312a.842.842 0 0 1-.31.27.785.785 0 0 1-.355.09.813.813 0 0 1-.627-.294c-.175-.197-.262-.472-.262-.823 0-.36.084-.634.253-.822a.832.832 0 0 1 .642-.28c.237 0 .442.1.616.296v-1.057h.562v2.932zm-1.5-1.107c0 .227.03.39.094.492.09.147.218.22.38.22.13 0 .24-.055.33-.165.09-.11.137-.274.137-.494 0-.244-.044-.42-.132-.527s-.2-.16-.338-.16a.424.424 0 0 0-.335.16c-.09.105-.136.264-.135.475zM601.21-42.787l.03-2.125.562.008-.03 2.125-.56-.007zm.034-2.413l.007-.52.563.007-.007.52-.562-.007zM603.228-45.084l.05.446-.38.043.095.85c.02.174.035.273.045.3.012.028.03.05.058.066a.16.16 0 0 0 .1.018.714.714 0 0 0 .217-.078l.097.428c-.123.07-.267.114-.432.133a.687.687 0 0 1-.278-.02c-.084-.024-.148-.06-.192-.11s-.078-.12-.103-.21a2.552 2.552 0 0 1-.062-.39l-.104-.92-.258.028-.05-.445.257-.03-.05-.418.524-.39.085.747.378-.046zM605.11-43.994l.563-.052a.924.924 0 0 1-.21.54 1.002 1.002 0 0 1-.522.306c-.356.094-.65.048-.885-.14-.185-.15-.314-.37-.39-.655-.09-.34-.07-.63.055-.87a.91.91 0 0 1 .6-.468c.305-.08.572-.044.803.11s.396.443.5.86l-1.363.36c.047.16.123.275.23.343a.43.43 0 0 0 .35.05.347.347 0 0 0 .197-.125.455.455 0 0 0 .072-.26zm-.116-.557c-.045-.158-.117-.267-.217-.328a.388.388 0 0 0-.314-.048.39.39 0 0 0-.26.207.516.516 0 0 0-.02.384l.81-.215zM608.363-44.41l-.484.198-.118-.29c-.035.146-.096.268-.183.368s-.188.172-.298.217a.807.807 0 0 1-.692-.037c-.235-.116-.42-.338-.553-.664-.136-.333-.16-.62-.073-.856a.826.826 0 0 1 .49-.502.798.798 0 0 1 .68.042l-.396-.98.52-.21 1.105 2.715zm-1.808-.46c.085.21.176.35.272.42a.425.425 0 0 0 .678-.217c.043-.136.023-.305-.06-.508-.09-.226-.198-.373-.32-.44a.418.418 0 0 0-.374-.02.42.42 0 0 0-.25.273c-.042.132-.025.296.055.49zM610.26-45.513l-1.824-2.298.977-.776c.246-.194.44-.315.584-.363a.67.67 0 0 1 .442.01c.15.05.28.145.387.28.137.173.2.356.187.548-.012.193-.106.384-.286.573.147-.02.28-.02.402-.003s.308.073.56.164l.637.226-.555.44-.732-.233a4.245 4.245 0 0 0-.513-.144.447.447 0 0 0-.215.014 1.01 1.01 0 0 0-.254.16l-.094.075.76.958-.464.37zm-.59-1.694l.344-.272c.224-.175.354-.295.396-.358a.32.32 0 0 0 .053-.2.385.385 0 0 0-.09-.21c-.062-.078-.132-.124-.21-.14s-.162.002-.247.05a5.142 5.142 0 0 0-.345.26l-.36.287.46.583zM612.855-49.085l.405-.397c.124.18.184.363.18.552a.992.992 0 0 1-.214.566c-.217.3-.476.45-.775.45-.237 0-.476-.087-.714-.26-.285-.208-.454-.445-.508-.71a.913.913 0 0 1 .17-.742c.186-.256.416-.396.693-.42.277-.026.587.092.93.35l-.827 1.14c.137.095.268.135.395.12a.425.425 0 0 0 .303-.18.34.34 0 0 0 .073-.223.446.446 0 0 0-.108-.245zm-.44-.36c-.134-.093-.26-.13-.375-.117a.392.392 0 0 0-.274.16.393.393 0 0 0-.07.326c.025.117.1.22.226.31l.493-.68zM614.333-49.7l.33-.556c.073.02.13.02.17-.005.06-.033.112-.103.158-.208a.65.65 0 0 0 .073-.33.272.272 0 0 0-.085-.16.816.816 0 0 0-.226-.127l-.284-.125c.143.247.162.487.06.722a.78.78 0 0 1-.606.474 1.23 1.23 0 0 1-.73-.108c-.325-.144-.54-.332-.643-.564a.822.822 0 0 1 0-.7c.104-.24.298-.39.578-.454l-.272-.12.21-.48 1.746.768c.23.102.393.196.49.284a.68.68 0 0 1 .196.277.76.76 0 0 1 .03.34c-.013.13-.058.283-.135.458-.146.33-.305.538-.48.626a.583.583 0 0 1-.52.018c-.016-.01-.037-.02-.06-.03zm-.94-.96c.207.09.377.116.508.08s.223-.116.274-.233c.056-.126.054-.254-.007-.384s-.187-.237-.38-.322c-.2-.088-.368-.112-.503-.073a.434.434 0 0 0-.285.25c-.056.124-.052.247.01.37s.19.225.384.312zM615.51-52.138l-2.018-.666.176-.534 2.02.665-.178.535zm-2.29-.756l-.494-.163.176-.534.494.162-.177.534zM615.295-53.44l-.01-.572c.11-.01.2-.046.266-.11a.495.495 0 0 0 .126-.295c.02-.145.008-.256-.036-.336a.18.18 0 0 0-.14-.094.153.153 0 0 0-.11.025.49.49 0 0 0-.098.177c-.16.436-.288.708-.386.818a.55.55 0 0 1-.508.187.59.59 0 0 1-.43-.277c-.106-.16-.14-.393-.098-.695.038-.29.114-.497.227-.624a.724.724 0 0 1 .455-.233l.027.54a.324.324 0 0 0-.207.103.47.47 0 0 0-.1.26c-.02.147-.015.255.018.324.025.046.06.072.105.08.04.004.076-.01.108-.043.044-.045.12-.21.227-.5.107-.287.218-.483.332-.588a.516.516 0 0 1 .437-.12c.192.027.348.13.465.31s.155.427.112.743c-.04.286-.127.505-.266.657a.814.814 0 0 1-.515.262zM614.175-57.055l.448-.018.016.383.854-.034c.173-.007.273-.015.303-.023a.12.12 0 0 0 .068-.053.152.152 0 0 0 .024-.096.73.73 0 0 0-.064-.224l.434-.066c.062.13.096.276.103.44.004.102-.01.194-.04.277a.404.404 0 0 1-.125.186.52.52 0 0 1-.216.087 2.647 2.647 0 0 1-.395.034l-.926.037.012.258-.448.018-.01-.258-.423.017-.35-.55.75-.03-.015-.385zM614.398-59.627l.027.518a.79.79 0 0 1-.512-.183c-.128-.113-.225-.305-.287-.573-.06-.244-.072-.433-.042-.566a.558.558 0 0 1 .16-.304c.077-.07.234-.133.473-.188l.64-.145a2.27 2.27 0 0 0 .396-.12 1.18 1.18 0 0 0 .254-.164l.128.54a2.256 2.256 0 0 1-.15.092c-.03.017-.05.028-.06.035.113.072.205.156.276.252.07.095.12.204.15.324.05.212.03.394-.056.543s-.22.246-.395.287a.573.573 0 0 1-.6-.195 1.898 1.898 0 0 1-.23-.405 2.998 2.998 0 0 0-.26-.5l-.054.013c-.105.025-.174.068-.207.13-.033.063-.033.167.002.31.022.1.06.17.11.215s.133.075.236.085zm.272-.837c.04.065.094.17.162.313.068.144.123.235.166.274.066.06.14.08.218.062a.28.28 0 0 0 .18-.133.303.303 0 0 0 .03-.238.475.475 0 0 0-.163-.26.352.352 0 0 0-.213-.087c-.05-.003-.14.01-.27.042l-.11.026zM616.19-58.212l.07.558-2.108.27-.066-.52.3-.037c-.153-.072-.256-.14-.31-.205a.45.45 0 0 1-.1-.232.714.714 0 0 1 .06-.38l.508.11a.496.496 0 0 0-.058.274c.01.078.04.14.09.19.05.05.133.082.25.1s.353 0 .71-.044l.653-.085zM614.878-62.35l.24.507-1.918.913-.225-.472.272-.13c-.167-.02-.286-.05-.357-.096a.447.447 0 0 1-.166-.19.713.713 0 0 1-.063-.38l.52-.054a.49.49 0 0 0 .03.278c.033.07.08.122.144.152.063.03.152.036.268.016.116-.02.338-.108.664-.263l.592-.28z"/><path fill="#C00" d="M606.96-68.067s-4.218 7.655-4.405 8.215c-.187.56-.405.88-1.043.477s-.762-.677-.96-.857-1.35-.964-2.36.417c-1.014 1.38-1.2 1.008-.454 1.867.747.86 2.39 2.097 2.39 2.097s.703.927 1.994.254c1.293-.672 1.293-.29 1.965-1.863.672-1.572 3.734-7.21 3.734-7.21.15-.262 2.897-5.23 3.39-5.77.494-.542 1.116-1.438 1.116-1.438s.984-1.27-.846-.56-2.13 1.14-2.13 1.14-1.506 1.625-2.39 3.23z"/></svg>