<?xml version="1.0" encoding="utf-8"?>
<!-- Generator: Adobe Illustrator 21.0.2, SVG Export Plug-In . SVG Version: 6.00 Build 0)  -->
<svg version="1.1" baseProfile="basic" id="Слой_1"
	 xmlns="http://www.w3.org/2000/svg" xmlns:xlink="http://www.w3.org/1999/xlink" x="0px" y="0px" width="78px" height="78px"
	 viewBox="0 0 78 78" xml:space="preserve">
<g>
	<path fill="#0068BA" d="M38.6,9.4C23.1,9.4,10.5,22,10.5,37.5c0,4.6,1.1,9,3.1,12.9h50c2-3.9,3.1-8.2,3.1-12.9
		C66.7,22,54.2,9.4,38.6,9.4z M34,47.3v-7.5l-1.6,7.5h-1.1l-1.6-7.5v7.5h-1.5V39h2.5l1.1,5.4l1.1-5.4h2.5c0.1,0.1,0.1,8.3,0.1,8.3
		H34z M42.1,47.3h-1.6v-7h-1.7v3.2c0,2.8-0.5,4-1.8,4c-0.4,0-0.7,0-0.9-0.1v-1.2c0.1,0,0.3,0.1,0.5,0.1c0.5,0,0.7-0.3,0.7-3.2v-4
		h4.8V47.3z M37.7,36.8c-4.2,0-6-2.8-6-6.2v-1.3h3.9V30c0,1.9,0.6,3.3,2.2,3.3c2,0,2.3-1.6,2.3-3.7c0-2.9-0.7-3.9-2.7-3.9h-1.8v-3.1
		h1.2c2.8,0,3-2.3,3-3.8c0-1.5-0.5-2.4-2-2.4c-1.4,0-2.2,1-2.2,2.7V20h-3.9v-1c0-3.5,2.3-6,6.1-6c3.8,0,6.1,2.1,6.1,5.7
		c0,3.1-1.2,4.5-3.2,5.2c2.4,0.5,3.6,2.5,3.6,5.8C44.3,34.8,42,36.8,37.7,36.8z M48.6,47.3H47v-3.8h-2.1v3.8h-1.6V39h1.6v3.2H47V39
		h1.6V47.3z"/>
	<path fill="#0068BA" d="M10.7,50.4L10.7,50.4c-1.8-3.9-2.8-8.3-2.8-12.9c0-17,13.7-30.7,30.7-30.7s30.7,13.7,30.7,30.7
		c0,4.6-0.9,8.7-2.7,12.6v0.3v5.5c3.5-5.3,5.5-11.6,5.5-18.4C72.1,19,57.1,4,38.6,4S5.1,19,5.1,37.5c0,6.9,2.1,13.2,5.6,18.6V50.4z"
		/>
	<path fill="#0068BA" d="M29.9,56.4c-0.5,0-0.8,0.4-0.8,1v2.4c0,0.6,0.2,0.9,0.8,0.9c0.5,0,0.7-0.3,0.7-0.9v-2.4
		C30.6,56.8,30.4,56.4,29.9,56.4z"/>
	<path fill="#0068BA" d="M24.8,57.8c0,1.3-0.2,2-0.5,2.7h1.6v-4h-1.1V57.8z"/>
	<path fill="#0068BA" d="M48.6,56.4c-0.5,0-0.8,0.4-0.8,1v2.4c0,0.6,0.2,0.9,0.8,0.9c0.5,0,0.7-0.3,0.7-0.9v-2.4
		C49.3,56.8,49.1,56.4,48.6,56.4z"/>
	<path fill="#0068BA" d="M72.7,57.4h-8v-5h-52v5H5l2.8,6.3L5,69.4h16l-4.5-3.9h44.6l-4.5,3.9h16l-3.2-5.7L72.7,57.4z M27.4,62.6
		h-1.1v-1.1h-2.4v1.2h-1.1v-2.1h0.3c0.4-0.9,0.5-1.5,0.5-3.1v-1.8h3.3v4.9h0.4v2L27.4,62.6z M31.8,59.6c0,1.5-0.8,2-1.9,2
		s-1.9-0.5-1.9-2v-2.1c0-1.5,0.8-2,1.9-2s1.9,0.5,1.9,2V59.6z M37.6,61.5h-1v-5.3l0,0l-1.1,5.3h-0.8l-1.1-5.3l0,0v5.3h-1v-5.8h1.8
		l0.8,3.8l0.8-3.8h1.8L37.6,61.5L37.6,61.5z M41.6,56.5h-2v1.4h1.8v0.9h-1.8v1.8h2v0.9h-3.1v-5.8h3.1V56.5z M45.9,61.5h-1.1v-2.7
		h-1.5v2.7h-1.1v-5.8h1.1v2.2h1.5v-2.2h1.1C45.9,55.6,45.9,61.5,45.9,61.5z M50.5,59.6c0,1.5-0.8,2-1.9,2c-1.1,0-1.9-0.5-1.9-2v-2.1
		c0-1.5,0.8-2,1.9-2c1.1,0,1.9,0.5,1.9,2V59.6z M53.5,61.5h-2.2v-5.8h2c1,0,1.4,0.7,1.4,1.4c0,0.6-0.3,1.2-0.8,1.3
		c0.6,0.2,0.9,0.6,0.9,1.4C54.8,60.7,54.4,61.5,53.5,61.5z"/>
	<path fill="#0068BA" d="M53.1,58.8h-0.7v1.8h0.7c0.4,0,0.6-0.3,0.6-0.9C53.7,59.2,53.5,58.8,53.1,58.8z"/>
	<path fill="#0068BA" d="M53.6,57.2c0-0.5-0.2-0.7-0.7-0.7h-0.6V58h0.6C53.4,58,53.6,57.7,53.6,57.2z"/>
	<path fill="#0068BA" d="M38.8,68.7c-3.1,0-6.1-0.5-8.9-1.3h-7.2c4.8,2.6,10.3,4.2,16.1,4.2s11.4-1.5,16.1-4.2h-7.2
		C45,68.2,42,68.7,38.8,68.7z"/>
</g>
</svg>
