<svg xmlns="http://www.w3.org/2000/svg" width="71.524" height="36.875" viewBox="0 0 71.524 36.875"><g fill="#753028"><path d="M44.96 34.59c-.087-.063-.178-.123-.27-.185a18.157 18.157 0 0 0 3.87-3.088h-.9a17.474 17.474 0 0 1-3.6 2.715 13.028 13.028 0 0 0-2.323-.966c.354-.51.69-1.065 1.007-1.67.015-.026.026-.053.04-.08h-.713a15.106 15.106 0 0 1-.974 1.565c-1.55-.416-3.297-.654-5.12-.68v-.884h-.64v.885c-1.78.023-3.49.25-5.016.647-.335-.47-.652-.98-.95-1.53h-.715l.04.08c.31.59.64 1.132.98 1.63-.87.264-1.67.588-2.372.96a17.4 17.4 0 0 1-3.525-2.67h-.896a18.15 18.15 0 0 0 3.786 3.04c-.1.063-.196.128-.29.194a22.956 22.956 0 0 1-5.833-3.233h-1.022c4.116 3.426 9.856 5.558 16.196 5.558 6.34 0 12.078-2.132 16.195-5.558h-1.023a22.88 22.88 0 0 1-5.932 3.272zm-17.83.234l.174-.104c.27.148.543.287.82.422-.334-.1-.665-.205-.993-.318zm.857-.465a13.15 13.15 0 0 1 2.087-.785c.777 1.02 1.626 1.813 2.523 2.367a16.837 16.837 0 0 1-4.61-1.583zm7.35 1.858c-1.69-.135-3.263-1.15-4.6-2.816 1.406-.343 2.97-.54 4.6-.56v3.376zm.64-3.377c1.67.025 3.272.23 4.702.593-1.366 1.69-2.976 2.703-4.704 2.795V32.84zm5.362.772c.74.22 1.424.483 2.038.786a16.843 16.843 0 0 1-4.532 1.544c.885-.546 1.723-1.33 2.493-2.33zm1.976 1.53c.25-.12.495-.245.74-.377.05.03.102.062.15.094-.29.098-.59.193-.89.283zM35.72 0C23.23 0 13.064 8.27 13.064 18.438c0 2.208.48 4.33 1.36 6.294h.706a14.788 14.788 0 0 1-1.41-5.666h4.05a18.753 18.753 0 0 0 1.07 5.666h.68a18.104 18.104 0 0 1-1.11-5.666h6.285v5.764h22.053v-5.764h6.283a18.075 18.075 0 0 1-1.106 5.666h.68a18.753 18.753 0 0 0 1.07-5.666h4.05a14.79 14.79 0 0 1-1.41 5.666h.706a15.35 15.35 0 0 0 1.36-6.294C58.377 8.27 48.213 0 35.72 0zm9.275 2.3c2.822 1.06 5.322 2.596 7.342 4.475-.438.54-.98 1.05-1.622 1.522a18.308 18.308 0 0 0-5.997-5.812c.094-.06.187-.124.277-.186zm-20.3 8.082c-1.303-.49-2.464-1.067-3.444-1.717a17.665 17.665 0 0 1 6.107-5.81 13.05 13.05 0 0 0 2.343.958 15.948 15.948 0 0 0-1.003 1.663c-.33.63-.633 1.296-.908 1.994h-3.096v2.912zm3.777-2.91c.536-1.32 1.166-2.493 1.87-3.475 1.517.4 3.22.63 4.995.66V7.47h-6.865zm15.18 0a20.127 20.127 0 0 0-.908-1.995 15.762 15.762 0 0 0-1.004-1.664c.858-.264 1.65-.583 2.343-.957a17.638 17.638 0 0 1 6.107 5.81c-.98.648-2.143 1.226-3.443 1.717V7.47h-3.094zm.59-5.446a6.152 6.152 0 0 1-.16.096c-.252-.136-.507-.265-.766-.39.312.092.62.19.925.294zm-.843.46c-.622.302-1.313.563-2.058.78-.77-1.003-1.61-1.787-2.497-2.334 1.605.3 3.134.832 4.554 1.555zM35.975.647c1.728.093 3.337 1.107 4.703 2.798-1.435.354-3.036.554-4.704.573V.647zm5.123 3.35c.704.982 1.333 2.154 1.87 3.475h-6.994V4.66c1.82-.02 3.568-.253 5.123-.663zm-5.764.02a20.59 20.59 0 0 1-4.575-.57C32.093 1.795 33.658.79 35.337.657v3.358zm-5.24-.747a13.18 13.18 0 0 1-2.056-.782A16.87 16.87 0 0 1 32.595.933c-.887.547-1.727 1.332-2.498 2.336zm-1.97-1.538c-.26.125-.516.254-.768.39a5.193 5.193 0 0 1-.16-.094c.306-.105.615-.204.927-.296zm-1.68.567l.277.185a18.33 18.33 0 0 0-5.998 5.812 8.908 8.908 0 0 1-1.622-1.522c2.02-1.88 4.52-3.414 7.342-4.476zm-8.688 16.125h-4.055c.003-4.243 1.855-8.145 4.937-11.205a9.614 9.614 0 0 0 1.75 1.617 18.692 18.692 0 0 0-2.632 9.588zm.64 0c.002-3.374.922-6.53 2.52-9.222 1.073.706 2.35 1.328 3.776 1.85v7.372h-6.296zm28.35 0v-7.373c1.427-.52 2.703-1.143 3.775-1.85a18.03 18.03 0 0 1 2.52 9.223h-6.296zm6.935 0a18.692 18.692 0 0 0-2.632-9.588A9.65 9.65 0 0 0 52.8 7.22c3.084 3.06 4.936 6.962 4.94 11.205h-4.057z"/></g><path fill="#FFF" d="M43.21 10.51H28.233a.52.52 0 0 0-.52.52v10.237c0 .29.23.52.52.52h.28c.012 0 .022 0 .033-.002l.043.002h13.62v-.798H29.032v-9.354h12.89v7.717h-1.04c.006-.053.012-.106.012-.163v-5.844c0-.646-.522-1.17-1.17-1.17h-8.05c-.647 0-1.17.524-1.17 1.17v1.537h4.676v-1.59c0-.14.117-.25.26-.25h.888c.144 0 .26.11.26.25V15.814h-6.083v3.375c0 .646.523 1.17 1.168 1.17h11.555c.277 0 .504-.226.504-.502a.022.022 0 0 0 0-.01V11.03a.52.52 0 0 0-.52-.52zm-6.637 8.66a.26.26 0 0 1-.26.26h-.952a.26.26 0 0 1-.26-.26v-2.167a.26.26 0 0 1 .26-.26h.954a.26.26 0 0 1 .26.26v2.166z"/><g fill="#753028"><path d="M2.607 30.218h-.865v-.537h-.25c-.262 0-.505-.058-.732-.173a1.313 1.313 0 0 1-.55-.547c-.14-.248-.21-.557-.21-.928 0-.36.07-.666.21-.92.142-.252.326-.438.553-.56a1.5 1.5 0 0 1 .73-.186h.25v-.494h.865v.494h.25c.26 0 .502.062.73.185.226.124.41.31.55.563.14.253.21.56.21.92 0 .37-.07.68-.207.927-.14.248-.323.43-.55.547a1.603 1.603 0 0 1-.732.174h-.25v.538zm-.865-3.208H1.54c-.202 0-.363.094-.48.28s-.177.434-.177.742c0 .32.058.57.172.744.114.174.276.26.485.26h.202V27.01zm1.067 0h-.203v2.026h.202c.21 0 .374-.086.486-.26.113-.174.17-.423.17-.744 0-.31-.06-.556-.176-.742a.544.544 0 0 0-.48-.28zM5.018 26.42c.125-.222.295-.38.517-.478.22-.1.48-.15.783-.15.305 0 .566.05.782.146s.384.256.503.477c.12.22.18.51.18.866v1.554c0 .356-.06.642-.18.86-.118.215-.286.37-.502.462-.216.094-.477.14-.782.14-.99 0-1.484-.487-1.484-1.462V27.28c0-.353.062-.638.184-.86zm1.3 3.213c.187 0 .33-.06.43-.18.1-.118.148-.29.148-.52v-1.737c0-.232-.05-.414-.15-.545a.51.51 0 0 0-.43-.194c-.4 0-.6.242-.6.728v1.75c0 .467.2.7.6.7zM8.38 30.218v-4.346h.865v1.685h1.142v-1.685h.865v4.346h-.865v-2.006H9.245v2.006H8.38zM12.036 29.554c.083-.176.15-.338.2-.485.05-.147.092-.307.124-.474.03-.168.055-.36.07-.58.015-.216.02-.48.02-.79v-1.354h2.59v3.682h.278v1.535h-.834v-.872h-1.887v.87h-.833v-1.534h.272zm2.138-3.02h-.87v.988c0 .474-.033.855-.096 1.15a3.804 3.804 0 0 1-.314.88h1.28v-3.018zM17.336 30.218v-4.346h1.635c.24 0 .452.057.634.17.183.112.324.266.423.46.1.192.15.406.15.64 0 .24-.052.46-.154.658a1.167 1.167 0 0 1-1.067.648H18.2v1.77h-.864zm1.3-3.702h-.435v1.29h.437c.433 0 .65-.218.65-.652 0-.425-.218-.638-.65-.638zM20.428 30.218l1.155-4.346h1.162l1.01 4.346h-.935l-.214-1.133h-.98l-.27 1.133h-.928zm1.305-1.776h.765l-.347-2.023-.417 2.022zM25.32 28.24h-.184v-.623h.184c.17 0 .308-.046.413-.14.104-.092.156-.23.156-.413a.778.778 0 0 0-.115-.43c-.076-.12-.198-.18-.367-.18a.443.443 0 0 0-.38.184c-.09.122-.135.285-.135.485h-.84c0-.253.054-.48.16-.682.11-.202.265-.36.47-.476.206-.114.45-.173.726-.173.226 0 .442.04.65.115.208.074.38.198.515.37s.204.398.204.672a1.01 1.01 0 0 1-.342.758.856.856 0 0 1-.365.188c.237.057.424.18.562.368.137.19.206.44.206.758 0 .29-.053.528-.165.722-.11.19-.27.336-.48.43-.21.095-.465.144-.76.144-.266 0-.508-.043-.727-.126a1.13 1.13 0 0 1-.527-.41c-.132-.187-.198-.43-.198-.725h.84c0 .398.188.598.562.598.38 0 .567-.237.567-.714 0-.243-.056-.422-.17-.533-.113-.11-.266-.164-.46-.164zM29.105 30.218h-1.74v-4.346h1.595c.253 0 .465.05.634.145.17.096.293.225.372.385.08.158.118.336.118.53 0 .14-.024.278-.076.418s-.123.257-.216.354a.59.59 0 0 1-.32.18c.23.088.4.213.51.38.11.166.165.388.165.665 0 .256-.04.48-.117.672a.97.97 0 0 1-.35.453.985.985 0 0 1-.575.163zm-.876-3.725v1.143h.454c.357 0 .536-.197.536-.59 0-.192-.04-.332-.12-.42-.08-.09-.214-.133-.405-.133h-.466zm0 3.104h.553c.166 0 .287-.052.365-.157.078-.104.116-.277.116-.518 0-.444-.16-.667-.48-.667h-.555v1.342zM32.78 30.218v-1.644c0-.664.038-1.167.113-1.51l-1.268 3.153h-.935V25.87h.814v1.633c0 .19-.004.386-.012.583-.008.197-.02.378-.04.543-.018.165-.04.3-.062.4l1.27-3.16h.934v4.347h-.813zM36.9 25.872v.698h-.99v3.647h-.864V26.57H34.03v-.698h2.87zM39.415 30.218v-1.644c0-.664.037-1.167.113-1.51l-1.27 3.153h-.934V25.87h.813v1.633c0 .19-.004.386-.012.583-.008.197-.02.378-.04.543a3.36 3.36 0 0 1-.062.4l1.27-3.16h.935v4.347h-.813zM42.78 30.218v-1.77h-.426l-.782 1.77h-.94l.885-1.867a1.072 1.072 0 0 1-.38-.272c-.11-.122-.192-.264-.25-.423s-.084-.33-.084-.512c0-.234.047-.448.14-.642a1.102 1.102 0 0 1 1.034-.628h1.666v4.346h-.864zm-1.09-3.065c0 .435.218.65.652.65h.437v-1.288h-.438c-.434 0-.65.214-.65.638zM47.916 30.218v-1.644c0-.664.038-1.167.11-1.51l-1.267 3.153h-.936V25.87h.814v1.633c0 .19-.004.386-.013.583a6.89 6.89 0 0 1-.04.543c-.016.165-.04.3-.062.4l1.27-3.16h.935v4.347h-.812zM49.373 30.218v-4.346h.864v1.685h1.142v-1.685h.863v4.346h-.864v-2.006h-1.143v2.006h-.864zM55.57 25.872v.698h-.99v3.647h-.865V26.57H52.7v-.698h2.87zM55.994 30.218v-4.346h2.436v.698h-1.57v.986h1.434v.655H56.86v1.343h1.57v.664h-2.436zM58.973 30.218v-4.346h1.636c.238 0 .45.057.63.17.186.112.326.266.426.46.098.192.148.406.148.64 0 .24-.05.46-.152.658a1.16 1.16 0 0 1-1.067.648h-.758v1.77h-.864zm1.3-3.702h-.437v1.29h.437c.433 0 .65-.218.65-.652 0-.425-.217-.638-.65-.638zM62.35 30.218v-4.346h.864v1.685h1.143v-1.685h.863v4.346h-.863v-2.006h-1.143v2.006h-.865zM65.885 30.218v-4.346h2.436v.698h-1.57v.986h1.432v.655H66.75v1.343h1.57v.664h-2.435zM71.524 25.872v.698h-.99v3.647h-.863V26.57h-1.016v-.698h2.87z"/></g></svg>