<svg xmlns="http://www.w3.org/2000/svg" width="123.225" height="43.519" viewBox="0 0 123.225 43.519"><path fill="#006C64" d="M22.4 30.203l8.217-12.672a6.33 6.33 0 0 0 1.604-2.496c.057-.118.093-.243.114-.37a6.374 6.374 0 0 0-11.06-5.774L9.042 16.916a1.32 1.32 0 0 0 1.448 2.208l9.336-6.126a6.363 6.363 0 0 0 1.126 3.558L9.527 28.04a1.32 1.32 0 0 0 1.87 1.862l11.47-11.53a6.372 6.372 0 0 0 3.452.937l-6.133 9.457a1.32 1.32 0 1 0 2.214 1.436z"/><path fill="#E5E5E5" d="M21.346 10.863a6.518 6.518 0 0 1 3.766-1.872 5.31 5.31 0 0 1 3.8.63 6.49 6.49 0 0 1 1.698 1.22c.403.4.742.838 1.02 1.306a5.463 5.463 0 0 0-1.56-3.1 5.49 5.49 0 0 0-7.762.02 5.465 5.465 0 0 0-1.338 2.212c.118-.143.242-.28.376-.415z"/><g fill="#1A171B"><path d="M32.478 9.323c3.875-3.093 6.64-4.734 7.25-4.117.55.554-.738 2.823-3.27 6.062l1.064.998c4.815-6.09 7.307-10.72 6.086-11.95-1.272-1.284-6.27 1.428-12.797 6.59l1.668 2.417zM11.34 35.85C8.733 37.734 6.94 38.63 6.463 38.15c-.577-.582.87-3.054 3.656-6.552a2.45 2.45 0 0 1-1.953-1.4l-.645-.35C1.972 36.626-1.006 41.877.307 43.203c1.24 1.253 6.026-1.298 12.316-6.21l-1.284-1.144z"/></g><path d="M23.858 36.944c-.306 0-.588-.052-.845-.154s-.48-.256-.666-.46c-.187-.203-.33-.46-.434-.763s-.154-.653-.154-1.048c0-.393.05-.735.148-1.027.1-.29.245-.545.436-.76.187-.21.408-.37.665-.48a2.12 2.12 0 0 1 .858-.167c.157 0 .305.013.442.034a2.773 2.773 0 0 1 .693.206c.106.048.21.1.313.156v.752h-.05a7.138 7.138 0 0 0-.21-.182 2.012 2.012 0 0 0-.705-.372 1.748 1.748 0 0 0-.487-.062 1.33 1.33 0 0 0-1.035.485c-.132.16-.235.36-.31.6-.073.242-.11.515-.11.815 0 .32.04.598.117.83.078.232.184.428.318.588.13.154.283.27.46.35.175.08.362.118.56.118.18 0 .347-.02.5-.066a1.96 1.96 0 0 0 .708-.366c.084-.067.15-.126.2-.174h.046v.742c-.103.05-.2.094-.29.14a3.172 3.172 0 0 1-.712.23 2.44 2.44 0 0 1-.456.034zM25.898 36.858V32.17h2.93v.556H26.52v1.284h2.15v.554h-2.15v1.74h2.308v.554h-2.93zM30.61 36.858v-4.132h-1.575v-.555h3.77v.556h-1.573v4.132h-.623zM36.646 36.858h-.62v-3.72l-2.118 3.72h-.63V32.17h.62v3.66l2.09-3.66h.658v4.688zM42.98 36.858h-.62v-3.72l-2.12 3.72h-.628V32.17h.62v3.66l2.09-3.66h.658v4.688zM47.332 36.858h-.623v-2.294h-2.157v2.294h-.623V32.17h.623v1.84h2.156v-1.84h.622v4.688zM49.378 36.858v-4.132h-1.574v-.555h3.77v.556h-1.573v4.132h-.622zM52.047 36.858V32.17h2.93v.556H52.67v1.284h2.15v.554h-2.15v1.74h2.306v.554h-2.93zM58.622 33.585c0 .204-.036.396-.11.577a1.355 1.355 0 0 1-.3.466c-.16.16-.35.28-.57.36s-.493.124-.827.124h-.53v1.746h-.622V32.17h1.177c.277 0 .513.024.708.07.195.047.367.12.516.224.175.12.31.27.41.455.1.183.148.405.148.665zm-.648.017a1 1 0 0 0-.083-.422.708.708 0 0 0-.252-.293 1.02 1.02 0 0 0-.344-.14 2.564 2.564 0 0 0-.49-.04h-.517v1.872h.425c.25 0 .455-.02.61-.063a.814.814 0 0 0 .388-.217.883.883 0 0 0 .2-.31c.042-.11.064-.24.064-.388zM62.62 36.858h-.624v-2.294H59.84v2.294h-.623V32.17h.623v1.84h2.156v-1.84h.624v4.688zM63.57 36.858V32.17h2.93v.556h-2.308v1.284h2.15v.554h-2.15v1.74H66.5v.554h-2.93zM68.282 36.858v-4.132h-1.574v-.555h3.77v.556h-1.574v4.132h-.622z"/><g><path d="M31.786 28.326h-.646v-2.38h-2.238v2.38h-.646v-4.863h.646v1.907h2.238v-1.907h.646v4.863zM32.247 28.326l1.64-4.863h.797l1.64 4.863h-.684l-.44-1.358h-1.86l-.44 1.358h-.653zm2.772-1.91l-.75-2.292-.75 2.292h1.5zM40.742 29.427h-.614v-1.1h-3.345v-4.864h.647v4.295h2.205v-4.295h.646v4.295h.46v1.67zM44.86 28.326h-.643v-3.86l-2.2 3.86h-.652v-4.863h.644v3.8l2.168-3.8h.683v4.863zM49.286 24.02c.185.215.33.48.43.796.103.314.154.676.154 1.08 0 .395-.05.75-.15 1.067-.1.318-.245.585-.434.8-.198.228-.43.395-.695.502a2.304 2.304 0 0 1-.872.162c-.33 0-.625-.056-.89-.167a1.804 1.804 0 0 1-.678-.496c-.188-.216-.33-.48-.43-.797s-.15-.672-.15-1.07c0-.41.05-.77.15-1.08.102-.308.246-.574.434-.796.187-.215.413-.378.677-.49.266-.112.562-.168.888-.168.33 0 .63.058.895.173s.49.277.673.486zm-.088 1.876c0-.323-.035-.607-.105-.856a1.766 1.766 0 0 0-.294-.616 1.23 1.23 0 0 0-.466-.377 1.443 1.443 0 0 0-.612-.125c-.235 0-.44.04-.616.12-.175.083-.33.21-.465.382a1.77 1.77 0 0 0-.295.623 3.25 3.25 0 0 0-.103.85c0 .638.134 1.126.4 1.465.27.338.628.508 1.08.508.45 0 .81-.17 1.076-.508.267-.34.4-.828.4-1.466zM54.11 28.326h-.646v-2.38h-2.238v2.38h-.646v-4.863h.646v1.907h2.238v-1.907h.646v4.863zM54.57 28.326l1.64-4.863h.797l1.64 4.863h-.683l-.44-1.358h-1.86l-.44 1.358h-.654zm2.773-1.91l-.75-2.292-.75 2.292h1.5zM62.654 28.326h-.646v-4.29h-1.64c-.006.248-.015.488-.026.722-.01.234-.02.444-.026.63-.017.458-.045.84-.083 1.14a4.71 4.71 0 0 1-.148.754 1.83 1.83 0 0 1-.208.48 1.55 1.55 0 0 1-.26.308c-.098.09-.203.155-.315.2a1.067 1.067 0 0 1-.39.067c-.047 0-.093-.002-.14-.006a1.872 1.872 0 0 0-.11-.004V27.7h.046c.022 0 .04.004.056.006s.038.003.068.003c.08 0 .15-.013.22-.036a.446.446 0 0 0 .172-.112c.148-.146.256-.405.325-.777.067-.374.116-.878.144-1.508.01-.214.022-.495.033-.847l.03-.967h2.896v4.863zM66.92 26.82c0 .236-.046.45-.138.64a1.278 1.278 0 0 1-.37.47 1.75 1.75 0 0 1-.587.305c-.21.062-.48.092-.81.092h-1.376v-4.863h.645v1.907h.748c.33 0 .6.02.81.06.21.037.406.13.592.272.165.128.287.286.366.477.08.187.12.402.12.64zm-.677.014c0-.163-.027-.308-.08-.43a.667.667 0 0 0-.253-.302.893.893 0 0 0-.415-.146 6.176 6.176 0 0 0-.663-.027h-.545v1.845h.53c.29 0 .51-.014.667-.043.155-.027.292-.082.41-.163a.794.794 0 0 0 .267-.3 1.01 1.01 0 0 0 .083-.436zM71.068 28.326h-.647v-2.38h-2.237v2.38h-.646v-4.863h.646v1.907h2.238v-1.907h.648v4.863zM75.493 24.02c.186.215.33.48.432.796.103.314.153.676.153 1.08 0 .395-.05.75-.15 1.067-.1.318-.245.585-.435.8-.198.228-.43.395-.693.502a2.313 2.313 0 0 1-.874.162c-.33 0-.625-.056-.89-.167a1.812 1.812 0 0 1-.678-.496c-.187-.216-.33-.48-.43-.797s-.15-.672-.15-1.07c0-.41.05-.77.15-1.08a2.38 2.38 0 0 1 .434-.796c.187-.215.413-.378.677-.49s.56-.168.886-.168c.33 0 .63.058.896.173.264.115.49.277.67.486zm-.088 1.876c0-.323-.035-.607-.104-.856a1.8 1.8 0 0 0-.292-.616 1.242 1.242 0 0 0-.466-.377 1.437 1.437 0 0 0-.612-.125c-.235 0-.44.04-.615.12s-.33.21-.465.382a1.768 1.768 0 0 0-.295.623 3.21 3.21 0 0 0-.103.85c0 .638.134 1.126.4 1.465.27.338.627.508 1.078.508.452 0 .81-.17 1.077-.508.265-.34.398-.828.398-1.466zM79.67 24.037h-2.237v4.29h-.647v-4.864h2.884v.574zM83.62 24.02c.184.215.328.48.43.796.103.314.153.676.153 1.08 0 .395-.05.75-.15 1.067-.1.318-.244.585-.434.8-.2.228-.43.395-.695.502s-.556.162-.874.162c-.327 0-.624-.056-.887-.167a1.807 1.807 0 0 1-.68-.496c-.187-.216-.33-.48-.43-.797s-.15-.672-.15-1.07c0-.41.05-.77.15-1.08.102-.308.246-.574.434-.796.187-.215.413-.378.677-.49.265-.112.56-.168.887-.168.332 0 .63.058.897.173.265.115.49.277.672.486zm-.09 1.876c0-.323-.034-.607-.104-.856a1.782 1.782 0 0 0-.293-.616 1.242 1.242 0 0 0-.466-.377 1.443 1.443 0 0 0-.612-.125c-.235 0-.44.04-.616.12-.176.083-.33.21-.466.382a1.768 1.768 0 0 0-.295.623 3.21 3.21 0 0 0-.104.85c0 .638.134 1.126.402 1.465.267.338.626.508 1.078.508.45 0 .81-.17 1.076-.508.266-.34.4-.828.4-1.466zM90.952 29.427h-.614v-1.113h-3.154v1.113h-.614v-1.675h.264c.284-.465.51-1.072.685-1.824.172-.753.258-1.574.258-2.465h2.715v4.29h.46v1.674zm-1.107-1.675v-3.728h-1.46c-.03.786-.128 1.5-.294 2.14-.165.64-.376 1.17-.632 1.588h2.387zM95.015 24.02c.185.215.33.48.43.796.104.314.155.676.155 1.08 0 .395-.05.75-.15 1.067-.1.318-.246.585-.435.8-.2.228-.43.395-.694.502s-.555.162-.873.162c-.328 0-.625-.056-.888-.167a1.815 1.815 0 0 1-.68-.496c-.188-.216-.332-.48-.432-.797s-.15-.672-.15-1.07c0-.41.05-.77.152-1.08.1-.308.245-.574.432-.796.188-.215.413-.378.678-.49s.56-.168.887-.168c.332 0 .63.058.896.173.264.115.49.277.672.486zm-.088 1.876c0-.323-.035-.607-.104-.856a1.783 1.783 0 0 0-.294-.616 1.242 1.242 0 0 0-.467-.377 1.44 1.44 0 0 0-.612-.125c-.235 0-.44.04-.615.12s-.33.21-.465.382a1.768 1.768 0 0 0-.295.623 3.21 3.21 0 0 0-.103.85c0 .638.134 1.126.4 1.465.27.338.628.508 1.08.508.45 0 .808-.17 1.075-.508.266-.34.4-.828.4-1.466zM100.476 28.326h-.647v-4.19l-1.268 2.852h-.392l-1.258-2.852v4.19h-.604v-4.863h.882l1.215 2.708 1.173-2.707h.897v4.863zM101.462 28.326v-4.863h3.04v.574h-2.394v1.333h2.23v.575h-2.23v1.807h2.394v.574h-3.04zM108.745 28.326h-.646v-2.38h-2.238v2.38h-.647v-4.863h.647v1.907h2.237v-1.907h.645v4.863zM109.207 28.326l1.64-4.863h.795l1.64 4.863h-.682l-.44-1.358h-1.86l-.44 1.358h-.653zm2.772-1.91l-.752-2.292-.748 2.292h1.5z"/></g><g><path d="M38.374 19.65h-.815l-1.703-2.206h-.405v2.206h-.64v-4.815h.64v2.17c.253-.008.453-.072.6-.19.148-.12.27-.29.36-.512a8.143 8.143 0 0 0 .182-.498c.13-.37.294-.623.495-.762.2-.14.478-.208.834-.208h.197v.57h-.16c-.263 0-.448.052-.553.155-.106.102-.203.297-.29.58-.09.284-.19.493-.3.626a1.81 1.81 0 0 1-.397.352l1.954 2.532zM42.21 15.387c.184.213.326.475.427.787s.152.67.152 1.07c0 .39-.05.742-.15 1.06-.098.312-.242.577-.43.79-.196.226-.425.39-.687.497s-.55.16-.866.16c-.326 0-.62-.054-.88-.164a1.792 1.792 0 0 1-.672-.492 2.22 2.22 0 0 1-.427-.79 3.506 3.506 0 0 1-.148-1.06c0-.405.05-.762.15-1.067s.243-.57.428-.79c.186-.212.41-.375.672-.485.262-.112.554-.167.877-.167.328 0 .624.057.887.172.263.114.485.274.666.48zm-.087 1.857c0-.32-.035-.602-.104-.847a1.746 1.746 0 0 0-.292-.61 1.216 1.216 0 0 0-.46-.375 1.435 1.435 0 0 0-.607-.125c-.232 0-.435.04-.608.12-.174.082-.328.208-.46.38-.128.162-.226.368-.293.617a3.17 3.17 0 0 0-.103.84c0 .632.133 1.116.398 1.45s.62.504 1.067.504c.447 0 .802-.168 1.066-.503.263-.335.395-.82.395-1.45zM46.897 15.387c.183.213.326.475.427.787.102.312.152.67.152 1.07 0 .39-.05.742-.148 1.06a2.18 2.18 0 0 1-.43.79c-.196.226-.425.39-.688.497-.262.107-.55.16-.865.16-.326 0-.62-.054-.88-.164a1.792 1.792 0 0 1-.673-.492c-.185-.213-.328-.477-.427-.79s-.15-.665-.15-1.06c0-.405.05-.762.15-1.067s.244-.57.43-.79a1.82 1.82 0 0 1 .67-.485c.263-.112.555-.167.88-.167.327 0 .622.057.885.172.264.114.486.274.667.48zm-.087 1.857c0-.32-.034-.602-.104-.847a1.73 1.73 0 0 0-.292-.61 1.223 1.223 0 0 0-.46-.375 1.434 1.434 0 0 0-.606-.125c-.233 0-.437.04-.61.12-.174.082-.328.208-.46.38a1.74 1.74 0 0 0-.294.617 3.17 3.17 0 0 0-.102.84c0 .632.133 1.116.398 1.45s.62.504 1.068.504c.446 0 .802-.168 1.065-.503s.397-.82.397-1.45zM51.22 16.286c0 .21-.038.406-.113.594a1.394 1.394 0 0 1-.31.478 1.63 1.63 0 0 1-.584.37c-.225.086-.508.128-.85.128h-.544v1.795h-.642v-4.814h1.21c.284 0 .527.022.727.07.2.048.377.124.53.23.18.123.32.28.42.468a1.4 1.4 0 0 1 .154.682zm-.667.017c0-.165-.028-.31-.085-.434a.728.728 0 0 0-.26-.302 1 1 0 0 0-.355-.142 2.527 2.527 0 0 0-.503-.042h-.53v1.924h.436c.26 0 .468-.02.628-.063a.843.843 0 0 0 .398-.224.938.938 0 0 0 .207-.316c.04-.115.063-.248.063-.4zM55.74 20.74h-.607v-1.103h-3.125v1.103H51.4v-1.66h.262c.28-.458.507-1.06.678-1.806.17-.744.257-1.558.257-2.44h2.688v4.247h.457v1.66zm-1.095-1.66v-3.69H53.2a10.02 10.02 0 0 1-.292 2.12c-.164.634-.373 1.158-.628 1.57h2.365zM59.82 19.65h-.637v-3.823l-2.177 3.823h-.647v-4.815h.636v3.76l2.148-3.76h.677v4.815zM64.294 19.65h-.64v-2.357h-2.217v2.357h-.64v-4.815h.64v1.89h2.216v-1.89h.64v4.815zM64.75 19.65l1.624-4.815h.79l1.624 4.815h-.676l-.438-1.346h-1.84l-.437 1.346h-.647zm2.747-1.89l-.744-2.272-.74 2.27h1.484zM73.164 20.74h-.61v-1.09h-3.31v-4.815h.64v4.253h2.183v-4.253h.64v4.253h.458v1.652zM77.243 19.65h-.637v-3.823L74.43 19.65h-.647v-4.815h.637v3.76l2.147-3.76h.676v4.815zM81.626 15.387c.183.213.325.475.427.787.1.312.152.67.152 1.07 0 .39-.05.742-.15 1.06-.1.312-.242.577-.43.79a1.8 1.8 0 0 1-.687.497c-.262.107-.55.16-.865.16-.326 0-.62-.054-.88-.164a1.784 1.784 0 0 1-.673-.492 2.19 2.19 0 0 1-.427-.79c-.1-.31-.15-.665-.15-1.06 0-.405.05-.762.15-1.067.1-.306.244-.57.43-.79.185-.212.41-.375.67-.485.263-.112.556-.167.88-.167.327 0 .622.057.885.172.264.114.487.274.668.48zm-.087 1.857c0-.32-.036-.602-.105-.847a1.763 1.763 0 0 0-.29-.61 1.226 1.226 0 0 0-.462-.375 1.43 1.43 0 0 0-.606-.125c-.233 0-.437.04-.61.12-.173.082-.327.208-.46.38-.128.162-.226.368-.293.617a3.17 3.17 0 0 0-.102.84c0 .632.132 1.116.398 1.45s.62.504 1.068.504c.446 0 .8-.168 1.065-.503s.396-.82.396-1.45zM86.403 19.65h-.64v-2.357h-2.216v2.357h-.64v-4.815h.64v1.89h2.216v-1.89h.64v4.815zM90.877 19.65h-.64v-2.357H88.02v2.357h-.64v-4.815h.64v1.89h2.216v-1.89h.64v4.815zM95.03 18.16c0 .232-.045.443-.135.634s-.212.345-.365.463a1.73 1.73 0 0 1-.583.303c-.207.062-.474.09-.802.09h-1.29v-4.814h.64v1.89h.67c.328 0 .595.02.802.055.208.04.402.13.586.272.164.127.285.284.362.472.076.185.116.398.116.635zm-.67.014c0-.163-.026-.306-.08-.428a.663.663 0 0 0-.25-.3.93.93 0 0 0-.41-.144 6.416 6.416 0 0 0-.658-.026h-.47v1.827h.454c.287 0 .507-.014.662-.04.154-.03.29-.083.406-.164.12-.084.21-.183.264-.296s.083-.257.083-.43zm1.74 1.476h-.64v-4.815h.64v4.815zM100.54 19.65h-.638v-3.823l-2.177 3.823h-.647v-4.815h.637v3.76l2.147-3.76h.677v4.815zm-.473-6.26c-.008.326-.11.586-.307.784-.196.2-.493.298-.89.298-.396 0-.693-.1-.89-.298-.196-.198-.298-.458-.307-.783h.576c.004.243.057.418.16.524s.257.16.46.16c.205 0 .36-.053.46-.158s.157-.28.16-.525h.577zM107.506 20.74h-.608v-1.09h-3.312v-4.815h.64v4.253h2.185v-4.253h.64v4.253h.457v1.652zM108.125 19.65v-4.815h3.012v.567h-2.37v1.32h2.21v.57h-2.21v1.788h2.37v.57h-3.012zM115.338 19.65h-.64v-2.357h-2.216v2.357h-.64v-4.815h.64v1.89h2.216v-1.89h.64v4.815zM117.44 19.65v-4.248h-1.616v-.567h3.875v.567h-1.618v4.248h-.64zM123.225 16.286a1.6 1.6 0 0 1-.112.594 1.38 1.38 0 0 1-.31.478c-.165.164-.36.29-.584.37-.225.086-.51.128-.852.128h-.543v1.795h-.64v-4.814h1.21c.284 0 .527.022.728.07.2.048.377.124.53.23.18.123.32.28.42.468.1.188.152.415.152.682zm-.667.017c0-.165-.03-.31-.086-.434a.726.726 0 0 0-.26-.302c-.1-.067-.22-.114-.354-.142a2.527 2.527 0 0 0-.503-.042h-.53v1.924h.436c.26 0 .47-.02.628-.063a.838.838 0 0 0 .398-.224.923.923 0 0 0 .207-.316c.044-.115.065-.248.065-.4z"/></g></svg>