<svg xmlns="http://www.w3.org/2000/svg" width="77.514" height="27.398" viewBox="0 0 77.514 27.398"><circle opacity=".8" fill="#FFF" cx="13.699" cy="13.699" r="13.699"/><path fill="#50529D" d="M13.7 0C6.134 0 0 6.133 0 13.7c0 1.063.125 2.1.355 3.095.375-.222.812-.35 1.28-.35a2.535 2.535 0 0 1 .736 4.96 13.686 13.686 0 0 0 11.33 5.993c7.564 0 13.698-6.133 13.698-13.7S21.264 0 13.7 0z"/><g fill="#FFF"><path d="M5.94 14.014H7.11v1.055h.028c.193-.434.497-.747.91-.944.415-.196.87-.294 1.368-.294.553 0 1.033.11 1.443.333.41.22.75.52 1.023.897.272.375.476.812.614 1.305a5.82 5.82 0 0 1 .208 1.57c0 .562-.068 1.09-.2 1.577-.135.49-.337.916-.608 1.283a2.917 2.917 0 0 1-1.022.868c-.41.212-.887.317-1.43.317-.183 0-.38-.02-.592-.062a3.09 3.09 0 0 1-.636-.194 2.51 2.51 0 0 1-.6-.37 2.014 2.014 0 0 1-.477-.58h-.027v3.242l-1.173-.772v-9.232zm3.383 6.85c.395 0 .73-.085 1.007-.256.277-.17.497-.397.663-.68.167-.28.285-.603.358-.966a5.56 5.56 0 0 0 .112-1.117 4.3 4.3 0 0 0-.132-1.063 2.973 2.973 0 0 0-.4-.93 2.01 2.01 0 0 0-.69-.647 1.95 1.95 0 0 0-.987-.242c-.396 0-.732.086-1.008.257-.276.17-.502.394-.676.672a2.94 2.94 0 0 0-.38.943c-.08.353-.118.71-.118 1.07 0 .384.04.755.124 1.11s.213.672.394.942c.18.274.41.495.697.66.285.165.63.248 1.036.248zM18.146 21.42c-.085.09-.186-.012-.305.078-.12.092-.245.17-.378.242-.134.07-.27.128-.416.174a1.386 1.386 0 0 1-.42.068c-.535 0-.984-.115-1.347-.348a2.666 2.666 0 0 1-.884-.928 4.318 4.318 0 0 1-.49-1.336 7.807 7.807 0 0 1-.153-1.57c0-1.248.25-2.222.746-2.92.498-.7 1.172-1.05 2.03-1.05.146 0 .3.024.462.075.16.05.312.117.455.196.142.083.277.172.4.273.126.1.224.008.3.108v-2.674h1.157v2.675c.075-.1.17-.008.29-.107.12-.102.252-.19.402-.272.146-.078.3-.145.454-.195.158-.05.313-.075.47-.075.856 0 1.533.35 2.03 1.05.497.698.746 1.672.746 2.92 0 .544-.05 1.067-.152 1.57a4.37 4.37 0 0 1-.49 1.336c-.227.387-.52.697-.883.928-.364.232-.812.348-1.346.348-.268 0-.55-.08-.85-.234-.298-.157-.523-.137-.67-.327v3.368h-1.158V21.42zm-1.382-.494c.36 0 .667-.1.925-.295.256-.194.41-.24.456-.523V15.99a1.39 1.39 0 0 0-.617-.852 1.25 1.25 0 0 0-.423-.182 1.722 1.722 0 0 0-.412-.054 1.37 1.37 0 0 0-.78.217 1.74 1.74 0 0 0-.54.605 2.945 2.945 0 0 0-.31.927c-.066.36-.097.755-.097 1.178 0 .362.028.728.083 1.094.056.367.15.7.283.998.134.295.316.536.545.724.232.186.527.28.886.28zm3.922 0c.36 0 .653-.094.884-.28.23-.187.41-.428.544-.723.134-.3.228-.63.284-.998a7.357 7.357 0 0 0-.013-2.272 2.954 2.954 0 0 0-.31-.927 1.728 1.728 0 0 0-.54-.606 1.372 1.372 0 0 0-.78-.217c-.128 0-.267.018-.415.054a1.215 1.215 0 0 0-.42.182 1.374 1.374 0 0 0-.616.852v4.115c.048.282.2.33.458.524.256.197.564.296.924.296z"/></g><g fill="#50529D"><path d="M36.583 13.598V.354h2.57v5.213h5.04V.354h2.57v13.243h-2.57v-5.79h-5.04v5.79h-2.57zM60.906 13.598H58.11l-1.113-3.008h-5.09l-1.05 3.008h-2.73L53.088.355h2.72l5.1 13.243zm-4.735-5.24l-1.753-4.914-1.72 4.914h3.474zM62.313.354h2.57v11.02h3.684V.355h2.562v11.02h3.804V.355h2.562l.017 13.252-15.2-.01V.355z"/><g><path d="M43.83 27.043h-1.453V24.42h-5.084v2.623H35.84v-4.008h.69c.486-.675.86-1.474 1.12-2.397.263-.923.394-1.85.394-2.783v-.964h4.786v6.146h1v4.007zm-2.562-4.008v-4.78h-1.826c-.09 2.016-.52 3.61-1.292 4.78h3.118zM44.66 20.63c0-1.138.317-2.07.95-2.797s1.476-1.09 2.526-1.09c1.1 0 1.955.352 2.562 1.054.608.703.913 1.648.913 2.834 0 1.234-.315 2.198-.95 2.89-.632.695-1.474 1.042-2.524 1.042-1.09 0-1.942-.355-2.555-1.065-.612-.712-.92-1.667-.92-2.866zm1.758 0c0 1.665.573 2.497 1.717 2.497.52 0 .935-.212 1.248-.636.313-.424.47-1.044.47-1.86 0-1.63-.572-2.445-1.717-2.445-.522 0-.94.214-1.25.64-.31.426-.468 1.03-.468 1.806zM61.67 24.42h-1.73c-.365-2.128-.558-3.315-.578-3.564a7.096 7.096 0 0 1-.03-.513h-.07a4.726 4.726 0 0 1-.25.71l-1.703 3.51h-.596l-1.257-2.566c-.334-.686-.528-1.103-.582-1.253a4.702 4.702 0 0 1-.128-.4h-.067c0 .314-.043.733-.128 1.26L54.1 24.42h-1.65l1.372-7.678h.65l2.63 5.37 2.588-5.37h.615l1.365 7.677zM69.46 21.193h-5.18c.027.6.227 1.068.6 1.402.37.336.863.503 1.476.503.762 0 1.348-.213 1.758-.64l.65 1.357c-.61.496-1.495.745-2.658.745-1.1 0-1.972-.33-2.616-.992-.645-.66-.967-1.604-.967-2.833 0-1.195.354-2.16 1.062-2.894s1.552-1.1 2.535-1.1c1.037 0 1.875.326 2.515.975.64.65.96 1.482.96 2.5 0 .24-.046.566-.136.978zm-5.112-1.322h3.543c-.112-1.105-.698-1.657-1.757-1.657-.95 0-1.547.552-1.785 1.658zM77.35 24.42h-1.69v-3.227h-3.002v3.228h-1.69v-7.53h1.69v2.848h3V16.89h1.69v7.53z"/></g></g></svg>