<svg xmlns="http://www.w3.org/2000/svg" width="54.474" height="43.398" viewBox="0 0 54.474 43.398"><g fill="#274A5B"><path d="M9.26 36.643H5.375v1.17H6.46v4.283H5.376v1.175H9.26v-1.174H8.17v-4.282h1.09v-1.17M15.64 36.51c-.503 0-.97.082-1.395.242-.425.16-.782.387-1.07.683-.3.304-.528.67-.685 1.1a4.12 4.12 0 0 0-.235 1.43c0 .56.083 1.06.248 1.49.164.43.397.788.696 1.075.3.29.655.508 1.072.652.42.145.873.217 1.365.217.33 0 .593-.016.783-.05.19-.033.392-.08.608-.14.167-.05.326-.106.476-.17l.476-.21v-1.584h-.176c-.08.072-.183.154-.307.252a3.833 3.833 0 0 1-.406.273c-.17.108-.358.19-.56.253a2.11 2.11 0 0 1-1.276-.01 1.632 1.632 0 0 1-.606-.35 1.87 1.87 0 0 1-.442-.66c-.117-.276-.176-.624-.176-1.038 0-.396.055-.734.164-1.012a1.86 1.86 0 0 1 .423-.672c.186-.174.386-.3.602-.374.216-.076.444-.114.684-.114.217 0 .418.033.61.098s.365.145.53.24c.16.093.302.19.428.288.126.097.23.18.313.25h.195v-1.605a7.748 7.748 0 0 0-.423-.192 4.182 4.182 0 0 0-.54-.19 5.303 5.303 0 0 0-1.376-.17M24.9 36.643h-1.966l-2.447 6.628h1.724l.463-1.336h2.45l.46 1.337h1.765L24.9 36.644m-1.816 4.073l.813-2.37.813 2.37h-1.626M36.323 36.643h-1.57v3.796l-2.417-3.797H30.29v6.628h1.57v-4.55l2.812 4.55h1.65v-6.627M46.034 36.643h-1.57v3.796l-2.418-3.797H40v6.628h1.57v-4.55l2.813 4.55h1.65v-6.627M27.665 0c-1.016 0-2.05.104-3.094.31-1.73.387-3.26 1.216-4.79 2.06-5.05 2.475-8.267 7.666-7.822 13.285l2.458-.713c-.3-3.962.773-7.482 3.246-10.354 1.503 7.98 4.75 15.23 9.582 21.84.44.027.868.055 1.292.055.428 0 .852-.027 1.284-.115-1.703-1.716-3.06-3.56-4.436-5.405 2.103-.96 4.233-1.945 6.136-3.29-.257-.642-.443-1.343-.77-1.916-2.004 1.517-4.078 2.832-6.294 3.818-1.03-1.542-1.917-3.13-2.775-4.733v-.157c2.36-.96 4.633-2.146 6.75-3.703-.37-.688-.77-1.403-1.186-2.017-1.99 1.543-4.033 2.975-6.18 4.12h-.213c-1.3-2.762-2.33-5.65-3.088-8.653.7-.787 1.503-1.545 2.316-2.16l2.375-.672C28.43 8.306 32.32 15.916 34.45 24.152c.56-.556 1.06-1.158 1.188-1.9-.414-1.16-.713-2.347-1.244-3.448-.27-.814-.802-1.57-.973-2.373a49.52 49.52 0 0 0 4.534-3.762 5.982 5.982 0 0 0-.77-2.83h-.114a44.73 44.73 0 0 1-4.735 4.59c-.887-1.443-1.703-2.918-2.672-4.333 1.657-1.258 3.26-2.774 4.732-4.375-.528-.688-1.215-1.418-2.002-1.688-1.258 1.403-2.673 2.875-4.12 4.062-1.742-2.216-3.63-4.42-5.72-6.436.852-.19 1.82-.29 2.787-.29.967 0 1.933.1 2.776.29 4.92.888 9.71 5.72 10.498 10.654 1.044 5.52-.93 10.598-5.448 13.958-1.6.58-3.308.875-5.01.875-3.66 0-7.293-1.365-9.764-4.18 1.715-.284 3.347-.8 4.992-1.328-.245-.414-.544-.802-.73-1.244-4.545 1.825-9.5 2.877-14.722 2.877-.628 0-1.26-.017-1.897-.047 1.78.23 3.595.33 5.423.33 1.156 0 2.316-.043 3.474-.113 1.215 1.515 2.76 2.73 4.333 3.603 1.795 1 4.027 1.498 6.272 1.498 2.672 0 5.366-.705 7.37-2.11a14.364 14.364 0 0 0 5.963-4.792c2.89-3.69 3.332-9.782 1.187-13.958l-.927-1.593C36.425 2.087 32.238 0 27.665 0"/><path d="M19.465 13.854C15.49 15.71 11.198 16.84 6.595 17.2a62.134 62.134 0 0 0 5.463-.156c.3 1.814.915 3.517 1.9 5.046 1.03-.2 2.06-.37 3.03-.67-.87-1.16-1.485-2.447-1.942-3.805-.07-.33-.316-.717-.114-1.03 1.772-.33 3.503-.73 5.146-1.344l-.613-1.386M27.28 32.447c-9.37 0-18.75.918-27.28 2.73 8.556-.932 17.496-1.37 26.445-1.37 9.48 0 18.973.492 28.03 1.412-8.496-1.858-17.84-2.774-27.194-2.773"/></g></svg>