<svg baseProfile="basic" xmlns="http://www.w3.org/2000/svg" width="20" height="20" viewBox="0 0 20 20"><g fill="#A7A7A7"><ellipse cx="10" cy="5" rx="9" ry="4"/><path d="M10 10c-4.2 0-7.7-1.3-8.7-3-.2.3-.3.7-.3 1 0 2.2 4 4 9 4s9-1.8 9-4c0-.3-.1-.7-.3-1-1 1.7-4.5 3-8.7 3z"/><path d="M10 13c-4.2 0-7.7-1.3-8.7-3-.2.3-.3.7-.3 1 0 2.2 4 4 9 4s9-1.8 9-4c0-.3-.1-.7-.3-1-1 1.7-4.5 3-8.7 3z"/><path d="M10 16c-4.2 0-7.7-1.3-8.7-3-.2.3-.3.7-.3 1 0 2.2 4 4 9 4s9-1.8 9-4c0-.3-.1-.7-.3-1-1 1.7-4.5 3-8.7 3z"/></g><path fill="#FFF" d="M8.5 15V9.2l-.6.7-2.6-2.8L9.4 3h3.3v12z"/><path fill="#A7A7A7" d="M11.7 4v10H9.5V6.7L7.9 8.4 6.7 7.2 9.8 4h1.9m2-2H9l-.6.6-3.2 3.1-1.3 1.4 1.3 1.4 1.2 1.3L7.5 11v5h6.1V2h.1z"/></svg>