<svg xmlns="http://www.w3.org/2000/svg" width="228.116" height="213.966" viewBox="0 0 228.116 213.966"><path fill="#74D7FA" d="M228.116 0H104.984C75.392 31.237 57.236 73.415 57.236 119.838c0 34.675 10.137 66.98 27.594 94.128h143.286V0z"/><path fill-rule="evenodd" clip-rule="evenodd" fill="#0EA736" d="M119.043 153.912c-.954-.4-2.29-.666-3.18-.784-1.17-.133-2.037-.182-2.837 0-2.374.698-2.534 3.174 3.908 7.05 1.726 2.296 4.856 4.39 7.816 3.237 1.72-4.883-1.857-7.86-5.708-9.186 0-.318.03-.22 0-.318zM145.99 104.54c.285.252.462.658.712.698h.37c1.734.495 3.425-1.258 2.107-1.375-.522-.087-1.523.05-3.19.677zM186.364 89.317c-2.754.472-3.43 2.32 2.515 6.395.73-.204 5.832-1.35 2.838 1.738 9.212-5.495-.64-8.962-5.354-8.133zM186.364 49.944c9.924-4.037 12.213-30.164.396-29.395-.77 0-1.53.38-2.502.737 4.947 9.12-6.46 20.725 2.106 28.657zM203.37 0c-2.88 4.153.388 10.928 8.188 3.567 1.438-.67 2.498-2.206 2.66-3.567H203.37z"/><path fill-rule="evenodd" clip-rule="evenodd" fill="#0EA736" d="M228.116.316a19.06 19.06 0 0 0-4.832.003c-12.112 1.532-24.32 13.222-13.066 24.8 8.066 10.074-11.64 30.61 7.062 35.88 2.588-5.787 6.738-11.156 10.837-16.55V.315z"/><path fill="#0EA736" d="M157.728 60.232c-18.48 4.958-11.025-35.112 7.773-29.772 13.623.785 11.766-11.062 3.51-14.87 0-.582-.18-.898-.696-.38-1.512-.565-3.094-1.152-4.958-1.062-6.123-3.382-6.137-8.51-4.325-14.147h-35.416c-20.05 19.162-39.988 41.224-50.26 62.352-7.394 21.102-6.156 42.343-5.297 64.53 7.498 21.5 22.074 39.22 33.67 58.48 7.048 8.82 4.193 18.904 3.402 28.605h66.295c-6.13-5.07-12.63-9.658-20.128-12.954-16.425-15.94-53.484-6.03-52.81-36.193 1.712-14.323-9.787-21.24-18.415-27.974-6.635-22.167 33.797-30.318 34.386-6.044 13.312-.695 17.974-23.917 33.347-27.273 7.917-6.872 29.34.517 21.592-13.514 7.653-7.28 30.13-7.027 19.132-24.06-3.683-16.6-24.094-24.62-30.802-5.724z"/><g opacity=".2" fill="#010000"><path d="M65.71 66.117c-.046.13-.076.222-.11.332 1.613-.09 3.044-.2 3.044-.333H65.71z"/><path d="M228.116 189.98v-5.296a1632.77 1632.77 0 0 1-57.38-1.006c-2.995-19.335-4.632-40.123-4.744-61.564h62.124v-5.272h-62.124c.15-21.6 1.84-42.573 4.94-62.035a1719.65 1719.65 0 0 1 57.184-1.01V48.5c-19.544.027-38.528.363-56.3.99 3.158-18.166 7.59-34.872 13.172-49.49h-5.582c-5.438 14.784-9.79 31.54-12.903 49.69-19.362.726-37.158 1.83-52.472 3.2-5.08.475-9.81.97-14.155 1.49C106.97 33.954 117.288 15.512 130.017 0h-23.132c-.94.33-1.892.648-2.815.995a183.222 183.222 0 0 0-8.12 9.346c6.65-3.467 15.727-6.753 26.83-9.615C110.64 16.47 100.867 34.85 94.146 55.1c-6.153.814-11.403 1.69-15.694 2.61-5.024 1.078-8.635 2.19-11.045 3.47a90.436 90.436 0 0 0-1.407 4.123c4.928-1.146 13.648-2.84 26.4-4.643-5.284 17.592-8.29 36.493-8.564 56.182h-26.5c-.032.993-.097 1.98-.097 2.997 0 .763.05 1.51.064 2.275h26.52c.207 19.487 3.088 38.193 8.205 55.682-20.542-2.93-23.238-5.613-23.518-5.996.035.047.137.272.137.565H65.31a182.534 182.534 0 0 0 1.593 4.713c2.414 1.366 6.177 2.564 11.548 3.706 4.226.903 9.313 1.76 15.306 2.562 3.494 10.768 7.85 21.012 12.965 30.62h5.937c-5.175-9.357-9.607-19.355-13.187-29.886 4.47.54 9.32 1.034 14.573 1.505 15.257 1.398 32.984 2.483 52.268 3.217 1.46 8.722 3.206 17.132 5.22 25.165h5.398a318.055 318.055 0 0 1-5.315-24.96c17.828.602 36.894.968 56.503.972zm-109.84-9.303c-8.12-.724-14.902-1.423-20.59-2.14-5.395-17.64-8.46-36.628-8.662-56.423h71.768c.113 21.325 1.71 42.035 4.65 61.374-17.205-.672-33.172-1.617-47.166-2.81zm42.516-63.836H89.024c.293-20 3.473-39.172 9.033-56.94 5.6-.68 12.267-1.38 20.204-2.075 14.035-1.193 30.076-2.14 47.375-2.812-3.028 19.457-4.694 40.317-4.843 61.828z"/></g><path opacity=".7" fill="#E3F7FF" d="M228.116 181.063h-39.342c-4.41 0-7.988-3.58-7.988-7.99 0-4.414 3.578-7.993 7.988-7.993h39.342v-17.11h-7.92c-4.782 0-8.66-3.88-8.66-8.663a8.66 8.66 0 0 1 8.66-8.66h7.92V28.325h-53.02c-.497 0-.986.025-1.478.066h-51.842a8.4 8.4 0 0 0-8.4 8.4c0 3.74 2.443 6.9 5.82 7.99h13.624a8.866 8.866 0 0 1 8.866 8.866c0 4.9-3.97 8.867-8.866 8.867h-26.216c.107.028.214.063.323.088H8.547a8.55 8.55 0 0 0 0 17.098h7.41c-.05.01-.1.026-.15.034h21.09c4.73 0 8.565 3.837 8.565 8.57a8.568 8.568 0 0 1-8.566 8.57H17.54c-7.95 1.487-13.97 8.464-13.97 16.848 0 9.47 7.678 17.148 17.15 17.148h55l-.004.003h45.824a8.548 8.548 0 0 1 8.55 8.55 8.55 8.55 0 0 1-8.55 8.55l-70.61.03c-9.1 0-16.478 7.376-16.478 16.478s7.377 16.48 16.478 16.48h20.653c.42.064.852.105 1.29.105H94.56c-3.994.72-7.032 4.202-7.032 8.408a8.548 8.548 0 0 0 8.55 8.55h132.04v-16.957z"/><g><path fill="#FCD22E" d="M88.922 25.504a27.288 27.288 0 0 1-14.225 15.134 27.277 27.277 0 0 1 14.225 15.135 27.27 27.27 0 0 1 14.23-15.135 27.27 27.27 0 0 1-14.23-15.134z"/><path fill="#FD7600" d="M88.922 33.016a13.732 13.732 0 0 1-7.176 7.622c3.3 1.482 5.89 4.23 7.176 7.623a13.694 13.694 0 0 1 7.163-7.622 13.74 13.74 0 0 1-7.163-7.622z"/><path fill="#FCD22E" d="M100.236 14.77a13.35 13.35 0 0 1-6.952 7.4 13.337 13.337 0 0 1 6.952 7.396 13.315 13.315 0 0 1 6.953-7.397 13.317 13.317 0 0 1-6.954-7.4z"/><path fill="#FD7600" d="M100.236 18.44a6.725 6.725 0 0 1-3.507 3.73 6.678 6.678 0 0 1 3.506 3.726 6.678 6.678 0 0 1 3.5-3.726 6.724 6.724 0 0 1-3.5-3.73z"/><g><path fill="#FCD22E" d="M76.058 10.475A19.247 19.247 0 0 1 66.02 21.153 19.247 19.247 0 0 1 76.058 31.83a19.242 19.242 0 0 1 10.04-10.677 19.242 19.242 0 0 1-10.04-10.678z"/><path fill="#FD7600" d="M76.058 15.774a9.708 9.708 0 0 1-5.062 5.378 9.65 9.65 0 0 1 5.062 5.375 9.644 9.644 0 0 1 5.057-5.375 9.696 9.696 0 0 1-5.057-5.378z"/></g></g><g><g fill="#DA161C"><path d="M24.093 88.53L45.81 68.84v10.056L57.28 68.84v29.096h-7.913V87.193L36.634 98.547V87.193L24.094 98.51v-9.98zM88.06 83.79c0 9.293-6.002 14.53-13.65 14.53-7.53 0-13.57-5.237-13.57-14.53 0-9.252 5.926-14.528 13.57-14.528 7.726 0 13.65 5.275 13.65 14.53zm-13.65-7.723c-4.396 0-6.04 3.518-6.04 7.724 0 4.168 1.645 7.723 6.04 7.723 4.437 0 6.12-3.556 6.12-7.722 0-4.09-1.683-7.723-6.12-7.723zM109.78 76.45h-8.757c-.878 0-1.913.88-1.913 1.874 0 1.413 1.035 2.064 2.832 2.064 4.396 0 8.68 3.48 8.68 8.755 0 5.314-4.36 8.794-8.756 8.794H91.39v-6.805h9.827c.877 0 1.832-.88 1.832-1.874 0-1.338-.956-2.064-2.83-2.064-5.2 0-8.678-4.398-8.678-8.756 0-4.627 4.358-8.793 8.755-8.793h17.013l-7.53 6.805z"/><path d="M129.483 97.937c-8.982 0-15.902-6.157-15.902-14.146 0-7.99 6.92-14.145 15.903-14.145h9.634l-7.532 6.806h-1.564c-5.047 0-8.908 3.21-8.908 7.342 0 4.13 3.86 7.34 8.91 7.34h1.563v6.806h-2.102z"/><path d="M163.337 83.79c0 9.293-6.004 14.53-13.65 14.53-7.532 0-13.57-5.237-13.57-14.53 0-9.252 5.922-14.528 13.57-14.528 7.722 0 13.65 5.275 13.65 14.53zm-13.65-7.723c-4.4 0-6.042 3.518-6.042 7.724 0 4.168 1.643 7.723 6.04 7.723 4.433 0 6.12-3.556 6.12-7.722 0-4.09-1.688-7.723-6.12-7.723zM175.345 69.336V80.08l12.77-11.355V80.08l11.926-10.744h11.015L178.94 98.318V88.263l-11.51 10.095V76.144l7.915-6.808z"/></g><g fill="#DA161C"><path d="M24.084 125.896l21.783-19.75v10.087l11.505-10.087v29.185h-7.938v-10.775l-12.77 11.392v-11.392l-12.58 11.352v-10.01zM88.25 121.143c0 9.318-6.022 14.572-13.69 14.572-7.56 0-13.615-5.254-13.615-14.572 0-9.282 5.943-14.575 13.614-14.575 7.744 0 13.69 5.293 13.69 14.575zm-13.69-7.748c-4.413 0-6.062 3.53-6.062 7.75 0 4.178 1.648 7.744 6.06 7.744 4.45 0 6.137-3.567 6.137-7.746 0-4.108-1.688-7.75-6.136-7.75zM107.12 135.33c-9.013 0-15.953-6.173-15.953-14.187 0-8.017 6.94-14.192 15.954-14.192h9.663l-7.555 6.827h-1.57c-5.062 0-8.936 3.225-8.936 7.366 0 4.14 3.874 7.362 8.936 7.362h1.57v6.826h-2.107zM123.828 118.572l12.73-11.622h10.358l-14.153 13.5 6.253 5.715v9.817l-11.772-10.548-3.416 3.107v6.79h-7.55v-22.167l7.55-6.828v12.237zM167.462 121.22c1.843-1 3.296-2.878 3.296-5.486 0-5.294-3.526-8.784-8.013-8.784h-9.705l-7.556 6.826v21.554h17.261c4.407 0 8.013-3.49 8.013-8.82 0-2.53-1.453-4.717-3.296-5.29zm-6.136 7.285h-8.286v-3.95h8.286c1.188 0 1.88.805 1.88 1.958 0 1.148-.69 1.992-1.88 1.992zm0-10.777h-8.286v-3.95h8.286c1.188 0 1.88.807 1.88 1.957s-.69 1.993-1.88 1.993zM194.41 106.95l-21.014 19.024v10.01l4.975-4.486h16.04v3.833h7.555v-28.38h-7.554zm0 17.605h-8.338l8.34-7.52v7.52z"/></g><path fill="#DA161C" d="M23.127 106.754a6.685 6.685 0 0 1-6.685 6.684 6.685 6.685 0 1 1 6.685-6.684z"/><path d="M25.942 144.6h4.935v7.15h.73v2.847h-.957v-1.89h-5.36v1.89h-.957v-2.848h.63c.653-.985.98-2.974.98-5.97v-1.18zm3.863.954h-2.828v.415c0 .69-.06 1.63-.185 2.828-.124 1.198-.366 2.18-.727 2.95h3.74v-6.194zM32.494 149.77c0-1.088.304-1.894.907-2.418.508-.435 1.122-.653 1.85-.653.808 0 1.467.264 1.98.793.513.53.767 1.26.767 2.192 0 .755-.112 1.353-.34 1.784-.226.435-.555.77-.99 1.008a2.87 2.87 0 0 1-1.418.36c-.823 0-1.488-.263-1.996-.79-.505-.527-.76-1.286-.76-2.278zm1.025 0c0 .75.164 1.315.49 1.69.328.374.742.56 1.24.56.493 0 .903-.188 1.232-.565.33-.376.493-.948.493-1.72 0-.727-.165-1.277-.494-1.65a1.576 1.576 0 0 0-1.23-.562c-.498 0-.912.186-1.24.56-.326.372-.49.935-.49 1.687zM39.306 146.833h1.55l1.542 4.7 1.715-4.7h1.433v5.874h-.996v-4.73l-1.735 4.73h-.893l-1.64-4.958v4.957h-.976v-5.874zM51.2 150.815l1.027.126c-.16.602-.46 1.067-.9 1.4-.438.333-.997.498-1.68.498-.86 0-1.542-.265-2.045-.793-.504-.53-.756-1.273-.756-2.227 0-.99.255-1.753.766-2.3.508-.546 1.168-.82 1.98-.82.786 0 1.426.268 1.923.803.5.537.75 1.286.75 2.258 0 .06-.004.146-.008.264h-4.38c.036.646.22 1.142.547 1.483a1.63 1.63 0 0 0 1.23.514c.362 0 .676-.097.932-.286.26-.192.464-.5.614-.92zm-3.267-1.612h3.28c-.046-.493-.17-.864-.378-1.11a1.524 1.524 0 0 0-1.23-.575c-.46 0-.843.153-1.156.46-.312.304-.485.715-.517 1.225zM53.6 146.833h.994v2.445h2.76v-2.445h.996v5.874h-.995v-2.604h-2.76v2.604h-.996v-5.874zM59.983 146.833h.996v2.295h1.26c.822 0 1.455.16 1.9.477.444.32.667.76.667 1.32 0 .49-.186.912-.556 1.26-.37.35-.963.52-1.777.52h-2.49v-5.872zm.996 5.056h1.044c.63 0 1.08-.08 1.35-.234.27-.155.404-.397.404-.725 0-.253-.1-.48-.3-.68-.2-.198-.64-.298-1.32-.298h-1.18v1.937zm4.572-5.057h.996v5.874h-.996v-5.874zM72.263 146.833h4.094v5.056h.636v2.48h-.818v-1.664H71.55v1.665h-.817v-2.48h.524c.7-.953 1.035-2.638 1.006-5.057zm.83.823c-.074 1.905-.368 3.316-.886 4.232h3.157v-4.232h-2.27zM78.687 146.833h4.624v5.874h-.99v-5.05h-2.637v2.926c0 .682-.023 1.133-.066 1.35a.988.988 0 0 1-.365.568c-.2.163-.486.245-.862.245-.233 0-.5-.014-.804-.045v-.83h.438c.207 0 .354-.022.442-.062a.336.336 0 0 0 .178-.202c.03-.094.044-.394.044-.903v-3.87zM89.545 146.833v5.874h-.986v-2.29h-.58c-.35 0-.608.045-.78.136-.172.09-.422.382-.75.87l-.867 1.284h-1.235l1.074-1.583c.327-.482.654-.756.978-.817-.568-.08-.99-.284-1.265-.616a1.742 1.742 0 0 1-.412-1.143c0-.508.182-.922.54-1.238.36-.32.88-.477 1.562-.477h2.72zm-.986.823h-1.42c-.59 0-.977.092-1.146.275a.932.932 0 0 0-.258.65c0 .35.127.604.38.77.253.164.7.245 1.343.245h1.1v-1.94zM94.43 154.957v-8.124h.907v.763c.217-.298.456-.522.726-.673.27-.15.595-.224.978-.224.505 0 .946.13 1.33.386.386.258.674.624.868 1.092.195.47.295.986.295 1.548 0 .6-.11 1.142-.324 1.623-.217.48-.53.85-.94 1.105a2.42 2.42 0 0 1-1.3.384c-.33 0-.63-.072-.89-.21a2.03 2.03 0 0 1-.652-.534v2.86h-.997zm.904-5.155c0 .756.152 1.315.458 1.675.307.36.677.542 1.11.542.446 0 .823-.187 1.14-.56.312-.375.472-.956.472-1.74 0-.75-.154-1.31-.462-1.682s-.676-.56-1.103-.56c-.426 0-.802.2-1.128.595-.327.398-.488.974-.488 1.73zM100.474 149.77c0-1.088.302-1.894.908-2.418.503-.435 1.12-.653 1.847-.653.806 0 1.466.264 1.978.793.515.53.77 1.26.77 2.192 0 .755-.112 1.353-.34 1.784-.226.435-.558.77-.987 1.008a2.88 2.88 0 0 1-1.42.36c-.822 0-1.49-.263-1.994-.79-.508-.527-.762-1.286-.762-2.278zm1.023 0c0 .75.164 1.315.492 1.69.328.374.74.56 1.238.56.493 0 .906-.188 1.235-.565.327-.376.49-.948.49-1.72 0-.727-.165-1.277-.496-1.65a1.564 1.564 0 0 0-1.23-.562c-.496 0-.91.186-1.238.56-.33.372-.493.935-.493 1.687zM111.09 150.553l.98.128c-.108.676-.38 1.205-.82 1.586-.442.38-.983.573-1.625.573-.802 0-1.45-.263-1.938-.79-.49-.524-.734-1.277-.734-2.258 0-.636.104-1.19.314-1.666.21-.476.532-.832.96-1.07.43-.238.898-.357 1.4-.357.64 0 1.162.163 1.566.483.406.322.668.78.78 1.375l-.965.15c-.094-.396-.256-.692-.49-.893a1.28 1.28 0 0 0-.85-.297c-.503 0-.91.18-1.224.54-.314.36-.468.927-.468 1.706 0 .788.15 1.36.452 1.718.303.358.697.537 1.184.537.39 0 .718-.12.978-.36.265-.24.43-.608.5-1.107zM116.87 150.553l.976.128c-.108.676-.38 1.205-.818 1.586-.444.38-.985.573-1.624.573-.81 0-1.452-.263-1.94-.79-.49-.524-.73-1.277-.73-2.258 0-.636.103-1.19.312-1.666.212-.476.53-.832.96-1.07.43-.238.897-.357 1.402-.357.64 0 1.16.163 1.565.483.405.322.667.78.78 1.375l-.968.15c-.095-.396-.255-.692-.49-.893a1.264 1.264 0 0 0-.848-.297c-.504 0-.91.18-1.224.54-.312.36-.47.927-.47 1.706 0 .788.15 1.36.454 1.718.3.358.696.537 1.182.537.39 0 .72-.12.978-.36.26-.24.43-.608.5-1.107zM118.81 146.833h.995v4.48l2.765-4.48h1.07v5.874h-.994v-4.452l-2.762 4.452h-1.074v-5.874zM125.254 146.833h.992v4.48l2.764-4.48h1.07v5.874h-.992v-4.452l-2.76 4.452h-1.074v-5.874zm3.456-2.226h.68c-.057.463-.225.816-.508 1.062-.28.247-.654.37-1.122.37-.473 0-.852-.123-1.132-.367-.28-.246-.452-.6-.507-1.066h.68c.053.25.156.44.31.562.152.124.358.185.616.185.3 0 .526-.058.676-.18.155-.12.255-.31.308-.568zM135.526 150.553l.98.128c-.11.676-.384 1.205-.823 1.586-.44.38-.983.573-1.627.573-.8 0-1.445-.263-1.935-.79-.487-.524-.73-1.277-.73-2.258 0-.636.103-1.19.314-1.666.21-.476.532-.832.96-1.07.43-.238.897-.357 1.4-.357.638 0 1.16.163 1.564.483.406.322.667.78.78 1.375l-.97.15c-.09-.396-.25-.692-.486-.893a1.27 1.27 0 0 0-.848-.297c-.503 0-.91.18-1.224.54-.313.36-.47.927-.47 1.706 0 .788.15 1.36.45 1.718.308.358.7.537 1.185.537.392 0 .72-.12.982-.36.264-.24.427-.608.5-1.107zM137.466 146.833h.995v2.54c.316 0 .54-.062.666-.183.128-.123.315-.478.562-1.063.194-.464.354-.77.476-.918a.926.926 0 0 1 .42-.3c.16-.05.415-.077.764-.077h.2v.824l-.277-.006c-.262 0-.43.042-.504.117-.074.082-.193.323-.353.725-.148.383-.288.648-.414.798-.127.146-.32.28-.582.4.427.117.848.516 1.26 1.197l1.092 1.82h-1.096l-1.064-1.82c-.214-.366-.406-.607-.567-.72a.965.965 0 0 0-.58-.174v2.714h-.996v-5.874zM142.17 149.77c0-1.088.303-1.894.907-2.418.508-.435 1.123-.653 1.847-.653.808 0 1.467.264 1.977.793.518.53.77 1.26.77 2.192 0 .755-.11 1.353-.336 1.784-.226.435-.56.77-.99 1.008a2.88 2.88 0 0 1-1.42.36c-.82 0-1.487-.263-1.993-.79-.507-.527-.76-1.286-.76-2.278zm1.023 0c0 .75.164 1.315.493 1.69.327.374.74.56 1.237.56.494 0 .904-.188 1.235-.565.328-.376.493-.948.493-1.72 0-.727-.166-1.277-.494-1.65a1.577 1.577 0 0 0-1.233-.562c-.496 0-.91.186-1.237.56-.33.372-.493.935-.493 1.687zM148.954 146.833h.994v4.48l2.76-4.48h1.073v5.874h-.993v-4.452l-2.76 4.452h-1.073v-5.874zm3.46-2.226h.676c-.055.463-.224.816-.51 1.062-.28.247-.654.37-1.12.37-.475 0-.852-.123-1.13-.367-.284-.246-.452-.6-.51-1.066h.682c.054.25.15.44.306.562.153.124.358.185.62.185.297 0 .522-.058.674-.18.155-.12.257-.31.31-.568zM162.49 150.553l.977.128c-.11.676-.383 1.205-.82 1.586-.44.38-.984.573-1.626.573-.8 0-1.448-.263-1.935-.79-.49-.524-.734-1.277-.734-2.258 0-.636.106-1.19.317-1.666.21-.476.53-.832.957-1.07a2.854 2.854 0 0 1 1.404-.357c.636 0 1.158.163 1.566.483.405.322.666.78.777 1.375l-.968.15c-.093-.396-.252-.692-.486-.893a1.277 1.277 0 0 0-.85-.297c-.503 0-.91.18-1.223.54-.314.36-.47.927-.47 1.706 0 .788.15 1.36.45 1.718.303.358.698.537 1.186.537.39 0 .716-.12.978-.36.263-.24.427-.608.5-1.107zM163.896 146.833h4.773v.824h-1.894v5.05h-.99v-5.05h-1.89v-.824zM169.36 149.77c0-1.088.304-1.894.91-2.418.502-.435 1.118-.653 1.846-.653.807 0 1.466.264 1.98.793.514.53.77 1.26.77 2.192 0 .755-.113 1.353-.343 1.784a2.37 2.37 0 0 1-.99 1.008c-.433.24-.903.36-1.418.36-.822 0-1.486-.263-1.993-.79-.507-.527-.762-1.286-.762-2.278zm1.027 0c0 .75.163 1.315.49 1.69.33.374.74.56 1.24.56.49 0 .906-.188 1.233-.565.33-.376.492-.948.492-1.72 0-.727-.163-1.277-.495-1.65a1.57 1.57 0 0 0-1.23-.562c-.5 0-.91.186-1.24.56-.327.372-.49.935-.49 1.687zM176.635 146.833h4.622v5.874h-.99v-5.05h-2.64v2.926c0 .682-.022 1.133-.067 1.35a.95.95 0 0 1-.363.568c-.2.163-.486.245-.862.245a7.99 7.99 0 0 1-.803-.045v-.83h.438c.208 0 .354-.022.443-.062a.336.336 0 0 0 .176-.202c.03-.094.046-.394.046-.903v-3.87zM182.868 146.833h.997v4.48l2.76-4.48h1.073v5.874h-.996v-4.452l-2.76 4.452h-1.074v-5.874zM189.327 146.833h.995v5.056h2.755v-5.057h.994v5.056h.644v2.48h-.817v-1.664h-4.57v-5.873zM195.934 146.833h.993v2.295h1.265c.818 0 1.455.16 1.896.477.448.32.67.76.67 1.32 0 .49-.188.912-.558 1.26-.37.35-.963.52-1.777.52h-2.49v-5.872zm.993 5.056h1.048c.63 0 1.082-.08 1.35-.234.27-.155.404-.397.404-.725 0-.253-.1-.48-.3-.68-.2-.198-.642-.298-1.322-.298h-1.18v1.937zm4.578-5.057h.994v5.874h-.995v-5.874z"/></g></svg>