<svg id="Слой_1" xmlns="http://www.w3.org/2000/svg" width="300" height="347" viewBox="-329 107 300 347"><style>.st0{fill:#e6e6e6}.st1{fill:#DDD}.st2{fill-opacity:.2}.st3{opacity:.8;fill:#FFF;enable-background:new}.st4{fill:#c43d23}.st5{fill:#FFF;fill-opacity:.5}.st6{opacity:.15;enable-background:new}.st7{fill:#fddba4}.st8{fill:#ff8080}.st9{fill:#FFF}.st10{opacity:.2;fill:#14120e;enable-background:new}.st11{fill:#422902}.st12{opacity:.3}.st12,.st13{enable-background:new}.st13{opacity:.2;fill:#010000}.st14{fill:#77503b}.st15{fill:#289cc9}.st16{fill:#5e5e5e}.st17{opacity:.2;fill:#201600;enable-background:new}.st18{fill:#e4e4e4}.st19{fill:#1d89aa}.st20{opacity:.1}.st20,.st21{enable-background:new}.st21{opacity:.3;fill:#201600}.st22{fill:#f7bb26}.st23{opacity:.2}.st24{fill:#201600}.st25{fill:#ffd47d}.st26{opacity:.1}.st27{fill:#238cad}.st28{fill:#48443e}.st29{fill:#7f7e7c}.st30{fill:#77513b}.st31{fill:#63402e}.st32{fill:#ededed}.st33{fill:#073b44}</style><g id="XMLID_41_"><g id="XMLID_228_"><ellipse id="XMLID_239_" class="st0" cx="-257.3" cy="360.3" rx="64.9" ry="12.1"/><g id="XMLID_234_"><g id="XMLID_235_"><path id="XMLID_238_" class="st1" d="M-256.9 149.8c-18.5.2-33.4 15.2-33.4 33.7s14.9 33.5 33.4 33.7c18.5-.2 33.5-15.2 33.5-33.7 0-18.6-15.1-33.6-33.5-33.7z"/><path id="XMLID_236_" class="st1" d="M-197.1 228.3c-12.6-25.1-10.8-34-10.8-42.5 0-4.7 0-7.1-.1-8.2 0-.5-.1-.9-.1-1.4 0-26.9-20.5-48.8-48.5-49.4h-1c-27 .6-48.3 22.4-48.3 49.4v9.6c0 8.6 1.8 17.4-10.8 42.5s-12.3 45.5-12.3 45.5c0 31 20.9 81.5 20.9 81.5 13.8 13.8 46.5 13.5 51.1 13.4 4.6.1 37.4.4 51.2-13.4 0 0 21-50.5 21-81.5 0-.1.2-20.4-12.3-45.5z"/></g></g><path id="XMLID_231_" class="st2" d="M-247.9 135.5c-9.7-9.7 11.5-5.6 25.8 11.5 7.1 8.6 9.3 23.8 9.8 31.3 1.3 20.5-1.6 20.1 15.1 63.2 5.7 14.6 7.5 30.4 5.3 45.9-4.3 30.1-16.6 63.5-18.1 67.2-.1.2-.1.4-.1.5-.1.7-1.1 3-10.6 5.4-1.6.4-3-1.1-2.6-2.6 3.9-14.4 18.2-70.7 10.9-105.8-8.5-40.4-9-20.4-8.6-59 .4-47.1-14.6-45.2-26.9-57.6z"/><path id="XMLID_230_" class="st3" d="M-301.7 324.2c2.7 1.2 5.6-1 5.1-3.9-3.9-22-6.6-48.5-2.5-68.2 2.9-13.9 4.9-20.6 6.2-25.1.9-3-.2-6.2-2.6-8.1-4-3.2-9.9-1.5-11.6 3.3-2.9 8.1-6.9 18.6-12.5 32.7-4.9 14.3-1.4 36.8 3.8 56.8 1 3.9 3.6 7.3 7.2 9.3 2.3 1.2 4.7 2.2 6.9 3.2z"/><path id="XMLID_229_" class="st3" d="M-289.5 147c-6.3 7.5-8.7 20.2-9.5 28.3-.1.7.2 1.5.7 2 1.3 1.4 3.2 2.3 4.7 2.9 1.6.6 3.4-.6 3.5-2.3 2.6-31.7 14.2-34.2 26.3-42.4 11.5-7.6-11.4-5.6-25.7 11.5z"/></g><g id="XMLID_212_"><ellipse id="XMLID_227_" class="st0" cx="-102.8" cy="360.3" rx="64.9" ry="12.1"/><g id="XMLID_222_"><g id="XMLID_223_"><path id="XMLID_226_" class="st4" d="M-102.5 149.8c-18.5.2-33.4 15.2-33.4 33.7s14.9 33.5 33.4 33.7C-84 217-69 202-69 183.5c0-18.6-15-33.6-33.5-33.7z"/><path id="XMLID_224_" class="st4" d="M-42.6 228.3c-12.6-25.1-10.8-34-10.8-42.5 0-4.7 0-7.1-.1-8.2 0-.5.2-.9.2-1.4 0-26.9-22.2-48.8-48.2-49.4h-1c-28 .6-48.5 22.4-48.5 49.4 0 .5-.1.9-.1 1.4 0 1.2-.1 3.5-.1 8.2 0 8.6 1.8 17.4-10.8 42.5s-12.3 45.5-12.3 45.5c0 31 20.8 81.5 20.8 81.5 13.8 13.8 46.5 13.5 51.1 13.4 4.6.1 37.4.4 51.2-13.4 0 0 21-50.5 21-81.5-.1-.1.1-20.4-12.4-45.5z"/></g></g><path id="XMLID_219_" class="st2" d="M-93.4 135.5c-9.7-9.7 11.5-5.6 25.8 11.5 7.1 8.6 9.3 23.8 9.8 31.3 1.3 20.5-1.6 20.1 15.1 63.2 5.7 14.6 7.5 30.4 5.3 45.9-4.3 30.1-16.6 63.5-18.1 67.2-.1.2-.1.4-.1.5-.1.7-1.1 3-10.6 5.4-1.6.4-3-1.1-2.6-2.6 3.9-14.4 18.2-70.7 10.9-105.8-8.5-40.4-9-20.4-8.6-59 .4-47.1-14.6-45.2-26.9-57.6z"/><path id="XMLID_216_" class="st5" d="M-147.2 324.2c2.7 1.2 5.6-1 5.1-3.9-3.9-22-6.6-48.5-2.5-68.2 2.9-13.9 4.9-20.6 6.2-25.1.9-3-.2-6.2-2.6-8.1-4-3.2-9.9-1.5-11.6 3.3-2.9 8.1-6.9 18.6-12.5 32.7-4.9 14.3-1.4 36.8 3.8 56.8 1 3.9 3.6 7.3 7.2 9.3 2.2 1.2 4.7 2.2 6.9 3.2z"/><path id="XMLID_213_" class="st5" d="M-135 147c-6.3 7.5-8.7 20.2-9.5 28.3-.1.7.2 1.5.7 2 1.3 1.4 3.2 2.3 4.7 2.9 1.6.6 3.4-.6 3.5-2.3 2.6-31.7 14.2-34.2 26.3-42.4 11.5-7.6-11.4-5.6-25.7 11.5z"/></g><g id="XMLID_42_"><ellipse id="XMLID_211_" class="st0" cx="-181.1" cy="436.8" rx="91.7" ry="17"/><path id="XMLID_210_" class="st6" d="M-79.8 367.1c1-4.1 2-8.3 2.9-12.4.3-1.2.4-1.9.4-1.9.5-2.5 1-5 1.4-7.5.4-1.5.6-2.8.6-3.6 1.5-8.9 2.3-17.5 2.3-25.3 0 0 .4-30.6-18.5-68.4s-16.3-51.1-16.3-64c0-7.1-.1-10.6-.1-12.4 0-.7-.3-1.4-.3-2.1 0-14.7-4.4-28.4-11.8-39.9-3.1 1-7.9 3.7-7.9 3.7s-103 1.3-107.2-.8-8.2-3.5-8.2-3.5c-7.7 11.8-11.8 25.3-11.8 40.5 0 .7.1 1.4.1 2.1V184c0 12.9 2.7 26.2-16.2 64s-18.5 68.4-18.5 68.4c0 12.7 2.3 27.5 5.7 42.4 0 0 0 .2.1.4l1.8 7.5s4.8.8 7.8 1.1c3.1.3 181.6.7 186 .2 4.3-.4 7.7-.9 7.7-.9z"/><g id="XMLID_52_"><path id="XMLID_209_" class="st7" d="M-130.7 189.9c-.2 2-1.9 3.4-3.9 3.3h-.4c-2-.2-3.5-1.9-3.3-3.9l1.5-15.7c.2-2 1.9-3.4 3.9-3.3h.4c2 .2 3.4 1.9 3.3 3.9l-1.5 15.7z"/><path id="XMLID_208_" class="st7" d="M-229.5 189.9c.2 2 1.9 3.4 3.9 3.3h.4c2-.2 3.4-1.9 3.3-3.9l-1.5-15.7c-.2-2-1.9-3.4-3.9-3.3h-.4c-2 .2-3.4 1.9-3.3 3.9l1.5 15.7z"/><path id="XMLID_207_" class="st7" d="M-180.3 112.4h-1.2c-28.1 0-50.8 30.6-50.8 68.4 3 21.1 9.7 45.7 16.1 52.2 9.8 9.8 25.6 15.1 34.5 12.9.1 0 .2.1.2.1v.1s-.1 0 0 0v-.1s.6-.1.8-.1c8.9 2.2 25.1-3.1 34.9-12.9 6.4-6.4 13.2-31.1 16.2-52.2.1-37.8-22.6-68.4-50.7-68.4z"/><path id="XMLID_206_" class="st8" d="M-195 199.5c0 6-4.8 10.8-10.8 10.8s-10.8-4.8-10.8-10.8 4.8-10.8 10.8-10.8 10.8 4.9 10.8 10.8z"/><path id="XMLID_205_" class="st8" d="M-145.2 199.5c0 6-4.8 10.8-10.8 10.8s-10.8-4.8-10.8-10.8 4.8-10.8 10.8-10.8 10.8 4.9 10.8 10.8z"/><path id="XMLID_204_" class="st9" d="M-148.2 178.7c0 2.4-4.9 4.3-11 4.3-6 0-11-1.9-11-4.3s4.9-4.3 11-4.3 11 1.9 11 4.3"/><path id="XMLID_203_" class="st9" d="M-193.3 178.7c0 2.4-4.9 4.3-11 4.3-6 0-11-1.9-11-4.3s4.9-4.3 11-4.3 11 1.9 11 4.3"/><path id="XMLID_202_" class="st10" d="M-174.7 201.3c0 2.8-2.5 5.1-5.5 5.1h-.1c-3 0-5.5-2.3-5.5-5.1v-23.1c0-2.8 2.5-5.1 5.5-5.1h.1c3 0 5.5 2.3 5.5 5.1v23.1z"/><path id="XMLID_201_" class="st9" d="M-202.6 177.6c0 .4-.4.8-.8.8-.5 0-.8-.4-.8-.8s.4-.8.8-.8.8.4.8.8"/><path id="XMLID_200_" class="st11" d="M-156.3 178.7c0 1.7-1.4 3.1-3.1 3.1s-3.1-1.4-3.1-3.1 1.4-3.1 3.1-3.1 3.1 1.4 3.1 3.1"/><path id="XMLID_199_" class="st9" d="M-159.7 177.5c0 .5-.4.9-.9.9s-.9-.4-.9-.9.4-.9.9-.9c.5-.1.9.3.9.9"/><path id="XMLID_198_" class="st11" d="M-201.2 178.7c0 1.7-1.4 3.1-3.1 3.1-1.7 0-3.1-1.4-3.1-3.1s1.4-3.1 3.1-3.1 3.1 1.4 3.1 3.1"/><path id="XMLID_197_" class="st9" d="M-204.5 177.5c0 .5-.4.9-.9.9s-.9-.4-.9-.9.4-.9.9-.9c.4-.1.9.3.9.9"/><path id="XMLID_196_" class="st12" d="M-155.9 132.7c-9.6-4.5-21.1-5.1-31.5-3.7-7.2.9-14.1 3.1-20.8 5.6-1.2.4-7.7 2.5-6.4 4.6 1.7 2.7 4 4.9 5.3 7.8.7 1.6.5 3.2-.3 4.4 1.2-.7 2.6-1.2 4.2-1.7-5.2 4.3-6 6.6-6.2 8.1 4-2 10-4.8 19.7-4 .2 0 33.6-.3 39.6-6.8 1-1.1 2.3-.8 3.6.2.1-1.5.2-2.9.3-4.4 0-.5.1-1 .3-1.4-1.3-3.6-5.3-6.3-7.8-8.7z"/><path id="XMLID_195_" class="st11" d="M-193.3 168c0 1.3-1.3 2.4-2.8 2.3l-17.3-.4c-1.5 0-2.7-1.1-2.7-2.5 0-1.3 1.3-2.4 2.8-2.3l17.3.4c1.5.1 2.7 1.2 2.7 2.5z"/><path id="XMLID_194_" class="st11" d="M-144.9 168c0 1.3-1.3 2.4-2.8 2.3l-17.3-.4c-1.5 0-2.7-1.1-2.7-2.5 0-1.3 1.3-2.4 2.8-2.3l17.3.4c1.5.1 2.8 1.2 2.7 2.5z"/><path id="XMLID_193_" class="st13" d="M-223.2 225.8c0 16.7 29.9 32.8 42.8 32.8h.4c13.3 0 44.5-19.4 44.5-36v-18.2c0-11.5-17.1 7.1-40.2 7.1h-3.3c-25.9 0-43.9-19.8-44.3-8.4l.1 22.7z"/><path id="XMLID_192_" class="st14" d="M-155.9 131c-9.6-4.5-21.1-5.1-31.5-3.7-7.2.9-14.1 3.1-20.8 5.6-1.2.4-7.7 2.5-6.4 4.6 1.7 2.7 4 4.9 5.3 7.8.7 1.6.5 3.2-.3 4.4 1.2-.7 2.6-1.2 4.2-1.7-5.2 4.3-6 6.6-6.2 8.1 4-2 10-4.8 19.7-4 .2 0 33.6-.3 39.6-6.8 1-1.1 2.3-.8 3.6.2.1-1.5.2-2.9.3-4.4 0-.5.1-1 .3-1.4-1.3-3.5-5.3-6.2-7.8-8.7z"/><path id="XMLID_189_" class="st15" d="M-96.2 250.3c-17.7-35.5-15.2-47.9-15.2-60 0-6.6-.1-10-.1-11.6 0-.7-.4-1.3-.4-2 0-38-30.7-68.9-68.7-69.7h-1c-38 .8-68.2 31.7-68.2 69.7 0 .7 0 1.3.1 2v11.6c0 12.1 2.5 24.5-15.2 60s-17.4 64.2-17.4 64.2c0 43.8 29.4 115.1 29.4 115.1 19.5 19.5 65.7 19.1 72.1 18.9 6.4.2 52.8.6 72.3-18.9 0 0 29.6-71.4 29.6-115.1.1 0 .5-28.7-17.3-64.2zm-84.4-15.7c-26.1-.2-47.2-21.4-47.2-47.6 0-26.1 21.1-47.4 47.2-47.6 26.1.2 47.3 21.4 47.3 47.6 0 26.2-21.2 47.4-47.3 47.6z"/><path id="XMLID_185_" class="st12" d="M-167.9 167.2c-3 .9-5.4 1.6-7.3 2-4.3 1-5.3 1-9.6 0-1.9-.5-4.4-1.1-7.3-2-7.9-2.5-23.8-2.6-36.4.3l.4 5.6s2.3-.8 3.5 6.6 2.2 17.6 19.2 17.9c17 .2 20.5-15.2 21.4-17.4.9-2.2 1.2-3.9 2.2-4.3 1.3-.6 2.4-.6 3.7 0 1.1.5 1.3 2.1 2.2 4.3s4.4 17.6 21.4 17.4c16.9-.2 18-10.5 19.2-17.9s3.5-6.6 3.5-6.6l.4-5.6c-12.6-2.8-28.5-2.7-36.5-.3zm-20.9 15.8c-3.5 10.6-11.2 12.9-17.5 12.6-6-.2-10.3-2-13.3-7.3-2.2-3.9-3.4-9.1-1.7-13.8 1.2-3.5 4.6-5.1 8-5.9 5.2-1.2 15-1 19.9 1.3 4 1.8 7.1 5.6 4.6 13.1zm48.3 5.3c-3 5.4-7.4 7.1-13.3 7.3-6.2.2-14-2.1-17.5-12.6-2.5-7.6.6-11.3 4.6-13.1 4.9-2.3 14.6-2.5 19.9-1.3 3.5.8 6.8 2.4 8.1 5.9 1.6 4.7.4 9.9-1.8 13.8z"/><path id="XMLID_184_" class="st16" d="M-182.4 367.3h2.4v81.3h-2.4z"/><path id="XMLID_183_" class="st17" d="M-145.9 360.5c-58.4 20.8-84.4 22.4-92.4 22.2-2 0-4.1-.1-6.1 0-5.8.2-18.3-.4-27-7.3l-3.8-14.2s12.8 13.8 28.8 14.3c15.9.6 35.4-.6 98.4-15.3"/><path id="XMLID_182_" class="st7" d="M-212.8 216.6h62.4v64.6h-62.4z"/><path id="XMLID_181_" class="st18" d="M-181.2 259.4l-42.3-25.2 14.1 99.4H-152.8l14-99.4z"/><path id="XMLID_180_" class="st17" d="M-216.4 331.7c-2.7-7.6-17.1-39.3-17.1-39.3l9.8-16.1-12.7-3.5 8.4-34.8 3.8-1.8 29.2 95.5-17.6-3.5-3.8 3.5z"/><path id="XMLID_179_" class="st19" d="M-215.6 329.2c-2.7-7.6-17.1-39.3-17.1-39.3l9.8-16.1-12.7-3.5 8.4-34.8 3.8-1.8 29.2 95.5-17.6-3.5-3.8 3.5z"/><path id="XMLID_178_" class="st17" d="M-145.7 330.9c2.7-7.6 17.1-39.3 17.1-39.3l-9.8-16.1 12.7-3.5-8.4-34.8-3.8-1.8-28.4 95.5 16.8-3.5 3.8 3.5z"/><path id="XMLID_177_" class="st19" d="M-146.6 329.2c2.7-7.6 17.1-39.3 17.1-39.3l-9.8-16.1 12.7-3.5-8.4-34.8-3.8-1.8-28.4 95.5 16.8-3.5 3.8 3.5z"/><path id="XMLID_176_" class="st4" d="M-162.8 250.6h-36.7l15.6 22.1-7.9 56.5h21.4l-7.9-56.5z"/><path id="XMLID_175_" class="st20" d="M-148.9 228.7l10.1 5-19.8 44.7-22.2-27.8z"/><path id="XMLID_174_" class="st9" d="M-148.9 228.7l10.2 4.7-19.6 38.6-22.5-21.4z"/><path id="XMLID_173_" class="st20" d="M-212.6 229.9l-10.6 5.7 19.5 42.8 22.9-27.8z"/><path id="XMLID_172_" class="st9" d="M-213.3 228.7l-10.2 4.7L-204 272l22.6-21.4z"/><path id="XMLID_171_" class="st17" d="M-232.4 322.3s12.3-3.6 13.7-4.4 7.8 5.7 8 6.2 3.5 11.8 3.5 11.8l-25.1-11.5-.1-2.1z"/><path id="XMLID_170_" class="st7" d="M-215.9 319.7c-1.9-1-9.2 4.6-21.1 4.3-12-.3-11.9 23.8-11 23.8.8 0 38.2-2.8 38.2-2.8l-6.1-25.3z"/><path id="XMLID_169_" class="st21" d="M-221.3 326.2c-4.3 0-7.8 3.5-7.8 7.8s3.5 7.8 7.8 7.8 7.8-3.5 7.8-7.8-3.5-7.8-7.8-7.8z"/><path id="XMLID_168_" class="st17" d="M-224.6 346.7s-2.9-.5-5.8-.3-8-1.3-8.5-1.9 14.6-.3 14.6-.3l-.3 2.5z"/><path id="XMLID_167_" class="st7" d="M-221.7 342.3c-.7.2.8 3.4.2 3.3-9.8-1.7-14.7 2.1-19.7-2.6 1.6-3.5 10-3 10-3s10.1 2.1 9.5 2.3z"/><path id="XMLID_166_" class="st22" d="M-219.1 320.2s-5 1.8-5.3 1.9-2.2 23-2.2 23l8.4.3-.9-25.2z"/><path id="XMLID_165_" class="st17" d="M-215.1 321.7h-5.2s.1-.3-1.5.2-4 23.2-5.6 23.3c7.1.2 7 1 10.5-.3 3.4-1.3 1.8-23.2 1.8-23.2z"/><g id="XMLID_162_" class="st23"><path id="XMLID_164_" class="st24" d="M-81 337.3l-.9 5.3c1-3 .9-5.3.9-5.3z"/><path id="XMLID_163_" class="st24" d="M-104.6 358.7c-24.5 4.1-53.2-3.6-66.7-4.4-7.5-.4-23.3-1-35.8-1.3l-11.6-9.8-6.9.6-.1.2-.9 8.3h.1c.8.3 1.6.4 2.5.4 8.7 1.2 57.1 7.8 69.9 9.6 0 0 23.3 12.2 48.7 6.5 21.1-5.8 22.5-20.1 22.5-20.1l1-5.9c-1.8 5.3-7.1 13.2-22.7 15.9z"/></g><g id="XMLID_159_"><path id="XMLID_161_" class="st22" d="M-214.4 333.1c0 4.3-3.5 7.8-7.8 7.8s-7.8-3.5-7.8-7.8 3.5-7.8 7.8-7.8 7.8 3.5 7.8 7.8z"/><circle id="XMLID_160_" class="st25" cx="-222.2" cy="333.1" r="6.4"/></g><path id="XMLID_158_" class="st15" d="M-160.9 323.9l-60.2-6.6-4 34.2 64.5-1.9z"/><path id="XMLID_157_" class="st20" d="M-108.7 313.2l-10.8 9.3c-.1-.1-.2-.2-.3-.4l15.8-13.6c1.5-1.3 1.6-3.6.2-5.1s-3.7-1.7-5.2-.4l-15.9 13.7c-.1-.1-.2-.2-.3-.4l-.1-.1 18.3-15.7c1.5-1.3 1.6-3.6.2-5.1-1.4-1.5-3.7-1.7-5.2-.4l-19.8 17-.6.6c-.3-.1-.5-.3-.6-.6l14.8-12.8c1.5-1.3 1.6-3.6.2-5.1-1.4-1.5-3.7-1.7-5.2-.4l-14.9 12.9c-.3.3-.6.6-.8 1l-1.2.9-7.4 6.4c-5.6 4.9-13.5 17.4-7.7 23.7s23 4.1 28.6-.8l7.4-6.4c.6-.5 1-1 1.4-1.5L-104 318c1.4-1.2 1.5-3.4.2-4.8-1.4-1-3.5-1.2-4.9 0z"/><g id="XMLID_99_"><path id="XMLID_156_" class="st7" d="M-127 340c-5.7 4.7-23 6.6-28.6.1-5.6-6.5 2.6-18.8 8.3-23.5l9.6-8.1c3-2.5 3.3-.1 5.7 2 1.1 1-4.2 5.5 3.5 3.7 1.6-.4 2.2 2.7 3.4 4.1.9 1.1 1.8 2.1 2.7 3 1.5 1.6 2.8 3.1 3.8 4.5 1.9 2.8 2.3 5.3-.9 7.9l-7.5 6.3z"/><path id="XMLID_155_" class="st7" d="M-117.7 301.4c1.5-1.3 1.7-3.5.3-5.1-1.3-1.5-3.6-1.8-5.2-.5l-15.2 12.5c-1.5 1.3-1.7 3.5-.3 5.1 1.3 1.5 3.6 1.8 5.2.5l15.2-12.5z"/><path id="XMLID_154_" class="st7" d="M-106.6 302.8c1.5-1.3 1.7-3.5.3-5.1-1.3-1.5-3.6-1.8-5.2-.5l-20.2 16.5c-1.5 1.3-1.7 3.5-.3 5.1 1.3 1.5 3.6 1.8 5.2.5l20.2-16.5z"/><path id="XMLID_153_" class="st7" d="M-103.8 310.9c1.5-1.3 1.7-3.5.3-5.1-1.3-1.5-3.6-1.8-5.2-.5l-18.7 15.3c-1.5 1.3-1.7 3.5-.3 5.1 1.3 1.5 3.6 1.8 5.2.5l18.7-15.3z"/><path id="XMLID_152_" class="st7" d="M-104.1 320.7c1.4-1.2 1.6-3.3.3-4.8-1.3-1.4-3.4-1.7-4.9-.5l-14.7 12.1c-1.4 1.2-1.6 3.3-.3 4.8 1.3 1.4 3.4 1.7 4.9.5l14.7-12.1z"/><g id="XMLID_139_"><path id="XMLID_149_" class="st20" d="M-121.7 296.7c-1.2.9-.8 2.2.2 3.4.9 1.2 2.1 1.9 3.3.9 1.2-.9 1.4-2.7.5-3.9-1.1-1.1-2.9-1.3-4-.4z"/><g id="XMLID_140_" class="st26"><path id="XMLID_108_" d="M-126.4 300.4c-.1.1-.1.3 0 .4l3 3.8c.1.1.3.1.4 0 .1-.1.1-.3 0-.4l-3-3.8c-.2-.1-.3-.1-.4 0z"/><path id="XMLID_107_" d="M-127.3 301.1c-.1.1-.1.3 0 .4l3 3.8c.1.1.3.1.4 0 .1-.1.1-.3 0-.4l-3-3.8c-.2-.1-.3-.1-.4 0z"/><path id="XMLID_103_" d="M-128.3 302c-.1.1-.1.3 0 .4l3 3.8c.1.1.3.1.4 0 .1-.1.1-.3 0-.4l-3-3.8c-.2-.1-.3-.1-.4 0z"/></g></g><g id="XMLID_126_"><path id="XMLID_136_" class="st20" d="M-111.1 298.4c-1.2.9-.8 2.2.2 3.4.9 1.2 2.1 1.9 3.3.9 1.2-.9 1.4-2.7.5-3.9-1-1.1-2.8-1.3-4-.4z"/><g id="XMLID_127_" class="st26"><path id="XMLID_88_" d="M-115.7 302.1c-.1.1-.1.3 0 .4l3 3.8c.1.1.3.1.4 0 .1-.1.1-.3 0-.4l-3-3.8c-.2-.1-.3-.1-.4 0z"/><path id="XMLID_87_" d="M-116.7 302.8c-.1.1-.1.3 0 .4l3 3.8c.1.1.3.1.4 0 .1-.1.1-.3 0-.4l-3-3.8c-.1 0-.2-.1-.4 0z"/><path id="XMLID_86_" d="M-117.7 303.7c-.1.1-.1.3 0 .4l3 3.8c.1.1.3.1.4 0 .1-.1.1-.3 0-.4l-3-3.8c-.1-.1-.2-.1-.4 0z"/></g></g><g id="XMLID_113_"><path id="XMLID_123_" class="st20" d="M-108 306.2c-1.2.9-.8 2.2.2 3.4.9 1.2 2.1 1.9 3.3.9 1.2-.9 1.4-2.7.5-3.9-1-1.1-2.8-1.3-4-.4z"/><g id="XMLID_114_" class="st26"><path id="XMLID_83_" d="M-112.7 309.9c-.1.1-.1.3 0 .4l3 3.8c.1.1.3.1.4 0 .1-.1.1-.3 0-.4l-3-3.8c-.1-.1-.2-.1-.4 0z"/><path id="XMLID_51_" d="M-113.6 310.6c-.1.1-.1.3 0 .4l3 3.8c.1.1.3.1.4 0 .1-.1.1-.3 0-.4l-3-3.8c-.1-.1-.3-.1-.4 0z"/><path id="XMLID_50_" d="M-114.6 311.5c-.1.1-.1.3 0 .4l3 3.8c.1.1.3.1.4 0 .1-.1.1-.3 0-.4l-3-3.8c-.1-.1-.3-.1-.4 0z"/></g></g><g id="XMLID_100_"><path id="XMLID_110_" class="st20" d="M-108 316.4c-1.1.9-.7 2 .1 3.1.8 1.1 1.9 1.7 2.9.9 1.1-.8 1.3-2.4.4-3.5-.7-1.1-2.3-1.3-3.4-.5z"/><g id="XMLID_101_" class="st26"><path id="XMLID_48_" d="M-112.2 319.8c-.1.1-.1.2 0 .3l2.7 3.5c.1.1.2.1.3 0 .1-.1.1-.2 0-.3l-2.7-3.5c0-.1-.2-.1-.3 0z"/><path id="XMLID_47_" d="M-113 320.4c-.1.1-.1.2 0 .3l2.7 3.5c.1.1.2.1.3 0 .1-.1.1-.2 0-.3l-2.7-3.5c-.1-.1-.2-.1-.3 0z"/><path id="XMLID_45_" d="M-113.9 321.2c-.1.1-.1.2 0 .3l2.7 3.5c.1.1.2.1.3 0 .1-.1.1-.2 0-.3l-2.7-3.5c-.1-.1-.2-.1-.3 0z"/></g></g></g><path id="XMLID_98_" class="st17" d="M-105.8 321.7s-19.8 3.8-35.4 2.4c-15.6-1.3-15.4-1-19-.2-3.5.7 14.4 6.7 14.4 6.7l40-8.9z"/><path id="XMLID_97_" class="st15" d="M-167.9 330l7-6.2s31.3 3.7 44.8-.2 32.6-2.7 32.6-2.7-32.5 32.8-44.2 32.8c-25.5.3-40.2-23.7-40.2-23.7z"/><path id="XMLID_96_" class="st21" d="M-215 347.5c0 1.7-1.4 3.1-3.1 3.1-1.7 0-3.1-1.4-3.1-3.1s1.4-3.1 3.1-3.1c1.8.1 3.1 1.4 3.1 3.1z"/><path id="XMLID_95_" class="st27" d="M-225.1 351.5s37.5-2 48.6-.7c11.2 1.3 48.5 6.9 59.2 6.7 10.8-.2 22.9-4.3 26.7-7.2 3.7-2.8 1.9-5 3.7-8.6 1.9-3.6 5.2-4.9 5.7-10 .5-5.2 2.4-17.2 2.4-17.2s-1.4 19.9-3 28.4c0 0-1.7 10.2-19.7 16.5-14.4 5-42.6 1.7-69.7-2-27.2-3.6-53.9-5.9-53.9-5.9z"/><circle id="XMLID_94_" class="st21" cx="-209" cy="348.6" r="3.1"/><path id="XMLID_93_" class="st21" d="M-196.3 349.6c0 1.7-1.4 3.1-3.1 3.1s-3.1-1.4-3.1-3.1 1.4-3.1 3.1-3.1c1.7 0 3.1 1.4 3.1 3.1z"/><path id="XMLID_92_" class="st28" d="M-215 346.7c0 1.7-1.4 3.1-3.1 3.1-1.7 0-3.1-1.4-3.1-3.1s1.4-3.1 3.1-3.1c1.8 0 3.1 1.4 3.1 3.1z"/><circle id="XMLID_91_" class="st28" cx="-209" cy="347.7" r="3.1"/><path id="XMLID_90_" class="st28" d="M-196.3 348.7c0 1.7-1.4 3.1-3.1 3.1s-3.1-1.4-3.1-3.1 1.4-3.1 3.1-3.1c1.7 0 3.1 1.4 3.1 3.1z"/><path id="XMLID_84_" class="st30" d="M-227.2 223.8c0 18 32.3 36.7 46.2 36.7h.4c14.3 0 48-23.5 48-41.5v-19.5c0-12.4-18.4 12-43.3 12h-3.6c-28 0-47.4-23-47.8-10.6l.1 22.9z"/><path id="XMLID_79_" class="st9" d="M-161.1 212.2c0 6.2-8.7 11.2-19.5 11.2s-19.5-5-19.5-11.2 8.7-.7 19.5-.7c10.7 0 19.5-5.5 19.5.7"/><path id="XMLID_74_" class="st31" d="M-174.5 199.8c-2.4 0-4.5.5-5.8 1.3-1.3-.8-3.2-1.3-5.6-1.3-25.7 10.3-41.6-11.3-41.6-11.3v1c0 23.1 29.2 24.9 43.2 22.7 1.5-.2 2.8-.8 3.8-1.6 1 .8 2.8 1.4 4.3 1.6 13.9 2.2 43.7.4 43.7-22.7v-1c-.1-.1-16.4 21.6-42 11.3z"/><path id="XMLID_69_" class="st8" d="M-175.6 198.8c0 3-2.5 5.5-5.5 5.5h-.1c-3 0-5.5-2.5-5.5-5.5v-24.6c0-3 2.5-5.5 5.5-5.5h.1c3 0 5.5 2.5 5.5 5.5v24.6z"/><g id="XMLID_56_"><path id="XMLID_64_" class="st32" d="M-221.9 167.9c0 .6-1.3 1.1-3 1.1s-3.1-.4-3.1-1 1.4-1.1 3-1.1c1.7 0 3.1.4 3.1 1"/><path id="XMLID_63_" class="st32" d="M-134 167.9c0 .6-1.3 1.1-3 1.1s-3.1-.4-3.1-1 1.4-1.1 3-1.1c1.8 0 3.1.4 3.1 1"/><path class="st33" d="M-169 165.1c-3 .9-5.4 1.6-7.3 2-4.3 1-5.3 1-9.6 0-1.9-.5-4.4-1.1-7.3-2-8.1-2.4-24-2.5-36.5.4l.4 5.6s2.3-.8 3.5 6.5c1.2 7.4 2.2 17.7 19.2 17.9s20.5-15.2 21.4-17.4c.9-2.2 1.2-3.9 2.2-4.3 1.3-.6 2.4-.6 3.7 0 1.1.5 1.3 2.1 2.2 4.3.9 2.2 4.4 17.6 21.4 17.4 16.9-.2 18-10.5 19.2-17.9 1.2-7.4 3.5-6.5 3.5-6.5l.4-5.6c-12.5-2.9-28.4-2.8-36.4-.4zm-58.7 3.1c0-.5 1.1-.9 2.5-.9 1.4-.1 2.5.2 2.5.6 0 .4-1.1.8-2.5.9-1.4.1-2.5-.2-2.5-.6zm37.8 12.7c-3.5 10.5-11.3 12.8-17.5 12.6-6-.2-10.3-1.9-13.3-7.3-2.2-3.8-3.4-9-1.7-13.8 1.2-3.5 4.5-5.1 8-5.9 5.2-1.1 15-.9 19.9 1.3 4 1.8 7.1 5.5 4.6 13.1zm48.3 5.3c-3 5.4-7.4 7.1-13.3 7.3-6.2.2-14-2.1-17.5-12.6-2.5-7.6.6-11.3 4.6-13.1 4.9-2.2 14.6-2.4 19.8-1.3 3.5.8 6.8 2.4 8.1 5.9 1.7 4.8.5 10-1.7 13.8zm4.5-17.4c-1.3-.1-2.4-.5-2.4-.9s1.1-.7 2.4-.6c1.3 0 2.4.4 2.5.9 0 .4-1.1.7-2.5.6z"/></g><path id="XMLID_55_" class="st17" d="M-232.4 322.3l-3.5-27.3s-1 38.2-2.7 49.6c0 0 3.8 1.8 3.8 1.3s-.9-21.9 2.4-22.3v-1.3z"/><path id="XMLID_54_" class="st15" d="M-236.3 308.5s.7 20.5-2.3 36.1c0 0 9.4-.7 14.7-1l-4.7 15.2-35.9-6.2 13.1-43.5 15.1-.6z"/><path id="XMLID_53_" class="st27" d="M-274.2 365.7s9.4 9.5 19.2 11.3 49.3 1.8 99.2-15l-4.9-.8s-44.1 12.9-67.9 13.7-37.1-7.4-48.4-20.7c.1.1 2.2 9.1 2.8 11.5z"/></g><path id="XMLID_49_" class="st2" d="M-167.9 119.4c-13.7-13.7 16.3-7.9 36.4 16.2 10.1 12.1 13.1 33.6 13.8 44.1 1.8 29-2.2 28.4 21.4 89.3 8 20.6 10.6 42.9 7.5 64.8-6 42.5-23.5 89.7-25.6 94.9-.1.2-.2.5-.2.8-.1 1-1.6 4.3-15 7.6-2.2.6-4.2-1.5-3.6-3.7 5.6-20.3 25.7-99.9 15.4-149.3-12-57.1-12.7-28.9-12.1-83.3.6-66.6-20.6-64-38-81.4z"/><path id="XMLID_46_" class="st5" d="M-243.8 385.8c3.8 1.7 7.9-1.5 7.2-5.5-5.5-31-9.3-68.4-3.5-96.3 4.1-19.6 6.9-29.1 8.7-35.4 1.2-4.2-.2-8.7-3.6-11.4h-.1c-5.6-4.5-14-2.1-16.4 4.6-4 11.4-9.7 26.2-17.7 46.2-7 20.2-2 52 5.4 80.2 1.5 5.6 5.1 10.3 10.2 13.1 3.2 1.7 6.6 3.1 9.8 4.5z"/><path id="XMLID_43_" class="st5" d="M-226.6 135.6c-8.9 10.7-12.3 28.6-13.4 39.9-.1 1.1.2 2.1 1 2.9 1.8 1.9 4.5 3.3 6.6 4.1 2.3.8 4.8-.8 5-3.2 3.7-44.7 20-48.3 37.2-59.8 16.1-11-16.3-8-36.4 16.1z"/></g></g></svg>