<svg baseProfile="basic" xmlns="http://www.w3.org/2000/svg" width="372" height="347" viewBox="0 0 372 347"><path fill="#FFC32C" d="M113.6 63c-5 10.5-17.5 15-28.1 10-10.5-5-15-17.6-10-28.1s17.6-15 28-10c10.7 5.1 15.1 17.6 10.1 28.1z"/><path opacity=".2" fill="#1D1D1B" d="M87 70c-8.8-4.2-12.6-14.8-8.4-23.6 4.2-8.8 14.8-12.6 23.6-8.4 8.8 4.2 12.6 14.8 8.4 23.6-4.2 8.8-14.8 12.6-23.6 8.4zm14.4-30.3c-7.9-3.7-17.3-.4-21 7.5-3.7 7.9-.4 17.3 7.5 21 7.9 3.7 17.3.4 21-7.5 3.7-7.8.4-17.2-7.5-21z"/><path fill="#1D1D1B" d="M89.5 62.8l1.1-2.3c-1.3-.7-2.4-1.7-3-2.6l1.3-1.2c.6.9 1.5 1.9 2.8 2.5 1.6.8 3.1.4 3.7-.9.6-1.2.1-2.4-1.3-3.9-1.9-2-2.8-3.7-1.9-5.6.9-1.9 2.9-2.6 5.1-2l1.1-2.3 1.4.7-1 2.2c1.3.7 2.1 1.5 2.5 2.2l-1.3 1.2c-.4-.5-1-1.4-2.5-2.1-1.7-.8-2.9-.1-3.3.8-.6 1.2 0 2.1 1.6 3.9 1.9 2 2.5 3.8 1.5 5.8-.8 1.8-2.9 2.8-5.4 2.1l-1.1 2.3-1.3-.8z" opacity=".2"/><path opacity=".2" fill="#FFF" d="M113.9 45.6L76.4 64.5c2.1 3.6 5.2 6.6 9.2 8.5 10.5 5 23.1.5 28.1-10 2.6-5.7 2.6-12 .2-17.4z"/><path fill="#3BA1F4" d="M345.4 139.4l4.1 31.1c.4 2-.8 3.9-2.8 4.4l-30 9.1c.2.2.3.3.5.4l24 15.5c2 1.3 4.6.7 5.9-1.3l24.2-37.5c1.3-2 .7-4.7-1.3-5.9l-24-15.5-.6-.3z"/><path fill="#76CEFF" d="M340 164.4c-2 .4-3.2 2.4-2.8 4.4l4.1 31.2c2 1.2 4.6.6 5.8-1.3l24.2-37.5c1.3-2 .7-4.5-1.2-5.9l-30.1 9.1z"/><path opacity=".3" fill="#1D1D1B" d="M349.9 177c2-.4 3.3-2.3 2.8-4.4l-6.2-32.6c-2.1-1.3-4.8-.8-6 1.2l-24.2 37.5c-1.3 2-.6 4.6 1.4 6l32.2-7.7z"/><path fill="#76CEFF" d="M347.5 175.4c2-.4 3.2-2.4 2.8-4.4l-4.1-31.2c-2-1.2-4.6-.6-5.8 1.3l-24.2 37.5c-1.3 2-.7 4.5 1.2 5.9l30.1-9.1z"/><path fill="#65935F" d="M70.3 182.5c.2.3.1.7-.1.9l-47.2 34c-.3.2-.7.1-.9-.1l-14.4-20c-.2-.3-.1-.7.1-.9l47.2-34c.3-.2.7-.1.9.1l14.4 20z"/><path fill="#095B02" d="M10.888 196.952l43.902-31.616 12.448 17.285-43.902 31.617z"/><ellipse transform="rotate(-35.76 38.124 190.453)" fill="#65935F" cx="38.1" cy="190.5" rx="5.9" ry="8.7"/><ellipse transform="rotate(-35.747 16.487 198.55)" fill="#65935F" cx="16.5" cy="198.6" rx="1.8" ry="2.6"/><ellipse transform="rotate(-35.755 54.218 171.395)" fill="#65935F" cx="54.2" cy="171.4" rx="1.8" ry="2.6"/><ellipse transform="rotate(-35.755 23.574 208.4)" fill="#65935F" cx="23.6" cy="208.4" rx="1.8" ry="2.6"/><ellipse transform="rotate(-35.747 61.29 181.218)" fill="#65935F" cx="61.3" cy="181.2" rx="1.8" ry="2.6"/><path fill="#65935F" d="M55.3 150.9c.3.2.3.6.1.9L21 198.5c-.2.3-.6.3-.9.1L.3 184.1c-.3-.2-.3-.6-.1-.9l34.5-46.8c.2-.3.6-.3.9-.1l19.7 14.6z"/><path fill="#095B02" d="M3.242 182.83l32.087-43.556 17.148 12.633-32.087 43.556z"/><ellipse transform="rotate(-53.623 27.156 168.32)" fill="#65935F" cx="27.2" cy="168.3" rx="5.9" ry="8.7"/><ellipse transform="rotate(-53.608 9.058 182.662)" fill="#65935F" cx="9.1" cy="182.7" rx="1.8" ry="2.6"/><ellipse transform="rotate(-53.617 36.626 145.23)" fill="#65935F" cx="36.6" cy="145.2" rx="1.8" ry="2.6"/><ellipse transform="rotate(-53.617 18.807 189.845)" fill="#65935F" cx="18.8" cy="189.9" rx="1.8" ry="2.6"/><ellipse transform="rotate(-53.608 46.38 152.416)" fill="#65935F" cx="46.4" cy="152.4" rx="1.8" ry="2.6"/><path fill="#333" d="M147.4 49.5c-.8.1-1.4-.1-1.5-.8l-6-37.3c-.1-.8.3-1.9 1-2L195.8.5c.8-.1 1.7.8 1.8 1.6l6 37.3c.1.8-.6 1.2-1.4 1.3l-54.8 8.8z"/><path fill="#4D4D4D" d="M150.4 49c-.8.1-1.5 0-1.6-.8l-6-37.3c-.1-.8.4-1.9 1.2-2.1L198.8 0c.8-.1 1.6.8 1.7 1.6l6 37.3c.1.8-.5 1.2-1.2 1.3L150.4 49z"/><path fill="#D1D2B6" d="M194.6 39.9c-.5.1-1-.3-1.1-.8l-5.4-33.5c-.1-.5.3-.8.8-.9l8.5-1.4c.5-.1 1.4 0 1.5.6l5.4 33.5c.1.5-.7 1.1-1.2 1.2l-8.5 1.3z"/><circle fill="#FE8432" cx="182.3" cy="9.4" r="3.2"/><circle fill="#B3B3B3" cx="183.7" cy="18.3" r="3.2"/><circle fill="#B3B3B3" cx="185.3" cy="28.2" r="3.2"/><circle fill="#B3B3B3" cx="186.8" cy="37.2" r="3.2"/><circle fill="#F2F2F2" cx="174.3" cy="10.7" r="3.2"/><circle fill="#F2F2F2" cx="175.7" cy="19.6" r="3.2"/><circle fill="#F2F2F2" cx="177.3" cy="29.5" r="3.2"/><circle fill="#B3B3B3" cx="178.8" cy="38.5" r="3.2"/><circle fill="#F2F2F2" cx="165.8" cy="12" r="3.2"/><circle fill="#F2F2F2" cx="167.2" cy="21" r="3.2"/><circle fill="#F2F2F2" cx="168.8" cy="30.9" r="3.2"/><circle fill="#B3B3B3" cx="170.3" cy="39.9" r="3.2"/><circle fill="#F2F2F2" cx="157.3" cy="13.4" r="3.2"/><circle fill="#F2F2F2" cx="158.7" cy="22.4" r="3.2"/><circle fill="#F2F2F2" cx="160.3" cy="32.3" r="3.2"/><circle fill="#F2F2F2" cx="149.3" cy="14.7" r="3.2"/><circle fill="#F2F2F2" cx="150.7" cy="23.7" r="3.2"/><circle fill="#F2F2F2" cx="152.3" cy="33.6" r="3.2"/><path fill="#FE8432" d="M155.6 45.2c-1.8.3-3.4-.9-3.7-2.7l-.1-.5c-.3-1.8.9-3.4 2.7-3.7l7.3-1.2c1.8-.3 3.4.9 3.7 2.7l.1.5c.3 1.8-.9 3.4-2.7 3.7l-7.3 1.2z"/><path opacity=".2" fill="#444" d="M194.048 35.947l-.48-2.96 7.798-1.265.48 2.96zM193.414 32.022l-.64-3.948 7.798-1.264.64 3.948zM192.452 26.176l-.48-2.96 7.798-1.265.48 2.962zM191.464 20.258l-.48-2.96 7.798-1.265.48 2.96z"/><path opacity=".2" fill="#FFF" d="M138.9 11.6l6 37.3c.2 1 1.5-.2 2.3-.4l3.1-.5 51.8-8.4 3.1-.5-65.9-28.9c-.1.3-.5 1.2-.4 1.4z"/><g><path fill="#937150" d="M362.7 216.1c-.3.3-17.2 9.5-25.3 12.8-8.1 3.4-15.6 6.4-17.3 6.9-1.7.5-2.7 2.5-3.2 4.2-.5 1.7-1 4.5-1.8 6.4-.8 1.9-1.9 3.9-3.4 3.8-1.4-.1-2.7.3-1.6-4 1.2-4.2 4.6-8.4 5.4-9.4 1.7-2 6.9-5.5 23.3-13.1 16.5-7.6 21.8-10.7 22.6-11.2.7-.4 1.3 3.6 1.3 3.6z"/><path fill="#937150" d="M305.7 239.8c.4 0 18.8-5.5 26.9-8.9 8.1-3.4 15.6-6.6 17.1-7.4 1.5-.8 3.7-.2 5.3.7 1.6.8 3.9 2.5 5.8 3.2 1.9.7 4.1 1.4 5.1.2.9-1 2.1-1.8-1.7-3.9-3.8-2.1-9.2-2.6-10.5-2.7-2.6-.2-8.7 1-25.7 7.4-17 6.3-22.9 7.9-23.9 8.2-.9.1 1.6 3.2 1.6 3.2z"/><path opacity=".8" fill="#DCEFF4" d="M316.2 230.5s-6.3 2.5-7.3 3.1c-1.1.6-4.6 2-1.9 6.2 2.7 4.2 3.1 4.7 3.1 4.7s1.1 2.6 4.8 1.4c3.7-1.2 11.9-4.7 13.4-5.6 1.4-.9 4.4-1.5 3.8-6.1-.6-4.6-1-7.8-5-7.1-3.4.6-8 2.2-10.2 3.1"/><path opacity=".7" fill="#FFF" d="M331.7 233.1l.1 4.8-24.6 2.4-1.9-4.7zM331.6 229.7l-.5 2.1-20.9 2.1 1.6-2.3z"/><path opacity=".8" fill="#DCEFF4" d="M348.1 217.2s6.2-2.7 7.4-3c1.2-.4 4.6-1.9 5.7 3 1 4.9 1.2 5.6 1.2 5.6s1.1 2.6-2.4 4.4c-3.5 1.8-11.7 5.2-13.3 5.6-1.6.4-4.2 2.1-7-1.6s-4.8-6.2-1.5-8.5c2.8-2 7.2-4.1 9.3-5.1"/><path opacity=".7" fill="#FFF" d="M361.8 221.2l-.1 4.8-24.7 2.5-2-4.7zM362 217.6l-.5 2.2-20.9 2.1 1.6-2.3z"/><path fill="#432918" d="M361.8 211.6s-.5 0-3.3.8c-8.5 2.4-22.3 10.4-23.3 11-.7.4-1.9.8-2.6 1.1l-.1-.2s-.1 0-.2.1-.2.1-.2.1l.1.2c-.6.3-1.8.8-2.6 1-1.1.2-16.5 4.4-24.2 8.8-2.5 1.4-2.8 1.7-2.9 1.8-.2 0-.6.2.3 2.3.7 1.4.9 1.3 2.1 1.4 1.2.1 2.1 1.4 4 4s2.8 3.6 6.4 2.4c3.6-1.1 10.3-4 12.7-5.3 2.5-1.3 5.1-2 4.3-7.9-.4-2.9-.3-3.9-.3-3.9s-.4-1.2 1.4-2c1.8-.7 2.4.4 2.4.4s.7.6 2.6 3c3.7 4.8 6 3.4 8.7 2.5 2.7-.8 9.4-3.6 12.7-5.3 3.3-1.7 3.3-3.1 2.8-6.3-.5-3.1-.7-4.7 0-5.6.7-1 1.1-1 .5-2.5-.7-2.2-1.2-2-1.3-1.9zm-30.7 22.9c.6 4.2-2.1 4.8-3.4 5.5-1.3.8-8.7 3.9-12 5-3.4 1.1-4.4-1.2-4.4-1.2s-.3-.5-2.8-4.3.7-5.1 1.6-5.6c1-.5 6.6-2.9 6.6-2.9l.6-.3c1.9-.8 6.2-2.2 9.2-2.7 3.7-.6 4.1 2.3 4.6 6.5zm28.8-16.4c.9 4.4 1.1 5 1.1 5s1 2.4-2.2 4-10.6 4.6-12 5c-1.4.4-3.8 1.9-6.3-1.5-2.5-3.3-4.4-5.7-1.4-7.8 2.5-1.8 6.5-3.8 8.4-4.6l.6-.3s5.6-2.3 6.7-2.7c.9-.2 4.1-1.5 5.1 2.9z"/></g><g><path fill="#FFE9C9" d="M343.7 309.9l-49.3 36.5-42-56.6 3-20.2 37.7-27.9z"/><g fill="#4C4C4C"><path d="M292.7 253.4c.3.5.2 1.1-.2 1.4L257.2 281c-.5.3-1.1.2-1.4-.2-.3-.5-.2-1.1.2-1.4l35.3-26.2c.4-.4 1-.3 1.4.2zM296.4 258.4c.3.5.2 1.1-.2 1.4L260.9 286c-.5.3-1.1.2-1.4-.2-.3-.5-.2-1.1.2-1.4l35.3-26.2c.4-.3 1.1-.2 1.4.2zM300.2 263.5c.3.5.2 1.1-.2 1.4l-35.3 26.2c-.5.3-1.1.2-1.4-.2-.3-.5-.2-1.1.2-1.4l35.3-26.2c.4-.4 1-.3 1.4.2zM303.9 268.5c.3.5.2 1.1-.2 1.4l-35.3 26.2c-.5.3-1.1.2-1.4-.2-.3-.5-.2-1.1.2-1.4l35.3-26.2c.4-.4 1.1-.3 1.4.2zM307.6 273.5c.3.5.2 1.1-.2 1.4l-35.3 26.2c-.5.3-1.1.2-1.4-.2-.3-.5-.2-1.1.2-1.4l35.3-26.2c.5-.3 1.1-.2 1.4.2zM311.4 278.6c.3.5.2 1.1-.2 1.4l-35.3 26.2c-.5.3-1.1.2-1.4-.2-.3-.5-.2-1.1.2-1.4l35.3-26.2c.4-.4 1.1-.3 1.4.2zM315.7 284.4c.3.5.2 1.1-.2 1.4L280.2 312c-.5.3-1.1.2-1.4-.2-.3-.5-.2-1.1.2-1.4l35.3-26.2c.4-.4 1-.3 1.4.2z"/></g><path fill="#4C4C4C" d="M319.4 289.5c.3.5.2 1.1-.2 1.4l-35.3 26.2c-.5.3-1.1.2-1.4-.2-.3-.5-.2-1.1.2-1.4l35.3-26.2c.4-.3 1.1-.2 1.4.2zM323.2 294.6c.3.5.2 1.1-.2 1.4l-35.3 26.2c-.5.3-1.1.2-1.4-.2-.3-.5-.2-1.1.2-1.4l35.3-26.2c.4-.4 1-.3 1.4.2zM326.9 299.6c.3.5.2 1.1-.2 1.4l-35.3 26.2c-.5.3-1.1.2-1.4-.2-.3-.5-.2-1.1.2-1.4l35.3-26.2c.4-.3 1.1-.2 1.4.2zM330.6 304.7c.3.5.2 1.1-.2 1.4l-35.3 26.2c-.5.3-1.1.2-1.4-.2-.3-.5-.2-1.1.2-1.4l35.3-26.2c.5-.4 1.1-.3 1.4.2zM334.4 309.7c.3.5.2 1.1-.2 1.4l-35.3 26.2c-.5.3-1.1.2-1.4-.2-.3-.5-.2-1.1.2-1.4l35.3-26.2c.4-.3 1-.3 1.4.2z"/><path fill="#EDC096" d="M264 281.2l-11.6 8.6 3-20.2z"/></g><path fill="#76D9FC" d="M282.4 178.2c0 55.8-45.2 101-101 101s-101-45.2-101-101 45.2-101 101-101 101 45.3 101 101z"/><path fill-rule="evenodd" clip-rule="evenodd" fill="#00A936" d="M116.2 198c-.6-.2-1.3-.4-1.8-.5-.7-.1-1.2-.1-1.6 0-1.4.4-1.5 1.8 2.3 4.1 1 1.3 2.8 2.5 4.5 1.9 1-2.8-1.1-4.6-3.3-5.3l-.1-.2zM131.8 169.4c.2.1.3.4.4.4h.2c1 .3 2-.7 1.2-.8-.2-.1-.8 0-1.8.4zM155.2 160.6c-1.6.3-2 1.3 1.5 3.7.4-.1 3.4-.8 1.6 1 5.3-3.2-.4-5.2-3.1-4.7zM155.2 137.7c5.7-2.3 7.1-17.5.2-17-.4 0-.9.2-1.4.4 2.9 5.3-3.8 12 1.2 16.6zM221.2 150.3c.5-3.2-4.6-5.5-6.8-5.4-1.3.1-1.6 1 .9 3.3-2.3 5.4 3.7 5.7 5.9 2.1zM169.8 110.9c1.7-.8 2.5-3.5 0-3.5-.4-.1-.8-.2-1.2-.2-.4 0-.9.2-1.2.2-4.9.9-3.4 8.9 2.4 3.5z"/><path fill-rule="evenodd" clip-rule="evenodd" fill="#00A936" d="M176.6 109c-7 .9-14.1 7.7-7.6 14.4 4.7 5.8-6.7 17.7 4.1 20.8 4.3-9.6 16.1-17.2 13.2-29-1.2-5-5.5-6.8-9.7-6.2z"/><path fill="#00A936" d="M164.5 247.9c-10.4-6.9-17.9-17.5-29.6-22.6-9.5-9.2-31-3.5-30.6-21 1-8.3-5.7-12.3-10.7-16.2-3.8-12.8 19.6-17.6 19.9-3.5 7.7-.4 10.4-13.9 19.3-15.8 4.6-4 17 .3 12.5-7.8 4.4-4.2 17.5-4.1 11.1-13.9-2.1-9.6-14-14.3-17.8-3.3-10.7 2.9-6.4-20.3 4.5-17.3 7.9.5 6.8-6.4 2-8.6 0-.3-.1-.5-.4-.2-.9-.3-1.8-.7-2.9-.6-10.7-5.9 10.7-20.9-3.5-25.7-15.5 13.3-39.2 34.1-48.7 53.6-4.3 12.2-3.6 24.5-3.1 37.4 4.3 12.4 12.8 22.7 19.5 33.9 4.3 5.4 2.2 11.6 1.9 17.5-.1 0 .1.2.1.2-.2 3.6.3 7 3.4 10.1 5.3 6.8 12.9 12.2 16.6 20 8.4 5.3 17.7 9.3 27.6 11.9 1.1-.5 3.2-1.1 11-1.9v-.2c0-2.3 10.8-5.8 16.1-9.7 9-10.9-9.3-19.4-18.2-16.3zM258.9 243.6c15-17.6 24-40.4 24-65.3 0-2.8-.2-5.5-.4-8.3-.1-.7-.1-1.4-.2-2-5.8 3.2-16-14.2-5.5-6 2.1-.1 3.3-.7 4.3-1.6-1.2-6.3-2.9-12.5-5.2-18.3-1-1.2-2-2.4-2.9-3.1.1-1.3-.1-2.5-.2-3.7-.1-.1.1-.2 0-.2-16.5-33.9-51.2-57.3-91.4-57.3-2.7 0-5.5.2-8.2.4-1.4.3-3 .5-4.5.6-.5.1-1.1.1-1.6.2-5.7.8-11.1 1.8-16.4 3.5 13.9-1 28.1-.7 40.7 5.6 3.3 10.6 23.1.2 22.2 12.1.2.2.5.4.6.6-.3.2.2 2.4.6.6 3.4 3.9 10.6 11.9 3.1 10.9-10-1.4-7.4 18.4-.2 22 6.9 3.7 10.8-3.7 3.7-7.4-1-9.3 15.4 5.7 8.2 10.7-.3.2-.5.4-.8.6.3-1.3-.5-.1-.4.2-8.2 6-3.5 20-6.7 29.4-5.7 12.6 14.3 7.1 11.3-2.9-3.7-9.2 15.2-5 11.1-11.5 11.4 6.1 10.3-10.2 5.6-15.6 2.2-8.7 8.1 1 5.3 5.8.5 4.5 4.3 5.5 7.4 6.8.1.1.3.1.6.2 2.7 1.3 4.3 3 1.4 8-3.4 11.3-14.7 11.9-24 9.8-9.4 3.9-11.1 15.3-16.4 23-5.3 9.6-9.6 23.8-.2 32.3 9 8.7 19.4 1.1 26.9-4.7 14.4-1.9 15.7 15 8.6 23.7-.3.2-.3.5-.4.9z"/><g opacity=".2" fill="#010000"><path d="M85.3 147.1c0 .1 0 .1-.1.2.9 0 1.8-.1 1.8-.2h-1.7zM266.7 232.3h-.1v.2c0-.1.1-.1.1-.2z"/><path d="M274.8 208.7c0-.2.1-.3.1-.3-.2.2-1.7 1.7-13.2 3.4 3-10.1 4.6-21 4.7-32.2h15.4v-3.1h-15.4c-.2-11.4-1.9-22.3-4.9-32.5 11.7 1.7 13.2 3.2 13.4 3.4 0 0-.1-.1-.1-.3h2.8c-.2-.7-.4-1.3-.7-2-1.2-1.1-3.7-2-7.8-2.9-2.4-.5-5.3-1-8.6-1.4-3.9-11.7-9.6-22.4-16.6-31.5 7.1 1.8 12.7 3.9 16.6 6.2-1.5-1.9-3.1-3.8-4.8-5.7-4-1.6-8.5-2.9-12.6-3.9-.8-.2-1.5-.4-2.3-.5-10.8-12.6-24.3-21.7-39.4-26.1-6.4-1.3-13.1-2-19.9-2-7.6 0-14.9.9-22.1 2.4-14.4 4.6-27.4 13.5-37.8 25.6l-2.4.6c-3.8.9-7.9 2.1-11.6 3.5-1.6 1.7-3.2 3.6-4.7 5.4 3.9-2 9.1-3.9 15.5-5.6-7 9.1-12.7 19.8-16.6 31.5-3.6.5-6.6 1-9.1 1.5-2.9.6-5 1.3-6.4 2-.3.8-.6 1.6-.8 2.4 2.9-.7 7.9-1.6 15.3-2.7-3.1 10.2-4.8 21.1-5 32.6H80.4c0 .6-.1 1.1-.1 1.7v1.3h15.4c.1 11.3 1.8 22.1 4.7 32.3-11.9-1.7-13.5-3.3-13.6-3.5 0 0 .1.2.1.3H85l.9 2.7c1.4.8 3.6 1.5 6.7 2.2 2.4.5 5.4 1 8.9 1.5 3.6 11.1 8.8 21.2 15.2 30.1-7.2-1.9-12.7-4.2-16.4-6.5 1.5 2 3.1 4 4.8 5.9 4.4 1.8 9.3 3.3 13.9 4.4.2.1.5.1.7.2 10.6 13.1 24.2 22.9 39.4 27.7 7.2 1.6 14.6 2.5 22.2 2.5 6.8 0 13.4-.7 19.8-2 16-4.6 30.2-14.6 41.3-28.3.1 0 .3-.1.4-.1 5.1-1.2 10.5-2.9 15.2-5 1.8-2.1 3.5-4.2 5.1-6.4-3.5 2.7-9.6 5.3-17.7 7.6 6.4-8.8 11.6-19 15.2-30 3.3-.5 6.1-.9 8.5-1.4 4.3-.9 6.9-1.9 8-3.2.2-.6.4-1.1.6-1.7h-2.9zM169.6 80.3c-5.5 4-10.6 10.8-15 20.2-10.1.8-19.6 2-28 3.7 11.8-12.5 26.6-21.1 43-23.9zm-46.4 27.8c8.8-1.9 19-3.4 30-4.3-.4.9-.8 1.9-1.2 2.9-3.5 9.1-6.3 19.5-8.3 30.9-11.2.4-21.5 1.1-30.4 1.9-2.9.3-5.7.6-8.2.9 4.2-12.2 10.4-23.2 18.1-32.3zM104 143.5c3.2-.4 7.1-.8 11.7-1.2 8.1-.7 17.4-1.2 27.4-1.6-1.8 11.3-2.7 23.4-2.8 35.8H98.8c.2-11.6 2-22.7 5.2-33zm-5.2 36.1h41.6c.1 12.4 1 24.4 2.7 35.6-10-.4-19.2-.9-27.3-1.6-4.7-.4-8.6-.8-11.9-1.2-3.2-10.4-5-21.4-5.1-32.8zm6.1 35.9c2.6.3 5.4.6 8.4.9 8.8.8 19.1 1.4 30.3 1.9 1.9 11.7 4.8 22.4 8.4 31.6.2.4.3.7.5 1.1-11.4-1-22-2.5-31-4.6-7.1-9-12.7-19.4-16.6-30.9zm19.7 34.6c8.7 1.8 18.5 3.1 29.1 4 4.6 10.3 9.9 17.8 15.8 22-17.2-2.9-32.8-12.3-44.9-26zm55 26.9c-8.2-.9-16-8.8-22.4-22.7 7.2.5 14.7.8 22.4.8V277zm0-24.9c-8.2 0-16.2-.3-23.8-.9-.3-.8-.7-1.7-1-2.5-3.5-8.9-6.2-19.2-8.1-30.3 10.4.4 21.5.6 32.9.6v33.1zm0-36.3c-11.6 0-22.9-.2-33.4-.6-1.7-11.2-2.7-23.2-2.7-35.7h36.2v36.3zm0-39.3h-36.2c.1-12.5 1.1-24.7 2.9-35.9 10.5-.4 21.8-.6 33.3-.6v36.5zm0-39.6c-11.4 0-22.5.2-32.8.6 1.9-10.9 4.6-21 8-29.7.6-1.5 1.2-2.9 1.8-4.3 7.4-.5 15.1-.8 23-.8v34.2zm0-37.3c-7.4 0-14.6.3-21.6.7 6.2-12.8 13.7-20.1 21.6-20.9v20.2zm83.8 76.9h-41.6c-.1-12.5-1-24.5-2.8-35.8 9.8.4 19 .9 27 1.6 4.8.4 8.9.9 12.2 1.3 3.2 10.3 5 21.3 5.2 32.9zm-6.3-36.1c-2.7-.3-5.5-.6-8.7-.9-8.7-.8-18.9-1.4-29.9-1.8-2-11.4-4.7-21.9-8.3-30.9-.4-1-.8-1.9-1.2-2.9 11 .9 21.2 2.4 30 4.3 7.7 9 13.9 20 18.1 32.2zm-21.4-36.1c-8.4-1.7-17.9-2.9-28-3.7-4.4-9.4-9.5-16.3-15-20.2 16.3 2.7 31.2 11.3 43 23.9zm-53.1-24.9c7.8.8 15.3 8.1 21.6 20.9-7-.5-14.2-.7-21.6-.7V79.4zm0 23.3c7.9 0 15.6.3 23 .9.6 1.4 1.2 2.8 1.8 4.3 3.4 8.7 6.1 18.8 8 29.7-10.4-.4-21.4-.6-32.8-.6v-34.3zm0 37.3c11.6 0 22.8.2 33.3.6 1.8 11.3 2.8 23.4 2.8 35.9h-36.2V140zm0 39.6h36.2c-.1 12.4-1 24.5-2.7 35.7-10.6.4-21.9.6-33.5.6v-36.3zm0 39.3c11.4 0 22.6-.2 32.9-.6-1.9 11.2-4.6 21.5-8.1 30.4-.3.9-.7 1.7-1 2.5-7.6.6-15.6.9-23.8.9v-33.2zm0 36.3c7.7 0 15.2-.3 22.4-.8-6.4 13.9-14.2 21.8-22.4 22.7v-21.9zm10 20.9c5.9-4.2 11.3-11.7 15.8-22.1 10.6-.9 20.5-2.2 29.1-4-12 13.8-27.6 23.2-44.9 26.1zm48.2-29.9c-9 2.1-19.5 3.7-31 4.7.1-.4.3-.7.4-1.1 3.6-9.2 6.4-20 8.4-31.6 11-.4 21.2-1.1 29.9-1.9 3.2-.3 6.1-.6 8.8-.9-3.8 11.5-9.5 21.9-16.5 30.8zm17.6-34c-3.4.4-7.4.9-12.3 1.3-8 .7-17.1 1.2-26.9 1.6 1.7-11.2 2.6-23.2 2.7-35.6h41.6c-.2 11.5-2 22.5-5.1 32.7z"/></g><path opacity=".3" fill="#1E0E00" d="M271.2 131.4c-8.4 11.4-18.4 24.1-30 38.2l2.9 2.3-10.5 13.4 1.3 1-.1.2-3.5 4.5c-4 .2-7.9 1.3-11.1 3.2-.6.3-1.2.7-1.7 1.1-1.8 1.3-3.4 2.8-4.7 4.5l-8.4 8.4c-.3.1-.6.2-.8.5l-15.4 15.4c-.2.2-.4.5-.5.8-2.7 3.6-4.3 8.2-4.5 13.1l-4.5 3.5h-.1l-1-1.3-13.4 10.5-2.3-2.9c-9.5 7.8-18.3 14.9-26.5 21.2 13.6 6.8 29 10.7 45.3 10.7 3.5 0 7-.2 10.5-.5l10.6-8.3-5-6.4c1-.2 1.8-.6 2.1-.7l1.6-.5c2.8.8 5.7 1 8.6.4l.5 2c.6 2.7 3.3 4.5 6 3.9 2.7-.6 4.5-3.3 3.9-6l-.1-.6.6.3.2 1.1c.6 2.7 3.3 4.5 6 3.9 2.7-.6 4.5-3.3 3.9-6v-.2l.8-.2.3 1.2c.2 1 .7 1.8 1.4 2.5 2.9-1.7 5.6-3.5 8.3-5.5l-.1-.5.8-.2v.2c4.8-3.6 9.3-7.6 13.4-12-1.2-1-2.8-1.5-4.4-1.2l.2-1 5.8-1.2c.9-.2 1.6-.6 2.3-1.1.5-.6 1-1.3 1.6-1.9.5-1.1.7-2.4.4-3.7-.7-3-3.7-5-6.7-4.3l-1 .2c0-.3.1-.7.1-1l4.4-.9c3-.7 4.9-3.8 4.2-6.8-.7-2.9-3.5-4.7-6.4-4.2l.2-.9c2.8-.9 4.4-3.8 3.7-6.7-.5-1.9-1.8-3.3-3.5-3.9 0-.1-.1-.2-.1-.4l.9-2.7.3-.9.1-.4 6.4 5 7.6-9.7 3-3.8 5.6 4.4c1.5-7 2.4-14.3 2.4-21.8-.3-17.2-4.5-33.2-11.9-47.3z"/><g><path fill="#D6B13C" d="M85.2 209.6c-33.7 43.6-64.3 96.9-38.5 122.7L25.4 311S.6 286.2 81 190.6"/><path fill="#1D89AA" d="M212.7 82.2C256.3 48.6 309.3 18.3 335 44l-21.3-21.3S289-2.2 193.6 78"/><path fill="#E9B980" d="M230.6 182.6l8.5-11.1 20.6 18-3.2 9.6z"/><path fill="#FDDBA4" d="M185.4 227.8l-11.2 8.5 18 20.7 9.7-3.3z"/><path fill="#E9B980" d="M256.6 208.6c2.8-11.4-5.3-23.1-18.1-26.2-12.7-3.1-25.3 3.7-28 15.1l-3.6 15c-2.7 11.4 6.7 15.8 19.4 18.8 12.7 3.1 21.5 21 24.2 9.6l6.1-32.3z"/><path opacity=".15" d="M215.6 206.4s40.1-9.7 40.3-9c.3.8-1.7 34.6-5.6 41.1-4 6.6-28.1-12.3-28.1-12.3l-6.6-19.8z"/><path fill="#FDDBA4" d="M211.1 254.1c-11.4 2.8-23.1-5.3-26.2-18.1-3.1-12.7 3.7-25.3 15.1-28h4.3c11.4-2.8 24.7-4.7 30.3 22.3 2.6 12.8 2.9 17.5-8.5 20.2l-15 3.6z"/><path fill="#FDDBA4" d="M255.9 210.2c3-.7 4.9-3.8 4.2-6.8-.7-3-3.8-4.9-6.8-4.2l-38.7 8.1c-3 .7-4.9 3.8-4.2 6.8.7 3 3.8 4.9 6.8 4.2l38.7-8.1zM258.3 222c3-.7 4.9-3.8 4.2-6.8-.7-3-3.8-4.9-6.8-4.2l-33.5 7.2c-3 .7-4.9 3.8-4.2 6.8.7 3 3.8 4.9 6.8 4.2l33.5-7.2zM257.3 234.8c3-.7 5-3.7 4.3-6.7-.7-3-3.7-5-6.7-4.3l-33.1 6.7c-3 .7-5 3.7-4.3 6.7.7 3 3.7 5 6.7 4.3l33.1-6.7zM253.5 247.3c2.9-.7 4.6-3.6 3.9-6.4-.7-2.8-3.5-4.6-6.4-3.9l-29.3 6.9c-2.8.7-4.6 3.6-3.9 6.4.7 2.8 3.6 4.6 6.4 3.9l29.3-6.9z"/><path fill="#FDDBA4" d="M240.7 243.7l-13.5 3.1-8.2-36.4 13.5-3.1z"/><path fill="#FDDBA4" d="M250.7 244.1l-13.6 3-1.8-7.9 13.6-3.1zM211 202.5c1.1 1.1 1.3 2.7.4 3.6L196 221.5c-.9.9-2.5.7-3.6-.4l-2.7-2.7c-1.1-1.1-1.3-2.8-.4-3.7l15.4-15.4c.9-.9 2.5-.7 3.7.4l2.6 2.8z"/><path fill="#E9B980" d="M230.8 252.8c.6 2.7-1.1 5.4-3.9 6-2.7.6-5.4-1.1-6-3.9l-2.7-12.6c-.6-2.7 1.1-5.4 3.9-6 2.7-.6 5.4 1.1 6 3.9l2.7 12.6z"/><path opacity=".15" d="M204.2 201.7c-.4.4-.8.8-1.1 1.3-2 1.3-3 3.7-2.5 6.2l2.4 10.3c.7 3.2 3.8 5.2 7 4.5 3.2-.7 5.2-3.8 4.5-7l-1.4-6.3 4-4s-7.2-3.2-12.3-5.5l-.6.5z"/><path fill="#E9B980" d="M241.7 251.6c.6 2.7-1.1 5.4-3.9 6-2.7.6-5.4-1.1-6-3.9l-2.7-12.6c-.6-2.7 1.1-5.4 3.9-6 2.7-.6 5.4 1.1 6 3.9l2.7 12.6zM252.3 248.5c.6 2.7-1.1 5.4-3.9 6-2.7.6-5.4-1.1-6-3.9l-2-8.8c-.6-2.7 1.1-5.4 3.9-6 2.7-.6 5.4 1.1 6 3.9l2 8.8zM220.3 254.2c.6 2.7-1.1 5.4-3.9 6-2.7.6-5.4-1.1-6-3.9l-2-8.8c-.6-2.7 1.1-5.4 3.9-6 2.7-.6 5.4 1.1 6 3.9l2 8.8zM213.7 216.2c.7 3.2-1.3 6.3-4.5 7-3.2.7-6.3-1.3-7-4.5l-2.4-10.3c-.7-3.2 1.3-6.3 4.5-7 3.2-.7 6.3 1.3 7 4.5l2.4 10.3z"/><path fill="#E9B980" d="M227.9 185.3c2.5 2.5 1.7 7.2-1.6 10.5l-14 14c-3.3 3.3-8.1 4.1-10.5 1.6-2.5-2.5-1.7-7.2 1.6-10.5l14-14c3.3-3.3 8-4.1 10.5-1.6z"/><path fill="#FDDBA4" d="M212.8 242.5c2-.3 3.9.9 4.1 2.8.3 1.9-1.6 2.8-3.6 3.2-2 .3-3.5-.1-3.7-2-.2-1.9 1.2-3.7 3.2-4zM222.4 237.5c2-.3 3.9.9 4.1 2.8.3 1.9-1.6 2.8-3.6 3.2-2 .3-3.5-.1-3.7-2-.2-1.9 1.2-3.7 3.2-4zM233.2 236.3c2-.3 3.9.9 4.1 2.8.3 1.9-1.5 2.8-3.6 3.2-2 .3-3.5-.1-3.7-2-.2-1.9 1.2-3.7 3.2-4zM245.1 236.8c2-.3 3.9.9 4.1 2.8.3 1.9-1.6 2.8-3.6 3.2-2 .3-3.5-.1-3.7-2-.3-1.9 1.1-3.7 3.2-4z"/><path opacity=".25" d="M278.1 182.5l-31-23.8-6.2 7.8 30.7 24.2z"/><path opacity=".3" fill="#1E0E00" d="M234.7 177.1l22.3 20s1.5-2.8.7-4.8c-.8-1.9-20.5-20.3-20.5-20.3l-2.5 5.1z"/><path fill="#FFB6B6" d="M274.9 186.6L244 162.5l-10.4 13.4 30.7 24.1z"/><circle opacity=".25" cx="263.7" cy="192.1" r="2.7"/><circle fill="#05A4BF" cx="263" cy="191.6" r="2.7"/><path fill="#289CC9" d="M241.1 160.2l41.4 32.3s83.3-117.7 52.4-148.6l-19.3-19.3s22 18.8-74.5 135.6z"/><path opacity=".15" d="M268.8 181.8l11.5 8.9S363.9 72.8 333 41.9l-2.3-2.3c17.9 34-51.5 127.3-61.9 142.2z"/><path opacity=".3" fill="#1E0E00" d="M179.8 232.1l20 22.3s-2.8 1.5-4.8.7c-1.9-.8-20.3-20.5-20.3-20.5l5.1-2.5z"/><path fill="#BDDDFF" d="M189.2 272.2l-24-30.8 13.4-10.5 24.1 30.7z"/><circle opacity=".25" cx="194.8" cy="261" r="2.7"/><circle fill="#05A4BF" cx="194.2" cy="260.3" r="2.7"/><path fill="#FFD645" d="M162.9 238.5l32.3 41.4S77.5 363.2 46.6 332.3L27.3 313s18.7 22 135.6-74.5z"/><path opacity=".15" d="M184.5 266.1l9 11.5S75.6 361.2 44.7 330.3l-2.3-2.3c33.9 18 127.1-51.5 142.1-61.9z"/><path opacity=".3" fill="#1E0E00" d="M165.1 241.3l27.9 27.9-3.8 3zM244 162.5l27.9 27.9 3-3.8z"/></g><path opacity=".3" fill="#3C3C3B" d="M267.9 310.7l10.9-.9h.1v-.1l11.6-5.4-12.3-3.3v-.1H277.9l-.6.1-15.6 1.3z"/><g><path fill="#27B3D8" d="M234.9 299.5l.8 8.9 43.2-3.8-.7-8.9z"/><path opacity=".2" d="M234.5 299.6l.2 2.6 43.4-3.8-.2-2.7z"/><path opacity=".2" fill="#FFF" d="M235.355 308.448l-.236-2.69 43.433-3.817.237 2.69z"/><path fill="#FFE0A9" d="M290.5 299.1l-12.4-3.4c-.7.1-1.3.7-1.2 1.4.1.7.7 1.3 1.4 1.2-1 .1-1.8 1-1.7 2 .1 1 1.2 1.7 1.9 1.7-.7.1-1.2.7-1.1 1.4.1.7.7 1.2 1.5 1.2l11.6-5.5z"/><path opacity=".05" fill="#3C3C3B" d="M290.5 299.1l-12.4-3.4c-.7.1-1.3.7-1.2 1.4.1.7.7 1.3 1.4 1.2-1 .2 12.2.8 12.2.8z"/><path fill="#3C3C3B" d="M285.9 301.2l4.4-2.1-4.7-1.3z"/><path fill="#FF839E" d="M223.8 302.5c-.1-1.1.7-2.1 1.8-2.2l6.9-.6c1.1-.1 2.1.7 2.2 1.8l.4 4.9c.1 1.1-.7 2.1-1.8 2.2l-6.9.6c-1.1.1-2.1-.7-2.2-1.8l-.4-4.9z"/><path opacity=".1" fill="#3C3C3B" d="M224 302.2l7-.6-.2-1.7-5 .4c-1 .1-1.8.9-1.8 1.9z"/><path fill="#DADADA" d="M229.6 300.1c0-.3.2-.5.5-.5l5.3-.5c.3 0 .5.2.5.4l.8 8.7c0 .3-.2.5-.5.5l-5.3.5c-.3 0-.5-.2-.5-.4l-.8-8.7z"/><g opacity=".3"><path fill="#3C3C3B" d="M230.2 300.3c0-.2.1-.3.3-.4.2 0 .3.1.4.3l.7 8.1c0 .2-.1.3-.3.4-.2 0-.3-.1-.4-.3l-.7-8.1zM231.5 300.2c0-.2.1-.3.3-.4.2 0 .4.1.4.3l.7 8.1c0 .2-.1.3-.3.4-.2 0-.4-.1-.4-.3l-.7-8.1z"/><path fill="#3C3C3B" d="M232.2 300.2c0-.2.1-.3.3-.4.2 0 .4.1.4.3l.7 8.1c0 .2-.1.3-.3.4-.2 0-.4-.1-.4-.3l-.7-8.1zM233.5 300c0-.2.2-.3.4-.4.2 0 .4.1.4.3l.7 8.1c0 .2-.2.3-.4.4-.2 0-.4-.1-.4-.3l-.7-8.1zM234.6 300c0-.2.1-.3.3-.4.2 0 .3.1.4.3l.7 8.1c0 .2-.1.3-.3.4-.2 0-.3-.1-.4-.3l-.7-8.1z"/></g><path opacity=".3" fill="#FFF" d="M225.3 306c.3 0 .5.2.5.5.1.6.6 1.1 1.2 1 .3 0 .5.2.5.5s-.2.5-.5.5c-1.2.1-2.2-.8-2.3-1.9.1-.3.3-.6.6-.6z"/><path opacity=".3" fill="#3C3C3B" d="M236 299.4l.8 8.9.9-.1-.7-8.9z"/></g><g><path fill="#FFC32C" d="M71.6 110.6c-4.4 14.4-19.7 22.4-34 18-14.4-4.4-22.4-19.7-17.9-34.1 4.4-14.4 19.7-22.4 34-18 14.4 4.5 22.4 19.7 17.9 34.1z"/><path opacity=".2" fill="#1D1D1B" d="M38.9 124.4c-12-3.7-18.8-16.6-15.1-28.6 3.7-12 16.6-18.8 28.6-15.1 12.1 3.7 18.8 16.6 15.1 28.6-3.7 12.1-16.6 18.9-28.6 15.1zm12.8-41.3C41 79.8 29.5 85.8 26.2 96.6c-3.3 10.8 2.7 22.2 13.5 25.5 10.8 3.3 22.2-2.7 25.5-13.5 3.3-10.7-2.8-22.2-13.5-25.5z"/><path fill="#CCA334" d="M37.6 100.5l2.2.7L43.6 89l6.4 2c2.9.9 4.6 1.9 5.8 3.4 1.4 1.8 1.9 3.8 1.1 6.6-.7 2.1-2 3.7-3.7 4.7-2.1 1.1-4.5 1.3-7.9.3l-3.2-1-.7 2.3 11.4 3.5-.8 2.7-11.4-3.5-1.2 3.9-3.2-1 1.2-3.9-2.2-.7.8-2.7 2.2.7.7-2.2-2.2-.7.9-2.9zM53 95.8c-.8-1-2-1.6-4-2.3l-3.1-1L43 102l2.7.8c2.6.8 4.2.8 5.5.1 1.3-.7 2-1.7 2.4-3.1.5-1.5.4-2.8-.6-4z"/><path opacity=".2" fill="#FFF" d="M68.8 88.3l-44.5 31.2c3.3 4.2 7.8 7.5 13.3 9.1 14.4 4.4 29.6-3.6 34-18 2.5-7.8 1.2-15.9-2.8-22.3z"/></g><g><path fill="#FFC32C" d="M65 25.8c3.9 7.1 1.2 16-5.9 19.9-7.1 3.9-16 1.2-19.9-5.9-3.9-7.1-1.2-16 5.9-19.9 7.2-3.9 16-1.3 19.9 5.9z"/><path opacity=".2" fill="#1D1D1B" d="M58 43.6c-6 3.2-13.5 1-16.7-5-3.2-6-1-13.5 5-16.7 6-3.2 13.5-1 16.7 4.9 3.2 6 1 13.5-5 16.8zM46.9 23.1c-5.3 2.9-7.3 9.6-4.4 14.9 2.9 5.3 9.6 7.3 14.9 4.4 5.3-2.9 7.3-9.6 4.4-14.9-2.9-5.3-9.6-7.3-14.9-4.4z"/><path fill="#CCA334" d="M48.3 35.1l1.1-.6-3.3-6.1 3.2-1.7c1.4-.8 2.5-1.1 3.5-1 1.2.1 2.2.7 2.9 2 .6 1.1.7 2.2.4 3.2-.4 1.2-1.2 2.2-2.9 3.1l-1.6.9.6 1.1 5.8-3 .7 1.3-5.7 3.1 1.1 1.9-1.6.9-1.1-1.9-1.1.6-.7-1.3 1.1-.6-.6-1.1-1.1.5-.7-1.3zm4-7.7c-.7-.1-1.4.1-2.4.7l-1.5.8 2.6 4.7 1.3-.7c1.3-.7 1.9-1.3 2.1-2.1.2-.8.1-1.4-.3-2.1-.4-.8-1-1.3-1.8-1.3z"/><path opacity=".2" fill="#FFF" d="M55.3 18.4l-4.7 28.9c2.9.3 5.8-.2 8.5-1.7 7.1-3.9 9.8-12.8 5.9-19.9-2.1-3.8-5.7-6.4-9.7-7.3z"/></g><path opacity=".25" fill="#3C3C3B" d="M74.6 198.4s.9 7.4 5.2 18.5l5.6-7.3s-3.8-15.5-4.2-19l-6.6 7.8zM222.6 74.8s-8.3-3.9-18.2-5.7L193.7 78s14.6 3.3 18.9 4.2l10-7.4z"/></svg>