<svg baseProfile="basic" xmlns="http://www.w3.org/2000/svg" width="360" height="300" viewBox="0 0 360 300"><g fill-rule="evenodd" clip-rule="evenodd"><path fill="#F2F2F2" d="M4.2 33.9h351.7v214.7H4.2z"/><path fill="#464646" d="M356 34.6V13.8C356 6.6 350.6 0 343.4 0h-327C9.3 0 4.3 6.6 4.3 13.8v20.9H356z"/><path fill="#FF555A" d="M31.6 19.4c0 3.8-3.1 7-7 7-3.8 0-7-3.1-7-7 0-3.8 3.1-7 7-7 3.9.1 7 3.2 7 7z"/><path fill="#09A5B5" d="M55.5 19.4c0 3.8-3.1 7-7 7-3.8 0-7-3.1-7-7 0-3.8 3.1-7 7-7 3.9.1 7 3.2 7 7z"/><path fill="#FFFFFD" d="M340 21.1c0 3.8-2.6 5.6-6.4 5.6H78.2c-3.8 0-7.2-1.7-7.2-5.6v-2.4c0-3.8 3.4-8 7.2-8h255.4c3.8 0 6.4 4.2 6.4 8v2.4z"/></g><path opacity=".5" fill="#999" d="M108.4 66.5h126.1v16.9H108.4zM108.4 100h148.7v16.9H108.4zM108.4 135.7h85.2v16.9h-85.2zM108.4 170.2h137.1v16.9H108.4zM27.4 203h305.4v30.6H27.4z"/><g opacity=".5" fill="#999"><path d="M42 152.6L39.4 142l-2.6 10.6h-4.6l-4.9-17h4.9l2.6 11.3 2.9-11.3h3.4L44 147l2.5-11.3h4.9l-4.9 17H42zM66.7 152.6L64.1 142l-2.6 10.6h-4.6l-4.9-17h5l2.6 11.3 2.9-11.3h3.4l2.9 11.3 2.5-11.3h4.9l-4.9 17h-4.6zM91.4 152.6L88.8 142l-2.6 10.6h-4.6l-4.9-17h4.9l2.6 11.3 2.9-11.3h3.4l2.9 11.3 2.5-11.3h4.9l-4.9 17h-4.5zM100.8 150.5c0-1.3 1.1-2.4 2.4-2.4 1.3 0 2.4 1.1 2.4 2.4 0 1.3-1.1 2.4-2.4 2.4-1.3 0-2.4-1.1-2.4-2.4z"/></g><g opacity=".5" fill="#999"><path d="M42 117l-2.6-10.6-2.5 10.6h-4.6l-4.9-17h4.9l2.6 11.3 2.9-11.3h3.4l2.9 11.3 2.5-11.3h4.9l-4.9 17H42zM66.7 117l-2.6-10.6-2.5 10.6H57l-4.9-17H57l2.6 11.3 2.9-11.3h3.4l2.9 11.3 2.5-11.3h4.9l-4.9 17h-4.6zM91.4 117l-2.6-10.6-2.6 10.6h-4.6l-4.9-17h4.9l2.6 11.3 2.9-11.3h3.4l2.9 11.3 2.5-11.3h4.9L96 117h-4.6zM100.8 114.9c0-1.3 1.1-2.4 2.4-2.4 1.3 0 2.4 1.1 2.4 2.4 0 1.3-1.1 2.4-2.4 2.4-1.3 0-2.4-1.1-2.4-2.4z"/></g><g opacity=".5" fill="#999"><path d="M42 83.5l-2.6-10.6-2.6 10.6h-4.6l-4.9-17h4.9l2.6 11.3 2.9-11.3h3.4L44 77.9l2.5-11.3h4.9l-4.9 17H42zM66.7 83.5l-2.6-10.6-2.6 10.6h-4.6l-4.9-17h5l2.6 11.3 2.9-11.3h3.4l2.9 11.3 2.5-11.3h4.9l-4.9 17h-4.6zM91.4 83.5l-2.6-10.6-2.6 10.6h-4.6l-4.9-17h4.9l2.6 11.3 2.9-11.3h3.4l2.9 11.3 2.5-11.3h4.9l-4.9 17h-4.5zM100.8 81.4c0-1.3 1.1-2.4 2.4-2.4 1.3 0 2.4 1.1 2.4 2.4s-1.1 2.4-2.4 2.4c-1.3 0-2.4-1.1-2.4-2.4z"/></g><g opacity=".5" fill="#999"><path d="M42 187.2l-2.6-10.6-2.6 10.6h-4.6l-4.9-17h4.9l2.6 11.3 2.9-11.3h3.4l2.9 11.3 2.5-11.3h4.9l-4.9 17H42zM66.7 187.2l-2.6-10.6-2.6 10.6h-4.6l-4.9-17h5l2.6 11.3 2.9-11.3h3.4l2.9 11.3 2.5-11.3h4.9l-4.9 17h-4.6zM91.4 187.2l-2.6-10.6-2.6 10.6h-4.6l-4.9-17h4.9l2.6 11.3 2.9-11.3h3.4l2.9 11.3 2.5-11.3h4.9l-4.9 17h-4.5zM100.8 185.1c0-1.3 1.1-2.4 2.4-2.4 1.3 0 2.4 1.1 2.4 2.4 0 1.3-1.1 2.4-2.4 2.4-1.3 0-2.4-1.1-2.4-2.4z"/></g><g fill="#1A1A1A"><path d="M198.1 150.4c0-1.3 1.1-2.3 2.3-2.3 1.3 0 2.3 1.1 2.3 2.3s-1.1 2.3-2.3 2.3c-1.2.1-2.3-1-2.3-2.3zM214.5 152.5l-2.8-5.6h-2.2v5.6h-4.3v-16.6h8.3c3.7 0 5.8 2.4 5.8 5.5 0 2.9-1.8 4.4-3.3 5l3.4 6.1h-4.9zm.5-11.1c0-1.1-.9-1.8-2.1-1.8h-3.4v3.6h3.4c1.2 0 2.1-.7 2.1-1.8zM221.3 145.7v-9.9h4.4v9.7c0 2 1.2 3.4 3.5 3.4s3.5-1.4 3.5-3.4v-9.7h4.3v9.9c0 4.1-2.5 7.1-7.8 7.1-5.4 0-7.9-3-7.9-7.1zM238.6 150.4c0-1.3 1.1-2.3 2.3-2.3 1.3 0 2.3 1.1 2.3 2.3s-1.1 2.3-2.3 2.3c-1.2.1-2.3-1-2.3-2.3zM244.1 144.2c0-5.1 3.9-8.6 9-8.6 4 0 6.2 2.3 7.3 4.5l-3.7 1.7c-.5-1.3-2-2.4-3.6-2.4-2.7 0-4.6 2.1-4.6 4.8 0 2.7 1.9 4.8 4.6 4.8 1.6 0 3-1.1 3.6-2.4l3.7 1.7c-1.1 2.1-3.2 4.5-7.3 4.5-5.1 0-9-3.5-9-8.6zM260.8 144.2c0-5.1 3.8-8.6 8.9-8.6 5.1 0 8.9 3.5 8.9 8.6s-3.8 8.6-8.9 8.6c-5 0-8.9-3.6-8.9-8.6zm13.4 0c0-2.7-1.8-4.8-4.5-4.8-2.8 0-4.5 2.1-4.5 4.8 0 2.7 1.8 4.8 4.5 4.8 2.8 0 4.5-2.1 4.5-4.8zM295.2 152.5v-10.8l-4.2 10.8h-1.9l-4.2-10.8v10.8h-4.3v-16.6h6l3.5 9 3.5-9h6v16.6h-4.4z"/></g><g opacity=".5" fill="#999"><path d="M260.5 115.8c0-1.3 1.1-2.3 2.3-2.3 1.3 0 2.3 1.1 2.3 2.3s-1.1 2.3-2.3 2.3c-1.2 0-2.3-1.1-2.3-2.3zM277 117.8l-2.8-5.6H272v5.6h-4.3v-16.6h8.3c3.7 0 5.8 2.4 5.8 5.5 0 2.9-1.8 4.4-3.3 5l3.4 6.1H277zm.5-11.1c0-1.1-.9-1.8-2.1-1.8H272v3.6h3.4c1.1 0 2.1-.6 2.1-1.8zM283.7 111.1v-9.9h4.4v9.7c0 2 1.2 3.4 3.5 3.4s3.5-1.4 3.5-3.4v-9.7h4.3v9.9c0 4.1-2.5 7.1-7.8 7.1-5.3-.1-7.9-3-7.9-7.1z"/></g><g opacity=".5" fill="#999"><path d="M238.6 81.4c0-1.3 1.1-2.3 2.3-2.3 1.3 0 2.3 1.1 2.3 2.3 0 1.3-1.1 2.3-2.3 2.3-1.2 0-2.3-1-2.3-2.3zM244.1 75.1c0-5.1 3.9-8.6 9-8.6 4 0 6.2 2.3 7.3 4.5l-3.7 1.7c-.5-1.3-2-2.4-3.6-2.4-2.7 0-4.6 2.1-4.6 4.8 0 2.7 1.9 4.8 4.6 4.8 1.6 0 3-1.1 3.6-2.4l3.7 1.7c-1.1 2.1-3.2 4.5-7.3 4.5-5.1 0-9-3.5-9-8.6zM260.8 75.1c0-5.1 3.8-8.6 8.9-8.6 5.1 0 8.9 3.5 8.9 8.6s-3.8 8.6-8.9 8.6c-5 0-8.9-3.5-8.9-8.6zm13.4 0c0-2.7-1.8-4.8-4.5-4.8-2.8 0-4.5 2.1-4.5 4.8 0 2.7 1.8 4.8 4.5 4.8 2.8 0 4.5-2.1 4.5-4.8zM295.2 83.4V72.6L291 83.4h-1.9l-4.2-10.8v10.8h-4.3V66.8h6l3.5 9 3.5-9h6v16.6h-4.4z"/></g><g opacity=".5" fill="#999"><path d="M248.6 184.8c0-1.3 1.1-2.3 2.3-2.3 1.3 0 2.3 1.1 2.3 2.3 0 1.3-1.1 2.3-2.3 2.3-1.2.1-2.3-1-2.3-2.3zM267.1 186.9l-7-9.6v9.6h-4.3v-16.6h4.4l6.7 9.1v-9.1h4.3v16.6h-4.1zM274.1 186.9v-16.6h12.2v3.7h-7.9v2.6h7.7v3.7h-7.7v2.8h7.9v3.7h-12.2zM292.1 186.9V174h-4.7v-3.7H301v3.7h-4.6v12.9h-4.3z"/></g><g fill="#00A936"><path d="M324.3 150.2c.2.3-.5 1-.8 1.2l-.6 1.5c-.3.2-1.1 0-1.3-.3l-6.2-8.6c-.2-.3-.2-.8.2-1.1l1.5-1.1c.3-.2.8-.2 1.1.2l6.1 8.2z"/><path d="M320.6 150c-.3.3-.4.8-.1 1.1l1.5 1.6c.3.3.8.4 1.1.1l10.6-13.2c.3-.3.4-.8.1-1.1l-1.6-1.4c-.3-.3-.8-.4-1.1-.1l-10.5 13z"/></g><g fill="#C43D23"><path d="M332 104.6l-12.6 12.6c-.7.7-1.9.7-2.6 0-.7-.7-.7-1.9 0-2.6l12.6-12.6c.7-.7 1.9-.7 2.6 0 .7.8.7 1.9 0 2.6z"/><path d="M316.8 104.6l12.6 12.6c.7.7 1.9.7 2.6 0 .7-.7.7-1.9 0-2.6L319.4 102c-.7-.7-1.9-.7-2.6 0-.7.8-.7 1.9 0 2.6z"/></g><g fill="#C43D23"><path d="M332 70.1l-12.6 12.6c-.7.7-1.9.7-2.6 0-.7-.7-.7-1.9 0-2.6l12.6-12.6c.7-.7 1.9-.7 2.6 0 .7.7.7 1.9 0 2.6z"/><path d="M316.8 70.1l12.6 12.6c.7.7 1.9.7 2.6 0 .7-.7.7-1.9 0-2.6l-12.6-12.6c-.7-.7-1.9-.7-2.6 0-.7.7-.7 1.9 0 2.6z"/></g><g fill="#C43D23"><path d="M332 173.7l-12.6 12.6c-.7.7-1.9.7-2.6 0-.7-.7-.7-1.9 0-2.6l12.6-12.6c.7-.7 1.9-.7 2.6 0 .7.7.7 1.9 0 2.6z"/><path d="M316.8 173.7l12.6 12.6c.7.7 1.9.7 2.6 0 .7-.7.7-1.9 0-2.6l-12.6-12.6c-.7-.7-1.9-.7-2.6 0-.7.7-.7 1.9 0 2.6z"/></g><path opacity=".2" d="M259.9 206.4c0-6.2-4.7-11.2-10.9-11.3-6.2 0-11 5-11 11.2v.2h-.3l-.1-6c0-6.2-5-11.2-11.2-11.3-5.3 0-9.8 3.7-11 8.7-1.1-5-5.6-8.7-10.9-8.8-5.4 0-9.9 3.7-11 8.8l-.3.1.2-51.9c0-6.2-5-11.2-11.2-11.3-6.2 0-11.2 5-11.3 11.2l-.2 64.5-9.1 5.1c-3.8 2.1-4.4 8.2-1.4 13.6.1.1.1.2.2.4l10.3 24.6c1.5 22.7 20.8 35.8 44.3 35.9 23.7.1 43.2-13.1 44.6-36.1h.1v-2.3-6.5-.4l.2-38.4z"/><path fill="#E8C08B" d="M191.6 263.4c1.7 4-1.6 9.2-7.3 11.6-5.7 2.4-11.7 1.1-13.4-2.9l-17-40.6c-1.7-4 1.6-9.2 7.3-11.6 5.7-2.4 11.7-1.1 13.4 2.9l17 40.6z"/><path fill="#E8C08B" d="M194.4 198.2c3.8-2.1 9.3.5 12.3 5.9s2.4 11.5-1.4 13.6L167 239.2c-3.8 2.1-9.3-.5-12.3-6-3-5.4-2.4-11.5 1.4-13.6l38.3-21.4z"/><g fill="#FDDBA4"><path d="M187.5 233.6c0 6.2-5.1 11.2-11.3 11.2-6.2 0-11.2-5.1-11.2-11.3l.3-83.5c0-6.2 5.1-11.2 11.3-11.2 6.2 0 11.2 5.1 11.2 11.3l-.3 83.5z"/><path d="M209.8 267.1c0 6.2-5.1 11.2-11.3 11.2-6.2 0-11.2-5.1-11.2-11.2l.2-62.8c0-6.2 5.1-11.2 11.3-11.2 6.2 0 11.2 5.1 11.2 11.3l-.2 62.7z"/><path d="M231.7 267.1c0 6.2-5.1 11.2-11.3 11.2-6.2 0-11.2-5.1-11.2-11.2l.2-62.8c0-6.2 5.1-11.2 11.3-11.2 6.2 0 11.2 5.1 11.2 11.3l-.2 62.7z"/><path d="M254.1 258c-13.8 7.6-5.1 11.2-11.3 11.2v-3.5c-6.2 0-11.2-1.6-11.2-7.8l.2-47.8c0-6.2 5.1-11.2 11.2-11.2 6.2 0 11.2 5.1 11.2 11.3l-.1 47.8z"/><path d="M254.2 255.5c-.1 24.6-20.1 38.8-44.7 38.7-24.6-.1-44.5-14.4-44.4-39l.1-21.6c.1-24.6 20.1-29.2 44.7-29.1 24.6.1 44.5 20.1 44.4 44.7l-.1 6.3z"/></g><path opacity=".4" fill="#B29076" d="M184.4 150.4c0 4.4-3.6 5.7-8 5.7s-8-1.3-8-5.7 3.6-7.7 8-7.7 8 3.3 8 7.7z"/><g opacity=".4" fill="#70462D"><path opacity=".3" d="M184.3 180.3c0 .4-.3.8-.8.8l-14.2-.1c-.4 0-.8-.3-.8-.8 0-.4.3-.8.8-.7l14.2.1c.5-.1.8.2.8.7zM184.3 183.6c0 .4-.3.8-.8.8h-14.2c-.4 0-.8-.4-.8-.8s.3-.7.8-.7l14.2.1c.5-.2.8.2.8.6zM184.1 187.4c0 .4-.4.8-.8.8l-14.2-.1c-.4 0-.8-.4-.8-.8s.3-.7.8-.7l14.2.1c.5 0 .8.3.8.7z"/></g><g opacity=".2"><path d="M179.4 106.9c0 .8-.6 1.4-1.4 1.4-.8 0-1.4-.6-1.4-1.4V87.6c0-.8.6-1.4 1.4-1.4.8 0 1.4.6 1.4 1.4v19.3zM179.4 79.2c0 .8-.6 1.4-1.4 1.4-.8 0-1.4-.6-1.4-1.4v-9.1c0-.8.6-1.4 1.4-1.4.8 0 1.4.6 1.4 1.4v9.1zM134.3 147.6c.8 0 1.4.6 1.4 1.4 0 .8-.6 1.4-1.4 1.4h-19.4c-.8 0-1.4-.6-1.4-1.4 0-.8.6-1.4 1.4-1.4h19.4zM106.5 147.6c.8 0 1.4.6 1.4 1.4 0 .8-.6 1.4-1.4 1.4h-9.1c-.8 0-1.4-.6-1.4-1.4 0-.8.6-1.4 1.4-1.4h9.1zM208.2 119.8c-.5.5-1.4.5-2 0-.6-.5-.6-1.4 0-2l13.7-13.7c.5-.5 1.4-.5 2 0 .5.5.5 1.4 0 2l-13.7 13.7zM145.8 178.2c.5-.6 1.4-.6 2 0 .5.5.5 1.4 0 2l-13.7 13.7c-.5.5-1.4.5-2 0-.6-.6-.6-1.4 0-2l13.7-13.7zM147.8 117.8c.5.5.5 1.4 0 2-.5.5-1.4.5-2 0l-13.7-13.7c-.5-.6-.5-1.4 0-2 .5-.6 1.4-.5 2 0l13.7 13.7z"/></g><g><path fill="#FFDA22" d="M177.3 104.8c0 .8-.6 1.4-1.4 1.4-.8 0-1.4-.6-1.4-1.4V85.4c0-.8.6-1.4 1.4-1.4.8 0 1.4.6 1.4 1.4v19.4z"/><path fill="#FF7800" d="M177.3 77c0 .8-.6 1.4-1.4 1.4-.8 0-1.4-.6-1.4-1.4v-9.1c0-.8.6-1.4 1.4-1.4.8 0 1.4.6 1.4 1.4V77z"/><path fill="#FFDA22" d="M132.2 145.5c.8 0 1.4.6 1.4 1.4 0 .8-.6 1.4-1.4 1.4h-19.4c-.8 0-1.4-.6-1.4-1.4 0-.8.6-1.4 1.4-1.4h19.4z"/><path fill="#FF7800" d="M104.4 145.5c.8 0 1.4.6 1.4 1.4 0 .8-.6 1.4-1.4 1.4h-9.1c-.8 0-1.4-.6-1.4-1.4 0-.8.6-1.4 1.4-1.4h9.1zM206 117.7c-.5.5-1.4.5-2 0-.6-.5-.6-1.4 0-2l13.7-13.7c.5-.5 1.4-.5 2 0 .5.5.5 1.4 0 2L206 117.7zM143.7 176.1c.5-.6 1.4-.6 2 0 .5.5.5 1.4 0 2L132 191.8c-.5.5-1.4.5-2 0-.6-.6-.6-1.4 0-2l13.7-13.7zM145.6 115.7c.5.5.5 1.4 0 2-.5.5-1.4.5-2 0L130 104c-.5-.6-.5-1.4 0-2 .5-.6 1.4-.5 2 0l13.6 13.7z"/></g><path opacity=".4" fill-rule="evenodd" clip-rule="evenodd" fill="#FFF" d="M283.6.2H16.3C9.2.2 4 7.1 4 14.3v234.9h44.5L283.6.2z"/></svg>