<?xml version="1.0" encoding="utf-8"?>
<!-- Generator: Adobe Illustrator 21.0.2, SVG Export Plug-In . SVG Version: 6.00 Build 0)  -->
<svg version="1.1" baseProfile="basic" id="Слой_1"
	 xmlns="http://www.w3.org/2000/svg" xmlns:xlink="http://www.w3.org/1999/xlink" x="0px" y="0px" width="120px" height="245px"
	 viewBox="0 0 120 245" xml:space="preserve">
<ellipse opacity="0.1" cx="58.3" cy="204.9" rx="43.3" ry="5.5"/>
<polygon fill="#0068BA" points="26.5,111.9 0,111.9 60.5,51.4 120,110.9 90.5,110.9 90.5,205.5 25.9,205.5 "/>
<polygon opacity="0.1" points="60.5,205.5 90.5,205.5 90.5,110.9 120,110.9 60.5,51.4 "/>
<g>
	<g>
		<rect x="33.8" y="141.2" fill="#3A383A" width="48" height="53.1"/>
		<path fill="#5E5E5E" d="M32.6,140.4c0,1.3,1,2.3,2.3,2.3h47c0,0,0-1,0-2.3v-6.2c0-1.3,0-2.3,0-2.3h-47c-1.3,0-2.3,1-2.3,2.3V140.4
			z"/>
		<circle fill="#FFFFFF" cx="68.5" cy="135.9" r="0.5"/>
		<circle fill="#FFFFFF" cx="70.3" cy="135.9" r="0.5"/>
		<circle fill="#FFFFFF" cx="72.1" cy="135.9" r="0.5"/>
		<circle fill="#FFFFFF" cx="73.9" cy="135.9" r="0.5"/>
		<circle fill="#FFFFFF" cx="75.7" cy="135.9" r="0.5"/>
		<circle fill="#FFFFFF" cx="77.5" cy="135.9" r="0.5"/>
		<circle fill="#FFFFFF" cx="79.3" cy="135.9" r="0.5"/>
		<circle fill="#FFFFFF" cx="81.1" cy="135.9" r="0.5"/>
		<circle fill="#FFFFFF" cx="69.5" cy="137.3" r="0.5"/>
		<circle fill="#FFFFFF" cx="71.3" cy="137.3" r="0.5"/>
		<circle fill="#FFFFFF" cx="73.1" cy="137.3" r="0.5"/>
		<circle fill="#FFFFFF" cx="74.9" cy="137.3" r="0.5"/>
		<circle fill="#FFFFFF" cx="76.7" cy="137.3" r="0.5"/>
		<circle fill="#FFFFFF" cx="78.5" cy="137.3" r="0.5"/>
		<circle fill="#FFFFFF" cx="80.3" cy="137.3" r="0.5"/>
		<circle fill="#FFFFFF" cx="69.5" cy="140" r="0.5"/>
		<circle fill="#FFFFFF" cx="71.3" cy="140" r="0.5"/>
		<circle fill="#FFFFFF" cx="73.1" cy="140" r="0.5"/>
		<circle fill="#FFFFFF" cx="74.9" cy="140" r="0.5"/>
		<circle fill="#FFFFFF" cx="76.7" cy="140" r="0.5"/>
		<circle fill="#FFFFFF" cx="78.5" cy="140" r="0.5"/>
		<circle fill="#FFFFFF" cx="80.3" cy="140" r="0.5"/>
		<circle fill="#FFFFFF" cx="68.5" cy="138.6" r="0.5"/>
		<circle fill="#FFFFFF" cx="70.3" cy="138.6" r="0.5"/>
		<circle fill="#FFFFFF" cx="72.1" cy="138.6" r="0.5"/>
		<circle fill="#FFFFFF" cx="73.9" cy="138.6" r="0.5"/>
		<circle fill="#FFFFFF" cx="75.7" cy="138.6" r="0.5"/>
		<circle fill="#FFFFFF" cx="77.5" cy="138.6" r="0.5"/>
		<circle fill="#FFFFFF" cx="79.3" cy="138.6" r="0.5"/>
		<circle fill="#FFFFFF" cx="81.1" cy="138.6" r="0.5"/>
		<rect x="47.4" y="136.9" fill="#FFFFFF" width="17.7" height="0.9"/>
		<rect x="47.4" y="138.9" fill="#FFFFFF" width="17.7" height="0.9"/>
		<circle fill="#EB6159" cx="39.9" cy="137.3" r="3.4"/>
		<circle fill="#3A383A" cx="39.9" cy="137.3" r="2.6"/>
		<path fill="#5E5E5E" d="M32.6,152.1c0,1.3,1,2.3,2.3,2.3h47c0,0,0-1,0-2.3v-6.2c0-1.3,0-2.3,0-2.3h-47c-1.3,0-2.3,1-2.3,2.3V152.1
			z"/>
		<circle fill="#FFFFFF" cx="69.5" cy="146.3" r="0.5"/>
		<circle fill="#FFFFFF" cx="71.3" cy="146.3" r="0.5"/>
		<circle fill="#FFFFFF" cx="73.1" cy="146.3" r="0.5"/>
		<circle fill="#FFFFFF" cx="74.9" cy="146.3" r="0.5"/>
		<circle fill="#FFFFFF" cx="76.7" cy="146.3" r="0.5"/>
		<circle fill="#FFFFFF" cx="78.5" cy="146.3" r="0.5"/>
		<circle fill="#FFFFFF" cx="80.3" cy="146.3" r="0.5"/>
		<circle fill="#FFFFFF" cx="68.5" cy="147.6" r="0.5"/>
		<circle fill="#FFFFFF" cx="70.3" cy="147.6" r="0.5"/>
		<circle fill="#FFFFFF" cx="72.1" cy="147.6" r="0.5"/>
		<circle fill="#FFFFFF" cx="73.9" cy="147.6" r="0.5"/>
		<circle fill="#FFFFFF" cx="75.7" cy="147.6" r="0.5"/>
		<circle fill="#FFFFFF" cx="77.5" cy="147.6" r="0.5"/>
		<circle fill="#FFFFFF" cx="79.3" cy="147.6" r="0.5"/>
		<circle fill="#FFFFFF" cx="81.1" cy="147.6" r="0.5"/>
		<circle fill="#FFFFFF" cx="69.5" cy="149" r="0.5"/>
		<circle fill="#FFFFFF" cx="71.3" cy="149" r="0.5"/>
		<circle fill="#FFFFFF" cx="73.1" cy="149" r="0.5"/>
		<circle fill="#FFFFFF" cx="74.9" cy="149" r="0.5"/>
		<circle fill="#FFFFFF" cx="76.7" cy="149" r="0.5"/>
		<circle fill="#FFFFFF" cx="78.5" cy="149" r="0.5"/>
		<circle fill="#FFFFFF" cx="80.3" cy="149" r="0.5"/>
		<circle fill="#FFFFFF" cx="69.5" cy="151.7" r="0.5"/>
		<circle fill="#FFFFFF" cx="71.3" cy="151.7" r="0.5"/>
		<circle fill="#FFFFFF" cx="73.1" cy="151.7" r="0.5"/>
		<circle fill="#FFFFFF" cx="74.9" cy="151.7" r="0.5"/>
		<circle fill="#FFFFFF" cx="76.7" cy="151.7" r="0.5"/>
		<circle fill="#FFFFFF" cx="78.5" cy="151.7" r="0.5"/>
		<circle fill="#FFFFFF" cx="80.3" cy="151.7" r="0.5"/>
		<circle fill="#FFFFFF" cx="68.5" cy="150.3" r="0.5"/>
		<circle fill="#FFFFFF" cx="70.3" cy="150.3" r="0.5"/>
		<circle fill="#FFFFFF" cx="72.1" cy="150.3" r="0.5"/>
		<circle fill="#FFFFFF" cx="73.9" cy="150.3" r="0.5"/>
		<circle fill="#FFFFFF" cx="75.7" cy="150.3" r="0.5"/>
		<circle fill="#FFFFFF" cx="77.5" cy="150.3" r="0.5"/>
		<circle fill="#FFFFFF" cx="79.3" cy="150.3" r="0.5"/>
		<circle fill="#FFFFFF" cx="81.1" cy="150.3" r="0.5"/>
		<rect x="47.4" y="146.5" fill="#FFFFFF" width="17.7" height="0.9"/>
		<rect x="47.4" y="148.6" fill="#FFFFFF" width="17.7" height="0.9"/>
		<rect x="47.4" y="150.6" fill="#FFFFFF" width="17.7" height="0.9"/>
		<circle fill="#EB6159" cx="39.9" cy="149" r="3.4"/>
		<circle fill="#3A383A" cx="39.9" cy="149" r="2.6"/>
		<path fill="#5E5E5E" d="M32.6,163.7c0,1.3,1,2.3,2.3,2.3h47c0,0,0-1,0-2.3v-6.2c0-1.3,0-2.3,0-2.3h-47c-1.3,0-2.3,1-2.3,2.3V163.7
			z"/>
		<circle fill="#FFFFFF" cx="69.5" cy="157.9" r="0.5"/>
		<circle fill="#FFFFFF" cx="71.3" cy="157.9" r="0.5"/>
		<circle fill="#FFFFFF" cx="73.1" cy="157.9" r="0.5"/>
		<circle fill="#FFFFFF" cx="74.9" cy="157.9" r="0.5"/>
		<circle fill="#FFFFFF" cx="76.7" cy="157.9" r="0.5"/>
		<circle fill="#FFFFFF" cx="78.5" cy="157.9" r="0.5"/>
		<circle fill="#FFFFFF" cx="80.3" cy="157.9" r="0.5"/>
		<circle fill="#FFFFFF" cx="68.5" cy="159.3" r="0.5"/>
		<circle fill="#FFFFFF" cx="70.3" cy="159.3" r="0.5"/>
		<circle fill="#FFFFFF" cx="72.1" cy="159.3" r="0.5"/>
		<circle fill="#FFFFFF" cx="73.9" cy="159.3" r="0.5"/>
		<circle fill="#FFFFFF" cx="75.7" cy="159.3" r="0.5"/>
		<circle fill="#FFFFFF" cx="77.5" cy="159.3" r="0.5"/>
		<circle fill="#FFFFFF" cx="79.3" cy="159.3" r="0.5"/>
		<circle fill="#FFFFFF" cx="81.1" cy="159.3" r="0.5"/>
		<circle fill="#FFFFFF" cx="69.5" cy="160.7" r="0.5"/>
		<circle fill="#FFFFFF" cx="71.3" cy="160.7" r="0.5"/>
		<circle fill="#FFFFFF" cx="73.1" cy="160.7" r="0.5"/>
		<circle fill="#FFFFFF" cx="74.9" cy="160.7" r="0.5"/>
		<circle fill="#FFFFFF" cx="76.7" cy="160.7" r="0.5"/>
		<circle fill="#FFFFFF" cx="78.5" cy="160.7" r="0.5"/>
		<circle fill="#FFFFFF" cx="80.3" cy="160.7" r="0.5"/>
		<circle fill="#FFFFFF" cx="69.5" cy="163.4" r="0.5"/>
		<circle fill="#FFFFFF" cx="71.3" cy="163.4" r="0.5"/>
		<circle fill="#FFFFFF" cx="73.1" cy="163.4" r="0.5"/>
		<circle fill="#FFFFFF" cx="74.9" cy="163.4" r="0.5"/>
		<circle fill="#FFFFFF" cx="76.7" cy="163.4" r="0.5"/>
		<circle fill="#FFFFFF" cx="78.5" cy="163.4" r="0.5"/>
		<circle fill="#FFFFFF" cx="80.3" cy="163.4" r="0.5"/>
		<circle fill="#FFFFFF" cx="68.5" cy="162" r="0.5"/>
		<circle fill="#FFFFFF" cx="70.3" cy="162" r="0.5"/>
		<circle fill="#FFFFFF" cx="72.1" cy="162" r="0.5"/>
		<circle fill="#FFFFFF" cx="73.9" cy="162" r="0.5"/>
		<circle fill="#FFFFFF" cx="75.7" cy="162" r="0.5"/>
		<circle fill="#FFFFFF" cx="77.5" cy="162" r="0.5"/>
		<circle fill="#FFFFFF" cx="79.3" cy="162" r="0.5"/>
		<circle fill="#FFFFFF" cx="81.1" cy="162" r="0.5"/>
		<rect x="47.4" y="158.2" fill="#FFFFFF" width="17.7" height="0.9"/>
		<rect x="47.4" y="160.2" fill="#FFFFFF" width="17.7" height="0.9"/>
		<rect x="47.4" y="162.2" fill="#FFFFFF" width="17.7" height="0.9"/>
		<circle fill="#EB6159" cx="39.9" cy="160.7" r="3.4"/>
		<circle fill="#3A383A" cx="39.9" cy="160.7" r="2.6"/>
		<path fill="#5E5E5E" d="M32.6,175.4c0,1.3,1,2.3,2.3,2.3h47c0,0,0-1,0-2.3v-6.2c0-1.3,0-2.3,0-2.3h-47c-1.3,0-2.3,1-2.3,2.3V175.4
			z"/>
		<circle fill="#FFFFFF" cx="69.5" cy="169.6" r="0.5"/>
		<circle fill="#FFFFFF" cx="71.3" cy="169.6" r="0.5"/>
		<circle fill="#FFFFFF" cx="73.1" cy="169.6" r="0.5"/>
		<circle fill="#FFFFFF" cx="74.9" cy="169.6" r="0.5"/>
		<circle fill="#FFFFFF" cx="76.7" cy="169.6" r="0.5"/>
		<circle fill="#FFFFFF" cx="78.5" cy="169.6" r="0.5"/>
		<circle fill="#FFFFFF" cx="80.3" cy="169.6" r="0.5"/>
		<circle fill="#FFFFFF" cx="68.5" cy="170.9" r="0.5"/>
		<circle fill="#FFFFFF" cx="70.3" cy="170.9" r="0.5"/>
		<circle fill="#FFFFFF" cx="72.1" cy="170.9" r="0.5"/>
		<circle fill="#FFFFFF" cx="73.9" cy="170.9" r="0.5"/>
		<circle fill="#FFFFFF" cx="75.7" cy="170.9" r="0.5"/>
		<circle fill="#FFFFFF" cx="77.5" cy="170.9" r="0.5"/>
		<circle fill="#FFFFFF" cx="79.3" cy="170.9" r="0.5"/>
		<circle fill="#FFFFFF" cx="81.1" cy="170.9" r="0.5"/>
		<circle fill="#FFFFFF" cx="69.5" cy="172.3" r="0.5"/>
		<circle fill="#FFFFFF" cx="71.3" cy="172.3" r="0.5"/>
		<circle fill="#FFFFFF" cx="73.1" cy="172.3" r="0.5"/>
		<circle fill="#FFFFFF" cx="74.9" cy="172.3" r="0.5"/>
		<circle fill="#FFFFFF" cx="76.7" cy="172.3" r="0.5"/>
		<circle fill="#FFFFFF" cx="78.5" cy="172.3" r="0.5"/>
		<circle fill="#FFFFFF" cx="80.3" cy="172.3" r="0.5"/>
		<circle fill="#FFFFFF" cx="69.5" cy="175" r="0.5"/>
		<circle fill="#FFFFFF" cx="71.3" cy="175" r="0.5"/>
		<circle fill="#FFFFFF" cx="73.1" cy="175" r="0.5"/>
		<circle fill="#FFFFFF" cx="74.9" cy="175" r="0.5"/>
		<circle fill="#FFFFFF" cx="76.7" cy="175" r="0.5"/>
		<circle fill="#FFFFFF" cx="78.5" cy="175" r="0.5"/>
		<circle fill="#FFFFFF" cx="80.3" cy="175" r="0.5"/>
		<circle fill="#FFFFFF" cx="68.5" cy="173.7" r="0.5"/>
		<circle fill="#FFFFFF" cx="70.3" cy="173.7" r="0.5"/>
		<circle fill="#FFFFFF" cx="72.1" cy="173.7" r="0.5"/>
		<circle fill="#FFFFFF" cx="73.9" cy="173.7" r="0.5"/>
		<circle fill="#FFFFFF" cx="75.7" cy="173.7" r="0.5"/>
		<circle fill="#FFFFFF" cx="77.5" cy="173.7" r="0.5"/>
		<circle fill="#FFFFFF" cx="79.3" cy="173.7" r="0.5"/>
		<circle fill="#FFFFFF" cx="81.1" cy="173.7" r="0.5"/>
		<rect x="47.4" y="169.9" fill="#FFFFFF" width="17.7" height="0.9"/>
		<rect x="47.4" y="171.9" fill="#FFFFFF" width="17.7" height="0.9"/>
		<rect x="47.4" y="173.9" fill="#FFFFFF" width="17.7" height="0.9"/>
		<circle fill="#EB6159" cx="39.9" cy="172.3" r="3.4"/>
		<circle fill="#3A383A" cx="39.9" cy="172.3" r="2.6"/>
		<path fill="#5E5E5E" d="M32.6,187.1c0,1.3,1,2.3,2.3,2.3h47v-10.7h-47c-1.3,0-2.3,1-2.3,2.3V187.1z"/>
		<circle fill="#FFFFFF" cx="69.5" cy="181.3" r="0.5"/>
		<circle fill="#FFFFFF" cx="71.3" cy="181.3" r="0.5"/>
		<circle fill="#FFFFFF" cx="73.1" cy="181.3" r="0.5"/>
		<circle fill="#FFFFFF" cx="74.9" cy="181.3" r="0.5"/>
		<circle fill="#FFFFFF" cx="76.7" cy="181.3" r="0.5"/>
		<circle fill="#FFFFFF" cx="78.5" cy="181.3" r="0.5"/>
		<circle fill="#FFFFFF" cx="80.3" cy="181.3" r="0.5"/>
		<circle fill="#FFFFFF" cx="68.5" cy="182.6" r="0.5"/>
		<circle fill="#FFFFFF" cx="70.3" cy="182.6" r="0.5"/>
		<circle fill="#FFFFFF" cx="72.1" cy="182.6" r="0.5"/>
		<circle fill="#FFFFFF" cx="73.9" cy="182.6" r="0.5"/>
		<circle fill="#FFFFFF" cx="75.7" cy="182.6" r="0.5"/>
		<circle fill="#FFFFFF" cx="77.5" cy="182.6" r="0.5"/>
		<circle fill="#FFFFFF" cx="79.3" cy="182.6" r="0.5"/>
		<circle fill="#FFFFFF" cx="81.1" cy="182.6" r="0.5"/>
		<circle fill="#FFFFFF" cx="69.5" cy="184" r="0.5"/>
		<circle fill="#FFFFFF" cx="71.3" cy="184" r="0.5"/>
		<circle fill="#FFFFFF" cx="73.1" cy="184" r="0.5"/>
		<circle fill="#FFFFFF" cx="74.9" cy="184" r="0.5"/>
		<circle fill="#FFFFFF" cx="76.7" cy="184" r="0.5"/>
		<circle fill="#FFFFFF" cx="78.5" cy="184" r="0.5"/>
		<circle fill="#FFFFFF" cx="80.3" cy="184" r="0.5"/>
		<circle fill="#FFFFFF" cx="69.5" cy="186.7" r="0.5"/>
		<circle fill="#FFFFFF" cx="71.3" cy="186.7" r="0.5"/>
		<circle fill="#FFFFFF" cx="73.1" cy="186.7" r="0.5"/>
		<circle fill="#FFFFFF" cx="74.9" cy="186.7" r="0.5"/>
		<circle fill="#FFFFFF" cx="76.7" cy="186.7" r="0.5"/>
		<circle fill="#FFFFFF" cx="78.5" cy="186.7" r="0.5"/>
		<circle fill="#FFFFFF" cx="80.3" cy="186.7" r="0.5"/>
		<circle fill="#FFFFFF" cx="68.5" cy="185.3" r="0.5"/>
		<circle fill="#FFFFFF" cx="70.3" cy="185.3" r="0.5"/>
		<circle fill="#FFFFFF" cx="72.1" cy="185.3" r="0.5"/>
		<circle fill="#FFFFFF" cx="73.9" cy="185.3" r="0.5"/>
		<circle fill="#FFFFFF" cx="75.7" cy="185.3" r="0.5"/>
		<circle fill="#FFFFFF" cx="77.5" cy="185.3" r="0.5"/>
		<circle fill="#FFFFFF" cx="79.3" cy="185.3" r="0.5"/>
		<circle fill="#FFFFFF" cx="81.1" cy="185.3" r="0.5"/>
		<rect x="47.4" y="181.5" fill="#FFFFFF" width="17.7" height="0.9"/>
		<rect x="47.4" y="183.6" fill="#FFFFFF" width="17.7" height="0.9"/>
		<rect x="47.4" y="185.6" fill="#FFFFFF" width="17.7" height="0.9"/>
		<circle fill="#EB6159" cx="39.9" cy="184" r="3.4"/>
		<circle fill="#3A383A" cx="39.9" cy="184" r="2.6"/>
		<path fill="#5E5E5E" d="M32.6,198.7c0,1.3,1,2.3,2.3,2.3h47c0,0,0-1,0-2.3v-6.2c0-1.3,0-2.3,0-2.3h-47c-1.3,0-2.3,1-2.3,2.3V198.7
			z"/>
		<circle fill="#FFFFFF" cx="69.5" cy="193" r="0.5"/>
		<circle fill="#FFFFFF" cx="71.3" cy="193" r="0.5"/>
		<circle fill="#FFFFFF" cx="73.1" cy="193" r="0.5"/>
		<circle fill="#FFFFFF" cx="74.9" cy="193" r="0.5"/>
		<circle fill="#FFFFFF" cx="76.7" cy="193" r="0.5"/>
		<circle fill="#FFFFFF" cx="78.5" cy="193" r="0.5"/>
		<circle fill="#FFFFFF" cx="80.3" cy="193" r="0.5"/>
		<circle fill="#FFFFFF" cx="68.5" cy="194.3" r="0.5"/>
		<circle fill="#FFFFFF" cx="70.3" cy="194.3" r="0.5"/>
		<circle fill="#FFFFFF" cx="72.1" cy="194.3" r="0.5"/>
		<circle fill="#FFFFFF" cx="73.9" cy="194.3" r="0.5"/>
		<circle fill="#FFFFFF" cx="75.7" cy="194.3" r="0.5"/>
		<circle fill="#FFFFFF" cx="77.5" cy="194.3" r="0.5"/>
		<circle fill="#FFFFFF" cx="79.3" cy="194.3" r="0.5"/>
		<circle fill="#FFFFFF" cx="81.1" cy="194.3" r="0.5"/>
		<circle fill="#FFFFFF" cx="69.5" cy="195.7" r="0.5"/>
		<circle fill="#FFFFFF" cx="71.3" cy="195.7" r="0.5"/>
		<circle fill="#FFFFFF" cx="73.1" cy="195.7" r="0.5"/>
		<circle fill="#FFFFFF" cx="74.9" cy="195.7" r="0.5"/>
		<circle fill="#FFFFFF" cx="76.7" cy="195.7" r="0.5"/>
		<circle fill="#FFFFFF" cx="78.5" cy="195.7" r="0.5"/>
		<circle fill="#FFFFFF" cx="80.3" cy="195.7" r="0.5"/>
		<circle fill="#FFFFFF" cx="69.5" cy="198.4" r="0.5"/>
		<circle fill="#FFFFFF" cx="71.3" cy="198.4" r="0.5"/>
		<circle fill="#FFFFFF" cx="73.1" cy="198.4" r="0.5"/>
		<circle fill="#FFFFFF" cx="74.9" cy="198.4" r="0.5"/>
		<circle fill="#FFFFFF" cx="76.7" cy="198.4" r="0.5"/>
		<circle fill="#FFFFFF" cx="78.5" cy="198.4" r="0.5"/>
		<circle fill="#FFFFFF" cx="80.3" cy="198.4" r="0.5"/>
		<circle fill="#FFFFFF" cx="68.5" cy="197" r="0.5"/>
		<circle fill="#FFFFFF" cx="70.3" cy="197" r="0.5"/>
		<circle fill="#FFFFFF" cx="72.1" cy="197" r="0.5"/>
		<circle fill="#FFFFFF" cx="73.9" cy="197" r="0.5"/>
		<circle fill="#FFFFFF" cx="75.7" cy="197" r="0.5"/>
		<circle fill="#FFFFFF" cx="77.5" cy="197" r="0.5"/>
		<circle fill="#FFFFFF" cx="79.3" cy="197" r="0.5"/>
		<circle fill="#FFFFFF" cx="81.1" cy="197" r="0.5"/>
		<rect x="47.4" y="193.2" fill="#FFFFFF" width="17.7" height="0.9"/>
		<rect x="47.4" y="195.3" fill="#FFFFFF" width="17.7" height="0.9"/>
		<rect x="47.4" y="197.2" fill="#FFFFFF" width="17.7" height="0.9"/>
		<circle fill="#EB6159" cx="39.9" cy="195.7" r="3.4"/>
		<circle fill="#3A383A" cx="39.9" cy="195.7" r="2.6"/>
		<circle fill="#14CAF4" cx="39.9" cy="137.3" r="1.2"/>
		<circle fill="#14CAF4" cx="39.9" cy="149" r="1.2"/>
		<circle fill="#14CAF4" cx="39.9" cy="160.6" r="1.2"/>
		<circle fill="#14CAF4" cx="39.9" cy="172.3" r="1.2"/>
		<circle fill="#14CAF4" cx="39.9" cy="184" r="1.2"/>
		<circle fill="#14CAF4" cx="39.9" cy="195.7" r="1.2"/>
	</g>
	<polygon opacity="0.2" fill="#FFFFFF" points="57.6,204.5 53.4,204.5 80,129.4 81.8,129.4 81.8,136 	"/>
	<rect x="33.8" y="130.4" opacity="0.1" fill="#FFFFFF" width="48" height="72.7"/>
	<polygon opacity="0.3" points="38.7,128.3 38.7,131 30.9,131 30.9,203.8 38.7,203.8 38.7,135 82.7,135 82.7,128.3 	"/>
	<polygon opacity="0.2" fill="#FFFFFF" points="49.7,204.5 31.1,204.5 57.7,129.4 76.4,129.4 	"/>
	<polygon fill="#D8D8D8" points="81.8,200.7 35.8,200.7 35.8,132.6 81.8,132.6 81.8,127.9 30.5,127.9 30.5,205.4 81.8,205.4 	"/>
	<polygon fill="#D8D8D8" points="81.5,132.6 81.5,200.7 35.5,200.7 30.8,205.4 86.9,205.4 86.9,127.9 35.5,127.9 	"/>
	<polygon opacity="0.1" points="81.5,132.6 81.5,200.7 35.5,200.7 30.8,205.4 86.9,205.4 86.9,127.9 	"/>
</g>
<g>
	<g>
		<g>
			<g>
				<g>
					<path fill="#C6C5C5" d="M40.7,45.9l-23.5,1.8l-3.5-35.4l1.9-0.1c1-0.1,1.8-1,1.7-2.1l-0.2-1.8c-0.1-1.1,0.7-2,1.8-2.1l13-1
						c1.1-0.1,2.1,0.7,2.2,1.8l0.2,1.8l0.2,2l6.6-0.5l24.6,0.4L68,40.2l-4.5,3.9L40.7,45.9z"/>
				</g>
			</g>
		</g>
		<g>
			<g>
				<g>
					<polygon fill="#066BC6" points="49.7,0 20.5,15.2 17.3,47.7 46.5,45.4 62.9,44.1 73.4,43.3 76.5,10.8 					"/>
				</g>
			</g>
		</g>
	</g>
	<g>
		<g>
			<path fill="#FFFFFF" d="M36.1,34.5l-3.3-5.4H30v5.4h-3.3V19.2h7.2c3.2,0,5.1,2.1,5.1,4.9c0,2.7-1.4,4.2-3,4.5l3.8,5.8H36.1z
				 M35.7,24.1c0-1.3-1-2.1-2.3-2.1H30v4.1h3.4C34.7,26.2,35.7,25.4,35.7,24.1z"/>
		</g>
		<g>
			<path fill="#FFFFFF" d="M41.8,34.5V19.2h10.8v2.9h-7.6v3.2h6.8v2.9h-6.8v3.5h7.6v2.9H41.8z"/>
		</g>
		<g>
			<path fill="#FFFFFF" d="M54.5,26.9c0-4.8,3.7-7.9,8.1-7.9c3.2,0,5.2,1.6,6.3,3.4l-2.7,1.5c-0.7-1.1-2-2-3.6-2
				c-2.8,0-4.8,2.1-4.8,5c0,2.9,2,5,4.8,5c1.4,0,2.6-0.6,3.3-1.2v-1.6h-4v-2.9h7.3v5.7c-1.6,1.7-3.7,2.9-6.5,2.9
				C58.2,34.8,54.5,31.7,54.5,26.9z"/>
		</g>
	</g>
	<g>
		<g>
			<path d="M77.1,32.9c0-1,0.9-1.9,1.9-1.9c1,0,1.9,0.8,1.9,1.9c0,1-0.8,1.9-1.9,1.9C77.9,34.8,77.1,33.9,77.1,32.9z"/>
		</g>
		<g>
			<path d="M92.7,34.5l-3.7-5.4h-2.4v5.4h-3.3V19.2h7.2c3.2,0,5.1,2.1,5.1,4.9c0,2.7-1.7,4.2-3.4,4.5l4.1,5.8H92.7z M92.4,24.1
				c0-1.3-1-2.1-2.3-2.1h-3.4v4.1h3.4C91.4,26.2,92.4,25.4,92.4,24.1z"/>
		</g>
		<g>
			<path d="M98.2,28.4v-9.2h3.3v9.1c0,2.1,0.9,3.6,3.3,3.6c2.4,0,3.3-1.5,3.3-3.6v-9.1h3.3v9.2c0,3.8-1.9,6.4-6.6,6.4
				C100.1,34.8,98.2,32.2,98.2,28.4z"/>
		</g>
	</g>
</g>
<g>
	<circle fill="#76D9FC" cx="44.1" cy="180" r="27.2"/>
	<path fill-rule="evenodd" clip-rule="evenodd" fill="#00A936" d="M26.5,185.4c-0.1-0.1-0.4-0.1-0.5-0.1c-0.2,0-0.3,0-0.4,0
		c-0.4,0.1-0.4,0.5,0.6,1.1c0.3,0.4,0.8,0.7,1.2,0.5C27.7,186.1,27.1,185.6,26.5,185.4C26.5,185.4,26.5,185.4,26.5,185.4z"/>
	<path fill-rule="evenodd" clip-rule="evenodd" fill="#00A936" d="M30.7,177.7c0,0,0.1,0.1,0.1,0.1h0.1c0.3,0.1,0.5-0.2,0.3-0.2
		C31.1,177.5,31,177.6,30.7,177.7z"/>
	<path fill-rule="evenodd" clip-rule="evenodd" fill="#00A936" d="M37,175.3c-0.4,0.1-0.5,0.4,0.4,1c0.1,0,0.9-0.2,0.4,0.3
		C39.3,175.7,37.7,175.1,37,175.3z"/>
	<path fill-rule="evenodd" clip-rule="evenodd" fill="#00A936" d="M37,169.1c1.5-0.6,1.9-4.7,0.1-4.6c-0.1,0-0.2,0.1-0.4,0.1
		C37.5,166.1,35.7,167.9,37,169.1z"/>
	<path fill-rule="evenodd" clip-rule="evenodd" fill="#00A936" d="M54.8,172.5c0.1-0.9-1.2-1.5-1.8-1.4c-0.4,0-0.4,0.3,0.2,0.9
		C52.6,173.4,54.2,173.5,54.8,172.5z"/>
	<path fill-rule="evenodd" clip-rule="evenodd" fill="#00A936" d="M40.9,161.9c0.4-0.2,0.7-0.9,0-0.9c-0.1,0-0.2-0.1-0.3-0.1
		c-0.1,0-0.2,0-0.3,0.1C39,161.2,39.4,163.4,40.9,161.9z"/>
	<path fill-rule="evenodd" clip-rule="evenodd" fill="#00A936" d="M42.8,161.4c-1.9,0.2-3.8,2.1-2,3.9c1.3,1.6-1.8,4.8,1.1,5.6
		c1.2-2.6,4.3-4.6,3.5-7.8C45,161.7,43.9,161.2,42.8,161.4z"/>
	<path fill="#00A936" d="M39.5,198.8c-2.8-1.9-4.8-4.7-8-6.1c-2.6-2.5-8.3-0.9-8.2-5.6c0.3-2.2-1.5-3.3-2.9-4.4
		c-1-3.5,5.3-4.7,5.4-0.9c2.1-0.1,2.8-3.7,5.2-4.3c1.2-1.1,4.6,0.1,3.4-2.1c1.2-1.1,4.7-1.1,3-3.8c-0.6-2.6-3.8-3.8-4.8-0.9
		c-2.9,0.8-1.7-5.5,1.2-4.6c2.1,0.1,1.8-1.7,0.5-2.3c0-0.1,0-0.1-0.1-0.1c-0.2-0.1-0.5-0.2-0.8-0.2c-2.9-1.6,2.9-5.6-0.9-6.9
		c-4.2,3.6-10.6,9.2-13.1,14.4c-1.2,3.3-1,6.6-0.8,10.1c1.2,3.4,3.4,6.1,5.3,9.1c1.2,1.5,0.6,3.1,0.5,4.7c0,0,0,0,0,0.1
		c-0.1,1,0.1,1.9,0.9,2.7c1.4,1.8,3.5,3.3,4.5,5.4c2.3,1.4,4.8,2.5,7.4,3.2c0.3-0.1,0.9-0.3,3-0.5v-0.1c0-0.6,2.9-1.5,4.3-2.6
		C46.8,200.3,41.9,198,39.5,198.8z"/>
	<path fill="#00A936" d="M64.9,197.6c4-4.7,6.5-10.9,6.5-17.6c0-0.7-0.1-1.5-0.1-2.2c0-0.2,0-0.4-0.1-0.6c-1.6,0.8-4.3-3.8-1.5-1.6
		c0.6,0,0.9-0.2,1.2-0.4c-0.3-1.7-0.8-3.4-1.4-4.9c-0.3-0.3-0.5-0.6-0.8-0.8c0-0.3,0-0.7-0.1-1c0,0,0,0,0-0.1
		c-4.4-9.1-13.8-15.4-24.6-15.4c-0.7,0-1.5,0-2.2,0.1c-0.4,0.1-0.8,0.1-1.2,0.2c-0.1,0-0.3,0-0.4,0.1c-1.5,0.2-3,0.5-4.4,0.9
		c3.7-0.3,7.6-0.2,10.9,1.5c0.9,2.9,6.2,0.1,6,3.3c0,0,0.1,0.1,0.2,0.2c-0.1,0.1,0.1,0.6,0.2,0.2c0.9,1,2.9,3.2,0.8,2.9
		c-2.7-0.4-2,5-0.1,5.9c1.9,1,2.9-1,1-2c-0.3-2.5,4.2,1.5,2.2,2.9c-0.1,0.1-0.1,0.1-0.2,0.2c0.1-0.4-0.1,0-0.1,0.1
		c-2.2,1.6-1,5.4-1.8,7.9c-1.5,3.4,3.8,1.9,3-0.8c-1-2.5,4.1-1.3,3-3.1c3.1,1.6,2.8-2.7,1.5-4.2c0.6-2.3,2.2,0.3,1.4,1.5
		c0.1,1.2,1.2,1.5,2,1.8c0,0,0.1,0,0.2,0.1c0.7,0.3,1.2,0.8,0.4,2.2c-0.9,3-4,3.2-6.5,2.6c-2.5,1-3,4.1-4.4,6.2
		c-1.4,2.6-2.6,6.4-0.1,8.7c2.4,2.3,5.2,0.3,7.2-1.3c3.9-0.5,4.2,4.1,2.3,6.4C65,197.5,64.9,197.5,64.9,197.6z"/>
	<g opacity="0.2">
		<path fill="#010000" d="M18.2,171.7C18.2,171.7,18.2,171.7,18.2,171.7c0.2,0,0.5,0,0.5,0H18.2z"/>
		<path fill="#010000" d="M67,194.6L67,194.6C67,194.6,67,194.6,67,194.6C67,194.6,67,194.6,67,194.6z"/>
	</g>
</g>
<g>
	<path opacity="0.3" d="M57.8,171.3H47.1v-3.6c0-0.3-0.2-0.5-0.5-0.5h-5.1c-0.3,0-0.5,0.2-0.5,0.5v3.6H30c-1.5,0-2.7,1.2-2.7,2.7
		v15.6c0,1.5,1.2,2.7,2.7,2.7h27.9c1.5,0,2.7-1.2,2.7-2.7V174C60.6,172.5,59.3,171.3,57.8,171.3z M47.7,173.4c0.6,0,1.2,0.5,1.2,1.2
		c0,0.6-0.5,1.2-1.2,1.2h-0.6v-2.3l0.5,0H47.7z M40.1,173.4H41v2.3h-0.9c-0.6,0-1.2-0.5-1.2-1.2C38.9,174,39.4,173.4,40.1,173.4z"/>
	<g>
		<path fill="#FF5148" d="M57.8,170H30c-1.5,0-2.7,1.2-2.7,2.7v15.6c0,1.5,1.2,2.7,2.7,2.7h27.9c1.5,0,2.7-1.2,2.7-2.7v-15.6
			C60.6,171.2,59.3,170,57.8,170z M47.7,174.5h-7.6c-0.6,0-1.2-0.5-1.2-1.2c0-0.6,0.5-1.2,1.2-1.2h7.6c0.6,0,1.2,0.5,1.2,1.2
			C48.9,173.9,48.4,174.5,47.7,174.5z"/>
		<path fill="#EFEFEF" d="M58.5,186.4c0,1.5-1.2,2.7-2.7,2.7H32c-1.5,0-2.7-1.2-2.7-2.7v-7c0-1.5,1.2-2.7,2.7-2.7h23.7
			c1.5,0,2.7,1.2,2.7,2.7V186.4z"/>
		<g>
			<g>
				<path fill="#29353F" d="M38.2,179.8c-0.3-0.1-0.7,0.1-0.8,0.4l-1,3.4l-1-3.4c-0.1-0.3-0.3-0.4-0.6-0.4c-0.3,0-0.5,0.2-0.6,0.4
					l-1,3.4l-1-3.4c-0.1-0.3-0.4-0.5-0.8-0.4c-0.3,0.1-0.5,0.4-0.4,0.7l1.5,5.3c0.1,0.3,0.3,0.4,0.6,0.4c0.3,0,0.5-0.2,0.6-0.4
					l1-3.4l1,3.4c0.1,0.3,0.3,0.4,0.6,0.4c0.3,0,0.5-0.2,0.6-0.4l1.5-5.3C38.7,180.2,38.5,179.9,38.2,179.8z"/>
			</g>
			<g>
				<path fill="#29353F" d="M47.3,179.8c-0.3-0.1-0.7,0.1-0.8,0.4l-1,3.4l-1-3.4c-0.1-0.3-0.3-0.4-0.6-0.4c-0.3,0-0.5,0.2-0.6,0.4
					l-1,3.4l-1-3.4c-0.1-0.3-0.4-0.5-0.8-0.4c-0.3,0.1-0.5,0.4-0.4,0.7l1.5,5.3c0.1,0.3,0.3,0.4,0.6,0.4c0.3,0,0.5-0.2,0.6-0.4
					l1-3.4l1,3.4c0.1,0.3,0.3,0.4,0.6,0.4c0.3,0,0.5-0.2,0.6-0.4l1.5-5.3C47.8,180.2,47.6,179.9,47.3,179.8z"/>
			</g>
			<g>
				<path fill="#29353F" d="M56.2,179.8c-0.3-0.1-0.7,0.1-0.8,0.4l-1,3.4l-1-3.4c-0.1-0.3-0.3-0.4-0.6-0.4c-0.3,0-0.5,0.2-0.6,0.4
					l-1,3.4l-1-3.4c-0.1-0.3-0.4-0.5-0.8-0.4c-0.3,0.1-0.5,0.4-0.4,0.7l1.5,5.3c0.1,0.3,0.3,0.4,0.6,0.4c0.3,0,0.5-0.2,0.6-0.4
					l1-3.4l1,3.4c0.1,0.3,0.3,0.4,0.6,0.4c0.3,0,0.5-0.2,0.6-0.4l1.5-5.3C56.8,180.2,56.6,179.9,56.2,179.8z"/>
			</g>
		</g>
		<polygon opacity="0.4" points="46.6,172.1 47.5,172.1 48.1,170 46.3,170 		"/>
		<path fill="#29353F" d="M47.1,174.5v-8.1c0-0.3-0.2-0.5-0.5-0.5h-5.1c-0.3,0-0.5,0.2-0.5,0.5v8.1H47.1z"/>
		<path opacity="0.1" fill="#FFFFFF" d="M46.8,166.5c0,0.1-0.1,0.3-0.3,0.3h-5c-0.1,0-0.3-0.1-0.3-0.3l0,0c0-0.1,0.1-0.3,0.3-0.3h5
			C46.6,166.2,46.8,166.3,46.8,166.5L46.8,166.5z"/>
		<path opacity="0.1" d="M57.8,170L30,191.1h27.9c1.5,0,2.7-1.2,2.7-2.7v-15.6C60.6,171.2,59.3,170,57.8,170z"/>
	</g>
</g>
<g>
	<path d="M31.3,239.9h-4.8v-11.8l-3.5,6.7h-2l-3.5-6.7v11.8H13v-19.3H18l4.2,8l4.2-8h4.9V239.9z"/>
	<path d="M51.1,239.9h-4l-7.3-12.1v12.1h-4.4v-19.3h5.1l6.1,10.7v-10.7h4.4V239.9z"/>
	<path d="M71.3,239.9H55.2v-19.3H70v3.6H59.9v3.9h9.4v3.6h-9.4v4.6h11.4V239.9z"/>
	<path fill="#727272" d="M102.1,240.1c-1,0-2.6-0.1-3.5-0.4c-0.9-0.3-1.7-0.7-2.3-1.3c-0.7-0.6-1.2-1.3-1.5-2.1
		c-0.4-0.8-0.5-1.8-0.5-2.9v-12.6H99v11.9c0,0.9,0.4,3.2,3.1,3.2c2.7,0,3.1-2.3,3.1-3.2v-11.9h4.8v12.6c0,1.1-0.2,2-0.6,2.9
		c-0.4,0.8-0.9,1.5-1.5,2.1c-0.6,0.6-1.4,1-2.3,1.3C104.7,240,103.1,240.1,102.1,240.1z"/>
	<path fill="#727272" d="M87.7,232.4c0.6-0.2,1.1-0.5,1.5-0.8c0.4-0.3,0.8-0.7,1.2-1.1c0.3-0.4,0.6-0.9,0.7-1.4
		c0.2-0.5,0.2-1.2,0.3-2.4c0-1.2-0.2-2.3-0.5-3c-0.3-0.7-0.8-1.3-1.5-1.7c-0.6-0.5-1.4-0.8-2.4-1c-0.9-0.2-2-0.4-3.2-0.4h-0.6h-7.7
		H75V240h0.6h3.7h0.6v-6.6h3.5L87,240h0.6h4h0.6v-0.2L87.7,232.4z M79.7,229.9V224H84c3.7,0,3.7,5.8,0,5.9H79.7z"/>
</g>
</svg>
