<svg xmlns="http://www.w3.org/2000/svg" width="120" height="230" viewBox="0 0 120 230">
  <title>Монтажная область 1 копия</title>
  <ellipse cx="58.268" cy="204.907" rx="43.319" ry="5.537" opacity="0.1"/>
  <polygon points="26.479 111.872 0 111.872 60.48 51.393 120 110.913 90.498 110.913 90.498 205.539 25.935 205.539 26.479 111.872" fill="#0068ba"/>
  <polygon points="60.48 205.539 90.498 205.539 90.498 110.913 120 110.913 60.48 51.393 60.48 205.539" opacity="0.1"/>
  <g>
    <g>
      <rect x="33.832" y="141.236" width="48" height="53.069" fill="#3a383a"/>
      <path d="M32.573,140.38a2.284,2.284,0,0,0,2.284,2.284H81.833V131.927H34.857a2.284,2.284,0,0,0-2.284,2.284Z" fill="#5e5e5e"/>
      <circle cx="68.504" cy="135.942" r="0.496" fill="#fff"/>
      <circle cx="70.308" cy="135.942" r="0.496" fill="#fff"/>
      <circle cx="72.111" cy="135.942" r="0.496" fill="#fff"/>
      <circle cx="73.914" cy="135.942" r="0.496" fill="#fff"/>
      <circle cx="75.718" cy="135.942" r="0.496" fill="#fff"/>
      <circle cx="77.521" cy="135.942" r="0.496" fill="#fff"/>
      <circle cx="79.325" cy="135.942" r="0.496" fill="#fff"/>
      <circle cx="81.129" cy="135.942" r="0.496" fill="#fff"/>
      <circle cx="69.496" cy="137.296" r="0.496" fill="#fff"/>
      <circle cx="71.299" cy="137.296" r="0.496" fill="#fff"/>
      <circle cx="73.103" cy="137.296" r="0.496" fill="#fff"/>
      <circle cx="74.906" cy="137.296" r="0.496" fill="#fff"/>
      <circle cx="76.71" cy="137.296" r="0.496" fill="#fff"/>
      <circle cx="78.514" cy="137.296" r="0.496" fill="#fff"/>
      <circle cx="80.317" cy="137.296" r="0.496" fill="#fff"/>
      <circle cx="69.496" cy="140" r="0.496" fill="#fff"/>
      <circle cx="71.299" cy="140" r="0.497" fill="#fff"/>
      <circle cx="73.103" cy="140" r="0.496" fill="#fff"/>
      <circle cx="74.906" cy="140" r="0.496" fill="#fff"/>
      <circle cx="76.71" cy="140" r="0.496" fill="#fff"/>
      <circle cx="78.514" cy="140" r="0.496" fill="#fff"/>
      <circle cx="80.317" cy="140" r="0.496" fill="#fff"/>
      <circle cx="68.504" cy="138.648" r="0.496" fill="#fff"/>
      <circle cx="70.308" cy="138.648" r="0.496" fill="#fff"/>
      <circle cx="72.111" cy="138.648" r="0.496" fill="#fff"/>
      <circle cx="73.914" cy="138.648" r="0.496" fill="#fff"/>
      <circle cx="75.718" cy="138.648" r="0.496" fill="#fff"/>
      <circle cx="77.521" cy="138.648" r="0.496" fill="#fff"/>
      <circle cx="79.325" cy="138.648" r="0.497" fill="#fff"/>
      <circle cx="81.129" cy="138.648" r="0.496" fill="#fff"/>
      <rect x="47.422" y="136.894" width="17.705" height="0.855" fill="#fff"/>
      <rect x="47.422" y="138.882" width="17.705" height="0.856" fill="#fff"/>
      <circle cx="39.94" cy="137.296" r="3.427" fill="#eb6159"/>
      <circle cx="39.94" cy="137.295" r="2.57" fill="#3a383a"/>
      <path d="M32.573,152.066a2.284,2.284,0,0,0,2.284,2.284H81.833V143.613H34.857a2.284,2.284,0,0,0-2.284,2.284Z" fill="#5e5e5e"/>
      <circle cx="69.496" cy="146.276" r="0.496" fill="#fff"/>
      <circle cx="71.299" cy="146.276" r="0.496" fill="#fff"/>
      <circle cx="73.103" cy="146.276" r="0.496" fill="#fff"/>
      <circle cx="74.906" cy="146.276" r="0.496" fill="#fff"/>
      <circle cx="76.71" cy="146.276" r="0.496" fill="#fff"/>
      <circle cx="78.514" cy="146.276" r="0.496" fill="#fff"/>
      <circle cx="80.317" cy="146.276" r="0.496" fill="#fff"/>
      <circle cx="68.504" cy="147.628" r="0.496" fill="#fff"/>
      <circle cx="70.308" cy="147.628" r="0.496" fill="#fff"/>
      <circle cx="72.111" cy="147.628" r="0.496" fill="#fff"/>
      <circle cx="73.914" cy="147.628" r="0.496" fill="#fff"/>
      <circle cx="75.718" cy="147.628" r="0.496" fill="#fff"/>
      <circle cx="77.521" cy="147.628" r="0.496" fill="#fff"/>
      <circle cx="79.325" cy="147.628" r="0.496" fill="#fff"/>
      <circle cx="81.129" cy="147.628" r="0.496" fill="#fff"/>
      <circle cx="69.496" cy="148.982" r="0.496" fill="#fff"/>
      <circle cx="71.299" cy="148.982" r="0.496" fill="#fff"/>
      <circle cx="73.103" cy="148.982" r="0.496" fill="#fff"/>
      <circle cx="74.906" cy="148.982" r="0.496" fill="#fff"/>
      <circle cx="76.71" cy="148.982" r="0.496" fill="#fff"/>
      <circle cx="78.514" cy="148.982" r="0.496" fill="#fff"/>
      <circle cx="80.317" cy="148.982" r="0.496" fill="#fff"/>
      <circle cx="69.496" cy="151.686" r="0.496" fill="#fff"/>
      <circle cx="71.299" cy="151.686" r="0.496" fill="#fff"/>
      <circle cx="73.103" cy="151.686" r="0.496" fill="#fff"/>
      <circle cx="74.906" cy="151.686" r="0.496" fill="#fff"/>
      <circle cx="76.71" cy="151.686" r="0.496" fill="#fff"/>
      <circle cx="78.514" cy="151.686" r="0.496" fill="#fff"/>
      <circle cx="80.317" cy="151.686" r="0.496" fill="#fff"/>
      <circle cx="68.504" cy="150.334" r="0.496" fill="#fff"/>
      <circle cx="70.308" cy="150.334" r="0.496" fill="#fff"/>
      <circle cx="72.111" cy="150.334" r="0.496" fill="#fff"/>
      <circle cx="73.914" cy="150.334" r="0.496" fill="#fff"/>
      <circle cx="75.718" cy="150.334" r="0.496" fill="#fff"/>
      <circle cx="77.521" cy="150.334" r="0.496" fill="#fff"/>
      <circle cx="79.325" cy="150.334" r="0.496" fill="#fff"/>
      <circle cx="81.129" cy="150.334" r="0.496" fill="#fff"/>
      <rect x="47.422" y="146.538" width="17.705" height="0.857" fill="#fff"/>
      <rect x="47.422" y="148.579" width="17.705" height="0.856" fill="#fff"/>
      <rect x="47.422" y="150.569" width="17.705" height="0.856" fill="#fff"/>
      <circle cx="39.94" cy="148.982" r="3.427" fill="#eb6159"/>
      <circle cx="39.94" cy="148.982" r="2.57" fill="#3a383a"/>
      <path d="M32.573,163.736a2.283,2.283,0,0,0,2.284,2.283H81.833V155.283H34.857a2.284,2.284,0,0,0-2.284,2.284Z" fill="#5e5e5e"/>
      <circle cx="69.496" cy="157.946" r="0.496" fill="#fff"/>
      <circle cx="71.299" cy="157.946" r="0.496" fill="#fff"/>
      <circle cx="73.103" cy="157.946" r="0.496" fill="#fff"/>
      <circle cx="74.906" cy="157.946" r="0.496" fill="#fff"/>
      <circle cx="76.71" cy="157.946" r="0.496" fill="#fff"/>
      <circle cx="78.514" cy="157.946" r="0.496" fill="#fff"/>
      <circle cx="80.317" cy="157.946" r="0.496" fill="#fff"/>
      <circle cx="68.504" cy="159.299" r="0.496" fill="#fff"/>
      <circle cx="70.308" cy="159.299" r="0.496" fill="#fff"/>
      <circle cx="72.111" cy="159.299" r="0.496" fill="#fff"/>
      <circle cx="73.914" cy="159.299" r="0.496" fill="#fff"/>
      <circle cx="75.718" cy="159.299" r="0.496" fill="#fff"/>
      <circle cx="77.521" cy="159.299" r="0.496" fill="#fff"/>
      <circle cx="79.325" cy="159.299" r="0.497" fill="#fff"/>
      <circle cx="81.129" cy="159.299" r="0.496" fill="#fff"/>
      <circle cx="69.496" cy="160.651" r="0.496" fill="#fff"/>
      <circle cx="71.299" cy="160.651" r="0.496" fill="#fff"/>
      <circle cx="73.103" cy="160.651" r="0.496" fill="#fff"/>
      <circle cx="74.906" cy="160.651" r="0.496" fill="#fff"/>
      <circle cx="76.71" cy="160.651" r="0.496" fill="#fff"/>
      <circle cx="78.514" cy="160.651" r="0.496" fill="#fff"/>
      <circle cx="80.317" cy="160.651" r="0.496" fill="#fff"/>
      <circle cx="69.496" cy="163.356" r="0.496" fill="#fff"/>
      <circle cx="71.299" cy="163.356" r="0.496" fill="#fff"/>
      <circle cx="73.103" cy="163.356" r="0.496" fill="#fff"/>
      <circle cx="74.906" cy="163.356" r="0.496" fill="#fff"/>
      <circle cx="76.71" cy="163.356" r="0.496" fill="#fff"/>
      <circle cx="78.514" cy="163.356" r="0.496" fill="#fff"/>
      <circle cx="80.317" cy="163.356" r="0.496" fill="#fff"/>
      <circle cx="68.504" cy="162.004" r="0.496" fill="#fff"/>
      <circle cx="70.308" cy="162.004" r="0.496" fill="#fff"/>
      <circle cx="72.111" cy="162.004" r="0.496" fill="#fff"/>
      <circle cx="73.914" cy="162.004" r="0.496" fill="#fff"/>
      <circle cx="75.718" cy="162.004" r="0.496" fill="#fff"/>
      <circle cx="77.521" cy="162.004" r="0.496" fill="#fff"/>
      <circle cx="79.325" cy="162.004" r="0.496" fill="#fff"/>
      <circle cx="81.129" cy="162.004" r="0.496" fill="#fff"/>
      <rect x="47.422" y="158.208" width="17.705" height="0.856" fill="#fff"/>
      <rect x="47.422" y="160.248" width="17.705" height="0.857" fill="#fff"/>
      <rect x="47.422" y="162.237" width="17.705" height="0.856" fill="#fff"/>
      <circle cx="39.94" cy="160.651" r="3.427" fill="#eb6159"/>
      <circle cx="39.94" cy="160.652" r="2.57" fill="#3a383a"/>
      <path d="M32.573,175.387a2.284,2.284,0,0,0,2.284,2.284H81.833V166.934H34.857a2.284,2.284,0,0,0-2.284,2.284Z" fill="#5e5e5e"/>
      <circle cx="69.496" cy="169.597" r="0.495" fill="#fff"/>
      <circle cx="71.299" cy="169.597" r="0.496" fill="#fff"/>
      <circle cx="73.103" cy="169.597" r="0.495" fill="#fff"/>
      <circle cx="74.906" cy="169.597" r="0.495" fill="#fff"/>
      <circle cx="76.71" cy="169.597" r="0.495" fill="#fff"/>
      <circle cx="78.514" cy="169.597" r="0.496" fill="#fff"/>
      <circle cx="80.317" cy="169.597" r="0.495" fill="#fff"/>
      <circle cx="68.504" cy="170.949" r="0.496" fill="#fff"/>
      <circle cx="70.308" cy="170.949" r="0.496" fill="#fff"/>
      <circle cx="72.111" cy="170.949" r="0.496" fill="#fff"/>
      <circle cx="73.914" cy="170.949" r="0.496" fill="#fff"/>
      <circle cx="75.718" cy="170.949" r="0.496" fill="#fff"/>
      <circle cx="77.521" cy="170.949" r="0.496" fill="#fff"/>
      <circle cx="79.325" cy="170.949" r="0.496" fill="#fff"/>
      <circle cx="81.129" cy="170.949" r="0.496" fill="#fff"/>
      <circle cx="69.496" cy="172.302" r="0.496" fill="#fff"/>
      <circle cx="71.299" cy="172.302" r="0.496" fill="#fff"/>
      <circle cx="73.103" cy="172.302" r="0.496" fill="#fff"/>
      <circle cx="74.906" cy="172.302" r="0.496" fill="#fff"/>
      <circle cx="76.71" cy="172.302" r="0.496" fill="#fff"/>
      <circle cx="78.514" cy="172.302" r="0.496" fill="#fff"/>
      <circle cx="80.317" cy="172.302" r="0.496" fill="#fff"/>
      <circle cx="69.496" cy="175.007" r="0.496" fill="#fff"/>
      <circle cx="71.299" cy="175.007" r="0.496" fill="#fff"/>
      <circle cx="73.103" cy="175.007" r="0.496" fill="#fff"/>
      <circle cx="74.906" cy="175.007" r="0.496" fill="#fff"/>
      <circle cx="76.71" cy="175.007" r="0.496" fill="#fff"/>
      <circle cx="78.514" cy="175.007" r="0.496" fill="#fff"/>
      <circle cx="80.317" cy="175.007" r="0.496" fill="#fff"/>
      <circle cx="68.504" cy="173.655" r="0.496" fill="#fff"/>
      <circle cx="70.308" cy="173.655" r="0.496" fill="#fff"/>
      <circle cx="72.111" cy="173.655" r="0.496" fill="#fff"/>
      <circle cx="73.914" cy="173.655" r="0.496" fill="#fff"/>
      <circle cx="75.718" cy="173.655" r="0.496" fill="#fff"/>
      <circle cx="77.521" cy="173.655" r="0.496" fill="#fff"/>
      <circle cx="79.325" cy="173.655" r="0.496" fill="#fff"/>
      <circle cx="81.129" cy="173.655" r="0.496" fill="#fff"/>
      <rect x="47.422" y="169.859" width="17.705" height="0.856" fill="#fff"/>
      <rect x="47.422" y="171.9" width="17.705" height="0.857" fill="#fff"/>
      <rect x="47.422" y="173.889" width="17.705" height="0.855" fill="#fff"/>
      <circle cx="39.94" cy="172.302" r="3.427" fill="#eb6159"/>
      <circle cx="39.94" cy="172.302" r="2.57" fill="#3a383a"/>
      <path d="M32.573,187.072a2.284,2.284,0,0,0,2.284,2.284H81.833V178.619H34.857a2.285,2.285,0,0,0-2.284,2.285Z" fill="#5e5e5e"/>
      <circle cx="69.496" cy="181.283" r="0.496" fill="#fff"/>
      <circle cx="71.299" cy="181.283" r="0.496" fill="#fff"/>
      <circle cx="73.103" cy="181.283" r="0.496" fill="#fff"/>
      <circle cx="74.906" cy="181.283" r="0.496" fill="#fff"/>
      <circle cx="76.71" cy="181.283" r="0.496" fill="#fff"/>
      <circle cx="78.514" cy="181.283" r="0.496" fill="#fff"/>
      <circle cx="80.317" cy="181.283" r="0.496" fill="#fff"/>
      <circle cx="68.504" cy="182.635" r="0.496" fill="#fff"/>
      <circle cx="70.308" cy="182.635" r="0.495" fill="#fff"/>
      <circle cx="72.111" cy="182.635" r="0.495" fill="#fff"/>
      <circle cx="73.914" cy="182.635" r="0.496" fill="#fff"/>
      <circle cx="75.718" cy="182.635" r="0.496" fill="#fff"/>
      <circle cx="77.521" cy="182.635" r="0.496" fill="#fff"/>
      <circle cx="79.325" cy="182.635" r="0.496" fill="#fff"/>
      <circle cx="81.129" cy="182.635" r="0.495" fill="#fff"/>
      <circle cx="69.496" cy="183.988" r="0.496" fill="#fff"/>
      <circle cx="71.299" cy="183.988" r="0.496" fill="#fff"/>
      <circle cx="73.103" cy="183.988" r="0.496" fill="#fff"/>
      <circle cx="74.906" cy="183.988" r="0.495" fill="#fff"/>
      <circle cx="76.71" cy="183.988" r="0.496" fill="#fff"/>
      <circle cx="78.514" cy="183.988" r="0.496" fill="#fff"/>
      <circle cx="80.317" cy="183.988" r="0.496" fill="#fff"/>
      <circle cx="69.496" cy="186.694" r="0.496" fill="#fff"/>
      <circle cx="71.299" cy="186.694" r="0.496" fill="#fff"/>
      <circle cx="73.103" cy="186.694" r="0.496" fill="#fff"/>
      <circle cx="74.906" cy="186.694" r="0.496" fill="#fff"/>
      <circle cx="76.71" cy="186.694" r="0.496" fill="#fff"/>
      <circle cx="78.514" cy="186.694" r="0.496" fill="#fff"/>
      <circle cx="80.317" cy="186.694" r="0.496" fill="#fff"/>
      <circle cx="68.504" cy="185.341" r="0.496" fill="#fff"/>
      <circle cx="70.308" cy="185.341" r="0.496" fill="#fff"/>
      <circle cx="72.111" cy="185.341" r="0.496" fill="#fff"/>
      <circle cx="73.914" cy="185.341" r="0.496" fill="#fff"/>
      <circle cx="75.718" cy="185.341" r="0.496" fill="#fff"/>
      <circle cx="77.521" cy="185.341" r="0.496" fill="#fff"/>
      <circle cx="79.325" cy="185.341" r="0.496" fill="#fff"/>
      <circle cx="81.129" cy="185.341" r="0.496" fill="#fff"/>
      <rect x="47.422" y="181.545" width="17.705" height="0.856" fill="#fff"/>
      <rect x="47.422" y="183.585" width="17.705" height="0.857" fill="#fff"/>
      <rect x="47.422" y="185.575" width="17.705" height="0.857" fill="#fff"/>
      <circle cx="39.94" cy="183.988" r="3.427" fill="#eb6159"/>
      <circle cx="39.94" cy="183.988" r="2.57" fill="#3a383a"/>
      <path d="M32.573,198.743a2.283,2.283,0,0,0,2.284,2.283H81.833V190.289H34.857a2.284,2.284,0,0,0-2.284,2.284Z" fill="#5e5e5e"/>
      <circle cx="69.496" cy="192.952" r="0.496" fill="#fff"/>
      <circle cx="71.299" cy="192.952" r="0.496" fill="#fff"/>
      <circle cx="73.103" cy="192.952" r="0.496" fill="#fff"/>
      <circle cx="74.906" cy="192.952" r="0.496" fill="#fff"/>
      <circle cx="76.71" cy="192.952" r="0.496" fill="#fff"/>
      <circle cx="78.514" cy="192.952" r="0.496" fill="#fff"/>
      <circle cx="80.317" cy="192.952" r="0.496" fill="#fff"/>
      <circle cx="68.504" cy="194.304" r="0.496" fill="#fff"/>
      <circle cx="70.308" cy="194.304" r="0.496" fill="#fff"/>
      <circle cx="72.111" cy="194.304" r="0.496" fill="#fff"/>
      <circle cx="73.914" cy="194.304" r="0.496" fill="#fff"/>
      <circle cx="75.718" cy="194.304" r="0.496" fill="#fff"/>
      <circle cx="77.521" cy="194.304" r="0.496" fill="#fff"/>
      <circle cx="79.325" cy="194.304" r="0.496" fill="#fff"/>
      <circle cx="81.129" cy="194.304" r="0.496" fill="#fff"/>
      <circle cx="69.496" cy="195.658" r="0.496" fill="#fff"/>
      <circle cx="71.299" cy="195.658" r="0.496" fill="#fff"/>
      <circle cx="73.103" cy="195.658" r="0.496" fill="#fff"/>
      <circle cx="74.906" cy="195.658" r="0.495" fill="#fff"/>
      <circle cx="76.71" cy="195.658" r="0.496" fill="#fff"/>
      <circle cx="78.514" cy="195.658" r="0.496" fill="#fff"/>
      <circle cx="80.317" cy="195.658" r="0.496" fill="#fff"/>
      <circle cx="69.496" cy="198.363" r="0.495" fill="#fff"/>
      <circle cx="71.299" cy="198.363" r="0.496" fill="#fff"/>
      <circle cx="73.103" cy="198.363" r="0.495" fill="#fff"/>
      <circle cx="74.906" cy="198.363" r="0.495" fill="#fff"/>
      <circle cx="76.71" cy="198.363" r="0.495" fill="#fff"/>
      <circle cx="78.514" cy="198.363" r="0.496" fill="#fff"/>
      <circle cx="80.317" cy="198.363" r="0.495" fill="#fff"/>
      <circle cx="68.504" cy="197.01" r="0.496" fill="#fff"/>
      <circle cx="70.308" cy="197.01" r="0.496" fill="#fff"/>
      <circle cx="72.111" cy="197.01" r="0.496" fill="#fff"/>
      <circle cx="73.914" cy="197.01" r="0.496" fill="#fff"/>
      <circle cx="75.718" cy="197.01" r="0.496" fill="#fff"/>
      <circle cx="77.521" cy="197.01" r="0.496" fill="#fff"/>
      <circle cx="79.325" cy="197.01" r="0.496" fill="#fff"/>
      <circle cx="81.129" cy="197.01" r="0.496" fill="#fff"/>
      <rect x="47.422" y="193.215" width="17.705" height="0.856" fill="#fff"/>
      <rect x="47.422" y="195.256" width="17.705" height="0.856" fill="#fff"/>
      <rect x="47.422" y="197.244" width="17.705" height="0.856" fill="#fff"/>
      <circle cx="39.94" cy="195.659" r="3.427" fill="#eb6159"/>
      <circle cx="39.94" cy="195.658" r="2.57" fill="#3a383a"/>
      <circle cx="39.941" cy="137.295" r="1.193" fill="#14caf4"/>
      <circle cx="39.941" cy="148.963" r="1.193" fill="#14caf4"/>
      <circle cx="39.941" cy="160.643" r="1.193" fill="#14caf4"/>
      <circle cx="39.941" cy="172.31" r="1.193" fill="#14caf4"/>
      <circle cx="39.941" cy="184.006" r="1.193" fill="#14caf4"/>
      <circle cx="39.941" cy="195.673" r="1.193" fill="#14caf4"/>
    </g>
    <polygon points="57.589 204.468 53.389 204.468 79.957 129.401 81.833 129.401 81.833 136.013 57.589 204.468" fill="#fff" opacity="0.2"/>
    <rect x="33.843" y="130.412" width="47.99" height="72.735" fill="#fff" opacity="0.1"/>
    <polygon points="38.738 128.298 38.738 130.985 30.94 130.985 30.94 203.8 38.738 203.8 38.738 134.986 82.665 134.986 82.665 128.298 38.738 128.298" opacity="0.3"/>
    <polygon points="49.71 204.468 31.068 204.468 57.742 129.401 76.383 129.401 49.71 204.468" fill="#fff" opacity="0.2"/>
    <polygon points="81.833 200.7 35.817 200.7 35.817 132.589 81.833 132.589 81.833 127.921 30.453 127.921 30.453 205.366 81.833 205.366 81.833 200.7" fill="#d8d8d8"/>
    <polygon points="81.523 132.589 81.523 200.7 35.507 200.7 30.842 205.366 86.886 205.366 86.886 127.921 35.507 127.921 81.523 132.589" fill="#d8d8d8"/>
    <polygon points="81.523 132.589 81.523 200.7 35.507 200.7 30.842 205.366 86.886 205.366 86.886 127.921 81.523 132.589" opacity="0.1"/>
  </g>
  <g>
    <path d="M33.275,212.777c-1.4,0-2.8.022-4.2-.022-2.022,5-3.933,10.021-5.933,15.02,1.289.022,2.6.022,3.888,0a16.174,16.174,0,0,1,1.178-2.933c2.155,0,4.311-.067,6.444.044.444.933.778,1.933,1.178,2.889,1.311.022,2.622,0,3.955,0Q36.553,220.276,33.275,212.777ZM29.1,222.2c.711-1.933,1.355-3.888,2.155-5.777.755,1.933,1.578,3.844,2.311,5.8C32.075,222.2,30.587,222.2,29.1,222.2Z" fill="#1f1a17"/>
    <path d="M39.275,216.665a8.242,8.242,0,0,1,6.31-3.977,13.488,13.488,0,0,1,7.466,1.155c-.022,1.089,0,2.155-.022,3.244a11.177,11.177,0,0,0-7.266-1.178,4.447,4.447,0,0,0-3.133,2.444,4.537,4.537,0,0,0,1.044,5.377,5.935,5.935,0,0,0,6.022.6c-.022-.578,0-1.155,0-1.733-.711-.022-1.422-.022-2.155-.022v-2.733h5.777c-.022,2.044.022,4.111-.022,6.155a7.3,7.3,0,0,1-4.644,1.844,11.411,11.411,0,0,1-4.644-.267,7.8,7.8,0,0,1-5.2-4.733,7.965,7.965,0,0,1,.467-6.177Z" fill="#1f1a17"/>
    <path d="M63.494,212.777c-1.4,0-2.8.022-4.2-.022-2.022,4.977-3.933,10.021-5.933,15,1.289.022,2.6.022,3.888,0a16.174,16.174,0,0,1,1.178-2.933c2.155,0,4.311-.067,6.444.044.444.933.778,1.933,1.178,2.889,1.311.022,2.622,0,3.955,0Q66.771,220.287,63.494,212.777ZM59.317,222.2c.711-1.933,1.355-3.888,2.155-5.777.778,1.933,1.578,3.844,2.333,5.777Z" fill="#1f1a17"/>
    <path d="M88.6,212.754c-1.4,0-2.8.022-4.2-.022-2.022,4.977-3.933,10.021-5.933,15,1.289.022,2.6.022,3.888,0a16.174,16.174,0,0,1,1.178-2.933c2.155,0,4.311-.067,6.444.044.444.933.778,1.933,1.178,2.889,1.311.022,2.622,0,3.955,0Q91.879,220.265,88.6,212.754Zm-4.2,9.421c.711-1.933,1.355-3.888,2.155-5.777.778,1.933,1.578,3.844,2.333,5.777Z" fill="#1f1a17"/>
    <path d="M80.736,212.488h1.133c-2.244,5.11-4.533,10.2-6.8,15.309a13.231,13.231,0,0,1-1.622.022,7.777,7.777,0,0,1-.911-1.622c-2.066-4.466-4.133-8.91-6.244-13.376a39.138,39.138,0,0,1,3.955.022c1.355,2.777,2.555,5.622,3.844,8.443.644-1.178,1.089-2.444,1.644-3.666.622-1.355,1.044-2.844,2.133-3.888a5.379,5.379,0,0,1,2.866-1.244Z" fill="#0e9544"/>
  </g>
  <g>
    <g>
      <path d="M40.685,45.876l-23.479,1.83L13.7,12.259l1.866-.146A1.883,1.883,0,0,0,17.237,10l-.181-1.825A1.93,1.93,0,0,1,18.83,6.058L31.783,5.051a2.03,2.03,0,0,1,2.163,1.81l.18,1.826.2,1.966,6.638-.517,24.55.376,2.45,29.657L63.491,44.1Z" fill="#c6c5c5"/>
      <polygon points="49.746 0 20.468 15.231 17.326 47.705 46.483 45.417 62.878 44.129 73.359 43.306 76.499 10.833 49.746 0" fill="#066bc6"/>
    </g>
    <g>
      <path d="M36.062,34.516l-3.338-5.44H30.008v5.44H26.749V19.206H33.91a4.767,4.767,0,0,1,5.141,4.935c0,2.708-1.368,4.154-3.02,4.545l3.772,5.83Zm-.338-10.375a2.079,2.079,0,0,0-2.3-2.065h-3.42v4.132h3.42A2.079,2.079,0,0,0,35.724,24.141Z" fill="#fff"/>
      <path d="M41.84,34.516V19.206H52.674v2.869H45.1v3.236h6.754V28.18H45.1v3.466h7.575v2.869Z" fill="#fff"/>
      <path d="M54.488,26.873c0-4.843,3.673-7.919,8.149-7.919a7.157,7.157,0,0,1,6.335,3.42l-2.709,1.469a4.333,4.333,0,0,0-3.626-2,4.768,4.768,0,0,0-4.8,5.027,4.768,4.768,0,0,0,4.8,5.027,5.16,5.16,0,0,0,3.26-1.172V29.093h-4.04V26.207h7.3v5.715a8.5,8.5,0,0,1-6.518,2.892A7.8,7.8,0,0,1,54.488,26.873Z" fill="#fff"/>
    </g>
    <g>
      <path d="M77.1,32.909a1.86,1.86,0,1,1,1.86,1.859A1.882,1.882,0,0,1,77.1,32.909Z"/>
      <path d="M92.724,34.516l-3.666-5.44H86.671v5.44H83.412V19.206h7.162a4.767,4.767,0,0,1,5.142,4.935,4.395,4.395,0,0,1-3.351,4.545l4.1,5.83Zm-.337-10.375a2.079,2.079,0,0,0-2.3-2.065H86.671v4.132h3.419A2.079,2.079,0,0,0,92.387,24.141Z"/>
      <path d="M98.173,28.41v-9.2h3.3V28.3c0,2.136.911,3.6,3.275,3.6S108,30.431,108,28.3V19.206h3.329v9.181c0,3.81-1.922,6.4-6.581,6.4S98.173,32.175,98.173,28.41Z"/>
    </g>
  </g>
  <g>
    <circle cx="44.062" cy="180.038" r="27.193" fill="#76d9fc"/>
    <path d="M26.51,185.354a2.113,2.113,0,0,0-.5-.122,1.314,1.314,0,0,0-.443,0c-.37.109-.4.5.609,1.1a1.128,1.128,0,0,0,1.22.506c.269-.763-.29-1.227-.891-1.434C26.51,185.354,26.515,185.368,26.51,185.354Z" fill="#00a936" fill-rule="evenodd"/>
    <path d="M30.714,177.652c.044.039.072.1.111.109h.057c.271.077.534-.2.328-.214A1.088,1.088,0,0,0,30.714,177.652Z" fill="#00a936" fill-rule="evenodd"/>
    <path d="M37.012,175.277c-.43.073-.534.361.391,1,.114-.031.91-.211.443.271C39.284,175.688,37.746,175.147,37.012,175.277Z" fill="#00a936" fill-rule="evenodd"/>
    <path d="M37.012,169.135c1.548-.629,1.9-4.706.062-4.586a1.228,1.228,0,0,0-.39.116C37.455,166.088,35.676,167.9,37.012,169.135Z" fill="#00a936" fill-rule="evenodd"/>
    <path d="M54.779,172.512c.123-.85-1.23-1.476-1.839-1.441-.355.025-.424.278.232.89C52.559,173.407,54.193,173.485,54.779,172.512Z" fill="#00a936" fill-rule="evenodd"/>
    <path d="M40.943,161.9c.446-.208.66-.949,0-.949a.992.992,0,0,0-.329-.056,3,3,0,0,0-.326.056C38.982,161.211,39.379,163.375,40.943,161.9Z" fill="#00a936" fill-rule="evenodd"/>
    <path d="M42.771,161.394c-1.889.239-3.795,2.063-2.038,3.869,1.258,1.57-1.816,4.775,1.1,5.6,1.158-2.59,4.326-4.643,3.543-7.8A2.2,2.2,0,0,0,42.771,161.394Z" fill="#00a936" fill-rule="evenodd"/>
    <path d="M39.512,198.788c-2.8-1.859-4.821-4.7-7.971-6.086-2.564-2.487-8.344-.941-8.238-5.646.267-2.235-1.526-3.314-2.873-4.364-1.036-3.458,5.273-4.73,5.364-.943,2.077-.109,2.8-3.73,5.2-4.254,1.235-1.072,4.577.081,3.368-2.109,1.195-1.136,4.7-1.1,2.985-3.753-.575-2.589-3.758-3.84-4.805-.892-2.882.773-1.719-5.478,1.212-4.645,2.125.123,1.837-1.725.549-2.319,0-.09-.028-.141-.109-.06a1.907,1.907,0,0,0-.773-.164c-2.875-1.588,2.876-5.637-.934-6.919-4.179,3.57-10.555,9.188-13.107,14.438-1.152,3.293-.959,6.606-.825,10.067,1.17,3.352,3.443,6.117,5.253,9.122,1.158,1.451.6,3.12.513,4.709-.031.01.014.049.014.056a3.275,3.275,0,0,0,.9,2.706c1.416,1.826,3.477,3.274,4.482,5.38a26.952,26.952,0,0,0,7.425,3.2,10.464,10.464,0,0,1,2.974-.5v-.056c0-.628,2.9-1.549,4.339-2.611C46.848,200.256,41.909,197.951,39.512,198.788Z" fill="#00a936"/>
    <path d="M64.929,197.625A27.069,27.069,0,0,0,71.4,180.038c0-.748-.051-1.486-.111-2.221-.02-.182-.034-.368-.055-.55-1.553.849-4.317-3.828-1.491-1.6a1.8,1.8,0,0,0,1.161-.435,27.531,27.531,0,0,0-1.389-4.93,6.9,6.9,0,0,0-.772-.825,5.51,5.51,0,0,0-.056-.994c-.014-.018.016-.043,0-.06A27.361,27.361,0,0,0,44.078,153c-.738,0-1.487.045-2.217.1a10.313,10.313,0,0,1-1.221.169c-.145.014-.291.032-.436.056a26.839,26.839,0,0,0-4.418.935c3.738-.274,7.577-.176,10.949,1.5.891,2.864,6.227.055,5.97,3.256.042.046.124.12.169.173-.085.062.061.646.168.158.922,1.044,2.863,3.209.826,2.938-2.7-.37-2,4.951-.053,5.917,1.853,1,2.9-1,.991-1.989-.257-2.5,4.158,1.532,2.21,2.867-.078.053-.141.116-.216.172.089-.357-.128-.02-.121.061-2.215,1.6-.952,5.386-1.813,7.906-1.534,3.4,3.837,1.9,3.036-.777-.982-2.467,4.084-1.342,2.989-3.1,3.074,1.63,2.783-2.747,1.5-4.209.6-2.34,2.178.273,1.431,1.548.122,1.206,1.162,1.484,2,1.828a.454.454,0,0,0,.164.052c.729.349,1.166.795.379,2.165-.9,3.044-3.963,3.211-6.465,2.649-2.531,1.048-3,4.122-4.428,6.192-1.416,2.586-2.592,6.395-.051,8.682,2.433,2.337,5.23.309,7.247-1.272,3.867-.5,4.222,4.051,2.319,6.37C64.961,197.456,64.945,197.537,64.929,197.625Z" fill="#00a936"/>
    <g opacity="0.2">
      <path d="M18.191,171.658l-.017.052a1.856,1.856,0,0,0,.474-.052Z" fill="#010000"/>
      <path d="M67.029,194.585H67a.4.4,0,0,1-.009.063A.653.653,0,0,0,67.029,194.585Z" fill="#010000"/>
    </g>
  </g>
  <g>
    <path d="M57.826,171.293H47.073v-3.6a.5.5,0,0,0-.495-.5H41.455a.5.5,0,0,0-.495.5v3.6h-11a2.746,2.746,0,0,0-2.746,2.746v15.625a2.746,2.746,0,0,0,2.746,2.746H57.826a2.743,2.743,0,0,0,2.743-2.746V174.04A2.743,2.743,0,0,0,57.826,171.293Zm-10.114,2.152a1.167,1.167,0,1,1,0,2.335h-.64v-2.326l.471-.008Zm-7.64,0h.888v2.335h-.888a1.167,1.167,0,1,1,0-2.335Z" opacity="0.3"/>
    <g>
      <path d="M57.826,169.968H29.961a2.746,2.746,0,0,0-2.746,2.746v15.624a2.745,2.745,0,0,0,2.746,2.747H57.826a2.742,2.742,0,0,0,2.743-2.747V172.714A2.743,2.743,0,0,0,57.826,169.968Zm-10.114,4.487h-7.64a1.168,1.168,0,1,1,0-2.336h7.64a1.168,1.168,0,1,1,0,2.336Z" fill="#ff5148"/>
      <path d="M32.034,176.693H55.749a2.746,2.746,0,0,1,2.746,2.746v7a2.746,2.746,0,0,1-2.746,2.746H32.032a2.744,2.744,0,0,1-2.744-2.744v-7.005A2.746,2.746,0,0,1,32.034,176.693Z" fill="#efefef"/>
      <g>
        <path d="M38.155,179.791a.628.628,0,0,0-.758.425l-.963,3.358-.962-3.358a.617.617,0,0,0-.619-.435.61.61,0,0,0-.619.435l-.967,3.358-.963-3.358a.625.625,0,0,0-.759-.425.586.586,0,0,0-.423.731l1.526,5.321a.609.609,0,0,0,.619.432.616.616,0,0,0,.622-.432l.963-3.36.963,3.36a.66.66,0,0,0,1.238,0l1.525-5.321A.585.585,0,0,0,38.155,179.791Z" fill="#29353f"/>
        <path d="M47.321,179.791a.626.626,0,0,0-.758.425l-.96,3.358-.965-3.358a.661.661,0,0,0-1.242,0l-.963,3.358-.962-3.358a.625.625,0,0,0-.758-.425.591.591,0,0,0-.427.731l1.529,5.321a.66.66,0,0,0,1.238,0l.965-3.36.964,3.36a.662.662,0,0,0,1.241,0l1.523-5.321A.584.584,0,0,0,47.321,179.791Z" fill="#29353f"/>
        <path d="M56.242,179.791a.625.625,0,0,0-.758.425l-.967,3.358-.962-3.358a.66.66,0,0,0-1.241,0l-.963,3.358-.963-3.358a.625.625,0,0,0-.759-.425.587.587,0,0,0-.423.731l1.526,5.321a.662.662,0,0,0,1.241,0l.959-3.36.967,3.36a.66.66,0,0,0,1.238,0l1.528-5.321A.586.586,0,0,0,56.242,179.791Z" fill="#29353f"/>
      </g>
      <polygon points="46.62 172.135 47.544 172.119 48.056 169.968 46.266 169.977 46.62 172.135" opacity="0.4"/>
      <path d="M47.073,174.456v-8.091a.5.5,0,0,0-.495-.5H41.455a.5.5,0,0,0-.495.5v8.091Z" fill="#29353f"/>
      <path d="M46.759,166.481a.255.255,0,0,1-.256.252H41.515a.252.252,0,0,1-.254-.252h0a.255.255,0,0,1,.254-.259H46.5a.258.258,0,0,1,.256.259Z" fill="#fff" opacity="0.1"/>
      <path d="M57.826,169.968,29.961,191.084H57.826a2.742,2.742,0,0,0,2.743-2.747V172.714A2.743,2.743,0,0,0,57.826,169.968Z" opacity="0.1"/>
    </g>
  </g>
</svg>
