<svg baseProfile="basic" xmlns="http://www.w3.org/2000/svg" width="142" height="50" viewBox="0 0 142 50"><path fill="#515151" d="M136.5 3H60.2L55 47h81.5c3.2 0 5.5-2.2 5.5-5.4V8.7c0-3.1-2.3-5.7-5.5-5.7z"/><path fill="#EB4444" d="M55.3 50l6-50H5.7C2.6 0 0 2.6 0 5.7v38.6C0 47.5 2.6 50 5.7 50"/><g fill="#FFF"><path d="M13.1 18.3l.4-.2 8.9-4.6c-.1-.6-.7-1-1.3-1l-8.1.6c-.7.1-1.2.7-1.1 1.3l.1 1.2c.1.7-.4 1.3-1.1 1.3l-1.2.1 1.8 18.1 1.6-16.3v-.5zM22.2 23.2H20v2.6h2.2c.8 0 1.4-.5 1.4-1.3s-.6-1.3-1.4-1.3z"/><path d="M32.5 9.2L14 18.8l-2 20.5 18.4-1.4 10.3-.8 6.6-.5 2-20.5-16.8-6.9zM23.8 31l-2.1-3.4H20V31h-2v-9.7h4.5c2 0 3.2 1.3 3.2 3.1 0 1.7-.9 2.6-1.9 2.9l2.4 3.7h-2.4zm10.5-7.8h-4.8v2h4.3V27h-4.3v2.2h4.8V31h-6.8v-9.7h6.8v1.9zm10.4 6.2c-1 1.1-2.4 1.8-4.1 1.8-2.8 0-5.1-2-5.1-5 0-3.1 2.3-5 5.1-5 2 0 3.3 1 4 2.2l-1.7.9c-.4-.7-1.3-1.3-2.3-1.3-1.8 0-3 1.3-3 3.2 0 1.8 1.3 3.2 3 3.2.9 0 1.7-.4 2.1-.7v-1h-2.5v-1.8h4.6v3.5z"/></g><g fill="#FFF"><path d="M72.8 30v-8.1h-4.7V30H66V20h9v10h-2.2zM83.9 30l-.6-1.7H79l-.7 1.7h-2.4l3.9-10h2.7l3.9 10h-2.5zm-2.8-7.9l-1.6 4.3h3.1l-1.5-4.3zM87.2 30V20h4.7c2.2 0 3.4 1.5 3.4 3.2 0 1.7-1.2 3.2-3.4 3.2h-2.5V30h-2.2zm5.9-6.8c0-.8-.6-1.4-1.5-1.4h-2.3v2.7h2.3c.8.1 1.5-.5 1.5-1.3zM98.9 30v-8.1H96V20h8v1.9h-3V30h-2.1zM112.2 30v-4.2h-4.7V30h-2.1V20h2.1v3.9h4.7V20h2.1v10h-2.1zM116.3 30V20h7.1v1.9h-4.9V24h4.8v1.9h-4.8v2.3h4.9V30h-7.1zm1.9-10.6c-.6 0-1-.5-1-1 0-.6.5-1 1-1 .6 0 1 .4 1 1 0 .5-.4 1-1 1zm3.2 0c-.6 0-1-.5-1-1 0-.6.5-1 1-1 .6 0 1 .4 1 1 0 .5-.5 1-1 1zM125 30V20h4.7c2.2 0 3.4 1.5 3.4 3.2 0 1.7-1.2 3.2-3.4 3.2h-2.5V30H125zm5.9-6.8c0-.8-.6-1.4-1.5-1.4h-2.3v2.7h2.3c.8.1 1.5-.5 1.5-1.3z"/></g><path opacity=".1" d="M4.7.1L54.6 50h.6l6-50H5.7c-.3 0-.6 0-1 .1zM55.6 47H61V3z"/></svg>