<svg baseProfile="basic" xmlns="http://www.w3.org/2000/svg" width="200" height="70" viewBox="0 0 200 70"><path fill="#515151" d="M192 4H85.2l-7.3 62H192c4.4 0 8-3.5 8-7.9V12c0-4.4-3.6-8-8-8z"/><path fill="#FFCC03" d="M77.4 70l8.4-70H8C3.6 0 0 3.6 0 8v54.1C0 66.5 3.6 70 8 70"/><g fill="#FFF"><path d="M18.4 25.7l.6-.3 12.4-6.5c-.2-.8-1-1.5-1.9-1.4l-11.4.9c-1 .1-1.7.9-1.6 1.9l.2 1.6c.1 1-.6 1.8-1.5 1.9l-1.6.1 2.5 25.3 2.2-22.8.1-.7zM31.1 32.4h-3V36h3c1.2 0 2-.7 2-1.8s-.9-1.8-2-1.8z"/><path d="M45.5 12.9L19.6 26.4l-2.8 28.7 25.8-2L57.1 52l9.3-.7 2.8-28.7-23.7-9.7zM33.4 43.4l-2.9-4.8H28v4.8h-2.9V29.9h6.3c2.8 0 4.5 1.8 4.5 4.4 0 2.4-1.2 3.7-2.7 4l3.3 5.1h-3.1zm14.7-11h-6.7v2.9h6v2.5h-6v3.1h6.7v2.5h-9.6V29.9h9.6v2.5zm14.5 8.7c-1.4 1.5-3.3 2.6-5.8 2.6-4 0-7.2-2.8-7.2-7 0-4.3 3.2-7 7.2-7 2.8 0 4.6 1.4 5.6 3L60.1 34c-.6-1-1.8-1.8-3.2-1.8-2.5 0-4.2 1.9-4.2 4.4 0 2.6 1.8 4.4 4.2 4.4 1.2 0 2.3-.5 2.9-1v-1.4h-3.6v-2.5h6.4v5z"/></g><g fill="#FFF"><path d="M102 42V30.6h-6.6V42h-3V28H105v14h-3zM117.4 42l-.9-2.4h-6l-.9 2.4h-3.4l5.4-14h3.7l5.4 14h-3.3zm-3.9-11l-2.2 6h4.4l-2.2-6zM122.1 42V28h6.6c3 0 4.7 2.1 4.7 4.5s-1.7 4.5-4.7 4.5h-3.6v5h-3zm8.2-9.5c0-1.2-.9-1.9-2.1-1.9H125v3.8h3.2c1.2 0 2.1-.7 2.1-1.9zM138.4 42V30.6h-4.1V28h11.2v2.6h-4.1V42h-3zM157 42v-5.9h-6.6V42h-3V28h3v5.5h6.6V28h3v14h-3zM162.8 42V28h9.9v2.6h-6.9v3h6.8v2.6h-6.8v3.2h6.9V42h-9.9zm2.7-14.9c-.8 0-1.4-.6-1.4-1.4 0-.8.6-1.4 1.4-1.4.8 0 1.4.6 1.4 1.4 0 .8-.6 1.4-1.4 1.4zm4.4 0c-.8 0-1.4-.6-1.4-1.4 0-.8.7-1.4 1.4-1.4s1.4.6 1.4 1.4c.1.8-.6 1.4-1.4 1.4zM175 42V28h6.6c3 0 4.7 2.1 4.7 4.5s-1.7 4.5-4.7 4.5H178v5h-3zm8.2-9.5c0-1.2-.9-1.9-2.1-1.9H178v3.8h3.2c1.1 0 2-.7 2-1.9z"/></g><path opacity=".1" d="M6.6.1L76.5 70h.9l8.4-70H8c-.5 0-.9 0-1.4.1z"/><path opacity=".1" d="M77.9 66H85V4z"/></svg>