<svg baseProfile="basic" xmlns="http://www.w3.org/2000/svg" width="100" height="35" viewBox="0 0 100 35"><path fill="#FFF" d="M96.6 2H42.1l-3.6 31h58.1c2.2 0 3.4-1.6 3.4-3.9v-23c0-2.2-1.2-4.1-3.4-4.1z"/><path fill="#0068BA" d="M38.7 35l4.2-35H4C1.8 0 0 1.8 0 4v27c0 2.2 1.8 4 4 4"/><g fill="#FFF"><path d="M9.2 12.8l.3-.2 6.2-3.2c-.1-.4-.5-.7-.9-.7l-5.7.5c-.5 0-.8.5-.8.9l.1.8c0 .5-.3.9-.7.9l-.8.1 1.3 12.6 1.1-11.4-.1-.3zM15.5 16.2H14V18h1.5c.6 0 1-.3 1-.9 0-.5-.4-.9-1-.9z"/><path d="M22.7 6.5L9.8 13.2 8.4 27.5l12.9-1 7.2-.6 4.6-.4 1.4-14.3-11.8-4.7zm-6 15.2l-1.5-2.4H14v2.4h-1.4v-6.8h3.2c1.4 0 2.3.9 2.3 2.2 0 1.2-.6 1.8-1.3 2l1.7 2.6h-1.8zm7.3-5.5h-3.3v1.4h3v1.3h-3v1.5H24v1.3h-4.8v-6.8H24v1.3zm7.3 4.4c-.7.8-1.7 1.3-2.9 1.3-2 0-3.6-1.4-3.6-3.5s1.6-3.5 3.6-3.5c1.4 0 2.3.7 2.8 1.5L30 17c-.3-.5-.9-.9-1.6-.9-1.2 0-2.1.9-2.1 2.2 0 1.3.9 2.2 2.1 2.2.6 0 1.2-.3 1.4-.5v-.7H28V18h3.2v2.6z"/></g><g fill="#333"><path d="M51 21v-5.7h-3.3V21h-1.5v-7h6.3v7H51zM58.7 21l-.4-1.2h-3l-.5 1.2h-1.7l2.7-7h1.9l2.7 7h-1.7zm-1.9-5.5l-1.1 3h2.2l-1.1-3zM61 21v-7h3.3c1.5 0 2.4 1 2.4 2.3 0 1.2-.8 2.3-2.4 2.3h-1.8V21H61zm4.2-4.7c0-.6-.4-.9-1-.9h-1.6v1.9h1.6c.5-.1 1-.5 1-1zM69.2 21v-5.7h-2V14h5.6v1.3h-2V21h-1.6zM78.5 21v-2.9h-3.3V21h-1.5v-7h1.5v2.8h3.3V14H80v7h-1.5zM81.4 21v-7h5v1.3h-3.5v1.5h3.4v1.3h-3.4v1.6h3.5V21h-5zm1.4-7.5c-.4 0-.7-.3-.7-.7 0-.4.3-.7.7-.7.4 0 .7.3.7.7 0 .4-.4.7-.7.7zm2.2 0c-.4 0-.7-.3-.7-.7 0-.4.3-.7.7-.7.4 0 .7.3.7.7 0 .4-.3.7-.7.7zM87.5 21v-7h3.3c1.5 0 2.4 1 2.4 2.3 0 1.2-.8 2.3-2.4 2.3H89V21h-1.5zm4.1-4.7c0-.6-.4-.9-1-.9H89v1.9h1.6c.6-.1 1-.5 1-1z"/></g><path opacity=".1" d="M3.3.1L38.2 35h.4l4.2-35H4c-.2 0-.5 0-.7.1zM38.9 33H43V2.1z"/></svg>