<svg baseProfile="basic" xmlns="http://www.w3.org/2000/svg" width="117" height="110" viewBox="0 0 117 110"><circle fill="#00B05A" cx="55" cy="55" r="55"/><path opacity=".15" d="M36.6 83L63 109.4c20-2.9 36.5-16.6 43.4-35L95.2 67 36.6 83z"/><path fill="#FFF" d="M68.3 80.8l-31.6 2.5L32 35.6l2.5-.2c1.4-.1 2.4-1.4 2.3-2.8l-.2-2.5c-.1-1.5.9-2.7 2.4-2.8l17.4-1.4c1.5-.1 2.8 1 2.9 2.4l.2 2.5.3 2.6 8.9-.7 33 .5 3.3 39.9-6 5.3-30.7 2.4z" opacity=".8"/><path fill="#066BC6" d="M80.5 19.1L41.1 39.6l-4.2 43.7 39.2-3.1 22-1.7 14.1-1.1 4.2-43.7z"/><path fill="#FFF" d="M62.1 65.6l-4.5-7.3h-3.7v7.3h-4.4V45h9.6c4.3 0 6.9 2.8 6.9 6.6 0 3.6-1.8 5.6-4.1 6.1l5.1 7.8h-4.9zm-.5-14c0-1.7-1.3-2.8-3.1-2.8h-4.6v5.6h4.6c1.8 0 3.1-1.1 3.1-2.8zM69.8 65.6V45h14.6v3.9H74.2v4.4h9.1V57h-9.1v4.7h10.2v3.9H69.8zM86.8 55.3c0-6.5 4.9-10.6 11-10.6 4.3 0 7 2.2 8.5 4.6l-3.6 2c-.9-1.5-2.7-2.7-4.9-2.7-3.7 0-6.5 2.9-6.5 6.8s2.7 6.8 6.5 6.8c1.8 0 3.6-.8 4.4-1.6v-2.2h-5.4v-3.9h9.8v7.7c-2.1 2.3-5 3.9-8.8 3.9-6-.1-11-4.3-11-10.8z"/><g opacity=".9" fill="#FFF"><path d="M27.2 78.2h-6.5V82h6.5v1.7h-8v-7.2h8v1.7zM27.2 68.7l-1.4.5v3.4l1.4.5V75l-8-3.1v-2.1l8-3.1v2zm-6.3 2.2l3.4 1.2v-2.5l-3.4 1.3zM27.2 65.3h-8v-3.7c0-1.7 1.2-2.7 2.6-2.7 1.4 0 2.6 1 2.6 2.7v2h2.8v1.7zm-5.4-4.7c-.7 0-1.1.5-1.1 1.2v1.8h2.2v-1.8c0-.7-.5-1.2-1.1-1.2zM27.2 55.2h-6.5v2.3h-1.5v-6.4h1.5v2.3h6.5v1.8zM27.2 43.9h-3.4v3.8h3.4v1.7h-8v-1.7h3.1v-3.8h-3.1v-1.7h8v1.7zM18.7 35.8c0 .4-.4.8-.8.8s-.8-.4-.8-.8.4-.8.8-.8c.4-.1.8.3.8.8zm0 2.5c0 .5-.4.8-.8.8s-.8-.4-.8-.8.4-.8.8-.8.8.3.8.8zm8.5 1.5h-8v-5.7h1.5v4h1.7v-3.9h1.5v3.9h1.8v-4h1.5v5.7zM27.2 32.1h-8v-3.7c0-1.7 1.2-2.7 2.6-2.7 1.4 0 2.6 1 2.6 2.7v2h2.8v1.7zm-5.4-4.7c-.7 0-1.1.5-1.1 1.2v1.8h2.2v-1.8c0-.7-.5-1.2-1.1-1.2z"/></g></svg>