<svg xmlns="http://www.w3.org/2000/svg" width="57.93" height="57.93" viewBox="0 0 57.93 57.93"><path fill="#F28111" d="M48.32 0H9.61C4.303 0 0 4.303 0 9.61v38.71c0 5.307 4.304 9.61 9.61 9.61h38.71c5.306 0 9.61-4.304 9.61-9.61V9.61c0-5.307-4.304-9.61-9.61-9.61zm4.437 48.32a4.44 4.44 0 0 1-4.438 4.438H9.61a4.442 4.442 0 0 1-4.44-4.438v-6.295H17.79c3.008 2.576 6.906 4.142 11.177 4.142s8.17-1.565 11.177-4.142h12.615v6.295zm0-32.417H40.14c-3.007-2.576-6.905-4.14-11.175-4.14s-8.168 1.564-11.176 4.14H5.17V9.61c0-2.448 1.992-4.44 4.44-4.44h38.71a4.443 4.443 0 0 1 4.437 4.44v6.293z"/><g fill="#FFF"><path d="M5.498 35.51V21.707h9.766v2.586H8.436v2.917h6.684v2.587H8.436v5.71H5.498zM25.108 35.51l-2.71-4.905h-2.152v4.904h-2.938V21.707h6.455c2.876 0 4.635 1.883 4.635 4.448 0 2.442-1.53 3.745-3.02 4.097l3.103 5.255H25.11zm.29-9.354c0-1.158-.89-1.862-2.07-1.862h-3.082v3.724h3.083c1.178 0 2.068-.703 2.068-1.862zM30.607 35.51V21.707h9.766v2.586h-6.828v2.917h6.684v2.587h-6.685v3.125h6.828v2.586h-9.766zM42.666 35.51V21.707h9.766v2.586h-6.828v2.917h6.684v2.587h-6.684v3.125h6.828v2.586h-9.766z"/></g></svg>