<svg baseProfile="basic" xmlns="http://www.w3.org/2000/svg" width="24" height="24" viewBox="0 0 24 24"><circle fill="#F60" cx="12" cy="12" r="12"/><path fill="#F3F3F3" d="M5.5 9.1c0-.4.1-.8.2-1.2.2-.4.4-.7.7-1 .3-.3.6-.5 1-.6.4-.2.8-.2 1.2-.2.4 0 .8.1 1.2.2.4.2.7.4 1 .6.3.3.5.6.7 1 .2.4.2.8.2 1.2 0 .4-.1.8-.2 1.2-.2.4-.4.7-.7 1-.3.3-.6.5-1 .6-.4.2-.8.2-1.2.2-.4 0-.8-.1-1.2-.2-.4-.2-.7-.4-1-.6-.3-.3-.5-.6-.7-1-.1-.4-.2-.8-.2-1.2zm1.6 0c0 .2 0 .4.1.6.1.2.2.4.3.5.1.1.3.3.4.3.2.1.3.1.5.1s.4 0 .5-.1c.2-.1.3-.2.5-.3.1-.1.2-.3.3-.5.2-.2.3-.4.3-.6 0-.2 0-.4-.1-.6-.1-.2-.2-.3-.4-.5-.1-.1-.2-.2-.4-.3-.2-.1-.4-.1-.6-.1-.2 0-.4 0-.5.1-.2.1-.3.2-.5.3-.1.2-.2.3-.2.5-.1.2-.2.4-.2.6zm.3 8.9l7.2-11.7h1.8L9.3 18H7.4zm5-2.9c0-.4.1-.8.2-1.2.2-.4.4-.7.7-1 .3-.3.6-.5 1-.6.4-.2.8-.2 1.2-.2.4 0 .8.1 1.2.2.4.2.7.4 1 .6.3.3.5.6.7 1 .2.4.2.8.2 1.2 0 .4-.1.8-.2 1.2-.2.4-.4.7-.7 1-.3.3-.6.5-1 .6-.4.2-.8.2-1.2.2-.4 0-.8-.1-1.2-.2-.4-.2-.7-.4-1-.6-.3-.3-.5-.6-.7-1-.1-.4-.2-.8-.2-1.2zm1.7 0c0 .2 0 .4.1.6.1.2.2.4.3.5.1.1.3.3.4.3.2.1.4.1.5.1.2 0 .4 0 .5-.1.2-.1.3-.2.4-.3.1-.1.2-.3.3-.5.1-.2.1-.4.1-.6 0-.2 0-.4-.1-.6-.1-.2-.2-.4-.3-.5-.1-.1-.3-.3-.4-.3-.2-.1-.4-.1-.5-.1-.2 0-.4 0-.5.1-.2.1-.3.2-.4.3-.1.1-.2.3-.3.5-.1.2-.1.4-.1.6z"/></svg>