<?xml version="1.0" encoding="utf-8"?>
<!-- Generator: Adobe Illustrator 19.2.1, SVG Export Plug-In . SVG Version: 6.00 Build 0)  -->
<svg version="1.1" baseProfile="basic" id="Слой_1"
	 xmlns="http://www.w3.org/2000/svg" xmlns:xlink="http://www.w3.org/1999/xlink" x="0px" y="0px" width="72px" height="60px"
	 viewBox="0 0 72 60" xml:space="preserve">
<g>
	<path fill="#F2F2F2" d="M70.7,54.3c0,3.2-2.6,5.7-5.7,5.7H5.7C2.6,60,0,57.4,0,54.3V5.8c0-3.2,2.6-5.7,5.7-5.7H65
		c3.2,0,5.7,2.6,5.7,5.7V54.3z"/>
	<path fill="#CCCCCC" d="M47.5,21.1l-8,19.8L21.8,51.4l8.5,8.6H65c3.2,0,5.7-2.6,5.7-5.7v-9.4L47.5,21.1z"/>
	<path fill="#36B056" d="M65,0H5.7C2.6,0,0,2.6,0,5.7v7.7h70.7V5.7C70.7,2.6,68.1,0,65,0z"/>
	<g>
		<circle fill="#FFFFFF" cx="15.1" cy="7.2" r="2.8"/>
		<path fill="#FFFFFF" d="M10.5,7c0,1.5-1.2,2.8-2.8,2.8C6.2,9.8,5,8.5,5,7c0-1.5,1.2-2.8,2.8-2.8C9.3,4.3,10.5,5.5,10.5,7z"/>
	</g>
	<path fill="#FFFFFF" d="M65.7,7.1c0,1.4-1.1,2.5-2.4,2.5H21.7c-1.3,0-2.4-1.1-2.4-2.5l0,0c0-1.4,1.1-2.5,2.4-2.5h41.6
		C64.6,4.6,65.7,5.8,65.7,7.1L65.7,7.1z"/>
	<g>
		<path fill="#CCCCCC" d="M4.4,32.2L4.5,30c1.5-0.4,2.9-1,4.1-1.7l1.7,1.4c0.5,0.5,1.2,0.6,1.6,0.2l4.6-4.6c0.4-0.4,0.3-1.1-0.2-1.6
			L14.9,22c0.7-1.3,1.3-2.7,1.7-4.1l2.2-0.2c0.7,0,1.3-0.4,1.3-1v-3.3H6.8c-0.2,3.5-3.1,6.4-6.7,6.4c0,0-0.1,0-0.1,0v13.6h3.4
			C3.9,33.4,4.4,32.9,4.4,32.2z"/>
	</g>
	<g>
		<g>
			<path fill="#399DFD" d="M48.1,35.8c3.9-3.9,3.9-10.2,0-14L48,21.6c-3.9-3.9-10.2-3.9-14,0l-7.2,7.2L41,43L48.1,35.8z"/>
			<path fill="#E82E41" d="M19.6,50l0.1,0.1c3.9,3.9,10.2,3.9,14,0L41,43L26.8,28.8l-7.2,7.2C15.7,39.8,15.7,46.1,19.6,50z"/>
		</g>
		<path opacity="0.3" d="M48.5,27.8L48.5,27.8c-2.2-2.2-5.6-2.2-7.7-0.1l-9.3,9.3l-5.7,5.7c-2.1,2.1-2.1,5.5,0,7.6l0.1,0.1
			c2.1,2.1,5.5,2.1,7.6,0l5.7-5.7l9.3-9.3C50.6,33.3,50.6,29.9,48.5,27.8z"/>
		<path opacity="0.3" fill="#FFFFFF" d="M39.1,22.2L39.1,22.2c-1.2-1.2-3.1-1.2-4.3,0l-8.4,8.4l-6.3,6.3c-1.2,1.2-1.2,3.1,0,4.2l0,0
			c1.2,1.2,3.1,1.2,4.2,0l6.3-6.3l8.4-8.4C40.3,25.3,40.3,23.4,39.1,22.2z"/>
	</g>
</g>
<g>
</g>
<g>
</g>
<g>
</g>
<g>
</g>
<g>
</g>
<g>
</g>
<g>
</g>
<g>
</g>
<g>
</g>
<g>
</g>
<g>
</g>
<g>
</g>
<g>
</g>
<g>
</g>
<g>
</g>
</svg>
