<?xml version="1.0" encoding="utf-8"?>
<!-- Generator: Adobe Illustrator 19.2.1, SVG Export Plug-In . SVG Version: 6.00 Build 0)  -->
<svg version="1.1" baseProfile="basic" id="Слой_1"
	 xmlns="http://www.w3.org/2000/svg" xmlns:xlink="http://www.w3.org/1999/xlink" x="0px" y="0px" width="70px" height="70px"
	 viewBox="0 0 70 70" xml:space="preserve">
<g>
	<circle fill="#6D8399" cx="35" cy="35" r="35"/>
	<g opacity="0.5">
		<path d="M70,35c0-2.6-0.3-5-0.8-7.4L55.8,14.2L14.1,55.9l13.3,13.3c2.4,0.5,5,0.8,7.6,0.8C54.3,70,70,54.3,70,35z"/>
	</g>
	<g>
		<circle fill="#FFD42D" cx="35" cy="35" r="29.7"/>
		<g>
			<path d="M35,49.1c-7.1,0-12.8-5.8-12.8-12.8c0-3.3,1.3-6.5,3.6-8.9c0.8-0.8,2-0.8,2.8-0.1c0.8,0.7,0.8,2,0.1,2.8
				c-1.6,1.7-2.5,3.9-2.5,6.1c0,4.9,4,8.9,8.9,8.9c4.9,0,8.9-4,8.9-8.9c0-2.3-0.9-4.5-2.5-6.1c-0.8-0.8-0.7-2,0.1-2.8
				c0.8-0.7,2-0.7,2.8,0.1c2.3,2.4,3.6,5.5,3.6,8.9C47.8,43.3,42.1,49.1,35,49.1z"/>
			<path d="M37,35.9c0,1.1-0.9,2-2,2l0,0c-1.1,0-2-0.9-2-2v-13c0-1.1,0.9-2,2-2l0,0c1.1,0,2,0.9,2,2V35.9z"/>
		</g>
		<g opacity="0.8">
			<path fill="#FFFFFF" d="M47.2,13.7l0.2-0.4L47.2,13.7C47.2,13.7,47.2,13.7,47.2,13.7z"/>
			<path fill="#FFFFFF" d="M22.8,56.3C22.8,56.3,22.8,56.3,22.8,56.3l-0.2,0.4L22.8,56.3L22.8,56.3z"/>
			<path fill="#FFFFFF" d="M22.8,56.3L23,56c0.6,0.3,1.2,0.6,1.8,0.9l0.1,0l0.1,0c1.2,0.5,2.4,1,3.7,1.4l0.1,0l0.1,0
				c0.6,0.1,1.1,0.3,1.8,0.4l0.3,0.1c0.6,0.1,1.2,0.2,1.8,0.2l0.2,0l0.1,0c0.7,0.1,1.3,0.1,1.9,0.1h0.1l0,0c1.1,0,2.2-0.1,3.4-0.2
				l0.1,0l0.1,0c0.1,0,0.2,0,0.2,0l0.2,0c11.6-2,20-12,20-23.8c0-0.1,0-0.2,0-0.3c0-0.5-0.1-1.3-0.1-1.8l-0.1-0.2
				c-0.2-0.8-0.9-1.3-1.7-1.3c-0.7,0-1.4,0.5-1.7,1.1l-0.1,0.7l0,0c0.1,0.6,0.1,1.2,0.1,1.7c0,11.3-9.2,20.6-20.5,20.6
				c-0.6,0-1.3,0-2-0.1c-0.1,0-0.2,0-0.3,0l-0.2,0c-0.5-0.1-0.9-0.1-1.4-0.2c-0.2,0-0.5-0.1-0.7-0.1c-0.4-0.1-0.7-0.2-1.1-0.3
				l-0.2,0c-0.2-0.1-0.4-0.1-0.6-0.2c-0.3-0.1-0.5-0.2-0.8-0.3l-0.1-0.1c-0.6-0.2-1.2-0.5-1.8-0.8c-0.6-0.3-1.2-0.6-1.7-0.9
				l-0.1-0.1c-0.1,0-0.2-0.1-0.2-0.1c-0.3-0.2-0.7-0.5-1.1-0.8l-0.2-0.1l-0.8-0.6l0.8-0.7l1-0.8c0.6-0.5,0.4-1.4-0.3-1.6l-5.6-2
				L15.9,45c-0.7-0.2-1.4,0.3-1.2,1.1l0.5,2.7l0.9,5c0.1,0.7,1,1,1.5,0.6l0.9-0.8l0.5-0.5l0.5,0.5c1.1,0.9,2.2,1.7,3.4,2.4
				L22.8,56.3C22.8,56.3,22.8,56.3,22.8,56.3L22.8,56.3z"/>
			<path fill="#FFFFFF" d="M47,14c-0.6-0.3-1.2-0.6-1.8-0.9l0,0l-0.1,0c-1.2-0.5-2.4-1-3.7-1.4l-0.1,0l-0.1,0
				c-0.6-0.1-1.1-0.3-1.8-0.4L39,11.2c-0.6-0.1-1.2-0.2-1.8-0.2l-0.2,0l-0.1,0c-0.7-0.1-1.3-0.1-1.9-0.1h0c-1.1,0-2.3,0.1-3.4,0.2
				l-0.1,0l-0.1,0c-0.1,0-0.2,0-0.2,0l-0.2,0c-11.6,2-20,12-20,23.8c0,0.1,0,0.2,0,0.3c0,0.5,0.1,1.3,0.1,1.8l0.1,0.2
				c0.2,0.8,0.9,1.3,1.7,1.3c0.7,0,1.4-0.5,1.7-1.1l0.1-0.7l0,0c-0.1-0.6-0.1-1.2-0.1-1.7c0-11.3,9.2-20.6,20.5-20.6
				c0.6,0,1.3,0,2,0.1c0.1,0,0.2,0,0.3,0l0.2,0c0.5,0.1,0.9,0.1,1.4,0.2c0.2,0,0.5,0.1,0.7,0.1c0.4,0.1,0.7,0.2,1.1,0.3l0.2,0
				c0.2,0.1,0.4,0.1,0.6,0.2c0.3,0.1,0.5,0.2,0.8,0.3l0.1,0.1c0.6,0.2,1.2,0.5,1.8,0.8c0.6,0.3,1.2,0.6,1.7,0.9l0.1,0.1
				c0.1,0,0.2,0.1,0.2,0.1c0.3,0.2,0.7,0.5,1.1,0.8l0.2,0.1l0.8,0.6l-0.8,0.7l-1,0.8c-0.6,0.5-0.4,1.4,0.3,1.6l5.6,2l1.8,0.6
				c0.7,0.2,1.4-0.3,1.2-1.1l-0.5-2.7l-0.9-5c-0.1-0.7-1-1-1.5-0.6l-0.9,0.8L51,16.9l-0.5-0.5C49.4,15.6,48.2,14.8,47,14l0.2-0.3
				c0,0,0,0,0,0L47,14z"/>
		</g>
	</g>
</g>
<g>
</g>
<g>
</g>
<g>
</g>
<g>
</g>
<g>
</g>
<g>
</g>
<g>
</g>
<g>
</g>
<g>
</g>
<g>
</g>
<g>
</g>
<g>
</g>
<g>
</g>
<g>
</g>
<g>
</g>
</svg>
