<?xml version="1.0" encoding="utf-8"?>
<!-- Generator: Adobe Illustrator 19.2.1, SVG Export Plug-In . SVG Version: 6.00 Build 0)  -->
<svg version="1.1" baseProfile="basic" id="Слой_1"
	 xmlns="http://www.w3.org/2000/svg" xmlns:xlink="http://www.w3.org/1999/xlink" x="0px" y="0px" width="70px" height="70px"
	 viewBox="0 0 70 70" xml:space="preserve">
<g>
	<g>
		<g>
			<g>
				<path fill="#399EFD" d="M35,68.5c-18.5,0-33.5-15-33.5-33.5c0-18.5,15-33.5,33.5-33.5c18.5,0,33.5,15,33.5,33.5
					C68.5,53.5,53.5,68.5,35,68.5z"/>
				<path fill="#67E8CF" d="M35,3c17.6,0,32,14.4,32,32S52.6,67,35,67S3,52.6,3,35S17.4,3,35,3 M35,0C15.7,0,0,15.7,0,35
					s15.7,35,35,35s35-15.7,35-35S54.3,0,35,0L35,0z"/>
			</g>
			<path fill="#399EFD" stroke="#67E8CF" stroke-width="3" stroke-miterlimit="10" d="M35,14.9c-11.1,0-20.1,9-20.1,20.1
				s9,20.1,20.1,20.1s20.1-9,20.1-20.1S46.1,14.9,35,14.9"/>
			<g>
				<circle fill="#67E8CF" cx="35" cy="35" r="5.1"/>
				<path fill="#67E8CF" d="M35,31.4c2,0,3.6,1.6,3.6,3.6S37,38.6,35,38.6S31.4,37,31.4,35S33,31.4,35,31.4 M35,28.4
					c-3.6,0-6.6,2.9-6.6,6.6c0,3.6,2.9,6.6,6.6,6.6s6.6-2.9,6.6-6.6C41.6,31.4,38.6,28.4,35,28.4L35,28.4z"/>
			</g>
		</g>
		
			<line fill="none" stroke="#67E8CF" stroke-width="3" stroke-linecap="round" stroke-miterlimit="10" x1="35" y1="34.4" x2="58.2" y2="11.2"/>
		<g>
			<circle fill="#FF5050" cx="35" cy="15.6" r="5.4"/>
			<path fill="#399EFD" d="M35,11.2c2.4,0,4.4,2,4.4,4.4s-2,4.4-4.4,4.4s-4.4-2-4.4-4.4S32.6,11.2,35,11.2 M35,9.2
				c-3.5,0-6.4,2.9-6.4,6.4s2.9,6.4,6.4,6.4s6.4-2.9,6.4-6.4S38.5,9.2,35,9.2L35,9.2z"/>
		</g>
	</g>
	<g opacity="0.4">
		<path d="M59.4,10L35,34.4L10.6,10C4,16.3,0,25.2,0,35c0,19.3,15.7,35,35,35s35-15.7,35-35C70,25.2,66,16.3,59.4,10z"/>
	</g>
</g>
<g>
</g>
<g>
</g>
<g>
</g>
<g>
</g>
<g>
</g>
<g>
</g>
<g>
</g>
<g>
</g>
<g>
</g>
<g>
</g>
<g>
</g>
<g>
</g>
<g>
</g>
<g>
</g>
<g>
</g>
</svg>
