<?xml version="1.0" encoding="utf-8"?>
<!-- Generator: Adobe Illustrator 19.1.1, SVG Export Plug-In . SVG Version: 6.00 Build 0)  -->
<svg version="1.1" baseProfile="basic" id="Слой_1"
	 xmlns="http://www.w3.org/2000/svg" xmlns:xlink="http://www.w3.org/1999/xlink" x="0px" y="0px" width="74px" height="80px"
	 viewBox="0 0 74 80" xml:space="preserve">
<path fill="#069DFA" d="M74,29.1c0-7.9-1.4-14.4-3.9-19.7c-1.4,0.1-2.9,0.2-4.3,0.2C53.6,9.5,43,5.7,37,0C31,5.7,20.4,9.5,8.3,9.5
	c-1.5,0-2.9-0.1-4.3-0.2C1.4,14.6,0,21.1,0,29.1C0,56.1,22.5,80,37,80C52.5,80,74,56.1,74,29.1z"/>
<path opacity="0.1" fill="#010000" d="M70.1,9.3c-1.4,0.1-2.9,0.2-4.3,0.2c-12.1,0-22.6-3.8-28.6-9.4V80C52.8,80,74,56,74,29.1
	C74,21.1,72.6,14.6,70.1,9.3z"/>
<g>
	<path opacity="0.2" d="M53.5,26.5l4.2-4.2l-3.9-3.9l-4.2,4.2c-7.5-5.7-17.9-5.7-25.4,0l-4.2-4.2l-3.9,3.9l4.2,4.2
		c-5.7,7.5-5.7,17.9,0,25.3l-4.2,4.2l3.9,3.9l4.2-4.2c7.4,5.7,17.9,5.7,25.3,0l4.3,4.3l3.9-3.9l-4.3-4.3
		C59.3,44.5,59.3,34,53.5,26.5z"/>
	<circle fill="#FC2C38" cx="37" cy="36.5" r="20.9"/>
	
		<rect x="10.3" y="33.8" transform="matrix(0.7071 0.7071 -0.7071 0.7071 36.6549 -15.4461)" fill="#FC2C38" width="53.3" height="5.5"/>
	
		<rect x="10.3" y="33.7" transform="matrix(0.7071 -0.7071 0.7071 0.7071 -14.9455 36.8307)" fill="#FC2C38" width="53.3" height="5.5"/>
	
		<rect x="25.3" y="33.8" transform="matrix(0.7071 0.7071 -0.7071 0.7071 36.6549 -15.4461)" fill="#FFFFFF" width="23.2" height="5.5"/>
	
		<rect x="25.4" y="33.7" transform="matrix(0.7071 -0.7071 0.7071 0.7071 -14.9455 36.8307)" fill="#FFFFFF" width="23.2" height="5.5"/>
</g>
<g>
</g>
<g>
</g>
<g>
</g>
<g>
</g>
<g>
</g>
<g>
</g>
<g>
</g>
<g>
</g>
<g>
</g>
<g>
</g>
<g>
</g>
<g>
</g>
<g>
</g>
<g>
</g>
<g>
</g>
</svg>
