<svg xmlns="http://www.w3.org/2000/svg" width="25.666" height="25.666" viewBox="0 0 25.666 25.666"><path fill="#2D8CD3" d="M12.833 0C5.748 0 0 5.747 0 12.833s5.748 12.833 12.833 12.833c7.078 0 12.833-5.747 12.833-12.833S19.91 0 12.833 0zm-8.29 11.948a1.298 1.298 0 0 1 0-2.597c.71 0 1.29.58 1.29 1.3s-.58 1.298-1.29 1.298zm1.09 2.22c0-1.097.893-1.992 1.993-1.992s1.983.893 1.983 1.993a1.98 1.98 0 0 1-1.984 1.982c-1.1 0-1.993-.885-1.993-1.983zm5.536 7.008c-1.353 0-2.453-1.1-2.453-2.45s1.1-2.45 2.452-2.45c1.35 0 2.45 1.1 2.45 2.45s-1.1 2.45-2.45 2.45zm3.594-5.024a2.046 2.046 0 1 1 .002-4.092 2.046 2.046 0 0 1-.003 4.092zm3.085-4.32a1.473 1.473 0 0 1-1.473-1.472c0-.81.655-1.468 1.472-1.468.808 0 1.465.657 1.465 1.468 0 .808-.657 1.473-1.466 1.473zm2.434-3.642a1.065 1.065 0 0 1 0-2.13c.59 0 1.068.48 1.068 1.07s-.478 1.06-1.068 1.06z"/></svg>