<svg xmlns="http://www.w3.org/2000/svg" width="35" height="35" viewBox="0 0 35 35"><circle fill="#BFBFBF" cx="17.5" cy="17.5" r="17.5"/><path fill="#FFF" d="M21 9.977h-5.305c-2.692 0-4.938 1.986-4.938 4.17 0 2.23 1.475 4.01 4.008 4.01.176 0 .348-.012.512-.024-.164.316-.28.668-.28 1.036 0 .62.34.974.762 1.382-.32 0-.628.01-.964.01-3.083 0-5.24 2.12-5.24 4.157 0 2.002 2.603 3.258 5.685 3.258 3.514 0 5.676-1.994 5.676-4 0-1.607-.35-2.416-2.06-3.7-.494-.368-1.563-1.126-1.563-1.634 0-.594.168-.886 1.067-1.586.914-.717 1.564-1.664 1.564-2.834 0-1.277-.523-2.437-1.502-3h1.393L21 9.977zm-1.798 13.657c.042.185.067.375.067.57 0 1.62-1.046 2.886-4.042 2.886-2.13 0-3.668-1.35-3.668-2.967 0-1.59 1.803-2.96 3.936-2.936.496.006.96.086 1.38.223 1.157.805 2.088 1.306 2.326 2.224zm-3.412-6.286c-1.43-.046-2.79-1.356-3.036-3.233-.25-1.878.712-3.315 2.14-3.272 1.432.044 2.654 1.583 2.9 3.46.247 1.877-.576 3.086-2.004 3.045zM29 12.977h-3v-3h-1v3h-3v1h3v3h1v-3h3z"/></svg>