<svg xmlns="http://www.w3.org/2000/svg" xmlns:xlink="http://www.w3.org/1999/xlink" width="35" height="35" viewBox="0 0 35 35"><circle fill="#BFBFBF" cx="17.5" cy="17.5" r="17.5"/><defs><path id="a" d="M11.64 22.22c2.632 2.737 5.618 2.43 5.618 2.43h1.352s.41.083.616-.136c.192-.21.187-.468.187-.468s-.025-1.817.818-2.086c.83-.26 1.897 1.758 3.03 2.53.854.59 1.505.458 1.505.458l3.025-.04s1.58-.1.83-1.345c-.06-.103-.437-.92-2.25-2.6-1.895-1.76-1.642-1.477.646-4.523 1.39-1.855 1.95-2.985 1.774-3.47-.166-.463-1.188-.34-1.188-.34l-3.408.02s-.252-.035-.44.076c-.18.11-.3.367-.3.367s-.538 1.434-1.257 2.654c-1.513 2.575-2.12 2.71-2.37 2.55-.575-.372-.432-1.496-.432-2.294 0-2.496.38-3.537-.737-3.806-.368-.09-.642-.148-1.588-.157-1.217-.013-2.245.004-2.827.287-.388.19-.688.613-.505.637.226.03.736.14 1.005.506.35.475.337 1.543.337 1.543s.202 2.936-.468 3.3c-.46.25-1.088-.26-2.44-2.597-.692-1.195-1.216-2.52-1.216-2.52s-.1-.25-.28-.38a1.464 1.464 0 0 0-.523-.218l-3.235.014s-.486-.002-.664.208c-.16.188-.013.545-.013.545s2.53 5.866 5.4 8.854"/></defs><clipPath id="b"><use xlink:href="#a" overflow="visible"/></clipPath><path clip-path="url(#b)" fill-rule="evenodd" clip-rule="evenodd" fill="#FFF" d="M4.228 10.087h26.546V26.91H4.228z"/></svg>