<svg xmlns="http://www.w3.org/2000/svg" width="35" height="35" viewBox="0 0 35 35"><circle fill="#BFBFBF" cx="17.5" cy="17.5" r="17.5"/><path fill="#FFF" d="M8 25.134a11.618 11.618 0 0 0 6.29 1.843c7.547 0 11.676-6.254 11.676-11.677 0-.178-.003-.354-.013-.53A8.37 8.37 0 0 0 28 12.65a8.212 8.212 0 0 1-2.355.644 4.126 4.126 0 0 0 1.805-2.27c-.797.47-1.674.81-2.605.994a4.1 4.1 0 0 0-2.994-1.293 4.1 4.1 0 0 0-4.103 4.102c0 .322.036.635.106.935a11.644 11.644 0 0 1-8.46-4.288 4.1 4.1 0 0 0-.554 2.063c0 1.425.724 2.682 1.827 3.416a4.08 4.08 0 0 1-1.86-.513v.052a4.11 4.11 0 0 0 3.29 4.022 4.077 4.077 0 0 1-1.85.072 4.104 4.104 0 0 0 3.832 2.85A8.243 8.243 0 0 1 8 25.135z"/></svg>