<svg xmlns="http://www.w3.org/2000/svg" width="85.955" height="82.312" viewBox="0 0 85.955 82.312"><path fill="#2686BC" d="M46.026 1.605a5.48 5.48 0 0 0-7.753 0L2.327 32.073c.1 3.46 2.92 32.39 6.407 32.39h66.83c3.49 0 6.31-28.93 6.41-32.39L46.025 1.605z"/><path fill="#DADADA" d="M.82 23.192l24.125 6.266a2.906 2.906 0 0 1 2.37 3.36L25.09 57.647c.162-.08.323-.162.47-.27l18.52-13.043a3.4 3.4 0 0 0 .823-4.746L24.49 10.617a3.404 3.404 0 0 0-4.74-.822L1.23 22.84a3.2 3.2 0 0 0-.41.352z"/><path opacity=".3" fill="#1D1D1B" d="M16.66 35.294a2.795 2.795 0 0 0 2.368 3.36l24.962 5.727c1.563-1.16 1.974-3.284.913-4.793L24.49 10.617C23.43 9.1 21.294 8.782 19.668 9.86L16.66 35.294z"/><path fill="#EDEDED" d="M17.6 34.63a2.905 2.905 0 0 0 2.37 3.36l24.183 6.277a3.4 3.4 0 0 0 .75-4.68l-20.412-28.97a3.4 3.4 0 0 0-4.662-.873L17.6 34.63z"/><path opacity=".3" fill="#1D1D1B" d="M28.865 31.727c.328-1.622-.73-3.123-2.37-3.358l-24.97-5.73c-1.552 1.165-1.97 3.285-.907 4.798l20.41 28.97c1.066 1.51 3.204 1.83 4.823.756l3.015-25.437z"/><path fill="#EDEDED" d="M27.922 32.39a2.908 2.908 0 0 0-2.37-3.36L1.37 22.75a3.41 3.41 0 0 0-.75 4.687l20.41 28.97a3.4 3.4 0 0 0 4.662.868l2.232-24.885z"/><path fill="#FF3827" d="M8.696 35.342l7.752 2.614-.15 8.183c.415.518 1.163.634 1.71.25l7.16-5.048a1.262 1.262 0 0 0 .307-1.76l-.32-.454-6.925 4.874.023-7.316-6.9-2.44 6.925-4.878-.322-.455a1.266 1.266 0 0 0-1.762-.307l-7.16 5.044a1.257 1.257 0 0 0-.338 1.692z"/><path opacity=".3" fill="#1D1D1B" d="M81.89 32.148l-35.864 26.74a5.478 5.478 0 0 1-7.753 0l-35.86-26.74a6.29 6.29 0 0 0-.105 1.023v42.715a6.425 6.425 0 0 0 6.426 6.426h66.83a6.43 6.43 0 0 0 6.43-6.425V33.172c0-.35-.05-.69-.105-1.024z"/><path opacity=".2" fill="#010005" d="M60.244 51.15a3.6 3.6 0 0 0 .207-.58c.025-.092.03-.19.047-.284.026-.14.06-.28.067-.426a3.82 3.82 0 0 0-.03-.746l-5.54-38.37a3.983 3.983 0 0 0-.18-.726c-.033-.09-.083-.17-.12-.257-.062-.134-.117-.27-.19-.396-.065-.11-.15-.203-.224-.306-.07-.088-.126-.184-.198-.266-.113-.126-.243-.232-.37-.342-.05-.044-.094-.093-.144-.132a4.102 4.102 0 0 0-.537-.334.38.38 0 0 0-.055-.035 3.663 3.663 0 0 0-2.058-.37c-.015 0-.026-.003-.04 0v.002c-.035.004-.07-.002-.106.002l-24.52 3.54a3.368 3.368 0 0 0-.58.143l.043.04a3.725 3.725 0 0 0-2.342 4l5.535 38.373a3.72 3.72 0 0 0 3.378 3.17l-.03.052c.198.006.397.004.596-.026l24.527-3.537a3.73 3.73 0 0 0 2.836-2.106c.01-.028.017-.057.03-.083z"/><g><path fill="#DADADA" d="M28.21 8.524l19.452 19.113a3.178 3.178 0 0 1 .407 4.478L32.4 54.44c.2.016.396.025.598.005l24.677-2.254a3.73 3.73 0 0 0 3.372-4.052L57.52 9.533a3.73 3.73 0 0 0-4.05-3.375L28.794 8.412a3.614 3.614 0 0 0-.584.112z"/><path opacity=".3" fill="#1D1D1B" d="M36.62 28.648a3.06 3.06 0 0 0 .408 4.48L57.564 52.19c2.117-.253 3.668-2.037 3.484-4.052L57.522 9.533c-.186-2.02-2.033-3.49-4.16-3.36L36.62 28.65z"/><path fill="#EDEDED" d="M37.873 28.532a3.18 3.18 0 0 0 .408 4.478l19.5 19.16a3.726 3.726 0 0 0 3.27-4.03L57.52 9.532a3.722 3.722 0 0 0-3.944-3.375L37.873 28.532z"/><path opacity=".3" fill="#1D1D1B" d="M50.134 31.93c1.2-1.358 1.016-3.362-.41-4.48L29.185 8.386c-2.108.25-3.664 2.04-3.48 4.053l3.524 38.607c.188 2.015 2.04 3.486 4.162 3.352l16.744-22.47z"/><path fill="#EDEDED" d="M48.88 32.045a3.18 3.18 0 0 0-.408-4.478l-19.5-19.163a3.73 3.73 0 0 0-3.27 4.034l3.525 38.608a3.728 3.728 0 0 0 3.948 3.37l15.705-22.37z"/><path fill="#E20613" d="M28.97 27.547l.222 2.4c.214 2.354 2.188 4.188 5.67 3.87 2.085-.192 3.536-1.3 4.137-3.092l6.117 2.684c.194.09.332-.03.317-.2l-.136-1.49c-.013-.128-.062-.21-.17-.24l-5.98-2.4-.097-1.052 5.72-.52a.153.153 0 0 0 .13-.16l-.12-1.307c-.01-.124-.078-.158-.18-.15L29.157 27.3c-.144.013-.2.105-.188.247zm8.733.602l.08.888c.13 1.382-.76 2.822-3.295 3.053-2.635.242-3.825-.92-3.942-2.204l-.098-1.073 7.255-.664z"/></g><path opacity=".2" fill-rule="evenodd" clip-rule="evenodd" fill="#010005" d="M83.942 20.55c.003-.202-.02-.403-.05-.6-.005-.034-.002-.07-.01-.106a3.718 3.718 0 0 0-2.072-2.716c-.006-.004-.012-.01-.02-.013-.033-.015-.06-.037-.093-.05l-22.766-9.9c-.187-.084-.377-.135-.567-.186l.018.057a3.724 3.724 0 0 0-4.103 2.174l-15.49 35.62a3.72 3.72 0 0 0 1.207 4.483l-.055.028c.165.107.332.207.52.29l22.77 9.904a3.71 3.71 0 0 0 2.9.026l.057-.03c.195-.082.383-.177.562-.293.068-.044.13-.103.197-.154.12-.09.243-.176.354-.28.117-.112.215-.24.314-.365.053-.063.112-.117.16-.185.14-.2.264-.42.367-.655L83.63 21.98c.103-.234.177-.476.23-.714.033-.155.04-.31.052-.464.01-.084.028-.167.03-.253z"/><g><path fill="#DADADA" d="M60.376 6.98l7.886 26.158a3.186 3.186 0 0 1-1.798 4.133L41.95 49.343c.167.106.333.206.52.29l22.77 9.903a3.738 3.738 0 0 0 4.913-1.937l15.49-35.618a3.73 3.73 0 0 0-1.934-4.915l-22.767-9.9c-.186-.084-.377-.135-.567-.186z"/><path opacity=".3" fill="#1D1D1B" d="M58.074 28.708c-1.705.617-2.51 2.464-1.798 4.133l8.868 26.638c1.977.798 4.2-.02 5.01-1.88l15.49-35.618c.81-1.863-.105-4.046-2.04-4.95l-25.53 11.678z"/><path fill="#EDEDED" d="M59.23 29.212a3.183 3.183 0 0 0-1.796 4.133l7.905 26.223a3.732 3.732 0 0 0 4.812-1.97l15.49-35.618a3.73 3.73 0 0 0-1.84-4.865l-24.57 12.097z"/><path opacity=".3" fill="#1D1D1B" d="M68.368 38.1c1.71-.615 2.51-2.463 1.798-4.133l-8.87-26.64c-1.973-.793-4.197.024-5.007 1.884L40.8 44.83c-.812 1.86.106 4.045 2.037 4.95l25.53-11.68z"/><path fill="#EDEDED" d="M67.21 37.598a3.19 3.19 0 0 0 1.797-4.137L61.104 7.244A3.73 3.73 0 0 0 56.29 9.21L40.8 44.83a3.727 3.727 0 0 0 1.84 4.862l24.57-12.094z"/><path fill-rule="evenodd" clip-rule="evenodd" fill="#8106C1" d="M57.357 18.88c-.115.374-.433 2.006-.54 2.546-.093.597 1.556 7.108 2.343 7.83.29.21.766.463 1.228.664l.734.36c.53.23 1.45.456 1.95.59.212-.29 1.156-2.637 1.414-3.03l.933.465c-.21.406-1.484 3.352-2.216 5.033-.374.857-1.475 3.644-1.865 4.48l-.845-.56c.167-.478 1.118-2.34.856-2.954-.127-.307-.393-.343-1.675-.897l-.607-.263c-.28-.126-.812-.357-1.346-.506-.607-.052-7.84 1.91-9.174 2.643-.246.272-1.32 2.195-1.64 2.645l-.837-.328c-.014-.304 1.112-2.472 1.975-4.67.564-1.448 2.03-4.672 2.25-5.05l.684.412c-.08.476-.936 2.55-1.027 3.144 2.668-.493 6.28-1.527 7.622-1.788-.397-.644-1.27-5.113-2.042-5.575-.34.49-1.36 2.14-1.487 2.428l-1.003-.232c.13-.52 1.32-3.033 1.87-4.3.474-1.095 1.492-3.432 1.835-4.067l.61.98z"/></g><path fill="#3BA1F4" d="M81.89 32.148L46.025 62.545a5.482 5.482 0 0 1-7.753 0L2.413 32.148a6.29 6.29 0 0 0-.105 1.023v42.715a6.425 6.425 0 0 0 6.426 6.426h66.83a6.43 6.43 0 0 0 6.43-6.425V33.172c0-.35-.05-.69-.105-1.024z"/><path fill="#76CEFF" d="M46.026 45.603a5.482 5.482 0 0 0-7.753 0L2.327 76.068c.1 3.46 2.92 6.243 6.407 6.243h66.83c3.49 0 6.31-2.78 6.41-6.242L46.025 45.603z"/></svg>