<svg xmlns="http://www.w3.org/2000/svg" width="96.557" height="91.815" viewBox="0 0 96.557 91.815"><path fill="#6FC27E" d="M66.705.09c3.6 0 6.518 2.92 6.518 6.52v78.597a6.52 6.52 0 0 1-6.518 6.52H6.52A6.52 6.52 0 0 1 0 85.208V20.5L20.408.09h46.297z"/><path opacity=".2" fill="#3E3E3D" d="M0 20.5l18.143-1.585L0 36.705z"/><path fill="#498057" d="M13.887 20.5H0L20.408.09V13.98a6.52 6.52 0 0 1-6.52 6.52z"/><g fill="#FFF"><path d="M28.746 21.938H66.21v4.565H28.747zM28.746 10.293H66.21v4.565H28.747zM8.7 33.087h57.51v4.563H8.7zM8.7 44.147h57.51v4.562H8.7zM8.7 55.88h57.51v4.563H8.7zM8.7 66.94h57.51v4.563H8.7zM8.7 77.587h57.51v4.564H8.7z"/></g><path fill-rule="evenodd" clip-rule="evenodd" fill="#3E3E3D" d="M76.043 87.417a4.4 4.4 0 0 1-4.4 4.398h-1.898a4.397 4.397 0 0 1-4.398-4.398V58.835a4.394 4.394 0 0 1 4.398-4.398h1.898c2.432 0 4.4 1.966 4.4 4.398v28.582z"/><path fill-rule="evenodd" clip-rule="evenodd" fill="#A5A5A5" d="M68.127 48.11v8.47c0 1.158 1.148 2.094 2.568 2.094 1.416 0 2.562-.936 2.562-2.093v-8.47h-5.13z"/><path opacity=".3" fill-rule="evenodd" clip-rule="evenodd" fill="#68A6DD" d="M92.633 25.607c0 11.973-9.71 21.68-21.684 21.68s-21.685-9.707-21.685-21.68c0-11.977 9.71-21.683 21.684-21.683s21.683 9.707 21.683 21.683z"/><path fill-rule="evenodd" clip-rule="evenodd" fill="#3E3E3D" d="M70.95 0C56.81 0 45.343 11.463 45.343 25.607c0 14.14 11.465 25.604 25.605 25.604 14.142 0 25.606-11.463 25.606-25.603C96.556 11.463 85.092 0 70.95 0zm0 47.287c-11.974 0-21.685-9.707-21.685-21.68 0-11.977 9.71-21.683 21.684-21.683s21.683 9.706 21.683 21.683c0 11.973-9.71 21.68-21.684 21.68z"/><path opacity=".2" fill="#FFF" d="M74.29 86.75c0 .6-.462 1.09-1.032 1.09-.568 0-1.03-.49-1.03-1.09v-25.6c0-.603.462-1.09 1.03-1.09.57 0 1.03.487 1.03 1.09v25.6z"/><path opacity=".7" fill="#FFF" d="M68.17 9.22c0-1.08.875-1.956 1.955-1.956 10.115 0 18.344 8.23 18.344 18.343a1.958 1.958 0 0 1-3.912 0c0-7.956-6.476-14.43-14.433-14.43A1.955 1.955 0 0 1 68.17 9.22z"/></svg>