<svg xmlns="http://www.w3.org/2000/svg" width="84.213" height="86.491" viewBox="0 0 84.213 86.491"><path fill="#669FF0" d="M84.213 31.404c0-8.54-1.516-15.603-4.19-21.333-1.517.12-3.063.194-4.638.194-12.947 0-24.293 4.572-30.652-1.585-6.36 6.156-17.705 1.584-30.656 1.584a59.1 59.1 0 0 1-4.633-.193C6.768 15.803 5.25 22.864 5.25 31.405c0 29.28 24.004 55.087 39.482 55.087 16.563 0 39.48-25.805 39.48-55.086z"/><path fill="#94CCFC" d="M52.475 34.43a10.88 10.88 0 0 0-15.395-.03L10.914 56.487C18.976 73.97 33.88 86.49 44.656 86.49c11.504 0 26.068-12.453 33.895-29.87L52.476 34.43z"/><path opacity=".2" fill="#222221" d="M80.145 11.41c-.045-.108-.082-.222-.127-.325-1.518.13-3.062.212-4.635.212-12.95 0-24.297-4.52-30.658-11.297-6.355 6.776-17.7 11.297-30.652 11.297-1.574 0-3.117-.083-4.633-.212-.043.1-.078.207-.12.308l27.597 25.85c4.244 4.68 11.13 4.697 15.395.026l27.833-25.86z"/><path fill="#94CCFC" d="M80.145 10.362c-.045-.094-.082-.196-.127-.29-1.518.118-3.062.192-4.635.192-12.95 0-24.297-4.107-30.658-10.264-6.355 6.157-17.7 10.265-30.652 10.265a59.1 59.1 0 0 1-4.633-.193c-.043.09-.078.19-.12.28l27.597 23.48c4.244 4.258 11.13 4.27 15.395.03l27.833-23.5z"/><g fill="#C10E19"><path d="M59.62 53.4a1.045 1.045 0 0 0-1.395-.487L53.5 55.188c-3.045 1.322-7.463 1.678-8.72 1.75-1.32-.078-6.183-.464-9.218-1.978l-4.326-2.084a1.046 1.046 0 0 0-.91 1.883l4.88 2.35c-.042 1.555-.01 3.757.306 6.067l-4.342 1.908c-.53.232-.773.845-.54 1.375.235.53.85.77 1.38.538l3.875-1.7c.27 1.256.652 2.49 1.166 3.63L32.72 72.2a1.043 1.043 0 1 0 1.258 1.665l4.093-3.09c1.302 1.896 3.16 3.24 5.827 3.423v-14.69a.886.886 0 0 1 1.774 0V74.2c2.632-.182 4.48-1.49 5.774-3.344l4.04 3.045a1.05 1.05 0 0 0 1.466-.2c.348-.46.25-1.116-.205-1.466l-4.264-3.22c.522-1.137.907-2.378 1.187-3.64l3.787 1.663a1.054 1.054 0 0 0 1.38-.54 1.048 1.048 0 0 0-.538-1.378l-4.25-1.862c.326-2.345.36-4.584.318-6.166l4.77-2.296c.52-.25.74-.877.487-1.395z"/><path d="M37.936 51.573c-.252.736-.418 1.516-.418 2.338v.41c2.064.75 4.564 1.194 7.264 1.194s5.203-.443 7.268-1.194v-.41c0-.82-.166-1.6-.418-2.337 1.457-.913 2.354-2.098 2.354-3.402 0-1.882-1.838-3.53-4.592-4.446v.138c.66.653 1.04 1.44 1.04 2.296 0 .82-.362 1.583-.98 2.225-1.267-1.07-2.88-1.74-4.67-1.74-1.788 0-3.4.67-4.665 1.74-.618-.642-.987-1.404-.987-2.225 0-.854.39-1.643 1.045-2.296v-.138c-2.754.916-4.594 2.564-4.594 4.447-.002 1.306.895 2.49 2.352 3.403z"/></g><path fill="#F2D243" d="M9.414 2.33A17.885 17.885 0 0 1 0 12.16a17.865 17.865 0 0 1 9.227 10 17.85 17.85 0 0 1 9.412-9.826A17.872 17.872 0 0 1 9.413 2.33z"/><path fill="#E1751B" d="M9.365 7.25A8.978 8.978 0 0 1 4.62 12.2a8.954 8.954 0 0 1 4.65 5.04c.866-2.216 2.58-4 4.74-4.952a9.014 9.014 0 0 1-4.645-5.04z"/><path opacity=".1" fill="#222221" d="M80.02 10.07c-1.515.12-3.06.194-4.636.194-12.946 0-24.292-4.107-30.652-10.264v86.49c16.562 0 39.48-25.806 39.48-55.086 0-8.54-1.515-15.602-4.19-21.333z"/></svg>