<svg xmlns="http://www.w3.org/2000/svg" width="111.736" height="86.957" viewBox="0 0 111.736 86.957"><path fill="#FF643F" d="M37.145 6.646c-3.093-1.03-8.734-1.72-15.177-1.72-6.45 0-12.088.688-15.183 1.717A9.037 9.037 0 0 0 0 15.395V76.9c0 4.8 3.75 8.72 8.474 9.007 3.075.637 8.027 1.05 13.61 1.05 5.672 0 10.692-.424 13.756-1.08a9.026 9.026 0 0 0 8.093-8.978V15.394a9.032 9.032 0 0 0-6.788-8.75z"/><path fill="#010005" d="M39.633 11.678c-1.396-1.17-8.774-2.06-17.665-2.06-8.896 0-16.272.89-17.67 2.06a5.42 5.42 0 0 0-3.153 4.925v54.884a9.03 9.03 0 0 0 6.053 8.525c2.208.89 7.984 1.525 14.77 1.525 6.78 0 12.558-.637 14.765-1.525a9.03 9.03 0 0 0 6.056-8.526V16.603a5.423 5.423 0 0 0-3.157-4.925z"/><path fill="#B8B7B4" d="M28.057 11.618c0 .377-.3.68-.676.68H16.55a.675.675 0 0 1-.676-.68c0-.372.3-.673.676-.673h10.83c.376 0 .677.3.677.673z"/><path opacity=".15" fill="#FFF" d="M39.633 11.678c-1.396-1.17-8.774-2.06-17.665-2.06-8.896 0-16.272.89-17.67 2.06a5.42 5.42 0 0 0-3.153 4.925v56.784s22.283-36.317 38.488-61.71z"/><path opacity=".4" fill="#010005" d="M37.145 6.646c-2.06-.688-5.258-1.214-9.06-1.494-.204.55-.33 1.14-.33 1.76v74.654c0 2.387 1.637 4.373 3.844 4.943 1.644-.172 3.082-.386 4.24-.635a9.026 9.026 0 0 0 8.092-8.977V15.395a9.03 9.03 0 0 0-6.787-8.75z"/><path fill="#FFF" d="M73.328 80.476a5.123 5.123 0 0 1-5.125 5.12h-29.21a5.12 5.12 0 0 1-5.123-5.12V5.82A5.122 5.122 0 0 1 38.992.7h29.21a5.125 5.125 0 0 1 5.126 5.12v74.656z"/><path fill="#706F6F" d="M68.203.7a5.125 5.125 0 0 1 5.125 5.12v74.655a5.123 5.123 0 0 1-5.125 5.12h-29.21a5.12 5.12 0 0 1-5.123-5.12V5.82A5.122 5.122 0 0 1 38.992.7h29.21m0-.7h-29.21a5.828 5.828 0 0 0-5.822 5.82v74.655c0 3.21 2.612 5.82 5.822 5.82h29.21c3.212 0 5.826-2.61 5.826-5.82V5.82A5.83 5.83 0 0 0 68.203 0z"/><path fill="#3BA1F4" d="M70.936 73.6a.854.854 0 0 1-.854.854H37.115a.855.855 0 0 1-.855-.855V14.493c0-.474.382-.855.855-.855H70.08c.473 0 .855.38.855.854V73.6z"/><path fill="#B2B2B2" d="M57.1 79.574c0 1.938-1.566 3.5-3.5 3.5a3.497 3.497 0 0 1-3.503-3.5 3.502 3.502 0 0 1 7.002 0z"/><path fill="#1D1D1B" d="M54.475 4.506a.876.876 0 1 1-1.753 0 .876.876 0 0 1 1.753 0z"/><path fill="#575756" d="M57.53 8.088a.858.858 0 0 1-.86.855h-6.145a.856.856 0 0 1-.857-.855c0-.474.385-.857.857-.857h6.144a.86.86 0 0 1 .86.858z"/><path opacity=".15" fill="#FFF" d="M33.87 80.476V5.82A5.122 5.122 0 0 1 38.992.7h29.21L33.87 80.476z"/><path opacity=".4" fill="#010005" d="M104.802 5.193H62.765a.817.817 0 0 0-.818.816v79.86c0 .45.365.816.818.816h42.037a.814.814 0 0 0 .815-.815V6.01a.816.816 0 0 0-.815-.817z"/><path fill="#FFD645" d="M111.736 85.872c0 .45-.366.815-.818.815H68.88a.816.816 0 0 1-.817-.815V6.01c0-.45.365-.816.818-.816h42.038c.452 0 .818.367.818.816v79.862z"/><path d="M110.308 80.77a3.064 3.064 0 0 1-3.06 3.063H72.554a3.06 3.06 0 0 1-3.062-3.062V11.11a3.06 3.06 0 0 1 3.062-3.06h34.692a3.06 3.06 0 0 1 3.06 3.06v69.66z"/><path opacity=".15" fill="#FFF" d="M69.493 80.77V11.11a3.06 3.06 0 0 1 3.062-3.06h34.692c1.688.002-37.754 74.41-37.754 72.72z"/><path fill="#575756" d="M96.04 8.475c0 .235-.188.425-.425.425H84.048a.425.425 0 0 1-.426-.425c0-.233.192-.423.426-.423h11.567c.237 0 .426.19.426.423z"/><circle fill="#706F6F" cx="75.205" cy="11.043" r="1.156"/><g fill="#FFF"><path opacity=".7" d="M87.735 77.373h1.896v1.896h-1.895zM90.166 77.373h1.895v1.896h-1.894zM87.735 79.742h1.896v1.896h-1.895zM90.166 79.742h1.895v1.896h-1.894z"/></g></svg>