<svg xmlns="http://www.w3.org/2000/svg" width="97.414" height="96" viewBox="0 0 97.414 96"><path fill="#2686BC" d="M50.438 2.892a6.326 6.326 0 0 0-8.946 0L.022 38.04c.115 3.992 3.372 34.14 7.39 34.14h77.104c4.022 0 7.276-30.147 7.393-34.14L50.437 2.89z"/><path fill="#048E52" d="M97 18.46c.5.433.555 1.186.122 1.687l-42.815 49.54a1.194 1.194 0 0 1-1.685.12l-13.75-11.88a1.195 1.195 0 0 1-.122-1.685l42.815-49.54a1.194 1.194 0 0 1 1.687-.124l13.75 11.883z"/><path fill="#12C47B" d="M96.097 17.68c.5.432.553 1.186.12 1.687L53.403 68.905a1.194 1.194 0 0 1-1.684.12L37.97 57.146a1.193 1.193 0 0 1-.124-1.685L80.66 5.92A1.195 1.195 0 0 1 82.35 5.8l13.75 11.882z"/><g opacity=".3" fill="#2A0D00"><path d="M80.293 16.386l-.493.563-3.918-3.43.493-.563zM79.847 8.97l.488-.566 4.99 4.348-.488.566zM40.108 54.62l.49-.567 4.994 4.347-.49.56zM72.338 25.53l-.487.56-3.93-3.412.486-.56zM77.37 21.898l-.49.563-4.997-4.336.49-.563zM64.343 34.708l-.49.563-3.925-3.426.49-.563zM69.374 31.075l-.49.564-4.993-4.346.49-.564zM56.394 43.845l-.486.565-3.95-3.402.488-.565zM61.404 40.23l-.488.558-4.986-4.35.487-.558zM48.48 52.93l-.49.566-3.942-3.405.488-.564zM53.49 49.324l-.493.56-4.964-4.376.493-.56z"/></g><path opacity=".2" fill="#3C3C3B" d="M17.226 60.872l22.45-48.175 48.174 22.45L65.4 83.32z"/><path fill="#FFF" d="M37.977 13.164l48.175 22.45-22.45 48.175-48.175-22.452z"/><path fill="#CFF1FF" d="M39.866 18.335l41.117 19.16-17.09 36.67-41.116-19.16z"/><path fill="#B17F4A" d="M47.062 59.644l-.557-12.378-9.832 7.536z"/><path fill="#008D36" d="M62.826 73.67l-4.553-26.75L34.87 60.64z"/><path fill="#3AAA35" d="M27.782 44.26l-5.01 10.745 20.04 9.34-2.27-29.212z"/><path fill="#F39200" d="M63.124 35.2c-2.695 5.777-.193 12.648 5.586 15.34a11.477 11.477 0 0 0 5.703 1.05L80.98 37.5l-14.312-6.67a11.494 11.494 0 0 0-3.544 4.37z"/><path fill="#76CEFF" d="M42.282 31.024c-.424.97.008 2.1.967 2.515L53.463 38c1.77.774 3.838-.056 4.623-1.853.78-1.793-.016-3.876-1.784-4.647-.184-.08-.37-.14-.558-.188a4.396 4.396 0 0 0-2.57-3.314c-1.822-.798-3.893-.247-5.133 1.21-.073-.04-.148-.08-.225-.115-1.204-.525-2.573-.158-3.396.81a1.917 1.917 0 0 0-2.138 1.12z"/><path opacity=".2" fill="#3C3C3B" d="M14.12 26.09l-7.38 4.048v38.566h6.57v-.13h8.95v.25l11.02-.327-4.415-38.36h.044l-5.642-11.8-9.147 7.753zm-.76 4.048z"/><g><path fill="#FFD645" d="M31.43 67.013L9.467 69.65 4.884 31.487 26.85 28.85z"/><path fill="#FF8A00" d="M16.012 68.996l-6.524.785-4.61-38.286 6.525-.785z"/><path fill="#FFF2A2" d="M31.46 67.263l-6.56.786-4.603-38.414 6.56-.786z"/><path fill="#FFE0A9" d="M12.313.372L4.886 31.488h.006a3.306 3.306 0 0 0 6.566-.79 4.52 4.52 0 1 0 8.973-1.076h.008a3.227 3.227 0 0 0 3.59 2.82 3.232 3.232 0 0 0 2.822-3.59l.043-.007L12.313.372z"/><path opacity=".05" fill="#3C3C3B" d="M12.313.372L4.886 31.488h.006a3.306 3.306 0 0 0 6.566-.79c.296 2.48.855-30.326.855-30.326z"/><path fill="#3C3C3B" d="M17.835 11.152L12.313.372 9.503 12.15z"/></g><path fill="#3BA1F4" d="M91.81 38.128L50.438 73.195a6.325 6.325 0 0 1-8.946 0L.117 38.128A7.42 7.42 0 0 0 0 39.308v49.28A7.412 7.412 0 0 0 7.413 96h77.103a7.413 7.413 0 0 0 7.414-7.413v-49.28c0-.403-.057-.79-.12-1.18z"/><path fill="#76CEFF" d="M50.438 53.648a6.33 6.33 0 0 0-8.946 0L.022 88.798C.136 92.79 3.393 96 7.41 96h77.104c4.022 0 7.276-3.21 7.393-7.202l-41.472-35.15z"/><circle fill="#048E52" cx="85.326" cy="17.555" r="2.186"/><circle fill="#FFF" cx="85.666" cy="17.893" r="2.186"/></svg>