<svg xmlns="http://www.w3.org/2000/svg" width="98.392" height="75.071" viewBox="0 0 98.392 75.071"><path fill="#2FAC66" d="M88.597 0H9.794L0 16.73l49.196 58.34 49.196-58.34z"/><path fill="#12C47B" d="M28.363 16.73l20.833 58.34L70.03 16.73z"/><path fill="#49EA7F" d="M28.363 16.73l20.833 58.34L0 16.73z"/><path fill="#099358" d="M98.392 16.73L49.196 75.07l20.572-58.34z"/><path fill="#2FAC66" d="M28.623 16.73L49.196 0l20.572 16.73z"/><path fill="#49EA7F" d="M28.363 16.73L49.196 0H9.794z"/><path fill="#099358" d="M88.54 0H49.137l20.574 16.73z"/><path fill="#2FAC66" d="M69.928 16.73L88.598 0l9.794 16.73zM28.464 16.73L9.794 0 0 16.73z"/><path opacity=".1" fill="#1D1D1B" d="M88.54 0H49.137v75.07l49.197-58.34z"/><path fill="#FFD42D" d="M28.36 5.132A20.904 20.904 0 0 1 17.458 16.73a20.904 20.904 0 0 1 10.904 11.6 20.917 20.917 0 0 1 10.91-11.6A20.918 20.918 0 0 1 28.36 5.13z"/><path fill="#FF7600" d="M28.36 10.886a10.49 10.49 0 0 1-5.494 5.843 10.5 10.5 0 0 1 5.495 5.842 10.537 10.537 0 0 1 5.496-5.843 10.537 10.537 0 0 1-5.495-5.844z"/></svg>