<svg xmlns="http://www.w3.org/2000/svg" width="123.418" height="74.777" viewBox="0 0 123.418 74.777"><path fill="#3BA1F4" d="M104.07 18.77L65.74 50.64a5.808 5.808 0 0 1-8.22-.078L19.805 17.97a6.255 6.255 0 0 0-.12 1.082l-.432 45.29a6.813 6.813 0 0 0 6.75 6.878l70.856.677a6.815 6.815 0 0 0 6.88-6.75l.43-45.29a6.526 6.526 0 0 0-.097-1.086z"/><path fill="#76CEFF" d="M65.913 32.676a5.808 5.808 0 0 0-8.22-.078l-38.42 31.937c.067 3.672 3.034 6.65 6.73 6.685l70.855.677c3.7.034 6.718-2.887 6.856-6.556l-37.8-32.664z"/><path opacity=".3" fill="#1D1D1B" d="M57.46 56.71c2.252 2.428 5.928 2.465 8.222.078l38.46-35.982c-.068-3.892-3.032-7.04-6.728-7.074l-70.858-.675c-3.7-.034-6.718 3.057-6.86 6.944l37.765 36.71z"/><path fill="#76CEFF" d="M57.507 52.047a5.813 5.813 0 0 0 8.22.077l38.417-31.937c-.067-3.673-3.033-6.65-6.73-6.685l-70.856-.675c-3.7-.035-6.718 2.887-6.856 6.554l37.805 32.667z"/><path opacity=".3" fill="#1D1D1B" d="M123.23 42.944l-11.357-.108c.933 5.525-.75 11.397-5.055 15.622-6.98 6.846-18.196 6.737-25.043-.237L49.618 24.898C38.41 13.477 20.07 13.303 8.65 24.507 3.077 29.976.204 37.142.002 44.378l11.253.105c.174-4.35 1.924-8.646 5.276-11.938 6.99-6.856 18.2-6.75 25.053.24l12.142 12.37 20.01 20.942c11.207 11.42 29.545 11.594 40.97.39 6.522-6.39 9.36-15.11 8.525-23.542z"/><path fill="#E82E41" d="M115.128 22.386a28.752 28.752 0 0 0-14.37-7.968 6.824 6.824 0 0 1 3.228 4.425l.084-.07c.054.357.104.714.1 1.084l-.076 7.98a17.56 17.56 0 0 1 2.99 2.434c6.858 6.98 6.753 18.193-.236 25.05-6.98 6.85-18.198 6.742-25.043-.236l-32.16-33.32C38.44 10.34 20.102 10.165 8.68 21.37c-11.42 11.2-11.594 29.553-.39 40.97 4.053 4.13 9.047 6.724 14.302 7.895-2.013-1.2-3.363-3.382-3.34-5.892l.07-7.488c-1.056-.69-2.076-1.456-3-2.395-6.85-6.992-6.74-18.203.24-25.054 6.985-6.854 18.198-6.748 25.05.24l12.142 12.37 20.01 20.946c11.208 11.418 29.546 11.593 40.97.388 11.425-11.198 11.6-29.55.394-40.964z"/><path opacity=".3" fill="#1D1D1B" d="M19.252 64.343l.07-7.488c-1.056-.69-2.076-1.456-3-2.395-.187-.19-.35-.396-.526-.595l-.1 10.443c-.015 1.536.5 2.944 1.347 4.09a29.413 29.413 0 0 0 5.55 1.836c-2.013-1.2-3.364-3.38-3.34-5.89zM103.986 18.843l.084-.07c.054.357.104.714.1 1.084l-.076 7.98a17.56 17.56 0 0 1 2.99 2.434c.292.296.553.61.818.925l.108-11.3a6.714 6.714 0 0 0-.1-1.086l-.083.067c-.194-.89-.58-1.7-1.084-2.425a29.245 29.245 0 0 0-5.985-2.034 6.822 6.822 0 0 1 3.228 4.425z"/><path fill="#FFD42D" d="M51.29 9.544a21.72 21.72 0 0 1-11.437 11.938A21.69 21.69 0 0 1 51.06 33.634a21.69 21.69 0 0 1 11.437-11.938A21.698 21.698 0 0 1 51.29 9.544z"/><path fill="#FF7600" d="M51.233 15.522a10.94 10.94 0 0 1-5.767 6.013 10.895 10.895 0 0 1 5.65 6.12 10.918 10.918 0 0 1 5.76-6.013 10.93 10.93 0 0 1-5.643-6.12z"/><path fill="#FFD42D" d="M67.224 4.24a16.175 16.175 0 0 1-8.52 8.894 16.162 16.162 0 0 1 8.35 9.053 16.144 16.144 0 0 1 8.52-8.893 16.156 16.156 0 0 1-8.35-9.053z"/><path fill="#FF7600" d="M67.18 8.695a8.138 8.138 0 0 1-4.295 4.478 8.122 8.122 0 0 1 4.21 4.562 8.125 8.125 0 0 1 4.29-4.48 8.168 8.168 0 0 1-4.205-4.56z"/><g><path fill="#FFD42D" d="M44.095 0a9.745 9.745 0 0 1-5.135 5.36 9.745 9.745 0 0 1 5.034 5.457 9.728 9.728 0 0 1 5.135-5.36A9.748 9.748 0 0 1 44.094 0z"/><path fill="#FF7600" d="M44.068 2.684a4.905 4.905 0 0 1-2.588 2.702 4.88 4.88 0 0 1 2.537 2.748 4.9 4.9 0 0 1 2.586-2.7 4.927 4.927 0 0 1-2.535-2.75z"/></g></svg>