<svg xmlns="http://www.w3.org/2000/svg" width="108.139" height="76.98" viewBox="0 0 108.139 76.98"><path fill="#2AB9FF" d="M81.1 22.44v-.015h-.284c-.44-.03-.88-.068-1.33-.068-.45 0-.888.037-1.33.068H17.168V76.98h77.624a3.22 3.22 0 0 0 3.223-3.22V40.888c0-9.692-7.442-17.63-16.916-18.447z"/><path opacity=".2" fill="#3C3C3B" d="M51.84 34.56h45.048c-2.414-6.628-8.49-11.49-15.79-12.12v-.015h-.282c-.44-.03-.88-.068-1.33-.068-.45 0-.888.037-1.33.068H47.8V48.91c0 .118.017.233.035.344a4.433 4.433 0 0 0-2.45 3.974c.008 2.45 2 4.43 4.453 4.417a4.444 4.444 0 0 0 4.424-4.45c-.01-1.725-1.014-3.202-2.457-3.933.02-.114.035-.23.035-.352V34.56zM27.62 71.562v5.418h67.172a3.22 3.22 0 0 0 3.223-3.22v-2.198H27.62z"/><path opacity=".3" fill="#FFF" d="M21.077 38.794h76.808c-.544-4.867-2.982-9.147-6.552-12.123H21.077v12.124z"/><path fill="#0460A5" d="M18.53 22.357C8.294 22.357 0 30.653 0 40.887V73.76a3.22 3.22 0 0 0 3.223 3.22h30.61a3.22 3.22 0 0 0 3.224-3.22V40.888c0-10.235-8.294-18.53-18.528-18.53z"/><path fill="#48C7F9" d="M18.53 23.107c9.802 0 17.776 7.976 17.776 17.78V73.76c0 1.36-1.11 2.47-2.474 2.47H3.222A2.475 2.475 0 0 1 .75 73.76V40.887c0-9.805 7.976-17.78 17.78-17.78m0-.75C8.294 22.357 0 30.652 0 40.887V73.76a3.22 3.22 0 0 0 3.223 3.22h30.61a3.22 3.22 0 0 0 3.224-3.22V40.888c0-10.235-8.294-18.53-18.528-18.53z"/><path fill="#2AB9FF" d="M30.366 61.52c0 .934-.757 1.698-1.69 1.698H8.38a1.694 1.694 0 0 1-1.688-1.697c0-.93.755-1.687 1.688-1.687h20.296c.933 0 1.69.758 1.69 1.688zM30.366 54.696c0 .933-.757 1.697-1.69 1.697H8.38a1.694 1.694 0 0 1-1.688-1.697c0-.93.755-1.69 1.688-1.69h20.296c.933 0 1.69.76 1.69 1.69zM30.366 68.376a1.69 1.69 0 0 1-1.69 1.69H8.38a1.693 1.693 0 0 1 0-3.385h20.296c.933.002 1.69.764 1.69 1.696z"/><path fill="#E82E41" d="M52.815 51.75a4.443 4.443 0 0 1-4.423 4.45 4.43 4.43 0 0 1-4.453-4.417 4.43 4.43 0 0 1 4.41-4.46 4.453 4.453 0 0 1 4.465 4.427z"/><path fill="#E82E41" d="M50.395 47.465a2.02 2.02 0 0 1-2.02 2.023 2.02 2.02 0 0 1-2.02-2.023V14.298a2.02 2.02 0 0 1 2.02-2.02c1.113 0 2.02.903 2.02 2.02v33.167z"/><path fill="#0460A5" d="M50.438 51.758a2.064 2.064 0 0 1-4.126.013 2.07 2.07 0 0 1 2.052-2.073 2.07 2.07 0 0 1 2.074 2.06z"/><g fill="#0460A5"><path d="M92.7 65.052a2.678 2.678 0 0 1-5.36 0 2.68 2.68 0 0 1 2.678-2.678 2.68 2.68 0 0 1 2.68 2.678zM83.787 65.052a2.677 2.677 0 0 1-2.68 2.68 2.68 2.68 0 1 1 2.68-2.68zM74.282 65.052a2.678 2.678 0 0 1-5.357 0 2.68 2.68 0 0 1 2.68-2.678 2.68 2.68 0 0 1 2.677 2.678zM65.373 65.052a2.68 2.68 0 1 1-5.36.003 2.68 2.68 0 0 1 5.36-.003zM56.174 65.052a2.677 2.677 0 0 1-5.357 0 2.68 2.68 0 0 1 5.357 0zM47.266 65.052a2.68 2.68 0 0 1-2.684 2.68 2.68 2.68 0 0 1 0-5.358 2.683 2.683 0 0 1 2.684 2.678z"/></g><path fill="#E82E41" d="M99.964 31.385c0 .958-.77 1.728-1.726 1.728H48.082c-.954 0-1.727-.77-1.727-1.728V13.462c0-.955.772-1.727 1.727-1.727h50.156c.954 0 1.726.772 1.726 1.727v17.923z"/><path opacity=".1" fill="#3C3C3B" d="M99.964 31.385c0 .958-.77 1.728-1.726 1.728 0 0-46.384.396-45.536 0 .85-.396 47.262-19.65 47.262-19.65v17.922z"/><g fill="#FFF"><path d="M54.347 26.028l2.57-.266c.072.58.29 1.042.65 1.38.36.34.776.51 1.247.51.538 0 .994-.22 1.367-.656.374-.437.56-1.096.56-1.977 0-.827-.184-1.446-.554-1.86-.37-.412-.852-.618-1.445-.618-.74 0-1.402.327-1.99.98l-2.092-.302 1.32-7h6.818v2.413h-4.863l-.403 2.285a3.89 3.89 0 0 1 1.762-.43c1.144 0 2.113.415 2.908 1.247.795.832 1.193 1.912 1.193 3.24 0 1.106-.32 2.094-.964 2.962-.876 1.187-2.09 1.78-3.644 1.78-1.24 0-2.254-.333-3.037-1-.782-.668-1.25-1.564-1.403-2.69zM69.118 15.98c1.303 0 2.32.466 3.056 1.396.874 1.1 1.312 2.927 1.312 5.478 0 2.544-.44 4.373-1.32 5.486-.73.917-1.744 1.376-3.047 1.376-1.31 0-2.365-.503-3.166-1.51-.802-1.005-1.202-2.8-1.202-5.38 0-2.532.44-4.355 1.32-5.468.728-.918 1.743-1.377 3.046-1.377zm0 2.14c-.312 0-.59.1-.835.297-.244.2-.435.555-.568 1.07-.178.666-.267 1.788-.267 3.366s.08 2.662.238 3.252.36.983.602 1.18c.24.195.52.293.83.293s.59-.1.835-.298c.244-.2.435-.555.568-1.07.18-.66.268-1.78.268-3.357s-.08-2.662-.238-3.252c-.16-.59-.36-.984-.602-1.183a1.272 1.272 0 0 0-.83-.298zM79.568 15.98c1.303 0 2.32.466 3.056 1.396.874 1.1 1.312 2.927 1.312 5.478 0 2.544-.44 4.373-1.32 5.486-.73.917-1.744 1.376-3.047 1.376-1.31 0-2.365-.503-3.166-1.51-.802-1.005-1.202-2.8-1.202-5.38 0-2.532.44-4.355 1.32-5.468.728-.918 1.744-1.377 3.046-1.377zm0 2.14c-.312 0-.59.1-.835.297-.244.2-.435.555-.568 1.07-.178.666-.267 1.788-.267 3.366s.08 2.662.238 3.252.36.983.602 1.18c.24.195.52.293.83.293s.59-.1.835-.298c.244-.2.435-.555.568-1.07.18-.66.268-1.78.268-3.357S81.158 20.19 81 19.6c-.16-.59-.36-.984-.602-1.183a1.272 1.272 0 0 0-.83-.298zM90.02 15.98c1.302 0 2.32.466 3.055 1.396.874 1.1 1.312 2.927 1.312 5.478 0 2.544-.44 4.373-1.32 5.486-.73.917-1.744 1.376-3.047 1.376-1.31 0-2.364-.503-3.165-1.51-.802-1.005-1.202-2.8-1.202-5.38 0-2.532.44-4.355 1.32-5.468.727-.918 1.743-1.377 3.046-1.377zm0 2.14c-.313 0-.59.1-.836.297-.244.2-.435.555-.568 1.07-.178.666-.267 1.788-.267 3.366s.078 2.662.237 3.252.36.983.602 1.18c.24.195.518.293.83.293s.59-.1.834-.298c.244-.2.435-.555.568-1.07.178-.66.267-1.78.267-3.357s-.08-2.662-.24-3.252c-.158-.59-.358-.984-.6-1.183a1.276 1.276 0 0 0-.83-.298z"/></g><path fill="#FFD42D" d="M98.014 4.686a15.827 15.827 0 0 1-8.25 8.777 15.81 15.81 0 0 1 8.25 8.775 15.805 15.805 0 0 1 8.252-8.775 15.815 15.815 0 0 1-8.252-8.777z"/><path fill="#FF7600" d="M98.014 9.04a7.964 7.964 0 0 1-4.16 4.423 7.933 7.933 0 0 1 4.16 4.42 7.948 7.948 0 0 1 4.156-4.42 7.985 7.985 0 0 1-4.156-4.422z"/><path fill="#FFD42D" d="M105.153 4.686a5.717 5.717 0 0 1-2.983 3.172 5.71 5.71 0 0 1 2.983 3.173 5.713 5.713 0 0 1 2.985-3.172 5.734 5.734 0 0 1-2.985-3.172z"/><path fill="#FF7600" d="M105.153 6.26a2.874 2.874 0 0 1-1.503 1.597 2.88 2.88 0 0 1 1.503 1.597 2.887 2.887 0 0 1 1.502-1.597 2.883 2.883 0 0 1-1.502-1.598z"/><g><path fill="#FFD42D" d="M89.764 0a8.443 8.443 0 0 1-4.405 4.686 8.433 8.433 0 0 1 4.404 4.684 8.445 8.445 0 0 1 4.406-4.684A8.452 8.452 0 0 1 89.764 0z"/><path fill="#FF7600" d="M89.764 2.326a4.246 4.246 0 0 1-2.22 2.36 4.242 4.242 0 0 1 2.22 2.356 4.25 4.25 0 0 1 2.218-2.357 4.257 4.257 0 0 1-2.218-2.36z"/></g><circle fill="#2AB9FF" cx="18.528" cy="39.161" r="4.875"/></svg>