<svg xmlns="http://www.w3.org/2000/svg" width="84.204" height="86.981" viewBox="0 0 84.204 86.981"><path fill="#2686BC" d="M46.198 1.697a5.792 5.792 0 0 0-8.193 0L.02 33.892c.105 3.657 3.088 6.597 6.77 6.597h70.623c3.684 0 6.664-2.94 6.77-6.598L46.2 1.697z"/><path fill="#EDEDED" d="M78.662 10.804a3.86 3.86 0 0 0-3.863-3.86H9.4a3.86 3.86 0 0 0-3.86 3.86v68.818a3.862 3.862 0 0 0 3.86 3.863h65.4a3.862 3.862 0 0 0 3.862-3.863V10.804z"/><path fill="#3BA1F4" d="M84.093 33.973l-37.896 32.12a5.794 5.794 0 0 1-8.193 0L.108 33.973A6.78 6.78 0 0 0 0 35.053v45.14a6.79 6.79 0 0 0 6.79 6.79h70.623c3.75 0 6.79-3.042 6.79-6.79v-45.14c0-.368-.052-.725-.11-1.08z"/><path fill="#FF643F" d="M5.54 13.822h73.122v23.543H5.542z"/><path fill="#76CEFF" d="M46.198 48.19a5.796 5.796 0 0 0-8.193 0L.02 80.383c.105 3.658 3.088 6.597 6.77 6.597h70.623c3.684 0 6.664-2.938 6.77-6.596L46.2 48.19z"/><g fill="#FFF"><path d="M15.13 33.662v-15.66h10.736v2.65h-7.573v3.706h6.537v2.65h-6.537v6.653H15.13zM28.483 33.662v-15.66h6.655c1.673 0 2.89.142 3.647.423.76.28 1.366.78 1.82 1.5.457.72.685 1.543.685 2.468 0 1.176-.345 2.146-1.036 2.91-.69.767-1.723 1.25-3.098 1.448.684.4 1.248.838 1.693 1.314.444.478 1.044 1.325 1.8 2.543l1.91 3.055h-3.78l-2.286-3.407c-.812-1.218-1.367-1.985-1.667-2.303-.3-.316-.616-.533-.95-.65-.335-.118-.865-.177-1.592-.177h-.64v6.537h-3.162zm3.162-9.037h2.34c1.516 0 2.463-.063 2.84-.192.377-.128.673-.35.887-.662.213-.31.32-.704.32-1.174 0-.526-.14-.952-.422-1.276s-.678-.528-1.19-.614c-.257-.035-1.026-.053-2.308-.053h-2.467v3.972zM44.27 33.662v-15.66h11.61v2.65h-8.448v3.47h7.86v2.64h-7.86v4.262h8.748v2.64H44.27zM58.86 33.662v-15.66h11.612v2.65h-8.45v3.47h7.862v2.64h-7.86v4.262h8.747v2.64H58.86z"/></g><path opacity=".1" fill="#1D1D1B" d="M84.128 34.317c.013-.144.05-.28.055-.425l-5.52-4.68V10.804a3.86 3.86 0 0 0-3.864-3.86H52.387l-6.19-5.246A5.773 5.773 0 0 0 42.1 0v86.98h35.313a6.62 6.62 0 0 0 1.353-.136c.215-.043.41-.127.616-.19.213-.065.436-.11.64-.198a6.82 6.82 0 0 0 .836-.444c.095-.06.206-.1.297-.165a6.9 6.9 0 0 0 .93-.75c.02-.018.04-.03.056-.05a6.745 6.745 0 0 0 2.064-4.857V35.054c0-.254-.042-.495-.076-.737z"/></svg>