<svg xmlns="http://www.w3.org/2000/svg" width="89.661" height="96.047" viewBox="0 0 89.661 96.047"><path fill="#157FFF" d="M73.76 78.92c2.835 3.93 8.328 4.816 12.26 1.978 3.935-2.84 4.816-8.334 1.98-12.263L61.362 31.758a8.78 8.78 0 0 0-12.26-1.978c-3.933 2.84-4.82 8.33-1.976 12.262L73.76 78.92z"/><path fill="#157FFF" d="M67.035 76.382a1.52 1.52 0 0 0 1.26 1.746l10.26 1.655a1.525 1.525 0 0 0 1.75-1.264L81.96 68.25a1.526 1.526 0 0 0-1.263-1.744l-10.264-1.654a1.53 1.53 0 0 0-1.747 1.258l-1.65 10.27z"/><path fill="#157FFF" d="M61.333 68.487a1.52 1.52 0 0 0 1.26 1.745l10.266 1.655a1.52 1.52 0 0 0 1.743-1.26L76.26 60.36A1.53 1.53 0 0 0 75 58.613l-10.267-1.65a1.524 1.524 0 0 0-1.748 1.256l-1.652 10.267z"/><path fill="#FF643F" d="M1.716 68.43c-2.88 3.9-2.05 9.397 1.852 12.28a8.785 8.785 0 0 0 12.284-1.855l27.004-36.608a8.773 8.773 0 0 0-1.853-12.275c-3.905-2.883-9.405-2.056-12.282 1.854L1.717 68.43z"/><path opacity=".3" fill="#1D1D1B" d="M70.35 51.68a1.535 1.535 0 0 0-2.15-.348 1.542 1.542 0 0 0-.348 2.15l19.163 26.532a8.74 8.74 0 0 0 1.86-2.688L70.348 51.68z"/><path fill="#FF643F" d="M2.086 61.247a1.527 1.527 0 0 0-1.28 1.736l1.55 10.277c.13.835.904 1.407 1.734 1.28l10.283-1.55a1.527 1.527 0 0 0 1.276-1.738l-1.553-10.276a1.526 1.526 0 0 0-1.73-1.282l-10.28 1.553z"/><path fill="#FF643F" d="M7.866 53.414a1.52 1.52 0 0 0-1.278 1.73l1.55 10.282c.125.832.9 1.4 1.734 1.277l10.28-1.55a1.53 1.53 0 0 0 1.28-1.734l-1.555-10.28a1.525 1.525 0 0 0-1.732-1.282l-10.28 1.556z"/><path opacity=".3" fill="#1D1D1B" d="M22.676 40.032C27.6 47.057 35.756 51.65 44.988 51.65c9.245 0 17.414-4.606 22.334-11.646-5.183-6.615-7.292-7.282-22.334-7.282-15.04 0-16.267-.898-22.312 7.31z"/><circle fill="#F9D84B" cx="44.987" cy="24.421" r="24.42"/><path fill="#F9D84B" d="M31.716 80.663a1.587 1.587 0 0 0 0 2.242l7.656 7.654c.617.62 1.62.62 2.24 0l7.655-7.655a1.59 1.59 0 0 0 0-2.242l-7.655-7.655a1.585 1.585 0 0 0-2.24 0l-7.656 7.655z"/><path fill="#F9D84B" d="M31.716 70.528a1.58 1.58 0 0 0 0 2.237l7.656 7.657c.617.62 1.62.62 2.24 0l7.655-7.657a1.585 1.585 0 0 0 0-2.237l-7.655-7.655a1.585 1.585 0 0 0-2.24 0l-7.656 7.655z"/><path fill="#F9D84B" d="M35.844 86.905c0 5.05 4.095 9.142 9.144 9.142a9.14 9.14 0 0 0 9.14-9.142V39.548a9.14 9.14 0 0 0-9.14-9.142c-5.05 0-9.144 4.092-9.144 9.142v47.357z"/><path opacity=".2" fill="#1D1D1B" d="M45.46.024v95.974c4.824-.25 8.668-4.206 8.668-9.093v-39.85c8.955-3.62 15.28-12.382 15.28-22.634C69.407 11.094 58.727.28 45.46.025z"/><path fill="#BF8E36" d="M42.78 21.037a7.192 7.192 0 0 0 9.057-4.643 7.192 7.192 0 0 0-4.643-9.058 7.193 7.193 0 0 0-9.056 4.644 7.197 7.197 0 0 0 4.643 9.057z"/><path fill="#FFF" d="M42.78 21.976a7.19 7.19 0 0 0 9.057-4.643 7.193 7.193 0 0 0-4.643-9.06 7.194 7.194 0 0 0-9.056 4.645 7.198 7.198 0 0 0 4.643 9.058z"/><path opacity=".3" fill="#1D1D1B" d="M47.068 54.474c-.89 0-1.607.72-1.607 1.604v39.92c1.137-.06 2.22-.3 3.207-.736V56.078a1.6 1.6 0 0 0-1.6-1.604zM27.215 56.188a1.53 1.53 0 0 0-.325-2.15 1.54 1.54 0 0 0-2.154.323L4.774 81.425c1 .518 2.063.817 3.142.925l19.3-26.162z"/></svg>