<svg xmlns="http://www.w3.org/2000/svg" width="73" height="69" viewBox="0 0 73 69">
  <g>
    <circle cx="37.044" cy="35.545" r="25.956" fill="#0084fd"/>
    <path d="M28.3,44.749h6.981V37.065H27.418A45.761,45.761,0,0,0,28.3,44.749Z" fill="#78f1ff"/>
    <path d="M29.33,22.276h5.947v-8.42C32.859,14.9,30.752,17.971,29.33,22.276Z" fill="#78f1ff"/>
    <path d="M35.277,57.081V48.373H29.238C30.661,52.823,32.8,56.016,35.277,57.081Z" fill="#78f1ff"/>
    <path d="M27.437,33.434h7.84V25.9H28.356A45.8,45.8,0,0,0,27.437,33.434Z" fill="#78f1ff"/>
    <path d="M23.9,37.065H14.8a22.215,22.215,0,0,0,1.956,7.684h8.01A46.843,46.843,0,0,1,23.9,37.065Z" fill="#78f1ff"/>
    <path d="M29.6,14.412a22.364,22.364,0,0,0-10.547,7.864h6.712A26.166,26.166,0,0,1,29.6,14.412Z" fill="#78f1ff"/>
    <path d="M18.842,48.373a22.44,22.44,0,0,0,10.752,8.155,26.477,26.477,0,0,1-3.913-8.155Z" fill="#78f1ff"/>
    <path d="M24.832,25.9H16.89a22.223,22.223,0,0,0-2.052,7.535h9.079A45.644,45.644,0,0,1,24.832,25.9Z" fill="#78f1ff"/>
    <path d="M55.122,22.276a22.38,22.38,0,0,0-10.547-7.864,25.973,25.973,0,0,1,3.832,7.864Z" fill="#78f1ff"/>
    <path d="M50.263,33.434H59.34A22.267,22.267,0,0,0,57.288,25.9H49.339A45.815,45.815,0,0,1,50.263,33.434Z" fill="#78f1ff"/>
    <path d="M49.4,44.749h8.013a22.215,22.215,0,0,0,1.956-7.684H50.28A46.288,46.288,0,0,1,49.4,44.749Z" fill="#78f1ff"/>
    <path d="M44.575,56.528a22.382,22.382,0,0,0,10.757-8.155H48.5A26.373,26.373,0,0,1,44.575,56.528Z" fill="#78f1ff"/>
    <path d="M38.9,13.856v8.42h5.942C43.423,17.971,41.321,14.9,38.9,13.856Z" fill="#78f1ff"/>
    <path d="M45.814,25.9H38.9v7.535h7.835A44.229,44.229,0,0,0,45.814,25.9Z" fill="#78f1ff"/>
    <path d="M46.751,37.065H38.9v7.684h6.976A45.775,45.775,0,0,0,46.751,37.065Z" fill="#78f1ff"/>
    <path d="M38.9,48.373v8.708c2.473-1.064,4.608-4.257,6.039-8.708Z" fill="#78f1ff"/>
  </g>
  <path d="M69.447,30.589H3.553a3.786,3.786,0,0,0-3.553,4,3.786,3.786,0,0,0,3.553,4H5.079l6.768,27h0a3.225,3.225,0,0,0,3.179,3H58.218a3.211,3.211,0,0,0,3.173-3H61.4l6.773-27h1.273a3.786,3.786,0,0,0,3.553-4A3.786,3.786,0,0,0,69.447,30.589Z" fill="#ff4040" fill-rule="evenodd"/>
  <g opacity="0.3">
    <path d="M24,56.526a2.991,2.991,0,0,1-3,2.919h0a2.989,2.989,0,0,1-3-2.919V43.449a2.989,2.989,0,0,1,3-2.919h0a2.991,2.991,0,0,1,3,2.919Z"/>
  </g>
  <g opacity="0.3">
    <path d="M35,56.526a2.991,2.991,0,0,1-3,2.919h0a2.989,2.989,0,0,1-3-2.919V43.449a2.989,2.989,0,0,1,3-2.919h0a2.991,2.991,0,0,1,3,2.919Z"/>
  </g>
  <g opacity="0.3">
    <path d="M46,56.526a2.991,2.991,0,0,1-3,2.919h0a2.989,2.989,0,0,1-3-2.919V43.449a2.989,2.989,0,0,1,3-2.919h0a2.991,2.991,0,0,1,3,2.919Z"/>
  </g>
  <g opacity="0.3">
    <path d="M57,56.526a2.991,2.991,0,0,1-3,2.919h0a2.989,2.989,0,0,1-3-2.919V43.449a2.989,2.989,0,0,1,3-2.919h0a2.991,2.991,0,0,1,3,2.919Z"/>
  </g>
  <path d="M32,35.589a6,6,0,1,0,9.314-5H34.686A5.992,5.992,0,0,0,32,35.589Z" fill-rule="evenodd" opacity="0.1"/>
  <circle cx="37" cy="33.589" r="6" fill="#ff5252"/>
  <rect x="41.365" y="-2.205" width="8" height="42" rx="4" ry="4" transform="translate(15.129 -19.897) rotate(29.489)" fill="#5b5b5b"/>
  <circle cx="37" cy="33.589" r="2" fill="#ff5252"/>
  <path d="M69.447,30.589H58l-38,38H58.218a3.211,3.211,0,0,0,3.173-3H61.4l6.773-27h1.273a3.786,3.786,0,0,0,3.553-4A3.786,3.786,0,0,0,69.447,30.589Z" fill-rule="evenodd" opacity="0.1"/>
</svg>
