<svg xmlns="http://www.w3.org/2000/svg" width="87" height="70" viewBox="0 0 87 70">
  <g>
    <circle cx="60.716" cy="34.956" r="25" fill="#09ba59"/>
    <g>
      <path d="M52.29,43.821h6.724v-7.4h-7.57A44.076,44.076,0,0,0,52.29,43.821Z" fill="#6bd69b"/>
      <path d="M53.285,22.175h5.728v-8.11C56.684,15.067,54.655,18.028,53.285,22.175Z" fill="#6bd69b"/>
      <path d="M59.014,55.7V47.311H53.2C54.567,51.6,56.627,54.673,59.014,55.7Z" fill="#6bd69b"/>
      <path d="M51.462,32.923h7.551V25.665H52.347A44.113,44.113,0,0,0,51.462,32.923Z" fill="#6bd69b"/>
      <path d="M48.054,36.419H39.292a21.4,21.4,0,0,0,1.884,7.4h7.715A45.118,45.118,0,0,1,48.054,36.419Z" fill="#6bd69b"/>
      <path d="M53.545,14.6a21.541,21.541,0,0,0-10.159,7.574h6.464A25.2,25.2,0,0,1,53.545,14.6Z" fill="#6bd69b"/>
      <path d="M43.184,47.311A21.613,21.613,0,0,0,53.54,55.166a25.5,25.5,0,0,1-3.769-7.855Z" fill="#6bd69b"/>
      <path d="M48.953,25.665H41.3a21.405,21.405,0,0,0-1.977,7.258h8.745A43.964,43.964,0,0,1,48.953,25.665Z" fill="#6bd69b"/>
      <path d="M78.128,22.175A21.556,21.556,0,0,0,67.969,14.6a25.016,25.016,0,0,1,3.691,7.574Z" fill="#6bd69b"/>
      <path d="M73.447,32.923h8.743a21.447,21.447,0,0,0-1.977-7.258H72.558A44.129,44.129,0,0,1,73.447,32.923Z" fill="#6bd69b"/>
      <path d="M72.62,43.821h7.718a21.4,21.4,0,0,0,1.884-7.4H73.464A44.584,44.584,0,0,1,72.62,43.821Z" fill="#6bd69b"/>
      <path d="M67.969,55.166A21.557,21.557,0,0,0,78.33,47.311H71.751A25.4,25.4,0,0,1,67.969,55.166Z" fill="#6bd69b"/>
      <path d="M62.505,14.065v8.11h5.723C66.859,18.028,64.835,15.067,62.505,14.065Z" fill="#6bd69b"/>
      <path d="M69.162,25.665H62.505v7.258h7.547A42.6,42.6,0,0,0,69.162,25.665Z" fill="#6bd69b"/>
      <path d="M70.065,36.419h-7.56v7.4h6.719A44.089,44.089,0,0,0,70.065,36.419Z" fill="#6bd69b"/>
      <path d="M62.505,47.311V55.7c2.382-1.025,4.439-4.1,5.816-8.387Z" fill="#6bd69b"/>
    </g>
  </g>
  <path d="M54.869,10.65a24.8,24.8,0,0,0-4.413,1.509V57.752a25,25,0,0,0,35.26-22.8c0-.255-.012-.507-.019-.759L66.5,15Z" opacity="0.2"/>
  <g>
    <circle cx="48" cy="34.956" r="28" fill="#faa700"/>
    <path d="M38.563,44.885h7.531V36.6H37.616A49.365,49.365,0,0,0,38.563,44.885Z" fill="#fdd767"/>
    <path d="M39.678,20.641h6.415V11.558C43.485,12.681,41.212,16,39.678,20.641Z" fill="#fdd767"/>
    <path d="M46.094,58.187V48.793H39.579C41.113,53.595,43.421,57.039,46.094,58.187Z" fill="#fdd767"/>
    <path d="M37.636,32.679h8.458V24.55H38.627A49.406,49.406,0,0,0,37.636,32.679Z" fill="#fdd767"/>
    <path d="M33.818,36.6H24.006a23.964,23.964,0,0,0,2.11,8.29h8.641A50.532,50.532,0,0,1,33.818,36.6Z" fill="#fdd767"/>
    <path d="M39.969,12.158a24.125,24.125,0,0,0-11.378,8.483h7.24A28.227,28.227,0,0,1,39.969,12.158Z" fill="#fdd767"/>
    <path d="M28.365,48.793a24.207,24.207,0,0,0,11.6,8.8,28.562,28.562,0,0,1-4.222-8.8Z" fill="#fdd767"/>
    <path d="M34.826,24.55H26.258a23.974,23.974,0,0,0-2.214,8.129h9.794A49.239,49.239,0,0,1,34.826,24.55Z" fill="#fdd767"/>
    <path d="M67.5,20.641a24.143,24.143,0,0,0-11.378-8.483,28.018,28.018,0,0,1,4.134,8.483Z" fill="#fdd767"/>
    <path d="M62.26,32.679h9.793a24.021,24.021,0,0,0-2.214-8.129H61.263A49.424,49.424,0,0,1,62.26,32.679Z" fill="#fdd767"/>
    <path d="M61.333,44.885h8.644a23.964,23.964,0,0,0,2.11-8.29H62.278A49.934,49.934,0,0,1,61.333,44.885Z" fill="#fdd767"/>
    <path d="M56.124,57.591a24.144,24.144,0,0,0,11.6-8.8H60.36A28.45,28.45,0,0,1,56.124,57.591Z" fill="#fdd767"/>
    <path d="M50,11.558v9.083h6.41C54.881,16,52.614,12.681,50,11.558Z" fill="#fdd767"/>
    <path d="M57.46,24.55H50v8.129h8.452A47.713,47.713,0,0,0,57.46,24.55Z" fill="#fdd767"/>
    <path d="M58.472,36.6H50v8.29H57.53A49.38,49.38,0,0,0,58.472,36.6Z" fill="#fdd767"/>
    <path d="M50,48.793v9.394c2.668-1.148,4.971-4.593,6.514-9.394Z" fill="#fdd767"/>
  </g>
  <path d="M43.616,7.3A27.835,27.835,0,0,0,32,11.983V57.928A27.994,27.994,0,0,0,76,34.956c0-.132-.008-.262-.01-.393L51.781,10.353Z" opacity="0.2"/>
  <g>
    <path d="M64,34.956A32.005,32.005,0,0,0,35.754,3.174,32.335,32.335,0,0,0,32,2.956a32,32,0,1,0,32,32Z" fill="#0084fd"/>
    <path d="M21.215,46.3h8.607V36.829H20.132A56.417,56.417,0,0,0,21.215,46.3Z" fill="#78f1ff"/>
    <path d="M22.489,18.6h7.332V8.215C26.84,9.5,24.242,13.289,22.489,18.6Z" fill="#78f1ff"/>
    <path d="M29.821,61.506V50.77H22.376C24.13,56.257,26.767,60.194,29.821,61.506Z" fill="#78f1ff"/>
    <path d="M20.156,32.353h9.666v-9.29H21.288A56.464,56.464,0,0,0,20.156,32.353Z" fill="#78f1ff"/>
    <path d="M15.793,36.829H4.578A27.388,27.388,0,0,0,6.989,46.3h9.875A57.751,57.751,0,0,1,15.793,36.829Z" fill="#78f1ff"/>
    <path d="M22.822,8.9a27.572,27.572,0,0,0-13,9.7h8.274A32.259,32.259,0,0,1,22.822,8.9Z" fill="#78f1ff"/>
    <path d="M9.56,50.77A27.665,27.665,0,0,0,22.815,60.825,32.642,32.642,0,0,1,17.991,50.77Z" fill="#78f1ff"/>
    <path d="M16.944,23.064H7.152a27.4,27.4,0,0,0-2.53,9.29H15.815A56.274,56.274,0,0,1,16.944,23.064Z" fill="#78f1ff"/>
    <path d="M54.287,18.6a27.592,27.592,0,0,0-13-9.7,32.021,32.021,0,0,1,4.724,9.7Z" fill="#78f1ff"/>
    <path d="M48.3,32.353H59.488a27.453,27.453,0,0,0-2.53-9.29h-9.8A56.484,56.484,0,0,1,48.3,32.353Z" fill="#78f1ff"/>
    <path d="M47.237,46.3h9.879a27.388,27.388,0,0,0,2.411-9.474H48.318A57.067,57.067,0,0,1,47.237,46.3Z" fill="#78f1ff"/>
    <path d="M41.285,60.825A27.594,27.594,0,0,0,54.547,50.77H46.126A32.514,32.514,0,0,1,41.285,60.825Z" fill="#78f1ff"/>
    <path d="M34.291,8.215V18.6h7.326C39.864,13.289,37.273,9.5,34.291,8.215Z" fill="#78f1ff"/>
    <path d="M42.812,23.064H34.291v9.29h9.66A54.529,54.529,0,0,0,42.812,23.064Z" fill="#78f1ff"/>
    <path d="M43.967,36.829H34.291V46.3h8.6A56.434,56.434,0,0,0,43.967,36.829Z" fill="#78f1ff"/>
    <path d="M34.291,50.77V61.506c3.049-1.312,5.681-5.249,7.445-10.736Z" fill="#78f1ff"/>
  </g>
</svg>
