<svg xmlns="http://www.w3.org/2000/svg" width="87" height="70" viewBox="0 0 87 70">
  <path d="M10.932,57.72H10.76a2.927,2.927,0,0,1-2.924-2.928V24.635a2.929,2.929,0,0,1,2.924-2.929H40.921a2.927,2.927,0,0,1,2.924,2.929V54.792a2.926,2.926,0,0,1-2.924,2.928h-.173" fill="#fff"/>
  <path d="M29.681,39.813l8.847-8.844a2.89,2.89,0,0,0-4.087-4.087l-8.847,8.844-8.847-8.844a2.89,2.89,0,1,0-4.087,4.087l8.847,8.844-8.844,8.844a2.89,2.89,0,0,0,4.087,4.087L25.595,43.9l8.844,8.844a2.89,2.89,0,1,0,4.087-4.087Z" fill="#eb4444"/>
  <g>
    <path d="M19.463,11.264a3.939,3.939,0,0,1-3.94,3.94h0a3.946,3.946,0,0,1-3.947-3.94V3.942A3.947,3.947,0,0,1,15.523,0h0a3.94,3.94,0,0,1,3.94,3.942Z" fill="#5b5b5b"/>
    <path d="M76.136,11.264A3.94,3.94,0,0,1,72.2,15.2h0a3.944,3.944,0,0,1-3.947-3.94V3.942A3.944,3.944,0,0,1,72.2,0h0a3.941,3.941,0,0,1,3.94,3.942Z" fill="#5b5b5b"/>
    <path d="M81.182,11.13H77.887v1.156a5.694,5.694,0,1,1-11.387,0V11.13H21.215v1.156a5.693,5.693,0,1,1-11.386,0V11.13H5.079A5.079,5.079,0,0,0,0,16.215V58.924A5.076,5.076,0,0,0,5.079,64h76.1a5.076,5.076,0,0,0,5.079-5.076V16.215A5.079,5.079,0,0,0,81.182,11.13ZM10.932,57.72H10.76a2.927,2.927,0,0,1-2.924-2.928V24.635a2.929,2.929,0,0,1,2.924-2.929H40.921a2.927,2.927,0,0,1,2.924,2.929V54.792a2.926,2.926,0,0,1-2.924,2.928h-.173m-26.1-7.059M76.436,52.75H53.461a3.1,3.1,0,0,1,0-6.208H76.436a3.1,3.1,0,0,1,0,6.208Zm0-9.933H53.461a3.1,3.1,0,0,1,0-6.209H76.436a3.1,3.1,0,0,1,0,6.209Zm0-9.933H53.461a3.1,3.1,0,0,1,0-6.209H76.436a3.1,3.1,0,0,1,0,6.209Z" fill="#19bdd8"/>
  </g>
  <path d="M81.182,64a5.076,5.076,0,0,0,5.079-5.076V16.215a5.079,5.079,0,0,0-5.079-5.084H77.887v1.156a5.694,5.694,0,1,1-11.387,0V11.13H64.893L24.37,64Z" opacity="0.1"/>
</svg>
