<svg xmlns="http://www.w3.org/2000/svg" width="70" height="70" viewBox="0 0 70 70">
  <g>
    <path d="M49.4,0a4.827,4.827,0,0,1,4.828,4.828V63.034A4.825,4.825,0,0,1,49.4,67.862H4.831A4.827,4.827,0,0,1,0,63.034V15.113L15.117,0Z" fill="#19bdd8"/>
    <polygon points="0 15.113 13.437 13.94 0 27.119 0 15.113" fill="#3c3c3b" opacity="0.2"/>
    <path d="M10.286,15.113H0L15.117,0V10.283A4.83,4.83,0,0,1,10.286,15.113Z" fill="#008593"/>
    <g>
      <rect x="20.666" y="16.181" width="27.746" height="3.378" fill="#fff"/>
      <rect x="20.666" y="7.557" width="27.746" height="3.381" fill="#fff"/>
      <rect x="5.819" y="24.435" width="42.593" height="3.381" fill="#fff"/>
      <rect x="5.819" y="32.625" width="42.593" height="3.381" fill="#fff"/>
      <rect x="5.819" y="41.316" width="42.593" height="3.378" fill="#fff"/>
      <rect x="5.819" y="49.507" width="42.593" height="3.381" fill="#fff"/>
      <rect x="5.819" y="57.394" width="42.593" height="3.378" fill="#fff"/>
    </g>
  </g>
  <circle cx="47.727" cy="48.788" r="21.212" fill="#4caf5e"/>
  <polygon points="60.74 41.346 56.807 37.926 44.416 51.914 38.383 45.226 34.716 48.675 44.49 59.654 60.74 41.346" fill="#fff"/>
</svg>
