<svg xmlns="http://www.w3.org/2000/svg" width="64" height="64" viewBox="0 0 64 64">
  <g>
    <rect width="63.959" height="64" rx="4.177" ry="4.177" fill="#0068ba"/>
    <path d="M59.782,62.39H4.177A2.571,2.571,0,0,1,1.61,59.823V4.177A2.571,2.571,0,0,1,4.177,1.61h55.6a2.57,2.57,0,0,1,2.567,2.567V59.823A2.57,2.57,0,0,1,59.782,62.39ZM4.177,3.9a.282.282,0,0,0-.281.281V59.823a.282.282,0,0,0,.281.281h55.6a.281.281,0,0,0,.281-.281V4.177a.281.281,0,0,0-.281-.281Z" fill="#fff"/>
    <path d="M17.435,10.352H35.716a17.387,17.387,0,0,1,7.2,1.277,11.366,11.366,0,0,1,4.294,3.192A10.856,10.856,0,0,1,49.267,19a17.763,17.763,0,0,1,.551,4.178,17.4,17.4,0,0,1-.551,4.149,10.871,10.871,0,0,1-2.06,4.149,11.111,11.111,0,0,1-4.294,3.163,17.724,17.724,0,0,1-7.2,1.248H24.689v15.9H17.435Zm7.254,19.615h10.62a9.469,9.469,0,0,0,2.5-.348,7.156,7.156,0,0,0,2.35-1.132A5.8,5.8,0,0,0,41.9,26.4a7.176,7.176,0,0,0,.667-3.279,8.486,8.486,0,0,0-.58-3.366,5.381,5.381,0,0,0-1.567-2.118,5.59,5.59,0,0,0-2.263-1.074,12.306,12.306,0,0,0-2.728-.29H24.689Z" fill="#fff"/>
  </g>
</svg>
