<svg xmlns="http://www.w3.org/2000/svg" width="51" height="63" viewBox="0 0 51 63">
  <g>
    <path d="M19.393,51.092H16.08c0-.056,0-9.839,0-10.095a4.729,4.729,0,0,0-4.76-4.605V33.08a8.028,8.028,0,0,1,8.072,7.858C19.393,41.033,19.393,50.992,19.393,51.092Z" fill="#878787"/>
    <path d="M5.6,0a.919.919,0,0,1,.859.97V9.69a.919.919,0,0,1-.859.97H4.958A.919.919,0,0,1,4.1,9.69V.97A.919.919,0,0,1,4.958,0Z" fill="#b2b2b2"/>
    <rect x="1.106" y="3.219" width="8.346" height="6.838" fill="#edc500"/>
    <path d="M11.456,33.08v3.312a8.084,8.084,0,0,1-8.075-8.074H6.694A4.768,4.768,0,0,0,11.456,33.08Z" fill="#878787"/>
    <rect x="2.715" y="3.219" width="2.716" height="6.838" fill="#fff" opacity="0.3"/>
    <path d="M.805,8.672h8.95a.8.8,0,0,1,.8.8v18.4a.8.8,0,0,1-.8.8H.8a.8.8,0,0,1-.8-.8V9.477a.805.805,0,0,1,.805-.805Z" fill="#8cc63f"/>
    <path d="M8.247,28.684H9.755a.8.8,0,0,0,.8-.8V9.477a.8.8,0,0,0-.8-.805H8.247Z" fill="#3c3c3b" opacity="0.4"/>
    <rect x="1.932" y="8.752" width="4.555" height="19.98" fill="#fff" opacity="0.2"/>
    <path d="M39.074,33.08v3.312a4.735,4.735,0,0,0-4.76,4.634c0,.227,0,10.01,0,10.066H31c0-.1,0-10.059,0-10.157A8.027,8.027,0,0,1,39.074,33.08Z" fill="#878787"/>
    <path d="M47.011,28.318a8.083,8.083,0,0,1-8.075,8.074V33.08A4.767,4.767,0,0,0,43.7,28.318Z" fill="#878787"/>
    <rect x="23.555" y="27.419" width="3.312" height="22.981" fill="#878787"/>
    <path d="M45.815,0a.919.919,0,0,1,.859.97V9.69a.919.919,0,0,1-.859.97h-.643a.919.919,0,0,1-.859-.97V.97A.919.919,0,0,1,45.172,0Z" fill="#b2b2b2"/>
    <rect x="41.32" y="3.219" width="8.346" height="6.838" fill="#edc500"/>
    <rect x="42.928" y="3.219" width="2.716" height="6.838" fill="#fff" opacity="0.3"/>
    <rect x="40.214" y="8.672" width="10.559" height="20.011" rx="0.804" ry="0.804" fill="#8cc63f"/>
    <path d="M48.461,28.683h1.508a.8.8,0,0,0,.8-.8V9.477a.8.8,0,0,0-.8-.805H48.461Z" fill="#3c3c3b" opacity="0.4"/>
    <rect x="42.146" y="8.752" width="4.555" height="19.98" fill="#fff" opacity="0.2"/>
    <path d="M25.878,0a.92.92,0,0,1,.859.97V9.69a.92.92,0,0,1-.859.97h-.644a.92.92,0,0,1-.859-.97V.97A.92.92,0,0,1,25.234,0Z" fill="#b2b2b2"/>
    <rect x="21.383" y="3.219" width="8.346" height="6.838" fill="#edc500"/>
    <rect x="22.992" y="3.219" width="2.715" height="6.838" fill="#fff" opacity="0.3"/>
    <path d="M21.082,8.672h8.949a.805.805,0,0,1,.805.805v18.4a.8.8,0,0,1-.8.8H21.081a.8.8,0,0,1-.8-.8V9.477a.805.805,0,0,1,.805-.805Z" fill="#8cc63f"/>
    <path d="M28.523,28.683h1.508a.8.8,0,0,0,.805-.8V9.477a.805.805,0,0,0-.805-.805H28.523Z" fill="#3c3c3b" opacity="0.4"/>
    <rect x="22.209" y="8.752" width="4.554" height="19.98" fill="#fff" opacity="0.2"/>
  </g>
  <g>
    <path d="M45,58.209a2.16,2.16,0,0,1-2.2,2.125H7.2A2.163,2.163,0,0,1,5,58.209H5a2.161,2.161,0,0,1,2.2-2.125H42.8A2.158,2.158,0,0,1,45,58.209Z" fill="#878787"/>
    <path d="M37.832,60.577A1.894,1.894,0,0,1,35.8,62.288H14.864a1.892,1.892,0,0,1-2.032-1.711V56.529a1.892,1.892,0,0,1,2.032-1.709H35.8a1.894,1.894,0,0,1,2.037,1.709Z" fill="#8cc63f"/>
    <path d="M27.109,50.3a1.578,1.578,0,0,1,1.6,1.551V58.5a1.578,1.578,0,0,1-1.6,1.552h-3.8a1.579,1.579,0,0,1-1.6-1.552V51.855a1.58,1.58,0,0,1,1.6-1.551Z" fill="#8cc63f"/>
    <path d="M34.759,50.3a1.578,1.578,0,0,1,1.6,1.551V58.5a1.578,1.578,0,0,1-1.6,1.552h-3.8a1.579,1.579,0,0,1-1.6-1.552V51.855a1.58,1.58,0,0,1,1.6-1.551Z" fill="#8cc63f"/>
    <path d="M19.634,50.3a1.578,1.578,0,0,1,1.6,1.551V58.5a1.578,1.578,0,0,1-1.6,1.552h-3.8a1.579,1.579,0,0,1-1.6-1.552V51.855a1.58,1.58,0,0,1,1.6-1.551Z" fill="#8cc63f"/>
  </g>
  <path d="M37.832,60.577A1.894,1.894,0,0,1,35.8,62.288H14.864a1.892,1.892,0,0,1-2.032-1.711V59.529c0-.943,25-.943,25,0Z" fill="#3c3c3b" opacity="0.4"/>
</svg>
