<svg xmlns="http://www.w3.org/2000/svg" width="64" height="70" viewBox="0 0 64 70">
  <g>
    <path d="M50.956,0a4.975,4.975,0,0,1,4.978,4.978v60.04A4.977,4.977,0,0,1,50.956,70H4.978A4.98,4.98,0,0,1,0,65.019V15.591L15.591,0Z" fill="#ffe4c0"/>
    <polygon points="0 15.591 13.861 14.379 0 27.969 0 15.591" fill="#3c3c3b" opacity="0.2"/>
    <path d="M10.612,15.591H0L15.591,0V10.607A4.985,4.985,0,0,1,10.612,15.591Z" fill="#af967b"/>
    <rect x="21.96" y="16.689" width="28.62" height="3.491" opacity="0.3"/>
    <rect x="21.96" y="7.794" width="28.62" height="3.486" opacity="0.3"/>
    <rect x="6.645" y="60.38" width="18.375" height="3.482" opacity="0.3"/>
    <rect x="6.645" y="51.484" width="18.375" height="3.484" opacity="0.3"/>
    <rect x="6.645" y="25.205" width="43.935" height="3.486" opacity="0.3"/>
    <rect x="6.645" y="33.656" width="43.935" height="3.483" opacity="0.3"/>
    <rect x="6.645" y="42.615" width="43.935" height="3.491" opacity="0.3"/>
    <path d="M32.5,64.152,27.234,52.958a.8.8,0,1,1,1.452-.687L32.5,60.377l4.536-9.65,4.546,9.65,4.547-9.648L51.4,61.92a.8.8,0,1,1-1.453.685L46.13,54.5l-4.547,9.652L37.037,54.5Z" fill="#ff4040"/>
  </g>
</svg>
