<svg xmlns="http://www.w3.org/2000/svg" width="70" height="70" viewBox="0 0 70 70">
  <g>
    <circle cx="33.5" cy="33.5" r="33.5" fill="#09ba59"/>
    <g>
      <path d="M22.209,45.379h9.01V35.461H21.076A59.061,59.061,0,0,0,22.209,45.379Z" fill="#6bd69b"/>
      <path d="M23.544,16.374h7.676V5.506C28.1,6.85,25.379,10.817,23.544,16.374Z" fill="#6bd69b"/>
      <path d="M31.219,61.3V50.056H23.425C25.261,55.8,28.021,59.921,31.219,61.3Z" fill="#6bd69b"/>
      <path d="M21.1,30.776H31.219V21.05H22.286A59.111,59.111,0,0,0,21.1,30.776Z" fill="#6bd69b"/>
      <path d="M16.533,35.461H4.793a28.672,28.672,0,0,0,2.524,9.918H17.655A60.458,60.458,0,0,1,16.533,35.461Z" fill="#6bd69b"/>
      <path d="M23.891,6.224a28.864,28.864,0,0,0-13.613,10.15h8.662A33.771,33.771,0,0,1,23.891,6.224Z" fill="#6bd69b"/>
      <path d="M10.008,50.056A28.962,28.962,0,0,0,23.885,60.582a34.173,34.173,0,0,1-5.051-10.526Z" fill="#6bd69b"/>
      <path d="M17.738,21.05H7.488a28.683,28.683,0,0,0-2.649,9.725H16.557A58.911,58.911,0,0,1,17.738,21.05Z" fill="#6bd69b"/>
      <path d="M56.832,16.374A28.886,28.886,0,0,0,43.22,6.224a33.522,33.522,0,0,1,4.946,10.15Z" fill="#6bd69b"/>
      <path d="M50.561,30.776H62.277a28.739,28.739,0,0,0-2.649-9.725H49.369A59.132,59.132,0,0,1,50.561,30.776Z" fill="#6bd69b"/>
      <path d="M49.452,45.379H59.794a28.672,28.672,0,0,0,2.524-9.918H50.583A59.742,59.742,0,0,1,49.452,45.379Z" fill="#6bd69b"/>
      <path d="M43.22,60.582A28.887,28.887,0,0,0,57.1,50.056H48.288A34.038,34.038,0,0,1,43.22,60.582Z" fill="#6bd69b"/>
      <path d="M35.9,5.506V16.374h7.669C41.732,10.817,39.02,6.85,35.9,5.506Z" fill="#6bd69b"/>
      <path d="M44.819,21.05H35.9v9.725H46.011A57.085,57.085,0,0,0,44.819,21.05Z" fill="#6bd69b"/>
      <path d="M46.028,35.461H35.9v9.918h9A59.08,59.08,0,0,0,46.028,35.461Z" fill="#6bd69b"/>
      <path d="M35.9,50.056V61.3c3.191-1.374,5.948-5.495,7.794-11.239Z" fill="#6bd69b"/>
    </g>
  </g>
  <path d="M13.941,60.689A33.5,33.5,0,0,0,59.408,12.264Z" opacity="0.1"/>
  <g>
    <circle cx="49.788" cy="49.788" r="20.212" fill="#eb4444"/>
    <g>
      <path d="M54.039,51.352,50.192,49.7V43.03a.748.748,0,0,0-1.5,0v7.086c0,.014.007.026.008.04a.741.741,0,0,0,.45.729l4.306,1.846a.748.748,0,0,0,.579-1.379Z" fill="#fff"/>
      <path d="M49.787,36.788a13,13,0,1,0,13,13A13.013,13.013,0,0,0,49.787,36.788Zm0,23.4a10.4,10.4,0,1,1,10.4-10.4A10.412,10.412,0,0,1,49.787,60.189Z" fill="#fff"/>
    </g>
  </g>
</svg>
