<svg xmlns="http://www.w3.org/2000/svg" width="160.769" height="163.241" viewBox="0 0 160.769 163.241"><path fill="#FFF" d="M85.688 163.03c-.187-.298-.38.295-.573 0-.152-.243-.293.24-.45 0h-8.11c3.018.646 6.047-.438 9.133 0z"/><path fill="#63D4FC" d="M36.727 163.03H156.95V.01H28.935C7.77 23.605-3.404 58.06.982 91.97c3.564 27.497 16.764 53.703 35.745 71.057z"/><path fill="#00A936" d="M47.45 104.817c-.61-.157-1.426-.212-1.972-.212-.706 0-1.223.04-1.695.22-1.377.608-1.26 2.084 2.885 3.92 1.207 1.23 3.252 2.247 4.93 1.333.657-3.076-1.713-4.566-4.133-5.066-.016-.195 0-.125-.016-.195zM59.743 73.205c.182.12.34.34.49.36l.213-.022c1.078.154 1.956-1.032 1.152-1-.316 0-.905.147-1.855.662zM82.727 60.96c-1.617.502-1.873 1.652 1.994 3.635.427-.176 3.39-1.26 1.832.815 5.1-4.004-1.077-5.326-3.825-4.45zM79.682 37.4c5.628-3.19 4.973-18.996-2.045-17.62-.465.06-.888.348-1.425.64 3.67 5.08-2.284 12.897 3.47 16.98zM141.745 36.912c-1.365.28-1.498 1.282 1.315 3.295-1.627 5.86 4.67 5.346 6.44 1.326.052-3.325-5.44-5.05-7.755-4.62zM90.68 4.053c-.474-.057-.823-.125-1.274-.037-.466.074-.896.29-1.238.36-4.867 1.66-2.283 9.753 2.994 3.323 1.595-1.017 2.052-3.97-.48-3.647z"/><path fill="#00A936" d="M99.03 41.618c3.17-10.508 14.288-19.944 9.714-31.666-1.935-5.012-6.52-6.222-10.822-5.094-7.123 1.848-13.524 9.785-5.895 15.85 5.598 5.394-4.59 19.213 7.003 20.91z"/><path fill="none" d="M114.218 92.62c4.835-.627 9.602-1.29 14.303-1.987-.52-4.72-1.103-9.495-1.72-14.32a829.446 829.446 0 0 0-1.985-14.293c-4.72.523-9.5 1.1-14.33 1.727a788.655 788.655 0 0 0-14.296 1.98c.534 4.718 1.106 9.502 1.72 14.325.64 4.825 1.292 9.59 1.982 14.29a783.93 783.93 0 0 0 14.326-1.723zM94.334 66.002c-11.993 1.803-23.454 3.81-34.043 5.96a243.225 243.225 0 0 0 3.298 25.485c10.797-.615 22.39-1.59 34.438-2.9a916.33 916.33 0 0 1-1.97-14.26c-.617-4.808-1.203-9.58-1.722-14.285zM29.526 98.083c1.915.065 3.988.11 6.213.124 7.813.082 16.57-.14 25.972-.648a238.027 238.027 0 0 1-1.977-12.565c-.55-4.24-.97-8.47-1.3-12.65-9.206 1.903-17.73 3.914-25.265 5.98a242.594 242.594 0 0 0-5.968 1.708c.196 3.01.49 6.03.88 9.063.376 3.026.878 6.027 1.444 8.987zM63.934 99.314c2.1 10.866 4.917 21.25 8.328 30.88 10.187.86 20.94.93 31.98.188-2.136-10.57-4.15-22.02-5.93-33.98-12.022 1.313-23.6 2.288-34.378 2.912zM114.467 94.48a826.622 826.622 0 0 1-14.29 1.716c1.804 11.993 3.81 23.46 5.96 34.044 4.228-.32 8.502-.75 12.786-1.303 4.295-.554 8.53-1.233 12.706-2-.618-10.786-1.586-22.388-2.893-34.44a756.736 756.736 0 0 1-14.27 1.982zM30.085 52.526c-.76.482-1.488.97-2.223 1.464a138.98 138.98 0 0 0-.794 24.115 241.98 241.98 0 0 1 5.584-1.59c7.662-2.096 16.292-4.13 25.65-6.06-.747-10.917-.716-21.563.095-31.66-10.506 3.875-20.07 8.49-28.312 13.73zM35.712 100.085a258.228 258.228 0 0 1-5.81-.116c1.657 8.024 3.976 15.768 6.914 23.13.82.28 1.65.568 2.51.842 9.31 2.966 19.73 4.988 30.88 6.058-3.35-9.547-6.1-19.836-8.158-30.585-9.53.523-18.396.75-26.336.67zM38.758 125.73c-.33-.118-.665-.227-.996-.336 4.32 10.304 9.86 19.805 16.46 28.21 7.068 3.054 14.566 7.745 22.334 9.416h8.11c-5.258-8.384-9.897-20.414-13.77-31.07-11.608-1.045-22.476-3.13-32.138-6.22zM60.31 163.03h8.55c-4.147-1.165-8.205-4.796-12.14-6.364 1.167 1.373 2.368 5.05 3.59 6.363zM41.642 149.352c-6.15-3.59-11.69-7.666-16.58-12.162 6.112 8.946 13.57 19.188 22.005 25.84h10.707c-1.626-1.797-3.208-5.973-4.735-7.885-3.93-1.734-7.742-3.655-11.398-5.793zM141.972 163.03h12.572c.656-1.5 1.284-5.365 1.887-6.973-4.68 1.803-9.51 5.668-14.458 6.972zM131.726 128.828c-4.12.766-8.31 1.422-12.56 1.977-4.242.546-8.462.975-12.647 1.295 1.905 9.22 3.915 17.73 5.977 25.276.32 1.156.628 4.583.937 5.653h18.833c.055-1.837.1-6.122.117-8.23.076-7.82-.155-16.572-.658-25.972zM104.627 132.24c-10.908.734-21.557.703-31.646-.117 3.864 10.523 8.478 22.662 13.724 30.906.055.077.105-.087.16 0h24.632c-.27-.946-.53-4.17-.807-5.155-2.097-7.657-4.132-16.283-6.063-25.635zM25.817 55.39c-8.94 6.317-15.423 13.057-19.207 19.893-.06 3.49.043 7.006.335 10.553 4.037-2.29 10.134-4.685 18.27-7.177-.435-7.878-.227-15.67.602-23.27zM27.965 99.906c-8.442-.335-14.913-1.09-19.402-2.26a108.68 108.68 0 0 0 2.642 10.645c5.39 5.488 13.236 10.227 23.272 13.974a142.612 142.612 0 0 1-6.512-22.358zM42.582 147.736a109.893 109.893 0 0 0 8.032 4.23c-6.093-8.25-11.197-17.463-15.223-27.377-9.545-3.397-17.293-7.66-23.007-12.616a105.833 105.833 0 0 0 8.158 18.002c6.012 6.714 13.408 12.702 22.042 17.76zM26.114 52.907c1.366-10.617 3.967-20.83 7.748-30.357a109.673 109.673 0 0 0-6.69 6.145c-7.79 7.805-13.817 16.32-17.997 25.243a107.21 107.21 0 0 0-2.43 17.512c4.257-6.424 10.78-12.69 19.37-18.543zM26.204 89.335c-.38-2.923-.666-5.84-.863-8.743-9.538 2.95-15.045 5.404-18.21 7.308.095 1.028.22 2.042.352 3.074.21 1.55.44 3.095.71 4.625 3.556 1.02 9.484 1.99 19.395 2.41a147.555 147.555 0 0 1-1.383-8.675zM110.247 61.88a749.99 749.99 0 0 1 14.298-1.717c-1.807-11.995-3.818-23.466-5.965-34.047-4.235.314-8.493.75-12.793 1.307-4.29.558-8.524 1.222-12.7 1.993.627 10.782 1.59 22.387 2.9 34.44a819.96 819.96 0 0 1 14.26-1.976zM29.082 50.948c8.548-5.452 18.52-10.235 29.496-14.213 1.058-11.62 3.15-22.472 6.236-32.143.102-.343.218-.67.33-1.01-10.303 4.324-19.81 9.873-28.206 16.47-4.24 9.795-7.182 20.4-8.732 31.467.28-.188.58-.38.876-.572z"/><path fill="#00A936" d="M103.574 149.89c-11.647-5.737-20.825-15.635-33.595-19.382-11.063-8.268-32.468.53-34.407-17.564-.07-8.688-7.498-11.96-13.182-15.307-5.667-12.76 17.897-20.758 20.105-6.272 7.916-1.454 8.916-15.71 17.85-18.915 4.2-4.726 17.595-1.96 11.865-9.76 4.028-4.942 17.49-6.54 9.586-15.877-3.48-9.65-16.312-12.865-18.888-1.04-10.662 4.4-9.3-20.148 2.37-18.413 8.212-.59 6.182-7.53.94-9.17-.04-.345-.187-.526-.45-.172-.943-.226-1.938-.44-3.035-.248C56.136 15.155 59.48 6.11 61.055.01h-14.63c-13.07 15.087-28.07 36.454-33.816 53.57-2.792 13.198-.405 25.817 1.833 39.035 6.157 12.256 16.25 21.74 24.673 32.373 5.168 4.98 3.857 11.663 4.307 17.79-.103.07.076.203.076.21.246 3.74 1.284 7.184 4.833 9.94 2.806 2.802 6.08 7.578 9.275 10.102h68.622c2.354-9.963-14.747-17.09-22.656-13.14z"/><path fill="none" d="M160.77 57.048c-2.093-10.866-4.902-21.255-8.325-30.882-10.18-.857-20.94-.924-31.976-.185 2.143 10.57 4.14 22.016 5.94 33.976 12.005-1.306 23.596-2.29 34.36-2.908zM60.157 70.075c10.57-2.14 22.025-4.145 33.97-5.94-1.312-12.018-2.286-23.598-2.907-34.37-10.867 2.1-21.248 4.908-30.882 8.33-.85 10.177-.926 20.936-.18 31.98z"/><g fill="#1E0E00"><path opacity=".2" d="M86.787 163h-.076.077zM86.787 163h.076-.076zM133.604 128.485c9.173-1.76 18.006-4.024 26.347-6.738v-1.98c-8.358 2.746-17.23 5.046-26.455 6.83-.624-10.774-1.604-22.35-2.915-34.374 10.244-1.535 20.112-3.227 29.37-5.03v-1.908a696.756 696.756 0 0 1-29.58 5.074 874.012 874.012 0 0 0-1.714-14.288 829.86 829.86 0 0 0-1.982-14.26c11.627-1.267 22.818-2.216 33.277-2.834v-1.88c-10.54.622-21.836 1.587-33.556 2.86-1.8-11.96-3.793-23.404-5.944-33.976 11.055-.74 21.805-.674 31.987.183 3.002 8.423 5.527 17.43 7.514 26.828v-8.38c-1.577-6.316-3.395-12.425-5.444-18.262 1.84.178 3.65.39 5.445.622v-1.895c-2.023-.258-4.07-.494-6.15-.685-2.898-8-6.25-17.392-9.947-24.392h-2.135c3.732 7 7.09 16.265 10.017 24.222-10.09-.81-20.735-.85-31.65-.1-1.64-7.9-3.35-17.122-5.095-24.122h-1.95c1.778 7 3.503 16.288 5.147 24.253a246.302 246.302 0 0 0-25.206 3.27C92.485 18.36 92.263 8 92.334 0h-1.89c-.06 8 .166 18.582.67 27.876-10.74 2.052-21.03 4.81-30.59 8.155 1.07-11.154 3.1-21.574 6.074-30.872.27-.85.548-1.696.837-2.523.428-.17.86-2.635 1.292-2.635h-4.914c-9.105 4-17.6 10.795-25.26 16.438a111.788 111.788 0 0 1 4.236-8.03C44.058 6.24 45.4 2 46.79 0h-2.28c-1.15 2-2.275 5.637-3.333 7.464a110.02 110.02 0 0 0-5.79 11.396 110.828 110.828 0 0 0-9.55 8.505c-5.776 5.783-10.61 11.967-14.495 18.486C16.512 29.27 25.68 12 37.84 0H28.8C7.696 24-3.434 57.973.944 91.812c.027.184.047.377.07.556.016.07.023.146.035.22.023.17.047.327.074.5.03.227.07.456.095.678.06.42.115.82.194 1.24C5.56 121.235 18.536 146 36.873 163h10.19c-8.43-7-15.89-16.87-22.002-25.825 4.898 4.504 10.43 8.587 16.58 12.17 3.657 2.138 7.46 4.048 11.397 5.78 1.527 1.913 3.11 5.875 4.735 7.875h2.537c-1.224-1-2.425-4.99-3.592-6.362 3.932 1.568 7.995 5.362 12.14 6.362h7.705c-7.768-2-15.266-6.348-22.334-9.408-6.605-8.407-12.148-17.893-16.462-28.197.336.102.665.223.997.332 9.663 3.09 20.538 5.162 32.142 6.217C74.777 142.6 79.417 155 84.682 163h2.03c-5.247-8-9.86-20.368-13.73-30.883 10.093.812 20.74.857 31.65.116 1.935 9.352 3.965 17.966 6.065 25.624.265.984.525 4.143.802 5.143h1.943c-.307-1-.62-4.482-.936-5.63-2.07-7.557-4.07-16.058-5.98-25.278 4.19-.312 8.408-.736 12.65-1.29 4.247-.548 8.44-1.202 12.56-1.976.504 9.408.733 18.137.655 25.967-.01 2.1-.06 6.207-.11 8.207h1.87c.056-2 .1-6.17.118-8.19.075-7.94-.154-16.786-.666-26.325zM126.8 76.308c.616 4.826 1.2 9.602 1.72 14.32a782.577 782.577 0 0 1-28.63 3.706c-.688-4.7-1.34-9.463-1.98-14.29-.613-4.82-1.186-9.6-1.72-14.322 4.71-.697 9.464-1.354 14.296-1.98 4.825-.626 9.61-1.204 14.33-1.727.69 4.702 1.352 9.467 1.984 14.293zm-68.498-5.852c-9.357 1.926-17.987 3.963-25.65 6.06a247.1 247.1 0 0 0-5.583 1.59c-.436-8.175-.17-16.26.793-24.115a99.35 99.35 0 0 1 2.223-1.463c8.243-5.242 17.806-9.856 28.312-13.73-.81 10.095-.842 20.742-.096 31.66zm-25.14 7.868c7.542-2.066 16.06-4.077 25.274-5.98.323 4.18.75 8.41 1.292 12.65a237.32 237.32 0 0 0 1.976 12.564c-9.4.508-18.158.73-25.965.648-2.233-.015-4.302-.06-6.226-.124a148.633 148.633 0 0 1-1.447-8.988 143.24 143.24 0 0 1-.876-9.063 250.51 250.51 0 0 1 5.973-1.706zm28.444 6.43c-.55-4.295-.99-8.558-1.315-12.79 10.594-2.15 22.055-4.16 34.048-5.96a770.93 770.93 0 0 0 1.726 14.286 758.71 758.71 0 0 0 1.962 14.26c-12.05 1.31-23.64 2.284-34.437 2.9a248.455 248.455 0 0 1-1.984-12.695zm44.173-57.33c4.295-.557 8.56-.992 12.792-1.308 2.146 10.58 4.166 22.052 5.965 34.047a785.914 785.914 0 0 0-28.55 3.692 682.814 682.814 0 0 1-2.904-34.44c4.17-.77 8.405-1.438 12.695-1.992zM91.22 29.76c.62 10.773 1.596 22.355 2.907 34.372-11.944 1.796-23.4 3.8-33.97 5.94-.745-11.043-.663-21.8.18-31.982 9.635-3.42 20.016-6.225 30.883-8.33zM36.927 20.05C45.33 13.45 54.825 7.898 65.13 3.58a40.53 40.53 0 0 1-.33 1.006c-3.084 9.675-5.18 20.53-6.237 32.145-10.97 3.983-20.944 8.767-29.496 14.214-.297.19-.597.385-.887.574 1.56-11.07 4.508-21.675 8.747-31.47zM9.183 53.938C13.356 45.015 19.38 36.5 27.176 28.696a109.97 109.97 0 0 1 6.69-6.145C30.09 32.08 27.48 42.29 26.122 52.91c-8.593 5.854-15.108 12.12-19.362 18.54.31-5.96 1.143-11.812 2.423-17.51zM6.61 75.283c3.783-6.836 10.257-13.577 19.207-19.894-.83 7.6-1.037 15.392-.6 23.27-8.14 2.492-14.235 4.887-18.272 7.177-.292-3.543-.395-7.06-.335-10.554zm.87 15.692a82.29 82.29 0 0 1-.358-3.074c3.17-1.903 8.672-4.356 18.213-7.308.198 2.904.482 5.82.854 8.743.374 2.92.844 5.816 1.393 8.676-9.92-.42-15.843-1.387-19.4-2.41-.268-1.54-.5-3.078-.702-4.625zm1.082 6.67c4.49 1.17 10.96 1.926 19.402 2.26a141.757 141.757 0 0 0 6.512 22.36c-10.036-3.748-17.882-8.486-23.272-13.974a108.75 108.75 0 0 1-2.642-10.645zm42.052 54.322a111.947 111.947 0 0 1-8.023-4.23c-8.634-5.06-16.03-11.046-22.032-17.76a106.192 106.192 0 0 1-8.17-18.002c5.72 4.957 13.466 9.22 23.012 12.615 4.017 9.914 9.13 19.117 15.214 27.377zm-11.287-28.025c-.86-.282-1.69-.562-2.51-.843-2.94-7.362-5.258-15.106-6.916-23.13 1.846.06 3.782.093 5.812.115 7.94.08 16.805-.148 26.34-.67 2.06 10.75 4.804 21.038 8.153 30.584-11.148-1.062-21.568-3.092-30.878-6.058zm32.935 6.253c-3.41-9.633-6.23-20.016-8.32-30.89 10.774-.615 22.358-1.6 34.383-2.91 1.78 11.966 3.785 23.41 5.93 33.98-11.053.74-21.807.68-31.993-.18zm46.66-1.257c-4.283.554-8.558.983-12.785 1.303-2.142-10.584-4.156-22.05-5.96-34.04 4.704-.522 9.478-1.1 14.29-1.717 4.808-.625 9.566-1.29 14.263-1.98 1.303 12.047 2.282 23.657 2.9 34.436-4.178.773-8.412 1.445-12.707 1.998zM159.95 152.624c-.125.053-.248.11-.374.162.11-.335.225-.663.347-1.015.01-.028.018-.06.027-.09v-6.85a123.88 123.88 0 0 1-1.83 6.37c-.284.86-.56 1.68-.852 2.5-7.35 2.935-15.093 7.3-23.117 9.3h7.84c4.94-1 9.78-5.17 14.46-6.972-.606 1.607-1.238 5.97-1.89 6.97h2.048c.758-2 1.487-5.94 2.17-7.87.394-.16.78-.314 1.172-.478v-2.026z"/></g><path fill="gray" d="M159.95 63.79l-2.738.21-31.443-2.423S70.87 85.703 65.544 88.13c-5.333 2.428-9.486 5.553-13.08 13.075-3.098 6.48-6.225 53.058-9.3 61.796H159.95V63.79z"/><path opacity=".1" d="M111.62 163c-3.168-8.957-6.74-30.723-6.74-30.723l2.907-15.82-8.39-4.197-6.453-36.152 14.203-6.757L127.754 163H111.62z"/><path fill="#E6E6E6" d="M159.95 93.182l-1.412.676-50.355-24.006L124.663 163h35.287z"/><path opacity=".2" d="M159.95 29.87c-1.047.082-2.104.13-3.173.13h-3.804c-21.56 0-38.31-15.512-45.94-18.054L106.19 0h-8.953l1.045 14.764c.145 2.046 2.04 3.6 4.273 3.57l.18 23.447c0 8.795 3.465 16.768 9.455 23.13-15.252 6.706-48.556 21.357-52.643 23.22-5.333 2.427-9.486 5.802-13.08 13.324-3.098 6.48-6.225 52.546-9.3 61.546H159.95V29.87z"/><path fill="#DEB472" d="M159.95 5.622a38.92 38.92 0 0 0-1.678-.038c-17.812 0-32.322 13.446-32.322 30.057v34.18c0 16.592 14.51 30.045 32.322 30.045.54 0 1.144-.014 1.678-.038V5.622z"/><path fill="#008B32" d="M159.95 163V89h-23.522l18.256 26.007L145.398 163z"/><path opacity=".1" d="M125.962 58.895l-17.53 12.7 23.006 50.33 27.284-28.508z"/><path fill="#FFD59B" d="M103.235 0l1.045 14.764c.15 2.11 2.156 3.712 4.48 3.576l.495-.028c2.326-.134 4.092-1.955 3.94-4.066L112.19 0h-8.953z"/><path fill="#5E5E5E" d="M112.655 163c-3.17-8.957-6.74-30.723-6.74-30.723l2.907-15.82-8.39-4.197-6.454-36.152 14.204-6.757L128.788 163h-16.133z"/><path fill="#FFD59B" d="M159.95 0h-48.11a43.46 43.46 0 0 0-3.37 16.773c0 25.554 29.63 46.457 51.48 48.146V0z"/><path opacity=".1" d="M76.545 87.937c4.775-2.162 49.433-21.65 58.583-25.644l-9.36-.716s-54.9 23.95-60.223 26.36c-5.333 2.41-9.486 5.633-13.08 13.1-3.098 6.434-6.225 52.963-9.3 61.963h11c3.075-9 6.202-55.53 9.3-61.963 3.594-7.467 7.747-10.692 13.08-13.1z"/><path fill="#FFF" d="M120.117 63.417L108.1 69.022l23.004 45.412L157.64 89.21z"/><path opacity=".15" d="M159.95 32h-.977C129.496 32 109 .79 108.533 16.688l.2 27.802c0 23.165 20.855 41.51 48.732 41.51h.425c.69 0 1.376-.02 2.06-.043V32z"/><path fill="#FF8080" d="M113.573 31.494c4.2 6.813 13.823 9.18 21.498 5.284 7.68-3.896 10.495-12.578 6.294-19.39-4.197-6.817-13.822-9.182-21.503-5.286-7.67 3.895-10.484 12.58-6.287 19.392z"/><path opacity=".2" d="M159.95 159v-39h-19v3h-7.96c-.472 0-1.04 1.037-1.04 1.507V126h-4.396c-2.503-4-6.188-5.584-10.89-5.93l-10.17-4.328c-.046-.026-.084-.076-.13-.102-2.22-1.254-4.735-.98-5.614.576L98.63 120H82.056c-.352-1-.968-.97-1.678-.97s-1.327-.03-1.68.97h-6.64c-2.554 0-4.62 1.95-4.62 4.5 0 2.554 2.066 4.5 4.62 4.5h6.59c.337 1 .98 1.068 1.73 1.068S81.77 130 82.107 129h11.305l-.062.198c-2.073.454-3.628 2.34-3.628 4.55a4.642 4.642 0 0 0 3.608 4.523c-2.062.463-3.608 2.104-3.608 4.306 0 2.55 2.07 4.424 4.62 4.424h2.37c-2.552 0-4.623 2.45-4.623 5 0 2.552 2.07 5 4.622 5h16.03s3.684-.957 3.694-.978c4.92-.297 8.748-2.022 11.293-7.022h4.22v6.95c0 .47.568 1.05 1.04 1.05h7.96v2h19z"/><path fill="#77503B" d="M159.95 30h-.977C129.496 30 109 .993 108.533 15.805l.2 25.976c0 21.583 20.855 38.22 48.732 38.22h.425c.69 0 1.376-.018 2.06-.038V30z"/><path fill="#EDEDED" d="M159.95 32.802c-.41.026-.82.045-1.233.045-9.002 0-15.443-6.723-15.443-.336s7.3 11.564 16.302 11.564c.127 0 .25-.01.375-.014V32.802z"/><path fill="#FFD380" d="M159.95 124.27c-.816-.252-1.667-.27-2.55-.27h-42.485c-5.668 0-10.27 5.697-10.27 12.5 0 6.805 4.602 12.5 10.27 12.5H157.4c.883 0 1.733-.637 2.55-.887V124.27z"/><path fill="#E8B170" d="M118.708 128.905c1.647.694 3.79-.65 4.78-3 .992-2.35.46-4.82-1.188-5.516l-16.7-7.045c-1.65-.694-3.79.647-4.78 2.998-.992 2.352-.46 4.82 1.186 5.516l16.702 7.045z"/><path fill="#E8B170" d="M91.84 129.975c-.878 1.56.21 3.838 2.432 5.093 2.224 1.255 4.735 1.007 5.615-.55l8.91-15.785c.88-1.558-.21-3.838-2.43-5.094-2.22-1.253-4.737-1.007-5.616.55l-8.91 15.785z"/><g fill="#FFD380"><path d="M106.44 127.188a4.618 4.618 0 0 0 4.618-4.62c0-2.552-2.067-4.62-4.62-4.62H72.06a4.618 4.618 0 0 0-4.62 4.62 4.618 4.618 0 0 0 4.62 4.62h34.38z"/><path d="M120.197 136.428a4.62 4.62 0 0 0 0-9.24H94.343a4.62 4.62 0 0 0 0 9.24h25.854z"/><path d="M120.197 145.43a4.62 4.62 0 0 0 4.618-4.618 4.622 4.622 0 0 0-4.618-4.622H94.343a4.62 4.62 0 0 0 0 9.24h25.854zM116.404 154.668c3.153-5.672 4.62-2.066 4.62-4.617H119.6c0-2.552-.643-4.62-3.196-4.62H96.712a4.62 4.62 0 0 0 0 9.238h19.69z"/><path d="M115.354 154.668c10.14 0 15.993-8.22 15.993-18.357 0-10.14-5.854-18.362-15.993-18.362h-8.914c-10.14 0-12.057 8.222-12.057 18.363 0 10.14 8.22 18.358 18.36 18.358h2.61z"/></g><path fill="#DFB572" d="M72.202 125.776c1.82 0 2.345-1.477 2.345-3.294 0-1.818-.524-3.29-2.345-3.29a3.293 3.293 0 0 0 0 6.585z"/><g fill="#DFB572"><path d="M84.482 125.806c.17 0 .312-.144.312-.316v-5.844a.315.315 0 0 0-.312-.316.314.314 0 0 0-.313.316v5.844c0 .172.14.316.312.316zM85.857 125.806a.315.315 0 0 0 .313-.316v-5.844a.314.314 0 0 0-.313-.316c-.17 0-.31.142-.31.316v5.844c0 .172.14.316.31.316zM87.442 125.72a.315.315 0 0 0 .312-.316v-5.843a.314.314 0 0 0-.312-.313.314.314 0 0 0-.314.314v5.844c0 .174.14.317.314.317z"/></g><path fill="#FFF" d="M144.702 154.82a.853.853 0 0 0 .854-.854v-31.443c0-.47-.383-.85-.854-.85H132.99c-.472 0-.856.38-.856.85v31.443c0 .47.385.853.855.853H144.7z"/><path fill="#008A4B" d="M136.79 152.742a2.396 2.396 0 0 0 0-4.793 2.397 2.397 0 0 0 0 4.792z"/><path opacity=".1" d="M138.95 122h15v33h-15z"/><path fill="gray" d="M140.95 118h19v39h-19z"/><path opacity=".2" d="M81.95 126.204c0 1.133-1.41 2.05-2.5 2.05-1.087 0-2.5-.917-2.5-2.05v-7.175c0-1.134 1.413-2.052 2.5-2.052 1.09 0 2.5.918 2.5 2.05v7.176z"/><path fill="#EAB521" d="M81.95 126.204c0 1.133-.905 2.05-2 2.05-1.096 0-2-.917-2-2.05v-7.175c0-1.134.904-2.052 2-2.052 1.095 0 2 .918 2 2.05v7.176z"/><path fill="#FFD42D" d="M60.155 97.448a25.912 25.912 0 0 1-13.52 14.38 25.925 25.925 0 0 1 13.52 14.39 25.957 25.957 0 0 1 13.528-14.39 25.947 25.947 0 0 1-13.528-14.38z"/><path fill="#FF7600" d="M60.155 104.584a13.002 13.002 0 0 1-6.814 7.245c3.13 1.41 5.6 4.024 6.815 7.247a13.07 13.07 0 0 1 6.816-7.248 13.065 13.065 0 0 1-6.815-7.246z"/><path fill="#FFD42D" d="M37.055 99.27a13.51 13.51 0 0 1-7.052 7.5 13.516 13.516 0 0 1 7.052 7.502 13.528 13.528 0 0 1 7.053-7.502 13.526 13.526 0 0 1-7.053-7.5z"/><path fill="#FF7600" d="M37.055 102.992a6.786 6.786 0 0 1-3.555 3.777 6.79 6.79 0 0 1 3.555 3.778 6.805 6.805 0 0 1 3.554-3.78 6.8 6.8 0 0 1-3.555-3.776z"/><path fill="#FFD42D" d="M46.663 80.335a17.296 17.296 0 0 1-9.025 9.597 17.31 17.31 0 0 1 9.025 9.602 17.306 17.306 0 0 1 9.025-9.602 17.296 17.296 0 0 1-9.025-9.597z"/><path fill="#FF7600" d="M46.663 85.098a8.682 8.682 0 0 1-4.55 4.834 8.702 8.702 0 0 1 4.55 4.838 8.715 8.715 0 0 1 4.547-4.838 8.702 8.702 0 0 1-4.547-4.834z"/><path fill="#77503B" d="M105.878 0c.996 10.25 3.126 18.583 3.99 21.68.113-7.656 1.332-15.054 2.984-21.68h-6.974z"/><path fill="#6D4735" d="M159.95 23.63c-1.124-1.355-3.17-2.304-6.195-2.306-22.76 9.765-36.805-10.708-36.805-10.708v.973c0 21.807 25.977 23.486 38.318 21.43 2.07-.347 3.704-1.44 4.682-2.823V23.63z"/><path opacity=".2" fill="#010101" d="M159.95 0h-7.92c-.048.328-.08.66-.08 1v18a7 7 0 0 0 7 7h1V0z"/><path fill="#FF8080" d="M159.95 0h-8v16a7 7 0 0 0 7 7h1V0z"/></svg>