<svg baseProfile="basic" xmlns="http://www.w3.org/2000/svg" width="177" height="60" viewBox="0 0 177 60"><path fill="#FFA300" d="M33.945 57.7L4.418 60 0 15.42l2.352-.183c1.29-.102 2.238-1.295 2.106-2.654l-.23-2.298A2.428 2.428 0 0 1 6.46 7.62l16.29-1.268a2.556 2.556 0 0 1 2.72 2.28l.228 2.297.246 2.47 8.35-.65 30.873.472 3.083 37.304-5.618 4.943-28.687 2.23z"/><path fill="#FF2400" d="M45.215 0L8.393 19.158 4.44 60l36.672-2.88 20.62-1.618 13.18-1.035 3.95-40.84z"/><path fill="#FFF" d="M27.898 43.27L23.7 36.432h-3.415v6.838h-4.098V24.022h9.004c4.013 0 6.465 2.626 6.465 6.204 0 3.405-1.72 5.224-3.796 5.716l4.74 7.33H27.9zm-.426-13.045c0-1.615-1.24-2.596-2.888-2.596h-4.3v5.194h4.3c1.647 0 2.888-.982 2.888-2.6zM35.162 43.27V24.022h13.624v3.607H39.26v4.068h8.494v3.607H39.26v4.36h9.526v3.606H35.162zM51.07 33.66c0-6.09 4.616-9.958 10.245-9.958 4.012 0 6.52 2.022 7.965 4.3l-3.408 1.85c-.863-1.358-2.51-2.513-4.557-2.513-3.492 0-6.033 2.683-6.033 6.32 0 3.636 2.54 6.322 6.033 6.322 1.702 0 3.32-.75 4.097-1.474v-2.056h-5.078v-3.628h9.176v7.186c-1.962 2.193-4.702 3.637-8.195 3.637-5.63 0-10.246-3.923-10.246-9.987z"/><g fill="#111"><path d="M97.127 33.452l-2.615-10.237-2.592 10.237h-3.376l-4.27-14.91h3.555l2.614 10.774 2.838-10.773h2.48l2.818 10.773 2.592-10.773h3.577l-4.248 14.91h-3.375zM106.018 33.452v-14.91h10.55v2.795h-7.376v3.152h6.393v2.793h-6.393v3.375h7.376v2.794h-10.55zM119.102 33.452v-14.91h7.846c2.838 0 4.292 1.81 4.292 3.8 0 1.88-1.163 3.13-2.57 3.42 1.586.247 2.86 1.79 2.86 3.667 0 2.234-1.498 4.022-4.336 4.022h-8.092zm8.896-10.55c0-.94-.67-1.633-1.743-1.633h-3.98v3.24h3.98c1.072 0 1.743-.67 1.743-1.61zm.29 6.08c0-.94-.67-1.745-1.922-1.745h-4.09v3.465h4.09c1.207 0 1.922-.648 1.922-1.72zM132.723 31.35l1.72-2.413a6.537 6.537 0 0 0 4.74 2.012c1.743 0 2.592-.806 2.592-1.655 0-2.637-8.583-.827-8.583-6.437 0-2.48 2.146-4.537 5.655-4.537 2.37 0 4.336.716 5.812 2.08l-1.767 2.324c-1.207-1.117-2.816-1.632-4.336-1.632-1.363 0-2.123.603-2.123 1.498 0 2.37 8.56.782 8.56 6.348 0 2.727-1.944 4.783-5.967 4.783-2.862 0-4.918-.96-6.304-2.37zM147.035 33.452v-14.91h3.174v14.91h-3.175zM156.03 33.452V21.337h-4.36v-2.794h11.892v2.794h-4.336v12.115h-3.197zM165.046 33.452v-14.91h10.55v2.795h-7.376v3.152h6.393v2.793h-6.393v3.375h7.376v2.794h-10.55zM85.727 51.814v-14.91h7.845c2.84 0 4.292 1.81 4.292 3.8 0 1.88-1.162 3.13-2.57 3.42 1.587.247 2.86 1.79 2.86 3.667 0 2.236-1.496 4.024-4.335 4.024h-8.093zm8.896-10.55c0-.94-.67-1.633-1.744-1.633H88.9v3.242h3.98c1.073 0 1.743-.67 1.743-1.61zm.29 6.08c0-.94-.67-1.745-1.92-1.745h-4.09v3.464h4.09c1.206 0 1.92-.648 1.92-1.72zM100.612 45.868v-8.963h3.22v8.85c0 2.08 1.206 3.51 3.508 3.51s3.487-1.43 3.487-3.51v-8.85h3.24v8.94c0 3.71-2.19 6.237-6.727 6.237-4.538 0-6.728-2.548-6.728-6.214zM117.222 51.814v-14.91h3.174v14.91h-3.174zM123.553 51.814v-14.91h3.174V49.02h6.303v2.794h-9.477zM134.933 51.814v-14.91h5.878c4.673 0 7.914 2.974 7.914 7.466 0 4.493-3.24 7.443-7.913 7.443h-5.877zm10.55-7.444c0-2.638-1.61-4.67-4.672-4.67h-2.704v9.32h2.705c2.952 0 4.673-2.124 4.673-4.65zM151.118 51.814v-14.91h10.55V39.7h-7.376v3.15h6.393v2.795h-6.393v3.375h7.376v2.794h-10.55zM172.963 51.814l-2.928-5.298h-2.325v5.298h-3.174v-14.91h6.974c3.107 0 5.006 2.035 5.006 4.806 0 2.638-1.654 4.046-3.263 4.426l3.353 5.677h-3.643zm.313-10.104c0-1.25-.96-2.01-2.235-2.01h-3.33v4.022h3.33c1.275 0 2.236-.76 2.236-2.012z"/></g></svg>