<svg xmlns="http://www.w3.org/2000/svg" width="36" height="40" viewBox="0 0 36 40"><title>Панель управления</title><rect width="36" height="40" fill="none"/><path d="M32.663,2H3.337A3.334,3.334,0,0,0,0,5.337V34.129a3.334,3.334,0,0,0,3.337,3.337H32.663A3.334,3.334,0,0,0,36,34.129V5.337A3.334,3.334,0,0,0,32.663,2ZM4.566,8.673A2.107,2.107,0,1,1,6.673,6.566,2.107,2.107,0,0,1,4.566,8.673Zm17.06,17.377v8.386a17.556,17.556,0,0,1-6.837.079V26.248A8,8,0,0,1,13.988,12v8.366h8.024V12a8,8,0,0,1-.386,14.05ZM31.259,8.5h-20.9A1.993,1.993,0,0,1,8.429,6.39a1.993,1.993,0,0,1,1.932-2.107h20.9A2.109,2.109,0,0,1,33.19,6.39,1.993,1.993,0,0,1,31.259,8.5Z" fill="#cecece"/></svg>