<svg xmlns="http://www.w3.org/2000/svg" width="36" height="40" viewBox="0 0 36 40"><title>Резервное копирование</title><rect width="36" height="40" fill="none"/><path d="M24.3,12.8a13.521,13.521,0,0,1,4.68.9c2.16-1.26,3.42-2.88,3.42-4.5C32.4,5.24,25.2,2,16.2,2S0,5.24,0,9.2c0,3.78,6.66,7.02,15.12,7.2A13.923,13.923,0,0,1,24.3,12.8Z" fill="#cecece"/><path d="M32.22,15.5a1.623,1.623,0,0,0,.18-.9,3.473,3.473,0,0,0-.54-1.8,9.892,9.892,0,0,1-1.26,1.62A4.25,4.25,0,0,1,32.22,15.5Z" fill="#cecece"/><path d="M13.5,18.02C7.2,17.66,2.16,15.5.54,12.8A3.473,3.473,0,0,0,0,14.6c0,3.24,4.86,6.12,11.7,6.84A31.279,31.279,0,0,1,13.5,18.02Z" fill="#cecece"/><path d="M10.8,26.3a15.852,15.852,0,0,1,.36-3.06C5.94,22.52,1.98,20.54.54,18.2A3.473,3.473,0,0,0,0,20c0,3.06,4.5,5.76,10.8,6.84Z" fill="#cecece"/><path d="M10.98,28.64C5.76,27.92,1.8,25.94.54,23.6A3.473,3.473,0,0,0,0,25.4c0,3.42,5.22,6.12,12.24,7.02A15.552,15.552,0,0,1,10.98,28.64Z" fill="#cecece"/><path d="M24.3,15.6A11.7,11.7,0,1,0,36,27.3,11.677,11.677,0,0,0,24.3,15.6Zm0,19.98a8.258,8.258,0,0,1-8.28-8.28,8.28,8.28,0,1,1,16.56,0A8.258,8.258,0,0,1,24.3,35.58Z" fill="#cecece"/><rect x="23.4" y="21" width="1.8" height="7.2" fill="#cecece"/><rect x="23.4" y="26.4" width="5.4" height="1.8" fill="#cecece"/></svg>