<svg baseProfile="basic" xmlns="http://www.w3.org/2000/svg" width="71" height="60" viewBox="0 0 71 60"><path fill="#BCBCBC" d="M71 54.3c0 3.2-2.6 5.7-5.8 5.7H5.8C2.6 60 0 57.4 0 54.3V14.7C0 11.6 2.6 9 5.8 9h59.5c3.2 0 5.8 2.6 5.8 5.7v39.6z"/><path fill="#FFF" d="M7 16h33v37H7z"/><path fill="#00AB75" d="M39.9 51.4s-1.9-5.5-2.4-6.5-1-1.4-1.7-1.7c-.7-.3-7.9-3.5-7.9-3.5l-4.2.3-4.1-.3s-7.2 3.2-7.9 3.5c-.7.3-1.2.7-1.7 1.7s-2.4 6.5-2.4 6.5S7 53 8.3 53h31c1.2 0 .6-1.6.6-1.6"/><path fill="#E9B990" d="M28 39.7c0 2.2-1.9 3.9-4.2 3.9s-4.2-1.8-4.2-3.9v-4.5c0-2.2 1.9-3.9 4.2-3.9S28 33 28 35.2v4.5z"/><path fill="#FFC58F" d="M28 39c0 2.2-1.9 3.9-4.2 3.9s-4.2-1.8-4.2-3.9v-4.5c0-2.2 1.9-3.9 4.2-3.9s4.2 1.8 4.2 3.9V39z"/><path fill="#00D094" d="M36.4 43.6c-.2-.2-.4-.3-.7-.4-.6-.3-5.4-2.4-7.2-3.2-.3 2.6-2.3 4.6-4.8 4.6s-4.6-2-4.8-4.6c-1.8.8-6.6 2.9-7.2 3.2-.3.1-.5.3-.7.4 1.8 1.5 3.2 5.1 3.3 9.4h18.9c.1-4.3 1.4-7.9 3.2-9.4"/><path fill="#FFD196" d="M30.6 29.2h-.3c-.6-4.2-3.2-7.5-6.4-7.5-5.5 0-5.8 3.2-6.4 7.5h-.3c-.5 0-.9.5-.8 1l.2 2.5c0 .5.5.9 1 .8h.1c.8 3.8 3.3 6.7 6.3 6.7s5.5-2.8 6.3-6.7h.1c.5 0 .9-.3 1-.8l.2-2.5c-.2-.6-.5-1-1-1"/><path fill="#724430" d="M17.7 29.7c0 .2-.2.3-.4.3s-.4-.2-.4-.3c0-.2.2-.3.4-.3s.4.1.4.3M30.9 29.7c0 .2-.2.3-.4.3s-.4-.2-.4-.3c0-.2.2-.3.4-.3s.4.1.4.3"/><path fill="#724430" d="M23.9 19.9c-3.8 0-7 2.7-7 6v3.7h.7v-1.4c0-1.1.6-1.4 1-1.1 0 0 2.2 1.3 5.6 0 5.3-2.1 6 .5 6 1.1v1.4h.7V26c0-3.4-3.1-6.1-7-6.1"/><path opacity=".1" fill="#010000" d="M39.9 51.9s-1.9-5.8-2.4-6.8-1-1.5-1.7-1.8c-.1-.1-.3-.3-.8-.5-1.7-.7-5-2.2-6-2.8 0-.1-.2-.2-.3-.3 0 0 .3 0 .3-.1v-1.5c1-1.2 1.3-2.8 1.7-4.7h-.2c.5 0 .8-.3.8-.8l.7-2.5V26c0-3.3-4-6-7-6v34h-1H39.3c1.2 0 .6-2.1.6-2.1zm-9.8-23.6v.1c0-.3-.1-.6-.2-.9.2.4.2.7.2.8z"/><path opacity=".1" fill="#010000" d="M65 9H28l12.1 51H65c3.2 0 5.7-2.6 5.7-5.7V14.7c0-3.1-2.6-5.7-5.7-5.7z"/><path opacity=".5" fill="#FFF" d="M44 37h22v3H44zM44 32h22v3H44zM44 42h22v3H44z"/><g fill="#FFF"><path d="M44 23.7v-1.5l7.6-3.4v1.6l-6 2.6 6 2.5v1.6L44 23.7zM52.1 29l4-12h1.6l-4 12h-1.6zM58.1 27.1v-1.6l6-2.5-6-2.6v-1.6l7.6 3.4v1.5l-7.6 3.4z"/></g><path fill="#333" d="M16 12h-4V5c0-1.1.9-2 2-2s2 .9 2 2v7zM57 12h-4V5c0-1.1.9-2 2-2s2 .9 2 2v7z"/></svg>