<svg baseProfile="basic" xmlns="http://www.w3.org/2000/svg" width="65" height="60" viewBox="0 0 65 60"><path fill="#FFCC03" d="M39.5 33.8l-.9-3.8 2.7-.6c7.4-1.5 12.8-2.6 17.6-15.7 2.1-5.8 1-7.3.7-7.6-1.6-1.4-7.4.5-11 2.5l-1.9-3.4c1.8-1 11-5.7 15.4-2 2.5 2.1 2.6 6 .5 11.9-5.5 15.1-12.8 16.6-20.5 18.2-.8.1-1.7.3-2.6.5z"/><path opacity=".1" fill="#1D1D1B" d="M39 33.8l-.9-3.8 2.7-.6c7.4-1.5 12.8-2.6 17.6-15.7 2.1-5.8 1-7.3.7-7.6-1.6-1.4-7.4.5-11 2.5l-1.9-3.4c1.8-1 11-5.7 15.4-2 2.5 2.1 2.6 6 .5 11.9-5.5 15.1-12.8 16.6-20.5 18.2-.8.1-1.7.3-2.6.5z"/><path fill="#FFCC03" d="M24.7 33.8l-2.7-.6C14.3 31.6 7 30.1 1.5 15-.6 9.2-.5 5.3 2 3.2c4.4-3.7 13.6 1 15.4 2l-1.9 3.4C12 6.7 6.2 4.7 4.5 6.1c-.4.3-1.4 1.9.7 7.6 4.8 13 10.2 14.2 17.6 15.7l2.7.6-.8 3.8z"/><ellipse fill="#BF9902" cx="32.1" cy="3.8" rx="20.4" ry="3.8"/><path fill="#FFCC03" d="M46.8 56.4c-11.5-5.7-11-9.9-6.5-14.8C54 29.2 53.4 4.3 52.2 3.3c-1.2-1.1-20.1-.9-20.1-.9s-18.9-.2-20.2.9c-1.2 1-1.7 26 11.9 38.3 4.5 5 5 9.2-6.5 14.8-.7.3-1.2.9-1.2 1.7 0 1 .8 1.7 1.8 1.8h28.3c1-.1 1.7-.9 1.7-1.8.1-.8-.4-1.4-1.1-1.7z"/><path fill="#D4A902" d="M50.6 3.8c0 1.9-8.3 3.5-18.5 3.5S13.6 5.7 13.6 3.8 21.9.3 32.1.3s18.5 1.6 18.5 3.5z"/><path opacity=".05" fill="#1D1D1B" d="M46.8 56.4c-11.5-5.7-11-9.9-6.5-14.8 2.5-2.3 4.5-4.9 6.2-7.8-3.9 3.7-8.9 5.9-14.4 5.9s-10.5-2.2-14.4-5.9c1.6 2.9 3.7 5.6 6.2 7.8 4.5 5 5 9.2-6.5 14.8-.7.3-1.2.9-1.2 1.7 0 1 .8 1.7 1.8 1.8h28.2c1-.1 1.7-.9 1.7-1.8.1-.8-.4-1.4-1.1-1.7z"/><path opacity=".1" fill="#FFF" d="M14.5 4.9s1.5.7 3.9 1.2c2.7.5 4 .6 4 .6s-.1 6.1.5 14.3c.6 8.9 1.7 14.4 1.7 14.4s-5.6-1.2-8-13.7c-2.2-11.2-2.1-16.8-2.1-16.8z"/><circle opacity=".1" fill="#1D1D1B" cx="31.7" cy="22.6" r="10"/><circle fill="#FFCC03" cx="31.7" cy="20.6" r="10"/><circle fill="#FFDF61" cx="31.7" cy="20.6" r="5"/><path fill="#D4A902" d="M37.8 15.5s-2.1 2.2-2.3 3.4 1.1 2.4 1.6 2c.5-.4 1.3-1.7 1.2-2.6s-.5-2.8-.5-2.8z"/><path fill="#D4A902" d="M39.5 19.1s-3 .4-3.9 1.3c-.9.8-.6 2.6 0 2.6s2.1-.6 2.6-1.3c.5-.8 1.3-2.6 1.3-2.6z"/><path fill="#C49D02" d="M39.9 22.2s-3-.2-4.1.4c-1.1.6-1.2 2.4-.6 2.5.6.1 2.2-.1 2.8-.7.7-.5 1.9-2.2 1.9-2.2z"/><path fill="#B59002" d="M38.7 24.9s-3-.4-4.1.2-1.3 2.3-.7 2.5c.6.2 2.2 0 2.8-.6.7-.5 2-2.1 2-2.1z"/><path fill="#D4A902" d="M25.6 15.5s2.1 2.2 2.3 3.4-1.1 2.4-1.6 2c-.5-.4-1.3-1.7-1.2-2.6 0-.8.5-2.8.5-2.8z"/><path fill="#D4A902" d="M23.9 19.1s3 .4 3.9 1.3c.9.8.6 2.6 0 2.6s-2.1-.6-2.6-1.3c-.5-.8-1.3-2.6-1.3-2.6z"/><path fill="#C49D02" d="M23.5 22.2s3-.2 4.1.4c1.1.6 1.2 2.4.6 2.5s-2.2-.1-2.8-.7c-.7-.5-1.9-2.2-1.9-2.2z"/><path fill="#B59002" d="M24.8 24.9s3-.4 4.1.2c1.1.6 1.3 2.3.7 2.5-.6.2-2.2 0-2.8-.6-.8-.5-2-2.1-2-2.1z"/><path opacity=".1" fill="#FFF" d="M21.7 20.6c0 4.4 2.8 8.1 6.7 9.4-.2-1.8-.4-3.8-.5-6-.4-5.5-.5-10.1-.5-12.5-3.4 1.7-5.7 5.1-5.7 9.1z"/><path opacity=".1" fill="#1D1D1B" d="M46.8 56.4c-11.5-5.7-11-9.9-6.5-14.8.6-.5 1.1-1 1.6-1.6l.4-.4c.5-.5 1-1.1 1.4-1.7.5-.6.9-1.2 1.4-1.9.1-.1.1-.2.2-.3 8.1-12.3 8-29.6 7.1-32.1 0-.1-.1-.1-.1-.2 0 0 0-.1-.1-.1C50.8 1.4 42.3 0 32.1 0v60h14.1c1-.1 1.7-.9 1.7-1.8.1-.9-.4-1.5-1.1-1.8z"/></svg>