<svg baseProfile="basic" xmlns="http://www.w3.org/2000/svg" width="71" height="60" viewBox="0 0 71 60"><path fill="#E5E5E5" d="M71 26.2V21H58v3.1l-9 21.6L2.3 60h63.1c3.2 0 5.6-2.1 5.6-5.2V26.7v-.5z"/><path fill="#578ECC" d="M48.9 20.9L60 6.5l11 14.4z"/><path fill="#BCBCBC" d="M28.1 53h3v7h-3zM43.1 42h3v18h-3zM57.1 31h3v29h-3z"/><path fill="#578ECC" d="M60.3 16.2c-2.3 0-4.2 1.9-4.1 4.1.2 25.4-30.3 31.1-51.6 31.1H0v8.3h4.6c25.8 0 59.3-8.5 59.9-39.4 0-2.3-1.9-4.1-4.2-4.1z"/><circle opacity=".1" cx="26" cy="32" r="23.1"/><circle fill="#4CAF5E" cx="23.2" cy="29.1" r="23.1"/><path fill="#FFF" d="M37.4 21l-4.3-3.7-13.5 15.2-6.6-7.3L9 29l10.6 12z"/></svg>