<svg xmlns="http://www.w3.org/2000/svg" width="60.678" height="49.537" viewBox="0 0 60.678 49.537"><g fill="#4E79B8"><path d="M44.172 18.68c-2.68 0-3.677 2.642-3.677 6.074 0 3.428.998 6.107 3.677 6.107 2.65 0 3.655-2.678 3.655-6.106 0-3.432-1.006-6.075-3.655-6.075zM27.197 25.34c-.16 0-.31.025-.466.038a16.703 16.703 0 0 1 2.662 4.84c.74-.51 1.15-1.268 1.15-2.118 0-1.646-1.225-2.76-3.345-2.76z"/><path d="M35.904 0C24.17 0 14.357 8.173 11.806 19.134c.606-.07 1.22-.11 1.845-.11 2.456 0 4.785.547 6.885 1.5v-5.08H33.3v3.482h-8.806v4.118c.084.074.16.153.25.23.907-.786 2.28-1.365 3.846-1.365 3.15 0 5.963 2.26 5.963 6.022 0 2.948-1.637 5.072-4.322 5.968a16.6 16.6 0 0 1-4.594 13.387 24.587 24.587 0 0 0 10.268 2.25c13.684 0 24.773-11.09 24.773-24.77S49.587 0 35.904 0zm8.268 34.373c-5.317 0-7.692-4.825-7.692-9.62 0-4.795 2.375-9.588 7.692-9.588 5.296 0 7.7 4.793 7.7 9.59 0 4.793-2.404 9.618-7.7 9.618z"/><g><path d="M16.982 32.35c-1.48 0-2.03 1.458-2.03 3.35 0 1.888.55 3.363 2.03 3.363 1.458 0 2.012-1.475 2.012-3.364 0-1.893-.555-3.35-2.012-3.35z"/><path d="M13.65 22.058C6.11 22.058 0 28.168 0 35.705c0 7.54 6.11 13.648 13.65 13.648 7.537 0 13.648-6.108 13.648-13.648 0-7.537-6.11-13.647-13.647-13.647zm-2.444 18.757h-2.18v-7.437l-1.71 1.736-1.24-1.307 3.224-3.24h1.905v10.248zm5.776.185c-2.936 0-4.24-2.658-4.24-5.3s1.304-5.284 4.24-5.284c2.914 0 4.238 2.643 4.238 5.283 0 2.64-1.324 5.3-4.238 5.3z"/></g></g></svg>