<svg xmlns="http://www.w3.org/2000/svg" width="51.728" height="48" viewBox="0 0 51.728 48"><g fill="#4E79B8"><path d="M25.928 0c-7.324 0-13.264 5.935-13.264 13.26 0 7.327 5.94 13.265 13.264 13.265 7.325 0 13.263-5.938 13.263-13.264C39.19 5.936 33.254 0 25.93 0zm.737 20.253V23h-2v-2.66c-1-.03-2.49-.425-3.262-.973l.588-1.48c.8.524 1.967.942 3.202.942 1.572 0 2.638-.897 2.638-2.154 0-1.217-.852-1.97-2.478-2.626-2.253-.88-3.83-1.896-3.83-3.81 0-1.838 1.143-3.22 3.143-3.553V4h2v2.602c1 .042 2.1.394 2.74.778l-.61 1.442c-.463-.25-1.397-.742-2.81-.742-1.696 0-2.354 1.014-2.354 1.895 0 1.145.804 1.72 2.725 2.506 2.27.94 3.616 2.08 3.616 4.038 0 1.74-1.305 3.376-3.305 3.735zM3.656 48h7.97c2.022 0 3.66-.433 3.66-2.452v-4.454c0-1.903-1.46-3.447-3.316-3.623-.847 1.97-2.456 3.318-4.33 3.318-1.87 0-3.478-1.347-4.325-3.317C1.455 37.648 0 39.19 0 41.095v4.454C0 47.568 1.637 48 3.656 48z"/><ellipse cx="7.641" cy="34.39" rx="3.646" ry="4.697"/><path d="M21.878 48h7.972c2.02 0 3.656-.433 3.656-2.452v-4.454c0-1.903-1.456-3.447-3.314-3.623-.847 1.97-2.456 3.318-4.328 3.318-1.872 0-3.48-1.347-4.326-3.317-1.857.176-3.316 1.72-3.316 3.624v4.454c0 2.02 1.635 2.452 3.656 2.452z"/><ellipse cx="25.863" cy="34.39" rx="3.646" ry="4.697"/><g><path d="M40.1 48h7.972c2.02 0 3.656-.433 3.656-2.452v-4.454c0-1.903-1.458-3.447-3.315-3.623-.847 1.97-2.457 3.318-4.33 3.318-1.868 0-3.477-1.347-4.324-3.317-1.86.176-3.317 1.72-3.317 3.624v4.454c0 2.02 1.637 2.452 3.656 2.452z"/><path d="M44.084 39.087c2.017 0 3.648-2.103 3.648-4.697 0-2.597-1.632-4.698-3.648-4.698-2.012 0-3.645 2.1-3.645 4.698 0 2.594 1.632 4.697 3.644 4.697z"/></g></g></svg>