<svg xmlns="http://www.w3.org/2000/svg" width="46.34" height="48.83" viewBox="0 0 46.34 48.83"><g fill="#4E79B8"><path d="M25.672 10.34a34.69 34.69 0 0 1-18.09 19.246 34.675 34.675 0 0 1 18.09 19.244 34.667 34.667 0 0 1 18.096-19.244A34.682 34.682 0 0 1 25.672 10.34zm0 28.94a17.408 17.408 0 0 0-9.12-9.695 17.46 17.46 0 0 0 9.12-9.694 17.486 17.486 0 0 0 9.113 9.695 17.436 17.436 0 0 0-9.113 9.694zM39.79 4.992a12.52 12.52 0 0 1-6.54 6.956 12.51 12.51 0 0 1 6.54 6.96 12.553 12.553 0 0 1 6.55-6.96 12.555 12.555 0 0 1-6.55-6.956zm0 10.46a6.29 6.29 0 0 0-3.293-3.504 6.273 6.273 0 0 0 3.294-3.503 6.323 6.323 0 0 0 3.295 3.503 6.342 6.342 0 0 0-3.294 3.503zM9.66 0A18.505 18.505 0 0 1 0 10.274a18.506 18.506 0 0 1 9.66 10.27 18.522 18.522 0 0 1 9.663-10.27A18.524 18.524 0 0 1 9.66 0zm0 15.446a9.3 9.3 0 0 0-4.87-5.172 9.314 9.314 0 0 0 4.87-5.172 9.348 9.348 0 0 0 4.863 5.172 9.335 9.335 0 0 0-4.863 5.172z"/></g></svg>