<svg xmlns="http://www.w3.org/2000/svg" width="71.418" height="52.283" viewBox="0 0 71.418 52.283"><g fill="#4E79B8"><path d="M71.248 50.102s-2.26-6.473-2.812-7.627c-.552-1.153-1.187-1.634-2.006-2.005a4.84 4.84 0 0 0-.196-.09l-.194-.087c-1.462-.648-6.128-2.703-8.03-3.538l-.703-.31c0-.024.006-.052.006-.078v-1.915c1.23-1.377 2.15-3.274 2.592-5.46.04.01.073.033.11.036a1.047 1.047 0 0 0 1.12-.968l.217-2.918a1.045 1.045 0 0 0-.607-1.022v-3.835c0-3.91-3.657-7.08-8.165-7.08-4.51 0-8.163 3.17-8.163 7.08v3.835c-.386.178-.64.58-.61 1.022l.216 2.918c.043.576.545 1.01 1.12.968.04-.003.073-.026.11-.035.338 1.67.968 3.153 1.788 4.384 1.035.457 1.914.843 2.457 1.085l.05.022.197.087.048.022.02.01.226.102c1.218.555 2.612 1.426 3.675 3.66.766 1.6 3.544 9.535 3.84 10.388.174.46.613 1.886.134 3.205H70.494c1.457.003.754-1.855.754-1.855z"/><path d="M55.655 49.473s-3.032-8.683-3.77-10.23c-.74-1.546-1.593-2.19-2.69-2.69a12.388 12.388 0 0 0-.262-.117c-.078-.036-.584-.074-.683-.117-1.96-.873-8.19-3.626-11.19-4.748 0-.19-1-.333-1-.41V28.49c2-1.846 3.337-4.388 3.93-7.316.054.01.323.04.377.042.772.058 1.558-.523 1.615-1.294l.088-3.912c.045-.6-1.01-1.136-1.01-1.37V9.494C41.06 4.25 36.6 0 30.56 0c-6.048 0-10.5 4.25-10.5 9.495v5.143c-1 .235-1.05.77-1.004 1.37l.193 3.913c.057.772.68 1.354 1.453 1.295.054-.003-.246-.032-.193-.042.52 2.572 1.55 4.845 2.55 6.613v.245c3 2.834 5.04 6.79 5.04 11.17 0 5.28-2.313 10.765-6.33 12.765H54.65c1.947 0 1.007-2.492 1.007-2.492z"/><path d="M13.264 25.757C5.94 25.757 0 31.692 0 39.02c0 7.325 5.94 13.263 13.264 13.263 7.325 0 13.263-5.938 13.263-13.264 0-7.328-5.94-13.263-13.263-13.263zm.796 20.253v2.954h-2v-2.868c-1-.03-2.52-.424-3.292-.972l.573-1.48c.8.524 1.96.942 3.194.942 1.572 0 2.635-.896 2.635-2.153 0-1.217-.855-1.97-2.48-2.626-2.254-.88-3.803-1.896-3.803-3.81 0-1.838 1.173-3.22 3.173-3.553v-2.48h2v2.395c1 .04 2.07.393 2.71.777l-.625 1.442a5.665 5.665 0 0 0-2.818-.743c-1.696 0-2.357 1.014-2.357 1.895 0 1.145.8 1.72 2.722 2.506 2.27.938 3.645 2.078 3.645 4.037 0 1.74-1.277 3.376-3.277 3.735z"/></g></svg>