<svg xmlns="http://www.w3.org/2000/svg" width="349.694" height="365.922" viewBox="0 0 349.694 365.922"><ellipse fill="#F3F3F3" cx="174.847" cy="330.115" rx="174.847" ry="35.808"/><circle fill="#76D9FC" cx="251.202" cy="168.316" r="70.844"/><path fill="#0EA736" d="M266.66 227.72c-9.822-4.848-17.57-13.196-28.348-16.354-9.337-6.985-27.396.445-29.03-14.826-.067-7.338-6.327-10.088-11.13-12.916-4.787-10.766 15.096-17.517 16.964-5.293 6.683-1.224 7.522-13.254 15.054-15.963 3.55-3.984 14.854-1.645 10.02-8.232 3.394-4.17 14.762-5.52 8.09-13.4-2.94-8.142-13.765-10.852-15.937-.875-8.994 3.713-7.846-17 2-15.537 6.927-.5 5.216-6.356.79-7.736-.03-.29-.154-.446-.38-.15-.792-.19-1.63-.372-2.565-.204-5.566-2.21-2.74-9.842-1.415-14.99h-2.43a70.615 70.615 0 0 0-16.74 8.32c-9.01 11.575-17.845 25.372-21.71 36.886-2.35 11.137-.34 21.783 1.546 32.938 5.188 10.344 13.712 18.347 20.82 27.316 4.363 4.206 3.257 9.84 3.634 15.015-.087.05.072.17.072.18.206 3.15 1.083 6.05 4.076 8.378.807.806 1.66 1.806 2.538 2.855a70.24 70.24 0 0 0 21.454 5.666h14.334a70.287 70.287 0 0 0 24.872-7.29c-4.16-4.06-12.105-6.026-16.58-3.79zM321.547 159.91c-2.856-24.177-17.888-44.618-38.795-55.035-11.453-.5-8.708 23.38.082 28.04 8.613 4.942 13.802-4.37 4.92-9.264-.896-11.806 19.44 7.76 10.075 13.818-.376.23-.68.52-1.048.777.48-1.668-.617-.127-.562.265-10.676 7.303-5.18 25.298-9.568 37.08-7.655 15.89 17.882 9.475 14.427-3.276-4.322-11.767 19.44-5.815 14.49-14.24 2.407 1.364 4.38 1.903 5.977 1.836z"/><g opacity=".2" fill="#010000"><path d="M183.8 146.487c-.012.047-.03.09-.045.138.657-.037 1.24-.083 1.24-.138H183.8zM311.037 206.218h-.084c0 .054-.014.107-.017.16.034-.053.07-.106.1-.16z"/><path d="M316.73 189.668a.42.42 0 0 1 .058-.23c-.115.153-1.183 1.214-9.272 2.393 2.07-7.093 3.232-14.683 3.32-22.585h10.787V167.1H310.83c-.11-7.98-1.323-15.644-3.46-22.788 8.18 1.184 9.253 2.254 9.363 2.406a.402.402 0 0 1-.062-.23h1.93c-.147-.46-.306-.916-.464-1.372-.854-.79-2.588-1.434-5.446-2.047-1.664-.36-3.68-.7-6.032-1.022-2.73-8.23-6.703-15.71-11.645-22.117 4.96 1.283 8.915 2.77 11.65 4.338a72.332 72.332 0 0 0-3.38-3.96c-2.834-1.117-5.953-2.026-8.878-2.745-.53-.13-1.076-.254-1.62-.376-7.55-8.81-17.038-15.248-27.613-18.33a71.12 71.12 0 0 0-13.97-1.385c-5.315 0-10.483.604-15.463 1.712-10.14 3.196-19.23 9.485-26.515 17.983-.572.132-1.145.262-1.7.396-2.674.654-5.506 1.473-8.135 2.46a70.832 70.832 0 0 0-3.302 3.797c2.7-1.41 6.384-2.746 10.907-3.91-4.938 6.402-8.915 13.873-11.645 22.096-2.494.334-4.63.69-6.378 1.064-2.042.44-3.51.893-4.495 1.406a67.597 67.597 0 0 0-.565 1.68c2.002-.465 5.545-1.156 10.725-1.888-2.145 7.153-3.36 14.834-3.475 22.832h-10.777c-.006.406-.03.81-.03 1.217 0 .313.02.617.024.93h10.78c.084 7.915 1.252 15.522 3.33 22.624-8.352-1.19-9.444-2.276-9.56-2.432.018.02.062.107.062.23h-1.357c.205.646.426 1.277.647 1.91.982.554 2.513 1.04 4.692 1.51 1.713.37 3.79.72 6.22 1.046 2.528 7.774 6.164 14.894 10.67 21.083-5.016-1.365-8.925-2.943-11.49-4.595a69.685 69.685 0 0 0 3.34 4.12c3.06 1.286 6.534 2.314 9.77 3.11l.487.113c7.457 9.218 16.963 16.055 27.63 19.448a71.05 71.05 0 0 0 15.602 1.745c4.758 0 9.407-.477 13.902-1.375 11.2-3.247 21.19-10.252 28.946-19.857l.314-.074c3.552-.87 7.385-2.025 10.65-3.494a71.484 71.484 0 0 0 3.55-4.495c-2.447 1.905-6.708 3.74-12.405 5.308 4.498-6.187 8.125-13.308 10.65-21.075 2.304-.318 4.29-.654 5.932-1.007 3.053-.656 4.826-1.344 5.61-2.216.134-.398.28-.798.406-1.203h-2.03zm-73.816-90.02c-3.872 2.786-7.446 7.59-10.525 14.202-7.105.552-13.744 1.42-19.65 2.572 8.286-8.825 18.693-14.837 30.174-16.774zm-32.56 19.46c6.183-1.363 13.33-2.382 21.044-3.024-.283.663-.56 1.34-.83 2.037-2.483 6.358-4.437 13.706-5.806 21.687-7.87.302-15.103.742-21.325 1.312-2.068.184-3.986.382-5.75.59 2.957-8.522 7.292-16.19 12.666-22.603zm-13.41 24.853c2.278-.28 4.984-.567 8.208-.84 5.71-.488 12.23-.87 19.255-1.148-1.237 7.906-1.905 16.39-1.965 25.127h-29.164c.118-8.125 1.404-15.918 3.665-23.14zm-3.668 25.285h29.164c.045 8.667.692 17.08 1.894 24.94-6.996-.28-13.488-.662-19.173-1.146-3.298-.286-6.056-.575-8.37-.863-2.19-7.17-3.427-14.886-3.514-22.932zm4.245 25.18c1.817.216 3.79.423 5.922.615 6.204.565 13.405 1.005 21.24 1.305 1.372 8.17 3.354 15.68 5.885 22.165.102.266.21.522.317.78-8.028-.68-15.413-1.783-21.73-3.253-4.923-6.22-8.893-13.54-11.633-21.61zm13.876 24.302c6.078 1.257 12.994 2.2 20.423 2.795 3.2 7.262 6.982 12.5 11.094 15.462-12.11-2.045-23.028-8.622-31.518-18.257zm38.544 18.882c-5.75-.61-11.23-6.173-15.72-15.908 5.06.35 10.333.537 15.72.56v15.347zm0-17.494a241.312 241.312 0 0 1-16.69-.632 64.076 64.076 0 0 1-.718-1.765c-2.435-6.234-4.35-13.448-5.693-21.296 7.286.257 15.078.396 23.1.404v23.288zm0-25.44a679.547 679.547 0 0 1-23.456-.414c-1.223-7.86-1.885-16.31-1.927-25.018h25.383v25.433zm0-27.577h-25.383c.056-8.784.742-17.3 2-25.206 7.384-.264 15.282-.405 23.383-.416v25.62zm0-27.77c-7.992.01-15.756.146-23.02.396 1.337-7.66 3.226-14.704 5.61-20.812.41-1.046.828-2.05 1.254-3.018 5.188-.372 10.61-.572 16.155-.594v24.028zm0-26.175c-5.176.02-10.245.197-15.124.52 4.377-8.962 9.624-14.07 15.124-14.65v14.13zm58.774 53.944h-29.16c-.06-8.736-.732-17.214-1.963-25.116 6.9.276 13.307.657 18.923 1.136 3.386.29 6.203.588 8.554.886 2.25 7.205 3.533 14.984 3.647 23.093zm-4.39-25.35c-1.863-.224-3.892-.437-6.092-.632-6.14-.562-13.257-.997-20.997-1.3-1.37-7.986-3.323-15.34-5.806-21.698a93.445 93.445 0 0 0-.832-2.035c7.724.646 14.877 1.67 21.053 3.04 5.383 6.416 9.718 14.092 12.673 22.625zm-15.054-25.31c-5.908-1.16-12.554-2.034-19.664-2.588-3.074-6.612-6.65-11.418-10.525-14.204 11.49 1.94 21.9 7.96 30.19 16.793zm-37.215-17.416c5.5.58 10.75 5.69 15.124 14.656-4.883-.325-9.95-.505-15.125-.525v-14.13zm0 16.277a238.54 238.54 0 0 1 16.153.6c.432.968.847 1.97 1.256 3.013 2.387 6.11 4.273 13.16 5.614 20.826a692.814 692.814 0 0 0-23.023-.41V115.3zm0 26.178a698 698 0 0 1 23.384.422c1.258 7.907 1.94 16.42 1.998 25.2h-25.383v-25.622zm0 27.767h25.385c-.043 8.706-.703 17.15-1.93 25.01a683.59 683.59 0 0 1-23.455.423v-25.433zm0 27.58c8.023-.01 15.815-.15 23.103-.406-1.347 7.848-3.26 15.06-5.693 21.3-.238.6-.47 1.18-.712 1.752a238.28 238.28 0 0 1-16.697.642v-23.288zm0 25.437c5.387-.026 10.66-.22 15.72-.57-4.488 9.743-9.97 15.306-15.72 15.917V222.26zm7.025 14.722c4.114-2.963 7.896-8.207 11.104-15.472 7.438-.604 14.368-1.554 20.447-2.824-8.494 9.654-19.424 16.25-31.55 18.296zm33.79-20.988c-6.314 1.482-13.707 2.596-21.754 3.286.104-.26.207-.51.313-.77 2.53-6.488 4.513-14.003 5.885-22.174 7.73-.304 14.834-.738 20.964-1.297 2.245-.202 4.313-.42 6.203-.646-2.73 8.065-6.697 15.377-11.613 21.602zm12.343-23.855c-2.37.3-5.222.604-8.655.9-5.613.473-12.005.855-18.892 1.13 1.196-7.85 1.844-16.265 1.887-24.926h29.166c-.09 8.035-1.323 15.742-3.507 22.897z"/></g><path opacity=".2" d="M249.94 105.994s12.896-7.908 12.722-6.91c-.174 1 12.504 74.593 12.504 74.593l7.208-.638 4.097 22.487-14.636 15.266s-22.127-8.97-22.388-9.598c-.26-.628.494-95.2.494-95.2z"/><path fill="#FFEFD3" d="M18.866 69.467L248.574 34.14l23.263 151.273L42.13 220.738z"/><path fill="#EACEA0" d="M17.014 69.754l1.688-.26L41.98 220.767l-1.687.26z"/><path opacity=".2" fill="#010000" d="M19.13 71.194l229.71-35.326.61 3.978L19.744 75.17z"/><path fill="#E28F3B" d="M27.3 78.314l215.887-33.2 21.74 141.363-215.887 33.2z"/><path fill="#F4B373" d="M27.806 81.602l215.886-33.2 21.234 138.075-215.887 33.2z"/><path fill="#6B6B6B" d="M115.34 200.018l162.63-25.01 3.287 21.372-162.63 25.01z"/><path opacity=".2" fill="#010000" d="M115.347 198.53l2.224-.34 3.286 21.373-2.225.342z"/><path fill="#A8A8A8" d="M34.333 211l31.758-4.883 3.288 21.373-31.758 4.884z"/><path opacity=".2" fill="#010000" d="M63.858 206.452l2.225-.342 3.285 21.374-2.225.342zM115.15 197.32l162.63-25.01.52 3.384-162.63 25.01z"/><path opacity=".2" fill="#010000" d="M34.153 209.774l31.76-4.884.52 3.385-31.76 4.884z"/><path fill="#919191" d="M115.15 197.32l162.632-25.01.52 3.383-162.63 25.01zM33.953 208.477l31.76-4.884.52 3.385-31.76 4.884z"/><path fill="#F4F4F4" d="M52.533 117.904l49.243-7.573 16.852 109.583-49.243 7.572zM109.55 86.712l126-19.377 14.826 96.415-126 19.376z"/><path fill="#FFEFD3" d="M120.274 183.757l134.206-20.64.766 4.986-134.206 20.64z"/><path fill="#9ACFD7" d="M113.338 90.255L233 71.853l13.588 88.356-119.662 18.4zM57.358 123.934l41.63-6.402 15.12 98.31-41.63 6.404z"/><path opacity=".2" fill="#FFF" d="M72.22 220.584l30.41-79.343-1.972-12.818-30.41 79.342zM69.1 200.31l30.413-79.34-.53-3.438-19.47 2.994-16.187 42.236z"/><path opacity=".2" fill="#010000" d="M59.167 136.312l1.177-.184L73.84 222.59l-1.178.185z"/><g opacity=".2"><path d="M262.357 99.355l-21.546 3.314c.025.24.055.486.094.73 1.067 6.944 6.766 11.83 12.726 10.913s9.927-7.288 8.858-14.23a15.076 15.076 0 0 0-.13-.728z"/><path d="M219.226 105.988c.023.243.054.488.092.733 1.068 6.945 6.767 11.83 12.727 10.913 5.96-.917 9.928-7.288 8.86-14.232a15.78 15.78 0 0 0-.133-.726l-21.546 3.314z"/><path d="M197.64 109.307c.025.245.056.488.094.733 1.066 6.943 6.765 11.83 12.727 10.913 5.96-.916 9.927-7.288 8.858-14.232a15.814 15.814 0 0 0-.13-.727l-21.548 3.314zM176.05 112.822c-.012-.062-.02-.126-.034-.187l-21.546 3.312c.025.243.055.488.093.732 1.068 6.942 6.766 11.828 12.728 10.91 5.49-.843 9.286-6.32 9.015-12.604 1.57 6.18 6.89 10.352 12.438 9.5 5.96-.917 9.928-7.288 8.86-14.232a15.492 15.492 0 0 0-.133-.726l-21.42 3.294zM132.88 119.462c-.013-.063-.022-.125-.034-.19l-21.547 3.315c.024.244.056.486.092.732 1.07 6.943 6.767 11.828 12.726 10.912 5.494-.847 9.29-6.32 9.016-12.608 1.57 6.18 6.89 10.354 12.438 9.5 5.962-.916 9.926-7.287 8.86-14.23a15.532 15.532 0 0 0-.132-.727l-21.42 3.295zM89.71 126.1c-.013-.06-.022-.125-.035-.187l-21.546 3.314c.023.242.054.486.093.73 1.066 6.944 6.766 11.83 12.726 10.914 5.49-.844 9.285-6.32 9.015-12.607 1.57 6.18 6.89 10.354 12.436 9.502 5.963-.92 9.93-7.29 8.86-14.233a14.034 14.034 0 0 0-.132-.727L89.71 126.1zM46.54 132.74c-.014-.062-.022-.124-.035-.188l-21.547 3.315c.025.242.055.488.093.732 1.068 6.943 6.767 11.828 12.727 10.91 5.492-.844 9.287-6.318 9.017-12.604 1.572 6.18 6.888 10.353 12.437 9.5 5.962-.917 9.93-7.29 8.86-14.234-.038-.243-.082-.484-.133-.726L46.54 132.74z"/></g><path opacity=".2" fill="#FFF" d="M149.61 174.685l.037.247 32.963-5.07 22.896-59.737-.817-5.31-30.074 4.627zM201.022 167.03l19.36-50.51-3.045-19.803-27.615 72.052z"/><path opacity=".2" d="M91.685 144.294l-.967.528-15.288-13.914a.262.262 0 0 0-.353.387l15.156 13.793-18.426 10.082 3.152-19.8a.262.262 0 0 0-.218-.3.264.264 0 0 0-.3.22l-3.217 20.197-1.515.83 5.616 10.267L97.3 154.558l-5.615-10.264z"/><path fill="#FFEFD3" d="M68.74 155.772l21.974-12.023 5.617 10.264-21.975 12.024z"/><circle fill="#E5BD7C" cx="70.283" cy="156.338" r=".496"/><circle fill="#E5BD7C" cx="90.514" cy="145.259" r=".497"/><g fill="#828282"><path d="M79.08 156.15c.12.316.21.63.27.99.07.333.1.69.105 1.04-.01.355-.05.7-.145 1.02-.103.323-.26.618-.462.895-.21.278-.507.515-.83.692-.232.127-.445.213-.663.248-.2.05-.42.044-.63-.016a1.39 1.39 0 0 1-.563-.314 2.454 2.454 0 0 1-.512-.672 4.677 4.677 0 0 1-.36-.733c-.44-1.124-.488-2.174-.41-3.335l1.182-.832c-.15 1.446-.062 2.498.245 3.343.71 2.033 2.184 2.155 1.965-.248a5.336 5.336 0 0 0-.266-1.334 6.72 6.72 0 0 0-.585-1.355c-1.022-1.738-2.977-.39-3.458.938-.21.62.062 1.322.62 1.627l-.828 1.114c-.76-1.012-.742-2.077-.32-2.99.936-2.033 3.908-3.236 5.257-.942.135.246.275.52.39.863zM83.298 154.783c.27.515.443 1.114.436 1.686a1.7 1.7 0 0 1-.17.825c-.118.294-.34.55-.65.72-.326.18-.898.284-1.18.19l.81 2.537-1.123.614-2.08-6.622 1.123-.613.083.266c.784-1.517 2.157-.706 2.752.397zm-2.612.03l.897 2.885c.606.28.934-.13.994-.64.038-.308-.02-.734-.156-1.153-.273-.844-1.058-2.39-1.734-1.09zM87.473 153.677c.007 1.486-.485 2.14-1.407 2.612-1.53.773-2.594-1.114-2.5-2.7.092-1.27 1.02-2.035 1.68-1.9.587.103.926.703.943 1.305.002.856-.53 1.47-1.23 1.82.22.377.605.745 1.04.725.77-.05 1.153-.88 1.188-1.704l.285-.16zm-2.694.75c1.28-.648.595-2.24.31-2.292-.226-.03-.494.312-.533.924-.025.345.026.78.184 1.275.016.032.027.068.04.09z"/><path d="M91.91 151.217c.303 2.216-1.746 3.595-2.532 1.326a165.83 165.83 0 0 0-.598-1.848c-.326-1.01-1.043.23-.938 1.124l.945 2.917-1.13.62-1.375-4.422 1.09-.597.208.662c.327-1.443 1.857-2.237 2.505-.264.35 1.092.24.778.596 1.846.362 1.076 1.087-.282.92-1.195l.31-.17z"/></g><path fill="#727272" d="M70.555 156.367a.26.26 0 0 1-.3.216.263.263 0 0 1-.218-.3l3.433-21.54a.26.26 0 0 1 .298-.22c.143.024.24.156.217.3l-3.43 21.544zM90.588 145.042c.107.1.114.264.018.37a.263.263 0 0 1-.37.018l-16.133-14.684a.263.263 0 0 1-.018-.368.264.264 0 0 1 .37-.02l16.133 14.684z"/><path opacity=".2" fill="#010000" d="M62.733 170.29l8.048-1.238 2.536 16.477-8.047 1.237z"/><path fill="#F4F4F4" d="M61.724 169.55l8.046-1.24 2.537 16.475-8.046 1.24z"/><path fill="#FFEFD3" d="M36.393 86.288L237.9 55.3l4.01 26.085-201.506 30.988z"/><path fill="#15CC40" d="M261.916 95.048l-21.598 3.324-20.604-36.49 18.14-2.79z"/><path fill="#FFFFF3" d="M240.318 98.372l-21.597 3.32-17.148-37.02 18.142-2.79z"/><path fill="#15CC40" d="M218.72 101.693l-21.598 3.322-13.69-37.552 18.14-2.792z"/><path fill="#FFFFF3" d="M197.122 105.015l-21.6 3.32-10.232-38.083 18.14-2.79z"/><path fill="#15CC40" d="M175.522 108.336l-21.597 3.323-6.78-38.618 18.145-2.79z"/><path fill="#FFFFF3" d="M153.925 111.66l-21.598 3.32-3.32-39.147 18.14-2.79z"/><path fill="#15CC40" d="M132.327 114.98l-21.598 3.32.133-39.677 18.143-2.79z"/><path fill="#FFFFF3" d="M110.73 118.3l-21.6 3.324 3.593-40.21 18.14-2.79z"/><path fill="#15CC40" d="M89.13 121.624l-21.597 3.322 7.048-40.742 18.143-2.79z"/><path fill="#FFFFF3" d="M67.533 124.946l-21.597 3.32 10.502-41.272 18.143-2.79z"/><path fill="#15CC40" d="M45.936 128.267l-21.6 3.322 13.962-41.807 18.14-2.79zM240.266 98.046c.025.244.055.488.092.733 1.067 6.942 6.768 11.828 12.726 10.912 5.962-.917 9.928-7.29 8.862-14.232-.04-.245-.084-.488-.134-.728l-21.546 3.314z"/><path fill="#FFFFF3" d="M218.68 101.367c.026.244.057.487.094.732 1.068 6.942 6.765 11.828 12.726 10.91 5.962-.914 9.926-7.287 8.858-14.23a16.055 16.055 0 0 0-.13-.728l-21.547 3.315z"/><path fill="#15CC40" d="M197.096 104.688c.024.242.054.485.092.732 1.067 6.942 6.767 11.828 12.727 10.91 5.96-.916 9.928-7.288 8.86-14.23a14.497 14.497 0 0 0-.133-.727l-21.546 3.315z"/><path fill="#FFFFF3" d="M175.378 108.22c.024.243.056.486.092.73 1.067 6.945 6.766 11.83 12.727 10.914 5.96-.916 9.926-7.29 8.858-14.233a13.8 13.8 0 0 0-.13-.725l-21.547 3.315z"/><path fill="#15CC40" d="M153.925 111.327c.026.243.055.485.094.732 1.066 6.942 6.765 11.828 12.725 10.91 5.96-.916 9.927-7.288 8.86-14.23a15.537 15.537 0 0 0-.134-.728l-21.545 3.315z"/><path fill="#FFFFF3" d="M132.206 114.86c.026.242.057.488.093.732 1.068 6.943 6.766 11.83 12.725 10.91 5.963-.915 9.93-7.288 8.86-14.23a15.49 15.49 0 0 0-.13-.726l-21.55 3.314z"/><path fill="#15CC40" d="M110.755 117.965c.025.244.055.488.093.732 1.066 6.943 6.765 11.828 12.724 10.913 5.963-.917 9.93-7.288 8.86-14.23a13.518 13.518 0 0 0-.132-.73l-21.545 3.315z"/><path fill="#FFFFF3" d="M89.036 121.5c.025.244.056.486.094.73 1.067 6.944 6.765 11.83 12.725 10.914 5.962-.917 9.928-7.29 8.86-14.233a13.37 13.37 0 0 0-.133-.723L89.036 121.5z"/><path fill="#15CC40" d="M67.585 124.604c.024.245.053.488.092.734 1.068 6.94 6.766 11.827 12.727 10.91 5.96-.915 9.926-7.288 8.858-14.23a16.017 16.017 0 0 0-.13-.728l-21.547 3.314z"/><path fill="#FFFFF3" d="M45.865 128.14c.024.24.057.485.093.73 1.07 6.944 6.766 11.828 12.726 10.91 5.963-.916 9.928-7.286 8.86-14.23-.038-.245-.082-.486-.132-.725l-21.547 3.315z"/><path fill="#15CC40" d="M24.413 131.245c.024.243.055.488.092.73 1.067 6.946 6.767 11.83 12.728 10.914s9.927-7.29 8.86-14.232a15.77 15.77 0 0 0-.132-.727l-21.547 3.315z"/><g opacity=".05"><path d="M261.68 94.946L240.13 98.26c.025.244.055.49.093.732 1.068 6.945 6.768 11.83 12.727 10.913 5.96-.917 9.926-7.29 8.858-14.232-.04-.244-.083-.485-.13-.727z"/><path d="M218.547 101.58c.024.245.055.49.093.732 1.07 6.944 6.765 11.83 12.727 10.914 5.96-.917 9.927-7.288 8.858-14.233a16.544 16.544 0 0 0-.132-.727l-21.546 3.314z"/><path d="M196.96 104.9c.026.244.058.487.095.732 1.07 6.943 6.765 11.83 12.727 10.913 5.96-.917 9.928-7.29 8.858-14.233a15.186 15.186 0 0 0-.132-.727L196.96 104.9zM175.372 108.415c-.014-.063-.023-.127-.034-.188l-21.547 3.312c.026.245.057.488.094.732 1.067 6.944 6.767 11.83 12.726 10.914 5.492-.846 9.287-6.322 9.016-12.606 1.572 6.18 6.892 10.352 12.438 9.498 5.96-.916 9.927-7.288 8.858-14.23a16.958 16.958 0 0 0-.132-.728l-21.418 3.295zM132.2 115.053c-.012-.062-.02-.125-.032-.188l-21.55 3.313c.027.244.058.487.095.732 1.068 6.944 6.767 11.83 12.726 10.914 5.492-.846 9.288-6.322 9.016-12.61 1.57 6.18 6.89 10.356 12.437 9.503 5.962-.916 9.928-7.29 8.86-14.232a14.134 14.134 0 0 0-.133-.727l-21.42 3.295zM89.03 121.694c-.013-.064-.02-.128-.034-.19L67.45 124.82c.024.242.055.487.093.73 1.068 6.945 6.768 11.83 12.727 10.912 5.49-.844 9.288-6.32 9.016-12.605 1.57 6.18 6.89 10.354 12.436 9.5 5.962-.917 9.928-7.29 8.858-14.232a12.68 12.68 0 0 0-.13-.726l-21.42 3.294zM45.86 128.332c-.013-.062-.022-.124-.033-.188l-21.547 3.313c.023.244.055.49.09.732 1.07 6.943 6.77 11.83 12.73 10.913 5.49-.846 9.285-6.32 9.015-12.607 1.572 6.18 6.89 10.354 12.437 9.502 5.96-.918 9.928-7.29 8.86-14.233-.04-.245-.084-.487-.133-.727l-21.42 3.294z"/></g><path fill="#FFEFD3" d="M256.92 35.322l-1.922-12.5c-.733-4.77-5.196-8.044-9.97-7.31L15.325 50.84a8.742 8.742 0 0 0-7.31 9.968l1.922 12.5L256.92 35.32z"/><path opacity=".2" d="M219.264 21.108c1.335 8.688-4.626 16.816-13.317 18.153L60.195 61.68c-8.69 1.336-16.82-4.63-18.156-13.315-1.34-8.692 4.625-16.82 13.315-18.16L201.107 7.79c8.69-1.336 16.82 4.624 18.157 13.318z"/><path fill="#15CC40" d="M218.404 15.52c1.337 8.69-4.626 16.82-13.316 18.155L59.336 56.093c-8.69 1.335-16.82-4.626-18.156-13.316-1.34-8.69 4.626-16.82 13.316-18.157L200.248 2.205c8.69-1.336 16.82 4.624 18.156 13.316z"/><path fill="#FFFFF3" d="M205.396 35.672L59.644 58.087c-9.778 1.504-18.956-5.226-20.46-15.003-1.502-9.775 5.227-18.956 15.005-20.46L199.94.21c9.778-1.505 18.953 5.228 20.458 15.004 1.504 9.777-5.226 18.954-15.002 20.458zM54.803 26.615c-7.578 1.166-12.795 8.277-11.63 15.856 1.166 7.577 8.278 12.792 15.856 11.627L204.78 31.68c7.577-1.163 12.793-8.275 11.628-15.853-1.166-7.578-8.278-12.793-15.855-11.63L54.803 26.615z"/><g fill="#0BAD29"><path d="M59.244 41.87c-.68-4.417 2.062-8.077 6.48-8.756 4.436-.684 8.153 1.984 8.832 6.4s-2.064 8.076-6.502 8.758c-4.415.678-8.13-1.987-8.81-6.402zm12.103-1.863c-.42-2.746-2.496-4.54-5.198-4.126-2.703.417-4.12 2.75-3.7 5.496.42 2.723 2.478 4.543 5.18 4.127 2.7-.416 4.137-2.77 3.717-5.496zM87.98 44.937l-8.454-8.48 1.47 9.556-3.12.48L75.62 31.84l3.21-.494 8.203 8.16L85.62 30.3l3.117-.48 2.255 14.654-3.01.463zM93.89 44.03l-2.254-14.653 3.12-.48 1.83 11.907 6.194-.953.424 2.748-9.315 1.432zM105.377 42.26l-2.253-14.65 3.12-.48 2.252 14.652-3.12.48zM121.502 39.782l-8.457-8.48 1.47 9.556-3.118.48-2.254-14.653 3.207-.494 8.205 8.162-1.418-9.206 3.12-.48 2.255 14.653-3.01.462zM127.41 38.874l-2.255-14.652 10.37-1.596.422 2.746-7.25 1.115.477 3.098 7.097-1.09.422 2.743-7.096 1.092.512 3.318 7.25-1.115.42 2.746-10.37 1.594zM144.532 34.126l1.326-2.634a6.508 6.508 0 0 0 4.963 1.262c1.713-.264 2.427-1.183 2.3-2.018-.4-2.593-8.562.483-9.41-5.03-.374-2.437 1.423-4.783 4.872-5.312 2.33-.36 4.37.047 6.025 1.163l-1.383 2.55c-1.355-.914-3.015-1.176-4.51-.945-1.34.205-1.995.912-1.858 1.793.357 2.327 8.53-.526 9.372 4.944.413 2.68-1.188 4.992-5.144 5.603-2.81.432-4.978-.202-6.552-1.377zM169.06 32.47l-.946-6.154-6.922 1.065.946 6.152-3.118.48-2.254-14.653 3.118-.48.887 5.755 6.922-1.065-.886-5.756 3.14-.482 2.255 14.654-3.14.483zM173.248 24.335c-.68-4.417 2.062-8.076 6.48-8.756 4.436-.683 8.15 1.983 8.83 6.398.68 4.416-2.062 8.077-6.5 8.76-4.414.68-8.13-1.988-8.81-6.403zm12.105-1.86c-.422-2.747-2.5-4.542-5.2-4.127-2.702.415-4.12 2.747-3.697 5.494.42 2.724 2.476 4.544 5.18 4.128 2.7-.415 4.135-2.772 3.717-5.496zM191.88 28.958l-2.254-14.652 6.856-1.057c3.184-.49 5.25 1.395 5.646 3.966.393 2.55-1.032 4.995-4.195 5.48l-3.734.574.8 5.207-3.12.48zm7.064-11.25c-.19-1.23-1.23-1.836-2.458-1.646l-3.316.51.606 3.955 3.32-.51c1.228-.19 2.033-1.1 1.848-2.31z"/></g><g fill="#FFF"><path d="M59.043 40.574c-.68-4.417 2.064-8.077 6.48-8.756 4.438-.682 8.152 1.983 8.832 6.4.68 4.415-2.063 8.076-6.5 8.76-4.416.677-8.132-1.99-8.812-6.404zm12.105-1.864c-.42-2.746-2.497-4.54-5.2-4.124s-4.118 2.747-3.697 5.493c.42 2.725 2.477 4.544 5.18 4.128 2.702-.415 4.136-2.773 3.718-5.498zM87.783 43.64l-8.458-8.48 1.47 9.556-3.118.48-2.255-14.653 3.208-.493 8.204 8.162-1.415-9.206 3.118-.48 2.255 14.654-3.01.46zM93.688 42.733l-2.25-14.653 3.118-.48 1.83 11.907 6.196-.952.422 2.746-9.316 1.433zM105.177 40.966l-2.252-14.653 3.12-.48 2.253 14.654-3.12.48zM121.302 38.485l-8.456-8.48 1.47 9.558-3.12.48-2.252-14.655 3.207-.493 8.204 8.162-1.415-9.206 3.118-.478 2.255 14.653-3.01.46zM127.21 37.58l-2.254-14.654 10.37-1.595.423 2.746-7.25 1.116.476 3.097 7.096-1.093.422 2.745-7.097 1.092.512 3.318 7.248-1.114.422 2.744-10.37 1.598zM144.333 32.832l1.327-2.635a6.496 6.496 0 0 0 4.962 1.26c1.713-.262 2.426-1.18 2.3-2.015-.4-2.594-8.563.482-9.41-5.03-.375-2.44 1.422-4.783 4.87-5.314 2.33-.357 4.37.047 6.027 1.163l-1.385 2.554c-1.355-.916-3.015-1.177-4.51-.948-1.34.208-1.995.914-1.86 1.794.358 2.328 8.532-.526 9.374 4.943.412 2.682-1.19 4.996-5.145 5.604-2.81.432-4.978-.2-6.552-1.375zM168.86 31.17l-.947-6.15-6.92 1.064.945 6.153-3.118.48-2.255-14.653 3.12-.48.885 5.755 6.92-1.064-.885-5.756 3.142-.482L172 30.69l-3.14.48zM173.05 23.04c-.68-4.416 2.06-8.075 6.478-8.755 4.438-.682 8.153 1.982 8.833 6.4.68 4.414-2.063 8.076-6.5 8.76-4.417.677-8.13-1.99-8.81-6.406zm12.103-1.862c-.422-2.747-2.498-4.542-5.2-4.126-2.7.416-4.12 2.747-3.697 5.494.42 2.726 2.476 4.543 5.178 4.13 2.702-.417 4.138-2.775 3.72-5.498zM191.682 27.662l-2.255-14.652 6.854-1.055c3.188-.49 5.254 1.396 5.65 3.967.39 2.55-1.032 4.994-4.196 5.48l-3.734.574.8 5.207-3.118.48zm7.063-11.25c-.19-1.23-1.228-1.836-2.46-1.646l-3.314.51.607 3.957 3.317-.513c1.23-.19 2.037-1.1 1.85-2.307z"/></g><path opacity=".2" d="M254.158 109.53s23.023-11.87 23.94-11.158c.914.71 3.154 4.81 3.154 4.81l8.544 5.727-24.863 31.63-.953-6.196-51.434 61.933-28.173 7.534 69.785-94.28z"/><path fill="#FF4040" d="M309.082 318.36c-2.638 12.993-10.055 22.455-22.456 22.455H64.83c-12.402 0-20.032-10.124-22.457-22.456L22.127 210.98c0-12.4 30.3 3.523 42.702 3.523h235c12.4 0 27.737-12.4 27.737 0L309.082 318.36z"/><path opacity=".1" d="M309.082 313.496c-2.638 12.993-10.055 22.457-22.456 22.457H64.83c-12.402 0-20.032-10.124-22.457-22.457L22.61 208.678c-.313.625-.483 1.385-.483 2.303l20.246 107.38c2.425 12.33 10.055 22.455 22.456 22.455h221.796c12.4 0 19.818-9.462 22.456-22.456l18.485-103.856c0-1.128-.13-2.047-.37-2.794l-18.115 101.786z"/><path opacity=".2" d="M327.567 214.503c0-2.127-.48-3.484-1.29-4.34-3.53.946-7.164 1.7-10.6 1.7h-3.496c-4.012 1.337-8.334 2.64-12.35 2.64h-235c-3.37 0-8.062-1.178-13.106-2.64h-.846c-6.053 0-15.89-2.987-25.097-5.367-2.273.5-3.653 1.848-3.653 4.484l3.37 17.884H149.77c5.555 8.384 15.803 14.03 27.557 14.03 11.757 0 22.005-5.647 27.558-14.03h120.127l2.555-14.36z"/><path fill="#FF5252" d="M341.13 212.86c0 4.28-3.47 7.752-7.75 7.752H20.717a7.753 7.753 0 0 1-7.752-7.753l-2.736-13.21a7.756 7.756 0 0 1 7.753-7.755h318.133a7.756 7.756 0 0 1 7.752 7.755l-2.737 13.21z"/><path opacity=".2" fill="#FFF" d="M17.982 195.527h318.133c3.554 0 6.52 2.405 7.434 5.668l.317-1.545a7.756 7.756 0 0 0-7.752-7.755H17.982a7.756 7.756 0 0 0-7.754 7.755l.32 1.545c.916-3.263 3.878-5.668 7.434-5.668z"/><path opacity=".2" d="M144.7 206.253a32.11 32.11 0 0 0 3.394 14.358h57.91c2.153-4.328 3.394-9.19 3.394-14.357 0-5.164-1.24-10.027-3.395-14.358h-57.91c-2.154 4.33-3.393 9.194-3.393 14.358z"/><circle fill="#FF5252" cx="177.048" cy="206.253" r="28.388"/><path opacity=".2" d="M199.11 206.253c0 12.185-9.877 22.066-22.06 22.066-12.19 0-22.065-9.883-22.065-22.067s9.874-22.063 22.064-22.063c12.183 0 22.06 9.88 22.06 22.063z"/><g opacity=".3"><path d="M303.858 266.215a5.504 5.504 0 0 1-5.505 5.502 5.498 5.498 0 0 1-5.496-5.502V241.57c0-3.04 2.46-5.502 5.496-5.502a5.503 5.503 0 0 1 5.505 5.5v24.647zM281.4 266.215a5.503 5.503 0 0 1-5.5 5.502c-3.04 0-5.5-2.463-5.5-5.502V241.57c0-3.04 2.46-5.502 5.5-5.502a5.503 5.503 0 0 1 5.5 5.5v24.647zM258.945 266.215a5.503 5.503 0 0 1-5.504 5.502 5.5 5.5 0 0 1-5.496-5.502V241.57c0-3.04 2.46-5.502 5.497-5.502a5.502 5.502 0 0 1 5.505 5.5v24.647zM236.49 266.215a5.505 5.505 0 0 1-5.505 5.502 5.5 5.5 0 0 1-5.497-5.502V241.57c0-3.04 2.46-5.502 5.497-5.502a5.504 5.504 0 0 1 5.505 5.5v24.647zM214.033 266.215a5.503 5.503 0 0 1-5.502 5.502 5.5 5.5 0 0 1-5.5-5.502V241.57c0-3.04 2.46-5.502 5.5-5.502a5.503 5.503 0 0 1 5.503 5.5v24.647zM191.577 266.215a5.503 5.503 0 0 1-5.505 5.502 5.498 5.498 0 0 1-5.496-5.502V241.57c0-3.04 2.46-5.502 5.496-5.502a5.502 5.502 0 0 1 5.505 5.5v24.647zM169.122 266.215a5.505 5.505 0 0 1-5.505 5.502 5.5 5.5 0 0 1-5.498-5.502V241.57c0-3.04 2.46-5.502 5.497-5.502a5.505 5.505 0 0 1 5.505 5.5v24.647zM146.665 266.215a5.504 5.504 0 0 1-5.503 5.502 5.498 5.498 0 0 1-5.498-5.502V241.57c0-3.04 2.46-5.502 5.498-5.502a5.503 5.503 0 0 1 5.503 5.5v24.647zM124.21 266.215a5.504 5.504 0 0 1-5.506 5.502 5.5 5.5 0 0 1-5.497-5.502V241.57c0-3.04 2.46-5.502 5.497-5.502a5.503 5.503 0 0 1 5.505 5.5v24.647zM101.75 266.215a5.5 5.5 0 0 1-11 0V241.57a5.5 5.5 0 0 1 5.5-5.502 5.502 5.502 0 0 1 5.5 5.5v24.647zM79.297 266.215a5.504 5.504 0 0 1-5.503 5.502 5.5 5.5 0 0 1-5.5-5.502V241.57c0-3.04 2.46-5.502 5.5-5.502a5.503 5.503 0 0 1 5.503 5.5v24.647zM56.84 266.215a5.503 5.503 0 0 1-5.504 5.502 5.5 5.5 0 0 1-5.497-5.502V241.57c0-3.04 2.46-5.502 5.496-5.502a5.502 5.502 0 0 1 5.504 5.5v24.647z"/></g><g opacity=".3"><path d="M281.4 314.408c0 3.04-2.465 5.5-5.5 5.5-3.04 0-5.5-2.46-5.5-5.5v-24.646c0-3.038 2.46-5.5 5.5-5.5a5.503 5.503 0 0 1 5.5 5.5v24.646zM258.945 314.408c0 3.04-2.464 5.5-5.504 5.5a5.498 5.498 0 0 1-5.496-5.5v-24.646c0-3.038 2.46-5.5 5.497-5.5a5.502 5.502 0 0 1 5.505 5.5v24.646zM236.49 314.408c0 3.04-2.467 5.5-5.505 5.5a5.498 5.498 0 0 1-5.497-5.5v-24.646a5.5 5.5 0 0 1 5.497-5.5 5.505 5.505 0 0 1 5.505 5.5v24.646zM214.033 314.408c0 3.04-2.466 5.5-5.502 5.5-3.04 0-5.5-2.46-5.5-5.5v-24.646a5.5 5.5 0 0 1 5.5-5.5 5.503 5.503 0 0 1 5.503 5.5v24.646zM191.577 314.408c0 3.04-2.464 5.5-5.505 5.5a5.498 5.498 0 0 1-5.496-5.5v-24.646c0-3.038 2.46-5.5 5.496-5.5a5.503 5.503 0 0 1 5.505 5.5v24.646zM169.122 314.408c0 3.04-2.468 5.5-5.505 5.5a5.498 5.498 0 0 1-5.498-5.5v-24.646a5.5 5.5 0 0 1 5.497-5.5 5.505 5.505 0 0 1 5.505 5.5v24.646zM146.665 314.408c0 3.04-2.466 5.5-5.503 5.5a5.497 5.497 0 0 1-5.498-5.5v-24.646c0-3.038 2.46-5.5 5.498-5.5a5.503 5.503 0 0 1 5.503 5.5v24.646zM124.21 314.408c0 3.04-2.467 5.5-5.506 5.5a5.498 5.498 0 0 1-5.497-5.5v-24.646a5.5 5.5 0 0 1 5.497-5.5 5.504 5.504 0 0 1 5.505 5.5v24.646zM101.75 314.408c0 3.04-2.464 5.5-5.5 5.5a5.5 5.5 0 0 1-5.5-5.5v-24.646a5.5 5.5 0 0 1 5.5-5.5 5.503 5.503 0 0 1 5.5 5.5v24.646zM79.297 314.408c0 3.04-2.466 5.5-5.503 5.5-3.04 0-5.5-2.46-5.5-5.5v-24.646a5.5 5.5 0 0 1 5.5-5.5 5.503 5.503 0 0 1 5.503 5.5v24.646z"/></g><path opacity=".1" d="M90.56 340.815h196.066c12.4 0 19.818-9.462 22.456-22.456l16.865-94.767c-74.25 37.125-179.156 89.5-235.388 117.222z"/><g><path fill="#4D4756" d="M188.547 217.75c-5.73 6.937-15.99 7.914-22.926 2.19-6.933-5.73-7.913-15.992-2.186-22.93L267.692 68.758c5.726-6.932 12.626-3.84 19.56 1.888 6.936 5.725 11.277 11.916 5.55 18.852L188.547 217.75z"/><path opacity=".2" d="M193.368 199.473l-12.9-10.65L267.35 81.606l12.896 10.65z"/><path fill="#FF5252" d="M184.658 211.402a9.244 9.244 0 0 1-13.013 1.243c-3.938-3.253-4.495-9.078-1.243-13.014 3.252-3.937 9.077-4.49 13.016-1.24 3.933 3.25 4.49 9.075 1.24 13.012z"/></g></svg>