<svg xmlns="http://www.w3.org/2000/svg" width="31" height="23.99" viewBox="-8.104 -4.694 31 23.99"><path fill="#00BE2B" d="M-8.104-4.694h31v17h-31z"/><path fill="#069525" d="M15.02 19.297l7.63-6.984h-7.63z"/><path fill="#FFF" d="M8.67 6.448H6.936a44.642 44.642 0 0 1-.006-.47c0-.58.094-1.055.28-1.432.185-.374.557-.793 1.112-1.26.557-.467.888-.773 1-.92.168-.226.25-.48.25-.75 0-.388-.146-.716-.44-.988-.3-.275-.7-.41-1.203-.41-.486 0-.89.14-1.216.426-.328.29-.55.72-.673 1.302l-1.75-.222C4.337.888 4.683.178 5.323-.41c.642-.582 1.48-.874 2.523-.874 1.097 0 1.968.295 2.614.89.65.59.972 1.277.972 2.06 0 .438-.117.85-.355 1.24-.24.388-.746.914-1.523 1.582-.406.348-.654.625-.75.833-.1.21-.143.587-.135 1.128zm-1.733 2.65V7.13h1.91V9.1h-1.91z"/></svg>