<svg xmlns="http://www.w3.org/2000/svg" width="66.295" height="66.296" viewBox="0 0 66.295 66.296"><circle fill="#FF8200" cx="33.147" cy="33.147" r="33.147"/><path opacity=".3" fill="#100030" d="M11.848 35.54c5.06 8.54 3.304 16.914 21.3 16.914 17.004 0 15.538-12.076 21.3-16.914V7.755A33.004 33.004 0 0 0 33.147 0c-8.11 0-15.54 2.917-21.3 7.755V35.54z"/><path fill="#FFF" d="M33.148 11.85c-11.764 0-21.3 9.534-21.3 21.298s9.536 21.3 21.3 21.3c11.763 0 21.3-9.536 21.3-21.3s-9.537-21.3-21.3-21.3zm-18.26 22.6h7.452c.07 2.21.32 4.326.717 6.297H16.49a18.12 18.12 0 0 1-1.6-6.296zm19.745-12.115v-6.892c1.982.85 3.703 3.37 4.87 6.892h-4.87zm5.667 2.973a36.66 36.66 0 0 1 .755 6.175h-6.422v-6.175H40.3zm-8.637-9.865v6.892h-4.87c1.165-3.523 2.887-6.043 4.87-6.892zm0 9.865v6.175h-6.42a36.77 36.77 0 0 1 .752-6.175h5.668zm-9.31 6.174h-7.438c.2-2.195.78-4.273 1.684-6.175h6.505a37.737 37.737 0 0 0-.75 6.175zm2.875 2.97h6.435v6.295h-5.717a37.1 37.1 0 0 1-.718-6.296zm6.435 9.267v7.133c-2.027-.87-3.78-3.486-4.946-7.134h4.946zm2.97 7.133V43.72h4.947c-1.17 3.646-2.92 6.26-4.947 7.133zm0-10.106V34.45h6.433c-.07 2.238-.32 4.36-.716 6.297h-5.717zm9.32-6.296h7.452a18.198 18.198 0 0 1-1.6 6.297h-6.567a37.97 37.97 0 0 0 .716-6.296zm-.01-2.968a38.29 38.29 0 0 0-.752-6.175h6.507c.903 1.9 1.484 3.98 1.682 6.175H43.94zm3.98-9.147h-5.5c-.8-2.555-1.872-4.75-3.14-6.44a18.333 18.333 0 0 1 8.64 6.44zm-20.908-6.44c-1.27 1.69-2.345 3.885-3.143 6.44h-5.5a18.32 18.32 0 0 1 8.643-6.44zM18.202 43.72h5.6c.805 2.656 1.903 4.94 3.21 6.68a18.358 18.358 0 0 1-8.81-6.68zm21.08 6.68c1.31-1.74 2.408-4.024 3.214-6.682h5.6a18.35 18.35 0 0 1-8.814 6.68z"/></svg>