<svg xmlns="http://www.w3.org/2000/svg" width="16.543" height="13.024" viewBox="0 0 16.543 13.024"><g fill="#2DACFB"><path d="M16.054 6.897L13.49 4.332 9.66.47A1.66 1.66 0 0 0 8.81.013C8.728-.002 8.632 0 7.52.002c.424.002-.746.005-.712.012.312.062.61.213.853.455L11.49 4.33l2.565 2.565c.658.658.65 1.73-.018 2.4l-3.223 3.223c-.065.065-.137.12-.21.172.662.49 1.604.435 2.21-.172l3.223-3.223c.67-.67.677-1.742.02-2.4z"/><path d="M12.533 6.897L9.968 4.332 6.14.47a1.663 1.663 0 0 0-.853-.456c-.125-.025-3.85-.01-3.85-.01-.862-.07-1.502.57-1.43 1.43 0 0-.018 3.73.008 3.854.062.313.212.61.454.853l3.858 3.832 2.565 2.565c.658.658 1.733.65 2.4-.017l3.222-3.223c.67-.67.676-1.742.018-2.4zM3 4a1 1 0 1 1 0-2 1 1 0 0 1 0 2z"/></g></svg>