<svg xmlns="http://www.w3.org/2000/svg" width="64.008" height="51.122" viewBox="0 0 64.008 51.122"><g fill="#6AC634"><path d="M12.787 47.33c.113 2.112 1.54 3.792 3.3 3.792H47.91c1.76 0 3.186-1.68 3.3-3.793H12.786zM30.614 27.103h4.613v-1.22H32v-1.48h2.877v-1.22H32v-1.376h3.227v-1.224h-4.613zM29.426 22.683c0-1.21-.83-2.1-2.19-2.1H24.19v6.52h1.387v-2.318h1.16l1.418 2.318h1.595l-1.605-2.483c.702-.167 1.283-.782 1.283-1.937zm-2.393.88h-1.458v-1.757h1.458c.555 0 .977.33.977.876 0 .548-.423.88-.977.88zM39.47 27.23c1.184 0 2.113-.488 2.776-1.232v-2.434H39.14v1.23h1.72v.694c-.266.245-.813.5-1.39.5-1.182 0-2.043-.91-2.043-2.142s.86-2.14 2.043-2.14c.695 0 1.25.39 1.544.85l1.154-.625c-.49-.77-1.34-1.455-2.698-1.455-1.905 0-3.47 1.31-3.47 3.37 0 2.053 1.565 3.384 3.47 3.384z"/><path d="M63.148 11.587L49.835.735c-.12-.1-.25-.18-.38-.25C48.99.188 48.47 0 47.908 0h-7.222c.004.086.017.17.017.258 0 3.664-3.898 6.636-8.707 6.636-4.807 0-8.706-2.972-8.706-6.636 0-.087.013-.172.018-.258h-7.223c-.694 0-1.337.262-1.87.707-.014.01-.03.018-.044.03L.86 11.586c-.96.78-1.145 2.245-.412 3.272l5.516 7.73c.73 1.023 2.102 1.224 3.062.44l3.74-3.048v25.455H51.23V19.973l3.753 3.06c.96.782 2.33.582 3.062-.44l5.516-7.732c.732-1.028.548-2.492-.412-3.273zm-44.528 6.09l.796-.062c.434-.033.76-.437.713-.897l-.08-.775a.82.82 0 0 1 .755-.9l5.51-.43c.426-.033.81.26.9.665l-5.997 3.12-.295.153-.03.334-1.066 10.986-1.207-12.192zm25.417 13.17l-4.465.35-6.98.548-12.417.974 1.338-13.83 12.47-6.485 11.392 4.614-1.338 13.826z"/></g></svg>