<svg baseProfile="basic" xmlns="http://www.w3.org/2000/svg" width="163" height="36" viewBox="0 0 163 36"><path fill="#005EAE" d="M36 18c0 9.9-8.1 18-18 18S0 27.9 0 18 8.1 0 18 0s18 8.1 18 18z"/><circle fill="#131309" cx="17.7" cy="18" r="9.3"/><circle fill="#FFF" cx="11.5" cy="9.2" r="4.1"/><path fill="#005EAE" d="M58.8 25.5c-1.2.4-3.5 1-5.9 1-3.2 0-5.5-.8-7.1-2.3-1.5-1.4-2.3-3.3-2.3-5.5 0-5 4-8.2 9.7-8.2 2.3 0 4.1.4 5 .8l-.8 2.9c-1-.4-2.2-.8-4.3-.8-3.2 0-5.7 1.7-5.7 4.9 0 3.1 2.2 5.1 5.6 5.1 1 0 1.8-.1 2.1-.3V20h-2.8v-2.9h6.4v8.4zM61.8 9.7h3v16.6h-3V9.7zM73.6 24.5c-1.8 0-3.2-1.5-3.2-3.8 0-2 1-3.8 3.2-3.8s3.2 1.9 3.2 3.8c0 2.4-1.4 3.8-3.2 3.8zm0 2.1c3.3 0 6.4-2.1 6.4-6.1 0-3.3-2.5-5.8-6.2-5.8-3.8 0-6.4 2.5-6.4 6-.1 3.6 2.7 5.9 6.2 5.9zM85.4 20.1c0-.3 0-.5.1-.7.4-1.4 1.6-2.3 2.9-2.3 2.1 0 3.2 1.7 3.2 3.6 0 2.3-1.3 3.7-3.3 3.7-1.5 0-2.6-1-2.9-2.2 0-.2-.1-.4-.1-.7v-1.4zm-2.9 3c0 1.2 0 2.5-.1 3.2h2.5l.1-1.8c.9 1.5 2.4 2.1 4 2.1 2.8 0 5.7-2 5.7-6.1 0-3.5-2.2-5.8-5.2-5.8-1.9 0-3.3.8-4 1.9v-7h-3v13.5zM103.8 22.2c0 .2 0 .4-.1.6-.3.8-1.2 1.7-2.5 1.7-1 0-1.8-.5-1.8-1.6 0-1.6 2-2.1 4.4-2.1v1.4zm2.9-2.6c0-2.5-1.1-4.9-5-4.9-1.9 0-3.5.5-4.4 1.1l.6 1.9c.8-.5 2.1-.9 3.4-.9 2.3 0 2.5 1.4 2.5 2v.2c-4.7 0-7.3 1.5-7.3 4.3 0 1.6 1.3 3.4 3.8 3.4 1.6 0 2.9-.7 3.6-1.6h.1l.2 1.3h2.7c-.1-.7-.2-1.7-.2-2.8v-4zM109.9 9.7h3v16.6h-3V9.7zM116.5 22.5c1 .6 2.6 1.1 4.4 1.1 1.7 0 2.6-.7 2.6-1.7 0-.9-.8-1.5-2.8-2.1-2.8-.8-4.8-2.1-4.8-4.7 0-2.7 2.4-4.7 6.3-4.7 2 0 3.4.4 4.5.9l-.9 2.9c-.7-.3-2-.8-3.7-.8-1.6 0-2.4.7-2.4 1.5 0 1 1 1.4 3.1 2.1 3 1 4.5 2.4 4.5 4.8 0 2.5-2 4.9-6.7 4.9-1.9 0-3.9-.5-4.9-1.1l.8-3.1zM130 26.3V15h3v11.3h-3zm1.4-13c-1.1 0-1.7-.8-1.7-1.6 0-.9.7-1.6 1.8-1.6s1.7.7 1.8 1.6c-.1.8-.7 1.6-1.9 1.6zM144.4 21.1c0 .3 0 .7-.1 1-.3 1.1-1.4 1.9-2.7 1.9-2.1 0-3.1-1.7-3.1-3.4 0-2.4 1.4-3.7 3.1-3.7 1.4 0 2.3.8 2.7 2 .1.2.1.5.1.8v1.4zm3-2.9c0-1.6 0-2.4.1-3.1h-2.6l-.1 1.6c-.6-1-1.7-1.9-3.7-1.9-3 0-5.6 2.3-5.6 6 0 3.3 2.3 5.5 5.3 5.5 1.7 0 3-.7 3.7-1.8v1c0 2.5-1.6 3.5-3.6 3.5-1.5 0-2.9-.5-3.7-1l-.7 2.3c1.1.7 2.8 1 4.4 1 1.6 0 3.4-.3 4.7-1.4 1.3-1.1 1.8-3 1.8-5.2v-6.5zM150.8 18.4c0-1.3 0-2.5-.1-3.4h2.6l.1 1.8h.1c.5-.9 1.8-2.1 3.9-2.1 2 0 4.4 1.2 4.4 5.1v6.5h-3v-6.1c0-1.8-.7-3.1-2.4-3.1-1.3 0-2.2.9-2.5 1.8-.1.2-.1.6-.1.9v6.5h-3v-7.9z"/></svg>