<svg xmlns="http://www.w3.org/2000/svg" width="86" height="72" viewBox="0 0 86 72"><title>посадочная в ЯД значок 1</title><path d="M38.21,64.771A5.709,5.709,0,0,1,32.5,70.48h0a5.709,5.709,0,0,1-5.709-5.709V8.188A5.709,5.709,0,0,1,32.5,2.48h0A5.709,5.709,0,0,1,38.21,8.188Z" fill="#e3e3e3"/><path d="M38.21,64.771A5.709,5.709,0,0,1,32.5,70.48h0a5.709,5.709,0,0,1-5.709-5.709V8.188A5.709,5.709,0,0,1,32.5,2.48h0A5.709,5.709,0,0,1,38.21,8.188Z" fill="#e3e3e3"/><path d="M32.5,2.48a5.7,5.7,0,0,0-1.926.334,5.711,5.711,0,0,1,3.782,5.375V64.771a5.711,5.711,0,0,1-3.782,5.375,5.712,5.712,0,0,0,7.635-5.375V8.188A5.709,5.709,0,0,0,32.5,2.48Z" fill="#231300" opacity="0.1"/><path d="M29.431,64.771V8.188a5.711,5.711,0,0,1,4.39-5.555,5.713,5.713,0,0,0-7.028,5.555V64.771a5.713,5.713,0,0,0,7.028,5.555A5.711,5.711,0,0,1,29.431,64.771Z" fill="#fff" opacity="0.2"/><path d="M26.792,31.477V60.4q2.515.246,5.1.249a52.155,52.155,0,0,0,6.322-.384V31.612a52.155,52.155,0,0,0-6.322-.384Q29.309,31.228,26.792,31.477Z" fill="#231300" opacity="0.2"/><path d="M74.528,32.563c0,2.843-16.577,24.058-19.419,24.058H5.147A5.147,5.147,0,0,1,0,51.474V17.147A5.147,5.147,0,0,1,5.147,12H55.109c2.843,0,19.419,17.647,19.419,20.49Z" fill="#84a810"/><polygon points="33.264 18.949 37.664 27.849 47.464 29.249 40.364 36.149 42.064 45.949 33.264 41.349 24.464 45.949 26.164 36.149 19.064 29.249 28.864 27.849 33.264 18.949" fill="#fcd22e"/></svg>