<svg xmlns="http://www.w3.org/2000/svg" width="86" height="72" viewBox="0 0 86 72"><title>посадочная в ЯД значок 2</title><polygon points="42.7 70.963 27.7 63.563 12.7 70.963 12.7 30.463 42.7 30.463 42.7 70.963" fill="#e23934"/><path d="M55.6,27.763c0,2.9-3.4,5.1-4.2,7.7-.9,2.7.5,6.5-1.1,8.7s-5.7,2.1-7.9,3.8c-2.2,1.6-3.4,5.5-6,6.4-2.6.8-5.8-1.6-8.6-1.6-2.9,0-6.1,2.4-8.6,1.6-2.7-.9-3.8-4.8-6-6.4s-6.3-1.5-7.9-3.8c-1.6-2.2-.3-6-1.1-8.7-.8-2.6-4.2-4.9-4.2-7.7,0-2.9,3.4-5.1,4.2-7.7.9-2.7-.5-6.5,1.1-8.7s5.7-2.1,7.9-3.8c2.2-1.6,3.4-5.5,6-6.4,2.6-.8,5.8,1.6,8.6,1.6,2.9,0,6.1-2.4,8.6-1.6,2.7.9,3.8,4.8,6,6.4s6.3,1.5,7.9,3.8c1.6,2.2.3,6,1.1,8.7C52.3,22.563,55.6,24.863,55.6,27.763Z" fill="#ff5148"/><circle cx="27.7" cy="27.763" r="20.1" fill="#f2f2f2"/><polygon points="27.7 13.463 32.1 22.363 41.9 23.763 34.8 30.663 36.5 40.463 27.7 35.863 18.9 40.463 20.6 30.663 13.5 23.763 23.3 22.363 27.7 13.463" fill="#fcd22e"/></svg>