<svg xmlns="http://www.w3.org/2000/svg" width="149.333" height="149.334" viewBox="0 0 149.333 149.334"><path fill="#DBDBDB" d="M74.666 0C33.43 0 0 33.43 0 74.667s33.43 74.667 74.666 74.667 74.667-33.43 74.667-74.667S115.903 0 74.666 0zm0 142.667c-37.555 0-68-30.444-68-68s30.445-68 68-68c37.556 0 68 30.444 68 68s-30.444 68-68 68z"/><circle fill="#DBDBDB" cx="74.666" cy="74.667" r="61.202"/><path fill="#FFF" d="M107.34 97.66S92.553 83.157 81.023 72.917l16.312-16.364 8.705 8.603 6.91-6.992-8.563-9.01c1.592-2.093.53-3.566-.247-4.26l-1.672-1.68a3.205 3.205 0 0 0-.1-.1l-.002-.002a3.48 3.48 0 0 0-.387-.33c-.775-.567-1.97-.933-3.502.153l-2.147-2.26-16.616-1.538 11.218 11.087L73.98 66.9l-.25-.202c-10.722-8.59-9.77-13.742-9.77-13.742l-.33-7.637s-1.437.673-4.637 2.338c-5.96-8.775-13.205-6.79-13.205-6.79l5.59 11.033-2.65 1.594h-4.305L40.2 43.788c-4.636 4.305-5.05 10.626-1.24 15.097s7.78 2.583 15.645 5.73c2.286.914 6.778 4.623 12.052 9.52l-27.74 27.27s-2.234 2.35 1.118 5.206c.092.08.178.15.262.22.095.11.193.22.3.342 2.897 3.317 5.23 1.054 5.23 1.054l27.58-27.667c11.526 11.296 23.887 24.54 25.158 25.713 2.152 1.986 6.788 6.622 11.26 1.82 4.47-4.803-2.484-10.433-2.484-10.433zm.393 8.35a2.48 2.48 0 1 1-4.1-2.796 2.48 2.48 0 0 1 4.1 2.797z"/></svg>