<svg xmlns="http://www.w3.org/2000/svg" width="149.333" height="149.334" viewBox="0 0 149.333 149.334"><path fill="#DBDBDB" d="M75.194 1.137C33.957 1.137.528 34.567.528 75.804s33.43 74.667 74.666 74.667 74.667-33.43 74.667-74.666S116.433 1.137 75.195 1.137zm0 142.667c-37.555 0-68-30.444-68-68s30.445-68 68-68c37.556 0 68 30.444 68 68s-30.444 68-68 68z"/><circle fill="#DBDBDB" cx="75.194" cy="75.804" r="61.202"/><g fill="#FFF"><path d="M119.674 51.68c-.104-3.246-2.44-4.488-5.2-2.774l-3.235 2.01C100.092 34.773 79.035 27.608 59.824 34.79c-13.458 5.033-22.982 15.973-26.73 28.777l.006.003a5.31 5.31 0 0 0 .092 3.45 5.33 5.33 0 0 0 6.856 3.123 5.303 5.303 0 0 0 2.797-2.42l.117.05c.07-.275.156-.545.232-.818.08-.224.145-.454.195-.688 2.895-9.58 10.056-17.75 20.155-21.527 14.384-5.378 30.133-.138 38.652 11.79l-2.96 1.84c-2.76 1.714-2.682 4.36.18 5.892l15.814 8.46c2.864 1.532 5.124.134 5.02-3.113l-.576-17.93zM109.774 83.32a5.3 5.3 0 0 0-2.796 2.42l-.085-.035c-2.947 9.466-10.075 17.52-20.08 21.262-14.038 5.248-29.374.387-38.024-10.935l2.912-2.05c2.657-1.87 2.425-4.508-.522-5.873l-16.275-7.532c-2.947-1.364-5.122.162-4.83 3.397l1.61 17.866c.293 3.235 2.696 4.34 5.352 2.47l3.067-2.16c11.37 15.177 31.768 21.743 50.43 14.766 12.572-4.7 21.694-14.566 25.897-26.282a5.307 5.307 0 0 0 .2-4.19 5.328 5.328 0 0 0-6.856-3.123z"/></g></svg>