<svg xmlns="http://www.w3.org/2000/svg" width="149.333" height="149.334" viewBox="0 0 149.333 149.334"><path fill="#DBDBDB" d="M74.666 0C33.43 0 0 33.43 0 74.667s33.43 74.667 74.666 74.667 74.667-33.43 74.667-74.667S115.903 0 74.666 0zm0 142.667c-37.555 0-68-30.444-68-68s30.445-68 68-68c37.556 0 68 30.444 68 68s-30.444 68-68 68z"/><circle fill="#DBDBDB" cx="74.666" cy="74.667" r="61.202"/><g fill="#FFF"><path d="M27.608 83.696l2.91-4.08a11.043 11.043 0 0 0 8.008 3.4c2.947 0 4.383-1.36 4.383-2.796 0-4.458-14.51-1.397-14.51-10.88 0-4.194 3.628-7.67 9.56-7.67 4.005 0 7.33 1.21 9.823 3.513l-2.985 3.93c-2.04-1.89-4.76-2.758-7.33-2.758-2.304 0-3.588 1.02-3.588 2.53 0 4.006 14.47 1.323 14.47 10.73 0 4.61-3.287 8.085-10.087 8.085-4.836 0-8.313-1.623-10.655-4.004zM57.305 87.248V66.77h-7.367V62.05h20.1v4.723h-7.33v20.48h-5.403zM71.36 74.667c0-7.594 5.554-13.034 13.147-13.034 7.632 0 13.186 5.44 13.186 13.034S92.14 87.7 84.508 87.7c-7.594 0-13.148-5.44-13.148-13.033zm20.818 0c0-4.723-3.022-8.274-7.67-8.274-4.646 0-7.632 3.552-7.632 8.274 0 4.685 2.985 8.274 7.632 8.274s7.67-3.588 7.67-8.273zM101.474 87.248v-25.2h11.787c5.48 0 8.464 3.703 8.464 8.123 0 4.384-3.022 8.124-8.463 8.124h-6.422v8.954h-5.364zm14.77-17.077c0-2.114-1.585-3.4-3.7-3.4h-5.706v6.802h5.705c2.116 0 3.702-1.323 3.702-3.4z"/></g></svg>