<svg xmlns="http://www.w3.org/2000/svg" width="149.333" height="149.334" viewBox="0 0 149.333 149.334"><path fill="#DBDBDB" d="M74.666 0C33.43 0 0 33.43 0 74.667s33.43 74.667 74.666 74.667 74.667-33.43 74.667-74.667S115.903 0 74.666 0zm0 142.667c-37.555 0-68-30.444-68-68s30.445-68 68-68c37.556 0 68 30.444 68 68s-30.444 68-68 68z"/><circle fill="#DBDBDB" cx="74.666" cy="74.667" r="61.202"/><path fill="#FFF" d="M96.008 63.72h-2.536V50.157c0-10.465-8.035-18.98-18.5-18.98s-18.5 8.516-18.5 18.98V63.72h-2.498c-2.245 0-4.502 1.728-4.502 3.975v35.93c0 2.247 2.257 4.096 4.502 4.096h42.034c2.247 0 4.464-1.848 4.464-4.094V67.694c0-2.247-2.217-3.974-4.464-3.974zM77.472 85.857V96.41c0 1.735-.76 3.146-2.5 3.146s-2.5-1.41-2.5-3.146V85.853c-3-1.09-3.458-3.116-3.458-5.442 0-3.476 2.66-6.292 6.138-6.292 3.465 0 5.884 2.816 5.884 6.293 0 2.33-.564 4.358-3.564 5.447zm8-22.137h-21V50.157c0-5.98 4.52-10.846 10.5-10.846 5.982 0 10.5 4.868 10.5 10.847V63.72z"/></svg>