<svg xmlns="http://www.w3.org/2000/svg" width="149.333" height="149.334" viewBox="0 0 149.333 149.334"><path fill="#DBDBDB" d="M74.666 0C33.43 0 0 33.43 0 74.667s33.43 74.667 74.666 74.667 74.667-33.43 74.667-74.667S115.903 0 74.666 0zm0 142.667c-37.555 0-68-30.444-68-68s30.445-68 68-68c37.556 0 68 30.444 68 68s-30.444 68-68 68z"/><circle fill="#DBDBDB" cx="74.666" cy="74.667" r="61.202"/><path fill="#FFF" d="M72.51 55.25l-2.482.99a20.933 20.933 0 0 0-4.16-3.665l.682-2.628c.28-.828-.005-1.673-.636-1.888l-7.68-2.595c-.635-.215-1.373.28-1.652 1.11l-1.066 2.49c-1.833-.12-3.69.002-5.532.374l-1.32-2.186c-.386-.782-1.112-1.03-1.71-.733l-7.268 3.6c-.6.296-.845 1.025-.458 1.807l.97 2.45c-1.41 1.24-2.65 2.605-3.667 4.134l-2.637-.68c-.825-.28-1.672 0-1.886.633L29.41 66.14c-.215.633.28 1.37 1.11 1.65l2.49 1.07c-.12 1.833.004 3.687.376 5.53l-2.36 1.402c-.78.387-1.2 1.197-.904 1.796l3.6 7.27c.294.595 1.197.758 1.978.372l2.534-1.015a21.16 21.16 0 0 0 4.18 3.646l-.66 2.625c-.28.828.007 1.67.642 1.883l7.685 2.595c.632.212 1.375-.283 1.65-1.108l1.073-2.494c1.833.12 3.692-.002 5.536-.375l1.427 2.426c.387.782 1.234 1.268 1.833.97l7.268-3.598c.597-.296.723-1.262.335-2.044l-1.033-2.565a21.205 21.205 0 0 0 3.645-4.202l2.62.657c.826.28 1.664-.015 1.88-.645l2.593-7.69c.21-.63-.286-1.372-1.11-1.652l-2.494-1.066a21.114 21.114 0 0 0-.377-5.54l2.254-1.344c.784-.387 1.094-1.15.8-1.747l-3.6-7.268c-.296-.603-1.088-.812-1.87-.424zM57.66 77.287a8.378 8.378 0 0 1-11.227-3.79 8.377 8.377 0 0 1 3.79-11.227 8.376 8.376 0 0 1 11.228 3.79 8.378 8.378 0 0 1-3.79 11.226zM104.21 85.98l-1.847.736a15.625 15.625 0 0 0-3.095-2.728l.507-1.956c.207-.615-.003-1.245-.475-1.405l-5.716-1.93c-.472-.16-1.02.21-1.23.825l-.792 1.854c-1.365-.09-2.746 0-4.118.28l-.98-1.626c-.29-.582-.83-.766-1.273-.545l-5.41 2.678c-.446.22-.628.763-.34 1.345l.723 1.822c-1.05.924-1.973 1.94-2.73 3.078l-1.962-.508c-.613-.208-1.244 0-1.403.472l-1.933 5.714c-.16.47.21 1.02.825 1.23l1.854.795c-.09 1.364 0 2.744.278 4.116l-1.756 1.044c-.58.288-.894.89-.673 1.337l2.678 5.41c.22.443.893.564 1.474.276l1.886-.755a15.747 15.747 0 0 0 3.11 2.713l-.49 1.954c-.208.616.005 1.242.477 1.4l5.72 1.932c.47.158 1.02-.21 1.228-.825l.798-1.855c1.365.09 2.748-.002 4.12-.28l1.063 1.805c.29.582.92.943 1.364.722l5.41-2.678c.445-.22.538-.94.25-1.52l-.77-1.91a15.775 15.775 0 0 0 2.712-3.128l1.95.49c.615.207 1.24-.012 1.4-.48l1.93-5.724c.156-.47-.213-1.02-.827-1.23l-1.856-.792a15.69 15.69 0 0 0-.28-4.124l1.677-1c.582-.287.813-.856.594-1.3l-2.678-5.41c-.22-.448-.81-.604-1.39-.316zm-11.052 16.4a6.235 6.235 0 1 1-5.533-11.175 6.235 6.235 0 1 1 5.533 11.175zM87.832 43.73l-4.828 29.546-2.5-29.833zM117.46 67.47l-30.646 8.448 27.675-15.645zM114.32 39.727L84.13 76.37l20.375-42.88z"/></svg>