<svg width="60" height="60" xmlns="http://www.w3.org/2000/svg">

 <g>
  <title>background</title>
  <rect fill="none" id="canvas_background" height="62" width="62" y="-1" x="-1"/>
 </g>
 <g>
  <title>Layer 1</title>
  <g stroke="null" id="svg_1">
   <path stroke="null" id="svg_2" d="m40.331183,20.829479l-18.3399,11.369078c-0.331944,0.165972 -0.497916,0.580902 -0.331944,0.995832l2.489579,7.883667c0.082986,0.165972 0.331944,0.165972 0.331944,0l0.580902,-5.311102c0,-0.165972 0.082986,-0.41493 0.248958,-0.497916l15.518377,-13.692686c0.331944,-0.41493 -0.082986,-0.995832 -0.497916,-0.746874z" fill="#37AEE2"/>
   <path stroke="null" id="svg_3" d="m50.538458,0l-41.327015,0c-5.062144,0 -9.211443,4.149299 -9.211443,9.211443l0,41.327015c0,5.062144 4.149299,9.211443 9.211443,9.211443l41.327015,0c5.062144,0 9.211443,-4.149299 9.211443,-9.211443l0,-41.327015c0,-5.062144 -4.149299,-9.211443 -9.211443,-9.211443zm-3.236453,17.427054l-5.726032,27.219399c-0.248958,1.24479 -1.742705,1.825691 -2.821523,1.078818l-8.630541,-6.306934l-4.398257,4.481243c-0.746874,0.746874 -2.074649,0.497916 -2.406593,-0.580902l-3.153467,-10.041303l-8.464569,-2.489579c-1.078818,-0.331944 -1.161804,-1.908677 -0.082986,-2.323607l33.360361,-13.028798c1.24479,-0.497916 2.572565,0.663888 2.323607,1.991663z" fill="#37AEE2"/>
  </g>
 </g>
</svg>