<svg xmlns="http://www.w3.org/2000/svg" width="54.64" height="62.248" viewBox="0 0 54.64 62.248"><path fill="#49C6BE" d="M44.957 42.882a9.62 9.62 0 0 0-5.074 1.447L19.21 32.804a9.695 9.695 0 0 0 .156-1.68c0-.85-.12-1.668-.325-2.452l20.144-11.23a9.627 9.627 0 0 0 5.773 1.923c5.348 0 9.683-4.335 9.683-9.683S50.305 0 44.957 0s-9.684 4.335-9.684 9.683c0 1.32.266 2.575.743 3.72L16.523 24.27a9.654 9.654 0 0 0-6.84-2.828C4.336 21.442 0 25.776 0 31.124s4.336 9.683 9.684 9.683a9.654 9.654 0 0 0 7.36-3.402L36.342 48.16a9.618 9.618 0 0 0-1.066 4.405c0 5.348 4.336 9.683 9.684 9.683s9.683-4.335 9.683-9.683-4.335-9.683-9.683-9.683z"/></svg>