<svg xmlns="http://www.w3.org/2000/svg" width="72.119" height="72.12" viewBox="0 0 72.119 72.12"><g fill="#E20000"><path d="M17.31 37.838c6.37.188 10.034-5.197 8.938-13.567-1.106-8.368-6.557-15.23-12.932-15.426-6.368-.19-10.65 6.214-9.54 14.582C4.875 31.8 10.93 37.64 17.31 37.838zM0 55.358c3.608-1.964 7.98-3.183 12.887-3.183 1.502 0 2.87-.056 4.297-.056-1.884-1.815-3.4-3.4-3.4-6.16 0-1.636.525-3.21 1.26-4.61-.74.045-1.512.098-2.296.098-5.41 0-9.708-1.845-12.747-4.84v18.75zM32.816 68.414c0-.88-.11-1.722-.303-2.544-1.05-4.093-5.2-6.325-10.36-9.91A20.67 20.67 0 0 0 16 54.97C9.098 54.89 2.98 58.103.146 62.58c.835 5.4 5.49 9.54 11.12 9.54h21.07c.322-1.17.48-2.41.48-3.706z"/><path d="M72.12 18.38v-7.11C72.12 5.05 67.07 0 60.85 0H11.27C5.048 0 0 5.05 0 11.27v.71c4.06-4.178 10.15-6.987 16.89-6.987h23.65l-5.287 5.55h-6.205c4.36 2.515 6.694 7.67 6.694 13.37 0 5.23-2.898 9.44-6.98 12.635-3.998 3.122-4.754 4.424-4.754 7.072 0 2.264 4.766 5.637 6.968 7.28 7.625 5.714 9.18 9.324 9.187 16.5 0 1.592-.324 3.18-.91 4.72h21.6c6.22 0 11.268-5.048 11.268-11.27V24.494H59.884v12.23h-6.117v-12.23H41.54V18.38h12.226V6.148h6.117v12.23H72.12z"/></g></svg>