<svg width="60" height="60" xmlns="http://www.w3.org/2000/svg">

 <g>
  <title>background</title>
  <rect fill="none" id="canvas_background" height="62" width="62" y="-1" x="-1"/>
 </g>
 <g>
  <title>Layer 1</title>
  <g id="Layer_1"/>
  <g stroke="null" id="Layer_2">
   <path stroke="null" id="svg_1" d="m50.624683,0l-41.248817,0c-5.176277,0 -9.375866,4.199589 -9.375866,9.375866l0,41.248817c0,5.174613 4.199589,9.374202 9.375866,9.374202l41.248817,0c5.175445,0 9.374202,-4.198757 9.374202,-9.375034l0,-41.247985c-0.000832,-5.176277 -4.199589,-9.375866 -9.374202,-9.375866zm-12.971473,30.009426l-5.009058,0c0,7.819322 0,17.450591 0,17.450591l-7.422491,0c0,0 0,-9.528941 0,-17.450591l-2.654693,0l0,-6.164611l2.654693,0l0,-3.986615c0,-2.854356 1.392653,-7.321827 7.493205,-7.321827l4.850991,0.019966l0,5.988241c0,0 -2.692962,0 -3.3427,0c-0.651402,0 -1.579006,0.31447 -1.579006,1.677173l0,3.623061l5.661292,0l-0.652234,6.164611z" fill="#3D5A9B"/>
  </g>
 </g>
</svg>