<?xml version="1.0" encoding="utf-8"?>
<!-- Generator: Adobe Illustrator 21.0.0, SVG Export Plug-In . SVG Version: 6.00 Build 0)  -->
<svg version="1.1" baseProfile="tiny" id="Слой_1"
	 xmlns="http://www.w3.org/2000/svg" xmlns:xlink="http://www.w3.org/1999/xlink" x="0px" y="0px" width="72px" height="72px"
	 viewBox="0 0 72 72" overflow="scroll" xml:space="preserve">
<g>
	<path fill="#DC3171" d="M56.2,20.6c-0.5-1.2-1-2-2-3c-0.9-0.9-1.7-1.4-3-2c-0.9-0.4-2.3-0.7-4.8-0.9c-2.7-0.1-3.5-0.1-10.5-0.1
		s-7.8,0-10.5,0.2c-2.5,0.1-3.9,0.5-4.8,0.9c-1.2,0.5-2,1-3,2c-0.9,0.9-1.4,1.7-2,3c-0.4,0.9-0.7,2.3-0.9,4.8
		c-0.1,2.7-0.1,3.5-0.1,10.5s0,7.8,0.2,10.4c0.1,2.5,0.5,3.9,0.9,4.8c0.5,1.2,1,2,2,3c0.9,0.9,1.7,1.4,3,2c0.9,0.4,2.3,0.7,4.8,0.9
		c2.7,0.1,3.5,0.1,10.5,0.1s7.7,0,10.5-0.1c2.5-0.1,3.9-0.5,4.8-0.9c1.2-0.5,2-1,3-2c0.9-0.9,1.4-1.7,2-3c0.4-0.9,0.7-2.3,0.9-4.8
		c0.1-2.7,0.1-3.5,0.1-10.5c0-6.9,0-7.7-0.1-10.5C57,22.9,56.6,21.6,56.2,20.6z M36,49.4c-7.4,0-13.4-6-13.4-13.4s6-13.4,13.4-13.4
		s13.4,6,13.4,13.4S43.4,49.4,36,49.4z M49.9,25.2c-1.7,0-3.1-1.4-3.1-3.1c0-1.7,1.4-3.1,3.1-3.1c1.7,0,3.1,1.4,3.1,3.1
		C53,23.8,51.6,25.2,49.9,25.2z"/>
	<path fill="#DC3171" d="M36,27.3c-4.8,0-8.7,3.9-8.7,8.7s3.9,8.7,8.7,8.7s8.7-3.9,8.7-8.7S40.8,27.3,36,27.3z"/>
	<path fill="#DC3171" d="M60.9,0H11.1C5,0,0,5,0,11.1v49.8C0,67,5,72,11.1,72h49.8C67,72,72,67,72,60.9V11.1C72,5,67,0,60.9,0z
		 M61.9,46.8c-0.1,2.7-0.6,4.6-1.2,6.3c-0.7,1.7-1.6,3.2-3,4.6c-1.4,1.4-3,2.3-4.7,3c-1.7,0.6-3.5,1.1-6.3,1.2
		C43.9,62,43.1,62,36,62s-7.9,0-10.8-0.1c-2.7-0.1-4.6-0.6-6.3-1.2c-1.7-0.7-3.2-1.6-4.6-3c-1.4-1.4-2.3-3-3-4.7
		c-0.6-1.7-1.1-3.5-1.2-6.3C10,43.9,10,43.1,10,36s0-7.9,0.1-10.8c0.1-2.7,0.6-4.6,1.2-6.3c0.7-1.7,1.6-3.2,3-4.6
		c1.4-1.4,3-2.3,4.7-3c1.7-0.6,3.5-1.1,6.3-1.2C28.1,10,28.9,10,36,10s7.9,0,10.8,0.1c2.7,0.1,4.6,0.6,6.3,1.2
		c1.7,0.7,3.2,1.6,4.6,3c1.4,1.4,2.3,3,3,4.7c0.6,1.7,1.1,3.5,1.2,6.3C62,28.1,62,28.9,62,36S62,43.9,61.9,46.8z"/>
</g>
</svg>
