<?xml version="1.0" encoding="utf-8"?>
<!-- Generator: Adobe Illustrator 21.0.0, SVG Export Plug-In . SVG Version: 6.00 Build 0)  -->
<svg version="1.1" baseProfile="tiny" id="Слой_1"
	 xmlns="http://www.w3.org/2000/svg" xmlns:xlink="http://www.w3.org/1999/xlink" x="0px" y="0px" width="72px" height="72px"
	 viewBox="0 0 72 72" overflow="scroll" xml:space="preserve">
<path fill="#4D75A3" d="M60.9,0H11.1C5,0,0,5,0,11.1v49.8C0,67,5,72,11.1,72h49.8C67,72,72,67,72,60.9V11.1C72,5,67,0,60.9,0z
	 M59.1,50.8H53c-2,0-2.3-1.4-5.9-4.9c-3-3.1-4.4-3.3-5.1-3.3c-0.6,0-1.1,0.4-1.1,1.6v4.6c0,1.4-0.8,1.9-4,1.9
	c-5.3,0-11.2-3.3-15.6-9.3c-6.6-9-8.3-15.7-8.3-17.1c0-0.8,0.6-1.3,1.4-1.3h5.4c1.4,0,1.9,0.4,2.4,1.9c2.4,7.2,6.8,13.6,8.7,13.6
	c0.7,0,0.8-0.6,0.8-2.1V29c0-3.6-2-3.9-2-5.2c0-0.5,0.4-0.9,1.1-0.9h8.7c1.1,0,1.3,0.4,1.3,1.8v10c0,1.2,0.2,1.6,0.7,1.6
	c0.6,0,1.2-0.3,2.3-1.6c3.6-3.9,6.5-10.1,6.5-10.1c0.4-0.8,0.9-1.3,2.1-1.3c1.8,0,5.4,0,5.4,0c1.1,0,1.5,0.6,1.3,1.6
	c-0.6,2.9-6.8,11.7-6.8,11.7c-0.6,0.9-0.8,1.4,0,2.4c0.6,0.7,2.4,2.3,3.5,3.8c2.7,2.9,4.5,5.3,4.5,6.7
	C60.3,50.5,59.7,50.8,59.1,50.8z"/>
</svg>
