<svg width="60" height="60" xmlns="http://www.w3.org/2000/svg">

 <g>
  <title>background</title>
  <rect fill="none" id="canvas_background" height="62" width="62" y="-1" x="-1"/>
 </g>
 <g>
  <title>Layer 1</title>
  <g id="Layer_1"/>
  <g stroke="null" id="Layer_2">
   <path stroke="null" id="svg_1" d="m50.616789,0l-41.243063,0c-5.174723,0 -9.373726,4.19734 -9.373726,9.374558l0,41.243063c0,5.173891 4.199003,9.372894 9.373726,9.372894l41.243063,0c5.175554,0 9.373726,-4.198171 9.373726,-9.373726l0,-41.242231c-0.000832,-5.177218 -4.199003,-9.374558 -9.373726,-9.374558zm-6.192033,23.881415c0.013309,0.262022 0.0183,0.527371 0.0183,0.794384c0,8.134321 -6.192864,17.512206 -17.512206,17.512206c-3.478651,0 -6.712749,-1.018142 -9.436944,-2.765786c0.483285,0.058227 0.97156,0.087341 1.467322,0.087341c2.883072,0 5.536562,-0.984037 7.642718,-2.633527c-2.693418,-0.051573 -4.969264,-1.82833 -5.747843,-4.274698c0.37598,0.0732 0.758615,0.110631 1.160382,0.110631c0.560643,0 1.102155,-0.076527 1.617049,-0.214608c-2.811535,-0.563971 -4.937655,-3.055257 -4.937655,-6.033988c0,-0.024954 0,-0.050741 0,-0.076527c0.834311,0.462489 1.781748,0.736988 2.791572,0.770261c-1.655312,-1.103819 -2.739168,-2.98788 -2.739168,-5.124814c0,-1.127941 0.305276,-2.184347 0.832647,-3.093521c3.03363,3.723205 7.569519,6.172901 12.686014,6.430764c-0.105641,-0.450844 -0.16054,-0.919156 -0.16054,-1.403272c0,-3.398797 2.753308,-6.151274 6.155433,-6.151274c1.772598,0 3.36802,0.74697 4.490139,1.939793c1.40244,-0.275331 2.720036,-0.786897 3.912027,-1.491445c-0.464985,1.437377 -1.436545,2.645172 -2.707559,3.403788c1.244396,-0.147231 2.43306,-0.477462 3.534383,-0.966569c-0.819338,1.228591 -1.863266,2.311615 -3.066071,3.180861z" fill="#0098E1"/>
  </g>
 </g>
</svg>