<?xml version="1.0" encoding="utf-8"?>
<!-- Generator: Adobe Illustrator 21.0.0, SVG Export Plug-In . SVG Version: 6.00 Build 0)  -->
<svg version="1.1" baseProfile="tiny" id="Слой_1"
	 xmlns="http://www.w3.org/2000/svg" xmlns:xlink="http://www.w3.org/1999/xlink" x="0px" y="0px" width="72px" height="72px"
	 viewBox="0 0 72 72" overflow="scroll" xml:space="preserve">
<g>
	<path fill="#37AEE2" d="M48.6,25.1L26.5,38.8c-0.4,0.2-0.6,0.7-0.4,1.2l3,9.5c0.1,0.2,0.4,0.2,0.4,0l0.7-6.4c0-0.2,0.1-0.5,0.3-0.6
		l18.7-16.5C49.6,25.5,49.1,24.8,48.6,25.1z"/>
	<path fill="#37AEE2" d="M60.9,0H11.1C5,0,0,5,0,11.1v49.8C0,67,5,72,11.1,72h49.8C67,72,72,67,72,60.9V11.1C72,5,67,0,60.9,0z
		 M57,21l-6.9,32.8c-0.3,1.5-2.1,2.2-3.4,1.3l-10.4-7.6L31,52.9c-0.9,0.9-2.5,0.6-2.9-0.7l-3.8-12.1l-10.2-3
		c-1.3-0.4-1.4-2.3-0.1-2.8l40.2-15.7C55.7,18,57.3,19.4,57,21z"/>
</g>
</svg>
