<svg xmlns="http://www.w3.org/2000/svg" width="72.119" height="72.119" viewBox="0 0 72.119 72.119"><path fill="#0079AD" d="M60.85 0H11.27C5.048 0 0 5.05 0 11.27v49.582c0 6.22 5.048 11.268 11.268 11.268H60.85c6.217 0 11.27-5.047 11.27-11.27V11.27C72.12 5.05 67.066 0 60.85 0zM23.213 59.742H12.454V27.374h10.758v32.368zm-5.28-36.155c-3.575 0-6.475-2.502-6.475-5.585 0-3.086 2.9-5.587 6.476-5.587 3.578 0 6.48 2.5 6.48 5.587 0 3.083-2.902 5.585-6.48 5.585zM62.63 59.74H52.034V42.42c0-4.35-1.53-7.32-5.37-7.32-2.923 0-4.672 2.002-5.435 3.94-.282.687-.347 1.655-.347 2.623v18.077H30.29s.138-29.33 0-32.368h10.594v4.577c1.404-2.2 3.922-5.34 9.55-5.34 6.966 0 12.195 4.626 12.195 14.568v18.56z"/></svg>