<svg xmlns="http://www.w3.org/2000/svg" width="72.119" height="72.119" viewBox="0 0 72.119 72.119"><path fill="#0098E1" d="M60.85 0H11.27C5.047 0 0 5.046 0 11.27v49.582c0 6.22 5.048 11.268 11.27 11.268h49.58c6.223 0 11.27-5.047 11.27-11.27V11.27C72.12 5.046 67.072 0 60.85 0zm-7.443 28.71c.016.315.022.634.022.955 0 9.78-7.446 21.053-21.054 21.053-4.182 0-8.07-1.224-11.345-3.325.582.07 1.17.105 1.765.105a14.85 14.85 0 0 0 9.188-3.166 7.4 7.4 0 0 1-6.91-5.14c.452.09.912.134 1.395.134.674 0 1.325-.092 1.944-.258-3.38-.678-5.936-3.673-5.936-7.254v-.092a7.4 7.4 0 0 0 3.356.926 7.387 7.387 0 0 1-3.293-6.16 7.39 7.39 0 0 1 1-3.72 21.006 21.006 0 0 0 15.25 7.73 7.394 7.394 0 0 1 7.207-9.082c2.132 0 4.05.9 5.4 2.333 1.685-.332 3.27-.947 4.702-1.794a7.434 7.434 0 0 1-3.256 4.092 14.72 14.72 0 0 0 4.25-1.162 15.004 15.004 0 0 1-3.687 3.824z"/></svg>