<?xml version="1.0" encoding="utf-8"?>
<!-- Generator: Adobe Illustrator 21.0.0, SVG Export Plug-In . SVG Version: 6.00 Build 0)  -->
<svg version="1.1" baseProfile="tiny" id="Слой_1"
	 xmlns="http://www.w3.org/2000/svg" xmlns:xlink="http://www.w3.org/1999/xlink" x="0px" y="0px" width="25px" height="25px"
	 viewBox="0 0 25 25" overflow="scroll" xml:space="preserve">
<g>
	<path fill="#4D75A3" d="M3.9,0h17.3C23.3,0,25,1.7,25,3.9v17.3c0,2.1-1.7,3.9-3.9,3.9H3.9C1.7,25,0,23.3,0,21.1V3.9
		C0,1.7,1.7,0,3.9,0L3.9,0z"/>
	<path fill="#FFFFFF" d="M18.2,12.7c0,0,2.2-3.1,2.4-4.1c0.1-0.3-0.1-0.6-0.5-0.6c0,0-1.3,0-1.9,0c-0.4,0-0.6,0.2-0.7,0.5
		c0,0-1,2.2-2.3,3.5c-0.4,0.5-0.6,0.6-0.8,0.6c-0.2,0-0.2-0.1-0.2-0.6V8.6c0-0.5-0.1-0.6-0.5-0.6h-3c-0.2,0-0.4,0.1-0.4,0.3
		c0,0.5,0.7,0.6,0.7,1.8v2.6c0,0.5,0,0.7-0.3,0.7c-0.7,0-2.2-2.2-3-4.7C7.5,8.1,7.4,8,6.9,8H5C4.7,8,4.5,8.2,4.5,8.4
		c0,0.5,0.6,2.8,2.9,5.9c1.5,2.1,3.6,3.2,5.4,3.2c1.1,0,1.4-0.2,1.4-0.7v-1.6c0-0.4,0.2-0.6,0.4-0.6c0.2,0,0.7,0.1,1.8,1.1
		c1.3,1.2,1.4,1.7,2,1.7h2.1c0.2,0,0.4-0.1,0.4-0.5c0-0.5-0.6-1.3-1.6-2.3c-0.4-0.5-1-1.1-1.2-1.3C17.9,13.2,18,13,18.2,12.7z"/>
</g>
</svg>
