<svg width="60.00000000000001" height="60.00000000000001" xmlns="http://www.w3.org/2000/svg">

 <g>
  <title>background</title>
  <rect fill="none" id="canvas_background" height="62" width="62" y="-1" x="-1"/>
 </g>
 <g>
  <title>Layer 1</title>
  <path stroke="null" id="svg_1" d="m50.735808,0l-41.488394,0c-5.081912,0 -9.247413,4.165501 -9.247413,9.247413l0,41.488394c0,5.081912 4.165501,9.247413 9.247413,9.247413l41.488394,0c5.081912,0 9.247413,-4.165501 9.247413,-9.247413l0,-41.488394c0,-5.081912 -4.165501,-9.247413 -9.247413,-9.247413zm-1.499581,42.321495l-5.081912,0c-1.666201,0 -1.916131,-1.16634 -4.915292,-4.082191c-2.499301,-2.582611 -3.665641,-2.749231 -4.248811,-2.749231c-0.49986,0 -0.91641,0.33324 -0.91641,1.33296l0,3.832261c0,1.16634 -0.66648,1.582891 -3.332401,1.582891c-4.415432,0 -9.330723,-2.749231 -12.996364,-7.747833c-5.498462,-7.497903 -6.914732,-13.079675 -6.914732,-14.246015c0,-0.66648 0.49986,-1.08303 1.16634,-1.08303l4.498742,0c1.16634,0 1.582891,0.33324 1.999441,1.582891c1.999441,5.998322 5.665082,11.330164 7.247973,11.330164c0.58317,0 0.66648,-0.49986 0.66648,-1.749511l0,-6.164942c0,-2.999161 -1.666201,-3.249091 -1.666201,-4.332121c0,-0.41655 0.33324,-0.74979 0.91641,-0.74979l7.247973,0c0.91641,0 1.08303,0.33324 1.08303,1.499581l0,8.331003c0,0.99972 0.16662,1.33296 0.58317,1.33296c0.49986,0 0.99972,-0.24993 1.916131,-1.33296c2.999161,-3.249091 5.415152,-8.414313 5.415152,-8.414313c0.33324,-0.66648 0.74979,-1.08303 1.749511,-1.08303c1.499581,0 4.498742,0 4.498742,0c0.91641,0 1.24965,0.49986 1.08303,1.33296c-0.49986,2.415991 -5.665082,9.747273 -5.665082,9.747273c-0.49986,0.74979 -0.66648,1.16634 0,1.999441c0.49986,0.58317 1.999441,1.916131 2.915851,3.165781c2.249371,2.415991 3.748951,4.415432 3.748951,5.581772c0,0.8331 -0.49986,1.08303 -0.99972,1.08303z" fill="#4D75A3"/>
 </g>
</svg>