<svg xmlns="http://www.w3.org/2000/svg" xmlns:xlink="http://www.w3.org/1999/xlink" width="330.783" height="300.7" viewBox="0 0 330.783 300.7"><path fill="#595959" d="M330.783 245.536c0 11.074-61.502 20.053-137.37 20.053-75.862 0-137.366-8.98-137.366-20.054 0-11.076 61.504-20.054 137.367-20.054 75.867 0 137.37 8.977 137.37 20.054z"/><path fill="#C69B71" d="M39.343 117.643c-.51.01-9.243-20.3-9.243-20.3s18.143-11.408 23.046-11.46c4.904-.05 8.328 20.19 7.72 20.963-.614.773-15.094 9.694-15.094 9.694l-6.43 1.103z"/><path fill="#009995" d="M144.897 190.352c0 1.24 1.905 43.16 2.29 46.918-.245.794-6.438 1.547-6.543 2.242-1.517 9.85-1.57 23.972-.694 27.964l22.372 5.253c2.18-1.65 4.104 1.593 6.23-.158 10.193-8.397 17.445-1.853 27.65 2.57h59.603c5.02-.675 1.32-18.377.615-37.322-.008-.24-7.04-.476-7.064-.71.022 0 10.043 0 10.064-.005.22-.957-7.854-45.636-7.854-46.754l.985-17.5 6.906-33.775c0-12.805-14.674-22.875-33.186-22.875h-56.975c-18.508 0-33.283 10.07-33.283 22.875l6.908 33.36 1.977 17.917z"/><path fill="#009995" d="M248.088 121.954a2.684 2.684 0 0 0-3.72.774L222.25 156.48a2.687 2.687 0 0 0 .776 3.724l47.812 31.33a2.692 2.692 0 0 0 3.724-.775l22.117-33.75a2.7 2.7 0 0 0-.78-3.728l-47.812-31.328z"/><path fill="#FDDBA4" d="M89.14 192.286c-3.37 0-6.806-.432-10.272-1.408-21.375-6.004-35.232-29.446-42.36-71.678l22.378-3.777c7.13 42.224 19.404 51.706 26.09 53.598 12.966 3.685 30.592-12.276 35.743-18.158l17.12 14.9c-2.623 3.02-23.84 26.524-48.7 26.524z"/><path fill="#009995" d="M147.062 121.954a2.684 2.684 0 0 1 3.72.774l22.115 33.752a2.687 2.687 0 0 1-.774 3.724l-47.812 31.33a2.69 2.69 0 0 1-3.722-.775L98.47 157.01a2.694 2.694 0 0 1 .78-3.73l47.812-31.326z"/><path opacity=".1" fill="#010100" d="M140.166 254.35s7.67-14.74 7.124-17.795c-.646-3.616-2.745-49.405-3.888-57.532-.43-3.056 11.17 59.34 12.266 70.44 1.092 11.102-10.853 5.674-10.853 5.674M250.104 178.915s-3.88 26.885-3.734 33.3c.146 6.415-.98 24.27-2.672 28.46-1.69 4.193-1.627 5.184 0 8.79 1.625 3.608 3.113-3.75 1.63 1.21-1.485 4.96 3.735-4.656 3.735-4.656s.752-22.92 1.52-32.32c.896-11.01 1.607-34.385 1.607-34.385s-4.175-.798-2.086-.4z"/><path fill="#EDEDED" d="M273.928 251.263a3.408 3.408 0 0 1-3.41 3.413H124.48a3.41 3.41 0 0 1-3.412-3.413v-118.86a3.414 3.414 0 0 1 3.412-3.417h146.04a3.41 3.41 0 0 1 3.41 3.417v118.86z"/><path fill="#444" d="M273.928 142.646v-10.242a3.41 3.41 0 0 0-3.41-3.417H124.48a3.414 3.414 0 0 0-3.412 3.417v10.242h152.862z"/><path fill="#2CB740" d="M131.23 135.998a2.7 2.7 0 0 1-2.702 2.7 2.702 2.702 0 0 1-2.707-2.7 2.705 2.705 0 0 1 5.41 0z"/><path fill="#F16442" d="M139.464 135.998a2.702 2.702 0 0 1-5.403 0 2.7 2.7 0 0 1 5.404 0z"/><path fill="#FFF" d="M268.29 135.833a2.702 2.702 0 0 1-2.7 2.705H143.865c-1.484 0-2.7-1.21-2.7-2.705a2.707 2.707 0 0 1 2.7-2.702H265.59a2.7 2.7 0 0 1 2.7 2.703z"/><path opacity=".2" fill="#444" d="M149.768 149.566c0 .965.787 1.75 1.753 1.75h116.47c.97 0 1.75-.785 1.75-1.75 0-.97-.78-1.747-1.75-1.747H151.52a1.75 1.75 0 0 0-1.752 1.746zM145.95 149.566c0 1.4-1.14 2.55-2.547 2.55H127.81a2.55 2.55 0 0 1-2.545-2.55 2.544 2.544 0 0 1 2.545-2.543h15.594a2.544 2.544 0 0 1 2.546 2.543z"/><path fill="#FF5C5C" d="M121.065 155.91h152.862v41.49H121.065z"/><path opacity=".2" fill="#444" d="M125.71 231.543h44.87v18.52h-44.87zM175.718 231.543h44.87v18.52h-44.87zM224.873 231.543h44.865v18.52h-44.865z"/><path fill="#444" d="M221.03 205.68c0 .84-.723 1.523-1.61 1.523h-92.543c-.89 0-1.612-.684-1.612-1.523 0-.844.722-1.53 1.612-1.53h92.543c.888 0 1.61.686 1.61 1.53zM221.03 212.5c0 .844-.723 1.527-1.61 1.527h-92.543c-.89 0-1.612-.684-1.612-1.527 0-.846.722-1.525 1.612-1.525h92.543c.888 0 1.61.68 1.61 1.525zM221.03 219.23c0 .845-.723 1.522-1.61 1.522h-92.543c-.89 0-1.612-.68-1.612-1.522 0-.84.722-1.52 1.612-1.52h92.543c.888 0 1.61.68 1.61 1.52zM221.03 225.952c0 .85-.723 1.53-1.61 1.53h-92.543c-.89 0-1.612-.68-1.612-1.53 0-.84.722-1.525 1.612-1.525h92.543c.888 0 1.61.687 1.61 1.525z"/><path fill="#FFF" d="M168.09 166.614c0 .844-.72 1.52-1.606 1.52h-33.646c-.888 0-1.61-.68-1.61-1.52 0-.845.723-1.533 1.61-1.533h33.646c.887 0 1.607.69 1.607 1.534zM193.415 173.433c0 .843-.718 1.53-1.604 1.53h-58.973c-.888 0-1.61-.688-1.61-1.53 0-.845.723-1.526 1.61-1.526h58.974c.887-.002 1.605.68 1.605 1.526zM193.415 180.16c0 .85-.718 1.526-1.604 1.526h-58.973c-.888 0-1.61-.68-1.61-1.525 0-.842.723-1.52 1.61-1.52h58.974c.887 0 1.605.678 1.605 1.52zM193.415 186.88c0 .85-.718 1.53-1.604 1.53h-58.973c-.888 0-1.61-.68-1.61-1.53 0-.833.723-1.515 1.61-1.515h58.974c.887 0 1.605.682 1.605 1.516z"/><path fill="#444" d="M269.738 205.68c0 .84-.733 1.523-1.628 1.523h-40.93c-.9 0-1.633-.684-1.633-1.523 0-.844.73-1.53 1.633-1.53h40.93c.895 0 1.628.686 1.628 1.53zM269.738 212.5c0 .844-.733 1.527-1.628 1.527h-40.93c-.9 0-1.633-.684-1.633-1.527 0-.846.73-1.525 1.633-1.525h40.93c.895 0 1.628.68 1.628 1.525zM269.738 219.23c0 .845-.733 1.522-1.628 1.522h-40.93c-.9 0-1.633-.68-1.633-1.522 0-.84.73-1.52 1.633-1.52h40.93c.895 0 1.628.68 1.628 1.52zM269.738 225.952c0 .85-.733 1.53-1.628 1.53h-40.93c-.9 0-1.633-.68-1.633-1.53 0-.84.73-1.525 1.633-1.525h40.93c.895 0 1.628.687 1.628 1.525z"/><path fill="#FFF" d="M271.956 197.372a22.99 22.99 0 0 0 2.168-1.312v-3.532a21.515 21.515 0 0 1-3.75 2.48l-4.446-9.813 8.196-3.717v-2.498l-9.14 4.135-2.97-6.545 11.545-5.23c.202.463.39.925.562 1.392v-5.1a38.433 38.433 0 0 0-3.713-5.466l3.712-1.684v-4.542h-6.154c1.74.644 3.4 1.52 4.927 2.593l-4.017 1.82a55.096 55.096 0 0 0-4.425-4.413h-3.42c1.792 1.55 3.777 3.33 5.7 5.386l-9.647 4.37-4.367-9.64c.108-.038.218-.08.323-.116h-6.148c-9.604 6.495-13.418 19.15-8.47 30.073a24.143 24.143 0 0 0 10.628 11.36h11.45c-2.147-1.86-4.56-4.056-6.804-6.64l10.145-4.598 4.446 9.812a21.248 21.248 0 0 1-6.436 1.424h10.102zm-3.637-34.266c1.565 1.854 3.03 3.902 4.243 6.184l-11.482 5.2-3.05-6.722 10.29-4.662zm-9.322 12.33l-11.485 5.205c-.914-2.41-1.49-4.862-1.85-7.267l10.292-4.662 3.043 6.726zm-13.897-14.31a21.396 21.396 0 0 1 5.544-4.128l4.37 9.637-9.65 4.373c-.362-3.64-.3-7.056-.263-9.883zm-2.283 2.808c-.028 2.498.06 5.23.4 8.048l-4.012 1.82a21.527 21.527 0 0 1 3.612-9.868zm-3.723 12.42l4.478-2.03c.42 2.392 1.046 4.82 1.966 7.212l-4.972 2.252a21.285 21.285 0 0 1-1.472-7.435zm2.407 9.512l4.93-2.232c1.048 2.242 2.358 4.293 3.798 6.168l-4.252 1.93a21.32 21.32 0 0 1-4.475-5.866zm15.615 11.277a21.5 21.5 0 0 1-9.17-3.805l3.77-1.707c1.752 2.046 3.614 3.87 5.4 5.513zm-4.91-8.24c-1.442-1.857-2.755-3.912-3.812-6.162l11.55-5.23 2.964 6.55-10.702 4.843z"/><path fill="#FCD22E" d="M147.72 155.325c-.032 0-.056.016-.056.04 0 .017.023.035.056.035.034 0 .058-.02.058-.036 0-.024-.024-.04-.058-.04z"/><path fill="#010100" d="M103.35 244.377c-.023.035-.047.076-.07.11.05-.06.07-.092.07-.11z" opacity=".3"/><path opacity=".2" fill="#010000" d="M280.635 159.34l-5.062 14.554c4.81 6.008 11.394 25.91 5.77 38.13-2.863 6.22-13.73 16.65-54.144 17.288-.2-.13-.4-.26-.608-.378-.077-.07-.14-.148-.224-.215l-12.723-9.925c-2.136-1.66-5.062-1.4-6.54.582-1.475 1.988-.94 4.947 1.193 6.61l2.1 1.638c-.126-.015-.247-.035-.378-.033l-18.123.36c-1.805.028-3.262 1.554-3.252 3.41.008 1.854 1.48 3.34 3.287 3.31l14.558-.29c-.007.2-.015.397-.015.605l-20.38.445c-1.812.02-3.266 1.55-3.256 3.404.006 1.854 1.483 3.344 3.29 3.315l20.497-.447a.522.522 0 0 1 .004.07c.002.18-.003.352-.003.53l-17.586.377c-1.81.022-3.267 1.55-3.256 3.405.01 1.857 1.48 3.338 3.29 3.317l17.486-.376c.004.148.004.305.014.45l-11.424.233c-1.703.02-3.07 1.458-3.064 3.202.016 1.75 1.398 3.146 3.1 3.123l15.46-.312c.442.068.913.115 1.452.107l8.98-.133c3.16-.044 6.03-1.466 8.2-3.746 5.96-.137 11.55-.49 16.788-1.04l1.97-.045-.003-.173c28.34-3.333 45.86-12.97 53.294-29.213a38.85 38.85 0 0 0 3.01-9.92c4.023-24.524-21.227-49.156-23.702-52.22z"/><g fill="#FDDBA4"><path d="M249.062 248.702l-.215-18.422-22.328.478.21 18.424z"/><path d="M287.784 157.168l-9.72 16.026c1.99 2.483-3.27 7.095-.19 12.517 4.366 7.68 7.788 16.978 4.492 24.142-2.863 6.22-13.73 16.653-54.143 17.29-.2-.133-.4-.263-.61-.382-.077-.068-.14-.146-.224-.21l-12.72-9.927c-2.138-1.66-5.064-1.397-6.543.586-1.473 1.987-.94 4.944 1.193 6.607l2.1 1.638c-.125-.013-.248-.035-.377-.033l-18.123.36c-1.805.028-3.263 1.552-3.254 3.41.008 1.856 1.482 3.34 3.29 3.312l14.557-.29c-.005.198-.013.395-.014.6l-20.383.444c-1.81.027-3.264 1.555-3.255 3.408.008 1.856 1.485 3.342 3.29 3.315l20.503-.446v.07c.002.18 0 .354-.002.53l-17.59.375c-1.808.022-3.267 1.552-3.255 3.407.01 1.855 1.48 3.338 3.29 3.312l17.486-.374c.004.15.008.305.015.452l-11.427.23c-1.703.026-3.072 1.465-3.066 3.21.015 1.745 1.4 3.145 3.1 3.12l15.454-.313c.444.07.918.118 1.46.11l8.98-.135c3.163-.045 6.03-1.466 8.2-3.744 39.514-.926 63.1-10.908 72.05-30.47a38.885 38.885 0 0 0 3.01-9.92c4.023-24.532-15.102-49.164-17.576-52.228z"/></g><path fill="#FDDBA4" d="M31.828 115.123c1.198 6.89 8.41 11.39 16.11 10.048 7.7-1.34 12.966-8.01 11.764-14.902l-1.583-9.095c-1.197-6.888-7.19-4.37-14.887-3.026-7.7 1.335-14.192.987-12.99 7.882l1.585 9.093zM238.038 79.786a3.005 3.005 0 0 1-3.277 2.724l-.352-.035a3.01 3.01 0 0 1-2.724-3.28l1.22-13.073a3.017 3.017 0 0 1 3.282-2.72l.356.034a3.014 3.014 0 0 1 2.722 3.282l-1.226 13.068zM155.652 79.786a3.01 3.01 0 0 0 3.28 2.724l.353-.035a3.015 3.015 0 0 0 2.723-3.28L160.79 66.12a3.022 3.022 0 0 0-3.288-2.72l-.355.034a3.013 3.013 0 0 0-2.72 3.282l1.225 13.068z"/><path opacity=".2" fill="#14120E" d="M219.942 108.555h-46.41v6.873c7.425 7.512 16.197 10.217 23.43 10.217 7.06 0 15.553-2.534 22.98-9.802v-7.288z"/><defs><path id="a" d="M192.1 112.26h9.28v1.857h-9.28z"/></defs><clipPath id="b"><use xlink:href="#a" overflow="visible"/></clipPath><path clip-path="url(#b)" fill="#14120E" d="M201.735 113.436c0 .322-2.154.585-4.815.585-2.66 0-4.812-.262-4.812-.584 0-.327 2.15-.586 4.812-.586s4.815.258 4.815.586"/><path fill="#FDDBA4" d="M196.675 19.865c-.142 0-.294.007-.438.013-.146-.006-.295-.013-.443-.013-21.42 0-38.787 23.395-38.787 52.266 2.3 16.093 7.374 34.91 12.295 39.83 7.508 7.505 19.565 11.538 26.35 9.837.103.03.158.044.158.07v.064c0-.01-.045-.02 0-.032.05.01 0 .022 0 .033v-.064c0-.025.488-.038.584-.07 6.787 1.702 19.133-2.33 26.637-9.835 4.922-4.92 10.063-23.737 12.37-39.83-.003-28.87-17.303-52.265-38.725-52.265z"/><path fill="#FF8080" d="M184.41 87.853c0 4.985-4.04 9.022-9.017 9.022a9.02 9.02 0 0 1 0-18.04c4.978 0 9.016 4.04 9.016 9.018zM226.015 87.853a9.018 9.018 0 0 1-9.02 9.022c-4.98 0-9.02-4.037-9.02-9.022 0-4.98 4.038-9.02 9.02-9.02a9.02 9.02 0 0 1 9.02 9.02z"/><path fill="#FFF" d="M223.48 70.484c0 1.966-4.09 3.564-9.142 3.564-5.05 0-9.148-1.6-9.148-3.564s4.1-3.56 9.148-3.56c5.052.002 9.14 1.597 9.14 3.56M185.834 70.484c0 1.966-4.094 3.564-9.144 3.564-5.045 0-9.147-1.6-9.147-3.564s4.104-3.56 9.147-3.56c5.05.002 9.144 1.597 9.144 3.56"/><path opacity=".2" fill="#14120E" d="M201.38 89.34c0 2.367-2.054 4.29-4.58 4.29h-.125c-2.525 0-4.576-1.923-4.576-4.29V70.085c0-2.368 2.05-4.29 4.575-4.29h.125c2.526 0 4.58 1.922 4.58 4.29V89.34z"/><path fill="#FFF" d="M178.038 69.596c0 .37-.305.67-.67.67a.668.668 0 0 1-.678-.67.674.674 0 0 1 1.348 0"/><path fill="#422902" d="M216.735 70.477c0 1.422-1.158 2.592-2.588 2.592s-2.59-1.17-2.59-2.593c0-1.432 1.16-2.596 2.59-2.596s2.588 1.165 2.588 2.597"/><path fill="#FFF" d="M213.91 69.45a.784.784 0 1 1-1.568-.004.784.784 0 0 1 1.568.004"/><path fill="#422902" d="M179.278 70.477a2.595 2.595 0 0 1-2.588 2.592 2.595 2.595 0 0 1-2.59-2.593 2.592 2.592 0 0 1 2.59-2.596 2.592 2.592 0 0 1 2.588 2.597"/><path fill="#FFF" d="M176.454 69.45a.786.786 0 0 1-1.57 0c0-.435.348-.786.783-.786.432 0 .787.352.787.786"/><path fill="#422902" d="M185.83 61.538c-.026 1.098-1.08 1.963-2.354 1.93l-14.418-.355c-1.27-.033-2.276-.95-2.25-2.056.027-1.1 1.082-1.967 2.35-1.937l14.42.357c1.273.035 2.278.958 2.253 2.06zM226.25 61.538c-.026 1.098-1.086 1.963-2.356 1.93l-14.414-.355c-1.27-.033-2.285-.95-2.256-2.056.028-1.1 1.084-1.967 2.353-1.937l14.415.357c1.275.035 2.286.958 2.258 2.06z"/><ellipse opacity=".2" fill="#14120E" cx="196.923" cy="112.918" rx="4.703" ry="1.07"/><path opacity=".1" fill="#010000" d="M160.236 69.562c-1.455-8.165 6.34-26.792 7.307-28.186 4.853 2.162 14.52 2.707 16.133 1.312 3.884 2.788 13.593 9.438 27.66 1.396 6.15-3.714 11.81-3.56 12.78-3.403.97.15 8.187 18.72 8.187 30.146 1.173.996 1.884 2.253 1.884 2.253s3.39-37.616-.488-41.18c-3.888-3.555-10.067-9.02-17.347-11.96-7.278-2.94-9.703-7.892-9.703-9.287-.812 4.18-.486 6.806-.164 7.273-5.824-4.182-9.435-10.042-9.248-13.688-4.983-.086-15.66 7.81-17.603 10.283-3.073-.308-18.28 11.147-21.027 16.254-2.752 5.104-1.3 38.53 0 40.883.283-.832.902-1.72 1.628-2.095z"/><path fill="#77513B" d="M159.984 68.274c-1.455-8.53 6.34-28.002 7.307-29.454 4.855 2.256 14.52 2.824 16.135 1.365 3.883 2.916 13.588 9.867 27.66 1.46 6.146-3.882 11.81-3.722 12.78-3.56.968.16 8.186 19.568 8.186 31.51 1.172 1.043 1.885 2.354 1.885 2.354s3.39-39.313-.492-43.037c-3.88-3.717-10.064-9.43-17.342-12.503-7.278-3.075-9.704-8.25-9.704-9.704-.812 4.366-.483 7.114-.162 7.6C200.41 9.936 196.8 3.81 196.986.002 192-.088 181.326 8.16 179.382 10.75c-3.073-.325-18.278 11.647-21.025 16.985-2.753 5.337-1.3 40.277 0 42.73.283-.87.9-1.8 1.627-2.19z"/><path opacity=".2" fill="#010000" d="M160.904 109.097c0 13.9 24.93 26.712 35.69 26.712h.312c11.07 0 36.21-14.87 36.21-28.77V91.94c2-9.565-13.39 5.87-32.635 5.87h-2.78c-21.588 0-36.596-16.826-36.938-7.287l.142 18.577z"/><path fill="#77513B" d="M160.904 107.116c0 13.9 24.93 27.692 35.69 27.692h.312c11.07 0 36.21-16.83 36.21-30.728V88.977c2-9.562-13.39 7.832-32.635 7.832h-2.78c-21.588 0-36.596-17.32-36.938-7.78l.142 18.086z"/><path fill="#FFF" d="M211.875 98.79c0 4.78-6.735 8.668-15.045 8.668-8.308 0-15.044-3.888-15.044-8.667 0-4.78 6.736-.56 15.044-.56 8.31 0 15.045-4.22 15.045.56"/><g fill="#63402E"><path d="M233.175 80.41s-12.2 16.738-32.035 8.754c-8.773 0-7.685 8.565-1.318 9.562 10.757 1.683 33.517.312 33.354-17.523"/><path d="M160.52 80.41s12.202 16.738 32.038 8.754c8.774 0 7.68 8.565 1.322 9.562-10.763 1.683-33.52.312-33.36-17.523"/></g><path fill="#FF8080" d="M201.38 87.268a4.583 4.583 0 0 1-4.58 4.578h-.125a4.58 4.58 0 0 1-4.576-4.578V66.72a4.578 4.578 0 0 1 4.575-4.576h.125a4.58 4.58 0 0 1 4.58 4.577V87.27z"/><path opacity=".3" d="M207.062 60.922c-2.488.77-4.537 1.318-6.125 1.702-3.595.872-4.44.872-8.04 0a101.27 101.27 0 0 1-6.126-1.702c-6.632-2.048-19.895-2.144-30.333.293l.297 4.68s1.945-.678 2.92 5.465c.978 6.145 1.857 14.73 16 14.928 14.145.188 17.07-12.686 17.852-14.538.78-1.854.976-3.22 1.854-3.61 1.115-.495 2.006-.495 3.123 0 .877.392 1.067 1.757 1.85 3.61.78 1.853 3.71 14.727 17.852 14.538 14.143-.2 15.02-8.783 15.994-14.928.974-6.143 2.927-5.465 2.927-5.465l.293-4.68c-10.438-2.437-23.708-2.34-30.338-.293zm-17.46 13.17c-2.883 8.83-9.372 10.733-14.573 10.557-4.983-.172-8.597-1.645-11.116-6.124-1.83-3.256-2.832-7.59-1.427-11.558 1.022-2.89 3.824-4.28 6.715-4.92 4.372-.967 12.497-.802 16.573 1.088 3.31 1.527 5.885 4.645 3.826 10.957zm40.316 4.433c-2.52 4.48-6.135 5.952-11.117 6.123-5.193.177-11.687-1.727-14.568-10.556-2.058-6.312.516-9.43 3.826-10.957 4.084-1.89 12.202-2.055 16.57-1.087 2.896.64 5.694 2.03 6.723 4.92 1.402 3.967.402 8.302-1.432 11.557z"/><path fill="#065D72" d="M207.062 58.922c-2.488.77-4.537 1.318-6.125 1.702-3.595.872-4.44.872-8.04 0a101.27 101.27 0 0 1-6.126-1.702c-6.632-2.048-19.895-2.144-30.333.293l.297 4.68s1.945-.678 2.92 5.465c.978 6.145 1.857 14.73 16 14.928 14.145.188 17.07-12.686 17.852-14.538.78-1.854.976-3.22 1.854-3.61 1.115-.495 2.006-.495 3.123 0 .877.392 1.067 1.757 1.85 3.61.78 1.853 3.71 14.727 17.852 14.538 14.143-.2 15.02-8.783 15.994-14.928.974-6.143 2.927-5.465 2.927-5.465l.293-4.68c-10.438-2.437-23.708-2.34-30.338-.293zm-17.46 13.17c-2.883 8.83-9.372 10.733-14.573 10.557-4.983-.172-8.597-1.645-11.116-6.124-1.83-3.256-2.832-7.59-1.427-11.558 1.022-2.89 3.824-4.28 6.715-4.92 4.372-.967 12.497-.802 16.573 1.088 3.31 1.527 5.885 4.645 3.826 10.957zm40.316 4.433c-2.52 4.48-6.135 5.952-11.117 6.123-5.193.177-11.687-1.727-14.568-10.556-2.058-6.312.516-9.43 3.826-10.957 4.084-1.89 12.202-2.055 16.57-1.087 2.896.64 5.694 2.03 6.723 4.92 1.402 3.967.402 8.302-1.432 11.557z"/><g fill="#EDEDED"><path d="M162.95 61.474c.01.472-1.122.88-2.537.915-1.412.03-2.57-.33-2.58-.802-.008-.477 1.13-.885 2.542-.913 1.412-.033 2.567.324 2.576.8M236.334 61.474c.01.472-1.126.88-2.537.915-1.414.03-2.567-.33-2.58-.802-.01-.477 1.128-.885 2.54-.913 1.415-.033 2.57.324 2.577.8"/></g><path fill="#009995" d="M293.312 158.254l1.028 2.324-17.396 26.55-2.112-4.755.088-23.394s6.976-9.754 8.263-9.57c1.283.184 10.13 8.844 10.13 8.844z"/><g><path fill="#27B3D8" d="M70.31 75.183l8.42 11.675-57.047 41.15-8.422-11.675z"/><path opacity=".2" d="M70.285 75.146l2.502 3.462-57.08 41.26-2.503-3.46z"/><path opacity=".2" fill="#FFF" d="M76.224 83.373l2.512 3.485-57.2 41.23-2.513-3.486z"/><path fill="#FFE0A9" d="M90.36 69.598l-20.056 5.576v.003a2.153 2.153 0 0 0 2.52 3.49 2.94 2.94 0 0 0-.664 4.107 2.94 2.94 0 0 0 4.103.662l.004.005a2.107 2.107 0 0 0-.476 2.934 2.11 2.11 0 0 0 2.938.48l.017.018L90.36 69.598z"/><path opacity=".05" fill="#3C3C3B" d="M90.36 69.598l-20.056 5.576v.003a2.153 2.153 0 0 0 2.52 3.49c-1.317.95 17.537-9.068 17.537-9.068z"/><path fill="#3C3C3B" d="M85.96 76.136l4.4-6.538-7.592 2.11z"/><path fill="#FF839E" d="M.61 129.358a3.24 3.24 0 0 1 .733-4.52l9.104-6.566a3.237 3.237 0 0 1 4.517.732l4.695 6.505a3.24 3.24 0 0 1-.73 4.518l-9.106 6.568a3.236 3.236 0 0 1-4.517-.73L.61 129.357z"/><path opacity=".1" fill="#3C3C3B" d="M.415 128.98l9.01-6.503-1.656-2.294-6.422 4.635c-1.336.96-1.702 2.752-.933 4.16z"/><path fill="#DADADA" d="M6.627 121.278a.81.81 0 0 1 .186-1.13l6.97-5.03a.812.812 0 0 1 1.13.183l8.283 11.483a.81.81 0 0 1-.184 1.13l-6.97 5.03a.81.81 0 0 1-1.13-.186l-8.285-11.48z"/><g opacity=".3"><path fill="#3C3C3B" d="M7.733 121.072a.532.532 0 1 1 .862-.62l7.72 10.7a.53.53 0 0 1-.118.742.527.527 0 0 1-.74-.117l-7.724-10.705zM9.177 120.03a.524.524 0 0 1 .12-.738.527.527 0 0 1 .74.12l7.722 10.7a.53.53 0 0 1-.12.74.528.528 0 0 1-.742-.118l-7.72-10.704zM10.62 118.99a.53.53 0 0 1 .86-.62l7.723 10.698a.535.535 0 0 1-.12.744.53.53 0 0 1-.74-.12l-7.723-10.703zM12.062 117.95a.53.53 0 0 1 .862-.623l7.723 10.702a.53.53 0 0 1-.862.62l-7.723-10.7zM13.508 116.907a.532.532 0 0 1 .12-.743.528.528 0 0 1 .74.124l7.722 10.7a.53.53 0 0 1-.86.62l-7.722-10.7z"/></g><path opacity=".3" fill="#FFF" d="M5.61 132.947a.808.808 0 0 1 1.13.18 1.82 1.82 0 0 0 2.54.413.805.805 0 0 1 1.128.184.806.806 0 0 1-.182 1.128 3.44 3.44 0 0 1-4.798-.774.81.81 0 0 1 .182-1.13z"/><path opacity=".3" fill="#3C3C3B" d="M15.937 114.282l8.445 11.702-1.16.838-8.445-11.702z"/></g><g><path fill="#FDDBA4" d="M59.084 97.208c1.3-2.44 4.13-3.473 6.33-2.308 2.197 1.17 2.927 4.097 1.63 6.54L59.313 116c-1.297 2.442-4.13 3.474-6.33 2.308-2.197-1.17-2.928-4.096-1.63-6.534l7.732-14.566z"/><g opacity=".15"><defs><path id="c" d="M62.296 112.99l-12.267 9.63-8.275-10.532 12.266-9.632z"/></defs><clipPath id="d"><use xlink:href="#c" overflow="visible"/></clipPath><path clip-path="url(#d)" fill="#13120F" d="M57.713 115.137c-1.877 4.1-5.938 6.254-9.078 4.816-3.144-1.436-4.167-5.92-2.293-10.02 1.872-4.098 5.94-6.25 9.078-4.812 3.14 1.44 4.167 5.92 2.293 10.017"/></g><path fill="#FDDBA4" d="M58.83 115.183c-1.875 4.097-5.94 6.257-9.078 4.812-3.14-1.433-4.165-5.915-2.293-10.015 1.872-4.095 5.94-6.25 9.08-4.818 3.14 1.44 4.166 5.928 2.29 10.02"/></g><path fill="#FDDBA4" d="M48.738 87.613a3.36 3.36 0 0 1 2.734-3.89 3.37 3.37 0 0 1 3.893 2.736l2.416 12.765a3.363 3.363 0 0 1-2.736 3.89 3.362 3.362 0 0 1-3.892-2.74l-2.414-12.762zM41.697 89.826a3.363 3.363 0 0 1 2.738-3.89 3.357 3.357 0 0 1 3.888 2.733l2.247 11.81a3.365 3.365 0 1 1-6.63 1.153l-2.243-11.807zM35.127 93.42a3.36 3.36 0 0 1 2.74-3.888 3.36 3.36 0 0 1 3.888 2.737l1.804 10.635a3.37 3.37 0 0 1-2.736 3.892 3.366 3.366 0 0 1-3.892-2.738l-1.805-10.64zM28.918 98.133a3.175 3.175 0 0 1 2.58-3.665 3.165 3.165 0 0 1 3.66 2.577l1.565 8.457a3.172 3.172 0 0 1-2.577 3.664 3.17 3.17 0 0 1-3.663-2.58l-1.565-8.453z"/><g><path fill="#FCD22E" d="M102.847 35.388c3.577 9.43 10.79 17.052 19.913 21.187a38.156 38.156 0 0 0-19.913 21.187 38.156 38.156 0 0 0-19.92-21.187 38.194 38.194 0 0 0 19.92-21.187z"/><path fill="#FD7600" d="M102.847 45.9c1.8 4.74 5.43 8.58 10.04 10.674a19.17 19.17 0 0 0-10.04 10.67c-1.8-4.747-5.43-8.6-10.03-10.67a19.285 19.285 0 0 0 10.03-10.673z"/><path fill="#FCD22E" d="M87.006 20.36a18.666 18.666 0 0 0 9.733 10.358 18.646 18.646 0 0 0-9.734 10.355 18.628 18.628 0 0 0-9.732-10.355 18.648 18.648 0 0 0 9.732-10.36z"/><path fill="#FD7600" d="M87.006 25.497a9.428 9.428 0 0 0 4.91 5.222 9.365 9.365 0 0 0-4.91 5.214 9.354 9.354 0 0 0-4.9-5.215 9.417 9.417 0 0 0 4.9-5.223z"/><g><path fill="#FCD22E" d="M120.855 14.347a26.944 26.944 0 0 0 14.048 14.948 26.92 26.92 0 0 0-14.048 14.948A26.895 26.895 0 0 0 106.8 29.295a26.923 26.923 0 0 0 14.055-14.948z"/><path fill="#FD7600" d="M120.855 21.768a13.584 13.584 0 0 0 7.082 7.527 13.514 13.514 0 0 0-7.082 7.525 13.515 13.515 0 0 0-7.08-7.525 13.592 13.592 0 0 0 7.08-7.527z"/></g></g><path fill="#F3F3F3" d="M193.414 264.812c-75.863 0-137.367-8.978-137.367-20.054V300.7h274.736v-55.94c0 11.074-61.502 20.052-137.37 20.052z"/></svg>