<?xml version="1.0" encoding="utf-8"?>
<!-- Generator: Adobe Illustrator 19.0.0, SVG Export Plug-In . SVG Version: 6.00 Build 0)  -->
<svg version="1.1" baseProfile="basic"
	 xmlns="http://www.w3.org/2000/svg" xmlns:xlink="http://www.w3.org/1999/xlink" x="0px" y="0px" width="61px" height="61px"
	 viewBox="0 0 61 61" xml:space="preserve">
<g>
	<path fill="#FF4642" d="M30.5,7.6C17.9,7.6,7.6,17.9,7.6,30.5c0,12.6,10.2,22.9,22.9,22.9c12.6,0,22.9-10.2,22.9-22.9
		C53.4,17.9,43.1,7.6,30.5,7.6 M30.5,43.2c-7,0-12.7-5.7-12.7-12.7c0-7,5.7-12.7,12.7-12.7c7,0,12.7,5.7,12.7,12.7
		C43.2,37.5,37.5,43.2,30.5,43.2"/>
	<path id="XMLID_11_" fill="#FFF5D7" d="M44.9,30.5c0,1.6-0.3,3.2-0.8,4.6l5.4,5.4c1.6-3,2.5-6.4,2.5-10c0-3.6-0.9-7-2.5-10
		l-5.4,5.4C44.6,27.3,44.9,28.9,44.9,30.5"/>
	<path id="XMLID_10_" fill="#FFF5D7" d="M16.9,25.9l-5.4-5.4c-1.6,3-2.5,6.4-2.5,10c0,3.6,0.9,7,2.5,10l5.4-5.4
		c-0.5-1.5-0.8-3-0.8-4.6C16.1,28.9,16.4,27.3,16.9,25.9"/>
	<path id="XMLID_9_" fill="#FFF5D7" d="M25.9,16.9c1.5-0.5,3-0.8,4.6-0.8c1.6,0,3.2,0.3,4.6,0.8l5.4-5.4c-3-1.6-6.4-2.5-10-2.5
		c-3.6,0-7,0.9-10,2.5L25.9,16.9"/>
	<path id="XMLID_8_" fill="#FFF5D7" d="M35.1,44.1c-1.5,0.5-3,0.8-4.6,0.8c-1.6,0-3.2-0.3-4.6-0.8l-5.4,5.4c3,1.6,6.4,2.5,10,2.5
		c3.6,0,7-0.9,10-2.5L35.1,44.1"/>
	<path fill="#FF0000" d="M30.5,43.2c-7,0-12.7-5.7-12.7-12.7c0-7,5.7-12.7,12.7-12.7c7,0,12.7,5.7,12.7,12.7
		C43.2,37.5,37.5,43.2,30.5,43.2 M37.6,14.5l-2.4,2.4c-1.5-0.5-3-0.8-4.6-0.8c-1.6,0-3.2,0.3-4.6,0.8l-2.4-2.4c-4,1.8-7.2,5-9,9
		l2.4,2.4c-0.5,1.5-0.8,3-0.8,4.6c0,1.6,0.3,3.2,0.8,4.6l-2.4,2.4c1.8,4,5,7.2,9,9l2.4-2.4c1.5,0.5,3,0.8,4.6,0.8
		c1.6,0,3.2-0.3,4.6-0.8l2.4,2.4c4-1.8,7.2-5,9-9l-2.4-2.4c0.5-1.5,0.8-3,0.8-4.6c0-1.6-0.3-3.2-0.8-4.6l2.4-2.4
		C44.8,19.4,41.6,16.2,37.6,14.5"/>
	<path id="XMLID_5_" fill="#FFECAF" d="M46.5,23.4l-2.4,2.4c0.5,1.5,0.8,3,0.8,4.6c0,1.6-0.3,3.2-0.8,4.6l2.4,2.4
		c1-2.2,1.5-4.6,1.5-7.1C48,28,47.5,25.6,46.5,23.4"/>
	<path id="XMLID_4_" fill="#FFECAF" d="M14.5,23.4c-1,2.2-1.5,4.6-1.5,7.1c0,2.5,0.5,4.9,1.5,7.1l2.4-2.4c-0.5-1.5-0.8-3-0.8-4.6
		c0-1.6,0.3-3.2,0.8-4.6L14.5,23.4"/>
	<path id="XMLID_3_" fill="#FFECAF" d="M30.5,13c-2.5,0-4.9,0.5-7.1,1.5l2.4,2.4c1.5-0.5,3-0.8,4.6-0.8c1.6,0,3.2,0.3,4.6,0.8
		l2.4-2.4C35.4,13.5,33,13,30.5,13"/>
	<path id="XMLID_2_" fill="#FFECAF" d="M35.1,44.1c-1.5,0.5-3,0.8-4.6,0.8c-1.6,0-3.2-0.3-4.6-0.8l-2.4,2.4c2.2,1,4.6,1.5,7.1,1.5
		c2.5,0,4.9-0.5,7.1-1.5L35.1,44.1"/>
	<polygon id="XMLID_1_" fill="#00D094" points="40.3,25.5 36.3,22.3 28.7,31.6 23.9,27.7 20.7,31.7 29.3,38.7 	"/>
</g>
<g id="XMLID_14_">
</g>
<g id="XMLID_15_">
</g>
<g id="XMLID_16_">
</g>
<g id="XMLID_17_">
</g>
<g id="XMLID_18_">
</g>
<g id="XMLID_19_">
</g>
<g id="XMLID_20_">
</g>
<g id="XMLID_21_">
</g>
<g id="XMLID_22_">
</g>
<g id="XMLID_23_">
</g>
<g id="XMLID_24_">
</g>
<g id="XMLID_25_">
</g>
<g id="XMLID_26_">
</g>
<g id="XMLID_27_">
</g>
<g id="XMLID_28_">
</g>
</svg>
