<?xml version="1.0" encoding="utf-8"?>
<!-- Generator: Adobe Illustrator 19.0.0, SVG Export Plug-In . SVG Version: 6.00 Build 0)  -->
<svg version="1.1" baseProfile="basic"
	 xmlns="http://www.w3.org/2000/svg" xmlns:xlink="http://www.w3.org/1999/xlink" x="0px" y="0px" width="61px" height="61px"
	 viewBox="0 0 61 61" xml:space="preserve">
<g>
	<polyline id="XMLID_17_" fill="#3C3C3B" points="38.7,12.6 35.8,14.4 35.8,10.8 38.7,12.6 	"/>
	<path id="XMLID_16_" fill="#27B3D8" d="M10.1,30.5c0,5.6,2.3,10.7,6,14.4l3.5-3.5c-2.8-2.8-4.5-6.6-4.5-10.9
		c0-8.5,6.9-15.4,15.4-15.4v-5C19.2,10.1,10.1,19.3,10.1,30.5"/>
	<path id="XMLID_15_" fill="#348EC6" d="M15.1,30.5c0,4.3,1.7,8.1,4.5,10.9l1.8-1.8c-2.3-2.3-3.8-5.6-3.8-9.1
		c0-7.1,5.8-12.9,12.9-12.9v-2.5C22,15.1,15.1,22,15.1,30.5"/>
	<path id="XMLID_14_" fill="#4CC8E5" d="M10.1,30.5c0-11.2,9.1-20.4,20.4-20.4V7.6C17.9,7.6,7.6,17.9,7.6,30.5
		c0,6.3,2.6,12,6.7,16.2l1.8-1.8C12.4,41.2,10.1,36.1,10.1,30.5z"/>
	<path id="XMLID_13_" fill="#FFE0A9" d="M29.7,14.6c-0.6-0.5-1-1.2-1-2c0-0.8,0.4-1.5,1-2c-0.5-0.3-0.8-0.8-0.8-1.4
		c0-0.9,0.7-1.6,1.6-1.6l0,0v0l0,0l1.4,0.8l3.9,2.4v3.5l-3.9,2.4l-1.4,0.8l0,0v0l0,0c-0.9,0-1.6-0.7-1.6-1.6
		C28.9,15.4,29.2,14.9,29.7,14.6"/>
	<polyline id="XMLID_12_" points="31.9,16.7 30.5,17.6 30.5,17.6 30.5,17.6 31.9,16.7 	"/>
	<polyline id="XMLID_11_" points="38.7,12.6 35.8,13.2 35.8,14.4 38.7,12.6 	"/>
	<path id="XMLID_10_" fill="#FFC153" d="M35.8,13.2l-6.1,1.3l0,0l0,0c-0.5,0.3-0.8,0.8-0.8,1.4c0,0.9,0.7,1.6,1.6,1.6l0,0v0l0,0
		l1.4-0.8l3.9-2.4V13.2"/>
	<polyline id="XMLID_9_" fill="#3C3C3B" points="22.3,48.4 25.2,46.6 25.2,50.2 22.3,48.4 	"/>
	<path id="XMLID_8_" fill="#EA2106" d="M50.9,30.5c0-5.6-2.3-10.7-6-14.4l-3.5,3.5c2.8,2.8,4.5,6.6,4.5,10.9
		c0,8.5-6.9,15.4-15.4,15.4v5C41.8,50.9,50.9,41.7,50.9,30.5"/>
	<path id="XMLID_7_" fill="#F1430C" d="M45.9,30.5c0-4.3-1.7-8.1-4.5-10.9l-1.8,1.8c2.3,2.3,3.8,5.6,3.8,9.1
		c0,7.1-5.8,12.9-12.9,12.9v2.5C39,45.9,45.9,39,45.9,30.5z"/>
	<path id="XMLID_6_" fill="#D50000" d="M50.9,30.5c0,11.2-9.1,20.4-20.4,20.4v2.5c12.6,0,22.9-10.3,22.9-22.9c0-6.3-2.6-12-6.7-16.2
		l-1.8,1.8C48.6,19.8,50.9,24.9,50.9,30.5"/>
	<path id="XMLID_5_" fill="#FFE0A9" d="M31.3,46.4c0.6,0.5,1,1.2,1,2c0,0.8-0.4,1.5-1,2c0.5,0.3,0.8,0.8,0.8,1.4
		c0,0.9-0.7,1.6-1.6,1.6l0,0v0l0,0l-1.4-0.8l-3.9-2.4v-3.5l3.9-2.4l1.4-0.8l0,0v0l0,0c0.9,0,1.6,0.7,1.6,1.6
		C32.1,45.6,31.8,46.1,31.3,46.4"/>
	<polyline id="XMLID_4_" points="22.3,48.4 22.3,48.4 25.2,50.2 25.2,49 22.3,48.4 	"/>
	<path id="XMLID_3_" fill="#FFC153" d="M25.2,49v1.1l3.9,2.4l1.4,0.8l0,0v0l0,0c0.9,0,1.6-0.7,1.6-1.6c0-0.3-0.1-0.7-0.3-0.9
		c-0.1-0.2-0.3-0.3-0.5-0.4l0,0l0,0L25.2,49"/>
	<path fill="#004A54" d="M39.8,28.3l-1.1-0.1c-0.2-0.7-0.5-1.4-0.8-2l0.7-0.8c0.2-0.2,0.3-0.6,0.1-0.8l-2.3-2.3
		c-0.2-0.2-0.5-0.1-0.8,0.1l-0.8,0.7c-0.6-0.4-1.3-0.7-2-0.8l-0.1-1.2c0-0.3-0.2-0.7-0.5-0.7h-3.2c-0.3,0-0.5,0.4-0.5,0.7l-0.1,1.1
		c-0.7,0.2-1.4,0.5-2,0.9l-0.8-0.7c-0.2-0.2-0.6-0.3-0.8-0.1l-2.3,2.3c-0.2,0.2-0.1,0.5,0.1,0.8l0.7,0.8c-0.4,0.6-0.7,1.3-0.8,2
		l-1.1,0.1c-0.3,0-0.7,0.2-0.7,0.5v3.2c0,0.3,0.3,0.5,0.7,0.5l1.1,0.1c0.2,0.7,0.5,1.4,0.9,2l-0.7,0.8c-0.2,0.2-0.3,0.6-0.1,0.8
		l2.3,2.3c0.2,0.2,0.5,0.1,0.8-0.1l0.8-0.7c0.6,0.4,1.3,0.7,2,0.8l0.1,1.2c0,0.3,0.2,0.8,0.5,0.8h3.2c0.3,0,0.5-0.4,0.5-0.8l0.1-1.2
		c0.7-0.2,1.4-0.5,2-0.9l0.8,0.7c0.2,0.2,0.6,0.3,0.8,0.1l2.3-2.3c0.2-0.2,0.1-0.5-0.1-0.8l-0.7-0.8c0.4-0.6,0.7-1.3,0.8-2.1l1-0.1
		c0.3,0,0.6-0.2,0.6-0.5v-3.2C40.4,28.6,40.1,28.3,39.8,28.3z M30.6,33.6c-1.8,0-3.3-1.5-3.3-3.3c0-1.8,1.5-3.3,3.3-3.3
		c1.8,0,3.3,1.5,3.3,3.3C33.9,32.1,32.4,33.6,30.6,33.6z"/>
</g>
<g id="XMLID_18_">
</g>
<g id="XMLID_19_">
</g>
<g id="XMLID_20_">
</g>
<g id="XMLID_21_">
</g>
<g id="XMLID_22_">
</g>
<g id="XMLID_23_">
</g>
<g id="XMLID_24_">
</g>
<g id="XMLID_25_">
</g>
<g id="XMLID_26_">
</g>
<g id="XMLID_27_">
</g>
<g id="XMLID_28_">
</g>
<g id="XMLID_29_">
</g>
<g id="XMLID_30_">
</g>
<g id="XMLID_31_">
</g>
<g id="XMLID_32_">
</g>
</svg>
