<?xml version="1.0" encoding="utf-8"?>
<!-- Generator: Adobe Illustrator 19.0.0, SVG Export Plug-In . SVG Version: 6.00 Build 0)  -->
<svg version="1.1" baseProfile="basic"
	 xmlns="http://www.w3.org/2000/svg" xmlns:xlink="http://www.w3.org/1999/xlink" x="0px" y="0px" width="61px" height="61px"
	 viewBox="0 0 61 61" xml:space="preserve">
<g>
	<path fill="#0082B7" d="M17.5,46.6c-2.3-1.3-4.3-3.2-5.9-5.3h5.7c0.7,2.2,1.5,4.1,2.5,5.7c0.5,0,1,0.1,1.6,0.1c0.6,0,1.2,0,1.8-0.1
		c-1.2-1.3-2.2-3.3-3-5.7h5v5.3c1-0.2,2-0.5,3-0.9v-4.5h5c-0.3,0.8-0.5,1.5-0.8,2.2c2-1.4,3.7-3.2,5-5.2h-0.4
		c0.3-1.6,0.6-3.4,0.7-5.2l-0.4,0c-1,0-1.8-0.4-2.5-1c-0.1,2.2-0.3,4.3-0.7,6.2h-5.8v-6.4h6.3c-0.6-0.6-1-1.5-1-2.5
		c0-0.2,0-0.4,0-0.6h-5.4v-6.3h5.7c0.3,1.3,0.5,2.7,0.6,4.1l2.3-4c0,0,0-0.1,0-0.1h0.1l1.8-3h-2.6c-0.8-2.6-1.9-4.8-3.2-6.5
		c2.7,0.9,5.1,2.5,7,4.5l1.6-2.7c-3.9-3.6-9.1-5.9-14.8-5.9c-11.9,0-21.6,9.7-21.6,21.6c0,4.7,1.5,9.1,4.1,12.7l3.5,1.8
		C14.4,45.7,15.9,46.2,17.5,46.6z M28.3,12.5c2,0.9,3.8,3.4,4.9,7h-4.9V12.5z M25.3,38.2h-5.8c-0.4-2-0.7-4.1-0.7-6.4h6.5V38.2z
		 M25.3,28.8h-6.5c0.1-2.2,0.4-4.3,0.8-6.3h5.8V28.8z M25.3,12.5v7h-4.9C21.6,16,23.3,13.4,25.3,12.5z M20.6,13
		c-1.3,1.7-2.4,3.9-3.2,6.5h-5.6C14,16.6,17.1,14.3,20.6,13z M10,22.5h6.6c-0.4,2-0.7,4.1-0.8,6.3H8.3C8.5,26.6,9.1,24.5,10,22.5z
		 M8.3,31.8h7.6c0.1,2.2,0.3,4.4,0.7,6.4H9.9C9,36.2,8.5,34.1,8.3,31.8z"/>
	<path id="XMLID_1_" fill="#0082B7" d="M55.4,28.3l-8-14.2h0c-0.3-0.6-1-1-1.7-1c-0.8,0-1.4,0.4-1.7,1.1h0L42.9,16l-1.6,2.8
		l-0.4,0.7l-1.8,3l-1.6,2.7l-1.7,3c-0.2,0.3-0.4,0.7-0.4,1.1c0,1.1,0.9,1.9,1.9,1.9l4.6,0c0,0.2-0.1,0.3-0.1,0.5
		c-0.4,2.3-1.2,4.4-2.4,6.4c-0.6,1.1-1.3,2.1-2.1,3c-0.5,0.6-1.1,1.2-1.6,1.7c-1.5,1.4-3.1,2.6-5,3.5c-0.8,0.4-1.6,0.7-2.4,1
		c-1,0.3-2,0.6-3,0.8c-0.1,0-0.2,0-0.2,0c-1.2,0.2-2.4,0.3-3.7,0.3c-3.2,0-6.3-0.7-9-2.1c-0.1-0.1-0.2-0.1-0.3-0.2
		c1.6,1.4,3.3,2.5,5.2,3.5c0.2,0.1,0.4,0.2,0.5,0.3c0,0,0.1,0,0.1,0.1c2.7,1.2,5.7,1.9,8.9,1.9c0,0,0.1,0,0.1,0
		c11.9,0,21.6-9.2,22.5-20.8l4.3,0c1.1,0,1.9-0.9,1.9-1.9C55.8,29,55.7,28.6,55.4,28.3z"/>
</g>
<g id="XMLID_10_">
</g>
<g id="XMLID_11_">
</g>
<g id="XMLID_12_">
</g>
<g id="XMLID_13_">
</g>
<g id="XMLID_14_">
</g>
<g id="XMLID_15_">
</g>
<g id="XMLID_16_">
</g>
<g id="XMLID_17_">
</g>
<g id="XMLID_18_">
</g>
<g id="XMLID_19_">
</g>
<g id="XMLID_20_">
</g>
<g id="XMLID_21_">
</g>
<g id="XMLID_22_">
</g>
<g id="XMLID_23_">
</g>
<g id="XMLID_24_">
</g>
</svg>
