<?xml version="1.0" encoding="utf-8"?>
<!-- Generator: Adobe Illustrator 19.0.0, SVG Export Plug-In . SVG Version: 6.00 Build 0)  -->
<svg version="1.1" baseProfile="basic"
	 xmlns="http://www.w3.org/2000/svg" xmlns:xlink="http://www.w3.org/1999/xlink" x="0px" y="0px" width="61px" height="61px"
	 viewBox="0 0 61 61" xml:space="preserve">
<g>
	<path id="XMLID_30_" fill="#36875A" d="M49.7,53.3c0,0.8-0.7,1.5-1.5,1.5H12.7c-0.8,0-1.4-0.7-1.4-1.5c0-0.8,0.7-1.4,1.4-1.4h35.5
		C49.1,51.8,49.7,52.5,49.7,53.3"/>
	<path id="XMLID_29_" fill="#31D880" d="M37,54.5c0,0.6-0.5,1.1-1.1,1.1H25.1c-0.6,0-1.1-0.5-1.1-1.1V52c0-0.6,0.5-1.1,1.1-1.1h10.9
		c0.6,0,1.1,0.5,1.1,1.1V54.5"/>
	<path id="XMLID_28_" fill="#31D880" d="M31.8,47.9c0.6,0,1.1,0.5,1.1,1.1v4.5c0,0.6-0.5,1.1-1.1,1.1h-2.5c-0.6,0-1.1-0.5-1.1-1.1
		V49c0-0.6,0.5-1.1,1.1-1.1H31.8"/>
	<path id="XMLID_27_" fill="#98D7FA" d="M52.5,27.4c0,12.2-9.8,22-22,22c-12.2,0-22-9.9-22-22s9.9-22,22-22
		C42.7,5.4,52.5,15.3,52.5,27.4"/>
	<path id="XMLID_26_" fill-rule="evenodd" clip-rule="evenodd" fill="#5FA642" d="M16.3,31.7c-0.1-0.1-0.3-0.1-0.4-0.1
		c-0.1,0-0.3,0-0.4,0c-0.3,0.1-0.3,0.4,0.5,0.9c0.2,0.3,0.6,0.6,1,0.4C17.2,32.3,16.8,31.9,16.3,31.7L16.3,31.7z"/>
	<path id="XMLID_25_" fill-rule="evenodd" clip-rule="evenodd" fill="#5FA642" d="M19.7,25.5L19.7,25.5l0.1,0.1
		c0.2,0.1,0.4-0.2,0.3-0.2C20,25.4,19.9,25.4,19.7,25.5z"/>
	<path id="XMLID_24_" fill-rule="evenodd" clip-rule="evenodd" fill="#5FA642" d="M24.8,23.6c-0.3,0.1-0.4,0.3,0.3,0.8
		c0.1,0,0.7-0.2,0.4,0.2C26.6,23.9,25.4,23.4,24.8,23.6z"/>
	<path id="XMLID_23_" fill-rule="evenodd" clip-rule="evenodd" fill="#5FA642" d="M24.8,18.6c1.3-0.5,1.5-3.8,0-3.7
		c-0.1,0-0.2,0.1-0.3,0.1C25.2,16.1,23.7,17.6,24.8,18.6z"/>
	<path id="XMLID_22_" fill-rule="evenodd" clip-rule="evenodd" fill="#5FA642" d="M39.2,21.3c0.1-0.7-1-1.2-1.5-1.2
		c-0.3,0-0.3,0.2,0.2,0.7C37.4,22,38.7,22.1,39.2,21.3"/>
	<path id="XMLID_21_" fill-rule="evenodd" clip-rule="evenodd" fill="#5FA642" d="M28,12.7c0.4-0.2,0.5-0.8,0-0.8
		c-0.1,0-0.2-0.1-0.3,0c-0.1,0-0.2,0-0.3,0C26.4,12.2,26.7,13.9,28,12.7z"/>
	<path id="XMLID_20_" fill-rule="evenodd" clip-rule="evenodd" fill="#5FA642" d="M29.5,12.3c-1.5,0.2-3.1,1.7-1.6,3.1
		c1,1.3-1.5,3.9,0.9,4.5c0.9-2.1,3.5-3.8,2.9-6.3C31.3,12.6,30.4,12.2,29.5,12.3"/>
	<path id="XMLID_19_" fill="#5FA642" d="M26.8,42.6c-2.3-1.5-3.9-3.8-6.4-4.9c-2.1-2-6.8-0.8-6.7-4.6c0.2-1.8-1.2-2.7-2.3-3.5
		c-0.8-2.8,4.3-3.8,4.3-0.8c1.7-0.1,2.3-3,4.2-3.4c1-0.9,3.7,0.1,2.7-1.7c1-0.9,3.8-0.9,2.4-3c-0.5-2.1-3-3.1-3.9-0.7
		c-1.2,0.3-1.5-0.8-1.3-1.9c0.2-1.1,1.1-2.2,2.3-1.9c1.7,0.1,1.5-1.4,0.4-1.9l-0.1,0c-0.2-0.1-0.4-0.1-0.6-0.1
		c-2.3-1.3,2.3-4.6-0.8-5.6c-3.4,2.9-8.5,7.4-10.6,11.7c-0.9,2.7-0.8,5.3-0.7,8.1c0.9,2.7,2.8,4.9,4.3,7.4c0.9,1.2,0.5,2.5,0.4,3.8
		l0,0c0,0.8,0.1,1.5,0.7,2.2c1.1,1.5,2.8,2.6,3.6,4.4c1.8,1.1,3.8,2,6,2.6c0.2-0.1,0.4-0.2,2.4-0.4v0c0-0.5,2.4-1.3,3.5-2.1
		C32.7,43.8,28.8,41.9,26.8,42.6"/>
	<path id="XMLID_18_" fill="#5FA642" d="M47.3,41.6c3.3-3.8,5.2-8.8,5.2-14.2c0-0.6,0-1.2-0.1-1.8c0-0.1,0-0.3,0-0.4
		c-0.6,0.3-1.3-0.3-1.8-0.9c-0.6-0.7-0.7-1.4,0.6-0.4c0.4,0,0.7-0.2,0.9-0.4c-0.3-1.4-0.6-2.7-1.1-4c-0.2-0.3-0.4-0.5-0.6-0.7
		c0-0.3,0-0.5,0-0.8v0C46.7,10.6,39.2,5.5,30.4,5.5c-0.6,0-1.2,0-1.8,0.1c-0.3,0.1-0.6,0.1-1,0.1c-0.1,0-0.2,0-0.4,0
		C26,6,24.8,6.2,23.7,6.5c3-0.2,6.1-0.1,8.9,1.2c0.7,2.3,5,0,4.8,2.6l0.1,0.1c-0.1,0.1,0,0.5,0.1,0.1c0.7,0.8,2.3,2.6,0.7,2.4
		c-2.2-0.3-1.6,4,0,4.8c1.5,0.8,2.3-0.8,0.8-1.6c-0.2-2,3.4,1.2,1.8,2.3l-0.2,0.1c0.1-0.3-0.1,0-0.1,0c-1.8,1.3-0.8,4.4-1.5,6.4
		c-1.2,2.8,3.1,1.5,2.5-0.6c-0.8-2,3.3-1.1,2.4-2.5c2.5,1.3,2.3-2.2,1.2-3.4c0.5-1.9,1.8,0.2,1.2,1.3c0.1,1,0.9,1.2,1.6,1.5l0.1,0
		c0.6,0.3,0.9,0.6,0.3,1.8c-0.7,2.5-3.2,2.6-5.2,2.1c-2,0.8-2.4,3.3-3.6,5c-1.1,2.1-2.1,5.2,0,7c2,1.9,4.2,0.3,5.9-1
		c3.1-0.4,3.4,3.3,1.9,5.2L47.3,41.6"/>
	<path fill="#999999" d="M36,55.6C36,55.6,35.9,55.6,36,55.6C35.9,55.6,36,55.6,36,55.6 M36,55.6C36,55.6,36,55.6,36,55.6
		C36,55.6,36,55.6,36,55.6 M36,55.6C36,55.6,36,55.6,36,55.6C36,55.6,36,55.6,36,55.6 M36,51C36,51,36,51,36,51C36,51,36,51,36,51
		 M36,51C36,51,36,51,36,51C36,51,36,51,36,51 M32.8,49.3L32.8,49.3V51h3.1c0,0,0,0,0,0c0,0,0,0,0,0h-3.1V49.3 M30.5,5.4L30.5,5.4
		C30.5,5.4,30.5,5.4,30.5,5.4c0.3,0,0.7,0,1,0C31.2,5.4,30.8,5.4,30.5,5.4"/>
	<path id="XMLID_10_" fill="#205736" d="M48.3,51.8H37c0,0.1,0,0.1,0,0.2v2.5c0,0.1,0,0.1,0,0.2h11.3c0.8,0,1.5-0.7,1.5-1.5
		C49.7,52.5,49.1,51.8,48.3,51.8"/>
	<path id="XMLID_9_" fill="#1DC84D" d="M35.9,51h-3.1v2.5c0,0.6-0.5,1.1-1.1,1.1h-1.3v1.1h5.4l0,0c0,0,0,0,0,0c0,0,0,0,0,0
		c0,0,0,0,0,0c0,0,0,0,0,0c0,0,0,0,0,0c0.5,0,0.9-0.4,1-0.9h0c0-0.1,0-0.1,0-0.2V52c0-0.1,0-0.1,0-0.2l0,0h0
		C36.9,51.4,36.5,51,35.9,51C36,51,36,51,35.9,51C36,51,36,51,35.9,51C36,51,36,51,35.9,51C36,51,36,51,35.9,51
		C36,51,35.9,51,35.9,51"/>
	<path id="XMLID_8_" fill="#1DC84D" d="M32.8,49.3c-0.8,0.1-1.5,0.1-2.3,0.1c0,0,0,0,0,0v5.1h1.3c0.6,0,1.1-0.5,1.1-1.1V51V49.3"/>
	<path fill="#6FC7F8" d="M38.3,21.8c-0.4,0-0.7-0.3-0.4-1c-0.5-0.5-0.5-0.7-0.2-0.7c0,0,0,0,0,0c0.5,0,1.5,0.5,1.4,1.2
		C39,21.7,38.6,21.8,38.3,21.8 M30.5,7v5.4c0.5,0.2,0.9,0.6,1.1,1.2c0.4,1.4-0.3,2.6-1.1,3.6v26.1c0.8,0.7,1.2,1.6,0.3,2.7
		c-0.1,0.1-0.2,0.1-0.3,0.2v3.1c0,0,0,0,0,0c0.8,0,1.6,0,2.3-0.1l0,0v0c7.9-0.8,14.6-5.9,17.7-12.8c-0.9,1.9-2,3.6-3.3,5.2l0-0.2
		c1.5-1.8,1.3-5.2-1.4-5.2c-0.1,0-0.3,0-0.5,0c-1.1,0.9-2.5,1.9-3.9,1.9c-0.7,0-1.3-0.2-2-0.9c-2.1-1.9-1.1-4.9,0-7
		c1.2-1.7,1.5-4.2,3.6-5c0.6,0.1,1.1,0.2,1.7,0.2c1.5,0,3-0.6,3.5-2.3c0.6-1.1,0.3-1.5-0.3-1.8l-0.1,0c-0.7-0.3-1.5-0.5-1.6-1.5
		c0.4-0.7-0.1-2-0.6-2c-0.2,0-0.4,0.2-0.6,0.8c0.9,1,1.2,3.7-0.3,3.7c-0.3,0-0.6-0.1-1-0.3c0.9,1.4-3.2,0.5-2.4,2.5
		c0.4,1.3-1,2.2-1.9,2.2c-0.6,0-1.1-0.5-0.6-1.6c0.7-2-0.3-5.1,1.5-6.4c0,0,0.1-0.2,0.1-0.2c0,0,0,0,0,0.1l0.2-0.1
		c1.2-0.8-0.6-3-1.4-3c-0.2,0-0.4,0.2-0.3,0.6c1.2,0.6,0.9,1.8,0,1.8c-0.2,0-0.5-0.1-0.8-0.2c-1.5-0.8-2.1-4.8-0.2-4.8
		c0.1,0,0.1,0,0.2,0c0.1,0,0.2,0,0.3,0c1.2,0-0.2-1.6-0.9-2.4c0,0.1-0.1,0.2-0.1,0.2c-0.1,0-0.1-0.2-0.1-0.3l-0.1-0.1
		c0.2-2.6-4.1-0.3-4.8-2.6C31.9,7.4,31.2,7.2,30.5,7 M30.5,5.4C30.5,5.4,30.5,5.4,30.5,5.4l0,0.1c8.7,0,16.2,5.1,19.8,12.5v0
		c0,0.3,0.1,0.5,0,0.8c0.2,0.1,0.4,0.4,0.6,0.7c0.5,1.3,0.9,2.6,1.1,4c-0.2,0.2-0.5,0.3-0.9,0.4c-0.4-0.4-0.7-0.5-0.9-0.5
		c-0.3,0-0.1,0.5,0.3,0.9c0.4,0.5,0.9,0.9,1.4,0.9c0.1,0,0.2,0,0.3-0.1c0,0.1,0,0.3,0,0.4c0,0.6,0.1,1.2,0.1,1.8l0,0l0,0
		c0-11.8-9.3-21.5-21-22C31.2,5.4,30.8,5.4,30.5,5.4"/>
	<path id="XMLID_4_" fill="#398228" d="M37.7,20.1C37.7,20.1,37.7,20.1,37.7,20.1c-0.3,0-0.4,0.2,0.2,0.7c-0.3,0.7,0,1,0.4,1
		c0.3,0,0.7-0.2,0.9-0.5C39.3,20.6,38.2,20.1,37.7,20.1"/>
	<path id="XMLID_3_" fill="#398228" d="M30.5,12.4v4.9c0.8-1.1,1.4-2.2,1.1-3.6C31.4,13,31,12.6,30.5,12.4"/>
	<path id="XMLID_2_" fill="#398228" d="M30.5,43.4v2.9c0.1-0.1,0.2-0.1,0.3-0.2C31.7,45,31.3,44.1,30.5,43.4"/>
	<path id="XMLID_1_" fill="#398228" d="M30.5,5.5V7c0.7,0.2,1.4,0.4,2,0.8c0.7,2.3,5,0,4.8,2.6l0.1,0.1c0,0,0,0.3,0.1,0.3
		c0,0,0.1,0,0.1-0.2c0.7,0.8,2.1,2.4,0.9,2.4c-0.1,0-0.2,0-0.3,0c-0.1,0-0.1,0-0.2,0c-1.9,0-1.4,4,0.2,4.8C38.6,18,38.8,18,39,18
		c1,0,1.3-1.2,0-1.8c0-0.5,0.1-0.6,0.3-0.6c0.8,0,2.7,2.1,1.4,3l-0.2,0.1c0-0.1,0-0.1,0-0.1c0,0-0.1,0.1-0.1,0.2
		c-1.8,1.3-0.8,4.4-1.5,6.4c-0.5,1.1-0.1,1.6,0.6,1.6c0.9,0,2.3-0.9,1.9-2.2c-0.8-2,3.3-1.1,2.4-2.5c0.4,0.2,0.7,0.3,1,0.3
		c1.4,0,1.1-2.7,0.3-3.7c0.1-0.5,0.3-0.8,0.6-0.8c0.5,0,1,1.3,0.6,2c0.1,1,0.9,1.2,1.6,1.5l0.1,0c0.6,0.3,0.9,0.6,0.3,1.8
		c-0.5,1.8-2,2.3-3.5,2.3c-0.6,0-1.2-0.1-1.7-0.2c-2,0.8-2.4,3.3-3.6,5c-1.1,2.1-2.1,5.2,0,7c0.6,0.6,1.3,0.9,2,0.9
		c1.4,0,2.8-1,3.9-1.9c0.2,0,0.3,0,0.5,0c2.7,0,2.9,3.4,1.4,5.2l0,0.2c1.3-1.6,2.4-3.3,3.3-5.2c0.4-1,0.8-2,1.1-3.1l0-0.1
		c0.2-0.6,0.3-1.1,0.4-1.7l0-0.2c0.1-0.6,0.2-1.2,0.2-1.8l0-0.2c0.1-0.6,0.1-1.2,0.1-1.9c0-0.6,0-1.2-0.1-1.8c0-0.1,0-0.3,0-0.4
		c-0.1,0.1-0.2,0.1-0.3,0.1c-0.5,0-1.1-0.5-1.4-0.9c-0.4-0.5-0.6-0.9-0.3-0.9c0.1,0,0.4,0.1,0.9,0.5c0.4,0,0.7-0.2,0.9-0.4
		c-0.3-1.4-0.6-2.7-1.1-4c-0.2-0.3-0.4-0.5-0.6-0.7c0-0.3,0-0.5,0-0.8v0C46.7,10.6,39.2,5.6,30.5,5.5"/>
</g>
<g id="XMLID_31_">
</g>
<g id="XMLID_32_">
</g>
<g id="XMLID_33_">
</g>
<g id="XMLID_34_">
</g>
<g id="XMLID_35_">
</g>
<g id="XMLID_36_">
</g>
<g id="XMLID_37_">
</g>
<g id="XMLID_38_">
</g>
<g id="XMLID_39_">
</g>
<g id="XMLID_40_">
</g>
<g id="XMLID_41_">
</g>
<g id="XMLID_42_">
</g>
<g id="XMLID_43_">
</g>
<g id="XMLID_44_">
</g>
<g id="XMLID_45_">
</g>
</svg>
