<?xml version="1.0" encoding="utf-8"?>
<!-- Generator: Adobe Illustrator 19.0.0, SVG Export Plug-In . SVG Version: 6.00 Build 0)  -->
<svg version="1.1" baseProfile="basic"
	 xmlns="http://www.w3.org/2000/svg" xmlns:xlink="http://www.w3.org/1999/xlink" x="0px" y="0px" width="61px" height="61px"
	 viewBox="0 0 61 61" xml:space="preserve">
<g>
	<path id="XMLID_12_" fill="#00D094" d="M28.8,6.6v4.8l4.3-4.3C31.7,6.9,30.3,6.7,28.8,6.6z"/>
	<path id="XMLID_11_" fill="#00D094" d="M40.4,9.8c-1.3-0.7-2.6-1.2-3.9-1.7l-7.7,7.7v3.6c0.6,0,1.2,0.1,1.8,0.3L40.4,9.8z"/>
	<path id="XMLID_10_" fill="#00D094" d="M37.1,23.2l9.1-9.1c-1-0.9-2-1.8-3.1-2.5l-9.3,9.3C35.1,21.4,36.2,22.2,37.1,23.2z"/>
	<path id="XMLID_9_" fill="#00D094" d="M40.8,29.6l10-10c-0.7-1.2-1.5-2.2-2.4-3.3l-9.3,9.3C39.9,26.8,40.4,28.1,40.8,29.6z"/>
	<path id="XMLID_8_" fill="#00D094" d="M38.8,40.4l0.7,0.5l14.4-14.4c-0.4-1.4-0.9-2.8-1.5-4.1L41.1,33.6
		C41,36.1,40.1,38.5,38.8,40.4z"/>
	<path id="XMLID_7_" fill="#00D094" d="M54.6,30.2L41.8,43l3.1,2.5l9.8-9.8c0-0.6,0.1-1.2,0.1-1.7C54.9,32.6,54.8,31.4,54.6,30.2z"
		/>
	<path id="XMLID_6_" fill="#00D094" d="M49.9,49.6c1.8-2.6,3.2-5.5,4-8.7l-6.6,6.6L49.9,49.6z"/>
	<path id="XMLID_5_" fill="#00D094" d="M14.4,32.8c0-7.1,5.5-12.8,12.4-13.3v-8.3c-11.5,0.5-20.6,10-20.6,21.6
		c0,11.6,9.2,21.1,20.7,21.6v-8.3C19.9,45.6,14.4,39.8,14.4,32.8z"/>
	<path id="XMLID_4_" fill="#00D094" d="M40.4,44.4l-2.4-2L37.5,42l0,0c-2.2,2.3-5.3,3.8-8.7,4.1v8.3c5.8-0.3,11.2-2.8,15.1-7.1l0,0
		l-0.4-0.3L40.4,44.4z"/>
	<rect id="XMLID_3_" x="17.9" y="32.2" fill="#00D094" width="4.8" height="5.9"/>
	<polygon id="XMLID_2_" fill="#00D094" points="29.5,38.2 29.5,35.5 29.5,35.5 29.5,35.2 29.5,34.2 29.5,32.9 29.5,30.8 29.5,29.4
		28.8,29.4 28.8,29.4 27.8,29.4 27.5,29.4 26.8,29.4 26.8,29.4 24.7,29.4 24.7,38.2 26.8,38.2 28.8,38.2 	"/>
	<polygon id="XMLID_1_" fill="#00D094" points="31.5,28.8 31.5,33.2 31.5,34.5 31.5,34.5 31.5,35.8 31.5,37.1 31.5,37.1 31.5,38.2
		32.7,38.2 32.8,38.2 34.4,38.2 36,38.2 36,38.2 36.3,38.2 36.3,34 36.3,28.4 36.3,25.3 35,25.3 31.5,25.3 	"/>
</g>
<g id="XMLID_13_">
</g>
<g id="XMLID_14_">
</g>
<g id="XMLID_15_">
</g>
<g id="XMLID_16_">
</g>
<g id="XMLID_17_">
</g>
<g id="XMLID_18_">
</g>
<g id="XMLID_19_">
</g>
<g id="XMLID_20_">
</g>
<g id="XMLID_21_">
</g>
<g id="XMLID_22_">
</g>
<g id="XMLID_23_">
</g>
<g id="XMLID_24_">
</g>
<g id="XMLID_25_">
</g>
<g id="XMLID_26_">
</g>
<g id="XMLID_27_">
</g>
</svg>
