<?xml version="1.0" encoding="utf-8"?>
<!-- Generator: Adobe Illustrator 19.0.0, SVG Export Plug-In . SVG Version: 6.00 Build 0)  -->
<svg version="1.1" baseProfile="basic"
	 xmlns="http://www.w3.org/2000/svg" xmlns:xlink="http://www.w3.org/1999/xlink" x="0px" y="0px" width="61px" height="61px"
	 viewBox="0 0 61 61" xml:space="preserve">
<g>
	<polygon id="XMLID_10_" fill="#F7C200" points="24.8,39.2 22.3,37.2 17.6,43 14.6,40.6 12.5,43 17.9,47.5 	"/>
	<polygon id="XMLID_9_" fill="#F7C200" points="48.5,15.6 46,13.5 41.2,19.4 38.2,16.9 36.2,19.4 41.6,23.8 	"/>
	<path fill="#F7C200" d="M26.2,11.2v15h-15v-15H26.2 M28.8,8.6H8.6v20.2h20.2V8.6L28.8,8.6z"/>
	<path fill="#F7C200" d="M49.8,11.2v15h-15v-15H49.8 M52.4,8.6H32.2v20.2h20.2V8.6L52.4,8.6z"/>
	<path fill="#F7C200" d="M26.2,34.8v15h-15v-15H26.2 M28.8,32.2H8.6v20.2h20.2V32.2L28.8,32.2z"/>
	<path fill="#F7C200" d="M49.8,34.8v15h-15v-15H49.8 M52.4,32.2H32.2v20.2h20.2V32.2L52.4,32.2z"/>
</g>
<g id="XMLID_11_">
</g>
<g id="XMLID_12_">
</g>
<g id="XMLID_13_">
</g>
<g id="XMLID_14_">
</g>
<g id="XMLID_15_">
</g>
<g id="XMLID_16_">
</g>
<g id="XMLID_17_">
</g>
<g id="XMLID_18_">
</g>
<g id="XMLID_21_">
</g>
<g id="XMLID_24_">
</g>
<g id="XMLID_25_">
</g>
<g id="XMLID_26_">
</g>
<g id="XMLID_27_">
</g>
<g id="XMLID_28_">
</g>
<g id="XMLID_29_">
</g>
</svg>
