<?xml version="1.0" encoding="utf-8"?>
<!-- Generator: Adobe Illustrator 19.0.0, SVG Export Plug-In . SVG Version: 6.00 Build 0)  -->
<svg version="1.1" baseProfile="basic"
	 xmlns="http://www.w3.org/2000/svg" xmlns:xlink="http://www.w3.org/1999/xlink" x="0px" y="0px" width="61px" height="61px"
	 viewBox="0 0 61 61" xml:space="preserve">
<g>
	<path fill="#FF5046" d="M56.7,37.7l-1.1,0.1c-0.3-0.7-0.8-1.3-1.3-1.9l0.5-1c0.2-0.3,0.2-0.7-0.1-0.8L52,32.3
		c-0.2-0.2-0.6,0-0.8,0.3l-0.7,0.9c-0.7-0.2-1.5-0.4-2.2-0.4L48,32c-0.1-0.4-0.4-0.6-0.6-0.5l-3.3,0.7c-0.3,0.1-0.4,0.4-0.4,0.7
		l0.1,1.1c-0.7,0.3-1.3,0.8-1.9,1.3l-1-0.5c-0.3-0.2-0.7-0.2-0.8,0.1l-1.8,2.8c-0.2,0.2,0,0.6,0.3,0.8l0.9,0.7
		c-0.2,0.7-0.4,1.5-0.4,2.2L38,41.6c-0.4,0.1-0.6,0.4-0.5,0.6l0.7,3.3c0.1,0.3,0.4,0.4,0.7,0.4l1.1-0.1c0.3,0.7,0.8,1.3,1.3,1.9
		l-0.5,1c-0.2,0.3-0.2,0.7,0.1,0.8l2.8,1.8c0.2,0.2,0.6,0,0.8-0.3l0.7-0.9c0.7,0.2,1.5,0.4,2.2,0.4l0.3,1.1c0.1,0.4,0.4,0.6,0.6,0.5
		l3.3-0.7c0.3-0.1,0.4-0.4,0.4-0.7l-0.1-1.1c0.7-0.3,1.3-0.8,1.9-1.3l1,0.5c0.3,0.2,0.7,0.2,0.8-0.1l1.8-2.8c0.2-0.2,0-0.6-0.3-0.8
		l-0.9-0.7c0.2-0.7,0.4-1.5,0.4-2.2l1.1-0.3c0.4-0.1,0.6-0.4,0.5-0.6l-0.7-3.3C57.4,37.8,57.1,37.6,56.7,37.7z M48.5,45
		c-1.9,0.4-3.7-0.8-4.1-2.7c-0.4-1.9,0.8-3.7,2.7-4.1c1.9-0.4,3.7,0.8,4.1,2.7C51.5,42.7,50.3,44.6,48.5,45z"/>
	<path fill="#FF5046" d="M35.2,37.8c0.7-1.3,1.3-2.7,1.7-4.1l2.2-0.2c0.7,0,1.3-0.4,1.3-1V26c0-0.5-0.6-1-1.3-1l-2.2-0.2
		c-0.4-1.5-1-2.9-1.7-4.1l1.4-1.7c0.5-0.5,0.6-1.2,0.2-1.6l-4.6-4.6c-0.4-0.4-1.1-0.3-1.6,0.2l-1.7,1.4c-1.3-0.7-2.7-1.3-4.1-1.7
		l-0.2-2.2c0-0.7-0.4-1.3-1-1.3h-6.6c-0.5,0-1,0.6-1,1.3l-0.2,2.2c-1.5,0.4-2.9,1-4.1,1.7L10.1,13c-0.5-0.5-1.2-0.6-1.6-0.2
		l-4.6,4.6c-0.4,0.4-0.3,1.1,0.2,1.6l1.4,1.7c-0.7,1.3-1.3,2.7-1.7,4.1L1.6,25c-0.7,0-1.3,0.4-1.3,1v6.6c0,0.5,0.6,1,1.3,1l2.2,0.2
		c0.4,1.5,1,2.9,1.7,4.1l-1.4,1.7c-0.5,0.5-0.6,1.2-0.2,1.6l4.6,4.6c0.4,0.4,1.1,0.3,1.6-0.2l1.7-1.4c1.3,0.7,2.7,1.3,4.1,1.7
		l0.2,2.2c0,0.7,0.4,1.3,1,1.3h6.6c0.5,0,1-0.6,1-1.3l0.2-2.2c1.5-0.4,2.9-1,4.1-1.7l1.7,1.4c0.5,0.5,1.2,0.6,1.6,0.2l4.6-4.6
		c0.4-0.4,0.3-1.1-0.2-1.6L35.2,37.8z M20.4,35.6c-3.7,0-6.8-3-6.8-6.8c0-3.7,3-6.8,6.8-6.8c3.7,0,6.8,3,6.8,6.8
		C27.1,32.6,24.1,35.6,20.4,35.6z"/>
	<polygon id="XMLID_1_" fill="#FF5046" points="53,16.6 53,8.9 48,8.9 48,16.6 40.3,16.6 40.3,21.6 48,21.6 48,29.2 53,29.2
		53,21.6 60.7,21.6 60.7,16.6 	"/>
</g>
<g id="XMLID_6_">
</g>
<g id="XMLID_7_">
</g>
<g id="XMLID_8_">
</g>
<g id="XMLID_9_">
</g>
<g id="XMLID_10_">
</g>
<g id="XMLID_11_">
</g>
<g id="XMLID_12_">
</g>
<g id="XMLID_13_">
</g>
<g id="XMLID_14_">
</g>
<g id="XMLID_15_">
</g>
<g id="XMLID_16_">
</g>
<g id="XMLID_17_">
</g>
<g id="XMLID_18_">
</g>
<g id="XMLID_19_">
</g>
<g id="XMLID_20_">
</g>
</svg>
