<?xml version="1.0" encoding="utf-8"?>
<!-- Generator: Adobe Illustrator 19.0.0, SVG Export Plug-In . SVG Version: 6.00 Build 0)  -->
<svg version="1.1" baseProfile="basic"
	 xmlns="http://www.w3.org/2000/svg" xmlns:xlink="http://www.w3.org/1999/xlink" x="0px" y="0px" width="61px" height="61px"
	 viewBox="0 0 61 61" xml:space="preserve">
<g>
	<path id="XMLID_5_" fill="#42AF5A" d="M27.2,23.7l0-1.5l-1,0l0-1.2l1,0l0-1l-1,0l0-1.2l1,0l0-5.5l2.9,0c1.3,0,2.1,0.2,2.8,0.7
		c0.8,0.5,1.3,1.3,1.3,2.5c0,1-0.3,1.8-0.9,2.4c-0.7,0.7-1.7,1.1-3.2,1.1l-1.4,0l0,1l5.1,0l0,1.2l-5.1,0l0,1.5h11.9
		c0.5-1.3,0.8-2.8,0.8-4.3c0-6.4-5.2-11.6-11.6-11.6c-6.4,0-11.6,5.2-11.6,11.6c0,1.5,0.3,2.9,0.8,4.2H27.2z"/>
	<path id="XMLID_4_" fill="#42AF5A" d="M32.6,16.5c0-0.7-0.2-1.3-0.8-1.6c-0.5-0.3-1-0.4-1.9-0.4l-1.4,0l0,4.3l1.2,0
		c1.2,0,1.8-0.2,2.3-0.7C32.5,17.6,32.6,17.1,32.6,16.5z"/>
	<path id="XMLID_3_" fill="#42AF5A" d="M34.4,39.4L34.4,39.4c0-3.8,3-6.8,6.7-6.8h7.1v-2.8c0-2.4-2-4.4-4.4-4.4h-4.1H19.7h-4.1
		c-2.4,0-4.4,2-4.4,4.4v19c0,2.4,2,4.4,4.4,4.4h28.2c2.4,0,4.4-2,4.4-4.4V46h-7.1C37.4,46,34.4,43,34.4,39.4z"/>
	<path fill="#42AF5A" d="M49,34.3h-0.9h-7.1c-2.7,0-4.9,2.2-4.9,4.9v0.1c0,2.7,2.2,4.9,4.9,4.9h7.1H49h0.7v-10H49z M40.7,41.2
		c-1,0-1.9-0.8-1.9-1.9s0.8-1.9,1.9-1.9c1,0,1.9,0.8,1.9,1.9S41.7,41.2,40.7,41.2z"/>
</g>
<g id="XMLID_6_">
</g>
<g id="XMLID_7_">
</g>
<g id="XMLID_8_">
</g>
<g id="XMLID_9_">
</g>
<g id="XMLID_10_">
</g>
<g id="XMLID_11_">
</g>
<g id="XMLID_12_">
</g>
<g id="XMLID_13_">
</g>
<g id="XMLID_14_">
</g>
<g id="XMLID_15_">
</g>
<g id="XMLID_16_">
</g>
<g id="XMLID_17_">
</g>
<g id="XMLID_18_">
</g>
<g id="XMLID_19_">
</g>
<g id="XMLID_20_">
</g>
</svg>
