<?xml version="1.0" encoding="utf-8"?>
<!-- Generator: Adobe Illustrator 19.0.0, SVG Export Plug-In . SVG Version: 6.00 Build 0)  -->
<svg version="1.1" baseProfile="basic"
	 xmlns="http://www.w3.org/2000/svg" xmlns:xlink="http://www.w3.org/1999/xlink" x="0px" y="0px" width="61px" height="61px"
	 viewBox="0 0 61 61" xml:space="preserve">
<g>
	<polyline id="XMLID_16_" fill="#ED9C00" points="48,34.7 4.5,34.7 4.5,9.1 48,9.1 48,34.7 	"/>
	<polygon id="XMLID_15_" fill="#EBC300" points="7.4,12 4.5,9.1 4.5,23.5 	"/>
	<polygon id="XMLID_14_" fill="#F9DB5A" points="3.3,16.1 7.4,12 7.4,38.5 	"/>
	<polyline id="XMLID_13_" fill="#EC9A00" points="45.1,12 48,9.1 48,23.5 45.1,12 	"/>
	<polyline id="XMLID_12_" fill="#F3BF00" points="49.2,16.1 45.1,12 45.1,38.5 49.2,16.1 	"/>
	<path id="XMLID_11_" fill="#EBC300" d="M44.6,53.3H7.9c-2.5,0-4.6-2.1-4.6-4.6V16.1h45.9v32.6C49.2,51.2,47.1,53.3,44.6,53.3"/>
	<path id="XMLID_10_" fill="#B16312" d="M39.4,24.2c0,1.2-1,2.2-2.2,2.2c-1.2,0-2.2-1-2.2-2.2c0-1.2,1-2.2,2.2-2.2
		C38.4,22,39.4,23,39.4,24.2"/>
	<circle id="XMLID_9_" fill="#B16312" cx="15.3" cy="24.2" r="2.2"/>
	<path id="XMLID_8_" fill="#FFFFFF" d="M26.2,36.5c-6.8,0-12.3-5.5-12.3-12.3c0-0.8,0.6-1.4,1.4-1.4c0.8,0,1.4,0.6,1.4,1.4
		c0,5.3,4.3,9.5,9.5,9.5c5.3,0,9.5-4.3,9.5-9.5c0-0.8,0.6-1.4,1.4-1.4c0.8,0,1.4,0.6,1.4,1.4C38.5,31,33,36.5,26.2,36.5"/>
	<path id="XMLID_7_" fill="#B2B2B2" d="M49.2,16.1L49.2,16.1v32.6c0,2.2-1.6,4.1-3.6,4.5c2.1-0.5,3.6-2.3,3.6-4.5V16.1"/>
	<path fill="#E5B100" d="M35.6,25.9l-8.2,7.8C31.6,33.1,34.9,30,35.6,25.9 M49.2,16.1L49.2,16.1H46l-7.1,6.7
		c0.3,0.4,0.5,0.9,0.5,1.4c0,0.8-0.4,1.5-1,1.9c-0.9,5.9-6,10.5-12.2,10.5c-0.6,0-1.1,0-1.7-0.1L6.9,53.1c0.3,0.1,0.7,0.1,1,0.1
		h36.6c0.3,0,0.7,0,1-0.1c2.1-0.5,3.6-2.3,3.6-4.5V16.1"/>
	<path id="XMLID_4_" fill="#99450D" d="M38.9,22.8l-0.6,0.6c0.2,0.2,0.3,0.5,0.3,0.8c0,0.6,0,1.2-0.1,1.9c0.6-0.4,1-1.1,1-1.9
		C39.4,23.7,39.2,23.2,38.9,22.8"/>
	<path id="XMLID_3_" fill="#FFFFFF" d="M38.3,23.4l-2.7,2.5c-0.7,4.1-4,7.2-8.2,7.8l-2.9,2.7c0.6,0.1,1.1,0.1,1.7,0.1
		c6.2,0,11.3-4.5,12.2-10.5c0.1-0.6,0.1-1.2,0.1-1.9C38.5,23.9,38.4,23.6,38.3,23.4"/>
	<circle id="XMLID_2_" fill="#00D094" cx="49.2" cy="16.3" r="8.5"/>
	<polygon id="XMLID_1_" fill="#FFFFFF" points="55,13.6 52.6,11.7 48,17.3 45.1,14.9 43.1,17.3 48.3,21.6 	"/>
</g>
<g id="XMLID_17_">
</g>
<g id="XMLID_18_">
</g>
<g id="XMLID_19_">
</g>
<g id="XMLID_20_">
</g>
<g id="XMLID_21_">
</g>
<g id="XMLID_22_">
</g>
<g id="XMLID_23_">
</g>
<g id="XMLID_24_">
</g>
<g id="XMLID_25_">
</g>
<g id="XMLID_26_">
</g>
<g id="XMLID_27_">
</g>
<g id="XMLID_28_">
</g>
<g id="XMLID_29_">
</g>
<g id="XMLID_30_">
</g>
<g id="XMLID_31_">
</g>
</svg>
