<?xml version="1.0" encoding="utf-8"?>
<!-- Generator: Adobe Illustrator 19.0.0, SVG Export Plug-In . SVG Version: 6.00 Build 0)  -->
<svg version="1.1" baseProfile="basic"
	 xmlns="http://www.w3.org/2000/svg" xmlns:xlink="http://www.w3.org/1999/xlink" x="0px" y="0px" width="61px" height="61px"
	 viewBox="0 0 61 61" xml:space="preserve">
<g>
	<path fill="#F7CA0C" d="M30.9,37.2h-0.3c-7.6,0-13.8-6.2-13.8-13.8V9.8h28v13.6C44.8,31,38.6,37.2,30.9,37.2"/>
	<polyline fill="#F7CA0C" points="46,9.8 15.5,9.8 15.5,7 46,7 46,9.8 	"/>
	<polyline fill="#F7CA0C" points="33.9,41.4 27.7,41.4 27.7,36.3 33.9,36.3 33.9,41.4 	"/>
	<path fill="#F7CA0C" d="M33.6,39.4H28c-0.5,0-0.9-0.4-0.9-0.9v0c0-0.5,0.4-0.9,0.9-0.9h5.6c0.5,0,0.9,0.4,0.9,0.9v0
		C34.5,39,34.1,39.4,33.6,39.4"/>
	<path fill="#F7CA0C" d="M35.7,40.2h-9.7c-0.7,0-1.2,0.5-1.2,1.2v0h12.1v0C36.9,40.8,36.3,40.2,35.7,40.2"/>
	<path fill="#FBE512" d="M29.9,40.2h-1c-0.7,0-1.2,0.5-1.2,1.2v0h1v0C28.7,40.8,29.3,40.2,29.9,40.2"/>
	<path fill="#F7CA0C" d="M17.8,14.1v12.2c-3-1.1-5.2-3.9-5.2-7.3v-4.9H17.8 M20.5,11.5H10v7.6c0,5.7,4.6,10.4,10.4,10.4h0.1V11.5"/>
	<path fill="#F7CA0C" d="M43.8,14.1h5.2v4.9c0,3.4-2.2,6.2-5.2,7.3V14.1 M41.1,11.5v17.9h0.1c5.7,0,10.4-4.6,10.4-10.4v-7.6H41.1"/>
	<path fill="#F3AF06" d="M30.6,38.5h-2.1v0c0,0.5,0.4,0.9,0.9,0.9h0.3h0.9V38.5"/>
	<path fill="#7F7F7F" d="M27.1,38.5c0,0.4,0.3,0.8,0.7,0.9l0,0C27.3,39.2,27.1,38.9,27.1,38.5"/>
	<path fill="#F3AF06" d="M27.7,39.4L27.7,39.4c0.1,0,0.2,0,0.2,0C27.9,39.4,27.8,39.4,27.7,39.4"/>
	<path fill="#F3AF06" d="M28,38.5h-1v0l0,0c0,0.4,0.3,0.8,0.7,0.9c0.1,0,0.2,0,0.2,0c0,0,0,0,0,0h1.2H29C28.4,39.4,28,39,28,38.5
		L28,38.5"/>
	<path fill="#7F7F7F" d="M34.5,38.5C34.5,38.5,34.5,38.5,34.5,38.5C34.5,38.5,34.5,38.5,34.5,38.5C34.5,38.5,34.5,38.5,34.5,38.5
		C34.5,38.5,34.5,38.5,34.5,38.5c0,0.5-0.3,0.8-0.7,0.9l0,0C34.3,39.2,34.5,38.9,34.5,38.5"/>
	<path fill="#F3AF06" d="M34.5,38.5c0,0.1,0,0.2-0.1,0.3c-0.1,0.3-0.3,0.4-0.6,0.5v0C34.2,39.3,34.5,38.9,34.5,38.5 M34.5,38.5
		C34.5,38.5,34.5,38.5,34.5,38.5C34.5,38.5,34.5,38.5,34.5,38.5 M34.5,38.5C34.5,38.5,34.5,38.5,34.5,38.5
		C34.5,38.5,34.5,38.5,34.5,38.5L34.5,38.5"/>
	<path fill="#FBE512" d="M19.1,10.1v1.4h1.4v17.9c1.5,3.1,4.2,5.6,7.4,6.9h1c-3.8-2.6-6.3-7.1-6.3-12.1V10.4L19.1,10.1"/>
	<path fill="#FBE512" d="M28.8,36.3h-1c0.6,0.2,1.2,0.4,1.9,0.6l0,0C29.4,36.7,29.1,36.5,28.8,36.3"/>
	<path fill="#FBE512" d="M20.5,11.5h-1.4v11.9c0,2.1,0.5,4.2,1.4,6V11.5"/>
	<polyline fill="#FBE512" points="21.8,7 18.4,7 18.4,9.8 21.8,9.8 21.8,7 	"/>
	<path fill="#FBE512" d="M29.4,37.5H29c-0.5,0-0.9,0.4-0.9,0.9v0h0.5v0C28.5,37.9,28.9,37.5,29.4,37.5"/>
	<path fill="#F9D709" d="M28.5,38.5H28v0c0,0.5,0.4,0.9,0.9,0.9h0.2h0.2C28.9,39.4,28.5,39,28.5,38.5L28.5,38.5"/>
	<polyline fill="#FBE512" points="29.7,36.9 29.7,36.9 29.7,36.9 29.7,36.9 29.2,36.9 29.2,37.5 29.7,37.5 29.7,36.9 	"/>
	<polyline fill="#FBE512" points="29.7,39.4 29.2,39.4 29.2,40.2 29.7,40.2 29.7,39.4 	"/>
	<polyline fill="#F9D709" points="29.7,39.4 29.4,39.4 29.4,39.4 29.2,39.4 29.7,39.4 	"/>
	<path fill="#F3AF06" d="M19.1,9.8h-2.3l2.3,0.2V9.8 M30.6,9.8h-8.1v0.6l8.1,0.8V9.8"/>
	<polyline fill="#F3AF06" points="30.6,9.8 21.8,9.8 18.4,9.8 16.8,9.8 19.1,9.8 22.5,9.8 30.6,9.8 	"/>
	<polyline fill="#F9D809" points="22.5,9.8 19.1,9.8 19.1,10.1 22.5,10.4 22.5,9.8 	"/>
	<path fill="#7F7F7F" d="M34.5,38.4C34.5,38.4,34.5,38.4,34.5,38.4L34.5,38.4L34.5,38.4L34.5,38.4L34.5,38.4L34.5,38.4
		C34.5,38.4,34.5,38.4,34.5,38.4 M34.5,38.4C34.5,38.4,34.5,38.4,34.5,38.4C34.5,38.4,34.5,38.4,34.5,38.4 M34.5,38.4
		C34.5,38.4,34.5,38.4,34.5,38.4C34.5,38.4,34.5,38.4,34.5,38.4 M34.5,38.4C34.5,38.4,34.5,38.4,34.5,38.4
		C34.5,38.4,34.5,38.4,34.5,38.4 M34.5,38.4L34.5,38.4L34.5,38.4 M34.5,38.4L34.5,38.4L34.5,38.4 M44.8,23.4
		C44.8,23.4,44.8,23.4,44.8,23.4C44.8,23.4,44.8,23.4,44.8,23.4 M51.6,19.8C51.6,19.8,51.6,19.8,51.6,19.8
		C51.6,19.8,51.6,19.8,51.6,19.8 M51.6,19.7C51.6,19.7,51.6,19.7,51.6,19.7L51.6,19.7 M51.6,19.6C51.6,19.6,51.6,19.6,51.6,19.6
		C51.6,19.6,51.6,19.6,51.6,19.6 M51.6,19.6C51.6,19.6,51.6,19.6,51.6,19.6C51.6,19.6,51.6,19.6,51.6,19.6 M51.6,19.5
		C51.6,19.5,51.6,19.5,51.6,19.5C51.6,19.5,51.6,19.5,51.6,19.5 M51.6,19.5C51.6,19.5,51.6,19.5,51.6,19.5
		C51.6,19.5,51.6,19.5,51.6,19.5 M51.6,19.4C51.6,19.4,51.6,19.4,51.6,19.4C51.6,19.4,51.6,19.4,51.6,19.4 M48.9,19.4
		c-0.1,2.9-1.9,5.5-4.4,6.6c0,0,0,0,0,0C47,24.8,48.8,22.3,48.9,19.4 M48.9,19.4C48.9,19.4,48.9,19.4,48.9,19.4
		C48.9,19.4,48.9,19.4,48.9,19.4 M51.6,19.3C51.6,19.3,51.6,19.4,51.6,19.3C51.6,19.4,51.6,19.3,51.6,19.3 M48.9,19.3
		C48.9,19.3,48.9,19.3,48.9,19.3C48.9,19.3,48.9,19.3,48.9,19.3 M51.6,19.3C51.6,19.3,51.6,19.3,51.6,19.3
		C51.6,19.3,51.6,19.3,51.6,19.3 M48.9,19.3C48.9,19.3,48.9,19.3,48.9,19.3C48.9,19.3,48.9,19.3,48.9,19.3 M48.9,19.2
		C48.9,19.3,48.9,19.3,48.9,19.2C48.9,19.3,48.9,19.3,48.9,19.2 M51.6,19.2C51.6,19.2,51.6,19.2,51.6,19.2
		C51.6,19.2,51.6,19.2,51.6,19.2 M48.9,19.2C48.9,19.2,48.9,19.2,48.9,19.2C48.9,19.2,48.9,19.2,48.9,19.2 M48.9,19.2
		C48.9,19.2,48.9,19.2,48.9,19.2C48.9,19.2,48.9,19.2,48.9,19.2 M51.6,19.2C51.6,19.2,51.6,19.2,51.6,19.2
		C51.6,19.2,51.6,19.2,51.6,19.2 M48.9,19.1C48.9,19.1,48.9,19.1,48.9,19.1C48.9,19.1,48.9,19.1,48.9,19.1 M51.6,19.1
		C51.6,19.1,51.6,19.1,51.6,19.1C51.6,19.1,51.6,19.1,51.6,19.1 M48.9,19.1C48.9,19.1,48.9,19.1,48.9,19.1
		C48.9,19.1,48.9,19.1,48.9,19.1"/>
	<path fill="#F3AF06" d="M44.8,14.1h-1v12.2c0.3-0.1,0.5-0.2,0.8-0.3c0,0,0,0,0,0c0,0,0,0,0,0c0.2-0.8,0.3-1.7,0.3-2.6c0,0,0,0,0,0
		l0,0V14.1 M30.6,11.3v3.3h2.2v14.9h-2.2v6.8h3.3v0.7l0,0v0c4.3-0.9,7.9-3.9,9.6-7.8c-0.7,0.2-1.5,0.3-2.3,0.3h-0.1V12.4L30.6,11.3"
		/>
	<polyline fill="#F3AF06" points="46,7 30.6,7 30.6,9.8 44.8,9.8 46,9.8 46,7 	"/>
	<path fill="#F3AF06" d="M33.9,36.3h-3.3v1.2h3c0.1,0,0.2,0,0.3,0v-0.6V36.3"/>
	<path fill="#F3AF06" d="M33.6,37.5h-3v1h3.9v0c0,0,0,0,0,0c0,0,0,0,0,0c0,0,0,0,0,0c0,0,0,0,0,0c0,0,0,0,0,0c0,0,0,0,0,0
		c0,0,0,0,0,0c0,0,0,0,0,0l0,0c0,0,0,0,0,0l0,0c0-0.4-0.3-0.7-0.7-0.8v0l0,0C33.8,37.5,33.7,37.5,33.6,37.5"/>
	<path fill="#F3AF06" d="M51.6,11.5h-5.8v2.6h3.2v4.9l0,0l0,0c0,0,0,0,0,0c0,0,0,0,0,0c0,0,0,0,0,0c0,0,0,0,0,0c0,0,0,0,0,0
		c0,0,0,0,0,0c0,0,0,0,0,0c0,0,0,0,0,0c0,0,0,0,0,0c0,0,0,0,0,0c0,0,0,0,0,0c0,0,0,0,0,0c0,0,0,0,0,0c0,0,0,0,0,0c0,0,0,0,0,0
		c0,0,0,0,0,0c0,0,0,0,0,0c-0.1,2.9-1.9,5.5-4.4,6.7c-0.2,0.1-0.5,0.2-0.8,0.3V14.1h1v-2.6v1.3l-3.6-0.4v17.1h0.1
		c0.8,0,1.6-0.1,2.3-0.3c0,0,0,0,0,0c4.4-1,7.7-4.8,8-9.4c0,0,0,0,0,0c0,0,0,0,0-0.1c0,0,0,0,0,0c0,0,0-0.1,0-0.1c0,0,0,0,0,0
		c0,0,0,0,0-0.1c0,0,0,0,0,0c0,0,0,0,0-0.1c0,0,0,0,0,0c0,0,0,0,0-0.1c0,0,0,0,0,0c0,0,0,0,0-0.1c0,0,0,0,0,0c0,0,0,0,0-0.1
		c0,0,0,0,0,0c0,0,0,0,0-0.1c0,0,0,0,0,0c0,0,0,0,0-0.1c0,0,0,0,0,0c0,0,0,0,0-0.1c0,0,0,0,0,0c0,0,0,0,0-0.1c0,0,0,0,0,0
		c0,0,0,0,0-0.1V11.5"/>
	<path fill="#F3AF06" d="M33.9,39.4c-0.1,0-0.2,0-0.2,0c0,0,0,0,0,0h-3v0.8h3.3V39.4"/>
	<path fill="#F3AF06" d="M35.7,40.2h-1.8h-3.3v1.2h0h6.2v0C36.9,40.8,36.3,40.2,35.7,40.2"/>
	<path fill="#3F3F3F" d="M34.5,38.5C34.5,38.5,34.5,38.5,34.5,38.5C34.5,38.5,34.5,38.5,34.5,38.5 M34.5,38.5
		C34.5,38.5,34.5,38.5,34.5,38.5C34.5,38.5,34.5,38.5,34.5,38.5"/>
	<path fill="#ED8703" d="M33.9,39.4c-0.1,0-0.2,0-0.2,0C33.7,39.4,33.8,39.4,33.9,39.4L33.9,39.4"/>
	<path fill="#ED8703" d="M34.5,38.5h-3.9v1h3c0,0,0,0,0,0c0.1,0,0.2,0,0.2,0l0,0v0c0.3-0.1,0.5-0.3,0.6-0.5
		C34.5,38.7,34.5,38.6,34.5,38.5C34.5,38.5,34.5,38.5,34.5,38.5C34.5,38.5,34.5,38.5,34.5,38.5C34.5,38.5,34.5,38.5,34.5,38.5
		C34.5,38.5,34.5,38.5,34.5,38.5L34.5,38.5"/>
	<polyline fill="#ED8703" points="44.8,9.8 30.6,9.8 30.6,11.3 41.1,12.4 41.1,11.5 44.8,11.5 44.8,9.8 	"/>
	<polyline fill="#ED8703" points="44.8,11.5 44.8,11.5 41.1,11.5 41.1,12.4 44.8,12.7 44.8,11.5 	"/>
	<polyline fill="#ED8703" points="45.7,11.5 44.8,11.5 44.8,14.1 45.7,14.1 45.7,11.5 	"/>
	<polyline fill="#FBE512" points="30.6,14.5 30,14.5 25.3,19.2 27.1,21.1 29.6,18.6 29.6,29.4 30.6,29.4 30.6,14.5 	"/>
	<polyline fill="#F9D709" points="32.8,14.5 30.6,14.5 30.6,29.4 32.8,29.4 32.8,14.5 	"/>
	<polyline fill="#435B69" points="45,53.9 16.6,53.9 16.6,43.7 45,43.7 45,53.9 	"/>
	<polyline fill="#435B69" points="43.7,43.8 17.9,43.8 17.9,41.4 43.7,41.4 43.7,43.8 	"/>
	<polyline fill="#2F4049" points="45,43.7 43.7,43.7 43.7,43.8 30.6,43.8 30.6,53.9 45,53.9 45,43.7 	"/>
	<polyline fill="#2F4049" points="43.7,41.4 36.9,41.4 30.6,41.4 30.6,43.8 43.7,43.8 43.7,43.7 43.7,41.4 	"/>
</g>
<g id="XMLID_1_">
</g>
<g id="XMLID_2_">
</g>
<g id="XMLID_3_">
</g>
<g id="XMLID_4_">
</g>
<g id="XMLID_5_">
</g>
<g id="XMLID_6_">
</g>
<g id="XMLID_7_">
</g>
<g id="XMLID_8_">
</g>
<g id="XMLID_9_">
</g>
<g id="XMLID_10_">
</g>
<g id="XMLID_11_">
</g>
<g id="XMLID_12_">
</g>
<g id="XMLID_13_">
</g>
<g id="XMLID_14_">
</g>
<g id="XMLID_15_">
</g>
</svg>
