<svg xmlns="http://www.w3.org/2000/svg" viewBox="16705 5745 36 36.197"><defs><style>.a{fill:#293e4c;}.b{fill:#5cd5ff;}.c{opacity:0.1;}.d{fill:#4494c1;}.e{fill:#ff5955;}.f{fill:#fff;}</style></defs><g transform="translate(16705 5745)"><path class="a" d="M36,39.95a1.975,1.975,0,0,1-1.976,1.976H1.976A1.977,1.977,0,0,1,0,39.95H0a1.976,1.976,0,0,1,1.976-1.976H34.025A1.973,1.973,0,0,1,36,39.95Z" transform="translate(0 -6.904)"/><path class="b" d="M28.892,41.4a1.443,1.443,0,0,1-1.443,1.444H12.613a1.442,1.442,0,0,1-1.44-1.444V37.98a1.441,1.441,0,0,1,1.44-1.442H27.449a1.442,1.442,0,0,1,1.443,1.442V41.4Z" transform="translate(-2.031 -6.643)"/><path class="b" d="M23.01,31.407a1.443,1.443,0,0,1,1.442,1.442v6.182a1.443,1.443,0,0,1-1.442,1.442H19.592a1.444,1.444,0,0,1-1.443-1.442V32.849a1.444,1.444,0,0,1,1.443-1.442Z" transform="translate(-3.3 -5.71)"/><rect class="c" width="6.303" height="3.092" transform="translate(14.848 25.697)"/><path class="d" d="M35.984,24.082a3.373,3.373,0,0,1-3.372,3.372H3.418A3.373,3.373,0,0,1,.044,24.082V3.374A3.374,3.374,0,0,1,3.418,0H32.61a3.373,3.373,0,0,1,3.373,3.374V24.082Z" transform="translate(-0.008)"/><path class="a" d="M34.147,25.675a3.533,3.533,0,0,1-3.534,3.53H5.811a3.531,3.531,0,0,1-3.53-3.53h0a3.531,3.531,0,0,1,3.53-3.53h24.8a3.532,3.532,0,0,1,3.534,3.53Z" transform="translate(-0.415 -4.026)"/><path class="a" d="M34.147,16.039a3.531,3.531,0,0,1-3.534,3.53H5.811a3.531,3.531,0,0,1-3.53-3.53h0a3.53,3.53,0,0,1,3.53-3.53h24.8a3.53,3.53,0,0,1,3.534,3.53Z" transform="translate(-0.415 -2.274)"/><path class="a" d="M34.147,6.4a3.533,3.533,0,0,1-3.534,3.53H5.811A3.532,3.532,0,0,1,2.281,6.4h0a3.533,3.533,0,0,1,3.53-3.531h24.8A3.536,3.536,0,0,1,34.147,6.4Z" transform="translate(-0.415 -0.521)"/><path class="e" d="M6.262,5.172A1.646,1.646,0,1,1,4.619,6.818,1.645,1.645,0,0,1,6.262,5.172Z" transform="translate(-0.84 -0.94)"/><path class="b" d="M6.262,14.88a1.646,1.646,0,1,1-1.643,1.647A1.645,1.645,0,0,1,6.262,14.88Z" transform="translate(-0.84 -2.705)"/><path class="b" d="M6.262,24.5a1.645,1.645,0,1,1-1.643,1.645A1.643,1.643,0,0,1,6.262,24.5Z" transform="translate(-0.84 -4.454)"/><g transform="translate(9.713 4.29)"><path class="f" d="M32.451,5.808c0,.313-.182.565-.4.565H12.274c-.22,0-.4-.253-.4-.565h0c0-.313.183-.565.4-.565H32.047c.222,0,.4.253.4.565Z" transform="translate(-11.871 -5.243)"/><path class="f" d="M32.451,8.309c0,.312-.182.565-.4.565H12.274c-.22,0-.4-.254-.4-.565h0c0-.312.183-.565.4-.565H32.047c.222,0,.4.254.4.565Z" transform="translate(-11.871 -5.698)"/></g><g transform="translate(9.713 12.175)"><path class="f" d="M32.451,15.446c0,.313-.182.565-.4.565H12.274c-.22,0-.4-.254-.4-.565h0c0-.313.183-.565.4-.565H32.047c.222,0,.4.252.4.565Z" transform="translate(-11.871 -14.881)"/><path class="f" d="M32.451,17.949c0,.311-.182.563-.4.563H12.274c-.22,0-.4-.253-.4-.563h0c0-.314.183-.569.4-.569H32.047c.222,0,.4.254.4.569Z" transform="translate(-11.871 -15.335)"/></g><g transform="translate(9.713 20.059)"><path class="f" d="M32.451,25.082c0,.313-.182.566-.4.566H12.274c-.22,0-.4-.254-.4-.566h0c0-.313.183-.565.4-.565H32.047c.222,0,.4.255.4.565Z" transform="translate(-11.871 -24.517)"/><path class="f" d="M32.451,27.586c0,.31-.182.565-.4.565H12.274c-.22,0-.4-.254-.4-.565h0c0-.313.183-.568.4-.568H32.047c.222,0,.4.255.4.568Z" transform="translate(-11.871 -24.972)"/></g><path class="c" d="M36.734,24.082a3.373,3.373,0,0,1-3.372,3.372H4.168L33.36,0a3.373,3.373,0,0,1,3.373,3.374V24.082Z" transform="translate(-0.758)"/></g></svg>