<svg xmlns="http://www.w3.org/2000/svg" viewBox="16707 3997 36 36"><defs><style>.a{fill:#079dfc;}.b{fill:none;}.c{fill:#fff;}</style></defs><g transform="translate(16268 3416)"><path class="a" d="M18,0A18,18,0,1,1,0,18,18,18,0,0,1,18,0Z" transform="translate(439 581)"/><g transform="translate(445 588)"><rect class="b" width="24" height="24"/><path class="c" d="M19.081,22V19.213H13.853V18.075L18.57,11h1.88v7.008H22v1.2H20.45V22Zm0-9.73-3.859,5.738h3.859Z"/><path class="c" d="M8.781,21.809,5.572,14.1H6.865l2.57,6.322L11.99,14.1H13.3l-3.209,7.711Z"/><path class="c" d="M2,12.961V2H4.555V12.961Z"/><path class="c" d="M6.6,13V2h5.72c2.659,0,4.108,1.616,4.108,3.546,0,1.912-1.468,3.546-4.108,3.546H9.2V13Zm7.17-7.454c0-.924-.77-1.484-1.8-1.484H9.2V7.03h2.771C13,7.029,13.77,6.452,13.77,5.546Z"/></g></g></svg>