<svg xmlns="http://www.w3.org/2000/svg" width="24" height="24" viewBox="0 0 24 24"><title>История</title><rect width="24" height="24" fill="none"/><path d="M12.485,3A9.414,9.414,0,0,0,6.412,5.214L5.164,4.157,4.211,9.41l5.02-1.8L7.964,6.531A7.5,7.5,0,1,1,5,12.5c0-.2.015-.4.032-.594,0-.016.005-.031.005-.046V11.85l-.062-.332a.995.995,0,0,0-1.892.038l-.028,0S3,12.289,3,12.5A9.486,9.486,0,1,0,12.485,3Z" fill="#515151"/><path d="M12.07,13.408l3.2,1.372a.556.556,0,1,0,.431-1.026l-2.861-1.226V7.567a.556.556,0,0,0-1.111,0v5.27c0,.01.005.018.005.027A.551.551,0,0,0,12.07,13.408Z" fill="#515151"/></svg>