<svg xmlns="http://www.w3.org/2000/svg" width="24" height="24" viewBox="0 0 24 24"><title>Домены и услуги БЕЛЫЙ</title><rect width="24" height="24" fill="none"/><path d="M12,1A11,11,0,1,0,23,12,11,11,0,0,0,12,1ZM2.57,12.673H6.419a19.552,19.552,0,0,0,.37,3.252H3.4A9.4,9.4,0,0,1,2.57,12.673Zm10.2-6.257V2.856c1.024.439,1.912,1.74,2.515,3.56ZM15.7,7.95a19.016,19.016,0,0,1,.39,3.189h-3.32V7.951ZM11.232,2.856v3.56H8.717C9.32,4.6,10.209,3.3,11.232,2.856Zm0,5.094v3.19H7.917a19.02,19.02,0,0,1,.389-3.189ZM6.425,11.14H2.584a9.413,9.413,0,0,1,.87-3.189h3.36A19.536,19.536,0,0,0,6.425,11.14Zm1.484,1.533h3.323v3.252H8.28A19.3,19.3,0,0,1,7.909,12.673Zm3.323,4.786v3.685c-1.047-.45-1.953-1.8-2.555-3.685Zm1.535,3.685V17.459h2.554C14.718,19.343,13.814,20.694,12.767,21.144Zm0-5.218V12.673h3.321a19.233,19.233,0,0,1-.369,3.252Zm4.814-3.252H21.43a9.415,9.415,0,0,1-.826,3.252H17.212a19.79,19.79,0,0,0,.369-3.253Zm-.007-1.533a19.78,19.78,0,0,0-.389-3.189h3.36a9.378,9.378,0,0,1,.868,3.189ZM19.63,6.416H16.79a11.03,11.03,0,0,0-1.622-3.327A9.471,9.471,0,0,1,19.63,6.416ZM8.833,3.089A11.039,11.039,0,0,0,7.21,6.416H4.37A9.466,9.466,0,0,1,8.833,3.089ZM4.282,17.459h2.89A11.209,11.209,0,0,0,8.831,20.91,9.469,9.469,0,0,1,4.282,17.459Zm10.886,3.452a11.161,11.161,0,0,0,1.66-3.451h2.891a9.477,9.477,0,0,1-4.552,3.451Z" fill="#fff"/></svg>