<svg xmlns="http://www.w3.org/2000/svg" width="24" height="24" viewBox="0 0 24 24"><title>Привязка Счёт</title><rect width="24" height="24" fill="none"/><path d="M21.84,0A2.15,2.15,0,0,1,24,2.16V21.89A2.15,2.15,0,0,1,21.84,24H2.16A2.22,2.22,0,0,1,0,21.84V6.77L6.67,0Z" fill="#00b0ca"/><polygon points="0 6.77 5.95 6.19 0 12.05 0 6.77" fill="#393938" opacity="0.2" style="isolation:isolate"/><path d="M4.56,6.77H0L6.67,0V4.61A2.21,2.21,0,0,1,4.56,6.77Z" fill="#006b7b"/><path d="M14.69,14.11H10.85v1.34h5.66a.38.38,0,0,1,.38.38v1.44a.38.38,0,0,1-.38.38H10.85v2.16a.38.38,0,0,1-.38.38H8.64a.38.38,0,0,1-.38-.38V17.66H5.76a.38.38,0,0,1-.38-.38V15.84a.38.38,0,0,1,.38-.38H8.3V14.11H5.76a.38.38,0,0,1-.38-.38V12a.38.38,0,0,1,.38-.38H8.3V4.61a.38.38,0,0,1,.38-.38h6a4.76,4.76,0,0,1,5.09,4.9A4.88,4.88,0,0,1,14.69,14.11Zm-.24-7.44h-3.6v5h3.6a2.44,2.44,0,0,0,2.64-2.54A2.41,2.41,0,0,0,14.45,6.67Z" fill="#fff"/></svg>