<svg xmlns="http://www.w3.org/2000/svg" width="24" height="24" viewBox="0 0 24 24"><title>Пополнить баланс БЕЛЫЙ</title><rect width="24" height="24" fill="none"/><path d="M6,8.3c2.8,0,5-.8,5-1.8,0-.5-.5-.9-1.3-1.2A9.53,9.53,0,0,1,6,5.9a9.53,9.53,0,0,1-3.7-.6C1.5,5.6,1,6,1,6.5,1,7.5,3.2,8.3,6,8.3Z" fill="#fff"/><ellipse cx="6" cy="2.8" rx="5" ry="1.8" fill="#fff"/><path d="M16,8a8,8,0,1,0,8,8A8,8,0,0,0,16,8Zm4,9H17v3H15V17H12V15h3V12h2v3h3Z" fill="#fff"/><path d="M9.55,9A11.8,11.8,0,0,1,6,9.6a9.37,9.37,0,0,1-3.7-.7c-.8.4-1.3.8-1.3,1.3,0,1,2.2,1.8,5,1.8a13.47,13.47,0,0,0,1.44-.08A9.51,9.51,0,0,1,9.55,9Z" fill="#fff"/></svg>