<svg xmlns="http://www.w3.org/2000/svg" viewBox="4723 5033 48 48"><defs><style>.a{fill:#c4c4c4;}</style></defs><g transform="translate(4723 5033)"><path class="a" d="M24,0A24,24,0,1,0,48,24,24,24,0,0,0,24,0Zm0,45.857A21.857,21.857,0,1,1,45.857,24,21.857,21.857,0,0,1,24,45.857Z"/><path class="a" d="M16460.674-4886.656a19.7,19.7,0,0,1-19.676-19.671,19.7,19.7,0,0,1,19.676-19.671,19.693,19.693,0,0,1,19.67,19.671A19.693,19.693,0,0,1,16460.674-4886.656Zm-13.885-23.746v8.037h27.963v-8.036h-27.963Z" transform="translate(-16436.672 4930.328)"/></g></svg>