<svg xmlns="http://www.w3.org/2000/svg" width="24" height="24" viewBox="0 0 24 24"><title>Клиент БЕЛЫЙ копия</title><rect width="24" height="24" fill="none"/><path d="M20.623,20.138s-1.05-3.007-1.306-3.543a1.733,1.733,0,0,0-.931-.933l-.078-.035-.014-.006-.09-.04c-.679-.3-2.846-1.255-3.731-1.644h0l-.326-.143c0-.013,0-.025,0-.037v-.888a5.429,5.429,0,0,0,1.2-2.535.341.341,0,0,0,.052.014.485.485,0,0,0,.519-.448l.1-1.355a.483.483,0,0,0-.281-.476V6.289A3.568,3.568,0,0,0,11.952,3,3.567,3.567,0,0,0,8.16,6.289V8.07a.485.485,0,0,0-.282.476l.1,1.355a.486.486,0,0,0,.52.448.308.308,0,0,0,.051-.014,5.6,5.6,0,0,0,1,2.291v1.132c0,.012,0,.024,0,.037l-.325.143h0c-.949.417-3.376,1.485-3.854,1.7l-.058.026a1.733,1.733,0,0,0-.932.933c-.256.535-1.3,3.543-1.3,3.543S2.752,21,3.428,21H20.273C20.949,21,20.623,20.138,20.623,20.138Z" fill="#fff"/></svg>