<svg xmlns="http://www.w3.org/2000/svg" width="24" height="24" viewBox="0 0 24 24"><title>Настройки БЕЛЫЙ</title><rect width="24" height="24" fill="none"/><path d="M19.875,9.75H18.358a6.676,6.676,0,0,0-.27-.654l1.071-1.074a1.122,1.122,0,0,0,0-1.587h0L17.566,4.84a1.122,1.122,0,0,0-1.587,0l0,0L14.9,5.913a6.66,6.66,0,0,0-.653-.27V4.125A1.124,1.124,0,0,0,13.127,3H10.875A1.124,1.124,0,0,0,9.75,4.123V5.642a6.676,6.676,0,0,0-.654.27L8.022,4.84a1.122,1.122,0,0,0-1.587,0h0L4.84,6.433a1.122,1.122,0,0,0,0,1.587l0,0L5.912,9.1a6.964,6.964,0,0,0-.27.654H4.125A1.124,1.124,0,0,0,3,10.873v2.252A1.125,1.125,0,0,0,4.125,14.25H5.641a6.964,6.964,0,0,0,.27.654L4.84,15.978a1.122,1.122,0,0,0,0,1.587h0l1.593,1.593a1.122,1.122,0,0,0,1.587,0l0,0,1.072-1.073a6.725,6.725,0,0,0,.656.27v1.518A1.125,1.125,0,0,0,10.875,21h2.25a1.125,1.125,0,0,0,1.125-1.125V18.358a6.8,6.8,0,0,0,.654-.27l1.072,1.073a1.122,1.122,0,0,0,1.587,0l0,0,1.592-1.592a1.122,1.122,0,0,0,0-1.587l0,0-1.072-1.073a6.676,6.676,0,0,0,.27-.654h1.519A1.125,1.125,0,0,0,21,13.128V10.875A1.124,1.124,0,0,0,19.877,9.75ZM12,15.375A3.375,3.375,0,1,1,15.375,12,3.375,3.375,0,0,1,12,15.375Z" fill="#fff"/></svg>