<svg xmlns="http://www.w3.org/2000/svg" viewBox="16704 5844 36 39.43"><defs><style>.a{fill:#06b57e;}.b{fill:#fff;}.c{fill:#010000;opacity:0.1;}</style></defs><g transform="translate(16704 5843.999)"><g transform="translate(0 0.001)"><path class="a" d="M36,14.319A22.774,22.774,0,0,0,34.09,4.6c-.691.052-1.4.083-2.116.083C26.074,4.679,20.9,2.809,18,0,15.1,2.809,9.929,4.678,4.025,4.678c-.718,0-1.423-.031-2.116-.083A22.778,22.778,0,0,0,0,14.319C0,27.665,10.943,39.431,18,39.431,25.552,39.431,36,27.665,36,14.319Z" transform="translate(0 -0.001)"/><g transform="translate(10.783 8.211)"><path class="b" d="M27.614,32.959a1.17,1.17,0,0,1-1.17,1.17h-12.1a1.169,1.169,0,0,1-1.168-1.17V22.619a1.17,1.17,0,0,1,1.168-1.169h12.1a1.17,1.17,0,0,1,1.17,1.169Z" transform="translate(-13.179 -12.112)"/><path class="b" d="M20.785,31.346a5.47,5.47,0,0,1-5.462-5.46V15.5a5.462,5.462,0,0,1,10.924,0V25.886A5.467,5.467,0,0,1,20.785,31.346Zm0-18.967a3.126,3.126,0,0,0-3.123,3.12V25.886a3.122,3.122,0,0,0,6.244,0V15.5A3.125,3.125,0,0,0,20.785,12.379Z" transform="translate(-13.569 -10.037)"/></g><g transform="translate(16.19 20.569)"><path class="a" d="M23.41,26.951a1.811,1.811,0,1,1-1.813-1.81A1.814,1.814,0,0,1,23.41,26.951Z" transform="translate(-19.788 -25.141)"/><path class="a" d="M22.7,31.653a.9.9,0,0,1-.907.906h0a.905.905,0,0,1-.9-.906V26.6a.906.906,0,0,1,.9-.907h0a.9.9,0,0,1,.907.907v5.056Z" transform="translate(-19.988 -25.241)"/></g><path class="c" d="M38.09,4.606c-.693.052-1.4.083-2.114.083C30.1,4.689,24.956,2.837,22.051.058v39.38C29.718,39.438,40,27.614,40,14.33A22.77,22.77,0,0,0,38.09,4.606Z" transform="translate(-4.009 -0.011)"/></g></g></svg>