<svg xmlns="http://www.w3.org/2000/svg" width="36" height="24" viewBox="0 0 36 24"><title>Привязанная карта</title><rect width="36" height="24" fill="none"/><path d="M32.39,24H3.77A2.78,2.78,0,0,1,1,21.23V2.77A2.78,2.78,0,0,1,3.77,0H32.39a2.78,2.78,0,0,1,2.77,2.77V21.23A2.78,2.78,0,0,1,32.39,24Z" fill="#d439a0"/><rect x="1" y="5.08" width="34.15" height="6.46" fill="#303030"/><path d="M22.14,17.77H3.68a.83.83,0,0,1-.83-.82h0V14a.83.83,0,0,1,.82-.83H22.14A.83.83,0,0,1,23,14h0v3a.83.83,0,0,1-.82.83Z" fill="#ededed" opacity="0.7" style="isolation:isolate"/><path d="M30.81,17.77H24.91a.83.83,0,0,1-.83-.82h0V14a.83.83,0,0,1,.82-.83h5.87a.83.83,0,0,1,.83.82h0v3a.76.76,0,0,1-.69.83Z" fill="#ededed"/><path d="M7.46,24H32.39a2.78,2.78,0,0,0,2.77-2.77V2.77A2.78,2.78,0,0,0,32.39,0H23.25Z" opacity="0.1" style="isolation:isolate"/><path d="M35.15,21.23V2.77A2.82,2.82,0,0,0,32.94,0L17.15,24H32.38A2.78,2.78,0,0,0,35.15,21.23Z" opacity="0.2" style="isolation:isolate"/></svg>