<svg xmlns="http://www.w3.org/2000/svg" viewBox="558 407 48 48">
  <defs>
    <style>
      .cls-1 {
        fill: none;
      }

      .cls-2 {
        fill: #fff;
      }
    </style>
  </defs>
  <g id="client-white" data-name="client-white" transform="translate(558 407)">
    <rect id="Rectangle_1581" data-name="Rectangle 1581" class="cls-1" width="48" height="48"/>
    <path id="Path_1297" data-name="Path 1297" class="cls-2" d="M38.246,37.284s-2.1-6.014-2.612-7.086a3.466,3.466,0,0,0-1.862-1.866l-.156-.07-.028-.012-.18-.08c-1.358-.6-5.692-2.51-7.462-3.288h0l-.652-.286v-1.85a10.858,10.858,0,0,0,2.4-5.07.682.682,0,0,0,.1.028.97.97,0,0,0,1.038-.9l.2-2.71a.966.966,0,0,0-.562-.952V9.586A7.136,7.136,0,0,0,20.9,3.008,7.134,7.134,0,0,0,13.32,9.586v3.562a.97.97,0,0,0-.564.952l.2,2.71a.972.972,0,0,0,1.04.9.616.616,0,0,0,.1-.028,11.2,11.2,0,0,0,2,4.582V24.6l-.65.286h0c-1.9.834-6.752,2.97-7.708,3.4l-.116.052A3.466,3.466,0,0,0,5.76,30.2c-.512,1.07-2.6,7.086-2.6,7.086s-.656,1.72.7,1.72h33.69C38.9,39.008,38.246,37.284,38.246,37.284Z" transform="translate(3 2.992)"/>
  </g>
</svg>
