<svg xmlns="http://www.w3.org/2000/svg" width="24" height="24" viewBox="0 0 24 24"><title>Привязка Яндекс</title><rect width="24" height="24" fill="none"/><path d="M3,11.92c0-1.31.08-2.25,2.89-4.31C8.21,5.89,15.64,0,15.64,0V9.86h5.62V24H4.72A1.8,1.8,0,0,1,3,22.28Z" fill="#fc0"/><polygon points="15.68 9.86 15.68 15.56 5.25 22.57 18.38 18.38 18.38 9.86 15.68 9.86" fill="#e4ac00"/><path d="M10.88,9.52a1.48,1.48,0,0,1,2-.56c.49.41.41,1.31-.26,2.06a1.48,1.48,0,0,1-2,.56,1.65,1.65,0,0,1,.26-2.06"/></svg>