<svg xmlns="http://www.w3.org/2000/svg" width="50" height="36" viewBox="0 0 50 36"><title>Меню ЛК</title><rect width="50" height="36" fill="none"/><path d="M23.661,6a7.128,7.128,0,0,1,1.532,4.385V10.8H45V6Z" fill="#fff"/><path d="M25.4,15.6A3.833,3.833,0,0,1,24.171,18q-.122.344-.265.674c1.079.475,2.9,1.28,2.9,1.28a6.41,6.41,0,0,1,.8.446H45V15.6Z" fill="#fff"/><path d="M30.6,25.2c.35.964.7,1.965.915,2.574A4.86,4.86,0,0,1,31.752,30H45V25.2Z" fill="#fff"/><path d="M26.5,28.85s-1.4-4.01-1.742-4.723a2.31,2.31,0,0,0-1.242-1.244l-.1-.047-.018-.008-.12-.053c-.905-.4-3.8-1.674-4.974-2.192h0l-.434-.191c0-.017,0-.033,0-.05V19.159a7.239,7.239,0,0,0,1.606-3.38.455.455,0,0,0,.069.019.646.646,0,0,0,.692-.6l.134-1.806a.644.644,0,0,0-.375-.634V10.385C19.993,7.963,17.728,6,14.936,6S9.88,7.963,9.88,10.385v2.375a.646.646,0,0,0-.376.634L9.637,15.2a.648.648,0,0,0,.694.6.41.41,0,0,0,.068-.019,7.462,7.462,0,0,0,1.336,3.054v1.51c0,.017,0,.032,0,.049l-.434.191h0c-1.266.556-4.5,1.979-5.139,2.265l-.078.035a2.311,2.311,0,0,0-1.242,1.244c-.342.713-1.74,4.723-1.74,4.723S2.67,30,3.57,30H26.03C26.932,30,26.5,28.85,26.5,28.85Z" fill="#fff"/></svg>