<svg xmlns="http://www.w3.org/2000/svg" width="24" height="24" viewBox="0 0 24 24"><title>Допродажа Баланс БЕЛЫЙ</title><rect width="24" height="24" fill="none"/><ellipse cx="9.054" cy="5.389" rx="5.053" ry="2.389" fill="#fff"/><path d="M9.054,16.337A9.5,9.5,0,0,1,4.306,15.18,1.334,1.334,0,0,0,4,16C4,17.32,6.263,18.39,9.053,18.39c.131,0,.261,0,.39-.008a2.32,2.32,0,0,1-.136-.776A2.433,2.433,0,0,1,9.69,16.32C9.482,16.331,9.27,16.337,9.054,16.337Z" fill="#fff"/><path d="M15.947,18.213A9.5,9.5,0,0,1,11.2,17.056a1.334,1.334,0,0,0-.306.82c0,1.319,2.263,2.389,5.053,2.389S21,19.2,21,17.876a1.334,1.334,0,0,0-.306-.82A9.486,9.486,0,0,1,15.947,18.213Z" fill="#fff"/><path d="M4.367,11.607A1.376,1.376,0,0,0,4,12.5c0,1.319,2.263,2.389,5.053,2.389.131,0,.261,0,.39-.008a2.32,2.32,0,0,1-.136-.776,2.474,2.474,0,0,1,.456-1.4c-.233.014-.47.022-.709.022A9.549,9.549,0,0,1,4.367,11.607Z" fill="#fff"/><path d="M15.947,14.332a9.557,9.557,0,0,1-4.689-1.121,1.376,1.376,0,0,0-.366.892c0,1.319,2.263,2.389,5.053,2.389S21,15.422,21,14.1a1.376,1.376,0,0,0-.366-.892A9.53,9.53,0,0,1,15.947,14.332Z" fill="#fff"/><path d="M9.054,11.278c.131,0,.261,0,.39-.008a2.31,2.31,0,0,1-.135-.776,2.433,2.433,0,0,1,.383-1.286q-.315.018-.637.018A9.5,9.5,0,0,1,4.306,8.07,1.339,1.339,0,0,0,4,8.89C4,10.209,6.264,11.278,9.054,11.278Z" fill="#fff"/><ellipse cx="15.947" cy="10.494" rx="5.053" ry="2.389" fill="#fff"/></svg>