<svg xmlns="http://www.w3.org/2000/svg" viewBox="16705 5949 36 36.74"><defs><style>.a{fill:#fff;}.b{fill:#ea4335;}.c{fill:#fbbc05;}.d{fill:#4285f4;}.e{fill:#34a853;}</style></defs><g transform="translate(16705 5949)"><path class="a" d="M12.369,1.006A18.473,18.473,0,0,0,1.96,10.119a18.171,18.171,0,0,0-1.6,4.622A18.382,18.382,0,0,0,13.612,36.12a19.647,19.647,0,0,0,9.4.1,16.669,16.669,0,0,0,7.524-3.91,16.686,16.686,0,0,0,4.651-7.623,21.567,21.567,0,0,0,.464-9.756H18.37V22.1H28.383a8.649,8.649,0,0,1-3.673,5.678,10.524,10.524,0,0,1-4.049,1.6,12.11,12.11,0,0,1-4.384-.01A10.873,10.873,0,0,1,12.189,27.6a11.359,11.359,0,0,1-4.207-5.639,11.147,11.147,0,0,1,0-7.149,11.475,11.475,0,0,1,2.666-4.335A10.8,10.8,0,0,1,21.53,7.641a9.886,9.886,0,0,1,3.959,2.33l3.377-3.377c.593-.6,1.215-1.185,1.788-1.807A17.9,17.9,0,0,0,24.74,1.124,18.533,18.533,0,0,0,12.369,1.006Z" transform="translate(0 0)"/><g transform="translate(1.96 0)"><path class="b" d="M12.756,1.005a18.6,18.6,0,0,1,12.373.109,17.857,17.857,0,0,1,5.915,3.663c-.573.622-1.195,1.2-1.788,1.807L25.879,9.961a10,10,0,0,0-3.959-2.33,10.843,10.843,0,0,0-5.391-.217,10.974,10.974,0,0,0-5.49,3.051A11.392,11.392,0,0,0,8.372,14.8c-2-1.56-4.01-3.11-6.024-4.671A18.454,18.454,0,0,1,12.756,1.005Z" transform="translate(-2.348 0)"/></g><g transform="translate(0.01 10.109)"><path class="c" d="M.373,16.729a18.317,18.317,0,0,1,1.6-4.622c2,1.561,4.009,3.11,6.024,4.671a11.08,11.08,0,0,0,0,7.149Q4.989,26.268,1.983,28.6A18.271,18.271,0,0,1,.373,16.729Z" transform="translate(-0.012 -12.107)"/></g><g transform="translate(18.362 14.919)"><path class="d" d="M22,17.867H39.282a21.721,21.721,0,0,1-.464,9.756,16.686,16.686,0,0,1-4.651,7.623l-5.836-4.532A8.649,8.649,0,0,0,32,25.036H21.991Q22.006,21.452,22,17.867Z" transform="translate(-21.991 -17.867)"/></g><g transform="translate(1.96 21.939)"><path class="e" d="M2.348,30.946q3.007-2.326,6.014-4.671a11.412,11.412,0,0,0,4.207,5.639,10.942,10.942,0,0,0,4.088,1.768,11.908,11.908,0,0,0,4.384.01,10.511,10.511,0,0,0,4.049-1.6l5.836,4.532a16.572,16.572,0,0,1-7.524,3.91,19.657,19.657,0,0,1-9.4-.1,18.142,18.142,0,0,1-6.675-3.367A18.483,18.483,0,0,1,2.348,30.946Z" transform="translate(-2.348 -26.275)"/></g></g></svg>