<svg xmlns="http://www.w3.org/2000/svg" width="24" height="24" viewBox="0 0 24 24"><title>Назад БЕЛЫЙ</title><rect width="24" height="24" fill="none"/><path d="M10.988,4.361,4.833,10.293c-.016.016-.021.037-.037.054a2.115,2.115,0,0,0,0,3.307c.016.018.021.037.036.053l6.155,5.932a1.308,1.308,0,0,0,1.806,0l.9-.87a1.2,1.2,0,0,0,.043-1.7l-.043-.043-3.3-3.183h8.326A1.254,1.254,0,0,0,20,12.617V11.384a1.254,1.254,0,0,0-1.278-1.23H10.393l3.3-3.182a1.2,1.2,0,0,0,.043-1.7L13.7,5.231l-.9-.87A1.31,1.31,0,0,0,10.988,4.361Z" fill="#fff"/></svg>