<svg xmlns="http://www.w3.org/2000/svg" width="24" height="24" viewBox="0 0 24 24"><title>Баланс</title><rect width="24" height="24" fill="none"/><ellipse cx="9.05" cy="5.39" rx="5.05" ry="2.39" fill="#515151"/><path d="M9.05,16.34a9.49,9.49,0,0,1-4.74-1.16A1.33,1.33,0,0,0,4,16c0,1.32,2.26,2.39,5.05,2.39h.39a2.27,2.27,0,0,1-.13-.77,2.4,2.4,0,0,1,.38-1.29Z" fill="#515151"/><path d="M16,18.21a9.53,9.53,0,0,1-4.75-1.15,1.31,1.31,0,0,0-.31.82c0,1.32,2.27,2.39,5.06,2.39S21,19.2,21,17.88a1.31,1.31,0,0,0-.31-.82A9.49,9.49,0,0,1,16,18.21Z" fill="#515151"/><path d="M4.37,11.61A1.33,1.33,0,0,0,4,12.5c0,1.32,2.26,2.39,5.05,2.39h.39a2.55,2.55,0,0,1-.13-.78,2.47,2.47,0,0,1,.45-1.39l-.71,0A9.55,9.55,0,0,1,4.37,11.61Z" fill="#515151"/><path d="M16,14.33a9.59,9.59,0,0,1-4.69-1.12,1.37,1.37,0,0,0-.37.89c0,1.32,2.27,2.39,5.06,2.39S21,15.42,21,14.1a1.37,1.37,0,0,0-.37-.89A9.55,9.55,0,0,1,16,14.33Z" fill="#515151"/><path d="M9.05,11.28h.39a2.55,2.55,0,0,1-.13-.78,2.39,2.39,0,0,1,.38-1.28l-.64,0A9.49,9.49,0,0,1,4.31,8.07,1.33,1.33,0,0,0,4,8.89C4,10.21,6.26,11.28,9.05,11.28Z" fill="#515151"/><ellipse cx="15.95" cy="10.49" rx="5.05" ry="2.39" fill="#515151"/></svg>