<?xml version="1.0" encoding="utf-8"?>
<!-- Generator: Adobe Illustrator 19.1.0, SVG Export Plug-In . SVG Version: 6.00 Build 0)  -->
<svg version="1.1" baseProfile="basic" id="Слой_1"
	 xmlns="http://www.w3.org/2000/svg" xmlns:xlink="http://www.w3.org/1999/xlink" x="0px" y="0px" width="23px" height="23px"
	 viewBox="0 0 23 23" xml:space="preserve">
<g>
	<path fill="#515151" d="M10,9.2c0-0.5-0.5-0.9-1.3-1.2C7.8,8.3,6.5,8.6,5,8.6S2.2,8.3,1.3,7.9C0.5,8.3,0,8.7,0,9.2
		c0,1,2.2,1.8,5,1.8S10,10.2,10,9.2z"/>
	<path fill="#515151" d="M5,7.3c2.8,0,5-0.8,5-1.8C10,5,9.5,4.6,8.7,4.3C7.8,4.7,6.5,4.9,5,4.9S2.2,4.7,1.3,4.3C0.5,4.6,0,5,0,5.5
		C0,6.5,2.2,7.3,5,7.3z"/>
	<ellipse fill="#515151" cx="5" cy="1.8" rx="5" ry="1.8"/>
	<polygon fill="#515151" points="18,13 18,4 12,4 12,13 6.9,13 14.9,22.1 22.9,13 	"/>
</g>
<g>
</g>
<g>
</g>
<g>
</g>
<g>
</g>
<g>
</g>
<g>
</g>
<g>
</g>
<g>
</g>
<g>
</g>
<g>
</g>
<g>
</g>
<g>
</g>
<g>
</g>
<g>
</g>
<g>
</g>
</svg>
