<?xml version="1.0" encoding="utf-8"?>
<!-- Generator: Adobe Illustrator 17.0.0, SVG Export Plug-In . SVG Version: 6.00 Build 0)  -->
<!DOCTYPE svg PUBLIC "-//W3C//DTD SVG 1.1//EN" "http://www.w3.org/Graphics/SVG/1.1/DTD/svg11.dtd">
<svg version="1.1" id="Слой_1" xmlns="http://www.w3.org/2000/svg" xmlns:xlink="http://www.w3.org/1999/xlink" x="0px" y="0px"
	 width="16px" height="16px" viewBox="0 0 16 16" enable-background="new 0 0 16 16" xml:space="preserve">
<g>
	<ellipse fill="#201600" cx="4.816" cy="2.207" rx="4.669" ry="2.207"/>
	<path fill="#515151" d="M4.816,12.323c-1.72,0-3.273-0.41-4.387-1.069c-0.183,0.236-0.283,0.492-0.283,0.758
		c0,1.219,2.091,2.207,4.669,2.207c0.121,0,0.241-0.003,0.36-0.007c-0.082-0.232-0.126-0.472-0.126-0.717
		c0-0.417,0.125-0.816,0.354-1.188C5.211,12.317,5.015,12.323,4.816,12.323z"/>
	<path fill="#515151" d="M11.184,14.056c-1.72,0-3.273-0.41-4.387-1.069c-0.183,0.236-0.283,0.492-0.283,0.758
		c0,1.219,2.091,2.207,4.669,2.207s4.669-0.988,4.669-2.207c0-0.266-0.1-0.522-0.283-0.758
		C14.457,13.646,12.903,14.056,11.184,14.056z"/>
	<path fill="#515151" d="M0.485,7.952C0.268,8.207,0.147,8.485,0.147,8.776c0,1.219,2.091,2.207,4.669,2.207
		c0.121,0,0.241-0.003,0.36-0.007c-0.082-0.232-0.126-0.472-0.126-0.717c0-0.456,0.15-0.891,0.421-1.291
		c-0.215,0.013-0.434,0.02-0.655,0.02C3.125,8.988,1.594,8.592,0.485,7.952z"/>
	<path fill="#515151" d="M11.184,10.47c-1.691,0-3.222-0.396-4.332-1.036c-0.217,0.255-0.338,0.533-0.338,0.824
		c0,1.219,2.091,2.207,4.669,2.207s4.669-0.988,4.669-2.207c0-0.291-0.121-0.569-0.338-0.824
		C14.406,10.075,12.875,10.47,11.184,10.47z"/>
	<path fill="#515151" d="M4.816,7.648c0.121,0,0.241-0.003,0.36-0.007C5.094,7.41,5.051,7.17,5.051,6.924
		c0-0.417,0.125-0.816,0.354-1.188C5.211,5.747,5.015,5.753,4.816,5.753c-1.72,0-3.273-0.41-4.387-1.069
		C0.247,4.92,0.147,5.176,0.147,5.442C0.147,6.661,2.238,7.648,4.816,7.648z"/>
	<ellipse fill="#515151" cx="11.184" cy="6.924" rx="4.669" ry="2.207"/>
</g>
</svg>
