<svg baseProfile="basic" xmlns="http://www.w3.org/2000/svg" width="25" height="25" viewBox="0 0 25 25"><g fill="#777"><path d="M10.5 15.8c0 .3-.3.5-.7.5-.4 0-.6-.2-.6-.5v-5.1c0-.3.3-.5.6-.5.4 0 .7.2.7.5v5.1z"/><path d="M10.1 25C4.9 25 .6 20.8.6 15.5S4.8 6 10.1 6s9.5 4.2 9.5 9.5-4.3 9.5-9.5 9.5zm0-16.4c-3.9 0-7 3.1-7 7s3.1 7 7 7 7-3.1 7-7-3.2-7-7-7z"/><path d="M9.4 16.2c-.2-.1-.3-.5-.1-.8.2-.3.5-.4.8-.3l3.6 2.1c.2.1.3.5.1.8-.2.3-.5.4-.8.3l-3.6-2.1z"/></g><path fill="#777" d="M22.7 10.4c1.2 0 2.9-2.5 2.1-4.8-.6 1.3-3.3 2.3-3.9 2 1.4-.8 4.2-3.5 3.6-6.8-.3 1.9-4.7 3.2-6.5 2.6-.2.8-.8 2.6-2.3 1.6-.6-.4.1-1.4.5-1.6-2.4 0-4.2.3-6.2 1.5h.4c5.7 0 10.4 4.7 10.4 10.4 0 .6 0 1.2-.1 1.8 1.9-2.3 2.3-4.4 2.4-5-.5.7-2.2.8-2.4-.4 0-.8.6-1.3 2-1.3z"/></svg>