<?xml version="1.0" encoding="utf-8"?>
<!-- Generator: Adobe Illustrator 21.0.0, SVG Export Plug-In . SVG Version: 6.00 Build 0)  -->
<svg version="1.1" baseProfile="basic" id="Layer_1"
	 xmlns="http://www.w3.org/2000/svg" xmlns:xlink="http://www.w3.org/1999/xlink" x="0px" y="0px" width="13px" height="17px"
	 viewBox="0 0 13 17" xml:space="preserve">
<g>
	<polygon fill="#FFFFFF" points="4,4 4,0 0,4 	"/>
	<polygon fill="#FFFFFF" points="7,10 7,6 3,10 	"/>
	<path fill="#FFFFFF" d="M11,6H8v5H3v4c0,1.1,0.9,2,2,2h6c1.1,0,2-0.9,2-2V8C13,6.9,12.1,6,11,6z"/>
	<path fill="#FFFFFF" d="M2,10l4-5h4V2c0-1.1-0.9-2-2-2H5v5H0v5c0,1.1,0.9,2,2,2V10z"/>
</g>
</svg>
