<svg xmlns="http://www.w3.org/2000/svg" viewBox="2479 -1490 22 22"><defs><style>.a{fill:#515151;}</style></defs><g transform="translate(2479 -1490)"><path class="a" d="M11,0A11,11,0,1,0,22,11,11,11,0,0,0,11,0ZM1.57,11.673H5.419a19.552,19.552,0,0,0,.37,3.252H2.4A9.4,9.4,0,0,1,1.57,11.673Zm10.2-6.257V1.856c1.024.439,1.912,1.74,2.515,3.56Zm2.927,1.534a19.016,19.016,0,0,1,.39,3.189H11.767V6.951ZM10.232,1.856v3.56H7.717C8.32,3.6,9.209,2.3,10.232,1.856Zm0,5.094V10.14H6.917a19.02,19.02,0,0,1,.389-3.189ZM5.425,10.14H1.584a9.413,9.413,0,0,1,.87-3.189h3.36A19.536,19.536,0,0,0,5.425,10.14Zm1.484,1.533h3.323v3.252H7.28A19.3,19.3,0,0,1,6.909,11.673Zm3.323,4.786v3.685c-1.047-.45-1.953-1.8-2.555-3.685Zm1.535,3.685V16.459h2.554C13.718,18.343,12.814,19.694,11.767,20.144Zm0-5.218V11.673h3.321a19.233,19.233,0,0,1-.369,3.252Zm4.814-3.252h3.849a9.415,9.415,0,0,1-.826,3.252H16.212A19.79,19.79,0,0,0,16.581,11.673Zm-.007-1.533a19.78,19.78,0,0,0-.389-3.189h3.36a9.378,9.378,0,0,1,.868,3.189ZM18.63,5.416h-2.84a11.03,11.03,0,0,0-1.622-3.327A9.471,9.471,0,0,1,18.63,5.416ZM7.833,2.089A11.039,11.039,0,0,0,6.21,5.416H3.37A9.466,9.466,0,0,1,7.833,2.089ZM3.282,16.459H6.172A11.209,11.209,0,0,0,7.831,19.91,9.469,9.469,0,0,1,3.282,16.459Zm10.886,3.452a11.161,11.161,0,0,0,1.66-3.451h2.891A9.477,9.477,0,0,1,14.167,19.911Z" transform="translate(0 0)"/></g></svg>
