<svg xmlns="http://www.w3.org/2000/svg" width="61.798" height="62.132" viewBox="0 0 61.798 62.132"><path fill="#2F3F4D" d="M61.798 56.725a3.392 3.392 0 0 1-3.394 3.393H3.392a3.392 3.392 0 0 1 0-6.785h55.013a3.39 3.39 0 0 1 3.393 3.392z"/><path fill="#7DCDF4" d="M46.108 59.654a2.475 2.475 0 0 1-2.476 2.478H18.164a2.474 2.474 0 0 1-2.474-2.478v-5.86a2.474 2.474 0 0 1 2.474-2.476h25.468a2.476 2.476 0 0 1 2.476 2.476v5.86z"/><path fill="#7DCDF4" d="M33.833 44.11a2.475 2.475 0 0 1 2.474 2.477v10.61a2.477 2.477 0 0 1-2.474 2.476h-5.87a2.475 2.475 0 0 1-2.473-2.476v-10.61c0-1.37 1.11-2.478 2.474-2.478h5.87z"/><path opacity=".1" fill="#12110B" d="M25.49 44.11h10.817v5.307H25.49z"/><path fill="#4593C4" d="M61.754 41.34a5.79 5.79 0 0 1-5.79 5.788H5.852A5.787 5.787 0 0 1 .065 41.34V5.79C.064 2.592 2.654 0 5.85 0h50.114a5.79 5.79 0 0 1 5.79 5.79v35.55z"/><path fill="#2F3F4D" d="M57.902 37.16a6.06 6.06 0 0 1-6.062 6.062H9.265a6.062 6.062 0 0 1 0-12.12h42.573a6.062 6.062 0 0 1 6.064 6.06zM57.902 23.628a6.06 6.06 0 0 1-6.062 6.06H9.265a6.062 6.062 0 0 1-6.06-6.06 6.06 6.06 0 0 1 6.06-6.06h42.573a6.06 6.06 0 0 1 6.064 6.06zM57.902 10.09a6.06 6.06 0 0 1-6.062 6.06H9.265a6.062 6.062 0 0 1-6.06-6.06 6.062 6.062 0 0 1 6.06-6.06h42.573a6.062 6.062 0 0 1 6.064 6.06z"/><circle fill="#7DCDF4" cx="9.31" cy="10.09" r="2.825"/><circle fill="#7DCDF4" cx="9.31" cy="23.725" r="2.824"/><circle fill="#7DCDF4" cx="9.31" cy="37.228" r="2.824"/><g fill="#FFF"><path d="M51.997 8.333c0 .536-.31.97-.688.97H17.363c-.38 0-.69-.434-.69-.97 0-.534.31-.97.69-.97H51.31c.378 0 .687.436.687.97zM51.997 11.846c0 .536-.31.972-.688.972H17.363c-.38 0-.69-.436-.69-.972 0-.534.31-.968.69-.968H51.31c.378 0 .687.434.687.968z"/></g><g fill="#FFF"><path d="M51.997 21.87c0 .536-.31.97-.688.97H17.363c-.38 0-.69-.433-.69-.97 0-.538.31-.972.69-.972H51.31c.378 0 .687.434.687.972zM51.997 25.383c0 .534-.31.97-.688.97H17.363c-.38 0-.69-.434-.69-.97 0-.538.31-.972.69-.972H51.31c.378 0 .687.435.687.973z"/></g><g fill="#FFF"><path d="M51.997 35.404c0 .537-.31.974-.688.974H17.363c-.38 0-.69-.437-.69-.974 0-.536.31-.97.69-.97H51.31c.378.003.687.436.687.97zM51.997 38.92c0 .534-.31.97-.688.97H17.363c-.38 0-.69-.433-.69-.97 0-.537.31-.973.69-.973H51.31c.378.002.687.438.687.972z"/></g><path opacity=".1" fill="#12110B" d="M61.754 41.34a5.79 5.79 0 0 1-5.79 5.788H5.852L55.965 0a5.79 5.79 0 0 1 5.79 5.79v35.55z"/></svg>