<svg xmlns="http://www.w3.org/2000/svg" width="75.969" height="67.97" viewBox="0 0 75.969 67.97"><circle fill="#EFEBDE" cx="37.983" cy="33.985" r="33.983"/><path opacity=".1" fill="#010000" d="M37.982 0v67.97c18.77 0 33.984-15.217 33.984-33.984C71.966 15.216 56.75 0 37.982 0z"/><g fill="#535353"><circle cx="25.783" cy="16.228" r="4.74"/><path d="M16.77 23.928l12.44 3.09 1.32-11.128-9.064-1.52"/></g><g fill="#00B2B2"><circle cx="22.738" cy="26.13" r="10.432"/><path d="M1.933 41.863l31.194 8.72.086-24.58-19.717-4.525"/></g><circle fill="#535353" cx="16.574" cy="49.687" r="16.571"/><circle fill="#FF8200" cx="16.574" cy="49.688" r="11.813"/><g fill="#535353"><circle cx="50.183" cy="16.228" r="4.74"/><path d="M59.195 23.928l-12.44 3.09-1.32-11.128 9.066-1.52"/></g><g fill="#00B2B2"><circle cx="53.228" cy="26.13" r="10.432"/><path d="M74.033 41.863l-31.196 8.72-.084-24.58 19.717-4.525"/></g><circle fill="#535353" cx="59.392" cy="49.687" r="16.571"/><path fill="#535353" d="M42.812 30.766c0 .55-.448 1.002-1.002 1.002h-7.706c-.554 0-1.003-.45-1.003-1.002v-1.638c0-.552.45-1.002 1.004-1.002h7.706c.554 0 1.002.45 1.002 1.002v1.638z"/><path fill="#535353" d="M31.876 38.523l11.872.198-1.053-9.504-9.57-.22z"/><path fill="#00B2B2" d="M45.435 39.663c0 .59-.705 1.064-1.575 1.064h-12.1c-.87 0-1.575-.475-1.575-1.064v-1.737c0-.59.706-1.064 1.576-1.064h12.1c.87 0 1.575.475 1.575 1.064v1.737z"/><circle fill="#FF8200" cx="59.392" cy="49.688" r="11.814"/></svg>