<svg xmlns="http://www.w3.org/2000/svg" width="35" height="35" viewBox="0 0 35 35"><circle fill="#6899C4" cx="17.5" cy="17.5" r="17.5"/><path fill="#FFF" d="M25.245 27.944l-1.072-8.413-8.135-10.866c-.816-1.095-2.984-.856-4.842.533-1.858 1.388-2.7 3.397-1.884 4.493l8.146 10.903 5.5 2.365c.055.03.112.055.173.075l2.115.91zm-1.507-3.107c-.213.042-.43.135-.625.282a1.57 1.57 0 0 0-.447.514L18.53 23.76c.31-.48 1.192-1.912.913-3.358 1.373.543 2.91-.02 3.51-.466l.076.102.708 4.8zM10.96 13.897c.28-.84.992-1.783 2.012-2.544.905-.675 1.872-1.078 2.696-1.184l1.03 1.382c-.84.09-1.843.5-2.775 1.196-.986.737-1.686 1.64-1.986 2.457l-.976-1.31zm11.692 5.638c-.848.736-3.077.625-3.537.12l-4.583-6.135.043-.036c.9-.67 1.862-1.077 2.684-1.184l5.392 7.235zm-8.475-5.728l4.572 6.12s.698 1.788-.647 3.527l-5.54-7.416c.237-.73.802-1.532 1.614-2.23m-2.333-3.746c.857-.64 2.483-1.14 3.214-.637-.834.096-1.82.503-2.74 1.19-.974.728-1.666 1.615-1.973 2.426-.418-.877.584-2.294 1.5-2.978"/></svg>