<svg xmlns="http://www.w3.org/2000/svg" width="35" height="35" viewBox="0 0 35 35"><circle fill="#E21E1E" cx="17.5" cy="17.5" r="17.5"/><path fill="#FFF" d="M21 9.977h-5.305c-2.692 0-4.937 1.986-4.937 4.17 0 2.23 1.475 4.01 4.008 4.01.176 0 .347-.013.512-.025-.164.316-.28.668-.28 1.036 0 .62.34.975.76 1.383-.32 0-.626.01-.962.01-3.083 0-5.24 2.122-5.24 4.158 0 2.003 2.602 3.258 5.684 3.258 3.513 0 5.675-1.994 5.675-4 0-1.607-.348-2.416-2.06-3.7-.494-.368-1.563-1.125-1.563-1.634 0-.593.168-.885 1.067-1.586.914-.716 1.564-1.663 1.564-2.834 0-1.277-.523-2.436-1.502-3h1.393L21 9.977zm-1.798 13.657c.042.185.067.375.067.57 0 1.62-1.045 2.886-4.04 2.886-2.13 0-3.67-1.35-3.67-2.967 0-1.59 1.804-2.96 3.936-2.935.496.005.96.086 1.38.222 1.157.805 2.088 1.306 2.326 2.224zm-3.412-6.286c-1.43-.046-2.79-1.357-3.036-3.234-.25-1.878.712-3.315 2.14-3.272 1.43.044 2.654 1.583 2.9 3.46.247 1.878-.576 3.086-2.004 3.046zM29 12.977h-3v-3h-1v3h-3v1h3v3h1v-3h3z"/></svg>