<svg xmlns="http://www.w3.org/2000/svg" width="35" height="35" viewBox="0 0 35 35"><circle fill="#01ABF0" cx="17.5" cy="17.5" r="17.5"/><path fill="#FFF" d="M8 25.134a11.617 11.617 0 0 0 6.29 1.842c7.547 0 11.676-6.253 11.676-11.676 0-.178-.003-.355-.013-.53.802-.58 1.5-1.302 2.047-2.122a8.178 8.178 0 0 1-2.356.645 4.126 4.126 0 0 0 1.805-2.27c-.797.47-1.674.81-2.606.994a4.103 4.103 0 0 0-2.995-1.293 4.1 4.1 0 0 0-4 5.037 11.644 11.644 0 0 1-8.457-4.287 4.096 4.096 0 0 0-.555 2.063c0 1.425.725 2.682 1.828 3.416a4.088 4.088 0 0 1-1.862-.513v.05a4.11 4.11 0 0 0 3.292 4.024 4.078 4.078 0 0 1-1.85.07 4.1 4.1 0 0 0 3.83 2.85A8.24 8.24 0 0 1 8 25.135z"/></svg>