<svg xmlns="http://www.w3.org/2000/svg" width="35" height="35" viewBox="0 0 35 35"><circle fill="#2F69A1" cx="17.5" cy="17.5" r="17.5"/><path fill="#FFF" d="M12.58 9.71c-5.25 3.123-5.355 9.154-3.377 12.582 2.93 5.075 9.202 5.17 11.456 4.21 1.49-.633.828-2.574-.608-1.995-2.835 1.144-7.606-.004-9.274-3.852-1.53-3.526.045-7.284 2.504-8.98 2.314-1.597 6.668-2.065 9.912.774 3.48 3.045 2.002 8.302.766 9.57-.315.324-.886.063-.834-.44l-.003-7.692c0-.216-.148-.9-.872-.9h-.116c-.464 0-.795.372-.795.868v-.004c-1.027-1.03-2.43-1.688-3.918-1.688-2.94 0-5.53 2.618-5.53 5.59 0 2.94 2.59 5.53 5.53 5.53 1.49 0 2.856-.595 3.884-1.614l.015.548c-.013 1.68 2.177 2.803 3.653 1.65 3.255-2.54 3.45-9.066.112-12.55C21.892 7.982 16.597 7.32 12.58 9.71zm4.82 11.76c-1.96 0-3.454-1.407-3.454-3.637 0-1.99 1.237-3.742 3.464-3.742h.073c1.932 0 3.53 1.297 3.64 3.45l.006.436c-.105 1.895-1.543 3.495-3.73 3.495z"/></svg>