<?xml version="1.0" encoding="utf-8"?>
<!-- Generator: Adobe Illustrator 21.0.0, SVG Export Plug-In . SVG Version: 6.00 Build 0)  -->
<svg version="1.1" baseProfile="basic" id="Слой_1"
	 xmlns="http://www.w3.org/2000/svg" xmlns:xlink="http://www.w3.org/1999/xlink" x="0px" y="0px" width="17px" height="21px"
	 viewBox="0 0 17 21" xml:space="preserve">
<g>
	<g opacity="0.7">
		<g>
			<path fill="#06C98C" d="M1.1,6.6C0.5,6.6,0,7.1,0,7.7l0,2.8c0,0.5,0.3,0.9,0.7,1l0,8.3c0,0.7,0.5,1.2,1.2,1.2l5.4,0l0-14.4
				L1.1,6.6z"/>
			<path fill="#06C98C" d="M15.9,6.6l-6.6,0l0,14.4l5.8,0c0.7,0,1.2-0.5,1.2-1.2l0-8.3c0.4-0.2,0.7-0.6,0.7-1l0-2.8
				C17,7,16.5,6.5,15.9,6.6z"/>
		</g>
	</g>
	<rect x="6.8" y="4.8" fill="#FF6600" width="3.5" height="16.1"/>
	<g>
		<path fill="#FF6600" d="M12.1,0c-1.8,0-3.2,1.4-3.2,3.2l0,3.2l3.2,0c1.8,0,3.2-1.4,3.2-3.2C15.3,1.4,13.9,0,12.1,0z M12.1,5
			l-1.8,0l0-1.8c0-1,0.8-1.8,1.8-1.8c1,0,1.8,0.8,1.8,1.8C13.8,4.2,13,5,12.1,5z"/>
		<path fill="#FF6600" d="M1.7,3.2c0,1.8,1.4,3.2,3.2,3.2l3.2,0l0-3.2C8.1,1.4,6.7,0,4.9,0C3.1,0,1.7,1.5,1.7,3.2z M3.2,3.2
			c0-1,0.8-1.8,1.8-1.8c1,0,1.8,0.8,1.8,1.8l0,1.8L4.9,5C4,5,3.2,4.2,3.2,3.2z"/>
	</g>
</g>
<g>
</g>
<g>
</g>
<g>
</g>
<g>
</g>
<g>
</g>
<g>
</g>
<g>
</g>
<g>
</g>
<g>
</g>
<g>
</g>
<g>
</g>
<g>
</g>
<g>
</g>
<g>
</g>
<g>
</g>
</svg>
