<svg xmlns="http://www.w3.org/2000/svg" width="30" height="30" viewBox="0 0 30 30">
  <path d="M13.891,18.652l4.174-4.174a1.337,1.337,0,1,0-1.891-1.891L12,16.761,7.826,12.587a1.337,1.337,0,0,0-1.891,1.891l4.174,4.174L5.935,22.826a1.337,1.337,0,0,0,1.891,1.891L12,20.543l4.174,4.174a1.337,1.337,0,0,0,1.891-1.891Z" fill="#cecece"/>
  <g>
    <path d="M9.13,5.283A1.823,1.823,0,0,1,7.3,7.109h0A1.823,1.823,0,0,1,5.478,5.283V1.826A1.782,1.782,0,0,1,7.3,0h0A1.866,1.866,0,0,1,9.13,1.826Z" fill="#cecece"/>
    <path d="M19.474,5.283a1.823,1.823,0,0,1-1.826,1.826h0a1.823,1.823,0,0,1-1.826-1.826V1.826A1.823,1.823,0,0,1,17.648,0h0a1.823,1.823,0,0,1,1.826,1.826Z" fill="#cecece"/>
    <path d="M21.822,5.217h-1.5v.522a2.674,2.674,0,1,1-5.348,0V5.217H9.913v.522a2.674,2.674,0,1,1-5.348,0V5.217H2.413A2.367,2.367,0,0,0,0,7.63V27.652A2.353,2.353,0,0,0,2.413,30H21.887A2.394,2.394,0,0,0,24.3,27.652V7.63A2.463,2.463,0,0,0,21.822,5.217ZM5.152,27.065h-.13a1.337,1.337,0,0,1-1.37-1.37V11.543a1.337,1.337,0,0,1,1.37-1.37H19.174a1.337,1.337,0,0,1,1.37,1.37V25.7a1.337,1.337,0,0,1-1.37,1.37h-.065" fill="#cecece"/>
  </g>
</svg>
