<svg xmlns="http://www.w3.org/2000/svg" width="30" height="30" viewBox="0 0 30 30">
  <g>
    <path d="M27.581,2.011h-.067c-.035,0-.068-.011-.1-.011H2.419A2.42,2.42,0,0,0,0,4.42v20.43a2.427,2.427,0,0,0,2.416,2.424H21.981l.015.01h5.589A2.426,2.426,0,0,0,30,24.86V4.43A2.42,2.42,0,0,0,27.581,2.011ZM9.516,3.962H27.051a1.047,1.047,0,0,1,0,2.093H9.516a1.047,1.047,0,0,1,0-2.093ZM6.3,3.709A1.163,1.163,0,1,1,5.138,4.875,1.165,1.165,0,0,1,6.3,3.709Zm-3.376,0A1.163,1.163,0,1,1,1.762,4.875,1.164,1.164,0,0,1,2.926,3.709ZM28.719,24.86A1.139,1.139,0,0,1,27.581,26h-1.36l.015-.011H2.419a1.139,1.139,0,0,1-1.138-1.138V7.68H28.719Z" fill="#cecece"/>
    <g>
      <rect x="3.111" y="9.128" width="11.162" height="6.72" fill="#cecece"/>
      <rect x="15.728" y="9.128" width="11.162" height="6.72" fill="#cecece"/>
      <rect x="3.111" y="17.399" width="11.162" height="6.72" fill="#cecece"/>
      <rect x="15.728" y="17.399" width="11.162" height="6.72" fill="#cecece"/>
    </g>
  </g>
</svg>
