<svg xmlns="http://www.w3.org/2000/svg" width="30" height="30" viewBox="0 0 30 30">
  <g>
    <path d="M9.13,5.283A1.823,1.823,0,0,1,7.3,7.109h0A1.823,1.823,0,0,1,5.478,5.283V1.826A1.782,1.782,0,0,1,7.3,0h0A1.866,1.866,0,0,1,9.13,1.826Z" fill="#cecece"/>
    <path d="M19.474,5.283a1.823,1.823,0,0,1-1.826,1.826h0a1.823,1.823,0,0,1-1.826-1.826V1.826A1.823,1.823,0,0,1,17.648,0h0a1.823,1.823,0,0,1,1.826,1.826Z" fill="#cecece"/>
    <path d="M21.822,5.217h-1.5v.522a2.674,2.674,0,1,1-5.348,0V5.217H9.913v.522a2.674,2.674,0,1,1-5.348,0V5.217H2.413A2.367,2.367,0,0,0,0,7.63V27.652A2.353,2.353,0,0,0,2.413,30H21.887A2.394,2.394,0,0,0,24.3,27.652V7.63A2.463,2.463,0,0,0,21.822,5.217ZM5.152,27.065h-.13a1.337,1.337,0,0,1-1.37-1.37V11.543a1.337,1.337,0,0,1,1.37-1.37H19.174a1.337,1.337,0,0,1,1.37,1.37V25.7a1.337,1.337,0,0,1-1.37,1.37h-.065" fill="#cecece"/>
  </g>
  <path d="M19.686,25.567s-.875-2.506-1.089-2.952a1.444,1.444,0,0,0-.776-.777l-.065-.029-.011-.005-.075-.033c-.566-.251-2.372-1.046-3.109-1.37h0l-.271-.119,0-.031v-.74a4.524,4.524,0,0,0,1-2.112.284.284,0,0,0,.043.012.4.4,0,0,0,.433-.374l.084-1.129a.4.4,0,0,0-.234-.4V14.027a2.973,2.973,0,0,0-3.16-2.741A2.972,2.972,0,0,0,9.3,14.027v1.485a.4.4,0,0,0-.235.4l.083,1.129a.4.4,0,0,0,.434.374.256.256,0,0,0,.042-.012,4.663,4.663,0,0,0,.835,1.909v.944l0,.031-.271.119h0c-.791.347-2.813,1.237-3.212,1.416l-.049.022a1.444,1.444,0,0,0-.776.777c-.214.446-1.087,2.952-1.087,2.952s-.272.719.291.719H19.394C19.957,26.286,19.686,25.567,19.686,25.567Z" fill="#cecece"/>
</svg>
