<svg xmlns="http://www.w3.org/2000/svg" width="30" height="30" viewBox="0 0 30 30">
  <rect width="23.936" height="30" rx="1.563" ry="1.563" fill="#cecece"/>
  <path d="M7,5h6.86a6.524,6.524,0,0,1,2.7.479,4.265,4.265,0,0,1,1.611,1.2,4.074,4.074,0,0,1,.773,1.568,6.665,6.665,0,0,1,.207,1.568,6.531,6.531,0,0,1-.207,1.557,4.079,4.079,0,0,1-.773,1.557,4.169,4.169,0,0,1-1.611,1.187,6.651,6.651,0,0,1-2.7.468H9.722v5.967H7Zm2.722,7.36h3.985a3.553,3.553,0,0,0,.936-.131,2.685,2.685,0,0,0,.882-.425,2.177,2.177,0,0,0,.653-.784,2.693,2.693,0,0,0,.25-1.23,3.184,3.184,0,0,0-.218-1.263,2.019,2.019,0,0,0-.588-.795,2.1,2.1,0,0,0-.849-.4,4.618,4.618,0,0,0-1.023-.109H9.722Z" fill="#fff"/>
</svg>
