<svg xmlns="http://www.w3.org/2000/svg" width="52.793" height="56.217" viewBox="0 0 52.793 56.217"><path fill="#0098E1" d="M49.574 0H3.218A3.218 3.218 0 0 0 0 3.217V53a3.22 3.22 0 0 0 3.218 3.217h46.356A3.22 3.22 0 0 0 52.794 53V3.217A3.218 3.218 0 0 0 49.573 0zM24.528 49.483H4.813a.875.875 0 0 1 0-1.75h19.715a.875.875 0 0 1 0 1.75zm0-5H4.813a.875.875 0 0 1 0-1.75h19.715a.875.875 0 0 1 0 1.75zm0-5H4.813a.875.875 0 0 1 0-1.75h19.715a.875.875 0 0 1 0 1.75zm0-5H4.813a.875.875 0 0 1 0-1.75h19.715a.875.875 0 0 1 0 1.75zm0-5H4.813a.875.875 0 0 1 0-1.75h19.715a.875.875 0 0 1 0 1.75zm23.452 20H28.265a.875.875 0 0 1 0-1.75H47.98a.875.875 0 0 1 0 1.75zm0-5H28.265a.875.875 0 0 1 0-1.75H47.98a.875.875 0 0 1 0 1.75zm0-5H28.265a.875.875 0 0 1 0-1.75H47.98a.875.875 0 0 1 0 1.75zm0-5H28.265a.875.875 0 0 1 0-1.75H47.98a.875.875 0 0 1 0 1.75zm0-5H28.265a.875.875 0 0 1 0-1.75H47.98a.875.875 0 0 1 0 1.75zm0-4.983H4.813a.875.875 0 0 1 0-1.75H47.98a.875.875 0 0 1 0 1.75zM5.918 20.033V9.906h2.217l4.69 6.36v-6.36h2.157v10.127h-2.08L8.074 13.43v6.603H5.918zm18.127-6.088v1.897H19.14v2.293h5.01v1.897h-7.165V9.906h7.166v1.898h-5.01v2.14h4.905zm.803-4.04h2.414l1.776 7.32 1.928-7.32h1.685l1.914 7.32 1.76-7.32h2.43L35.87 20.034h-2.292l-1.776-6.953-1.76 6.953h-2.293L24.847 9.906zm14.558 2.932c0-1.686 1.458-3.082 3.84-3.082 1.61 0 2.946.485 3.948 1.412l-1.2 1.58c-.82-.76-1.912-1.11-2.945-1.11-.927 0-1.443.41-1.443 1.018 0 1.61 5.814.53 5.814 4.312 0 1.852-1.32 3.25-4.053 3.25-1.943 0-3.34-.654-4.28-1.61l1.168-1.64a4.445 4.445 0 0 0 3.22 1.366c1.183 0 1.76-.547 1.76-1.124 0-1.792-5.83-.563-5.83-4.373zM47.98 6.5H4.813a.875.875 0 0 1 0-1.75H47.98a.875.875 0 0 1 0 1.75z"/></svg>