<svg xmlns="http://www.w3.org/2000/svg" width="59.07" height="50.761" viewBox="0 0 59.07 50.761"><path fill="#6AC634" d="M43.833 48.77c0 1.1-1.025 1.99-2.292 1.99H2.293C1.025 50.76 0 49.87 0 48.77V1.99C0 .892 1.025 0 2.292 0h39.25c1.266 0 2.29.892 2.29 1.99v46.78z"/><path fill="#6AC634" d="M44.55 44.76h-1.153c-8.007 0-14.52-5.83-14.52-13v-13c0-7.167 6.514-13 14.52-13h1.152c8.006 0 14.52 5.833 14.52 13v13c0 7.17-6.514 13-14.52 13zm-1.154-33c-4.7 0-8.52 3.142-8.52 7v13c0 3.86 3.82 7 8.52 7h1.152c4.7 0 8.52-3.14 8.52-7v-13c0-3.858-3.82-7-8.52-7h-1.152z"/><g fill="#F3F3F3"><path d="M6.8 18.95l-.92.072 1.397 14.11L8.51 20.418l.034-.386.343-.18 6.94-3.61a.995.995 0 0 0-1.043-.77l-6.375.498a.95.95 0 0 0-.875 1.044l.092.896c.052.534-.324 1-.826 1.04zM17.884 25.95c0-.63-.488-1.013-1.13-1.013h-1.687v2.035h1.687c.642 0 1.13-.388 1.13-1.02z"/><path d="M23.187 36.442l8.082-.636 5.165-.406 1.55-16.005-13.188-5.343-14.432 7.51-1.55 16.006 14.372-1.126zm7.963-13.046c1.573 0 2.556.793 3.122 1.688l-1.336.725a2.128 2.128 0 0 0-1.786-.986c-1.367 0-2.364 1.053-2.364 2.477s.997 2.48 2.364 2.48c.667 0 1.3-.295 1.608-.58v-.803h-1.99v-1.423h3.595v2.814c-.767.862-1.845 1.428-3.213 1.428-2.207 0-4.016-1.542-4.016-3.915 0-2.39 1.81-3.904 4.016-3.904zm-10.252.125h5.34v1.418h-3.734v1.592h3.33v1.414h-3.33v1.713h3.734v1.41h-5.34v-7.546zm-7.437 0h3.532c1.57 0 2.532 1.03 2.532 2.432 0 1.34-.673 2.05-1.486 2.244l1.856 2.872H18.05l-1.643-2.684h-1.34v2.684H13.46V23.52z"/></g></svg>