<svg xmlns="http://www.w3.org/2000/svg" width="58.662" height="58.339" viewBox="0 0 58.662 58.339"><g fill="#F7C906"><path d="M34.577 25.273c1.426-1.427 1.425-3.106.254-4.277-1.145-1.146-2.85-1.172-4.274.254-1.325 1.325-1.325 3.056-.18 4.202 1.17 1.17 2.877 1.146 4.2-.18zM35.11 39.402c-1.17-1.17-2.875-1.144-4.275.257-1.376 1.374-1.376 3.053-.205 4.224 1.172 1.172 2.877 1.197 4.252-.178 1.4-1.4 1.4-3.132.23-4.304z"/><path d="M57.924 33.07L32.44 7.588 30.39 9.64a.684.684 0 0 1-.967-.966l2.053-2.052L25.66.806a2.518 2.518 0 0 0-1.93-.732 2.727 2.727 0 0 0-.616-.072L2.68 0C1.2 0 0 1.2 0 2.68v20.434c0 .85.396 1.606 1.014 2.097.038.044.074.088.114.128l5.816 5.816L8.99 29.11a.68.68 0 0 1 .965 0 .68.68 0 0 1 0 .963L7.91 32.12 33.39 57.6a2.526 2.526 0 0 0 3.57 0l20.96-20.96a2.524 2.524 0 0 0 .002-3.57zM8.832 16.24zm3.95 11.006a.68.68 0 0 1-.964 0 .68.68 0 0 1 0-.964l3.013-3.014a.68.68 0 1 1 .965.965l-3.012 3.013zm5.73-5.727a.68.68 0 1 1-.966-.965l3.014-3.014a.682.682 0 0 1 .965.965l-3.014 3.014zm6.15-6.15a.683.683 0 1 1-.966-.966l3.013-3.012a.68.68 0 1 1 .964.965l-3.012 3.014zm3.602 3.59c2.392-2.39 5.98-2.568 8.58.028 2.622 2.622 2.442 6.213.05 8.604-2.37 2.368-5.88 2.47-8.504-.152-2.596-2.597-2.495-6.11-.126-8.48zm-10.312 15.61l27.83-6.137 1.933 1.934-27.853 6.112-1.91-1.91zM28.646 45.87c-2.598-2.597-2.47-6.135-.102-8.503 2.392-2.393 5.982-2.572 8.58.025s2.442 6.212.05 8.605c-2.368 2.368-5.93 2.47-8.528-.127z"/></g></svg>