<svg xmlns="http://www.w3.org/2000/svg" width="178.326" height="184.402" viewBox="0 0 178.326 184.402"><path fill="#ECECEC" d="M55.69 149.18c3.93-1.058 6.432-4.872 6.3-9.08 1.68.714 3.553.906 5.393.41a8.078 8.078 0 0 0 3.16-1.673c2.998 3.422 7.538 5.075 11.935 3.892a11.024 11.024 0 0 0 3.537-1.675c.347.2.702.38 1.064.544.044.202.093.404.147.604 1.93 7.167 8.835 11.54 15.425 9.764 2.905-.783 5.258-2.634 6.82-5.07.49.097.997.087 1.5-.048 1.532-.413 2.535-1.854 2.575-3.48.73-.59 1.37-1.288 1.89-2.078 1.46.804 3.167 1.078 4.84.626a6.35 6.35 0 0 0 .79-.274c2.053 1.274 4.52 1.736 6.93 1.087 3.04-.817 5.266-3.212 6.168-6.184a8.718 8.718 0 0 0 1.42-1.95c1.222-2.294 1.395-4.954.7-7.365-.274-2.964-1.836-5.8-4.43-7.477-3.244-2.094-7.14-1.753-9.84.526-1.688-1.912-4.235-2.835-6.702-2.17a6.24 6.24 0 0 0-2.677 1.515c-.912-2.896-3.758-4.637-6.48-3.903-1.172.316-2.13 1.043-2.794 2a4.907 4.907 0 0 0-2.694-.048 4.944 4.944 0 0 0-2.612 1.747c-2.86-2.22-6.533-3.142-10.11-2.177-1.304.35-2.49.926-3.54 1.674-2.6-1.493-5.667-2.01-8.667-1.202-2.997.808-5.39 2.79-6.885 5.383-1.918-1.123-4.188-1.524-6.41-.925-3.93 1.06-6.433 4.872-6.302 9.08-1.68-.714-3.55-.905-5.39-.41-4.658 1.254-7.325 6.377-5.96 11.44 1.363 5.064 6.242 8.152 10.898 6.898z"/><path fill="#FFD17C" d="M120.067 70.136c-8.595.017-15.124-6.896-14.896 1.556l-1.85 59.425 31.56 15.91 1.16-61.636c-.223-8.445-7.373-15.275-15.973-15.254z"/><path fill="#FFD17C" d="M100.796 69.887c-.004 12.45 9.99 22.497 22.317 22.444 12.328-.05 22.322-10.183 22.325-22.632l.003-16.432c0-12.446-9.99-9.815-22.32-9.763-12.33.052-22.32-2.492-22.325 9.955v16.43z"/><path fill="#FFD17C" d="M137.54 16.256c.278-3.294 2.872-5.775 5.793-5.542 2.924.236 5.066 3.095 4.79 6.39l-2.64 33.038c-.278 3.293-2.872 5.775-5.794 5.54-2.925-.23-5.064-3.094-4.784-6.387l2.633-33.04zM123.012 6.01c0-3.306 2.38-6 5.308-6.01 2.934-.01 5.31 2.657 5.31 5.965l.26 43.83c.002 3.306-2.377 5.998-5.308 6.01-2.93.013-5.308-2.658-5.306-5.965l-.264-43.83z"/><path fill="#EBB36F" d="M143.016 81.427c-7.878 3.07-15.77.613-17.627-5.48-1.86-6.096 3.022-13.523 10.9-16.59s15.768-.613 17.628 5.482c1.856 6.093-3.023 13.52-10.902 16.587z"/><path opacity=".19" d="M104.556 95.3l-.016-4.055 31.493-.126.016 4.053z"/><path fill="#FFD17C" d="M108.37 12.024c-.274-3.296 1.868-6.178 4.788-6.434 2.92-.256 5.51 2.205 5.787 5.5l3.62 40.465c.274 3.295-1.87 6.175-4.788 6.43-2.92.26-5.512-2.203-5.787-5.498l-3.62-40.463z"/><path fill="#FFC3BF" d="M102.714 108.567l-.06-15.14 37.862-.15.06 15.142z"/><path fill="#FFD17C" d="M126.677 83.52c-3.974-5.272-1.482-14.066 5.565-19.642 3.972-3.14 8.543-4.59 12.488-4.312l12.682-16.25c1.99-2.55 5.628-2.944 8.128-.876 2.503 2.064 2.915 5.807.925 8.356l-7.098 9.097c-3.714 6.426-2.568 6.176-5.74 13.237-.122.273-.25.535-.378.8-1.133 3.258-3.392 6.486-6.62 9.042-7.046 5.576-15.98 5.82-19.953.55z"/><path fill="#0081E1" d="M100.84 142.004l-.09-40.23 40.768-.09.09 40.23z"/><path fill="#FFD17C" d="M96.077 24.466c-.523-3.067 1.252-5.942 3.97-6.42 2.717-.477 5.343 1.623 5.87 4.69l5.542 31.5c.525 3.065-1.254 5.94-3.97 6.416-2.716.477-5.345-1.623-5.87-4.69l-5.543-31.496z"/><circle fill="#0081E1" cx="106.139" cy="97.42" r="2.056"/><path opacity=".1" d="M100.774 101.77l.09 40.23 40.678-40.318z"/><path fill="#FFD17C" d="M58.52 70.136c8.596.017 15.124-6.896 14.897 1.556l1.85 59.425-31.558 15.91-1.162-61.636c.223-8.445 7.373-15.275 15.973-15.254z"/><path fill="#FFD17C" d="M78.382 70.22c.082 12.546-2.622 18.31-15.09 18.18v4.35C50.83 92.62 40.658 82.348 40.578 69.8l-.105-16.56c-.078-12.544 10.042-9.83 22.51-9.7 12.467.13 15.736-2.56 15.82 9.986l-.42 16.693z"/><path fill="#FFD17C" d="M48.626 15.537c-.273-3.294-2.864-5.78-5.786-5.55-2.924.23-5.07 3.086-4.798 6.382l2.59 33.04c.272 3.295 2.86 5.78 5.784 5.55 2.925-.227 5.07-3.086 4.793-6.38l-2.584-33.043zM65.725 7.46c0-3.307-2.38-6-5.308-6.01-2.933-.012-5.31 2.657-5.31 5.964l-.26 43.832c-.002 3.305 2.377 5.996 5.308 6.01 2.93.012 5.308-2.66 5.306-5.966l.265-43.83z"/><path fill="#EBB36F" d="M42.82 81.427c7.878 3.07 15.77.613 17.628-5.48 1.86-6.096-3.022-13.523-10.9-16.59-7.88-3.067-15.77-.613-17.63 5.482-1.855 6.093 3.025 13.52 10.903 16.587z"/><path opacity=".19" d="M42.717 95.18l.015-4.054 31.314.113-.015 4.053z"/><path fill="#FFD17C" d="M82.545 21.604c.396-3.283-1.638-6.242-4.545-6.606-2.91-.365-5.59 2-5.988 5.28l-5.12 40.304c-.396 3.28 1.64 6.24 4.546 6.604 2.907.365 5.59-1.998 5.987-5.28l5.12-40.302z"/><path fill="#FFC3BF" d="M38.018 108.423l.06-15.14 37.86.147-.06 15.14z"/><path fill="#FFD17C" d="M59.16 83.52c3.974-5.272 1.482-14.066-5.565-19.642-3.97-3.14-8.542-4.59-12.488-4.312l-12.68-16.25c-1.99-2.55-5.63-2.943-8.13-.875-2.502 2.065-2.915 5.808-.924 8.357l7.097 9.097c3.714 6.426 2.57 6.176 5.74 13.237.122.274.25.536.378.802 1.133 3.257 3.39 6.485 6.618 9.04 7.047 5.576 15.98 5.82 19.954.55z"/><path fill="#0081E1" d="M36.985 141.907l.09-40.23 40.767.09-.09 40.23z"/><circle fill="#0081E1" cx="72.45" cy="97.42" r="2.056"/><path opacity=".1" d="M37.046 101.77l.09 40.23 40.68-40.318z"/><circle fill="#FFF" cx="52.842" cy="43.287" r="1.993"/><path fill="#EDFAFF" d="M38.72 152.506c5.548 0 10.194-3.8 11.513-8.937a11.83 11.83 0 0 0 6.953 2.255c1.69 0 3.297-.357 4.752-.993 2.732 5.116 8.123 8.6 14.33 8.6 1.837 0 3.602-.312 5.25-.874.385.354.79.69 1.207 1.007-.012.26-.02.52-.02.782 0 9.3 7.538 16.842 16.842 16.842 4.1 0 7.855-1.474 10.776-3.91.607.272 1.28.43 1.988.43a4.86 4.86 0 0 0 4.625-3.373 12.614 12.614 0 0 0 3.224-1.9 9.258 9.258 0 0 0 6.15 2.337c.385 0 .763-.03 1.137-.076a12.422 12.422 0 0 0 8.736 3.576c4.292 0 8.07-2.172 10.312-5.474a11.862 11.862 0 0 0 2.56-1.896 11.8 11.8 0 0 0 3.534-8.686c.69-3.677-.36-7.62-3.182-10.49-3.526-3.594-8.774-4.452-13.136-2.573a9.145 9.145 0 0 0-8.055-4.81 9.11 9.11 0 0 0-4.06.96c-.174-3.802-3.303-6.834-7.147-6.834a7.12 7.12 0 0 0-4.386 1.51 7.113 7.113 0 0 0-3.53-.937 7.12 7.12 0 0 0-4.058 1.263c-2.976-3.62-7.484-5.934-12.537-5.934-1.84 0-3.605.31-5.252.873a16.18 16.18 0 0 0-10.98-4.28 16.17 16.17 0 0 0-10.972 4.27 11.845 11.845 0 0 0-8.11-3.21c-5.548 0-10.195 3.8-11.515 8.936a11.83 11.83 0 0 0-6.95-2.253c-6.575 0-11.902 5.327-11.902 11.9 0 6.572 5.328 11.9 11.903 11.9z"/><circle fill="#FFF" cx="67.294" cy="43.287" r="1.767"/><circle fill="#FFF" cx="110.362" cy="43.561" r=".799"/><circle fill="#FFF" cx="122.555" cy="43.539" r=".701"/><circle fill="#FFF" cx="134.606" cy="43.357" r=".792"/><path fill="#FFF" d="M12.972 164.04c6.046 0 11.11-4.143 12.547-9.74a12.925 12.925 0 0 0 12.758 1.376c2.977 5.577 8.852 9.372 15.617 9.372 2.003 0 3.926-.338 5.722-.95.42.385.86.752 1.315 1.096-.013.283-.02.567-.02.853 0 10.137 8.215 18.356 18.355 18.356a18.25 18.25 0 0 0 11.744-4.263c.664.3 1.396.47 2.168.47a5.298 5.298 0 0 0 5.04-3.676 13.722 13.722 0 0 0 3.514-2.07 10.086 10.086 0 0 0 6.704 2.547c.42 0 .832-.033 1.24-.082a13.543 13.543 0 0 0 9.522 3.897c4.677 0 8.795-2.368 11.24-5.966a12.87 12.87 0 0 0 2.788-2.068c2.64-2.592 3.92-6.038 3.853-9.466.75-4.01-.394-8.305-3.468-11.436-3.843-3.914-9.563-4.85-14.317-2.803a9.966 9.966 0 0 0-8.78-5.24c-1.59 0-3.09.38-4.425 1.044-.188-4.142-3.6-7.45-7.788-7.45a7.76 7.76 0 0 0-4.78 1.647 7.76 7.76 0 0 0-3.848-1.02 7.76 7.76 0 0 0-4.422 1.376c-3.244-3.946-8.158-6.468-13.665-6.468-2.004 0-3.928.34-5.725.953a17.625 17.625 0 0 0-11.967-4.665c-4.61 0-8.81 1.765-11.958 4.652a12.91 12.91 0 0 0-8.84-3.497c-6.045 0-11.11 4.14-12.55 9.737a12.89 12.89 0 0 0-7.574-2.457C5.806 138.098 0 143.906 0 151.068c0 7.165 5.806 12.972 12.972 12.972z"/><path opacity=".1" d="M137.513 56.425a2.174 2.174 0 0 1-2.175 2.175H49.444c-1.2 0-2.174-.973-2.174-2.175V31.78c0-1.2.974-2.174 2.174-2.174h85.894c1.202 0 2.175.973 2.175 2.174v24.645z"/><path fill="#00A184" d="M137.513 54.977c0 1.2-.973 2.174-2.175 2.174H49.444c-1.2 0-2.174-.973-2.174-2.173V30.33c0-1.2.974-2.174 2.174-2.174h85.894c1.202 0 2.175.974 2.175 2.175v24.647z"/><path fill="#FFF" d="M93 174.323c4.125-1.578 6.5-5.727 6.022-9.922 1.858.496 3.88.44 5.813-.3a9.408 9.408 0 0 0 3.254-2.09 12.923 12.923 0 0 0 16.763.18c.388.154.783.29 1.184.406.065.195.133.392.208.587 2.646 6.92 10.398 10.386 17.32 7.74a13.334 13.334 0 0 0 6.904-5.973c.53.03 1.073-.044 1.6-.246a3.87 3.87 0 0 0 2.482-3.824 10.04 10.04 0 0 0 1.86-2.33c1.63.612 3.482.662 5.24-.01.286-.11.558-.24.823-.38a9.896 9.896 0 0 0 7.517.175 9.912 9.912 0 0 0 6.115-7.004c.535-.635 1-1.345 1.363-2.138a9.395 9.395 0 0 0 .16-7.467 9.416 9.416 0 0 0-5.35-6.902c-3.645-1.67-7.793-.815-10.504 1.824a7.283 7.283 0 0 0-7.36-1.287 7.24 7.24 0 0 0-2.748 1.867 5.702 5.702 0 0 0-7.26-3.053 5.676 5.676 0 0 0-2.834 2.37 5.67 5.67 0 0 0-2.892.308 5.675 5.675 0 0 0-2.66 2.093 12.896 12.896 0 0 0-11.014-.85 12.87 12.87 0 0 0-3.66 2.145 12.887 12.887 0 0 0-9.386-.062 12.894 12.894 0 0 0-6.95 6.297 9.428 9.428 0 0 0-6.946-.08c-4.126 1.575-6.503 5.724-6.025 9.92a9.432 9.432 0 0 0-5.81.3c-4.892 1.87-7.34 7.348-5.47 12.237 1.868 4.892 7.346 7.34 12.24 5.47z"/><g fill="#FFF"><path d="M65.752 39.203l-2.798.31c-.068-.577-.247-1.002-.535-1.276s-.663-.412-1.123-.412c-.61 0-1.126.274-1.548.823-.423.55-.69 1.69-.798 3.426.72-.85 1.615-1.275 2.685-1.275 1.207 0 2.24.458 3.102 1.377.86.92 1.29 2.105 1.29 3.56 0 1.543-.453 2.78-1.358 3.714s-2.068 1.4-3.487 1.4c-1.523 0-2.774-.592-3.755-1.775-.98-1.183-1.47-3.122-1.47-5.817 0-2.764.51-4.756 1.532-5.977s2.35-1.83 3.98-1.83c1.147 0 2.095.32 2.846.962s1.228 1.57 1.434 2.79zM59.2 45.51c0 .938.215 1.664.647 2.175s.926.767 1.48.767c.536 0 .98-.21 1.338-.628.357-.418.535-1.104.535-2.057 0-.98-.192-1.7-.576-2.155s-.864-.685-1.44-.685c-.556 0-1.025.218-1.41.653s-.575 1.078-.575 1.93zM75.072 50.59h-2.89V39.697a9.944 9.944 0 0 1-3.735 2.19v-2.622c.754-.247 1.574-.715 2.458-1.404s1.492-1.493 1.82-2.412h2.347V50.59zM92.643 50.59h-2.89V39.697a9.944 9.944 0 0 1-3.735 2.19v-2.622c.754-.247 1.574-.715 2.458-1.404s1.492-1.493 1.82-2.412h2.347V50.59zM97.004 46.713l2.88-.3c.083.652.326 1.17.73 1.55.405.38.87.57 1.4.57.603 0 1.114-.245 1.532-.735.418-.49.627-1.23.627-2.217 0-.925-.208-1.62-.623-2.082s-.955-.694-1.62-.694c-.83 0-1.574.366-2.232 1.1l-2.345-.34 1.48-7.848h7.645v2.705h-5.452l-.453 2.563a4.375 4.375 0 0 1 1.975-.483c1.282 0 2.37.467 3.26 1.4.892.932 1.338 2.142 1.338 3.63 0 1.24-.36 2.35-1.08 3.323-.98 1.33-2.342 1.995-4.084 1.995-1.392 0-2.527-.373-3.405-1.12-.877-.75-1.402-1.753-1.573-3.015zM118.443 47.906v2.685H108.31a6.98 6.98 0 0 1 .988-2.885c.55-.908 1.632-2.114 3.25-3.616 1.304-1.215 2.103-2.037 2.397-2.47.398-.597.597-1.187.597-1.77 0-.645-.173-1.14-.52-1.486-.346-.346-.825-.52-1.435-.52-.604 0-1.083.182-1.44.546-.357.363-.562.967-.617 1.81l-2.88-.287c.17-1.592.71-2.733 1.615-3.426s2.037-1.04 3.395-1.04c1.488 0 2.657.402 3.508 1.204.85.804 1.276 1.802 1.276 2.995a5.21 5.21 0 0 1-.365 1.938c-.245.614-.63 1.257-1.158 1.93-.35.445-.98 1.087-1.893 1.923-.913.837-1.49 1.393-1.734 1.667s-.44.542-.59.803h5.737zM130.16 47.906v2.685h-10.133a6.98 6.98 0 0 1 .988-2.885c.55-.908 1.632-2.114 3.25-3.616 1.304-1.215 2.103-2.037 2.397-2.47.398-.597.597-1.187.597-1.77 0-.645-.174-1.14-.52-1.486-.347-.346-.826-.52-1.436-.52-.604 0-1.083.182-1.44.546-.357.363-.562.967-.617 1.81l-2.88-.287c.17-1.592.71-2.733 1.615-3.426s2.037-1.04 3.395-1.04c1.488 0 2.657.402 3.508 1.204.85.804 1.276 1.802 1.276 2.995a5.21 5.21 0 0 1-.364 1.938c-.244.614-.63 1.257-1.157 1.93-.35.445-.982 1.087-1.894 1.923-.912.837-1.49 1.393-1.734 1.667-.243.274-.44.542-.59.803h5.738z"/></g></svg>