<svg xmlns="http://www.w3.org/2000/svg" width="143.807" height="130.721" viewBox="0 0 143.807 130.721"><path fill="#ECECEC" d="M91.784 19.683c1.615-3.392 1.932-6.46 8.4-6.46h37.16a6.463 6.463 0 0 1 6.463 6.46v14.7a6.464 6.464 0 0 1-6.463 6.463h-37.16c-3.568 0-13.57-2.894-13.57-6.462l5.17-14.7z"/><path opacity=".1" fill="#585757" d="M115.3 19.683c-1.616-3.392-1.933-6.46-8.4-6.46H69.74a6.462 6.462 0 0 0-6.463 6.46v14.7a6.462 6.462 0 0 0 6.462 6.463h37.16c3.57 0 13.57-2.894 13.57-6.462l-5.17-14.7z"/><path fill="#C5C5C5" d="M114.446 19.683c-1.615-3.392-1.933-6.46-8.4-6.46H68.884a6.46 6.46 0 0 0-6.46 6.46v14.7a6.462 6.462 0 0 0 6.46 6.463h37.16c3.57 0 13.57-2.894 13.57-6.462l-5.168-14.7z"/><path opacity=".15" d="M84.236 19.683c-1.616-3.392-1.068-6.46-7.536-6.46H39.54a6.462 6.462 0 0 0-6.462 6.46v14.7a6.462 6.462 0 0 0 6.462 6.463H76.7c3.57 0 12.705-2.894 12.705-6.462l-5.17-14.7z"/><path fill="#585757" d="M143.807 95.355c0 4.068-3.3 7.366-7.367 7.366H38.715a7.367 7.367 0 0 1-7.367-7.365V29.55a7.366 7.366 0 0 1 7.367-7.365h97.725a7.367 7.367 0 0 1 7.367 7.365v65.805z"/><path fill="#585757" d="M83.37 19.683c-1.614-3.392-1.93-6.46-8.4-6.46H37.81a6.462 6.462 0 0 0-6.462 6.46v14.7a6.463 6.463 0 0 0 6.462 6.463h37.16c3.57 0 13.572-2.894 13.572-6.462l-5.17-14.7z"/><path fill="#464646" d="M33.385 96.285a4.516 4.516 0 0 0 4.517 4.515h99.353a4.516 4.516 0 0 0 4.516-4.515V28.62a4.517 4.517 0 0 0-4.515-4.514H37.902a4.516 4.516 0 0 0-4.517 4.515v67.665z"/><path opacity=".15" d="M79.65 18.266a2.307 2.307 0 0 1-4.612 0 2.306 2.306 0 0 1 4.612 0zM111.79 18.266a2.306 2.306 0 0 1-2.305 2.307 2.308 2.308 0 0 1-2.307-2.307 2.307 2.307 0 0 1 4.612 0zM140.616 18.266a2.308 2.308 0 0 1-4.614 0 2.308 2.308 0 0 1 4.614 0h-.002z"/><path opacity=".15" d="M137.344 13.222H37.81a6.462 6.462 0 0 0-6.462 6.46v75.674a7.366 7.366 0 0 0 7.367 7.366h97.725a7.367 7.367 0 0 0 7.367-7.366V19.683c0-3.57-2.894-6.46-6.463-6.46z"/><g><path fill="#ECECEC" d="M79.025 34.692c1.87-3.922 2.234-7.472 9.715-7.472h42.974a7.473 7.473 0 0 1 7.473 7.472v17a7.474 7.474 0 0 1-7.473 7.474H88.74c-4.128 0-15.693-3.347-15.693-7.473l5.978-17z"/><path opacity=".1" fill="#585757" d="M106.47 34.692c-1.87-3.922-2.235-7.472-9.716-7.472H53.782a7.473 7.473 0 0 0-7.473 7.472v17a7.474 7.474 0 0 0 7.472 7.474h42.973c4.128 0 15.693-3.347 15.693-7.473l-5.98-17z"/><path fill="#C5C5C5" d="M105.482 34.692c-1.868-3.922-2.235-7.472-9.715-7.472H52.794a7.473 7.473 0 0 0-7.473 7.472v17a7.474 7.474 0 0 0 7.474 7.474h42.973c4.128 0 15.692-3.347 15.692-7.473l-5.978-17z"/><path opacity=".15" d="M70.547 34.692c-1.87-3.922-1.234-7.472-8.715-7.472H18.86a7.473 7.473 0 0 0-7.474 7.472v17a7.474 7.474 0 0 0 7.473 7.474H61.83c4.127 0 14.693-3.347 14.693-7.473l-5.978-17z"/><path fill="#585757" d="M139.436 122.202a8.52 8.52 0 0 1-8.52 8.52H17.906a8.518 8.518 0 0 1-8.52-8.52V46.104a8.52 8.52 0 0 1 8.52-8.518h113.01a8.52 8.52 0 0 1 8.52 8.518v76.098z"/><path fill="#585757" d="M69.547 34.692c-1.87-3.922-2.234-7.472-9.715-7.472H16.86a7.473 7.473 0 0 0-7.474 7.472v17a7.474 7.474 0 0 0 7.473 7.474H59.83c4.127 0 15.693-3.347 15.693-7.473l-5.978-17z"/><path fill="#464646" d="M11.742 123.277a5.222 5.222 0 0 0 5.223 5.222h114.893a5.222 5.222 0 0 0 5.222-5.223V45.03a5.223 5.223 0 0 0-5.222-5.223H16.965a5.223 5.223 0 0 0-5.223 5.222v78.247z"/><path opacity=".15" d="M65.245 33.054a2.667 2.667 0 0 1-5.334 0 2.668 2.668 0 0 1 5.334 0zM102.41 33.054a2.668 2.668 0 0 1-5.334 0 2.667 2.667 0 0 1 5.334 0zM135.745 33.054a2.668 2.668 0 0 1-5.334 0 2.667 2.667 0 0 1 5.334 0h-.002z"/><g fill="#EE6565"><path d="M22.513 58.743l-5.89-2.56v-1.42l5.89-2.548v1.67l-4.107 1.57 4.107 1.63v1.658zM24.582 57.507l-.428-4.36v-2.015h1.78v2.016l-.42 4.36h-.932zm-.358 2.215v-1.646h1.646v1.646h-1.646zM27.94 51.132h3.17c.714 0 1.26.055 1.634.164.504.148.936.412 1.295.79s.632.844.82 1.393.28 1.225.28 2.03c0 .706-.088 1.315-.264 1.827-.215.625-.52 1.13-.92 1.518-.3.293-.707.52-1.22.686-.382.122-.894.183-1.534.183h-3.264v-8.59zm1.733 1.453v5.69h1.295c.484 0 .834-.028 1.05-.083.28-.07.514-.19.7-.357s.336-.444.453-.83.177-.908.177-1.572-.06-1.174-.176-1.53-.28-.632-.49-.83-.48-.335-.804-.405c-.242-.055-.717-.082-1.424-.082h-.78zM36.26 55.48c0-.876.13-1.61.392-2.204.195-.438.462-.83.8-1.178s.708-.605 1.11-.773c.535-.227 1.152-.34 1.852-.34 1.266 0 2.278.393 3.038 1.178s1.14 1.877 1.14 3.275c0 1.387-.377 2.472-1.13 3.255s-1.763 1.175-3.024 1.175c-1.277 0-2.293-.39-3.047-1.17s-1.13-1.85-1.13-3.22zm1.786-.06c0 .974.225 1.71.674 2.213s1.02.753 1.71.753 1.26-.25 1.703-.747.665-1.246.665-2.242c0-.984-.216-1.72-.647-2.203s-1.004-.727-1.72-.727-1.29.245-1.728.735-.656 1.23-.656 2.218zM51.44 56.563l1.683.533c-.258.938-.687 1.634-1.286 2.09s-1.36.682-2.282.682c-1.14 0-2.078-.39-2.812-1.17s-1.102-1.844-1.102-3.195c0-1.43.37-2.54 1.108-3.33s1.71-1.188 2.912-1.188c1.05 0 1.904.31 2.56.932.392.367.685.895.88 1.582l-1.717.41c-.102-.446-.313-.798-.636-1.056s-.714-.387-1.175-.387c-.637 0-1.153.23-1.55.686s-.595 1.197-.595 2.22c0 1.087.195 1.86.586 2.32s.898.692 1.523.692c.46 0 .857-.146 1.19-.44s.57-.753.715-1.382zM56.544 59.722v-7.137h-2.55v-1.453h6.827v1.453H58.28v7.137h-1.734zM64.197 59.722v-3.615l-3.146-4.975h2.034l2.02 3.398 1.98-3.398h2l-3.16 4.986v3.604h-1.727zM69.945 59.722v-8.59h2.783c1.055 0 1.742.043 2.062.13.492.128.904.408 1.236.84s.498.99.498 1.673c0 .527-.096.97-.287 1.33s-.435.642-.73.847-.594.34-.898.407c-.415.08-1.015.122-1.8.122h-1.13v3.24h-1.735zm1.734-7.137v2.438h.948c.684 0 1.14-.045 1.37-.135s.412-.23.543-.422.197-.414.197-.668c0-.312-.092-.57-.275-.773s-.416-.33-.697-.38c-.207-.04-.623-.06-1.248-.06h-.838zM77.95 59.722v-8.59h6.368v1.453h-4.635v1.904h4.312v1.446h-4.312v2.338h4.8v1.447h-6.534zM85.636 58.75v-1.66l4.113-1.616-4.114-1.6v-1.646l5.895 2.55v1.405l-5.894 2.566z"/></g><g fill="#8BDC19"><path d="M22.853 73.743l-5.89-2.56v-1.42l5.89-2.548v1.67l-4.107 1.57 4.107 1.63v1.658zM24.294 74.722v-8.59h1.734v3.38h3.398v-3.38h1.734v8.59h-1.734v-3.756h-3.398v3.756h-1.734zM34.888 74.722v-7.137h-2.55v-1.453h6.827v1.453h-2.543v7.137h-1.734zM40.26 74.722v-8.59h2.597l1.56 5.86 1.54-5.86h2.602v8.59h-1.612V67.96l-1.705 6.762h-1.67l-1.7-6.762v6.762h-1.612zM50.327 74.722v-8.52h1.734v7.072h4.313v1.447h-6.046zM57.294 73.75v-1.66l4.113-1.616-4.113-1.6v-1.646l5.895 2.55v1.405l-5.896 2.566z"/></g><g fill="#FFF"><path d="M23.063 107.244l-5.89-2.56v-1.42l5.89-2.548v1.67l-4.107 1.57 4.107 1.63v1.658zM25.547 103.588c-.426-.18-.735-.426-.93-.74s-.29-.66-.29-1.035c0-.64.225-1.17.672-1.588s1.082-.627 1.906-.627c.816 0 1.45.21 1.9.627s.678.947.678 1.588c0 .398-.104.754-.31 1.064s-.5.547-.874.71c.477.192.84.472 1.087.84s.372.79.372 1.27c0 .793-.254 1.438-.76 1.934s-1.18.745-2.02.745c-.78 0-1.43-.205-1.95-.615-.613-.484-.92-1.148-.92-1.992 0-.465.115-.89.346-1.28s.595-.69 1.09-.9zm.188 2.02c0 .454.116.808.35 1.062s.52.38.87.38c.34 0 .62-.12.843-.364s.334-.598.334-1.06c0-.4-.113-.724-.34-.968s-.514-.367-.86-.367c-.403 0-.703.14-.9.417s-.297.578-.297.902zm.152-3.678c0 .328.093.584.278.768s.433.275.74.275c.313 0 .563-.092.75-.277s.282-.443.282-.77c0-.31-.093-.556-.278-.74s-.432-.28-.736-.28c-.316 0-.568.094-.756.28s-.28.435-.28.744zM36.387 101.736l-1.594.176c-.04-.328-.14-.57-.305-.727s-.377-.234-.64-.234c-.347 0-.64.157-.88.47s-.393.963-.455 1.95c.41-.483.92-.726 1.53-.726.687 0 1.275.262 1.766.785s.734 1.198.734 2.026c0 .88-.258 1.584-.773 2.115s-1.177.798-1.985.798c-.867 0-1.58-.336-2.14-1.01s-.837-1.78-.837-3.314c0-1.574.29-2.71.873-3.404s1.34-1.043 2.27-1.043c.65 0 1.19.184 1.62.55s.7.894.817 1.59zm-3.732 3.592c0 .535.123.95.37 1.24s.526.436.843.436c.305 0 .56-.12.762-.357s.305-.63.305-1.172c0-.56-.11-.967-.328-1.227s-.492-.39-.82-.39c-.316 0-.584.124-.803.372s-.33.614-.33 1.098zM37.506 106.014l1.64-.17c.048.37.187.666.417.883s.496.324.797.324c.344 0 .635-.138.873-.417s.357-.7.357-1.264c0-.528-.118-.923-.354-1.187s-.544-.396-.923-.396c-.473 0-.896.21-1.27.627l-1.337-.193.844-4.47h4.354v1.54H39.8l-.26 1.46a2.483 2.483 0 0 1 1.126-.275c.73 0 1.35.266 1.857.797s.762 1.22.762 2.068c0 .707-.205 1.338-.615 1.893-.56.758-1.334 1.137-2.326 1.137-.793 0-1.44-.213-1.94-.64s-.8-.998-.898-1.716zM50.72 108.223v-1.73h-3.517v-1.44l3.727-5.455h1.383v5.45h1.066v1.446h-1.067v1.73H50.72zm0-3.176v-2.936l-1.976 2.937h1.975zM57.393 108.223v-1.73h-3.516v-1.44l3.727-5.455h1.383v5.45h1.066v1.446h-1.066v1.73h-1.594zm0-3.176v-2.936l-1.975 2.937h1.975zM65.05 108.223h-1.645v-6.205c-.602.562-1.31.98-2.127 1.248v-1.494c.43-.14.896-.406 1.4-.8s.85-.85 1.037-1.374h1.336v8.625zM76.706 105.064l1.682.533c-.258.938-.687 1.635-1.286 2.09s-1.36.682-2.282.682c-1.14 0-2.078-.39-2.812-1.17s-1.102-1.845-1.102-3.196c0-1.43.37-2.54 1.107-3.33s1.71-1.188 2.912-1.188c1.05 0 1.904.31 2.56.932.392.367.685.895.88 1.582l-1.717.41c-.102-.445-.313-.797-.636-1.055s-.714-.387-1.175-.387c-.637 0-1.153.23-1.55.686s-.595 1.197-.595 2.22c0 1.087.195 1.86.586 2.32s.898.692 1.523.692c.462 0 .858-.146 1.19-.44s.57-.753.716-1.382zM87.323 108.223h-1.887l-.75-1.95h-3.434l-.71 1.95h-1.84l3.347-8.59h1.833l3.44 8.59zm-3.194-3.4l-1.185-3.187-1.16 3.188h2.344zM88.266 99.633h1.623v5.72l3.48-5.72h1.728v8.59h-1.623v-5.607L90 108.223h-1.734v-8.59zm4.453-2.14h.802c-.047.532-.233.95-.56 1.253s-.75.453-1.27.453-.94-.15-1.268-.454-.513-.72-.56-1.252h.803c.027.277.125.488.293.63s.412.214.732.214.564-.07.732-.213.268-.354.295-.63zM98.8 108.223v-7.137h-2.548v-1.453h6.826v1.453h-2.543v7.137H98.8zM103.547 103.98c0-.875.13-1.61.393-2.203.195-.438.462-.83.8-1.178s.708-.606 1.11-.774c.535-.227 1.152-.34 1.852-.34 1.266 0 2.278.393 3.038 1.178s1.14 1.877 1.14 3.275c0 1.386-.377 2.472-1.13 3.255s-1.763 1.174-3.024 1.174c-1.277 0-2.293-.39-3.047-1.17s-1.133-1.852-1.133-3.22zm1.787-.058c0 .973.225 1.71.674 2.213s1.02.752 1.71.752 1.26-.248 1.703-.746.666-1.245.666-2.24c0-.985-.216-1.72-.647-2.204s-1.006-.727-1.72-.727-1.292.245-1.73.735-.656 1.23-.656 2.217zM113.24 99.633h3.433c.68 0 1.187.03 1.52.086s.634.173.897.353.483.42.66.72.263.632.263 1.003c0 .402-.108.77-.325 1.107s-.51.588-.882.756c.523.15.926.41 1.207.778s.422.8.422 1.295c0 .39-.09.77-.272 1.14s-.43.665-.744.886-.703.354-1.164.405c-.29.03-.986.05-2.092.06h-2.924v-8.592zm1.733 1.43v1.985h1.137c.676 0 1.096-.01 1.26-.03.297-.034.53-.136.7-.306s.255-.395.255-.672c0-.266-.073-.48-.22-.646s-.364-.268-.653-.303c-.172-.02-.666-.028-1.482-.028h-.997zm0 3.416v2.296h1.605c.625 0 1.02-.018 1.19-.053.257-.047.467-.16.63-.342s.242-.425.242-.73c0-.257-.062-.476-.188-.655s-.306-.31-.542-.393-.75-.123-1.538-.123h-1.4zM121.583 107.25v-1.658l4.113-1.617-4.113-1.6v-1.646l5.895 2.548v1.406l-5.895 2.566z"/></g><path fill="#FFF" d="M17.078 79.97h1.25v14.25h-1.25z"/></g><g><path fill="#FFD32D" d="M14.682 16c-2.027 5.135-6.115 9.287-11.29 11.54 5.175 2.245 9.263 6.4 11.29 11.532 2.03-5.133 6.117-9.287 11.296-11.533-5.18-2.253-9.266-6.405-11.296-11.54z"/><path fill="#FF7600" d="M14.682 21.73c-1.018 2.58-3.076 4.67-5.69 5.81 2.614 1.127 4.673 3.223 5.69 5.81 1.023-2.587 3.08-4.683 5.688-5.81-2.608-1.14-4.665-3.23-5.688-5.81z"/></g><g><path fill="#FFD32D" d="M27.183 0c-1.412 3.577-4.26 6.47-7.864 8.038 3.603 1.564 6.45 4.46 7.863 8.034 1.415-3.575 4.26-6.47 7.87-8.034-3.61-1.568-6.456-4.46-7.87-8.038z"/><path fill="#FF7600" d="M27.183 3.99c-.71 1.8-2.143 3.255-3.964 4.048 1.82.785 3.254 2.245 3.963 4.048.713-1.803 2.146-3.263 3.962-4.048-1.817-.793-3.25-2.25-3.962-4.048z"/></g><g><path fill="#FFD32D" d="M4.684 5.75C3.844 7.88 2.146 9.604 0 10.537c2.146.932 3.843 2.656 4.684 4.785.842-2.13 2.538-3.854 4.687-4.785C7.22 9.604 5.527 7.88 4.685 5.75z"/><path fill="#FF7600" d="M4.684 8.127c-.422 1.07-1.276 1.938-2.36 2.41a4.403 4.403 0 0 1 2.36 2.41 4.414 4.414 0 0 1 2.36-2.41 4.435 4.435 0 0 1-2.36-2.41z"/></g></svg>