<svg xmlns="http://www.w3.org/2000/svg" width="148.376" height="115.808" viewBox="0 0 148.376 115.808"><path fill="#868686" d="M99.667 19.563v-3.158c.053 0 9.38 0 9.623-.002a4.508 4.508 0 0 0 4.39-4.538h3.16a7.654 7.654 0 0 1-7.493 7.695c-.09.003-9.584.003-9.68.003z"/><path fill="#B1B1B1" d="M148.376 6.415c0 .453-.414.82-.926.82h-8.312c-.512 0-.926-.367-.926-.82V5.8c0-.452.414-.818.926-.818h8.312c.512 0 .926.366.926.82v.613z"/><path fill="#ECC400" d="M138.788 2.13h6.52v7.956h-6.52z"/><path fill="#868686" d="M116.84 11.997h-3.16c0-4.245 3.454-7.698 7.698-7.698v3.157a4.545 4.545 0 0 0-4.54 4.54z"/><path opacity=".3" fill="#FFF" d="M138.788 3.663h6.52v2.59h-6.52z"/><path fill="#17B5FF" d="M140.108 10.375a.767.767 0 0 1-.768.767h-17.545a.766.766 0 0 1-.766-.767V1.84c0-.423.34-.766.765-.766h17.545c.424 0 .768.343.768.767v8.535z"/><path opacity=".4" fill="#3C3C3B" d="M121.03 8.937v1.438c0 .424.342.767.766.767h17.545a.767.767 0 0 0 .77-.767V8.937h-19.08z"/><path opacity=".2" fill="#FFF" d="M120.983 2.917h19.05V7.26h-19.05z"/><path fill="#868686" d="M116.84 37.59h-3.16c0-2.48-1.938-4.474-4.417-4.54h-9.596v-3.158c.096 0 9.59 0 9.684.003a7.653 7.653 0 0 1 7.49 7.694z"/><path fill="#868686" d="M121.378 45.157c-4.244 0-7.697-3.453-7.697-7.698h3.16a4.545 4.545 0 0 0 4.538 4.54v3.157zM102.233 23.05h21.908v3.157h-21.907z"/><path fill="#B1B1B1" d="M148.376 44.016c0 .453-.414.82-.926.82h-8.312c-.512 0-.926-.367-.926-.82v-.613c0-.453.414-.82.926-.82h8.312c.512 0 .926.367.926.82v.613z"/><path fill="#ECC400" d="M138.788 39.73h6.52v7.958h-6.52z"/><path opacity=".3" fill="#FFF" d="M138.788 41.264h6.52v2.59h-6.52z"/><path fill="#17B5FF" d="M140.108 47.976a.767.767 0 0 1-.768.767h-17.545a.766.766 0 0 1-.766-.767v-8.533c0-.424.34-.767.765-.767h17.545c.424 0 .768.343.768.767v8.533z"/><path opacity=".4" fill="#3C3C3B" d="M121.03 46.54v1.437c0 .424.342.767.766.767h17.545a.767.767 0 0 0 .77-.767V46.54h-19.08z"/><path opacity=".2" fill="#FFF" d="M120.983 40.518h19.05v4.343h-19.05z"/><path fill="#B1B1B1" d="M148.376 25.265c0 .452-.414.82-.926.82h-8.312c-.512 0-.926-.368-.926-.82v-.614c0-.45.414-.818.926-.818h8.312c.512 0 .926.367.926.82v.613z"/><path fill="#ECC400" d="M138.788 20.98h6.52v7.957h-6.52z"/><path opacity=".3" fill="#FFF" d="M138.788 22.513h6.52v2.59h-6.52z"/><path fill="#17B5FF" d="M140.108 29.224a.768.768 0 0 1-.768.768h-17.545a.766.766 0 0 1-.766-.768v-8.532c0-.424.34-.767.765-.767h17.545c.424 0 .768.343.768.767v8.532z"/><path opacity=".4" fill="#3C3C3B" d="M121.03 27.787v1.438c0 .424.342.768.766.768h17.545a.768.768 0 0 0 .77-.768v-1.438h-19.08z"/><path opacity=".2" fill="#FFF" d="M120.983 21.767h19.05v4.342h-19.05z"/><g><path fill="#868686" d="M48.708 19.563v-3.158c-.053 0-9.38 0-9.623-.002a4.508 4.508 0 0 1-4.39-4.538h-3.16a7.654 7.654 0 0 0 7.493 7.695c.09.003 9.584.003 9.68.003z"/><path fill="#B1B1B1" d="M0 6.415c0 .453.413.82.925.82h8.312c.512 0 .926-.367.926-.82V5.8c0-.452-.414-.818-.926-.818H.925c-.512 0-.926.366-.926.82v.613z"/><path fill="#ECC400" d="M3.067 2.13h6.52v7.956h-6.52z"/><path fill="#868686" d="M31.536 11.997h3.158c0-4.245-3.453-7.698-7.697-7.698v3.157a4.545 4.545 0 0 1 4.54 4.54z"/><path opacity=".3" fill="#FFF" d="M3.067 3.663h6.52v2.59h-6.52z"/><path fill="#17B5FF" d="M8.267 10.375c0 .424.344.767.768.767H26.58a.766.766 0 0 0 .766-.767V1.84a.766.766 0 0 0-.766-.766H9.034a.767.767 0 0 0-.768.767v8.535z"/><path opacity=".4" fill="#3C3C3B" d="M27.345 8.937v1.438a.766.766 0 0 1-.766.767H9.033a.767.767 0 0 1-.768-.767V8.937h19.08z"/><path opacity=".2" fill="#FFF" d="M8.343 2.917h19.05V7.26H8.342z"/><path fill="#868686" d="M31.536 37.59h3.158c0-2.48 1.94-4.474 4.418-4.54h9.596v-3.158c-.096 0-9.59 0-9.684.003a7.653 7.653 0 0 0-7.488 7.694z"/><path fill="#868686" d="M26.997 45.157c4.244 0 7.697-3.453 7.697-7.698h-3.158a4.545 4.545 0 0 1-4.54 4.54v3.157zM24.233 23.05H46.14v3.157H24.234z"/><path fill="#B1B1B1" d="M0 44.016c0 .453.413.82.925.82h8.312c.512 0 .926-.367.926-.82v-.613c0-.453-.414-.82-.926-.82H.925c-.512 0-.926.367-.926.82v.613z"/><path fill="#ECC400" d="M3.067 39.73h6.52v7.958h-6.52z"/><path opacity=".3" fill="#FFF" d="M3.067 41.264h6.52v2.59h-6.52z"/><path fill="#17B5FF" d="M8.267 47.976c0 .424.344.767.768.767H26.58a.766.766 0 0 0 .766-.767v-8.533a.766.766 0 0 0-.766-.767H9.034a.767.767 0 0 0-.768.767v8.533z"/><path opacity=".4" fill="#3C3C3B" d="M27.345 46.54v1.437a.766.766 0 0 1-.766.767H9.033a.767.767 0 0 1-.768-.767V46.54h19.08z"/><path opacity=".2" fill="#FFF" d="M8.343 40.518h19.05v4.343H8.342z"/><path fill="#B1B1B1" d="M0 25.265c0 .452.413.82.925.82h8.312c.512 0 .926-.368.926-.82v-.614c0-.45-.414-.818-.926-.818H.925c-.512 0-.926.367-.926.82v.613z"/><path fill="#ECC400" d="M3.067 20.98h6.52v7.957h-6.52z"/><path opacity=".3" fill="#FFF" d="M3.067 22.513h6.52v2.59h-6.52z"/><path fill="#17B5FF" d="M8.267 29.224c0 .424.344.768.768.768H26.58a.766.766 0 0 0 .766-.768v-8.532a.766.766 0 0 0-.766-.767H9.034a.767.767 0 0 0-.768.767v8.532z"/><path opacity=".4" fill="#3C3C3B" d="M27.345 27.787v1.438a.766.766 0 0 1-.766.768H9.033a.768.768 0 0 1-.768-.768v-1.438h19.08z"/><path opacity=".2" fill="#FFF" d="M8.343 21.767h19.05v4.342H8.342z"/></g><ellipse fill="#F5F5F5" cx="72.855" cy="109.61" rx="49.589" ry="6.198"/><path fill="#585757" d="M129.91 67.258c-.612-1.02-3.065-4.495-12.26-11.853-7.77-9.4-8.38-10.218-9.4-22.072C105.1 1.278 79.102-.034 74.273 0 69.448-.034 43.452 1.277 40.3 33.333c-1.02 11.854-1.632 12.672-9.4 22.072-9.194 7.357-11.647 10.83-12.26 11.853-.614 1.023-6.337 8.584 3.065 5.52 7.355-4.293 9.195-4.496 11.035-4.293 1.84.204-1.635 13.08 9.195 25.138 10.832 12.058 18.6 15.124 30.45 14.92.702-.013 3.075-.013 3.776 0 11.855.204 19.62-2.862 30.45-14.92 10.832-12.06 7.357-24.934 9.197-25.138 1.84-.203 3.68 0 11.035 4.292 9.405 3.065 3.682-4.495 3.07-5.52z"/><path fill="#575756" d="M129.91 67.258c-.612-1.02-3.065-4.495-12.26-11.853-7.77-9.4-8.38-10.218-9.4-22.072C105.1 1.278 79.102-.034 74.273 0 69.448-.034 43.452 1.277 40.3 33.333c-1.02 11.854-1.632 12.672-9.4 22.072-9.194 7.357-11.647 10.83-12.26 11.853-.614 1.023-6.337 8.584 3.065 5.52 7.355-4.293 9.195-4.496 11.035-4.293 1.84.204-1.635 13.08 9.195 25.138 10.832 12.058 18.6 15.124 30.45 14.92.702-.013 3.075-.013 3.776 0 11.855.204 19.62-2.862 30.45-14.92 10.832-12.06 7.357-24.934 9.197-25.138 1.84-.203 3.68 0 11.035 4.292 9.405 3.065 3.682-4.495 3.07-5.52z"/><path fill="#3C3C3B" d="M126.794 66.664c-.576-.9-2.895-3.965-11.574-10.456-7.332-8.292-7.91-9.014-8.875-19.472C103.372 8.458 78.833 7.3 74.275 7.33c-4.558-.028-29.097 1.128-32.07 29.406-.964 10.458-1.542 11.18-8.874 19.472-8.68 6.49-10.997 9.556-11.575 10.456-.578.903-5.98 7.573 2.895 4.87 6.945-3.788 5.877-3.03 7.61-2.853 1.737.182-1.54 14.346 8.683 24.982 10.227 10.638 20.363 9.6 31.553 9.42.66-.01 2.9-.01 3.56 0 11.19.18 21.327-.653 31.554-11.29 7.56-7.865 8.674-24.144 7.746-24.047 1.734-.18 1.602 0 8.545 3.787 8.876 2.705 3.474-3.965 2.894-4.868z"/><path fill="#D6D6D6" d="M74.386 45.673c-20.068 0-36.338 16.562-36.338 36.99 0 2.704.285 5.34.826 7.878a33.69 33.69 0 0 0 3.062 3.978c10.832 12.057 18.6 15.122 30.45 14.918.702-.01 3.075-.01 3.776 0 11.854.204 19.62-2.86 30.45-14.918a33.215 33.215 0 0 0 3.39-4.475c.475-2.384.725-4.853.725-7.38 0-20.428-16.27-36.99-36.34-36.99z"/><circle fill="#1D1D1B" cx="62.292" cy="35.173" r="12.262"/><circle fill="#17B5FF" cx="62.292" cy="35.173" r="6.713"/><circle fill="#1D1D1B" cx="85.182" cy="35.173" r="12.263"/><circle fill="#08B64F" cx="85.182" cy="35.173" r="4.028"/><path opacity=".2" d="M74.474 42.51c0-.014-.002-.023-.002-.023l-.197.01-.195-.01s-.002.01-.002.024c-2.22.16-12.943 1.235-9.822 6.926C67.73 55.77 72.636 59.45 74.27 59.45l.006-.002.008.002c1.635 0 6.54-3.68 10.014-10.014 3.12-5.69-7.604-6.765-9.824-6.925z"/><path fill="#FFD701" d="M74.474 40.51c0-.014-.002-.023-.002-.023l-.197.01-.195-.01s-.002.01-.002.024c-2.22.16-12.943 1.235-9.822 6.926C67.73 53.77 72.636 57.45 74.27 57.45l.006-.002.008.002c1.635 0 6.54-3.68 10.014-10.014 3.12-5.69-7.604-6.765-9.824-6.925z"/><path opacity=".1" d="M72.2 101.707c0-8.613-9.307-15.596-20.785-15.596-11.482 0-20.79 6.983-20.79 15.597 0 .362.02.722.054 1.078-.02.17-.054.338-.054.514a4.775 4.775 0 0 0 4.775 4.772h32.026A4.773 4.773 0 0 0 72.2 103.3c0-.177-.034-.344-.052-.515.037-.357.052-.716.052-1.078z"/><path fill="#FFD701" d="M71.306 103.496C71.306 94.884 62 87.9 50.52 87.9S29.73 94.884 29.73 103.497c0 .362.02.722.053 1.08-.02.17-.053.337-.053.512a4.774 4.774 0 0 0 4.775 4.774h32.025a4.774 4.774 0 0 0 4.773-4.774c0-.175-.033-.342-.05-.513.033-.358.05-.717.05-1.08z"/><path opacity=".1" d="M118.255 101.707c0-8.613-9.307-15.596-20.787-15.596S76.68 93.094 76.68 101.708c0 .362.02.722.054 1.078-.02.17-.053.338-.053.514a4.775 4.775 0 0 0 4.776 4.772h32.025a4.773 4.773 0 0 0 4.774-4.773c0-.177-.033-.344-.05-.515.033-.357.05-.716.05-1.078z"/><path fill="#FFD701" d="M119.15 103.496c0-8.612-9.308-15.595-20.786-15.595-11.482 0-20.787 6.983-20.787 15.596 0 .362.016.722.05 1.08-.02.17-.05.337-.05.512a4.774 4.774 0 0 0 4.773 4.774h32.025a4.776 4.776 0 0 0 4.775-4.774c0-.175-.035-.342-.053-.513.035-.358.054-.717.054-1.08z"/><path opacity=".1" d="M74.474 40.51c0-.014-.002-.023-.002-.023l-.197.01h-.016V57.45h.01l.005-.002.008.002c1.635 0 6.54-3.68 10.014-10.014 3.12-5.69-7.603-6.765-9.823-6.925z"/><path fill="#C5C5C5" d="M38.048 82.665c0 .63.018 1.258.05 1.882h72.583c.032-.624.048-1.25.048-1.882 0-6.823-1.822-13.21-4.986-18.696H43.034a37.314 37.314 0 0 0-4.986 18.695z"/><g fill="#3C3C3B"><path d="M50.028 76.986l1.965-.238c.062.5.23.884.506 1.148.272.265.606.396.995.396.42 0 .77-.158 1.06-.477.286-.317.43-.746.43-1.285 0-.51-.138-.915-.413-1.214a1.31 1.31 0 0 0-1.004-.448c-.26 0-.57.05-.932.152l.225-1.654c.55.015.968-.104 1.257-.357s.434-.59.434-1.01c0-.355-.104-.64-.317-.852-.21-.212-.492-.317-.844-.317-.35 0-.644.12-.89.362-.246.24-.395.592-.447 1.054l-1.87-.317c.128-.642.325-1.153.587-1.536s.63-.684 1.098-.902c.47-.22.996-.33 1.578-.33.998 0 1.797.32 2.398.954.496.52.744 1.108.744 1.763 0 .93-.508 1.67-1.523 2.224.605.13 1.092.422 1.455.874.363.453.545 1 .545 1.64 0 .93-.34 1.722-1.018 2.377-.68.655-1.525.982-2.535.982-.96 0-1.754-.275-2.385-.827s-.997-1.274-1.1-2.164zM65.183 77.91v1.886h-7.115a4.93 4.93 0 0 1 .693-2.026c.388-.638 1.147-1.484 2.284-2.54.916-.852 1.477-1.43 1.684-1.732.28-.42.418-.833.418-1.242 0-.453-.12-.8-.363-1.044-.244-.243-.58-.364-1.008-.364-.424 0-.762.127-1.012.383s-.395.68-.434 1.272l-2.024-.202c.12-1.117.5-1.92 1.135-2.405.638-.486 1.43-.73 2.386-.73 1.043 0 1.865.283 2.463.846.595.564.894 1.266.894 2.104 0 .477-.086.93-.256 1.36-.172.433-.44.884-.812 1.355-.246.312-.69.763-1.33 1.35-.64.588-1.045.978-1.217 1.17a3.5 3.5 0 0 0-.415.563h4.028zM66.938 77.766h2.03v1.45c0 .59-.052 1.052-.15 1.392-.103.34-.294.645-.575.914-.283.27-.64.48-1.074.636l-.397-.838c.408-.135.7-.32.873-.557.174-.236.266-.56.275-.968h-.98v-2.03zM77.52 77.91v1.886h-7.114a4.9 4.9 0 0 1 .693-2.026c.384-.638 1.145-1.484 2.282-2.54.914-.852 1.475-1.43 1.682-1.732.28-.42.42-.833.42-1.242 0-.453-.12-.8-.365-1.044-.243-.243-.58-.364-1.01-.364-.423 0-.76.127-1.01.383s-.396.68-.435 1.272l-2.02-.202c.12-1.117.497-1.92 1.134-2.405.634-.486 1.43-.73 2.382-.73 1.045 0 1.865.283 2.463.846.598.564.896 1.266.896 2.104 0 .477-.085.93-.257 1.36-.17.433-.44.884-.812 1.355-.243.312-.687.763-1.327 1.35-.64.588-1.047.978-1.217 1.17-.172.193-.31.38-.416.563h4.03zM78.92 77.072l2.024-.21c.057.458.23.82.512 1.088.285.268.613.4.982.4.424 0 .783-.172 1.076-.516.295-.345.44-.863.44-1.557 0-.65-.145-1.138-.437-1.463s-.67-.487-1.137-.487c-.584 0-1.105.258-1.568.772l-1.646-.24 1.04-5.51h5.366v1.9h-3.828l-.316 1.797c.45-.226.914-.34 1.387-.34.9 0 1.664.328 2.29.983.626.654.938 1.505.938 2.55 0 .87-.254 1.65-.758 2.333-.69.935-1.645 1.4-2.87 1.4-.976 0-1.772-.262-2.39-.786-.614-.523-.983-1.23-1.104-2.115zM91.245 71.82c0-.947.21-1.65.625-2.108.416-.457.98-.686 1.693-.686.736 0 1.314.228 1.73.683s.625 1.158.625 2.11c0 .95-.21 1.652-.625 2.11-.416.457-.982.687-1.693.687-.738 0-1.314-.228-1.73-.683s-.625-1.16-.625-2.113zm1.582-.014c0 .688.08 1.15.238 1.387.12.174.287.26.498.26a.58.58 0 0 0 .506-.26c.153-.235.23-.698.23-1.387s-.077-1.148-.23-1.38a.577.577 0 0 0-.507-.267c-.21 0-.38.086-.498.26-.158.236-.238.698-.238 1.386zM95.11 80.2h-1.504l5.643-11.174h1.458L95.11 80.2zm3.28-2.782c0-.948.207-1.65.623-2.108.418-.458.986-.687 1.71-.687.726 0 1.298.23 1.714.687.418.457.625 1.16.625 2.108 0 .954-.207 1.66-.625 2.117-.416.457-.98.686-1.693.686-.736 0-1.312-.228-1.73-.685-.417-.457-.624-1.162-.624-2.117zm1.582-.006c0 .688.078 1.148.238 1.38.12.178.285.268.498.268a.56.56 0 0 0 .498-.26c.158-.236.238-.7.238-1.388s-.078-1.15-.23-1.387c-.12-.174-.29-.26-.506-.26s-.383.086-.498.26c-.16.236-.238.698-.238 1.387z"/></g><path opacity=".1" d="M130.08 67.258c-.614-1.02-3.067-4.495-12.265-11.853-7.766-9.4-8.377-10.218-9.4-22.072C105.325 1.893 80.272.03 74.757 0v108.532c.656 0 1.27.004 1.572.01.987.017 1.937 0 2.87-.03a4.752 4.752 0 0 0 3.318 1.35h32.023c2.64 0 4.776-2.14 4.776-4.774 0-.175-.033-.342-.053-.513.035-.357.053-.717.053-1.08 0-5.603-3.953-10.502-9.87-13.25 7.563-10.97 4.86-21.574 6.53-21.76 1.838-.203 3.678 0 11.035 4.292 9.403 3.065 3.68-4.495 3.07-5.52z"/></svg>