<svg xmlns="http://www.w3.org/2000/svg" width="139.582" height="122.709" viewBox="0 0 139.582 122.709"><path fill="#C5C5C5" d="M3.94 0C5.118 0 6.038.42 6.7 1.258c.788.994 1.183 2.642 1.183 4.944 0 2.297-.396 3.948-1.19 4.952-.66.828-1.575 1.242-2.75 1.242-1.183 0-2.134-.453-2.858-1.362C.36 10.127 0 8.508 0 6.178c0-2.285.396-3.932 1.19-4.936C1.85.412 2.767 0 3.94 0zm0 1.93c-.28 0-.532.09-.753.27-.22.18-.393.5-.514.965-.16.6-.24 1.614-.24 3.038 0 1.425.072 2.403.217 2.936.143.532.324.887.54 1.063.22.177.47.266.75.266s.534-.092.755-.272c.22-.178.39-.5.514-.964.16-.596.24-1.606.24-3.03 0-1.425-.073-2.403-.218-2.937-.142-.533-.324-.89-.54-1.07a1.154 1.154 0 0 0-.75-.268zM15.564 12.19h-2.328V3.42a8.047 8.047 0 0 1-3.006 1.764V3.07c.607-.197 1.268-.574 1.98-1.13.712-.553 1.202-1.2 1.466-1.94h1.89v12.19zM24.23 12.19h-2.326V3.42a8.07 8.07 0 0 1-3.008 1.764V3.07c.607-.197 1.268-.574 1.98-1.13.712-.553 1.202-1.2 1.466-1.94h1.89v12.19zM32.896 12.19H30.57V3.42a8.07 8.07 0 0 1-3.008 1.764V3.07c.607-.197 1.268-.574 1.98-1.13.712-.553 1.202-1.2 1.466-1.94h1.89v12.19zM40.48 0c1.175 0 2.093.42 2.757 1.258.788.994 1.183 2.642 1.183 4.944 0 2.297-.398 3.948-1.193 4.952-.656.828-1.572 1.242-2.748 1.242-1.183 0-2.136-.453-2.858-1.362-.725-.907-1.086-2.526-1.086-4.856 0-2.285.398-3.932 1.193-4.936C38.384.412 39.3 0 40.48 0zm0 1.93c-.282 0-.534.09-.755.27-.22.18-.393.5-.514.965-.16.6-.24 1.614-.24 3.038 0 1.425.07 2.403.216 2.936.145.532.324.887.543 1.063.216.177.468.266.75.266.278 0 .53-.092.75-.272.222-.178.394-.5.517-.964.158-.596.238-1.606.238-3.03 0-1.425-.072-2.403-.215-2.937-.145-.532-.324-.89-.543-1.068-.22-.18-.47-.27-.748-.27zM52.1 12.19h-2.326V3.42a8.04 8.04 0 0 1-3.008 1.764V3.07c.61-.197 1.27-.574 1.98-1.13.713-.553 1.2-1.2 1.467-1.94H52.1v12.19zM60.766 12.19H58.44V3.42a8.047 8.047 0 0 1-3.006 1.764V3.07c.607-.197 1.268-.574 1.98-1.13.71-.553 1.2-1.2 1.465-1.94h1.886v12.19zM68.348 0c1.176 0 2.096.42 2.758 1.258.79.994 1.184 2.643 1.184 4.944 0 2.297-.396 3.948-1.19 4.952-.66.828-1.575 1.242-2.75 1.242-1.183 0-2.136-.453-2.858-1.362-.723-.907-1.084-2.526-1.084-4.856 0-2.285.396-3.932 1.19-4.936C66.257.412 67.17 0 68.35 0zm0 1.93c-.28 0-.533.09-.754.27-.22.18-.393.5-.514.965-.158.6-.24 1.614-.24 3.038 0 1.425.072 2.403.215 2.936.145.532.324.887.545 1.063.217.177.467.266.748.266s.533-.092.754-.272c.22-.178.39-.5.514-.964.158-.596.24-1.606.24-3.03 0-1.425-.072-2.403-.217-2.937-.146-.532-.325-.89-.544-1.068a1.145 1.145 0 0 0-.748-.27zM77.95 0c1.175 0 2.095.42 2.757 1.258.79.994 1.184 2.643 1.184 4.944 0 2.297-.395 3.948-1.19 4.952-.658.828-1.574 1.242-2.75 1.242-1.182 0-2.135-.453-2.855-1.362-.725-.907-1.086-2.526-1.086-4.856 0-2.285.395-3.932 1.192-4.936C75.857.412 76.772 0 77.95 0zm0 1.93c-.282 0-.534.09-.755.27-.22.18-.393.5-.514.965-.16.6-.24 1.614-.24 3.038 0 1.425.073 2.403.218 2.936.143.532.324.887.54 1.063.22.177.47.266.75.266s.534-.092.755-.272c.22-.178.39-.5.514-.964.16-.596.24-1.606.24-3.03 0-1.425-.072-2.403-.215-2.937-.145-.532-.326-.89-.543-1.068-.22-.18-.47-.27-.75-.27zM89.572 12.19h-2.328V3.42a8.047 8.047 0 0 1-3.006 1.764V3.07c.61-.197 1.268-.574 1.98-1.13.712-.553 1.2-1.2 1.466-1.94h1.89v12.19zM98.238 12.19H95.91V3.42a8.047 8.047 0 0 1-3.006 1.764V3.07c.607-.197 1.268-.574 1.98-1.13.712-.553 1.202-1.2 1.466-1.94h1.89v12.19zM106.904 12.19h-2.328V3.42a8.047 8.047 0 0 1-3.006 1.764V3.07c.61-.197 1.268-.574 1.98-1.13.71-.554 1.2-1.2 1.465-1.94h1.89v12.19zM114.484 0c1.178 0 2.098.42 2.76 1.258.79.994 1.184 2.643 1.184 4.944 0 2.297-.396 3.948-1.193 4.952-.656.828-1.572 1.242-2.75 1.242-1.18 0-2.133-.453-2.855-1.362-.723-.907-1.084-2.526-1.084-4.856 0-2.285.396-3.932 1.19-4.936.66-.83 1.573-1.242 2.748-1.242zm0 1.93c-.28 0-.53.09-.752.27-.22.18-.393.5-.514.965-.16.6-.24 1.614-.24 3.038 0 1.425.072 2.403.215 2.936.145.532.324.887.543 1.063.217.177.47.266.748.266.283 0 .535-.092.756-.272.22-.178.39-.5.512-.964.16-.596.242-1.606.242-3.03 0-1.425-.072-2.403-.217-2.937-.145-.532-.324-.89-.543-1.068a1.142 1.142 0 0 0-.75-.27zM124.088 0c1.176 0 2.094.42 2.758 1.258.79.994 1.184 2.643 1.184 4.944 0 2.297-.396 3.948-1.19 4.952-.66.828-1.575 1.242-2.75 1.242-1.183 0-2.136-.453-2.858-1.362-.723-.907-1.086-2.526-1.086-4.856 0-2.285.398-3.932 1.193-4.936C121.995.412 122.91 0 124.087 0zm0 1.93c-.28 0-.533.09-.754.27-.22.18-.393.5-.514.965-.16.6-.24 1.614-.24 3.038 0 1.425.072 2.403.215 2.936.145.532.324.887.543 1.063s.47.266.75.266.533-.092.754-.272c.22-.178.39-.5.514-.964.16-.596.238-1.606.238-3.03 0-1.425-.07-2.403-.215-2.937-.144-.532-.325-.89-.542-1.068-.22-.18-.47-.27-.75-.27zM133.69 0c1.175 0 2.095.42 2.757 1.258.79.994 1.184 2.643 1.184 4.944 0 2.297-.395 3.948-1.19 4.952-.658.828-1.574 1.242-2.75 1.242-1.182 0-2.133-.453-2.857-1.362-.723-.907-1.084-2.526-1.084-4.856 0-2.285.395-3.932 1.192-4.936C131.598.412 132.514 0 133.69 0zm0 1.93c-.282 0-.534.09-.755.27-.22.18-.39.5-.512.965-.16.6-.24 1.614-.24 3.038 0 1.425.07 2.403.215 2.936.143.532.322.887.543 1.063.218.177.468.266.75.266s.532-.092.753-.272c.22-.178.393-.5.514-.964.16-.596.24-1.606.24-3.03 0-1.425-.072-2.403-.217-2.937-.143-.532-.322-.89-.54-1.068a1.15 1.15 0 0 0-.75-.27zM3.94 18.385c1.177 0 2.097.42 2.76 1.26.788.993 1.183 2.642 1.183 4.942 0 2.298-.396 3.948-1.19 4.954-.66.828-1.575 1.242-2.75 1.242-1.183 0-2.134-.454-2.858-1.362C.36 28.513 0 26.893 0 24.562c0-2.285.396-3.93 1.19-4.935.66-.827 1.576-1.242 2.75-1.242zm0 1.928c-.28 0-.532.09-.753.27-.22.18-.393.502-.514.966-.16.6-.24 1.613-.24 3.037 0 1.426.072 2.403.217 2.938.143.53.324.887.54 1.063.22.177.47.265.75.265s.534-.09.755-.27c.22-.18.39-.5.514-.964.16-.597.24-1.607.24-3.033 0-1.424-.073-2.4-.218-2.936-.143-.53-.324-.888-.54-1.066a1.145 1.145 0 0 0-.75-.27zM100.11 30.575h-2.327v-8.77a8.03 8.03 0 0 1-3.008 1.764v-2.113c.607-.198 1.268-.575 1.98-1.13.71-.556 1.2-1.202 1.467-1.942h1.887v12.19zM107.69 18.385c1.177 0 2.095.42 2.76 1.26.788.993 1.183 2.642 1.183 4.942 0 2.298-.396 3.948-1.19 4.954-.66.828-1.575 1.242-2.75 1.242-1.183 0-2.136-.454-2.858-1.362-.725-.907-1.086-2.527-1.086-4.857 0-2.285.397-3.93 1.192-4.935.658-.828 1.574-1.243 2.75-1.243zm0 1.928c-.28 0-.532.09-.753.27-.22.18-.393.502-.514.966-.16.6-.24 1.613-.24 3.037 0 1.426.072 2.403.215 2.938.145.53.324.887.543 1.063s.47.265.75.265.532-.09.755-.27c.22-.18.39-.5.514-.964.16-.597.237-1.607.237-3.033 0-1.424-.072-2.4-.215-2.936-.143-.53-.324-.888-.543-1.066a1.136 1.136 0 0 0-.75-.27zM119.312 30.575h-2.326v-8.77a8.022 8.022 0 0 1-3.006 1.764v-2.113c.607-.198 1.268-.575 1.98-1.13.712-.556 1.2-1.202 1.466-1.942h1.887v12.19zM127.98 30.575h-2.326v-8.77a8.046 8.046 0 0 1-3.008 1.764v-2.113c.607-.198 1.268-.575 1.98-1.13.71-.556 1.2-1.202 1.465-1.942h1.89v12.19zM136.645 30.575h-2.326v-8.77a8.022 8.022 0 0 1-3.007 1.764v-2.113c.607-.198 1.268-.575 1.98-1.13.71-.556 1.2-1.202 1.465-1.942h1.887v12.19zM3.94 36.77c1.177 0 2.097.42 2.76 1.26.788.993 1.183 2.642 1.183 4.943 0 2.298-.396 3.948-1.19 4.953-.66.827-1.575 1.242-2.75 1.242-1.183 0-2.134-.455-2.858-1.362C.36 46.896 0 45.276 0 42.948c0-2.286.396-3.932 1.19-4.936.66-.827 1.576-1.24 2.75-1.24zm0 1.93c-.28 0-.532.09-.753.27s-.393.5-.514.964c-.16.602-.24 1.615-.24 3.04 0 1.424.072 2.402.217 2.936.143.532.324.887.54 1.064.22.177.47.265.75.265s.534-.09.755-.27.39-.502.514-.965c.16-.597.24-1.607.24-3.032 0-1.424-.073-2.402-.218-2.935-.143-.533-.324-.89-.54-1.07a1.144 1.144 0 0 0-.75-.268zM100.11 48.96h-2.327v-8.77a8.055 8.055 0 0 1-3.008 1.765v-2.112c.607-.2 1.268-.576 1.98-1.13.71-.556 1.2-1.203 1.467-1.942h1.887v12.19zM91.11 48.96h-2.327v-8.77a8.055 8.055 0 0 1-3.008 1.765v-2.112c.607-.2 1.268-.576 1.98-1.13.71-.556 1.2-1.203 1.467-1.942h1.887v12.19zM107.69 36.77c1.177 0 2.095.42 2.76 1.26.788.993 1.183 2.642 1.183 4.943 0 2.298-.396 3.948-1.19 4.953-.66.827-1.575 1.242-2.75 1.242-1.183 0-2.136-.455-2.858-1.362-.725-.908-1.086-2.528-1.086-4.857 0-2.287.397-3.933 1.192-4.937.658-.828 1.574-1.242 2.75-1.242zm0 1.93c-.28 0-.532.09-.753.27s-.393.5-.514.964c-.16.602-.24 1.615-.24 3.04 0 1.424.072 2.402.215 2.936.145.532.324.887.543 1.064.22.177.47.265.75.265s.532-.09.755-.27c.22-.18.39-.502.514-.965.16-.597.237-1.607.237-3.032 0-1.424-.072-2.402-.215-2.935-.143-.533-.324-.89-.543-1.07a1.135 1.135 0 0 0-.75-.268zM117.293 36.77c1.176 0 2.096.42 2.758 1.26.79.993 1.185 2.642 1.185 4.943 0 2.298-.396 3.948-1.19 4.953-.66.827-1.575 1.242-2.75 1.242-1.183 0-2.134-.455-2.858-1.362-.723-.908-1.084-2.528-1.084-4.857 0-2.287.396-3.933 1.19-4.937.658-.828 1.574-1.242 2.75-1.242zm0 1.93c-.28 0-.533.09-.754.27s-.392.5-.513.964c-.16.602-.242 1.615-.242 3.04 0 1.424.072 2.402.215 2.936.145.532.324.887.545 1.064.217.177.467.265.748.265s.533-.09.754-.27.393-.502.514-.965c.16-.597.24-1.607.24-3.032 0-1.424-.07-2.402-.216-2.935-.143-.533-.324-.89-.543-1.07a1.138 1.138 0 0 0-.747-.268zM126.895 36.77c1.176 0 2.096.42 2.758 1.26.79.993 1.184 2.642 1.184 4.943 0 2.298-.396 3.948-1.19 4.953-.657.827-1.575 1.242-2.75 1.242-1.183 0-2.136-.455-2.856-1.362-.724-.908-1.085-2.528-1.085-4.857 0-2.287.398-3.933 1.193-4.937.655-.828 1.57-1.242 2.747-1.242zm0 1.93c-.28 0-.53.09-.752.27-.223.18-.395.5-.516.964-.158.602-.24 1.615-.24 3.04 0 1.424.072 2.402.217 2.936.143.532.324.887.543 1.064.217.177.467.265.748.265s.533-.09.754-.27.39-.502.513-.965c.16-.597.24-1.607.24-3.032 0-1.424-.072-2.402-.215-2.935-.145-.533-.324-.89-.543-1.07s-.47-.268-.75-.268zM138.518 48.96h-2.326v-8.77a8.07 8.07 0 0 1-3.008 1.765v-2.112c.61-.2 1.268-.576 1.98-1.13.71-.556 1.2-1.203 1.465-1.942h1.888v12.19zM3.94 55.155c1.177 0 2.097.42 2.76 1.26.788.993 1.183 2.642 1.183 4.943 0 2.297-.396 3.948-1.19 4.952-.66.828-1.575 1.243-2.75 1.243-1.183 0-2.134-.455-2.858-1.363C.36 65.283 0 63.663 0 61.334c0-2.286.396-3.93 1.19-4.936.66-.83 1.576-1.243 2.75-1.243zm0 1.93c-.28 0-.532.09-.753.27-.22.18-.393.5-.514.965-.16.602-.24 1.615-.24 3.04 0 1.424.072 2.4.217 2.936.143.532.324.887.54 1.063.22.176.47.264.75.264s.534-.09.755-.27c.22-.178.39-.5.514-.964.16-.597.24-1.606.24-3.03 0-1.425-.073-2.404-.218-2.937-.143-.532-.324-.89-.54-1.068a1.145 1.145 0 0 0-.75-.27zM13.543 55.155c1.176 0 2.096.42 2.758 1.26.79.993 1.185 2.642 1.185 4.943 0 2.297-.396 3.948-1.19 4.952-.66.828-1.575 1.243-2.75 1.243-1.183 0-2.136-.455-2.856-1.363-.726-.907-1.087-2.527-1.087-4.856 0-2.286.396-3.93 1.19-4.936.658-.83 1.574-1.243 2.75-1.243zm0 1.93c-.28 0-.53.09-.754.27-.222.18-.392.5-.515.965-.158.602-.24 1.615-.24 3.04 0 1.424.072 2.4.215 2.936.145.532.326.887.545 1.063.217.176.467.264.748.264s.533-.09.754-.27c.22-.178.393-.5.514-.964.16-.597.24-1.606.24-3.03 0-1.425-.07-2.404-.214-2.937-.145-.532-.326-.89-.543-1.068-.22-.18-.47-.27-.75-.27zM25.166 67.347h-2.328v-8.77a8.033 8.033 0 0 1-3.006 1.763v-2.112c.607-.198 1.268-.576 1.98-1.13.712-.556 1.202-1.202 1.466-1.942h1.89v12.19zM32.746 55.155c1.176 0 2.096.42 2.758 1.26.79.993 1.186 2.642 1.186 4.943 0 2.297-.396 3.948-1.193 4.952-.656.828-1.574 1.243-2.75 1.243-1.182 0-2.133-.455-2.855-1.363-.723-.907-1.086-2.527-1.086-4.856 0-2.286.398-3.93 1.193-4.936.656-.83 1.57-1.243 2.746-1.243zm0 1.93c-.28 0-.53.09-.752.27-.22.18-.393.5-.514.965-.16.602-.24 1.615-.24 3.04 0 1.424.072 2.4.215 2.936.143.532.324.887.543 1.063s.467.264.748.264c.283 0 .533-.09.756-.27.22-.178.39-.5.512-.964.16-.597.24-1.606.24-3.03 0-1.425-.072-2.404-.215-2.937-.146-.532-.325-.89-.544-1.068a1.14 1.14 0 0 0-.75-.27zM42.35 55.155c1.176 0 2.094.42 2.758 1.26.79.993 1.184 2.642 1.184 4.943 0 2.297-.396 3.948-1.193 4.952-.657.828-1.573 1.243-2.75 1.243-1.18 0-2.134-.455-2.856-1.363-.723-.907-1.086-2.527-1.086-4.856 0-2.286.398-3.93 1.193-4.936.658-.83 1.574-1.243 2.75-1.243zm0 1.93c-.28 0-.533.09-.754.27-.22.18-.393.5-.514.965-.16.602-.24 1.615-.24 3.04 0 1.424.072 2.4.215 2.936.145.532.324.887.543 1.063.217.176.47.264.75.264s.533-.09.754-.27c.22-.178.39-.5.514-.964.16-.597.238-1.606.238-3.03 0-1.425-.07-2.404-.215-2.937-.142-.532-.323-.89-.54-1.068-.22-.18-.47-.27-.75-.27zM51.95 55.155c1.177 0 2.097.42 2.76 1.26.788.993 1.183 2.642 1.183 4.943 0 2.297-.396 3.948-1.19 4.952-.66.828-1.575 1.243-2.75 1.243-1.183 0-2.136-.455-2.858-1.363-.723-.907-1.084-2.527-1.084-4.856 0-2.286.397-3.93 1.194-4.936.655-.83 1.57-1.243 2.747-1.243zm0 1.93c-.28 0-.532.09-.753.27-.22.18-.393.5-.514.965-.158.602-.24 1.615-.24 3.04 0 1.424.072 2.4.217 2.936.143.532.322.887.543 1.063.217.176.467.264.748.264s.534-.09.755-.27c.22-.178.39-.5.514-.964.16-.597.24-1.606.24-3.03 0-1.425-.073-2.404-.218-2.937-.143-.532-.322-.89-.54-1.068-.22-.18-.47-.27-.75-.27zM61.553 55.155c1.176 0 2.096.42 2.758 1.26.792.993 1.187 2.642 1.187 4.943 0 2.297-.398 3.948-1.193 4.952-.658.828-1.574 1.243-2.75 1.243-1.182 0-2.133-.455-2.855-1.363-.726-.907-1.087-2.527-1.087-4.856 0-2.286.396-3.93 1.193-4.936.655-.83 1.57-1.243 2.747-1.243zm0 1.93c-.28 0-.53.09-.754.27-.222.18-.392.5-.513.965-.16.602-.24 1.615-.24 3.04 0 1.424.07 2.4.215 2.936.143.532.324.887.543 1.063.217.176.467.264.748.264.283 0 .533-.09.756-.27.218-.178.39-.5.51-.964.16-.597.24-1.606.24-3.03 0-1.425-.07-2.404-.214-2.937-.145-.532-.324-.89-.543-1.068-.22-.18-.467-.27-.75-.27zM71.154 55.155c1.176 0 2.096.42 2.758 1.26.79.993 1.184 2.642 1.184 4.943 0 2.297-.396 3.948-1.19 4.952-.66.828-1.575 1.243-2.75 1.243-1.183 0-2.134-.455-2.858-1.363-.723-.907-1.084-2.527-1.084-4.856 0-2.286.396-3.93 1.193-4.936.655-.83 1.572-1.243 2.747-1.243zm0 1.93c-.28 0-.533.09-.754.27-.22.18-.39.5-.512.965-.16.602-.242 1.615-.242 3.04 0 1.424.072 2.4.217 2.936.143.532.322.887.543 1.063.217.176.467.264.748.264s.533-.09.754-.27c.22-.178.393-.5.514-.964.16-.597.24-1.606.24-3.03 0-1.425-.072-2.404-.217-2.937-.143-.532-.322-.89-.54-1.068a1.145 1.145 0 0 0-.75-.27zM80.756 55.155c1.178 0 2.096.42 2.758 1.26.79.993 1.184 2.642 1.184 4.943 0 2.297-.396 3.948-1.19 4.952-.657.828-1.573 1.243-2.75 1.243-1.183 0-2.134-.455-2.856-1.363-.725-.907-1.086-2.527-1.086-4.856 0-2.286.398-3.93 1.193-4.936.654-.83 1.57-1.243 2.746-1.243zm0 1.93c-.28 0-.53.09-.752.27-.223.18-.393.5-.514.965-.16.602-.242 1.615-.242 3.04 0 1.424.072 2.4.217 2.936.143.532.324.887.543 1.063.217.176.47.264.748.264.283 0 .533-.09.754-.27.22-.178.393-.5.514-.964.16-.597.24-1.606.24-3.03 0-1.425-.072-2.404-.215-2.937-.146-.532-.325-.89-.544-1.068a1.14 1.14 0 0 0-.75-.27zM92.38 67.347h-2.327v-8.77a8.05 8.05 0 0 1-3.006 1.763v-2.112c.607-.198 1.268-.576 1.98-1.13.712-.556 1.2-1.202 1.464-1.942h1.89v12.19zM101.045 67.347H98.72v-8.77a8.033 8.033 0 0 1-3.007 1.763v-2.112c.607-.198 1.268-.576 1.98-1.13.712-.556 1.2-1.202 1.466-1.942h1.886v12.19zM109.71 67.347h-2.325v-8.77a8.05 8.05 0 0 1-3.006 1.763v-2.112c.606-.198 1.267-.576 1.978-1.13.713-.556 1.2-1.202 1.465-1.942h1.89v12.19zM117.293 55.155c1.176 0 2.096.42 2.758 1.26.79.993 1.185 2.642 1.185 4.943 0 2.297-.396 3.948-1.19 4.952-.66.828-1.575 1.243-2.75 1.243-1.183 0-2.134-.455-2.858-1.363-.723-.907-1.084-2.527-1.084-4.856 0-2.286.396-3.93 1.19-4.936.658-.83 1.574-1.243 2.75-1.243zm0 1.93c-.28 0-.533.09-.754.27-.222.18-.392.5-.513.965-.16.602-.242 1.615-.242 3.04 0 1.424.072 2.4.215 2.936.145.532.324.887.545 1.063.217.176.467.264.748.264s.533-.09.754-.27c.22-.178.393-.5.514-.964.16-.597.24-1.606.24-3.03 0-1.425-.07-2.404-.216-2.937-.143-.532-.324-.89-.543-1.068a1.14 1.14 0 0 0-.747-.27zM128.916 67.347h-2.328v-8.77a8.033 8.033 0 0 1-3.006 1.763v-2.112c.607-.198 1.268-.576 1.98-1.13.71-.556 1.2-1.202 1.465-1.942h1.89v12.19zM137.582 67.347h-2.328v-8.77a8.033 8.033 0 0 1-3.006 1.763v-2.112c.61-.198 1.27-.576 1.98-1.13.713-.556 1.2-1.202 1.465-1.942h1.89v12.19zM3.94 73.54c1.177 0 2.097.42 2.76 1.26.788.993 1.183 2.643 1.183 4.943 0 2.298-.396 3.948-1.19 4.953-.66.827-1.575 1.242-2.75 1.242-1.183 0-2.134-.454-2.858-1.362C.36 83.668 0 82.05 0 79.72c0-2.286.396-3.932 1.19-4.937.66-.828 1.576-1.242 2.75-1.242zm0 1.93c-.28 0-.532.09-.753.27s-.393.5-.514.966c-.16.602-.24 1.614-.24 3.038 0 1.425.072 2.403.217 2.937.143.534.324.888.54 1.065.22.176.47.264.75.264s.534-.09.755-.27.39-.5.514-.964c.16-.596.24-1.607.24-3.032 0-1.424-.073-2.402-.218-2.935-.143-.534-.324-.892-.54-1.07a1.15 1.15 0 0 0-.75-.27zM15.564 85.73h-2.328v-8.77a8.036 8.036 0 0 1-3.006 1.765v-2.112c.607-.2 1.268-.575 1.98-1.13.71-.556 1.2-1.203 1.465-1.942h1.89v12.19zM24.23 85.73h-2.326v-8.77a8.06 8.06 0 0 1-3.008 1.765v-2.112c.607-.2 1.268-.575 1.98-1.13.71-.556 1.2-1.203 1.465-1.942h1.89v12.19zM31.81 73.54c1.18 0 2.097.42 2.76 1.26.79.993 1.185 2.643 1.185 4.943 0 2.298-.396 3.948-1.19 4.953-.66.827-1.575 1.242-2.753 1.242-1.18 0-2.133-.454-2.855-1.362-.725-.908-1.086-2.527-1.086-4.857 0-2.286.4-3.932 1.194-4.937.657-.828 1.57-1.242 2.747-1.242zm0 1.93c-.278 0-.53.09-.75.27s-.394.5-.515.966c-.16.602-.24 1.614-.24 3.038 0 1.425.072 2.403.215 2.937.145.534.324.888.543 1.065.22.176.47.264.748.264.284 0 .534-.09.757-.27.22-.18.39-.5.514-.964.16-.596.24-1.607.24-3.032 0-1.424-.073-2.402-.216-2.935-.145-.534-.324-.892-.543-1.07s-.466-.27-.75-.27zM41.414 73.54c1.176 0 2.096.42 2.758 1.26.79.993 1.184 2.643 1.184 4.943 0 2.298-.396 3.948-1.19 4.953-.66.827-1.575 1.242-2.75 1.242-1.183 0-2.136-.454-2.858-1.362s-1.084-2.527-1.084-4.857c0-2.286.396-3.932 1.19-4.937.658-.828 1.574-1.242 2.75-1.242zm0 1.93c-.28 0-.533.09-.754.27s-.393.5-.514.966c-.16.602-.24 1.614-.24 3.038 0 1.425.072 2.403.215 2.937.146.534.325.888.546 1.065.217.176.467.264.748.264s.533-.09.754-.27.39-.5.514-.964c.158-.596.24-1.607.24-3.032 0-1.424-.072-2.402-.217-2.935-.143-.534-.324-.892-.54-1.07-.22-.18-.47-.27-.75-.27zM51.016 73.54c1.176 0 2.096.42 2.758 1.26.79.993 1.184 2.643 1.184 4.943 0 2.298-.396 3.948-1.19 4.953-.657.827-1.575 1.242-2.75 1.242-1.183 0-2.136-.454-2.858-1.362s-1.084-2.527-1.084-4.857c0-2.286.398-3.932 1.193-4.937.654-.828 1.57-1.242 2.746-1.242zm0 1.93c-.28 0-.533.09-.752.27-.223.18-.395.5-.516.966-.158.602-.24 1.614-.24 3.038 0 1.425.072 2.403.217 2.937.143.534.324.888.543 1.065.217.176.467.264.748.264s.533-.09.754-.27.39-.5.514-.964c.16-.596.24-1.607.24-3.032 0-1.424-.072-2.402-.215-2.935-.146-.534-.325-.892-.544-1.07s-.47-.27-.75-.27zM62.64 85.73h-2.327v-8.77a8.06 8.06 0 0 1-3.008 1.765v-2.112c.607-.2 1.268-.575 1.98-1.13.71-.556 1.2-1.203 1.465-1.942h1.89v12.19zM70.22 73.54c1.175 0 2.095.42 2.757 1.26.79.993 1.184 2.643 1.184 4.943 0 2.298-.395 3.948-1.19 4.953-.658.827-1.574 1.242-2.75 1.242-1.182 0-2.133-.454-2.857-1.362-.723-.908-1.084-2.527-1.084-4.857 0-2.286.397-3.932 1.192-4.937.655-.828 1.57-1.242 2.747-1.242zm0 1.93c-.282 0-.534.09-.755.27-.22.18-.39.5-.512.966-.16.602-.242 1.614-.242 3.038 0 1.425.073 2.403.218 2.937.143.534.322.888.543 1.065.218.176.468.264.75.264s.532-.09.753-.27.393-.5.514-.964c.16-.596.24-1.607.24-3.032 0-1.424-.072-2.402-.217-2.935-.143-.534-.322-.892-.54-1.07s-.47-.27-.75-.27zM79.82 73.54c1.176 0 2.096.42 2.758 1.26.79.993 1.186 2.643 1.186 4.943 0 2.298-.398 3.948-1.193 4.953-.655.827-1.573 1.242-2.75 1.242-1.18 0-2.132-.454-2.854-1.362-.725-.908-1.086-2.527-1.086-4.857 0-2.286.398-3.932 1.193-4.937.656-.828 1.572-1.242 2.747-1.242zm0 1.93c-.28 0-.53.09-.752.27-.223.18-.393.5-.514.966-.16.602-.24 1.614-.24 3.038 0 1.425.07 2.403.215 2.937.142.534.323.888.542 1.065.217.176.467.264.748.264.283 0 .533-.09.754-.27s.393-.5.514-.964c.16-.596.24-1.607.24-3.032 0-1.424-.072-2.402-.215-2.935-.145-.534-.324-.892-.543-1.07a1.14 1.14 0 0 0-.75-.27zM91.443 85.73h-2.326v-8.77a8.067 8.067 0 0 1-3.006 1.765v-2.112c.608-.2 1.27-.575 1.98-1.13.713-.556 1.2-1.203 1.465-1.942h1.89v12.19zM100.11 85.73h-2.327v-8.77a8.044 8.044 0 0 1-3.008 1.765v-2.112c.607-.2 1.268-.575 1.98-1.13.71-.556 1.2-1.203 1.467-1.942h1.887v12.19zM107.69 73.54c1.177 0 2.095.42 2.76 1.26.788.993 1.183 2.643 1.183 4.943 0 2.298-.396 3.948-1.19 4.953-.66.827-1.575 1.242-2.75 1.242-1.183 0-2.136-.454-2.858-1.362-.725-.908-1.086-2.527-1.086-4.857 0-2.286.397-3.932 1.192-4.937.658-.828 1.574-1.242 2.75-1.242zm0 1.93c-.28 0-.532.09-.753.27s-.393.5-.514.966c-.16.602-.24 1.614-.24 3.038 0 1.425.072 2.403.215 2.937.145.534.324.888.543 1.065.22.176.47.264.75.264s.532-.09.755-.27c.22-.18.39-.5.514-.964.16-.596.237-1.607.237-3.032 0-1.424-.072-2.402-.215-2.935-.143-.534-.324-.892-.543-1.07a1.14 1.14 0 0 0-.75-.27zM119.312 85.73h-2.326v-8.77a8.036 8.036 0 0 1-3.006 1.765v-2.112c.607-.2 1.268-.575 1.98-1.13.712-.556 1.2-1.203 1.466-1.942h1.887v12.19zM126.895 73.54c1.176 0 2.096.42 2.758 1.26.79.993 1.184 2.643 1.184 4.943 0 2.298-.396 3.948-1.19 4.953-.657.827-1.575 1.242-2.75 1.242-1.183 0-2.136-.454-2.856-1.362-.724-.908-1.085-2.527-1.085-4.857 0-2.286.398-3.932 1.193-4.937.655-.828 1.57-1.242 2.747-1.242zm0 1.93c-.28 0-.53.09-.752.27-.223.18-.395.5-.516.966-.158.602-.24 1.614-.24 3.038 0 1.425.072 2.403.217 2.937.143.534.324.888.543 1.065.217.176.467.264.748.264s.533-.09.754-.27.39-.5.513-.964c.16-.596.24-1.607.24-3.032 0-1.424-.072-2.402-.215-2.935-.145-.534-.324-.892-.543-1.07s-.47-.27-.75-.27zM138.518 85.73h-2.326v-8.77a8.06 8.06 0 0 1-3.008 1.765v-2.112c.61-.2 1.268-.575 1.98-1.13.71-.556 1.2-1.203 1.465-1.942h1.888v12.19zM3.94 91.926c1.177 0 2.097.42 2.76 1.26.788.993 1.183 2.642 1.183 4.943 0 2.296-.396 3.947-1.19 4.95-.66.83-1.575 1.244-2.75 1.244-1.183 0-2.134-.454-2.858-1.363C.36 102.054 0 100.436 0 98.105c0-2.285.396-3.93 1.19-4.937.66-.827 1.576-1.24 2.75-1.24zm0 1.93c-.28 0-.532.09-.753.27s-.393.5-.514.964c-.16.602-.24 1.615-.24 3.04s.072 2.4.217 2.937c.143.53.324.886.54 1.062.22.176.47.264.75.264s.534-.09.755-.27.39-.5.514-.964c.16-.596.24-1.607.24-3.03s-.073-2.403-.218-2.937c-.143-.533-.324-.89-.54-1.068a1.145 1.145 0 0 0-.75-.27zM15.564 104.117h-2.328v-8.77a8.036 8.036 0 0 1-3.006 1.764V95c.607-.197 1.268-.575 1.98-1.13.71-.555 1.2-1.202 1.465-1.942h1.89v12.19zM24.23 104.117h-2.326v-8.77a8.06 8.06 0 0 1-3.008 1.764V95c.607-.197 1.268-.575 1.98-1.13.71-.555 1.2-1.202 1.465-1.942h1.89v12.19zM32.896 104.117H30.57v-8.77a8.06 8.06 0 0 1-3.008 1.764V95c.607-.197 1.268-.575 1.98-1.13.71-.555 1.2-1.202 1.465-1.942h1.89v12.19zM40.48 91.926c1.175 0 2.093.42 2.757 1.26.79.993 1.184 2.642 1.184 4.943 0 2.296-.397 3.947-1.192 4.95-.656.83-1.572 1.244-2.748 1.244-1.182 0-2.135-.454-2.857-1.363-.725-.907-1.086-2.525-1.086-4.855 0-2.285.398-3.93 1.193-4.937.655-.828 1.57-1.242 2.75-1.242zm0 1.93c-.282 0-.534.09-.755.27s-.393.5-.514.964c-.16.602-.24 1.615-.24 3.04s.07 2.4.216 2.937c.145.53.324.886.543 1.062.216.176.468.264.75.264.278 0 .53-.09.75-.27s.394-.5.517-.964c.158-.596.238-1.607.238-3.03s-.072-2.403-.215-2.937c-.145-.533-.324-.89-.543-1.068s-.47-.27-.748-.27zM52.1 104.117h-2.326v-8.77a8.028 8.028 0 0 1-3.008 1.764V95c.61-.197 1.27-.575 1.98-1.13.713-.555 1.2-1.202 1.467-1.942H52.1v12.19zM60.766 104.117H58.44v-8.77a8.036 8.036 0 0 1-3.006 1.764V95c.607-.197 1.268-.575 1.98-1.13.71-.555 1.2-1.202 1.465-1.942h1.886v12.19zM68.348 91.926c1.176 0 2.096.42 2.758 1.26.79.993 1.184 2.642 1.184 4.943 0 2.296-.396 3.947-1.19 4.95-.66.83-1.575 1.244-2.75 1.244-1.183 0-2.136-.454-2.858-1.363-.723-.907-1.084-2.525-1.084-4.855 0-2.285.396-3.93 1.19-4.937.658-.828 1.572-1.242 2.75-1.242zm0 1.93c-.28 0-.533.09-.754.27s-.393.5-.514.964c-.158.602-.24 1.615-.24 3.04s.072 2.4.215 2.937c.145.53.324.886.545 1.062.217.176.467.264.748.264s.533-.09.754-.27.39-.5.514-.964c.158-.596.24-1.607.24-3.03s-.072-2.403-.217-2.937-.325-.89-.544-1.068a1.14 1.14 0 0 0-.748-.27zM77.95 91.926c1.175 0 2.095.42 2.757 1.26.79.993 1.184 2.642 1.184 4.943 0 2.296-.395 3.947-1.19 4.95-.658.83-1.574 1.244-2.75 1.244-1.182 0-2.135-.454-2.855-1.363-.725-.907-1.086-2.525-1.086-4.855 0-2.285.395-3.93 1.192-4.937.655-.828 1.57-1.242 2.747-1.242zm0 1.93c-.282 0-.534.09-.755.27s-.393.5-.514.964c-.16.602-.24 1.615-.24 3.04s.073 2.4.218 2.937c.143.53.324.886.54 1.062.22.176.47.264.75.264s.534-.09.755-.27.39-.5.514-.964c.16-.596.24-1.607.24-3.03s-.072-2.403-.215-2.937c-.145-.533-.326-.89-.543-1.068-.22-.18-.47-.27-.75-.27zM89.572 104.117h-2.328v-8.77a8.036 8.036 0 0 1-3.006 1.764V95c.61-.197 1.268-.575 1.98-1.13.71-.555 1.2-1.202 1.465-1.942h1.89v12.19zM98.238 104.117H95.91v-8.77a8.036 8.036 0 0 1-3.006 1.764V95c.607-.197 1.268-.575 1.98-1.13.712-.555 1.202-1.202 1.466-1.942h1.89v12.19zM106.818 91.926c1.176 0 2.096.42 2.758 1.26.79.993 1.186 2.642 1.186 4.943 0 2.296-.396 3.947-1.193 4.95-.657.83-1.575 1.244-2.75 1.244-1.183 0-2.134-.454-2.856-1.363-.725-.907-1.086-2.525-1.086-4.855 0-2.285.398-3.93 1.193-4.937.657-.828 1.573-1.242 2.748-1.242zm0 1.93c-.28 0-.53.09-.754.27-.22.18-.39.5-.512.964-.16.602-.24 1.615-.24 3.04s.07 2.4.215 2.937c.143.53.324.886.543 1.062.217.176.467.264.748.264.283 0 .533-.09.754-.27.223-.18.393-.5.514-.964.16-.596.24-1.607.24-3.03s-.072-2.403-.217-2.937c-.144-.533-.323-.89-.542-1.068s-.466-.27-.75-.27zM117.422 91.926c1.176 0 2.094.42 2.758 1.26.79.993 1.184 2.642 1.184 4.943 0 2.296-.396 3.947-1.193 4.95-.655.83-1.57 1.244-2.747 1.244-1.182 0-2.135-.454-2.857-1.363-.723-.907-1.086-2.525-1.086-4.855 0-2.285.398-3.93 1.193-4.937.657-.828 1.57-1.242 2.75-1.242zm0 1.93c-.28 0-.533.09-.754.27s-.393.5-.514.964c-.16.602-.24 1.615-.24 3.04s.07 2.4.215 2.937c.144.53.323.886.542 1.062.217.176.47.264.75.264s.533-.09.754-.27.39-.5.512-.964c.16-.596.24-1.607.24-3.03s-.07-2.403-.215-2.937-.324-.89-.543-1.068a1.14 1.14 0 0 0-.748-.27zM127.023 91.926c1.176 0 2.094.42 2.758 1.26.79.993 1.185 2.642 1.185 4.943 0 2.296-.396 3.947-1.19 4.95-.66.83-1.575 1.244-2.75 1.244-1.183 0-2.136-.454-2.858-1.363-.725-.907-1.086-2.525-1.086-4.855 0-2.285.4-3.93 1.196-4.937.656-.828 1.572-1.242 2.747-1.242zm0 1.93c-.28 0-.533.09-.754.27s-.394.5-.515.964c-.16.602-.24 1.615-.24 3.04s.072 2.4.217 2.937c.143.53.322.886.54 1.062s.47.264.75.264.534-.09.755-.27.39-.5.514-.964c.16-.596.24-1.607.24-3.03s-.07-2.403-.216-2.937c-.143-.533-.324-.89-.54-1.068a1.145 1.145 0 0 0-.75-.27zM138.645 104.117h-2.326v-8.77a8.036 8.036 0 0 1-3.007 1.764V95c.607-.197 1.268-.575 1.98-1.13.71-.555 1.2-1.202 1.465-1.942h1.887v12.19zM3.94 110.31c1.177 0 2.097.42 2.76 1.26.788.995 1.183 2.644 1.183 4.945 0 2.296-.396 3.948-1.19 4.952-.66.828-1.575 1.242-2.75 1.242-1.183 0-2.134-.455-2.858-1.364C.36 120.438 0 118.82 0 116.49c0-2.286.396-3.932 1.19-4.937.66-.828 1.576-1.242 2.75-1.242zm0 1.93c-.28 0-.532.09-.753.27s-.393.5-.514.965c-.16.602-.24 1.616-.24 3.04s.072 2.403.217 2.937c.143.532.324.887.54 1.062.22.178.47.265.75.265s.534-.09.755-.27c.22-.18.39-.5.514-.965.16-.596.24-1.606.24-3.03s-.073-2.403-.218-2.937c-.143-.532-.324-.89-.54-1.068a1.144 1.144 0 0 0-.75-.27zM13.543 110.31c1.176 0 2.096.42 2.758 1.26.79.995 1.185 2.644 1.185 4.945 0 2.296-.396 3.948-1.19 4.952-.66.828-1.575 1.242-2.75 1.242-1.183 0-2.136-.455-2.856-1.364-.726-.907-1.087-2.526-1.087-4.855 0-2.285.396-3.93 1.19-4.936.658-.83 1.574-1.243 2.75-1.243zm0 1.93c-.28 0-.53.09-.754.27-.222.18-.392.5-.515.965-.158.602-.24 1.616-.24 3.04s.072 2.403.215 2.937c.145.532.326.887.545 1.062.217.178.467.265.748.265s.533-.09.754-.27c.22-.18.393-.5.514-.965.16-.596.24-1.606.24-3.03s-.07-2.403-.214-2.937c-.145-.532-.326-.89-.543-1.068-.22-.18-.47-.27-.75-.27zM25.166 122.502h-2.328v-8.77a8.02 8.02 0 0 1-3.006 1.764v-2.11c.607-.2 1.268-.577 1.98-1.132.712-.555 1.202-1.202 1.466-1.943h1.89v12.192zM32.746 110.31c1.176 0 2.096.42 2.758 1.26.79.995 1.186 2.644 1.186 4.945 0 2.296-.396 3.948-1.193 4.952-.656.828-1.574 1.242-2.75 1.242-1.182 0-2.133-.455-2.855-1.364-.723-.907-1.086-2.526-1.086-4.855 0-2.285.398-3.93 1.193-4.936.656-.83 1.57-1.243 2.746-1.243zm0 1.93c-.28 0-.53.09-.752.27s-.393.5-.514.965c-.16.602-.24 1.616-.24 3.04s.072 2.403.215 2.937c.143.532.324.887.543 1.062.22.178.467.265.748.265.283 0 .533-.09.756-.27.22-.18.39-.5.512-.965.16-.596.24-1.606.24-3.03s-.072-2.403-.215-2.937c-.146-.532-.325-.89-.544-1.068a1.14 1.14 0 0 0-.75-.27zM42.35 110.31c1.176 0 2.094.42 2.758 1.26.79.995 1.184 2.644 1.184 4.945 0 2.296-.396 3.948-1.193 4.952-.657.828-1.573 1.242-2.75 1.242-1.18 0-2.134-.455-2.856-1.364-.723-.907-1.086-2.526-1.086-4.855 0-2.285.398-3.93 1.193-4.936.658-.83 1.574-1.243 2.75-1.243zm0 1.93c-.28 0-.533.09-.754.27s-.393.5-.514.965c-.16.602-.24 1.616-.24 3.04s.072 2.403.215 2.937c.145.532.324.887.543 1.062.217.178.47.265.75.265s.533-.09.754-.27c.22-.18.39-.5.514-.965.16-.596.238-1.606.238-3.03s-.07-2.403-.215-2.937c-.142-.532-.323-.89-.54-1.068-.22-.18-.47-.27-.75-.27zM51.95 110.31c1.177 0 2.097.42 2.76 1.26.788.995 1.183 2.644 1.183 4.945 0 2.296-.396 3.948-1.19 4.952-.66.828-1.575 1.242-2.75 1.242-1.183 0-2.136-.455-2.858-1.364-.723-.907-1.084-2.526-1.084-4.855 0-2.285.397-3.93 1.194-4.936.655-.83 1.57-1.243 2.747-1.243zm0 1.93c-.28 0-.532.09-.753.27s-.393.5-.514.965c-.158.602-.24 1.616-.24 3.04s.072 2.403.217 2.937c.143.532.322.887.543 1.062.217.178.467.265.748.265s.534-.09.755-.27c.22-.18.39-.5.514-.965.16-.596.24-1.606.24-3.03s-.073-2.403-.218-2.937c-.143-.532-.322-.89-.54-1.068s-.47-.27-.75-.27zM61.553 110.31c1.176 0 2.096.42 2.758 1.26.792.995 1.187 2.644 1.187 4.945 0 2.296-.398 3.948-1.193 4.952-.658.828-1.574 1.242-2.75 1.242-1.182 0-2.133-.455-2.855-1.364-.726-.907-1.087-2.526-1.087-4.855 0-2.285.396-3.93 1.193-4.936.655-.83 1.57-1.243 2.747-1.243zm0 1.93c-.28 0-.53.09-.754.27-.222.18-.392.5-.513.965-.16.602-.24 1.616-.24 3.04s.07 2.403.215 2.937c.143.532.324.887.543 1.062.217.178.467.265.748.265.283 0 .533-.09.756-.27.218-.18.39-.5.51-.965.16-.596.24-1.606.24-3.03s-.07-2.403-.214-2.937c-.145-.532-.324-.89-.543-1.068s-.467-.27-.75-.27zM71.154 110.31c1.176 0 2.096.42 2.758 1.26.79.995 1.184 2.644 1.184 4.945 0 2.296-.396 3.948-1.19 4.952-.66.828-1.575 1.242-2.75 1.242-1.183 0-2.134-.455-2.858-1.364-.723-.907-1.084-2.526-1.084-4.855 0-2.285.396-3.93 1.193-4.936.655-.83 1.572-1.243 2.747-1.243zm0 1.93c-.28 0-.533.09-.754.27s-.39.5-.512.965c-.16.602-.242 1.616-.242 3.04s.072 2.403.217 2.937c.143.532.322.887.543 1.062.217.178.467.265.748.265s.533-.09.754-.27c.22-.18.393-.5.514-.965.16-.596.24-1.606.24-3.03s-.072-2.403-.217-2.937c-.143-.532-.322-.89-.54-1.068s-.47-.27-.75-.27zM80.756 110.31c1.178 0 2.096.42 2.758 1.26.79.995 1.184 2.644 1.184 4.945 0 2.296-.396 3.948-1.19 4.952-.657.828-1.573 1.242-2.75 1.242-1.183 0-2.134-.455-2.856-1.364-.725-.907-1.086-2.526-1.086-4.855 0-2.285.398-3.93 1.193-4.936.654-.83 1.57-1.243 2.746-1.243zm0 1.93c-.28 0-.53.09-.752.27-.223.18-.393.5-.514.965-.16.602-.242 1.616-.242 3.04s.072 2.403.217 2.937c.143.532.324.887.543 1.062.217.178.47.265.748.265.283 0 .533-.09.754-.27.22-.18.393-.5.514-.965.16-.596.24-1.606.24-3.03s-.072-2.403-.215-2.937c-.146-.532-.325-.89-.544-1.068a1.14 1.14 0 0 0-.75-.27zM92.38 122.502h-2.327v-8.77a8.036 8.036 0 0 1-3.006 1.764v-2.11c.607-.2 1.268-.577 1.98-1.132.712-.555 1.2-1.202 1.464-1.943h1.89v12.192zM101.045 122.502H98.72v-8.77a8.02 8.02 0 0 1-3.007 1.764v-2.11c.607-.2 1.268-.577 1.98-1.132.712-.555 1.2-1.202 1.466-1.943h1.886v12.192zM109.71 122.502h-2.325v-8.77a8.036 8.036 0 0 1-3.006 1.764v-2.11c.606-.2 1.267-.577 1.978-1.132.713-.555 1.2-1.202 1.465-1.943h1.89v12.192zM118.293 110.31c1.176 0 2.096.42 2.758 1.26.79.995 1.185 2.644 1.185 4.945 0 2.296-.396 3.948-1.19 4.952-.66.828-1.575 1.242-2.75 1.242-1.183 0-2.134-.455-2.858-1.364-.723-.907-1.084-2.526-1.084-4.855 0-2.285.396-3.93 1.19-4.936.658-.83 1.574-1.243 2.75-1.243zm0 1.93c-.28 0-.533.09-.754.27s-.392.5-.513.965c-.16.602-.242 1.616-.242 3.04s.072 2.403.215 2.937c.145.532.324.887.545 1.062.217.178.467.265.748.265s.533-.09.754-.27c.22-.18.393-.5.514-.965.16-.596.24-1.606.24-3.03s-.07-2.403-.216-2.937c-.143-.532-.324-.89-.543-1.068a1.138 1.138 0 0 0-.747-.27zM130.916 122.502h-2.328v-8.77a8.02 8.02 0 0 1-3.006 1.764v-2.11c.607-.2 1.268-.577 1.98-1.132.71-.555 1.2-1.202 1.465-1.943h1.89v12.192zM139.582 122.502h-2.328v-8.77a8.02 8.02 0 0 1-3.006 1.764v-2.11c.61-.2 1.27-.577 1.98-1.132.713-.555 1.2-1.202 1.465-1.943h1.89v12.192z"/><g fill="#3BA0F3"><path d="M18.264 30.394H16.01v-8.49a7.756 7.756 0 0 1-2.91 1.708v-2.045c.588-.192 1.227-.557 1.916-1.094s1.162-1.164 1.42-1.88h1.828v11.8zM34.152 21.52l-2.18.24c-.055-.45-.193-.78-.418-.995s-.516-.32-.873-.32c-.476 0-.878.214-1.206.642s-.535 1.317-.62 2.67c.56-.663 1.257-.995 2.09-.995.942 0 1.747.358 2.42 1.075.67.716 1.005 1.64 1.005 2.773 0 1.203-.355 2.167-1.06 2.895-.705.727-1.61 1.09-2.717 1.09-1.188 0-2.162-.46-2.928-1.383-.764-.922-1.146-2.434-1.146-4.533 0-2.155.397-3.708 1.194-4.66s1.83-1.426 3.104-1.426c.893 0 1.63.25 2.217.75.584.498.957 1.223 1.117 2.175zm-5.107 4.913c0 .732.17 1.298.506 1.696s.722.596 1.155.596c.418 0 .764-.162 1.043-.488.277-.326.416-.86.416-1.604 0-.765-.15-1.324-.45-1.68s-.673-.533-1.12-.533c-.434 0-.8.17-1.1.51-.3.34-.45.84-.45 1.503zM35.848 27.37l2.246-.23c.062.507.254.91.568 1.205.314.297.68.445 1.09.445.47 0 .87-.19 1.195-.573s.488-.958.488-1.728c0-.723-.16-1.264-.484-1.624-.323-.36-.743-.542-1.263-.542-.646 0-1.227.286-1.738.858l-1.83-.265 1.155-6.117h5.957v2.108h-4.25l-.352 1.996a3.41 3.41 0 0 1 1.54-.377c.997 0 1.845.364 2.54 1.09s1.043 1.67 1.043 2.83c0 .97-.28 1.83-.842 2.59-.765 1.037-1.825 1.556-3.183 1.556-1.086 0-1.97-.29-2.654-.874-.682-.582-1.09-1.366-1.225-2.35zM49.53 30.394V28.03h-4.812v-1.973l5.1-7.464h1.893v7.455h1.46v1.98h-1.46v2.365h-2.18zm0-4.346V22.03l-2.702 4.018h2.7zM66.742 28.3v2.094h-7.896c.084-.79.342-1.54.77-2.25s1.27-1.646 2.533-2.816c1.015-.946 1.636-1.588 1.866-1.925.31-.465.465-.925.465-1.38 0-.5-.134-.888-.403-1.157s-.643-.405-1.12-.405c-.468 0-.843.143-1.12.426-.28.284-.44.754-.482 1.41l-2.244-.224c.134-1.24.554-2.13 1.26-2.67s1.587-.81 2.646-.81c1.16 0 2.07.313 2.734.94.662.624.994 1.402.994 2.332 0 .53-.096 1.033-.285 1.512-.19.478-.49.98-.903 1.503-.27.347-.764.846-1.475 1.498s-1.162 1.085-1.352 1.3-.344.42-.46.624h4.472zM76.062 21.52l-2.182.24c-.053-.45-.19-.78-.416-.995s-.516-.32-.875-.32c-.476 0-.878.214-1.208.642-.328.428-.535 1.317-.62 2.67.56-.663 1.26-.995 2.093-.995.94 0 1.746.358 2.416 1.075.673.716 1.007 1.64 1.007 2.773 0 1.203-.352 2.167-1.057 2.895-.707.727-1.61 1.09-2.72 1.09-1.185 0-2.16-.46-2.925-1.383-.766-.922-1.146-2.434-1.146-4.533 0-2.155.397-3.708 1.192-4.66.797-.95 1.832-1.426 3.104-1.426.893 0 1.63.25 2.217.75s.96 1.223 1.12 2.175zm-5.107 4.913c0 .732.168 1.298.504 1.696.337.397.722.596 1.155.596.416 0 .764-.162 1.04-.488s.42-.86.42-1.604c0-.765-.15-1.324-.45-1.68-.3-.355-.674-.533-1.123-.533-.434 0-.8.17-1.098.51-.3.34-.45.84-.45 1.503zM77.725 20.894V18.8h7.705v1.637c-.637.625-1.283 1.523-1.94 2.693a15.754 15.754 0 0 0-1.503 3.732c-.344 1.317-.514 2.494-.51 3.53h-2.172c.037-1.624.373-3.28 1.006-4.97.634-1.688 1.48-3.2 2.538-4.53h-5.123zM20.516 43.457l2.3.73c-.35 1.282-.938 2.234-1.76 2.857-.82.622-1.86.934-3.122.934-1.56 0-2.842-.533-3.848-1.6-1.004-1.065-1.508-2.523-1.508-4.373 0-1.956.506-3.476 1.516-4.558s2.338-1.623 3.984-1.623c1.438 0 2.605.425 3.504 1.274.535.502.936 1.224 1.203 2.164l-2.35.562c-.14-.61-.43-1.09-.87-1.443-.44-.352-.976-.527-1.606-.527-.872 0-1.58.312-2.122.938s-.814 1.64-.814 3.04c0 1.485.268 2.544.803 3.174.533.63 1.23.946 2.084.946.632 0 1.175-.2 1.628-.6.454-.402.78-1.033.978-1.893zM35.207 47.778h-2.582l-1.025-2.67h-4.7l-.97 2.67h-2.517l4.578-11.753h2.51l4.707 11.753zm-4.37-4.65l-1.618-4.36-1.59 4.36h3.208zM36.662 36.025h2.22v7.824l4.763-7.825h2.365v11.753h-2.22v-7.673l-4.755 7.673h-2.373V36.025zm6.092-2.926h1.1c-.064.727-.32 1.297-.766 1.71-.447.415-1.025.622-1.736.622s-1.29-.207-1.736-.62c-.445-.415-.7-.985-.766-1.713h1.1c.037.38.17.666.4.86s.564.293 1.002.293.77-.097 1.002-.292.363-.48.4-.86zM51.24 47.778v-9.765h-3.486v-1.988h9.34v1.988h-3.48v9.765H51.24zM57.9 41.974c0-1.197.178-2.202.537-3.015a5.503 5.503 0 0 1 1.094-1.612c.464-.476.97-.828 1.52-1.058.733-.31 1.577-.465 2.534-.465 1.732 0 3.117.537 4.156 1.61s1.56 2.57 1.56 4.482c0 1.897-.517 3.382-1.548 4.453-1.03 1.072-2.41 1.607-4.137 1.607-1.748 0-3.137-.533-4.168-1.6-1.03-1.064-1.547-2.532-1.547-4.403zm2.446-.08c0 1.33.307 2.34.922 3.026.613.688 1.395 1.03 2.34 1.03.947 0 1.723-.34 2.33-1.022.605-.68.91-1.703.91-3.066 0-1.347-.297-2.352-.887-3.014-.59-.663-1.374-.994-2.353-.994s-1.766.335-2.365 1.006c-.597.67-.896 1.682-.896 3.034zM71.324 36.025h4.697c.933 0 1.626.04 2.083.116s.865.24 1.227.485c.36.246.66.573.9.982.242.41.36.867.36 1.375 0 .55-.147 1.056-.444 1.516-.297.46-.7.804-1.205 1.034.716.208 1.267.563 1.65 1.066.386.502.58 1.093.58 1.77 0 .535-.126 1.055-.374 1.56a3.125 3.125 0 0 1-1.02 1.21c-.43.304-.96.49-1.59.56-.396.042-1.35.068-2.863.08h-4V36.024zm2.373 1.956v2.72h1.555c.926 0 1.5-.015 1.725-.04.406-.05.725-.19.957-.422s.35-.538.35-.918c0-.363-.1-.66-.3-.886-.202-.228-.5-.365-.896-.413-.234-.025-.91-.04-2.027-.04h-1.363zm0 4.675v3.143h2.197c.854 0 1.396-.023 1.627-.072.355-.063.642-.22.862-.47.223-.247.334-.58.334-.997 0-.354-.086-.653-.258-.898a1.446 1.446 0 0 0-.74-.538c-.324-.11-1.025-.168-2.105-.168h-1.916z"/></g></svg>