<svg xmlns="http://www.w3.org/2000/svg" width="148.031" height="139.287" viewBox="0 0 148.031 139.287"><path fill="#F5F5F5" d="M147.936 106.32a7.943 7.943 0 0 1-7.943 7.942H21.637a7.942 7.942 0 0 1-7.94-7.943V7.943A7.943 7.943 0 0 1 21.636 0h118.355a7.944 7.944 0 0 1 7.943 7.944v98.375z"/><path fill="#00A184" d="M147.936 17.48V7.945A7.944 7.944 0 0 0 139.993 0H21.637a7.943 7.943 0 0 0-7.94 7.944v9.537h134.24z"/><path fill="#D9D9D9" d="M13.695 82.687v23.633a7.942 7.942 0 0 0 7.94 7.943h118.356a7.943 7.943 0 0 0 7.944-7.943V56.668l-14.947-8.943-22.764 25.205L90.71 56.668 64.69 84.313 37.044 69.85l-23.35 12.837z"/><path fill="#FFF" d="M142.07 9.886c0 1.87-1.52 3.39-3.39 3.39H48.835a3.392 3.392 0 0 1-3.39-3.39c0-1.873 1.52-3.39 3.39-3.39h89.844a3.39 3.39 0 0 1 3.39 3.39z"/><circle fill="#FF3131" cx="24.034" cy="10.021" r="3.794"/><circle fill="#EECA3C" cx="36.773" cy="10.021" r="3.795"/><g fill="#555658"><path d="M29.385 34.438l1.645-.2c.053.42.193.74.424.962.23.223.508.333.834.333.35 0 .646-.133.885-.4.24-.265.36-.624.36-1.075 0-.427-.114-.766-.345-1.016s-.51-.375-.84-.375c-.22 0-.48.042-.78.127l.187-1.385c.46.01.81-.09 1.053-.3.242-.212.363-.493.363-.844 0-.3-.09-.536-.265-.714-.178-.178-.414-.267-.71-.267-.288 0-.536.102-.74.303-.208.2-.333.496-.376.883l-1.567-.265c.107-.536.27-.965.492-1.285.22-.32.525-.572.92-.756a3.072 3.072 0 0 1 1.32-.275c.834 0 1.504.265 2.008.797.416.436.623.928.623 1.476 0 .778-.426 1.4-1.275 1.862.51.11.915.354 1.22.732.303.38.455.836.455 1.372 0 .777-.283 1.44-.852 1.99-.568.547-1.277.82-2.123.82-.803 0-1.467-.23-1.996-.69-.53-.463-.835-1.066-.92-1.812zM39.328 27.89c.86 0 1.53.306 2.014.918.576.726.865 1.93.865 3.61 0 1.677-.29 2.883-.87 3.616-.48.604-1.15.907-2.01.907-.86 0-1.558-.33-2.085-.994s-.79-1.845-.79-3.547c0-1.67.288-2.87.868-3.605.48-.604 1.15-.906 2.008-.906zm0 1.408a.844.844 0 0 0-.55.196c-.16.13-.286.366-.374.704-.117.44-.176 1.18-.176 2.22s.053 1.755.156 2.144c.105.39.238.648.396.777.16.128.342.192.547.192.207 0 .39-.065.55-.196s.288-.366.376-.705c.117-.434.176-1.172.176-2.212s-.054-1.755-.16-2.144c-.103-.39-.235-.65-.395-.78a.83.83 0 0 0-.547-.196zM49.207 35.212v1.578H43.25c.064-.597.258-1.162.58-1.696s.96-1.242 1.912-2.126c.766-.713 1.234-1.197 1.408-1.45.234-.352.352-.698.352-1.04 0-.38-.102-.67-.307-.875-.203-.203-.484-.305-.844-.305-.353 0-.636.106-.845.32s-.33.568-.363 1.064l-1.693-.17c.1-.935.417-1.606.948-2.014.533-.407 1.197-.61 1.996-.61.875 0 1.562.235 2.062.707s.75 1.06.75 1.76c0 .4-.072.78-.215 1.14-.142.36-.368.74-.68 1.135-.206.262-.577.64-1.112 1.13-.537.492-.877.82-1.02.98s-.258.318-.348.472h3.377zM59.8 30.096l-1.644.182c-.04-.34-.145-.59-.314-.75s-.39-.242-.658-.242c-.36 0-.664.162-.91.484-.248.322-.404.993-.47 2.014.423-.5.95-.75 1.58-.75.708 0 1.315.27 1.82.81s.76 1.238.76 2.093c0 .907-.267 1.635-.798 2.184-.53.55-1.215.823-2.05.823-.896 0-1.63-.348-2.208-1.043-.576-.695-.863-1.836-.863-3.42 0-1.625.3-2.796.9-3.514.6-.718 1.38-1.076 2.34-1.076.674 0 1.23.188 1.672.565s.723.923.844 1.64zm-3.85 3.707c0 .553.126.98.38 1.28.254.3.545.45.87.45a.988.988 0 0 0 .786-.37c.21-.245.314-.648.314-1.21 0-.575-.113-.998-.338-1.266a1.062 1.062 0 0 0-.848-.402c-.326 0-.602.128-.828.384-.224.255-.337.633-.337 1.133zM61.092 34.74l1.645-.182c.04.335.145.583.314.744s.394.24.673.24c.35 0 .648-.16.895-.482s.402-.992.47-2.008c-.427.496-.96.744-1.6.744-.698 0-1.3-.27-1.806-.808s-.76-1.238-.76-2.102c0-.898.268-1.623.8-2.174.536-.55 1.216-.825 2.042-.825.898 0 1.637.348 2.213 1.043.578.695.865 1.84.865 3.432 0 1.62-.3 2.79-.9 3.508-.602.718-1.383 1.076-2.348 1.076-.693 0-1.252-.185-1.68-.554-.428-.367-.7-.918-.822-1.652zm3.846-3.713c0-.55-.127-.974-.38-1.276-.25-.3-.542-.452-.872-.452a.98.98 0 0 0-.783.372c-.207.247-.31.653-.31 1.218 0 .573.11.993.337 1.26.225.27.508.403.846.403.328 0 .602-.128.826-.386s.336-.637.336-1.137zM68.006 34.438l1.645-.2c.054.42.194.74.425.962.23.223.508.333.834.333.35 0 .645-.133.886-.4.24-.265.36-.624.36-1.075 0-.427-.116-.766-.345-1.016a1.103 1.103 0 0 0-.84-.375c-.218 0-.478.042-.78.127l.188-1.385c.46.01.81-.09 1.053-.3.24-.212.362-.493.362-.844 0-.3-.088-.536-.266-.714s-.412-.267-.707-.267c-.292 0-.54.102-.745.303s-.33.496-.375.883l-1.566-.265c.11-.536.273-.965.494-1.285.22-.32.525-.572.918-.756s.834-.275 1.322-.275c.834 0 1.502.265 2.008.797.414.436.62.928.62 1.476 0 .778-.423 1.4-1.274 1.862.508.11.914.354 1.22.732s.456.836.456 1.372c0 .777-.285 1.44-.854 1.99-.568.547-1.275.82-2.123.82-.8 0-1.466-.23-1.993-.69-.53-.463-.837-1.066-.92-1.812zM84.69 33.53l1.735.55c-.266.97-.71 1.688-1.328 2.156-.62.47-1.404.705-2.355.705-1.176 0-2.145-.4-2.902-1.206-.758-.804-1.137-1.903-1.137-3.298 0-1.476.38-2.622 1.143-3.438s1.764-1.225 3.006-1.225c1.084 0 1.965.32 2.643.962.402.38.705.923.906 1.633l-1.77.423c-.104-.458-.322-.82-.656-1.087-.332-.267-.736-.4-1.21-.4-.66 0-1.192.236-1.6.708-.41.473-.616 1.237-.616 2.293 0 1.12.203 1.92.605 2.395.402.477.928.714 1.572.714.477 0 .885-.15 1.23-.453.34-.305.586-.78.734-1.43zM95.77 36.79h-1.946l-.773-2.014H89.51l-.732 2.014h-1.898l3.453-8.865h1.894l3.547 8.865zm-3.293-3.508l-1.223-3.29-1.197 3.29h2.42zM96.87 27.925h1.675v5.902l3.592-5.902h1.783v8.865h-1.676v-5.787l-3.586 5.787h-1.79v-8.865zm4.595-2.207h.828c-.05.548-.24.98-.576 1.29-.338.313-.773.47-1.31.47-.536 0-.974-.156-1.31-.47s-.53-.742-.578-1.29h.827c.03.286.13.503.303.65.174.146.426.22.756.22s.582-.073.756-.22c.174-.147.276-.364.303-.65zM107.865 36.79v-7.365h-2.63v-1.5h7.044v1.5h-2.624v7.365h-1.79zM112.887 32.412c0-.903.135-1.66.406-2.273.2-.453.477-.858.824-1.217.35-.36.73-.625 1.146-.8.553-.232 1.19-.35 1.91-.35 1.307 0 2.352.405 3.137 1.216.783.81 1.176 1.937 1.176 3.38 0 1.43-.39 2.55-1.168 3.358-.777.81-1.816 1.213-3.12 1.213-1.317 0-2.366-.4-3.144-1.206-.78-.803-1.167-1.91-1.167-3.322zm1.845-.06c0 1.004.23 1.765.695 2.282.463.52 1.05.777 1.766.777.713 0 1.3-.256 1.756-.77.456-.515.687-1.285.687-2.313 0-1.016-.223-1.773-.67-2.273-.445-.5-1.037-.75-1.773-.75-.738 0-1.332.253-1.785.76-.453.504-.678 1.268-.678 2.288zM123.014 27.925h3.543c.7 0 1.225.03 1.568.088.346.06.654.18.926.366.272.184.5.43.68.74.183.308.274.653.274 1.036 0 .415-.11.796-.336 1.143a2.076 2.076 0 0 1-.91.78c.54.156.955.425 1.246.804.29.38.436.824.436 1.336 0 .403-.094.796-.28 1.177s-.444.686-.77.913c-.325.228-.726.367-1.2.42-.3.032-1.018.053-2.158.06h-3.018v-8.865zm1.79 1.475v2.05h1.173c.697 0 1.13-.01 1.3-.03.306-.036.548-.142.722-.317.175-.175.263-.406.263-.692 0-.273-.076-.496-.227-.667-.15-.172-.375-.275-.674-.312-.178-.02-.688-.03-1.53-.03h-1.03zm0 3.526v2.37h1.655c.645 0 1.054-.018 1.228-.054.266-.05.482-.167.65-.354.166-.188.25-.438.25-.753 0-.267-.064-.492-.193-.678s-.314-.32-.56-.405-.772-.127-1.587-.127h-1.445z"/></g><path opacity=".15" d="M35.96 67.323v47.143H63.06V84.23L36.23 69.11zM91.047 69.162v45.304h19.785V74.472L91.318 58.497z"/><path fill="#9C9C9B" d="M13.7 85.84l.034-4.846 23.89-14.027 1.542 3.964z"/><path fill="#9C9C9B" d="M32.49 68.427l2.21-3.634L66.217 83.97l-2.21 3.633zM88.157 57.87l2.707-3.28 21.97 18.13L110.13 76zM148.03 55.702v4.964l-16.614-12.604 2.723-3.27z"/><path fill="#9C9C9B" d="M63.04 87.502l-2.957-3.056 30.443-29.452 2.957 3.057zM111.424 77.174l-3.195-2.81 25.886-29.45 3.195 2.81z"/><circle fill="#427EEB" cx="36.237" cy="69.044" r="5.962"/><circle fill="#133B75" cx="91.315" cy="58.422" r="5.962"/><circle fill="#32B57C" cx="62.792" cy="84.043" r="5.962"/><circle fill="#EECA3C" cx="133.38" cy="47.249" r="5.962"/><path opacity=".2" d="M34.654 112.47c6.383 0 12.32-1.884 17.3-5.116l.694.755.016-.015a.63.63 0 0 0 .084.122c.072.078.17.128.277.162l2.17 2.36c-1.02 1.428-1.533 2.762-1.375 3.647h18.63l-7.79-8.483-.035.03c-.01-.007-.027-.008-.037-.015a1.176 1.176 0 0 0-.203-.334c-.71-.77-2.43-.43-4.36.718l-2.882-3.14c5.773-5.76 9.344-13.726 9.344-22.525 0-17.58-14.25-31.832-31.832-31.832-17.578 0-31.83 14.252-31.83 31.83s14.25 31.833 31.83 31.833z"/><circle fill="#FF4A4A" cx="111.036" cy="72.795" r="5.962"/><path fill="#FF7600" d="M61.803 103.11c-1.248-.786-4.168.395-6.81 2.817-2.64 2.424-4.058 5.234-3.38 6.545l-.033.028 23.98 26.107.033-.03c.05.096.107.185.182.265 1.062 1.154 4.22-.013 7.05-2.615 2.833-2.6 4.267-5.65 3.204-6.807a1.173 1.173 0 0 0-.25-.202l.034-.03-23.977-26.106-.034.03z"/><path opacity=".15" d="M61.838 103.08l-.035.03c-.598-.376-1.584-.298-2.736.15L85.83 132.4c.628-1.28.747-2.383.2-2.98a1.173 1.173 0 0 0-.248-.2l.033-.03-23.977-26.107z"/><path opacity=".15" fill="#FFF" d="M79.672 138.48c.85-.44 1.754-1.05 2.643-1.8L56.63 108.72l-2.327 2.14 25.37 27.618z"/><path fill="#CB5C09" d="M61.56 102.763c1.024 1.115-.446 4.132-3.282 6.737-2.838 2.605-5.967 3.816-6.994 2.7-1.02-1.115.447-4.134 3.283-6.737 2.837-2.608 5.968-3.815 6.994-2.7z"/><path fill="#D9D9D9" d="M51.262 97.05c-.586-.37-1.96.185-3.203 1.325-1.243 1.143-1.915 2.466-1.595 3.082l-.014.014 7.216 7.857.018-.012a.63.63 0 0 0 .084.122c.502.546 1.99-.006 3.32-1.23 1.334-1.224 2.01-2.66 1.51-3.205a.813.813 0 0 0-.115-.096l.016-.014-7.218-7.86-.02.018z"/><path opacity=".15" d="M47.42 93.006c-.584-.372-1.96.184-3.2 1.325-1.247 1.143-1.915 2.466-1.597 3.082l-.016.015 7.217 7.857.018-.014c.02.044.05.085.082.122.504.547 1.99-.006 3.322-1.23 1.334-1.223 2.01-2.658 1.508-3.205a.525.525 0 0 0-.115-.094l.015-.018-7.217-7.855-.018.016z"/><circle fill="#FF7600" cx="31.831" cy="77.815" r="31.831"/><circle fill="#ECECEC" cx="31.831" cy="77.815" r="27.815"/><path fill="#D9D9D9" d="M36.42 77.242s-14.625 10.076-26.23 18.04c5.1 6.31 12.896 10.35 21.643 10.35 11.86 0 21.982-7.427 25.982-17.883L36.42 77.24z"/><path opacity=".15" d="M36.42 105.248c8.865-1.473 16.31-7.134 20.234-14.883-8.797-5.5-20.234-13.123-20.234-13.123v28.006z"/><path fill="#9C9C9B" d="M11.707 97.006L38.81 81.138l17.18 10.46a27.63 27.63 0 0 0 2.493-5.81L34.16 70.984l-3.254 5.342 1.918 1.168-24.865 14.6a27.827 27.827 0 0 0 3.747 4.912z"/><circle fill="#427EEB" cx="36.42" cy="77.241" r="8.77"/><ellipse transform="rotate(57.29 24.4 69.802)" opacity=".15" fill="#FFF" cx="24.399" cy="69.803" rx="9.912" ry="16.63"/></svg>