<svg xmlns="http://www.w3.org/2000/svg" width="178.336" height="163.206" viewBox="0 0 178.336 163.206"><circle fill="#F2FFCB" cx="94.867" cy="72.138" r="71"/><circle fill="#15A951" cx="61.497" cy="53.228" r="27.789"/><ellipse fill="#18B457" cx="96.201" cy="117.138" rx="59.666" ry="22.667"/><ellipse opacity=".1" cx="95.201" cy="107.471" rx="36.854" ry="4.334"/><circle fill="#14DA72" cx="51.069" cy="86.115" r="12.489"/><path fill="#A98450" d="M57.81 105.613a.47.47 0 0 1-.31.59l-.227.068a.47.47 0 0 1-.588-.31l-5.373-17.454a.472.472 0 0 1 .312-.59l.225-.068a.47.47 0 0 1 .587.312l5.374 17.453z"/><path fill="#A98450" d="M52.217 87.855c.23.125.314.412.19.64l-.114.207a.47.47 0 0 1-.64.188l-6.93-3.78a.474.474 0 0 1-.19-.64l.114-.206a.472.472 0 0 1 .64-.188l6.93 3.78z"/><path fill="#A98450" d="M50.424 86.73a.473.473 0 0 1-.482.46l-.234-.005a.47.47 0 0 1-.463-.48l.166-7.893a.472.472 0 0 1 .483-.46l.234.004c.26.006.467.222.46.48l-.163 7.893zM46.822 85.41c.127-.052.31.1.41.34l.092.22c.098.24.074.477-.053.53l-3.87 1.6c-.127.053-.312-.1-.41-.34l-.09-.22c-.1-.24-.078-.478.05-.53l3.872-1.6zM53.13 81.606a.47.47 0 0 1 .298-.593l.225-.076a.473.473 0 0 1 .596.3l2.476 7.464a.472.472 0 0 1-.3.597l-.224.074a.47.47 0 0 1-.594-.298l-2.48-7.466z"/><path fill="#A98450" d="M57.203 80.436c.088-.133.336-.123.55.02l.198.134c.216.146.317.37.228.505l-2.72 4.033c-.09.133-.335.122-.552-.022l-.195-.132c-.216-.145-.317-.372-.23-.505l2.723-4.034zM59.082 84.604c.203-.263.537-.348.742-.188l.186.146c.207.16.207.5.004.765l-6.19 7.98c-.206.262-.538.346-.743.187l-.185-.145c-.205-.16-.207-.504-.004-.767l6.192-7.98zM49.02 93.828c-.168-.103-.193-.368-.057-.59l.125-.2c.135-.22.383-.316.55-.213l5.09 3.136c.167.105.192.368.056.59l-.124.2c-.137.222-.385.317-.553.214l-5.087-3.136z"/><path fill="#836235" d="M75.7 52.284l-.38-.3c-.422-.328-1.105-.153-1.52.386l-5.345 6.885-1.982-5.973 5.47-8.114c.185-.274-.024-.737-.466-1.036l-.404-.272c-.44-.297-.95-.315-1.13-.044L65.51 50.38l-1.633-4.92a.967.967 0 0 0-1.22-.614l-.462.156a.965.965 0 0 0-.615 1.217l5.086 15.318c.002.005.006.007.008.012l-4.246 5.47-2.238-7.27a.946.946 0 0 0-.48-.71L55.97 57c.028-.087.058-.173.062-.27l.338-16.194a.968.968 0 0 0-.945-.986l-.484-.01a.966.966 0 0 0-.985.945l-.322 15.24-8.14-4.44a.965.965 0 0 0-1.31.388l-.233.426a.968.968 0 0 0 .387 1.31l2.496 1.362-6.133 2.534c-.262.108-.31.597-.105 1.09l.186.45c.202.492.58.804.845.696l7.938-3.283 8.445 4.603 4.02 13.064-7.604-4.688c-.346-.214-.854-.016-1.13.437l-.255.41c-.282.453-.23.998.114 1.208l9.955 6.136 5.774 18.758a.965.965 0 0 0 1.207.64l.464-.142a.965.965 0 0 0 .64-1.207L63.3 69.843l12.408-15.99c.417-.542.415-1.244-.01-1.57z"/><path fill="#0B863D" d="M88.893 82.397l57.017-54.31-15.822 77.14z"/><path opacity=".1" d="M113.2 98.472l32.71-70.385-15.822 77.14z"/><circle fill="#14DA72" cx="140.396" cy="80.249" r="15.615"/><path fill="#A98450" d="M136.184 105.696a.59.59 0 0 1-.693.462l-.288-.06a.587.587 0 0 1-.46-.692l4.497-22.385a.59.59 0 0 1 .694-.46l.287.058a.59.59 0 0 1 .464.693l-4.5 22.386z"/><path fill="#A98450" d="M140.62 82.847a.59.59 0 0 1-.173.815l-.248.16a.587.587 0 0 1-.815-.175l-5.363-8.284a.59.59 0 0 1 .174-.816l.248-.16a.588.588 0 0 1 .814.176l5.363 8.284z"/><path fill="#A98450" d="M139.32 80.54a.59.59 0 0 1-.805.22l-.256-.147a.59.59 0 0 1-.222-.803l4.887-8.576a.59.59 0 0 1 .805-.22l.256.147c.28.16.38.522.22.804l-4.886 8.575zM136.148 76.942c.172.02.283.295.248.62l-.03.292c-.034.323-.2.57-.372.553l-5.21-.55c-.17-.018-.282-.295-.25-.617l.034-.294c.033-.323.2-.57.373-.554l5.208.55zM145.348 76.52a.588.588 0 0 1 .682-.473l.29.05a.59.59 0 0 1 .478.684l-1.727 9.683a.59.59 0 0 1-.683.476l-.29-.053a.592.592 0 0 1-.478-.683l1.728-9.683z"/><path fill="#A98450" d="M150.52 77.663c.18-.094.446.065.595.354l.137.262c.15.288.13.597-.05.69l-5.392 2.81c-.18.094-.445-.064-.596-.353l-.137-.26c-.15-.29-.13-.6.05-.69l5.394-2.814zM150.104 83.365c.38-.167.797-.062.926.236l.12.272c.13.298-.073.674-.454.842l-11.56 5.078c-.382.168-.796.062-.927-.236l-.12-.27c-.13-.298.072-.675.453-.843l11.56-5.078zM133.545 87.504c-.123-.214.008-.52.29-.68l.257-.147c.28-.162.61-.12.73.094l3.725 6.48c.123.213-.006.518-.29.68l-.255.147c-.28.162-.61.12-.732-.094l-3.725-6.48z"/><g><path fill="#FFF" d="M132.186 101.967a6.548 6.548 0 0 1-6.55 6.546H65.138a6.545 6.545 0 0 1-6.548-6.546V6.547A6.547 6.547 0 0 1 65.14 0h60.495a6.55 6.55 0 0 1 6.55 6.547v95.42z"/><path fill="#C5C5C5" d="M125.635 1c3.06 0 5.55 2.488 5.55 5.547v95.42a5.555 5.555 0 0 1-5.55 5.546H65.14a5.553 5.553 0 0 1-5.548-5.546V6.547A5.553 5.553 0 0 1 65.14 1h60.495m0-1H65.14a6.547 6.547 0 0 0-6.548 6.547v95.42a6.545 6.545 0 0 0 6.547 6.546h60.495c3.617 0 6.55-2.93 6.55-6.546V6.547A6.55 6.55 0 0 0 125.636 0z"/></g><path fill="#3BA0F3" d="M129.13 94.702c0 .604-.49 1.092-1.093 1.092H62.742a1.092 1.092 0 0 1-1.094-1.092v-81.99a1.09 1.09 0 0 1 1.094-1.09h65.295c.604 0 1.094.487 1.094 1.09v81.99z"/><path fill="#C5C5C5" d="M98.408 101.393a3.015 3.015 0 0 1-3.016 3.017 3.015 3.015 0 0 1-3.02-3.017 3.023 3.023 0 0 1 3.02-3.02 3.02 3.02 0 0 1 3.016 3.02z"/><circle fill="#3C3C3B" cx="95.39" cy="7.283" r=".976"/><path opacity=".15" fill="#FFF" d="M130.297 99.208V15.855a6.546 6.546 0 0 0-6.545-6.547H60.236l70.06 89.9z"/><path fill="#EDFAFF" d="M103.084 135.538c-4.04-.542-7.05-3.763-7.508-7.63a8.705 8.705 0 0 1-8.646-.223 11.922 11.922 0 0 1-15.007 3.712c-.314.22-.643.426-.977.615-.018.19-.037.38-.062.573-.908 6.77-7.133 11.525-13.906 10.617a12.323 12.323 0 0 1-7.463-3.9c-.47.14-.973.19-1.49.12a3.573 3.573 0 0 1-3.037-2.907 9.23 9.23 0 0 1-2.16-1.697 6.798 6.798 0 0 1-4.707 1.1 6.764 6.764 0 0 1-.82-.167 9.127 9.127 0 0 1-6.71 1.75 9.14 9.14 0 0 1-6.973-4.99 8.735 8.735 0 0 1-1.678-1.632 8.67 8.67 0 0 1-1.726-6.668 8.68 8.68 0 0 1 3.34-7.328c2.918-2.27 6.822-2.384 9.814-.59a6.716 6.716 0 0 1 6.334-2.714c1.062.143 2.03.53 2.863 1.095a5.254 5.254 0 0 1 8.916-2.752 5.225 5.225 0 0 1 2.66-.336 5.223 5.223 0 0 1 2.83 1.315 11.892 11.892 0 0 1 9.708-3.097c1.34.18 2.594.578 3.738 1.15a11.89 11.89 0 0 1 8.412-2.045 11.87 11.87 0 0 1 7.57 4.18 8.7 8.7 0 0 1 6.22-1.546c4.038.542 7.05 3.763 7.51 7.63a8.7 8.7 0 0 1 5.28-.963 8.742 8.742 0 0 1-2.324 17.328z"/><path fill="#FFF" d="M168.035 142.933c-4.79-.01-8.797-4.158-9.926-9.757-1.694 1.538-3.765 2.45-6.01 2.447-1.46-.002-2.847-.394-4.103-1.088-2.37 5.572-7.03 9.36-12.39 9.35a11.403 11.403 0 0 1-4.534-.958 15.29 15.29 0 0 1-1.045 1.095c.01.283.018.567.016.853-.016 10.137-6.54 18.346-14.576 18.332-3.54-.006-6.78-1.615-9.3-4.277a3.45 3.45 0 0 1-1.718.466c-1.867-.003-3.447-1.55-3.986-3.683a10.613 10.613 0 0 1-2.78-2.074c-1.42 1.576-3.276 2.54-5.317 2.537-.334 0-.658-.036-.982-.086-1.947 2.407-4.61 3.892-7.553 3.887-3.705-.006-6.965-2.38-8.895-5.98a10.78 10.78 0 0 1-2.207-2.07c-2.088-2.596-3.094-6.045-3.037-9.473-.588-4.01.326-8.304 2.768-11.43 3.052-3.91 7.587-4.84 11.35-2.783 1.34-3.118 3.958-5.233 6.966-5.23 1.262.004 2.45.386 3.506 1.052.156-4.143 2.865-7.445 6.184-7.44 1.428.003 2.74.623 3.785 1.65.903-.644 1.942-1.014 3.052-1.012 1.3 0 2.506.513 3.502 1.38 2.576-3.94 6.475-6.455 10.838-6.448 1.588.003 3.113.344 4.535.96 2.5-2.89 5.834-4.655 9.49-4.65 3.654.008 6.977 1.778 9.47 4.67 1.84-2.16 4.298-3.49 7.01-3.485 4.79.008 8.796 4.155 9.93 9.755 1.69-1.537 3.76-2.452 6.005-2.447 5.678.01 10.268 5.824 10.256 12.987-.014 7.16-4.625 12.96-10.303 12.95z"/><path fill="#FFF" d="M85.328 153.116c-4.127-1.578-6.502-5.727-6.023-9.922a9.41 9.41 0 0 1-5.812-.3 9.408 9.408 0 0 1-3.254-2.09 12.925 12.925 0 0 1-16.764.178c-.39.155-.783.29-1.186.407-.064.194-.133.39-.207.586-2.645 6.92-10.398 10.386-17.318 7.74a13.324 13.324 0 0 1-6.906-5.973 3.858 3.858 0 0 1-4.083-4.07 10.04 10.04 0 0 1-1.86-2.33 7.373 7.373 0 0 1-5.24-.01c-.286-.11-.558-.24-.823-.38a9.9 9.9 0 0 1-7.518.175 9.917 9.917 0 0 1-6.115-7.004 9.457 9.457 0 0 1-1.362-2.14 9.395 9.395 0 0 1-.16-7.466 9.42 9.42 0 0 1 5.352-6.902c3.645-1.67 7.793-.815 10.504 1.824a7.28 7.28 0 0 1 7.36-1.287 7.24 7.24 0 0 1 2.747 1.867 5.702 5.702 0 0 1 7.26-3.053 5.68 5.68 0 0 1 2.835 2.37 5.67 5.67 0 0 1 2.893.308 5.675 5.675 0 0 1 2.66 2.093 12.896 12.896 0 0 1 11.014-.85 12.836 12.836 0 0 1 3.658 2.145 12.887 12.887 0 0 1 9.387-.062 12.887 12.887 0 0 1 6.95 6.298 9.428 9.428 0 0 1 6.946-.08c4.127 1.575 6.504 5.724 6.025 9.92a9.432 9.432 0 0 1 5.812.3c4.89 1.87 7.34 7.348 5.47 12.237a9.48 9.48 0 0 1-12.242 5.47z"/><g fill="#FFF"><path d="M74.355 60.38v-2.132H70.02V56.47l4.595-6.724h1.705v6.718h1.314v1.784H76.32v2.13h-1.965zm0-3.916v-3.62l-2.434 3.62h2.435zM85.46 58.493v1.886h-7.116a4.9 4.9 0 0 1 .693-2.027c.385-.638 1.146-1.484 2.283-2.54.914-.852 1.475-1.43 1.682-1.732.28-.418.42-.832.42-1.24 0-.454-.12-.802-.365-1.045-.242-.243-.578-.364-1.008-.364-.425 0-.76.128-1.013.384-.25.255-.395.68-.434 1.27l-2.02-.2c.12-1.118.497-1.92 1.134-2.406.635-.486 1.43-.73 2.383-.73 1.045 0 1.865.283 2.463.846.598.563.896 1.265.896 2.103 0 .477-.087.93-.26 1.36-.17.433-.44.884-.81 1.355-.245.313-.69.764-1.33 1.35-.64.59-1.046.98-1.216 1.172-.172.192-.31.38-.416.562h4.03zM87.215 58.35h2.03v1.45c0 .59-.052 1.052-.153 1.392s-.293.645-.574.914-.64.48-1.072.636l-.398-.838c.41-.135.7-.32.875-.557s.266-.56.273-.968h-.98v-2.03zM97.795 58.493v1.886H90.68a4.93 4.93 0 0 1 .693-2.027c.387-.638 1.146-1.484 2.283-2.54.916-.852 1.477-1.43 1.684-1.732.28-.418.418-.832.418-1.24 0-.454-.12-.802-.363-1.045-.244-.243-.58-.364-1.008-.364-.424 0-.762.128-1.012.384-.25.255-.395.68-.434 1.27l-2.022-.2c.12-1.118.5-1.92 1.135-2.406.637-.486 1.43-.73 2.385-.73 1.043 0 1.865.283 2.463.846.597.563.896 1.265.896 2.103 0 .477-.086.93-.256 1.36-.172.433-.44.884-.812 1.355-.246.313-.69.764-1.33 1.35-.64.59-1.045.98-1.217 1.172a3.5 3.5 0 0 0-.413.562h4.028zM106.045 52.383l-1.965.217c-.05-.404-.174-.703-.375-.896-.203-.193-.465-.29-.79-.29-.427 0-.79.193-1.085.578-.297.386-.482 1.188-.56 2.406.505-.598 1.134-.896 1.884-.896.848 0 1.574.323 2.18.97.604.644.906 1.477.906 2.498 0 1.083-.318 1.952-.953 2.607-.637.655-1.453.982-2.45.982-1.07 0-1.948-.416-2.636-1.247-.688-.83-1.032-2.192-1.032-4.085 0-1.94.36-3.34 1.076-4.196.717-.857 1.648-1.286 2.795-1.286.804 0 1.47.226 1.997.676s.863 1.103 1.008 1.96zm-4.602 4.428c0 .66.152 1.17.455 1.528.303.36.65.538 1.04.538.376 0 .69-.146.94-.44.25-.293.376-.775.376-1.444 0-.688-.135-1.193-.404-1.514-.27-.32-.607-.48-1.012-.48-.39 0-.72.153-.99.46s-.405.756-.405 1.353zM111.52 52.404c0-.948.21-1.65.625-2.11.418-.456.982-.685 1.695-.685.736 0 1.312.227 1.73.682.417.455.624 1.16.624 2.112 0 .95-.207 1.65-.625 2.11-.417.456-.98.686-1.694.686-.736 0-1.312-.228-1.73-.683-.417-.455-.626-1.16-.626-2.113zm1.582-.014c0 .688.08 1.15.238 1.387.12.174.287.26.5.26a.575.575 0 0 0 .504-.26c.154-.235.232-.698.232-1.387s-.078-1.148-.232-1.38a.572.572 0 0 0-.504-.267.577.577 0 0 0-.5.26c-.158.236-.238.698-.238 1.387zm2.283 8.393h-1.502l5.64-11.174h1.46l-5.598 11.173zm3.28-2.78c0-.95.208-1.652.624-2.11.415-.457.985-.686 1.708-.686.727 0 1.3.23 1.715.687.416.457.625 1.16.625 2.108 0 .954-.21 1.66-.625 2.117-.416.456-.98.685-1.693.685-.738 0-1.314-.23-1.73-.686-.417-.46-.626-1.164-.626-2.118zm1.58-.008c0 .688.08 1.148.24 1.38.12.178.286.268.497.268a.56.56 0 0 0 .498-.26c.16-.236.238-.7.238-1.388s-.076-1.15-.23-1.387c-.12-.174-.29-.26-.506-.26s-.383.086-.498.26c-.158.237-.238.7-.238 1.387z"/></g></svg>