<svg xmlns="http://www.w3.org/2000/svg" width="106.028" height="139.867" viewBox="0 0 106.028 139.867"><ellipse fill="#ECECEC" cx="53.014" cy="133.241" rx="53.014" ry="6.626"/><path fill="#E43029" d="M54.372 21.223s21.68-.976 33.17 20.814H52.53s-6.613-.218-12.25 7.806c-1.625 3.36-3.36 6.83-1.41 13.658-2.817-4.768-14.96-25.908-14.96-25.908s8.566-15.5 30.464-16.37z"/><path fill="#FCD800" d="M86.415 76.546S76.417 95.808 51.8 94.86c3.037-5.256 17.512-30.32 17.512-30.32s3.494-5.618-.63-14.513c-2.1-3.09-4.235-6.325-11.126-8.05 5.54-.056 29.918.002 29.918.002s9.14 15.17-1.06 34.566z"/><path fill="#66B34B" d="M22.482 76.692S10.8 58.4 23.93 37.556l17.5 30.328s3.118 5.836 12.884 6.71c3.722-.272 7.595-.504 12.535-5.606-2.724 4.824-14.965 25.906-14.965 25.906s-17.706.332-29.403-18.202z"/><path fill="#61AA48" d="M51.8 95.04l4.925-20.554s5.415-.423 9.954-5.402C63.86 74.04 51.8 95.04 51.8 95.04z"/><circle fill="#FFF" cx="54.281" cy="58.358" r="16.405"/><circle fill="#009EE2" cx="54.281" cy="58.358" r="13.659"/><path fill="#EFCD00" d="M87.475 41.98l-20.28 5.946s-3.06-4.488-9.638-5.95c5.7-.02 29.918.003 29.918.003z"/><path fill="#D82F27" d="M38.475 62.763c-2.85-4.936-14.565-25.17-14.565-25.17l15.024 14.86s-1.544 3.177-.958 7.713l.5 2.597z"/><path fill="#CB322B" d="M20.21 86.302s12.106 24.478 3.684 35.53c-8.423 11.057 6.316 14.478 19.213 12.635 12.897-1.842 13.424-3.947 11.318-27.372C52.79 88.89 33.03 86.423 24.305 86.228c-2.5-.056-4.096.074-4.096.074z"/><path opacity=".1" d="M31.092 134.556c-3.28-1.568-5.597-4.37-3.144-10.34 4.372-10.637-3.206-35.7-2.914-36.136l-2.685 3.17c3.04 7.736 7.603 22.632 1.544 30.583-5.754 7.553-.696 11.54 7.198 12.723z"/><path opacity=".2" d="M81.973 73.168c-.853 0-24.78-.555-27.8 11.198-3.02-11.753-26.946-11.198-27.798-11.198-11.757 0-2.044 20.29-1.022 25.584 1.02 5.294 14.824 5.514 24.28 8.38 2.278.69 3.69.775 4.54.302.85.474 2.264.39 4.542-.3 9.457-2.868 23.26-3.088 24.28-8.382s10.734-25.584-1.022-25.584z"/><path fill="#F5F5F5" d="M51.7 95.948s7.87 27.686 4.372 35.264c-3.498 7.577-9.617 6.12-9.617-.875s3.206-18.943 1.75-29.726c-1.46-10.782 1.455-9.324 3.495-4.662z"/><path opacity=".1" d="M74.504 26.623a37.156 37.156 0 0 1 6.344 20.823c0 20.618-16.715 37.333-37.333 37.333-7.71 0-14.874-2.34-20.822-6.345 6.705 9.96 18.08 16.51 30.99 16.51 20.618 0 37.332-16.715 37.332-37.333 0-12.908-6.552-24.285-16.51-30.99z"/><path opacity=".1" d="M49.757 95.684l.12.265s5.175 18.21 5.265 29.134c-.604 6.192-3.227 7.877-9.705 9.007-.498-.964-.806-2.215-.806-3.752 0-6.994 3.207-18.943 1.75-29.726-.652-4.825-.427-7.193.2-7.927a20.435 20.435 0 0 1 3.177 3z"/><path opacity=".2" d="M26.176 77.79c.93 0 29.112-.66 28.34 14.337-.773 14.997 4.637 22.496-4.895 19.63-9.532-2.868-22.588-3.088-23.618-8.382-1.03-5.294-11.677-25.584.174-25.584z"/><path fill="#F5F5F5" d="M25.546 75.168c.95 0 29.74-.66 28.95 14.336-.788 14.997 4.74 22.496-5 19.63s-23.95-3.088-25.002-8.382c-1.053-5.294-11.055-25.584 1.052-25.584z"/><path fill="#868686" d="M47.41 82.43a.706.706 0 1 1 .907 1.08l-3.704 3.107a.704.704 0 1 1-.905-1.08l3.7-3.105zM31.09 84.8a.705.705 0 0 1 .993.086c.25.3.21.744-.087.994l-3.702 3.105a.705.705 0 1 1-.906-1.08L31.09 84.8zM45.56 98.686a.704.704 0 1 1 .906 1.08l-3.703 3.106a.706.706 0 0 1-.993-.086.706.706 0 0 1 .087-.994l3.702-3.106zM50.08 114.164a.704.704 0 1 1 1.4.143l-.49 4.808a.706.706 0 0 1-.773.63.706.706 0 0 1-.63-.773l.492-4.808zM51.386 128.418a.706.706 0 0 1 .92-.385c.36.15.532.562.383.922l-1.842 4.47a.706.706 0 0 1-1.303-.537l1.84-4.47zM30.82 98.422a.705.705 0 1 1 .907 1.08l-3.703 3.106a.705.705 0 0 1-.907-1.08l3.702-3.106z"/><path opacity=".2" d="M80.335 105.953c.503-.494.852-1.058 1.01-1.71.1-.406.266-.91.474-1.48.22-.323.39-.67.48-1.05.048-.198.114-.424.188-.662 1.598-3.916 4.226-9.71 4.862-14.352 1.12-5.26.61-9.826-4.97-10.07-.915-.04-28.66-1.903-28.542 12.81.003.343 0 .678-.004 1.013-.07.5-.113 1.012-.108 1.555.004.6-.003 1.183-.016 1.757-.403 6.2-1.605 10.655-1.404 13.167-.152 1.312-.197 2.37-.03 3.168-1.823 7.662-3.274 16.297-1.743 20.095 1.626 4.036 4.084 5.585 6.067 5.114 1.576.48 3.088-.192 4.016-1.846.712.158 1.47.313 2.283.466 12.36 2.35 26.728-.377 19.075-11.553-2.962-4.326-2.865-10.49-1.64-16.42z"/><path fill="#CB322B" d="M88.14 86.302s-12.11 24.478-3.687 35.53c8.423 11.057-6.316 14.478-19.213 12.635-12.897-1.842-13.423-3.947-11.318-27.372 1.636-18.205 21.394-20.672 30.12-20.867 2.502-.056 4.097.074 4.097.074z"/><path opacity=".1" d="M58.517 95.684l-.12.265s-5.175 18.21-5.265 29.134c.604 6.192 3.226 7.877 9.705 9.007.498-.964.807-2.215.807-3.752 0-6.994-3.206-18.943-1.75-29.726.652-4.825.428-7.193-.2-7.927a20.27 20.27 0 0 0-3.177 3zM77.256 134.556c3.28-1.568 5.597-4.37 3.145-10.34-4.37-10.637 3.206-35.7 2.915-36.136L86 91.25c-3.04 7.736-7.605 22.632-1.546 30.583 5.753 7.553.694 11.54-7.198 12.723z"/><path fill="#F5F5F5" d="M56.648 95.948s-7.87 27.686-4.372 35.264c3.497 7.577 9.617 6.12 9.617-.875s-3.206-18.943-1.75-29.726c1.46-10.782-1.455-9.324-3.495-4.662z"/><path opacity=".2" d="M82.276 77.79c-.933 0-29.217-.66-28.44 14.337.774 14.997-4.656 22.496 4.912 19.63 9.566-2.868 22.67-3.088 23.703-8.382 1.035-5.294 11.72-25.584-.174-25.584z"/><path fill="#F5F5F5" d="M82.8 75.168c-.948 0-29.74-.66-28.95 14.336.79 14.997-4.737 22.496 5 19.63s23.953-3.088 25.004-8.382c1.052-5.294 11.054-25.584-1.053-25.584z"/><path fill="#868686" d="M60.94 82.43a.703.703 0 0 0-.994.088c-.25.3-.212.743.087.993l3.702 3.107a.704.704 0 0 0 .905-1.08l-3.7-3.105zM77.258 84.8a.705.705 0 0 0-.906 1.08l3.702 3.105a.705.705 0 1 0 .905-1.08l-3.7-3.106zM62.79 98.686a.703.703 0 0 0-.994.087.702.702 0 0 0 .087.992l3.702 3.107a.706.706 0 0 0 .905-1.08l-3.7-3.106zM58.27 114.164a.704.704 0 1 0-1.402.143l.49 4.808c.04.387.387.67.773.63a.707.707 0 0 0 .63-.773l-.49-4.808zM56.96 128.418a.704.704 0 0 0-.918-.385.706.706 0 0 0-.383.922l1.84 4.47a.706.706 0 1 0 1.303-.537l-1.842-4.47zM77.527 98.422a.705.705 0 1 0-.906 1.08l3.703 3.106a.705.705 0 0 0 .906-1.08l-3.703-3.106z"/><path opacity=".2" d="M56.58 21.415l-2.84-.292c-6.895 2.203-19.38 6.01-26.703 10.272l3.717 4.912.242-.158-.028.224 23.428-9.787 1.03-.078 1.155-5.095z"/><g><path fill="#FF7E00" d="M39.278 15.714c.795-.312 12.813-11.47 12.813-11.47l-4.403 18.41-8.41-6.94zM34.25 17.687c-.794.312-17.193.303-17.193.303l15.747 10.503 1.447-10.806z"/><path fill="#E43435" d="M37.124 23.026c-.818-.33-13.658-11.744-13.658-11.744l5.747 18.515 7.91-6.77zM40.294 21.782c.376-.797 2.027-17.898 2.027-17.898L50.7 21.367l-10.404.415z"/><path fill="#FFB902" d="M52.09 4.243l-7.534 12.3L31.64 2.835l-1.343 19.532-13.22-4.387 12.802 18.4.24-.156-.027.224 25.33-9.94-.225-.187z"/><path fill="#DF9A00" d="M52.09 4.243l-7.534 12.3L31.64 2.835l-.025.363 11.102 28.294 12.707-4.985-.226-.19z"/><ellipse transform="rotate(-21.424 38.9 21.767)" fill="#E43435" cx="38.901" cy="21.769" rx="2.903" ry="3.116"/><path opacity=".1" d="M27.81 33.405l2.07 2.976.24-.156-.027.224 25.33-9.94-.225-.187-.49-3.47z"/><path fill="#FFD32D" d="M30.51 0c.047 1.352-.423 2.645-1.29 3.584 1.275.1 2.5.73 3.385 1.753-.046-1.353.422-2.646 1.29-3.587-1.276-.1-2.5-.73-3.385-1.75z"/><path fill="#FF7600" d="M31.03 1.324c.023.68-.213 1.33-.65 1.806.643.05 1.26.367 1.705.883a2.534 2.534 0 0 1 .65-1.807 2.546 2.546 0 0 1-1.705-.882z"/></g><path opacity=".2" d="M69.348 76.113s6.273 25.388-43.667 38c-2.332 4.666-.166 6.5-4 11 22.334 1.167 63-12.333 62.834-49.5-4.666-1.5-15.166.5-15.166.5z"/><path fill="#E43029" d="M68.182 75.78s8.44 23.72-41.5 36.333c-2.333 4.666-.167 6.5-4 11 22.333 1.167 61.833-14.334 61.667-48.167-4.668-1.5-16.168.834-16.168.834z"/><g><g fill="#FFF"><path d="M40.527 116.368c.523-.252.784-.38 1.3-.64.162.303.367.503.62.6.252.097.516.093.786-.01.29-.112.493-.31.61-.587s.106-.584-.03-.923c-.127-.32-.32-.537-.58-.652s-.52-.12-.784-.018c-.175.067-.373.18-.592.334l-.245-1.102c.37-.13.617-.312.745-.546s.14-.482.036-.746a.77.77 0 0 0-.42-.455.82.82 0 0 0-.625.013.882.882 0 0 0-.494.45c-.103.212-.118.47-.044.775-.524.103-.786.15-1.31.243-.058-.437-.044-.807.04-1.11.084-.306.253-.585.504-.836.252-.25.563-.442.936-.586.638-.245 1.222-.25 1.77-.01.45.195.763.494.934.902.242.58-.428 1.8-.428 1.8.013.022.83-.028 1.19.153.358.182.624.473.792.87.245.58.224 1.17-.074 1.772-.3.602-.805 1.047-1.513 1.32-.67.258-1.3.287-1.87.097s-.987-.56-1.256-1.104zM46.31 114.36c.506-.283.757-.43 1.256-.72.145.23.31.376.5.433.19.056.398.03.62-.075.28-.132.46-.36.542-.688.082-.328-.337-1.637-.337-1.637-.03.002-.486.9-.99 1.136a2.088 2.088 0 0 1-1.688.052c-.575-.222-.997-.655-1.274-1.294-.29-.667-.316-1.292-.094-1.877.22-.585.635-1.013 1.246-1.3a2.327 2.327 0 0 1 2-.032c.677.29 1.312.998 1.896 2.144.595 1.165.792 2.128.576 2.884-.216.755-.72 1.325-1.5 1.69-.56.263-1.08.332-1.55.215-.467-.117-.867-.43-1.2-.93zm1.75-4.103c-.193-.398-.44-.662-.734-.79s-.564-.137-.812-.02a.83.83 0 0 0-.463.545c-.072.254-.015.587.174 1.002.19.42.42.69.684.808a.92.92 0 0 0 .792-.01c.253-.12.42-.313.503-.584s.033-.588-.143-.95zM52.094 111.892c.527-.28.79-.422 1.31-.71l.476.86c.192.347.31.637.354.874s.02.49-.08.753c-.1.262-.272.516-.515.762-.214-.144-.32-.213-.532-.357.23-.225.366-.44.405-.645.04-.202-.005-.425-.13-.672-.258.14-.387.207-.646.345-.257-.486-.386-.726-.643-1.21zM58.484 109.76c-.51.325-.767.484-1.283.8-1.077-1.767-1.616-2.646-2.694-4.413a4.663 4.663 0 0 1-1.055 1.84c-.25-.433-.374-.65-.624-1.08.26-.288.497-.683.697-1.185s.25-.98.155-1.434c.382-.235.573-.353.952-.594l3.854 6.067zM59.24 104.62c-.016-.024-.73.072-1.018-.05a1.558 1.558 0 0 1-.693-.572c-.3-.44-.387-.915-.272-1.417.115-.5.45-.946 1.014-1.35.558-.4 1.09-.58 1.604-.53.516.05.936.283 1.26.707.2.264.31.553.322.868.012.315-.256.934-.256.934.02.024.826-.13 1.187-.02.36.11.66.325.904.643.402.524.55 1.09.43 1.7-.12.606-.496 1.145-1.123 1.597-.583.42-1.172.622-1.757.61-.69-.015-1.23-.318-1.625-.902a1.99 1.99 0 0 1-.342-1.058c-.015-.383.364-1.16.364-1.16zm1.1 1.285c.217.31.473.49.766.543.294.05.57-.017.828-.2.25-.182.397-.41.44-.695.042-.283-.054-.58-.282-.89-.2-.27-.44-.426-.722-.47a1.036 1.036 0 0 0-.797.198c-.288.208-.437.457-.446.747s.06.548.213.768zm-1.65-2.59c.16.225.345.353.565.385.22.03.44-.032.66-.19.22-.158.35-.345.39-.566.042-.22-.02-.442-.18-.663a.826.826 0 0 0-.562-.353c-.22-.03-.432.026-.643.178-.22.157-.35.348-.39.567-.04.22.015.433.16.643zM64.238 98.852c-.414-.49-.61-.95-.594-1.372s.205-.785.57-1.107c.377-.333.77-.484 1.19-.45.42.036.85.288 1.284.763.436.472.65.922.64 1.35s-.21.818-.593 1.156c-.395.35-.81.5-1.234.46-.424-.044-.845-.307-1.262-.8zm.834-.733c.306.35.555.553.744.598.14.033.27 0 .38-.1a.414.414 0 0 0 .152-.37c-.022-.19-.193-.462-.504-.81-.31-.347-.558-.544-.74-.59a.403.403 0 0 0-.383.098.4.4 0 0 0-.14.358c.02.192.187.465.492.815zm5.008 3.145a74.93 74.93 0 0 1-.84.75c-.732-3.385-1.17-5.047-2.178-8.287.285-.28.426-.42.71-.702 1.057 3.22 1.52 4.87 2.308 8.24zm.496-3.038c-.444-.462-.666-.91-.666-1.34s.184-.828.55-1.195c.368-.37.765-.558 1.197-.56s.88.22 1.345.662c.465.445.703.887.71 1.326s-.183.85-.56 1.23c-.393.393-.81.59-1.25.584-.438-.004-.88-.244-1.326-.707zm.828-.818c.326.33.588.512.78.54a.437.437 0 0 0 .392-.135.437.437 0 0 0 .137-.388c-.03-.196-.213-.457-.544-.783-.333-.327-.596-.51-.787-.538a.433.433 0 0 0-.385.137.423.423 0 0 0-.13.38c.03.196.208.455.536.786z"/></g></g></svg>