<svg xmlns="http://www.w3.org/2000/svg" width="159.199" height="129.957" viewBox="0 0 159.199 129.957"><ellipse fill="#F5F5F5" cx="90.122" cy="125.376" rx="46.386" ry="4.581"/><path fill="#C5C5C5" d="M113.824 123.04c-13.234-.514-7.395-18.288-7.395-18.288l-14.634-.457-.012-.06-.95.03-.948-.03-.012.06-14.63.457s5.84 17.774-7.394 18.288c-13.234.516-.39 2.384-.39 2.384l23.374-.556 24.234 1.236c.002 0 11.987-2.548-1.244-3.064z"/><path fill="#C5C5C5" d="M113.824 123.04c-13.234-.514-7.395-18.288-7.395-18.288l-14.634-.457-.012-.06-.95.03-.948-.03-.012.06-14.63.457s5.84 17.774-7.394 18.288c-13.234.516-.39 2.384-.39 2.384l23.374-.556 24.234 1.236c.002 0 11.987-2.548-1.244-3.064z"/><path fill="#D9D9D9" d="M120.545 125.017c0 .783-.646 1.417-1.445 1.417H62.568a1.43 1.43 0 0 1-1.44-1.417 1.43 1.43 0 0 1 1.44-1.416H119.1c.798 0 1.445.634 1.445 1.417z"/><path opacity=".1" fill="#3C3C3B" d="M90.957 116.75c5.584 0 10.623-1.167 14.207-3.038-.197-4.51 1.266-8.96 1.266-8.96l-14.633-.457-.012-.06-.95.03-.948-.03-.012.06-14.63.457s1.433 4.368 1.267 8.836c3.6 1.944 8.736 3.162 14.445 3.162z"/><path fill-rule="evenodd" clip-rule="evenodd" fill="#ECECEC" d="M156.764 108.495a4.126 4.126 0 0 1-4.125 4.126H27.606a4.127 4.127 0 0 1-4.127-4.125V25.147a4.128 4.128 0 0 1 4.127-4.127h125.03a4.128 4.128 0 0 1 4.126 4.127v83.348z"/><path fill-rule="evenodd" clip-rule="evenodd" fill="#464646" d="M156.764 95.34V25.146a4.128 4.128 0 0 0-4.125-4.127H27.606a4.128 4.128 0 0 0-4.127 4.127v70.19h133.284z"/><path fill-rule="evenodd" clip-rule="evenodd" fill="#64BCFF" d="M31.424 29.456H148.82V88.44H31.424z"/><path fill="#0097E0" d="M95.277 98.725a4.27 4.27 0 0 1-1.344.512 2.12 2.12 0 0 0-1.543-.666 2.115 2.115 0 0 0-2.06 2.596 6.005 6.005 0 0 1-4.36-2.21 2.113 2.113 0 0 0 .654 2.824 2.086 2.086 0 0 1-.958-.264v.025c0 1.026.73 1.882 1.697 2.075a2.127 2.127 0 0 1-.955.036c.268.842 1.05 1.452 1.975 1.47a4.24 4.24 0 0 1-3.13.875c.937.6 2.048.95 3.243.95 3.89 0 6.018-3.223 6.018-6.018 0-.092-.002-.184-.006-.273.412-.3.77-.67 1.055-1.094-.38.168-.787.282-1.215.332a2.12 2.12 0 0 0 .93-1.167z"/><path fill="#FFA250" d="M34.61 34.824h111.024v19.542H34.61z"/><g fill="#FFF"><path d="M46.803 42.16l-1.725.19c-.043-.356-.152-.618-.33-.787s-.406-.254-.69-.254c-.376 0-.694.168-.954.507-.26.338-.424 1.04-.49 2.11.443-.524.994-.786 1.654-.786.742 0 1.38.284 1.91.85.53.566.795 1.298.795 2.193 0 .95-.28 1.713-.836 2.288-.56.575-1.273.862-2.148.862-.94 0-1.71-.364-2.313-1.093-.605-.73-.906-1.925-.906-3.585 0-1.703.315-2.93.944-3.683.63-.752 1.447-1.128 2.453-1.128.705 0 1.29.198 1.752.593.46.397.756.97.883 1.722zm-4.037 3.884c0 .58.133 1.025.398 1.34.266.315.57.473.912.473.33 0 .605-.13.824-.387.22-.258.33-.68.33-1.268 0-.604-.12-1.046-.355-1.327s-.53-.422-.887-.422c-.342 0-.63.135-.87.402-.235.27-.352.666-.352 1.19zM48.117 41.665V40.01h6.09v1.294c-.502.494-1.014 1.204-1.533 2.13a12.4 12.4 0 0 0-1.188 2.95c-.273 1.04-.408 1.972-.402 2.79h-1.72c.03-1.283.296-2.593.798-3.93a13.083 13.083 0 0 1 2.004-3.58h-4.05zM65.215 47.52v1.655h-6.242a4.3 4.3 0 0 1 .61-1.777c.337-.56 1.005-1.303 2-2.228.804-.748 1.296-1.255 1.478-1.52.247-.368.368-.73.368-1.09 0-.398-.105-.703-.32-.917-.213-.213-.508-.32-.883-.32-.373 0-.668.112-.887.336-.22.224-.348.595-.38 1.114l-1.776-.177c.105-.98.438-1.684.996-2.11.557-.427 1.254-.64 2.092-.64.916 0 1.637.246 2.16.74.523.495.785 1.11.785 1.845 0 .418-.074.816-.225 1.194-.15.38-.387.774-.713 1.188-.215.274-.604.67-1.166 1.186s-.917.857-1.067 1.026c-.148.17-.27.334-.363.494h3.535zM66.588 47.026l1.723-.19c.044.35.153.61.33.78s.413.253.704.253c.367 0 .68-.17.938-.508s.424-1.04.494-2.104c-.447.52-1.008.78-1.68.78-.73 0-1.36-.282-1.89-.847-.532-.562-.796-1.297-.796-2.2 0-.943.28-1.702.84-2.28.56-.575 1.27-.864 2.14-.864.94 0 1.714.364 2.317 1.094.605.73.906 1.928.906 3.597 0 1.698-.314 2.924-.943 3.676s-1.45 1.128-2.46 1.128c-.726 0-1.313-.192-1.76-.58-.45-.387-.737-.965-.862-1.734zm4.03-3.89c0-.575-.132-1.02-.397-1.338-.263-.316-.567-.476-.913-.476-.33 0-.604.13-.822.39-.217.26-.326.686-.326 1.277 0 .6.118 1.04.354 1.32s.533.422.887.422c.343 0 .632-.136.866-.406.234-.27.35-.667.35-1.19zM78.455 49.175h-1.78v-6.712a6.15 6.15 0 0 1-2.302 1.35V42.2c.465-.152.97-.44 1.514-.865s.92-.92 1.123-1.486h1.445v9.328zM91.318 45.76l1.82.576c-.28 1.014-.744 1.767-1.393 2.26s-1.47.737-2.467.737c-1.234 0-2.248-.42-3.043-1.264-.795-.845-1.19-1.997-1.19-3.46 0-1.545.397-2.746 1.196-3.602s1.85-1.283 3.15-1.283c1.138 0 2.062.336 2.77 1.008.423.396.74.968.952 1.71l-1.857.444c-.11-.48-.34-.86-.688-1.14-.35-.28-.77-.42-1.27-.42-.69 0-1.247.248-1.677.742s-.643 1.294-.643 2.4c0 1.175.21 2.012.633 2.51.422.5.973.748 1.648.748a1.88 1.88 0 0 0 1.287-.475c.36-.315.617-.814.773-1.494zM102.932 49.175h-2.04l-.81-2.11h-3.714l-.768 2.11h-1.99l3.62-9.29h1.983l3.72 9.29zM99.48 45.5L98.2 42.05 96.944 45.5h2.535zM104.082 39.884h1.756v6.186l3.764-6.186h1.87v9.29h-1.755V43.11l-3.758 6.065h-1.878v-9.29zm4.816-2.314h.87c-.052.575-.253 1.026-.606 1.354s-.81.49-1.373.49c-.562 0-1.02-.163-1.372-.49s-.555-.778-.605-1.354h.87c.028.3.134.527.315.682s.445.23.79.23c.35 0 .612-.076.794-.23s.287-.38.316-.682zM115.607 49.175v-7.72h-2.756v-1.57h7.384v1.57h-2.752v7.72h-1.875zM120.87 44.586c0-.946.142-1.74.425-2.383.21-.473.5-.897.865-1.273s.766-.655 1.2-.837c.58-.245 1.247-.367 2.003-.367 1.37 0 2.465.425 3.287 1.273.82.85 1.232 2.03 1.232 3.542 0 1.5-.408 2.674-1.225 3.52-.814.85-1.904 1.272-3.27 1.272-1.38 0-2.48-.42-3.295-1.264-.815-.844-1.22-2.005-1.22-3.484zm1.933-.063c0 1.052.244 1.85.73 2.392.485.543 1.103.814 1.85.814s1.362-.27 1.84-.81c.48-.538.722-1.346.722-2.423 0-1.065-.234-1.86-.7-2.383-.468-.524-1.087-.786-1.86-.786s-1.396.265-1.87.795c-.476.53-.712 1.33-.712 2.4zM131.482 39.884h3.713c.736 0 1.285.03 1.645.092.36.062.686.19.97.384s.524.453.714.776.285.686.285 1.087c0 .436-.118.834-.353 1.197a2.175 2.175 0 0 1-.953.818c.564.164 1 .445 1.305.843.304.397.456.865.456 1.4 0 .424-.1.834-.295 1.233-.196.4-.464.72-.804.957-.342.24-.76.386-1.258.44-.314.034-1.068.055-2.264.063h-3.162v-9.29zm1.875 1.547v2.15h1.23c.73 0 1.186-.012 1.363-.033.32-.038.572-.148.756-.333.184-.184.275-.425.275-.726 0-.287-.077-.52-.235-.7s-.395-.288-.707-.326c-.186-.02-.72-.03-1.604-.03h-1.077zm0 3.695v2.484h1.738c.676 0 1.104-.02 1.285-.058.28-.05.506-.175.682-.37s.264-.46.264-.79c0-.28-.068-.516-.203-.71s-.33-.336-.586-.425c-.256-.088-.81-.133-1.664-.133h-1.516z"/></g><path opacity=".4" fill-rule="evenodd" clip-rule="evenodd" d="M145.67 32.247c0 .594-.48 1.074-1.074 1.074H35.29a1.072 1.072 0 0 1 0-2.147h109.306c.593 0 1.074.48 1.074 1.074z"/><path opacity=".3" d="M35.72 57.802h36.507v12.67H35.72zM35.72 81.96h36.507v2.363H35.72zM35.72 85.505h36.507v2.36H35.72zM75.232 58.017h31.354v2.362H75.232z"/><g opacity=".3"><path d="M75.232 89.453h70.223v2.362H75.232zM75.232 85.453h70.223v2.362H75.232zM75.232 81.453h70.223v2.362H75.232zM75.232 77.453h70.223v2.362H75.232zM75.232 73.453h70.223v2.362H75.232zM75.232 69.453h70.223v2.362H75.232zM75.232 65.453h70.223v2.362H75.232zM75.232 61.453h70.223v2.362H75.232z"/></g><path opacity=".3" d="M36.148 74.23h18.898v4.295H36.148zM58.482 74.23h13.744v4.295H58.482z"/><path fill="#FFD584" d="M0 3.472h159.2v7.945H0z"/><path opacity=".3" d="M2.625 3.472H12.95v7.945H2.624z"/><path fill="#FFD584" d="M3.47 0h7.948v107.087H3.47z"/><g opacity=".3"><path d="M155.203 7.562h1.062v3.875h-1.062zM148.203 7.562h1.062v3.875h-1.062zM141.203 7.562h1.062v3.875h-1.062zM134.203 7.562h1.062v3.875h-1.062zM127.203 7.562h1.062v3.875h-1.062zM120.203 7.562h1.062v3.875h-1.062zM113.203 7.562h1.062v3.875h-1.062zM106.203 7.562h1.062v3.875h-1.062zM99.203 7.562h1.062v3.875h-1.062zM92.203 7.562h1.062v3.875h-1.062zM85.203 7.562h1.062v3.875h-1.062zM78.203 7.562h1.062v3.875h-1.062zM71.203 7.562h1.062v3.875h-1.062zM64.203 7.562h1.062v3.875h-1.062zM57.203 7.562h1.062v3.875h-1.062zM50.203 7.562h1.062v3.875h-1.062zM43.203 7.562h1.062v3.875h-1.062zM36.203 7.562h1.062v3.875h-1.062zM29.203 7.562h1.062v3.875h-1.062zM22.203 7.562h1.062v3.875h-1.062zM15.203 7.562h1.062v3.875h-1.062z"/></g><g opacity=".3"><path d="M7.297 12.468h3.875v1.062H7.297zM7.297 19.468h3.875v1.062H7.297zM7.297 26.468h3.875v1.062H7.297zM7.297 33.468h3.875v1.062H7.297zM7.297 40.468h3.875v1.062H7.297zM7.297 47.468h3.875v1.062H7.297zM7.297 54.468h3.875v1.062H7.297zM7.297 61.468h3.875v1.062H7.297zM7.297 68.468h3.875v1.062H7.297zM7.297 75.468h3.875v1.062H7.297zM7.297 82.468h3.875v1.062H7.297zM7.297 89.468h3.875v1.062H7.297zM7.297 96.468h3.875v1.062H7.297zM7.297 103.468h3.875v1.062H7.297z"/></g><circle opacity=".3" cx="7.641" cy="5.124" r="1.5"/></svg>