<svg xmlns="http://www.w3.org/2000/svg" width="130.814" height="153.621" viewBox="0 0 130.814 153.621"><path fill="#E16060" d="M18 62.52L30.06 41.388l-18-10.273L0 52.247l11.583.227z"/><path fill="#CBA169" d="M53.34 61.092c.587.376 1.423.117 1.87-.577.445-.696.332-1.564-.255-1.94L9.498 29.41c-.586-.375-1.422-.115-1.868.58-.446.695-.333 1.56.254 1.938L53.34 61.092z"/><path opacity=".15" d="M29.895 42.54l-1.25 2.75-4.74-3.266 1.722-2.455z"/><path fill="#AE4848" d="M22.65 49.1l7.412-7.712-5.792-3.806z"/><path fill="#E16060" d="M112.815 62.52L100.75 41.388l18-10.273 12.064 21.132-11.583.227z"/><path fill="#CBA169" d="M77.474 61.092c-.587.376-1.423.117-1.87-.577-.445-.696-.332-1.564.255-1.94l45.457-29.165c.586-.375 1.422-.115 1.868.58.446.695.333 1.56-.254 1.938L77.475 61.092z"/><path opacity=".15" d="M100.92 42.54l1.25 2.75 4.74-3.266-1.723-2.455z"/><path fill="#AE4848" d="M108.165 49.1l-7.414-7.712 5.794-3.806z"/><path fill="#EE6565" d="M65.42 0c-26 0-48.483 15.002-59.3 36.814L22.673 49.1c6.78-16.967 23.357-28.96 42.745-28.96s35.963 11.993 42.744 28.96l16.555-12.286C113.9 15 91.417 0 65.42 0z"/><g fill="#FFF"><path d="M27.196 28.852l1.093 1.07-4.038 4.124a3.97 3.97 0 0 1-.782-1.55c-.15-.586-.21-1.508-.176-2.765.025-1.014.007-1.667-.05-1.96-.084-.398-.245-.715-.483-.947-.26-.256-.532-.383-.81-.38-.28.003-.54.128-.784.377-.242.245-.358.514-.353.804.006.29.17.613.49.973l-1.263 1.058c-.58-.704-.83-1.378-.75-2.022.08-.645.388-1.243.93-1.796.592-.605 1.22-.922 1.887-.948.665-.028 1.24.197 1.727.673.277.27.492.577.644.92.152.345.26.758.324 1.24.042.32.052.833.03 1.537-.024.705-.028 1.16-.013 1.37.013.208.044.395.09.56l2.286-2.338zM27.72 27.756l1.133-1.135c.234.23.463.353.69.37.225.02.442-.055.653-.224.264-.213.392-.516.382-.908-.01-.393-.297-.993-.862-1.803-.022.635-.275 1.146-.76 1.534-.526.423-1.144.585-1.853.485s-1.325-.476-1.85-1.128c-.544-.678-.782-1.387-.713-2.127.07-.74.417-1.36 1.04-1.862.68-.546 1.45-.73 2.306-.556.858.176 1.77.865 2.736 2.067.983 1.223 1.467 2.29 1.448 3.195-.02.907-.392 1.652-1.12 2.237-.522.42-1.058.62-1.604.603-.546-.017-1.088-.268-1.625-.75zm.654-5.138c-.334-.414-.687-.66-1.06-.734s-.687-.013-.936.188a.944.944 0 0 0-.366.756c-.007.312.16.684.504 1.11.348.432.688.68 1.02.745a1.03 1.03 0 0 0 .884-.21 1.02 1.02 0 0 0 .39-.793c.012-.33-.134-.684-.436-1.062zM37.898 21.087l.81 1.298-4.896 3.055a3.97 3.97 0 0 1-.393-1.692c-.01-.604.15-1.514.48-2.727.263-.98.4-1.618.413-1.915.012-.408-.07-.754-.246-1.035-.194-.312-.427-.5-.7-.562-.27-.062-.553-.002-.85.183-.29.183-.467.416-.53.7-.063.28.02.636.247 1.06l-1.478.73c-.396-.82-.48-1.534-.252-2.143.228-.608.67-1.116 1.327-1.525.72-.45 1.405-.608 2.06-.477s1.16.485 1.518 1.062c.205.328.342.678.41 1.048.066.37.074.797.02 1.28-.033.32-.145.82-.333 1.5-.188.68-.3 1.123-.334 1.328a2.9 2.9 0 0 0-.043.566l2.77-1.733zM41.958 15.696c-.463-.01-.842-.124-1.138-.345s-.514-.504-.653-.853c-.236-.595-.225-1.17.035-1.723.26-.555.775-.983 1.54-1.29.758-.302 1.424-.342 1.998-.12.573.22.98.628 1.217 1.224.148.37.183.737.106 1.103-.078.366-.26.694-.548.985.513.002.953.127 1.32.376.366.25.638.6.816 1.045.295.736.3 1.43.013 2.076-.286.65-.82 1.13-1.6 1.44-.726.29-1.405.34-2.04.15-.75-.223-1.28-.725-1.593-1.51a2.452 2.452 0 0 1-.15-1.316c.07-.446.295-.858.678-1.238zm-.298-1.666c.122.305.302.51.543.61.24.102.504.095.79-.02.29-.115.488-.294.594-.536.105-.24.098-.515-.023-.82-.115-.286-.292-.48-.533-.585-.24-.105-.502-.1-.785.013-.295.117-.494.298-.598.54-.106.245-.102.51.013.797zm1.22 3.474c.17.42.407.706.718.855.31.148.626.16.95.03.314-.126.53-.343.646-.652.117-.31.09-.678-.08-1.105-.15-.374-.375-.633-.677-.775-.3-.143-.612-.15-.936-.02-.372.148-.6.39-.68.72-.08.33-.06.645.06.946zM47.718 15.996l1.49-.597c.154.38.366.645.636.795.27.15.56.185.864.103a1.11 1.11 0 0 0 .73-.595c.16-.308.182-.674.068-1.097-.106-.4-.297-.688-.575-.865a1.057 1.057 0 0 0-.88-.14 2.875 2.875 0 0 0-.698.31l-.17-1.343c.434-.103.737-.283.91-.542.175-.26.218-.552.13-.88-.073-.28-.216-.48-.426-.602-.21-.123-.453-.146-.728-.073a.993.993 0 0 0-.622.468c-.143.24-.186.547-.132.92l-1.53.142c-.033-.528.014-.97.14-1.325a2.15 2.15 0 0 1 .674-.937c.32-.27.712-.466 1.168-.587.782-.207 1.474-.125 2.08.25.497.303.813.712.95 1.225.194.73-.05 1.416-.73 2.062.502-.024.943.104 1.322.382.38.277.637.67.77 1.17.193.73.093 1.42-.303 2.076-.396.655-.99 1.087-1.783 1.3-.75.198-1.432.147-2.042-.153s-1.046-.79-1.312-1.467zM55.354 11.787c-.447-.12-.787-.32-1.023-.605a1.934 1.934 0 0 1-.43-.983c-.087-.636.06-1.19.444-1.667.384-.476.986-.77 1.8-.886.81-.113 1.467.005 1.97.356.506.35.803.844.893 1.48.056.394.002.76-.16 1.096-.162.335-.417.61-.766.825.5.123.897.35 1.194.678.297.33.48.732.545 1.208.11.786-.05 1.46-.483 2.022s-1.064.9-1.895 1.018c-.774.108-1.446-.004-2.018-.338-.674-.395-1.07-1.01-1.188-1.845-.064-.46-.01-.9.165-1.316.174-.418.492-.765.954-1.043zm.105-1.69c.045.325.173.565.382.722.21.154.466.21.772.168.31-.043.544-.17.704-.38.16-.21.216-.478.17-.802-.042-.306-.168-.537-.378-.695-.21-.157-.464-.215-.767-.173-.314.045-.55.173-.71.384-.158.213-.216.472-.174.777zm.362 3.665c.062.45.226.783.49 1.002.268.22.572.304.916.256.336-.047.598-.207.784-.48.187-.272.25-.637.185-1.093-.056-.4-.214-.703-.472-.914a1.12 1.12 0 0 0-.904-.242c-.397.057-.675.235-.832.538-.156.3-.213.613-.166.934zM70.192 12.72l1.648.63c-.313.922-.782 1.592-1.408 2.01-.625.42-1.397.603-2.318.548-1.138-.066-2.052-.51-2.74-1.33-.686-.822-.99-1.908-.91-3.257.084-1.427.518-2.514 1.3-3.26.784-.746 1.776-1.084 2.978-1.014 1.05.062 1.883.422 2.5 1.08.37.39.63.935.785 1.632l-1.737.31c-.075-.45-.267-.815-.572-1.09-.307-.277-.69-.43-1.15-.457-.636-.036-1.166.162-1.588.595-.423.434-.664 1.16-.724 2.182-.064 1.084.085 1.868.448 2.352.363.48.856.742 1.48.778a1.74 1.74 0 0 0 1.214-.37c.35-.272.613-.72.794-1.338zM80.183 17.717l-1.846-.39-.33-2.064-3.36-.71-1.097 1.765-1.8-.38 5.047-7.714 1.795.378 1.59 9.115zm-2.423-3.984l-.5-3.363-1.793 2.88 2.293.483zM83.8 9.92l1.52.573-2.02 5.35 5.275-4.12 1.618.612-3.036 8.035-1.52-.574 1.984-5.245-5.232 4.02-1.622-.614L83.8 9.92zm4.924-.426l.75.283c-.23.48-.553.805-.966.973-.412.168-.86.16-1.347-.023s-.828-.475-1.024-.873c-.2-.398-.227-.854-.083-1.368l.752.284c-.074.27-.055.5.052.692.106.192.31.346.61.46.298.112.55.13.76.058.208-.074.373-.236.497-.486zM90.18 21.97l3.45-6.247-2.23-1.233.702-1.27 5.975 3.3-.702 1.27-2.227-1.228-3.45 6.247-1.518-.84zM96.69 20.728c.53-.696 1.08-1.202 1.646-1.517.42-.228.87-.38 1.35-.453a3.35 3.35 0 0 1 1.353.057c.562.144 1.122.427 1.678.85 1.01.767 1.577 1.69 1.708 2.776.13 1.085-.23 2.185-1.075 3.297-.837 1.104-1.795 1.74-2.87 1.907-1.073.168-2.113-.13-3.118-.895-1.017-.773-1.59-1.698-1.718-2.774-.13-1.077.22-2.16 1.047-3.248zm1.46 1.035c-.59.773-.857 1.497-.803 2.168.053.673.355 1.218.906 1.636s1.152.564 1.808.436c.655-.128 1.284-.59 1.886-1.382.597-.784.868-1.5.818-2.146-.05-.646-.36-1.187-.928-1.62-.57-.432-1.178-.585-1.82-.46-.647.126-1.27.582-1.866 1.37zM107.734 23.985l2.364 2.49c.468.493.796.88.984 1.162.19.28.31.58.36.894.05.316.03.64-.067.974a1.938 1.938 0 0 1-.547.883 1.992 1.992 0 0 1-1.027.526 2.01 2.01 0 0 1-1.154-.12c.25.486.338.956.266 1.413a2.07 2.07 0 0 1-.65 1.197c-.282.27-.62.465-1.013.587a2.302 2.302 0 0 1-1.155.07c-.376-.077-.742-.266-1.096-.564-.223-.188-.717-.68-1.483-1.477l-2.013-2.122 6.23-5.913zm-2.32 4.594l-1.666 1.58 1.105 1.164c.43.454.716.73.857.827.21.155.438.23.68.222.245-.008.477-.116.7-.325a1.12 1.12 0 0 0 .345-.588 1.044 1.044 0 0 0-.088-.665c-.104-.228-.426-.628-.97-1.2l-.963-1.016zm2.478-2.353l-1.44 1.367.782.825c.465.49.76.786.888.893.23.19.465.29.705.296.24.005.46-.087.662-.278.19-.183.298-.385.318-.604.02-.22-.058-.448-.23-.682-.105-.14-.44-.503-1-1.096l-.686-.723z"/></g><ellipse fill="#064A6D" cx="65.733" cy="124.97" rx="26.051" ry="4.348"/><path fill="#FDCF3F" d="M66.043 153.46c27.55-23.665 29.733-30.09 12.442-37.3l-12.626-.09v.134l-12.443.087C36.125 123.5 38.31 129.93 65.86 153.593v.028c.003-.005.008-.01.014-.015.058.05.17-.047.17-.145z"/><path fill="#E65400" d="M66.007 137.656c16.945-14.554 18.287-18.507 7.652-22.94l-7.767-.055v.083l-7.65.053c-10.636 4.436-9.292 8.388 7.65 22.942v.017l.01-.008c.037.03.104-.03.104-.09z"/><path opacity=".6" fill="#FFF" d="M65.982 128.87c9.42-8.092 10.168-10.288 4.255-12.754l-4.32-.03v.046l-4.253.03c-5.913 2.464-5.165 4.66 4.254 12.756v.01l.005-.006c.02.016.06-.016.06-.05z"/><path fill="#08669F" d="M65.75 121.226c11.673 0 21.694 1.49 26.034 3.616L65.75 50.945l-26.034 73.897c4.34-2.126 14.36-3.616 26.034-3.616z"/><path fill="#08669F" d="M96.356 62.1c2.97 2.453 17.153 11.976 19.202 46.99-.64 7.428-.63 11.32-5.247 8.85-4.613-2.462-12.855-6.688-19.105-3.138-6.247 3.552-7.247-2.106-7.247-2.106L96.356 62.1z"/><path opacity=".2" d="M96.356 62.1l-12.398 50.596s.225 1.266 1.122 2.223c1.312.24 2.658.51 4.037.807.622-.186 1.314-.483 2.088-.924.72-.408 1.466-.71 2.23-.927 10.682-16.8 12.707-31.7 10.32-44.32-3.26-4.377-6.217-6.48-7.4-7.456z"/><path fill="#08669F" d="M34.944 62.1c-2.97 2.453-17.152 11.976-19.202 46.99.64 7.428.63 11.32 5.247 8.85 4.613-2.462 12.855-6.688 19.105-3.138 6.247 3.552 7.247-2.106 7.247-2.106L34.944 62.1z"/><path opacity=".2" d="M34.944 62.1l12.398 50.596s-.225 1.266-1.122 2.223c-1.312.24-2.658.51-4.037.807-.622-.186-1.314-.483-2.088-.924-.72-.408-1.466-.71-2.23-.927-10.68-16.8-12.707-31.7-10.32-44.322 3.26-4.375 6.218-6.478 7.4-7.454z"/><path fill="#ECECEC" d="M65.93 23.305h-.074S4.096 58.91 42.65 116.23c13.918-3.462 26.383-4.515 46.067.102C127.53 59.182 65.93 23.305 65.93 23.305z"/><path opacity=".15" d="M66.035 23.368v89.885c6.646.102 13.954 1.033 22.683 3.08 37.92-55.838-20.005-91.363-22.683-92.965z"/><circle fill="#464646" cx="66.258" cy="78.244" r="28.102"/><circle fill="#FFF" cx="66.258" cy="78.243" r="26.824"/><g fill="#464646"><path d="M44.386 68.504h.202l11.32 31.204h-.104c-4.69-2.175-8.396-5.848-11.115-11.012-1.564-3.536-2.345-7.038-2.345-10.504 0-3.127.68-6.357 2.04-9.688zM66.31 54.33c6.05 0 11.42 2.106 16.112 6.323v.102l-.306-.102c-1.903 0-3.23 1.154-3.977 3.466v.915c0 1.36.953 3.47 2.853 6.326a12.658 12.658 0 0 1 1.428 5.912c0 1.77-.85 5.067-2.55 9.893l-1.63 5.61c-.134 0-1.02-2.55-2.65-7.648L69.47 66.975h.1c2.38 0 3.57-.306 3.57-.92v-.303c-.136-.477-.374-.747-.714-.816l-6.628.306-6.73-.306c-.34.206-.508.51-.508.916h-.103c0 .75.983 1.123 2.954 1.123l.51.103 3.67 10.3-5.2 15.602h-.1l-8.668-25.9v-.104h.102c2.31 0 3.465-.27 3.465-.816v-.307c0-.405-.238-.71-.714-.916l-7.752.306h-.405v-.206c.68-1.222 2.276-2.99 4.792-5.3 4.556-3.606 9.62-5.406 15.194-5.406z"/><path d="M66.615 80.23c.135 0 1.088 2.552 2.854 7.65l4.79 12.948h-.1c-2.652.884-5.3 1.328-7.955 1.328-2.38 0-4.623-.343-6.73-1.02l7.14-20.905zM87.113 66.772h.203c1.904 3.805 2.855 7.647 2.855 11.52 0 6.937-2.718 12.92-8.16 17.947-1.29 1.09-2.516 1.975-3.67 2.652h-.1v-.103l8.36-24.372c.477-1.972.714-3.704.714-5.2l-.2-2.446z"/></g><path fill="#E43029" d="M65.763 42.508c7.33.016 14.257-.582 20.46-1.65a86.43 86.43 0 0 0-6.06-6.42c-4.54.516-9.366.797-14.385.787-4.96-.01-9.734-.306-14.227-.83a86.745 86.745 0 0 0-6.09 6.4c6.16 1.078 13.033 1.696 20.303 1.713zM65.768 29.092c2.697 0 5.225-.26 7.403-.714-4.248-3.33-7.24-5.073-7.24-5.073h-.074s-3.04 1.755-7.344 5.104c2.144.433 4.618.682 7.256.682z"/></svg>