<svg xmlns="http://www.w3.org/2000/svg" width="148.754" height="111.405" viewBox="0 0 148.754 111.405"><path opacity=".3" fill="#3C3C3B" d="M139.62 17.465L92.425 7.48c-.182-.04-.362-.058-.543-.087a7.627 7.627 0 0 0-.703-.185L83.4 5.56a7.67 7.67 0 0 0-9.093 5.92l-2.098 9.915-.032.15-12.065 57.028-2.098 9.914-.032.15a7.674 7.674 0 0 0 5.917 9.096l7.78 1.645c.25.055.5.09.75.12.166.042.328.097.5.132l47.193 9.984c6.22 1.316 12.333-2.66 13.648-8.88l.032-.15 2.098-9.91 10.472-49.5.032-.147 2.096-9.914c1.317-6.222-2.658-12.333-8.88-13.648z"/><path fill="#FFE88C" d="M138.666 16.51L91.47 6.526c-.182-.038-.36-.057-.542-.087a8.027 8.027 0 0 0-.702-.184l-7.78-1.647a7.67 7.67 0 0 0-9.093 5.92l-2.098 9.913-.032.15L59.16 77.62l-2.1 9.913-.03.15a7.674 7.674 0 0 0 5.916 9.096l7.78 1.643c.25.056.5.09.75.12.167.043.33.098.5.133l47.193 9.984c6.22 1.316 12.333-2.66 13.647-8.88l.032-.15 2.096-9.91 10.473-49.5.03-.147 2.098-9.914c1.316-6.223-2.66-12.333-8.882-13.65z"/><path opacity=".3" fill="#3C3C3B" d="M137.712 15.557L90.517 5.57c-.182-.037-.363-.056-.543-.086a8.323 8.323 0 0 0-.703-.185l-7.778-1.647a7.67 7.67 0 0 0-9.093 5.92l-2.1 9.913-.03.15-12.066 57.03-2.098 9.913-.032.15a7.674 7.674 0 0 0 5.917 9.095l7.78 1.644c.25.055.5.09.75.12.167.042.33.097.5.132l47.194 9.984c6.222 1.316 12.333-2.66 13.65-8.88l.03-.15 2.097-9.91 10.473-49.5.032-.147 2.097-9.915c1.317-6.223-2.66-12.333-8.88-13.648z"/><path fill="#FFE88C" d="M136.757 14.603L89.562 4.617c-.182-.038-.362-.057-.543-.087a8.03 8.03 0 0 0-.703-.185L80.537 2.7a7.67 7.67 0 0 0-9.093 5.92l-2.097 9.912-.032.15L57.25 75.71l-2.098 9.914-.032.15a7.674 7.674 0 0 0 5.917 9.096l7.78 1.645c.25.055.5.09.75.12.166.043.33.097.5.132l47.193 9.984c6.22 1.318 12.334-2.66 13.648-8.88l.03-.147 2.1-9.91 10.472-49.5.03-.148 2.098-9.915c1.317-6.222-2.66-12.332-8.88-13.647z"/><g fill="#1563A9"><path d="M88.804 23.27l-1.684-.364 1.38-6.352c-.74.44-1.56.71-2.456.805l.333-1.53c.47-.05 1.01-.22 1.61-.508.604-.29 1.06-.682 1.368-1.176l1.367.297-1.918 8.828zM101.014 24.284l-.34 1.566-5.907-1.283c.19-.578.506-1.098.94-1.56.436-.458 1.22-1.024 2.354-1.694.914-.543 1.484-.922 1.71-1.137.31-.297.5-.615.573-.955.082-.374.044-.687-.115-.933-.157-.244-.414-.406-.77-.484-.353-.076-.654-.03-.908.135-.256.168-.452.494-.59.98l-1.644-.534c.302-.906.76-1.504 1.376-1.79.615-.29 1.318-.35 2.11-.18.868.19 1.498.573 1.894 1.147.394.577.516 1.214.363 1.91-.087.394-.24.757-.46 1.083s-.524.652-.918.98c-.26.214-.71.507-1.348.88s-1.045.623-1.22.752c-.18.13-.327.26-.448.393l3.348.726zM107.968 25.796l-.34 1.566-5.908-1.285c.192-.576.507-1.096.94-1.557s1.22-1.025 2.355-1.695c.914-.543 1.482-.922 1.71-1.137.308-.297.498-.615.572-.955.08-.375.043-.688-.115-.934-.157-.245-.414-.407-.77-.485-.353-.076-.655-.03-.91.135-.254.168-.45.494-.59.98l-1.642-.534c.3-.906.76-1.504 1.377-1.793.614-.29 1.317-.348 2.11-.176.866.19 1.497.572 1.892 1.146.394.576.515 1.21.364 1.906-.086.395-.24.757-.46 1.085-.22.326-.525.652-.918.977-.26.217-.71.51-1.348.883-.638.37-1.046.623-1.222.752-.177.13-.326.26-.446.393l3.348.726zM112.194 28.354l.384-1.77-3.6-.78.32-1.478 5.03-4.754 1.414.307-1.212 5.577 1.092.238-.322 1.48-1.092-.236-.384 1.767-1.63-.353zm.706-3.25l.653-3.006-2.674 2.566 2.02.44zM124.146 21.706c.852.186 1.45.635 1.8 1.346.414.844.44 2.1.078 3.768-.36 1.664-.91 2.797-1.643 3.398-.605.498-1.334.652-2.186.467-.856-.186-1.474-.664-1.854-1.436s-.388-2-.02-3.69c.36-1.655.905-2.784 1.64-3.388.605-.495 1.335-.65 2.186-.466zm-.303 1.398c-.205-.045-.4-.02-.588.076s-.363.3-.523.617c-.21.41-.43 1.133-.652 2.164-.225 1.032-.327 1.753-.307 2.16.02.41.095.694.226.856a.877.877 0 0 0 1.09.235c.186-.096.36-.303.522-.617.21-.408.426-1.127.65-2.158.224-1.03.326-1.752.306-2.16-.02-.408-.095-.695-.224-.86a.86.86 0 0 0-.5-.312zM132.365 31.1l-.34 1.565-5.907-1.285a4.175 4.175 0 0 1 .94-1.557c.436-.46 1.22-1.025 2.355-1.695.912-.543 1.482-.922 1.71-1.137.308-.296.498-.614.572-.954.08-.377.042-.688-.115-.934-.157-.244-.414-.406-.77-.484-.354-.076-.655-.03-.91.135-.254.168-.45.494-.59.98l-1.642-.534c.3-.907.76-1.505 1.375-1.794.616-.29 1.318-.348 2.11-.176.868.19 1.5.57 1.894 1.146.394.576.516 1.21.363 1.906a3.092 3.092 0 0 1-.458 1.084c-.22.328-.525.654-.918.98-.262.216-.71.51-1.348.882-.638.37-1.046.623-1.222.752-.177.13-.326.26-.447.393l3.348.726zM137.6 33.876l-1.685-.367 1.38-6.35c-.74.44-1.56.708-2.456.802l.332-1.53c.472-.046 1.01-.216 1.61-.505.605-.29 1.06-.682 1.37-1.176l1.366.298-1.917 8.828zM88.366 33.41l1.602.92c-.473.9-1.065 1.52-1.78 1.853-.716.332-1.544.396-2.49.19-1.167-.253-2.038-.86-2.617-1.82s-.717-2.136-.415-3.52c.317-1.462.942-2.517 1.874-3.163.93-.645 2.013-.834 3.244-.566 1.075.234 1.88.742 2.413 1.523.318.463.5 1.068.55 1.814l-1.85.04c-.005-.48-.144-.887-.417-1.22-.272-.337-.645-.556-1.115-.66-.652-.14-1.232-.022-1.74.358-.507.38-.875 1.094-1.102 2.14-.242 1.112-.214 1.948.083 2.507.298.56.767.906 1.405 1.047.474.102.91.04 1.317-.186.404-.226.75-.644 1.04-1.257zM98.654 39.032l-1.932-.42-.333-2.164-3.517-.764-1.16 1.84-1.883-.41 5.337-8.05 1.877.41 1.61 9.558zm-2.512-4.19l-.503-3.524-1.897 3.004 2.4.52zM101.653 30.476l1.662.36-1.272 5.855 4.835-5.08 1.77.386-1.912 8.793-1.66-.362 1.246-5.74-4.804 4.967-1.775-.385 1.91-8.794zm5.035-1.198l.82.178c-.165.533-.448.918-.85 1.156-.4.236-.868.297-1.4.182-.532-.115-.93-.363-1.196-.746-.267-.383-.365-.852-.296-1.404l.822.178c-.033.29.02.525.16.71.14.183.374.31.702.382.328.07.594.053.797-.057.204-.108.35-.3.44-.58zM110.648 41.638l1.588-7.305-2.608-.566.323-1.488 6.987 1.52-.323 1.485-2.603-.564-1.587 7.306-1.775-.388zM116.573 38.378c.194-.895.492-1.617.89-2.168a4.25 4.25 0 0 1 1.083-1.027c.423-.28.86-.46 1.307-.543.6-.113 1.256-.094 1.972.062 1.296.28 2.245.91 2.85 1.883.602.97.747 2.174.437 3.605-.31 1.418-.936 2.445-1.882 3.08-.945.635-2.063.81-3.356.53-1.307-.284-2.26-.91-2.858-1.874-.6-.966-.747-2.148-.443-3.548zm1.842.338c-.217.996-.15 1.8.197 2.414.35.613.877.998 1.584 1.152.71.152 1.344.023 1.908-.387.564-.412.958-1.127 1.18-2.146.22-1.01.162-1.808-.172-2.4-.335-.59-.867-.966-1.6-1.126-.732-.158-1.377-.035-1.933.37-.557.403-.945 1.11-1.165 2.122zM127.584 36.112l3.515.764c.694.15 1.206.293 1.536.424.328.133.607.32.84.562.228.242.4.537.512.88.115.347.13.71.048 1.09-.09.41-.282.765-.58 1.06a2.11 2.11 0 0 1-1.07.578c.503.273.856.627 1.062 1.066.207.44.256.912.146 1.42a2.672 2.672 0 0 1-.534 1.105c-.268.34-.586.585-.957.74s-.798.21-1.28.16c-.305-.034-1.022-.17-2.155-.407l-2.992-.65 1.908-8.79zm.696 5.346l-.51 2.35 1.643.357c.64.14 1.05.21 1.23.21.273.01.514-.06.72-.21.206-.15.343-.38.41-.69a1.18 1.18 0 0 0-.046-.716 1.105 1.105 0 0 0-.467-.522c-.225-.137-.74-.293-1.547-.47l-1.433-.31zm.76-3.498l-.44 2.033 1.16.254c.694.15 1.127.232 1.3.25.31.03.572-.023.783-.16.212-.135.35-.346.41-.63.06-.27.032-.51-.08-.712-.113-.2-.312-.354-.602-.453-.17-.06-.675-.178-1.51-.36l-1.02-.222z"/></g><path fill="#FFE88C" d="M93.09 85.488c1.032 5.738-2.784 11.23-8.524 12.262-5.737 1.03-11.228-2.788-12.26-8.526-1.03-5.74 2.787-11.23 8.524-12.26 5.737-1.03 11.23 2.787 12.26 8.524z"/><path opacity=".3" d="M59.65 34.76l74.62 16.156-.606 2.8-74.62-16.155zM57.98 42.872l74.622 16.155-.606 2.8L57.374 45.67zM55.594 50.745l74.62 16.155-.605 2.8-74.622-16.156zM54.163 58.447l74.62 16.155-.605 2.8-74.62-16.155zM51.538 67.514l74.62 16.155-.605 2.797-74.62-16.155z"/><path opacity=".3" fill="#3C3C3B" d="M69.21 1.15l-50.82 9.134c-.196.035-.38.09-.573.133a8.26 8.26 0 0 0-.77.1l-8.378 1.506a8.21 8.21 0 0 0-6.63 9.537l1.918 10.674.03.162 11.035 61.41 1.918 10.676.03.16a8.213 8.213 0 0 0 9.535 6.633l8.377-1.506c.27-.05.533-.112.79-.185.185-.023.367-.037.55-.07l50.82-9.133c6.7-1.204 11.155-7.61 9.952-14.31l-.027-.16L95.05 75.24l-9.58-53.303-.028-.16-1.92-10.675c-1.205-6.7-7.61-11.155-14.31-9.95z"/><path opacity=".3" d="M49.63 76.1l74.62 16.156-.605 2.8L49.025 78.9z"/><path fill="#FFE88C" d="M93.197 86.076l-19.73 3.546-2.256-12.56 19.73-3.545z"/><path fill="#1563A9" d="M67.302.196L16.482 9.33c-.197.035-.382.09-.574.133-.255.02-.513.054-.77.1L6.76 11.07a8.21 8.21 0 0 0-6.63 9.537L2.05 31.28l.028.16 11.036 61.41 1.918 10.677.03.16c.802 4.467 5.072 7.436 9.534 6.634l8.377-1.505a8.43 8.43 0 0 0 .79-.184c.185-.023.367-.036.55-.07l50.82-9.132c6.7-1.204 11.156-7.61 9.953-14.31l-.028-.16-1.918-10.674-9.58-53.3-.027-.16-1.92-10.676c-1.204-6.7-7.61-11.155-14.31-9.952z"/><path fill="#FFE88C" d="M93.306 85.43l-.75-4.17c-.13.308-.28.605-.434.9a12.363 12.363 0 0 1-4.816 4.973 12.29 12.29 0 0 1-3.748 1.386L22.112 99.567c-.544.098-1.038.3-1.49.562a4.61 4.61 0 0 0-2.248 4.812 4.627 4.627 0 0 0 5.375 3.738l61.76-11.098-.006-.04a10.548 10.548 0 0 0 7.88-11.504l.03-.005-.103-.567c0-.006 0-.013-.002-.018.002-.004 0-.01-.002-.017z"/><g fill="#FFF"><path d="M79.545 38.032l3.065-.532s-4.307 8.735-4.657 9.448c-.114.23-.305.49-.374.783-.172.738-.203 2.292-.203 2.292l-2.797.518s.152-1.643-.016-2.472c-.146-.725-.648-1.386-.99-2.077-.34-.7-.886-2.095-.886-2.095l2.882-.518.68 1.518 3.295-6.863z"/><path d="M74.042 40.7c.625.24 1.31 2.056 1.31 2.056s-2.948.576-4.557.865l-1.39.25-.37 7.65-2.58.465s.17-8.274.29-9.792c.04-.49.774-.537 1.986-.755l1.94-.348c1.254-.224 2.69-.65 3.372-.39zM64.755 44.1c.542 1.126.416 4.024.416 4.024s-3.28.533-5.06.91c-.556.117-1.237.16-1.356.45-.17.403.25.905.564 1.094.36.216.97.138 1.193.126 1.49-.076 4.51-.76 4.51-.76l-.11 2.427s-4.263.992-6.507.865c-.44-.024-.877-.158-1.2-.4-.087-.065-.17-.162-.256-.24a2.724 2.724 0 0 1-.382-.463c-.727-1.223-.628-3.83-.33-5.27a6.14 6.14 0 0 1 .13-.562c.063-.23.108-.48.168-.62.04-.095.1-.166.144-.256.048-.11.11-.216.166-.312.157-.265.353-.47.586-.722.775-.83 2.305-1.645 4.29-1.795.748-.058 1.904.007 2.58.664.178.175.32.56.455.84zm-2.088 2.338s-.006-.483-.458-.97c-.387-.408-.684-.467-1.483-.35-2.256.333-1.915 1.988-1.915 1.988l3.855-.668zM52.573 44.333l2.5-.465s-.205 6.866-.336 10.223l-2.88.52c-2.01.36-3.76.933-4.78-.37-.99-1.27-.7-3.695-.648-5.318.035-1.148.123-3.497.123-3.497l2.588-.49s-.1 3.65-.088 5.464c.003.65-.114 1.282.203 1.707.304.4.623.376 1.58.228.303-.05 1.292-.23 1.292-.23l.446-7.772zM44.528 46.904c.66 2.03-.024 4.52-.42 6.652.78-.067 1.442-.27 1.5-.222.065.064-.087 2.475-.284 2.518-.61.123-2.633.505-3.48.657-2.755.495-5.304 1.138-6.865.004-.636-.462-1.177-1.353-1.386-2.01-.35-1.09-.388-2.36-.31-3.43.07-.957.215-1.88.528-2.758.796-2.23 2.542-4.094 5.983-4.354.667-.05 1.66.067 2.308.303.046.018.21.104.244.118.89.364 1.83 1.44 2.18 2.52zm-2.815 4.3c.095-.98.297-2.057.096-2.887-.213-.89-1.115-1.572-1.63-1.655-1.557-.254-2.796.714-3.234 1.4-.566.89-.644 1.823-.674 3.095-.02.943 0 1.932.464 2.584.824 1.146 2.638.536 4.646.188.156-.852.24-1.792.33-2.724zM29.438 48.49c.89-.16 1.72-.296 2.697-.473-.03.79-.042 1.682-.083 2.462l-2.78.5c.065-.872.08-1.727.166-2.49zM29.297 51.693l2.68-.48c-.002 2-.133 5.255-.287 7.53-.094 1.426-.143 2.463-.935 3.35-.07.076-.124.056-.182.133-.14.19-.892.52-1.318.647-.693.203-1.505.28-2.376.42.078-.874.155-1.917.224-2.698 2.163-.124 1.857-2.134 1.922-4.137.036-1.158.216-4.295.27-4.765zM23.95 57.88l-.03.16c-.637 2.083-2.162 3.562-4.626 4.06a7.35 7.35 0 0 1-3.085-.06c-1.68-.418-3.22-1.478-4.183-2.733-1.38-1.798-2.06-4.523-.302-6.966.032-.005-.177.49-.146.485l-.024.202c-.67 5.077 4.795 8.347 9.304 7.05 1.084-.31 2.384-1.17 3.09-2.196zM23.055 51.853c-.105.446-1 1.41-1.44 1.588-1.74.712-3.052.063-3.834-.806a4.752 4.752 0 0 1-.403-.59c-.38-.762-.488-1.99.102-2.744-.105.635-.012 1.332.18 1.762.117.26.407.697.668.96.472.476.732.567 1.266.77.24.09.49.152.596.164.478.052 1.503.232 2.865-1.103z"/><path d="M20.813 56.396c1.158-.2 2.27-.957 2.847-1.846-.34 1.702-1.97 3.048-4.454 3.16-2.084.093-4.39-1.606-4.957-3.62-.416-1.466-.056-2.45.608-3.686-.197.62-.23 1.076-.208 1.358.256 3.286 3.577 5.082 6.163 4.634z"/></g><path opacity=".3" fill="#3C3C3B" d="M83.236 99.618l-6.34 1.14-17.81-99.09 6.34-1.14z"/><path fill="#E65400" d="M85.364 99.292l-6.34 1.14-17.81-99.087 6.34-1.14z"/><path opacity=".2" fill="#3C3C3B" d="M85.233 98.62l-6.34 1.14-1.917-10.675 6.34-1.14z"/></svg>