<svg xmlns="http://www.w3.org/2000/svg" width="77.667" height="88.333" viewBox="0 0 77.667 88.333"><path fill-rule="evenodd" clip-rule="evenodd" fill="#0087CA" d="M18.912 72.272v1.997c0 4.775-2.112 7.384-8.386 7.384H3.038a.185.185 0 0 1-.184-.185V64.937c0-.1.083-.184.184-.184h7.49c6.17 0 8.384 2.687 8.384 7.518zm54.015-7.81l-3.468.56a.184.184 0 0 0-.156.183v13.318c0 2.853 2.573 3.733 5.625 2.998.12-.028.243-.056.365-.08.1-.022.163-.116.146-.215l-.34-1.833c-.01-.064-.067-.08-.115-.08-1.462 0-1.843.02-1.843-.79V64.644a.18.18 0 0 0-.064-.14.188.188 0 0 0-.15-.042zm-18.324 12.12v-2.936c0-2.853-1.925-4.405-6.08-4.272-4.156.13-5.78.46-5.78 3.857v13.017a.183.183 0 0 0 .21.183l3.47-.56a.183.183 0 0 0 .155-.184v-2.58c0-.508-.354-.908-.325-1.65 1.106.35 2.388.472 3.882.436 1.723-.04 4.468-.933 4.468-5.31zm-8.025 2.84v-6.19c0-1.213.07-1.553 1.997-1.553 1.928 0 2.19 1.137 2.19 1.966v3.498c0 1.86-.622 2.547-2.26 2.54-.827-.004-1.258-.135-1.927-.262zM32.76 69.38l-3.47.56a.182.182 0 0 0-.153.18v7.96c0 2.852 2.6 3.812 5.623 3.864 3.026.053 5.993-.81 5.993-3.865v-8.52c0-.055-.022-.103-.065-.14s-.094-.05-.148-.042l-3.47.562a.182.182 0 0 0-.155.18v7.96c0 .842-.45 1.55-1.997 1.55s-1.945-.722-1.945-1.55v-8.52c0-.055-.02-.103-.064-.14s-.096-.05-.15-.04zm26.678 8.07v1.162c0 1.14 2.09 1.126 3.232 1.125.62 0 .867-.234.867-.868v-2.634c0-.053-.02-.1-.06-.135s-.085-.052-.14-.048c-1.354.1-3.9.148-3.9 1.398zm-3.757 1.162V77.45c0-2.82 4.685-3.25 7.69-3.52a.182.182 0 0 0 .168-.184v-.66c0-.687-.25-1.24-1.235-1.34-1.73-.175-2.774.07-5.137.593a.185.185 0 0 1-.217-.134l-.44-1.64a.184.184 0 0 1 .116-.22c1.453-.54 3.38-1.03 5.52-.913 2.09.113 5.098-.034 5.098 3.654v5.78c0 2.522-1.805 2.968-5.745 3.014-2.986.035-5.82-1.03-5.82-3.268zm-31.106 2.99h-3.472a.185.185 0 0 1-.185-.184v-10.44a.17.17 0 0 1 .025-.093c.534-.907 3.768-1.368 6.88-1.322.102 0 .183.084.183.185v2.07c0 .05-.02.096-.058.132a.178.178 0 0 1-.137.05c-1.843-.098-2.925.104-3.045.502a.164.164 0 0 0-.008.054v8.863c.002.1-.08.183-.183.183zm-9.84-7.332v-1.997c0-3.693-1.196-4.756-4.205-4.756H7.03v11.51h3.494c3.536-.002 4.208-1.8 4.208-4.757z"/><path fill-rule="evenodd" clip-rule="evenodd" fill="#006AA6" d="M35.915 3.854c-.188 1.78-.378 3.55-1.538 4.86-2.285 2.578-5.388 4.162-7.916 5.407-6.434 3.168-13.833 10.547-13.833 22.334 0 5.71 2.2 11.852 6.356 16.585 4.423 5.037 11.04 8.486 18.896 8.448 7.022-.034 12.79-2.327 17.125-6.07 5.07-4.38 8.128-10.812 8.128-18.964 0-6.006-1.79-11.21-5.05-15.194-6.43-7.853-11.618-8.545-14.9-10.417-2.348-1.34-4.516-3.698-7.268-6.99z"/><path fill-rule="evenodd" clip-rule="evenodd" fill="#0087CA" d="M33.994 48.385c12.83-4.604 21.97-14.508 25.113-25.578a20.78 20.78 0 0 0-1.15-1.546c-6.43-7.852-11.617-8.544-14.9-10.416-2.347-1.34-4.515-3.7-7.267-6.99-.188 1.78-.378 3.55-1.538 4.86-2.285 2.58-5.388 4.163-7.916 5.408C19.9 17.29 12.502 24.668 12.502 36.455c0 4.874 1.617 10.057 4.673 14.417 5.46.31 11.19-.467 16.82-2.487z"/><path fill-rule="evenodd" clip-rule="evenodd" fill="#B0D6EA" d="M36.694 4.17c1.363 2.298 1.557 5.49 0 6.665-.74.56-.578.853-.295 1.09.56.47.154 1.413-.464 2.308-3.46 5.008-10.24 9-14.31 10.802-1.087.48-3.162 1.125-3.785.462-1.576-1.677 1.27-4.333 2.863-6.722l12.63-9.14 3.36-5.466z"/><path fill-rule="evenodd" clip-rule="evenodd" fill="#FFF" d="M36.658 3.504c1.766 4 1.64 6.354-2.392 8.198-.13.06-.43.328.09.43 1.53.305-.51 2.665-1.393 3.486-1.016.945-2.382 2.356-5.787 4.638-3.404 2.282-7.076 3.852-8.033 3.21-1.683-1.133-1.61-3.722 1.4-5.2C34.417 11.455 36.657 3.505 36.657 3.505z"/><path fill="#05598E" d="M37.75 62.623c-7.65 0-14.616-3.138-19.62-8.835-4.217-4.805-6.637-11.123-6.637-17.333 0-11.967 7.474-19.91 14.467-23.35 2.127-1.048 5.342-2.63 7.568-5.144.924-1.04 1.087-2.588 1.26-4.225l.28-2.662 1.717 2.053c2.798 3.345 4.833 5.52 6.96 6.732.704.402 1.52.752 2.464 1.158 3.22 1.383 7.634 3.278 12.75 9.526 3.472 4.24 5.307 9.743 5.307 15.912 0 8.152-2.946 15.006-8.52 19.82-4.77 4.12-10.947 6.315-17.862 6.348h-.135zM36.67 6.485c-.247 1.06-.66 2.097-1.444 2.98-2.522 2.847-5.978 4.547-8.264 5.673-6.382 3.14-13.2 10.39-13.2 21.316 0 5.667 2.213 11.44 6.074 15.837 4.564 5.2 10.927 8.064 17.914 8.064h.123c6.368-.03 12.036-2.035 16.39-5.795C59.326 50.186 62 43.926 62 36.453c0-5.64-1.66-10.645-4.795-14.476-4.766-5.82-8.716-7.516-11.89-8.88-.967-.414-1.88-.805-2.694-1.27-1.958-1.117-3.764-2.848-5.95-5.343z"/><path fill-rule="evenodd" clip-rule="evenodd" fill="#FFF" d="M47.044 43.185c-3.55-.023-7.044-6.227-14.134-6.393-5.334-.125-9.533 4.345-9.44 8.647.11 5.163 3.76 6.397 7.148 6.447 6.644.1 12.557-6.693 16.592-6.762 3.066-.053 6.175 6.362 8.96 6.577 3.21.248 5.605-5.97 5.396-9.737-.14-2.51-1.582-4.313-3.456-4.268-3.51.085-7.594 5.51-11.066 5.488zm-6.146 8.283c1.532-1.525 3.158-2.427 4.985-2.382 2.918.072 3.042.757 3.888 2.465a.818.818 0 0 1-.036.822c-.06.096-.395.416-.508.416-.28 0-.383-.1-.498-.39-.696-1.736-1.728-1.743-3.03-1.744-2.003 0-2.878.98-4.06 1.958-.295.243-.572.426-.795.24-.18-.15-.326-.36-.323-.518.01-.373.114-.603.378-.866zm-4.052 4.145c1.574 1.453 9.01 2.672 13.48-.333.163-.11.375-.184.558-.106.136.06.217.132.234.286.032.252.048.632-.146.794-3.104 2.59-11.497 4.066-15.488.77-.394-.324-.407-.814-.147-1.098.192-.21.36-.31.596-.442.29-.167.662-.102.913.13z"/></svg>