<svg xmlns="http://www.w3.org/2000/svg" width="125.833" height="31.167" viewBox="0 0 125.833 31.167"><g fill="#004687"><circle cx="13.225" cy="15.381" r="3.258"/><path d="M36.193 8.25h-4.54a4.273 4.273 0 0 0-4.273 4.274v6.09a4.272 4.272 0 0 0 4.273 4.27h4.54a4.272 4.272 0 0 0 4.272-4.27v-6.09a4.273 4.273 0 0 0-4.272-4.273zM37.85 19.63c0 .354-.29.64-.643.64h-6.57a.64.64 0 0 1-.64-.64v-8.12a.64.64 0 0 1 .64-.64h6.57c.354 0 .642.288.642.64v8.12zM76.108 10.708H73.01a4.272 4.272 0 0 0-4.272 4.273v6.73h.02l-.002.004a1.31 1.31 0 0 0 2.62 0v-7.989a.64.64 0 0 1 .64-.64h5.068a.64.64 0 0 1 .64.64v7.832a1.31 1.31 0 1 0 2.61.153h.05v-6.73a4.278 4.278 0 0 0-4.276-4.272zM59.032 13.013h5.254c.03 0 .06.007.088.01H65.8a1.317 1.317 0 0 0 0-2.636H59.64c-.05 0-.096.003-.144.008a4.268 4.268 0 0 0-4.11 4.265v3.953a4.272 4.272 0 0 0 4.272 4.272h3.098v-.07H65.8a1.316 1.316 0 0 0 0-2.635h-6.146a.56.56 0 0 1-.065-.032h-.56a1.123 1.123 0 0 1 0-2.247h6.77a1.317 1.317 0 0 0 0-2.633h-6.543v-.007h-.226a1.123 1.123 0 0 1 .002-2.247zM49.768 10.543h-6.175a1.314 1.314 0 1 0-.176 2.614h.012v.003h7.352c.355 0 .643.287.643.64v5.77a.64.64 0 0 1-.643.64H43.43v.007h-.03c-.716 0-1.297.58-1.297 1.296 0 .028.003.055.005.083-.002.028-.005.056-.005.084v3.716a1.318 1.318 0 0 0 2.634 0v-2.568h5.03a4.273 4.273 0 0 0 4.272-4.273v-3.74a4.27 4.27 0 0 0-4.272-4.272z"/></g><g fill="#C1002B"><path d="M106.837 10.744c-.178 0-.42-.036-.65-.036H99.29a4.273 4.273 0 0 0-4.273 4.273v6.73h.02l-.002.004a1.31 1.31 0 0 0 2.618 0v-7.989a.64.64 0 0 1 .64-.64h2.72a.64.64 0 0 1 .643.64s.004 8.154.013 8.196a1.306 1.306 0 0 0 2.608-.126v-7.989a.64.64 0 0 1 .642-.64h2.72a.64.64 0 0 1 .64.64v7.832c-.004.048-.008.095-.008.145a1.31 1.31 0 0 0 2.62.01l.048-6.73c-.006-2.302-1.826-4.226-4.103-4.318zM85.047 10.868H92.4v-.006h.03a1.297 1.297 0 0 0 0-2.593h-.03v-.02h-6.34a4.272 4.272 0 0 0-4.27 4.274v6.09a4.27 4.27 0 0 0 4.27 4.27h6.176c.058.01.116.015.177.015a1.315 1.315 0 0 0 0-2.63h-7.367a.642.642 0 0 1-.643-.642v-8.12c0-.353.288-.64.643-.64zM120.458 15.59v-.023h-4.45a1.14 1.14 0 0 1 0-2.277h5.323c.033 0 .063.006.092.01h1.04v-.007h.027a1.272 1.272 0 0 0 0-2.54h-.03v-.02H115.9a3.56 3.56 0 0 0 0 7.122h4.342a1.137 1.137 0 0 1-.046 2.272h-3.158v.015h-3.196v.006h-.027a1.272 1.272 0 0 0 0 2.542h.027v.018h6.545a3.56 3.56 0 0 0 .07-7.118zM34.397 23.84a1.33 1.33 0 0 0-.876.33l-.003-.004a11.7 11.7 0 0 1-7.74 2.913 11.72 11.72 0 0 1-9.01-4.214 8.278 8.278 0 0 0-.064-14.996 11.72 11.72 0 0 1 9.072-4.292c2.974 0 5.686 1.105 7.755 2.926l.012-.015a1.335 1.335 0 1 0 1.52-2.185A14.36 14.36 0 0 0 25.777.907 14.405 14.405 0 0 0 13.91 7.135a8.164 8.164 0 0 0-.685-.03 8.28 8.28 0 0 0-8.278 8.278 8.28 8.28 0 0 0 9.037 8.242c2.61 3.704 6.918 6.125 11.792 6.125 3.59 0 6.867-1.315 9.39-3.484a1.335 1.335 0 0 0-.77-2.426zm-21.172-2.85a5.608 5.608 0 1 1 .002-11.216 5.608 5.608 0 0 1-.002 11.216z"/></g></svg>