<svg xmlns="http://www.w3.org/2000/svg" width="125.833" height="33.5" viewBox="0 0 125.833 33.5"><g fill="#690"><path d="M99.86 6.906h3.283V20.48H99.86zM99.86 1.853h3.283v2.744H99.86zM17.894 6.726c-1.553 0-2.94.644-3.86 1.655a4.935 4.935 0 0 0-3.72-1.654 4.953 4.953 0 0 0-3.4 1.326V6.906H3.626V20.48H5.48c0 .022 0 .047.002.07H7.03v-8.49a2.268 2.268 0 0 1 4.535 0v8.49h3.407v-8.49a2.268 2.268 0 0 1 4.534 0v8.49h3.403c0-.047.003-.095.003-.143V11.31c0-2.532-2.248-4.584-5.02-4.584zM70.522 6.726c-1.4 0-2.432.526-3.297 1.372v-1.12h-9.781c-1.63-.395-3.592-.614-5.8-.614-6.758 0-13.536 2.977-13.536 5.848 0 1.672.903 3.16 2.992 4.11l-.008.005c-2.724.907-4.227 1.694-4.934 2.368V11.54c-.01-2.766-1.458-4.79-5.81-4.934h-.29c-1.9 0-3.584.763-4.644 1.96l2.225 2.13h.007c.392-.668 1.316-1.142 2.052-1.142h1.38c.792 0 1.46.55 1.67 1.302l.063.002v1.63h-4.236c-2.132 0-3.86 1.794-3.86 4.007s1.73 4.006 3.86 4.006h2.116c.782 0 1.78-.535 2.12-1.272v1.286h3.34c.983.793 3.09 1.22 3.646 1.323-5.97 1.023-10.673 3.044-10.57 4.885.158 2.867 6.063 5.054 13.192 4.98 9.05-.09 19.215-1.298 19.795-5.918.246-1.964-2.488-3.41-7.16-4.123a7.36 7.36 0 0 0-.53-.076 40.35 40.35 0 0 0-1.91-.213c-5.75-.662-14.772-1.97-9.51-4.392 1.22.277 2.687.432 4.423.432 6.76 0 14.62-1.517 15.053-6.136.096-1.02-.408-1.938-1.405-2.696h2.767V20.55H67.31v-8.49c0-1.25 1.088-2.267 2.34-2.267a2.268 2.268 0 0 1 2.268 2.267v8.49h3.33c.002-.048.005-.096.005-.144V11.31c-.002-2.532-1.96-4.584-4.73-4.584zm-37.9 9.522c0 .84-.656 1.52-1.466 1.52h-1.652c-.81 0-1.467-.68-1.467-1.52s.657-1.52 1.467-1.52h3.123l-.006 1.52zm11.02 6.24c8.76.48 13.04 2.07 12.804 3.952-.383 3.043-7.08 3.695-13.04 3.755-4.696.048-8.522-1.402-8.62-3.57-.076-1.713 4.574-3.704 8.857-4.137zm12.952-11.202c-.22 2.36-3.262 5.07-7.684 4.793-5.244-.33-4.955-2.777-4.955-4.243 0-1.466 2.237-4.01 7.056-4.14 3.848-.105 5.72 2.13 5.584 3.59zM83.3 6.63a5.68 5.68 0 0 0-5.68 5.68v2.743a5.68 5.68 0 0 0 11.36 0V12.31a5.678 5.678 0 0 0-5.68-5.68zm2.215 8.57c0 1.33-.992 2.407-2.215 2.407-1.222 0-2.214-1.077-2.214-2.407v-3.04c0-1.33.992-2.406 2.214-2.406 1.223 0 2.215 1.078 2.215 2.406v3.04zM95.02 16.662V1.817h-3.37v15a3.745 3.745 0 0 0 3.746 3.746h2.198v-2.936h-1.608a.966.966 0 0 1-.966-.965zM110.987 6.605h-.29c-1.897 0-3.583.763-4.643 1.96l2.225 2.13h.007c.393-.668 1.316-1.142 2.052-1.142h1.38c.793 0 1.46.55 1.67 1.302l.064.002v1.63h-4.236c-2.133 0-3.863 1.794-3.863 4.007s1.73 4.006 3.863 4.006h2.115c.782 0 1.78-.536 2.122-1.273v1.286h3.344v-8.976c-.01-2.764-1.46-4.787-5.81-4.932zm2.273 9.643c0 .84-.656 1.52-1.466 1.52h-1.653c-.808 0-1.464-.68-1.464-1.52s.656-1.52 1.465-1.52h3.125l-.005 1.52z"/></g><path fill="#690" d="M117.887 5.8v-.012c0-1.13.918-2.077 2.083-2.077s2.07.936 2.07 2.067v.01a2.08 2.08 0 0 1-2.08 2.078 2.06 2.06 0 0 1-2.073-2.065zm3.913-.012v-.01a1.81 1.81 0 0 0-1.83-1.837c-1.05 0-1.842.833-1.842 1.848V5.8a1.81 1.81 0 0 0 1.83 1.835c1.05 0 1.842-.832 1.842-1.847zm-2.69-1.164h.98c.3 0 .528.086.684.24.12.12.183.288.183.482v.012c0 .356-.194.58-.476.683l.54.793h-.568l-.47-.71h-.384v.71h-.49v-2.21zm.975 1.078c.247 0 .38-.132.38-.315v-.012c0-.212-.15-.32-.393-.32h-.475V5.7h.488z"/></svg>