<svg xmlns="http://www.w3.org/2000/svg" width="99.75" height="68" viewBox="0 0 99.75 68"><g fill="#207598"><path d="M19.35 53.227v-.63h-5.238v.63h.157c1.047 0 1.57.28 1.57.838 0 .35-.716 2.602-2.148 6.758h-.052l-2.67-8.225h-.577l-2.776 8.225h-.053l-.263-.89c-1.186-3.528-1.78-5.467-1.78-5.816 0-.593.524-.89 1.57-.89h.158v-.63h-6.18v.63h.157c1.082 0 1.8.437 2.148 1.31.663 1.85 1.815 5.377 3.456 10.58h.47l2.777-8.485h.104l2.725 8.486h.472c2.165-6.67 3.352-10.197 3.562-10.582.313-.872 1.048-1.31 2.2-1.31h.21zM23.12 55.008c-.523 0-1.187.104-1.99.314-2.41 1.012-3.613 2.584-3.613 4.713 0 .7.21 1.484.628 2.357 1.292 1.746 2.846 2.62 4.66 2.62h.473c1.362 0 2.62-.49 3.772-1.468 1.08-1.012 1.623-2.182 1.623-3.51 0-.768-.21-1.536-.63-2.304-1.22-1.815-2.862-2.722-4.923-2.722zm3.3 6.232c-.522 1.886-1.605 2.828-3.247 2.828h-.262l-.785-.104c-1.64-.63-2.462-1.955-2.462-3.982l.21-1.414c.594-1.745 1.605-2.618 3.038-2.618h.367c.42 0 .804.087 1.153.262 1.396.698 2.095 1.938 2.095 3.72l-.105 1.308zM49.938 58.517c-.698-2.095-2.67-3.143-5.918-3.143h-4.558v.576l.68.052c.735 0 1.102.682 1.102 2.043v4.348c0 1.117-.454 1.676-1.362 1.676h-.314l-.313-.053c-.874 0-2.235-1.1-4.086-3.3h.05c1.678-.454 2.516-1.274 2.516-2.462v-.315c0-.245-.035-.437-.104-.576-.384-1.327-1.71-1.99-3.98-1.99h-4.558v.576c.838.034 1.274.14 1.31.314.28 0 .437.523.47 1.57v4.35c0 .593-.033.89-.103.89 0 .663-.418.994-1.256.994h-.42v.576h5.554v-.576h-.472c-.873 0-1.31-.576-1.31-1.73v-1.517h.366l.472.524c1.606 2.06 2.497 3.16 2.67 3.3h8.435c.732 0 1.43-.105 2.095-.314 2.164-.77 3.247-2.2 3.247-4.296-.004-.382-.074-.89-.214-1.517zM34.226 59.88h-1.362v-3.615h.995l.732.104c.768.313 1.152.89 1.152 1.728-.035.385-.088.63-.157.733-.315.7-.77 1.05-1.36 1.05zm10.265 3.875h-.26c-.35 0-.577-.053-.682-.157-.244 0-.366-.77-.366-2.305v-5.028h1.257c2.303 0 3.456 1.24 3.456 3.718 0 2.515-1.135 3.772-3.405 3.772z"/></g><path d="M55.91 52.598h-5.343v.63h.21c.628 0 1.083.104 1.36.313.42.245.63 1.118.63 2.62v4.924c0 1.22-.122 2.008-.366 2.356-.21.42-.803.628-1.78.628h-.053v.576h6.39v-.576a4.24 4.24 0 0 1-1.36-.21c-.525-.243-.786-1.012-.786-2.304V59.51h1.572c1.117 0 2.06-.226 2.83-.68 1.046-.698 1.57-1.52 1.57-2.462v-.523l-.105-.733c-.525-1.676-2.113-2.514-4.767-2.514zm2.672 3.562c-.14 1.5-.82 2.252-2.043 2.252h-1.73v-4.768h1.205l.838.053c1.15.314 1.73 1.083 1.73 2.305v.158zM79.43 63.074c-.176.453-.874.68-2.096.68h-.63c-.732-.033-1.1-.12-1.1-.262-.35 0-.523-.803-.523-2.408v-.838h.577c.594 0 .89.034.89.104.56 0 .84.507.84 1.52h.575v-4.19h-.576l-.052.68c0 .63-.542.944-1.624.944h-.63v-3.038h1.415c1.188 0 1.87.122 2.043.366.244 0 .472.472.682 1.414h.523l-.21-2.67H71.31v.575c.594.035.89.07.89.105.63 0 .943.717.943 2.148v4.033c0 1.222-.437 1.832-1.31 1.832-1.082 0-2.53-1.117-4.347-3.352 1.71-.42 2.566-1.258 2.566-2.514v-.158L70 57.468c-.385-1.396-1.73-2.095-4.034-2.095H61.41v.576l.733.05c.698 0 1.047.718 1.047 2.15v3.718c0 .664-.068 1.223-.21 1.676-.244.35-.662.523-1.257.523h-.313v.576h5.552v-.576h-.366c-.63-.034-.942-.12-.942-.262-.35-.034-.524-.978-.524-2.828v-.156h.42c2.024 2.48 3.038 3.754 3.038 3.823H80.11l.157-2.618h-.42l-.418 1.05zm-14.3-3.195v-3.615h1.047l.367.052c.838 0 1.326.54 1.466 1.624v.315c0 .28-.053.507-.157.68-.314.63-.75.944-1.31.944H65.13zM86.396 59.197c-1.887-.732-2.83-1.414-2.83-2.043v-.21c0-.487.473-.82 1.416-.994 1.29 0 2.095.803 2.408 2.41h.63v-3.353h-.577c-.14.488-.262.732-.366.732-.593-.454-1.292-.68-2.095-.68h-.21l-.733.103c-1.398.42-2.096 1.223-2.096 2.41 0 1.082.646 1.973 1.938 2.672 2.234.872 3.352 1.693 3.352 2.46v.106c0 .698-.505 1.118-1.52 1.257-.487 0-1.012-.12-1.57-.366-1.048-.732-1.57-1.588-1.57-2.564h-.63v3.875h.576c.035-.243.175-.54.42-.89.838.594 1.605.89 2.305.89h.314l.89-.103c1.605-.523 2.408-1.483 2.408-2.88-.002-1.118-.822-2.06-2.462-2.83zM94.724 59.093c-1.746-.663-2.62-1.31-2.62-1.938v-.21c0-.487.473-.82 1.416-.994 1.046 0 1.798.56 2.252 1.678.07.488.14.732.21.732h.576v-3.352h-.578c-.175.488-.297.732-.366.732-.594-.453-1.292-.68-2.095-.68h-.21l-.734.104c-1.396.455-2.096 1.223-2.096 2.305v.104c0 1.152.716 2.078 2.147 2.775 2.096.803 3.144 1.606 3.144 2.41 0 .73-.506 1.17-1.52 1.308-.487 0-1.012-.12-1.57-.366-1.048-.733-1.57-1.57-1.57-2.515v-.05h-.63v3.874h.576c0-.138.123-.436.367-.89h.052c.84.594 1.607.89 2.305.89h.314l.89-.103c1.607-.523 2.41-1.483 2.41-2.88 0-1.153-.89-2.13-2.67-2.934z"/><circle fill="#464646" cx="49.6" cy="24.885" r="22"/><circle fill="#FFF" cx="49.6" cy="24.885" r="21"/><g fill="#464646"><path d="M32.476 17.26h.16l8.86 24.43h-.08c-3.672-1.703-6.573-4.578-8.702-8.622-1.224-2.768-1.835-5.51-1.835-8.223 0-2.45.53-4.977 1.596-7.584zM49.64 6.164c4.736 0 8.94 1.65 12.613 4.95v.08l-.24-.08c-1.49 0-2.528.903-3.113 2.713v.718c0 1.065.746 2.716 2.235 4.95a9.91 9.91 0 0 1 1.118 4.63c0 1.385-.665 3.966-1.997 7.744l-1.275 4.39c-.105 0-.798-1.994-2.076-5.986l-4.79-14.21h.08c1.863 0 2.794-.24 2.794-.72v-.24c-.106-.37-.293-.584-.56-.638l-5.188.24-5.27-.24a.784.784 0 0 0-.397.718h-.08c0 .586.77.88 2.314.88l.4.08 2.873 8.062-4.072 12.214h-.08l-6.784-20.277v-.08h.08c1.81 0 2.713-.213 2.713-.64v-.24c0-.317-.186-.556-.558-.717l-6.07.24h-.317v-.16c.532-.958 1.783-2.343 3.752-4.15 3.565-2.822 7.53-4.232 11.894-4.232z"/><path d="M49.88 26.44c.104 0 .85 1.997 2.234 5.99l3.75 10.136h-.078c-2.076.693-4.15 1.04-6.227 1.04-1.864 0-3.62-.268-5.27-.8l5.59-16.365zM65.926 15.904h.16c1.49 2.98 2.234 5.986 2.234 9.02 0 5.43-2.13 10.113-6.388 14.05-1.01.853-1.97 1.545-2.873 2.077h-.08v-.08l6.546-19.08c.373-1.542.56-2.9.56-4.07l-.16-1.916z"/></g></svg>