<svg xmlns="http://www.w3.org/2000/svg" width="109.333" height="76" viewBox="0 0 109.333 76"><path fill="#77BC1F" d="M39.208 27.612l-.948-.948A10.92 10.92 0 0 1 35.523 15.8a6.597 6.597 0 0 1 1.46-13.03 6.598 6.598 0 0 1 6.507 5.527 10.917 10.917 0 0 1 10.227 2.91l.378.38-4.867 4.863-.377-.378a4.044 4.044 0 0 0-5.718.002 4.053 4.053 0 0 0-.01 5.726l.954.95 4.866 4.863 5.147 5.144-4.863 4.866-5.15-5.147-4.87-4.864"/><path fill="#F7B334" d="M44.65 22.173l5.153-5.147 4.866-4.863.948-.947a10.926 10.926 0 0 1 10.814-2.76 6.595 6.595 0 1 1 7.4 7.448 10.92 10.92 0 0 1-2.773 10.752l-.38.38-4.86-4.867.373-.377a4.043 4.043 0 0 0 .002-5.72 4.036 4.036 0 0 0-5.713.01l-.95.947-4.866 4.863-5.148 5.144-4.867-4.864"/><g><path fill="#F7323F" d="M66.565 46.724a10.924 10.924 0 0 1-10.946-2.716l-.373-.372 4.862-4.868.373.375a4.048 4.048 0 0 0 5.72 0 4.037 4.037 0 0 0-.01-5.713l-.95-.952-4.862-4.866-5.138-5.144 4.867-4.862 5.134 5.14 4.86 4.866.956.956a10.914 10.914 0 0 1 2.894 10.313 6.595 6.595 0 1 1-7.39 7.844"/><path fill="#3E8EDE" d="M64.667 33.056l-5.134 5.14-4.864 4.865-.954.956c-2.81 2.81-6.77 3.765-10.367 2.873a6.6 6.6 0 0 1-6.43 5.114 6.592 6.592 0 0 1-6.594-6.593 6.596 6.596 0 0 1 5.072-6.417 10.914 10.914 0 0 1 2.86-10.432l.373-.37 4.867 4.862-.376.374a4.05 4.05 0 0 0 5.728 5.726l.954-.954 4.863-4.864 5.138-5.144 4.864 4.866"/></g><g><path d="M13.364 55.848v11.255c0 .996-.302 1.84-.897 2.507-.728.812-1.813 1.225-3.228 1.225l-1.27-.094-3.82-.626-.634 1.436 3.882.6c.725.11 1.4.167 2.006.167 2.1 0 3.685-.59 4.712-1.752.827-.95 1.246-2.19 1.246-3.688v-11.03h-1.998M30.127 62.063c-1.523-.832-3.343-1.252-5.41-1.252-2.055 0-3.874.42-5.41 1.252h-.002c-1.938 1.055-2.92 2.577-2.92 4.524s.98 3.466 2.92 4.512c1.537.83 3.356 1.25 5.41 1.25 2.062 0 3.878-.416 5.4-1.24 1.923-1.046 2.9-2.568 2.9-4.522 0-1.953-.97-3.476-2.888-4.523m-1.173 7.894c-1.174.668-2.6 1.006-4.237 1.006-1.674 0-3.11-.332-4.27-.984h-.002c-1.41-.79-2.095-1.902-2.095-3.4 0-1.476.704-2.62 2.095-3.397 1.16-.653 2.6-.985 4.27-.985 1.66 0 3.094.332 4.26.985 1.377.785 2.073 1.928 2.073 3.397 0 1.455-.704 2.59-2.094 3.377zM47.797 62.063c-1.523-.832-3.344-1.252-5.41-1.252-2.054 0-3.874.42-5.41 1.252-1.94 1.055-2.923 2.577-2.923 4.524s.984 3.466 2.923 4.512c1.535.83 3.354 1.25 5.41 1.25 2.06 0 3.875-.416 5.397-1.24 1.925-1.046 2.9-2.568 2.9-4.522 0-1.955-.972-3.476-2.887-4.523m-1.173 7.894c-1.175.668-2.6 1.006-4.237 1.006-1.675 0-3.11-.332-4.27-.984-1.41-.79-2.096-1.902-2.096-3.4 0-1.476.706-2.62 2.096-3.397 1.16-.653 2.597-.985 4.27-.985 1.66 0 3.092.332 4.26.985 1.376.785 2.074 1.928 2.074 3.397 0 1.455-.706 2.59-2.096 3.377zM72.174 61.782c-1.085-.644-2.476-.97-4.133-.97-2.104 0-3.812.662-5.09 1.948-1.232-1.287-2.935-1.95-5.074-1.95-1.727 0-3.135.365-4.22 1.058v-.896h-1.9v11.184h1.9v-7.652c.13-.552.494-1.06 1.083-1.478.778-.55 1.81-.83 3.062-.83 1.108 0 2.062.23 2.832.678.922.526 1.37 1.264 1.37 2.253v7.028h1.87v-7.028c0-.99.445-1.732 1.362-2.264.78-.442 1.743-.667 2.865-.667 1.12 0 2.078.23 2.855.678.916.525 1.362 1.263 1.362 2.252v7.028h1.9V65.39c.003-1.593-.685-2.807-2.043-3.608M75.75 55.848v16.308h1.903V55.848H75.75M93.886 60.972v1.915c-1.63-1.365-3.777-2.076-6.412-2.076-2.13 0-3.963.41-5.445 1.208-1.885 1.026-2.84 2.563-2.84 4.568 0 1.977.978 3.502 2.907 4.534 1.517.816 3.35 1.23 5.444 1.23 1.052 0 2.07-.126 3.023-.372 1.346-.347 2.454-.87 3.322-1.546v1.723h1.9V60.972h-1.9m-12.73 5.608c0-1.482.703-2.63 2.09-3.41 1.163-.645 2.607-.973 4.293-.973 2.082 0 3.712.508 4.844 1.512.998.884 1.505 2.04 1.505 3.43v1.324c-.8.88-1.964 1.577-3.468 2.063a9.212 9.212 0 0 1-2.882.436c-1.716 0-3.165-.32-4.306-.952-1.397-.78-2.076-1.903-2.076-3.43zM100.75 55.59h-1.902v12.886h1.9V55.59m-.93 14.47c-1.32 0-1.52.688-1.52 1.097 0 .422.198 1.128 1.52 1.128 1.314 0 1.51-.707 1.51-1.128 0-.41-.196-1.096-1.51-1.096zM104.484 56.022l.002.12.006.193v1.062h-.36v-1.81h.5l.655 1.444.65-1.442h.495v1.81h-.356v-1.063l.003-.178v-.134l-.62 1.375h-.35l-.626-1.376m-.674-.168h-.788v1.544h-.378v-1.544h-.79v-.265h1.956v.264z"/></g></svg>