<svg xmlns="http://www.w3.org/2000/svg" height="93.6" width="147" viewBox="0 0 147.19001 93.644999"><ellipse rx="168" ry="13" transform="matrix(.29 0 0 .42 24.7 -2.54)" cy="216" cx="244" fill="#e6e6e6"/><g transform="translate(-2.92) scale(.84)"><path fill="#3a383a" d="M80.4 20.3h73.3v81.1H80.4z"/><path fill="#5e5e5e" d="M78.5 19c0 1.93 1.56 3.49 3.49 3.49h71.8V6.09h-71.8c-1.92 0-3.49 1.56-3.49 3.49V19z"/><path fill="#fff" d="M113 13.7h27.1v1.31H113zM113 16.7h27.1v1.31H113z"/><circle transform="translate(11.9)" cy="14.3" cx="89.7" r="5.24" fill="#eb6159"/><path fill="#3a383a" d="M97.7 14.3a3.93 3.93 0 1 0 7.86 0 3.93 3.93 0 0 0-7.86 0z"/><path fill="#5e5e5e" d="M78.5 72.5c0 1.93 1.56 3.49 3.49 3.49h71.8v-16.4h-71.8c-1.92 0-3.49 1.56-3.49 3.49v9.42z"/><g fill="#fff"><path d="M113 64.1h27.1v1.31H113zM113 67.2h27.1v1.31H113zM113 70.2h27.1v1.31H113z"/></g><circle transform="translate(11.9)" cy="67.8" cx="89.7" r="5.24" fill="#eb6159"/><path fill="#3a383a" d="M97.7 67.8a3.93 3.93 0 1 0 7.86 0 3.93 3.93 0 0 0-7.86 0z"/><path fill="#5e5e5e" d="M78.5 90.4c0 1.93 1.56 3.49 3.49 3.49h71.8v-16.4h-71.8c-1.92 0-3.49 1.56-3.49 3.49v9.43z"/><g fill="#fff"><path d="M113 81.9h27.1v1.31H113zM113 85.1h27.1v1.31H113zM113 88.1h27.1v1.31H113z"/></g><circle transform="translate(11.9)" cy="85.7" cx="89.7" r="5.24" fill="#eb6159"/><path fill="#3a383a" d="M97.7 85.7a3.93 3.93 0 1 0 7.86 0 3.93 3.93 0 0 0-7.86 0z"/><path fill="#5e5e5e" d="M154 106V95.79H82.2c-1.92 0-3.49 1.56-3.49 3.49V106h75.3z"/><path fill="#fff" d="M113 99.8h27.1v1.31H113zM113 103h27.1v1.31H113z"/><path fill="#eb6159" d="M106 106a5.23 5.23 0 0 0-4.837-7.24c-2.89 0-5.24 2.34-5.24 5.23 0 .713.145 1.39.402 2.01h9.67z"/><path fill="#3a383a" d="M105 106c.354-.59.57-1.27.57-2.01a3.93 3.93 0 0 0-7.86 0c0 .737.217 1.42.57 2.01H105z"/><g fill="#14caf4"><circle transform="translate(11.9)" cy="14.3" cx="89.7" r="1.82"/><path d="M103 67.8c0 1.01-.817 1.82-1.82 1.82-1.01 0-1.82-.814-1.82-1.82s.813-1.82 1.82-1.82 1.82.813 1.82 1.82z"/><circle transform="translate(11.9)" cy="85.7" cx="89.7" r="1.82"/><circle transform="translate(11.9)" cy="104" cx="89.7" r="1.82"/></g><path opacity=".1" fill="#fff" d="M84.7 3.16H158v102H84.7z"/><path opacity=".3" d="M155 10.8V.575H87.9V4.68H76V106h11.9V10.8z"/><path opacity=".2" fill="#fff" d="M148.47 3.56h-28L83.67 107.3h28.8z"/><path fill="#d8d8d8" d="M154 7.13V0H75.2v106h8.2V7.13z"/><path fill="#d8d8d8" d="M153 106h8V0H82.9L153 7.13z"/><path opacity=".1" d="M153 7.13V106h8V0z"/></g><g fill="#fcd22e"><path d="M46.29 54.005c-.4 0-23.3-3.9-23.3-3.9l1.9 2.53-11.4-.916s2.54 2.51 1.81 2.39c-.8-.1-15.3.9-15.3.9l23.3 4.13-1.86-2.47 11.5 1.13-1.99-2.65 15.3-1.12zM41.89 68.805c-.2 0-13.9-2.3-13.9-2.3l1.14 1.51-6.83-.548s1.52 1.5 1.08 1.43c-.433-.07-9.14.507-9.14.507l13.9 2.47-1.11-1.48 6.91.674-1.19-1.59 9.14-.67zM41.89 39.205c-.2 0-13.9-2.3-13.9-2.3l1.14 1.51-6.83-.55s1.52 1.5 1.08 1.43c-.433-.07-9.14.508-9.14.508l13.9 2.47-1.11-1.48 6.91.674-1.19-1.59 9.14-.67zM51.49 80.905c-.2 0-10.8-1.7-10.8-1.7l.877 1.17-5.27-.424s1.17 1.16.836 1.1c-.333-.052-7.05.392-7.05.392l10.8 1.91-.857-1.14 5.33.52-.92-1.22 7.05-.52zM51.49 27.105c-.2 0-10.8-1.8-10.8-1.8l.877 1.17-5.27-.424s1.17 1.16.836 1.1c-.333-.052-7.05.392-7.05.392l10.8 1.91-.857-1.14 5.33.52-.92-1.22 7.05-.518z"/></g><path fill="#ccc" d="M70.7 14.3c0 1.01-.823 1.84-1.84 1.84h-11.3a1.84 1.84 0 0 1 0-3.68h11.3c1.02 0 1.84.823 1.84 1.84z"/><path opacity=".3" d="M52.7 21.5h94.5v29.2H52.7z"/><path fill="#36aad8" d="M46.3 18.9h95.9v30H46.3z"/><g fill="#fff"><path d="M98.12 26.644c0 .61-.362 1.1-.806 1.1H80.407c-.446 0-.81-.49-.81-1.1s.364-1.105.81-1.105h16.907c.444 0 .806.495.806 1.104zM110.676 31.6c0 .613-.362 1.105-.806 1.105H80.378c-.447 0-.81-.492-.81-1.105 0-.61.363-1.1.81-1.1h29.492c.444 0 .806.49.806 1.1zM110.676 36.472c0 .61-.362 1.1-.806 1.1H80.378c-.447 0-.81-.49-.81-1.1s.363-1.1.81-1.1h29.492c.444 0 .806.49.806 1.1zM110.676 41.302c0 .613-.362 1.105-.806 1.105H80.378c-.447 0-.81-.492-.81-1.105 0-.61.363-1.1.81-1.1h29.492c.444 0 .806.495.806 1.1z"/></g><path fill="#fff" d="M141 48.9a17.71 17.71 0 0 0 1.57-.947v-2.55c-.826.68-1.73 1.28-2.71 1.79l-3.21-7.09 5.92-2.69v-1.81l-6.6 2.99-2.14-4.73 8.34-3.78c.144.333.278.67.406 1v-3.69a28.954 28.954 0 0 0-2.68-3.95l2.68-1.21v-3.28H138.133c1.26.467 2.45 1.1 3.56 1.88l-2.9 1.31a40.068 40.068 0 0 0-3.2-3.19h-2.47c1.3 1.12 2.73 2.41 4.12 3.89l-6.97 3.16-3.16-6.96.236-.086h-4.44c-6.94 4.7-9.7 13.8-6.12 21.7 1.65 3.65 4.4 6.46 7.68 8.21h8.27c-1.55-1.34-3.3-2.93-4.92-4.8l7.33-3.32 3.21 7.09c-1.52.595-3.09.93-4.65 1.03H141zm-2.63-24.8c1.13 1.34 2.19 2.82 3.07 4.47l-8.3 3.76-2.2-4.86 7.43-3.37zm-6.73 8.91l-8.3 3.76c-.658-1.74-1.07-3.51-1.34-5.25l7.44-3.37 2.2 4.86zm-10-10.3c1.14-1.18 2.48-2.19 4.01-2.98l3.15 6.97-6.97 3.16c-.26-2.63-.22-5.1-.19-7.14zm-1.65 2.03c-.02 1.81.043 3.78.29 5.81l-2.9 1.31c.267-2.55 1.17-5.01 2.61-7.13zm-2.69 8.97l3.23-1.46c.302 1.73.755 3.48 1.42 5.21l-3.59 1.63c-.69-1.76-1.03-3.58-1.06-5.37zm1.74 6.87l3.56-1.61c.76 1.62 1.71 3.1 2.75 4.46l-3.07 1.39a15.277 15.277 0 0 1-3.23-4.24zm11.3 8.15a15.585 15.585 0 0 1-6.63-2.75l2.73-1.23c1.26 1.48 2.61 2.79 3.9 3.98zm-3.55-5.95c-1.04-1.35-1.99-2.83-2.75-4.45l8.34-3.78 2.14 4.73-7.74 3.5z"/><circle opacity=".2" cx="154" transform="matrix(.42 0 0 .42 -.01 -.53)" cy="84.8" r="25.2" fill="#444"/><circle cx="154" transform="matrix(.42 0 0 .42 -.01 -.53)" cy="82.8" r="25.2" fill="#eabc28"/><path opacity=".15" fill="#fff" d="M72.2 26.7C67.71 31.02 61.3 37.2 57 41.4c1.93 2.07 4.67 3.36 7.72 3.36 5.84 0 10.6-4.73 10.6-10.6 0-2.93-1.19-5.58-3.11-7.49z"/><circle opacity=".2" cx="154" transform="matrix(.42 0 0 .42 -.01 -.53)" cy="82.8" r="17.3" fill="#444"/><path opacity=".2" fill="#444" d="M66.7 8.24h-14v4.2h.765c1.18 0 .784 1.01.014 1.01l-.044.002H52.7v4.31h2.43c1.01.16.603.865.192.867h-2.63v.333l-6.38-.037v3.76h6.9c-1.07 4.6 2.77 8.62 5.85 11-.127.47-.2.958-.2 1.47a5.65 5.65 0 1 0 5.65-5.65c-.163 0-.325.01-.484.025-.08-.813-.168-1.81-.27-3.05-.9-10.5 7.5-8.6 7.8-13.5.3-4.93-4.9-4.87-4.9-4.87z"/><path fill="#fcd22e" d="M66.7 7.38H12.33a2.1 2.1 0 0 0 0 4.2h1.52l39.6-.003c1.18 0 .784 1.01.014 1.01l-.043.002h-30.5a2.15 2.15 0 0 0 0 4.3h32.2c1.01.157.605.864.194.866h-26.4a2.03 2.03 0 0 0 0 4.06h24.3c-1.07 4.6 2.77 8.62 5.85 11a5.59 5.59 0 0 0-.2 1.47 5.65 5.65 0 1 0 5.65-5.65c-.163 0-.325.01-.484.025-.08-.813-.168-1.81-.27-3.05-1-10.6 7.4-8.6 7.7-13.6.3-4.9-4.9-4.83-4.9-4.83z"/><ellipse rx=".098" ry=".065" transform="matrix(.42 0 0 .42 -.01 -.53)" cy="45.4" cx="171" fill="#fcd22e"/><path opacity=".1" fill="#444" d="M69.1 37.6c-2.97 2.64-9.64 1.71-8.65-5.36-7.06-6.79-5.32-8.54-4.73-11.2-2.55 0-27.4-.11-27.4-.11s-1.28-.27-1.27-1.92a2.01 2.01 0 0 0-.194.853c0 1.12.908 2.03 2.03 2.03h24.3c-1.07 4.6 2.77 8.62 5.85 11a5.59 5.59 0 0 0-.2 1.47 5.65 5.65 0 0 0 5.65 5.65c1.9 0 3.58-.945 4.61-2.39z"/></svg>