<svg xmlns="http://www.w3.org/2000/svg" height="89.8" width="105" viewBox="0 0 105.26464 89.753639"><g transform="matrix(1.13 0 0 1.13 .93 -175.6)"><ellipse rx="125" transform="matrix(.352 0 0 .48 -.6 122)" ry="14.1" cy="221" cx="139" fill="#ededed"/><g fill="#878787"><path d="M20.9 216.08c0 .926-.75 1.68-1.68 1.68h-4.848a1.68 1.68 0 0 1-1.68-1.68v-47.472c0-.926.75-1.68 1.68-1.68h4.848c.926 0 1.68.754 1.68 1.68v47.472zM85.7 216.08c0 .926-.75 1.68-1.68 1.68h-4.848a1.68 1.68 0 0 1-1.68-1.68v-47.472c0-.926.75-1.68 1.68-1.68h4.848c.926 0 1.68.754 1.68 1.68v47.472z"/></g><path fill="#ededed" d="M81.7 156H16.3c-.927 0-1.68.75-1.68 1.68v43.56c0 2.99 2.5 4.85 5.59 4.85h57.6c3.09 0 5.59-1.86 5.59-4.85v-43.56c0-.927-.75-1.68-1.68-1.68z"/><path fill="#ededed" d="M83.3 227c0 .926-.75 1.68-1.68 1.68h-65.4a1.68 1.68 0 0 1-1.68-1.68v-69.9c0-.927.75-1.68 1.68-1.68h65.4c.927 0 1.68.75 1.68 1.68V227z"/><path opacity=".1" d="M81.7 157H16.3c-.927 0-1.68.75-1.68 1.68v43.56c0 2.99 2.5 4.85 5.59 4.85h57.6c3.09 0 5.59-1.86 5.59-4.85v-43.56c0-.926-.75-1.68-1.68-1.68z"/><path fill="#f6f6f6" d="M81.7 156H16.3c-.927 0-1.68.75-1.68 1.68v43.56c0 2.99 2.5 4.85 5.59 4.85h57.6c3.09 0 5.59-1.86 5.59-4.85v-43.56c0-.927-.75-1.68-1.68-1.68z"/><g fill="#878787"><circle transform="matrix(.48 0 0 .48 -34.3 122)" cy="175" cx="174" r="20.8"/><path d="M39.2 206H19.5c-3.14 0-5.69-2.55-5.69-5.69h.48a5.22 5.22 0 0 0 5.21 5.21h19.7v.48zM78.2 206H58.5v-.48h19.7a5.22 5.22 0 0 0 5.21-5.21h.48c0 3.14-2.55 5.69-5.69 5.69z"/></g><circle transform="matrix(.48 0 0 .48 -34.3 122)" cy="175" cx="174" r="18.6" fill="#50ceff"/><circle transform="matrix(.48 0 0 .48 -34.3 122)" cy="175" cx="174" r="16.3" fill="#ededed"/><path fill="#50ceff" d="M14.4 222h68.9v1.68H14.4z"/><path opacity=".2" d="M14.4 222h68.9v.374H14.4z"/><path opacity=".05" d="M19.4 156h-3.17c-.927 0-1.68.75-1.68 1.68v69.9c0 .926.75 1.68 1.68 1.68h3.17v-73.2zM78.5 156h3.17c.927 0 1.68.75 1.68 1.68v69.9c0 .926-.75 1.68-1.68 1.68H78.5v-73.2z"/><g fill="#3dc2ea"><path d="M49.22 210.8a4.5 4.5 0 0 1-4.498-4.498c0-1.156.442-2.26 1.248-3.1a.69.69 0 1 1 .998.95 3.11 3.11 0 0 0-.864 2.15c0 1.72 1.4 3.12 3.12 3.12s3.12-1.4 3.12-3.12c0-.8-.306-1.563-.864-2.15a.69.69 0 0 1 .997-.95 4.482 4.482 0 0 1 1.248 3.1 4.5 4.5 0 0 1-4.497 4.498z"/><path d="M49.7 206a.71.71 0 0 1-1.42 0v-4.55a.71.71 0 0 1 1.42 0V206z"/></g><path opacity=".05" d="M43.4 211c3.06 3.06 8.01 3.06 11.1 0 3.06-3.06 3.06-8.01 0-11.1l-11.1 11z"/><g fill="#878787"><path d="M23.3 155.552v4.992c0 .294.238.533.528.533a.533.533 0 0 0 .533-.533v-4.992H23.3zM25.7 155.552v4.992c0 .294.238.533.528.533a.533.533 0 0 0 .533-.533v-4.992H25.7zM27.62 155.552v4.992c0 .294.238.533.528.533a.533.533 0 0 0 .533-.533v-4.992h-1.06z"/></g><g fill="#878787"><path d="M69.86 155.552v4.992a.533.533 0 0 0 1.066 0v-4.992h-1.06zM71.78 155.552v4.992a.533.533 0 0 0 1.066 0v-4.992H71.78zM74.18 155.552v4.992a.533.533 0 0 0 1.066 0v-4.992h-1.06z"/></g><path opacity=".15" d="M14.6 226v1.11c0 .926.75 1.68 1.68 1.68h65.44c.927 0 1.68-.75 1.68-1.68V226H14.6zM36 156v1.42c0 1.3 1.06 2.36 2.36 2.36h21.1c1.3 0 2.36-1.06 2.36-2.36V156h-25.8z"/><path opacity=".03" d="M81.7 156l-61.5 50.1h57.6c3.09 0 5.59-1.86 5.59-4.85v-43.56c0-.927-.75-1.68-1.68-1.68z"/></g><path fill="#fcd22e" d="M12.62 17.992c1.814 4.786 5.472 8.64 10.128 10.752A19.378 19.378 0 0 0 12.62 39.496c-1.44-4.752-5.28-8.64-10.08-10.752a19.377 19.377 0 0 0 10.128-10.752z"/><path fill="#fd7600" d="M12.62 23.32a9.808 9.808 0 0 0 5.088 5.424 9.655 9.655 0 0 0-5.088 5.424 9.778 9.778 0 0 0-5.088-5.424 9.763 9.763 0 0 0 5.088-5.424z"/><path fill="#fcd22e" d="M4.94 10.36a9.576 9.576 0 0 0 4.944 5.28 9.455 9.455 0 0 0-4.944 5.28 9.56 9.56 0 0 0-4.944-5.28 9.47 9.47 0 0 0 4.944-5.28z"/><path fill="#fd7600" d="M4.94 13a4.787 4.787 0 0 0 2.49 2.65 4.754 4.754 0 0 0-2.49 2.65 4.754 4.754 0 0 0-2.486-2.65A4.76 4.76 0 0 0 4.94 13z"/><path fill="#fcd22e" d="M21.74 7.336a13.67 13.67 0 0 0 7.152 7.584 13.767 13.767 0 0 0-7.152 7.584 13.67 13.67 0 0 0-7.152-7.584 13.767 13.767 0 0 0 7.152-7.584z"/><path fill="#fd7600" d="M21.74 11.08a6.898 6.898 0 0 0 3.595 3.82 6.852 6.852 0 0 0-3.595 3.822 6.86 6.86 0 0 0-3.59-3.82 6.874 6.874 0 0 0 3.59-3.822z"/></svg>