<svg xmlns="http://www.w3.org/2000/svg" height="96" viewBox="0 0 95.999996 96" width="96"><g transform="matrix(.335 0 0 .335 3.74 1)"><ellipse cx="139" rx="125" ry="14.1" transform="matrix(.733 0 0 1 29.5 -11.6)" cy="221" fill="#ededed"/><g fill="#878787"><path d="M74.1 184.4c0 1.93-1.56 3.5-3.5 3.5H60.5c-1.93 0-3.5-1.56-3.5-3.5V85.5c0-1.93 1.56-3.5 3.5-3.5h10.1c1.93 0 3.5 1.57 3.5 3.5v98.9zM209.1 184.4c0 1.93-1.56 3.5-3.5 3.5h-10.1c-1.93 0-3.5-1.56-3.5-3.5V85.5c0-1.93 1.56-3.5 3.5-3.5h10.1c1.93 0 3.5 1.57 3.5 3.5v98.9z"/></g><path fill="#ededed" d="M201 58.3H65c-1.93 0-3.5 1.56-3.5 3.5v90.9c0 6.22 5.22 10.1 11.7 10.1h120c6.44 0 11.7-3.88 11.7-10.1V61.9c0-1.93-1.56-3.5-3.5-3.5z"/><path fill="#ededed" d="M204 207c0 1.93-1.56 3.5-3.5 3.5h-136c-1.93 0-3.5-1.56-3.5-3.5V61c0-1.93 1.56-3.5 3.5-3.5h136c1.93 0 3.5 1.56 3.5 3.5v146z"/><path opacity=".1" d="M201 60.6H65c-1.93 0-3.5 1.56-3.5 3.5V155c0 6.22 5.22 10.1 11.7 10.1h120c6.44 0 11.7-3.88 11.7-10.1V64.2c0-1.93-1.56-3.5-3.5-3.5z"/><path fill="#f6f6f6" d="M201 58.3H65c-1.93 0-3.5 1.56-3.5 3.5v90.9c0 6.22 5.22 10.1 11.7 10.1h120c6.44 0 11.7-3.88 11.7-10.1V61.9c0-1.93-1.56-3.5-3.5-3.5z"/><g fill="#878787"><circle cy="175" transform="translate(-40.9 -11.6)" cx="174" r="20.8"/><path d="M113 163H71.9c-6.54 0-11.9-5.32-11.9-11.9h1c0 5.99 4.88 10.9 10.9 10.9H113v1zM194 163h-41.1v-1H194c5.99 0 10.9-4.88 10.9-10.9h1c0 6.54-5.32 11.9-11.9 11.9z"/></g><circle cy="175" transform="translate(-40.9 -11.6)" cx="174" r="18.6" fill="#50ceff"/><circle cy="175" transform="translate(-40.9 -11.6)" cx="174" r="16.3" fill="#ededed"/><path fill="#50ceff" d="M60.7 195h144v3.5h-144z"/><path opacity=".2" d="M60.7 195h144v.78h-144z"/><path opacity=".05" d="M71.2 58.3h-6.6c-1.93 0-3.5 1.56-3.5 3.5v146c0 1.93 1.56 3.5 3.5 3.5h6.6v-153zM194 58.3h6.6c1.93 0 3.5 1.56 3.5 3.5v146c0 1.93-1.56 3.5-3.5 3.5H194v-153z"/><g fill="#3dc2ea"><path d="M133.1 173.4c-5.17 0-9.37-4.2-9.37-9.37 0-2.41.92-4.71 2.6-6.46a1.435 1.435 0 1 1 2.078 1.982 6.48 6.48 0 0 0-1.8 4.48c0 3.58 2.92 6.5 6.5 6.5s6.5-2.92 6.5-6.5c0-1.67-.637-3.26-1.8-4.48a1.435 1.435 0 0 1 2.078-1.982 9.338 9.338 0 0 1 2.6 6.46c0 5.17-4.2 9.37-9.37 9.37z"/><path d="M134.1 163.4a1.48 1.48 0 0 1-2.96 0v-9.48c0-.82.662-1.48 1.48-1.48.817 0 1.48.665 1.48 1.48v9.48z"/></g><path opacity=".05" d="M121 174c6.37 6.37 16.7 6.37 23.1 0 6.37-6.37 6.37-16.7 0-23.1L121 174z"/><g fill="#878787"><path d="M79.1 58.3v10.4c0 .612.496 1.11 1.1 1.11.61 0 1.11-.496 1.11-1.11V58.3H79.1zM84.1 58.3v10.4c0 .612.496 1.11 1.1 1.11a1.11 1.11 0 0 0 1.11-1.11V58.3H84.1zM88.1 58.3v10.4c0 .612.496 1.11 1.1 1.11a1.11 1.11 0 0 0 1.11-1.11V58.3H88.1z"/></g><g fill="#878787"><path d="M176.1 58.3v10.4c0 .612.498 1.11 1.11 1.11.61 0 1.11-.496 1.11-1.11V58.3h-2.21zM180.1 58.3v10.4a1.11 1.11 0 0 0 2.22 0V58.3h-2.22zM185.1 58.3v10.4a1.11 1.11 0 0 0 2.22 0V58.3h-2.21z"/></g><path opacity=".15" d="M61.1 205v2.32c0 1.93 1.56 3.5 3.5 3.5h136.2c1.93 0 3.5-1.56 3.5-3.5V205h-143zM106 58.3v2.95c0 2.72 2.2 4.92 4.92 4.92h44.1c2.72 0 4.92-2.2 4.92-4.92V58.3h-53.9z"/><path opacity=".03" d="M201 58.3l-128 105h120c6.44 0 11.7-3.88 11.7-10.1V62.4c0-1.93-1.56-3.5-3.5-3.5z"/></g><path fill="#a0a0a0" d="M74.8 96h-4.31c-1.03 0-1.87-.837-1.87-1.87s.84-1.87 1.87-1.87h4.31c1.82 0 3.61-.286 5.32-.85a1.87 1.87 0 1 1 1.17 3.55C79.2 95.647 77.01 96 74.8 96zm-17.6 0H46.9a1.87 1.87 0 0 1 0-3.74h10.3c1.03 0 1.87.84 1.87 1.87S58.23 96 57.2 96zm-23.6 0H23.3a1.87 1.87 0 0 1 0-3.74h10.3a1.87 1.87 0 0 1 0 3.74zm-22.8-3.56c-.378 0-.758-.113-1.09-.352-3.09-2.23-5.5-5.26-6.98-8.76a1.87 1.87 0 1 1 3.45-1.45 17.03 17.03 0 0 0 5.72 7.18c.838.605 1.03 1.77.42 2.61a1.87 1.87 0 0 1-1.52.772zm80.1-5.47a1.87 1.87 0 0 1-1.592-2.845 16.95 16.95 0 0 0 2.48-8.84c0-1.03.837-1.91 1.87-1.91s1.87.796 1.87 1.83v.08c0 3.82-1.05 7.55-3.03 10.8-.35.575-.97.898-1.6.898zM3 70.97c-1.03 0-1.87-.837-1.87-1.87V58.8a1.87 1.87 0 0 1 3.74 0v10.3c0 1.03-.84 1.87-1.87 1.87zm90.7-7.58c-1.03 0-1.87-.84-1.87-1.87v-10.3c0-1.03.837-1.87 1.87-1.87s1.87.835 1.87 1.87v10.3a1.87 1.87 0 0 1-1.87 1.87zM3 48.39c-1.03 0-1.87-.837-1.87-1.87v-10.3c0-1.03.837-1.87 1.87-1.87s1.87.835 1.87 1.87v10.3c0 1.03-.84 1.87-1.87 1.87zm90.7-7.59c-1.03 0-1.87-.837-1.87-1.87v-10.3a1.87 1.87 0 0 1 3.74 0v10.3a1.87 1.87 0 0 1-1.87 1.87zM3 24.8c-1.03 0-1.87-.818-1.87-1.85v-.036c0-3.8 1.04-7.52 3-10.7a1.87 1.87 0 0 1 3.196 1.947 16.944 16.944 0 0 0-2.46 8.81c-.002 1.03-.84 1.89-1.87 1.89zm89.2-7.36c-.728 0-1.42-.427-1.72-1.14-1.22-2.87-3.2-5.34-5.74-7.17a1.867 1.867 0 0 1-.425-2.61 1.867 1.867 0 0 1 2.61-.425 20.81 20.81 0 0 1 7 8.75 1.87 1.87 0 0 1-1.72 2.597zm-76.3-11c-.78 0-1.51-.495-1.77-1.28a1.865 1.865 0 0 1 1.19-2.36c2.1-.698 4.3-1.05 6.53-1.05h4.27c1.03 0 1.87.837 1.87 1.87s-.835 1.87-1.87 1.87h-4.27a16.9 16.9 0 0 0-5.36.863 1.838 1.838 0 0 1-.59.096zm57.4-.96H63a1.87 1.87 0 0 1 0-3.74h10.3c1.03 0 1.87.838 1.87 1.87s-.84 1.87-1.87 1.87zm-23.6 0H39.4a1.87 1.87 0 0 1 0-3.74h10.3a1.87 1.87 0 0 1 0 3.74z"/></svg>